<?xml version="1.0" encoding="UTF-8" standalone="no"?>
<!DOCTYPE svg PUBLIC "-//W3C//DTD SVG 1.1//EN"
 "http://www.w3.org/Graphics/SVG/1.1/DTD/svg11.dtd">
<!-- Generated by graphviz version 2.40.1 (20161225.0304)
 -->
<!-- Title: put_u32 Pages: 1 -->
<svg width="1148pt" height="746pt"
 viewBox="0.00 0.00 1148.00 745.64" xmlns="http://www.w3.org/2000/svg" xmlns:xlink="http://www.w3.org/1999/xlink">
<g id="graph0" class="graph" transform="scale(1 1) rotate(0) translate(4 741.6364)">
<title>put_u32</title>
<!-- Node3085 -->
<g id="node1" class="node">
<title>Node3085</title>
<polygon fill="#bfbfbf" stroke="#000000" points="0,-313.5 0,-332.5 51,-332.5 51,-313.5 0,-313.5"/>
<text text-anchor="middle" x="25.5" y="-320.5" font-family="Helvetica,sans-Serif" font-size="10.00" fill="#000000">put_u32</text>
</g>
<!-- Node3086 -->
<g id="node2" class="node">
<title>Node3086</title>
<g id="a_node2"><a xlink:href="quickjs_8c.html#a5176c9251c0ffb7c858cdc74296f16fe" target="_top" xlink:title="bc_byte_swap">
<polygon fill="none" stroke="#000000" points="115,-676.5 115,-695.5 195,-695.5 195,-676.5 115,-676.5"/>
<text text-anchor="middle" x="155" y="-683.5" font-family="Helvetica,sans-Serif" font-size="10.00" fill="#000000">bc_byte_swap</text>
</a>
</g>
</g>
<!-- Node3085&#45;&gt;Node3086 -->
<g id="edge1" class="edge">
<title>Node3085&#45;&gt;Node3086</title>
<path fill="none" stroke="#191970" d="M26.3481,-342.8513C29.5614,-408.7356 43.1205,-618.7138 87,-667 94.2544,-674.983 104.5566,-679.7228 114.954,-682.5058"/>
<polygon fill="#191970" stroke="#191970" points="29.8328,-342.4371 25.8769,-332.6085 22.8402,-342.7588 29.8328,-342.4371"/>
</g>
<!-- Node3087 -->
<g id="node3" class="node">
<title>Node3087</title>
<g id="a_node3"><a xlink:href="quickjs_8c.html#a394e92f87f41d27e7031eb3150bc35b1" target="_top" xlink:title="JS_WriteFunctionBytecode">
<polygon fill="none" stroke="#000000" points="259,-700.5 259,-719.5 395,-719.5 395,-700.5 259,-700.5"/>
<text text-anchor="middle" x="327" y="-707.5" font-family="Helvetica,sans-Serif" font-size="10.00" fill="#000000">JS_WriteFunctionBytecode</text>
</a>
</g>
</g>
<!-- Node3085&#45;&gt;Node3087 -->
<g id="edge29" class="edge">
<title>Node3085&#45;&gt;Node3087</title>
<path fill="none" stroke="#191970" d="M27.2214,-342.8674C33.9157,-417.8766 59.2227,-680.8333 87,-705 146.7392,-756.9741 250.0052,-734.5534 299.281,-719.5381"/>
<polygon fill="#191970" stroke="#191970" points="30.7039,-342.5136 26.3398,-332.8593 23.7309,-343.1279 30.7039,-342.5136"/>
</g>
<!-- Node3088 -->
<g id="node4" class="node">
<title>Node3088</title>
<g id="a_node4"><a xlink:href="quickjs_8c.html#a77e9c7ebb882b521133545bc59d15a4a" target="_top" xlink:title="js_dataview_setValue">
<polygon fill="none" stroke="#000000" points="99,-638.5 99,-657.5 211,-657.5 211,-638.5 99,-638.5"/>
<text text-anchor="middle" x="155" y="-645.5" font-family="Helvetica,sans-Serif" font-size="10.00" fill="#000000">js_dataview_setValue</text>
</a>
</g>
</g>
<!-- Node3085&#45;&gt;Node3088 -->
<g id="edge3" class="edge">
<title>Node3085&#45;&gt;Node3088</title>
<path fill="none" stroke="#191970" d="M27.0127,-342.5724C32.0068,-402.3885 49.8131,-581.3024 87,-624 92.5089,-630.3253 99.792,-634.9836 107.5433,-638.4142"/>
<polygon fill="#191970" stroke="#191970" points="30.4978,-342.2457 26.205,-332.5595 23.5205,-342.8086 30.4978,-342.2457"/>
</g>
<!-- Node3089 -->
<g id="node5" class="node">
<title>Node3089</title>
<g id="a_node5"><a xlink:href="quickjs_8c.html#a00eb789430243c24dab4a63ad6a79653" target="_top" xlink:title="js_parse_class">
<polygon fill="none" stroke="#000000" points="286,-542.5 286,-561.5 368,-561.5 368,-542.5 286,-542.5"/>
<text text-anchor="middle" x="327" y="-549.5" font-family="Helvetica,sans-Serif" font-size="10.00" fill="#000000">js_parse_class</text>
</a>
</g>
</g>
<!-- Node3085&#45;&gt;Node3089 -->
<g id="edge4" class="edge">
<title>Node3085&#45;&gt;Node3089</title>
<path fill="none" stroke="#191970" d="M40.7903,-340.4437C75.7418,-379.3344 165.6911,-473.9642 259,-528 269.1837,-533.8975 281.057,-538.6998 292.006,-542.4162"/>
<polygon fill="#191970" stroke="#191970" points="43.0887,-337.7616 33.8262,-332.6179 37.8594,-342.4151 43.0887,-337.7616"/>
</g>
<!-- Node3094 -->
<g id="node10" class="node">
<title>Node3094</title>
<g id="a_node10"><a xlink:href="quickjs_8c.html#a9d844c16dcc71701436848074337d32c" target="_top" xlink:title="js_parse_statement\l_or_decl">
<polygon fill="none" stroke="#ff0000" points="1038,-546 1038,-576 1140,-576 1140,-546 1038,-546"/>
<text text-anchor="start" x="1046" y="-564" font-family="Helvetica,sans-Serif" font-size="10.00" fill="#000000">js_parse_statement</text>
<text text-anchor="middle" x="1089" y="-553" font-family="Helvetica,sans-Serif" font-size="10.00" fill="#000000">_or_decl</text>
</a>
</g>
</g>
<!-- Node3085&#45;&gt;Node3094 -->
<g id="edge24" class="edge">
<title>Node3085&#45;&gt;Node3094</title>
<path fill="none" stroke="#191970" d="M30.4991,-342.4384C38.5422,-370.6907 56.6107,-423.583 87,-459 260.8609,-661.6247 368.5086,-704 635.5,-704 635.5,-704 635.5,-704 786,-704 883.2521,-704 917.9264,-717.8836 1002,-669 1040.5064,-646.6109 1068.7932,-600.18 1081.5217,-576.1475"/>
<polygon fill="#191970" stroke="#191970" points="33.8221,-341.3197 27.8207,-332.5886 27.0674,-343.1566 33.8221,-341.3197"/>
</g>
<!-- Node3125 -->
<g id="node14" class="node">
<title>Node3125</title>
<g id="a_node14"><a xlink:href="quickjs_8c.html#ab64e04b510d4c4073aa468fc0a3ac0b1" target="_top" xlink:title="JS_ReadFunctionBytecode">
<polygon fill="none" stroke="#000000" points="87,-294.5 87,-313.5 223,-313.5 223,-294.5 87,-294.5"/>
<text text-anchor="middle" x="155" y="-301.5" font-family="Helvetica,sans-Serif" font-size="10.00" fill="#000000">JS_ReadFunctionBytecode</text>
</a>
</g>
</g>
<!-- Node3085&#45;&gt;Node3125 -->
<g id="edge25" class="edge">
<title>Node3085&#45;&gt;Node3125</title>
<path fill="none" stroke="#191970" d="M61.1471,-317.7699C70.1361,-316.4511 80.07,-314.9936 90.0114,-313.535"/>
<polygon fill="#191970" stroke="#191970" points="60.471,-314.3316 51.085,-319.2462 61.4872,-321.2574 60.471,-314.3316"/>
</g>
<!-- Node3137 -->
<g id="node17" class="node">
<title>Node3137</title>
<g id="a_node17"><a xlink:href="libregexp_8h.html#a9f2d004d841acbf42a7cf0490258b5ab" target="_top" xlink:title="lre_compile">
<polygon fill="none" stroke="#000000" points="294,-170.5 294,-189.5 360,-189.5 360,-170.5 294,-170.5"/>
<text text-anchor="middle" x="327" y="-177.5" font-family="Helvetica,sans-Serif" font-size="10.00" fill="#000000">lre_compile</text>
</a>
</g>
</g>
<!-- Node3085&#45;&gt;Node3137 -->
<g id="edge30" class="edge">
<title>Node3085&#45;&gt;Node3137</title>
<path fill="none" stroke="#191970" d="M48.9239,-307.8404C60.2778,-300.67 74.1979,-292.1368 87,-285 161.6514,-243.3844 179.2564,-229.7513 259,-199 270.0937,-194.722 282.5432,-190.958 293.7284,-187.9328"/>
<polygon fill="#191970" stroke="#191970" points="46.9921,-304.9212 40.4388,-313.2461 50.7533,-310.8249 46.9921,-304.9212"/>
</g>
<!-- Node3143 -->
<g id="node21" class="node">
<title>Node3143</title>
<g id="a_node21"><a xlink:href="quickjs_8c.html#adeab43cd3441f3747a2af76709a4dd69" target="_top" xlink:title="optimize_scope_make\l_global_ref">
<polygon fill="none" stroke="#000000" points="98,-64 98,-94 212,-94 212,-64 98,-64"/>
<text text-anchor="start" x="106" y="-82" font-family="Helvetica,sans-Serif" font-size="10.00" fill="#000000">optimize_scope_make</text>
<text text-anchor="middle" x="155" y="-71" font-family="Helvetica,sans-Serif" font-size="10.00" fill="#000000">_global_ref</text>
</a>
</g>
</g>
<!-- Node3085&#45;&gt;Node3143 -->
<g id="edge34" class="edge">
<title>Node3085&#45;&gt;Node3143</title>
<path fill="none" stroke="#191970" d="M26.8129,-303.4335C30.3322,-264.5885 42.9566,-176.6098 87,-120 95.3804,-109.2285 107.4486,-100.6565 119.099,-94.1937"/>
<polygon fill="#191970" stroke="#191970" points="23.3224,-303.1763 26.0154,-313.4232 30.3002,-303.7335 23.3224,-303.1763"/>
</g>
<!-- Node3147 -->
<g id="node23" class="node">
<title>Node3147</title>
<g id="a_node23"><a xlink:href="libregexp_8c.html#af445f369f2ccbbc81596e0fbed929b7e" target="_top" xlink:title="re_parse_disjunction">
<polygon fill="none" stroke="#000000" points="102,-167.5 102,-186.5 208,-186.5 208,-167.5 102,-167.5"/>
<text text-anchor="middle" x="155" y="-174.5" font-family="Helvetica,sans-Serif" font-size="10.00" fill="#000000">re_parse_disjunction</text>
</a>
</g>
</g>
<!-- Node3085&#45;&gt;Node3147 -->
<g id="edge36" class="edge">
<title>Node3085&#45;&gt;Node3147</title>
<path fill="none" stroke="#191970" d="M32.4666,-303.8423C41.8273,-280.2739 60.4175,-240.1768 87,-214 99.1619,-202.0237 115.9924,-192.8241 129.8661,-186.5937"/>
<polygon fill="#191970" stroke="#191970" points="29.1152,-302.8078 28.8196,-313.3985 35.6551,-305.3037 29.1152,-302.8078"/>
</g>
<!-- Node3148 -->
<g id="node24" class="node">
<title>Node3148</title>
<g id="a_node24"><a xlink:href="libregexp_8c.html#acca34590a18d70f866ad56d67ce309e8" target="_top" xlink:title="re_parse_term">
<polygon fill="none" stroke="#000000" points="287.5,-94.5 287.5,-113.5 366.5,-113.5 366.5,-94.5 287.5,-94.5"/>
<text text-anchor="middle" x="327" y="-101.5" font-family="Helvetica,sans-Serif" font-size="10.00" fill="#000000">re_parse_term</text>
</a>
</g>
</g>
<!-- Node3085&#45;&gt;Node3148 -->
<g id="edge41" class="edge">
<title>Node3085&#45;&gt;Node3148</title>
<path fill="none" stroke="#191970" d="M26.9549,-303.1338C30.6181,-268.2577 43.3412,-196.1119 87,-158 143.4653,-108.7087 235.3053,-101.6217 287.4807,-102.0387"/>
<polygon fill="#191970" stroke="#191970" points="23.4388,-303.1561 26.0283,-313.4296 30.4106,-303.7836 23.4388,-303.1561"/>
</g>
<!-- Node3150 -->
<g id="node26" class="node">
<title>Node3150</title>
<g id="a_node26"><a xlink:href="quickjs_8c.html#ad0d311d4ce409584384f835f1a3e185a" target="_top" xlink:title="resolve_labels">
<polygon fill="none" stroke="#000000" points="115.5,-3.5 115.5,-22.5 194.5,-22.5 194.5,-3.5 115.5,-3.5"/>
<text text-anchor="middle" x="155" y="-10.5" font-family="Helvetica,sans-Serif" font-size="10.00" fill="#000000">resolve_labels</text>
</a>
</g>
</g>
<!-- Node3085&#45;&gt;Node3150 -->
<g id="edge42" class="edge">
<title>Node3085&#45;&gt;Node3150</title>
<path fill="none" stroke="#191970" d="M28.0565,-303.0482C35.4172,-248.0188 58,-95.4897 87,-55 97.6652,-40.1093 115.411,-29.4081 130.1,-22.535"/>
<polygon fill="#191970" stroke="#191970" points="24.5506,-302.8652 26.72,-313.2356 31.4911,-303.7758 24.5506,-302.8652"/>
</g>
<!-- Node3151 -->
<g id="node28" class="node">
<title>Node3151</title>
<g id="a_node28"><a xlink:href="quickjs_8c.html#ab87db7e4e299e811a54acab5fe3620a7" target="_top" xlink:title="set_object_name">
<polygon fill="none" stroke="#000000" points="109.5,-351.5 109.5,-370.5 200.5,-370.5 200.5,-351.5 109.5,-351.5"/>
<text text-anchor="middle" x="155" y="-358.5" font-family="Helvetica,sans-Serif" font-size="10.00" fill="#000000">set_object_name</text>
</a>
</g>
</g>
<!-- Node3085&#45;&gt;Node3151 -->
<g id="edge45" class="edge">
<title>Node3085&#45;&gt;Node3151</title>
<path fill="none" stroke="#191970" d="M60.7149,-333.3333C80,-338.9923 103.7339,-345.9567 122.5645,-351.4822"/>
<polygon fill="#191970" stroke="#191970" points="61.666,-329.9649 51.085,-330.5076 59.695,-336.6817 61.666,-329.9649"/>
</g>
<!-- Node3086&#45;&gt;Node3087 -->
<g id="edge2" class="edge">
<title>Node3086&#45;&gt;Node3087</title>
<path fill="none" stroke="#191970" d="M205.4459,-693.039C222.1989,-695.3766 241.1365,-698.0191 258.9911,-700.5104"/>
<polygon fill="#191970" stroke="#191970" points="205.7141,-689.5426 195.3264,-691.6269 204.7467,-696.4754 205.7141,-689.5426"/>
</g>
<!-- Node3090 -->
<g id="node6" class="node">
<title>Node3090</title>
<g id="a_node6"><a xlink:href="quickjs_8c.html#a840642c87c5a82d4cc68333376a3b6de" target="_top" xlink:title="js_parse_postfix_expr">
<polygon fill="none" stroke="#000000" points="431,-448.5 431,-467.5 543,-467.5 543,-448.5 431,-448.5"/>
<text text-anchor="middle" x="487" y="-455.5" font-family="Helvetica,sans-Serif" font-size="10.00" fill="#000000">js_parse_postfix_expr</text>
</a>
</g>
</g>
<!-- Node3089&#45;&gt;Node3090 -->
<g id="edge5" class="edge">
<title>Node3089&#45;&gt;Node3090</title>
<path fill="none" stroke="#191970" d="M351.8694,-537.3892C384.9957,-517.9275 442.6737,-484.0417 470.7349,-467.5557"/>
<polygon fill="#191970" stroke="#191970" points="350.0713,-534.3862 343.2222,-542.4695 353.6172,-540.4217 350.0713,-534.3862"/>
</g>
<!-- Node3089&#45;&gt;Node3094 -->
<g id="edge22" class="edge">
<title>Node3089&#45;&gt;Node3094</title>
<path fill="none" stroke="#191970" d="M341.3009,-569.5879C359.6323,-590.7524 393.552,-625.4968 431,-642 514.7414,-678.9047 543.9873,-666 635.5,-666 635.5,-666 635.5,-666 786,-666 882.5908,-666 914.2095,-682.2815 1002,-642 1034.4494,-627.111 1062.7726,-595.3543 1077.7274,-576.3272"/>
<polygon fill="#191970" stroke="#191970" points="343.7667,-567.0828 334.6432,-561.6964 338.4164,-571.5966 343.7667,-567.0828"/>
</g>
<!-- Node3101 -->
<g id="node11" class="node">
<title>Node3101</title>
<g id="a_node11"><a xlink:href="quickjs_8c.html#a498e1d5c7de1b59c1630e9847cde1e41" target="_top" xlink:title="js_parse_export">
<polygon fill="none" stroke="#ff0000" points="1046,-490.5 1046,-509.5 1132,-509.5 1132,-490.5 1046,-490.5"/>
<text text-anchor="middle" x="1089" y="-497.5" font-family="Helvetica,sans-Serif" font-size="10.00" fill="#000000">js_parse_export</text>
</a>
</g>
</g>
<!-- Node3089&#45;&gt;Node3101 -->
<g id="edge23" class="edge">
<title>Node3089&#45;&gt;Node3101</title>
<path fill="none" stroke="#191970" d="M359.3704,-565.4683C414.8594,-587.3 532.1627,-628 635.5,-628 635.5,-628 635.5,-628 786,-628 907.6345,-628 1036.6212,-539.3887 1076.521,-509.6208"/>
<polygon fill="#191970" stroke="#191970" points="360.331,-562.0832 349.7461,-561.6255 357.7353,-568.5841 360.331,-562.0832"/>
</g>
<!-- Node3090&#45;&gt;Node3090 -->
<g id="edge19" class="edge">
<title>Node3090&#45;&gt;Node3090</title>
<path fill="none" stroke="#191970" d="M459.3742,-476.6539C460.5289,-481.9368 469.7375,-486 487,-486 513.3047,-486 520.9084,-476.5653 509.8111,-467.7571"/>
<polygon fill="#191970" stroke="#191970" points="462.5076,-478.2176 464.1889,-467.7571 456.3512,-474.886 462.5076,-478.2176"/>
</g>
<!-- Node3091 -->
<g id="node7" class="node">
<title>Node3091</title>
<g id="a_node7"><a xlink:href="quickjs_8c.html#a12b48ce2b1f247b494fdde07dbe7f232" target="_top" xlink:title="js_parse_left_hand\l_side_expr">
<polygon fill="none" stroke="#ff0000" points="586.5,-493 586.5,-523 684.5,-523 684.5,-493 586.5,-493"/>
<text text-anchor="start" x="594.5" y="-511" font-family="Helvetica,sans-Serif" font-size="10.00" fill="#000000">js_parse_left_hand</text>
<text text-anchor="middle" x="635.5" y="-500" font-family="Helvetica,sans-Serif" font-size="10.00" fill="#000000">_side_expr</text>
</a>
</g>
</g>
<!-- Node3090&#45;&gt;Node3091 -->
<g id="edge6" class="edge">
<title>Node3090&#45;&gt;Node3091</title>
<path fill="none" stroke="#191970" d="M524.9932,-470.7923C545.0226,-477.5362 569.7171,-485.8509 590.6784,-492.9085"/>
<polygon fill="#191970" stroke="#191970" points="525.8753,-467.3963 515.2813,-467.5223 523.6416,-474.0304 525.8753,-467.3963"/>
</g>
<!-- Node3111 -->
<g id="node13" class="node">
<title>Node3111</title>
<g id="a_node13"><a xlink:href="quickjs_8c.html#a9f26c765171d977db1796791f035f1f9" target="_top" xlink:title="js_parse_unary">
<polygon fill="none" stroke="#ff0000" points="594,-398.5 594,-417.5 677,-417.5 677,-398.5 594,-398.5"/>
<text text-anchor="middle" x="635.5" y="-405.5" font-family="Helvetica,sans-Serif" font-size="10.00" fill="#000000">js_parse_unary</text>
</a>
</g>
</g>
<!-- Node3090&#45;&gt;Node3111 -->
<g id="edge20" class="edge">
<title>Node3090&#45;&gt;Node3111</title>
<path fill="none" stroke="#191970" d="M525.0246,-445.1971C550.6024,-436.5851 583.7768,-425.4152 607.0715,-417.5719"/>
<polygon fill="#191970" stroke="#191970" points="523.6416,-441.9696 515.2813,-448.4777 525.8753,-448.6037 523.6416,-441.9696"/>
</g>
<!-- Node3091&#45;&gt;Node3089 -->
<g id="edge7" class="edge">
<title>Node3091&#45;&gt;Node3089</title>
<path fill="none" stroke="#191970" d="M576.0616,-516.4774C515.0395,-525.1808 421.6769,-538.4966 368.2856,-546.1116"/>
<polygon fill="#191970" stroke="#191970" points="576.9079,-519.8922 586.3135,-515.0153 575.9195,-512.9624 576.9079,-519.8922"/>
</g>
<!-- Node3092 -->
<g id="node8" class="node">
<title>Node3092</title>
<g id="a_node8"><a xlink:href="quickjs_8c.html#a26be546cf89c4580ba9020e8fc43a759" target="_top" xlink:title="js_parse_destructuring\l_element">
<polygon fill="none" stroke="#ff0000" points="728.5,-457 728.5,-487 843.5,-487 843.5,-457 728.5,-457"/>
<text text-anchor="start" x="736.5" y="-475" font-family="Helvetica,sans-Serif" font-size="10.00" fill="#000000">js_parse_destructuring</text>
<text text-anchor="middle" x="786" y="-464" font-family="Helvetica,sans-Serif" font-size="10.00" fill="#000000">_element</text>
</a>
</g>
</g>
<!-- Node3091&#45;&gt;Node3092 -->
<g id="edge8" class="edge">
<title>Node3091&#45;&gt;Node3092</title>
<path fill="none" stroke="#191970" d="M694.737,-493.8304C705.7583,-491.194 717.2601,-488.4428 728.2365,-485.8172"/>
<polygon fill="#191970" stroke="#191970" points="693.6907,-490.4818 684.7793,-496.2123 695.3192,-497.2898 693.6907,-490.4818"/>
</g>
<!-- Node3092&#45;&gt;Node3090 -->
<g id="edge10" class="edge">
<title>Node3092&#45;&gt;Node3090</title>
<path fill="none" stroke="#191970" d="M718.193,-468.8251C665.3586,-466.3512 592.8793,-462.9576 543.2396,-460.6333"/>
<polygon fill="#191970" stroke="#191970" points="718.3325,-472.3354 728.4853,-469.307 718.66,-465.343 718.3325,-472.3354"/>
</g>
<!-- Node3092&#45;&gt;Node3092 -->
<g id="edge9" class="edge">
<title>Node3092&#45;&gt;Node3092</title>
<path fill="none" stroke="#191970" d="M759.3468,-497.4579C762.6548,-502.179 771.5392,-505.5 786,-505.5 809.7305,-505.5 818.444,-496.5566 812.1406,-487.159"/>
<polygon fill="#191970" stroke="#191970" points="762.8579,-497.3207 759.8594,-487.159 755.8665,-496.9726 762.8579,-497.3207"/>
</g>
<!-- Node3093 -->
<g id="node9" class="node">
<title>Node3093</title>
<g id="a_node9"><a xlink:href="quickjs_8c.html#a9660cf21845352b14655d423389d6620" target="_top" xlink:title="js_parse_var">
<polygon fill="none" stroke="#000000" points="905,-500.5 905,-519.5 977,-519.5 977,-500.5 905,-500.5"/>
<text text-anchor="middle" x="941" y="-507.5" font-family="Helvetica,sans-Serif" font-size="10.00" fill="#000000">js_parse_var</text>
</a>
</g>
</g>
<!-- Node3092&#45;&gt;Node3093 -->
<g id="edge11" class="edge">
<title>Node3092&#45;&gt;Node3093</title>
<path fill="none" stroke="#191970" d="M853.4395,-488.5336C871.1158,-492.8671 889.5024,-497.3748 904.8367,-501.1342"/>
<polygon fill="#191970" stroke="#191970" points="854.2621,-485.1316 843.7163,-486.1498 852.5953,-491.9303 854.2621,-485.1316"/>
</g>
<!-- Node3092&#45;&gt;Node3094 -->
<g id="edge15" class="edge">
<title>Node3092&#45;&gt;Node3094</title>
<path fill="none" stroke="#191970" d="M813.9915,-493.0121C831.9438,-505.4334 856.2602,-520.3742 880,-529 931.7511,-547.8036 994.6108,-555.558 1037.7939,-558.7559"/>
<polygon fill="#191970" stroke="#191970" points="815.9041,-490.0778 805.7203,-487.1555 811.859,-495.7907 815.9041,-490.0778"/>
</g>
<!-- Node3099 -->
<g id="node12" class="node">
<title>Node3099</title>
<g id="a_node12"><a xlink:href="quickjs_8c.html#acc9eb677cab8dfcf45f59381f8a19601" target="_top" xlink:title="js_parse_function_decl2">
<polygon fill="none" stroke="#ff0000" points="880,-462.5 880,-481.5 1002,-481.5 1002,-462.5 880,-462.5"/>
<text text-anchor="middle" x="941" y="-469.5" font-family="Helvetica,sans-Serif" font-size="10.00" fill="#000000">js_parse_function_decl2</text>
</a>
</g>
</g>
<!-- Node3092&#45;&gt;Node3099 -->
<g id="edge16" class="edge">
<title>Node3092&#45;&gt;Node3099</title>
<path fill="none" stroke="#191970" d="M853.7944,-472C862.4666,-472 871.3036,-472 879.8616,-472"/>
<polygon fill="#191970" stroke="#191970" points="853.7163,-468.5001 843.7163,-472 853.7162,-475.5001 853.7163,-468.5001"/>
</g>
<!-- Node3093&#45;&gt;Node3094 -->
<g id="edge12" class="edge">
<title>Node3093&#45;&gt;Node3094</title>
<path fill="none" stroke="#191970" d="M978.3915,-522.8849C998.7409,-529.8972 1024.0275,-538.6108 1045.2848,-545.936"/>
<polygon fill="#191970" stroke="#191970" points="979.4324,-519.5417 968.8377,-519.5927 977.1518,-526.1598 979.4324,-519.5417"/>
</g>
<!-- Node3093&#45;&gt;Node3101 -->
<g id="edge14" class="edge">
<title>Node3093&#45;&gt;Node3101</title>
<path fill="none" stroke="#191970" d="M987.2707,-506.8736C1005.9674,-505.6103 1027.425,-504.1605 1045.7991,-502.919"/>
<polygon fill="#191970" stroke="#191970" points="986.9461,-503.3875 977.2049,-507.5537 987.4181,-510.3715 986.9461,-503.3875"/>
</g>
<!-- Node3094&#45;&gt;Node3094 -->
<g id="edge13" class="edge">
<title>Node3094&#45;&gt;Node3094</title>
<path fill="none" stroke="#191970" d="M1062.7022,-586.4579C1065.9661,-591.179 1074.7321,-594.5 1089,-594.5 1112.4141,-594.5 1121.0114,-585.5566 1114.7921,-576.159"/>
<polygon fill="#191970" stroke="#191970" points="1066.2132,-586.3187 1063.2079,-576.159 1059.2216,-585.9753 1066.2132,-586.3187"/>
</g>
<!-- Node3099&#45;&gt;Node3089 -->
<g id="edge17" class="edge">
<title>Node3099&#45;&gt;Node3089</title>
<path fill="none" stroke="#191970" d="M886.1874,-486.3291C884.0021,-487.7421 881.9252,-489.2945 880,-491 850.8148,-516.8539 876.7417,-549.8297 844,-571 766.03,-621.4143 476.7889,-578.005 368.3846,-559.4367"/>
<polygon fill="#191970" stroke="#191970" points="887.9236,-489.3693 895.0622,-481.5405 884.5996,-483.2089 887.9236,-489.3693"/>
</g>
<!-- Node3099&#45;&gt;Node3101 -->
<g id="edge18" class="edge">
<title>Node3099&#45;&gt;Node3101</title>
<path fill="none" stroke="#191970" d="M1001.5889,-483.4628C1016.3475,-486.2549 1031.8424,-489.1864 1045.6185,-491.7927"/>
<polygon fill="#191970" stroke="#191970" points="1001.9956,-479.9777 991.5193,-481.5577 1000.6943,-486.8557 1001.9956,-479.9777"/>
</g>
<!-- Node3111&#45;&gt;Node3111 -->
<g id="edge21" class="edge">
<title>Node3111&#45;&gt;Node3111</title>
<path fill="none" stroke="#191970" d="M607.8742,-426.6539C609.0289,-431.9368 618.2375,-436 635.5,-436 661.8047,-436 669.4084,-426.5653 658.3111,-417.7571"/>
<polygon fill="#191970" stroke="#191970" points="611.0076,-428.2176 612.6889,-417.7571 604.8512,-424.886 611.0076,-428.2176"/>
</g>
<!-- Node3126 -->
<g id="node15" class="node">
<title>Node3126</title>
<g id="a_node15"><a xlink:href="quickjs_8c.html#a367627778ac537f4bb1f0fd07a2dee1b" target="_top" xlink:title="JS_ReadFunctionTag">
<polygon fill="none" stroke="#000000" points="271.5,-208.5 271.5,-227.5 382.5,-227.5 382.5,-208.5 271.5,-208.5"/>
<text text-anchor="middle" x="327" y="-215.5" font-family="Helvetica,sans-Serif" font-size="10.00" fill="#000000">JS_ReadFunctionTag</text>
</a>
</g>
</g>
<!-- Node3125&#45;&gt;Node3126 -->
<g id="edge26" class="edge">
<title>Node3125&#45;&gt;Node3126</title>
<path fill="none" stroke="#191970" d="M177.3415,-288.9086C197.9329,-275.4344 229.6552,-255.759 259,-242 270.6752,-236.5258 283.9634,-231.5715 295.6766,-227.6049"/>
<polygon fill="#191970" stroke="#191970" points="175.3839,-286.0071 168.9751,-294.4438 179.2463,-291.8451 175.3839,-286.0071"/>
</g>
<!-- Node3127 -->
<g id="node16" class="node">
<title>Node3127</title>
<g id="a_node16"><a xlink:href="quickjs_8c.html#a4b8ef2bb3b35e4a5f6ed8bd837a50e7c" target="_top" xlink:title="JS_ReadObjectRec">
<polygon fill="none" stroke="#ff0000" points="435,-208.5 435,-227.5 539,-227.5 539,-208.5 435,-208.5"/>
<text text-anchor="middle" x="487" y="-215.5" font-family="Helvetica,sans-Serif" font-size="10.00" fill="#000000">JS_ReadObjectRec</text>
</a>
</g>
</g>
<!-- Node3126&#45;&gt;Node3127 -->
<g id="edge27" class="edge">
<title>Node3126&#45;&gt;Node3127</title>
<path fill="none" stroke="#191970" d="M392.6138,-211.348C406.6725,-211.1546 421.3441,-211.2475 434.8141,-211.6265"/>
<polygon fill="#191970" stroke="#191970" points="392.4431,-207.8505 382.5112,-211.5393 392.5757,-214.8492 392.4431,-207.8505"/>
</g>
<!-- Node3127&#45;&gt;Node3126 -->
<g id="edge28" class="edge">
<title>Node3127&#45;&gt;Node3126</title>
<path fill="none" stroke="#191970" d="M424.413,-224.6058C410.5876,-224.8381 396.0329,-224.7897 382.5112,-224.4607"/>
<polygon fill="#191970" stroke="#191970" points="424.8948,-228.096 434.8141,-224.3735 424.7384,-221.0978 424.8948,-228.096"/>
</g>
<!-- Node3138 -->
<g id="node18" class="node">
<title>Node3138</title>
<g id="a_node18"><a xlink:href="quickjs_8c.html#ab0bd3fbfe9b7f004c067b103a6d60d03" target="_top" xlink:title="js_compile_regexp">
<polygon fill="none" stroke="#ff0000" points="438,-170.5 438,-189.5 536,-189.5 536,-170.5 438,-170.5"/>
<text text-anchor="middle" x="487" y="-177.5" font-family="Helvetica,sans-Serif" font-size="10.00" fill="#000000">js_compile_regexp</text>
</a>
</g>
</g>
<!-- Node3137&#45;&gt;Node3138 -->
<g id="edge31" class="edge">
<title>Node3137&#45;&gt;Node3138</title>
<path fill="none" stroke="#191970" d="M370.3135,-180C391.1517,-180 416.2288,-180 437.7864,-180"/>
<polygon fill="#191970" stroke="#191970" points="370.1521,-176.5001 360.1521,-180 370.1521,-183.5001 370.1521,-176.5001"/>
</g>
<!-- Node3139 -->
<g id="node19" class="node">
<title>Node3139</title>
<g id="a_node19"><a xlink:href="quickjs_8c.html#a233052710c228313122c39c231a23ddf" target="_top" xlink:title="js_regexp_constructor">
<polygon fill="none" stroke="#ff0000" points="579,-189.5 579,-208.5 692,-208.5 692,-189.5 579,-189.5"/>
<text text-anchor="middle" x="635.5" y="-196.5" font-family="Helvetica,sans-Serif" font-size="10.00" fill="#000000">js_regexp_constructor</text>
</a>
</g>
</g>
<!-- Node3138&#45;&gt;Node3139 -->
<g id="edge32" class="edge">
<title>Node3138&#45;&gt;Node3139</title>
<path fill="none" stroke="#191970" d="M546.1769,-187.5715C556.927,-188.9469 568.1173,-190.3786 578.7941,-191.7447"/>
<polygon fill="#191970" stroke="#191970" points="546.3994,-184.0715 536.036,-186.274 545.5109,-191.0149 546.3994,-184.0715"/>
</g>
<!-- Node3141 -->
<g id="node20" class="node">
<title>Node3141</title>
<g id="a_node20"><a xlink:href="quickjs_8c.html#af55de7fe1d3513a7230dfbfc1cbeec62" target="_top" xlink:title="js_regexp_compile">
<polygon fill="none" stroke="#000000" points="586.5,-151.5 586.5,-170.5 684.5,-170.5 684.5,-151.5 586.5,-151.5"/>
<text text-anchor="middle" x="635.5" y="-158.5" font-family="Helvetica,sans-Serif" font-size="10.00" fill="#000000">js_regexp_compile</text>
</a>
</g>
</g>
<!-- Node3138&#45;&gt;Node3141 -->
<g id="edge33" class="edge">
<title>Node3138&#45;&gt;Node3141</title>
<path fill="none" stroke="#191970" d="M546.062,-172.4432C559.386,-170.7385 573.3916,-168.9465 586.2619,-167.2998"/>
<polygon fill="#191970" stroke="#191970" points="545.5109,-168.9851 536.036,-173.726 546.3994,-175.9285 545.5109,-168.9851"/>
</g>
<!-- Node3144 -->
<g id="node22" class="node">
<title>Node3144</title>
<g id="a_node22"><a xlink:href="quickjs_8c.html#a30aac2d7e62ad60386ab6b522d7db744" target="_top" xlink:title="resolve_scope_var">
<polygon fill="none" stroke="#ff0000" points="278,-56.5 278,-75.5 376,-75.5 376,-56.5 278,-56.5"/>
<text text-anchor="middle" x="327" y="-63.5" font-family="Helvetica,sans-Serif" font-size="10.00" fill="#000000">resolve_scope_var</text>
</a>
</g>
</g>
<!-- Node3143&#45;&gt;Node3144 -->
<g id="edge35" class="edge">
<title>Node3143&#45;&gt;Node3144</title>
<path fill="none" stroke="#191970" d="M222.3837,-73.907C240.8462,-72.5116 260.511,-71.0253 277.7495,-69.7224"/>
<polygon fill="#191970" stroke="#191970" points="221.9813,-70.4274 212.2735,-74.6712 222.5089,-77.4075 221.9813,-70.4274"/>
</g>
<!-- Node3147&#45;&gt;Node3137 -->
<g id="edge40" class="edge">
<title>Node3147&#45;&gt;Node3137</title>
<path fill="none" stroke="#191970" d="M218.0677,-178.1C243.7771,-178.5484 272.4362,-179.0483 293.9035,-179.4227"/>
<polygon fill="#191970" stroke="#191970" points="218.0687,-174.5996 208.0091,-177.9246 217.9465,-181.5985 218.0687,-174.5996"/>
</g>
<!-- Node3147&#45;&gt;Node3148 -->
<g id="edge37" class="edge">
<title>Node3147&#45;&gt;Node3148</title>
<path fill="none" stroke="#191970" d="M188.5479,-163.5087C199.628,-158.8372 211.944,-153.4105 223,-148 239.4403,-139.9546 242.3114,-135.5167 259,-128 270.9856,-122.6016 284.5788,-117.5941 296.4445,-113.565"/>
<polygon fill="#191970" stroke="#191970" points="187.0808,-160.3282 179.1917,-167.4001 189.769,-166.7914 187.0808,-160.3282"/>
</g>
<!-- Node3149 -->
<g id="node25" class="node">
<title>Node3149</title>
<g id="a_node25"><a xlink:href="libregexp_8c.html#a87dce3150c68b8a079854274dd39243c" target="_top" xlink:title="re_parse_alternative">
<polygon fill="none" stroke="#000000" points="435,-113.5 435,-132.5 539,-132.5 539,-113.5 435,-113.5"/>
<text text-anchor="middle" x="487" y="-120.5" font-family="Helvetica,sans-Serif" font-size="10.00" fill="#000000">re_parse_alternative</text>
</a>
</g>
</g>
<!-- Node3148&#45;&gt;Node3149 -->
<g id="edge38" class="edge">
<title>Node3148&#45;&gt;Node3149</title>
<path fill="none" stroke="#191970" d="M376.5497,-109.884C395.0785,-112.0843 416.1689,-114.5888 434.9196,-116.8154"/>
<polygon fill="#191970" stroke="#191970" points="376.8936,-106.4004 366.5506,-108.6966 376.068,-113.3515 376.8936,-106.4004"/>
</g>
<!-- Node3149&#45;&gt;Node3147 -->
<g id="edge39" class="edge">
<title>Node3149&#45;&gt;Node3147</title>
<path fill="none" stroke="#191970" d="M424.783,-133.1196C362.4043,-143.2656 267.3765,-158.7219 208.3415,-168.324"/>
<polygon fill="#191970" stroke="#191970" points="425.5771,-136.5366 434.8854,-131.4765 424.4532,-129.6274 425.5771,-136.5366"/>
</g>
<!-- Node3146 -->
<g id="node27" class="node">
<title>Node3146</title>
<g id="a_node27"><a xlink:href="quickjs_8c.html#a97fcc747d8b1c3644174745d2e2739be" target="_top" xlink:title="js_create_function">
<polygon fill="none" stroke="#ff0000" points="279,-.5 279,-19.5 375,-19.5 375,-.5 279,-.5"/>
<text text-anchor="middle" x="327" y="-7.5" font-family="Helvetica,sans-Serif" font-size="10.00" fill="#000000">js_create_function</text>
</a>
</g>
</g>
<!-- Node3150&#45;&gt;Node3146 -->
<g id="edge43" class="edge">
<title>Node3150&#45;&gt;Node3146</title>
<path fill="none" stroke="#191970" d="M204.9034,-12.1296C228.1536,-11.7241 255.7041,-11.2435 278.7452,-10.8417"/>
<polygon fill="#191970" stroke="#191970" points="204.83,-8.6302 194.8926,-12.3042 204.9521,-15.6292 204.83,-8.6302"/>
</g>
<!-- Node3146&#45;&gt;Node3146 -->
<g id="edge44" class="edge">
<title>Node3146&#45;&gt;Node3146</title>
<path fill="none" stroke="#191970" d="M297.0599,-28.2746C297.9135,-33.741 307.8936,-38 327,-38 355.4375,-38 363.6577,-28.5653 351.6606,-19.7571"/>
<polygon fill="#191970" stroke="#191970" points="300.0458,-30.1007 302.3394,-19.7571 294.096,-26.4128 300.0458,-30.1007"/>
</g>
<!-- Node3151&#45;&gt;Node3089 -->
<g id="edge48" class="edge">
<title>Node3151&#45;&gt;Node3089</title>
<path fill="none" stroke="#191970" d="M162.0168,-380.3043C175.5133,-414.8207 208.3154,-487.3015 259,-528 266.8094,-534.2707 276.3785,-538.966 285.8449,-542.4581"/>
<polygon fill="#191970" stroke="#191970" points="165.2655,-378.9998 158.4497,-370.8883 158.7195,-381.4798 165.2655,-378.9998"/>
</g>
<!-- Node3151&#45;&gt;Node3092 -->
<g id="edge49" class="edge">
<title>Node3151&#45;&gt;Node3092</title>
<path fill="none" stroke="#191970" d="M210.7456,-359.3104C330.0267,-356.4344 606.1315,-353.9327 692,-389 727.4725,-403.4864 758.6,-437.2845 774.5906,-456.9936"/>
<polygon fill="#191970" stroke="#191970" points="210.6333,-355.8121 200.7243,-359.5619 210.809,-362.8099 210.6333,-355.8121"/>
</g>
<!-- Node3151&#45;&gt;Node3093 -->
<g id="edge53" class="edge">
<title>Node3151&#45;&gt;Node3093</title>
<path fill="none" stroke="#191970" d="M210.6917,-353.1501C276.5411,-344.5617 389.5166,-332 487,-332 487,-332 487,-332 635.5,-332 656.4759,-332 741.402,-363.0058 844,-448 863.1939,-463.9006 859.2596,-477.1772 880,-491 887.4763,-495.9827 896.3284,-499.7145 904.9372,-502.488"/>
<polygon fill="#191970" stroke="#191970" points="209.9928,-349.7119 200.5375,-354.4918 210.9099,-356.6516 209.9928,-349.7119"/>
</g>
<!-- Node3151&#45;&gt;Node3101 -->
<g id="edge54" class="edge">
<title>Node3151&#45;&gt;Node3101</title>
<path fill="none" stroke="#191970" d="M183.7708,-346.71C196.2109,-340.0828 210.7041,-331.7433 223,-323 240.4463,-310.5944 239.627,-300.1082 259,-291 351.7781,-247.3807 384.4797,-256 487,-256 487,-256 487,-256 786,-256 938.3029,-256 1057.3926,-445.3228 1083.6076,-490.4349"/>
<polygon fill="#191970" stroke="#191970" points="181.9788,-343.697 174.7283,-351.4224 185.2139,-349.9047 181.9788,-343.697"/>
</g>
<!-- Node3151&#45;&gt;Node3099 -->
<g id="edge55" class="edge">
<title>Node3151&#45;&gt;Node3099</title>
<path fill="none" stroke="#191970" d="M182.6878,-346.9851C203.2234,-337.2325 232.1879,-324.8025 259,-318 357.7641,-292.9426 385.1068,-294 487,-294 487,-294 487,-294 635.5,-294 728.7786,-294 765.0513,-268.3211 844,-318 900.1614,-353.3398 929.4555,-434.3288 938.1698,-462.2932"/>
<polygon fill="#191970" stroke="#191970" points="181.0809,-343.8744 173.6073,-351.3842 184.1329,-350.1741 181.0809,-343.8744"/>
</g>
<!-- Node3103 -->
<g id="node29" class="node">
<title>Node3103</title>
<g id="a_node29"><a xlink:href="quickjs_8c.html#aee6d0acd87f136d43f157ae1426436e6" target="_top" xlink:title="js_parse_object_literal">
<polygon fill="none" stroke="#000000" points="270.5,-423.5 270.5,-442.5 383.5,-442.5 383.5,-423.5 270.5,-423.5"/>
<text text-anchor="middle" x="327" y="-430.5" font-family="Helvetica,sans-Serif" font-size="10.00" fill="#000000">js_parse_object_literal</text>
</a>
</g>
</g>
<!-- Node3151&#45;&gt;Node3103 -->
<g id="edge46" class="edge">
<title>Node3151&#45;&gt;Node3103</title>
<path fill="none" stroke="#191970" d="M187.3328,-374.5347C221.3654,-388.7809 274.0757,-410.8457 304.0653,-423.3994"/>
<polygon fill="#191970" stroke="#191970" points="188.4162,-371.1939 177.8403,-370.561 185.7132,-377.651 188.4162,-371.1939"/>
</g>
<!-- Node3117 -->
<g id="node30" class="node">
<title>Node3117</title>
<g id="a_node30"><a xlink:href="quickjs_8c.html#afa1bc2743b3cf892d36544a708453736" target="_top" xlink:title="js_parse_assign_expr2">
<polygon fill="none" stroke="#ff0000" points="728,-524.5 728,-543.5 844,-543.5 844,-524.5 728,-524.5"/>
<text text-anchor="middle" x="786" y="-531.5" font-family="Helvetica,sans-Serif" font-size="10.00" fill="#000000">js_parse_assign_expr2</text>
</a>
</g>
</g>
<!-- Node3151&#45;&gt;Node3117 -->
<g id="edge50" class="edge">
<title>Node3151&#45;&gt;Node3117</title>
<path fill="none" stroke="#191970" d="M206.8144,-374.6085C212.6397,-377.457 218.1964,-380.8835 223,-385 248.6683,-406.9967 232.3538,-431.1986 259,-452 374.6428,-542.2768 433.4622,-514.5092 579,-533 628.9119,-539.3414 686.1406,-539.0459 727.7561,-537.4762"/>
<polygon fill="#191970" stroke="#191970" points="208.0772,-371.3415 197.5089,-370.592 205.3032,-377.7684 208.0772,-371.3415"/>
</g>
<!-- Node3103&#45;&gt;Node3090 -->
<g id="edge47" class="edge">
<title>Node3103&#45;&gt;Node3090</title>
<path fill="none" stroke="#191970" d="M394.0317,-443.4737C406.2883,-445.3888 418.962,-447.3691 430.8606,-449.2282"/>
<polygon fill="#191970" stroke="#191970" points="394.281,-439.9703 383.8605,-441.8845 393.2003,-446.8864 394.281,-439.9703"/>
</g>
<!-- Node3117&#45;&gt;Node3093 -->
<g id="edge52" class="edge">
<title>Node3117&#45;&gt;Node3093</title>
<path fill="none" stroke="#191970" d="M854.261,-523.4306C871.5892,-520.7475 889.5426,-517.9676 904.589,-515.6378"/>
<polygon fill="#191970" stroke="#191970" points="853.5039,-520.006 844.1573,-524.995 854.5751,-526.9236 853.5039,-520.006"/>
</g>
<!-- Node3117&#45;&gt;Node3117 -->
<g id="edge51" class="edge">
<title>Node3117&#45;&gt;Node3117</title>
<path fill="none" stroke="#191970" d="M758.0009,-552.6539C759.1712,-557.9368 768.5043,-562 786,-562 812.6602,-562 820.3666,-552.5653 809.1194,-543.7571"/>
<polygon fill="#191970" stroke="#191970" points="761.1403,-554.208 762.8806,-543.7571 755.0029,-550.8417 761.1403,-554.208"/>
</g>
</g>
</svg>
