<?xml version="1.0" encoding="UTF-8" standalone="no"?>
<!DOCTYPE svg PUBLIC "-//W3C//DTD SVG 1.1//EN"
 "http://www.w3.org/Graphics/SVG/1.1/DTD/svg11.dtd">
<!-- Generated by graphviz version 2.40.1 (20161225.0304)
 -->
<!-- Title: get_u16 Pages: 1 -->
<!--zoomable 684 -->
<svg id="main" version="1.1" xmlns="http://www.w3.org/2000/svg" xmlns:xlink="http://www.w3.org/1999/xlink" xml:space="preserve" onload="init(evt)">
<style type="text/css"><![CDATA[
.edge:hover path { stroke: red; }
.edge:hover polygon { stroke: red; fill: red; }
]]></style>
<script type="text/javascript"><![CDATA[
var edges = document.getElementsByTagName('g');
if (edges && edges.length) {
  for (var i=0;i<edges.length;i++) {
    if (edges[i].id.substr(0,4)=='edge') {
      edges[i].setAttribute('class','edge');
    }
  }
}
]]></script>
        <defs>
                <circle id="rim" cx="0" cy="0" r="7"/>
                <circle id="rim2" cx="0" cy="0" r="3.5"/>
                <g id="zoomPlus">
                        <use xlink:href="#rim" fill="#404040">
                                <set attributeName="fill" to="#808080" begin="zoomplus.mouseover" end="zoomplus.mouseout"/>
                        </use>
                        <path d="M-4,0h8M0,-4v8" fill="none" stroke="white" stroke-width="1.5" pointer-events="none"/>
                </g>
                <g id="zoomMin">
                        <use xlink:href="#rim" fill="#404040">
                                <set attributeName="fill" to="#808080" begin="zoomminus.mouseover" end="zoomminus.mouseout"/>
                        </use>
                        <path d="M-4,0h8" fill="none" stroke="white" stroke-width="1.5" pointer-events="none"/>
                </g>
                <g id="dirArrow">
                        <path fill="none" stroke="white" stroke-width="1.5" d="M0,-3.0v7 M-2.5,-0.5L0,-3.0L2.5,-0.5"/>
                </g>
               <g id="resetDef">
                       <use xlink:href="#rim2" fill="#404040">
                               <set attributeName="fill" to="#808080" begin="reset.mouseover" end="reset.mouseout"/>
                       </use>
               </g>
        </defs>

<script type="text/javascript">
var viewWidth = 650;
var viewHeight = 684;
var sectionId = 'dynsection-21';
</script>
<script xlink:href="svgpan.js"/>
<svg id="graph" class="graph">
<g id="viewport">
<title>get_u16</title>
<!-- Node3153 -->
<g id="node1" class="node">
<title>Node3153</title>
<polygon fill="#bfbfbf" stroke="#000000" points="0,-428.5 0,-447.5 51,-447.5 51,-428.5 0,-428.5"/>
<text text-anchor="middle" x="25.5" y="-435.5" font-family="Helvetica,sans-Serif" font-size="10.00" fill="#000000">get_u16</text>
</g>
<!-- Node3154 -->
<g id="node2" class="node">
<title>Node3154</title>
<g id="a_node2"><a xlink:href="quickjs_8c.html#a5176c9251c0ffb7c858cdc74296f16fe" target="_top" xlink:title="bc_byte_swap">
<polygon fill="none" stroke="#000000" points="105,-656.5 105,-675.5 185,-675.5 185,-656.5 105,-656.5"/>
<text text-anchor="middle" x="145" y="-663.5" font-family="Helvetica,sans-Serif" font-size="10.00" fill="#000000">bc_byte_swap</text>
</a>
</g>
</g>
<!-- Node3153&#45;&gt;Node3154 -->
<g id="edge1" class="edge">
<title>Node3153&#45;&gt;Node3154</title>
<path fill="none" stroke="#191970" d="M28.9067,-457.7734C37.3105,-504.4207 60.2984,-619.4744 87,-647 91.9431,-652.0957 98.2716,-655.8255 104.9218,-658.5554"/>
<polygon fill="#191970" stroke="#191970" points="32.3167,-456.9566 27.1314,-447.7174 25.4233,-458.1736 32.3167,-456.9566"/>
</g>
<!-- Node3156 -->
<g id="node4" class="node">
<title>Node3156</title>
<g id="a_node4"><a xlink:href="quickjs_8c.html#a8454d184ad3645b2ccfcd8e4ded1a8e9" target="_top" xlink:title="bc_get_u16">
<polygon fill="none" stroke="#000000" points="111.5,-618.5 111.5,-637.5 178.5,-637.5 178.5,-618.5 111.5,-618.5"/>
<text text-anchor="middle" x="145" y="-625.5" font-family="Helvetica,sans-Serif" font-size="10.00" fill="#000000">bc_get_u16</text>
</a>
</g>
</g>
<!-- Node3153&#45;&gt;Node3156 -->
<g id="edge3" class="edge">
<title>Node3153&#45;&gt;Node3156</title>
<path fill="none" stroke="#191970" d="M27.6771,-457.7402C32.4365,-491.8659 46.7745,-562.2355 87,-604 93.6525,-610.9071 102.585,-615.9015 111.4438,-619.482"/>
<polygon fill="#191970" stroke="#191970" points="31.1286,-457.1347 26.4066,-447.6503 24.1834,-458.0093 31.1286,-457.1347"/>
</g>
<!-- Node3168 -->
<g id="node7" class="node">
<title>Node3168</title>
<g id="a_node7"><a xlink:href="quickjs_8c.html#a26eeed9ed2aa6f6b56964c088e2286f0" target="_top" xlink:title="code_match">
<polygon fill="none" stroke="#000000" points="110,-542.5 110,-561.5 180,-561.5 180,-542.5 110,-542.5"/>
<text text-anchor="middle" x="145" y="-549.5" font-family="Helvetica,sans-Serif" font-size="10.00" fill="#000000">code_match</text>
</a>
</g>
</g>
<!-- Node3153&#45;&gt;Node3168 -->
<g id="edge7" class="edge">
<title>Node3153&#45;&gt;Node3168</title>
<path fill="none" stroke="#191970" d="M34.2366,-456.846C44.3844,-476.9094 62.8662,-508.4103 87,-528 94.5302,-534.1124 103.8348,-538.8755 112.7698,-542.4888"/>
<polygon fill="#191970" stroke="#191970" points="37.3424,-455.2295 29.8198,-447.7689 31.048,-458.2923 37.3424,-455.2295"/>
</g>
<!-- Node3169 -->
<g id="node8" class="node">
<title>Node3169</title>
<g id="a_node8"><a xlink:href="quickjs_8c.html#a7a4eedc4cc552a71e165f4d28ad43985" target="_top" xlink:title="resolve_variables">
<polygon fill="none" stroke="#000000" points="261,-542.5 261,-561.5 353,-561.5 353,-542.5 261,-542.5"/>
<text text-anchor="middle" x="307" y="-549.5" font-family="Helvetica,sans-Serif" font-size="10.00" fill="#000000">resolve_variables</text>
</a>
</g>
</g>
<!-- Node3153&#45;&gt;Node3169 -->
<g id="edge50" class="edge">
<title>Node3153&#45;&gt;Node3169</title>
<path fill="none" stroke="#191970" d="M39.8636,-455.3084C51.3586,-468.0757 68.56,-484.9147 87,-495 116.6836,-511.2347 205.3308,-531.2988 260.6177,-542.7754"/>
<polygon fill="#191970" stroke="#191970" points="42.3805,-452.8689 33.1782,-447.6183 37.0978,-457.4615 42.3805,-452.8689"/>
</g>
<!-- Node3177 -->
<g id="node10" class="node">
<title>Node3177</title>
<g id="a_node10"><a xlink:href="quickjs_8c.html#ad0d311d4ce409584384f835f1a3e185a" target="_top" xlink:title="resolve_labels">
<polygon fill="none" stroke="#000000" points="267.5,-580.5 267.5,-599.5 346.5,-599.5 346.5,-580.5 267.5,-580.5"/>
<text text-anchor="middle" x="307" y="-587.5" font-family="Helvetica,sans-Serif" font-size="10.00" fill="#000000">resolve_labels</text>
</a>
</g>
</g>
<!-- Node3153&#45;&gt;Node3177 -->
<g id="edge49" class="edge">
<title>Node3153&#45;&gt;Node3177</title>
<path fill="none" stroke="#191970" d="M28.3849,-457.9186C33.8959,-487.9926 48.9631,-544.3069 87,-571 140.3468,-608.4371 219.8578,-604.5317 267.2588,-597.6828"/>
<polygon fill="#191970" stroke="#191970" points="31.7955,-457.0897 26.7126,-447.7937 24.889,-458.2305 31.7955,-457.0897"/>
</g>
<!-- Node3178 -->
<g id="node11" class="node">
<title>Node3178</title>
<g id="a_node11"><a xlink:href="libregexp_8c.html#a09c49010ae229bc3a53575addc5f7c40" target="_top" xlink:title="compute_stack_size">
<polygon fill="none" stroke="#000000" points="91.5,-466.5 91.5,-485.5 198.5,-485.5 198.5,-466.5 91.5,-466.5"/>
<text text-anchor="middle" x="145" y="-473.5" font-family="Helvetica,sans-Serif" font-size="10.00" fill="#000000">compute_stack_size</text>
</a>
</g>
</g>
<!-- Node3153&#45;&gt;Node3178 -->
<g id="edge13" class="edge">
<title>Node3153&#45;&gt;Node3178</title>
<path fill="none" stroke="#191970" d="M60.8011,-449.2254C77.9464,-454.6775 98.3374,-461.1617 114.7582,-466.3834"/>
<polygon fill="#191970" stroke="#191970" points="61.7262,-445.847 51.1357,-446.152 59.6049,-452.5178 61.7262,-445.847"/>
</g>
<!-- Node3185 -->
<g id="node13" class="node">
<title>Node3185</title>
<g id="a_node13"><a xlink:href="quickjs_8c.html#a069baa06a1214006c4ec473875de010e" target="_top" xlink:title="get_lvalue">
<polygon fill="none" stroke="#000000" points="114.5,-335.5 114.5,-354.5 175.5,-354.5 175.5,-335.5 114.5,-335.5"/>
<text text-anchor="middle" x="145" y="-342.5" font-family="Helvetica,sans-Serif" font-size="10.00" fill="#000000">get_lvalue</text>
</a>
</g>
</g>
<!-- Node3153&#45;&gt;Node3185 -->
<g id="edge15" class="edge">
<title>Node3153&#45;&gt;Node3185</title>
<path fill="none" stroke="#191970" d="M45.8885,-422.1328C70.7499,-402.7846 111.9904,-370.6895 132.5496,-354.6894"/>
<polygon fill="#191970" stroke="#191970" points="43.5807,-419.4938 37.8385,-428.3976 47.8799,-425.018 43.5807,-419.4938"/>
</g>
<!-- Node3187 -->
<g id="node15" class="node">
<title>Node3187</title>
<g id="a_node15"><a xlink:href="quickjs_8c.html#a840642c87c5a82d4cc68333376a3b6de" target="_top" xlink:title="js_parse_postfix_expr">
<polygon fill="none" stroke="#ff0000" points="411,-392.5 411,-411.5 523,-411.5 523,-392.5 411,-392.5"/>
<text text-anchor="middle" x="467" y="-399.5" font-family="Helvetica,sans-Serif" font-size="10.00" fill="#000000">js_parse_postfix_expr</text>
</a>
</g>
</g>
<!-- Node3153&#45;&gt;Node3187 -->
<g id="edge41" class="edge">
<title>Node3153&#45;&gt;Node3187</title>
<path fill="none" stroke="#191970" d="M61.2346,-443.1435C125.0175,-451.2586 262.3435,-463.8923 375,-441 402.541,-435.4035 432.067,-421.2725 450.0369,-411.6495"/>
<polygon fill="#191970" stroke="#191970" points="61.6534,-439.6685 51.2829,-441.8371 60.7422,-446.609 61.6534,-439.6685"/>
</g>
<!-- Node3216 -->
<g id="node20" class="node">
<title>Node3216</title>
<g id="a_node20"><a xlink:href="quickjs_8c.html#ac2894ff4edcdb4e6841bcce9c76081e3" target="_top" xlink:title="JS_CallInternal">
<polygon fill="none" stroke="#000000" points="103.5,-170.5 103.5,-189.5 186.5,-189.5 186.5,-170.5 103.5,-170.5"/>
<text text-anchor="middle" x="145" y="-177.5" font-family="Helvetica,sans-Serif" font-size="10.00" fill="#000000">JS_CallInternal</text>
</a>
</g>
</g>
<!-- Node3153&#45;&gt;Node3216 -->
<g id="edge31" class="edge">
<title>Node3153&#45;&gt;Node3216</title>
<path fill="none" stroke="#191970" d="M34.3494,-418.8943C58.1746,-367.4557 123.054,-227.3813 140.584,-189.5341"/>
<polygon fill="#191970" stroke="#191970" points="31.0656,-417.6562 30.0386,-428.2011 37.4174,-420.5982 31.0656,-417.6562"/>
</g>
<!-- Node3625 -->
<g id="node25" class="node">
<title>Node3625</title>
<g id="a_node25"><a xlink:href="quickjs_8c.html#a351e921aea7f22e239884fdc941a8e52" target="_top" xlink:title="js_dataview_getValue">
<polygon fill="none" stroke="#000000" points="89,-132.5 89,-151.5 201,-151.5 201,-132.5 89,-132.5"/>
<text text-anchor="middle" x="145" y="-139.5" font-family="Helvetica,sans-Serif" font-size="10.00" fill="#000000">js_dataview_getValue</text>
</a>
</g>
</g>
<!-- Node3153&#45;&gt;Node3625 -->
<g id="edge40" class="edge">
<title>Node3153&#45;&gt;Node3625</title>
<path fill="none" stroke="#191970" d="M27.3762,-418.1199C33.1266,-361.2161 52.2574,-199.3293 87,-161 90.4869,-157.1531 94.7639,-154.0828 99.4008,-151.6326"/>
<polygon fill="#191970" stroke="#191970" points="23.8695,-418.0175 26.3775,-428.3112 30.8362,-418.7003 23.8695,-418.0175"/>
</g>
<!-- Node3772 -->
<g id="node26" class="node">
<title>Node3772</title>
<g id="a_node26"><a xlink:href="libregexp_8c.html#a2c44185f26ab7513cb353d16212acb83" target="_top" xlink:title="lre_exec_backtrack">
<polygon fill="none" stroke="#000000" points="94.5,-76.5 94.5,-95.5 195.5,-95.5 195.5,-76.5 94.5,-76.5"/>
<text text-anchor="middle" x="145" y="-83.5" font-family="Helvetica,sans-Serif" font-size="10.00" fill="#000000">lre_exec_backtrack</text>
</a>
</g>
</g>
<!-- Node3153&#45;&gt;Node3772 -->
<g id="edge42" class="edge">
<title>Node3153&#45;&gt;Node3772</title>
<path fill="none" stroke="#191970" d="M27.3131,-418.2913C33.2446,-357.1716 53.6304,-171.9985 87,-123 95.3367,-110.7587 109.2051,-101.6953 121.2905,-95.6032"/>
<polygon fill="#191970" stroke="#191970" points="23.8054,-418.2076 26.3467,-428.4932 30.7742,-418.8678 23.8054,-418.2076"/>
</g>
<!-- Node3774 -->
<g id="node28" class="node">
<title>Node3774</title>
<g id="a_node28"><a xlink:href="libregexp_8c.html#ad7f2d2a438d99f72a2f3609d1c71e5b1" target="_top" xlink:title="re_check_advance">
<polygon fill="none" stroke="#000000" points="96,-.5 96,-19.5 194,-19.5 194,-.5 96,-.5"/>
<text text-anchor="middle" x="145" y="-7.5" font-family="Helvetica,sans-Serif" font-size="10.00" fill="#000000">re_check_advance</text>
</a>
</g>
</g>
<!-- Node3153&#45;&gt;Node3774 -->
<g id="edge45" class="edge">
<title>Node3153&#45;&gt;Node3774</title>
<path fill="none" stroke="#191970" d="M25.8162,-417.9174C27.3765,-344.084 36.4004,-88.8625 87,-29 90.2833,-25.1157 94.3744,-22.02 98.855,-19.5538"/>
<polygon fill="#191970" stroke="#191970" points="22.3125,-418.0883 25.6247,-428.152 29.3113,-418.2193 22.3125,-418.0883"/>
</g>
<!-- Node3778 -->
<g id="node30" class="node">
<title>Node3778</title>
<g id="a_node30"><a xlink:href="libregexp_8c.html#a5607046a903afaa790c57e87ea2e6fd9" target="_top" xlink:title="re_is_simple_quantifier">
<polygon fill="none" stroke="#000000" points="87,-38.5 87,-57.5 203,-57.5 203,-38.5 87,-38.5"/>
<text text-anchor="middle" x="145" y="-45.5" font-family="Helvetica,sans-Serif" font-size="10.00" fill="#000000">re_is_simple_quantifier</text>
</a>
</g>
</g>
<!-- Node3153&#45;&gt;Node3778 -->
<g id="edge47" class="edge">
<title>Node3153&#45;&gt;Node3778</title>
<path fill="none" stroke="#191970" d="M26.1541,-418.036C28.813,-348.8453 40.9768,-120.6259 87,-67 90.3124,-63.1404 94.4217,-60.0602 98.9126,-57.6028"/>
<polygon fill="#191970" stroke="#191970" points="22.6437,-418.264 25.7833,-428.383 29.6393,-418.5147 22.6437,-418.264"/>
</g>
<!-- Node3155 -->
<g id="node3" class="node">
<title>Node3155</title>
<g id="a_node3"><a xlink:href="quickjs_8c.html#a394e92f87f41d27e7031eb3150bc35b1" target="_top" xlink:title="JS_WriteFunctionBytecode">
<polygon fill="none" stroke="#000000" points="239,-656.5 239,-675.5 375,-675.5 375,-656.5 239,-656.5"/>
<text text-anchor="middle" x="307" y="-663.5" font-family="Helvetica,sans-Serif" font-size="10.00" fill="#000000">JS_WriteFunctionBytecode</text>
</a>
</g>
</g>
<!-- Node3154&#45;&gt;Node3155 -->
<g id="edge2" class="edge">
<title>Node3154&#45;&gt;Node3155</title>
<path fill="none" stroke="#191970" d="M195.2579,-666C209.0094,-666 224.149,-666 238.7248,-666"/>
<polygon fill="#191970" stroke="#191970" points="195.045,-662.5001 185.045,-666 195.0449,-669.5001 195.045,-662.5001"/>
</g>
<!-- Node3157 -->
<g id="node5" class="node">
<title>Node3157</title>
<g id="a_node5"><a xlink:href="quickjs_8c.html#a367627778ac537f4bb1f0fd07a2dee1b" target="_top" xlink:title="JS_ReadFunctionTag">
<polygon fill="none" stroke="#000000" points="251.5,-618.5 251.5,-637.5 362.5,-637.5 362.5,-618.5 251.5,-618.5"/>
<text text-anchor="middle" x="307" y="-625.5" font-family="Helvetica,sans-Serif" font-size="10.00" fill="#000000">JS_ReadFunctionTag</text>
</a>
</g>
</g>
<!-- Node3156&#45;&gt;Node3157 -->
<g id="edge4" class="edge">
<title>Node3156&#45;&gt;Node3157</title>
<path fill="none" stroke="#191970" d="M188.6051,-628C207.9438,-628 230.9262,-628 251.4737,-628"/>
<polygon fill="#191970" stroke="#191970" points="188.5665,-624.5001 178.5665,-628 188.5665,-631.5001 188.5665,-624.5001"/>
</g>
<!-- Node3158 -->
<g id="node6" class="node">
<title>Node3158</title>
<g id="a_node6"><a xlink:href="quickjs_8c.html#a4b8ef2bb3b35e4a5f6ed8bd837a50e7c" target="_top" xlink:title="JS_ReadObjectRec">
<polygon fill="none" stroke="#ff0000" points="415,-618.5 415,-637.5 519,-637.5 519,-618.5 415,-618.5"/>
<text text-anchor="middle" x="467" y="-625.5" font-family="Helvetica,sans-Serif" font-size="10.00" fill="#000000">JS_ReadObjectRec</text>
</a>
</g>
</g>
<!-- Node3157&#45;&gt;Node3158 -->
<g id="edge5" class="edge">
<title>Node3157&#45;&gt;Node3158</title>
<path fill="none" stroke="#191970" d="M372.6138,-621.348C386.6725,-621.1546 401.3441,-621.2475 414.8141,-621.6265"/>
<polygon fill="#191970" stroke="#191970" points="372.4431,-617.8505 362.5112,-621.5393 372.5757,-624.8492 372.4431,-617.8505"/>
</g>
<!-- Node3158&#45;&gt;Node3157 -->
<g id="edge6" class="edge">
<title>Node3158&#45;&gt;Node3157</title>
<path fill="none" stroke="#191970" d="M404.413,-634.6058C390.5876,-634.8381 376.0329,-634.7897 362.5112,-634.4607"/>
<polygon fill="#191970" stroke="#191970" points="404.8948,-638.096 414.8141,-634.3735 404.7384,-631.0978 404.8948,-638.096"/>
</g>
<!-- Node3168&#45;&gt;Node3169 -->
<g id="edge8" class="edge">
<title>Node3168&#45;&gt;Node3169</title>
<path fill="none" stroke="#191970" d="M190.2473,-552C212.2674,-552 238.6978,-552 260.8381,-552"/>
<polygon fill="#191970" stroke="#191970" points="190.1516,-548.5001 180.1516,-552 190.1516,-555.5001 190.1516,-548.5001"/>
</g>
<!-- Node3168&#45;&gt;Node3177 -->
<g id="edge11" class="edge">
<title>Node3168&#45;&gt;Node3177</title>
<path fill="none" stroke="#191970" d="M190.179,-562.5975C214.4212,-568.284 244.0239,-575.2278 267.3639,-580.7026"/>
<polygon fill="#191970" stroke="#191970" points="190.6867,-559.1217 180.1516,-560.2454 189.088,-565.9367 190.6867,-559.1217"/>
</g>
<!-- Node3170 -->
<g id="node9" class="node">
<title>Node3170</title>
<g id="a_node9"><a xlink:href="quickjs_8c.html#a97fcc747d8b1c3644174745d2e2739be" target="_top" xlink:title="js_create_function">
<polygon fill="none" stroke="#ff0000" points="419,-552.5 419,-571.5 515,-571.5 515,-552.5 419,-552.5"/>
<text text-anchor="middle" x="467" y="-559.5" font-family="Helvetica,sans-Serif" font-size="10.00" fill="#000000">js_create_function</text>
</a>
</g>
</g>
<!-- Node3169&#45;&gt;Node3170 -->
<g id="edge9" class="edge">
<title>Node3169&#45;&gt;Node3170</title>
<path fill="none" stroke="#191970" d="M363.4187,-555.5262C381.5318,-556.6582 401.416,-557.901 418.8778,-558.9924"/>
<polygon fill="#191970" stroke="#191970" points="363.4775,-552.0231 353.2786,-554.8924 363.0408,-559.0095 363.4775,-552.0231"/>
</g>
<!-- Node3170&#45;&gt;Node3170 -->
<g id="edge10" class="edge">
<title>Node3170&#45;&gt;Node3170</title>
<path fill="none" stroke="#191970" d="M442.4465,-581.0292C443.7858,-586.128 451.9703,-590 467,-590 490.4609,-590 497.2426,-580.5653 487.345,-571.7571"/>
<polygon fill="#191970" stroke="#191970" points="445.709,-582.3096 446.655,-571.7571 439.3348,-579.4164 445.709,-582.3096"/>
</g>
<!-- Node3177&#45;&gt;Node3170 -->
<g id="edge12" class="edge">
<title>Node3177&#45;&gt;Node3170</title>
<path fill="none" stroke="#191970" d="M356.6051,-581.3191C376.4011,-577.8548 399.1138,-573.8801 418.771,-570.4401"/>
<polygon fill="#191970" stroke="#191970" points="355.7975,-577.9072 346.5506,-583.0786 357.0042,-584.8024 355.7975,-577.9072"/>
</g>
<!-- Node3179 -->
<g id="node12" class="node">
<title>Node3179</title>
<g id="a_node12"><a xlink:href="libregexp_8h.html#a9f2d004d841acbf42a7cf0490258b5ab" target="_top" xlink:title="lre_compile">
<polygon fill="none" stroke="#ff0000" points="274,-504.5 274,-523.5 340,-523.5 340,-504.5 274,-504.5"/>
<text text-anchor="middle" x="307" y="-511.5" font-family="Helvetica,sans-Serif" font-size="10.00" fill="#000000">lre_compile</text>
</a>
</g>
</g>
<!-- Node3178&#45;&gt;Node3179 -->
<g id="edge14" class="edge">
<title>Node3178&#45;&gt;Node3179</title>
<path fill="none" stroke="#191970" d="M195.7393,-487.9018C221.1885,-493.8714 251.2923,-500.9328 273.7647,-506.2041"/>
<polygon fill="#191970" stroke="#191970" points="196.4145,-484.4653 185.8794,-485.589 194.8159,-491.2803 196.4145,-484.4653"/>
</g>
<!-- Node3186 -->
<g id="node14" class="node">
<title>Node3186</title>
<g id="a_node14"><a xlink:href="quickjs_8c.html#a26be546cf89c4580ba9020e8fc43a759" target="_top" xlink:title="js_parse_destructuring\l_element">
<polygon fill="none" stroke="#ff0000" points="249.5,-361 249.5,-391 364.5,-391 364.5,-361 249.5,-361"/>
<text text-anchor="start" x="257.5" y="-379" font-family="Helvetica,sans-Serif" font-size="10.00" fill="#000000">js_parse_destructuring</text>
<text text-anchor="middle" x="307" y="-368" font-family="Helvetica,sans-Serif" font-size="10.00" fill="#000000">_element</text>
</a>
</g>
</g>
<!-- Node3185&#45;&gt;Node3186 -->
<g id="edge16" class="edge">
<title>Node3185&#45;&gt;Node3186</title>
<path fill="none" stroke="#191970" d="M185.8014,-352.8077C205.0519,-356.4914 228.3603,-360.9517 249.3734,-364.9727"/>
<polygon fill="#191970" stroke="#191970" points="186.3319,-349.3458 175.8523,-350.9038 185.0162,-356.221 186.3319,-349.3458"/>
</g>
<!-- Node3201 -->
<g id="node16" class="node">
<title>Node3201</title>
<g id="a_node16"><a xlink:href="quickjs_8c.html#a9f26c765171d977db1796791f035f1f9" target="_top" xlink:title="js_parse_unary">
<polygon fill="none" stroke="#ff0000" points="559,-316.5 559,-335.5 642,-335.5 642,-316.5 559,-316.5"/>
<text text-anchor="middle" x="600.5" y="-323.5" font-family="Helvetica,sans-Serif" font-size="10.00" fill="#000000">js_parse_unary</text>
</a>
</g>
</g>
<!-- Node3185&#45;&gt;Node3201 -->
<g id="edge24" class="edge">
<title>Node3185&#45;&gt;Node3201</title>
<path fill="none" stroke="#191970" d="M162.7304,-328.6381C180.4968,-313.4484 209.3917,-291.8851 239,-283 360.0039,-246.6881 400.0123,-266.1118 523,-295 543.5968,-299.8379 565.9077,-309.2405 581.2784,-316.4277"/>
<polygon fill="#191970" stroke="#191970" points="160.1345,-326.2606 154.9482,-335.4993 164.7638,-331.5113 160.1345,-326.2606"/>
</g>
<!-- Node3215 -->
<g id="node17" class="node">
<title>Node3215</title>
<g id="a_node17"><a xlink:href="quickjs_8c.html#a9660cf21845352b14655d423389d6620" target="_top" xlink:title="js_parse_var">
<polygon fill="none" stroke="#ff0000" points="431,-354.5 431,-373.5 503,-373.5 503,-354.5 431,-354.5"/>
<text text-anchor="middle" x="467" y="-361.5" font-family="Helvetica,sans-Serif" font-size="10.00" fill="#000000">js_parse_var</text>
</a>
</g>
</g>
<!-- Node3185&#45;&gt;Node3215 -->
<g id="edge29" class="edge">
<title>Node3185&#45;&gt;Node3215</title>
<path fill="none" stroke="#191970" d="M159.9861,-362.2292C177.0131,-380.3625 206.6639,-407.7991 239,-419 296.115,-438.784 319.1566,-442.1311 375,-419 395.905,-410.3409 391.7838,-394.9474 411,-383 417.1032,-379.2054 424.0557,-376.0655 430.9367,-373.5058"/>
<polygon fill="#191970" stroke="#191970" points="162.4047,-359.6866 153.0868,-354.6441 157.2263,-364.3967 162.4047,-359.6866"/>
</g>
<!-- Node3192 -->
<g id="node18" class="node">
<title>Node3192</title>
<g id="a_node18"><a xlink:href="quickjs_8c.html#ac188b916dd086803591a67de7e7a85f6" target="_top" xlink:title="js_parse_for_in_of">
<polygon fill="none" stroke="#ff0000" points="419,-304.5 419,-323.5 515,-323.5 515,-304.5 419,-304.5"/>
<text text-anchor="middle" x="467" y="-311.5" font-family="Helvetica,sans-Serif" font-size="10.00" fill="#000000">js_parse_for_in_of</text>
</a>
</g>
</g>
<!-- Node3185&#45;&gt;Node3192 -->
<g id="edge30" class="edge">
<title>Node3185&#45;&gt;Node3192</title>
<path fill="none" stroke="#191970" d="M166.5866,-329.5542C184.8723,-317.4781 212.3034,-301.6585 239,-295 306.4448,-278.1784 388.2244,-293.2338 433.2235,-304.4451"/>
<polygon fill="#191970" stroke="#191970" points="164.45,-326.7744 158.1493,-335.2921 168.3865,-332.5628 164.45,-326.7744"/>
</g>
<!-- Node3207 -->
<g id="node19" class="node">
<title>Node3207</title>
<g id="a_node19"><a xlink:href="quickjs_8c.html#afa1bc2743b3cf892d36544a708453736" target="_top" xlink:title="js_parse_assign_expr2">
<polygon fill="none" stroke="#ff0000" points="249,-304.5 249,-323.5 365,-323.5 365,-304.5 249,-304.5"/>
<text text-anchor="middle" x="307" y="-311.5" font-family="Helvetica,sans-Serif" font-size="10.00" fill="#000000">js_parse_assign_expr2</text>
</a>
</g>
</g>
<!-- Node3185&#45;&gt;Node3207 -->
<g id="edge25" class="edge">
<title>Node3185&#45;&gt;Node3207</title>
<path fill="none" stroke="#191970" d="M185.7261,-337.2067C207.4014,-333.059 234.2376,-327.9237 257.1505,-323.5391"/>
<polygon fill="#191970" stroke="#191970" points="185.0162,-333.779 175.8523,-339.0962 186.3319,-340.6542 185.0162,-333.779"/>
</g>
<!-- Node3186&#45;&gt;Node3186 -->
<g id="edge17" class="edge">
<title>Node3186&#45;&gt;Node3186</title>
<path fill="none" stroke="#191970" d="M278.5699,-401.4579C282.0985,-406.179 291.5752,-409.5 307,-409.5 332.3125,-409.5 341.6069,-400.5566 334.8833,-391.159"/>
<polygon fill="#191970" stroke="#191970" points="282.0815,-401.3305 279.1167,-391.159 275.0914,-400.9594 282.0815,-401.3305"/>
</g>
<!-- Node3186&#45;&gt;Node3187 -->
<g id="edge18" class="edge">
<title>Node3186&#45;&gt;Node3187</title>
<path fill="none" stroke="#191970" d="M374.7711,-387.0128C386.8202,-388.9708 399.2485,-390.9904 410.9274,-392.8882"/>
<polygon fill="#191970" stroke="#191970" points="375.1956,-383.536 364.7637,-385.3866 374.0728,-390.4453 375.1956,-383.536"/>
</g>
<!-- Node3186&#45;&gt;Node3215 -->
<g id="edge22" class="edge">
<title>Node3186&#45;&gt;Node3215</title>
<path fill="none" stroke="#191970" d="M374.9712,-370.9022C394.1209,-369.4659 414.2117,-367.9591 430.7185,-366.7211"/>
<polygon fill="#191970" stroke="#191970" points="374.4739,-367.4295 364.7637,-371.6677 374.9975,-374.4099 374.4739,-367.4295"/>
</g>
<!-- Node3186&#45;&gt;Node3192 -->
<g id="edge23" class="edge">
<title>Node3186&#45;&gt;Node3192</title>
<path fill="none" stroke="#191970" d="M358.0195,-357.4317C363.7569,-355.2875 369.5102,-353.1125 375,-351 398.4578,-341.9732 425.0826,-331.2081 443.6323,-323.6235"/>
<polygon fill="#191970" stroke="#191970" points="356.5837,-354.2313 348.4284,-360.9945 359.0213,-360.7931 356.5837,-354.2313"/>
</g>
<!-- Node3187&#45;&gt;Node3187 -->
<g id="edge19" class="edge">
<title>Node3187&#45;&gt;Node3187</title>
<path fill="none" stroke="#191970" d="M442.4465,-421.0292C443.7858,-426.128 451.9703,-430 467,-430 490.4609,-430 497.2426,-420.5653 487.345,-411.7571"/>
<polygon fill="#191970" stroke="#191970" points="445.709,-422.3096 446.655,-411.7571 439.3348,-419.4164 445.709,-422.3096"/>
</g>
<!-- Node3187&#45;&gt;Node3201 -->
<g id="edge20" class="edge">
<title>Node3187&#45;&gt;Node3201</title>
<path fill="none" stroke="#191970" d="M510.2121,-388.8498C514.6111,-387.0656 518.9475,-385.113 523,-383 548.7692,-369.5639 575.3115,-348.0599 589.6712,-335.6625"/>
<polygon fill="#191970" stroke="#191970" points="508.6915,-385.6824 500.5676,-392.4834 511.1595,-392.2329 508.6915,-385.6824"/>
</g>
<!-- Node3201&#45;&gt;Node3201 -->
<g id="edge21" class="edge">
<title>Node3201&#45;&gt;Node3201</title>
<path fill="none" stroke="#191970" d="M575.9465,-345.0292C577.2858,-350.128 585.4703,-354 600.5,-354 623.9609,-354 630.7426,-344.5653 620.845,-335.7571"/>
<polygon fill="#191970" stroke="#191970" points="579.209,-346.3096 580.155,-335.7571 572.8348,-343.4164 579.209,-346.3096"/>
</g>
<!-- Node3207&#45;&gt;Node3215 -->
<g id="edge27" class="edge">
<title>Node3207&#45;&gt;Node3215</title>
<path fill="none" stroke="#191970" d="M347.2396,-326.5749C374.8943,-335.217 411.0492,-346.5154 436.37,-354.4281"/>
<polygon fill="#191970" stroke="#191970" points="348.0602,-323.1644 337.4714,-323.5223 345.9722,-329.8458 348.0602,-323.1644"/>
</g>
<!-- Node3207&#45;&gt;Node3192 -->
<g id="edge28" class="edge">
<title>Node3207&#45;&gt;Node3192</title>
<path fill="none" stroke="#191970" d="M375.2533,-314C389.9112,-314 405.107,-314 418.8142,-314"/>
<polygon fill="#191970" stroke="#191970" points="375.2163,-310.5001 365.2163,-314 375.2162,-317.5001 375.2163,-310.5001"/>
</g>
<!-- Node3207&#45;&gt;Node3207 -->
<g id="edge26" class="edge">
<title>Node3207&#45;&gt;Node3207</title>
<path fill="none" stroke="#191970" d="M277.0599,-332.2746C277.9135,-337.741 287.8936,-342 307,-342 335.4375,-342 343.6577,-332.5653 331.6606,-323.7571"/>
<polygon fill="#191970" stroke="#191970" points="280.0458,-334.1007 282.3394,-323.7571 274.096,-330.4128 280.0458,-334.1007"/>
</g>
<!-- Node3216&#45;&gt;Node3216 -->
<g id="edge32" class="edge">
<title>Node3216&#45;&gt;Node3216</title>
<path fill="none" stroke="#191970" d="M123.0507,-199.0292C124.248,-204.128 131.5644,-208 145,-208 165.9727,-208 172.0351,-198.5653 163.1872,-189.7571"/>
<polygon fill="#191970" stroke="#191970" points="126.2962,-200.3393 126.8128,-189.7571 119.8098,-197.7074 126.2962,-200.3393"/>
</g>
<!-- Node3217 -->
<g id="node21" class="node">
<title>Node3217</title>
<g id="a_node21"><a xlink:href="quickjs_8c.html#a1a4c02a29525d5cb2085dd8bca3af350" target="_top" xlink:title="JS_Call">
<polygon fill="none" stroke="#ff0000" points="281.5,-190.5 281.5,-209.5 332.5,-209.5 332.5,-190.5 281.5,-190.5"/>
<text text-anchor="middle" x="307" y="-197.5" font-family="Helvetica,sans-Serif" font-size="10.00" fill="#000000">JS_Call</text>
</a>
</g>
</g>
<!-- Node3216&#45;&gt;Node3217 -->
<g id="edge33" class="edge">
<title>Node3216&#45;&gt;Node3217</title>
<path fill="none" stroke="#191970" d="M196.807,-180.0517C224.9369,-182.7092 258.4896,-187.2649 281.1207,-191.701"/>
<polygon fill="#191970" stroke="#191970" points="196.9878,-176.5542 186.719,-179.1623 196.373,-183.5271 196.9878,-176.5542"/>
</g>
<!-- Node3302 -->
<g id="node22" class="node">
<title>Node3302</title>
<g id="a_node22"><a xlink:href="quickjs_8c.html#a75f6ee5e4235a7dc99889f3d2eb2c147" target="_top" xlink:title="JS_CallFree">
<polygon fill="none" stroke="#ff0000" points="271.5,-152.5 271.5,-171.5 342.5,-171.5 342.5,-152.5 271.5,-152.5"/>
<text text-anchor="middle" x="307" y="-159.5" font-family="Helvetica,sans-Serif" font-size="10.00" fill="#000000">JS_CallFree</text>
</a>
</g>
</g>
<!-- Node3216&#45;&gt;Node3302 -->
<g id="edge35" class="edge">
<title>Node3216&#45;&gt;Node3302</title>
<path fill="none" stroke="#191970" d="M189.6579,-168.9323C215.4351,-165.0899 247.407,-161.6732 271.4648,-160.2499"/>
<polygon fill="#191970" stroke="#191970" points="189.0922,-165.4781 179.7531,-170.4812 190.1738,-172.394 189.0922,-165.4781"/>
</g>
<!-- Node3731 -->
<g id="node23" class="node">
<title>Node3731</title>
<g id="a_node23"><a xlink:href="quickjs_8c.html#ad35594576a14c10812efaf958c99af8a" target="_top" xlink:title="JS_CallConstructorInternal">
<polygon fill="none" stroke="#ff0000" points="240,-114.5 240,-133.5 374,-133.5 374,-114.5 240,-114.5"/>
<text text-anchor="middle" x="307" y="-121.5" font-family="Helvetica,sans-Serif" font-size="10.00" fill="#000000">JS_CallConstructorInternal</text>
</a>
</g>
</g>
<!-- Node3216&#45;&gt;Node3731 -->
<g id="edge37" class="edge">
<title>Node3216&#45;&gt;Node3731</title>
<path fill="none" stroke="#191970" d="M165.2447,-166.2312C176.5077,-161.7267 190.695,-157.0596 203,-152 219.5445,-145.1972 222.3095,-140.4363 239,-134 239.3431,-133.8677 239.6875,-133.7359 240.0331,-133.6046"/>
<polygon fill="#191970" stroke="#191970" points="163.6248,-163.1193 155.8612,-170.3288 166.4262,-169.5344 163.6248,-163.1193"/>
</g>
<!-- Node3771 -->
<g id="node24" class="node">
<title>Node3771</title>
<g id="a_node24"><a xlink:href="quickjs_8c.html#ade71a22dc56e7371392393df663b28b3" target="_top" xlink:title="async_func_resume">
<polygon fill="none" stroke="#ff0000" points="255,-76.5 255,-95.5 359,-95.5 359,-76.5 255,-76.5"/>
<text text-anchor="middle" x="307" y="-83.5" font-family="Helvetica,sans-Serif" font-size="10.00" fill="#000000">async_func_resume</text>
</a>
</g>
</g>
<!-- Node3216&#45;&gt;Node3771 -->
<g id="edge39" class="edge">
<title>Node3216&#45;&gt;Node3771</title>
<path fill="none" stroke="#191970" d="M195.1832,-166.1188C197.9327,-164.5837 200.5635,-162.8832 203,-161 226.4104,-142.9055 215.1963,-122.5739 239,-105 244.2265,-101.1413 250.2035,-98.066 256.3963,-95.6151"/>
<polygon fill="#191970" stroke="#191970" points="193.5933,-162.9994 186.0896,-170.479 196.6199,-169.3114 193.5933,-162.9994"/>
</g>
<!-- Node3217&#45;&gt;Node3216 -->
<g id="edge34" class="edge">
<title>Node3217&#45;&gt;Node3216</title>
<path fill="none" stroke="#191970" d="M271.1419,-201.2882C243.1149,-199.2682 204.4946,-194.4373 177.3938,-189.5255"/>
<polygon fill="#191970" stroke="#191970" points="271.1213,-204.7936 281.3187,-201.9191 271.5545,-197.807 271.1213,-204.7936"/>
</g>
<!-- Node3302&#45;&gt;Node3216 -->
<g id="edge36" class="edge">
<title>Node3302&#45;&gt;Node3216</title>
<path fill="none" stroke="#191970" d="M262.161,-173.0947C238.5701,-176.6054 209.83,-179.7573 186.719,-181.3528"/>
<polygon fill="#191970" stroke="#191970" points="262.9212,-176.5185 272.2609,-171.5165 261.8404,-169.6024 262.9212,-176.5185"/>
</g>
<!-- Node3731&#45;&gt;Node3216 -->
<g id="edge38" class="edge">
<title>Node3731&#45;&gt;Node3216</title>
<path fill="none" stroke="#191970" d="M284.5681,-136.9435C271.1418,-141.4646 253.8554,-146.2714 239,-152 222.3095,-158.4363 219.5445,-163.1972 203,-170 197.8061,-172.1356 192.2768,-174.2014 186.7736,-176.0547"/>
<polygon fill="#191970" stroke="#191970" points="285.7706,-140.2305 293.9785,-133.5312 283.3843,-133.6497 285.7706,-140.2305"/>
</g>
<!-- Node3772&#45;&gt;Node3772 -->
<g id="edge43" class="edge">
<title>Node3772&#45;&gt;Node3772</title>
<path fill="none" stroke="#191970" d="M123.0507,-105.0292C124.248,-110.128 131.5644,-114 145,-114 165.9727,-114 172.0351,-104.5653 163.1872,-95.7571"/>
<polygon fill="#191970" stroke="#191970" points="126.2962,-106.3393 126.8128,-95.7571 119.8098,-103.7074 126.2962,-106.3393"/>
</g>
<!-- Node3773 -->
<g id="node27" class="node">
<title>Node3773</title>
<g id="a_node27"><a xlink:href="libregexp_8h.html#a55d8c60c9c812ae3e3e23e608b830ce3" target="_top" xlink:title="lre_exec">
<polygon fill="none" stroke="#ff0000" points="280.5,-38.5 280.5,-57.5 333.5,-57.5 333.5,-38.5 280.5,-38.5"/>
<text text-anchor="middle" x="307" y="-45.5" font-family="Helvetica,sans-Serif" font-size="10.00" fill="#000000">lre_exec</text>
</a>
</g>
</g>
<!-- Node3772&#45;&gt;Node3773 -->
<g id="edge44" class="edge">
<title>Node3772&#45;&gt;Node3773</title>
<path fill="none" stroke="#191970" d="M195.9118,-74.0577C223.9111,-67.49 257.5017,-59.6107 280.3624,-54.2483"/>
<polygon fill="#191970" stroke="#191970" points="194.8159,-70.7197 185.8794,-76.411 196.4145,-77.5347 194.8159,-70.7197"/>
</g>
<!-- Node3775 -->
<g id="node29" class="node">
<title>Node3775</title>
<g id="a_node29"><a xlink:href="libregexp_8c.html#acca34590a18d70f866ad56d67ce309e8" target="_top" xlink:title="re_parse_term">
<polygon fill="none" stroke="#ff0000" points="267.5,-.5 267.5,-19.5 346.5,-19.5 346.5,-.5 267.5,-.5"/>
<text text-anchor="middle" x="307" y="-7.5" font-family="Helvetica,sans-Serif" font-size="10.00" fill="#000000">re_parse_term</text>
</a>
</g>
</g>
<!-- Node3774&#45;&gt;Node3775 -->
<g id="edge46" class="edge">
<title>Node3774&#45;&gt;Node3775</title>
<path fill="none" stroke="#191970" d="M204.1709,-10C225.2008,-10 248.3522,-10 267.3541,-10"/>
<polygon fill="#191970" stroke="#191970" points="204.045,-6.5001 194.045,-10 204.0449,-13.5001 204.045,-6.5001"/>
</g>
<!-- Node3778&#45;&gt;Node3775 -->
<g id="edge48" class="edge">
<title>Node3778&#45;&gt;Node3775</title>
<path fill="none" stroke="#191970" d="M195.8302,-36.0769C218.8734,-30.6717 245.7174,-24.3749 267.2537,-19.3232"/>
<polygon fill="#191970" stroke="#191970" points="194.8159,-32.7197 185.8794,-38.411 196.4145,-39.5347 194.8159,-32.7197"/>
</g>
</g>
</svg>
        <g id="navigator" transform="translate(0 0)" fill="#404254">
                <rect fill="#f2f5e9" fill-opacity="0.5" stroke="#606060" stroke-width=".5" x="0" y="0" width="60" height="60"/>
                <use id="zoomplus" xlink:href="#zoomPlus" x="17" y="9" onmousedown="handleZoom(evt,'in')"/>
                <use id="zoomminus" xlink:href="#zoomMin" x="42" y="9" onmousedown="handleZoom(evt,'out')"/>
                <use id="reset" xlink:href="#resetDef" x="30" y="36" onmousedown="handleReset()"/>
                <g id="arrowUp" xlink:href="#dirArrow" transform="translate(30 24)" onmousedown="handlePan(0,-1)">
                  <use xlink:href="#rim" fill="#404040">
                        <set attributeName="fill" to="#808080" begin="arrowUp.mouseover" end="arrowUp.mouseout"/>
                  </use>
                  <path fill="none" stroke="white" stroke-width="1.5" d="M0,-3.0v7 M-2.5,-0.5L0,-3.0L2.5,-0.5"/>
                </g>
                <g id="arrowRight" xlink:href="#dirArrow" transform="rotate(90) translate(36 -43)" onmousedown="handlePan(1,0)">
                  <use xlink:href="#rim" fill="#404040">
                        <set attributeName="fill" to="#808080" begin="arrowRight.mouseover" end="arrowRight.mouseout"/>
                  </use>
                  <path fill="none" stroke="white" stroke-width="1.5" d="M0,-3.0v7 M-2.5,-0.5L0,-3.0L2.5,-0.5"/>
                </g>
                <g id="arrowDown" xlink:href="#dirArrow" transform="rotate(180) translate(-30 -48)" onmousedown="handlePan(0,1)">
                  <use xlink:href="#rim" fill="#404040">
                        <set attributeName="fill" to="#808080" begin="arrowDown.mouseover" end="arrowDown.mouseout"/>
                  </use>
                  <path fill="none" stroke="white" stroke-width="1.5" d="M0,-3.0v7 M-2.5,-0.5L0,-3.0L2.5,-0.5"/>
                </g>
                <g id="arrowLeft" xlink:href="#dirArrow" transform="rotate(270) translate(-36 17)" onmousedown="handlePan(-1,0)">
                  <use xlink:href="#rim" fill="#404040">
                        <set attributeName="fill" to="#808080" begin="arrowLeft.mouseover" end="arrowLeft.mouseout"/>
                  </use>
                  <path fill="none" stroke="white" stroke-width="1.5" d="M0,-3.0v7 M-2.5,-0.5L0,-3.0L2.5,-0.5"/>
                </g>
        </g>
        <svg viewBox="0 0 15 15" width="100%" height="30px" preserveAspectRatio="xMaxYMin meet">
         <g id="arrow_out" transform="scale(0.3 0.3)">
          <a xlink:href="cutils_8h_ad587834d17e95461893d59661e5e9676_icgraph_org.svg" target="_base">
           <rect id="button" ry="5" rx="5" y="6" x="6" height="38" width="38"
                fill="#f2f5e9" fill-opacity="0.5" stroke="#606060" stroke-width="1.0"/>
           <path id="arrow"
             d="M 11.500037,31.436501 C 11.940474,20.09759 22.043105,11.32322 32.158766,21.979434 L 37.068811,17.246167 C 37.068811,17.246167 37.088388,32 37.088388,32 L 22.160133,31.978069 C 22.160133,31.978069 26.997745,27.140456 26.997745,27.140456 C 18.528582,18.264221 13.291696,25.230495 11.500037,31.436501 z"
             style="fill:#404040;"/>
          </a>
         </g>
        </svg>
</svg>
