<?xml version="1.0" encoding="UTF-8" standalone="no"?>
<!DOCTYPE svg PUBLIC "-//W3C//DTD SVG 1.1//EN"
 "http://www.w3.org/Graphics/SVG/1.1/DTD/svg11.dtd">
<!-- Generated by graphviz version 2.40.1 (20161225.0304)
 -->
<!-- Title: dbuf_put_u16 Pages: 1 -->
<!--zoomable 965 -->
<svg id="main" version="1.1" xmlns="http://www.w3.org/2000/svg" xmlns:xlink="http://www.w3.org/1999/xlink" xml:space="preserve" onload="init(evt)">
<style type="text/css"><![CDATA[
.edge:hover path { stroke: red; }
.edge:hover polygon { stroke: red; fill: red; }
]]></style>
<script type="text/javascript"><![CDATA[
var edges = document.getElementsByTagName('g');
if (edges && edges.length) {
  for (var i=0;i<edges.length;i++) {
    if (edges[i].id.substr(0,4)=='edge') {
      edges[i].setAttribute('class','edge');
    }
  }
}
]]></script>
        <defs>
                <circle id="rim" cx="0" cy="0" r="7"/>
                <circle id="rim2" cx="0" cy="0" r="3.5"/>
                <g id="zoomPlus">
                        <use xlink:href="#rim" fill="#404040">
                                <set attributeName="fill" to="#808080" begin="zoomplus.mouseover" end="zoomplus.mouseout"/>
                        </use>
                        <path d="M-4,0h8M0,-4v8" fill="none" stroke="white" stroke-width="1.5" pointer-events="none"/>
                </g>
                <g id="zoomMin">
                        <use xlink:href="#rim" fill="#404040">
                                <set attributeName="fill" to="#808080" begin="zoomminus.mouseover" end="zoomminus.mouseout"/>
                        </use>
                        <path d="M-4,0h8" fill="none" stroke="white" stroke-width="1.5" pointer-events="none"/>
                </g>
                <g id="dirArrow">
                        <path fill="none" stroke="white" stroke-width="1.5" d="M0,-3.0v7 M-2.5,-0.5L0,-3.0L2.5,-0.5"/>
                </g>
               <g id="resetDef">
                       <use xlink:href="#rim2" fill="#404040">
                               <set attributeName="fill" to="#808080" begin="reset.mouseover" end="reset.mouseout"/>
                       </use>
               </g>
        </defs>

<script type="text/javascript">
var viewWidth = 699;
var viewHeight = 965;
var sectionId = 'dynsection-43';
</script>
<script xlink:href="svgpan.js"/>
<svg id="graph" class="graph">
<g id="viewport">
<title>dbuf_put_u16</title>
<!-- Node7794 -->
<g id="node1" class="node">
<title>Node7794</title>
<polygon fill="#bfbfbf" stroke="#000000" points="0,-228.5 0,-247.5 75,-247.5 75,-228.5 0,-228.5"/>
<text text-anchor="middle" x="37.5" y="-235.5" font-family="Helvetica,sans-Serif" font-size="10.00" fill="#000000">dbuf_put_u16</text>
</g>
<!-- Node7795 -->
<g id="node2" class="node">
<title>Node7795</title>
<g id="a_node2"><a xlink:href="quickjs_8c.html#a226c9e47a5047a3adcce0950aa3e3610" target="_top" xlink:title="bc_put_u16">
<polygon fill="none" stroke="#000000" points="143,-899.5 143,-918.5 210,-918.5 210,-899.5 143,-899.5"/>
<text text-anchor="middle" x="176.5" y="-906.5" font-family="Helvetica,sans-Serif" font-size="10.00" fill="#000000">bc_put_u16</text>
</a>
</g>
</g>
<!-- Node7794&#45;&gt;Node7795 -->
<g id="edge1" class="edge">
<title>Node7794&#45;&gt;Node7795</title>
<path fill="none" stroke="#191970" d="M40.9772,-257.685C51.0857,-314.5798 81.6139,-484.0936 111,-624 133.7502,-732.3131 165.2519,-862.8257 174.1026,-899.1851"/>
<polygon fill="#191970" stroke="#191970" points="44.3771,-256.8119 39.1858,-247.576 37.4845,-258.0334 44.3771,-256.8119"/>
</g>
<!-- Node7806 -->
<g id="node5" class="node">
<title>Node7806</title>
<g id="a_node5"><a xlink:href="quickjs_8c.html#a50b5ef50e38aaeb8cba27214601474c7" target="_top" xlink:title="emit_u16">
<polygon fill="none" stroke="#ff0000" points="148.5,-595.5 148.5,-614.5 204.5,-614.5 204.5,-595.5 148.5,-595.5"/>
<text text-anchor="middle" x="176.5" y="-602.5" font-family="Helvetica,sans-Serif" font-size="10.00" fill="#000000">emit_u16</text>
</a>
</g>
</g>
<!-- Node7794&#45;&gt;Node7806 -->
<g id="edge4" class="edge">
<title>Node7794&#45;&gt;Node7806</title>
<path fill="none" stroke="#191970" d="M44.766,-257.1843C70.1338,-324.1625 154.2308,-546.2029 172.8352,-595.3238"/>
<polygon fill="#191970" stroke="#191970" points="48.033,-255.9284 41.2179,-247.8164 41.4868,-258.4078 48.033,-255.9284"/>
</g>
<!-- Node7855 -->
<g id="node20" class="node">
<title>Node7855</title>
<g id="a_node20"><a xlink:href="quickjs_8c.html#adf2446812028f0212ac1a3371a900cb1" target="_top" xlink:title="get_loc_or_ref">
<polygon fill="none" stroke="#000000" points="137.5,-266.5 137.5,-285.5 215.5,-285.5 215.5,-266.5 137.5,-266.5"/>
<text text-anchor="middle" x="176.5" y="-273.5" font-family="Helvetica,sans-Serif" font-size="10.00" fill="#000000">get_loc_or_ref</text>
</a>
</g>
</g>
<!-- Node7794&#45;&gt;Node7855 -->
<g id="edge33" class="edge">
<title>Node7794&#45;&gt;Node7855</title>
<path fill="none" stroke="#191970" d="M82.2953,-250.2462C101.4547,-255.484 123.4938,-261.5091 141.4357,-266.4141"/>
<polygon fill="#191970" stroke="#191970" points="83.1446,-246.85 72.5756,-247.589 81.2986,-253.6022 83.1446,-246.85"/>
</g>
<!-- Node7856 -->
<g id="node21" class="node">
<title>Node7856</title>
<g id="a_node21"><a xlink:href="quickjs_8c.html#a7d2ad72913c8768cc7bceeb2693d53c4" target="_top" xlink:title="resolve_scope_private\l_field">
<polygon fill="none" stroke="#000000" points="278,-242 278,-272 392,-272 392,-242 278,-242"/>
<text text-anchor="start" x="286" y="-260" font-family="Helvetica,sans-Serif" font-size="10.00" fill="#000000">resolve_scope_private</text>
<text text-anchor="middle" x="335" y="-249" font-family="Helvetica,sans-Serif" font-size="10.00" fill="#000000">_field</text>
</a>
</g>
</g>
<!-- Node7794&#45;&gt;Node7856 -->
<g id="edge49" class="edge">
<title>Node7794&#45;&gt;Node7856</title>
<path fill="none" stroke="#191970" d="M85.2239,-241.0479C137.6559,-244.3965 221.837,-249.7728 277.7738,-253.3452"/>
<polygon fill="#191970" stroke="#191970" points="85.3814,-237.5509 75.1786,-240.4064 84.9351,-244.5367 85.3814,-237.5509"/>
</g>
<!-- Node7857 -->
<g id="node22" class="node">
<title>Node7857</title>
<g id="a_node22"><a xlink:href="quickjs_8c.html#a7a4eedc4cc552a71e165f4d28ad43985" target="_top" xlink:title="resolve_variables">
<polygon fill="none" stroke="#ff0000" points="439.5,-269.5 439.5,-288.5 531.5,-288.5 531.5,-269.5 439.5,-269.5"/>
<text text-anchor="middle" x="485.5" y="-276.5" font-family="Helvetica,sans-Serif" font-size="10.00" fill="#000000">resolve_variables</text>
</a>
</g>
</g>
<!-- Node7794&#45;&gt;Node7857 -->
<g id="edge51" class="edge">
<title>Node7794&#45;&gt;Node7857</title>
<path fill="none" stroke="#191970" d="M85.2293,-230.148C154.0439,-220.4327 284.6548,-208.0237 392,-233 422.1304,-240.0105 453.7265,-258.1798 471.3866,-269.4725"/>
<polygon fill="#191970" stroke="#191970" points="84.5233,-226.7138 75.1316,-231.6175 85.5315,-233.6408 84.5233,-226.7138"/>
</g>
<!-- Node7859 -->
<g id="node23" class="node">
<title>Node7859</title>
<g id="a_node23"><a xlink:href="quickjs_8c.html#a942ca594c506978a0dfded4cb3cd20fa" target="_top" xlink:title="instantiate_hoisted\l_definitions">
<polygon fill="none" stroke="#000000" points="127.5,-381 127.5,-411 225.5,-411 225.5,-381 127.5,-381"/>
<text text-anchor="start" x="135.5" y="-399" font-family="Helvetica,sans-Serif" font-size="10.00" fill="#000000">instantiate_hoisted</text>
<text text-anchor="middle" x="176.5" y="-388" font-family="Helvetica,sans-Serif" font-size="10.00" fill="#000000">_definitions</text>
</a>
</g>
</g>
<!-- Node7794&#45;&gt;Node7859 -->
<g id="edge36" class="edge">
<title>Node7794&#45;&gt;Node7859</title>
<path fill="none" stroke="#191970" d="M44.2142,-257.2871C54.6269,-284.7053 77.0723,-335.0506 111,-366 117.4683,-371.9005 125.2966,-376.8172 133.2574,-380.847"/>
<polygon fill="#191970" stroke="#191970" points="47.4234,-255.8716 40.7049,-247.6794 40.8483,-258.2732 47.4234,-255.8716"/>
</g>
<!-- Node7860 -->
<g id="node24" class="node">
<title>Node7860</title>
<g id="a_node24"><a xlink:href="quickjs_8c.html#a7c152c8f95a5338351e7f99447d6aea4" target="_top" xlink:title="optimize_scope_make_ref">
<polygon fill="none" stroke="#000000" points="111,-304.5 111,-323.5 242,-323.5 242,-304.5 111,-304.5"/>
<text text-anchor="middle" x="176.5" y="-311.5" font-family="Helvetica,sans-Serif" font-size="10.00" fill="#000000">optimize_scope_make_ref</text>
</a>
</g>
</g>
<!-- Node7794&#45;&gt;Node7860 -->
<g id="edge38" class="edge">
<title>Node7794&#45;&gt;Node7860</title>
<path fill="none" stroke="#191970" d="M55.0713,-254.745C69.1959,-267.3945 90.0696,-284.3423 111,-295 118.3858,-298.7608 126.6298,-301.8856 134.7105,-304.4409"/>
<polygon fill="#191970" stroke="#191970" points="57.3194,-252.0575 47.5855,-247.8738 52.5858,-257.2145 57.3194,-252.0575"/>
</g>
<!-- Node7861 -->
<g id="node25" class="node">
<title>Node7861</title>
<g id="a_node25"><a xlink:href="quickjs_8c.html#a30aac2d7e62ad60386ab6b522d7db744" target="_top" xlink:title="resolve_scope_var">
<polygon fill="none" stroke="#000000" points="286,-291.5 286,-310.5 384,-310.5 384,-291.5 286,-291.5"/>
<text text-anchor="middle" x="335" y="-298.5" font-family="Helvetica,sans-Serif" font-size="10.00" fill="#000000">resolve_scope_var</text>
</a>
</g>
</g>
<!-- Node7794&#45;&gt;Node7861 -->
<g id="edge50" class="edge">
<title>Node7794&#45;&gt;Node7861</title>
<path fill="none" stroke="#191970" d="M45.7039,-256.9879C56.7661,-279.8763 78.8557,-317.2278 111,-333 163.2692,-358.6468 184.5752,-342.6032 242,-333 267.43,-328.7473 295.2167,-318.3782 313.7324,-310.5876"/>
<polygon fill="#191970" stroke="#191970" points="48.7552,-255.2453 41.4008,-247.6188 42.394,-258.167 48.7552,-255.2453"/>
</g>
<!-- Node7862 -->
<g id="node26" class="node">
<title>Node7862</title>
<g id="a_node26"><a xlink:href="quickjs_8c.html#aa24039e2f085cb91dcb70fb48db0642b" target="_top" xlink:title="push_short_int">
<polygon fill="none" stroke="#000000" points="136.5,-114.5 136.5,-133.5 216.5,-133.5 216.5,-114.5 136.5,-114.5"/>
<text text-anchor="middle" x="176.5" y="-121.5" font-family="Helvetica,sans-Serif" font-size="10.00" fill="#000000">push_short_int</text>
</a>
</g>
</g>
<!-- Node7794&#45;&gt;Node7862 -->
<g id="edge41" class="edge">
<title>Node7794&#45;&gt;Node7862</title>
<path fill="none" stroke="#191970" d="M47.0786,-219.4481C59.1353,-197.9157 81.8431,-162.8328 111,-143 118.5384,-137.8723 127.4677,-134.1104 136.2692,-131.3564"/>
<polygon fill="#191970" stroke="#191970" points="43.9786,-217.8228 42.3037,-228.2844 50.137,-221.1507 43.9786,-217.8228"/>
</g>
<!-- Node7863 -->
<g id="node27" class="node">
<title>Node7863</title>
<g id="a_node27"><a xlink:href="quickjs_8c.html#ad0d311d4ce409584384f835f1a3e185a" target="_top" xlink:title="resolve_labels">
<polygon fill="none" stroke="#ff0000" points="295.5,-114.5 295.5,-133.5 374.5,-133.5 374.5,-114.5 295.5,-114.5"/>
<text text-anchor="middle" x="335" y="-121.5" font-family="Helvetica,sans-Serif" font-size="10.00" fill="#000000">resolve_labels</text>
</a>
</g>
</g>
<!-- Node7794&#45;&gt;Node7863 -->
<g id="edge48" class="edge">
<title>Node7794&#45;&gt;Node7863</title>
<path fill="none" stroke="#191970" d="M41.7046,-218.3883C49.4352,-187.8078 69.1088,-129.712 111,-105 176.2139,-66.5297 271.2266,-97.2773 313.4233,-114.4271"/>
<polygon fill="#191970" stroke="#191970" points="38.2566,-217.7617 39.3778,-228.297 45.0712,-219.362 38.2566,-217.7617"/>
</g>
<!-- Node7864 -->
<g id="node28" class="node">
<title>Node7864</title>
<g id="a_node28"><a xlink:href="quickjs_8c.html#ae769aca702582187792ef3e0edf03ff2" target="_top" xlink:title="put_short_code">
<polygon fill="none" stroke="#000000" points="135,-152.5 135,-171.5 218,-171.5 218,-152.5 135,-152.5"/>
<text text-anchor="middle" x="176.5" y="-159.5" font-family="Helvetica,sans-Serif" font-size="10.00" fill="#000000">put_short_code</text>
</a>
</g>
</g>
<!-- Node7794&#45;&gt;Node7864 -->
<g id="edge43" class="edge">
<title>Node7794&#45;&gt;Node7864</title>
<path fill="none" stroke="#191970" d="M57.4314,-221.7023C71.7114,-210.5885 91.7458,-196.1091 111,-186 121.7228,-180.3702 134.0629,-175.4765 145.1206,-171.603"/>
<polygon fill="#191970" stroke="#191970" points="55.0021,-219.1618 49.3421,-228.1181 59.352,-224.6462 55.0021,-219.1618"/>
</g>
<!-- Node7865 -->
<g id="node29" class="node">
<title>Node7865</title>
<g id="a_node29"><a xlink:href="libregexp_8c.html#a0b36775d2caea480692fc53522db875b" target="_top" xlink:title="re_emit_op_u16">
<polygon fill="none" stroke="#ff0000" points="133.5,-.5 133.5,-19.5 219.5,-19.5 219.5,-.5 133.5,-.5"/>
<text text-anchor="middle" x="176.5" y="-7.5" font-family="Helvetica,sans-Serif" font-size="10.00" fill="#000000">re_emit_op_u16</text>
</a>
</g>
</g>
<!-- Node7794&#45;&gt;Node7865 -->
<g id="edge45" class="edge">
<title>Node7794&#45;&gt;Node7865</title>
<path fill="none" stroke="#191970" d="M39.1382,-218.3194C43.5091,-178.2005 58.94,-86.3421 111,-34 117.32,-27.6458 125.4592,-22.9597 133.8378,-19.5084"/>
<polygon fill="#191970" stroke="#191970" points="35.6429,-218.1026 38.1599,-228.3941 42.6101,-218.7792 35.6429,-218.1026"/>
</g>
<!-- Node7866 -->
<g id="node30" class="node">
<title>Node7866</title>
<g id="a_node30"><a xlink:href="libregexp_8c.html#a889cced8db78de00f11774dc8210874d" target="_top" xlink:title="re_emit_range">
<polygon fill="none" stroke="#ff0000" points="296,-19.5 296,-38.5 374,-38.5 374,-19.5 296,-19.5"/>
<text text-anchor="middle" x="335" y="-26.5" font-family="Helvetica,sans-Serif" font-size="10.00" fill="#000000">re_emit_range</text>
</a>
</g>
</g>
<!-- Node7794&#45;&gt;Node7866 -->
<g id="edge47" class="edge">
<title>Node7794&#45;&gt;Node7866</title>
<path fill="none" stroke="#191970" d="M41.0751,-218.2105C48.1832,-184.8038 67.337,-117.4107 111,-82 164.3859,-38.704 247.1517,-29.662 295.7189,-28.3896"/>
<polygon fill="#191970" stroke="#191970" points="37.6178,-217.6521 39.1083,-228.1415 44.4844,-219.012 37.6178,-217.6521"/>
</g>
<!-- Node7796 -->
<g id="node3" class="node">
<title>Node7796</title>
<g id="a_node3"><a xlink:href="quickjs_8c.html#a0c946fdd3a6def82765db148f99b8fba" target="_top" xlink:title="JS_WriteString">
<polygon fill="none" stroke="#ff0000" points="293.5,-937.5 293.5,-956.5 376.5,-956.5 376.5,-937.5 293.5,-937.5"/>
<text text-anchor="middle" x="335" y="-944.5" font-family="Helvetica,sans-Serif" font-size="10.00" fill="#000000">JS_WriteString</text>
</a>
</g>
</g>
<!-- Node7795&#45;&gt;Node7796 -->
<g id="edge2" class="edge">
<title>Node7795&#45;&gt;Node7796</title>
<path fill="none" stroke="#191970" d="M219.8452,-919.3919C243.3951,-925.0379 272.3088,-931.9699 295.2722,-937.4754"/>
<polygon fill="#191970" stroke="#191970" points="220.6542,-915.9868 210.1138,-917.0588 219.0222,-922.7939 220.6542,-915.9868"/>
</g>
<!-- Node7805 -->
<g id="node4" class="node">
<title>Node7805</title>
<g id="a_node4"><a xlink:href="quickjs_8c.html#aded409755b8a76b40d57ec5fbe8d9653" target="_top" xlink:title="JS_WriteFunctionTag">
<polygon fill="none" stroke="#ff0000" points="279.5,-899.5 279.5,-918.5 390.5,-918.5 390.5,-899.5 279.5,-899.5"/>
<text text-anchor="middle" x="335" y="-906.5" font-family="Helvetica,sans-Serif" font-size="10.00" fill="#000000">JS_WriteFunctionTag</text>
</a>
</g>
</g>
<!-- Node7795&#45;&gt;Node7805 -->
<g id="edge3" class="edge">
<title>Node7795&#45;&gt;Node7805</title>
<path fill="none" stroke="#191970" d="M220.1828,-909C238.4537,-909 259.9069,-909 279.293,-909"/>
<polygon fill="#191970" stroke="#191970" points="220.1138,-905.5001 210.1138,-909 220.1137,-912.5001 220.1138,-905.5001"/>
</g>
<!-- Node7807 -->
<g id="node6" class="node">
<title>Node7807</title>
<g id="a_node6"><a xlink:href="quickjs_8c.html#a7d087e9b184f7e0369bab54aafb1c36d" target="_top" xlink:title="push_scope">
<polygon fill="none" stroke="#ff0000" points="300.5,-481.5 300.5,-500.5 369.5,-500.5 369.5,-481.5 300.5,-481.5"/>
<text text-anchor="middle" x="335" y="-488.5" font-family="Helvetica,sans-Serif" font-size="10.00" fill="#000000">push_scope</text>
</a>
</g>
</g>
<!-- Node7806&#45;&gt;Node7807 -->
<g id="edge5" class="edge">
<title>Node7806&#45;&gt;Node7807</title>
<path fill="none" stroke="#191970" d="M190.7866,-587.6615C209.0124,-566.5685 242.4576,-531.1625 278,-510 284.9013,-505.8909 292.8078,-502.5347 300.4904,-499.8504"/>
<polygon fill="#191970" stroke="#191970" points="187.9478,-585.5977 184.1543,-595.4901 193.2888,-590.1226 187.9478,-585.5977"/>
</g>
<!-- Node7808 -->
<g id="node7" class="node">
<title>Node7808</title>
<g id="a_node7"><a xlink:href="quickjs_8c.html#a00eb789430243c24dab4a63ad6a79653" target="_top" xlink:title="js_parse_class">
<polygon fill="none" stroke="#ff0000" points="444.5,-481.5 444.5,-500.5 526.5,-500.5 526.5,-481.5 444.5,-481.5"/>
<text text-anchor="middle" x="485.5" y="-488.5" font-family="Helvetica,sans-Serif" font-size="10.00" fill="#000000">js_parse_class</text>
</a>
</g>
</g>
<!-- Node7806&#45;&gt;Node7808 -->
<g id="edge20" class="edge">
<title>Node7806&#45;&gt;Node7808</title>
<path fill="none" stroke="#191970" d="M184.2604,-585.9682C197.9456,-555.2972 229.5832,-495.9557 278,-472 339.118,-441.76 422.7323,-466.3545 462.5768,-481.4267"/>
<polygon fill="#191970" stroke="#191970" points="181.0355,-584.6081 180.3093,-595.178 187.4684,-587.3679 181.0355,-584.6081"/>
</g>
<!-- Node7809 -->
<g id="node8" class="node">
<title>Node7809</title>
<g id="a_node8"><a xlink:href="quickjs_8c.html#a840642c87c5a82d4cc68333376a3b6de" target="_top" xlink:title="js_parse_postfix_expr">
<polygon fill="none" stroke="#ff0000" points="579,-747.5 579,-766.5 691,-766.5 691,-747.5 579,-747.5"/>
<text text-anchor="middle" x="635" y="-754.5" font-family="Helvetica,sans-Serif" font-size="10.00" fill="#000000">js_parse_postfix_expr</text>
</a>
</g>
</g>
<!-- Node7806&#45;&gt;Node7809 -->
<g id="edge32" class="edge">
<title>Node7806&#45;&gt;Node7809</title>
<path fill="none" stroke="#191970" d="M179.7544,-624.5159C187.944,-667.1666 213.5493,-768.9436 278,-820 370.9909,-893.6652 433.7647,-898.2766 543,-852 584.8583,-834.2671 617.0019,-787.1352 629.4184,-766.6889"/>
<polygon fill="#191970" stroke="#191970" points="183.1812,-623.7962 177.9608,-614.5767 176.2924,-625.0393 183.1812,-623.7962"/>
</g>
<!-- Node7844 -->
<g id="node9" class="node">
<title>Node7844</title>
<g id="a_node9"><a xlink:href="quickjs_8c.html#a3376d6ef6fabfbe6070a4e13cb281974" target="_top" xlink:title="pop_scope">
<polygon fill="none" stroke="#ff0000" points="303,-367.5 303,-386.5 367,-386.5 367,-367.5 303,-367.5"/>
<text text-anchor="middle" x="335" y="-374.5" font-family="Helvetica,sans-Serif" font-size="10.00" fill="#000000">pop_scope</text>
</a>
</g>
</g>
<!-- Node7806&#45;&gt;Node7844 -->
<g id="edge9" class="edge">
<title>Node7806&#45;&gt;Node7844</title>
<path fill="none" stroke="#191970" d="M180.5451,-585.7015C190.1192,-544.7576 218.0093,-448.6397 278,-396 284.9782,-389.8769 293.9936,-385.7148 302.7864,-382.8903"/>
<polygon fill="#191970" stroke="#191970" points="177.1214,-584.974 178.363,-595.4959 183.9539,-586.4963 177.1214,-584.974"/>
</g>
<!-- Node7845 -->
<g id="node10" class="node">
<title>Node7845</title>
<g id="a_node10"><a xlink:href="quickjs_8c.html#ae04197c3107208ce7ba5e1dab6caf81d" target="_top" xlink:title="close_scopes">
<polygon fill="none" stroke="#ff0000" points="296.5,-405.5 296.5,-424.5 373.5,-424.5 373.5,-405.5 296.5,-405.5"/>
<text text-anchor="middle" x="335" y="-412.5" font-family="Helvetica,sans-Serif" font-size="10.00" fill="#000000">close_scopes</text>
</a>
</g>
</g>
<!-- Node7806&#45;&gt;Node7845 -->
<g id="edge11" class="edge">
<title>Node7806&#45;&gt;Node7845</title>
<path fill="none" stroke="#191970" d="M183.6655,-585.6604C197.1712,-551.6378 229.4681,-480.7368 278,-439 285.0826,-432.9091 293.9343,-428.1862 302.5348,-424.6051"/>
<polygon fill="#191970" stroke="#191970" points="180.2705,-584.7374 179.9441,-595.3272 186.8032,-587.2523 180.2705,-584.7374"/>
</g>
<!-- Node7841 -->
<g id="node11" class="node">
<title>Node7841</title>
<g id="a_node11"><a xlink:href="quickjs_8c.html#a035daca514f14aacc1e0cff81d8e423a" target="_top" xlink:title="js_parse_template">
<polygon fill="none" stroke="#000000" points="437.5,-823.5 437.5,-842.5 533.5,-842.5 533.5,-823.5 437.5,-823.5"/>
<text text-anchor="middle" x="485.5" y="-830.5" font-family="Helvetica,sans-Serif" font-size="10.00" fill="#000000">js_parse_template</text>
</a>
</g>
</g>
<!-- Node7806&#45;&gt;Node7841 -->
<g id="edge12" class="edge">
<title>Node7806&#45;&gt;Node7841</title>
<path fill="none" stroke="#191970" d="M181.6442,-624.4296C192.6226,-661.9203 222.0303,-744.2207 278,-786 324.4715,-820.6892 391.9864,-830.5073 437.2551,-832.9131"/>
<polygon fill="#191970" stroke="#191970" points="184.9919,-623.4043 178.9241,-614.7191 178.2513,-625.2926 184.9919,-623.4043"/>
</g>
<!-- Node7822 -->
<g id="node12" class="node">
<title>Node7822</title>
<g id="a_node12"><a xlink:href="quickjs_8c.html#aee6d0acd87f136d43f157ae1426436e6" target="_top" xlink:title="js_parse_object_literal">
<polygon fill="none" stroke="#000000" points="429,-785.5 429,-804.5 542,-804.5 542,-785.5 429,-785.5"/>
<text text-anchor="middle" x="485.5" y="-792.5" font-family="Helvetica,sans-Serif" font-size="10.00" fill="#000000">js_parse_object_literal</text>
</a>
</g>
</g>
<!-- Node7806&#45;&gt;Node7822 -->
<g id="edge14" class="edge">
<title>Node7806&#45;&gt;Node7822</title>
<path fill="none" stroke="#191970" d="M183.8369,-624.204C197.2562,-656.5659 228.966,-721.598 278,-754 322.8819,-783.6584 384.3488,-792.7988 428.7204,-795.192"/>
<polygon fill="#191970" stroke="#191970" points="186.9501,-622.5626 179.9886,-614.5759 180.4501,-625.1607 186.9501,-622.5626"/>
</g>
<!-- Node7847 -->
<g id="node13" class="node">
<title>Node7847</title>
<g id="a_node13"><a xlink:href="quickjs_8c.html#a1e86277b96b55991d572603e00fef94d" target="_top" xlink:title="emit_class_field_init">
<polygon fill="none" stroke="#ff0000" points="433,-747.5 433,-766.5 538,-766.5 538,-747.5 433,-747.5"/>
<text text-anchor="middle" x="485.5" y="-754.5" font-family="Helvetica,sans-Serif" font-size="10.00" fill="#000000">emit_class_field_init</text>
</a>
</g>
</g>
<!-- Node7806&#45;&gt;Node7847 -->
<g id="edge16" class="edge">
<title>Node7806&#45;&gt;Node7847</title>
<path fill="none" stroke="#191970" d="M186.49,-623.738C202.0911,-650.9759 234.9659,-700.8794 278,-725 325.6943,-751.7327 388.7363,-758.1243 432.7659,-758.8341"/>
<polygon fill="#191970" stroke="#191970" points="189.4515,-621.8616 181.537,-614.8181 183.3317,-625.2599 189.4515,-621.8616"/>
</g>
<!-- Node7848 -->
<g id="node14" class="node">
<title>Node7848</title>
<g id="a_node14"><a xlink:href="quickjs_8c.html#a38e4107378b0d9abd638e4fe13541678" target="_top" xlink:title="emit_class_init_start">
<polygon fill="none" stroke="#ff0000" points="281.5,-519.5 281.5,-538.5 388.5,-538.5 388.5,-519.5 281.5,-519.5"/>
<text text-anchor="middle" x="335" y="-526.5" font-family="Helvetica,sans-Serif" font-size="10.00" fill="#000000">emit_class_init_start</text>
</a>
</g>
</g>
<!-- Node7806&#45;&gt;Node7848 -->
<g id="edge18" class="edge">
<title>Node7806&#45;&gt;Node7848</title>
<path fill="none" stroke="#191970" d="M200.0274,-590.0923C220.1871,-577.7363 250.2749,-560.2723 278,-548 285.9169,-544.4956 294.6919,-541.2664 302.9364,-538.5022"/>
<polygon fill="#191970" stroke="#191970" points="198.1635,-587.1297 191.5076,-595.3729 201.8513,-593.0796 198.1635,-587.1297"/>
</g>
<!-- Node7838 -->
<g id="node15" class="node">
<title>Node7838</title>
<g id="a_node15"><a xlink:href="quickjs_8c.html#a253917187cfb6b3db09d355b31edb3d5" target="_top" xlink:title="js_parse_array_literal">
<polygon fill="none" stroke="#000000" points="431,-709.5 431,-728.5 540,-728.5 540,-709.5 431,-709.5"/>
<text text-anchor="middle" x="485.5" y="-716.5" font-family="Helvetica,sans-Serif" font-size="10.00" fill="#000000">js_parse_array_literal</text>
</a>
</g>
</g>
<!-- Node7806&#45;&gt;Node7838 -->
<g id="edge21" class="edge">
<title>Node7806&#45;&gt;Node7838</title>
<path fill="none" stroke="#191970" d="M189.3025,-622.7376C206.5966,-645.1345 239.7038,-682.8142 278,-700 326.351,-721.6979 387.3165,-724.7842 430.6245,-723.4546"/>
<polygon fill="#191970" stroke="#191970" points="192.0789,-620.6062 183.2763,-614.7101 186.4808,-624.8087 192.0789,-620.6062"/>
</g>
<!-- Node7850 -->
<g id="node16" class="node">
<title>Node7850</title>
<g id="a_node16"><a xlink:href="quickjs_8c.html#a069baa06a1214006c4ec473875de010e" target="_top" xlink:title="get_lvalue">
<polygon fill="none" stroke="#ff0000" points="304.5,-633.5 304.5,-652.5 365.5,-652.5 365.5,-633.5 304.5,-633.5"/>
<text text-anchor="middle" x="335" y="-640.5" font-family="Helvetica,sans-Serif" font-size="10.00" fill="#000000">get_lvalue</text>
</a>
</g>
</g>
<!-- Node7806&#45;&gt;Node7850 -->
<g id="edge23" class="edge">
<title>Node7806&#45;&gt;Node7850</title>
<path fill="none" stroke="#191970" d="M214.895,-614.2051C242.4032,-620.8001 278.9505,-629.5623 304.4763,-635.682"/>
<polygon fill="#191970" stroke="#191970" points="215.3771,-610.7216 204.8366,-611.7936 213.745,-617.5287 215.3771,-610.7216"/>
</g>
<!-- Node7811 -->
<g id="node17" class="node">
<title>Node7811</title>
<g id="a_node17"><a xlink:href="quickjs_8c.html#a26be546cf89c4580ba9020e8fc43a759" target="_top" xlink:title="js_parse_destructuring\l_element">
<polygon fill="none" stroke="#ff0000" points="428,-628 428,-658 543,-658 543,-628 428,-628"/>
<text text-anchor="start" x="436" y="-646" font-family="Helvetica,sans-Serif" font-size="10.00" fill="#000000">js_parse_destructuring</text>
<text text-anchor="middle" x="485.5" y="-635" font-family="Helvetica,sans-Serif" font-size="10.00" fill="#000000">_element</text>
</a>
</g>
</g>
<!-- Node7806&#45;&gt;Node7811 -->
<g id="edge31" class="edge">
<title>Node7806&#45;&gt;Node7811</title>
<path fill="none" stroke="#191970" d="M214.5742,-607.0578C257.7541,-609.6926 330.1929,-615.0245 392,-624 403.6386,-625.6901 416.0135,-627.9042 427.8209,-630.2217"/>
<polygon fill="#191970" stroke="#191970" points="214.7024,-603.5594 204.5125,-606.4606 214.2875,-610.5471 214.7024,-603.5594"/>
</g>
<!-- Node7851 -->
<g id="node18" class="node">
<title>Node7851</title>
<g id="a_node18"><a xlink:href="quickjs_8c.html#a24d4ada6c0c50e82c89955a9300708a9" target="_top" xlink:title="put_lvalue">
<polygon fill="none" stroke="#ff0000" points="304.5,-557.5 304.5,-576.5 365.5,-576.5 365.5,-557.5 304.5,-557.5"/>
<text text-anchor="middle" x="335" y="-564.5" font-family="Helvetica,sans-Serif" font-size="10.00" fill="#000000">put_lvalue</text>
</a>
</g>
</g>
<!-- Node7806&#45;&gt;Node7851 -->
<g id="edge27" class="edge">
<title>Node7806&#45;&gt;Node7851</title>
<path fill="none" stroke="#191970" d="M214.895,-595.7949C242.4032,-589.1999 278.9505,-580.4377 304.4763,-574.318"/>
<polygon fill="#191970" stroke="#191970" points="213.745,-592.4713 204.8366,-598.2064 215.3771,-599.2784 213.745,-592.4713"/>
</g>
<!-- Node7852 -->
<g id="node19" class="node">
<title>Node7852</title>
<g id="a_node19"><a xlink:href="quickjs_8c.html#a98ab69061f85c400e0eed2c0eb47f49b" target="_top" xlink:title="js_emit_spread_code">
<polygon fill="none" stroke="#000000" points="280.5,-671.5 280.5,-690.5 389.5,-690.5 389.5,-671.5 280.5,-671.5"/>
<text text-anchor="middle" x="335" y="-678.5" font-family="Helvetica,sans-Serif" font-size="10.00" fill="#000000">js_emit_spread_code</text>
</a>
</g>
</g>
<!-- Node7806&#45;&gt;Node7852 -->
<g id="edge29" class="edge">
<title>Node7806&#45;&gt;Node7852</title>
<path fill="none" stroke="#191970" d="M200.0274,-619.9077C220.1871,-632.2637 250.2749,-649.7277 278,-662 285.9169,-665.5044 294.6919,-668.7336 302.9364,-671.4978"/>
<polygon fill="#191970" stroke="#191970" points="201.8513,-616.9204 191.5076,-614.6271 198.1635,-622.8703 201.8513,-616.9204"/>
</g>
<!-- Node7807&#45;&gt;Node7808 -->
<g id="edge6" class="edge">
<title>Node7807&#45;&gt;Node7808</title>
<path fill="none" stroke="#191970" d="M379.5886,-491C400.1342,-491 424.3584,-491 444.4506,-491"/>
<polygon fill="#191970" stroke="#191970" points="379.5278,-487.5001 369.5277,-491 379.5277,-494.5001 379.5278,-487.5001"/>
</g>
<!-- Node7808&#45;&gt;Node7809 -->
<g id="edge7" class="edge">
<title>Node7808&#45;&gt;Node7809</title>
<path fill="none" stroke="#191970" d="M495.9869,-509.659C525.362,-561.925 607.7345,-708.4874 629.6096,-747.409"/>
<polygon fill="#191970" stroke="#191970" points="498.9488,-507.7852 490.9981,-500.7825 492.8465,-511.2149 498.9488,-507.7852"/>
</g>
<!-- Node7809&#45;&gt;Node7809 -->
<g id="edge8" class="edge">
<title>Node7809&#45;&gt;Node7809</title>
<path fill="none" stroke="#191970" d="M607.3742,-775.6539C608.5289,-780.9368 617.7375,-785 635,-785 661.3047,-785 668.9084,-775.5653 657.8111,-766.7571"/>
<polygon fill="#191970" stroke="#191970" points="610.5076,-777.2176 612.1889,-766.7571 604.3512,-773.886 610.5076,-777.2176"/>
</g>
<!-- Node7844&#45;&gt;Node7808 -->
<g id="edge10" class="edge">
<title>Node7844&#45;&gt;Node7808</title>
<path fill="none" stroke="#191970" d="M376.7953,-388.3606C382.0924,-390.5345 387.2977,-393.0679 392,-396 430.2914,-419.8764 464.4984,-462.4991 478.626,-481.4558"/>
<polygon fill="#191970" stroke="#191970" points="377.8435,-385.0166 367.2503,-384.8274 375.4134,-391.5813 377.8435,-385.0166"/>
</g>
<!-- Node7841&#45;&gt;Node7809 -->
<g id="edge13" class="edge">
<title>Node7841&#45;&gt;Node7809</title>
<path fill="none" stroke="#191970" d="M528.4078,-820.0688C533.3958,-818.2005 538.3561,-816.1687 543,-814 572.6223,-800.166 604.4785,-778.805 621.8471,-766.54"/>
<polygon fill="#191970" stroke="#191970" points="527.1143,-816.8139 518.8579,-823.4532 529.4526,-823.4118 527.1143,-816.8139"/>
</g>
<!-- Node7822&#45;&gt;Node7809 -->
<g id="edge15" class="edge">
<title>Node7822&#45;&gt;Node7809</title>
<path fill="none" stroke="#191970" d="M533.1516,-782.8879C553.9726,-777.5956 578.0377,-771.4787 597.5461,-766.5201"/>
<polygon fill="#191970" stroke="#191970" points="532.0547,-779.5553 523.2252,-785.411 533.7792,-786.3396 532.0547,-779.5553"/>
</g>
<!-- Node7847&#45;&gt;Node7809 -->
<g id="edge17" class="edge">
<title>Node7847&#45;&gt;Node7809</title>
<path fill="none" stroke="#191970" d="M548.2667,-757C558.4559,-757 568.9502,-757 578.9654,-757"/>
<polygon fill="#191970" stroke="#191970" points="548.2081,-753.5001 538.2081,-757 548.2081,-760.5001 548.2081,-753.5001"/>
</g>
<!-- Node7848&#45;&gt;Node7808 -->
<g id="edge19" class="edge">
<title>Node7848&#45;&gt;Node7808</title>
<path fill="none" stroke="#191970" d="M382.6847,-516.96C403.7103,-511.6512 428.0674,-505.5012 447.7956,-500.5201"/>
<polygon fill="#191970" stroke="#191970" points="381.8164,-513.5693 372.9775,-519.411 383.5301,-520.3563 381.8164,-513.5693"/>
</g>
<!-- Node7838&#45;&gt;Node7809 -->
<g id="edge22" class="edge">
<title>Node7838&#45;&gt;Node7809</title>
<path fill="none" stroke="#191970" d="M533.1516,-731.1121C553.9726,-736.4044 578.0377,-742.5213 597.5461,-747.4799"/>
<polygon fill="#191970" stroke="#191970" points="533.7792,-727.6604 523.2252,-728.589 532.0547,-734.4447 533.7792,-727.6604"/>
</g>
<!-- Node7850&#45;&gt;Node7811 -->
<g id="edge24" class="edge">
<title>Node7850&#45;&gt;Node7811</title>
<path fill="none" stroke="#191970" d="M375.9253,-643C391.9466,-643 410.6097,-643 427.9448,-643"/>
<polygon fill="#191970" stroke="#191970" points="375.8191,-639.5001 365.8191,-643 375.8191,-646.5001 375.8191,-639.5001"/>
</g>
<!-- Node7811&#45;&gt;Node7809 -->
<g id="edge26" class="edge">
<title>Node7811&#45;&gt;Node7809</title>
<path fill="none" stroke="#191970" d="M513.5969,-664.425C546.2466,-689.3218 598.6804,-729.3048 622.5019,-747.4696"/>
<polygon fill="#191970" stroke="#191970" points="515.4266,-661.4188 505.3524,-658.1383 511.1821,-666.9852 515.4266,-661.4188"/>
</g>
<!-- Node7811&#45;&gt;Node7811 -->
<g id="edge25" class="edge">
<title>Node7811&#45;&gt;Node7811</title>
<path fill="none" stroke="#191970" d="M459.2022,-668.4579C462.4661,-673.179 471.2321,-676.5 485.5,-676.5 508.9141,-676.5 517.5114,-667.5566 511.2921,-658.159"/>
<polygon fill="#191970" stroke="#191970" points="462.7132,-668.3187 459.7079,-658.159 455.7216,-667.9753 462.7132,-668.3187"/>
</g>
<!-- Node7851&#45;&gt;Node7811 -->
<g id="edge28" class="edge">
<title>Node7851&#45;&gt;Node7811</title>
<path fill="none" stroke="#191970" d="M368.8369,-580.5307C376.5235,-583.8019 384.601,-587.3981 392,-591 415.5476,-602.4631 441.5202,-617.0736 460.1031,-627.887"/>
<polygon fill="#191970" stroke="#191970" points="369.9664,-577.2095 359.39,-576.585 367.2686,-583.6687 369.9664,-577.2095"/>
</g>
<!-- Node7852&#45;&gt;Node7811 -->
<g id="edge30" class="edge">
<title>Node7852&#45;&gt;Node7811</title>
<path fill="none" stroke="#191970" d="M383.0595,-668.8654C397.3192,-665.2649 413.084,-661.2845 427.8843,-657.5475"/>
<polygon fill="#191970" stroke="#191970" points="381.8164,-665.5693 372.9775,-671.411 383.5301,-672.3563 381.8164,-665.5693"/>
</g>
<!-- Node7855&#45;&gt;Node7856 -->
<g id="edge34" class="edge">
<title>Node7855&#45;&gt;Node7856</title>
<path fill="none" stroke="#191970" d="M225.6492,-270.1083C242.1348,-268.1321 260.6614,-265.9112 277.7149,-263.867"/>
<polygon fill="#191970" stroke="#191970" points="225.1921,-266.6379 215.6798,-271.3034 226.0253,-273.5882 225.1921,-266.6379"/>
</g>
<!-- Node7856&#45;&gt;Node7857 -->
<g id="edge35" class="edge">
<title>Node7856&#45;&gt;Node7857</title>
<path fill="none" stroke="#191970" d="M402.5907,-266.8804C414.9222,-268.683 427.5309,-270.5261 439.0737,-272.2134"/>
<polygon fill="#191970" stroke="#191970" points="402.728,-263.3633 392.3269,-265.38 401.7155,-270.2897 402.728,-263.3633"/>
</g>
<!-- Node7859&#45;&gt;Node7857 -->
<g id="edge37" class="edge">
<title>Node7859&#45;&gt;Node7857</title>
<path fill="none" stroke="#191970" d="M225.4292,-377.2703C242.0657,-371.0117 260.7988,-364.0845 278,-358 328.3502,-340.1898 342.1588,-339.1884 392,-320 417.6389,-310.1293 446.507,-297.1811 465.295,-288.5006"/>
<polygon fill="#191970" stroke="#191970" points="224.0229,-374.06 215.9036,-380.8665 226.4954,-380.6089 224.0229,-374.06"/>
</g>
<!-- Node7860&#45;&gt;Node7861 -->
<g id="edge39" class="edge">
<title>Node7860&#45;&gt;Node7861</title>
<path fill="none" stroke="#191970" d="M252.5832,-307.7597C263.7895,-306.8406 275.0803,-305.9145 285.5575,-305.0552"/>
<polygon fill="#191970" stroke="#191970" points="252.0217,-304.2939 242.3413,-308.5998 252.594,-311.2705 252.0217,-304.2939"/>
</g>
<!-- Node7861&#45;&gt;Node7857 -->
<g id="edge40" class="edge">
<title>Node7861&#45;&gt;Node7857</title>
<path fill="none" stroke="#191970" d="M394.462,-292.3079C409.4157,-290.122 425.2405,-287.8087 439.428,-285.7348"/>
<polygon fill="#191970" stroke="#191970" points="393.6679,-288.8867 384.2793,-293.7964 394.6804,-295.8131 393.6679,-288.8867"/>
</g>
<!-- Node7862&#45;&gt;Node7863 -->
<g id="edge42" class="edge">
<title>Node7862&#45;&gt;Node7863</title>
<path fill="none" stroke="#191970" d="M227.1247,-124C249.2459,-124 274.8046,-124 295.4899,-124"/>
<polygon fill="#191970" stroke="#191970" points="226.9064,-120.5001 216.9063,-124 226.9063,-127.5001 226.9064,-120.5001"/>
</g>
<!-- Node7864&#45;&gt;Node7863 -->
<g id="edge44" class="edge">
<title>Node7864&#45;&gt;Node7863</title>
<path fill="none" stroke="#191970" d="M226.4191,-150.032C248.6304,-144.7069 274.4205,-138.5238 295.2914,-133.5201"/>
<polygon fill="#191970" stroke="#191970" points="225.4047,-146.676 216.4962,-152.411 227.0367,-153.4831 225.4047,-146.676"/>
</g>
<!-- Node7865&#45;&gt;Node7866 -->
<g id="edge46" class="edge">
<title>Node7865&#45;&gt;Node7866</title>
<path fill="none" stroke="#191970" d="M229.8242,-16.3922C251.4193,-18.9809 275.9009,-21.9156 295.8075,-24.3018"/>
<polygon fill="#191970" stroke="#191970" points="230.1563,-12.907 219.8108,-15.1918 229.3231,-19.8573 230.1563,-12.907"/>
</g>
</g>
</svg>
        <g id="navigator" transform="translate(0 0)" fill="#404254">
                <rect fill="#f2f5e9" fill-opacity="0.5" stroke="#606060" stroke-width=".5" x="0" y="0" width="60" height="60"/>
                <use id="zoomplus" xlink:href="#zoomPlus" x="17" y="9" onmousedown="handleZoom(evt,'in')"/>
                <use id="zoomminus" xlink:href="#zoomMin" x="42" y="9" onmousedown="handleZoom(evt,'out')"/>
                <use id="reset" xlink:href="#resetDef" x="30" y="36" onmousedown="handleReset()"/>
                <g id="arrowUp" xlink:href="#dirArrow" transform="translate(30 24)" onmousedown="handlePan(0,-1)">
                  <use xlink:href="#rim" fill="#404040">
                        <set attributeName="fill" to="#808080" begin="arrowUp.mouseover" end="arrowUp.mouseout"/>
                  </use>
                  <path fill="none" stroke="white" stroke-width="1.5" d="M0,-3.0v7 M-2.5,-0.5L0,-3.0L2.5,-0.5"/>
                </g>
                <g id="arrowRight" xlink:href="#dirArrow" transform="rotate(90) translate(36 -43)" onmousedown="handlePan(1,0)">
                  <use xlink:href="#rim" fill="#404040">
                        <set attributeName="fill" to="#808080" begin="arrowRight.mouseover" end="arrowRight.mouseout"/>
                  </use>
                  <path fill="none" stroke="white" stroke-width="1.5" d="M0,-3.0v7 M-2.5,-0.5L0,-3.0L2.5,-0.5"/>
                </g>
                <g id="arrowDown" xlink:href="#dirArrow" transform="rotate(180) translate(-30 -48)" onmousedown="handlePan(0,1)">
                  <use xlink:href="#rim" fill="#404040">
                        <set attributeName="fill" to="#808080" begin="arrowDown.mouseover" end="arrowDown.mouseout"/>
                  </use>
                  <path fill="none" stroke="white" stroke-width="1.5" d="M0,-3.0v7 M-2.5,-0.5L0,-3.0L2.5,-0.5"/>
                </g>
                <g id="arrowLeft" xlink:href="#dirArrow" transform="rotate(270) translate(-36 17)" onmousedown="handlePan(-1,0)">
                  <use xlink:href="#rim" fill="#404040">
                        <set attributeName="fill" to="#808080" begin="arrowLeft.mouseover" end="arrowLeft.mouseout"/>
                  </use>
                  <path fill="none" stroke="white" stroke-width="1.5" d="M0,-3.0v7 M-2.5,-0.5L0,-3.0L2.5,-0.5"/>
                </g>
        </g>
        <svg viewBox="0 0 15 15" width="100%" height="30px" preserveAspectRatio="xMaxYMin meet">
         <g id="arrow_out" transform="scale(0.3 0.3)">
          <a xlink:href="cutils_8h_a31a6b9f8517a73d45e976d8a026e964e_icgraph_org.svg" target="_base">
           <rect id="button" ry="5" rx="5" y="6" x="6" height="38" width="38"
                fill="#f2f5e9" fill-opacity="0.5" stroke="#606060" stroke-width="1.0"/>
           <path id="arrow"
             d="M 11.500037,31.436501 C 11.940474,20.09759 22.043105,11.32322 32.158766,21.979434 L 37.068811,17.246167 C 37.068811,17.246167 37.088388,32 37.088388,32 L 22.160133,31.978069 C 22.160133,31.978069 26.997745,27.140456 26.997745,27.140456 C 18.528582,18.264221 13.291696,25.230495 11.500037,31.436501 z"
             style="fill:#404040;"/>
          </a>
         </g>
        </svg>
</svg>
