<?xml version="1.0" encoding="UTF-8" standalone="no"?>
<!DOCTYPE svg PUBLIC "-//W3C//DTD SVG 1.1//EN"
 "http://www.w3.org/Graphics/SVG/1.1/DTD/svg11.dtd">
<!-- Generated by graphviz version 2.40.1 (20161225.0304)
 -->
<!-- Title: lre_js_is_ident_first Pages: 1 -->
<!--zoomable 1273 -->
<svg id="main" version="1.1" xmlns="http://www.w3.org/2000/svg" xmlns:xlink="http://www.w3.org/1999/xlink" xml:space="preserve" onload="init(evt)">
<style type="text/css"><![CDATA[
.edge:hover path { stroke: red; }
.edge:hover polygon { stroke: red; fill: red; }
]]></style>
<script type="text/javascript"><![CDATA[
var edges = document.getElementsByTagName('g');
if (edges && edges.length) {
  for (var i=0;i<edges.length;i++) {
    if (edges[i].id.substr(0,4)=='edge') {
      edges[i].setAttribute('class','edge');
    }
  }
}
]]></script>
        <defs>
                <circle id="rim" cx="0" cy="0" r="7"/>
                <circle id="rim2" cx="0" cy="0" r="3.5"/>
                <g id="zoomPlus">
                        <use xlink:href="#rim" fill="#404040">
                                <set attributeName="fill" to="#808080" begin="zoomplus.mouseover" end="zoomplus.mouseout"/>
                        </use>
                        <path d="M-4,0h8M0,-4v8" fill="none" stroke="white" stroke-width="1.5" pointer-events="none"/>
                </g>
                <g id="zoomMin">
                        <use xlink:href="#rim" fill="#404040">
                                <set attributeName="fill" to="#808080" begin="zoomminus.mouseover" end="zoomminus.mouseout"/>
                        </use>
                        <path d="M-4,0h8" fill="none" stroke="white" stroke-width="1.5" pointer-events="none"/>
                </g>
                <g id="dirArrow">
                        <path fill="none" stroke="white" stroke-width="1.5" d="M0,-3.0v7 M-2.5,-0.5L0,-3.0L2.5,-0.5"/>
                </g>
               <g id="resetDef">
                       <use xlink:href="#rim2" fill="#404040">
                               <set attributeName="fill" to="#808080" begin="reset.mouseover" end="reset.mouseout"/>
                       </use>
               </g>
        </defs>

<script type="text/javascript">
var viewWidth = 2160;
var viewHeight = 1273;
var sectionId = 'dynsection-16';
</script>
<script xlink:href="svgpan.js"/>
<svg id="graph" class="graph">
<g id="viewport">
<title>lre_js_is_ident_first</title>
<!-- Node896 -->
<g id="node1" class="node">
<title>Node896</title>
<polygon fill="#bfbfbf" stroke="#000000" points="0,-641.1054 0,-660.1054 101,-660.1054 101,-641.1054 0,-641.1054"/>
<text text-anchor="middle" x="50.5" y="-648.1054" font-family="Helvetica,sans-Serif" font-size="10.00" fill="#000000">lre_js_is_ident_first</text>
</g>
<!-- Node897 -->
<g id="node2" class="node">
<title>Node897</title>
<g id="a_node2"><a xlink:href="quickjs_8c.html#a75a3798e2045f6e403c1ef467126d1fb" target="_top" xlink:title="next_token">
<polygon fill="none" stroke="#ff0000" points="161,-679.1054 161,-698.1054 226,-698.1054 226,-679.1054 161,-679.1054"/>
<text text-anchor="middle" x="193.5" y="-686.1054" font-family="Helvetica,sans-Serif" font-size="10.00" fill="#000000">next_token</text>
</a>
</g>
</g>
<!-- Node896&#45;&gt;Node897 -->
<g id="edge1" class="edge">
<title>Node896&#45;&gt;Node897</title>
<path fill="none" stroke="#191970" d="M96.2782,-662.7702C117.295,-668.3551 141.7328,-674.849 160.8498,-679.9291"/>
<polygon fill="#191970" stroke="#191970" points="97.1484,-659.38 86.5849,-660.1944 95.3506,-666.1453 97.1484,-659.38"/>
</g>
<!-- Node943 -->
<g id="node29" class="node">
<title>Node943</title>
<g id="a_node29"><a xlink:href="libregexp_8c.html#a6e0ee9170c3faaca126dbcc40c07aed7" target="_top" xlink:title="re_parse_group_name">
<polygon fill="none" stroke="#ff0000" points="137,-641.1054 137,-660.1054 250,-660.1054 250,-641.1054 137,-641.1054"/>
<text text-anchor="middle" x="193.5" y="-648.1054" font-family="Helvetica,sans-Serif" font-size="10.00" fill="#000000">re_parse_group_name</text>
</a>
</g>
</g>
<!-- Node896&#45;&gt;Node943 -->
<g id="edge90" class="edge">
<title>Node896&#45;&gt;Node943</title>
<path fill="none" stroke="#191970" d="M111.3655,-650.6054C119.7078,-650.6054 128.2477,-650.6054 136.5171,-650.6054"/>
<polygon fill="#191970" stroke="#191970" points="111.3191,-647.1055 101.3191,-650.6054 111.3191,-654.1055 111.3191,-647.1055"/>
</g>
<!-- Node956 -->
<g id="node30" class="node">
<title>Node956</title>
<g id="a_node30"><a xlink:href="quickjs_8c.html#abd9d73eefa041a1741277e91ed026746" target="_top" xlink:title="simple_next_token">
<polygon fill="none" stroke="#ff0000" points="144.5,-603.1054 144.5,-622.1054 242.5,-622.1054 242.5,-603.1054 144.5,-603.1054"/>
<text text-anchor="middle" x="193.5" y="-610.1054" font-family="Helvetica,sans-Serif" font-size="10.00" fill="#000000">simple_next_token</text>
</a>
</g>
</g>
<!-- Node896&#45;&gt;Node956 -->
<g id="edge91" class="edge">
<title>Node896&#45;&gt;Node956</title>
<path fill="none" stroke="#191970" d="M96.3133,-638.4312C116.0871,-633.1766 138.8838,-627.1188 157.4266,-622.1913"/>
<polygon fill="#191970" stroke="#191970" points="95.3506,-635.0655 86.5849,-641.0164 97.1484,-641.8307 95.3506,-635.0655"/>
</g>
<!-- Node898 -->
<g id="node3" class="node">
<title>Node898</title>
<g id="a_node3"><a xlink:href="quickjs_8c.html#aeca8ed71e1eef8ec809afab744958c28" target="_top" xlink:title="js_parse_expect">
<polygon fill="none" stroke="#ff0000" points="309,-641.1054 309,-660.1054 397,-660.1054 397,-641.1054 309,-641.1054"/>
<text text-anchor="middle" x="353" y="-648.1054" font-family="Helvetica,sans-Serif" font-size="10.00" fill="#000000">js_parse_expect</text>
</a>
</g>
</g>
<!-- Node897&#45;&gt;Node898 -->
<g id="edge2" class="edge">
<title>Node897&#45;&gt;Node898</title>
<path fill="none" stroke="#191970" d="M236.0168,-678.476C259.9138,-672.7826 289.562,-665.7191 313.0312,-660.1277"/>
<polygon fill="#191970" stroke="#191970" points="235.0786,-675.1014 226.1621,-680.8238 236.701,-681.9109 235.0786,-675.1014"/>
</g>
<!-- Node899 -->
<g id="node4" class="node">
<title>Node899</title>
<g id="a_node4"><a xlink:href="quickjs_8c.html#a035daca514f14aacc1e0cff81d8e423a" target="_top" xlink:title="js_parse_template">
<polygon fill="none" stroke="#000000" points="477,-698.1054 477,-717.1054 573,-717.1054 573,-698.1054 477,-698.1054"/>
<text text-anchor="middle" x="525" y="-705.1054" font-family="Helvetica,sans-Serif" font-size="10.00" fill="#000000">js_parse_template</text>
</a>
</g>
</g>
<!-- Node897&#45;&gt;Node899 -->
<g id="edge54" class="edge">
<title>Node897&#45;&gt;Node899</title>
<path fill="none" stroke="#191970" d="M236.3891,-691.0636C298.2661,-694.6101 412.2304,-701.1419 476.8936,-704.8481"/>
<polygon fill="#191970" stroke="#191970" points="236.3767,-687.5572 226.1927,-690.4792 235.976,-694.5457 236.3767,-687.5572"/>
</g>
<!-- Node900 -->
<g id="node5" class="node">
<title>Node900</title>
<g id="a_node5"><a xlink:href="quickjs_8c.html#a840642c87c5a82d4cc68333376a3b6de" target="_top" xlink:title="js_parse_postfix_expr">
<polygon fill="none" stroke="#ff0000" points="781,-604.1054 781,-623.1054 893,-623.1054 893,-604.1054 781,-604.1054"/>
<text text-anchor="middle" x="837" y="-611.1054" font-family="Helvetica,sans-Serif" font-size="10.00" fill="#000000">js_parse_postfix_expr</text>
</a>
</g>
</g>
<!-- Node897&#45;&gt;Node900 -->
<g id="edge76" class="edge">
<title>Node897&#45;&gt;Node900</title>
<path fill="none" stroke="#191970" d="M235.5208,-680.3093C241.0068,-677.6665 246.0744,-674.1865 250,-669.6054 311.3313,-598.0315 221.0147,-528.8788 286,-460.6054 339.3773,-404.5273 379.0474,-431.1011 456,-422.6054 588.0095,-408.0312 641.8275,-414.9732 745,-498.6054 784.5256,-530.645 818.1935,-582.3633 831.2267,-603.8057"/>
<polygon fill="#191970" stroke="#191970" points="234.0666,-677.1196 226.0211,-684.0131 236.6094,-683.6414 234.0666,-677.1196"/>
</g>
<!-- Node922 -->
<g id="node6" class="node">
<title>Node922</title>
<g id="a_node6"><a xlink:href="quickjs_8c.html#a9f26c765171d977db1796791f035f1f9" target="_top" xlink:title="js_parse_unary">
<polygon fill="none" stroke="#000000" points="929,-580.1054 929,-599.1054 1012,-599.1054 1012,-580.1054 929,-580.1054"/>
<text text-anchor="middle" x="970.5" y="-587.1054" font-family="Helvetica,sans-Serif" font-size="10.00" fill="#000000">js_parse_unary</text>
</a>
</g>
</g>
<!-- Node897&#45;&gt;Node922 -->
<g id="edge78" class="edge">
<title>Node897&#45;&gt;Node922</title>
<path fill="none" stroke="#191970" d="M235.6344,-680.4053C241.1048,-677.7494 246.1379,-674.2402 250,-669.6054 321.8624,-583.3646 202.684,-494.8391 286,-419.6054 361.7097,-351.24 649.4351,-389.9245 745,-425.6054 841.1423,-461.5018 932.6948,-550.4145 961.3258,-579.9178"/>
<polygon fill="#191970" stroke="#191970" points="234.1824,-677.215 226.1446,-684.1175 236.7325,-683.734 234.1824,-677.215"/>
</g>
<!-- Node923 -->
<g id="node7" class="node">
<title>Node923</title>
<g id="a_node7"><a xlink:href="quickjs_8c.html#a2ecfb6abb190101748202a8aa5821fba" target="_top" xlink:title="js_parse_delete">
<polygon fill="none" stroke="#000000" points="1060,-580.1054 1060,-599.1054 1145,-599.1054 1145,-580.1054 1060,-580.1054"/>
<text text-anchor="middle" x="1102.5" y="-587.1054" font-family="Helvetica,sans-Serif" font-size="10.00" fill="#000000">js_parse_delete</text>
</a>
</g>
</g>
<!-- Node897&#45;&gt;Node923 -->
<g id="edge77" class="edge">
<title>Node897&#45;&gt;Node923</title>
<path fill="none" stroke="#191970" d="M195.3915,-708.4309C202.5636,-779.1065 230.5277,-1017.0417 286,-1064.6054 390.0422,-1153.8143 457.9369,-1096.0324 594,-1079.6054 662.5983,-1071.3234 686.8833,-1079.9788 745,-1042.6054 938.3914,-918.24 1072.3552,-652.7889 1098.0176,-599.1648"/>
<polygon fill="#191970" stroke="#191970" points="198.8514,-707.8519 194.3858,-698.2442 191.8853,-708.5397 198.8514,-707.8519"/>
</g>
<!-- Node924 -->
<g id="node8" class="node">
<title>Node924</title>
<g id="a_node8"><a xlink:href="quickjs_8c.html#ad70b14684de2ed3babfd7c2264249437" target="_top" xlink:title="js_parse_expr_binary">
<polygon fill="none" stroke="#000000" points="1048,-204.1054 1048,-223.1054 1157,-223.1054 1157,-204.1054 1048,-204.1054"/>
<text text-anchor="middle" x="1102.5" y="-211.1054" font-family="Helvetica,sans-Serif" font-size="10.00" fill="#000000">js_parse_expr_binary</text>
</a>
</g>
</g>
<!-- Node897&#45;&gt;Node924 -->
<g id="edge79" class="edge">
<title>Node897&#45;&gt;Node924</title>
<path fill="none" stroke="#191970" d="M235.7063,-680.6966C241.2127,-678.0031 246.2375,-674.4059 250,-669.6054 309.4254,-593.7857 218.4619,-306.2975 286,-237.6054 360.8461,-161.4804 418.2436,-213.6054 525,-213.6054 525,-213.6054 525,-213.6054 837,-213.6054 909.9434,-213.6054 994.1595,-213.6054 1047.8379,-213.6054"/>
<polygon fill="#191970" stroke="#191970" points="234.1705,-677.5386 226.1226,-684.4293 236.7111,-684.0613 234.1705,-677.5386"/>
</g>
<!-- Node925 -->
<g id="node9" class="node">
<title>Node925</title>
<g id="a_node9"><a xlink:href="quickjs_8c.html#aae2d76e4aa080c7737119ef079a9b97d" target="_top" xlink:title="js_parse_logical_and_or">
<polygon fill="none" stroke="#000000" points="1193,-166.1054 1193,-185.1054 1314,-185.1054 1314,-166.1054 1193,-166.1054"/>
<text text-anchor="middle" x="1253.5" y="-173.1054" font-family="Helvetica,sans-Serif" font-size="10.00" fill="#000000">js_parse_logical_and_or</text>
</a>
</g>
</g>
<!-- Node897&#45;&gt;Node925 -->
<g id="edge80" class="edge">
<title>Node897&#45;&gt;Node925</title>
<path fill="none" stroke="#191970" d="M235.7397,-680.7227C241.2416,-678.0257 246.2563,-674.4206 250,-669.6054 315.2475,-585.6842 210.6714,-267.6094 286,-192.6054 361.4626,-117.4679 418.5094,-175.6054 525,-175.6054 525,-175.6054 525,-175.6054 970.5,-175.6054 1047.1458,-175.6054 1135.4682,-175.6054 1192.7748,-175.6054"/>
<polygon fill="#191970" stroke="#191970" points="234.2047,-677.5644 226.1587,-684.4574 236.7471,-684.0864 234.2047,-677.5644"/>
</g>
<!-- Node926 -->
<g id="node10" class="node">
<title>Node926</title>
<g id="a_node10"><a xlink:href="quickjs_8c.html#a93b69939f7af67646a177249bf2deb4d" target="_top" xlink:title="js_parse_coalesce_expr">
<polygon fill="none" stroke="#000000" points="1350,-189.1054 1350,-208.1054 1472,-208.1054 1472,-189.1054 1350,-189.1054"/>
<text text-anchor="middle" x="1411" y="-196.1054" font-family="Helvetica,sans-Serif" font-size="10.00" fill="#000000">js_parse_coalesce_expr</text>
</a>
</g>
</g>
<!-- Node897&#45;&gt;Node926 -->
<g id="edge81" class="edge">
<title>Node897&#45;&gt;Node926</title>
<path fill="none" stroke="#191970" d="M235.7652,-680.7424C241.2637,-678.0428 246.2706,-674.4317 250,-669.6054 320.5543,-578.3 203.9653,-232.7526 286,-151.6054 361.6472,-76.7764 418.5957,-137.6054 525,-137.6054 525,-137.6054 525,-137.6054 1102.5,-137.6054 1196.8785,-137.6054 1222.5346,-133.3375 1314,-156.6054 1342.989,-163.9799 1374.3872,-178.9907 1393.3741,-188.9237"/>
<polygon fill="#191970" stroke="#191970" points="234.2307,-677.584 226.1862,-684.4788 236.7745,-684.1055 234.2307,-677.584"/>
</g>
<!-- Node927 -->
<g id="node11" class="node">
<title>Node927</title>
<g id="a_node11"><a xlink:href="quickjs_8c.html#a6686f5baeecd532b043761b6c24ed431" target="_top" xlink:title="js_parse_cond_expr">
<polygon fill="none" stroke="#000000" points="1508,-213.1054 1508,-232.1054 1612,-232.1054 1612,-213.1054 1508,-213.1054"/>
<text text-anchor="middle" x="1560" y="-220.1054" font-family="Helvetica,sans-Serif" font-size="10.00" fill="#000000">js_parse_cond_expr</text>
</a>
</g>
</g>
<!-- Node897&#45;&gt;Node927 -->
<g id="edge82" class="edge">
<title>Node897&#45;&gt;Node927</title>
<path fill="none" stroke="#191970" d="M235.7855,-680.758C241.2813,-678.0563 246.282,-674.4405 250,-669.6054 325.4742,-571.4544 198.1814,-200.8858 286,-113.6054 361.4701,-38.5978 418.5957,-99.6054 525,-99.6054 525,-99.6054 525,-99.6054 1253.5,-99.6054 1375.0538,-99.6054 1505.4791,-183.9577 1546.7219,-212.9538"/>
<polygon fill="#191970" stroke="#191970" points="234.2514,-677.5996 226.2082,-684.4957 236.7964,-684.1206 234.2514,-677.5996"/>
</g>
<!-- Node928 -->
<g id="node12" class="node">
<title>Node928</title>
<g id="a_node12"><a xlink:href="quickjs_8c.html#afa1bc2743b3cf892d36544a708453736" target="_top" xlink:title="js_parse_assign_expr2">
<polygon fill="none" stroke="#ff0000" points="1648,-213.1054 1648,-232.1054 1764,-232.1054 1764,-213.1054 1648,-213.1054"/>
<text text-anchor="middle" x="1706" y="-220.1054" font-family="Helvetica,sans-Serif" font-size="10.00" fill="#000000">js_parse_assign_expr2</text>
</a>
</g>
</g>
<!-- Node897&#45;&gt;Node928 -->
<g id="edge83" class="edge">
<title>Node897&#45;&gt;Node928</title>
<path fill="none" stroke="#191970" d="M235.8032,-680.7717C241.2966,-678.0681 246.292,-674.4481 250,-669.6054 330.3952,-564.6072 192.3962,-169.0202 286,-75.6054 361.3152,-.4422 418.5957,-61.6054 525,-61.6054 525,-61.6054 525,-61.6054 1411,-61.6054 1538.1948,-61.6054 1662.6828,-178.3559 1696.8376,-213.0162"/>
<polygon fill="#191970" stroke="#191970" points="234.2696,-677.6131 226.2274,-684.5104 236.8155,-684.1337 234.2696,-677.6131"/>
</g>
<!-- Node931 -->
<g id="node13" class="node">
<title>Node931</title>
<g id="a_node13"><a xlink:href="quickjs_8c.html#a9fc8ae779f77a7886fc7cfa48cc487fb" target="_top" xlink:title="js_parse_expr2">
<polygon fill="none" stroke="#ff0000" points="1806.5,-213.1054 1806.5,-232.1054 1889.5,-232.1054 1889.5,-213.1054 1806.5,-213.1054"/>
<text text-anchor="middle" x="1848" y="-220.1054" font-family="Helvetica,sans-Serif" font-size="10.00" fill="#000000">js_parse_expr2</text>
</a>
</g>
</g>
<!-- Node897&#45;&gt;Node931 -->
<g id="edge84" class="edge">
<title>Node897&#45;&gt;Node931</title>
<path fill="none" stroke="#191970" d="M235.8189,-680.7836C241.3102,-678.0785 246.3008,-674.4549 250,-669.6054 335.3172,-557.7589 186.6099,-137.1556 286,-37.6054 361.1786,37.6944 418.5957,-23.6054 525,-23.6054 525,-23.6054 525,-23.6054 1560,-23.6054 1694.9206,-23.6054 1812.4184,-173.2562 1841.2488,-213.0072"/>
<polygon fill="#191970" stroke="#191970" points="234.2856,-677.6249 226.2443,-684.5233 236.8324,-684.1452 234.2856,-677.6249"/>
</g>
<!-- Node903 -->
<g id="node14" class="node">
<title>Node903</title>
<g id="a_node14"><a xlink:href="quickjs_8c.html#a9d844c16dcc71701436848074337d32c" target="_top" xlink:title="js_parse_statement\l_or_decl">
<polygon fill="none" stroke="#ff0000" points="1932,-812.6054 1932,-842.6054 2034,-842.6054 2034,-812.6054 1932,-812.6054"/>
<text text-anchor="start" x="1940" y="-830.6054" font-family="Helvetica,sans-Serif" font-size="10.00" fill="#000000">js_parse_statement</text>
<text text-anchor="middle" x="1983" y="-819.6054" font-family="Helvetica,sans-Serif" font-size="10.00" fill="#000000">_or_decl</text>
</a>
</g>
</g>
<!-- Node897&#45;&gt;Node903 -->
<g id="edge89" class="edge">
<title>Node897&#45;&gt;Node903</title>
<path fill="none" stroke="#191970" d="M194.5155,-708.3996C199.0418,-788.3051 220.1405,-1085.7252 286,-1146.6054 364.5733,-1219.2381 417.9987,-1175.6054 525,-1175.6054 525,-1175.6054 525,-1175.6054 1706,-1175.6054 1806.1145,-1175.6054 1832.6711,-1132.1448 1896,-1054.6054 1950.8631,-987.4313 1973.7065,-881.8283 1980.584,-842.7786"/>
<polygon fill="#191970" stroke="#191970" points="198.0012,-708.0383 193.9646,-698.2426 191.0114,-708.4175 198.0012,-708.0383"/>
</g>
<!-- Node906 -->
<g id="node15" class="node">
<title>Node906</title>
<g id="a_node15"><a xlink:href="quickjs_8c.html#acc0cac53be5317d9cab6a79afcd7da48" target="_top" xlink:title="js_parse_block">
<polygon fill="none" stroke="#000000" points="2070,-818.1054 2070,-837.1054 2152,-837.1054 2152,-818.1054 2070,-818.1054"/>
<text text-anchor="middle" x="2111" y="-825.1054" font-family="Helvetica,sans-Serif" font-size="10.00" fill="#000000">js_parse_block</text>
</a>
</g>
</g>
<!-- Node897&#45;&gt;Node906 -->
<g id="edge85" class="edge">
<title>Node897&#45;&gt;Node906</title>
<path fill="none" stroke="#191970" d="M193.9032,-708.5066C196.1212,-796.5769 209.7221,-1150.105 286,-1222.6054 363.5575,-1296.3219 417.9987,-1251.6054 525,-1251.6054 525,-1251.6054 525,-1251.6054 1848,-1251.6054 2049.8297,-1251.6054 2102.1314,-900.3704 2109.9002,-837.2578"/>
<polygon fill="#191970" stroke="#191970" points="197.4022,-708.4183 193.6728,-698.5015 190.4041,-708.5795 197.4022,-708.4183"/>
</g>
<!-- Node921 -->
<g id="node16" class="node">
<title>Node921</title>
<g id="a_node16"><a xlink:href="quickjs_8c.html#a9660cf21845352b14655d423389d6620" target="_top" xlink:title="js_parse_var">
<polygon fill="none" stroke="#ff0000" points="1812,-929.1054 1812,-948.1054 1884,-948.1054 1884,-929.1054 1812,-929.1054"/>
<text text-anchor="middle" x="1848" y="-936.1054" font-family="Helvetica,sans-Serif" font-size="10.00" fill="#000000">js_parse_var</text>
</a>
</g>
</g>
<!-- Node897&#45;&gt;Node921 -->
<g id="edge86" class="edge">
<title>Node897&#45;&gt;Node921</title>
<path fill="none" stroke="#191970" d="M194.1079,-708.3757C197.141,-792.9314 213.5262,-1122.8763 286,-1189.6054 364.5367,-1261.9167 418.2436,-1213.6054 525,-1213.6054 525,-1213.6054 525,-1213.6054 687.5,-1213.6054 1020.9972,-1213.6054 1077.5028,-1014.6054 1411,-1014.6054 1411,-1014.6054 1411,-1014.6054 1560,-1014.6054 1652.1459,-1014.6054 1678.5548,-1012.1016 1764,-977.6054 1781.8313,-970.4065 1782.6468,-961.8906 1800,-953.6054 1804.1758,-951.6116 1808.6799,-949.8005 1813.1974,-948.1819"/>
<polygon fill="#191970" stroke="#191970" points="197.604,-708.1974 193.7701,-698.3206 190.6079,-708.4325 197.604,-708.1974"/>
</g>
<!-- Node905 -->
<g id="node17" class="node">
<title>Node905</title>
<g id="a_node17"><a xlink:href="quickjs_8c.html#ac188b916dd086803591a67de7e7a85f6" target="_top" xlink:title="js_parse_for_in_of">
<polygon fill="none" stroke="#000000" points="1800,-508.1054 1800,-527.1054 1896,-527.1054 1896,-508.1054 1800,-508.1054"/>
<text text-anchor="middle" x="1848" y="-515.1054" font-family="Helvetica,sans-Serif" font-size="10.00" fill="#000000">js_parse_for_in_of</text>
</a>
</g>
</g>
<!-- Node897&#45;&gt;Node905 -->
<g id="edge88" class="edge">
<title>Node897&#45;&gt;Node905</title>
<path fill="none" stroke="#191970" d="M235.6253,-680.6324C241.1425,-677.9475 246.1919,-674.3698 250,-669.6054 347.9097,-547.1076 183.4682,-437.2613 286,-318.6054 336.9559,-259.6361 378.6621,-285.2347 456,-275.6054 516.8634,-268.0273 533.265,-267.0589 594,-275.6054 623.1046,-279.7009 1073.1086,-421.6054 1102.5,-421.6054 1102.5,-421.6054 1102.5,-421.6054 1560,-421.6054 1653.4571,-421.6054 1676.8133,-438.9498 1764,-472.6054 1789.1577,-482.3166 1816.3331,-497.9047 1832.7576,-507.9488"/>
<polygon fill="#191970" stroke="#191970" points="234.0878,-677.4749 226.035,-684.3599 236.6237,-683.9994 234.0878,-677.4749"/>
</g>
<!-- Node933 -->
<g id="node18" class="node">
<title>Node933</title>
<g id="a_node18"><a xlink:href="quickjs_8c.html#a42234753f3193f37ce45b3c0ca4c25cd" target="_top" xlink:title="js_parse_property_name">
<polygon fill="none" stroke="#000000" points="463.5,-774.1054 463.5,-793.1054 586.5,-793.1054 586.5,-774.1054 463.5,-774.1054"/>
<text text-anchor="middle" x="525" y="-781.1054" font-family="Helvetica,sans-Serif" font-size="10.00" fill="#000000">js_parse_property_name</text>
</a>
</g>
</g>
<!-- Node897&#45;&gt;Node933 -->
<g id="edge55" class="edge">
<title>Node897&#45;&gt;Node933</title>
<path fill="none" stroke="#191970" d="M235.9728,-700.777C302.7417,-719.9114 430.8897,-756.6356 491.5691,-774.0249"/>
<polygon fill="#191970" stroke="#191970" points="236.77,-697.3647 226.1927,-697.9743 234.8416,-704.0938 236.77,-697.3647"/>
</g>
<!-- Node912 -->
<g id="node19" class="node">
<title>Node912</title>
<g id="a_node19"><a xlink:href="quickjs_8c.html#aee6d0acd87f136d43f157ae1426436e6" target="_top" xlink:title="js_parse_object_literal">
<polygon fill="none" stroke="#000000" points="631,-584.1054 631,-603.1054 744,-603.1054 744,-584.1054 631,-584.1054"/>
<text text-anchor="middle" x="687.5" y="-591.1054" font-family="Helvetica,sans-Serif" font-size="10.00" fill="#000000">js_parse_object_literal</text>
</a>
</g>
</g>
<!-- Node897&#45;&gt;Node912 -->
<g id="edge69" class="edge">
<title>Node897&#45;&gt;Node912</title>
<path fill="none" stroke="#191970" d="M235.7342,-676.9799C240.7152,-674.8688 245.5888,-672.4229 250,-669.6054 269.6063,-657.0823 265.7344,-643.0307 286,-631.6054 395.4791,-569.8832 548.8251,-576.0343 630.6971,-585.2223"/>
<polygon fill="#191970" stroke="#191970" points="234.2195,-673.8112 226.1161,-680.6366 236.7072,-680.3543 234.2195,-673.8112"/>
</g>
<!-- Node902 -->
<g id="node20" class="node">
<title>Node902</title>
<g id="a_node20"><a xlink:href="quickjs_8c.html#a00eb789430243c24dab4a63ad6a79653" target="_top" xlink:title="js_parse_class">
<polygon fill="none" stroke="#ff0000" points="646.5,-1014.1054 646.5,-1033.1054 728.5,-1033.1054 728.5,-1014.1054 646.5,-1014.1054"/>
<text text-anchor="middle" x="687.5" y="-1021.1054" font-family="Helvetica,sans-Serif" font-size="10.00" fill="#000000">js_parse_class</text>
</a>
</g>
</g>
<!-- Node897&#45;&gt;Node902 -->
<g id="edge71" class="edge">
<title>Node897&#45;&gt;Node902</title>
<path fill="none" stroke="#191970" d="M195.9943,-708.5209C204.692,-774.5579 235.906,-984.5183 286,-1026.6054 397.8114,-1120.545 595.5084,-1058.7227 663.639,-1033.1645"/>
<polygon fill="#191970" stroke="#191970" points="199.4203,-707.7213 194.6719,-698.2501 192.4776,-708.6152 199.4203,-707.7213"/>
</g>
<!-- Node920 -->
<g id="node21" class="node">
<title>Node920</title>
<g id="a_node21"><a xlink:href="quickjs_8c.html#a26be546cf89c4580ba9020e8fc43a759" target="_top" xlink:title="js_parse_destructuring\l_element">
<polygon fill="none" stroke="#ff0000" points="630,-778.6054 630,-808.6054 745,-808.6054 745,-778.6054 630,-778.6054"/>
<text text-anchor="start" x="638" y="-796.6054" font-family="Helvetica,sans-Serif" font-size="10.00" fill="#000000">js_parse_destructuring</text>
<text text-anchor="middle" x="687.5" y="-785.6054" font-family="Helvetica,sans-Serif" font-size="10.00" fill="#000000">_element</text>
</a>
</g>
</g>
<!-- Node897&#45;&gt;Node920 -->
<g id="edge75" class="edge">
<title>Node897&#45;&gt;Node920</title>
<path fill="none" stroke="#191970" d="M200.2248,-707.977C212.0636,-738.6743 239.8429,-797.4844 286,-821.6054 406.2949,-884.4697 575.2009,-835.8112 649.6857,-808.6796"/>
<polygon fill="#191970" stroke="#191970" points="203.4366,-706.57 196.6981,-698.3943 196.8674,-708.9878 203.4366,-706.57"/>
</g>
<!-- Node930 -->
<g id="node22" class="node">
<title>Node930</title>
<g id="a_node22"><a xlink:href="quickjs_8c.html#a253917187cfb6b3db09d355b31edb3d5" target="_top" xlink:title="js_parse_array_literal">
<polygon fill="none" stroke="#000000" points="470.5,-432.1054 470.5,-451.1054 579.5,-451.1054 579.5,-432.1054 470.5,-432.1054"/>
<text text-anchor="middle" x="525" y="-439.1054" font-family="Helvetica,sans-Serif" font-size="10.00" fill="#000000">js_parse_array_literal</text>
</a>
</g>
</g>
<!-- Node897&#45;&gt;Node930 -->
<g id="edge72" class="edge">
<title>Node897&#45;&gt;Node930</title>
<path fill="none" stroke="#191970" d="M235.4708,-679.7627C240.8764,-677.1947 245.9339,-673.8811 250,-669.6054 290.7246,-626.7818 247.3771,-586.3337 286,-541.6054 333.4015,-486.7107 415.912,-461.2952 470.4958,-450.0016"/>
<polygon fill="#191970" stroke="#191970" points="234.1877,-676.5062 226.1585,-683.4187 236.7459,-683.0221 234.1877,-676.5062"/>
</g>
<!-- Node936 -->
<g id="node23" class="node">
<title>Node936</title>
<g id="a_node23"><a xlink:href="quickjs_8c.html#a02cbd69384985a4e904190810cf45641" target="_top" xlink:title="js_parse_expect_semi">
<polygon fill="none" stroke="#ff0000" points="468,-1128.1054 468,-1147.1054 582,-1147.1054 582,-1128.1054 468,-1128.1054"/>
<text text-anchor="middle" x="525" y="-1135.1054" font-family="Helvetica,sans-Serif" font-size="10.00" fill="#000000">js_parse_expect_semi</text>
</a>
</g>
</g>
<!-- Node897&#45;&gt;Node936 -->
<g id="edge51" class="edge">
<title>Node897&#45;&gt;Node936</title>
<path fill="none" stroke="#191970" d="M194.8164,-708.4657C200.3117,-784.8785 224.0873,-1058.3892 286,-1113.6054 339.2197,-1161.0687 427.9788,-1155.8324 481.0532,-1147.1225"/>
<polygon fill="#191970" stroke="#191970" points="198.2957,-708.046 194.1119,-698.3122 191.3125,-708.5305 198.2957,-708.046"/>
</g>
<!-- Node937 -->
<g id="node24" class="node">
<title>Node937</title>
<g id="a_node24"><a xlink:href="quickjs_8c.html#aba7eb7aae2eb61bfccb4565ee626cd18" target="_top" xlink:title="js_parse_seek_token">
<polygon fill="none" stroke="#ff0000" points="298.5,-964.1054 298.5,-983.1054 407.5,-983.1054 407.5,-964.1054 298.5,-964.1054"/>
<text text-anchor="middle" x="353" y="-971.1054" font-family="Helvetica,sans-Serif" font-size="10.00" fill="#000000">js_parse_seek_token</text>
</a>
</g>
</g>
<!-- Node897&#45;&gt;Node937 -->
<g id="edge56" class="edge">
<title>Node897&#45;&gt;Node937</title>
<path fill="none" stroke="#191970" d="M194.8508,-708.1696C199.1939,-756.0486 216.8817,-880.2535 286,-949.6054 292.2799,-955.9065 300.3271,-960.5616 308.6508,-963.9983"/>
<polygon fill="#191970" stroke="#191970" points="198.3388,-707.8789 194.0439,-698.1936 191.3616,-708.4433 198.3388,-707.8789"/>
</g>
<!-- Node938 -->
<g id="node25" class="node">
<title>Node938</title>
<g id="a_node25"><a xlink:href="quickjs_8c.html#ac00298085baf11a4a7bd600cf5de2e6d" target="_top" xlink:title="js_parse_skip_parens\l_token">
<polygon fill="none" stroke="#ff0000" points="469.5,-926.6054 469.5,-956.6054 580.5,-956.6054 580.5,-926.6054 469.5,-926.6054"/>
<text text-anchor="start" x="477.5" y="-944.6054" font-family="Helvetica,sans-Serif" font-size="10.00" fill="#000000">js_parse_skip_parens</text>
<text text-anchor="middle" x="525" y="-933.6054" font-family="Helvetica,sans-Serif" font-size="10.00" fill="#000000">_token</text>
</a>
</g>
</g>
<!-- Node897&#45;&gt;Node938 -->
<g id="edge68" class="edge">
<title>Node897&#45;&gt;Node938</title>
<path fill="none" stroke="#191970" d="M195.2301,-708.2931C200.2713,-752.6818 219.1479,-860.6538 286,-911.6054 338.3843,-951.5303 416.7761,-953.6842 469.3457,-949.4311"/>
<polygon fill="#191970" stroke="#191970" points="198.7002,-707.8203 194.2056,-698.2261 191.7361,-708.5291 198.7002,-707.8203"/>
</g>
<!-- Node909 -->
<g id="node26" class="node">
<title>Node909</title>
<g id="a_node26"><a xlink:href="quickjs_8c.html#adf95ddf430ef93fd9efea1cc2f8a2fbe" target="_top" xlink:title="js_parse_class_default_ctor">
<polygon fill="none" stroke="#000000" points="456,-1014.1054 456,-1033.1054 594,-1033.1054 594,-1014.1054 456,-1014.1054"/>
<text text-anchor="middle" x="525" y="-1021.1054" font-family="Helvetica,sans-Serif" font-size="10.00" fill="#000000">js_parse_class_default_ctor</text>
</a>
</g>
</g>
<!-- Node897&#45;&gt;Node909 -->
<g id="edge70" class="edge">
<title>Node897&#45;&gt;Node909</title>
<path fill="none" stroke="#191970" d="M196.6233,-708.0464C206.8232,-769.0075 241.0988,-954.6161 286,-992.6054 333.0346,-1032.3996 405.0341,-1036.6713 457.7177,-1033.1193"/>
<polygon fill="#191970" stroke="#191970" points="200.0769,-707.478 195.0018,-698.1779 193.1695,-708.613 200.0769,-707.478"/>
</g>
<!-- Node939 -->
<g id="node27" class="node">
<title>Node939</title>
<g id="a_node27"><a xlink:href="quickjs_8c.html#a08f5927b79691c477c726fc5d309cfef" target="_top" xlink:title="is_let">
<polygon fill="none" stroke="#000000" points="817,-374.1054 817,-393.1054 857,-393.1054 857,-374.1054 817,-374.1054"/>
<text text-anchor="middle" x="837" y="-381.1054" font-family="Helvetica,sans-Serif" font-size="10.00" fill="#000000">is_let</text>
</a>
</g>
</g>
<!-- Node897&#45;&gt;Node939 -->
<g id="edge87" class="edge">
<title>Node897&#45;&gt;Node939</title>
<path fill="none" stroke="#191970" d="M235.7608,-680.509C241.2139,-677.8389 246.2085,-674.2982 250,-669.6054 294.6942,-614.2863 232.9589,-398.9806 286,-351.6054 365.9514,-280.1943 727.0623,-358.0585 816.7764,-378.8099"/>
<polygon fill="#191970" stroke="#191970" points="234.3113,-677.3179 226.282,-684.2302 236.8694,-683.8338 234.3113,-677.3179"/>
</g>
<!-- Node941 -->
<g id="node28" class="node">
<title>Node941</title>
<g id="a_node28"><a xlink:href="quickjs_8c.html#ab10609a91c359ea5d3051f7bb646af83" target="_top" xlink:title="js_parse_destructuring_var">
<polygon fill="none" stroke="#000000" points="286,-793.1054 286,-812.1054 420,-812.1054 420,-793.1054 286,-793.1054"/>
<text text-anchor="middle" x="353" y="-800.1054" font-family="Helvetica,sans-Serif" font-size="10.00" fill="#000000">js_parse_destructuring_var</text>
</a>
</g>
</g>
<!-- Node897&#45;&gt;Node941 -->
<g id="edge73" class="edge">
<title>Node897&#45;&gt;Node941</title>
<path fill="none" stroke="#191970" d="M210.0673,-705.5314C227.7749,-723.0177 257.2066,-750.3917 286,-769.6054 299.8055,-778.8176 316.5555,-787.0676 329.8541,-793.0146"/>
<polygon fill="#191970" stroke="#191970" points="212.3445,-702.8587 202.8008,-698.2578 207.3924,-707.806 212.3445,-702.8587"/>
</g>
<!-- Node898&#45;&gt;Node899 -->
<g id="edge3" class="edge">
<title>Node898&#45;&gt;Node899</title>
<path fill="none" stroke="#191970" d="M391.6001,-663.3972C423.2779,-673.8951 467.4337,-688.5282 496.1171,-698.0337"/>
<polygon fill="#191970" stroke="#191970" points="392.3823,-659.9693 381.7889,-660.1459 390.1803,-666.614 392.3823,-659.9693"/>
</g>
<!-- Node898&#45;&gt;Node900 -->
<g id="edge46" class="edge">
<title>Node898&#45;&gt;Node900</title>
<path fill="none" stroke="#191970" d="M407.2293,-646.4597C499.7439,-639.3873 687.1438,-625.0613 780.9123,-617.8931"/>
<polygon fill="#191970" stroke="#191970" points="406.9389,-642.9716 397.2348,-647.2238 407.4726,-649.9513 406.9389,-642.9716"/>
</g>
<!-- Node898&#45;&gt;Node927 -->
<g id="edge47" class="edge">
<title>Node898&#45;&gt;Node927</title>
<path fill="none" stroke="#191970" d="M361.1877,-631.7528C375.7183,-600.4866 408.9739,-537.9531 456,-503.6054 507.8775,-465.7142 534.5376,-484.9207 594,-460.6054 767.6746,-389.5863 782.8659,-269.6054 970.5,-269.6054 970.5,-269.6054 970.5,-269.6054 1253.5,-269.6054 1351.4775,-269.6054 1465.0582,-245.8501 1522.5353,-232.1165"/>
<polygon fill="#191970" stroke="#191970" points="357.9057,-630.5168 356.9849,-641.0716 364.2867,-633.3947 357.9057,-630.5168"/>
</g>
<!-- Node898&#45;&gt;Node903 -->
<g id="edge50" class="edge">
<title>Node898&#45;&gt;Node903</title>
<path fill="none" stroke="#191970" d="M355.6843,-630.9615C362.9111,-586.1724 387.1236,-476.2312 456,-422.6054 638.4377,-280.5628 739.2867,-345.6054 970.5,-345.6054 970.5,-345.6054 970.5,-345.6054 1706,-345.6054 1796.6231,-345.6054 1837.2909,-350.5707 1896,-419.6054 1948.4333,-481.2605 1975.6255,-746.242 1981.6847,-812.5288"/>
<polygon fill="#191970" stroke="#191970" points="352.2201,-630.4619 354.196,-640.8709 359.1425,-631.5016 352.2201,-630.4619"/>
</g>
<!-- Node898&#45;&gt;Node906 -->
<g id="edge48" class="edge">
<title>Node898&#45;&gt;Node906</title>
<path fill="none" stroke="#191970" d="M406.9294,-658.1218C576.3458,-681.0593 1113.1739,-748.6054 1560,-748.6054 1560,-748.6054 1560,-748.6054 1848,-748.6054 1943.5887,-748.6054 2050.7727,-797.0645 2092.7543,-818.0761"/>
<polygon fill="#191970" stroke="#191970" points="407.3909,-654.6524 397.0105,-656.7728 406.4476,-661.5885 407.3909,-654.6524"/>
</g>
<!-- Node898&#45;&gt;Node905 -->
<g id="edge49" class="edge">
<title>Node898&#45;&gt;Node905</title>
<path fill="none" stroke="#191970" d="M374.613,-635.2857C426.1385,-600.3145 561.3358,-517.6054 687.5,-517.6054 687.5,-517.6054 687.5,-517.6054 1560,-517.6054 1644.375,-517.6054 1742.6546,-517.6054 1799.845,-517.6054"/>
<polygon fill="#191970" stroke="#191970" points="372.5077,-632.4858 366.257,-641.0403 376.4781,-638.2509 372.5077,-632.4858"/>
</g>
<!-- Node898&#45;&gt;Node933 -->
<g id="edge29" class="edge">
<title>Node898&#45;&gt;Node933</title>
<path fill="none" stroke="#191970" d="M365.4803,-668.408C383.0923,-692.3104 417.4261,-734.6507 456,-759.6054 465.3711,-765.6678 476.4529,-770.3983 486.962,-773.9961"/>
<polygon fill="#191970" stroke="#191970" points="368.265,-666.2858 359.5751,-660.2247 362.5886,-670.3819 368.265,-666.2858"/>
</g>
<!-- Node898&#45;&gt;Node912 -->
<g id="edge41" class="edge">
<title>Node898&#45;&gt;Node912</title>
<path fill="none" stroke="#191970" d="M387.5071,-637.5754C407.2858,-630.6087 432.7321,-622.484 456,-617.6054 514.9242,-605.2506 583.68,-599.1473 630.8616,-596.2037"/>
<polygon fill="#191970" stroke="#191970" points="386.2349,-634.3133 378.0054,-640.9861 388.5999,-640.9017 386.2349,-634.3133"/>
</g>
<!-- Node898&#45;&gt;Node902 -->
<g id="edge42" class="edge">
<title>Node898&#45;&gt;Node902</title>
<path fill="none" stroke="#191970" d="M364.2954,-668.9792C379.1993,-694.0107 405.2624,-740.6414 420,-783.6054 446.8956,-862.0129 398.7852,-906.6256 456,-966.6054 462.6335,-973.5594 581.5196,-1000.431 646.2681,-1014.6552"/>
<polygon fill="#191970" stroke="#191970" points="367.1672,-666.9639 359.0027,-660.2118 361.1745,-670.5816 367.1672,-666.9639"/>
</g>
<!-- Node898&#45;&gt;Node920 -->
<g id="edge45" class="edge">
<title>Node898&#45;&gt;Node920</title>
<path fill="none" stroke="#191970" d="M370.7789,-666.9446C390.3176,-684.0912 423.2926,-710.7172 456,-726.6054 513.2221,-754.4019 532.9452,-746.7358 594,-764.6054 609.0063,-768.9974 625.3024,-773.978 640.0232,-778.557"/>
<polygon fill="#191970" stroke="#191970" points="373.0573,-664.2868 363.2677,-660.2353 368.3941,-669.5074 373.0573,-664.2868"/>
</g>
<!-- Node898&#45;&gt;Node930 -->
<g id="edge43" class="edge">
<title>Node898&#45;&gt;Node930</title>
<path fill="none" stroke="#191970" d="M358.615,-631.3014C370.4451,-593.9514 401.4365,-511.4479 456,-465.6054 463.4773,-459.3232 472.6989,-454.6489 481.939,-451.1836"/>
<polygon fill="#191970" stroke="#191970" points="355.2377,-630.3773 355.6676,-640.9634 361.9331,-632.4198 355.2377,-630.3773"/>
</g>
<!-- Node899&#45;&gt;Node900 -->
<g id="edge4" class="edge">
<title>Node899&#45;&gt;Node900</title>
<path fill="none" stroke="#191970" d="M571.0968,-695.4791C615.775,-683.5228 685.3487,-664.3663 745,-645.6054 767.4232,-638.553 792.6192,-629.725 810.9662,-623.1287"/>
<polygon fill="#191970" stroke="#191970" points="570.1621,-692.106 561.402,-698.0651 571.9662,-698.8695 570.1621,-692.106"/>
</g>
<!-- Node900&#45;&gt;Node900 -->
<g id="edge5" class="edge">
<title>Node900&#45;&gt;Node900</title>
<path fill="none" stroke="#191970" d="M812.4465,-632.6345C813.7858,-637.7333 821.9703,-641.6054 837,-641.6054 860.4609,-641.6054 867.2426,-632.1706 857.345,-623.3624"/>
<polygon fill="#191970" stroke="#191970" points="815.709,-633.9149 816.655,-623.3624 809.3348,-631.0218 815.709,-633.9149"/>
</g>
<!-- Node900&#45;&gt;Node922 -->
<g id="edge6" class="edge">
<title>Node900&#45;&gt;Node922</title>
<path fill="none" stroke="#191970" d="M900.1491,-602.2527C909.8156,-600.5149 919.5831,-598.759 928.6375,-597.1312"/>
<polygon fill="#191970" stroke="#191970" points="899.3692,-598.8367 890.1463,-604.051 900.6079,-605.7263 899.3692,-598.8367"/>
</g>
<!-- Node922&#45;&gt;Node922 -->
<g id="edge9" class="edge">
<title>Node922&#45;&gt;Node922</title>
<path fill="none" stroke="#191970" d="M945.9465,-608.6345C947.2858,-613.7333 955.4703,-617.6054 970.5,-617.6054 993.9609,-617.6054 1000.7426,-608.1706 990.845,-599.3624"/>
<polygon fill="#191970" stroke="#191970" points="949.209,-609.9149 950.155,-599.3624 942.8348,-607.0218 949.209,-609.9149"/>
</g>
<!-- Node922&#45;&gt;Node923 -->
<g id="edge7" class="edge">
<title>Node922&#45;&gt;Node923</title>
<path fill="none" stroke="#191970" d="M1022.4212,-582.9938C1034.7516,-582.748 1047.7696,-582.8296 1059.6434,-583.2386"/>
<polygon fill="#191970" stroke="#191970" points="1022.164,-579.4995 1012.2656,-583.2772 1022.3594,-586.4967 1022.164,-579.4995"/>
</g>
<!-- Node922&#45;&gt;Node924 -->
<g id="edge10" class="edge">
<title>Node922&#45;&gt;Node924</title>
<path fill="none" stroke="#191970" d="M977.2332,-570.4259C1001.1677,-502.2489 1081.6373,-273.0326 1099.1269,-223.2137"/>
<polygon fill="#191970" stroke="#191970" points="973.9057,-569.3382 973.8956,-579.9331 980.5105,-571.657 973.9057,-569.3382"/>
</g>
<!-- Node923&#45;&gt;Node922 -->
<g id="edge8" class="edge">
<title>Node923&#45;&gt;Node922</title>
<path fill="none" stroke="#191970" d="M1049.4405,-596.2387C1037.0696,-596.4644 1024.0673,-596.3626 1012.2656,-595.9335"/>
<polygon fill="#191970" stroke="#191970" points="1049.7382,-599.7322 1059.6434,-595.9721 1049.5553,-592.7346 1049.7382,-599.7322"/>
</g>
<!-- Node924&#45;&gt;Node924 -->
<g id="edge11" class="edge">
<title>Node924&#45;&gt;Node924</title>
<path fill="none" stroke="#191970" d="M1077.9465,-232.6345C1079.2858,-237.7333 1087.4703,-241.6054 1102.5,-241.6054 1125.9609,-241.6054 1132.7426,-232.1706 1122.845,-223.3624"/>
<polygon fill="#191970" stroke="#191970" points="1081.209,-233.9149 1082.155,-223.3624 1074.8348,-231.0218 1081.209,-233.9149"/>
</g>
<!-- Node924&#45;&gt;Node925 -->
<g id="edge12" class="edge">
<title>Node924&#45;&gt;Node925</title>
<path fill="none" stroke="#191970" d="M1150.3431,-201.5654C1171.4386,-196.2566 1195.8766,-190.1066 1215.6703,-185.1254"/>
<polygon fill="#191970" stroke="#191970" points="1149.4471,-198.1816 1140.6037,-204.0164 1151.1555,-204.97 1149.4471,-198.1816"/>
</g>
<!-- Node924&#45;&gt;Node926 -->
<g id="edge28" class="edge">
<title>Node924&#45;&gt;Node926</title>
<path fill="none" stroke="#191970" d="M1167.4297,-215.6209C1209.3203,-216.3481 1264.9476,-216.2436 1314,-212.6054 1327.1503,-211.63 1341.2284,-209.9621 1354.4673,-208.1104"/>
<polygon fill="#191970" stroke="#191970" points="1167.4253,-212.1202 1157.3593,-215.4256 1167.2895,-219.1189 1167.4253,-212.1202"/>
</g>
<!-- Node925&#45;&gt;Node925 -->
<g id="edge13" class="edge">
<title>Node925&#45;&gt;Node925</title>
<path fill="none" stroke="#191970" d="M1225.5009,-194.2593C1226.6712,-199.5422 1236.0043,-203.6054 1253.5,-203.6054 1280.1602,-203.6054 1287.8666,-194.1706 1276.6194,-185.3624"/>
<polygon fill="#191970" stroke="#191970" points="1228.6403,-195.8134 1230.3806,-185.3624 1222.5029,-192.447 1228.6403,-195.8134"/>
</g>
<!-- Node925&#45;&gt;Node926 -->
<g id="edge14" class="edge">
<title>Node925&#45;&gt;Node926</title>
<path fill="none" stroke="#191970" d="M1324.5632,-185.9828C1332.9698,-187.2105 1341.4944,-188.4553 1349.7488,-189.6607"/>
<polygon fill="#191970" stroke="#191970" points="1324.7944,-182.4796 1314.3936,-184.4978 1323.7829,-189.4061 1324.7944,-182.4796"/>
</g>
<!-- Node926&#45;&gt;Node927 -->
<g id="edge15" class="edge">
<title>Node926&#45;&gt;Node927</title>
<path fill="none" stroke="#191970" d="M1480.2427,-209.7585C1489.4537,-211.2422 1498.7724,-212.7432 1507.6319,-214.1702"/>
<polygon fill="#191970" stroke="#191970" points="1480.7462,-206.2946 1470.3169,-208.1598 1479.633,-213.2055 1480.7462,-206.2946"/>
</g>
<!-- Node927&#45;&gt;Node928 -->
<g id="edge16" class="edge">
<title>Node927&#45;&gt;Node928</title>
<path fill="none" stroke="#191970" d="M1622.4591,-215.9183C1630.8937,-215.8169 1639.5201,-215.838 1647.875,-215.9815"/>
<polygon fill="#191970" stroke="#191970" points="1622.2318,-212.4218 1612.297,-216.1027 1622.3588,-219.4206 1622.2318,-212.4218"/>
</g>
<!-- Node928&#45;&gt;Node927 -->
<g id="edge17" class="edge">
<title>Node928&#45;&gt;Node927</title>
<path fill="none" stroke="#191970" d="M1637.8605,-229.342C1629.2699,-229.3892 1620.5892,-229.3112 1612.297,-229.1081"/>
<polygon fill="#191970" stroke="#191970" points="1637.9151,-232.8418 1647.875,-229.2292 1637.8361,-225.8422 1637.9151,-232.8418"/>
</g>
<!-- Node928&#45;&gt;Node928 -->
<g id="edge18" class="edge">
<title>Node928&#45;&gt;Node928</title>
<path fill="none" stroke="#191970" d="M1679.4941,-241.2593C1680.6021,-246.5422 1689.4374,-250.6054 1706,-250.6054 1731.2383,-250.6054 1738.5337,-241.1706 1727.8863,-232.3624"/>
<polygon fill="#191970" stroke="#191970" points="1682.6117,-242.8503 1684.1137,-232.3624 1676.3992,-239.6245 1682.6117,-242.8503"/>
</g>
<!-- Node928&#45;&gt;Node931 -->
<g id="edge19" class="edge">
<title>Node928&#45;&gt;Node931</title>
<path fill="none" stroke="#191970" d="M1774.4958,-222.6054C1785.3286,-222.6054 1796.2392,-222.6054 1806.2172,-222.6054"/>
<polygon fill="#191970" stroke="#191970" points="1774.1666,-219.1055 1764.1666,-222.6054 1774.1665,-226.1055 1774.1666,-219.1055"/>
</g>
<!-- Node928&#45;&gt;Node921 -->
<g id="edge24" class="edge">
<title>Node928&#45;&gt;Node921</title>
<path fill="none" stroke="#191970" d="M1709.8755,-242.1466C1730.8961,-348.138 1830.8455,-852.1081 1846.0572,-928.809"/>
<polygon fill="#191970" stroke="#191970" points="1713.2785,-241.3136 1707.9,-232.1855 1706.4123,-242.6754 1713.2785,-241.3136"/>
</g>
<!-- Node928&#45;&gt;Node905 -->
<g id="edge26" class="edge">
<title>Node928&#45;&gt;Node905</title>
<path fill="none" stroke="#191970" d="M1715.204,-241.7263C1742.6495,-298.7434 1823.2646,-466.2184 1843.4013,-508.0517"/>
<polygon fill="#191970" stroke="#191970" points="1718.2156,-239.913 1710.7246,-232.4205 1711.9082,-242.9491 1718.2156,-239.913"/>
</g>
<!-- Node931&#45;&gt;Node903 -->
<g id="edge20" class="edge">
<title>Node931&#45;&gt;Node903</title>
<path fill="none" stroke="#191970" d="M1857.8153,-241.1332C1868.6911,-262.4103 1886.0093,-298.6348 1896,-331.6054 1951.9042,-516.095 1976.0488,-750.7479 1981.6701,-812.2797"/>
<polygon fill="#191970" stroke="#191970" points="1860.9022,-239.483 1853.1875,-232.2211 1854.6898,-242.7089 1860.9022,-239.483"/>
</g>
<!-- Node903&#45;&gt;Node903 -->
<g id="edge23" class="edge">
<title>Node903&#45;&gt;Node903</title>
<path fill="none" stroke="#191970" d="M1960.2559,-853.0633C1963.0788,-857.7843 1970.6602,-861.1054 1983,-861.1054 2003.25,-861.1054 2010.6855,-852.1619 2005.3066,-842.7644"/>
<polygon fill="#191970" stroke="#191970" points="1963.7658,-852.9039 1960.6934,-842.7644 1956.7721,-852.6068 1963.7658,-852.9039"/>
</g>
<!-- Node903&#45;&gt;Node906 -->
<g id="edge21" class="edge">
<title>Node903&#45;&gt;Node906</title>
<path fill="none" stroke="#191970" d="M2044.4061,-820.8603C2053.0508,-820.8274 2061.7586,-820.959 2069.8974,-821.255"/>
<polygon fill="#191970" stroke="#191970" points="2044.2847,-817.3613 2034.325,-820.9744 2044.364,-824.3609 2044.2847,-817.3613"/>
</g>
<!-- Node906&#45;&gt;Node903 -->
<g id="edge22" class="edge">
<title>Node906&#45;&gt;Node903</title>
<path fill="none" stroke="#191970" d="M2059.8428,-834.2331C2051.4409,-834.395 2042.731,-834.3961 2034.325,-834.2363"/>
<polygon fill="#191970" stroke="#191970" points="2059.9978,-837.7302 2069.8974,-833.9557 2059.8047,-830.7329 2059.9978,-837.7302"/>
</g>
<!-- Node921&#45;&gt;Node903 -->
<g id="edge25" class="edge">
<title>Node921&#45;&gt;Node903</title>
<path fill="none" stroke="#191970" d="M1868.0207,-922.1439C1894.0527,-900.7398 1939.1716,-863.642 1964.4567,-842.852"/>
<polygon fill="#191970" stroke="#191970" points="1865.4817,-919.7003 1859.9803,-928.7549 1869.9275,-925.1073 1865.4817,-919.7003"/>
</g>
<!-- Node905&#45;&gt;Node903 -->
<g id="edge27" class="edge">
<title>Node905&#45;&gt;Node903</title>
<path fill="none" stroke="#191970" d="M1856.2013,-536.4379C1880.8314,-592.9959 1953.8358,-760.6358 1976.3277,-812.2837"/>
<polygon fill="#191970" stroke="#191970" points="1859.39,-534.9939 1852.1883,-527.223 1852.9721,-537.7888 1859.39,-534.9939"/>
</g>
<!-- Node933&#45;&gt;Node912 -->
<g id="edge30" class="edge">
<title>Node933&#45;&gt;Node912</title>
<path fill="none" stroke="#191970" d="M546.8692,-767.954C561.1239,-757.1926 579.6692,-742.0954 594,-726.6054 632.7192,-684.7543 668.5496,-626.141 681.9427,-603.2757"/>
<polygon fill="#191970" stroke="#191970" points="544.5781,-765.2954 538.6242,-774.059 548.7437,-770.9211 544.5781,-765.2954"/>
</g>
<!-- Node933&#45;&gt;Node902 -->
<g id="edge32" class="edge">
<title>Node933&#45;&gt;Node902</title>
<path fill="none" stroke="#191970" d="M537.2885,-801.7545C569.6809,-849.5955 656.5836,-977.9442 681.0248,-1014.042"/>
<polygon fill="#191970" stroke="#191970" points="540.0762,-799.6291 531.5715,-793.3109 534.2799,-803.5537 540.0762,-799.6291"/>
</g>
<!-- Node933&#45;&gt;Node920 -->
<g id="edge35" class="edge">
<title>Node933&#45;&gt;Node920</title>
<path fill="none" stroke="#191970" d="M596.9112,-788.0307C607.9111,-788.7076 619.1423,-789.3987 629.7841,-790.0536"/>
<polygon fill="#191970" stroke="#191970" points="597.094,-784.5354 586.8978,-787.4145 596.664,-791.5222 597.094,-784.5354"/>
</g>
<!-- Node912&#45;&gt;Node900 -->
<g id="edge31" class="edge">
<title>Node912&#45;&gt;Node900</title>
<path fill="none" stroke="#191970" d="M754.0462,-602.5079C763.0117,-603.7073 772.1365,-604.928 780.8964,-606.0999"/>
<polygon fill="#191970" stroke="#191970" points="754.3954,-599.0235 744.0195,-601.1665 753.4671,-605.9617 754.3954,-599.0235"/>
</g>
<!-- Node902&#45;&gt;Node900 -->
<g id="edge33" class="edge">
<title>Node902&#45;&gt;Node900</title>
<path fill="none" stroke="#191970" d="M695.124,-1004.388C706.3106,-976.0714 727.7174,-921.428 745,-874.6054 781.1016,-776.7974 822.1037,-657.2705 833.7586,-623.1221"/>
<polygon fill="#191970" stroke="#191970" points="691.7929,-1003.2941 691.367,-1013.8804 698.3016,-1005.8703 691.7929,-1003.2941"/>
</g>
<!-- Node902&#45;&gt;Node903 -->
<g id="edge34" class="edge">
<title>Node902&#45;&gt;Node903</title>
<path fill="none" stroke="#191970" d="M738.8899,-1027.0812C857.3353,-1034.7823 1158.712,-1052.6054 1411,-1052.6054 1411,-1052.6054 1411,-1052.6054 1706,-1052.6054 1747.3556,-1052.6054 1863.6808,-986.9534 1896,-957.6054 1933.7973,-923.2828 1962.9995,-869.2616 1975.8463,-842.9846"/>
<polygon fill="#191970" stroke="#191970" points="738.879,-1023.5731 728.6718,-1026.4124 738.4218,-1030.5581 738.879,-1023.5731"/>
</g>
<!-- Node920&#45;&gt;Node900 -->
<g id="edge37" class="edge">
<title>Node920&#45;&gt;Node900</title>
<path fill="none" stroke="#191970" d="M733.4903,-773.059C737.6353,-770.2155 741.5592,-767.0664 745,-763.6054 769.6648,-738.7951 762.9273,-723.56 781,-693.6054 796.9397,-667.186 818.5194,-637.8971 829.6632,-623.172"/>
<polygon fill="#191970" stroke="#191970" points="731.4147,-770.2275 724.7561,-778.4685 735.1005,-776.1786 731.4147,-770.2275"/>
</g>
<!-- Node920&#45;&gt;Node903 -->
<g id="edge40" class="edge">
<title>Node920&#45;&gt;Node903</title>
<path fill="none" stroke="#191970" d="M755.2385,-790.9892C812.5622,-789.0009 896.8983,-786.6054 970.5,-786.6054 970.5,-786.6054 970.5,-786.6054 1706,-786.6054 1785.4842,-786.6054 1876.4286,-803.3293 1931.7728,-815.415"/>
<polygon fill="#191970" stroke="#191970" points="755.084,-787.4924 745.2134,-791.3423 755.3304,-794.488 755.084,-787.4924"/>
</g>
<!-- Node920&#45;&gt;Node921 -->
<g id="edge38" class="edge">
<title>Node920&#45;&gt;Node921</title>
<path fill="none" stroke="#191970" d="M720.8547,-813.9424C789.5956,-853.8579 953.1323,-938.6054 1102.5,-938.6054 1102.5,-938.6054 1102.5,-938.6054 1560,-938.6054 1650.5,-938.6054 1756.9966,-938.6054 1811.6292,-938.6054"/>
<polygon fill="#191970" stroke="#191970" points="722.5746,-810.8935 712.1789,-808.8488 719.0305,-816.9301 722.5746,-810.8935"/>
</g>
<!-- Node920&#45;&gt;Node905 -->
<g id="edge39" class="edge">
<title>Node920&#45;&gt;Node905</title>
<path fill="none" stroke="#191970" d="M726.5357,-774.1258C798.8179,-739.9098 959.2114,-672.6054 1102.5,-672.6054 1102.5,-672.6054 1102.5,-672.6054 1560,-672.6054 1683.2157,-672.6054 1804.4764,-561.2346 1838.5633,-527.3013"/>
<polygon fill="#191970" stroke="#191970" points="724.8517,-771.0515 717.3421,-778.5253 727.8733,-777.3658 724.8517,-771.0515"/>
</g>
<!-- Node920&#45;&gt;Node920 -->
<g id="edge36" class="edge">
<title>Node920&#45;&gt;Node920</title>
<path fill="none" stroke="#191970" d="M661.2022,-819.0633C664.4661,-823.7843 673.2321,-827.1054 687.5,-827.1054 710.9141,-827.1054 719.5114,-818.1619 713.2921,-808.7644"/>
<polygon fill="#191970" stroke="#191970" points="664.7132,-818.924 661.7079,-808.7644 657.7216,-818.5806 664.7132,-818.924"/>
</g>
<!-- Node930&#45;&gt;Node900 -->
<g id="edge44" class="edge">
<title>Node930&#45;&gt;Node900</title>
<path fill="none" stroke="#191970" d="M551.4902,-456.209C613.6523,-490.4778 767.5437,-575.3154 819.5254,-603.9719"/>
<polygon fill="#191970" stroke="#191970" points="553.1156,-453.1084 542.6684,-451.3456 549.7361,-459.2386 553.1156,-453.1084"/>
</g>
<!-- Node936&#45;&gt;Node903 -->
<g id="edge53" class="edge">
<title>Node936&#45;&gt;Node903</title>
<path fill="none" stroke="#191970" d="M583.2042,-1126.2384C645.6796,-1115.0425 747.965,-1099.6054 837,-1099.6054 837,-1099.6054 837,-1099.6054 1706,-1099.6054 1801.2201,-1099.6054 1829.1554,-1068.4188 1896,-1000.6054 1942.7288,-953.1993 1969.2179,-875.6349 1978.8221,-842.9219"/>
<polygon fill="#191970" stroke="#191970" points="582.3625,-1122.8339 573.1494,-1128.0654 583.6141,-1129.7212 582.3625,-1122.8339"/>
</g>
<!-- Node936&#45;&gt;Node902 -->
<g id="edge52" class="edge">
<title>Node936&#45;&gt;Node902</title>
<path fill="none" stroke="#191970" d="M546.9089,-1122.2354C580.895,-1098.3928 645.3471,-1053.1773 673.619,-1033.3434"/>
<polygon fill="#191970" stroke="#191970" points="544.7515,-1119.4735 538.5752,-1128.0819 548.7717,-1125.204 544.7515,-1119.4735"/>
</g>
<!-- Node937&#45;&gt;Node938 -->
<g id="edge57" class="edge">
<title>Node937&#45;&gt;Node938</title>
<path fill="none" stroke="#191970" d="M414.2092,-962.2176C432.1525,-958.8793 451.6702,-955.2481 469.254,-951.9767"/>
<polygon fill="#191970" stroke="#191970" points="413.3311,-958.8208 404.14,-964.0909 414.6115,-965.7027 413.3311,-958.8208"/>
</g>
<!-- Node937&#45;&gt;Node909 -->
<g id="edge63" class="edge">
<title>Node937&#45;&gt;Node909</title>
<path fill="none" stroke="#191970" d="M395.4773,-985.9534C425.3036,-994.6239 464.6141,-1006.0513 492.0727,-1014.0335"/>
<polygon fill="#191970" stroke="#191970" points="396.3363,-982.5583 385.7567,-983.1277 394.3822,-989.28 396.3363,-982.5583"/>
</g>
<!-- Node937&#45;&gt;Node939 -->
<g id="edge65" class="edge">
<title>Node937&#45;&gt;Node939</title>
<path fill="none" stroke="#191970" d="M378.4051,-958.8984C424.3558,-931.6082 523.0821,-869.7652 594,-802.6054 672.3187,-728.437 690.772,-705.8475 745,-612.6054 791.3113,-532.9756 824.7251,-425.5766 834.2401,-393.2179"/>
<polygon fill="#191970" stroke="#191970" points="376.5238,-955.9445 369.6858,-964.0372 380.078,-961.9751 376.5238,-955.9445"/>
</g>
<!-- Node938&#45;&gt;Node900 -->
<g id="edge59" class="edge">
<title>Node938&#45;&gt;Node900</title>
<path fill="none" stroke="#191970" d="M572.4538,-922.4479C579.7854,-919.0681 587.1811,-915.4067 594,-911.6054 611.0145,-902.1204 612.9855,-896.0904 630,-886.6054 678.6799,-859.4679 705.9638,-876.3841 745,-836.6054 808.3608,-772.0392 830.2964,-657.6716 835.6043,-623.508"/>
<polygon fill="#191970" stroke="#191970" points="570.9471,-919.2876 563.2496,-926.5677 573.807,-925.6768 570.9471,-919.2876"/>
</g>
<!-- Node938&#45;&gt;Node903 -->
<g id="edge62" class="edge">
<title>Node938&#45;&gt;Node903</title>
<path fill="none" stroke="#191970" d="M587.2852,-924.0368C601.257,-920.5307 616.069,-917.1498 630,-914.6054 837.8299,-876.6469 891.2321,-862.6054 1102.5,-862.6054 1102.5,-862.6054 1102.5,-862.6054 1706,-862.6054 1785.374,-862.6054 1876.5396,-848.2851 1931.9361,-837.9645"/>
<polygon fill="#191970" stroke="#191970" points="586.1017,-920.727 577.2847,-926.6017 587.8407,-927.5075 586.1017,-920.727"/>
</g>
<!-- Node938&#45;&gt;Node921 -->
<g id="edge60" class="edge">
<title>Node938&#45;&gt;Node921</title>
<path fill="none" stroke="#191970" d="M590.7719,-953.3041C653.7494,-963.4795 751.5489,-976.6054 837,-976.6054 837,-976.6054 837,-976.6054 1560,-976.6054 1651.2844,-976.6054 1757.4562,-957.6094 1811.8312,-946.479"/>
<polygon fill="#191970" stroke="#191970" points="591.0203,-949.7982 580.5859,-951.635 589.8882,-956.7061 591.0203,-949.7982"/>
</g>
<!-- Node938&#45;&gt;Node905 -->
<g id="edge61" class="edge">
<title>Node938&#45;&gt;Node905</title>
<path fill="none" stroke="#191970" d="M590.9059,-935.8637C634.8017,-931.465 693.6369,-924.4641 745,-914.6054 1136.292,-839.5002 1229.5817,-798.4377 1612,-686.6054 1680.1258,-666.683 1706.8972,-679.7634 1764,-637.6054 1805.3267,-607.0946 1833.7347,-550.0193 1843.8806,-527.2982"/>
<polygon fill="#191970" stroke="#191970" points="590.5403,-932.3827 580.9307,-936.8444 591.2252,-939.3491 590.5403,-932.3827"/>
</g>
<!-- Node938&#45;&gt;Node920 -->
<g id="edge58" class="edge">
<title>Node938&#45;&gt;Node920</title>
<path fill="none" stroke="#191970" d="M580.353,-921.6013C585.245,-918.6593 589.8913,-915.3387 594,-911.6054 618.4411,-889.3973 609.5978,-872.573 630,-846.6054 641.1554,-832.4069 656.2396,-818.6561 668.1594,-808.7202"/>
<polygon fill="#191970" stroke="#191970" points="578.461,-918.646 571.345,-926.4954 581.8028,-924.7968 578.461,-918.646"/>
</g>
<!-- Node909&#45;&gt;Node902 -->
<g id="edge64" class="edge">
<title>Node909&#45;&gt;Node902</title>
<path fill="none" stroke="#191970" d="M604.7587,-1023.6054C619.0536,-1023.6054 633.4101,-1023.6054 646.0575,-1023.6054"/>
<polygon fill="#191970" stroke="#191970" points="604.386,-1020.1055 594.386,-1023.6054 604.3859,-1027.1055 604.386,-1020.1055"/>
</g>
<!-- Node939&#45;&gt;Node903 -->
<g id="edge67" class="edge">
<title>Node939&#45;&gt;Node903</title>
<path fill="none" stroke="#191970" d="M867.6272,-383.6054C917.0446,-383.6054 1017.4372,-383.6054 1102.5,-383.6054 1102.5,-383.6054 1102.5,-383.6054 1706,-383.6054 1767.3804,-383.6054 1886.0438,-484.447 1896,-498.6054 1933.2133,-551.5251 1970.4259,-754.6735 1980.4053,-812.2906"/>
<polygon fill="#191970" stroke="#191970" points="867.3182,-380.1055 857.3182,-383.6054 867.3182,-387.1055 867.3182,-380.1055"/>
</g>
<!-- Node939&#45;&gt;Node905 -->
<g id="edge66" class="edge">
<title>Node939&#45;&gt;Node905</title>
<path fill="none" stroke="#191970" d="M859.2703,-398.9016C877.3144,-410.6123 903.7935,-426.2903 929,-435.6054 1002.7059,-462.8432 1023.9222,-469.6054 1102.5,-469.6054 1102.5,-469.6054 1102.5,-469.6054 1560,-469.6054 1652.5087,-469.6054 1759.4856,-493.9996 1813.2881,-508.0072"/>
<polygon fill="#191970" stroke="#191970" points="860.9243,-395.7989 850.6546,-393.194 857.0583,-401.6346 860.9243,-395.7989"/>
</g>
<!-- Node941&#45;&gt;Node920 -->
<g id="edge74" class="edge">
<title>Node941&#45;&gt;Node920</title>
<path fill="none" stroke="#191970" d="M430.2191,-804.4873C477.5268,-805.1727 539.296,-805.2321 594,-802.6054 605.5651,-802.05 617.9072,-801.1105 629.7057,-800.0425"/>
<polygon fill="#191970" stroke="#191970" points="430.1015,-800.9851 420.0476,-804.3271 429.9912,-807.9842 430.1015,-800.9851"/>
</g>
</g>
</svg>
        <g id="navigator" transform="translate(0 0)" fill="#404254">
                <rect fill="#f2f5e9" fill-opacity="0.5" stroke="#606060" stroke-width=".5" x="0" y="0" width="60" height="60"/>
                <use id="zoomplus" xlink:href="#zoomPlus" x="17" y="9" onmousedown="handleZoom(evt,'in')"/>
                <use id="zoomminus" xlink:href="#zoomMin" x="42" y="9" onmousedown="handleZoom(evt,'out')"/>
                <use id="reset" xlink:href="#resetDef" x="30" y="36" onmousedown="handleReset()"/>
                <g id="arrowUp" xlink:href="#dirArrow" transform="translate(30 24)" onmousedown="handlePan(0,-1)">
                  <use xlink:href="#rim" fill="#404040">
                        <set attributeName="fill" to="#808080" begin="arrowUp.mouseover" end="arrowUp.mouseout"/>
                  </use>
                  <path fill="none" stroke="white" stroke-width="1.5" d="M0,-3.0v7 M-2.5,-0.5L0,-3.0L2.5,-0.5"/>
                </g>
                <g id="arrowRight" xlink:href="#dirArrow" transform="rotate(90) translate(36 -43)" onmousedown="handlePan(1,0)">
                  <use xlink:href="#rim" fill="#404040">
                        <set attributeName="fill" to="#808080" begin="arrowRight.mouseover" end="arrowRight.mouseout"/>
                  </use>
                  <path fill="none" stroke="white" stroke-width="1.5" d="M0,-3.0v7 M-2.5,-0.5L0,-3.0L2.5,-0.5"/>
                </g>
                <g id="arrowDown" xlink:href="#dirArrow" transform="rotate(180) translate(-30 -48)" onmousedown="handlePan(0,1)">
                  <use xlink:href="#rim" fill="#404040">
                        <set attributeName="fill" to="#808080" begin="arrowDown.mouseover" end="arrowDown.mouseout"/>
                  </use>
                  <path fill="none" stroke="white" stroke-width="1.5" d="M0,-3.0v7 M-2.5,-0.5L0,-3.0L2.5,-0.5"/>
                </g>
                <g id="arrowLeft" xlink:href="#dirArrow" transform="rotate(270) translate(-36 17)" onmousedown="handlePan(-1,0)">
                  <use xlink:href="#rim" fill="#404040">
                        <set attributeName="fill" to="#808080" begin="arrowLeft.mouseover" end="arrowLeft.mouseout"/>
                  </use>
                  <path fill="none" stroke="white" stroke-width="1.5" d="M0,-3.0v7 M-2.5,-0.5L0,-3.0L2.5,-0.5"/>
                </g>
        </g>
        <svg viewBox="0 0 15 15" width="100%" height="30px" preserveAspectRatio="xMaxYMin meet">
         <g id="arrow_out" transform="scale(0.3 0.3)">
          <a xlink:href="libregexp_8h_a4737debd233b96f1a317fdb40a3fbd69_icgraph_org.svg" target="_base">
           <rect id="button" ry="5" rx="5" y="6" x="6" height="38" width="38"
                fill="#f2f5e9" fill-opacity="0.5" stroke="#606060" stroke-width="1.0"/>
           <path id="arrow"
             d="M 11.500037,31.436501 C 11.940474,20.09759 22.043105,11.32322 32.158766,21.979434 L 37.068811,17.246167 C 37.068811,17.246167 37.088388,32 37.088388,32 L 22.160133,31.978069 C 22.160133,31.978069 26.997745,27.140456 26.997745,27.140456 C 18.528582,18.264221 13.291696,25.230495 11.500037,31.436501 z"
             style="fill:#404040;"/>
          </a>
         </g>
        </svg>
</svg>
