<?xml version="1.0" encoding="UTF-8" standalone="no"?>
<!DOCTYPE svg PUBLIC "-//W3C//DTD SVG 1.1//EN"
 "http://www.w3.org/Graphics/SVG/1.1/DTD/svg11.dtd">
<!-- Generated by graphviz version 2.40.1 (20161225.0304)
 -->
<!-- Title: re_parse_alternative Pages: 1 -->
<svg width="958pt" height="1058pt"
 viewBox="0.00 0.00 958.00 1058.46" xmlns="http://www.w3.org/2000/svg" xmlns:xlink="http://www.w3.org/1999/xlink">
<g id="graph0" class="graph" transform="scale(1 1) rotate(0) translate(4 1054.4569)">
<title>re_parse_alternative</title>
<!-- Node1556 -->
<g id="node1" class="node">
<title>Node1556</title>
<polygon fill="#bfbfbf" stroke="#000000" points="0,-850.9569 0,-869.9569 104,-869.9569 104,-850.9569 0,-850.9569"/>
<text text-anchor="middle" x="52" y="-857.9569" font-family="Helvetica,sans-Serif" font-size="10.00" fill="#000000">re_parse_alternative</text>
</g>
<!-- Node1557 -->
<g id="node2" class="node">
<title>Node1557</title>
<g id="a_node2"><a xlink:href="cutils_8h.html#ac0b9ce26415947e972d6781d9f2fb11b" target="_top" xlink:title="dbuf_realloc">
<polygon fill="none" stroke="#000000" points="881,-914.9569 881,-933.9569 950,-933.9569 950,-914.9569 881,-914.9569"/>
<text text-anchor="middle" x="915.5" y="-921.9569" font-family="Helvetica,sans-Serif" font-size="10.00" fill="#000000">dbuf_realloc</text>
</a>
</g>
</g>
<!-- Node1556&#45;&gt;Node1557 -->
<g id="edge1" class="edge">
<title>Node1556&#45;&gt;Node1557</title>
<path fill="none" stroke="#191970" d="M58.4734,-870.1402C85.2134,-908.8585 191.5472,-1050.4569 316.5,-1050.4569 316.5,-1050.4569 316.5,-1050.4569 717.5,-1050.4569 797.131,-1050.4569 870.5757,-977.0213 900.869,-942.2757"/>
<polygon fill="#191970" stroke="#191970" points="903.8034,-944.228 907.6185,-934.3439 898.4723,-939.6916 903.8034,-944.228"/>
</g>
<!-- Node1558 -->
<g id="node3" class="node">
<title>Node1558</title>
<g id="a_node3"><a xlink:href="libregexp_8c.html#acca34590a18d70f866ad56d67ce309e8" target="_top" xlink:title="re_parse_term">
<polygon fill="none" stroke="#ff0000" points="140,-527.9569 140,-546.9569 219,-546.9569 219,-527.9569 140,-527.9569"/>
<text text-anchor="middle" x="179.5" y="-534.9569" font-family="Helvetica,sans-Serif" font-size="10.00" fill="#000000">re_parse_term</text>
</a>
</g>
</g>
<!-- Node1556&#45;&gt;Node1558 -->
<g id="edge2" class="edge">
<title>Node1556&#45;&gt;Node1558</title>
<path fill="none" stroke="#191970" d="M55.8158,-850.7902C73.5225,-805.9332 147.8352,-617.6745 171.926,-556.6444"/>
<polygon fill="#191970" stroke="#191970" points="175.2829,-557.6726 175.6991,-547.0859 168.7718,-555.1024 175.2829,-557.6726"/>
</g>
<!-- Node1559 -->
<g id="node4" class="node">
<title>Node1559</title>
<g id="a_node4"><a xlink:href="libregexp_8c.html#a0a619a0b3bf0d0ec3aa0a9a59d610e1c" target="_top" xlink:title="__attribute__">
<polygon fill="none" stroke="#000000" points="559,-489.9569 559,-508.9569 632,-508.9569 632,-489.9569 559,-489.9569"/>
<text text-anchor="middle" x="595.5" y="-496.9569" font-family="Helvetica,sans-Serif" font-size="10.00" fill="#000000">__attribute__</text>
</a>
</g>
</g>
<!-- Node1558&#45;&gt;Node1559 -->
<g id="edge3" class="edge">
<title>Node1558&#45;&gt;Node1559</title>
<path fill="none" stroke="#191970" d="M219.0113,-533.8477C296.1286,-526.8033 466.3484,-511.2544 548.8529,-503.7179"/>
<polygon fill="#191970" stroke="#191970" points="549.3033,-507.1915 558.9435,-502.7962 548.6665,-500.2205 549.3033,-507.1915"/>
</g>
<!-- Node1560 -->
<g id="node5" class="node">
<title>Node1560</title>
<g id="a_node5"><a xlink:href="libunicode_8c.html#a32dd1af21800853555eaa260ddffeff4" target="_top" xlink:title="cr_free">
<polygon fill="none" stroke="#000000" points="439,-394.9569 439,-413.9569 486,-413.9569 486,-394.9569 439,-394.9569"/>
<text text-anchor="middle" x="462.5" y="-401.9569" font-family="Helvetica,sans-Serif" font-size="10.00" fill="#000000">cr_free</text>
</a>
</g>
</g>
<!-- Node1558&#45;&gt;Node1560 -->
<g id="edge4" class="edge">
<title>Node1558&#45;&gt;Node1560</title>
<path fill="none" stroke="#191970" d="M182.6661,-527.6627C190.6262,-504.8116 213.8361,-448.052 255,-423.4569 308.9347,-391.2313 385.1941,-393.9865 428.6616,-399.0907"/>
<polygon fill="#191970" stroke="#191970" points="428.3493,-402.5792 438.7139,-400.3828 429.2418,-395.6364 428.3493,-402.5792"/>
</g>
<!-- Node1561 -->
<g id="node6" class="node">
<title>Node1561</title>
<g id="a_node6"><a xlink:href="cutils_8h.html#a1fed0a329cb7bb0e04283285037921a4" target="_top" xlink:title="dbuf_error">
<polygon fill="none" stroke="#000000" points="286.5,-280.9569 286.5,-299.9569 346.5,-299.9569 346.5,-280.9569 286.5,-280.9569"/>
<text text-anchor="middle" x="316.5" y="-287.9569" font-family="Helvetica,sans-Serif" font-size="10.00" fill="#000000">dbuf_error</text>
</a>
</g>
</g>
<!-- Node1558&#45;&gt;Node1561 -->
<g id="edge5" class="edge">
<title>Node1558&#45;&gt;Node1561</title>
<path fill="none" stroke="#191970" d="M181.4471,-527.9115C189.589,-488.8569 222.019,-341.7804 255,-309.4569 260.9577,-303.6179 268.6702,-299.5686 276.6075,-296.7618"/>
<polygon fill="#191970" stroke="#191970" points="277.6884,-300.0923 286.2979,-293.9175 275.7169,-293.3756 277.6884,-300.0923"/>
</g>
<!-- Node1562 -->
<g id="node7" class="node">
<title>Node1562</title>
<g id="a_node7"><a xlink:href="libregexp_8c.html#a44b4fc8b2dc5c233dff873025438c86d" target="_top" xlink:title="dbuf_insert">
<polygon fill="none" stroke="#000000" points="430,-1002.9569 430,-1021.9569 495,-1021.9569 495,-1002.9569 430,-1002.9569"/>
<text text-anchor="middle" x="462.5" y="-1009.9569" font-family="Helvetica,sans-Serif" font-size="10.00" fill="#000000">dbuf_insert</text>
</a>
</g>
</g>
<!-- Node1558&#45;&gt;Node1562 -->
<g id="edge6" class="edge">
<title>Node1558&#45;&gt;Node1562</title>
<path fill="none" stroke="#191970" d="M179.6121,-547.3189C180.5112,-607.5327 188.396,-925.148 255,-988.4569 298.6194,-1029.9183 372.8816,-1027.7111 419.7294,-1021.0279"/>
<polygon fill="#191970" stroke="#191970" points="420.5199,-1024.4471 429.8632,-1019.4517 419.444,-1017.5303 420.5199,-1024.4471"/>
</g>
<!-- Node1563 -->
<g id="node8" class="node">
<title>Node1563</title>
<g id="a_node8"><a xlink:href="cutils_8h.html#ad1cfaae47347ae771136b5a9bbda49aa" target="_top" xlink:title="dbuf_put">
<polygon fill="none" stroke="#000000" points="791,-826.9569 791,-845.9569 845,-845.9569 845,-826.9569 791,-826.9569"/>
<text text-anchor="middle" x="818" y="-833.9569" font-family="Helvetica,sans-Serif" font-size="10.00" fill="#000000">dbuf_put</text>
</a>
</g>
</g>
<!-- Node1558&#45;&gt;Node1563 -->
<g id="edge8" class="edge">
<title>Node1558&#45;&gt;Node1563</title>
<path fill="none" stroke="#191970" d="M207.6417,-546.9974C258.0887,-563.2239 367.5252,-594.4569 462.5,-594.4569 462.5,-594.4569 462.5,-594.4569 595.5,-594.4569 716.1391,-594.4569 789.2499,-759.4443 811.0721,-816.9618"/>
<polygon fill="#191970" stroke="#191970" points="807.9083,-818.4984 814.6512,-826.6705 814.4762,-816.0771 807.9083,-818.4984"/>
</g>
<!-- Node1564 -->
<g id="node9" class="node">
<title>Node1564</title>
<g id="a_node9"><a xlink:href="cutils_8h.html#a6fe4b8f13b6e624047285f2ea509f555" target="_top" xlink:title="dbuf_put_self">
<polygon fill="none" stroke="#000000" points="680,-546.9569 680,-565.9569 755,-565.9569 755,-546.9569 680,-546.9569"/>
<text text-anchor="middle" x="717.5" y="-553.9569" font-family="Helvetica,sans-Serif" font-size="10.00" fill="#000000">dbuf_put_self</text>
</a>
</g>
</g>
<!-- Node1558&#45;&gt;Node1564 -->
<g id="edge10" class="edge">
<title>Node1558&#45;&gt;Node1564</title>
<path fill="none" stroke="#191970" d="M219.0604,-538.854C315.8361,-542.2717 564.2584,-551.045 669.3737,-554.7573"/>
<polygon fill="#191970" stroke="#191970" points="669.5674,-558.2662 679.6848,-555.1214 669.8146,-551.2706 669.5674,-558.2662"/>
</g>
<!-- Node1565 -->
<g id="node10" class="node">
<title>Node1565</title>
<g id="a_node10"><a xlink:href="cutils_8h.html#aeed81d4787ccdbd55baa9b5fd6717e88" target="_top" xlink:title="dbuf_putc">
<polygon fill="none" stroke="#000000" points="688,-826.9569 688,-845.9569 747,-845.9569 747,-826.9569 688,-826.9569"/>
<text text-anchor="middle" x="717.5" y="-833.9569" font-family="Helvetica,sans-Serif" font-size="10.00" fill="#000000">dbuf_putc</text>
</a>
</g>
</g>
<!-- Node1558&#45;&gt;Node1565 -->
<g id="edge12" class="edge">
<title>Node1558&#45;&gt;Node1565</title>
<path fill="none" stroke="#191970" d="M179.7997,-547.0042C181.7553,-602.6878 194.5808,-884.9616 255,-940.4569 318.7119,-998.9765 568.6063,-997.8779 644,-955.4569 682.1129,-934.0123 702.9768,-883.8468 711.9986,-855.9831"/>
<polygon fill="#191970" stroke="#191970" points="715.4172,-856.771 714.978,-846.1852 708.72,-854.7344 715.4172,-856.771"/>
</g>
<!-- Node1566 -->
<g id="node11" class="node">
<title>Node1566</title>
<g id="a_node11"><a xlink:href="libregexp_8c.html#aa9d5df50b8660101698d8ac4595ec0ed" target="_top" xlink:title="find_group_name">
<polygon fill="none" stroke="#000000" points="271,-242.9569 271,-261.9569 362,-261.9569 362,-242.9569 271,-242.9569"/>
<text text-anchor="middle" x="316.5" y="-249.9569" font-family="Helvetica,sans-Serif" font-size="10.00" fill="#000000">find_group_name</text>
</a>
</g>
</g>
<!-- Node1558&#45;&gt;Node1566 -->
<g id="edge14" class="edge">
<title>Node1558&#45;&gt;Node1566</title>
<path fill="none" stroke="#191970" d="M180.9827,-527.8297C187.8012,-484.7266 217.4234,-309.9109 255,-271.4569 257.0868,-269.3214 259.4079,-267.4247 261.8917,-265.7402"/>
<polygon fill="#191970" stroke="#191970" points="263.7947,-268.6876 270.8592,-260.7919 260.4128,-262.5588 263.7947,-268.6876"/>
</g>
<!-- Node1567 -->
<g id="node12" class="node">
<title>Node1567</title>
<g id="a_node12"><a xlink:href="libregexp_8c.html#ac654c01af0eedad21af5da6e5035f37c" target="_top" xlink:title="get_class_atom">
<polygon fill="none" stroke="#ff0000" points="419.5,-470.9569 419.5,-489.9569 505.5,-489.9569 505.5,-470.9569 419.5,-470.9569"/>
<text text-anchor="middle" x="462.5" y="-477.9569" font-family="Helvetica,sans-Serif" font-size="10.00" fill="#000000">get_class_atom</text>
</a>
</g>
</g>
<!-- Node1558&#45;&gt;Node1567 -->
<g id="edge15" class="edge">
<title>Node1558&#45;&gt;Node1567</title>
<path fill="none" stroke="#191970" d="M197.2584,-527.8917C212.2215,-520.2786 234.4218,-510.0107 255,-504.4569 306.2666,-490.6207 366.7721,-484.7607 409.1752,-482.2791"/>
<polygon fill="#191970" stroke="#191970" points="409.4835,-485.7676 419.2794,-481.7316 409.1046,-478.7779 409.4835,-485.7676"/>
</g>
<!-- Node1579 -->
<g id="node13" class="node">
<title>Node1579</title>
<g id="a_node13"><a xlink:href="libregexp_8c.html#ab3ca6381d29dea396b12acd7f755c51a" target="_top" xlink:title="is_digit">
<polygon fill="none" stroke="#000000" points="293,-204.9569 293,-223.9569 340,-223.9569 340,-204.9569 293,-204.9569"/>
<text text-anchor="middle" x="316.5" y="-211.9569" font-family="Helvetica,sans-Serif" font-size="10.00" fill="#000000">is_digit</text>
</a>
</g>
</g>
<!-- Node1558&#45;&gt;Node1579 -->
<g id="edge17" class="edge">
<title>Node1558&#45;&gt;Node1579</title>
<path fill="none" stroke="#191970" d="M180.6283,-527.7507C186.2646,-480.848 212.7861,-278.113 255,-233.4569 262.3121,-225.7218 272.6968,-221.1124 282.8554,-218.3736"/>
<polygon fill="#191970" stroke="#191970" points="283.7863,-221.7531 292.8165,-216.2118 282.3016,-214.9123 283.7863,-221.7531"/>
</g>
<!-- Node1595 -->
<g id="node14" class="node">
<title>Node1595</title>
<g id="a_node14"><a xlink:href="libregexp_8c.html#aa10efbd91b18637bccff3b8075a0d9a1" target="_top" xlink:title="lre_canonicalize">
<polygon fill="none" stroke="#ff0000" points="273.5,-166.9569 273.5,-185.9569 359.5,-185.9569 359.5,-166.9569 273.5,-166.9569"/>
<text text-anchor="middle" x="316.5" y="-173.9569" font-family="Helvetica,sans-Serif" font-size="10.00" fill="#000000">lre_canonicalize</text>
</a>
</g>
</g>
<!-- Node1558&#45;&gt;Node1595 -->
<g id="edge18" class="edge">
<title>Node1558&#45;&gt;Node1595</title>
<path fill="none" stroke="#191970" d="M180.3269,-527.908C184.841,-477.89 208.0449,-246.448 255,-195.4569 257.7323,-192.4898 260.9166,-189.9817 264.3712,-187.8621"/>
<polygon fill="#191970" stroke="#191970" points="266.0248,-190.9486 273.4117,-183.3535 262.9008,-184.6843 266.0248,-190.9486"/>
</g>
<!-- Node1597 -->
<g id="node15" class="node">
<title>Node1597</title>
<g id="a_node15"><a xlink:href="libregexp_8c.html#aa656000c3344b15eb895e145f9e57c5c" target="_top" xlink:title="parse_digits">
<polygon fill="none" stroke="#000000" points="282,-128.9569 282,-147.9569 351,-147.9569 351,-128.9569 282,-128.9569"/>
<text text-anchor="middle" x="316.5" y="-135.9569" font-family="Helvetica,sans-Serif" font-size="10.00" fill="#000000">parse_digits</text>
</a>
</g>
</g>
<!-- Node1558&#45;&gt;Node1597 -->
<g id="edge19" class="edge">
<title>Node1558&#45;&gt;Node1597</title>
<path fill="none" stroke="#191970" d="M180.0982,-527.9271C183.6224,-474.7254 203.3199,-214.7837 255,-157.4569 259.6754,-152.2706 265.7324,-148.4841 272.2179,-145.7231"/>
<polygon fill="#191970" stroke="#191970" points="273.6095,-148.9453 281.9155,-142.368 271.3208,-142.33 273.6095,-148.9453"/>
</g>
<!-- Node1598 -->
<g id="node16" class="node">
<title>Node1598</title>
<g id="a_node16"><a xlink:href="cutils_8h.html#a3b6aba81e32ed70a2a851744e5a9cc9c" target="_top" xlink:title="put_u32">
<polygon fill="none" stroke="#000000" points="437,-774.9569 437,-793.9569 488,-793.9569 488,-774.9569 437,-774.9569"/>
<text text-anchor="middle" x="462.5" y="-781.9569" font-family="Helvetica,sans-Serif" font-size="10.00" fill="#000000">put_u32</text>
</a>
</g>
</g>
<!-- Node1558&#45;&gt;Node1598 -->
<g id="edge20" class="edge">
<title>Node1558&#45;&gt;Node1598</title>
<path fill="none" stroke="#191970" d="M180.7646,-547.1837C186.6379,-590.6925 212.7705,-766.7118 255,-798.4569 306.8103,-837.4041 387.9926,-814.8446 431.8767,-797.8883"/>
<polygon fill="#191970" stroke="#191970" points="433.4432,-801.0311 441.4212,-794.0596 430.837,-794.5343 433.4432,-801.0311"/>
</g>
<!-- Node1599 -->
<g id="node17" class="node">
<title>Node1599</title>
<g id="a_node17"><a xlink:href="libregexp_8c.html#ad7f2d2a438d99f72a2f3609d1c71e5b1" target="_top" xlink:title="re_check_advance">
<polygon fill="none" stroke="#ff0000" points="267.5,-90.9569 267.5,-109.9569 365.5,-109.9569 365.5,-90.9569 267.5,-90.9569"/>
<text text-anchor="middle" x="316.5" y="-97.9569" font-family="Helvetica,sans-Serif" font-size="10.00" fill="#000000">re_check_advance</text>
</a>
</g>
</g>
<!-- Node1558&#45;&gt;Node1599 -->
<g id="edge21" class="edge">
<title>Node1558&#45;&gt;Node1599</title>
<path fill="none" stroke="#191970" d="M179.9206,-527.7346C182.565,-471.0049 198.6451,-183.0758 255,-119.4569 256.1972,-118.1054 257.4882,-116.8489 258.8564,-115.6806"/>
<polygon fill="#191970" stroke="#191970" points="261.0842,-118.3999 267.4215,-109.9094 257.1726,-112.5948 261.0842,-118.3999"/>
</g>
<!-- Node1601 -->
<g id="node18" class="node">
<title>Node1601</title>
<g id="a_node18"><a xlink:href="libregexp_8c.html#a88ae24975d089263922d36934da51581" target="_top" xlink:title="re_count_captures">
<polygon fill="none" stroke="#000000" points="414,-52.9569 414,-71.9569 511,-71.9569 511,-52.9569 414,-52.9569"/>
<text text-anchor="middle" x="462.5" y="-59.9569" font-family="Helvetica,sans-Serif" font-size="10.00" fill="#000000">re_count_captures</text>
</a>
</g>
</g>
<!-- Node1558&#45;&gt;Node1601 -->
<g id="edge22" class="edge">
<title>Node1558&#45;&gt;Node1601</title>
<path fill="none" stroke="#191970" d="M179.5688,-527.8561C180.2107,-467.8489 186.8292,-144.839 255,-81.4569 296.3425,-43.0185 364.3846,-44.3819 411.2139,-51.306"/>
<polygon fill="#191970" stroke="#191970" points="410.7316,-54.7733 421.1607,-52.9064 411.8437,-47.8622 410.7316,-54.7733"/>
</g>
<!-- Node1602 -->
<g id="node19" class="node">
<title>Node1602</title>
<g id="a_node19"><a xlink:href="libregexp_8c.html#abe49cc9b1bcf935c4c8cfcbc932cb407" target="_top" xlink:title="re_parse_captures">
<polygon fill="none" stroke="#ff0000" points="547,-33.9569 547,-52.9569 644,-52.9569 644,-33.9569 547,-33.9569"/>
<text text-anchor="middle" x="595.5" y="-40.9569" font-family="Helvetica,sans-Serif" font-size="10.00" fill="#000000">re_parse_captures</text>
</a>
</g>
</g>
<!-- Node1558&#45;&gt;Node1602 -->
<g id="edge41" class="edge">
<title>Node1558&#45;&gt;Node1602</title>
<path fill="none" stroke="#191970" d="M180.2277,-527.8936C185.3311,-462.0553 216.6706,-77.5732 255,-44.4569 341.7968,30.5348 492.6367,-7.5812 560.5692,-30.425"/>
<polygon fill="#191970" stroke="#191970" points="559.761,-33.8487 570.3557,-33.805 562.0461,-27.2322 559.761,-33.8487"/>
</g>
<!-- Node1612 -->
<g id="node20" class="node">
<title>Node1612</title>
<g id="a_node20"><a xlink:href="libregexp_8c.html#ae6b5e2d5d49def829e7f5a8d390b79cd" target="_top" xlink:title="re_emit_goto">
<polygon fill="none" stroke="#ff0000" points="559,-926.9569 559,-945.9569 632,-945.9569 632,-926.9569 559,-926.9569"/>
<text text-anchor="middle" x="595.5" y="-933.9569" font-family="Helvetica,sans-Serif" font-size="10.00" fill="#000000">re_emit_goto</text>
</a>
</g>
</g>
<!-- Node1558&#45;&gt;Node1612 -->
<g id="edge24" class="edge">
<title>Node1558&#45;&gt;Node1612</title>
<path fill="none" stroke="#191970" d="M179.9198,-547.0623C182.4735,-600.6574 197.7703,-862.1365 255,-912.4569 297.4655,-949.7956 465.838,-944.8023 548.8016,-939.8412"/>
<polygon fill="#191970" stroke="#191970" points="549.1984,-943.3233 558.9614,-939.2081 548.763,-936.3369 549.1984,-943.3233"/>
</g>
<!-- Node1614 -->
<g id="node21" class="node">
<title>Node1614</title>
<g id="a_node21"><a xlink:href="libregexp_8c.html#a9cfa82248f8e07e4f79304fb3c51b6ab" target="_top" xlink:title="re_emit_op">
<polygon fill="none" stroke="#000000" points="563,-860.9569 563,-879.9569 628,-879.9569 628,-860.9569 563,-860.9569"/>
<text text-anchor="middle" x="595.5" y="-867.9569" font-family="Helvetica,sans-Serif" font-size="10.00" fill="#000000">re_emit_op</text>
</a>
</g>
</g>
<!-- Node1558&#45;&gt;Node1614 -->
<g id="edge26" class="edge">
<title>Node1558&#45;&gt;Node1614</title>
<path fill="none" stroke="#191970" d="M180.0726,-547.2779C183.2911,-598.6819 200.9599,-836.0455 255,-879.4569 345.3332,-952.0231 496.8606,-908.2331 562.9865,-883.6924"/>
<polygon fill="#191970" stroke="#191970" points="564.3726,-886.9099 572.4752,-880.0836 561.8842,-880.3672 564.3726,-886.9099"/>
</g>
<!-- Node1615 -->
<g id="node22" class="node">
<title>Node1615</title>
<g id="a_node22"><a xlink:href="libregexp_8c.html#a0b36775d2caea480692fc53522db875b" target="_top" xlink:title="re_emit_op_u16">
<polygon fill="none" stroke="#ff0000" points="552.5,-698.9569 552.5,-717.9569 638.5,-717.9569 638.5,-698.9569 552.5,-698.9569"/>
<text text-anchor="middle" x="595.5" y="-705.9569" font-family="Helvetica,sans-Serif" font-size="10.00" fill="#000000">re_emit_op_u16</text>
</a>
</g>
</g>
<!-- Node1558&#45;&gt;Node1615 -->
<g id="edge28" class="edge">
<title>Node1558&#45;&gt;Node1615</title>
<path fill="none" stroke="#191970" d="M179.8304,-547.2186C181.521,-579.7156 191.8553,-684.6012 255,-727.4569 278.1434,-743.1641 452.6485,-725.3301 542.4488,-714.9136"/>
<polygon fill="#191970" stroke="#191970" points="542.9149,-718.3831 552.4404,-713.7447 542.1014,-711.4305 542.9149,-718.3831"/>
</g>
<!-- Node1617 -->
<g id="node23" class="node">
<title>Node1617</title>
<g id="a_node23"><a xlink:href="libregexp_8c.html#ac72424cc4c3614e12582bb5684d5971e" target="_top" xlink:title="re_emit_op_u32">
<polygon fill="none" stroke="#ff0000" points="552.5,-793.9569 552.5,-812.9569 638.5,-812.9569 638.5,-793.9569 552.5,-793.9569"/>
<text text-anchor="middle" x="595.5" y="-800.9569" font-family="Helvetica,sans-Serif" font-size="10.00" fill="#000000">re_emit_op_u32</text>
</a>
</g>
</g>
<!-- Node1558&#45;&gt;Node1617 -->
<g id="edge30" class="edge">
<title>Node1558&#45;&gt;Node1617</title>
<path fill="none" stroke="#191970" d="M181.5741,-547.0725C189.8304,-584.4063 221.5389,-718.9429 255,-744.4569 345.7805,-813.6768 400.4522,-736.9669 511,-765.4569 531.5729,-770.7589 553.41,-780.7049 569.7306,-789.0918"/>
<polygon fill="#191970" stroke="#191970" points="568.1741,-792.2278 578.6512,-793.8027 571.443,-786.0379 568.1741,-792.2278"/>
</g>
<!-- Node1618 -->
<g id="node24" class="node">
<title>Node1618</title>
<g id="a_node24"><a xlink:href="libregexp_8c.html#a108e0185eb65a399b93d273b6b609da5" target="_top" xlink:title="re_emit_op_u8">
<polygon fill="none" stroke="#000000" points="422.5,-622.9569 422.5,-641.9569 502.5,-641.9569 502.5,-622.9569 422.5,-622.9569"/>
<text text-anchor="middle" x="462.5" y="-629.9569" font-family="Helvetica,sans-Serif" font-size="10.00" fill="#000000">re_emit_op_u8</text>
</a>
</g>
</g>
<!-- Node1558&#45;&gt;Node1618 -->
<g id="edge32" class="edge">
<title>Node1558&#45;&gt;Node1618</title>
<path fill="none" stroke="#191970" d="M186.3475,-547.0606C198.2651,-562.9302 224.4854,-594.2801 255,-608.4569 304.9338,-631.6557 368.6248,-635.7789 412.1909,-635.2931"/>
<polygon fill="#191970" stroke="#191970" points="412.3342,-638.7911 422.2634,-635.0949 412.1964,-631.7924 412.3342,-638.7911"/>
</g>
<!-- Node1619 -->
<g id="node25" class="node">
<title>Node1619</title>
<g id="a_node25"><a xlink:href="libregexp_8c.html#a889cced8db78de00f11774dc8210874d" target="_top" xlink:title="re_emit_range">
<polygon fill="none" stroke="#ff0000" points="423.5,-660.9569 423.5,-679.9569 501.5,-679.9569 501.5,-660.9569 423.5,-660.9569"/>
<text text-anchor="middle" x="462.5" y="-667.9569" font-family="Helvetica,sans-Serif" font-size="10.00" fill="#000000">re_emit_range</text>
</a>
</g>
</g>
<!-- Node1558&#45;&gt;Node1619 -->
<g id="edge34" class="edge">
<title>Node1558&#45;&gt;Node1619</title>
<path fill="none" stroke="#191970" d="M183.902,-547.203C193.5704,-567.3842 218.7257,-613.6769 255,-635.4569 303.2791,-664.4449 368.6473,-671.2136 413.0218,-672.0108"/>
<polygon fill="#191970" stroke="#191970" points="413.241,-675.5126 423.2697,-672.0958 413.2991,-668.5129 413.241,-675.5126"/>
</g>
<!-- Node1620 -->
<g id="node26" class="node">
<title>Node1620</title>
<g id="a_node26"><a xlink:href="libregexp_8c.html#adc25d27f1e668598f417fb0f07f3281f" target="_top" xlink:title="re_has_named_captures">
<polygon fill="none" stroke="#000000" points="255,-318.9569 255,-337.9569 378,-337.9569 378,-318.9569 255,-318.9569"/>
<text text-anchor="middle" x="316.5" y="-325.9569" font-family="Helvetica,sans-Serif" font-size="10.00" fill="#000000">re_has_named_captures</text>
</a>
</g>
</g>
<!-- Node1558&#45;&gt;Node1620 -->
<g id="edge38" class="edge">
<title>Node1558&#45;&gt;Node1620</title>
<path fill="none" stroke="#191970" d="M180.7186,-527.9399C185.0465,-497.9441 202.3515,-404.3004 255,-352.4569 258.9812,-348.5366 263.6763,-345.239 268.6691,-342.4692"/>
<polygon fill="#191970" stroke="#191970" points="270.3944,-345.5232 277.8876,-338.033 267.359,-339.2155 270.3944,-345.5232"/>
</g>
<!-- Node1621 -->
<g id="node27" class="node">
<title>Node1621</title>
<g id="a_node27"><a xlink:href="libregexp_8c.html#a5607046a903afaa790c57e87ea2e6fd9" target="_top" xlink:title="re_is_simple_quantifier">
<polygon fill="none" stroke="#ff0000" points="258.5,-698.9569 258.5,-717.9569 374.5,-717.9569 374.5,-698.9569 258.5,-698.9569"/>
<text text-anchor="middle" x="316.5" y="-705.9569" font-family="Helvetica,sans-Serif" font-size="10.00" fill="#000000">re_is_simple_quantifier</text>
</a>
</g>
</g>
<!-- Node1558&#45;&gt;Node1621 -->
<g id="edge40" class="edge">
<title>Node1558&#45;&gt;Node1621</title>
<path fill="none" stroke="#191970" d="M181.8936,-547.1786C188.7588,-573.1128 210.9117,-644.6671 255,-684.4569 259.4151,-688.4416 264.5672,-691.7969 269.976,-694.6144"/>
<polygon fill="#191970" stroke="#191970" points="268.6879,-697.8742 279.2364,-698.8643 271.6077,-691.5122 268.6879,-697.8742"/>
</g>
<!-- Node1622 -->
<g id="node28" class="node">
<title>Node1622</title>
<g id="a_node28"><a xlink:href="libregexp_8c.html#ab2f98b8a2e66fd9197d2677f47ccffa8" target="_top" xlink:title="re_parse_char_class">
<polygon fill="none" stroke="#ff0000" points="263,-432.9569 263,-451.9569 370,-451.9569 370,-432.9569 263,-432.9569"/>
<text text-anchor="middle" x="316.5" y="-439.9569" font-family="Helvetica,sans-Serif" font-size="10.00" fill="#000000">re_parse_char_class</text>
</a>
</g>
</g>
<!-- Node1558&#45;&gt;Node1622 -->
<g id="edge42" class="edge">
<title>Node1558&#45;&gt;Node1622</title>
<path fill="none" stroke="#191970" d="M187.6254,-527.7192C200.5427,-512.7668 227.1615,-484.0416 255,-466.4569 261.3954,-462.4171 268.5809,-458.8652 275.7241,-455.818"/>
<polygon fill="#191970" stroke="#191970" points="277.3668,-458.931 285.3602,-451.9772 274.775,-452.4285 277.3668,-458.931"/>
</g>
<!-- Node1626 -->
<g id="node29" class="node">
<title>Node1626</title>
<g id="a_node29"><a xlink:href="libregexp_8c.html#af445f369f2ccbbc81596e0fbed929b7e" target="_top" xlink:title="re_parse_disjunction">
<polygon fill="none" stroke="#ff0000" points="263.5,-850.9569 263.5,-869.9569 369.5,-869.9569 369.5,-850.9569 263.5,-850.9569"/>
<text text-anchor="middle" x="316.5" y="-857.9569" font-family="Helvetica,sans-Serif" font-size="10.00" fill="#000000">re_parse_disjunction</text>
</a>
</g>
</g>
<!-- Node1558&#45;&gt;Node1626 -->
<g id="edge47" class="edge">
<title>Node1558&#45;&gt;Node1626</title>
<path fill="none" stroke="#191970" d="M180.7588,-547.2506C186.9013,-593.6738 215.0586,-791.1949 255,-836.4569 258.4197,-840.3321 262.5429,-843.5868 267.0156,-846.3193"/>
<polygon fill="#191970" stroke="#191970" points="265.4662,-849.4584 275.9546,-850.9563 268.6895,-843.2447 265.4662,-849.4584"/>
</g>
<!-- Node1628 -->
<g id="node30" class="node">
<title>Node1628</title>
<g id="a_node30"><a xlink:href="libregexp_8c.html#a187e89a1f7e63588373701e223deae5d" target="_top" xlink:title="re_parse_expect">
<polygon fill="none" stroke="#000000" points="418,-356.9569 418,-375.9569 507,-375.9569 507,-356.9569 418,-356.9569"/>
<text text-anchor="middle" x="462.5" y="-363.9569" font-family="Helvetica,sans-Serif" font-size="10.00" fill="#000000">re_parse_expect</text>
</a>
</g>
</g>
<!-- Node1558&#45;&gt;Node1628 -->
<g id="edge53" class="edge">
<title>Node1558&#45;&gt;Node1628</title>
<path fill="none" stroke="#191970" d="M181.2457,-527.939C186.6873,-501.2551 206.0047,-425.4623 255,-391.4569 299.5239,-360.5549 362.7299,-357.2024 407.6607,-359.7711"/>
<polygon fill="#191970" stroke="#191970" points="407.5936,-363.2747 417.8102,-360.469 408.0738,-356.2912 407.5936,-363.2747"/>
</g>
<!-- Node1562&#45;&gt;Node1557 -->
<g id="edge7" class="edge">
<title>Node1562&#45;&gt;Node1557</title>
<path fill="none" stroke="#191970" d="M495.1123,-1009.1391C531.5619,-1005.2004 592.2602,-997.9514 644,-988.4569 724.5464,-973.6763 817.1461,-950.4973 870.7306,-936.4643"/>
<polygon fill="#191970" stroke="#191970" points="871.811,-939.7992 880.5912,-933.8697 870.0297,-933.0297 871.811,-939.7992"/>
</g>
<!-- Node1563&#45;&gt;Node1557 -->
<g id="edge9" class="edge">
<title>Node1563&#45;&gt;Node1557</title>
<path fill="none" stroke="#191970" d="M828.8067,-846.2107C845.3659,-861.1564 877.2106,-889.8983 897.3528,-908.0779"/>
<polygon fill="#191970" stroke="#191970" points="895.1727,-910.825 904.9412,-914.9269 899.8628,-905.6285 895.1727,-910.825"/>
</g>
<!-- Node1564&#45;&gt;Node1557 -->
<g id="edge11" class="edge">
<title>Node1564&#45;&gt;Node1557</title>
<path fill="none" stroke="#191970" d="M737.0196,-566.0848C743.346,-569.9041 750.0108,-574.7571 755,-580.4569 845.9637,-684.3766 895.5539,-848.6767 910.5518,-904.8641"/>
<polygon fill="#191970" stroke="#191970" points="907.2536,-906.0876 913.1612,-914.8825 914.0276,-904.3231 907.2536,-906.0876"/>
</g>
<!-- Node1565&#45;&gt;Node1563 -->
<g id="edge13" class="edge">
<title>Node1565&#45;&gt;Node1563</title>
<path fill="none" stroke="#191970" d="M747.1097,-836.4569C757.5526,-836.4569 769.435,-836.4569 780.4468,-836.4569"/>
<polygon fill="#191970" stroke="#191970" points="780.6624,-839.957 790.6624,-836.4569 780.6624,-832.957 780.6624,-839.957"/>
</g>
<!-- Node1567&#45;&gt;Node1559 -->
<g id="edge16" class="edge">
<title>Node1567&#45;&gt;Node1559</title>
<path fill="none" stroke="#191970" d="M505.6813,-486.6257C519.4753,-488.5962 534.802,-490.7858 548.8323,-492.7901"/>
<polygon fill="#191970" stroke="#191970" points="548.3844,-496.2616 558.7789,-494.211 549.3744,-489.3319 548.3844,-496.2616"/>
</g>
<!-- Node1601&#45;&gt;Node1602 -->
<g id="edge23" class="edge">
<title>Node1601&#45;&gt;Node1602</title>
<path fill="none" stroke="#191970" d="M511.2691,-55.4899C519.5817,-54.3024 528.2931,-53.0579 536.8299,-51.8383"/>
<polygon fill="#191970" stroke="#191970" points="537.3323,-55.3022 546.7368,-50.4231 536.3423,-48.3725 537.3323,-55.3022"/>
</g>
<!-- Node1612&#45;&gt;Node1565 -->
<g id="edge25" class="edge">
<title>Node1612&#45;&gt;Node1565</title>
<path fill="none" stroke="#191970" d="M607.1979,-926.8685C628.0951,-909.7396 672.0494,-873.7115 697.7151,-852.674"/>
<polygon fill="#191970" stroke="#191970" points="700.1431,-855.2094 705.6583,-846.1632 695.7056,-849.7957 700.1431,-855.2094"/>
</g>
<!-- Node1614&#45;&gt;Node1565 -->
<g id="edge27" class="edge">
<title>Node1614&#45;&gt;Node1565</title>
<path fill="none" stroke="#191970" d="M628.1938,-861.3455C643.5078,-857.0777 661.8802,-851.9575 677.9687,-847.4738"/>
<polygon fill="#191970" stroke="#191970" points="678.95,-850.8338 687.6432,-844.7776 677.0707,-844.0908 678.95,-850.8338"/>
</g>
<!-- Node1615&#45;&gt;Node1565 -->
<g id="edge29" class="edge">
<title>Node1615&#45;&gt;Node1565</title>
<path fill="none" stroke="#191970" d="M604.6698,-718.0777C625.2479,-739.6678 675.3285,-792.2114 701.2917,-819.4515"/>
<polygon fill="#191970" stroke="#191970" points="698.7908,-821.9005 708.2238,-826.7245 703.8579,-817.0709 698.7908,-821.9005"/>
</g>
<!-- Node1617&#45;&gt;Node1565 -->
<g id="edge31" class="edge">
<title>Node1617&#45;&gt;Node1565</title>
<path fill="none" stroke="#191970" d="M630.7875,-813.0019C645.4251,-816.9612 662.4807,-821.5746 677.5737,-825.6572"/>
<polygon fill="#191970" stroke="#191970" points="677.0884,-829.1516 687.6554,-828.3842 678.9162,-822.3945 677.0884,-829.1516"/>
</g>
<!-- Node1618&#45;&gt;Node1565 -->
<g id="edge33" class="edge">
<title>Node1618&#45;&gt;Node1565</title>
<path fill="none" stroke="#191970" d="M502.5848,-635.9818C542.5545,-641.4003 603.6521,-655.0757 644,-689.4569 684.2323,-723.7395 704.7256,-785.3818 712.9801,-816.8352"/>
<polygon fill="#191970" stroke="#191970" points="709.6832,-818.0833 715.4814,-826.9508 716.4786,-816.403 709.6832,-818.0833"/>
</g>
<!-- Node1619&#45;&gt;Node1559 -->
<g id="edge35" class="edge">
<title>Node1619&#45;&gt;Node1559</title>
<path fill="none" stroke="#191970" d="M496.0689,-660.8539C501.4328,-658.3584 506.6427,-655.2662 511,-651.4569 553.2934,-614.4824 578.7455,-550.9609 589.4956,-519.0131"/>
<polygon fill="#191970" stroke="#191970" points="592.9464,-519.7165 592.6885,-509.1248 586.285,-517.5656 592.9464,-519.7165"/>
</g>
<!-- Node1619&#45;&gt;Node1615 -->
<g id="edge36" class="edge">
<title>Node1619&#45;&gt;Node1615</title>
<path fill="none" stroke="#191970" d="M496.0615,-680.0459C513.073,-684.9063 533.9319,-690.866 552.1446,-696.0696"/>
<polygon fill="#191970" stroke="#191970" points="551.3724,-699.489 561.9492,-698.871 553.2955,-692.7583 551.3724,-699.489"/>
</g>
<!-- Node1619&#45;&gt;Node1617 -->
<g id="edge37" class="edge">
<title>Node1619&#45;&gt;Node1617</title>
<path fill="none" stroke="#191970" d="M472.065,-680.0219C494.3868,-702.3437 550.164,-758.1209 578.461,-786.4179"/>
<polygon fill="#191970" stroke="#191970" points="576.1168,-789.0235 585.6628,-793.6197 581.0666,-784.0737 576.1168,-789.0235"/>
</g>
<!-- Node1620&#45;&gt;Node1601 -->
<g id="edge39" class="edge">
<title>Node1620&#45;&gt;Node1601</title>
<path fill="none" stroke="#191970" d="M364.0891,-318.9072C369.2008,-316.4442 373.9903,-313.3482 378,-309.4569 443.6634,-245.7334 458.3123,-128.8985 461.5712,-82.3559"/>
<polygon fill="#191970" stroke="#191970" points="465.0805,-82.3022 462.1785,-72.1126 458.0927,-81.8879 465.0805,-82.3022"/>
</g>
<!-- Node1622&#45;&gt;Node1559 -->
<g id="edge43" class="edge">
<title>Node1622&#45;&gt;Node1559</title>
<path fill="none" stroke="#191970" d="M370.1603,-443.0364C409.6902,-444.5804 464.4413,-449.0716 511,-461.4569 531.5311,-466.9185 553.3695,-476.8594 569.7013,-485.2039"/>
<polygon fill="#191970" stroke="#191970" points="568.1477,-488.3413 578.6293,-489.8866 571.3991,-482.1422 568.1477,-488.3413"/>
</g>
<!-- Node1622&#45;&gt;Node1560 -->
<g id="edge44" class="edge">
<title>Node1622&#45;&gt;Node1560</title>
<path fill="none" stroke="#191970" d="M353.342,-432.8679C376.6373,-426.8047 406.5049,-419.031 429.1072,-413.1482"/>
<polygon fill="#191970" stroke="#191970" points="430.1351,-416.4973 438.9311,-410.5913 428.3719,-409.723 430.1351,-416.4973"/>
</g>
<!-- Node1622&#45;&gt;Node1567 -->
<g id="edge45" class="edge">
<title>Node1622&#45;&gt;Node1567</title>
<path fill="none" stroke="#191970" d="M353.342,-452.0459C372.3479,-456.9927 395.7286,-463.078 415.9692,-468.3461"/>
<polygon fill="#191970" stroke="#191970" points="415.3638,-471.8051 425.923,-470.9368 417.127,-465.0308 415.3638,-471.8051"/>
</g>
<!-- Node1622&#45;&gt;Node1619 -->
<g id="edge46" class="edge">
<title>Node1622&#45;&gt;Node1619</title>
<path fill="none" stroke="#191970" d="M318.3721,-452.2885C325.1266,-485.1688 351.2394,-592.5377 414,-651.4569 415.6606,-653.0159 417.464,-654.452 419.3659,-655.7744"/>
<polygon fill="#191970" stroke="#191970" points="417.7882,-658.9049 428.1988,-660.8718 421.287,-652.842 417.7882,-658.9049"/>
</g>
<!-- Node1626&#45;&gt;Node1556 -->
<g id="edge52" class="edge">
<title>Node1626&#45;&gt;Node1556</title>
<path fill="none" stroke="#191970" d="M263.4465,-860.4569C220.3959,-860.4569 159.6204,-860.4569 114.2678,-860.4569"/>
<polygon fill="#191970" stroke="#191970" points="114.2567,-856.957 104.2567,-860.4569 114.2567,-863.957 114.2567,-856.957"/>
</g>
<!-- Node1626&#45;&gt;Node1559 -->
<g id="edge48" class="edge">
<title>Node1626&#45;&gt;Node1559</title>
<path fill="none" stroke="#191970" d="M356.6038,-850.9118C410.2673,-837.8081 500.0054,-814.6061 511,-803.4569 521.3625,-792.9487 574.1722,-584.651 590.6096,-519.0578"/>
<polygon fill="#191970" stroke="#191970" points="594.051,-519.723 593.0819,-509.1726 587.2601,-518.0245 594.051,-519.723"/>
</g>
<!-- Node1626&#45;&gt;Node1562 -->
<g id="edge49" class="edge">
<title>Node1626&#45;&gt;Node1562</title>
<path fill="none" stroke="#191970" d="M325.633,-869.9652C349.8042,-895.1297 415.6887,-963.7219 446.3743,-995.6685"/>
<polygon fill="#191970" stroke="#191970" points="443.919,-998.1648 453.3705,-1002.9522 448.9674,-993.3156 443.919,-998.1648"/>
</g>
<!-- Node1626&#45;&gt;Node1598 -->
<g id="edge50" class="edge">
<title>Node1626&#45;&gt;Node1598</title>
<path fill="none" stroke="#191970" d="M346.0768,-850.8882C356.4699,-847.0179 368.0341,-842.1175 378,-836.4569 395.6251,-826.4459 396.8293,-819.2287 414,-808.4569 419.536,-804.984 425.6445,-801.6263 431.6056,-798.5778"/>
<polygon fill="#191970" stroke="#191970" points="433.3273,-801.6313 440.7482,-794.0695 430.2314,-795.3531 433.3273,-801.6313"/>
</g>
<!-- Node1626&#45;&gt;Node1617 -->
<g id="edge51" class="edge">
<title>Node1626&#45;&gt;Node1617</title>
<path fill="none" stroke="#191970" d="M369.5765,-857.4927C409.0538,-854.4272 463.9945,-848.3366 511,-836.4569 529.7142,-831.7273 549.8775,-823.9624 565.8129,-817.1527"/>
<polygon fill="#191970" stroke="#191970" points="567.3799,-820.2874 575.1378,-813.0718 564.5734,-813.8747 567.3799,-820.2874"/>
</g>
<!-- Node1628&#45;&gt;Node1559 -->
<g id="edge54" class="edge">
<title>Node1628&#45;&gt;Node1559</title>
<path fill="none" stroke="#191970" d="M494.3967,-375.9902C500.237,-378.5369 506.0445,-381.665 511,-385.4569 545.3917,-411.7732 572.3938,-455.6985 585.9393,-480.6429"/>
<polygon fill="#191970" stroke="#191970" points="582.9954,-482.5638 590.7559,-489.7766 589.1872,-479.2985 582.9954,-482.5638"/>
</g>
</g>
</svg>
