<?xml version="1.0" encoding="UTF-8" standalone="no"?>
<!DOCTYPE svg PUBLIC "-//W3C//DTD SVG 1.1//EN"
 "http://www.w3.org/Graphics/SVG/1.1/DTD/svg11.dtd">
<!-- Generated by graphviz version 2.40.1 (20161225.0304)
 -->
<!-- Title: lre_parse_escape Pages: 1 -->
<svg width="2005pt" height="1050pt"
 viewBox="0.00 0.00 2005.00 1050.39" xmlns="http://www.w3.org/2000/svg" xmlns:xlink="http://www.w3.org/1999/xlink">
<g id="graph0" class="graph" transform="scale(1 1) rotate(0) translate(4 1046.3887)">
<title>lre_parse_escape</title>
<!-- Node962 -->
<g id="node1" class="node">
<title>Node962</title>
<polygon fill="#bfbfbf" stroke="#000000" points="0,-841.7886 0,-860.7886 93,-860.7886 93,-841.7886 0,-841.7886"/>
<text text-anchor="middle" x="46.5" y="-848.7886" font-family="Helvetica,sans-Serif" font-size="10.00" fill="#000000">lre_parse_escape</text>
</g>
<!-- Node963 -->
<g id="node2" class="node">
<title>Node963</title>
<g id="a_node2"><a xlink:href="libregexp_8c.html#ac654c01af0eedad21af5da6e5035f37c" target="_top" xlink:title="get_class_atom">
<polygon fill="none" stroke="#000000" points="129,-1009.7886 129,-1028.7886 215,-1028.7886 215,-1009.7886 129,-1009.7886"/>
<text text-anchor="middle" x="172" y="-1016.7886" font-family="Helvetica,sans-Serif" font-size="10.00" fill="#000000">get_class_atom</text>
</a>
</g>
</g>
<!-- Node962&#45;&gt;Node963 -->
<g id="edge1" class="edge">
<title>Node962&#45;&gt;Node963</title>
<path fill="none" stroke="#191970" d="M57.0174,-869.6517C71.7438,-894.7527 99.9761,-940.7175 129,-976.2886 139.0116,-988.5586 152.0538,-1001.2126 161.1378,-1009.588"/>
<polygon fill="#191970" stroke="#191970" points="59.9445,-867.7225 51.8965,-860.8318 53.8908,-871.2372 59.9445,-867.7225"/>
</g>
<!-- Node978 -->
<g id="node5" class="node">
<title>Node978</title>
<g id="a_node5"><a xlink:href="quickjs_8c.html#ace438176f9f0e0fea6d6f5cdffb1577e" target="_top" xlink:title="js_parse_string">
<polygon fill="none" stroke="#000000" points="130.5,-841.7886 130.5,-860.7886 213.5,-860.7886 213.5,-841.7886 130.5,-841.7886"/>
<text text-anchor="middle" x="172" y="-848.7886" font-family="Helvetica,sans-Serif" font-size="10.00" fill="#000000">js_parse_string</text>
</a>
</g>
</g>
<!-- Node962&#45;&gt;Node978 -->
<g id="edge5" class="edge">
<title>Node962&#45;&gt;Node978</title>
<path fill="none" stroke="#191970" d="M103.3301,-851.2886C112.3727,-851.2886 121.5807,-851.2886 130.194,-851.2886"/>
<polygon fill="#191970" stroke="#191970" points="103.2316,-847.7887 93.2316,-851.2886 103.2315,-854.7887 103.2316,-847.7887"/>
</g>
<!-- Node979 -->
<g id="node6" class="node">
<title>Node979</title>
<g id="a_node6"><a xlink:href="quickjs_8c.html#a75a3798e2045f6e403c1ef467126d1fb" target="_top" xlink:title="next_token">
<polygon fill="none" stroke="#ff0000" points="275,-446.7886 275,-465.7886 340,-465.7886 340,-446.7886 275,-446.7886"/>
<text text-anchor="middle" x="307.5" y="-453.7886" font-family="Helvetica,sans-Serif" font-size="10.00" fill="#000000">next_token</text>
</a>
</g>
</g>
<!-- Node962&#45;&gt;Node979 -->
<g id="edge70" class="edge">
<title>Node962&#45;&gt;Node979</title>
<path fill="none" stroke="#191970" d="M58.6295,-832.9316C104.5136,-763.4902 266.6073,-518.176 301.0402,-466.065"/>
<polygon fill="#191970" stroke="#191970" points="55.5445,-831.2518 52.9517,-841.5245 61.3847,-835.1108 55.5445,-831.2518"/>
</g>
<!-- Node1029 -->
<g id="node29" class="node">
<title>Node1029</title>
<g id="a_node29"><a xlink:href="quickjs_8c.html#ad91865d0889d1420e3e70d5d497a9bdb" target="_top" xlink:title="parse_ident">
<polygon fill="none" stroke="#000000" points="138.5,-500.7886 138.5,-519.7886 205.5,-519.7886 205.5,-500.7886 138.5,-500.7886"/>
<text text-anchor="middle" x="172" y="-507.7886" font-family="Helvetica,sans-Serif" font-size="10.00" fill="#000000">parse_ident</text>
</a>
</g>
</g>
<!-- Node962&#45;&gt;Node1029 -->
<g id="edge71" class="edge">
<title>Node962&#45;&gt;Node1029</title>
<path fill="none" stroke="#191970" d="M53.6718,-831.8018C77.1884,-767.9042 151.4314,-566.176 168.4846,-519.8405"/>
<polygon fill="#191970" stroke="#191970" points="50.2899,-830.8574 50.1206,-841.4508 56.8592,-833.2751 50.2899,-830.8574"/>
</g>
<!-- Node1030 -->
<g id="node30" class="node">
<title>Node1030</title>
<g id="a_node30"><a xlink:href="libregexp_8c.html#a6e0ee9170c3faaca126dbcc40c07aed7" target="_top" xlink:title="re_parse_group_name">
<polygon fill="none" stroke="#ff0000" points="251,-971.7886 251,-990.7886 364,-990.7886 364,-971.7886 251,-971.7886"/>
<text text-anchor="middle" x="307.5" y="-978.7886" font-family="Helvetica,sans-Serif" font-size="10.00" fill="#000000">re_parse_group_name</text>
</a>
</g>
</g>
<!-- Node962&#45;&gt;Node1030 -->
<g id="edge73" class="edge">
<title>Node962&#45;&gt;Node1030</title>
<path fill="none" stroke="#191970" d="M72.8003,-865.745C111.4237,-886.7857 185.9582,-926.6724 251,-957.2886 261.7031,-962.3267 273.7468,-967.5079 283.9564,-971.7609"/>
<polygon fill="#191970" stroke="#191970" points="74.2361,-862.5412 63.7822,-860.8189 70.8803,-868.6844 74.2361,-862.5412"/>
</g>
<!-- Node964 -->
<g id="node3" class="node">
<title>Node964</title>
<g id="a_node3"><a xlink:href="libregexp_8c.html#ab2f98b8a2e66fd9197d2677f47ccffa8" target="_top" xlink:title="re_parse_char_class">
<polygon fill="none" stroke="#000000" points="254,-1009.7886 254,-1028.7886 361,-1028.7886 361,-1009.7886 254,-1009.7886"/>
<text text-anchor="middle" x="307.5" y="-1016.7886" font-family="Helvetica,sans-Serif" font-size="10.00" fill="#000000">re_parse_char_class</text>
</a>
</g>
</g>
<!-- Node963&#45;&gt;Node964 -->
<g id="edge2" class="edge">
<title>Node963&#45;&gt;Node964</title>
<path fill="none" stroke="#191970" d="M225.5211,-1019.2886C234.7974,-1019.2886 244.4464,-1019.2886 253.7294,-1019.2886"/>
<polygon fill="#191970" stroke="#191970" points="225.2456,-1015.7887 215.2456,-1019.2886 225.2456,-1022.7887 225.2456,-1015.7887"/>
</g>
<!-- Node965 -->
<g id="node4" class="node">
<title>Node965</title>
<g id="a_node4"><a xlink:href="libregexp_8c.html#acca34590a18d70f866ad56d67ce309e8" target="_top" xlink:title="re_parse_term">
<polygon fill="none" stroke="#ff0000" points="427.5,-1009.7886 427.5,-1028.7886 506.5,-1028.7886 506.5,-1009.7886 427.5,-1009.7886"/>
<text text-anchor="middle" x="467" y="-1016.7886" font-family="Helvetica,sans-Serif" font-size="10.00" fill="#000000">re_parse_term</text>
</a>
</g>
</g>
<!-- Node963&#45;&gt;Node965 -->
<g id="edge4" class="edge">
<title>Node963&#45;&gt;Node965</title>
<path fill="none" stroke="#191970" d="M213.6908,-1031.2581C225.6353,-1034.1558 238.7428,-1036.8353 251,-1038.2886 300.8729,-1044.2016 313.9865,-1042.8629 364,-1038.2886 385.0053,-1036.3674 408.1228,-1032.2861 427.1254,-1028.3969"/>
<polygon fill="#191970" stroke="#191970" points="214.5286,-1027.8599 203.9751,-1028.7948 212.8083,-1034.6452 214.5286,-1027.8599"/>
</g>
<!-- Node964&#45;&gt;Node965 -->
<g id="edge3" class="edge">
<title>Node964&#45;&gt;Node965</title>
<path fill="none" stroke="#191970" d="M371.1582,-1019.2886C390.175,-1019.2886 410.4655,-1019.2886 427.4578,-1019.2886"/>
<polygon fill="#191970" stroke="#191970" points="371.0549,-1015.7887 361.0549,-1019.2886 371.0549,-1022.7887 371.0549,-1015.7887"/>
</g>
<!-- Node978&#45;&gt;Node979 -->
<g id="edge6" class="edge">
<title>Node978&#45;&gt;Node979</title>
<path fill="none" stroke="#191970" d="M179.6654,-832.2057C188.5053,-810.002 203.3192,-772.1796 215,-739.2886 252.7105,-633.1021 293.2725,-502.5445 304.4834,-466.125"/>
<polygon fill="#191970" stroke="#191970" points="176.3077,-831.1762 175.8456,-841.7609 182.8076,-833.7746 176.3077,-831.1762"/>
</g>
<!-- Node981 -->
<g id="node8" class="node">
<title>Node981</title>
<g id="a_node8"><a xlink:href="quickjs_8c.html#a035daca514f14aacc1e0cff81d8e423a" target="_top" xlink:title="js_parse_template">
<polygon fill="none" stroke="#000000" points="591,-743.7886 591,-762.7886 687,-762.7886 687,-743.7886 591,-743.7886"/>
<text text-anchor="middle" x="639" y="-750.7886" font-family="Helvetica,sans-Serif" font-size="10.00" fill="#000000">js_parse_template</text>
</a>
</g>
</g>
<!-- Node978&#45;&gt;Node981 -->
<g id="edge69" class="edge">
<title>Node978&#45;&gt;Node981</title>
<path fill="none" stroke="#191970" d="M213.6908,-863.2581C225.6353,-866.1558 238.7428,-868.8353 251,-870.2886 300.8729,-876.2016 314.7902,-880.3217 364,-870.2886 468.2191,-849.0399 581.8687,-786.796 623.0147,-762.839"/>
<polygon fill="#191970" stroke="#191970" points="214.5286,-859.8599 203.9751,-860.7948 212.8083,-866.6452 214.5286,-859.8599"/>
</g>
<!-- Node1021 -->
<g id="node28" class="node">
<title>Node1021</title>
<g id="a_node28"><a xlink:href="quickjs_8c.html#a7fbd31397bde22dfa2b876b945f9afb4" target="_top" xlink:title="json_next_token">
<polygon fill="none" stroke="#ff0000" points="263.5,-841.7886 263.5,-860.7886 351.5,-860.7886 351.5,-841.7886 263.5,-841.7886"/>
<text text-anchor="middle" x="307.5" y="-848.7886" font-family="Helvetica,sans-Serif" font-size="10.00" fill="#000000">json_next_token</text>
</a>
</g>
</g>
<!-- Node978&#45;&gt;Node1021 -->
<g id="edge68" class="edge">
<title>Node978&#45;&gt;Node1021</title>
<path fill="none" stroke="#191970" d="M223.954,-851.2886C236.9329,-851.2886 250.7307,-851.2886 263.2948,-851.2886"/>
<polygon fill="#191970" stroke="#191970" points="223.7601,-847.7887 213.7601,-851.2886 223.7601,-854.7887 223.7601,-847.7887"/>
</g>
<!-- Node980 -->
<g id="node7" class="node">
<title>Node980</title>
<g id="a_node7"><a xlink:href="quickjs_8c.html#aeca8ed71e1eef8ec809afab744958c28" target="_top" xlink:title="js_parse_expect">
<polygon fill="none" stroke="#ff0000" points="423,-553.7886 423,-572.7886 511,-572.7886 511,-553.7886 423,-553.7886"/>
<text text-anchor="middle" x="467" y="-560.7886" font-family="Helvetica,sans-Serif" font-size="10.00" fill="#000000">js_parse_expect</text>
</a>
</g>
</g>
<!-- Node979&#45;&gt;Node980 -->
<g id="edge7" class="edge">
<title>Node979&#45;&gt;Node980</title>
<path fill="none" stroke="#191970" d="M324.3695,-472.783C342.1205,-489.5262 371.4022,-515.4547 400,-533.2886 412.9771,-541.3812 428.5099,-548.4788 441.351,-553.736"/>
<polygon fill="#191970" stroke="#191970" points="326.7143,-470.1825 317.0689,-465.7987 321.8753,-475.2406 326.7143,-470.1825"/>
</g>
<!-- Node979&#45;&gt;Node981 -->
<g id="edge43" class="edge">
<title>Node979&#45;&gt;Node981</title>
<path fill="none" stroke="#191970" d="M309.3408,-476.0992C314.6336,-521.3464 334.0346,-632.8684 400,-691.2886 453.2709,-738.4662 537.9487,-750.5295 590.9037,-753.1806"/>
<polygon fill="#191970" stroke="#191970" points="312.8151,-475.6711 308.2794,-466.0962 305.8542,-476.4097 312.8151,-475.6711"/>
</g>
<!-- Node982 -->
<g id="node9" class="node">
<title>Node982</title>
<g id="a_node9"><a xlink:href="quickjs_8c.html#a840642c87c5a82d4cc68333376a3b6de" target="_top" xlink:title="js_parse_postfix_expr">
<polygon fill="none" stroke="#ff0000" points="895,-439.7886 895,-458.7886 1007,-458.7886 1007,-439.7886 895,-439.7886"/>
<text text-anchor="middle" x="951" y="-446.7886" font-family="Helvetica,sans-Serif" font-size="10.00" fill="#000000">js_parse_postfix_expr</text>
</a>
</g>
</g>
<!-- Node979&#45;&gt;Node982 -->
<g id="edge59" class="edge">
<title>Node979&#45;&gt;Node982</title>
<path fill="none" stroke="#191970" d="M311.3897,-436.7702C322.9351,-380.9981 358.7833,-223.0334 400,-193.2886 483.0731,-133.3372 782.6177,-168.0166 859,-236.2886 923.871,-294.2715 944.7683,-406.0459 949.7149,-439.5598"/>
<polygon fill="#191970" stroke="#191970" points="307.9199,-436.2697 309.3557,-446.7668 314.7794,-437.6654 307.9199,-436.2697"/>
</g>
<!-- Node1000 -->
<g id="node10" class="node">
<title>Node1000</title>
<g id="a_node10"><a xlink:href="quickjs_8c.html#a9f26c765171d977db1796791f035f1f9" target="_top" xlink:title="js_parse_unary">
<polygon fill="none" stroke="#000000" points="1043,-753.7886 1043,-772.7886 1126,-772.7886 1126,-753.7886 1043,-753.7886"/>
<text text-anchor="middle" x="1084.5" y="-760.7886" font-family="Helvetica,sans-Serif" font-size="10.00" fill="#000000">js_parse_unary</text>
</a>
</g>
</g>
<!-- Node979&#45;&gt;Node1000 -->
<g id="edge61" class="edge">
<title>Node979&#45;&gt;Node1000</title>
<path fill="none" stroke="#191970" d="M311.4297,-475.6518C323.3385,-532.4844 360.6304,-697.1023 400,-733.2886 480.4756,-807.257 529.6947,-791.2886 639,-791.2886 639,-791.2886 639,-791.2886 801.5,-791.2886 887.6539,-791.2886 987.8472,-778.2788 1042.9102,-769.9953"/>
<polygon fill="#191970" stroke="#191970" points="314.8438,-474.8777 309.3933,-465.7924 307.9885,-476.2936 314.8438,-474.8777"/>
</g>
<!-- Node1001 -->
<g id="node11" class="node">
<title>Node1001</title>
<g id="a_node11"><a xlink:href="quickjs_8c.html#a2ecfb6abb190101748202a8aa5821fba" target="_top" xlink:title="js_parse_delete">
<polygon fill="none" stroke="#000000" points="1174,-753.7886 1174,-772.7886 1259,-772.7886 1259,-753.7886 1174,-753.7886"/>
<text text-anchor="middle" x="1216.5" y="-760.7886" font-family="Helvetica,sans-Serif" font-size="10.00" fill="#000000">js_parse_delete</text>
</a>
</g>
</g>
<!-- Node979&#45;&gt;Node1001 -->
<g id="edge60" class="edge">
<title>Node979&#45;&gt;Node1001</title>
<path fill="none" stroke="#191970" d="M310.5358,-476.2171C320.5901,-539.6136 354.7522,-734.9466 400,-777.2886 479.3742,-851.5653 530.2927,-829.2886 639,-829.2886 639,-829.2886 639,-829.2886 951,-829.2886 1029.8385,-829.2886 1050.1488,-821.7851 1126,-800.2886 1151.1498,-793.161 1178.7911,-781.2193 1196.8253,-772.8348"/>
<polygon fill="#191970" stroke="#191970" points="313.939,-475.3239 308.9418,-465.9816 307.0223,-476.4011 313.939,-475.3239"/>
</g>
<!-- Node1002 -->
<g id="node12" class="node">
<title>Node1002</title>
<g id="a_node12"><a xlink:href="quickjs_8c.html#ad70b14684de2ed3babfd7c2264249437" target="_top" xlink:title="js_parse_expr_binary">
<polygon fill="none" stroke="#000000" points="1162,-132.7886 1162,-151.7886 1271,-151.7886 1271,-132.7886 1162,-132.7886"/>
<text text-anchor="middle" x="1216.5" y="-139.7886" font-family="Helvetica,sans-Serif" font-size="10.00" fill="#000000">js_parse_expr_binary</text>
</a>
</g>
</g>
<!-- Node979&#45;&gt;Node1002 -->
<g id="edge62" class="edge">
<title>Node979&#45;&gt;Node1002</title>
<path fill="none" stroke="#191970" d="M310.7941,-436.4785C321.2675,-376.0104 355.7331,-195.7207 400,-159.2886 482.5009,-91.3894 532.1511,-133.2886 639,-133.2886 639,-133.2886 639,-133.2886 951,-133.2886 1023.9853,-133.2886 1108.1915,-136.7277 1161.8562,-139.3541"/>
<polygon fill="#191970" stroke="#191970" points="307.298,-436.1609 309.0719,-446.6062 314.1989,-437.3345 307.298,-436.1609"/>
</g>
<!-- Node1003 -->
<g id="node13" class="node">
<title>Node1003</title>
<g id="a_node13"><a xlink:href="quickjs_8c.html#aae2d76e4aa080c7737119ef079a9b97d" target="_top" xlink:title="js_parse_logical_and_or">
<polygon fill="none" stroke="#000000" points="1307,-85.7886 1307,-104.7886 1428,-104.7886 1428,-85.7886 1307,-85.7886"/>
<text text-anchor="middle" x="1367.5" y="-92.7886" font-family="Helvetica,sans-Serif" font-size="10.00" fill="#000000">js_parse_logical_and_or</text>
</a>
</g>
</g>
<!-- Node979&#45;&gt;Node1003 -->
<g id="edge63" class="edge">
<title>Node979&#45;&gt;Node1003</title>
<path fill="none" stroke="#191970" d="M309.9816,-436.3109C318.6392,-370.0685 349.7407,-159.4589 400,-117.2886 481.7167,-48.7237 532.3287,-95.2886 639,-95.2886 639,-95.2886 639,-95.2886 1084.5,-95.2886 1161.1458,-95.2886 1249.4682,-95.2886 1306.7748,-95.2886"/>
<polygon fill="#191970" stroke="#191970" points="306.4609,-436.2508 308.6656,-446.6137 313.4045,-437.1378 306.4609,-436.2508"/>
</g>
<!-- Node1004 -->
<g id="node14" class="node">
<title>Node1004</title>
<g id="a_node14"><a xlink:href="quickjs_8c.html#a93b69939f7af67646a177249bf2deb4d" target="_top" xlink:title="js_parse_coalesce_expr">
<polygon fill="none" stroke="#000000" points="1464,-113.7886 1464,-132.7886 1586,-132.7886 1586,-113.7886 1464,-113.7886"/>
<text text-anchor="middle" x="1525" y="-120.7886" font-family="Helvetica,sans-Serif" font-size="10.00" fill="#000000">js_parse_coalesce_expr</text>
</a>
</g>
</g>
<!-- Node979&#45;&gt;Node1004 -->
<g id="edge64" class="edge">
<title>Node979&#45;&gt;Node1004</title>
<path fill="none" stroke="#191970" d="M309.3433,-436.2382C316.3507,-364.7633 343.8216,-124.1546 400,-76.2886 481.1087,-7.181 532.4426,-57.2886 639,-57.2886 639,-57.2886 639,-57.2886 1216.5,-57.2886 1310.8785,-57.2886 1337.0507,-51.0787 1428,-76.2886 1458.4759,-84.736 1490.9873,-102.5131 1509.5651,-113.6203"/>
<polygon fill="#191970" stroke="#191970" points="305.8261,-436.2534 308.3619,-446.5403 312.7946,-436.9173 305.8261,-436.2534"/>
</g>
<!-- Node1005 -->
<g id="node15" class="node">
<title>Node1005</title>
<g id="a_node15"><a xlink:href="quickjs_8c.html#a6686f5baeecd532b043761b6c24ed431" target="_top" xlink:title="js_parse_cond_expr">
<polygon fill="none" stroke="#000000" points="1622,-705.7886 1622,-724.7886 1726,-724.7886 1726,-705.7886 1622,-705.7886"/>
<text text-anchor="middle" x="1674" y="-712.7886" font-family="Helvetica,sans-Serif" font-size="10.00" fill="#000000">js_parse_cond_expr</text>
</a>
</g>
</g>
<!-- Node979&#45;&gt;Node1005 -->
<g id="edge65" class="edge">
<title>Node979&#45;&gt;Node1005</title>
<path fill="none" stroke="#191970" d="M308.8068,-436.6051C314.2668,-360.8808 337.929,-89.9123 400,-36.2886 480.5836,33.3285 532.5094,-19.2886 639,-19.2886 639,-19.2886 639,-19.2886 1367.5,-19.2886 1471.7004,-19.2886 1521.1772,-22.7059 1586,-104.2886 1664.3381,-202.8809 1673.007,-635.3332 1673.9021,-705.6189"/>
<polygon fill="#191970" stroke="#191970" points="305.3093,-436.4488 308.1071,-446.6675 312.2925,-436.9344 305.3093,-436.4488"/>
</g>
<!-- Node1006 -->
<g id="node16" class="node">
<title>Node1006</title>
<g id="a_node16"><a xlink:href="quickjs_8c.html#afa1bc2743b3cf892d36544a708453736" target="_top" xlink:title="js_parse_assign_expr2">
<polygon fill="none" stroke="#ff0000" points="1762,-772.7886 1762,-791.7886 1878,-791.7886 1878,-772.7886 1762,-772.7886"/>
<text text-anchor="middle" x="1820" y="-779.7886" font-family="Helvetica,sans-Serif" font-size="10.00" fill="#000000">js_parse_assign_expr2</text>
</a>
</g>
</g>
<!-- Node979&#45;&gt;Node1006 -->
<g id="edge66" class="edge">
<title>Node979&#45;&gt;Node1006</title>
<path fill="none" stroke="#191970" d="M309.7842,-476.1073C318.0985,-544.7521 348.9645,-770.8068 400,-819.2886 478.5503,-893.9084 530.6567,-867.2886 639,-867.2886 639,-867.2886 639,-867.2886 1525,-867.2886 1632.9303,-867.2886 1754.6947,-814.1036 1800.8746,-791.8739"/>
<polygon fill="#191970" stroke="#191970" points="313.22,-475.3579 308.5681,-465.839 306.2686,-476.1813 313.22,-475.3579"/>
</g>
<!-- Node1009 -->
<g id="node17" class="node">
<title>Node1009</title>
<g id="a_node17"><a xlink:href="quickjs_8c.html#a9fc8ae779f77a7886fc7cfa48cc487fb" target="_top" xlink:title="js_parse_expr2">
<polygon fill="none" stroke="#ff0000" points="1914,-833.7886 1914,-852.7886 1997,-852.7886 1997,-833.7886 1914,-833.7886"/>
<text text-anchor="middle" x="1955.5" y="-840.7886" font-family="Helvetica,sans-Serif" font-size="10.00" fill="#000000">js_parse_expr2</text>
</a>
</g>
</g>
<!-- Node979&#45;&gt;Node1009 -->
<g id="edge67" class="edge">
<title>Node979&#45;&gt;Node1009</title>
<path fill="none" stroke="#191970" d="M309.1984,-475.95C315.942,-549.3238 343.2656,-805.7234 400,-860.2886 477.9051,-935.2149 530.9113,-905.2886 639,-905.2886 639,-905.2886 639,-905.2886 1674,-905.2886 1770.3325,-905.2886 1880.9595,-870.2317 1929.9138,-852.8402"/>
<polygon fill="#191970" stroke="#191970" points="312.668,-475.453 308.2914,-465.8044 305.6958,-476.0764 312.668,-475.453"/>
</g>
<!-- Node1011 -->
<g id="node18" class="node">
<title>Node1011</title>
<g id="a_node18"><a xlink:href="quickjs_8c.html#a42234753f3193f37ce45b3c0ca4c25cd" target="_top" xlink:title="js_parse_property_name">
<polygon fill="none" stroke="#000000" points="577.5,-515.7886 577.5,-534.7886 700.5,-534.7886 700.5,-515.7886 577.5,-515.7886"/>
<text text-anchor="middle" x="639" y="-522.7886" font-family="Helvetica,sans-Serif" font-size="10.00" fill="#000000">js_parse_property_name</text>
</a>
</g>
</g>
<!-- Node979&#45;&gt;Node1011 -->
<g id="edge44" class="edge">
<title>Node979&#45;&gt;Node1011</title>
<path fill="none" stroke="#191970" d="M335.801,-470.1734C353.7792,-478.4207 377.771,-488.3897 400,-494.2886 459.0438,-509.9569 528.477,-517.8365 577.2449,-521.7151"/>
<polygon fill="#191970" stroke="#191970" points="337.0214,-466.88 326.4812,-465.8054 334.0507,-473.2184 337.0214,-466.88"/>
</g>
<!-- Node994 -->
<g id="node19" class="node">
<title>Node994</title>
<g id="a_node19"><a xlink:href="quickjs_8c.html#aee6d0acd87f136d43f157ae1426436e6" target="_top" xlink:title="js_parse_object_literal">
<polygon fill="none" stroke="#000000" points="745,-629.7886 745,-648.7886 858,-648.7886 858,-629.7886 745,-629.7886"/>
<text text-anchor="middle" x="801.5" y="-636.7886" font-family="Helvetica,sans-Serif" font-size="10.00" fill="#000000">js_parse_object_literal</text>
</a>
</g>
</g>
<!-- Node979&#45;&gt;Node994 -->
<g id="edge52" class="edge">
<title>Node979&#45;&gt;Node994</title>
<path fill="none" stroke="#191970" d="M316.7042,-475.3663C330.8875,-502.8332 360.6212,-553.3857 400,-582.2886 502.7297,-657.689 660.9003,-654.9624 744.761,-646.8931"/>
<polygon fill="#191970" stroke="#191970" points="319.6514,-473.4351 312.0421,-466.0629 313.3932,-476.5712 319.6514,-473.4351"/>
</g>
<!-- Node984 -->
<g id="node20" class="node">
<title>Node984</title>
<g id="a_node20"><a xlink:href="quickjs_8c.html#a00eb789430243c24dab4a63ad6a79653" target="_top" xlink:title="js_parse_class">
<polygon fill="none" stroke="#ff0000" points="760.5,-439.7886 760.5,-458.7886 842.5,-458.7886 842.5,-439.7886 760.5,-439.7886"/>
<text text-anchor="middle" x="801.5" y="-446.7886" font-family="Helvetica,sans-Serif" font-size="10.00" fill="#000000">js_parse_class</text>
</a>
</g>
</g>
<!-- Node979&#45;&gt;Node984 -->
<g id="edge54" class="edge">
<title>Node979&#45;&gt;Node984</title>
<path fill="none" stroke="#191970" d="M350.3053,-455.682C444.2852,-454.3503 667.6487,-451.1852 760.215,-449.8736"/>
<polygon fill="#191970" stroke="#191970" points="350.2447,-452.1824 340.2953,-455.8239 350.3439,-459.1817 350.2447,-452.1824"/>
</g>
<!-- Node998 -->
<g id="node21" class="node">
<title>Node998</title>
<g id="a_node21"><a xlink:href="quickjs_8c.html#a26be546cf89c4580ba9020e8fc43a759" target="_top" xlink:title="js_parse_destructuring\l_element">
<polygon fill="none" stroke="#ff0000" points="744,-308.2886 744,-338.2886 859,-338.2886 859,-308.2886 744,-308.2886"/>
<text text-anchor="start" x="752" y="-326.2886" font-family="Helvetica,sans-Serif" font-size="10.00" fill="#000000">js_parse_destructuring</text>
<text text-anchor="middle" x="801.5" y="-315.2886" font-family="Helvetica,sans-Serif" font-size="10.00" fill="#000000">_element</text>
</a>
</g>
</g>
<!-- Node979&#45;&gt;Node998 -->
<g id="edge58" class="edge">
<title>Node979&#45;&gt;Node998</title>
<path fill="none" stroke="#191970" d="M317.4498,-437.8209C332.0199,-412.7136 361.6457,-368.4089 400,-346.2886 466.4617,-307.9577 493.5694,-322.9807 570,-316.2886 631.0996,-310.9388 646.7095,-313.9975 708,-316.2886 719.5494,-316.7203 731.8844,-317.451 743.681,-318.2816"/>
<polygon fill="#191970" stroke="#191970" points="314.3038,-436.275 312.4581,-446.7078 320.407,-439.7031 314.3038,-436.275"/>
</g>
<!-- Node1008 -->
<g id="node22" class="node">
<title>Node1008</title>
<g id="a_node22"><a xlink:href="quickjs_8c.html#a253917187cfb6b3db09d355b31edb3d5" target="_top" xlink:title="js_parse_array_literal">
<polygon fill="none" stroke="#000000" points="584.5,-363.7886 584.5,-382.7886 693.5,-382.7886 693.5,-363.7886 584.5,-363.7886"/>
<text text-anchor="middle" x="639" y="-370.7886" font-family="Helvetica,sans-Serif" font-size="10.00" fill="#000000">js_parse_array_literal</text>
</a>
</g>
</g>
<!-- Node979&#45;&gt;Node1008 -->
<g id="edge55" class="edge">
<title>Node979&#45;&gt;Node1008</title>
<path fill="none" stroke="#191970" d="M341.2427,-442.9997C358.6149,-436.4789 380.2438,-428.8512 400,-423.2886 462.4313,-405.7103 535.6068,-391.2839 584.3838,-382.5208"/>
<polygon fill="#191970" stroke="#191970" points="339.6538,-439.8595 331.5524,-446.6872 342.1434,-446.4018 339.6538,-439.8595"/>
</g>
<!-- Node1014 -->
<g id="node23" class="node">
<title>Node1014</title>
<g id="a_node23"><a xlink:href="quickjs_8c.html#a02cbd69384985a4e904190810cf45641" target="_top" xlink:title="js_parse_expect_semi">
<polygon fill="none" stroke="#ff0000" points="410,-465.7886 410,-484.7886 524,-484.7886 524,-465.7886 410,-465.7886"/>
<text text-anchor="middle" x="467" y="-472.7886" font-family="Helvetica,sans-Serif" font-size="10.00" fill="#000000">js_parse_expect_semi</text>
</a>
</g>
</g>
<!-- Node979&#45;&gt;Node1014 -->
<g id="edge41" class="edge">
<title>Node979&#45;&gt;Node1014</title>
<path fill="none" stroke="#191970" d="M350.2349,-461.3792C368.5446,-463.5603 390.1995,-466.1399 409.8568,-468.4815"/>
<polygon fill="#191970" stroke="#191970" points="350.5059,-457.8869 340.1621,-460.1793 349.6779,-464.8377 350.5059,-457.8869"/>
</g>
<!-- Node1015 -->
<g id="node24" class="node">
<title>Node1015</title>
<g id="a_node24"><a xlink:href="quickjs_8c.html#aba7eb7aae2eb61bfccb4565ee626cd18" target="_top" xlink:title="js_parse_seek_token">
<polygon fill="none" stroke="#ff0000" points="412.5,-237.7886 412.5,-256.7886 521.5,-256.7886 521.5,-237.7886 412.5,-237.7886"/>
<text text-anchor="middle" x="467" y="-244.7886" font-family="Helvetica,sans-Serif" font-size="10.00" fill="#000000">js_parse_seek_token</text>
</a>
</g>
</g>
<!-- Node979&#45;&gt;Node1015 -->
<g id="edge45" class="edge">
<title>Node979&#45;&gt;Node1015</title>
<path fill="none" stroke="#191970" d="M311.4402,-436.7545C320.2467,-398.2154 345.2097,-312.1602 400,-266.2886 404.6353,-262.4078 410.0157,-259.3182 415.6735,-256.8587"/>
<polygon fill="#191970" stroke="#191970" points="307.9835,-436.1802 309.2913,-446.694 314.8255,-437.6594 307.9835,-436.1802"/>
</g>
<!-- Node1016 -->
<g id="node25" class="node">
<title>Node1016</title>
<g id="a_node25"><a xlink:href="quickjs_8c.html#ac00298085baf11a4a7bd600cf5de2e6d" target="_top" xlink:title="js_parse_skip_parens\l_token">
<polygon fill="none" stroke="#ff0000" points="583.5,-200.2886 583.5,-230.2886 694.5,-230.2886 694.5,-200.2886 583.5,-200.2886"/>
<text text-anchor="start" x="591.5" y="-218.2886" font-family="Helvetica,sans-Serif" font-size="10.00" fill="#000000">js_parse_skip_parens</text>
<text text-anchor="middle" x="639" y="-207.2886" font-family="Helvetica,sans-Serif" font-size="10.00" fill="#000000">_token</text>
</a>
</g>
</g>
<!-- Node979&#45;&gt;Node1016 -->
<g id="edge51" class="edge">
<title>Node979&#45;&gt;Node1016</title>
<path fill="none" stroke="#191970" d="M308.7423,-436.7513C312.7957,-391.2707 329.8031,-278.3882 400,-228.2886 453.103,-190.3889 530.9631,-194.0861 583.2413,-202.6135"/>
<polygon fill="#191970" stroke="#191970" points="305.248,-436.5426 307.9663,-446.7827 312.2272,-437.0825 305.248,-436.5426"/>
</g>
<!-- Node991 -->
<g id="node26" class="node">
<title>Node991</title>
<g id="a_node26"><a xlink:href="quickjs_8c.html#adf95ddf430ef93fd9efea1cc2f8a2fbe" target="_top" xlink:title="js_parse_class_default_ctor">
<polygon fill="none" stroke="#000000" points="570,-325.7886 570,-344.7886 708,-344.7886 708,-325.7886 570,-325.7886"/>
<text text-anchor="middle" x="639" y="-332.7886" font-family="Helvetica,sans-Serif" font-size="10.00" fill="#000000">js_parse_class_default_ctor</text>
</a>
</g>
</g>
<!-- Node979&#45;&gt;Node991 -->
<g id="edge53" class="edge">
<title>Node979&#45;&gt;Node991</title>
<path fill="none" stroke="#191970" d="M325.484,-439.8094C343.1725,-424.4816 371.5839,-402.1334 400,-389.2886 454.3648,-364.7143 520.8957,-350.8585 569.9451,-343.3526"/>
<polygon fill="#191970" stroke="#191970" points="322.873,-437.4466 317.7088,-446.6977 327.5149,-442.6861 322.873,-437.4466"/>
</g>
<!-- Node1019 -->
<g id="node27" class="node">
<title>Node1019</title>
<g id="a_node27"><a xlink:href="quickjs_8c.html#ab10609a91c359ea5d3051f7bb646af83" target="_top" xlink:title="js_parse_destructuring_var">
<polygon fill="none" stroke="#000000" points="400,-275.7886 400,-294.7886 534,-294.7886 534,-275.7886 400,-275.7886"/>
<text text-anchor="middle" x="467" y="-282.7886" font-family="Helvetica,sans-Serif" font-size="10.00" fill="#000000">js_parse_destructuring_var</text>
</a>
</g>
</g>
<!-- Node979&#45;&gt;Node1019 -->
<g id="edge56" class="edge">
<title>Node979&#45;&gt;Node1019</title>
<path fill="none" stroke="#191970" d="M314.8269,-436.7837C327.5144,-405.5411 356.4646,-344.2468 400,-309.2886 407.8037,-303.0224 417.3766,-298.3188 426.818,-294.8163"/>
<polygon fill="#191970" stroke="#191970" points="311.4135,-435.9013 311.0202,-446.4888 317.9301,-438.4574 311.4135,-435.9013"/>
</g>
<!-- Node980&#45;&gt;Node981 -->
<g id="edge8" class="edge">
<title>Node980&#45;&gt;Node981</title>
<path fill="none" stroke="#191970" d="M473.9116,-582.4999C487.2178,-616.8458 519.6114,-688.9484 570,-729.2886 577.8218,-735.5506 587.387,-740.2333 596.8747,-743.715"/>
<polygon fill="#191970" stroke="#191970" points="477.1859,-581.2631 470.396,-573.1299 470.632,-583.7222 477.1859,-581.2631"/>
</g>
<!-- Node980&#45;&gt;Node982 -->
<g id="edge39" class="edge">
<title>Node980&#45;&gt;Node982</title>
<path fill="none" stroke="#191970" d="M521.3792,-573.5591C570.7681,-580.9564 645.2651,-587.2615 708,-572.2886 802.7441,-549.676 902.3573,-483.8103 937.6544,-458.9441"/>
<polygon fill="#191970" stroke="#191970" points="521.6554,-570.0598 511.2345,-571.9713 520.5729,-576.9756 521.6554,-570.0598"/>
</g>
<!-- Node980&#45;&gt;Node1005 -->
<g id="edge40" class="edge">
<title>Node980&#45;&gt;Node1005</title>
<path fill="none" stroke="#191970" d="M484.882,-579.5712C504.5082,-596.7133 537.5567,-623.496 570,-640.2886 666.0502,-690.0037 693.3462,-715.2886 801.5,-715.2886 801.5,-715.2886 801.5,-715.2886 1367.5,-715.2886 1456.8958,-715.2886 1560.9582,-715.2886 1621.9377,-715.2886"/>
<polygon fill="#191970" stroke="#191970" points="487.1361,-576.892 477.3335,-572.872 482.4896,-582.1276 487.1361,-576.892"/>
</g>
<!-- Node980&#45;&gt;Node1011 -->
<g id="edge26" class="edge">
<title>Node980&#45;&gt;Node1011</title>
<path fill="none" stroke="#191970" d="M520.1959,-551.536C544.5166,-546.1628 572.9547,-539.88 595.9092,-534.8086"/>
<polygon fill="#191970" stroke="#191970" points="519.4123,-548.1246 510.4029,-553.6996 520.9225,-554.9598 519.4123,-548.1246"/>
</g>
<!-- Node980&#45;&gt;Node994 -->
<g id="edge34" class="edge">
<title>Node980&#45;&gt;Node994</title>
<path fill="none" stroke="#191970" d="M490.1645,-578.0845C510.4003,-590.2349 540.997,-606.7784 570,-615.2886 627.9638,-632.2965 697.1779,-637.6246 744.7345,-639.1142"/>
<polygon fill="#191970" stroke="#191970" points="491.9934,-575.1004 481.6391,-572.8557 488.3336,-581.0675 491.9934,-575.1004"/>
</g>
<!-- Node980&#45;&gt;Node984 -->
<g id="edge35" class="edge">
<title>Node980&#45;&gt;Node984</title>
<path fill="none" stroke="#191970" d="M521.194,-569.4982C571.9103,-572.9497 648.5623,-571.9819 708,-544.2886 749.3232,-525.0352 782.4161,-479.157 795.4749,-459.0327"/>
<polygon fill="#191970" stroke="#191970" points="521.3323,-565.9987 511.0954,-568.7292 520.8007,-572.9785 521.3323,-565.9987"/>
</g>
<!-- Node980&#45;&gt;Node998 -->
<g id="edge38" class="edge">
<title>Node980&#45;&gt;Node998</title>
<path fill="none" stroke="#191970" d="M488.8614,-547.9813C531.2882,-518.2291 627.6806,-450.4125 708,-392.2886 733.3327,-373.9563 762.2655,-352.5284 781.1521,-338.4739"/>
<polygon fill="#191970" stroke="#191970" points="486.8323,-545.1293 480.6523,-553.7351 490.8501,-550.8615 486.8323,-545.1293"/>
</g>
<!-- Node980&#45;&gt;Node1008 -->
<g id="edge36" class="edge">
<title>Node980&#45;&gt;Node1008</title>
<path fill="none" stroke="#191970" d="M484.0329,-546.2827C497.7394,-532.4709 517.3864,-512.3849 534,-494.2886 571.2435,-453.7211 613.6876,-403.5236 631.0083,-382.8601"/>
<polygon fill="#191970" stroke="#191970" points="481.2945,-544.0723 476.717,-553.6273 486.254,-549.0124 481.2945,-544.0723"/>
</g>
<!-- Node981&#45;&gt;Node982 -->
<g id="edge9" class="edge">
<title>Node981&#45;&gt;Node982</title>
<path fill="none" stroke="#191970" d="M695.7329,-741.1798C744.5328,-728.1462 813.9818,-702.9912 859,-658.2886 919.4825,-598.2301 943.2644,-491.6355 949.3306,-459.0325"/>
<polygon fill="#191970" stroke="#191970" points="694.7636,-737.8152 685.9557,-743.7034 696.5131,-744.593 694.7636,-737.8152"/>
</g>
<!-- Node982&#45;&gt;Node982 -->
<g id="edge10" class="edge">
<title>Node982&#45;&gt;Node982</title>
<path fill="none" stroke="#191970" d="M926.4465,-468.3177C927.7858,-473.4165 935.9703,-477.2886 951,-477.2886 974.4609,-477.2886 981.2426,-467.8538 971.345,-459.0456"/>
<polygon fill="#191970" stroke="#191970" points="929.709,-469.5981 930.655,-459.0456 923.3348,-466.705 929.709,-469.5981"/>
</g>
<!-- Node982&#45;&gt;Node1000 -->
<g id="edge11" class="edge">
<title>Node982&#45;&gt;Node1000</title>
<path fill="none" stroke="#191970" d="M959.1304,-468.4117C984.5187,-528.1266 1061.7412,-709.7585 1080.4065,-753.6605"/>
<polygon fill="#191970" stroke="#191970" points="962.2755,-466.8636 955.1418,-459.0303 955.8335,-469.6025 962.2755,-466.8636"/>
</g>
<!-- Node1000&#45;&gt;Node1000 -->
<g id="edge14" class="edge">
<title>Node1000&#45;&gt;Node1000</title>
<path fill="none" stroke="#191970" d="M1059.9465,-782.3177C1061.2858,-787.4165 1069.4703,-791.2886 1084.5,-791.2886 1107.9609,-791.2886 1114.7426,-781.8538 1104.845,-773.0456"/>
<polygon fill="#191970" stroke="#191970" points="1063.209,-783.5981 1064.155,-773.0456 1056.8348,-780.705 1063.209,-783.5981"/>
</g>
<!-- Node1000&#45;&gt;Node1001 -->
<g id="edge12" class="edge">
<title>Node1000&#45;&gt;Node1001</title>
<path fill="none" stroke="#191970" d="M1136.4212,-756.677C1148.7516,-756.4312 1161.7696,-756.5128 1173.6434,-756.9218"/>
<polygon fill="#191970" stroke="#191970" points="1136.164,-753.1827 1126.2656,-756.9604 1136.3594,-760.1799 1136.164,-753.1827"/>
</g>
<!-- Node1000&#45;&gt;Node1002 -->
<g id="edge15" class="edge">
<title>Node1000&#45;&gt;Node1002</title>
<path fill="none" stroke="#191970" d="M1088.6843,-743.6034C1109.2905,-646.6605 1199.5865,-221.8588 1214.4312,-152.0215"/>
<polygon fill="#191970" stroke="#191970" points="1085.2291,-743.0249 1086.5734,-753.5341 1092.0762,-744.4804 1085.2291,-743.0249"/>
</g>
<!-- Node1001&#45;&gt;Node1000 -->
<g id="edge13" class="edge">
<title>Node1001&#45;&gt;Node1000</title>
<path fill="none" stroke="#191970" d="M1163.4405,-769.9219C1151.0696,-770.1476 1138.0673,-770.0458 1126.2656,-769.6167"/>
<polygon fill="#191970" stroke="#191970" points="1163.7382,-773.4154 1173.6434,-769.6553 1163.5553,-766.4178 1163.7382,-773.4154"/>
</g>
<!-- Node1002&#45;&gt;Node1002 -->
<g id="edge16" class="edge">
<title>Node1002&#45;&gt;Node1002</title>
<path fill="none" stroke="#191970" d="M1191.9465,-161.3177C1193.2858,-166.4165 1201.4703,-170.2886 1216.5,-170.2886 1239.9609,-170.2886 1246.7426,-160.8538 1236.845,-152.0456"/>
<polygon fill="#191970" stroke="#191970" points="1195.209,-162.5981 1196.155,-152.0456 1188.8348,-159.705 1195.209,-162.5981"/>
</g>
<!-- Node1002&#45;&gt;Node1003 -->
<g id="edge17" class="edge">
<title>Node1002&#45;&gt;Node1003</title>
<path fill="none" stroke="#191970" d="M1256.6654,-129.7868C1281.7775,-121.9704 1313.6239,-112.058 1336.7296,-104.8661"/>
<polygon fill="#191970" stroke="#191970" points="1255.5651,-126.4635 1247.0571,-132.7774 1257.6455,-133.1473 1255.5651,-126.4635"/>
</g>
<!-- Node1002&#45;&gt;Node1004 -->
<g id="edge25" class="edge">
<title>Node1002&#45;&gt;Node1004</title>
<path fill="none" stroke="#191970" d="M1281.3827,-139.9816C1323.2546,-138.3049 1378.8786,-135.7269 1428,-132.2886 1439.6412,-131.4737 1452.0539,-130.4443 1463.9764,-129.3752"/>
<polygon fill="#191970" stroke="#191970" points="1281.1717,-136.4871 1271.3172,-140.3779 1281.4472,-143.4817 1281.1717,-136.4871"/>
</g>
<!-- Node1003&#45;&gt;Node1003 -->
<g id="edge18" class="edge">
<title>Node1003&#45;&gt;Node1003</title>
<path fill="none" stroke="#191970" d="M1339.5009,-113.9425C1340.6712,-119.2254 1350.0043,-123.2886 1367.5,-123.2886 1394.1602,-123.2886 1401.8666,-113.8538 1390.6194,-105.0456"/>
<polygon fill="#191970" stroke="#191970" points="1342.6403,-115.4966 1344.3806,-105.0456 1336.5029,-112.1302 1342.6403,-115.4966"/>
</g>
<!-- Node1003&#45;&gt;Node1004 -->
<g id="edge19" class="edge">
<title>Node1003&#45;&gt;Node1004</title>
<path fill="none" stroke="#191970" d="M1431.3141,-106.6333C1444.6449,-109.0032 1458.5685,-111.4785 1471.4802,-113.7739"/>
<polygon fill="#191970" stroke="#191970" points="1431.7203,-103.1507 1421.2621,-104.8463 1430.495,-110.0426 1431.7203,-103.1507"/>
</g>
<!-- Node1004&#45;&gt;Node1005 -->
<g id="edge20" class="edge">
<title>Node1004&#45;&gt;Node1005</title>
<path fill="none" stroke="#191970" d="M1529.9508,-142.959C1553.5925,-236.8909 1654.5537,-638.0254 1671.5626,-705.6042"/>
<polygon fill="#191970" stroke="#191970" points="1533.2968,-141.9132 1527.4619,-133.0699 1526.5086,-143.6218 1533.2968,-141.9132"/>
</g>
<!-- Node1005&#45;&gt;Node1006 -->
<g id="edge21" class="edge">
<title>Node1005&#45;&gt;Node1006</title>
<path fill="none" stroke="#191970" d="M1716.8426,-728.7397C1747.9845,-741.8499 1788.0105,-760.9724 1807.8013,-772.7443"/>
<polygon fill="#191970" stroke="#191970" points="1718.0742,-725.4616 1707.4953,-724.8788 1715.4018,-731.9314 1718.0742,-725.4616"/>
</g>
<!-- Node1006&#45;&gt;Node1005 -->
<g id="edge22" class="edge">
<title>Node1006&#45;&gt;Node1005</title>
<path fill="none" stroke="#191970" d="M1777.265,-768.8828C1746.1067,-755.7709 1706.0096,-736.617 1686.1968,-724.8316"/>
<polygon fill="#191970" stroke="#191970" points="1776.0366,-772.1621 1786.6155,-772.7431 1778.7079,-765.6918 1776.0366,-772.1621"/>
</g>
<!-- Node1006&#45;&gt;Node1006 -->
<g id="edge23" class="edge">
<title>Node1006&#45;&gt;Node1006</title>
<path fill="none" stroke="#191970" d="M1795.0745,-801.3177C1796.4341,-806.4165 1804.7426,-810.2886 1820,-810.2886 1843.8164,-810.2886 1850.7008,-800.8538 1840.6533,-792.0456"/>
<polygon fill="#191970" stroke="#191970" points="1798.3407,-802.5926 1799.3467,-792.0456 1791.9831,-799.6632 1798.3407,-802.5926"/>
</g>
<!-- Node1006&#45;&gt;Node1009 -->
<g id="edge24" class="edge">
<title>Node1006&#45;&gt;Node1009</title>
<path fill="none" stroke="#191970" d="M1850.3706,-795.9609C1875.806,-807.4116 1911.473,-823.4683 1934.0296,-833.6229"/>
<polygon fill="#191970" stroke="#191970" points="1851.7273,-792.7334 1841.1719,-791.8198 1848.8537,-799.1164 1851.7273,-792.7334"/>
</g>
<!-- Node1011&#45;&gt;Node994 -->
<g id="edge27" class="edge">
<title>Node1011&#45;&gt;Node994</title>
<path fill="none" stroke="#191970" d="M660.9089,-540.6585C694.895,-564.5011 759.3471,-609.7166 787.619,-629.5505"/>
<polygon fill="#191970" stroke="#191970" points="662.7717,-537.6899 652.5752,-534.8121 658.7515,-543.4204 662.7717,-537.6899"/>
</g>
<!-- Node1011&#45;&gt;Node984 -->
<g id="edge29" class="edge">
<title>Node1011&#45;&gt;Node984</title>
<path fill="none" stroke="#191970" d="M679.6176,-512.4716C689.0572,-509.1337 698.9797,-505.3292 708,-501.2886 736.478,-488.532 767.8457,-470.1239 786.0459,-458.9757"/>
<polygon fill="#191970" stroke="#191970" points="678.3335,-509.2119 670.0134,-515.7713 680.6081,-515.832 678.3335,-509.2119"/>
</g>
<!-- Node1011&#45;&gt;Node998 -->
<g id="edge31" class="edge">
<title>Node1011&#45;&gt;Node998</title>
<path fill="none" stroke="#191970" d="M691.8989,-511.7616C697.7101,-508.9021 703.2365,-505.4508 708,-501.2886 734.6425,-478.0091 727.625,-461.6512 744,-430.2886 761.1785,-397.387 781.9143,-359.1509 793.1966,-338.4663"/>
<polygon fill="#191970" stroke="#191970" points="690.3887,-508.6014 682.6012,-515.7851 693.1688,-515.0257 690.3887,-508.6014"/>
</g>
<!-- Node994&#45;&gt;Node982 -->
<g id="edge28" class="edge">
<title>Node994&#45;&gt;Node982</title>
<path fill="none" stroke="#191970" d="M844.1406,-625.389C849.4874,-622.56 854.6109,-619.217 859,-615.2886 910.5586,-569.1418 939.4368,-487.0011 948.1502,-458.9717"/>
<polygon fill="#191970" stroke="#191970" points="842.5815,-622.2544 835.0216,-629.6773 845.5604,-628.589 842.5815,-622.2544"/>
</g>
<!-- Node984&#45;&gt;Node982 -->
<g id="edge30" class="edge">
<title>Node984&#45;&gt;Node982</title>
<path fill="none" stroke="#191970" d="M852.8323,-449.2886C866.3544,-449.2886 881.0137,-449.2886 894.7783,-449.2886"/>
<polygon fill="#191970" stroke="#191970" points="852.7473,-445.7887 842.7473,-449.2886 852.7472,-452.7887 852.7473,-445.7887"/>
</g>
<!-- Node998&#45;&gt;Node982 -->
<g id="edge33" class="edge">
<title>Node998&#45;&gt;Node982</title>
<path fill="none" stroke="#191970" d="M827.4035,-345.1203C860.4053,-372.9345 916.0037,-419.7933 939.7259,-439.7866"/>
<polygon fill="#191970" stroke="#191970" points="829.4353,-342.2554 819.5332,-338.4871 824.9241,-347.6079 829.4353,-342.2554"/>
</g>
<!-- Node998&#45;&gt;Node998 -->
<g id="edge32" class="edge">
<title>Node998&#45;&gt;Node998</title>
<path fill="none" stroke="#191970" d="M775.2022,-348.7465C778.4661,-353.4675 787.2321,-356.7886 801.5,-356.7886 824.9141,-356.7886 833.5114,-347.8451 827.2921,-338.4476"/>
<polygon fill="#191970" stroke="#191970" points="778.7132,-348.6072 775.7079,-338.4476 771.7216,-348.2638 778.7132,-348.6072"/>
</g>
<!-- Node1008&#45;&gt;Node982 -->
<g id="edge37" class="edge">
<title>Node1008&#45;&gt;Node982</title>
<path fill="none" stroke="#191970" d="M688.1085,-385.2509C749.9392,-400.3122 854.925,-425.8857 911.7158,-439.7193"/>
<polygon fill="#191970" stroke="#191970" points="688.7434,-381.8033 678.1991,-382.8371 687.0866,-388.6044 688.7434,-381.8033"/>
</g>
<!-- Node1014&#45;&gt;Node984 -->
<g id="edge42" class="edge">
<title>Node1014&#45;&gt;Node984</title>
<path fill="none" stroke="#191970" d="M534.2569,-470.0608C601.9033,-464.8028 704.034,-456.8644 760.4366,-452.4803"/>
<polygon fill="#191970" stroke="#191970" points="533.8212,-466.584 524.1225,-470.8485 534.3637,-473.563 533.8212,-466.584"/>
</g>
<!-- Node1015&#45;&gt;Node1016 -->
<g id="edge46" class="edge">
<title>Node1015&#45;&gt;Node1016</title>
<path fill="none" stroke="#191970" d="M528.2092,-235.9008C546.1525,-232.5625 565.6702,-228.9313 583.254,-225.6599"/>
<polygon fill="#191970" stroke="#191970" points="527.3311,-232.504 518.14,-237.7741 528.6115,-239.3859 527.3311,-232.504"/>
</g>
<!-- Node1015&#45;&gt;Node991 -->
<g id="edge49" class="edge">
<title>Node1015&#45;&gt;Node991</title>
<path fill="none" stroke="#191970" d="M517.9877,-259.9692C523.4797,-261.858 528.9145,-263.9633 534,-266.2886 570.3028,-282.8875 608.3591,-311.0142 627.1112,-325.7056"/>
<polygon fill="#191970" stroke="#191970" points="518.6948,-256.5206 508.1037,-256.8023 516.5589,-263.1868 518.6948,-256.5206"/>
</g>
<!-- Node1016&#45;&gt;Node982 -->
<g id="edge48" class="edge">
<title>Node1016&#45;&gt;Node982</title>
<path fill="none" stroke="#191970" d="M704.5694,-228.0214C751.6479,-239.8304 814.4025,-261.3173 859,-298.2886 908.1566,-339.0393 938.1681,-413.2537 947.6943,-439.6514"/>
<polygon fill="#191970" stroke="#191970" points="705.3166,-224.6013 694.7735,-225.6463 703.6672,-231.4042 705.3166,-224.6013"/>
</g>
<!-- Node1016&#45;&gt;Node998 -->
<g id="edge47" class="edge">
<title>Node1016&#45;&gt;Node998</title>
<path fill="none" stroke="#191970" d="M688.2537,-234.6331C695.0463,-237.8928 701.8089,-241.4698 708,-245.2886 738.0467,-263.822 768.681,-291.3682 786.3498,-308.2813"/>
<polygon fill="#191970" stroke="#191970" points="689.5715,-231.3869 679.0235,-230.3919 686.6488,-237.7476 689.5715,-231.3869"/>
</g>
<!-- Node991&#45;&gt;Node984 -->
<g id="edge50" class="edge">
<title>Node991&#45;&gt;Node984</title>
<path fill="none" stroke="#191970" d="M696.3432,-348.4989C700.3935,-350.2079 704.3238,-352.1295 708,-354.2886 746.9111,-377.1411 780.7937,-420.2997 794.7316,-439.5699"/>
<polygon fill="#191970" stroke="#191970" points="697.33,-345.1307 686.738,-344.8852 694.8651,-351.6823 697.33,-345.1307"/>
</g>
<!-- Node1019&#45;&gt;Node998 -->
<g id="edge57" class="edge">
<title>Node1019&#45;&gt;Node998</title>
<path fill="none" stroke="#191970" d="M544.464,-276.4814C592.1131,-273.071 654.1551,-272.2546 708,-283.2886 731.35,-288.0735 756.0746,-298.9355 774.2306,-308.1345"/>
<polygon fill="#191970" stroke="#191970" points="543.9183,-273.013 534.2166,-277.2704 544.4558,-279.9923 543.9183,-273.013"/>
</g>
<!-- Node1029&#45;&gt;Node979 -->
<g id="edge72" class="edge">
<title>Node1029&#45;&gt;Node979</title>
<path fill="none" stroke="#191970" d="M205.4026,-496.9768C229.5702,-487.3455 261.6659,-474.5546 283.3705,-465.9047"/>
<polygon fill="#191970" stroke="#191970" points="203.9065,-493.8053 195.9128,-500.7587 206.498,-500.3079 203.9065,-493.8053"/>
</g>
<!-- Node1030&#45;&gt;Node965 -->
<g id="edge74" class="edge">
<title>Node1030&#45;&gt;Node965</title>
<path fill="none" stroke="#191970" d="M357.7731,-993.2658C380.2137,-998.6122 406.2782,-1004.8219 427.3168,-1009.8343"/>
<polygon fill="#191970" stroke="#191970" points="358.2875,-989.7905 347.7486,-990.8776 356.6651,-996.5999 358.2875,-989.7905"/>
</g>
</g>
</svg>
