<?xml version="1.0" encoding="UTF-8" standalone="no"?>
<!DOCTYPE svg PUBLIC "-//W3C//DTD SVG 1.1//EN"
 "http://www.w3.org/Graphics/SVG/1.1/DTD/svg11.dtd">
<!-- Generated by graphviz version 2.40.1 (20161225.0304)
 -->
<!-- Title: list_empty Pages: 1 -->
<!--zoomable 776 -->
<svg id="main" version="1.1" xmlns="http://www.w3.org/2000/svg" xmlns:xlink="http://www.w3.org/1999/xlink" xml:space="preserve" onload="init(evt)">
<style type="text/css"><![CDATA[
.edge:hover path { stroke: red; }
.edge:hover polygon { stroke: red; fill: red; }
]]></style>
<script type="text/javascript"><![CDATA[
var edges = document.getElementsByTagName('g');
if (edges && edges.length) {
  for (var i=0;i<edges.length;i++) {
    if (edges[i].id.substr(0,4)=='edge') {
      edges[i].setAttribute('class','edge');
    }
  }
}
]]></script>
        <defs>
                <circle id="rim" cx="0" cy="0" r="7"/>
                <circle id="rim2" cx="0" cy="0" r="3.5"/>
                <g id="zoomPlus">
                        <use xlink:href="#rim" fill="#404040">
                                <set attributeName="fill" to="#808080" begin="zoomplus.mouseover" end="zoomplus.mouseout"/>
                        </use>
                        <path d="M-4,0h8M0,-4v8" fill="none" stroke="white" stroke-width="1.5" pointer-events="none"/>
                </g>
                <g id="zoomMin">
                        <use xlink:href="#rim" fill="#404040">
                                <set attributeName="fill" to="#808080" begin="zoomminus.mouseover" end="zoomminus.mouseout"/>
                        </use>
                        <path d="M-4,0h8" fill="none" stroke="white" stroke-width="1.5" pointer-events="none"/>
                </g>
                <g id="dirArrow">
                        <path fill="none" stroke="white" stroke-width="1.5" d="M0,-3.0v7 M-2.5,-0.5L0,-3.0L2.5,-0.5"/>
                </g>
               <g id="resetDef">
                       <use xlink:href="#rim2" fill="#404040">
                               <set attributeName="fill" to="#808080" begin="reset.mouseover" end="reset.mouseout"/>
                       </use>
               </g>
        </defs>

<script type="text/javascript">
var viewWidth = 699;
var viewHeight = 776;
var sectionId = 'dynsection-8';
</script>
<script xlink:href="svgpan.js"/>
<svg id="graph" class="graph">
<g id="viewport">
<title>list_empty</title>
<!-- Node2964 -->
<g id="node1" class="node">
<title>Node2964</title>
<polygon fill="#bfbfbf" stroke="#000000" points="0,-584.5 0,-603.5 62,-603.5 62,-584.5 0,-584.5"/>
<text text-anchor="middle" x="31" y="-591.5" font-family="Helvetica,sans-Serif" font-size="10.00" fill="#000000">list_empty</text>
</g>
<!-- Node2965 -->
<g id="node2" class="node">
<title>Node2965</title>
<g id="a_node2"><a xlink:href="quickjs-libc_8c.html#a9fa4c190ba56314c7ed9b00bbc7ad0f9" target="_top" xlink:title="handle_posted_message">
<polygon fill="none" stroke="#000000" points="430,-584.5 430,-603.5 555,-603.5 555,-584.5 430,-584.5"/>
<text text-anchor="middle" x="492.5" y="-591.5" font-family="Helvetica,sans-Serif" font-size="10.00" fill="#000000">handle_posted_message</text>
</a>
</g>
</g>
<!-- Node2964&#45;&gt;Node2965 -->
<g id="edge1" class="edge">
<title>Node2964&#45;&gt;Node2965</title>
<path fill="none" stroke="#191970" d="M72.6905,-594C153.9576,-594 333.9626,-594 429.7262,-594"/>
<polygon fill="#191970" stroke="#191970" points="72.358,-590.5001 62.3579,-594 72.3579,-597.5001 72.358,-590.5001"/>
</g>
<!-- Node2966 -->
<g id="node3" class="node">
<title>Node2966</title>
<g id="a_node3"><a xlink:href="quickjs_8c.html#a89b019c704a2d2914bc30b30a72040b3" target="_top" xlink:title="js_async_generator\l_resume_next">
<polygon fill="none" stroke="#000000" points="442,-623 442,-653 543,-653 543,-623 442,-623"/>
<text text-anchor="start" x="450" y="-641" font-family="Helvetica,sans-Serif" font-size="10.00" fill="#000000">js_async_generator</text>
<text text-anchor="middle" x="492.5" y="-630" font-family="Helvetica,sans-Serif" font-size="10.00" fill="#000000">_resume_next</text>
</a>
</g>
</g>
<!-- Node2964&#45;&gt;Node2966 -->
<g id="edge2" class="edge">
<title>Node2964&#45;&gt;Node2966</title>
<path fill="none" stroke="#191970" d="M72.2771,-603.5031C80.7497,-605.2059 89.6356,-606.8132 98,-608 220.7512,-625.4167 366.5238,-633.1872 441.8302,-636.2557"/>
<polygon fill="#191970" stroke="#191970" points="72.7145,-600.019 62.2101,-601.4006 71.2833,-606.8711 72.7145,-600.019"/>
</g>
<!-- Node2967 -->
<g id="node4" class="node">
<title>Node2967</title>
<g id="a_node4"><a xlink:href="quickjs_8c.html#ac2894ff4edcdb4e6841bcce9c76081e3" target="_top" xlink:title="JS_CallInternal">
<polygon fill="none" stroke="#000000" points="117.5,-508.5 117.5,-527.5 200.5,-527.5 200.5,-508.5 117.5,-508.5"/>
<text text-anchor="middle" x="159" y="-515.5" font-family="Helvetica,sans-Serif" font-size="10.00" fill="#000000">JS_CallInternal</text>
</a>
</g>
</g>
<!-- Node2964&#45;&gt;Node2967 -->
<g id="edge3" class="edge">
<title>Node2964&#45;&gt;Node2967</title>
<path fill="none" stroke="#191970" d="M56.0195,-579.1447C81.7511,-563.8665 121.0618,-540.5258 142.9203,-527.5473"/>
<polygon fill="#191970" stroke="#191970" points="54.0229,-576.2596 47.2113,-584.3745 57.5968,-582.2786 54.0229,-576.2596"/>
</g>
<!-- Node3575 -->
<g id="node24" class="node">
<title>Node3575</title>
<g id="a_node24"><a xlink:href="quickjs_8c.html#a0cc5b21552a1c8bf455b480dac55ecba" target="_top" xlink:title="JS_ExecutePendingJob">
<polygon fill="none" stroke="#000000" points="98.5,-717.5 98.5,-736.5 219.5,-736.5 219.5,-717.5 98.5,-717.5"/>
<text text-anchor="middle" x="159" y="-724.5" font-family="Helvetica,sans-Serif" font-size="10.00" fill="#000000">JS_ExecutePendingJob</text>
</a>
</g>
</g>
<!-- Node2964&#45;&gt;Node3575 -->
<g id="edge32" class="edge">
<title>Node2964&#45;&gt;Node3575</title>
<path fill="none" stroke="#191970" d="M40.4947,-612.3954C51.9755,-633.3312 72.9135,-667.6417 98,-691 109.7897,-701.9775 125.4866,-711.147 138.0047,-717.4844"/>
<polygon fill="#191970" stroke="#191970" points="43.5702,-610.7244 35.7727,-603.5515 37.3952,-614.0214 43.5702,-610.7244"/>
</g>
<!-- Node3576 -->
<g id="node27" class="node">
<title>Node3576</title>
<g id="a_node27"><a xlink:href="quickjs_8c.html#ad80a65b72c3a346d8a0047858a5f0b13" target="_top" xlink:title="JS_FreeRuntime">
<polygon fill="none" stroke="#000000" points="278,-681.5 278,-700.5 368,-700.5 368,-681.5 278,-681.5"/>
<text text-anchor="middle" x="323" y="-688.5" font-family="Helvetica,sans-Serif" font-size="10.00" fill="#000000">JS_FreeRuntime</text>
</a>
</g>
</g>
<!-- Node2964&#45;&gt;Node3576 -->
<g id="edge35" class="edge">
<title>Node2964&#45;&gt;Node3576</title>
<path fill="none" stroke="#191970" d="M46.9469,-611.0916C59.5879,-623.5694 78.3432,-639.8431 98,-649 156.3534,-676.1833 230.9549,-685.7817 277.8728,-689.1655"/>
<polygon fill="#191970" stroke="#191970" points="49.4107,-608.6052 39.9127,-603.9105 44.41,-613.5035 49.4107,-608.6052"/>
</g>
<!-- Node3578 -->
<g id="node29" class="node">
<title>Node3578</title>
<g id="a_node29"><a xlink:href="quickjs_8c.html#a930f8dfc92f51ce318247bc6c17d0aee" target="_top" xlink:title="JS_IsJobPending">
<polygon fill="none" stroke="#000000" points="112.5,-470.5 112.5,-489.5 205.5,-489.5 205.5,-470.5 112.5,-470.5"/>
<text text-anchor="middle" x="159" y="-477.5" font-family="Helvetica,sans-Serif" font-size="10.00" fill="#000000">JS_IsJobPending</text>
</a>
</g>
</g>
<!-- Node2964&#45;&gt;Node3578 -->
<g id="edge39" class="edge">
<title>Node2964&#45;&gt;Node3578</title>
<path fill="none" stroke="#191970" d="M39.5258,-575.245C50.2176,-553.7725 70.5324,-518.9954 98,-499 103.2909,-495.1484 109.3831,-492.063 115.6262,-489.5951"/>
<polygon fill="#191970" stroke="#191970" points="36.336,-573.8025 35.1798,-584.3341 42.6512,-576.8222 36.336,-573.8025"/>
</g>
<!-- Node3138 -->
<g id="node30" class="node">
<title>Node3138</title>
<g id="a_node30"><a xlink:href="quickjs-libc_8c.html#ab995f33d3c307ae55a13a18b88023d15" target="_top" xlink:title="js_worker_postMessage">
<polygon fill="none" stroke="#000000" points="98,-432.5 98,-451.5 220,-451.5 220,-432.5 98,-432.5"/>
<text text-anchor="middle" x="159" y="-439.5" font-family="Helvetica,sans-Serif" font-size="10.00" fill="#000000">js_worker_postMessage</text>
</a>
</g>
</g>
<!-- Node2964&#45;&gt;Node3138 -->
<g id="edge40" class="edge">
<title>Node2964&#45;&gt;Node3138</title>
<path fill="none" stroke="#191970" d="M35.5888,-574.6056C43.4287,-545.678 62.1465,-491.3863 98,-461 102.5694,-457.1274 107.9253,-454.0431 113.5325,-451.5869"/>
<polygon fill="#191970" stroke="#191970" points="32.1841,-573.7929 33.1036,-584.3477 38.9668,-575.5232 32.1841,-573.7929"/>
</g>
<!-- Node2967&#45;&gt;Node2967 -->
<g id="edge4" class="edge">
<title>Node2967&#45;&gt;Node2967</title>
<path fill="none" stroke="#191970" d="M135.1906,-537.0292C136.4893,-542.128 144.4258,-546 159,-546 181.75,-546 188.3262,-536.5653 178.7285,-527.7571"/>
<polygon fill="#191970" stroke="#191970" points="138.4465,-538.3197 139.2715,-527.7571 132.0396,-535.4998 138.4465,-538.3197"/>
</g>
<!-- Node2968 -->
<g id="node5" class="node">
<title>Node2968</title>
<g id="a_node5"><a xlink:href="quickjs_8c.html#a1a4c02a29525d5cb2085dd8bca3af350" target="_top" xlink:title="JS_Call">
<polygon fill="none" stroke="#ff0000" points="297.5,-372.5 297.5,-391.5 348.5,-391.5 348.5,-372.5 297.5,-372.5"/>
<text text-anchor="middle" x="323" y="-379.5" font-family="Helvetica,sans-Serif" font-size="10.00" fill="#000000">JS_Call</text>
</a>
</g>
</g>
<!-- Node2967&#45;&gt;Node2968 -->
<g id="edge5" class="edge">
<title>Node2967&#45;&gt;Node2968</title>
<path fill="none" stroke="#191970" d="M183.8554,-505.3638C195.4845,-501.6218 209.132,-497.0499 220,-490 242.0226,-475.7143 289.818,-415.8896 311.6772,-391.6667"/>
<polygon fill="#191970" stroke="#191970" points="182.7028,-502.0582 174.2761,-508.4802 184.8684,-508.7148 182.7028,-502.0582"/>
</g>
<!-- Node3068 -->
<g id="node21" class="node">
<title>Node3068</title>
<g id="a_node21"><a xlink:href="quickjs_8c.html#a75f6ee5e4235a7dc99889f3d2eb2c147" target="_top" xlink:title="JS_CallFree">
<polygon fill="none" stroke="#ff0000" points="287.5,-334.5 287.5,-353.5 358.5,-353.5 358.5,-334.5 287.5,-334.5"/>
<text text-anchor="middle" x="323" y="-341.5" font-family="Helvetica,sans-Serif" font-size="10.00" fill="#000000">JS_CallFree</text>
</a>
</g>
</g>
<!-- Node2967&#45;&gt;Node3068 -->
<g id="edge25" class="edge">
<title>Node2967&#45;&gt;Node3068</title>
<path fill="none" stroke="#191970" d="M191.271,-505.7483C201.6671,-502.5235 212.4417,-497.8919 220,-490 263.2479,-444.8431 212.1771,-398.5991 256,-354 264.3045,-345.5484 276.0694,-340.7832 287.4284,-338.6254"/>
<polygon fill="#191970" stroke="#191970" points="190.2252,-502.4064 181.5368,-508.4696 192.1099,-509.1479 190.2252,-502.4064"/>
</g>
<!-- Node3534 -->
<g id="node22" class="node">
<title>Node3534</title>
<g id="a_node22"><a xlink:href="quickjs_8c.html#ad35594576a14c10812efaf958c99af8a" target="_top" xlink:title="JS_CallConstructorInternal">
<polygon fill="none" stroke="#ff0000" points="256,-508.5 256,-527.5 390,-527.5 390,-508.5 256,-508.5"/>
<text text-anchor="middle" x="323" y="-515.5" font-family="Helvetica,sans-Serif" font-size="10.00" fill="#000000">JS_CallConstructorInternal</text>
</a>
</g>
</g>
<!-- Node2967&#45;&gt;Node3534 -->
<g id="edge27" class="edge">
<title>Node2967&#45;&gt;Node3534</title>
<path fill="none" stroke="#191970" d="M210.9035,-511.6715C225.1499,-511.2547 240.8036,-511.147 255.7773,-511.3484"/>
<polygon fill="#191970" stroke="#191970" points="210.6781,-508.1772 200.8085,-512.0296 210.9263,-515.1728 210.6781,-508.1772"/>
</g>
<!-- Node3574 -->
<g id="node23" class="node">
<title>Node3574</title>
<g id="a_node23"><a xlink:href="quickjs_8c.html#ade71a22dc56e7371392393df663b28b3" target="_top" xlink:title="async_func_resume">
<polygon fill="none" stroke="#ff0000" points="271,-546.5 271,-565.5 375,-565.5 375,-546.5 271,-546.5"/>
<text text-anchor="middle" x="323" y="-553.5" font-family="Helvetica,sans-Serif" font-size="10.00" fill="#000000">async_func_resume</text>
</a>
</g>
</g>
<!-- Node2967&#45;&gt;Node3574 -->
<g id="edge29" class="edge">
<title>Node2967&#45;&gt;Node3574</title>
<path fill="none" stroke="#191970" d="M210.341,-529.8961C233.3929,-535.2374 260.2211,-541.4537 281.9135,-546.4799"/>
<polygon fill="#191970" stroke="#191970" points="210.9161,-526.4367 200.3841,-527.589 209.336,-533.256 210.9161,-526.4367"/>
</g>
<!-- Node2968&#45;&gt;Node2965 -->
<g id="edge8" class="edge">
<title>Node2968&#45;&gt;Node2965</title>
<path fill="none" stroke="#191970" d="M334.0071,-400.1958C347.6645,-422.9997 371.4192,-463.4156 390,-499 407.2997,-532.1309 397.4946,-550.826 426,-575 430.5788,-578.883 435.9057,-581.974 441.5139,-584.4343"/>
<polygon fill="#191970" stroke="#191970" points="336.9702,-398.3318 328.8166,-391.5665 330.9717,-401.9398 336.9702,-398.3318"/>
</g>
<!-- Node2968&#45;&gt;Node2967 -->
<g id="edge13" class="edge">
<title>Node2968&#45;&gt;Node2967</title>
<path fill="none" stroke="#191970" d="M312.8359,-400.1239C291.5529,-431.7137 242.4204,-493.4562 220,-508 214.1374,-511.803 207.466,-514.8848 200.739,-517.2361"/>
<polygon fill="#191970" stroke="#191970" points="315.7768,-402.0216 318.272,-391.7248 309.9002,-398.2181 315.7768,-402.0216"/>
</g>
<!-- Node2969 -->
<g id="node6" class="node">
<title>Node2969</title>
<g id="a_node6"><a xlink:href="structqjs_1_1js__traits_3_01std_1_1function_3_01R_07Args_8_8_8_08_4_01_4.html#ac449e51d3fe10c6c115596fa6ec278ee" target="_top" xlink:title="qjs::js_traits\&lt; std\l::function\&lt; R(Args...)\l\&gt; \&gt;::unwrap">
<polygon fill="none" stroke="#000000" points="438,-410.5 438,-451.5 547,-451.5 547,-410.5 438,-410.5"/>
<text text-anchor="start" x="446" y="-439.5" font-family="Helvetica,sans-Serif" font-size="10.00" fill="#000000">qjs::js_traits&lt; std</text>
<text text-anchor="start" x="446" y="-428.5" font-family="Helvetica,sans-Serif" font-size="10.00" fill="#000000">::function&lt; R(Args...)</text>
<text text-anchor="middle" x="492.5" y="-417.5" font-family="Helvetica,sans-Serif" font-size="10.00" fill="#000000">&gt; &gt;::unwrap</text>
</a>
</g>
</g>
<!-- Node2968&#45;&gt;Node2969 -->
<g id="edge6" class="edge">
<title>Node2968&#45;&gt;Node2969</title>
<path fill="none" stroke="#191970" d="M358.4025,-392.2344C381.3408,-398.8655 411.6805,-407.6363 437.6986,-415.1577"/>
<polygon fill="#191970" stroke="#191970" points="359.3221,-388.8569 348.7434,-389.442 357.378,-395.5816 359.3221,-388.8569"/>
</g>
<!-- Node2970 -->
<g id="node7" class="node">
<title>Node2970</title>
<g id="a_node7"><a xlink:href="quickjs-libc_8c.html#abb1cbe3fdf905e81f603a3a0bfce475a" target="_top" xlink:title="call_handler">
<polygon fill="none" stroke="#000000" points="458.5,-372.5 458.5,-391.5 526.5,-391.5 526.5,-372.5 458.5,-372.5"/>
<text text-anchor="middle" x="492.5" y="-379.5" font-family="Helvetica,sans-Serif" font-size="10.00" fill="#000000">call_handler</text>
</a>
</g>
</g>
<!-- Node2968&#45;&gt;Node2970 -->
<g id="edge7" class="edge">
<title>Node2968&#45;&gt;Node2970</title>
<path fill="none" stroke="#191970" d="M358.9702,-382C388.3013,-382 429.4516,-382 458.2948,-382"/>
<polygon fill="#191970" stroke="#191970" points="358.7434,-378.5001 348.7434,-382 358.7434,-385.5001 358.7434,-378.5001"/>
</g>
<!-- Node2971 -->
<g id="node8" class="node">
<title>Node2971</title>
<g id="a_node8"><a xlink:href="quickjs_8c.html#aa049793cc8648d35fe81876a2543ca4e" target="_top" xlink:title="JS_GetIterator2">
<polygon fill="none" stroke="#ff0000" points="449.5,-334.5 449.5,-353.5 535.5,-353.5 535.5,-334.5 449.5,-334.5"/>
<text text-anchor="middle" x="492.5" y="-341.5" font-family="Helvetica,sans-Serif" font-size="10.00" fill="#000000">JS_GetIterator2</text>
</a>
</g>
</g>
<!-- Node2968&#45;&gt;Node2971 -->
<g id="edge9" class="edge">
<title>Node2968&#45;&gt;Node2971</title>
<path fill="none" stroke="#191970" d="M358.7896,-373.9764C385.427,-368.0046 421.8858,-359.8309 450.0048,-353.5269"/>
<polygon fill="#191970" stroke="#191970" points="357.7355,-370.6257 348.7434,-376.2286 359.2669,-377.4562 357.7355,-370.6257"/>
</g>
<!-- Node3007 -->
<g id="node9" class="node">
<title>Node3007</title>
<g id="a_node9"><a xlink:href="quickjs_8c.html#ad6303fbd3add4afa0cb64b0aa6d431ce" target="_top" xlink:title="JS_IteratorNext2">
<polygon fill="none" stroke="#ff0000" points="447,-296.5 447,-315.5 538,-315.5 538,-296.5 447,-296.5"/>
<text text-anchor="middle" x="492.5" y="-303.5" font-family="Helvetica,sans-Serif" font-size="10.00" fill="#000000">JS_IteratorNext2</text>
</a>
</g>
</g>
<!-- Node2968&#45;&gt;Node3007 -->
<g id="edge10" class="edge">
<title>Node2968&#45;&gt;Node3007</title>
<path fill="none" stroke="#191970" d="M358.6501,-375.6619C369.2302,-372.8076 380.516,-368.7415 390,-363 409.9016,-350.9518 406.1103,-337.0679 426,-325 432.3645,-321.1384 439.5468,-318.0328 446.7774,-315.5436"/>
<polygon fill="#191970" stroke="#191970" points="357.7018,-372.2902 348.8044,-378.0423 359.3469,-379.0942 357.7018,-372.2902"/>
</g>
<!-- Node3011 -->
<g id="node10" class="node">
<title>Node3011</title>
<g id="a_node10"><a xlink:href="quickjs_8c.html#afd4ef2d701fa0702f321925b61c57bbf" target="_top" xlink:title="js_call_bound_function">
<polygon fill="none" stroke="#000000" points="434.5,-470.5 434.5,-489.5 550.5,-489.5 550.5,-470.5 434.5,-470.5"/>
<text text-anchor="middle" x="492.5" y="-477.5" font-family="Helvetica,sans-Serif" font-size="10.00" fill="#000000">js_call_bound_function</text>
</a>
</g>
</g>
<!-- Node2968&#45;&gt;Node3011 -->
<g id="edge11" class="edge">
<title>Node2968&#45;&gt;Node3011</title>
<path fill="none" stroke="#191970" d="M340.3778,-398.6749C359.7993,-416.4663 392.886,-444.3333 426,-461 433.5077,-464.7787 441.8817,-467.9115 450.0869,-470.4691"/>
<polygon fill="#191970" stroke="#191970" points="342.6308,-395.9902 332.9307,-391.7289 337.8562,-401.1092 342.6308,-395.9902"/>
</g>
<!-- Node3019 -->
<g id="node12" class="node">
<title>Node3019</title>
<g id="a_node12"><a xlink:href="quickjs_8c.html#a1bf6b62983e8fff99c0a5d5a9f486115" target="_top" xlink:title="js_async_function_resume">
<polygon fill="none" stroke="#ff0000" points="426,-546.5 426,-565.5 559,-565.5 559,-546.5 426,-546.5"/>
<text text-anchor="middle" x="492.5" y="-553.5" font-family="Helvetica,sans-Serif" font-size="10.00" fill="#000000">js_async_function_resume</text>
</a>
</g>
</g>
<!-- Node2968&#45;&gt;Node3019 -->
<g id="edge14" class="edge">
<title>Node2968&#45;&gt;Node3019</title>
<path fill="none" stroke="#191970" d="M333.2584,-400.7403C353.8673,-437.7722 400.501,-518.3578 426,-537 431.3311,-540.8976 437.441,-543.9974 443.749,-546.4623"/>
<polygon fill="#191970" stroke="#191970" points="336.2907,-398.991 328.3906,-391.9313 330.1639,-402.3767 336.2907,-398.991"/>
</g>
<!-- Node3023 -->
<g id="node13" class="node">
<title>Node3023</title>
<g id="a_node13"><a xlink:href="quickjs_8c.html#a3e852026d167fa03c673f86697dd3e67" target="_top" xlink:title="js_async_generator\l_resolve_or_reject">
<polygon fill="none" stroke="#ff0000" points="442,-247 442,-277 543,-277 543,-247 442,-247"/>
<text text-anchor="start" x="450" y="-265" font-family="Helvetica,sans-Serif" font-size="10.00" fill="#000000">js_async_generator</text>
<text text-anchor="middle" x="492.5" y="-254" font-family="Helvetica,sans-Serif" font-size="10.00" fill="#000000">_resolve_or_reject</text>
</a>
</g>
</g>
<!-- Node2968&#45;&gt;Node3023 -->
<g id="edge15" class="edge">
<title>Node2968&#45;&gt;Node3023</title>
<path fill="none" stroke="#191970" d="M358.5211,-377.7734C369.5754,-375.0168 381.1677,-370.4753 390,-363 418.5292,-338.8541 398.5005,-312.3124 426,-287 430.6282,-282.7399 436.0516,-279.185 441.7697,-276.2234"/>
<polygon fill="#191970" stroke="#191970" points="357.6916,-374.371 348.6151,-379.8361 359.1186,-381.224 357.6916,-374.371"/>
</g>
<!-- Node3026 -->
<g id="node14" class="node">
<title>Node3026</title>
<g id="a_node14"><a xlink:href="quickjs_8c.html#a2355fabf91f59212ea65baba1b0b7c1b" target="_top" xlink:title="js_async_generator_next">
<polygon fill="none" stroke="#000000" points="430,-208.5 430,-227.5 555,-227.5 555,-208.5 430,-208.5"/>
<text text-anchor="middle" x="492.5" y="-215.5" font-family="Helvetica,sans-Serif" font-size="10.00" fill="#000000">js_async_generator_next</text>
</a>
</g>
</g>
<!-- Node2968&#45;&gt;Node3026 -->
<g id="edge16" class="edge">
<title>Node2968&#45;&gt;Node3026</title>
<path fill="none" stroke="#191970" d="M358.7439,-378.7234C370.0131,-376.0418 381.6789,-371.3047 390,-363 431.2231,-321.8581 384.8175,-278.1825 426,-237 429.8206,-233.1794 434.3529,-230.1148 439.2285,-227.6586"/>
<polygon fill="#191970" stroke="#191970" points="357.7826,-375.3434 348.6134,-380.6515 359.0915,-382.22 357.7826,-375.3434"/>
</g>
<!-- Node3027 -->
<g id="node15" class="node">
<title>Node3027</title>
<g id="a_node15"><a xlink:href="quickjs_8c.html#adc0280beaa04d2b8fcaf05a82ab26c74" target="_top" xlink:title="js_link_module">
<polygon fill="none" stroke="#ff0000" points="452,-152.5 452,-171.5 533,-171.5 533,-152.5 452,-152.5"/>
<text text-anchor="middle" x="492.5" y="-159.5" font-family="Helvetica,sans-Serif" font-size="10.00" fill="#000000">js_link_module</text>
</a>
</g>
</g>
<!-- Node2968&#45;&gt;Node3027 -->
<g id="edge17" class="edge">
<title>Node2968&#45;&gt;Node3027</title>
<path fill="none" stroke="#191970" d="M358.4318,-379.1601C369.916,-376.5309 381.7949,-371.7149 390,-363 441.1543,-308.6674 381.4603,-258.8749 426,-199 435.3838,-186.3854 450.4129,-177.5034 463.8113,-171.6097"/>
<polygon fill="#191970" stroke="#191970" points="357.7598,-375.7248 348.5435,-380.9508 359.0072,-382.6128 357.7598,-375.7248"/>
</g>
<!-- Node3031 -->
<g id="node16" class="node">
<title>Node3031</title>
<g id="a_node16"><a xlink:href="quickjs_8c.html#a6357b7fdae71c70c140e78e6c20cb5c2" target="_top" xlink:title="js_dynamic_import_job">
<polygon fill="none" stroke="#ff0000" points="434.5,-114.5 434.5,-133.5 550.5,-133.5 550.5,-114.5 434.5,-114.5"/>
<text text-anchor="middle" x="492.5" y="-121.5" font-family="Helvetica,sans-Serif" font-size="10.00" fill="#000000">js_dynamic_import_job</text>
</a>
</g>
</g>
<!-- Node2968&#45;&gt;Node3031 -->
<g id="edge19" class="edge">
<title>Node2968&#45;&gt;Node3031</title>
<path fill="none" stroke="#191970" d="M358.7001,-379.406C370.2076,-376.7981 382.0326,-371.9328 390,-363 455.9492,-289.0595 360.1238,-217.0055 426,-143 429.4329,-139.1435 433.5887,-136.0465 438.1278,-133.5626"/>
<polygon fill="#191970" stroke="#191970" points="358.0114,-375.9734 348.7741,-381.1621 359.2309,-382.8663 358.0114,-375.9734"/>
</g>
<!-- Node3035 -->
<g id="node17" class="node">
<title>Node3035</title>
<g id="a_node17"><a xlink:href="quickjs_8c.html#a8d4b24969540aff427939eeda47f451d" target="_top" xlink:title="js_function_apply">
<polygon fill="none" stroke="#ff0000" points="446.5,-508.5 446.5,-527.5 538.5,-527.5 538.5,-508.5 446.5,-508.5"/>
<text text-anchor="middle" x="492.5" y="-515.5" font-family="Helvetica,sans-Serif" font-size="10.00" fill="#000000">js_function_apply</text>
</a>
</g>
</g>
<!-- Node2968&#45;&gt;Node3035 -->
<g id="edge20" class="edge">
<title>Node2968&#45;&gt;Node3035</title>
<path fill="none" stroke="#191970" d="M336.5366,-399.6927C359.2239,-428.9261 404.5427,-485.4388 426,-499 432.1914,-502.9131 439.208,-506.0401 446.305,-508.5335"/>
<polygon fill="#191970" stroke="#191970" points="339.1529,-397.354 330.2738,-391.5738 333.6104,-401.6295 339.1529,-397.354"/>
</g>
<!-- Node3038 -->
<g id="node18" class="node">
<title>Node3038</title>
<g id="a_node18"><a xlink:href="quickjs_8c.html#a677ad630a103e1f3d5129e0549112b50" target="_top" xlink:title="js_function_call">
<polygon fill="none" stroke="#000000" points="450.5,-76.5 450.5,-95.5 534.5,-95.5 534.5,-76.5 450.5,-76.5"/>
<text text-anchor="middle" x="492.5" y="-83.5" font-family="Helvetica,sans-Serif" font-size="10.00" fill="#000000">js_function_call</text>
</a>
</g>
</g>
<!-- Node2968&#45;&gt;Node3038 -->
<g id="edge22" class="edge">
<title>Node2968&#45;&gt;Node3038</title>
<path fill="none" stroke="#191970" d="M358.5495,-379.5717C370.1527,-376.9886 382.077,-372.0966 390,-363 466.0416,-275.6952 350.0446,-192.3797 426,-105 432.3018,-97.7504 441.1591,-93.1763 450.3593,-90.3135"/>
<polygon fill="#191970" stroke="#191970" points="357.8049,-376.1483 348.5441,-381.2949 358.9931,-383.0467 357.8049,-376.1483"/>
</g>
<!-- Node2974 -->
<g id="node19" class="node">
<title>Node2974</title>
<g id="a_node19"><a xlink:href="quickjs_8c.html#a5e32da9a43002cb96dcbd62a1a340144" target="_top" xlink:title="js_array_from">
<polygon fill="none" stroke="#000000" points="454.5,-38.5 454.5,-57.5 530.5,-57.5 530.5,-38.5 454.5,-38.5"/>
<text text-anchor="middle" x="492.5" y="-45.5" font-family="Helvetica,sans-Serif" font-size="10.00" fill="#000000">js_array_from</text>
</a>
</g>
</g>
<!-- Node2968&#45;&gt;Node2974 -->
<g id="edge23" class="edge">
<title>Node2968&#45;&gt;Node2974</title>
<path fill="none" stroke="#191970" d="M358.6394,-379.6492C370.2508,-377.0733 382.1574,-372.166 390,-363 476.1577,-262.3039 339.9416,-167.7811 426,-67 433.1734,-58.5994 443.7794,-53.7829 454.4244,-51.0594"/>
<polygon fill="#191970" stroke="#191970" points="357.8884,-376.2267 348.6209,-381.3612 359.0675,-383.1267 357.8884,-376.2267"/>
</g>
<!-- Node3003 -->
<g id="node20" class="node">
<title>Node3003</title>
<g id="a_node20"><a xlink:href="quickjs_8c.html#aa0bbf08a7e91459c68a312fba7016c6d" target="_top" xlink:title="js_array_every">
<polygon fill="none" stroke="#000000" points="452.5,-.5 452.5,-19.5 532.5,-19.5 532.5,-.5 452.5,-.5"/>
<text text-anchor="middle" x="492.5" y="-7.5" font-family="Helvetica,sans-Serif" font-size="10.00" fill="#000000">js_array_every</text>
</a>
</g>
</g>
<!-- Node2968&#45;&gt;Node3003 -->
<g id="edge24" class="edge">
<title>Node2968&#45;&gt;Node3003</title>
<path fill="none" stroke="#191970" d="M358.7095,-379.7088C370.3275,-377.1384 382.2202,-372.2193 390,-363 486.2894,-248.8943 329.8232,-143.2006 426,-29 432.6517,-21.1017 442.3391,-16.3658 452.2719,-13.559"/>
<polygon fill="#191970" stroke="#191970" points="357.9535,-376.287 348.6808,-381.4121 359.1257,-383.1882 357.9535,-376.287"/>
</g>
<!-- Node3012 -->
<g id="node11" class="node">
<title>Node3012</title>
<g id="a_node11"><a xlink:href="quickjs_8c.html#a27966451027feb455b5da12c1578771c" target="_top" xlink:title="JS_NewRuntime2">
<polygon fill="none" stroke="#ff0000" points="595,-571.5 595,-590.5 691,-590.5 691,-571.5 595,-571.5"/>
<text text-anchor="middle" x="643" y="-578.5" font-family="Helvetica,sans-Serif" font-size="10.00" fill="#000000">JS_NewRuntime2</text>
</a>
</g>
</g>
<!-- Node3011&#45;&gt;Node3012 -->
<g id="edge12" class="edge">
<title>Node3011&#45;&gt;Node3012</title>
<path fill="none" stroke="#191970" d="M546.798,-493.0284C551.0366,-494.7879 555.1575,-496.7701 559,-499 592.4909,-518.4355 622.5395,-554.1905 635.8073,-571.3348"/>
<polygon fill="#191970" stroke="#191970" points="547.9862,-489.7361 537.3935,-489.5224 545.5409,-496.2951 547.9862,-489.7361"/>
</g>
<!-- Node3027&#45;&gt;Node3027 -->
<g id="edge18" class="edge">
<title>Node3027&#45;&gt;Node3027</title>
<path fill="none" stroke="#191970" d="M464.5009,-180.6539C465.6712,-185.9368 475.0043,-190 492.5,-190 519.1602,-190 526.8666,-180.5653 515.6194,-171.7571"/>
<polygon fill="#191970" stroke="#191970" points="467.6403,-182.208 469.3806,-171.7571 461.5029,-178.8417 467.6403,-182.208"/>
</g>
<!-- Node3035&#45;&gt;Node2967 -->
<g id="edge21" class="edge">
<title>Node3035&#45;&gt;Node2967</title>
<path fill="none" stroke="#191970" d="M441.0071,-506.549C424.7737,-503.4533 406.7157,-500.5362 390,-499 330.6944,-493.5498 315.2772,-493.2491 256,-499 236.8703,-500.8559 215.9127,-504.7246 198.3881,-508.4897"/>
<polygon fill="#191970" stroke="#191970" points="440.3626,-509.9892 450.8507,-508.4888 441.7161,-503.1213 440.3626,-509.9892"/>
</g>
<!-- Node3068&#45;&gt;Node2967 -->
<g id="edge26" class="edge">
<title>Node3068&#45;&gt;Node2967</title>
<path fill="none" stroke="#191970" d="M285.8287,-356.0718C274.9741,-359.238 263.9152,-363.9446 256,-372 212.1771,-416.5991 263.2479,-462.8431 220,-508 214.7062,-513.5275 207.8346,-517.4556 200.6204,-520.0687"/>
<polygon fill="#191970" stroke="#191970" points="286.8321,-359.4277 295.6439,-353.5452 285.0871,-352.6487 286.8321,-359.4277"/>
</g>
<!-- Node3534&#45;&gt;Node2967 -->
<g id="edge28" class="edge">
<title>Node3534&#45;&gt;Node2967</title>
<path fill="none" stroke="#191970" d="M245.6679,-524.7403C230.1999,-524.8048 214.5097,-524.5482 200.8085,-523.9704"/>
<polygon fill="#191970" stroke="#191970" points="245.8085,-528.2393 255.7773,-524.6516 245.747,-521.2395 245.8085,-528.2393"/>
</g>
<!-- Node3574&#45;&gt;Node2966 -->
<g id="edge31" class="edge">
<title>Node3574&#45;&gt;Node2966</title>
<path fill="none" stroke="#191970" d="M347.3853,-570.8214C367.9323,-582.9844 398.3234,-600.2224 426,-613 433.5028,-616.4639 441.6334,-619.827 449.5492,-622.9049"/>
<polygon fill="#191970" stroke="#191970" points="349.0628,-567.7465 338.6826,-565.6243 345.4737,-573.7564 349.0628,-567.7465"/>
</g>
<!-- Node3574&#45;&gt;Node3019 -->
<g id="edge30" class="edge">
<title>Node3574&#45;&gt;Node3019</title>
<path fill="none" stroke="#191970" d="M385.5492,-556C398.6415,-556 412.4944,-556 425.7334,-556"/>
<polygon fill="#191970" stroke="#191970" points="385.2387,-552.5001 375.2387,-556 385.2386,-559.5001 385.2387,-552.5001"/>
</g>
<!-- Node3165 -->
<g id="node25" class="node">
<title>Node3165</title>
<g id="a_node25"><a xlink:href="quickjs-libc_8c.html#af7480dad10e937004e36b2b409b084a4" target="_top" xlink:title="js_std_loop">
<polygon fill="none" stroke="#ff0000" points="290,-738.5 290,-757.5 356,-757.5 356,-738.5 290,-738.5"/>
<text text-anchor="middle" x="323" y="-745.5" font-family="Helvetica,sans-Serif" font-size="10.00" fill="#000000">js_std_loop</text>
</a>
</g>
</g>
<!-- Node3575&#45;&gt;Node3165 -->
<g id="edge33" class="edge">
<title>Node3575&#45;&gt;Node3165</title>
<path fill="none" stroke="#191970" d="M229.7382,-736.0579C250.5985,-738.7291 272.4499,-741.5271 289.7535,-743.7428"/>
<polygon fill="#191970" stroke="#191970" points="229.9652,-732.5585 219.6016,-734.76 229.076,-739.5018 229.9652,-732.5585"/>
</g>
<!-- Node3015 -->
<g id="node26" class="node">
<title>Node3015</title>
<g id="a_node26"><a xlink:href="quickjs-libc_8c.html#a1fbb3adc15e7b967479fc1940e99b67a" target="_top" xlink:title="worker_func">
<polygon fill="none" stroke="#ff0000" points="457.5,-748.5 457.5,-767.5 527.5,-767.5 527.5,-748.5 457.5,-748.5"/>
<text text-anchor="middle" x="492.5" y="-755.5" font-family="Helvetica,sans-Serif" font-size="10.00" fill="#000000">worker_func</text>
</a>
</g>
</g>
<!-- Node3165&#45;&gt;Node3015 -->
<g id="edge34" class="edge">
<title>Node3165&#45;&gt;Node3015</title>
<path fill="none" stroke="#191970" d="M366.103,-750.543C394.4029,-752.2126 430.9479,-754.3686 457.4574,-755.9326"/>
<polygon fill="#191970" stroke="#191970" points="366.2725,-747.047 356.0837,-749.9518 365.8602,-754.0348 366.2725,-747.047"/>
</g>
<!-- Node3576&#45;&gt;Node3012 -->
<g id="edge38" class="edge">
<title>Node3576&#45;&gt;Node3012</title>
<path fill="none" stroke="#191970" d="M378.6473,-694.2586C428.3164,-694.9357 501.8259,-690.3172 559,-663 594.3065,-646.131 623.9032,-608.4405 636.495,-590.6496"/>
<polygon fill="#191970" stroke="#191970" points="378.4973,-690.7547 368.4247,-694.04 378.3476,-697.7531 378.4973,-690.7547"/>
</g>
<!-- Node3576&#45;&gt;Node3015 -->
<g id="edge37" class="edge">
<title>Node3576&#45;&gt;Node3015</title>
<path fill="none" stroke="#191970" d="M350.2799,-705.1554C370.7546,-715.4224 399.6724,-729.1744 426,-739 436.0118,-742.7365 447.0998,-746.1714 457.3056,-749.0628"/>
<polygon fill="#191970" stroke="#191970" points="351.7332,-701.9682 341.2312,-700.5691 348.5685,-708.212 351.7332,-701.9682"/>
</g>
<!-- Node3577 -->
<g id="node28" class="node">
<title>Node3577</title>
<g id="a_node28"><a xlink:href="classqjs_1_1Runtime.html#a44c5deb57118d67e36f2e002f393ff43" target="_top" xlink:title="qjs::Runtime::~Runtime">
<polygon fill="none" stroke="#000000" points="432,-710.5 432,-729.5 553,-729.5 553,-710.5 432,-710.5"/>
<text text-anchor="middle" x="492.5" y="-717.5" font-family="Helvetica,sans-Serif" font-size="10.00" fill="#000000">qjs::Runtime::~Runtime</text>
</a>
</g>
</g>
<!-- Node3576&#45;&gt;Node3577 -->
<g id="edge36" class="edge">
<title>Node3576&#45;&gt;Node3577</title>
<path fill="none" stroke="#191970" d="M378.3236,-700.4654C397.1306,-703.6831 418.145,-707.2785 436.9682,-710.499"/>
<polygon fill="#191970" stroke="#191970" points="378.8699,-697.0081 368.4229,-698.7715 377.6894,-703.9078 378.8699,-697.0081"/>
</g>
</g>
</svg>
        <g id="navigator" transform="translate(0 0)" fill="#404254">
                <rect fill="#f2f5e9" fill-opacity="0.5" stroke="#606060" stroke-width=".5" x="0" y="0" width="60" height="60"/>
                <use id="zoomplus" xlink:href="#zoomPlus" x="17" y="9" onmousedown="handleZoom(evt,'in')"/>
                <use id="zoomminus" xlink:href="#zoomMin" x="42" y="9" onmousedown="handleZoom(evt,'out')"/>
                <use id="reset" xlink:href="#resetDef" x="30" y="36" onmousedown="handleReset()"/>
                <g id="arrowUp" xlink:href="#dirArrow" transform="translate(30 24)" onmousedown="handlePan(0,-1)">
                  <use xlink:href="#rim" fill="#404040">
                        <set attributeName="fill" to="#808080" begin="arrowUp.mouseover" end="arrowUp.mouseout"/>
                  </use>
                  <path fill="none" stroke="white" stroke-width="1.5" d="M0,-3.0v7 M-2.5,-0.5L0,-3.0L2.5,-0.5"/>
                </g>
                <g id="arrowRight" xlink:href="#dirArrow" transform="rotate(90) translate(36 -43)" onmousedown="handlePan(1,0)">
                  <use xlink:href="#rim" fill="#404040">
                        <set attributeName="fill" to="#808080" begin="arrowRight.mouseover" end="arrowRight.mouseout"/>
                  </use>
                  <path fill="none" stroke="white" stroke-width="1.5" d="M0,-3.0v7 M-2.5,-0.5L0,-3.0L2.5,-0.5"/>
                </g>
                <g id="arrowDown" xlink:href="#dirArrow" transform="rotate(180) translate(-30 -48)" onmousedown="handlePan(0,1)">
                  <use xlink:href="#rim" fill="#404040">
                        <set attributeName="fill" to="#808080" begin="arrowDown.mouseover" end="arrowDown.mouseout"/>
                  </use>
                  <path fill="none" stroke="white" stroke-width="1.5" d="M0,-3.0v7 M-2.5,-0.5L0,-3.0L2.5,-0.5"/>
                </g>
                <g id="arrowLeft" xlink:href="#dirArrow" transform="rotate(270) translate(-36 17)" onmousedown="handlePan(-1,0)">
                  <use xlink:href="#rim" fill="#404040">
                        <set attributeName="fill" to="#808080" begin="arrowLeft.mouseover" end="arrowLeft.mouseout"/>
                  </use>
                  <path fill="none" stroke="white" stroke-width="1.5" d="M0,-3.0v7 M-2.5,-0.5L0,-3.0L2.5,-0.5"/>
                </g>
        </g>
        <svg viewBox="0 0 15 15" width="100%" height="30px" preserveAspectRatio="xMaxYMin meet">
         <g id="arrow_out" transform="scale(0.3 0.3)">
          <a xlink:href="list_8h_acc8877b883e77ef12325dd5bfa4be0d3_icgraph_org.svg" target="_base">
           <rect id="button" ry="5" rx="5" y="6" x="6" height="38" width="38"
                fill="#f2f5e9" fill-opacity="0.5" stroke="#606060" stroke-width="1.0"/>
           <path id="arrow"
             d="M 11.500037,31.436501 C 11.940474,20.09759 22.043105,11.32322 32.158766,21.979434 L 37.068811,17.246167 C 37.068811,17.246167 37.088388,32 37.088388,32 L 22.160133,31.978069 C 22.160133,31.978069 26.997745,27.140456 26.997745,27.140456 C 18.528582,18.264221 13.291696,25.230495 11.500037,31.436501 z"
             style="fill:#404040;"/>
          </a>
         </g>
        </svg>
</svg>
