<?xml version="1.0" encoding="UTF-8" standalone="no"?>
<!DOCTYPE svg PUBLIC "-//W3C//DTD SVG 1.1//EN"
 "http://www.w3.org/Graphics/SVG/1.1/DTD/svg11.dtd">
<!-- Generated by graphviz version 2.40.1 (20161225.0304)
 -->
<!-- Title: lre_check_stack_overflow Pages: 1 -->
<!--zoomable 85 -->
<svg id="main" version="1.1" xmlns="http://www.w3.org/2000/svg" xmlns:xlink="http://www.w3.org/1999/xlink" xml:space="preserve" onload="init(evt)">
<style type="text/css"><![CDATA[
.edge:hover path { stroke: red; }
.edge:hover polygon { stroke: red; fill: red; }
]]></style>
<script type="text/javascript"><![CDATA[
var edges = document.getElementsByTagName('g');
if (edges && edges.length) {
  for (var i=0;i<edges.length;i++) {
    if (edges[i].id.substr(0,4)=='edge') {
      edges[i].setAttribute('class','edge');
    }
  }
}
]]></script>
        <defs>
                <circle id="rim" cx="0" cy="0" r="7"/>
                <circle id="rim2" cx="0" cy="0" r="3.5"/>
                <g id="zoomPlus">
                        <use xlink:href="#rim" fill="#404040">
                                <set attributeName="fill" to="#808080" begin="zoomplus.mouseover" end="zoomplus.mouseout"/>
                        </use>
                        <path d="M-4,0h8M0,-4v8" fill="none" stroke="white" stroke-width="1.5" pointer-events="none"/>
                </g>
                <g id="zoomMin">
                        <use xlink:href="#rim" fill="#404040">
                                <set attributeName="fill" to="#808080" begin="zoomminus.mouseover" end="zoomminus.mouseout"/>
                        </use>
                        <path d="M-4,0h8" fill="none" stroke="white" stroke-width="1.5" pointer-events="none"/>
                </g>
                <g id="dirArrow">
                        <path fill="none" stroke="white" stroke-width="1.5" d="M0,-3.0v7 M-2.5,-0.5L0,-3.0L2.5,-0.5"/>
                </g>
               <g id="resetDef">
                       <use xlink:href="#rim2" fill="#404040">
                               <set attributeName="fill" to="#808080" begin="reset.mouseover" end="reset.mouseout"/>
                       </use>
               </g>
        </defs>

<script type="text/javascript">
var viewWidth = 535;
var viewHeight = 85;
var sectionId = 'dynsection-1609';
</script>
<script xlink:href="svgpan.js"/>
<svg id="graph" class="graph">
<g id="viewport">
<title>lre_check_stack_overflow</title>
<!-- Node431819 -->
<g id="node1" class="node">
<title>Node431819</title>
<polygon fill="#bfbfbf" stroke="#000000" points="0,-19.5 0,-38.5 130,-38.5 130,-19.5 0,-19.5"/>
<text text-anchor="middle" x="65" y="-26.5" font-family="Helvetica,sans-Serif" font-size="10.00" fill="#000000">lre_check_stack_overflow</text>
</g>
<!-- Node431820 -->
<g id="node2" class="node">
<title>Node431820</title>
<g id="a_node2"><a xlink:href="libregexp_8c.html#af445f369f2ccbbc81596e0fbed929b7e" target="_top" xlink:title="re_parse_disjunction">
<polygon fill="none" stroke="#000000" points="166,-19.5 166,-38.5 272,-38.5 272,-19.5 166,-19.5"/>
<text text-anchor="middle" x="219" y="-26.5" font-family="Helvetica,sans-Serif" font-size="10.00" fill="#000000">re_parse_disjunction</text>
</a>
</g>
</g>
<!-- Node431819&#45;&gt;Node431820 -->
<g id="edge1" class="edge">
<title>Node431819&#45;&gt;Node431820</title>
<path fill="none" stroke="#191970" d="M140.3338,-29C148.9051,-29 157.504,-29 165.7054,-29"/>
<polygon fill="#191970" stroke="#191970" points="140.3099,-25.5001 130.3099,-29 140.3098,-32.5001 140.3099,-25.5001"/>
</g>
<!-- Node431821 -->
<g id="node3" class="node">
<title>Node431821</title>
<g id="a_node3"><a xlink:href="libregexp_8h.html#a9f2d004d841acbf42a7cf0490258b5ab" target="_top" xlink:title="lre_compile">
<polygon fill="none" stroke="#000000" points="314.5,-57.5 314.5,-76.5 380.5,-76.5 380.5,-57.5 314.5,-57.5"/>
<text text-anchor="middle" x="347.5" y="-64.5" font-family="Helvetica,sans-Serif" font-size="10.00" fill="#000000">lre_compile</text>
</a>
</g>
</g>
<!-- Node431820&#45;&gt;Node431821 -->
<g id="edge2" class="edge">
<title>Node431820&#45;&gt;Node431821</title>
<path fill="none" stroke="#191970" d="M261.3891,-41.5353C278.87,-46.7048 298.8022,-52.5991 315.0844,-57.4141"/>
<polygon fill="#191970" stroke="#191970" points="262.008,-38.0686 251.426,-38.589 260.0229,-44.7812 262.008,-38.0686"/>
</g>
<!-- Node431831 -->
<g id="node5" class="node">
<title>Node431831</title>
<g id="a_node5"><a xlink:href="libregexp_8c.html#acca34590a18d70f866ad56d67ce309e8" target="_top" xlink:title="re_parse_term">
<polygon fill="none" stroke="#000000" points="308,-19.5 308,-38.5 387,-38.5 387,-19.5 308,-19.5"/>
<text text-anchor="middle" x="347.5" y="-26.5" font-family="Helvetica,sans-Serif" font-size="10.00" fill="#000000">re_parse_term</text>
</a>
</g>
</g>
<!-- Node431820&#45;&gt;Node431831 -->
<g id="edge4" class="edge">
<title>Node431820&#45;&gt;Node431831</title>
<path fill="none" stroke="#191970" d="M282.2472,-29C291.0128,-29 299.8032,-29 307.9657,-29"/>
<polygon fill="#191970" stroke="#191970" points="282.0078,-25.5001 272.0078,-29 282.0077,-32.5001 282.0078,-25.5001"/>
</g>
<!-- Node431822 -->
<g id="node4" class="node">
<title>Node431822</title>
<g id="a_node4"><a xlink:href="quickjs_8c.html#ab0bd3fbfe9b7f004c067b103a6d60d03" target="_top" xlink:title="js_compile_regexp">
<polygon fill="none" stroke="#ff0000" points="426,-57.5 426,-76.5 524,-76.5 524,-57.5 426,-57.5"/>
<text text-anchor="middle" x="475" y="-64.5" font-family="Helvetica,sans-Serif" font-size="10.00" fill="#000000">js_compile_regexp</text>
</a>
</g>
</g>
<!-- Node431821&#45;&gt;Node431822 -->
<g id="edge3" class="edge">
<title>Node431821&#45;&gt;Node431822</title>
<path fill="none" stroke="#191970" d="M390.6778,-67C401.9227,-67 414.1241,-67 425.661,-67"/>
<polygon fill="#191970" stroke="#191970" points="390.6663,-63.5001 380.6663,-67 390.6663,-70.5001 390.6663,-63.5001"/>
</g>
<!-- Node431832 -->
<g id="node6" class="node">
<title>Node431832</title>
<g id="a_node6"><a xlink:href="libregexp_8c.html#a87dce3150c68b8a079854274dd39243c" target="_top" xlink:title="re_parse_alternative">
<polygon fill="none" stroke="#000000" points="423,-.5 423,-19.5 527,-19.5 527,-.5 423,-.5"/>
<text text-anchor="middle" x="475" y="-7.5" font-family="Helvetica,sans-Serif" font-size="10.00" fill="#000000">re_parse_alternative</text>
</a>
</g>
</g>
<!-- Node431831&#45;&gt;Node431832 -->
<g id="edge5" class="edge">
<title>Node431831&#45;&gt;Node431832</title>
<path fill="none" stroke="#191970" d="M397.1585,-21.5999C405.5429,-20.3505 414.2696,-19.05 422.7184,-17.791"/>
<polygon fill="#191970" stroke="#191970" points="396.5178,-18.1567 387.1429,-23.0924 397.5496,-25.0802 396.5178,-18.1567"/>
</g>
<!-- Node431832&#45;&gt;Node431820 -->
<g id="edge6" class="edge">
<title>Node431832&#45;&gt;Node431820</title>
<path fill="none" stroke="#191970" d="M412.5762,-6.8979C381.1275,-6.1217 342.453,-6.3634 308,-10 290.4022,-11.8575 271.1674,-15.7264 255.0962,-19.4912"/>
<polygon fill="#191970" stroke="#191970" points="412.8511,-10.4072 422.9478,-7.1968 413.0528,-3.4101 412.8511,-10.4072"/>
</g>
</g>
</svg>
        <g id="navigator" transform="translate(0 0)" fill="#404254">
                <rect fill="#f2f5e9" fill-opacity="0.5" stroke="#606060" stroke-width=".5" x="0" y="0" width="60" height="60"/>
                <use id="zoomplus" xlink:href="#zoomPlus" x="17" y="9" onmousedown="handleZoom(evt,'in')"/>
                <use id="zoomminus" xlink:href="#zoomMin" x="42" y="9" onmousedown="handleZoom(evt,'out')"/>
                <use id="reset" xlink:href="#resetDef" x="30" y="36" onmousedown="handleReset()"/>
                <g id="arrowUp" xlink:href="#dirArrow" transform="translate(30 24)" onmousedown="handlePan(0,-1)">
                  <use xlink:href="#rim" fill="#404040">
                        <set attributeName="fill" to="#808080" begin="arrowUp.mouseover" end="arrowUp.mouseout"/>
                  </use>
                  <path fill="none" stroke="white" stroke-width="1.5" d="M0,-3.0v7 M-2.5,-0.5L0,-3.0L2.5,-0.5"/>
                </g>
                <g id="arrowRight" xlink:href="#dirArrow" transform="rotate(90) translate(36 -43)" onmousedown="handlePan(1,0)">
                  <use xlink:href="#rim" fill="#404040">
                        <set attributeName="fill" to="#808080" begin="arrowRight.mouseover" end="arrowRight.mouseout"/>
                  </use>
                  <path fill="none" stroke="white" stroke-width="1.5" d="M0,-3.0v7 M-2.5,-0.5L0,-3.0L2.5,-0.5"/>
                </g>
                <g id="arrowDown" xlink:href="#dirArrow" transform="rotate(180) translate(-30 -48)" onmousedown="handlePan(0,1)">
                  <use xlink:href="#rim" fill="#404040">
                        <set attributeName="fill" to="#808080" begin="arrowDown.mouseover" end="arrowDown.mouseout"/>
                  </use>
                  <path fill="none" stroke="white" stroke-width="1.5" d="M0,-3.0v7 M-2.5,-0.5L0,-3.0L2.5,-0.5"/>
                </g>
                <g id="arrowLeft" xlink:href="#dirArrow" transform="rotate(270) translate(-36 17)" onmousedown="handlePan(-1,0)">
                  <use xlink:href="#rim" fill="#404040">
                        <set attributeName="fill" to="#808080" begin="arrowLeft.mouseover" end="arrowLeft.mouseout"/>
                  </use>
                  <path fill="none" stroke="white" stroke-width="1.5" d="M0,-3.0v7 M-2.5,-0.5L0,-3.0L2.5,-0.5"/>
                </g>
        </g>
        <svg viewBox="0 0 15 15" width="100%" height="30px" preserveAspectRatio="xMaxYMin meet">
         <g id="arrow_out" transform="scale(0.3 0.3)">
          <a xlink:href="quickjs_8c_a076eadfa4d028a47601fcb5804329be4_icgraph_org.svg" target="_base">
           <rect id="button" ry="5" rx="5" y="6" x="6" height="38" width="38"
                fill="#f2f5e9" fill-opacity="0.5" stroke="#606060" stroke-width="1.0"/>
           <path id="arrow"
             d="M 11.500037,31.436501 C 11.940474,20.09759 22.043105,11.32322 32.158766,21.979434 L 37.068811,17.246167 C 37.068811,17.246167 37.088388,32 37.088388,32 L 22.160133,31.978069 C 22.160133,31.978069 26.997745,27.140456 26.997745,27.140456 C 18.528582,18.264221 13.291696,25.230495 11.500037,31.436501 z"
             style="fill:#404040;"/>
          </a>
         </g>
        </svg>
</svg>
