<?xml version="1.0" encoding="UTF-8" standalone="no"?>
<!DOCTYPE svg PUBLIC "-//W3C//DTD SVG 1.1//EN"
 "http://www.w3.org/Graphics/SVG/1.1/DTD/svg11.dtd">
<!-- Generated by graphviz version 2.40.1 (20161225.0304)
 -->
<!-- Title: JS_DefinePropertyGetSet Pages: 1 -->
<!--zoomable 523 -->
<svg id="main" version="1.1" xmlns="http://www.w3.org/2000/svg" xmlns:xlink="http://www.w3.org/1999/xlink" xml:space="preserve" onload="init(evt)">
<style type="text/css"><![CDATA[
.edge:hover path { stroke: red; }
.edge:hover polygon { stroke: red; fill: red; }
]]></style>
<script type="text/javascript"><![CDATA[
var edges = document.getElementsByTagName('g');
if (edges && edges.length) {
  for (var i=0;i<edges.length;i++) {
    if (edges[i].id.substr(0,4)=='edge') {
      edges[i].setAttribute('class','edge');
    }
  }
}
]]></script>
        <defs>
                <circle id="rim" cx="0" cy="0" r="7"/>
                <circle id="rim2" cx="0" cy="0" r="3.5"/>
                <g id="zoomPlus">
                        <use xlink:href="#rim" fill="#404040">
                                <set attributeName="fill" to="#808080" begin="zoomplus.mouseover" end="zoomplus.mouseout"/>
                        </use>
                        <path d="M-4,0h8M0,-4v8" fill="none" stroke="white" stroke-width="1.5" pointer-events="none"/>
                </g>
                <g id="zoomMin">
                        <use xlink:href="#rim" fill="#404040">
                                <set attributeName="fill" to="#808080" begin="zoomminus.mouseover" end="zoomminus.mouseout"/>
                        </use>
                        <path d="M-4,0h8" fill="none" stroke="white" stroke-width="1.5" pointer-events="none"/>
                </g>
                <g id="dirArrow">
                        <path fill="none" stroke="white" stroke-width="1.5" d="M0,-3.0v7 M-2.5,-0.5L0,-3.0L2.5,-0.5"/>
                </g>
               <g id="resetDef">
                       <use xlink:href="#rim2" fill="#404040">
                               <set attributeName="fill" to="#808080" begin="reset.mouseover" end="reset.mouseout"/>
                       </use>
               </g>
        </defs>

<script type="text/javascript">
var viewWidth = 869;
var viewHeight = 523;
var sectionId = 'dynsection-621';
</script>
<script xlink:href="svgpan.js"/>
<svg id="graph" class="graph">
<g id="viewport">
<title>JS_DefinePropertyGetSet</title>
<!-- Node213541 -->
<g id="node1" class="node">
<title>Node213541</title>
<polygon fill="#bfbfbf" stroke="#000000" points="0,-246.4786 0,-265.4786 130,-265.4786 130,-246.4786 0,-246.4786"/>
<text text-anchor="middle" x="65" y="-253.4786" font-family="Helvetica,sans-Serif" font-size="10.00" fill="#000000">JS_DefinePropertyGetSet</text>
</g>
<!-- Node213542 -->
<g id="node2" class="node">
<title>Node213542</title>
<g id="a_node2"><a xlink:href="quickjs_8c.html#a6ee4e2edda1f223a5a40e2c48b41d618" target="_top" xlink:title="JS_InstantiateFunctionListItem">
<polygon fill="none" stroke="#000000" points="166,-246.4786 166,-265.4786 318,-265.4786 318,-246.4786 166,-246.4786"/>
<text text-anchor="middle" x="242" y="-253.4786" font-family="Helvetica,sans-Serif" font-size="10.00" fill="#000000">JS_InstantiateFunctionListItem</text>
</a>
</g>
</g>
<!-- Node213541&#45;&gt;Node213542 -->
<g id="edge1" class="edge">
<title>Node213541&#45;&gt;Node213542</title>
<path fill="none" stroke="#191970" d="M140.3647,-255.9786C148.8195,-255.9786 157.4378,-255.9786 165.9018,-255.9786"/>
<polygon fill="#191970" stroke="#191970" points="140.1542,-252.4787 130.1542,-255.9786 140.1542,-259.4787 140.1542,-252.4787"/>
</g>
<!-- Node213543 -->
<g id="node3" class="node">
<title>Node213543</title>
<g id="a_node3"><a xlink:href="quickjs_8c.html#ac00854b7f1f0f8567af964a2f8f2adb0" target="_top" xlink:title="JS_SetPropertyFunctionList">
<polygon fill="none" stroke="#000000" points="354,-246.4786 354,-265.4786 493,-265.4786 493,-246.4786 354,-246.4786"/>
<text text-anchor="middle" x="423.5" y="-253.4786" font-family="Helvetica,sans-Serif" font-size="10.00" fill="#000000">JS_SetPropertyFunctionList</text>
</a>
</g>
</g>
<!-- Node213542&#45;&gt;Node213543 -->
<g id="edge2" class="edge">
<title>Node213542&#45;&gt;Node213543</title>
<path fill="none" stroke="#191970" d="M328.2315,-255.9786C336.8279,-255.9786 345.4785,-255.9786 353.8738,-255.9786"/>
<polygon fill="#191970" stroke="#191970" points="328.1835,-252.4787 318.1834,-255.9786 328.1834,-259.4787 328.1835,-252.4787"/>
</g>
<!-- Node213544 -->
<g id="node4" class="node">
<title>Node213544</title>
<g id="a_node4"><a xlink:href="quickjs-libc_8c.html#a08cea1a0226b7603e6969e2208d99d55" target="_top" xlink:title="js_std_init">
<polygon fill="none" stroke="#ff0000" points="760,-483.4786 760,-502.4786 821,-502.4786 821,-483.4786 760,-483.4786"/>
<text text-anchor="middle" x="790.5" y="-490.4786" font-family="Helvetica,sans-Serif" font-size="10.00" fill="#000000">js_std_init</text>
</a>
</g>
</g>
<!-- Node213543&#45;&gt;Node213544 -->
<g id="edge3" class="edge">
<title>Node213543&#45;&gt;Node213544</title>
<path fill="none" stroke="#191970" d="M425.814,-275.7046C432.3696,-321.5919 455.6312,-435.2876 529,-483.9786 599.9679,-531.0762 707.2584,-514.0112 759.5945,-501.5066"/>
<polygon fill="#191970" stroke="#191970" points="429.2569,-275.0405 424.4869,-265.5802 422.3163,-275.9503 429.2569,-275.0405"/>
</g>
<!-- Node213547 -->
<g id="node5" class="node">
<title>Node213547</title>
<g id="a_node5"><a xlink:href="quickjs-libc_8c.html#a066e7962ce24f22d5df20968a8baa346" target="_top" xlink:title="js_os_init">
<polygon fill="none" stroke="#ff0000" points="761.5,-436.4786 761.5,-455.4786 819.5,-455.4786 819.5,-436.4786 761.5,-436.4786"/>
<text text-anchor="middle" x="790.5" y="-443.4786" font-family="Helvetica,sans-Serif" font-size="10.00" fill="#000000">js_os_init</text>
</a>
</g>
</g>
<!-- Node213543&#45;&gt;Node213547 -->
<g id="edge4" class="edge">
<title>Node213543&#45;&gt;Node213547</title>
<path fill="none" stroke="#191970" d="M430.6817,-274.9393C444.3027,-308.0538 477.2408,-375.9463 529,-407.9786 567.4248,-431.7586 701.5661,-441.4425 761.3558,-444.643"/>
<polygon fill="#191970" stroke="#191970" points="433.8783,-273.5053 426.9387,-265.4995 427.3711,-276.0855 433.8783,-273.5053"/>
</g>
<!-- Node213549 -->
<g id="node6" class="node">
<title>Node213549</title>
<g id="a_node6"><a xlink:href="quickjs_8c.html#a04f1ec3f8d1f5c012280eb23e64a7b58" target="_top" xlink:title="JS_SetModuleExportList">
<polygon fill="none" stroke="#000000" points="544,-455.4786 544,-474.4786 669,-474.4786 669,-455.4786 544,-455.4786"/>
<text text-anchor="middle" x="606.5" y="-462.4786" font-family="Helvetica,sans-Serif" font-size="10.00" fill="#000000">JS_SetModuleExportList</text>
</a>
</g>
</g>
<!-- Node213543&#45;&gt;Node213549 -->
<g id="edge5" class="edge">
<title>Node213543&#45;&gt;Node213549</title>
<path fill="none" stroke="#191970" d="M429.2498,-275.4543C441.3645,-313.1043 473.1039,-396.1078 529,-440.9786 536.9085,-447.3271 546.4988,-452.0031 556.1993,-455.445"/>
<polygon fill="#191970" stroke="#191970" points="432.5339,-274.2274 426.2316,-265.7109 425.8474,-276.2987 432.5339,-274.2274"/>
</g>
<!-- Node213550 -->
<g id="node7" class="node">
<title>Node213550</title>
<g id="a_node7"><a xlink:href="quickjs_8c.html#abd9525850b564b2c2d2cb6ddfd89b1c6" target="_top" xlink:title="JS_AddIntrinsicStringNormalize">
<polygon fill="none" stroke="#ff0000" points="529,-379.4786 529,-398.4786 684,-398.4786 684,-379.4786 529,-379.4786"/>
<text text-anchor="middle" x="606.5" y="-386.4786" font-family="Helvetica,sans-Serif" font-size="10.00" fill="#000000">JS_AddIntrinsicStringNormalize</text>
</a>
</g>
</g>
<!-- Node213543&#45;&gt;Node213550 -->
<g id="edge8" class="edge">
<title>Node213543&#45;&gt;Node213550</title>
<path fill="none" stroke="#191970" d="M435.0989,-274.0598C452.3939,-299.4992 487.4041,-345.4803 529,-369.9786 535.5653,-373.8453 542.8868,-376.9275 550.3365,-379.3838"/>
<polygon fill="#191970" stroke="#191970" points="437.9941,-272.0926 429.5492,-265.6946 432.161,-275.9625 437.9941,-272.0926"/>
</g>
<!-- Node213554 -->
<g id="node8" class="node">
<title>Node213554</title>
<g id="a_node8"><a xlink:href="quickjs_8c.html#aafc8241682ce24b6d72e0f237ee85a51" target="_top" xlink:title="JS_AddIntrinsicRegExp">
<polygon fill="none" stroke="#ff0000" points="546,-341.4786 546,-360.4786 667,-360.4786 667,-341.4786 546,-341.4786"/>
<text text-anchor="middle" x="606.5" y="-348.4786" font-family="Helvetica,sans-Serif" font-size="10.00" fill="#000000">JS_AddIntrinsicRegExp</text>
</a>
</g>
</g>
<!-- Node213543&#45;&gt;Node213554 -->
<g id="edge9" class="edge">
<title>Node213543&#45;&gt;Node213554</title>
<path fill="none" stroke="#191970" d="M441.6963,-272.4787C461.6973,-289.7617 495.4626,-316.5023 529,-331.9786 537.3019,-335.8096 546.4743,-338.9281 555.5166,-341.4469"/>
<polygon fill="#191970" stroke="#191970" points="443.8268,-269.6912 434.0079,-265.7111 439.2016,-274.9456 443.8268,-269.6912"/>
</g>
<!-- Node213555 -->
<g id="node9" class="node">
<title>Node213555</title>
<g id="a_node9"><a xlink:href="quickjs_8c.html#ac43d15fc0b5d1b90ae3c92779ab12725" target="_top" xlink:title="JS_AddIntrinsicJSON">
<polygon fill="none" stroke="#ff0000" points="550,-303.4786 550,-322.4786 663,-322.4786 663,-303.4786 550,-303.4786"/>
<text text-anchor="middle" x="606.5" y="-310.4786" font-family="Helvetica,sans-Serif" font-size="10.00" fill="#000000">JS_AddIntrinsicJSON</text>
</a>
</g>
</g>
<!-- Node213543&#45;&gt;Node213555 -->
<g id="edge10" class="edge">
<title>Node213543&#45;&gt;Node213555</title>
<path fill="none" stroke="#191970" d="M457.5165,-269.2618C478.0405,-277.0171 504.8146,-286.6804 529,-293.9786 540.2732,-297.3804 552.6043,-300.6179 564.0479,-303.4251"/>
<polygon fill="#191970" stroke="#191970" points="458.5727,-265.9188 447.9819,-265.6266 456.0789,-272.4595 458.5727,-265.9188"/>
</g>
<!-- Node213556 -->
<g id="node10" class="node">
<title>Node213556</title>
<g id="a_node10"><a xlink:href="quickjs_8c.html#a3afdbdd7b58ef7e1dcc178c362071b3d" target="_top" xlink:title="JS_AddIntrinsicProxy">
<polygon fill="none" stroke="#ff0000" points="551,-265.4786 551,-284.4786 662,-284.4786 662,-265.4786 551,-265.4786"/>
<text text-anchor="middle" x="606.5" y="-272.4786" font-family="Helvetica,sans-Serif" font-size="10.00" fill="#000000">JS_AddIntrinsicProxy</text>
</a>
</g>
</g>
<!-- Node213543&#45;&gt;Node213556 -->
<g id="edge11" class="edge">
<title>Node213543&#45;&gt;Node213556</title>
<path fill="none" stroke="#191970" d="M503.6067,-264.2957C519.5678,-265.9528 535.9986,-267.6588 550.9157,-269.2075"/>
<polygon fill="#191970" stroke="#191970" points="503.5145,-260.7674 493.2065,-263.2159 502.7916,-267.7299 503.5145,-260.7674"/>
</g>
<!-- Node213557 -->
<g id="node11" class="node">
<title>Node213557</title>
<g id="a_node11"><a xlink:href="quickjs_8c.html#a4497f8c7cf2ec38da989910ae8b1f042" target="_top" xlink:title="JS_AddIntrinsicMapSet">
<polygon fill="none" stroke="#ff0000" points="547,-227.4786 547,-246.4786 666,-246.4786 666,-227.4786 547,-227.4786"/>
<text text-anchor="middle" x="606.5" y="-234.4786" font-family="Helvetica,sans-Serif" font-size="10.00" fill="#000000">JS_AddIntrinsicMapSet</text>
</a>
</g>
</g>
<!-- Node213543&#45;&gt;Node213557 -->
<g id="edge12" class="edge">
<title>Node213543&#45;&gt;Node213557</title>
<path fill="none" stroke="#191970" d="M503.2521,-247.6983C517.8836,-246.1792 532.9227,-244.6178 546.8391,-243.1729"/>
<polygon fill="#191970" stroke="#191970" points="502.7916,-244.2272 493.2065,-248.7413 503.5145,-251.1898 502.7916,-244.2272"/>
</g>
<!-- Node213558 -->
<g id="node12" class="node">
<title>Node213558</title>
<g id="a_node12"><a xlink:href="quickjs_8c.html#a2e66fcf1bc1d19f346317f10ee590621" target="_top" xlink:title="JS_AddIntrinsicPromise">
<polygon fill="none" stroke="#ff0000" points="545.5,-189.4786 545.5,-208.4786 667.5,-208.4786 667.5,-189.4786 545.5,-189.4786"/>
<text text-anchor="middle" x="606.5" y="-196.4786" font-family="Helvetica,sans-Serif" font-size="10.00" fill="#000000">JS_AddIntrinsicPromise</text>
</a>
</g>
</g>
<!-- Node213543&#45;&gt;Node213558 -->
<g id="edge13" class="edge">
<title>Node213543&#45;&gt;Node213558</title>
<path fill="none" stroke="#191970" d="M457.5165,-242.6954C478.0405,-234.94 504.8146,-225.2768 529,-217.9786 540.2732,-214.5768 552.6043,-211.3393 564.0479,-208.5321"/>
<polygon fill="#191970" stroke="#191970" points="456.0789,-239.4977 447.9819,-246.3306 458.5727,-246.0384 456.0789,-239.4977"/>
</g>
<!-- Node213559 -->
<g id="node13" class="node">
<title>Node213559</title>
<g id="a_node13"><a xlink:href="quickjs_8c.html#a8ecbf5799518b7bfc3fefd47c7a0dd4e" target="_top" xlink:title="JS_AddIntrinsicDate">
<polygon fill="none" stroke="#ff0000" points="553,-151.4786 553,-170.4786 660,-170.4786 660,-151.4786 553,-151.4786"/>
<text text-anchor="middle" x="606.5" y="-158.4786" font-family="Helvetica,sans-Serif" font-size="10.00" fill="#000000">JS_AddIntrinsicDate</text>
</a>
</g>
</g>
<!-- Node213543&#45;&gt;Node213559 -->
<g id="edge14" class="edge">
<title>Node213543&#45;&gt;Node213559</title>
<path fill="none" stroke="#191970" d="M441.6963,-239.4785C461.6973,-222.1955 495.4626,-195.4549 529,-179.9786 537.3019,-176.1476 546.4743,-173.029 555.5166,-170.5103"/>
<polygon fill="#191970" stroke="#191970" points="439.2016,-237.0116 434.0079,-246.2461 443.8268,-242.266 439.2016,-237.0116"/>
</g>
<!-- Node213560 -->
<g id="node14" class="node">
<title>Node213560</title>
<g id="a_node14"><a xlink:href="quickjs_8c.html#a7efb53c2f76fd5cc0e584449437ec09c" target="_top" xlink:title="JS_AddIntrinsicBasicObjects">
<polygon fill="none" stroke="#ff0000" points="534.5,-113.4786 534.5,-132.4786 678.5,-132.4786 678.5,-113.4786 534.5,-113.4786"/>
<text text-anchor="middle" x="606.5" y="-120.4786" font-family="Helvetica,sans-Serif" font-size="10.00" fill="#000000">JS_AddIntrinsicBasicObjects</text>
</a>
</g>
</g>
<!-- Node213543&#45;&gt;Node213560 -->
<g id="edge15" class="edge">
<title>Node213543&#45;&gt;Node213560</title>
<path fill="none" stroke="#191970" d="M435.0989,-237.8974C452.3939,-212.4579 487.4041,-166.4768 529,-141.9786 535.5653,-138.1119 542.8868,-135.0297 550.3365,-132.5734"/>
<polygon fill="#191970" stroke="#191970" points="432.161,-235.9947 429.5492,-246.2626 437.9941,-239.8645 432.161,-235.9947"/>
</g>
<!-- Node213562 -->
<g id="node15" class="node">
<title>Node213562</title>
<g id="a_node15"><a xlink:href="quickjs_8c.html#a4c9489297c684663f30e517204a9ec14" target="_top" xlink:title="JS_AddIntrinsicBaseObjects">
<polygon fill="none" stroke="#ff0000" points="535.5,-75.4786 535.5,-94.4786 677.5,-94.4786 677.5,-75.4786 535.5,-75.4786"/>
<text text-anchor="middle" x="606.5" y="-82.4786" font-family="Helvetica,sans-Serif" font-size="10.00" fill="#000000">JS_AddIntrinsicBaseObjects</text>
</a>
</g>
</g>
<!-- Node213543&#45;&gt;Node213562 -->
<g id="edge16" class="edge">
<title>Node213543&#45;&gt;Node213562</title>
<path fill="none" stroke="#191970" d="M431.2086,-237.0495C445.4546,-204.5415 479.0782,-138.2962 529,-103.9786 534.5939,-100.1332 540.8857,-97.0638 547.4033,-94.6142"/>
<polygon fill="#191970" stroke="#191970" points="427.9526,-235.7627 427.268,-246.3354 434.3964,-238.4972 427.9526,-235.7627"/>
</g>
<!-- Node213563 -->
<g id="node16" class="node">
<title>Node213563</title>
<g id="a_node16"><a xlink:href="quickjs_8c.html#ae022a327d9fa7079ad2f1d179ba5bdf0" target="_top" xlink:title="JS_AddIntrinsicAtomics">
<polygon fill="none" stroke="#000000" points="545.5,-37.4786 545.5,-56.4786 667.5,-56.4786 667.5,-37.4786 545.5,-37.4786"/>
<text text-anchor="middle" x="606.5" y="-44.4786" font-family="Helvetica,sans-Serif" font-size="10.00" fill="#000000">JS_AddIntrinsicAtomics</text>
</a>
</g>
</g>
<!-- Node213543&#45;&gt;Node213563 -->
<g id="edge17" class="edge">
<title>Node213543&#45;&gt;Node213563</title>
<path fill="none" stroke="#191970" d="M428.6948,-236.2264C439.9919,-197.2976 470.5939,-110.5795 529,-65.9786 534.0647,-62.111 539.8115,-59.0199 545.8319,-56.5511"/>
<polygon fill="#191970" stroke="#191970" points="425.2088,-235.6994 425.9055,-246.2713 431.9536,-237.5724 425.2088,-235.6994"/>
</g>
<!-- Node213564 -->
<g id="node17" class="node">
<title>Node213564</title>
<g id="a_node17"><a xlink:href="quickjs_8c.html#a177d09828596bfe6df4bd90b2e93989d" target="_top" xlink:title="JS_AddIntrinsicTypedArrays">
<polygon fill="none" stroke="#ff0000" points="720,-18.4786 720,-37.4786 861,-37.4786 861,-18.4786 720,-18.4786"/>
<text text-anchor="middle" x="790.5" y="-25.4786" font-family="Helvetica,sans-Serif" font-size="10.00" fill="#000000">JS_AddIntrinsicTypedArrays</text>
</a>
</g>
</g>
<!-- Node213543&#45;&gt;Node213564 -->
<g id="edge19" class="edge">
<title>Node213543&#45;&gt;Node213564</title>
<path fill="none" stroke="#191970" d="M425.7032,-236.0825C432.0201,-189.8288 454.8045,-75.4004 529,-27.9786 601.1076,18.1087 708.8053,-3.6747 760.5859,-18.3662"/>
<polygon fill="#191970" stroke="#191970" points="422.1946,-235.9346 424.4307,-246.2907 429.1408,-236.8005 422.1946,-235.9346"/>
</g>
<!-- Node213549&#45;&gt;Node213544 -->
<g id="edge6" class="edge">
<title>Node213549&#45;&gt;Node213544</title>
<path fill="none" stroke="#191970" d="M679.2554,-476.0501C707.3165,-480.3202 737.8781,-484.9709 759.8555,-488.3153"/>
<polygon fill="#191970" stroke="#191970" points="679.4635,-472.5415 669.0508,-474.4972 678.4104,-479.4618 679.4635,-472.5415"/>
</g>
<!-- Node213549&#45;&gt;Node213547 -->
<g id="edge7" class="edge">
<title>Node213549&#45;&gt;Node213547</title>
<path fill="none" stroke="#191970" d="M679.0896,-457.4829C707.8389,-454.5142 739.2376,-451.272 761.3526,-448.9884"/>
<polygon fill="#191970" stroke="#191970" points="678.6383,-454.0108 669.0508,-458.5195 679.3574,-460.9738 678.6383,-454.0108"/>
</g>
<!-- Node213563&#45;&gt;Node213564 -->
<g id="edge18" class="edge">
<title>Node213563&#45;&gt;Node213564</title>
<path fill="none" stroke="#191970" d="M677.4789,-39.6492C691.3547,-38.2164 705.9044,-36.714 719.772,-35.282"/>
<polygon fill="#191970" stroke="#191970" points="677.1013,-36.1695 667.5138,-40.6783 677.8204,-43.1325 677.1013,-36.1695"/>
</g>
</g>
</svg>
        <g id="navigator" transform="translate(0 0)" fill="#404254">
                <rect fill="#f2f5e9" fill-opacity="0.5" stroke="#606060" stroke-width=".5" x="0" y="0" width="60" height="60"/>
                <use id="zoomplus" xlink:href="#zoomPlus" x="17" y="9" onmousedown="handleZoom(evt,'in')"/>
                <use id="zoomminus" xlink:href="#zoomMin" x="42" y="9" onmousedown="handleZoom(evt,'out')"/>
                <use id="reset" xlink:href="#resetDef" x="30" y="36" onmousedown="handleReset()"/>
                <g id="arrowUp" xlink:href="#dirArrow" transform="translate(30 24)" onmousedown="handlePan(0,-1)">
                  <use xlink:href="#rim" fill="#404040">
                        <set attributeName="fill" to="#808080" begin="arrowUp.mouseover" end="arrowUp.mouseout"/>
                  </use>
                  <path fill="none" stroke="white" stroke-width="1.5" d="M0,-3.0v7 M-2.5,-0.5L0,-3.0L2.5,-0.5"/>
                </g>
                <g id="arrowRight" xlink:href="#dirArrow" transform="rotate(90) translate(36 -43)" onmousedown="handlePan(1,0)">
                  <use xlink:href="#rim" fill="#404040">
                        <set attributeName="fill" to="#808080" begin="arrowRight.mouseover" end="arrowRight.mouseout"/>
                  </use>
                  <path fill="none" stroke="white" stroke-width="1.5" d="M0,-3.0v7 M-2.5,-0.5L0,-3.0L2.5,-0.5"/>
                </g>
                <g id="arrowDown" xlink:href="#dirArrow" transform="rotate(180) translate(-30 -48)" onmousedown="handlePan(0,1)">
                  <use xlink:href="#rim" fill="#404040">
                        <set attributeName="fill" to="#808080" begin="arrowDown.mouseover" end="arrowDown.mouseout"/>
                  </use>
                  <path fill="none" stroke="white" stroke-width="1.5" d="M0,-3.0v7 M-2.5,-0.5L0,-3.0L2.5,-0.5"/>
                </g>
                <g id="arrowLeft" xlink:href="#dirArrow" transform="rotate(270) translate(-36 17)" onmousedown="handlePan(-1,0)">
                  <use xlink:href="#rim" fill="#404040">
                        <set attributeName="fill" to="#808080" begin="arrowLeft.mouseover" end="arrowLeft.mouseout"/>
                  </use>
                  <path fill="none" stroke="white" stroke-width="1.5" d="M0,-3.0v7 M-2.5,-0.5L0,-3.0L2.5,-0.5"/>
                </g>
        </g>
        <svg viewBox="0 0 15 15" width="100%" height="30px" preserveAspectRatio="xMaxYMin meet">
         <g id="arrow_out" transform="scale(0.3 0.3)">
          <a xlink:href="quickjs_8c_abfb24c507e9a341c0a98e61d86fd8663_icgraph_org.svg" target="_base">
           <rect id="button" ry="5" rx="5" y="6" x="6" height="38" width="38"
                fill="#f2f5e9" fill-opacity="0.5" stroke="#606060" stroke-width="1.0"/>
           <path id="arrow"
             d="M 11.500037,31.436501 C 11.940474,20.09759 22.043105,11.32322 32.158766,21.979434 L 37.068811,17.246167 C 37.068811,17.246167 37.088388,32 37.088388,32 L 22.160133,31.978069 C 22.160133,31.978069 26.997745,27.140456 26.997745,27.140456 C 18.528582,18.264221 13.291696,25.230495 11.500037,31.436501 z"
             style="fill:#404040;"/>
          </a>
         </g>
        </svg>
</svg>
