<?xml version="1.0" encoding="UTF-8" standalone="no"?>
<!DOCTYPE svg PUBLIC "-//W3C//DTD SVG 1.1//EN"
 "http://www.w3.org/Graphics/SVG/1.1/DTD/svg11.dtd">
<!-- Generated by graphviz version 2.40.1 (20161225.0304)
 -->
<!-- Title: JS_GetPrototype Pages: 1 -->
<!--zoomable 985 -->
<svg id="main" version="1.1" xmlns="http://www.w3.org/2000/svg" xmlns:xlink="http://www.w3.org/1999/xlink" xml:space="preserve" onload="init(evt)">
<style type="text/css"><![CDATA[
.edge:hover path { stroke: red; }
.edge:hover polygon { stroke: red; fill: red; }
]]></style>
<script type="text/javascript"><![CDATA[
var edges = document.getElementsByTagName('g');
if (edges && edges.length) {
  for (var i=0;i<edges.length;i++) {
    if (edges[i].id.substr(0,4)=='edge') {
      edges[i].setAttribute('class','edge');
    }
  }
}
]]></script>
        <defs>
                <circle id="rim" cx="0" cy="0" r="7"/>
                <circle id="rim2" cx="0" cy="0" r="3.5"/>
                <g id="zoomPlus">
                        <use xlink:href="#rim" fill="#404040">
                                <set attributeName="fill" to="#808080" begin="zoomplus.mouseover" end="zoomplus.mouseout"/>
                        </use>
                        <path d="M-4,0h8M0,-4v8" fill="none" stroke="white" stroke-width="1.5" pointer-events="none"/>
                </g>
                <g id="zoomMin">
                        <use xlink:href="#rim" fill="#404040">
                                <set attributeName="fill" to="#808080" begin="zoomminus.mouseover" end="zoomminus.mouseout"/>
                        </use>
                        <path d="M-4,0h8" fill="none" stroke="white" stroke-width="1.5" pointer-events="none"/>
                </g>
                <g id="dirArrow">
                        <path fill="none" stroke="white" stroke-width="1.5" d="M0,-3.0v7 M-2.5,-0.5L0,-3.0L2.5,-0.5"/>
                </g>
               <g id="resetDef">
                       <use xlink:href="#rim2" fill="#404040">
                               <set attributeName="fill" to="#808080" begin="reset.mouseover" end="reset.mouseout"/>
                       </use>
               </g>
        </defs>

<script type="text/javascript">
var viewWidth = 602;
var viewHeight = 985;
var sectionId = 'dynsection-191';
</script>
<script xlink:href="svgpan.js"/>
<svg id="graph" class="graph">
<g id="viewport">
<title>JS_GetPrototype</title>
<!-- Node67681 -->
<g id="node1" class="node">
<title>Node67681</title>
<polygon fill="#bfbfbf" stroke="#000000" points="0,-95.5 0,-114.5 92,-114.5 92,-95.5 0,-95.5"/>
<text text-anchor="middle" x="46" y="-102.5" font-family="Helvetica,sans-Serif" font-size="10.00" fill="#000000">JS_GetPrototype</text>
</g>
<!-- Node67682 -->
<g id="node2" class="node">
<title>Node67682</title>
<g id="a_node2"><a xlink:href="quickjs_8c.html#ac2894ff4edcdb4e6841bcce9c76081e3" target="_top" xlink:title="JS_CallInternal">
<polygon fill="none" stroke="#000000" points="150,-266.5 150,-285.5 233,-285.5 233,-266.5 150,-266.5"/>
<text text-anchor="middle" x="191.5" y="-273.5" font-family="Helvetica,sans-Serif" font-size="10.00" fill="#000000">JS_CallInternal</text>
</a>
</g>
</g>
<!-- Node67681&#45;&gt;Node67682 -->
<g id="edge1" class="edge">
<title>Node67681&#45;&gt;Node67682</title>
<path fill="none" stroke="#191970" d="M60.7649,-122.3525C91.1403,-158.0515 159.7564,-238.6931 183.3508,-266.4226"/>
<polygon fill="#191970" stroke="#191970" points="63.3856,-120.0316 54.2396,-114.6837 58.0544,-124.5679 63.3856,-120.0316"/>
</g>
<!-- Node68276 -->
<g id="node26" class="node">
<title>Node68276</title>
<g id="a_node26"><a xlink:href="quickjs_8c.html#adda8732f2afb3bb7bd7e5f59e3ba022d" target="_top" xlink:title="js_proxy_getPrototypeOf">
<polygon fill="none" stroke="#ff0000" points="465,-152.5 465,-171.5 590,-171.5 590,-152.5 465,-152.5"/>
<text text-anchor="middle" x="527.5" y="-159.5" font-family="Helvetica,sans-Serif" font-size="10.00" fill="#000000">js_proxy_getPrototypeOf</text>
</a>
</g>
</g>
<!-- Node67681&#45;&gt;Node68276 -->
<g id="edge38" class="edge">
<title>Node67681&#45;&gt;Node68276</title>
<path fill="none" stroke="#191970" d="M90.3726,-117.0818C102.5,-120.0384 115.6928,-122.9407 128,-125 246.1629,-144.7719 385.8851,-154.6777 464.8557,-159.0496"/>
<polygon fill="#191970" stroke="#191970" points="91.0299,-113.6383 80.4791,-114.6028 89.3285,-120.4284 91.0299,-113.6383"/>
</g>
<!-- Node68280 -->
<g id="node27" class="node">
<title>Node68280</title>
<g id="a_node27"><a xlink:href="quickjs_8c.html#ae8b32777df50bb192c19840adc4d32a1" target="_top" xlink:title="js_proxy_setPrototypeOf">
<polygon fill="none" stroke="#ff0000" points="465,-114.5 465,-133.5 590,-133.5 590,-114.5 465,-114.5"/>
<text text-anchor="middle" x="527.5" y="-121.5" font-family="Helvetica,sans-Serif" font-size="10.00" fill="#000000">js_proxy_setPrototypeOf</text>
</a>
</g>
</g>
<!-- Node67681&#45;&gt;Node68280 -->
<g id="edge39" class="edge">
<title>Node67681&#45;&gt;Node68280</title>
<path fill="none" stroke="#191970" d="M102.245,-107.2194C192.8374,-110.7942 370.4434,-117.8025 464.9188,-121.5305"/>
<polygon fill="#191970" stroke="#191970" points="102.2985,-103.7189 92.1682,-106.8218 102.0224,-110.7135 102.2985,-103.7189"/>
</g>
<!-- Node68278 -->
<g id="node28" class="node">
<title>Node68278</title>
<g id="a_node28"><a xlink:href="quickjs_8c.html#a7f82fd53b039b4e12f1addfa15d750ae" target="_top" xlink:title="JS_GetPrototypeFree">
<polygon fill="none" stroke="#ff0000" points="136,-76.5 136,-95.5 247,-95.5 247,-76.5 136,-76.5"/>
<text text-anchor="middle" x="191.5" y="-83.5" font-family="Helvetica,sans-Serif" font-size="10.00" fill="#000000">JS_GetPrototypeFree</text>
</a>
</g>
</g>
<!-- Node67681&#45;&gt;Node68278 -->
<g id="edge35" class="edge">
<title>Node67681&#45;&gt;Node68278</title>
<path fill="none" stroke="#191970" d="M102.0305,-97.6833C113.1144,-96.2359 124.7457,-94.7171 135.8179,-93.2712"/>
<polygon fill="#191970" stroke="#191970" points="101.4997,-94.2228 92.0371,-98.9883 102.4062,-101.1639 101.4997,-94.2228"/>
</g>
<!-- Node67991 -->
<g id="node29" class="node">
<title>Node67991</title>
<g id="a_node29"><a xlink:href="quickjs_8c.html#a0b46bf41453514070c7c0d722b107546" target="_top" xlink:title="js_object_get___proto__">
<polygon fill="none" stroke="#000000" points="130.5,-38.5 130.5,-57.5 252.5,-57.5 252.5,-38.5 130.5,-38.5"/>
<text text-anchor="middle" x="191.5" y="-45.5" font-family="Helvetica,sans-Serif" font-size="10.00" fill="#000000">js_object_get___proto__</text>
</a>
</g>
</g>
<!-- Node67681&#45;&gt;Node67991 -->
<g id="edge36" class="edge">
<title>Node67681&#45;&gt;Node67991</title>
<path fill="none" stroke="#191970" d="M73.7062,-90.9533C89.4005,-83.3043 109.5321,-74.0008 128,-67 137.0384,-63.5737 146.9822,-60.3503 156.264,-57.5654"/>
<polygon fill="#191970" stroke="#191970" points="71.9803,-87.902 64.5623,-95.4668 75.0786,-94.179 71.9803,-87.902"/>
</g>
<!-- Node68279 -->
<g id="node30" class="node">
<title>Node68279</title>
<g id="a_node30"><a xlink:href="quickjs_8c.html#ad3ae6750957868bc31ebfcb116b4df9c" target="_top" xlink:title="js_object_getPrototypeOf">
<polygon fill="none" stroke="#000000" points="128,-.5 128,-19.5 255,-19.5 255,-.5 128,-.5"/>
<text text-anchor="middle" x="191.5" y="-7.5" font-family="Helvetica,sans-Serif" font-size="10.00" fill="#000000">js_object_getPrototypeOf</text>
</a>
</g>
</g>
<!-- Node67681&#45;&gt;Node68279 -->
<g id="edge37" class="edge">
<title>Node67681&#45;&gt;Node68279</title>
<path fill="none" stroke="#191970" d="M60.3698,-87.6792C75.5224,-70.4699 100.916,-44.4745 128,-29 134.6942,-25.1752 142.234,-22.0511 149.7182,-19.5227"/>
<polygon fill="#191970" stroke="#191970" points="57.6527,-85.471 53.7913,-95.3371 62.9625,-90.0323 57.6527,-85.471"/>
</g>
<!-- Node67682&#45;&gt;Node67682 -->
<g id="edge34" class="edge">
<title>Node67682&#45;&gt;Node67682</title>
<path fill="none" stroke="#191970" d="M164.6208,-294.6539C165.7444,-299.9368 174.7041,-304 191.5,-304 217.0938,-304 224.4919,-294.5653 213.6946,-285.7571"/>
<polygon fill="#191970" stroke="#191970" points="167.7433,-296.2361 169.3054,-285.7571 161.5494,-292.9747 167.7433,-296.2361"/>
</g>
<!-- Node67683 -->
<g id="node3" class="node">
<title>Node67683</title>
<g id="a_node3"><a xlink:href="quickjs_8c.html#ade71a22dc56e7371392393df663b28b3" target="_top" xlink:title="async_func_resume">
<polygon fill="none" stroke="#000000" points="306,-858.5 306,-877.5 410,-877.5 410,-858.5 306,-858.5"/>
<text text-anchor="middle" x="358" y="-865.5" font-family="Helvetica,sans-Serif" font-size="10.00" fill="#000000">async_func_resume</text>
</a>
</g>
</g>
<!-- Node67682&#45;&gt;Node67683 -->
<g id="edge2" class="edge">
<title>Node67682&#45;&gt;Node67683</title>
<path fill="none" stroke="#191970" d="M197.0323,-295.6705C223.4507,-389.6023 336.2697,-790.7369 355.2763,-858.3157"/>
<polygon fill="#191970" stroke="#191970" points="200.3278,-294.4602 194.251,-285.7813 193.5893,-296.3555 200.3278,-294.4602"/>
</g>
<!-- Node67702 -->
<g id="node8" class="node">
<title>Node67702</title>
<g id="a_node8"><a xlink:href="quickjs_8c.html#a1a4c02a29525d5cb2085dd8bca3af350" target="_top" xlink:title="JS_Call">
<polygon fill="none" stroke="#ff0000" points="332.5,-470.5 332.5,-489.5 383.5,-489.5 383.5,-470.5 332.5,-470.5"/>
<text text-anchor="middle" x="358" y="-477.5" font-family="Helvetica,sans-Serif" font-size="10.00" fill="#000000">JS_Call</text>
</a>
</g>
</g>
<!-- Node67682&#45;&gt;Node67702 -->
<g id="edge7" class="edge">
<title>Node67682&#45;&gt;Node67702</title>
<path fill="none" stroke="#191970" d="M209.067,-293.1782C245.8372,-334.5444 329.3903,-437.4667 352.1703,-470.1653"/>
<polygon fill="#191970" stroke="#191970" points="211.4714,-290.6187 202.1686,-285.5482 206.2789,-295.3133 211.4714,-290.6187"/>
</g>
<!-- Node67788 -->
<g id="node24" class="node">
<title>Node67788</title>
<g id="a_node24"><a xlink:href="quickjs_8c.html#ad35594576a14c10812efaf958c99af8a" target="_top" xlink:title="JS_CallConstructorInternal">
<polygon fill="none" stroke="#ff0000" points="291,-266.5 291,-285.5 425,-285.5 425,-266.5 291,-266.5"/>
<text text-anchor="middle" x="358" y="-273.5" font-family="Helvetica,sans-Serif" font-size="10.00" fill="#000000">JS_CallConstructorInternal</text>
</a>
</g>
</g>
<!-- Node67682&#45;&gt;Node67788 -->
<g id="edge28" class="edge">
<title>Node67682&#45;&gt;Node67788</title>
<path fill="none" stroke="#191970" d="M243.2089,-269.7005C258.2462,-269.2505 274.8948,-269.1376 290.7402,-269.3619"/>
<polygon fill="#191970" stroke="#191970" points="242.9527,-266.2073 233.0855,-270.0658 243.2053,-273.2028 242.9527,-266.2073"/>
</g>
<!-- Node67802 -->
<g id="node25" class="node">
<title>Node67802</title>
<g id="a_node25"><a xlink:href="quickjs_8c.html#a75f6ee5e4235a7dc99889f3d2eb2c147" target="_top" xlink:title="JS_CallFree">
<polygon fill="none" stroke="#ff0000" points="322.5,-190.5 322.5,-209.5 393.5,-209.5 393.5,-190.5 322.5,-190.5"/>
<text text-anchor="middle" x="358" y="-197.5" font-family="Helvetica,sans-Serif" font-size="10.00" fill="#000000">JS_CallFree</text>
</a>
</g>
</g>
<!-- Node67682&#45;&gt;Node67802 -->
<g id="edge30" class="edge">
<title>Node67682&#45;&gt;Node67802</title>
<path fill="none" stroke="#191970" d="M207.6397,-260.2816C227.0478,-246.6875 260.7903,-228.2297 291,-215 300.9598,-210.6383 311.9893,-206.4393 322.176,-203.1722"/>
<polygon fill="#191970" stroke="#191970" points="205.4689,-257.5346 199.5682,-266.3343 209.6685,-263.135 205.4689,-257.5346"/>
</g>
<!-- Node67684 -->
<g id="node4" class="node">
<title>Node67684</title>
<g id="a_node4"><a xlink:href="quickjs_8c.html#a1bf6b62983e8fff99c0a5d5a9f486115" target="_top" xlink:title="js_async_function_resume">
<polygon fill="none" stroke="#ff0000" points="461,-820.5 461,-839.5 594,-839.5 594,-820.5 461,-820.5"/>
<text text-anchor="middle" x="527.5" y="-827.5" font-family="Helvetica,sans-Serif" font-size="10.00" fill="#000000">js_async_function_resume</text>
</a>
</g>
</g>
<!-- Node67683&#45;&gt;Node67684 -->
<g id="edge3" class="edge">
<title>Node67683&#45;&gt;Node67684</title>
<path fill="none" stroke="#191970" d="M410.7425,-856.1757C434.639,-850.8184 462.5152,-844.5689 485.0356,-839.5201"/>
<polygon fill="#191970" stroke="#191970" points="409.7641,-852.8081 400.772,-858.411 411.2955,-859.6386 409.7641,-852.8081"/>
</g>
<!-- Node67692 -->
<g id="node5" class="node">
<title>Node67692</title>
<g id="a_node5"><a xlink:href="quickjs_8c.html#ae19867da709929c072f05e90301835a4" target="_top" xlink:title="js_async_generator\l_function_call">
<polygon fill="none" stroke="#ff0000" points="477,-946 477,-976 578,-976 578,-946 477,-946"/>
<text text-anchor="start" x="485" y="-964" font-family="Helvetica,sans-Serif" font-size="10.00" fill="#000000">js_async_generator</text>
<text text-anchor="middle" x="527.5" y="-953" font-family="Helvetica,sans-Serif" font-size="10.00" fill="#000000">_function_call</text>
</a>
</g>
</g>
<!-- Node67683&#45;&gt;Node67692 -->
<g id="edge4" class="edge">
<title>Node67683&#45;&gt;Node67692</title>
<path fill="none" stroke="#191970" d="M378.1791,-883.6904C398.3124,-898.8094 430.5505,-921.5979 461,-937 467.3525,-940.2132 474.24,-943.2024 481.094,-945.9041"/>
<polygon fill="#191970" stroke="#191970" points="380.1594,-880.7993 370.0812,-877.531 375.9216,-886.3707 380.1594,-880.7993"/>
</g>
<!-- Node67693 -->
<g id="node6" class="node">
<title>Node67693</title>
<g id="a_node6"><a xlink:href="quickjs_8c.html#a89b019c704a2d2914bc30b30a72040b3" target="_top" xlink:title="js_async_generator\l_resume_next">
<polygon fill="none" stroke="#000000" points="477,-897 477,-927 578,-927 578,-897 477,-897"/>
<text text-anchor="start" x="485" y="-915" font-family="Helvetica,sans-Serif" font-size="10.00" fill="#000000">js_async_generator</text>
<text text-anchor="middle" x="527.5" y="-904" font-family="Helvetica,sans-Serif" font-size="10.00" fill="#000000">_resume_next</text>
</a>
</g>
</g>
<!-- Node67683&#45;&gt;Node67693 -->
<g id="edge5" class="edge">
<title>Node67683&#45;&gt;Node67693</title>
<path fill="none" stroke="#191970" d="M404.7373,-880.1324C427.1637,-885.954 454.0693,-892.9383 476.969,-898.8828"/>
<polygon fill="#191970" stroke="#191970" points="405.3376,-876.6723 394.779,-877.5473 403.5787,-883.4477 405.3376,-876.6723"/>
</g>
<!-- Node67694 -->
<g id="node7" class="node">
<title>Node67694</title>
<g id="a_node7"><a xlink:href="quickjs_8c.html#ac90552b1f1659acb3dae9a4c62479a30" target="_top" xlink:title="js_generator_function_call">
<polygon fill="none" stroke="#ff0000" points="462.5,-858.5 462.5,-877.5 592.5,-877.5 592.5,-858.5 462.5,-858.5"/>
<text text-anchor="middle" x="527.5" y="-865.5" font-family="Helvetica,sans-Serif" font-size="10.00" fill="#000000">js_generator_function_call</text>
</a>
</g>
</g>
<!-- Node67683&#45;&gt;Node67694 -->
<g id="edge6" class="edge">
<title>Node67683&#45;&gt;Node67694</title>
<path fill="none" stroke="#191970" d="M420.4686,-868C434.0904,-868 448.5389,-868 462.2652,-868"/>
<polygon fill="#191970" stroke="#191970" points="420.2387,-864.5001 410.2387,-868 420.2386,-871.5001 420.2387,-864.5001"/>
</g>
<!-- Node67702&#45;&gt;Node67682 -->
<g id="edge21" class="edge">
<title>Node67702&#45;&gt;Node67682</title>
<path fill="none" stroke="#191970" d="M340.3957,-462.7798C303.5531,-421.3263 219.8604,-318.2246 197.2313,-285.6934"/>
<polygon fill="#191970" stroke="#191970" points="338.0057,-465.3552 347.308,-470.4265 343.1985,-460.6611 338.0057,-465.3552"/>
</g>
<!-- Node67702&#45;&gt;Node67684 -->
<g id="edge17" class="edge">
<title>Node67702&#45;&gt;Node67684</title>
<path fill="none" stroke="#191970" d="M361.5833,-499.6167C373.6742,-563.779 414.8037,-765.8714 461,-811 464.9509,-814.8596 469.6291,-817.9457 474.6457,-820.4115"/>
<polygon fill="#191970" stroke="#191970" points="364.9929,-498.8072 359.7247,-489.6151 358.1107,-500.0862 364.9929,-498.8072"/>
</g>
<!-- Node67703 -->
<g id="node9" class="node">
<title>Node67703</title>
<g id="a_node9"><a xlink:href="quickjs-libc_8c.html#abb1cbe3fdf905e81f603a3a0bfce475a" target="_top" xlink:title="call_handler">
<polygon fill="none" stroke="#000000" points="493.5,-782.5 493.5,-801.5 561.5,-801.5 561.5,-782.5 493.5,-782.5"/>
<text text-anchor="middle" x="527.5" y="-789.5" font-family="Helvetica,sans-Serif" font-size="10.00" fill="#000000">call_handler</text>
</a>
</g>
</g>
<!-- Node67702&#45;&gt;Node67703 -->
<g id="edge8" class="edge">
<title>Node67702&#45;&gt;Node67703</title>
<path fill="none" stroke="#191970" d="M358.9541,-499.7927C362.5787,-552.3344 379.812,-696.5231 461,-773 469.7401,-781.233 481.7991,-785.9331 493.2505,-788.6042"/>
<polygon fill="#191970" stroke="#191970" points="362.4304,-499.2879 358.3435,-489.5131 355.4427,-499.703 362.4304,-499.2879"/>
</g>
<!-- Node67704 -->
<g id="node10" class="node">
<title>Node67704</title>
<g id="a_node10"><a xlink:href="quickjs-libc_8c.html#a9fa4c190ba56314c7ed9b00bbc7ad0f9" target="_top" xlink:title="handle_posted_message">
<polygon fill="none" stroke="#000000" points="465,-744.5 465,-763.5 590,-763.5 590,-744.5 465,-744.5"/>
<text text-anchor="middle" x="527.5" y="-751.5" font-family="Helvetica,sans-Serif" font-size="10.00" fill="#000000">handle_posted_message</text>
</a>
</g>
</g>
<!-- Node67702&#45;&gt;Node67704 -->
<g id="edge9" class="edge">
<title>Node67702&#45;&gt;Node67704</title>
<path fill="none" stroke="#191970" d="M360.1286,-499.7573C366.344,-547.523 388.8574,-670.0988 461,-735 465.2847,-738.8546 470.3006,-741.9317 475.6227,-744.3874"/>
<polygon fill="#191970" stroke="#191970" points="363.5696,-499.0548 358.9049,-489.5421 356.6192,-499.8874 363.5696,-499.0548"/>
</g>
<!-- Node67705 -->
<g id="node11" class="node">
<title>Node67705</title>
<g id="a_node11"><a xlink:href="quickjs_8c.html#a624282391413d4c5a030adbd8b77aa80" target="_top" xlink:title="internalize_json_property">
<polygon fill="none" stroke="#ff0000" points="465,-688.5 465,-707.5 590,-707.5 590,-688.5 465,-688.5"/>
<text text-anchor="middle" x="527.5" y="-695.5" font-family="Helvetica,sans-Serif" font-size="10.00" fill="#000000">internalize_json_property</text>
</a>
</g>
</g>
<!-- Node67702&#45;&gt;Node67705 -->
<g id="edge10" class="edge">
<title>Node67702&#45;&gt;Node67705</title>
<path fill="none" stroke="#191970" d="M362.5141,-499.3938C372.8065,-539.2305 401.8301,-630.5874 461,-679 465.7394,-682.8778 471.2297,-685.9645 476.9836,-688.4216"/>
<polygon fill="#191970" stroke="#191970" points="365.892,-498.4729 360.0984,-489.6025 359.0958,-500.1498 365.892,-498.4729"/>
</g>
<!-- Node67707 -->
<g id="node12" class="node">
<title>Node67707</title>
<g id="a_node12"><a xlink:href="quickjs_8c.html#aa0bbf08a7e91459c68a312fba7016c6d" target="_top" xlink:title="js_array_every">
<polygon fill="none" stroke="#000000" points="487.5,-650.5 487.5,-669.5 567.5,-669.5 567.5,-650.5 487.5,-650.5"/>
<text text-anchor="middle" x="527.5" y="-657.5" font-family="Helvetica,sans-Serif" font-size="10.00" fill="#000000">js_array_every</text>
</a>
</g>
</g>
<!-- Node67702&#45;&gt;Node67707 -->
<g id="edge12" class="edge">
<title>Node67702&#45;&gt;Node67707</title>
<path fill="none" stroke="#191970" d="M365.0315,-499.3505C378.3608,-533.2777 410.5656,-603.451 461,-641 468.7048,-646.7363 478.0883,-650.7429 487.3488,-653.5407"/>
<polygon fill="#191970" stroke="#191970" points="368.1881,-497.8037 361.3678,-489.696 361.6435,-500.2873 368.1881,-497.8037"/>
</g>
<!-- Node67708 -->
<g id="node13" class="node">
<title>Node67708</title>
<g id="a_node13"><a xlink:href="quickjs_8c.html#a9dd41b086da4e13b3487cc9c6e2af2b8" target="_top" xlink:title="js_array_find">
<polygon fill="none" stroke="#000000" points="491.5,-612.5 491.5,-631.5 563.5,-631.5 563.5,-612.5 491.5,-612.5"/>
<text text-anchor="middle" x="527.5" y="-619.5" font-family="Helvetica,sans-Serif" font-size="10.00" fill="#000000">js_array_find</text>
</a>
</g>
</g>
<!-- Node67702&#45;&gt;Node67708 -->
<g id="edge13" class="edge">
<title>Node67702&#45;&gt;Node67708</title>
<path fill="none" stroke="#191970" d="M368.51,-498.5065C384.8142,-525.537 418.7681,-575.5729 461,-603 470.0629,-608.8858 480.9726,-612.9815 491.3104,-615.8182"/>
<polygon fill="#191970" stroke="#191970" points="371.4031,-496.5215 363.319,-489.6733 365.368,-500.0681 371.4031,-496.5215"/>
</g>
<!-- Node67709 -->
<g id="node14" class="node">
<title>Node67709</title>
<g id="a_node14"><a xlink:href="quickjs_8c.html#a5e32da9a43002cb96dcbd62a1a340144" target="_top" xlink:title="js_array_from">
<polygon fill="none" stroke="#000000" points="489.5,-574.5 489.5,-593.5 565.5,-593.5 565.5,-574.5 489.5,-574.5"/>
<text text-anchor="middle" x="527.5" y="-581.5" font-family="Helvetica,sans-Serif" font-size="10.00" fill="#000000">js_array_from</text>
</a>
</g>
</g>
<!-- Node67702&#45;&gt;Node67709 -->
<g id="edge14" class="edge">
<title>Node67702&#45;&gt;Node67709</title>
<path fill="none" stroke="#191970" d="M373.9681,-496.8442C392.9921,-515.9775 426.5521,-546.8852 461,-565 469.7144,-569.5826 479.669,-573.1788 489.1753,-575.9505"/>
<polygon fill="#191970" stroke="#191970" points="376.4573,-494.3835 366.9684,-489.6705 371.4471,-499.2722 376.4573,-494.3835"/>
</g>
<!-- Node67710 -->
<g id="node15" class="node">
<title>Node67710</title>
<g id="a_node15"><a xlink:href="quickjs_8c.html#a36c1692489542a86dd79a7d39ab8ff95" target="_top" xlink:title="js_array_reduce">
<polygon fill="none" stroke="#000000" points="484.5,-536.5 484.5,-555.5 570.5,-555.5 570.5,-536.5 484.5,-536.5"/>
<text text-anchor="middle" x="527.5" y="-543.5" font-family="Helvetica,sans-Serif" font-size="10.00" fill="#000000">js_array_reduce</text>
</a>
</g>
</g>
<!-- Node67702&#45;&gt;Node67710 -->
<g id="edge15" class="edge">
<title>Node67702&#45;&gt;Node67710</title>
<path fill="none" stroke="#191970" d="M385.6876,-494.0059C406.1566,-504.0203 434.8896,-517.3743 461,-527 470.3507,-530.4472 480.6284,-533.6563 490.2491,-536.4194"/>
<polygon fill="#191970" stroke="#191970" points="387.1432,-490.8212 376.6277,-489.5272 384.0411,-497.0963 387.1432,-490.8212"/>
</g>
<!-- Node67711 -->
<g id="node16" class="node">
<title>Node67711</title>
<g id="a_node16"><a xlink:href="quickjs_8c.html#aa45afa6d2861615f29444c9614ce766a" target="_top" xlink:title="js_async_from_sync\l_iterator_next">
<polygon fill="none" stroke="#000000" points="474,-487 474,-517 581,-517 581,-487 474,-487"/>
<text text-anchor="start" x="482" y="-505" font-family="Helvetica,sans-Serif" font-size="10.00" fill="#000000">js_async_from_sync</text>
<text text-anchor="middle" x="527.5" y="-494" font-family="Helvetica,sans-Serif" font-size="10.00" fill="#000000">_iterator_next</text>
</a>
</g>
</g>
<!-- Node67702&#45;&gt;Node67711 -->
<g id="edge16" class="edge">
<title>Node67702&#45;&gt;Node67711</title>
<path fill="none" stroke="#191970" d="M393.8359,-484.6513C417.0343,-487.6623 447.6674,-491.6382 473.7545,-495.0242"/>
<polygon fill="#191970" stroke="#191970" points="394.1107,-481.1577 383.7434,-483.3413 393.2097,-488.0994 394.1107,-481.1577"/>
</g>
<!-- Node67712 -->
<g id="node17" class="node">
<title>Node67712</title>
<g id="a_node17"><a xlink:href="quickjs_8c.html#a2355fabf91f59212ea65baba1b0b7c1b" target="_top" xlink:title="js_async_generator_next">
<polygon fill="none" stroke="#000000" points="465,-448.5 465,-467.5 590,-467.5 590,-448.5 465,-448.5"/>
<text text-anchor="middle" x="527.5" y="-455.5" font-family="Helvetica,sans-Serif" font-size="10.00" fill="#000000">js_async_generator_next</text>
</a>
</g>
</g>
<!-- Node67702&#45;&gt;Node67712 -->
<g id="edge18" class="edge">
<title>Node67702&#45;&gt;Node67712</title>
<path fill="none" stroke="#191970" d="M393.9311,-475.3364C414.5135,-472.6649 440.9253,-469.2368 464.8209,-466.1353"/>
<polygon fill="#191970" stroke="#191970" points="393.2097,-471.9006 383.7434,-476.6587 394.1107,-478.8423 393.2097,-471.9006"/>
</g>
<!-- Node67713 -->
<g id="node18" class="node">
<title>Node67713</title>
<g id="a_node18"><a xlink:href="quickjs_8c.html#a3e852026d167fa03c673f86697dd3e67" target="_top" xlink:title="js_async_generator\l_resolve_or_reject">
<polygon fill="none" stroke="#ff0000" points="477,-399 477,-429 578,-429 578,-399 477,-399"/>
<text text-anchor="start" x="485" y="-417" font-family="Helvetica,sans-Serif" font-size="10.00" fill="#000000">js_async_generator</text>
<text text-anchor="middle" x="527.5" y="-406" font-family="Helvetica,sans-Serif" font-size="10.00" fill="#000000">_resolve_or_reject</text>
</a>
</g>
</g>
<!-- Node67702&#45;&gt;Node67713 -->
<g id="edge19" class="edge">
<title>Node67702&#45;&gt;Node67713</title>
<path fill="none" stroke="#191970" d="M391.0449,-466.6589C411.2172,-458.5615 437.5534,-448.0729 461,-439 469.3971,-435.7507 478.4126,-432.3216 487.011,-429.0796"/>
<polygon fill="#191970" stroke="#191970" points="389.6495,-463.4476 381.6769,-470.4253 392.2607,-469.9423 389.6495,-463.4476"/>
</g>
<!-- Node67716 -->
<g id="node19" class="node">
<title>Node67716</title>
<g id="a_node19"><a xlink:href="quickjs_8c.html#afd4ef2d701fa0702f321925b61c57bbf" target="_top" xlink:title="js_call_bound_function">
<polygon fill="none" stroke="#ff0000" points="469.5,-360.5 469.5,-379.5 585.5,-379.5 585.5,-360.5 469.5,-360.5"/>
<text text-anchor="middle" x="527.5" y="-367.5" font-family="Helvetica,sans-Serif" font-size="10.00" fill="#000000">js_call_bound_function</text>
</a>
</g>
</g>
<!-- Node67702&#45;&gt;Node67716 -->
<g id="edge20" class="edge">
<title>Node67702&#45;&gt;Node67716</title>
<path fill="none" stroke="#191970" d="M373.2245,-462.8356C391.9913,-442.6687 425.7497,-409.4934 461,-390 468.7017,-385.741 477.4184,-382.2846 485.945,-379.5195"/>
<polygon fill="#191970" stroke="#191970" points="370.5126,-460.6149 366.3566,-470.3606 375.683,-465.3338 370.5126,-460.6149"/>
</g>
<!-- Node67717 -->
<g id="node20" class="node">
<title>Node67717</title>
<g id="a_node20"><a xlink:href="quickjs_8c.html#a6357b7fdae71c70c140e78e6c20cb5c2" target="_top" xlink:title="js_dynamic_import_job">
<polygon fill="none" stroke="#ff0000" points="469.5,-322.5 469.5,-341.5 585.5,-341.5 585.5,-322.5 469.5,-322.5"/>
<text text-anchor="middle" x="527.5" y="-329.5" font-family="Helvetica,sans-Serif" font-size="10.00" fill="#000000">js_dynamic_import_job</text>
</a>
</g>
</g>
<!-- Node67702&#45;&gt;Node67717 -->
<g id="edge22" class="edge">
<title>Node67702&#45;&gt;Node67717</title>
<path fill="none" stroke="#191970" d="M367.8357,-461.3685C383.6649,-433.201 417.4751,-379.9945 461,-351 466.7959,-347.139 473.379,-344.0523 480.0951,-341.5871"/>
<polygon fill="#191970" stroke="#191970" points="364.7294,-459.754 363.0001,-470.2068 370.8704,-463.1139 364.7294,-459.754"/>
</g>
<!-- Node67719 -->
<g id="node21" class="node">
<title>Node67719</title>
<g id="a_node21"><a xlink:href="quickjs_8c.html#ad90c33b4aae1181151bda4a98ac2ef23" target="_top" xlink:title="JS_FlattenIntoArray">
<polygon fill="none" stroke="#ff0000" points="475.5,-266.5 475.5,-285.5 579.5,-285.5 579.5,-266.5 475.5,-266.5"/>
<text text-anchor="middle" x="527.5" y="-273.5" font-family="Helvetica,sans-Serif" font-size="10.00" fill="#000000">JS_FlattenIntoArray</text>
</a>
</g>
</g>
<!-- Node67702&#45;&gt;Node67719 -->
<g id="edge23" class="edge">
<title>Node67702&#45;&gt;Node67719</title>
<path fill="none" stroke="#191970" d="M366.0053,-460.5945C380.6481,-427.0099 414.5658,-357.3939 461,-313 473.319,-301.2223 490.1086,-291.9192 503.7351,-285.5874"/>
<polygon fill="#191970" stroke="#191970" points="362.6321,-459.5828 361.937,-470.1548 369.0732,-462.3238 362.6321,-459.5828"/>
</g>
<!-- Node67721 -->
<g id="node22" class="node">
<title>Node67721</title>
<g id="a_node22"><a xlink:href="quickjs_8c.html#a8d4b24969540aff427939eeda47f451d" target="_top" xlink:title="js_function_apply">
<polygon fill="none" stroke="#ff0000" points="481.5,-190.5 481.5,-209.5 573.5,-209.5 573.5,-190.5 481.5,-190.5"/>
<text text-anchor="middle" x="527.5" y="-197.5" font-family="Helvetica,sans-Serif" font-size="10.00" fill="#000000">js_function_apply</text>
</a>
</g>
</g>
<!-- Node67702&#45;&gt;Node67721 -->
<g id="edge25" class="edge">
<title>Node67702&#45;&gt;Node67721</title>
<path fill="none" stroke="#191970" d="M365.0022,-460.92C386.6156,-402.2135 451.4035,-227.703 461,-219 466.7813,-213.757 473.9139,-209.9516 481.3389,-207.1917"/>
<polygon fill="#191970" stroke="#191970" points="361.6576,-459.8745 361.492,-470.4681 368.2277,-462.29 361.6576,-459.8745"/>
</g>
<!-- Node67724 -->
<g id="node23" class="node">
<title>Node67724</title>
<g id="a_node23"><a xlink:href="quickjs_8c.html#a677ad630a103e1f3d5129e0549112b50" target="_top" xlink:title="js_function_call">
<polygon fill="none" stroke="#000000" points="485.5,-228.5 485.5,-247.5 569.5,-247.5 569.5,-228.5 485.5,-228.5"/>
<text text-anchor="middle" x="527.5" y="-235.5" font-family="Helvetica,sans-Serif" font-size="10.00" fill="#000000">js_function_call</text>
</a>
</g>
</g>
<!-- Node67702&#45;&gt;Node67724 -->
<g id="edge27" class="edge">
<title>Node67702&#45;&gt;Node67724</title>
<path fill="none" stroke="#191970" d="M361.3782,-460.375C369.8917,-416.9853 396.3408,-312.3746 461,-257 467.9311,-251.0642 476.6078,-246.9782 485.3828,-244.1669"/>
<polygon fill="#191970" stroke="#191970" points="357.9306,-459.771 359.5493,-470.2415 364.8134,-461.0469 357.9306,-459.771"/>
</g>
<!-- Node67705&#45;&gt;Node67705 -->
<g id="edge11" class="edge">
<title>Node67705&#45;&gt;Node67705</title>
<path fill="none" stroke="#191970" d="M496.0629,-716.2746C496.9592,-721.741 507.4382,-726 527.5,-726 557.3594,-726 565.9906,-716.5653 553.3937,-707.7571"/>
<polygon fill="#191970" stroke="#191970" points="499.085,-718.0475 501.6063,-707.7571 493.2181,-714.2291 499.085,-718.0475"/>
</g>
<!-- Node67719&#45;&gt;Node67719 -->
<g id="edge24" class="edge">
<title>Node67719&#45;&gt;Node67719</title>
<path fill="none" stroke="#191970" d="M496.0629,-294.2746C496.9592,-299.741 507.4382,-304 527.5,-304 557.3594,-304 565.9906,-294.5653 553.3937,-285.7571"/>
<polygon fill="#191970" stroke="#191970" points="499.085,-296.0475 501.6063,-285.7571 493.2181,-292.2291 499.085,-296.0475"/>
</g>
<!-- Node67721&#45;&gt;Node67682 -->
<g id="edge26" class="edge">
<title>Node67721&#45;&gt;Node67682</title>
<path fill="none" stroke="#191970" d="M475.3737,-211.7905C408.6116,-226.8914 294.2452,-252.76 233.0372,-266.6047"/>
<polygon fill="#191970" stroke="#191970" points="476.2839,-215.1731 485.2653,-209.5531 474.7396,-208.3456 476.2839,-215.1731"/>
</g>
<!-- Node67788&#45;&gt;Node67682 -->
<g id="edge29" class="edge">
<title>Node67788&#45;&gt;Node67682</title>
<path fill="none" stroke="#191970" d="M280.5995,-282.7352C264.2131,-282.8184 247.523,-282.5514 233.0855,-281.9342"/>
<polygon fill="#191970" stroke="#191970" points="280.7742,-286.2338 290.7402,-282.6381 280.7071,-279.2341 280.7742,-286.2338"/>
</g>
<!-- Node67802&#45;&gt;Node67682 -->
<g id="edge31" class="edge">
<title>Node67802&#45;&gt;Node67682</title>
<path fill="none" stroke="#191970" d="M338.0972,-213.9473C324.6202,-219.8078 306.5127,-226.2065 291,-233 267.2541,-243.3991 241.3253,-257.0283 221.8912,-266.4625"/>
<polygon fill="#191970" stroke="#191970" points="339.8266,-217.0015 347.3808,-209.5729 336.8429,-210.6692 339.8266,-217.0015"/>
</g>
<!-- Node67802&#45;&gt;Node68276 -->
<g id="edge32" class="edge">
<title>Node67802&#45;&gt;Node68276</title>
<path fill="none" stroke="#191970" d="M403.2992,-189.8444C428.7064,-184.1484 460.2026,-177.0873 485.12,-171.5011"/>
<polygon fill="#191970" stroke="#191970" points="402.5249,-186.4311 393.5328,-192.034 404.0562,-193.2615 402.5249,-186.4311"/>
</g>
<!-- Node67802&#45;&gt;Node68280 -->
<g id="edge33" class="edge">
<title>Node67802&#45;&gt;Node68280</title>
<path fill="none" stroke="#191970" d="M381.4186,-185.0201C401.8129,-172.474 432.4994,-154.7778 461,-143 469.6556,-139.4231 479.2102,-136.262 488.3124,-133.5954"/>
<polygon fill="#191970" stroke="#191970" points="379.4517,-182.1218 372.8174,-190.3823 383.1551,-188.062 379.4517,-182.1218"/>
</g>
</g>
</svg>
        <g id="navigator" transform="translate(0 0)" fill="#404254">
                <rect fill="#f2f5e9" fill-opacity="0.5" stroke="#606060" stroke-width=".5" x="0" y="0" width="60" height="60"/>
                <use id="zoomplus" xlink:href="#zoomPlus" x="17" y="9" onmousedown="handleZoom(evt,'in')"/>
                <use id="zoomminus" xlink:href="#zoomMin" x="42" y="9" onmousedown="handleZoom(evt,'out')"/>
                <use id="reset" xlink:href="#resetDef" x="30" y="36" onmousedown="handleReset()"/>
                <g id="arrowUp" xlink:href="#dirArrow" transform="translate(30 24)" onmousedown="handlePan(0,-1)">
                  <use xlink:href="#rim" fill="#404040">
                        <set attributeName="fill" to="#808080" begin="arrowUp.mouseover" end="arrowUp.mouseout"/>
                  </use>
                  <path fill="none" stroke="white" stroke-width="1.5" d="M0,-3.0v7 M-2.5,-0.5L0,-3.0L2.5,-0.5"/>
                </g>
                <g id="arrowRight" xlink:href="#dirArrow" transform="rotate(90) translate(36 -43)" onmousedown="handlePan(1,0)">
                  <use xlink:href="#rim" fill="#404040">
                        <set attributeName="fill" to="#808080" begin="arrowRight.mouseover" end="arrowRight.mouseout"/>
                  </use>
                  <path fill="none" stroke="white" stroke-width="1.5" d="M0,-3.0v7 M-2.5,-0.5L0,-3.0L2.5,-0.5"/>
                </g>
                <g id="arrowDown" xlink:href="#dirArrow" transform="rotate(180) translate(-30 -48)" onmousedown="handlePan(0,1)">
                  <use xlink:href="#rim" fill="#404040">
                        <set attributeName="fill" to="#808080" begin="arrowDown.mouseover" end="arrowDown.mouseout"/>
                  </use>
                  <path fill="none" stroke="white" stroke-width="1.5" d="M0,-3.0v7 M-2.5,-0.5L0,-3.0L2.5,-0.5"/>
                </g>
                <g id="arrowLeft" xlink:href="#dirArrow" transform="rotate(270) translate(-36 17)" onmousedown="handlePan(-1,0)">
                  <use xlink:href="#rim" fill="#404040">
                        <set attributeName="fill" to="#808080" begin="arrowLeft.mouseover" end="arrowLeft.mouseout"/>
                  </use>
                  <path fill="none" stroke="white" stroke-width="1.5" d="M0,-3.0v7 M-2.5,-0.5L0,-3.0L2.5,-0.5"/>
                </g>
        </g>
        <svg viewBox="0 0 15 15" width="100%" height="30px" preserveAspectRatio="xMaxYMin meet">
         <g id="arrow_out" transform="scale(0.3 0.3)">
          <a xlink:href="quickjs_8h_af9bbaa75fb37e5bb92075a1d8bcb3a08_icgraph_org.svg" target="_base">
           <rect id="button" ry="5" rx="5" y="6" x="6" height="38" width="38"
                fill="#f2f5e9" fill-opacity="0.5" stroke="#606060" stroke-width="1.0"/>
           <path id="arrow"
             d="M 11.500037,31.436501 C 11.940474,20.09759 22.043105,11.32322 32.158766,21.979434 L 37.068811,17.246167 C 37.068811,17.246167 37.088388,32 37.088388,32 L 22.160133,31.978069 C 22.160133,31.978069 26.997745,27.140456 26.997745,27.140456 C 18.528582,18.264221 13.291696,25.230495 11.500037,31.436501 z"
             style="fill:#404040;"/>
          </a>
         </g>
        </svg>
</svg>
