<?xml version="1.0" encoding="UTF-8" standalone="no"?>
<!DOCTYPE svg PUBLIC "-//W3C//DTD SVG 1.1//EN"
 "http://www.w3.org/Graphics/SVG/1.1/DTD/svg11.dtd">
<!-- Generated by graphviz version 2.40.1 (20161225.0304)
 -->
<!-- Title: JS_CheckBrand Pages: 1 -->
<!--zoomable 1013 -->
<svg id="main" version="1.1" xmlns="http://www.w3.org/2000/svg" xmlns:xlink="http://www.w3.org/1999/xlink" xml:space="preserve" onload="init(evt)">
<style type="text/css"><![CDATA[
.edge:hover path { stroke: red; }
.edge:hover polygon { stroke: red; fill: red; }
]]></style>
<script type="text/javascript"><![CDATA[
var edges = document.getElementsByTagName('g');
if (edges && edges.length) {
  for (var i=0;i<edges.length;i++) {
    if (edges[i].id.substr(0,4)=='edge') {
      edges[i].setAttribute('class','edge');
    }
  }
}
]]></script>
        <defs>
                <circle id="rim" cx="0" cy="0" r="7"/>
                <circle id="rim2" cx="0" cy="0" r="3.5"/>
                <g id="zoomPlus">
                        <use xlink:href="#rim" fill="#404040">
                                <set attributeName="fill" to="#808080" begin="zoomplus.mouseover" end="zoomplus.mouseout"/>
                        </use>
                        <path d="M-4,0h8M0,-4v8" fill="none" stroke="white" stroke-width="1.5" pointer-events="none"/>
                </g>
                <g id="zoomMin">
                        <use xlink:href="#rim" fill="#404040">
                                <set attributeName="fill" to="#808080" begin="zoomminus.mouseover" end="zoomminus.mouseout"/>
                        </use>
                        <path d="M-4,0h8" fill="none" stroke="white" stroke-width="1.5" pointer-events="none"/>
                </g>
                <g id="dirArrow">
                        <path fill="none" stroke="white" stroke-width="1.5" d="M0,-3.0v7 M-2.5,-0.5L0,-3.0L2.5,-0.5"/>
                </g>
               <g id="resetDef">
                       <use xlink:href="#rim2" fill="#404040">
                               <set attributeName="fill" to="#808080" begin="reset.mouseover" end="reset.mouseout"/>
                       </use>
               </g>
        </defs>

<script type="text/javascript">
var viewWidth = 554;
var viewHeight = 1013;
var sectionId = 'dynsection-555';
</script>
<script xlink:href="svgpan.js"/>
<svg id="graph" class="graph">
<g id="viewport">
<title>JS_CheckBrand</title>
<!-- Node186483 -->
<g id="node1" class="node">
<title>Node186483</title>
<polygon fill="#bfbfbf" stroke="#000000" points="0,-274.5 0,-293.5 88,-293.5 88,-274.5 0,-274.5"/>
<text text-anchor="middle" x="44" y="-281.5" font-family="Helvetica,sans-Serif" font-size="10.00" fill="#000000">JS_CheckBrand</text>
</g>
<!-- Node186484 -->
<g id="node2" class="node">
<title>Node186484</title>
<g id="a_node2"><a xlink:href="quickjs_8c.html#ac2894ff4edcdb4e6841bcce9c76081e3" target="_top" xlink:title="JS_CallInternal">
<polygon fill="none" stroke="#000000" points="124,-274.5 124,-293.5 207,-293.5 207,-274.5 124,-274.5"/>
<text text-anchor="middle" x="165.5" y="-281.5" font-family="Helvetica,sans-Serif" font-size="10.00" fill="#000000">JS_CallInternal</text>
</a>
</g>
</g>
<!-- Node186483&#45;&gt;Node186484 -->
<g id="edge1" class="edge">
<title>Node186483&#45;&gt;Node186484</title>
<path fill="none" stroke="#191970" d="M98.2216,-284C106.8576,-284 115.6717,-284 123.9548,-284"/>
<polygon fill="#191970" stroke="#191970" points="98.208,-280.5001 88.208,-284 98.208,-287.5001 98.208,-280.5001"/>
</g>
<!-- Node186484&#45;&gt;Node186484 -->
<g id="edge40" class="edge">
<title>Node186484&#45;&gt;Node186484</title>
<path fill="none" stroke="#191970" d="M143.1787,-303.0292C144.3962,-308.128 151.8367,-312 165.5,-312 186.8281,-312 192.9933,-302.5653 183.9955,-293.7571"/>
<polygon fill="#191970" stroke="#191970" points="146.4256,-304.3361 147.0045,-293.7571 139.9548,-301.6661 146.4256,-304.3361"/>
</g>
<!-- Node186485 -->
<g id="node3" class="node">
<title>Node186485</title>
<g id="a_node3"><a xlink:href="quickjs_8c.html#ade71a22dc56e7371392393df663b28b3" target="_top" xlink:title="async_func_resume">
<polygon fill="none" stroke="#000000" points="258,-892.5 258,-911.5 362,-911.5 362,-892.5 258,-892.5"/>
<text text-anchor="middle" x="310" y="-899.5" font-family="Helvetica,sans-Serif" font-size="10.00" fill="#000000">async_func_resume</text>
</a>
</g>
</g>
<!-- Node186484&#45;&gt;Node186485 -->
<g id="edge2" class="edge">
<title>Node186484&#45;&gt;Node186485</title>
<path fill="none" stroke="#191970" d="M170.0805,-303.5901C192.6381,-400.0646 291.4849,-822.8142 307.7352,-892.3141"/>
<polygon fill="#191970" stroke="#191970" points="173.4547,-302.6478 167.7697,-293.7073 166.6385,-304.2416 173.4547,-302.6478"/>
</g>
<!-- Node186504 -->
<g id="node8" class="node">
<title>Node186504</title>
<g id="a_node8"><a xlink:href="quickjs_8c.html#a1a4c02a29525d5cb2085dd8bca3af350" target="_top" xlink:title="JS_Call">
<polygon fill="none" stroke="#ff0000" points="284.5,-366.5 284.5,-385.5 335.5,-385.5 335.5,-366.5 284.5,-366.5"/>
<text text-anchor="middle" x="310" y="-373.5" font-family="Helvetica,sans-Serif" font-size="10.00" fill="#000000">JS_Call</text>
</a>
</g>
</g>
<!-- Node186484&#45;&gt;Node186504 -->
<g id="edge7" class="edge">
<title>Node186484&#45;&gt;Node186504</title>
<path fill="none" stroke="#191970" d="M197.5346,-298.6777C230.4699,-317.7532 279.7662,-349.8516 300.3895,-366.3007"/>
<polygon fill="#191970" stroke="#191970" points="199.1399,-295.5643 188.7164,-293.6666 195.6814,-301.6503 199.1399,-295.5643"/>
</g>
<!-- Node186590 -->
<g id="node29" class="node">
<title>Node186590</title>
<g id="a_node29"><a xlink:href="quickjs_8c.html#ad35594576a14c10812efaf958c99af8a" target="_top" xlink:title="JS_CallConstructorInternal">
<polygon fill="none" stroke="#ff0000" points="243,-274.5 243,-293.5 377,-293.5 377,-274.5 243,-274.5"/>
<text text-anchor="middle" x="310" y="-281.5" font-family="Helvetica,sans-Serif" font-size="10.00" fill="#000000">JS_CallConstructorInternal</text>
</a>
</g>
</g>
<!-- Node186484&#45;&gt;Node186590 -->
<g id="edge34" class="edge">
<title>Node186484&#45;&gt;Node186590</title>
<path fill="none" stroke="#191970" d="M217.5209,-277.4909C225.7845,-277.2892 234.4321,-277.2142 242.9815,-277.2658"/>
<polygon fill="#191970" stroke="#191970" points="217.1798,-273.9998 207.2954,-277.814 217.401,-280.9963 217.1798,-273.9998"/>
</g>
<!-- Node186604 -->
<g id="node30" class="node">
<title>Node186604</title>
<g id="a_node30"><a xlink:href="quickjs_8c.html#a75f6ee5e4235a7dc99889f3d2eb2c147" target="_top" xlink:title="JS_CallFree">
<polygon fill="none" stroke="#ff0000" points="274.5,-91.5 274.5,-110.5 345.5,-110.5 345.5,-91.5 274.5,-91.5"/>
<text text-anchor="middle" x="310" y="-98.5" font-family="Helvetica,sans-Serif" font-size="10.00" fill="#000000">JS_CallFree</text>
</a>
</g>
</g>
<!-- Node186484&#45;&gt;Node186604 -->
<g id="edge36" class="edge">
<title>Node186484&#45;&gt;Node186604</title>
<path fill="none" stroke="#191970" d="M168.7023,-264.4197C176.2042,-229.2158 197.8044,-156.4964 243,-116 251.742,-108.167 263.2224,-102.8425 274.2049,-99.7033"/>
<polygon fill="#191970" stroke="#191970" points="165.2265,-263.9582 166.75,-274.4429 172.0974,-265.2965 165.2265,-263.9582"/>
</g>
<!-- Node186486 -->
<g id="node4" class="node">
<title>Node186486</title>
<g id="a_node4"><a xlink:href="quickjs_8c.html#ac90552b1f1659acb3dae9a4c62479a30" target="_top" xlink:title="js_generator_function_call">
<polygon fill="none" stroke="#ff0000" points="414.5,-985.5 414.5,-1004.5 544.5,-1004.5 544.5,-985.5 414.5,-985.5"/>
<text text-anchor="middle" x="479.5" y="-992.5" font-family="Helvetica,sans-Serif" font-size="10.00" fill="#000000">js_generator_function_call</text>
</a>
</g>
</g>
<!-- Node186485&#45;&gt;Node186486 -->
<g id="edge3" class="edge">
<title>Node186485&#45;&gt;Node186486</title>
<path fill="none" stroke="#191970" d="M328.4671,-918.3133C348.1641,-934.9499 380.8865,-960.4617 413,-976 420.782,-979.7654 429.4469,-982.9157 437.8825,-985.499"/>
<polygon fill="#191970" stroke="#191970" points="330.488,-915.4351 320.6226,-911.5717 325.9255,-920.7439 330.488,-915.4351"/>
</g>
<!-- Node186495 -->
<g id="node5" class="node">
<title>Node186495</title>
<g id="a_node5"><a xlink:href="quickjs_8c.html#a1bf6b62983e8fff99c0a5d5a9f486115" target="_top" xlink:title="js_async_function_resume">
<polygon fill="none" stroke="#ff0000" points="413,-848.5 413,-867.5 546,-867.5 546,-848.5 413,-848.5"/>
<text text-anchor="middle" x="479.5" y="-855.5" font-family="Helvetica,sans-Serif" font-size="10.00" fill="#000000">js_async_function_resume</text>
</a>
</g>
</g>
<!-- Node186485&#45;&gt;Node186495 -->
<g id="edge4" class="edge">
<title>Node186485&#45;&gt;Node186495</title>
<path fill="none" stroke="#191970" d="M356.4651,-889.9383C383.6496,-882.8815 417.4877,-874.0976 442.7928,-867.5287"/>
<polygon fill="#191970" stroke="#191970" points="355.5787,-886.5523 346.779,-892.4527 357.3376,-893.3277 355.5787,-886.5523"/>
</g>
<!-- Node186502 -->
<g id="node6" class="node">
<title>Node186502</title>
<g id="a_node6"><a xlink:href="quickjs_8c.html#a89b019c704a2d2914bc30b30a72040b3" target="_top" xlink:title="js_async_generator\l_resume_next">
<polygon fill="none" stroke="#000000" points="429,-936 429,-966 530,-966 530,-936 429,-936"/>
<text text-anchor="start" x="437" y="-954" font-family="Helvetica,sans-Serif" font-size="10.00" fill="#000000">js_async_generator</text>
<text text-anchor="middle" x="479.5" y="-943" font-family="Helvetica,sans-Serif" font-size="10.00" fill="#000000">_resume_next</text>
</a>
</g>
</g>
<!-- Node186485&#45;&gt;Node186502 -->
<g id="edge5" class="edge">
<title>Node186485&#45;&gt;Node186502</title>
<path fill="none" stroke="#191970" d="M352.9372,-914.4125C376.0226,-921.0862 404.6309,-929.3564 428.805,-936.3448"/>
<polygon fill="#191970" stroke="#191970" points="353.6623,-910.9789 343.0837,-911.564 351.7183,-917.7036 353.6623,-910.9789"/>
</g>
<!-- Node186503 -->
<g id="node7" class="node">
<title>Node186503</title>
<g id="a_node7"><a xlink:href="quickjs_8c.html#ae19867da709929c072f05e90301835a4" target="_top" xlink:title="js_async_generator\l_function_call">
<polygon fill="none" stroke="#ff0000" points="429,-887 429,-917 530,-917 530,-887 429,-887"/>
<text text-anchor="start" x="437" y="-905" font-family="Helvetica,sans-Serif" font-size="10.00" fill="#000000">js_async_generator</text>
<text text-anchor="middle" x="479.5" y="-894" font-family="Helvetica,sans-Serif" font-size="10.00" fill="#000000">_function_call</text>
</a>
</g>
</g>
<!-- Node186485&#45;&gt;Node186503 -->
<g id="edge6" class="edge">
<title>Node186485&#45;&gt;Node186503</title>
<path fill="none" stroke="#191970" d="M372.388,-902C390.9885,-902 411.1368,-902 428.8866,-902"/>
<polygon fill="#191970" stroke="#191970" points="372.2387,-898.5001 362.2387,-902 372.2386,-905.5001 372.2387,-898.5001"/>
</g>
<!-- Node186504&#45;&gt;Node186484 -->
<g id="edge14" class="edge">
<title>Node186504&#45;&gt;Node186484</title>
<path fill="none" stroke="#191970" d="M278.2443,-361.4837C245.24,-342.3885 195.5848,-310.0599 174.981,-293.5959"/>
<polygon fill="#191970" stroke="#191970" points="276.649,-364.6027 287.0736,-366.4945 280.104,-358.5148 276.649,-364.6027"/>
</g>
<!-- Node186504&#45;&gt;Node186495 -->
<g id="edge15" class="edge">
<title>Node186504&#45;&gt;Node186495</title>
<path fill="none" stroke="#191970" d="M311.7375,-395.7477C319.14,-475.5029 350.5618,-772.7381 413,-839 416.6232,-842.845 420.9653,-845.9296 425.6723,-848.4016"/>
<polygon fill="#191970" stroke="#191970" points="315.2073,-395.2551 310.8188,-385.6119 308.2359,-395.8871 315.2073,-395.2551"/>
</g>
<!-- Node186505 -->
<g id="node9" class="node">
<title>Node186505</title>
<g id="a_node9"><a xlink:href="structqjs_1_1js__traits_3_01std_1_1function_3_01R_07Args_8_8_8_08_4_01_4.html#ac449e51d3fe10c6c115596fa6ec278ee" target="_top" xlink:title="qjs::js_traits\&lt; std\l::function\&lt; R(Args...)\l\&gt; \&gt;::unwrap">
<polygon fill="none" stroke="#000000" points="425,-600.5 425,-641.5 534,-641.5 534,-600.5 425,-600.5"/>
<text text-anchor="start" x="433" y="-629.5" font-family="Helvetica,sans-Serif" font-size="10.00" fill="#000000">qjs::js_traits&lt; std</text>
<text text-anchor="start" x="433" y="-618.5" font-family="Helvetica,sans-Serif" font-size="10.00" fill="#000000">::function&lt; R(Args...)</text>
<text text-anchor="middle" x="479.5" y="-607.5" font-family="Helvetica,sans-Serif" font-size="10.00" fill="#000000">&gt; &gt;::unwrap</text>
</a>
</g>
</g>
<!-- Node186504&#45;&gt;Node186505 -->
<g id="edge8" class="edge">
<title>Node186504&#45;&gt;Node186505</title>
<path fill="none" stroke="#191970" d="M314.4623,-395.375C324.8697,-436.57 354.4328,-533.763 413,-591 416.5327,-594.4525 420.5324,-597.5493 424.7748,-600.3186"/>
<polygon fill="#191970" stroke="#191970" points="317.8332,-394.4238 312.0752,-385.5302 311.0303,-396.0734 317.8332,-394.4238"/>
</g>
<!-- Node186506 -->
<g id="node10" class="node">
<title>Node186506</title>
<g id="a_node10"><a xlink:href="quickjs-libc_8c.html#abb1cbe3fdf905e81f603a3a0bfce475a" target="_top" xlink:title="call_handler">
<polygon fill="none" stroke="#000000" points="445.5,-562.5 445.5,-581.5 513.5,-581.5 513.5,-562.5 445.5,-562.5"/>
<text text-anchor="middle" x="479.5" y="-569.5" font-family="Helvetica,sans-Serif" font-size="10.00" fill="#000000">call_handler</text>
</a>
</g>
</g>
<!-- Node186504&#45;&gt;Node186506 -->
<g id="edge9" class="edge">
<title>Node186504&#45;&gt;Node186506</title>
<path fill="none" stroke="#191970" d="M315.9669,-395.7267C328.0804,-432.3807 359.0815,-511.0638 413,-553 422.2883,-560.2242 434.2106,-564.7017 445.3889,-567.4768"/>
<polygon fill="#191970" stroke="#191970" points="319.173,-394.2588 312.8095,-385.7879 312.5016,-396.3783 319.173,-394.2588"/>
</g>
<!-- Node186507 -->
<g id="node11" class="node">
<title>Node186507</title>
<g id="a_node11"><a xlink:href="quickjs-libc_8c.html#a9fa4c190ba56314c7ed9b00bbc7ad0f9" target="_top" xlink:title="handle_posted_message">
<polygon fill="none" stroke="#000000" points="417,-524.5 417,-543.5 542,-543.5 542,-524.5 417,-524.5"/>
<text text-anchor="middle" x="479.5" y="-531.5" font-family="Helvetica,sans-Serif" font-size="10.00" fill="#000000">handle_posted_message</text>
</a>
</g>
</g>
<!-- Node186504&#45;&gt;Node186507 -->
<g id="edge10" class="edge">
<title>Node186504&#45;&gt;Node186507</title>
<path fill="none" stroke="#191970" d="M318.8132,-394.8068C333.8433,-424.8129 367.3,-483.3519 413,-515 418.6266,-518.8965 425.0444,-521.9998 431.6221,-524.4699"/>
<polygon fill="#191970" stroke="#191970" points="321.9551,-393.2643 314.4314,-385.8048 315.6611,-396.328 321.9551,-393.2643"/>
</g>
<!-- Node186508 -->
<g id="node12" class="node">
<title>Node186508</title>
<g id="a_node12"><a xlink:href="quickjs_8c.html#aa049793cc8648d35fe81876a2543ca4e" target="_top" xlink:title="JS_GetIterator2">
<polygon fill="none" stroke="#ff0000" points="436.5,-486.5 436.5,-505.5 522.5,-505.5 522.5,-486.5 436.5,-486.5"/>
<text text-anchor="middle" x="479.5" y="-493.5" font-family="Helvetica,sans-Serif" font-size="10.00" fill="#000000">JS_GetIterator2</text>
</a>
</g>
</g>
<!-- Node186504&#45;&gt;Node186508 -->
<g id="edge11" class="edge">
<title>Node186504&#45;&gt;Node186508</title>
<path fill="none" stroke="#191970" d="M323.3664,-393.7373C341.3204,-416.3395 375.3525,-455.0958 413,-477 420.161,-481.1665 428.2929,-484.4672 436.3519,-487.0663"/>
<polygon fill="#191970" stroke="#191970" points="325.9953,-391.4163 317.0957,-385.6676 320.4679,-395.7114 325.9953,-391.4163"/>
</g>
<!-- Node186540 -->
<g id="node13" class="node">
<title>Node186540</title>
<g id="a_node13"><a xlink:href="quickjs_8c.html#ad6303fbd3add4afa0cb64b0aa6d431ce" target="_top" xlink:title="JS_IteratorNext2">
<polygon fill="none" stroke="#ff0000" points="434,-448.5 434,-467.5 525,-467.5 525,-448.5 434,-448.5"/>
<text text-anchor="middle" x="479.5" y="-455.5" font-family="Helvetica,sans-Serif" font-size="10.00" fill="#000000">JS_IteratorNext2</text>
</a>
</g>
</g>
<!-- Node186504&#45;&gt;Node186540 -->
<g id="edge12" class="edge">
<title>Node186504&#45;&gt;Node186540</title>
<path fill="none" stroke="#191970" d="M331.4657,-391.5216C351.6737,-405.5409 383.2058,-425.922 413,-439 421.3559,-442.6678 430.6114,-445.8323 439.496,-448.4693"/>
<polygon fill="#191970" stroke="#191970" points="333.2159,-388.4733 323.0246,-385.577 329.1853,-394.1965 333.2159,-388.4733"/>
</g>
<!-- Node186544 -->
<g id="node14" class="node">
<title>Node186544</title>
<g id="a_node14"><a xlink:href="quickjs_8c.html#afd4ef2d701fa0702f321925b61c57bbf" target="_top" xlink:title="js_call_bound_function">
<polygon fill="none" stroke="#ff0000" points="421.5,-410.5 421.5,-429.5 537.5,-429.5 537.5,-410.5 421.5,-410.5"/>
<text text-anchor="middle" x="479.5" y="-417.5" font-family="Helvetica,sans-Serif" font-size="10.00" fill="#000000">js_call_bound_function</text>
</a>
</g>
</g>
<!-- Node186504&#45;&gt;Node186544 -->
<g id="edge13" class="edge">
<title>Node186504&#45;&gt;Node186544</title>
<path fill="none" stroke="#191970" d="M345.6969,-385.2665C374.2137,-392.669 414.0299,-403.0048 442.8058,-410.4747"/>
<polygon fill="#191970" stroke="#191970" points="346.302,-381.8076 335.7434,-382.6827 344.5432,-388.583 346.302,-381.8076"/>
</g>
<!-- Node186545 -->
<g id="node15" class="node">
<title>Node186545</title>
<g id="a_node15"><a xlink:href="quickjs_8c.html#a3e852026d167fa03c673f86697dd3e67" target="_top" xlink:title="js_async_generator\l_resolve_or_reject">
<polygon fill="none" stroke="#ff0000" points="429,-361 429,-391 530,-391 530,-361 429,-361"/>
<text text-anchor="start" x="437" y="-379" font-family="Helvetica,sans-Serif" font-size="10.00" fill="#000000">js_async_generator</text>
<text text-anchor="middle" x="479.5" y="-368" font-family="Helvetica,sans-Serif" font-size="10.00" fill="#000000">_resolve_or_reject</text>
</a>
</g>
</g>
<!-- Node186504&#45;&gt;Node186545 -->
<g id="edge16" class="edge">
<title>Node186504&#45;&gt;Node186545</title>
<path fill="none" stroke="#191970" d="M345.8847,-376C370.0145,-376 402.1716,-376 428.8919,-376"/>
<polygon fill="#191970" stroke="#191970" points="345.7434,-372.5001 335.7434,-376 345.7434,-379.5001 345.7434,-372.5001"/>
</g>
<!-- Node186548 -->
<g id="node16" class="node">
<title>Node186548</title>
<g id="a_node16"><a xlink:href="quickjs_8c.html#a2355fabf91f59212ea65baba1b0b7c1b" target="_top" xlink:title="js_async_generator_next">
<polygon fill="none" stroke="#000000" points="417,-322.5 417,-341.5 542,-341.5 542,-322.5 417,-322.5"/>
<text text-anchor="middle" x="479.5" y="-329.5" font-family="Helvetica,sans-Serif" font-size="10.00" fill="#000000">js_async_generator_next</text>
</a>
</g>
</g>
<!-- Node186504&#45;&gt;Node186548 -->
<g id="edge17" class="edge">
<title>Node186504&#45;&gt;Node186548</title>
<path fill="none" stroke="#191970" d="M345.6969,-366.7335C374.2137,-359.331 414.0299,-348.9952 442.8058,-341.5253"/>
<polygon fill="#191970" stroke="#191970" points="344.5432,-363.417 335.7434,-369.3173 346.302,-370.1924 344.5432,-363.417"/>
</g>
<!-- Node186549 -->
<g id="node17" class="node">
<title>Node186549</title>
<g id="a_node17"><a xlink:href="quickjs_8c.html#adc0280beaa04d2b8fcaf05a82ab26c74" target="_top" xlink:title="js_link_module">
<polygon fill="none" stroke="#ff0000" points="439,-266.5 439,-285.5 520,-285.5 520,-266.5 439,-266.5"/>
<text text-anchor="middle" x="479.5" y="-273.5" font-family="Helvetica,sans-Serif" font-size="10.00" fill="#000000">js_link_module</text>
</a>
</g>
</g>
<!-- Node186504&#45;&gt;Node186549 -->
<g id="edge18" class="edge">
<title>Node186504&#45;&gt;Node186549</title>
<path fill="none" stroke="#191970" d="M333.7375,-361.0979C354.5068,-348.1514 385.5605,-329.0161 413,-313 429.4309,-303.4095 448.4181,-292.9013 461.8868,-285.5423"/>
<polygon fill="#191970" stroke="#191970" points="331.8638,-358.1416 325.2377,-366.4087 335.573,-364.0781 331.8638,-358.1416"/>
</g>
<!-- Node186553 -->
<g id="node18" class="node">
<title>Node186553</title>
<g id="a_node18"><a xlink:href="quickjs_8c.html#a6357b7fdae71c70c140e78e6c20cb5c2" target="_top" xlink:title="js_dynamic_import_job">
<polygon fill="none" stroke="#ff0000" points="421.5,-228.5 421.5,-247.5 537.5,-247.5 537.5,-228.5 421.5,-228.5"/>
<text text-anchor="middle" x="479.5" y="-235.5" font-family="Helvetica,sans-Serif" font-size="10.00" fill="#000000">js_dynamic_import_job</text>
</a>
</g>
</g>
<!-- Node186504&#45;&gt;Node186553 -->
<g id="edge20" class="edge">
<title>Node186504&#45;&gt;Node186553</title>
<path fill="none" stroke="#191970" d="M326.313,-358.9947C340.127,-344.4148 360.2908,-322.7052 377,-303 393.7901,-283.1993 391.4645,-271.4981 413,-257 418.777,-253.1108 425.3497,-250.0087 432.0612,-247.5365"/>
<polygon fill="#191970" stroke="#191970" points="323.7152,-356.6475 319.3541,-366.3032 328.7847,-361.4745 323.7152,-356.6475"/>
</g>
<!-- Node186557 -->
<g id="node19" class="node">
<title>Node186557</title>
<g id="a_node19"><a xlink:href="quickjs_8c.html#a8d4b24969540aff427939eeda47f451d" target="_top" xlink:title="js_function_apply">
<polygon fill="none" stroke="#ff0000" points="433.5,-76.5 433.5,-95.5 525.5,-95.5 525.5,-76.5 433.5,-76.5"/>
<text text-anchor="middle" x="479.5" y="-83.5" font-family="Helvetica,sans-Serif" font-size="10.00" fill="#000000">js_function_apply</text>
</a>
</g>
</g>
<!-- Node186504&#45;&gt;Node186557 -->
<g id="edge21" class="edge">
<title>Node186504&#45;&gt;Node186557</title>
<path fill="none" stroke="#191970" d="M330.299,-359.5976C345.6111,-346.0634 365.8252,-325.4865 377,-303 416.8049,-222.9027 352.9429,-171.2808 413,-105 418.4824,-98.9495 425.7442,-94.7728 433.4534,-91.9012"/>
<polygon fill="#191970" stroke="#191970" points="327.7143,-357.2024 322.3852,-366.3594 332.2616,-362.5243 327.7143,-357.2024"/>
</g>
<!-- Node186560 -->
<g id="node20" class="node">
<title>Node186560</title>
<g id="a_node20"><a xlink:href="quickjs_8c.html#a677ad630a103e1f3d5129e0549112b50" target="_top" xlink:title="js_function_call">
<polygon fill="none" stroke="#000000" points="437.5,-190.5 437.5,-209.5 521.5,-209.5 521.5,-190.5 437.5,-190.5"/>
<text text-anchor="middle" x="479.5" y="-197.5" font-family="Helvetica,sans-Serif" font-size="10.00" fill="#000000">js_function_call</text>
</a>
</g>
</g>
<!-- Node186504&#45;&gt;Node186560 -->
<g id="edge23" class="edge">
<title>Node186504&#45;&gt;Node186560</title>
<path fill="none" stroke="#191970" d="M328.436,-359.3048C343.0412,-345.3428 363.2135,-324.3334 377,-303 399.0459,-268.8861 382.5199,-245.8467 413,-219 419.8479,-212.9684 428.4908,-208.8435 437.2594,-206.0248"/>
<polygon fill="#191970" stroke="#191970" points="325.8788,-356.9044 320.9706,-366.2938 330.6628,-362.0145 325.8788,-356.9044"/>
</g>
<!-- Node186511 -->
<g id="node21" class="node">
<title>Node186511</title>
<g id="a_node21"><a xlink:href="quickjs_8c.html#a5e32da9a43002cb96dcbd62a1a340144" target="_top" xlink:title="js_array_from">
<polygon fill="none" stroke="#000000" points="441.5,-152.5 441.5,-171.5 517.5,-171.5 517.5,-152.5 441.5,-152.5"/>
<text text-anchor="middle" x="479.5" y="-159.5" font-family="Helvetica,sans-Serif" font-size="10.00" fill="#000000">js_array_from</text>
</a>
</g>
</g>
<!-- Node186504&#45;&gt;Node186511 -->
<g id="edge24" class="edge">
<title>Node186504&#45;&gt;Node186511</title>
<path fill="none" stroke="#191970" d="M329.3822,-359.4856C344.3583,-345.7604 364.5663,-324.9826 377,-303 404.8326,-253.7923 372.8524,-220.8023 413,-181 420.589,-173.4763 430.9387,-168.8875 441.2124,-166.1023"/>
<polygon fill="#191970" stroke="#191970" points="326.8193,-357.0814 321.683,-366.348 331.477,-362.307 326.8193,-357.0814"/>
</g>
<!-- Node186537 -->
<g id="node22" class="node">
<title>Node186537</title>
<g id="a_node22"><a xlink:href="quickjs_8c.html#aa0bbf08a7e91459c68a312fba7016c6d" target="_top" xlink:title="js_array_every">
<polygon fill="none" stroke="#000000" points="439.5,-114.5 439.5,-133.5 519.5,-133.5 519.5,-114.5 439.5,-114.5"/>
<text text-anchor="middle" x="479.5" y="-121.5" font-family="Helvetica,sans-Serif" font-size="10.00" fill="#000000">js_array_every</text>
</a>
</g>
</g>
<!-- Node186504&#45;&gt;Node186537 -->
<g id="edge25" class="edge">
<title>Node186504&#45;&gt;Node186537</title>
<path fill="none" stroke="#191970" d="M329.7794,-359.7018C344.9792,-346.0983 365.2942,-325.3786 377,-303 410.784,-238.4134 362.949,-195.9876 413,-143 419.9258,-135.6678 429.4663,-131.1018 439.16,-128.2759"/>
<polygon fill="#191970" stroke="#191970" points="327.2106,-357.2967 321.9485,-366.4925 331.7966,-362.5852 327.2106,-357.2967"/>
</g>
<!-- Node186561 -->
<g id="node23" class="node">
<title>Node186561</title>
<g id="a_node23"><a xlink:href="quickjs_8c.html#a36c1692489542a86dd79a7d39ab8ff95" target="_top" xlink:title="js_array_reduce">
<polygon fill="none" stroke="#000000" points="436.5,-810.5 436.5,-829.5 522.5,-829.5 522.5,-810.5 436.5,-810.5"/>
<text text-anchor="middle" x="479.5" y="-817.5" font-family="Helvetica,sans-Serif" font-size="10.00" fill="#000000">js_array_reduce</text>
</a>
</g>
</g>
<!-- Node186504&#45;&gt;Node186561 -->
<g id="edge26" class="edge">
<title>Node186504&#45;&gt;Node186561</title>
<path fill="none" stroke="#191970" d="M312.1388,-395.5625C320.751,-470.8717 355.2298,-740.8395 413,-801 419.3206,-807.5821 427.7493,-811.9306 436.4773,-814.7916"/>
<polygon fill="#191970" stroke="#191970" points="315.6096,-395.106 311.0173,-385.5582 308.6532,-395.8859 315.6096,-395.106"/>
</g>
<!-- Node186562 -->
<g id="node24" class="node">
<title>Node186562</title>
<g id="a_node24"><a xlink:href="quickjs_8c.html#a9dd41b086da4e13b3487cc9c6e2af2b8" target="_top" xlink:title="js_array_find">
<polygon fill="none" stroke="#000000" points="443.5,-772.5 443.5,-791.5 515.5,-791.5 515.5,-772.5 443.5,-772.5"/>
<text text-anchor="middle" x="479.5" y="-779.5" font-family="Helvetica,sans-Serif" font-size="10.00" fill="#000000">js_array_find</text>
</a>
</g>
</g>
<!-- Node186504&#45;&gt;Node186562 -->
<g id="edge27" class="edge">
<title>Node186504&#45;&gt;Node186562</title>
<path fill="none" stroke="#191970" d="M312.7077,-396.0667C322.7518,-467.6506 360.0488,-709.0773 413,-763 420.9922,-771.1388 432.2104,-775.8536 443.1597,-778.5648"/>
<polygon fill="#191970" stroke="#191970" points="316.1187,-395.1804 311.2856,-385.7522 309.1843,-396.1366 316.1187,-395.1804"/>
</g>
<!-- Node186563 -->
<g id="node25" class="node">
<title>Node186563</title>
<g id="a_node25"><a xlink:href="quickjs_8c.html#ad90c33b4aae1181151bda4a98ac2ef23" target="_top" xlink:title="JS_FlattenIntoArray">
<polygon fill="none" stroke="#ff0000" points="427.5,-716.5 427.5,-735.5 531.5,-735.5 531.5,-716.5 427.5,-716.5"/>
<text text-anchor="middle" x="479.5" y="-723.5" font-family="Helvetica,sans-Serif" font-size="10.00" fill="#000000">JS_FlattenIntoArray</text>
</a>
</g>
</g>
<!-- Node186504&#45;&gt;Node186563 -->
<g id="edge28" class="edge">
<title>Node186504&#45;&gt;Node186563</title>
<path fill="none" stroke="#191970" d="M313.5833,-395.6167C325.6742,-459.779 366.8037,-661.8714 413,-707 417.1227,-711.0274 422.0373,-714.2125 427.3019,-716.7296"/>
<polygon fill="#191970" stroke="#191970" points="316.9929,-394.8072 311.7247,-385.6151 310.1107,-396.0862 316.9929,-394.8072"/>
</g>
<!-- Node186565 -->
<g id="node26" class="node">
<title>Node186565</title>
<g id="a_node26"><a xlink:href="quickjs_8c.html#aed1bf9ce4b9e3a82388679dd6ec7635b" target="_top" xlink:title="js_string_replace">
<polygon fill="none" stroke="#000000" points="434.5,-38.5 434.5,-57.5 524.5,-57.5 524.5,-38.5 434.5,-38.5"/>
<text text-anchor="middle" x="479.5" y="-45.5" font-family="Helvetica,sans-Serif" font-size="10.00" fill="#000000">js_string_replace</text>
</a>
</g>
</g>
<!-- Node186504&#45;&gt;Node186565 -->
<g id="edge30" class="edge">
<title>Node186504&#45;&gt;Node186565</title>
<path fill="none" stroke="#191970" d="M330.4771,-359.6845C345.8873,-346.1982 366.1465,-325.6433 377,-303 422.8612,-207.3212 342.8835,-146.6326 413,-67 418.6337,-60.6017 426.2576,-56.291 434.3344,-53.4021"/>
<polygon fill="#191970" stroke="#191970" points="327.8863,-357.2914 322.5053,-366.418 332.4032,-362.639 327.8863,-357.2914"/>
</g>
<!-- Node186566 -->
<g id="node27" class="node">
<title>Node186566</title>
<g id="a_node27"><a xlink:href="quickjs_8c.html#a624282391413d4c5a030adbd8b77aa80" target="_top" xlink:title="internalize_json_property">
<polygon fill="none" stroke="#ff0000" points="417,-660.5 417,-679.5 542,-679.5 542,-660.5 417,-660.5"/>
<text text-anchor="middle" x="479.5" y="-667.5" font-family="Helvetica,sans-Serif" font-size="10.00" fill="#000000">internalize_json_property</text>
</a>
</g>
</g>
<!-- Node186504&#45;&gt;Node186566 -->
<g id="edge31" class="edge">
<title>Node186504&#45;&gt;Node186566</title>
<path fill="none" stroke="#191970" d="M311.4886,-395.9326C316.3453,-446.3747 336.1884,-580.1051 413,-651 417.2352,-654.909 422.2201,-658.02 427.5247,-660.495"/>
<polygon fill="#191970" stroke="#191970" points="314.9549,-395.3916 310.6066,-385.7302 307.9809,-395.9945 314.9549,-395.3916"/>
</g>
<!-- Node186568 -->
<g id="node28" class="node">
<title>Node186568</title>
<g id="a_node28"><a xlink:href="quickjs_8c.html#a0da6493b4bc0edb7ddddfab807241d0b" target="_top" xlink:title="js_json_check">
<polygon fill="none" stroke="#ff0000" points="440,-.5 440,-19.5 519,-19.5 519,-.5 440,-.5"/>
<text text-anchor="middle" x="479.5" y="-7.5" font-family="Helvetica,sans-Serif" font-size="10.00" fill="#000000">js_json_check</text>
</a>
</g>
</g>
<!-- Node186504&#45;&gt;Node186568 -->
<g id="edge33" class="edge">
<title>Node186504&#45;&gt;Node186568</title>
<path fill="none" stroke="#191970" d="M330.6075,-359.7462C346.0896,-346.2939 366.3818,-325.7546 377,-303 428.9379,-191.6974 332.793,-122.0197 413,-29 419.8216,-21.0887 429.687,-16.3602 439.7395,-13.5649"/>
<polygon fill="#191970" stroke="#191970" points="328.0115,-357.3551 322.5932,-366.4596 332.5066,-362.7211 328.0115,-357.3551"/>
</g>
<!-- Node186549&#45;&gt;Node186549 -->
<g id="edge19" class="edge">
<title>Node186549&#45;&gt;Node186549</title>
<path fill="none" stroke="#191970" d="M448.0629,-294.2746C448.9592,-299.741 459.4382,-304 479.5,-304 509.3594,-304 517.9906,-294.5653 505.3937,-285.7571"/>
<polygon fill="#191970" stroke="#191970" points="451.085,-296.0475 453.6063,-285.7571 445.2181,-292.2291 451.085,-296.0475"/>
</g>
<!-- Node186557&#45;&gt;Node186484 -->
<g id="edge22" class="edge">
<title>Node186557&#45;&gt;Node186484</title>
<path fill="none" stroke="#191970" d="M427.7366,-98.8526C422.6655,-100.6845 417.6727,-102.73 413,-105 311.8798,-154.1243 208.5066,-244.6431 175.9593,-274.3077"/>
<polygon fill="#191970" stroke="#191970" points="429.1422,-102.0735 437.5217,-95.59 426.9281,-95.4329 429.1422,-102.0735"/>
</g>
<!-- Node186563&#45;&gt;Node186563 -->
<g id="edge29" class="edge">
<title>Node186563&#45;&gt;Node186563</title>
<path fill="none" stroke="#191970" d="M448.0629,-744.2746C448.9592,-749.741 459.4382,-754 479.5,-754 509.3594,-754 517.9906,-744.5653 505.3937,-735.7571"/>
<polygon fill="#191970" stroke="#191970" points="451.085,-746.0475 453.6063,-735.7571 445.2181,-742.2291 451.085,-746.0475"/>
</g>
<!-- Node186566&#45;&gt;Node186566 -->
<g id="edge32" class="edge">
<title>Node186566&#45;&gt;Node186566</title>
<path fill="none" stroke="#191970" d="M448.0629,-688.2746C448.9592,-693.741 459.4382,-698 479.5,-698 509.3594,-698 517.9906,-688.5653 505.3937,-679.7571"/>
<polygon fill="#191970" stroke="#191970" points="451.085,-690.0475 453.6063,-679.7571 445.2181,-686.2291 451.085,-690.0475"/>
</g>
<!-- Node186590&#45;&gt;Node186484 -->
<g id="edge35" class="edge">
<title>Node186590&#45;&gt;Node186484</title>
<path fill="none" stroke="#191970" d="M232.7059,-290.7354C223.9651,-290.6845 215.3232,-290.5014 207.2954,-290.186"/>
<polygon fill="#191970" stroke="#191970" points="232.9819,-294.2354 242.9815,-290.7342 232.981,-287.2354 232.9819,-294.2354"/>
</g>
<!-- Node186604&#45;&gt;Node186484 -->
<g id="edge37" class="edge">
<title>Node186604&#45;&gt;Node186484</title>
<path fill="none" stroke="#191970" d="M283.0852,-113.696C269.7437,-118.1037 254.146,-124.0129 243,-134 197.716,-174.5757 176.1198,-247.5005 168.6584,-274.2978"/>
<polygon fill="#191970" stroke="#191970" points="284.2985,-116.9822 292.7367,-110.5754 282.1449,-110.3217 284.2985,-116.9822"/>
</g>
<!-- Node186604&#45;&gt;Node186565 -->
<g id="edge39" class="edge">
<title>Node186604&#45;&gt;Node186565</title>
<path fill="none" stroke="#191970" d="M347.5897,-88.1858C367.0522,-81.6544 391.2366,-73.6981 413,-67 423.3283,-63.8213 434.6137,-60.5293 444.9066,-57.5965"/>
<polygon fill="#191970" stroke="#191970" points="346.2393,-84.9474 337.8804,-91.4573 348.4745,-91.581 346.2393,-84.9474"/>
</g>
<!-- Node186604&#45;&gt;Node186568 -->
<g id="edge38" class="edge">
<title>Node186604&#45;&gt;Node186568</title>
<path fill="none" stroke="#191970" d="M328.8654,-84.8954C348.6589,-68.7273 381.2521,-44.109 413,-29 421.3483,-25.027 430.6908,-21.7251 439.6741,-19.05"/>
<polygon fill="#191970" stroke="#191970" points="326.4189,-82.3776 320.9633,-91.4598 330.8919,-87.7621 326.4189,-82.3776"/>
</g>
</g>
</svg>
        <g id="navigator" transform="translate(0 0)" fill="#404254">
                <rect fill="#f2f5e9" fill-opacity="0.5" stroke="#606060" stroke-width=".5" x="0" y="0" width="60" height="60"/>
                <use id="zoomplus" xlink:href="#zoomPlus" x="17" y="9" onmousedown="handleZoom(evt,'in')"/>
                <use id="zoomminus" xlink:href="#zoomMin" x="42" y="9" onmousedown="handleZoom(evt,'out')"/>
                <use id="reset" xlink:href="#resetDef" x="30" y="36" onmousedown="handleReset()"/>
                <g id="arrowUp" xlink:href="#dirArrow" transform="translate(30 24)" onmousedown="handlePan(0,-1)">
                  <use xlink:href="#rim" fill="#404040">
                        <set attributeName="fill" to="#808080" begin="arrowUp.mouseover" end="arrowUp.mouseout"/>
                  </use>
                  <path fill="none" stroke="white" stroke-width="1.5" d="M0,-3.0v7 M-2.5,-0.5L0,-3.0L2.5,-0.5"/>
                </g>
                <g id="arrowRight" xlink:href="#dirArrow" transform="rotate(90) translate(36 -43)" onmousedown="handlePan(1,0)">
                  <use xlink:href="#rim" fill="#404040">
                        <set attributeName="fill" to="#808080" begin="arrowRight.mouseover" end="arrowRight.mouseout"/>
                  </use>
                  <path fill="none" stroke="white" stroke-width="1.5" d="M0,-3.0v7 M-2.5,-0.5L0,-3.0L2.5,-0.5"/>
                </g>
                <g id="arrowDown" xlink:href="#dirArrow" transform="rotate(180) translate(-30 -48)" onmousedown="handlePan(0,1)">
                  <use xlink:href="#rim" fill="#404040">
                        <set attributeName="fill" to="#808080" begin="arrowDown.mouseover" end="arrowDown.mouseout"/>
                  </use>
                  <path fill="none" stroke="white" stroke-width="1.5" d="M0,-3.0v7 M-2.5,-0.5L0,-3.0L2.5,-0.5"/>
                </g>
                <g id="arrowLeft" xlink:href="#dirArrow" transform="rotate(270) translate(-36 17)" onmousedown="handlePan(-1,0)">
                  <use xlink:href="#rim" fill="#404040">
                        <set attributeName="fill" to="#808080" begin="arrowLeft.mouseover" end="arrowLeft.mouseout"/>
                  </use>
                  <path fill="none" stroke="white" stroke-width="1.5" d="M0,-3.0v7 M-2.5,-0.5L0,-3.0L2.5,-0.5"/>
                </g>
        </g>
        <svg viewBox="0 0 15 15" width="100%" height="30px" preserveAspectRatio="xMaxYMin meet">
         <g id="arrow_out" transform="scale(0.3 0.3)">
          <a xlink:href="quickjs_8c_aa71518153e2e2604f0f9caad36af8476_icgraph_org.svg" target="_base">
           <rect id="button" ry="5" rx="5" y="6" x="6" height="38" width="38"
                fill="#f2f5e9" fill-opacity="0.5" stroke="#606060" stroke-width="1.0"/>
           <path id="arrow"
             d="M 11.500037,31.436501 C 11.940474,20.09759 22.043105,11.32322 32.158766,21.979434 L 37.068811,17.246167 C 37.068811,17.246167 37.088388,32 37.088388,32 L 22.160133,31.978069 C 22.160133,31.978069 26.997745,27.140456 26.997745,27.140456 C 18.528582,18.264221 13.291696,25.230495 11.500037,31.436501 z"
             style="fill:#404040;"/>
          </a>
         </g>
        </svg>
</svg>
