<?xml version="1.0" encoding="UTF-8" standalone="no"?>
<!DOCTYPE svg PUBLIC "-//W3C//DTD SVG 1.1//EN"
 "http://www.w3.org/Graphics/SVG/1.1/DTD/svg11.dtd">
<!-- Generated by graphviz version 2.40.1 (20161225.0304)
 -->
<!-- Title: find_private_class_field Pages: 1 -->
<svg width="503pt" height="169pt"
 viewBox="0.00 0.00 503.00 168.98" xmlns="http://www.w3.org/2000/svg" xmlns:xlink="http://www.w3.org/1999/xlink">
<g id="graph0" class="graph" transform="scale(1 1) rotate(0) translate(4 164.9809)">
<title>find_private_class_field</title>
<!-- Node321140 -->
<g id="node1" class="node">
<title>Node321140</title>
<polygon fill="#bfbfbf" stroke="#000000" points="0,-33.9809 0,-63.9809 95,-63.9809 95,-33.9809 0,-33.9809"/>
<text text-anchor="start" x="8" y="-51.9809" font-family="Helvetica,sans-Serif" font-size="10.00" fill="#000000">find_private_class</text>
<text text-anchor="middle" x="47.5" y="-40.9809" font-family="Helvetica,sans-Serif" font-size="10.00" fill="#000000">_field</text>
</g>
<!-- Node321141 -->
<g id="node2" class="node">
<title>Node321141</title>
<g id="a_node2"><a xlink:href="quickjs_8c.html#a00eb789430243c24dab4a63ad6a79653" target="_top" xlink:title="js_parse_class">
<polygon fill="none" stroke="#000000" points="131,-39.4809 131,-58.4809 213,-58.4809 213,-39.4809 131,-39.4809"/>
<text text-anchor="middle" x="172" y="-46.4809" font-family="Helvetica,sans-Serif" font-size="10.00" fill="#000000">js_parse_class</text>
</a>
</g>
</g>
<!-- Node321140&#45;&gt;Node321141 -->
<g id="edge1" class="edge">
<title>Node321140&#45;&gt;Node321141</title>
<path fill="none" stroke="#191970" d="M105.5253,-48.9809C114.003,-48.9809 122.5857,-48.9809 130.6406,-48.9809"/>
<polygon fill="#191970" stroke="#191970" points="105.2789,-45.481 95.2789,-48.9809 105.2789,-52.481 105.2789,-45.481"/>
</g>
<!-- Node321142 -->
<g id="node3" class="node">
<title>Node321142</title>
<g id="a_node3"><a xlink:href="quickjs_8c.html#a840642c87c5a82d4cc68333376a3b6de" target="_top" xlink:title="js_parse_postfix_expr">
<polygon fill="none" stroke="#000000" points="249,-123.4809 249,-142.4809 361,-142.4809 361,-123.4809 249,-123.4809"/>
<text text-anchor="middle" x="305" y="-130.4809" font-family="Helvetica,sans-Serif" font-size="10.00" fill="#000000">js_parse_postfix_expr</text>
</a>
</g>
</g>
<!-- Node321141&#45;&gt;Node321142 -->
<g id="edge2" class="edge">
<title>Node321141&#45;&gt;Node321142</title>
<path fill="none" stroke="#191970" d="M188.3711,-66.0089C203.0793,-80.4751 225.865,-100.9155 249,-113.9809 255.5258,-117.6664 262.8835,-120.7949 270.0679,-123.3845"/>
<polygon fill="#191970" stroke="#191970" points="190.6113,-63.2978 181.0799,-58.6715 185.6459,-68.2319 190.6113,-63.2978"/>
</g>
<!-- Node321146 -->
<g id="node6" class="node">
<title>Node321146</title>
<g id="a_node6"><a xlink:href="quickjs_8c.html#a9d844c16dcc71701436848074337d32c" target="_top" xlink:title="js_parse_statement\l_or_decl">
<polygon fill="none" stroke="#ff0000" points="254,-55.9809 254,-85.9809 356,-85.9809 356,-55.9809 254,-55.9809"/>
<text text-anchor="start" x="262" y="-73.9809" font-family="Helvetica,sans-Serif" font-size="10.00" fill="#000000">js_parse_statement</text>
<text text-anchor="middle" x="305" y="-62.9809" font-family="Helvetica,sans-Serif" font-size="10.00" fill="#000000">_or_decl</text>
</a>
</g>
</g>
<!-- Node321141&#45;&gt;Node321146 -->
<g id="edge8" class="edge">
<title>Node321141&#45;&gt;Node321146</title>
<path fill="none" stroke="#191970" d="M223.5124,-57.5018C233.4639,-59.1479 243.8878,-60.8721 253.8284,-62.5165"/>
<polygon fill="#191970" stroke="#191970" points="223.7901,-54.0002 213.353,-55.8213 222.6477,-60.9064 223.7901,-54.0002"/>
</g>
<!-- Node321153 -->
<g id="node7" class="node">
<title>Node321153</title>
<g id="a_node7"><a xlink:href="quickjs_8c.html#a498e1d5c7de1b59c1630e9847cde1e41" target="_top" xlink:title="js_parse_export">
<polygon fill="none" stroke="#ff0000" points="262,-17.4809 262,-36.4809 348,-36.4809 348,-17.4809 262,-17.4809"/>
<text text-anchor="middle" x="305" y="-24.4809" font-family="Helvetica,sans-Serif" font-size="10.00" fill="#000000">js_parse_export</text>
</a>
</g>
</g>
<!-- Node321141&#45;&gt;Node321153 -->
<g id="edge10" class="edge">
<title>Node321141&#45;&gt;Node321153</title>
<path fill="none" stroke="#191970" d="M223.3441,-40.4879C236.0585,-38.3848 249.5536,-36.1525 261.8331,-34.1213"/>
<polygon fill="#191970" stroke="#191970" points="222.6477,-37.0555 213.353,-42.1406 223.7901,-43.9616 222.6477,-37.0555"/>
</g>
<!-- Node321142&#45;&gt;Node321142 -->
<g id="edge5" class="edge">
<title>Node321142&#45;&gt;Node321142</title>
<path fill="none" stroke="#191970" d="M280.4465,-152.0101C281.7858,-157.1089 289.9703,-160.9809 305,-160.9809 328.4609,-160.9809 335.2426,-151.5462 325.345,-142.738"/>
<polygon fill="#191970" stroke="#191970" points="283.709,-153.2905 284.655,-142.738 277.3348,-150.3974 283.709,-153.2905"/>
</g>
<!-- Node321143 -->
<g id="node4" class="node">
<title>Node321143</title>
<g id="a_node4"><a xlink:href="quickjs_8c.html#a12b48ce2b1f247b494fdde07dbe7f232" target="_top" xlink:title="js_parse_left_hand\l_side_expr">
<polygon fill="none" stroke="#ff0000" points="397,-23.9809 397,-53.9809 495,-53.9809 495,-23.9809 397,-23.9809"/>
<text text-anchor="start" x="405" y="-41.9809" font-family="Helvetica,sans-Serif" font-size="10.00" fill="#000000">js_parse_left_hand</text>
<text text-anchor="middle" x="446" y="-30.9809" font-family="Helvetica,sans-Serif" font-size="10.00" fill="#000000">_side_expr</text>
</a>
</g>
</g>
<!-- Node321142&#45;&gt;Node321143 -->
<g id="edge3" class="edge">
<title>Node321142&#45;&gt;Node321143</title>
<path fill="none" stroke="#191970" d="M349.5901,-119.6877C353.541,-117.9654 357.4021,-116.0651 361,-113.9809 389.2687,-97.6057 416.6165,-70.9317 432.3515,-54.2005"/>
<polygon fill="#191970" stroke="#191970" points="348.2883,-116.4387 340.2897,-123.3866 350.8752,-122.9432 348.2883,-116.4387"/>
</g>
<!-- Node321163 -->
<g id="node5" class="node">
<title>Node321163</title>
<g id="a_node5"><a xlink:href="quickjs_8c.html#a9f26c765171d977db1796791f035f1f9" target="_top" xlink:title="js_parse_unary">
<polygon fill="none" stroke="#ff0000" points="404.5,-123.4809 404.5,-142.4809 487.5,-142.4809 487.5,-123.4809 404.5,-123.4809"/>
<text text-anchor="middle" x="446" y="-130.4809" font-family="Helvetica,sans-Serif" font-size="10.00" fill="#000000">js_parse_unary</text>
</a>
</g>
</g>
<!-- Node321142&#45;&gt;Node321163 -->
<g id="edge6" class="edge">
<title>Node321142&#45;&gt;Node321163</title>
<path fill="none" stroke="#191970" d="M371.3891,-132.9809C382.6367,-132.9809 394.0243,-132.9809 404.4015,-132.9809"/>
<polygon fill="#191970" stroke="#191970" points="371.1321,-129.481 361.1321,-132.9809 371.132,-136.481 371.1321,-129.481"/>
</g>
<!-- Node321143&#45;&gt;Node321141 -->
<g id="edge4" class="edge">
<title>Node321143&#45;&gt;Node321141</title>
<path fill="none" stroke="#191970" d="M403.4483,-20.1662C390.1244,-15.1785 375.1897,-10.4877 361,-7.9809 311.9813,.6788 297.2956,4.0757 249,-7.9809 224.7548,-14.0335 199.7758,-29.3162 185.0809,-39.4164"/>
<polygon fill="#191970" stroke="#191970" points="402.2434,-23.453 412.8317,-23.8236 404.7855,-16.9309 402.2434,-23.453"/>
</g>
<!-- Node321163&#45;&gt;Node321163 -->
<g id="edge7" class="edge">
<title>Node321163&#45;&gt;Node321163</title>
<path fill="none" stroke="#191970" d="M419.9584,-152.0101C421.3789,-157.1089 430.0594,-160.9809 446,-160.9809 470.8828,-160.9809 478.0755,-151.5462 467.5781,-142.738"/>
<polygon fill="#191970" stroke="#191970" points="423.238,-153.2665 424.4219,-142.738 416.9308,-150.2302 423.238,-153.2665"/>
</g>
<!-- Node321146&#45;&gt;Node321146 -->
<g id="edge9" class="edge">
<title>Node321146&#45;&gt;Node321146</title>
<path fill="none" stroke="#191970" d="M281.5452,-96.4388C284.4563,-101.1599 292.2745,-104.4809 305,-104.4809 325.8828,-104.4809 333.5507,-95.5375 328.0037,-86.1399"/>
<polygon fill="#191970" stroke="#191970" points="285.0553,-96.2835 281.9963,-86.1399 278.062,-95.9772 285.0553,-96.2835"/>
</g>
</g>
</svg>
