<?xml version="1.0" encoding="UTF-8" standalone="no"?>
<!DOCTYPE svg PUBLIC "-//W3C//DTD SVG 1.1//EN"
 "http://www.w3.org/Graphics/SVG/1.1/DTD/svg11.dtd">
<!-- Generated by graphviz version 2.40.1 (20161225.0304)
 -->
<!-- Title: JS_IteratorGetCompleteValue Pages: 1 -->
<svg width="770pt" height="626pt"
 viewBox="0.00 0.00 770.00 626.18" xmlns="http://www.w3.org/2000/svg" xmlns:xlink="http://www.w3.org/1999/xlink">
<g id="graph0" class="graph" transform="scale(1 1) rotate(0) translate(4 622.1769)">
<title>JS_IteratorGetCompleteValue</title>
<!-- Node287442 -->
<g id="node1" class="node">
<title>Node287442</title>
<polygon fill="#bfbfbf" stroke="#000000" points="0,-288.2786 0,-307.2786 147,-307.2786 147,-288.2786 0,-288.2786"/>
<text text-anchor="middle" x="73.5" y="-295.2786" font-family="Helvetica,sans-Serif" font-size="10.00" fill="#000000">JS_IteratorGetCompleteValue</text>
</g>
<!-- Node287443 -->
<g id="node2" class="node">
<title>Node287443</title>
<g id="a_node2"><a xlink:href="quickjs_8h.html#a89b7c8686c7eee70b86be722ee4730ad" target="_top" xlink:title="JS_GetProperty">
<polygon fill="none" stroke="#000000" points="183,-288.2786 183,-307.2786 269,-307.2786 269,-288.2786 183,-288.2786"/>
<text text-anchor="middle" x="226" y="-295.2786" font-family="Helvetica,sans-Serif" font-size="10.00" fill="#000000">JS_GetProperty</text>
</a>
</g>
</g>
<!-- Node287442&#45;&gt;Node287443 -->
<g id="edge1" class="edge">
<title>Node287442&#45;&gt;Node287443</title>
<path fill="none" stroke="#191970" d="M147.0698,-297.7786C155.6385,-297.7786 164.2524,-297.7786 172.4779,-297.7786"/>
<polygon fill="#191970" stroke="#191970" points="172.6566,-301.2787 182.6566,-297.7786 172.6566,-294.2787 172.6566,-301.2787"/>
</g>
<!-- Node287490 -->
<g id="node9" class="node">
<title>Node287490</title>
<g id="a_node9"><a xlink:href="quickjs_8h.html#ad80a83d73e9b7d872b88fbf2943aebe9" target="_top" xlink:title="JS_IsException">
<polygon fill="none" stroke="#000000" points="676,-22.2786 676,-41.2786 762,-41.2786 762,-22.2786 676,-22.2786"/>
<text text-anchor="middle" x="719" y="-29.2786" font-family="Helvetica,sans-Serif" font-size="10.00" fill="#000000">JS_IsException</text>
</a>
</g>
</g>
<!-- Node287442&#45;&gt;Node287490 -->
<g id="edge22" class="edge">
<title>Node287442&#45;&gt;Node287490</title>
<path fill="none" stroke="#191970" d="M81.7915,-288.267C119.7346,-245.5656 282.5945,-71.1144 460,-12.7786 534.2832,11.6478 626.7933,-5.7439 678.7378,-19.5026"/>
<polygon fill="#191970" stroke="#191970" points="677.9992,-22.9291 688.5684,-22.1924 679.8466,-16.1773 677.9992,-22.9291"/>
</g>
<!-- Node287650 -->
<g id="node20" class="node">
<title>Node287650</title>
<g id="a_node20"><a xlink:href="quickjs_8c.html#a2bf30c9cddfe98a32535843202495069" target="_top" xlink:title="JS_ToBoolFree">
<polygon fill="none" stroke="#000000" points="322.5,-534.2786 322.5,-553.2786 406.5,-553.2786 406.5,-534.2786 322.5,-534.2786"/>
<text text-anchor="middle" x="364.5" y="-541.2786" font-family="Helvetica,sans-Serif" font-size="10.00" fill="#000000">JS_ToBoolFree</text>
</a>
</g>
</g>
<!-- Node287442&#45;&gt;Node287650 -->
<g id="edge23" class="edge">
<title>Node287442&#45;&gt;Node287650</title>
<path fill="none" stroke="#191970" d="M84.9075,-307.4221C129.1856,-344.853 289.9531,-480.7595 345.4817,-527.7012"/>
<polygon fill="#191970" stroke="#191970" points="343.2749,-530.4187 353.1713,-534.2017 347.794,-525.0729 343.2749,-530.4187"/>
</g>
<!-- Node287444 -->
<g id="node3" class="node">
<title>Node287444</title>
<g id="a_node3"><a xlink:href="quickjs_8c.html#a5762c57ae0c9937e986040c01222833a" target="_top" xlink:title="JS_GetPropertyInternal">
<polygon fill="none" stroke="#000000" points="305,-288.2786 305,-307.2786 424,-307.2786 424,-288.2786 305,-288.2786"/>
<text text-anchor="middle" x="364.5" y="-295.2786" font-family="Helvetica,sans-Serif" font-size="10.00" fill="#000000">JS_GetPropertyInternal</text>
</a>
</g>
</g>
<!-- Node287443&#45;&gt;Node287444 -->
<g id="edge2" class="edge">
<title>Node287443&#45;&gt;Node287444</title>
<path fill="none" stroke="#191970" d="M269.0631,-297.7786C277.2247,-297.7786 285.9555,-297.7786 294.6981,-297.7786"/>
<polygon fill="#191970" stroke="#191970" points="294.9331,-301.2787 304.933,-297.7786 294.933,-294.2787 294.9331,-301.2787"/>
</g>
<!-- Node287445 -->
<g id="node4" class="node">
<title>Node287445</title>
<g id="a_node4"><a xlink:href="quickjs_8c.html#a288254c06a39c9fca740a7abdad2834e" target="_top" xlink:title="__JS_AtomIsTaggedInt">
<polygon fill="none" stroke="#000000" points="490.5,-478.2786 490.5,-497.2786 609.5,-497.2786 609.5,-478.2786 490.5,-478.2786"/>
<text text-anchor="middle" x="550" y="-485.2786" font-family="Helvetica,sans-Serif" font-size="10.00" fill="#000000">__JS_AtomIsTaggedInt</text>
</a>
</g>
</g>
<!-- Node287444&#45;&gt;Node287445 -->
<g id="edge3" class="edge">
<title>Node287444&#45;&gt;Node287445</title>
<path fill="none" stroke="#191970" d="M366.8495,-307.4083C374.5537,-336.8141 401.9542,-426.0318 460,-468.7786 466.0999,-473.2707 473.0294,-476.7504 480.2718,-479.4387"/>
<polygon fill="#191970" stroke="#191970" points="479.7023,-482.9307 490.293,-482.6348 481.8292,-476.2617 479.7023,-482.9307"/>
</g>
<!-- Node287446 -->
<g id="node5" class="node">
<title>Node287446</title>
<g id="a_node5"><a xlink:href="quickjs_8c.html#a89f38938cee8077ce1fbba07946ed185" target="_top" xlink:title="__JS_AtomToUInt32">
<polygon fill="none" stroke="#000000" points="496,-440.2786 496,-459.2786 604,-459.2786 604,-440.2786 496,-440.2786"/>
<text text-anchor="middle" x="550" y="-447.2786" font-family="Helvetica,sans-Serif" font-size="10.00" fill="#000000">__JS_AtomToUInt32</text>
</a>
</g>
</g>
<!-- Node287444&#45;&gt;Node287446 -->
<g id="edge4" class="edge">
<title>Node287444&#45;&gt;Node287446</title>
<path fill="none" stroke="#191970" d="M368.3934,-307.3557C379.0039,-332.1597 410.9561,-398.7824 460,-430.7786 467.7595,-435.8408 476.6242,-439.5844 485.6947,-442.3471"/>
<polygon fill="#191970" stroke="#191970" points="485.0117,-445.787 495.5755,-444.9758 486.8115,-439.0223 485.0117,-445.787"/>
</g>
<!-- Node287447 -->
<g id="node6" class="node">
<title>Node287447</title>
<g id="a_node6"><a xlink:href="quickjs_8c.html#a06b76f5124fd985e35f4c652fd018d6d" target="_top" xlink:title="find_own_property">
<polygon fill="none" stroke="#ff0000" points="502,-402.2786 502,-421.2786 598,-421.2786 598,-402.2786 502,-402.2786"/>
<text text-anchor="middle" x="550" y="-409.2786" font-family="Helvetica,sans-Serif" font-size="10.00" fill="#000000">find_own_property</text>
</a>
</g>
</g>
<!-- Node287444&#45;&gt;Node287447 -->
<g id="edge5" class="edge">
<title>Node287444&#45;&gt;Node287447</title>
<path fill="none" stroke="#191970" d="M371.1333,-307.3969C385.1168,-326.8769 419.674,-370.9879 460,-392.7786 469.7885,-398.0679 480.9152,-401.8855 491.9267,-404.6407"/>
<polygon fill="#191970" stroke="#191970" points="491.4425,-408.1187 501.9651,-406.884 492.9692,-401.2872 491.4425,-408.1187"/>
</g>
<!-- Node287450 -->
<g id="node7" class="node">
<title>Node287450</title>
<g id="a_node7"><a xlink:href="quickjs_8c.html#add3eea1f6d626963ade3c28a1fd563d1" target="_top" xlink:title="JS_AtomIsNumericIndex">
<polygon fill="none" stroke="#ff0000" points="487,-288.2786 487,-307.2786 613,-307.2786 613,-288.2786 487,-288.2786"/>
<text text-anchor="middle" x="550" y="-295.2786" font-family="Helvetica,sans-Serif" font-size="10.00" fill="#000000">JS_AtomIsNumericIndex</text>
</a>
</g>
</g>
<!-- Node287444&#45;&gt;Node287450 -->
<g id="edge6" class="edge">
<title>Node287444&#45;&gt;Node287450</title>
<path fill="none" stroke="#191970" d="M424.2144,-297.7786C440.9479,-297.7786 459.3316,-297.7786 476.7536,-297.7786"/>
<polygon fill="#191970" stroke="#191970" points="476.8807,-301.2787 486.8806,-297.7786 476.8806,-294.2787 476.8807,-301.2787"/>
</g>
<!-- Node287454 -->
<g id="node8" class="node">
<title>Node287454</title>
<g id="a_node8"><a xlink:href="quickjs_8h.html#afaa20c47565bc704c6c85f3d77254e7d" target="_top" xlink:title="JS_FreeValue">
<polygon fill="none" stroke="#ff0000" points="680,-345.2786 680,-364.2786 758,-364.2786 758,-345.2786 680,-345.2786"/>
<text text-anchor="middle" x="719" y="-352.2786" font-family="Helvetica,sans-Serif" font-size="10.00" fill="#000000">JS_FreeValue</text>
</a>
</g>
</g>
<!-- Node287444&#45;&gt;Node287454 -->
<g id="edge14" class="edge">
<title>Node287444&#45;&gt;Node287454</title>
<path fill="none" stroke="#191970" d="M410.0742,-307.335C425.8537,-310.5137 443.675,-313.9589 460,-316.7786 532.8433,-329.3601 617.6798,-341.2943 669.8621,-348.3246"/>
<polygon fill="#191970" stroke="#191970" points="669.4734,-351.8037 679.8499,-349.664 670.4039,-344.8659 669.4734,-351.8037"/>
</g>
<!-- Node287635 -->
<g id="node10" class="node">
<title>Node287635</title>
<g id="a_node10"><a xlink:href="quickjs_8c.html#a8aac7988cf0c6f3c2b629a6662fd7ec8" target="_top" xlink:title="JS_AutoInitProperty">
<polygon fill="none" stroke="#ff0000" points="498,-22.2786 498,-41.2786 602,-41.2786 602,-22.2786 498,-22.2786"/>
<text text-anchor="middle" x="550" y="-29.2786" font-family="Helvetica,sans-Serif" font-size="10.00" fill="#000000">JS_AutoInitProperty</text>
</a>
</g>
</g>
<!-- Node287444&#45;&gt;Node287635 -->
<g id="edge9" class="edge">
<title>Node287444&#45;&gt;Node287635</title>
<path fill="none" stroke="#191970" d="M365.0831,-288.135C367.8734,-251.0136 383.1382,-116.1726 460,-50.7786 468.019,-43.956 477.8769,-39.3874 488.0947,-36.3643"/>
<polygon fill="#191970" stroke="#191970" points="489.0914,-39.7232 497.9531,-33.9163 487.4043,-32.9295 489.0914,-39.7232"/>
</g>
<!-- Node287543 -->
<g id="node11" class="node">
<title>Node287543</title>
<g id="a_node11"><a xlink:href="quickjs_8c.html#a75f6ee5e4235a7dc99889f3d2eb2c147" target="_top" xlink:title="JS_CallFree">
<polygon fill="none" stroke="#ff0000" points="514.5,-364.2786 514.5,-383.2786 585.5,-383.2786 585.5,-364.2786 514.5,-364.2786"/>
<text text-anchor="middle" x="550" y="-371.2786" font-family="Helvetica,sans-Serif" font-size="10.00" fill="#000000">JS_CallFree</text>
</a>
</g>
</g>
<!-- Node287444&#45;&gt;Node287543 -->
<g id="edge11" class="edge">
<title>Node287444&#45;&gt;Node287543</title>
<path fill="none" stroke="#191970" d="M379.4995,-307.4147C397.8589,-318.8575 430.1915,-337.8862 460,-349.7786 474.1562,-355.4263 490.0878,-360.1685 504.5687,-363.9064"/>
<polygon fill="#191970" stroke="#191970" points="503.7734,-367.3152 514.3226,-366.3326 505.4632,-360.5222 503.7734,-367.3152"/>
</g>
<!-- Node287498 -->
<g id="node12" class="node">
<title>Node287498</title>
<g id="a_node12"><a xlink:href="quickjs_8h.html#a775522f2d084fc8fa0fcb33f390006b4" target="_top" xlink:title="JS_DupValue">
<polygon fill="none" stroke="#000000" points="511.5,-250.2786 511.5,-269.2786 588.5,-269.2786 588.5,-250.2786 511.5,-250.2786"/>
<text text-anchor="middle" x="550" y="-257.2786" font-family="Helvetica,sans-Serif" font-size="10.00" fill="#000000">JS_DupValue</text>
</a>
</g>
</g>
<!-- Node287444&#45;&gt;Node287498 -->
<g id="edge13" class="edge">
<title>Node287444&#45;&gt;Node287498</title>
<path fill="none" stroke="#191970" d="M411.3095,-288.1896C438.8396,-282.55 473.594,-275.4305 501.4249,-269.7293"/>
<polygon fill="#191970" stroke="#191970" points="502.2448,-273.1341 511.3389,-267.6983 500.8399,-266.2765 502.2448,-273.1341"/>
</g>
<!-- Node287566 -->
<g id="node13" class="node">
<title>Node287566</title>
<g id="a_node13"><a xlink:href="quickjs_8c.html#aeb97957655d979e9fe56c955da2b2d4b" target="_top" xlink:title="JS_GetPropertyUint32">
<polygon fill="none" stroke="#ff0000" points="492.5,-212.2786 492.5,-231.2786 607.5,-231.2786 607.5,-212.2786 492.5,-212.2786"/>
<text text-anchor="middle" x="550" y="-219.2786" font-family="Helvetica,sans-Serif" font-size="10.00" fill="#000000">JS_GetPropertyUint32</text>
</a>
</g>
</g>
<!-- Node287444&#45;&gt;Node287566 -->
<g id="edge15" class="edge">
<title>Node287444&#45;&gt;Node287566</title>
<path fill="none" stroke="#191970" d="M377.3786,-288.1872C395.083,-275.4614 428.3547,-253.1649 460,-240.7786 467.0311,-238.0265 474.5351,-235.6429 482.0973,-233.5855"/>
<polygon fill="#191970" stroke="#191970" points="483.2044,-236.9156 492.0375,-231.0652 481.484,-230.1303 483.2044,-236.9156"/>
</g>
<!-- Node287666 -->
<g id="node14" class="node">
<title>Node287666</title>
<g id="a_node14"><a xlink:href="quickjs_8c.html#a93550bf785e919d0881399712c54cb34" target="_top" xlink:title="JS_GetPrototypePrimitive">
<polygon fill="none" stroke="#000000" points="485,-174.2786 485,-193.2786 615,-193.2786 615,-174.2786 485,-174.2786"/>
<text text-anchor="middle" x="550" y="-181.2786" font-family="Helvetica,sans-Serif" font-size="10.00" fill="#000000">JS_GetPrototypePrimitive</text>
</a>
</g>
</g>
<!-- Node287444&#45;&gt;Node287666 -->
<g id="edge16" class="edge">
<title>Node287444&#45;&gt;Node287666</title>
<path fill="none" stroke="#191970" d="M371.1333,-288.1602C385.1168,-268.6802 419.674,-224.5693 460,-202.7786 464.8295,-200.1689 469.9847,-197.9175 475.2912,-195.9752"/>
<polygon fill="#191970" stroke="#191970" points="476.5565,-199.2437 484.9683,-192.8022 474.3756,-192.5921 476.5565,-199.2437"/>
</g>
<!-- Node287742 -->
<g id="node15" class="node">
<title>Node287742</title>
<g id="a_node15"><a xlink:href="quickjs_8h.html#aaab426b47c95d00479b7355b1cf7f56c" target="_top" xlink:title="JS_IsUninitialized">
<polygon fill="none" stroke="#000000" points="502.5,-136.2786 502.5,-155.2786 597.5,-155.2786 597.5,-136.2786 502.5,-136.2786"/>
<text text-anchor="middle" x="550" y="-143.2786" font-family="Helvetica,sans-Serif" font-size="10.00" fill="#000000">JS_IsUninitialized</text>
</a>
</g>
</g>
<!-- Node287444&#45;&gt;Node287742 -->
<g id="edge17" class="edge">
<title>Node287444&#45;&gt;Node287742</title>
<path fill="none" stroke="#191970" d="M368.3934,-288.2014C379.0039,-263.3975 410.9561,-196.7747 460,-164.7786 469.6204,-158.5022 480.9399,-154.2529 492.2441,-151.387"/>
<polygon fill="#191970" stroke="#191970" points="493.1186,-154.7783 502.1311,-149.2084 491.6122,-147.9423 493.1186,-154.7783"/>
</g>
<!-- Node287874 -->
<g id="node16" class="node">
<title>Node287874</title>
<g id="a_node16"><a xlink:href="quickjs_8c.html#a077ffa6455c0d7831bd4547542b5f2f7" target="_top" xlink:title="js_new_string_char">
<polygon fill="none" stroke="#ff0000" points="499.5,-98.2786 499.5,-117.2786 600.5,-117.2786 600.5,-98.2786 499.5,-98.2786"/>
<text text-anchor="middle" x="550" y="-105.2786" font-family="Helvetica,sans-Serif" font-size="10.00" fill="#000000">js_new_string_char</text>
</a>
</g>
</g>
<!-- Node287444&#45;&gt;Node287874 -->
<g id="edge18" class="edge">
<title>Node287444&#45;&gt;Node287874</title>
<path fill="none" stroke="#191970" d="M366.8495,-288.1488C374.5537,-258.743 401.9542,-169.5254 460,-126.7786 468.5752,-120.4635 478.7901,-116.1493 489.2085,-113.2219"/>
<polygon fill="#191970" stroke="#191970" points="490.306,-116.5579 499.2127,-110.8202 488.6719,-109.7513 490.306,-116.5579"/>
</g>
<!-- Node287491 -->
<g id="node17" class="node">
<title>Node287491</title>
<g id="a_node17"><a xlink:href="quickjs_8h.html#a2050bc428da1c65ac7eb87c3fa3b0392" target="_top" xlink:title="JS_NewInt32">
<polygon fill="none" stroke="#000000" points="512,-60.2786 512,-79.2786 588,-79.2786 588,-60.2786 512,-60.2786"/>
<text text-anchor="middle" x="550" y="-67.2786" font-family="Helvetica,sans-Serif" font-size="10.00" fill="#000000">JS_NewInt32</text>
</a>
</g>
</g>
<!-- Node287444&#45;&gt;Node287491 -->
<g id="edge19" class="edge">
<title>Node287444&#45;&gt;Node287491</title>
<path fill="none" stroke="#191970" d="M365.8393,-288.01C370.9914,-254.3984 392.7335,-142.6338 460,-88.7786 471.7494,-79.3717 487.0464,-74.316 501.6863,-71.6827"/>
<polygon fill="#191970" stroke="#191970" points="502.2769,-75.1336 511.6649,-70.2229 501.2635,-68.2074 502.2769,-75.1336"/>
</g>
<!-- Node287667 -->
<g id="node18" class="node">
<title>Node287667</title>
<g id="a_node18"><a xlink:href="quickjs_8c.html#ab8d0b87c9eed4eb6c054b6f4e1731554" target="_top" xlink:title="JS_ThrowReferenceErrorNot\lDefined">
<polygon fill="none" stroke="#ff0000" points="478.5,-554.7786 478.5,-584.7786 621.5,-584.7786 621.5,-554.7786 478.5,-554.7786"/>
<text text-anchor="start" x="486.5" y="-572.7786" font-family="Helvetica,sans-Serif" font-size="10.00" fill="#000000">JS_ThrowReferenceErrorNot</text>
<text text-anchor="middle" x="550" y="-561.7786" font-family="Helvetica,sans-Serif" font-size="10.00" fill="#000000">Defined</text>
</a>
</g>
</g>
<!-- Node287444&#45;&gt;Node287667 -->
<g id="edge20" class="edge">
<title>Node287444&#45;&gt;Node287667</title>
<path fill="none" stroke="#191970" d="M365.2333,-307.5282C368.5472,-344.4698 385.4025,-477.1547 460,-544.7786 462.9567,-547.4589 466.1767,-549.8549 469.582,-551.9966"/>
<polygon fill="#191970" stroke="#191970" points="467.9312,-555.083 478.3838,-556.8131 471.2915,-548.9422 467.9312,-555.083"/>
</g>
<!-- Node287743 -->
<g id="node19" class="node">
<title>Node287743</title>
<g id="a_node19"><a xlink:href="quickjs_8c.html#a75ac132a3af4de01e1fadeb0bede6ee7" target="_top" xlink:title="JS_ThrowReferenceErrorUninitialized">
<polygon fill="none" stroke="#ff0000" points="460,-516.2786 460,-535.2786 640,-535.2786 640,-516.2786 460,-516.2786"/>
<text text-anchor="middle" x="550" y="-523.2786" font-family="Helvetica,sans-Serif" font-size="10.00" fill="#000000">JS_ThrowReferenceErrorUninitialized</text>
</a>
</g>
</g>
<!-- Node287444&#45;&gt;Node287743 -->
<g id="edge21" class="edge">
<title>Node287444&#45;&gt;Node287743</title>
<path fill="none" stroke="#191970" d="M365.8393,-307.5472C370.9914,-341.1587 392.7335,-452.9233 460,-506.7786 462.0725,-508.4379 464.2554,-509.9618 466.5256,-511.3609"/>
<polygon fill="#191970" stroke="#191970" points="465.1852,-514.6102 475.666,-516.1611 468.4399,-508.4129 465.1852,-514.6102"/>
</g>
<!-- Node287450&#45;&gt;Node287454 -->
<g id="edge7" class="edge">
<title>Node287450&#45;&gt;Node287454</title>
<path fill="none" stroke="#191970" d="M590.6702,-307.3815C606.2409,-311.3811 624.0795,-316.3584 640,-321.7786 656.3484,-327.3444 674.13,-334.6556 688.6764,-340.9814"/>
<polygon fill="#191970" stroke="#191970" points="687.6107,-344.3366 698.1727,-345.1698 690.4355,-337.9319 687.6107,-344.3366"/>
</g>
<!-- Node287450&#45;&gt;Node287490 -->
<g id="edge8" class="edge">
<title>Node287450&#45;&gt;Node287490</title>
<path fill="none" stroke="#191970" d="M613.1391,-293.3084C622.9987,-290.2426 632.4158,-285.6296 640,-278.7786 674.7048,-247.4289 705.1105,-104.2866 715.3381,-51.4486"/>
<polygon fill="#191970" stroke="#191970" points="718.8275,-51.8338 717.2572,-41.356 711.9507,-50.5261 718.8275,-51.8338"/>
</g>
<!-- Node287635&#45;&gt;Node287490 -->
<g id="edge10" class="edge">
<title>Node287635&#45;&gt;Node287490</title>
<path fill="none" stroke="#191970" d="M602.0846,-31.7786C622.3286,-31.7786 645.4984,-31.7786 665.8437,-31.7786"/>
<polygon fill="#191970" stroke="#191970" points="665.8861,-35.2787 675.8861,-31.7786 665.8861,-28.2787 665.8861,-35.2787"/>
</g>
<!-- Node287543&#45;&gt;Node287454 -->
<g id="edge12" class="edge">
<title>Node287543&#45;&gt;Node287454</title>
<path fill="none" stroke="#191970" d="M585.8406,-369.7491C610.3265,-366.9963 643.0816,-363.3138 669.9775,-360.29"/>
<polygon fill="#191970" stroke="#191970" points="670.423,-363.762 679.9693,-359.1666 669.6409,-356.8058 670.423,-363.762"/>
</g>
<!-- Node287650&#45;&gt;Node287454 -->
<g id="edge24" class="edge">
<title>Node287650&#45;&gt;Node287454</title>
<path fill="none" stroke="#191970" d="M379.0244,-553.333C422.9788,-580.9355 556.6534,-655.0895 640,-594.7786 676.9158,-568.0657 705.9438,-426.6445 715.5736,-374.2905"/>
<polygon fill="#191970" stroke="#191970" points="719.0476,-374.7472 717.3756,-364.2851 712.1585,-373.5064 719.0476,-374.7472"/>
</g>
</g>
</svg>
