<?xml version="1.0" encoding="UTF-8" standalone="no"?>
<!DOCTYPE svg PUBLIC "-//W3C//DTD SVG 1.1//EN"
 "http://www.w3.org/Graphics/SVG/1.1/DTD/svg11.dtd">
<!-- Generated by graphviz version 2.40.1 (20161225.0304)
 -->
<!-- Title: get_first_lexical_var Pages: 1 -->
<!--zoomable 170 -->
<svg id="main" version="1.1" xmlns="http://www.w3.org/2000/svg" xmlns:xlink="http://www.w3.org/1999/xlink" xml:space="preserve" onload="init(evt)">
<style type="text/css"><![CDATA[
.edge:hover path { stroke: red; }
.edge:hover polygon { stroke: red; fill: red; }
]]></style>
<script type="text/javascript"><![CDATA[
var edges = document.getElementsByTagName('g');
if (edges && edges.length) {
  for (var i=0;i<edges.length;i++) {
    if (edges[i].id.substr(0,4)=='edge') {
      edges[i].setAttribute('class','edge');
    }
  }
}
]]></script>
        <defs>
                <circle id="rim" cx="0" cy="0" r="7"/>
                <circle id="rim2" cx="0" cy="0" r="3.5"/>
                <g id="zoomPlus">
                        <use xlink:href="#rim" fill="#404040">
                                <set attributeName="fill" to="#808080" begin="zoomplus.mouseover" end="zoomplus.mouseout"/>
                        </use>
                        <path d="M-4,0h8M0,-4v8" fill="none" stroke="white" stroke-width="1.5" pointer-events="none"/>
                </g>
                <g id="zoomMin">
                        <use xlink:href="#rim" fill="#404040">
                                <set attributeName="fill" to="#808080" begin="zoomminus.mouseover" end="zoomminus.mouseout"/>
                        </use>
                        <path d="M-4,0h8" fill="none" stroke="white" stroke-width="1.5" pointer-events="none"/>
                </g>
                <g id="dirArrow">
                        <path fill="none" stroke="white" stroke-width="1.5" d="M0,-3.0v7 M-2.5,-0.5L0,-3.0L2.5,-0.5"/>
                </g>
               <g id="resetDef">
                       <use xlink:href="#rim2" fill="#404040">
                               <set attributeName="fill" to="#808080" begin="reset.mouseover" end="reset.mouseout"/>
                       </use>
               </g>
        </defs>

<script type="text/javascript">
var viewWidth = 610;
var viewHeight = 170;
var sectionId = 'dynsection-967';
</script>
<script xlink:href="svgpan.js"/>
<svg id="graph" class="graph">
<g id="viewport">
<title>get_first_lexical_var</title>
<!-- Node312552 -->
<g id="node1" class="node">
<title>Node312552</title>
<polygon fill="#bfbfbf" stroke="#000000" points="0,-31.3133 0,-50.3133 104,-50.3133 104,-31.3133 0,-31.3133"/>
<text text-anchor="middle" x="52" y="-38.3133" font-family="Helvetica,sans-Serif" font-size="10.00" fill="#000000">get_first_lexical_var</text>
</g>
<!-- Node312553 -->
<g id="node2" class="node">
<title>Node312553</title>
<g id="a_node2"><a xlink:href="quickjs_8c.html#a3376d6ef6fabfbe6070a4e13cb281974" target="_top" xlink:title="pop_scope">
<polygon fill="none" stroke="#000000" points="140,-31.3133 140,-50.3133 204,-50.3133 204,-31.3133 140,-31.3133"/>
<text text-anchor="middle" x="172" y="-38.3133" font-family="Helvetica,sans-Serif" font-size="10.00" fill="#000000">pop_scope</text>
</a>
</g>
</g>
<!-- Node312552&#45;&gt;Node312553 -->
<g id="edge1" class="edge">
<title>Node312552&#45;&gt;Node312553</title>
<path fill="none" stroke="#191970" d="M114.2867,-40.8133C123.1573,-40.8133 131.961,-40.8133 139.921,-40.8133"/>
<polygon fill="#191970" stroke="#191970" points="114.2847,-37.3134 104.2847,-40.8133 114.2846,-44.3134 114.2847,-37.3134"/>
</g>
<!-- Node312554 -->
<g id="node3" class="node">
<title>Node312554</title>
<g id="a_node3"><a xlink:href="quickjs_8c.html#a00eb789430243c24dab4a63ad6a79653" target="_top" xlink:title="js_parse_class">
<polygon fill="none" stroke="#000000" points="247,-88.3133 247,-107.3133 329,-107.3133 329,-88.3133 247,-88.3133"/>
<text text-anchor="middle" x="288" y="-95.3133" font-family="Helvetica,sans-Serif" font-size="10.00" fill="#000000">js_parse_class</text>
</a>
</g>
</g>
<!-- Node312553&#45;&gt;Node312554 -->
<g id="edge2" class="edge">
<title>Node312553&#45;&gt;Node312554</title>
<path fill="none" stroke="#191970" d="M200.5669,-54.8505C221.7014,-65.2355 249.9299,-79.1065 268.5209,-88.2417"/>
<polygon fill="#191970" stroke="#191970" points="201.9344,-51.6228 191.4158,-50.3538 198.8472,-57.9053 201.9344,-51.6228"/>
</g>
<!-- Node312559 -->
<g id="node5" class="node">
<title>Node312559</title>
<g id="a_node5"><a xlink:href="quickjs_8c.html#a9d844c16dcc71701436848074337d32c" target="_top" xlink:title="js_parse_statement\l_or_decl">
<polygon fill="none" stroke="#ff0000" points="377,-16.8133 377,-46.8133 479,-46.8133 479,-16.8133 377,-16.8133"/>
<text text-anchor="start" x="385" y="-34.8133" font-family="Helvetica,sans-Serif" font-size="10.00" fill="#000000">js_parse_statement</text>
<text text-anchor="middle" x="428" y="-23.8133" font-family="Helvetica,sans-Serif" font-size="10.00" fill="#000000">_or_decl</text>
</a>
</g>
</g>
<!-- Node312553&#45;&gt;Node312559 -->
<g id="edge13" class="edge">
<title>Node312553&#45;&gt;Node312559</title>
<path fill="none" stroke="#191970" d="M214.3128,-41.9447C247.4468,-42.5572 294.6855,-42.8293 336,-40.8133 349.3044,-40.1641 363.6526,-38.9898 376.9691,-37.6992"/>
<polygon fill="#191970" stroke="#191970" points="214.1453,-38.4407 204.0761,-41.7363 214.0027,-45.4392 214.1453,-38.4407"/>
</g>
<!-- Node312562 -->
<g id="node6" class="node">
<title>Node312562</title>
<g id="a_node6"><a xlink:href="quickjs_8c.html#acc0cac53be5317d9cab6a79afcd7da48" target="_top" xlink:title="js_parse_block">
<polygon fill="none" stroke="#000000" points="520,-22.3133 520,-41.3133 602,-41.3133 602,-22.3133 520,-22.3133"/>
<text text-anchor="middle" x="561" y="-29.3133" font-family="Helvetica,sans-Serif" font-size="10.00" fill="#000000">js_parse_block</text>
</a>
</g>
</g>
<!-- Node312553&#45;&gt;Node312562 -->
<g id="edge10" class="edge">
<title>Node312553&#45;&gt;Node312562</title>
<path fill="none" stroke="#191970" d="M193.2115,-25.2333C206.0491,-16.7879 223.1502,-7.202 240,-2.8133 264.92,3.6773 463.53,-3.2894 484,-6.8133 502.4222,-9.9847 522.4858,-16.6086 537.513,-22.2417"/>
<polygon fill="#191970" stroke="#191970" points="190.9439,-22.5446 184.6817,-31.0907 194.9066,-28.3151 190.9439,-22.5446"/>
</g>
<!-- Node312561 -->
<g id="node8" class="node">
<title>Node312561</title>
<g id="a_node8"><a xlink:href="quickjs_8c.html#ac188b916dd086803591a67de7e7a85f6" target="_top" xlink:title="js_parse_for_in_of">
<polygon fill="none" stroke="#000000" points="240,-12.3133 240,-31.3133 336,-31.3133 336,-12.3133 240,-12.3133"/>
<text text-anchor="middle" x="288" y="-19.3133" font-family="Helvetica,sans-Serif" font-size="10.00" fill="#000000">js_parse_for_in_of</text>
</a>
</g>
</g>
<!-- Node312553&#45;&gt;Node312561 -->
<g id="edge11" class="edge">
<title>Node312553&#45;&gt;Node312561</title>
<path fill="none" stroke="#191970" d="M213.8845,-33.9529C222.2228,-32.5872 231.0437,-31.1424 239.58,-29.7442"/>
<polygon fill="#191970" stroke="#191970" points="213.3073,-30.5007 204.0046,-35.5712 214.4388,-37.4087 213.3073,-30.5007"/>
</g>
<!-- Node312555 -->
<g id="node4" class="node">
<title>Node312555</title>
<g id="a_node4"><a xlink:href="quickjs_8c.html#a840642c87c5a82d4cc68333376a3b6de" target="_top" xlink:title="js_parse_postfix_expr">
<polygon fill="none" stroke="#ff0000" points="372,-124.3133 372,-143.3133 484,-143.3133 484,-124.3133 372,-124.3133"/>
<text text-anchor="middle" x="428" y="-131.3133" font-family="Helvetica,sans-Serif" font-size="10.00" fill="#000000">js_parse_postfix_expr</text>
</a>
</g>
</g>
<!-- Node312554&#45;&gt;Node312555 -->
<g id="edge3" class="edge">
<title>Node312554&#45;&gt;Node312555</title>
<path fill="none" stroke="#191970" d="M334.9543,-109.8873C353.0978,-114.5528 373.5663,-119.8161 390.6765,-124.2159"/>
<polygon fill="#191970" stroke="#191970" points="335.7065,-106.4669 325.1499,-107.3661 333.9631,-113.2464 335.7065,-106.4669"/>
</g>
<!-- Node312554&#45;&gt;Node312559 -->
<g id="edge5" class="edge">
<title>Node312554&#45;&gt;Node312559</title>
<path fill="none" stroke="#191970" d="M317.6138,-83.8526C340.5887,-73.0215 372.3858,-58.0314 395.9546,-46.9205"/>
<polygon fill="#191970" stroke="#191970" points="315.91,-80.7863 308.3572,-88.2164 318.895,-87.118 315.91,-80.7863"/>
</g>
<!-- Node312566 -->
<g id="node7" class="node">
<title>Node312566</title>
<g id="a_node7"><a xlink:href="quickjs_8c.html#a498e1d5c7de1b59c1630e9847cde1e41" target="_top" xlink:title="js_parse_export">
<polygon fill="none" stroke="#ff0000" points="385,-86.3133 385,-105.3133 471,-105.3133 471,-86.3133 385,-86.3133"/>
<text text-anchor="middle" x="428" y="-93.3133" font-family="Helvetica,sans-Serif" font-size="10.00" fill="#000000">js_parse_export</text>
</a>
</g>
</g>
<!-- Node312554&#45;&gt;Node312566 -->
<g id="edge9" class="edge">
<title>Node312554&#45;&gt;Node312566</title>
<path fill="none" stroke="#191970" d="M339.3142,-97.0803C354.1879,-96.8678 370.2762,-96.638 384.6141,-96.4331"/>
<polygon fill="#191970" stroke="#191970" points="339.1964,-93.5815 329.2474,-97.2241 339.2964,-100.5808 339.1964,-93.5815"/>
</g>
<!-- Node312555&#45;&gt;Node312555 -->
<g id="edge4" class="edge">
<title>Node312555&#45;&gt;Node312555</title>
<path fill="none" stroke="#191970" d="M403.4465,-152.8425C404.7858,-157.9413 412.9703,-161.8133 428,-161.8133 451.4609,-161.8133 458.2426,-152.3786 448.345,-143.5704"/>
<polygon fill="#191970" stroke="#191970" points="406.709,-154.1229 407.655,-143.5704 400.3348,-151.2298 406.709,-154.1229"/>
</g>
<!-- Node312559&#45;&gt;Node312559 -->
<g id="edge8" class="edge">
<title>Node312559&#45;&gt;Node312559</title>
<path fill="none" stroke="#191970" d="M404.5452,-57.2712C407.4563,-61.9923 415.2745,-65.3133 428,-65.3133 448.8828,-65.3133 456.5507,-56.3699 451.0037,-46.9723"/>
<polygon fill="#191970" stroke="#191970" points="408.0553,-57.1159 404.9963,-46.9723 401.062,-56.8096 408.0553,-57.1159"/>
</g>
<!-- Node312559&#45;&gt;Node312562 -->
<g id="edge6" class="edge">
<title>Node312559&#45;&gt;Node312562</title>
<path fill="none" stroke="#191970" d="M489.2811,-25.0818C499.6148,-25.0084 510.1178,-25.1535 519.7834,-25.5171"/>
<polygon fill="#191970" stroke="#191970" points="488.9899,-21.5855 479.0409,-25.2281 489.0899,-28.5848 488.9899,-21.5855"/>
</g>
<!-- Node312562&#45;&gt;Node312559 -->
<g id="edge7" class="edge">
<title>Node312562&#45;&gt;Node312559</title>
<path fill="none" stroke="#191970" d="M509.5598,-38.4071C499.5429,-38.6182 489.0448,-38.6154 479.0409,-38.3985"/>
<polygon fill="#191970" stroke="#191970" points="509.8894,-41.8991 519.7834,-38.1096 509.6858,-34.902 509.8894,-41.8991"/>
</g>
<!-- Node312561&#45;&gt;Node312559 -->
<g id="edge12" class="edge">
<title>Node312561&#45;&gt;Node312559</title>
<path fill="none" stroke="#191970" d="M346.2078,-25.971C356.3826,-26.6978 366.8998,-27.449 376.8656,-28.1609"/>
<polygon fill="#191970" stroke="#191970" points="346.404,-22.4762 336.1801,-25.2548 345.9052,-29.4584 346.404,-22.4762"/>
</g>
</g>
</svg>
        <g id="navigator" transform="translate(0 0)" fill="#404254">
                <rect fill="#f2f5e9" fill-opacity="0.5" stroke="#606060" stroke-width=".5" x="0" y="0" width="60" height="60"/>
                <use id="zoomplus" xlink:href="#zoomPlus" x="17" y="9" onmousedown="handleZoom(evt,'in')"/>
                <use id="zoomminus" xlink:href="#zoomMin" x="42" y="9" onmousedown="handleZoom(evt,'out')"/>
                <use id="reset" xlink:href="#resetDef" x="30" y="36" onmousedown="handleReset()"/>
                <g id="arrowUp" xlink:href="#dirArrow" transform="translate(30 24)" onmousedown="handlePan(0,-1)">
                  <use xlink:href="#rim" fill="#404040">
                        <set attributeName="fill" to="#808080" begin="arrowUp.mouseover" end="arrowUp.mouseout"/>
                  </use>
                  <path fill="none" stroke="white" stroke-width="1.5" d="M0,-3.0v7 M-2.5,-0.5L0,-3.0L2.5,-0.5"/>
                </g>
                <g id="arrowRight" xlink:href="#dirArrow" transform="rotate(90) translate(36 -43)" onmousedown="handlePan(1,0)">
                  <use xlink:href="#rim" fill="#404040">
                        <set attributeName="fill" to="#808080" begin="arrowRight.mouseover" end="arrowRight.mouseout"/>
                  </use>
                  <path fill="none" stroke="white" stroke-width="1.5" d="M0,-3.0v7 M-2.5,-0.5L0,-3.0L2.5,-0.5"/>
                </g>
                <g id="arrowDown" xlink:href="#dirArrow" transform="rotate(180) translate(-30 -48)" onmousedown="handlePan(0,1)">
                  <use xlink:href="#rim" fill="#404040">
                        <set attributeName="fill" to="#808080" begin="arrowDown.mouseover" end="arrowDown.mouseout"/>
                  </use>
                  <path fill="none" stroke="white" stroke-width="1.5" d="M0,-3.0v7 M-2.5,-0.5L0,-3.0L2.5,-0.5"/>
                </g>
                <g id="arrowLeft" xlink:href="#dirArrow" transform="rotate(270) translate(-36 17)" onmousedown="handlePan(-1,0)">
                  <use xlink:href="#rim" fill="#404040">
                        <set attributeName="fill" to="#808080" begin="arrowLeft.mouseover" end="arrowLeft.mouseout"/>
                  </use>
                  <path fill="none" stroke="white" stroke-width="1.5" d="M0,-3.0v7 M-2.5,-0.5L0,-3.0L2.5,-0.5"/>
                </g>
        </g>
        <svg viewBox="0 0 15 15" width="100%" height="30px" preserveAspectRatio="xMaxYMin meet">
         <g id="arrow_out" transform="scale(0.3 0.3)">
          <a xlink:href="quickjs_8c_a784b9d77d94e1e197320b0e9a5cbd7a3_icgraph_org.svg" target="_base">
           <rect id="button" ry="5" rx="5" y="6" x="6" height="38" width="38"
                fill="#f2f5e9" fill-opacity="0.5" stroke="#606060" stroke-width="1.0"/>
           <path id="arrow"
             d="M 11.500037,31.436501 C 11.940474,20.09759 22.043105,11.32322 32.158766,21.979434 L 37.068811,17.246167 C 37.068811,17.246167 37.088388,32 37.088388,32 L 22.160133,31.978069 C 22.160133,31.978069 26.997745,27.140456 26.997745,27.140456 C 18.528582,18.264221 13.291696,25.230495 11.500037,31.436501 z"
             style="fill:#404040;"/>
          </a>
         </g>
        </svg>
</svg>
