<?xml version="1.0" encoding="UTF-8" standalone="no"?>
<!DOCTYPE svg PUBLIC "-//W3C//DTD SVG 1.1//EN"
 "http://www.w3.org/Graphics/SVG/1.1/DTD/svg11.dtd">
<!-- Generated by graphviz version 2.40.1 (20161225.0304)
 -->
<!-- Title: JS_GetGlobalVarRef Pages: 1 -->
<svg width="845pt" height="526pt"
 viewBox="0.00 0.00 845.00 526.39" xmlns="http://www.w3.org/2000/svg" xmlns:xlink="http://www.w3.org/1999/xlink">
<g id="graph0" class="graph" transform="scale(1 1) rotate(0) translate(4 522.3893)">
<title>JS_GetGlobalVarRef</title>
<!-- Node221300 -->
<g id="node1" class="node">
<title>Node221300</title>
<polygon fill="#bfbfbf" stroke="#000000" points="0,-289.8893 0,-308.8893 108,-308.8893 108,-289.8893 0,-289.8893"/>
<text text-anchor="middle" x="54" y="-296.8893" font-family="Helvetica,sans-Serif" font-size="10.00" fill="#000000">JS_GetGlobalVarRef</text>
</g>
<!-- Node221301 -->
<g id="node2" class="node">
<title>Node221301</title>
<g id="a_node2"><a xlink:href="quickjs_8c.html#a06b76f5124fd985e35f4c652fd018d6d" target="_top" xlink:title="find_own_property">
<polygon fill="none" stroke="#000000" points="544,-479.8893 544,-498.8893 640,-498.8893 640,-479.8893 544,-479.8893"/>
<text text-anchor="middle" x="592" y="-486.8893" font-family="Helvetica,sans-Serif" font-size="10.00" fill="#000000">find_own_property</text>
</a>
</g>
</g>
<!-- Node221300&#45;&gt;Node221301 -->
<g id="edge1" class="edge">
<title>Node221300&#45;&gt;Node221301</title>
<path fill="none" stroke="#191970" d="M60.1126,-309.0111C73.0348,-328.4976 105.1545,-372.6198 144,-394.3893 270.5951,-465.3347 444.4077,-483.4071 533.7537,-487.9369"/>
<polygon fill="#191970" stroke="#191970" points="533.8085,-491.4432 543.961,-488.4137 534.1352,-484.4508 533.8085,-491.4432"/>
</g>
<!-- Node221304 -->
<g id="node5" class="node">
<title>Node221304</title>
<g id="a_node5"><a xlink:href="quickjs_8c.html#afa67965c1017685fc6783776d6d0d4d7" target="_top" xlink:title="JS_AtomToValue">
<polygon fill="none" stroke="#000000" points="171,-365.8893 171,-384.8893 264,-384.8893 264,-365.8893 171,-365.8893"/>
<text text-anchor="middle" x="217.5" y="-372.8893" font-family="Helvetica,sans-Serif" font-size="10.00" fill="#000000">JS_AtomToValue</text>
</a>
</g>
</g>
<!-- Node221300&#45;&gt;Node221304 -->
<g id="edge4" class="edge">
<title>Node221300&#45;&gt;Node221304</title>
<path fill="none" stroke="#191970" d="M68.4691,-309.0179C85.8486,-320.2795 116.1507,-338.9603 144,-351.3893 153.3774,-355.5744 163.7138,-359.4014 173.5986,-362.7106"/>
<polygon fill="#191970" stroke="#191970" points="172.6889,-366.0948 183.2807,-365.8413 174.8426,-359.4343 172.6889,-366.0948"/>
</g>
<!-- Node221308 -->
<g id="node9" class="node">
<title>Node221308</title>
<g id="a_node9"><a xlink:href="quickjs_8h.html#a775522f2d084fc8fa0fcb33f390006b4" target="_top" xlink:title="JS_DupValue">
<polygon fill="none" stroke="#000000" points="553.5,-327.8893 553.5,-346.8893 630.5,-346.8893 630.5,-327.8893 553.5,-327.8893"/>
<text text-anchor="middle" x="592" y="-334.8893" font-family="Helvetica,sans-Serif" font-size="10.00" fill="#000000">JS_DupValue</text>
</a>
</g>
</g>
<!-- Node221300&#45;&gt;Node221308 -->
<g id="edge10" class="edge">
<title>Node221300&#45;&gt;Node221308</title>
<path fill="none" stroke="#191970" d="M108.1398,-308.7156C119.9315,-310.4936 132.3616,-312.1754 144,-313.3893 288.683,-328.479 460.7003,-334.3251 543.1646,-336.3836"/>
<polygon fill="#191970" stroke="#191970" points="543.1632,-339.8845 553.2449,-336.6273 543.3325,-332.8865 543.1632,-339.8845"/>
</g>
<!-- Node221333 -->
<g id="node11" class="node">
<title>Node221333</title>
<g id="a_node11"><a xlink:href="quickjs_8c.html#a9d6d0a9704951d01c128975e0d2213f8" target="_top" xlink:title="JS_HasProperty">
<polygon fill="none" stroke="#000000" points="173,-137.8893 173,-156.8893 262,-156.8893 262,-137.8893 173,-137.8893"/>
<text text-anchor="middle" x="217.5" y="-144.8893" font-family="Helvetica,sans-Serif" font-size="10.00" fill="#000000">JS_HasProperty</text>
</a>
</g>
</g>
<!-- Node221300&#45;&gt;Node221333 -->
<g id="edge11" class="edge">
<title>Node221300&#45;&gt;Node221333</title>
<path fill="none" stroke="#191970" d="M58.1164,-289.7699C68.7482,-266.0575 99.4438,-204.3419 144,-171.3893 149.8617,-167.0541 156.5445,-163.4782 163.4361,-160.5344"/>
<polygon fill="#191970" stroke="#191970" points="164.8238,-163.7508 172.9058,-156.9001 162.3157,-157.2156 164.8238,-163.7508"/>
</g>
<!-- Node221606 -->
<g id="node18" class="node">
<title>Node221606</title>
<g id="a_node18"><a xlink:href="quickjs_8h.html#aaab426b47c95d00479b7355b1cf7f56c" target="_top" xlink:title="JS_IsUninitialized">
<polygon fill="none" stroke="#000000" points="544.5,-289.8893 544.5,-308.8893 639.5,-308.8893 639.5,-289.8893 544.5,-289.8893"/>
<text text-anchor="middle" x="592" y="-296.8893" font-family="Helvetica,sans-Serif" font-size="10.00" fill="#000000">JS_IsUninitialized</text>
</a>
</g>
</g>
<!-- Node221300&#45;&gt;Node221606 -->
<g id="edge30" class="edge">
<title>Node221300&#45;&gt;Node221606</title>
<path fill="none" stroke="#191970" d="M108.0488,-299.3893C209.91,-299.3893 429.4435,-299.3893 534.1539,-299.3893"/>
<polygon fill="#191970" stroke="#191970" points="534.2238,-302.8894 544.2238,-299.3893 534.2238,-295.8894 534.2238,-302.8894"/>
</g>
<!-- Node221607 -->
<g id="node19" class="node">
<title>Node221607</title>
<g id="a_node19"><a xlink:href="quickjs_8c.html#a75ac132a3af4de01e1fadeb0bede6ee7" target="_top" xlink:title="JS_ThrowReferenceErrorUninitialized">
<polygon fill="none" stroke="#ff0000" points="502,-175.8893 502,-194.8893 682,-194.8893 682,-175.8893 502,-175.8893"/>
<text text-anchor="middle" x="592" y="-182.8893" font-family="Helvetica,sans-Serif" font-size="10.00" fill="#000000">JS_ThrowReferenceErrorUninitialized</text>
</a>
</g>
</g>
<!-- Node221300&#45;&gt;Node221607 -->
<g id="edge31" class="edge">
<title>Node221300&#45;&gt;Node221607</title>
<path fill="none" stroke="#191970" d="M75.3889,-289.7567C120.7041,-269.8435 230.173,-224.3426 327,-204.3893 380.781,-193.3065 441.8499,-188.4226 491.7979,-186.3689"/>
<polygon fill="#191970" stroke="#191970" points="492.0967,-189.8602 501.9569,-185.9836 491.8314,-182.8652 492.0967,-189.8602"/>
</g>
<!-- Node221492 -->
<g id="node20" class="node">
<title>Node221492</title>
<g id="a_node20"><a xlink:href="quickjs_8c.html#adba489eac6c2332de312326782457940" target="_top" xlink:title="JS_ThrowTypeErrorReadOnly">
<polygon fill="none" stroke="#ff0000" points="144,-99.8893 144,-118.8893 291,-118.8893 291,-99.8893 144,-99.8893"/>
<text text-anchor="middle" x="217.5" y="-106.8893" font-family="Helvetica,sans-Serif" font-size="10.00" fill="#000000">JS_ThrowTypeErrorReadOnly</text>
</a>
</g>
</g>
<!-- Node221300&#45;&gt;Node221492 -->
<g id="edge32" class="edge">
<title>Node221300&#45;&gt;Node221492</title>
<path fill="none" stroke="#191970" d="M56.1203,-289.8836C63.1103,-260.8348 88.2369,-172.5353 144,-128.3893 146.2766,-126.5869 148.7058,-124.9541 151.2443,-123.4749"/>
<polygon fill="#191970" stroke="#191970" points="152.8315,-126.5946 160.2341,-119.0149 149.7204,-120.3239 152.8315,-126.5946"/>
</g>
<!-- Node221302 -->
<g id="node3" class="node">
<title>Node221302</title>
<g id="a_node3"><a xlink:href="quickjs_8c.html#a643df594b75933007bcdbb071b5ea8c5" target="_top" xlink:title="get_shape_prop">
<polygon fill="none" stroke="#000000" points="734.5,-498.8893 734.5,-517.8893 820.5,-517.8893 820.5,-498.8893 734.5,-498.8893"/>
<text text-anchor="middle" x="777.5" y="-505.8893" font-family="Helvetica,sans-Serif" font-size="10.00" fill="#000000">get_shape_prop</text>
</a>
</g>
</g>
<!-- Node221301&#45;&gt;Node221302 -->
<g id="edge2" class="edge">
<title>Node221301&#45;&gt;Node221302</title>
<path fill="none" stroke="#191970" d="M640.2537,-494.3317C665.9362,-496.9623 697.5839,-500.2038 724.0145,-502.911"/>
<polygon fill="#191970" stroke="#191970" points="723.9334,-506.4209 734.238,-503.9581 724.6467,-499.4573 723.9334,-506.4209"/>
</g>
<!-- Node221303 -->
<g id="node4" class="node">
<title>Node221303</title>
<g id="a_node4"><a xlink:href="quickjs_8c.html#acab22c2945c4d609e57a2484feb68a96" target="_top" xlink:title="prop_hash_end">
<polygon fill="none" stroke="#000000" points="736,-460.8893 736,-479.8893 819,-479.8893 819,-460.8893 736,-460.8893"/>
<text text-anchor="middle" x="777.5" y="-467.8893" font-family="Helvetica,sans-Serif" font-size="10.00" fill="#000000">prop_hash_end</text>
</a>
</g>
</g>
<!-- Node221301&#45;&gt;Node221303 -->
<g id="edge3" class="edge">
<title>Node221301&#45;&gt;Node221303</title>
<path fill="none" stroke="#191970" d="M640.2537,-484.4469C666.5257,-481.7559 699.04,-478.4256 725.8264,-475.682"/>
<polygon fill="#191970" stroke="#191970" points="726.1958,-479.1626 735.7871,-474.6618 725.4825,-472.199 726.1958,-479.1626"/>
</g>
<!-- Node221305 -->
<g id="node6" class="node">
<title>Node221305</title>
<g id="a_node6"><a xlink:href="quickjs_8c.html#a06ff303a11e6641cbf1f6634e6a61811" target="_top" xlink:title="__JS_AtomToValue">
<polygon fill="none" stroke="#000000" points="344.5,-365.8893 344.5,-384.8893 448.5,-384.8893 448.5,-365.8893 344.5,-365.8893"/>
<text text-anchor="middle" x="396.5" y="-372.8893" font-family="Helvetica,sans-Serif" font-size="10.00" fill="#000000">__JS_AtomToValue</text>
</a>
</g>
</g>
<!-- Node221304&#45;&gt;Node221305 -->
<g id="edge5" class="edge">
<title>Node221304&#45;&gt;Node221305</title>
<path fill="none" stroke="#191970" d="M264.0629,-375.3893C285.5387,-375.3893 311.3371,-375.3893 334.4363,-375.3893"/>
<polygon fill="#191970" stroke="#191970" points="334.491,-378.8894 344.491,-375.3893 334.4909,-371.8894 334.491,-378.8894"/>
</g>
<!-- Node221306 -->
<g id="node7" class="node">
<title>Node221306</title>
<g id="a_node7"><a xlink:href="quickjs_8c.html#a288254c06a39c9fca740a7abdad2834e" target="_top" xlink:title="__JS_AtomIsTaggedInt">
<polygon fill="none" stroke="#000000" points="718,-251.8893 718,-270.8893 837,-270.8893 837,-251.8893 718,-251.8893"/>
<text text-anchor="middle" x="777.5" y="-258.8893" font-family="Helvetica,sans-Serif" font-size="10.00" fill="#000000">__JS_AtomIsTaggedInt</text>
</a>
</g>
</g>
<!-- Node221305&#45;&gt;Node221306 -->
<g id="edge6" class="edge">
<title>Node221305&#45;&gt;Node221306</title>
<path fill="none" stroke="#191970" d="M423.0763,-384.9173C475.7433,-402.0996 595.7225,-432.6632 682,-389.3893 727.6688,-366.4834 757.0733,-310.232 769.9655,-280.5089"/>
<polygon fill="#191970" stroke="#191970" points="773.2285,-281.7773 773.8365,-271.1999 766.7651,-279.0895 773.2285,-281.7773"/>
</g>
<!-- Node221307 -->
<g id="node8" class="node">
<title>Node221307</title>
<g id="a_node8"><a xlink:href="quickjs_8c.html#a89f38938cee8077ce1fbba07946ed185" target="_top" xlink:title="__JS_AtomToUInt32">
<polygon fill="none" stroke="#000000" points="723.5,-213.8893 723.5,-232.8893 831.5,-232.8893 831.5,-213.8893 723.5,-213.8893"/>
<text text-anchor="middle" x="777.5" y="-220.8893" font-family="Helvetica,sans-Serif" font-size="10.00" fill="#000000">__JS_AtomToUInt32</text>
</a>
</g>
</g>
<!-- Node221305&#45;&gt;Node221307 -->
<g id="edge7" class="edge">
<title>Node221305&#45;&gt;Node221307</title>
<path fill="none" stroke="#191970" d="M448.6557,-378.7044C521.0309,-382.1917 646.9839,-383.8858 682,-356.3893 723.7888,-323.5745 680.4898,-280.0203 718,-242.3893 719.4641,-240.9205 721.0415,-239.5651 722.7071,-238.3144"/>
<polygon fill="#191970" stroke="#191970" points="724.9159,-241.0685 731.6542,-232.8926 721.288,-235.0819 724.9159,-241.0685"/>
</g>
<!-- Node221305&#45;&gt;Node221308 -->
<g id="edge8" class="edge">
<title>Node221305&#45;&gt;Node221308</title>
<path fill="none" stroke="#191970" d="M445.5806,-365.8493C475.428,-360.0478 513.4035,-352.6663 543.1999,-346.8747"/>
<polygon fill="#191970" stroke="#191970" points="544.2229,-350.2415 553.3714,-344.8977 542.8873,-343.3701 544.2229,-350.2415"/>
</g>
<!-- Node221309 -->
<g id="node10" class="node">
<title>Node221309</title>
<g id="a_node10"><a xlink:href="quickjs_8c.html#a0ee6a3654a6016393fac5e1c108f403a" target="_top" xlink:title="JS_NewString">
<polygon fill="none" stroke="#ff0000" points="552,-441.8893 552,-460.8893 632,-460.8893 632,-441.8893 552,-441.8893"/>
<text text-anchor="middle" x="592" y="-448.8893" font-family="Helvetica,sans-Serif" font-size="10.00" fill="#000000">JS_NewString</text>
</a>
</g>
</g>
<!-- Node221305&#45;&gt;Node221309 -->
<g id="edge9" class="edge">
<title>Node221305&#45;&gt;Node221309</title>
<path fill="none" stroke="#191970" d="M413.2164,-384.9194C433.6424,-396.258 469.5024,-415.1841 502,-427.3893 514.6667,-432.1466 528.6677,-436.3579 541.7777,-439.872"/>
<polygon fill="#191970" stroke="#191970" points="541.0338,-443.2948 551.5925,-442.4208 542.7933,-436.5195 541.0338,-443.2948"/>
</g>
<!-- Node221333&#45;&gt;Node221308 -->
<g id="edge21" class="edge">
<title>Node221333&#45;&gt;Node221308</title>
<path fill="none" stroke="#191970" d="M226.6636,-157.1138C244.5348,-175.6507 285.9014,-216.4987 327,-242.3893 398.7462,-287.5867 421.2173,-292.6118 502,-318.3893 515.2145,-322.606 529.8226,-326.1485 543.3574,-328.989"/>
<polygon fill="#191970" stroke="#191970" points="542.9632,-332.4799 553.4575,-331.0239 544.3457,-325.6177 542.9632,-332.4799"/>
</g>
<!-- Node221334 -->
<g id="node12" class="node">
<title>Node221334</title>
<g id="a_node12"><a xlink:href="quickjs_8c.html#add3eea1f6d626963ade3c28a1fd563d1" target="_top" xlink:title="JS_AtomIsNumericIndex">
<polygon fill="none" stroke="#000000" points="333.5,-99.8893 333.5,-118.8893 459.5,-118.8893 459.5,-99.8893 333.5,-99.8893"/>
<text text-anchor="middle" x="396.5" y="-106.8893" font-family="Helvetica,sans-Serif" font-size="10.00" fill="#000000">JS_AtomIsNumericIndex</text>
</a>
</g>
</g>
<!-- Node221333&#45;&gt;Node221334 -->
<g id="edge12" class="edge">
<title>Node221333&#45;&gt;Node221334</title>
<path fill="none" stroke="#191970" d="M262.2075,-137.8983C286.3416,-132.7749 316.3303,-126.4085 341.8429,-120.9925"/>
<polygon fill="#191970" stroke="#191970" points="342.6869,-124.3914 351.742,-118.891 341.2332,-117.544 342.6869,-124.3914"/>
</g>
<!-- Node221338 -->
<g id="node14" class="node">
<title>Node221338</title>
<g id="a_node14"><a xlink:href="quickjs_8h.html#afaa20c47565bc704c6c85f3d77254e7d" target="_top" xlink:title="JS_FreeValue">
<polygon fill="none" stroke="#ff0000" points="738.5,-61.8893 738.5,-80.8893 816.5,-80.8893 816.5,-61.8893 738.5,-61.8893"/>
<text text-anchor="middle" x="777.5" y="-68.8893" font-family="Helvetica,sans-Serif" font-size="10.00" fill="#000000">JS_FreeValue</text>
</a>
</g>
</g>
<!-- Node221333&#45;&gt;Node221338 -->
<g id="edge22" class="edge">
<title>Node221333&#45;&gt;Node221338</title>
<path fill="none" stroke="#191970" d="M262.229,-140.0714C272.1249,-137.3157 282.2576,-133.5432 291,-128.3893 311.041,-116.5743 307.9455,-103.737 327,-90.3893 396.451,-41.7386 418.9773,-31.6388 502,-14.3893 580.3272,1.8847 604.8782,6.8762 682,-14.3893 710.7933,-22.3287 739.6586,-41.485 757.9959,-55.4038"/>
<polygon fill="#191970" stroke="#191970" points="756.0718,-58.3421 766.1058,-61.7438 760.3832,-52.8274 756.0718,-58.3421"/>
</g>
<!-- Node221605 -->
<g id="node17" class="node">
<title>Node221605</title>
<g id="a_node17"><a xlink:href="quickjs_8c.html#ad13892c0a0f11781b566808876658099" target="_top" xlink:title="JS_GetOwnPropertyInternal">
<polygon fill="none" stroke="#ff0000" points="327,-213.8893 327,-232.8893 466,-232.8893 466,-213.8893 327,-213.8893"/>
<text text-anchor="middle" x="396.5" y="-220.8893" font-family="Helvetica,sans-Serif" font-size="10.00" fill="#000000">JS_GetOwnPropertyInternal</text>
</a>
</g>
</g>
<!-- Node221333&#45;&gt;Node221605 -->
<g id="edge23" class="edge">
<title>Node221333&#45;&gt;Node221605</title>
<path fill="none" stroke="#191970" d="M240.1705,-157.0147C271.643,-170.3774 328.7309,-194.6158 364.5223,-209.8122"/>
<polygon fill="#191970" stroke="#191970" points="363.441,-213.1554 374.0136,-213.842 366.1768,-206.7121 363.441,-213.1554"/>
</g>
<!-- Node221335 -->
<g id="node13" class="node">
<title>Node221335</title>
<g id="a_node13"><a xlink:href="quickjs_8c.html#ab4e100a9cde5f7ec87c92f5e766dbbab" target="_top" xlink:title="JS_AtomIsNumericIndex1">
<polygon fill="none" stroke="#ff0000" points="526.5,-137.8893 526.5,-156.8893 657.5,-156.8893 657.5,-137.8893 526.5,-137.8893"/>
<text text-anchor="middle" x="592" y="-144.8893" font-family="Helvetica,sans-Serif" font-size="10.00" fill="#000000">JS_AtomIsNumericIndex1</text>
</a>
</g>
</g>
<!-- Node221334&#45;&gt;Node221335 -->
<g id="edge13" class="edge">
<title>Node221334&#45;&gt;Node221335</title>
<path fill="none" stroke="#191970" d="M445.5806,-118.9292C472.0741,-124.0789 504.9717,-130.4733 532.8688,-135.8957"/>
<polygon fill="#191970" stroke="#191970" points="532.4151,-139.373 542.8992,-137.8454 533.7508,-132.5016 532.4151,-139.373"/>
</g>
<!-- Node221334&#45;&gt;Node221338 -->
<g id="edge18" class="edge">
<title>Node221334&#45;&gt;Node221338</title>
<path fill="none" stroke="#191970" d="M459.8421,-103.0717C535.3174,-95.544 659.8017,-83.1282 728.3792,-76.2885"/>
<polygon fill="#191970" stroke="#191970" points="728.881,-79.7559 738.4842,-75.2806 728.1862,-72.7904 728.881,-79.7559"/>
</g>
<!-- Node221372 -->
<g id="node15" class="node">
<title>Node221372</title>
<g id="a_node15"><a xlink:href="quickjs_8h.html#ad80a83d73e9b7d872b88fbf2943aebe9" target="_top" xlink:title="JS_IsException">
<polygon fill="none" stroke="#000000" points="734.5,-118.8893 734.5,-137.8893 820.5,-137.8893 820.5,-118.8893 734.5,-118.8893"/>
<text text-anchor="middle" x="777.5" y="-125.8893" font-family="Helvetica,sans-Serif" font-size="10.00" fill="#000000">JS_IsException</text>
</a>
</g>
</g>
<!-- Node221334&#45;&gt;Node221372 -->
<g id="edge19" class="edge">
<title>Node221334&#45;&gt;Node221372</title>
<path fill="none" stroke="#191970" d="M459.8421,-112.5481C533.8079,-116.2367 654.842,-122.2725 724.1983,-125.7312"/>
<polygon fill="#191970" stroke="#191970" points="724.2956,-129.2403 734.4576,-126.2428 724.6443,-122.249 724.2956,-129.2403"/>
</g>
<!-- Node221502 -->
<g id="node16" class="node">
<title>Node221502</title>
<g id="a_node16"><a xlink:href="quickjs_8h.html#a4e407128a9605afb77523e49e9a627fd" target="_top" xlink:title="JS_IsUndefined">
<polygon fill="none" stroke="#000000" points="549,-23.8893 549,-42.8893 635,-42.8893 635,-23.8893 549,-23.8893"/>
<text text-anchor="middle" x="592" y="-30.8893" font-family="Helvetica,sans-Serif" font-size="10.00" fill="#000000">JS_IsUndefined</text>
</a>
</g>
</g>
<!-- Node221334&#45;&gt;Node221502 -->
<g id="edge20" class="edge">
<title>Node221334&#45;&gt;Node221502</title>
<path fill="none" stroke="#191970" d="M413.2164,-99.8591C433.6424,-88.5206 469.5024,-69.5945 502,-57.3893 513.9453,-52.903 527.0772,-48.9022 539.5294,-45.5138"/>
<polygon fill="#191970" stroke="#191970" points="540.5564,-48.8627 549.3344,-42.9301 538.7727,-42.0938 540.5564,-48.8627"/>
</g>
<!-- Node221335&#45;&gt;Node221306 -->
<g id="edge14" class="edge">
<title>Node221335&#45;&gt;Node221306</title>
<path fill="none" stroke="#191970" d="M657.6496,-153.7588C666.4304,-156.6789 674.8553,-160.7493 682,-166.3893 711.3367,-189.5474 689.8702,-217.7793 718,-242.3893 719.9281,-244.0761 722.0071,-245.6134 724.1926,-247.0145"/>
<polygon fill="#191970" stroke="#191970" points="722.5907,-250.1269 733.0572,-251.7706 725.9002,-243.9586 722.5907,-250.1269"/>
</g>
<!-- Node221335&#45;&gt;Node221307 -->
<g id="edge15" class="edge">
<title>Node221335&#45;&gt;Node221307</title>
<path fill="none" stroke="#191970" d="M650.9192,-156.9034C661.4492,-159.424 672.1852,-162.5477 682,-166.3893 709.1952,-177.0338 737.5915,-194.9972 756.2766,-207.9156"/>
<polygon fill="#191970" stroke="#191970" points="754.4314,-210.897 764.6214,-213.7979 758.4645,-205.1756 754.4314,-210.897"/>
</g>
<!-- Node221335&#45;&gt;Node221338 -->
<g id="edge16" class="edge">
<title>Node221335&#45;&gt;Node221338</title>
<path fill="none" stroke="#191970" d="M615.4937,-137.7638C648.2484,-124.3441 707.7761,-99.9554 744.8354,-84.7721"/>
<polygon fill="#191970" stroke="#191970" points="746.2705,-87.9665 754.1971,-80.9366 743.6166,-81.4891 746.2705,-87.9665"/>
</g>
<!-- Node221335&#45;&gt;Node221372 -->
<g id="edge17" class="edge">
<title>Node221335&#45;&gt;Node221372</title>
<path fill="none" stroke="#191970" d="M657.6614,-140.6639C679.4165,-138.4356 703.3511,-135.984 724.0723,-133.8617"/>
<polygon fill="#191970" stroke="#191970" points="724.6824,-137.3176 734.2737,-132.8168 723.9691,-130.354 724.6824,-137.3176"/>
</g>
<!-- Node221605&#45;&gt;Node221301 -->
<g id="edge26" class="edge">
<title>Node221605&#45;&gt;Node221301</title>
<path fill="none" stroke="#191970" d="M402.3443,-233.113C415.1472,-254.7013 446.1116,-308.5106 466,-356.3893 486.3824,-405.4573 462.6374,-434.7004 502,-470.3893 510.873,-478.4341 522.2717,-483.396 533.9547,-486.3908"/>
<polygon fill="#191970" stroke="#191970" points="533.2785,-489.8251 543.786,-488.4683 534.7257,-482.9764 533.2785,-489.8251"/>
</g>
<!-- Node221605&#45;&gt;Node221306 -->
<g id="edge24" class="edge">
<title>Node221605&#45;&gt;Node221306</title>
<path fill="none" stroke="#191970" d="M464.8305,-232.9135C477.1899,-234.506 489.9702,-236.0678 502,-237.3893 571.8624,-245.0638 651.9117,-251.809 707.6532,-256.1783"/>
<polygon fill="#191970" stroke="#191970" points="707.529,-259.6791 717.7706,-256.9661 708.0725,-252.7002 707.529,-259.6791"/>
</g>
<!-- Node221605&#45;&gt;Node221307 -->
<g id="edge25" class="edge">
<title>Node221605&#45;&gt;Node221307</title>
<path fill="none" stroke="#191970" d="M466.3813,-223.3893C536.8777,-223.3893 644.8115,-223.3893 713.2345,-223.3893"/>
<polygon fill="#191970" stroke="#191970" points="713.4492,-226.8894 723.4491,-223.3893 713.4491,-219.8894 713.4492,-226.8894"/>
</g>
<!-- Node221605&#45;&gt;Node221308 -->
<g id="edge27" class="edge">
<title>Node221605&#45;&gt;Node221308</title>
<path fill="none" stroke="#191970" d="M440.7771,-232.9815C449.8302,-236.433 458.7835,-241.0979 466,-247.3893 492.6685,-270.6389 473.9374,-296.8429 502,-318.3893 513.8353,-327.4763 529.0206,-332.4612 543.5339,-335.1278"/>
<polygon fill="#191970" stroke="#191970" points="543.0134,-338.5888 553.4248,-336.6254 544.0615,-331.6676 543.0134,-338.5888"/>
</g>
<!-- Node221605&#45;&gt;Node221606 -->
<g id="edge28" class="edge">
<title>Node221605&#45;&gt;Node221606</title>
<path fill="none" stroke="#191970" d="M431.3848,-232.9513C442.76,-236.7138 455.2267,-241.5489 466,-247.3893 483.8197,-257.0497 483.8446,-266.3756 502,-275.3893 512.1944,-280.4505 523.5861,-284.5429 534.7463,-287.8165"/>
<polygon fill="#191970" stroke="#191970" points="533.8881,-291.2104 544.4582,-290.4864 535.7437,-284.4608 533.8881,-291.2104"/>
</g>
<!-- Node221605&#45;&gt;Node221607 -->
<g id="edge29" class="edge">
<title>Node221605&#45;&gt;Node221607</title>
<path fill="none" stroke="#191970" d="M445.5806,-213.8493C472.0741,-208.6997 504.9717,-202.3053 532.8688,-196.8828"/>
<polygon fill="#191970" stroke="#191970" points="533.7508,-200.277 542.8992,-194.9332 532.4151,-193.4056 533.7508,-200.277"/>
</g>
</g>
</svg>
