<?xml version="1.0" encoding="UTF-8" standalone="no"?>
<!DOCTYPE svg PUBLIC "-//W3C//DTD SVG 1.1//EN"
 "http://www.w3.org/Graphics/SVG/1.1/DTD/svg11.dtd">
<!-- Generated by graphviz version 2.40.1 (20161225.0304)
 -->
<!-- Title: js_malloc_usable_size_rt Pages: 1 -->
<!--zoomable 236 -->
<svg id="main" version="1.1" xmlns="http://www.w3.org/2000/svg" xmlns:xlink="http://www.w3.org/1999/xlink" xml:space="preserve" onload="init(evt)">
<style type="text/css"><![CDATA[
.edge:hover path { stroke: red; }
.edge:hover polygon { stroke: red; fill: red; }
]]></style>
<script type="text/javascript"><![CDATA[
var edges = document.getElementsByTagName('g');
if (edges && edges.length) {
  for (var i=0;i<edges.length;i++) {
    if (edges[i].id.substr(0,4)=='edge') {
      edges[i].setAttribute('class','edge');
    }
  }
}
]]></script>
        <defs>
                <circle id="rim" cx="0" cy="0" r="7"/>
                <circle id="rim2" cx="0" cy="0" r="3.5"/>
                <g id="zoomPlus">
                        <use xlink:href="#rim" fill="#404040">
                                <set attributeName="fill" to="#808080" begin="zoomplus.mouseover" end="zoomplus.mouseout"/>
                        </use>
                        <path d="M-4,0h8M0,-4v8" fill="none" stroke="white" stroke-width="1.5" pointer-events="none"/>
                </g>
                <g id="zoomMin">
                        <use xlink:href="#rim" fill="#404040">
                                <set attributeName="fill" to="#808080" begin="zoomminus.mouseover" end="zoomminus.mouseout"/>
                        </use>
                        <path d="M-4,0h8" fill="none" stroke="white" stroke-width="1.5" pointer-events="none"/>
                </g>
                <g id="dirArrow">
                        <path fill="none" stroke="white" stroke-width="1.5" d="M0,-3.0v7 M-2.5,-0.5L0,-3.0L2.5,-0.5"/>
                </g>
               <g id="resetDef">
                       <use xlink:href="#rim2" fill="#404040">
                               <set attributeName="fill" to="#808080" begin="reset.mouseover" end="reset.mouseout"/>
                       </use>
               </g>
        </defs>

<script type="text/javascript">
var viewWidth = 664;
var viewHeight = 236;
var sectionId = 'dynsection-54';
</script>
<script xlink:href="svgpan.js"/>
<svg id="graph" class="graph">
<g id="viewport">
<title>js_malloc_usable_size_rt</title>
<!-- Node13780 -->
<g id="node1" class="node">
<title>Node13780</title>
<polygon fill="#bfbfbf" stroke="#000000" points="0,-99.5 0,-118.5 126,-118.5 126,-99.5 0,-99.5"/>
<text text-anchor="middle" x="63" y="-106.5" font-family="Helvetica,sans-Serif" font-size="10.00" fill="#000000">js_malloc_usable_size_rt</text>
</g>
<!-- Node13781 -->
<g id="node2" class="node">
<title>Node13781</title>
<g id="a_node2"><a xlink:href="quickjs_8c.html#a2424196308d86d1a8c2bb410ca279be4" target="_top" xlink:title="JS_DumpMemoryUsage">
<polygon fill="none" stroke="#000000" points="162,-137.5 162,-156.5 286,-156.5 286,-137.5 162,-137.5"/>
<text text-anchor="middle" x="224" y="-144.5" font-family="Helvetica,sans-Serif" font-size="10.00" fill="#000000">JS_DumpMemoryUsage</text>
</a>
</g>
</g>
<!-- Node13780&#45;&gt;Node13781 -->
<g id="edge1" class="edge">
<title>Node13780&#45;&gt;Node13781</title>
<path fill="none" stroke="#191970" d="M113.4018,-120.8961C136.032,-126.2374 162.3695,-132.4537 183.665,-137.4799"/>
<polygon fill="#191970" stroke="#191970" points="114.1637,-117.4798 103.6271,-118.589 112.5557,-124.2926 114.1637,-117.4798"/>
</g>
<!-- Node13782 -->
<g id="node3" class="node">
<title>Node13782</title>
<g id="a_node3"><a xlink:href="quickjs_8c.html#ade5954b108a45072dff068d11f1c6d10" target="_top" xlink:title="js_malloc_usable_size">
<polygon fill="none" stroke="#000000" points="166.5,-99.5 166.5,-118.5 281.5,-118.5 281.5,-99.5 166.5,-99.5"/>
<text text-anchor="middle" x="224" y="-106.5" font-family="Helvetica,sans-Serif" font-size="10.00" fill="#000000">js_malloc_usable_size</text>
</a>
</g>
</g>
<!-- Node13780&#45;&gt;Node13782 -->
<g id="edge2" class="edge">
<title>Node13780&#45;&gt;Node13782</title>
<path fill="none" stroke="#191970" d="M136.1791,-109C146.264,-109 156.5035,-109 166.2573,-109"/>
<polygon fill="#191970" stroke="#191970" points="136.1694,-105.5001 126.1694,-109 136.1693,-112.5001 136.1694,-105.5001"/>
</g>
<!-- Node14393 -->
<g id="node10" class="node">
<title>Node14393</title>
<g id="a_node10"><a xlink:href="quickjs_8c.html#a1c31248142879982abb1595f97817cd9" target="_top" xlink:title="js_realloc2">
<polygon fill="none" stroke="#000000" points="192.5,-52.5 192.5,-71.5 255.5,-71.5 255.5,-52.5 192.5,-52.5"/>
<text text-anchor="middle" x="224" y="-59.5" font-family="Helvetica,sans-Serif" font-size="10.00" fill="#000000">js_realloc2</text>
</a>
</g>
</g>
<!-- Node13780&#45;&gt;Node14393 -->
<g id="edge12" class="edge">
<title>Node13780&#45;&gt;Node14393</title>
<path fill="none" stroke="#191970" d="M105.247,-96.667C132.509,-88.7086 167.3974,-78.5238 192.2907,-71.2568"/>
<polygon fill="#191970" stroke="#191970" points="104.1993,-93.3267 95.5808,-99.4888 106.1609,-100.0463 104.1993,-93.3267"/>
</g>
<!-- Node13783 -->
<g id="node4" class="node">
<title>Node13783</title>
<g id="a_node4"><a xlink:href="quickjs_8c.html#ab6d8a1a52baf4d686aed594b996699d7" target="_top" xlink:title="JS_ConcatString">
<polygon fill="none" stroke="#000000" points="322,-104.5 322,-123.5 413,-123.5 413,-104.5 322,-104.5"/>
<text text-anchor="middle" x="367.5" y="-111.5" font-family="Helvetica,sans-Serif" font-size="10.00" fill="#000000">JS_ConcatString</text>
</a>
</g>
</g>
<!-- Node13782&#45;&gt;Node13783 -->
<g id="edge3" class="edge">
<title>Node13782&#45;&gt;Node13783</title>
<path fill="none" stroke="#191970" d="M291.6973,-111.3588C301.922,-111.7151 312.2569,-112.0752 321.8677,-112.41"/>
<polygon fill="#191970" stroke="#191970" points="291.6559,-107.8553 281.5401,-111.0049 291.4121,-114.8511 291.6559,-107.8553"/>
</g>
<!-- Node13784 -->
<g id="node5" class="node">
<title>Node13784</title>
<g id="a_node5"><a xlink:href="quickjs_8c.html#ae8ff05447c0d51fe277baccf616dc7c6" target="_top" xlink:title="js_add_slow">
<polygon fill="none" stroke="#000000" points="457.5,-208.5 457.5,-227.5 528.5,-227.5 528.5,-208.5 457.5,-208.5"/>
<text text-anchor="middle" x="493" y="-215.5" font-family="Helvetica,sans-Serif" font-size="10.00" fill="#000000">js_add_slow</text>
</a>
</g>
</g>
<!-- Node13783&#45;&gt;Node13784 -->
<g id="edge4" class="edge">
<title>Node13783&#45;&gt;Node13784</title>
<path fill="none" stroke="#191970" d="M382.5799,-131.3951C398.0979,-148.6366 423.5371,-175.1315 449,-194 456.2708,-199.3878 464.8957,-204.3589 472.5747,-208.3627"/>
<polygon fill="#191970" stroke="#191970" points="385.0546,-128.9104 375.8023,-123.7484 379.8161,-133.5535 385.0546,-128.9104"/>
</g>
<!-- Node13785 -->
<g id="node6" class="node">
<title>Node13785</title>
<g id="a_node6"><a xlink:href="quickjs_8c.html#ac2894ff4edcdb4e6841bcce9c76081e3" target="_top" xlink:title="JS_CallInternal">
<polygon fill="none" stroke="#ff0000" points="573,-189.5 573,-208.5 656,-208.5 656,-189.5 573,-189.5"/>
<text text-anchor="middle" x="614.5" y="-196.5" font-family="Helvetica,sans-Serif" font-size="10.00" fill="#000000">JS_CallInternal</text>
</a>
</g>
</g>
<!-- Node13783&#45;&gt;Node13785 -->
<g id="edge7" class="edge">
<title>Node13783&#45;&gt;Node13785</title>
<path fill="none" stroke="#191970" d="M389.8491,-129.3273C405.7325,-139.5985 427.9048,-152.711 449,-161 489.6084,-176.9563 538.5782,-187.1639 572.669,-192.9365"/>
<polygon fill="#191970" stroke="#191970" points="391.5525,-126.2578 381.2796,-123.6659 387.694,-132.0984 391.5525,-126.2578"/>
</g>
<!-- Node14348 -->
<g id="node7" class="node">
<title>Node14348</title>
<g id="a_node7"><a xlink:href="quickjs_8c.html#a367aedcd65b39452fb00ce58dac0c6f6" target="_top" xlink:title="js_error_toString">
<polygon fill="none" stroke="#000000" points="449,-132.5 449,-151.5 537,-151.5 537,-132.5 449,-132.5"/>
<text text-anchor="middle" x="493" y="-139.5" font-family="Helvetica,sans-Serif" font-size="10.00" fill="#000000">js_error_toString</text>
</a>
</g>
</g>
<!-- Node13783&#45;&gt;Node14348 -->
<g id="edge8" class="edge">
<title>Node13783&#45;&gt;Node14348</title>
<path fill="none" stroke="#191970" d="M420.2279,-125.764C430.2735,-128.0052 440.6709,-130.325 450.3541,-132.4854"/>
<polygon fill="#191970" stroke="#191970" points="420.8612,-122.3193 410.339,-123.5577 419.3368,-129.1513 420.8612,-122.3193"/>
</g>
<!-- Node13862 -->
<g id="node8" class="node">
<title>Node13862</title>
<g id="a_node8"><a xlink:href="quickjs_8c.html#a60d84dd116a9d7d912d08f298a4734dd" target="_top" xlink:title="js_json_to_str">
<polygon fill="none" stroke="#ff0000" points="454.5,-76.5 454.5,-95.5 531.5,-95.5 531.5,-76.5 454.5,-76.5"/>
<text text-anchor="middle" x="493" y="-83.5" font-family="Helvetica,sans-Serif" font-size="10.00" fill="#000000">js_json_to_str</text>
</a>
</g>
</g>
<!-- Node13783&#45;&gt;Node13862 -->
<g id="edge9" class="edge">
<title>Node13783&#45;&gt;Node13862</title>
<path fill="none" stroke="#191970" d="M420.1865,-102.2453C431.5695,-99.7056 443.4061,-97.0648 454.1451,-94.6688"/>
<polygon fill="#191970" stroke="#191970" points="419.3368,-98.8487 410.339,-104.4423 420.8612,-105.6807 419.3368,-98.8487"/>
</g>
<!-- Node14338 -->
<g id="node9" class="node">
<title>Node14338</title>
<g id="a_node9"><a xlink:href="quickjs_8c.html#ad15d899d5566569437570ab09c3f1f33" target="_top" xlink:title="js_string_concat">
<polygon fill="none" stroke="#000000" points="449,-38.5 449,-57.5 537,-57.5 537,-38.5 449,-38.5"/>
<text text-anchor="middle" x="493" y="-45.5" font-family="Helvetica,sans-Serif" font-size="10.00" fill="#000000">js_string_concat</text>
</a>
</g>
</g>
<!-- Node13783&#45;&gt;Node14338 -->
<g id="edge11" class="edge">
<title>Node13783&#45;&gt;Node14338</title>
<path fill="none" stroke="#191970" d="M391.5539,-99.1478C407.5729,-89.5026 429.2331,-76.926 449,-67 455.5435,-63.7142 462.7876,-60.4422 469.4774,-57.5629"/>
<polygon fill="#191970" stroke="#191970" points="389.5611,-96.2632 382.831,-104.4459 393.195,-102.2461 389.5611,-96.2632"/>
</g>
<!-- Node13784&#45;&gt;Node13785 -->
<g id="edge5" class="edge">
<title>Node13784&#45;&gt;Node13785</title>
<path fill="none" stroke="#191970" d="M538.8401,-210.8316C550.0488,-209.0788 561.9793,-207.2131 572.9734,-205.4939"/>
<polygon fill="#191970" stroke="#191970" points="538.136,-207.3991 528.7969,-212.4021 539.2176,-214.315 538.136,-207.3991"/>
</g>
<!-- Node13785&#45;&gt;Node13785 -->
<g id="edge6" class="edge">
<title>Node13785&#45;&gt;Node13785</title>
<path fill="none" stroke="#191970" d="M592.1787,-218.0292C593.3962,-223.128 600.8367,-227 614.5,-227 635.8281,-227 641.9933,-217.5653 632.9955,-208.7571"/>
<polygon fill="#191970" stroke="#191970" points="595.4256,-219.3361 596.0045,-208.7571 588.9548,-216.6661 595.4256,-219.3361"/>
</g>
<!-- Node13862&#45;&gt;Node13862 -->
<g id="edge10" class="edge">
<title>Node13862&#45;&gt;Node13862</title>
<path fill="none" stroke="#191970" d="M470.6787,-105.0292C471.8962,-110.128 479.3367,-114 493,-114 514.3281,-114 520.4933,-104.5653 511.4955,-95.7571"/>
<polygon fill="#191970" stroke="#191970" points="473.9256,-106.3361 474.5045,-95.7571 467.4548,-103.6661 473.9256,-106.3361"/>
</g>
<!-- Node14394 -->
<g id="node11" class="node">
<title>Node14394</title>
<g id="a_node11"><a xlink:href="quickjs_8c.html#a0eda61158c0a22ef337abc3a035bca33" target="_top" xlink:title="js_realloc_array">
<polygon fill="none" stroke="#000000" points="325,-33.5 325,-52.5 410,-52.5 410,-33.5 325,-33.5"/>
<text text-anchor="middle" x="367.5" y="-40.5" font-family="Helvetica,sans-Serif" font-size="10.00" fill="#000000">js_realloc_array</text>
</a>
</g>
</g>
<!-- Node14393&#45;&gt;Node14394 -->
<g id="edge13" class="edge">
<title>Node14393&#45;&gt;Node14394</title>
<path fill="none" stroke="#191970" d="M265.7861,-56.4673C284.3539,-54.0089 306.1851,-51.1184 324.852,-48.6468"/>
<polygon fill="#191970" stroke="#191970" points="265.3013,-53.0009 255.8473,-57.7833 266.2202,-59.9403 265.3013,-53.0009"/>
</g>
<!-- Node14395 -->
<g id="node12" class="node">
<title>Node14395</title>
<g id="a_node12"><a xlink:href="quickjs_8c.html#afa610f3175e9cb11fdceac95071099b5" target="_top" xlink:title="js_resize_array">
<polygon fill="none" stroke="#ff0000" points="451.5,-.5 451.5,-19.5 534.5,-19.5 534.5,-.5 451.5,-.5"/>
<text text-anchor="middle" x="493" y="-7.5" font-family="Helvetica,sans-Serif" font-size="10.00" fill="#000000">js_resize_array</text>
</a>
</g>
</g>
<!-- Node14394&#45;&gt;Node14395 -->
<g id="edge14" class="edge">
<title>Node14394&#45;&gt;Node14395</title>
<path fill="none" stroke="#191970" d="M413.8585,-30.8101C428.0256,-27.0849 443.3915,-23.0445 456.7818,-19.5235"/>
<polygon fill="#191970" stroke="#191970" points="412.581,-27.527 403.7998,-33.455 414.3611,-34.2969 412.581,-27.527"/>
</g>
</g>
</svg>
        <g id="navigator" transform="translate(0 0)" fill="#404254">
                <rect fill="#f2f5e9" fill-opacity="0.5" stroke="#606060" stroke-width=".5" x="0" y="0" width="60" height="60"/>
                <use id="zoomplus" xlink:href="#zoomPlus" x="17" y="9" onmousedown="handleZoom(evt,'in')"/>
                <use id="zoomminus" xlink:href="#zoomMin" x="42" y="9" onmousedown="handleZoom(evt,'out')"/>
                <use id="reset" xlink:href="#resetDef" x="30" y="36" onmousedown="handleReset()"/>
                <g id="arrowUp" xlink:href="#dirArrow" transform="translate(30 24)" onmousedown="handlePan(0,-1)">
                  <use xlink:href="#rim" fill="#404040">
                        <set attributeName="fill" to="#808080" begin="arrowUp.mouseover" end="arrowUp.mouseout"/>
                  </use>
                  <path fill="none" stroke="white" stroke-width="1.5" d="M0,-3.0v7 M-2.5,-0.5L0,-3.0L2.5,-0.5"/>
                </g>
                <g id="arrowRight" xlink:href="#dirArrow" transform="rotate(90) translate(36 -43)" onmousedown="handlePan(1,0)">
                  <use xlink:href="#rim" fill="#404040">
                        <set attributeName="fill" to="#808080" begin="arrowRight.mouseover" end="arrowRight.mouseout"/>
                  </use>
                  <path fill="none" stroke="white" stroke-width="1.5" d="M0,-3.0v7 M-2.5,-0.5L0,-3.0L2.5,-0.5"/>
                </g>
                <g id="arrowDown" xlink:href="#dirArrow" transform="rotate(180) translate(-30 -48)" onmousedown="handlePan(0,1)">
                  <use xlink:href="#rim" fill="#404040">
                        <set attributeName="fill" to="#808080" begin="arrowDown.mouseover" end="arrowDown.mouseout"/>
                  </use>
                  <path fill="none" stroke="white" stroke-width="1.5" d="M0,-3.0v7 M-2.5,-0.5L0,-3.0L2.5,-0.5"/>
                </g>
                <g id="arrowLeft" xlink:href="#dirArrow" transform="rotate(270) translate(-36 17)" onmousedown="handlePan(-1,0)">
                  <use xlink:href="#rim" fill="#404040">
                        <set attributeName="fill" to="#808080" begin="arrowLeft.mouseover" end="arrowLeft.mouseout"/>
                  </use>
                  <path fill="none" stroke="white" stroke-width="1.5" d="M0,-3.0v7 M-2.5,-0.5L0,-3.0L2.5,-0.5"/>
                </g>
        </g>
        <svg viewBox="0 0 15 15" width="100%" height="30px" preserveAspectRatio="xMaxYMin meet">
         <g id="arrow_out" transform="scale(0.3 0.3)">
          <a xlink:href="quickjs_8h_a9a3248be6328b083907b3655ec93777b_icgraph_org.svg" target="_base">
           <rect id="button" ry="5" rx="5" y="6" x="6" height="38" width="38"
                fill="#f2f5e9" fill-opacity="0.5" stroke="#606060" stroke-width="1.0"/>
           <path id="arrow"
             d="M 11.500037,31.436501 C 11.940474,20.09759 22.043105,11.32322 32.158766,21.979434 L 37.068811,17.246167 C 37.068811,17.246167 37.088388,32 37.088388,32 L 22.160133,31.978069 C 22.160133,31.978069 26.997745,27.140456 26.997745,27.140456 C 18.528582,18.264221 13.291696,25.230495 11.500037,31.436501 z"
             style="fill:#404040;"/>
          </a>
         </g>
        </svg>
</svg>
