<?xml version="1.0" encoding="UTF-8" standalone="no"?>
<!DOCTYPE svg PUBLIC "-//W3C//DTD SVG 1.1//EN"
 "http://www.w3.org/Graphics/SVG/1.1/DTD/svg11.dtd">
<!-- Generated by graphviz version 2.40.1 (20161225.0304)
 -->
<!-- Title: JS_NewCFunction2 Pages: 1 -->
<svg width="1127pt" height="721pt"
 viewBox="0.00 0.00 1127.00 720.61" xmlns="http://www.w3.org/2000/svg" xmlns:xlink="http://www.w3.org/1999/xlink">
<g id="graph0" class="graph" transform="scale(1 1) rotate(0) translate(4 716.6119)">
<title>JS_NewCFunction2</title>
<!-- Node87459 -->
<g id="node1" class="node">
<title>Node87459</title>
<polygon fill="#bfbfbf" stroke="#000000" points="0,-285.5 0,-304.5 104,-304.5 104,-285.5 0,-285.5"/>
<text text-anchor="middle" x="52" y="-292.5" font-family="Helvetica,sans-Serif" font-size="10.00" fill="#000000">JS_NewCFunction2</text>
</g>
<!-- Node87460 -->
<g id="node2" class="node">
<title>Node87460</title>
<g id="a_node2"><a xlink:href="quickjs_8c.html#a2e66fcf1bc1d19f346317f10ee590621" target="_top" xlink:title="JS_AddIntrinsicPromise">
<polygon fill="none" stroke="#000000" points="524,-665.5 524,-684.5 646,-684.5 646,-665.5 524,-665.5"/>
<text text-anchor="middle" x="585" y="-672.5" font-family="Helvetica,sans-Serif" font-size="10.00" fill="#000000">JS_AddIntrinsicPromise</text>
</a>
</g>
</g>
<!-- Node87459&#45;&gt;Node87460 -->
<g id="edge1" class="edge">
<title>Node87459&#45;&gt;Node87460</title>
<path fill="none" stroke="#191970" d="M53.9401,-314.9536C60.9945,-383.016 87.6597,-604.2542 140,-648 261.2992,-749.3813 472.3133,-706.1754 552.6688,-684.5646"/>
<polygon fill="#191970" stroke="#191970" points="57.3963,-314.3419 52.9115,-304.7431 50.4315,-315.0436 57.3963,-314.3419"/>
</g>
<!-- Node87465 -->
<g id="node5" class="node">
<title>Node87465</title>
<g id="a_node5"><a xlink:href="quickjs_8c.html#a3afdbdd7b58ef7e1dcc178c362071b3d" target="_top" xlink:title="JS_AddIntrinsicProxy">
<polygon fill="none" stroke="#000000" points="529.5,-627.5 529.5,-646.5 640.5,-646.5 640.5,-627.5 529.5,-627.5"/>
<text text-anchor="middle" x="585" y="-634.5" font-family="Helvetica,sans-Serif" font-size="10.00" fill="#000000">JS_AddIntrinsicProxy</text>
</a>
</g>
</g>
<!-- Node87459&#45;&gt;Node87465 -->
<g id="edge4" class="edge">
<title>Node87459&#45;&gt;Node87465</title>
<path fill="none" stroke="#191970" d="M54.3346,-314.5445C62.394,-378.4116 91.2603,-579.0883 140,-618 198.5424,-664.7378 423.3671,-651.6131 529.2441,-642.4667"/>
<polygon fill="#191970" stroke="#191970" points="57.8042,-314.0819 53.1081,-304.5847 50.8566,-314.9375 57.8042,-314.0819"/>
</g>
<!-- Node87466 -->
<g id="node6" class="node">
<title>Node87466</title>
<g id="a_node6"><a xlink:href="quickjs_8c.html#a6ee4e2edda1f223a5a40e2c48b41d618" target="_top" xlink:title="JS_InstantiateFunctionListItem">
<polygon fill="none" stroke="#000000" points="144.5,-323.5 144.5,-342.5 296.5,-342.5 296.5,-323.5 144.5,-323.5"/>
<text text-anchor="middle" x="220.5" y="-330.5" font-family="Helvetica,sans-Serif" font-size="10.00" fill="#000000">JS_InstantiateFunctionListItem</text>
</a>
</g>
</g>
<!-- Node87459&#45;&gt;Node87466 -->
<g id="edge6" class="edge">
<title>Node87459&#45;&gt;Node87466</title>
<path fill="none" stroke="#191970" d="M104.4313,-306.8243C128.1868,-312.1816 155.8986,-318.4311 178.2861,-323.4799"/>
<polygon fill="#191970" stroke="#191970" points="105.0447,-303.3748 94.5197,-304.589 103.5047,-310.2033 105.0447,-303.3748"/>
</g>
<!-- Node87478 -->
<g id="node17" class="node">
<title>Node87478</title>
<g id="a_node17"><a xlink:href="quickjs-libc_8c.html#a066e7962ce24f22d5df20968a8baa346" target="_top" xlink:title="js_os_init">
<polygon fill="none" stroke="#ff0000" points="741.5,-285.5 741.5,-304.5 799.5,-304.5 799.5,-285.5 741.5,-285.5"/>
<text text-anchor="middle" x="770.5" y="-292.5" font-family="Helvetica,sans-Serif" font-size="10.00" fill="#000000">js_os_init</text>
</a>
</g>
</g>
<!-- Node87459&#45;&gt;Node87478 -->
<g id="edge47" class="edge">
<title>Node87459&#45;&gt;Node87478</title>
<path fill="none" stroke="#191970" d="M114.5432,-288.3392C224.4716,-277.6797 459.4209,-259.5768 657,-276 685.8701,-278.3997 718.4484,-284.1765 741.2722,-288.7349"/>
<polygon fill="#191970" stroke="#191970" points="113.9103,-284.8845 104.3007,-289.3461 114.5952,-291.8509 113.9103,-284.8845"/>
</g>
<!-- Node87483 -->
<g id="node20" class="node">
<title>Node87483</title>
<g id="a_node20"><a xlink:href="quickjs_8h.html#aa68c88001ca8a8662d8f9f321a72f421" target="_top" xlink:title="JS_NewCFunction">
<polygon fill="none" stroke="#000000" points="357.5,-71.5 357.5,-90.5 456.5,-90.5 456.5,-71.5 357.5,-71.5"/>
<text text-anchor="middle" x="407" y="-78.5" font-family="Helvetica,sans-Serif" font-size="10.00" fill="#000000">JS_NewCFunction</text>
</a>
</g>
</g>
<!-- Node87459&#45;&gt;Node87483 -->
<g id="edge32" class="edge">
<title>Node87459&#45;&gt;Node87483</title>
<path fill="none" stroke="#191970" d="M58.2686,-275.7643C69.4864,-244.4524 96.0243,-182.6809 140,-150 204.7503,-101.8803 299.9356,-87.2127 357.4393,-82.8076"/>
<polygon fill="#191970" stroke="#191970" points="54.8727,-274.8772 54.9362,-285.4719 61.4935,-277.1501 54.8727,-274.8772"/>
</g>
<!-- Node87487 -->
<g id="node24" class="node">
<title>Node87487</title>
<g id="a_node24"><a xlink:href="quickjs_8h.html#ae75598e7954a062f9890bc2ecf435fa1" target="_top" xlink:title="JS_NewCFunctionMagic">
<polygon fill="none" stroke="#000000" points="344.5,-133.5 344.5,-152.5 469.5,-152.5 469.5,-133.5 344.5,-133.5"/>
<text text-anchor="middle" x="407" y="-140.5" font-family="Helvetica,sans-Serif" font-size="10.00" fill="#000000">JS_NewCFunctionMagic</text>
</a>
</g>
</g>
<!-- Node87459&#45;&gt;Node87487 -->
<g id="edge38" class="edge">
<title>Node87459&#45;&gt;Node87487</title>
<path fill="none" stroke="#191970" d="M64.4318,-277.1523C79.7736,-256.5262 107.8131,-223.1056 140,-205 203.9765,-169.0123 287.7916,-153.8833 344.3113,-147.5421"/>
<polygon fill="#191970" stroke="#191970" points="61.5073,-275.2236 58.4828,-285.3776 67.1793,-279.3259 61.5073,-275.2236"/>
</g>
<!-- Node87488 -->
<g id="node25" class="node">
<title>Node87488</title>
<g id="a_node25"><a xlink:href="quickjs_8c.html#a293feb2179c9a722b2bd410bc2c5c173" target="_top" xlink:title="JS_NewGlobalCConstructor">
<polygon fill="none" stroke="#000000" points="337,-190.5 337,-209.5 477,-209.5 477,-190.5 337,-190.5"/>
<text text-anchor="middle" x="407" y="-197.5" font-family="Helvetica,sans-Serif" font-size="10.00" fill="#000000">JS_NewGlobalCConstructor</text>
</a>
</g>
</g>
<!-- Node87459&#45;&gt;Node87488 -->
<g id="edge41" class="edge">
<title>Node87459&#45;&gt;Node87488</title>
<path fill="none" stroke="#191970" d="M72.8197,-279.6449C89.9811,-267.7629 115.4124,-251.8831 140,-243 204.3602,-219.7476 281.9815,-209.0339 336.902,-204.1185"/>
<polygon fill="#191970" stroke="#191970" points="70.7831,-276.7983 64.6475,-285.4357 74.8303,-282.5098 70.7831,-276.7983"/>
</g>
<!-- Node87489 -->
<g id="node26" class="node">
<title>Node87489</title>
<g id="a_node26"><a xlink:href="quickjs_8c.html#abc33a664e231090ec89f9d9975e21229" target="_top" xlink:title="JS_NewGlobalCConstructorOnly">
<polygon fill="none" stroke="#000000" points="140,-589.5 140,-608.5 301,-608.5 301,-589.5 140,-589.5"/>
<text text-anchor="middle" x="220.5" y="-596.5" font-family="Helvetica,sans-Serif" font-size="10.00" fill="#000000">JS_NewGlobalCConstructorOnly</text>
</a>
</g>
</g>
<!-- Node87459&#45;&gt;Node87489 -->
<g id="edge45" class="edge">
<title>Node87459&#45;&gt;Node87489</title>
<path fill="none" stroke="#191970" d="M62.2905,-313.5656C94.299,-371.3139 191.3855,-546.473 215.1887,-589.4177"/>
<polygon fill="#191970" stroke="#191970" points="65.3246,-311.8199 57.4155,-304.7703 59.2022,-315.2134 65.3246,-311.8199"/>
</g>
<!-- Node87461 -->
<g id="node3" class="node">
<title>Node87461</title>
<g id="a_node3"><a xlink:href="quickjs_8c.html#ad8aedb643b8753b7a15f6cb2df61945e" target="_top" xlink:title="JS_NewContext">
<polygon fill="none" stroke="#000000" points="884,-437.5 884,-456.5 973,-456.5 973,-437.5 884,-437.5"/>
<text text-anchor="middle" x="928.5" y="-444.5" font-family="Helvetica,sans-Serif" font-size="10.00" fill="#000000">JS_NewContext</text>
</a>
</g>
</g>
<!-- Node87460&#45;&gt;Node87461 -->
<g id="edge2" class="edge">
<title>Node87460&#45;&gt;Node87461</title>
<path fill="none" stroke="#191970" d="M656.2319,-671.6927C713.6068,-665.637 793.4236,-649.1569 848,-605 898.2596,-564.3358 920.2315,-484.0661 926.5049,-456.5321"/>
<polygon fill="#191970" stroke="#191970" points="655.764,-668.2216 646.1503,-672.6744 656.4425,-675.1886 655.764,-668.2216"/>
</g>
<!-- Node87462 -->
<g id="node4" class="node">
<title>Node87462</title>
<g id="a_node4"><a xlink:href="classqjs_1_1Context.html#a4392a23648acfc4bf6b445336efb5007" target="_top" xlink:title="qjs::Context::Context">
<polygon fill="none" stroke="#ff0000" points="1009,-437.5 1009,-456.5 1119,-456.5 1119,-437.5 1009,-437.5"/>
<text text-anchor="middle" x="1064" y="-444.5" font-family="Helvetica,sans-Serif" font-size="10.00" fill="#000000">qjs::Context::Context</text>
</a>
</g>
</g>
<!-- Node87461&#45;&gt;Node87462 -->
<g id="edge3" class="edge">
<title>Node87461&#45;&gt;Node87462</title>
<path fill="none" stroke="#191970" d="M983.3476,-447C991.7739,-447 1000.4767,-447 1008.9083,-447"/>
<polygon fill="#191970" stroke="#191970" points="983.2433,-443.5001 973.2433,-447 983.2433,-450.5001 983.2433,-443.5001"/>
</g>
<!-- Node87465&#45;&gt;Node87461 -->
<g id="edge5" class="edge">
<title>Node87465&#45;&gt;Node87461</title>
<path fill="none" stroke="#191970" d="M650.6791,-630.3248C707.3381,-621.8618 789.101,-602.9273 848,-561 887.6742,-532.7579 914.6734,-478.5871 924.4433,-456.6142"/>
<polygon fill="#191970" stroke="#191970" points="650.1616,-626.863 640.7553,-631.7386 651.149,-633.7931 650.1616,-626.863"/>
</g>
<!-- Node87467 -->
<g id="node7" class="node">
<title>Node87467</title>
<g id="a_node7"><a xlink:href="quickjs_8c.html#ac00854b7f1f0f8567af964a2f8f2adb0" target="_top" xlink:title="JS_SetPropertyFunctionList">
<polygon fill="none" stroke="#000000" points="337.5,-361.5 337.5,-380.5 476.5,-380.5 476.5,-361.5 337.5,-361.5"/>
<text text-anchor="middle" x="407" y="-368.5" font-family="Helvetica,sans-Serif" font-size="10.00" fill="#000000">JS_SetPropertyFunctionList</text>
</a>
</g>
</g>
<!-- Node87466&#45;&gt;Node87467 -->
<g id="edge7" class="edge">
<title>Node87466&#45;&gt;Node87467</title>
<path fill="none" stroke="#191970" d="M277.4782,-344.6095C304.0028,-350.014 335.1657,-356.3635 360.2766,-361.4799"/>
<polygon fill="#191970" stroke="#191970" points="278.0593,-341.1561 267.5618,-342.589 276.6617,-348.0151 278.0593,-341.1561"/>
</g>
<!-- Node87467&#45;&gt;Node87460 -->
<g id="edge20" class="edge">
<title>Node87467&#45;&gt;Node87460</title>
<path fill="none" stroke="#191970" d="M408.3045,-390.7162C412.8147,-442.3954 432.2736,-582.8261 513,-656 517.2145,-659.8202 522.1073,-662.8885 527.3206,-665.3506"/>
<polygon fill="#191970" stroke="#191970" points="411.7813,-390.2802 407.5177,-380.5811 404.8023,-390.8221 411.7813,-390.2802"/>
</g>
<!-- Node87467&#45;&gt;Node87465 -->
<g id="edge21" class="edge">
<title>Node87467&#45;&gt;Node87465</title>
<path fill="none" stroke="#191970" d="M414.2156,-390.498C428.9003,-428.56 464.9782,-514.3297 513,-575 529.9948,-596.4711 555.2234,-616.1661 570.8618,-627.3604"/>
<polygon fill="#191970" stroke="#191970" points="417.3164,-388.8032 410.5014,-380.6911 410.7702,-391.2825 417.3164,-388.8032"/>
</g>
<!-- Node87468 -->
<g id="node8" class="node">
<title>Node87468</title>
<g id="a_node8"><a xlink:href="quickjs_8c.html#ae022a327d9fa7079ad2f1d179ba5bdf0" target="_top" xlink:title="JS_AddIntrinsicAtomics">
<polygon fill="none" stroke="#000000" points="524,-513.5 524,-532.5 646,-532.5 646,-513.5 524,-513.5"/>
<text text-anchor="middle" x="585" y="-520.5" font-family="Helvetica,sans-Serif" font-size="10.00" fill="#000000">JS_AddIntrinsicAtomics</text>
</a>
</g>
</g>
<!-- Node87467&#45;&gt;Node87468 -->
<g id="edge8" class="edge">
<title>Node87467&#45;&gt;Node87468</title>
<path fill="none" stroke="#191970" d="M417.4562,-389.2448C434.1879,-416.8739 469.5577,-469.2511 513,-499 522.0233,-505.1791 532.764,-509.8742 543.16,-513.3982"/>
<polygon fill="#191970" stroke="#191970" points="420.4359,-387.4073 412.3326,-380.5818 414.4108,-390.9708 420.4359,-387.4073"/>
</g>
<!-- Node87469 -->
<g id="node9" class="node">
<title>Node87469</title>
<g id="a_node9"><a xlink:href="quickjs_8c.html#a177d09828596bfe6df4bd90b2e93989d" target="_top" xlink:title="JS_AddIntrinsicTypedArrays">
<polygon fill="none" stroke="#000000" points="700,-475.5 700,-494.5 841,-494.5 841,-475.5 700,-475.5"/>
<text text-anchor="middle" x="770.5" y="-482.5" font-family="Helvetica,sans-Serif" font-size="10.00" fill="#000000">JS_AddIntrinsicTypedArrays</text>
</a>
</g>
</g>
<!-- Node87467&#45;&gt;Node87469 -->
<g id="edge26" class="edge">
<title>Node87467&#45;&gt;Node87469</title>
<path fill="none" stroke="#191970" d="M424.3944,-387.5515C444.1854,-405.3449 478.2833,-432.9614 513,-447 573.1171,-471.3099 646.7471,-480.3062 699.8512,-483.5184"/>
<polygon fill="#191970" stroke="#191970" points="426.5588,-384.7871 416.8284,-380.5955 421.8211,-389.9402 426.5588,-384.7871"/>
</g>
<!-- Node87470 -->
<g id="node10" class="node">
<title>Node87470</title>
<g id="a_node10"><a xlink:href="quickjs_8c.html#a4c9489297c684663f30e517204a9ec14" target="_top" xlink:title="JS_AddIntrinsicBaseObjects">
<polygon fill="none" stroke="#000000" points="514,-95.5 514,-114.5 656,-114.5 656,-95.5 514,-95.5"/>
<text text-anchor="middle" x="585" y="-102.5" font-family="Helvetica,sans-Serif" font-size="10.00" fill="#000000">JS_AddIntrinsicBaseObjects</text>
</a>
</g>
</g>
<!-- Node87467&#45;&gt;Node87470 -->
<g id="edge11" class="edge">
<title>Node87467&#45;&gt;Node87470</title>
<path fill="none" stroke="#191970" d="M416.1129,-352.3179C429.8948,-323.8252 456.5953,-267.6819 477,-219 494.4541,-177.3578 479.453,-154.2211 513,-124 517.3223,-120.1062 522.3498,-116.9943 527.701,-114.5096"/>
<polygon fill="#191970" stroke="#191970" points="412.8744,-350.9747 411.6554,-361.4992 419.1715,-354.0319 412.8744,-350.9747"/>
</g>
<!-- Node87471 -->
<g id="node11" class="node">
<title>Node87471</title>
<g id="a_node11"><a xlink:href="quickjs_8c.html#a7efb53c2f76fd5cc0e584449437ec09c" target="_top" xlink:title="JS_AddIntrinsicBasicObjects">
<polygon fill="none" stroke="#ff0000" points="513,-361.5 513,-380.5 657,-380.5 657,-361.5 513,-361.5"/>
<text text-anchor="middle" x="585" y="-368.5" font-family="Helvetica,sans-Serif" font-size="10.00" fill="#000000">JS_AddIntrinsicBasicObjects</text>
</a>
</g>
</g>
<!-- Node87467&#45;&gt;Node87471 -->
<g id="edge13" class="edge">
<title>Node87467&#45;&gt;Node87471</title>
<path fill="none" stroke="#191970" d="M486.7166,-371C495.4119,-371 504.2267,-371 512.8241,-371"/>
<polygon fill="#191970" stroke="#191970" points="486.5842,-367.5001 476.5842,-371 486.5842,-374.5001 486.5842,-367.5001"/>
</g>
<!-- Node87473 -->
<g id="node12" class="node">
<title>Node87473</title>
<g id="a_node12"><a xlink:href="quickjs_8c.html#a8ecbf5799518b7bfc3fefd47c7a0dd4e" target="_top" xlink:title="JS_AddIntrinsicDate">
<polygon fill="none" stroke="#000000" points="531.5,-209.5 531.5,-228.5 638.5,-228.5 638.5,-209.5 531.5,-209.5"/>
<text text-anchor="middle" x="585" y="-216.5" font-family="Helvetica,sans-Serif" font-size="10.00" fill="#000000">JS_AddIntrinsicDate</text>
</a>
</g>
</g>
<!-- Node87467&#45;&gt;Node87473 -->
<g id="edge14" class="edge">
<title>Node87467&#45;&gt;Node87473</title>
<path fill="none" stroke="#191970" d="M424.8092,-354.4327C445.6355,-335.2016 481.3018,-302.709 513,-276 533.3606,-258.8442 557.7967,-239.8148 572.3266,-228.6571"/>
<polygon fill="#191970" stroke="#191970" points="422.3033,-351.983 417.344,-361.3455 427.0594,-357.1191 422.3033,-351.983"/>
</g>
<!-- Node87474 -->
<g id="node13" class="node">
<title>Node87474</title>
<g id="a_node13"><a xlink:href="quickjs_8c.html#ac43d15fc0b5d1b90ae3c92779ab12725" target="_top" xlink:title="JS_AddIntrinsicJSON">
<polygon fill="none" stroke="#000000" points="714,-437.5 714,-456.5 827,-456.5 827,-437.5 714,-437.5"/>
<text text-anchor="middle" x="770.5" y="-444.5" font-family="Helvetica,sans-Serif" font-size="10.00" fill="#000000">JS_AddIntrinsicJSON</text>
</a>
</g>
</g>
<!-- Node87467&#45;&gt;Node87474 -->
<g id="edge16" class="edge">
<title>Node87467&#45;&gt;Node87474</title>
<path fill="none" stroke="#191970" d="M430.8779,-385.8598C451.7271,-398.0499 483.2286,-414.616 513,-423 580.3114,-441.9558 661.0318,-446.7298 713.9299,-447.5619"/>
<polygon fill="#191970" stroke="#191970" points="432.4724,-382.7354 422.0926,-380.6119 428.8827,-388.7449 432.4724,-382.7354"/>
</g>
<!-- Node87475 -->
<g id="node14" class="node">
<title>Node87475</title>
<g id="a_node14"><a xlink:href="quickjs_8c.html#a4497f8c7cf2ec38da989910ae8b1f042" target="_top" xlink:title="JS_AddIntrinsicMapSet">
<polygon fill="none" stroke="#000000" points="525.5,-133.5 525.5,-152.5 644.5,-152.5 644.5,-133.5 525.5,-133.5"/>
<text text-anchor="middle" x="585" y="-140.5" font-family="Helvetica,sans-Serif" font-size="10.00" fill="#000000">JS_AddIntrinsicMapSet</text>
</a>
</g>
</g>
<!-- Node87467&#45;&gt;Node87475 -->
<g id="edge18" class="edge">
<title>Node87467&#45;&gt;Node87475</title>
<path fill="none" stroke="#191970" d="M415.4309,-352.267C437.5456,-303.4561 496.6415,-175.2208 513,-162 517.8263,-158.0995 523.3739,-154.9937 529.2028,-152.5217"/>
<polygon fill="#191970" stroke="#191970" points="412.2291,-350.853 411.3019,-361.4072 418.6084,-353.7349 412.2291,-350.853"/>
</g>
<!-- Node87476 -->
<g id="node15" class="node">
<title>Node87476</title>
<g id="a_node15"><a xlink:href="quickjs_8c.html#aafc8241682ce24b6d72e0f237ee85a51" target="_top" xlink:title="JS_AddIntrinsicRegExp">
<polygon fill="none" stroke="#000000" points="524.5,-171.5 524.5,-190.5 645.5,-190.5 645.5,-171.5 524.5,-171.5"/>
<text text-anchor="middle" x="585" y="-178.5" font-family="Helvetica,sans-Serif" font-size="10.00" fill="#000000">JS_AddIntrinsicRegExp</text>
</a>
</g>
</g>
<!-- Node87467&#45;&gt;Node87476 -->
<g id="edge22" class="edge">
<title>Node87467&#45;&gt;Node87476</title>
<path fill="none" stroke="#191970" d="M413.4285,-351.8293C426.376,-316.2294 459.0519,-239.9112 513,-200 518.1965,-196.1556 524.1097,-193.0881 530.2614,-190.6408"/>
<polygon fill="#191970" stroke="#191970" points="410.049,-350.89 410.042,-361.4849 416.6545,-353.2068 410.049,-350.89"/>
</g>
<!-- Node87477 -->
<g id="node16" class="node">
<title>Node87477</title>
<g id="a_node16"><a xlink:href="quickjs_8c.html#abd9525850b564b2c2d2cb6ddfd89b1c6" target="_top" xlink:title="JS_AddIntrinsicStringNormalize">
<polygon fill="none" stroke="#000000" points="693,-532.5 693,-551.5 848,-551.5 848,-532.5 693,-532.5"/>
<text text-anchor="middle" x="770.5" y="-539.5" font-family="Helvetica,sans-Serif" font-size="10.00" fill="#000000">JS_AddIntrinsicStringNormalize</text>
</a>
</g>
</g>
<!-- Node87467&#45;&gt;Node87477 -->
<g id="edge24" class="edge">
<title>Node87467&#45;&gt;Node87477</title>
<path fill="none" stroke="#191970" d="M412.2462,-390.5114C423.491,-427.9486 453.8353,-509.0653 513,-542 584.6765,-581.8995 685.9009,-564.5993 737.4863,-551.6003"/>
<polygon fill="#191970" stroke="#191970" points="415.5807,-389.4417 409.4652,-380.79 408.8506,-391.367 415.5807,-389.4417"/>
</g>
<!-- Node87467&#45;&gt;Node87478 -->
<g id="edge27" class="edge">
<title>Node87467&#45;&gt;Node87478</title>
<path fill="none" stroke="#191970" d="M437.812,-384.3138C488.02,-403.7659 588.7242,-433.2071 657,-390 688.5828,-370.0134 664.0419,-337.6298 693,-314 706.524,-302.9644 725.5096,-298.1893 741.3043,-296.1853"/>
<polygon fill="#191970" stroke="#191970" points="439.0532,-381.0407 428.4683,-380.581 436.4562,-387.5412 439.0532,-381.0407"/>
</g>
<!-- Node87480 -->
<g id="node18" class="node">
<title>Node87480</title>
<g id="a_node18"><a xlink:href="quickjs_8c.html#a04f1ec3f8d1f5c012280eb23e64a7b58" target="_top" xlink:title="JS_SetModuleExportList">
<polygon fill="none" stroke="#000000" points="522.5,-285.5 522.5,-304.5 647.5,-304.5 647.5,-285.5 522.5,-285.5"/>
<text text-anchor="middle" x="585" y="-292.5" font-family="Helvetica,sans-Serif" font-size="10.00" fill="#000000">JS_SetModuleExportList</text>
</a>
</g>
</g>
<!-- Node87467&#45;&gt;Node87480 -->
<g id="edge28" class="edge">
<title>Node87467&#45;&gt;Node87480</title>
<path fill="none" stroke="#191970" d="M433.6916,-356.6625C454.8559,-345.5997 485.3672,-330.3234 513,-319 525.9237,-313.7041 540.4892,-308.6791 553.1212,-304.6087"/>
<polygon fill="#191970" stroke="#191970" points="431.8825,-353.6596 424.6691,-361.4196 435.1473,-359.8517 431.8825,-353.6596"/>
</g>
<!-- Node87481 -->
<g id="node19" class="node">
<title>Node87481</title>
<g id="a_node19"><a xlink:href="quickjs-libc_8c.html#a08cea1a0226b7603e6969e2208d99d55" target="_top" xlink:title="js_std_init">
<polygon fill="none" stroke="#ff0000" points="740,-323.5 740,-342.5 801,-342.5 801,-323.5 740,-323.5"/>
<text text-anchor="middle" x="770.5" y="-330.5" font-family="Helvetica,sans-Serif" font-size="10.00" fill="#000000">js_std_init</text>
</a>
</g>
</g>
<!-- Node87467&#45;&gt;Node87481 -->
<g id="edge31" class="edge">
<title>Node87467&#45;&gt;Node87481</title>
<path fill="none" stroke="#191970" d="M464.199,-359.6272C479.9619,-356.7993 497.0993,-354.0062 513,-352 594.6094,-341.7033 691.527,-336.4057 739.8763,-334.231"/>
<polygon fill="#191970" stroke="#191970" points="463.2718,-356.2387 454.0658,-361.4828 464.5327,-363.1243 463.2718,-356.2387"/>
</g>
<!-- Node87468&#45;&gt;Node87469 -->
<g id="edge9" class="edge">
<title>Node87468&#45;&gt;Node87469</title>
<path fill="none" stroke="#191970" d="M641.6727,-511.3905C668.0551,-505.986 699.0509,-499.6365 724.0271,-494.5201"/>
<polygon fill="#191970" stroke="#191970" points="640.9036,-507.9753 631.8095,-513.411 642.3085,-514.8329 640.9036,-507.9753"/>
</g>
<!-- Node87469&#45;&gt;Node87461 -->
<g id="edge10" class="edge">
<title>Node87469&#45;&gt;Node87461</title>
<path fill="none" stroke="#191970" d="M820.2616,-473.032C842.4029,-467.7069 868.1116,-461.5238 888.9166,-456.5201"/>
<polygon fill="#191970" stroke="#191970" points="819.2744,-469.6696 810.3701,-475.411 820.9113,-476.4755 819.2744,-469.6696"/>
</g>
<!-- Node87470&#45;&gt;Node87461 -->
<g id="edge12" class="edge">
<title>Node87470&#45;&gt;Node87461</title>
<path fill="none" stroke="#191970" d="M631.7387,-93.4554C689.548,-82.1778 787.6858,-73.2669 848,-124 898.3075,-166.316 922.7752,-388.5072 927.5995,-437.455"/>
<polygon fill="#191970" stroke="#191970" points="630.8708,-90.0605 621.7789,-95.4999 632.2785,-96.9175 630.8708,-90.0605"/>
</g>
<!-- Node87473&#45;&gt;Node87461 -->
<g id="edge15" class="edge">
<title>Node87473&#45;&gt;Node87461</title>
<path fill="none" stroke="#191970" d="M648.8446,-217.5541C706.6746,-219.4991 791.2678,-230.8575 848,-276 902.433,-319.313 921.9175,-408.1591 927.0073,-437.4205"/>
<polygon fill="#191970" stroke="#191970" points="648.814,-214.0523 638.7293,-217.3003 648.6384,-221.0501 648.814,-214.0523"/>
</g>
<!-- Node87474&#45;&gt;Node87461 -->
<g id="edge17" class="edge">
<title>Node87474&#45;&gt;Node87461</title>
<path fill="none" stroke="#191970" d="M837.3164,-447C853.0562,-447 869.4572,-447 883.9386,-447"/>
<polygon fill="#191970" stroke="#191970" points="837.0954,-443.5001 827.0954,-447 837.0953,-450.5001 837.0954,-443.5001"/>
</g>
<!-- Node87475&#45;&gt;Node87461 -->
<g id="edge19" class="edge">
<title>Node87475&#45;&gt;Node87461</title>
<path fill="none" stroke="#191970" d="M640.9263,-131.8979C699.374,-123.7209 790.4273,-121.1203 848,-169 891.4618,-205.1445 920.7102,-392.5021 927.1565,-437.3478"/>
<polygon fill="#191970" stroke="#191970" points="640.1359,-128.4772 630.7654,-133.4214 641.1739,-135.3998 640.1359,-128.4772"/>
</g>
<!-- Node87476&#45;&gt;Node87461 -->
<g id="edge23" class="edge">
<title>Node87476&#45;&gt;Node87461</title>
<path fill="none" stroke="#191970" d="M655.9527,-171.8747C713.892,-168.4496 794.6397,-173.3994 848,-217 884.3638,-246.7128 918.1963,-397.8557 926.5416,-437.4789"/>
<polygon fill="#191970" stroke="#191970" points="655.5099,-168.3968 645.774,-172.5757 655.9909,-175.3803 655.5099,-168.3968"/>
</g>
<!-- Node87477&#45;&gt;Node87461 -->
<g id="edge25" class="edge">
<title>Node87477&#45;&gt;Node87461</title>
<path fill="none" stroke="#191970" d="M801.8134,-528.0477C816.1701,-521.2979 833.2402,-512.7674 848,-504 873.3234,-488.9578 900.9575,-468.3978 916.3659,-456.5249"/>
<polygon fill="#191970" stroke="#191970" points="799.9754,-525.0416 792.3694,-532.4172 802.9148,-531.3946 799.9754,-525.0416"/>
</g>
<!-- Node87480&#45;&gt;Node87478 -->
<g id="edge29" class="edge">
<title>Node87480&#45;&gt;Node87478</title>
<path fill="none" stroke="#191970" d="M657.7505,-295C686.994,-295 719.0224,-295 741.4447,-295"/>
<polygon fill="#191970" stroke="#191970" points="657.5433,-291.5001 647.5432,-295 657.5432,-298.5001 657.5433,-291.5001"/>
</g>
<!-- Node87480&#45;&gt;Node87481 -->
<g id="edge30" class="edge">
<title>Node87480&#45;&gt;Node87481</title>
<path fill="none" stroke="#191970" d="M641.6157,-306.5978C674.0047,-313.2328 713.3621,-321.2952 739.9983,-326.7517"/>
<polygon fill="#191970" stroke="#191970" points="642.3085,-303.1671 631.8095,-304.589 640.9036,-310.0247 642.3085,-303.1671"/>
</g>
<!-- Node87483&#45;&gt;Node87469 -->
<g id="edge37" class="edge">
<title>Node87483&#45;&gt;Node87469</title>
<path fill="none" stroke="#191970" d="M443.6885,-68.3558C497.9309,-52.2481 599.3097,-32.4529 657,-86 719.1695,-143.7046 637.5546,-401.8076 693,-466 696.2599,-469.7742 700.1356,-472.8627 704.3894,-475.3836"/>
<polygon fill="#191970" stroke="#191970" points="442.3358,-65.1103 433.8126,-71.4036 444.4,-71.799 442.3358,-65.1103"/>
</g>
<!-- Node87483&#45;&gt;Node87470 -->
<g id="edge36" class="edge">
<title>Node87483&#45;&gt;Node87470</title>
<path fill="none" stroke="#191970" d="M466.9068,-89.0773C482.1512,-91.1327 498.6751,-93.3607 514.398,-95.4806"/>
<polygon fill="#191970" stroke="#191970" points="466.961,-85.553 456.5829,-87.6853 466.0255,-92.4903 466.961,-85.553"/>
</g>
<!-- Node87484 -->
<g id="node21" class="node">
<title>Node87484</title>
<g id="a_node21"><a xlink:href="quickjs-libc_8c.html#ad04466feec6822a3b838baf229f6dfa0" target="_top" xlink:title="js_std_add_helpers">
<polygon fill="none" stroke="#000000" points="534.5,-19.5 534.5,-38.5 635.5,-38.5 635.5,-19.5 534.5,-19.5"/>
<text text-anchor="middle" x="585" y="-26.5" font-family="Helvetica,sans-Serif" font-size="10.00" fill="#000000">js_std_add_helpers</text>
</a>
</g>
</g>
<!-- Node87483&#45;&gt;Node87484 -->
<g id="edge33" class="edge">
<title>Node87483&#45;&gt;Node87484</title>
<path fill="none" stroke="#191970" d="M449.4699,-68.5931C480.9886,-59.3854 523.339,-47.0133 552.2581,-38.565"/>
<polygon fill="#191970" stroke="#191970" points="448.2653,-65.2986 439.6479,-71.4624 450.2282,-72.0178 448.2653,-65.2986"/>
</g>
<!-- Node87464 -->
<g id="node22" class="node">
<title>Node87464</title>
<g id="a_node22"><a xlink:href="qjs_8cpp.html#a3c04138a5bfe5d72780bb7e82a18e627" target="_top" xlink:title="main">
<polygon fill="none" stroke="#000000" points="751.5,-.5 751.5,-19.5 789.5,-19.5 789.5,-.5 751.5,-.5"/>
<text text-anchor="middle" x="770.5" y="-7.5" font-family="Helvetica,sans-Serif" font-size="10.00" fill="#000000">main</text>
</a>
</g>
</g>
<!-- Node87484&#45;&gt;Node87464 -->
<g id="edge34" class="edge">
<title>Node87484&#45;&gt;Node87464</title>
<path fill="none" stroke="#191970" d="M645.7793,-22.7746C682.3444,-19.0294 726.463,-14.5105 751.2167,-11.9751"/>
<polygon fill="#191970" stroke="#191970" points="645.28,-19.3074 635.6887,-23.8082 645.9933,-26.2709 645.28,-19.3074"/>
</g>
<!-- Node87485 -->
<g id="node23" class="node">
<title>Node87485</title>
<g id="a_node23"><a xlink:href="quickjs-libc_8c.html#a1fbb3adc15e7b967479fc1940e99b67a" target="_top" xlink:title="worker_func">
<polygon fill="none" stroke="#ff0000" points="735.5,-38.5 735.5,-57.5 805.5,-57.5 805.5,-38.5 735.5,-38.5"/>
<text text-anchor="middle" x="770.5" y="-45.5" font-family="Helvetica,sans-Serif" font-size="10.00" fill="#000000">worker_func</text>
</a>
</g>
</g>
<!-- Node87484&#45;&gt;Node87485 -->
<g id="edge35" class="edge">
<title>Node87484&#45;&gt;Node87485</title>
<path fill="none" stroke="#191970" d="M645.9545,-35.2433C675.6263,-38.2825 710.2373,-41.8275 735.4317,-44.4081"/>
<polygon fill="#191970" stroke="#191970" points="645.9933,-31.7291 635.6887,-34.1918 645.28,-38.6926 645.9933,-31.7291"/>
</g>
<!-- Node87487&#45;&gt;Node87470 -->
<g id="edge40" class="edge">
<title>Node87487&#45;&gt;Node87470</title>
<path fill="none" stroke="#191970" d="M461.7162,-131.319C486.959,-125.9301 516.5452,-119.6139 540.4061,-114.5201"/>
<polygon fill="#191970" stroke="#191970" points="460.9658,-127.9003 451.9169,-133.411 462.4273,-134.746 460.9658,-127.9003"/>
</g>
<!-- Node87487&#45;&gt;Node87475 -->
<g id="edge39" class="edge">
<title>Node87487&#45;&gt;Node87475</title>
<path fill="none" stroke="#191970" d="M479.8526,-143C494.9789,-143 510.749,-143 525.3355,-143"/>
<polygon fill="#191970" stroke="#191970" points="479.5059,-139.5001 469.5058,-143 479.5058,-146.5001 479.5059,-139.5001"/>
</g>
<!-- Node87488&#45;&gt;Node87470 -->
<g id="edge42" class="edge">
<title>Node87488&#45;&gt;Node87470</title>
<path fill="none" stroke="#191970" d="M437.8508,-185.9119C450.5353,-179.4578 465.0268,-171.1946 477,-162 495.4515,-147.8304 492.9889,-135.8654 513,-124 519.5608,-120.1098 526.9219,-117.0035 534.3658,-114.5265"/>
<polygon fill="#191970" stroke="#191970" points="435.9995,-182.9222 428.5748,-190.4802 439.0922,-189.2019 435.9995,-182.9222"/>
</g>
<!-- Node87488&#45;&gt;Node87473 -->
<g id="edge43" class="edge">
<title>Node87488&#45;&gt;Node87473</title>
<path fill="none" stroke="#191970" d="M487.3678,-208.5786C502.3125,-210.1738 517.585,-211.804 531.4782,-213.287"/>
<polygon fill="#191970" stroke="#191970" points="487.4098,-205.0633 477.0948,-207.482 486.6668,-212.0237 487.4098,-205.0633"/>
</g>
<!-- Node87488&#45;&gt;Node87476 -->
<g id="edge44" class="edge">
<title>Node87488&#45;&gt;Node87476</title>
<path fill="none" stroke="#191970" d="M487.0967,-191.4504C499.6561,-190.1097 512.4545,-188.7436 524.4778,-187.4602"/>
<polygon fill="#191970" stroke="#191970" points="486.6668,-187.9763 477.0948,-192.518 487.4098,-194.9367 486.6668,-187.9763"/>
</g>
<!-- Node87489&#45;&gt;Node87469 -->
<g id="edge46" class="edge">
<title>Node87489&#45;&gt;Node87469</title>
<path fill="none" stroke="#191970" d="M311.3434,-596.4935C401.0744,-591.8608 541.283,-578.7787 657,-542 674.2418,-536.52 676.8762,-531.2055 693,-523 712.4987,-513.077 734.964,-502.1126 750.6701,-494.5223"/>
<polygon fill="#191970" stroke="#191970" points="311.014,-593.0054 301.198,-596.9924 311.3579,-599.997 311.014,-593.0054"/>
</g>
</g>
</svg>
