<?xml version="1.0" encoding="UTF-8" standalone="no"?>
<!DOCTYPE svg PUBLIC "-//W3C//DTD SVG 1.1//EN"
 "http://www.w3.org/Graphics/SVG/1.1/DTD/svg11.dtd">
<!-- Generated by graphviz version 2.40.1 (20161225.0304)
 -->
<!-- Title: JS_ThrowReferenceErrorUninitialized2 Pages: 1 -->
<svg width="666pt" height="28pt"
 viewBox="0.00 0.00 666.00 28.00" xmlns="http://www.w3.org/2000/svg" xmlns:xlink="http://www.w3.org/1999/xlink">
<g id="graph0" class="graph" transform="scale(1 1) rotate(0) translate(4 24)">
<title>JS_ThrowReferenceErrorUninitialized2</title>
<!-- Node173353 -->
<g id="node1" class="node">
<title>Node173353</title>
<polygon fill="#bfbfbf" stroke="#000000" points="0,-.5 0,-19.5 185,-19.5 185,-.5 0,-.5"/>
<text text-anchor="middle" x="92.5" y="-7.5" font-family="Helvetica,sans-Serif" font-size="10.00" fill="#000000">JS_ThrowReferenceErrorUninitialized2</text>
</g>
<!-- Node173354 -->
<g id="node2" class="node">
<title>Node173354</title>
<g id="a_node2"><a xlink:href="quickjs_8c.html#a75ac132a3af4de01e1fadeb0bede6ee7" target="_top" xlink:title="JS_ThrowReferenceErrorUninitialized">
<polygon fill="none" stroke="#000000" points="221,-.5 221,-19.5 401,-19.5 401,-.5 221,-.5"/>
<text text-anchor="middle" x="311" y="-7.5" font-family="Helvetica,sans-Serif" font-size="10.00" fill="#000000">JS_ThrowReferenceErrorUninitialized</text>
</a>
</g>
</g>
<!-- Node173353&#45;&gt;Node173354 -->
<g id="edge1" class="edge">
<title>Node173353&#45;&gt;Node173354</title>
<path fill="none" stroke="#191970" d="M185.1637,-10C193.6909,-10 202.3561,-10 210.9449,-10"/>
<polygon fill="#191970" stroke="#191970" points="210.9797,-13.5001 220.9796,-10 210.9796,-6.5001 210.9797,-13.5001"/>
</g>
<!-- Node173355 -->
<g id="node3" class="node">
<title>Node173355</title>
<g id="a_node3"><a xlink:href="quickjs_8c.html#ab18048ab5eea3e47109a5473f78515bc" target="_top" xlink:title="JS_AtomGetStr">
<polygon fill="none" stroke="#000000" points="437,-.5 437,-19.5 523,-19.5 523,-.5 437,-.5"/>
<text text-anchor="middle" x="480" y="-7.5" font-family="Helvetica,sans-Serif" font-size="10.00" fill="#000000">JS_AtomGetStr</text>
</a>
</g>
</g>
<!-- Node173354&#45;&gt;Node173355 -->
<g id="edge2" class="edge">
<title>Node173354&#45;&gt;Node173355</title>
<path fill="none" stroke="#191970" d="M401.4371,-10C409.9495,-10 418.3813,-10 426.3844,-10"/>
<polygon fill="#191970" stroke="#191970" points="426.6292,-13.5001 436.6292,-10 426.6292,-6.5001 426.6292,-13.5001"/>
</g>
<!-- Node173356 -->
<g id="node4" class="node">
<title>Node173356</title>
<g id="a_node4"><a xlink:href="quickjs_8c.html#a4e63c63058f1efe20ee939c165f7b3ad" target="_top" xlink:title="JS_AtomGetStrRT">
<polygon fill="none" stroke="#ff0000" points="559,-.5 559,-19.5 658,-19.5 658,-.5 559,-.5"/>
<text text-anchor="middle" x="608.5" y="-7.5" font-family="Helvetica,sans-Serif" font-size="10.00" fill="#000000">JS_AtomGetStrRT</text>
</a>
</g>
</g>
<!-- Node173355&#45;&gt;Node173356 -->
<g id="edge3" class="edge">
<title>Node173355&#45;&gt;Node173356</title>
<path fill="none" stroke="#191970" d="M523.1461,-10C531.2324,-10 539.8205,-10 548.3134,-10"/>
<polygon fill="#191970" stroke="#191970" points="548.5858,-13.5001 558.5858,-10 548.5857,-6.5001 548.5858,-13.5001"/>
</g>
</g>
</svg>
