<?xml version="1.0" encoding="UTF-8" standalone="no"?>
<!DOCTYPE svg PUBLIC "-//W3C//DTD SVG 1.1//EN"
 "http://www.w3.org/Graphics/SVG/1.1/DTD/svg11.dtd">
<!-- Generated by graphviz version 2.40.1 (20161225.0304)
 -->
<!-- Title: __attribute__ Pages: 1 -->
<!--zoomable 979 -->
<svg id="main" version="1.1" xmlns="http://www.w3.org/2000/svg" xmlns:xlink="http://www.w3.org/1999/xlink" xml:space="preserve" onload="init(evt)">
<style type="text/css"><![CDATA[
.edge:hover path { stroke: red; }
.edge:hover polygon { stroke: red; fill: red; }
]]></style>
<script type="text/javascript"><![CDATA[
var edges = document.getElementsByTagName('g');
if (edges && edges.length) {
  for (var i=0;i<edges.length;i++) {
    if (edges[i].id.substr(0,4)=='edge') {
      edges[i].setAttribute('class','edge');
    }
  }
}
]]></script>
        <defs>
                <circle id="rim" cx="0" cy="0" r="7"/>
                <circle id="rim2" cx="0" cy="0" r="3.5"/>
                <g id="zoomPlus">
                        <use xlink:href="#rim" fill="#404040">
                                <set attributeName="fill" to="#808080" begin="zoomplus.mouseover" end="zoomplus.mouseout"/>
                        </use>
                        <path d="M-4,0h8M0,-4v8" fill="none" stroke="white" stroke-width="1.5" pointer-events="none"/>
                </g>
                <g id="zoomMin">
                        <use xlink:href="#rim" fill="#404040">
                                <set attributeName="fill" to="#808080" begin="zoomminus.mouseover" end="zoomminus.mouseout"/>
                        </use>
                        <path d="M-4,0h8" fill="none" stroke="white" stroke-width="1.5" pointer-events="none"/>
                </g>
                <g id="dirArrow">
                        <path fill="none" stroke="white" stroke-width="1.5" d="M0,-3.0v7 M-2.5,-0.5L0,-3.0L2.5,-0.5"/>
                </g>
               <g id="resetDef">
                       <use xlink:href="#rim2" fill="#404040">
                               <set attributeName="fill" to="#808080" begin="reset.mouseover" end="reset.mouseout"/>
                       </use>
               </g>
        </defs>

<script type="text/javascript">
var viewWidth = 699;
var viewHeight = 979;
var sectionId = 'dynsection-24';
</script>
<script xlink:href="svgpan.js"/>
<svg id="graph" class="graph">
<g id="viewport">
<title>__attribute__</title>
<!-- Node8203 -->
<g id="node1" class="node">
<title>Node8203</title>
<polygon fill="#bfbfbf" stroke="#000000" points="0,-383.5 0,-402.5 73,-402.5 73,-383.5 0,-383.5"/>
<text text-anchor="middle" x="36.5" y="-390.5" font-family="Helvetica,sans-Serif" font-size="10.00" fill="#000000">__attribute__</text>
</g>
<!-- Node8204 -->
<g id="node2" class="node">
<title>Node8204</title>
<g id="a_node2"><a xlink:href="quickjs_8c.html#a9d376a5d1dfcd4a3a0c901bb62e2ff96" target="_top" xlink:title="__js_poll_interrupts">
<polygon fill="none" stroke="#000000" points="121,-900.5 121,-919.5 222,-919.5 222,-900.5 121,-900.5"/>
<text text-anchor="middle" x="171.5" y="-907.5" font-family="Helvetica,sans-Serif" font-size="10.00" fill="#000000">__js_poll_interrupts</text>
</a>
</g>
</g>
<!-- Node8203&#45;&gt;Node8204 -->
<g id="edge1" class="edge">
<title>Node8203&#45;&gt;Node8204</title>
<path fill="none" stroke="#191970" d="M37.1444,-413.2336C40.1022,-495.0107 54.6593,-800.3726 109,-877 116.5948,-887.7096 128.7594,-895.2317 140.347,-900.3599"/>
<polygon fill="#191970" stroke="#191970" points="40.629,-412.7187 36.7889,-402.8443 33.6331,-412.9582 40.629,-412.7187"/>
</g>
<!-- Node8209 -->
<g id="node4" class="node">
<title>Node8209</title>
<g id="a_node4"><a xlink:href="quickjs_8c.html#ac2894ff4edcdb4e6841bcce9c76081e3" target="_top" xlink:title="JS_CallInternal">
<polygon fill="none" stroke="#ff0000" points="434,-885.5 434,-904.5 517,-904.5 517,-885.5 434,-885.5"/>
<text text-anchor="middle" x="475.5" y="-892.5" font-family="Helvetica,sans-Serif" font-size="10.00" fill="#000000">JS_CallInternal</text>
</a>
</g>
</g>
<!-- Node8203&#45;&gt;Node8209 -->
<g id="edge25" class="edge">
<title>Node8203&#45;&gt;Node8209</title>
<path fill="none" stroke="#191970" d="M37.6928,-412.9874C43.4422,-506.0345 69.6412,-893.7349 109,-929 211.086,-1020.468 399.4034,-934.7856 457.7767,-904.602"/>
<polygon fill="#191970" stroke="#191970" points="41.1818,-412.6983 37.0806,-402.9295 34.1947,-413.1237 41.1818,-412.6983"/>
</g>
<!-- Node8816 -->
<g id="node5" class="node">
<title>Node8816</title>
<g id="a_node5"><a xlink:href="quickjs_8c.html#aff573513d994f4e9ad7b0430c03ddc3d" target="_top" xlink:title="add_arg">
<polygon fill="none" stroke="#000000" points="450,-715.5 450,-734.5 501,-734.5 501,-715.5 450,-715.5"/>
<text text-anchor="middle" x="475.5" y="-722.5" font-family="Helvetica,sans-Serif" font-size="10.00" fill="#000000">add_arg</text>
</a>
</g>
</g>
<!-- Node8203&#45;&gt;Node8816 -->
<g id="edge5" class="edge">
<title>Node8203&#45;&gt;Node8816</title>
<path fill="none" stroke="#191970" d="M40.0699,-412.6734C47.6378,-450.3348 68.0568,-534.0218 109,-592 162.5391,-667.8148 182.6626,-693.5913 270,-725 331.437,-747.0943 410.0491,-737.6006 449.8869,-730.3897"/>
<polygon fill="#191970" stroke="#191970" points="43.4477,-411.7033 38.1253,-402.5424 36.5732,-413.0229 43.4477,-411.7033"/>
</g>
<!-- Node8817 -->
<g id="node7" class="node">
<title>Node8817</title>
<g id="a_node7"><a xlink:href="quickjs_8c.html#a9f64fb61a20cee1cad0eb2680624e341" target="_top" xlink:title="add_closure_var">
<polygon fill="none" stroke="#000000" points="127.5,-440.5 127.5,-459.5 215.5,-459.5 215.5,-440.5 127.5,-440.5"/>
<text text-anchor="middle" x="171.5" y="-447.5" font-family="Helvetica,sans-Serif" font-size="10.00" fill="#000000">add_closure_var</text>
</a>
</g>
</g>
<!-- Node8203&#45;&gt;Node8817 -->
<g id="edge7" class="edge">
<title>Node8203&#45;&gt;Node8817</title>
<path fill="none" stroke="#191970" d="M66.1056,-406.9654C79.1749,-413.0031 94.7709,-420.0361 109,-426 120.8989,-430.9872 134.2294,-436.1617 145.513,-440.4234"/>
<polygon fill="#191970" stroke="#191970" points="67.2119,-403.6199 56.6685,-402.5765 64.26,-409.9671 67.2119,-403.6199"/>
</g>
<!-- Node8823 -->
<g id="node9" class="node">
<title>Node8823</title>
<g id="a_node9"><a xlink:href="quickjs_8c.html#ab2e0855c4317f8e3b05c0a091bc43a29" target="_top" xlink:title="add_var">
<polygon fill="none" stroke="#ff0000" points="146,-563.5 146,-582.5 197,-582.5 197,-563.5 146,-563.5"/>
<text text-anchor="middle" x="171.5" y="-570.5" font-family="Helvetica,sans-Serif" font-size="10.00" fill="#000000">add_var</text>
</a>
</g>
</g>
<!-- Node8203&#45;&gt;Node8823 -->
<g id="edge10" class="edge">
<title>Node8203&#45;&gt;Node8823</title>
<path fill="none" stroke="#191970" d="M47.6196,-411.3131C61.2678,-433.398 85.5022,-471.3695 109,-502 126.592,-524.932 149.536,-549.8911 162.158,-563.2511"/>
<polygon fill="#191970" stroke="#191970" points="50.5044,-409.3222 42.2927,-402.6275 44.5373,-412.9819 50.5044,-409.3222"/>
</g>
<!-- Node8833 -->
<g id="node16" class="node">
<title>Node8833</title>
<g id="a_node16"><a xlink:href="quickjs_8c.html#a8cdae63a2cea1f6df8105adc6e2d03d0" target="_top" xlink:title="compute_stack_size">
<polygon fill="none" stroke="#ff0000" points="272.5,-336.5 272.5,-355.5 379.5,-355.5 379.5,-336.5 272.5,-336.5"/>
<text text-anchor="middle" x="326" y="-343.5" font-family="Helvetica,sans-Serif" font-size="10.00" fill="#000000">compute_stack_size</text>
</a>
</g>
</g>
<!-- Node8203&#45;&gt;Node8833 -->
<g id="edge22" class="edge">
<title>Node8203&#45;&gt;Node8833</title>
<path fill="none" stroke="#191970" d="M83.3059,-401.3629C124.2328,-406.7382 184.6675,-409.9264 234,-393 253.1726,-386.4217 252.1543,-374.6122 270,-365 276.7791,-361.3486 284.3926,-358.2059 291.7697,-355.5872"/>
<polygon fill="#191970" stroke="#191970" points="83.7299,-397.8882 73.3397,-399.9601 82.7542,-404.8199 83.7299,-397.8882"/>
</g>
<!-- Node8238 -->
<g id="node17" class="node">
<title>Node8238</title>
<g id="a_node17"><a xlink:href="quickjs_8c.html#a43208b0746998d2b6b9b8bd1ef8b5f99" target="_top" xlink:title="js_append_enumerate">
<polygon fill="none" stroke="#000000" points="270,-866.5 270,-885.5 382,-885.5 382,-866.5 270,-866.5"/>
<text text-anchor="middle" x="326" y="-873.5" font-family="Helvetica,sans-Serif" font-size="10.00" fill="#000000">js_append_enumerate</text>
</a>
</g>
</g>
<!-- Node8203&#45;&gt;Node8238 -->
<g id="edge23" class="edge">
<title>Node8203&#45;&gt;Node8238</title>
<path fill="none" stroke="#191970" d="M36.7878,-413.1339C38.3447,-491.8809 48.1649,-777.6924 109,-839 150.4553,-880.7772 220.5621,-885.6807 269.8473,-882.9559"/>
<polygon fill="#191970" stroke="#191970" points="40.2799,-412.6399 36.6076,-402.7019 33.281,-412.7609 40.2799,-412.6399"/>
</g>
<!-- Node8834 -->
<g id="node18" class="node">
<title>Node8834</title>
<g id="a_node18"><a xlink:href="quickjs_8c.html#aa864584f81729321ec9d527d6362c633" target="_top" xlink:title="JS_ConcatString1">
<polygon fill="none" stroke="#ff0000" points="123.5,-326.5 123.5,-345.5 219.5,-345.5 219.5,-326.5 123.5,-326.5"/>
<text text-anchor="middle" x="171.5" y="-333.5" font-family="Helvetica,sans-Serif" font-size="10.00" fill="#000000">JS_ConcatString1</text>
</a>
</g>
</g>
<!-- Node8203&#45;&gt;Node8834 -->
<g id="edge26" class="edge">
<title>Node8203&#45;&gt;Node8834</title>
<path fill="none" stroke="#191970" d="M61.3396,-378.4972C75.0869,-370.8527 92.6535,-361.6992 109,-355 117.605,-351.4735 127.11,-348.2567 136.0554,-345.5131"/>
<polygon fill="#191970" stroke="#191970" points="59.4757,-375.5303 52.4944,-383.4998 62.9218,-381.6234 59.4757,-375.5303"/>
</g>
<!-- Node8835 -->
<g id="node19" class="node">
<title>Node8835</title>
<g id="a_node19"><a xlink:href="quickjs_8c.html#ac34cc554aab1e98c45a7f845fff64385" target="_top" xlink:title="JS_NewStringLen">
<polygon fill="none" stroke="#ff0000" points="124,-288.5 124,-307.5 219,-307.5 219,-288.5 124,-288.5"/>
<text text-anchor="middle" x="171.5" y="-295.5" font-family="Helvetica,sans-Serif" font-size="10.00" fill="#000000">JS_NewStringLen</text>
</a>
</g>
</g>
<!-- Node8203&#45;&gt;Node8835 -->
<g id="edge27" class="edge">
<title>Node8203&#45;&gt;Node8835</title>
<path fill="none" stroke="#191970" d="M49.1457,-375.1626C62.2575,-357.9184 84.2754,-332.2284 109,-317 115.1801,-313.1936 122.1764,-310.1029 129.1945,-307.6079"/>
<polygon fill="#191970" stroke="#191970" points="46.2549,-373.1854 43.1338,-383.3101 51.8875,-377.3417 46.2549,-373.1854"/>
</g>
<!-- Node8416 -->
<g id="node20" class="node">
<title>Node8416</title>
<g id="a_node20"><a xlink:href="quickjs_8c.html#a26be546cf89c4580ba9020e8fc43a759" target="_top" xlink:title="js_parse_destructuring\l_element">
<polygon fill="none" stroke="#ff0000" points="418,-401 418,-431 533,-431 533,-401 418,-401"/>
<text text-anchor="start" x="426" y="-419" font-family="Helvetica,sans-Serif" font-size="10.00" fill="#000000">js_parse_destructuring</text>
<text text-anchor="middle" x="475.5" y="-408" font-family="Helvetica,sans-Serif" font-size="10.00" fill="#000000">_element</text>
</a>
</g>
</g>
<!-- Node8203&#45;&gt;Node8416 -->
<g id="edge28" class="edge">
<title>Node8203&#45;&gt;Node8416</title>
<path fill="none" stroke="#191970" d="M47.3447,-411.037C59.6484,-429.5561 81.609,-457.2743 109,-469 160.0726,-490.8634 178.7682,-474.9894 234,-469 268.9933,-465.2053 358.2631,-444.5213 417.9064,-430.1448"/>
<polygon fill="#191970" stroke="#191970" points="50.2743,-409.1213 41.9558,-402.5598 44.3668,-412.8766 50.2743,-409.1213"/>
</g>
<!-- Node8349 -->
<g id="node21" class="node">
<title>Node8349</title>
<g id="a_node21"><a xlink:href="quickjs_8c.html#a9eb2d90f27f684820f9de13189502b7c" target="_top" xlink:title="js_regexp_exec">
<polygon fill="none" stroke="#ff0000" points="129,-250.5 129,-269.5 214,-269.5 214,-250.5 129,-250.5"/>
<text text-anchor="middle" x="171.5" y="-257.5" font-family="Helvetica,sans-Serif" font-size="10.00" fill="#000000">js_regexp_exec</text>
</a>
</g>
</g>
<!-- Node8203&#45;&gt;Node8349 -->
<g id="edge32" class="edge">
<title>Node8203&#45;&gt;Node8349</title>
<path fill="none" stroke="#191970" d="M43.7078,-373.822C54.2201,-348.4283 76.1538,-303.9562 109,-279 114.8696,-274.5403 121.7879,-271.1204 128.8438,-268.4998"/>
<polygon fill="#191970" stroke="#191970" points="40.3329,-372.8384 39.9033,-383.4245 46.8407,-375.4168 40.3329,-372.8384"/>
</g>
<!-- Node8355 -->
<g id="node22" class="node">
<title>Node8355</title>
<g id="a_node22"><a xlink:href="quickjs_8c.html#a14fa3c10f581e1cd38b349913f47fb43" target="_top" xlink:title="JS_RegExpDelete">
<polygon fill="none" stroke="#ff0000" points="122.5,-212.5 122.5,-231.5 220.5,-231.5 220.5,-212.5 122.5,-212.5"/>
<text text-anchor="middle" x="171.5" y="-219.5" font-family="Helvetica,sans-Serif" font-size="10.00" fill="#000000">JS_RegExpDelete</text>
</a>
</g>
</g>
<!-- Node8203&#45;&gt;Node8355 -->
<g id="edge33" class="edge">
<title>Node8203&#45;&gt;Node8355</title>
<path fill="none" stroke="#191970" d="M40.543,-373.1085C48.1696,-340.6778 67.7611,-276.4769 109,-241 113.4706,-237.154 118.7038,-234.0865 124.2053,-231.6399"/>
<polygon fill="#191970" stroke="#191970" points="37.0631,-372.6365 38.3284,-383.1555 43.899,-374.1433 37.0631,-372.6365"/>
</g>
<!-- Node8659 -->
<g id="node23" class="node">
<title>Node8659</title>
<g id="a_node23"><a xlink:href="quickjs_8c.html#afe038ef522a8c7c8862cfe18a0c0a785" target="_top" xlink:title="js_string_pad">
<polygon fill="none" stroke="#000000" points="134.5,-174.5 134.5,-193.5 208.5,-193.5 208.5,-174.5 134.5,-174.5"/>
<text text-anchor="middle" x="171.5" y="-181.5" font-family="Helvetica,sans-Serif" font-size="10.00" fill="#000000">js_string_pad</text>
</a>
</g>
</g>
<!-- Node8203&#45;&gt;Node8659 -->
<g id="edge34" class="edge">
<title>Node8203&#45;&gt;Node8659</title>
<path fill="none" stroke="#191970" d="M38.3893,-373.1492C43.1157,-334.6897 58.9327,-249.7077 109,-203 115.9659,-196.5016 125.0895,-192.2221 134.2049,-189.405"/>
<polygon fill="#191970" stroke="#191970" points="34.8655,-373.1751 37.2529,-383.4975 41.8237,-373.9393 34.8655,-373.1751"/>
</g>
<!-- Node8680 -->
<g id="node24" class="node">
<title>Node8680</title>
<g id="a_node24"><a xlink:href="quickjs_8c.html#a0f6f437eaf0cabf7d3e31f8306ed7e02" target="_top" xlink:title="js_string_repeat">
<polygon fill="none" stroke="#000000" points="128.5,-136.5 128.5,-155.5 214.5,-155.5 214.5,-136.5 128.5,-136.5"/>
<text text-anchor="middle" x="171.5" y="-143.5" font-family="Helvetica,sans-Serif" font-size="10.00" fill="#000000">js_string_repeat</text>
</a>
</g>
</g>
<!-- Node8203&#45;&gt;Node8680 -->
<g id="edge35" class="edge">
<title>Node8203&#45;&gt;Node8680</title>
<path fill="none" stroke="#191970" d="M40.3062,-373.379C50.3022,-323.7408 78.6309,-194.9843 109,-165 114.4071,-159.6614 121.2649,-155.8158 128.4438,-153.0474"/>
<polygon fill="#191970" stroke="#191970" points="36.8203,-372.9651 38.3117,-383.4544 43.6871,-374.3245 36.8203,-372.9651"/>
</g>
<!-- Node8892 -->
<g id="node25" class="node">
<title>Node8892</title>
<g id="a_node25"><a xlink:href="quickjs_8c.html#a344d6c0e45d9bf3861fd9269724045a2" target="_top" xlink:title="JS_ThrowOutOfMemory">
<polygon fill="none" stroke="#ff0000" points="110.5,-98.5 110.5,-117.5 232.5,-117.5 232.5,-98.5 110.5,-98.5"/>
<text text-anchor="middle" x="171.5" y="-105.5" font-family="Helvetica,sans-Serif" font-size="10.00" fill="#000000">JS_ThrowOutOfMemory</text>
</a>
</g>
</g>
<!-- Node8203&#45;&gt;Node8892 -->
<g id="edge36" class="edge">
<title>Node8203&#45;&gt;Node8892</title>
<path fill="none" stroke="#191970" d="M39.3417,-373.4687C47.7389,-318.3012 74.0545,-162.975 109,-127 112.793,-123.0953 117.3609,-119.9868 122.2797,-117.5134"/>
<polygon fill="#191970" stroke="#191970" points="35.878,-372.9658 37.8643,-383.3728 42.8014,-373.9986 35.878,-372.9658"/>
</g>
<!-- Node8960 -->
<g id="node26" class="node">
<title>Node8960</title>
<g id="a_node26"><a xlink:href="quickjs_8c.html#a8353f635fb8a20553c08db8cf38c17e0" target="_top" xlink:title="JS_ThrowStackOverflow">
<polygon fill="none" stroke="#ff0000" points="109,-810.5 109,-829.5 234,-829.5 234,-810.5 109,-810.5"/>
<text text-anchor="middle" x="171.5" y="-817.5" font-family="Helvetica,sans-Serif" font-size="10.00" fill="#000000">JS_ThrowStackOverflow</text>
</a>
</g>
</g>
<!-- Node8203&#45;&gt;Node8960 -->
<g id="edge37" class="edge">
<title>Node8203&#45;&gt;Node8960</title>
<path fill="none" stroke="#191970" d="M37.5351,-412.7353C41.7117,-485.2994 59.5401,-736.2044 109,-796 114.2599,-802.359 121.4096,-807.0368 128.9964,-810.4769"/>
<polygon fill="#191970" stroke="#191970" points="41.0258,-412.4686 36.9792,-402.677 34.0364,-412.855 41.0258,-412.4686"/>
</g>
<!-- Node8559 -->
<g id="node27" class="node">
<title>Node8559</title>
<g id="a_node27"><a xlink:href="quickjs_8c.html#aa9342f7444c1c9f8743d43aa4d7f89e3" target="_top" xlink:title="JS_WriteObjectRec">
<polygon fill="none" stroke="#ff0000" points="274,-772.5 274,-791.5 378,-791.5 378,-772.5 274,-772.5"/>
<text text-anchor="middle" x="326" y="-779.5" font-family="Helvetica,sans-Serif" font-size="10.00" fill="#000000">JS_WriteObjectRec</text>
</a>
</g>
</g>
<!-- Node8203&#45;&gt;Node8559 -->
<g id="edge41" class="edge">
<title>Node8203&#45;&gt;Node8559</title>
<path fill="none" stroke="#191970" d="M37.4663,-413.0331C41.2485,-482.4053 57.475,-710.7225 109,-758 154.1039,-799.3857 228.6618,-798.1059 277.5604,-791.5216"/>
<polygon fill="#191970" stroke="#191970" points="40.9415,-412.4612 36.9304,-402.655 33.9508,-412.8222 40.9415,-412.4612"/>
</g>
<!-- Node8962 -->
<g id="node28" class="node">
<title>Node8962</title>
<g id="a_node28"><a xlink:href="structqjs_1_1js__traits_3_01std_1_1shared__ptr_3_01T_01_4_01_4.html#af3558afeef079826c58411353c8ccce0" target="_top" xlink:title="Register class in QuickJS context. ">
<polygon fill="none" stroke="#ff0000" points="121,-38.5 121,-79.5 222,-79.5 222,-38.5 121,-38.5"/>
<text text-anchor="start" x="129" y="-67.5" font-family="Helvetica,sans-Serif" font-size="10.00" fill="#000000">qjs::js_traits&lt; std</text>
<text text-anchor="start" x="129" y="-56.5" font-family="Helvetica,sans-Serif" font-size="10.00" fill="#000000">::shared_ptr&lt; T &gt; &gt;</text>
<text text-anchor="middle" x="171.5" y="-45.5" font-family="Helvetica,sans-Serif" font-size="10.00" fill="#000000">::register_class</text>
</a>
</g>
</g>
<!-- Node8203&#45;&gt;Node8962 -->
<g id="edge42" class="edge">
<title>Node8203&#45;&gt;Node8962</title>
<path fill="none" stroke="#191970" d="M38.954,-373.382C46.7912,-313.4044 72.8405,-133.8348 109,-89 112.3246,-84.8778 116.3527,-81.2863 120.7442,-78.165"/>
<polygon fill="#191970" stroke="#191970" points="35.4672,-373.0565 37.6678,-383.4202 42.4104,-373.9462 35.4672,-373.0565"/>
</g>
<!-- Node8945 -->
<g id="node29" class="node">
<title>Node8945</title>
<g id="a_node29"><a xlink:href="quickjs_8c.html#ae45b122556638f15e903dc36708dbe20" target="_top" xlink:title="ss_check">
<polygon fill="none" stroke="#000000" points="142,-364.5 142,-383.5 201,-383.5 201,-364.5 142,-364.5"/>
<text text-anchor="middle" x="171.5" y="-371.5" font-family="Helvetica,sans-Serif" font-size="10.00" fill="#000000">ss_check</text>
</a>
</g>
</g>
<!-- Node8203&#45;&gt;Node8945 -->
<g id="edge43" class="edge">
<title>Node8203&#45;&gt;Node8945</title>
<path fill="none" stroke="#191970" d="M82.9464,-386.4631C102.4326,-383.7206 124.5201,-380.612 141.7614,-378.1854"/>
<polygon fill="#191970" stroke="#191970" points="82.4475,-382.9987 73.0329,-387.8583 83.4232,-389.9304 82.4475,-382.9987"/>
</g>
<!-- Node8963 -->
<g id="node30" class="node">
<title>Node8963</title>
<g id="a_node30"><a xlink:href="quickjs_8c.html#a317ccdca83843c76330ace89fb055b56" target="_top" xlink:title="string_buffer_realloc">
<polygon fill="none" stroke="#ff0000" points="119.5,-.5 119.5,-19.5 223.5,-19.5 223.5,-.5 119.5,-.5"/>
<text text-anchor="middle" x="171.5" y="-7.5" font-family="Helvetica,sans-Serif" font-size="10.00" fill="#000000">string_buffer_realloc</text>
</a>
</g>
</g>
<!-- Node8203&#45;&gt;Node8963 -->
<g id="edge45" class="edge">
<title>Node8203&#45;&gt;Node8963</title>
<path fill="none" stroke="#191970" d="M37.8344,-372.8979C42.7839,-304.2608 62.2738,-80.5722 109,-29 112.5028,-25.134 116.7647,-22.0438 121.3999,-19.5755"/>
<polygon fill="#191970" stroke="#191970" points="34.3209,-372.9713 37.1189,-383.19 41.3041,-373.4568 34.3209,-372.9713"/>
</g>
<!-- Node8205 -->
<g id="node3" class="node">
<title>Node8205</title>
<g id="a_node3"><a xlink:href="quickjs_8c.html#a246e337d6566552736209730827c0871" target="_top" xlink:title="js_poll_interrupts">
<polygon fill="none" stroke="#ff0000" points="281,-904.5 281,-923.5 371,-923.5 371,-904.5 281,-904.5"/>
<text text-anchor="middle" x="326" y="-911.5" font-family="Helvetica,sans-Serif" font-size="10.00" fill="#000000">js_poll_interrupts</text>
</a>
</g>
</g>
<!-- Node8204&#45;&gt;Node8205 -->
<g id="edge2" class="edge">
<title>Node8204&#45;&gt;Node8205</title>
<path fill="none" stroke="#191970" d="M232.4931,-911.5791C248.589,-911.9958 265.671,-912.4381 280.7701,-912.829"/>
<polygon fill="#191970" stroke="#191970" points="232.1763,-908.0698 222.0891,-911.3097 231.9951,-915.0675 232.1763,-908.0698"/>
</g>
<!-- Node8205&#45;&gt;Node8209 -->
<g id="edge3" class="edge">
<title>Node8205&#45;&gt;Node8209</title>
<path fill="none" stroke="#191970" d="M381.3118,-906.9704C398.7332,-904.7563 417.6685,-902.3498 433.9614,-900.2792"/>
<polygon fill="#191970" stroke="#191970" points="380.7395,-903.5149 371.2606,-908.2478 381.6221,-910.459 380.7395,-903.5149"/>
</g>
<!-- Node8209&#45;&gt;Node8209 -->
<g id="edge4" class="edge">
<title>Node8209&#45;&gt;Node8209</title>
<path fill="none" stroke="#191970" d="M447.8742,-913.6539C449.0289,-918.9368 458.2375,-923 475.5,-923 501.8047,-923 509.4084,-913.5653 498.3111,-904.7571"/>
<polygon fill="#191970" stroke="#191970" points="451.0076,-915.2176 452.6889,-904.7571 444.8512,-911.886 451.0076,-915.2176"/>
</g>
<!-- Node8410 -->
<g id="node6" class="node">
<title>Node8410</title>
<g id="a_node6"><a xlink:href="quickjs_8c.html#acc9eb677cab8dfcf45f59381f8a19601" target="_top" xlink:title="js_parse_function_decl2">
<polygon fill="none" stroke="#ff0000" points="569,-610.5 569,-629.5 691,-629.5 691,-610.5 569,-610.5"/>
<text text-anchor="middle" x="630" y="-617.5" font-family="Helvetica,sans-Serif" font-size="10.00" fill="#000000">js_parse_function_decl2</text>
</a>
</g>
</g>
<!-- Node8816&#45;&gt;Node8410 -->
<g id="edge6" class="edge">
<title>Node8816&#45;&gt;Node8410</title>
<path fill="none" stroke="#191970" d="M497.826,-709.827C530.0602,-687.9203 588.7219,-648.0531 615.7128,-629.7097"/>
<polygon fill="#191970" stroke="#191970" points="495.7868,-706.981 489.4833,-715.4968 499.7214,-712.7706 495.7868,-706.981"/>
</g>
<!-- Node8818 -->
<g id="node8" class="node">
<title>Node8818</title>
<g id="a_node8"><a xlink:href="quickjs_8c.html#a4671a759c33274b073d0578ac62261e0" target="_top" xlink:title="get_closure_var2">
<polygon fill="none" stroke="#ff0000" points="280.5,-374.5 280.5,-393.5 371.5,-393.5 371.5,-374.5 280.5,-374.5"/>
<text text-anchor="middle" x="326" y="-381.5" font-family="Helvetica,sans-Serif" font-size="10.00" fill="#000000">get_closure_var2</text>
</a>
</g>
</g>
<!-- Node8817&#45;&gt;Node8818 -->
<g id="edge8" class="edge">
<title>Node8817&#45;&gt;Node8818</title>
<path fill="none" stroke="#191970" d="M206.8495,-436.8615C215.7542,-433.4326 225.2638,-429.6674 234,-426 259.0934,-415.466 287.5268,-402.2911 306.0565,-393.535"/>
<polygon fill="#191970" stroke="#191970" points="205.5869,-433.5971 197.4896,-440.4298 208.0805,-440.1379 205.5869,-433.5971"/>
</g>
<!-- Node8818&#45;&gt;Node8818 -->
<g id="edge9" class="edge">
<title>Node8818&#45;&gt;Node8818</title>
<path fill="none" stroke="#191970" d="M298.3742,-402.6539C299.5289,-407.9368 308.7375,-412 326,-412 352.3047,-412 359.9084,-402.5653 348.8111,-393.7571"/>
<polygon fill="#191970" stroke="#191970" points="301.5076,-404.2176 303.1889,-393.7571 295.3512,-400.886 301.5076,-404.2176"/>
</g>
<!-- Node8823&#45;&gt;Node8410 -->
<g id="edge21" class="edge">
<title>Node8823&#45;&gt;Node8410</title>
<path fill="none" stroke="#191970" d="M186.7574,-590.1577C204.5789,-608.7785 235.986,-637.4032 270,-649 388.3991,-689.3673 540.8914,-649.2066 602.4353,-629.5131"/>
<polygon fill="#191970" stroke="#191970" points="189.1428,-587.5829 179.7738,-582.6359 184.0129,-592.3457 189.1428,-587.5829"/>
</g>
<!-- Node8824 -->
<g id="node10" class="node">
<title>Node8824</title>
<g id="a_node10"><a xlink:href="quickjs_8c.html#a9a006fc2eb9bbbc399c396d7a1e8d18b" target="_top" xlink:title="add_scope_var">
<polygon fill="none" stroke="#ff0000" points="284.5,-544.5 284.5,-563.5 367.5,-563.5 367.5,-544.5 284.5,-544.5"/>
<text text-anchor="middle" x="326" y="-551.5" font-family="Helvetica,sans-Serif" font-size="10.00" fill="#000000">add_scope_var</text>
</a>
</g>
</g>
<!-- Node8823&#45;&gt;Node8824 -->
<g id="edge11" class="edge">
<title>Node8823&#45;&gt;Node8824</title>
<path fill="none" stroke="#191970" d="M207.0635,-568.6265C230.1247,-565.7905 260.2617,-562.0843 284.4285,-559.1123"/>
<polygon fill="#191970" stroke="#191970" points="206.5105,-565.168 197.0125,-569.8625 207.365,-572.1157 206.5105,-565.168"/>
</g>
<!-- Node8825 -->
<g id="node11" class="node">
<title>Node8825</title>
<g id="a_node11"><a xlink:href="quickjs_8c.html#a99125693fff3fd8277f544b15109354b" target="_top" xlink:title="define_var">
<polygon fill="none" stroke="#ff0000" points="444.5,-563.5 444.5,-582.5 506.5,-582.5 506.5,-563.5 444.5,-563.5"/>
<text text-anchor="middle" x="475.5" y="-570.5" font-family="Helvetica,sans-Serif" font-size="10.00" fill="#000000">define_var</text>
</a>
</g>
</g>
<!-- Node8823&#45;&gt;Node8825 -->
<g id="edge19" class="edge">
<title>Node8823&#45;&gt;Node8825</title>
<path fill="none" stroke="#191970" d="M207.296,-573C267.3332,-573 387.3213,-573 444.2026,-573"/>
<polygon fill="#191970" stroke="#191970" points="207.1569,-569.5001 197.1569,-573 207.1568,-576.5001 207.1569,-569.5001"/>
</g>
<!-- Node8405 -->
<g id="node12" class="node">
<title>Node8405</title>
<g id="a_node12"><a xlink:href="quickjs_8c.html#a9d844c16dcc71701436848074337d32c" target="_top" xlink:title="js_parse_statement\l_or_decl">
<polygon fill="none" stroke="#ff0000" points="579,-463 579,-493 681,-493 681,-463 579,-463"/>
<text text-anchor="start" x="587" y="-481" font-family="Helvetica,sans-Serif" font-size="10.00" fill="#000000">js_parse_statement</text>
<text text-anchor="middle" x="630" y="-470" font-family="Helvetica,sans-Serif" font-size="10.00" fill="#000000">_or_decl</text>
</a>
</g>
</g>
<!-- Node8823&#45;&gt;Node8405 -->
<g id="edge20" class="edge">
<title>Node8823&#45;&gt;Node8405</title>
<path fill="none" stroke="#191970" d="M187.3995,-555.6346C205.4123,-537.2981 236.6303,-509.3683 270,-497 374.3137,-458.3366 507.3267,-464.204 578.8953,-471.4033"/>
<polygon fill="#191970" stroke="#191970" points="184.4626,-553.6427 180.0922,-563.2941 189.5274,-558.4746 184.4626,-553.6427"/>
</g>
<!-- Node8828 -->
<g id="node13" class="node">
<title>Node8828</title>
<g id="a_node13"><a xlink:href="quickjs_8c.html#afe834031fad358f2fbd7d71cfe8ac19c" target="_top" xlink:title="add_func_var">
<polygon fill="none" stroke="#ff0000" points="288.5,-620.5 288.5,-639.5 363.5,-639.5 363.5,-620.5 288.5,-620.5"/>
<text text-anchor="middle" x="326" y="-627.5" font-family="Helvetica,sans-Serif" font-size="10.00" fill="#000000">add_func_var</text>
</a>
</g>
</g>
<!-- Node8823&#45;&gt;Node8828 -->
<g id="edge16" class="edge">
<title>Node8823&#45;&gt;Node8828</title>
<path fill="none" stroke="#191970" d="M206.5841,-585.9437C235.0591,-596.449 274.5542,-611.02 300.1918,-620.4785"/>
<polygon fill="#191970" stroke="#191970" points="207.6059,-582.5901 197.0125,-582.4124 205.1829,-589.1574 207.6059,-582.5901"/>
</g>
<!-- Node8829 -->
<g id="node14" class="node">
<title>Node8829</title>
<g id="a_node14"><a xlink:href="quickjs_8c.html#a868100a32a3062ab6365985bb5c02b7d" target="_top" xlink:title="add_arguments_var">
<polygon fill="none" stroke="#ff0000" points="275,-506.5 275,-525.5 377,-525.5 377,-506.5 275,-506.5"/>
<text text-anchor="middle" x="326" y="-513.5" font-family="Helvetica,sans-Serif" font-size="10.00" fill="#000000">add_arguments_var</text>
</a>
</g>
</g>
<!-- Node8823&#45;&gt;Node8829 -->
<g id="edge17" class="edge">
<title>Node8823&#45;&gt;Node8829</title>
<path fill="none" stroke="#191970" d="M205.0924,-559.6471C224.0741,-552.201 248.2815,-542.87 270,-535 278.7837,-531.8171 288.3988,-528.4963 297.1443,-525.5377"/>
<polygon fill="#191970" stroke="#191970" points="203.706,-556.4314 195.6833,-563.3514 206.2704,-562.9448 203.706,-556.4314"/>
</g>
<!-- Node8830 -->
<g id="node15" class="node">
<title>Node8830</title>
<g id="a_node15"><a xlink:href="quickjs_8c.html#a2bfa1a7eb92eca442a25cf6726a0b19d" target="_top" xlink:title="add_arguments_arg">
<polygon fill="none" stroke="#ff0000" points="275,-696.5 275,-715.5 377,-715.5 377,-696.5 275,-696.5"/>
<text text-anchor="middle" x="326" y="-703.5" font-family="Helvetica,sans-Serif" font-size="10.00" fill="#000000">add_arguments_arg</text>
</a>
</g>
</g>
<!-- Node8823&#45;&gt;Node8830 -->
<g id="edge18" class="edge">
<title>Node8823&#45;&gt;Node8830</title>
<path fill="none" stroke="#191970" d="M183.9954,-591.12C201.0654,-614.739 233.7258,-656.0803 270,-682 278.1759,-687.8421 287.9955,-692.6533 297.113,-696.3942"/>
<polygon fill="#191970" stroke="#191970" points="186.6869,-588.8646 178.0497,-582.7286 180.9752,-592.9115 186.6869,-588.8646"/>
</g>
<!-- Node8824&#45;&gt;Node8825 -->
<g id="edge12" class="edge">
<title>Node8824&#45;&gt;Node8825</title>
<path fill="none" stroke="#191970" d="M377.8568,-560.5905C399.8902,-563.3907 424.8609,-566.5643 444.0346,-569.0011"/>
<polygon fill="#191970" stroke="#191970" points="378.0056,-557.0813 367.6441,-559.2926 377.123,-564.0255 378.0056,-557.0813"/>
</g>
<!-- Node8825&#45;&gt;Node8410 -->
<g id="edge15" class="edge">
<title>Node8825&#45;&gt;Node8410</title>
<path fill="none" stroke="#191970" d="M516.5963,-585.5018C542.2906,-593.3182 574.8751,-603.2306 598.5164,-610.4224"/>
<polygon fill="#191970" stroke="#191970" points="517.3512,-582.0731 506.7654,-582.5112 515.3138,-588.7701 517.3512,-582.0731"/>
</g>
<!-- Node8825&#45;&gt;Node8405 -->
<g id="edge13" class="edge">
<title>Node8825&#45;&gt;Node8405</title>
<path fill="none" stroke="#191970" d="M499.8159,-558.0485C528.6631,-540.3107 576.482,-510.9075 605.437,-493.1035"/>
<polygon fill="#191970" stroke="#191970" points="497.8497,-555.1487 491.1645,-563.3681 501.5163,-561.1116 497.8497,-555.1487"/>
</g>
<!-- Node8405&#45;&gt;Node8405 -->
<g id="edge14" class="edge">
<title>Node8405&#45;&gt;Node8405</title>
<path fill="none" stroke="#191970" d="M602.6361,-503.4579C606.0323,-508.179 615.1536,-511.5 630,-511.5 654.3633,-511.5 663.3092,-502.5566 656.8377,-493.159"/>
<polygon fill="#191970" stroke="#191970" points="606.1473,-503.3246 603.1623,-493.159 599.1565,-502.9673 606.1473,-503.3246"/>
</g>
<!-- Node8238&#45;&gt;Node8209 -->
<g id="edge24" class="edge">
<title>Node8238&#45;&gt;Node8209</title>
<path fill="none" stroke="#191970" d="M392.2241,-884.4164C406.2752,-886.2022 420.7334,-888.0397 433.5778,-889.6721"/>
<polygon fill="#191970" stroke="#191970" points="392.4551,-880.9177 382.0936,-883.129 391.5725,-887.8619 392.4551,-880.9177"/>
</g>
<!-- Node8416&#45;&gt;Node8410 -->
<g id="edge31" class="edge">
<title>Node8416&#45;&gt;Node8410</title>
<path fill="none" stroke="#191970" d="M493.0467,-439.1684C526.6836,-483.5822 598.986,-579.0495 622.4673,-610.0539"/>
<polygon fill="#191970" stroke="#191970" points="495.6884,-436.8593 486.8608,-431.0006 490.1081,-441.0855 495.6884,-436.8593"/>
</g>
<!-- Node8416&#45;&gt;Node8405 -->
<g id="edge30" class="edge">
<title>Node8416&#45;&gt;Node8405</title>
<path fill="none" stroke="#191970" d="M522.249,-434.7601C544.7134,-443.7749 571.2774,-454.4349 592.4088,-462.9149"/>
<polygon fill="#191970" stroke="#191970" points="523.4843,-431.4846 512.9001,-431.0085 520.8773,-437.981 523.4843,-431.4846"/>
</g>
<!-- Node8416&#45;&gt;Node8416 -->
<g id="edge29" class="edge">
<title>Node8416&#45;&gt;Node8416</title>
<path fill="none" stroke="#191970" d="M449.2022,-441.4579C452.4661,-446.179 461.2321,-449.5 475.5,-449.5 498.9141,-449.5 507.5114,-440.5566 501.2921,-431.159"/>
<polygon fill="#191970" stroke="#191970" points="452.7132,-441.3187 449.7079,-431.159 445.7216,-440.9753 452.7132,-441.3187"/>
</g>
<!-- Node8960&#45;&gt;Node8209 -->
<g id="edge38" class="edge">
<title>Node8960&#45;&gt;Node8209</title>
<path fill="none" stroke="#191970" d="M244.6162,-828.9611C285.5073,-834.9379 337.1266,-844.096 382,-857 408.1014,-864.5059 436.872,-876.8531 455.511,-885.4275"/>
<polygon fill="#191970" stroke="#191970" points="244.8566,-825.4599 234.462,-827.5097 243.8661,-832.3895 244.8566,-825.4599"/>
</g>
<!-- Node8960&#45;&gt;Node8559 -->
<g id="edge39" class="edge">
<title>Node8960&#45;&gt;Node8559</title>
<path fill="none" stroke="#191970" d="M220.4521,-807.96C242.0365,-802.6512 267.041,-796.5012 287.2935,-791.5201"/>
<polygon fill="#191970" stroke="#191970" points="219.3615,-804.6238 210.4869,-810.411 221.0334,-811.4213 219.3615,-804.6238"/>
</g>
<!-- Node8559&#45;&gt;Node8559 -->
<g id="edge40" class="edge">
<title>Node8559&#45;&gt;Node8559</title>
<path fill="none" stroke="#191970" d="M298.3742,-800.6539C299.5289,-805.9368 308.7375,-810 326,-810 352.3047,-810 359.9084,-800.5653 348.8111,-791.7571"/>
<polygon fill="#191970" stroke="#191970" points="301.5076,-802.2176 303.1889,-791.7571 295.3512,-798.886 301.5076,-802.2176"/>
</g>
<!-- Node8945&#45;&gt;Node8833 -->
<g id="edge44" class="edge">
<title>Node8945&#45;&gt;Node8833</title>
<path fill="none" stroke="#191970" d="M211.3547,-366.7771C230.2775,-363.3478 253.1457,-359.2034 273.4643,-355.521"/>
<polygon fill="#191970" stroke="#191970" points="210.5047,-363.3741 201.2892,-368.6013 211.753,-370.2619 210.5047,-363.3741"/>
</g>
</g>
</svg>
        <g id="navigator" transform="translate(0 0)" fill="#404254">
                <rect fill="#f2f5e9" fill-opacity="0.5" stroke="#606060" stroke-width=".5" x="0" y="0" width="60" height="60"/>
                <use id="zoomplus" xlink:href="#zoomPlus" x="17" y="9" onmousedown="handleZoom(evt,'in')"/>
                <use id="zoomminus" xlink:href="#zoomMin" x="42" y="9" onmousedown="handleZoom(evt,'out')"/>
                <use id="reset" xlink:href="#resetDef" x="30" y="36" onmousedown="handleReset()"/>
                <g id="arrowUp" xlink:href="#dirArrow" transform="translate(30 24)" onmousedown="handlePan(0,-1)">
                  <use xlink:href="#rim" fill="#404040">
                        <set attributeName="fill" to="#808080" begin="arrowUp.mouseover" end="arrowUp.mouseout"/>
                  </use>
                  <path fill="none" stroke="white" stroke-width="1.5" d="M0,-3.0v7 M-2.5,-0.5L0,-3.0L2.5,-0.5"/>
                </g>
                <g id="arrowRight" xlink:href="#dirArrow" transform="rotate(90) translate(36 -43)" onmousedown="handlePan(1,0)">
                  <use xlink:href="#rim" fill="#404040">
                        <set attributeName="fill" to="#808080" begin="arrowRight.mouseover" end="arrowRight.mouseout"/>
                  </use>
                  <path fill="none" stroke="white" stroke-width="1.5" d="M0,-3.0v7 M-2.5,-0.5L0,-3.0L2.5,-0.5"/>
                </g>
                <g id="arrowDown" xlink:href="#dirArrow" transform="rotate(180) translate(-30 -48)" onmousedown="handlePan(0,1)">
                  <use xlink:href="#rim" fill="#404040">
                        <set attributeName="fill" to="#808080" begin="arrowDown.mouseover" end="arrowDown.mouseout"/>
                  </use>
                  <path fill="none" stroke="white" stroke-width="1.5" d="M0,-3.0v7 M-2.5,-0.5L0,-3.0L2.5,-0.5"/>
                </g>
                <g id="arrowLeft" xlink:href="#dirArrow" transform="rotate(270) translate(-36 17)" onmousedown="handlePan(-1,0)">
                  <use xlink:href="#rim" fill="#404040">
                        <set attributeName="fill" to="#808080" begin="arrowLeft.mouseover" end="arrowLeft.mouseout"/>
                  </use>
                  <path fill="none" stroke="white" stroke-width="1.5" d="M0,-3.0v7 M-2.5,-0.5L0,-3.0L2.5,-0.5"/>
                </g>
        </g>
        <svg viewBox="0 0 15 15" width="100%" height="30px" preserveAspectRatio="xMaxYMin meet">
         <g id="arrow_out" transform="scale(0.3 0.3)">
          <a xlink:href="quickjs_8c_a853f0924d441ea4225488f37c8b69f9a_icgraph_org.svg" target="_base">
           <rect id="button" ry="5" rx="5" y="6" x="6" height="38" width="38"
                fill="#f2f5e9" fill-opacity="0.5" stroke="#606060" stroke-width="1.0"/>
           <path id="arrow"
             d="M 11.500037,31.436501 C 11.940474,20.09759 22.043105,11.32322 32.158766,21.979434 L 37.068811,17.246167 C 37.068811,17.246167 37.088388,32 37.088388,32 L 22.160133,31.978069 C 22.160133,31.978069 26.997745,27.140456 26.997745,27.140456 C 18.528582,18.264221 13.291696,25.230495 11.500037,31.436501 z"
             style="fill:#404040;"/>
          </a>
         </g>
        </svg>
</svg>
