<?xml version="1.0" encoding="UTF-8" standalone="no"?>
<!DOCTYPE svg PUBLIC "-//W3C//DTD SVG 1.1//EN"
 "http://www.w3.org/Graphics/SVG/1.1/DTD/svg11.dtd">
<!-- Generated by graphviz version 2.40.1 (20161225.0304)
 -->
<!-- Title: find_var_in_child_scope Pages: 1 -->
<!--zoomable 350 -->
<svg id="main" version="1.1" xmlns="http://www.w3.org/2000/svg" xmlns:xlink="http://www.w3.org/1999/xlink" xml:space="preserve" onload="init(evt)">
<style type="text/css"><![CDATA[
.edge:hover path { stroke: red; }
.edge:hover polygon { stroke: red; fill: red; }
]]></style>
<script type="text/javascript"><![CDATA[
var edges = document.getElementsByTagName('g');
if (edges && edges.length) {
  for (var i=0;i<edges.length;i++) {
    if (edges[i].id.substr(0,4)=='edge') {
      edges[i].setAttribute('class','edge');
    }
  }
}
]]></script>
        <defs>
                <circle id="rim" cx="0" cy="0" r="7"/>
                <circle id="rim2" cx="0" cy="0" r="3.5"/>
                <g id="zoomPlus">
                        <use xlink:href="#rim" fill="#404040">
                                <set attributeName="fill" to="#808080" begin="zoomplus.mouseover" end="zoomplus.mouseout"/>
                        </use>
                        <path d="M-4,0h8M0,-4v8" fill="none" stroke="white" stroke-width="1.5" pointer-events="none"/>
                </g>
                <g id="zoomMin">
                        <use xlink:href="#rim" fill="#404040">
                                <set attributeName="fill" to="#808080" begin="zoomminus.mouseover" end="zoomminus.mouseout"/>
                        </use>
                        <path d="M-4,0h8" fill="none" stroke="white" stroke-width="1.5" pointer-events="none"/>
                </g>
                <g id="dirArrow">
                        <path fill="none" stroke="white" stroke-width="1.5" d="M0,-3.0v7 M-2.5,-0.5L0,-3.0L2.5,-0.5"/>
                </g>
               <g id="resetDef">
                       <use xlink:href="#rim2" fill="#404040">
                               <set attributeName="fill" to="#808080" begin="reset.mouseover" end="reset.mouseout"/>
                       </use>
               </g>
        </defs>

<script type="text/javascript">
var viewWidth = 912;
var viewHeight = 350;
var sectionId = 'dynsection-959';
</script>
<script xlink:href="svgpan.js"/>
<svg id="graph" class="graph">
<g id="viewport">
<title>find_var_in_child_scope</title>
<!-- Node312340 -->
<g id="node1" class="node">
<title>Node312340</title>
<polygon fill="#bfbfbf" stroke="#000000" points="0,-66.5 0,-85.5 121,-85.5 121,-66.5 0,-66.5"/>
<text text-anchor="middle" x="60.5" y="-73.5" font-family="Helvetica,sans-Serif" font-size="10.00" fill="#000000">find_var_in_child_scope</text>
</g>
<!-- Node312341 -->
<g id="node2" class="node">
<title>Node312341</title>
<g id="a_node2"><a xlink:href="quickjs_8c.html#a99125693fff3fd8277f544b15109354b" target="_top" xlink:title="define_var">
<polygon fill="none" stroke="#000000" points="157,-66.5 157,-85.5 219,-85.5 219,-66.5 157,-66.5"/>
<text text-anchor="middle" x="188" y="-73.5" font-family="Helvetica,sans-Serif" font-size="10.00" fill="#000000">define_var</text>
</a>
</g>
</g>
<!-- Node312340&#45;&gt;Node312341 -->
<g id="edge1" class="edge">
<title>Node312340&#45;&gt;Node312341</title>
<path fill="none" stroke="#191970" d="M131.3603,-76C140.2666,-76 148.9856,-76 156.81,-76"/>
<polygon fill="#191970" stroke="#191970" points="131.2627,-72.5001 121.2627,-76 131.2627,-79.5001 131.2627,-72.5001"/>
</g>
<!-- Node312342 -->
<g id="node3" class="node">
<title>Node312342</title>
<g id="a_node3"><a xlink:href="quickjs_8c.html#a00eb789430243c24dab4a63ad6a79653" target="_top" xlink:title="js_parse_class">
<polygon fill="none" stroke="#000000" points="674,-104.5 674,-123.5 756,-123.5 756,-104.5 674,-104.5"/>
<text text-anchor="middle" x="715" y="-111.5" font-family="Helvetica,sans-Serif" font-size="10.00" fill="#000000">js_parse_class</text>
</a>
</g>
</g>
<!-- Node312341&#45;&gt;Node312342 -->
<g id="edge2" class="edge">
<title>Node312341&#45;&gt;Node312342</title>
<path fill="none" stroke="#191970" d="M228.8069,-64.8945C309.4249,-44.9648 493.7933,-9.4323 638,-57 666.4313,-66.3783 692.9487,-90.7483 706.1876,-104.3914"/>
<polygon fill="#191970" stroke="#191970" points="227.883,-61.5178 219.0434,-67.3584 229.5959,-68.3051 227.883,-61.5178"/>
</g>
<!-- Node312347 -->
<g id="node5" class="node">
<title>Node312347</title>
<g id="a_node5"><a xlink:href="quickjs_8c.html#a9d844c16dcc71701436848074337d32c" target="_top" xlink:title="js_parse_statement\l_or_decl">
<polygon fill="none" stroke="#ff0000" points="797,-232 797,-262 899,-262 899,-232 797,-232"/>
<text text-anchor="start" x="805" y="-250" font-family="Helvetica,sans-Serif" font-size="10.00" fill="#000000">js_parse_statement</text>
<text text-anchor="middle" x="848" y="-239" font-family="Helvetica,sans-Serif" font-size="10.00" fill="#000000">_or_decl</text>
</a>
</g>
</g>
<!-- Node312341&#45;&gt;Node312347 -->
<g id="edge24" class="edge">
<title>Node312341&#45;&gt;Node312347</title>
<path fill="none" stroke="#191970" d="M194.3243,-95.4123C215.636,-156.6927 290.9562,-342 422.5,-342 422.5,-342 422.5,-342 577,-342 672.4737,-342 776.7544,-288.8405 823.2414,-262.053"/>
<polygon fill="#191970" stroke="#191970" points="197.5872,-94.1351 191.0692,-85.7825 190.9558,-96.3768 197.5872,-94.1351"/>
</g>
<!-- Node312354 -->
<g id="node6" class="node">
<title>Node312354</title>
<g id="a_node6"><a xlink:href="quickjs_8c.html#a498e1d5c7de1b59c1630e9847cde1e41" target="_top" xlink:title="js_parse_export">
<polygon fill="none" stroke="#ff0000" points="805,-85.5 805,-104.5 891,-104.5 891,-85.5 805,-85.5"/>
<text text-anchor="middle" x="848" y="-92.5" font-family="Helvetica,sans-Serif" font-size="10.00" fill="#000000">js_parse_export</text>
</a>
</g>
</g>
<!-- Node312341&#45;&gt;Node312354 -->
<g id="edge25" class="edge">
<title>Node312341&#45;&gt;Node312354</title>
<path fill="none" stroke="#191970" d="M214.0994,-61.5688C256.479,-39.5264 343.4894,0 422.5,0 422.5,0 422.5,0 577,0 679.4535,0 792.0488,-61.2163 832.4843,-85.3681"/>
<polygon fill="#191970" stroke="#191970" points="212.2294,-58.5986 205.0332,-66.3745 215.5079,-64.7834 212.2294,-58.5986"/>
</g>
<!-- Node312378 -->
<g id="node7" class="node">
<title>Node312378</title>
<g id="a_node7"><a xlink:href="quickjs_8c.html#a53e971ab3c46da0b7d48481b0696e138" target="_top" xlink:title="js_define_var">
<polygon fill="none" stroke="#000000" points="255,-180.5 255,-199.5 329,-199.5 329,-180.5 255,-180.5"/>
<text text-anchor="middle" x="292" y="-187.5" font-family="Helvetica,sans-Serif" font-size="10.00" fill="#000000">js_define_var</text>
</a>
</g>
</g>
<!-- Node312341&#45;&gt;Node312378 -->
<g id="edge8" class="edge">
<title>Node312341&#45;&gt;Node312378</title>
<path fill="none" stroke="#191970" d="M203.6431,-93.1472C225.7824,-117.4153 265.5212,-160.9752 283.1555,-180.305"/>
<polygon fill="#191970" stroke="#191970" points="206.1923,-90.7484 196.867,-85.7196 201.0209,-95.4661 206.1923,-90.7484"/>
</g>
<!-- Node312352 -->
<g id="node11" class="node">
<title>Node312352</title>
<g id="a_node11"><a xlink:href="quickjs_8c.html#acc9eb677cab8dfcf45f59381f8a19601" target="_top" xlink:title="js_parse_function_decl2">
<polygon fill="none" stroke="#ff0000" points="516,-66.5 516,-85.5 638,-85.5 638,-66.5 516,-66.5"/>
<text text-anchor="middle" x="577" y="-73.5" font-family="Helvetica,sans-Serif" font-size="10.00" fill="#000000">js_parse_function_decl2</text>
</a>
</g>
</g>
<!-- Node312341&#45;&gt;Node312352 -->
<g id="edge26" class="edge">
<title>Node312341&#45;&gt;Node312352</title>
<path fill="none" stroke="#191970" d="M229.5978,-76C298.3402,-76 435.9683,-76 515.8168,-76"/>
<polygon fill="#191970" stroke="#191970" points="229.176,-72.5001 219.1759,-76 229.1759,-79.5001 229.176,-72.5001"/>
</g>
<!-- Node312343 -->
<g id="node4" class="node">
<title>Node312343</title>
<g id="a_node4"><a xlink:href="quickjs_8c.html#a840642c87c5a82d4cc68333376a3b6de" target="_top" xlink:title="js_parse_postfix_expr">
<polygon fill="none" stroke="#ff0000" points="792,-123.5 792,-142.5 904,-142.5 904,-123.5 792,-123.5"/>
<text text-anchor="middle" x="848" y="-130.5" font-family="Helvetica,sans-Serif" font-size="10.00" fill="#000000">js_parse_postfix_expr</text>
</a>
</g>
</g>
<!-- Node312342&#45;&gt;Node312343 -->
<g id="edge3" class="edge">
<title>Node312342&#45;&gt;Node312343</title>
<path fill="none" stroke="#191970" d="M766.5199,-121.36C774.7133,-122.5305 783.2266,-123.7467 791.5267,-124.9324"/>
<polygon fill="#191970" stroke="#191970" points="766.7475,-117.857 756.353,-119.9076 765.7575,-124.7867 766.7475,-117.857"/>
</g>
<!-- Node312342&#45;&gt;Node312347 -->
<g id="edge5" class="edge">
<title>Node312342&#45;&gt;Node312347</title>
<path fill="none" stroke="#191970" d="M749.4346,-128.4757C751.7302,-129.886 753.9439,-131.3947 756,-133 775.1447,-147.9466 816.9342,-204.0488 836.9213,-231.5747"/>
<polygon fill="#191970" stroke="#191970" points="750.7919,-125.2298 740.3346,-123.5287 747.4486,-131.3798 750.7919,-125.2298"/>
</g>
<!-- Node312342&#45;&gt;Node312354 -->
<g id="edge7" class="edge">
<title>Node312342&#45;&gt;Node312354</title>
<path fill="none" stroke="#191970" d="M766.3441,-106.6651C779.0585,-104.8488 792.5536,-102.9209 804.8331,-101.1667"/>
<polygon fill="#191970" stroke="#191970" points="765.7575,-103.2133 756.353,-108.0924 766.7475,-110.143 765.7575,-103.2133"/>
</g>
<!-- Node312343&#45;&gt;Node312343 -->
<g id="edge4" class="edge">
<title>Node312343&#45;&gt;Node312343</title>
<path fill="none" stroke="#191970" d="M823.4465,-152.0292C824.7858,-157.128 832.9703,-161 848,-161 871.4609,-161 878.2426,-151.5653 868.345,-142.7571"/>
<polygon fill="#191970" stroke="#191970" points="826.709,-153.3096 827.655,-142.7571 820.3348,-150.4164 826.709,-153.3096"/>
</g>
<!-- Node312347&#45;&gt;Node312347 -->
<g id="edge6" class="edge">
<title>Node312347&#45;&gt;Node312347</title>
<path fill="none" stroke="#191970" d="M824.5452,-272.4579C827.4563,-277.179 835.2745,-280.5 848,-280.5 868.8828,-280.5 876.5507,-271.5566 871.0037,-262.159"/>
<polygon fill="#191970" stroke="#191970" points="828.0553,-272.3026 824.9963,-262.159 821.062,-271.9962 828.0553,-272.3026"/>
</g>
<!-- Node312378&#45;&gt;Node312347 -->
<g id="edge23" class="edge">
<title>Node312378&#45;&gt;Node312347</title>
<path fill="none" stroke="#191970" d="M305.7696,-208.0208C319.094,-224.0889 340.7869,-246.8866 365,-259 425.9024,-289.4685 448.1487,-279.2012 516,-285 622.4599,-294.0985 651.0076,-290.8262 756,-271 769.3005,-268.4884 783.5195,-265.1234 796.7041,-261.7094"/>
<polygon fill="#191970" stroke="#191970" points="308.2475,-205.5157 299.2652,-199.897 302.7831,-209.8907 308.2475,-205.5157"/>
</g>
<!-- Node312345 -->
<g id="node8" class="node">
<title>Node312345</title>
<g id="a_node8"><a xlink:href="quickjs_8c.html#a26be546cf89c4580ba9020e8fc43a759" target="_top" xlink:title="js_parse_destructuring\l_element">
<polygon fill="none" stroke="#000000" points="365,-175 365,-205 480,-205 480,-175 365,-175"/>
<text text-anchor="start" x="373" y="-193" font-family="Helvetica,sans-Serif" font-size="10.00" fill="#000000">js_parse_destructuring</text>
<text text-anchor="middle" x="422.5" y="-182" font-family="Helvetica,sans-Serif" font-size="10.00" fill="#000000">_element</text>
</a>
</g>
</g>
<!-- Node312378&#45;&gt;Node312345 -->
<g id="edge9" class="edge">
<title>Node312378&#45;&gt;Node312345</title>
<path fill="none" stroke="#191970" d="M339.2946,-190C347.5979,-190 356.3219,-190 364.8691,-190"/>
<polygon fill="#191970" stroke="#191970" points="339.047,-186.5001 329.047,-190 339.047,-193.5001 339.047,-186.5001"/>
</g>
<!-- Node312346 -->
<g id="node9" class="node">
<title>Node312346</title>
<g id="a_node9"><a xlink:href="quickjs_8c.html#a9660cf21845352b14655d423389d6620" target="_top" xlink:title="js_parse_var">
<polygon fill="none" stroke="#000000" points="679,-142.5 679,-161.5 751,-161.5 751,-142.5 679,-142.5"/>
<text text-anchor="middle" x="715" y="-149.5" font-family="Helvetica,sans-Serif" font-size="10.00" fill="#000000">js_parse_var</text>
</a>
</g>
</g>
<!-- Node312378&#45;&gt;Node312346 -->
<g id="edge21" class="edge">
<title>Node312378&#45;&gt;Node312346</title>
<path fill="none" stroke="#191970" d="M324.1141,-176.8019C336.6558,-172.2341 351.2932,-167.6096 365,-165 477.8951,-143.5062 614.8642,-146.6636 678.8261,-149.7885"/>
<polygon fill="#191970" stroke="#191970" points="322.6786,-173.6028 314.5629,-180.4136 325.1545,-180.1503 322.6786,-173.6028"/>
</g>
<!-- Node312349 -->
<g id="node10" class="node">
<title>Node312349</title>
<g id="a_node10"><a xlink:href="quickjs_8c.html#ac188b916dd086803591a67de7e7a85f6" target="_top" xlink:title="js_parse_for_in_of">
<polygon fill="none" stroke="#000000" points="529,-256.5 529,-275.5 625,-275.5 625,-256.5 529,-256.5"/>
<text text-anchor="middle" x="577" y="-263.5" font-family="Helvetica,sans-Serif" font-size="10.00" fill="#000000">js_parse_for_in_of</text>
</a>
</g>
</g>
<!-- Node312378&#45;&gt;Node312349 -->
<g id="edge22" class="edge">
<title>Node312378&#45;&gt;Node312349</title>
<path fill="none" stroke="#191970" d="M313.7027,-205.2943C327.7138,-214.4402 346.6853,-225.5099 365,-232 419.108,-251.1739 484.8354,-259.5831 528.622,-263.2402"/>
<polygon fill="#191970" stroke="#191970" points="315.5213,-202.2996 305.2684,-199.6295 311.6184,-208.1106 315.5213,-202.2996"/>
</g>
<!-- Node312345&#45;&gt;Node312343 -->
<g id="edge11" class="edge">
<title>Node312345&#45;&gt;Node312343</title>
<path fill="none" stroke="#191970" d="M490.42,-192.7052C558.4713,-193.8885 665.7847,-191.5821 756,-171 782.7886,-164.8883 811.7904,-151.7097 829.9223,-142.6003"/>
<polygon fill="#191970" stroke="#191970" points="490.3273,-189.2027 480.2578,-192.4974 490.1841,-196.2012 490.3273,-189.2027"/>
</g>
<!-- Node312345&#45;&gt;Node312347 -->
<g id="edge17" class="edge">
<title>Node312345&#45;&gt;Node312347</title>
<path fill="none" stroke="#191970" d="M490.3639,-201.1588C498.9862,-202.4966 507.6953,-203.8089 516,-205 615.2043,-219.2285 731.4581,-233.3518 796.7413,-241.0512"/>
<polygon fill="#191970" stroke="#191970" points="490.7328,-197.6739 480.3113,-199.5823 489.6482,-204.5894 490.7328,-197.6739"/>
</g>
<!-- Node312345&#45;&gt;Node312345 -->
<g id="edge10" class="edge">
<title>Node312345&#45;&gt;Node312345</title>
<path fill="none" stroke="#191970" d="M399.4006,-215.4579C402.2675,-220.179 409.9673,-223.5 422.5,-223.5 443.0664,-223.5 450.6181,-214.5566 445.1552,-205.159"/>
<polygon fill="#191970" stroke="#191970" points="402.9105,-215.3006 399.8448,-205.159 395.917,-214.9988 402.9105,-215.3006"/>
</g>
<!-- Node312345&#45;&gt;Node312346 -->
<g id="edge12" class="edge">
<title>Node312345&#45;&gt;Node312346</title>
<path fill="none" stroke="#191970" d="M490.3716,-179.6044C498.9927,-178.3526 507.6994,-177.1217 516,-176 572.7286,-168.3337 638.7205,-160.61 678.6473,-156.0682"/>
<polygon fill="#191970" stroke="#191970" points="489.7064,-176.1645 480.3201,-181.0784 490.7221,-183.0904 489.7064,-176.1645"/>
</g>
<!-- Node312345&#45;&gt;Node312349 -->
<g id="edge15" class="edge">
<title>Node312345&#45;&gt;Node312349</title>
<path fill="none" stroke="#191970" d="M456.1605,-210.1436C473.7062,-220.2766 495.6905,-232.409 516,-242 527.1139,-247.2485 539.7072,-252.34 550.5535,-256.473"/>
<polygon fill="#191970" stroke="#191970" points="457.8245,-207.0624 447.4223,-205.051 454.2998,-213.1102 457.8245,-207.0624"/>
</g>
<!-- Node312345&#45;&gt;Node312352 -->
<g id="edge18" class="edge">
<title>Node312345&#45;&gt;Node312352</title>
<path fill="none" stroke="#191970" d="M451.1069,-168.892C484.8165,-144.0189 539.361,-103.7725 564.0839,-85.5304"/>
<polygon fill="#191970" stroke="#191970" points="448.985,-166.108 443.0164,-174.8617 453.1411,-171.7406 448.985,-166.108"/>
</g>
<!-- Node312346&#45;&gt;Node312347 -->
<g id="edge13" class="edge">
<title>Node312346&#45;&gt;Node312347</title>
<path fill="none" stroke="#191970" d="M737.1579,-167.8271C762.0525,-185.609 802.1789,-214.2706 826.7119,-231.7942"/>
<polygon fill="#191970" stroke="#191970" points="738.9041,-164.7732 728.7324,-161.8089 734.8354,-170.4694 738.9041,-164.7732"/>
</g>
<!-- Node312346&#45;&gt;Node312354 -->
<g id="edge14" class="edge">
<title>Node312346&#45;&gt;Node312354</title>
<path fill="none" stroke="#191970" d="M745.5745,-138.0432C749.1026,-136.3701 752.6386,-134.6645 756,-133 772.2128,-124.9717 775.3816,-121.1511 792,-114 799.9216,-110.5912 808.674,-107.3738 816.859,-104.5892"/>
<polygon fill="#191970" stroke="#191970" points="743.9531,-134.9376 736.3792,-142.3461 746.9201,-141.2778 743.9531,-134.9376"/>
</g>
<!-- Node312349&#45;&gt;Node312347 -->
<g id="edge16" class="edge">
<title>Node312349&#45;&gt;Node312347</title>
<path fill="none" stroke="#191970" d="M635.3696,-261.9077C683.3467,-258.544 750.6669,-253.8241 796.6243,-250.602"/>
<polygon fill="#191970" stroke="#191970" points="634.8678,-258.4342 625.1371,-262.6251 635.3574,-265.417 634.8678,-258.4342"/>
</g>
<!-- Node312352&#45;&gt;Node312342 -->
<g id="edge19" class="edge">
<title>Node312352&#45;&gt;Node312342</title>
<path fill="none" stroke="#191970" d="M621.473,-88.2462C640.4946,-93.484 662.3751,-99.5091 680.1879,-104.4141"/>
<polygon fill="#191970" stroke="#191970" points="622.3936,-84.8695 611.8232,-85.589 620.5352,-91.6183 622.3936,-84.8695"/>
</g>
<!-- Node312352&#45;&gt;Node312354 -->
<g id="edge20" class="edge">
<title>Node312352&#45;&gt;Node312354</title>
<path fill="none" stroke="#191970" d="M648.2046,-80.9922C697.9206,-84.4778 762.6694,-89.0174 804.7742,-91.9694"/>
<polygon fill="#191970" stroke="#191970" points="648.3759,-77.4957 638.1556,-80.2877 647.8863,-84.4786 648.3759,-77.4957"/>
</g>
</g>
</svg>
        <g id="navigator" transform="translate(0 0)" fill="#404254">
                <rect fill="#f2f5e9" fill-opacity="0.5" stroke="#606060" stroke-width=".5" x="0" y="0" width="60" height="60"/>
                <use id="zoomplus" xlink:href="#zoomPlus" x="17" y="9" onmousedown="handleZoom(evt,'in')"/>
                <use id="zoomminus" xlink:href="#zoomMin" x="42" y="9" onmousedown="handleZoom(evt,'out')"/>
                <use id="reset" xlink:href="#resetDef" x="30" y="36" onmousedown="handleReset()"/>
                <g id="arrowUp" xlink:href="#dirArrow" transform="translate(30 24)" onmousedown="handlePan(0,-1)">
                  <use xlink:href="#rim" fill="#404040">
                        <set attributeName="fill" to="#808080" begin="arrowUp.mouseover" end="arrowUp.mouseout"/>
                  </use>
                  <path fill="none" stroke="white" stroke-width="1.5" d="M0,-3.0v7 M-2.5,-0.5L0,-3.0L2.5,-0.5"/>
                </g>
                <g id="arrowRight" xlink:href="#dirArrow" transform="rotate(90) translate(36 -43)" onmousedown="handlePan(1,0)">
                  <use xlink:href="#rim" fill="#404040">
                        <set attributeName="fill" to="#808080" begin="arrowRight.mouseover" end="arrowRight.mouseout"/>
                  </use>
                  <path fill="none" stroke="white" stroke-width="1.5" d="M0,-3.0v7 M-2.5,-0.5L0,-3.0L2.5,-0.5"/>
                </g>
                <g id="arrowDown" xlink:href="#dirArrow" transform="rotate(180) translate(-30 -48)" onmousedown="handlePan(0,1)">
                  <use xlink:href="#rim" fill="#404040">
                        <set attributeName="fill" to="#808080" begin="arrowDown.mouseover" end="arrowDown.mouseout"/>
                  </use>
                  <path fill="none" stroke="white" stroke-width="1.5" d="M0,-3.0v7 M-2.5,-0.5L0,-3.0L2.5,-0.5"/>
                </g>
                <g id="arrowLeft" xlink:href="#dirArrow" transform="rotate(270) translate(-36 17)" onmousedown="handlePan(-1,0)">
                  <use xlink:href="#rim" fill="#404040">
                        <set attributeName="fill" to="#808080" begin="arrowLeft.mouseover" end="arrowLeft.mouseout"/>
                  </use>
                  <path fill="none" stroke="white" stroke-width="1.5" d="M0,-3.0v7 M-2.5,-0.5L0,-3.0L2.5,-0.5"/>
                </g>
        </g>
        <svg viewBox="0 0 15 15" width="100%" height="30px" preserveAspectRatio="xMaxYMin meet">
         <g id="arrow_out" transform="scale(0.3 0.3)">
          <a xlink:href="quickjs_8c_ad48dbcc587663ec98a4283179c2b96e9_icgraph_org.svg" target="_base">
           <rect id="button" ry="5" rx="5" y="6" x="6" height="38" width="38"
                fill="#f2f5e9" fill-opacity="0.5" stroke="#606060" stroke-width="1.0"/>
           <path id="arrow"
             d="M 11.500037,31.436501 C 11.940474,20.09759 22.043105,11.32322 32.158766,21.979434 L 37.068811,17.246167 C 37.068811,17.246167 37.088388,32 37.088388,32 L 22.160133,31.978069 C 22.160133,31.978069 26.997745,27.140456 26.997745,27.140456 C 18.528582,18.264221 13.291696,25.230495 11.500037,31.436501 z"
             style="fill:#404040;"/>
          </a>
         </g>
        </svg>
</svg>
