<?xml version="1.0" encoding="UTF-8" standalone="no"?>
<!DOCTYPE svg PUBLIC "-//W3C//DTD SVG 1.1//EN"
 "http://www.w3.org/Graphics/SVG/1.1/DTD/svg11.dtd">
<!-- Generated by graphviz version 2.40.1 (20161225.0304)
 -->
<!-- Title: js_operator_in Pages: 1 -->
<!--zoomable 368 -->
<svg id="main" version="1.1" xmlns="http://www.w3.org/2000/svg" xmlns:xlink="http://www.w3.org/1999/xlink" xml:space="preserve" onload="init(evt)">
<style type="text/css"><![CDATA[
.edge:hover path { stroke: red; }
.edge:hover polygon { stroke: red; fill: red; }
]]></style>
<script type="text/javascript"><![CDATA[
var edges = document.getElementsByTagName('g');
if (edges && edges.length) {
  for (var i=0;i<edges.length;i++) {
    if (edges[i].id.substr(0,4)=='edge') {
      edges[i].setAttribute('class','edge');
    }
  }
}
]]></script>
        <defs>
                <circle id="rim" cx="0" cy="0" r="7"/>
                <circle id="rim2" cx="0" cy="0" r="3.5"/>
                <g id="zoomPlus">
                        <use xlink:href="#rim" fill="#404040">
                                <set attributeName="fill" to="#808080" begin="zoomplus.mouseover" end="zoomplus.mouseout"/>
                        </use>
                        <path d="M-4,0h8M0,-4v8" fill="none" stroke="white" stroke-width="1.5" pointer-events="none"/>
                </g>
                <g id="zoomMin">
                        <use xlink:href="#rim" fill="#404040">
                                <set attributeName="fill" to="#808080" begin="zoomminus.mouseover" end="zoomminus.mouseout"/>
                        </use>
                        <path d="M-4,0h8" fill="none" stroke="white" stroke-width="1.5" pointer-events="none"/>
                </g>
                <g id="dirArrow">
                        <path fill="none" stroke="white" stroke-width="1.5" d="M0,-3.0v7 M-2.5,-0.5L0,-3.0L2.5,-0.5"/>
                </g>
               <g id="resetDef">
                       <use xlink:href="#rim2" fill="#404040">
                               <set attributeName="fill" to="#808080" begin="reset.mouseover" end="reset.mouseout"/>
                       </use>
               </g>
        </defs>

<script type="text/javascript">
var viewWidth = 1076;
var viewHeight = 368;
var sectionId = 'dynsection-778';
</script>
<script xlink:href="svgpan.js"/>
<svg id="graph" class="graph">
<g id="viewport">
<title>js_operator_in</title>
<!-- Node268590 -->
<g id="node1" class="node">
<title>Node268590</title>
<polygon fill="#bfbfbf" stroke="#000000" points="0,-131.1593 0,-150.1593 77,-150.1593 77,-131.1593 0,-131.1593"/>
<text text-anchor="middle" x="38.5" y="-138.1593" font-family="Helvetica,sans-Serif" font-size="10.00" fill="#000000">js_operator_in</text>
</g>
<!-- Node268591 -->
<g id="node2" class="node">
<title>Node268591</title>
<g id="a_node2"><a xlink:href="quickjs_8c.html#ab7fc45a99935a1c0ba50b0216d9401a9" target="_top" xlink:title="JS_FreeAtom">
<polygon fill="none" stroke="#000000" points="119,-302.1593 119,-321.1593 196,-321.1593 196,-302.1593 119,-302.1593"/>
<text text-anchor="middle" x="157.5" y="-309.1593" font-family="Helvetica,sans-Serif" font-size="10.00" fill="#000000">JS_FreeAtom</text>
</a>
</g>
</g>
<!-- Node268590&#45;&gt;Node268591 -->
<g id="edge1" class="edge">
<title>Node268590&#45;&gt;Node268591</title>
<path fill="none" stroke="#191970" d="M41.2075,-150.4617C48.689,-175.9872 71.8593,-245.4543 113,-287.6593 116.4196,-291.1674 120.4633,-294.2866 124.6965,-297.0197"/>
<polygon fill="#191970" stroke="#191970" points="123.0985,-300.1382 133.5123,-302.0885 126.5877,-294.0698 123.0985,-300.1382"/>
</g>
<!-- Node268597 -->
<g id="node6" class="node">
<title>Node268597</title>
<g id="a_node6"><a xlink:href="quickjs_8h.html#afaa20c47565bc704c6c85f3d77254e7d" target="_top" xlink:title="JS_FreeValue">
<polygon fill="none" stroke="#000000" points="584,-226.1593 584,-245.1593 662,-245.1593 662,-226.1593 584,-226.1593"/>
<text text-anchor="middle" x="623" y="-233.1593" font-family="Helvetica,sans-Serif" font-size="10.00" fill="#000000">JS_FreeValue</text>
</a>
</g>
</g>
<!-- Node268590&#45;&gt;Node268597 -->
<g id="edge5" class="edge">
<title>Node268590&#45;&gt;Node268597</title>
<path fill="none" stroke="#191970" d="M65.7534,-150.1795C126.9035,-170.9265 280.1037,-219.4919 413,-233.6593 467.761,-239.4971 531.0082,-239.1423 573.6637,-237.8701"/>
<polygon fill="#191970" stroke="#191970" points="573.8982,-241.3644 583.7786,-237.5397 573.6696,-234.3681 573.8982,-241.3644"/>
</g>
<!-- Node268629 -->
<g id="node9" class="node">
<title>Node268629</title>
<g id="a_node9"><a xlink:href="quickjs_8c.html#a9d6d0a9704951d01c128975e0d2213f8" target="_top" xlink:title="JS_HasProperty">
<polygon fill="none" stroke="#000000" points="113,-131.1593 113,-150.1593 202,-150.1593 202,-131.1593 113,-131.1593"/>
<text text-anchor="middle" x="157.5" y="-138.1593" font-family="Helvetica,sans-Serif" font-size="10.00" fill="#000000">JS_HasProperty</text>
</a>
</g>
</g>
<!-- Node268590&#45;&gt;Node268629 -->
<g id="edge9" class="edge">
<title>Node268590&#45;&gt;Node268629</title>
<path fill="none" stroke="#191970" d="M77.1359,-140.6593C85.3307,-140.6593 94.13,-140.6593 102.793,-140.6593"/>
<polygon fill="#191970" stroke="#191970" points="102.8556,-144.1594 112.8555,-140.6593 102.8555,-137.1594 102.8556,-144.1594"/>
</g>
<!-- Node268973 -->
<g id="node16" class="node">
<title>Node268973</title>
<g id="a_node16"><a xlink:href="quickjs_8h.html#a93abffa925714e249a6aa2f4ae7900f6" target="_top" xlink:title="JS_NewBool">
<polygon fill="none" stroke="#000000" points="120.5,-93.1593 120.5,-112.1593 194.5,-112.1593 194.5,-93.1593 120.5,-93.1593"/>
<text text-anchor="middle" x="157.5" y="-100.1593" font-family="Helvetica,sans-Serif" font-size="10.00" fill="#000000">JS_NewBool</text>
</a>
</g>
</g>
<!-- Node268590&#45;&gt;Node268973 -->
<g id="edge21" class="edge">
<title>Node268590&#45;&gt;Node268973</title>
<path fill="none" stroke="#191970" d="M68.5287,-131.0703C83.4677,-126.2999 101.7227,-120.4705 117.8006,-115.3364"/>
<polygon fill="#191970" stroke="#191970" points="119.0195,-118.6214 127.4809,-112.2452 116.8901,-111.9531 119.0195,-118.6214"/>
</g>
<!-- Node268719 -->
<g id="node17" class="node">
<title>Node268719</title>
<g id="a_node17"><a xlink:href="quickjs_8c.html#a859d5c989a2aaecef1653b3ac279e108" target="_top" xlink:title="JS_ValueToAtom">
<polygon fill="none" stroke="#ff0000" points="261,-1.1593 261,-20.1593 354,-20.1593 354,-1.1593 261,-1.1593"/>
<text text-anchor="middle" x="307.5" y="-8.1593" font-family="Helvetica,sans-Serif" font-size="10.00" fill="#000000">JS_ValueToAtom</text>
</a>
</g>
</g>
<!-- Node268590&#45;&gt;Node268719 -->
<g id="edge22" class="edge">
<title>Node268590&#45;&gt;Node268719</title>
<path fill="none" stroke="#191970" d="M48.9056,-131.0892C62.7051,-118.7916 88.2152,-97.3954 113,-83.6593 161.9611,-56.5243 223.0449,-35.4597 263.5565,-23.0786"/>
<polygon fill="#191970" stroke="#191970" points="264.5723,-26.428 273.1394,-20.1946 262.555,-19.725 264.5723,-26.428"/>
</g>
<!-- Node268592 -->
<g id="node3" class="node">
<title>Node268592</title>
<g id="a_node3"><a xlink:href="quickjs_8c.html#a7f6796ee7a195631366f57c713a33f65" target="_top" xlink:title="__JS_AtomIsConst">
<polygon fill="none" stroke="#000000" points="256.5,-340.1593 256.5,-359.1593 358.5,-359.1593 358.5,-340.1593 256.5,-340.1593"/>
<text text-anchor="middle" x="307.5" y="-347.1593" font-family="Helvetica,sans-Serif" font-size="10.00" fill="#000000">__JS_AtomIsConst</text>
</a>
</g>
</g>
<!-- Node268591&#45;&gt;Node268592 -->
<g id="edge2" class="edge">
<title>Node268591&#45;&gt;Node268592</title>
<path fill="none" stroke="#191970" d="M195.3513,-321.2483C214.9671,-326.2176 239.1187,-332.336 259.979,-337.6206"/>
<polygon fill="#191970" stroke="#191970" points="259.3675,-341.0762 269.9209,-340.1392 261.0866,-334.2906 259.3675,-341.0762"/>
</g>
<!-- Node268593 -->
<g id="node4" class="node">
<title>Node268593</title>
<g id="a_node4"><a xlink:href="quickjs_8c.html#a0bbd9e3ecd55e3ea6c9d44bfda382095" target="_top" xlink:title="__JS_FreeAtom">
<polygon fill="none" stroke="#000000" points="703,-300.1593 703,-319.1593 790,-319.1593 790,-300.1593 703,-300.1593"/>
<text text-anchor="middle" x="746.5" y="-307.1593" font-family="Helvetica,sans-Serif" font-size="10.00" fill="#000000">__JS_FreeAtom</text>
</a>
</g>
</g>
<!-- Node268591&#45;&gt;Node268593 -->
<g id="edge3" class="edge">
<title>Node268591&#45;&gt;Node268593</title>
<path fill="none" stroke="#191970" d="M196.1459,-311.5281C298.2519,-311.1814 575.3958,-310.2403 692.7961,-309.8416"/>
<polygon fill="#191970" stroke="#191970" points="692.9921,-313.3411 702.9802,-309.8071 692.9683,-306.3411 692.9921,-313.3411"/>
</g>
<!-- Node268594 -->
<g id="node5" class="node">
<title>Node268594</title>
<g id="a_node5"><a xlink:href="quickjs_8c.html#a58c8965dad50b15b75918a09f3d9dc7c" target="_top" xlink:title="JS_FreeAtomStruct">
<polygon fill="none" stroke="#ff0000" points="965,-267.1593 965,-286.1593 1068,-286.1593 1068,-267.1593 965,-267.1593"/>
<text text-anchor="middle" x="1016.5" y="-274.1593" font-family="Helvetica,sans-Serif" font-size="10.00" fill="#000000">JS_FreeAtomStruct</text>
</a>
</g>
</g>
<!-- Node268593&#45;&gt;Node268594 -->
<g id="edge4" class="edge">
<title>Node268593&#45;&gt;Node268594</title>
<path fill="none" stroke="#191970" d="M790.1802,-304.3206C834.7223,-298.8766 904.2326,-290.3809 954.4701,-284.2407"/>
<polygon fill="#191970" stroke="#191970" points="955.0628,-287.6944 964.5643,-283.007 954.2135,-280.7461 955.0628,-287.6944"/>
</g>
<!-- Node268598 -->
<g id="node7" class="node">
<title>Node268598</title>
<g id="a_node7"><a xlink:href="quickjs_8c.html#aa059f309c30fd5166d16c82a97973146" target="_top" xlink:title="__JS_FreeValue">
<polygon fill="none" stroke="#000000" points="702,-229.1593 702,-248.1593 791,-248.1593 791,-229.1593 702,-229.1593"/>
<text text-anchor="middle" x="746.5" y="-236.1593" font-family="Helvetica,sans-Serif" font-size="10.00" fill="#000000">__JS_FreeValue</text>
</a>
</g>
</g>
<!-- Node268597&#45;&gt;Node268598 -->
<g id="edge6" class="edge">
<title>Node268597&#45;&gt;Node268598</title>
<path fill="none" stroke="#191970" d="M662.0762,-236.6085C671.412,-236.8353 681.5507,-237.0816 691.4566,-237.3222"/>
<polygon fill="#191970" stroke="#191970" points="691.5696,-240.8259 701.6517,-237.5699 691.7397,-233.8279 691.5696,-240.8259"/>
</g>
<!-- Node268599 -->
<g id="node8" class="node">
<title>Node268599</title>
<g id="a_node8"><a xlink:href="quickjs_8c.html#ab1ea3fad7d138be12144a38be4d36423" target="_top" xlink:title="__JS_FreeValueRT">
<polygon fill="none" stroke="#ff0000" points="827,-248.1593 827,-267.1593 929,-267.1593 929,-248.1593 827,-248.1593"/>
<text text-anchor="middle" x="878" y="-255.1593" font-family="Helvetica,sans-Serif" font-size="10.00" fill="#000000">__JS_FreeValueRT</text>
</a>
</g>
</g>
<!-- Node268598&#45;&gt;Node268599 -->
<g id="edge7" class="edge">
<title>Node268598&#45;&gt;Node268599</title>
<path fill="none" stroke="#191970" d="M791.0199,-245.0918C799.2672,-246.2834 808.0138,-247.5472 816.6583,-248.7962"/>
<polygon fill="#191970" stroke="#191970" points="816.3255,-252.2844 826.7233,-250.2505 817.3266,-245.3563 816.3255,-252.2844"/>
</g>
<!-- Node268599&#45;&gt;Node268594 -->
<g id="edge8" class="edge">
<title>Node268599&#45;&gt;Node268594</title>
<path fill="none" stroke="#191970" d="M929.1788,-264.6802C937.4866,-265.8199 946.1674,-267.0108 954.6959,-268.1807"/>
<polygon fill="#191970" stroke="#191970" points="954.2231,-271.6486 964.6061,-269.5403 955.1746,-264.7135 954.2231,-271.6486"/>
</g>
<!-- Node268629&#45;&gt;Node268597 -->
<g id="edge18" class="edge">
<title>Node268629&#45;&gt;Node268597</title>
<path fill="none" stroke="#191970" d="M186.6695,-150.1826C233.7697,-165.2112 329.7189,-194.3877 413,-210.6593 467.4285,-221.2936 530.7356,-228.0821 573.4961,-231.8609"/>
<polygon fill="#191970" stroke="#191970" points="573.3741,-235.3633 583.6376,-232.7348 573.975,-228.3892 573.3741,-235.3633"/>
</g>
<!-- Node268630 -->
<g id="node10" class="node">
<title>Node268630</title>
<g id="a_node10"><a xlink:href="quickjs_8c.html#add3eea1f6d626963ade3c28a1fd563d1" target="_top" xlink:title="JS_AtomIsNumericIndex">
<polygon fill="none" stroke="#000000" points="244.5,-131.1593 244.5,-150.1593 370.5,-150.1593 370.5,-131.1593 244.5,-131.1593"/>
<text text-anchor="middle" x="307.5" y="-138.1593" font-family="Helvetica,sans-Serif" font-size="10.00" fill="#000000">JS_AtomIsNumericIndex</text>
</a>
</g>
</g>
<!-- Node268629&#45;&gt;Node268630 -->
<g id="edge10" class="edge">
<title>Node268629&#45;&gt;Node268630</title>
<path fill="none" stroke="#191970" d="M202.0988,-140.6593C212.2811,-140.6593 223.3633,-140.6593 234.391,-140.6593"/>
<polygon fill="#191970" stroke="#191970" points="234.4757,-144.1594 244.4757,-140.6593 234.4757,-137.1594 234.4757,-144.1594"/>
</g>
<!-- Node268644 -->
<g id="node14" class="node">
<title>Node268644</title>
<g id="a_node14"><a xlink:href="quickjs_8h.html#a775522f2d084fc8fa0fcb33f390006b4" target="_top" xlink:title="JS_DupValue">
<polygon fill="none" stroke="#000000" points="440,-36.1593 440,-55.1593 517,-55.1593 517,-36.1593 440,-36.1593"/>
<text text-anchor="middle" x="478.5" y="-43.1593" font-family="Helvetica,sans-Serif" font-size="10.00" fill="#000000">JS_DupValue</text>
</a>
</g>
</g>
<!-- Node268629&#45;&gt;Node268644 -->
<g id="edge17" class="edge">
<title>Node268629&#45;&gt;Node268644</title>
<path fill="none" stroke="#191970" d="M191.8394,-131.0838C235.1465,-118.9075 311.8302,-97.0137 377,-76.6593 393.0985,-71.6312 396.898,-69.6762 413,-64.6593 420.0723,-62.4558 427.5997,-60.1945 434.9375,-58.0353"/>
<polygon fill="#191970" stroke="#191970" points="436.1453,-61.329 444.7655,-55.1693 434.1855,-54.6089 436.1453,-61.329"/>
</g>
<!-- Node268905 -->
<g id="node15" class="node">
<title>Node268905</title>
<g id="a_node15"><a xlink:href="quickjs_8c.html#ad13892c0a0f11781b566808876658099" target="_top" xlink:title="JS_GetOwnPropertyInternal">
<polygon fill="none" stroke="#ff0000" points="238,-48.1593 238,-67.1593 377,-67.1593 377,-48.1593 238,-48.1593"/>
<text text-anchor="middle" x="307.5" y="-55.1593" font-family="Helvetica,sans-Serif" font-size="10.00" fill="#000000">JS_GetOwnPropertyInternal</text>
</a>
</g>
</g>
<!-- Node268629&#45;&gt;Node268905 -->
<g id="edge19" class="edge">
<title>Node268629&#45;&gt;Node268905</title>
<path fill="none" stroke="#191970" d="M184.7905,-131.0974C190.7088,-128.4621 196.7597,-125.3061 202,-121.6593 221.0956,-108.3704 218.6067,-96.5098 238,-83.6593 245.7287,-78.538 254.6047,-74.2414 263.3721,-70.7104"/>
<polygon fill="#191970" stroke="#191970" points="264.652,-73.9685 272.7836,-67.1767 262.1914,-67.4152 264.652,-73.9685"/>
</g>
<!-- Node268630&#45;&gt;Node268597 -->
<g id="edge14" class="edge">
<title>Node268630&#45;&gt;Node268597</title>
<path fill="none" stroke="#191970" d="M332.4595,-150.2933C353.7156,-158.3423 385.1493,-169.8795 413,-178.6593 467.703,-195.9041 531.3855,-212.7432 574.1551,-223.592"/>
<polygon fill="#191970" stroke="#191970" points="573.4703,-227.0289 584.0228,-226.0829 575.1836,-220.2418 573.4703,-227.0289"/>
</g>
<!-- Node268631 -->
<g id="node11" class="node">
<title>Node268631</title>
<g id="a_node11"><a xlink:href="quickjs_8c.html#ab4e100a9cde5f7ec87c92f5e766dbbab" target="_top" xlink:title="JS_AtomIsNumericIndex1">
<polygon fill="none" stroke="#ff0000" points="413,-150.1593 413,-169.1593 544,-169.1593 544,-150.1593 413,-150.1593"/>
<text text-anchor="middle" x="478.5" y="-157.1593" font-family="Helvetica,sans-Serif" font-size="10.00" fill="#000000">JS_AtomIsNumericIndex1</text>
</a>
</g>
</g>
<!-- Node268630&#45;&gt;Node268631 -->
<g id="edge11" class="edge">
<title>Node268630&#45;&gt;Node268631</title>
<path fill="none" stroke="#191970" d="M370.6883,-147.6802C381.1425,-148.8418 392.0752,-150.0565 402.7995,-151.2481"/>
<polygon fill="#191970" stroke="#191970" points="402.6699,-154.7552 412.9953,-152.381 403.443,-147.798 402.6699,-154.7552"/>
</g>
<!-- Node268636 -->
<g id="node12" class="node">
<title>Node268636</title>
<g id="a_node12"><a xlink:href="quickjs_8h.html#ad80a83d73e9b7d872b88fbf2943aebe9" target="_top" xlink:title="JS_IsException">
<polygon fill="none" stroke="#000000" points="580,-112.1593 580,-131.1593 666,-131.1593 666,-112.1593 580,-112.1593"/>
<text text-anchor="middle" x="623" y="-119.1593" font-family="Helvetica,sans-Serif" font-size="10.00" fill="#000000">JS_IsException</text>
</a>
</g>
</g>
<!-- Node268630&#45;&gt;Node268636 -->
<g id="edge15" class="edge">
<title>Node268630&#45;&gt;Node268636</title>
<path fill="none" stroke="#191970" d="M370.5879,-136.86C428.8715,-133.3501 514.5129,-128.1926 569.5197,-124.88"/>
<polygon fill="#191970" stroke="#191970" points="569.9863,-128.3583 579.7578,-124.2634 569.5655,-121.371 569.9863,-128.3583"/>
</g>
<!-- Node268808 -->
<g id="node13" class="node">
<title>Node268808</title>
<g id="a_node13"><a xlink:href="quickjs_8h.html#a4e407128a9605afb77523e49e9a627fd" target="_top" xlink:title="JS_IsUndefined">
<polygon fill="none" stroke="#000000" points="435.5,-74.1593 435.5,-93.1593 521.5,-93.1593 521.5,-74.1593 435.5,-74.1593"/>
<text text-anchor="middle" x="478.5" y="-81.1593" font-family="Helvetica,sans-Serif" font-size="10.00" fill="#000000">JS_IsUndefined</text>
</a>
</g>
</g>
<!-- Node268630&#45;&gt;Node268808 -->
<g id="edge16" class="edge">
<title>Node268630&#45;&gt;Node268808</title>
<path fill="none" stroke="#191970" d="M336.1216,-131.1188C364.6046,-121.6244 408.5004,-106.9925 440.0211,-96.4856"/>
<polygon fill="#191970" stroke="#191970" points="441.4051,-99.7137 449.7851,-93.2309 439.1914,-93.0729 441.4051,-99.7137"/>
</g>
<!-- Node268631&#45;&gt;Node268597 -->
<g id="edge12" class="edge">
<title>Node268631&#45;&gt;Node268597</title>
<path fill="none" stroke="#191970" d="M509.1144,-169.2314C520.3287,-173.1623 532.9679,-178.1014 544,-183.6593 564.7163,-194.0961 586.6265,-208.8497 602.1041,-219.9774"/>
<polygon fill="#191970" stroke="#191970" points="600.2767,-222.9769 610.416,-226.0501 604.4062,-217.3247 600.2767,-222.9769"/>
</g>
<!-- Node268631&#45;&gt;Node268636 -->
<g id="edge13" class="edge">
<title>Node268631&#45;&gt;Node268636</title>
<path fill="none" stroke="#191970" d="M514.9635,-150.0703C533.7741,-145.1235 556.9146,-139.0382 576.9472,-133.7701"/>
<polygon fill="#191970" stroke="#191970" points="578.0177,-137.1076 586.7988,-131.1793 576.2374,-130.3378 578.0177,-137.1076"/>
</g>
<!-- Node268905&#45;&gt;Node268644 -->
<g id="edge20" class="edge">
<title>Node268905&#45;&gt;Node268644</title>
<path fill="none" stroke="#191970" d="M377.0522,-52.7784C394.6496,-51.5435 413.1813,-50.2431 429.5215,-49.0964"/>
<polygon fill="#191970" stroke="#191970" points="430.1806,-52.5588 439.911,-48.3673 429.6905,-45.576 430.1806,-52.5588"/>
</g>
<!-- Node268719&#45;&gt;Node268636 -->
<g id="edge23" class="edge">
<title>Node268719&#45;&gt;Node268636</title>
<path fill="none" stroke="#191970" d="M354.3491,-3.4267C404.231,1.9889 484.0818,3.9524 544,-26.6593 576.7802,-43.4064 601.1115,-80.3892 613.5914,-102.9531"/>
<polygon fill="#191970" stroke="#191970" points="610.5646,-104.7162 618.3421,-111.9107 616.7487,-101.4363 610.5646,-104.7162"/>
</g>
</g>
</svg>
        <g id="navigator" transform="translate(0 0)" fill="#404254">
                <rect fill="#f2f5e9" fill-opacity="0.5" stroke="#606060" stroke-width=".5" x="0" y="0" width="60" height="60"/>
                <use id="zoomplus" xlink:href="#zoomPlus" x="17" y="9" onmousedown="handleZoom(evt,'in')"/>
                <use id="zoomminus" xlink:href="#zoomMin" x="42" y="9" onmousedown="handleZoom(evt,'out')"/>
                <use id="reset" xlink:href="#resetDef" x="30" y="36" onmousedown="handleReset()"/>
                <g id="arrowUp" xlink:href="#dirArrow" transform="translate(30 24)" onmousedown="handlePan(0,-1)">
                  <use xlink:href="#rim" fill="#404040">
                        <set attributeName="fill" to="#808080" begin="arrowUp.mouseover" end="arrowUp.mouseout"/>
                  </use>
                  <path fill="none" stroke="white" stroke-width="1.5" d="M0,-3.0v7 M-2.5,-0.5L0,-3.0L2.5,-0.5"/>
                </g>
                <g id="arrowRight" xlink:href="#dirArrow" transform="rotate(90) translate(36 -43)" onmousedown="handlePan(1,0)">
                  <use xlink:href="#rim" fill="#404040">
                        <set attributeName="fill" to="#808080" begin="arrowRight.mouseover" end="arrowRight.mouseout"/>
                  </use>
                  <path fill="none" stroke="white" stroke-width="1.5" d="M0,-3.0v7 M-2.5,-0.5L0,-3.0L2.5,-0.5"/>
                </g>
                <g id="arrowDown" xlink:href="#dirArrow" transform="rotate(180) translate(-30 -48)" onmousedown="handlePan(0,1)">
                  <use xlink:href="#rim" fill="#404040">
                        <set attributeName="fill" to="#808080" begin="arrowDown.mouseover" end="arrowDown.mouseout"/>
                  </use>
                  <path fill="none" stroke="white" stroke-width="1.5" d="M0,-3.0v7 M-2.5,-0.5L0,-3.0L2.5,-0.5"/>
                </g>
                <g id="arrowLeft" xlink:href="#dirArrow" transform="rotate(270) translate(-36 17)" onmousedown="handlePan(-1,0)">
                  <use xlink:href="#rim" fill="#404040">
                        <set attributeName="fill" to="#808080" begin="arrowLeft.mouseover" end="arrowLeft.mouseout"/>
                  </use>
                  <path fill="none" stroke="white" stroke-width="1.5" d="M0,-3.0v7 M-2.5,-0.5L0,-3.0L2.5,-0.5"/>
                </g>
        </g>
        <svg viewBox="0 0 15 15" width="100%" height="30px" preserveAspectRatio="xMaxYMin meet">
         <g id="arrow_out" transform="scale(0.3 0.3)">
          <a xlink:href="quickjs_8c_a3756e0f1dc63bd8e463e6d4febc6e503_cgraph_org.svg" target="_base">
           <rect id="button" ry="5" rx="5" y="6" x="6" height="38" width="38"
                fill="#f2f5e9" fill-opacity="0.5" stroke="#606060" stroke-width="1.0"/>
           <path id="arrow"
             d="M 11.500037,31.436501 C 11.940474,20.09759 22.043105,11.32322 32.158766,21.979434 L 37.068811,17.246167 C 37.068811,17.246167 37.088388,32 37.088388,32 L 22.160133,31.978069 C 22.160133,31.978069 26.997745,27.140456 26.997745,27.140456 C 18.528582,18.264221 13.291696,25.230495 11.500037,31.436501 z"
             style="fill:#404040;"/>
          </a>
         </g>
        </svg>
</svg>
