<?xml version="1.0" encoding="UTF-8" standalone="no"?>
<!DOCTYPE svg PUBLIC "-//W3C//DTD SVG 1.1//EN"
 "http://www.w3.org/Graphics/SVG/1.1/DTD/svg11.dtd">
<!-- Generated by graphviz version 2.40.1 (20161225.0304)
 -->
<!-- Title: js_realloc2 Pages: 1 -->
<!--zoomable 502 -->
<svg id="main" version="1.1" xmlns="http://www.w3.org/2000/svg" xmlns:xlink="http://www.w3.org/1999/xlink" xml:space="preserve" onload="init(evt)">
<style type="text/css"><![CDATA[
.edge:hover path { stroke: red; }
.edge:hover polygon { stroke: red; fill: red; }
]]></style>
<script type="text/javascript"><![CDATA[
var edges = document.getElementsByTagName('g');
if (edges && edges.length) {
  for (var i=0;i<edges.length;i++) {
    if (edges[i].id.substr(0,4)=='edge') {
      edges[i].setAttribute('class','edge');
    }
  }
}
]]></script>
        <defs>
                <circle id="rim" cx="0" cy="0" r="7"/>
                <circle id="rim2" cx="0" cy="0" r="3.5"/>
                <g id="zoomPlus">
                        <use xlink:href="#rim" fill="#404040">
                                <set attributeName="fill" to="#808080" begin="zoomplus.mouseover" end="zoomplus.mouseout"/>
                        </use>
                        <path d="M-4,0h8M0,-4v8" fill="none" stroke="white" stroke-width="1.5" pointer-events="none"/>
                </g>
                <g id="zoomMin">
                        <use xlink:href="#rim" fill="#404040">
                                <set attributeName="fill" to="#808080" begin="zoomminus.mouseover" end="zoomminus.mouseout"/>
                        </use>
                        <path d="M-4,0h8" fill="none" stroke="white" stroke-width="1.5" pointer-events="none"/>
                </g>
                <g id="dirArrow">
                        <path fill="none" stroke="white" stroke-width="1.5" d="M0,-3.0v7 M-2.5,-0.5L0,-3.0L2.5,-0.5"/>
                </g>
               <g id="resetDef">
                       <use xlink:href="#rim2" fill="#404040">
                               <set attributeName="fill" to="#808080" begin="reset.mouseover" end="reset.mouseout"/>
                       </use>
               </g>
        </defs>

<script type="text/javascript">
var viewWidth = 484;
var viewHeight = 502;
var sectionId = 'dynsection-64';
</script>
<script xlink:href="svgpan.js"/>
<svg id="graph" class="graph">
<g id="viewport">
<title>js_realloc2</title>
<!-- Node17170 -->
<g id="node1" class="node">
<title>Node17170</title>
<polygon fill="#bfbfbf" stroke="#000000" points="0,-246.5 0,-265.5 63,-265.5 63,-246.5 0,-246.5"/>
<text text-anchor="middle" x="31.5" y="-253.5" font-family="Helvetica,sans-Serif" font-size="10.00" fill="#000000">js_realloc2</text>
</g>
<!-- Node17171 -->
<g id="node2" class="node">
<title>Node17171</title>
<g id="a_node2"><a xlink:href="quickjs_8c.html#a0eda61158c0a22ef337abc3a035bca33" target="_top" xlink:title="js_realloc_array">
<polygon fill="none" stroke="#000000" points="99,-246.5 99,-265.5 184,-265.5 184,-246.5 99,-246.5"/>
<text text-anchor="middle" x="141.5" y="-253.5" font-family="Helvetica,sans-Serif" font-size="10.00" fill="#000000">js_realloc_array</text>
</a>
</g>
</g>
<!-- Node17170&#45;&gt;Node17171 -->
<g id="edge1" class="edge">
<title>Node17170&#45;&gt;Node17171</title>
<path fill="none" stroke="#191970" d="M73.0518,-256C81.5061,-256 90.4122,-256 98.9023,-256"/>
<polygon fill="#191970" stroke="#191970" points="73.0216,-252.5001 63.0216,-256 73.0216,-259.5001 73.0216,-252.5001"/>
</g>
<!-- Node17172 -->
<g id="node3" class="node">
<title>Node17172</title>
<g id="a_node3"><a xlink:href="quickjs_8c.html#afa610f3175e9cb11fdceac95071099b5" target="_top" xlink:title="js_resize_array">
<polygon fill="none" stroke="#000000" points="220,-246.5 220,-265.5 303,-265.5 303,-246.5 220,-246.5"/>
<text text-anchor="middle" x="261.5" y="-253.5" font-family="Helvetica,sans-Serif" font-size="10.00" fill="#000000">js_resize_array</text>
</a>
</g>
</g>
<!-- Node17171&#45;&gt;Node17172 -->
<g id="edge2" class="edge">
<title>Node17171&#45;&gt;Node17172</title>
<path fill="none" stroke="#191970" d="M194.3834,-256C202.8939,-256 211.5982,-256 219.7982,-256"/>
<polygon fill="#191970" stroke="#191970" points="194.1454,-252.5001 184.1454,-256 194.1454,-259.5001 194.1454,-252.5001"/>
</g>
<!-- Node17173 -->
<g id="node4" class="node">
<title>Node17173</title>
<g id="a_node4"><a xlink:href="quickjs_8c.html#aff573513d994f4e9ad7b0430c03ddc3d" target="_top" xlink:title="add_arg">
<polygon fill="none" stroke="#ff0000" points="382,-474.5 382,-493.5 433,-493.5 433,-474.5 382,-474.5"/>
<text text-anchor="middle" x="407.5" y="-481.5" font-family="Helvetica,sans-Serif" font-size="10.00" fill="#000000">add_arg</text>
</a>
</g>
</g>
<!-- Node17172&#45;&gt;Node17173 -->
<g id="edge3" class="edge">
<title>Node17172&#45;&gt;Node17173</title>
<path fill="none" stroke="#191970" d="M262.9787,-275.6916C267.1612,-317.0322 282.7381,-413.3034 339,-465 350.6321,-475.6882 367.7571,-480.4382 381.9741,-482.5162"/>
<polygon fill="#191970" stroke="#191970" points="266.4507,-275.2206 262.0768,-265.5707 259.4783,-275.8419 266.4507,-275.2206"/>
</g>
<!-- Node17210 -->
<g id="node5" class="node">
<title>Node17210</title>
<g id="a_node5"><a xlink:href="quickjs_8c.html#a9f64fb61a20cee1cad0eb2680624e341" target="_top" xlink:title="add_closure_var">
<polygon fill="none" stroke="#ff0000" points="363.5,-436.5 363.5,-455.5 451.5,-455.5 451.5,-436.5 363.5,-436.5"/>
<text text-anchor="middle" x="407.5" y="-443.5" font-family="Helvetica,sans-Serif" font-size="10.00" fill="#000000">add_closure_var</text>
</a>
</g>
</g>
<!-- Node17172&#45;&gt;Node17210 -->
<g id="edge4" class="edge">
<title>Node17172&#45;&gt;Node17210</title>
<path fill="none" stroke="#191970" d="M264.8717,-275.9846C271.9679,-311.7316 291.8539,-386.6467 339,-427 345.9382,-432.9385 354.5889,-437.0314 363.3823,-439.8495"/>
<polygon fill="#191970" stroke="#191970" points="268.2576,-275.0458 262.9989,-265.8482 261.3741,-276.3177 268.2576,-275.0458"/>
</g>
<!-- Node17219 -->
<g id="node6" class="node">
<title>Node17219</title>
<g id="a_node6"><a xlink:href="quickjs_8c.html#aaea4bacf94d0db93f4a13f6e88860ad0" target="_top" xlink:title="add_export_entry2">
<polygon fill="none" stroke="#ff0000" points="359,-398.5 359,-417.5 456,-417.5 456,-398.5 359,-398.5"/>
<text text-anchor="middle" x="407.5" y="-405.5" font-family="Helvetica,sans-Serif" font-size="10.00" fill="#000000">add_export_entry2</text>
</a>
</g>
</g>
<!-- Node17172&#45;&gt;Node17219 -->
<g id="edge5" class="edge">
<title>Node17172&#45;&gt;Node17219</title>
<path fill="none" stroke="#191970" d="M267.5651,-275.5764C277.6176,-304.7404 300.5303,-359.3353 339,-389 344.8639,-393.5217 351.7419,-396.9676 358.8365,-399.5936"/>
<polygon fill="#191970" stroke="#191970" points="270.7829,-274.1571 264.3364,-265.7492 264.1326,-276.342 270.7829,-274.1571"/>
</g>
<!-- Node17226 -->
<g id="node7" class="node">
<title>Node17226</title>
<g id="a_node7"><a xlink:href="quickjs_8c.html#ae7344d4ed92b31de7c7ef8716b911cb8" target="_top" xlink:title="add_global_var">
<polygon fill="none" stroke="#ff0000" points="366.5,-360.5 366.5,-379.5 448.5,-379.5 448.5,-360.5 366.5,-360.5"/>
<text text-anchor="middle" x="407.5" y="-367.5" font-family="Helvetica,sans-Serif" font-size="10.00" fill="#000000">add_global_var</text>
</a>
</g>
</g>
<!-- Node17172&#45;&gt;Node17226 -->
<g id="edge6" class="edge">
<title>Node17172&#45;&gt;Node17226</title>
<path fill="none" stroke="#191970" d="M271.81,-274.6043C284.7253,-296.1872 308.864,-331.3189 339,-351 347.1631,-356.3311 356.8112,-360.1813 366.2506,-362.9569"/>
<polygon fill="#191970" stroke="#191970" points="274.722,-272.6483 266.6845,-265.7454 268.663,-276.1539 274.722,-272.6483"/>
</g>
<!-- Node17229 -->
<g id="node8" class="node">
<title>Node17229</title>
<g id="a_node8"><a xlink:href="quickjs_8c.html#a3ff40fe185637ba5525078d1cbedbefa" target="_top" xlink:title="add_import">
<polygon fill="none" stroke="#ff0000" points="375,-322.5 375,-341.5 440,-341.5 440,-322.5 375,-322.5"/>
<text text-anchor="middle" x="407.5" y="-329.5" font-family="Helvetica,sans-Serif" font-size="10.00" fill="#000000">add_import</text>
</a>
</g>
</g>
<!-- Node17172&#45;&gt;Node17229 -->
<g id="edge7" class="edge">
<title>Node17172&#45;&gt;Node17229</title>
<path fill="none" stroke="#191970" d="M280.1503,-272.7669C295.1102,-285.4284 317.1497,-302.3815 339,-313 350.2111,-318.4482 363.2382,-322.5549 374.9035,-325.5305"/>
<polygon fill="#191970" stroke="#191970" points="282.0639,-269.7938 272.2151,-265.8883 277.4788,-275.0831 282.0639,-269.7938"/>
</g>
<!-- Node17231 -->
<g id="node9" class="node">
<title>Node17231</title>
<g id="a_node9"><a xlink:href="quickjs_8c.html#ad5cccb20d07c9e601482d5b2398c2f55" target="_top" xlink:title="add_req_module_entry">
<polygon fill="none" stroke="#ff0000" points="350,-284.5 350,-303.5 465,-303.5 465,-284.5 350,-284.5"/>
<text text-anchor="middle" x="407.5" y="-291.5" font-family="Helvetica,sans-Serif" font-size="10.00" fill="#000000">add_req_module_entry</text>
</a>
</g>
</g>
<!-- Node17172&#45;&gt;Node17231 -->
<g id="edge8" class="edge">
<title>Node17172&#45;&gt;Node17231</title>
<path fill="none" stroke="#191970" d="M308.036,-268.1121C328.3696,-273.4044 351.8713,-279.5213 370.923,-284.4799"/>
<polygon fill="#191970" stroke="#191970" points="308.9012,-264.7207 298.342,-265.589 307.1379,-271.4951 308.9012,-264.7207"/>
</g>
<!-- Node17232 -->
<g id="node10" class="node">
<title>Node17232</title>
<g id="a_node10"><a xlink:href="quickjs_8c.html#ade1e452957ebf589907635cc79718d16" target="_top" xlink:title="add_resolve_entry">
<polygon fill="none" stroke="#ff0000" points="359.5,-246.5 359.5,-265.5 455.5,-265.5 455.5,-246.5 359.5,-246.5"/>
<text text-anchor="middle" x="407.5" y="-253.5" font-family="Helvetica,sans-Serif" font-size="10.00" fill="#000000">add_resolve_entry</text>
</a>
</g>
</g>
<!-- Node17172&#45;&gt;Node17232 -->
<g id="edge9" class="edge">
<title>Node17172&#45;&gt;Node17232</title>
<path fill="none" stroke="#191970" d="M313.4728,-256C328.4611,-256 344.7424,-256 359.4793,-256"/>
<polygon fill="#191970" stroke="#191970" points="313.3378,-252.5001 303.3377,-256 313.3377,-259.5001 313.3378,-252.5001"/>
</g>
<!-- Node17803 -->
<g id="node11" class="node">
<title>Node17803</title>
<g id="a_node11"><a xlink:href="quickjs_8c.html#a18dd9d3b970d353bfd39b504d8102ab7" target="_top" xlink:title="add_star_export_entry">
<polygon fill="none" stroke="#ff0000" points="351,-208.5 351,-227.5 464,-227.5 464,-208.5 351,-208.5"/>
<text text-anchor="middle" x="407.5" y="-215.5" font-family="Helvetica,sans-Serif" font-size="10.00" fill="#000000">add_star_export_entry</text>
</a>
</g>
</g>
<!-- Node17172&#45;&gt;Node17803 -->
<g id="edge10" class="edge">
<title>Node17172&#45;&gt;Node17803</title>
<path fill="none" stroke="#191970" d="M308.036,-243.8879C328.3696,-238.5956 351.8713,-232.4787 370.923,-227.5201"/>
<polygon fill="#191970" stroke="#191970" points="307.1379,-240.5049 298.342,-246.411 308.9012,-247.2793 307.1379,-240.5049"/>
</g>
<!-- Node17804 -->
<g id="node12" class="node">
<title>Node17804</title>
<g id="a_node12"><a xlink:href="quickjs_8c.html#ab2e0855c4317f8e3b05c0a091bc43a29" target="_top" xlink:title="add_var">
<polygon fill="none" stroke="#ff0000" points="382,-170.5 382,-189.5 433,-189.5 433,-170.5 382,-170.5"/>
<text text-anchor="middle" x="407.5" y="-177.5" font-family="Helvetica,sans-Serif" font-size="10.00" fill="#000000">add_var</text>
</a>
</g>
</g>
<!-- Node17172&#45;&gt;Node17804 -->
<g id="edge11" class="edge">
<title>Node17172&#45;&gt;Node17804</title>
<path fill="none" stroke="#191970" d="M280.1503,-239.2331C295.1102,-226.5716 317.1497,-209.6185 339,-199 352.5421,-192.419 368.734,-187.7954 381.9746,-184.7582"/>
<polygon fill="#191970" stroke="#191970" points="277.4788,-236.9169 272.2151,-246.1117 282.0639,-242.2062 277.4788,-236.9169"/>
</g>
<!-- Node17812 -->
<g id="node13" class="node">
<title>Node17812</title>
<g id="a_node13"><a xlink:href="quickjs_8c.html#abe9790a1548fcb007a2c864356f71ef5" target="_top" xlink:title="bc_atom_to_idx">
<polygon fill="none" stroke="#ff0000" points="364.5,-132.5 364.5,-151.5 450.5,-151.5 450.5,-132.5 364.5,-132.5"/>
<text text-anchor="middle" x="407.5" y="-139.5" font-family="Helvetica,sans-Serif" font-size="10.00" fill="#000000">bc_atom_to_idx</text>
</a>
</g>
</g>
<!-- Node17172&#45;&gt;Node17812 -->
<g id="edge12" class="edge">
<title>Node17172&#45;&gt;Node17812</title>
<path fill="none" stroke="#191970" d="M271.81,-237.3957C284.7253,-215.8128 308.864,-180.6811 339,-161 346.6464,-156.0063 355.5959,-152.312 364.4562,-149.5831"/>
<polygon fill="#191970" stroke="#191970" points="268.663,-235.8461 266.6845,-246.2546 274.722,-239.3517 268.663,-235.8461"/>
</g>
<!-- Node17815 -->
<g id="node14" class="node">
<title>Node17815</title>
<g id="a_node14"><a xlink:href="quickjs_8c.html#a51fe964c0b48eb3191aec8c98e73e4c6" target="_top" xlink:title="get_exported_names">
<polygon fill="none" stroke="#ff0000" points="354,-76.5 354,-95.5 461,-95.5 461,-76.5 354,-76.5"/>
<text text-anchor="middle" x="407.5" y="-83.5" font-family="Helvetica,sans-Serif" font-size="10.00" fill="#000000">get_exported_names</text>
</a>
</g>
</g>
<!-- Node17172&#45;&gt;Node17815 -->
<g id="edge13" class="edge">
<title>Node17172&#45;&gt;Node17815</title>
<path fill="none" stroke="#191970" d="M268.63,-237.0552C279.9249,-209.1366 304.2685,-156.6254 339,-123 351.3328,-111.06 368.2876,-101.8607 382.2433,-95.6213"/>
<polygon fill="#191970" stroke="#191970" points="265.3343,-235.8728 264.9456,-246.4605 271.852,-238.4261 265.3343,-235.8728"/>
</g>
<!-- Node17816 -->
<g id="node15" class="node">
<title>Node17816</title>
<g id="a_node15"><a xlink:href="quickjs_8c.html#a7d118830f69bffb6590c82bd3c077ac5" target="_top" xlink:title="JS_WriteSharedArrayBuffer">
<polygon fill="none" stroke="#ff0000" points="339,-38.5 339,-57.5 476,-57.5 476,-38.5 339,-38.5"/>
<text text-anchor="middle" x="407.5" y="-45.5" font-family="Helvetica,sans-Serif" font-size="10.00" fill="#000000">JS_WriteSharedArrayBuffer</text>
</a>
</g>
</g>
<!-- Node17172&#45;&gt;Node17816 -->
<g id="edge15" class="edge">
<title>Node17172&#45;&gt;Node17816</title>
<path fill="none" stroke="#191970" d="M263.8882,-236.1134C269.5857,-197.6109 287.5705,-112.6663 339,-67 343.3373,-63.1487 348.391,-60.0711 353.7517,-57.613"/>
<polygon fill="#191970" stroke="#191970" points="260.3586,-236.0986 262.4911,-246.4766 267.2959,-237.0339 260.3586,-236.0986"/>
</g>
<!-- Node17817 -->
<g id="node16" class="node">
<title>Node17817</title>
<g id="a_node16"><a xlink:href="quickjs_8c.html#ae45b122556638f15e903dc36708dbe20" target="_top" xlink:title="ss_check">
<polygon fill="none" stroke="#ff0000" points="378,-.5 378,-19.5 437,-19.5 437,-.5 378,-.5"/>
<text text-anchor="middle" x="407.5" y="-7.5" font-family="Helvetica,sans-Serif" font-size="10.00" fill="#000000">ss_check</text>
</a>
</g>
</g>
<!-- Node17172&#45;&gt;Node17817 -->
<g id="edge16" class="edge">
<title>Node17172&#45;&gt;Node17817</title>
<path fill="none" stroke="#191970" d="M265.7249,-236.4073C276.7819,-186.8494 307.8741,-58.3583 339,-29 349.4143,-19.1771 364.4552,-14.3551 377.7916,-12.0188"/>
<polygon fill="#191970" stroke="#191970" points="262.2422,-235.9492 263.5152,-246.4672 269.0792,-237.451 262.2422,-235.9492"/>
</g>
<!-- Node17815&#45;&gt;Node17815 -->
<g id="edge14" class="edge">
<title>Node17815&#45;&gt;Node17815</title>
<path fill="none" stroke="#191970" d="M380.2475,-104.6539C381.3867,-109.9368 390.4708,-114 407.5,-114 433.4492,-114 440.9502,-104.5653 430.0028,-95.7571"/>
<polygon fill="#191970" stroke="#191970" points="383.3752,-106.227 384.9972,-95.7571 377.2001,-102.9303 383.3752,-106.227"/>
</g>
</g>
</svg>
        <g id="navigator" transform="translate(0 0)" fill="#404254">
                <rect fill="#f2f5e9" fill-opacity="0.5" stroke="#606060" stroke-width=".5" x="0" y="0" width="60" height="60"/>
                <use id="zoomplus" xlink:href="#zoomPlus" x="17" y="9" onmousedown="handleZoom(evt,'in')"/>
                <use id="zoomminus" xlink:href="#zoomMin" x="42" y="9" onmousedown="handleZoom(evt,'out')"/>
                <use id="reset" xlink:href="#resetDef" x="30" y="36" onmousedown="handleReset()"/>
                <g id="arrowUp" xlink:href="#dirArrow" transform="translate(30 24)" onmousedown="handlePan(0,-1)">
                  <use xlink:href="#rim" fill="#404040">
                        <set attributeName="fill" to="#808080" begin="arrowUp.mouseover" end="arrowUp.mouseout"/>
                  </use>
                  <path fill="none" stroke="white" stroke-width="1.5" d="M0,-3.0v7 M-2.5,-0.5L0,-3.0L2.5,-0.5"/>
                </g>
                <g id="arrowRight" xlink:href="#dirArrow" transform="rotate(90) translate(36 -43)" onmousedown="handlePan(1,0)">
                  <use xlink:href="#rim" fill="#404040">
                        <set attributeName="fill" to="#808080" begin="arrowRight.mouseover" end="arrowRight.mouseout"/>
                  </use>
                  <path fill="none" stroke="white" stroke-width="1.5" d="M0,-3.0v7 M-2.5,-0.5L0,-3.0L2.5,-0.5"/>
                </g>
                <g id="arrowDown" xlink:href="#dirArrow" transform="rotate(180) translate(-30 -48)" onmousedown="handlePan(0,1)">
                  <use xlink:href="#rim" fill="#404040">
                        <set attributeName="fill" to="#808080" begin="arrowDown.mouseover" end="arrowDown.mouseout"/>
                  </use>
                  <path fill="none" stroke="white" stroke-width="1.5" d="M0,-3.0v7 M-2.5,-0.5L0,-3.0L2.5,-0.5"/>
                </g>
                <g id="arrowLeft" xlink:href="#dirArrow" transform="rotate(270) translate(-36 17)" onmousedown="handlePan(-1,0)">
                  <use xlink:href="#rim" fill="#404040">
                        <set attributeName="fill" to="#808080" begin="arrowLeft.mouseover" end="arrowLeft.mouseout"/>
                  </use>
                  <path fill="none" stroke="white" stroke-width="1.5" d="M0,-3.0v7 M-2.5,-0.5L0,-3.0L2.5,-0.5"/>
                </g>
        </g>
        <svg viewBox="0 0 15 15" width="100%" height="30px" preserveAspectRatio="xMaxYMin meet">
         <g id="arrow_out" transform="scale(0.3 0.3)">
          <a xlink:href="quickjs_8h_a1c31248142879982abb1595f97817cd9_icgraph_org.svg" target="_base">
           <rect id="button" ry="5" rx="5" y="6" x="6" height="38" width="38"
                fill="#f2f5e9" fill-opacity="0.5" stroke="#606060" stroke-width="1.0"/>
           <path id="arrow"
             d="M 11.500037,31.436501 C 11.940474,20.09759 22.043105,11.32322 32.158766,21.979434 L 37.068811,17.246167 C 37.068811,17.246167 37.088388,32 37.088388,32 L 22.160133,31.978069 C 22.160133,31.978069 26.997745,27.140456 26.997745,27.140456 C 18.528582,18.264221 13.291696,25.230495 11.500037,31.436501 z"
             style="fill:#404040;"/>
          </a>
         </g>
        </svg>
</svg>
