<?xml version="1.0" encoding="UTF-8" standalone="no"?>
<!DOCTYPE svg PUBLIC "-//W3C//DTD SVG 1.1//EN"
 "http://www.w3.org/Graphics/SVG/1.1/DTD/svg11.dtd">
<!-- Generated by graphviz version 2.40.1 (20161225.0304)
 -->
<!-- Title: js_promise_then_finally_func Pages: 1 -->
<svg width="970pt" height="1069pt"
 viewBox="0.00 0.00 970.00 1068.77" xmlns="http://www.w3.org/2000/svg" xmlns:xlink="http://www.w3.org/1999/xlink">
<g id="graph0" class="graph" transform="scale(1 1) rotate(0) translate(4 1064.7737)">
<title>js_promise_then_finally_func</title>
<!-- Node465782 -->
<g id="node1" class="node">
<title>Node465782</title>
<polygon fill="#bfbfbf" stroke="#000000" points="0,-861.2737 0,-880.2737 143,-880.2737 143,-861.2737 0,-861.2737"/>
<text text-anchor="middle" x="71.5" y="-868.2737" font-family="Helvetica,sans-Serif" font-size="10.00" fill="#000000">js_promise_then_finally_func</text>
</g>
<!-- Node465783 -->
<g id="node2" class="node">
<title>Node465783</title>
<g id="a_node2"><a xlink:href="quickjs_8c.html#a1a4c02a29525d5cb2085dd8bca3af350" target="_top" xlink:title="JS_Call">
<polygon fill="none" stroke="#000000" points="332,-443.2737 332,-462.2737 383,-462.2737 383,-443.2737 332,-443.2737"/>
<text text-anchor="middle" x="357.5" y="-450.2737" font-family="Helvetica,sans-Serif" font-size="10.00" fill="#000000">JS_Call</text>
</a>
</g>
</g>
<!-- Node465782&#45;&gt;Node465783 -->
<g id="edge1" class="edge">
<title>Node465782&#45;&gt;Node465783</title>
<path fill="none" stroke="#191970" d="M74.1844,-861.1197C84.0788,-826.6163 120.9728,-707.0325 179,-623.7737 225.1152,-557.6065 299.7209,-496.4317 336.1337,-468.5786"/>
<polygon fill="#191970" stroke="#191970" points="338.2569,-471.3611 344.1205,-462.5368 334.0338,-465.7785 338.2569,-471.3611"/>
</g>
<!-- Node465837 -->
<g id="node10" class="node">
<title>Node465837</title>
<g id="a_node10"><a xlink:href="quickjs_8h.html#afaa20c47565bc704c6c85f3d77254e7d" target="_top" xlink:title="JS_FreeValue">
<polygon fill="none" stroke="#ff0000" points="884,-728.2737 884,-747.2737 962,-747.2737 962,-728.2737 884,-728.2737"/>
<text text-anchor="middle" x="923" y="-735.2737" font-family="Helvetica,sans-Serif" font-size="10.00" fill="#000000">JS_FreeValue</text>
</a>
</g>
</g>
<!-- Node465782&#45;&gt;Node465837 -->
<g id="edge31" class="edge">
<title>Node465782&#45;&gt;Node465837</title>
<path fill="none" stroke="#191970" d="M78.6885,-880.457C108.3344,-919.1753 225.7595,-1060.7737 357.5,-1060.7737 357.5,-1060.7737 357.5,-1060.7737 646,-1060.7737 747.5952,-1060.7737 781.859,-1030.8901 848,-953.7737 898.788,-894.5578 915.798,-798.966 920.9604,-757.7445"/>
<polygon fill="#191970" stroke="#191970" points="924.4575,-757.969 922.1205,-747.6352 917.5032,-757.1709 924.4575,-757.969"/>
</g>
<!-- Node465855 -->
<g id="node12" class="node">
<title>Node465855</title>
<g id="a_node12"><a xlink:href="quickjs_8h.html#ad80a83d73e9b7d872b88fbf2943aebe9" target="_top" xlink:title="JS_IsException">
<polygon fill="none" stroke="#000000" points="762,-861.2737 762,-880.2737 848,-880.2737 848,-861.2737 762,-861.2737"/>
<text text-anchor="middle" x="805" y="-868.2737" font-family="Helvetica,sans-Serif" font-size="10.00" fill="#000000">JS_IsException</text>
</a>
</g>
</g>
<!-- Node465782&#45;&gt;Node465855 -->
<g id="edge37" class="edge">
<title>Node465782&#45;&gt;Node465855</title>
<path fill="none" stroke="#191970" d="M81.8055,-880.5035C99.8932,-896.9574 139.2233,-930.0217 179,-945.7737 236.2115,-968.43 254.6273,-961.3175 316,-965.7737 497.8351,-978.9763 560.675,-1029.624 726,-952.7737 755.867,-938.8901 780.3203,-908.3445 793.7555,-888.706"/>
<polygon fill="#191970" stroke="#191970" points="796.7105,-890.5825 799.2874,-880.3058 790.8643,-886.7325 796.7105,-890.5825"/>
</g>
<!-- Node466217 -->
<g id="node23" class="node">
<title>Node466217</title>
<g id="a_node23"><a xlink:href="quickjs_8c.html#ad31f7a1d61971bfacede26cef8204a91" target="_top" xlink:title="JS_InvokeFree">
<polygon fill="none" stroke="#000000" points="316,-937.2737 316,-956.2737 399,-956.2737 399,-937.2737 316,-937.2737"/>
<text text-anchor="middle" x="357.5" y="-944.2737" font-family="Helvetica,sans-Serif" font-size="10.00" fill="#000000">JS_InvokeFree</text>
</a>
</g>
</g>
<!-- Node465782&#45;&gt;Node466217 -->
<g id="edge32" class="edge">
<title>Node465782&#45;&gt;Node466217</title>
<path fill="none" stroke="#191970" d="M87.2416,-880.3706C107.6349,-892.3292 144.6529,-912.4456 179,-922.7737 220.5619,-935.2712 269.5278,-941.2719 305.6514,-944.147"/>
<polygon fill="#191970" stroke="#191970" points="305.7227,-947.6618 315.954,-944.9102 306.24,-940.6809 305.7227,-947.6618"/>
</g>
<!-- Node466163 -->
<g id="node25" class="node">
<title>Node466163</title>
<g id="a_node25"><a xlink:href="quickjs_8c.html#ac048b0ff95f3f0cb7c189e87f74df753" target="_top" xlink:title="JS_NewCFunctionData">
<polygon fill="none" stroke="#ff0000" points="586,-899.2737 586,-918.2737 706,-918.2737 706,-899.2737 586,-899.2737"/>
<text text-anchor="middle" x="646" y="-906.2737" font-family="Helvetica,sans-Serif" font-size="10.00" fill="#000000">JS_NewCFunctionData</text>
</a>
</g>
</g>
<!-- Node465782&#45;&gt;Node466163 -->
<g id="edge38" class="edge">
<title>Node465782&#45;&gt;Node466163</title>
<path fill="none" stroke="#191970" d="M143.0992,-875.5096C253.9394,-882.841 465.7323,-896.85 575.748,-904.1269"/>
<polygon fill="#191970" stroke="#191970" points="575.5387,-907.6206 585.7479,-904.7883 576.0007,-900.6359 575.5387,-907.6206"/>
</g>
<!-- Node466219 -->
<g id="node26" class="node">
<title>Node466219</title>
<g id="a_node26"><a xlink:href="quickjs_8c.html#ac15a82ecdea657381f26bf441ddc851f" target="_top" xlink:title="js_promise_finally\l_thrower">
<polygon fill="none" stroke="#000000" points="435,-747.7737 435,-777.7737 530,-777.7737 530,-747.7737 435,-747.7737"/>
<text text-anchor="start" x="443" y="-765.7737" font-family="Helvetica,sans-Serif" font-size="10.00" fill="#000000">js_promise_finally</text>
<text text-anchor="middle" x="482.5" y="-754.7737" font-family="Helvetica,sans-Serif" font-size="10.00" fill="#000000">_thrower</text>
</a>
</g>
</g>
<!-- Node465782&#45;&gt;Node466219 -->
<g id="edge42" class="edge">
<title>Node465782&#45;&gt;Node466219</title>
<path fill="none" stroke="#191970" d="M107.9735,-861.1894C179.5957,-842.369 339.1082,-800.4533 425.0351,-777.8739"/>
<polygon fill="#191970" stroke="#191970" points="426.1034,-781.2121 434.8856,-775.2855 424.3244,-774.4419 426.1034,-781.2121"/>
</g>
<!-- Node466220 -->
<g id="node27" class="node">
<title>Node466220</title>
<g id="a_node27"><a xlink:href="quickjs_8c.html#a0824d4a55c9b28ff731b93a2262b4948" target="_top" xlink:title="js_promise_finally\l_value_thunk">
<polygon fill="none" stroke="#000000" points="182,-225.7737 182,-255.7737 277,-255.7737 277,-225.7737 182,-225.7737"/>
<text text-anchor="start" x="190" y="-243.7737" font-family="Helvetica,sans-Serif" font-size="10.00" fill="#000000">js_promise_finally</text>
<text text-anchor="middle" x="229.5" y="-232.7737" font-family="Helvetica,sans-Serif" font-size="10.00" fill="#000000">_value_thunk</text>
</a>
</g>
</g>
<!-- Node465782&#45;&gt;Node466220 -->
<g id="edge45" class="edge">
<title>Node465782&#45;&gt;Node466220</title>
<path fill="none" stroke="#191970" d="M73.9186,-861.13C91.2226,-792.1329 196.2941,-373.177 223.2185,-265.8203"/>
<polygon fill="#191970" stroke="#191970" points="226.6714,-266.4398 225.7092,-255.8887 219.8817,-264.7369 226.6714,-266.4398"/>
</g>
<!-- Node466221 -->
<g id="node28" class="node">
<title>Node466221</title>
<g id="a_node28"><a xlink:href="quickjs_8c.html#a192c7bd4fc5264ccdf89e13ed5bc0dcc" target="_top" xlink:title="js_promise_resolve">
<polygon fill="none" stroke="#000000" points="179,-633.2737 179,-652.2737 280,-652.2737 280,-633.2737 179,-633.2737"/>
<text text-anchor="middle" x="229.5" y="-640.2737" font-family="Helvetica,sans-Serif" font-size="10.00" fill="#000000">js_promise_resolve</text>
</a>
</g>
</g>
<!-- Node465782&#45;&gt;Node466221 -->
<g id="edge47" class="edge">
<title>Node465782&#45;&gt;Node466221</title>
<path fill="none" stroke="#191970" d="M78.0879,-861.2671C102.1292,-826.5745 185.3845,-706.434 217.0992,-660.6684"/>
<polygon fill="#191970" stroke="#191970" points="220.0648,-662.5338 222.884,-652.3209 214.3113,-658.5466 220.0648,-662.5338"/>
</g>
<!-- Node465784 -->
<g id="node3" class="node">
<title>Node465784</title>
<g id="a_node3"><a xlink:href="quickjs_8c.html#ac2894ff4edcdb4e6841bcce9c76081e3" target="_top" xlink:title="JS_CallInternal">
<polygon fill="none" stroke="#ff0000" points="441,-405.2737 441,-424.2737 524,-424.2737 524,-405.2737 441,-405.2737"/>
<text text-anchor="middle" x="482.5" y="-412.2737" font-family="Helvetica,sans-Serif" font-size="10.00" fill="#000000">JS_CallInternal</text>
</a>
</g>
</g>
<!-- Node465783&#45;&gt;Node465784 -->
<g id="edge2" class="edge">
<title>Node465783&#45;&gt;Node465784</title>
<path fill="none" stroke="#191970" d="M373.5857,-443.1813C388.215,-437.0684 410.6168,-429.6088 431.3081,-423.6852"/>
<polygon fill="#191970" stroke="#191970" points="432.2757,-427.049 440.9725,-420.9978 430.4003,-420.3049 432.2757,-427.049"/>
</g>
<!-- Node465784&#45;&gt;Node465783 -->
<g id="edge19" class="edge">
<title>Node465784&#45;&gt;Node465783</title>
<path fill="none" stroke="#191970" d="M466.4512,-424.3506C448.0035,-432.0631 417.1615,-441.9248 392.9917,-448.1396"/>
<polygon fill="#191970" stroke="#191970" points="391.9776,-444.7844 383.0973,-450.5629 393.6428,-451.5835 391.9776,-444.7844"/>
</g>
<!-- Node465784&#45;&gt;Node465784 -->
<g id="edge20" class="edge">
<title>Node465784&#45;&gt;Node465784</title>
<path fill="none" stroke="#191970" d="M463.388,-424.5307C454.0903,-433.3389 460.4609,-442.7737 482.5,-442.7737 496.6188,-442.7737 504.3072,-438.9017 505.5654,-433.8029"/>
<polygon fill="#191970" stroke="#191970" points="508.7537,-432.3567 501.612,-424.5307 502.3146,-435.1023 508.7537,-432.3567"/>
</g>
<!-- Node465785 -->
<g id="node4" class="node">
<title>Node465785</title>
<g id="a_node4"><a xlink:href="quickjs_8c.html#a853f0924d441ea4225488f37c8b69f9a" target="_top" xlink:title="__attribute__">
<polygon fill="none" stroke="#000000" points="609.5,-215.2737 609.5,-234.2737 682.5,-234.2737 682.5,-215.2737 609.5,-215.2737"/>
<text text-anchor="middle" x="646" y="-222.2737" font-family="Helvetica,sans-Serif" font-size="10.00" fill="#000000">__attribute__</text>
</a>
</g>
</g>
<!-- Node465784&#45;&gt;Node465785 -->
<g id="edge3" class="edge">
<title>Node465784&#45;&gt;Node465785</title>
<path fill="none" stroke="#191970" d="M484.2056,-405.2338C489.9379,-376.0866 511.3132,-287.5342 566,-243.7737 575.4915,-236.1786 587.5205,-231.534 599.3486,-228.7174"/>
<polygon fill="#191970" stroke="#191970" points="600.0548,-232.1456 609.1768,-226.7568 598.6853,-225.2808 600.0548,-232.1456"/>
</g>
<!-- Node465786 -->
<g id="node5" class="node">
<title>Node465786</title>
<g id="a_node5"><a xlink:href="quickjs_8c.html#a877fcb7651d95b411ce70e62b7f4a1f0" target="_top" xlink:title="__JS_AtomFromUInt32">
<polygon fill="none" stroke="#000000" points="586.5,-177.2737 586.5,-196.2737 705.5,-196.2737 705.5,-177.2737 586.5,-177.2737"/>
<text text-anchor="middle" x="646" y="-184.2737" font-family="Helvetica,sans-Serif" font-size="10.00" fill="#000000">__JS_AtomFromUInt32</text>
</a>
</g>
</g>
<!-- Node465784&#45;&gt;Node465786 -->
<g id="edge4" class="edge">
<title>Node465784&#45;&gt;Node465786</title>
<path fill="none" stroke="#191970" d="M483.2987,-405.099C486.5871,-371.7943 502.1023,-260.9116 566,-205.7737 569.4365,-202.8083 573.2535,-200.2864 577.3035,-198.1436"/>
<polygon fill="#191970" stroke="#191970" points="578.7877,-201.314 586.4845,-194.0333 575.9273,-194.925 578.7877,-201.314"/>
</g>
<!-- Node465787 -->
<g id="node6" class="node">
<title>Node465787</title>
<g id="a_node6"><a xlink:href="quickjs_8h.html#a9bf98b18de88b4199910a43e933eb97d" target="_top" xlink:title="__JS_NewFloat64">
<polygon fill="none" stroke="#000000" points="597.5,-139.2737 597.5,-158.2737 694.5,-158.2737 694.5,-139.2737 597.5,-139.2737"/>
<text text-anchor="middle" x="646" y="-146.2737" font-family="Helvetica,sans-Serif" font-size="10.00" fill="#000000">__JS_NewFloat64</text>
</a>
</g>
</g>
<!-- Node465784&#45;&gt;Node465787 -->
<g id="edge5" class="edge">
<title>Node465784&#45;&gt;Node465787</title>
<path fill="none" stroke="#191970" d="M484.4451,-405.2134C493.0219,-363.9626 528.694,-201.7684 566,-167.7737 572.1512,-162.1684 579.6495,-158.1308 587.5623,-155.2375"/>
<polygon fill="#191970" stroke="#191970" points="588.8148,-158.5146 597.3571,-152.2473 586.7709,-151.8196 588.8148,-158.5146"/>
</g>
<!-- Node465788 -->
<g id="node7" class="node">
<title>Node465788</title>
<g id="a_node7"><a xlink:href="quickjs_8c.html#a74547db03bf739a52c83a326b32db997" target="_top" xlink:title="add_property">
<polygon fill="none" stroke="#ff0000" points="609.5,-101.2737 609.5,-120.2737 682.5,-120.2737 682.5,-101.2737 609.5,-101.2737"/>
<text text-anchor="middle" x="646" y="-108.2737" font-family="Helvetica,sans-Serif" font-size="10.00" fill="#000000">add_property</text>
</a>
</g>
</g>
<!-- Node465784&#45;&gt;Node465788 -->
<g id="edge6" class="edge">
<title>Node465784&#45;&gt;Node465788</title>
<path fill="none" stroke="#191970" d="M484.0263,-405.0053C491.3109,-359.602 523.9361,-169.7122 566,-129.7737 574.9774,-121.2499 587.0525,-116.3207 599.0966,-113.5289"/>
<polygon fill="#191970" stroke="#191970" points="599.9497,-116.9302 609.1376,-111.6544 598.6651,-110.049 599.9497,-116.9302"/>
</g>
<!-- Node465845 -->
<g id="node8" class="node">
<title>Node465845</title>
<g id="a_node8"><a xlink:href="quickjs_8c.html#a4956f45ffd2849b96dc051277264f87a" target="_top" xlink:title="build_arg_list">
<polygon fill="none" stroke="#ff0000" points="609,-405.2737 609,-424.2737 683,-424.2737 683,-405.2737 609,-405.2737"/>
<text text-anchor="middle" x="646" y="-412.2737" font-family="Helvetica,sans-Serif" font-size="10.00" fill="#000000">build_arg_list</text>
</a>
</g>
</g>
<!-- Node465784&#45;&gt;Node465845 -->
<g id="edge7" class="edge">
<title>Node465784&#45;&gt;Node465845</title>
<path fill="none" stroke="#191970" d="M524.181,-414.7737C546.9276,-414.7737 575.1728,-414.7737 598.7371,-414.7737"/>
<polygon fill="#191970" stroke="#191970" points="598.8578,-418.2738 608.8578,-414.7737 598.8578,-411.2738 598.8578,-418.2738"/>
</g>
<!-- Node465846 -->
<g id="node9" class="node">
<title>Node465846</title>
<g id="a_node9"><a xlink:href="quickjs_8c.html#ac864482356b3efc2d0b0a509fcfa4c7c" target="_top" xlink:title="free_arg_list">
<polygon fill="none" stroke="#ff0000" points="770,-405.2737 770,-424.2737 840,-424.2737 840,-405.2737 770,-405.2737"/>
<text text-anchor="middle" x="805" y="-412.2737" font-family="Helvetica,sans-Serif" font-size="10.00" fill="#000000">free_arg_list</text>
</a>
</g>
</g>
<!-- Node465784&#45;&gt;Node465846 -->
<g id="edge16" class="edge">
<title>Node465784&#45;&gt;Node465846</title>
<path fill="none" stroke="#191970" d="M483.4374,-405.1551C488.4584,-355.8404 513.9083,-132.1114 566,-91.7737 622.2247,-48.2355 670.0617,-47.8681 726,-91.7737 774.73,-130.0215 797.2776,-331.1475 803.2942,-395.1771"/>
<polygon fill="#191970" stroke="#191970" points="799.8109,-395.5204 804.2013,-405.1628 806.7822,-394.8871 799.8109,-395.5204"/>
</g>
<!-- Node465784&#45;&gt;Node465837 -->
<g id="edge22" class="edge">
<title>Node465784&#45;&gt;Node465837</title>
<path fill="none" stroke="#191970" d="M483.1758,-405.1564C487.0813,-352.6516 508.6221,-101.3376 566,-55.7737 621.6883,-11.5515 667.8422,-14.8535 726,-55.7737 840.8823,-136.6054 907.372,-614.24 920.5614,-717.9219"/>
<polygon fill="#191970" stroke="#191970" points="917.1036,-718.4778 921.8197,-727.965 924.0493,-717.6075 917.1036,-718.4778"/>
</g>
<!-- Node465816 -->
<g id="node11" class="node">
<title>Node465816</title>
<g id="a_node11"><a xlink:href="quickjs_8h.html#a775522f2d084fc8fa0fcb33f390006b4" target="_top" xlink:title="JS_DupValue">
<polygon fill="none" stroke="#000000" points="766.5,-519.2737 766.5,-538.2737 843.5,-538.2737 843.5,-519.2737 766.5,-519.2737"/>
<text text-anchor="middle" x="805" y="-526.2737" font-family="Helvetica,sans-Serif" font-size="10.00" fill="#000000">JS_DupValue</text>
</a>
</g>
</g>
<!-- Node465784&#45;&gt;Node465816 -->
<g id="edge21" class="edge">
<title>Node465784&#45;&gt;Node465816</title>
<path fill="none" stroke="#191970" d="M493.5883,-424.336C508.8732,-437.0287 537.7439,-459.288 566,-471.7737 632.8533,-501.3146 654.913,-492.7837 726,-509.7737 735.8784,-512.1346 746.4492,-514.6705 756.5415,-517.0961"/>
<polygon fill="#191970" stroke="#191970" points="755.8898,-520.5391 766.431,-519.4744 757.5266,-513.7331 755.8898,-520.5391"/>
</g>
<!-- Node465784&#45;&gt;Node465855 -->
<g id="edge24" class="edge">
<title>Node465784&#45;&gt;Node465855</title>
<path fill="none" stroke="#191970" d="M483.3898,-424.5716C488.3436,-476.9686 514.184,-723.6524 566,-775.7737 617.5298,-827.6071 659.5371,-783.3647 726,-813.7737 748.8383,-824.223 771.7633,-841.7294 786.9896,-854.5895"/>
<polygon fill="#191970" stroke="#191970" points="784.7552,-857.2844 794.6072,-861.1817 789.3359,-851.9913 784.7552,-857.2844"/>
</g>
<!-- Node465941 -->
<g id="node13" class="node">
<title>Node465941</title>
<g id="a_node13"><a xlink:href="quickjs_8c.html#a61c8dfb5e807af1b6ff7d8ca61576dda" target="_top" xlink:title="build_backtrace">
<polygon fill="none" stroke="#ff0000" points="603.5,-291.2737 603.5,-310.2737 688.5,-310.2737 688.5,-291.2737 603.5,-291.2737"/>
<text text-anchor="middle" x="646" y="-298.2737" font-family="Helvetica,sans-Serif" font-size="10.00" fill="#000000">build_backtrace</text>
</a>
</g>
</g>
<!-- Node465784&#45;&gt;Node465941 -->
<g id="edge12" class="edge">
<title>Node465784&#45;&gt;Node465941</title>
<path fill="none" stroke="#191970" d="M488.0323,-405.2197C499.7653,-385.8584 529.1179,-341.955 566,-319.7737 574.353,-314.7501 583.9415,-311.0546 593.5121,-308.3362"/>
<polygon fill="#191970" stroke="#191970" points="594.5826,-311.676 603.4266,-305.8422 592.8749,-304.8875 594.5826,-311.676"/>
</g>
<!-- Node466028 -->
<g id="node14" class="node">
<title>Node466028</title>
<g id="a_node14"><a xlink:href="quickjs_8c.html#a344894112559c2ba75043fd10bcfa02f" target="_top" xlink:title="close_lexical_var">
<polygon fill="none" stroke="#ff0000" points="600,-443.2737 600,-462.2737 692,-462.2737 692,-443.2737 600,-443.2737"/>
<text text-anchor="middle" x="646" y="-450.2737" font-family="Helvetica,sans-Serif" font-size="10.00" fill="#000000">close_lexical_var</text>
</a>
</g>
</g>
<!-- Node465784&#45;&gt;Node466028 -->
<g id="edge13" class="edge">
<title>Node465784&#45;&gt;Node466028</title>
<path fill="none" stroke="#191970" d="M523.758,-424.3627C545.4307,-429.3998 572.1832,-435.6175 595.1303,-440.9507"/>
<polygon fill="#191970" stroke="#191970" points="594.506,-444.3989 605.0387,-443.2536 596.0907,-437.5806 594.506,-444.3989"/>
</g>
<!-- Node466029 -->
<g id="node15" class="node">
<title>Node466029</title>
<g id="a_node15"><a xlink:href="quickjs_8c.html#a1782043fce951bd4f0d91c7796b31e24" target="_top" xlink:title="close_var_refs">
<polygon fill="none" stroke="#ff0000" points="606,-253.2737 606,-272.2737 686,-272.2737 686,-253.2737 606,-253.2737"/>
<text text-anchor="middle" x="646" y="-260.2737" font-family="Helvetica,sans-Serif" font-size="10.00" fill="#000000">close_var_refs</text>
</a>
</g>
</g>
<!-- Node465784&#45;&gt;Node466029 -->
<g id="edge15" class="edge">
<title>Node465784&#45;&gt;Node466029</title>
<path fill="none" stroke="#191970" d="M485.7119,-404.9169C494.3531,-380.0294 520.5663,-314.3243 566,-281.7737 574.706,-275.5363 585.18,-271.323 595.638,-268.4831"/>
<polygon fill="#191970" stroke="#191970" points="596.6577,-271.8393 605.6016,-266.1599 595.068,-265.0222 596.6577,-271.8393"/>
</g>
<!-- Node465834 -->
<g id="node16" class="node">
<title>Node465834</title>
<g id="a_node16"><a xlink:href="quickjs_8c.html#a9e7b4bccf927d811b0f99b40b08c0472" target="_top" xlink:title="free_var_ref">
<polygon fill="none" stroke="#ff0000" points="612,-367.2737 612,-386.2737 680,-386.2737 680,-367.2737 612,-367.2737"/>
<text text-anchor="middle" x="646" y="-374.2737" font-family="Helvetica,sans-Serif" font-size="10.00" fill="#000000">free_var_ref</text>
</a>
</g>
</g>
<!-- Node465784&#45;&gt;Node465834 -->
<g id="edge17" class="edge">
<title>Node465784&#45;&gt;Node465834</title>
<path fill="none" stroke="#191970" d="M523.758,-405.1847C547.5973,-399.644 577.5828,-392.6749 601.8892,-387.0257"/>
<polygon fill="#191970" stroke="#191970" points="602.976,-390.3665 611.9241,-384.6935 601.3913,-383.5482 602.976,-390.3665"/>
</g>
<!-- Node466031 -->
<g id="node17" class="node">
<title>Node466031</title>
<g id="a_node17"><a xlink:href="cutils_8h.html#a7c82a3ee025fee89db5b11ff5b7691b8" target="_top" xlink:title="get_i16">
<polygon fill="none" stroke="#000000" points="622,-329.2737 622,-348.2737 670,-348.2737 670,-329.2737 622,-329.2737"/>
<text text-anchor="middle" x="646" y="-336.2737" font-family="Helvetica,sans-Serif" font-size="10.00" fill="#000000">get_i16</text>
</a>
</g>
</g>
<!-- Node465784&#45;&gt;Node466031 -->
<g id="edge18" class="edge">
<title>Node465784&#45;&gt;Node466031</title>
<path fill="none" stroke="#191970" d="M493.5883,-405.2114C508.8732,-392.5186 537.7439,-370.2594 566,-357.7737 580.3946,-351.413 597.2273,-347.0071 611.7287,-344.052"/>
<polygon fill="#191970" stroke="#191970" points="612.6306,-347.4436 621.8078,-342.1494 611.3321,-340.5651 612.6306,-347.4436"/>
</g>
<!-- Node465848 -->
<g id="node18" class="node">
<title>Node465848</title>
<g id="a_node18"><a xlink:href="quickjs_8h.html#a89b7c8686c7eee70b86be722ee4730ad" target="_top" xlink:title="JS_GetProperty">
<polygon fill="none" stroke="#ff0000" points="603,-823.2737 603,-842.2737 689,-842.2737 689,-823.2737 603,-823.2737"/>
<text text-anchor="middle" x="646" y="-830.2737" font-family="Helvetica,sans-Serif" font-size="10.00" fill="#000000">JS_GetProperty</text>
</a>
</g>
</g>
<!-- Node465784&#45;&gt;Node465848 -->
<g id="edge23" class="edge">
<title>Node465784&#45;&gt;Node465848</title>
<path fill="none" stroke="#191970" d="M483.2236,-424.3098C487.537,-478.7243 511.5379,-749.6154 566,-808.7737 573.2193,-816.6155 582.8887,-821.9327 593.0058,-825.5286"/>
<polygon fill="#191970" stroke="#191970" points="592.193,-828.9391 602.7777,-828.475 594.2138,-822.2371 592.193,-828.9391"/>
</g>
<!-- Node466067 -->
<g id="node19" class="node">
<title>Node466067</title>
<g id="a_node19"><a xlink:href="quickjs_8h.html#a3d68fe446df2d9c7d1900b16371bff5b" target="_top" xlink:title="JS_IsObject">
<polygon fill="none" stroke="#000000" points="610.5,-595.2737 610.5,-614.2737 681.5,-614.2737 681.5,-595.2737 610.5,-595.2737"/>
<text text-anchor="middle" x="646" y="-602.2737" font-family="Helvetica,sans-Serif" font-size="10.00" fill="#000000">JS_IsObject</text>
</a>
</g>
</g>
<!-- Node465784&#45;&gt;Node466067 -->
<g id="edge25" class="edge">
<title>Node465784&#45;&gt;Node466067</title>
<path fill="none" stroke="#191970" d="M484.2056,-424.3136C489.9379,-453.4607 511.3132,-542.0132 566,-585.7737 575.7527,-593.5778 588.1846,-598.2668 600.3247,-601.0584"/>
<polygon fill="#191970" stroke="#191970" points="599.9091,-604.5422 610.3886,-602.9838 601.2245,-597.6669 599.9091,-604.5422"/>
</g>
<!-- Node466014 -->
<g id="node20" class="node">
<title>Node466014</title>
<g id="a_node20"><a xlink:href="quickjs_8c.html#a24be89a128d1cd7c0908604815b2b854" target="_top" xlink:title="js_same_value">
<polygon fill="none" stroke="#ff0000" points="605,-519.2737 605,-538.2737 687,-538.2737 687,-519.2737 605,-519.2737"/>
<text text-anchor="middle" x="646" y="-526.2737" font-family="Helvetica,sans-Serif" font-size="10.00" fill="#000000">js_same_value</text>
</a>
</g>
</g>
<!-- Node465784&#45;&gt;Node466014 -->
<g id="edge26" class="edge">
<title>Node465784&#45;&gt;Node466014</title>
<path fill="none" stroke="#191970" d="M488.8383,-424.4908C501.356,-442.9141 531.0851,-483.0221 566,-504.7737 574.8604,-510.2936 585.0641,-514.6069 595.1549,-517.9558"/>
<polygon fill="#191970" stroke="#191970" points="594.1615,-521.3119 604.7474,-520.8789 596.202,-514.6158 594.1615,-521.3119"/>
</g>
<!-- Node465989 -->
<g id="node21" class="node">
<title>Node465989</title>
<g id="a_node21"><a xlink:href="quickjs_8c.html#a3ae8a83da71ef07d6e858d172d9c5a81" target="_top" xlink:title="JS_Throw">
<polygon fill="none" stroke="#000000" points="615.5,-747.2737 615.5,-766.2737 676.5,-766.2737 676.5,-747.2737 615.5,-747.2737"/>
<text text-anchor="middle" x="646" y="-754.2737" font-family="Helvetica,sans-Serif" font-size="10.00" fill="#000000">JS_Throw</text>
</a>
</g>
</g>
<!-- Node465784&#45;&gt;Node465989 -->
<g id="edge28" class="edge">
<title>Node465784&#45;&gt;Node465989</title>
<path fill="none" stroke="#191970" d="M483.6646,-424.4977C489.7111,-473.3815 519.0577,-691.7515 566,-737.7737 576.4173,-747.9868 591.2663,-753.0736 605.3486,-755.4994"/>
<polygon fill="#191970" stroke="#191970" points="605.0197,-758.9863 615.3929,-756.8307 605.9395,-752.047 605.0197,-758.9863"/>
</g>
<!-- Node466025 -->
<g id="node22" class="node">
<title>Node466025</title>
<g id="a_node22"><a xlink:href="quickjs_8c.html#a726b00d108e0a0f4d958c36c2e426a64" target="_top" xlink:title="JS_ThrowTypeErrorNotAnObject">
<polygon fill="none" stroke="#000000" points="566,-557.2737 566,-576.2737 726,-576.2737 726,-557.2737 566,-557.2737"/>
<text text-anchor="middle" x="646" y="-564.2737" font-family="Helvetica,sans-Serif" font-size="10.00" fill="#000000">JS_ThrowTypeErrorNotAnObject</text>
</a>
</g>
</g>
<!-- Node465784&#45;&gt;Node466025 -->
<g id="edge30" class="edge">
<title>Node465784&#45;&gt;Node466025</title>
<path fill="none" stroke="#191970" d="M485.7119,-424.6305C494.3531,-449.518 520.5663,-515.2231 566,-547.7737 568.727,-549.7274 571.6275,-551.4826 574.6467,-553.0592"/>
<polygon fill="#191970" stroke="#191970" points="573.4499,-556.3587 584.0052,-557.2731 576.3239,-549.9759 573.4499,-556.3587"/>
</g>
<!-- Node465845&#45;&gt;Node465846 -->
<g id="edge8" class="edge">
<title>Node465845&#45;&gt;Node465846</title>
<path fill="none" stroke="#191970" d="M683.2784,-414.7737C706.1681,-414.7737 735.6363,-414.7737 759.8446,-414.7737"/>
<polygon fill="#191970" stroke="#191970" points="759.863,-418.2738 769.863,-414.7737 759.8629,-411.2738 759.863,-418.2738"/>
</g>
<!-- Node465845&#45;&gt;Node465816 -->
<g id="edge10" class="edge">
<title>Node465845&#45;&gt;Node465816</title>
<path fill="none" stroke="#191970" d="M683.3699,-418.561C697.5148,-421.2577 713.2619,-425.8736 726,-433.7737 756.9842,-452.9899 781.6496,-488.5669 794.7285,-510.3086"/>
<polygon fill="#191970" stroke="#191970" points="791.8536,-512.3276 799.9034,-519.2161 797.9063,-508.8112 791.8536,-512.3276"/>
</g>
<!-- Node465845&#45;&gt;Node465855 -->
<g id="edge11" class="edge">
<title>Node465845&#45;&gt;Node465855</title>
<path fill="none" stroke="#191970" d="M683.0251,-415.0268C698.3191,-417.0776 715.0059,-422.1653 726,-433.7737 755.3707,-464.7852 793.0891,-769.5593 802.6951,-850.9037"/>
<polygon fill="#191970" stroke="#191970" points="799.2644,-851.7 803.9041,-861.2249 806.2169,-850.8856 799.2644,-851.7"/>
</g>
<!-- Node465846&#45;&gt;Node465837 -->
<g id="edge9" class="edge">
<title>Node465846&#45;&gt;Node465837</title>
<path fill="none" stroke="#191970" d="M809.7425,-424.3374C818.0622,-441.3041 835.5816,-477.8904 848,-509.7737 877.5832,-585.726 905.746,-678.7253 917.3869,-718.3759"/>
<polygon fill="#191970" stroke="#191970" points="914.0591,-719.4665 920.2196,-728.0862 920.779,-717.5062 914.0591,-719.4665"/>
</g>
<!-- Node466028&#45;&gt;Node465816 -->
<g id="edge14" class="edge">
<title>Node466028&#45;&gt;Node465816</title>
<path fill="none" stroke="#191970" d="M685.9061,-462.2789C698.9832,-466.0376 713.3866,-470.8848 726,-476.7737 747.1433,-486.6449 769.1567,-501.5807 784.5589,-512.9164"/>
<polygon fill="#191970" stroke="#191970" points="782.7085,-515.9039 792.8069,-519.1092 786.9115,-510.3061 782.7085,-515.9039"/>
</g>
<!-- Node466014&#45;&gt;Node465816 -->
<g id="edge27" class="edge">
<title>Node466014&#45;&gt;Node465816</title>
<path fill="none" stroke="#191970" d="M687.3603,-528.7737C708.4102,-528.7737 734.1354,-528.7737 756.1553,-528.7737"/>
<polygon fill="#191970" stroke="#191970" points="756.3052,-532.2738 766.3052,-528.7737 756.3051,-525.2738 756.3052,-532.2738"/>
</g>
<!-- Node465989&#45;&gt;Node465837 -->
<g id="edge29" class="edge">
<title>Node465989&#45;&gt;Node465837</title>
<path fill="none" stroke="#191970" d="M676.7022,-754.6677C724.308,-751.4024 816.3816,-745.0869 873.4751,-741.1707"/>
<polygon fill="#191970" stroke="#191970" points="873.973,-744.6449 883.71,-740.4687 873.4939,-737.6613 873.973,-744.6449"/>
</g>
<!-- Node466217&#45;&gt;Node465837 -->
<g id="edge33" class="edge">
<title>Node466217&#45;&gt;Node465837</title>
<path fill="none" stroke="#191970" d="M388.2091,-956.3169C473.4661,-980.7182 715.5036,-1035.4619 848,-916.7737 896.2178,-873.581 914.3042,-794.4009 920.328,-757.5771"/>
<polygon fill="#191970" stroke="#191970" points="923.8029,-758.0052 921.8301,-747.5956 916.8808,-756.9634 923.8029,-758.0052"/>
</g>
<!-- Node466218 -->
<g id="node24" class="node">
<title>Node466218</title>
<g id="a_node24"><a xlink:href="quickjs_8c.html#ad09ec172570d05d2166ed3069f85c7b5" target="_top" xlink:title="JS_Invoke">
<polygon fill="none" stroke="#ff0000" points="451,-937.2737 451,-956.2737 514,-956.2737 514,-937.2737 451,-937.2737"/>
<text text-anchor="middle" x="482.5" y="-944.2737" font-family="Helvetica,sans-Serif" font-size="10.00" fill="#000000">JS_Invoke</text>
</a>
</g>
</g>
<!-- Node466217&#45;&gt;Node466218 -->
<g id="edge34" class="edge">
<title>Node466217&#45;&gt;Node466218</title>
<path fill="none" stroke="#191970" d="M399.1232,-946.7737C412.4606,-946.7737 427.2311,-946.7737 440.589,-946.7737"/>
<polygon fill="#191970" stroke="#191970" points="440.9446,-950.2738 450.9446,-946.7737 440.9446,-943.2738 440.9446,-950.2738"/>
</g>
<!-- Node466218&#45;&gt;Node465855 -->
<g id="edge36" class="edge">
<title>Node466218&#45;&gt;Node465855</title>
<path fill="none" stroke="#191970" d="M514.0051,-949.6143C561.5468,-952.7447 653.7431,-954.268 726,-927.7737 749.848,-919.0293 772.9046,-900.9267 787.8902,-887.4559"/>
<polygon fill="#191970" stroke="#191970" points="790.3938,-889.9074 795.3391,-880.5375 785.63,-884.7784 790.3938,-889.9074"/>
</g>
<!-- Node466218&#45;&gt;Node465848 -->
<g id="edge35" class="edge">
<title>Node466218&#45;&gt;Node465848</title>
<path fill="none" stroke="#191970" d="M496.1587,-937.2502C524.34,-917.6008 589.1669,-872.4004 623.5834,-848.4036"/>
<polygon fill="#191970" stroke="#191970" points="625.8325,-851.1022 632.0336,-842.5117 621.8288,-845.3602 625.8325,-851.1022"/>
</g>
<!-- Node466163&#45;&gt;Node465837 -->
<g id="edge40" class="edge">
<title>Node466163&#45;&gt;Node465837</title>
<path fill="none" stroke="#191970" d="M706.4456,-917.7374C749.5663,-920.8674 806.951,-918.0443 848,-889.7737 893.7246,-858.2829 912.7888,-790.6479 919.6539,-757.2501"/>
<polygon fill="#191970" stroke="#191970" points="923.109,-757.8153 921.5352,-747.338 916.2318,-756.5099 923.109,-757.8153"/>
</g>
<!-- Node466163&#45;&gt;Node465816 -->
<g id="edge39" class="edge">
<title>Node466163&#45;&gt;Node465816</title>
<path fill="none" stroke="#191970" d="M666.9611,-899.1905C685.3055,-889.7228 711.2621,-873.5113 726,-851.7737 760.5388,-800.8308 792.3484,-610.6658 802.0136,-548.5438"/>
<polygon fill="#191970" stroke="#191970" points="805.4979,-548.9121 803.5562,-538.4968 798.579,-547.8497 805.4979,-548.9121"/>
</g>
<!-- Node466163&#45;&gt;Node465855 -->
<g id="edge41" class="edge">
<title>Node466163&#45;&gt;Node465855</title>
<path fill="none" stroke="#191970" d="M686.1224,-899.1847C707.1042,-894.1702 732.9817,-887.9856 755.2299,-882.6684"/>
<polygon fill="#191970" stroke="#191970" points="756.2536,-886.0224 765.1661,-880.2937 754.6264,-879.2141 756.2536,-886.0224"/>
</g>
<!-- Node466219&#45;&gt;Node465816 -->
<g id="edge43" class="edge">
<title>Node466219&#45;&gt;Node465816</title>
<path fill="none" stroke="#191970" d="M498.5071,-747.6825C514.4552,-733.4149 540.2198,-712.369 566,-699.7737 632.1604,-667.45 666.9465,-700.7591 726,-656.7737 763.8837,-628.5564 787.6737,-576.307 798.3724,-548.0764"/>
<polygon fill="#191970" stroke="#191970" points="801.7144,-549.1272 801.8339,-538.533 795.1338,-546.7403 801.7144,-549.1272"/>
</g>
<!-- Node466219&#45;&gt;Node465989 -->
<g id="edge44" class="edge">
<title>Node466219&#45;&gt;Node465989</title>
<path fill="none" stroke="#191970" d="M530.2305,-761.0221C554.098,-760.1462 582.6742,-759.0976 605.4637,-758.2612"/>
<polygon fill="#191970" stroke="#191970" points="605.6247,-761.7578 615.4896,-757.8933 605.3679,-754.7625 605.6247,-761.7578"/>
</g>
<!-- Node466220&#45;&gt;Node465816 -->
<g id="edge46" class="edge">
<title>Node466220&#45;&gt;Node465816</title>
<path fill="none" stroke="#191970" d="M246.5152,-225.7177C315.563,-166.4297 578.185,41.2985 726,-91.7737 782.7951,-142.9041 741.988,-360.0206 762,-433.7737 769.555,-461.6172 784.3667,-491.6084 794.473,-510.2841"/>
<polygon fill="#191970" stroke="#191970" points="791.4914,-512.1248 799.3965,-519.1788 797.6157,-508.7347 791.4914,-512.1248"/>
</g>
<!-- Node466221&#45;&gt;Node465783 -->
<g id="edge48" class="edge">
<title>Node466221&#45;&gt;Node465783</title>
<path fill="none" stroke="#191970" d="M236.0235,-633.0903C256.3041,-602.9864 318.4834,-510.689 345.1478,-471.1089"/>
<polygon fill="#191970" stroke="#191970" points="348.1516,-472.9145 350.8361,-462.6654 342.3461,-469.0034 348.1516,-472.9145"/>
</g>
<!-- Node466221&#45;&gt;Node465837 -->
<g id="edge50" class="edge">
<title>Node466221&#45;&gt;Node465837</title>
<path fill="none" stroke="#191970" d="M232.9568,-632.9572C243.7601,-602.6398 278.4176,-508.0595 316,-433.7737 412.8616,-242.3157 379.079,-126.1248 566,-20.7737 627.9492,14.1417 657.4577,-1.8331 726,-20.7737 786.9051,-37.6039 813.7021,-40.7044 848,-93.7737 882.7834,-147.5941 915.0308,-615.2545 921.7302,-717.9084"/>
<polygon fill="#191970" stroke="#191970" points="918.2515,-718.3528 922.3896,-728.1061 925.2369,-717.901 918.2515,-718.3528"/>
</g>
<!-- Node466221&#45;&gt;Node465816 -->
<g id="edge49" class="edge">
<title>Node466221&#45;&gt;Node465816</title>
<path fill="none" stroke="#191970" d="M280.0985,-645.9616C390.4017,-652.0947 648.8101,-661.7937 726,-623.7737 759.1897,-607.426 783.5169,-569.9839 795.8581,-547.2921"/>
<polygon fill="#191970" stroke="#191970" points="799.0245,-548.7893 800.5394,-538.3033 792.816,-545.5559 799.0245,-548.7893"/>
</g>
<!-- Node466221&#45;&gt;Node465855 -->
<g id="edge53" class="edge">
<title>Node466221&#45;&gt;Node465855</title>
<path fill="none" stroke="#191970" d="M234.2375,-652.4184C245.5315,-674.5324 276.1016,-729.468 316,-761.7737 445.1395,-866.3377 653.8553,-875.541 751.4647,-873.4788"/>
<polygon fill="#191970" stroke="#191970" points="751.7774,-876.9719 761.6828,-873.2125 751.595,-869.9743 751.7774,-876.9719"/>
</g>
<!-- Node466221&#45;&gt;Node465848 -->
<g id="edge52" class="edge">
<title>Node466221&#45;&gt;Node465848</title>
<path fill="none" stroke="#191970" d="M238.4354,-652.4664C253.4412,-668.3993 285.1043,-700.5694 316,-722.7737 364.9371,-757.9441 378.4939,-766.8247 435,-787.7737 487.0213,-807.06 549.4836,-819.0933 592.8879,-825.8102"/>
<polygon fill="#191970" stroke="#191970" points="592.5346,-829.2963 602.9442,-827.3241 593.5767,-822.3743 592.5346,-829.2963"/>
</g>
<!-- Node466221&#45;&gt;Node466067 -->
<g id="edge54" class="edge">
<title>Node466221&#45;&gt;Node466067</title>
<path fill="none" stroke="#191970" d="M280.1664,-633.809C291.9044,-631.9448 304.3656,-630.1356 316,-628.7737 417.0637,-616.9432 536.2671,-609.9939 600.1183,-606.835"/>
<polygon fill="#191970" stroke="#191970" points="600.4364,-610.3238 610.2547,-606.3425 600.0966,-603.332 600.4364,-610.3238"/>
</g>
<!-- Node466221&#45;&gt;Node466014 -->
<g id="edge59" class="edge">
<title>Node466221&#45;&gt;Node466014</title>
<path fill="none" stroke="#191970" d="M244.2074,-633.2653C260.9532,-622.8478 289.4385,-606.3487 316,-596.7737 411.3281,-562.4092 528.7509,-543.4151 594.7144,-534.7252"/>
<polygon fill="#191970" stroke="#191970" points="595.3779,-538.1687 604.8481,-533.4182 594.4825,-531.2262 595.3779,-538.1687"/>
</g>
<!-- Node466221&#45;&gt;Node466025 -->
<g id="edge60" class="edge">
<title>Node466221&#45;&gt;Node466025</title>
<path fill="none" stroke="#191970" d="M257.6717,-633.2025C274.4542,-627.7787 296.2642,-621.2114 316,-616.7737 396.257,-598.7273 488.9825,-585.32 555.6677,-576.9563"/>
<polygon fill="#191970" stroke="#191970" points="556.2335,-580.413 565.7264,-575.7082 555.3715,-573.4663 556.2335,-580.413"/>
</g>
<!-- Node466222 -->
<g id="node29" class="node">
<title>Node466222</title>
<g id="a_node29"><a xlink:href="quickjs_8c.html#a5644dc5dba0d760dcc06cc1a79e256cc" target="_top" xlink:title="JS_GetOpaque">
<polygon fill="none" stroke="#000000" points="316,-671.2737 316,-690.2737 399,-690.2737 399,-671.2737 316,-671.2737"/>
<text text-anchor="middle" x="357.5" y="-678.2737" font-family="Helvetica,sans-Serif" font-size="10.00" fill="#000000">JS_GetOpaque</text>
</a>
</g>
</g>
<!-- Node466221&#45;&gt;Node466222 -->
<g id="edge51" class="edge">
<title>Node466221&#45;&gt;Node466222</title>
<path fill="none" stroke="#191970" d="M261.7998,-652.3627C278.0202,-657.1781 297.8751,-663.0725 315.2869,-668.2417"/>
<polygon fill="#191970" stroke="#191970" points="314.6279,-671.6969 325.2105,-671.1877 316.6202,-664.9864 314.6279,-671.6969"/>
</g>
<!-- Node466156 -->
<g id="node30" class="node">
<title>Node466156</title>
<g id="a_node30"><a xlink:href="quickjs_8c.html#a28c0ccdd26317bc38d0a693f1dffe4dc" target="_top" xlink:title="js_new_promise_capability">
<polygon fill="none" stroke="#ff0000" points="579,-709.2737 579,-728.2737 713,-728.2737 713,-709.2737 579,-709.2737"/>
<text text-anchor="middle" x="646" y="-716.2737" font-family="Helvetica,sans-Serif" font-size="10.00" fill="#000000">js_new_promise_capability</text>
</a>
</g>
</g>
<!-- Node466221&#45;&gt;Node466156 -->
<g id="edge55" class="edge">
<title>Node466221&#45;&gt;Node466156</title>
<path fill="none" stroke="#191970" d="M239.9757,-652.3927C255.3273,-665.8127 285.4425,-689.6445 316,-699.7737 399.1585,-727.3389 500.4906,-728.7844 568.7481,-725.4599"/>
<polygon fill="#191970" stroke="#191970" points="569.1924,-728.9413 578.9916,-724.9131 568.8192,-721.9512 569.1924,-728.9413"/>
</g>
<!-- Node466156&#45;&gt;Node465837 -->
<g id="edge57" class="edge">
<title>Node466156&#45;&gt;Node465837</title>
<path fill="none" stroke="#191970" d="M713.054,-723.373C762.6678,-726.7762 829.1256,-731.3346 873.8674,-734.4036"/>
<polygon fill="#191970" stroke="#191970" points="873.6932,-737.8998 883.9093,-735.0924 874.1723,-730.9162 873.6932,-737.8998"/>
</g>
<!-- Node466156&#45;&gt;Node465816 -->
<g id="edge56" class="edge">
<title>Node466156&#45;&gt;Node465816</title>
<path fill="none" stroke="#191970" d="M700.3716,-709.1885C709.6324,-705.7578 718.6262,-701.0993 726,-694.7737 772.122,-655.2079 793.3369,-582.6746 801.1814,-548.0966"/>
<polygon fill="#191970" stroke="#191970" points="804.6093,-548.8038 803.2732,-538.2936 797.7634,-547.343 804.6093,-548.8038"/>
</g>
<!-- Node466156&#45;&gt;Node465855 -->
<g id="edge58" class="edge">
<title>Node466156&#45;&gt;Node465855</title>
<path fill="none" stroke="#191970" d="M708.4991,-728.3012C714.7373,-730.7784 720.7095,-733.8838 726,-737.7737 765.5051,-766.8199 788.8437,-822.085 798.9813,-851.3964"/>
<polygon fill="#191970" stroke="#191970" points="795.6678,-852.5242 802.1245,-860.9244 802.3154,-850.3312 795.6678,-852.5242"/>
</g>
</g>
</svg>
