<?xml version="1.0" encoding="UTF-8" standalone="no"?>
<!DOCTYPE svg PUBLIC "-//W3C//DTD SVG 1.1//EN"
 "http://www.w3.org/Graphics/SVG/1.1/DTD/svg11.dtd">
<!-- Generated by graphviz version 2.40.1 (20161225.0304)
 -->
<!-- Title: JS_VALUE_IS_NAN Pages: 1 -->
<svg width="1303pt" height="1381pt"
 viewBox="0.00 0.00 1303.00 1380.77" xmlns="http://www.w3.org/2000/svg" xmlns:xlink="http://www.w3.org/1999/xlink">
<g id="graph0" class="graph" transform="scale(1 1) rotate(0) translate(4 1376.7729)">
<title>JS_VALUE_IS_NAN</title>
<!-- Node635 -->
<g id="node1" class="node">
<title>Node635</title>
<polygon fill="#bfbfbf" stroke="#000000" points="0,-763.9133 0,-782.9133 109,-782.9133 109,-763.9133 0,-763.9133"/>
<text text-anchor="middle" x="54.5" y="-770.9133" font-family="Helvetica,sans-Serif" font-size="10.00" fill="#000000">JS_VALUE_IS_NAN</text>
</g>
<!-- Node636 -->
<g id="node2" class="node">
<title>Node636</title>
<g id="a_node2"><a xlink:href="quickjs_8c.html#a75a3798e2045f6e403c1ef467126d1fb" target="_top" xlink:title="next_token">
<polygon fill="none" stroke="#ff0000" points="145,-763.9133 145,-782.9133 210,-782.9133 210,-763.9133 145,-763.9133"/>
<text text-anchor="middle" x="177.5" y="-770.9133" font-family="Helvetica,sans-Serif" font-size="10.00" fill="#000000">next_token</text>
</a>
</g>
</g>
<!-- Node635&#45;&gt;Node636 -->
<g id="edge1" class="edge">
<title>Node635&#45;&gt;Node636</title>
<path fill="none" stroke="#191970" d="M119.2075,-773.4133C128.1029,-773.4133 136.9087,-773.4133 144.8776,-773.4133"/>
<polygon fill="#191970" stroke="#191970" points="119.1659,-769.9134 109.1659,-773.4133 119.1659,-776.9134 119.1659,-769.9134"/>
</g>
<!-- Node637 -->
<g id="node3" class="node">
<title>Node637</title>
<g id="a_node3"><a xlink:href="quickjs_8c.html#a08f5927b79691c477c726fc5d309cfef" target="_top" xlink:title="is_let">
<polygon fill="none" stroke="#ff0000" points="457.5,-744.9133 457.5,-763.9133 497.5,-763.9133 497.5,-744.9133 457.5,-744.9133"/>
<text text-anchor="middle" x="477.5" y="-751.9133" font-family="Helvetica,sans-Serif" font-size="10.00" fill="#000000">is_let</text>
</a>
</g>
</g>
<!-- Node636&#45;&gt;Node637 -->
<g id="edge2" class="edge">
<title>Node636&#45;&gt;Node637</title>
<path fill="none" stroke="#191970" d="M198.8842,-757.832C211.8219,-749.3861 229.0489,-739.8002 246,-735.4133 322.1279,-715.7118 416.5996,-737.0484 457.2989,-748.3352"/>
<polygon fill="#191970" stroke="#191970" points="196.5802,-755.1666 190.2868,-763.6898 200.5217,-760.9515 196.5802,-755.1666"/>
</g>
<!-- Node638 -->
<g id="node4" class="node">
<title>Node638</title>
<g id="a_node4"><a xlink:href="quickjs_8c.html#ac188b916dd086803591a67de7e7a85f6" target="_top" xlink:title="js_parse_for_in_of">
<polygon fill="none" stroke="#ff0000" points="746,-651.9133 746,-670.9133 842,-670.9133 842,-651.9133 746,-651.9133"/>
<text text-anchor="middle" x="794" y="-658.9133" font-family="Helvetica,sans-Serif" font-size="10.00" fill="#000000">js_parse_for_in_of</text>
</a>
</g>
</g>
<!-- Node636&#45;&gt;Node638 -->
<g id="edge65" class="edge">
<title>Node636&#45;&gt;Node638</title>
<path fill="none" stroke="#191970" d="M183.5584,-792.6782C192.6413,-817.9742 212.4081,-861.5008 246,-881.4133 332.221,-932.5231 614.1911,-943.8841 697,-887.4133 773.9011,-834.9713 790.1704,-707.9587 793.3059,-671.4073"/>
<polygon fill="#191970" stroke="#191970" points="186.83,-791.4268 180.3107,-783.0752 180.199,-793.6694 186.83,-791.4268"/>
</g>
<!-- Node656 -->
<g id="node5" class="node">
<title>Node656</title>
<g id="a_node5"><a xlink:href="quickjs_8c.html#a253917187cfb6b3db09d355b31edb3d5" target="_top" xlink:title="js_parse_array_literal">
<polygon fill="none" stroke="#000000" points="423,-200.9133 423,-219.9133 532,-219.9133 532,-200.9133 423,-200.9133"/>
<text text-anchor="middle" x="477.5" y="-207.9133" font-family="Helvetica,sans-Serif" font-size="10.00" fill="#000000">js_parse_array_literal</text>
</a>
</g>
</g>
<!-- Node636&#45;&gt;Node656 -->
<g id="edge4" class="edge">
<title>Node636&#45;&gt;Node656</title>
<path fill="none" stroke="#191970" d="M178.8545,-753.4831C185.1164,-663.9161 212.39,-301.3926 246,-264.4133 290.4124,-215.5487 369.739,-206.6711 422.9884,-206.8845"/>
<polygon fill="#191970" stroke="#191970" points="175.3506,-753.42 178.1534,-763.6373 182.334,-753.9022 175.3506,-753.42"/>
</g>
<!-- Node645 -->
<g id="node6" class="node">
<title>Node645</title>
<g id="a_node6"><a xlink:href="quickjs_8c.html#a840642c87c5a82d4cc68333376a3b6de" target="_top" xlink:title="js_parse_postfix_expr">
<polygon fill="none" stroke="#ff0000" points="1183,-296.9133 1183,-315.9133 1295,-315.9133 1295,-296.9133 1183,-296.9133"/>
<text text-anchor="middle" x="1239" y="-303.9133" font-family="Helvetica,sans-Serif" font-size="10.00" fill="#000000">js_parse_postfix_expr</text>
</a>
</g>
</g>
<!-- Node636&#45;&gt;Node645 -->
<g id="edge73" class="edge">
<title>Node636&#45;&gt;Node645</title>
<path fill="none" stroke="#191970" d="M177.8497,-753.5818C180.0218,-641.352 193.3474,-89.049 246,-37.4133 319.6571,34.8213 374.3341,-20.4133 477.5,-20.4133 477.5,-20.4133 477.5,-20.4133 960,-20.4133 1118.1536,-20.4133 1215.9025,-247.2722 1235.3931,-296.8976"/>
<polygon fill="#191970" stroke="#191970" points="174.3463,-753.7386 177.6598,-763.8019 181.3451,-753.8687 174.3463,-753.7386"/>
</g>
<!-- Node654 -->
<g id="node7" class="node">
<title>Node654</title>
<g id="a_node7"><a xlink:href="quickjs_8c.html#afa1bc2743b3cf892d36544a708453736" target="_top" xlink:title="js_parse_assign_expr2">
<polygon fill="none" stroke="#ff0000" points="578,-1129.9133 578,-1148.9133 694,-1148.9133 694,-1129.9133 578,-1129.9133"/>
<text text-anchor="middle" x="636" y="-1136.9133" font-family="Helvetica,sans-Serif" font-size="10.00" fill="#000000">js_parse_assign_expr2</text>
</a>
</g>
</g>
<!-- Node636&#45;&gt;Node654 -->
<g id="edge7" class="edge">
<title>Node636&#45;&gt;Node654</title>
<path fill="none" stroke="#191970" d="M178.4981,-793.233C182.2467,-858.9573 197.8241,-1067.9682 246,-1110.4133 293.8232,-1152.5477 481.2701,-1148.4778 577.8182,-1143.313"/>
<polygon fill="#191970" stroke="#191970" points="181.9804,-792.8079 177.9463,-783.0111 174.9905,-793.1853 181.9804,-792.8079"/>
</g>
<!-- Node653 -->
<g id="node8" class="node">
<title>Node653</title>
<g id="a_node8"><a xlink:href="quickjs_8c.html#a6686f5baeecd532b043761b6c24ed431" target="_top" xlink:title="js_parse_cond_expr">
<polygon fill="none" stroke="#000000" points="742,-1129.9133 742,-1148.9133 846,-1148.9133 846,-1129.9133 742,-1129.9133"/>
<text text-anchor="middle" x="794" y="-1136.9133" font-family="Helvetica,sans-Serif" font-size="10.00" fill="#000000">js_parse_cond_expr</text>
</a>
</g>
</g>
<!-- Node636&#45;&gt;Node653 -->
<g id="edge21" class="edge">
<title>Node636&#45;&gt;Node653</title>
<path fill="none" stroke="#191970" d="M178.6427,-793.3738C184.0199,-883.8247 208.139,-1252.2803 246,-1285.4133 322.2237,-1352.1183 607.7382,-1267.2876 697,-1219.4133 733.3573,-1199.9136 768.9015,-1165.6017 785.0163,-1148.9772"/>
<polygon fill="#191970" stroke="#191970" points="182.134,-793.1202 178.056,-783.3417 175.1459,-793.529 182.134,-793.1202"/>
</g>
<!-- Node658 -->
<g id="node9" class="node">
<title>Node658</title>
<g id="a_node9"><a xlink:href="quickjs_8c.html#a9fc8ae779f77a7886fc7cfa48cc487fb" target="_top" xlink:title="js_parse_expr2">
<polygon fill="none" stroke="#ff0000" points="752.5,-1249.9133 752.5,-1268.9133 835.5,-1268.9133 835.5,-1249.9133 752.5,-1249.9133"/>
<text text-anchor="middle" x="794" y="-1256.9133" font-family="Helvetica,sans-Serif" font-size="10.00" fill="#000000">js_parse_expr2</text>
</a>
</g>
</g>
<!-- Node636&#45;&gt;Node658 -->
<g id="edge58" class="edge">
<title>Node636&#45;&gt;Node658</title>
<path fill="none" stroke="#191970" d="M178.4951,-793.2173C183.3699,-886.3012 206.122,-1277.2826 246,-1312.4133 405.7592,-1453.1541 702.3929,-1308.8464 776.7531,-1268.986"/>
<polygon fill="#191970" stroke="#191970" points="181.9766,-792.7668 177.9677,-782.9597 174.9859,-793.1262 181.9766,-792.7668"/>
</g>
<!-- Node640 -->
<g id="node10" class="node">
<title>Node640</title>
<g id="a_node10"><a xlink:href="quickjs_8c.html#acc0cac53be5317d9cab6a79afcd7da48" target="_top" xlink:title="js_parse_block">
<polygon fill="none" stroke="#ff0000" points="436.5,-706.9133 436.5,-725.9133 518.5,-725.9133 518.5,-706.9133 436.5,-706.9133"/>
<text text-anchor="middle" x="477.5" y="-713.9133" font-family="Helvetica,sans-Serif" font-size="10.00" fill="#000000">js_parse_block</text>
</a>
</g>
</g>
<!-- Node636&#45;&gt;Node640 -->
<g id="edge13" class="edge">
<title>Node636&#45;&gt;Node640</title>
<path fill="none" stroke="#191970" d="M194.1879,-756.7146C207.1149,-744.9894 226.1211,-730.2307 246,-723.4133 309.7083,-701.5646 389.1545,-705.3103 436.4702,-710.5112"/>
<polygon fill="#191970" stroke="#191970" points="191.4844,-754.4541 186.6229,-763.8678 196.2937,-759.5404 191.4844,-754.4541"/>
</g>
<!-- Node643 -->
<g id="node11" class="node">
<title>Node643</title>
<g id="a_node11"><a xlink:href="quickjs_8c.html#a00eb789430243c24dab4a63ad6a79653" target="_top" xlink:title="js_parse_class">
<polygon fill="none" stroke="#ff0000" points="1065,-391.9133 1065,-410.9133 1147,-410.9133 1147,-391.9133 1065,-391.9133"/>
<text text-anchor="middle" x="1106" y="-398.9133" font-family="Helvetica,sans-Serif" font-size="10.00" fill="#000000">js_parse_class</text>
</a>
</g>
</g>
<!-- Node636&#45;&gt;Node643 -->
<g id="edge14" class="edge">
<title>Node636&#45;&gt;Node643</title>
<path fill="none" stroke="#191970" d="M177.8994,-753.5125C180.2897,-644.353 194.3914,-121.489 246,-74.4133 320.0915,-6.8294 603.2346,-54.8439 697,-90.4133 884.2419,-161.4426 1057.6192,-347.0667 1097.4513,-391.6722"/>
<polygon fill="#191970" stroke="#191970" points="174.3951,-753.6825 177.6835,-763.7541 181.3935,-753.8301 174.3951,-753.6825"/>
</g>
<!-- Node644 -->
<g id="node12" class="node">
<title>Node644</title>
<g id="a_node12"><a xlink:href="quickjs_8c.html#a498e1d5c7de1b59c1630e9847cde1e41" target="_top" xlink:title="js_parse_export">
<polygon fill="none" stroke="#ff0000" points="1196,-786.9133 1196,-805.9133 1282,-805.9133 1282,-786.9133 1196,-786.9133"/>
<text text-anchor="middle" x="1239" y="-793.9133" font-family="Helvetica,sans-Serif" font-size="10.00" fill="#000000">js_parse_export</text>
</a>
</g>
</g>
<!-- Node636&#45;&gt;Node644 -->
<g id="edge57" class="edge">
<title>Node636&#45;&gt;Node644</title>
<path fill="none" stroke="#191970" d="M179.9379,-793.0266C187.2112,-848.4136 210.4806,-1004.2693 246,-1039.4133 321.3233,-1113.9405 371.5382,-1096.4133 477.5,-1096.4133 477.5,-1096.4133 477.5,-1096.4133 960,-1096.4133 1053.4232,-1096.4133 1085.1666,-1070.4457 1147,-1000.4133 1202.029,-938.0875 1229.3452,-837.4092 1236.8271,-806.0517"/>
<polygon fill="#191970" stroke="#191970" points="183.4063,-792.5562 178.6637,-783.0821 176.4631,-793.4459 183.4063,-792.5562"/>
</g>
<!-- Node664 -->
<g id="node13" class="node">
<title>Node664</title>
<g id="a_node13"><a xlink:href="quickjs_8c.html#adf95ddf430ef93fd9efea1cc2f8a2fbe" target="_top" xlink:title="js_parse_class_default_ctor">
<polygon fill="none" stroke="#000000" points="891,-410.9133 891,-429.9133 1029,-429.9133 1029,-410.9133 891,-410.9133"/>
<text text-anchor="middle" x="960" y="-417.9133" font-family="Helvetica,sans-Serif" font-size="10.00" fill="#000000">js_parse_class_default_ctor</text>
</a>
</g>
</g>
<!-- Node636&#45;&gt;Node664 -->
<g id="edge17" class="edge">
<title>Node636&#45;&gt;Node664</title>
<path fill="none" stroke="#191970" d="M178.0168,-753.699C180.9648,-648.8042 197.2775,-159.3269 246,-115.4133 320.5518,-48.2197 617.7415,-77.842 697,-139.4133 729.3989,-164.5821 708.8432,-191.253 733,-224.4133 796.1554,-311.1074 904.6576,-385.1925 944.632,-410.8249"/>
<polygon fill="#191970" stroke="#191970" points="174.5145,-753.7389 177.7406,-763.8306 181.5119,-753.9297 174.5145,-753.7389"/>
</g>
<!-- Node652 -->
<g id="node14" class="node">
<title>Node652</title>
<g id="a_node14"><a xlink:href="quickjs_8c.html#a93b69939f7af67646a177249bf2deb4d" target="_top" xlink:title="js_parse_coalesce_expr">
<polygon fill="none" stroke="#000000" points="575,-1190.9133 575,-1209.9133 697,-1209.9133 697,-1190.9133 575,-1190.9133"/>
<text text-anchor="middle" x="636" y="-1197.9133" font-family="Helvetica,sans-Serif" font-size="10.00" fill="#000000">js_parse_coalesce_expr</text>
</a>
</g>
</g>
<!-- Node636&#45;&gt;Node652 -->
<g id="edge19" class="edge">
<title>Node636&#45;&gt;Node652</title>
<path fill="none" stroke="#191970" d="M178.2777,-793.5237C181.4025,-863.1761 195.4264,-1092.5253 246,-1141.4133 257.7242,-1152.7467 467.9601,-1179.8838 574.7743,-1193.0284"/>
<polygon fill="#191970" stroke="#191970" points="181.7567,-792.9487 177.8399,-783.1045 174.7629,-793.2427 181.7567,-792.9487"/>
</g>
<!-- Node650 -->
<g id="node15" class="node">
<title>Node650</title>
<g id="a_node15"><a xlink:href="quickjs_8c.html#a2ecfb6abb190101748202a8aa5821fba" target="_top" xlink:title="js_parse_delete">
<polygon fill="none" stroke="#ff0000" points="270.5,-820.9133 270.5,-839.9133 355.5,-839.9133 355.5,-820.9133 270.5,-820.9133"/>
<text text-anchor="middle" x="313" y="-827.9133" font-family="Helvetica,sans-Serif" font-size="10.00" fill="#000000">js_parse_delete</text>
</a>
</g>
</g>
<!-- Node636&#45;&gt;Node650 -->
<g id="edge22" class="edge">
<title>Node636&#45;&gt;Node650</title>
<path fill="none" stroke="#191970" d="M205.4391,-787.6932C217.7425,-793.7673 232.4526,-800.7421 246,-806.4133 258.4231,-811.6139 272.4136,-816.7368 284.3845,-820.9054"/>
<polygon fill="#191970" stroke="#191970" points="206.6664,-784.394 196.1562,-783.0571 203.5388,-790.6564 206.6664,-784.394"/>
</g>
<!-- Node647 -->
<g id="node16" class="node">
<title>Node647</title>
<g id="a_node16"><a xlink:href="quickjs_8c.html#a26be546cf89c4580ba9020e8fc43a759" target="_top" xlink:title="js_parse_destructuring\l_element">
<polygon fill="none" stroke="#ff0000" points="578.5,-297.4133 578.5,-327.4133 693.5,-327.4133 693.5,-297.4133 578.5,-297.4133"/>
<text text-anchor="start" x="586.5" y="-315.4133" font-family="Helvetica,sans-Serif" font-size="10.00" fill="#000000">js_parse_destructuring</text>
<text text-anchor="middle" x="636" y="-304.4133" font-family="Helvetica,sans-Serif" font-size="10.00" fill="#000000">_element</text>
</a>
</g>
</g>
<!-- Node636&#45;&gt;Node647 -->
<g id="edge23" class="edge">
<title>Node636&#45;&gt;Node647</title>
<path fill="none" stroke="#191970" d="M179.6788,-753.4596C186.6772,-692.4478 210.2351,-509.7223 246,-463.4133 287.939,-409.11 480.5255,-352.685 578.4599,-326.8696"/>
<polygon fill="#191970" stroke="#191970" points="176.1701,-753.3424 178.5332,-763.6703 183.1264,-754.1229 176.1701,-753.3424"/>
</g>
<!-- Node642 -->
<g id="node17" class="node">
<title>Node642</title>
<g id="a_node17"><a xlink:href="quickjs_8c.html#acc9eb677cab8dfcf45f59381f8a19601" target="_top" xlink:title="js_parse_function_decl2">
<polygon fill="none" stroke="#ff0000" points="733,-410.9133 733,-429.9133 855,-429.9133 855,-410.9133 733,-410.9133"/>
<text text-anchor="middle" x="794" y="-417.9133" font-family="Helvetica,sans-Serif" font-size="10.00" fill="#000000">js_parse_function_decl2</text>
</a>
</g>
</g>
<!-- Node636&#45;&gt;Node642 -->
<g id="edge69" class="edge">
<title>Node636&#45;&gt;Node642</title>
<path fill="none" stroke="#191970" d="M178.139,-753.866C181.6356,-652.9068 200.004,-193.6146 246,-152.4133 321.0911,-85.1497 629.8309,-126.2377 697,-201.4133 755.7201,-267.1329 676.9517,-328.4008 733,-396.4133 738.2111,-402.7367 745.3161,-407.4016 752.8375,-410.8408"/>
<polygon fill="#191970" stroke="#191970" points="174.6399,-753.7852 177.8003,-763.8976 181.6359,-754.0215 174.6399,-753.7852"/>
</g>
<!-- Node674 -->
<g id="node18" class="node">
<title>Node674</title>
<g id="a_node18"><a xlink:href="quickjs_8c.html#ab10609a91c359ea5d3051f7bb646af83" target="_top" xlink:title="js_parse_destructuring_var">
<polygon fill="none" stroke="#000000" points="246,-314.9133 246,-333.9133 380,-333.9133 380,-314.9133 246,-314.9133"/>
<text text-anchor="middle" x="313" y="-321.9133" font-family="Helvetica,sans-Serif" font-size="10.00" fill="#000000">js_parse_destructuring_var</text>
</a>
</g>
</g>
<!-- Node636&#45;&gt;Node674 -->
<g id="edge31" class="edge">
<title>Node636&#45;&gt;Node674</title>
<path fill="none" stroke="#191970" d="M178.0927,-753.5436C180.7226,-678.2306 193.6403,-411.4272 246,-348.4133 251.2906,-342.0462 258.4012,-337.3679 266.0167,-333.9307"/>
<polygon fill="#191970" stroke="#191970" points="174.5934,-753.4658 177.765,-763.5748 181.5897,-753.6944 174.5934,-753.4658"/>
</g>
<!-- Node675 -->
<g id="node19" class="node">
<title>Node675</title>
<g id="a_node19"><a xlink:href="quickjs_8c.html#a64f81788f15df1683a1f8c3919cfd6fd" target="_top" xlink:title="js_parse_directives">
<polygon fill="none" stroke="#000000" points="427,-820.9133 427,-839.9133 528,-839.9133 528,-820.9133 427,-820.9133"/>
<text text-anchor="middle" x="477.5" y="-827.9133" font-family="Helvetica,sans-Serif" font-size="10.00" fill="#000000">js_parse_directives</text>
</a>
</g>
</g>
<!-- Node636&#45;&gt;Node675 -->
<g id="edge33" class="edge">
<title>Node636&#45;&gt;Node675</title>
<path fill="none" stroke="#191970" d="M220.0416,-781.3074C261.0292,-788.9342 324.778,-800.8515 380,-811.4133 395.9222,-814.4586 413.2971,-817.8292 428.9112,-820.8756"/>
<polygon fill="#191970" stroke="#191970" points="220.6019,-777.8517 210.1305,-779.4643 219.322,-784.7337 220.6019,-777.8517"/>
</g>
<!-- Node666 -->
<g id="node20" class="node">
<title>Node666</title>
<g id="a_node20"><a xlink:href="quickjs_8c.html#aec05caae64451720670d1a56040110b3" target="_top" xlink:title="js_parse_program">
<polygon fill="none" stroke="#ff0000" points="589,-858.9133 589,-877.9133 683,-877.9133 683,-858.9133 589,-858.9133"/>
<text text-anchor="middle" x="636" y="-865.9133" font-family="Helvetica,sans-Serif" font-size="10.00" fill="#000000">js_parse_program</text>
</a>
</g>
</g>
<!-- Node636&#45;&gt;Node666 -->
<g id="edge74" class="edge">
<title>Node636&#45;&gt;Node666</title>
<path fill="none" stroke="#191970" d="M187.9521,-791.7087C199.5278,-809.9893 220.034,-837.0948 246,-849.4133 359.305,-903.1664 512.5194,-889.1519 588.7901,-877.2435"/>
<polygon fill="#191970" stroke="#191970" points="190.9021,-789.8231 182.7312,-783.0786 184.9128,-793.4465 190.9021,-789.8231"/>
</g>
<!-- Node676 -->
<g id="node21" class="node">
<title>Node676</title>
<g id="a_node21"><a xlink:href="quickjs_8c.html#aeca8ed71e1eef8ec809afab744958c28" target="_top" xlink:title="js_parse_expect">
<polygon fill="none" stroke="#ff0000" points="269,-554.9133 269,-573.9133 357,-573.9133 357,-554.9133 269,-554.9133"/>
<text text-anchor="middle" x="313" y="-561.9133" font-family="Helvetica,sans-Serif" font-size="10.00" fill="#000000">js_parse_expect</text>
</a>
</g>
</g>
<!-- Node636&#45;&gt;Node676 -->
<g id="edge36" class="edge">
<title>Node636&#45;&gt;Node676</title>
<path fill="none" stroke="#191970" d="M188.7338,-755.1781C202.1727,-733.4477 225.4375,-696.0955 246,-664.4133 267.7299,-630.9324 294.3307,-591.7457 306.438,-574.0046"/>
<polygon fill="#191970" stroke="#191970" points="185.7292,-753.3823 183.4537,-763.7299 191.6854,-757.0598 185.7292,-753.3823"/>
</g>
<!-- Node677 -->
<g id="node22" class="node">
<title>Node677</title>
<g id="a_node22"><a xlink:href="quickjs_8c.html#aa24f7964f6d938a05c3c3c03af5a01e9" target="_top" xlink:title="js_parse_import">
<polygon fill="none" stroke="#ff0000" points="434.5,-1010.9133 434.5,-1029.9133 520.5,-1029.9133 520.5,-1010.9133 434.5,-1010.9133"/>
<text text-anchor="middle" x="477.5" y="-1017.9133" font-family="Helvetica,sans-Serif" font-size="10.00" fill="#000000">js_parse_import</text>
</a>
</g>
</g>
<!-- Node636&#45;&gt;Node677 -->
<g id="edge70" class="edge">
<title>Node636&#45;&gt;Node677</title>
<path fill="none" stroke="#191970" d="M178.7158,-793.476C182.1854,-832.3063 195.4666,-917.9075 246,-963.4133 260.0142,-976.0332 371.4038,-999.5734 434.4203,-1012.0892"/>
<polygon fill="#191970" stroke="#191970" points="182.1694,-792.7298 177.9237,-783.0229 175.1894,-793.2588 182.1694,-792.7298"/>
</g>
<!-- Node657 -->
<g id="node23" class="node">
<title>Node657</title>
<g id="a_node23"><a xlink:href="quickjs_8c.html#aee6d0acd87f136d43f157ae1426436e6" target="_top" xlink:title="js_parse_object_literal">
<polygon fill="none" stroke="#000000" points="579.5,-210.9133 579.5,-229.9133 692.5,-229.9133 692.5,-210.9133 579.5,-210.9133"/>
<text text-anchor="middle" x="636" y="-217.9133" font-family="Helvetica,sans-Serif" font-size="10.00" fill="#000000">js_parse_object_literal</text>
</a>
</g>
</g>
<!-- Node636&#45;&gt;Node657 -->
<g id="edge72" class="edge">
<title>Node636&#45;&gt;Node657</title>
<path fill="none" stroke="#191970" d="M178.4175,-753.8268C183.0795,-658.3111 205.5202,-244.3891 246,-205.4133 349.9665,-105.3094 550.9139,-182.1688 615.4864,-210.813"/>
<polygon fill="#191970" stroke="#191970" points="174.9199,-753.6939 177.937,-763.85 181.9119,-754.0291 174.9199,-753.6939"/>
</g>
<!-- Node661 -->
<g id="node24" class="node">
<title>Node661</title>
<g id="a_node24"><a xlink:href="quickjs_8c.html#a42234753f3193f37ce45b3c0ca4c25cd" target="_top" xlink:title="js_parse_property_name">
<polygon fill="none" stroke="#000000" points="416,-276.9133 416,-295.9133 539,-295.9133 539,-276.9133 416,-276.9133"/>
<text text-anchor="middle" x="477.5" y="-283.9133" font-family="Helvetica,sans-Serif" font-size="10.00" fill="#000000">js_parse_property_name</text>
</a>
</g>
</g>
<!-- Node636&#45;&gt;Node661 -->
<g id="edge75" class="edge">
<title>Node636&#45;&gt;Node661</title>
<path fill="none" stroke="#191970" d="M178.9781,-753.3754C185.4741,-667.8987 212.6544,-336.7077 246,-305.4133 298.1938,-256.4302 389.3024,-266.2387 440.27,-276.8599"/>
<polygon fill="#191970" stroke="#191970" points="175.4726,-753.318 178.2148,-763.5518 182.453,-753.8416 175.4726,-753.318"/>
</g>
<!-- Node678 -->
<g id="node25" class="node">
<title>Node678</title>
<g id="a_node25"><a xlink:href="quickjs_8c.html#a02cbd69384985a4e904190810cf45641" target="_top" xlink:title="js_parse_expect_semi">
<polygon fill="none" stroke="#ff0000" points="256,-934.9133 256,-953.9133 370,-953.9133 370,-934.9133 256,-934.9133"/>
<text text-anchor="middle" x="313" y="-941.9133" font-family="Helvetica,sans-Serif" font-size="10.00" fill="#000000">js_parse_expect_semi</text>
</a>
</g>
</g>
<!-- Node636&#45;&gt;Node678 -->
<g id="edge53" class="edge">
<title>Node636&#45;&gt;Node678</title>
<path fill="none" stroke="#191970" d="M181.5799,-793.2892C189.0075,-824.6003 207.6451,-885.4376 246,-920.4133 252.9386,-926.7406 261.6624,-931.4263 270.5,-934.8874"/>
<polygon fill="#191970" stroke="#191970" points="184.9219,-792.194 179.3348,-783.192 178.0888,-793.7133 184.9219,-792.194"/>
</g>
<!-- Node651 -->
<g id="node26" class="node">
<title>Node651</title>
<g id="a_node26"><a xlink:href="quickjs_8c.html#ad70b14684de2ed3babfd7c2264249437" target="_top" xlink:title="js_parse_expr_binary">
<polygon fill="none" stroke="#000000" points="258.5,-1238.9133 258.5,-1257.9133 367.5,-1257.9133 367.5,-1238.9133 258.5,-1238.9133"/>
<text text-anchor="middle" x="313" y="-1245.9133" font-family="Helvetica,sans-Serif" font-size="10.00" fill="#000000">js_parse_expr_binary</text>
</a>
</g>
</g>
<!-- Node636&#45;&gt;Node651 -->
<g id="edge59" class="edge">
<title>Node636&#45;&gt;Node651</title>
<path fill="none" stroke="#191970" d="M177.8928,-793.4607C179.8188,-871.9144 190.5799,-1157.0976 246,-1224.4133 251.1831,-1230.709 258.147,-1235.3536 265.6289,-1238.7802"/>
<polygon fill="#191970" stroke="#191970" points="181.3832,-792.9898 177.6611,-783.0703 174.385,-793.1458 181.3832,-792.9898"/>
</g>
<!-- Node663 -->
<g id="node27" class="node">
<title>Node663</title>
<g id="a_node27"><a xlink:href="quickjs_8c.html#aae2d76e4aa080c7737119ef079a9b97d" target="_top" xlink:title="js_parse_logical_and_or">
<polygon fill="none" stroke="#000000" points="417,-1200.9133 417,-1219.9133 538,-1219.9133 538,-1200.9133 417,-1200.9133"/>
<text text-anchor="middle" x="477.5" y="-1207.9133" font-family="Helvetica,sans-Serif" font-size="10.00" fill="#000000">js_parse_logical_and_or</text>
</a>
</g>
</g>
<!-- Node636&#45;&gt;Node663 -->
<g id="edge71" class="edge">
<title>Node636&#45;&gt;Node663</title>
<path fill="none" stroke="#191970" d="M177.7503,-793.5952C179.1305,-868.8991 188.0871,-1131.9329 246,-1186.4133 296.179,-1233.6182 382.206,-1228.5905 434.0721,-1219.9667"/>
<polygon fill="#191970" stroke="#191970" points="181.2435,-793.1259 177.5875,-783.1819 174.2444,-793.2354 181.2435,-793.1259"/>
</g>
<!-- Node679 -->
<g id="node28" class="node">
<title>Node679</title>
<g id="a_node28"><a xlink:href="quickjs_8c.html#a736435f0774c85e09f2817c97ec47bbf" target="_top" xlink:title="js_parse_from_clause">
<polygon fill="none" stroke="#000000" points="257,-1010.9133 257,-1029.9133 369,-1029.9133 369,-1010.9133 257,-1010.9133"/>
<text text-anchor="middle" x="313" y="-1017.9133" font-family="Helvetica,sans-Serif" font-size="10.00" fill="#000000">js_parse_from_clause</text>
</a>
</g>
</g>
<!-- Node636&#45;&gt;Node679 -->
<g id="edge66" class="edge">
<title>Node636&#45;&gt;Node679</title>
<path fill="none" stroke="#191970" d="M181.1548,-792.8431C190.6426,-841.4173 217.3237,-966.3883 246,-996.4133 252.059,-1002.7573 259.9108,-1007.4284 268.0948,-1010.8666"/>
<polygon fill="#191970" stroke="#191970" points="184.5808,-792.1242 179.2578,-782.9637 177.7064,-793.4443 184.5808,-792.1242"/>
</g>
<!-- Node680 -->
<g id="node29" class="node">
<title>Node680</title>
<g id="a_node29"><a xlink:href="quickjs_8c.html#aba7eb7aae2eb61bfccb4565ee626cd18" target="_top" xlink:title="js_parse_seek_token">
<polygon fill="none" stroke="#000000" points="258.5,-744.9133 258.5,-763.9133 367.5,-763.9133 367.5,-744.9133 258.5,-744.9133"/>
<text text-anchor="middle" x="313" y="-751.9133" font-family="Helvetica,sans-Serif" font-size="10.00" fill="#000000">js_parse_seek_token</text>
</a>
</g>
</g>
<!-- Node636&#45;&gt;Node680 -->
<g id="edge76" class="edge">
<title>Node636&#45;&gt;Node680</title>
<path fill="none" stroke="#191970" d="M220.4976,-767.3841C232.5054,-765.7004 245.716,-763.848 258.3019,-762.0831"/>
<polygon fill="#191970" stroke="#191970" points="219.7178,-763.9591 210.3008,-768.8139 220.6899,-770.8913 219.7178,-763.9591"/>
</g>
<!-- Node681 -->
<g id="node30" class="node">
<title>Node681</title>
<g id="a_node30"><a xlink:href="quickjs_8c.html#ac00298085baf11a4a7bd600cf5de2e6d" target="_top" xlink:title="js_parse_skip_parens\l_token">
<polygon fill="none" stroke="#ff0000" points="422,-429.4133 422,-459.4133 533,-459.4133 533,-429.4133 422,-429.4133"/>
<text text-anchor="start" x="430" y="-447.4133" font-family="Helvetica,sans-Serif" font-size="10.00" fill="#000000">js_parse_skip_parens</text>
<text text-anchor="middle" x="477.5" y="-436.4133" font-family="Helvetica,sans-Serif" font-size="10.00" fill="#000000">_token</text>
</a>
</g>
</g>
<!-- Node636&#45;&gt;Node681 -->
<g id="edge85" class="edge">
<title>Node636&#45;&gt;Node681</title>
<path fill="none" stroke="#191970" d="M181.2213,-753.6666C190.8652,-704.2821 217.8825,-577.1098 246,-545.4133 291.9763,-493.5847 369.3837,-467.259 421.9111,-454.6987"/>
<polygon fill="#191970" stroke="#191970" points="177.7415,-753.2283 179.2916,-763.7092 184.6158,-754.5493 177.7415,-753.2283"/>
</g>
<!-- Node637&#45;&gt;Node638 -->
<g id="edge3" class="edge">
<title>Node637&#45;&gt;Node638</title>
<path fill="none" stroke="#191970" d="M507.7196,-745.5336C567.4571,-727.9804 700.1781,-688.9818 761.6255,-670.9262"/>
<polygon fill="#191970" stroke="#191970" points="506.3876,-742.277 497.78,-748.4543 508.3611,-748.993 506.3876,-742.277"/>
</g>
<!-- Node656&#45;&gt;Node645 -->
<g id="edge5" class="edge">
<title>Node656&#45;&gt;Node645</title>
<path fill="none" stroke="#191970" d="M510.3887,-197.0807C567.2193,-175.2823 687.9148,-134.4133 794,-134.4133 794,-134.4133 794,-134.4133 960,-134.4133 1084.6161,-134.4133 1200.2015,-260.2875 1231.0098,-296.673"/>
<polygon fill="#191970" stroke="#191970" points="508.9104,-193.9002 500.8599,-200.7878 511.4484,-200.4239 508.9104,-193.9002"/>
</g>
<!-- Node645&#45;&gt;Node645 -->
<g id="edge6" class="edge">
<title>Node645&#45;&gt;Node645</title>
<path fill="none" stroke="#191970" d="M1214.4465,-325.4425C1215.7858,-330.5413 1223.9703,-334.4133 1239,-334.4133 1262.4609,-334.4133 1269.2426,-324.9786 1259.345,-316.1704"/>
<polygon fill="#191970" stroke="#191970" points="1217.709,-326.7229 1218.655,-316.1704 1211.3348,-323.8297 1217.709,-326.7229"/>
</g>
<!-- Node654&#45;&gt;Node638 -->
<g id="edge12" class="edge">
<title>Node654&#45;&gt;Node638</title>
<path fill="none" stroke="#191970" d="M642.416,-1120.0029C669.1883,-1039.0081 771.499,-729.4858 790.8364,-670.9843"/>
<polygon fill="#191970" stroke="#191970" points="638.9714,-1119.2718 639.1561,-1129.8651 645.6178,-1121.4688 638.9714,-1119.2718"/>
</g>
<!-- Node654&#45;&gt;Node654 -->
<g id="edge8" class="edge">
<title>Node654&#45;&gt;Node654</title>
<path fill="none" stroke="#191970" d="M606.5076,-1158.0672C607.7404,-1163.3501 617.5712,-1167.4133 636,-1167.4133 664.082,-1167.4133 672.1995,-1157.9786 660.3524,-1149.1704"/>
<polygon fill="#191970" stroke="#191970" points="609.6757,-1159.5801 611.6476,-1149.1704 603.6145,-1156.0783 609.6757,-1159.5801"/>
</g>
<!-- Node654&#45;&gt;Node653 -->
<g id="edge9" class="edge">
<title>Node654&#45;&gt;Node653</title>
<path fill="none" stroke="#191970" d="M704.7323,-1132.7142C717.1811,-1132.5901 729.9759,-1132.6929 741.8518,-1133.0225"/>
<polygon fill="#191970" stroke="#191970" points="704.33,-1129.2199 694.3845,-1132.8719 704.4366,-1136.219 704.33,-1129.2199"/>
</g>
<!-- Node654&#45;&gt;Node658 -->
<g id="edge11" class="edge">
<title>Node654&#45;&gt;Node658</title>
<path fill="none" stroke="#191970" d="M659.1249,-1154.7434C670.6496,-1162.5322 684.7131,-1172.2629 697,-1181.4133 728.7165,-1205.0334 764.6555,-1234.7422 782.5729,-1249.7649"/>
<polygon fill="#191970" stroke="#191970" points="660.763,-1151.6276 650.5091,-1148.9615 656.8623,-1157.4401 660.763,-1151.6276"/>
</g>
<!-- Node653&#45;&gt;Node654 -->
<g id="edge10" class="edge">
<title>Node653&#45;&gt;Node654</title>
<path fill="none" stroke="#191970" d="M731.6877,-1146.0276C719.3964,-1146.2302 706.5403,-1146.2059 694.3845,-1145.9547"/>
<polygon fill="#191970" stroke="#191970" points="731.9312,-1149.5232 741.8518,-1145.8041 731.7773,-1142.5249 731.9312,-1149.5232"/>
</g>
<!-- Node643&#45;&gt;Node645 -->
<g id="edge16" class="edge">
<title>Node643&#45;&gt;Node645</title>
<path fill="none" stroke="#191970" d="M1128.0177,-385.6864C1155.7701,-365.8633 1202.6117,-332.4049 1225.5404,-316.0273"/>
<polygon fill="#191970" stroke="#191970" points="1125.8354,-382.9439 1119.7324,-391.6044 1129.9041,-388.6401 1125.8354,-382.9439"/>
</g>
<!-- Node643&#45;&gt;Node644 -->
<g id="edge15" class="edge">
<title>Node643&#45;&gt;Node644</title>
<path fill="none" stroke="#191970" d="M1125.9912,-418.3152C1133.548,-425.6427 1141.6143,-434.7537 1147,-444.4133 1215.7464,-567.7149 1234.5785,-744.0186 1238.2521,-786.7959"/>
<polygon fill="#191970" stroke="#191970" points="1127.8795,-415.2982 1118.1422,-411.1224 1123.1501,-420.459 1127.8795,-415.2982"/>
</g>
<!-- Node664&#45;&gt;Node643 -->
<g id="edge18" class="edge">
<title>Node664&#45;&gt;Node643</title>
<path fill="none" stroke="#191970" d="M1039.1926,-410.1074C1048.0645,-408.9529 1056.8135,-407.8143 1064.9104,-406.7606"/>
<polygon fill="#191970" stroke="#191970" points="1038.6167,-406.6528 1029.152,-411.4141 1039.5201,-413.5942 1038.6167,-406.6528"/>
</g>
<!-- Node652&#45;&gt;Node653 -->
<g id="edge20" class="edge">
<title>Node652&#45;&gt;Node653</title>
<path fill="none" stroke="#191970" d="M670.2738,-1187.181C700.0962,-1175.6673 742.6008,-1159.2573 769.2257,-1148.9781"/>
<polygon fill="#191970" stroke="#191970" points="668.7558,-1184.0152 660.6875,-1190.8821 671.277,-1190.5454 668.7558,-1184.0152"/>
</g>
<!-- Node647&#45;&gt;Node638 -->
<g id="edge25" class="edge">
<title>Node647&#45;&gt;Node638</title>
<path fill="none" stroke="#191970" d="M647.2564,-337.2772C679.105,-407.6263 768.8902,-605.9492 789.6694,-651.8476"/>
<polygon fill="#191970" stroke="#191970" points="650.3057,-335.5261 642.9929,-327.8597 643.9288,-338.4131 650.3057,-335.5261"/>
</g>
<!-- Node647&#45;&gt;Node645 -->
<g id="edge30" class="edge">
<title>Node647&#45;&gt;Node645</title>
<path fill="none" stroke="#191970" d="M703.7003,-311.7397C823.6404,-310.5462 1071.2776,-308.0822 1182.6123,-306.9744"/>
<polygon fill="#191970" stroke="#191970" points="703.5097,-308.2413 693.545,-311.8407 703.5794,-315.2409 703.5097,-308.2413"/>
</g>
<!-- Node647&#45;&gt;Node647 -->
<g id="edge24" class="edge">
<title>Node647&#45;&gt;Node647</title>
<path fill="none" stroke="#191970" d="M607.9253,-337.8712C611.4098,-342.5923 620.768,-345.9133 636,-345.9133 660.9961,-345.9133 670.1743,-336.9699 663.5348,-327.5723"/>
<polygon fill="#191970" stroke="#191970" points="611.4368,-337.7419 608.4652,-327.5723 604.4464,-337.3753 611.4368,-337.7419"/>
</g>
<!-- Node647&#45;&gt;Node642 -->
<g id="edge26" class="edge">
<title>Node647&#45;&gt;Node642</title>
<path fill="none" stroke="#191970" d="M657.5553,-334.931C676.1658,-353.3749 704.4842,-379.1542 733,-396.4133 742.5413,-402.1882 753.7169,-407.0588 763.8772,-410.8711"/>
<polygon fill="#191970" stroke="#191970" points="659.7301,-332.1537 650.2015,-327.5217 654.7618,-337.0849 659.7301,-332.1537"/>
</g>
<!-- Node642&#45;&gt;Node643 -->
<g id="edge27" class="edge">
<title>Node642&#45;&gt;Node643</title>
<path fill="none" stroke="#191970" d="M843.5731,-408.7881C858.7075,-405.7579 875.4571,-402.9212 891,-401.4133 951.1862,-395.5743 1021.2963,-397.1253 1064.6688,-399.0515"/>
<polygon fill="#191970" stroke="#191970" points="842.4677,-405.4429 833.3881,-410.903 843.8909,-412.2967 842.4677,-405.4429"/>
</g>
<!-- Node642&#45;&gt;Node644 -->
<g id="edge29" class="edge">
<title>Node642&#45;&gt;Node644</title>
<path fill="none" stroke="#191970" d="M841.1428,-432.8433C915.1719,-454.5433 1059.2679,-505.8845 1147,-596.4133 1203.92,-655.1478 1229.9657,-755.4439 1236.9798,-786.7726"/>
<polygon fill="#191970" stroke="#191970" points="841.753,-429.377 831.1752,-429.9771 839.8185,-436.1044 841.753,-429.377"/>
</g>
<!-- Node642&#45;&gt;Node664 -->
<g id="edge28" class="edge">
<title>Node642&#45;&gt;Node664</title>
<path fill="none" stroke="#191970" d="M865.4791,-420.4133C873.8754,-420.4133 882.4321,-420.4133 890.7965,-420.4133"/>
<polygon fill="#191970" stroke="#191970" points="865.3407,-416.9134 855.3406,-420.4133 865.3406,-423.9134 865.3407,-416.9134"/>
</g>
<!-- Node674&#45;&gt;Node647 -->
<g id="edge32" class="edge">
<title>Node674&#45;&gt;Node647</title>
<path fill="none" stroke="#191970" d="M390.5122,-321.5336C448.3567,-319.3846 526.1183,-316.4956 578.4919,-314.5498"/>
<polygon fill="#191970" stroke="#191970" points="390.1813,-318.0434 380.3182,-321.9123 390.4413,-325.0385 390.1813,-318.0434"/>
</g>
<!-- Node675&#45;&gt;Node642 -->
<g id="edge34" class="edge">
<title>Node675&#45;&gt;Node642</title>
<path fill="none" stroke="#191970" d="M497.1319,-813.9984C509.6987,-803.0723 526.0204,-788.0793 539,-773.4133 650.9841,-646.8791 761.7972,-472.2251 788.1285,-429.9187"/>
<polygon fill="#191970" stroke="#191970" points="494.8056,-811.3825 489.4889,-820.5468 499.36,-816.6983 494.8056,-811.3825"/>
</g>
<!-- Node675&#45;&gt;Node666 -->
<g id="edge35" class="edge">
<title>Node675&#45;&gt;Node666</title>
<path fill="none" stroke="#191970" d="M527.4191,-842.3813C549.6304,-847.7064 575.4205,-853.8895 596.2914,-858.8933"/>
<polygon fill="#191970" stroke="#191970" points="528.0367,-838.9302 517.4962,-840.0023 526.4047,-845.7373 528.0367,-838.9302"/>
</g>
<!-- Node676&#45;&gt;Node638 -->
<g id="edge43" class="edge">
<title>Node676&#45;&gt;Node638</title>
<path fill="none" stroke="#191970" d="M336.5479,-579.3067C356.8058,-591.3684 387.2287,-607.7333 416,-616.4133 530.8381,-651.0588 672.8444,-659.1977 745.7709,-661.0007"/>
<polygon fill="#191970" stroke="#191970" points="338.3614,-576.3132 327.998,-574.1107 334.726,-582.2952 338.3614,-576.3132"/>
</g>
<!-- Node676&#45;&gt;Node656 -->
<g id="edge37" class="edge">
<title>Node676&#45;&gt;Node656</title>
<path fill="none" stroke="#191970" d="M318.8104,-545.0057C339.7529,-475.1582 410.4261,-240.3888 416,-234.4133 421.8633,-228.1274 429.5697,-223.4648 437.536,-220.0137"/>
<polygon fill="#191970" stroke="#191970" points="315.4114,-544.1556 315.8938,-554.7394 322.1169,-546.1648 315.4114,-544.1556"/>
</g>
<!-- Node676&#45;&gt;Node645 -->
<g id="edge48" class="edge">
<title>Node676&#45;&gt;Node645</title>
<path fill="none" stroke="#191970" d="M367.4278,-563.4838C488.8762,-560.0791 790.1026,-544.2205 1029,-470.4133 1083.4203,-453.6002 1101.5289,-454.7153 1147,-420.4133 1187.607,-389.7806 1220.9179,-337.4314 1233.5483,-315.9945"/>
<polygon fill="#191970" stroke="#191970" points="367.1773,-559.9891 357.2728,-563.7509 367.3614,-566.9867 367.1773,-559.9891"/>
</g>
<!-- Node676&#45;&gt;Node653 -->
<g id="edge40" class="edge">
<title>Node676&#45;&gt;Node653</title>
<path fill="none" stroke="#191970" d="M331.4761,-580.7923C351.3705,-597.8843 384.4287,-624.7456 416,-643.4133 467.3914,-673.8003 489.386,-664.2035 539,-697.4133 619.9756,-751.6154 644.9296,-767.0508 697,-849.4133 759.4127,-948.1346 786.1905,-1091.351 792.4876,-1129.6784"/>
<polygon fill="#191970" stroke="#191970" points="333.6417,-578.0373 323.7986,-574.1177 329.049,-583.3201 333.6417,-578.0373"/>
</g>
<!-- Node676&#45;&gt;Node640 -->
<g id="edge38" class="edge">
<title>Node676&#45;&gt;Node640</title>
<path fill="none" stroke="#191970" d="M323.6763,-583.1674C340.1917,-610.6559 374.4105,-661.9216 416,-692.4133 424.2265,-698.4446 434.1661,-703.183 443.6335,-706.7985"/>
<polygon fill="#191970" stroke="#191970" points="326.4923,-581.0507 318.4118,-574.1983 320.4554,-584.5942 326.4923,-581.0507"/>
</g>
<!-- Node676&#45;&gt;Node643 -->
<g id="edge39" class="edge">
<title>Node676&#45;&gt;Node643</title>
<path fill="none" stroke="#191970" d="M367.4291,-556.9642C512.2937,-536.8122 904.6847,-480.0093 1029,-439.4133 1051.1066,-432.1943 1074.8638,-419.6626 1090.0509,-410.9738"/>
<polygon fill="#191970" stroke="#191970" points="366.8578,-553.5099 357.4337,-558.3511 367.8199,-560.4435 366.8578,-553.5099"/>
</g>
<!-- Node676&#45;&gt;Node644 -->
<g id="edge42" class="edge">
<title>Node676&#45;&gt;Node644</title>
<path fill="none" stroke="#191970" d="M367.2767,-571.8688C499.9377,-590.1394 831.5376,-636.1173 855,-642.4133 1000.3379,-681.4138 1164.968,-759.7171 1219.9798,-786.8765"/>
<polygon fill="#191970" stroke="#191970" points="367.7064,-568.3951 357.3225,-570.4985 366.7517,-575.3297 367.7064,-568.3951"/>
</g>
<!-- Node676&#45;&gt;Node647 -->
<g id="edge41" class="edge">
<title>Node676&#45;&gt;Node647</title>
<path fill="none" stroke="#191970" d="M321.6009,-545.5488C336.5315,-514.8189 370.1014,-453.926 416,-419.4133 462.2858,-384.6095 487.1029,-402.1109 539,-376.4133 567.3862,-362.3575 597.438,-341.4707 616.436,-327.4182"/>
<polygon fill="#191970" stroke="#191970" points="318.3693,-544.1954 317.2611,-554.7322 324.6982,-547.1863 318.3693,-544.1954"/>
</g>
<!-- Node676&#45;&gt;Node642 -->
<g id="edge44" class="edge">
<title>Node676&#45;&gt;Node642</title>
<path fill="none" stroke="#191970" d="M338.1916,-549.6418C358.6083,-538.1797 388.4161,-522.5803 416,-512.4133 526.9028,-471.5363 662.8203,-443.5542 737.7277,-429.9391"/>
<polygon fill="#191970" stroke="#191970" points="336.2012,-546.7475 329.2442,-554.7382 339.6658,-552.83 336.2012,-546.7475"/>
</g>
<!-- Node676&#45;&gt;Node677 -->
<g id="edge45" class="edge">
<title>Node676&#45;&gt;Node677</title>
<path fill="none" stroke="#191970" d="M320.8618,-583.2466C333.8324,-614.5799 360.2441,-679.5025 380,-735.4133 397.7018,-785.5108 399.0059,-799.0714 416,-849.4133 436.8878,-911.2895 464.2063,-984.9042 473.8989,-1010.8179"/>
<polygon fill="#191970" stroke="#191970" points="324.0765,-581.8614 317.0074,-573.9697 317.6122,-584.5473 324.0765,-581.8614"/>
</g>
<!-- Node676&#45;&gt;Node657 -->
<g id="edge46" class="edge">
<title>Node676&#45;&gt;Node657</title>
<path fill="none" stroke="#191970" d="M318.6044,-544.7414C336.769,-481.5577 394.1062,-286.7603 416,-267.4133 439.8523,-246.3355 522.5206,-233.0447 579.4364,-226.1697"/>
<polygon fill="#191970" stroke="#191970" points="315.1603,-544.0553 315.7724,-554.6325 321.8899,-545.9822 315.1603,-544.0553"/>
</g>
<!-- Node676&#45;&gt;Node661 -->
<g id="edge49" class="edge">
<title>Node676&#45;&gt;Node661</title>
<path fill="none" stroke="#191970" d="M323.5138,-545.8682C341.9701,-513.3989 381.515,-444.2081 416,-386.4133 435.947,-352.9833 460.3637,-313.7715 471.4768,-296.0145"/>
<polygon fill="#191970" stroke="#191970" points="320.386,-544.2885 318.492,-554.7127 326.4732,-547.7448 320.386,-544.2885"/>
</g>
<!-- Node657&#45;&gt;Node645 -->
<g id="edge47" class="edge">
<title>Node657&#45;&gt;Node645</title>
<path fill="none" stroke="#191970" d="M702.8763,-223.0108C781.4023,-226.7955 915.3664,-235.548 1029,-254.4133 1092.9152,-265.0244 1166.044,-284.9457 1206.9493,-296.8123"/>
<polygon fill="#191970" stroke="#191970" points="702.7946,-219.5032 692.6415,-222.5307 702.4665,-226.4956 702.7946,-219.5032"/>
</g>
<!-- Node661&#45;&gt;Node643 -->
<g id="edge50" class="edge">
<title>Node661&#45;&gt;Node643</title>
<path fill="none" stroke="#191970" d="M549.4065,-281.9285C592.4308,-280.4387 648.0793,-280.6095 697,-287.4133 845.9422,-308.128 1017.2268,-368.2198 1080.6658,-391.7774"/>
<polygon fill="#191970" stroke="#191970" points="549.1706,-278.4349 539.3123,-282.3163 549.4393,-285.4297 549.1706,-278.4349"/>
</g>
<!-- Node661&#45;&gt;Node647 -->
<g id="edge51" class="edge">
<title>Node661&#45;&gt;Node647</title>
<path fill="none" stroke="#191970" d="M545.5657,-297.5787C556.5117,-299.3742 567.7482,-301.2174 578.4171,-302.9675"/>
<polygon fill="#191970" stroke="#191970" points="546.0542,-294.1121 535.6195,-295.9471 544.9211,-301.0198 546.0542,-294.1121"/>
</g>
<!-- Node661&#45;&gt;Node657 -->
<g id="edge52" class="edge">
<title>Node661&#45;&gt;Node657</title>
<path fill="none" stroke="#191970" d="M512.2686,-273.1005C521.0191,-269.6798 530.3749,-265.9621 539,-262.4133 565.1349,-251.6599 594.9284,-238.6454 614.521,-229.9815"/>
<polygon fill="#191970" stroke="#191970" points="510.771,-269.9274 502.7174,-276.8114 513.3061,-276.4522 510.771,-269.9274"/>
</g>
<!-- Node678&#45;&gt;Node643 -->
<g id="edge54" class="edge">
<title>Node678&#45;&gt;Node643</title>
<path fill="none" stroke="#191970" d="M379.9917,-955.0842C460.0772,-964.5419 595.9412,-969.9016 697,-918.4133 933.5826,-797.8773 1077.2665,-471.2064 1102.1278,-411.015"/>
<polygon fill="#191970" stroke="#191970" points="380.3831,-951.606 370.0292,-953.8523 379.5241,-958.5531 380.3831,-951.606"/>
</g>
<!-- Node678&#45;&gt;Node644 -->
<g id="edge55" class="edge">
<title>Node678&#45;&gt;Node644</title>
<path fill="none" stroke="#191970" d="M366.3642,-956.2353C370.9795,-957.2957 375.5743,-958.3648 380,-959.4133 396.0482,-963.2152 399.7034,-965.8792 416,-968.4133 512.8121,-983.4676 538.0244,-982.4133 636,-982.4133 636,-982.4133 636,-982.4133 960,-982.4133 1088.3633,-982.4133 1202.587,-844.4225 1231.7978,-806.1516"/>
<polygon fill="#191970" stroke="#191970" points="366.8134,-952.7481 356.2858,-953.9394 365.2586,-959.5732 366.8134,-952.7481"/>
</g>
<!-- Node678&#45;&gt;Node677 -->
<g id="edge56" class="edge">
<title>Node678&#45;&gt;Node677</title>
<path fill="none" stroke="#191970" d="M355.8069,-957.4524C364.044,-960.5954 372.4507,-964.2645 380,-968.4133 397.764,-978.1757 398.3749,-986.4023 416,-996.4133 425.9659,-1002.0739 437.5301,-1006.9743 447.9232,-1010.8446"/>
<polygon fill="#191970" stroke="#191970" points="356.871,-954.1155 346.2767,-954.0074 354.4912,-960.6986 356.871,-954.1155"/>
</g>
<!-- Node651&#45;&gt;Node652 -->
<g id="edge60" class="edge">
<title>Node651&#45;&gt;Node652</title>
<path fill="none" stroke="#191970" d="M377.731,-1255.664C423.4033,-1258.9619 485.6972,-1259.7709 539,-1247.4133 570.3547,-1240.1441 603.3639,-1221.4263 621.6503,-1209.9255"/>
<polygon fill="#191970" stroke="#191970" points="377.9069,-1252.1672 367.6647,-1254.8777 377.3617,-1259.1459 377.9069,-1252.1672"/>
</g>
<!-- Node651&#45;&gt;Node651 -->
<g id="edge61" class="edge">
<title>Node651&#45;&gt;Node651</title>
<path fill="none" stroke="#191970" d="M288.0745,-1267.4425C289.4341,-1272.5413 297.7426,-1276.4133 313,-1276.4133 336.8164,-1276.4133 343.7008,-1266.9786 333.6533,-1258.1704"/>
<polygon fill="#191970" stroke="#191970" points="291.3407,-1268.7173 292.3467,-1258.1704 284.9831,-1265.788 291.3407,-1268.7173"/>
</g>
<!-- Node651&#45;&gt;Node663 -->
<g id="edge62" class="edge">
<title>Node651&#45;&gt;Node663</title>
<path fill="none" stroke="#191970" d="M364.4975,-1236.5172C387.6197,-1231.1759 414.5297,-1224.9596 436.2882,-1219.9334"/>
<polygon fill="#191970" stroke="#191970" points="363.4659,-1233.1633 354.5103,-1238.8243 365.0415,-1239.9837 363.4659,-1233.1633"/>
</g>
<!-- Node663&#45;&gt;Node652 -->
<g id="edge63" class="edge">
<title>Node663&#45;&gt;Node652</title>
<path fill="none" stroke="#191970" d="M548.5329,-1205.9317C557.3021,-1205.3785 566.207,-1204.8166 574.8119,-1204.2737"/>
<polygon fill="#191970" stroke="#191970" points="548.0867,-1202.4528 538.3269,-1206.5756 548.5275,-1209.4389 548.0867,-1202.4528"/>
</g>
<!-- Node663&#45;&gt;Node663 -->
<g id="edge64" class="edge">
<title>Node663&#45;&gt;Node663</title>
<path fill="none" stroke="#191970" d="M448.0076,-1229.0672C449.2404,-1234.3501 459.0712,-1238.4133 477.5,-1238.4133 505.582,-1238.4133 513.6995,-1228.9786 501.8524,-1220.1704"/>
<polygon fill="#191970" stroke="#191970" points="451.1757,-1230.5801 453.1476,-1220.1704 445.1145,-1227.0783 451.1757,-1230.5801"/>
</g>
<!-- Node679&#45;&gt;Node644 -->
<g id="edge67" class="edge">
<title>Node679&#45;&gt;Node644</title>
<path fill="none" stroke="#191970" d="M369.4594,-1031.8402C384.534,-1034.6137 400.8464,-1037.3661 416,-1039.4133 513.2582,-1052.5525 537.8583,-1058.4133 636,-1058.4133 636,-1058.4133 636,-1058.4133 960,-1058.4133 1110.502,-1058.4133 1213.0901,-853.317 1234.7349,-806.0487"/>
<polygon fill="#191970" stroke="#191970" points="369.7242,-1028.3289 359.2503,-1029.9252 368.4336,-1035.2089 369.7242,-1028.3289"/>
</g>
<!-- Node679&#45;&gt;Node677 -->
<g id="edge68" class="edge">
<title>Node679&#45;&gt;Node677</title>
<path fill="none" stroke="#191970" d="M379.3084,-1020.4133C397.8441,-1020.4133 417.5031,-1020.4133 434.3224,-1020.4133"/>
<polygon fill="#191970" stroke="#191970" points="379.1515,-1016.9134 369.1515,-1020.4133 379.1514,-1023.9134 379.1515,-1016.9134"/>
</g>
<!-- Node680&#45;&gt;Node637 -->
<g id="edge77" class="edge">
<title>Node680&#45;&gt;Node637</title>
<path fill="none" stroke="#191970" d="M378.0788,-754.4133C406.4662,-754.4133 437.7099,-754.4133 457.455,-754.4133"/>
<polygon fill="#191970" stroke="#191970" points="377.7762,-750.9134 367.7761,-754.4133 377.7761,-757.9134 377.7762,-750.9134"/>
</g>
<!-- Node680&#45;&gt;Node664 -->
<g id="edge78" class="edge">
<title>Node680&#45;&gt;Node664</title>
<path fill="none" stroke="#191970" d="M364.2751,-765.9105C472.8501,-786.8948 726.5057,-817.5308 855,-680.4133 904.8407,-627.2278 861.7689,-587.184 891,-520.4133 906.903,-484.0873 936.6606,-447.1844 951.3473,-430.1428"/>
<polygon fill="#191970" stroke="#191970" points="364.7201,-762.4306 354.2299,-763.9158 363.3567,-769.2965 364.7201,-762.4306"/>
</g>
<!-- Node680&#45;&gt;Node675 -->
<g id="edge79" class="edge">
<title>Node680&#45;&gt;Node675</title>
<path fill="none" stroke="#191970" d="M355.8069,-767.4524C364.044,-770.5954 372.4507,-774.2645 380,-778.4133 397.764,-788.1757 398.3749,-796.4023 416,-806.4133 425.9659,-812.0739 437.5301,-816.9743 447.9232,-820.8446"/>
<polygon fill="#191970" stroke="#191970" points="356.871,-764.1155 346.2767,-764.0074 354.4912,-770.6986 356.871,-764.1155"/>
</g>
<!-- Node680&#45;&gt;Node681 -->
<g id="edge80" class="edge">
<title>Node680&#45;&gt;Node681</title>
<path fill="none" stroke="#191970" d="M322.8074,-735.9314C352.6362,-679.7189 441.9061,-511.49 469.3696,-459.735"/>
<polygon fill="#191970" stroke="#191970" points="319.6993,-734.3217 318.1035,-744.7957 325.8827,-737.6029 319.6993,-734.3217"/>
</g>
<!-- Node681&#45;&gt;Node638 -->
<g id="edge82" class="edge">
<title>Node681&#45;&gt;Node638</title>
<path fill="none" stroke="#191970" d="M507.9298,-465.2767C574.6741,-511.0382 731.7989,-618.7667 779.8141,-651.6871"/>
<polygon fill="#191970" stroke="#191970" points="509.7312,-462.2682 499.5044,-459.5 505.7728,-468.0415 509.7312,-462.2682"/>
</g>
<!-- Node681&#45;&gt;Node645 -->
<g id="edge84" class="edge">
<title>Node681&#45;&gt;Node645</title>
<path fill="none" stroke="#191970" d="M543.2074,-430.6878C553.8272,-428.5406 564.711,-426.3825 575,-424.4133 692.7999,-401.8682 1047.3222,-339.8331 1184.2252,-315.9546"/>
<polygon fill="#191970" stroke="#191970" points="542.2362,-427.3136 533.1344,-432.7365 543.6314,-434.1731 542.2362,-427.3136"/>
</g>
<!-- Node681&#45;&gt;Node647 -->
<g id="edge81" class="edge">
<title>Node681&#45;&gt;Node647</title>
<path fill="none" stroke="#191970" d="M525.3721,-424.2793C530.2139,-421.3178 534.8632,-418.0292 539,-414.4133 560.7173,-395.4302 555.422,-381.5959 575,-360.4133 586.4333,-348.0429 601.2448,-336.3089 613.4096,-327.5391"/>
<polygon fill="#191970" stroke="#191970" points="523.5201,-421.3052 516.5184,-429.2568 526.9506,-427.4071 523.5201,-421.3052"/>
</g>
<!-- Node681&#45;&gt;Node642 -->
<g id="edge83" class="edge">
<title>Node681&#45;&gt;Node642</title>
<path fill="none" stroke="#191970" d="M543.2481,-438.9379C553.8628,-438.0772 564.7343,-437.2094 575,-436.4133 628.2113,-432.2866 688.7195,-427.8883 732.6297,-424.7497"/>
<polygon fill="#191970" stroke="#191970" points="542.8606,-435.4578 533.178,-439.7585 543.4292,-442.4347 542.8606,-435.4578"/>
</g>
</g>
</svg>
