<?xml version="1.0" encoding="UTF-8" standalone="no"?>
<!DOCTYPE svg PUBLIC "-//W3C//DTD SVG 1.1//EN"
 "http://www.w3.org/Graphics/SVG/1.1/DTD/svg11.dtd">
<!-- Generated by graphviz version 2.40.1 (20161225.0304)
 -->
<!-- Title: js_build_module_ns Pages: 1 -->
<!--zoomable 84 -->
<svg id="main" version="1.1" xmlns="http://www.w3.org/2000/svg" xmlns:xlink="http://www.w3.org/1999/xlink" xml:space="preserve" onload="init(evt)">
<style type="text/css"><![CDATA[
.edge:hover path { stroke: red; }
.edge:hover polygon { stroke: red; fill: red; }
]]></style>
<script type="text/javascript"><![CDATA[
var edges = document.getElementsByTagName('g');
if (edges && edges.length) {
  for (var i=0;i<edges.length;i++) {
    if (edges[i].id.substr(0,4)=='edge') {
      edges[i].setAttribute('class','edge');
    }
  }
}
]]></script>
        <defs>
                <circle id="rim" cx="0" cy="0" r="7"/>
                <circle id="rim2" cx="0" cy="0" r="3.5"/>
                <g id="zoomPlus">
                        <use xlink:href="#rim" fill="#404040">
                                <set attributeName="fill" to="#808080" begin="zoomplus.mouseover" end="zoomplus.mouseout"/>
                        </use>
                        <path d="M-4,0h8M0,-4v8" fill="none" stroke="white" stroke-width="1.5" pointer-events="none"/>
                </g>
                <g id="zoomMin">
                        <use xlink:href="#rim" fill="#404040">
                                <set attributeName="fill" to="#808080" begin="zoomminus.mouseover" end="zoomminus.mouseout"/>
                        </use>
                        <path d="M-4,0h8" fill="none" stroke="white" stroke-width="1.5" pointer-events="none"/>
                </g>
                <g id="dirArrow">
                        <path fill="none" stroke="white" stroke-width="1.5" d="M0,-3.0v7 M-2.5,-0.5L0,-3.0L2.5,-0.5"/>
                </g>
               <g id="resetDef">
                       <use xlink:href="#rim2" fill="#404040">
                               <set attributeName="fill" to="#808080" begin="reset.mouseover" end="reset.mouseout"/>
                       </use>
               </g>
        </defs>

<script type="text/javascript">
var viewWidth = 527;
var viewHeight = 84;
var sectionId = 'dynsection-1136';
</script>
<script xlink:href="svgpan.js"/>
<svg id="graph" class="graph">
<g id="viewport">
<title>js_build_module_ns</title>
<!-- Node342336 -->
<g id="node1" class="node">
<title>Node342336</title>
<polygon fill="#bfbfbf" stroke="#000000" points="0,-28.5 0,-47.5 102,-47.5 102,-28.5 0,-28.5"/>
<text text-anchor="middle" x="51" y="-35.5" font-family="Helvetica,sans-Serif" font-size="10.00" fill="#000000">js_build_module_ns</text>
</g>
<!-- Node342337 -->
<g id="node2" class="node">
<title>Node342337</title>
<g id="a_node2"><a xlink:href="quickjs_8c.html#a2f5aeb4e31e2001c555335ae5172165b" target="_top" xlink:title="js_get_module_ns">
<polygon fill="none" stroke="#000000" points="138,-28.5 138,-47.5 233,-47.5 233,-28.5 138,-28.5"/>
<text text-anchor="middle" x="185.5" y="-35.5" font-family="Helvetica,sans-Serif" font-size="10.00" fill="#000000">js_get_module_ns</text>
</a>
</g>
</g>
<!-- Node342336&#45;&gt;Node342337 -->
<g id="edge1" class="edge">
<title>Node342336&#45;&gt;Node342337</title>
<path fill="none" stroke="#191970" d="M112.2586,-38C120.8806,-38 129.6349,-38 137.9487,-38"/>
<polygon fill="#191970" stroke="#191970" points="112.2324,-34.5001 102.2324,-38 112.2323,-41.5001 112.2324,-34.5001"/>
</g>
<!-- Node342338 -->
<g id="node3" class="node">
<title>Node342338</title>
<g id="a_node3"><a xlink:href="quickjs_8c.html#a6357b7fdae71c70c140e78e6c20cb5c2" target="_top" xlink:title="js_dynamic_import_job">
<polygon fill="none" stroke="#000000" points="269,-56.5 269,-75.5 385,-75.5 385,-56.5 269,-56.5"/>
<text text-anchor="middle" x="327" y="-63.5" font-family="Helvetica,sans-Serif" font-size="10.00" fill="#000000">js_dynamic_import_job</text>
</a>
</g>
</g>
<!-- Node342337&#45;&gt;Node342338 -->
<g id="edge2" class="edge">
<title>Node342337&#45;&gt;Node342338</title>
<path fill="none" stroke="#191970" d="M242.8927,-49.3569C254.8416,-51.7213 267.318,-54.1901 278.8909,-56.4802"/>
<polygon fill="#191970" stroke="#191970" points="243.5003,-45.9093 233.0111,-47.4015 242.1414,-52.7762 243.5003,-45.9093"/>
</g>
<!-- Node342418 -->
<g id="node5" class="node">
<title>Node342418</title>
<g id="a_node5"><a xlink:href="quickjs_8c.html#adc0280beaa04d2b8fcaf05a82ab26c74" target="_top" xlink:title="js_link_module">
<polygon fill="none" stroke="#ff0000" points="286.5,-.5 286.5,-19.5 367.5,-19.5 367.5,-.5 286.5,-.5"/>
<text text-anchor="middle" x="327" y="-7.5" font-family="Helvetica,sans-Serif" font-size="10.00" fill="#000000">js_link_module</text>
</a>
</g>
</g>
<!-- Node342337&#45;&gt;Node342418 -->
<g id="edge4" class="edge">
<title>Node342337&#45;&gt;Node342418</title>
<path fill="none" stroke="#191970" d="M242.955,-26.6308C257.5453,-23.7437 272.9182,-20.7017 286.4695,-18.0202"/>
<polygon fill="#191970" stroke="#191970" points="242.1414,-23.2238 233.0111,-28.5985 243.5003,-30.0907 242.1414,-23.2238"/>
</g>
<!-- Node342339 -->
<g id="node4" class="node">
<title>Node342339</title>
<g id="a_node4"><a xlink:href="quickjs_8c.html#a50e94675d1c4cf67c88e72169ea3c21a" target="_top" xlink:title="js_dynamic_import">
<polygon fill="none" stroke="#ff0000" points="421,-56.5 421,-75.5 519,-75.5 519,-56.5 421,-56.5"/>
<text text-anchor="middle" x="470" y="-63.5" font-family="Helvetica,sans-Serif" font-size="10.00" fill="#000000">js_dynamic_import</text>
</a>
</g>
</g>
<!-- Node342338&#45;&gt;Node342339 -->
<g id="edge3" class="edge">
<title>Node342338&#45;&gt;Node342339</title>
<path fill="none" stroke="#191970" d="M395.1691,-66C403.7427,-66 412.3802,-66 420.5873,-66"/>
<polygon fill="#191970" stroke="#191970" points="395.1636,-62.5001 385.1636,-66 395.1635,-69.5001 395.1636,-62.5001"/>
</g>
<!-- Node342418&#45;&gt;Node342418 -->
<g id="edge5" class="edge">
<title>Node342418&#45;&gt;Node342418</title>
<path fill="none" stroke="#191970" d="M300.9584,-29.0292C302.3789,-34.128 311.0594,-38 327,-38 351.8828,-38 359.0755,-28.5653 348.5781,-19.7571"/>
<polygon fill="#191970" stroke="#191970" points="304.238,-30.2855 305.4219,-19.7571 297.9308,-27.2493 304.238,-30.2855"/>
</g>
</g>
</svg>
        <g id="navigator" transform="translate(0 0)" fill="#404254">
                <rect fill="#f2f5e9" fill-opacity="0.5" stroke="#606060" stroke-width=".5" x="0" y="0" width="60" height="60"/>
                <use id="zoomplus" xlink:href="#zoomPlus" x="17" y="9" onmousedown="handleZoom(evt,'in')"/>
                <use id="zoomminus" xlink:href="#zoomMin" x="42" y="9" onmousedown="handleZoom(evt,'out')"/>
                <use id="reset" xlink:href="#resetDef" x="30" y="36" onmousedown="handleReset()"/>
                <g id="arrowUp" xlink:href="#dirArrow" transform="translate(30 24)" onmousedown="handlePan(0,-1)">
                  <use xlink:href="#rim" fill="#404040">
                        <set attributeName="fill" to="#808080" begin="arrowUp.mouseover" end="arrowUp.mouseout"/>
                  </use>
                  <path fill="none" stroke="white" stroke-width="1.5" d="M0,-3.0v7 M-2.5,-0.5L0,-3.0L2.5,-0.5"/>
                </g>
                <g id="arrowRight" xlink:href="#dirArrow" transform="rotate(90) translate(36 -43)" onmousedown="handlePan(1,0)">
                  <use xlink:href="#rim" fill="#404040">
                        <set attributeName="fill" to="#808080" begin="arrowRight.mouseover" end="arrowRight.mouseout"/>
                  </use>
                  <path fill="none" stroke="white" stroke-width="1.5" d="M0,-3.0v7 M-2.5,-0.5L0,-3.0L2.5,-0.5"/>
                </g>
                <g id="arrowDown" xlink:href="#dirArrow" transform="rotate(180) translate(-30 -48)" onmousedown="handlePan(0,1)">
                  <use xlink:href="#rim" fill="#404040">
                        <set attributeName="fill" to="#808080" begin="arrowDown.mouseover" end="arrowDown.mouseout"/>
                  </use>
                  <path fill="none" stroke="white" stroke-width="1.5" d="M0,-3.0v7 M-2.5,-0.5L0,-3.0L2.5,-0.5"/>
                </g>
                <g id="arrowLeft" xlink:href="#dirArrow" transform="rotate(270) translate(-36 17)" onmousedown="handlePan(-1,0)">
                  <use xlink:href="#rim" fill="#404040">
                        <set attributeName="fill" to="#808080" begin="arrowLeft.mouseover" end="arrowLeft.mouseout"/>
                  </use>
                  <path fill="none" stroke="white" stroke-width="1.5" d="M0,-3.0v7 M-2.5,-0.5L0,-3.0L2.5,-0.5"/>
                </g>
        </g>
        <svg viewBox="0 0 15 15" width="100%" height="30px" preserveAspectRatio="xMaxYMin meet">
         <g id="arrow_out" transform="scale(0.3 0.3)">
          <a xlink:href="quickjs_8c_ad12b6863ca31850fc39d208bb865420e_icgraph_org.svg" target="_base">
           <rect id="button" ry="5" rx="5" y="6" x="6" height="38" width="38"
                fill="#f2f5e9" fill-opacity="0.5" stroke="#606060" stroke-width="1.0"/>
           <path id="arrow"
             d="M 11.500037,31.436501 C 11.940474,20.09759 22.043105,11.32322 32.158766,21.979434 L 37.068811,17.246167 C 37.068811,17.246167 37.088388,32 37.088388,32 L 22.160133,31.978069 C 22.160133,31.978069 26.997745,27.140456 26.997745,27.140456 C 18.528582,18.264221 13.291696,25.230495 11.500037,31.436501 z"
             style="fill:#404040;"/>
          </a>
         </g>
        </svg>
</svg>
