<?xml version="1.0" encoding="UTF-8" standalone="no"?>
<!DOCTYPE svg PUBLIC "-//W3C//DTD SVG 1.1//EN"
 "http://www.w3.org/Graphics/SVG/1.1/DTD/svg11.dtd">
<!-- Generated by graphviz version 2.40.1 (20161225.0304)
 -->
<!-- Title: js_create_from_ctor Pages: 1 -->
<svg width="1058pt" height="831pt"
 viewBox="0.00 0.00 1058.00 830.61" xmlns="http://www.w3.org/2000/svg" xmlns:xlink="http://www.w3.org/1999/xlink">
<g id="graph0" class="graph" transform="scale(1 1) rotate(0) translate(4 826.6121)">
<title>js_create_from_ctor</title>
<!-- Node299808 -->
<g id="node1" class="node">
<title>Node299808</title>
<polygon fill="#bfbfbf" stroke="#000000" points="0,-151.5 0,-170.5 103,-170.5 103,-151.5 0,-151.5"/>
<text text-anchor="middle" x="51.5" y="-158.5" font-family="Helvetica,sans-Serif" font-size="10.00" fill="#000000">js_create_from_ctor</text>
</g>
<!-- Node299809 -->
<g id="node2" class="node">
<title>Node299809</title>
<g id="a_node2"><a xlink:href="quickjs_8h.html#a775522f2d084fc8fa0fcb33f390006b4" target="_top" xlink:title="JS_DupValue">
<polygon fill="none" stroke="#000000" points="536.5,-752.5 536.5,-771.5 613.5,-771.5 613.5,-752.5 536.5,-752.5"/>
<text text-anchor="middle" x="575" y="-759.5" font-family="Helvetica,sans-Serif" font-size="10.00" fill="#000000">JS_DupValue</text>
</a>
</g>
</g>
<!-- Node299808&#45;&gt;Node299809 -->
<g id="edge1" class="edge">
<title>Node299808&#45;&gt;Node299809</title>
<path fill="none" stroke="#191970" d="M51.6966,-170.7615C53.0013,-213.3394 62.9627,-385.6052 139,-496 246.1754,-651.6027 312.022,-666.991 485,-743 497.8155,-748.6313 512.4066,-752.6338 526.0548,-755.4628"/>
<polygon fill="#191970" stroke="#191970" points="525.7849,-758.9741 536.2629,-757.4048 527.0933,-752.0975 525.7849,-758.9741"/>
</g>
<!-- Node299810 -->
<g id="node3" class="node">
<title>Node299810</title>
<g id="a_node3"><a xlink:href="quickjs_8h.html#afaa20c47565bc704c6c85f3d77254e7d" target="_top" xlink:title="JS_FreeValue">
<polygon fill="none" stroke="#000000" points="705,-543.5 705,-562.5 783,-562.5 783,-543.5 705,-543.5"/>
<text text-anchor="middle" x="744" y="-550.5" font-family="Helvetica,sans-Serif" font-size="10.00" fill="#000000">JS_FreeValue</text>
</a>
</g>
</g>
<!-- Node299808&#45;&gt;Node299810 -->
<g id="edge2" class="edge">
<title>Node299808&#45;&gt;Node299810</title>
<path fill="none" stroke="#191970" d="M52.6123,-170.852C59.1024,-227.11 93.3704,-507.7421 139,-580 188.7875,-658.8423 225.1296,-660.5793 306,-707 447.2879,-788.1011 532.2811,-875.4741 665,-781 700.219,-755.9298 729.9984,-623.088 740.2175,-572.5436"/>
<polygon fill="#191970" stroke="#191970" points="743.6832,-573.0596 742.1943,-562.5699 736.8168,-571.6986 743.6832,-573.0596"/>
</g>
<!-- Node299848 -->
<g id="node6" class="node">
<title>Node299848</title>
<g id="a_node6"><a xlink:href="quickjs_8c.html#a83e9d1851a3e2cd176944272b583143c" target="_top" xlink:title="JS_GetFunctionRealm">
<polygon fill="none" stroke="#000000" points="146.5,-76.5 146.5,-95.5 262.5,-95.5 262.5,-76.5 146.5,-76.5"/>
<text text-anchor="middle" x="204.5" y="-83.5" font-family="Helvetica,sans-Serif" font-size="10.00" fill="#000000">JS_GetFunctionRealm</text>
</a>
</g>
</g>
<!-- Node299808&#45;&gt;Node299848 -->
<g id="edge5" class="edge">
<title>Node299808&#45;&gt;Node299848</title>
<path fill="none" stroke="#191970" d="M71.1889,-151.3486C97.6979,-138.354 145.0575,-115.1385 175.6066,-100.1634"/>
<polygon fill="#191970" stroke="#191970" points="177.4481,-103.1587 184.8867,-95.6144 174.3669,-96.8733 177.4481,-103.1587"/>
</g>
<!-- Node299850 -->
<g id="node8" class="node">
<title>Node299850</title>
<g id="a_node8"><a xlink:href="quickjs_8h.html#a89b7c8686c7eee70b86be722ee4730ad" target="_top" xlink:title="JS_GetProperty">
<polygon fill="none" stroke="#000000" points="161.5,-467.5 161.5,-486.5 247.5,-486.5 247.5,-467.5 161.5,-467.5"/>
<text text-anchor="middle" x="204.5" y="-474.5" font-family="Helvetica,sans-Serif" font-size="10.00" fill="#000000">JS_GetProperty</text>
</a>
</g>
</g>
<!-- Node299808&#45;&gt;Node299850 -->
<g id="edge8" class="edge">
<title>Node299808&#45;&gt;Node299850</title>
<path fill="none" stroke="#191970" d="M56.2468,-170.8038C77.7984,-215.3156 166.6293,-398.7835 195.4363,-458.2803"/>
<polygon fill="#191970" stroke="#191970" points="192.3005,-459.8353 199.8086,-467.3106 198.6009,-456.7848 192.3005,-459.8353"/>
</g>
<!-- Node299859 -->
<g id="node14" class="node">
<title>Node299859</title>
<g id="a_node14"><a xlink:href="quickjs_8h.html#ad80a83d73e9b7d872b88fbf2943aebe9" target="_top" xlink:title="JS_IsException">
<polygon fill="none" stroke="#000000" points="701,-208.5 701,-227.5 787,-227.5 787,-208.5 701,-208.5"/>
<text text-anchor="middle" x="744" y="-215.5" font-family="Helvetica,sans-Serif" font-size="10.00" fill="#000000">JS_IsException</text>
</a>
</g>
</g>
<!-- Node299808&#45;&gt;Node299859 -->
<g id="edge30" class="edge">
<title>Node299808&#45;&gt;Node299859</title>
<path fill="none" stroke="#191970" d="M103.1561,-163.9539C245.9669,-172.1532 637.4295,-194.863 665,-199 676.5449,-200.7323 688.8814,-203.3303 700.2912,-206.0531"/>
<polygon fill="#191970" stroke="#191970" points="699.4888,-209.46 710.0362,-208.4594 701.1669,-202.6641 699.4888,-209.46"/>
</g>
<!-- Node300016 -->
<g id="node15" class="node">
<title>Node300016</title>
<g id="a_node15"><a xlink:href="quickjs_8h.html#a4e407128a9605afb77523e49e9a627fd" target="_top" xlink:title="JS_IsUndefined">
<polygon fill="none" stroke="#000000" points="701,-151.5 701,-170.5 787,-170.5 787,-151.5 701,-151.5"/>
<text text-anchor="middle" x="744" y="-158.5" font-family="Helvetica,sans-Serif" font-size="10.00" fill="#000000">JS_IsUndefined</text>
</a>
</g>
</g>
<!-- Node299808&#45;&gt;Node300016 -->
<g id="edge32" class="edge">
<title>Node299808&#45;&gt;Node300016</title>
<path fill="none" stroke="#191970" d="M103.2668,-161C231.2119,-161 561.3179,-161 690.7795,-161"/>
<polygon fill="#191970" stroke="#191970" points="690.848,-164.5001 700.848,-161 690.8479,-157.5001 690.848,-164.5001"/>
</g>
<!-- Node300088 -->
<g id="node25" class="node">
<title>Node300088</title>
<g id="a_node25"><a xlink:href="quickjs_8h.html#a3d68fe446df2d9c7d1900b16371bff5b" target="_top" xlink:title="JS_IsObject">
<polygon fill="none" stroke="#000000" points="169,-38.5 169,-57.5 240,-57.5 240,-38.5 169,-38.5"/>
<text text-anchor="middle" x="204.5" y="-45.5" font-family="Helvetica,sans-Serif" font-size="10.00" fill="#000000">JS_IsObject</text>
</a>
</g>
</g>
<!-- Node299808&#45;&gt;Node300088 -->
<g id="edge31" class="edge">
<title>Node299808&#45;&gt;Node300088</title>
<path fill="none" stroke="#191970" d="M57.7301,-151.414C70.5867,-132.401 101.9755,-89.7897 139,-67 145.1697,-63.2024 152.1319,-60.1347 159.1554,-57.665"/>
<polygon fill="#191970" stroke="#191970" points="160.2172,-61.0001 168.7022,-54.6554 158.1126,-54.324 160.2172,-61.0001"/>
</g>
<!-- Node299975 -->
<g id="node26" class="node">
<title>Node299975</title>
<g id="a_node26"><a xlink:href="quickjs_8c.html#a73738c650f11459db0d7af3dcdf8316b" target="_top" xlink:title="JS_NewObjectProtoClass">
<polygon fill="none" stroke="#ff0000" points="139,-.5 139,-19.5 270,-19.5 270,-.5 139,-.5"/>
<text text-anchor="middle" x="204.5" y="-7.5" font-family="Helvetica,sans-Serif" font-size="10.00" fill="#000000">JS_NewObjectProtoClass</text>
</a>
</g>
</g>
<!-- Node299808&#45;&gt;Node299975 -->
<g id="edge33" class="edge">
<title>Node299808&#45;&gt;Node299975</title>
<path fill="none" stroke="#191970" d="M55.1273,-151.3455C64.7959,-126.9459 93.5858,-62.3824 139,-29 141.6236,-27.0715 144.4393,-25.3381 147.3756,-23.7801"/>
<polygon fill="#191970" stroke="#191970" points="148.8405,-26.9589 156.475,-19.6127 145.9257,-20.5946 148.8405,-26.9589"/>
</g>
<!-- Node299811 -->
<g id="node4" class="node">
<title>Node299811</title>
<g id="a_node4"><a xlink:href="quickjs_8c.html#aa059f309c30fd5166d16c82a97973146" target="_top" xlink:title="__JS_FreeValue">
<polygon fill="none" stroke="#000000" points="823,-543.5 823,-562.5 912,-562.5 912,-543.5 823,-543.5"/>
<text text-anchor="middle" x="867.5" y="-550.5" font-family="Helvetica,sans-Serif" font-size="10.00" fill="#000000">__JS_FreeValue</text>
</a>
</g>
</g>
<!-- Node299810&#45;&gt;Node299811 -->
<g id="edge3" class="edge">
<title>Node299810&#45;&gt;Node299811</title>
<path fill="none" stroke="#191970" d="M783.0762,-553C792.412,-553 802.5507,-553 812.4566,-553"/>
<polygon fill="#191970" stroke="#191970" points="812.6517,-556.5001 822.6517,-553 812.6517,-549.5001 812.6517,-556.5001"/>
</g>
<!-- Node299812 -->
<g id="node5" class="node">
<title>Node299812</title>
<g id="a_node5"><a xlink:href="quickjs_8c.html#ab1ea3fad7d138be12144a38be4d36423" target="_top" xlink:title="__JS_FreeValueRT">
<polygon fill="none" stroke="#ff0000" points="948,-543.5 948,-562.5 1050,-562.5 1050,-543.5 948,-543.5"/>
<text text-anchor="middle" x="999" y="-550.5" font-family="Helvetica,sans-Serif" font-size="10.00" fill="#000000">__JS_FreeValueRT</text>
</a>
</g>
</g>
<!-- Node299811&#45;&gt;Node299812 -->
<g id="edge4" class="edge">
<title>Node299811&#45;&gt;Node299812</title>
<path fill="none" stroke="#191970" d="M912.0199,-553C920.2672,-553 929.0138,-553 937.6583,-553"/>
<polygon fill="#191970" stroke="#191970" points="937.7233,-556.5001 947.7233,-553 937.7232,-549.5001 937.7233,-556.5001"/>
</g>
<!-- Node299848&#45;&gt;Node299848 -->
<g id="edge6" class="edge">
<title>Node299848&#45;&gt;Node299848</title>
<path fill="none" stroke="#191970" d="M181.0724,-95.7571C169.6752,-104.5653 177.4844,-114 204.5,-114 222.229,-114 231.6865,-109.9368 232.8725,-104.6539"/>
<polygon fill="#191970" stroke="#191970" points="235.8449,-102.7974 227.9276,-95.7571 229.7265,-106.1981 235.8449,-102.7974"/>
</g>
<!-- Node299849 -->
<g id="node7" class="node">
<title>Node299849</title>
<g id="a_node7"><a xlink:href="quickjs_8c.html#a199d64ccbee0a90d93e1ad12745417f6" target="_top" xlink:title="JS_ThrowTypeErrorRevoked\lProxy">
<polygon fill="none" stroke="#000000" points="306,-71 306,-101 449,-101 449,-71 306,-71"/>
<text text-anchor="start" x="314" y="-89" font-family="Helvetica,sans-Serif" font-size="10.00" fill="#000000">JS_ThrowTypeErrorRevoked</text>
<text text-anchor="middle" x="377.5" y="-78" font-family="Helvetica,sans-Serif" font-size="10.00" fill="#000000">Proxy</text>
</a>
</g>
</g>
<!-- Node299848&#45;&gt;Node299849 -->
<g id="edge7" class="edge">
<title>Node299848&#45;&gt;Node299849</title>
<path fill="none" stroke="#191970" d="M262.5878,-86C273.1845,-86 284.4213,-86 295.557,-86"/>
<polygon fill="#191970" stroke="#191970" points="295.7341,-89.5001 305.7341,-86 295.734,-82.5001 295.7341,-89.5001"/>
</g>
<!-- Node299851 -->
<g id="node9" class="node">
<title>Node299851</title>
<g id="a_node9"><a xlink:href="quickjs_8c.html#a5762c57ae0c9937e986040c01222833a" target="_top" xlink:title="JS_GetPropertyInternal">
<polygon fill="none" stroke="#000000" points="318,-467.5 318,-486.5 437,-486.5 437,-467.5 318,-467.5"/>
<text text-anchor="middle" x="377.5" y="-474.5" font-family="Helvetica,sans-Serif" font-size="10.00" fill="#000000">JS_GetPropertyInternal</text>
</a>
</g>
</g>
<!-- Node299850&#45;&gt;Node299851 -->
<g id="edge9" class="edge">
<title>Node299850&#45;&gt;Node299851</title>
<path fill="none" stroke="#191970" d="M247.7089,-477C265.8595,-477 287.4365,-477 307.7351,-477"/>
<polygon fill="#191970" stroke="#191970" points="307.8914,-480.5001 317.8913,-477 307.8913,-473.5001 307.8914,-480.5001"/>
</g>
<!-- Node299851&#45;&gt;Node299809 -->
<g id="edge21" class="edge">
<title>Node299851&#45;&gt;Node299809</title>
<path fill="none" stroke="#191970" d="M382.3946,-486.7595C394.5476,-511.1904 426.7252,-577.1062 449,-634 467.5998,-681.507 446.9801,-708.9802 485,-743 496.2165,-753.0364 511.3729,-758.258 526.048,-760.8498"/>
<polygon fill="#191970" stroke="#191970" points="525.6883,-764.3334 536.0764,-762.2508 526.6568,-757.4008 525.6883,-764.3334"/>
</g>
<!-- Node299851&#45;&gt;Node299810 -->
<g id="edge22" class="edge">
<title>Node299851&#45;&gt;Node299810</title>
<path fill="none" stroke="#191970" d="M381.5438,-486.9407C396.4512,-523.0416 449.3141,-646.1889 485,-667 554.1071,-707.3015 594.1292,-704.1124 665,-667 703.2286,-646.9811 726.6486,-599.1236 737.259,-572.2143"/>
<polygon fill="#191970" stroke="#191970" points="740.5852,-573.3121 740.8119,-562.7197 734.0292,-570.8588 740.5852,-573.3121"/>
</g>
<!-- Node299852 -->
<g id="node10" class="node">
<title>Node299852</title>
<g id="a_node10"><a xlink:href="quickjs_8c.html#a288254c06a39c9fca740a7abdad2834e" target="_top" xlink:title="__JS_AtomIsTaggedInt">
<polygon fill="none" stroke="#000000" points="515.5,-638.5 515.5,-657.5 634.5,-657.5 634.5,-638.5 515.5,-638.5"/>
<text text-anchor="middle" x="575" y="-645.5" font-family="Helvetica,sans-Serif" font-size="10.00" fill="#000000">__JS_AtomIsTaggedInt</text>
</a>
</g>
</g>
<!-- Node299851&#45;&gt;Node299852 -->
<g id="edge10" class="edge">
<title>Node299851&#45;&gt;Node299852</title>
<path fill="none" stroke="#191970" d="M381.3323,-486.7361C392.6237,-514.0616 428.556,-591.887 485,-629 491.238,-633.1016 498.1991,-636.3388 505.4112,-638.8906"/>
<polygon fill="#191970" stroke="#191970" points="504.7695,-642.3554 515.357,-641.9621 506.8351,-635.6671 504.7695,-642.3554"/>
</g>
<!-- Node299853 -->
<g id="node11" class="node">
<title>Node299853</title>
<g id="a_node11"><a xlink:href="quickjs_8c.html#a89f38938cee8077ce1fbba07946ed185" target="_top" xlink:title="__JS_AtomToUInt32">
<polygon fill="none" stroke="#000000" points="521,-600.5 521,-619.5 629,-619.5 629,-600.5 521,-600.5"/>
<text text-anchor="middle" x="575" y="-607.5" font-family="Helvetica,sans-Serif" font-size="10.00" fill="#000000">__JS_AtomToUInt32</text>
</a>
</g>
</g>
<!-- Node299851&#45;&gt;Node299853 -->
<g id="edge11" class="edge">
<title>Node299851&#45;&gt;Node299853</title>
<path fill="none" stroke="#191970" d="M383.6509,-486.8195C398.2405,-509.2241 437.3167,-564.2405 485,-591 492.9772,-595.4767 501.8904,-598.9013 510.9215,-601.5205"/>
<polygon fill="#191970" stroke="#191970" points="510.1707,-604.9415 520.7287,-604.0582 511.9243,-598.1646 510.1707,-604.9415"/>
</g>
<!-- Node299854 -->
<g id="node12" class="node">
<title>Node299854</title>
<g id="a_node12"><a xlink:href="quickjs_8c.html#a06b76f5124fd985e35f4c652fd018d6d" target="_top" xlink:title="find_own_property">
<polygon fill="none" stroke="#ff0000" points="527,-562.5 527,-581.5 623,-581.5 623,-562.5 527,-562.5"/>
<text text-anchor="middle" x="575" y="-569.5" font-family="Helvetica,sans-Serif" font-size="10.00" fill="#000000">find_own_property</text>
</a>
</g>
</g>
<!-- Node299851&#45;&gt;Node299854 -->
<g id="edge12" class="edge">
<title>Node299851&#45;&gt;Node299854</title>
<path fill="none" stroke="#191970" d="M387.8898,-486.5983C406.1045,-502.8773 445.6211,-535.8039 485,-553 494.9723,-557.3547 506.0122,-560.7374 516.8449,-563.3568"/>
<polygon fill="#191970" stroke="#191970" points="516.1765,-566.7937 526.6985,-565.5539 517.6999,-559.9614 516.1765,-566.7937"/>
</g>
<!-- Node299855 -->
<g id="node13" class="node">
<title>Node299855</title>
<g id="a_node13"><a xlink:href="quickjs_8c.html#add3eea1f6d626963ade3c28a1fd563d1" target="_top" xlink:title="JS_AtomIsNumericIndex">
<polygon fill="none" stroke="#ff0000" points="512,-246.5 512,-265.5 638,-265.5 638,-246.5 512,-246.5"/>
<text text-anchor="middle" x="575" y="-253.5" font-family="Helvetica,sans-Serif" font-size="10.00" fill="#000000">JS_AtomIsNumericIndex</text>
</a>
</g>
</g>
<!-- Node299851&#45;&gt;Node299855 -->
<g id="edge13" class="edge">
<title>Node299851&#45;&gt;Node299855</title>
<path fill="none" stroke="#191970" d="M379.6736,-467.1424C387.467,-434.248 417.2248,-327.4346 485,-276 490.1878,-272.063 495.9999,-268.8723 502.107,-266.29"/>
<polygon fill="#191970" stroke="#191970" points="503.707,-269.4318 511.8991,-262.7132 501.3052,-262.8567 503.707,-269.4318"/>
</g>
<!-- Node300003 -->
<g id="node16" class="node">
<title>Node300003</title>
<g id="a_node16"><a xlink:href="quickjs_8c.html#a8aac7988cf0c6f3c2b629a6662fd7ec8" target="_top" xlink:title="JS_AutoInitProperty">
<polygon fill="none" stroke="#ff0000" points="523,-208.5 523,-227.5 627,-227.5 627,-208.5 523,-208.5"/>
<text text-anchor="middle" x="575" y="-215.5" font-family="Helvetica,sans-Serif" font-size="10.00" fill="#000000">JS_AutoInitProperty</text>
</a>
</g>
</g>
<!-- Node299851&#45;&gt;Node300003 -->
<g id="edge17" class="edge">
<title>Node299851&#45;&gt;Node300003</title>
<path fill="none" stroke="#191970" d="M378.711,-467.3433C383.8346,-430.7864 407.1827,-299.782 485,-237 493.1,-230.465 502.9088,-226.0259 513.0313,-223.0392"/>
<polygon fill="#191970" stroke="#191970" points="513.9348,-226.4211 522.7869,-220.5996 512.2365,-219.6302 513.9348,-226.4211"/>
</g>
<!-- Node299911 -->
<g id="node17" class="node">
<title>Node299911</title>
<g id="a_node17"><a xlink:href="quickjs_8c.html#a75f6ee5e4235a7dc99889f3d2eb2c147" target="_top" xlink:title="JS_CallFree">
<polygon fill="none" stroke="#ff0000" points="539.5,-410.5 539.5,-429.5 610.5,-429.5 610.5,-410.5 539.5,-410.5"/>
<text text-anchor="middle" x="575" y="-417.5" font-family="Helvetica,sans-Serif" font-size="10.00" fill="#000000">JS_CallFree</text>
</a>
</g>
</g>
<!-- Node299851&#45;&gt;Node299911 -->
<g id="edge19" class="edge">
<title>Node299851&#45;&gt;Node299911</title>
<path fill="none" stroke="#191970" d="M401.5433,-467.4743C423.1394,-459.1658 455.8429,-447.1926 485,-439 499.227,-435.0025 514.9286,-431.4123 529.1796,-428.4574"/>
<polygon fill="#191970" stroke="#191970" points="530.1496,-431.8322 539.2584,-426.4212 528.7634,-424.9708 530.1496,-431.8322"/>
</g>
<!-- Node299934 -->
<g id="node18" class="node">
<title>Node299934</title>
<g id="a_node18"><a xlink:href="quickjs_8c.html#aeb97957655d979e9fe56c955da2b2d4b" target="_top" xlink:title="JS_GetPropertyUint32">
<polygon fill="none" stroke="#ff0000" points="517.5,-524.5 517.5,-543.5 632.5,-543.5 632.5,-524.5 517.5,-524.5"/>
<text text-anchor="middle" x="575" y="-531.5" font-family="Helvetica,sans-Serif" font-size="10.00" fill="#000000">JS_GetPropertyUint32</text>
</a>
</g>
</g>
<!-- Node299851&#45;&gt;Node299934 -->
<g id="edge23" class="edge">
<title>Node299851&#45;&gt;Node299934</title>
<path fill="none" stroke="#191970" d="M401.5433,-486.5257C423.1394,-494.8342 455.8429,-506.8074 485,-515 494.2424,-517.5969 504.1072,-520.022 513.7923,-522.2126"/>
<polygon fill="#191970" stroke="#191970" points="513.2685,-525.6809 523.7866,-524.408 514.7704,-518.8439 513.2685,-525.6809"/>
</g>
<!-- Node300033 -->
<g id="node19" class="node">
<title>Node300033</title>
<g id="a_node19"><a xlink:href="quickjs_8c.html#a93550bf785e919d0881399712c54cb34" target="_top" xlink:title="JS_GetPrototypePrimitive">
<polygon fill="none" stroke="#000000" points="510,-486.5 510,-505.5 640,-505.5 640,-486.5 510,-486.5"/>
<text text-anchor="middle" x="575" y="-493.5" font-family="Helvetica,sans-Serif" font-size="10.00" fill="#000000">JS_GetPrototypePrimitive</text>
</a>
</g>
</g>
<!-- Node299851&#45;&gt;Node300033 -->
<g id="edge24" class="edge">
<title>Node299851&#45;&gt;Node300033</title>
<path fill="none" stroke="#191970" d="M437.0243,-482.7264C456.7409,-484.6232 478.9487,-486.7596 499.6919,-488.7552"/>
<polygon fill="#191970" stroke="#191970" points="499.4506,-492.248 509.7399,-489.7218 500.121,-485.2802 499.4506,-492.248"/>
</g>
<!-- Node300107 -->
<g id="node20" class="node">
<title>Node300107</title>
<g id="a_node20"><a xlink:href="quickjs_8h.html#aaab426b47c95d00479b7355b1cf7f56c" target="_top" xlink:title="JS_IsUninitialized">
<polygon fill="none" stroke="#000000" points="527.5,-448.5 527.5,-467.5 622.5,-467.5 622.5,-448.5 527.5,-448.5"/>
<text text-anchor="middle" x="575" y="-455.5" font-family="Helvetica,sans-Serif" font-size="10.00" fill="#000000">JS_IsUninitialized</text>
</a>
</g>
</g>
<!-- Node299851&#45;&gt;Node300107 -->
<g id="edge25" class="edge">
<title>Node299851&#45;&gt;Node300107</title>
<path fill="none" stroke="#191970" d="M437.0243,-471.2736C462.4798,-468.8247 492.0876,-465.9764 517.335,-463.5475"/>
<polygon fill="#191970" stroke="#191970" points="517.8811,-467.0112 527.5,-462.5696 517.2107,-460.0434 517.8811,-467.0112"/>
</g>
<!-- Node300240 -->
<g id="node21" class="node">
<title>Node300240</title>
<g id="a_node21"><a xlink:href="quickjs_8c.html#a077ffa6455c0d7831bd4547542b5f2f7" target="_top" xlink:title="js_new_string_char">
<polygon fill="none" stroke="#ff0000" points="524.5,-372.5 524.5,-391.5 625.5,-391.5 625.5,-372.5 524.5,-372.5"/>
<text text-anchor="middle" x="575" y="-379.5" font-family="Helvetica,sans-Serif" font-size="10.00" fill="#000000">js_new_string_char</text>
</a>
</g>
</g>
<!-- Node299851&#45;&gt;Node300240 -->
<g id="edge26" class="edge">
<title>Node299851&#45;&gt;Node300240</title>
<path fill="none" stroke="#191970" d="M387.8898,-467.4017C406.1045,-451.1227 445.6211,-418.1961 485,-401 494.22,-396.9738 504.3526,-393.7786 514.3902,-391.2491"/>
<polygon fill="#191970" stroke="#191970" points="515.4092,-394.6058 524.359,-388.9355 513.8266,-387.787 515.4092,-394.6058"/>
</g>
<!-- Node299860 -->
<g id="node22" class="node">
<title>Node299860</title>
<g id="a_node22"><a xlink:href="quickjs_8h.html#a2050bc428da1c65ac7eb87c3fa3b0392" target="_top" xlink:title="JS_NewInt32">
<polygon fill="none" stroke="#000000" points="537,-334.5 537,-353.5 613,-353.5 613,-334.5 537,-334.5"/>
<text text-anchor="middle" x="575" y="-341.5" font-family="Helvetica,sans-Serif" font-size="10.00" fill="#000000">JS_NewInt32</text>
</a>
</g>
</g>
<!-- Node299851&#45;&gt;Node299860 -->
<g id="edge27" class="edge">
<title>Node299851&#45;&gt;Node299860</title>
<path fill="none" stroke="#191970" d="M383.6509,-467.1805C398.2405,-444.7759 437.3167,-389.7595 485,-363 497.6631,-355.8935 512.6852,-351.4383 526.7928,-348.6475"/>
<polygon fill="#191970" stroke="#191970" points="527.6054,-352.0588 536.8569,-346.8954 526.4048,-345.1625 527.6054,-352.0588"/>
</g>
<!-- Node300034 -->
<g id="node23" class="node">
<title>Node300034</title>
<g id="a_node23"><a xlink:href="quickjs_8c.html#ab8d0b87c9eed4eb6c054b6f4e1731554" target="_top" xlink:title="JS_ThrowReferenceErrorNot\lDefined">
<polygon fill="none" stroke="#ff0000" points="503.5,-285 503.5,-315 646.5,-315 646.5,-285 503.5,-285"/>
<text text-anchor="start" x="511.5" y="-303" font-family="Helvetica,sans-Serif" font-size="10.00" fill="#000000">JS_ThrowReferenceErrorNot</text>
<text text-anchor="middle" x="575" y="-292" font-family="Helvetica,sans-Serif" font-size="10.00" fill="#000000">Defined</text>
</a>
</g>
</g>
<!-- Node299851&#45;&gt;Node300034 -->
<g id="edge28" class="edge">
<title>Node299851&#45;&gt;Node300034</title>
<path fill="none" stroke="#191970" d="M381.4531,-467.4415C393.0623,-440.5832 429.7507,-363.8693 485,-325 487.8723,-322.9793 490.9027,-321.1215 494.0439,-319.4136"/>
<polygon fill="#191970" stroke="#191970" points="495.6873,-322.5064 503.1505,-314.9863 492.6267,-316.211 495.6873,-322.5064"/>
</g>
<!-- Node300108 -->
<g id="node24" class="node">
<title>Node300108</title>
<g id="a_node24"><a xlink:href="quickjs_8c.html#a75ac132a3af4de01e1fadeb0bede6ee7" target="_top" xlink:title="JS_ThrowReferenceErrorUninitialized">
<polygon fill="none" stroke="#ff0000" points="485,-714.5 485,-733.5 665,-733.5 665,-714.5 485,-714.5"/>
<text text-anchor="middle" x="575" y="-721.5" font-family="Helvetica,sans-Serif" font-size="10.00" fill="#000000">JS_ThrowReferenceErrorUninitialized</text>
</a>
</g>
</g>
<!-- Node299851&#45;&gt;Node300108 -->
<g id="edge29" class="edge">
<title>Node299851&#45;&gt;Node300108</title>
<path fill="none" stroke="#191970" d="M381.9382,-486.7807C401.0486,-528.8179 475.7686,-692.3639 485,-700 489.9881,-704.1261 495.6169,-707.5486 501.564,-710.3868"/>
<polygon fill="#191970" stroke="#191970" points="500.549,-713.7559 511.1253,-714.3827 503.2483,-707.2972 500.549,-713.7559"/>
</g>
<!-- Node299855&#45;&gt;Node299810 -->
<g id="edge14" class="edge">
<title>Node299855&#45;&gt;Node299810</title>
<path fill="none" stroke="#191970" d="M638.3579,-261.0183C648.1931,-264.2107 657.5454,-268.9738 665,-276 703.3013,-312.1001 732.0281,-476.115 741.0299,-533.2792"/>
<polygon fill="#191970" stroke="#191970" points="737.6222,-534.1464 742.6063,-543.4957 744.5404,-533.0789 737.6222,-534.1464"/>
</g>
<!-- Node299855&#45;&gt;Node299859 -->
<g id="edge15" class="edge">
<title>Node299855&#45;&gt;Node299859</title>
<path fill="none" stroke="#191970" d="M621.302,-246.484C635.3548,-243.5261 650.8246,-240.2003 665,-237 674.804,-234.7866 685.2703,-232.3335 695.2706,-229.9456"/>
<polygon fill="#191970" stroke="#191970" points="696.1681,-233.3296 705.074,-227.5907 694.533,-226.5233 696.1681,-233.3296"/>
</g>
<!-- Node299855&#45;&gt;Node300016 -->
<g id="edge16" class="edge">
<title>Node299855&#45;&gt;Node300016</title>
<path fill="none" stroke="#191970" d="M638.2558,-247.7372C647.5656,-245.0912 656.7781,-241.6015 665,-237 685.3012,-225.638 684.2672,-215.1632 701,-199 708.5776,-191.6804 717.2323,-183.9237 724.7812,-177.3401"/>
<polygon fill="#191970" stroke="#191970" points="727.1526,-179.9167 732.4353,-170.7328 722.5785,-174.6179 727.1526,-179.9167"/>
</g>
<!-- Node300003&#45;&gt;Node299859 -->
<g id="edge18" class="edge">
<title>Node300003&#45;&gt;Node299859</title>
<path fill="none" stroke="#191970" d="M627.0846,-218C647.3286,-218 670.4984,-218 690.8437,-218"/>
<polygon fill="#191970" stroke="#191970" points="690.8861,-221.5001 700.8861,-218 690.8861,-214.5001 690.8861,-221.5001"/>
</g>
<!-- Node299911&#45;&gt;Node299810 -->
<g id="edge20" class="edge">
<title>Node299911&#45;&gt;Node299810</title>
<path fill="none" stroke="#191970" d="M610.6989,-421.4107C628.2655,-423.5577 649.0385,-428.3953 665,-439 700.4315,-462.5404 724.5825,-507.8791 736.149,-533.7209"/>
<polygon fill="#191970" stroke="#191970" points="733.0499,-535.3745 740.2097,-543.1839 739.4826,-532.614 733.0499,-535.3745"/>
</g>
</g>
</svg>
