<?xml version="1.0" encoding="UTF-8" standalone="no"?>
<!DOCTYPE svg PUBLIC "-//W3C//DTD SVG 1.1//EN"
 "http://www.w3.org/Graphics/SVG/1.1/DTD/svg11.dtd">
<!-- Generated by graphviz version 2.40.1 (20161225.0304)
 -->
<!-- Title: js_date_constructor Pages: 1 -->
<!--zoomable 712 -->
<svg id="main" version="1.1" xmlns="http://www.w3.org/2000/svg" xmlns:xlink="http://www.w3.org/1999/xlink" xml:space="preserve" onload="init(evt)">
<style type="text/css"><![CDATA[
.edge:hover path { stroke: red; }
.edge:hover polygon { stroke: red; fill: red; }
]]></style>
<script type="text/javascript"><![CDATA[
var edges = document.getElementsByTagName('g');
if (edges && edges.length) {
  for (var i=0;i<edges.length;i++) {
    if (edges[i].id.substr(0,4)=='edge') {
      edges[i].setAttribute('class','edge');
    }
  }
}
]]></script>
        <defs>
                <circle id="rim" cx="0" cy="0" r="7"/>
                <circle id="rim2" cx="0" cy="0" r="3.5"/>
                <g id="zoomPlus">
                        <use xlink:href="#rim" fill="#404040">
                                <set attributeName="fill" to="#808080" begin="zoomplus.mouseover" end="zoomplus.mouseout"/>
                        </use>
                        <path d="M-4,0h8M0,-4v8" fill="none" stroke="white" stroke-width="1.5" pointer-events="none"/>
                </g>
                <g id="zoomMin">
                        <use xlink:href="#rim" fill="#404040">
                                <set attributeName="fill" to="#808080" begin="zoomminus.mouseover" end="zoomminus.mouseout"/>
                        </use>
                        <path d="M-4,0h8" fill="none" stroke="white" stroke-width="1.5" pointer-events="none"/>
                </g>
                <g id="dirArrow">
                        <path fill="none" stroke="white" stroke-width="1.5" d="M0,-3.0v7 M-2.5,-0.5L0,-3.0L2.5,-0.5"/>
                </g>
               <g id="resetDef">
                       <use xlink:href="#rim2" fill="#404040">
                               <set attributeName="fill" to="#808080" begin="reset.mouseover" end="reset.mouseout"/>
                       </use>
               </g>
        </defs>

<script type="text/javascript">
var viewWidth = 654;
var viewHeight = 712;
var sectionId = 'dynsection-1812';
</script>
<script xlink:href="svgpan.js"/>
<svg id="graph" class="graph">
<g id="viewport">
<title>js_date_constructor</title>
<!-- Node473144 -->
<g id="node1" class="node">
<title>Node473144</title>
<polygon fill="#bfbfbf" stroke="#000000" points="0,-399.5 0,-418.5 102,-418.5 102,-399.5 0,-399.5"/>
<text text-anchor="middle" x="51" y="-406.5" font-family="Helvetica,sans-Serif" font-size="10.00" fill="#000000">js_date_constructor</text>
</g>
<!-- Node473145 -->
<g id="node2" class="node">
<title>Node473145</title>
<g id="a_node2"><a xlink:href="quickjs_8c.html#ab4d310ae0cce7aff63620bced920cf0f" target="_top" xlink:title="date_now">
<polygon fill="none" stroke="#000000" points="160,-684.5 160,-703.5 219,-703.5 219,-684.5 160,-684.5"/>
<text text-anchor="middle" x="189.5" y="-691.5" font-family="Helvetica,sans-Serif" font-size="10.00" fill="#000000">date_now</text>
</a>
</g>
</g>
<!-- Node473144&#45;&gt;Node473145 -->
<g id="edge1" class="edge">
<title>Node473144&#45;&gt;Node473145</title>
<path fill="none" stroke="#191970" d="M51.2778,-418.7342C52.8906,-456.9008 63.8393,-598.0171 138,-675 141.5859,-678.7223 145.9638,-681.7202 150.6372,-684.1336"/>
<polygon fill="#191970" stroke="#191970" points="149.2883,-687.3633 159.8581,-688.0909 152.049,-680.9307 149.2883,-687.3633"/>
</g>
<!-- Node473146 -->
<g id="node3" class="node">
<title>Node473146</title>
<g id="a_node3"><a xlink:href="quickjs_8c.html#ab522181d975cc7949088c8ff67fedde0" target="_top" xlink:title="get_date_string">
<polygon fill="none" stroke="#000000" points="148,-646.5 148,-665.5 231,-665.5 231,-646.5 148,-646.5"/>
<text text-anchor="middle" x="189.5" y="-653.5" font-family="Helvetica,sans-Serif" font-size="10.00" fill="#000000">get_date_string</text>
</a>
</g>
</g>
<!-- Node473144&#45;&gt;Node473146 -->
<g id="edge2" class="edge">
<title>Node473144&#45;&gt;Node473146</title>
<path fill="none" stroke="#191970" d="M52.2109,-418.8361C56.8743,-452.7823 76.5947,-566.5254 138,-632 141.5363,-635.7706 145.783,-639.0033 150.301,-641.7601"/>
<polygon fill="#191970" stroke="#191970" points="148.7349,-644.8914 159.2082,-646.4917 152.0188,-638.7095 148.7349,-644.8914"/>
</g>
<!-- Node473443 -->
<g id="node8" class="node">
<title>Node473443</title>
<g id="a_node8"><a xlink:href="quickjs_8c.html#a93dbf502b17d1328c524401335f60499" target="_top" xlink:title="js_create_from_ctor">
<polygon fill="none" stroke="#ff0000" points="138,-570.5 138,-589.5 241,-589.5 241,-570.5 138,-570.5"/>
<text text-anchor="middle" x="189.5" y="-577.5" font-family="Helvetica,sans-Serif" font-size="10.00" fill="#000000">js_create_from_ctor</text>
</a>
</g>
</g>
<!-- Node473144&#45;&gt;Node473443 -->
<g id="edge8" class="edge">
<title>Node473144&#45;&gt;Node473443</title>
<path fill="none" stroke="#191970" d="M54.3425,-418.5643C63.7042,-444.1076 92.5127,-514.7779 138,-556 142.1572,-559.7674 147.0091,-563.0453 152.0419,-565.8655"/>
<polygon fill="#191970" stroke="#191970" points="150.6778,-569.0969 161.1854,-570.454 153.8175,-562.8405 150.6778,-569.0969"/>
</g>
<!-- Node473170 -->
<g id="node9" class="node">
<title>Node473170</title>
<g id="a_node9"><a xlink:href="quickjs_8h.html#afaa20c47565bc704c6c85f3d77254e7d" target="_top" xlink:title="JS_FreeValue">
<polygon fill="none" stroke="#ff0000" points="296,-513.5 296,-532.5 374,-532.5 374,-513.5 296,-513.5"/>
<text text-anchor="middle" x="335" y="-520.5" font-family="Helvetica,sans-Serif" font-size="10.00" fill="#000000">JS_FreeValue</text>
</a>
</g>
</g>
<!-- Node473144&#45;&gt;Node473170 -->
<g id="edge35" class="edge">
<title>Node473144&#45;&gt;Node473170</title>
<path fill="none" stroke="#191970" d="M54.8181,-418.7536C64.5379,-442.0365 92.7012,-500.587 138,-523 184.5854,-546.0496 245.2842,-541.7332 286.9234,-534.4189"/>
<polygon fill="#191970" stroke="#191970" points="287.6332,-537.8469 296.8159,-532.5621 286.3418,-530.967 287.6332,-537.8469"/>
</g>
<!-- Node473156 -->
<g id="node10" class="node">
<title>Node473156</title>
<g id="a_node10"><a xlink:href="quickjs_8h.html#ad80a83d73e9b7d872b88fbf2943aebe9" target="_top" xlink:title="JS_IsException">
<polygon fill="none" stroke="#000000" points="292,-466.5 292,-485.5 378,-485.5 378,-466.5 292,-466.5"/>
<text text-anchor="middle" x="335" y="-473.5" font-family="Helvetica,sans-Serif" font-size="10.00" fill="#000000">JS_IsException</text>
</a>
</g>
</g>
<!-- Node473144&#45;&gt;Node473156 -->
<g id="edge36" class="edge">
<title>Node473144&#45;&gt;Node473156</title>
<path fill="none" stroke="#191970" d="M72.783,-418.5992C90.1509,-425.9243 115.2488,-435.7836 138,-442 185.8921,-455.0858 241.7723,-464.1634 281.7598,-469.6264"/>
<polygon fill="#191970" stroke="#191970" points="281.4499,-473.116 291.8253,-470.9711 282.3769,-466.1777 281.4499,-473.116"/>
</g>
<!-- Node473276 -->
<g id="node11" class="node">
<title>Node473276</title>
<g id="a_node11"><a xlink:href="quickjs_8h.html#a4e407128a9605afb77523e49e9a627fd" target="_top" xlink:title="JS_IsUndefined">
<polygon fill="none" stroke="#000000" points="292,-570.5 292,-589.5 378,-589.5 378,-570.5 292,-570.5"/>
<text text-anchor="middle" x="335" y="-577.5" font-family="Helvetica,sans-Serif" font-size="10.00" fill="#000000">JS_IsUndefined</text>
</a>
</g>
</g>
<!-- Node473144&#45;&gt;Node473276 -->
<g id="edge39" class="edge">
<title>Node473144&#45;&gt;Node473276</title>
<path fill="none" stroke="#191970" d="M51.9289,-418.817C55.6103,-451.4886 72.3599,-556.8621 138,-599 161.5345,-614.1081 234.7943,-602.3198 285.0248,-591.732"/>
<polygon fill="#191970" stroke="#191970" points="286.0168,-595.0987 295.0548,-589.57 284.5418,-588.2558 286.0168,-595.0987"/>
</g>
<!-- Node473589 -->
<g id="node12" class="node">
<title>Node473589</title>
<g id="a_node12"><a xlink:href="quickjs_8c.html#ac2ddbbd09d32a6d9a4b7530d7f68c6f0" target="_top" xlink:title="js_Date_parse">
<polygon fill="none" stroke="#000000" points="149.5,-228.5 149.5,-247.5 229.5,-247.5 229.5,-228.5 149.5,-228.5"/>
<text text-anchor="middle" x="189.5" y="-235.5" font-family="Helvetica,sans-Serif" font-size="10.00" fill="#000000">js_Date_parse</text>
</a>
</g>
</g>
<!-- Node473144&#45;&gt;Node473589 -->
<g id="edge12" class="edge">
<title>Node473144&#45;&gt;Node473589</title>
<path fill="none" stroke="#191970" d="M53.9365,-399.2809C62.4606,-372.662 89.7177,-297.8488 138,-257 140.0053,-255.3034 142.1758,-253.7519 144.4527,-252.3339"/>
<polygon fill="#191970" stroke="#191970" points="146.4168,-255.2555 153.6373,-247.502 143.1577,-249.0604 146.4168,-255.2555"/>
</g>
<!-- Node473162 -->
<g id="node13" class="node">
<title>Node473162</title>
<g id="a_node13"><a xlink:href="quickjs_8h.html#ae91f44bd7249613050c18c7133702c67" target="_top" xlink:title="JS_NewFloat64">
<polygon fill="none" stroke="#ff0000" points="292,-380.5 292,-399.5 378,-399.5 378,-380.5 292,-380.5"/>
<text text-anchor="middle" x="335" y="-387.5" font-family="Helvetica,sans-Serif" font-size="10.00" fill="#000000">JS_NewFloat64</text>
</a>
</g>
</g>
<!-- Node473144&#45;&gt;Node473162 -->
<g id="edge40" class="edge">
<title>Node473144&#45;&gt;Node473162</title>
<path fill="none" stroke="#191970" d="M102.1015,-405.5812C152.7498,-402.1928 230.0144,-397.0237 281.4875,-393.5801"/>
<polygon fill="#191970" stroke="#191970" points="281.9976,-397.0539 291.7416,-392.894 281.5303,-390.0695 281.9976,-397.0539"/>
</g>
<!-- Node473590 -->
<g id="node15" class="node">
<title>Node473590</title>
<g id="a_node15"><a xlink:href="quickjs_8c.html#ad3c70a30f3676b516a77c91e3761a124" target="_top" xlink:title="set_date_fields">
<polygon fill="none" stroke="#ff0000" points="293.5,-342.5 293.5,-361.5 376.5,-361.5 376.5,-342.5 293.5,-342.5"/>
<text text-anchor="middle" x="335" y="-349.5" font-family="Helvetica,sans-Serif" font-size="10.00" fill="#000000">set_date_fields</text>
</a>
</g>
</g>
<!-- Node473144&#45;&gt;Node473590 -->
<g id="edge48" class="edge">
<title>Node473144&#45;&gt;Node473590</title>
<path fill="none" stroke="#191970" d="M98.5352,-399.4595C149.7143,-389.1876 230.8554,-372.9023 283.516,-362.3331"/>
<polygon fill="#191970" stroke="#191970" points="284.2115,-365.7634 293.3272,-360.3639 282.834,-358.9002 284.2115,-365.7634"/>
</g>
<!-- Node473591 -->
<g id="node17" class="node">
<title>Node473591</title>
<g id="a_node17"><a xlink:href="quickjs_8c.html#a478ea24cf629522a55e209b2619334c7" target="_top" xlink:title="time_clip">
<polygon fill="none" stroke="#000000" points="462,-399.5 462,-418.5 518,-418.5 518,-399.5 462,-399.5"/>
<text text-anchor="middle" x="490" y="-406.5" font-family="Helvetica,sans-Serif" font-size="10.00" fill="#000000">time_clip</text>
</a>
</g>
</g>
<!-- Node473144&#45;&gt;Node473591 -->
<g id="edge49" class="edge">
<title>Node473144&#45;&gt;Node473591</title>
<path fill="none" stroke="#191970" d="M102.0505,-411.7398C113.8522,-412.2641 126.3606,-412.7326 138,-413 252.0175,-415.6197 386.8506,-412.2947 451.5669,-410.2997"/>
<polygon fill="#191970" stroke="#191970" points="451.8228,-413.7935 461.7076,-409.9801 451.6023,-406.7969 451.8228,-413.7935"/>
</g>
<!-- Node473151 -->
<g id="node25" class="node">
<title>Node473151</title>
<g id="a_node25"><a xlink:href="quickjs_8h.html#ab995df176086f2a2a06ab777d4c4ef28" target="_top" xlink:title="JS_IsNumber">
<polygon fill="none" stroke="#000000" points="151,-304.5 151,-323.5 228,-323.5 228,-304.5 151,-304.5"/>
<text text-anchor="middle" x="189.5" y="-311.5" font-family="Helvetica,sans-Serif" font-size="10.00" fill="#000000">JS_IsNumber</text>
</a>
</g>
</g>
<!-- Node473144&#45;&gt;Node473151 -->
<g id="edge37" class="edge">
<title>Node473144&#45;&gt;Node473151</title>
<path fill="none" stroke="#191970" d="M61.0714,-399.3588C76.6508,-384.7868 107.9432,-356.8561 138,-338 143.8387,-334.3371 150.3269,-330.8857 156.6751,-327.8033"/>
<polygon fill="#191970" stroke="#191970" points="158.1906,-330.9585 165.7836,-323.5695 155.24,-324.6107 158.1906,-330.9585"/>
</g>
<!-- Node473500 -->
<g id="node26" class="node">
<title>Node473500</title>
<g id="a_node26"><a xlink:href="quickjs_8h.html#aa53b9197dc6d5770e3a080c1e335f7cb" target="_top" xlink:title="JS_IsString">
<polygon fill="none" stroke="#000000" points="155.5,-266.5 155.5,-285.5 223.5,-285.5 223.5,-266.5 155.5,-266.5"/>
<text text-anchor="middle" x="189.5" y="-273.5" font-family="Helvetica,sans-Serif" font-size="10.00" fill="#000000">JS_IsString</text>
</a>
</g>
</g>
<!-- Node473144&#45;&gt;Node473500 -->
<g id="edge38" class="edge">
<title>Node473144&#45;&gt;Node473500</title>
<path fill="none" stroke="#191970" d="M55.9182,-399.2683C67.3765,-377.523 97.9477,-324.5838 138,-295 140.6063,-293.0749 143.4288,-291.326 146.3639,-289.7405"/>
<polygon fill="#191970" stroke="#191970" points="147.8633,-292.9031 155.4043,-285.4611 144.8683,-286.5762 147.8633,-292.9031"/>
</g>
<!-- Node473425 -->
<g id="node27" class="node">
<title>Node473425</title>
<g id="a_node27"><a xlink:href="quickjs_8c.html#a5cfd8b63940fcb5151b4df41e32dc68c" target="_top" xlink:title="JS_SetObjectData">
<polygon fill="none" stroke="#000000" points="140.5,-494.5 140.5,-513.5 238.5,-513.5 238.5,-494.5 140.5,-494.5"/>
<text text-anchor="middle" x="189.5" y="-501.5" font-family="Helvetica,sans-Serif" font-size="10.00" fill="#000000">JS_SetObjectData</text>
</a>
</g>
</g>
<!-- Node473144&#45;&gt;Node473425 -->
<g id="edge41" class="edge">
<title>Node473144&#45;&gt;Node473425</title>
<path fill="none" stroke="#191970" d="M61.0714,-418.6412C76.6508,-433.2132 107.9432,-461.1439 138,-480 143.8387,-483.6629 150.3269,-487.1143 156.6751,-490.1967"/>
<polygon fill="#191970" stroke="#191970" points="155.24,-493.3893 165.7836,-494.4305 158.1906,-487.0415 155.24,-493.3893"/>
</g>
<!-- Node473152 -->
<g id="node28" class="node">
<title>Node473152</title>
<g id="a_node28"><a xlink:href="quickjs_8c.html#a8cc9386cd04cfa067d0c6bf588c6bb58" target="_top" xlink:title="JS_ToFloat64">
<polygon fill="none" stroke="#ff0000" points="151,-190.5 151,-209.5 228,-209.5 228,-190.5 151,-190.5"/>
<text text-anchor="middle" x="189.5" y="-197.5" font-family="Helvetica,sans-Serif" font-size="10.00" fill="#000000">JS_ToFloat64</text>
</a>
</g>
</g>
<!-- Node473144&#45;&gt;Node473152 -->
<g id="edge44" class="edge">
<title>Node473144&#45;&gt;Node473152</title>
<path fill="none" stroke="#191970" d="M52.7419,-399.1651C58.7318,-368.1786 81.3223,-271.5281 138,-219 139.7038,-217.421 141.55,-215.9704 143.496,-214.6381"/>
<polygon fill="#191970" stroke="#191970" points="145.5563,-217.4939 152.536,-209.523 142.109,-211.4015 145.5563,-217.4939"/>
</g>
<!-- Node473154 -->
<g id="node29" class="node">
<title>Node473154</title>
<g id="a_node29"><a xlink:href="quickjs_8c.html#ab1b614ef35f1cea05da0ad4927c53118" target="_top" xlink:title="JS_ToFloat64Free">
<polygon fill="none" stroke="#ff0000" points="286.5,-.5 286.5,-19.5 383.5,-19.5 383.5,-.5 286.5,-.5"/>
<text text-anchor="middle" x="335" y="-7.5" font-family="Helvetica,sans-Serif" font-size="10.00" fill="#000000">JS_ToFloat64Free</text>
</a>
</g>
</g>
<!-- Node473144&#45;&gt;Node473154 -->
<g id="edge46" class="edge">
<title>Node473144&#45;&gt;Node473154</title>
<path fill="none" stroke="#191970" d="M51.8909,-399.2387C55.5717,-364.5202 72.6316,-245.6478 138,-181 172.6932,-146.6893 207.3277,-178.3131 241,-143 277.6667,-104.5466 239.6307,-66.771 277,-29 278.4532,-27.5312 280.0215,-26.1759 281.6791,-24.9253"/>
<polygon fill="#191970" stroke="#191970" points="283.865,-27.6923 290.5894,-19.5049 280.227,-21.712 283.865,-27.6923"/>
</g>
<!-- Node473242 -->
<g id="node30" class="node">
<title>Node473242</title>
<g id="a_node30"><a xlink:href="quickjs_8c.html#a2b8df609710fa689dd50b4bd18df2493" target="_top" xlink:title="JS_ToPrimitive">
<polygon fill="none" stroke="#ff0000" points="148,-114.5 148,-133.5 231,-133.5 231,-114.5 148,-114.5"/>
<text text-anchor="middle" x="189.5" y="-121.5" font-family="Helvetica,sans-Serif" font-size="10.00" fill="#000000">JS_ToPrimitive</text>
</a>
</g>
</g>
<!-- Node473144&#45;&gt;Node473242 -->
<g id="edge47" class="edge">
<title>Node473144&#45;&gt;Node473242</title>
<path fill="none" stroke="#191970" d="M51.5461,-399.3678C54.1428,-362.1931 68.2234,-226.2488 138,-148 141.2743,-144.3281 145.2276,-141.176 149.4709,-138.4805"/>
<polygon fill="#191970" stroke="#191970" points="151.3653,-141.434 158.4638,-133.5688 148.0098,-135.2906 151.3653,-141.434"/>
</g>
<!-- Node473147 -->
<g id="node4" class="node">
<title>Node473147</title>
<g id="a_node4"><a xlink:href="quickjs_8c.html#aef33badbc2ebaf812f7cba5302f2d047" target="_top" xlink:title="get_date_fields">
<polygon fill="none" stroke="#ff0000" points="293.5,-608.5 293.5,-627.5 376.5,-627.5 376.5,-608.5 293.5,-608.5"/>
<text text-anchor="middle" x="335" y="-615.5" font-family="Helvetica,sans-Serif" font-size="10.00" fill="#000000">get_date_fields</text>
</a>
</g>
</g>
<!-- Node473146&#45;&gt;Node473147 -->
<g id="edge3" class="edge">
<title>Node473146&#45;&gt;Node473147</title>
<path fill="none" stroke="#191970" d="M226.2158,-646.411C245.1566,-641.4642 268.4572,-635.3789 288.6285,-630.1108"/>
<polygon fill="#191970" stroke="#191970" points="289.7572,-633.4335 298.5482,-627.5201 287.9883,-626.6606 289.7572,-633.4335"/>
</g>
<!-- Node473218 -->
<g id="node6" class="node">
<title>Node473218</title>
<g id="a_node6"><a xlink:href="quickjs_8c.html#a0ee6a3654a6016393fac5e1c108f403a" target="_top" xlink:title="JS_NewString">
<polygon fill="none" stroke="#000000" points="295,-684.5 295,-703.5 375,-703.5 375,-684.5 295,-684.5"/>
<text text-anchor="middle" x="335" y="-691.5" font-family="Helvetica,sans-Serif" font-size="10.00" fill="#000000">JS_NewString</text>
</a>
</g>
</g>
<!-- Node473146&#45;&gt;Node473218 -->
<g id="edge5" class="edge">
<title>Node473146&#45;&gt;Node473218</title>
<path fill="none" stroke="#191970" d="M226.2158,-665.589C245.1566,-670.5358 268.4572,-676.6211 288.6285,-681.8892"/>
<polygon fill="#191970" stroke="#191970" points="287.9883,-685.3394 298.5482,-684.4799 289.7572,-678.5665 287.9883,-685.3394"/>
</g>
<!-- Node473219 -->
<g id="node7" class="node">
<title>Node473219</title>
<g id="a_node7"><a xlink:href="quickjs_8c.html#ac34cc554aab1e98c45a7f845fff64385" target="_top" xlink:title="JS_NewStringLen">
<polygon fill="none" stroke="#ff0000" points="442.5,-665.5 442.5,-684.5 537.5,-684.5 537.5,-665.5 442.5,-665.5"/>
<text text-anchor="middle" x="490" y="-672.5" font-family="Helvetica,sans-Serif" font-size="10.00" fill="#000000">JS_NewStringLen</text>
</a>
</g>
</g>
<!-- Node473146&#45;&gt;Node473219 -->
<g id="edge7" class="edge">
<title>Node473146&#45;&gt;Node473219</title>
<path fill="none" stroke="#191970" d="M231.2832,-658.6419C283.5411,-661.946 373.2828,-667.6202 432.129,-671.3409"/>
<polygon fill="#191970" stroke="#191970" points="432.1787,-674.851 442.3797,-671.9891 432.6205,-667.8649 432.1787,-674.851"/>
</g>
<!-- Node473148 -->
<g id="node5" class="node">
<title>Node473148</title>
<g id="a_node5"><a xlink:href="quickjs_8c.html#a021e07d41b6d7239b3b44e7cbdff7a15" target="_top" xlink:title="days_in_year">
<polygon fill="none" stroke="#000000" points="453,-532.5 453,-551.5 527,-551.5 527,-532.5 453,-532.5"/>
<text text-anchor="middle" x="490" y="-539.5" font-family="Helvetica,sans-Serif" font-size="10.00" fill="#000000">days_in_year</text>
</a>
</g>
</g>
<!-- Node473147&#45;&gt;Node473148 -->
<g id="edge4" class="edge">
<title>Node473147&#45;&gt;Node473148</title>
<path fill="none" stroke="#191970" d="M368.2877,-608.452C376.4979,-605.7289 385.177,-602.5304 393,-599 419.5893,-587.0007 448.1681,-569.6023 467.3655,-557.1883"/>
<polygon fill="#191970" stroke="#191970" points="469.2875,-560.1134 475.7354,-551.7066 465.4523,-554.2576 469.2875,-560.1134"/>
</g>
<!-- Node473218&#45;&gt;Node473219 -->
<g id="edge6" class="edge">
<title>Node473218&#45;&gt;Node473219</title>
<path fill="none" stroke="#191970" d="M375.3198,-689.0576C392.7315,-686.9232 413.4246,-684.3867 432.4082,-682.0596"/>
<polygon fill="#191970" stroke="#191970" points="432.9491,-685.5196 442.4489,-680.8288 432.0974,-678.5716 432.9491,-685.5196"/>
</g>
<!-- Node473443&#45;&gt;Node473170 -->
<g id="edge9" class="edge">
<title>Node473443&#45;&gt;Node473170</title>
<path fill="none" stroke="#191970" d="M213.8534,-570.4595C237.7743,-561.0884 274.471,-546.7124 301.209,-536.2377"/>
<polygon fill="#191970" stroke="#191970" points="302.5328,-539.4782 310.5671,-532.5716 299.9794,-532.9605 302.5328,-539.4782"/>
</g>
<!-- Node473443&#45;&gt;Node473156 -->
<g id="edge10" class="edge">
<title>Node473443&#45;&gt;Node473156</title>
<path fill="none" stroke="#191970" d="M199.0339,-570.1793C214.406,-554.7175 246.082,-524.3658 277,-504 284.8699,-498.8161 293.8444,-494.0106 302.3432,-489.8963"/>
<polygon fill="#191970" stroke="#191970" points="304.0644,-492.9557 311.6522,-485.5615 301.1094,-486.61 304.0644,-492.9557"/>
</g>
<!-- Node473443&#45;&gt;Node473276 -->
<g id="edge11" class="edge">
<title>Node473443&#45;&gt;Node473276</title>
<path fill="none" stroke="#191970" d="M241.2075,-580C254.2268,-580 268.2298,-580 281.3423,-580"/>
<polygon fill="#191970" stroke="#191970" points="281.6316,-583.5001 291.6315,-580 281.6315,-576.5001 281.6316,-583.5001"/>
</g>
<!-- Node473589&#45;&gt;Node473170 -->
<g id="edge13" class="edge">
<title>Node473589&#45;&gt;Node473170</title>
<path fill="none" stroke="#191970" d="M229.273,-247.5078C233.7324,-249.9758 237.8093,-253.0844 241,-257 308.5795,-339.9334 213.4914,-408.9094 277,-495 281.103,-500.5619 286.606,-505.0703 292.5938,-508.7097"/>
<polygon fill="#191970" stroke="#191970" points="291.1259,-511.8921 301.6069,-513.4416 294.3798,-505.6943 291.1259,-511.8921"/>
</g>
<!-- Node473589&#45;&gt;Node473156 -->
<g id="edge14" class="edge">
<title>Node473589&#45;&gt;Node473156</title>
<path fill="none" stroke="#191970" d="M228.7183,-247.6253C233.3232,-250.0755 237.5875,-253.1479 241,-257 287.0355,-308.9662 245.3706,-347.1992 277,-409 286.8678,-428.2806 303.4228,-446.6175 316.3258,-459.2178"/>
<polygon fill="#191970" stroke="#191970" points="314.1241,-461.9528 323.7954,-466.279 318.9329,-456.8659 314.1241,-461.9528"/>
</g>
<!-- Node473589&#45;&gt;Node473162 -->
<g id="edge15" class="edge">
<title>Node473589&#45;&gt;Node473162</title>
<path fill="none" stroke="#191970" d="M227.9415,-247.598C232.7811,-250.0559 237.3171,-253.1376 241,-257 277.6667,-295.4534 239.6307,-333.229 277,-371 278.8258,-372.8454 280.8334,-374.5117 282.9712,-376.0161"/>
<polygon fill="#191970" stroke="#191970" points="281.3377,-379.114 291.7535,-381.0534 284.8205,-373.0419 281.3377,-379.114"/>
</g>
<!-- Node473212 -->
<g id="node14" class="node">
<title>Node473212</title>
<g id="a_node14"><a xlink:href="quickjs_8c.html#a7bcb8e1a20cbc8374a5f9ba4a2088cec" target="_top" xlink:title="JS_ToString">
<polygon fill="none" stroke="#ff0000" points="299.5,-38.5 299.5,-57.5 370.5,-57.5 370.5,-38.5 299.5,-38.5"/>
<text text-anchor="middle" x="335" y="-45.5" font-family="Helvetica,sans-Serif" font-size="10.00" fill="#000000">JS_ToString</text>
</a>
</g>
</g>
<!-- Node473589&#45;&gt;Node473212 -->
<g id="edge16" class="edge">
<title>Node473589&#45;&gt;Node473212</title>
<path fill="none" stroke="#191970" d="M228.4345,-228.4857C233.1416,-226.0172 237.5094,-222.9102 241,-219 285.7943,-168.8212 233.1901,-123.0405 277,-72 280.6819,-67.7104 285.2532,-64.1738 290.2023,-61.2611"/>
<polygon fill="#191970" stroke="#191970" points="292.025,-64.2631 299.4081,-56.6643 288.8978,-58.0005 292.025,-64.2631"/>
</g>
<!-- Node473589&#45;&gt;Node473590 -->
<g id="edge17" class="edge">
<title>Node473589&#45;&gt;Node473590</title>
<path fill="none" stroke="#191970" d="M226.064,-247.5487C231.4617,-250.0319 236.6583,-253.1342 241,-257 267.4236,-280.5276 251.039,-303.963 277,-328 281.303,-331.9841 286.3598,-335.3537 291.6633,-338.1911"/>
<polygon fill="#191970" stroke="#191970" points="290.1956,-341.3686 300.7322,-342.4784 293.1874,-335.0402 290.1956,-341.3686"/>
</g>
<!-- Node473592 -->
<g id="node18" class="node">
<title>Node473592</title>
<g id="a_node18"><a xlink:href="quickjs_8c.html#a80398f847e2e83c2613b638719bf6fda" target="_top" xlink:title="string_get">
<polygon fill="none" stroke="#000000" points="587,-171.5 587,-190.5 646,-190.5 646,-171.5 587,-171.5"/>
<text text-anchor="middle" x="616.5" y="-178.5" font-family="Helvetica,sans-Serif" font-size="10.00" fill="#000000">string_get</text>
</a>
</g>
</g>
<!-- Node473589&#45;&gt;Node473592 -->
<g id="edge21" class="edge">
<title>Node473589&#45;&gt;Node473592</title>
<path fill="none" stroke="#191970" d="M229.5898,-242.7748C297.7106,-249.3962 439.5097,-256.6664 551,-219 566.6817,-213.702 582.7819,-204.4236 595.0957,-196.3616"/>
<polygon fill="#191970" stroke="#191970" points="597.3951,-199.0311 603.7045,-190.5197 593.4645,-193.2388 597.3951,-199.0311"/>
</g>
<!-- Node473593 -->
<g id="node19" class="node">
<title>Node473593</title>
<g id="a_node19"><a xlink:href="quickjs_8c.html#aeb47d79625c5d7ad6e67c1b0d337c19d" target="_top" xlink:title="string_get_digits">
<polygon fill="none" stroke="#000000" points="446,-76.5 446,-95.5 534,-95.5 534,-76.5 446,-76.5"/>
<text text-anchor="middle" x="490" y="-83.5" font-family="Helvetica,sans-Serif" font-size="10.00" fill="#000000">string_get_digits</text>
</a>
</g>
</g>
<!-- Node473589&#45;&gt;Node473593 -->
<g id="edge22" class="edge">
<title>Node473589&#45;&gt;Node473593</title>
<path fill="none" stroke="#191970" d="M227.9415,-228.402C232.7811,-225.9441 237.3171,-222.8624 241,-219 277.6667,-180.5466 235.5833,-138.2831 277,-105 321.2163,-69.4671 388.5256,-69.5806 435.6124,-75.4478"/>
<polygon fill="#191970" stroke="#191970" points="435.2512,-78.9309 445.6337,-76.8204 436.2012,-71.9957 435.2512,-78.9309"/>
</g>
<!-- Node473594 -->
<g id="node20" class="node">
<title>Node473594</title>
<g id="a_node20"><a xlink:href="quickjs_8c.html#a4982eb970a5d84ffbe51b5186c9d7040" target="_top" xlink:title="string_get_field">
<polygon fill="none" stroke="#000000" points="448.5,-152.5 448.5,-171.5 531.5,-171.5 531.5,-152.5 448.5,-152.5"/>
<text text-anchor="middle" x="490" y="-159.5" font-family="Helvetica,sans-Serif" font-size="10.00" fill="#000000">string_get_field</text>
</a>
</g>
</g>
<!-- Node473589&#45;&gt;Node473594 -->
<g id="edge24" class="edge">
<title>Node473589&#45;&gt;Node473594</title>
<path fill="none" stroke="#191970" d="M222.4631,-228.4092C228.8742,-225.8448 235.3511,-222.7247 241,-219 260.4224,-206.1936 256.0586,-191.1337 277,-181 327.8462,-156.395 393.4911,-154.3257 438.3838,-156.6959"/>
<polygon fill="#191970" stroke="#191970" points="438.2825,-160.1963 448.48,-157.3221 438.7158,-153.2097 438.2825,-160.1963"/>
</g>
<!-- Node473595 -->
<g id="node21" class="node">
<title>Node473595</title>
<g id="a_node21"><a xlink:href="quickjs_8c.html#a3f727a5b0254dc65d6cb61d7b4812b9b" target="_top" xlink:title="string_get_month">
<polygon fill="none" stroke="#ff0000" points="289,-190.5 289,-209.5 381,-209.5 381,-190.5 289,-190.5"/>
<text text-anchor="middle" x="335" y="-197.5" font-family="Helvetica,sans-Serif" font-size="10.00" fill="#000000">string_get_month</text>
</a>
</g>
</g>
<!-- Node473589&#45;&gt;Node473595 -->
<g id="edge26" class="edge">
<title>Node473589&#45;&gt;Node473595</title>
<path fill="none" stroke="#191970" d="M226.2158,-228.411C245.1566,-223.4642 268.4572,-217.3789 288.6285,-212.1108"/>
<polygon fill="#191970" stroke="#191970" points="289.7572,-215.4335 298.5482,-209.5201 287.9883,-208.6606 289.7572,-215.4335"/>
</g>
<!-- Node473596 -->
<g id="node22" class="node">
<title>Node473596</title>
<g id="a_node22"><a xlink:href="quickjs_8c.html#ae8bb4fb34fa1e849bdfd7a108a1f346e" target="_top" xlink:title="string_skip_spaces">
<polygon fill="none" stroke="#000000" points="439.5,-190.5 439.5,-209.5 540.5,-209.5 540.5,-190.5 439.5,-190.5"/>
<text text-anchor="middle" x="490" y="-197.5" font-family="Helvetica,sans-Serif" font-size="10.00" fill="#000000">string_skip_spaces</text>
</a>
</g>
</g>
<!-- Node473589&#45;&gt;Node473596 -->
<g id="edge34" class="edge">
<title>Node473589&#45;&gt;Node473596</title>
<path fill="none" stroke="#191970" d="M229.7973,-235.435C270.9547,-232.5348 336.6324,-227.131 393,-219 407.0772,-216.9694 422.2068,-214.262 436.2317,-211.529"/>
<polygon fill="#191970" stroke="#191970" points="437.0924,-214.9264 446.2179,-209.5437 435.7274,-208.0608 437.0924,-214.9264"/>
</g>
<!-- Node473598 -->
<g id="node23" class="node">
<title>Node473598</title>
<g id="a_node23"><a xlink:href="quickjs_8c.html#a26c985e3596f8e72dd7d6957fb5efe7c" target="_top" xlink:title="string_get_signed_field">
<polygon fill="none" stroke="#000000" points="277,-114.5 277,-133.5 393,-133.5 393,-114.5 277,-114.5"/>
<text text-anchor="middle" x="335" y="-121.5" font-family="Helvetica,sans-Serif" font-size="10.00" fill="#000000">string_get_signed_field</text>
</a>
</g>
</g>
<!-- Node473589&#45;&gt;Node473598 -->
<g id="edge29" class="edge">
<title>Node473589&#45;&gt;Node473598</title>
<path fill="none" stroke="#191970" d="M226.064,-228.4513C231.4617,-225.9681 236.6583,-222.8658 241,-219 267.4236,-195.4724 251.039,-172.037 277,-148 281.303,-144.0159 286.3598,-140.6463 291.6633,-137.8089"/>
<polygon fill="#191970" stroke="#191970" points="293.1874,-140.9598 300.7322,-133.5216 290.1956,-134.6314 293.1874,-140.9598"/>
</g>
<!-- Node473599 -->
<g id="node24" class="node">
<title>Node473599</title>
<g id="a_node24"><a xlink:href="quickjs_8c.html#a156d960178dceb45d82581c53cd7f81b" target="_top" xlink:title="string_skip_non_spaces">
<polygon fill="none" stroke="#000000" points="429,-304.5 429,-323.5 551,-323.5 551,-304.5 429,-304.5"/>
<text text-anchor="middle" x="490" y="-311.5" font-family="Helvetica,sans-Serif" font-size="10.00" fill="#000000">string_skip_non_spaces</text>
</a>
</g>
</g>
<!-- Node473589&#45;&gt;Node473599 -->
<g id="edge32" class="edge">
<title>Node473589&#45;&gt;Node473599</title>
<path fill="none" stroke="#191970" d="M221.4491,-247.5869C228.1361,-250.191 234.9793,-253.3278 241,-257 259.5302,-268.3023 257.2444,-281.0095 277,-290 321.2132,-310.1208 375.7177,-315.9623 418.523,-316.8552"/>
<polygon fill="#191970" stroke="#191970" points="418.5385,-320.3556 428.581,-316.9793 418.625,-313.3561 418.5385,-320.3556"/>
</g>
<!-- Node473590&#45;&gt;Node473148 -->
<g id="edge19" class="edge">
<title>Node473590&#45;&gt;Node473148</title>
<path fill="none" stroke="#191970" d="M376.5818,-361.4051C382.4723,-363.8983 388.1613,-367.0414 393,-371 399.6784,-376.4637 456.346,-480.022 479.8492,-523.2707"/>
<polygon fill="#191970" stroke="#191970" points="476.8519,-525.0855 484.6985,-532.2046 483.004,-521.7461 476.8519,-525.0855"/>
</g>
<!-- Node473587 -->
<g id="node16" class="node">
<title>Node473587</title>
<g id="a_node16"><a xlink:href="quickjs_8c.html#a3f5def6f020bd1c429735f0b1d079b5e" target="_top" xlink:title="days_from_year">
<polygon fill="none" stroke="#ff0000" points="447,-342.5 447,-361.5 533,-361.5 533,-342.5 447,-342.5"/>
<text text-anchor="middle" x="490" y="-349.5" font-family="Helvetica,sans-Serif" font-size="10.00" fill="#000000">days_from_year</text>
</a>
</g>
</g>
<!-- Node473590&#45;&gt;Node473587 -->
<g id="edge18" class="edge">
<title>Node473590&#45;&gt;Node473587</title>
<path fill="none" stroke="#191970" d="M376.5372,-352C395.0933,-352 417.1837,-352 436.9206,-352"/>
<polygon fill="#191970" stroke="#191970" points="436.996,-355.5001 446.9959,-352 436.9959,-348.5001 436.996,-355.5001"/>
</g>
<!-- Node473590&#45;&gt;Node473591 -->
<g id="edge20" class="edge">
<title>Node473590&#45;&gt;Node473591</title>
<path fill="none" stroke="#191970" d="M365.2141,-361.5382C374.1926,-364.4693 384.0255,-367.7751 393,-371 414.4975,-378.7249 438.3933,-388.0769 457.0883,-395.5702"/>
<polygon fill="#191970" stroke="#191970" points="456.0365,-398.9198 466.62,-399.41 458.6522,-392.4269 456.0365,-398.9198"/>
</g>
<!-- Node473593&#45;&gt;Node473592 -->
<g id="edge23" class="edge">
<title>Node473593&#45;&gt;Node473592</title>
<path fill="none" stroke="#191970" d="M522.0758,-95.5282C531.8278,-99.2196 542.2663,-104.0217 551,-110 572.286,-124.5705 591.6387,-147.263 603.6972,-163.0577"/>
<polygon fill="#191970" stroke="#191970" points="601.1478,-165.496 609.9136,-171.4467 606.7719,-161.3284 601.1478,-165.496"/>
</g>
<!-- Node473594&#45;&gt;Node473592 -->
<g id="edge25" class="edge">
<title>Node473594&#45;&gt;Node473592</title>
<path fill="none" stroke="#191970" d="M531.7714,-168.274C546.249,-170.4485 562.4302,-172.8788 576.7412,-175.0283"/>
<polygon fill="#191970" stroke="#191970" points="576.3712,-178.5119 586.7802,-176.5362 577.411,-171.5896 576.3712,-178.5119"/>
</g>
<!-- Node473595&#45;&gt;Node473596 -->
<g id="edge27" class="edge">
<title>Node473595&#45;&gt;Node473596</title>
<path fill="none" stroke="#191970" d="M381.0854,-200C396.1653,-200 413.1552,-200 429.1517,-200"/>
<polygon fill="#191970" stroke="#191970" points="429.4902,-203.5001 439.4901,-200 429.4901,-196.5001 429.4902,-203.5001"/>
</g>
<!-- Node473596&#45;&gt;Node473592 -->
<g id="edge28" class="edge">
<title>Node473596&#45;&gt;Node473592</title>
<path fill="none" stroke="#191970" d="M540.7235,-192.3815C552.7224,-190.5792 565.3478,-188.6829 576.7778,-186.9662"/>
<polygon fill="#191970" stroke="#191970" points="577.5171,-190.3945 586.8863,-185.4479 576.4773,-183.4721 577.5171,-190.3945"/>
</g>
<!-- Node473598&#45;&gt;Node473592 -->
<g id="edge30" class="edge">
<title>Node473598&#45;&gt;Node473592</title>
<path fill="none" stroke="#191970" d="M393.1807,-122.3297C437.4375,-122.667 499.3214,-126.6328 551,-143 566.78,-147.9977 582.8818,-157.2712 595.1718,-165.4058"/>
<polygon fill="#191970" stroke="#191970" points="593.5366,-168.5291 603.7587,-171.3146 597.5048,-162.7625 593.5366,-168.5291"/>
</g>
<!-- Node473598&#45;&gt;Node473594 -->
<g id="edge31" class="edge">
<title>Node473598&#45;&gt;Node473594</title>
<path fill="none" stroke="#191970" d="M374.113,-133.589C394.4748,-138.5809 419.5663,-144.7324 441.1887,-150.0334"/>
<polygon fill="#191970" stroke="#191970" points="440.6224,-153.4981 451.1682,-152.4799 442.2892,-146.6994 440.6224,-153.4981"/>
</g>
<!-- Node473599&#45;&gt;Node473592 -->
<g id="edge33" class="edge">
<title>Node473599&#45;&gt;Node473592</title>
<path fill="none" stroke="#191970" d="M525.7244,-304.4188C534.6263,-300.8817 543.7024,-296.1751 551,-290 580.215,-265.2789 599.8977,-224.0586 609.5618,-200.0187"/>
<polygon fill="#191970" stroke="#191970" points="612.8674,-201.174 613.1924,-190.5841 606.3344,-198.6599 612.8674,-201.174"/>
</g>
<!-- Node473425&#45;&gt;Node473170 -->
<g id="edge42" class="edge">
<title>Node473425&#45;&gt;Node473170</title>
<path fill="none" stroke="#191970" d="M238.7597,-510.4325C253.8982,-512.4094 270.557,-514.5848 285.6983,-516.562"/>
<polygon fill="#191970" stroke="#191970" points="285.532,-520.0699 295.901,-517.8943 286.4385,-513.1288 285.532,-520.0699"/>
</g>
<!-- Node473425&#45;&gt;Node473156 -->
<g id="edge43" class="edge">
<title>Node473425&#45;&gt;Node473156</title>
<path fill="none" stroke="#191970" d="M238.7597,-494.5205C252.5585,-491.865 267.6204,-488.9665 281.6449,-486.2676"/>
<polygon fill="#191970" stroke="#191970" points="282.4824,-489.6708 291.6407,-484.344 281.1595,-482.7969 282.4824,-489.6708"/>
</g>
<!-- Node473152&#45;&gt;Node473154 -->
<g id="edge45" class="edge">
<title>Node473152&#45;&gt;Node473154</title>
<path fill="none" stroke="#191970" d="M221.4197,-190.4738C228.7388,-186.9605 235.8673,-182.2515 241,-176 283.6829,-124.0133 231.2883,-78.3445 277,-29 278.2377,-27.664 279.5706,-26.4217 280.9803,-25.2667"/>
<polygon fill="#191970" stroke="#191970" points="283.2879,-27.9414 289.7674,-19.5588 279.4747,-22.0711 283.2879,-27.9414"/>
</g>
</g>
</svg>
        <g id="navigator" transform="translate(0 0)" fill="#404254">
                <rect fill="#f2f5e9" fill-opacity="0.5" stroke="#606060" stroke-width=".5" x="0" y="0" width="60" height="60"/>
                <use id="zoomplus" xlink:href="#zoomPlus" x="17" y="9" onmousedown="handleZoom(evt,'in')"/>
                <use id="zoomminus" xlink:href="#zoomMin" x="42" y="9" onmousedown="handleZoom(evt,'out')"/>
                <use id="reset" xlink:href="#resetDef" x="30" y="36" onmousedown="handleReset()"/>
                <g id="arrowUp" xlink:href="#dirArrow" transform="translate(30 24)" onmousedown="handlePan(0,-1)">
                  <use xlink:href="#rim" fill="#404040">
                        <set attributeName="fill" to="#808080" begin="arrowUp.mouseover" end="arrowUp.mouseout"/>
                  </use>
                  <path fill="none" stroke="white" stroke-width="1.5" d="M0,-3.0v7 M-2.5,-0.5L0,-3.0L2.5,-0.5"/>
                </g>
                <g id="arrowRight" xlink:href="#dirArrow" transform="rotate(90) translate(36 -43)" onmousedown="handlePan(1,0)">
                  <use xlink:href="#rim" fill="#404040">
                        <set attributeName="fill" to="#808080" begin="arrowRight.mouseover" end="arrowRight.mouseout"/>
                  </use>
                  <path fill="none" stroke="white" stroke-width="1.5" d="M0,-3.0v7 M-2.5,-0.5L0,-3.0L2.5,-0.5"/>
                </g>
                <g id="arrowDown" xlink:href="#dirArrow" transform="rotate(180) translate(-30 -48)" onmousedown="handlePan(0,1)">
                  <use xlink:href="#rim" fill="#404040">
                        <set attributeName="fill" to="#808080" begin="arrowDown.mouseover" end="arrowDown.mouseout"/>
                  </use>
                  <path fill="none" stroke="white" stroke-width="1.5" d="M0,-3.0v7 M-2.5,-0.5L0,-3.0L2.5,-0.5"/>
                </g>
                <g id="arrowLeft" xlink:href="#dirArrow" transform="rotate(270) translate(-36 17)" onmousedown="handlePan(-1,0)">
                  <use xlink:href="#rim" fill="#404040">
                        <set attributeName="fill" to="#808080" begin="arrowLeft.mouseover" end="arrowLeft.mouseout"/>
                  </use>
                  <path fill="none" stroke="white" stroke-width="1.5" d="M0,-3.0v7 M-2.5,-0.5L0,-3.0L2.5,-0.5"/>
                </g>
        </g>
        <svg viewBox="0 0 15 15" width="100%" height="30px" preserveAspectRatio="xMaxYMin meet">
         <g id="arrow_out" transform="scale(0.3 0.3)">
          <a xlink:href="quickjs_8c_a7e4e02ec8849f3beaf28dc0613bb4016_cgraph_org.svg" target="_base">
           <rect id="button" ry="5" rx="5" y="6" x="6" height="38" width="38"
                fill="#f2f5e9" fill-opacity="0.5" stroke="#606060" stroke-width="1.0"/>
           <path id="arrow"
             d="M 11.500037,31.436501 C 11.940474,20.09759 22.043105,11.32322 32.158766,21.979434 L 37.068811,17.246167 C 37.068811,17.246167 37.088388,32 37.088388,32 L 22.160133,31.978069 C 22.160133,31.978069 26.997745,27.140456 26.997745,27.140456 C 18.528582,18.264221 13.291696,25.230495 11.500037,31.436501 z"
             style="fill:#404040;"/>
          </a>
         </g>
        </svg>
</svg>
