<?xml version="1.0" encoding="UTF-8" standalone="no"?>
<!DOCTYPE svg PUBLIC "-//W3C//DTD SVG 1.1//EN"
 "http://www.w3.org/Graphics/SVG/1.1/DTD/svg11.dtd">
<!-- Generated by graphviz version 2.40.1 (20161225.0304)
 -->
<!-- Title: add_private_class_field Pages: 1 -->
<!--zoomable 169 -->
<svg id="main" version="1.1" xmlns="http://www.w3.org/2000/svg" xmlns:xlink="http://www.w3.org/1999/xlink" xml:space="preserve" onload="init(evt)">
<style type="text/css"><![CDATA[
.edge:hover path { stroke: red; }
.edge:hover polygon { stroke: red; fill: red; }
]]></style>
<script type="text/javascript"><![CDATA[
var edges = document.getElementsByTagName('g');
if (edges && edges.length) {
  for (var i=0;i<edges.length;i++) {
    if (edges[i].id.substr(0,4)=='edge') {
      edges[i].setAttribute('class','edge');
    }
  }
}
]]></script>
        <defs>
                <circle id="rim" cx="0" cy="0" r="7"/>
                <circle id="rim2" cx="0" cy="0" r="3.5"/>
                <g id="zoomPlus">
                        <use xlink:href="#rim" fill="#404040">
                                <set attributeName="fill" to="#808080" begin="zoomplus.mouseover" end="zoomplus.mouseout"/>
                        </use>
                        <path d="M-4,0h8M0,-4v8" fill="none" stroke="white" stroke-width="1.5" pointer-events="none"/>
                </g>
                <g id="zoomMin">
                        <use xlink:href="#rim" fill="#404040">
                                <set attributeName="fill" to="#808080" begin="zoomminus.mouseover" end="zoomminus.mouseout"/>
                        </use>
                        <path d="M-4,0h8" fill="none" stroke="white" stroke-width="1.5" pointer-events="none"/>
                </g>
                <g id="dirArrow">
                        <path fill="none" stroke="white" stroke-width="1.5" d="M0,-3.0v7 M-2.5,-0.5L0,-3.0L2.5,-0.5"/>
                </g>
               <g id="resetDef">
                       <use xlink:href="#rim2" fill="#404040">
                               <set attributeName="fill" to="#808080" begin="reset.mouseover" end="reset.mouseout"/>
                       </use>
               </g>
        </defs>

<script type="text/javascript">
var viewWidth = 527;
var viewHeight = 169;
var sectionId = 'dynsection-989';
</script>
<script xlink:href="svgpan.js"/>
<svg id="graph" class="graph">
<g id="viewport">
<title>add_private_class_field</title>
<!-- Node313033 -->
<g id="node1" class="node">
<title>Node313033</title>
<polygon fill="#bfbfbf" stroke="#000000" points="0,-39.4809 0,-58.4809 119,-58.4809 119,-39.4809 0,-39.4809"/>
<text text-anchor="middle" x="59.5" y="-46.4809" font-family="Helvetica,sans-Serif" font-size="10.00" fill="#000000">add_private_class_field</text>
</g>
<!-- Node313034 -->
<g id="node2" class="node">
<title>Node313034</title>
<g id="a_node2"><a xlink:href="quickjs_8c.html#a00eb789430243c24dab4a63ad6a79653" target="_top" xlink:title="js_parse_class">
<polygon fill="none" stroke="#000000" points="155,-39.4809 155,-58.4809 237,-58.4809 237,-39.4809 155,-39.4809"/>
<text text-anchor="middle" x="196" y="-46.4809" font-family="Helvetica,sans-Serif" font-size="10.00" fill="#000000">js_parse_class</text>
</a>
</g>
</g>
<!-- Node313033&#45;&gt;Node313034 -->
<g id="edge1" class="edge">
<title>Node313033&#45;&gt;Node313034</title>
<path fill="none" stroke="#191970" d="M129.4529,-48.9809C138.0551,-48.9809 146.6212,-48.9809 154.6041,-48.9809"/>
<polygon fill="#191970" stroke="#191970" points="129.3709,-45.481 119.3709,-48.9809 129.3709,-52.481 129.3709,-45.481"/>
</g>
<!-- Node313035 -->
<g id="node3" class="node">
<title>Node313035</title>
<g id="a_node3"><a xlink:href="quickjs_8c.html#a840642c87c5a82d4cc68333376a3b6de" target="_top" xlink:title="js_parse_postfix_expr">
<polygon fill="none" stroke="#000000" points="273,-123.4809 273,-142.4809 385,-142.4809 385,-123.4809 273,-123.4809"/>
<text text-anchor="middle" x="329" y="-130.4809" font-family="Helvetica,sans-Serif" font-size="10.00" fill="#000000">js_parse_postfix_expr</text>
</a>
</g>
</g>
<!-- Node313034&#45;&gt;Node313035 -->
<g id="edge2" class="edge">
<title>Node313034&#45;&gt;Node313035</title>
<path fill="none" stroke="#191970" d="M212.3711,-66.0089C227.0793,-80.4751 249.865,-100.9155 273,-113.9809 279.5258,-117.6664 286.8835,-120.7949 294.0679,-123.3845"/>
<polygon fill="#191970" stroke="#191970" points="214.6113,-63.2978 205.0799,-58.6715 209.6459,-68.2319 214.6113,-63.2978"/>
</g>
<!-- Node313039 -->
<g id="node6" class="node">
<title>Node313039</title>
<g id="a_node6"><a xlink:href="quickjs_8c.html#a9d844c16dcc71701436848074337d32c" target="_top" xlink:title="js_parse_statement\l_or_decl">
<polygon fill="none" stroke="#ff0000" points="278,-55.9809 278,-85.9809 380,-85.9809 380,-55.9809 278,-55.9809"/>
<text text-anchor="start" x="286" y="-73.9809" font-family="Helvetica,sans-Serif" font-size="10.00" fill="#000000">js_parse_statement</text>
<text text-anchor="middle" x="329" y="-62.9809" font-family="Helvetica,sans-Serif" font-size="10.00" fill="#000000">_or_decl</text>
</a>
</g>
</g>
<!-- Node313034&#45;&gt;Node313039 -->
<g id="edge8" class="edge">
<title>Node313034&#45;&gt;Node313039</title>
<path fill="none" stroke="#191970" d="M247.5124,-57.5018C257.4639,-59.1479 267.8878,-60.8721 277.8284,-62.5165"/>
<polygon fill="#191970" stroke="#191970" points="247.7901,-54.0002 237.353,-55.8213 246.6477,-60.9064 247.7901,-54.0002"/>
</g>
<!-- Node313046 -->
<g id="node7" class="node">
<title>Node313046</title>
<g id="a_node7"><a xlink:href="quickjs_8c.html#a498e1d5c7de1b59c1630e9847cde1e41" target="_top" xlink:title="js_parse_export">
<polygon fill="none" stroke="#ff0000" points="286,-17.4809 286,-36.4809 372,-36.4809 372,-17.4809 286,-17.4809"/>
<text text-anchor="middle" x="329" y="-24.4809" font-family="Helvetica,sans-Serif" font-size="10.00" fill="#000000">js_parse_export</text>
</a>
</g>
</g>
<!-- Node313034&#45;&gt;Node313046 -->
<g id="edge10" class="edge">
<title>Node313034&#45;&gt;Node313046</title>
<path fill="none" stroke="#191970" d="M247.3441,-40.4879C260.0585,-38.3848 273.5536,-36.1525 285.8331,-34.1213"/>
<polygon fill="#191970" stroke="#191970" points="246.6477,-37.0555 237.353,-42.1406 247.7901,-43.9616 246.6477,-37.0555"/>
</g>
<!-- Node313035&#45;&gt;Node313035 -->
<g id="edge5" class="edge">
<title>Node313035&#45;&gt;Node313035</title>
<path fill="none" stroke="#191970" d="M304.4465,-152.0101C305.7858,-157.1089 313.9703,-160.9809 329,-160.9809 352.4609,-160.9809 359.2426,-151.5462 349.345,-142.738"/>
<polygon fill="#191970" stroke="#191970" points="307.709,-153.2905 308.655,-142.738 301.3348,-150.3974 307.709,-153.2905"/>
</g>
<!-- Node313036 -->
<g id="node4" class="node">
<title>Node313036</title>
<g id="a_node4"><a xlink:href="quickjs_8c.html#a12b48ce2b1f247b494fdde07dbe7f232" target="_top" xlink:title="js_parse_left_hand\l_side_expr">
<polygon fill="none" stroke="#ff0000" points="421,-23.9809 421,-53.9809 519,-53.9809 519,-23.9809 421,-23.9809"/>
<text text-anchor="start" x="429" y="-41.9809" font-family="Helvetica,sans-Serif" font-size="10.00" fill="#000000">js_parse_left_hand</text>
<text text-anchor="middle" x="470" y="-30.9809" font-family="Helvetica,sans-Serif" font-size="10.00" fill="#000000">_side_expr</text>
</a>
</g>
</g>
<!-- Node313035&#45;&gt;Node313036 -->
<g id="edge3" class="edge">
<title>Node313035&#45;&gt;Node313036</title>
<path fill="none" stroke="#191970" d="M373.5901,-119.6877C377.541,-117.9654 381.4021,-116.0651 385,-113.9809 413.2687,-97.6057 440.6165,-70.9317 456.3515,-54.2005"/>
<polygon fill="#191970" stroke="#191970" points="372.2883,-116.4387 364.2897,-123.3866 374.8752,-122.9432 372.2883,-116.4387"/>
</g>
<!-- Node313056 -->
<g id="node5" class="node">
<title>Node313056</title>
<g id="a_node5"><a xlink:href="quickjs_8c.html#a9f26c765171d977db1796791f035f1f9" target="_top" xlink:title="js_parse_unary">
<polygon fill="none" stroke="#ff0000" points="428.5,-123.4809 428.5,-142.4809 511.5,-142.4809 511.5,-123.4809 428.5,-123.4809"/>
<text text-anchor="middle" x="470" y="-130.4809" font-family="Helvetica,sans-Serif" font-size="10.00" fill="#000000">js_parse_unary</text>
</a>
</g>
</g>
<!-- Node313035&#45;&gt;Node313056 -->
<g id="edge6" class="edge">
<title>Node313035&#45;&gt;Node313056</title>
<path fill="none" stroke="#191970" d="M395.3891,-132.9809C406.6367,-132.9809 418.0243,-132.9809 428.4015,-132.9809"/>
<polygon fill="#191970" stroke="#191970" points="395.1321,-129.481 385.1321,-132.9809 395.132,-136.481 395.1321,-129.481"/>
</g>
<!-- Node313036&#45;&gt;Node313034 -->
<g id="edge4" class="edge">
<title>Node313036&#45;&gt;Node313034</title>
<path fill="none" stroke="#191970" d="M427.4483,-20.1662C414.1244,-15.1785 399.1897,-10.4877 385,-7.9809 335.9813,.6788 321.2956,4.0757 273,-7.9809 248.7548,-14.0335 223.7758,-29.3162 209.0809,-39.4164"/>
<polygon fill="#191970" stroke="#191970" points="426.2434,-23.453 436.8317,-23.8236 428.7855,-16.9309 426.2434,-23.453"/>
</g>
<!-- Node313056&#45;&gt;Node313056 -->
<g id="edge7" class="edge">
<title>Node313056&#45;&gt;Node313056</title>
<path fill="none" stroke="#191970" d="M443.9584,-152.0101C445.3789,-157.1089 454.0594,-160.9809 470,-160.9809 494.8828,-160.9809 502.0755,-151.5462 491.5781,-142.738"/>
<polygon fill="#191970" stroke="#191970" points="447.238,-153.2665 448.4219,-142.738 440.9308,-150.2302 447.238,-153.2665"/>
</g>
<!-- Node313039&#45;&gt;Node313039 -->
<g id="edge9" class="edge">
<title>Node313039&#45;&gt;Node313039</title>
<path fill="none" stroke="#191970" d="M305.5452,-96.4388C308.4563,-101.1599 316.2745,-104.4809 329,-104.4809 349.8828,-104.4809 357.5507,-95.5375 352.0037,-86.1399"/>
<polygon fill="#191970" stroke="#191970" points="309.0553,-96.2835 305.9963,-86.1399 302.062,-95.9772 309.0553,-96.2835"/>
</g>
</g>
</svg>
        <g id="navigator" transform="translate(0 0)" fill="#404254">
                <rect fill="#f2f5e9" fill-opacity="0.5" stroke="#606060" stroke-width=".5" x="0" y="0" width="60" height="60"/>
                <use id="zoomplus" xlink:href="#zoomPlus" x="17" y="9" onmousedown="handleZoom(evt,'in')"/>
                <use id="zoomminus" xlink:href="#zoomMin" x="42" y="9" onmousedown="handleZoom(evt,'out')"/>
                <use id="reset" xlink:href="#resetDef" x="30" y="36" onmousedown="handleReset()"/>
                <g id="arrowUp" xlink:href="#dirArrow" transform="translate(30 24)" onmousedown="handlePan(0,-1)">
                  <use xlink:href="#rim" fill="#404040">
                        <set attributeName="fill" to="#808080" begin="arrowUp.mouseover" end="arrowUp.mouseout"/>
                  </use>
                  <path fill="none" stroke="white" stroke-width="1.5" d="M0,-3.0v7 M-2.5,-0.5L0,-3.0L2.5,-0.5"/>
                </g>
                <g id="arrowRight" xlink:href="#dirArrow" transform="rotate(90) translate(36 -43)" onmousedown="handlePan(1,0)">
                  <use xlink:href="#rim" fill="#404040">
                        <set attributeName="fill" to="#808080" begin="arrowRight.mouseover" end="arrowRight.mouseout"/>
                  </use>
                  <path fill="none" stroke="white" stroke-width="1.5" d="M0,-3.0v7 M-2.5,-0.5L0,-3.0L2.5,-0.5"/>
                </g>
                <g id="arrowDown" xlink:href="#dirArrow" transform="rotate(180) translate(-30 -48)" onmousedown="handlePan(0,1)">
                  <use xlink:href="#rim" fill="#404040">
                        <set attributeName="fill" to="#808080" begin="arrowDown.mouseover" end="arrowDown.mouseout"/>
                  </use>
                  <path fill="none" stroke="white" stroke-width="1.5" d="M0,-3.0v7 M-2.5,-0.5L0,-3.0L2.5,-0.5"/>
                </g>
                <g id="arrowLeft" xlink:href="#dirArrow" transform="rotate(270) translate(-36 17)" onmousedown="handlePan(-1,0)">
                  <use xlink:href="#rim" fill="#404040">
                        <set attributeName="fill" to="#808080" begin="arrowLeft.mouseover" end="arrowLeft.mouseout"/>
                  </use>
                  <path fill="none" stroke="white" stroke-width="1.5" d="M0,-3.0v7 M-2.5,-0.5L0,-3.0L2.5,-0.5"/>
                </g>
        </g>
        <svg viewBox="0 0 15 15" width="100%" height="30px" preserveAspectRatio="xMaxYMin meet">
         <g id="arrow_out" transform="scale(0.3 0.3)">
          <a xlink:href="quickjs_8c_a1e310fff13ce6850b927d0fa738391b9_icgraph_org.svg" target="_base">
           <rect id="button" ry="5" rx="5" y="6" x="6" height="38" width="38"
                fill="#f2f5e9" fill-opacity="0.5" stroke="#606060" stroke-width="1.0"/>
           <path id="arrow"
             d="M 11.500037,31.436501 C 11.940474,20.09759 22.043105,11.32322 32.158766,21.979434 L 37.068811,17.246167 C 37.068811,17.246167 37.088388,32 37.088388,32 L 22.160133,31.978069 C 22.160133,31.978069 26.997745,27.140456 26.997745,27.140456 C 18.528582,18.264221 13.291696,25.230495 11.500037,31.436501 z"
             style="fill:#404040;"/>
          </a>
         </g>
        </svg>
</svg>
