<?xml version="1.0" encoding="UTF-8" standalone="no"?>
<!DOCTYPE svg PUBLIC "-//W3C//DTD SVG 1.1//EN"
 "http://www.w3.org/Graphics/SVG/1.1/DTD/svg11.dtd">
<!-- Generated by graphviz version 2.40.1 (20161225.0304)
 -->
<!-- Title: emit_u8 Pages: 1 -->
<svg width="811pt" height="361pt"
 viewBox="0.00 0.00 811.00 361.22" xmlns="http://www.w3.org/2000/svg" xmlns:xlink="http://www.w3.org/1999/xlink">
<g id="graph0" class="graph" transform="scale(1 1) rotate(0) translate(4 357.2161)">
<title>emit_u8</title>
<!-- Node311579 -->
<g id="node1" class="node">
<title>Node311579</title>
<polygon fill="#bfbfbf" stroke="#000000" points="0,-151.5 0,-170.5 51,-170.5 51,-151.5 0,-151.5"/>
<text text-anchor="middle" x="25.5" y="-158.5" font-family="Helvetica,sans-Serif" font-size="10.00" fill="#000000">emit_u8</text>
</g>
<!-- Node311580 -->
<g id="node2" class="node">
<title>Node311580</title>
<g id="a_node2"><a xlink:href="quickjs_8c.html#a98ab69061f85c400e0eed2c0eb47f49b" target="_top" xlink:title="js_emit_spread_code">
<polygon fill="none" stroke="#000000" points="87,-170.5 87,-189.5 196,-189.5 196,-170.5 87,-170.5"/>
<text text-anchor="middle" x="141.5" y="-177.5" font-family="Helvetica,sans-Serif" font-size="10.00" fill="#000000">js_emit_spread_code</text>
</a>
</g>
</g>
<!-- Node311579&#45;&gt;Node311580 -->
<g id="edge1" class="edge">
<title>Node311579&#45;&gt;Node311580</title>
<path fill="none" stroke="#191970" d="M61.1284,-166.8357C69.2725,-168.1696 78.1116,-169.6174 86.849,-171.0485"/>
<polygon fill="#191970" stroke="#191970" points="61.6784,-163.3792 51.2442,-165.2167 60.5469,-170.2872 61.6784,-163.3792"/>
</g>
<!-- Node311581 -->
<g id="node3" class="node">
<title>Node311581</title>
<g id="a_node3"><a xlink:href="quickjs_8c.html#a26be546cf89c4580ba9020e8fc43a759" target="_top" xlink:title="js_parse_destructuring\l_element">
<polygon fill="none" stroke="#000000" points="232.5,-133 232.5,-163 347.5,-163 347.5,-133 232.5,-133"/>
<text text-anchor="start" x="240.5" y="-151" font-family="Helvetica,sans-Serif" font-size="10.00" fill="#000000">js_parse_destructuring</text>
<text text-anchor="middle" x="290" y="-140" font-family="Helvetica,sans-Serif" font-size="10.00" fill="#000000">_element</text>
</a>
</g>
</g>
<!-- Node311579&#45;&gt;Node311581 -->
<g id="edge22" class="edge">
<title>Node311579&#45;&gt;Node311581</title>
<path fill="none" stroke="#191970" d="M61.5532,-159.228C105.4973,-157.0682 180.3115,-153.3911 232.2997,-150.8359"/>
<polygon fill="#191970" stroke="#191970" points="61.1591,-155.7431 51.343,-159.7298 61.5028,-162.7346 61.1591,-155.7431"/>
</g>
<!-- Node311582 -->
<g id="node4" class="node">
<title>Node311582</title>
<g id="a_node4"><a xlink:href="quickjs_8c.html#a840642c87c5a82d4cc68333376a3b6de" target="_top" xlink:title="js_parse_postfix_expr">
<polygon fill="none" stroke="#ff0000" points="691,-228.5 691,-247.5 803,-247.5 803,-228.5 691,-228.5"/>
<text text-anchor="middle" x="747" y="-235.5" font-family="Helvetica,sans-Serif" font-size="10.00" fill="#000000">js_parse_postfix_expr</text>
</a>
</g>
</g>
<!-- Node311579&#45;&gt;Node311582 -->
<g id="edge26" class="edge">
<title>Node311579&#45;&gt;Node311582</title>
<path fill="none" stroke="#191970" d="M39.9357,-178.1785C51.4688,-190.8771 68.6864,-207.687 87,-218 168.76,-264.0418 196.1675,-276 290,-276 290,-276 290,-276 445,-276 536.0238,-276 641.2808,-258.7963 700.4082,-247.54"/>
<polygon fill="#191970" stroke="#191970" points="42.4525,-175.7402 33.2234,-170.537 37.1934,-180.3599 42.4525,-175.7402"/>
</g>
<!-- Node311587 -->
<g id="node7" class="node">
<title>Node311587</title>
<g id="a_node7"><a xlink:href="quickjs_8c.html#ac188b916dd086803591a67de7e7a85f6" target="_top" xlink:title="js_parse_for_in_of">
<polygon fill="none" stroke="#000000" points="397,-38.5 397,-57.5 493,-57.5 493,-38.5 397,-38.5"/>
<text text-anchor="middle" x="445" y="-45.5" font-family="Helvetica,sans-Serif" font-size="10.00" fill="#000000">js_parse_for_in_of</text>
</a>
</g>
</g>
<!-- Node311579&#45;&gt;Node311587 -->
<g id="edge23" class="edge">
<title>Node311579&#45;&gt;Node311587</title>
<path fill="none" stroke="#191970" d="M42.3498,-144.2502C54.0314,-133.4467 70.4149,-119.8169 87,-111 187.8587,-57.3818 325.0587,-48.0898 396.7925,-47.2474"/>
<polygon fill="#191970" stroke="#191970" points="39.8968,-141.7531 35.0691,-151.1841 44.7243,-146.8221 39.8968,-141.7531"/>
</g>
<!-- Node311584 -->
<g id="node9" class="node">
<title>Node311584</title>
<g id="a_node9"><a xlink:href="quickjs_8c.html#a00eb789430243c24dab4a63ad6a79653" target="_top" xlink:title="js_parse_class">
<polygon fill="none" stroke="#ff0000" points="557.5,-152.5 557.5,-171.5 639.5,-171.5 639.5,-152.5 557.5,-152.5"/>
<text text-anchor="middle" x="598.5" y="-159.5" font-family="Helvetica,sans-Serif" font-size="10.00" fill="#000000">js_parse_class</text>
</a>
</g>
</g>
<!-- Node311579&#45;&gt;Node311584 -->
<g id="edge20" class="edge">
<title>Node311579&#45;&gt;Node311584</title>
<path fill="none" stroke="#191970" d="M44.7947,-176.8066C56.2913,-185.1849 71.6065,-194.6279 87,-199 147.9603,-216.314 334.1658,-203.5164 506,-181 523.3932,-178.7209 542.4063,-175.0277 558.6467,-171.5007"/>
<polygon fill="#191970" stroke="#191970" points="46.8814,-173.9963 36.8095,-170.7088 42.633,-179.5597 46.8814,-173.9963"/>
</g>
<!-- Node311608 -->
<g id="node10" class="node">
<title>Node311608</title>
<g id="a_node10"><a xlink:href="quickjs_8c.html#afa1bc2743b3cf892d36544a708453736" target="_top" xlink:title="js_parse_assign_expr2">
<polygon fill="none" stroke="#ff0000" points="232,-76.5 232,-95.5 348,-95.5 348,-76.5 232,-76.5"/>
<text text-anchor="middle" x="290" y="-83.5" font-family="Helvetica,sans-Serif" font-size="10.00" fill="#000000">js_parse_assign_expr2</text>
</a>
</g>
</g>
<!-- Node311579&#45;&gt;Node311608 -->
<g id="edge16" class="edge">
<title>Node311579&#45;&gt;Node311608</title>
<path fill="none" stroke="#191970" d="M60.9814,-150.9391C112.1474,-136.4308 206.0029,-109.8177 256.2091,-95.5815"/>
<polygon fill="#191970" stroke="#191970" points="60.0089,-147.5768 51.343,-153.6721 61.9185,-154.3113 60.0089,-147.5768"/>
</g>
<!-- Node311603 -->
<g id="node11" class="node">
<title>Node311603</title>
<g id="a_node11"><a xlink:href="quickjs_8c.html#a2ecfb6abb190101748202a8aa5821fba" target="_top" xlink:title="js_parse_delete">
<polygon fill="none" stroke="#ff0000" points="99,-.5 99,-19.5 184,-19.5 184,-.5 99,-.5"/>
<text text-anchor="middle" x="141.5" y="-7.5" font-family="Helvetica,sans-Serif" font-size="10.00" fill="#000000">js_parse_delete</text>
</a>
</g>
</g>
<!-- Node311579&#45;&gt;Node311603 -->
<g id="edge21" class="edge">
<title>Node311579&#45;&gt;Node311603</title>
<path fill="none" stroke="#191970" d="M30.3533,-141.438C38.0591,-114.0791 55.5398,-64.3428 87,-34 93.3997,-27.8276 101.6501,-23.0938 109.7856,-19.5286"/>
<polygon fill="#191970" stroke="#191970" points="26.9016,-140.7991 27.7139,-151.3628 33.6665,-142.5982 26.9016,-140.7991"/>
</g>
<!-- Node311594 -->
<g id="node12" class="node">
<title>Node311594</title>
<g id="a_node12"><a xlink:href="quickjs_8c.html#aee6d0acd87f136d43f157ae1426436e6" target="_top" xlink:title="js_parse_object_literal">
<polygon fill="none" stroke="#000000" points="542,-304.5 542,-323.5 655,-323.5 655,-304.5 542,-304.5"/>
<text text-anchor="middle" x="598.5" y="-311.5" font-family="Helvetica,sans-Serif" font-size="10.00" fill="#000000">js_parse_object_literal</text>
</a>
</g>
</g>
<!-- Node311579&#45;&gt;Node311594 -->
<g id="edge24" class="edge">
<title>Node311579&#45;&gt;Node311594</title>
<path fill="none" stroke="#191970" d="M28.4558,-180.5193C34.0609,-209.9539 49.2511,-264.921 87,-290 238.7978,-390.8489 475.4816,-345.572 563.7608,-323.5295"/>
<polygon fill="#191970" stroke="#191970" points="31.8948,-179.8656 26.7498,-170.6039 24.9962,-181.0526 31.8948,-179.8656"/>
</g>
<!-- Node311580&#45;&gt;Node311581 -->
<g id="edge2" class="edge">
<title>Node311580&#45;&gt;Node311581</title>
<path fill="none" stroke="#191970" d="M195.4859,-168.3667C207.4403,-165.7906 220.1536,-163.0511 232.2514,-160.4441"/>
<polygon fill="#191970" stroke="#191970" points="194.6911,-164.9575 185.6528,-170.4856 196.1658,-171.8004 194.6911,-164.9575"/>
</g>
<!-- Node311581&#45;&gt;Node311581 -->
<g id="edge3" class="edge">
<title>Node311581&#45;&gt;Node311581</title>
<path fill="none" stroke="#191970" d="M263.7022,-173.4579C266.9661,-178.179 275.7321,-181.5 290,-181.5 313.4141,-181.5 322.0114,-172.5566 315.7921,-163.159"/>
<polygon fill="#191970" stroke="#191970" points="267.2132,-173.3187 264.2079,-163.159 260.2216,-172.9753 267.2132,-173.3187"/>
</g>
<!-- Node311581&#45;&gt;Node311582 -->
<g id="edge4" class="edge">
<title>Node311581&#45;&gt;Node311582</title>
<path fill="none" stroke="#191970" d="M337.3675,-166.5148C352.1343,-171.7741 368.5905,-177.1196 384,-181 490.8663,-207.9107 618.801,-224.4581 690.7072,-232.3745"/>
<polygon fill="#191970" stroke="#191970" points="338.5297,-163.2133 327.9356,-163.0875 336.1389,-169.7924 338.5297,-163.2133"/>
</g>
<!-- Node311616 -->
<g id="node5" class="node">
<title>Node311616</title>
<g id="a_node5"><a xlink:href="quickjs_8c.html#a9660cf21845352b14655d423389d6620" target="_top" xlink:title="js_parse_var">
<polygon fill="none" stroke="#ff0000" points="409,-76.5 409,-95.5 481,-95.5 481,-76.5 409,-76.5"/>
<text text-anchor="middle" x="445" y="-83.5" font-family="Helvetica,sans-Serif" font-size="10.00" fill="#000000">js_parse_var</text>
</a>
</g>
</g>
<!-- Node311581&#45;&gt;Node311616 -->
<g id="edge6" class="edge">
<title>Node311581&#45;&gt;Node311616</title>
<path fill="none" stroke="#191970" d="M336.6611,-129.037C351.7551,-122.9297 368.576,-116.1517 384,-110 396.0506,-105.1937 409.4652,-99.9088 420.6392,-95.5246"/>
<polygon fill="#191970" stroke="#191970" points="334.9785,-125.9423 327.0237,-132.9403 337.6063,-132.4304 334.9785,-125.9423"/>
</g>
<!-- Node311585 -->
<g id="node6" class="node">
<title>Node311585</title>
<g id="a_node6"><a xlink:href="quickjs_8c.html#a9d844c16dcc71701436848074337d32c" target="_top" xlink:title="js_parse_statement\l_or_decl">
<polygon fill="none" stroke="#ff0000" points="696,-90 696,-120 798,-120 798,-90 696,-90"/>
<text text-anchor="start" x="704" y="-108" font-family="Helvetica,sans-Serif" font-size="10.00" fill="#000000">js_parse_statement</text>
<text text-anchor="middle" x="747" y="-97" font-family="Helvetica,sans-Serif" font-size="10.00" fill="#000000">_or_decl</text>
</a>
</g>
</g>
<!-- Node311581&#45;&gt;Node311585 -->
<g id="edge11" class="edge">
<title>Node311581&#45;&gt;Node311585</title>
<path fill="none" stroke="#191970" d="M357.9564,-141.6058C450.2809,-132.9189 613.2821,-117.5818 695.91,-109.8072"/>
<polygon fill="#191970" stroke="#191970" points="357.5075,-138.1325 347.8794,-142.554 358.1633,-145.1018 357.5075,-138.1325"/>
</g>
<!-- Node311581&#45;&gt;Node311587 -->
<g id="edge9" class="edge">
<title>Node311581&#45;&gt;Node311587</title>
<path fill="none" stroke="#191970" d="M341.8469,-127.6576C343.9968,-126.1956 346.0607,-124.6442 348,-123 370.5688,-103.8662 360.458,-84.9229 384,-67 389.1188,-63.103 395.0493,-59.9965 401.161,-57.5224"/>
<polygon fill="#191970" stroke="#191970" points="339.9696,-124.7024 333.2094,-132.8603 343.5814,-130.6987 339.9696,-124.7024"/>
</g>
<!-- Node311590 -->
<g id="node8" class="node">
<title>Node311590</title>
<g id="a_node8"><a xlink:href="quickjs_8c.html#acc9eb677cab8dfcf45f59381f8a19601" target="_top" xlink:title="js_parse_function_decl2">
<polygon fill="none" stroke="#ff0000" points="384,-152.5 384,-171.5 506,-171.5 506,-152.5 384,-152.5"/>
<text text-anchor="middle" x="445" y="-159.5" font-family="Helvetica,sans-Serif" font-size="10.00" fill="#000000">js_parse_function_decl2</text>
</a>
</g>
</g>
<!-- Node311581&#45;&gt;Node311590 -->
<g id="edge12" class="edge">
<title>Node311581&#45;&gt;Node311590</title>
<path fill="none" stroke="#191970" d="M357.7944,-154.1234C366.4666,-154.9067 375.3036,-155.7048 383.8616,-156.4778"/>
<polygon fill="#191970" stroke="#191970" points="357.9906,-150.6269 347.7163,-153.2131 357.3609,-157.5985 357.9906,-150.6269"/>
</g>
<!-- Node311582&#45;&gt;Node311582 -->
<g id="edge5" class="edge">
<title>Node311582&#45;&gt;Node311582</title>
<path fill="none" stroke="#191970" d="M719.3742,-256.6539C720.5289,-261.9368 729.7375,-266 747,-266 773.3047,-266 780.9084,-256.5653 769.8111,-247.7571"/>
<polygon fill="#191970" stroke="#191970" points="722.5076,-258.2176 724.1889,-247.7571 716.3512,-254.886 722.5076,-258.2176"/>
</g>
<!-- Node311616&#45;&gt;Node311585 -->
<g id="edge7" class="edge">
<title>Node311616&#45;&gt;Node311585</title>
<path fill="none" stroke="#191970" d="M491.3372,-88.9153C546.6107,-92.3927 638.709,-98.187 695.973,-101.7897"/>
<polygon fill="#191970" stroke="#191970" points="491.3284,-85.4079 481.1283,-88.273 490.8888,-92.3941 491.3284,-85.4079"/>
</g>
<!-- Node311585&#45;&gt;Node311585 -->
<g id="edge8" class="edge">
<title>Node311585&#45;&gt;Node311585</title>
<path fill="none" stroke="#191970" d="M720.7022,-130.4579C723.9661,-135.179 732.7321,-138.5 747,-138.5 770.4141,-138.5 779.0114,-129.5566 772.7921,-120.159"/>
<polygon fill="#191970" stroke="#191970" points="724.2132,-130.3187 721.2079,-120.159 717.2216,-129.9753 724.2132,-130.3187"/>
</g>
<!-- Node311587&#45;&gt;Node311585 -->
<g id="edge10" class="edge">
<title>Node311587&#45;&gt;Node311585</title>
<path fill="none" stroke="#191970" d="M503.2835,-59.0005C559.1512,-69.5451 642.6446,-85.3038 695.9573,-95.3661"/>
<polygon fill="#191970" stroke="#191970" points="503.6624,-55.5103 493.1867,-57.0948 502.3641,-62.3889 503.6624,-55.5103"/>
</g>
<!-- Node311590&#45;&gt;Node311584 -->
<g id="edge13" class="edge">
<title>Node311590&#45;&gt;Node311584</title>
<path fill="none" stroke="#191970" d="M516.2981,-162C530.3893,-162 544.7269,-162 557.3979,-162"/>
<polygon fill="#191970" stroke="#191970" points="516.1084,-158.5001 506.1083,-162 516.1083,-165.5001 516.1084,-158.5001"/>
</g>
<!-- Node311584&#45;&gt;Node311582 -->
<g id="edge14" class="edge">
<title>Node311584&#45;&gt;Node311582</title>
<path fill="none" stroke="#191970" d="M632.0522,-175.5158C639.6708,-178.7877 647.6742,-182.3881 655,-186 682.4808,-199.5493 713.2586,-217.5497 731.3373,-228.428"/>
<polygon fill="#191970" stroke="#191970" points="633.2621,-172.2277 622.6877,-171.5708 630.5445,-178.6786 633.2621,-172.2277"/>
</g>
<!-- Node311584&#45;&gt;Node311585 -->
<g id="edge15" class="edge">
<title>Node311584&#45;&gt;Node311585</title>
<path fill="none" stroke="#191970" d="M632.8011,-148.8339C655.1928,-140.2391 684.4868,-128.9949 707.799,-120.0468"/>
<polygon fill="#191970" stroke="#191970" points="631.4372,-145.6084 623.3556,-152.4595 633.9457,-152.1435 631.4372,-145.6084"/>
</g>
<!-- Node311608&#45;&gt;Node311616 -->
<g id="edge18" class="edge">
<title>Node311608&#45;&gt;Node311616</title>
<path fill="none" stroke="#191970" d="M358.261,-86C375.5892,-86 393.5426,-86 408.589,-86"/>
<polygon fill="#191970" stroke="#191970" points="358.1573,-82.5001 348.1573,-86 358.1572,-89.5001 358.1573,-82.5001"/>
</g>
<!-- Node311608&#45;&gt;Node311587 -->
<g id="edge19" class="edge">
<title>Node311608&#45;&gt;Node311587</title>
<path fill="none" stroke="#191970" d="M339.1105,-73.96C360.7647,-68.6512 385.8502,-62.5012 406.1682,-57.5201"/>
<polygon fill="#191970" stroke="#191970" points="337.992,-70.6305 329.113,-76.411 339.6588,-77.4292 337.992,-70.6305"/>
</g>
<!-- Node311608&#45;&gt;Node311608 -->
<g id="edge17" class="edge">
<title>Node311608&#45;&gt;Node311608</title>
<path fill="none" stroke="#191970" d="M262.3742,-104.6539C263.5289,-109.9368 272.7375,-114 290,-114 316.3047,-114 323.9084,-104.5653 312.8111,-95.7571"/>
<polygon fill="#191970" stroke="#191970" points="265.5076,-106.2176 267.1889,-95.7571 259.3512,-102.886 265.5076,-106.2176"/>
</g>
<!-- Node311594&#45;&gt;Node311582 -->
<g id="edge25" class="edge">
<title>Node311594&#45;&gt;Node311582</title>
<path fill="none" stroke="#191970" d="M632.0522,-300.4842C639.6708,-297.2123 647.6742,-293.6119 655,-290 682.4808,-276.4507 713.2586,-258.4503 731.3373,-247.572"/>
<polygon fill="#191970" stroke="#191970" points="630.5445,-297.3214 622.6877,-304.4292 633.2621,-303.7723 630.5445,-297.3214"/>
</g>
</g>
</svg>
