<?xml version="1.0" encoding="UTF-8" standalone="no"?>
<!DOCTYPE svg PUBLIC "-//W3C//DTD SVG 1.1//EN"
 "http://www.w3.org/Graphics/SVG/1.1/DTD/svg11.dtd">
<!-- Generated by graphviz version 2.40.1 (20161225.0304)
 -->
<!-- Title: parse_ident Pages: 1 -->
<svg width="1261pt" height="1381pt"
 viewBox="0.00 0.00 1261.00 1380.77" xmlns="http://www.w3.org/2000/svg" xmlns:xlink="http://www.w3.org/1999/xlink">
<g id="graph0" class="graph" transform="scale(1 1) rotate(0) translate(4 1376.7729)">
<title>parse_ident</title>
<!-- Node311157 -->
<g id="node1" class="node">
<title>Node311157</title>
<polygon fill="#bfbfbf" stroke="#000000" points="0,-763.9133 0,-782.9133 67,-782.9133 67,-763.9133 0,-763.9133"/>
<text text-anchor="middle" x="33.5" y="-770.9133" font-family="Helvetica,sans-Serif" font-size="10.00" fill="#000000">parse_ident</text>
</g>
<!-- Node311158 -->
<g id="node2" class="node">
<title>Node311158</title>
<g id="a_node2"><a xlink:href="quickjs_8c.html#a75a3798e2045f6e403c1ef467126d1fb" target="_top" xlink:title="next_token">
<polygon fill="none" stroke="#ff0000" points="103,-763.9133 103,-782.9133 168,-782.9133 168,-763.9133 103,-763.9133"/>
<text text-anchor="middle" x="135.5" y="-770.9133" font-family="Helvetica,sans-Serif" font-size="10.00" fill="#000000">next_token</text>
</a>
</g>
</g>
<!-- Node311157&#45;&gt;Node311158 -->
<g id="edge1" class="edge">
<title>Node311157&#45;&gt;Node311158</title>
<path fill="none" stroke="#191970" d="M77.4121,-773.4133C85.9642,-773.4133 94.7874,-773.4133 102.8946,-773.4133"/>
<polygon fill="#191970" stroke="#191970" points="77.1813,-769.9134 67.1813,-773.4133 77.1813,-776.9134 77.1813,-769.9134"/>
</g>
<!-- Node311159 -->
<g id="node3" class="node">
<title>Node311159</title>
<g id="a_node3"><a xlink:href="quickjs_8c.html#a08f5927b79691c477c726fc5d309cfef" target="_top" xlink:title="is_let">
<polygon fill="none" stroke="#ff0000" points="415.5,-744.9133 415.5,-763.9133 455.5,-763.9133 455.5,-744.9133 415.5,-744.9133"/>
<text text-anchor="middle" x="435.5" y="-751.9133" font-family="Helvetica,sans-Serif" font-size="10.00" fill="#000000">is_let</text>
</a>
</g>
</g>
<!-- Node311158&#45;&gt;Node311159 -->
<g id="edge2" class="edge">
<title>Node311158&#45;&gt;Node311159</title>
<path fill="none" stroke="#191970" d="M156.8842,-757.832C169.8219,-749.3861 187.0489,-739.8002 204,-735.4133 280.1279,-715.7118 374.5996,-737.0484 415.2989,-748.3352"/>
<polygon fill="#191970" stroke="#191970" points="154.5802,-755.1666 148.2868,-763.6898 158.5217,-760.9515 154.5802,-755.1666"/>
</g>
<!-- Node311160 -->
<g id="node4" class="node">
<title>Node311160</title>
<g id="a_node4"><a xlink:href="quickjs_8c.html#ac188b916dd086803591a67de7e7a85f6" target="_top" xlink:title="js_parse_for_in_of">
<polygon fill="none" stroke="#ff0000" points="704,-651.9133 704,-670.9133 800,-670.9133 800,-651.9133 704,-651.9133"/>
<text text-anchor="middle" x="752" y="-658.9133" font-family="Helvetica,sans-Serif" font-size="10.00" fill="#000000">js_parse_for_in_of</text>
</a>
</g>
</g>
<!-- Node311158&#45;&gt;Node311160 -->
<g id="edge65" class="edge">
<title>Node311158&#45;&gt;Node311160</title>
<path fill="none" stroke="#191970" d="M141.5584,-792.6782C150.6413,-817.9742 170.4081,-861.5008 204,-881.4133 290.221,-932.5231 572.1911,-943.8841 655,-887.4133 731.9011,-834.9713 748.1704,-707.9587 751.3059,-671.4073"/>
<polygon fill="#191970" stroke="#191970" points="144.83,-791.4268 138.3107,-783.0752 138.199,-793.6694 144.83,-791.4268"/>
</g>
<!-- Node311182 -->
<g id="node5" class="node">
<title>Node311182</title>
<g id="a_node5"><a xlink:href="quickjs_8c.html#a253917187cfb6b3db09d355b31edb3d5" target="_top" xlink:title="js_parse_array_literal">
<polygon fill="none" stroke="#000000" points="381,-200.9133 381,-219.9133 490,-219.9133 490,-200.9133 381,-200.9133"/>
<text text-anchor="middle" x="435.5" y="-207.9133" font-family="Helvetica,sans-Serif" font-size="10.00" fill="#000000">js_parse_array_literal</text>
</a>
</g>
</g>
<!-- Node311158&#45;&gt;Node311182 -->
<g id="edge4" class="edge">
<title>Node311158&#45;&gt;Node311182</title>
<path fill="none" stroke="#191970" d="M136.8545,-753.4831C143.1164,-663.9161 170.39,-301.3926 204,-264.4133 248.4124,-215.5487 327.739,-206.6711 380.9884,-206.8845"/>
<polygon fill="#191970" stroke="#191970" points="133.3506,-753.42 136.1534,-763.6373 140.334,-753.9022 133.3506,-753.42"/>
</g>
<!-- Node311168 -->
<g id="node6" class="node">
<title>Node311168</title>
<g id="a_node6"><a xlink:href="quickjs_8c.html#a840642c87c5a82d4cc68333376a3b6de" target="_top" xlink:title="js_parse_postfix_expr">
<polygon fill="none" stroke="#ff0000" points="1141,-296.9133 1141,-315.9133 1253,-315.9133 1253,-296.9133 1141,-296.9133"/>
<text text-anchor="middle" x="1197" y="-303.9133" font-family="Helvetica,sans-Serif" font-size="10.00" fill="#000000">js_parse_postfix_expr</text>
</a>
</g>
</g>
<!-- Node311158&#45;&gt;Node311168 -->
<g id="edge73" class="edge">
<title>Node311158&#45;&gt;Node311168</title>
<path fill="none" stroke="#191970" d="M135.8497,-753.5818C138.0218,-641.352 151.3474,-89.049 204,-37.4133 277.6571,34.8213 332.3341,-20.4133 435.5,-20.4133 435.5,-20.4133 435.5,-20.4133 918,-20.4133 1076.1536,-20.4133 1173.9025,-247.2722 1193.3931,-296.8976"/>
<polygon fill="#191970" stroke="#191970" points="132.3463,-753.7386 135.6598,-763.8019 139.3451,-753.8687 132.3463,-753.7386"/>
</g>
<!-- Node311179 -->
<g id="node7" class="node">
<title>Node311179</title>
<g id="a_node7"><a xlink:href="quickjs_8c.html#afa1bc2743b3cf892d36544a708453736" target="_top" xlink:title="js_parse_assign_expr2">
<polygon fill="none" stroke="#ff0000" points="536,-1129.9133 536,-1148.9133 652,-1148.9133 652,-1129.9133 536,-1129.9133"/>
<text text-anchor="middle" x="594" y="-1136.9133" font-family="Helvetica,sans-Serif" font-size="10.00" fill="#000000">js_parse_assign_expr2</text>
</a>
</g>
</g>
<!-- Node311158&#45;&gt;Node311179 -->
<g id="edge7" class="edge">
<title>Node311158&#45;&gt;Node311179</title>
<path fill="none" stroke="#191970" d="M136.4981,-793.233C140.2467,-858.9573 155.8241,-1067.9682 204,-1110.4133 251.8232,-1152.5477 439.2701,-1148.4778 535.8182,-1143.313"/>
<polygon fill="#191970" stroke="#191970" points="139.9804,-792.8079 135.9463,-783.0111 132.9905,-793.1853 139.9804,-792.8079"/>
</g>
<!-- Node311178 -->
<g id="node8" class="node">
<title>Node311178</title>
<g id="a_node8"><a xlink:href="quickjs_8c.html#a6686f5baeecd532b043761b6c24ed431" target="_top" xlink:title="js_parse_cond_expr">
<polygon fill="none" stroke="#000000" points="700,-1129.9133 700,-1148.9133 804,-1148.9133 804,-1129.9133 700,-1129.9133"/>
<text text-anchor="middle" x="752" y="-1136.9133" font-family="Helvetica,sans-Serif" font-size="10.00" fill="#000000">js_parse_cond_expr</text>
</a>
</g>
</g>
<!-- Node311158&#45;&gt;Node311178 -->
<g id="edge21" class="edge">
<title>Node311158&#45;&gt;Node311178</title>
<path fill="none" stroke="#191970" d="M136.6427,-793.3738C142.0199,-883.8247 166.139,-1252.2803 204,-1285.4133 280.2237,-1352.1183 565.7382,-1267.2876 655,-1219.4133 691.3573,-1199.9136 726.9015,-1165.6017 743.0163,-1148.9772"/>
<polygon fill="#191970" stroke="#191970" points="140.134,-793.1202 136.056,-783.3417 133.1459,-793.529 140.134,-793.1202"/>
</g>
<!-- Node311183 -->
<g id="node9" class="node">
<title>Node311183</title>
<g id="a_node9"><a xlink:href="quickjs_8c.html#a9fc8ae779f77a7886fc7cfa48cc487fb" target="_top" xlink:title="js_parse_expr2">
<polygon fill="none" stroke="#ff0000" points="710.5,-1249.9133 710.5,-1268.9133 793.5,-1268.9133 793.5,-1249.9133 710.5,-1249.9133"/>
<text text-anchor="middle" x="752" y="-1256.9133" font-family="Helvetica,sans-Serif" font-size="10.00" fill="#000000">js_parse_expr2</text>
</a>
</g>
</g>
<!-- Node311158&#45;&gt;Node311183 -->
<g id="edge58" class="edge">
<title>Node311158&#45;&gt;Node311183</title>
<path fill="none" stroke="#191970" d="M136.4951,-793.2173C141.3699,-886.3012 164.122,-1277.2826 204,-1312.4133 363.7592,-1453.1541 660.3929,-1308.8464 734.7531,-1268.986"/>
<polygon fill="#191970" stroke="#191970" points="139.9766,-792.7668 135.9677,-782.9597 132.9859,-793.1262 139.9766,-792.7668"/>
</g>
<!-- Node311163 -->
<g id="node10" class="node">
<title>Node311163</title>
<g id="a_node10"><a xlink:href="quickjs_8c.html#acc0cac53be5317d9cab6a79afcd7da48" target="_top" xlink:title="js_parse_block">
<polygon fill="none" stroke="#ff0000" points="394.5,-706.9133 394.5,-725.9133 476.5,-725.9133 476.5,-706.9133 394.5,-706.9133"/>
<text text-anchor="middle" x="435.5" y="-713.9133" font-family="Helvetica,sans-Serif" font-size="10.00" fill="#000000">js_parse_block</text>
</a>
</g>
</g>
<!-- Node311158&#45;&gt;Node311163 -->
<g id="edge13" class="edge">
<title>Node311158&#45;&gt;Node311163</title>
<path fill="none" stroke="#191970" d="M152.1879,-756.7146C165.1149,-744.9894 184.1211,-730.2307 204,-723.4133 267.7083,-701.5646 347.1545,-705.3103 394.4702,-710.5112"/>
<polygon fill="#191970" stroke="#191970" points="149.4844,-754.4541 144.6229,-763.8678 154.2937,-759.5404 149.4844,-754.4541"/>
</g>
<!-- Node311167 -->
<g id="node11" class="node">
<title>Node311167</title>
<g id="a_node11"><a xlink:href="quickjs_8c.html#a00eb789430243c24dab4a63ad6a79653" target="_top" xlink:title="js_parse_class">
<polygon fill="none" stroke="#ff0000" points="1023,-391.9133 1023,-410.9133 1105,-410.9133 1105,-391.9133 1023,-391.9133"/>
<text text-anchor="middle" x="1064" y="-398.9133" font-family="Helvetica,sans-Serif" font-size="10.00" fill="#000000">js_parse_class</text>
</a>
</g>
</g>
<!-- Node311158&#45;&gt;Node311167 -->
<g id="edge14" class="edge">
<title>Node311158&#45;&gt;Node311167</title>
<path fill="none" stroke="#191970" d="M135.8994,-753.5125C138.2897,-644.353 152.3914,-121.489 204,-74.4133 278.0915,-6.8294 561.2346,-54.8439 655,-90.4133 842.2419,-161.4426 1015.6192,-347.0667 1055.4513,-391.6722"/>
<polygon fill="#191970" stroke="#191970" points="132.3951,-753.6825 135.6835,-763.7541 139.3935,-753.8301 132.3951,-753.6825"/>
</g>
<!-- Node311172 -->
<g id="node12" class="node">
<title>Node311172</title>
<g id="a_node12"><a xlink:href="quickjs_8c.html#a498e1d5c7de1b59c1630e9847cde1e41" target="_top" xlink:title="js_parse_export">
<polygon fill="none" stroke="#ff0000" points="1154,-786.9133 1154,-805.9133 1240,-805.9133 1240,-786.9133 1154,-786.9133"/>
<text text-anchor="middle" x="1197" y="-793.9133" font-family="Helvetica,sans-Serif" font-size="10.00" fill="#000000">js_parse_export</text>
</a>
</g>
</g>
<!-- Node311158&#45;&gt;Node311172 -->
<g id="edge57" class="edge">
<title>Node311158&#45;&gt;Node311172</title>
<path fill="none" stroke="#191970" d="M137.9379,-793.0266C145.2112,-848.4136 168.4806,-1004.2693 204,-1039.4133 279.3233,-1113.9405 329.5382,-1096.4133 435.5,-1096.4133 435.5,-1096.4133 435.5,-1096.4133 918,-1096.4133 1011.4232,-1096.4133 1043.1666,-1070.4457 1105,-1000.4133 1160.029,-938.0875 1187.3452,-837.4092 1194.8271,-806.0517"/>
<polygon fill="#191970" stroke="#191970" points="141.4063,-792.5562 136.6637,-783.0821 134.4631,-793.4459 141.4063,-792.5562"/>
</g>
<!-- Node311166 -->
<g id="node13" class="node">
<title>Node311166</title>
<g id="a_node13"><a xlink:href="quickjs_8c.html#adf95ddf430ef93fd9efea1cc2f8a2fbe" target="_top" xlink:title="js_parse_class_default_ctor">
<polygon fill="none" stroke="#000000" points="849,-410.9133 849,-429.9133 987,-429.9133 987,-410.9133 849,-410.9133"/>
<text text-anchor="middle" x="918" y="-417.9133" font-family="Helvetica,sans-Serif" font-size="10.00" fill="#000000">js_parse_class_default_ctor</text>
</a>
</g>
</g>
<!-- Node311158&#45;&gt;Node311166 -->
<g id="edge17" class="edge">
<title>Node311158&#45;&gt;Node311166</title>
<path fill="none" stroke="#191970" d="M136.0168,-753.699C138.9648,-648.8042 155.2775,-159.3269 204,-115.4133 278.5518,-48.2197 575.7415,-77.842 655,-139.4133 687.3989,-164.5821 666.8432,-191.253 691,-224.4133 754.1554,-311.1074 862.6576,-385.1925 902.632,-410.8249"/>
<polygon fill="#191970" stroke="#191970" points="132.5145,-753.7389 135.7406,-763.8306 139.5119,-753.9297 132.5145,-753.7389"/>
</g>
<!-- Node311177 -->
<g id="node14" class="node">
<title>Node311177</title>
<g id="a_node14"><a xlink:href="quickjs_8c.html#a93b69939f7af67646a177249bf2deb4d" target="_top" xlink:title="js_parse_coalesce_expr">
<polygon fill="none" stroke="#000000" points="533,-1190.9133 533,-1209.9133 655,-1209.9133 655,-1190.9133 533,-1190.9133"/>
<text text-anchor="middle" x="594" y="-1197.9133" font-family="Helvetica,sans-Serif" font-size="10.00" fill="#000000">js_parse_coalesce_expr</text>
</a>
</g>
</g>
<!-- Node311158&#45;&gt;Node311177 -->
<g id="edge19" class="edge">
<title>Node311158&#45;&gt;Node311177</title>
<path fill="none" stroke="#191970" d="M136.2777,-793.5237C139.4025,-863.1761 153.4264,-1092.5253 204,-1141.4133 215.7242,-1152.7467 425.9601,-1179.8838 532.7743,-1193.0284"/>
<polygon fill="#191970" stroke="#191970" points="139.7567,-792.9487 135.8399,-783.1045 132.7629,-793.2427 139.7567,-792.9487"/>
</g>
<!-- Node311174 -->
<g id="node15" class="node">
<title>Node311174</title>
<g id="a_node15"><a xlink:href="quickjs_8c.html#a2ecfb6abb190101748202a8aa5821fba" target="_top" xlink:title="js_parse_delete">
<polygon fill="none" stroke="#ff0000" points="228.5,-820.9133 228.5,-839.9133 313.5,-839.9133 313.5,-820.9133 228.5,-820.9133"/>
<text text-anchor="middle" x="271" y="-827.9133" font-family="Helvetica,sans-Serif" font-size="10.00" fill="#000000">js_parse_delete</text>
</a>
</g>
</g>
<!-- Node311158&#45;&gt;Node311174 -->
<g id="edge22" class="edge">
<title>Node311158&#45;&gt;Node311174</title>
<path fill="none" stroke="#191970" d="M163.4391,-787.6932C175.7425,-793.7673 190.4526,-800.7421 204,-806.4133 216.4231,-811.6139 230.4136,-816.7368 242.3845,-820.9054"/>
<polygon fill="#191970" stroke="#191970" points="164.6664,-784.394 154.1562,-783.0571 161.5388,-790.6564 164.6664,-784.394"/>
</g>
<!-- Node311170 -->
<g id="node16" class="node">
<title>Node311170</title>
<g id="a_node16"><a xlink:href="quickjs_8c.html#a26be546cf89c4580ba9020e8fc43a759" target="_top" xlink:title="js_parse_destructuring\l_element">
<polygon fill="none" stroke="#ff0000" points="536.5,-297.4133 536.5,-327.4133 651.5,-327.4133 651.5,-297.4133 536.5,-297.4133"/>
<text text-anchor="start" x="544.5" y="-315.4133" font-family="Helvetica,sans-Serif" font-size="10.00" fill="#000000">js_parse_destructuring</text>
<text text-anchor="middle" x="594" y="-304.4133" font-family="Helvetica,sans-Serif" font-size="10.00" fill="#000000">_element</text>
</a>
</g>
</g>
<!-- Node311158&#45;&gt;Node311170 -->
<g id="edge23" class="edge">
<title>Node311158&#45;&gt;Node311170</title>
<path fill="none" stroke="#191970" d="M137.6788,-753.4596C144.6772,-692.4478 168.2351,-509.7223 204,-463.4133 245.939,-409.11 438.5255,-352.685 536.4599,-326.8696"/>
<polygon fill="#191970" stroke="#191970" points="134.1701,-753.3424 136.5332,-763.6703 141.1264,-754.1229 134.1701,-753.3424"/>
</g>
<!-- Node311165 -->
<g id="node17" class="node">
<title>Node311165</title>
<g id="a_node17"><a xlink:href="quickjs_8c.html#acc9eb677cab8dfcf45f59381f8a19601" target="_top" xlink:title="js_parse_function_decl2">
<polygon fill="none" stroke="#ff0000" points="691,-410.9133 691,-429.9133 813,-429.9133 813,-410.9133 691,-410.9133"/>
<text text-anchor="middle" x="752" y="-417.9133" font-family="Helvetica,sans-Serif" font-size="10.00" fill="#000000">js_parse_function_decl2</text>
</a>
</g>
</g>
<!-- Node311158&#45;&gt;Node311165 -->
<g id="edge69" class="edge">
<title>Node311158&#45;&gt;Node311165</title>
<path fill="none" stroke="#191970" d="M136.139,-753.866C139.6356,-652.9068 158.004,-193.6146 204,-152.4133 279.0911,-85.1497 587.8309,-126.2377 655,-201.4133 713.7201,-267.1329 634.9517,-328.4008 691,-396.4133 696.2111,-402.7367 703.3161,-407.4016 710.8375,-410.8408"/>
<polygon fill="#191970" stroke="#191970" points="132.6399,-753.7852 135.8003,-763.8976 139.6359,-754.0215 132.6399,-753.7852"/>
</g>
<!-- Node311196 -->
<g id="node18" class="node">
<title>Node311196</title>
<g id="a_node18"><a xlink:href="quickjs_8c.html#ab10609a91c359ea5d3051f7bb646af83" target="_top" xlink:title="js_parse_destructuring_var">
<polygon fill="none" stroke="#000000" points="204,-314.9133 204,-333.9133 338,-333.9133 338,-314.9133 204,-314.9133"/>
<text text-anchor="middle" x="271" y="-321.9133" font-family="Helvetica,sans-Serif" font-size="10.00" fill="#000000">js_parse_destructuring_var</text>
</a>
</g>
</g>
<!-- Node311158&#45;&gt;Node311196 -->
<g id="edge31" class="edge">
<title>Node311158&#45;&gt;Node311196</title>
<path fill="none" stroke="#191970" d="M136.0927,-753.5436C138.7226,-678.2306 151.6403,-411.4272 204,-348.4133 209.2906,-342.0462 216.4012,-337.3679 224.0167,-333.9307"/>
<polygon fill="#191970" stroke="#191970" points="132.5934,-753.4658 135.765,-763.5748 139.5897,-753.6944 132.5934,-753.4658"/>
</g>
<!-- Node311197 -->
<g id="node19" class="node">
<title>Node311197</title>
<g id="a_node19"><a xlink:href="quickjs_8c.html#a64f81788f15df1683a1f8c3919cfd6fd" target="_top" xlink:title="js_parse_directives">
<polygon fill="none" stroke="#000000" points="385,-820.9133 385,-839.9133 486,-839.9133 486,-820.9133 385,-820.9133"/>
<text text-anchor="middle" x="435.5" y="-827.9133" font-family="Helvetica,sans-Serif" font-size="10.00" fill="#000000">js_parse_directives</text>
</a>
</g>
</g>
<!-- Node311158&#45;&gt;Node311197 -->
<g id="edge33" class="edge">
<title>Node311158&#45;&gt;Node311197</title>
<path fill="none" stroke="#191970" d="M178.0416,-781.3074C219.0292,-788.9342 282.778,-800.8515 338,-811.4133 353.9222,-814.4586 371.2971,-817.8292 386.9112,-820.8756"/>
<polygon fill="#191970" stroke="#191970" points="178.6019,-777.8517 168.1305,-779.4643 177.322,-784.7337 178.6019,-777.8517"/>
</g>
<!-- Node311189 -->
<g id="node20" class="node">
<title>Node311189</title>
<g id="a_node20"><a xlink:href="quickjs_8c.html#aec05caae64451720670d1a56040110b3" target="_top" xlink:title="js_parse_program">
<polygon fill="none" stroke="#ff0000" points="547,-858.9133 547,-877.9133 641,-877.9133 641,-858.9133 547,-858.9133"/>
<text text-anchor="middle" x="594" y="-865.9133" font-family="Helvetica,sans-Serif" font-size="10.00" fill="#000000">js_parse_program</text>
</a>
</g>
</g>
<!-- Node311158&#45;&gt;Node311189 -->
<g id="edge74" class="edge">
<title>Node311158&#45;&gt;Node311189</title>
<path fill="none" stroke="#191970" d="M145.9521,-791.7087C157.5278,-809.9893 178.034,-837.0948 204,-849.4133 317.305,-903.1664 470.5194,-889.1519 546.7901,-877.2435"/>
<polygon fill="#191970" stroke="#191970" points="148.9021,-789.8231 140.7312,-783.0786 142.9128,-793.4465 148.9021,-789.8231"/>
</g>
<!-- Node311198 -->
<g id="node21" class="node">
<title>Node311198</title>
<g id="a_node21"><a xlink:href="quickjs_8c.html#aeca8ed71e1eef8ec809afab744958c28" target="_top" xlink:title="js_parse_expect">
<polygon fill="none" stroke="#ff0000" points="227,-554.9133 227,-573.9133 315,-573.9133 315,-554.9133 227,-554.9133"/>
<text text-anchor="middle" x="271" y="-561.9133" font-family="Helvetica,sans-Serif" font-size="10.00" fill="#000000">js_parse_expect</text>
</a>
</g>
</g>
<!-- Node311158&#45;&gt;Node311198 -->
<g id="edge36" class="edge">
<title>Node311158&#45;&gt;Node311198</title>
<path fill="none" stroke="#191970" d="M146.7338,-755.1781C160.1727,-733.4477 183.4375,-696.0955 204,-664.4133 225.7299,-630.9324 252.3307,-591.7457 264.438,-574.0046"/>
<polygon fill="#191970" stroke="#191970" points="143.7292,-753.3823 141.4537,-763.7299 149.6854,-757.0598 143.7292,-753.3823"/>
</g>
<!-- Node311199 -->
<g id="node22" class="node">
<title>Node311199</title>
<g id="a_node22"><a xlink:href="quickjs_8c.html#aa24f7964f6d938a05c3c3c03af5a01e9" target="_top" xlink:title="js_parse_import">
<polygon fill="none" stroke="#ff0000" points="392.5,-1010.9133 392.5,-1029.9133 478.5,-1029.9133 478.5,-1010.9133 392.5,-1010.9133"/>
<text text-anchor="middle" x="435.5" y="-1017.9133" font-family="Helvetica,sans-Serif" font-size="10.00" fill="#000000">js_parse_import</text>
</a>
</g>
</g>
<!-- Node311158&#45;&gt;Node311199 -->
<g id="edge70" class="edge">
<title>Node311158&#45;&gt;Node311199</title>
<path fill="none" stroke="#191970" d="M136.7158,-793.476C140.1854,-832.3063 153.4666,-917.9075 204,-963.4133 218.0142,-976.0332 329.4038,-999.5734 392.4203,-1012.0892"/>
<polygon fill="#191970" stroke="#191970" points="140.1694,-792.7298 135.9237,-783.0229 133.1894,-793.2588 140.1694,-792.7298"/>
</g>
<!-- Node311181 -->
<g id="node23" class="node">
<title>Node311181</title>
<g id="a_node23"><a xlink:href="quickjs_8c.html#aee6d0acd87f136d43f157ae1426436e6" target="_top" xlink:title="js_parse_object_literal">
<polygon fill="none" stroke="#000000" points="537.5,-210.9133 537.5,-229.9133 650.5,-229.9133 650.5,-210.9133 537.5,-210.9133"/>
<text text-anchor="middle" x="594" y="-217.9133" font-family="Helvetica,sans-Serif" font-size="10.00" fill="#000000">js_parse_object_literal</text>
</a>
</g>
</g>
<!-- Node311158&#45;&gt;Node311181 -->
<g id="edge72" class="edge">
<title>Node311158&#45;&gt;Node311181</title>
<path fill="none" stroke="#191970" d="M136.4175,-753.8268C141.0795,-658.3111 163.5202,-244.3891 204,-205.4133 307.9665,-105.3094 508.9139,-182.1688 573.4864,-210.813"/>
<polygon fill="#191970" stroke="#191970" points="132.9199,-753.6939 135.937,-763.85 139.9119,-754.0291 132.9199,-753.6939"/>
</g>
<!-- Node311186 -->
<g id="node24" class="node">
<title>Node311186</title>
<g id="a_node24"><a xlink:href="quickjs_8c.html#a42234753f3193f37ce45b3c0ca4c25cd" target="_top" xlink:title="js_parse_property_name">
<polygon fill="none" stroke="#000000" points="374,-276.9133 374,-295.9133 497,-295.9133 497,-276.9133 374,-276.9133"/>
<text text-anchor="middle" x="435.5" y="-283.9133" font-family="Helvetica,sans-Serif" font-size="10.00" fill="#000000">js_parse_property_name</text>
</a>
</g>
</g>
<!-- Node311158&#45;&gt;Node311186 -->
<g id="edge75" class="edge">
<title>Node311158&#45;&gt;Node311186</title>
<path fill="none" stroke="#191970" d="M136.9781,-753.3754C143.4741,-667.8987 170.6544,-336.7077 204,-305.4133 256.1938,-256.4302 347.3024,-266.2387 398.27,-276.8599"/>
<polygon fill="#191970" stroke="#191970" points="133.4726,-753.318 136.2148,-763.5518 140.453,-753.8416 133.4726,-753.318"/>
</g>
<!-- Node311200 -->
<g id="node25" class="node">
<title>Node311200</title>
<g id="a_node25"><a xlink:href="quickjs_8c.html#a02cbd69384985a4e904190810cf45641" target="_top" xlink:title="js_parse_expect_semi">
<polygon fill="none" stroke="#ff0000" points="214,-934.9133 214,-953.9133 328,-953.9133 328,-934.9133 214,-934.9133"/>
<text text-anchor="middle" x="271" y="-941.9133" font-family="Helvetica,sans-Serif" font-size="10.00" fill="#000000">js_parse_expect_semi</text>
</a>
</g>
</g>
<!-- Node311158&#45;&gt;Node311200 -->
<g id="edge53" class="edge">
<title>Node311158&#45;&gt;Node311200</title>
<path fill="none" stroke="#191970" d="M139.5799,-793.2892C147.0075,-824.6003 165.6451,-885.4376 204,-920.4133 210.9386,-926.7406 219.6624,-931.4263 228.5,-934.8874"/>
<polygon fill="#191970" stroke="#191970" points="142.9219,-792.194 137.3348,-783.192 136.0888,-793.7133 142.9219,-792.194"/>
</g>
<!-- Node311175 -->
<g id="node26" class="node">
<title>Node311175</title>
<g id="a_node26"><a xlink:href="quickjs_8c.html#ad70b14684de2ed3babfd7c2264249437" target="_top" xlink:title="js_parse_expr_binary">
<polygon fill="none" stroke="#000000" points="216.5,-1238.9133 216.5,-1257.9133 325.5,-1257.9133 325.5,-1238.9133 216.5,-1238.9133"/>
<text text-anchor="middle" x="271" y="-1245.9133" font-family="Helvetica,sans-Serif" font-size="10.00" fill="#000000">js_parse_expr_binary</text>
</a>
</g>
</g>
<!-- Node311158&#45;&gt;Node311175 -->
<g id="edge59" class="edge">
<title>Node311158&#45;&gt;Node311175</title>
<path fill="none" stroke="#191970" d="M135.8928,-793.4607C137.8188,-871.9144 148.5799,-1157.0976 204,-1224.4133 209.1831,-1230.709 216.147,-1235.3536 223.6289,-1238.7802"/>
<polygon fill="#191970" stroke="#191970" points="139.3832,-792.9898 135.6611,-783.0703 132.385,-793.1458 139.3832,-792.9898"/>
</g>
<!-- Node311176 -->
<g id="node27" class="node">
<title>Node311176</title>
<g id="a_node27"><a xlink:href="quickjs_8c.html#aae2d76e4aa080c7737119ef079a9b97d" target="_top" xlink:title="js_parse_logical_and_or">
<polygon fill="none" stroke="#000000" points="375,-1200.9133 375,-1219.9133 496,-1219.9133 496,-1200.9133 375,-1200.9133"/>
<text text-anchor="middle" x="435.5" y="-1207.9133" font-family="Helvetica,sans-Serif" font-size="10.00" fill="#000000">js_parse_logical_and_or</text>
</a>
</g>
</g>
<!-- Node311158&#45;&gt;Node311176 -->
<g id="edge71" class="edge">
<title>Node311158&#45;&gt;Node311176</title>
<path fill="none" stroke="#191970" d="M135.7503,-793.5952C137.1305,-868.8991 146.0871,-1131.9329 204,-1186.4133 254.179,-1233.6182 340.206,-1228.5905 392.0721,-1219.9667"/>
<polygon fill="#191970" stroke="#191970" points="139.2435,-793.1259 135.5875,-783.1819 132.2444,-793.2354 139.2435,-793.1259"/>
</g>
<!-- Node311201 -->
<g id="node28" class="node">
<title>Node311201</title>
<g id="a_node28"><a xlink:href="quickjs_8c.html#a736435f0774c85e09f2817c97ec47bbf" target="_top" xlink:title="js_parse_from_clause">
<polygon fill="none" stroke="#000000" points="215,-1010.9133 215,-1029.9133 327,-1029.9133 327,-1010.9133 215,-1010.9133"/>
<text text-anchor="middle" x="271" y="-1017.9133" font-family="Helvetica,sans-Serif" font-size="10.00" fill="#000000">js_parse_from_clause</text>
</a>
</g>
</g>
<!-- Node311158&#45;&gt;Node311201 -->
<g id="edge66" class="edge">
<title>Node311158&#45;&gt;Node311201</title>
<path fill="none" stroke="#191970" d="M139.1548,-792.8431C148.6426,-841.4173 175.3237,-966.3883 204,-996.4133 210.059,-1002.7573 217.9108,-1007.4284 226.0948,-1010.8666"/>
<polygon fill="#191970" stroke="#191970" points="142.5808,-792.1242 137.2578,-782.9637 135.7064,-793.4443 142.5808,-792.1242"/>
</g>
<!-- Node311202 -->
<g id="node29" class="node">
<title>Node311202</title>
<g id="a_node29"><a xlink:href="quickjs_8c.html#aba7eb7aae2eb61bfccb4565ee626cd18" target="_top" xlink:title="js_parse_seek_token">
<polygon fill="none" stroke="#000000" points="216.5,-744.9133 216.5,-763.9133 325.5,-763.9133 325.5,-744.9133 216.5,-744.9133"/>
<text text-anchor="middle" x="271" y="-751.9133" font-family="Helvetica,sans-Serif" font-size="10.00" fill="#000000">js_parse_seek_token</text>
</a>
</g>
</g>
<!-- Node311158&#45;&gt;Node311202 -->
<g id="edge76" class="edge">
<title>Node311158&#45;&gt;Node311202</title>
<path fill="none" stroke="#191970" d="M178.4976,-767.3841C190.5054,-765.7004 203.716,-763.848 216.3019,-762.0831"/>
<polygon fill="#191970" stroke="#191970" points="177.7178,-763.9591 168.3008,-768.8139 178.6899,-770.8913 177.7178,-763.9591"/>
</g>
<!-- Node311203 -->
<g id="node30" class="node">
<title>Node311203</title>
<g id="a_node30"><a xlink:href="quickjs_8c.html#ac00298085baf11a4a7bd600cf5de2e6d" target="_top" xlink:title="js_parse_skip_parens\l_token">
<polygon fill="none" stroke="#ff0000" points="380,-429.4133 380,-459.4133 491,-459.4133 491,-429.4133 380,-429.4133"/>
<text text-anchor="start" x="388" y="-447.4133" font-family="Helvetica,sans-Serif" font-size="10.00" fill="#000000">js_parse_skip_parens</text>
<text text-anchor="middle" x="435.5" y="-436.4133" font-family="Helvetica,sans-Serif" font-size="10.00" fill="#000000">_token</text>
</a>
</g>
</g>
<!-- Node311158&#45;&gt;Node311203 -->
<g id="edge85" class="edge">
<title>Node311158&#45;&gt;Node311203</title>
<path fill="none" stroke="#191970" d="M139.2213,-753.6666C148.8652,-704.2821 175.8825,-577.1098 204,-545.4133 249.9763,-493.5847 327.3837,-467.259 379.9111,-454.6987"/>
<polygon fill="#191970" stroke="#191970" points="135.7415,-753.2283 137.2916,-763.7092 142.6158,-754.5493 135.7415,-753.2283"/>
</g>
<!-- Node311159&#45;&gt;Node311160 -->
<g id="edge3" class="edge">
<title>Node311159&#45;&gt;Node311160</title>
<path fill="none" stroke="#191970" d="M465.7196,-745.5336C525.4571,-727.9804 658.1781,-688.9818 719.6255,-670.9262"/>
<polygon fill="#191970" stroke="#191970" points="464.3876,-742.277 455.78,-748.4543 466.3611,-748.993 464.3876,-742.277"/>
</g>
<!-- Node311182&#45;&gt;Node311168 -->
<g id="edge5" class="edge">
<title>Node311182&#45;&gt;Node311168</title>
<path fill="none" stroke="#191970" d="M468.3887,-197.0807C525.2193,-175.2823 645.9148,-134.4133 752,-134.4133 752,-134.4133 752,-134.4133 918,-134.4133 1042.6161,-134.4133 1158.2015,-260.2875 1189.0098,-296.673"/>
<polygon fill="#191970" stroke="#191970" points="466.9104,-193.9002 458.8599,-200.7878 469.4484,-200.4239 466.9104,-193.9002"/>
</g>
<!-- Node311168&#45;&gt;Node311168 -->
<g id="edge6" class="edge">
<title>Node311168&#45;&gt;Node311168</title>
<path fill="none" stroke="#191970" d="M1172.4465,-325.4425C1173.7858,-330.5413 1181.9703,-334.4133 1197,-334.4133 1220.4609,-334.4133 1227.2426,-324.9786 1217.345,-316.1704"/>
<polygon fill="#191970" stroke="#191970" points="1175.709,-326.7229 1176.655,-316.1704 1169.3348,-323.8297 1175.709,-326.7229"/>
</g>
<!-- Node311179&#45;&gt;Node311160 -->
<g id="edge12" class="edge">
<title>Node311179&#45;&gt;Node311160</title>
<path fill="none" stroke="#191970" d="M600.416,-1120.0029C627.1883,-1039.0081 729.499,-729.4858 748.8364,-670.9843"/>
<polygon fill="#191970" stroke="#191970" points="596.9714,-1119.2718 597.1561,-1129.8651 603.6178,-1121.4688 596.9714,-1119.2718"/>
</g>
<!-- Node311179&#45;&gt;Node311179 -->
<g id="edge10" class="edge">
<title>Node311179&#45;&gt;Node311179</title>
<path fill="none" stroke="#191970" d="M564.5076,-1158.0672C565.7404,-1163.3501 575.5712,-1167.4133 594,-1167.4133 622.082,-1167.4133 630.1995,-1157.9786 618.3524,-1149.1704"/>
<polygon fill="#191970" stroke="#191970" points="567.6757,-1159.5801 569.6476,-1149.1704 561.6145,-1156.0783 567.6757,-1159.5801"/>
</g>
<!-- Node311179&#45;&gt;Node311178 -->
<g id="edge8" class="edge">
<title>Node311179&#45;&gt;Node311178</title>
<path fill="none" stroke="#191970" d="M662.7323,-1132.7142C675.1811,-1132.5901 687.9759,-1132.6929 699.8518,-1133.0225"/>
<polygon fill="#191970" stroke="#191970" points="662.33,-1129.2199 652.3845,-1132.8719 662.4366,-1136.219 662.33,-1129.2199"/>
</g>
<!-- Node311179&#45;&gt;Node311183 -->
<g id="edge11" class="edge">
<title>Node311179&#45;&gt;Node311183</title>
<path fill="none" stroke="#191970" d="M617.1249,-1154.7434C628.6496,-1162.5322 642.7131,-1172.2629 655,-1181.4133 686.7165,-1205.0334 722.6555,-1234.7422 740.5729,-1249.7649"/>
<polygon fill="#191970" stroke="#191970" points="618.763,-1151.6276 608.5091,-1148.9615 614.8623,-1157.4401 618.763,-1151.6276"/>
</g>
<!-- Node311178&#45;&gt;Node311179 -->
<g id="edge9" class="edge">
<title>Node311178&#45;&gt;Node311179</title>
<path fill="none" stroke="#191970" d="M689.6877,-1146.0276C677.3964,-1146.2302 664.5403,-1146.2059 652.3845,-1145.9547"/>
<polygon fill="#191970" stroke="#191970" points="689.9312,-1149.5232 699.8518,-1145.8041 689.7773,-1142.5249 689.9312,-1149.5232"/>
</g>
<!-- Node311167&#45;&gt;Node311168 -->
<g id="edge15" class="edge">
<title>Node311167&#45;&gt;Node311168</title>
<path fill="none" stroke="#191970" d="M1086.0177,-385.6864C1113.7701,-365.8633 1160.6117,-332.4049 1183.5404,-316.0273"/>
<polygon fill="#191970" stroke="#191970" points="1083.8354,-382.9439 1077.7324,-391.6044 1087.9041,-388.6401 1083.8354,-382.9439"/>
</g>
<!-- Node311167&#45;&gt;Node311172 -->
<g id="edge16" class="edge">
<title>Node311167&#45;&gt;Node311172</title>
<path fill="none" stroke="#191970" d="M1083.9912,-418.3152C1091.548,-425.6427 1099.6143,-434.7537 1105,-444.4133 1173.7464,-567.7149 1192.5785,-744.0186 1196.2521,-786.7959"/>
<polygon fill="#191970" stroke="#191970" points="1085.8795,-415.2982 1076.1422,-411.1224 1081.1501,-420.459 1085.8795,-415.2982"/>
</g>
<!-- Node311166&#45;&gt;Node311167 -->
<g id="edge18" class="edge">
<title>Node311166&#45;&gt;Node311167</title>
<path fill="none" stroke="#191970" d="M997.1926,-410.1074C1006.0645,-408.9529 1014.8135,-407.8143 1022.9104,-406.7606"/>
<polygon fill="#191970" stroke="#191970" points="996.6167,-406.6528 987.152,-411.4141 997.5201,-413.5942 996.6167,-406.6528"/>
</g>
<!-- Node311177&#45;&gt;Node311178 -->
<g id="edge20" class="edge">
<title>Node311177&#45;&gt;Node311178</title>
<path fill="none" stroke="#191970" d="M628.2738,-1187.181C658.0962,-1175.6673 700.6008,-1159.2573 727.2257,-1148.9781"/>
<polygon fill="#191970" stroke="#191970" points="626.7558,-1184.0152 618.6875,-1190.8821 629.277,-1190.5454 626.7558,-1184.0152"/>
</g>
<!-- Node311170&#45;&gt;Node311160 -->
<g id="edge26" class="edge">
<title>Node311170&#45;&gt;Node311160</title>
<path fill="none" stroke="#191970" d="M605.2564,-337.2772C637.105,-407.6263 726.8902,-605.9492 747.6694,-651.8476"/>
<polygon fill="#191970" stroke="#191970" points="608.3057,-335.5261 600.9929,-327.8597 601.9288,-338.4131 608.3057,-335.5261"/>
</g>
<!-- Node311170&#45;&gt;Node311168 -->
<g id="edge25" class="edge">
<title>Node311170&#45;&gt;Node311168</title>
<path fill="none" stroke="#191970" d="M661.7003,-311.7397C781.6404,-310.5462 1029.2776,-308.0822 1140.6123,-306.9744"/>
<polygon fill="#191970" stroke="#191970" points="661.5097,-308.2413 651.545,-311.8407 661.5794,-315.2409 661.5097,-308.2413"/>
</g>
<!-- Node311170&#45;&gt;Node311170 -->
<g id="edge24" class="edge">
<title>Node311170&#45;&gt;Node311170</title>
<path fill="none" stroke="#191970" d="M565.9253,-337.8712C569.4098,-342.5923 578.768,-345.9133 594,-345.9133 618.9961,-345.9133 628.1743,-336.9699 621.5348,-327.5723"/>
<polygon fill="#191970" stroke="#191970" points="569.4368,-337.7419 566.4652,-327.5723 562.4464,-337.3753 569.4368,-337.7419"/>
</g>
<!-- Node311170&#45;&gt;Node311165 -->
<g id="edge27" class="edge">
<title>Node311170&#45;&gt;Node311165</title>
<path fill="none" stroke="#191970" d="M615.5553,-334.931C634.1658,-353.3749 662.4842,-379.1542 691,-396.4133 700.5413,-402.1882 711.7169,-407.0588 721.8772,-410.8711"/>
<polygon fill="#191970" stroke="#191970" points="617.7301,-332.1537 608.2015,-327.5217 612.7618,-337.0849 617.7301,-332.1537"/>
</g>
<!-- Node311165&#45;&gt;Node311167 -->
<g id="edge29" class="edge">
<title>Node311165&#45;&gt;Node311167</title>
<path fill="none" stroke="#191970" d="M801.5731,-408.7881C816.7075,-405.7579 833.4571,-402.9212 849,-401.4133 909.1862,-395.5743 979.2963,-397.1253 1022.6688,-399.0515"/>
<polygon fill="#191970" stroke="#191970" points="800.4677,-405.4429 791.3881,-410.903 801.8909,-412.2967 800.4677,-405.4429"/>
</g>
<!-- Node311165&#45;&gt;Node311172 -->
<g id="edge30" class="edge">
<title>Node311165&#45;&gt;Node311172</title>
<path fill="none" stroke="#191970" d="M799.1428,-432.8433C873.1719,-454.5433 1017.2679,-505.8845 1105,-596.4133 1161.92,-655.1478 1187.9657,-755.4439 1194.9798,-786.7726"/>
<polygon fill="#191970" stroke="#191970" points="799.753,-429.377 789.1752,-429.9771 797.8185,-436.1044 799.753,-429.377"/>
</g>
<!-- Node311165&#45;&gt;Node311166 -->
<g id="edge28" class="edge">
<title>Node311165&#45;&gt;Node311166</title>
<path fill="none" stroke="#191970" d="M823.4791,-420.4133C831.8754,-420.4133 840.4321,-420.4133 848.7965,-420.4133"/>
<polygon fill="#191970" stroke="#191970" points="823.3407,-416.9134 813.3406,-420.4133 823.3406,-423.9134 823.3407,-416.9134"/>
</g>
<!-- Node311196&#45;&gt;Node311170 -->
<g id="edge32" class="edge">
<title>Node311196&#45;&gt;Node311170</title>
<path fill="none" stroke="#191970" d="M348.5122,-321.5336C406.3567,-319.3846 484.1183,-316.4956 536.4919,-314.5498"/>
<polygon fill="#191970" stroke="#191970" points="348.1813,-318.0434 338.3182,-321.9123 348.4413,-325.0385 348.1813,-318.0434"/>
</g>
<!-- Node311197&#45;&gt;Node311165 -->
<g id="edge34" class="edge">
<title>Node311197&#45;&gt;Node311165</title>
<path fill="none" stroke="#191970" d="M455.1319,-813.9984C467.6987,-803.0723 484.0204,-788.0793 497,-773.4133 608.9841,-646.8791 719.7972,-472.2251 746.1285,-429.9187"/>
<polygon fill="#191970" stroke="#191970" points="452.8056,-811.3825 447.4889,-820.5468 457.36,-816.6983 452.8056,-811.3825"/>
</g>
<!-- Node311197&#45;&gt;Node311189 -->
<g id="edge35" class="edge">
<title>Node311197&#45;&gt;Node311189</title>
<path fill="none" stroke="#191970" d="M485.4191,-842.3813C507.6304,-847.7064 533.4205,-853.8895 554.2914,-858.8933"/>
<polygon fill="#191970" stroke="#191970" points="486.0367,-838.9302 475.4962,-840.0023 484.4047,-845.7373 486.0367,-838.9302"/>
</g>
<!-- Node311198&#45;&gt;Node311160 -->
<g id="edge43" class="edge">
<title>Node311198&#45;&gt;Node311160</title>
<path fill="none" stroke="#191970" d="M294.5479,-579.3067C314.8058,-591.3684 345.2287,-607.7333 374,-616.4133 488.8381,-651.0588 630.8444,-659.1977 703.7709,-661.0007"/>
<polygon fill="#191970" stroke="#191970" points="296.3614,-576.3132 285.998,-574.1107 292.726,-582.2952 296.3614,-576.3132"/>
</g>
<!-- Node311198&#45;&gt;Node311182 -->
<g id="edge37" class="edge">
<title>Node311198&#45;&gt;Node311182</title>
<path fill="none" stroke="#191970" d="M276.8104,-545.0057C297.7529,-475.1582 368.4261,-240.3888 374,-234.4133 379.8633,-228.1274 387.5697,-223.4648 395.536,-220.0137"/>
<polygon fill="#191970" stroke="#191970" points="273.4114,-544.1556 273.8938,-554.7394 280.1169,-546.1648 273.4114,-544.1556"/>
</g>
<!-- Node311198&#45;&gt;Node311168 -->
<g id="edge48" class="edge">
<title>Node311198&#45;&gt;Node311168</title>
<path fill="none" stroke="#191970" d="M325.4278,-563.4838C446.8762,-560.0791 748.1026,-544.2205 987,-470.4133 1041.4203,-453.6002 1059.5289,-454.7153 1105,-420.4133 1145.607,-389.7806 1178.9179,-337.4314 1191.5483,-315.9945"/>
<polygon fill="#191970" stroke="#191970" points="325.1773,-559.9891 315.2728,-563.7509 325.3614,-566.9867 325.1773,-559.9891"/>
</g>
<!-- Node311198&#45;&gt;Node311178 -->
<g id="edge40" class="edge">
<title>Node311198&#45;&gt;Node311178</title>
<path fill="none" stroke="#191970" d="M289.4761,-580.7923C309.3705,-597.8843 342.4287,-624.7456 374,-643.4133 425.3914,-673.8003 447.386,-664.2035 497,-697.4133 577.9756,-751.6154 602.9296,-767.0508 655,-849.4133 717.4127,-948.1346 744.1905,-1091.351 750.4876,-1129.6784"/>
<polygon fill="#191970" stroke="#191970" points="291.6417,-578.0373 281.7986,-574.1177 287.049,-583.3201 291.6417,-578.0373"/>
</g>
<!-- Node311198&#45;&gt;Node311163 -->
<g id="edge38" class="edge">
<title>Node311198&#45;&gt;Node311163</title>
<path fill="none" stroke="#191970" d="M281.6763,-583.1674C298.1917,-610.6559 332.4105,-661.9216 374,-692.4133 382.2265,-698.4446 392.1661,-703.183 401.6335,-706.7985"/>
<polygon fill="#191970" stroke="#191970" points="284.4923,-581.0507 276.4118,-574.1983 278.4554,-584.5942 284.4923,-581.0507"/>
</g>
<!-- Node311198&#45;&gt;Node311167 -->
<g id="edge39" class="edge">
<title>Node311198&#45;&gt;Node311167</title>
<path fill="none" stroke="#191970" d="M325.4291,-556.9642C470.2937,-536.8122 862.6847,-480.0093 987,-439.4133 1009.1066,-432.1943 1032.8638,-419.6626 1048.0509,-410.9738"/>
<polygon fill="#191970" stroke="#191970" points="324.8578,-553.5099 315.4337,-558.3511 325.8199,-560.4435 324.8578,-553.5099"/>
</g>
<!-- Node311198&#45;&gt;Node311172 -->
<g id="edge42" class="edge">
<title>Node311198&#45;&gt;Node311172</title>
<path fill="none" stroke="#191970" d="M325.2767,-571.8688C457.9377,-590.1394 789.5376,-636.1173 813,-642.4133 958.3379,-681.4138 1122.968,-759.7171 1177.9798,-786.8765"/>
<polygon fill="#191970" stroke="#191970" points="325.7064,-568.3951 315.3225,-570.4985 324.7517,-575.3297 325.7064,-568.3951"/>
</g>
<!-- Node311198&#45;&gt;Node311170 -->
<g id="edge41" class="edge">
<title>Node311198&#45;&gt;Node311170</title>
<path fill="none" stroke="#191970" d="M279.6009,-545.5488C294.5315,-514.8189 328.1014,-453.926 374,-419.4133 420.2858,-384.6095 445.1029,-402.1109 497,-376.4133 525.3862,-362.3575 555.438,-341.4707 574.436,-327.4182"/>
<polygon fill="#191970" stroke="#191970" points="276.3693,-544.1954 275.2611,-554.7322 282.6982,-547.1863 276.3693,-544.1954"/>
</g>
<!-- Node311198&#45;&gt;Node311165 -->
<g id="edge44" class="edge">
<title>Node311198&#45;&gt;Node311165</title>
<path fill="none" stroke="#191970" d="M296.1916,-549.6418C316.6083,-538.1797 346.4161,-522.5803 374,-512.4133 484.9028,-471.5363 620.8203,-443.5542 695.7277,-429.9391"/>
<polygon fill="#191970" stroke="#191970" points="294.2012,-546.7475 287.2442,-554.7382 297.6658,-552.83 294.2012,-546.7475"/>
</g>
<!-- Node311198&#45;&gt;Node311199 -->
<g id="edge45" class="edge">
<title>Node311198&#45;&gt;Node311199</title>
<path fill="none" stroke="#191970" d="M278.8618,-583.2466C291.8324,-614.5799 318.2441,-679.5025 338,-735.4133 355.7018,-785.5108 357.0059,-799.0714 374,-849.4133 394.8878,-911.2895 422.2063,-984.9042 431.8989,-1010.8179"/>
<polygon fill="#191970" stroke="#191970" points="282.0765,-581.8614 275.0074,-573.9697 275.6122,-584.5473 282.0765,-581.8614"/>
</g>
<!-- Node311198&#45;&gt;Node311181 -->
<g id="edge46" class="edge">
<title>Node311198&#45;&gt;Node311181</title>
<path fill="none" stroke="#191970" d="M276.6044,-544.7414C294.769,-481.5577 352.1062,-286.7603 374,-267.4133 397.8523,-246.3355 480.5206,-233.0447 537.4364,-226.1697"/>
<polygon fill="#191970" stroke="#191970" points="273.1603,-544.0553 273.7724,-554.6325 279.8899,-545.9822 273.1603,-544.0553"/>
</g>
<!-- Node311198&#45;&gt;Node311186 -->
<g id="edge49" class="edge">
<title>Node311198&#45;&gt;Node311186</title>
<path fill="none" stroke="#191970" d="M281.5138,-545.8682C299.9701,-513.3989 339.515,-444.2081 374,-386.4133 393.947,-352.9833 418.3637,-313.7715 429.4768,-296.0145"/>
<polygon fill="#191970" stroke="#191970" points="278.386,-544.2885 276.492,-554.7127 284.4732,-547.7448 278.386,-544.2885"/>
</g>
<!-- Node311181&#45;&gt;Node311168 -->
<g id="edge47" class="edge">
<title>Node311181&#45;&gt;Node311168</title>
<path fill="none" stroke="#191970" d="M660.8763,-223.0108C739.4023,-226.7955 873.3664,-235.548 987,-254.4133 1050.9152,-265.0244 1124.044,-284.9457 1164.9493,-296.8123"/>
<polygon fill="#191970" stroke="#191970" points="660.7946,-219.5032 650.6415,-222.5307 660.4665,-226.4956 660.7946,-219.5032"/>
</g>
<!-- Node311186&#45;&gt;Node311167 -->
<g id="edge51" class="edge">
<title>Node311186&#45;&gt;Node311167</title>
<path fill="none" stroke="#191970" d="M507.4065,-281.9285C550.4308,-280.4387 606.0793,-280.6095 655,-287.4133 803.9422,-308.128 975.2268,-368.2198 1038.6658,-391.7774"/>
<polygon fill="#191970" stroke="#191970" points="507.1706,-278.4349 497.3123,-282.3163 507.4393,-285.4297 507.1706,-278.4349"/>
</g>
<!-- Node311186&#45;&gt;Node311170 -->
<g id="edge52" class="edge">
<title>Node311186&#45;&gt;Node311170</title>
<path fill="none" stroke="#191970" d="M503.5657,-297.5787C514.5117,-299.3742 525.7482,-301.2174 536.4171,-302.9675"/>
<polygon fill="#191970" stroke="#191970" points="504.0542,-294.1121 493.6195,-295.9471 502.9211,-301.0198 504.0542,-294.1121"/>
</g>
<!-- Node311186&#45;&gt;Node311181 -->
<g id="edge50" class="edge">
<title>Node311186&#45;&gt;Node311181</title>
<path fill="none" stroke="#191970" d="M470.2686,-273.1005C479.0191,-269.6798 488.3749,-265.9621 497,-262.4133 523.1349,-251.6599 552.9284,-238.6454 572.521,-229.9815"/>
<polygon fill="#191970" stroke="#191970" points="468.771,-269.9274 460.7174,-276.8114 471.3061,-276.4522 468.771,-269.9274"/>
</g>
<!-- Node311200&#45;&gt;Node311167 -->
<g id="edge54" class="edge">
<title>Node311200&#45;&gt;Node311167</title>
<path fill="none" stroke="#191970" d="M337.9917,-955.0842C418.0772,-964.5419 553.9412,-969.9016 655,-918.4133 891.5826,-797.8773 1035.2665,-471.2064 1060.1278,-411.015"/>
<polygon fill="#191970" stroke="#191970" points="338.3831,-951.606 328.0292,-953.8523 337.5241,-958.5531 338.3831,-951.606"/>
</g>
<!-- Node311200&#45;&gt;Node311172 -->
<g id="edge55" class="edge">
<title>Node311200&#45;&gt;Node311172</title>
<path fill="none" stroke="#191970" d="M324.3642,-956.2353C328.9795,-957.2957 333.5743,-958.3648 338,-959.4133 354.0482,-963.2152 357.7034,-965.8792 374,-968.4133 470.8121,-983.4676 496.0244,-982.4133 594,-982.4133 594,-982.4133 594,-982.4133 918,-982.4133 1046.3633,-982.4133 1160.587,-844.4225 1189.7978,-806.1516"/>
<polygon fill="#191970" stroke="#191970" points="324.8134,-952.7481 314.2858,-953.9394 323.2586,-959.5732 324.8134,-952.7481"/>
</g>
<!-- Node311200&#45;&gt;Node311199 -->
<g id="edge56" class="edge">
<title>Node311200&#45;&gt;Node311199</title>
<path fill="none" stroke="#191970" d="M313.8069,-957.4524C322.044,-960.5954 330.4507,-964.2645 338,-968.4133 355.764,-978.1757 356.3749,-986.4023 374,-996.4133 383.9659,-1002.0739 395.5301,-1006.9743 405.9232,-1010.8446"/>
<polygon fill="#191970" stroke="#191970" points="314.871,-954.1155 304.2767,-954.0074 312.4912,-960.6986 314.871,-954.1155"/>
</g>
<!-- Node311175&#45;&gt;Node311177 -->
<g id="edge64" class="edge">
<title>Node311175&#45;&gt;Node311177</title>
<path fill="none" stroke="#191970" d="M335.731,-1255.664C381.4033,-1258.9619 443.6972,-1259.7709 497,-1247.4133 528.3547,-1240.1441 561.3639,-1221.4263 579.6503,-1209.9255"/>
<polygon fill="#191970" stroke="#191970" points="335.9069,-1252.1672 325.6647,-1254.8777 335.3617,-1259.1459 335.9069,-1252.1672"/>
</g>
<!-- Node311175&#45;&gt;Node311175 -->
<g id="edge60" class="edge">
<title>Node311175&#45;&gt;Node311175</title>
<path fill="none" stroke="#191970" d="M246.0745,-1267.4425C247.4341,-1272.5413 255.7426,-1276.4133 271,-1276.4133 294.8164,-1276.4133 301.7008,-1266.9786 291.6533,-1258.1704"/>
<polygon fill="#191970" stroke="#191970" points="249.3407,-1268.7173 250.3467,-1258.1704 242.9831,-1265.788 249.3407,-1268.7173"/>
</g>
<!-- Node311175&#45;&gt;Node311176 -->
<g id="edge61" class="edge">
<title>Node311175&#45;&gt;Node311176</title>
<path fill="none" stroke="#191970" d="M322.4975,-1236.5172C345.6197,-1231.1759 372.5297,-1224.9596 394.2882,-1219.9334"/>
<polygon fill="#191970" stroke="#191970" points="321.4659,-1233.1633 312.5103,-1238.8243 323.0415,-1239.9837 321.4659,-1233.1633"/>
</g>
<!-- Node311176&#45;&gt;Node311177 -->
<g id="edge63" class="edge">
<title>Node311176&#45;&gt;Node311177</title>
<path fill="none" stroke="#191970" d="M506.5329,-1205.9317C515.3021,-1205.3785 524.207,-1204.8166 532.8119,-1204.2737"/>
<polygon fill="#191970" stroke="#191970" points="506.0867,-1202.4528 496.3269,-1206.5756 506.5275,-1209.4389 506.0867,-1202.4528"/>
</g>
<!-- Node311176&#45;&gt;Node311176 -->
<g id="edge62" class="edge">
<title>Node311176&#45;&gt;Node311176</title>
<path fill="none" stroke="#191970" d="M406.0076,-1229.0672C407.2404,-1234.3501 417.0712,-1238.4133 435.5,-1238.4133 463.582,-1238.4133 471.6995,-1228.9786 459.8524,-1220.1704"/>
<polygon fill="#191970" stroke="#191970" points="409.1757,-1230.5801 411.1476,-1220.1704 403.1145,-1227.0783 409.1757,-1230.5801"/>
</g>
<!-- Node311201&#45;&gt;Node311172 -->
<g id="edge67" class="edge">
<title>Node311201&#45;&gt;Node311172</title>
<path fill="none" stroke="#191970" d="M327.4594,-1031.8402C342.534,-1034.6137 358.8464,-1037.3661 374,-1039.4133 471.2582,-1052.5525 495.8583,-1058.4133 594,-1058.4133 594,-1058.4133 594,-1058.4133 918,-1058.4133 1068.502,-1058.4133 1171.0901,-853.317 1192.7349,-806.0487"/>
<polygon fill="#191970" stroke="#191970" points="327.7242,-1028.3289 317.2503,-1029.9252 326.4336,-1035.2089 327.7242,-1028.3289"/>
</g>
<!-- Node311201&#45;&gt;Node311199 -->
<g id="edge68" class="edge">
<title>Node311201&#45;&gt;Node311199</title>
<path fill="none" stroke="#191970" d="M337.3084,-1020.4133C355.8441,-1020.4133 375.5031,-1020.4133 392.3224,-1020.4133"/>
<polygon fill="#191970" stroke="#191970" points="337.1515,-1016.9134 327.1515,-1020.4133 337.1514,-1023.9134 337.1515,-1016.9134"/>
</g>
<!-- Node311202&#45;&gt;Node311159 -->
<g id="edge83" class="edge">
<title>Node311202&#45;&gt;Node311159</title>
<path fill="none" stroke="#191970" d="M336.0788,-754.4133C364.4662,-754.4133 395.7099,-754.4133 415.455,-754.4133"/>
<polygon fill="#191970" stroke="#191970" points="335.7762,-750.9134 325.7761,-754.4133 335.7761,-757.9134 335.7762,-750.9134"/>
</g>
<!-- Node311202&#45;&gt;Node311166 -->
<g id="edge82" class="edge">
<title>Node311202&#45;&gt;Node311166</title>
<path fill="none" stroke="#191970" d="M322.2751,-765.9105C430.8501,-786.8948 684.5057,-817.5308 813,-680.4133 862.8407,-627.2278 819.7689,-587.184 849,-520.4133 864.903,-484.0873 894.6606,-447.1844 909.3473,-430.1428"/>
<polygon fill="#191970" stroke="#191970" points="322.7201,-762.4306 312.2299,-763.9158 321.3567,-769.2965 322.7201,-762.4306"/>
</g>
<!-- Node311202&#45;&gt;Node311197 -->
<g id="edge84" class="edge">
<title>Node311202&#45;&gt;Node311197</title>
<path fill="none" stroke="#191970" d="M313.8069,-767.4524C322.044,-770.5954 330.4507,-774.2645 338,-778.4133 355.764,-788.1757 356.3749,-796.4023 374,-806.4133 383.9659,-812.0739 395.5301,-816.9743 405.9232,-820.8446"/>
<polygon fill="#191970" stroke="#191970" points="314.871,-764.1155 304.2767,-764.0074 312.4912,-770.6986 314.871,-764.1155"/>
</g>
<!-- Node311202&#45;&gt;Node311203 -->
<g id="edge77" class="edge">
<title>Node311202&#45;&gt;Node311203</title>
<path fill="none" stroke="#191970" d="M280.8074,-735.9314C310.6362,-679.7189 399.9061,-511.49 427.3696,-459.735"/>
<polygon fill="#191970" stroke="#191970" points="277.6993,-734.3217 276.1035,-744.7957 283.8827,-737.6029 277.6993,-734.3217"/>
</g>
<!-- Node311203&#45;&gt;Node311160 -->
<g id="edge80" class="edge">
<title>Node311203&#45;&gt;Node311160</title>
<path fill="none" stroke="#191970" d="M465.9298,-465.2767C532.6741,-511.0382 689.7989,-618.7667 737.8141,-651.6871"/>
<polygon fill="#191970" stroke="#191970" points="467.7312,-462.2682 457.5044,-459.5 463.7728,-468.0415 467.7312,-462.2682"/>
</g>
<!-- Node311203&#45;&gt;Node311168 -->
<g id="edge79" class="edge">
<title>Node311203&#45;&gt;Node311168</title>
<path fill="none" stroke="#191970" d="M501.2074,-430.6878C511.8272,-428.5406 522.711,-426.3825 533,-424.4133 650.7999,-401.8682 1005.3222,-339.8331 1142.2252,-315.9546"/>
<polygon fill="#191970" stroke="#191970" points="500.2362,-427.3136 491.1344,-432.7365 501.6314,-434.1731 500.2362,-427.3136"/>
</g>
<!-- Node311203&#45;&gt;Node311170 -->
<g id="edge78" class="edge">
<title>Node311203&#45;&gt;Node311170</title>
<path fill="none" stroke="#191970" d="M483.3721,-424.2793C488.2139,-421.3178 492.8632,-418.0292 497,-414.4133 518.7173,-395.4302 513.422,-381.5959 533,-360.4133 544.4333,-348.0429 559.2448,-336.3089 571.4096,-327.5391"/>
<polygon fill="#191970" stroke="#191970" points="481.5201,-421.3052 474.5184,-429.2568 484.9506,-427.4071 481.5201,-421.3052"/>
</g>
<!-- Node311203&#45;&gt;Node311165 -->
<g id="edge81" class="edge">
<title>Node311203&#45;&gt;Node311165</title>
<path fill="none" stroke="#191970" d="M501.2481,-438.9379C511.8628,-438.0772 522.7343,-437.2094 533,-436.4133 586.2113,-432.2866 646.7195,-427.8883 690.6297,-424.7497"/>
<polygon fill="#191970" stroke="#191970" points="500.8606,-435.4578 491.178,-439.7585 501.4292,-442.4347 500.8606,-435.4578"/>
</g>
</g>
</svg>
