<?xml version="1.0" encoding="UTF-8" standalone="no"?>
<!DOCTYPE svg PUBLIC "-//W3C//DTD SVG 1.1//EN"
 "http://www.w3.org/Graphics/SVG/1.1/DTD/svg11.dtd">
<!-- Generated by graphviz version 2.40.1 (20161225.0304)
 -->
<!-- Title: js_typed_array_of Pages: 1 -->
<!--zoomable 908 -->
<svg id="main" version="1.1" xmlns="http://www.w3.org/2000/svg" xmlns:xlink="http://www.w3.org/1999/xlink" xml:space="preserve" onload="init(evt)">
<style type="text/css"><![CDATA[
.edge:hover path { stroke: red; }
.edge:hover polygon { stroke: red; fill: red; }
]]></style>
<script type="text/javascript"><![CDATA[
var edges = document.getElementsByTagName('g');
if (edges && edges.length) {
  for (var i=0;i<edges.length;i++) {
    if (edges[i].id.substr(0,4)=='edge') {
      edges[i].setAttribute('class','edge');
    }
  }
}
]]></script>
        <defs>
                <circle id="rim" cx="0" cy="0" r="7"/>
                <circle id="rim2" cx="0" cy="0" r="3.5"/>
                <g id="zoomPlus">
                        <use xlink:href="#rim" fill="#404040">
                                <set attributeName="fill" to="#808080" begin="zoomplus.mouseover" end="zoomplus.mouseout"/>
                        </use>
                        <path d="M-4,0h8M0,-4v8" fill="none" stroke="white" stroke-width="1.5" pointer-events="none"/>
                </g>
                <g id="zoomMin">
                        <use xlink:href="#rim" fill="#404040">
                                <set attributeName="fill" to="#808080" begin="zoomminus.mouseover" end="zoomminus.mouseout"/>
                        </use>
                        <path d="M-4,0h8" fill="none" stroke="white" stroke-width="1.5" pointer-events="none"/>
                </g>
                <g id="dirArrow">
                        <path fill="none" stroke="white" stroke-width="1.5" d="M0,-3.0v7 M-2.5,-0.5L0,-3.0L2.5,-0.5"/>
                </g>
               <g id="resetDef">
                       <use xlink:href="#rim2" fill="#404040">
                               <set attributeName="fill" to="#808080" begin="reset.mouseover" end="reset.mouseout"/>
                       </use>
               </g>
        </defs>

<script type="text/javascript">
var viewWidth = 1114;
var viewHeight = 908;
var sectionId = 'dynsection-1877';
</script>
<script xlink:href="svgpan.js"/>
<svg id="graph" class="graph">
<g id="viewport">
<title>js_typed_array_of</title>
<!-- Node483860 -->
<g id="node1" class="node">
<title>Node483860</title>
<polygon fill="#bfbfbf" stroke="#000000" points="0,-415.951 0,-434.951 94,-434.951 94,-415.951 0,-415.951"/>
<text text-anchor="middle" x="47" y="-422.951" font-family="Helvetica,sans-Serif" font-size="10.00" fill="#000000">js_typed_array_of</text>
</g>
<!-- Node483861 -->
<g id="node2" class="node">
<title>Node483861</title>
<g id="a_node2"><a xlink:href="quickjs_8h.html#a775522f2d084fc8fa0fcb33f390006b4" target="_top" xlink:title="JS_DupValue">
<polygon fill="none" stroke="#000000" points="630,-187.951 630,-206.951 707,-206.951 707,-187.951 630,-187.951"/>
<text text-anchor="middle" x="668.5" y="-194.951" font-family="Helvetica,sans-Serif" font-size="10.00" fill="#000000">JS_DupValue</text>
</a>
</g>
</g>
<!-- Node483860&#45;&gt;Node483861 -->
<g id="edge1" class="edge">
<title>Node483860&#45;&gt;Node483861</title>
<path fill="none" stroke="#191970" d="M49.3113,-415.5831C56.9542,-384.3199 83.6018,-285.4615 130,-216.451 181.5629,-139.7587 199.4819,-117.8083 280,-72.451 394.0757,-8.1901 458.3418,31.5454 572,-33.451 627.0968,-64.9585 653.8465,-141.5441 663.7652,-177.8006"/>
<polygon fill="#191970" stroke="#191970" points="660.4234,-178.8581 666.3158,-187.6633 667.2005,-177.1055 660.4234,-178.8581"/>
</g>
<!-- Node483862 -->
<g id="node3" class="node">
<title>Node483862</title>
<g id="a_node3"><a xlink:href="quickjs_8h.html#afaa20c47565bc704c6c85f3d77254e7d" target="_top" xlink:title="JS_FreeValue">
<polygon fill="none" stroke="#000000" points="765,-358.951 765,-377.951 843,-377.951 843,-358.951 765,-358.951"/>
<text text-anchor="middle" x="804" y="-365.951" font-family="Helvetica,sans-Serif" font-size="10.00" fill="#000000">JS_FreeValue</text>
</a>
</g>
</g>
<!-- Node483860&#45;&gt;Node483862 -->
<g id="edge2" class="edge">
<title>Node483860&#45;&gt;Node483862</title>
<path fill="none" stroke="#191970" d="M63.569,-415.8191C106.7313,-391.6673 226.8043,-330.451 335,-330.451 335,-330.451 335,-330.451 499,-330.451 601.4394,-330.451 628.2404,-326.9759 729,-345.451 741.9774,-347.8305 755.873,-351.7027 768.1336,-355.5971"/>
<polygon fill="#191970" stroke="#191970" points="767.3989,-359.0399 777.9919,-358.8414 769.5871,-352.3907 767.3989,-359.0399"/>
</g>
<!-- Node483900 -->
<g id="node6" class="node">
<title>Node483900</title>
<g id="a_node6"><a xlink:href="quickjs_8h.html#ad80a83d73e9b7d872b88fbf2943aebe9" target="_top" xlink:title="JS_IsException">
<polygon fill="none" stroke="#000000" points="625.5,-681.951 625.5,-700.951 711.5,-700.951 711.5,-681.951 625.5,-681.951"/>
<text text-anchor="middle" x="668.5" y="-688.951" font-family="Helvetica,sans-Serif" font-size="10.00" fill="#000000">JS_IsException</text>
</a>
</g>
</g>
<!-- Node483860&#45;&gt;Node483900 -->
<g id="edge5" class="edge">
<title>Node483860&#45;&gt;Node483900</title>
<path fill="none" stroke="#191970" d="M49.2271,-435.0009C61.5037,-485.1754 126.0448,-719.2582 280,-805.451 393.2388,-868.8485 454.2631,-860.0431 572,-805.451 614.3452,-785.8164 644.8514,-737.4312 659.2318,-710.4343"/>
<polygon fill="#191970" stroke="#191970" points="662.4981,-711.7349 663.9447,-701.2393 656.2687,-708.542 662.4981,-711.7349"/>
</g>
<!-- Node483901 -->
<g id="node7" class="node">
<title>Node483901</title>
<g id="a_node7"><a xlink:href="quickjs_8h.html#a2050bc428da1c65ac7eb87c3fa3b0392" target="_top" xlink:title="JS_NewInt32">
<polygon fill="none" stroke="#000000" points="766,-681.951 766,-700.951 842,-700.951 842,-681.951 766,-681.951"/>
<text text-anchor="middle" x="804" y="-688.951" font-family="Helvetica,sans-Serif" font-size="10.00" fill="#000000">JS_NewInt32</text>
</a>
</g>
</g>
<!-- Node483860&#45;&gt;Node483901 -->
<g id="edge6" class="edge">
<title>Node483860&#45;&gt;Node483901</title>
<path fill="none" stroke="#191970" d="M48.0154,-435.372C55.5864,-503.5836 109.3322,-900.451 335,-900.451 335,-900.451 335,-900.451 499,-900.451 614.0939,-900.451 639.2721,-853.531 729,-781.451 755.1453,-760.448 778.7246,-729.164 792.197,-709.5559"/>
<polygon fill="#191970" stroke="#191970" points="795.1356,-711.458 797.8074,-701.2056 789.3253,-707.5541 795.1356,-711.458"/>
</g>
<!-- Node483902 -->
<g id="node8" class="node">
<title>Node483902</title>
<g id="a_node8"><a xlink:href="quickjs_8c.html#aae909eaec829081b270012adfcd717a4" target="_top" xlink:title="JS_SetPropertyUint32">
<polygon fill="none" stroke="#000000" points="130,-510.951 130,-529.951 244,-529.951 244,-510.951 130,-510.951"/>
<text text-anchor="middle" x="187" y="-517.951" font-family="Helvetica,sans-Serif" font-size="10.00" fill="#000000">JS_SetPropertyUint32</text>
</a>
</g>
</g>
<!-- Node483860&#45;&gt;Node483902 -->
<g id="edge7" class="edge">
<title>Node483860&#45;&gt;Node483902</title>
<path fill="none" stroke="#191970" d="M61.1944,-435.0829C85.5119,-451.584 135.3266,-485.3869 164.4464,-505.1468"/>
<polygon fill="#191970" stroke="#191970" points="162.528,-508.0747 172.768,-510.7936 166.4585,-502.2823 162.528,-508.0747"/>
</g>
<!-- Node484296 -->
<g id="node21" class="node">
<title>Node484296</title>
<g id="a_node21"><a xlink:href="quickjs_8c.html#a8c18ce4b7a8c97ab520d4d37a1c6fc72" target="_top" xlink:title="js_typed_array_create">
<polygon fill="none" stroke="#000000" points="130.5,-225.951 130.5,-244.951 243.5,-244.951 243.5,-225.951 130.5,-225.951"/>
<text text-anchor="middle" x="187" y="-232.951" font-family="Helvetica,sans-Serif" font-size="10.00" fill="#000000">js_typed_array_create</text>
</a>
</g>
</g>
<!-- Node483860&#45;&gt;Node484296 -->
<g id="edge36" class="edge">
<title>Node483860&#45;&gt;Node484296</title>
<path fill="none" stroke="#191970" d="M54.1351,-415.7676C76.3169,-385.6637 144.3256,-293.3663 173.4898,-253.7862"/>
<polygon fill="#191970" stroke="#191970" points="176.5971,-255.4694 179.7114,-245.3427 170.9617,-251.317 176.5971,-255.4694"/>
</g>
<!-- Node483863 -->
<g id="node4" class="node">
<title>Node483863</title>
<g id="a_node4"><a xlink:href="quickjs_8c.html#aa059f309c30fd5166d16c82a97973146" target="_top" xlink:title="__JS_FreeValue">
<polygon fill="none" stroke="#000000" points="879,-358.951 879,-377.951 968,-377.951 968,-358.951 879,-358.951"/>
<text text-anchor="middle" x="923.5" y="-365.951" font-family="Helvetica,sans-Serif" font-size="10.00" fill="#000000">__JS_FreeValue</text>
</a>
</g>
</g>
<!-- Node483862&#45;&gt;Node483863 -->
<g id="edge3" class="edge">
<title>Node483862&#45;&gt;Node483863</title>
<path fill="none" stroke="#191970" d="M843.1288,-368.451C851.3481,-368.451 860.1608,-368.451 868.8298,-368.451"/>
<polygon fill="#191970" stroke="#191970" points="868.8964,-371.9511 878.8964,-368.451 868.8964,-364.9511 868.8964,-371.9511"/>
</g>
<!-- Node483864 -->
<g id="node5" class="node">
<title>Node483864</title>
<g id="a_node5"><a xlink:href="quickjs_8c.html#ab1ea3fad7d138be12144a38be4d36423" target="_top" xlink:title="__JS_FreeValueRT">
<polygon fill="none" stroke="#ff0000" points="1004,-358.951 1004,-377.951 1106,-377.951 1106,-358.951 1004,-358.951"/>
<text text-anchor="middle" x="1055" y="-365.951" font-family="Helvetica,sans-Serif" font-size="10.00" fill="#000000">__JS_FreeValueRT</text>
</a>
</g>
</g>
<!-- Node483863&#45;&gt;Node483864 -->
<g id="edge4" class="edge">
<title>Node483863&#45;&gt;Node483864</title>
<path fill="none" stroke="#191970" d="M968.0199,-368.451C976.2672,-368.451 985.0138,-368.451 993.6583,-368.451"/>
<polygon fill="#191970" stroke="#191970" points="993.7233,-371.9511 1003.7233,-368.451 993.7232,-364.9511 993.7233,-371.9511"/>
</g>
<!-- Node483903 -->
<g id="node9" class="node">
<title>Node483903</title>
<g id="a_node9"><a xlink:href="quickjs_8h.html#a88259aa0da61ac754402c64ccecee116" target="_top" xlink:title="JS_NewUint32">
<polygon fill="none" stroke="#000000" points="293.5,-776.951 293.5,-795.951 376.5,-795.951 376.5,-776.951 293.5,-776.951"/>
<text text-anchor="middle" x="335" y="-783.951" font-family="Helvetica,sans-Serif" font-size="10.00" fill="#000000">JS_NewUint32</text>
</a>
</g>
</g>
<!-- Node483902&#45;&gt;Node483903 -->
<g id="edge8" class="edge">
<title>Node483902&#45;&gt;Node483903</title>
<path fill="none" stroke="#191970" d="M188.0562,-530.1772C192.4265,-565.9111 212.1811,-691.5407 280,-762.451 283.642,-766.259 287.9918,-769.4991 292.6275,-772.2471"/>
<polygon fill="#191970" stroke="#191970" points="291.2887,-775.494 301.7838,-776.945 294.4843,-769.2659 291.2887,-775.494"/>
</g>
<!-- Node483905 -->
<g id="node11" class="node">
<title>Node483905</title>
<g id="a_node11"><a xlink:href="quickjs_8c.html#aee75cc1546e19479e3ccda58f3b50a96" target="_top" xlink:title="JS_SetPropertyValue">
<polygon fill="none" stroke="#000000" points="280,-510.951 280,-529.951 390,-529.951 390,-510.951 280,-510.951"/>
<text text-anchor="middle" x="335" y="-517.951" font-family="Helvetica,sans-Serif" font-size="10.00" fill="#000000">JS_SetPropertyValue</text>
</a>
</g>
</g>
<!-- Node483902&#45;&gt;Node483905 -->
<g id="edge11" class="edge">
<title>Node483902&#45;&gt;Node483905</title>
<path fill="none" stroke="#191970" d="M244.2207,-520.451C252.5481,-520.451 261.1747,-520.451 269.648,-520.451"/>
<polygon fill="#191970" stroke="#191970" points="269.8771,-523.9511 279.8771,-520.451 269.8771,-516.9511 269.8771,-523.9511"/>
</g>
<!-- Node483903&#45;&gt;Node483901 -->
<g id="edge9" class="edge">
<title>Node483903&#45;&gt;Node483901</title>
<path fill="none" stroke="#191970" d="M370.4347,-795.96C417.2097,-807.0055 501.8402,-821.7574 572,-805.451 654.7295,-786.2231 741.9361,-733.1187 781.7844,-706.7358"/>
<polygon fill="#191970" stroke="#191970" points="783.8539,-709.5622 790.2098,-701.0856 779.955,-703.7485 783.8539,-709.5622"/>
</g>
<!-- Node483904 -->
<g id="node10" class="node">
<title>Node483904</title>
<g id="a_node10"><a xlink:href="quickjs_8h.html#a9bf98b18de88b4199910a43e933eb97d" target="_top" xlink:title="__JS_NewFloat64">
<polygon fill="none" stroke="#000000" points="450.5,-776.951 450.5,-795.951 547.5,-795.951 547.5,-776.951 450.5,-776.951"/>
<text text-anchor="middle" x="499" y="-783.951" font-family="Helvetica,sans-Serif" font-size="10.00" fill="#000000">__JS_NewFloat64</text>
</a>
</g>
</g>
<!-- Node483903&#45;&gt;Node483904 -->
<g id="edge10" class="edge">
<title>Node483903&#45;&gt;Node483904</title>
<path fill="none" stroke="#191970" d="M376.8085,-786.451C396.0555,-786.451 419.2273,-786.451 440.1946,-786.451"/>
<polygon fill="#191970" stroke="#191970" points="440.2837,-789.9511 450.2837,-786.451 440.2836,-782.9511 440.2837,-789.9511"/>
</g>
<!-- Node483905&#45;&gt;Node483862 -->
<g id="edge17" class="edge">
<title>Node483905&#45;&gt;Node483862</title>
<path fill="none" stroke="#191970" d="M338.6381,-510.6393C348.3786,-485.9501 377.642,-421.3098 426,-394.451 531.0388,-336.1106 678.6238,-347.7866 754.5657,-359.2651"/>
<polygon fill="#191970" stroke="#191970" points="754.3712,-362.7776 764.794,-360.8762 755.4604,-355.8628 754.3712,-362.7776"/>
</g>
<!-- Node483906 -->
<g id="node12" class="node">
<title>Node483906</title>
<g id="a_node12"><a xlink:href="quickjs_8c.html#a014abd680db53ab89cb133345742a59c" target="_top" xlink:title="__attribute__">
<polygon fill="none" stroke="#ff0000" points="632,-548.951 632,-567.951 705,-567.951 705,-548.951 632,-548.951"/>
<text text-anchor="middle" x="668.5" y="-555.951" font-family="Helvetica,sans-Serif" font-size="10.00" fill="#000000">__attribute__</text>
</a>
</g>
</g>
<!-- Node483905&#45;&gt;Node483906 -->
<g id="edge12" class="edge">
<title>Node483905&#45;&gt;Node483906</title>
<path fill="none" stroke="#191970" d="M375.1221,-529.9805C390.9012,-533.4252 409.2243,-537.0525 426,-539.451 493.5728,-549.1122 572.492,-554.1479 621.4899,-556.5476"/>
<polygon fill="#191970" stroke="#191970" points="621.6218,-560.0576 631.776,-557.034 621.9525,-553.0654 621.6218,-560.0576"/>
</g>
<!-- Node484070 -->
<g id="node13" class="node">
<title>Node484070</title>
<g id="a_node13"><a xlink:href="quickjs_8c.html#adbffd820afae76d09c641b5b911e3600" target="_top" xlink:title="add_fast_array_element">
<polygon fill="none" stroke="#ff0000" points="608,-472.951 608,-491.951 729,-491.951 729,-472.951 608,-472.951"/>
<text text-anchor="middle" x="668.5" y="-479.951" font-family="Helvetica,sans-Serif" font-size="10.00" fill="#000000">add_fast_array_element</text>
</a>
</g>
</g>
<!-- Node483905&#45;&gt;Node484070 -->
<g id="edge13" class="edge">
<title>Node483905&#45;&gt;Node484070</title>
<path fill="none" stroke="#191970" d="M375.1221,-510.9214C390.9012,-507.4768 409.2243,-503.8495 426,-501.451 483.5671,-493.2203 549.3691,-488.3468 597.8898,-485.6002"/>
<polygon fill="#191970" stroke="#191970" points="598.1794,-489.0897 607.9721,-485.046 597.7951,-482.1002 598.1794,-489.0897"/>
</g>
<!-- Node483884 -->
<g id="node14" class="node">
<title>Node483884</title>
<g id="a_node14"><a xlink:href="quickjs_8c.html#ab7fc45a99935a1c0ba50b0216d9401a9" target="_top" xlink:title="JS_FreeAtom">
<polygon fill="none" stroke="#ff0000" points="460.5,-434.951 460.5,-453.951 537.5,-453.951 537.5,-434.951 460.5,-434.951"/>
<text text-anchor="middle" x="499" y="-441.951" font-family="Helvetica,sans-Serif" font-size="10.00" fill="#000000">JS_FreeAtom</text>
</a>
</g>
</g>
<!-- Node483905&#45;&gt;Node483884 -->
<g id="edge16" class="edge">
<title>Node483905&#45;&gt;Node483884</title>
<path fill="none" stroke="#191970" d="M349.6506,-510.8449C367.2432,-499.6049 397.9011,-480.945 426,-468.451 435.3255,-464.3044 445.5964,-460.4929 455.4148,-457.1865"/>
<polygon fill="#191970" stroke="#191970" points="456.6061,-460.4796 465.0306,-454.0548 454.4383,-453.8237 456.6061,-460.4796"/>
</g>
<!-- Node484175 -->
<g id="node15" class="node">
<title>Node484175</title>
<g id="a_node15"><a xlink:href="quickjs_8c.html#ad7f03358a8088ca920ab308225c6b2e6" target="_top" xlink:title="JS_SetPropertyInternal">
<polygon fill="none" stroke="#ff0000" points="440,-510.951 440,-529.951 558,-529.951 558,-510.951 440,-510.951"/>
<text text-anchor="middle" x="499" y="-517.951" font-family="Helvetica,sans-Serif" font-size="10.00" fill="#000000">JS_SetPropertyInternal</text>
</a>
</g>
</g>
<!-- Node483905&#45;&gt;Node484175 -->
<g id="edge18" class="edge">
<title>Node483905&#45;&gt;Node484175</title>
<path fill="none" stroke="#191970" d="M390.0659,-514.0356C402.8201,-513.7077 416.5523,-513.6208 429.8248,-513.7749"/>
<polygon fill="#191970" stroke="#191970" points="429.8049,-517.2749 439.861,-513.9397 429.9199,-510.2759 429.8049,-517.2749"/>
</g>
<!-- Node484085 -->
<g id="node16" class="node">
<title>Node484085</title>
<g id="a_node16"><a xlink:href="quickjs_8c.html#a0ec52a675282f321a6f42aa1298a53fe" target="_top" xlink:title="set_value">
<polygon fill="none" stroke="#000000" points="639,-396.951 639,-415.951 698,-415.951 698,-396.951 639,-396.951"/>
<text text-anchor="middle" x="668.5" y="-403.951" font-family="Helvetica,sans-Serif" font-size="10.00" fill="#000000">set_value</text>
</a>
</g>
</g>
<!-- Node483905&#45;&gt;Node484085 -->
<g id="edge35" class="edge">
<title>Node483905&#45;&gt;Node484085</title>
<path fill="none" stroke="#191970" d="M340.7939,-510.7091C353.3708,-490.5891 385.3417,-444.7187 426,-425.451 491.7324,-394.3008 578.7939,-396.4674 628.7238,-401.219"/>
<polygon fill="#191970" stroke="#191970" points="628.4865,-404.7131 638.7937,-402.2611 629.2071,-397.7503 628.4865,-404.7131"/>
</g>
<!-- Node484053 -->
<g id="node17" class="node">
<title>Node484053</title>
<g id="a_node17"><a xlink:href="quickjs_8c.html#ab1b614ef35f1cea05da0ad4927c53118" target="_top" xlink:title="JS_ToFloat64Free">
<polygon fill="none" stroke="#ff0000" points="450.5,-624.951 450.5,-643.951 547.5,-643.951 547.5,-624.951 450.5,-624.951"/>
<text text-anchor="middle" x="499" y="-631.951" font-family="Helvetica,sans-Serif" font-size="10.00" fill="#000000">JS_ToFloat64Free</text>
</a>
</g>
</g>
<!-- Node483905&#45;&gt;Node484053 -->
<g id="edge28" class="edge">
<title>Node483905&#45;&gt;Node484053</title>
<path fill="none" stroke="#191970" d="M341.4958,-530.2222C354.8962,-549.587 387.5913,-592.9073 426,-615.451 430.6588,-618.1854 435.7116,-620.532 440.9105,-622.5446"/>
<polygon fill="#191970" stroke="#191970" points="439.7778,-625.8563 450.3726,-625.8185 442.0667,-619.241 439.7778,-625.8563"/>
</g>
<!-- Node484035 -->
<g id="node18" class="node">
<title>Node484035</title>
<g id="a_node18"><a xlink:href="quickjs_8c.html#a643088ab23784b7f3c6ff94c37228256" target="_top" xlink:title="JS_ToInt32Free">
<polygon fill="none" stroke="#ff0000" points="456,-700.951 456,-719.951 542,-719.951 542,-700.951 456,-700.951"/>
<text text-anchor="middle" x="499" y="-707.951" font-family="Helvetica,sans-Serif" font-size="10.00" fill="#000000">JS_ToInt32Free</text>
</a>
</g>
</g>
<!-- Node483905&#45;&gt;Node484035 -->
<g id="edge29" class="edge">
<title>Node483905&#45;&gt;Node484035</title>
<path fill="none" stroke="#191970" d="M337.1811,-529.9544C344.356,-558.9967 370.0376,-647.2794 426,-691.451 431.8658,-696.0809 438.7435,-699.5907 445.8907,-702.2499"/>
<polygon fill="#191970" stroke="#191970" points="445.1439,-705.6849 455.7342,-705.374 447.2615,-699.0128 445.1439,-705.6849"/>
</g>
<!-- Node484295 -->
<g id="node19" class="node">
<title>Node484295</title>
<g id="a_node19"><a xlink:href="quickjs_8c.html#a4623c0fbf1417b8c089ba0f5037c5362" target="_top" xlink:title="JS_ToUint8ClampFree">
<polygon fill="none" stroke="#ff0000" points="441,-662.951 441,-681.951 557,-681.951 557,-662.951 441,-662.951"/>
<text text-anchor="middle" x="499" y="-669.951" font-family="Helvetica,sans-Serif" font-size="10.00" fill="#000000">JS_ToUint8ClampFree</text>
</a>
</g>
</g>
<!-- Node483905&#45;&gt;Node484295 -->
<g id="edge31" class="edge">
<title>Node483905&#45;&gt;Node484295</title>
<path fill="none" stroke="#191970" d="M338.8091,-530.2563C348.9507,-555.0231 379.0779,-620.4683 426,-653.451 428.8726,-655.4702 431.9443,-657.2749 435.1419,-658.8878"/>
<polygon fill="#191970" stroke="#191970" points="433.8607,-662.1475 444.4255,-662.9446 436.6637,-655.7332 433.8607,-662.1475"/>
</g>
<!-- Node484011 -->
<g id="node20" class="node">
<title>Node484011</title>
<g id="a_node20"><a xlink:href="quickjs_8c.html#a859d5c989a2aaecef1653b3ac279e108" target="_top" xlink:title="JS_ValueToAtom">
<polygon fill="none" stroke="#ff0000" points="452.5,-586.951 452.5,-605.951 545.5,-605.951 545.5,-586.951 452.5,-586.951"/>
<text text-anchor="middle" x="499" y="-593.951" font-family="Helvetica,sans-Serif" font-size="10.00" fill="#000000">JS_ValueToAtom</text>
</a>
</g>
</g>
<!-- Node483905&#45;&gt;Node484011 -->
<g id="edge33" class="edge">
<title>Node483905&#45;&gt;Node484011</title>
<path fill="none" stroke="#191970" d="M349.6506,-530.0571C367.2432,-541.297 397.9011,-559.957 426,-572.451 435.3255,-576.5975 445.5964,-580.409 455.4148,-583.7154"/>
<polygon fill="#191970" stroke="#191970" points="454.4383,-587.0783 465.0306,-586.8472 456.6061,-580.4224 454.4383,-587.0783"/>
</g>
<!-- Node484070&#45;&gt;Node483862 -->
<g id="edge14" class="edge">
<title>Node484070&#45;&gt;Node483862</title>
<path fill="none" stroke="#191970" d="M701.1223,-472.9101C710.6203,-469.259 720.6722,-464.4828 729,-458.451 756.3027,-438.6753 779.691,-406.7791 792.7882,-386.7475"/>
<polygon fill="#191970" stroke="#191970" points="795.7993,-388.535 798.2113,-378.2183 789.8922,-384.7791 795.7993,-388.535"/>
</g>
<!-- Node484070&#45;&gt;Node483901 -->
<g id="edge15" class="edge">
<title>Node484070&#45;&gt;Node483901</title>
<path fill="none" stroke="#191970" d="M706.1852,-491.9865C714.4773,-495.4697 722.6642,-500.1625 729,-506.451 776.4819,-553.5778 795.0003,-634.8181 801.2376,-671.9324"/>
<polygon fill="#191970" stroke="#191970" points="797.8001,-672.6052 802.7974,-681.9474 804.7167,-671.5278 797.8001,-672.6052"/>
</g>
<!-- Node484175&#45;&gt;Node483861 -->
<g id="edge21" class="edge">
<title>Node484175&#45;&gt;Node483861</title>
<path fill="none" stroke="#191970" d="M516.3413,-510.8256C532.7657,-500.904 557.0749,-484.0101 572,-463.451 602.1725,-421.8888 647.4341,-270.7658 663.0071,-216.7824"/>
<polygon fill="#191970" stroke="#191970" points="666.3984,-217.6531 665.7884,-207.0758 659.6692,-215.7249 666.3984,-217.6531"/>
</g>
<!-- Node484175&#45;&gt;Node483862 -->
<g id="edge22" class="edge">
<title>Node484175&#45;&gt;Node483862</title>
<path fill="none" stroke="#191970" d="M515.1819,-510.8234C536.0929,-498.6573 573.8734,-477.6012 608,-463.451 660.0689,-441.8612 678.9267,-451.3343 729,-425.451 750.1319,-414.5277 771.4623,-397.6161 785.9438,-385.0474"/>
<polygon fill="#191970" stroke="#191970" points="788.4714,-387.4837 793.6256,-378.227 783.8239,-382.2491 788.4714,-387.4837"/>
</g>
<!-- Node484175&#45;&gt;Node483900 -->
<g id="edge23" class="edge">
<title>Node484175&#45;&gt;Node483900</title>
<path fill="none" stroke="#191970" d="M512.864,-529.9681C528.076,-540.7007 552.8727,-559.065 572,-577.451 604.512,-608.7029 637.3864,-650.1059 655.1259,-673.4443"/>
<polygon fill="#191970" stroke="#191970" points="652.5434,-675.8332 661.354,-681.7174 658.1358,-671.6231 652.5434,-675.8332"/>
</g>
<!-- Node484175&#45;&gt;Node483901 -->
<g id="edge24" class="edge">
<title>Node484175&#45;&gt;Node483901</title>
<path fill="none" stroke="#191970" d="M552.2528,-510.9022C602.2683,-504.937 676.9913,-504.0663 729,-539.451 774.9028,-570.6814 793.8825,-638.4398 800.6908,-671.9206"/>
<polygon fill="#191970" stroke="#191970" points="797.2712,-672.675 802.5544,-681.8586 804.1513,-671.3848 797.2712,-672.675"/>
</g>
<!-- Node484175&#45;&gt;Node483905 -->
<g id="edge25" class="edge">
<title>Node484175&#45;&gt;Node483905</title>
<path fill="none" stroke="#191970" d="M439.861,-526.9622C427.0431,-527.2365 413.4152,-527.2745 400.3731,-527.0761"/>
<polygon fill="#191970" stroke="#191970" points="400.135,-523.5706 390.0659,-526.8663 399.9925,-530.5692 400.135,-523.5706"/>
</g>
<!-- Node484175&#45;&gt;Node483906 -->
<g id="edge19" class="edge">
<title>Node484175&#45;&gt;Node483906</title>
<path fill="none" stroke="#191970" d="M541.772,-530.04C566.1656,-535.5087 596.7665,-542.3691 621.7867,-547.9784"/>
<polygon fill="#191970" stroke="#191970" points="621.2563,-551.4463 631.7798,-550.2187 622.7876,-544.6158 621.2563,-551.4463"/>
</g>
<!-- Node484175&#45;&gt;Node484070 -->
<g id="edge20" class="edge">
<title>Node484175&#45;&gt;Node484070</title>
<path fill="none" stroke="#191970" d="M541.772,-510.862C564.3409,-505.8023 592.2232,-499.5514 616.0833,-494.2022"/>
<polygon fill="#191970" stroke="#191970" points="617.0435,-497.5739 626.0356,-491.971 615.5121,-490.7435 617.0435,-497.5739"/>
</g>
<!-- Node484175&#45;&gt;Node484085 -->
<g id="edge26" class="edge">
<title>Node484175&#45;&gt;Node484085</title>
<path fill="none" stroke="#191970" d="M511.9029,-510.864C526.6837,-499.7705 551.5043,-480.8 572,-463.451 588.5668,-449.4277 589.6079,-441.9767 608,-430.451 614.517,-426.367 621.8451,-422.7581 629.0925,-419.6605"/>
<polygon fill="#191970" stroke="#191970" points="630.8592,-422.7233 638.8414,-415.7566 628.2569,-416.2249 630.8592,-422.7233"/>
</g>
<!-- Node484085&#45;&gt;Node483862 -->
<g id="edge27" class="edge">
<title>Node484085&#45;&gt;Node483862</title>
<path fill="none" stroke="#191970" d="M698.2361,-398.1117C716.446,-393.0049 740.0733,-386.3788 760.3758,-380.6851"/>
<polygon fill="#191970" stroke="#191970" points="761.3537,-384.0459 770.0371,-377.9756 759.4635,-377.306 761.3537,-384.0459"/>
</g>
<!-- Node484035&#45;&gt;Node483900 -->
<g id="edge30" class="edge">
<title>Node484035&#45;&gt;Node483900</title>
<path fill="none" stroke="#191970" d="M542.2106,-705.6073C564.4249,-703.1172 591.6979,-700.0601 615.2073,-697.4248"/>
<polygon fill="#191970" stroke="#191970" points="615.8205,-700.8781 625.3683,-696.2858 615.0406,-693.9216 615.8205,-700.8781"/>
</g>
<!-- Node484295&#45;&gt;Node483900 -->
<g id="edge32" class="edge">
<title>Node484295&#45;&gt;Node483900</title>
<path fill="none" stroke="#191970" d="M557.3323,-678.9897C576.1586,-681.1 596.9173,-683.4269 615.3488,-685.493"/>
<polygon fill="#191970" stroke="#191970" points="614.9943,-688.9751 625.322,-686.611 615.7742,-682.0187 614.9943,-688.9751"/>
</g>
<!-- Node484011&#45;&gt;Node483900 -->
<g id="edge34" class="edge">
<title>Node484011&#45;&gt;Node483900</title>
<path fill="none" stroke="#191970" d="M545.6076,-605.5097C554.6108,-608.1062 563.7893,-611.3741 572,-615.451 602.974,-630.8305 633.4288,-657.2216 651.5933,-674.5024"/>
<polygon fill="#191970" stroke="#191970" points="649.4206,-677.2713 659.0321,-681.7289 654.2982,-672.2504 649.4206,-677.2713"/>
</g>
<!-- Node484296&#45;&gt;Node483861 -->
<g id="edge38" class="edge">
<title>Node484296&#45;&gt;Node483861</title>
<path fill="none" stroke="#191970" d="M230.407,-225.9074C245.9995,-222.6583 263.7457,-219.1654 280,-216.451 344.5423,-205.6727 360.7009,-201.682 426,-197.451 493.0708,-193.1051 570.7955,-194.1795 619.803,-195.604"/>
<polygon fill="#191970" stroke="#191970" points="619.7079,-199.1026 629.8107,-195.9114 619.9229,-192.1059 619.7079,-199.1026"/>
</g>
<!-- Node484296&#45;&gt;Node483862 -->
<g id="edge39" class="edge">
<title>Node484296&#45;&gt;Node483862</title>
<path fill="none" stroke="#191970" d="M230.8874,-245.0213C246.3672,-248.2364 263.9189,-251.7009 280,-254.451 478.5665,-288.408 541.3096,-243.2796 729,-316.451 750.4721,-324.8219 771.7561,-340.4674 786.1341,-352.4186"/>
<polygon fill="#191970" stroke="#191970" points="783.8799,-355.0962 793.7508,-358.9455 788.4348,-349.7808 783.8799,-355.0962"/>
</g>
<!-- Node484296&#45;&gt;Node483900 -->
<g id="edge40" class="edge">
<title>Node484296&#45;&gt;Node483900</title>
<path fill="none" stroke="#191970" d="M187.68,-245.0864C192.5355,-305.4167 227.7257,-631.7577 426,-729.451 497.9109,-764.8827 595.0834,-727.7215 641.5598,-705.523"/>
<polygon fill="#191970" stroke="#191970" points="643.2468,-708.5938 650.6806,-701.0447 640.1616,-702.3104 643.2468,-708.5938"/>
</g>
<!-- Node484233 -->
<g id="node22" class="node">
<title>Node484233</title>
<g id="a_node22"><a xlink:href="quickjs_8c.html#a28704096ee67c5b0ab1bd60ce050e36a" target="_top" xlink:title="JS_CallConstructor">
<polygon fill="none" stroke="#ff0000" points="284,-130.951 284,-149.951 386,-149.951 386,-130.951 284,-130.951"/>
<text text-anchor="middle" x="335" y="-137.951" font-family="Helvetica,sans-Serif" font-size="10.00" fill="#000000">JS_CallConstructor</text>
</a>
</g>
</g>
<!-- Node484296&#45;&gt;Node484233 -->
<g id="edge37" class="edge">
<title>Node484296&#45;&gt;Node484233</title>
<path fill="none" stroke="#191970" d="M197.8322,-225.782C214.5727,-211.1739 248.1347,-183.1964 280,-164.451 286.4204,-160.674 293.5448,-157.1347 300.4791,-153.9949"/>
<polygon fill="#191970" stroke="#191970" points="301.9548,-157.1698 309.7331,-149.9761 299.1665,-150.7491 301.9548,-157.1698"/>
</g>
<!-- Node484297 -->
<g id="node23" class="node">
<title>Node484297</title>
<g id="a_node23"><a xlink:href="quickjs_8c.html#a07acd485a57197356906928a788a0644" target="_top" xlink:title="JS_ToLengthFree">
<polygon fill="none" stroke="#000000" points="288,-225.951 288,-244.951 382,-244.951 382,-225.951 288,-225.951"/>
<text text-anchor="middle" x="335" y="-232.951" font-family="Helvetica,sans-Serif" font-size="10.00" fill="#000000">JS_ToLengthFree</text>
</a>
</g>
</g>
<!-- Node484296&#45;&gt;Node484297 -->
<g id="edge41" class="edge">
<title>Node484296&#45;&gt;Node484297</title>
<path fill="none" stroke="#191970" d="M243.7974,-235.451C254.9067,-235.451 266.5635,-235.451 277.6894,-235.451"/>
<polygon fill="#191970" stroke="#191970" points="277.7268,-238.9511 287.7268,-235.451 277.7267,-231.9511 277.7268,-238.9511"/>
</g>
<!-- Node484300 -->
<g id="node25" class="node">
<title>Node484300</title>
<g id="a_node25"><a xlink:href="quickjs_8c.html#add71c7e0efcb1fd14572d39e2672971d" target="_top" xlink:title="js_typed_array_get\l_length_internal">
<polygon fill="none" stroke="#000000" points="285.5,-81.451 285.5,-111.451 384.5,-111.451 384.5,-81.451 285.5,-81.451"/>
<text text-anchor="start" x="293.5" y="-99.451" font-family="Helvetica,sans-Serif" font-size="10.00" fill="#000000">js_typed_array_get</text>
<text text-anchor="middle" x="335" y="-88.451" font-family="Helvetica,sans-Serif" font-size="10.00" fill="#000000">_length_internal</text>
</a>
</g>
</g>
<!-- Node484296&#45;&gt;Node484300 -->
<g id="edge45" class="edge">
<title>Node484296&#45;&gt;Node484300</title>
<path fill="none" stroke="#191970" d="M192.5949,-225.9486C205.5345,-204.6731 239.5365,-152.6327 280,-121.451 282.2588,-119.7103 284.6581,-118.0575 287.1426,-116.4933"/>
<polygon fill="#191970" stroke="#191970" points="288.8961,-119.5225 295.838,-111.5186 285.42,-113.4465 288.8961,-119.5225"/>
</g>
<!-- Node484297&#45;&gt;Node483862 -->
<g id="edge42" class="edge">
<title>Node484297&#45;&gt;Node483862</title>
<path fill="none" stroke="#191970" d="M382.0815,-236.2266C473.2339,-238.4307 670.0324,-246.8177 729,-278.451 759.1717,-294.6366 782.0935,-328.4524 794.2537,-349.7131"/>
<polygon fill="#191970" stroke="#191970" points="791.3314,-351.6633 799.2075,-358.7498 797.4696,-348.2984 791.3314,-351.6633"/>
</g>
<!-- Node484298 -->
<g id="node24" class="node">
<title>Node484298</title>
<g id="a_node24"><a xlink:href="quickjs_8c.html#a537e88d38784e3df2a19c72f8bd1d77e" target="_top" xlink:title="JS_ToInt64Clamp">
<polygon fill="none" stroke="#ff0000" points="451.5,-206.951 451.5,-225.951 546.5,-225.951 546.5,-206.951 451.5,-206.951"/>
<text text-anchor="middle" x="499" y="-213.951" font-family="Helvetica,sans-Serif" font-size="10.00" fill="#000000">JS_ToInt64Clamp</text>
</a>
</g>
</g>
<!-- Node484297&#45;&gt;Node484298 -->
<g id="edge43" class="edge">
<title>Node484297&#45;&gt;Node484298</title>
<path fill="none" stroke="#191970" d="M382.4356,-229.9554C400.7988,-227.8279 421.9927,-225.3725 441.2314,-223.1437"/>
<polygon fill="#191970" stroke="#191970" points="441.8564,-226.5948 451.3872,-221.9671 441.0508,-219.6413 441.8564,-226.5948"/>
</g>
<!-- Node484298&#45;&gt;Node483861 -->
<g id="edge44" class="edge">
<title>Node484298&#45;&gt;Node483861</title>
<path fill="none" stroke="#191970" d="M546.6663,-211.1078C569.423,-208.557 596.6232,-205.508 619.544,-202.9387"/>
<polygon fill="#191970" stroke="#191970" points="620.1949,-206.3877 629.7428,-201.7954 619.4151,-199.4313 620.1949,-206.3877"/>
</g>
<!-- Node484301 -->
<g id="node26" class="node">
<title>Node484301</title>
<g id="a_node26"><a xlink:href="quickjs_8c.html#af894945c3459f86096c1821a0a696934" target="_top" xlink:title="get_typed_array">
<polygon fill="none" stroke="#000000" points="456,-130.951 456,-149.951 542,-149.951 542,-130.951 456,-130.951"/>
<text text-anchor="middle" x="499" y="-137.951" font-family="Helvetica,sans-Serif" font-size="10.00" fill="#000000">get_typed_array</text>
</a>
</g>
</g>
<!-- Node484300&#45;&gt;Node484301 -->
<g id="edge46" class="edge">
<title>Node484300&#45;&gt;Node484301</title>
<path fill="none" stroke="#191970" d="M384.5572,-110.196C397.9948,-113.8873 412.5466,-117.8524 426,-121.451 434.3655,-123.6886 443.2799,-126.038 451.9015,-128.292"/>
<polygon fill="#191970" stroke="#191970" points="451.278,-131.7464 461.8375,-130.8819 453.0437,-124.9727 451.278,-131.7464"/>
</g>
<!-- Node484116 -->
<g id="node27" class="node">
<title>Node484116</title>
<g id="a_node27"><a xlink:href="quickjs_8c.html#a033dd3ebd29c4eb9f0baff1dd0fec0b1" target="_top" xlink:title="JS_ThrowTypeErrorDetached\lArrayBuffer">
<polygon fill="none" stroke="#000000" points="426,-81.451 426,-111.451 572,-111.451 572,-81.451 426,-81.451"/>
<text text-anchor="start" x="434" y="-99.451" font-family="Helvetica,sans-Serif" font-size="10.00" fill="#000000">JS_ThrowTypeErrorDetached</text>
<text text-anchor="middle" x="499" y="-88.451" font-family="Helvetica,sans-Serif" font-size="10.00" fill="#000000">ArrayBuffer</text>
</a>
</g>
</g>
<!-- Node484300&#45;&gt;Node484116 -->
<g id="edge47" class="edge">
<title>Node484300&#45;&gt;Node484116</title>
<path fill="none" stroke="#191970" d="M384.6505,-96.451C394.5097,-96.451 405.112,-96.451 415.7425,-96.451"/>
<polygon fill="#191970" stroke="#191970" points="415.9199,-99.9511 425.9199,-96.451 415.9198,-92.9511 415.9199,-99.9511"/>
</g>
<!-- Node484117 -->
<g id="node28" class="node">
<title>Node484117</title>
<g id="a_node28"><a xlink:href="quickjs_8c.html#a869fa88a646c0a1914ec2e559b193b5c" target="_top" xlink:title="typed_array_is_detached">
<polygon fill="none" stroke="#000000" points="436.5,-42.951 436.5,-61.951 561.5,-61.951 561.5,-42.951 436.5,-42.951"/>
<text text-anchor="middle" x="499" y="-49.951" font-family="Helvetica,sans-Serif" font-size="10.00" fill="#000000">typed_array_is_detached</text>
</a>
</g>
</g>
<!-- Node484300&#45;&gt;Node484117 -->
<g id="edge48" class="edge">
<title>Node484300&#45;&gt;Node484117</title>
<path fill="none" stroke="#191970" d="M384.6505,-83.1301C406.6249,-77.2345 432.2906,-70.3486 453.7326,-64.5959"/>
<polygon fill="#191970" stroke="#191970" points="454.8192,-67.9282 463.5706,-61.9564 453.0052,-61.1673 454.8192,-67.9282"/>
</g>
</g>
</svg>
        <g id="navigator" transform="translate(0 0)" fill="#404254">
                <rect fill="#f2f5e9" fill-opacity="0.5" stroke="#606060" stroke-width=".5" x="0" y="0" width="60" height="60"/>
                <use id="zoomplus" xlink:href="#zoomPlus" x="17" y="9" onmousedown="handleZoom(evt,'in')"/>
                <use id="zoomminus" xlink:href="#zoomMin" x="42" y="9" onmousedown="handleZoom(evt,'out')"/>
                <use id="reset" xlink:href="#resetDef" x="30" y="36" onmousedown="handleReset()"/>
                <g id="arrowUp" xlink:href="#dirArrow" transform="translate(30 24)" onmousedown="handlePan(0,-1)">
                  <use xlink:href="#rim" fill="#404040">
                        <set attributeName="fill" to="#808080" begin="arrowUp.mouseover" end="arrowUp.mouseout"/>
                  </use>
                  <path fill="none" stroke="white" stroke-width="1.5" d="M0,-3.0v7 M-2.5,-0.5L0,-3.0L2.5,-0.5"/>
                </g>
                <g id="arrowRight" xlink:href="#dirArrow" transform="rotate(90) translate(36 -43)" onmousedown="handlePan(1,0)">
                  <use xlink:href="#rim" fill="#404040">
                        <set attributeName="fill" to="#808080" begin="arrowRight.mouseover" end="arrowRight.mouseout"/>
                  </use>
                  <path fill="none" stroke="white" stroke-width="1.5" d="M0,-3.0v7 M-2.5,-0.5L0,-3.0L2.5,-0.5"/>
                </g>
                <g id="arrowDown" xlink:href="#dirArrow" transform="rotate(180) translate(-30 -48)" onmousedown="handlePan(0,1)">
                  <use xlink:href="#rim" fill="#404040">
                        <set attributeName="fill" to="#808080" begin="arrowDown.mouseover" end="arrowDown.mouseout"/>
                  </use>
                  <path fill="none" stroke="white" stroke-width="1.5" d="M0,-3.0v7 M-2.5,-0.5L0,-3.0L2.5,-0.5"/>
                </g>
                <g id="arrowLeft" xlink:href="#dirArrow" transform="rotate(270) translate(-36 17)" onmousedown="handlePan(-1,0)">
                  <use xlink:href="#rim" fill="#404040">
                        <set attributeName="fill" to="#808080" begin="arrowLeft.mouseover" end="arrowLeft.mouseout"/>
                  </use>
                  <path fill="none" stroke="white" stroke-width="1.5" d="M0,-3.0v7 M-2.5,-0.5L0,-3.0L2.5,-0.5"/>
                </g>
        </g>
        <svg viewBox="0 0 15 15" width="100%" height="30px" preserveAspectRatio="xMaxYMin meet">
         <g id="arrow_out" transform="scale(0.3 0.3)">
          <a xlink:href="quickjs_8c_a36967d647cc965999043c6cfdeb9e943_cgraph_org.svg" target="_base">
           <rect id="button" ry="5" rx="5" y="6" x="6" height="38" width="38"
                fill="#f2f5e9" fill-opacity="0.5" stroke="#606060" stroke-width="1.0"/>
           <path id="arrow"
             d="M 11.500037,31.436501 C 11.940474,20.09759 22.043105,11.32322 32.158766,21.979434 L 37.068811,17.246167 C 37.068811,17.246167 37.088388,32 37.088388,32 L 22.160133,31.978069 C 22.160133,31.978069 26.997745,27.140456 26.997745,27.140456 C 18.528582,18.264221 13.291696,25.230495 11.500037,31.436501 z"
             style="fill:#404040;"/>
          </a>
         </g>
        </svg>
</svg>
