<?xml version="1.0" encoding="UTF-8" standalone="no"?>
<!DOCTYPE svg PUBLIC "-//W3C//DTD SVG 1.1//EN"
 "http://www.w3.org/Graphics/SVG/1.1/DTD/svg11.dtd">
<!-- Generated by graphviz version 2.40.1 (20161225.0304)
 -->
<!-- Title: js_function_apply Pages: 1 -->
<!--zoomable 915 -->
<svg id="main" version="1.1" xmlns="http://www.w3.org/2000/svg" xmlns:xlink="http://www.w3.org/1999/xlink" xml:space="preserve" onload="init(evt)">
<style type="text/css"><![CDATA[
.edge:hover path { stroke: red; }
.edge:hover polygon { stroke: red; fill: red; }
]]></style>
<script type="text/javascript"><![CDATA[
var edges = document.getElementsByTagName('g');
if (edges && edges.length) {
  for (var i=0;i<edges.length;i++) {
    if (edges[i].id.substr(0,4)=='edge') {
      edges[i].setAttribute('class','edge');
    }
  }
}
]]></script>
        <defs>
                <circle id="rim" cx="0" cy="0" r="7"/>
                <circle id="rim2" cx="0" cy="0" r="3.5"/>
                <g id="zoomPlus">
                        <use xlink:href="#rim" fill="#404040">
                                <set attributeName="fill" to="#808080" begin="zoomplus.mouseover" end="zoomplus.mouseout"/>
                        </use>
                        <path d="M-4,0h8M0,-4v8" fill="none" stroke="white" stroke-width="1.5" pointer-events="none"/>
                </g>
                <g id="zoomMin">
                        <use xlink:href="#rim" fill="#404040">
                                <set attributeName="fill" to="#808080" begin="zoomminus.mouseover" end="zoomminus.mouseout"/>
                        </use>
                        <path d="M-4,0h8" fill="none" stroke="white" stroke-width="1.5" pointer-events="none"/>
                </g>
                <g id="dirArrow">
                        <path fill="none" stroke="white" stroke-width="1.5" d="M0,-3.0v7 M-2.5,-0.5L0,-3.0L2.5,-0.5"/>
                </g>
               <g id="resetDef">
                       <use xlink:href="#rim2" fill="#404040">
                               <set attributeName="fill" to="#808080" begin="reset.mouseover" end="reset.mouseout"/>
                       </use>
               </g>
        </defs>

<script type="text/javascript">
var viewWidth = 752;
var viewHeight = 915;
var sectionId = 'dynsection-1455';
</script>
<script xlink:href="svgpan.js"/>
<svg id="graph" class="graph">
<g id="viewport">
<title>js_function_apply</title>
<!-- Node391257 -->
<g id="node1" class="node">
<title>Node391257</title>
<polygon fill="#bfbfbf" stroke="#000000" points="0,-156 0,-175 92,-175 92,-156 0,-156"/>
<text text-anchor="middle" x="46" y="-163" font-family="Helvetica,sans-Serif" font-size="10.00" fill="#000000">js_function_apply</text>
</g>
<!-- Node391258 -->
<g id="node2" class="node">
<title>Node391258</title>
<g id="a_node2"><a xlink:href="quickjs_8c.html#ac2894ff4edcdb4e6841bcce9c76081e3" target="_top" xlink:title="JS_CallInternal">
<polygon fill="none" stroke="#000000" points="153.5,-175 153.5,-194 236.5,-194 236.5,-175 153.5,-175"/>
<text text-anchor="middle" x="195" y="-182" font-family="Helvetica,sans-Serif" font-size="10.00" fill="#000000">JS_CallInternal</text>
</a>
</g>
</g>
<!-- Node391257&#45;&gt;Node391258 -->
<g id="edge1" class="edge">
<title>Node391257&#45;&gt;Node391258</title>
<path fill="none" stroke="#191970" d="M102.6047,-172.7181C119.4322,-174.8638 137.5544,-177.1747 153.2537,-179.1766"/>
<polygon fill="#191970" stroke="#191970" points="102.6902,-169.2007 92.3278,-171.4076 101.8047,-176.1445 102.6902,-169.2007"/>
</g>
<!-- Node391866 -->
<g id="node29" class="node">
<title>Node391866</title>
<g id="a_node29"><a xlink:href="quickjs_8c.html#a710202e2f99e7c52937df93b912a857b" target="_top" xlink:title="js_reflect_apply">
<polygon fill="none" stroke="#000000" points="152.5,-137 152.5,-156 237.5,-156 237.5,-137 152.5,-137"/>
<text text-anchor="middle" x="195" y="-144" font-family="Helvetica,sans-Serif" font-size="10.00" fill="#000000">js_reflect_apply</text>
</a>
</g>
</g>
<!-- Node391257&#45;&gt;Node391866 -->
<g id="edge39" class="edge">
<title>Node391257&#45;&gt;Node391866</title>
<path fill="none" stroke="#191970" d="M102.421,-158.3054C118.9439,-156.1984 136.7296,-153.9305 152.2527,-151.951"/>
<polygon fill="#191970" stroke="#191970" points="101.8047,-154.8555 92.3278,-159.5924 102.6902,-161.7993 101.8047,-154.8555"/>
</g>
<!-- Node391402 -->
<g id="node30" class="node">
<title>Node391402</title>
<g id="a_node30"><a xlink:href="quickjs_8c.html#a6a77bcdb9f7f18c13c108c99a198708b" target="_top" xlink:title="js_regexp_Symbol_replace">
<polygon fill="none" stroke="#000000" points="128,-99 128,-118 262,-118 262,-99 128,-99"/>
<text text-anchor="middle" x="195" y="-106" font-family="Helvetica,sans-Serif" font-size="10.00" fill="#000000">js_regexp_Symbol_replace</text>
</a>
</g>
</g>
<!-- Node391257&#45;&gt;Node391402 -->
<g id="edge40" class="edge">
<title>Node391257&#45;&gt;Node391402</title>
<path fill="none" stroke="#191970" d="M73.6675,-151.3501C89.3497,-143.6688 109.4821,-134.3676 128,-127.5 137.409,-124.0105 147.7597,-120.7865 157.4525,-118.0227"/>
<polygon fill="#191970" stroke="#191970" points="71.9318,-148.3042 64.5325,-155.8871 75.0456,-154.5735 71.9318,-148.3042"/>
</g>
<!-- Node391258&#45;&gt;Node391258 -->
<g id="edge38" class="edge">
<title>Node391258&#45;&gt;Node391258</title>
<path fill="none" stroke="#191970" d="M167.3742,-203.1539C168.5289,-208.4368 177.7375,-212.5 195,-212.5 221.3047,-212.5 228.9084,-203.0653 217.8111,-194.2571"/>
<polygon fill="#191970" stroke="#191970" points="170.5076,-204.7176 172.1889,-194.2571 164.3512,-201.386 170.5076,-204.7176"/>
</g>
<!-- Node391259 -->
<g id="node3" class="node">
<title>Node391259</title>
<g id="a_node3"><a xlink:href="quickjs_8c.html#ade71a22dc56e7371392393df663b28b3" target="_top" xlink:title="async_func_resume">
<polygon fill="none" stroke="#000000" points="313,-137 313,-156 417,-156 417,-137 313,-137"/>
<text text-anchor="middle" x="365" y="-144" font-family="Helvetica,sans-Serif" font-size="10.00" fill="#000000">async_func_resume</text>
</a>
</g>
</g>
<!-- Node391258&#45;&gt;Node391259 -->
<g id="edge2" class="edge">
<title>Node391258&#45;&gt;Node391259</title>
<path fill="none" stroke="#191970" d="M246.3508,-173.0216C270.6389,-167.5925 299.2981,-161.1863 322.3649,-156.0302"/>
<polygon fill="#191970" stroke="#191970" points="245.5823,-169.6069 236.5867,-175.2042 247.1094,-176.4383 245.5823,-169.6069"/>
</g>
<!-- Node391278 -->
<g id="node8" class="node">
<title>Node391278</title>
<g id="a_node8"><a xlink:href="quickjs_8c.html#a1a4c02a29525d5cb2085dd8bca3af350" target="_top" xlink:title="JS_Call">
<polygon fill="none" stroke="#ff0000" points="339.5,-449 339.5,-468 390.5,-468 390.5,-449 339.5,-449"/>
<text text-anchor="middle" x="365" y="-456" font-family="Helvetica,sans-Serif" font-size="10.00" fill="#000000">JS_Call</text>
</a>
</g>
</g>
<!-- Node391258&#45;&gt;Node391278 -->
<g id="edge7" class="edge">
<title>Node391258&#45;&gt;Node391278</title>
<path fill="none" stroke="#191970" d="M208.7388,-202.7525C244.4423,-256.0305 338.8818,-408.7552 360.5332,-448.9408"/>
<polygon fill="#191970" stroke="#191970" points="211.491,-200.5755 202.9714,-194.2772 205.7038,-204.5137 211.491,-200.5755"/>
</g>
<!-- Node391361 -->
<g id="node27" class="node">
<title>Node391361</title>
<g id="a_node27"><a xlink:href="quickjs_8c.html#ad35594576a14c10812efaf958c99af8a" target="_top" xlink:title="JS_CallConstructorInternal">
<polygon fill="none" stroke="#ff0000" points="298,-99 298,-118 432,-118 432,-99 298,-99"/>
<text text-anchor="middle" x="365" y="-106" font-family="Helvetica,sans-Serif" font-size="10.00" fill="#000000">JS_CallConstructorInternal</text>
</a>
</g>
</g>
<!-- Node391258&#45;&gt;Node391361 -->
<g id="edge33" class="edge">
<title>Node391258&#45;&gt;Node391361</title>
<path fill="none" stroke="#191970" d="M221.9184,-172.1709C234.7174,-168.469 249.8398,-163.8617 262,-156.5 281.9016,-144.4518 278.0984,-130.5482 298,-118.5 298.2069,-118.3748 298.4146,-118.2503 298.6231,-118.1267"/>
<polygon fill="#191970" stroke="#191970" points="220.8783,-168.8283 212.253,-174.981 222.8326,-175.55 220.8783,-168.8283"/>
</g>
<!-- Node391375 -->
<g id="node28" class="node">
<title>Node391375</title>
<g id="a_node28"><a xlink:href="quickjs_8c.html#a75f6ee5e4235a7dc99889f3d2eb2c147" target="_top" xlink:title="JS_CallFree">
<polygon fill="none" stroke="#ff0000" points="329.5,-175 329.5,-194 400.5,-194 400.5,-175 329.5,-175"/>
<text text-anchor="middle" x="365" y="-182" font-family="Helvetica,sans-Serif" font-size="10.00" fill="#000000">JS_CallFree</text>
</a>
</g>
</g>
<!-- Node391258&#45;&gt;Node391375 -->
<g id="edge35" class="edge">
<title>Node391258&#45;&gt;Node391375</title>
<path fill="none" stroke="#191970" d="M246.9076,-178.2269C273.5855,-177.419 305.4172,-177.6376 329.3066,-178.8826"/>
<polygon fill="#191970" stroke="#191970" points="246.4526,-174.7411 236.5867,-178.6029 246.7075,-181.7364 246.4526,-174.7411"/>
</g>
<!-- Node391260 -->
<g id="node4" class="node">
<title>Node391260</title>
<g id="a_node4"><a xlink:href="quickjs_8c.html#a1bf6b62983e8fff99c0a5d5a9f486115" target="_top" xlink:title="js_async_function_resume">
<polygon fill="none" stroke="#ff0000" points="468,-137 468,-156 601,-156 601,-137 468,-137"/>
<text text-anchor="middle" x="534.5" y="-144" font-family="Helvetica,sans-Serif" font-size="10.00" fill="#000000">js_async_function_resume</text>
</a>
</g>
</g>
<!-- Node391259&#45;&gt;Node391260 -->
<g id="edge3" class="edge">
<title>Node391259&#45;&gt;Node391260</title>
<path fill="none" stroke="#191970" d="M427.5492,-146.5C440.6415,-146.5 454.4944,-146.5 467.7334,-146.5"/>
<polygon fill="#191970" stroke="#191970" points="427.2387,-143.0001 417.2387,-146.5 427.2386,-150.0001 427.2387,-143.0001"/>
</g>
<!-- Node391268 -->
<g id="node5" class="node">
<title>Node391268</title>
<g id="a_node5"><a xlink:href="quickjs_8c.html#ae19867da709929c072f05e90301835a4" target="_top" xlink:title="js_async_generator\l_function_call">
<polygon fill="none" stroke="#ff0000" points="484,-49.5 484,-79.5 585,-79.5 585,-49.5 484,-49.5"/>
<text text-anchor="start" x="492" y="-67.5" font-family="Helvetica,sans-Serif" font-size="10.00" fill="#000000">js_async_generator</text>
<text text-anchor="middle" x="534.5" y="-56.5" font-family="Helvetica,sans-Serif" font-size="10.00" fill="#000000">_function_call</text>
</a>
</g>
</g>
<!-- Node391259&#45;&gt;Node391268 -->
<g id="edge4" class="edge">
<title>Node391259&#45;&gt;Node391268</title>
<path fill="none" stroke="#191970" d="M420.5347,-133.3495C424.5252,-131.625 428.3929,-129.6837 432,-127.5 451.9016,-115.4518 448.6171,-102.3661 468,-89.5 473.6519,-85.7483 479.9447,-82.4548 486.3422,-79.5956"/>
<polygon fill="#191970" stroke="#191970" points="419.1427,-130.1349 411.066,-136.9918 421.6559,-136.6682 419.1427,-130.1349"/>
</g>
<!-- Node391269 -->
<g id="node6" class="node">
<title>Node391269</title>
<g id="a_node6"><a xlink:href="quickjs_8c.html#a89b019c704a2d2914bc30b30a72040b3" target="_top" xlink:title="js_async_generator\l_resume_next">
<polygon fill="none" stroke="#000000" points="484,-.5 484,-30.5 585,-30.5 585,-.5 484,-.5"/>
<text text-anchor="start" x="492" y="-18.5" font-family="Helvetica,sans-Serif" font-size="10.00" fill="#000000">js_async_generator</text>
<text text-anchor="middle" x="534.5" y="-7.5" font-family="Helvetica,sans-Serif" font-size="10.00" fill="#000000">_resume_next</text>
</a>
</g>
</g>
<!-- Node391259&#45;&gt;Node391269 -->
<g id="edge5" class="edge">
<title>Node391259&#45;&gt;Node391269</title>
<path fill="none" stroke="#191970" d="M426.3923,-131.8368C428.3634,-130.5133 430.2422,-129.0712 432,-127.5 463.5059,-99.3387 437.4992,-68.7469 468,-39.5 472.6068,-35.0826 478.0859,-31.4695 483.8927,-28.5163"/>
<polygon fill="#191970" stroke="#191970" points="424.2921,-128.9995 417.2475,-136.9131 427.6895,-135.1198 424.2921,-128.9995"/>
</g>
<!-- Node391270 -->
<g id="node7" class="node">
<title>Node391270</title>
<g id="a_node7"><a xlink:href="quickjs_8c.html#ac90552b1f1659acb3dae9a4c62479a30" target="_top" xlink:title="js_generator_function_call">
<polygon fill="none" stroke="#ff0000" points="469.5,-99 469.5,-118 599.5,-118 599.5,-99 469.5,-99"/>
<text text-anchor="middle" x="534.5" y="-106" font-family="Helvetica,sans-Serif" font-size="10.00" fill="#000000">js_generator_function_call</text>
</a>
</g>
</g>
<!-- Node391259&#45;&gt;Node391270 -->
<g id="edge6" class="edge">
<title>Node391259&#45;&gt;Node391270</title>
<path fill="none" stroke="#191970" d="M417.7425,-134.6757C441.639,-129.3184 469.5152,-123.0689 492.0356,-118.0201"/>
<polygon fill="#191970" stroke="#191970" points="416.7641,-131.3081 407.772,-136.911 418.2955,-138.1386 416.7641,-131.3081"/>
</g>
<!-- Node391278&#45;&gt;Node391257 -->
<g id="edge25" class="edge">
<title>Node391278&#45;&gt;Node391257</title>
<path fill="none" stroke="#191970" d="M346.9013,-441.8765C288.0097,-387.7848 102.9737,-217.8301 56.6137,-175.2486"/>
<polygon fill="#191970" stroke="#191970" points="344.614,-444.5279 354.3464,-448.7148 349.3492,-439.3725 344.614,-444.5279"/>
</g>
<!-- Node391278&#45;&gt;Node391258 -->
<g id="edge21" class="edge">
<title>Node391278&#45;&gt;Node391258</title>
<path fill="none" stroke="#191970" d="M351.3299,-440.3501C315.7229,-387.2312 221.3646,-234.6465 199.5471,-194.2081"/>
<polygon fill="#191970" stroke="#191970" points="348.5592,-442.4997 357.0798,-448.7966 354.3457,-438.5606 348.5592,-442.4997"/>
</g>
<!-- Node391278&#45;&gt;Node391260 -->
<g id="edge17" class="edge">
<title>Node391278&#45;&gt;Node391260</title>
<path fill="none" stroke="#191970" d="M365.9541,-438.7073C369.5787,-386.1656 386.812,-241.9769 468,-165.5 472.1079,-161.6305 476.9488,-158.5414 482.1153,-156.0766"/>
<polygon fill="#191970" stroke="#191970" points="362.4427,-438.797 365.3435,-448.9869 369.4304,-439.2121 362.4427,-438.797"/>
</g>
<!-- Node391279 -->
<g id="node9" class="node">
<title>Node391279</title>
<g id="a_node9"><a xlink:href="quickjs-libc_8c.html#abb1cbe3fdf905e81f603a3a0bfce475a" target="_top" xlink:title="call_handler">
<polygon fill="none" stroke="#000000" points="500.5,-251 500.5,-270 568.5,-270 568.5,-251 500.5,-251"/>
<text text-anchor="middle" x="534.5" y="-258" font-family="Helvetica,sans-Serif" font-size="10.00" fill="#000000">call_handler</text>
</a>
</g>
</g>
<!-- Node391278&#45;&gt;Node391279 -->
<g id="edge8" class="edge">
<title>Node391278&#45;&gt;Node391279</title>
<path fill="none" stroke="#191970" d="M370.7469,-439.0297C382.6392,-402.1753 413.495,-322.1058 468,-279.5 477.2707,-272.2532 489.1888,-267.7704 500.3688,-264.9973"/>
<polygon fill="#191970" stroke="#191970" points="367.3973,-438.0146 367.775,-448.6028 374.0826,-440.0901 367.3973,-438.0146"/>
</g>
<!-- Node391280 -->
<g id="node10" class="node">
<title>Node391280</title>
<g id="a_node10"><a xlink:href="quickjs-libc_8c.html#a9fa4c190ba56314c7ed9b00bbc7ad0f9" target="_top" xlink:title="handle_posted_message">
<polygon fill="none" stroke="#000000" points="472,-213 472,-232 597,-232 597,-213 472,-213"/>
<text text-anchor="middle" x="534.5" y="-220" font-family="Helvetica,sans-Serif" font-size="10.00" fill="#000000">handle_posted_message</text>
</a>
</g>
</g>
<!-- Node391278&#45;&gt;Node391280 -->
<g id="edge9" class="edge">
<title>Node391278&#45;&gt;Node391280</title>
<path fill="none" stroke="#191970" d="M368.6018,-439.1234C377.5124,-396.719 404.6233,-295.2035 468,-241.5 472.5803,-237.6188 477.9082,-234.5289 483.5169,-232.0693"/>
<polygon fill="#191970" stroke="#191970" points="365.1557,-438.5081 366.6361,-448.999 372.021,-439.8746 365.1557,-438.5081"/>
</g>
<!-- Node391281 -->
<g id="node11" class="node">
<title>Node391281</title>
<g id="a_node11"><a xlink:href="quickjs_8c.html#a624282391413d4c5a030adbd8b77aa80" target="_top" xlink:title="internalize_json_property">
<polygon fill="none" stroke="#ff0000" points="472,-869 472,-888 597,-888 597,-869 472,-869"/>
<text text-anchor="middle" x="534.5" y="-876" font-family="Helvetica,sans-Serif" font-size="10.00" fill="#000000">internalize_json_property</text>
</a>
</g>
</g>
<!-- Node391278&#45;&gt;Node391281 -->
<g id="edge10" class="edge">
<title>Node391278&#45;&gt;Node391281</title>
<path fill="none" stroke="#191970" d="M367.4802,-478.3504C376.9778,-551.3061 413.2695,-803.2784 468,-859.5 471.769,-863.3716 476.2677,-866.4692 481.1231,-868.9453"/>
<polygon fill="#191970" stroke="#191970" points="370.9271,-477.7113 366.1873,-468.2358 363.9836,-478.599 370.9271,-477.7113"/>
</g>
<!-- Node391283 -->
<g id="node12" class="node">
<title>Node391283</title>
<g id="a_node12"><a xlink:href="quickjs_8c.html#aa0bbf08a7e91459c68a312fba7016c6d" target="_top" xlink:title="js_array_every">
<polygon fill="none" stroke="#000000" points="494.5,-831 494.5,-850 574.5,-850 574.5,-831 494.5,-831"/>
<text text-anchor="middle" x="534.5" y="-838" font-family="Helvetica,sans-Serif" font-size="10.00" fill="#000000">js_array_every</text>
</a>
</g>
</g>
<!-- Node391278&#45;&gt;Node391283 -->
<g id="edge12" class="edge">
<title>Node391278&#45;&gt;Node391283</title>
<path fill="none" stroke="#191970" d="M368.0292,-478.222C378.8912,-546.4929 417.914,-771.3228 468,-821.5 475.1254,-828.6384 484.7345,-833.1378 494.4303,-835.9616"/>
<polygon fill="#191970" stroke="#191970" points="371.4856,-477.6705 366.4799,-468.3328 364.5699,-478.754 371.4856,-477.6705"/>
</g>
<!-- Node391284 -->
<g id="node13" class="node">
<title>Node391284</title>
<g id="a_node13"><a xlink:href="quickjs_8c.html#a9dd41b086da4e13b3487cc9c6e2af2b8" target="_top" xlink:title="js_array_find">
<polygon fill="none" stroke="#000000" points="498.5,-793 498.5,-812 570.5,-812 570.5,-793 498.5,-793"/>
<text text-anchor="middle" x="534.5" y="-800" font-family="Helvetica,sans-Serif" font-size="10.00" fill="#000000">js_array_find</text>
</a>
</g>
</g>
<!-- Node391278&#45;&gt;Node391284 -->
<g id="edge13" class="edge">
<title>Node391278&#45;&gt;Node391284</title>
<path fill="none" stroke="#191970" d="M368.7152,-478.1821C381.0661,-541.6469 422.5508,-739.3328 468,-783.5 476.1804,-791.4496 487.4471,-796.1156 498.383,-798.8403"/>
<polygon fill="#191970" stroke="#191970" points="372.1339,-477.4251 366.8111,-468.2645 365.2595,-478.7451 372.1339,-477.4251"/>
</g>
<!-- Node391285 -->
<g id="node14" class="node">
<title>Node391285</title>
<g id="a_node14"><a xlink:href="quickjs_8c.html#a5e32da9a43002cb96dcbd62a1a340144" target="_top" xlink:title="js_array_from">
<polygon fill="none" stroke="#000000" points="496.5,-755 496.5,-774 572.5,-774 572.5,-755 496.5,-755"/>
<text text-anchor="middle" x="534.5" y="-762" font-family="Helvetica,sans-Serif" font-size="10.00" fill="#000000">js_array_from</text>
</a>
</g>
</g>
<!-- Node391278&#45;&gt;Node391285 -->
<g id="edge14" class="edge">
<title>Node391278&#45;&gt;Node391285</title>
<path fill="none" stroke="#191970" d="M366.1174,-478.2454C370.1335,-530.0211 388.2251,-670.844 468,-745.5 475.8026,-752.8019 486.2174,-757.3231 496.4852,-760.1146"/>
<polygon fill="#191970" stroke="#191970" points="369.5975,-477.8327 365.4271,-468.0932 362.6136,-478.3076 369.5975,-477.8327"/>
</g>
<!-- Node391286 -->
<g id="node15" class="node">
<title>Node391286</title>
<g id="a_node15"><a xlink:href="quickjs_8c.html#a36c1692489542a86dd79a7d39ab8ff95" target="_top" xlink:title="js_array_reduce">
<polygon fill="none" stroke="#000000" points="491.5,-717 491.5,-736 577.5,-736 577.5,-717 491.5,-717"/>
<text text-anchor="middle" x="534.5" y="-724" font-family="Helvetica,sans-Serif" font-size="10.00" fill="#000000">js_array_reduce</text>
</a>
</g>
</g>
<!-- Node391278&#45;&gt;Node391286 -->
<g id="edge15" class="edge">
<title>Node391278&#45;&gt;Node391286</title>
<path fill="none" stroke="#191970" d="M367.888,-478.3713C375.5884,-524.3072 400.8053,-638.7809 468,-702.5 474.6797,-708.8342 483.1533,-713.5169 491.7963,-716.9721"/>
<polygon fill="#191970" stroke="#191970" points="371.3422,-477.8059 366.3268,-468.4734 364.4277,-478.8966 371.3422,-477.8059"/>
</g>
<!-- Node391287 -->
<g id="node16" class="node">
<title>Node391287</title>
<g id="a_node16"><a xlink:href="quickjs_8c.html#aa45afa6d2861615f29444c9614ce766a" target="_top" xlink:title="js_async_from_sync\l_iterator_next">
<polygon fill="none" stroke="#000000" points="637,-654.5 637,-684.5 744,-684.5 744,-654.5 637,-654.5"/>
<text text-anchor="start" x="645" y="-672.5" font-family="Helvetica,sans-Serif" font-size="10.00" fill="#000000">js_async_from_sync</text>
<text text-anchor="middle" x="690.5" y="-661.5" font-family="Helvetica,sans-Serif" font-size="10.00" fill="#000000">_iterator_next</text>
</a>
</g>
</g>
<!-- Node391278&#45;&gt;Node391287 -->
<g id="edge16" class="edge">
<title>Node391278&#45;&gt;Node391287</title>
<path fill="none" stroke="#191970" d="M367.7443,-478.4199C374.9729,-522.2134 398.9842,-626.3904 468,-669.5 518.4539,-701.0152 588.7232,-694.6137 636.7093,-684.5094"/>
<polygon fill="#191970" stroke="#191970" points="371.1893,-477.7931 366.2195,-468.4362 364.2695,-478.85 371.1893,-477.7931"/>
</g>
<!-- Node391288 -->
<g id="node17" class="node">
<title>Node391288</title>
<g id="a_node17"><a xlink:href="quickjs_8c.html#a2355fabf91f59212ea65baba1b0b7c1b" target="_top" xlink:title="js_async_generator_next">
<polygon fill="none" stroke="#000000" points="472,-603 472,-622 597,-622 597,-603 472,-603"/>
<text text-anchor="middle" x="534.5" y="-610" font-family="Helvetica,sans-Serif" font-size="10.00" fill="#000000">js_async_generator_next</text>
</a>
</g>
</g>
<!-- Node391278&#45;&gt;Node391288 -->
<g id="edge18" class="edge">
<title>Node391278&#45;&gt;Node391288</title>
<path fill="none" stroke="#191970" d="M374.1575,-477.1448C389.4848,-506.3962 423.1238,-562.8857 468,-593.5 473.6538,-597.357 480.0866,-600.4383 486.6714,-602.8982"/>
<polygon fill="#191970" stroke="#191970" points="377.1683,-475.344 369.5114,-468.0213 370.9305,-478.5206 377.1683,-475.344"/>
</g>
<!-- Node391289 -->
<g id="node18" class="node">
<title>Node391289</title>
<g id="a_node18"><a xlink:href="quickjs_8c.html#a3e852026d167fa03c673f86697dd3e67" target="_top" xlink:title="js_async_generator\l_resolve_or_reject">
<polygon fill="none" stroke="#ff0000" points="484,-553.5 484,-583.5 585,-583.5 585,-553.5 484,-553.5"/>
<text text-anchor="start" x="492" y="-571.5" font-family="Helvetica,sans-Serif" font-size="10.00" fill="#000000">js_async_generator</text>
<text text-anchor="middle" x="534.5" y="-560.5" font-family="Helvetica,sans-Serif" font-size="10.00" fill="#000000">_resolve_or_reject</text>
</a>
</g>
</g>
<!-- Node391278&#45;&gt;Node391289 -->
<g id="edge19" class="edge">
<title>Node391278&#45;&gt;Node391289</title>
<path fill="none" stroke="#191970" d="M381.544,-475.1461C400.8724,-493.8429 434.4931,-524.1024 468,-543.5 474.4046,-547.2077 481.46,-550.5507 488.5093,-553.4963"/>
<polygon fill="#191970" stroke="#191970" points="383.9932,-472.6458 374.4065,-468.1352 379.0879,-477.6397 383.9932,-472.6458"/>
</g>
<!-- Node391292 -->
<g id="node19" class="node">
<title>Node391292</title>
<g id="a_node19"><a xlink:href="quickjs_8c.html#afd4ef2d701fa0702f321925b61c57bbf" target="_top" xlink:title="js_call_bound_function">
<polygon fill="none" stroke="#ff0000" points="476.5,-515 476.5,-534 592.5,-534 592.5,-515 476.5,-515"/>
<text text-anchor="middle" x="534.5" y="-522" font-family="Helvetica,sans-Serif" font-size="10.00" fill="#000000">js_call_bound_function</text>
</a>
</g>
</g>
<!-- Node391278&#45;&gt;Node391292 -->
<g id="edge20" class="edge">
<title>Node391278&#45;&gt;Node391292</title>
<path fill="none" stroke="#191970" d="M392.6876,-472.5059C413.1566,-482.5203 441.8896,-495.8743 468,-505.5 477.3507,-508.9472 487.6284,-512.1563 497.2491,-514.9194"/>
<polygon fill="#191970" stroke="#191970" points="394.1432,-469.3212 383.6277,-468.0272 391.0411,-475.5963 394.1432,-469.3212"/>
</g>
<!-- Node391293 -->
<g id="node20" class="node">
<title>Node391293</title>
<g id="a_node20"><a xlink:href="quickjs_8c.html#a6357b7fdae71c70c140e78e6c20cb5c2" target="_top" xlink:title="js_dynamic_import_job">
<polygon fill="none" stroke="#ff0000" points="476.5,-477 476.5,-496 592.5,-496 592.5,-477 476.5,-477"/>
<text text-anchor="middle" x="534.5" y="-484" font-family="Helvetica,sans-Serif" font-size="10.00" fill="#000000">js_dynamic_import_job</text>
</a>
</g>
</g>
<!-- Node391278&#45;&gt;Node391293 -->
<g id="edge22" class="edge">
<title>Node391278&#45;&gt;Node391293</title>
<path fill="none" stroke="#191970" d="M400.6799,-464.394C422.7535,-468.0404 451.6021,-472.806 476.86,-476.9784"/>
<polygon fill="#191970" stroke="#191970" points="401.1802,-460.9293 390.7434,-462.7526 400.0392,-467.8357 401.1802,-460.9293"/>
</g>
<!-- Node391295 -->
<g id="node21" class="node">
<title>Node391295</title>
<g id="a_node21"><a xlink:href="quickjs_8c.html#ad90c33b4aae1181151bda4a98ac2ef23" target="_top" xlink:title="JS_FlattenIntoArray">
<polygon fill="none" stroke="#ff0000" points="482.5,-421 482.5,-440 586.5,-440 586.5,-421 482.5,-421"/>
<text text-anchor="middle" x="534.5" y="-428" font-family="Helvetica,sans-Serif" font-size="10.00" fill="#000000">JS_FlattenIntoArray</text>
</a>
</g>
</g>
<!-- Node391278&#45;&gt;Node391295 -->
<g id="edge23" class="edge">
<title>Node391278&#45;&gt;Node391295</title>
<path fill="none" stroke="#191970" d="M400.6835,-452.6054C424.3158,-448.7015 455.7126,-443.515 482.1547,-439.147"/>
<polygon fill="#191970" stroke="#191970" points="400.0392,-449.1643 390.7434,-454.2474 401.1802,-456.0707 400.0392,-449.1643"/>
</g>
<!-- Node391297 -->
<g id="node22" class="node">
<title>Node391297</title>
<g id="a_node22"><a xlink:href="quickjs_8c.html#a677ad630a103e1f3d5129e0549112b50" target="_top" xlink:title="js_function_call">
<polygon fill="none" stroke="#000000" points="492.5,-383 492.5,-402 576.5,-402 576.5,-383 492.5,-383"/>
<text text-anchor="middle" x="534.5" y="-390" font-family="Helvetica,sans-Serif" font-size="10.00" fill="#000000">js_function_call</text>
</a>
</g>
</g>
<!-- Node391278&#45;&gt;Node391297 -->
<g id="edge26" class="edge">
<title>Node391278&#45;&gt;Node391297</title>
<path fill="none" stroke="#191970" d="M392.6876,-444.4941C413.1566,-434.4797 441.8896,-421.1257 468,-411.5 477.3507,-408.0528 487.6284,-404.8437 497.2491,-402.0806"/>
<polygon fill="#191970" stroke="#191970" points="391.0411,-441.4037 383.6277,-448.9728 394.1432,-447.6788 391.0411,-441.4037"/>
</g>
<!-- Node391298 -->
<g id="node23" class="node">
<title>Node391298</title>
<g id="a_node23"><a xlink:href="quickjs_8c.html#aa049793cc8648d35fe81876a2543ca4e" target="_top" xlink:title="JS_GetIterator2">
<polygon fill="none" stroke="#ff0000" points="491.5,-345 491.5,-364 577.5,-364 577.5,-345 491.5,-345"/>
<text text-anchor="middle" x="534.5" y="-352" font-family="Helvetica,sans-Serif" font-size="10.00" fill="#000000">JS_GetIterator2</text>
</a>
</g>
</g>
<!-- Node391278&#45;&gt;Node391298 -->
<g id="edge27" class="edge">
<title>Node391278&#45;&gt;Node391298</title>
<path fill="none" stroke="#191970" d="M380.9681,-441.6558C399.9921,-422.5225 433.5521,-391.6148 468,-373.5 475.2266,-369.6998 483.306,-366.5779 491.2754,-364.0421"/>
<polygon fill="#191970" stroke="#191970" points="378.4471,-439.2278 373.9684,-448.8295 383.4573,-444.1165 378.4471,-439.2278"/>
</g>
<!-- Node391328 -->
<g id="node24" class="node">
<title>Node391328</title>
<g id="a_node24"><a xlink:href="quickjs_8c.html#ad6303fbd3add4afa0cb64b0aa6d431ce" target="_top" xlink:title="JS_IteratorNext2">
<polygon fill="none" stroke="#ff0000" points="489,-641 489,-660 580,-660 580,-641 489,-641"/>
<text text-anchor="middle" x="534.5" y="-648" font-family="Helvetica,sans-Serif" font-size="10.00" fill="#000000">JS_IteratorNext2</text>
</a>
</g>
</g>
<!-- Node391278&#45;&gt;Node391328 -->
<g id="edge28" class="edge">
<title>Node391278&#45;&gt;Node391328</title>
<path fill="none" stroke="#191970" d="M371.0981,-477.7853C383.4309,-513.6183 414.7838,-590.5351 468,-631.5 474.0893,-636.1875 481.2903,-639.7187 488.6664,-642.3789"/>
<polygon fill="#191970" stroke="#191970" points="374.3463,-476.4603 367.8782,-468.069 367.7016,-478.6624 374.3463,-476.4603"/>
</g>
<!-- Node391331 -->
<g id="node25" class="node">
<title>Node391331</title>
<g id="a_node25"><a xlink:href="quickjs_8c.html#a0da6493b4bc0edb7ddddfab807241d0b" target="_top" xlink:title="js_json_check">
<polygon fill="none" stroke="#ff0000" points="495,-175 495,-194 574,-194 574,-175 495,-175"/>
<text text-anchor="middle" x="534.5" y="-182" font-family="Helvetica,sans-Serif" font-size="10.00" fill="#000000">js_json_check</text>
</a>
</g>
</g>
<!-- Node391278&#45;&gt;Node391331 -->
<g id="edge30" class="edge">
<title>Node391278&#45;&gt;Node391331</title>
<path fill="none" stroke="#191970" d="M367.1286,-438.7427C373.344,-390.977 395.8574,-268.4012 468,-203.5 475.4983,-196.7544 485.2356,-192.3899 494.9353,-189.5703"/>
<polygon fill="#191970" stroke="#191970" points="363.6192,-438.6126 365.9049,-448.9579 370.5696,-439.4452 363.6192,-438.6126"/>
</g>
<!-- Node391335 -->
<g id="node26" class="node">
<title>Node391335</title>
<g id="a_node26"><a xlink:href="quickjs_8c.html#adc0280beaa04d2b8fcaf05a82ab26c74" target="_top" xlink:title="js_link_module">
<polygon fill="none" stroke="#ff0000" points="494,-289 494,-308 575,-308 575,-289 494,-289"/>
<text text-anchor="middle" x="534.5" y="-296" font-family="Helvetica,sans-Serif" font-size="10.00" fill="#000000">js_link_module</text>
</a>
</g>
</g>
<!-- Node391278&#45;&gt;Node391335 -->
<g id="edge31" class="edge">
<title>Node391278&#45;&gt;Node391335</title>
<path fill="none" stroke="#191970" d="M376.9149,-440.4381C394.519,-414.7508 429.5676,-367.2649 468,-335.5 481.6462,-324.2213 499.2266,-314.6124 512.8838,-308.0156"/>
<polygon fill="#191970" stroke="#191970" points="373.9341,-438.5983 371.2445,-448.8461 379.7377,-442.5123 373.9341,-438.5983"/>
</g>
<!-- Node391281&#45;&gt;Node391281 -->
<g id="edge11" class="edge">
<title>Node391281&#45;&gt;Node391281</title>
<path fill="none" stroke="#191970" d="M505.3809,-897.1539C506.5981,-902.4368 516.3044,-906.5 534.5,-906.5 562.2266,-906.5 570.2413,-897.0653 558.5441,-888.2571"/>
<polygon fill="#191970" stroke="#191970" points="508.5412,-898.6775 510.4559,-888.2571 502.4609,-895.2091 508.5412,-898.6775"/>
</g>
<!-- Node391295&#45;&gt;Node391295 -->
<g id="edge24" class="edge">
<title>Node391295&#45;&gt;Node391295</title>
<path fill="none" stroke="#191970" d="M505.3809,-449.1539C506.5981,-454.4368 516.3044,-458.5 534.5,-458.5 562.2266,-458.5 570.2413,-449.0653 558.5441,-440.2571"/>
<polygon fill="#191970" stroke="#191970" points="508.5412,-450.6775 510.4559,-440.2571 502.4609,-447.2091 508.5412,-450.6775"/>
</g>
<!-- Node391328&#45;&gt;Node391287 -->
<g id="edge29" class="edge">
<title>Node391328&#45;&gt;Node391287</title>
<path fill="none" stroke="#191970" d="M590.3154,-657.298C605.4836,-659.1454 621.8725,-661.1415 636.9143,-662.9735"/>
<polygon fill="#191970" stroke="#191970" points="590.3909,-653.7814 580.041,-656.0467 589.5445,-660.7301 590.3909,-653.7814"/>
</g>
<!-- Node391335&#45;&gt;Node391335 -->
<g id="edge32" class="edge">
<title>Node391335&#45;&gt;Node391335</title>
<path fill="none" stroke="#191970" d="M505.3809,-317.1539C506.5981,-322.4368 516.3044,-326.5 534.5,-326.5 562.2266,-326.5 570.2413,-317.0653 558.5441,-308.2571"/>
<polygon fill="#191970" stroke="#191970" points="508.5412,-318.6775 510.4559,-308.2571 502.4609,-315.2091 508.5412,-318.6775"/>
</g>
<!-- Node391361&#45;&gt;Node391258 -->
<g id="edge34" class="edge">
<title>Node391361&#45;&gt;Node391258</title>
<path fill="none" stroke="#191970" d="M338.0816,-120.8291C325.2826,-124.531 310.1602,-129.1383 298,-136.5 278.0984,-148.5482 281.9016,-162.4518 262,-174.5 254.3462,-179.1335 245.519,-182.6759 236.8362,-185.1533"/>
<polygon fill="#191970" stroke="#191970" points="339.1217,-124.1717 347.747,-118.019 337.1674,-117.45 339.1217,-124.1717"/>
</g>
<!-- Node391375&#45;&gt;Node391258 -->
<g id="edge36" class="edge">
<title>Node391375&#45;&gt;Node391258</title>
<path fill="none" stroke="#191970" d="M319.0615,-190.5718C293.3539,-191.531 261.5546,-191.4727 236.5867,-190.3971"/>
<polygon fill="#191970" stroke="#191970" points="319.4715,-194.0571 329.3066,-190.1174 319.1613,-187.064 319.4715,-194.0571"/>
</g>
<!-- Node391375&#45;&gt;Node391331 -->
<g id="edge37" class="edge">
<title>Node391375&#45;&gt;Node391331</title>
<path fill="none" stroke="#191970" d="M410.6306,-184.5C436.9238,-184.5 469.6523,-184.5 494.8634,-184.5"/>
<polygon fill="#191970" stroke="#191970" points="410.5328,-181.0001 400.5328,-184.5 410.5327,-188.0001 410.5328,-181.0001"/>
</g>
</g>
</svg>
        <g id="navigator" transform="translate(0 0)" fill="#404254">
                <rect fill="#f2f5e9" fill-opacity="0.5" stroke="#606060" stroke-width=".5" x="0" y="0" width="60" height="60"/>
                <use id="zoomplus" xlink:href="#zoomPlus" x="17" y="9" onmousedown="handleZoom(evt,'in')"/>
                <use id="zoomminus" xlink:href="#zoomMin" x="42" y="9" onmousedown="handleZoom(evt,'out')"/>
                <use id="reset" xlink:href="#resetDef" x="30" y="36" onmousedown="handleReset()"/>
                <g id="arrowUp" xlink:href="#dirArrow" transform="translate(30 24)" onmousedown="handlePan(0,-1)">
                  <use xlink:href="#rim" fill="#404040">
                        <set attributeName="fill" to="#808080" begin="arrowUp.mouseover" end="arrowUp.mouseout"/>
                  </use>
                  <path fill="none" stroke="white" stroke-width="1.5" d="M0,-3.0v7 M-2.5,-0.5L0,-3.0L2.5,-0.5"/>
                </g>
                <g id="arrowRight" xlink:href="#dirArrow" transform="rotate(90) translate(36 -43)" onmousedown="handlePan(1,0)">
                  <use xlink:href="#rim" fill="#404040">
                        <set attributeName="fill" to="#808080" begin="arrowRight.mouseover" end="arrowRight.mouseout"/>
                  </use>
                  <path fill="none" stroke="white" stroke-width="1.5" d="M0,-3.0v7 M-2.5,-0.5L0,-3.0L2.5,-0.5"/>
                </g>
                <g id="arrowDown" xlink:href="#dirArrow" transform="rotate(180) translate(-30 -48)" onmousedown="handlePan(0,1)">
                  <use xlink:href="#rim" fill="#404040">
                        <set attributeName="fill" to="#808080" begin="arrowDown.mouseover" end="arrowDown.mouseout"/>
                  </use>
                  <path fill="none" stroke="white" stroke-width="1.5" d="M0,-3.0v7 M-2.5,-0.5L0,-3.0L2.5,-0.5"/>
                </g>
                <g id="arrowLeft" xlink:href="#dirArrow" transform="rotate(270) translate(-36 17)" onmousedown="handlePan(-1,0)">
                  <use xlink:href="#rim" fill="#404040">
                        <set attributeName="fill" to="#808080" begin="arrowLeft.mouseover" end="arrowLeft.mouseout"/>
                  </use>
                  <path fill="none" stroke="white" stroke-width="1.5" d="M0,-3.0v7 M-2.5,-0.5L0,-3.0L2.5,-0.5"/>
                </g>
        </g>
        <svg viewBox="0 0 15 15" width="100%" height="30px" preserveAspectRatio="xMaxYMin meet">
         <g id="arrow_out" transform="scale(0.3 0.3)">
          <a xlink:href="quickjs_8c_a8d4b24969540aff427939eeda47f451d_icgraph_org.svg" target="_base">
           <rect id="button" ry="5" rx="5" y="6" x="6" height="38" width="38"
                fill="#f2f5e9" fill-opacity="0.5" stroke="#606060" stroke-width="1.0"/>
           <path id="arrow"
             d="M 11.500037,31.436501 C 11.940474,20.09759 22.043105,11.32322 32.158766,21.979434 L 37.068811,17.246167 C 37.068811,17.246167 37.088388,32 37.088388,32 L 22.160133,31.978069 C 22.160133,31.978069 26.997745,27.140456 26.997745,27.140456 C 18.528582,18.264221 13.291696,25.230495 11.500037,31.436501 z"
             style="fill:#404040;"/>
          </a>
         </g>
        </svg>
</svg>
