<?xml version="1.0" encoding="UTF-8" standalone="no"?>
<!DOCTYPE svg PUBLIC "-//W3C//DTD SVG 1.1//EN"
 "http://www.w3.org/Graphics/SVG/1.1/DTD/svg11.dtd">
<!-- Generated by graphviz version 2.40.1 (20161225.0304)
 -->
<!-- Title: js_instantiate_prototype Pages: 1 -->
<svg width="905pt" height="1201pt"
 viewBox="0.00 0.00 905.00 1201.36" xmlns="http://www.w3.org/2000/svg" xmlns:xlink="http://www.w3.org/1999/xlink">
<g id="graph0" class="graph" transform="scale(1 1) rotate(0) translate(4 1197.3607)">
<title>js_instantiate_prototype</title>
<!-- Node49134 -->
<g id="node1" class="node">
<title>Node49134</title>
<polygon fill="#bfbfbf" stroke="#000000" points="0,-95.5 0,-114.5 120,-114.5 120,-95.5 0,-95.5"/>
<text text-anchor="middle" x="60" y="-102.5" font-family="Helvetica,sans-Serif" font-size="10.00" fill="#000000">js_instantiate_prototype</text>
</g>
<!-- Node49135 -->
<g id="node2" class="node">
<title>Node49135</title>
<g id="a_node2"><a xlink:href="quickjs_8c.html#a0a8765bd4012467d9139bc24aabcb3ca" target="_top" xlink:title="JS_DefinePropertyValue">
<polygon fill="none" stroke="#000000" points="156,-152.5 156,-171.5 280,-171.5 280,-152.5 156,-152.5"/>
<text text-anchor="middle" x="218" y="-159.5" font-family="Helvetica,sans-Serif" font-size="10.00" fill="#000000">JS_DefinePropertyValue</text>
</a>
</g>
</g>
<!-- Node49134&#45;&gt;Node49135 -->
<g id="edge1" class="edge">
<title>Node49134&#45;&gt;Node49135</title>
<path fill="none" stroke="#191970" d="M86.4456,-114.5405C112.5355,-123.9527 152.6208,-138.4138 181.6874,-148.8999"/>
<polygon fill="#191970" stroke="#191970" points="180.8737,-152.3271 191.4681,-152.4284 183.2492,-145.7425 180.8737,-152.3271"/>
</g>
<!-- Node49142 -->
<g id="node8" class="node">
<title>Node49142</title>
<g id="a_node8"><a xlink:href="quickjs_8h.html#afaa20c47565bc704c6c85f3d77254e7d" target="_top" xlink:title="JS_FreeValue">
<polygon fill="none" stroke="#ff0000" points="815,-347.5 815,-366.5 893,-366.5 893,-347.5 815,-347.5"/>
<text text-anchor="middle" x="854" y="-354.5" font-family="Helvetica,sans-Serif" font-size="10.00" fill="#000000">JS_FreeValue</text>
</a>
</g>
</g>
<!-- Node49134&#45;&gt;Node49142 -->
<g id="edge51" class="edge">
<title>Node49134&#45;&gt;Node49142</title>
<path fill="none" stroke="#191970" d="M120.2157,-99.0404C181.7821,-93.4683 280.2092,-86 365.5,-86 365.5,-86 365.5,-86 531,-86 640.892,-86 691.0833,-55.0476 775,-126 808.4003,-154.2403 839.2935,-287.0906 850.0126,-337.5193"/>
<polygon fill="#191970" stroke="#191970" points="846.6195,-338.3931 852.0908,-347.4658 853.4715,-336.9613 846.6195,-338.3931"/>
</g>
<!-- Node49178 -->
<g id="node9" class="node">
<title>Node49178</title>
<g id="a_node9"><a xlink:href="quickjs_8h.html#ad80a83d73e9b7d872b88fbf2943aebe9" target="_top" xlink:title="JS_IsException">
<polygon fill="none" stroke="#000000" points="811,-722.5 811,-741.5 897,-741.5 897,-722.5 811,-722.5"/>
<text text-anchor="middle" x="854" y="-729.5" font-family="Helvetica,sans-Serif" font-size="10.00" fill="#000000">JS_IsException</text>
</a>
</g>
</g>
<!-- Node49134&#45;&gt;Node49178 -->
<g id="edge52" class="edge">
<title>Node49134&#45;&gt;Node49178</title>
<path fill="none" stroke="#191970" d="M60.5656,-114.5681C67.0898,-220.6975 132.1868,-1174 365.5,-1174 365.5,-1174 365.5,-1174 531,-1174 639.7727,-1174 694.086,-1227.6941 775,-1155 790.4255,-1141.1416 838.5296,-833.0634 851.0151,-751.6077"/>
<polygon fill="#191970" stroke="#191970" points="854.4826,-752.0862 852.5334,-741.6722 847.5629,-751.0287 854.4826,-752.0862"/>
</g>
<!-- Node49211 -->
<g id="node10" class="node">
<title>Node49211</title>
<g id="a_node10"><a xlink:href="quickjs_8h.html#a775522f2d084fc8fa0fcb33f390006b4" target="_top" xlink:title="JS_DupValue">
<polygon fill="none" stroke="#000000" points="672.5,-190.5 672.5,-209.5 749.5,-209.5 749.5,-190.5 672.5,-190.5"/>
<text text-anchor="middle" x="711" y="-197.5" font-family="Helvetica,sans-Serif" font-size="10.00" fill="#000000">JS_DupValue</text>
</a>
</g>
</g>
<!-- Node49134&#45;&gt;Node49211 -->
<g id="edge50" class="edge">
<title>Node49134&#45;&gt;Node49211</title>
<path fill="none" stroke="#191970" d="M120.2917,-110.2976C222.0287,-119.7633 434.0148,-141.7559 611,-175 629.5249,-178.4796 649.7343,-183.328 667.106,-187.8297"/>
<polygon fill="#191970" stroke="#191970" points="666.4106,-191.2659 676.9722,-190.4273 668.1929,-184.4965 666.4106,-191.2659"/>
</g>
<!-- Node49532 -->
<g id="node29" class="node">
<title>Node49532</title>
<g id="a_node29"><a xlink:href="quickjs_8c.html#afc0d8ea75588216ec132a6e1655524a7" target="_top" xlink:title="JS_NewObject">
<polygon fill="none" stroke="#ff0000" points="176.5,-38.5 176.5,-57.5 259.5,-57.5 259.5,-38.5 176.5,-38.5"/>
<text text-anchor="middle" x="218" y="-45.5" font-family="Helvetica,sans-Serif" font-size="10.00" fill="#000000">JS_NewObject</text>
</a>
</g>
</g>
<!-- Node49134&#45;&gt;Node49532 -->
<g id="edge53" class="edge">
<title>Node49134&#45;&gt;Node49532</title>
<path fill="none" stroke="#191970" d="M86.4456,-95.4595C112.5355,-86.0473 152.6208,-71.5862 181.6874,-61.1001"/>
<polygon fill="#191970" stroke="#191970" points="183.2492,-64.2575 191.4681,-57.5716 180.8737,-57.6729 183.2492,-64.2575"/>
</g>
<!-- Node49536 -->
<g id="node30" class="node">
<title>Node49536</title>
<g id="a_node30"><a xlink:href="quickjs_8c.html#a3eb2bd652569b26b83de08a76797afe9" target="_top" xlink:title="set_cycle_flag">
<polygon fill="none" stroke="#000000" points="178,-.5 178,-19.5 258,-19.5 258,-.5 178,-.5"/>
<text text-anchor="middle" x="218" y="-7.5" font-family="Helvetica,sans-Serif" font-size="10.00" fill="#000000">set_cycle_flag</text>
</a>
</g>
</g>
<!-- Node49134&#45;&gt;Node49536 -->
<g id="edge54" class="edge">
<title>Node49134&#45;&gt;Node49536</title>
<path fill="none" stroke="#191970" d="M69.4925,-95.4402C85.8038,-79.5141 120.8055,-47.4796 156,-29 160.2019,-26.7937 164.7012,-24.7988 169.286,-23.0055"/>
<polygon fill="#191970" stroke="#191970" points="170.5222,-26.2805 178.7491,-19.6046 168.1547,-19.693 170.5222,-26.2805"/>
</g>
<!-- Node49136 -->
<g id="node3" class="node">
<title>Node49136</title>
<g id="a_node3"><a xlink:href="quickjs_8c.html#ab50618f1bf78e444caa6da0e3e2785d7" target="_top" xlink:title="JS_DefineProperty">
<polygon fill="none" stroke="#ff0000" points="316,-627.5 316,-646.5 415,-646.5 415,-627.5 316,-627.5"/>
<text text-anchor="middle" x="365.5" y="-634.5" font-family="Helvetica,sans-Serif" font-size="10.00" fill="#000000">JS_DefineProperty</text>
</a>
</g>
</g>
<!-- Node49135&#45;&gt;Node49136 -->
<g id="edge2" class="edge">
<title>Node49135&#45;&gt;Node49136</title>
<path fill="none" stroke="#191970" d="M221.0807,-171.9211C239.4142,-230.9609 334.2039,-536.216 359.3634,-617.2381"/>
<polygon fill="#191970" stroke="#191970" points="356.128,-618.6214 362.4362,-627.1335 362.8131,-616.5454 356.128,-618.6214"/>
</g>
<!-- Node49135&#45;&gt;Node49142 -->
<g id="edge49" class="edge">
<title>Node49135&#45;&gt;Node49142</title>
<path fill="none" stroke="#191970" d="M249.8004,-152.4652C340.8414,-127.2139 606.7309,-67.9702 775,-181 828.6675,-217.0495 846.3175,-298.8006 851.7533,-336.8365"/>
<polygon fill="#191970" stroke="#191970" points="848.3308,-337.6648 853.0745,-347.1383 855.2739,-336.7743 848.3308,-337.6648"/>
</g>
<!-- Node49137 -->
<g id="node4" class="node">
<title>Node49137</title>
<g id="a_node4"><a xlink:href="quickjs_8c.html#a726b00d108e0a0f4d958c36c2e426a64" target="_top" xlink:title="JS_ThrowTypeErrorNotAnObject">
<polygon fill="none" stroke="#000000" points="451,-722.5 451,-741.5 611,-741.5 611,-722.5 451,-722.5"/>
<text text-anchor="middle" x="531" y="-729.5" font-family="Helvetica,sans-Serif" font-size="10.00" fill="#000000">JS_ThrowTypeErrorNotAnObject</text>
</a>
</g>
</g>
<!-- Node49136&#45;&gt;Node49137 -->
<g id="edge3" class="edge">
<title>Node49136&#45;&gt;Node49137</title>
<path fill="none" stroke="#191970" d="M373.3826,-646.5893C387.2945,-662.8547 417.8805,-695.7614 451,-713 455.5526,-715.3696 460.4044,-717.4484 465.3815,-719.2713"/>
<polygon fill="#191970" stroke="#191970" points="464.4684,-722.6557 475.0616,-722.4707 466.6651,-716.0093 464.4684,-722.6557"/>
</g>
<!-- Node49138 -->
<g id="node5" class="node">
<title>Node49138</title>
<g id="a_node5"><a xlink:href="quickjs_8c.html#a06b76f5124fd985e35f4c652fd018d6d" target="_top" xlink:title="find_own_property">
<polygon fill="none" stroke="#ff0000" points="663,-1126.5 663,-1145.5 759,-1145.5 759,-1126.5 663,-1126.5"/>
<text text-anchor="middle" x="711" y="-1133.5" font-family="Helvetica,sans-Serif" font-size="10.00" fill="#000000">find_own_property</text>
</a>
</g>
</g>
<!-- Node49136&#45;&gt;Node49138 -->
<g id="edge4" class="edge">
<title>Node49136&#45;&gt;Node49138</title>
<path fill="none" stroke="#191970" d="M365.7147,-646.6084C367.2993,-708.1146 379.2245,-1046.1493 451,-1112 507.5617,-1163.8928 603.0538,-1157.6365 661.2275,-1147.4529"/>
<polygon fill="#191970" stroke="#191970" points="662.0916,-1150.8525 671.2859,-1145.5879 660.8153,-1143.9698 662.0916,-1150.8525"/>
</g>
<!-- Node49140 -->
<g id="node6" class="node">
<title>Node49140</title>
<g id="a_node6"><a xlink:href="quickjs_8c.html#a643df594b75933007bcdbb071b5ea8c5" target="_top" xlink:title="get_shape_prop">
<polygon fill="none" stroke="#000000" points="811,-1025.5 811,-1044.5 897,-1044.5 897,-1025.5 811,-1025.5"/>
<text text-anchor="middle" x="854" y="-1032.5" font-family="Helvetica,sans-Serif" font-size="10.00" fill="#000000">get_shape_prop</text>
</a>
</g>
</g>
<!-- Node49136&#45;&gt;Node49140 -->
<g id="edge33" class="edge">
<title>Node49136&#45;&gt;Node49140</title>
<path fill="none" stroke="#191970" d="M365.782,-646.788C367.7255,-706.5327 381.2183,-1021.4232 451,-1079 504.9611,-1123.5232 718.1379,-1072.3636 810.7111,-1047.2777"/>
<polygon fill="#191970" stroke="#191970" points="811.8768,-1050.5875 820.5988,-1044.5729 810.0297,-1043.8356 811.8768,-1050.5875"/>
</g>
<!-- Node49141 -->
<g id="node7" class="node">
<title>Node49141</title>
<g id="a_node7"><a xlink:href="quickjs_8c.html#a77d135018423229ffcdcde7a46eb3fd9" target="_top" xlink:title="JS_ToArrayLengthFree">
<polygon fill="none" stroke="#ff0000" points="652.5,-542.5 652.5,-561.5 769.5,-561.5 769.5,-542.5 652.5,-542.5"/>
<text text-anchor="middle" x="711" y="-549.5" font-family="Helvetica,sans-Serif" font-size="10.00" fill="#000000">JS_ToArrayLengthFree</text>
</a>
</g>
</g>
<!-- Node49136&#45;&gt;Node49141 -->
<g id="edge6" class="edge">
<title>Node49136&#45;&gt;Node49141</title>
<path fill="none" stroke="#191970" d="M387.2883,-627.3997C404.3585,-620.1711 428.8459,-610.4394 451,-604 514.9516,-585.4114 589.6596,-571.2252 642.5412,-562.4023"/>
<polygon fill="#191970" stroke="#191970" points="643.1872,-565.8432 652.485,-560.7636 642.0489,-558.9363 643.1872,-565.8432"/>
</g>
<!-- Node49136&#45;&gt;Node49142 -->
<g id="edge21" class="edge">
<title>Node49136&#45;&gt;Node49142</title>
<path fill="none" stroke="#191970" d="M369.5511,-627.2928C379.5716,-604.6298 407.8725,-548.2471 451,-523 576.3615,-449.6125 652.3835,-557.8872 775,-480 813.7517,-455.3845 837.183,-404.1433 847.5966,-376.1942"/>
<polygon fill="#191970" stroke="#191970" points="850.9102,-377.3218 850.9551,-366.727 844.313,-374.9814 850.9102,-377.3218"/>
</g>
<!-- Node49136&#45;&gt;Node49178 -->
<g id="edge47" class="edge">
<title>Node49136&#45;&gt;Node49178</title>
<path fill="none" stroke="#191970" d="M400.802,-627.4551C474.4974,-609.5065 648.3597,-577.6048 775,-637 808.4962,-652.71 832.717,-690.3737 844.956,-713.278"/>
<polygon fill="#191970" stroke="#191970" points="841.9279,-715.0441 849.5936,-722.3576 848.1618,-711.86 841.9279,-715.0441"/>
</g>
<!-- Node49136&#45;&gt;Node49211 -->
<g id="edge10" class="edge">
<title>Node49136&#45;&gt;Node49211</title>
<path fill="none" stroke="#191970" d="M365.9483,-627.4353C368.8324,-570.3762 386.7366,-275.4761 451,-219 509.6899,-167.422 607.4603,-176.7674 664.9134,-188.3235"/>
<polygon fill="#191970" stroke="#191970" points="664.3011,-191.7714 674.8089,-190.4163 665.7495,-184.9229 664.3011,-191.7714"/>
</g>
<!-- Node49240 -->
<g id="node11" class="node">
<title>Node49240</title>
<g id="a_node11"><a xlink:href="quickjs_8h.html#a88259aa0da61ac754402c64ccecee116" target="_top" xlink:title="JS_NewUint32">
<polygon fill="none" stroke="#ff0000" points="669.5,-451.5 669.5,-470.5 752.5,-470.5 752.5,-451.5 669.5,-451.5"/>
<text text-anchor="middle" x="711" y="-458.5" font-family="Helvetica,sans-Serif" font-size="10.00" fill="#000000">JS_NewUint32</text>
</a>
</g>
</g>
<!-- Node49136&#45;&gt;Node49240 -->
<g id="edge11" class="edge">
<title>Node49136&#45;&gt;Node49240</title>
<path fill="none" stroke="#191970" d="M367.86,-627.3613C375.0302,-600.3482 399.3033,-523.6883 451,-490 513.6898,-449.1481 603.37,-448.8657 659.3394,-453.8551"/>
<polygon fill="#191970" stroke="#191970" points="659.0899,-457.3474 669.3837,-454.8395 659.7728,-450.3807 659.0899,-457.3474"/>
</g>
<!-- Node49562 -->
<g id="node12" class="node">
<title>Node49562</title>
<g id="a_node12"><a xlink:href="quickjs_8c.html#a68c7ae36cec3bf8bbf6cc0868a71cc4b" target="_top" xlink:title="check_define_prop_flags">
<polygon fill="none" stroke="#000000" points="468.5,-532.5 468.5,-551.5 593.5,-551.5 593.5,-532.5 468.5,-532.5"/>
<text text-anchor="middle" x="531" y="-539.5" font-family="Helvetica,sans-Serif" font-size="10.00" fill="#000000">check_define_prop_flags</text>
</a>
</g>
</g>
<!-- Node49136&#45;&gt;Node49562 -->
<g id="edge12" class="edge">
<title>Node49136&#45;&gt;Node49562</title>
<path fill="none" stroke="#191970" d="M374.5607,-627.292C389.2316,-612.1163 419.713,-582.778 451,-566 459.4411,-561.4734 468.8523,-557.6849 478.1711,-554.5549"/>
<polygon fill="#191970" stroke="#191970" points="479.3131,-557.8649 487.8042,-551.5283 477.2149,-551.1868 479.3131,-557.8649"/>
</g>
<!-- Node49424 -->
<g id="node13" class="node">
<title>Node49424</title>
<g id="a_node13"><a xlink:href="quickjs_8c.html#a014abd680db53ab89cb133345742a59c" target="_top" xlink:title="__attribute__">
<polygon fill="none" stroke="#ff0000" points="674.5,-309.5 674.5,-328.5 747.5,-328.5 747.5,-309.5 674.5,-309.5"/>
<text text-anchor="middle" x="711" y="-316.5" font-family="Helvetica,sans-Serif" font-size="10.00" fill="#000000">__attribute__</text>
</a>
</g>
</g>
<!-- Node49136&#45;&gt;Node49424 -->
<g id="edge13" class="edge">
<title>Node49136&#45;&gt;Node49424</title>
<path fill="none" stroke="#191970" d="M366.7137,-627.366C372.8999,-579.9188 402.5342,-371.81 451,-333 512.2869,-283.9232 610.0958,-294.9965 666.6561,-307.1907"/>
<polygon fill="#191970" stroke="#191970" points="666.1933,-310.6744 676.719,-309.4664 667.7374,-303.8468 666.1933,-310.6744"/>
</g>
<!-- Node49385 -->
<g id="node14" class="node">
<title>Node49385</title>
<g id="a_node14"><a xlink:href="quickjs_8c.html#a8aac7988cf0c6f3c2b629a6662fd7ec8" target="_top" xlink:title="JS_AutoInitProperty">
<polygon fill="none" stroke="#ff0000" points="479,-874.5 479,-893.5 583,-893.5 583,-874.5 479,-874.5"/>
<text text-anchor="middle" x="531" y="-881.5" font-family="Helvetica,sans-Serif" font-size="10.00" fill="#000000">JS_AutoInitProperty</text>
</a>
</g>
</g>
<!-- Node49136&#45;&gt;Node49385 -->
<g id="edge14" class="edge">
<title>Node49136&#45;&gt;Node49385</title>
<path fill="none" stroke="#191970" d="M366.2564,-646.6883C369.4715,-681.1219 385.0474,-798.7967 451,-860 456.3344,-864.9502 462.6519,-868.882 469.362,-872.0042"/>
<polygon fill="#191970" stroke="#191970" points="468.1173,-875.2762 478.7002,-875.7798 470.7412,-868.7865 468.1173,-875.2762"/>
</g>
<!-- Node49386 -->
<g id="node15" class="node">
<title>Node49386</title>
<g id="a_node15"><a xlink:href="quickjs_8c.html#a3dd8e78607dbc729614deacf55901b95" target="_top" xlink:title="js_shape_prepare_update">
<polygon fill="none" stroke="#ff0000" points="647,-962.5 647,-981.5 775,-981.5 775,-962.5 647,-962.5"/>
<text text-anchor="middle" x="711" y="-969.5" font-family="Helvetica,sans-Serif" font-size="10.00" fill="#000000">js_shape_prepare_update</text>
</a>
</g>
</g>
<!-- Node49136&#45;&gt;Node49386 -->
<g id="edge19" class="edge">
<title>Node49136&#45;&gt;Node49386</title>
<path fill="none" stroke="#191970" d="M366.6273,-646.6663C372.5,-695.2386 401.2395,-911.9517 451,-953 478.397,-975.6002 569.921,-977.6309 636.6477,-975.8186"/>
<polygon fill="#191970" stroke="#191970" points="636.8273,-979.3148 646.7158,-975.5114 636.6137,-972.3181 636.8273,-979.3148"/>
</g>
<!-- Node49350 -->
<g id="node16" class="node">
<title>Node49350</title>
<g id="a_node16"><a xlink:href="quickjs_8c.html#a1ca9cdb1fa2ffc3e6506e92b200e490f" target="_top" xlink:title="JS_IsFunction">
<polygon fill="none" stroke="#000000" points="491,-418.5 491,-437.5 571,-437.5 571,-418.5 491,-418.5"/>
<text text-anchor="middle" x="531" y="-425.5" font-family="Helvetica,sans-Serif" font-size="10.00" fill="#000000">JS_IsFunction</text>
</a>
</g>
</g>
<!-- Node49136&#45;&gt;Node49350 -->
<g id="edge18" class="edge">
<title>Node49136&#45;&gt;Node49350</title>
<path fill="none" stroke="#191970" d="M367.1084,-627.2754C372.6876,-596.6634 394.0764,-501.3911 451,-452 459.4692,-444.6515 470.1214,-439.5525 480.8649,-436.0147"/>
<polygon fill="#191970" stroke="#191970" points="482.0553,-439.3142 490.6971,-433.1848 480.1191,-432.5873 482.0553,-439.3142"/>
</g>
<!-- Node49153 -->
<g id="node17" class="node">
<title>Node49153</title>
<g id="a_node17"><a xlink:href="quickjs_8c.html#a9e7b4bccf927d811b0f99b40b08c0472" target="_top" xlink:title="free_var_ref">
<polygon fill="none" stroke="#ff0000" points="497,-380.5 497,-399.5 565,-399.5 565,-380.5 497,-380.5"/>
<text text-anchor="middle" x="531" y="-387.5" font-family="Helvetica,sans-Serif" font-size="10.00" fill="#000000">free_var_ref</text>
</a>
</g>
</g>
<!-- Node49136&#45;&gt;Node49153 -->
<g id="edge20" class="edge">
<title>Node49136&#45;&gt;Node49153</title>
<path fill="none" stroke="#191970" d="M366.023,-627.4491C368.4767,-592.4303 381.8723,-469.9487 451,-409 460.8853,-400.2843 474.045,-395.3838 486.8317,-392.6803"/>
<polygon fill="#191970" stroke="#191970" points="487.6698,-396.0879 496.9367,-390.9523 486.4898,-389.188 487.6698,-396.0879"/>
</g>
<!-- Node49545 -->
<g id="node18" class="node">
<title>Node49545</title>
<g id="a_node18"><a xlink:href="quickjs_8c.html#a24be89a128d1cd7c0908604815b2b854" target="_top" xlink:title="js_same_value">
<polygon fill="none" stroke="#ff0000" points="490,-228.5 490,-247.5 572,-247.5 572,-228.5 490,-228.5"/>
<text text-anchor="middle" x="531" y="-235.5" font-family="Helvetica,sans-Serif" font-size="10.00" fill="#000000">js_same_value</text>
</a>
</g>
</g>
<!-- Node49136&#45;&gt;Node49545 -->
<g id="edge22" class="edge">
<title>Node49136&#45;&gt;Node49545</title>
<path fill="none" stroke="#191970" d="M366.4102,-627.2296C371.5701,-573.851 398.7857,-317.8515 451,-262 458.7333,-253.728 469.1931,-248.2694 479.9963,-244.6775"/>
<polygon fill="#191970" stroke="#191970" points="481.2684,-247.9555 489.9458,-241.8765 479.3714,-241.2174 481.2684,-247.9555"/>
</g>
<!-- Node49415 -->
<g id="node19" class="node">
<title>Node49415</title>
<g id="a_node19"><a xlink:href="quickjs_8c.html#a0ec52a675282f321a6f42aa1298a53fe" target="_top" xlink:title="set_value">
<polygon fill="none" stroke="#000000" points="681.5,-271.5 681.5,-290.5 740.5,-290.5 740.5,-271.5 681.5,-271.5"/>
<text text-anchor="middle" x="711" y="-278.5" font-family="Helvetica,sans-Serif" font-size="10.00" fill="#000000">set_value</text>
</a>
</g>
</g>
<!-- Node49136&#45;&gt;Node49415 -->
<g id="edge24" class="edge">
<title>Node49136&#45;&gt;Node49415</title>
<path fill="none" stroke="#191970" d="M366.3579,-627.4562C371.1533,-576.4438 396.4059,-336.6082 451,-292 483.6435,-265.3274 606.8519,-271.6957 671.2448,-277.1076"/>
<polygon fill="#191970" stroke="#191970" points="671.1599,-280.6134 681.4265,-277.9967 671.7689,-273.64 671.1599,-280.6134"/>
</g>
<!-- Node49416 -->
<g id="node20" class="node">
<title>Node49416</title>
<g id="a_node20"><a xlink:href="quickjs_8c.html#ad55fe6f65ecb58e327ac9e9b4ab475f5" target="_top" xlink:title="set_array_length">
<polygon fill="none" stroke="#ff0000" points="486.5,-342.5 486.5,-361.5 575.5,-361.5 575.5,-342.5 486.5,-342.5"/>
<text text-anchor="middle" x="531" y="-349.5" font-family="Helvetica,sans-Serif" font-size="10.00" fill="#000000">set_array_length</text>
</a>
</g>
</g>
<!-- Node49136&#45;&gt;Node49416 -->
<g id="edge26" class="edge">
<title>Node49136&#45;&gt;Node49416</title>
<path fill="none" stroke="#191970" d="M367.3044,-627.2997C375.5687,-583.8794 411.1187,-407.8926 451,-371 458.1553,-364.3809 467.1849,-359.9411 476.58,-356.9889"/>
<polygon fill="#191970" stroke="#191970" points="477.6442,-360.3286 486.4397,-354.4219 475.8804,-353.5544 477.6442,-360.3286"/>
</g>
<!-- Node49563 -->
<g id="node21" class="node">
<title>Node49563</title>
<g id="a_node21"><a xlink:href="quickjs_8c.html#a6d48937f79966a773376cc24834c663f" target="_top" xlink:title="js_update_property\l_flags">
<polygon fill="none" stroke="#000000" points="481.5,-913 481.5,-943 580.5,-943 580.5,-913 481.5,-913"/>
<text text-anchor="start" x="489.5" y="-931" font-family="Helvetica,sans-Serif" font-size="10.00" fill="#000000">js_update_property</text>
<text text-anchor="middle" x="531" y="-920" font-family="Helvetica,sans-Serif" font-size="10.00" fill="#000000">_flags</text>
</a>
</g>
</g>
<!-- Node49136&#45;&gt;Node49563 -->
<g id="edge34" class="edge">
<title>Node49136&#45;&gt;Node49563</title>
<path fill="none" stroke="#191970" d="M367.3658,-646.6363C375.8962,-689.7788 412.4285,-864.7402 451,-903 456.8757,-908.8282 464.0893,-913.3008 471.7564,-916.7323"/>
<polygon fill="#191970" stroke="#191970" points="470.6849,-920.0707 481.2739,-920.4228 473.2157,-913.5441 470.6849,-920.0707"/>
</g>
<!-- Node49185 -->
<g id="node22" class="node">
<title>Node49185</title>
<g id="a_node22"><a xlink:href="quickjs_8c.html#a288254c06a39c9fca740a7abdad2834e" target="_top" xlink:title="__JS_AtomIsTaggedInt">
<polygon fill="none" stroke="#000000" points="651.5,-798.5 651.5,-817.5 770.5,-817.5 770.5,-798.5 651.5,-798.5"/>
<text text-anchor="middle" x="711" y="-805.5" font-family="Helvetica,sans-Serif" font-size="10.00" fill="#000000">__JS_AtomIsTaggedInt</text>
</a>
</g>
</g>
<!-- Node49136&#45;&gt;Node49185 -->
<g id="edge36" class="edge">
<title>Node49136&#45;&gt;Node49185</title>
<path fill="none" stroke="#191970" d="M366.3513,-646.8101C369.7748,-679.4601 385.6925,-784.7731 451,-827 483.852,-848.2416 590.9004,-832.1301 656.9551,-819.4275"/>
<polygon fill="#191970" stroke="#191970" points="657.6462,-822.8587 666.7881,-817.5037 656.3021,-815.989 657.6462,-822.8587"/>
</g>
<!-- Node49186 -->
<g id="node23" class="node">
<title>Node49186</title>
<g id="a_node23"><a xlink:href="quickjs_8c.html#a89f38938cee8077ce1fbba07946ed185" target="_top" xlink:title="__JS_AtomToUInt32">
<polygon fill="none" stroke="#000000" points="657,-646.5 657,-665.5 765,-665.5 765,-646.5 657,-646.5"/>
<text text-anchor="middle" x="711" y="-653.5" font-family="Helvetica,sans-Serif" font-size="10.00" fill="#000000">__JS_AtomToUInt32</text>
</a>
</g>
</g>
<!-- Node49136&#45;&gt;Node49186 -->
<g id="edge37" class="edge">
<title>Node49136&#45;&gt;Node49186</title>
<path fill="none" stroke="#191970" d="M415.0017,-639.7222C475.9657,-643.0748 579.6597,-648.7772 646.7224,-652.4652"/>
<polygon fill="#191970" stroke="#191970" points="646.5728,-655.9622 656.75,-653.0166 646.9573,-648.9727 646.5728,-655.9622"/>
</g>
<!-- Node49434 -->
<g id="node24" class="node">
<title>Node49434</title>
<g id="a_node24"><a xlink:href="quickjs_8c.html#a6df3ef223d7e76a0db2c14d972dbfa77" target="_top" xlink:title="get_prop_flags">
<polygon fill="none" stroke="#000000" points="491,-1000.5 491,-1019.5 571,-1019.5 571,-1000.5 491,-1000.5"/>
<text text-anchor="middle" x="531" y="-1007.5" font-family="Helvetica,sans-Serif" font-size="10.00" fill="#000000">get_prop_flags</text>
</a>
</g>
</g>
<!-- Node49136&#45;&gt;Node49434 -->
<g id="edge38" class="edge">
<title>Node49136&#45;&gt;Node49434</title>
<path fill="none" stroke="#191970" d="M366.5868,-646.7615C372.4654,-697.8906 402.0175,-934.4429 451,-986 459.0337,-994.456 469.9171,-999.9675 481.0662,-1003.5501"/>
<polygon fill="#191970" stroke="#191970" points="480.2984,-1006.9686 490.8673,-1006.2274 482.1431,-1000.216 480.2984,-1006.9686"/>
</g>
<!-- Node49423 -->
<g id="node25" class="node">
<title>Node49423</title>
<g id="a_node25"><a xlink:href="quickjs_8c.html#ac93c982cb636a5430b191d104083af3e" target="_top" xlink:title="convert_fast_array\l_to_array">
<polygon fill="none" stroke="#ff0000" points="482,-1039 482,-1069 580,-1069 580,-1039 482,-1039"/>
<text text-anchor="start" x="490" y="-1057" font-family="Helvetica,sans-Serif" font-size="10.00" fill="#000000">convert_fast_array</text>
<text text-anchor="middle" x="531" y="-1046" font-family="Helvetica,sans-Serif" font-size="10.00" fill="#000000">_to_array</text>
</a>
</g>
</g>
<!-- Node49136&#45;&gt;Node49423 -->
<g id="edge39" class="edge">
<title>Node49136&#45;&gt;Node49423</title>
<path fill="none" stroke="#191970" d="M366.3238,-646.8366C371.1107,-701.7505 397.0259,-970.0461 451,-1029 456.8618,-1035.4027 464.336,-1040.1789 472.3527,-1043.739"/>
<polygon fill="#191970" stroke="#191970" points="471.3576,-1047.1049 481.9488,-1047.3842 473.8434,-1040.5611 471.3576,-1047.1049"/>
</g>
<!-- Node49394 -->
<g id="node26" class="node">
<title>Node49394</title>
<g id="a_node26"><a xlink:href="quickjs_8c.html#ab4e100a9cde5f7ec87c92f5e766dbbab" target="_top" xlink:title="JS_AtomIsNumericIndex1">
<polygon fill="none" stroke="#ff0000" points="465.5,-684.5 465.5,-703.5 596.5,-703.5 596.5,-684.5 465.5,-684.5"/>
<text text-anchor="middle" x="531" y="-691.5" font-family="Helvetica,sans-Serif" font-size="10.00" fill="#000000">JS_AtomIsNumericIndex1</text>
</a>
</g>
</g>
<!-- Node49136&#45;&gt;Node49394 -->
<g id="edge41" class="edge">
<title>Node49136&#45;&gt;Node49394</title>
<path fill="none" stroke="#191970" d="M388.9104,-646.5952C405.9936,-653.4596 429.7753,-662.7323 451,-670 462.6821,-674.0002 475.4444,-677.9947 487.2755,-681.5447"/>
<polygon fill="#191970" stroke="#191970" points="486.3682,-684.9262 496.9505,-684.4126 488.3576,-678.2148 486.3682,-684.9262"/>
</g>
<!-- Node49344 -->
<g id="node27" class="node">
<title>Node49344</title>
<g id="a_node27"><a xlink:href="quickjs_8h.html#a4e407128a9605afb77523e49e9a627fd" target="_top" xlink:title="JS_IsUndefined">
<polygon fill="none" stroke="#000000" points="488,-798.5 488,-817.5 574,-817.5 574,-798.5 488,-798.5"/>
<text text-anchor="middle" x="531" y="-805.5" font-family="Helvetica,sans-Serif" font-size="10.00" fill="#000000">JS_IsUndefined</text>
</a>
</g>
</g>
<!-- Node49136&#45;&gt;Node49344 -->
<g id="edge46" class="edge">
<title>Node49136&#45;&gt;Node49344</title>
<path fill="none" stroke="#191970" d="M367.9773,-646.638C375.4563,-673.7053 400.4636,-750.9164 451,-789 458.869,-794.93 468.3104,-799.0435 477.9043,-801.889"/>
<polygon fill="#191970" stroke="#191970" points="477.3446,-805.3576 487.8977,-804.4182 479.0621,-798.5716 477.3446,-805.3576"/>
</g>
<!-- Node49564 -->
<g id="node28" class="node">
<title>Node49564</title>
<g id="a_node28"><a xlink:href="quickjs_8c.html#af2333dd9d30e60437b73af383477188c" target="_top" xlink:title="JS_NumberIsInteger">
<polygon fill="none" stroke="#ff0000" points="477.5,-760.5 477.5,-779.5 584.5,-779.5 584.5,-760.5 477.5,-760.5"/>
<text text-anchor="middle" x="531" y="-767.5" font-family="Helvetica,sans-Serif" font-size="10.00" fill="#000000">JS_NumberIsInteger</text>
</a>
</g>
</g>
<!-- Node49136&#45;&gt;Node49564 -->
<g id="edge48" class="edge">
<title>Node49136&#45;&gt;Node49564</title>
<path fill="none" stroke="#191970" d="M369.8849,-646.75C380.422,-669.0086 409.4121,-723.7388 451,-751 456.0479,-754.3089 461.6106,-757.0431 467.3804,-759.3022"/>
<polygon fill="#191970" stroke="#191970" points="466.6371,-762.747 477.2317,-762.673 468.9034,-756.124 466.6371,-762.747"/>
</g>
<!-- Node49138&#45;&gt;Node49140 -->
<g id="edge5" class="edge">
<title>Node49138&#45;&gt;Node49140</title>
<path fill="none" stroke="#191970" d="M744.4664,-1126.395C754.6892,-1122.6999 765.6831,-1117.9151 775,-1112 800.7478,-1095.6532 825.031,-1069.8492 839.7091,-1052.6787"/>
<polygon fill="#191970" stroke="#191970" points="842.7457,-1054.5026 846.466,-1044.5824 837.3714,-1050.0173 842.7457,-1054.5026"/>
</g>
<!-- Node49141&#45;&gt;Node49141 -->
<g id="edge9" class="edge">
<title>Node49141&#45;&gt;Node49141</title>
<path fill="none" stroke="#191970" d="M689.1137,-561.7571C678.4663,-570.5653 685.7617,-580 711,-580 727.5626,-580 736.3979,-575.9368 737.5059,-570.6539"/>
<polygon fill="#191970" stroke="#191970" points="740.6008,-569.0192 732.8863,-561.7571 734.3883,-572.2449 740.6008,-569.0192"/>
</g>
<!-- Node49141&#45;&gt;Node49142 -->
<g id="edge7" class="edge">
<title>Node49141&#45;&gt;Node49142</title>
<path fill="none" stroke="#191970" d="M737.4208,-542.4512C750.0232,-536.8589 764.5847,-528.7559 775,-518 815.6696,-476.0007 839.1803,-408.9943 848.8233,-376.2617"/>
<polygon fill="#191970" stroke="#191970" points="852.2133,-377.1357 851.5667,-366.5606 845.4775,-375.2308 852.2133,-377.1357"/>
</g>
<!-- Node49141&#45;&gt;Node49178 -->
<g id="edge8" class="edge">
<title>Node49141&#45;&gt;Node49178</title>
<path fill="none" stroke="#191970" d="M725.3934,-561.5551C739.1923,-571.1804 760.0726,-587.005 775,-604 805.5796,-638.8151 831.7226,-686.864 844.8874,-713.0739"/>
<polygon fill="#191970" stroke="#191970" points="841.8626,-714.8537 849.424,-722.275 848.1409,-711.7581 841.8626,-714.8537"/>
</g>
<!-- Node49385&#45;&gt;Node49178 -->
<g id="edge17" class="edge">
<title>Node49385&#45;&gt;Node49178</title>
<path fill="none" stroke="#191970" d="M583.2206,-881.3952C635.2741,-876.6973 715.7822,-863.5756 775,-827 806.0196,-807.8409 830.6734,-772.2452 843.7405,-750.4844"/>
<polygon fill="#191970" stroke="#191970" points="846.9219,-751.9751 848.9102,-741.5685 840.8662,-748.4638 846.9219,-751.9751"/>
</g>
<!-- Node49385&#45;&gt;Node49386 -->
<g id="edge15" class="edge">
<title>Node49385&#45;&gt;Node49386</title>
<path fill="none" stroke="#191970" d="M580.5727,-893.5C590.8585,-896.2664 601.462,-899.7282 611,-904 641.4073,-917.6184 672.5435,-940.4837 691.8199,-955.8982"/>
<polygon fill="#191970" stroke="#191970" points="689.8332,-958.7941 699.7969,-962.3963 694.2542,-953.3669 689.8332,-958.7941"/>
</g>
<!-- Node49386&#45;&gt;Node49140 -->
<g id="edge16" class="edge">
<title>Node49386&#45;&gt;Node49140</title>
<path fill="none" stroke="#191970" d="M732.7186,-981.5683C756.6564,-992.1144 795.3731,-1009.1714 822.6103,-1021.171"/>
<polygon fill="#191970" stroke="#191970" points="821.5146,-1024.5128 832.077,-1025.3416 824.3368,-1018.1069 821.5146,-1024.5128"/>
</g>
<!-- Node49545&#45;&gt;Node49211 -->
<g id="edge23" class="edge">
<title>Node49545&#45;&gt;Node49211</title>
<path fill="none" stroke="#191970" d="M572.2956,-229.282C599.1035,-223.6226 634.1615,-216.2215 662.324,-210.2761"/>
<polygon fill="#191970" stroke="#191970" points="663.2982,-213.6476 672.3596,-208.1574 661.8523,-206.7986 663.2982,-213.6476"/>
</g>
<!-- Node49415&#45;&gt;Node49142 -->
<g id="edge25" class="edge">
<title>Node49415&#45;&gt;Node49142</title>
<path fill="none" stroke="#191970" d="M740.7748,-287.6052C751.833,-290.6301 764.2859,-294.7343 775,-300 797.412,-311.015 820.2519,-328.2861 835.57,-340.9321"/>
<polygon fill="#191970" stroke="#191970" points="833.3546,-343.6422 843.2558,-347.4126 837.867,-338.2906 833.3546,-343.6422"/>
</g>
<!-- Node49416&#45;&gt;Node49140 -->
<g id="edge30" class="edge">
<title>Node49416&#45;&gt;Node49140</title>
<path fill="none" stroke="#191970" d="M575.8204,-361.1836C587.394,-363.9521 599.7563,-367.2631 611,-371 686.3725,-396.0507 727.6239,-378.2501 775,-442 816.2352,-497.4866 801.8241,-682.4806 811,-751 824.3303,-850.5418 843.2992,-969.2306 850.7849,-1015.3349"/>
<polygon fill="#191970" stroke="#191970" points="847.3307,-1015.9 852.3927,-1025.2074 854.2397,-1014.7748 847.3307,-1015.9"/>
</g>
<!-- Node49416&#45;&gt;Node49141 -->
<g id="edge27" class="edge">
<title>Node49416&#45;&gt;Node49141</title>
<path fill="none" stroke="#191970" d="M575.5165,-354.4695C588.2701,-357.169 601.3236,-362.1203 611,-371 648.5896,-405.4947 621.5253,-435.797 647,-480 659.1467,-501.0766 678.1512,-521.4461 692.2994,-535.108"/>
<polygon fill="#191970" stroke="#191970" points="690.2975,-538.03 699.9799,-542.3314 695.0932,-532.9308 690.2975,-538.03"/>
</g>
<!-- Node49416&#45;&gt;Node49142 -->
<g id="edge28" class="edge">
<title>Node49416&#45;&gt;Node49142</title>
<path fill="none" stroke="#191970" d="M575.5726,-352.69C635.6127,-353.6194 742.1234,-355.2682 804.5613,-356.2347"/>
<polygon fill="#191970" stroke="#191970" points="804.8845,-359.74 814.9376,-356.3953 804.993,-352.7409 804.8845,-359.74"/>
</g>
<!-- Node49416&#45;&gt;Node49240 -->
<g id="edge29" class="edge">
<title>Node49416&#45;&gt;Node49240</title>
<path fill="none" stroke="#191970" d="M575.5177,-356.2788C587.8431,-359.0679 600.6622,-363.6146 611,-371 635.3804,-388.4176 624.9092,-407.7571 647,-428 655.3973,-435.6949 665.9239,-442.0925 676.0005,-447.1415"/>
<polygon fill="#191970" stroke="#191970" points="674.5151,-450.3106 685.054,-451.3978 677.4933,-443.9757 674.5151,-450.3106"/>
</g>
<!-- Node49416&#45;&gt;Node49424 -->
<g id="edge32" class="edge">
<title>Node49416&#45;&gt;Node49424</title>
<path fill="none" stroke="#191970" d="M575.9573,-343.7578C602.9189,-338.8149 637.1469,-332.5397 664.3968,-327.5439"/>
<polygon fill="#191970" stroke="#191970" points="665.2644,-330.9433 674.4693,-325.6973 664.002,-324.058 665.2644,-330.9433"/>
</g>
<!-- Node49416&#45;&gt;Node49415 -->
<g id="edge31" class="edge">
<title>Node49416&#45;&gt;Node49415</title>
<path fill="none" stroke="#191970" d="M550.3735,-342.3594C573.1418,-331.2549 612.2347,-312.8878 647,-300 654.8808,-297.0785 663.4321,-294.2876 671.6418,-291.7877"/>
<polygon fill="#191970" stroke="#191970" points="672.8233,-295.0882 681.4184,-288.8935 670.8362,-288.3761 672.8233,-295.0882"/>
</g>
<!-- Node49563&#45;&gt;Node49386 -->
<g id="edge35" class="edge">
<title>Node49563&#45;&gt;Node49386</title>
<path fill="none" stroke="#191970" d="M580.6623,-940.1397C606.1091,-946.36 636.9805,-953.9064 662.29,-960.0931"/>
<polygon fill="#191970" stroke="#191970" points="661.5041,-963.504 672.0492,-962.4787 663.1663,-956.7042 661.5041,-963.504"/>
</g>
<!-- Node49423&#45;&gt;Node49386 -->
<g id="edge40" class="edge">
<title>Node49423&#45;&gt;Node49386</title>
<path fill="none" stroke="#191970" d="M580.2631,-1040.4374C590.5697,-1037.0931 601.26,-1033.2388 611,-1029 638.5237,-1017.0217 668.1766,-999.4758 687.984,-987.0199"/>
<polygon fill="#191970" stroke="#191970" points="690.0526,-989.852 696.6063,-981.5273 686.2917,-983.9481 690.0526,-989.852"/>
</g>
<!-- Node49394&#45;&gt;Node49142 -->
<g id="edge45" class="edge">
<title>Node49394&#45;&gt;Node49142</title>
<path fill="none" stroke="#191970" d="M596.6687,-697.2384C659.6743,-698.906 748.9757,-697.0316 775,-675 821.3911,-635.7262 845.3806,-440.4295 852.0418,-376.9612"/>
<polygon fill="#191970" stroke="#191970" points="855.5544,-377.0149 853.0855,-366.7117 848.5904,-376.3057 855.5544,-377.0149"/>
</g>
<!-- Node49394&#45;&gt;Node49178 -->
<g id="edge44" class="edge">
<title>Node49394&#45;&gt;Node49178</title>
<path fill="none" stroke="#191970" d="M596.6347,-701.9757C613.0784,-703.959 630.6829,-706.0694 647,-708 699.2758,-714.185 758.9979,-721.0924 800.8143,-725.9029"/>
<polygon fill="#191970" stroke="#191970" points="800.4442,-729.3833 810.7785,-727.0485 801.2438,-722.4291 800.4442,-729.3833"/>
</g>
<!-- Node49394&#45;&gt;Node49185 -->
<g id="edge42" class="edge">
<title>Node49394&#45;&gt;Node49185</title>
<path fill="none" stroke="#191970" d="M587.8983,-703.5676C595.9109,-706.0324 603.8455,-709.1242 611,-713 615.8867,-715.6473 666.2882,-764.4276 693.6119,-791.0296"/>
<polygon fill="#191970" stroke="#191970" points="691.3584,-793.7206 700.9628,-798.1934 696.2439,-788.7074 691.3584,-793.7206"/>
</g>
<!-- Node49394&#45;&gt;Node49186 -->
<g id="edge43" class="edge">
<title>Node49394&#45;&gt;Node49186</title>
<path fill="none" stroke="#191970" d="M576.4216,-684.411C600.6025,-679.3061 630.5273,-672.9887 656.0139,-667.6082"/>
<polygon fill="#191970" stroke="#191970" points="656.8437,-671.0102 665.905,-665.5201 655.3977,-664.1612 656.8437,-671.0102"/>
</g>
</g>
</svg>
