<?xml version="1.0" encoding="UTF-8" standalone="no"?>
<!DOCTYPE svg PUBLIC "-//W3C//DTD SVG 1.1//EN"
 "http://www.w3.org/Graphics/SVG/1.1/DTD/svg11.dtd">
<!-- Generated by graphviz version 2.40.1 (20161225.0304)
 -->
<!-- Title: instantiate_hoisted_definitions Pages: 1 -->
<!--zoomable 294 -->
<svg id="main" version="1.1" xmlns="http://www.w3.org/2000/svg" xmlns:xlink="http://www.w3.org/1999/xlink" xml:space="preserve" onload="init(evt)">
<style type="text/css"><![CDATA[
.edge:hover path { stroke: red; }
.edge:hover polygon { stroke: red; fill: red; }
]]></style>
<script type="text/javascript"><![CDATA[
var edges = document.getElementsByTagName('g');
if (edges && edges.length) {
  for (var i=0;i<edges.length;i++) {
    if (edges[i].id.substr(0,4)=='edge') {
      edges[i].setAttribute('class','edge');
    }
  }
}
]]></script>
        <defs>
                <circle id="rim" cx="0" cy="0" r="7"/>
                <circle id="rim2" cx="0" cy="0" r="3.5"/>
                <g id="zoomPlus">
                        <use xlink:href="#rim" fill="#404040">
                                <set attributeName="fill" to="#808080" begin="zoomplus.mouseover" end="zoomplus.mouseout"/>
                        </use>
                        <path d="M-4,0h8M0,-4v8" fill="none" stroke="white" stroke-width="1.5" pointer-events="none"/>
                </g>
                <g id="zoomMin">
                        <use xlink:href="#rim" fill="#404040">
                                <set attributeName="fill" to="#808080" begin="zoomminus.mouseover" end="zoomminus.mouseout"/>
                        </use>
                        <path d="M-4,0h8" fill="none" stroke="white" stroke-width="1.5" pointer-events="none"/>
                </g>
                <g id="dirArrow">
                        <path fill="none" stroke="white" stroke-width="1.5" d="M0,-3.0v7 M-2.5,-0.5L0,-3.0L2.5,-0.5"/>
                </g>
               <g id="resetDef">
                       <use xlink:href="#rim2" fill="#404040">
                               <set attributeName="fill" to="#808080" begin="reset.mouseover" end="reset.mouseout"/>
                       </use>
               </g>
        </defs>

<script type="text/javascript">
var viewWidth = 589;
var viewHeight = 294;
var sectionId = 'dynsection-1214';
</script>
<script xlink:href="svgpan.js"/>
<svg id="graph" class="graph">
<g id="viewport">
<title>instantiate_hoisted_definitions</title>
<!-- Node355541 -->
<g id="node1" class="node">
<title>Node355541</title>
<polygon fill="#bfbfbf" stroke="#000000" points="0,-128 0,-158 98,-158 98,-128 0,-128"/>
<text text-anchor="start" x="8" y="-146" font-family="Helvetica,sans-Serif" font-size="10.00" fill="#000000">instantiate_hoisted</text>
<text text-anchor="middle" x="49" y="-135" font-family="Helvetica,sans-Serif" font-size="10.00" fill="#000000">_definitions</text>
</g>
<!-- Node355542 -->
<g id="node2" class="node">
<title>Node355542</title>
<g id="a_node2"><a xlink:href="cutils_8h.html#a31a6b9f8517a73d45e976d8a026e964e" target="_top" xlink:title="dbuf_put_u16">
<polygon fill="none" stroke="#000000" points="135,-190.5 135,-209.5 210,-209.5 210,-190.5 135,-190.5"/>
<text text-anchor="middle" x="172.5" y="-197.5" font-family="Helvetica,sans-Serif" font-size="10.00" fill="#000000">dbuf_put_u16</text>
</a>
</g>
</g>
<!-- Node355541&#45;&gt;Node355542 -->
<g id="edge1" class="edge">
<title>Node355541&#45;&gt;Node355542</title>
<path fill="none" stroke="#191970" d="M81.7715,-158.1253C100.6358,-166.8319 124.1665,-177.6922 142.5368,-186.1708"/>
<polygon fill="#191970" stroke="#191970" points="141.0745,-189.3507 151.6209,-190.3635 144.008,-182.995 141.0745,-189.3507"/>
</g>
<!-- Node355545 -->
<g id="node5" class="node">
<title>Node355545</title>
<g id="a_node5"><a xlink:href="cutils_8h.html#a8ba08f82c43549fcb3c939229498354d" target="_top" xlink:title="dbuf_put_u32">
<polygon fill="none" stroke="#000000" points="135,-266.5 135,-285.5 210,-285.5 210,-266.5 135,-266.5"/>
<text text-anchor="middle" x="172.5" y="-273.5" font-family="Helvetica,sans-Serif" font-size="10.00" fill="#000000">dbuf_put_u32</text>
</a>
</g>
</g>
<!-- Node355541&#45;&gt;Node355545 -->
<g id="edge4" class="edge">
<title>Node355541&#45;&gt;Node355545</title>
<path fill="none" stroke="#191970" d="M57.1045,-158.0833C70.4519,-181.7588 99.0899,-227.9357 134,-257 135.7686,-258.4724 137.6706,-259.8661 139.6481,-261.1785"/>
<polygon fill="#191970" stroke="#191970" points="138.219,-264.3965 148.6218,-266.4051 141.7421,-258.3477 138.219,-264.3965"/>
</g>
<!-- Node355546 -->
<g id="node6" class="node">
<title>Node355546</title>
<g id="a_node6"><a xlink:href="cutils_8h.html#aeed81d4787ccdbd55baa9b5fd6717e88" target="_top" xlink:title="dbuf_putc">
<polygon fill="none" stroke="#000000" points="143,-228.5 143,-247.5 202,-247.5 202,-228.5 143,-228.5"/>
<text text-anchor="middle" x="172.5" y="-235.5" font-family="Helvetica,sans-Serif" font-size="10.00" fill="#000000">dbuf_putc</text>
</a>
</g>
</g>
<!-- Node355541&#45;&gt;Node355546 -->
<g id="edge6" class="edge">
<title>Node355541&#45;&gt;Node355546</title>
<path fill="none" stroke="#191970" d="M63.3248,-158.0527C79.4458,-174.4317 106.9322,-200.7195 134,-219 136.3743,-220.6035 138.9035,-222.1538 141.4876,-223.6307"/>
<polygon fill="#191970" stroke="#191970" points="139.8673,-226.7332 150.3396,-228.3403 143.1552,-220.5534 139.8673,-226.7332"/>
</g>
<!-- Node355547 -->
<g id="node7" class="node">
<title>Node355547</title>
<g id="a_node7"><a xlink:href="quickjs_8c.html#abbf44eaeace1104a6bef718fbf5700fe" target="_top" xlink:title="JS_DupAtom">
<polygon fill="none" stroke="#000000" points="135,-152.5 135,-171.5 210,-171.5 210,-152.5 135,-152.5"/>
<text text-anchor="middle" x="172.5" y="-159.5" font-family="Helvetica,sans-Serif" font-size="10.00" fill="#000000">JS_DupAtom</text>
</a>
</g>
</g>
<!-- Node355541&#45;&gt;Node355547 -->
<g id="edge8" class="edge">
<title>Node355541&#45;&gt;Node355547</title>
<path fill="none" stroke="#191970" d="M98.1653,-150.5639C106.9646,-151.9176 116.1198,-153.3261 124.8748,-154.673"/>
<polygon fill="#191970" stroke="#191970" points="124.5073,-158.1576 134.9232,-156.219 125.5717,-151.239 124.5073,-158.1576"/>
</g>
<!-- Node355549 -->
<g id="node9" class="node">
<title>Node355549</title>
<g id="a_node9"><a xlink:href="quickjs_8c.html#a80e54dcf9ac687d4ccc2f90273565f30" target="_top" xlink:title="js_free">
<polygon fill="none" stroke="#000000" points="413.5,-76.5 413.5,-95.5 459.5,-95.5 459.5,-76.5 413.5,-76.5"/>
<text text-anchor="middle" x="436.5" y="-83.5" font-family="Helvetica,sans-Serif" font-size="10.00" fill="#000000">js_free</text>
</a>
</g>
</g>
<!-- Node355541&#45;&gt;Node355549 -->
<g id="edge10" class="edge">
<title>Node355541&#45;&gt;Node355549</title>
<path fill="none" stroke="#191970" d="M76.0532,-127.9057C92.3281,-119.5984 113.7533,-109.9883 134,-105 229.5189,-81.4663 346.8522,-82.1721 403.1979,-84.2649"/>
<polygon fill="#191970" stroke="#191970" points="403.1746,-87.7668 413.31,-84.6807 403.4623,-80.7727 403.1746,-87.7668"/>
</g>
<!-- Node355551 -->
<g id="node11" class="node">
<title>Node355551</title>
<g id="a_node11"><a xlink:href="quickjs_8c.html#ab7fc45a99935a1c0ba50b0216d9401a9" target="_top" xlink:title="JS_FreeAtom">
<polygon fill="none" stroke="#000000" points="134,-114.5 134,-133.5 211,-133.5 211,-114.5 134,-114.5"/>
<text text-anchor="middle" x="172.5" y="-121.5" font-family="Helvetica,sans-Serif" font-size="10.00" fill="#000000">JS_FreeAtom</text>
</a>
</g>
</g>
<!-- Node355541&#45;&gt;Node355551 -->
<g id="edge12" class="edge">
<title>Node355541&#45;&gt;Node355551</title>
<path fill="none" stroke="#191970" d="M98.1653,-135.4361C106.582,-134.1412 115.3244,-132.7962 123.7307,-131.503"/>
<polygon fill="#191970" stroke="#191970" points="124.4218,-134.9379 133.7733,-129.958 123.3573,-128.0193 124.4218,-134.9379"/>
</g>
<!-- Node355555 -->
<g id="node14" class="node">
<title>Node355555</title>
<g id="a_node14"><a xlink:href="quickjs_8c.html#a217c750ab1ff788ada118a7f6736cb6e" target="_top" xlink:title="new_label_fd">
<polygon fill="none" stroke="#000000" points="135.5,-38.5 135.5,-57.5 209.5,-57.5 209.5,-38.5 135.5,-38.5"/>
<text text-anchor="middle" x="172.5" y="-45.5" font-family="Helvetica,sans-Serif" font-size="10.00" fill="#000000">new_label_fd</text>
</a>
</g>
</g>
<!-- Node355541&#45;&gt;Node355555 -->
<g id="edge17" class="edge">
<title>Node355541&#45;&gt;Node355555</title>
<path fill="none" stroke="#191970" d="M65.6967,-127.8665C82.4448,-112.9755 109.2369,-89.9289 134,-72 138.2764,-68.9038 142.953,-65.7835 147.5269,-62.8641"/>
<polygon fill="#191970" stroke="#191970" points="149.4193,-65.809 156.0639,-57.5567 145.7234,-59.8641 149.4193,-65.809"/>
</g>
<!-- Node355556 -->
<g id="node15" class="node">
<title>Node355556</title>
<g id="a_node15"><a xlink:href="quickjs_8c.html#a337071c33fd0684a2b132b17f536f35c" target="_top" xlink:title="update_label">
<polygon fill="none" stroke="#000000" points="137,-.5 137,-19.5 208,-19.5 208,-.5 137,-.5"/>
<text text-anchor="middle" x="172.5" y="-7.5" font-family="Helvetica,sans-Serif" font-size="10.00" fill="#000000">update_label</text>
</a>
</g>
</g>
<!-- Node355541&#45;&gt;Node355556 -->
<g id="edge18" class="edge">
<title>Node355541&#45;&gt;Node355556</title>
<path fill="none" stroke="#191970" d="M57.1045,-127.9167C70.4519,-104.2412 99.0899,-58.0643 134,-29 135.7686,-27.5276 137.6706,-26.1339 139.6481,-24.8215"/>
<polygon fill="#191970" stroke="#191970" points="141.7421,-27.6523 148.6218,-19.5949 138.219,-21.6035 141.7421,-27.6523"/>
</g>
<!-- Node355543 -->
<g id="node3" class="node">
<title>Node355543</title>
<g id="a_node3"><a xlink:href="cutils_8h.html#ad1cfaae47347ae771136b5a9bbda49aa" target="_top" xlink:title="dbuf_put">
<polygon fill="none" stroke="#000000" points="271,-228.5 271,-247.5 325,-247.5 325,-228.5 271,-228.5"/>
<text text-anchor="middle" x="298" y="-235.5" font-family="Helvetica,sans-Serif" font-size="10.00" fill="#000000">dbuf_put</text>
</a>
</g>
</g>
<!-- Node355542&#45;&gt;Node355543 -->
<g id="edge2" class="edge">
<title>Node355542&#45;&gt;Node355543</title>
<path fill="none" stroke="#191970" d="M204.1689,-209.589C221.4465,-214.8205 242.9299,-221.3254 260.9787,-226.7904"/>
<polygon fill="#191970" stroke="#191970" points="260.0187,-230.1565 270.6039,-229.7048 262.0473,-223.4569 260.0187,-230.1565"/>
</g>
<!-- Node355544 -->
<g id="node4" class="node">
<title>Node355544</title>
<g id="a_node4"><a xlink:href="cutils_8h.html#ac0b9ce26415947e972d6781d9f2fb11b" target="_top" xlink:title="dbuf_realloc">
<polygon fill="none" stroke="#000000" points="402,-228.5 402,-247.5 471,-247.5 471,-228.5 402,-228.5"/>
<text text-anchor="middle" x="436.5" y="-235.5" font-family="Helvetica,sans-Serif" font-size="10.00" fill="#000000">dbuf_realloc</text>
</a>
</g>
</g>
<!-- Node355543&#45;&gt;Node355544 -->
<g id="edge3" class="edge">
<title>Node355543&#45;&gt;Node355544</title>
<path fill="none" stroke="#191970" d="M325.033,-238C343.9938,-238 369.7826,-238 391.7795,-238"/>
<polygon fill="#191970" stroke="#191970" points="391.903,-241.5001 401.903,-238 391.903,-234.5001 391.903,-241.5001"/>
</g>
<!-- Node355545&#45;&gt;Node355543 -->
<g id="edge5" class="edge">
<title>Node355545&#45;&gt;Node355543</title>
<path fill="none" stroke="#191970" d="M204.1689,-266.411C221.4465,-261.1795 242.9299,-254.6746 260.9787,-249.2096"/>
<polygon fill="#191970" stroke="#191970" points="262.0473,-252.5431 270.6039,-246.2952 260.0187,-245.8435 262.0473,-252.5431"/>
</g>
<!-- Node355546&#45;&gt;Node355543 -->
<g id="edge7" class="edge">
<title>Node355546&#45;&gt;Node355543</title>
<path fill="none" stroke="#191970" d="M202.2417,-238C219.6522,-238 241.8019,-238 260.4125,-238"/>
<polygon fill="#191970" stroke="#191970" points="260.616,-241.5001 270.616,-238 260.616,-234.5001 260.616,-241.5001"/>
</g>
<!-- Node355548 -->
<g id="node8" class="node">
<title>Node355548</title>
<g id="a_node8"><a xlink:href="quickjs_8c.html#a7f6796ee7a195631366f57c713a33f65" target="_top" xlink:title="__JS_AtomIsConst">
<polygon fill="none" stroke="#000000" points="247,-152.5 247,-171.5 349,-171.5 349,-152.5 247,-152.5"/>
<text text-anchor="middle" x="298" y="-159.5" font-family="Helvetica,sans-Serif" font-size="10.00" fill="#000000">__JS_AtomIsConst</text>
</a>
</g>
</g>
<!-- Node355547&#45;&gt;Node355548 -->
<g id="edge9" class="edge">
<title>Node355547&#45;&gt;Node355548</title>
<path fill="none" stroke="#191970" d="M210.1541,-162C218.5475,-162 227.658,-162 236.7274,-162"/>
<polygon fill="#191970" stroke="#191970" points="236.9091,-165.5001 246.9091,-162 236.9091,-158.5001 236.9091,-165.5001"/>
</g>
<!-- Node355550 -->
<g id="node10" class="node">
<title>Node355550</title>
<g id="a_node10"><a xlink:href="quickjs_8c.html#a69e19dda8a93d613203e0baa06f0ed8d" target="_top" xlink:title="js_free_rt">
<polygon fill="none" stroke="#000000" points="524,-95.5 524,-114.5 581,-114.5 581,-95.5 524,-95.5"/>
<text text-anchor="middle" x="552.5" y="-102.5" font-family="Helvetica,sans-Serif" font-size="10.00" fill="#000000">js_free_rt</text>
</a>
</g>
</g>
<!-- Node355549&#45;&gt;Node355550 -->
<g id="edge11" class="edge">
<title>Node355549&#45;&gt;Node355550</title>
<path fill="none" stroke="#191970" d="M459.6955,-89.7993C475.1322,-92.3277 495.7885,-95.7111 513.6941,-98.6439"/>
<polygon fill="#191970" stroke="#191970" points="513.1481,-102.101 523.5824,-100.2635 514.2796,-95.193 513.1481,-102.101"/>
</g>
<!-- Node355551&#45;&gt;Node355548 -->
<g id="edge13" class="edge">
<title>Node355551&#45;&gt;Node355548</title>
<path fill="none" stroke="#191970" d="M204.1689,-133.589C220.0725,-138.4044 239.5396,-144.2988 256.6114,-149.468"/>
<polygon fill="#191970" stroke="#191970" points="255.756,-152.8658 266.3412,-152.4141 257.7846,-146.1662 255.756,-152.8658"/>
</g>
<!-- Node355552 -->
<g id="node12" class="node">
<title>Node355552</title>
<g id="a_node12"><a xlink:href="quickjs_8c.html#a0bbd9e3ecd55e3ea6c9d44bfda382095" target="_top" xlink:title="__JS_FreeAtom">
<polygon fill="none" stroke="#000000" points="254.5,-114.5 254.5,-133.5 341.5,-133.5 341.5,-114.5 254.5,-114.5"/>
<text text-anchor="middle" x="298" y="-121.5" font-family="Helvetica,sans-Serif" font-size="10.00" fill="#000000">__JS_FreeAtom</text>
</a>
</g>
</g>
<!-- Node355551&#45;&gt;Node355552 -->
<g id="edge14" class="edge">
<title>Node355551&#45;&gt;Node355552</title>
<path fill="none" stroke="#191970" d="M211.1782,-124C221.655,-124 233.1871,-124 244.329,-124"/>
<polygon fill="#191970" stroke="#191970" points="244.4103,-127.5001 254.4103,-124 244.4102,-120.5001 244.4103,-127.5001"/>
</g>
<!-- Node355553 -->
<g id="node13" class="node">
<title>Node355553</title>
<g id="a_node13"><a xlink:href="quickjs_8c.html#a58c8965dad50b15b75918a09f3d9dc7c" target="_top" xlink:title="JS_FreeAtomStruct">
<polygon fill="none" stroke="#ff0000" points="385,-114.5 385,-133.5 488,-133.5 488,-114.5 385,-114.5"/>
<text text-anchor="middle" x="436.5" y="-121.5" font-family="Helvetica,sans-Serif" font-size="10.00" fill="#000000">JS_FreeAtomStruct</text>
</a>
</g>
</g>
<!-- Node355552&#45;&gt;Node355553 -->
<g id="edge15" class="edge">
<title>Node355552&#45;&gt;Node355553</title>
<path fill="none" stroke="#191970" d="M341.8223,-124C352.2585,-124 363.5896,-124 374.6647,-124"/>
<polygon fill="#191970" stroke="#191970" points="374.7308,-127.5001 384.7308,-124 374.7307,-120.5001 374.7308,-127.5001"/>
</g>
<!-- Node355553&#45;&gt;Node355550 -->
<g id="edge16" class="edge">
<title>Node355553&#45;&gt;Node355550</title>
<path fill="none" stroke="#191970" d="M488.0548,-115.5557C496.7341,-114.1341 505.6084,-112.6805 513.8871,-111.3245"/>
<polygon fill="#191970" stroke="#191970" points="514.6928,-114.7393 523.9955,-109.6688 513.5613,-107.8313 514.6928,-114.7393"/>
</g>
</g>
</svg>
        <g id="navigator" transform="translate(0 0)" fill="#404254">
                <rect fill="#f2f5e9" fill-opacity="0.5" stroke="#606060" stroke-width=".5" x="0" y="0" width="60" height="60"/>
                <use id="zoomplus" xlink:href="#zoomPlus" x="17" y="9" onmousedown="handleZoom(evt,'in')"/>
                <use id="zoomminus" xlink:href="#zoomMin" x="42" y="9" onmousedown="handleZoom(evt,'out')"/>
                <use id="reset" xlink:href="#resetDef" x="30" y="36" onmousedown="handleReset()"/>
                <g id="arrowUp" xlink:href="#dirArrow" transform="translate(30 24)" onmousedown="handlePan(0,-1)">
                  <use xlink:href="#rim" fill="#404040">
                        <set attributeName="fill" to="#808080" begin="arrowUp.mouseover" end="arrowUp.mouseout"/>
                  </use>
                  <path fill="none" stroke="white" stroke-width="1.5" d="M0,-3.0v7 M-2.5,-0.5L0,-3.0L2.5,-0.5"/>
                </g>
                <g id="arrowRight" xlink:href="#dirArrow" transform="rotate(90) translate(36 -43)" onmousedown="handlePan(1,0)">
                  <use xlink:href="#rim" fill="#404040">
                        <set attributeName="fill" to="#808080" begin="arrowRight.mouseover" end="arrowRight.mouseout"/>
                  </use>
                  <path fill="none" stroke="white" stroke-width="1.5" d="M0,-3.0v7 M-2.5,-0.5L0,-3.0L2.5,-0.5"/>
                </g>
                <g id="arrowDown" xlink:href="#dirArrow" transform="rotate(180) translate(-30 -48)" onmousedown="handlePan(0,1)">
                  <use xlink:href="#rim" fill="#404040">
                        <set attributeName="fill" to="#808080" begin="arrowDown.mouseover" end="arrowDown.mouseout"/>
                  </use>
                  <path fill="none" stroke="white" stroke-width="1.5" d="M0,-3.0v7 M-2.5,-0.5L0,-3.0L2.5,-0.5"/>
                </g>
                <g id="arrowLeft" xlink:href="#dirArrow" transform="rotate(270) translate(-36 17)" onmousedown="handlePan(-1,0)">
                  <use xlink:href="#rim" fill="#404040">
                        <set attributeName="fill" to="#808080" begin="arrowLeft.mouseover" end="arrowLeft.mouseout"/>
                  </use>
                  <path fill="none" stroke="white" stroke-width="1.5" d="M0,-3.0v7 M-2.5,-0.5L0,-3.0L2.5,-0.5"/>
                </g>
        </g>
        <svg viewBox="0 0 15 15" width="100%" height="30px" preserveAspectRatio="xMaxYMin meet">
         <g id="arrow_out" transform="scale(0.3 0.3)">
          <a xlink:href="quickjs_8c_a942ca594c506978a0dfded4cb3cd20fa_cgraph_org.svg" target="_base">
           <rect id="button" ry="5" rx="5" y="6" x="6" height="38" width="38"
                fill="#f2f5e9" fill-opacity="0.5" stroke="#606060" stroke-width="1.0"/>
           <path id="arrow"
             d="M 11.500037,31.436501 C 11.940474,20.09759 22.043105,11.32322 32.158766,21.979434 L 37.068811,17.246167 C 37.068811,17.246167 37.088388,32 37.088388,32 L 22.160133,31.978069 C 22.160133,31.978069 26.997745,27.140456 26.997745,27.140456 C 18.528582,18.264221 13.291696,25.230495 11.500037,31.436501 z"
             style="fill:#404040;"/>
          </a>
         </g>
        </svg>
</svg>
