<?xml version="1.0" encoding="UTF-8" standalone="no"?>
<!DOCTYPE svg PUBLIC "-//W3C//DTD SVG 1.1//EN"
 "http://www.w3.org/Graphics/SVG/1.1/DTD/svg11.dtd">
<!-- Generated by graphviz version 2.40.1 (20161225.0304)
 -->
<!-- Title: put_lvalue Pages: 1 -->
<svg width="1093pt" height="656pt"
 viewBox="0.00 0.00 1093.00 656.00" xmlns="http://www.w3.org/2000/svg" xmlns:xlink="http://www.w3.org/1999/xlink">
<g id="graph0" class="graph" transform="scale(1 1) rotate(0) translate(4 652)">
<title>put_lvalue</title>
<!-- Node323296 -->
<g id="node1" class="node">
<title>Node323296</title>
<polygon fill="#bfbfbf" stroke="#000000" points="0,-104.5 0,-123.5 61,-123.5 61,-104.5 0,-104.5"/>
<text text-anchor="middle" x="30.5" y="-111.5" font-family="Helvetica,sans-Serif" font-size="10.00" fill="#000000">put_lvalue</text>
</g>
<!-- Node323297 -->
<g id="node2" class="node">
<title>Node323297</title>
<g id="a_node2"><a xlink:href="quickjs_8c.html#afa1bc2743b3cf892d36544a708453736" target="_top" xlink:title="js_parse_assign_expr2">
<polygon fill="none" stroke="#000000" points="97,-218.5 97,-237.5 213,-237.5 213,-218.5 97,-218.5"/>
<text text-anchor="middle" x="155" y="-225.5" font-family="Helvetica,sans-Serif" font-size="10.00" fill="#000000">js_parse_assign_expr2</text>
</a>
</g>
</g>
<!-- Node323296&#45;&gt;Node323297 -->
<g id="edge1" class="edge">
<title>Node323296&#45;&gt;Node323297</title>
<path fill="none" stroke="#191970" d="M48.54,-130.5185C74.9006,-154.6559 123.1183,-198.8071 144.4121,-218.305"/>
<polygon fill="#191970" stroke="#191970" points="50.8537,-127.8915 41.1148,-123.7196 46.1264,-133.0542 50.8537,-127.8915"/>
</g>
<!-- Node323322 -->
<g id="node6" class="node">
<title>Node323322</title>
<g id="a_node6"><a xlink:href="quickjs_8c.html#a9f26c765171d977db1796791f035f1f9" target="_top" xlink:title="js_parse_unary">
<polygon fill="none" stroke="#ff0000" points="1002,-233.5 1002,-252.5 1085,-252.5 1085,-233.5 1002,-233.5"/>
<text text-anchor="middle" x="1043.5" y="-240.5" font-family="Helvetica,sans-Serif" font-size="10.00" fill="#000000">js_parse_unary</text>
</a>
</g>
</g>
<!-- Node323296&#45;&gt;Node323322 -->
<g id="edge45" class="edge">
<title>Node323296&#45;&gt;Node323322</title>
<path fill="none" stroke="#191970" d="M51.3246,-98.5935C95.5319,-67.4622 203.0355,0 304.5,0 304.5,0 304.5,0 761.5,0 907.2348,0 1015.0334,-188.5469 1038.6512,-233.4741"/>
<polygon fill="#191970" stroke="#191970" points="49.2031,-95.8078 43.1117,-104.4765 53.2794,-101.4985 49.2031,-95.8078"/>
</g>
<!-- Node323320 -->
<g id="node11" class="node">
<title>Node323320</title>
<g id="a_node11"><a xlink:href="quickjs_8c.html#a26be546cf89c4580ba9020e8fc43a759" target="_top" xlink:title="js_parse_destructuring\l_element">
<polygon fill="none" stroke="#000000" points="396,-219 396,-249 511,-249 511,-219 396,-219"/>
<text text-anchor="start" x="404" y="-237" font-family="Helvetica,sans-Serif" font-size="10.00" fill="#000000">js_parse_destructuring</text>
<text text-anchor="middle" x="453.5" y="-226" font-family="Helvetica,sans-Serif" font-size="10.00" fill="#000000">_element</text>
</a>
</g>
</g>
<!-- Node323296&#45;&gt;Node323320 -->
<g id="edge43" class="edge">
<title>Node323296&#45;&gt;Node323320</title>
<path fill="none" stroke="#191970" d="M71.2421,-115.5799C134.9973,-119.2412 261.2628,-131.3215 360,-171 389.0592,-182.6777 418.3178,-204.3677 436.1754,-218.9929"/>
<polygon fill="#191970" stroke="#191970" points="71.3634,-112.0815 61.191,-115.0434 70.9902,-119.0716 71.3634,-112.0815"/>
</g>
<!-- Node323321 -->
<g id="node12" class="node">
<title>Node323321</title>
<g id="a_node12"><a xlink:href="quickjs_8c.html#a9660cf21845352b14655d423389d6620" target="_top" xlink:title="js_parse_var">
<polygon fill="none" stroke="#000000" points="572,-134.5 572,-153.5 644,-153.5 644,-134.5 572,-134.5"/>
<text text-anchor="middle" x="608" y="-141.5" font-family="Helvetica,sans-Serif" font-size="10.00" fill="#000000">js_parse_var</text>
</a>
</g>
</g>
<!-- Node323296&#45;&gt;Node323321 -->
<g id="edge46" class="edge">
<title>Node323296&#45;&gt;Node323321</title>
<path fill="none" stroke="#191970" d="M71.5685,-113.1368C108.567,-112.5647 164.4419,-112.21 213,-114 345.7147,-118.8922 378.5988,-125.6531 511,-136 531.0468,-137.5666 553.4161,-139.4054 571.617,-140.9248"/>
<polygon fill="#191970" stroke="#191970" points="71.1287,-109.6436 61.1888,-113.3107 71.2461,-116.6426 71.1287,-109.6436"/>
</g>
<!-- Node323311 -->
<g id="node13" class="node">
<title>Node323311</title>
<g id="a_node13"><a xlink:href="quickjs_8c.html#ac188b916dd086803591a67de7e7a85f6" target="_top" xlink:title="js_parse_for_in_of">
<polygon fill="none" stroke="#000000" points="560,-248.5 560,-267.5 656,-267.5 656,-248.5 560,-248.5"/>
<text text-anchor="middle" x="608" y="-255.5" font-family="Helvetica,sans-Serif" font-size="10.00" fill="#000000">js_parse_for_in_of</text>
</a>
</g>
</g>
<!-- Node323296&#45;&gt;Node323311 -->
<g id="edge44" class="edge">
<title>Node323296&#45;&gt;Node323311</title>
<path fill="none" stroke="#191970" d="M71.0269,-122.8381C79.5894,-124.6195 88.581,-126.4264 97,-128 280.5826,-162.3138 336.4962,-133.4537 511,-200 543.4499,-212.3746 577.3978,-235.3639 595.2598,-248.3742"/>
<polygon fill="#191970" stroke="#191970" points="71.7392,-119.4114 61.2324,-120.7742 70.2958,-126.261 71.7392,-119.4114"/>
</g>
<!-- Node323297&#45;&gt;Node323297 -->
<g id="edge33" class="edge">
<title>Node323297&#45;&gt;Node323297</title>
<path fill="none" stroke="#191970" d="M131.9346,-247.0292C133.1928,-252.128 140.8812,-256 155,-256 177.0391,-256 183.4097,-246.5653 174.112,-237.7571"/>
<polygon fill="#191970" stroke="#191970" points="135.1854,-248.3286 135.888,-237.7571 128.7463,-245.5831 135.1854,-248.3286"/>
</g>
<!-- Node323298 -->
<g id="node3" class="node">
<title>Node323298</title>
<g id="a_node3"><a xlink:href="quickjs_8c.html#a4b2edcb56737c91ad1f7fd7561199dc9" target="_top" xlink:title="js_parse_assign_expr">
<polygon fill="none" stroke="#000000" points="249,-419.5 249,-438.5 360,-438.5 360,-419.5 249,-419.5"/>
<text text-anchor="middle" x="304.5" y="-426.5" font-family="Helvetica,sans-Serif" font-size="10.00" fill="#000000">js_parse_assign_expr</text>
</a>
</g>
</g>
<!-- Node323297&#45;&gt;Node323298 -->
<g id="edge2" class="edge">
<title>Node323297&#45;&gt;Node323298</title>
<path fill="none" stroke="#191970" d="M168.1957,-245.7414C198.8181,-286.9127 273.884,-387.8374 297.3617,-419.4026"/>
<polygon fill="#191970" stroke="#191970" points="170.9871,-243.6297 162.2107,-237.6946 165.3704,-247.8074 170.9871,-243.6297"/>
</g>
<!-- Node323327 -->
<g id="node10" class="node">
<title>Node323327</title>
<g id="a_node10"><a xlink:href="quickjs_8c.html#a6686f5baeecd532b043761b6c24ed431" target="_top" xlink:title="js_parse_cond_expr">
<polygon fill="none" stroke="#000000" points="401.5,-628.5 401.5,-647.5 505.5,-647.5 505.5,-628.5 401.5,-628.5"/>
<text text-anchor="middle" x="453.5" y="-635.5" font-family="Helvetica,sans-Serif" font-size="10.00" fill="#000000">js_parse_cond_expr</text>
</a>
</g>
</g>
<!-- Node323297&#45;&gt;Node323327 -->
<g id="edge34" class="edge">
<title>Node323297&#45;&gt;Node323327</title>
<path fill="none" stroke="#191970" d="M162.6684,-247.2992C176.3242,-285.8763 207.3763,-373.2365 249,-439 301.7041,-522.2699 315.8354,-547.6829 396,-605 410.4311,-615.3181 429.9704,-622.2658 442.1505,-628.293"/>
<polygon fill="#191970" stroke="#191970" points="165.9291,-246.0222 159.2838,-237.7705 159.3329,-248.3652 165.9291,-246.0222"/>
</g>
<!-- Node323297&#45;&gt;Node323321 -->
<g id="edge42" class="edge">
<title>Node323297&#45;&gt;Node323321</title>
<path fill="none" stroke="#191970" d="M174.6071,-212.29C192.7424,-198.7318 221.0415,-179.9585 249,-171 362.3886,-134.6681 505.8176,-137.4571 571.7901,-141.2628"/>
<polygon fill="#191970" stroke="#191970" points="172.3686,-209.596 166.5667,-218.4611 176.6306,-215.149 172.3686,-209.596"/>
</g>
<!-- Node323297&#45;&gt;Node323311 -->
<g id="edge41" class="edge">
<title>Node323297&#45;&gt;Node323311</title>
<path fill="none" stroke="#191970" d="M223.3669,-221.1694C271.5656,-216.7068 337.6625,-211.2961 396,-209 447.0716,-206.9899 461.2804,-197.1547 511,-209 542.9348,-216.6082 576.2698,-236.5108 594.3485,-248.4803"/>
<polygon fill="#191970" stroke="#191970" points="222.993,-217.689 213.3627,-222.1059 223.6454,-224.6586 222.993,-217.689"/>
</g>
<!-- Node323328 -->
<g id="node16" class="node">
<title>Node323328</title>
<g id="a_node16"><a xlink:href="quickjs_8c.html#a9fc8ae779f77a7886fc7cfa48cc487fb" target="_top" xlink:title="js_parse_expr2">
<polygon fill="none" stroke="#000000" points="263,-180.5 263,-199.5 346,-199.5 346,-180.5 263,-180.5"/>
<text text-anchor="middle" x="304.5" y="-187.5" font-family="Helvetica,sans-Serif" font-size="10.00" fill="#000000">js_parse_expr2</text>
</a>
</g>
</g>
<!-- Node323297&#45;&gt;Node323328 -->
<g id="edge35" class="edge">
<title>Node323297&#45;&gt;Node323328</title>
<path fill="none" stroke="#191970" d="M202.6516,-215.8879C223.4726,-210.5956 247.5377,-204.4787 267.0461,-199.5201"/>
<polygon fill="#191970" stroke="#191970" points="201.5547,-212.5553 192.7252,-218.411 203.2792,-219.3396 201.5547,-212.5553"/>
</g>
<!-- Node323299 -->
<g id="node4" class="node">
<title>Node323299</title>
<g id="a_node4"><a xlink:href="quickjs_8c.html#a253917187cfb6b3db09d355b31edb3d5" target="_top" xlink:title="js_parse_array_literal">
<polygon fill="none" stroke="#000000" points="707,-552.5 707,-571.5 816,-571.5 816,-552.5 707,-552.5"/>
<text text-anchor="middle" x="761.5" y="-559.5" font-family="Helvetica,sans-Serif" font-size="10.00" fill="#000000">js_parse_array_literal</text>
</a>
</g>
</g>
<!-- Node323298&#45;&gt;Node323299 -->
<g id="edge3" class="edge">
<title>Node323298&#45;&gt;Node323299</title>
<path fill="none" stroke="#191970" d="M359.6189,-445.6628C389.0965,-478.9117 362.383,-513.2149 396,-538 443.9211,-573.3312 617.2858,-569.817 706.9455,-565.3814"/>
<polygon fill="#191970" stroke="#191970" points="362.015,-443.1101 352.4339,-438.5876 357.1036,-448.0979 362.015,-443.1101"/>
</g>
<!-- Node323300 -->
<g id="node5" class="node">
<title>Node323300</title>
<g id="a_node5"><a xlink:href="quickjs_8c.html#a840642c87c5a82d4cc68333376a3b6de" target="_top" xlink:title="js_parse_postfix_expr">
<polygon fill="none" stroke="#ff0000" points="854,-476.5 854,-495.5 966,-495.5 966,-476.5 854,-476.5"/>
<text text-anchor="middle" x="910" y="-483.5" font-family="Helvetica,sans-Serif" font-size="10.00" fill="#000000">js_parse_postfix_expr</text>
</a>
</g>
</g>
<!-- Node323298&#45;&gt;Node323300 -->
<g id="edge32" class="edge">
<title>Node323298&#45;&gt;Node323300</title>
<path fill="none" stroke="#191970" d="M353.222,-441.5663C355.5267,-442.349 357.7963,-443.1609 360,-444 376.7177,-450.3653 378.7623,-457.2185 396,-462 557.4056,-506.7713 758.1083,-498.8342 853.9593,-491.3811"/>
<polygon fill="#191970" stroke="#191970" points="354.2203,-438.2111 343.6299,-438.5189 352.1007,-444.8825 354.2203,-438.2111"/>
</g>
<!-- Node323302 -->
<g id="node7" class="node">
<title>Node323302</title>
<g id="a_node7"><a xlink:href="quickjs_8c.html#a00eb789430243c24dab4a63ad6a79653" target="_top" xlink:title="js_parse_class">
<polygon fill="none" stroke="#000000" points="720.5,-362.5 720.5,-381.5 802.5,-381.5 802.5,-362.5 720.5,-362.5"/>
<text text-anchor="middle" x="761.5" y="-369.5" font-family="Helvetica,sans-Serif" font-size="10.00" fill="#000000">js_parse_class</text>
</a>
</g>
</g>
<!-- Node323298&#45;&gt;Node323302 -->
<g id="edge8" class="edge">
<title>Node323298&#45;&gt;Node323302</title>
<path fill="none" stroke="#191970" d="M370.2226,-420.8026C465.9737,-408.8599 641.0397,-387.0246 720.4216,-377.1236"/>
<polygon fill="#191970" stroke="#191970" points="369.5702,-417.3568 360.0803,-422.0677 370.4366,-424.303 369.5702,-417.3568"/>
</g>
<!-- Node323303 -->
<g id="node8" class="node">
<title>Node323303</title>
<g id="a_node8"><a xlink:href="quickjs_8c.html#a498e1d5c7de1b59c1630e9847cde1e41" target="_top" xlink:title="js_parse_export">
<polygon fill="none" stroke="#ff0000" points="867,-343.5 867,-362.5 953,-362.5 953,-343.5 867,-343.5"/>
<text text-anchor="middle" x="910" y="-350.5" font-family="Helvetica,sans-Serif" font-size="10.00" fill="#000000">js_parse_export</text>
</a>
</g>
</g>
<!-- Node323298&#45;&gt;Node323303 -->
<g id="edge27" class="edge">
<title>Node323298&#45;&gt;Node323303</title>
<path fill="none" stroke="#191970" d="M370.3908,-431.4711C469.2766,-433.5454 661.1896,-431.2073 818,-391 844.2811,-384.2613 872.9293,-371.4957 891.1565,-362.6301"/>
<polygon fill="#191970" stroke="#191970" points="370.326,-427.9687 360.2475,-431.2358 370.1636,-434.9669 370.326,-427.9687"/>
</g>
<!-- Node323298&#45;&gt;Node323327 -->
<g id="edge13" class="edge">
<title>Node323298&#45;&gt;Node323327</title>
<path fill="none" stroke="#191970" d="M313.6055,-447.6229C336.4182,-494.2524 394.3223,-612.4263 396,-614 402.6271,-620.2166 411.096,-624.9376 419.4845,-628.475"/>
<polygon fill="#191970" stroke="#191970" points="316.7245,-446.0338 309.1867,-438.5885 310.4364,-449.1094 316.7245,-446.0338"/>
</g>
<!-- Node323298&#45;&gt;Node323320 -->
<g id="edge15" class="edge">
<title>Node323298&#45;&gt;Node323320</title>
<path fill="none" stroke="#191970" d="M313.6771,-410.2636C328.5215,-381.0244 359.8179,-323.5893 396,-282 406.6689,-269.7367 420.628,-258.0052 432.1206,-249.2099"/>
<polygon fill="#191970" stroke="#191970" points="310.4718,-408.848 309.1316,-419.3577 316.7333,-411.9777 310.4718,-408.848"/>
</g>
<!-- Node323298&#45;&gt;Node323311 -->
<g id="edge28" class="edge">
<title>Node323298&#45;&gt;Node323311</title>
<path fill="none" stroke="#191970" d="M314.4088,-410.341C328.8997,-384.8836 358.2963,-339.6244 396,-315 422.8044,-297.4939 505.7288,-278.4167 559.572,-267.3697"/>
<polygon fill="#191970" stroke="#191970" points="311.2111,-408.8915 309.4416,-419.3375 317.3391,-412.275 311.2111,-408.8915"/>
</g>
<!-- Node323305 -->
<g id="node14" class="node">
<title>Node323305</title>
<g id="a_node14"><a xlink:href="quickjs_8c.html#acc9eb677cab8dfcf45f59381f8a19601" target="_top" xlink:title="js_parse_function_decl2">
<polygon fill="none" stroke="#ff0000" points="547,-324.5 547,-343.5 669,-343.5 669,-324.5 547,-324.5"/>
<text text-anchor="middle" x="608" y="-331.5" font-family="Helvetica,sans-Serif" font-size="10.00" fill="#000000">js_parse_function_decl2</text>
</a>
</g>
</g>
<!-- Node323298&#45;&gt;Node323305 -->
<g id="edge29" class="edge">
<title>Node323298&#45;&gt;Node323305</title>
<path fill="none" stroke="#191970" d="M339.1432,-415.9364C356.1825,-409.657 377.0772,-402.1728 396,-396 457.7938,-375.8422 530.6975,-355.1976 572.9095,-343.5478"/>
<polygon fill="#191970" stroke="#191970" points="337.7592,-412.7167 329.6002,-419.4754 340.1932,-419.2799 337.7592,-412.7167"/>
</g>
<!-- Node323308 -->
<g id="node15" class="node">
<title>Node323308</title>
<g id="a_node15"><a xlink:href="quickjs_8c.html#aee6d0acd87f136d43f157ae1426436e6" target="_top" xlink:title="js_parse_object_literal">
<polygon fill="none" stroke="#000000" points="705,-590.5 705,-609.5 818,-609.5 818,-590.5 705,-590.5"/>
<text text-anchor="middle" x="761.5" y="-597.5" font-family="Helvetica,sans-Serif" font-size="10.00" fill="#000000">js_parse_object_literal</text>
</a>
</g>
</g>
<!-- Node323298&#45;&gt;Node323308 -->
<g id="edge30" class="edge">
<title>Node323298&#45;&gt;Node323308</title>
<path fill="none" stroke="#191970" d="M359.8603,-445.926C395.4699,-488.5468 354.9439,-531.7884 396,-566 489.6339,-644.0241 647.3563,-624.4451 721.1515,-609.5494"/>
<polygon fill="#191970" stroke="#191970" points="362.2948,-443.4062 352.8851,-438.537 357.2046,-448.2114 362.2948,-443.4062"/>
</g>
<!-- Node323299&#45;&gt;Node323300 -->
<g id="edge4" class="edge">
<title>Node323299&#45;&gt;Node323300</title>
<path fill="none" stroke="#191970" d="M795.0522,-548.4842C802.6708,-545.2123 810.6742,-541.6119 818,-538 845.4808,-524.4507 876.2586,-506.4503 894.3373,-495.572"/>
<polygon fill="#191970" stroke="#191970" points="793.5445,-545.3214 785.6877,-552.4292 796.2621,-551.7723 793.5445,-545.3214"/>
</g>
<!-- Node323300&#45;&gt;Node323300 -->
<g id="edge5" class="edge">
<title>Node323300&#45;&gt;Node323300</title>
<path fill="none" stroke="#191970" d="M885.4465,-505.0292C886.7858,-510.128 894.9703,-514 910,-514 933.4609,-514 940.2426,-504.5653 930.345,-495.7571"/>
<polygon fill="#191970" stroke="#191970" points="888.709,-506.3096 889.655,-495.7571 882.3348,-503.4164 888.709,-506.3096"/>
</g>
<!-- Node323300&#45;&gt;Node323322 -->
<g id="edge6" class="edge">
<title>Node323300&#45;&gt;Node323322</title>
<path fill="none" stroke="#191970" d="M920.0548,-467.698C946.6243,-419.3356 1018.0372,-289.3481 1038.1577,-252.7241"/>
<polygon fill="#191970" stroke="#191970" points="916.9809,-466.0244 915.2334,-476.4741 923.116,-469.3949 916.9809,-466.0244"/>
</g>
<!-- Node323322&#45;&gt;Node323322 -->
<g id="edge7" class="edge">
<title>Node323322&#45;&gt;Node323322</title>
<path fill="none" stroke="#191970" d="M1018.9465,-262.0292C1020.2858,-267.128 1028.4703,-271 1043.5,-271 1066.9609,-271 1073.7426,-261.5653 1063.845,-252.7571"/>
<polygon fill="#191970" stroke="#191970" points="1022.209,-263.3096 1023.155,-252.7571 1015.8348,-260.4164 1022.209,-263.3096"/>
</g>
<!-- Node323302&#45;&gt;Node323300 -->
<g id="edge10" class="edge">
<title>Node323302&#45;&gt;Node323300</title>
<path fill="none" stroke="#191970" d="M781.9194,-387.6755C813.0801,-411.5969 871.5886,-456.5125 897.3149,-476.262"/>
<polygon fill="#191970" stroke="#191970" points="783.9691,-384.8366 773.9056,-381.5235 779.7065,-390.3892 783.9691,-384.8366"/>
</g>
<!-- Node323302&#45;&gt;Node323303 -->
<g id="edge9" class="edge">
<title>Node323302&#45;&gt;Node323303</title>
<path fill="none" stroke="#191970" d="M812.9505,-365.4171C830.506,-363.1709 849.9447,-360.6838 866.7858,-358.5291"/>
<polygon fill="#191970" stroke="#191970" points="812.3404,-361.9665 802.8655,-366.7074 813.2289,-368.9099 812.3404,-361.9665"/>
</g>
<!-- Node323309 -->
<g id="node9" class="node">
<title>Node323309</title>
<g id="a_node9"><a xlink:href="quickjs_8c.html#a9d844c16dcc71701436848074337d32c" target="_top" xlink:title="js_parse_statement\l_or_decl">
<polygon fill="none" stroke="#ff0000" points="859,-224 859,-254 961,-254 961,-224 859,-224"/>
<text text-anchor="start" x="867" y="-242" font-family="Helvetica,sans-Serif" font-size="10.00" fill="#000000">js_parse_statement</text>
<text text-anchor="middle" x="910" y="-231" font-family="Helvetica,sans-Serif" font-size="10.00" fill="#000000">_or_decl</text>
</a>
</g>
</g>
<!-- Node323302&#45;&gt;Node323309 -->
<g id="edge11" class="edge">
<title>Node323302&#45;&gt;Node323309</title>
<path fill="none" stroke="#191970" d="M779.9146,-355.5075C808.8543,-329.5884 864.5814,-279.6779 892.7701,-254.4315"/>
<polygon fill="#191970" stroke="#191970" points="777.2938,-353.1561 772.1798,-362.435 781.964,-358.3705 777.2938,-353.1561"/>
</g>
<!-- Node323309&#45;&gt;Node323309 -->
<g id="edge12" class="edge">
<title>Node323309&#45;&gt;Node323309</title>
<path fill="none" stroke="#191970" d="M886.5452,-264.4579C889.4563,-269.179 897.2745,-272.5 910,-272.5 930.8828,-272.5 938.5507,-263.5566 933.0037,-254.159"/>
<polygon fill="#191970" stroke="#191970" points="890.0553,-264.3026 886.9963,-254.159 883.062,-263.9962 890.0553,-264.3026"/>
</g>
<!-- Node323327&#45;&gt;Node323297 -->
<g id="edge14" class="edge">
<title>Node323327&#45;&gt;Node323297</title>
<path fill="none" stroke="#191970" d="M396.2563,-623.1825C396.1707,-623.1218 396.0852,-623.0609 396,-623 315.8354,-565.6829 301.7041,-540.2699 249,-457 199.6867,-379.0874 165.2118,-270.8613 156.9243,-237.6189"/>
<polygon fill="#191970" stroke="#191970" points="394.3215,-626.1002 404.6468,-628.4744 398.0557,-620.1794 394.3215,-626.1002"/>
</g>
<!-- Node323320&#45;&gt;Node323300 -->
<g id="edge17" class="edge">
<title>Node323320&#45;&gt;Node323300</title>
<path fill="none" stroke="#191970" d="M469.3308,-257.5626C490.5152,-288.4464 527.6548,-340.2009 547,-353 593.8458,-383.994 615.8372,-367.865 669,-386 752.3887,-414.4457 848.1814,-457.3916 889.3943,-476.3842"/>
<polygon fill="#191970" stroke="#191970" points="472.0783,-255.379 463.5562,-249.0843 466.2928,-259.3196 472.0783,-255.379"/>
</g>
<!-- Node323320&#45;&gt;Node323309 -->
<g id="edge23" class="edge">
<title>Node323320&#45;&gt;Node323309</title>
<path fill="none" stroke="#191970" d="M521.3821,-234.7435C613.6055,-235.7536 776.4284,-237.537 858.9659,-238.441"/>
<polygon fill="#191970" stroke="#191970" points="521.3538,-231.2431 511.316,-234.6333 521.2771,-238.2427 521.3538,-231.2431"/>
</g>
<!-- Node323320&#45;&gt;Node323320 -->
<g id="edge16" class="edge">
<title>Node323320&#45;&gt;Node323320</title>
<path fill="none" stroke="#191970" d="M427.2022,-259.4579C430.4661,-264.179 439.2321,-267.5 453.5,-267.5 476.9141,-267.5 485.5114,-258.5566 479.2921,-249.159"/>
<polygon fill="#191970" stroke="#191970" points="430.7132,-259.3187 427.7079,-249.159 423.7216,-258.9753 430.7132,-259.3187"/>
</g>
<!-- Node323320&#45;&gt;Node323321 -->
<g id="edge18" class="edge">
<title>Node323320&#45;&gt;Node323321</title>
<path fill="none" stroke="#191970" d="M488.0437,-213.8775C520.3023,-195.086 567.0496,-167.8546 591.5733,-153.569"/>
<polygon fill="#191970" stroke="#191970" points="486.2389,-210.8782 479.3598,-218.936 489.7624,-216.9268 486.2389,-210.8782"/>
</g>
<!-- Node323320&#45;&gt;Node323311 -->
<g id="edge21" class="edge">
<title>Node323320&#45;&gt;Node323311</title>
<path fill="none" stroke="#191970" d="M521.261,-244.526C534.1485,-246.5279 547.3937,-248.5854 559.5325,-250.4711"/>
<polygon fill="#191970" stroke="#191970" points="521.4489,-241.0133 511.0301,-242.9367 520.3743,-247.9303 521.4489,-241.0133"/>
</g>
<!-- Node323320&#45;&gt;Node323305 -->
<g id="edge24" class="edge">
<title>Node323320&#45;&gt;Node323305</title>
<path fill="none" stroke="#191970" d="M485.3717,-254.6289C518.3721,-275.9884 568.4886,-308.4263 593.1837,-324.4102"/>
<polygon fill="#191970" stroke="#191970" points="487.262,-251.6833 476.9652,-249.1878 483.4584,-257.5598 487.262,-251.6833"/>
</g>
<!-- Node323321&#45;&gt;Node323303 -->
<g id="edge20" class="edge">
<title>Node323321&#45;&gt;Node323303</title>
<path fill="none" stroke="#191970" d="M629.9842,-159.2142C688.7351,-199.873 848.1789,-310.2165 896.1581,-343.4207"/>
<polygon fill="#191970" stroke="#191970" points="631.9757,-156.3361 621.7611,-153.5234 627.9922,-162.0921 631.9757,-156.3361"/>
</g>
<!-- Node323321&#45;&gt;Node323309 -->
<g id="edge19" class="edge">
<title>Node323321&#45;&gt;Node323309</title>
<path fill="none" stroke="#191970" d="M654.431,-142.2711C698.1899,-142.2453 764.8012,-146.4098 818,-168 849.22,-180.6703 878.8585,-207.0241 895.6931,-223.8167"/>
<polygon fill="#191970" stroke="#191970" points="654.3378,-138.7716 644.3661,-142.3513 654.3937,-145.7714 654.3378,-138.7716"/>
</g>
<!-- Node323311&#45;&gt;Node323309 -->
<g id="edge22" class="edge">
<title>Node323311&#45;&gt;Node323309</title>
<path fill="none" stroke="#191970" d="M666.2835,-254.3332C722.1512,-250.8183 805.6446,-245.5654 858.9573,-242.2113"/>
<polygon fill="#191970" stroke="#191970" points="665.9472,-250.8473 656.1867,-254.9684 666.3868,-257.8335 665.9472,-250.8473"/>
</g>
<!-- Node323305&#45;&gt;Node323302 -->
<g id="edge25" class="edge">
<title>Node323305&#45;&gt;Node323302</title>
<path fill="none" stroke="#191970" d="M656.6352,-346.04C678.0799,-351.3488 702.9226,-357.4988 723.044,-362.4799"/>
<polygon fill="#191970" stroke="#191970" points="657.2826,-342.5947 646.7345,-343.589 655.6004,-349.3896 657.2826,-342.5947"/>
</g>
<!-- Node323305&#45;&gt;Node323303 -->
<g id="edge26" class="edge">
<title>Node323305&#45;&gt;Node323303</title>
<path fill="none" stroke="#191970" d="M679.3335,-338.4879C737.457,-342.1446 817.6481,-347.1898 866.55,-350.2664"/>
<polygon fill="#191970" stroke="#191970" points="679.3143,-334.9798 669.1142,-337.8449 678.8747,-341.966 679.3143,-334.9798"/>
</g>
<!-- Node323308&#45;&gt;Node323300 -->
<g id="edge31" class="edge">
<title>Node323308&#45;&gt;Node323300</title>
<path fill="none" stroke="#191970" d="M807.4772,-586.6614C811.141,-584.9664 814.6975,-583.084 818,-581 855.8626,-557.1077 889.4237,-514.4933 903.2679,-495.5415"/>
<polygon fill="#191970" stroke="#191970" points="806.1277,-583.4319 798.2322,-590.4968 808.8101,-589.8976 806.1277,-583.4319"/>
</g>
<!-- Node323328&#45;&gt;Node323309 -->
<g id="edge40" class="edge">
<title>Node323328&#45;&gt;Node323309</title>
<path fill="none" stroke="#191970" d="M334.8224,-176.5032C417.4669,-141.86 651.6037,-58.1505 818,-141 856.02,-159.9303 886.4801,-201.4765 900.913,-223.9135"/>
<polygon fill="#191970" stroke="#191970" points="333.3379,-173.3311 325.5095,-180.4702 336.0813,-179.7712 333.3379,-173.3311"/>
</g>
<!-- Node323329 -->
<g id="node17" class="node">
<title>Node323329</title>
<g id="a_node17"><a xlink:href="quickjs_8c.html#af219bd55085ad700eb078affe3f65505" target="_top" xlink:title="js_parse_expr">
<polygon fill="none" stroke="#ff0000" points="415,-324.5 415,-343.5 492,-343.5 492,-324.5 415,-324.5"/>
<text text-anchor="middle" x="453.5" y="-331.5" font-family="Helvetica,sans-Serif" font-size="10.00" fill="#000000">js_parse_expr</text>
</a>
</g>
</g>
<!-- Node323328&#45;&gt;Node323329 -->
<g id="edge36" class="edge">
<title>Node323328&#45;&gt;Node323329</title>
<path fill="none" stroke="#191970" d="M321.9702,-206.8839C353.4446,-237.3021 418.7083,-300.3758 443.5794,-324.4123"/>
<polygon fill="#191970" stroke="#191970" points="324.3644,-204.3304 314.7414,-199.8977 319.4998,-209.3639 324.3644,-204.3304"/>
</g>
<!-- Node323329&#45;&gt;Node323300 -->
<g id="edge38" class="edge">
<title>Node323329&#45;&gt;Node323300</title>
<path fill="none" stroke="#191970" d="M478.675,-348.5325C497.371,-359.1945 523.579,-373.8678 547,-386 616.1916,-421.8416 630.1639,-440.2825 705,-462 754.0393,-476.2312 812.0031,-482.0555 853.7611,-484.4225"/>
<polygon fill="#191970" stroke="#191970" points="480.3091,-345.435 469.8918,-343.5035 476.8309,-351.5098 480.3091,-345.435"/>
</g>
<!-- Node323329&#45;&gt;Node323309 -->
<g id="edge39" class="edge">
<title>Node323329&#45;&gt;Node323309</title>
<path fill="none" stroke="#191970" d="M502.3362,-323.9714C516.7166,-321.0467 532.4851,-317.8673 547,-315 667.3167,-291.2327 698.3783,-290.0488 818,-263 831.2022,-260.0147 845.386,-256.4795 858.5679,-253.0529"/>
<polygon fill="#191970" stroke="#191970" points="501.2477,-320.6212 492.1482,-326.0479 502.6457,-327.4802 501.2477,-320.6212"/>
</g>
<!-- Node323329&#45;&gt;Node323311 -->
<g id="edge37" class="edge">
<title>Node323329&#45;&gt;Node323311</title>
<path fill="none" stroke="#191970" d="M490.0582,-320.4625C497.1714,-317.3527 504.4483,-313.8232 511,-310 528.5071,-299.784 529.3888,-292.0354 547,-282 556.8878,-276.3656 568.3586,-271.471 578.667,-267.5979"/>
<polygon fill="#191970" stroke="#191970" points="488.4254,-317.3512 480.5434,-324.4312 491.1202,-323.8118 488.4254,-317.3512"/>
</g>
</g>
</svg>
