<?xml version="1.0" encoding="UTF-8" standalone="no"?>
<!DOCTYPE svg PUBLIC "-//W3C//DTD SVG 1.1//EN"
 "http://www.w3.org/Graphics/SVG/1.1/DTD/svg11.dtd">
<!-- Generated by graphviz version 2.40.1 (20161225.0304)
 -->
<!-- Title: add_closure_var Pages: 1 -->
<svg width="452pt" height="123pt"
 viewBox="0.00 0.00 452.00 123.00" xmlns="http://www.w3.org/2000/svg" xmlns:xlink="http://www.w3.org/1999/xlink">
<g id="graph0" class="graph" transform="scale(1 1) rotate(0) translate(4 119)">
<title>add_closure_var</title>
<!-- Node352597 -->
<g id="node1" class="node">
<title>Node352597</title>
<polygon fill="#bfbfbf" stroke="#000000" points="0,-57.5 0,-76.5 88,-76.5 88,-57.5 0,-57.5"/>
<text text-anchor="middle" x="44" y="-64.5" font-family="Helvetica,sans-Serif" font-size="10.00" fill="#000000">add_closure_var</text>
</g>
<!-- Node352598 -->
<g id="node2" class="node">
<title>Node352598</title>
<g id="a_node2"><a xlink:href="quickjs_8c.html#a853f0924d441ea4225488f37c8b69f9a" target="_top" xlink:title="__attribute__">
<polygon fill="none" stroke="#000000" points="129,-95.5 129,-114.5 202,-114.5 202,-95.5 129,-95.5"/>
<text text-anchor="middle" x="165.5" y="-102.5" font-family="Helvetica,sans-Serif" font-size="10.00" fill="#000000">__attribute__</text>
</a>
</g>
</g>
<!-- Node352597&#45;&gt;Node352598 -->
<g id="edge1" class="edge">
<title>Node352597&#45;&gt;Node352598</title>
<path fill="none" stroke="#191970" d="M74.6596,-76.589C89.9124,-81.3594 108.5509,-87.1888 124.9666,-92.3229"/>
<polygon fill="#191970" stroke="#191970" points="124.2614,-95.7694 134.8502,-95.4141 126.3509,-89.0886 124.2614,-95.7694"/>
</g>
<!-- Node352599 -->
<g id="node3" class="node">
<title>Node352599</title>
<g id="a_node3"><a xlink:href="quickjs_8c.html#abbf44eaeace1104a6bef718fbf5700fe" target="_top" xlink:title="JS_DupAtom">
<polygon fill="none" stroke="#000000" points="128,-57.5 128,-76.5 203,-76.5 203,-57.5 128,-57.5"/>
<text text-anchor="middle" x="165.5" y="-64.5" font-family="Helvetica,sans-Serif" font-size="10.00" fill="#000000">JS_DupAtom</text>
</a>
</g>
</g>
<!-- Node352597&#45;&gt;Node352599 -->
<g id="edge2" class="edge">
<title>Node352597&#45;&gt;Node352599</title>
<path fill="none" stroke="#191970" d="M88.208,-67C97.775,-67 107.9345,-67 117.6346,-67"/>
<polygon fill="#191970" stroke="#191970" points="117.9302,-70.5001 127.9302,-67 117.9302,-63.5001 117.9302,-70.5001"/>
</g>
<!-- Node352601 -->
<g id="node5" class="node">
<title>Node352601</title>
<g id="a_node5"><a xlink:href="quickjs_8c.html#afa610f3175e9cb11fdceac95071099b5" target="_top" xlink:title="js_resize_array">
<polygon fill="none" stroke="#000000" points="124,-19.5 124,-38.5 207,-38.5 207,-19.5 124,-19.5"/>
<text text-anchor="middle" x="165.5" y="-26.5" font-family="Helvetica,sans-Serif" font-size="10.00" fill="#000000">js_resize_array</text>
</a>
</g>
</g>
<!-- Node352597&#45;&gt;Node352601 -->
<g id="edge4" class="edge">
<title>Node352597&#45;&gt;Node352601</title>
<path fill="none" stroke="#191970" d="M74.6596,-57.411C89.9124,-52.6406 108.5509,-46.8112 124.9666,-41.6771"/>
<polygon fill="#191970" stroke="#191970" points="126.3509,-44.9114 134.8502,-38.5859 124.2614,-38.2306 126.3509,-44.9114"/>
</g>
<!-- Node352600 -->
<g id="node4" class="node">
<title>Node352600</title>
<g id="a_node4"><a xlink:href="quickjs_8c.html#a7f6796ee7a195631366f57c713a33f65" target="_top" xlink:title="__JS_AtomIsConst">
<polygon fill="none" stroke="#000000" points="243,-57.5 243,-76.5 345,-76.5 345,-57.5 243,-57.5"/>
<text text-anchor="middle" x="294" y="-64.5" font-family="Helvetica,sans-Serif" font-size="10.00" fill="#000000">__JS_AtomIsConst</text>
</a>
</g>
</g>
<!-- Node352599&#45;&gt;Node352600 -->
<g id="edge3" class="edge">
<title>Node352599&#45;&gt;Node352600</title>
<path fill="none" stroke="#191970" d="M203.013,-67C212.3469,-67 222.5972,-67 232.7475,-67"/>
<polygon fill="#191970" stroke="#191970" points="232.8269,-70.5001 242.8269,-67 232.8268,-63.5001 232.8269,-70.5001"/>
</g>
<!-- Node352602 -->
<g id="node6" class="node">
<title>Node352602</title>
<g id="a_node6"><a xlink:href="quickjs_8c.html#a0eda61158c0a22ef337abc3a035bca33" target="_top" xlink:title="js_realloc_array">
<polygon fill="none" stroke="#000000" points="251.5,-19.5 251.5,-38.5 336.5,-38.5 336.5,-19.5 251.5,-19.5"/>
<text text-anchor="middle" x="294" y="-26.5" font-family="Helvetica,sans-Serif" font-size="10.00" fill="#000000">js_realloc_array</text>
</a>
</g>
</g>
<!-- Node352601&#45;&gt;Node352602 -->
<g id="edge5" class="edge">
<title>Node352601&#45;&gt;Node352602</title>
<path fill="none" stroke="#191970" d="M207.2203,-29C217.9929,-29 229.7332,-29 240.9973,-29"/>
<polygon fill="#191970" stroke="#191970" points="241.1667,-32.5001 251.1667,-29 241.1667,-25.5001 241.1667,-32.5001"/>
</g>
<!-- Node352603 -->
<g id="node7" class="node">
<title>Node352603</title>
<g id="a_node7"><a xlink:href="quickjs_8c.html#a1c31248142879982abb1595f97817cd9" target="_top" xlink:title="js_realloc2">
<polygon fill="none" stroke="#ff0000" points="381,-38.5 381,-57.5 444,-57.5 444,-38.5 381,-38.5"/>
<text text-anchor="middle" x="412.5" y="-45.5" font-family="Helvetica,sans-Serif" font-size="10.00" fill="#000000">js_realloc2</text>
</a>
</g>
</g>
<!-- Node352602&#45;&gt;Node352603 -->
<g id="edge6" class="edge">
<title>Node352602&#45;&gt;Node352603</title>
<path fill="none" stroke="#191970" d="M336.7812,-35.8594C347.9477,-37.6498 359.962,-39.5762 371.0577,-41.3552"/>
<polygon fill="#191970" stroke="#191970" points="370.5107,-44.8122 380.9387,-42.9395 371.619,-37.9004 370.5107,-44.8122"/>
</g>
<!-- Node352607 -->
<g id="node8" class="node">
<title>Node352607</title>
<g id="a_node8"><a xlink:href="cutils_8h.html#a94f155fcce337a2b9d4719ed8042cbbe" target="_top" xlink:title="max_int">
<polygon fill="none" stroke="#000000" points="387,-.5 387,-19.5 438,-19.5 438,-.5 387,-.5"/>
<text text-anchor="middle" x="412.5" y="-7.5" font-family="Helvetica,sans-Serif" font-size="10.00" fill="#000000">max_int</text>
</a>
</g>
</g>
<!-- Node352602&#45;&gt;Node352607 -->
<g id="edge7" class="edge">
<title>Node352602&#45;&gt;Node352607</title>
<path fill="none" stroke="#191970" d="M336.7812,-22.1406C349.833,-20.0479 364.0429,-17.7695 376.5906,-15.7576"/>
<polygon fill="#191970" stroke="#191970" points="377.3579,-19.1794 386.6777,-14.1403 376.2496,-12.2677 377.3579,-19.1794"/>
</g>
</g>
</svg>
