<?xml version="1.0" encoding="UTF-8" standalone="no"?>
<!DOCTYPE svg PUBLIC "-//W3C//DTD SVG 1.1//EN"
 "http://www.w3.org/Graphics/SVG/1.1/DTD/svg11.dtd">
<!-- Generated by graphviz version 2.40.1 (20161225.0304)
 -->
<!-- Title: js_std_unsetenv Pages: 1 -->
<!--zoomable 218 -->
<svg id="main" version="1.1" xmlns="http://www.w3.org/2000/svg" xmlns:xlink="http://www.w3.org/1999/xlink" xml:space="preserve" onload="init(evt)">
<style type="text/css"><![CDATA[
.edge:hover path { stroke: red; }
.edge:hover polygon { stroke: red; fill: red; }
]]></style>
<script type="text/javascript"><![CDATA[
var edges = document.getElementsByTagName('g');
if (edges && edges.length) {
  for (var i=0;i<edges.length;i++) {
    if (edges[i].id.substr(0,4)=='edge') {
      edges[i].setAttribute('class','edge');
    }
  }
}
]]></script>
        <defs>
                <circle id="rim" cx="0" cy="0" r="7"/>
                <circle id="rim2" cx="0" cy="0" r="3.5"/>
                <g id="zoomPlus">
                        <use xlink:href="#rim" fill="#404040">
                                <set attributeName="fill" to="#808080" begin="zoomplus.mouseover" end="zoomplus.mouseout"/>
                        </use>
                        <path d="M-4,0h8M0,-4v8" fill="none" stroke="white" stroke-width="1.5" pointer-events="none"/>
                </g>
                <g id="zoomMin">
                        <use xlink:href="#rim" fill="#404040">
                                <set attributeName="fill" to="#808080" begin="zoomminus.mouseover" end="zoomminus.mouseout"/>
                        </use>
                        <path d="M-4,0h8" fill="none" stroke="white" stroke-width="1.5" pointer-events="none"/>
                </g>
                <g id="dirArrow">
                        <path fill="none" stroke="white" stroke-width="1.5" d="M0,-3.0v7 M-2.5,-0.5L0,-3.0L2.5,-0.5"/>
                </g>
               <g id="resetDef">
                       <use xlink:href="#rim2" fill="#404040">
                               <set attributeName="fill" to="#808080" begin="reset.mouseover" end="reset.mouseout"/>
                       </use>
               </g>
        </defs>

<script type="text/javascript">
var viewWidth = 592;
var viewHeight = 218;
var sectionId = 'dynsection-20';
</script>
<script xlink:href="svgpan.js"/>
<svg id="graph" class="graph">
<g id="viewport">
<title>js_std_unsetenv</title>
<!-- Node3579 -->
<g id="node1" class="node">
<title>Node3579</title>
<polygon fill="#bfbfbf" stroke="#000000" points="0,-152.5 0,-171.5 88,-171.5 88,-152.5 0,-152.5"/>
<text text-anchor="middle" x="44" y="-159.5" font-family="Helvetica,sans-Serif" font-size="10.00" fill="#000000">js_std_unsetenv</text>
</g>
<!-- Node3580 -->
<g id="node2" class="node">
<title>Node3580</title>
<g id="a_node2"><a xlink:href="quickjs_8c.html#ae0bc4f65da64810facb2cb9e476eda2e" target="_top" xlink:title="JS_FreeCString">
<polygon fill="none" stroke="#000000" points="244.5,-185.5 244.5,-204.5 330.5,-204.5 330.5,-185.5 244.5,-185.5"/>
<text text-anchor="middle" x="287.5" y="-192.5" font-family="Helvetica,sans-Serif" font-size="10.00" fill="#000000">JS_FreeCString</text>
</a>
</g>
</g>
<!-- Node3579&#45;&gt;Node3580 -->
<g id="edge1" class="edge">
<title>Node3579&#45;&gt;Node3580</title>
<path fill="none" stroke="#191970" d="M88.096,-167.9761C129.078,-173.5301 190.2066,-181.8144 233.9702,-187.7454"/>
<polygon fill="#191970" stroke="#191970" points="233.7619,-191.2491 244.1414,-189.1239 234.7021,-184.3126 233.7619,-191.2491"/>
</g>
<!-- Node3619 -->
<g id="node5" class="node">
<title>Node3619</title>
<g id="a_node5"><a xlink:href="quickjs_8h.html#af931f06630ab719b5f82a16eb27effd1" target="_top" xlink:title="JS_ToCString">
<polygon fill="none" stroke="#000000" points="124,-133.5 124,-152.5 202,-152.5 202,-133.5 124,-133.5"/>
<text text-anchor="middle" x="163" y="-140.5" font-family="Helvetica,sans-Serif" font-size="10.00" fill="#000000">JS_ToCString</text>
</a>
</g>
</g>
<!-- Node3579&#45;&gt;Node3619 -->
<g id="edge4" class="edge">
<title>Node3579&#45;&gt;Node3619</title>
<path fill="none" stroke="#191970" d="M88.3112,-154.9251C96.5796,-153.6049 105.2673,-152.2178 113.6756,-150.8753"/>
<polygon fill="#191970" stroke="#191970" points="114.4233,-154.3004 123.7464,-149.2674 113.3196,-147.3879 114.4233,-154.3004"/>
</g>
<!-- Node3581 -->
<g id="node3" class="node">
<title>Node3581</title>
<g id="a_node3"><a xlink:href="quickjs_8h.html#afaa20c47565bc704c6c85f3d77254e7d" target="_top" xlink:title="JS_FreeValue">
<polygon fill="none" stroke="#000000" points="377,-190.5 377,-209.5 455,-209.5 455,-190.5 377,-190.5"/>
<text text-anchor="middle" x="416" y="-197.5" font-family="Helvetica,sans-Serif" font-size="10.00" fill="#000000">JS_FreeValue</text>
</a>
</g>
</g>
<!-- Node3580&#45;&gt;Node3581 -->
<g id="edge2" class="edge">
<title>Node3580&#45;&gt;Node3581</title>
<path fill="none" stroke="#191970" d="M330.6461,-196.6788C342.1502,-197.1265 354.6696,-197.6136 366.4862,-198.0734"/>
<polygon fill="#191970" stroke="#191970" points="366.5178,-201.5772 376.6464,-198.4687 366.79,-194.5825 366.5178,-201.5772"/>
</g>
<!-- Node3582 -->
<g id="node4" class="node">
<title>Node3582</title>
<g id="a_node4"><a xlink:href="quickjs_8c.html#aa059f309c30fd5166d16c82a97973146" target="_top" xlink:title="__JS_FreeValue">
<polygon fill="none" stroke="#ff0000" points="495,-190.5 495,-209.5 584,-209.5 584,-190.5 495,-190.5"/>
<text text-anchor="middle" x="539.5" y="-197.5" font-family="Helvetica,sans-Serif" font-size="10.00" fill="#000000">__JS_FreeValue</text>
</a>
</g>
</g>
<!-- Node3581&#45;&gt;Node3582 -->
<g id="edge3" class="edge">
<title>Node3581&#45;&gt;Node3582</title>
<path fill="none" stroke="#191970" d="M455.0762,-200C464.412,-200 474.5507,-200 484.4566,-200"/>
<polygon fill="#191970" stroke="#191970" points="484.6517,-203.5001 494.6517,-200 484.6517,-196.5001 484.6517,-203.5001"/>
</g>
<!-- Node3620 -->
<g id="node6" class="node">
<title>Node3620</title>
<g id="a_node6"><a xlink:href="quickjs_8c.html#af49e67b73f845dc1f9c3ee648dd9f95c" target="_top" xlink:title="JS_ToCStringLen2">
<polygon fill="none" stroke="#000000" points="238,-114.5 238,-133.5 337,-133.5 337,-114.5 238,-114.5"/>
<text text-anchor="middle" x="287.5" y="-121.5" font-family="Helvetica,sans-Serif" font-size="10.00" fill="#000000">JS_ToCStringLen2</text>
</a>
</g>
</g>
<!-- Node3619&#45;&gt;Node3620 -->
<g id="edge5" class="edge">
<title>Node3619&#45;&gt;Node3620</title>
<path fill="none" stroke="#191970" d="M202.051,-137.0404C210.1494,-135.8045 218.859,-134.4753 227.5104,-133.155"/>
<polygon fill="#191970" stroke="#191970" points="228.242,-136.584 237.5994,-131.6153 227.1858,-129.6641 228.242,-136.584"/>
</g>
<!-- Node3620&#45;&gt;Node3581 -->
<g id="edge11" class="edge">
<title>Node3620&#45;&gt;Node3581</title>
<path fill="none" stroke="#191970" d="M300.3871,-133.6142C316.7518,-145.5792 346.1016,-166.2342 373,-181 376.2687,-182.7943 379.7403,-184.5534 383.2382,-186.2326"/>
<polygon fill="#191970" stroke="#191970" points="381.8896,-189.4647 392.4376,-190.4604 384.8128,-183.1042 381.8896,-189.4647"/>
</g>
<!-- Node3621 -->
<g id="node7" class="node">
<title>Node3621</title>
<g id="a_node7"><a xlink:href="quickjs_8c.html#a7bcb8e1a20cbc8374a5f9ba4a2088cec" target="_top" xlink:title="JS_ToString">
<polygon fill="none" stroke="#ff0000" points="380.5,-152.5 380.5,-171.5 451.5,-171.5 451.5,-152.5 380.5,-152.5"/>
<text text-anchor="middle" x="416" y="-159.5" font-family="Helvetica,sans-Serif" font-size="10.00" fill="#000000">JS_ToString</text>
</a>
</g>
</g>
<!-- Node3620&#45;&gt;Node3621 -->
<g id="edge6" class="edge">
<title>Node3620&#45;&gt;Node3621</title>
<path fill="none" stroke="#191970" d="M319.926,-133.589C336.2097,-138.4044 356.1421,-144.2988 373.622,-149.468"/>
<polygon fill="#191970" stroke="#191970" points="373.0024,-152.9345 383.5844,-152.4141 374.9875,-146.2219 373.0024,-152.9345"/>
</g>
<!-- Node3708 -->
<g id="node8" class="node">
<title>Node3708</title>
<g id="a_node8"><a xlink:href="quickjs_8h.html#ad80a83d73e9b7d872b88fbf2943aebe9" target="_top" xlink:title="JS_IsException">
<polygon fill="none" stroke="#000000" points="373,-114.5 373,-133.5 459,-133.5 459,-114.5 373,-114.5"/>
<text text-anchor="middle" x="416" y="-121.5" font-family="Helvetica,sans-Serif" font-size="10.00" fill="#000000">JS_IsException</text>
</a>
</g>
</g>
<!-- Node3620&#45;&gt;Node3708 -->
<g id="edge7" class="edge">
<title>Node3620&#45;&gt;Node3708</title>
<path fill="none" stroke="#191970" d="M337.1815,-124C345.5163,-124 354.1964,-124 362.6198,-124"/>
<polygon fill="#191970" stroke="#191970" points="362.7267,-127.5001 372.7267,-124 362.7266,-120.5001 362.7267,-127.5001"/>
</g>
<!-- Node3623 -->
<g id="node9" class="node">
<title>Node3623</title>
<g id="a_node9"><a xlink:href="quickjs_8h.html#a775522f2d084fc8fa0fcb33f390006b4" target="_top" xlink:title="JS_DupValue">
<polygon fill="none" stroke="#000000" points="377.5,-76.5 377.5,-95.5 454.5,-95.5 454.5,-76.5 377.5,-76.5"/>
<text text-anchor="middle" x="416" y="-83.5" font-family="Helvetica,sans-Serif" font-size="10.00" fill="#000000">JS_DupValue</text>
</a>
</g>
</g>
<!-- Node3620&#45;&gt;Node3623 -->
<g id="edge8" class="edge">
<title>Node3620&#45;&gt;Node3623</title>
<path fill="none" stroke="#191970" d="M319.926,-114.411C336.2097,-109.5956 356.1421,-103.7012 373.622,-98.532"/>
<polygon fill="#191970" stroke="#191970" points="374.9875,-101.7781 383.5844,-95.5859 373.0024,-95.0655 374.9875,-101.7781"/>
</g>
<!-- Node3632 -->
<g id="node10" class="node">
<title>Node3632</title>
<g id="a_node10"><a xlink:href="quickjs_8c.html#ad303a9bc56766627b5fca41574933930" target="_top" xlink:title="js_alloc_string">
<polygon fill="none" stroke="#ff0000" points="376.5,-38.5 376.5,-57.5 455.5,-57.5 455.5,-38.5 376.5,-38.5"/>
<text text-anchor="middle" x="416" y="-45.5" font-family="Helvetica,sans-Serif" font-size="10.00" fill="#000000">js_alloc_string</text>
</a>
</g>
</g>
<!-- Node3620&#45;&gt;Node3632 -->
<g id="edge9" class="edge">
<title>Node3620&#45;&gt;Node3632</title>
<path fill="none" stroke="#191970" d="M300.3871,-114.3858C316.7518,-102.4208 346.1016,-81.7658 373,-67 376.2687,-65.2057 379.7403,-63.4466 383.2382,-61.7674"/>
<polygon fill="#191970" stroke="#191970" points="384.8128,-64.8958 392.4376,-57.5396 381.8896,-58.5353 384.8128,-64.8958"/>
</g>
<!-- Node3811 -->
<g id="node11" class="node">
<title>Node3811</title>
<g id="a_node11"><a xlink:href="cutils_8h.html#aad4e0decb15ab19e9f45b0ee69542a28" target="_top" xlink:title="unicode_to_utf8">
<polygon fill="none" stroke="#000000" points="373,-.5 373,-19.5 459,-19.5 459,-.5 373,-.5"/>
<text text-anchor="middle" x="416" y="-7.5" font-family="Helvetica,sans-Serif" font-size="10.00" fill="#000000">unicode_to_utf8</text>
</a>
</g>
</g>
<!-- Node3620&#45;&gt;Node3811 -->
<g id="edge10" class="edge">
<title>Node3620&#45;&gt;Node3811</title>
<path fill="none" stroke="#191970" d="M293.982,-114.4268C307.0145,-95.7905 338.1416,-54.2572 373,-29 375.3545,-27.294 377.8864,-25.6949 380.5007,-24.206"/>
<polygon fill="#191970" stroke="#191970" points="382.2563,-27.2394 389.5689,-19.5728 379.0714,-21.0059 382.2563,-27.2394"/>
</g>
</g>
</svg>
        <g id="navigator" transform="translate(0 0)" fill="#404254">
                <rect fill="#f2f5e9" fill-opacity="0.5" stroke="#606060" stroke-width=".5" x="0" y="0" width="60" height="60"/>
                <use id="zoomplus" xlink:href="#zoomPlus" x="17" y="9" onmousedown="handleZoom(evt,'in')"/>
                <use id="zoomminus" xlink:href="#zoomMin" x="42" y="9" onmousedown="handleZoom(evt,'out')"/>
                <use id="reset" xlink:href="#resetDef" x="30" y="36" onmousedown="handleReset()"/>
                <g id="arrowUp" xlink:href="#dirArrow" transform="translate(30 24)" onmousedown="handlePan(0,-1)">
                  <use xlink:href="#rim" fill="#404040">
                        <set attributeName="fill" to="#808080" begin="arrowUp.mouseover" end="arrowUp.mouseout"/>
                  </use>
                  <path fill="none" stroke="white" stroke-width="1.5" d="M0,-3.0v7 M-2.5,-0.5L0,-3.0L2.5,-0.5"/>
                </g>
                <g id="arrowRight" xlink:href="#dirArrow" transform="rotate(90) translate(36 -43)" onmousedown="handlePan(1,0)">
                  <use xlink:href="#rim" fill="#404040">
                        <set attributeName="fill" to="#808080" begin="arrowRight.mouseover" end="arrowRight.mouseout"/>
                  </use>
                  <path fill="none" stroke="white" stroke-width="1.5" d="M0,-3.0v7 M-2.5,-0.5L0,-3.0L2.5,-0.5"/>
                </g>
                <g id="arrowDown" xlink:href="#dirArrow" transform="rotate(180) translate(-30 -48)" onmousedown="handlePan(0,1)">
                  <use xlink:href="#rim" fill="#404040">
                        <set attributeName="fill" to="#808080" begin="arrowDown.mouseover" end="arrowDown.mouseout"/>
                  </use>
                  <path fill="none" stroke="white" stroke-width="1.5" d="M0,-3.0v7 M-2.5,-0.5L0,-3.0L2.5,-0.5"/>
                </g>
                <g id="arrowLeft" xlink:href="#dirArrow" transform="rotate(270) translate(-36 17)" onmousedown="handlePan(-1,0)">
                  <use xlink:href="#rim" fill="#404040">
                        <set attributeName="fill" to="#808080" begin="arrowLeft.mouseover" end="arrowLeft.mouseout"/>
                  </use>
                  <path fill="none" stroke="white" stroke-width="1.5" d="M0,-3.0v7 M-2.5,-0.5L0,-3.0L2.5,-0.5"/>
                </g>
        </g>
        <svg viewBox="0 0 15 15" width="100%" height="30px" preserveAspectRatio="xMaxYMin meet">
         <g id="arrow_out" transform="scale(0.3 0.3)">
          <a xlink:href="quickjs-libc_8c_a0b1f588fe3a3c00c87663b9bc5caf72c_cgraph_org.svg" target="_base">
           <rect id="button" ry="5" rx="5" y="6" x="6" height="38" width="38"
                fill="#f2f5e9" fill-opacity="0.5" stroke="#606060" stroke-width="1.0"/>
           <path id="arrow"
             d="M 11.500037,31.436501 C 11.940474,20.09759 22.043105,11.32322 32.158766,21.979434 L 37.068811,17.246167 C 37.068811,17.246167 37.088388,32 37.088388,32 L 22.160133,31.978069 C 22.160133,31.978069 26.997745,27.140456 26.997745,27.140456 C 18.528582,18.264221 13.291696,25.230495 11.500037,31.436501 z"
             style="fill:#404040;"/>
          </a>
         </g>
        </svg>
</svg>
