<?xml version="1.0" encoding="UTF-8" standalone="no"?>
<!DOCTYPE svg PUBLIC "-//W3C//DTD SVG 1.1//EN"
 "http://www.w3.org/Graphics/SVG/1.1/DTD/svg11.dtd">
<!-- Generated by graphviz version 2.40.1 (20161225.0304)
 -->
<!-- Title: JS_DeleteProperty Pages: 1 -->
<!--zoomable 833 -->
<svg id="main" version="1.1" xmlns="http://www.w3.org/2000/svg" xmlns:xlink="http://www.w3.org/1999/xlink" xml:space="preserve" onload="init(evt)">
<style type="text/css"><![CDATA[
.edge:hover path { stroke: red; }
.edge:hover polygon { stroke: red; fill: red; }
]]></style>
<script type="text/javascript"><![CDATA[
var edges = document.getElementsByTagName('g');
if (edges && edges.length) {
  for (var i=0;i<edges.length;i++) {
    if (edges[i].id.substr(0,4)=='edge') {
      edges[i].setAttribute('class','edge');
    }
  }
}
]]></script>
        <defs>
                <circle id="rim" cx="0" cy="0" r="7"/>
                <circle id="rim2" cx="0" cy="0" r="3.5"/>
                <g id="zoomPlus">
                        <use xlink:href="#rim" fill="#404040">
                                <set attributeName="fill" to="#808080" begin="zoomplus.mouseover" end="zoomplus.mouseout"/>
                        </use>
                        <path d="M-4,0h8M0,-4v8" fill="none" stroke="white" stroke-width="1.5" pointer-events="none"/>
                </g>
                <g id="zoomMin">
                        <use xlink:href="#rim" fill="#404040">
                                <set attributeName="fill" to="#808080" begin="zoomminus.mouseover" end="zoomminus.mouseout"/>
                        </use>
                        <path d="M-4,0h8" fill="none" stroke="white" stroke-width="1.5" pointer-events="none"/>
                </g>
                <g id="dirArrow">
                        <path fill="none" stroke="white" stroke-width="1.5" d="M0,-3.0v7 M-2.5,-0.5L0,-3.0L2.5,-0.5"/>
                </g>
               <g id="resetDef">
                       <use xlink:href="#rim2" fill="#404040">
                               <set attributeName="fill" to="#808080" begin="reset.mouseover" end="reset.mouseout"/>
                       </use>
               </g>
        </defs>

<script type="text/javascript">
var viewWidth = 839;
var viewHeight = 833;
var sectionId = 'dynsection-188';
</script>
<script xlink:href="svgpan.js"/>
<svg id="graph" class="graph">
<g id="viewport">
<title>JS_DeleteProperty</title>
<!-- Node66199 -->
<g id="node1" class="node">
<title>Node66199</title>
<polygon fill="#bfbfbf" stroke="#000000" points="0,-573.5 0,-592.5 99,-592.5 99,-573.5 0,-573.5"/>
<text text-anchor="middle" x="49.5" y="-580.5" font-family="Helvetica,sans-Serif" font-size="10.00" fill="#000000">JS_DeleteProperty</text>
</g>
<!-- Node66200 -->
<g id="node2" class="node">
<title>Node66200</title>
<g id="a_node2"><a xlink:href="quickjs_8c.html#a624282391413d4c5a030adbd8b77aa80" target="_top" xlink:title="internalize_json_property">
<polygon fill="none" stroke="#000000" points="589,-.5 589,-19.5 714,-19.5 714,-.5 589,-.5"/>
<text text-anchor="middle" x="651.5" y="-7.5" font-family="Helvetica,sans-Serif" font-size="10.00" fill="#000000">internalize_json_property</text>
</a>
</g>
</g>
<!-- Node66199&#45;&gt;Node66200 -->
<g id="edge1" class="edge">
<title>Node66199&#45;&gt;Node66200</title>
<path fill="none" stroke="#191970" d="M64.1305,-565.0855C123.3876,-493.2916 353.4709,-221.8435 585,-47 599.3388,-36.1718 617.2107,-26.4061 630.815,-19.6301"/>
<polygon fill="#191970" stroke="#191970" points="61.1242,-563.2309 57.4779,-573.1785 66.5318,-567.676 61.1242,-563.2309"/>
</g>
<!-- Node66202 -->
<g id="node4" class="node">
<title>Node66202</title>
<g id="a_node4"><a xlink:href="quickjs_8c.html#ac2894ff4edcdb4e6841bcce9c76081e3" target="_top" xlink:title="JS_CallInternal">
<polygon fill="none" stroke="#000000" points="296,-630.5 296,-649.5 379,-649.5 379,-630.5 296,-630.5"/>
<text text-anchor="middle" x="337.5" y="-637.5" font-family="Helvetica,sans-Serif" font-size="10.00" fill="#000000">JS_CallInternal</text>
</a>
</g>
</g>
<!-- Node66199&#45;&gt;Node66202 -->
<g id="edge4" class="edge">
<title>Node66199&#45;&gt;Node66202</title>
<path fill="none" stroke="#191970" d="M75.6169,-597.275C92.1467,-605.6278 114.2441,-615.5698 135,-621 189.3158,-635.2103 254.2771,-639.0982 295.7074,-640.0042"/>
<polygon fill="#191970" stroke="#191970" points="77.0683,-594.0851 66.58,-592.5867 73.8448,-600.2987 77.0683,-594.0851"/>
</g>
<!-- Node66504 -->
<g id="node27" class="node">
<title>Node66504</title>
<g id="a_node27"><a xlink:href="quickjs_8c.html#acffb121a8a0ee2b735f60c1db01e79e7" target="_top" xlink:title="js_proxy_delete_property">
<polygon fill="none" stroke="#000000" points="589,-805.5 589,-824.5 714,-824.5 714,-805.5 589,-805.5"/>
<text text-anchor="middle" x="651.5" y="-812.5" font-family="Helvetica,sans-Serif" font-size="10.00" fill="#000000">js_proxy_delete_property</text>
</a>
</g>
</g>
<!-- Node66199&#45;&gt;Node66504 -->
<g id="edge39" class="edge">
<title>Node66199&#45;&gt;Node66504</title>
<path fill="none" stroke="#191970" d="M68.904,-599.0408C85.6027,-612.2334 110.7664,-630.6956 135,-643 301.6461,-727.6129 519.0304,-784.1372 609.3293,-805.4794"/>
<polygon fill="#191970" stroke="#191970" points="70.9803,-596.2193 60.9931,-592.6829 66.5951,-601.6755 70.9803,-596.2193"/>
</g>
<!-- Node66502 -->
<g id="node28" class="node">
<title>Node66502</title>
<g id="a_node28"><a xlink:href="quickjs_8c.html#a70e21308fe3760cd95dd1dbb1a8755e6" target="_top" xlink:title="JS_DeletePropertyInt64">
<polygon fill="none" stroke="#ff0000" points="137,-554.5 137,-573.5 258,-573.5 258,-554.5 137,-554.5"/>
<text text-anchor="middle" x="197.5" y="-561.5" font-family="Helvetica,sans-Serif" font-size="10.00" fill="#000000">JS_DeletePropertyInt64</text>
</a>
</g>
</g>
<!-- Node66199&#45;&gt;Node66502 -->
<g id="edge36" class="edge">
<title>Node66199&#45;&gt;Node66502</title>
<path fill="none" stroke="#191970" d="M109.301,-575.3229C118.3923,-574.1557 127.7806,-572.9505 136.8891,-571.7811"/>
<polygon fill="#191970" stroke="#191970" points="108.6665,-571.8755 99.1936,-576.6204 109.5579,-578.8185 108.6665,-571.8755"/>
</g>
<!-- Node66503 -->
<g id="node29" class="node">
<title>Node66503</title>
<g id="a_node29"><a xlink:href="quickjs_8c.html#a9b6302f1a5bc5d5d8f1951777433e516" target="_top" xlink:title="js_operator_delete">
<polygon fill="none" stroke="#000000" points="149.5,-592.5 149.5,-611.5 245.5,-611.5 245.5,-592.5 149.5,-592.5"/>
<text text-anchor="middle" x="197.5" y="-599.5" font-family="Helvetica,sans-Serif" font-size="10.00" fill="#000000">js_operator_delete</text>
</a>
</g>
</g>
<!-- Node66199&#45;&gt;Node66503 -->
<g id="edge37" class="edge">
<title>Node66199&#45;&gt;Node66503</title>
<path fill="none" stroke="#191970" d="M109.2032,-590.6646C122.4949,-592.371 136.4263,-594.1595 149.1929,-595.7984"/>
<polygon fill="#191970" stroke="#191970" points="109.5579,-587.1815 99.1936,-589.3796 108.6665,-594.1245 109.5579,-587.1815"/>
</g>
<!-- Node66505 -->
<g id="node30" class="node">
<title>Node66505</title>
<g id="a_node30"><a xlink:href="quickjs_8c.html#ae9c76f2d0eacc35d9df11d9f81039cde" target="_top" xlink:title="js_reflect_deleteProperty">
<polygon fill="none" stroke="#000000" points="135,-296.5 135,-315.5 260,-315.5 260,-296.5 135,-296.5"/>
<text text-anchor="middle" x="197.5" y="-303.5" font-family="Helvetica,sans-Serif" font-size="10.00" fill="#000000">js_reflect_deleteProperty</text>
</a>
</g>
</g>
<!-- Node66199&#45;&gt;Node66505 -->
<g id="edge40" class="edge">
<title>Node66199&#45;&gt;Node66505</title>
<path fill="none" stroke="#191970" d="M50.6323,-563.2173C54.3531,-516.398 70.0362,-397.666 135,-330 141.0373,-323.7116 148.9015,-319.0479 157.004,-315.5966"/>
<polygon fill="#191970" stroke="#191970" points="47.136,-563.0445 49.935,-573.2628 54.1192,-563.5293 47.136,-563.0445"/>
</g>
<!-- Node66200&#45;&gt;Node66200 -->
<g id="edge2" class="edge">
<title>Node66200&#45;&gt;Node66200</title>
<path fill="none" stroke="#191970" d="M625.4584,-29.0292C626.8789,-34.128 635.5594,-38 651.5,-38 676.3828,-38 683.5755,-28.5653 673.0781,-19.7571"/>
<polygon fill="#191970" stroke="#191970" points="628.738,-30.2855 629.9219,-19.7571 622.4308,-27.2493 628.738,-30.2855"/>
</g>
<!-- Node66201 -->
<g id="node3" class="node">
<title>Node66201</title>
<g id="a_node3"><a xlink:href="quickjs_8c.html#a8d95b2b91f50339b621237ad13f9cc47" target="_top" xlink:title="js_json_parse">
<polygon fill="none" stroke="#000000" points="754,-.5 754,-19.5 831,-19.5 831,-.5 754,-.5"/>
<text text-anchor="middle" x="792.5" y="-7.5" font-family="Helvetica,sans-Serif" font-size="10.00" fill="#000000">js_json_parse</text>
</a>
</g>
</g>
<!-- Node66200&#45;&gt;Node66201 -->
<g id="edge3" class="edge">
<title>Node66200&#45;&gt;Node66201</title>
<path fill="none" stroke="#191970" d="M724.3571,-10C734.5582,-10 744.6933,-10 753.907,-10"/>
<polygon fill="#191970" stroke="#191970" points="724.1658,-6.5001 714.1658,-10 724.1657,-13.5001 724.1658,-6.5001"/>
</g>
<!-- Node66202&#45;&gt;Node66202 -->
<g id="edge35" class="edge">
<title>Node66202&#45;&gt;Node66202</title>
<path fill="none" stroke="#191970" d="M311.4584,-659.0292C312.8789,-664.128 321.5594,-668 337.5,-668 362.3828,-668 369.5755,-658.5653 359.0781,-649.7571"/>
<polygon fill="#191970" stroke="#191970" points="314.738,-660.2855 315.9219,-649.7571 308.4308,-657.2493 314.738,-660.2855"/>
</g>
<!-- Node66203 -->
<g id="node5" class="node">
<title>Node66203</title>
<g id="a_node5"><a xlink:href="quickjs_8c.html#ade71a22dc56e7371392393df663b28b3" target="_top" xlink:title="async_func_resume">
<polygon fill="none" stroke="#000000" points="430,-630.5 430,-649.5 534,-649.5 534,-630.5 430,-630.5"/>
<text text-anchor="middle" x="482" y="-637.5" font-family="Helvetica,sans-Serif" font-size="10.00" fill="#000000">async_func_resume</text>
</a>
</g>
</g>
<!-- Node66202&#45;&gt;Node66203 -->
<g id="edge5" class="edge">
<title>Node66202&#45;&gt;Node66203</title>
<path fill="none" stroke="#191970" d="M389.5435,-640C402.6245,-640 416.6665,-640 429.7572,-640"/>
<polygon fill="#191970" stroke="#191970" points="389.2954,-636.5001 379.2954,-640 389.2954,-643.5001 389.2954,-636.5001"/>
</g>
<!-- Node66222 -->
<g id="node10" class="node">
<title>Node66222</title>
<g id="a_node10"><a xlink:href="quickjs_8c.html#a1a4c02a29525d5cb2085dd8bca3af350" target="_top" xlink:title="JS_Call">
<polygon fill="none" stroke="#ff0000" points="456.5,-372.5 456.5,-391.5 507.5,-391.5 507.5,-372.5 456.5,-372.5"/>
<text text-anchor="middle" x="482" y="-379.5" font-family="Helvetica,sans-Serif" font-size="10.00" fill="#000000">JS_Call</text>
</a>
</g>
</g>
<!-- Node66202&#45;&gt;Node66222 -->
<g id="edge10" class="edge">
<title>Node66202&#45;&gt;Node66222</title>
<path fill="none" stroke="#191970" d="M345.9953,-621.4384C372.0456,-570.375 450.5039,-430.3678 474.7689,-391.7499"/>
<polygon fill="#191970" stroke="#191970" points="342.8521,-619.8986 341.5156,-630.4088 349.1147,-623.026 342.8521,-619.8986"/>
</g>
<!-- Node66306 -->
<g id="node25" class="node">
<title>Node66306</title>
<g id="a_node25"><a xlink:href="quickjs_8c.html#ad35594576a14c10812efaf958c99af8a" target="_top" xlink:title="JS_CallConstructorInternal">
<polygon fill="none" stroke="#ff0000" points="415,-668.5 415,-687.5 549,-687.5 549,-668.5 415,-668.5"/>
<text text-anchor="middle" x="482" y="-675.5" font-family="Helvetica,sans-Serif" font-size="10.00" fill="#000000">JS_CallConstructorInternal</text>
</a>
</g>
</g>
<!-- Node66202&#45;&gt;Node66306 -->
<g id="edge30" class="edge">
<title>Node66202&#45;&gt;Node66306</title>
<path fill="none" stroke="#191970" d="M389.3524,-647.1309C415.197,-653.291 444.8346,-661.6885 463.4855,-668.4368"/>
<polygon fill="#191970" stroke="#191970" points="389.8269,-643.6484 379.2954,-644.8052 388.2497,-650.4684 389.8269,-643.6484"/>
</g>
<!-- Node66320 -->
<g id="node26" class="node">
<title>Node66320</title>
<g id="a_node26"><a xlink:href="quickjs_8c.html#a75f6ee5e4235a7dc99889f3d2eb2c147" target="_top" xlink:title="JS_CallFree">
<polygon fill="none" stroke="#ff0000" points="446.5,-706.5 446.5,-725.5 517.5,-725.5 517.5,-706.5 446.5,-706.5"/>
<text text-anchor="middle" x="482" y="-713.5" font-family="Helvetica,sans-Serif" font-size="10.00" fill="#000000">JS_CallFree</text>
</a>
</g>
</g>
<!-- Node66202&#45;&gt;Node66320 -->
<g id="edge32" class="edge">
<title>Node66202&#45;&gt;Node66320</title>
<path fill="none" stroke="#191970" d="M364.9036,-655.831C379.0717,-666.2759 397.1112,-679.2429 415,-688 432.0491,-696.346 453.386,-701.6013 467.3391,-706.4937"/>
<polygon fill="#191970" stroke="#191970" points="366.742,-652.8378 356.6182,-649.7137 362.5841,-658.4692 366.742,-652.8378"/>
</g>
<!-- Node66204 -->
<g id="node6" class="node">
<title>Node66204</title>
<g id="a_node6"><a xlink:href="quickjs_8c.html#a1bf6b62983e8fff99c0a5d5a9f486115" target="_top" xlink:title="js_async_function_resume">
<polygon fill="none" stroke="#ff0000" points="585,-630.5 585,-649.5 718,-649.5 718,-630.5 585,-630.5"/>
<text text-anchor="middle" x="651.5" y="-637.5" font-family="Helvetica,sans-Serif" font-size="10.00" fill="#000000">js_async_function_resume</text>
</a>
</g>
</g>
<!-- Node66203&#45;&gt;Node66204 -->
<g id="edge6" class="edge">
<title>Node66203&#45;&gt;Node66204</title>
<path fill="none" stroke="#191970" d="M544.5492,-640C557.6415,-640 571.4944,-640 584.7334,-640"/>
<polygon fill="#191970" stroke="#191970" points="544.2387,-636.5001 534.2387,-640 544.2386,-643.5001 544.2387,-636.5001"/>
</g>
<!-- Node66212 -->
<g id="node7" class="node">
<title>Node66212</title>
<g id="a_node7"><a xlink:href="quickjs_8c.html#ae19867da709929c072f05e90301835a4" target="_top" xlink:title="js_async_generator\l_function_call">
<polygon fill="none" stroke="#ff0000" points="601,-669 601,-699 702,-699 702,-669 601,-669"/>
<text text-anchor="start" x="609" y="-687" font-family="Helvetica,sans-Serif" font-size="10.00" fill="#000000">js_async_generator</text>
<text text-anchor="middle" x="651.5" y="-676" font-family="Helvetica,sans-Serif" font-size="10.00" fill="#000000">_function_call</text>
</a>
</g>
</g>
<!-- Node66203&#45;&gt;Node66212 -->
<g id="edge7" class="edge">
<title>Node66203&#45;&gt;Node66212</title>
<path fill="none" stroke="#191970" d="M528.7373,-652.1324C551.1637,-657.954 578.0693,-664.9383 600.969,-670.8828"/>
<polygon fill="#191970" stroke="#191970" points="529.3376,-648.6723 518.779,-649.5473 527.5787,-655.4477 529.3376,-648.6723"/>
</g>
<!-- Node66213 -->
<g id="node8" class="node">
<title>Node66213</title>
<g id="a_node8"><a xlink:href="quickjs_8c.html#a89b019c704a2d2914bc30b30a72040b3" target="_top" xlink:title="js_async_generator\l_resume_next">
<polygon fill="none" stroke="#000000" points="601,-718 601,-748 702,-748 702,-718 601,-718"/>
<text text-anchor="start" x="609" y="-736" font-family="Helvetica,sans-Serif" font-size="10.00" fill="#000000">js_async_generator</text>
<text text-anchor="middle" x="651.5" y="-725" font-family="Helvetica,sans-Serif" font-size="10.00" fill="#000000">_resume_next</text>
</a>
</g>
</g>
<!-- Node66203&#45;&gt;Node66213 -->
<g id="edge8" class="edge">
<title>Node66203&#45;&gt;Node66213</title>
<path fill="none" stroke="#191970" d="M539.8852,-653.5961C543.0756,-655.2016 546.1416,-656.9956 549,-659 571.4201,-674.7216 563.144,-692.5032 585,-709 589.8003,-712.6233 595.1994,-715.7388 600.792,-718.4082"/>
<polygon fill="#191970" stroke="#191970" points="541.1986,-650.3505 530.6338,-649.5523 538.3949,-656.7645 541.1986,-650.3505"/>
</g>
<!-- Node66214 -->
<g id="node9" class="node">
<title>Node66214</title>
<g id="a_node9"><a xlink:href="quickjs_8c.html#ac90552b1f1659acb3dae9a4c62479a30" target="_top" xlink:title="js_generator_function_call">
<polygon fill="none" stroke="#ff0000" points="586.5,-767.5 586.5,-786.5 716.5,-786.5 716.5,-767.5 586.5,-767.5"/>
<text text-anchor="middle" x="651.5" y="-774.5" font-family="Helvetica,sans-Serif" font-size="10.00" fill="#000000">js_generator_function_call</text>
</a>
</g>
</g>
<!-- Node66203&#45;&gt;Node66214 -->
<g id="edge9" class="edge">
<title>Node66203&#45;&gt;Node66214</title>
<path fill="none" stroke="#191970" d="M542.8891,-654.1768C545.0522,-655.632 547.1021,-657.2348 549,-659 583.2831,-690.8853 550.7484,-726.0809 585,-758 589.1286,-761.8474 593.9826,-764.9225 599.1567,-767.3792"/>
<polygon fill="#191970" stroke="#191970" points="544.5062,-651.0713 534.0666,-649.2642 541.1007,-657.1871 544.5062,-651.0713"/>
</g>
<!-- Node66222&#45;&gt;Node66200 -->
<g id="edge13" class="edge">
<title>Node66222&#45;&gt;Node66200</title>
<path fill="none" stroke="#191970" d="M517.8374,-376.8818C529.4672,-373.4294 541.3347,-367.6548 549,-358 635.52,-249.0245 507.6832,-162.6871 585,-47 593.5892,-34.1481 608.2177,-25.3152 621.5711,-19.5121"/>
<polygon fill="#191970" stroke="#191970" points="516.6625,-373.5665 507.7901,-379.3571 518.337,-380.3633 516.6625,-373.5665"/>
</g>
<!-- Node66222&#45;&gt;Node66202 -->
<g id="edge23" class="edge">
<title>Node66222&#45;&gt;Node66202</title>
<path fill="none" stroke="#191970" d="M473.4906,-400.5893C447.4026,-451.7216 368.8507,-591.8909 344.6658,-630.354"/>
<polygon fill="#191970" stroke="#191970" points="476.64,-402.1167 477.977,-391.6065 470.3776,-398.9889 476.64,-402.1167"/>
</g>
<!-- Node66222&#45;&gt;Node66204 -->
<g id="edge19" class="edge">
<title>Node66222&#45;&gt;Node66204</title>
<path fill="none" stroke="#191970" d="M484.778,-402.0738C492.2019,-447.9358 516.7998,-561.0518 585,-621 589.419,-624.8843 594.5827,-627.9778 600.044,-630.4408"/>
<polygon fill="#191970" stroke="#191970" points="488.2009,-401.3003 483.2445,-391.9363 481.2796,-402.3474 488.2009,-401.3003"/>
</g>
<!-- Node66223 -->
<g id="node11" class="node">
<title>Node66223</title>
<g id="a_node11"><a xlink:href="quickjs-libc_8c.html#abb1cbe3fdf905e81f603a3a0bfce475a" target="_top" xlink:title="call_handler">
<polygon fill="none" stroke="#000000" points="617.5,-296.5 617.5,-315.5 685.5,-315.5 685.5,-296.5 617.5,-296.5"/>
<text text-anchor="middle" x="651.5" y="-303.5" font-family="Helvetica,sans-Serif" font-size="10.00" fill="#000000">call_handler</text>
</a>
</g>
</g>
<!-- Node66222&#45;&gt;Node66223 -->
<g id="edge11" class="edge">
<title>Node66222&#45;&gt;Node66223</title>
<path fill="none" stroke="#191970" d="M517.3829,-372.2654C527.9526,-368.5931 539.2998,-363.8537 549,-358 567.5836,-346.7856 566.0583,-335.5983 585,-325 594.9545,-319.4302 606.6787,-315.3778 617.4882,-312.4835"/>
<polygon fill="#191970" stroke="#191970" points="515.9919,-369.0374 507.5664,-375.4609 518.1586,-375.6936 515.9919,-369.0374"/>
</g>
<!-- Node66224 -->
<g id="node12" class="node">
<title>Node66224</title>
<g id="a_node12"><a xlink:href="quickjs-libc_8c.html#a9fa4c190ba56314c7ed9b00bbc7ad0f9" target="_top" xlink:title="handle_posted_message">
<polygon fill="none" stroke="#000000" points="589,-258.5 589,-277.5 714,-277.5 714,-258.5 589,-258.5"/>
<text text-anchor="middle" x="651.5" y="-265.5" font-family="Helvetica,sans-Serif" font-size="10.00" fill="#000000">handle_posted_message</text>
</a>
</g>
</g>
<!-- Node66222&#45;&gt;Node66224 -->
<g id="edge12" class="edge">
<title>Node66222&#45;&gt;Node66224</title>
<path fill="none" stroke="#191970" d="M517.4786,-374.7545C528.5302,-371.1492 540.1315,-365.8215 549,-358 575.5347,-334.5978 557.7113,-309.5185 585,-287 589.7232,-283.1025 595.2037,-280.0038 600.9524,-277.5404"/>
<polygon fill="#191970" stroke="#191970" points="516.2202,-371.4745 507.578,-377.6034 518.156,-378.2016 516.2202,-371.4745"/>
</g>
<!-- Node66225 -->
<g id="node13" class="node">
<title>Node66225</title>
<g id="a_node13"><a xlink:href="quickjs_8c.html#aa0bbf08a7e91459c68a312fba7016c6d" target="_top" xlink:title="js_array_every">
<polygon fill="none" stroke="#000000" points="611.5,-220.5 611.5,-239.5 691.5,-239.5 691.5,-220.5 611.5,-220.5"/>
<text text-anchor="middle" x="651.5" y="-227.5" font-family="Helvetica,sans-Serif" font-size="10.00" fill="#000000">js_array_every</text>
</a>
</g>
</g>
<!-- Node66222&#45;&gt;Node66225 -->
<g id="edge14" class="edge">
<title>Node66222&#45;&gt;Node66225</title>
<path fill="none" stroke="#191970" d="M517.3216,-375.7889C528.6909,-372.2427 540.526,-366.6883 549,-358 584.6221,-321.477 548.1981,-284.3339 585,-249 592.1889,-242.0979 601.7066,-237.6741 611.2873,-234.8472"/>
<polygon fill="#191970" stroke="#191970" points="516.295,-372.4405 507.5464,-378.4166 518.1122,-379.2005 516.295,-372.4405"/>
</g>
<!-- Node66226 -->
<g id="node14" class="node">
<title>Node66226</title>
<g id="a_node14"><a xlink:href="quickjs_8c.html#a9dd41b086da4e13b3487cc9c6e2af2b8" target="_top" xlink:title="js_array_find">
<polygon fill="none" stroke="#000000" points="615.5,-182.5 615.5,-201.5 687.5,-201.5 687.5,-182.5 615.5,-182.5"/>
<text text-anchor="middle" x="651.5" y="-189.5" font-family="Helvetica,sans-Serif" font-size="10.00" fill="#000000">js_array_find</text>
</a>
</g>
</g>
<!-- Node66222&#45;&gt;Node66226 -->
<g id="edge15" class="edge">
<title>Node66222&#45;&gt;Node66226</title>
<path fill="none" stroke="#191970" d="M517.4499,-376.2443C528.9356,-372.7344 540.8109,-367.0865 549,-358 594.0314,-308.0339 538.3525,-259.4609 585,-211 592.9938,-202.6954 604.3439,-197.9474 615.4088,-195.2563"/>
<polygon fill="#191970" stroke="#191970" points="516.3592,-372.9113 507.5591,-378.8111 518.1176,-379.6869 516.3592,-372.9113"/>
</g>
<!-- Node66227 -->
<g id="node15" class="node">
<title>Node66227</title>
<g id="a_node15"><a xlink:href="quickjs_8c.html#a5e32da9a43002cb96dcbd62a1a340144" target="_top" xlink:title="js_array_from">
<polygon fill="none" stroke="#000000" points="613.5,-144.5 613.5,-163.5 689.5,-163.5 689.5,-144.5 613.5,-144.5"/>
<text text-anchor="middle" x="651.5" y="-151.5" font-family="Helvetica,sans-Serif" font-size="10.00" fill="#000000">js_array_from</text>
</a>
</g>
</g>
<!-- Node66222&#45;&gt;Node66227 -->
<g id="edge16" class="edge">
<title>Node66222&#45;&gt;Node66227</title>
<path fill="none" stroke="#191970" d="M517.6985,-376.463C529.2059,-372.9721 541.0312,-367.2803 549,-358 603.5694,-294.4494 528.3737,-234.7249 585,-173 592.3865,-164.9484 602.9245,-160.2202 613.4401,-157.4701"/>
<polygon fill="#191970" stroke="#191970" points="516.595,-373.1324 507.7727,-378.9991 518.3279,-379.9145 516.595,-373.1324"/>
</g>
<!-- Node66228 -->
<g id="node16" class="node">
<title>Node66228</title>
<g id="a_node16"><a xlink:href="quickjs_8c.html#a36c1692489542a86dd79a7d39ab8ff95" target="_top" xlink:title="js_array_reduce">
<polygon fill="none" stroke="#000000" points="608.5,-106.5 608.5,-125.5 694.5,-125.5 694.5,-106.5 608.5,-106.5"/>
<text text-anchor="middle" x="651.5" y="-113.5" font-family="Helvetica,sans-Serif" font-size="10.00" fill="#000000">js_array_reduce</text>
</a>
</g>
</g>
<!-- Node66222&#45;&gt;Node66228 -->
<g id="edge17" class="edge">
<title>Node66222&#45;&gt;Node66228</title>
<path fill="none" stroke="#191970" d="M517.5979,-376.6872C529.2055,-373.2168 541.1203,-367.4806 549,-358 613.1707,-280.7916 518.3292,-210.0601 585,-135 591.1398,-128.0876 599.6024,-123.6145 608.4349,-120.7387"/>
<polygon fill="#191970" stroke="#191970" points="516.4377,-373.3695 507.5854,-379.1909 518.1358,-380.1604 516.4377,-373.3695"/>
</g>
<!-- Node66229 -->
<g id="node17" class="node">
<title>Node66229</title>
<g id="a_node17"><a xlink:href="quickjs_8c.html#aa45afa6d2861615f29444c9614ce766a" target="_top" xlink:title="js_async_from_sync\l_iterator_next">
<polygon fill="none" stroke="#000000" points="598,-57 598,-87 705,-87 705,-57 598,-57"/>
<text text-anchor="start" x="606" y="-75" font-family="Helvetica,sans-Serif" font-size="10.00" fill="#000000">js_async_from_sync</text>
<text text-anchor="middle" x="651.5" y="-64" font-family="Helvetica,sans-Serif" font-size="10.00" fill="#000000">_iterator_next</text>
</a>
</g>
</g>
<!-- Node66222&#45;&gt;Node66229 -->
<g id="edge18" class="edge">
<title>Node66222&#45;&gt;Node66229</title>
<path fill="none" stroke="#191970" d="M517.7202,-376.7877C529.3392,-373.3266 541.2298,-367.5706 549,-358 622.8077,-267.0911 511.9048,-188.4827 585,-97 588.5416,-92.5675 592.9576,-88.9207 597.8193,-85.9204"/>
<polygon fill="#191970" stroke="#191970" points="516.5526,-373.4712 507.6899,-379.2767 518.2386,-380.2652 516.5526,-373.4712"/>
</g>
<!-- Node66230 -->
<g id="node18" class="node">
<title>Node66230</title>
<g id="a_node18"><a xlink:href="quickjs_8c.html#a2355fabf91f59212ea65baba1b0b7c1b" target="_top" xlink:title="js_async_generator_next">
<polygon fill="none" stroke="#000000" points="589,-554.5 589,-573.5 714,-573.5 714,-554.5 589,-554.5"/>
<text text-anchor="middle" x="651.5" y="-561.5" font-family="Helvetica,sans-Serif" font-size="10.00" fill="#000000">js_async_generator_next</text>
</a>
</g>
</g>
<!-- Node66222&#45;&gt;Node66230 -->
<g id="edge20" class="edge">
<title>Node66222&#45;&gt;Node66230</title>
<path fill="none" stroke="#191970" d="M489.0504,-401.3992C502.4093,-435.4252 534.659,-505.8649 585,-544 590.7659,-548.3679 597.4821,-551.787 604.3862,-554.4621"/>
<polygon fill="#191970" stroke="#191970" points="492.1973,-399.8267 485.3778,-391.7184 485.6524,-402.3097 492.1973,-399.8267"/>
</g>
<!-- Node66231 -->
<g id="node19" class="node">
<title>Node66231</title>
<g id="a_node19"><a xlink:href="quickjs_8c.html#a3e852026d167fa03c673f86697dd3e67" target="_top" xlink:title="js_async_generator\l_resolve_or_reject">
<polygon fill="none" stroke="#ff0000" points="601,-505 601,-535 702,-535 702,-505 601,-505"/>
<text text-anchor="start" x="609" y="-523" font-family="Helvetica,sans-Serif" font-size="10.00" fill="#000000">js_async_generator</text>
<text text-anchor="middle" x="651.5" y="-512" font-family="Helvetica,sans-Serif" font-size="10.00" fill="#000000">_resolve_or_reject</text>
</a>
</g>
</g>
<!-- Node66222&#45;&gt;Node66231 -->
<g id="edge21" class="edge">
<title>Node66222&#45;&gt;Node66231</title>
<path fill="none" stroke="#191970" d="M494.159,-399.9676C511.6236,-424.5417 546.0309,-468.5892 585,-495 590.5134,-498.7367 596.6598,-502.0093 602.9267,-504.8474"/>
<polygon fill="#191970" stroke="#191970" points="496.9065,-397.7883 488.3209,-391.5803 491.1612,-401.7873 496.9065,-397.7883"/>
</g>
<!-- Node66234 -->
<g id="node20" class="node">
<title>Node66234</title>
<g id="a_node20"><a xlink:href="quickjs_8c.html#afd4ef2d701fa0702f321925b61c57bbf" target="_top" xlink:title="js_call_bound_function">
<polygon fill="none" stroke="#ff0000" points="593.5,-466.5 593.5,-485.5 709.5,-485.5 709.5,-466.5 593.5,-466.5"/>
<text text-anchor="middle" x="651.5" y="-473.5" font-family="Helvetica,sans-Serif" font-size="10.00" fill="#000000">js_call_bound_function</text>
</a>
</g>
</g>
<!-- Node66222&#45;&gt;Node66234 -->
<g id="edge22" class="edge">
<title>Node66222&#45;&gt;Node66234</title>
<path fill="none" stroke="#191970" d="M500.1636,-398.3216C519.7985,-415.189 552.6436,-441.2167 585,-457 592.6621,-460.7375 601.1893,-463.8634 609.5123,-466.4293"/>
<polygon fill="#191970" stroke="#191970" points="502.4305,-395.6546 492.5973,-391.7101 497.8245,-400.9257 502.4305,-395.6546"/>
</g>
<!-- Node66235 -->
<g id="node21" class="node">
<title>Node66235</title>
<g id="a_node21"><a xlink:href="quickjs_8c.html#a6357b7fdae71c70c140e78e6c20cb5c2" target="_top" xlink:title="js_dynamic_import_job">
<polygon fill="none" stroke="#ff0000" points="593.5,-428.5 593.5,-447.5 709.5,-447.5 709.5,-428.5 593.5,-428.5"/>
<text text-anchor="middle" x="651.5" y="-435.5" font-family="Helvetica,sans-Serif" font-size="10.00" fill="#000000">js_dynamic_import_job</text>
</a>
</g>
</g>
<!-- Node66222&#45;&gt;Node66235 -->
<g id="edge24" class="edge">
<title>Node66222&#45;&gt;Node66235</title>
<path fill="none" stroke="#191970" d="M516.7903,-395.1494C536.6594,-402.4948 562.1017,-411.625 585,-419 595.1718,-422.2761 606.3085,-425.5707 616.5098,-428.475"/>
<polygon fill="#191970" stroke="#191970" points="517.8289,-391.8015 507.2361,-391.5963 515.3889,-398.3625 517.8289,-391.8015"/>
</g>
<!-- Node66237 -->
<g id="node22" class="node">
<title>Node66237</title>
<g id="a_node22"><a xlink:href="quickjs_8c.html#ad90c33b4aae1181151bda4a98ac2ef23" target="_top" xlink:title="JS_FlattenIntoArray">
<polygon fill="none" stroke="#ff0000" points="599.5,-372.5 599.5,-391.5 703.5,-391.5 703.5,-372.5 599.5,-372.5"/>
<text text-anchor="middle" x="651.5" y="-379.5" font-family="Helvetica,sans-Serif" font-size="10.00" fill="#000000">JS_FlattenIntoArray</text>
</a>
</g>
</g>
<!-- Node66222&#45;&gt;Node66237 -->
<g id="edge25" class="edge">
<title>Node66222&#45;&gt;Node66237</title>
<path fill="none" stroke="#191970" d="M518.0019,-382C541.5973,-382 572.8312,-382 599.1547,-382"/>
<polygon fill="#191970" stroke="#191970" points="517.7434,-378.5001 507.7434,-382 517.7434,-385.5001 517.7434,-378.5001"/>
</g>
<!-- Node66239 -->
<g id="node23" class="node">
<title>Node66239</title>
<g id="a_node23"><a xlink:href="quickjs_8c.html#a8d4b24969540aff427939eeda47f451d" target="_top" xlink:title="js_function_apply">
<polygon fill="none" stroke="#ff0000" points="605.5,-592.5 605.5,-611.5 697.5,-611.5 697.5,-592.5 605.5,-592.5"/>
<text text-anchor="middle" x="651.5" y="-599.5" font-family="Helvetica,sans-Serif" font-size="10.00" fill="#000000">js_function_apply</text>
</a>
</g>
</g>
<!-- Node66222&#45;&gt;Node66239 -->
<g id="edge27" class="edge">
<title>Node66222&#45;&gt;Node66239</title>
<path fill="none" stroke="#191970" d="M486.4542,-401.5856C496.6345,-441.817 525.46,-534.0819 585,-583 590.9376,-587.8783 598.0626,-591.505 605.4103,-594.2009"/>
<polygon fill="#191970" stroke="#191970" points="489.8161,-400.5969 484.0673,-391.6974 483.0116,-402.2395 489.8161,-400.5969"/>
</g>
<!-- Node66242 -->
<g id="node24" class="node">
<title>Node66242</title>
<g id="a_node24"><a xlink:href="quickjs_8c.html#a677ad630a103e1f3d5129e0549112b50" target="_top" xlink:title="js_function_call">
<polygon fill="none" stroke="#000000" points="609.5,-334.5 609.5,-353.5 693.5,-353.5 693.5,-334.5 609.5,-334.5"/>
<text text-anchor="middle" x="651.5" y="-341.5" font-family="Helvetica,sans-Serif" font-size="10.00" fill="#000000">js_function_call</text>
</a>
</g>
</g>
<!-- Node66222&#45;&gt;Node66242 -->
<g id="edge29" class="edge">
<title>Node66222&#45;&gt;Node66242</title>
<path fill="none" stroke="#191970" d="M517.8262,-373.9682C544.5645,-367.9737 581.1836,-359.7641 609.334,-353.4532"/>
<polygon fill="#191970" stroke="#191970" points="516.7355,-370.6257 507.7434,-376.2286 518.2669,-377.4562 516.7355,-370.6257"/>
</g>
<!-- Node66237&#45;&gt;Node66237 -->
<g id="edge26" class="edge">
<title>Node66237&#45;&gt;Node66237</title>
<path fill="none" stroke="#191970" d="M625.4584,-401.0292C626.8789,-406.128 635.5594,-410 651.5,-410 676.3828,-410 683.5755,-400.5653 673.0781,-391.7571"/>
<polygon fill="#191970" stroke="#191970" points="628.738,-402.2855 629.9219,-391.7571 622.4308,-399.2493 628.738,-402.2855"/>
</g>
<!-- Node66239&#45;&gt;Node66202 -->
<g id="edge28" class="edge">
<title>Node66239&#45;&gt;Node66202</title>
<path fill="none" stroke="#191970" d="M595.2503,-603.9815C547.141,-606.2806 476.1819,-611.1081 415,-621 400.5037,-623.3438 384.725,-627.0041 371.2112,-630.4889"/>
<polygon fill="#191970" stroke="#191970" points="595.6286,-607.4679 605.4584,-603.5152 595.3091,-600.4752 595.6286,-607.4679"/>
</g>
<!-- Node66306&#45;&gt;Node66202 -->
<g id="edge31" class="edge">
<title>Node66306&#45;&gt;Node66202</title>
<path fill="none" stroke="#191970" d="M410.427,-665.9278C390.3051,-660.6519 370.1133,-654.6594 356.095,-649.5924"/>
<polygon fill="#191970" stroke="#191970" points="409.716,-669.3586 420.272,-668.453 411.4552,-662.5781 409.716,-669.3586"/>
</g>
<!-- Node66320&#45;&gt;Node66202 -->
<g id="edge33" class="edge">
<title>Node66320&#45;&gt;Node66202</title>
<path fill="none" stroke="#191970" d="M436.4411,-714.3404C429.1043,-712.0984 421.7192,-709.2892 415,-706 384.9977,-691.313 354.5718,-664.7844 342.6961,-649.5894"/>
<polygon fill="#191970" stroke="#191970" points="435.7803,-717.7878 446.3485,-717.0378 437.6192,-711.0336 435.7803,-717.7878"/>
</g>
<!-- Node66320&#45;&gt;Node66504 -->
<g id="edge34" class="edge">
<title>Node66320&#45;&gt;Node66504</title>
<path fill="none" stroke="#191970" d="M502.0508,-732.2391C529.3818,-754.2705 575.9802,-791.4258 585,-796 592.3891,-799.7472 600.626,-802.8547 608.7169,-805.3952"/>
<polygon fill="#191970" stroke="#191970" points="503.9051,-729.2378 493.9262,-725.678 499.5071,-734.6837 503.9051,-729.2378"/>
</g>
<!-- Node66503&#45;&gt;Node66202 -->
<g id="edge38" class="edge">
<title>Node66503&#45;&gt;Node66202</title>
<path fill="none" stroke="#191970" d="M242.6176,-614.2462C261.9149,-619.484 284.1124,-625.5091 302.1834,-630.4141"/>
<polygon fill="#191970" stroke="#191970" points="243.3956,-610.8308 232.8279,-611.589 241.5619,-617.5864 243.3956,-610.8308"/>
</g>
</g>
</svg>
        <g id="navigator" transform="translate(0 0)" fill="#404254">
                <rect fill="#f2f5e9" fill-opacity="0.5" stroke="#606060" stroke-width=".5" x="0" y="0" width="60" height="60"/>
                <use id="zoomplus" xlink:href="#zoomPlus" x="17" y="9" onmousedown="handleZoom(evt,'in')"/>
                <use id="zoomminus" xlink:href="#zoomMin" x="42" y="9" onmousedown="handleZoom(evt,'out')"/>
                <use id="reset" xlink:href="#resetDef" x="30" y="36" onmousedown="handleReset()"/>
                <g id="arrowUp" xlink:href="#dirArrow" transform="translate(30 24)" onmousedown="handlePan(0,-1)">
                  <use xlink:href="#rim" fill="#404040">
                        <set attributeName="fill" to="#808080" begin="arrowUp.mouseover" end="arrowUp.mouseout"/>
                  </use>
                  <path fill="none" stroke="white" stroke-width="1.5" d="M0,-3.0v7 M-2.5,-0.5L0,-3.0L2.5,-0.5"/>
                </g>
                <g id="arrowRight" xlink:href="#dirArrow" transform="rotate(90) translate(36 -43)" onmousedown="handlePan(1,0)">
                  <use xlink:href="#rim" fill="#404040">
                        <set attributeName="fill" to="#808080" begin="arrowRight.mouseover" end="arrowRight.mouseout"/>
                  </use>
                  <path fill="none" stroke="white" stroke-width="1.5" d="M0,-3.0v7 M-2.5,-0.5L0,-3.0L2.5,-0.5"/>
                </g>
                <g id="arrowDown" xlink:href="#dirArrow" transform="rotate(180) translate(-30 -48)" onmousedown="handlePan(0,1)">
                  <use xlink:href="#rim" fill="#404040">
                        <set attributeName="fill" to="#808080" begin="arrowDown.mouseover" end="arrowDown.mouseout"/>
                  </use>
                  <path fill="none" stroke="white" stroke-width="1.5" d="M0,-3.0v7 M-2.5,-0.5L0,-3.0L2.5,-0.5"/>
                </g>
                <g id="arrowLeft" xlink:href="#dirArrow" transform="rotate(270) translate(-36 17)" onmousedown="handlePan(-1,0)">
                  <use xlink:href="#rim" fill="#404040">
                        <set attributeName="fill" to="#808080" begin="arrowLeft.mouseover" end="arrowLeft.mouseout"/>
                  </use>
                  <path fill="none" stroke="white" stroke-width="1.5" d="M0,-3.0v7 M-2.5,-0.5L0,-3.0L2.5,-0.5"/>
                </g>
        </g>
        <svg viewBox="0 0 15 15" width="100%" height="30px" preserveAspectRatio="xMaxYMin meet">
         <g id="arrow_out" transform="scale(0.3 0.3)">
          <a xlink:href="quickjs_8h_a2b88ed25233c441cbed7b0a027c9ee2f_icgraph_org.svg" target="_base">
           <rect id="button" ry="5" rx="5" y="6" x="6" height="38" width="38"
                fill="#f2f5e9" fill-opacity="0.5" stroke="#606060" stroke-width="1.0"/>
           <path id="arrow"
             d="M 11.500037,31.436501 C 11.940474,20.09759 22.043105,11.32322 32.158766,21.979434 L 37.068811,17.246167 C 37.068811,17.246167 37.088388,32 37.088388,32 L 22.160133,31.978069 C 22.160133,31.978069 26.997745,27.140456 26.997745,27.140456 C 18.528582,18.264221 13.291696,25.230495 11.500037,31.436501 z"
             style="fill:#404040;"/>
          </a>
         </g>
        </svg>
</svg>
