<?xml version="1.0" encoding="UTF-8" standalone="no"?>
<!DOCTYPE svg PUBLIC "-//W3C//DTD SVG 1.1//EN"
 "http://www.w3.org/Graphics/SVG/1.1/DTD/svg11.dtd">
<!-- Generated by graphviz version 2.40.1 (20161225.0304)
 -->
<!-- Title: add_scope_var Pages: 1 -->
<svg width="919pt" height="436pt"
 viewBox="0.00 0.00 919.00 436.00" xmlns="http://www.w3.org/2000/svg" xmlns:xlink="http://www.w3.org/1999/xlink">
<g id="graph0" class="graph" transform="scale(1 1) rotate(0) translate(4 432)">
<title>add_scope_var</title>
<!-- Node312755 -->
<g id="node1" class="node">
<title>Node312755</title>
<polygon fill="#bfbfbf" stroke="#000000" points="0,-294.5 0,-313.5 83,-313.5 83,-294.5 0,-294.5"/>
<text text-anchor="middle" x="41.5" y="-301.5" font-family="Helvetica,sans-Serif" font-size="10.00" fill="#000000">add_scope_var</text>
</g>
<!-- Node312756 -->
<g id="node2" class="node">
<title>Node312756</title>
<g id="a_node2"><a xlink:href="quickjs_8c.html#a1e310fff13ce6850b927d0fa738391b9" target="_top" xlink:title="add_private_class_field">
<polygon fill="none" stroke="#000000" points="217,-408.5 217,-427.5 336,-427.5 336,-408.5 217,-408.5"/>
<text text-anchor="middle" x="276.5" y="-415.5" font-family="Helvetica,sans-Serif" font-size="10.00" fill="#000000">add_private_class_field</text>
</a>
</g>
</g>
<!-- Node312755&#45;&gt;Node312756 -->
<g id="edge1" class="edge">
<title>Node312755&#45;&gt;Node312756</title>
<path fill="none" stroke="#191970" d="M68.0341,-318.5606C102.0867,-337.0247 163.1963,-369.4139 217,-394 228.144,-399.0924 240.6967,-404.2396 251.39,-408.4544"/>
<polygon fill="#191970" stroke="#191970" points="69.6323,-315.4456 59.1756,-313.7401 66.2864,-321.5942 69.6323,-315.4456"/>
</g>
<!-- Node312793 -->
<g id="node7" class="node">
<title>Node312793</title>
<g id="a_node7"><a xlink:href="quickjs_8c.html#a99125693fff3fd8277f544b15109354b" target="_top" xlink:title="define_var">
<polygon fill="none" stroke="#000000" points="119,-275.5 119,-294.5 181,-294.5 181,-275.5 119,-275.5"/>
<text text-anchor="middle" x="150" y="-282.5" font-family="Helvetica,sans-Serif" font-size="10.00" fill="#000000">define_var</text>
</a>
</g>
</g>
<!-- Node312755&#45;&gt;Node312793 -->
<g id="edge8" class="edge">
<title>Node312755&#45;&gt;Node312793</title>
<path fill="none" stroke="#191970" d="M93.2696,-294.9344C101.979,-293.4092 110.7739,-291.8691 118.7538,-290.4717"/>
<polygon fill="#191970" stroke="#191970" points="92.385,-291.5359 83.1386,-296.7084 93.5925,-298.431 92.385,-291.5359"/>
</g>
<!-- Node312757 -->
<g id="node3" class="node">
<title>Node312757</title>
<g id="a_node3"><a xlink:href="quickjs_8c.html#a00eb789430243c24dab4a63ad6a79653" target="_top" xlink:title="js_parse_class">
<polygon fill="none" stroke="#000000" points="681,-256.5 681,-275.5 763,-275.5 763,-256.5 681,-256.5"/>
<text text-anchor="middle" x="722" y="-263.5" font-family="Helvetica,sans-Serif" font-size="10.00" fill="#000000">js_parse_class</text>
</a>
</g>
</g>
<!-- Node312756&#45;&gt;Node312757 -->
<g id="edge2" class="edge">
<title>Node312756&#45;&gt;Node312757</title>
<path fill="none" stroke="#191970" d="M345.9923,-408.2672C422.1861,-395.7621 546.6848,-369.8594 645,-323 671.4248,-310.4053 697.91,-288.1869 711.8828,-275.5304"/>
<polygon fill="#191970" stroke="#191970" points="345.3449,-404.8262 336.0283,-409.8712 346.4575,-411.7372 345.3449,-404.8262"/>
</g>
<!-- Node312758 -->
<g id="node4" class="node">
<title>Node312758</title>
<g id="a_node4"><a xlink:href="quickjs_8c.html#a840642c87c5a82d4cc68333376a3b6de" target="_top" xlink:title="js_parse_postfix_expr">
<polygon fill="none" stroke="#ff0000" points="799,-157.5 799,-176.5 911,-176.5 911,-157.5 799,-157.5"/>
<text text-anchor="middle" x="855" y="-164.5" font-family="Helvetica,sans-Serif" font-size="10.00" fill="#000000">js_parse_postfix_expr</text>
</a>
</g>
</g>
<!-- Node312757&#45;&gt;Node312758 -->
<g id="edge3" class="edge">
<title>Node312757&#45;&gt;Node312758</title>
<path fill="none" stroke="#191970" d="M743.5602,-249.9514C771.5218,-229.1379 819.4055,-193.4952 842.2059,-176.5234"/>
<polygon fill="#191970" stroke="#191970" points="741.1706,-247.3669 735.2388,-256.1456 745.3503,-252.9821 741.1706,-247.3669"/>
</g>
<!-- Node312762 -->
<g id="node5" class="node">
<title>Node312762</title>
<g id="a_node5"><a xlink:href="quickjs_8c.html#a9d844c16dcc71701436848074337d32c" target="_top" xlink:title="js_parse_statement\l_or_decl">
<polygon fill="none" stroke="#ff0000" points="804,-83 804,-113 906,-113 906,-83 804,-83"/>
<text text-anchor="start" x="812" y="-101" font-family="Helvetica,sans-Serif" font-size="10.00" fill="#000000">js_parse_statement</text>
<text text-anchor="middle" x="855" y="-90" font-family="Helvetica,sans-Serif" font-size="10.00" fill="#000000">_or_decl</text>
</a>
</g>
</g>
<!-- Node312757&#45;&gt;Node312762 -->
<g id="edge5" class="edge">
<title>Node312757&#45;&gt;Node312762</title>
<path fill="none" stroke="#191970" d="M742.6782,-249.7618C749.7477,-243.4977 757.3011,-235.9305 763,-228 785.7528,-196.3376 775.9539,-179.4496 799,-148 808.7839,-134.6484 822.6425,-122.2387 834.1249,-113.1222"/>
<polygon fill="#191970" stroke="#191970" points="740.1261,-247.3358 734.7417,-256.4605 744.641,-252.6852 740.1261,-247.3358"/>
</g>
<!-- Node312769 -->
<g id="node6" class="node">
<title>Node312769</title>
<g id="a_node6"><a xlink:href="quickjs_8c.html#a498e1d5c7de1b59c1630e9847cde1e41" target="_top" xlink:title="js_parse_export">
<polygon fill="none" stroke="#ff0000" points="812,-275.5 812,-294.5 898,-294.5 898,-275.5 812,-275.5"/>
<text text-anchor="middle" x="855" y="-282.5" font-family="Helvetica,sans-Serif" font-size="10.00" fill="#000000">js_parse_export</text>
</a>
</g>
</g>
<!-- Node312757&#45;&gt;Node312769 -->
<g id="edge7" class="edge">
<title>Node312757&#45;&gt;Node312769</title>
<path fill="none" stroke="#191970" d="M773.3441,-273.3349C786.0585,-275.1512 799.5536,-277.0791 811.8331,-278.8333"/>
<polygon fill="#191970" stroke="#191970" points="773.7475,-269.857 763.353,-271.9076 772.7575,-276.7867 773.7475,-269.857"/>
</g>
<!-- Node312758&#45;&gt;Node312758 -->
<g id="edge4" class="edge">
<title>Node312758&#45;&gt;Node312758</title>
<path fill="none" stroke="#191970" d="M830.4465,-186.0292C831.7858,-191.128 839.9703,-195 855,-195 878.4609,-195 885.2426,-185.5653 875.345,-176.7571"/>
<polygon fill="#191970" stroke="#191970" points="833.709,-187.3096 834.655,-176.7571 827.3348,-184.4164 833.709,-187.3096"/>
</g>
<!-- Node312762&#45;&gt;Node312762 -->
<g id="edge6" class="edge">
<title>Node312762&#45;&gt;Node312762</title>
<path fill="none" stroke="#191970" d="M831.5452,-123.4579C834.4563,-128.179 842.2745,-131.5 855,-131.5 875.8828,-131.5 883.5507,-122.5566 878.0037,-113.159"/>
<polygon fill="#191970" stroke="#191970" points="835.0553,-123.3026 831.9963,-113.159 828.062,-122.9962 835.0553,-123.3026"/>
</g>
<!-- Node312793&#45;&gt;Node312757 -->
<g id="edge9" class="edge">
<title>Node312793&#45;&gt;Node312757</title>
<path fill="none" stroke="#191970" d="M191.4127,-283.6244C296.9986,-280.1172 575.3418,-270.8715 680.75,-267.3702"/>
<polygon fill="#191970" stroke="#191970" points="191.0377,-280.1348 181.1594,-283.965 191.2701,-287.131 191.0377,-280.1348"/>
</g>
<!-- Node312793&#45;&gt;Node312762 -->
<g id="edge26" class="edge">
<title>Node312793&#45;&gt;Node312762</title>
<path fill="none" stroke="#191970" d="M154.6954,-265.4525C162.9348,-234.4649 182.4853,-173.4409 217,-133 289.3295,-48.2514 318.0824,0 429.5,0 429.5,0 429.5,0 584,0 665.9238,0 687.101,-13.1643 763,-44 788.3943,-54.317 815.1755,-70.7533 833.2524,-82.7853"/>
<polygon fill="#191970" stroke="#191970" points="151.2343,-264.8624 152.1649,-275.4163 158.0189,-266.5856 151.2343,-264.8624"/>
</g>
<!-- Node312793&#45;&gt;Node312769 -->
<g id="edge27" class="edge">
<title>Node312793&#45;&gt;Node312769</title>
<path fill="none" stroke="#191970" d="M175.0314,-299.7375C222.7938,-326.4205 330.9681,-380 429.5,-380 429.5,-380 429.5,-380 584,-380 686.4535,-380 799.0488,-318.7837 839.4843,-294.6319"/>
<polygon fill="#191970" stroke="#191970" points="176.4668,-296.5276 166.0429,-294.6319 173.0094,-302.6143 176.4668,-296.5276"/>
</g>
<!-- Node312794 -->
<g id="node8" class="node">
<title>Node312794</title>
<g id="a_node8"><a xlink:href="quickjs_8c.html#a53e971ab3c46da0b7d48481b0696e138" target="_top" xlink:title="js_define_var">
<polygon fill="none" stroke="#000000" points="239.5,-142.5 239.5,-161.5 313.5,-161.5 313.5,-142.5 239.5,-142.5"/>
<text text-anchor="middle" x="276.5" y="-149.5" font-family="Helvetica,sans-Serif" font-size="10.00" fill="#000000">js_define_var</text>
</a>
</g>
</g>
<!-- Node312793&#45;&gt;Node312794 -->
<g id="edge10" class="edge">
<title>Node312793&#45;&gt;Node312794</title>
<path fill="none" stroke="#191970" d="M166.2252,-267.9411C193.0363,-239.7523 245.7484,-184.3317 267.1436,-161.8372"/>
<polygon fill="#191970" stroke="#191970" points="163.4533,-265.7769 159.0976,-275.435 168.5255,-270.6012 163.4533,-265.7769"/>
</g>
<!-- Node312767 -->
<g id="node12" class="node">
<title>Node312767</title>
<g id="a_node12"><a xlink:href="quickjs_8c.html#acc9eb677cab8dfcf45f59381f8a19601" target="_top" xlink:title="js_parse_function_decl2">
<polygon fill="none" stroke="#ff0000" points="523,-294.5 523,-313.5 645,-313.5 645,-294.5 523,-294.5"/>
<text text-anchor="middle" x="584" y="-301.5" font-family="Helvetica,sans-Serif" font-size="10.00" fill="#000000">js_parse_function_decl2</text>
</a>
</g>
</g>
<!-- Node312793&#45;&gt;Node312767 -->
<g id="edge28" class="edge">
<title>Node312793&#45;&gt;Node312767</title>
<path fill="none" stroke="#191970" d="M191.4567,-286.8149C268.3219,-290.18 433.2627,-297.4009 522.9288,-301.3264"/>
<polygon fill="#191970" stroke="#191970" points="191.3558,-283.3072 181.2122,-286.3664 191.0495,-290.3005 191.3558,-283.3072"/>
</g>
<!-- Node312794&#45;&gt;Node312762 -->
<g id="edge25" class="edge">
<title>Node312794&#45;&gt;Node312762</title>
<path fill="none" stroke="#191970" d="M317.19,-139.5123C334.0021,-134.835 353.7859,-129.9456 372,-127 527.9041,-101.7867 715.3092,-97.9656 803.868,-97.7145"/>
<polygon fill="#191970" stroke="#191970" points="315.8025,-136.2684 307.1467,-142.378 317.7232,-142.9998 315.8025,-136.2684"/>
</g>
<!-- Node312760 -->
<g id="node9" class="node">
<title>Node312760</title>
<g id="a_node9"><a xlink:href="quickjs_8c.html#a26be546cf89c4580ba9020e8fc43a759" target="_top" xlink:title="js_parse_destructuring\l_element">
<polygon fill="none" stroke="#000000" points="372,-137 372,-167 487,-167 487,-137 372,-137"/>
<text text-anchor="start" x="380" y="-155" font-family="Helvetica,sans-Serif" font-size="10.00" fill="#000000">js_parse_destructuring</text>
<text text-anchor="middle" x="429.5" y="-144" font-family="Helvetica,sans-Serif" font-size="10.00" fill="#000000">_element</text>
</a>
</g>
</g>
<!-- Node312794&#45;&gt;Node312760 -->
<g id="edge11" class="edge">
<title>Node312794&#45;&gt;Node312760</title>
<path fill="none" stroke="#191970" d="M323.751,-152C338.9773,-152 356.0236,-152 371.9093,-152"/>
<polygon fill="#191970" stroke="#191970" points="323.5371,-148.5001 313.537,-152 323.537,-155.5001 323.5371,-148.5001"/>
</g>
<!-- Node312761 -->
<g id="node10" class="node">
<title>Node312761</title>
<g id="a_node10"><a xlink:href="quickjs_8c.html#a9660cf21845352b14655d423389d6620" target="_top" xlink:title="js_parse_var">
<polygon fill="none" stroke="#000000" points="686,-199.5 686,-218.5 758,-218.5 758,-199.5 686,-199.5"/>
<text text-anchor="middle" x="722" y="-206.5" font-family="Helvetica,sans-Serif" font-size="10.00" fill="#000000">js_parse_var</text>
</a>
</g>
</g>
<!-- Node312794&#45;&gt;Node312761 -->
<g id="edge23" class="edge">
<title>Node312794&#45;&gt;Node312761</title>
<path fill="none" stroke="#191970" d="M302.1384,-166.4106C320.8658,-176.1445 347.2126,-188.2333 372,-194 484.1073,-220.0815 621.7379,-215.7986 685.8884,-211.792"/>
<polygon fill="#191970" stroke="#191970" points="303.5586,-163.2014 293.0884,-161.5811 300.263,-169.377 303.5586,-163.2014"/>
</g>
<!-- Node312764 -->
<g id="node11" class="node">
<title>Node312764</title>
<g id="a_node11"><a xlink:href="quickjs_8c.html#ac188b916dd086803591a67de7e7a85f6" target="_top" xlink:title="js_parse_for_in_of">
<polygon fill="none" stroke="#000000" points="536,-28.5 536,-47.5 632,-47.5 632,-28.5 536,-28.5"/>
<text text-anchor="middle" x="584" y="-35.5" font-family="Helvetica,sans-Serif" font-size="10.00" fill="#000000">js_parse_for_in_of</text>
</a>
</g>
</g>
<!-- Node312794&#45;&gt;Node312764 -->
<g id="edge24" class="edge">
<title>Node312794&#45;&gt;Node312764</title>
<path fill="none" stroke="#191970" d="M289.5137,-134.1039C306.0551,-112.8888 336.7355,-78.3545 372,-62 424.2525,-37.7671 491.2462,-34.1183 535.7936,-34.9882"/>
<polygon fill="#191970" stroke="#191970" points="286.5628,-132.2032 283.318,-142.2889 292.1441,-136.428 286.5628,-132.2032"/>
</g>
<!-- Node312760&#45;&gt;Node312758 -->
<g id="edge13" class="edge">
<title>Node312760&#45;&gt;Node312758</title>
<path fill="none" stroke="#191970" d="M497.4802,-154.3965C581.0524,-157.3426 721.3211,-162.2875 798.9918,-165.0256"/>
<polygon fill="#191970" stroke="#191970" points="497.4448,-150.8932 487.3276,-154.0386 497.1981,-157.8888 497.4448,-150.8932"/>
</g>
<!-- Node312760&#45;&gt;Node312762 -->
<g id="edge19" class="edge">
<title>Node312760&#45;&gt;Node312762</title>
<path fill="none" stroke="#191970" d="M497.4374,-143.3781C582.8153,-132.5428 727.4148,-114.1918 803.9523,-104.4784"/>
<polygon fill="#191970" stroke="#191970" points="496.8074,-139.9299 487.3276,-144.6611 497.6888,-146.8742 496.8074,-139.9299"/>
</g>
<!-- Node312760&#45;&gt;Node312760 -->
<g id="edge12" class="edge">
<title>Node312760&#45;&gt;Node312760</title>
<path fill="none" stroke="#191970" d="M402.4914,-177.4579C405.8436,-182.179 414.8464,-185.5 429.5,-185.5 453.5469,-185.5 462.3766,-176.5566 455.9891,-167.159"/>
<polygon fill="#191970" stroke="#191970" points="406.0026,-177.3226 403.0109,-167.159 399.0115,-176.97 406.0026,-177.3226"/>
</g>
<!-- Node312760&#45;&gt;Node312761 -->
<g id="edge14" class="edge">
<title>Node312760&#45;&gt;Node312761</title>
<path fill="none" stroke="#191970" d="M497.2508,-165.2027C556.1138,-176.6735 639.0869,-192.8426 685.9987,-201.9844"/>
<polygon fill="#191970" stroke="#191970" points="497.7734,-161.7388 487.2886,-163.2614 496.4345,-168.6096 497.7734,-161.7388"/>
</g>
<!-- Node312760&#45;&gt;Node312764 -->
<g id="edge17" class="edge">
<title>Node312760&#45;&gt;Node312764</title>
<path fill="none" stroke="#191970" d="M458.1069,-130.892C491.8165,-106.0189 546.361,-65.7725 571.0839,-47.5304"/>
<polygon fill="#191970" stroke="#191970" points="455.985,-128.108 450.0164,-136.8617 460.1411,-133.7406 455.985,-128.108"/>
</g>
<!-- Node312760&#45;&gt;Node312767 -->
<g id="edge20" class="edge">
<title>Node312760&#45;&gt;Node312767</title>
<path fill="none" stroke="#191970" d="M452.1059,-174.2401C486.3029,-207.8838 549.7781,-270.3318 574.1335,-294.2932"/>
<polygon fill="#191970" stroke="#191970" points="454.462,-171.6482 444.8789,-167.13 449.5528,-176.6382 454.462,-171.6482"/>
</g>
<!-- Node312761&#45;&gt;Node312762 -->
<g id="edge15" class="edge">
<title>Node312761&#45;&gt;Node312762</title>
<path fill="none" stroke="#191970" d="M741.7241,-192.5386C767.3705,-171.1344 811.8209,-134.0367 836.7314,-113.2467"/>
<polygon fill="#191970" stroke="#191970" points="739.2377,-190.0548 733.8029,-199.1495 743.723,-195.4291 739.2377,-190.0548"/>
</g>
<!-- Node312761&#45;&gt;Node312769 -->
<g id="edge16" class="edge">
<title>Node312761&#45;&gt;Node312769</title>
<path fill="none" stroke="#191970" d="M747.6458,-223.6548C774.3749,-238.9285 815.4802,-262.4172 838.2922,-275.4527"/>
<polygon fill="#191970" stroke="#191970" points="749.2635,-220.548 738.8445,-218.6255 745.7905,-226.6257 749.2635,-220.548"/>
</g>
<!-- Node312764&#45;&gt;Node312762 -->
<g id="edge18" class="edge">
<title>Node312764&#45;&gt;Node312762</title>
<path fill="none" stroke="#191970" d="M642.23,-42.2517C677.5697,-45.7061 723.3538,-51.7441 763,-62 783.092,-67.1975 804.7439,-75.5243 821.9925,-82.861"/>
<polygon fill="#191970" stroke="#191970" points="642.3685,-38.7494 632.0859,-41.3026 641.7164,-45.719 642.3685,-38.7494"/>
</g>
<!-- Node312767&#45;&gt;Node312757 -->
<g id="edge21" class="edge">
<title>Node312767&#45;&gt;Node312757</title>
<path fill="none" stroke="#191970" d="M628.473,-291.7538C647.4946,-286.516 669.3751,-280.4909 687.1879,-275.5859"/>
<polygon fill="#191970" stroke="#191970" points="627.5352,-288.3817 618.8232,-294.411 629.3936,-295.1305 627.5352,-288.3817"/>
</g>
<!-- Node312767&#45;&gt;Node312769 -->
<g id="edge22" class="edge">
<title>Node312767&#45;&gt;Node312769</title>
<path fill="none" stroke="#191970" d="M655.2046,-299.0078C704.9206,-295.5222 769.6694,-290.9826 811.7742,-288.0306"/>
<polygon fill="#191970" stroke="#191970" points="654.8863,-295.5214 645.1556,-299.7123 655.3759,-302.5043 654.8863,-295.5214"/>
</g>
</g>
</svg>
