<?xml version="1.0" encoding="UTF-8" standalone="no"?>
<!DOCTYPE svg PUBLIC "-//W3C//DTD SVG 1.1//EN"
 "http://www.w3.org/Graphics/SVG/1.1/DTD/svg11.dtd">
<!-- Generated by graphviz version 2.40.1 (20161225.0304)
 -->
<!-- Title: JS_ThrowTypeErrorDetachedArrayBuffer Pages: 1 -->
<!--zoomable 833 -->
<svg id="main" version="1.1" xmlns="http://www.w3.org/2000/svg" xmlns:xlink="http://www.w3.org/1999/xlink" xml:space="preserve" onload="init(evt)">
<style type="text/css"><![CDATA[
.edge:hover path { stroke: red; }
.edge:hover polygon { stroke: red; fill: red; }
]]></style>
<script type="text/javascript"><![CDATA[
var edges = document.getElementsByTagName('g');
if (edges && edges.length) {
  for (var i=0;i<edges.length;i++) {
    if (edges[i].id.substr(0,4)=='edge') {
      edges[i].setAttribute('class','edge');
    }
  }
}
]]></script>
        <defs>
                <circle id="rim" cx="0" cy="0" r="7"/>
                <circle id="rim2" cx="0" cy="0" r="3.5"/>
                <g id="zoomPlus">
                        <use xlink:href="#rim" fill="#404040">
                                <set attributeName="fill" to="#808080" begin="zoomplus.mouseover" end="zoomplus.mouseout"/>
                        </use>
                        <path d="M-4,0h8M0,-4v8" fill="none" stroke="white" stroke-width="1.5" pointer-events="none"/>
                </g>
                <g id="zoomMin">
                        <use xlink:href="#rim" fill="#404040">
                                <set attributeName="fill" to="#808080" begin="zoomminus.mouseover" end="zoomminus.mouseout"/>
                        </use>
                        <path d="M-4,0h8" fill="none" stroke="white" stroke-width="1.5" pointer-events="none"/>
                </g>
                <g id="dirArrow">
                        <path fill="none" stroke="white" stroke-width="1.5" d="M0,-3.0v7 M-2.5,-0.5L0,-3.0L2.5,-0.5"/>
                </g>
               <g id="resetDef">
                       <use xlink:href="#rim2" fill="#404040">
                               <set attributeName="fill" to="#808080" begin="reset.mouseover" end="reset.mouseout"/>
                       </use>
               </g>
        </defs>

<script type="text/javascript">
var viewWidth = 508;
var viewHeight = 833;
var sectionId = 'dynsection-65';
</script>
<script xlink:href="svgpan.js"/>
<svg id="graph" class="graph">
<g id="viewport">
<title>JS_ThrowTypeErrorDetachedArrayBuffer</title>
<!-- Node23461 -->
<g id="node1" class="node">
<title>Node23461</title>
<polygon fill="#bfbfbf" stroke="#000000" points="0,-420 0,-450 146,-450 146,-420 0,-420"/>
<text text-anchor="start" x="8" y="-438" font-family="Helvetica,sans-Serif" font-size="10.00" fill="#000000">JS_ThrowTypeErrorDetached</text>
<text text-anchor="middle" x="73" y="-427" font-family="Helvetica,sans-Serif" font-size="10.00" fill="#000000">ArrayBuffer</text>
</g>
<!-- Node23462 -->
<g id="node2" class="node">
<title>Node23462</title>
<g id="a_node2"><a xlink:href="quickjs_8c.html#a8160f52fd4197ade647faa287b34862e" target="_top" xlink:title="js_array_buffer_slice">
<polygon fill="none" stroke="#000000" points="202.5,-805.5 202.5,-824.5 309.5,-824.5 309.5,-805.5 202.5,-805.5"/>
<text text-anchor="middle" x="256" y="-812.5" font-family="Helvetica,sans-Serif" font-size="10.00" fill="#000000">js_array_buffer_slice</text>
</a>
</g>
</g>
<!-- Node23461&#45;&gt;Node23462 -->
<g id="edge1" class="edge">
<title>Node23461&#45;&gt;Node23462</title>
<path fill="none" stroke="#191970" d="M77.3579,-460.4429C90.5511,-534.5932 132.2228,-748.2663 182,-796 187.7441,-801.5083 194.8606,-805.4782 202.3906,-808.3284"/>
<polygon fill="#191970" stroke="#191970" points="80.7305,-459.4119 75.554,-450.1678 73.8359,-460.6224 80.7305,-459.4119"/>
</g>
<!-- Node23463 -->
<g id="node3" class="node">
<title>Node23463</title>
<g id="a_node3"><a xlink:href="quickjs_8c.html#a4398c126700f887a947501bf25910f75" target="_top" xlink:title="js_array_iterator_next">
<polygon fill="none" stroke="#000000" points="201,-767.5 201,-786.5 311,-786.5 311,-767.5 201,-767.5"/>
<text text-anchor="middle" x="256" y="-774.5" font-family="Helvetica,sans-Serif" font-size="10.00" fill="#000000">js_array_iterator_next</text>
</a>
</g>
</g>
<!-- Node23461&#45;&gt;Node23463 -->
<g id="edge2" class="edge">
<title>Node23461&#45;&gt;Node23463</title>
<path fill="none" stroke="#191970" d="M74.2583,-460.0884C78.5994,-519.5335 97.7828,-670.169 182,-753 188.4515,-759.3453 196.5948,-764.0132 205.1024,-767.447"/>
<polygon fill="#191970" stroke="#191970" points="77.7496,-459.8387 73.6081,-450.0869 70.7643,-460.2929 77.7496,-459.8387"/>
</g>
<!-- Node23935 -->
<g id="node5" class="node">
<title>Node23935</title>
<g id="a_node5"><a xlink:href="quickjs_8c.html#ab81c18658906074980c65ae90e2ca5f0" target="_top" xlink:title="js_atomics_get_ptr">
<polygon fill="none" stroke="#ff0000" points="206.5,-653.5 206.5,-672.5 305.5,-672.5 305.5,-653.5 206.5,-653.5"/>
<text text-anchor="middle" x="256" y="-660.5" font-family="Helvetica,sans-Serif" font-size="10.00" fill="#000000">js_atomics_get_ptr</text>
</a>
</g>
</g>
<!-- Node23461&#45;&gt;Node23935 -->
<g id="edge4" class="edge">
<title>Node23461&#45;&gt;Node23935</title>
<path fill="none" stroke="#191970" d="M79.6264,-459.9206C92.2842,-502.7554 123.9465,-590.4141 182,-639 189.5609,-645.3278 198.8269,-649.9983 208.2108,-653.4422"/>
<polygon fill="#191970" stroke="#191970" points="82.9195,-458.7055 76.8133,-450.0473 76.1875,-460.6236 82.9195,-458.7055"/>
</g>
<!-- Node23936 -->
<g id="node6" class="node">
<title>Node23936</title>
<g id="a_node6"><a xlink:href="quickjs_8c.html#adbeea736a6232c3a784b39a2dfb6a510" target="_top" xlink:title="js_atomics_op">
<polygon fill="none" stroke="#000000" points="393,-710.5 393,-729.5 473,-729.5 473,-710.5 393,-710.5"/>
<text text-anchor="middle" x="433" y="-717.5" font-family="Helvetica,sans-Serif" font-size="10.00" fill="#000000">js_atomics_op</text>
</a>
</g>
</g>
<!-- Node23461&#45;&gt;Node23936 -->
<g id="edge9" class="edge">
<title>Node23461&#45;&gt;Node23936</title>
<path fill="none" stroke="#191970" d="M74.4568,-460.2301C79.1732,-515.8682 99.0202,-648.8418 182,-708 245.9413,-753.5853 344.0557,-740.9989 396.6757,-729.508"/>
<polygon fill="#191970" stroke="#191970" points="77.941,-459.8878 73.701,-450.1784 70.9607,-460.4127 77.941,-459.8878"/>
</g>
<!-- Node23909 -->
<g id="node7" class="node">
<title>Node23909</title>
<g id="a_node7"><a xlink:href="quickjs_8c.html#a0586dbbd419acfaca58bb867e3a39ed3" target="_top" xlink:title="js_atomics_store">
<polygon fill="none" stroke="#000000" points="387.5,-662.5 387.5,-681.5 478.5,-681.5 478.5,-662.5 387.5,-662.5"/>
<text text-anchor="middle" x="433" y="-669.5" font-family="Helvetica,sans-Serif" font-size="10.00" fill="#000000">js_atomics_store</text>
</a>
</g>
</g>
<!-- Node23461&#45;&gt;Node23909 -->
<g id="edge10" class="edge">
<title>Node23461&#45;&gt;Node23909</title>
<path fill="none" stroke="#191970" d="M75.3746,-460.2869C81.7981,-512.5067 104.6467,-631.5852 182,-682 252.8801,-728.1959 360.4768,-698.6333 408.4365,-681.6044"/>
<polygon fill="#191970" stroke="#191970" points="78.8366,-459.7528 74.2395,-450.2073 71.8806,-460.5362 78.8366,-459.7528"/>
</g>
<!-- Node23924 -->
<g id="node8" class="node">
<title>Node23924</title>
<g id="a_node8"><a xlink:href="quickjs_8c.html#a10203c5ecfd1db25342e97b0342ba514" target="_top" xlink:title="js_atomics_notify">
<polygon fill="none" stroke="#000000" points="386.5,-619.5 386.5,-638.5 479.5,-638.5 479.5,-619.5 386.5,-619.5"/>
<text text-anchor="middle" x="433" y="-626.5" font-family="Helvetica,sans-Serif" font-size="10.00" fill="#000000">js_atomics_notify</text>
</a>
</g>
</g>
<!-- Node23461&#45;&gt;Node23924 -->
<g id="edge8" class="edge">
<title>Node23461&#45;&gt;Node23924</title>
<path fill="none" stroke="#191970" d="M80.9509,-460.1433C94.6711,-498.9166 126.767,-572.3379 182,-606 244.5884,-644.1449 332.7282,-642.2201 386.1886,-636.3304"/>
<polygon fill="#191970" stroke="#191970" points="84.0984,-458.528 77.5644,-450.1879 77.4713,-460.7823 84.0984,-458.528"/>
</g>
<!-- Node23933 -->
<g id="node9" class="node">
<title>Node23933</title>
<g id="a_node9"><a xlink:href="quickjs_8c.html#a67fcc1a61d5e110579fdaf06d051b6e9" target="_top" xlink:title="js_dataview_constructor">
<polygon fill="none" stroke="#ff0000" points="195,-577.5 195,-596.5 317,-596.5 317,-577.5 195,-577.5"/>
<text text-anchor="middle" x="256" y="-584.5" font-family="Helvetica,sans-Serif" font-size="10.00" fill="#000000">js_dataview_constructor</text>
</a>
</g>
</g>
<!-- Node23461&#45;&gt;Node23933 -->
<g id="edge11" class="edge">
<title>Node23461&#45;&gt;Node23933</title>
<path fill="none" stroke="#191970" d="M86.1352,-458.9872C103.8869,-489.1042 138.3935,-540.1855 182,-568 188.0387,-571.8518 194.8224,-574.924 201.7681,-577.3741"/>
<polygon fill="#191970" stroke="#191970" points="88.9882,-456.9271 80.9702,-450.0016 82.9193,-460.4156 88.9882,-456.9271"/>
</g>
<!-- Node23934 -->
<g id="node10" class="node">
<title>Node23934</title>
<g id="a_node10"><a xlink:href="quickjs_8c.html#a351e921aea7f22e239884fdc941a8e52" target="_top" xlink:title="js_dataview_getValue">
<polygon fill="none" stroke="#000000" points="200,-539.5 200,-558.5 312,-558.5 312,-539.5 200,-539.5"/>
<text text-anchor="middle" x="256" y="-546.5" font-family="Helvetica,sans-Serif" font-size="10.00" fill="#000000">js_dataview_getValue</text>
</a>
</g>
</g>
<!-- Node23461&#45;&gt;Node23934 -->
<g id="edge12" class="edge">
<title>Node23461&#45;&gt;Node23934</title>
<path fill="none" stroke="#191970" d="M93.0528,-457.7728C113.3792,-479.4654 146.7778,-511.4789 182,-530 189.2787,-533.8274 197.3722,-536.9153 205.459,-539.3975"/>
<polygon fill="#191970" stroke="#191970" points="95.5206,-455.2857 86.1764,-450.2919 90.367,-460.0228 95.5206,-455.2857"/>
</g>
<!-- Node23892 -->
<g id="node11" class="node">
<title>Node23892</title>
<g id="a_node11"><a xlink:href="quickjs_8c.html#a77e9c7ebb882b521133545bc59d15a4a" target="_top" xlink:title="js_dataview_setValue">
<polygon fill="none" stroke="#000000" points="200,-501.5 200,-520.5 312,-520.5 312,-501.5 200,-501.5"/>
<text text-anchor="middle" x="256" y="-508.5" font-family="Helvetica,sans-Serif" font-size="10.00" fill="#000000">js_dataview_setValue</text>
</a>
</g>
</g>
<!-- Node23461&#45;&gt;Node23892 -->
<g id="edge13" class="edge">
<title>Node23461&#45;&gt;Node23892</title>
<path fill="none" stroke="#191970" d="M106.6469,-455.1801C127.7253,-467.1623 155.7771,-481.9322 182,-492 191.5347,-495.6607 202.0284,-498.8381 212.0416,-501.4919"/>
<polygon fill="#191970" stroke="#191970" points="108.1878,-452.0285 97.7759,-450.0681 104.6927,-458.0936 108.1878,-452.0285"/>
</g>
<!-- Node24072 -->
<g id="node12" class="node">
<title>Node24072</title>
<g id="a_node12"><a xlink:href="quickjs_8c.html#ab9dd8240188c470b7c9733ff1ac12726" target="_top" xlink:title="JS_GetArrayBuffer">
<polygon fill="none" stroke="#000000" points="206.5,-463.5 206.5,-482.5 305.5,-482.5 305.5,-463.5 206.5,-463.5"/>
<text text-anchor="middle" x="256" y="-470.5" font-family="Helvetica,sans-Serif" font-size="10.00" fill="#000000">JS_GetArrayBuffer</text>
</a>
</g>
</g>
<!-- Node23461&#45;&gt;Node24072 -->
<g id="edge14" class="edge">
<title>Node23461&#45;&gt;Node24072</title>
<path fill="none" stroke="#191970" d="M155.1534,-452.0592C174.0725,-455.9877 193.5302,-460.0281 210.2456,-463.4991"/>
<polygon fill="#191970" stroke="#191970" points="155.8292,-448.6249 145.3264,-450.0186 154.406,-455.4787 155.8292,-448.6249"/>
</g>
<!-- Node24073 -->
<g id="node15" class="node">
<title>Node24073</title>
<g id="a_node15"><a xlink:href="quickjs_8c.html#a623376b2e5c5459f22b16e18ce134b62" target="_top" xlink:title="JS_GetTypedArrayBuffer">
<polygon fill="none" stroke="#000000" points="193,-425.5 193,-444.5 319,-444.5 319,-425.5 193,-425.5"/>
<text text-anchor="middle" x="256" y="-432.5" font-family="Helvetica,sans-Serif" font-size="10.00" fill="#000000">JS_GetTypedArrayBuffer</text>
</a>
</g>
</g>
<!-- Node23461&#45;&gt;Node24073 -->
<g id="edge17" class="edge">
<title>Node23461&#45;&gt;Node24073</title>
<path fill="none" stroke="#191970" d="M156.3271,-435C168.5621,-435 180.9935,-435 192.737,-435"/>
<polygon fill="#191970" stroke="#191970" points="156.1154,-431.5001 146.1154,-435 156.1154,-438.5001 156.1154,-431.5001"/>
</g>
<!-- Node23504 -->
<g id="node16" class="node">
<title>Node23504</title>
<g id="a_node16"><a xlink:href="quickjs_8c.html#a3be661c1eaa7a31184410667862635a2" target="_top" xlink:title="js_typed_array_constructor">
<polygon fill="none" stroke="#ff0000" points="366,-368.5 366,-387.5 500,-387.5 500,-368.5 366,-368.5"/>
<text text-anchor="middle" x="433" y="-375.5" font-family="Helvetica,sans-Serif" font-size="10.00" fill="#000000">js_typed_array_constructor</text>
</a>
</g>
</g>
<!-- Node23461&#45;&gt;Node23504 -->
<g id="edge18" class="edge">
<title>Node23461&#45;&gt;Node23504</title>
<path fill="none" stroke="#191970" d="M102.7707,-414.3867C123.8364,-401.1035 153.3295,-385.0439 182,-378 242.9378,-363.0285 314.7385,-364.8999 365.9003,-369.4031"/>
<polygon fill="#191970" stroke="#191970" points="100.7811,-411.5052 94.2854,-419.8752 104.583,-417.3828 100.7811,-411.5052"/>
</g>
<!-- Node23617 -->
<g id="node17" class="node">
<title>Node23617</title>
<g id="a_node17"><a xlink:href="quickjs_8c.html#a19e15727ea84a3735a3850b18da03330" target="_top" xlink:title="js_typed_array_constructor_ta">
<polygon fill="none" stroke="#000000" points="182,-387.5 182,-406.5 330,-406.5 330,-387.5 182,-387.5"/>
<text text-anchor="middle" x="256" y="-394.5" font-family="Helvetica,sans-Serif" font-size="10.00" fill="#000000">js_typed_array_constructor_ta</text>
</a>
</g>
</g>
<!-- Node23461&#45;&gt;Node23617 -->
<g id="edge19" class="edge">
<title>Node23461&#45;&gt;Node23617</title>
<path fill="none" stroke="#191970" d="M155.1534,-417.9408C174.0725,-414.0123 193.5302,-409.9719 210.2456,-406.5009"/>
<polygon fill="#191970" stroke="#191970" points="154.406,-414.5213 145.3264,-419.9814 155.8292,-421.3751 154.406,-414.5213"/>
</g>
<!-- Node23923 -->
<g id="node18" class="node">
<title>Node23923</title>
<g id="a_node18"><a xlink:href="quickjs_8c.html#abe83a22e4d81b08015c382d8f4e7f833" target="_top" xlink:title="js_typed_array_copyWithin">
<polygon fill="none" stroke="#000000" points="366,-311.5 366,-330.5 500,-330.5 500,-311.5 366,-311.5"/>
<text text-anchor="middle" x="433" y="-318.5" font-family="Helvetica,sans-Serif" font-size="10.00" fill="#000000">js_typed_array_copyWithin</text>
</a>
</g>
</g>
<!-- Node23461&#45;&gt;Node23923 -->
<g id="edge21" class="edge">
<title>Node23461&#45;&gt;Node23923</title>
<path fill="none" stroke="#191970" d="M98.3337,-413.4003C119.3582,-396.6697 150.7681,-374.3304 182,-362 241.5502,-338.4895 314.166,-328.4585 365.9419,-324.1799"/>
<polygon fill="#191970" stroke="#191970" points="96.0938,-410.7105 90.5348,-419.7299 100.505,-416.1457 96.0938,-410.7105"/>
</g>
<!-- Node23890 -->
<g id="node19" class="node">
<title>Node23890</title>
<g id="a_node19"><a xlink:href="quickjs_8c.html#ae93231189fcdcb0450f2b21c208f293f" target="_top" xlink:title="js_typed_array_fill">
<polygon fill="none" stroke="#000000" points="385.5,-273.5 385.5,-292.5 480.5,-292.5 480.5,-273.5 385.5,-273.5"/>
<text text-anchor="middle" x="433" y="-280.5" font-family="Helvetica,sans-Serif" font-size="10.00" fill="#000000">js_typed_array_fill</text>
</a>
</g>
</g>
<!-- Node23461&#45;&gt;Node23890 -->
<g id="edge22" class="edge">
<title>Node23461&#45;&gt;Node23890</title>
<path fill="none" stroke="#191970" d="M88.741,-411.4183C107.6028,-385.2229 141.751,-343.8775 182,-323 246.8267,-289.3738 332.738,-282.5075 385.3783,-281.8553"/>
<polygon fill="#191970" stroke="#191970" points="85.8287,-409.4753 82.9437,-419.6698 91.5564,-413.4995 85.8287,-409.4753"/>
</g>
<!-- Node24074 -->
<g id="node20" class="node">
<title>Node24074</title>
<g id="a_node20"><a xlink:href="quickjs_8c.html#acbb1daa9c97eac9594da8f4408e8fa5b" target="_top" xlink:title="js_typed_array_get\l_byteLength">
<polygon fill="none" stroke="#000000" points="206.5,-175 206.5,-205 305.5,-205 305.5,-175 206.5,-175"/>
<text text-anchor="start" x="214.5" y="-193" font-family="Helvetica,sans-Serif" font-size="10.00" fill="#000000">js_typed_array_get</text>
<text text-anchor="middle" x="256" y="-182" font-family="Helvetica,sans-Serif" font-size="10.00" fill="#000000">_byteLength</text>
</a>
</g>
</g>
<!-- Node23461&#45;&gt;Node24074 -->
<g id="edge23" class="edge">
<title>Node23461&#45;&gt;Node24074</title>
<path fill="none" stroke="#191970" d="M78.529,-409.9555C89.886,-364.342 120.1425,-267.5033 182,-214 188.9462,-207.9919 197.4235,-203.4822 206.1283,-200.0989"/>
<polygon fill="#191970" stroke="#191970" points="75.0753,-409.3498 76.1555,-419.8894 81.8837,-410.9766 75.0753,-409.3498"/>
</g>
<!-- Node24075 -->
<g id="node21" class="node">
<title>Node24075</title>
<g id="a_node21"><a xlink:href="quickjs_8c.html#a7797b02f56511eb67985f7d50493c2a5" target="_top" xlink:title="js_typed_array_get\l_byteOffset">
<polygon fill="none" stroke="#000000" points="206.5,-126 206.5,-156 305.5,-156 305.5,-126 206.5,-126"/>
<text text-anchor="start" x="214.5" y="-144" font-family="Helvetica,sans-Serif" font-size="10.00" fill="#000000">js_typed_array_get</text>
<text text-anchor="middle" x="256" y="-133" font-family="Helvetica,sans-Serif" font-size="10.00" fill="#000000">_byteOffset</text>
</a>
</g>
</g>
<!-- Node23461&#45;&gt;Node24075 -->
<g id="edge24" class="edge">
<title>Node23461&#45;&gt;Node24075</title>
<path fill="none" stroke="#191970" d="M76.0396,-409.7751C83.7611,-356.759 108.9912,-233.064 182,-165 188.8164,-158.6452 197.3343,-153.9726 206.1411,-150.5369"/>
<polygon fill="#191970" stroke="#191970" points="72.5327,-409.5882 74.6468,-419.97 79.4683,-410.5358 72.5327,-409.5882"/>
</g>
<!-- Node24076 -->
<g id="node23" class="node">
<title>Node24076</title>
<g id="a_node23"><a xlink:href="quickjs_8c.html#add71c7e0efcb1fd14572d39e2672971d" target="_top" xlink:title="js_typed_array_get\l_length_internal">
<polygon fill="none" stroke="#ff0000" points="206.5,-224 206.5,-254 305.5,-254 305.5,-224 206.5,-224"/>
<text text-anchor="start" x="214.5" y="-242" font-family="Helvetica,sans-Serif" font-size="10.00" fill="#000000">js_typed_array_get</text>
<text text-anchor="middle" x="256" y="-231" font-family="Helvetica,sans-Serif" font-size="10.00" fill="#000000">_length_internal</text>
</a>
</g>
</g>
<!-- Node23461&#45;&gt;Node24076 -->
<g id="edge26" class="edge">
<title>Node23461&#45;&gt;Node24076</title>
<path fill="none" stroke="#191970" d="M83.1705,-410.7922C99.2585,-375.1739 133.7754,-308.5966 182,-269 189.2855,-263.018 197.9218,-258.0972 206.6772,-254.096"/>
<polygon fill="#191970" stroke="#191970" points="79.9562,-409.407 79.1255,-419.9692 86.3616,-412.2304 79.9562,-409.407"/>
</g>
<!-- Node23615 -->
<g id="node28" class="node">
<title>Node23615</title>
<g id="a_node28"><a xlink:href="quickjs_8c.html#a28f4d08e4321e751cebe37ea7259fe3c" target="_top" xlink:title="js_typed_array_set\l_internal">
<polygon fill="none" stroke="#ff0000" points="206.5,-77 206.5,-107 305.5,-107 305.5,-77 206.5,-77"/>
<text text-anchor="start" x="214.5" y="-95" font-family="Helvetica,sans-Serif" font-size="10.00" fill="#000000">js_typed_array_set</text>
<text text-anchor="middle" x="256" y="-84" font-family="Helvetica,sans-Serif" font-size="10.00" fill="#000000">_internal</text>
</a>
</g>
</g>
<!-- Node23461&#45;&gt;Node23615 -->
<g id="edge33" class="edge">
<title>Node23461&#45;&gt;Node23615</title>
<path fill="none" stroke="#191970" d="M74.2324,-409.8344C78.5169,-350.2062 97.5857,-199.1047 182,-116 188.7372,-109.3673 197.3228,-104.5675 206.2423,-101.094"/>
<polygon fill="#191970" stroke="#191970" points="70.7362,-409.6641 73.592,-419.8668 77.722,-410.1101 70.7362,-409.6641"/>
</g>
<!-- Node24078 -->
<g id="node29" class="node">
<title>Node24078</title>
<g id="a_node29"><a xlink:href="quickjs_8c.html#aa1abbd3f9bc2fb523e3ff45f58fe42ab" target="_top" xlink:title="JS_WriteArrayBuffer">
<polygon fill="none" stroke="#ff0000" points="202.5,-38.5 202.5,-57.5 309.5,-57.5 309.5,-38.5 202.5,-38.5"/>
<text text-anchor="middle" x="256" y="-45.5" font-family="Helvetica,sans-Serif" font-size="10.00" fill="#000000">JS_WriteArrayBuffer</text>
</a>
</g>
</g>
<!-- Node23461&#45;&gt;Node24078 -->
<g id="edge34" class="edge">
<title>Node23461&#45;&gt;Node24078</title>
<path fill="none" stroke="#191970" d="M77.12,-410.0395C89.9278,-335.3785 131.2477,-115.9262 182,-67 187.7295,-61.4766 194.8383,-57.4986 202.365,-54.645"/>
<polygon fill="#191970" stroke="#191970" points="73.6578,-409.523 75.4395,-419.967 80.5596,-410.6914 73.6578,-409.523"/>
</g>
<!-- Node24079 -->
<g id="node30" class="node">
<title>Node24079</title>
<g id="a_node30"><a xlink:href="quickjs_8c.html#a997c03968a234b51305ddb93c80a4b97" target="_top" xlink:title="validate_typed_array">
<polygon fill="none" stroke="#ff0000" points="202.5,-.5 202.5,-19.5 309.5,-19.5 309.5,-.5 202.5,-.5"/>
<text text-anchor="middle" x="256" y="-7.5" font-family="Helvetica,sans-Serif" font-size="10.00" fill="#000000">validate_typed_array</text>
</a>
</g>
</g>
<!-- Node23461&#45;&gt;Node24079 -->
<g id="edge35" class="edge">
<title>Node23461&#45;&gt;Node24079</title>
<path fill="none" stroke="#191970" d="M76.4415,-409.6307C87.8104,-329.4839 126.6197,-83.7766 182,-29 187.6582,-23.4035 194.729,-19.3867 202.2395,-16.5165"/>
<polygon fill="#191970" stroke="#191970" points="72.9376,-409.4159 75.0206,-419.8039 79.8703,-410.3842 72.9376,-409.4159"/>
</g>
<!-- Node23464 -->
<g id="node4" class="node">
<title>Node23464</title>
<g id="a_node4"><a xlink:href="quickjs_8c.html#a43208b0746998d2b6b9b8bd1ef8b5f99" target="_top" xlink:title="js_append_enumerate">
<polygon fill="none" stroke="#ff0000" points="377,-767.5 377,-786.5 489,-786.5 489,-767.5 377,-767.5"/>
<text text-anchor="middle" x="433" y="-774.5" font-family="Helvetica,sans-Serif" font-size="10.00" fill="#000000">js_append_enumerate</text>
</a>
</g>
</g>
<!-- Node23463&#45;&gt;Node23464 -->
<g id="edge3" class="edge">
<title>Node23463&#45;&gt;Node23464</title>
<path fill="none" stroke="#191970" d="M321.2793,-777C339.4989,-777 359.1314,-777 376.7795,-777"/>
<polygon fill="#191970" stroke="#191970" points="321.0337,-773.5001 311.0337,-777 321.0336,-780.5001 321.0337,-773.5001"/>
</g>
<!-- Node23935&#45;&gt;Node23936 -->
<g id="edge5" class="edge">
<title>Node23935&#45;&gt;Node23936</title>
<path fill="none" stroke="#191970" d="M295.2995,-675.6558C327.9272,-686.163 373.6325,-700.8816 403.2775,-710.4284"/>
<polygon fill="#191970" stroke="#191970" points="296.2173,-672.2744 285.6258,-672.5405 294.0715,-678.9374 296.2173,-672.2744"/>
</g>
<!-- Node23935&#45;&gt;Node23909 -->
<g id="edge6" class="edge">
<title>Node23935&#45;&gt;Node23909</title>
<path fill="none" stroke="#191970" d="M315.9043,-666.046C339.2134,-667.2312 365.4877,-668.5672 387.2329,-669.6729"/>
<polygon fill="#191970" stroke="#191970" points="315.9403,-662.5434 305.7754,-665.531 315.5847,-669.5343 315.9403,-662.5434"/>
</g>
<!-- Node23935&#45;&gt;Node23924 -->
<g id="edge7" class="edge">
<title>Node23935&#45;&gt;Node23924</title>
<path fill="none" stroke="#191970" d="M315.7802,-651.5168C338.7991,-647.0951 364.7256,-642.1149 386.3317,-637.9645"/>
<polygon fill="#191970" stroke="#191970" points="314.9356,-648.115 305.7754,-653.4386 316.2561,-654.9893 314.9356,-648.115"/>
</g>
<!-- Node23928 -->
<g id="node13" class="node">
<title>Node23928</title>
<g id="a_node13"><a xlink:href="quickjs-libc_8c.html#a075659fd6c4054c89c99093d1bcb4d37" target="_top" xlink:title="js_std_file_read_write">
<polygon fill="none" stroke="#000000" points="377.5,-482.5 377.5,-501.5 488.5,-501.5 488.5,-482.5 377.5,-482.5"/>
<text text-anchor="middle" x="433" y="-489.5" font-family="Helvetica,sans-Serif" font-size="10.00" fill="#000000">js_std_file_read_write</text>
</a>
</g>
</g>
<!-- Node24072&#45;&gt;Node23928 -->
<g id="edge15" class="edge">
<title>Node24072&#45;&gt;Node23928</title>
<path fill="none" stroke="#191970" d="M315.947,-479.435C335.8199,-481.5682 357.8441,-483.9324 377.3775,-486.0292"/>
<polygon fill="#191970" stroke="#191970" points="316.0919,-475.9305 305.7754,-478.3431 315.3447,-482.8905 316.0919,-475.9305"/>
</g>
<!-- Node23930 -->
<g id="node14" class="node">
<title>Node23930</title>
<g id="a_node14"><a xlink:href="quickjs-libc_8c.html#a70dbcae0637863811297360f2773c3ba" target="_top" xlink:title="js_os_read_write">
<polygon fill="none" stroke="#000000" points="388,-444.5 388,-463.5 478,-463.5 478,-444.5 388,-444.5"/>
<text text-anchor="middle" x="433" y="-451.5" font-family="Helvetica,sans-Serif" font-size="10.00" fill="#000000">js_os_read_write</text>
</a>
</g>
</g>
<!-- Node24072&#45;&gt;Node23930 -->
<g id="edge16" class="edge">
<title>Node24072&#45;&gt;Node23930</title>
<path fill="none" stroke="#191970" d="M315.9871,-466.5607C339.4898,-464.0378 365.9962,-461.1925 387.8309,-458.8487"/>
<polygon fill="#191970" stroke="#191970" points="315.3447,-463.1095 305.7754,-467.6569 316.0919,-470.0695 315.3447,-463.1095"/>
</g>
<!-- Node23617&#45;&gt;Node23504 -->
<g id="edge20" class="edge">
<title>Node23617&#45;&gt;Node23504</title>
<path fill="none" stroke="#191970" d="M340.0943,-387.9729C348.6989,-387.0493 357.3592,-386.1196 365.7487,-385.2191"/>
<polygon fill="#191970" stroke="#191970" points="339.6077,-384.505 330.0384,-389.0524 340.3548,-391.465 339.6077,-384.505"/>
</g>
<!-- Node23519 -->
<g id="node22" class="node">
<title>Node23519</title>
<g id="a_node22"><a xlink:href="quickjs_8c.html#a355310420e303302c981eb7c73a222fb" target="_top" xlink:title="js_typed_array_subarray">
<polygon fill="none" stroke="#000000" points="371.5,-83.5 371.5,-102.5 494.5,-102.5 494.5,-83.5 371.5,-83.5"/>
<text text-anchor="middle" x="433" y="-90.5" font-family="Helvetica,sans-Serif" font-size="10.00" fill="#000000">js_typed_array_subarray</text>
</a>
</g>
</g>
<!-- Node24075&#45;&gt;Node23519 -->
<g id="edge25" class="edge">
<title>Node24075&#45;&gt;Node23519</title>
<path fill="none" stroke="#191970" d="M315.636,-124.8275C342.968,-117.4155 374.4247,-108.8848 397.8875,-102.522"/>
<polygon fill="#191970" stroke="#191970" points="314.5107,-121.5062 305.7754,-127.5016 316.3429,-128.2622 314.5107,-121.5062"/>
</g>
<!-- Node24076&#45;&gt;Node23923 -->
<g id="edge30" class="edge">
<title>Node24076&#45;&gt;Node23923</title>
<path fill="none" stroke="#191970" d="M287.4289,-259.7519C308.8755,-273.2132 338.3103,-290.3509 366,-302 374.5813,-305.6102 384.0618,-308.7675 393.1244,-311.4178"/>
<polygon fill="#191970" stroke="#191970" points="289.0711,-256.6485 278.7549,-254.2346 285.3141,-262.5549 289.0711,-256.6485"/>
</g>
<!-- Node24076&#45;&gt;Node23890 -->
<g id="edge31" class="edge">
<title>Node24076&#45;&gt;Node23890</title>
<path fill="none" stroke="#191970" d="M315.5596,-253.8058C341.6266,-260.2857 371.4576,-267.7013 394.5314,-273.4372"/>
<polygon fill="#191970" stroke="#191970" points="316.3244,-250.3894 305.7754,-251.3735 314.6357,-257.1827 316.3244,-250.3894"/>
</g>
<!-- Node23517 -->
<g id="node24" class="node">
<title>Node23517</title>
<g id="a_node24"><a xlink:href="quickjs_8c.html#aa0bbf08a7e91459c68a312fba7016c6d" target="_top" xlink:title="js_array_every">
<polygon fill="none" stroke="#000000" points="393,-159.5 393,-178.5 473,-178.5 473,-159.5 393,-159.5"/>
<text text-anchor="middle" x="433" y="-166.5" font-family="Helvetica,sans-Serif" font-size="10.00" fill="#000000">js_array_every</text>
</a>
</g>
</g>
<!-- Node24076&#45;&gt;Node23517 -->
<g id="edge27" class="edge">
<title>Node24076&#45;&gt;Node23517</title>
<path fill="none" stroke="#191970" d="M315.4743,-220.6855C320.4677,-218.615 325.3719,-216.3839 330,-214 347.5458,-204.9625 348.2361,-196.6008 366,-188 374.3793,-183.943 383.7794,-180.6076 392.8281,-177.9268"/>
<polygon fill="#191970" stroke="#191970" points="313.8475,-217.5636 305.8108,-224.4674 316.3987,-224.0822 313.8475,-217.5636"/>
</g>
<!-- Node23541 -->
<g id="node25" class="node">
<title>Node23541</title>
<g id="a_node25"><a xlink:href="quickjs_8c.html#a36c1692489542a86dd79a7d39ab8ff95" target="_top" xlink:title="js_array_reduce">
<polygon fill="none" stroke="#000000" points="390,-121.5 390,-140.5 476,-140.5 476,-121.5 390,-121.5"/>
<text text-anchor="middle" x="433" y="-128.5" font-family="Helvetica,sans-Serif" font-size="10.00" fill="#000000">js_array_reduce</text>
</a>
</g>
</g>
<!-- Node24076&#45;&gt;Node23541 -->
<g id="edge28" class="edge">
<title>Node24076&#45;&gt;Node23541</title>
<path fill="none" stroke="#191970" d="M314.9052,-223.7133C320.3089,-220.9805 325.4519,-217.7698 330,-214 355.1264,-193.1733 340.3662,-170.1989 366,-150 372.9325,-144.5373 381.3594,-140.6451 389.8647,-137.8719"/>
<polygon fill="#191970" stroke="#191970" points="313.3162,-220.59 305.6238,-227.8754 316.1805,-226.9771 313.3162,-220.59"/>
</g>
<!-- Node23579 -->
<g id="node26" class="node">
<title>Node23579</title>
<g id="a_node26"><a xlink:href="quickjs_8c.html#a8c18ce4b7a8c97ab520d4d37a1c6fc72" target="_top" xlink:title="js_typed_array_create">
<polygon fill="none" stroke="#ff0000" points="376.5,-235.5 376.5,-254.5 489.5,-254.5 489.5,-235.5 376.5,-235.5"/>
<text text-anchor="middle" x="433" y="-242.5" font-family="Helvetica,sans-Serif" font-size="10.00" fill="#000000">js_typed_array_create</text>
</a>
</g>
</g>
<!-- Node24076&#45;&gt;Node23579 -->
<g id="edge29" class="edge">
<title>Node24076&#45;&gt;Node23579</title>
<path fill="none" stroke="#191970" d="M315.804,-241.0273C335.3932,-241.6913 357.0858,-242.4266 376.4286,-243.0823"/>
<polygon fill="#191970" stroke="#191970" points="315.8883,-237.5282 305.7754,-240.6873 315.651,-244.5242 315.8883,-237.5282"/>
</g>
<!-- Node23569 -->
<g id="node27" class="node">
<title>Node23569</title>
<g id="a_node27"><a xlink:href="quickjs_8c.html#a0b8ae7efe63abc1be33d9e828d43ce8d" target="_top" xlink:title="js_typed_array_find">
<polygon fill="none" stroke="#000000" points="382.5,-197.5 382.5,-216.5 483.5,-216.5 483.5,-197.5 382.5,-197.5"/>
<text text-anchor="middle" x="433" y="-204.5" font-family="Helvetica,sans-Serif" font-size="10.00" fill="#000000">js_typed_array_find</text>
</a>
</g>
</g>
<!-- Node24076&#45;&gt;Node23569 -->
<g id="edge32" class="edge">
<title>Node24076&#45;&gt;Node23569</title>
<path fill="none" stroke="#191970" d="M315.8291,-228.1834C337.4448,-224.2755 361.6189,-219.9051 382.3696,-216.1535"/>
<polygon fill="#191970" stroke="#191970" points="314.9932,-224.7777 305.7754,-230.0011 316.2386,-231.6661 314.9932,-224.7777"/>
</g>
</g>
</svg>
        <g id="navigator" transform="translate(0 0)" fill="#404254">
                <rect fill="#f2f5e9" fill-opacity="0.5" stroke="#606060" stroke-width=".5" x="0" y="0" width="60" height="60"/>
                <use id="zoomplus" xlink:href="#zoomPlus" x="17" y="9" onmousedown="handleZoom(evt,'in')"/>
                <use id="zoomminus" xlink:href="#zoomMin" x="42" y="9" onmousedown="handleZoom(evt,'out')"/>
                <use id="reset" xlink:href="#resetDef" x="30" y="36" onmousedown="handleReset()"/>
                <g id="arrowUp" xlink:href="#dirArrow" transform="translate(30 24)" onmousedown="handlePan(0,-1)">
                  <use xlink:href="#rim" fill="#404040">
                        <set attributeName="fill" to="#808080" begin="arrowUp.mouseover" end="arrowUp.mouseout"/>
                  </use>
                  <path fill="none" stroke="white" stroke-width="1.5" d="M0,-3.0v7 M-2.5,-0.5L0,-3.0L2.5,-0.5"/>
                </g>
                <g id="arrowRight" xlink:href="#dirArrow" transform="rotate(90) translate(36 -43)" onmousedown="handlePan(1,0)">
                  <use xlink:href="#rim" fill="#404040">
                        <set attributeName="fill" to="#808080" begin="arrowRight.mouseover" end="arrowRight.mouseout"/>
                  </use>
                  <path fill="none" stroke="white" stroke-width="1.5" d="M0,-3.0v7 M-2.5,-0.5L0,-3.0L2.5,-0.5"/>
                </g>
                <g id="arrowDown" xlink:href="#dirArrow" transform="rotate(180) translate(-30 -48)" onmousedown="handlePan(0,1)">
                  <use xlink:href="#rim" fill="#404040">
                        <set attributeName="fill" to="#808080" begin="arrowDown.mouseover" end="arrowDown.mouseout"/>
                  </use>
                  <path fill="none" stroke="white" stroke-width="1.5" d="M0,-3.0v7 M-2.5,-0.5L0,-3.0L2.5,-0.5"/>
                </g>
                <g id="arrowLeft" xlink:href="#dirArrow" transform="rotate(270) translate(-36 17)" onmousedown="handlePan(-1,0)">
                  <use xlink:href="#rim" fill="#404040">
                        <set attributeName="fill" to="#808080" begin="arrowLeft.mouseover" end="arrowLeft.mouseout"/>
                  </use>
                  <path fill="none" stroke="white" stroke-width="1.5" d="M0,-3.0v7 M-2.5,-0.5L0,-3.0L2.5,-0.5"/>
                </g>
        </g>
        <svg viewBox="0 0 15 15" width="100%" height="30px" preserveAspectRatio="xMaxYMin meet">
         <g id="arrow_out" transform="scale(0.3 0.3)">
          <a xlink:href="quickjs_8c_a033dd3ebd29c4eb9f0baff1dd0fec0b1_icgraph_org.svg" target="_base">
           <rect id="button" ry="5" rx="5" y="6" x="6" height="38" width="38"
                fill="#f2f5e9" fill-opacity="0.5" stroke="#606060" stroke-width="1.0"/>
           <path id="arrow"
             d="M 11.500037,31.436501 C 11.940474,20.09759 22.043105,11.32322 32.158766,21.979434 L 37.068811,17.246167 C 37.068811,17.246167 37.088388,32 37.088388,32 L 22.160133,31.978069 C 22.160133,31.978069 26.997745,27.140456 26.997745,27.140456 C 18.528582,18.264221 13.291696,25.230495 11.500037,31.436501 z"
             style="fill:#404040;"/>
          </a>
         </g>
        </svg>
</svg>
