<?xml version="1.0" encoding="UTF-8" standalone="no"?>
<!DOCTYPE svg PUBLIC "-//W3C//DTD SVG 1.1//EN"
 "http://www.w3.org/Graphics/SVG/1.1/DTD/svg11.dtd">
<!-- Generated by graphviz version 2.40.1 (20161225.0304)
 -->
<!-- Title: js_obj_to_desc Pages: 1 -->
<!--zoomable 825 -->
<svg id="main" version="1.1" xmlns="http://www.w3.org/2000/svg" xmlns:xlink="http://www.w3.org/1999/xlink" xml:space="preserve" onload="init(evt)">
<style type="text/css"><![CDATA[
.edge:hover path { stroke: red; }
.edge:hover polygon { stroke: red; fill: red; }
]]></style>
<script type="text/javascript"><![CDATA[
var edges = document.getElementsByTagName('g');
if (edges && edges.length) {
  for (var i=0;i<edges.length;i++) {
    if (edges[i].id.substr(0,4)=='edge') {
      edges[i].setAttribute('class','edge');
    }
  }
}
]]></script>
        <defs>
                <circle id="rim" cx="0" cy="0" r="7"/>
                <circle id="rim2" cx="0" cy="0" r="3.5"/>
                <g id="zoomPlus">
                        <use xlink:href="#rim" fill="#404040">
                                <set attributeName="fill" to="#808080" begin="zoomplus.mouseover" end="zoomplus.mouseout"/>
                        </use>
                        <path d="M-4,0h8M0,-4v8" fill="none" stroke="white" stroke-width="1.5" pointer-events="none"/>
                </g>
                <g id="zoomMin">
                        <use xlink:href="#rim" fill="#404040">
                                <set attributeName="fill" to="#808080" begin="zoomminus.mouseover" end="zoomminus.mouseout"/>
                        </use>
                        <path d="M-4,0h8" fill="none" stroke="white" stroke-width="1.5" pointer-events="none"/>
                </g>
                <g id="dirArrow">
                        <path fill="none" stroke="white" stroke-width="1.5" d="M0,-3.0v7 M-2.5,-0.5L0,-3.0L2.5,-0.5"/>
                </g>
               <g id="resetDef">
                       <use xlink:href="#rim2" fill="#404040">
                               <set attributeName="fill" to="#808080" begin="reset.mouseover" end="reset.mouseout"/>
                       </use>
               </g>
        </defs>

<script type="text/javascript">
var viewWidth = 1042;
var viewHeight = 825;
var sectionId = 'dynsection-1407';
</script>
<script xlink:href="svgpan.js"/>
<svg id="graph" class="graph">
<g id="viewport">
<title>js_obj_to_desc</title>
<!-- Node376255 -->
<g id="node1" class="node">
<title>Node376255</title>
<polygon fill="#bfbfbf" stroke="#000000" points="0,-161.5 0,-180.5 82,-180.5 82,-161.5 0,-161.5"/>
<text text-anchor="middle" x="41" y="-168.5" font-family="Helvetica,sans-Serif" font-size="10.00" fill="#000000">js_obj_to_desc</text>
</g>
<!-- Node376256 -->
<g id="node2" class="node">
<title>Node376256</title>
<g id="a_node2"><a xlink:href="quickjs_8h.html#afaa20c47565bc704c6c85f3d77254e7d" target="_top" xlink:title="JS_FreeValue">
<polygon fill="none" stroke="#000000" points="689,-705.5 689,-724.5 767,-724.5 767,-705.5 689,-705.5"/>
<text text-anchor="middle" x="728" y="-712.5" font-family="Helvetica,sans-Serif" font-size="10.00" fill="#000000">JS_FreeValue</text>
</a>
</g>
</g>
<!-- Node376255&#45;&gt;Node376256 -->
<g id="edge1" class="edge">
<title>Node376255&#45;&gt;Node376256</title>
<path fill="none" stroke="#191970" d="M42.0192,-180.5423C47.8391,-233.8585 78.0195,-494.959 118,-564 175.7859,-663.7886 214.3754,-675.9318 314,-734 444.3551,-809.9801 508.6785,-844.4556 649,-789 677.2776,-777.8246 701.3676,-751.2162 715.2679,-733.1466"/>
<polygon fill="#191970" stroke="#191970" points="718.452,-734.7265 721.5762,-724.6028 712.8207,-730.5686 718.452,-734.7265"/>
</g>
<!-- Node376294 -->
<g id="node5" class="node">
<title>Node376294</title>
<g id="a_node5"><a xlink:href="quickjs_8h.html#a89b7c8686c7eee70b86be722ee4730ad" target="_top" xlink:title="JS_GetProperty">
<polygon fill="none" stroke="#000000" points="155,-319.5 155,-338.5 241,-338.5 241,-319.5 155,-319.5"/>
<text text-anchor="middle" x="198" y="-326.5" font-family="Helvetica,sans-Serif" font-size="10.00" fill="#000000">JS_GetProperty</text>
</a>
</g>
</g>
<!-- Node376255&#45;&gt;Node376294 -->
<g id="edge4" class="edge">
<title>Node376255&#45;&gt;Node376294</title>
<path fill="none" stroke="#191970" d="M50.8211,-180.8836C76.9235,-207.1523 148.2631,-278.9463 181.0767,-311.969"/>
<polygon fill="#191970" stroke="#191970" points="178.6513,-314.4936 188.1827,-319.1201 183.6168,-309.5596 178.6513,-314.4936"/>
</g>
<!-- Node376303 -->
<g id="node11" class="node">
<title>Node376303</title>
<g id="a_node11"><a xlink:href="quickjs_8h.html#ad80a83d73e9b7d872b88fbf2943aebe9" target="_top" xlink:title="JS_IsException">
<polygon fill="none" stroke="#000000" points="685,-123.5 685,-142.5 771,-142.5 771,-123.5 685,-123.5"/>
<text text-anchor="middle" x="728" y="-130.5" font-family="Helvetica,sans-Serif" font-size="10.00" fill="#000000">JS_IsException</text>
</a>
</g>
</g>
<!-- Node376255&#45;&gt;Node376303 -->
<g id="edge30" class="edge">
<title>Node376255&#45;&gt;Node376303</title>
<path fill="none" stroke="#191970" d="M80.9083,-161.4239C178.1963,-139.3495 435.2795,-88.6607 649,-114 661.2572,-115.4533 674.3647,-118.1327 686.3092,-121.0305"/>
<polygon fill="#191970" stroke="#191970" points="685.4714,-124.4287 696.0249,-123.4937 687.1917,-117.6434 685.4714,-124.4287"/>
</g>
<!-- Node376462 -->
<g id="node12" class="node">
<title>Node376462</title>
<g id="a_node12"><a xlink:href="quickjs_8h.html#a4e407128a9605afb77523e49e9a627fd" target="_top" xlink:title="JS_IsUndefined">
<polygon fill="none" stroke="#000000" points="685,-376.5 685,-395.5 771,-395.5 771,-376.5 685,-376.5"/>
<text text-anchor="middle" x="728" y="-383.5" font-family="Helvetica,sans-Serif" font-size="10.00" fill="#000000">JS_IsUndefined</text>
</a>
</g>
</g>
<!-- Node376255&#45;&gt;Node376462 -->
<g id="edge33" class="edge">
<title>Node376255&#45;&gt;Node376462</title>
<path fill="none" stroke="#191970" d="M82.3399,-169.7164C211.689,-166.0522 602.8345,-157.7721 649,-190 708.3946,-231.4631 723.1643,-325.5532 726.8135,-366.4315"/>
<polygon fill="#191970" stroke="#191970" points="723.328,-366.7562 727.5758,-376.4623 730.3079,-366.2258 723.328,-366.7562"/>
</g>
<!-- Node376553 -->
<g id="node23" class="node">
<title>Node376553</title>
<g id="a_node23"><a xlink:href="quickjs_8c.html#a9d6d0a9704951d01c128975e0d2213f8" target="_top" xlink:title="JS_HasProperty">
<polygon fill="none" stroke="#ff0000" points="329,-629.5 329,-648.5 418,-648.5 418,-629.5 329,-629.5"/>
<text text-anchor="middle" x="373.5" y="-636.5" font-family="Helvetica,sans-Serif" font-size="10.00" fill="#000000">JS_HasProperty</text>
</a>
</g>
</g>
<!-- Node376255&#45;&gt;Node376553 -->
<g id="edge26" class="edge">
<title>Node376255&#45;&gt;Node376553</title>
<path fill="none" stroke="#191970" d="M44.0387,-180.7276C52.8993,-208.3117 80.475,-288.8629 118,-348 191.5853,-463.9658 310.429,-580.1576 355.4416,-622.3692"/>
<polygon fill="#191970" stroke="#191970" points="353.2571,-625.1177 362.9597,-629.3734 358.0287,-619.9959 353.2571,-625.1177"/>
</g>
<!-- Node376464 -->
<g id="node24" class="node">
<title>Node376464</title>
<g id="a_node24"><a xlink:href="quickjs_8c.html#a1ca9cdb1fa2ffc3e6506e92b200e490f" target="_top" xlink:title="JS_IsFunction">
<polygon fill="none" stroke="#000000" points="158,-76.5 158,-95.5 238,-95.5 238,-76.5 158,-76.5"/>
<text text-anchor="middle" x="198" y="-83.5" font-family="Helvetica,sans-Serif" font-size="10.00" fill="#000000">JS_IsFunction</text>
</a>
</g>
</g>
<!-- Node376255&#45;&gt;Node376464 -->
<g id="edge31" class="edge">
<title>Node376255&#45;&gt;Node376464</title>
<path fill="none" stroke="#191970" d="M50.5924,-161.3716C64.3713,-148.0451 91.0834,-124.0375 118,-110 127.3535,-105.122 137.8515,-101.0782 148.0881,-97.7885"/>
<polygon fill="#191970" stroke="#191970" points="149.2154,-101.1043 157.7766,-94.8629 147.1918,-94.4032 149.2154,-101.1043"/>
</g>
<!-- Node376534 -->
<g id="node25" class="node">
<title>Node376534</title>
<g id="a_node25"><a xlink:href="quickjs_8h.html#a3d68fe446df2d9c7d1900b16371bff5b" target="_top" xlink:title="JS_IsObject">
<polygon fill="none" stroke="#000000" points="162.5,-38.5 162.5,-57.5 233.5,-57.5 233.5,-38.5 162.5,-38.5"/>
<text text-anchor="middle" x="198" y="-45.5" font-family="Helvetica,sans-Serif" font-size="10.00" fill="#000000">JS_IsObject</text>
</a>
</g>
</g>
<!-- Node376255&#45;&gt;Node376534 -->
<g id="edge32" class="edge">
<title>Node376255&#45;&gt;Node376534</title>
<path fill="none" stroke="#191970" d="M45.2025,-161.4907C54.8554,-140.8091 80.6862,-91.6247 118,-67 128.2391,-60.2428 140.619,-55.8812 152.5486,-53.0683"/>
<polygon fill="#191970" stroke="#191970" points="153.3113,-56.4849 162.4066,-51.0511 151.9079,-49.627 153.3113,-56.4849"/>
</g>
<!-- Node376491 -->
<g id="node26" class="node">
<title>Node376491</title>
<g id="a_node26"><a xlink:href="quickjs_8c.html#a726b00d108e0a0f4d958c36c2e426a64" target="_top" xlink:title="JS_ThrowTypeErrorNotAnObject">
<polygon fill="none" stroke="#000000" points="118,-.5 118,-19.5 278,-19.5 278,-.5 118,-.5"/>
<text text-anchor="middle" x="198" y="-7.5" font-family="Helvetica,sans-Serif" font-size="10.00" fill="#000000">JS_ThrowTypeErrorNotAnObject</text>
</a>
</g>
</g>
<!-- Node376255&#45;&gt;Node376491 -->
<g id="edge34" class="edge">
<title>Node376255&#45;&gt;Node376491</title>
<path fill="none" stroke="#191970" d="M43.3175,-161.2637C50.0123,-135.3546 71.9115,-64.2955 118,-29 120.3375,-27.2099 122.8177,-25.5848 125.4023,-24.11"/>
<polygon fill="#191970" stroke="#191970" points="127.0852,-27.1833 134.5371,-19.6521 124.0151,-20.8925 127.0852,-27.1833"/>
</g>
<!-- Node376463 -->
<g id="node27" class="node">
<title>Node376463</title>
<g id="a_node27"><a xlink:href="quickjs_8c.html#a2bf30c9cddfe98a32535843202495069" target="_top" xlink:title="JS_ToBoolFree">
<polygon fill="none" stroke="#000000" points="331.5,-705.5 331.5,-724.5 415.5,-724.5 415.5,-705.5 331.5,-705.5"/>
<text text-anchor="middle" x="373.5" y="-712.5" font-family="Helvetica,sans-Serif" font-size="10.00" fill="#000000">JS_ToBoolFree</text>
</a>
</g>
</g>
<!-- Node376255&#45;&gt;Node376463 -->
<g id="edge35" class="edge">
<title>Node376255&#45;&gt;Node376463</title>
<path fill="none" stroke="#191970" d="M41.7862,-180.6203C45.2345,-218.506 61.4702,-360.1602 118,-459 180.4938,-568.2676 301.7836,-663.3842 351.4673,-699.5107"/>
<polygon fill="#191970" stroke="#191970" points="349.452,-702.3725 359.6138,-705.3703 353.5394,-696.6897 349.452,-702.3725"/>
</g>
<!-- Node376257 -->
<g id="node3" class="node">
<title>Node376257</title>
<g id="a_node3"><a xlink:href="quickjs_8c.html#aa059f309c30fd5166d16c82a97973146" target="_top" xlink:title="__JS_FreeValue">
<polygon fill="none" stroke="#000000" points="807,-705.5 807,-724.5 896,-724.5 896,-705.5 807,-705.5"/>
<text text-anchor="middle" x="851.5" y="-712.5" font-family="Helvetica,sans-Serif" font-size="10.00" fill="#000000">__JS_FreeValue</text>
</a>
</g>
</g>
<!-- Node376256&#45;&gt;Node376257 -->
<g id="edge2" class="edge">
<title>Node376256&#45;&gt;Node376257</title>
<path fill="none" stroke="#191970" d="M767.0762,-715C776.412,-715 786.5507,-715 796.4566,-715"/>
<polygon fill="#191970" stroke="#191970" points="796.6517,-718.5001 806.6517,-715 796.6517,-711.5001 796.6517,-718.5001"/>
</g>
<!-- Node376258 -->
<g id="node4" class="node">
<title>Node376258</title>
<g id="a_node4"><a xlink:href="quickjs_8c.html#ab1ea3fad7d138be12144a38be4d36423" target="_top" xlink:title="__JS_FreeValueRT">
<polygon fill="none" stroke="#ff0000" points="932,-705.5 932,-724.5 1034,-724.5 1034,-705.5 932,-705.5"/>
<text text-anchor="middle" x="983" y="-712.5" font-family="Helvetica,sans-Serif" font-size="10.00" fill="#000000">__JS_FreeValueRT</text>
</a>
</g>
</g>
<!-- Node376257&#45;&gt;Node376258 -->
<g id="edge3" class="edge">
<title>Node376257&#45;&gt;Node376258</title>
<path fill="none" stroke="#191970" d="M896.0199,-715C904.2672,-715 913.0138,-715 921.6583,-715"/>
<polygon fill="#191970" stroke="#191970" points="921.7233,-718.5001 931.7233,-715 921.7232,-711.5001 921.7233,-718.5001"/>
</g>
<!-- Node376295 -->
<g id="node6" class="node">
<title>Node376295</title>
<g id="a_node6"><a xlink:href="quickjs_8c.html#a5762c57ae0c9937e986040c01222833a" target="_top" xlink:title="JS_GetPropertyInternal">
<polygon fill="none" stroke="#000000" points="314,-420.5 314,-439.5 433,-439.5 433,-420.5 314,-420.5"/>
<text text-anchor="middle" x="373.5" y="-427.5" font-family="Helvetica,sans-Serif" font-size="10.00" fill="#000000">JS_GetPropertyInternal</text>
</a>
</g>
</g>
<!-- Node376294&#45;&gt;Node376295 -->
<g id="edge5" class="edge">
<title>Node376294&#45;&gt;Node376295</title>
<path fill="none" stroke="#191970" d="M214.5106,-338.5018C245.2156,-356.1725 311.2942,-394.2006 347.8569,-415.2424"/>
<polygon fill="#191970" stroke="#191970" points="346.4924,-418.4954 356.9054,-420.4498 349.984,-412.4283 346.4924,-418.4954"/>
</g>
<!-- Node376295&#45;&gt;Node376256 -->
<g id="edge18" class="edge">
<title>Node376295&#45;&gt;Node376256</title>
<path fill="none" stroke="#191970" d="M374.4228,-439.638C378.3459,-474.9609 396.911,-598.3693 469,-658 532.0025,-710.1145 569.244,-677.9941 649,-696 658.804,-698.2134 669.2703,-700.6665 679.2706,-703.0544"/>
<polygon fill="#191970" stroke="#191970" points="678.533,-706.4767 689.074,-705.4093 680.1681,-699.6704 678.533,-706.4767"/>
</g>
<!-- Node376296 -->
<g id="node7" class="node">
<title>Node376296</title>
<g id="a_node7"><a xlink:href="quickjs_8c.html#a288254c06a39c9fca740a7abdad2834e" target="_top" xlink:title="__JS_AtomIsTaggedInt">
<polygon fill="none" stroke="#000000" points="499.5,-199.5 499.5,-218.5 618.5,-218.5 618.5,-199.5 499.5,-199.5"/>
<text text-anchor="middle" x="559" y="-206.5" font-family="Helvetica,sans-Serif" font-size="10.00" fill="#000000">__JS_AtomIsTaggedInt</text>
</a>
</g>
</g>
<!-- Node376295&#45;&gt;Node376296 -->
<g id="edge6" class="edge">
<title>Node376295&#45;&gt;Node376296</title>
<path fill="none" stroke="#191970" d="M375.0282,-420.094C380.6779,-387.0384 403.5566,-279.7001 469,-228 475.1676,-223.1276 482.2903,-219.4265 489.773,-216.6263"/>
<polygon fill="#191970" stroke="#191970" points="490.9444,-219.9263 499.3988,-213.5409 488.8077,-213.2604 490.9444,-219.9263"/>
</g>
<!-- Node376297 -->
<g id="node8" class="node">
<title>Node376297</title>
<g id="a_node8"><a xlink:href="quickjs_8c.html#a89f38938cee8077ce1fbba07946ed185" target="_top" xlink:title="__JS_AtomToUInt32">
<polygon fill="none" stroke="#000000" points="505,-553.5 505,-572.5 613,-572.5 613,-553.5 505,-553.5"/>
<text text-anchor="middle" x="559" y="-560.5" font-family="Helvetica,sans-Serif" font-size="10.00" fill="#000000">__JS_AtomToUInt32</text>
</a>
</g>
</g>
<!-- Node376295&#45;&gt;Node376297 -->
<g id="edge7" class="edge">
<title>Node376295&#45;&gt;Node376297</title>
<path fill="none" stroke="#191970" d="M378.6693,-439.8256C391.01,-462.2431 424.5093,-517.2846 469,-544 476.9428,-548.7694 485.9078,-552.3529 495.0237,-555.0431"/>
<polygon fill="#191970" stroke="#191970" points="494.3741,-558.4906 504.9335,-557.6254 496.1393,-551.7168 494.3741,-558.4906"/>
</g>
<!-- Node376298 -->
<g id="node9" class="node">
<title>Node376298</title>
<g id="a_node9"><a xlink:href="quickjs_8c.html#a06b76f5124fd985e35f4c652fd018d6d" target="_top" xlink:title="find_own_property">
<polygon fill="none" stroke="#ff0000" points="511,-515.5 511,-534.5 607,-534.5 607,-515.5 511,-515.5"/>
<text text-anchor="middle" x="559" y="-522.5" font-family="Helvetica,sans-Serif" font-size="10.00" fill="#000000">find_own_property</text>
</a>
</g>
</g>
<!-- Node376295&#45;&gt;Node376298 -->
<g id="edge8" class="edge">
<title>Node376295&#45;&gt;Node376298</title>
<path fill="none" stroke="#191970" d="M382.5063,-439.6457C398.3502,-455.9964 432.9605,-489.0281 469,-506 478.9552,-510.6882 490.0718,-514.2291 501.0032,-516.9008"/>
<polygon fill="#191970" stroke="#191970" points="500.4296,-520.3587 510.9515,-519.1179 501.9523,-513.5263 500.4296,-520.3587"/>
</g>
<!-- Node376299 -->
<g id="node10" class="node">
<title>Node376299</title>
<g id="a_node10"><a xlink:href="quickjs_8c.html#add3eea1f6d626963ade3c28a1fd563d1" target="_top" xlink:title="JS_AtomIsNumericIndex">
<polygon fill="none" stroke="#ff0000" points="496,-591.5 496,-610.5 622,-610.5 622,-591.5 496,-591.5"/>
<text text-anchor="middle" x="559" y="-598.5" font-family="Helvetica,sans-Serif" font-size="10.00" fill="#000000">JS_AtomIsNumericIndex</text>
</a>
</g>
</g>
<!-- Node376295&#45;&gt;Node376299 -->
<g id="edge9" class="edge">
<title>Node376295&#45;&gt;Node376299</title>
<path fill="none" stroke="#191970" d="M376.5724,-439.7215C385.7296,-467.0086 415.5728,-544.7425 469,-582 474.2437,-585.6567 480.0481,-588.6343 486.1097,-591.0559"/>
<polygon fill="#191970" stroke="#191970" points="485.2084,-594.4479 495.8032,-594.4212 487.5042,-587.8351 485.2084,-594.4479"/>
</g>
<!-- Node376448 -->
<g id="node13" class="node">
<title>Node376448</title>
<g id="a_node13"><a xlink:href="quickjs_8c.html#a8aac7988cf0c6f3c2b629a6662fd7ec8" target="_top" xlink:title="JS_AutoInitProperty">
<polygon fill="none" stroke="#ff0000" points="507,-123.5 507,-142.5 611,-142.5 611,-123.5 507,-123.5"/>
<text text-anchor="middle" x="559" y="-130.5" font-family="Helvetica,sans-Serif" font-size="10.00" fill="#000000">JS_AutoInitProperty</text>
</a>
</g>
</g>
<!-- Node376295&#45;&gt;Node376448 -->
<g id="edge13" class="edge">
<title>Node376295&#45;&gt;Node376448</title>
<path fill="none" stroke="#191970" d="M375.1483,-420.2018C381.4517,-385.2657 406.8723,-264.8983 469,-190 484.4551,-171.3681 507.6328,-156.8883 526.5964,-147.1853"/>
<polygon fill="#191970" stroke="#191970" points="528.3506,-150.2233 535.7897,-142.6794 525.2698,-143.9377 528.3506,-150.2233"/>
</g>
<!-- Node376356 -->
<g id="node14" class="node">
<title>Node376356</title>
<g id="a_node14"><a xlink:href="quickjs_8c.html#a75f6ee5e4235a7dc99889f3d2eb2c147" target="_top" xlink:title="JS_CallFree">
<polygon fill="none" stroke="#ff0000" points="523.5,-629.5 523.5,-648.5 594.5,-648.5 594.5,-629.5 523.5,-629.5"/>
<text text-anchor="middle" x="559" y="-636.5" font-family="Helvetica,sans-Serif" font-size="10.00" fill="#000000">JS_CallFree</text>
</a>
</g>
</g>
<!-- Node376295&#45;&gt;Node376356 -->
<g id="edge15" class="edge">
<title>Node376295&#45;&gt;Node376356</title>
<path fill="none" stroke="#191970" d="M375.3148,-439.7703C381.7312,-471.4061 406.4195,-571.7759 469,-620 481.4359,-629.583 497.5936,-634.6078 512.7803,-637.1621"/>
<polygon fill="#191970" stroke="#191970" points="512.7013,-640.6834 523.0815,-638.5613 513.6436,-633.7471 512.7013,-640.6834"/>
</g>
<!-- Node376311 -->
<g id="node15" class="node">
<title>Node376311</title>
<g id="a_node15"><a xlink:href="quickjs_8h.html#a775522f2d084fc8fa0fcb33f390006b4" target="_top" xlink:title="JS_DupValue">
<polygon fill="none" stroke="#000000" points="520.5,-705.5 520.5,-724.5 597.5,-724.5 597.5,-705.5 520.5,-705.5"/>
<text text-anchor="middle" x="559" y="-712.5" font-family="Helvetica,sans-Serif" font-size="10.00" fill="#000000">JS_DupValue</text>
</a>
</g>
</g>
<!-- Node376295&#45;&gt;Node376311 -->
<g id="edge17" class="edge">
<title>Node376295&#45;&gt;Node376311</title>
<path fill="none" stroke="#191970" d="M376.4805,-439.7494C390.3758,-484.95 448.963,-672.6929 469,-691 480.2519,-701.2805 495.4177,-707.2442 510.0904,-710.6763"/>
<polygon fill="#191970" stroke="#191970" points="509.6249,-714.1522 520.1155,-712.6698 510.9902,-707.2866 509.6249,-714.1522"/>
</g>
<!-- Node376379 -->
<g id="node16" class="node">
<title>Node376379</title>
<g id="a_node16"><a xlink:href="quickjs_8c.html#aeb97957655d979e9fe56c955da2b2d4b" target="_top" xlink:title="JS_GetPropertyUint32">
<polygon fill="none" stroke="#ff0000" points="501.5,-477.5 501.5,-496.5 616.5,-496.5 616.5,-477.5 501.5,-477.5"/>
<text text-anchor="middle" x="559" y="-484.5" font-family="Helvetica,sans-Serif" font-size="10.00" fill="#000000">JS_GetPropertyUint32</text>
</a>
</g>
</g>
<!-- Node376295&#45;&gt;Node376379 -->
<g id="edge19" class="edge">
<title>Node376295&#45;&gt;Node376379</title>
<path fill="none" stroke="#191970" d="M394.3729,-439.5058C413.4782,-447.916 442.6941,-460.0531 469,-468 477.7566,-470.6453 487.1005,-473.0581 496.3305,-475.21"/>
<polygon fill="#191970" stroke="#191970" points="495.7442,-478.6654 506.2681,-477.4412 497.2778,-471.8354 495.7442,-478.6654"/>
</g>
<!-- Node376479 -->
<g id="node17" class="node">
<title>Node376479</title>
<g id="a_node17"><a xlink:href="quickjs_8c.html#a93550bf785e919d0881399712c54cb34" target="_top" xlink:title="JS_GetPrototypePrimitive">
<polygon fill="none" stroke="#000000" points="494,-439.5 494,-458.5 624,-458.5 624,-439.5 494,-439.5"/>
<text text-anchor="middle" x="559" y="-446.5" font-family="Helvetica,sans-Serif" font-size="10.00" fill="#000000">JS_GetPrototypePrimitive</text>
</a>
</g>
</g>
<!-- Node376295&#45;&gt;Node376479 -->
<g id="edge20" class="edge">
<title>Node376295&#45;&gt;Node376479</title>
<path fill="none" stroke="#191970" d="M433.2144,-436.1163C449.2653,-437.7603 466.8344,-439.5599 483.6168,-441.2788"/>
<polygon fill="#191970" stroke="#191970" points="483.6394,-444.7993 493.944,-442.3366 484.3527,-437.8358 483.6394,-444.7993"/>
</g>
<!-- Node376555 -->
<g id="node18" class="node">
<title>Node376555</title>
<g id="a_node18"><a xlink:href="quickjs_8h.html#aaab426b47c95d00479b7355b1cf7f56c" target="_top" xlink:title="JS_IsUninitialized">
<polygon fill="none" stroke="#000000" points="511.5,-401.5 511.5,-420.5 606.5,-420.5 606.5,-401.5 511.5,-401.5"/>
<text text-anchor="middle" x="559" y="-408.5" font-family="Helvetica,sans-Serif" font-size="10.00" fill="#000000">JS_IsUninitialized</text>
</a>
</g>
</g>
<!-- Node376295&#45;&gt;Node376555 -->
<g id="edge21" class="edge">
<title>Node376295&#45;&gt;Node376555</title>
<path fill="none" stroke="#191970" d="M433.2144,-423.8837C455.0669,-421.6454 479.7337,-419.1189 501.3979,-416.8999"/>
<polygon fill="#191970" stroke="#191970" points="501.8505,-420.372 511.4418,-415.8712 501.1372,-413.4084 501.8505,-420.372"/>
</g>
<!-- Node376688 -->
<g id="node19" class="node">
<title>Node376688</title>
<g id="a_node19"><a xlink:href="quickjs_8c.html#a077ffa6455c0d7831bd4547542b5f2f7" target="_top" xlink:title="js_new_string_char">
<polygon fill="none" stroke="#ff0000" points="508.5,-363.5 508.5,-382.5 609.5,-382.5 609.5,-363.5 508.5,-363.5"/>
<text text-anchor="middle" x="559" y="-370.5" font-family="Helvetica,sans-Serif" font-size="10.00" fill="#000000">js_new_string_char</text>
</a>
</g>
</g>
<!-- Node376295&#45;&gt;Node376688 -->
<g id="edge22" class="edge">
<title>Node376295&#45;&gt;Node376688</title>
<path fill="none" stroke="#191970" d="M394.3729,-420.4942C413.4782,-412.084 442.6941,-399.9469 469,-392 478.4015,-389.1598 488.4801,-386.5877 498.3677,-384.3188"/>
<polygon fill="#191970" stroke="#191970" points="499.1519,-387.7301 508.1596,-382.1523 497.6396,-380.8954 499.1519,-387.7301"/>
</g>
<!-- Node376304 -->
<g id="node20" class="node">
<title>Node376304</title>
<g id="a_node20"><a xlink:href="quickjs_8h.html#a2050bc428da1c65ac7eb87c3fa3b0392" target="_top" xlink:title="JS_NewInt32">
<polygon fill="none" stroke="#000000" points="521,-325.5 521,-344.5 597,-344.5 597,-325.5 521,-325.5"/>
<text text-anchor="middle" x="559" y="-332.5" font-family="Helvetica,sans-Serif" font-size="10.00" fill="#000000">JS_NewInt32</text>
</a>
</g>
</g>
<!-- Node376295&#45;&gt;Node376304 -->
<g id="edge23" class="edge">
<title>Node376295&#45;&gt;Node376304</title>
<path fill="none" stroke="#191970" d="M382.5063,-420.3543C398.3502,-404.0036 432.9605,-370.9719 469,-354 482.0208,-347.8682 497.0283,-343.6989 511.0097,-340.8703"/>
<polygon fill="#191970" stroke="#191970" points="511.7643,-344.2903 520.966,-339.0388 510.4977,-337.4059 511.7643,-344.2903"/>
</g>
<!-- Node376480 -->
<g id="node21" class="node">
<title>Node376480</title>
<g id="a_node21"><a xlink:href="quickjs_8c.html#ab8d0b87c9eed4eb6c054b6f4e1731554" target="_top" xlink:title="JS_ThrowReferenceErrorNot\lDefined">
<polygon fill="none" stroke="#ff0000" points="487.5,-276 487.5,-306 630.5,-306 630.5,-276 487.5,-276"/>
<text text-anchor="start" x="495.5" y="-294" font-family="Helvetica,sans-Serif" font-size="10.00" fill="#000000">JS_ThrowReferenceErrorNot</text>
<text text-anchor="middle" x="559" y="-283" font-family="Helvetica,sans-Serif" font-size="10.00" fill="#000000">Defined</text>
</a>
</g>
</g>
<!-- Node376295&#45;&gt;Node376480 -->
<g id="edge24" class="edge">
<title>Node376295&#45;&gt;Node376480</title>
<path fill="none" stroke="#191970" d="M378.7887,-420.3663C391.3803,-398.3523 425.3712,-344.101 469,-316 472.1868,-313.9474 475.542,-312.0612 479.0083,-310.3282"/>
<polygon fill="#191970" stroke="#191970" points="480.7279,-313.3921 488.4037,-306.0892 477.8491,-307.0115 480.7279,-313.3921"/>
</g>
<!-- Node376556 -->
<g id="node22" class="node">
<title>Node376556</title>
<g id="a_node22"><a xlink:href="quickjs_8c.html#a75ac132a3af4de01e1fadeb0bede6ee7" target="_top" xlink:title="JS_ThrowReferenceErrorUninitialized">
<polygon fill="none" stroke="#ff0000" points="469,-237.5 469,-256.5 649,-256.5 649,-237.5 469,-237.5"/>
<text text-anchor="middle" x="559" y="-244.5" font-family="Helvetica,sans-Serif" font-size="10.00" fill="#000000">JS_ThrowReferenceErrorUninitialized</text>
</a>
</g>
</g>
<!-- Node376295&#45;&gt;Node376556 -->
<g id="edge25" class="edge">
<title>Node376295&#45;&gt;Node376556</title>
<path fill="none" stroke="#191970" d="M376.092,-420.3537C384.3139,-391.7265 412.6532,-306.7192 469,-266 471.5705,-264.1424 474.2838,-262.4587 477.1022,-260.9331"/>
<polygon fill="#191970" stroke="#191970" points="478.8387,-263.985 486.4153,-256.5792 475.8741,-257.6437 478.8387,-263.985"/>
</g>
<!-- Node376299&#45;&gt;Node376256 -->
<g id="edge10" class="edge">
<title>Node376299&#45;&gt;Node376256</title>
<path fill="none" stroke="#191970" d="M622.0561,-608.6579C631.4914,-611.3806 640.7945,-615.0526 649,-620 680.2231,-638.8255 704.8102,-674.5306 717.8094,-696.4026"/>
<polygon fill="#191970" stroke="#191970" points="714.9391,-698.4331 722.9488,-705.3681 721.012,-694.9518 714.9391,-698.4331"/>
</g>
<!-- Node376299&#45;&gt;Node376303 -->
<g id="edge11" class="edge">
<title>Node376299&#45;&gt;Node376303</title>
<path fill="none" stroke="#191970" d="M622.0847,-597.7102C632.1909,-594.5563 641.706,-589.6082 649,-582 682.5248,-547.0314 676.6221,-414.713 685,-367 698.9733,-287.4206 716.6981,-192.834 724.283,-152.6364"/>
<polygon fill="#191970" stroke="#191970" points="727.7243,-153.2745 726.142,-142.7986 720.846,-151.9748 727.7243,-153.2745"/>
</g>
<!-- Node376299&#45;&gt;Node376462 -->
<g id="edge12" class="edge">
<title>Node376299&#45;&gt;Node376462</title>
<path fill="none" stroke="#191970" d="M622.1866,-595.9089C631.9261,-592.8983 641.2913,-588.4648 649,-582 704.1268,-535.7691 721.1534,-445.3537 726.1031,-405.5753"/>
<polygon fill="#191970" stroke="#191970" points="729.5886,-405.8984 727.2208,-395.5716 722.6319,-405.1211 729.5886,-405.8984"/>
</g>
<!-- Node376448&#45;&gt;Node376303 -->
<g id="edge14" class="edge">
<title>Node376448&#45;&gt;Node376303</title>
<path fill="none" stroke="#191970" d="M611.0846,-133C631.3286,-133 654.4984,-133 674.8437,-133"/>
<polygon fill="#191970" stroke="#191970" points="674.8861,-136.5001 684.8861,-133 674.8861,-129.5001 674.8861,-136.5001"/>
</g>
<!-- Node376356&#45;&gt;Node376256 -->
<g id="edge16" class="edge">
<title>Node376356&#45;&gt;Node376256</title>
<path fill="none" stroke="#191970" d="M594.5164,-645.6988C611.4522,-649.5834 631.7349,-655.2615 649,-663 670.4183,-672.6 692.5488,-687.6921 707.9181,-699.1498"/>
<polygon fill="#191970" stroke="#191970" points="706.0543,-702.1299 716.1296,-705.4069 710.2969,-696.5621 706.0543,-702.1299"/>
</g>
<!-- Node376553&#45;&gt;Node376256 -->
<g id="edge29" class="edge">
<title>Node376553&#45;&gt;Node376256</title>
<path fill="none" stroke="#191970" d="M383.7514,-648.5347C395.725,-659.7367 416.0539,-678.9593 433,-696 449.4046,-712.4962 447.6287,-724.8075 469,-734 543.3569,-765.9833 640.8013,-743.7627 692.3813,-727.6342"/>
<polygon fill="#191970" stroke="#191970" points="693.6244,-730.9108 702.0653,-724.5076 691.4736,-724.2494 693.6244,-730.9108"/>
</g>
<!-- Node376553&#45;&gt;Node376299 -->
<g id="edge27" class="edge">
<title>Node376553&#45;&gt;Node376299</title>
<path fill="none" stroke="#191970" d="M418.4044,-629.8013C443.6953,-624.6204 475.522,-618.1006 502.4955,-612.575"/>
<polygon fill="#191970" stroke="#191970" points="503.4778,-615.9466 512.5719,-610.5109 502.073,-609.089 503.4778,-615.9466"/>
</g>
<!-- Node376553&#45;&gt;Node376311 -->
<g id="edge28" class="edge">
<title>Node376553&#45;&gt;Node376311</title>
<path fill="none" stroke="#191970" d="M388.4995,-648.6361C406.8589,-660.0789 439.1915,-679.1077 469,-691 482.174,-696.2559 496.8857,-700.7275 510.5348,-704.3354"/>
<polygon fill="#191970" stroke="#191970" points="509.6941,-707.7329 520.2485,-706.8087 511.4213,-700.9494 509.6941,-707.7329"/>
</g>
<!-- Node376463&#45;&gt;Node376256 -->
<g id="edge36" class="edge">
<title>Node376463&#45;&gt;Node376256</title>
<path fill="none" stroke="#191970" d="M386.2164,-724.6588C403.7371,-737.2982 436.8013,-758.8021 469,-767 546.5267,-786.7385 572.365,-789.9581 649,-767 672.1415,-760.0673 694.7766,-743.9282 709.844,-731.4544"/>
<polygon fill="#191970" stroke="#191970" points="712.4826,-733.8019 717.7876,-724.6309 707.9213,-728.492 712.4826,-733.8019"/>
</g>
</g>
</svg>
        <g id="navigator" transform="translate(0 0)" fill="#404254">
                <rect fill="#f2f5e9" fill-opacity="0.5" stroke="#606060" stroke-width=".5" x="0" y="0" width="60" height="60"/>
                <use id="zoomplus" xlink:href="#zoomPlus" x="17" y="9" onmousedown="handleZoom(evt,'in')"/>
                <use id="zoomminus" xlink:href="#zoomMin" x="42" y="9" onmousedown="handleZoom(evt,'out')"/>
                <use id="reset" xlink:href="#resetDef" x="30" y="36" onmousedown="handleReset()"/>
                <g id="arrowUp" xlink:href="#dirArrow" transform="translate(30 24)" onmousedown="handlePan(0,-1)">
                  <use xlink:href="#rim" fill="#404040">
                        <set attributeName="fill" to="#808080" begin="arrowUp.mouseover" end="arrowUp.mouseout"/>
                  </use>
                  <path fill="none" stroke="white" stroke-width="1.5" d="M0,-3.0v7 M-2.5,-0.5L0,-3.0L2.5,-0.5"/>
                </g>
                <g id="arrowRight" xlink:href="#dirArrow" transform="rotate(90) translate(36 -43)" onmousedown="handlePan(1,0)">
                  <use xlink:href="#rim" fill="#404040">
                        <set attributeName="fill" to="#808080" begin="arrowRight.mouseover" end="arrowRight.mouseout"/>
                  </use>
                  <path fill="none" stroke="white" stroke-width="1.5" d="M0,-3.0v7 M-2.5,-0.5L0,-3.0L2.5,-0.5"/>
                </g>
                <g id="arrowDown" xlink:href="#dirArrow" transform="rotate(180) translate(-30 -48)" onmousedown="handlePan(0,1)">
                  <use xlink:href="#rim" fill="#404040">
                        <set attributeName="fill" to="#808080" begin="arrowDown.mouseover" end="arrowDown.mouseout"/>
                  </use>
                  <path fill="none" stroke="white" stroke-width="1.5" d="M0,-3.0v7 M-2.5,-0.5L0,-3.0L2.5,-0.5"/>
                </g>
                <g id="arrowLeft" xlink:href="#dirArrow" transform="rotate(270) translate(-36 17)" onmousedown="handlePan(-1,0)">
                  <use xlink:href="#rim" fill="#404040">
                        <set attributeName="fill" to="#808080" begin="arrowLeft.mouseover" end="arrowLeft.mouseout"/>
                  </use>
                  <path fill="none" stroke="white" stroke-width="1.5" d="M0,-3.0v7 M-2.5,-0.5L0,-3.0L2.5,-0.5"/>
                </g>
        </g>
        <svg viewBox="0 0 15 15" width="100%" height="30px" preserveAspectRatio="xMaxYMin meet">
         <g id="arrow_out" transform="scale(0.3 0.3)">
          <a xlink:href="quickjs_8c_a26ceb6b90296d2572803b252df73cded_cgraph_org.svg" target="_base">
           <rect id="button" ry="5" rx="5" y="6" x="6" height="38" width="38"
                fill="#f2f5e9" fill-opacity="0.5" stroke="#606060" stroke-width="1.0"/>
           <path id="arrow"
             d="M 11.500037,31.436501 C 11.940474,20.09759 22.043105,11.32322 32.158766,21.979434 L 37.068811,17.246167 C 37.068811,17.246167 37.088388,32 37.088388,32 L 22.160133,31.978069 C 22.160133,31.978069 26.997745,27.140456 26.997745,27.140456 C 18.528582,18.264221 13.291696,25.230495 11.500037,31.436501 z"
             style="fill:#404040;"/>
          </a>
         </g>
        </svg>
</svg>
