<?xml version="1.0" encoding="UTF-8" standalone="no"?>
<!DOCTYPE svg PUBLIC "-//W3C//DTD SVG 1.1//EN"
 "http://www.w3.org/Graphics/SVG/1.1/DTD/svg11.dtd">
<!-- Generated by graphviz version 2.40.1 (20161225.0304)
 -->
<!-- Title: js_for_in_next Pages: 1 -->
<svg width="543pt" height="1013pt"
 viewBox="0.00 0.00 543.00 1013.00" xmlns="http://www.w3.org/2000/svg" xmlns:xlink="http://www.w3.org/1999/xlink">
<g id="graph0" class="graph" transform="scale(1 1) rotate(0) translate(4 1009)">
<title>js_for_in_next</title>
<!-- Node279524 -->
<g id="node1" class="node">
<title>Node279524</title>
<polygon fill="#bfbfbf" stroke="#000000" points="0,-274.5 0,-293.5 77,-293.5 77,-274.5 0,-274.5"/>
<text text-anchor="middle" x="38.5" y="-281.5" font-family="Helvetica,sans-Serif" font-size="10.00" fill="#000000">js_for_in_next</text>
</g>
<!-- Node279525 -->
<g id="node2" class="node">
<title>Node279525</title>
<g id="a_node2"><a xlink:href="quickjs_8c.html#ac2894ff4edcdb4e6841bcce9c76081e3" target="_top" xlink:title="JS_CallInternal">
<polygon fill="none" stroke="#000000" points="113,-274.5 113,-293.5 196,-293.5 196,-274.5 113,-274.5"/>
<text text-anchor="middle" x="154.5" y="-281.5" font-family="Helvetica,sans-Serif" font-size="10.00" fill="#000000">JS_CallInternal</text>
</a>
</g>
</g>
<!-- Node279524&#45;&gt;Node279525 -->
<g id="edge1" class="edge">
<title>Node279524&#45;&gt;Node279525</title>
<path fill="none" stroke="#191970" d="M87.3065,-284C95.8039,-284 104.5714,-284 112.8543,-284"/>
<polygon fill="#191970" stroke="#191970" points="87.1264,-280.5001 77.1263,-284 87.1263,-287.5001 87.1264,-280.5001"/>
</g>
<!-- Node279525&#45;&gt;Node279525 -->
<g id="edge40" class="edge">
<title>Node279525&#45;&gt;Node279525</title>
<path fill="none" stroke="#191970" d="M133.0196,-303.4C134.4541,-308.3146 141.6143,-312 154.5,-312 175.1172,-312 181.0768,-302.5653 172.379,-293.7571"/>
<polygon fill="#191970" stroke="#191970" points="136.401,-304.3496 136.621,-293.7571 129.8434,-301.9004 136.401,-304.3496"/>
</g>
<!-- Node279526 -->
<g id="node3" class="node">
<title>Node279526</title>
<g id="a_node3"><a xlink:href="quickjs_8c.html#ade71a22dc56e7371392393df663b28b3" target="_top" xlink:title="async_func_resume">
<polygon fill="none" stroke="#000000" points="247,-892.5 247,-911.5 351,-911.5 351,-892.5 247,-892.5"/>
<text text-anchor="middle" x="299" y="-899.5" font-family="Helvetica,sans-Serif" font-size="10.00" fill="#000000">async_func_resume</text>
</a>
</g>
</g>
<!-- Node279525&#45;&gt;Node279526 -->
<g id="edge2" class="edge">
<title>Node279525&#45;&gt;Node279526</title>
<path fill="none" stroke="#191970" d="M159.0805,-303.5901C181.6381,-400.0646 280.4849,-822.8142 296.7352,-892.3141"/>
<polygon fill="#191970" stroke="#191970" points="162.4547,-302.6478 156.7697,-293.7073 155.6385,-304.2416 162.4547,-302.6478"/>
</g>
<!-- Node279545 -->
<g id="node8" class="node">
<title>Node279545</title>
<g id="a_node8"><a xlink:href="quickjs_8c.html#a1a4c02a29525d5cb2085dd8bca3af350" target="_top" xlink:title="JS_Call">
<polygon fill="none" stroke="#ff0000" points="273.5,-366.5 273.5,-385.5 324.5,-385.5 324.5,-366.5 273.5,-366.5"/>
<text text-anchor="middle" x="299" y="-373.5" font-family="Helvetica,sans-Serif" font-size="10.00" fill="#000000">JS_Call</text>
</a>
</g>
</g>
<!-- Node279525&#45;&gt;Node279545 -->
<g id="edge7" class="edge">
<title>Node279525&#45;&gt;Node279545</title>
<path fill="none" stroke="#191970" d="M186.5346,-298.6777C219.4699,-317.7532 268.7662,-349.8516 289.3895,-366.3007"/>
<polygon fill="#191970" stroke="#191970" points="188.1399,-295.5643 177.7164,-293.6666 184.6814,-301.6503 188.1399,-295.5643"/>
</g>
<!-- Node279631 -->
<g id="node29" class="node">
<title>Node279631</title>
<g id="a_node29"><a xlink:href="quickjs_8c.html#ad35594576a14c10812efaf958c99af8a" target="_top" xlink:title="JS_CallConstructorInternal">
<polygon fill="none" stroke="#ff0000" points="232,-274.5 232,-293.5 366,-293.5 366,-274.5 232,-274.5"/>
<text text-anchor="middle" x="299" y="-281.5" font-family="Helvetica,sans-Serif" font-size="10.00" fill="#000000">JS_CallConstructorInternal</text>
</a>
</g>
</g>
<!-- Node279525&#45;&gt;Node279631 -->
<g id="edge34" class="edge">
<title>Node279525&#45;&gt;Node279631</title>
<path fill="none" stroke="#191970" d="M206.5209,-277.4909C214.7845,-277.2892 223.4321,-277.2142 231.9815,-277.2658"/>
<polygon fill="#191970" stroke="#191970" points="206.1798,-273.9998 196.2954,-277.814 206.401,-280.9963 206.1798,-273.9998"/>
</g>
<!-- Node279645 -->
<g id="node30" class="node">
<title>Node279645</title>
<g id="a_node30"><a xlink:href="quickjs_8c.html#a75f6ee5e4235a7dc99889f3d2eb2c147" target="_top" xlink:title="JS_CallFree">
<polygon fill="none" stroke="#ff0000" points="263.5,-91.5 263.5,-110.5 334.5,-110.5 334.5,-91.5 263.5,-91.5"/>
<text text-anchor="middle" x="299" y="-98.5" font-family="Helvetica,sans-Serif" font-size="10.00" fill="#000000">JS_CallFree</text>
</a>
</g>
</g>
<!-- Node279525&#45;&gt;Node279645 -->
<g id="edge36" class="edge">
<title>Node279525&#45;&gt;Node279645</title>
<path fill="none" stroke="#191970" d="M157.7023,-264.4197C165.2042,-229.2158 186.8044,-156.4964 232,-116 240.742,-108.167 252.2224,-102.8425 263.2049,-99.7033"/>
<polygon fill="#191970" stroke="#191970" points="154.2265,-263.9582 155.75,-274.4429 161.0974,-265.2965 154.2265,-263.9582"/>
</g>
<!-- Node279527 -->
<g id="node4" class="node">
<title>Node279527</title>
<g id="a_node4"><a xlink:href="quickjs_8c.html#ac90552b1f1659acb3dae9a4c62479a30" target="_top" xlink:title="js_generator_function_call">
<polygon fill="none" stroke="#ff0000" points="403.5,-985.5 403.5,-1004.5 533.5,-1004.5 533.5,-985.5 403.5,-985.5"/>
<text text-anchor="middle" x="468.5" y="-992.5" font-family="Helvetica,sans-Serif" font-size="10.00" fill="#000000">js_generator_function_call</text>
</a>
</g>
</g>
<!-- Node279526&#45;&gt;Node279527 -->
<g id="edge3" class="edge">
<title>Node279526&#45;&gt;Node279527</title>
<path fill="none" stroke="#191970" d="M317.4671,-918.3133C337.1641,-934.9499 369.8865,-960.4617 402,-976 409.782,-979.7654 418.4469,-982.9157 426.8825,-985.499"/>
<polygon fill="#191970" stroke="#191970" points="319.488,-915.4351 309.6226,-911.5717 314.9255,-920.7439 319.488,-915.4351"/>
</g>
<!-- Node279536 -->
<g id="node5" class="node">
<title>Node279536</title>
<g id="a_node5"><a xlink:href="quickjs_8c.html#a1bf6b62983e8fff99c0a5d5a9f486115" target="_top" xlink:title="js_async_function_resume">
<polygon fill="none" stroke="#ff0000" points="402,-848.5 402,-867.5 535,-867.5 535,-848.5 402,-848.5"/>
<text text-anchor="middle" x="468.5" y="-855.5" font-family="Helvetica,sans-Serif" font-size="10.00" fill="#000000">js_async_function_resume</text>
</a>
</g>
</g>
<!-- Node279526&#45;&gt;Node279536 -->
<g id="edge4" class="edge">
<title>Node279526&#45;&gt;Node279536</title>
<path fill="none" stroke="#191970" d="M345.4651,-889.9383C372.6496,-882.8815 406.4877,-874.0976 431.7928,-867.5287"/>
<polygon fill="#191970" stroke="#191970" points="344.5787,-886.5523 335.779,-892.4527 346.3376,-893.3277 344.5787,-886.5523"/>
</g>
<!-- Node279543 -->
<g id="node6" class="node">
<title>Node279543</title>
<g id="a_node6"><a xlink:href="quickjs_8c.html#a89b019c704a2d2914bc30b30a72040b3" target="_top" xlink:title="js_async_generator\l_resume_next">
<polygon fill="none" stroke="#000000" points="418,-936 418,-966 519,-966 519,-936 418,-936"/>
<text text-anchor="start" x="426" y="-954" font-family="Helvetica,sans-Serif" font-size="10.00" fill="#000000">js_async_generator</text>
<text text-anchor="middle" x="468.5" y="-943" font-family="Helvetica,sans-Serif" font-size="10.00" fill="#000000">_resume_next</text>
</a>
</g>
</g>
<!-- Node279526&#45;&gt;Node279543 -->
<g id="edge5" class="edge">
<title>Node279526&#45;&gt;Node279543</title>
<path fill="none" stroke="#191970" d="M341.9372,-914.4125C365.0226,-921.0862 393.6309,-929.3564 417.805,-936.3448"/>
<polygon fill="#191970" stroke="#191970" points="342.6623,-910.9789 332.0837,-911.564 340.7183,-917.7036 342.6623,-910.9789"/>
</g>
<!-- Node279544 -->
<g id="node7" class="node">
<title>Node279544</title>
<g id="a_node7"><a xlink:href="quickjs_8c.html#ae19867da709929c072f05e90301835a4" target="_top" xlink:title="js_async_generator\l_function_call">
<polygon fill="none" stroke="#ff0000" points="418,-887 418,-917 519,-917 519,-887 418,-887"/>
<text text-anchor="start" x="426" y="-905" font-family="Helvetica,sans-Serif" font-size="10.00" fill="#000000">js_async_generator</text>
<text text-anchor="middle" x="468.5" y="-894" font-family="Helvetica,sans-Serif" font-size="10.00" fill="#000000">_function_call</text>
</a>
</g>
</g>
<!-- Node279526&#45;&gt;Node279544 -->
<g id="edge6" class="edge">
<title>Node279526&#45;&gt;Node279544</title>
<path fill="none" stroke="#191970" d="M361.388,-902C379.9885,-902 400.1368,-902 417.8866,-902"/>
<polygon fill="#191970" stroke="#191970" points="361.2387,-898.5001 351.2387,-902 361.2386,-905.5001 361.2387,-898.5001"/>
</g>
<!-- Node279545&#45;&gt;Node279525 -->
<g id="edge14" class="edge">
<title>Node279545&#45;&gt;Node279525</title>
<path fill="none" stroke="#191970" d="M267.2443,-361.4837C234.24,-342.3885 184.5848,-310.0599 163.981,-293.5959"/>
<polygon fill="#191970" stroke="#191970" points="265.649,-364.6027 276.0736,-366.4945 269.104,-358.5148 265.649,-364.6027"/>
</g>
<!-- Node279545&#45;&gt;Node279536 -->
<g id="edge15" class="edge">
<title>Node279545&#45;&gt;Node279536</title>
<path fill="none" stroke="#191970" d="M300.7375,-395.7477C308.14,-475.5029 339.5618,-772.7381 402,-839 405.6232,-842.845 409.9653,-845.9296 414.6723,-848.4016"/>
<polygon fill="#191970" stroke="#191970" points="304.2073,-395.2551 299.8188,-385.6119 297.2359,-395.8871 304.2073,-395.2551"/>
</g>
<!-- Node279546 -->
<g id="node9" class="node">
<title>Node279546</title>
<g id="a_node9"><a xlink:href="structqjs_1_1js__traits_3_01std_1_1function_3_01R_07Args_8_8_8_08_4_01_4.html#ac449e51d3fe10c6c115596fa6ec278ee" target="_top" xlink:title="qjs::js_traits\&lt; std\l::function\&lt; R(Args...)\l\&gt; \&gt;::unwrap">
<polygon fill="none" stroke="#000000" points="414,-600.5 414,-641.5 523,-641.5 523,-600.5 414,-600.5"/>
<text text-anchor="start" x="422" y="-629.5" font-family="Helvetica,sans-Serif" font-size="10.00" fill="#000000">qjs::js_traits&lt; std</text>
<text text-anchor="start" x="422" y="-618.5" font-family="Helvetica,sans-Serif" font-size="10.00" fill="#000000">::function&lt; R(Args...)</text>
<text text-anchor="middle" x="468.5" y="-607.5" font-family="Helvetica,sans-Serif" font-size="10.00" fill="#000000">&gt; &gt;::unwrap</text>
</a>
</g>
</g>
<!-- Node279545&#45;&gt;Node279546 -->
<g id="edge8" class="edge">
<title>Node279545&#45;&gt;Node279546</title>
<path fill="none" stroke="#191970" d="M303.4623,-395.375C313.8697,-436.57 343.4328,-533.763 402,-591 405.5327,-594.4525 409.5324,-597.5493 413.7748,-600.3186"/>
<polygon fill="#191970" stroke="#191970" points="306.8332,-394.4238 301.0752,-385.5302 300.0303,-396.0734 306.8332,-394.4238"/>
</g>
<!-- Node279547 -->
<g id="node10" class="node">
<title>Node279547</title>
<g id="a_node10"><a xlink:href="quickjs-libc_8c.html#abb1cbe3fdf905e81f603a3a0bfce475a" target="_top" xlink:title="call_handler">
<polygon fill="none" stroke="#000000" points="434.5,-562.5 434.5,-581.5 502.5,-581.5 502.5,-562.5 434.5,-562.5"/>
<text text-anchor="middle" x="468.5" y="-569.5" font-family="Helvetica,sans-Serif" font-size="10.00" fill="#000000">call_handler</text>
</a>
</g>
</g>
<!-- Node279545&#45;&gt;Node279547 -->
<g id="edge9" class="edge">
<title>Node279545&#45;&gt;Node279547</title>
<path fill="none" stroke="#191970" d="M304.9669,-395.7267C317.0804,-432.3807 348.0815,-511.0638 402,-553 411.2883,-560.2242 423.2106,-564.7017 434.3889,-567.4768"/>
<polygon fill="#191970" stroke="#191970" points="308.173,-394.2588 301.8095,-385.7879 301.5016,-396.3783 308.173,-394.2588"/>
</g>
<!-- Node279548 -->
<g id="node11" class="node">
<title>Node279548</title>
<g id="a_node11"><a xlink:href="quickjs-libc_8c.html#a9fa4c190ba56314c7ed9b00bbc7ad0f9" target="_top" xlink:title="handle_posted_message">
<polygon fill="none" stroke="#000000" points="406,-524.5 406,-543.5 531,-543.5 531,-524.5 406,-524.5"/>
<text text-anchor="middle" x="468.5" y="-531.5" font-family="Helvetica,sans-Serif" font-size="10.00" fill="#000000">handle_posted_message</text>
</a>
</g>
</g>
<!-- Node279545&#45;&gt;Node279548 -->
<g id="edge10" class="edge">
<title>Node279545&#45;&gt;Node279548</title>
<path fill="none" stroke="#191970" d="M307.8132,-394.8068C322.8433,-424.8129 356.3,-483.3519 402,-515 407.6266,-518.8965 414.0444,-521.9998 420.6221,-524.4699"/>
<polygon fill="#191970" stroke="#191970" points="310.9551,-393.2643 303.4314,-385.8048 304.6611,-396.328 310.9551,-393.2643"/>
</g>
<!-- Node279549 -->
<g id="node12" class="node">
<title>Node279549</title>
<g id="a_node12"><a xlink:href="quickjs_8c.html#aa049793cc8648d35fe81876a2543ca4e" target="_top" xlink:title="JS_GetIterator2">
<polygon fill="none" stroke="#ff0000" points="425.5,-486.5 425.5,-505.5 511.5,-505.5 511.5,-486.5 425.5,-486.5"/>
<text text-anchor="middle" x="468.5" y="-493.5" font-family="Helvetica,sans-Serif" font-size="10.00" fill="#000000">JS_GetIterator2</text>
</a>
</g>
</g>
<!-- Node279545&#45;&gt;Node279549 -->
<g id="edge11" class="edge">
<title>Node279545&#45;&gt;Node279549</title>
<path fill="none" stroke="#191970" d="M312.3664,-393.7373C330.3204,-416.3395 364.3525,-455.0958 402,-477 409.161,-481.1665 417.2929,-484.4672 425.3519,-487.0663"/>
<polygon fill="#191970" stroke="#191970" points="314.9953,-391.4163 306.0957,-385.6676 309.4679,-395.7114 314.9953,-391.4163"/>
</g>
<!-- Node279581 -->
<g id="node13" class="node">
<title>Node279581</title>
<g id="a_node13"><a xlink:href="quickjs_8c.html#ad6303fbd3add4afa0cb64b0aa6d431ce" target="_top" xlink:title="JS_IteratorNext2">
<polygon fill="none" stroke="#ff0000" points="423,-448.5 423,-467.5 514,-467.5 514,-448.5 423,-448.5"/>
<text text-anchor="middle" x="468.5" y="-455.5" font-family="Helvetica,sans-Serif" font-size="10.00" fill="#000000">JS_IteratorNext2</text>
</a>
</g>
</g>
<!-- Node279545&#45;&gt;Node279581 -->
<g id="edge12" class="edge">
<title>Node279545&#45;&gt;Node279581</title>
<path fill="none" stroke="#191970" d="M320.4657,-391.5216C340.6737,-405.5409 372.2058,-425.922 402,-439 410.3559,-442.6678 419.6114,-445.8323 428.496,-448.4693"/>
<polygon fill="#191970" stroke="#191970" points="322.2159,-388.4733 312.0246,-385.577 318.1853,-394.1965 322.2159,-388.4733"/>
</g>
<!-- Node279585 -->
<g id="node14" class="node">
<title>Node279585</title>
<g id="a_node14"><a xlink:href="quickjs_8c.html#afd4ef2d701fa0702f321925b61c57bbf" target="_top" xlink:title="js_call_bound_function">
<polygon fill="none" stroke="#ff0000" points="410.5,-410.5 410.5,-429.5 526.5,-429.5 526.5,-410.5 410.5,-410.5"/>
<text text-anchor="middle" x="468.5" y="-417.5" font-family="Helvetica,sans-Serif" font-size="10.00" fill="#000000">js_call_bound_function</text>
</a>
</g>
</g>
<!-- Node279545&#45;&gt;Node279585 -->
<g id="edge13" class="edge">
<title>Node279545&#45;&gt;Node279585</title>
<path fill="none" stroke="#191970" d="M334.6969,-385.2665C363.2137,-392.669 403.0299,-403.0048 431.8058,-410.4747"/>
<polygon fill="#191970" stroke="#191970" points="335.302,-381.8076 324.7434,-382.6827 333.5432,-388.583 335.302,-381.8076"/>
</g>
<!-- Node279586 -->
<g id="node15" class="node">
<title>Node279586</title>
<g id="a_node15"><a xlink:href="quickjs_8c.html#a3e852026d167fa03c673f86697dd3e67" target="_top" xlink:title="js_async_generator\l_resolve_or_reject">
<polygon fill="none" stroke="#ff0000" points="418,-361 418,-391 519,-391 519,-361 418,-361"/>
<text text-anchor="start" x="426" y="-379" font-family="Helvetica,sans-Serif" font-size="10.00" fill="#000000">js_async_generator</text>
<text text-anchor="middle" x="468.5" y="-368" font-family="Helvetica,sans-Serif" font-size="10.00" fill="#000000">_resolve_or_reject</text>
</a>
</g>
</g>
<!-- Node279545&#45;&gt;Node279586 -->
<g id="edge16" class="edge">
<title>Node279545&#45;&gt;Node279586</title>
<path fill="none" stroke="#191970" d="M334.8847,-376C359.0145,-376 391.1716,-376 417.8919,-376"/>
<polygon fill="#191970" stroke="#191970" points="334.7434,-372.5001 324.7434,-376 334.7434,-379.5001 334.7434,-372.5001"/>
</g>
<!-- Node279589 -->
<g id="node16" class="node">
<title>Node279589</title>
<g id="a_node16"><a xlink:href="quickjs_8c.html#a2355fabf91f59212ea65baba1b0b7c1b" target="_top" xlink:title="js_async_generator_next">
<polygon fill="none" stroke="#000000" points="406,-322.5 406,-341.5 531,-341.5 531,-322.5 406,-322.5"/>
<text text-anchor="middle" x="468.5" y="-329.5" font-family="Helvetica,sans-Serif" font-size="10.00" fill="#000000">js_async_generator_next</text>
</a>
</g>
</g>
<!-- Node279545&#45;&gt;Node279589 -->
<g id="edge17" class="edge">
<title>Node279545&#45;&gt;Node279589</title>
<path fill="none" stroke="#191970" d="M334.6969,-366.7335C363.2137,-359.331 403.0299,-348.9952 431.8058,-341.5253"/>
<polygon fill="#191970" stroke="#191970" points="333.5432,-363.417 324.7434,-369.3173 335.302,-370.1924 333.5432,-363.417"/>
</g>
<!-- Node279590 -->
<g id="node17" class="node">
<title>Node279590</title>
<g id="a_node17"><a xlink:href="quickjs_8c.html#adc0280beaa04d2b8fcaf05a82ab26c74" target="_top" xlink:title="js_link_module">
<polygon fill="none" stroke="#ff0000" points="428,-266.5 428,-285.5 509,-285.5 509,-266.5 428,-266.5"/>
<text text-anchor="middle" x="468.5" y="-273.5" font-family="Helvetica,sans-Serif" font-size="10.00" fill="#000000">js_link_module</text>
</a>
</g>
</g>
<!-- Node279545&#45;&gt;Node279590 -->
<g id="edge18" class="edge">
<title>Node279545&#45;&gt;Node279590</title>
<path fill="none" stroke="#191970" d="M322.7375,-361.0979C343.5068,-348.1514 374.5605,-329.0161 402,-313 418.4309,-303.4095 437.4181,-292.9013 450.8868,-285.5423"/>
<polygon fill="#191970" stroke="#191970" points="320.8638,-358.1416 314.2377,-366.4087 324.573,-364.0781 320.8638,-358.1416"/>
</g>
<!-- Node279594 -->
<g id="node18" class="node">
<title>Node279594</title>
<g id="a_node18"><a xlink:href="quickjs_8c.html#a6357b7fdae71c70c140e78e6c20cb5c2" target="_top" xlink:title="js_dynamic_import_job">
<polygon fill="none" stroke="#ff0000" points="410.5,-228.5 410.5,-247.5 526.5,-247.5 526.5,-228.5 410.5,-228.5"/>
<text text-anchor="middle" x="468.5" y="-235.5" font-family="Helvetica,sans-Serif" font-size="10.00" fill="#000000">js_dynamic_import_job</text>
</a>
</g>
</g>
<!-- Node279545&#45;&gt;Node279594 -->
<g id="edge20" class="edge">
<title>Node279545&#45;&gt;Node279594</title>
<path fill="none" stroke="#191970" d="M315.313,-358.9947C329.127,-344.4148 349.2908,-322.7052 366,-303 382.7901,-283.1993 380.4645,-271.4981 402,-257 407.777,-253.1108 414.3497,-250.0087 421.0612,-247.5365"/>
<polygon fill="#191970" stroke="#191970" points="312.7152,-356.6475 308.3541,-366.3032 317.7847,-361.4745 312.7152,-356.6475"/>
</g>
<!-- Node279598 -->
<g id="node19" class="node">
<title>Node279598</title>
<g id="a_node19"><a xlink:href="quickjs_8c.html#a8d4b24969540aff427939eeda47f451d" target="_top" xlink:title="js_function_apply">
<polygon fill="none" stroke="#ff0000" points="422.5,-76.5 422.5,-95.5 514.5,-95.5 514.5,-76.5 422.5,-76.5"/>
<text text-anchor="middle" x="468.5" y="-83.5" font-family="Helvetica,sans-Serif" font-size="10.00" fill="#000000">js_function_apply</text>
</a>
</g>
</g>
<!-- Node279545&#45;&gt;Node279598 -->
<g id="edge21" class="edge">
<title>Node279545&#45;&gt;Node279598</title>
<path fill="none" stroke="#191970" d="M319.299,-359.5976C334.6111,-346.0634 354.8252,-325.4865 366,-303 405.8049,-222.9027 341.9429,-171.2808 402,-105 407.4824,-98.9495 414.7442,-94.7728 422.4534,-91.9012"/>
<polygon fill="#191970" stroke="#191970" points="316.7143,-357.2024 311.3852,-366.3594 321.2616,-362.5243 316.7143,-357.2024"/>
</g>
<!-- Node279601 -->
<g id="node20" class="node">
<title>Node279601</title>
<g id="a_node20"><a xlink:href="quickjs_8c.html#a677ad630a103e1f3d5129e0549112b50" target="_top" xlink:title="js_function_call">
<polygon fill="none" stroke="#000000" points="426.5,-190.5 426.5,-209.5 510.5,-209.5 510.5,-190.5 426.5,-190.5"/>
<text text-anchor="middle" x="468.5" y="-197.5" font-family="Helvetica,sans-Serif" font-size="10.00" fill="#000000">js_function_call</text>
</a>
</g>
</g>
<!-- Node279545&#45;&gt;Node279601 -->
<g id="edge23" class="edge">
<title>Node279545&#45;&gt;Node279601</title>
<path fill="none" stroke="#191970" d="M317.436,-359.3048C332.0412,-345.3428 352.2135,-324.3334 366,-303 388.0459,-268.8861 371.5199,-245.8467 402,-219 408.8479,-212.9684 417.4908,-208.8435 426.2594,-206.0248"/>
<polygon fill="#191970" stroke="#191970" points="314.8788,-356.9044 309.9706,-366.2938 319.6628,-362.0145 314.8788,-356.9044"/>
</g>
<!-- Node279552 -->
<g id="node21" class="node">
<title>Node279552</title>
<g id="a_node21"><a xlink:href="quickjs_8c.html#a5e32da9a43002cb96dcbd62a1a340144" target="_top" xlink:title="js_array_from">
<polygon fill="none" stroke="#000000" points="430.5,-152.5 430.5,-171.5 506.5,-171.5 506.5,-152.5 430.5,-152.5"/>
<text text-anchor="middle" x="468.5" y="-159.5" font-family="Helvetica,sans-Serif" font-size="10.00" fill="#000000">js_array_from</text>
</a>
</g>
</g>
<!-- Node279545&#45;&gt;Node279552 -->
<g id="edge24" class="edge">
<title>Node279545&#45;&gt;Node279552</title>
<path fill="none" stroke="#191970" d="M318.3822,-359.4856C333.3583,-345.7604 353.5663,-324.9826 366,-303 393.8326,-253.7923 361.8524,-220.8023 402,-181 409.589,-173.4763 419.9387,-168.8875 430.2124,-166.1023"/>
<polygon fill="#191970" stroke="#191970" points="315.8193,-357.0814 310.683,-366.348 320.477,-362.307 315.8193,-357.0814"/>
</g>
<!-- Node279578 -->
<g id="node22" class="node">
<title>Node279578</title>
<g id="a_node22"><a xlink:href="quickjs_8c.html#aa0bbf08a7e91459c68a312fba7016c6d" target="_top" xlink:title="js_array_every">
<polygon fill="none" stroke="#000000" points="428.5,-114.5 428.5,-133.5 508.5,-133.5 508.5,-114.5 428.5,-114.5"/>
<text text-anchor="middle" x="468.5" y="-121.5" font-family="Helvetica,sans-Serif" font-size="10.00" fill="#000000">js_array_every</text>
</a>
</g>
</g>
<!-- Node279545&#45;&gt;Node279578 -->
<g id="edge25" class="edge">
<title>Node279545&#45;&gt;Node279578</title>
<path fill="none" stroke="#191970" d="M318.7794,-359.7018C333.9792,-346.0983 354.2942,-325.3786 366,-303 399.784,-238.4134 351.949,-195.9876 402,-143 408.9258,-135.6678 418.4663,-131.1018 428.16,-128.2759"/>
<polygon fill="#191970" stroke="#191970" points="316.2106,-357.2967 310.9485,-366.4925 320.7966,-362.5852 316.2106,-357.2967"/>
</g>
<!-- Node279602 -->
<g id="node23" class="node">
<title>Node279602</title>
<g id="a_node23"><a xlink:href="quickjs_8c.html#a36c1692489542a86dd79a7d39ab8ff95" target="_top" xlink:title="js_array_reduce">
<polygon fill="none" stroke="#000000" points="425.5,-810.5 425.5,-829.5 511.5,-829.5 511.5,-810.5 425.5,-810.5"/>
<text text-anchor="middle" x="468.5" y="-817.5" font-family="Helvetica,sans-Serif" font-size="10.00" fill="#000000">js_array_reduce</text>
</a>
</g>
</g>
<!-- Node279545&#45;&gt;Node279602 -->
<g id="edge26" class="edge">
<title>Node279545&#45;&gt;Node279602</title>
<path fill="none" stroke="#191970" d="M301.1388,-395.5625C309.751,-470.8717 344.2298,-740.8395 402,-801 408.3206,-807.5821 416.7493,-811.9306 425.4773,-814.7916"/>
<polygon fill="#191970" stroke="#191970" points="304.6096,-395.106 300.0173,-385.5582 297.6532,-395.8859 304.6096,-395.106"/>
</g>
<!-- Node279603 -->
<g id="node24" class="node">
<title>Node279603</title>
<g id="a_node24"><a xlink:href="quickjs_8c.html#a9dd41b086da4e13b3487cc9c6e2af2b8" target="_top" xlink:title="js_array_find">
<polygon fill="none" stroke="#000000" points="432.5,-772.5 432.5,-791.5 504.5,-791.5 504.5,-772.5 432.5,-772.5"/>
<text text-anchor="middle" x="468.5" y="-779.5" font-family="Helvetica,sans-Serif" font-size="10.00" fill="#000000">js_array_find</text>
</a>
</g>
</g>
<!-- Node279545&#45;&gt;Node279603 -->
<g id="edge27" class="edge">
<title>Node279545&#45;&gt;Node279603</title>
<path fill="none" stroke="#191970" d="M301.7077,-396.0667C311.7518,-467.6506 349.0488,-709.0773 402,-763 409.9922,-771.1388 421.2104,-775.8536 432.1597,-778.5648"/>
<polygon fill="#191970" stroke="#191970" points="305.1187,-395.1804 300.2856,-385.7522 298.1843,-396.1366 305.1187,-395.1804"/>
</g>
<!-- Node279604 -->
<g id="node25" class="node">
<title>Node279604</title>
<g id="a_node25"><a xlink:href="quickjs_8c.html#ad90c33b4aae1181151bda4a98ac2ef23" target="_top" xlink:title="JS_FlattenIntoArray">
<polygon fill="none" stroke="#ff0000" points="416.5,-716.5 416.5,-735.5 520.5,-735.5 520.5,-716.5 416.5,-716.5"/>
<text text-anchor="middle" x="468.5" y="-723.5" font-family="Helvetica,sans-Serif" font-size="10.00" fill="#000000">JS_FlattenIntoArray</text>
</a>
</g>
</g>
<!-- Node279545&#45;&gt;Node279604 -->
<g id="edge28" class="edge">
<title>Node279545&#45;&gt;Node279604</title>
<path fill="none" stroke="#191970" d="M302.5833,-395.6167C314.6742,-459.779 355.8037,-661.8714 402,-707 406.1227,-711.0274 411.0373,-714.2125 416.3019,-716.7296"/>
<polygon fill="#191970" stroke="#191970" points="305.9929,-394.8072 300.7247,-385.6151 299.1107,-396.0862 305.9929,-394.8072"/>
</g>
<!-- Node279606 -->
<g id="node26" class="node">
<title>Node279606</title>
<g id="a_node26"><a xlink:href="quickjs_8c.html#aed1bf9ce4b9e3a82388679dd6ec7635b" target="_top" xlink:title="js_string_replace">
<polygon fill="none" stroke="#000000" points="423.5,-38.5 423.5,-57.5 513.5,-57.5 513.5,-38.5 423.5,-38.5"/>
<text text-anchor="middle" x="468.5" y="-45.5" font-family="Helvetica,sans-Serif" font-size="10.00" fill="#000000">js_string_replace</text>
</a>
</g>
</g>
<!-- Node279545&#45;&gt;Node279606 -->
<g id="edge30" class="edge">
<title>Node279545&#45;&gt;Node279606</title>
<path fill="none" stroke="#191970" d="M319.4771,-359.6845C334.8873,-346.1982 355.1465,-325.6433 366,-303 411.8612,-207.3212 331.8835,-146.6326 402,-67 407.6337,-60.6017 415.2576,-56.291 423.3344,-53.4021"/>
<polygon fill="#191970" stroke="#191970" points="316.8863,-357.2914 311.5053,-366.418 321.4032,-362.639 316.8863,-357.2914"/>
</g>
<!-- Node279607 -->
<g id="node27" class="node">
<title>Node279607</title>
<g id="a_node27"><a xlink:href="quickjs_8c.html#a624282391413d4c5a030adbd8b77aa80" target="_top" xlink:title="internalize_json_property">
<polygon fill="none" stroke="#ff0000" points="406,-660.5 406,-679.5 531,-679.5 531,-660.5 406,-660.5"/>
<text text-anchor="middle" x="468.5" y="-667.5" font-family="Helvetica,sans-Serif" font-size="10.00" fill="#000000">internalize_json_property</text>
</a>
</g>
</g>
<!-- Node279545&#45;&gt;Node279607 -->
<g id="edge31" class="edge">
<title>Node279545&#45;&gt;Node279607</title>
<path fill="none" stroke="#191970" d="M300.4886,-395.9326C305.3453,-446.3747 325.1884,-580.1051 402,-651 406.2352,-654.909 411.2201,-658.02 416.5247,-660.495"/>
<polygon fill="#191970" stroke="#191970" points="303.9549,-395.3916 299.6066,-385.7302 296.9809,-395.9945 303.9549,-395.3916"/>
</g>
<!-- Node279609 -->
<g id="node28" class="node">
<title>Node279609</title>
<g id="a_node28"><a xlink:href="quickjs_8c.html#a0da6493b4bc0edb7ddddfab807241d0b" target="_top" xlink:title="js_json_check">
<polygon fill="none" stroke="#ff0000" points="429,-.5 429,-19.5 508,-19.5 508,-.5 429,-.5"/>
<text text-anchor="middle" x="468.5" y="-7.5" font-family="Helvetica,sans-Serif" font-size="10.00" fill="#000000">js_json_check</text>
</a>
</g>
</g>
<!-- Node279545&#45;&gt;Node279609 -->
<g id="edge33" class="edge">
<title>Node279545&#45;&gt;Node279609</title>
<path fill="none" stroke="#191970" d="M319.6075,-359.7462C335.0896,-346.2939 355.3818,-325.7546 366,-303 417.9379,-191.6974 321.793,-122.0197 402,-29 408.8216,-21.0887 418.687,-16.3602 428.7395,-13.5649"/>
<polygon fill="#191970" stroke="#191970" points="317.0115,-357.3551 311.5932,-366.4596 321.5066,-362.7211 317.0115,-357.3551"/>
</g>
<!-- Node279590&#45;&gt;Node279590 -->
<g id="edge19" class="edge">
<title>Node279590&#45;&gt;Node279590</title>
<path fill="none" stroke="#191970" d="M437.0629,-294.2746C437.9592,-299.741 448.4382,-304 468.5,-304 498.3594,-304 506.9906,-294.5653 494.3937,-285.7571"/>
<polygon fill="#191970" stroke="#191970" points="440.085,-296.0475 442.6063,-285.7571 434.2181,-292.2291 440.085,-296.0475"/>
</g>
<!-- Node279598&#45;&gt;Node279525 -->
<g id="edge22" class="edge">
<title>Node279598&#45;&gt;Node279525</title>
<path fill="none" stroke="#191970" d="M416.7366,-98.8526C411.6655,-100.6845 406.6727,-102.73 402,-105 300.8798,-154.1243 197.5066,-244.6431 164.9593,-274.3077"/>
<polygon fill="#191970" stroke="#191970" points="418.1422,-102.0735 426.5217,-95.59 415.9281,-95.4329 418.1422,-102.0735"/>
</g>
<!-- Node279604&#45;&gt;Node279604 -->
<g id="edge29" class="edge">
<title>Node279604&#45;&gt;Node279604</title>
<path fill="none" stroke="#191970" d="M437.0629,-744.2746C437.9592,-749.741 448.4382,-754 468.5,-754 498.3594,-754 506.9906,-744.5653 494.3937,-735.7571"/>
<polygon fill="#191970" stroke="#191970" points="440.085,-746.0475 442.6063,-735.7571 434.2181,-742.2291 440.085,-746.0475"/>
</g>
<!-- Node279607&#45;&gt;Node279607 -->
<g id="edge32" class="edge">
<title>Node279607&#45;&gt;Node279607</title>
<path fill="none" stroke="#191970" d="M437.0629,-688.2746C437.9592,-693.741 448.4382,-698 468.5,-698 498.3594,-698 506.9906,-688.5653 494.3937,-679.7571"/>
<polygon fill="#191970" stroke="#191970" points="440.085,-690.0475 442.6063,-679.7571 434.2181,-686.2291 440.085,-690.0475"/>
</g>
<!-- Node279631&#45;&gt;Node279525 -->
<g id="edge35" class="edge">
<title>Node279631&#45;&gt;Node279525</title>
<path fill="none" stroke="#191970" d="M221.7059,-290.7354C212.9651,-290.6845 204.3232,-290.5014 196.2954,-290.186"/>
<polygon fill="#191970" stroke="#191970" points="221.9819,-294.2354 231.9815,-290.7342 221.981,-287.2354 221.9819,-294.2354"/>
</g>
<!-- Node279645&#45;&gt;Node279525 -->
<g id="edge37" class="edge">
<title>Node279645&#45;&gt;Node279525</title>
<path fill="none" stroke="#191970" d="M272.0852,-113.696C258.7437,-118.1037 243.146,-124.0129 232,-134 186.716,-174.5757 165.1198,-247.5005 157.6584,-274.2978"/>
<polygon fill="#191970" stroke="#191970" points="273.2985,-116.9822 281.7367,-110.5754 271.1449,-110.3217 273.2985,-116.9822"/>
</g>
<!-- Node279645&#45;&gt;Node279606 -->
<g id="edge39" class="edge">
<title>Node279645&#45;&gt;Node279606</title>
<path fill="none" stroke="#191970" d="M336.5897,-88.1858C356.0522,-81.6544 380.2366,-73.6981 402,-67 412.3283,-63.8213 423.6137,-60.5293 433.9066,-57.5965"/>
<polygon fill="#191970" stroke="#191970" points="335.2393,-84.9474 326.8804,-91.4573 337.4745,-91.581 335.2393,-84.9474"/>
</g>
<!-- Node279645&#45;&gt;Node279609 -->
<g id="edge38" class="edge">
<title>Node279645&#45;&gt;Node279609</title>
<path fill="none" stroke="#191970" d="M317.8654,-84.8954C337.6589,-68.7273 370.2521,-44.109 402,-29 410.3483,-25.027 419.6908,-21.7251 428.6741,-19.05"/>
<polygon fill="#191970" stroke="#191970" points="315.4189,-82.3776 309.9633,-91.4598 319.8919,-87.7621 315.4189,-82.3776"/>
</g>
</g>
</svg>
