<?xml version="1.0" encoding="UTF-8" standalone="no"?>
<!DOCTYPE svg PUBLIC "-//W3C//DTD SVG 1.1//EN"
 "http://www.w3.org/Graphics/SVG/1.1/DTD/svg11.dtd">
<!-- Generated by graphviz version 2.40.1 (20161225.0304)
 -->
<!-- Title: JS_AddIntrinsicRegExp Pages: 1 -->
<!--zoomable 810 -->
<svg id="main" version="1.1" xmlns="http://www.w3.org/2000/svg" xmlns:xlink="http://www.w3.org/1999/xlink" xml:space="preserve" onload="init(evt)">
<style type="text/css"><![CDATA[
.edge:hover path { stroke: red; }
.edge:hover polygon { stroke: red; fill: red; }
]]></style>
<script type="text/javascript"><![CDATA[
var edges = document.getElementsByTagName('g');
if (edges && edges.length) {
  for (var i=0;i<edges.length;i++) {
    if (edges[i].id.substr(0,4)=='edge') {
      edges[i].setAttribute('class','edge');
    }
  }
}
]]></script>
        <defs>
                <circle id="rim" cx="0" cy="0" r="7"/>
                <circle id="rim2" cx="0" cy="0" r="3.5"/>
                <g id="zoomPlus">
                        <use xlink:href="#rim" fill="#404040">
                                <set attributeName="fill" to="#808080" begin="zoomplus.mouseover" end="zoomplus.mouseout"/>
                        </use>
                        <path d="M-4,0h8M0,-4v8" fill="none" stroke="white" stroke-width="1.5" pointer-events="none"/>
                </g>
                <g id="zoomMin">
                        <use xlink:href="#rim" fill="#404040">
                                <set attributeName="fill" to="#808080" begin="zoomminus.mouseover" end="zoomminus.mouseout"/>
                        </use>
                        <path d="M-4,0h8" fill="none" stroke="white" stroke-width="1.5" pointer-events="none"/>
                </g>
                <g id="dirArrow">
                        <path fill="none" stroke="white" stroke-width="1.5" d="M0,-3.0v7 M-2.5,-0.5L0,-3.0L2.5,-0.5"/>
                </g>
               <g id="resetDef">
                       <use xlink:href="#rim2" fill="#404040">
                               <set attributeName="fill" to="#808080" begin="reset.mouseover" end="reset.mouseout"/>
                       </use>
               </g>
        </defs>

<script type="text/javascript">
var viewWidth = 957;
var viewHeight = 810;
var sectionId = 'dynsection-1634';
</script>
<script xlink:href="svgpan.js"/>
<svg id="graph" class="graph">
<g id="viewport">
<title>JS_AddIntrinsicRegExp</title>
<!-- Node437548 -->
<g id="node1" class="node">
<title>Node437548</title>
<polygon fill="#bfbfbf" stroke="#000000" points="0,-332.5 0,-351.5 121,-351.5 121,-332.5 0,-332.5"/>
<text text-anchor="middle" x="60.5" y="-339.5" font-family="Helvetica,sans-Serif" font-size="10.00" fill="#000000">JS_AddIntrinsicRegExp</text>
</g>
<!-- Node437549 -->
<g id="node2" class="node">
<title>Node437549</title>
<g id="a_node2"><a xlink:href="quickjs_8c.html#aa24c64e9ce871601a39b40dbfee0deb4" target="_top" xlink:title="JS_AddIntrinsicRegExpCompiler">
<polygon fill="none" stroke="#000000" points="157,-427.5 157,-446.5 317,-446.5 317,-427.5 157,-427.5"/>
<text text-anchor="middle" x="237" y="-434.5" font-family="Helvetica,sans-Serif" font-size="10.00" fill="#000000">JS_AddIntrinsicRegExpCompiler</text>
</a>
</g>
</g>
<!-- Node437548&#45;&gt;Node437549 -->
<g id="edge1" class="edge">
<title>Node437548&#45;&gt;Node437549</title>
<path fill="none" stroke="#191970" d="M75.6337,-351.5146C94.4324,-363.1984 127.6187,-383.3853 157,-399 172.9273,-407.4646 191.0555,-416.1506 206.0234,-423.0779"/>
<polygon fill="#191970" stroke="#191970" points="204.7996,-426.3671 215.3482,-427.3561 207.7187,-420.0048 204.7996,-426.3671"/>
</g>
<!-- Node437600 -->
<g id="node12" class="node">
<title>Node437600</title>
<g id="a_node12"><a xlink:href="quickjs_8h.html#a775522f2d084fc8fa0fcb33f390006b4" target="_top" xlink:title="JS_DupValue">
<polygon fill="none" stroke="#000000" points="867.5,-712.5 867.5,-731.5 944.5,-731.5 944.5,-712.5 867.5,-712.5"/>
<text text-anchor="middle" x="906" y="-719.5" font-family="Helvetica,sans-Serif" font-size="10.00" fill="#000000">JS_DupValue</text>
</a>
</g>
</g>
<!-- Node437548&#45;&gt;Node437600 -->
<g id="edge16" class="edge">
<title>Node437548&#45;&gt;Node437600</title>
<path fill="none" stroke="#191970" d="M62.9196,-351.5242C80.1777,-417.0073 190.8224,-798 429,-798 429,-798 429,-798 593,-798 697.3423,-798 729.0922,-815.0747 827,-779 850.8342,-770.2181 873.8932,-752.122 888.8832,-738.663"/>
<polygon fill="#191970" stroke="#191970" points="891.383,-741.1181 896.3345,-731.7514 886.6226,-735.9859 891.383,-741.1181"/>
</g>
<!-- Node438053 -->
<g id="node15" class="node">
<title>Node438053</title>
<g id="a_node15"><a xlink:href="quickjs_8c.html#a293feb2179c9a722b2bd410bc2c5c173" target="_top" xlink:title="JS_NewGlobalCConstructor">
<polygon fill="none" stroke="#000000" points="359,-104.5 359,-123.5 499,-123.5 499,-104.5 359,-104.5"/>
<text text-anchor="middle" x="429" y="-111.5" font-family="Helvetica,sans-Serif" font-size="10.00" fill="#000000">JS_NewGlobalCConstructor</text>
</a>
</g>
</g>
<!-- Node437548&#45;&gt;Node438053 -->
<g id="edge17" class="edge">
<title>Node437548&#45;&gt;Node438053</title>
<path fill="none" stroke="#191970" d="M71.6747,-332.2791C109.0175,-300.2365 233.8529,-196.652 353,-138 361.845,-133.6459 371.6537,-129.8564 381.2044,-126.6544"/>
<polygon fill="#191970" stroke="#191970" points="382.546,-129.9005 391.0127,-123.5313 380.4222,-123.2304 382.546,-129.9005"/>
</g>
<!-- Node437962 -->
<g id="node18" class="node">
<title>Node437962</title>
<g id="a_node18"><a xlink:href="quickjs_8c.html#afc0d8ea75588216ec132a6e1655524a7" target="_top" xlink:title="JS_NewObject">
<polygon fill="none" stroke="#ff0000" points="195.5,-332.5 195.5,-351.5 278.5,-351.5 278.5,-332.5 195.5,-332.5"/>
<text text-anchor="middle" x="237" y="-339.5" font-family="Helvetica,sans-Serif" font-size="10.00" fill="#000000">JS_NewObject</text>
</a>
</g>
</g>
<!-- Node437548&#45;&gt;Node437962 -->
<g id="edge22" class="edge">
<title>Node437548&#45;&gt;Node437962</title>
<path fill="none" stroke="#191970" d="M121.2413,-342C142.0455,-342 165.1161,-342 185.1514,-342"/>
<polygon fill="#191970" stroke="#191970" points="185.3239,-345.5001 195.3239,-342 185.3239,-338.5001 185.3239,-345.5001"/>
</g>
<!-- Node437861 -->
<g id="node19" class="node">
<title>Node437861</title>
<g id="a_node19"><a xlink:href="quickjs_8c.html#a884d294acbf5be675ffc760e38bd0521" target="_top" xlink:title="JS_NewObjectProto">
<polygon fill="none" stroke="#ff0000" points="184,-294.5 184,-313.5 290,-313.5 290,-294.5 184,-294.5"/>
<text text-anchor="middle" x="237" y="-301.5" font-family="Helvetica,sans-Serif" font-size="10.00" fill="#000000">JS_NewObjectProto</text>
</a>
</g>
</g>
<!-- Node437548&#45;&gt;Node437861 -->
<g id="edge23" class="edge">
<title>Node437548&#45;&gt;Node437861</title>
<path fill="none" stroke="#191970" d="M105.0384,-332.411C128.6442,-327.3287 157.8325,-321.0446 182.7511,-315.6797"/>
<polygon fill="#191970" stroke="#191970" points="183.7426,-319.0465 192.7819,-313.5201 182.2692,-312.2033 183.7426,-319.0465"/>
</g>
<!-- Node438060 -->
<g id="node20" class="node">
<title>Node438060</title>
<g id="a_node20"><a xlink:href="quickjs_8c.html#a233052710c228313122c39c231a23ddf" target="_top" xlink:title="js_regexp_constructor">
<polygon fill="none" stroke="#000000" points="180.5,-370.5 180.5,-389.5 293.5,-389.5 293.5,-370.5 180.5,-370.5"/>
<text text-anchor="middle" x="237" y="-377.5" font-family="Helvetica,sans-Serif" font-size="10.00" fill="#000000">js_regexp_constructor</text>
</a>
</g>
</g>
<!-- Node437548&#45;&gt;Node438060 -->
<g id="edge24" class="edge">
<title>Node437548&#45;&gt;Node438060</title>
<path fill="none" stroke="#191970" d="M105.0384,-351.589C128.6442,-356.6713 157.8325,-362.9554 182.7511,-368.3203"/>
<polygon fill="#191970" stroke="#191970" points="182.2692,-371.7967 192.7819,-370.4799 183.7426,-364.9535 182.2692,-371.7967"/>
</g>
<!-- Node438065 -->
<g id="node27" class="node">
<title>Node438065</title>
<g id="a_node27"><a xlink:href="quickjs_8c.html#ac00854b7f1f0f8567af964a2f8f2adb0" target="_top" xlink:title="JS_SetPropertyFunctionList">
<polygon fill="none" stroke="#000000" points="167.5,-47.5 167.5,-66.5 306.5,-66.5 306.5,-47.5 167.5,-47.5"/>
<text text-anchor="middle" x="237" y="-54.5" font-family="Helvetica,sans-Serif" font-size="10.00" fill="#000000">JS_SetPropertyFunctionList</text>
</a>
</g>
</g>
<!-- Node437548&#45;&gt;Node438065 -->
<g id="edge45" class="edge">
<title>Node437548&#45;&gt;Node438065</title>
<path fill="none" stroke="#191970" d="M65.9363,-332.138C80.283,-306.2269 120.5683,-234.2099 157,-176 179.7513,-139.6484 208.1082,-98.3351 224.2246,-75.1982"/>
<polygon fill="#191970" stroke="#191970" points="227.2827,-76.9322 230.1422,-66.7305 221.545,-72.9223 227.2827,-76.9322"/>
</g>
<!-- Node437550 -->
<g id="node3" class="node">
<title>Node437550</title>
<g id="a_node3"><a xlink:href="quickjs_8c.html#ab0bd3fbfe9b7f004c067b103a6d60d03" target="_top" xlink:title="js_compile_regexp">
<polygon fill="none" stroke="#ff0000" points="380,-465.5 380,-484.5 478,-484.5 478,-465.5 380,-465.5"/>
<text text-anchor="middle" x="429" y="-472.5" font-family="Helvetica,sans-Serif" font-size="10.00" fill="#000000">js_compile_regexp</text>
</a>
</g>
</g>
<!-- Node437549&#45;&gt;Node437550 -->
<g id="edge2" class="edge">
<title>Node437549&#45;&gt;Node437550</title>
<path fill="none" stroke="#191970" d="M285.4497,-446.589C311.471,-451.739 343.7279,-458.1232 371.0688,-463.5344"/>
<polygon fill="#191970" stroke="#191970" points="370.4094,-466.9718 380.8987,-465.4799 371.7685,-460.105 370.4094,-466.9718"/>
</g>
<!-- Node437551 -->
<g id="node4" class="node">
<title>Node437551</title>
<g id="a_node4"><a xlink:href="quickjs_8c.html#a80e54dcf9ac687d4ccc2f90273565f30" target="_top" xlink:title="js_free">
<polygon fill="none" stroke="#ff0000" points="570,-598.5 570,-617.5 616,-617.5 616,-598.5 570,-598.5"/>
<text text-anchor="middle" x="593" y="-605.5" font-family="Helvetica,sans-Serif" font-size="10.00" fill="#000000">js_free</text>
</a>
</g>
</g>
<!-- Node437550&#45;&gt;Node437551 -->
<g id="edge3" class="edge">
<title>Node437550&#45;&gt;Node437551</title>
<path fill="none" stroke="#191970" d="M436.0367,-484.6647C452.2317,-506.2727 494.351,-558.9491 541,-589 546.9174,-592.8119 553.7048,-595.9978 560.38,-598.6039"/>
<polygon fill="#191970" stroke="#191970" points="559.3708,-601.9596 569.9655,-602.0125 561.7162,-595.3642 559.3708,-601.9596"/>
</g>
<!-- Node437553 -->
<g id="node5" class="node">
<title>Node437553</title>
<g id="a_node5"><a xlink:href="quickjs_8c.html#ae0bc4f65da64810facb2cb9e476eda2e" target="_top" xlink:title="JS_FreeCString">
<polygon fill="none" stroke="#000000" points="711,-446.5 711,-465.5 797,-465.5 797,-446.5 711,-446.5"/>
<text text-anchor="middle" x="754" y="-453.5" font-family="Helvetica,sans-Serif" font-size="10.00" fill="#000000">JS_FreeCString</text>
</a>
</g>
</g>
<!-- Node437550&#45;&gt;Node437553 -->
<g id="edge4" class="edge">
<title>Node437550&#45;&gt;Node437553</title>
<path fill="none" stroke="#191970" d="M478.0077,-472.1349C537.8516,-468.6364 638.7121,-462.7399 700.5188,-459.1266"/>
<polygon fill="#191970" stroke="#191970" points="701.0593,-462.6011 710.8379,-458.5233 700.6507,-455.613 701.0593,-462.6011"/>
</g>
<!-- Node437590 -->
<g id="node7" class="node">
<title>Node437590</title>
<g id="a_node7"><a xlink:href="quickjs_8h.html#a4e407128a9605afb77523e49e9a627fd" target="_top" xlink:title="JS_IsUndefined">
<polygon fill="none" stroke="#000000" points="550,-408.5 550,-427.5 636,-427.5 636,-408.5 550,-408.5"/>
<text text-anchor="middle" x="593" y="-415.5" font-family="Helvetica,sans-Serif" font-size="10.00" fill="#000000">JS_IsUndefined</text>
</a>
</g>
</g>
<!-- Node437550&#45;&gt;Node437590 -->
<g id="edge6" class="edge">
<title>Node437550&#45;&gt;Node437590</title>
<path fill="none" stroke="#191970" d="M456.4499,-465.4595C483.6487,-456.0062 525.5017,-441.4598 555.703,-430.963"/>
<polygon fill="#191970" stroke="#191970" points="557.1638,-434.1607 565.4605,-427.5716 554.8657,-427.5487 557.1638,-434.1607"/>
</g>
<!-- Node437591 -->
<g id="node8" class="node">
<title>Node437591</title>
<g id="a_node8"><a xlink:href="quickjs_8c.html#aa923510185fe24e3083baf7405b09f51" target="_top" xlink:title="js_new_string8">
<polygon fill="none" stroke="#ff0000" points="552,-560.5 552,-579.5 634,-579.5 634,-560.5 552,-560.5"/>
<text text-anchor="middle" x="593" y="-567.5" font-family="Helvetica,sans-Serif" font-size="10.00" fill="#000000">js_new_string8</text>
</a>
</g>
</g>
<!-- Node437550&#45;&gt;Node437591 -->
<g id="edge7" class="edge">
<title>Node437550&#45;&gt;Node437591</title>
<path fill="none" stroke="#191970" d="M442.7835,-484.5793C463.5695,-498.8297 504.4049,-526.0697 541,-546 547.3948,-549.4827 554.3863,-552.9369 561.1099,-556.0939"/>
<polygon fill="#191970" stroke="#191970" points="560.1194,-559.4899 570.6683,-560.4752 563.0362,-553.1266 560.1194,-559.4899"/>
</g>
<!-- Node437617 -->
<g id="node10" class="node">
<title>Node437617</title>
<g id="a_node10"><a xlink:href="quickjs_8h.html#a1e7f56471f8608df9405987087a56070" target="_top" xlink:title="JS_ToCStringLen">
<polygon fill="none" stroke="#000000" points="546,-484.5 546,-503.5 640,-503.5 640,-484.5 546,-484.5"/>
<text text-anchor="middle" x="593" y="-491.5" font-family="Helvetica,sans-Serif" font-size="10.00" fill="#000000">JS_ToCStringLen</text>
</a>
</g>
</g>
<!-- Node437550&#45;&gt;Node437617 -->
<g id="edge9" class="edge">
<title>Node437550&#45;&gt;Node437617</title>
<path fill="none" stroke="#191970" d="M478.2054,-480.7006C496.2764,-482.7942 516.8915,-485.1826 535.6184,-487.3521"/>
<polygon fill="#191970" stroke="#191970" points="535.4635,-490.8575 545.7999,-488.5317 536.2692,-483.904 535.4635,-490.8575"/>
</g>
<!-- Node437618 -->
<g id="node11" class="node">
<title>Node437618</title>
<g id="a_node11"><a xlink:href="quickjs_8c.html#af49e67b73f845dc1f9c3ee648dd9f95c" target="_top" xlink:title="JS_ToCStringLen2">
<polygon fill="none" stroke="#ff0000" points="704.5,-503.5 704.5,-522.5 803.5,-522.5 803.5,-503.5 704.5,-503.5"/>
<text text-anchor="middle" x="754" y="-510.5" font-family="Helvetica,sans-Serif" font-size="10.00" fill="#000000">JS_ToCStringLen2</text>
</a>
</g>
</g>
<!-- Node437550&#45;&gt;Node437618 -->
<g id="edge15" class="edge">
<title>Node437550&#45;&gt;Node437618</title>
<path fill="none" stroke="#191970" d="M450.3484,-484.5914C472.4933,-493.9752 508.3828,-507.6174 541,-513 592.1733,-521.4448 651.209,-520.6362 694.1313,-518.1788"/>
<polygon fill="#191970" stroke="#191970" points="694.3667,-521.671 704.1314,-517.5599 693.9342,-514.6844 694.3667,-521.671"/>
</g>
<!-- Node437554 -->
<g id="node6" class="node">
<title>Node437554</title>
<g id="a_node6"><a xlink:href="quickjs_8h.html#afaa20c47565bc704c6c85f3d77254e7d" target="_top" xlink:title="JS_FreeValue">
<polygon fill="none" stroke="#ff0000" points="867,-408.5 867,-427.5 945,-427.5 945,-408.5 867,-408.5"/>
<text text-anchor="middle" x="906" y="-415.5" font-family="Helvetica,sans-Serif" font-size="10.00" fill="#000000">JS_FreeValue</text>
</a>
</g>
</g>
<!-- Node437553&#45;&gt;Node437554 -->
<g id="edge5" class="edge">
<title>Node437553&#45;&gt;Node437554</title>
<path fill="none" stroke="#191970" d="M792.356,-446.411C812.3237,-441.4191 836.9295,-435.2676 858.1334,-429.9666"/>
<polygon fill="#191970" stroke="#191970" points="859.0673,-433.341 867.9198,-427.5201 857.3695,-426.55 859.0673,-433.341"/>
</g>
<!-- Node437596 -->
<g id="node9" class="node">
<title>Node437596</title>
<g id="a_node9"><a xlink:href="quickjs_8c.html#a260bfa297ff6cb5bd18e229afaa54663" target="_top" xlink:title="JS_AtomToString">
<polygon fill="none" stroke="#ff0000" points="707,-598.5 707,-617.5 801,-617.5 801,-598.5 707,-598.5"/>
<text text-anchor="middle" x="754" y="-605.5" font-family="Helvetica,sans-Serif" font-size="10.00" fill="#000000">JS_AtomToString</text>
</a>
</g>
</g>
<!-- Node437591&#45;&gt;Node437596 -->
<g id="edge8" class="edge">
<title>Node437591&#45;&gt;Node437596</title>
<path fill="none" stroke="#191970" d="M633.6271,-579.589C654.9685,-584.6261 681.3119,-590.8438 703.9081,-596.1771"/>
<polygon fill="#191970" stroke="#191970" points="703.1284,-599.5891 713.665,-598.4799 704.7365,-592.7763 703.1284,-599.5891"/>
</g>
<!-- Node437617&#45;&gt;Node437618 -->
<g id="edge10" class="edge">
<title>Node437617&#45;&gt;Node437618</title>
<path fill="none" stroke="#191970" d="M640.0007,-499.5467C656.9938,-501.5521 676.411,-503.8435 694.3456,-505.96"/>
<polygon fill="#191970" stroke="#191970" points="694.0757,-509.4524 704.417,-507.1486 694.8962,-502.5006 694.0757,-509.4524"/>
</g>
<!-- Node437618&#45;&gt;Node437554 -->
<g id="edge12" class="edge">
<title>Node437618&#45;&gt;Node437554</title>
<path fill="none" stroke="#191970" d="M774.2613,-503.4392C789.1581,-496.1749 809.7297,-485.6477 827,-475 847.7713,-462.1938 870.2231,-445.7171 885.8632,-433.775"/>
<polygon fill="#191970" stroke="#191970" points="888.0141,-436.5362 893.7975,-427.6591 883.7405,-430.9921 888.0141,-436.5362"/>
</g>
<!-- Node437618&#45;&gt;Node437600 -->
<g id="edge11" class="edge">
<title>Node437618&#45;&gt;Node437600</title>
<path fill="none" stroke="#191970" d="M764.7078,-522.6502C779.6879,-536.4667 807.2756,-563.0875 827,-589 855.9919,-627.0875 882.907,-676.6077 896.5844,-703.18"/>
<polygon fill="#191970" stroke="#191970" points="893.5026,-704.8413 901.1549,-712.1688 899.7423,-701.6685 893.5026,-704.8413"/>
</g>
<!-- Node437619 -->
<g id="node13" class="node">
<title>Node437619</title>
<g id="a_node13"><a xlink:href="quickjs_8h.html#ad80a83d73e9b7d872b88fbf2943aebe9" target="_top" xlink:title="JS_IsException">
<polygon fill="none" stroke="#000000" points="863,-304.5 863,-323.5 949,-323.5 949,-304.5 863,-304.5"/>
<text text-anchor="middle" x="906" y="-311.5" font-family="Helvetica,sans-Serif" font-size="10.00" fill="#000000">JS_IsException</text>
</a>
</g>
</g>
<!-- Node437618&#45;&gt;Node437619 -->
<g id="edge13" class="edge">
<title>Node437618&#45;&gt;Node437619</title>
<path fill="none" stroke="#191970" d="M782.0503,-503.4376C796.9157,-497.2253 814.6107,-487.8639 827,-475 852.9274,-448.0796 846.5628,-432.5672 863,-399 874.1869,-376.1548 887.4538,-350.077 896.2628,-332.8982"/>
<polygon fill="#191970" stroke="#191970" points="899.4273,-334.3977 900.8849,-323.9036 893.2012,-331.1983 899.4273,-334.3977"/>
</g>
<!-- Node437620 -->
<g id="node14" class="node">
<title>Node437620</title>
<g id="a_node14"><a xlink:href="quickjs_8c.html#a7bcb8e1a20cbc8374a5f9ba4a2088cec" target="_top" xlink:title="JS_ToString">
<polygon fill="none" stroke="#ff0000" points="870.5,-588.5 870.5,-607.5 941.5,-607.5 941.5,-588.5 870.5,-588.5"/>
<text text-anchor="middle" x="906" y="-595.5" font-family="Helvetica,sans-Serif" font-size="10.00" fill="#000000">JS_ToString</text>
</a>
</g>
</g>
<!-- Node437618&#45;&gt;Node437620 -->
<g id="edge14" class="edge">
<title>Node437618&#45;&gt;Node437620</title>
<path fill="none" stroke="#191970" d="M771.1409,-522.5854C797.5968,-537.3798 848.5712,-565.8852 879.7105,-583.2986"/>
<polygon fill="#191970" stroke="#191970" points="878.2523,-586.4932 888.6886,-588.3193 881.6688,-580.3836 878.2523,-586.4932"/>
</g>
<!-- Node438054 -->
<g id="node16" class="node">
<title>Node438054</title>
<g id="a_node16"><a xlink:href="quickjs_8c.html#a76d4772691a319f48dc636a0e7f6c1ed" target="_top" xlink:title="JS_NewCFunction2">
<polygon fill="none" stroke="#ff0000" points="541,-95.5 541,-114.5 645,-114.5 645,-95.5 541,-95.5"/>
<text text-anchor="middle" x="593" y="-102.5" font-family="Helvetica,sans-Serif" font-size="10.00" fill="#000000">JS_NewCFunction2</text>
</a>
</g>
</g>
<!-- Node438053&#45;&gt;Node438054 -->
<g id="edge18" class="edge">
<title>Node438053&#45;&gt;Node438054</title>
<path fill="none" stroke="#191970" d="M499.0265,-110.1571C509.4737,-109.5838 520.1859,-108.9959 530.465,-108.4318"/>
<polygon fill="#191970" stroke="#191970" points="530.7807,-111.9198 540.5738,-107.877 530.397,-104.9304 530.7807,-111.9198"/>
</g>
<!-- Node438056 -->
<g id="node17" class="node">
<title>Node438056</title>
<g id="a_node17"><a xlink:href="quickjs_8c.html#acd5457d29e9641ae5e3a1d778f94bd0e" target="_top" xlink:title="JS_NewGlobalCConstructor2">
<polygon fill="none" stroke="#ff0000" points="681,-408.5 681,-427.5 827,-427.5 827,-408.5 681,-408.5"/>
<text text-anchor="middle" x="754" y="-415.5" font-family="Helvetica,sans-Serif" font-size="10.00" fill="#000000">JS_NewGlobalCConstructor2</text>
</a>
</g>
</g>
<!-- Node438053&#45;&gt;Node438056 -->
<g id="edge19" class="edge">
<title>Node438053&#45;&gt;Node438056</title>
<path fill="none" stroke="#191970" d="M445.7257,-123.5422C485.0649,-146.6943 584.6759,-209.5327 645,-285 668.0861,-313.8815 657.9392,-331.0983 681,-360 694.5874,-377.0288 714.0646,-392.1831 729.4834,-402.7273"/>
<polygon fill="#191970" stroke="#191970" points="727.7482,-405.7762 738.0176,-408.3822 731.6148,-399.941 727.7482,-405.7762"/>
</g>
<!-- Node438056&#45;&gt;Node437554 -->
<g id="edge21" class="edge">
<title>Node438056&#45;&gt;Node437554</title>
<path fill="none" stroke="#191970" d="M827.3286,-418C837.2571,-418 847.2464,-418 856.6177,-418"/>
<polygon fill="#191970" stroke="#191970" points="856.8995,-421.5001 866.8994,-418 856.8994,-414.5001 856.8995,-421.5001"/>
</g>
<!-- Node438056&#45;&gt;Node437600 -->
<g id="edge20" class="edge">
<title>Node438056&#45;&gt;Node437600</title>
<path fill="none" stroke="#191970" d="M814.5289,-427.6193C819.1486,-430.1092 823.4034,-433.1915 827,-437 883.0147,-496.3157 839.433,-538.8937 863,-617 872.3462,-647.9756 887.4004,-682.4267 896.9907,-703.1424"/>
<polygon fill="#191970" stroke="#191970" points="893.9112,-704.8188 901.3297,-712.3829 900.2474,-701.8435 893.9112,-704.8188"/>
</g>
<!-- Node438060&#45;&gt;Node437550 -->
<g id="edge26" class="edge">
<title>Node438060&#45;&gt;Node437550</title>
<path fill="none" stroke="#191970" d="M257.4603,-389.5306C273.668,-397.1256 296.8557,-408.092 317,-418 345.9507,-432.2394 378.8258,-449.0472 401.4317,-460.7051"/>
<polygon fill="#191970" stroke="#191970" points="399.9589,-463.8837 410.4499,-465.3635 403.1716,-457.6644 399.9589,-463.8837"/>
</g>
<!-- Node438060&#45;&gt;Node437554 -->
<g id="edge28" class="edge">
<title>Node438060&#45;&gt;Node437554</title>
<path fill="none" stroke="#191970" d="M293.5502,-372.998C301.9659,-370.197 310.113,-366.3289 317,-361 344.0454,-340.0732 324.0856,-311.2575 353,-293 407.887,-258.3425 590.0585,-250.4289 645,-285 676.2946,-304.6916 652.4314,-336.5277 681,-360 684.4717,-362.8524 792.152,-389.8421 857.2677,-405.98"/>
<polygon fill="#191970" stroke="#191970" points="856.7823,-409.4655 867.3304,-408.4716 858.4647,-402.6707 856.7823,-409.4655"/>
</g>
<!-- Node438060&#45;&gt;Node437590 -->
<g id="edge38" class="edge">
<title>Node438060&#45;&gt;Node437590</title>
<path fill="none" stroke="#191970" d="M293.6139,-387.0676C312.4923,-389.3617 333.6438,-391.8644 353,-394 417.1156,-401.0741 490.9697,-408.3247 539.6274,-412.978"/>
<polygon fill="#191970" stroke="#191970" points="539.3283,-416.4653 549.6154,-413.9305 539.9929,-409.4969 539.3283,-416.4653"/>
</g>
<!-- Node438060&#45;&gt;Node437596 -->
<g id="edge25" class="edge">
<title>Node438060&#45;&gt;Node437596</title>
<path fill="none" stroke="#191970" d="M269.3083,-389.5756C285.2599,-395.628 303.8513,-404.8372 317,-418 343.4144,-444.4428 328.9582,-465.383 353,-494 418.8368,-572.3656 443.4612,-595.9864 541,-627 599.6308,-645.6424 671.6084,-632.1879 715.0854,-620.379"/>
<polygon fill="#191970" stroke="#191970" points="716.298,-623.6736 724.9708,-617.588 714.396,-616.9369 716.298,-623.6736"/>
</g>
<!-- Node438060&#45;&gt;Node437600 -->
<g id="edge27" class="edge">
<title>Node438060&#45;&gt;Node437600</title>
<path fill="none" stroke="#191970" d="M274.5213,-389.5663C289.9072,-395.3456 306.5286,-404.3281 317,-418 371.3856,-489.0085 292.1737,-550.4243 353,-616 485.989,-759.373 748.8166,-743.4008 857.3544,-729.5696"/>
<polygon fill="#191970" stroke="#191970" points="857.9131,-733.0263 867.3669,-728.2432 856.9938,-726.0869 857.9131,-733.0263"/>
</g>
<!-- Node438060&#45;&gt;Node437619 -->
<g id="edge37" class="edge">
<title>Node438060&#45;&gt;Node437619</title>
<path fill="none" stroke="#191970" d="M293.7892,-375.0579C302.4793,-372.0446 310.6529,-367.5714 317,-361 373.3762,-302.6322 290.2168,-233.4136 353,-182 520.6525,-44.7083 807.451,-239.9696 885.745,-298.375"/>
<polygon fill="#191970" stroke="#191970" points="883.7589,-301.261 893.8494,-304.491 887.9756,-295.6735 883.7589,-301.261"/>
</g>
<!-- Node438060&#45;&gt;Node437620 -->
<g id="edge44" class="edge">
<title>Node438060&#45;&gt;Node437620</title>
<path fill="none" stroke="#191970" d="M273.3349,-389.5464C288.8749,-395.3709 305.948,-404.3945 317,-418 359.9551,-470.8795 308.7321,-515.2145 353,-567 411.78,-635.7621 452.2817,-627.3261 541,-645 665.9082,-669.8835 702.8533,-655.4401 827,-627 843.3152,-623.2625 860.8489,-617.0624 875.2431,-611.3523"/>
<polygon fill="#191970" stroke="#191970" points="876.716,-614.5316 884.6533,-607.5138 874.072,-608.0501 876.716,-614.5316"/>
</g>
<!-- Node438061 -->
<g id="node21" class="node">
<title>Node438061</title>
<g id="a_node21"><a xlink:href="quickjs_8c.html#a82de8d310598980dd9ab473ce2c8dd1c" target="_top" xlink:title="js_get_regexp">
<polygon fill="none" stroke="#ff0000" points="554.5,-370.5 554.5,-389.5 631.5,-389.5 631.5,-370.5 554.5,-370.5"/>
<text text-anchor="middle" x="593" y="-377.5" font-family="Helvetica,sans-Serif" font-size="10.00" fill="#000000">js_get_regexp</text>
</a>
</g>
</g>
<!-- Node438060&#45;&gt;Node438061 -->
<g id="edge29" class="edge">
<title>Node438060&#45;&gt;Node438061</title>
<path fill="none" stroke="#191970" d="M293.8029,-380C363.0271,-380 478.8243,-380 544.2037,-380"/>
<polygon fill="#191970" stroke="#191970" points="544.249,-383.5001 554.249,-380 544.2489,-376.5001 544.249,-383.5001"/>
</g>
<!-- Node438063 -->
<g id="node22" class="node">
<title>Node438063</title>
<g id="a_node22"><a xlink:href="quickjs_8c.html#a3755be7c2ce474f29037fb2bbf35083b" target="_top" xlink:title="JS_GetActiveFunction">
<polygon fill="none" stroke="#000000" points="371.5,-218.5 371.5,-237.5 486.5,-237.5 486.5,-218.5 371.5,-218.5"/>
<text text-anchor="middle" x="429" y="-225.5" font-family="Helvetica,sans-Serif" font-size="10.00" fill="#000000">JS_GetActiveFunction</text>
</a>
</g>
</g>
<!-- Node438060&#45;&gt;Node438063 -->
<g id="edge30" class="edge">
<title>Node438060&#45;&gt;Node438063</title>
<path fill="none" stroke="#191970" d="M293.5512,-374.254C302.1639,-371.3192 310.3738,-367.0807 317,-361 354.5896,-326.5053 316.6888,-287.838 353,-252 357.0007,-248.0514 361.6456,-244.7516 366.6295,-241.9942"/>
<polygon fill="#191970" stroke="#191970" points="368.3674,-245.0436 375.9005,-237.5935 365.3657,-238.7198 368.3674,-245.0436"/>
</g>
<!-- Node437653 -->
<g id="node23" class="node">
<title>Node437653</title>
<g id="a_node23"><a xlink:href="quickjs_8h.html#a89b7c8686c7eee70b86be722ee4730ad" target="_top" xlink:title="JS_GetProperty">
<polygon fill="none" stroke="#ff0000" points="550,-294.5 550,-313.5 636,-313.5 636,-294.5 550,-294.5"/>
<text text-anchor="middle" x="593" y="-301.5" font-family="Helvetica,sans-Serif" font-size="10.00" fill="#000000">JS_GetProperty</text>
</a>
</g>
</g>
<!-- Node438060&#45;&gt;Node437653 -->
<g id="edge31" class="edge">
<title>Node438060&#45;&gt;Node437653</title>
<path fill="none" stroke="#191970" d="M293.6674,-370.903C301.7968,-368.3702 309.8263,-365.1341 317,-361 337.1569,-349.3839 332.0084,-333.0293 353,-323 412.2753,-294.6797 489.2312,-293.9723 539.8145,-297.6467"/>
<polygon fill="#191970" stroke="#191970" points="539.6295,-301.143 549.8792,-298.4609 540.194,-294.1658 539.6295,-301.143"/>
</g>
<!-- Node438064 -->
<g id="node24" class="node">
<title>Node438064</title>
<g id="a_node24"><a xlink:href="quickjs_8c.html#a34780713146b6995321c8880802b7d9d" target="_top" xlink:title="js_is_regexp">
<polygon fill="none" stroke="#ff0000" points="393.5,-332.5 393.5,-351.5 464.5,-351.5 464.5,-332.5 393.5,-332.5"/>
<text text-anchor="middle" x="429" y="-339.5" font-family="Helvetica,sans-Serif" font-size="10.00" fill="#000000">js_is_regexp</text>
</a>
</g>
</g>
<!-- Node438060&#45;&gt;Node438064 -->
<g id="edge32" class="edge">
<title>Node438060&#45;&gt;Node438064</title>
<path fill="none" stroke="#191970" d="M285.4497,-370.411C315.4607,-364.4713 353.7661,-356.8901 383.2581,-351.0531"/>
<polygon fill="#191970" stroke="#191970" points="384.164,-354.4418 393.2941,-349.0668 382.8049,-347.575 384.164,-354.4418"/>
</g>
<!-- Node437974 -->
<g id="node25" class="node">
<title>Node437974</title>
<g id="a_node25"><a xlink:href="quickjs_8c.html#a4227224bd57b74d7e4a30fbdd67be26e" target="_top" xlink:title="js_regexp_constructor\l_internal">
<polygon fill="none" stroke="#ff0000" points="697.5,-321 697.5,-351 810.5,-351 810.5,-321 697.5,-321"/>
<text text-anchor="start" x="705.5" y="-339" font-family="Helvetica,sans-Serif" font-size="10.00" fill="#000000">js_regexp_constructor</text>
<text text-anchor="middle" x="754" y="-328" font-family="Helvetica,sans-Serif" font-size="10.00" fill="#000000">_internal</text>
</a>
</g>
</g>
<!-- Node438060&#45;&gt;Node437974 -->
<g id="edge39" class="edge">
<title>Node438060&#45;&gt;Node437974</title>
<path fill="none" stroke="#191970" d="M293.6018,-374.8738C302.3127,-371.8809 310.5418,-367.4622 317,-361 366.0752,-311.8942 298.5457,-252.0637 353,-209 403.9042,-168.7438 586.246,-186.4361 645,-214 689.317,-234.7909 723.3661,-282.8832 740.8863,-312.0931"/>
<polygon fill="#191970" stroke="#191970" points="737.9307,-313.9728 745.986,-320.8548 743.9805,-310.4515 737.9307,-313.9728"/>
</g>
<!-- Node437781 -->
<g id="node26" class="node">
<title>Node437781</title>
<g id="a_node26"><a xlink:href="quickjs_8c.html#a24be89a128d1cd7c0908604815b2b854" target="_top" xlink:title="js_same_value">
<polygon fill="none" stroke="#ff0000" points="713,-750.5 713,-769.5 795,-769.5 795,-750.5 713,-750.5"/>
<text text-anchor="middle" x="754" y="-757.5" font-family="Helvetica,sans-Serif" font-size="10.00" fill="#000000">js_same_value</text>
</a>
</g>
</g>
<!-- Node438060&#45;&gt;Node437781 -->
<g id="edge42" class="edge">
<title>Node438060&#45;&gt;Node437781</title>
<path fill="none" stroke="#191970" d="M275.792,-389.5496C291.0194,-395.2829 307.172,-404.2347 317,-418 358.3243,-475.8799 301.3984,-687.0607 353,-736 401.9467,-782.4213 605.9035,-772.3892 702.6476,-764.7156"/>
<polygon fill="#191970" stroke="#191970" points="703.1007,-768.1904 712.7831,-763.8891 702.5317,-761.2136 703.1007,-768.1904"/>
</g>
<!-- Node438064&#45;&gt;Node437590 -->
<g id="edge36" class="edge">
<title>Node438064&#45;&gt;Node437590</title>
<path fill="none" stroke="#191970" d="M446.1485,-351.546C467.861,-363.4406 506.5917,-384.023 541,-399 545.6722,-401.0337 550.6394,-403.0399 555.579,-404.9428"/>
<polygon fill="#191970" stroke="#191970" points="554.3669,-408.2262 564.9593,-408.4549 556.8215,-401.6707 554.3669,-408.2262"/>
</g>
<!-- Node438064&#45;&gt;Node437619 -->
<g id="edge35" class="edge">
<title>Node438064&#45;&gt;Node437619</title>
<path fill="none" stroke="#191970" d="M464.5373,-341.4132C507.6492,-340.1207 582.3405,-336.0115 645,-323 661.5132,-319.571 664.3523,-313.7016 681,-311 745.051,-300.606 762.1228,-309.7686 827,-311 835.3837,-311.1591 844.2652,-311.4132 852.9293,-311.7077"/>
<polygon fill="#191970" stroke="#191970" points="852.8381,-315.2066 862.9577,-312.0689 853.0901,-308.2112 852.8381,-315.2066"/>
</g>
<!-- Node438064&#45;&gt;Node438061 -->
<g id="edge33" class="edge">
<title>Node438064&#45;&gt;Node438061</title>
<path fill="none" stroke="#191970" d="M464.5856,-350.2454C487.9554,-355.6604 518.8248,-362.8131 544.4405,-368.7484"/>
<polygon fill="#191970" stroke="#191970" points="543.8019,-372.1931 554.3339,-371.0408 545.382,-365.3738 543.8019,-372.1931"/>
</g>
<!-- Node438064&#45;&gt;Node437653 -->
<g id="edge34" class="edge">
<title>Node438064&#45;&gt;Node437653</title>
<path fill="none" stroke="#191970" d="M464.5856,-333.7546C487.2901,-328.4938 517.0732,-321.5928 542.2402,-315.7614"/>
<polygon fill="#191970" stroke="#191970" points="543.0392,-319.1691 551.9911,-313.5021 541.4591,-312.3498 543.0392,-319.1691"/>
</g>
<!-- Node437974&#45;&gt;Node437554 -->
<g id="edge40" class="edge">
<title>Node437974&#45;&gt;Node437554</title>
<path fill="none" stroke="#191970" d="M794.797,-351.1487C805.4652,-355.5455 816.8231,-360.6236 827,-366 847.3891,-376.7715 869.1826,-391.374 884.7036,-402.3626"/>
<polygon fill="#191970" stroke="#191970" points="882.8941,-405.372 893.0592,-408.3586 886.9752,-399.6847 882.8941,-405.372"/>
</g>
<!-- Node437974&#45;&gt;Node437619 -->
<g id="edge41" class="edge">
<title>Node437974&#45;&gt;Node437619</title>
<path fill="none" stroke="#191970" d="M810.5992,-327.808C824.3204,-325.822 838.9458,-323.7052 852.518,-321.7408"/>
<polygon fill="#191970" stroke="#191970" points="853.2635,-325.1695 862.659,-320.273 852.2608,-318.2417 853.2635,-325.1695"/>
</g>
<!-- Node437781&#45;&gt;Node437600 -->
<g id="edge43" class="edge">
<title>Node437781&#45;&gt;Node437600</title>
<path fill="none" stroke="#191970" d="M792.356,-750.411C812.3237,-745.4191 836.9295,-739.2676 858.1334,-733.9666"/>
<polygon fill="#191970" stroke="#191970" points="859.0673,-737.341 867.9198,-731.5201 857.3695,-730.55 859.0673,-737.341"/>
</g>
<!-- Node438066 -->
<g id="node28" class="node">
<title>Node438066</title>
<g id="a_node28"><a xlink:href="quickjs_8c.html#ae8e62d181b34d2e7bdda0b099c0880f5" target="_top" xlink:title="find_atom">
<polygon fill="none" stroke="#ff0000" points="563.5,-47.5 563.5,-66.5 622.5,-66.5 622.5,-47.5 563.5,-47.5"/>
<text text-anchor="middle" x="593" y="-54.5" font-family="Helvetica,sans-Serif" font-size="10.00" fill="#000000">find_atom</text>
</a>
</g>
</g>
<!-- Node438065&#45;&gt;Node438066 -->
<g id="edge46" class="edge">
<title>Node438065&#45;&gt;Node438066</title>
<path fill="none" stroke="#191970" d="M306.9094,-57C380.4537,-57 493.6181,-57 553.1856,-57"/>
<polygon fill="#191970" stroke="#191970" points="553.3153,-60.5001 563.3153,-57 553.3153,-53.5001 553.3153,-60.5001"/>
</g>
<!-- Node437574 -->
<g id="node29" class="node">
<title>Node437574</title>
<g id="a_node29"><a xlink:href="quickjs_8c.html#ab7fc45a99935a1c0ba50b0216d9401a9" target="_top" xlink:title="JS_FreeAtom">
<polygon fill="none" stroke="#ff0000" points="554.5,-.5 554.5,-19.5 631.5,-19.5 631.5,-.5 554.5,-.5"/>
<text text-anchor="middle" x="593" y="-7.5" font-family="Helvetica,sans-Serif" font-size="10.00" fill="#000000">JS_FreeAtom</text>
</a>
</g>
</g>
<!-- Node438065&#45;&gt;Node437574 -->
<g id="edge47" class="edge">
<title>Node438065&#45;&gt;Node437574</title>
<path fill="none" stroke="#191970" d="M306.9094,-47.7704C376.7776,-38.5462 482.404,-24.6012 543.863,-16.4872"/>
<polygon fill="#191970" stroke="#191970" points="544.6147,-19.9184 554.0705,-15.1396 543.6984,-12.9786 544.6147,-19.9184"/>
</g>
<!-- Node438067 -->
<g id="node30" class="node">
<title>Node438067</title>
<g id="a_node30"><a xlink:href="quickjs_8c.html#a6ee4e2edda1f223a5a40e2c48b41d618" target="_top" xlink:title="JS_InstantiateFunctionListItem">
<polygon fill="none" stroke="#ff0000" points="353,-66.5 353,-85.5 505,-85.5 505,-66.5 353,-66.5"/>
<text text-anchor="middle" x="429" y="-73.5" font-family="Helvetica,sans-Serif" font-size="10.00" fill="#000000">JS_InstantiateFunctionListItem</text>
</a>
</g>
</g>
<!-- Node438065&#45;&gt;Node438067 -->
<g id="edge48" class="edge">
<title>Node438065&#45;&gt;Node438067</title>
<path fill="none" stroke="#191970" d="M306.5879,-63.8863C318.3258,-65.0479 330.6351,-66.266 342.7358,-67.4634"/>
<polygon fill="#191970" stroke="#191970" points="342.5382,-70.9609 352.8343,-68.4628 343.2276,-63.9949 342.5382,-70.9609"/>
</g>
<!-- Node438067&#45;&gt;Node438054 -->
<g id="edge52" class="edge">
<title>Node438067&#45;&gt;Node438054</title>
<path fill="none" stroke="#191970" d="M483.1542,-85.5761C498.3847,-88.2693 515.0695,-91.2196 530.7331,-93.9894"/>
<polygon fill="#191970" stroke="#191970" points="530.3965,-97.4841 540.8532,-95.7789 531.6155,-90.591 530.3965,-97.4841"/>
</g>
<!-- Node438067&#45;&gt;Node437653 -->
<g id="edge51" class="edge">
<title>Node438067&#45;&gt;Node437653</title>
<path fill="none" stroke="#191970" d="M490.0659,-85.6676C495.4668,-88.1306 500.5597,-91.194 505,-95 564.1439,-145.6948 584.4319,-242.8742 590.5966,-284.4006"/>
<polygon fill="#191970" stroke="#191970" points="587.1331,-284.9064 591.9551,-294.3403 594.0686,-283.9585 587.1331,-284.9064"/>
</g>
<!-- Node438067&#45;&gt;Node438066 -->
<g id="edge49" class="edge">
<title>Node438067&#45;&gt;Node438066</title>
<path fill="none" stroke="#191970" d="M505.2386,-67.1675C521.7969,-65.2491 538.67,-63.2943 553.1394,-61.618"/>
<polygon fill="#191970" stroke="#191970" points="553.681,-65.0788 563.2117,-60.4511 552.8753,-58.1253 553.681,-65.0788"/>
</g>
<!-- Node438067&#45;&gt;Node437574 -->
<g id="edge50" class="edge">
<title>Node438067&#45;&gt;Node437574</title>
<path fill="none" stroke="#191970" d="M452.847,-66.403C481.1058,-55.0306 528.3485,-36.0183 560.0791,-23.2487"/>
<polygon fill="#191970" stroke="#191970" points="561.42,-26.4819 569.3903,-19.5015 558.8066,-19.988 561.42,-26.4819"/>
</g>
</g>
</svg>
        <g id="navigator" transform="translate(0 0)" fill="#404254">
                <rect fill="#f2f5e9" fill-opacity="0.5" stroke="#606060" stroke-width=".5" x="0" y="0" width="60" height="60"/>
                <use id="zoomplus" xlink:href="#zoomPlus" x="17" y="9" onmousedown="handleZoom(evt,'in')"/>
                <use id="zoomminus" xlink:href="#zoomMin" x="42" y="9" onmousedown="handleZoom(evt,'out')"/>
                <use id="reset" xlink:href="#resetDef" x="30" y="36" onmousedown="handleReset()"/>
                <g id="arrowUp" xlink:href="#dirArrow" transform="translate(30 24)" onmousedown="handlePan(0,-1)">
                  <use xlink:href="#rim" fill="#404040">
                        <set attributeName="fill" to="#808080" begin="arrowUp.mouseover" end="arrowUp.mouseout"/>
                  </use>
                  <path fill="none" stroke="white" stroke-width="1.5" d="M0,-3.0v7 M-2.5,-0.5L0,-3.0L2.5,-0.5"/>
                </g>
                <g id="arrowRight" xlink:href="#dirArrow" transform="rotate(90) translate(36 -43)" onmousedown="handlePan(1,0)">
                  <use xlink:href="#rim" fill="#404040">
                        <set attributeName="fill" to="#808080" begin="arrowRight.mouseover" end="arrowRight.mouseout"/>
                  </use>
                  <path fill="none" stroke="white" stroke-width="1.5" d="M0,-3.0v7 M-2.5,-0.5L0,-3.0L2.5,-0.5"/>
                </g>
                <g id="arrowDown" xlink:href="#dirArrow" transform="rotate(180) translate(-30 -48)" onmousedown="handlePan(0,1)">
                  <use xlink:href="#rim" fill="#404040">
                        <set attributeName="fill" to="#808080" begin="arrowDown.mouseover" end="arrowDown.mouseout"/>
                  </use>
                  <path fill="none" stroke="white" stroke-width="1.5" d="M0,-3.0v7 M-2.5,-0.5L0,-3.0L2.5,-0.5"/>
                </g>
                <g id="arrowLeft" xlink:href="#dirArrow" transform="rotate(270) translate(-36 17)" onmousedown="handlePan(-1,0)">
                  <use xlink:href="#rim" fill="#404040">
                        <set attributeName="fill" to="#808080" begin="arrowLeft.mouseover" end="arrowLeft.mouseout"/>
                  </use>
                  <path fill="none" stroke="white" stroke-width="1.5" d="M0,-3.0v7 M-2.5,-0.5L0,-3.0L2.5,-0.5"/>
                </g>
        </g>
        <svg viewBox="0 0 15 15" width="100%" height="30px" preserveAspectRatio="xMaxYMin meet">
         <g id="arrow_out" transform="scale(0.3 0.3)">
          <a xlink:href="quickjs_8c_aafc8241682ce24b6d72e0f237ee85a51_cgraph_org.svg" target="_base">
           <rect id="button" ry="5" rx="5" y="6" x="6" height="38" width="38"
                fill="#f2f5e9" fill-opacity="0.5" stroke="#606060" stroke-width="1.0"/>
           <path id="arrow"
             d="M 11.500037,31.436501 C 11.940474,20.09759 22.043105,11.32322 32.158766,21.979434 L 37.068811,17.246167 C 37.068811,17.246167 37.088388,32 37.088388,32 L 22.160133,31.978069 C 22.160133,31.978069 26.997745,27.140456 26.997745,27.140456 C 18.528582,18.264221 13.291696,25.230495 11.500037,31.436501 z"
             style="fill:#404040;"/>
          </a>
         </g>
        </svg>
</svg>
