<?xml version="1.0" encoding="UTF-8" standalone="no"?>
<!DOCTYPE svg PUBLIC "-//W3C//DTD SVG 1.1//EN"
 "http://www.w3.org/Graphics/SVG/1.1/DTD/svg11.dtd">
<!-- Generated by graphviz version 2.40.1 (20161225.0304)
 -->
<!-- Title: js_parse_destructuring_var Pages: 1 -->
<!--zoomable 202 -->
<svg id="main" version="1.1" xmlns="http://www.w3.org/2000/svg" xmlns:xlink="http://www.w3.org/1999/xlink" xml:space="preserve" onload="init(evt)">
<style type="text/css"><![CDATA[
.edge:hover path { stroke: red; }
.edge:hover polygon { stroke: red; fill: red; }
]]></style>
<script type="text/javascript"><![CDATA[
var edges = document.getElementsByTagName('g');
if (edges && edges.length) {
  for (var i=0;i<edges.length;i++) {
    if (edges[i].id.substr(0,4)=='edge') {
      edges[i].setAttribute('class','edge');
    }
  }
}
]]></script>
        <defs>
                <circle id="rim" cx="0" cy="0" r="7"/>
                <circle id="rim2" cx="0" cy="0" r="3.5"/>
                <g id="zoomPlus">
                        <use xlink:href="#rim" fill="#404040">
                                <set attributeName="fill" to="#808080" begin="zoomplus.mouseover" end="zoomplus.mouseout"/>
                        </use>
                        <path d="M-4,0h8M0,-4v8" fill="none" stroke="white" stroke-width="1.5" pointer-events="none"/>
                </g>
                <g id="zoomMin">
                        <use xlink:href="#rim" fill="#404040">
                                <set attributeName="fill" to="#808080" begin="zoomminus.mouseover" end="zoomminus.mouseout"/>
                        </use>
                        <path d="M-4,0h8" fill="none" stroke="white" stroke-width="1.5" pointer-events="none"/>
                </g>
                <g id="dirArrow">
                        <path fill="none" stroke="white" stroke-width="1.5" d="M0,-3.0v7 M-2.5,-0.5L0,-3.0L2.5,-0.5"/>
                </g>
               <g id="resetDef">
                       <use xlink:href="#rim2" fill="#404040">
                               <set attributeName="fill" to="#808080" begin="reset.mouseover" end="reset.mouseout"/>
                       </use>
               </g>
        </defs>

<script type="text/javascript">
var viewWidth = 855;
var viewHeight = 202;
var sectionId = 'dynsection-1060';
</script>
<script xlink:href="svgpan.js"/>
<svg id="graph" class="graph">
<g id="viewport">
<title>js_parse_destructuring_var</title>
<!-- Node324244 -->
<g id="node1" class="node">
<title>Node324244</title>
<polygon fill="#bfbfbf" stroke="#000000" points="0,-81.3357 0,-100.3357 134,-100.3357 134,-81.3357 0,-81.3357"/>
<text text-anchor="middle" x="67" y="-88.3357" font-family="Helvetica,sans-Serif" font-size="10.00" fill="#000000">js_parse_destructuring_var</text>
</g>
<!-- Node324245 -->
<g id="node2" class="node">
<title>Node324245</title>
<g id="a_node2"><a xlink:href="quickjs_8c.html#a26be546cf89c4580ba9020e8fc43a759" target="_top" xlink:title="js_parse_destructuring\l_element">
<polygon fill="none" stroke="#000000" points="170,-75.8357 170,-105.8357 285,-105.8357 285,-75.8357 170,-75.8357"/>
<text text-anchor="start" x="178" y="-93.8357" font-family="Helvetica,sans-Serif" font-size="10.00" fill="#000000">js_parse_destructuring</text>
<text text-anchor="middle" x="227.5" y="-82.8357" font-family="Helvetica,sans-Serif" font-size="10.00" fill="#000000">_element</text>
</a>
</g>
</g>
<!-- Node324244&#45;&gt;Node324245 -->
<g id="edge1" class="edge">
<title>Node324244&#45;&gt;Node324245</title>
<path fill="none" stroke="#191970" d="M144.2078,-90.8357C152.8257,-90.8357 161.4905,-90.8357 169.8038,-90.8357"/>
<polygon fill="#191970" stroke="#191970" points="144.1365,-87.3358 134.1365,-90.8357 144.1365,-94.3358 144.1365,-87.3358"/>
</g>
<!-- Node324245&#45;&gt;Node324245 -->
<g id="edge2" class="edge">
<title>Node324245&#45;&gt;Node324245</title>
<path fill="none" stroke="#191970" d="M200.1361,-116.2936C203.5323,-121.0147 212.6536,-124.3357 227.5,-124.3357 251.8633,-124.3357 260.8092,-115.3923 254.3377,-105.9947"/>
<polygon fill="#191970" stroke="#191970" points="203.6473,-116.1603 200.6623,-105.9947 196.6565,-115.803 203.6473,-116.1603"/>
</g>
<!-- Node324246 -->
<g id="node3" class="node">
<title>Node324246</title>
<g id="a_node3"><a xlink:href="quickjs_8c.html#a840642c87c5a82d4cc68333376a3b6de" target="_top" xlink:title="js_parse_postfix_expr">
<polygon fill="none" stroke="#000000" points="326,-100.3357 326,-119.3357 438,-119.3357 438,-100.3357 326,-100.3357"/>
<text text-anchor="middle" x="382" y="-107.3357" font-family="Helvetica,sans-Serif" font-size="10.00" fill="#000000">js_parse_postfix_expr</text>
</a>
</g>
</g>
<!-- Node324245&#45;&gt;Node324246 -->
<g id="edge3" class="edge">
<title>Node324245&#45;&gt;Node324246</title>
<path fill="none" stroke="#191970" d="M295.1992,-99.1612C305.4721,-100.4245 315.9738,-101.716 325.9625,-102.9444"/>
<polygon fill="#191970" stroke="#191970" points="295.3826,-95.6574 285.0301,-97.9106 294.5281,-102.6051 295.3826,-95.6574"/>
</g>
<!-- Node324257 -->
<g id="node5" class="node">
<title>Node324257</title>
<g id="a_node5"><a xlink:href="quickjs_8c.html#ac188b916dd086803591a67de7e7a85f6" target="_top" xlink:title="js_parse_for_in_of">
<polygon fill="none" stroke="#000000" points="613,-106.3357 613,-125.3357 709,-125.3357 709,-106.3357 613,-106.3357"/>
<text text-anchor="middle" x="661" y="-113.3357" font-family="Helvetica,sans-Serif" font-size="10.00" fill="#000000">js_parse_for_in_of</text>
</a>
</g>
</g>
<!-- Node324245&#45;&gt;Node324257 -->
<g id="edge14" class="edge">
<title>Node324245&#45;&gt;Node324257</title>
<path fill="none" stroke="#191970" d="M253.9493,-112C271.7536,-124.8437 296.3945,-140.0308 321,-146.8357 430.6613,-177.1637 464.9953,-166.8437 577,-146.8357 599.8007,-142.7627 624.5159,-132.9293 641.1929,-125.4208"/>
<polygon fill="#191970" stroke="#191970" points="255.9011,-109.0898 245.7884,-105.9302 251.7236,-114.7066 255.9011,-109.0898"/>
</g>
<!-- Node324255 -->
<g id="node6" class="node">
<title>Node324255</title>
<g id="a_node6"><a xlink:href="quickjs_8c.html#a9d844c16dcc71701436848074337d32c" target="_top" xlink:title="js_parse_statement\l_or_decl">
<polygon fill="none" stroke="#ff0000" points="745,-100.8357 745,-130.8357 847,-130.8357 847,-100.8357 745,-100.8357"/>
<text text-anchor="start" x="753" y="-118.8357" font-family="Helvetica,sans-Serif" font-size="10.00" fill="#000000">js_parse_statement</text>
<text text-anchor="middle" x="796" y="-107.8357" font-family="Helvetica,sans-Serif" font-size="10.00" fill="#000000">_or_decl</text>
</a>
</g>
</g>
<!-- Node324245&#45;&gt;Node324255 -->
<g id="edge15" class="edge">
<title>Node324245&#45;&gt;Node324255</title>
<path fill="none" stroke="#191970" d="M245.7958,-113.7177C262.8853,-133.1026 290.3141,-159.4996 321,-170.8357 476.7448,-228.3714 679.0553,-162.4382 760.1136,-130.8393"/>
<polygon fill="#191970" stroke="#191970" points="248.28,-111.2369 239.1254,-105.9035 242.9559,-115.7817 248.28,-111.2369"/>
</g>
<!-- Node324280 -->
<g id="node8" class="node">
<title>Node324280</title>
<g id="a_node8"><a xlink:href="quickjs_8c.html#a9660cf21845352b14655d423389d6620" target="_top" xlink:title="js_parse_var">
<polygon fill="none" stroke="#ff0000" points="625,-52.3357 625,-71.3357 697,-71.3357 697,-52.3357 625,-52.3357"/>
<text text-anchor="middle" x="661" y="-59.3357" font-family="Helvetica,sans-Serif" font-size="10.00" fill="#000000">js_parse_var</text>
</a>
</g>
</g>
<!-- Node324245&#45;&gt;Node324280 -->
<g id="edge12" class="edge">
<title>Node324245&#45;&gt;Node324280</title>
<path fill="none" stroke="#191970" d="M246.9348,-68.1204C264.2327,-49.7868 291.3328,-25.3721 321,-14.8357 436.3941,26.147 585.6166,-28.9527 639.9991,-52.2861"/>
<polygon fill="#191970" stroke="#191970" points="244.3087,-65.8057 240.1426,-75.5471 249.4742,-70.5299 244.3087,-65.8057"/>
</g>
<!-- Node324251 -->
<g id="node9" class="node">
<title>Node324251</title>
<g id="a_node9"><a xlink:href="quickjs_8c.html#acc9eb677cab8dfcf45f59381f8a19601" target="_top" xlink:title="js_parse_function_decl2">
<polygon fill="none" stroke="#ff0000" points="321,-24.3357 321,-43.3357 443,-43.3357 443,-24.3357 321,-24.3357"/>
<text text-anchor="middle" x="382" y="-31.3357" font-family="Helvetica,sans-Serif" font-size="10.00" fill="#000000">js_parse_function_decl2</text>
</a>
</g>
</g>
<!-- Node324245&#45;&gt;Node324251 -->
<g id="edge16" class="edge">
<title>Node324245&#45;&gt;Node324251</title>
<path fill="none" stroke="#191970" d="M278.1967,-72.1321C304.1612,-62.5529 334.6822,-51.2928 355.88,-43.4722"/>
<polygon fill="#191970" stroke="#191970" points="276.668,-68.9654 268.4975,-75.7104 279.0909,-75.5327 276.668,-68.9654"/>
</g>
<!-- Node324246&#45;&gt;Node324246 -->
<g id="edge9" class="edge">
<title>Node324246&#45;&gt;Node324246</title>
<path fill="none" stroke="#191970" d="M354.7475,-128.4896C355.8867,-133.7725 364.9708,-137.8357 382,-137.8357 407.9492,-137.8357 415.4502,-128.401 404.5028,-119.5928"/>
<polygon fill="#191970" stroke="#191970" points="357.8752,-130.0627 359.4972,-119.5928 351.7001,-126.766 357.8752,-130.0627"/>
</g>
<!-- Node324247 -->
<g id="node4" class="node">
<title>Node324247</title>
<g id="a_node4"><a xlink:href="quickjs_8c.html#a12b48ce2b1f247b494fdde07dbe7f232" target="_top" xlink:title="js_parse_left_hand\l_side_expr">
<polygon fill="none" stroke="#ff0000" points="479,-50.8357 479,-80.8357 577,-80.8357 577,-50.8357 479,-50.8357"/>
<text text-anchor="start" x="487" y="-68.8357" font-family="Helvetica,sans-Serif" font-size="10.00" fill="#000000">js_parse_left_hand</text>
<text text-anchor="middle" x="528" y="-57.8357" font-family="Helvetica,sans-Serif" font-size="10.00" fill="#000000">_side_expr</text>
</a>
</g>
</g>
<!-- Node324246&#45;&gt;Node324247 -->
<g id="edge4" class="edge">
<title>Node324246&#45;&gt;Node324247</title>
<path fill="none" stroke="#191970" d="M423.463,-97.34C440.715,-92.1407 460.8764,-86.0647 478.8652,-80.6434"/>
<polygon fill="#191970" stroke="#191970" points="422.2445,-94.0516 413.6798,-100.2883 424.2644,-100.7539 422.2445,-94.0516"/>
</g>
<!-- Node324266 -->
<g id="node7" class="node">
<title>Node324266</title>
<g id="a_node7"><a xlink:href="quickjs_8c.html#a9f26c765171d977db1796791f035f1f9" target="_top" xlink:title="js_parse_unary">
<polygon fill="none" stroke="#ff0000" points="486.5,-100.3357 486.5,-119.3357 569.5,-119.3357 569.5,-100.3357 486.5,-100.3357"/>
<text text-anchor="middle" x="528" y="-107.3357" font-family="Helvetica,sans-Serif" font-size="10.00" fill="#000000">js_parse_unary</text>
</a>
</g>
</g>
<!-- Node324246&#45;&gt;Node324266 -->
<g id="edge10" class="edge">
<title>Node324246&#45;&gt;Node324266</title>
<path fill="none" stroke="#191970" d="M448.3312,-109.8357C461.291,-109.8357 474.5335,-109.8357 486.4065,-109.8357"/>
<polygon fill="#191970" stroke="#191970" points="448.0299,-106.3358 438.0299,-109.8357 448.0298,-113.3358 448.0299,-106.3358"/>
</g>
<!-- Node324247&#45;&gt;Node324245 -->
<g id="edge5" class="edge">
<title>Node324247&#45;&gt;Node324245</title>
<path fill="none" stroke="#191970" d="M468.5972,-70.7777C415.3593,-75.2068 337.7574,-81.6629 285.0839,-86.045"/>
<polygon fill="#191970" stroke="#191970" points="468.8985,-74.2648 478.5738,-69.9477 468.318,-67.2889 468.8985,-74.2648"/>
</g>
<!-- Node324247&#45;&gt;Node324257 -->
<g id="edge6" class="edge">
<title>Node324247&#45;&gt;Node324257</title>
<path fill="none" stroke="#191970" d="M577.3761,-84.3981C597.0907,-91.8097 618.96,-100.0312 635.3883,-106.2072"/>
<polygon fill="#191970" stroke="#191970" points="578.4964,-81.0802 567.9044,-80.8373 576.0331,-87.6325 578.4964,-81.0802"/>
</g>
<!-- Node324257&#45;&gt;Node324255 -->
<g id="edge7" class="edge">
<title>Node324257&#45;&gt;Node324255</title>
<path fill="none" stroke="#191970" d="M719.4959,-115.8357C727.9152,-115.8357 736.5247,-115.8357 744.7878,-115.8357"/>
<polygon fill="#191970" stroke="#191970" points="719.3568,-112.3358 709.3568,-115.8357 719.3568,-119.3358 719.3568,-112.3358"/>
</g>
<!-- Node324255&#45;&gt;Node324255 -->
<g id="edge8" class="edge">
<title>Node324255&#45;&gt;Node324255</title>
<path fill="none" stroke="#191970" d="M772.1898,-141.2936C775.145,-146.0147 783.0817,-149.3357 796,-149.3357 817.1992,-149.3357 824.9833,-140.3923 819.3523,-130.9947"/>
<polygon fill="#191970" stroke="#191970" points="775.7,-141.1403 772.6477,-130.9947 768.7069,-140.8293 775.7,-141.1403"/>
</g>
<!-- Node324266&#45;&gt;Node324266 -->
<g id="edge11" class="edge">
<title>Node324266&#45;&gt;Node324266</title>
<path fill="none" stroke="#191970" d="M503.4465,-128.8649C504.7858,-133.9637 512.9703,-137.8357 528,-137.8357 551.4609,-137.8357 558.2426,-128.401 548.345,-119.5928"/>
<polygon fill="#191970" stroke="#191970" points="506.709,-130.1453 507.655,-119.5928 500.3348,-127.2521 506.709,-130.1453"/>
</g>
<!-- Node324280&#45;&gt;Node324255 -->
<g id="edge13" class="edge">
<title>Node324280&#45;&gt;Node324255</title>
<path fill="none" stroke="#191970" d="M694.1892,-75.1114C713.6312,-82.8882 738.2463,-92.7342 758.4027,-100.7968"/>
<polygon fill="#191970" stroke="#191970" points="695.4092,-71.8298 684.8245,-71.3655 692.8094,-78.3291 695.4092,-71.8298"/>
</g>
</g>
</svg>
        <g id="navigator" transform="translate(0 0)" fill="#404254">
                <rect fill="#f2f5e9" fill-opacity="0.5" stroke="#606060" stroke-width=".5" x="0" y="0" width="60" height="60"/>
                <use id="zoomplus" xlink:href="#zoomPlus" x="17" y="9" onmousedown="handleZoom(evt,'in')"/>
                <use id="zoomminus" xlink:href="#zoomMin" x="42" y="9" onmousedown="handleZoom(evt,'out')"/>
                <use id="reset" xlink:href="#resetDef" x="30" y="36" onmousedown="handleReset()"/>
                <g id="arrowUp" xlink:href="#dirArrow" transform="translate(30 24)" onmousedown="handlePan(0,-1)">
                  <use xlink:href="#rim" fill="#404040">
                        <set attributeName="fill" to="#808080" begin="arrowUp.mouseover" end="arrowUp.mouseout"/>
                  </use>
                  <path fill="none" stroke="white" stroke-width="1.5" d="M0,-3.0v7 M-2.5,-0.5L0,-3.0L2.5,-0.5"/>
                </g>
                <g id="arrowRight" xlink:href="#dirArrow" transform="rotate(90) translate(36 -43)" onmousedown="handlePan(1,0)">
                  <use xlink:href="#rim" fill="#404040">
                        <set attributeName="fill" to="#808080" begin="arrowRight.mouseover" end="arrowRight.mouseout"/>
                  </use>
                  <path fill="none" stroke="white" stroke-width="1.5" d="M0,-3.0v7 M-2.5,-0.5L0,-3.0L2.5,-0.5"/>
                </g>
                <g id="arrowDown" xlink:href="#dirArrow" transform="rotate(180) translate(-30 -48)" onmousedown="handlePan(0,1)">
                  <use xlink:href="#rim" fill="#404040">
                        <set attributeName="fill" to="#808080" begin="arrowDown.mouseover" end="arrowDown.mouseout"/>
                  </use>
                  <path fill="none" stroke="white" stroke-width="1.5" d="M0,-3.0v7 M-2.5,-0.5L0,-3.0L2.5,-0.5"/>
                </g>
                <g id="arrowLeft" xlink:href="#dirArrow" transform="rotate(270) translate(-36 17)" onmousedown="handlePan(-1,0)">
                  <use xlink:href="#rim" fill="#404040">
                        <set attributeName="fill" to="#808080" begin="arrowLeft.mouseover" end="arrowLeft.mouseout"/>
                  </use>
                  <path fill="none" stroke="white" stroke-width="1.5" d="M0,-3.0v7 M-2.5,-0.5L0,-3.0L2.5,-0.5"/>
                </g>
        </g>
        <svg viewBox="0 0 15 15" width="100%" height="30px" preserveAspectRatio="xMaxYMin meet">
         <g id="arrow_out" transform="scale(0.3 0.3)">
          <a xlink:href="quickjs_8c_ab10609a91c359ea5d3051f7bb646af83_icgraph_org.svg" target="_base">
           <rect id="button" ry="5" rx="5" y="6" x="6" height="38" width="38"
                fill="#f2f5e9" fill-opacity="0.5" stroke="#606060" stroke-width="1.0"/>
           <path id="arrow"
             d="M 11.500037,31.436501 C 11.940474,20.09759 22.043105,11.32322 32.158766,21.979434 L 37.068811,17.246167 C 37.068811,17.246167 37.088388,32 37.088388,32 L 22.160133,31.978069 C 22.160133,31.978069 26.997745,27.140456 26.997745,27.140456 C 18.528582,18.264221 13.291696,25.230495 11.500037,31.436501 z"
             style="fill:#404040;"/>
          </a>
         </g>
        </svg>
</svg>
