<?xml version="1.0" encoding="UTF-8" standalone="no"?>
<!DOCTYPE svg PUBLIC "-//W3C//DTD SVG 1.1//EN"
 "http://www.w3.org/Graphics/SVG/1.1/DTD/svg11.dtd">
<!-- Generated by graphviz version 2.40.1 (20161225.0304)
 -->
<!-- Title: js_autoinit_get_id Pages: 1 -->
<!--zoomable 294 -->
<svg id="main" version="1.1" xmlns="http://www.w3.org/2000/svg" xmlns:xlink="http://www.w3.org/1999/xlink" xml:space="preserve" onload="init(evt)">
<style type="text/css"><![CDATA[
.edge:hover path { stroke: red; }
.edge:hover polygon { stroke: red; fill: red; }
]]></style>
<script type="text/javascript"><![CDATA[
var edges = document.getElementsByTagName('g');
if (edges && edges.length) {
  for (var i=0;i<edges.length;i++) {
    if (edges[i].id.substr(0,4)=='edge') {
      edges[i].setAttribute('class','edge');
    }
  }
}
]]></script>
        <defs>
                <circle id="rim" cx="0" cy="0" r="7"/>
                <circle id="rim2" cx="0" cy="0" r="3.5"/>
                <g id="zoomPlus">
                        <use xlink:href="#rim" fill="#404040">
                                <set attributeName="fill" to="#808080" begin="zoomplus.mouseover" end="zoomplus.mouseout"/>
                        </use>
                        <path d="M-4,0h8M0,-4v8" fill="none" stroke="white" stroke-width="1.5" pointer-events="none"/>
                </g>
                <g id="zoomMin">
                        <use xlink:href="#rim" fill="#404040">
                                <set attributeName="fill" to="#808080" begin="zoomminus.mouseover" end="zoomminus.mouseout"/>
                        </use>
                        <path d="M-4,0h8" fill="none" stroke="white" stroke-width="1.5" pointer-events="none"/>
                </g>
                <g id="dirArrow">
                        <path fill="none" stroke="white" stroke-width="1.5" d="M0,-3.0v7 M-2.5,-0.5L0,-3.0L2.5,-0.5"/>
                </g>
               <g id="resetDef">
                       <use xlink:href="#rim2" fill="#404040">
                               <set attributeName="fill" to="#808080" begin="reset.mouseover" end="reset.mouseout"/>
                       </use>
               </g>
        </defs>

<script type="text/javascript">
var viewWidth = 688;
var viewHeight = 294;
var sectionId = 'dynsection-428';
</script>
<script xlink:href="svgpan.js"/>
<svg id="graph" class="graph">
<g id="viewport">
<title>js_autoinit_get_id</title>
<!-- Node145765 -->
<g id="node1" class="node">
<title>Node145765</title>
<polygon fill="#bfbfbf" stroke="#000000" points="0,-38.5 0,-57.5 92,-57.5 92,-38.5 0,-38.5"/>
<text text-anchor="middle" x="46" y="-45.5" font-family="Helvetica,sans-Serif" font-size="10.00" fill="#000000">js_autoinit_get_id</text>
</g>
<!-- Node145766 -->
<g id="node2" class="node">
<title>Node145766</title>
<g id="a_node2"><a xlink:href="quickjs_8c.html#a8aac7988cf0c6f3c2b629a6662fd7ec8" target="_top" xlink:title="JS_AutoInitProperty">
<polygon fill="none" stroke="#000000" points="128,-76.5 128,-95.5 232,-95.5 232,-76.5 128,-76.5"/>
<text text-anchor="middle" x="180" y="-83.5" font-family="Helvetica,sans-Serif" font-size="10.00" fill="#000000">JS_AutoInitProperty</text>
</a>
</g>
</g>
<!-- Node145765&#45;&gt;Node145766 -->
<g id="edge1" class="edge">
<title>Node145765&#45;&gt;Node145766</title>
<path fill="none" stroke="#191970" d="M89.4383,-60.3183C107.8491,-65.5393 128.9798,-71.5316 146.197,-76.4141"/>
<polygon fill="#191970" stroke="#191970" points="90.3894,-56.9501 79.8139,-57.589 88.4796,-63.6845 90.3894,-56.9501"/>
</g>
<!-- Node146377 -->
<g id="node12" class="node">
<title>Node146377</title>
<g id="a_node12"><a xlink:href="quickjs_8c.html#a315f18f552c506d05a36ab22649c8e3f" target="_top" xlink:title="JS_DumpObject">
<polygon fill="none" stroke="#000000" points="135.5,-19.5 135.5,-38.5 224.5,-38.5 224.5,-19.5 135.5,-19.5"/>
<text text-anchor="middle" x="180" y="-26.5" font-family="Helvetica,sans-Serif" font-size="10.00" fill="#000000">JS_DumpObject</text>
</a>
</g>
</g>
<!-- Node145765&#45;&gt;Node146377 -->
<g id="edge18" class="edge">
<title>Node145765&#45;&gt;Node146377</title>
<path fill="none" stroke="#191970" d="M102.0946,-40.0463C113.1239,-38.4824 124.5583,-36.8611 135.1587,-35.3581"/>
<polygon fill="#191970" stroke="#191970" points="101.5248,-36.592 92.1152,-41.4613 102.5076,-43.5227 101.5248,-36.592"/>
</g>
<!-- Node145767 -->
<g id="node3" class="node">
<title>Node145767</title>
<g id="a_node3"><a xlink:href="quickjs_8c.html#a5762c57ae0c9937e986040c01222833a" target="_top" xlink:title="JS_GetPropertyInternal">
<polygon fill="none" stroke="#000000" points="278,-171.5 278,-190.5 397,-190.5 397,-171.5 278,-171.5"/>
<text text-anchor="middle" x="337.5" y="-178.5" font-family="Helvetica,sans-Serif" font-size="10.00" fill="#000000">JS_GetPropertyInternal</text>
</a>
</g>
</g>
<!-- Node145766&#45;&gt;Node145767 -->
<g id="edge2" class="edge">
<title>Node145766&#45;&gt;Node145767</title>
<path fill="none" stroke="#191970" d="M202.5845,-101.2902C220.1895,-113.0468 245.3654,-129.507 268,-143 285.0096,-153.1398 304.8736,-163.8958 318.9989,-171.3664"/>
<polygon fill="#191970" stroke="#191970" points="204.376,-98.2773 194.122,-95.6115 200.4755,-104.09 204.376,-98.2773"/>
</g>
<!-- Node146344 -->
<g id="node9" class="node">
<title>Node146344</title>
<g id="a_node9"><a xlink:href="quickjs_8c.html#ad13892c0a0f11781b566808876658099" target="_top" xlink:title="JS_GetOwnPropertyInternal">
<polygon fill="none" stroke="#ff0000" points="268,-114.5 268,-133.5 407,-133.5 407,-114.5 268,-114.5"/>
<text text-anchor="middle" x="337.5" y="-121.5" font-family="Helvetica,sans-Serif" font-size="10.00" fill="#000000">JS_GetOwnPropertyInternal</text>
</a>
</g>
</g>
<!-- Node145766&#45;&gt;Node146344 -->
<g id="edge11" class="edge">
<title>Node145766&#45;&gt;Node146344</title>
<path fill="none" stroke="#191970" d="M229.6041,-97.968C251.6753,-103.2931 277.3027,-109.4762 298.0419,-114.4799"/>
<polygon fill="#191970" stroke="#191970" points="230.2859,-94.5321 219.7439,-95.589 228.6441,-101.3369 230.2859,-94.5321"/>
</g>
<!-- Node145899 -->
<g id="node10" class="node">
<title>Node145899</title>
<g id="a_node10"><a xlink:href="quickjs_8c.html#ad7f03358a8088ca920ab308225c6b2e6" target="_top" xlink:title="JS_SetPropertyInternal">
<polygon fill="none" stroke="#ff0000" points="443,-76.5 443,-95.5 561,-95.5 561,-76.5 443,-76.5"/>
<text text-anchor="middle" x="502" y="-83.5" font-family="Helvetica,sans-Serif" font-size="10.00" fill="#000000">JS_SetPropertyInternal</text>
</a>
</g>
</g>
<!-- Node145766&#45;&gt;Node145899 -->
<g id="edge13" class="edge">
<title>Node145766&#45;&gt;Node145899</title>
<path fill="none" stroke="#191970" d="M242.2177,-86C300.1675,-86 385.9473,-86 442.8787,-86"/>
<polygon fill="#191970" stroke="#191970" points="242.0928,-82.5001 232.0927,-86 242.0927,-89.5001 242.0928,-82.5001"/>
</g>
<!-- Node145922 -->
<g id="node11" class="node">
<title>Node145922</title>
<g id="a_node11"><a xlink:href="quickjs_8c.html#ab50618f1bf78e444caa6da0e3e2785d7" target="_top" xlink:title="JS_DefineProperty">
<polygon fill="none" stroke="#ff0000" points="288,-38.5 288,-57.5 387,-57.5 387,-38.5 288,-38.5"/>
<text text-anchor="middle" x="337.5" y="-45.5" font-family="Helvetica,sans-Serif" font-size="10.00" fill="#000000">JS_DefineProperty</text>
</a>
</g>
</g>
<!-- Node145766&#45;&gt;Node145922 -->
<g id="edge15" class="edge">
<title>Node145766&#45;&gt;Node145922</title>
<path fill="none" stroke="#191970" d="M229.6041,-74.032C251.6753,-68.7069 277.3027,-62.5238 298.0419,-57.5201"/>
<polygon fill="#191970" stroke="#191970" points="228.6441,-70.6631 219.7439,-76.411 230.2859,-77.4679 228.6441,-70.6631"/>
</g>
<!-- Node145768 -->
<g id="node4" class="node">
<title>Node145768</title>
<g id="a_node4"><a xlink:href="quickjs_8h.html#a89b7c8686c7eee70b86be722ee4730ad" target="_top" xlink:title="JS_GetProperty">
<polygon fill="none" stroke="#ff0000" points="459,-266.5 459,-285.5 545,-285.5 545,-266.5 459,-266.5"/>
<text text-anchor="middle" x="502" y="-273.5" font-family="Helvetica,sans-Serif" font-size="10.00" fill="#000000">JS_GetProperty</text>
</a>
</g>
</g>
<!-- Node145767&#45;&gt;Node145768 -->
<g id="edge3" class="edge">
<title>Node145767&#45;&gt;Node145768</title>
<path fill="none" stroke="#191970" d="M358.0191,-196.6764C378.7186,-212.0335 411.9679,-235.4737 443,-252 453.2483,-257.4578 465.0153,-262.476 475.331,-266.497"/>
<polygon fill="#191970" stroke="#191970" points="360.0599,-193.832 349.9594,-190.6334 355.8607,-199.4326 360.0599,-193.832"/>
</g>
<!-- Node145774 -->
<g id="node5" class="node">
<title>Node145774</title>
<g id="a_node5"><a xlink:href="quickjs_8c.html#ac2894ff4edcdb4e6841bcce9c76081e3" target="_top" xlink:title="JS_CallInternal">
<polygon fill="none" stroke="#ff0000" points="597,-190.5 597,-209.5 680,-209.5 680,-190.5 597,-190.5"/>
<text text-anchor="middle" x="638.5" y="-197.5" font-family="Helvetica,sans-Serif" font-size="10.00" fill="#000000">JS_CallInternal</text>
</a>
</g>
</g>
<!-- Node145767&#45;&gt;Node145774 -->
<g id="edge8" class="edge">
<title>Node145767&#45;&gt;Node145774</title>
<path fill="none" stroke="#191970" d="M366.768,-194.6424C387.5357,-203.5444 416.3452,-214.346 443,-219 494.6628,-228.0206 508.934,-225.2892 561,-219 576.4037,-217.1394 593.1632,-213.2701 607.1437,-209.5058"/>
<polygon fill="#191970" stroke="#191970" points="368.1096,-191.409 357.5466,-190.5879 365.2921,-197.8169 368.1096,-191.409"/>
</g>
<!-- Node146376 -->
<g id="node6" class="node">
<title>Node146376</title>
<g id="a_node6"><a xlink:href="quickjs_8c.html#a0e8d8152892d3235c94ec6df17c87d13" target="_top" xlink:title="JS_GetGlobalVar">
<polygon fill="none" stroke="#000000" points="456,-190.5 456,-209.5 548,-209.5 548,-190.5 456,-190.5"/>
<text text-anchor="middle" x="502" y="-197.5" font-family="Helvetica,sans-Serif" font-size="10.00" fill="#000000">JS_GetGlobalVar</text>
</a>
</g>
</g>
<!-- Node145767&#45;&gt;Node146376 -->
<g id="edge6" class="edge">
<title>Node145767&#45;&gt;Node146376</title>
<path fill="none" stroke="#191970" d="M407.4346,-189.0776C423.8019,-190.968 440.8348,-192.9353 455.8613,-194.6709"/>
<polygon fill="#191970" stroke="#191970" points="407.6892,-185.5838 397.3536,-187.9132 406.886,-192.5375 407.6892,-185.5838"/>
</g>
<!-- Node146351 -->
<g id="node7" class="node">
<title>Node146351</title>
<g id="a_node7"><a xlink:href="quickjs_8c.html#a6730c3163c357445c0182c52d5a53ca4" target="_top" xlink:title="js_reflect_get">
<polygon fill="none" stroke="#000000" points="464.5,-152.5 464.5,-171.5 539.5,-171.5 539.5,-152.5 464.5,-152.5"/>
<text text-anchor="middle" x="502" y="-159.5" font-family="Helvetica,sans-Serif" font-size="10.00" fill="#000000">js_reflect_get</text>
</a>
</g>
</g>
<!-- Node145767&#45;&gt;Node146351 -->
<g id="edge9" class="edge">
<title>Node145767&#45;&gt;Node146351</title>
<path fill="none" stroke="#191970" d="M407.4699,-172.9184C427.0264,-170.6596 447.5305,-168.2913 464.4247,-166.34"/>
<polygon fill="#191970" stroke="#191970" points="406.886,-169.4625 397.3536,-174.0868 407.6892,-176.4162 406.886,-169.4625"/>
</g>
<!-- Node146106 -->
<g id="node8" class="node">
<title>Node146106</title>
<g id="a_node8"><a xlink:href="quickjs_8c.html#a45df491949e8e055e732eb13c446d47b" target="_top" xlink:title="js_proxy_get">
<polygon fill="none" stroke="#000000" points="466,-114.5 466,-133.5 538,-133.5 538,-114.5 466,-114.5"/>
<text text-anchor="middle" x="502" y="-121.5" font-family="Helvetica,sans-Serif" font-size="10.00" fill="#000000">js_proxy_get</text>
</a>
</g>
</g>
<!-- Node145767&#45;&gt;Node146106 -->
<g id="edge10" class="edge">
<title>Node145767&#45;&gt;Node146106</title>
<path fill="none" stroke="#191970" d="M372.9517,-167.8891C393.3744,-160.4221 419.5644,-150.9916 443,-143 452.2685,-139.8394 462.4028,-136.525 471.6163,-133.5655"/>
<polygon fill="#191970" stroke="#191970" points="371.6102,-164.6531 363.4266,-171.3821 374.0203,-171.2251 371.6102,-164.6531"/>
</g>
<!-- Node145768&#45;&gt;Node145774 -->
<g id="edge4" class="edge">
<title>Node145768&#45;&gt;Node145774</title>
<path fill="none" stroke="#191970" d="M538.1584,-262.6591C545.8337,-259.4505 553.7915,-255.8325 561,-252 585.0351,-239.2214 610.9006,-220.8202 625.843,-209.6793"/>
<polygon fill="#191970" stroke="#191970" points="536.6289,-259.502 528.665,-266.4895 539.2482,-265.9935 536.6289,-259.502"/>
</g>
<!-- Node145774&#45;&gt;Node145774 -->
<g id="edge5" class="edge">
<title>Node145774&#45;&gt;Node145774</title>
<path fill="none" stroke="#191970" d="M613.2025,-219.0292C614.5824,-224.128 623.0149,-228 638.5,-228 662.6719,-228 669.6591,-218.5653 659.4615,-209.7571"/>
<polygon fill="#191970" stroke="#191970" points="616.4728,-220.2982 617.5385,-209.7571 610.1319,-217.3329 616.4728,-220.2982"/>
</g>
<!-- Node146376&#45;&gt;Node145774 -->
<g id="edge7" class="edge">
<title>Node146376&#45;&gt;Node145774</title>
<path fill="none" stroke="#191970" d="M558.3955,-200C571.2941,-200 584.7755,-200 596.9199,-200"/>
<polygon fill="#191970" stroke="#191970" points="558.2127,-196.5001 548.2127,-200 558.2126,-203.5001 558.2127,-196.5001"/>
</g>
<!-- Node146344&#45;&gt;Node146106 -->
<g id="edge12" class="edge">
<title>Node146344&#45;&gt;Node146106</title>
<path fill="none" stroke="#191970" d="M417.7131,-124C434.5612,-124 451.5233,-124 465.7694,-124"/>
<polygon fill="#191970" stroke="#191970" points="417.2628,-120.5001 407.2628,-124 417.2628,-127.5001 417.2628,-120.5001"/>
</g>
<!-- Node145899&#45;&gt;Node145774 -->
<g id="edge14" class="edge">
<title>Node145899&#45;&gt;Node145774</title>
<path fill="none" stroke="#191970" d="M551.7886,-99.6523C555.0086,-101.2523 558.113,-103.029 561,-105 595.2791,-128.4025 622.3028,-171.2732 633.235,-190.3751"/>
<polygon fill="#191970" stroke="#191970" points="553.0573,-96.3873 542.492,-95.5964 550.2582,-102.8032 553.0573,-96.3873"/>
</g>
<!-- Node145922&#45;&gt;Node145774 -->
<g id="edge17" class="edge">
<title>Node145922&#45;&gt;Node145774</title>
<path fill="none" stroke="#191970" d="M397.5905,-38.8129C445.5061,-34.6612 512.4022,-36.2602 561,-67 607.7519,-96.5721 629.5686,-165.2792 636.2074,-190.4976"/>
<polygon fill="#191970" stroke="#191970" points="396.9773,-35.356 387.3644,-39.8105 397.657,-42.323 396.9773,-35.356"/>
</g>
<!-- Node145922&#45;&gt;Node145899 -->
<g id="edge16" class="edge">
<title>Node145922&#45;&gt;Node145899</title>
<path fill="none" stroke="#191970" d="M388.9975,-59.8961C412.1197,-65.2374 439.0297,-71.4537 460.7882,-76.4799"/>
<polygon fill="#191970" stroke="#191970" points="389.5415,-56.4296 379.0103,-57.589 387.9659,-63.25 389.5415,-56.4296"/>
</g>
<!-- Node146378 -->
<g id="node13" class="node">
<title>Node146378</title>
<g id="a_node13"><a xlink:href="quickjs_8c.html#a9ca2f6b32f0e892e8031147aa8edf270" target="_top" xlink:title="JS_DumpGCObject">
<polygon fill="none" stroke="#000000" points="285.5,-.5 285.5,-19.5 389.5,-19.5 389.5,-.5 285.5,-.5"/>
<text text-anchor="middle" x="337.5" y="-7.5" font-family="Helvetica,sans-Serif" font-size="10.00" fill="#000000">JS_DumpGCObject</text>
</a>
</g>
</g>
<!-- Node146377&#45;&gt;Node146378 -->
<g id="edge19" class="edge">
<title>Node146377&#45;&gt;Node146378</title>
<path fill="none" stroke="#191970" d="M234.7241,-22.3984C251.1722,-20.4142 269.1667,-18.2434 285.4375,-16.2806"/>
<polygon fill="#191970" stroke="#191970" points="234.2207,-18.9336 224.7119,-23.6062 235.0591,-25.8832 234.2207,-18.9336"/>
</g>
</g>
</svg>
        <g id="navigator" transform="translate(0 0)" fill="#404254">
                <rect fill="#f2f5e9" fill-opacity="0.5" stroke="#606060" stroke-width=".5" x="0" y="0" width="60" height="60"/>
                <use id="zoomplus" xlink:href="#zoomPlus" x="17" y="9" onmousedown="handleZoom(evt,'in')"/>
                <use id="zoomminus" xlink:href="#zoomMin" x="42" y="9" onmousedown="handleZoom(evt,'out')"/>
                <use id="reset" xlink:href="#resetDef" x="30" y="36" onmousedown="handleReset()"/>
                <g id="arrowUp" xlink:href="#dirArrow" transform="translate(30 24)" onmousedown="handlePan(0,-1)">
                  <use xlink:href="#rim" fill="#404040">
                        <set attributeName="fill" to="#808080" begin="arrowUp.mouseover" end="arrowUp.mouseout"/>
                  </use>
                  <path fill="none" stroke="white" stroke-width="1.5" d="M0,-3.0v7 M-2.5,-0.5L0,-3.0L2.5,-0.5"/>
                </g>
                <g id="arrowRight" xlink:href="#dirArrow" transform="rotate(90) translate(36 -43)" onmousedown="handlePan(1,0)">
                  <use xlink:href="#rim" fill="#404040">
                        <set attributeName="fill" to="#808080" begin="arrowRight.mouseover" end="arrowRight.mouseout"/>
                  </use>
                  <path fill="none" stroke="white" stroke-width="1.5" d="M0,-3.0v7 M-2.5,-0.5L0,-3.0L2.5,-0.5"/>
                </g>
                <g id="arrowDown" xlink:href="#dirArrow" transform="rotate(180) translate(-30 -48)" onmousedown="handlePan(0,1)">
                  <use xlink:href="#rim" fill="#404040">
                        <set attributeName="fill" to="#808080" begin="arrowDown.mouseover" end="arrowDown.mouseout"/>
                  </use>
                  <path fill="none" stroke="white" stroke-width="1.5" d="M0,-3.0v7 M-2.5,-0.5L0,-3.0L2.5,-0.5"/>
                </g>
                <g id="arrowLeft" xlink:href="#dirArrow" transform="rotate(270) translate(-36 17)" onmousedown="handlePan(-1,0)">
                  <use xlink:href="#rim" fill="#404040">
                        <set attributeName="fill" to="#808080" begin="arrowLeft.mouseover" end="arrowLeft.mouseout"/>
                  </use>
                  <path fill="none" stroke="white" stroke-width="1.5" d="M0,-3.0v7 M-2.5,-0.5L0,-3.0L2.5,-0.5"/>
                </g>
        </g>
        <svg viewBox="0 0 15 15" width="100%" height="30px" preserveAspectRatio="xMaxYMin meet">
         <g id="arrow_out" transform="scale(0.3 0.3)">
          <a xlink:href="quickjs_8c_a822a6c16ff56aeab5fa7e87a076c6b06_icgraph_org.svg" target="_base">
           <rect id="button" ry="5" rx="5" y="6" x="6" height="38" width="38"
                fill="#f2f5e9" fill-opacity="0.5" stroke="#606060" stroke-width="1.0"/>
           <path id="arrow"
             d="M 11.500037,31.436501 C 11.940474,20.09759 22.043105,11.32322 32.158766,21.979434 L 37.068811,17.246167 C 37.068811,17.246167 37.088388,32 37.088388,32 L 22.160133,31.978069 C 22.160133,31.978069 26.997745,27.140456 26.997745,27.140456 C 18.528582,18.264221 13.291696,25.230495 11.500037,31.436501 z"
             style="fill:#404040;"/>
          </a>
         </g>
        </svg>
</svg>
