<?xml version="1.0" encoding="UTF-8" standalone="no"?>
<!DOCTYPE svg PUBLIC "-//W3C//DTD SVG 1.1//EN"
 "http://www.w3.org/Graphics/SVG/1.1/DTD/svg11.dtd">
<!-- Generated by graphviz version 2.40.1 (20161225.0304)
 -->
<!-- Title: is_num_string Pages: 1 -->
<svg width="780pt" height="739pt"
 viewBox="0.00 0.00 780.00 739.02" xmlns="http://www.w3.org/2000/svg" xmlns:xlink="http://www.w3.org/1999/xlink">
<g id="graph0" class="graph" transform="scale(1 1) rotate(0) translate(4 735.0159)">
<title>is_num_string</title>
<!-- Node76999 -->
<g id="node1" class="node">
<title>Node76999</title>
<polygon fill="#bfbfbf" stroke="#000000" points="0,-408.5 0,-427.5 77,-427.5 77,-408.5 0,-408.5"/>
<text text-anchor="middle" x="38.5" y="-415.5" font-family="Helvetica,sans-Serif" font-size="10.00" fill="#000000">is_num_string</text>
</g>
<!-- Node77000 -->
<g id="node2" class="node">
<title>Node77000</title>
<g id="a_node2"><a xlink:href="quickjs_8c.html#aae16c5cdefab4e9dd9866993a7f0150e" target="_top" xlink:title="JS_AtomIsArrayIndex">
<polygon fill="none" stroke="#000000" points="113,-572.5 113,-591.5 226,-591.5 226,-572.5 113,-572.5"/>
<text text-anchor="middle" x="169.5" y="-579.5" font-family="Helvetica,sans-Serif" font-size="10.00" fill="#000000">JS_AtomIsArrayIndex</text>
</a>
</g>
</g>
<!-- Node76999&#45;&gt;Node77000 -->
<g id="edge1" class="edge">
<title>Node76999&#45;&gt;Node77000</title>
<path fill="none" stroke="#191970" d="M52.571,-435.6156C80.1822,-470.1823 140.6218,-545.8472 161.9026,-572.4888"/>
<polygon fill="#191970" stroke="#191970" points="55.2782,-433.3968 46.3023,-427.7678 49.8088,-437.7656 55.2782,-433.3968"/>
</g>
<!-- Node77612 -->
<g id="node19" class="node">
<title>Node77612</title>
<g id="a_node19"><a xlink:href="quickjs_8c.html#a33fd643aff7f70e649d246385cd99b00" target="_top" xlink:title="JS_NewAtomStr">
<polygon fill="none" stroke="#000000" points="124.5,-250.5 124.5,-269.5 214.5,-269.5 214.5,-250.5 124.5,-250.5"/>
<text text-anchor="middle" x="169.5" y="-257.5" font-family="Helvetica,sans-Serif" font-size="10.00" fill="#000000">JS_NewAtomStr</text>
</a>
</g>
</g>
<!-- Node76999&#45;&gt;Node77612 -->
<g id="edge21" class="edge">
<title>Node76999&#45;&gt;Node77612</title>
<path fill="none" stroke="#191970" d="M53.3246,-400.1199C81.0091,-366.7294 139.716,-295.9226 161.3085,-269.8799"/>
<polygon fill="#191970" stroke="#191970" points="50.383,-398.1843 46.6946,-408.1164 55.7717,-402.6521 50.383,-398.1843"/>
</g>
<!-- Node77001 -->
<g id="node3" class="node">
<title>Node77001</title>
<g id="a_node3"><a xlink:href="quickjs_8c.html#a176ac5ff56a118a0b1b2566798d28823" target="_top" xlink:title="JS_GetOwnPropertyNamesInternal">
<polygon fill="none" stroke="#000000" points="262,-468.5 262,-487.5 432,-487.5 432,-468.5 262,-468.5"/>
<text text-anchor="middle" x="347" y="-475.5" font-family="Helvetica,sans-Serif" font-size="10.00" fill="#000000">JS_GetOwnPropertyNamesInternal</text>
</a>
</g>
</g>
<!-- Node77000&#45;&gt;Node77001 -->
<g id="edge2" class="edge">
<title>Node77000&#45;&gt;Node77001</title>
<path fill="none" stroke="#191970" d="M194.5586,-567.3178C231.4901,-545.6791 299.5175,-505.8207 330.659,-487.5745"/>
<polygon fill="#191970" stroke="#191970" points="192.7393,-564.3271 185.8806,-572.4023 196.2781,-570.3668 192.7393,-564.3271"/>
</g>
<!-- Node77611 -->
<g id="node14" class="node">
<title>Node77611</title>
<g id="a_node14"><a xlink:href="quickjs_8c.html#a2b9a2014cb970af5b5b7dde00afbdffa" target="_top" xlink:title="delete_property">
<polygon fill="none" stroke="#000000" points="305.5,-670.5 305.5,-689.5 388.5,-689.5 388.5,-670.5 305.5,-670.5"/>
<text text-anchor="middle" x="347" y="-677.5" font-family="Helvetica,sans-Serif" font-size="10.00" fill="#000000">delete_property</text>
</a>
</g>
</g>
<!-- Node77000&#45;&gt;Node77611 -->
<g id="edge14" class="edge">
<title>Node77000&#45;&gt;Node77611</title>
<path fill="none" stroke="#191970" d="M195.9738,-596.6165C232.7769,-616.936 298.3849,-653.159 329.587,-670.386"/>
<polygon fill="#191970" stroke="#191970" points="197.2887,-593.3445 186.8426,-591.5751 193.9053,-599.4725 197.2887,-593.3445"/>
</g>
<!-- Node77191 -->
<g id="node15" class="node">
<title>Node77191</title>
<g id="a_node15"><a xlink:href="quickjs_8c.html#ad55fe6f65ecb58e327ac9e9b4ab475f5" target="_top" xlink:title="set_array_length">
<polygon fill="none" stroke="#ff0000" points="495,-708.5 495,-727.5 584,-727.5 584,-708.5 495,-708.5"/>
<text text-anchor="middle" x="539.5" y="-715.5" font-family="Helvetica,sans-Serif" font-size="10.00" fill="#000000">set_array_length</text>
</a>
</g>
</g>
<!-- Node77000&#45;&gt;Node77191 -->
<g id="edge18" class="edge">
<title>Node77000&#45;&gt;Node77191</title>
<path fill="none" stroke="#191970" d="M178.2141,-601.0646C191.7868,-628.2508 220.7673,-677.2664 262,-699 336.1172,-738.0668 437.2332,-732.907 494.7082,-725.524"/>
<polygon fill="#191970" stroke="#191970" points="181.2571,-599.3159 173.7733,-591.8164 174.9469,-602.3461 181.2571,-599.3159"/>
</g>
<!-- Node77192 -->
<g id="node17" class="node">
<title>Node77192</title>
<g id="a_node17"><a xlink:href="quickjs_8c.html#ad5565bb5cfd5321f181573257f3b0c91" target="_top" xlink:title="JS_CreateProperty">
<polygon fill="none" stroke="#ff0000" points="297,-594.5 297,-613.5 397,-613.5 397,-594.5 297,-594.5"/>
<text text-anchor="middle" x="347" y="-601.5" font-family="Helvetica,sans-Serif" font-size="10.00" fill="#000000">JS_CreateProperty</text>
</a>
</g>
</g>
<!-- Node77000&#45;&gt;Node77192 -->
<g id="edge19" class="edge">
<title>Node77000&#45;&gt;Node77192</title>
<path fill="none" stroke="#191970" d="M236.1859,-590.2653C256.302,-592.7586 278.0327,-595.4519 296.877,-597.7876"/>
<polygon fill="#191970" stroke="#191970" points="236.5047,-586.7781 226.1501,-589.0214 235.6437,-593.725 236.5047,-586.7781"/>
</g>
<!-- Node77313 -->
<g id="node18" class="node">
<title>Node77313</title>
<g id="a_node18"><a xlink:href="quickjs_8c.html#a9105ee38f5a557a7922fe6cfee0f9bb2" target="_top" xlink:title="js_arguments_define\l_own_property">
<polygon fill="none" stroke="#000000" points="293.5,-545 293.5,-575 400.5,-575 400.5,-545 293.5,-545"/>
<text text-anchor="start" x="301.5" y="-563" font-family="Helvetica,sans-Serif" font-size="10.00" fill="#000000">js_arguments_define</text>
<text text-anchor="middle" x="347" y="-552" font-family="Helvetica,sans-Serif" font-size="10.00" fill="#000000">_own_property</text>
</a>
</g>
</g>
<!-- Node77000&#45;&gt;Node77313 -->
<g id="edge20" class="edge">
<title>Node77000&#45;&gt;Node77313</title>
<path fill="none" stroke="#191970" d="M236.1613,-573.7377C255.0246,-571.3998 275.3096,-568.8856 293.3039,-566.6553"/>
<polygon fill="#191970" stroke="#191970" points="235.6437,-570.275 226.1501,-574.9786 236.5047,-577.2219 235.6437,-570.275"/>
</g>
<!-- Node77002 -->
<g id="node4" class="node">
<title>Node77002</title>
<g id="a_node4"><a xlink:href="quickjs_8c.html#a160229a9daaaf70e287d6dadb69bc609" target="_top" xlink:title="JS_GetOwnPropertyNames">
<polygon fill="none" stroke="#ff0000" points="470.5,-316.5 470.5,-335.5 608.5,-335.5 608.5,-316.5 470.5,-316.5"/>
<text text-anchor="middle" x="539.5" y="-323.5" font-family="Helvetica,sans-Serif" font-size="10.00" fill="#000000">JS_GetOwnPropertyNames</text>
</a>
</g>
</g>
<!-- Node77001&#45;&gt;Node77002 -->
<g id="edge3" class="edge">
<title>Node77001&#45;&gt;Node77002</title>
<path fill="none" stroke="#191970" d="M359.3115,-460.1892C379.1488,-432.7563 420.774,-380.1822 468,-350 477.5988,-343.8654 488.9312,-339.1286 499.7103,-335.548"/>
<polygon fill="#191970" stroke="#191970" points="356.3753,-458.2791 353.4427,-468.46 362.0841,-462.33 356.3753,-458.2791"/>
</g>
<!-- Node77005 -->
<g id="node5" class="node">
<title>Node77005</title>
<g id="a_node5"><a xlink:href="quickjs_8c.html#aa40a5354bee3b56e05a71244910bcc78" target="_top" xlink:title="build_for_in_iterator">
<polygon fill="none" stroke="#ff0000" points="489,-632.5 489,-651.5 590,-651.5 590,-632.5 489,-632.5"/>
<text text-anchor="middle" x="539.5" y="-639.5" font-family="Helvetica,sans-Serif" font-size="10.00" fill="#000000">build_for_in_iterator</text>
</a>
</g>
</g>
<!-- Node77001&#45;&gt;Node77005 -->
<g id="edge4" class="edge">
<title>Node77001&#45;&gt;Node77005</title>
<path fill="none" stroke="#191970" d="M376.3538,-492.371C394.428,-502.4664 416.941,-517.4606 432,-536 458.3834,-568.4812 436.5147,-595.4357 468,-623 473.9916,-628.2454 481.2748,-632.0646 488.8726,-634.8406"/>
<polygon fill="#191970" stroke="#191970" points="377.8356,-489.194 367.3698,-487.5455 374.5233,-495.3608 377.8356,-489.194"/>
</g>
<!-- Node77143 -->
<g id="node6" class="node">
<title>Node77143</title>
<g id="a_node6"><a xlink:href="quickjs_8c.html#a3b754d750c7f3123e85f4a2e748de023" target="_top" xlink:title="JS_CopyDataProperties">
<polygon fill="none" stroke="#ff0000" points="478.5,-594.5 478.5,-613.5 600.5,-613.5 600.5,-594.5 478.5,-594.5"/>
<text text-anchor="middle" x="539.5" y="-601.5" font-family="Helvetica,sans-Serif" font-size="10.00" fill="#000000">JS_CopyDataProperties</text>
</a>
</g>
</g>
<!-- Node77001&#45;&gt;Node77143 -->
<g id="edge5" class="edge">
<title>Node77001&#45;&gt;Node77143</title>
<path fill="none" stroke="#191970" d="M373.2443,-492.7031C390.9673,-503.3679 414.272,-518.8793 432,-536 451.4386,-554.7727 445.6728,-569.776 468,-585 473.7304,-588.9073 480.2247,-592.0117 486.9055,-594.4779"/>
<polygon fill="#191970" stroke="#191970" points="374.938,-489.6388 364.5441,-487.585 371.3886,-495.6722 374.938,-489.6388"/>
</g>
<!-- Node77296 -->
<g id="node7" class="node">
<title>Node77296</title>
<g id="a_node7"><a xlink:href="quickjs_8c.html#ab2de4cc7a9e58c7a6220acf9e4769d62" target="_top" xlink:title="JS_ObjectDefineProperties">
<polygon fill="none" stroke="#ff0000" points="472,-556.5 472,-575.5 607,-575.5 607,-556.5 472,-556.5"/>
<text text-anchor="middle" x="539.5" y="-563.5" font-family="Helvetica,sans-Serif" font-size="10.00" fill="#000000">JS_ObjectDefineProperties</text>
</a>
</g>
</g>
<!-- Node77001&#45;&gt;Node77296 -->
<g id="edge6" class="edge">
<title>Node77001&#45;&gt;Node77296</title>
<path fill="none" stroke="#191970" d="M369.4947,-493.1947C393.1385,-508.5879 431.8508,-532.1832 468,-547 476.9133,-550.6534 486.7409,-553.7969 496.182,-556.4157"/>
<polygon fill="#191970" stroke="#191970" points="371.1919,-490.1214 360.9168,-487.5379 367.3382,-495.9651 371.1919,-490.1214"/>
</g>
<!-- Node77290 -->
<g id="node8" class="node">
<title>Node77290</title>
<g id="a_node8"><a xlink:href="quickjs_8c.html#ad4eec5e88dc04d884c28e0f09d9a81f5" target="_top" xlink:title="js_object_getOwnProperty\lDescriptors">
<polygon fill="none" stroke="#000000" points="474,-507 474,-537 605,-537 605,-507 474,-507"/>
<text text-anchor="start" x="482" y="-525" font-family="Helvetica,sans-Serif" font-size="10.00" fill="#000000">js_object_getOwnProperty</text>
<text text-anchor="middle" x="539.5" y="-514" font-family="Helvetica,sans-Serif" font-size="10.00" fill="#000000">Descriptors</text>
</a>
</g>
</g>
<!-- Node77001&#45;&gt;Node77290 -->
<g id="edge7" class="edge">
<title>Node77001&#45;&gt;Node77290</title>
<path fill="none" stroke="#191970" d="M398.7283,-489.8236C421.8657,-495.1122 449.4057,-501.407 473.9652,-507.0206"/>
<polygon fill="#191970" stroke="#191970" points="399.2981,-486.3637 388.7696,-487.5473 397.7383,-493.1877 399.2981,-486.3637"/>
</g>
<!-- Node77245 -->
<g id="node9" class="node">
<title>Node77245</title>
<g id="a_node9"><a xlink:href="quickjs_8c.html#a79c9d633e8f9d5fd70546406b9e6f176" target="_top" xlink:title="JS_GetOwnPropertyNames2">
<polygon fill="none" stroke="#ff0000" points="468,-468.5 468,-487.5 611,-487.5 611,-468.5 468,-468.5"/>
<text text-anchor="middle" x="539.5" y="-475.5" font-family="Helvetica,sans-Serif" font-size="10.00" fill="#000000">JS_GetOwnPropertyNames2</text>
</a>
</g>
</g>
<!-- Node77001&#45;&gt;Node77245 -->
<g id="edge8" class="edge">
<title>Node77001&#45;&gt;Node77245</title>
<path fill="none" stroke="#191970" d="M442.3238,-478C450.9026,-478 459.4912,-478 467.8169,-478"/>
<polygon fill="#191970" stroke="#191970" points="442.274,-474.5001 432.274,-478 442.2739,-481.5001 442.274,-474.5001"/>
</g>
<!-- Node77316 -->
<g id="node10" class="node">
<title>Node77316</title>
<g id="a_node10"><a xlink:href="quickjs_8c.html#a3b1f61e0c2e39eb52d8b1c5c8713873e" target="_top" xlink:title="js_object_seal">
<polygon fill="none" stroke="#ff0000" points="500,-430.5 500,-449.5 579,-449.5 579,-430.5 500,-430.5"/>
<text text-anchor="middle" x="539.5" y="-437.5" font-family="Helvetica,sans-Serif" font-size="10.00" fill="#000000">js_object_seal</text>
</a>
</g>
</g>
<!-- Node77001&#45;&gt;Node77316 -->
<g id="edge9" class="edge">
<title>Node77001&#45;&gt;Node77316</title>
<path fill="none" stroke="#191970" d="M405.6559,-466.4212C436.1178,-460.4079 472.5402,-453.218 499.6942,-447.8578"/>
<polygon fill="#191970" stroke="#191970" points="404.7087,-463.0405 395.5759,-468.411 406.0644,-469.908 404.7087,-463.0405"/>
</g>
<!-- Node77351 -->
<g id="node11" class="node">
<title>Node77351</title>
<g id="a_node11"><a xlink:href="quickjs_8c.html#a43a4ecde0329def8ff22e9341c7b109d" target="_top" xlink:title="js_object_isSealed">
<polygon fill="none" stroke="#000000" points="490.5,-392.5 490.5,-411.5 588.5,-411.5 588.5,-392.5 490.5,-392.5"/>
<text text-anchor="middle" x="539.5" y="-399.5" font-family="Helvetica,sans-Serif" font-size="10.00" fill="#000000">js_object_isSealed</text>
</a>
</g>
</g>
<!-- Node77001&#45;&gt;Node77351 -->
<g id="edge10" class="edge">
<title>Node77001&#45;&gt;Node77351</title>
<path fill="none" stroke="#191970" d="M373.505,-463.8086C397.6312,-451.3061 434.4926,-433.2306 468,-421 477.6523,-417.4768 488.2543,-414.3001 498.2699,-411.5975"/>
<polygon fill="#191970" stroke="#191970" points="371.8442,-460.7274 364.6081,-468.4662 375.0908,-466.929 371.8442,-460.7274"/>
</g>
<!-- Node77089 -->
<g id="node12" class="node">
<title>Node77089</title>
<g id="a_node12"><a xlink:href="quickjs_8c.html#a624282391413d4c5a030adbd8b77aa80" target="_top" xlink:title="internalize_json_property">
<polygon fill="none" stroke="#ff0000" points="647,-512.5 647,-531.5 772,-531.5 772,-512.5 647,-512.5"/>
<text text-anchor="middle" x="709.5" y="-519.5" font-family="Helvetica,sans-Serif" font-size="10.00" fill="#000000">internalize_json_property</text>
</a>
</g>
</g>
<!-- Node77001&#45;&gt;Node77089 -->
<g id="edge11" class="edge">
<title>Node77001&#45;&gt;Node77089</title>
<path fill="none" stroke="#191970" d="M361.9255,-460.5997C382.8836,-437.6531 423.4865,-398.3865 468,-383 528.0683,-362.2369 554.5431,-353.8122 611,-383 665.6484,-411.2529 696.5185,-485.3565 706.1736,-512.1522"/>
<polygon fill="#191970" stroke="#191970" points="359.1579,-458.4447 355.1221,-468.2408 364.386,-463.0996 359.1579,-458.4447"/>
</g>
<!-- Node77353 -->
<g id="node13" class="node">
<title>Node77353</title>
<g id="a_node13"><a xlink:href="quickjs_8c.html#a438b354d69a8f0674195b0cdc19dd686" target="_top" xlink:title="js_proxy_get_own_property\l_names">
<polygon fill="none" stroke="#000000" points="471.5,-267 471.5,-297 607.5,-297 607.5,-267 471.5,-267"/>
<text text-anchor="start" x="479.5" y="-285" font-family="Helvetica,sans-Serif" font-size="10.00" fill="#000000">js_proxy_get_own_property</text>
<text text-anchor="middle" x="539.5" y="-274" font-family="Helvetica,sans-Serif" font-size="10.00" fill="#000000">_names</text>
</a>
</g>
</g>
<!-- Node77001&#45;&gt;Node77353 -->
<g id="edge13" class="edge">
<title>Node77001&#45;&gt;Node77353</title>
<path fill="none" stroke="#191970" d="M355.4382,-459.183C372.0344,-424.2298 412.2173,-349.0268 468,-307 473.0414,-303.2018 478.7059,-299.949 484.5827,-297.1707"/>
<polygon fill="#191970" stroke="#191970" points="352.2485,-457.7418 351.2206,-468.2867 358.6,-460.6844 352.2485,-457.7418"/>
</g>
<!-- Node77089&#45;&gt;Node77089 -->
<g id="edge12" class="edge">
<title>Node77089&#45;&gt;Node77089</title>
<path fill="none" stroke="#191970" d="M677.6886,-540.2746C678.5956,-545.741 689.1994,-550 709.5,-550 739.7148,-550 748.4488,-540.5653 735.7019,-531.7571"/>
<polygon fill="#191970" stroke="#191970" points="680.7209,-542.0337 683.2981,-531.7571 674.8748,-538.1836 680.7209,-542.0337"/>
</g>
<!-- Node77611&#45;&gt;Node77191 -->
<g id="edge15" class="edge">
<title>Node77611&#45;&gt;Node77191</title>
<path fill="none" stroke="#191970" d="M398.6356,-690.193C428.6356,-696.1151 466.0611,-703.503 494.7941,-709.1749"/>
<polygon fill="#191970" stroke="#191970" points="399.2582,-686.7484 388.7696,-688.2454 397.9025,-693.6159 399.2582,-686.7484"/>
</g>
<!-- Node77280 -->
<g id="node16" class="node">
<title>Node77280</title>
<g id="a_node16"><a xlink:href="quickjs_8c.html#a2b88ed25233c441cbed7b0a027c9ee2f" target="_top" xlink:title="JS_DeleteProperty">
<polygon fill="none" stroke="#ff0000" points="490,-670.5 490,-689.5 589,-689.5 589,-670.5 490,-670.5"/>
<text text-anchor="middle" x="539.5" y="-677.5" font-family="Helvetica,sans-Serif" font-size="10.00" fill="#000000">JS_DeleteProperty</text>
</a>
</g>
</g>
<!-- Node77611&#45;&gt;Node77280 -->
<g id="edge16" class="edge">
<title>Node77611&#45;&gt;Node77280</title>
<path fill="none" stroke="#191970" d="M398.8764,-680C427.1816,-680 462.0414,-680 489.9714,-680"/>
<polygon fill="#191970" stroke="#191970" points="398.7697,-676.5001 388.7696,-680 398.7696,-683.5001 398.7697,-676.5001"/>
</g>
<!-- Node77280&#45;&gt;Node77089 -->
<g id="edge17" class="edge">
<title>Node77280&#45;&gt;Node77089</title>
<path fill="none" stroke="#191970" d="M598.7977,-667.8397C603.0945,-665.8893 607.2187,-663.6261 611,-661 661.0435,-626.2455 694.3292,-557.4185 705.4224,-531.8587"/>
<polygon fill="#191970" stroke="#191970" points="597.2017,-664.7066 589.1814,-671.6293 599.7683,-671.2191 597.2017,-664.7066"/>
</g>
<!-- Node77613 -->
<g id="node20" class="node">
<title>Node77613</title>
<g id="a_node20"><a xlink:href="quickjs_8c.html#a522741f41afb1d0da0aa55968cd8579e" target="_top" xlink:title="JS_NewAtomLen">
<polygon fill="none" stroke="#000000" points="300.5,-171.5 300.5,-190.5 393.5,-190.5 393.5,-171.5 300.5,-171.5"/>
<text text-anchor="middle" x="347" y="-178.5" font-family="Helvetica,sans-Serif" font-size="10.00" fill="#000000">JS_NewAtomLen</text>
</a>
</g>
</g>
<!-- Node77612&#45;&gt;Node77613 -->
<g id="edge22" class="edge">
<title>Node77612&#45;&gt;Node77613</title>
<path fill="none" stroke="#191970" d="M200.379,-246.2567C236.1886,-230.3189 294.2854,-204.4617 325.5134,-190.563"/>
<polygon fill="#191970" stroke="#191970" points="198.6235,-243.2069 190.9106,-250.4708 201.4698,-249.6021 198.6235,-243.2069"/>
</g>
<!-- Node77568 -->
<g id="node26" class="node">
<title>Node77568</title>
<g id="a_node26"><a xlink:href="quickjs_8c.html#a859d5c989a2aaecef1653b3ac279e108" target="_top" xlink:title="JS_ValueToAtom">
<polygon fill="none" stroke="#ff0000" points="300.5,-250.5 300.5,-269.5 393.5,-269.5 393.5,-250.5 300.5,-250.5"/>
<text text-anchor="middle" x="347" y="-257.5" font-family="Helvetica,sans-Serif" font-size="10.00" fill="#000000">JS_ValueToAtom</text>
</a>
</g>
</g>
<!-- Node77612&#45;&gt;Node77568 -->
<g id="edge28" class="edge">
<title>Node77612&#45;&gt;Node77568</title>
<path fill="none" stroke="#191970" d="M224.8609,-260C249.0674,-260 277.1533,-260 300.2851,-260"/>
<polygon fill="#191970" stroke="#191970" points="224.75,-256.5001 214.75,-260 224.75,-263.5001 224.75,-256.5001"/>
</g>
<!-- Node77642 -->
<g id="node27" class="node">
<title>Node77642</title>
<g id="a_node27"><a xlink:href="quickjs_8c.html#a22324bb35cdaa36ce844506a073bb7f4" target="_top" xlink:title="emit_push_const">
<polygon fill="none" stroke="#ff0000" points="301.5,-38.5 301.5,-57.5 392.5,-57.5 392.5,-38.5 301.5,-38.5"/>
<text text-anchor="middle" x="347" y="-45.5" font-family="Helvetica,sans-Serif" font-size="10.00" fill="#000000">emit_push_const</text>
</a>
</g>
</g>
<!-- Node77612&#45;&gt;Node77642 -->
<g id="edge30" class="edge">
<title>Node77612&#45;&gt;Node77642</title>
<path fill="none" stroke="#191970" d="M184.1703,-242.4783C220.0131,-199.6688 311.128,-90.8443 338.8645,-57.7168"/>
<polygon fill="#191970" stroke="#191970" points="181.3241,-240.4256 177.588,-250.3399 186.6913,-244.9194 181.3241,-240.4256"/>
</g>
<!-- Node77643 -->
<g id="node30" class="node">
<title>Node77643</title>
<g id="a_node30"><a xlink:href="quickjs_8c.html#ad54b242d774ba44b2ac39fe8161aaf9c" target="_top" xlink:title="JS_ReadObjectAtoms">
<polygon fill="none" stroke="#ff0000" points="290,-288.5 290,-307.5 404,-307.5 404,-288.5 290,-288.5"/>
<text text-anchor="middle" x="347" y="-295.5" font-family="Helvetica,sans-Serif" font-size="10.00" fill="#000000">JS_ReadObjectAtoms</text>
</a>
</g>
</g>
<!-- Node77612&#45;&gt;Node77643 -->
<g id="edge35" class="edge">
<title>Node77612&#45;&gt;Node77643</title>
<path fill="none" stroke="#191970" d="M224.3969,-271.7526C249.4954,-277.1258 278.8428,-283.4086 302.5313,-288.4799"/>
<polygon fill="#191970" stroke="#191970" points="224.8019,-268.26 214.2907,-269.589 223.3365,-275.1049 224.8019,-268.26"/>
</g>
<!-- Node77157 -->
<g id="node21" class="node">
<title>Node77157</title>
<g id="a_node21"><a xlink:href="quickjs-libc_8c.html#a744c97f53406d93e57acb57e3d498227" target="_top" xlink:title="js_std_getenviron">
<polygon fill="none" stroke="#000000" points="493,-76.5 493,-95.5 586,-95.5 586,-76.5 493,-76.5"/>
<text text-anchor="middle" x="539.5" y="-83.5" font-family="Helvetica,sans-Serif" font-size="10.00" fill="#000000">js_std_getenviron</text>
</a>
</g>
</g>
<!-- Node77613&#45;&gt;Node77157 -->
<g id="edge23" class="edge">
<title>Node77613&#45;&gt;Node77157</title>
<path fill="none" stroke="#191970" d="M367.4255,-165.4585C390.6593,-148.4448 430.2797,-121.4069 468,-105 476.598,-101.2602 486.1064,-98.1083 495.3069,-95.5131"/>
<polygon fill="#191970" stroke="#191970" points="365.3042,-162.6741 359.3613,-171.4453 369.4769,-168.2946 365.3042,-162.6741"/>
</g>
<!-- Node77614 -->
<g id="node22" class="node">
<title>Node77614</title>
<g id="a_node22"><a xlink:href="quickjs_8c.html#aa2ef5af1544a3012f91a80c98c326b8f" target="_top" xlink:title="JS_NewAtom">
<polygon fill="none" stroke="#ff0000" points="501,-228.5 501,-247.5 578,-247.5 578,-228.5 501,-228.5"/>
<text text-anchor="middle" x="539.5" y="-235.5" font-family="Helvetica,sans-Serif" font-size="10.00" fill="#000000">JS_NewAtom</text>
</a>
</g>
</g>
<!-- Node77613&#45;&gt;Node77614 -->
<g id="edge24" class="edge">
<title>Node77613&#45;&gt;Node77614</title>
<path fill="none" stroke="#191970" d="M385.8972,-193.6999C409.556,-201.3036 440.4274,-211.0112 468,-219 479.103,-222.2169 491.2363,-225.5203 502.3032,-228.4517"/>
<polygon fill="#191970" stroke="#191970" points="386.8215,-190.3206 376.2299,-190.5812 384.6723,-196.9825 386.8215,-190.3206"/>
</g>
<!-- Node77395 -->
<g id="node23" class="node">
<title>Node77395</title>
<g id="a_node23"><a xlink:href="quickjs_8c.html#aadfd9c31a6f69160c12e99b8d5eb5b3c" target="_top" xlink:title="js_atom_concat_str">
<polygon fill="none" stroke="#ff0000" points="488.5,-190.5 488.5,-209.5 590.5,-209.5 590.5,-190.5 488.5,-190.5"/>
<text text-anchor="middle" x="539.5" y="-197.5" font-family="Helvetica,sans-Serif" font-size="10.00" fill="#000000">js_atom_concat_str</text>
</a>
</g>
</g>
<!-- Node77613&#45;&gt;Node77395 -->
<g id="edge25" class="edge">
<title>Node77613&#45;&gt;Node77395</title>
<path fill="none" stroke="#191970" d="M403.6051,-186.587C430.4061,-189.2323 462.1766,-192.3681 488.2572,-194.9423"/>
<polygon fill="#191970" stroke="#191970" points="403.8943,-183.0986 393.5989,-185.5994 403.2067,-190.0648 403.8943,-183.0986"/>
</g>
<!-- Node77630 -->
<g id="node24" class="node">
<title>Node77630</title>
<g id="a_node24"><a xlink:href="quickjs_8c.html#ad91865d0889d1420e3e70d5d497a9bdb" target="_top" xlink:title="parse_ident">
<polygon fill="none" stroke="#ff0000" points="506,-152.5 506,-171.5 573,-171.5 573,-152.5 506,-152.5"/>
<text text-anchor="middle" x="539.5" y="-159.5" font-family="Helvetica,sans-Serif" font-size="10.00" fill="#000000">parse_ident</text>
</a>
</g>
</g>
<!-- Node77613&#45;&gt;Node77630 -->
<g id="edge26" class="edge">
<title>Node77613&#45;&gt;Node77630</title>
<path fill="none" stroke="#191970" d="M403.6533,-175.4082C436.914,-172.1254 477.8152,-168.0884 505.9966,-165.3068"/>
<polygon fill="#191970" stroke="#191970" points="403.2067,-171.9352 393.5989,-176.4006 403.8943,-178.9014 403.2067,-171.9352"/>
</g>
<!-- Node77639 -->
<g id="node25" class="node">
<title>Node77639</title>
<g id="a_node25"><a xlink:href="quickjs_8c.html#adab89942b11c3b3cbf3ecb9e763b0ab6" target="_top" xlink:title="json_parse_ident">
<polygon fill="none" stroke="#ff0000" points="494.5,-114.5 494.5,-133.5 584.5,-133.5 584.5,-114.5 494.5,-114.5"/>
<text text-anchor="middle" x="539.5" y="-121.5" font-family="Helvetica,sans-Serif" font-size="10.00" fill="#000000">json_parse_ident</text>
</a>
</g>
</g>
<!-- Node77613&#45;&gt;Node77639 -->
<g id="edge27" class="edge">
<title>Node77613&#45;&gt;Node77639</title>
<path fill="none" stroke="#191970" d="M385.8972,-168.3001C409.556,-160.6964 440.4274,-150.9888 468,-143 479.103,-139.7831 491.2363,-136.4797 502.3032,-133.5483"/>
<polygon fill="#191970" stroke="#191970" points="384.6723,-165.0175 376.2299,-171.4188 386.8215,-171.6794 384.6723,-165.0175"/>
</g>
<!-- Node77568&#45;&gt;Node77353 -->
<g id="edge29" class="edge">
<title>Node77568&#45;&gt;Node77353</title>
<path fill="none" stroke="#191970" d="M403.7526,-266.486C424.9913,-268.9133 449.3344,-271.6954 471.4878,-274.2272"/>
<polygon fill="#191970" stroke="#191970" points="403.9317,-262.9838 393.5989,-265.3256 403.1368,-269.9385 403.9317,-262.9838"/>
</g>
<!-- Node77221 -->
<g id="node28" class="node">
<title>Node77221</title>
<g id="a_node28"><a xlink:href="quickjs_8c.html#a035daca514f14aacc1e0cff81d8e423a" target="_top" xlink:title="js_parse_template">
<polygon fill="none" stroke="#000000" points="491.5,-.5 491.5,-19.5 587.5,-19.5 587.5,-.5 491.5,-.5"/>
<text text-anchor="middle" x="539.5" y="-7.5" font-family="Helvetica,sans-Serif" font-size="10.00" fill="#000000">js_parse_template</text>
</a>
</g>
</g>
<!-- Node77642&#45;&gt;Node77221 -->
<g id="edge31" class="edge">
<title>Node77642&#45;&gt;Node77221</title>
<path fill="none" stroke="#191970" d="M402.6599,-37.0126C430.6627,-31.4848 464.2773,-24.8492 491.1823,-19.538"/>
<polygon fill="#191970" stroke="#191970" points="401.7526,-33.6241 392.6198,-38.9945 403.1083,-40.4915 401.7526,-33.6241"/>
</g>
<!-- Node77194 -->
<g id="node29" class="node">
<title>Node77194</title>
<g id="a_node29"><a xlink:href="quickjs_8c.html#a840642c87c5a82d4cc68333376a3b6de" target="_top" xlink:title="js_parse_postfix_expr">
<polygon fill="none" stroke="#ff0000" points="653.5,-19.5 653.5,-38.5 765.5,-38.5 765.5,-19.5 653.5,-19.5"/>
<text text-anchor="middle" x="709.5" y="-26.5" font-family="Helvetica,sans-Serif" font-size="10.00" fill="#000000">js_parse_postfix_expr</text>
</a>
</g>
</g>
<!-- Node77642&#45;&gt;Node77194 -->
<g id="edge34" class="edge">
<title>Node77642&#45;&gt;Node77194</title>
<path fill="none" stroke="#191970" d="M402.6438,-45.0835C470.6934,-41.5168 585.2179,-35.5141 653.4513,-31.9377"/>
<polygon fill="#191970" stroke="#191970" points="402.3469,-41.5942 392.5438,-45.6129 402.7133,-48.5846 402.3469,-41.5942"/>
</g>
<!-- Node77221&#45;&gt;Node77194 -->
<g id="edge32" class="edge">
<title>Node77221&#45;&gt;Node77194</title>
<path fill="none" stroke="#191970" d="M597.8146,-16.5175C615.7707,-18.5244 635.4949,-20.7288 653.3055,-22.7194"/>
<polygon fill="#191970" stroke="#191970" points="598.0874,-13.0263 587.7605,-15.3938 597.3098,-19.983 598.0874,-13.0263"/>
</g>
<!-- Node77194&#45;&gt;Node77194 -->
<g id="edge33" class="edge">
<title>Node77194&#45;&gt;Node77194</title>
<path fill="none" stroke="#191970" d="M677.6886,-47.2746C678.5956,-52.741 689.1994,-57 709.5,-57 739.7148,-57 748.4488,-47.5653 735.7019,-38.7571"/>
<polygon fill="#191970" stroke="#191970" points="680.7209,-49.0337 683.2981,-38.7571 674.8748,-45.1836 680.7209,-49.0337"/>
</g>
</g>
</svg>
