<?xml version="1.0" encoding="UTF-8" standalone="no"?>
<!DOCTYPE svg PUBLIC "-//W3C//DTD SVG 1.1//EN"
 "http://www.w3.org/Graphics/SVG/1.1/DTD/svg11.dtd">
<!-- Generated by graphviz version 2.40.1 (20161225.0304)
 -->
<!-- Title: js_date_setYear Pages: 1 -->
<!--zoomable 446 -->
<svg id="main" version="1.1" xmlns="http://www.w3.org/2000/svg" xmlns:xlink="http://www.w3.org/1999/xlink" xml:space="preserve" onload="init(evt)">
<style type="text/css"><![CDATA[
.edge:hover path { stroke: red; }
.edge:hover polygon { stroke: red; fill: red; }
]]></style>
<script type="text/javascript"><![CDATA[
var edges = document.getElementsByTagName('g');
if (edges && edges.length) {
  for (var i=0;i<edges.length;i++) {
    if (edges[i].id.substr(0,4)=='edge') {
      edges[i].setAttribute('class','edge');
    }
  }
}
]]></script>
        <defs>
                <circle id="rim" cx="0" cy="0" r="7"/>
                <circle id="rim2" cx="0" cy="0" r="3.5"/>
                <g id="zoomPlus">
                        <use xlink:href="#rim" fill="#404040">
                                <set attributeName="fill" to="#808080" begin="zoomplus.mouseover" end="zoomplus.mouseout"/>
                        </use>
                        <path d="M-4,0h8M0,-4v8" fill="none" stroke="white" stroke-width="1.5" pointer-events="none"/>
                </g>
                <g id="zoomMin">
                        <use xlink:href="#rim" fill="#404040">
                                <set attributeName="fill" to="#808080" begin="zoomminus.mouseover" end="zoomminus.mouseout"/>
                        </use>
                        <path d="M-4,0h8" fill="none" stroke="white" stroke-width="1.5" pointer-events="none"/>
                </g>
                <g id="dirArrow">
                        <path fill="none" stroke="white" stroke-width="1.5" d="M0,-3.0v7 M-2.5,-0.5L0,-3.0L2.5,-0.5"/>
                </g>
               <g id="resetDef">
                       <use xlink:href="#rim2" fill="#404040">
                               <set attributeName="fill" to="#808080" begin="reset.mouseover" end="reset.mouseout"/>
                       </use>
               </g>
        </defs>

<script type="text/javascript">
var viewWidth = 760;
var viewHeight = 446;
var sectionId = 'dynsection-1834';
</script>
<script xlink:href="svgpan.js"/>
<svg id="graph" class="graph">
<g id="viewport">
<title>js_date_setYear</title>
<!-- Node475880 -->
<g id="node1" class="node">
<title>Node475880</title>
<polygon fill="#bfbfbf" stroke="#000000" points="0,-76.5 0,-95.5 87,-95.5 87,-76.5 0,-76.5"/>
<text text-anchor="middle" x="43.5" y="-83.5" font-family="Helvetica,sans-Serif" font-size="10.00" fill="#000000">js_date_setYear</text>
</g>
<!-- Node475881 -->
<g id="node2" class="node">
<title>Node475881</title>
<g id="a_node2"><a xlink:href="quickjs_8h.html#ae91f44bd7249613050c18c7133702c67" target="_top" xlink:title="JS_NewFloat64">
<polygon fill="none" stroke="#000000" points="393,-418.5 393,-437.5 479,-437.5 479,-418.5 393,-418.5"/>
<text text-anchor="middle" x="436" y="-425.5" font-family="Helvetica,sans-Serif" font-size="10.00" fill="#000000">JS_NewFloat64</text>
</a>
</g>
</g>
<!-- Node475880&#45;&gt;Node475881 -->
<g id="edge1" class="edge">
<title>Node475880&#45;&gt;Node475881</title>
<path fill="none" stroke="#191970" d="M46.437,-95.6595C59.957,-138.3582 120.5344,-311.5076 236,-390 279.4311,-419.5241 339.8233,-427.5771 382.856,-429.1373"/>
<polygon fill="#191970" stroke="#191970" points="382.7663,-432.636 392.8533,-429.395 382.9468,-425.6384 382.7663,-432.636"/>
</g>
<!-- Node475883 -->
<g id="node4" class="node">
<title>Node475883</title>
<g id="a_node4"><a xlink:href="quickjs_8c.html#a5ec6b290012ff91cab9950078724eea2" target="_top" xlink:title="JS_ThisTimeValue">
<polygon fill="none" stroke="#000000" points="386.5,-38.5 386.5,-57.5 485.5,-57.5 485.5,-38.5 386.5,-38.5"/>
<text text-anchor="middle" x="436" y="-45.5" font-family="Helvetica,sans-Serif" font-size="10.00" fill="#000000">JS_ThisTimeValue</text>
</a>
</g>
</g>
<!-- Node475880&#45;&gt;Node475883 -->
<g id="edge3" class="edge">
<title>Node475880&#45;&gt;Node475883</title>
<path fill="none" stroke="#191970" d="M87.004,-81.7881C157.3941,-74.9733 296.3946,-61.5159 376.0914,-53.8001"/>
<polygon fill="#191970" stroke="#191970" points="376.8397,-57.2441 386.4559,-52.7966 376.1651,-50.2767 376.8397,-57.2441"/>
</g>
<!-- Node475885 -->
<g id="node6" class="node">
<title>Node475885</title>
<g id="a_node6"><a xlink:href="quickjs_8c.html#a8cc9386cd04cfa067d0c6bf588c6bb58" target="_top" xlink:title="JS_ToFloat64">
<polygon fill="none" stroke="#000000" points="532,-.5 532,-19.5 609,-19.5 609,-.5 532,-.5"/>
<text text-anchor="middle" x="570.5" y="-7.5" font-family="Helvetica,sans-Serif" font-size="10.00" fill="#000000">JS_ToFloat64</text>
</a>
</g>
</g>
<!-- Node475880&#45;&gt;Node475885 -->
<g id="edge8" class="edge">
<title>Node475880&#45;&gt;Node475885</title>
<path fill="none" stroke="#191970" d="M83.1035,-76.4204C95.8342,-73.3717 110.0048,-70.0104 123,-67 239.7037,-39.9653 266.9344,-21.1913 386,-8 430.1742,-3.1059 441.5587,-7.4741 486,-8 497.5758,-8.137 510.0417,-8.3795 521.7499,-8.6494"/>
<polygon fill="#191970" stroke="#191970" points="521.7208,-12.1496 531.8023,-8.8918 521.8896,-5.1517 521.7208,-12.1496"/>
</g>
<!-- Node476316 -->
<g id="node9" class="node">
<title>Node476316</title>
<g id="a_node9"><a xlink:href="quickjs_8c.html#a12803d7cccf6345067677bd4d25287ed" target="_top" xlink:title="set_date_field">
<polygon fill="none" stroke="#000000" points="123,-133.5 123,-152.5 200,-152.5 200,-133.5 123,-133.5"/>
<text text-anchor="middle" x="161.5" y="-140.5" font-family="Helvetica,sans-Serif" font-size="10.00" fill="#000000">set_date_field</text>
</a>
</g>
</g>
<!-- Node475880&#45;&gt;Node476316 -->
<g id="edge9" class="edge">
<title>Node475880&#45;&gt;Node476316</title>
<path fill="none" stroke="#191970" d="M63.2505,-95.5405C82.2248,-104.7061 111.1109,-118.6595 132.6575,-129.0676"/>
<polygon fill="#191970" stroke="#191970" points="131.1581,-132.2302 141.685,-133.4284 134.2029,-125.9271 131.1581,-132.2302"/>
</g>
<!-- Node475882 -->
<g id="node3" class="node">
<title>Node475882</title>
<g id="a_node3"><a xlink:href="quickjs_8h.html#a9bf98b18de88b4199910a43e933eb97d" target="_top" xlink:title="__JS_NewFloat64">
<polygon fill="none" stroke="#000000" points="522,-418.5 522,-437.5 619,-437.5 619,-418.5 522,-418.5"/>
<text text-anchor="middle" x="570.5" y="-425.5" font-family="Helvetica,sans-Serif" font-size="10.00" fill="#000000">__JS_NewFloat64</text>
</a>
</g>
</g>
<!-- Node475881&#45;&gt;Node475882 -->
<g id="edge2" class="edge">
<title>Node475881&#45;&gt;Node475882</title>
<path fill="none" stroke="#191970" d="M479.297,-428C489.5394,-428 500.6345,-428 511.4431,-428"/>
<polygon fill="#191970" stroke="#191970" points="511.6809,-431.5001 521.6809,-428 511.6809,-424.5001 511.6809,-431.5001"/>
</g>
<!-- Node475884 -->
<g id="node5" class="node">
<title>Node475884</title>
<g id="a_node5"><a xlink:href="quickjs_8h.html#ab995df176086f2a2a06ab777d4c4ef28" target="_top" xlink:title="JS_IsNumber">
<polygon fill="none" stroke="#000000" points="532,-38.5 532,-57.5 609,-57.5 609,-38.5 532,-38.5"/>
<text text-anchor="middle" x="570.5" y="-45.5" font-family="Helvetica,sans-Serif" font-size="10.00" fill="#000000">JS_IsNumber</text>
</a>
</g>
</g>
<!-- Node475883&#45;&gt;Node475884 -->
<g id="edge4" class="edge">
<title>Node475883&#45;&gt;Node475884</title>
<path fill="none" stroke="#191970" d="M485.7007,-48C497.5078,-48 510.0909,-48 521.8504,-48"/>
<polygon fill="#191970" stroke="#191970" points="521.9324,-51.5001 531.9324,-48 521.9323,-44.5001 521.9324,-51.5001"/>
</g>
<!-- Node475883&#45;&gt;Node475885 -->
<g id="edge5" class="edge">
<title>Node475883&#45;&gt;Node475885</title>
<path fill="none" stroke="#191970" d="M469.94,-38.411C487.2231,-33.5281 508.4329,-27.5357 526.9112,-22.315"/>
<polygon fill="#191970" stroke="#191970" points="527.8992,-25.673 536.5708,-19.5859 525.9959,-18.9367 527.8992,-25.673"/>
</g>
<!-- Node475886 -->
<g id="node7" class="node">
<title>Node475886</title>
<g id="a_node7"><a xlink:href="quickjs_8h.html#a775522f2d084fc8fa0fcb33f390006b4" target="_top" xlink:title="JS_DupValue">
<polygon fill="none" stroke="#000000" points="665,-209.5 665,-228.5 742,-228.5 742,-209.5 665,-209.5"/>
<text text-anchor="middle" x="703.5" y="-216.5" font-family="Helvetica,sans-Serif" font-size="10.00" fill="#000000">JS_DupValue</text>
</a>
</g>
</g>
<!-- Node475885&#45;&gt;Node475886 -->
<g id="edge6" class="edge">
<title>Node475885&#45;&gt;Node475886</title>
<path fill="none" stroke="#191970" d="M604.861,-19.5218C610.0125,-22.0137 614.947,-25.1258 619,-29 669.5914,-77.36 692.0175,-161.4355 699.9236,-199.4002"/>
<polygon fill="#191970" stroke="#191970" points="696.49,-200.0795 701.8535,-209.2164 703.3585,-198.729 696.49,-200.0795"/>
</g>
<!-- Node475887 -->
<g id="node8" class="node">
<title>Node475887</title>
<g id="a_node8"><a xlink:href="quickjs_8c.html#ab1b614ef35f1cea05da0ad4927c53118" target="_top" xlink:title="JS_ToFloat64Free">
<polygon fill="none" stroke="#ff0000" points="655,-.5 655,-19.5 752,-19.5 752,-.5 655,-.5"/>
<text text-anchor="middle" x="703.5" y="-7.5" font-family="Helvetica,sans-Serif" font-size="10.00" fill="#000000">JS_ToFloat64Free</text>
</a>
</g>
</g>
<!-- Node475885&#45;&gt;Node475887 -->
<g id="edge7" class="edge">
<title>Node475885&#45;&gt;Node475887</title>
<path fill="none" stroke="#191970" d="M609.3266,-10C620.4682,-10 632.8712,-10 644.9222,-10"/>
<polygon fill="#191970" stroke="#191970" points="644.9268,-13.5001 654.9267,-10 644.9267,-6.5001 644.9268,-13.5001"/>
</g>
<!-- Node476316&#45;&gt;Node475885 -->
<g id="edge22" class="edge">
<title>Node476316&#45;&gt;Node475885</title>
<path fill="none" stroke="#191970" d="M175.6905,-133.419C210.0365,-110.7768 301.0831,-53.9931 386,-29 430.7538,-15.8279 483.944,-11.4795 521.688,-10.1864"/>
<polygon fill="#191970" stroke="#191970" points="522.0071,-13.6788 531.9043,-9.8978 521.8094,-6.6816 522.0071,-13.6788"/>
</g>
<!-- Node476317 -->
<g id="node10" class="node">
<title>Node476317</title>
<g id="a_node10"><a xlink:href="quickjs_8c.html#aef33badbc2ebaf812f7cba5302f2d047" target="_top" xlink:title="get_date_fields">
<polygon fill="none" stroke="#000000" points="251.5,-209.5 251.5,-228.5 334.5,-228.5 334.5,-209.5 251.5,-209.5"/>
<text text-anchor="middle" x="293" y="-216.5" font-family="Helvetica,sans-Serif" font-size="10.00" fill="#000000">get_date_fields</text>
</a>
</g>
</g>
<!-- Node476316&#45;&gt;Node476317 -->
<g id="edge10" class="edge">
<title>Node476316&#45;&gt;Node476317</title>
<path fill="none" stroke="#191970" d="M178.1546,-152.6255C200.7814,-165.7025 241.4306,-189.1957 267.8014,-204.4366"/>
<polygon fill="#191970" stroke="#191970" points="266.0713,-207.4791 276.4807,-209.4527 269.574,-201.4185 266.0713,-207.4791"/>
</g>
<!-- Node476324 -->
<g id="node16" class="node">
<title>Node476324</title>
<g id="a_node16"><a xlink:href="quickjs_8c.html#a2b22b8155292ba44fdc8e130bc59ea05" target="_top" xlink:title="JS_SetThisTimeValue">
<polygon fill="none" stroke="#000000" points="236,-361.5 236,-380.5 350,-380.5 350,-361.5 236,-361.5"/>
<text text-anchor="middle" x="293" y="-368.5" font-family="Helvetica,sans-Serif" font-size="10.00" fill="#000000">JS_SetThisTimeValue</text>
</a>
</g>
</g>
<!-- Node476316&#45;&gt;Node476324 -->
<g id="edge18" class="edge">
<title>Node476316&#45;&gt;Node476324</title>
<path fill="none" stroke="#191970" d="M166.983,-152.5066C186.9085,-187.0543 255.7058,-306.3379 282.3463,-352.5281"/>
<polygon fill="#191970" stroke="#191970" points="279.4656,-354.539 287.4936,-361.4528 285.5293,-351.0417 279.4656,-354.539"/>
</g>
<!-- Node476325 -->
<g id="node18" class="node">
<title>Node476325</title>
<g id="a_node18"><a xlink:href="quickjs_8c.html#ad3c70a30f3676b516a77c91e3761a124" target="_top" xlink:title="set_date_fields">
<polygon fill="none" stroke="#000000" points="251.5,-133.5 251.5,-152.5 334.5,-152.5 334.5,-133.5 251.5,-133.5"/>
<text text-anchor="middle" x="293" y="-140.5" font-family="Helvetica,sans-Serif" font-size="10.00" fill="#000000">set_date_fields</text>
</a>
</g>
</g>
<!-- Node476316&#45;&gt;Node476325 -->
<g id="edge23" class="edge">
<title>Node476316&#45;&gt;Node476325</title>
<path fill="none" stroke="#191970" d="M200.2431,-143C213.0418,-143 227.4931,-143 241.1129,-143"/>
<polygon fill="#191970" stroke="#191970" points="241.3249,-146.5001 251.3248,-143 241.3248,-139.5001 241.3249,-146.5001"/>
</g>
<!-- Node476317&#45;&gt;Node475883 -->
<g id="edge13" class="edge">
<title>Node476317&#45;&gt;Node475883</title>
<path fill="none" stroke="#191970" d="M305.4337,-209.2899C318.1363,-198.8086 337.693,-181.0405 350,-162 374.5103,-124.0795 354.0873,-98.9421 386,-67 387.4521,-65.5465 389.0267,-64.2024 390.6918,-62.9595"/>
<polygon fill="#191970" stroke="#191970" points="392.8813,-65.7254 399.6226,-57.5519 389.2556,-59.7375 392.8813,-65.7254"/>
</g>
<!-- Node476318 -->
<g id="node11" class="node">
<title>Node476318</title>
<g id="a_node11"><a xlink:href="quickjs_8c.html#a021e07d41b6d7239b3b44e7cbdff7a15" target="_top" xlink:title="days_in_year">
<polygon fill="none" stroke="#000000" points="533.5,-228.5 533.5,-247.5 607.5,-247.5 607.5,-228.5 533.5,-228.5"/>
<text text-anchor="middle" x="570.5" y="-235.5" font-family="Helvetica,sans-Serif" font-size="10.00" fill="#000000">days_in_year</text>
</a>
</g>
</g>
<!-- Node476317&#45;&gt;Node476318 -->
<g id="edge11" class="edge">
<title>Node476317&#45;&gt;Node476318</title>
<path fill="none" stroke="#191970" d="M300.687,-228.6233C315.1819,-245.9006 348.488,-281.622 386,-295 427.8619,-309.9294 443.4978,-307.995 486,-295 511.939,-287.0692 537.1096,-268.2007 553.1328,-254.3357"/>
<polygon fill="#191970" stroke="#191970" points="555.514,-256.9016 560.6336,-247.6258 550.847,-251.6844 555.514,-256.9016"/>
</g>
<!-- Node476319 -->
<g id="node12" class="node">
<title>Node476319</title>
<g id="a_node12"><a xlink:href="quickjs_8c.html#adecade3bf915770c66e0a27bc3458343" target="_top" xlink:title="getTimezoneOffset">
<polygon fill="none" stroke="#000000" points="386,-190.5 386,-209.5 486,-209.5 486,-190.5 386,-190.5"/>
<text text-anchor="middle" x="436" y="-197.5" font-family="Helvetica,sans-Serif" font-size="10.00" fill="#000000">getTimezoneOffset</text>
</a>
</g>
</g>
<!-- Node476317&#45;&gt;Node476319 -->
<g id="edge12" class="edge">
<title>Node476317&#45;&gt;Node476319</title>
<path fill="none" stroke="#191970" d="M334.7459,-213.4533C347.6153,-211.7434 362.05,-209.8255 375.899,-207.9854"/>
<polygon fill="#191970" stroke="#191970" points="376.3971,-211.4501 385.849,-206.6634 375.4751,-204.5111 376.3971,-211.4501"/>
</g>
<!-- Node476320 -->
<g id="node13" class="node">
<title>Node476320</title>
<g id="a_node13"><a xlink:href="quickjs_8c.html#a5fe9e1898e97028fbd772ebc1e914ba8" target="_top" xlink:title="math_mod">
<polygon fill="none" stroke="#000000" points="405,-266.5 405,-285.5 467,-285.5 467,-266.5 405,-266.5"/>
<text text-anchor="middle" x="436" y="-273.5" font-family="Helvetica,sans-Serif" font-size="10.00" fill="#000000">math_mod</text>
</a>
</g>
</g>
<!-- Node476317&#45;&gt;Node476320 -->
<g id="edge14" class="edge">
<title>Node476317&#45;&gt;Node476320</title>
<path fill="none" stroke="#191970" d="M315.8679,-228.5281C334.6542,-236.3112 361.9852,-247.5326 386,-257 390.8433,-258.9094 395.9632,-260.8937 401.0063,-262.8285"/>
<polygon fill="#191970" stroke="#191970" points="399.926,-266.1623 410.5167,-266.4556 402.4204,-259.6219 399.926,-266.1623"/>
</g>
<!-- Node476321 -->
<g id="node14" class="node">
<title>Node476321</title>
<g id="a_node14"><a xlink:href="quickjs_8c.html#ad184eda067dc335c96fe9074d2da9a3d" target="_top" xlink:title="year_from_days">
<polygon fill="none" stroke="#ff0000" points="393,-228.5 393,-247.5 479,-247.5 479,-228.5 393,-228.5"/>
<text text-anchor="middle" x="436" y="-235.5" font-family="Helvetica,sans-Serif" font-size="10.00" fill="#000000">year_from_days</text>
</a>
</g>
</g>
<!-- Node476317&#45;&gt;Node476321 -->
<g id="edge15" class="edge">
<title>Node476317&#45;&gt;Node476321</title>
<path fill="none" stroke="#191970" d="M334.7459,-224.5467C349.7587,-226.5414 366.9016,-228.8191 382.76,-230.9262"/>
<polygon fill="#191970" stroke="#191970" points="382.5866,-234.4338 392.9605,-232.2815 383.5086,-227.4948 382.5866,-234.4338"/>
</g>
<!-- Node476321&#45;&gt;Node476318 -->
<g id="edge17" class="edge">
<title>Node476321&#45;&gt;Node476318</title>
<path fill="none" stroke="#191970" d="M479.297,-238C493.2627,-238 508.8138,-238 523.0621,-238"/>
<polygon fill="#191970" stroke="#191970" points="523.1655,-241.5001 533.1654,-238 523.1654,-234.5001 523.1655,-241.5001"/>
</g>
<!-- Node476322 -->
<g id="node15" class="node">
<title>Node476322</title>
<g id="a_node15"><a xlink:href="quickjs_8c.html#a3f5def6f020bd1c429735f0b1d079b5e" target="_top" xlink:title="days_from_year">
<polygon fill="none" stroke="#ff0000" points="527.5,-152.5 527.5,-171.5 613.5,-171.5 613.5,-152.5 527.5,-152.5"/>
<text text-anchor="middle" x="570.5" y="-159.5" font-family="Helvetica,sans-Serif" font-size="10.00" fill="#000000">days_from_year</text>
</a>
</g>
</g>
<!-- Node476321&#45;&gt;Node476322 -->
<g id="edge16" class="edge">
<title>Node476321&#45;&gt;Node476322</title>
<path fill="none" stroke="#191970" d="M464.5273,-228.4567C471.6804,-225.7137 479.2399,-222.5048 486,-219 508.9316,-207.1112 533.1849,-190.2485 549.7971,-177.9492"/>
<polygon fill="#191970" stroke="#191970" points="552.2921,-180.4525 558.1831,-171.6464 548.0863,-174.8567 552.2921,-180.4525"/>
</g>
<!-- Node476324&#45;&gt;Node475881 -->
<g id="edge21" class="edge">
<title>Node476324&#45;&gt;Node475881</title>
<path fill="none" stroke="#191970" d="M316.935,-380.5405C340.3417,-389.8705 376.1949,-404.1616 402.4432,-414.6242"/>
<polygon fill="#191970" stroke="#191970" points="401.4017,-417.9768 411.9869,-418.4284 403.9936,-411.4744 401.4017,-417.9768"/>
</g>
<!-- Node476324&#45;&gt;Node475886 -->
<g id="edge19" class="edge">
<title>Node476324&#45;&gt;Node475886</title>
<path fill="none" stroke="#191970" d="M350.1018,-379.8498C389.2564,-383.7997 441.8942,-384.8844 486,-371 571.8357,-343.9791 653.3153,-269.6942 687.1097,-236.0071"/>
<polygon fill="#191970" stroke="#191970" points="689.7576,-238.307 694.2957,-228.7332 684.7778,-233.3874 689.7576,-238.307"/>
</g>
<!-- Node475901 -->
<g id="node17" class="node">
<title>Node475901</title>
<g id="a_node17"><a xlink:href="quickjs_8h.html#afaa20c47565bc704c6c85f3d77254e7d" target="_top" xlink:title="JS_FreeValue">
<polygon fill="none" stroke="#ff0000" points="397,-342.5 397,-361.5 475,-361.5 475,-342.5 397,-342.5"/>
<text text-anchor="middle" x="436" y="-349.5" font-family="Helvetica,sans-Serif" font-size="10.00" fill="#000000">JS_FreeValue</text>
</a>
</g>
</g>
<!-- Node476324&#45;&gt;Node475901 -->
<g id="edge20" class="edge">
<title>Node476324&#45;&gt;Node475901</title>
<path fill="none" stroke="#191970" d="M350.3396,-363.3815C362.3592,-361.7844 374.935,-360.1135 386.6337,-358.5592"/>
<polygon fill="#191970" stroke="#191970" points="387.2008,-362.0147 396.6526,-357.228 386.2787,-355.0756 387.2008,-362.0147"/>
</g>
<!-- Node476325&#45;&gt;Node476318 -->
<g id="edge25" class="edge">
<title>Node476325&#45;&gt;Node476318</title>
<path fill="none" stroke="#191970" d="M334.6715,-146.3792C374.7265,-150.7302 436.3329,-160.3559 486,-181 510.2656,-191.086 534.8127,-208.6506 551.1497,-221.6237"/>
<polygon fill="#191970" stroke="#191970" points="549.3626,-224.682 559.3272,-228.2819 553.7824,-219.2538 549.3626,-224.682"/>
</g>
<!-- Node476325&#45;&gt;Node476319 -->
<g id="edge26" class="edge">
<title>Node476325&#45;&gt;Node476319</title>
<path fill="none" stroke="#191970" d="M316.935,-152.5405C340.3417,-161.8705 376.1949,-176.1616 402.4432,-186.6242"/>
<polygon fill="#191970" stroke="#191970" points="401.4017,-189.9768 411.9869,-190.4284 403.9936,-183.4744 401.4017,-189.9768"/>
</g>
<!-- Node476325&#45;&gt;Node476322 -->
<g id="edge24" class="edge">
<title>Node476325&#45;&gt;Node476322</title>
<path fill="none" stroke="#191970" d="M334.5133,-142.4212C373.6659,-142.2665 433.9476,-143.0377 486,-148 496.1031,-148.9631 506.8251,-150.4078 517.118,-152.0088"/>
<polygon fill="#191970" stroke="#191970" points="516.7974,-155.5025 527.229,-153.6498 517.9189,-148.5929 516.7974,-155.5025"/>
</g>
<!-- Node476326 -->
<g id="node19" class="node">
<title>Node476326</title>
<g id="a_node19"><a xlink:href="quickjs_8c.html#a478ea24cf629522a55e209b2619334c7" target="_top" xlink:title="time_clip">
<polygon fill="none" stroke="#000000" points="408,-76.5 408,-95.5 464,-95.5 464,-76.5 408,-76.5"/>
<text text-anchor="middle" x="436" y="-83.5" font-family="Helvetica,sans-Serif" font-size="10.00" fill="#000000">time_clip</text>
</a>
</g>
</g>
<!-- Node476325&#45;&gt;Node476326 -->
<g id="edge27" class="edge">
<title>Node476325&#45;&gt;Node476326</title>
<path fill="none" stroke="#191970" d="M316.935,-133.4595C340.3417,-124.1295 376.1949,-109.8384 402.4432,-99.3758"/>
<polygon fill="#191970" stroke="#191970" points="403.9936,-102.5256 411.9869,-95.5716 401.4017,-96.0232 403.9936,-102.5256"/>
</g>
</g>
</svg>
        <g id="navigator" transform="translate(0 0)" fill="#404254">
                <rect fill="#f2f5e9" fill-opacity="0.5" stroke="#606060" stroke-width=".5" x="0" y="0" width="60" height="60"/>
                <use id="zoomplus" xlink:href="#zoomPlus" x="17" y="9" onmousedown="handleZoom(evt,'in')"/>
                <use id="zoomminus" xlink:href="#zoomMin" x="42" y="9" onmousedown="handleZoom(evt,'out')"/>
                <use id="reset" xlink:href="#resetDef" x="30" y="36" onmousedown="handleReset()"/>
                <g id="arrowUp" xlink:href="#dirArrow" transform="translate(30 24)" onmousedown="handlePan(0,-1)">
                  <use xlink:href="#rim" fill="#404040">
                        <set attributeName="fill" to="#808080" begin="arrowUp.mouseover" end="arrowUp.mouseout"/>
                  </use>
                  <path fill="none" stroke="white" stroke-width="1.5" d="M0,-3.0v7 M-2.5,-0.5L0,-3.0L2.5,-0.5"/>
                </g>
                <g id="arrowRight" xlink:href="#dirArrow" transform="rotate(90) translate(36 -43)" onmousedown="handlePan(1,0)">
                  <use xlink:href="#rim" fill="#404040">
                        <set attributeName="fill" to="#808080" begin="arrowRight.mouseover" end="arrowRight.mouseout"/>
                  </use>
                  <path fill="none" stroke="white" stroke-width="1.5" d="M0,-3.0v7 M-2.5,-0.5L0,-3.0L2.5,-0.5"/>
                </g>
                <g id="arrowDown" xlink:href="#dirArrow" transform="rotate(180) translate(-30 -48)" onmousedown="handlePan(0,1)">
                  <use xlink:href="#rim" fill="#404040">
                        <set attributeName="fill" to="#808080" begin="arrowDown.mouseover" end="arrowDown.mouseout"/>
                  </use>
                  <path fill="none" stroke="white" stroke-width="1.5" d="M0,-3.0v7 M-2.5,-0.5L0,-3.0L2.5,-0.5"/>
                </g>
                <g id="arrowLeft" xlink:href="#dirArrow" transform="rotate(270) translate(-36 17)" onmousedown="handlePan(-1,0)">
                  <use xlink:href="#rim" fill="#404040">
                        <set attributeName="fill" to="#808080" begin="arrowLeft.mouseover" end="arrowLeft.mouseout"/>
                  </use>
                  <path fill="none" stroke="white" stroke-width="1.5" d="M0,-3.0v7 M-2.5,-0.5L0,-3.0L2.5,-0.5"/>
                </g>
        </g>
        <svg viewBox="0 0 15 15" width="100%" height="30px" preserveAspectRatio="xMaxYMin meet">
         <g id="arrow_out" transform="scale(0.3 0.3)">
          <a xlink:href="quickjs_8c_aea694f707706fc250d38365486dc8c96_cgraph_org.svg" target="_base">
           <rect id="button" ry="5" rx="5" y="6" x="6" height="38" width="38"
                fill="#f2f5e9" fill-opacity="0.5" stroke="#606060" stroke-width="1.0"/>
           <path id="arrow"
             d="M 11.500037,31.436501 C 11.940474,20.09759 22.043105,11.32322 32.158766,21.979434 L 37.068811,17.246167 C 37.068811,17.246167 37.088388,32 37.088388,32 L 22.160133,31.978069 C 22.160133,31.978069 26.997745,27.140456 26.997745,27.140456 C 18.528582,18.264221 13.291696,25.230495 11.500037,31.436501 z"
             style="fill:#404040;"/>
          </a>
         </g>
        </svg>
</svg>
