<?xml version="1.0" encoding="UTF-8" standalone="no"?>
<!DOCTYPE svg PUBLIC "-//W3C//DTD SVG 1.1//EN"
 "http://www.w3.org/Graphics/SVG/1.1/DTD/svg11.dtd">
<!-- Generated by graphviz version 2.40.1 (20161225.0304)
 -->
<!-- Title: JS_GetGlobalVarRef Pages: 1 -->
<!--zoomable 1013 -->
<svg id="main" version="1.1" xmlns="http://www.w3.org/2000/svg" xmlns:xlink="http://www.w3.org/1999/xlink" xml:space="preserve" onload="init(evt)">
<style type="text/css"><![CDATA[
.edge:hover path { stroke: red; }
.edge:hover polygon { stroke: red; fill: red; }
]]></style>
<script type="text/javascript"><![CDATA[
var edges = document.getElementsByTagName('g');
if (edges && edges.length) {
  for (var i=0;i<edges.length;i++) {
    if (edges[i].id.substr(0,4)=='edge') {
      edges[i].setAttribute('class','edge');
    }
  }
}
]]></script>
        <defs>
                <circle id="rim" cx="0" cy="0" r="7"/>
                <circle id="rim2" cx="0" cy="0" r="3.5"/>
                <g id="zoomPlus">
                        <use xlink:href="#rim" fill="#404040">
                                <set attributeName="fill" to="#808080" begin="zoomplus.mouseover" end="zoomplus.mouseout"/>
                        </use>
                        <path d="M-4,0h8M0,-4v8" fill="none" stroke="white" stroke-width="1.5" pointer-events="none"/>
                </g>
                <g id="zoomMin">
                        <use xlink:href="#rim" fill="#404040">
                                <set attributeName="fill" to="#808080" begin="zoomminus.mouseover" end="zoomminus.mouseout"/>
                        </use>
                        <path d="M-4,0h8" fill="none" stroke="white" stroke-width="1.5" pointer-events="none"/>
                </g>
                <g id="dirArrow">
                        <path fill="none" stroke="white" stroke-width="1.5" d="M0,-3.0v7 M-2.5,-0.5L0,-3.0L2.5,-0.5"/>
                </g>
               <g id="resetDef">
                       <use xlink:href="#rim2" fill="#404040">
                               <set attributeName="fill" to="#808080" begin="reset.mouseover" end="reset.mouseout"/>
                       </use>
               </g>
        </defs>

<script type="text/javascript">
var viewWidth = 574;
var viewHeight = 1013;
var sectionId = 'dynsection-640';
</script>
<script xlink:href="svgpan.js"/>
<svg id="graph" class="graph">
<g id="viewport">
<title>JS_GetGlobalVarRef</title>
<!-- Node221734 -->
<g id="node1" class="node">
<title>Node221734</title>
<polygon fill="#bfbfbf" stroke="#000000" points="0,-274.5 0,-293.5 108,-293.5 108,-274.5 0,-274.5"/>
<text text-anchor="middle" x="54" y="-281.5" font-family="Helvetica,sans-Serif" font-size="10.00" fill="#000000">JS_GetGlobalVarRef</text>
</g>
<!-- Node221735 -->
<g id="node2" class="node">
<title>Node221735</title>
<g id="a_node2"><a xlink:href="quickjs_8c.html#ac2894ff4edcdb4e6841bcce9c76081e3" target="_top" xlink:title="JS_CallInternal">
<polygon fill="none" stroke="#000000" points="144,-274.5 144,-293.5 227,-293.5 227,-274.5 144,-274.5"/>
<text text-anchor="middle" x="185.5" y="-281.5" font-family="Helvetica,sans-Serif" font-size="10.00" fill="#000000">JS_CallInternal</text>
</a>
</g>
</g>
<!-- Node221734&#45;&gt;Node221735 -->
<g id="edge1" class="edge">
<title>Node221734&#45;&gt;Node221735</title>
<path fill="none" stroke="#191970" d="M118.3607,-284C127.0208,-284 135.713,-284 143.8361,-284"/>
<polygon fill="#191970" stroke="#191970" points="118.2453,-280.5001 108.2453,-284 118.2453,-287.5001 118.2453,-280.5001"/>
</g>
<!-- Node221735&#45;&gt;Node221735 -->
<g id="edge40" class="edge">
<title>Node221735&#45;&gt;Node221735</title>
<path fill="none" stroke="#191970" d="M161.3186,-303.0292C162.6376,-308.128 170.6981,-312 185.5,-312 208.6055,-312 215.2844,-302.5653 205.5368,-293.7571"/>
<polygon fill="#191970" stroke="#191970" points="164.5776,-304.3148 165.4632,-293.7571 158.187,-301.4582 164.5776,-304.3148"/>
</g>
<!-- Node221736 -->
<g id="node3" class="node">
<title>Node221736</title>
<g id="a_node3"><a xlink:href="quickjs_8c.html#ade71a22dc56e7371392393df663b28b3" target="_top" xlink:title="async_func_resume">
<polygon fill="none" stroke="#000000" points="278,-892.5 278,-911.5 382,-911.5 382,-892.5 278,-892.5"/>
<text text-anchor="middle" x="330" y="-899.5" font-family="Helvetica,sans-Serif" font-size="10.00" fill="#000000">async_func_resume</text>
</a>
</g>
</g>
<!-- Node221735&#45;&gt;Node221736 -->
<g id="edge2" class="edge">
<title>Node221735&#45;&gt;Node221736</title>
<path fill="none" stroke="#191970" d="M190.0805,-303.5901C212.6381,-400.0646 311.4849,-822.8142 327.7352,-892.3141"/>
<polygon fill="#191970" stroke="#191970" points="193.4547,-302.6478 187.7697,-293.7073 186.6385,-304.2416 193.4547,-302.6478"/>
</g>
<!-- Node221755 -->
<g id="node8" class="node">
<title>Node221755</title>
<g id="a_node8"><a xlink:href="quickjs_8c.html#a1a4c02a29525d5cb2085dd8bca3af350" target="_top" xlink:title="JS_Call">
<polygon fill="none" stroke="#ff0000" points="304.5,-366.5 304.5,-385.5 355.5,-385.5 355.5,-366.5 304.5,-366.5"/>
<text text-anchor="middle" x="330" y="-373.5" font-family="Helvetica,sans-Serif" font-size="10.00" fill="#000000">JS_Call</text>
</a>
</g>
</g>
<!-- Node221735&#45;&gt;Node221755 -->
<g id="edge7" class="edge">
<title>Node221735&#45;&gt;Node221755</title>
<path fill="none" stroke="#191970" d="M217.5346,-298.6777C250.4699,-317.7532 299.7662,-349.8516 320.3895,-366.3007"/>
<polygon fill="#191970" stroke="#191970" points="219.1399,-295.5643 208.7164,-293.6666 215.6814,-301.6503 219.1399,-295.5643"/>
</g>
<!-- Node221841 -->
<g id="node29" class="node">
<title>Node221841</title>
<g id="a_node29"><a xlink:href="quickjs_8c.html#ad35594576a14c10812efaf958c99af8a" target="_top" xlink:title="JS_CallConstructorInternal">
<polygon fill="none" stroke="#ff0000" points="263,-274.5 263,-293.5 397,-293.5 397,-274.5 263,-274.5"/>
<text text-anchor="middle" x="330" y="-281.5" font-family="Helvetica,sans-Serif" font-size="10.00" fill="#000000">JS_CallConstructorInternal</text>
</a>
</g>
</g>
<!-- Node221735&#45;&gt;Node221841 -->
<g id="edge34" class="edge">
<title>Node221735&#45;&gt;Node221841</title>
<path fill="none" stroke="#191970" d="M237.5209,-277.4909C245.7845,-277.2892 254.4321,-277.2142 262.9815,-277.2658"/>
<polygon fill="#191970" stroke="#191970" points="237.1798,-273.9998 227.2954,-277.814 237.401,-280.9963 237.1798,-273.9998"/>
</g>
<!-- Node221855 -->
<g id="node30" class="node">
<title>Node221855</title>
<g id="a_node30"><a xlink:href="quickjs_8c.html#a75f6ee5e4235a7dc99889f3d2eb2c147" target="_top" xlink:title="JS_CallFree">
<polygon fill="none" stroke="#ff0000" points="294.5,-91.5 294.5,-110.5 365.5,-110.5 365.5,-91.5 294.5,-91.5"/>
<text text-anchor="middle" x="330" y="-98.5" font-family="Helvetica,sans-Serif" font-size="10.00" fill="#000000">JS_CallFree</text>
</a>
</g>
</g>
<!-- Node221735&#45;&gt;Node221855 -->
<g id="edge36" class="edge">
<title>Node221735&#45;&gt;Node221855</title>
<path fill="none" stroke="#191970" d="M188.7023,-264.4197C196.2042,-229.2158 217.8044,-156.4964 263,-116 271.742,-108.167 283.2224,-102.8425 294.2049,-99.7033"/>
<polygon fill="#191970" stroke="#191970" points="185.2265,-263.9582 186.75,-274.4429 192.0974,-265.2965 185.2265,-263.9582"/>
</g>
<!-- Node221737 -->
<g id="node4" class="node">
<title>Node221737</title>
<g id="a_node4"><a xlink:href="quickjs_8c.html#ac90552b1f1659acb3dae9a4c62479a30" target="_top" xlink:title="js_generator_function_call">
<polygon fill="none" stroke="#ff0000" points="434.5,-985.5 434.5,-1004.5 564.5,-1004.5 564.5,-985.5 434.5,-985.5"/>
<text text-anchor="middle" x="499.5" y="-992.5" font-family="Helvetica,sans-Serif" font-size="10.00" fill="#000000">js_generator_function_call</text>
</a>
</g>
</g>
<!-- Node221736&#45;&gt;Node221737 -->
<g id="edge3" class="edge">
<title>Node221736&#45;&gt;Node221737</title>
<path fill="none" stroke="#191970" d="M348.4671,-918.3133C368.1641,-934.9499 400.8865,-960.4617 433,-976 440.782,-979.7654 449.4469,-982.9157 457.8825,-985.499"/>
<polygon fill="#191970" stroke="#191970" points="350.488,-915.4351 340.6226,-911.5717 345.9255,-920.7439 350.488,-915.4351"/>
</g>
<!-- Node221746 -->
<g id="node5" class="node">
<title>Node221746</title>
<g id="a_node5"><a xlink:href="quickjs_8c.html#a1bf6b62983e8fff99c0a5d5a9f486115" target="_top" xlink:title="js_async_function_resume">
<polygon fill="none" stroke="#ff0000" points="433,-848.5 433,-867.5 566,-867.5 566,-848.5 433,-848.5"/>
<text text-anchor="middle" x="499.5" y="-855.5" font-family="Helvetica,sans-Serif" font-size="10.00" fill="#000000">js_async_function_resume</text>
</a>
</g>
</g>
<!-- Node221736&#45;&gt;Node221746 -->
<g id="edge4" class="edge">
<title>Node221736&#45;&gt;Node221746</title>
<path fill="none" stroke="#191970" d="M376.4651,-889.9383C403.6496,-882.8815 437.4877,-874.0976 462.7928,-867.5287"/>
<polygon fill="#191970" stroke="#191970" points="375.5787,-886.5523 366.779,-892.4527 377.3376,-893.3277 375.5787,-886.5523"/>
</g>
<!-- Node221753 -->
<g id="node6" class="node">
<title>Node221753</title>
<g id="a_node6"><a xlink:href="quickjs_8c.html#a89b019c704a2d2914bc30b30a72040b3" target="_top" xlink:title="js_async_generator\l_resume_next">
<polygon fill="none" stroke="#000000" points="449,-936 449,-966 550,-966 550,-936 449,-936"/>
<text text-anchor="start" x="457" y="-954" font-family="Helvetica,sans-Serif" font-size="10.00" fill="#000000">js_async_generator</text>
<text text-anchor="middle" x="499.5" y="-943" font-family="Helvetica,sans-Serif" font-size="10.00" fill="#000000">_resume_next</text>
</a>
</g>
</g>
<!-- Node221736&#45;&gt;Node221753 -->
<g id="edge5" class="edge">
<title>Node221736&#45;&gt;Node221753</title>
<path fill="none" stroke="#191970" d="M372.9372,-914.4125C396.0226,-921.0862 424.6309,-929.3564 448.805,-936.3448"/>
<polygon fill="#191970" stroke="#191970" points="373.6623,-910.9789 363.0837,-911.564 371.7183,-917.7036 373.6623,-910.9789"/>
</g>
<!-- Node221754 -->
<g id="node7" class="node">
<title>Node221754</title>
<g id="a_node7"><a xlink:href="quickjs_8c.html#ae19867da709929c072f05e90301835a4" target="_top" xlink:title="js_async_generator\l_function_call">
<polygon fill="none" stroke="#ff0000" points="449,-887 449,-917 550,-917 550,-887 449,-887"/>
<text text-anchor="start" x="457" y="-905" font-family="Helvetica,sans-Serif" font-size="10.00" fill="#000000">js_async_generator</text>
<text text-anchor="middle" x="499.5" y="-894" font-family="Helvetica,sans-Serif" font-size="10.00" fill="#000000">_function_call</text>
</a>
</g>
</g>
<!-- Node221736&#45;&gt;Node221754 -->
<g id="edge6" class="edge">
<title>Node221736&#45;&gt;Node221754</title>
<path fill="none" stroke="#191970" d="M392.388,-902C410.9885,-902 431.1368,-902 448.8866,-902"/>
<polygon fill="#191970" stroke="#191970" points="392.2387,-898.5001 382.2387,-902 392.2386,-905.5001 392.2387,-898.5001"/>
</g>
<!-- Node221755&#45;&gt;Node221735 -->
<g id="edge14" class="edge">
<title>Node221755&#45;&gt;Node221735</title>
<path fill="none" stroke="#191970" d="M298.2443,-361.4837C265.24,-342.3885 215.5848,-310.0599 194.981,-293.5959"/>
<polygon fill="#191970" stroke="#191970" points="296.649,-364.6027 307.0736,-366.4945 300.104,-358.5148 296.649,-364.6027"/>
</g>
<!-- Node221755&#45;&gt;Node221746 -->
<g id="edge15" class="edge">
<title>Node221755&#45;&gt;Node221746</title>
<path fill="none" stroke="#191970" d="M331.7375,-395.7477C339.14,-475.5029 370.5618,-772.7381 433,-839 436.6232,-842.845 440.9653,-845.9296 445.6723,-848.4016"/>
<polygon fill="#191970" stroke="#191970" points="335.2073,-395.2551 330.8188,-385.6119 328.2359,-395.8871 335.2073,-395.2551"/>
</g>
<!-- Node221756 -->
<g id="node9" class="node">
<title>Node221756</title>
<g id="a_node9"><a xlink:href="structqjs_1_1js__traits_3_01std_1_1function_3_01R_07Args_8_8_8_08_4_01_4.html#ac449e51d3fe10c6c115596fa6ec278ee" target="_top" xlink:title="qjs::js_traits\&lt; std\l::function\&lt; R(Args...)\l\&gt; \&gt;::unwrap">
<polygon fill="none" stroke="#000000" points="445,-600.5 445,-641.5 554,-641.5 554,-600.5 445,-600.5"/>
<text text-anchor="start" x="453" y="-629.5" font-family="Helvetica,sans-Serif" font-size="10.00" fill="#000000">qjs::js_traits&lt; std</text>
<text text-anchor="start" x="453" y="-618.5" font-family="Helvetica,sans-Serif" font-size="10.00" fill="#000000">::function&lt; R(Args...)</text>
<text text-anchor="middle" x="499.5" y="-607.5" font-family="Helvetica,sans-Serif" font-size="10.00" fill="#000000">&gt; &gt;::unwrap</text>
</a>
</g>
</g>
<!-- Node221755&#45;&gt;Node221756 -->
<g id="edge8" class="edge">
<title>Node221755&#45;&gt;Node221756</title>
<path fill="none" stroke="#191970" d="M334.4623,-395.375C344.8697,-436.57 374.4328,-533.763 433,-591 436.5327,-594.4525 440.5324,-597.5493 444.7748,-600.3186"/>
<polygon fill="#191970" stroke="#191970" points="337.8332,-394.4238 332.0752,-385.5302 331.0303,-396.0734 337.8332,-394.4238"/>
</g>
<!-- Node221757 -->
<g id="node10" class="node">
<title>Node221757</title>
<g id="a_node10"><a xlink:href="quickjs-libc_8c.html#abb1cbe3fdf905e81f603a3a0bfce475a" target="_top" xlink:title="call_handler">
<polygon fill="none" stroke="#000000" points="465.5,-562.5 465.5,-581.5 533.5,-581.5 533.5,-562.5 465.5,-562.5"/>
<text text-anchor="middle" x="499.5" y="-569.5" font-family="Helvetica,sans-Serif" font-size="10.00" fill="#000000">call_handler</text>
</a>
</g>
</g>
<!-- Node221755&#45;&gt;Node221757 -->
<g id="edge9" class="edge">
<title>Node221755&#45;&gt;Node221757</title>
<path fill="none" stroke="#191970" d="M335.9669,-395.7267C348.0804,-432.3807 379.0815,-511.0638 433,-553 442.2883,-560.2242 454.2106,-564.7017 465.3889,-567.4768"/>
<polygon fill="#191970" stroke="#191970" points="339.173,-394.2588 332.8095,-385.7879 332.5016,-396.3783 339.173,-394.2588"/>
</g>
<!-- Node221758 -->
<g id="node11" class="node">
<title>Node221758</title>
<g id="a_node11"><a xlink:href="quickjs-libc_8c.html#a9fa4c190ba56314c7ed9b00bbc7ad0f9" target="_top" xlink:title="handle_posted_message">
<polygon fill="none" stroke="#000000" points="437,-524.5 437,-543.5 562,-543.5 562,-524.5 437,-524.5"/>
<text text-anchor="middle" x="499.5" y="-531.5" font-family="Helvetica,sans-Serif" font-size="10.00" fill="#000000">handle_posted_message</text>
</a>
</g>
</g>
<!-- Node221755&#45;&gt;Node221758 -->
<g id="edge10" class="edge">
<title>Node221755&#45;&gt;Node221758</title>
<path fill="none" stroke="#191970" d="M338.8132,-394.8068C353.8433,-424.8129 387.3,-483.3519 433,-515 438.6266,-518.8965 445.0444,-521.9998 451.6221,-524.4699"/>
<polygon fill="#191970" stroke="#191970" points="341.9551,-393.2643 334.4314,-385.8048 335.6611,-396.328 341.9551,-393.2643"/>
</g>
<!-- Node221759 -->
<g id="node12" class="node">
<title>Node221759</title>
<g id="a_node12"><a xlink:href="quickjs_8c.html#aa049793cc8648d35fe81876a2543ca4e" target="_top" xlink:title="JS_GetIterator2">
<polygon fill="none" stroke="#ff0000" points="456.5,-486.5 456.5,-505.5 542.5,-505.5 542.5,-486.5 456.5,-486.5"/>
<text text-anchor="middle" x="499.5" y="-493.5" font-family="Helvetica,sans-Serif" font-size="10.00" fill="#000000">JS_GetIterator2</text>
</a>
</g>
</g>
<!-- Node221755&#45;&gt;Node221759 -->
<g id="edge11" class="edge">
<title>Node221755&#45;&gt;Node221759</title>
<path fill="none" stroke="#191970" d="M343.3664,-393.7373C361.3204,-416.3395 395.3525,-455.0958 433,-477 440.161,-481.1665 448.2929,-484.4672 456.3519,-487.0663"/>
<polygon fill="#191970" stroke="#191970" points="345.9953,-391.4163 337.0957,-385.6676 340.4679,-395.7114 345.9953,-391.4163"/>
</g>
<!-- Node221791 -->
<g id="node13" class="node">
<title>Node221791</title>
<g id="a_node13"><a xlink:href="quickjs_8c.html#ad6303fbd3add4afa0cb64b0aa6d431ce" target="_top" xlink:title="JS_IteratorNext2">
<polygon fill="none" stroke="#ff0000" points="454,-448.5 454,-467.5 545,-467.5 545,-448.5 454,-448.5"/>
<text text-anchor="middle" x="499.5" y="-455.5" font-family="Helvetica,sans-Serif" font-size="10.00" fill="#000000">JS_IteratorNext2</text>
</a>
</g>
</g>
<!-- Node221755&#45;&gt;Node221791 -->
<g id="edge12" class="edge">
<title>Node221755&#45;&gt;Node221791</title>
<path fill="none" stroke="#191970" d="M351.4657,-391.5216C371.6737,-405.5409 403.2058,-425.922 433,-439 441.3559,-442.6678 450.6114,-445.8323 459.496,-448.4693"/>
<polygon fill="#191970" stroke="#191970" points="353.2159,-388.4733 343.0246,-385.577 349.1853,-394.1965 353.2159,-388.4733"/>
</g>
<!-- Node221795 -->
<g id="node14" class="node">
<title>Node221795</title>
<g id="a_node14"><a xlink:href="quickjs_8c.html#afd4ef2d701fa0702f321925b61c57bbf" target="_top" xlink:title="js_call_bound_function">
<polygon fill="none" stroke="#ff0000" points="441.5,-410.5 441.5,-429.5 557.5,-429.5 557.5,-410.5 441.5,-410.5"/>
<text text-anchor="middle" x="499.5" y="-417.5" font-family="Helvetica,sans-Serif" font-size="10.00" fill="#000000">js_call_bound_function</text>
</a>
</g>
</g>
<!-- Node221755&#45;&gt;Node221795 -->
<g id="edge13" class="edge">
<title>Node221755&#45;&gt;Node221795</title>
<path fill="none" stroke="#191970" d="M365.6969,-385.2665C394.2137,-392.669 434.0299,-403.0048 462.8058,-410.4747"/>
<polygon fill="#191970" stroke="#191970" points="366.302,-381.8076 355.7434,-382.6827 364.5432,-388.583 366.302,-381.8076"/>
</g>
<!-- Node221796 -->
<g id="node15" class="node">
<title>Node221796</title>
<g id="a_node15"><a xlink:href="quickjs_8c.html#a3e852026d167fa03c673f86697dd3e67" target="_top" xlink:title="js_async_generator\l_resolve_or_reject">
<polygon fill="none" stroke="#ff0000" points="449,-361 449,-391 550,-391 550,-361 449,-361"/>
<text text-anchor="start" x="457" y="-379" font-family="Helvetica,sans-Serif" font-size="10.00" fill="#000000">js_async_generator</text>
<text text-anchor="middle" x="499.5" y="-368" font-family="Helvetica,sans-Serif" font-size="10.00" fill="#000000">_resolve_or_reject</text>
</a>
</g>
</g>
<!-- Node221755&#45;&gt;Node221796 -->
<g id="edge16" class="edge">
<title>Node221755&#45;&gt;Node221796</title>
<path fill="none" stroke="#191970" d="M365.8847,-376C390.0145,-376 422.1716,-376 448.8919,-376"/>
<polygon fill="#191970" stroke="#191970" points="365.7434,-372.5001 355.7434,-376 365.7434,-379.5001 365.7434,-372.5001"/>
</g>
<!-- Node221799 -->
<g id="node16" class="node">
<title>Node221799</title>
<g id="a_node16"><a xlink:href="quickjs_8c.html#a2355fabf91f59212ea65baba1b0b7c1b" target="_top" xlink:title="js_async_generator_next">
<polygon fill="none" stroke="#000000" points="437,-322.5 437,-341.5 562,-341.5 562,-322.5 437,-322.5"/>
<text text-anchor="middle" x="499.5" y="-329.5" font-family="Helvetica,sans-Serif" font-size="10.00" fill="#000000">js_async_generator_next</text>
</a>
</g>
</g>
<!-- Node221755&#45;&gt;Node221799 -->
<g id="edge17" class="edge">
<title>Node221755&#45;&gt;Node221799</title>
<path fill="none" stroke="#191970" d="M365.6969,-366.7335C394.2137,-359.331 434.0299,-348.9952 462.8058,-341.5253"/>
<polygon fill="#191970" stroke="#191970" points="364.5432,-363.417 355.7434,-369.3173 366.302,-370.1924 364.5432,-363.417"/>
</g>
<!-- Node221800 -->
<g id="node17" class="node">
<title>Node221800</title>
<g id="a_node17"><a xlink:href="quickjs_8c.html#adc0280beaa04d2b8fcaf05a82ab26c74" target="_top" xlink:title="js_link_module">
<polygon fill="none" stroke="#ff0000" points="459,-266.5 459,-285.5 540,-285.5 540,-266.5 459,-266.5"/>
<text text-anchor="middle" x="499.5" y="-273.5" font-family="Helvetica,sans-Serif" font-size="10.00" fill="#000000">js_link_module</text>
</a>
</g>
</g>
<!-- Node221755&#45;&gt;Node221800 -->
<g id="edge18" class="edge">
<title>Node221755&#45;&gt;Node221800</title>
<path fill="none" stroke="#191970" d="M353.7375,-361.0979C374.5068,-348.1514 405.5605,-329.0161 433,-313 449.4309,-303.4095 468.4181,-292.9013 481.8868,-285.5423"/>
<polygon fill="#191970" stroke="#191970" points="351.8638,-358.1416 345.2377,-366.4087 355.573,-364.0781 351.8638,-358.1416"/>
</g>
<!-- Node221804 -->
<g id="node18" class="node">
<title>Node221804</title>
<g id="a_node18"><a xlink:href="quickjs_8c.html#a6357b7fdae71c70c140e78e6c20cb5c2" target="_top" xlink:title="js_dynamic_import_job">
<polygon fill="none" stroke="#ff0000" points="441.5,-228.5 441.5,-247.5 557.5,-247.5 557.5,-228.5 441.5,-228.5"/>
<text text-anchor="middle" x="499.5" y="-235.5" font-family="Helvetica,sans-Serif" font-size="10.00" fill="#000000">js_dynamic_import_job</text>
</a>
</g>
</g>
<!-- Node221755&#45;&gt;Node221804 -->
<g id="edge20" class="edge">
<title>Node221755&#45;&gt;Node221804</title>
<path fill="none" stroke="#191970" d="M346.313,-358.9947C360.127,-344.4148 380.2908,-322.7052 397,-303 413.7901,-283.1993 411.4645,-271.4981 433,-257 438.777,-253.1108 445.3497,-250.0087 452.0612,-247.5365"/>
<polygon fill="#191970" stroke="#191970" points="343.7152,-356.6475 339.3541,-366.3032 348.7847,-361.4745 343.7152,-356.6475"/>
</g>
<!-- Node221808 -->
<g id="node19" class="node">
<title>Node221808</title>
<g id="a_node19"><a xlink:href="quickjs_8c.html#a8d4b24969540aff427939eeda47f451d" target="_top" xlink:title="js_function_apply">
<polygon fill="none" stroke="#ff0000" points="453.5,-76.5 453.5,-95.5 545.5,-95.5 545.5,-76.5 453.5,-76.5"/>
<text text-anchor="middle" x="499.5" y="-83.5" font-family="Helvetica,sans-Serif" font-size="10.00" fill="#000000">js_function_apply</text>
</a>
</g>
</g>
<!-- Node221755&#45;&gt;Node221808 -->
<g id="edge21" class="edge">
<title>Node221755&#45;&gt;Node221808</title>
<path fill="none" stroke="#191970" d="M350.299,-359.5976C365.6111,-346.0634 385.8252,-325.4865 397,-303 436.8049,-222.9027 372.9429,-171.2808 433,-105 438.4824,-98.9495 445.7442,-94.7728 453.4534,-91.9012"/>
<polygon fill="#191970" stroke="#191970" points="347.7143,-357.2024 342.3852,-366.3594 352.2616,-362.5243 347.7143,-357.2024"/>
</g>
<!-- Node221811 -->
<g id="node20" class="node">
<title>Node221811</title>
<g id="a_node20"><a xlink:href="quickjs_8c.html#a677ad630a103e1f3d5129e0549112b50" target="_top" xlink:title="js_function_call">
<polygon fill="none" stroke="#000000" points="457.5,-190.5 457.5,-209.5 541.5,-209.5 541.5,-190.5 457.5,-190.5"/>
<text text-anchor="middle" x="499.5" y="-197.5" font-family="Helvetica,sans-Serif" font-size="10.00" fill="#000000">js_function_call</text>
</a>
</g>
</g>
<!-- Node221755&#45;&gt;Node221811 -->
<g id="edge23" class="edge">
<title>Node221755&#45;&gt;Node221811</title>
<path fill="none" stroke="#191970" d="M348.436,-359.3048C363.0412,-345.3428 383.2135,-324.3334 397,-303 419.0459,-268.8861 402.5199,-245.8467 433,-219 439.8479,-212.9684 448.4908,-208.8435 457.2594,-206.0248"/>
<polygon fill="#191970" stroke="#191970" points="345.8788,-356.9044 340.9706,-366.2938 350.6628,-362.0145 345.8788,-356.9044"/>
</g>
<!-- Node221762 -->
<g id="node21" class="node">
<title>Node221762</title>
<g id="a_node21"><a xlink:href="quickjs_8c.html#a5e32da9a43002cb96dcbd62a1a340144" target="_top" xlink:title="js_array_from">
<polygon fill="none" stroke="#000000" points="461.5,-152.5 461.5,-171.5 537.5,-171.5 537.5,-152.5 461.5,-152.5"/>
<text text-anchor="middle" x="499.5" y="-159.5" font-family="Helvetica,sans-Serif" font-size="10.00" fill="#000000">js_array_from</text>
</a>
</g>
</g>
<!-- Node221755&#45;&gt;Node221762 -->
<g id="edge24" class="edge">
<title>Node221755&#45;&gt;Node221762</title>
<path fill="none" stroke="#191970" d="M349.3822,-359.4856C364.3583,-345.7604 384.5663,-324.9826 397,-303 424.8326,-253.7923 392.8524,-220.8023 433,-181 440.589,-173.4763 450.9387,-168.8875 461.2124,-166.1023"/>
<polygon fill="#191970" stroke="#191970" points="346.8193,-357.0814 341.683,-366.348 351.477,-362.307 346.8193,-357.0814"/>
</g>
<!-- Node221788 -->
<g id="node22" class="node">
<title>Node221788</title>
<g id="a_node22"><a xlink:href="quickjs_8c.html#aa0bbf08a7e91459c68a312fba7016c6d" target="_top" xlink:title="js_array_every">
<polygon fill="none" stroke="#000000" points="459.5,-114.5 459.5,-133.5 539.5,-133.5 539.5,-114.5 459.5,-114.5"/>
<text text-anchor="middle" x="499.5" y="-121.5" font-family="Helvetica,sans-Serif" font-size="10.00" fill="#000000">js_array_every</text>
</a>
</g>
</g>
<!-- Node221755&#45;&gt;Node221788 -->
<g id="edge25" class="edge">
<title>Node221755&#45;&gt;Node221788</title>
<path fill="none" stroke="#191970" d="M349.7794,-359.7018C364.9792,-346.0983 385.2942,-325.3786 397,-303 430.784,-238.4134 382.949,-195.9876 433,-143 439.9258,-135.6678 449.4663,-131.1018 459.16,-128.2759"/>
<polygon fill="#191970" stroke="#191970" points="347.2106,-357.2967 341.9485,-366.4925 351.7966,-362.5852 347.2106,-357.2967"/>
</g>
<!-- Node221812 -->
<g id="node23" class="node">
<title>Node221812</title>
<g id="a_node23"><a xlink:href="quickjs_8c.html#a36c1692489542a86dd79a7d39ab8ff95" target="_top" xlink:title="js_array_reduce">
<polygon fill="none" stroke="#000000" points="456.5,-810.5 456.5,-829.5 542.5,-829.5 542.5,-810.5 456.5,-810.5"/>
<text text-anchor="middle" x="499.5" y="-817.5" font-family="Helvetica,sans-Serif" font-size="10.00" fill="#000000">js_array_reduce</text>
</a>
</g>
</g>
<!-- Node221755&#45;&gt;Node221812 -->
<g id="edge26" class="edge">
<title>Node221755&#45;&gt;Node221812</title>
<path fill="none" stroke="#191970" d="M332.1388,-395.5625C340.751,-470.8717 375.2298,-740.8395 433,-801 439.3206,-807.5821 447.7493,-811.9306 456.4773,-814.7916"/>
<polygon fill="#191970" stroke="#191970" points="335.6096,-395.106 331.0173,-385.5582 328.6532,-395.8859 335.6096,-395.106"/>
</g>
<!-- Node221813 -->
<g id="node24" class="node">
<title>Node221813</title>
<g id="a_node24"><a xlink:href="quickjs_8c.html#a9dd41b086da4e13b3487cc9c6e2af2b8" target="_top" xlink:title="js_array_find">
<polygon fill="none" stroke="#000000" points="463.5,-772.5 463.5,-791.5 535.5,-791.5 535.5,-772.5 463.5,-772.5"/>
<text text-anchor="middle" x="499.5" y="-779.5" font-family="Helvetica,sans-Serif" font-size="10.00" fill="#000000">js_array_find</text>
</a>
</g>
</g>
<!-- Node221755&#45;&gt;Node221813 -->
<g id="edge27" class="edge">
<title>Node221755&#45;&gt;Node221813</title>
<path fill="none" stroke="#191970" d="M332.7077,-396.0667C342.7518,-467.6506 380.0488,-709.0773 433,-763 440.9922,-771.1388 452.2104,-775.8536 463.1597,-778.5648"/>
<polygon fill="#191970" stroke="#191970" points="336.1187,-395.1804 331.2856,-385.7522 329.1843,-396.1366 336.1187,-395.1804"/>
</g>
<!-- Node221814 -->
<g id="node25" class="node">
<title>Node221814</title>
<g id="a_node25"><a xlink:href="quickjs_8c.html#ad90c33b4aae1181151bda4a98ac2ef23" target="_top" xlink:title="JS_FlattenIntoArray">
<polygon fill="none" stroke="#ff0000" points="447.5,-716.5 447.5,-735.5 551.5,-735.5 551.5,-716.5 447.5,-716.5"/>
<text text-anchor="middle" x="499.5" y="-723.5" font-family="Helvetica,sans-Serif" font-size="10.00" fill="#000000">JS_FlattenIntoArray</text>
</a>
</g>
</g>
<!-- Node221755&#45;&gt;Node221814 -->
<g id="edge28" class="edge">
<title>Node221755&#45;&gt;Node221814</title>
<path fill="none" stroke="#191970" d="M333.5833,-395.6167C345.6742,-459.779 386.8037,-661.8714 433,-707 437.1227,-711.0274 442.0373,-714.2125 447.3019,-716.7296"/>
<polygon fill="#191970" stroke="#191970" points="336.9929,-394.8072 331.7247,-385.6151 330.1107,-396.0862 336.9929,-394.8072"/>
</g>
<!-- Node221816 -->
<g id="node26" class="node">
<title>Node221816</title>
<g id="a_node26"><a xlink:href="quickjs_8c.html#aed1bf9ce4b9e3a82388679dd6ec7635b" target="_top" xlink:title="js_string_replace">
<polygon fill="none" stroke="#000000" points="454.5,-38.5 454.5,-57.5 544.5,-57.5 544.5,-38.5 454.5,-38.5"/>
<text text-anchor="middle" x="499.5" y="-45.5" font-family="Helvetica,sans-Serif" font-size="10.00" fill="#000000">js_string_replace</text>
</a>
</g>
</g>
<!-- Node221755&#45;&gt;Node221816 -->
<g id="edge30" class="edge">
<title>Node221755&#45;&gt;Node221816</title>
<path fill="none" stroke="#191970" d="M350.4771,-359.6845C365.8873,-346.1982 386.1465,-325.6433 397,-303 442.8612,-207.3212 362.8835,-146.6326 433,-67 438.6337,-60.6017 446.2576,-56.291 454.3344,-53.4021"/>
<polygon fill="#191970" stroke="#191970" points="347.8863,-357.2914 342.5053,-366.418 352.4032,-362.639 347.8863,-357.2914"/>
</g>
<!-- Node221817 -->
<g id="node27" class="node">
<title>Node221817</title>
<g id="a_node27"><a xlink:href="quickjs_8c.html#a624282391413d4c5a030adbd8b77aa80" target="_top" xlink:title="internalize_json_property">
<polygon fill="none" stroke="#ff0000" points="437,-660.5 437,-679.5 562,-679.5 562,-660.5 437,-660.5"/>
<text text-anchor="middle" x="499.5" y="-667.5" font-family="Helvetica,sans-Serif" font-size="10.00" fill="#000000">internalize_json_property</text>
</a>
</g>
</g>
<!-- Node221755&#45;&gt;Node221817 -->
<g id="edge31" class="edge">
<title>Node221755&#45;&gt;Node221817</title>
<path fill="none" stroke="#191970" d="M331.4886,-395.9326C336.3453,-446.3747 356.1884,-580.1051 433,-651 437.2352,-654.909 442.2201,-658.02 447.5247,-660.495"/>
<polygon fill="#191970" stroke="#191970" points="334.9549,-395.3916 330.6066,-385.7302 327.9809,-395.9945 334.9549,-395.3916"/>
</g>
<!-- Node221819 -->
<g id="node28" class="node">
<title>Node221819</title>
<g id="a_node28"><a xlink:href="quickjs_8c.html#a0da6493b4bc0edb7ddddfab807241d0b" target="_top" xlink:title="js_json_check">
<polygon fill="none" stroke="#ff0000" points="460,-.5 460,-19.5 539,-19.5 539,-.5 460,-.5"/>
<text text-anchor="middle" x="499.5" y="-7.5" font-family="Helvetica,sans-Serif" font-size="10.00" fill="#000000">js_json_check</text>
</a>
</g>
</g>
<!-- Node221755&#45;&gt;Node221819 -->
<g id="edge33" class="edge">
<title>Node221755&#45;&gt;Node221819</title>
<path fill="none" stroke="#191970" d="M350.6075,-359.7462C366.0896,-346.2939 386.3818,-325.7546 397,-303 448.9379,-191.6974 352.793,-122.0197 433,-29 439.8216,-21.0887 449.687,-16.3602 459.7395,-13.5649"/>
<polygon fill="#191970" stroke="#191970" points="348.0115,-357.3551 342.5932,-366.4596 352.5066,-362.7211 348.0115,-357.3551"/>
</g>
<!-- Node221800&#45;&gt;Node221800 -->
<g id="edge19" class="edge">
<title>Node221800&#45;&gt;Node221800</title>
<path fill="none" stroke="#191970" d="M468.0629,-294.2746C468.9592,-299.741 479.4382,-304 499.5,-304 529.3594,-304 537.9906,-294.5653 525.3937,-285.7571"/>
<polygon fill="#191970" stroke="#191970" points="471.085,-296.0475 473.6063,-285.7571 465.2181,-292.2291 471.085,-296.0475"/>
</g>
<!-- Node221808&#45;&gt;Node221735 -->
<g id="edge22" class="edge">
<title>Node221808&#45;&gt;Node221735</title>
<path fill="none" stroke="#191970" d="M447.7366,-98.8526C442.6655,-100.6845 437.6727,-102.73 433,-105 331.8798,-154.1243 228.5066,-244.6431 195.9593,-274.3077"/>
<polygon fill="#191970" stroke="#191970" points="449.1422,-102.0735 457.5217,-95.59 446.9281,-95.4329 449.1422,-102.0735"/>
</g>
<!-- Node221814&#45;&gt;Node221814 -->
<g id="edge29" class="edge">
<title>Node221814&#45;&gt;Node221814</title>
<path fill="none" stroke="#191970" d="M468.0629,-744.2746C468.9592,-749.741 479.4382,-754 499.5,-754 529.3594,-754 537.9906,-744.5653 525.3937,-735.7571"/>
<polygon fill="#191970" stroke="#191970" points="471.085,-746.0475 473.6063,-735.7571 465.2181,-742.2291 471.085,-746.0475"/>
</g>
<!-- Node221817&#45;&gt;Node221817 -->
<g id="edge32" class="edge">
<title>Node221817&#45;&gt;Node221817</title>
<path fill="none" stroke="#191970" d="M468.0629,-688.2746C468.9592,-693.741 479.4382,-698 499.5,-698 529.3594,-698 537.9906,-688.5653 525.3937,-679.7571"/>
<polygon fill="#191970" stroke="#191970" points="471.085,-690.0475 473.6063,-679.7571 465.2181,-686.2291 471.085,-690.0475"/>
</g>
<!-- Node221841&#45;&gt;Node221735 -->
<g id="edge35" class="edge">
<title>Node221841&#45;&gt;Node221735</title>
<path fill="none" stroke="#191970" d="M252.7059,-290.7354C243.9651,-290.6845 235.3232,-290.5014 227.2954,-290.186"/>
<polygon fill="#191970" stroke="#191970" points="252.9819,-294.2354 262.9815,-290.7342 252.981,-287.2354 252.9819,-294.2354"/>
</g>
<!-- Node221855&#45;&gt;Node221735 -->
<g id="edge37" class="edge">
<title>Node221855&#45;&gt;Node221735</title>
<path fill="none" stroke="#191970" d="M303.0852,-113.696C289.7437,-118.1037 274.146,-124.0129 263,-134 217.716,-174.5757 196.1198,-247.5005 188.6584,-274.2978"/>
<polygon fill="#191970" stroke="#191970" points="304.2985,-116.9822 312.7367,-110.5754 302.1449,-110.3217 304.2985,-116.9822"/>
</g>
<!-- Node221855&#45;&gt;Node221816 -->
<g id="edge39" class="edge">
<title>Node221855&#45;&gt;Node221816</title>
<path fill="none" stroke="#191970" d="M367.5897,-88.1858C387.0522,-81.6544 411.2366,-73.6981 433,-67 443.3283,-63.8213 454.6137,-60.5293 464.9066,-57.5965"/>
<polygon fill="#191970" stroke="#191970" points="366.2393,-84.9474 357.8804,-91.4573 368.4745,-91.581 366.2393,-84.9474"/>
</g>
<!-- Node221855&#45;&gt;Node221819 -->
<g id="edge38" class="edge">
<title>Node221855&#45;&gt;Node221819</title>
<path fill="none" stroke="#191970" d="M348.8654,-84.8954C368.6589,-68.7273 401.2521,-44.109 433,-29 441.3483,-25.027 450.6908,-21.7251 459.6741,-19.05"/>
<polygon fill="#191970" stroke="#191970" points="346.4189,-82.3776 340.9633,-91.4598 350.8919,-87.7621 346.4189,-82.3776"/>
</g>
</g>
</svg>
        <g id="navigator" transform="translate(0 0)" fill="#404254">
                <rect fill="#f2f5e9" fill-opacity="0.5" stroke="#606060" stroke-width=".5" x="0" y="0" width="60" height="60"/>
                <use id="zoomplus" xlink:href="#zoomPlus" x="17" y="9" onmousedown="handleZoom(evt,'in')"/>
                <use id="zoomminus" xlink:href="#zoomMin" x="42" y="9" onmousedown="handleZoom(evt,'out')"/>
                <use id="reset" xlink:href="#resetDef" x="30" y="36" onmousedown="handleReset()"/>
                <g id="arrowUp" xlink:href="#dirArrow" transform="translate(30 24)" onmousedown="handlePan(0,-1)">
                  <use xlink:href="#rim" fill="#404040">
                        <set attributeName="fill" to="#808080" begin="arrowUp.mouseover" end="arrowUp.mouseout"/>
                  </use>
                  <path fill="none" stroke="white" stroke-width="1.5" d="M0,-3.0v7 M-2.5,-0.5L0,-3.0L2.5,-0.5"/>
                </g>
                <g id="arrowRight" xlink:href="#dirArrow" transform="rotate(90) translate(36 -43)" onmousedown="handlePan(1,0)">
                  <use xlink:href="#rim" fill="#404040">
                        <set attributeName="fill" to="#808080" begin="arrowRight.mouseover" end="arrowRight.mouseout"/>
                  </use>
                  <path fill="none" stroke="white" stroke-width="1.5" d="M0,-3.0v7 M-2.5,-0.5L0,-3.0L2.5,-0.5"/>
                </g>
                <g id="arrowDown" xlink:href="#dirArrow" transform="rotate(180) translate(-30 -48)" onmousedown="handlePan(0,1)">
                  <use xlink:href="#rim" fill="#404040">
                        <set attributeName="fill" to="#808080" begin="arrowDown.mouseover" end="arrowDown.mouseout"/>
                  </use>
                  <path fill="none" stroke="white" stroke-width="1.5" d="M0,-3.0v7 M-2.5,-0.5L0,-3.0L2.5,-0.5"/>
                </g>
                <g id="arrowLeft" xlink:href="#dirArrow" transform="rotate(270) translate(-36 17)" onmousedown="handlePan(-1,0)">
                  <use xlink:href="#rim" fill="#404040">
                        <set attributeName="fill" to="#808080" begin="arrowLeft.mouseover" end="arrowLeft.mouseout"/>
                  </use>
                  <path fill="none" stroke="white" stroke-width="1.5" d="M0,-3.0v7 M-2.5,-0.5L0,-3.0L2.5,-0.5"/>
                </g>
        </g>
        <svg viewBox="0 0 15 15" width="100%" height="30px" preserveAspectRatio="xMaxYMin meet">
         <g id="arrow_out" transform="scale(0.3 0.3)">
          <a xlink:href="quickjs_8c_a541a07ee8f5d72f230f97472ec9e42dd_icgraph_org.svg" target="_base">
           <rect id="button" ry="5" rx="5" y="6" x="6" height="38" width="38"
                fill="#f2f5e9" fill-opacity="0.5" stroke="#606060" stroke-width="1.0"/>
           <path id="arrow"
             d="M 11.500037,31.436501 C 11.940474,20.09759 22.043105,11.32322 32.158766,21.979434 L 37.068811,17.246167 C 37.068811,17.246167 37.088388,32 37.088388,32 L 22.160133,31.978069 C 22.160133,31.978069 26.997745,27.140456 26.997745,27.140456 C 18.528582,18.264221 13.291696,25.230495 11.500037,31.436501 z"
             style="fill:#404040;"/>
          </a>
         </g>
        </svg>
</svg>
