<?xml version="1.0" encoding="UTF-8" standalone="no"?>
<!DOCTYPE svg PUBLIC "-//W3C//DTD SVG 1.1//EN"
 "http://www.w3.org/Graphics/SVG/1.1/DTD/svg11.dtd">
<!-- Generated by graphviz version 2.40.1 (20161225.0304)
 -->
<!-- Title: js_parse_property_name Pages: 1 -->
<!--zoomable 675 -->
<svg id="main" version="1.1" xmlns="http://www.w3.org/2000/svg" xmlns:xlink="http://www.w3.org/1999/xlink" xml:space="preserve" onload="init(evt)">
<style type="text/css"><![CDATA[
.edge:hover path { stroke: red; }
.edge:hover polygon { stroke: red; fill: red; }
]]></style>
<script type="text/javascript"><![CDATA[
var edges = document.getElementsByTagName('g');
if (edges && edges.length) {
  for (var i=0;i<edges.length;i++) {
    if (edges[i].id.substr(0,4)=='edge') {
      edges[i].setAttribute('class','edge');
    }
  }
}
]]></script>
        <defs>
                <circle id="rim" cx="0" cy="0" r="7"/>
                <circle id="rim2" cx="0" cy="0" r="3.5"/>
                <g id="zoomPlus">
                        <use xlink:href="#rim" fill="#404040">
                                <set attributeName="fill" to="#808080" begin="zoomplus.mouseover" end="zoomplus.mouseout"/>
                        </use>
                        <path d="M-4,0h8M0,-4v8" fill="none" stroke="white" stroke-width="1.5" pointer-events="none"/>
                </g>
                <g id="zoomMin">
                        <use xlink:href="#rim" fill="#404040">
                                <set attributeName="fill" to="#808080" begin="zoomminus.mouseover" end="zoomminus.mouseout"/>
                        </use>
                        <path d="M-4,0h8" fill="none" stroke="white" stroke-width="1.5" pointer-events="none"/>
                </g>
                <g id="dirArrow">
                        <path fill="none" stroke="white" stroke-width="1.5" d="M0,-3.0v7 M-2.5,-0.5L0,-3.0L2.5,-0.5"/>
                </g>
               <g id="resetDef">
                       <use xlink:href="#rim2" fill="#404040">
                               <set attributeName="fill" to="#808080" begin="reset.mouseover" end="reset.mouseout"/>
                       </use>
               </g>
        </defs>

<script type="text/javascript">
var viewWidth = 1255;
var viewHeight = 675;
var sectionId = 'dynsection-1012';
</script>
<script xlink:href="svgpan.js"/>
<svg id="graph" class="graph">
<g id="viewport">
<title>js_parse_property_name</title>
<!-- Node317643 -->
<g id="node1" class="node">
<title>Node317643</title>
<polygon fill="#bfbfbf" stroke="#000000" points="0,-323.5 0,-342.5 123,-342.5 123,-323.5 0,-323.5"/>
<text text-anchor="middle" x="61.5" y="-330.5" font-family="Helvetica,sans-Serif" font-size="10.00" fill="#000000">js_parse_property_name</text>
</g>
<!-- Node317644 -->
<g id="node2" class="node">
<title>Node317644</title>
<g id="a_node2"><a xlink:href="quickjs_8c.html#abbf44eaeace1104a6bef718fbf5700fe" target="_top" xlink:title="JS_DupAtom">
<polygon fill="none" stroke="#000000" points="333.5,-646.5 333.5,-665.5 408.5,-665.5 408.5,-646.5 333.5,-646.5"/>
<text text-anchor="middle" x="371" y="-653.5" font-family="Helvetica,sans-Serif" font-size="10.00" fill="#000000">JS_DupAtom</text>
</a>
</g>
</g>
<!-- Node317643&#45;&gt;Node317644 -->
<g id="edge1" class="edge">
<title>Node317643&#45;&gt;Node317644</title>
<path fill="none" stroke="#191970" d="M63.2332,-342.7495C71.8064,-389.8327 111.187,-593.0058 159,-632 204.9972,-669.5133 276.4742,-669.4674 323.511,-664.1843"/>
<polygon fill="#191970" stroke="#191970" points="323.9584,-667.6558 333.4506,-662.9496 323.0954,-660.7091 323.9584,-667.6558"/>
</g>
<!-- Node317646 -->
<g id="node4" class="node">
<title>Node317646</title>
<g id="a_node4"><a xlink:href="quickjs_8c.html#ab7fc45a99935a1c0ba50b0216d9401a9" target="_top" xlink:title="JS_FreeAtom">
<polygon fill="none" stroke="#000000" points="880,-589.5 880,-608.5 957,-608.5 957,-589.5 880,-589.5"/>
<text text-anchor="middle" x="918.5" y="-596.5" font-family="Helvetica,sans-Serif" font-size="10.00" fill="#000000">JS_FreeAtom</text>
</a>
</g>
</g>
<!-- Node317643&#45;&gt;Node317646 -->
<g id="edge3" class="edge">
<title>Node317643&#45;&gt;Node317646</title>
<path fill="none" stroke="#191970" d="M65.975,-342.8103C89.5764,-392.9248 204.8255,-618 371,-618 371,-618 371,-618 635.5,-618 717.7841,-618 813.2242,-609.9049 869.5875,-604.2825"/>
<polygon fill="#191970" stroke="#191970" points="870.0487,-607.7538 879.6451,-603.264 869.3433,-600.7894 870.0487,-607.7538"/>
</g>
<!-- Node317651 -->
<g id="node7" class="node">
<title>Node317651</title>
<g id="a_node7"><a xlink:href="quickjs_8c.html#aeca8ed71e1eef8ec809afab744958c28" target="_top" xlink:title="js_parse_expect">
<polygon fill="none" stroke="#000000" points="327,-323.5 327,-342.5 415,-342.5 415,-323.5 327,-323.5"/>
<text text-anchor="middle" x="371" y="-330.5" font-family="Helvetica,sans-Serif" font-size="10.00" fill="#000000">js_parse_expect</text>
</a>
</g>
</g>
<!-- Node317643&#45;&gt;Node317651 -->
<g id="edge7" class="edge">
<title>Node317643&#45;&gt;Node317651</title>
<path fill="none" stroke="#191970" d="M123.0173,-333C179.4918,-333 262.3776,-333 316.515,-333"/>
<polygon fill="#191970" stroke="#191970" points="316.6093,-336.5001 326.6093,-333 316.6092,-329.5001 316.6093,-336.5001"/>
</g>
<!-- Node317652 -->
<g id="node8" class="node">
<title>Node317652</title>
<g id="a_node8"><a xlink:href="quickjs_8c.html#a75a3798e2045f6e403c1ef467126d1fb" target="_top" xlink:title="next_token">
<polygon fill="none" stroke="#000000" points="603,-304.5 603,-323.5 668,-323.5 668,-304.5 603,-304.5"/>
<text text-anchor="middle" x="635.5" y="-311.5" font-family="Helvetica,sans-Serif" font-size="10.00" fill="#000000">next_token</text>
</a>
</g>
</g>
<!-- Node317643&#45;&gt;Node317652 -->
<g id="edge42" class="edge">
<title>Node317643&#45;&gt;Node317652</title>
<path fill="none" stroke="#191970" d="M73.5426,-342.5959C91.1322,-355.9878 125.4218,-379.7858 159,-390 332.6531,-442.8239 405.2149,-490.2884 567,-408 597.7479,-392.3607 617.9628,-355.7338 628.0098,-333.0951"/>
<polygon fill="#191970" stroke="#191970" points="631.2668,-334.3787 631.9118,-323.8035 624.8128,-331.6683 631.2668,-334.3787"/>
</g>
<!-- Node317757 -->
<g id="node24" class="node">
<title>Node317757</title>
<g id="a_node24"><a xlink:href="quickjs_8c.html#af219bd55085ad700eb078affe3f65505" target="_top" xlink:title="js_parse_expr">
<polygon fill="none" stroke="#000000" points="186.5,-361.5 186.5,-380.5 263.5,-380.5 263.5,-361.5 186.5,-361.5"/>
<text text-anchor="middle" x="225" y="-368.5" font-family="Helvetica,sans-Serif" font-size="10.00" fill="#000000">js_parse_expr</text>
</a>
</g>
</g>
<!-- Node317643&#45;&gt;Node317757 -->
<g id="edge33" class="edge">
<title>Node317643&#45;&gt;Node317757</title>
<path fill="none" stroke="#191970" d="M102.758,-342.589C125.1901,-347.8026 153.0642,-354.281 176.528,-359.7343"/>
<polygon fill="#191970" stroke="#191970" points="175.7524,-363.1473 186.2852,-362.0021 177.3371,-356.329 175.7524,-363.1473"/>
</g>
<!-- Node317859 -->
<g id="node27" class="node">
<title>Node317859</title>
<g id="a_node27"><a xlink:href="quickjs_8c.html#a859d5c989a2aaecef1653b3ac279e108" target="_top" xlink:title="JS_ValueToAtom">
<polygon fill="none" stroke="#ff0000" points="462.5,-199.5 462.5,-218.5 555.5,-218.5 555.5,-199.5 462.5,-199.5"/>
<text text-anchor="middle" x="509" y="-206.5" font-family="Helvetica,sans-Serif" font-size="10.00" fill="#000000">JS_ValueToAtom</text>
</a>
</g>
</g>
<!-- Node317643&#45;&gt;Node317859 -->
<g id="edge40" class="edge">
<title>Node317643&#45;&gt;Node317859</title>
<path fill="none" stroke="#191970" d="M102.72,-323.4806C148.794,-312.6737 225.5315,-294.1759 291,-276 354.1789,-258.4597 426.8419,-235.5761 470.2818,-221.6018"/>
<polygon fill="#191970" stroke="#191970" points="471.4399,-224.9059 479.8827,-218.5052 469.2911,-218.2439 471.4399,-224.9059"/>
</g>
<!-- Node318168 -->
<g id="node28" class="node">
<title>Node318168</title>
<g id="a_node28"><a xlink:href="quickjs_8c.html#a2738f70401d666222802576640dd5781" target="_top" xlink:title="peek_token">
<polygon fill="none" stroke="#ff0000" points="191.5,-247.5 191.5,-266.5 258.5,-266.5 258.5,-247.5 191.5,-247.5"/>
<text text-anchor="middle" x="225" y="-254.5" font-family="Helvetica,sans-Serif" font-size="10.00" fill="#000000">peek_token</text>
</a>
</g>
</g>
<!-- Node317643&#45;&gt;Node318168 -->
<g id="edge43" class="edge">
<title>Node317643&#45;&gt;Node318168</title>
<path fill="none" stroke="#191970" d="M77.7073,-323.4428C96.7727,-312.4166 129.5636,-294.1231 159,-281 167.7504,-277.099 177.3472,-273.3316 186.4464,-269.9833"/>
<polygon fill="#191970" stroke="#191970" points="187.8341,-273.2039 196.0612,-266.5281 185.4667,-266.6163 187.8341,-273.2039"/>
</g>
<!-- Node318187 -->
<g id="node29" class="node">
<title>Node318187</title>
<g id="a_node29"><a xlink:href="quickjs_8c.html#a160f3b6bfb8f338da441c58169a08f58" target="_top" xlink:title="token_is_ident">
<polygon fill="none" stroke="#000000" points="185,-209.5 185,-228.5 265,-228.5 265,-209.5 185,-209.5"/>
<text text-anchor="middle" x="225" y="-216.5" font-family="Helvetica,sans-Serif" font-size="10.00" fill="#000000">token_is_ident</text>
</a>
</g>
</g>
<!-- Node317643&#45;&gt;Node318187 -->
<g id="edge44" class="edge">
<title>Node317643&#45;&gt;Node318187</title>
<path fill="none" stroke="#191970" d="M68.682,-323.3325C83.4391,-304.1542 119.1524,-261.1527 159,-238 164.0856,-235.0451 169.6618,-232.5235 175.3508,-230.3779"/>
<polygon fill="#191970" stroke="#191970" points="176.6218,-233.6427 184.9646,-227.112 174.3702,-227.0147 176.6218,-233.6427"/>
</g>
<!-- Node318131 -->
<g id="node30" class="node">
<title>Node318131</title>
<g id="a_node30"><a xlink:href="quickjs_8c.html#a76ed161458dbf48da341e43ab398efd4" target="_top" xlink:title="token_is_pseudo_keyword">
<polygon fill="none" stroke="#000000" points="159,-171.5 159,-190.5 291,-190.5 291,-171.5 159,-171.5"/>
<text text-anchor="middle" x="225" y="-178.5" font-family="Helvetica,sans-Serif" font-size="10.00" fill="#000000">token_is_pseudo_keyword</text>
</a>
</g>
</g>
<!-- Node317643&#45;&gt;Node318131 -->
<g id="edge45" class="edge">
<title>Node317643&#45;&gt;Node318131</title>
<path fill="none" stroke="#191970" d="M65.8362,-323.2666C77.3006,-298.6686 110.8683,-233.5868 159,-200 161.8739,-197.9946 164.9578,-196.1992 168.1657,-194.592"/>
<polygon fill="#191970" stroke="#191970" points="169.692,-197.7449 177.4628,-190.5431 166.897,-191.3271 169.692,-197.7449"/>
</g>
<!-- Node317645 -->
<g id="node3" class="node">
<title>Node317645</title>
<g id="a_node3"><a xlink:href="quickjs_8c.html#a7f6796ee7a195631366f57c713a33f65" target="_top" xlink:title="__JS_AtomIsConst">
<polygon fill="none" stroke="#000000" points="1006,-636.5 1006,-655.5 1108,-655.5 1108,-636.5 1006,-636.5"/>
<text text-anchor="middle" x="1057" y="-643.5" font-family="Helvetica,sans-Serif" font-size="10.00" fill="#000000">__JS_AtomIsConst</text>
</a>
</g>
</g>
<!-- Node317644&#45;&gt;Node317645 -->
<g id="edge2" class="edge">
<title>Node317644&#45;&gt;Node317645</title>
<path fill="none" stroke="#191970" d="M408.6689,-656C459.9703,-656 554.6806,-656 635.5,-656 635.5,-656 635.5,-656 767.5,-656 846.2536,-656 936.9861,-652.2581 995.5736,-649.3522"/>
<polygon fill="#191970" stroke="#191970" points="995.9582,-652.8374 1005.7695,-648.8389 995.6061,-645.8463 995.9582,-652.8374"/>
</g>
<!-- Node317646&#45;&gt;Node317645 -->
<g id="edge4" class="edge">
<title>Node317646&#45;&gt;Node317645</title>
<path fill="none" stroke="#191970" d="M946.5275,-608.5112C967.3215,-615.5676 995.9119,-625.2697 1018.7974,-633.0359"/>
<polygon fill="#191970" stroke="#191970" points="1017.9444,-636.4425 1028.5388,-636.3417 1020.1939,-629.8137 1017.9444,-636.4425"/>
</g>
<!-- Node317647 -->
<g id="node5" class="node">
<title>Node317647</title>
<g id="a_node5"><a xlink:href="quickjs_8c.html#a0bbd9e3ecd55e3ea6c9d44bfda382095" target="_top" xlink:title="__JS_FreeAtom">
<polygon fill="none" stroke="#000000" points="1013.5,-589.5 1013.5,-608.5 1100.5,-608.5 1100.5,-589.5 1013.5,-589.5"/>
<text text-anchor="middle" x="1057" y="-596.5" font-family="Helvetica,sans-Serif" font-size="10.00" fill="#000000">__JS_FreeAtom</text>
</a>
</g>
</g>
<!-- Node317646&#45;&gt;Node317647 -->
<g id="edge5" class="edge">
<title>Node317646&#45;&gt;Node317647</title>
<path fill="none" stroke="#191970" d="M957.08,-599C971.2572,-599 987.5837,-599 1002.8756,-599"/>
<polygon fill="#191970" stroke="#191970" points="1003.258,-602.5001 1013.258,-599 1003.2579,-595.5001 1003.258,-602.5001"/>
</g>
<!-- Node317648 -->
<g id="node6" class="node">
<title>Node317648</title>
<g id="a_node6"><a xlink:href="quickjs_8c.html#a58c8965dad50b15b75918a09f3d9dc7c" target="_top" xlink:title="JS_FreeAtomStruct">
<polygon fill="none" stroke="#ff0000" points="1144,-589.5 1144,-608.5 1247,-608.5 1247,-589.5 1144,-589.5"/>
<text text-anchor="middle" x="1195.5" y="-596.5" font-family="Helvetica,sans-Serif" font-size="10.00" fill="#000000">JS_FreeAtomStruct</text>
</a>
</g>
</g>
<!-- Node317647&#45;&gt;Node317648 -->
<g id="edge6" class="edge">
<title>Node317647&#45;&gt;Node317648</title>
<path fill="none" stroke="#191970" d="M1100.8223,-599C1111.2585,-599 1122.5896,-599 1133.6647,-599"/>
<polygon fill="#191970" stroke="#191970" points="1133.7308,-602.5001 1143.7308,-599 1133.7307,-595.5001 1133.7308,-602.5001"/>
</g>
<!-- Node317651&#45;&gt;Node317652 -->
<g id="edge8" class="edge">
<title>Node317651&#45;&gt;Node317652</title>
<path fill="none" stroke="#191970" d="M415.2715,-324.0641C426.8526,-322.0534 439.3557,-320.1703 451,-319 499.3765,-314.1379 555.2227,-313.2829 592.6887,-313.393"/>
<polygon fill="#191970" stroke="#191970" points="592.7284,-316.8932 602.7471,-313.4471 592.7661,-309.8933 592.7284,-316.8932"/>
</g>
<!-- Node317653 -->
<g id="node9" class="node">
<title>Node317653</title>
<g id="a_node9"><a xlink:href="quickjs_8c.html#a7cd95e5ed87d4b27630af7944855779f" target="_top" xlink:title="free_token">
<polygon fill="none" stroke="#000000" points="736.5,-418.5 736.5,-437.5 798.5,-437.5 798.5,-418.5 736.5,-418.5"/>
<text text-anchor="middle" x="767.5" y="-425.5" font-family="Helvetica,sans-Serif" font-size="10.00" fill="#000000">free_token</text>
</a>
</g>
</g>
<!-- Node317652&#45;&gt;Node317653 -->
<g id="edge9" class="edge">
<title>Node317652&#45;&gt;Node317653</title>
<path fill="none" stroke="#191970" d="M640.3842,-323.5528C650.114,-341.6952 673.6206,-381.3439 704,-404 710.8583,-409.1147 718.9331,-413.2586 726.983,-416.5709"/>
<polygon fill="#191970" stroke="#191970" points="725.7549,-419.8483 736.3471,-420.0856 728.2148,-413.2947 725.7549,-419.8483"/>
</g>
<!-- Node317654 -->
<g id="node10" class="node">
<title>Node317654</title>
<g id="a_node10"><a xlink:href="quickjs_8h.html#afaa20c47565bc704c6c85f3d77254e7d" target="_top" xlink:title="JS_FreeValue">
<polygon fill="none" stroke="#ff0000" points="879.5,-399.5 879.5,-418.5 957.5,-418.5 957.5,-399.5 879.5,-399.5"/>
<text text-anchor="middle" x="918.5" y="-406.5" font-family="Helvetica,sans-Serif" font-size="10.00" fill="#000000">JS_FreeValue</text>
</a>
</g>
</g>
<!-- Node317652&#45;&gt;Node317654 -->
<g id="edge16" class="edge">
<title>Node317652&#45;&gt;Node317654</title>
<path fill="none" stroke="#191970" d="M644.152,-323.8608C656.1874,-336.8919 679.303,-359.5333 704,-371 756.9862,-395.6013 824.1247,-404.3492 869.0457,-407.4185"/>
<polygon fill="#191970" stroke="#191970" points="868.9256,-410.9177 879.1214,-408.0372 869.3547,-403.9308 868.9256,-410.9177"/>
</g>
<!-- Node317686 -->
<g id="node11" class="node">
<title>Node317686</title>
<g id="a_node11"><a xlink:href="quickjs_8c.html#ab3ca6381d29dea396b12acd7f755c51a" target="_top" xlink:title="is_digit">
<polygon fill="none" stroke="#000000" points="895,-323.5 895,-342.5 942,-342.5 942,-323.5 895,-323.5"/>
<text text-anchor="middle" x="918.5" y="-330.5" font-family="Helvetica,sans-Serif" font-size="10.00" fill="#000000">is_digit</text>
</a>
</g>
</g>
<!-- Node317652&#45;&gt;Node317686 -->
<g id="edge12" class="edge">
<title>Node317652&#45;&gt;Node317686</title>
<path fill="none" stroke="#191970" d="M668.2402,-316.1981C722.2558,-319.8246 829.5165,-327.0258 884.4069,-330.7111"/>
<polygon fill="#191970" stroke="#191970" points="884.4434,-334.2213 894.6554,-331.3991 884.9123,-327.237 884.4434,-334.2213"/>
</g>
<!-- Node317687 -->
<g id="node12" class="node">
<title>Node317687</title>
<g id="a_node12"><a xlink:href="quickjs_8c.html#a40bcef4994dba57dfb34b6eed66daef0" target="_top" xlink:title="js_atof">
<polygon fill="none" stroke="#ff0000" points="744.5,-342.5 744.5,-361.5 790.5,-361.5 790.5,-342.5 744.5,-342.5"/>
<text text-anchor="middle" x="767.5" y="-349.5" font-family="Helvetica,sans-Serif" font-size="10.00" fill="#000000">js_atof</text>
</a>
</g>
</g>
<!-- Node317652&#45;&gt;Node317687 -->
<g id="edge13" class="edge">
<title>Node317652&#45;&gt;Node317687</title>
<path fill="none" stroke="#191970" d="M668.1292,-323.3933C688.3757,-329.2218 714.3079,-336.6871 734.6041,-342.53"/>
<polygon fill="#191970" stroke="#191970" points="733.7759,-345.9336 744.3539,-345.3367 735.7125,-339.2068 733.7759,-345.9336"/>
</g>
<!-- Node317695 -->
<g id="node13" class="node">
<title>Node317695</title>
<g id="a_node13"><a xlink:href="quickjs_8c.html#af23ec7c9970ceb4671c59da7abd4b078" target="_top" xlink:title="js_check_stack_overflow">
<polygon fill="none" stroke="#ff0000" points="704,-266.5 704,-285.5 831,-285.5 831,-266.5 704,-266.5"/>
<text text-anchor="middle" x="767.5" y="-273.5" font-family="Helvetica,sans-Serif" font-size="10.00" fill="#000000">js_check_stack_overflow</text>
</a>
</g>
</g>
<!-- Node317652&#45;&gt;Node317695 -->
<g id="edge15" class="edge">
<title>Node317652&#45;&gt;Node317695</title>
<path fill="none" stroke="#191970" d="M668.1292,-304.6067C685.1352,-299.7111 706.1525,-293.6606 724.472,-288.3869"/>
<polygon fill="#191970" stroke="#191970" points="725.6878,-291.6791 734.3293,-285.5491 723.7513,-284.9522 725.6878,-291.6791"/>
</g>
<!-- Node317697 -->
<g id="node14" class="node">
<title>Node317697</title>
<g id="a_node14"><a xlink:href="quickjs_8h.html#ad80a83d73e9b7d872b88fbf2943aebe9" target="_top" xlink:title="JS_IsException">
<polygon fill="none" stroke="#000000" points="724.5,-.5 724.5,-19.5 810.5,-19.5 810.5,-.5 724.5,-.5"/>
<text text-anchor="middle" x="767.5" y="-7.5" font-family="Helvetica,sans-Serif" font-size="10.00" fill="#000000">JS_IsException</text>
</a>
</g>
</g>
<!-- Node317652&#45;&gt;Node317697 -->
<g id="edge17" class="edge">
<title>Node317652&#45;&gt;Node317697</title>
<path fill="none" stroke="#191970" d="M636.6647,-304.2356C642.1561,-259.6835 666.7615,-76.0588 704,-34 707.4278,-30.1285 711.5458,-26.8791 716.0168,-24.1523"/>
<polygon fill="#191970" stroke="#191970" points="717.6867,-27.2291 724.9612,-19.5264 714.4709,-21.0115 717.6867,-27.2291"/>
</g>
<!-- Node317698 -->
<g id="node15" class="node">
<title>Node317698</title>
<g id="a_node15"><a xlink:href="quickjs_8c.html#ace438176f9f0e0fea6d6f5cdffb1577e" target="_top" xlink:title="js_parse_string">
<polygon fill="none" stroke="#ff0000" points="726,-114.5 726,-133.5 809,-133.5 809,-114.5 726,-114.5"/>
<text text-anchor="middle" x="767.5" y="-121.5" font-family="Helvetica,sans-Serif" font-size="10.00" fill="#000000">js_parse_string</text>
</a>
</g>
</g>
<!-- Node317652&#45;&gt;Node317698 -->
<g id="edge18" class="edge">
<title>Node317652&#45;&gt;Node317698</title>
<path fill="none" stroke="#191970" d="M636.7892,-304.2634C641.0205,-276.0893 657.0156,-193.5953 704,-148 708.0702,-144.0501 712.8542,-140.7371 717.9398,-137.9612"/>
<polygon fill="#191970" stroke="#191970" points="719.7849,-140.9604 727.3304,-133.5229 716.7937,-134.6316 719.7849,-140.9604"/>
</g>
<!-- Node317699 -->
<g id="node16" class="node">
<title>Node317699</title>
<g id="a_node16"><a xlink:href="libregexp_8h.html#adca92c15688d39a0e06cd92f870d25d2" target="_top" xlink:title="lre_parse_escape">
<polygon fill="none" stroke="#ff0000" points="872,-152.5 872,-171.5 965,-171.5 965,-152.5 872,-152.5"/>
<text text-anchor="middle" x="918.5" y="-159.5" font-family="Helvetica,sans-Serif" font-size="10.00" fill="#000000">lre_parse_escape</text>
</a>
</g>
</g>
<!-- Node317652&#45;&gt;Node317699 -->
<g id="edge27" class="edge">
<title>Node317652&#45;&gt;Node317699</title>
<path fill="none" stroke="#191970" d="M637.2366,-304.1768C642.2987,-278.7791 659.594,-210.8462 704,-181 750.1544,-149.9786 815.0928,-148.5926 861.4033,-152.876"/>
<polygon fill="#191970" stroke="#191970" points="861.2662,-156.3806 871.5749,-153.9348 861.991,-149.4182 861.2662,-156.3806"/>
</g>
<!-- Node317725 -->
<g id="node17" class="node">
<title>Node317725</title>
<g id="a_node17"><a xlink:href="cutils_8h.html#a69529af6d6911dd0ead90eef221b2e10" target="_top" xlink:title="unicode_from_utf8">
<polygon fill="none" stroke="#000000" points="870,-95.5 870,-114.5 967,-114.5 967,-95.5 870,-95.5"/>
<text text-anchor="middle" x="918.5" y="-102.5" font-family="Helvetica,sans-Serif" font-size="10.00" fill="#000000">unicode_from_utf8</text>
</a>
</g>
</g>
<!-- Node317652&#45;&gt;Node317725 -->
<g id="edge32" class="edge">
<title>Node317652&#45;&gt;Node317725</title>
<path fill="none" stroke="#191970" d="M636.6524,-304.2423C641.8393,-262.1677 664.5039,-97.0334 704,-67 761.3747,-23.3714 852.2068,-65.765 894.8801,-90.2788"/>
<polygon fill="#191970" stroke="#191970" points="893.3104,-93.4166 903.7006,-95.489 896.8706,-87.3895 893.3104,-93.4166"/>
</g>
<!-- Node317727 -->
<g id="node18" class="node">
<title>Node317727</title>
<g id="a_node18"><a xlink:href="quickjs_8c.html#a4bd17ae26c9b4e0ab5f7fd320199eb2e" target="_top" xlink:title="js_parse_template_part">
<polygon fill="none" stroke="#ff0000" points="708.5,-76.5 708.5,-95.5 826.5,-95.5 826.5,-76.5 708.5,-76.5"/>
<text text-anchor="middle" x="767.5" y="-83.5" font-family="Helvetica,sans-Serif" font-size="10.00" fill="#000000">js_parse_template_part</text>
</a>
</g>
</g>
<!-- Node317652&#45;&gt;Node317727 -->
<g id="edge21" class="edge">
<title>Node317652&#45;&gt;Node317727</title>
<path fill="none" stroke="#191970" d="M637.4499,-304.2491C645.0817,-266.9904 673.9849,-134.2451 704,-105 705.4835,-103.5545 707.0724,-102.2184 708.7444,-100.9833"/>
<polygon fill="#191970" stroke="#191970" points="710.921,-103.7591 717.695,-95.6126 707.3194,-97.7567 710.921,-103.7591"/>
</g>
<!-- Node317728 -->
<g id="node19" class="node">
<title>Node317728</title>
<g id="a_node19"><a xlink:href="quickjs_8h.html#ad668ac56e2bd3498ec0f0eddb574d3ff" target="_top" xlink:title="JS_VALUE_IS_NAN">
<polygon fill="none" stroke="#000000" points="713,-532.5 713,-551.5 822,-551.5 822,-532.5 713,-532.5"/>
<text text-anchor="middle" x="767.5" y="-539.5" font-family="Helvetica,sans-Serif" font-size="10.00" fill="#000000">JS_VALUE_IS_NAN</text>
</a>
</g>
</g>
<!-- Node317652&#45;&gt;Node317728 -->
<g id="edge23" class="edge">
<title>Node317652&#45;&gt;Node317728</title>
<path fill="none" stroke="#191970" d="M637.4499,-323.7509C645.0817,-361.0096 673.9849,-493.7549 704,-523 705.4835,-524.4455 707.0724,-525.7816 708.7444,-527.0167"/>
<polygon fill="#191970" stroke="#191970" points="707.3194,-530.2433 717.695,-532.3874 710.921,-524.2409 707.3194,-530.2433"/>
</g>
<!-- Node317729 -->
<g id="node20" class="node">
<title>Node317729</title>
<g id="a_node20"><a xlink:href="libregexp_8h.html#a542d834d69607ea57c3ca53757c86c43" target="_top" xlink:title="lre_is_space">
<polygon fill="none" stroke="#000000" points="732,-494.5 732,-513.5 803,-513.5 803,-494.5 732,-494.5"/>
<text text-anchor="middle" x="767.5" y="-501.5" font-family="Helvetica,sans-Serif" font-size="10.00" fill="#000000">lre_is_space</text>
</a>
</g>
</g>
<!-- Node317652&#45;&gt;Node317729 -->
<g id="edge24" class="edge">
<title>Node317652&#45;&gt;Node317729</title>
<path fill="none" stroke="#191970" d="M636.4875,-323.7747C639.9507,-352.8326 654.1802,-439.4863 704,-485 709.1372,-489.6932 715.3905,-493.2294 721.9458,-495.8932"/>
<polygon fill="#191970" stroke="#191970" points="721.0772,-499.2947 731.6716,-499.2051 723.3337,-492.6684 721.0772,-499.2947"/>
</g>
<!-- Node317730 -->
<g id="node21" class="node">
<title>Node317730</title>
<g id="a_node21"><a xlink:href="libregexp_8h.html#a4737debd233b96f1a317fdb40a3fbd69" target="_top" xlink:title="lre_js_is_ident_first">
<polygon fill="none" stroke="#ff0000" points="717,-456.5 717,-475.5 818,-475.5 818,-456.5 717,-456.5"/>
<text text-anchor="middle" x="767.5" y="-463.5" font-family="Helvetica,sans-Serif" font-size="10.00" fill="#000000">lre_js_is_ident_first</text>
</a>
</g>
</g>
<!-- Node317652&#45;&gt;Node317730 -->
<g id="edge25" class="edge">
<title>Node317652&#45;&gt;Node317730</title>
<path fill="none" stroke="#191970" d="M637.6954,-323.6826C643.7528,-348.1614 663.0361,-412.9865 704,-447 706.0528,-448.7045 708.2547,-450.2561 710.5619,-451.6686"/>
<polygon fill="#191970" stroke="#191970" points="709.3947,-455.0035 719.8895,-456.4554 712.5907,-448.7757 709.3947,-455.0035"/>
</g>
<!-- Node317735 -->
<g id="node22" class="node">
<title>Node317735</title>
<g id="a_node22"><a xlink:href="libregexp_8h.html#a3dd6ac80b2cc9f7fc7f18a4cb0acdce3" target="_top" xlink:title="lre_js_is_ident_next">
<polygon fill="none" stroke="#ff0000" points="867,-209.5 867,-228.5 970,-228.5 970,-209.5 867,-209.5"/>
<text text-anchor="middle" x="918.5" y="-216.5" font-family="Helvetica,sans-Serif" font-size="10.00" fill="#000000">lre_js_is_ident_next</text>
</a>
</g>
</g>
<!-- Node317652&#45;&gt;Node317735 -->
<g id="edge26" class="edge">
<title>Node317652&#45;&gt;Node317735</title>
<path fill="none" stroke="#191970" d="M644.152,-304.1392C656.1874,-291.1081 679.303,-268.4667 704,-257 752.3718,-234.5412 812.5383,-225.2947 856.8281,-221.5193"/>
<polygon fill="#191970" stroke="#191970" points="857.1794,-225.0026 866.8758,-220.733 856.6332,-218.0239 857.1794,-225.0026"/>
</g>
<!-- Node317737 -->
<g id="node23" class="node">
<title>Node317737</title>
<g id="a_node23"><a xlink:href="quickjs_8c.html#ad91865d0889d1420e3e70d5d497a9bdb" target="_top" xlink:title="parse_ident">
<polygon fill="none" stroke="#ff0000" points="734,-190.5 734,-209.5 801,-209.5 801,-190.5 734,-190.5"/>
<text text-anchor="middle" x="767.5" y="-197.5" font-family="Helvetica,sans-Serif" font-size="10.00" fill="#000000">parse_ident</text>
</a>
</g>
</g>
<!-- Node317652&#45;&gt;Node317737 -->
<g id="edge28" class="edge">
<title>Node317652&#45;&gt;Node317737</title>
<path fill="none" stroke="#191970" d="M640.3842,-304.4472C650.114,-286.3048 673.6206,-246.6561 704,-224 710.0405,-219.4952 717.0247,-215.7435 724.1044,-212.6498"/>
<polygon fill="#191970" stroke="#191970" points="725.7323,-215.7694 733.7381,-208.8299 723.1521,-209.2623 725.7323,-215.7694"/>
</g>
<!-- Node317653&#45;&gt;Node317646 -->
<g id="edge10" class="edge">
<title>Node317653&#45;&gt;Node317646</title>
<path fill="none" stroke="#191970" d="M798.7998,-432.4458C809.847,-435.2189 821.7971,-439.7149 831,-447 875.6147,-482.3172 901.7199,-547.0691 912.5649,-579.4627"/>
<polygon fill="#191970" stroke="#191970" points="909.275,-580.6657 915.6624,-589.1186 915.9405,-578.5274 909.275,-580.6657"/>
</g>
<!-- Node317653&#45;&gt;Node317654 -->
<g id="edge11" class="edge">
<title>Node317653&#45;&gt;Node317654</title>
<path fill="none" stroke="#191970" d="M798.7873,-424.0632C819.1798,-421.4972 846.2165,-418.0953 869.4355,-415.1737"/>
<polygon fill="#191970" stroke="#191970" points="869.974,-418.6336 879.4588,-413.9125 869.1001,-411.6884 869.974,-418.6336"/>
</g>
<!-- Node317687&#45;&gt;Node317686 -->
<g id="edge14" class="edge">
<title>Node317687&#45;&gt;Node317686</title>
<path fill="none" stroke="#191970" d="M790.7628,-349.0729C815.9612,-345.9022 856.3865,-340.8156 885.0033,-337.2148"/>
<polygon fill="#191970" stroke="#191970" points="885.4772,-340.6829 894.962,-335.9617 884.6032,-333.7376 885.4772,-340.6829"/>
</g>
<!-- Node317698&#45;&gt;Node317699 -->
<g id="edge19" class="edge">
<title>Node317698&#45;&gt;Node317699</title>
<path fill="none" stroke="#191970" d="M805.6037,-133.589C825.44,-138.5809 849.8839,-144.7324 870.9483,-150.0334"/>
<polygon fill="#191970" stroke="#191970" points="870.1185,-153.4336 880.6703,-152.4799 871.8269,-146.6452 870.1185,-153.4336"/>
</g>
<!-- Node317698&#45;&gt;Node317725 -->
<g id="edge20" class="edge">
<title>Node317698&#45;&gt;Node317725</title>
<path fill="none" stroke="#191970" d="M809.1611,-118.7579C824.7038,-116.8022 842.6587,-114.5429 859.4688,-112.4278"/>
<polygon fill="#191970" stroke="#191970" points="860.2708,-115.8545 869.7556,-111.1334 859.3969,-108.9093 860.2708,-115.8545"/>
</g>
<!-- Node317727&#45;&gt;Node317725 -->
<g id="edge22" class="edge">
<title>Node317727&#45;&gt;Node317725</title>
<path fill="none" stroke="#191970" d="M826.7458,-93.4548C837.5153,-94.8099 848.7481,-96.2233 859.5102,-97.5774"/>
<polygon fill="#191970" stroke="#191970" points="859.2951,-101.0779 869.6538,-98.8538 860.1691,-94.1327 859.2951,-101.0779"/>
</g>
<!-- Node317737&#45;&gt;Node317699 -->
<g id="edge30" class="edge">
<title>Node317737&#45;&gt;Node317699</title>
<path fill="none" stroke="#191970" d="M801.0118,-191.5666C821.5227,-186.4049 848.0958,-179.7176 870.7807,-174.0088"/>
<polygon fill="#191970" stroke="#191970" points="871.7204,-177.3816 880.5638,-171.5468 870.012,-170.5932 871.7204,-177.3816"/>
</g>
<!-- Node317737&#45;&gt;Node317725 -->
<g id="edge31" class="edge">
<title>Node317737&#45;&gt;Node317725</title>
<path fill="none" stroke="#191970" d="M782.8097,-190.3681C809.1509,-173.7958 863.2303,-139.7723 894.5792,-120.0495"/>
<polygon fill="#191970" stroke="#191970" points="896.5494,-122.9451 903.1498,-114.6574 892.8218,-117.0201 896.5494,-122.9451"/>
</g>
<!-- Node317737&#45;&gt;Node317735 -->
<g id="edge29" class="edge">
<title>Node317737&#45;&gt;Node317735</title>
<path fill="none" stroke="#191970" d="M801.0118,-204.2167C817.4357,-206.2833 837.7465,-208.839 856.8356,-211.2409"/>
<polygon fill="#191970" stroke="#191970" points="856.621,-214.7414 866.9798,-212.5173 857.495,-207.7962 856.621,-214.7414"/>
</g>
<!-- Node317758 -->
<g id="node25" class="node">
<title>Node317758</title>
<g id="a_node25"><a xlink:href="quickjs_8c.html#a9fc8ae779f77a7886fc7cfa48cc487fb" target="_top" xlink:title="js_parse_expr2">
<polygon fill="none" stroke="#ff0000" points="329.5,-361.5 329.5,-380.5 412.5,-380.5 412.5,-361.5 329.5,-361.5"/>
<text text-anchor="middle" x="371" y="-368.5" font-family="Helvetica,sans-Serif" font-size="10.00" fill="#000000">js_parse_expr2</text>
</a>
</g>
</g>
<!-- Node317757&#45;&gt;Node317758 -->
<g id="edge34" class="edge">
<title>Node317757&#45;&gt;Node317758</title>
<path fill="none" stroke="#191970" d="M263.742,-371C280.6988,-371 300.845,-371 319.0738,-371"/>
<polygon fill="#191970" stroke="#191970" points="319.2577,-374.5001 329.2577,-371 319.2577,-367.5001 319.2577,-374.5001"/>
</g>
<!-- Node317758&#45;&gt;Node317652 -->
<g id="edge39" class="edge">
<title>Node317758&#45;&gt;Node317652</title>
<path fill="none" stroke="#191970" d="M410.0085,-361.4874C423.0257,-358.3793 437.6206,-354.9659 451,-352 499.4465,-341.2605 555.2796,-329.9021 592.7235,-322.4314"/>
<polygon fill="#191970" stroke="#191970" points="593.6509,-325.8156 602.7755,-320.4311 592.2847,-318.9502 593.6509,-325.8156"/>
</g>
<!-- Node317759 -->
<g id="node26" class="node">
<title>Node317759</title>
<g id="a_node26"><a xlink:href="quickjs_8c.html#afa1bc2743b3cf892d36544a708453736" target="_top" xlink:title="js_parse_assign_expr2">
<polygon fill="none" stroke="#ff0000" points="451,-361.5 451,-380.5 567,-380.5 567,-361.5 451,-361.5"/>
<text text-anchor="middle" x="509" y="-368.5" font-family="Helvetica,sans-Serif" font-size="10.00" fill="#000000">js_parse_assign_expr2</text>
</a>
</g>
</g>
<!-- Node317758&#45;&gt;Node317759 -->
<g id="edge35" class="edge">
<title>Node317758&#45;&gt;Node317759</title>
<path fill="none" stroke="#191970" d="M412.779,-371C421.576,-371 431.076,-371 440.5618,-371"/>
<polygon fill="#191970" stroke="#191970" points="440.8154,-374.5001 450.8154,-371 440.8154,-367.5001 440.8154,-374.5001"/>
</g>
<!-- Node317759&#45;&gt;Node317646 -->
<g id="edge36" class="edge">
<title>Node317759&#45;&gt;Node317646</title>
<path fill="none" stroke="#191970" d="M515.756,-380.937C538.2026,-413.0836 613.9944,-514.8407 704,-561 756.4498,-587.8989 824.5425,-596.1297 869.7889,-598.4531"/>
<polygon fill="#191970" stroke="#191970" points="869.7855,-601.9562 879.9283,-598.8945 870.09,-594.9628 869.7855,-601.9562"/>
</g>
<!-- Node317759&#45;&gt;Node317652 -->
<g id="edge38" class="edge">
<title>Node317759&#45;&gt;Node317652</title>
<path fill="none" stroke="#191970" d="M532.8337,-361.4926C543.3646,-357.2007 555.8588,-351.9839 567,-347 580.3112,-341.0454 594.8896,-334.0849 607.1629,-328.0955"/>
<polygon fill="#191970" stroke="#191970" points="609.0101,-331.0877 616.4434,-323.5381 605.9245,-324.8044 609.0101,-331.0877"/>
</g>
<!-- Node317759&#45;&gt;Node317759 -->
<g id="edge37" class="edge">
<title>Node317759&#45;&gt;Node317759</title>
<path fill="none" stroke="#191970" d="M489.5797,-380.7571C480.132,-389.5653 486.6055,-399 509,-399 523.3465,-399 531.159,-395.128 532.4374,-390.0292"/>
<polygon fill="#191970" stroke="#191970" points="535.6073,-388.5415 528.4203,-380.7571 529.1842,-391.3243 535.6073,-388.5415"/>
</g>
<!-- Node317859&#45;&gt;Node317697 -->
<g id="edge41" class="edge">
<title>Node317859&#45;&gt;Node317697</title>
<path fill="none" stroke="#191970" d="M517.3559,-199.3019C542.699,-170.4166 621.9936,-83.8707 704,-34 710.797,-29.8665 718.4243,-26.2443 725.9716,-23.151"/>
<polygon fill="#191970" stroke="#191970" points="727.343,-26.3736 735.4201,-19.5171 724.8302,-19.8401 727.343,-26.3736"/>
</g>
</g>
</svg>
        <g id="navigator" transform="translate(0 0)" fill="#404254">
                <rect fill="#f2f5e9" fill-opacity="0.5" stroke="#606060" stroke-width=".5" x="0" y="0" width="60" height="60"/>
                <use id="zoomplus" xlink:href="#zoomPlus" x="17" y="9" onmousedown="handleZoom(evt,'in')"/>
                <use id="zoomminus" xlink:href="#zoomMin" x="42" y="9" onmousedown="handleZoom(evt,'out')"/>
                <use id="reset" xlink:href="#resetDef" x="30" y="36" onmousedown="handleReset()"/>
                <g id="arrowUp" xlink:href="#dirArrow" transform="translate(30 24)" onmousedown="handlePan(0,-1)">
                  <use xlink:href="#rim" fill="#404040">
                        <set attributeName="fill" to="#808080" begin="arrowUp.mouseover" end="arrowUp.mouseout"/>
                  </use>
                  <path fill="none" stroke="white" stroke-width="1.5" d="M0,-3.0v7 M-2.5,-0.5L0,-3.0L2.5,-0.5"/>
                </g>
                <g id="arrowRight" xlink:href="#dirArrow" transform="rotate(90) translate(36 -43)" onmousedown="handlePan(1,0)">
                  <use xlink:href="#rim" fill="#404040">
                        <set attributeName="fill" to="#808080" begin="arrowRight.mouseover" end="arrowRight.mouseout"/>
                  </use>
                  <path fill="none" stroke="white" stroke-width="1.5" d="M0,-3.0v7 M-2.5,-0.5L0,-3.0L2.5,-0.5"/>
                </g>
                <g id="arrowDown" xlink:href="#dirArrow" transform="rotate(180) translate(-30 -48)" onmousedown="handlePan(0,1)">
                  <use xlink:href="#rim" fill="#404040">
                        <set attributeName="fill" to="#808080" begin="arrowDown.mouseover" end="arrowDown.mouseout"/>
                  </use>
                  <path fill="none" stroke="white" stroke-width="1.5" d="M0,-3.0v7 M-2.5,-0.5L0,-3.0L2.5,-0.5"/>
                </g>
                <g id="arrowLeft" xlink:href="#dirArrow" transform="rotate(270) translate(-36 17)" onmousedown="handlePan(-1,0)">
                  <use xlink:href="#rim" fill="#404040">
                        <set attributeName="fill" to="#808080" begin="arrowLeft.mouseover" end="arrowLeft.mouseout"/>
                  </use>
                  <path fill="none" stroke="white" stroke-width="1.5" d="M0,-3.0v7 M-2.5,-0.5L0,-3.0L2.5,-0.5"/>
                </g>
        </g>
        <svg viewBox="0 0 15 15" width="100%" height="30px" preserveAspectRatio="xMaxYMin meet">
         <g id="arrow_out" transform="scale(0.3 0.3)">
          <a xlink:href="quickjs_8c_a42234753f3193f37ce45b3c0ca4c25cd_cgraph_org.svg" target="_base">
           <rect id="button" ry="5" rx="5" y="6" x="6" height="38" width="38"
                fill="#f2f5e9" fill-opacity="0.5" stroke="#606060" stroke-width="1.0"/>
           <path id="arrow"
             d="M 11.500037,31.436501 C 11.940474,20.09759 22.043105,11.32322 32.158766,21.979434 L 37.068811,17.246167 C 37.068811,17.246167 37.088388,32 37.088388,32 L 22.160133,31.978069 C 22.160133,31.978069 26.997745,27.140456 26.997745,27.140456 C 18.528582,18.264221 13.291696,25.230495 11.500037,31.436501 z"
             style="fill:#404040;"/>
          </a>
         </g>
        </svg>
</svg>
