<?xml version="1.0" encoding="UTF-8" standalone="no"?>
<!DOCTYPE svg PUBLIC "-//W3C//DTD SVG 1.1//EN"
 "http://www.w3.org/Graphics/SVG/1.1/DTD/svg11.dtd">
<!-- Generated by graphviz version 2.40.1 (20161225.0304)
 -->
<!-- Title: js_parse_assign_expr Pages: 1 -->
<!--zoomable 964 -->
<svg id="main" version="1.1" xmlns="http://www.w3.org/2000/svg" xmlns:xlink="http://www.w3.org/1999/xlink" xml:space="preserve" onload="init(evt)">
<style type="text/css"><![CDATA[
.edge:hover path { stroke: red; }
.edge:hover polygon { stroke: red; fill: red; }
]]></style>
<script type="text/javascript"><![CDATA[
var edges = document.getElementsByTagName('g');
if (edges && edges.length) {
  for (var i=0;i<edges.length;i++) {
    if (edges[i].id.substr(0,4)=='edge') {
      edges[i].setAttribute('class','edge');
    }
  }
}
]]></script>
        <defs>
                <circle id="rim" cx="0" cy="0" r="7"/>
                <circle id="rim2" cx="0" cy="0" r="3.5"/>
                <g id="zoomPlus">
                        <use xlink:href="#rim" fill="#404040">
                                <set attributeName="fill" to="#808080" begin="zoomplus.mouseover" end="zoomplus.mouseout"/>
                        </use>
                        <path d="M-4,0h8M0,-4v8" fill="none" stroke="white" stroke-width="1.5" pointer-events="none"/>
                </g>
                <g id="zoomMin">
                        <use xlink:href="#rim" fill="#404040">
                                <set attributeName="fill" to="#808080" begin="zoomminus.mouseover" end="zoomminus.mouseout"/>
                        </use>
                        <path d="M-4,0h8" fill="none" stroke="white" stroke-width="1.5" pointer-events="none"/>
                </g>
                <g id="dirArrow">
                        <path fill="none" stroke="white" stroke-width="1.5" d="M0,-3.0v7 M-2.5,-0.5L0,-3.0L2.5,-0.5"/>
                </g>
               <g id="resetDef">
                       <use xlink:href="#rim2" fill="#404040">
                               <set attributeName="fill" to="#808080" begin="reset.mouseover" end="reset.mouseout"/>
                       </use>
               </g>
        </defs>

<script type="text/javascript">
var viewWidth = 943;
var viewHeight = 964;
var sectionId = 'dynsection-999';
</script>
<script xlink:href="svgpan.js"/>
<svg id="graph" class="graph">
<g id="viewport">
<title>js_parse_assign_expr</title>
<!-- Node315577 -->
<g id="node1" class="node">
<title>Node315577</title>
<polygon fill="#bfbfbf" stroke="#000000" points="0,-638.6737 0,-657.6737 111,-657.6737 111,-638.6737 0,-638.6737"/>
<text text-anchor="middle" x="55.5" y="-645.6737" font-family="Helvetica,sans-Serif" font-size="10.00" fill="#000000">js_parse_assign_expr</text>
</g>
<!-- Node315578 -->
<g id="node2" class="node">
<title>Node315578</title>
<g id="a_node2"><a xlink:href="quickjs_8c.html#afa1bc2743b3cf892d36544a708453736" target="_top" xlink:title="js_parse_assign_expr2">
<polygon fill="none" stroke="#000000" points="147,-610.6737 147,-629.6737 263,-629.6737 263,-610.6737 147,-610.6737"/>
<text text-anchor="middle" x="205" y="-617.6737" font-family="Helvetica,sans-Serif" font-size="10.00" fill="#000000">js_parse_assign_expr2</text>
</a>
</g>
</g>
<!-- Node315577&#45;&gt;Node315578 -->
<g id="edge1" class="edge">
<title>Node315577&#45;&gt;Node315578</title>
<path fill="none" stroke="#191970" d="M106.5313,-638.616C118.6789,-636.3409 131.7588,-633.8912 144.2924,-631.5437"/>
<polygon fill="#191970" stroke="#191970" points="145.014,-634.9695 154.1987,-629.6884 143.7253,-628.0892 145.014,-634.9695"/>
</g>
<!-- Node315578&#45;&gt;Node315578 -->
<g id="edge39" class="edge">
<title>Node315578&#45;&gt;Node315578</title>
<path fill="none" stroke="#191970" d="M182.4972,-629.9308C171.5498,-638.739 179.0508,-648.1737 205,-648.1737 222.0292,-648.1737 231.1133,-644.1105 232.2525,-638.8277"/>
<polygon fill="#191970" stroke="#191970" points="235.2999,-637.1041 227.5028,-629.9308 229.1248,-640.4008 235.2999,-637.1041"/>
</g>
<!-- Node315579 -->
<g id="node3" class="node">
<title>Node315579</title>
<g id="a_node3"><a xlink:href="quickjs_8c.html#aa57b449a878287663249bb7ab23ed8e9" target="_top" xlink:title="emit_atom">
<polygon fill="none" stroke="#000000" points="604.5,-287.6737 604.5,-306.6737 666.5,-306.6737 666.5,-287.6737 604.5,-287.6737"/>
<text text-anchor="middle" x="635.5" y="-294.6737" font-family="Helvetica,sans-Serif" font-size="10.00" fill="#000000">emit_atom</text>
</a>
</g>
</g>
<!-- Node315578&#45;&gt;Node315579 -->
<g id="edge2" class="edge">
<title>Node315578&#45;&gt;Node315579</title>
<path fill="none" stroke="#191970" d="M210.2497,-610.4552C222.9857,-587.56 257.5468,-529.3672 299,-492.1737 396.0785,-405.0711 538.2421,-338.3921 602.1806,-310.9073"/>
<polygon fill="#191970" stroke="#191970" points="603.92,-313.971 611.7518,-306.8356 601.1797,-307.5296 603.92,-313.971"/>
</g>
<!-- Node315580 -->
<g id="node4" class="node">
<title>Node315580</title>
<g id="a_node4"><a xlink:href="quickjs_8c.html#aa4ce3850b0d5830d9a617fbbdaddfa79" target="_top" xlink:title="emit_u32">
<polygon fill="none" stroke="#ff0000" points="725.5,-691.6737 725.5,-710.6737 781.5,-710.6737 781.5,-691.6737 725.5,-691.6737"/>
<text text-anchor="middle" x="753.5" y="-698.6737" font-family="Helvetica,sans-Serif" font-size="10.00" fill="#000000">emit_u32</text>
</a>
</g>
</g>
<!-- Node315578&#45;&gt;Node315580 -->
<g id="edge23" class="edge">
<title>Node315578&#45;&gt;Node315580</title>
<path fill="none" stroke="#191970" d="M221.8236,-629.8406C240.2556,-640.0868 270.9419,-656.1444 299,-666.1737 426.9222,-711.8993 461.9573,-719.3956 597,-734.1737 631.0191,-737.8966 640.4379,-740.8628 674,-734.1737 692.394,-730.5078 711.8608,-722.5045 726.9272,-715.298"/>
<polygon fill="#191970" stroke="#191970" points="728.733,-718.3092 736.1371,-710.7309 725.6232,-712.038 728.733,-718.3092"/>
</g>
<!-- Node315586 -->
<g id="node7" class="node">
<title>Node315586</title>
<g id="a_node7"><a xlink:href="quickjs_8c.html#a6b3c67655a0facc68b271ce3d401deb3" target="_top" xlink:title="emit_goto">
<polygon fill="none" stroke="#000000" points="606,-781.6737 606,-800.6737 665,-800.6737 665,-781.6737 606,-781.6737"/>
<text text-anchor="middle" x="635.5" y="-788.6737" font-family="Helvetica,sans-Serif" font-size="10.00" fill="#000000">emit_goto</text>
</a>
</g>
</g>
<!-- Node315578&#45;&gt;Node315586 -->
<g id="edge6" class="edge">
<title>Node315578&#45;&gt;Node315586</title>
<path fill="none" stroke="#191970" d="M213.0804,-629.8919C234.8318,-656.0047 293.364,-725.9417 299,-729.1737 349.2008,-757.9622 517.9023,-778.843 595.6496,-787.1774"/>
<polygon fill="#191970" stroke="#191970" points="595.6824,-790.7002 605.9947,-788.2697 596.4175,-783.7389 595.6824,-790.7002"/>
</g>
<!-- Node315587 -->
<g id="node8" class="node">
<title>Node315587</title>
<g id="a_node8"><a xlink:href="quickjs_8c.html#a832fb9c17eacb588e93f333cf8b76522" target="_top" xlink:title="emit_op">
<polygon fill="none" stroke="#ff0000" points="728,-515.6737 728,-534.6737 779,-534.6737 779,-515.6737 728,-515.6737"/>
<text text-anchor="middle" x="753.5" y="-522.6737" font-family="Helvetica,sans-Serif" font-size="10.00" fill="#000000">emit_op</text>
</a>
</g>
</g>
<!-- Node315578&#45;&gt;Node315587 -->
<g id="edge16" class="edge">
<title>Node315578&#45;&gt;Node315587</title>
<path fill="none" stroke="#191970" d="M206.2001,-610.5568C212.9341,-558.0133 247.5707,-305.9755 299,-250.1737 343.5783,-201.8055 374.1172,-212.9875 439,-202.1737 542.0691,-184.9956 593.6184,-142.4121 674,-209.1737 720.4989,-247.7938 744.7646,-442.1345 751.5142,-505.3048"/>
<polygon fill="#191970" stroke="#191970" points="748.0592,-505.9208 752.5721,-515.5065 755.0219,-505.1988 748.0592,-505.9208"/>
</g>
<!-- Node315591 -->
<g id="node12" class="node">
<title>Node315591</title>
<g id="a_node12"><a xlink:href="quickjs_8c.html#a0dd0929b9f2ff5983b0027b7cce5c447" target="_top" xlink:title="new_label">
<polygon fill="none" stroke="#ff0000" points="723.5,-795.6737 723.5,-814.6737 783.5,-814.6737 783.5,-795.6737 723.5,-795.6737"/>
<text text-anchor="middle" x="753.5" y="-802.6737" font-family="Helvetica,sans-Serif" font-size="10.00" fill="#000000">new_label</text>
</a>
</g>
</g>
<!-- Node315578&#45;&gt;Node315591 -->
<g id="edge54" class="edge">
<title>Node315578&#45;&gt;Node315591</title>
<path fill="none" stroke="#191970" d="M206.0782,-630.0601C210.5328,-666.3898 230.6133,-794.181 299,-867.1737 345.7762,-917.1005 372.1507,-916.6183 439,-931.1737 541.0986,-953.4042 583.4169,-976.2605 674,-924.1737 712.7903,-901.8687 736.3479,-852.0534 746.9076,-824.473"/>
<polygon fill="#191970" stroke="#191970" points="750.3036,-825.3755 750.4309,-814.7814 743.7248,-822.9838 750.3036,-825.3755"/>
</g>
<!-- Node315593 -->
<g id="node13" class="node">
<title>Node315593</title>
<g id="a_node13"><a xlink:href="quickjs_8c.html#a555f0d4061c655933eb187026d0796af" target="_top" xlink:title="emit_label">
<polygon fill="none" stroke="#000000" points="605,-705.6737 605,-724.6737 666,-724.6737 666,-705.6737 605,-705.6737"/>
<text text-anchor="middle" x="635.5" y="-712.6737" font-family="Helvetica,sans-Serif" font-size="10.00" fill="#000000">emit_label</text>
</a>
</g>
</g>
<!-- Node315578&#45;&gt;Node315593 -->
<g id="edge13" class="edge">
<title>Node315578&#45;&gt;Node315593</title>
<path fill="none" stroke="#191970" d="M248.2491,-629.7177C331.6749,-648.1276 513.7439,-688.3054 594.9721,-706.2303"/>
<polygon fill="#191970" stroke="#191970" points="594.3061,-709.6675 604.8254,-708.4047 595.8146,-702.8319 594.3061,-709.6675"/>
</g>
<!-- Node315594 -->
<g id="node14" class="node">
<title>Node315594</title>
<g id="a_node14"><a xlink:href="quickjs_8c.html#acea69d5aa6481a035d0833b8bce455f5" target="_top" xlink:title="emit_return">
<polygon fill="none" stroke="#000000" points="467.5,-591.6737 467.5,-610.6737 532.5,-610.6737 532.5,-591.6737 467.5,-591.6737"/>
<text text-anchor="middle" x="500" y="-598.6737" font-family="Helvetica,sans-Serif" font-size="10.00" fill="#000000">emit_return</text>
</a>
</g>
</g>
<!-- Node315578&#45;&gt;Node315594 -->
<g id="edge17" class="edge">
<title>Node315578&#45;&gt;Node315594</title>
<path fill="none" stroke="#191970" d="M263.2825,-616.42C320.4638,-612.7371 406.2995,-607.2087 457.3769,-603.919"/>
<polygon fill="#191970" stroke="#191970" points="457.6636,-607.4078 467.4179,-603.2723 457.2136,-600.4223 457.6636,-607.4078"/>
</g>
<!-- Node315597 -->
<g id="node16" class="node">
<title>Node315597</title>
<g id="a_node16"><a xlink:href="quickjs_8c.html#addf02d1c6b3438644c021b2b6d593b7c" target="_top" xlink:title="emit_u8">
<polygon fill="none" stroke="#000000" points="325.5,-59.6737 325.5,-78.6737 376.5,-78.6737 376.5,-59.6737 325.5,-59.6737"/>
<text text-anchor="middle" x="351" y="-66.6737" font-family="Helvetica,sans-Serif" font-size="10.00" fill="#000000">emit_u8</text>
</a>
</g>
</g>
<!-- Node315578&#45;&gt;Node315597 -->
<g id="edge24" class="edge">
<title>Node315578&#45;&gt;Node315597</title>
<path fill="none" stroke="#191970" d="M205.5141,-610.6669C209.1418,-546.7052 232.6931,-179.0605 299,-93.1737 303.3682,-87.5157 309.3838,-83.1428 315.777,-79.7794"/>
<polygon fill="#191970" stroke="#191970" points="317.5625,-82.8153 325.2663,-75.542 314.7082,-76.4237 317.5625,-82.8153"/>
</g>
<!-- Node315598 -->
<g id="node17" class="node">
<title>Node315598</title>
<g id="a_node17"><a xlink:href="quickjs_8c.html#a069baa06a1214006c4ec473875de010e" target="_top" xlink:title="get_lvalue">
<polygon fill="none" stroke="#000000" points="469.5,-420.6737 469.5,-439.6737 530.5,-439.6737 530.5,-420.6737 469.5,-420.6737"/>
<text text-anchor="middle" x="500" y="-427.6737" font-family="Helvetica,sans-Serif" font-size="10.00" fill="#000000">get_lvalue</text>
</a>
</g>
</g>
<!-- Node315578&#45;&gt;Node315598 -->
<g id="edge26" class="edge">
<title>Node315578&#45;&gt;Node315598</title>
<path fill="none" stroke="#191970" d="M220.0347,-610.4904C268.0697,-579.5526 418.0923,-482.9279 476.4468,-445.3436"/>
<polygon fill="#191970" stroke="#191970" points="478.4836,-448.1949 484.9956,-439.8376 474.6933,-442.3099 478.4836,-448.1949"/>
</g>
<!-- Node315602 -->
<g id="node21" class="node">
<title>Node315602</title>
<g id="a_node21"><a xlink:href="quickjs_8c.html#ab7fc45a99935a1c0ba50b0216d9401a9" target="_top" xlink:title="JS_FreeAtom">
<polygon fill="none" stroke="#000000" points="597,-21.6737 597,-40.6737 674,-40.6737 674,-21.6737 597,-21.6737"/>
<text text-anchor="middle" x="635.5" y="-28.6737" font-family="Helvetica,sans-Serif" font-size="10.00" fill="#000000">JS_FreeAtom</text>
</a>
</g>
</g>
<!-- Node315578&#45;&gt;Node315602 -->
<g id="edge36" class="edge">
<title>Node315578&#45;&gt;Node315602</title>
<path fill="none" stroke="#191970" d="M205.8667,-610.5529C212.4167,-538.8596 255.0725,-89.6341 299,-50.1737 381.0439,23.5269 524.6833,-.9976 594.7454,-19.0611"/>
<polygon fill="#191970" stroke="#191970" points="593.9685,-22.4761 604.5324,-21.6669 595.7696,-15.7118 593.9685,-22.4761"/>
</g>
<!-- Node315607 -->
<g id="node23" class="node">
<title>Node315607</title>
<g id="a_node23"><a xlink:href="quickjs_8c.html#a6686f5baeecd532b043761b6c24ed431" target="_top" xlink:title="js_parse_cond_expr">
<polygon fill="none" stroke="#000000" points="299,-781.6737 299,-800.6737 403,-800.6737 403,-781.6737 299,-781.6737"/>
<text text-anchor="middle" x="351" y="-788.6737" font-family="Helvetica,sans-Serif" font-size="10.00" fill="#000000">js_parse_cond_expr</text>
</a>
</g>
</g>
<!-- Node315578&#45;&gt;Node315607 -->
<g id="edge40" class="edge">
<title>Node315578&#45;&gt;Node315607</title>
<path fill="none" stroke="#191970" d="M213.3124,-629.7583C234.0603,-659.8445 287.299,-747.9703 299,-758.1737 308.3135,-766.2953 320.8397,-772.1877 331.2641,-777.1309"/>
<polygon fill="#191970" stroke="#191970" points="329.9206,-780.37 340.4413,-781.6213 332.9972,-774.0823 329.9206,-780.37"/>
</g>
<!-- Node315612 -->
<g id="node25" class="node">
<title>Node315612</title>
<g id="a_node25"><a xlink:href="quickjs_8c.html#a75a3798e2045f6e403c1ef467126d1fb" target="_top" xlink:title="next_token">
<polygon fill="none" stroke="#ff0000" points="603,-895.6737 603,-914.6737 668,-914.6737 668,-895.6737 603,-895.6737"/>
<text text-anchor="middle" x="635.5" y="-902.6737" font-family="Helvetica,sans-Serif" font-size="10.00" fill="#000000">next_token</text>
</a>
</g>
</g>
<!-- Node315578&#45;&gt;Node315612 -->
<g id="edge55" class="edge">
<title>Node315578&#45;&gt;Node315612</title>
<path fill="none" stroke="#191970" d="M207.9201,-629.7956C217.252,-659.3656 248.7203,-750.5147 299,-810.1737 348.6123,-869.0409 365.7986,-888.3355 439,-912.1737 490.0181,-928.788 552.4634,-922.3617 593.071,-914.9247"/>
<polygon fill="#191970" stroke="#191970" points="593.7494,-918.3584 602.9043,-913.0255 592.422,-911.4854 593.7494,-918.3584"/>
</g>
<!-- Node315716 -->
<g id="node27" class="node">
<title>Node315716</title>
<g id="a_node27"><a xlink:href="quickjs_8c.html#a24d4ada6c0c50e82c89955a9300708a9" target="_top" xlink:title="put_lvalue">
<polygon fill="none" stroke="#000000" points="469.5,-553.6737 469.5,-572.6737 530.5,-572.6737 530.5,-553.6737 469.5,-553.6737"/>
<text text-anchor="middle" x="500" y="-560.6737" font-family="Helvetica,sans-Serif" font-size="10.00" fill="#000000">put_lvalue</text>
</a>
</g>
</g>
<!-- Node315578&#45;&gt;Node315716 -->
<g id="edge56" class="edge">
<title>Node315578&#45;&gt;Node315716</title>
<path fill="none" stroke="#191970" d="M254.3764,-610.6332C311.8866,-599.5211 405.8195,-581.3713 459.3189,-571.0342"/>
<polygon fill="#191970" stroke="#191970" points="460.3025,-574.4089 469.4569,-569.0753 458.9744,-567.5361 460.3025,-574.4089"/>
</g>
<!-- Node316096 -->
<g id="node28" class="node">
<title>Node316096</title>
<g id="a_node28"><a xlink:href="quickjs_8c.html#ab87db7e4e299e811a54acab5fe3620a7" target="_top" xlink:title="set_object_name">
<polygon fill="none" stroke="#ff0000" points="454.5,-211.6737 454.5,-230.6737 545.5,-230.6737 545.5,-211.6737 454.5,-211.6737"/>
<text text-anchor="middle" x="500" y="-218.6737" font-family="Helvetica,sans-Serif" font-size="10.00" fill="#000000">set_object_name</text>
</a>
</g>
</g>
<!-- Node315578&#45;&gt;Node316096 -->
<g id="edge62" class="edge">
<title>Node315578&#45;&gt;Node316096</title>
<path fill="none" stroke="#191970" d="M205.3822,-610.6132C207.4712,-570.4253 220.5455,-413.0302 299,-321.1737 338.737,-274.6487 405.3209,-247.5803 450.884,-233.6011"/>
<polygon fill="#191970" stroke="#191970" points="451.9632,-236.9318 460.5552,-230.7329 449.9728,-230.2208 451.9632,-236.9318"/>
</g>
<!-- Node315579&#45;&gt;Node315580 -->
<g id="edge3" class="edge">
<title>Node315579&#45;&gt;Node315580</title>
<path fill="none" stroke="#191970" d="M643.9536,-306.951C652.8395,-317.7652 666.5424,-336.0649 674,-354.1737 706.7279,-433.6454 690.5088,-460.4662 710,-544.1737 721.6028,-594.0035 738.5275,-651.8019 747.46,-681.4281"/>
<polygon fill="#191970" stroke="#191970" points="744.2111,-682.7752 750.4644,-691.3279 750.9095,-680.7424 744.2111,-682.7752"/>
</g>
<!-- Node315584 -->
<g id="node5" class="node">
<title>Node315584</title>
<g id="a_node5"><a xlink:href="quickjs_8c.html#abbf44eaeace1104a6bef718fbf5700fe" target="_top" xlink:title="JS_DupAtom">
<polygon fill="none" stroke="#000000" points="716,-135.6737 716,-154.6737 791,-154.6737 791,-135.6737 716,-135.6737"/>
<text text-anchor="middle" x="753.5" y="-142.6737" font-family="Helvetica,sans-Serif" font-size="10.00" fill="#000000">JS_DupAtom</text>
</a>
</g>
</g>
<!-- Node315579&#45;&gt;Node315584 -->
<g id="edge4" class="edge">
<title>Node315579&#45;&gt;Node315584</title>
<path fill="none" stroke="#191970" d="M660.4643,-287.4774C665.285,-284.9083 670.0559,-281.8131 674,-278.1737 709.7624,-245.1743 734.6786,-192.4045 746.2207,-164.2802"/>
<polygon fill="#191970" stroke="#191970" points="749.5472,-165.3864 749.9843,-154.8006 743.0412,-162.8034 749.5472,-165.3864"/>
</g>
<!-- Node315585 -->
<g id="node6" class="node">
<title>Node315585</title>
<g id="a_node6"><a xlink:href="quickjs_8c.html#a7f6796ee7a195631366f57c713a33f65" target="_top" xlink:title="__JS_AtomIsConst">
<polygon fill="none" stroke="#000000" points="833,-59.6737 833,-78.6737 935,-78.6737 935,-59.6737 833,-59.6737"/>
<text text-anchor="middle" x="884" y="-66.6737" font-family="Helvetica,sans-Serif" font-size="10.00" fill="#000000">__JS_AtomIsConst</text>
</a>
</g>
</g>
<!-- Node315584&#45;&gt;Node315585 -->
<g id="edge5" class="edge">
<title>Node315584&#45;&gt;Node315585</title>
<path fill="none" stroke="#191970" d="M770.0279,-135.5483C792.3846,-122.5283 832.4708,-99.1831 858.6494,-83.9373"/>
<polygon fill="#191970" stroke="#191970" points="860.7263,-86.7781 867.6063,-78.721 857.2035,-80.7291 860.7263,-86.7781"/>
</g>
<!-- Node315586&#45;&gt;Node315580 -->
<g id="edge9" class="edge">
<title>Node315586&#45;&gt;Node315580</title>
<path fill="none" stroke="#191970" d="M651.9286,-781.6067C658.8783,-777.3883 666.9746,-772.2441 674,-767.1737 695.6006,-751.5841 718.8921,-731.8725 734.6445,-718.0668"/>
<polygon fill="#191970" stroke="#191970" points="737.3872,-720.3137 742.5615,-711.0683 732.7511,-715.0691 737.3872,-720.3137"/>
</g>
<!-- Node315586&#45;&gt;Node315587 -->
<g id="edge7" class="edge">
<title>Node315586&#45;&gt;Node315587</title>
<path fill="none" stroke="#191970" d="M643.0434,-781.5161C651.3908,-770.5116 664.8678,-751.7681 674,-734.1737 708.5083,-667.6894 736.161,-582.694 747.6885,-544.8617"/>
<polygon fill="#191970" stroke="#191970" points="751.0959,-545.6842 750.6219,-535.1 744.392,-543.6696 751.0959,-545.6842"/>
</g>
<!-- Node315589 -->
<g id="node10" class="node">
<title>Node315589</title>
<g id="a_node10"><a xlink:href="quickjs_8c.html#ac9b65f8f0ed192fa6be0984d92550f34" target="_top" xlink:title="js_is_live_code">
<polygon fill="none" stroke="#000000" points="712,-748.6737 712,-767.6737 795,-767.6737 795,-748.6737 712,-748.6737"/>
<text text-anchor="middle" x="753.5" y="-755.6737" font-family="Helvetica,sans-Serif" font-size="10.00" fill="#000000">js_is_live_code</text>
</a>
</g>
</g>
<!-- Node315586&#45;&gt;Node315589 -->
<g id="edge10" class="edge">
<title>Node315586&#45;&gt;Node315589</title>
<path fill="none" stroke="#191970" d="M665.2764,-782.8464C678.5899,-779.1232 694.5594,-774.6571 709.2307,-770.5541"/>
<polygon fill="#191970" stroke="#191970" points="710.4439,-773.8492 719.1317,-767.7852 708.5585,-767.1079 710.4439,-773.8492"/>
</g>
<!-- Node315586&#45;&gt;Node315591 -->
<g id="edge12" class="edge">
<title>Node315586&#45;&gt;Node315591</title>
<path fill="none" stroke="#191970" d="M665.2764,-794.7065C679.838,-796.4342 697.5771,-798.5388 713.3195,-800.4066"/>
<polygon fill="#191970" stroke="#191970" points="712.98,-803.8907 723.3227,-801.5934 713.8047,-796.9395 712.98,-803.8907"/>
</g>
<!-- Node315588 -->
<g id="node9" class="node">
<title>Node315588</title>
<g id="a_node9"><a xlink:href="cutils_8h.html#aeed81d4787ccdbd55baa9b5fd6717e88" target="_top" xlink:title="dbuf_putc">
<polygon fill="none" stroke="#ff0000" points="854.5,-287.6737 854.5,-306.6737 913.5,-306.6737 913.5,-287.6737 854.5,-287.6737"/>
<text text-anchor="middle" x="884" y="-294.6737" font-family="Helvetica,sans-Serif" font-size="10.00" fill="#000000">dbuf_putc</text>
</a>
</g>
</g>
<!-- Node315587&#45;&gt;Node315588 -->
<g id="edge8" class="edge">
<title>Node315587&#45;&gt;Node315588</title>
<path fill="none" stroke="#191970" d="M758.9413,-515.6671C778.7153,-481.1194 846.9894,-361.8359 873.4273,-315.6456"/>
<polygon fill="#191970" stroke="#191970" points="876.6055,-317.1385 878.5355,-306.7209 870.5303,-313.6612 876.6055,-317.1385"/>
</g>
<!-- Node315590 -->
<g id="node11" class="node">
<title>Node315590</title>
<g id="a_node11"><a xlink:href="quickjs_8c.html#a54ae8eded33038911c0fde73470ed951" target="_top" xlink:title="get_prev_opcode">
<polygon fill="none" stroke="#000000" points="838.5,-439.6737 838.5,-458.6737 929.5,-458.6737 929.5,-439.6737 838.5,-439.6737"/>
<text text-anchor="middle" x="884" y="-446.6737" font-family="Helvetica,sans-Serif" font-size="10.00" fill="#000000">get_prev_opcode</text>
</a>
</g>
</g>
<!-- Node315589&#45;&gt;Node315590 -->
<g id="edge11" class="edge">
<title>Node315589&#45;&gt;Node315590</title>
<path fill="none" stroke="#191970" d="M768.2741,-748.4639C777.6981,-741.5809 789.5066,-731.5685 797,-720.1737 851.9305,-636.644 874.3759,-515.8802 881.3739,-468.9063"/>
<polygon fill="#191970" stroke="#191970" points="884.8606,-469.2465 882.7994,-458.8541 877.93,-468.2636 884.8606,-469.2465"/>
</g>
<!-- Node315593&#45;&gt;Node315580 -->
<g id="edge15" class="edge">
<title>Node315593&#45;&gt;Node315580</title>
<path fill="none" stroke="#191970" d="M666.1951,-711.532C681.2075,-709.7508 699.4241,-707.5895 715.3255,-705.7029"/>
<polygon fill="#191970" stroke="#191970" points="715.8657,-709.1635 725.3836,-704.5096 715.0409,-702.2122 715.8657,-709.1635"/>
</g>
<!-- Node315593&#45;&gt;Node315587 -->
<g id="edge14" class="edge">
<title>Node315593&#45;&gt;Node315587</title>
<path fill="none" stroke="#191970" d="M641.5139,-705.4904C660.1311,-675.5135 717.0485,-583.8668 741.7999,-544.0128"/>
<polygon fill="#191970" stroke="#191970" points="745.0541,-545.407 747.3567,-535.0654 739.1076,-541.7139 745.0541,-545.407"/>
</g>
<!-- Node315594&#45;&gt;Node315579 -->
<g id="edge19" class="edge">
<title>Node315594&#45;&gt;Node315579</title>
<path fill="none" stroke="#191970" d="M532.5858,-597.8749C543.07,-595.2057 553.8194,-590.4819 561,-582.1737 628.0824,-504.5568 559.3934,-449.6211 597,-354.1737 602.6087,-339.9385 612.247,-325.6746 620.4765,-314.9764"/>
<polygon fill="#191970" stroke="#191970" points="623.4194,-316.9009 626.9385,-306.9076 617.9556,-312.5251 623.4194,-316.9009"/>
</g>
<!-- Node315594&#45;&gt;Node315586 -->
<g id="edge20" class="edge">
<title>Node315594&#45;&gt;Node315586</title>
<path fill="none" stroke="#191970" d="M506.9058,-610.8571C528.3746,-640.961 594.1972,-733.2584 622.4241,-772.8385"/>
<polygon fill="#191970" stroke="#191970" points="619.7897,-775.1726 628.4457,-781.2821 625.4889,-771.1081 619.7897,-775.1726"/>
</g>
<!-- Node315594&#45;&gt;Node315587 -->
<g id="edge18" class="edge">
<title>Node315594&#45;&gt;Node315587</title>
<path fill="none" stroke="#191970" d="M522.3676,-610.7772C556.7185,-623.9951 623.7536,-643.6446 674,-620.1737 707.6075,-604.4752 732.0165,-566.8075 744.3666,-543.8994"/>
<polygon fill="#191970" stroke="#191970" points="747.5769,-545.3104 749.0479,-534.8181 741.3549,-542.103 747.5769,-545.3104"/>
</g>
<!-- Node315594&#45;&gt;Node315593 -->
<g id="edge22" class="edge">
<title>Node315594&#45;&gt;Node315593</title>
<path fill="none" stroke="#191970" d="M532.7313,-609.338C542.6249,-612.9784 552.9797,-618.0946 561,-625.1737 586.0508,-647.2848 574.0693,-666.8709 597,-691.1737 599.9797,-694.3318 603.4613,-697.2426 607.0905,-699.8662"/>
<polygon fill="#191970" stroke="#191970" points="605.3703,-702.9227 615.6598,-705.448 609.1909,-697.0573 605.3703,-702.9227"/>
</g>
<!-- Node315595 -->
<g id="node15" class="node">
<title>Node315595</title>
<g id="a_node15"><a xlink:href="quickjs_8c.html#a50b5ef50e38aaeb8cba27214601474c7" target="_top" xlink:title="emit_u16">
<polygon fill="none" stroke="#ff0000" points="607.5,-591.6737 607.5,-610.6737 663.5,-610.6737 663.5,-591.6737 607.5,-591.6737"/>
<text text-anchor="middle" x="635.5" y="-598.6737" font-family="Helvetica,sans-Serif" font-size="10.00" fill="#000000">emit_u16</text>
</a>
</g>
</g>
<!-- Node315594&#45;&gt;Node315595 -->
<g id="edge21" class="edge">
<title>Node315594&#45;&gt;Node315595</title>
<path fill="none" stroke="#191970" d="M532.8008,-601.1737C552.143,-601.1737 576.7187,-601.1737 596.9796,-601.1737"/>
<polygon fill="#191970" stroke="#191970" points="597.1309,-604.6738 607.1309,-601.1737 597.1308,-597.6738 597.1309,-604.6738"/>
</g>
<!-- Node315597&#45;&gt;Node315588 -->
<g id="edge25" class="edge">
<title>Node315597&#45;&gt;Node315588</title>
<path fill="none" stroke="#191970" d="M376.5657,-64.8113C449.7374,-53.7895 663.2991,-32.0025 797,-126.1737 849.3196,-163.0247 872.1099,-240.876 880.2256,-277.4314"/>
<polygon fill="#191970" stroke="#191970" points="876.8274,-278.2811 882.2896,-287.3593 883.6808,-276.8563 876.8274,-278.2811"/>
</g>
<!-- Node315598&#45;&gt;Node315579 -->
<g id="edge32" class="edge">
<title>Node315598&#45;&gt;Node315579</title>
<path fill="none" stroke="#191970" d="M507.0024,-420.5994C521.973,-400.5487 558.848,-353.3419 597,-321.1737 600.7898,-317.9783 605.0433,-314.9035 609.3032,-312.083"/>
<polygon fill="#191970" stroke="#191970" points="611.2919,-314.9674 617.9102,-306.694 607.5771,-309.0344 611.2919,-314.9674"/>
</g>
<!-- Node315598&#45;&gt;Node315580 -->
<g id="edge33" class="edge">
<title>Node315598&#45;&gt;Node315580</title>
<path fill="none" stroke="#191970" d="M520.0761,-439.7351C555.1118,-457.246 628.0578,-497.4662 674,-549.1737 710.6266,-590.3966 735.8611,-651.5089 747.0213,-682.1711"/>
<polygon fill="#191970" stroke="#191970" points="743.7444,-683.4028 750.3774,-691.6643 750.3441,-681.0695 743.7444,-683.4028"/>
</g>
<!-- Node315598&#45;&gt;Node315587 -->
<g id="edge31" class="edge">
<title>Node315598&#45;&gt;Node315587</title>
<path fill="none" stroke="#191970" d="M508.8034,-420.487C535.1798,-392.6531 615.3598,-316.7686 674,-354.1737 727.28,-388.1598 745.4112,-468.1165 751.1071,-505.3944"/>
<polygon fill="#191970" stroke="#191970" points="747.6667,-506.0674 752.5007,-515.4951 754.601,-505.1106 747.6667,-506.0674"/>
</g>
<!-- Node315598&#45;&gt;Node315590 -->
<g id="edge27" class="edge">
<title>Node315598&#45;&gt;Node315590</title>
<path fill="none" stroke="#191970" d="M530.7752,-431.6965C595.3748,-434.8928 745.908,-442.3411 828.0647,-446.4061"/>
<polygon fill="#191970" stroke="#191970" points="828.0581,-449.91 838.2189,-446.9085 828.4041,-442.9185 828.0581,-449.91"/>
</g>
<!-- Node315598&#45;&gt;Node315591 -->
<g id="edge30" class="edge">
<title>Node315598&#45;&gt;Node315591</title>
<path fill="none" stroke="#191970" d="M507.9399,-439.76C523.7527,-458.5364 560.7839,-500.9593 597,-531.1737 628.5192,-557.4697 651.3614,-547.9329 674,-582.1737 722.6056,-655.6898 660.9146,-703.9772 710,-777.1737 713.3327,-782.1435 717.8771,-786.423 722.7767,-790.0349"/>
<polygon fill="#191970" stroke="#191970" points="720.9089,-792.9951 731.2066,-795.4871 724.7106,-787.1173 720.9089,-792.9951"/>
</g>
<!-- Node315598&#45;&gt;Node315595 -->
<g id="edge34" class="edge">
<title>Node315598&#45;&gt;Node315595</title>
<path fill="none" stroke="#191970" d="M504.4929,-439.7753C516.5691,-464.8164 551.8895,-533.2144 597,-577.1737 600.3264,-580.4153 604.1631,-583.4369 608.0986,-586.1679"/>
<polygon fill="#191970" stroke="#191970" points="606.3974,-589.2339 616.7119,-591.6549 610.1584,-583.3301 606.3974,-589.2339"/>
</g>
<!-- Node315599 -->
<g id="node18" class="node">
<title>Node315599</title>
<g id="a_node18"><a xlink:href="cutils_8h.html#a941262a5f72fda2ec43ae7911e97a0dc" target="_top" xlink:title="get_u32">
<polygon fill="none" stroke="#000000" points="610,-249.6737 610,-268.6737 661,-268.6737 661,-249.6737 610,-249.6737"/>
<text text-anchor="middle" x="635.5" y="-256.6737" font-family="Helvetica,sans-Serif" font-size="10.00" fill="#000000">get_u32</text>
</a>
</g>
</g>
<!-- Node315598&#45;&gt;Node315599 -->
<g id="edge28" class="edge">
<title>Node315598&#45;&gt;Node315599</title>
<path fill="none" stroke="#191970" d="M503.9965,-420.3521C515.1042,-394.1089 548.7391,-321.4167 597,-278.1737 598.6688,-276.6784 600.4766,-275.2723 602.3678,-273.955"/>
<polygon fill="#191970" stroke="#191970" points="604.2568,-276.9031 611.0198,-268.7476 600.6471,-270.9056 604.2568,-276.9031"/>
</g>
<!-- Node315600 -->
<g id="node19" class="node">
<title>Node315600</title>
<g id="a_node19"><a xlink:href="cutils_8h.html#ad587834d17e95461893d59661e5e9676" target="_top" xlink:title="get_u16">
<polygon fill="none" stroke="#000000" points="610,-401.6737 610,-420.6737 661,-420.6737 661,-401.6737 610,-401.6737"/>
<text text-anchor="middle" x="635.5" y="-408.6737" font-family="Helvetica,sans-Serif" font-size="10.00" fill="#000000">get_u16</text>
</a>
</g>
</g>
<!-- Node315598&#45;&gt;Node315600 -->
<g id="edge29" class="edge">
<title>Node315598&#45;&gt;Node315600</title>
<path fill="none" stroke="#191970" d="M530.747,-425.8623C551.2803,-422.9832 578.3547,-419.1867 599.8346,-416.1748"/>
<polygon fill="#191970" stroke="#191970" points="600.4595,-419.6215 609.8766,-414.7667 599.4874,-412.6893 600.4595,-419.6215"/>
</g>
<!-- Node315601 -->
<g id="node20" class="node">
<title>Node315601</title>
<g id="a_node20"><a xlink:href="quickjs_8c.html#a337071c33fd0684a2b132b17f536f35c" target="_top" xlink:title="update_label">
<polygon fill="none" stroke="#000000" points="600,-363.6737 600,-382.6737 671,-382.6737 671,-363.6737 600,-363.6737"/>
<text text-anchor="middle" x="635.5" y="-370.6737" font-family="Helvetica,sans-Serif" font-size="10.00" fill="#000000">update_label</text>
</a>
</g>
</g>
<!-- Node315598&#45;&gt;Node315601 -->
<g id="edge35" class="edge">
<title>Node315598&#45;&gt;Node315601</title>
<path fill="none" stroke="#191970" d="M522.6797,-420.6332C544.761,-411.3444 578.5324,-397.138 603.374,-386.688"/>
<polygon fill="#191970" stroke="#191970" points="604.8859,-389.8492 612.7464,-382.7454 602.1716,-383.3968 604.8859,-389.8492"/>
</g>
<!-- Node315602&#45;&gt;Node315585 -->
<g id="edge37" class="edge">
<title>Node315602&#45;&gt;Node315585</title>
<path fill="none" stroke="#191970" d="M662.0756,-21.6253C694.5524,-11.4076 750.8751,1.5906 797,-12.1737 823.5226,-20.0885 849.4743,-38.9602 866.0302,-52.8302"/>
<polygon fill="#191970" stroke="#191970" points="863.9332,-55.6442 873.7846,-59.543 868.5147,-50.3517 863.9332,-55.6442"/>
</g>
<!-- Node315603 -->
<g id="node22" class="node">
<title>Node315603</title>
<g id="a_node22"><a xlink:href="quickjs_8c.html#a0bbd9e3ecd55e3ea6c9d44bfda382095" target="_top" xlink:title="__JS_FreeAtom">
<polygon fill="none" stroke="#ff0000" points="710,-21.6737 710,-40.6737 797,-40.6737 797,-21.6737 710,-21.6737"/>
<text text-anchor="middle" x="753.5" y="-28.6737" font-family="Helvetica,sans-Serif" font-size="10.00" fill="#000000">__JS_FreeAtom</text>
</a>
</g>
</g>
<!-- Node315602&#45;&gt;Node315603 -->
<g id="edge38" class="edge">
<title>Node315602&#45;&gt;Node315603</title>
<path fill="none" stroke="#191970" d="M674.1376,-31.1737C682.3504,-31.1737 691.1631,-31.1737 699.8217,-31.1737"/>
<polygon fill="#191970" stroke="#191970" points="699.8703,-34.6738 709.8702,-31.1737 699.8702,-27.6738 699.8703,-34.6738"/>
</g>
<!-- Node315607&#45;&gt;Node315577 -->
<g id="edge49" class="edge">
<title>Node315607&#45;&gt;Node315577</title>
<path fill="none" stroke="#191970" d="M329.6984,-781.4712C320.2692,-777.1432 309.0588,-771.9522 299,-767.1737 220.7992,-730.0244 129.2203,-684.802 83.8925,-662.3027"/>
<polygon fill="#191970" stroke="#191970" points="85.1983,-659.0434 74.6852,-657.7292 82.0841,-665.3126 85.1983,-659.0434"/>
</g>
<!-- Node315607&#45;&gt;Node315578 -->
<g id="edge53" class="edge">
<title>Node315607&#45;&gt;Node315578</title>
<path fill="none" stroke="#191970" d="M306.2313,-781.6544C303.6835,-779.9647 301.2482,-778.1342 299,-776.1737 287.3187,-765.9874 234.2388,-678.1398 213.4171,-638.7135"/>
<polygon fill="#191970" stroke="#191970" points="216.533,-637.1193 208.8633,-629.8099 210.3008,-640.3068 216.533,-637.1193"/>
</g>
<!-- Node315607&#45;&gt;Node315586 -->
<g id="edge48" class="edge">
<title>Node315607&#45;&gt;Node315586</title>
<path fill="none" stroke="#191970" d="M403.1817,-791.1737C458.7437,-791.1737 545.4495,-791.1737 595.7346,-791.1737"/>
<polygon fill="#191970" stroke="#191970" points="595.8879,-794.6738 605.8878,-791.1737 595.8878,-787.6738 595.8879,-794.6738"/>
</g>
<!-- Node315607&#45;&gt;Node315593 -->
<g id="edge52" class="edge">
<title>Node315607&#45;&gt;Node315593</title>
<path fill="none" stroke="#191970" d="M386.744,-781.6252C439.8513,-767.4384 539.3002,-740.8721 595.02,-725.9874"/>
<polygon fill="#191970" stroke="#191970" points="596.1363,-729.312 604.8942,-723.3496 594.3296,-722.5491 596.1363,-729.312"/>
</g>
<!-- Node315608 -->
<g id="node24" class="node">
<title>Node315608</title>
<g id="a_node24"><a xlink:href="quickjs_8c.html#a93b69939f7af67646a177249bf2deb4d" target="_top" xlink:title="js_parse_coalesce_expr">
<polygon fill="none" stroke="#ff0000" points="439,-819.6737 439,-838.6737 561,-838.6737 561,-819.6737 439,-819.6737"/>
<text text-anchor="middle" x="500" y="-826.6737" font-family="Helvetica,sans-Serif" font-size="10.00" fill="#000000">js_parse_coalesce_expr</text>
</a>
</g>
</g>
<!-- Node315607&#45;&gt;Node315608 -->
<g id="edge41" class="edge">
<title>Node315607&#45;&gt;Node315608</title>
<path fill="none" stroke="#191970" d="M388.599,-800.7627C408.084,-805.7321 432.0745,-811.8505 452.7958,-817.1351"/>
<polygon fill="#191970" stroke="#191970" points="452.1166,-820.5738 462.6714,-819.6537 453.8465,-813.7909 452.1166,-820.5738"/>
</g>
<!-- Node315607&#45;&gt;Node315612 -->
<g id="edge47" class="edge">
<title>Node315607&#45;&gt;Node315612</title>
<path fill="none" stroke="#191970" d="M356.5443,-800.8527C368.5959,-820.8536 399.3148,-866.5112 439,-886.1737 487.6959,-910.3008 551.4536,-911.8291 592.9334,-909.4972"/>
<polygon fill="#191970" stroke="#191970" points="593.2293,-912.9854 602.9764,-908.8326 592.767,-906.0007 593.2293,-912.9854"/>
</g>
<!-- Node316060 -->
<g id="node26" class="node">
<title>Node316060</title>
<g id="a_node26"><a xlink:href="quickjs_8c.html#aeca8ed71e1eef8ec809afab744958c28" target="_top" xlink:title="js_parse_expect">
<polygon fill="none" stroke="#000000" points="456,-857.6737 456,-876.6737 544,-876.6737 544,-857.6737 456,-857.6737"/>
<text text-anchor="middle" x="500" y="-864.6737" font-family="Helvetica,sans-Serif" font-size="10.00" fill="#000000">js_parse_expect</text>
</a>
</g>
</g>
<!-- Node315607&#45;&gt;Node316060 -->
<g id="edge50" class="edge">
<title>Node315607&#45;&gt;Node316060</title>
<path fill="none" stroke="#191970" d="M363.4753,-800.8339C379.9744,-813.2288 410.322,-834.73 439,-848.1737 443.7125,-850.3829 448.7468,-852.4205 453.8266,-854.2753"/>
<polygon fill="#191970" stroke="#191970" points="452.9842,-857.6862 463.5788,-857.6137 455.2514,-851.0635 452.9842,-857.6862"/>
</g>
<!-- Node315608&#45;&gt;Node315586 -->
<g id="edge45" class="edge">
<title>Node315608&#45;&gt;Node315586</title>
<path fill="none" stroke="#191970" d="M534.1924,-819.5847C553.0194,-814.3048 576.4718,-807.7278 596.0691,-802.2319"/>
<polygon fill="#191970" stroke="#191970" points="597.2375,-805.5393 605.9209,-799.469 595.3473,-798.7993 597.2375,-805.5393"/>
</g>
<!-- Node315608&#45;&gt;Node315587 -->
<g id="edge44" class="edge">
<title>Node315608&#45;&gt;Node315587</title>
<path fill="none" stroke="#191970" d="M561.3979,-838.3884C598.1126,-840.3703 643.4181,-836.1299 674,-810.1737 674.658,-809.6153 730.3154,-608.8643 748.1008,-544.6675"/>
<polygon fill="#191970" stroke="#191970" points="751.4926,-545.5336 750.7893,-534.9621 744.7467,-543.6648 751.4926,-545.5336"/>
</g>
<!-- Node315608&#45;&gt;Node315591 -->
<g id="edge42" class="edge">
<title>Node315608&#45;&gt;Node315591</title>
<path fill="none" stroke="#191970" d="M537.8022,-838.6985C573.3659,-846.1414 627.8928,-853.6267 674,-843.1737 693.8914,-838.6642 714.6275,-828.5445 729.9329,-819.8816"/>
<polygon fill="#191970" stroke="#191970" points="731.8481,-822.816 738.7048,-814.7392 728.3079,-816.7772 731.8481,-822.816"/>
</g>
<!-- Node315608&#45;&gt;Node315593 -->
<g id="edge46" class="edge">
<title>Node315608&#45;&gt;Node315593</title>
<path fill="none" stroke="#191970" d="M511.5527,-819.4542C534.8524,-799.8514 587.6856,-755.4013 616.2717,-731.351"/>
<polygon fill="#191970" stroke="#191970" points="618.5778,-733.9849 623.9766,-724.8687 614.0713,-728.6284 618.5778,-733.9849"/>
</g>
<!-- Node315608&#45;&gt;Node315612 -->
<g id="edge43" class="edge">
<title>Node315608&#45;&gt;Node315612</title>
<path fill="none" stroke="#191970" d="M539.7961,-838.78C547.0929,-841.3099 554.4617,-844.4132 561,-848.1737 579.815,-858.9953 579.7168,-868.0435 597,-881.1737 601.0218,-884.2291 605.4444,-887.2597 609.8147,-890.0862"/>
<polygon fill="#191970" stroke="#191970" points="608.2293,-893.2223 618.5667,-895.5439 611.9333,-887.2825 608.2293,-893.2223"/>
</g>
<!-- Node316060&#45;&gt;Node315612 -->
<g id="edge51" class="edge">
<title>Node316060&#45;&gt;Node315612</title>
<path fill="none" stroke="#191970" d="M534.1924,-876.7627C552.0026,-881.7575 573.9522,-887.9131 592.8617,-893.2161"/>
<polygon fill="#191970" stroke="#191970" points="592.1472,-896.6507 602.7208,-895.9811 594.0374,-889.9108 592.1472,-896.6507"/>
</g>
<!-- Node315716&#45;&gt;Node315580 -->
<g id="edge60" class="edge">
<title>Node315716&#45;&gt;Node315580</title>
<path fill="none" stroke="#191970" d="M530.7953,-569.4731C540.8986,-572.3785 551.868,-576.4842 561,-582.1737 580.7456,-594.476 578.4096,-606.187 597,-620.1737 635.9388,-649.4699 687.0057,-673.6667 720.0358,-687.7689"/>
<polygon fill="#191970" stroke="#191970" points="718.6859,-690.998 729.2609,-691.6452 721.3976,-684.5446 718.6859,-690.998"/>
</g>
<!-- Node315716&#45;&gt;Node315587 -->
<g id="edge57" class="edge">
<title>Node315716&#45;&gt;Node315587</title>
<path fill="none" stroke="#191970" d="M530.578,-558.5901C577.6645,-551.5317 667.7075,-538.0342 717.7426,-530.5338"/>
<polygon fill="#191970" stroke="#191970" points="718.4118,-533.9727 727.7824,-529.0288 717.374,-527.0501 718.4118,-533.9727"/>
</g>
<!-- Node315716&#45;&gt;Node315593 -->
<g id="edge59" class="edge">
<title>Node315716&#45;&gt;Node315593</title>
<path fill="none" stroke="#191970" d="M530.5916,-566.8388C541.3869,-569.5242 552.8528,-574.1643 561,-582.1737 597.3815,-617.9404 565.4713,-651.0638 597,-691.1737 599.5022,-694.357 602.5519,-697.2295 605.8284,-699.7878"/>
<polygon fill="#191970" stroke="#191970" points="604.015,-702.7869 614.2572,-705.4978 607.941,-696.9915 604.015,-702.7869"/>
</g>
<!-- Node315716&#45;&gt;Node315595 -->
<g id="edge61" class="edge">
<title>Node315716&#45;&gt;Node315595</title>
<path fill="none" stroke="#191970" d="M530.747,-571.7965C550.475,-577.3291 576.2413,-584.5551 597.2824,-590.4559"/>
<polygon fill="#191970" stroke="#191970" points="596.6113,-593.9027 607.185,-593.233 598.5016,-587.1627 596.6113,-593.9027"/>
</g>
<!-- Node315716&#45;&gt;Node315602 -->
<g id="edge58" class="edge">
<title>Node315716&#45;&gt;Node315602</title>
<path fill="none" stroke="#191970" d="M506.5108,-553.5996C519.1149,-534.5901 546.8498,-490.3577 561,-449.1737 591.6278,-360.0318 580.4618,-332.9683 597,-240.1737 609.4374,-170.3885 624.891,-87.6336 631.8284,-50.6816"/>
<polygon fill="#191970" stroke="#191970" points="635.2877,-51.2237 633.6952,-40.7493 628.4082,-49.9306 635.2877,-51.2237"/>
</g>
<!-- Node316096&#45;&gt;Node315579 -->
<g id="edge65" class="edge">
<title>Node316096&#45;&gt;Node315579</title>
<path fill="none" stroke="#191970" d="M515.5922,-230.8109C534.5915,-242.4429 567.778,-262.4043 597,-278.1737 599.9518,-279.7666 603.0554,-281.3866 606.1664,-282.9749"/>
<polygon fill="#191970" stroke="#191970" points="604.8676,-286.2388 615.3764,-287.5862 608.0015,-279.9795 604.8676,-286.2388"/>
</g>
<!-- Node316096&#45;&gt;Node315584 -->
<g id="edge68" class="edge">
<title>Node316096&#45;&gt;Node315584</title>
<path fill="none" stroke="#191970" d="M514.0894,-211.62C532.3698,-199.7071 565.6444,-179.6389 597,-169.1737 632.3729,-157.3678 674.2054,-151.3347 705.7173,-148.2714"/>
<polygon fill="#191970" stroke="#191970" points="706.3402,-151.7294 715.984,-147.3423 705.7093,-144.7579 706.3402,-151.7294"/>
</g>
<!-- Node316096&#45;&gt;Node315587 -->
<g id="edge64" class="edge">
<title>Node316096&#45;&gt;Node315587</title>
<path fill="none" stroke="#191970" d="M545.7643,-213.1949C584.4055,-209.1983 638.9003,-210.3831 674,-240.1737 715.3972,-275.3094 742.6377,-446.7718 750.8719,-505.4412"/>
<polygon fill="#191970" stroke="#191970" points="747.4383,-506.1653 752.2639,-515.5973 754.3735,-505.2147 747.4383,-506.1653"/>
</g>
<!-- Node316096&#45;&gt;Node315590 -->
<g id="edge63" class="edge">
<title>Node316096&#45;&gt;Node315590</title>
<path fill="none" stroke="#191970" d="M527.0471,-211.6607C562.5169,-200.8473 625.8833,-187.3399 674,-209.1737 777.7882,-256.2695 850.4493,-382.8132 874.9317,-430.5785"/>
<polygon fill="#191970" stroke="#191970" points="871.8047,-432.1509 879.4186,-439.5184 878.061,-429.0109 871.8047,-432.1509"/>
</g>
<!-- Node316096&#45;&gt;Node315599 -->
<g id="edge66" class="edge">
<title>Node316096&#45;&gt;Node315599</title>
<path fill="none" stroke="#191970" d="M534.1924,-230.7627C554.313,-236.4054 579.7164,-243.5296 600.0513,-249.2324"/>
<polygon fill="#191970" stroke="#191970" points="599.3005,-252.6568 609.8741,-251.9871 601.1907,-245.9168 599.3005,-252.6568"/>
</g>
<!-- Node316096&#45;&gt;Node315602 -->
<g id="edge67" class="edge">
<title>Node316096&#45;&gt;Node315602</title>
<path fill="none" stroke="#191970" d="M506.9058,-211.4904C528.3746,-181.3865 594.1972,-89.0891 622.4241,-49.509"/>
<polygon fill="#191970" stroke="#191970" points="625.4889,-51.2393 628.4457,-41.0654 619.7897,-47.1749 625.4889,-51.2393"/>
</g>
</g>
</svg>
        <g id="navigator" transform="translate(0 0)" fill="#404254">
                <rect fill="#f2f5e9" fill-opacity="0.5" stroke="#606060" stroke-width=".5" x="0" y="0" width="60" height="60"/>
                <use id="zoomplus" xlink:href="#zoomPlus" x="17" y="9" onmousedown="handleZoom(evt,'in')"/>
                <use id="zoomminus" xlink:href="#zoomMin" x="42" y="9" onmousedown="handleZoom(evt,'out')"/>
                <use id="reset" xlink:href="#resetDef" x="30" y="36" onmousedown="handleReset()"/>
                <g id="arrowUp" xlink:href="#dirArrow" transform="translate(30 24)" onmousedown="handlePan(0,-1)">
                  <use xlink:href="#rim" fill="#404040">
                        <set attributeName="fill" to="#808080" begin="arrowUp.mouseover" end="arrowUp.mouseout"/>
                  </use>
                  <path fill="none" stroke="white" stroke-width="1.5" d="M0,-3.0v7 M-2.5,-0.5L0,-3.0L2.5,-0.5"/>
                </g>
                <g id="arrowRight" xlink:href="#dirArrow" transform="rotate(90) translate(36 -43)" onmousedown="handlePan(1,0)">
                  <use xlink:href="#rim" fill="#404040">
                        <set attributeName="fill" to="#808080" begin="arrowRight.mouseover" end="arrowRight.mouseout"/>
                  </use>
                  <path fill="none" stroke="white" stroke-width="1.5" d="M0,-3.0v7 M-2.5,-0.5L0,-3.0L2.5,-0.5"/>
                </g>
                <g id="arrowDown" xlink:href="#dirArrow" transform="rotate(180) translate(-30 -48)" onmousedown="handlePan(0,1)">
                  <use xlink:href="#rim" fill="#404040">
                        <set attributeName="fill" to="#808080" begin="arrowDown.mouseover" end="arrowDown.mouseout"/>
                  </use>
                  <path fill="none" stroke="white" stroke-width="1.5" d="M0,-3.0v7 M-2.5,-0.5L0,-3.0L2.5,-0.5"/>
                </g>
                <g id="arrowLeft" xlink:href="#dirArrow" transform="rotate(270) translate(-36 17)" onmousedown="handlePan(-1,0)">
                  <use xlink:href="#rim" fill="#404040">
                        <set attributeName="fill" to="#808080" begin="arrowLeft.mouseover" end="arrowLeft.mouseout"/>
                  </use>
                  <path fill="none" stroke="white" stroke-width="1.5" d="M0,-3.0v7 M-2.5,-0.5L0,-3.0L2.5,-0.5"/>
                </g>
        </g>
        <svg viewBox="0 0 15 15" width="100%" height="30px" preserveAspectRatio="xMaxYMin meet">
         <g id="arrow_out" transform="scale(0.3 0.3)">
          <a xlink:href="quickjs_8c_a4b2edcb56737c91ad1f7fd7561199dc9_cgraph_org.svg" target="_base">
           <rect id="button" ry="5" rx="5" y="6" x="6" height="38" width="38"
                fill="#f2f5e9" fill-opacity="0.5" stroke="#606060" stroke-width="1.0"/>
           <path id="arrow"
             d="M 11.500037,31.436501 C 11.940474,20.09759 22.043105,11.32322 32.158766,21.979434 L 37.068811,17.246167 C 37.068811,17.246167 37.088388,32 37.088388,32 L 22.160133,31.978069 C 22.160133,31.978069 26.997745,27.140456 26.997745,27.140456 C 18.528582,18.264221 13.291696,25.230495 11.500037,31.436501 z"
             style="fill:#404040;"/>
          </a>
         </g>
        </svg>
</svg>
