<?xml version="1.0" encoding="UTF-8" standalone="no"?>
<!DOCTYPE svg PUBLIC "-//W3C//DTD SVG 1.1//EN"
 "http://www.w3.org/Graphics/SVG/1.1/DTD/svg11.dtd">
<!-- Generated by graphviz version 2.40.1 (20161225.0304)
 -->
<!-- Title: js_typed_array_constructor_ta Pages: 1 -->
<svg width="1042pt" height="572pt"
 viewBox="0.00 0.00 1042.00 572.00" xmlns="http://www.w3.org/2000/svg" xmlns:xlink="http://www.w3.org/1999/xlink">
<g id="graph0" class="graph" transform="scale(1 1) rotate(0) translate(4 568)">
<title>js_typed_array_constructor_ta</title>
<!-- Node489386 -->
<g id="node1" class="node">
<title>Node489386</title>
<polygon fill="#bfbfbf" stroke="#000000" points="0,-183.5 0,-202.5 148,-202.5 148,-183.5 0,-183.5"/>
<text text-anchor="middle" x="74" y="-190.5" font-family="Helvetica,sans-Serif" font-size="10.00" fill="#000000">js_typed_array_constructor_ta</text>
</g>
<!-- Node489387 -->
<g id="node2" class="node">
<title>Node489387</title>
<g id="a_node2"><a xlink:href="quickjs_8c.html#aca93646daffcd067d273c79efa6dda37" target="_top" xlink:title="js_array_buffer_constructor1">
<polygon fill="none" stroke="#000000" points="187,-278.5 187,-297.5 327,-297.5 327,-278.5 187,-278.5"/>
<text text-anchor="middle" x="257" y="-285.5" font-family="Helvetica,sans-Serif" font-size="10.00" fill="#000000">js_array_buffer_constructor1</text>
</a>
</g>
</g>
<!-- Node489386&#45;&gt;Node489387 -->
<g id="edge1" class="edge">
<title>Node489386&#45;&gt;Node489387</title>
<path fill="none" stroke="#191970" d="M86.5755,-202.6558C106.3818,-217.4987 146.4627,-246.0797 184,-264 192.8461,-268.2231 202.6279,-271.9991 212.0796,-275.2368"/>
<polygon fill="#191970" stroke="#191970" points="211.1638,-278.6198 221.7566,-278.412 213.3463,-271.9687 211.1638,-278.6198"/>
</g>
<!-- Node489391 -->
<g id="node5" class="node">
<title>Node489391</title>
<g id="a_node5"><a xlink:href="quickjs_8c.html#a93dbf502b17d1328c524401335f60499" target="_top" xlink:title="js_create_from_ctor">
<polygon fill="none" stroke="#ff0000" points="726.5,-354.5 726.5,-373.5 829.5,-373.5 829.5,-354.5 726.5,-354.5"/>
<text text-anchor="middle" x="778" y="-361.5" font-family="Helvetica,sans-Serif" font-size="10.00" fill="#000000">js_create_from_ctor</text>
</a>
</g>
</g>
<!-- Node489386&#45;&gt;Node489391 -->
<g id="edge14" class="edge">
<title>Node489386&#45;&gt;Node489391</title>
<path fill="none" stroke="#191970" d="M79.9554,-202.8216C94.4535,-225.7319 134.084,-282.6101 184,-307 361.3677,-393.6652 603.7931,-382.894 716.1566,-371.7219"/>
<polygon fill="#191970" stroke="#191970" points="716.7053,-375.184 726.2938,-370.6773 715.9877,-368.2208 716.7053,-375.184"/>
</g>
<!-- Node489393 -->
<g id="node7" class="node">
<title>Node489393</title>
<g id="a_node7"><a xlink:href="quickjs_8h.html#afaa20c47565bc704c6c85f3d77254e7d" target="_top" xlink:title="JS_FreeValue">
<polygon fill="none" stroke="#ff0000" points="915,-221.5 915,-240.5 993,-240.5 993,-221.5 915,-221.5"/>
<text text-anchor="middle" x="954" y="-228.5" font-family="Helvetica,sans-Serif" font-size="10.00" fill="#000000">JS_FreeValue</text>
</a>
</g>
</g>
<!-- Node489386&#45;&gt;Node489393 -->
<g id="edge15" class="edge">
<title>Node489386&#45;&gt;Node489393</title>
<path fill="none" stroke="#191970" d="M148.1237,-199.1688C221.2513,-204.7166 336.25,-212 436,-212 436,-212 436,-212 612,-212 716.2854,-212 838.183,-220.9161 904.6252,-226.5327"/>
<polygon fill="#191970" stroke="#191970" points="904.5392,-230.038 914.8014,-227.4039 905.1364,-223.0636 904.5392,-230.038"/>
</g>
<!-- Node489442 -->
<g id="node9" class="node">
<title>Node489442</title>
<g id="a_node9"><a xlink:href="quickjs_8h.html#ad80a83d73e9b7d872b88fbf2943aebe9" target="_top" xlink:title="JS_IsException">
<polygon fill="none" stroke="#000000" points="911,-278.5 911,-297.5 997,-297.5 997,-278.5 911,-278.5"/>
<text text-anchor="middle" x="954" y="-285.5" font-family="Helvetica,sans-Serif" font-size="10.00" fill="#000000">JS_IsException</text>
</a>
</g>
</g>
<!-- Node489386&#45;&gt;Node489442 -->
<g id="edge18" class="edge">
<title>Node489386&#45;&gt;Node489442</title>
<path fill="none" stroke="#191970" d="M108.4468,-202.6039C130.0134,-208.3298 158.4609,-215.3634 184,-220 294.9768,-240.1477 323.2091,-250 436,-250 436,-250 436,-250 612,-250 714.8503,-250 834.0407,-267.1862 901.0776,-278.4428"/>
<polygon fill="#191970" stroke="#191970" points="900.5348,-281.9007 910.98,-280.1264 901.7082,-274.9997 900.5348,-281.9007"/>
</g>
<!-- Node489517 -->
<g id="node13" class="node">
<title>Node489517</title>
<g id="a_node13"><a xlink:href="quickjs_8c.html#aeb97957655d979e9fe56c955da2b2d4b" target="_top" xlink:title="JS_GetPropertyUint32">
<polygon fill="none" stroke="#ff0000" points="199.5,-126.5 199.5,-145.5 314.5,-145.5 314.5,-126.5 199.5,-126.5"/>
<text text-anchor="middle" x="257" y="-133.5" font-family="Helvetica,sans-Serif" font-size="10.00" fill="#000000">JS_GetPropertyUint32</text>
</a>
</g>
</g>
<!-- Node489386&#45;&gt;Node489517 -->
<g id="edge16" class="edge">
<title>Node489386&#45;&gt;Node489517</title>
<path fill="none" stroke="#191970" d="M100.0389,-183.3618C122.2107,-175.3101 154.9901,-163.7715 184,-155 191.7533,-152.6557 200.0214,-150.3351 208.103,-148.1636"/>
<polygon fill="#191970" stroke="#191970" points="209.0462,-151.5345 217.8211,-145.5971 207.2588,-144.7666 209.0462,-151.5345"/>
</g>
<!-- Node489825 -->
<g id="node15" class="node">
<title>Node489825</title>
<g id="a_node15"><a xlink:href="quickjs_8c.html#aae909eaec829081b270012adfcd717a4" target="_top" xlink:title="JS_SetPropertyUint32">
<polygon fill="none" stroke="#000000" points="200,-164.5 200,-183.5 314,-183.5 314,-164.5 200,-164.5"/>
<text text-anchor="middle" x="257" y="-171.5" font-family="Helvetica,sans-Serif" font-size="10.00" fill="#000000">JS_SetPropertyUint32</text>
</a>
</g>
</g>
<!-- Node489386&#45;&gt;Node489825 -->
<g id="edge19" class="edge">
<title>Node489386&#45;&gt;Node489825</title>
<path fill="none" stroke="#191970" d="M148.1693,-185.2994C161.9069,-183.8731 176.1854,-182.3906 189.7044,-180.987"/>
<polygon fill="#191970" stroke="#191970" points="190.2879,-184.4453 199.8729,-179.9312 189.5649,-177.4827 190.2879,-184.4453"/>
</g>
<!-- Node489826 -->
<g id="node17" class="node">
<title>Node489826</title>
<g id="a_node17"><a xlink:href="quickjs_8c.html#ab5d3dff6327702516a514e1f616ec149" target="_top" xlink:title="JS_SpeciesConstructor">
<polygon fill="none" stroke="#000000" points="718,-392.5 718,-411.5 838,-411.5 838,-392.5 718,-392.5"/>
<text text-anchor="middle" x="778" y="-399.5" font-family="Helvetica,sans-Serif" font-size="10.00" fill="#000000">JS_SpeciesConstructor</text>
</a>
</g>
</g>
<!-- Node489386&#45;&gt;Node489826 -->
<g id="edge23" class="edge">
<title>Node489386&#45;&gt;Node489826</title>
<path fill="none" stroke="#191970" d="M78.0047,-202.7143C89.7776,-229.9823 127.0665,-307.6708 184,-345 351.5665,-454.8671 604.9936,-431.2571 718.8946,-413.1457"/>
<polygon fill="#191970" stroke="#191970" points="719.5151,-416.5909 728.8201,-411.5247 718.3867,-409.6824 719.5151,-416.5909"/>
</g>
<!-- Node489656 -->
<g id="node21" class="node">
<title>Node489656</title>
<g id="a_node21"><a xlink:href="quickjs_8c.html#a033dd3ebd29c4eb9f0baff1dd0fec0b1" target="_top" xlink:title="JS_ThrowTypeErrorDetached\lArrayBuffer">
<polygon fill="none" stroke="#000000" points="184,-39 184,-69 330,-69 330,-39 184,-39"/>
<text text-anchor="start" x="192" y="-57" font-family="Helvetica,sans-Serif" font-size="10.00" fill="#000000">JS_ThrowTypeErrorDetached</text>
<text text-anchor="middle" x="257" y="-46" font-family="Helvetica,sans-Serif" font-size="10.00" fill="#000000">ArrayBuffer</text>
</a>
</g>
</g>
<!-- Node489386&#45;&gt;Node489656 -->
<g id="edge33" class="edge">
<title>Node489386&#45;&gt;Node489656</title>
<path fill="none" stroke="#191970" d="M80.8258,-183.2599C96.5569,-161.4974 137.5898,-108.5254 184,-79 187.1824,-76.9754 190.5479,-75.0937 194.0176,-73.348"/>
<polygon fill="#191970" stroke="#191970" points="195.7669,-76.3961 203.3916,-69.0399 192.8437,-70.0357 195.7669,-76.3961"/>
</g>
<!-- Node489827 -->
<g id="node22" class="node">
<title>Node489827</title>
<g id="a_node22"><a xlink:href="quickjs_8c.html#aa74340c43f57c6a6d9210a7cbb191e71" target="_top" xlink:title="typed_array_init">
<polygon fill="none" stroke="#000000" points="214,-88.5 214,-107.5 300,-107.5 300,-88.5 214,-88.5"/>
<text text-anchor="middle" x="257" y="-95.5" font-family="Helvetica,sans-Serif" font-size="10.00" fill="#000000">typed_array_init</text>
</a>
</g>
</g>
<!-- Node489386&#45;&gt;Node489827 -->
<g id="edge34" class="edge">
<title>Node489386&#45;&gt;Node489827</title>
<path fill="none" stroke="#191970" d="M85.0654,-183.353C104.0332,-167.2984 144.538,-135.0796 184,-117 190.2394,-114.1414 196.9834,-111.657 203.764,-109.5133"/>
<polygon fill="#191970" stroke="#191970" points="205.0567,-112.7818 213.67,-106.6125 203.0894,-106.0639 205.0567,-112.7818"/>
</g>
<!-- Node489657 -->
<g id="node24" class="node">
<title>Node489657</title>
<g id="a_node24"><a xlink:href="quickjs_8c.html#a869fa88a646c0a1914ec2e559b193b5c" target="_top" xlink:title="typed_array_is_detached">
<polygon fill="none" stroke="#000000" points="194.5,-.5 194.5,-19.5 319.5,-19.5 319.5,-.5 194.5,-.5"/>
<text text-anchor="middle" x="257" y="-7.5" font-family="Helvetica,sans-Serif" font-size="10.00" fill="#000000">typed_array_is_detached</text>
</a>
</g>
</g>
<!-- Node489386&#45;&gt;Node489657 -->
<g id="edge37" class="edge">
<title>Node489386&#45;&gt;Node489657</title>
<path fill="none" stroke="#191970" d="M77.5338,-183.4606C88.5351,-155.132 125.0121,-70.8724 184,-29 186.7231,-27.067 189.6281,-25.3306 192.6516,-23.7707"/>
<polygon fill="#191970" stroke="#191970" points="194.3034,-26.8666 202.0145,-19.601 191.4556,-20.472 194.3034,-26.8666"/>
</g>
<!-- Node489388 -->
<g id="node3" class="node">
<title>Node489388</title>
<g id="a_node3"><a xlink:href="quickjs_8c.html#a26d438ccdb07d84370683eb01eda3013" target="_top" xlink:title="js_array_buffer_constructor2">
<polygon fill="none" stroke="#000000" points="366,-278.5 366,-297.5 506,-297.5 506,-278.5 366,-278.5"/>
<text text-anchor="middle" x="436" y="-285.5" font-family="Helvetica,sans-Serif" font-size="10.00" fill="#000000">js_array_buffer_constructor2</text>
</a>
</g>
</g>
<!-- Node489387&#45;&gt;Node489388 -->
<g id="edge2" class="edge">
<title>Node489387&#45;&gt;Node489388</title>
<path fill="none" stroke="#191970" d="M327.2318,-288C336.5825,-288 346.2277,-288 355.7326,-288"/>
<polygon fill="#191970" stroke="#191970" points="355.9708,-291.5001 365.9707,-288 355.9707,-284.5001 355.9708,-291.5001"/>
</g>
<!-- Node489389 -->
<g id="node4" class="node">
<title>Node489389</title>
<g id="a_node4"><a xlink:href="quickjs_8c.html#a06f84cf8ea00e2baf1a9b94f1a319b18" target="_top" xlink:title="js_array_buffer_constructor3">
<polygon fill="none" stroke="#ff0000" points="542,-278.5 542,-297.5 682,-297.5 682,-278.5 542,-278.5"/>
<text text-anchor="middle" x="612" y="-285.5" font-family="Helvetica,sans-Serif" font-size="10.00" fill="#000000">js_array_buffer_constructor3</text>
</a>
</g>
</g>
<!-- Node489388&#45;&gt;Node489389 -->
<g id="edge3" class="edge">
<title>Node489388&#45;&gt;Node489389</title>
<path fill="none" stroke="#191970" d="M506.0656,-288C514.5403,-288 523.2467,-288 531.8522,-288"/>
<polygon fill="#191970" stroke="#191970" points="531.888,-291.5001 541.888,-288 531.8879,-284.5001 531.888,-291.5001"/>
</g>
<!-- Node489824 -->
<g id="node12" class="node">
<title>Node489824</title>
<g id="a_node12"><a xlink:href="quickjs_8c.html#a4e2ed26457b779e5bd73472de8be124c" target="_top" xlink:title="js_array_buffer_free">
<polygon fill="none" stroke="#ff0000" points="560.5,-316.5 560.5,-335.5 663.5,-335.5 663.5,-316.5 560.5,-316.5"/>
<text text-anchor="middle" x="612" y="-323.5" font-family="Helvetica,sans-Serif" font-size="10.00" fill="#000000">js_array_buffer_free</text>
</a>
</g>
</g>
<!-- Node489388&#45;&gt;Node489824 -->
<g id="edge13" class="edge">
<title>Node489388&#45;&gt;Node489824</title>
<path fill="none" stroke="#191970" d="M480.4122,-297.589C503.9512,-302.6713 533.0567,-308.9554 557.9048,-314.3203"/>
<polygon fill="#191970" stroke="#191970" points="557.3937,-317.7906 567.9071,-316.4799 558.8711,-310.9482 557.3937,-317.7906"/>
</g>
<!-- Node489389&#45;&gt;Node489391 -->
<g id="edge4" class="edge">
<title>Node489389&#45;&gt;Node489391</title>
<path fill="none" stroke="#191970" d="M659.52,-297.5876C667.2832,-300.0778 675.0512,-303.1723 682,-307 701.0115,-317.4725 699.6244,-328.448 718,-340 724.3341,-343.982 731.4396,-347.518 738.485,-350.5701"/>
<polygon fill="#191970" stroke="#191970" points="737.3949,-353.9051 747.9768,-354.4287 740.0311,-347.4204 737.3949,-353.9051"/>
</g>
<!-- Node489389&#45;&gt;Node489393 -->
<g id="edge11" class="edge">
<title>Node489389&#45;&gt;Node489393</title>
<path fill="none" stroke="#191970" d="M669.2431,-278.4595C735.1695,-267.4718 842.3812,-249.6031 904.7366,-239.2106"/>
<polygon fill="#191970" stroke="#191970" points="905.4302,-242.6433 914.7187,-237.5469 904.2794,-235.7386 905.4302,-242.6433"/>
</g>
<!-- Node489389&#45;&gt;Node489442 -->
<g id="edge12" class="edge">
<title>Node489389&#45;&gt;Node489442</title>
<path fill="none" stroke="#191970" d="M673.5206,-297.5151C688.0683,-299.3793 703.5524,-301.05 718,-302 771.2184,-305.4992 784.7628,-305.201 838,-302 858.6052,-300.7611 881.1583,-298.295 900.8549,-295.773"/>
<polygon fill="#191970" stroke="#191970" points="901.4112,-299.2301 910.8691,-294.4553 900.4979,-292.2899 901.4112,-299.2301"/>
</g>
<!-- Node489392 -->
<g id="node6" class="node">
<title>Node489392</title>
<g id="a_node6"><a xlink:href="quickjs_8h.html#a775522f2d084fc8fa0fcb33f390006b4" target="_top" xlink:title="JS_DupValue">
<polygon fill="none" stroke="#000000" points="915.5,-316.5 915.5,-335.5 992.5,-335.5 992.5,-316.5 915.5,-316.5"/>
<text text-anchor="middle" x="954" y="-323.5" font-family="Helvetica,sans-Serif" font-size="10.00" fill="#000000">JS_DupValue</text>
</a>
</g>
</g>
<!-- Node489391&#45;&gt;Node489392 -->
<g id="edge5" class="edge">
<title>Node489391&#45;&gt;Node489392</title>
<path fill="none" stroke="#191970" d="M822.4122,-354.411C847.674,-348.9567 879.347,-342.1183 905.2884,-336.5173"/>
<polygon fill="#191970" stroke="#191970" points="906.2515,-339.8901 915.2876,-334.3584 904.7741,-333.0477 906.2515,-339.8901"/>
</g>
<!-- Node489391&#45;&gt;Node489393 -->
<g id="edge6" class="edge">
<title>Node489391&#45;&gt;Node489393</title>
<path fill="none" stroke="#191970" d="M787.3879,-354.3492C809.6018,-331.5659 864.2587,-275.8346 874,-269 887.8359,-259.2926 904.5396,-250.9155 919.0974,-244.5161"/>
<polygon fill="#191970" stroke="#191970" points="920.4691,-247.7361 928.3023,-240.6022 917.7301,-241.2943 920.4691,-247.7361"/>
</g>
<!-- Node489433 -->
<g id="node8" class="node">
<title>Node489433</title>
<g id="a_node8"><a xlink:href="quickjs_8h.html#a89b7c8686c7eee70b86be722ee4730ad" target="_top" xlink:title="JS_GetProperty">
<polygon fill="none" stroke="#ff0000" points="911,-430.5 911,-449.5 997,-449.5 997,-430.5 911,-430.5"/>
<text text-anchor="middle" x="954" y="-437.5" font-family="Helvetica,sans-Serif" font-size="10.00" fill="#000000">JS_GetProperty</text>
</a>
</g>
</g>
<!-- Node489391&#45;&gt;Node489433 -->
<g id="edge7" class="edge">
<title>Node489391&#45;&gt;Node489433</title>
<path fill="none" stroke="#191970" d="M817.9925,-373.5369C824.9399,-376.0551 831.8883,-379.1721 838,-383 857.7165,-395.3488 853.8431,-409.3839 874,-421 882.2617,-425.7611 891.6586,-429.3312 901.0358,-432.0076"/>
<polygon fill="#191970" stroke="#191970" points="900.1975,-435.4058 910.7523,-434.4857 901.9275,-428.6229 900.1975,-435.4058"/>
</g>
<!-- Node489391&#45;&gt;Node489442 -->
<g id="edge8" class="edge">
<title>Node489391&#45;&gt;Node489442</title>
<path fill="none" stroke="#191970" d="M808.0232,-354.4287C817.9413,-350.6404 828.7868,-345.792 838,-340 856.3756,-328.448 854.8241,-317.1683 874,-307 882.243,-302.629 891.4916,-299.2515 900.6951,-296.645"/>
<polygon fill="#191970" stroke="#191970" points="901.793,-299.977 910.6143,-294.1088 900.059,-293.1951 901.793,-299.977"/>
</g>
<!-- Node489670 -->
<g id="node10" class="node">
<title>Node489670</title>
<g id="a_node10"><a xlink:href="quickjs_8h.html#a3d68fe446df2d9c7d1900b16371bff5b" target="_top" xlink:title="JS_IsObject">
<polygon fill="none" stroke="#000000" points="918.5,-392.5 918.5,-411.5 989.5,-411.5 989.5,-392.5 918.5,-392.5"/>
<text text-anchor="middle" x="954" y="-399.5" font-family="Helvetica,sans-Serif" font-size="10.00" fill="#000000">JS_IsObject</text>
</a>
</g>
</g>
<!-- Node489391&#45;&gt;Node489670 -->
<g id="edge9" class="edge">
<title>Node489391&#45;&gt;Node489670</title>
<path fill="none" stroke="#191970" d="M822.4122,-373.589C848.779,-379.2818 882.1303,-386.4827 908.6588,-392.2104"/>
<polygon fill="#191970" stroke="#191970" points="907.9498,-395.6379 918.4632,-394.3273 909.4271,-388.7956 907.9498,-395.6379"/>
</g>
<!-- Node489598 -->
<g id="node11" class="node">
<title>Node489598</title>
<g id="a_node11"><a xlink:href="quickjs_8h.html#a4e407128a9605afb77523e49e9a627fd" target="_top" xlink:title="JS_IsUndefined">
<polygon fill="none" stroke="#000000" points="911,-354.5 911,-373.5 997,-373.5 997,-354.5 911,-354.5"/>
<text text-anchor="middle" x="954" y="-361.5" font-family="Helvetica,sans-Serif" font-size="10.00" fill="#000000">JS_IsUndefined</text>
</a>
</g>
</g>
<!-- Node489391&#45;&gt;Node489598 -->
<g id="edge10" class="edge">
<title>Node489391&#45;&gt;Node489598</title>
<path fill="none" stroke="#191970" d="M829.8539,-364C852.1883,-364 878.2826,-364 900.7681,-364"/>
<polygon fill="#191970" stroke="#191970" points="900.8188,-367.5001 910.8188,-364 900.8188,-360.5001 900.8188,-367.5001"/>
</g>
<!-- Node489519 -->
<g id="node14" class="node">
<title>Node489519</title>
<g id="a_node14"><a xlink:href="quickjs_8h.html#a88259aa0da61ac754402c64ccecee116" target="_top" xlink:title="JS_NewUint32">
<polygon fill="none" stroke="#ff0000" points="394.5,-126.5 394.5,-145.5 477.5,-145.5 477.5,-126.5 394.5,-126.5"/>
<text text-anchor="middle" x="436" y="-133.5" font-family="Helvetica,sans-Serif" font-size="10.00" fill="#000000">JS_NewUint32</text>
</a>
</g>
</g>
<!-- Node489517&#45;&gt;Node489519 -->
<g id="edge17" class="edge">
<title>Node489517&#45;&gt;Node489519</title>
<path fill="none" stroke="#191970" d="M314.622,-136C337.0322,-136 362.5096,-136 384.3168,-136"/>
<polygon fill="#191970" stroke="#191970" points="384.3747,-139.5001 394.3747,-136 384.3747,-132.5001 384.3747,-139.5001"/>
</g>
<!-- Node489825&#45;&gt;Node489519 -->
<g id="edge20" class="edge">
<title>Node489825&#45;&gt;Node489519</title>
<path fill="none" stroke="#191970" d="M302.1693,-164.411C327.1302,-159.112 358.2456,-152.5065 384.1908,-146.9986"/>
<polygon fill="#191970" stroke="#191970" points="385.1679,-150.3692 394.2231,-144.8688 383.7142,-143.5218 385.1679,-150.3692"/>
</g>
<!-- Node489612 -->
<g id="node16" class="node">
<title>Node489612</title>
<g id="a_node16"><a xlink:href="quickjs_8c.html#aee75cc1546e19479e3ccda58f3b50a96" target="_top" xlink:title="JS_SetPropertyValue">
<polygon fill="none" stroke="#ff0000" points="557,-164.5 557,-183.5 667,-183.5 667,-164.5 557,-164.5"/>
<text text-anchor="middle" x="612" y="-171.5" font-family="Helvetica,sans-Serif" font-size="10.00" fill="#000000">JS_SetPropertyValue</text>
</a>
</g>
</g>
<!-- Node489825&#45;&gt;Node489612 -->
<g id="edge21" class="edge">
<title>Node489825&#45;&gt;Node489612</title>
<path fill="none" stroke="#191970" d="M314.0369,-174C377.4778,-174 479.7916,-174 546.4724,-174"/>
<polygon fill="#191970" stroke="#191970" points="546.857,-177.5001 556.8569,-174 546.8569,-170.5001 546.857,-177.5001"/>
</g>
<!-- Node489612&#45;&gt;Node489393 -->
<g id="edge22" class="edge">
<title>Node489612&#45;&gt;Node489393</title>
<path fill="none" stroke="#191970" d="M667.1923,-177.2095C713.1931,-180.5169 780.2839,-186.8115 838,-198 864.3814,-203.1142 893.4666,-211.3948 915.9136,-218.3815"/>
<polygon fill="#191970" stroke="#191970" points="915.1365,-221.8065 925.7264,-221.4846 917.2471,-215.1323 915.1365,-221.8065"/>
</g>
<!-- Node489826&#45;&gt;Node489392 -->
<g id="edge24" class="edge">
<title>Node489826&#45;&gt;Node489392</title>
<path fill="none" stroke="#191970" d="M817.9925,-392.4631C824.9399,-389.9449 831.8883,-386.8279 838,-383 857.7165,-370.6512 853.8431,-356.6161 874,-345 883.5643,-339.4883 894.6499,-335.5727 905.4651,-332.7919"/>
<polygon fill="#191970" stroke="#191970" points="906.3051,-336.1903 915.27,-330.544 904.7407,-329.3673 906.3051,-336.1903"/>
</g>
<!-- Node489826&#45;&gt;Node489393 -->
<g id="edge25" class="edge">
<title>Node489826&#45;&gt;Node489393</title>
<path fill="none" stroke="#191970" d="M824.5263,-392.3986C829.4965,-389.9444 834.1384,-386.8646 838,-383 875.5557,-345.4143 839.1004,-309.0641 874,-269 883.4273,-258.1776 896.6158,-250.1953 909.5693,-244.4208"/>
<polygon fill="#191970" stroke="#191970" points="910.976,-247.6269 918.9028,-240.5972 908.3224,-241.1494 910.976,-247.6269"/>
</g>
<!-- Node489826&#45;&gt;Node489433 -->
<g id="edge26" class="edge">
<title>Node489826&#45;&gt;Node489433</title>
<path fill="none" stroke="#191970" d="M822.4122,-411.589C846.2197,-416.7293 875.7215,-423.099 900.7534,-428.5036"/>
<polygon fill="#191970" stroke="#191970" points="900.3054,-431.9874 910.8188,-430.6768 901.7827,-425.1451 900.3054,-431.9874"/>
</g>
<!-- Node489826&#45;&gt;Node489442 -->
<g id="edge28" class="edge">
<title>Node489826&#45;&gt;Node489442</title>
<path fill="none" stroke="#191970" d="M822.8139,-392.4262C828.3149,-389.968 833.5546,-386.8797 838,-383 866.1595,-358.424 844.9566,-330.5248 874,-307 881.8204,-300.6655 891.4007,-296.379 901.1785,-293.4929"/>
<polygon fill="#191970" stroke="#191970" points="902.1099,-296.8678 910.9642,-291.0496 900.4141,-290.0763 902.1099,-296.8678"/>
</g>
<!-- Node489826&#45;&gt;Node489670 -->
<g id="edge30" class="edge">
<title>Node489826&#45;&gt;Node489670</title>
<path fill="none" stroke="#191970" d="M838.077,-402C861.0119,-402 886.7698,-402 908.1702,-402"/>
<polygon fill="#191970" stroke="#191970" points="908.2944,-405.5001 918.2943,-402 908.2943,-398.5001 908.2944,-405.5001"/>
</g>
<!-- Node489826&#45;&gt;Node489598 -->
<g id="edge31" class="edge">
<title>Node489826&#45;&gt;Node489598</title>
<path fill="none" stroke="#191970" d="M822.4122,-392.411C846.2197,-387.2707 875.7215,-380.901 900.7534,-375.4964"/>
<polygon fill="#191970" stroke="#191970" points="901.7827,-378.8549 910.8188,-373.3232 900.3054,-372.0126 901.7827,-378.8549"/>
</g>
<!-- Node489800 -->
<g id="node18" class="node">
<title>Node489800</title>
<g id="a_node18"><a xlink:href="quickjs_8c.html#afa39b15865cb50fc2383e76e33b2de1a" target="_top" xlink:title="JS_IsConstructor">
<polygon fill="none" stroke="#000000" points="907.5,-468.5 907.5,-487.5 1000.5,-487.5 1000.5,-468.5 907.5,-468.5"/>
<text text-anchor="middle" x="954" y="-475.5" font-family="Helvetica,sans-Serif" font-size="10.00" fill="#000000">JS_IsConstructor</text>
</a>
</g>
</g>
<!-- Node489826&#45;&gt;Node489800 -->
<g id="edge27" class="edge">
<title>Node489826&#45;&gt;Node489800</title>
<path fill="none" stroke="#191970" d="M791.3069,-411.6869C809.2411,-424.3124 842.5562,-446.2767 874,-459 881.4322,-462.0073 889.4538,-464.6096 897.4486,-466.8398"/>
<polygon fill="#191970" stroke="#191970" points="896.5853,-470.2317 907.1457,-469.3779 898.3578,-463.4598 896.5853,-470.2317"/>
</g>
<!-- Node489596 -->
<g id="node19" class="node">
<title>Node489596</title>
<g id="a_node19"><a xlink:href="quickjs_8h.html#a149f24b67e745bad93573b3b4c80db4c" target="_top" xlink:title="JS_IsNull">
<polygon fill="none" stroke="#000000" points="924.5,-544.5 924.5,-563.5 983.5,-563.5 983.5,-544.5 924.5,-544.5"/>
<text text-anchor="middle" x="954" y="-551.5" font-family="Helvetica,sans-Serif" font-size="10.00" fill="#000000">JS_IsNull</text>
</a>
</g>
</g>
<!-- Node489826&#45;&gt;Node489596 -->
<g id="edge29" class="edge">
<title>Node489826&#45;&gt;Node489596</title>
<path fill="none" stroke="#191970" d="M781.9751,-411.5072C792.789,-436.1423 825.2347,-502.3925 874,-535 885.8204,-542.9039 900.554,-547.5335 914.1443,-550.2403"/>
<polygon fill="#191970" stroke="#191970" points="913.8015,-553.7322 924.2467,-551.9578 914.9748,-546.8312 913.8015,-553.7322"/>
</g>
<!-- Node489627 -->
<g id="node20" class="node">
<title>Node489627</title>
<g id="a_node20"><a xlink:href="quickjs_8c.html#a726b00d108e0a0f4d958c36c2e426a64" target="_top" xlink:title="JS_ThrowTypeErrorNotAnObject">
<polygon fill="none" stroke="#000000" points="874,-506.5 874,-525.5 1034,-525.5 1034,-506.5 874,-506.5"/>
<text text-anchor="middle" x="954" y="-513.5" font-family="Helvetica,sans-Serif" font-size="10.00" fill="#000000">JS_ThrowTypeErrorNotAnObject</text>
</a>
</g>
</g>
<!-- Node489826&#45;&gt;Node489627 -->
<g id="edge32" class="edge">
<title>Node489826&#45;&gt;Node489627</title>
<path fill="none" stroke="#191970" d="M784.7263,-411.5341C798.8904,-430.8588 833.8162,-474.6982 874,-497 878.1502,-499.3033 882.5719,-501.3289 887.1245,-503.1099"/>
<polygon fill="#191970" stroke="#191970" points="886.0134,-506.4292 896.6082,-506.433 888.3282,-499.823 886.0134,-506.4292"/>
</g>
<!-- Node489827&#45;&gt;Node489393 -->
<g id="edge35" class="edge">
<title>Node489827&#45;&gt;Node489393</title>
<path fill="none" stroke="#191970" d="M300.0064,-88.74C319.9714,-84.8963 344.0876,-80.8955 366,-79 427.9907,-73.6376 444.4298,-70.0156 506,-79 658.3625,-101.233 693.8502,-123.8755 838,-178 868.6521,-189.5091 902.5977,-205.4062 925.8044,-216.7818"/>
<polygon fill="#191970" stroke="#191970" points="924.5363,-220.0593 935.0517,-221.3543 927.639,-213.7845 924.5363,-220.0593"/>
</g>
<!-- Node489424 -->
<g id="node23" class="node">
<title>Node489424</title>
<g id="a_node23"><a xlink:href="list_8h.html#a3a5d0733570b2fafc18f4c71a2968ea5" target="_top" xlink:title="list_add_tail">
<polygon fill="none" stroke="#ff0000" points="402,-88.5 402,-107.5 470,-107.5 470,-88.5 402,-88.5"/>
<text text-anchor="middle" x="436" y="-95.5" font-family="Helvetica,sans-Serif" font-size="10.00" fill="#000000">list_add_tail</text>
</a>
</g>
</g>
<!-- Node489827&#45;&gt;Node489424 -->
<g id="edge36" class="edge">
<title>Node489827&#45;&gt;Node489424</title>
<path fill="none" stroke="#191970" d="M300.3309,-98C327.9467,-98 363.6383,-98 391.4815,-98"/>
<polygon fill="#191970" stroke="#191970" points="391.7352,-101.5001 401.7352,-98 391.7351,-94.5001 391.7352,-101.5001"/>
</g>
</g>
</svg>
