<?xml version="1.0" encoding="UTF-8" standalone="no"?>
<!DOCTYPE svg PUBLIC "-//W3C//DTD SVG 1.1//EN"
 "http://www.w3.org/Graphics/SVG/1.1/DTD/svg11.dtd">
<!-- Generated by graphviz version 2.40.1 (20161225.0304)
 -->
<!-- Title: bc_put_atom Pages: 1 -->
<!--zoomable 123 -->
<svg id="main" version="1.1" xmlns="http://www.w3.org/2000/svg" xmlns:xlink="http://www.w3.org/1999/xlink" xml:space="preserve" onload="init(evt)">
<style type="text/css"><![CDATA[
.edge:hover path { stroke: red; }
.edge:hover polygon { stroke: red; fill: red; }
]]></style>
<script type="text/javascript"><![CDATA[
var edges = document.getElementsByTagName('g');
if (edges && edges.length) {
  for (var i=0;i<edges.length;i++) {
    if (edges[i].id.substr(0,4)=='edge') {
      edges[i].setAttribute('class','edge');
    }
  }
}
]]></script>
        <defs>
                <circle id="rim" cx="0" cy="0" r="7"/>
                <circle id="rim2" cx="0" cy="0" r="3.5"/>
                <g id="zoomPlus">
                        <use xlink:href="#rim" fill="#404040">
                                <set attributeName="fill" to="#808080" begin="zoomplus.mouseover" end="zoomplus.mouseout"/>
                        </use>
                        <path d="M-4,0h8M0,-4v8" fill="none" stroke="white" stroke-width="1.5" pointer-events="none"/>
                </g>
                <g id="zoomMin">
                        <use xlink:href="#rim" fill="#404040">
                                <set attributeName="fill" to="#808080" begin="zoomminus.mouseover" end="zoomminus.mouseout"/>
                        </use>
                        <path d="M-4,0h8" fill="none" stroke="white" stroke-width="1.5" pointer-events="none"/>
                </g>
                <g id="dirArrow">
                        <path fill="none" stroke="white" stroke-width="1.5" d="M0,-3.0v7 M-2.5,-0.5L0,-3.0L2.5,-0.5"/>
                </g>
               <g id="resetDef">
                       <use xlink:href="#rim2" fill="#404040">
                               <set attributeName="fill" to="#808080" begin="reset.mouseover" end="reset.mouseout"/>
                       </use>
               </g>
        </defs>

<script type="text/javascript">
var viewWidth = 501;
var viewHeight = 123;
var sectionId = 'dynsection-1287';
</script>
<script xlink:href="svgpan.js"/>
<svg id="graph" class="graph">
<g id="viewport">
<title>bc_put_atom</title>
<!-- Node360500 -->
<g id="node1" class="node">
<title>Node360500</title>
<polygon fill="#bfbfbf" stroke="#000000" points="0,-57.5 0,-76.5 73,-76.5 73,-57.5 0,-57.5"/>
<text text-anchor="middle" x="36.5" y="-64.5" font-family="Helvetica,sans-Serif" font-size="10.00" fill="#000000">bc_put_atom</text>
</g>
<!-- Node360501 -->
<g id="node2" class="node">
<title>Node360501</title>
<g id="a_node2"><a xlink:href="quickjs_8c.html#a288254c06a39c9fca740a7abdad2834e" target="_top" xlink:title="__JS_AtomIsTaggedInt">
<polygon fill="none" stroke="#000000" points="253,-95.5 253,-114.5 372,-114.5 372,-95.5 253,-95.5"/>
<text text-anchor="middle" x="312.5" y="-102.5" font-family="Helvetica,sans-Serif" font-size="10.00" fill="#000000">__JS_AtomIsTaggedInt</text>
</a>
</g>
</g>
<!-- Node360500&#45;&gt;Node360501 -->
<g id="edge1" class="edge">
<title>Node360500&#45;&gt;Node360501</title>
<path fill="none" stroke="#191970" d="M49.8638,-76.5556C63.8359,-85.9109 86.7837,-99.5307 109,-105 152.5506,-115.7215 202.9513,-115.8096 242.6986,-113.1737"/>
<polygon fill="#191970" stroke="#191970" points="243.1085,-116.6531 252.8247,-112.4287 242.5948,-109.672 243.1085,-116.6531"/>
</g>
<!-- Node360502 -->
<g id="node3" class="node">
<title>Node360502</title>
<g id="a_node3"><a xlink:href="quickjs_8c.html#a89f38938cee8077ce1fbba07946ed185" target="_top" xlink:title="__JS_AtomToUInt32">
<polygon fill="none" stroke="#000000" points="109,-76.5 109,-95.5 217,-95.5 217,-76.5 109,-76.5"/>
<text text-anchor="middle" x="163" y="-83.5" font-family="Helvetica,sans-Serif" font-size="10.00" fill="#000000">__JS_AtomToUInt32</text>
</a>
</g>
</g>
<!-- Node360500&#45;&gt;Node360502 -->
<g id="edge2" class="edge">
<title>Node360500&#45;&gt;Node360502</title>
<path fill="none" stroke="#191970" d="M73.089,-72.4956C81.1476,-73.706 89.9129,-75.0225 98.7051,-76.3431"/>
<polygon fill="#191970" stroke="#191970" points="98.198,-79.8061 108.607,-77.8303 99.2378,-72.8837 98.198,-79.8061"/>
</g>
<!-- Node360503 -->
<g id="node4" class="node">
<title>Node360503</title>
<g id="a_node4"><a xlink:href="quickjs_8c.html#abe9790a1548fcb007a2c864356f71ef5" target="_top" xlink:title="bc_atom_to_idx">
<polygon fill="none" stroke="#000000" points="120,-38.5 120,-57.5 206,-57.5 206,-38.5 120,-38.5"/>
<text text-anchor="middle" x="163" y="-45.5" font-family="Helvetica,sans-Serif" font-size="10.00" fill="#000000">bc_atom_to_idx</text>
</a>
</g>
</g>
<!-- Node360500&#45;&gt;Node360503 -->
<g id="edge3" class="edge">
<title>Node360500&#45;&gt;Node360503</title>
<path fill="none" stroke="#191970" d="M73.089,-61.5044C84.4905,-59.7919 97.3067,-57.867 109.6122,-56.0187"/>
<polygon fill="#191970" stroke="#191970" points="110.4174,-59.4371 119.7865,-54.4906 109.3776,-52.5148 110.4174,-59.4371"/>
</g>
<!-- Node360512 -->
<g id="node7" class="node">
<title>Node360512</title>
<g id="a_node7"><a xlink:href="quickjs_8c.html#a5c417bcd8453a3ab8f4ced37e8f86bf2" target="_top" xlink:title="bc_put_leb128">
<polygon fill="none" stroke="#000000" points="123,-.5 123,-19.5 203,-19.5 203,-.5 123,-.5"/>
<text text-anchor="middle" x="163" y="-7.5" font-family="Helvetica,sans-Serif" font-size="10.00" fill="#000000">bc_put_leb128</text>
</a>
</g>
</g>
<!-- Node360500&#45;&gt;Node360512 -->
<g id="edge7" class="edge">
<title>Node360500&#45;&gt;Node360512</title>
<path fill="none" stroke="#191970" d="M53.1548,-57.3883C67.6362,-49.2462 89.3246,-37.5643 109,-29 113.72,-26.9455 118.7407,-24.9445 123.7471,-23.0595"/>
<polygon fill="#191970" stroke="#191970" points="125.0731,-26.3016 133.2743,-19.5941 122.6802,-19.7233 125.0731,-26.3016"/>
</g>
<!-- Node360503&#45;&gt;Node360501 -->
<g id="edge4" class="edge">
<title>Node360503&#45;&gt;Node360501</title>
<path fill="none" stroke="#191970" d="M190.8265,-57.5496C199.2597,-60.5086 208.5311,-63.8267 217,-67 237.9628,-74.8549 261.3142,-84.1369 279.679,-91.5609"/>
<polygon fill="#191970" stroke="#191970" points="278.4725,-94.8484 289.0547,-95.3646 281.1041,-88.3619 278.4725,-94.8484"/>
</g>
<!-- Node360504 -->
<g id="node5" class="node">
<title>Node360504</title>
<g id="a_node5"><a xlink:href="quickjs_8c.html#afa610f3175e9cb11fdceac95071099b5" target="_top" xlink:title="js_resize_array">
<polygon fill="none" stroke="#000000" points="271,-38.5 271,-57.5 354,-57.5 354,-38.5 271,-38.5"/>
<text text-anchor="middle" x="312.5" y="-45.5" font-family="Helvetica,sans-Serif" font-size="10.00" fill="#000000">js_resize_array</text>
</a>
</g>
</g>
<!-- Node360503&#45;&gt;Node360504 -->
<g id="edge5" class="edge">
<title>Node360503&#45;&gt;Node360504</title>
<path fill="none" stroke="#191970" d="M206.2416,-48C223.2544,-48 242.9326,-48 260.6962,-48"/>
<polygon fill="#191970" stroke="#191970" points="260.8994,-51.5001 270.8994,-48 260.8993,-44.5001 260.8994,-51.5001"/>
</g>
<!-- Node360505 -->
<g id="node6" class="node">
<title>Node360505</title>
<g id="a_node6"><a xlink:href="quickjs_8c.html#a0eda61158c0a22ef337abc3a035bca33" target="_top" xlink:title="js_realloc_array">
<polygon fill="none" stroke="#ff0000" points="408,-38.5 408,-57.5 493,-57.5 493,-38.5 408,-38.5"/>
<text text-anchor="middle" x="450.5" y="-45.5" font-family="Helvetica,sans-Serif" font-size="10.00" fill="#000000">js_realloc_array</text>
</a>
</g>
</g>
<!-- Node360504&#45;&gt;Node360505 -->
<g id="edge6" class="edge">
<title>Node360504&#45;&gt;Node360505</title>
<path fill="none" stroke="#191970" d="M354.279,-48C367.9399,-48 383.2961,-48 397.662,-48"/>
<polygon fill="#191970" stroke="#191970" points="397.9091,-51.5001 407.9091,-48 397.9091,-44.5001 397.9091,-51.5001"/>
</g>
<!-- Node360513 -->
<g id="node8" class="node">
<title>Node360513</title>
<g id="a_node8"><a xlink:href="quickjs_8c.html#af9b9e3f8ca5a82349d1925fca4683c38" target="_top" xlink:title="dbuf_put_leb128">
<polygon fill="none" stroke="#000000" points="268.5,-.5 268.5,-19.5 356.5,-19.5 356.5,-.5 268.5,-.5"/>
<text text-anchor="middle" x="312.5" y="-7.5" font-family="Helvetica,sans-Serif" font-size="10.00" fill="#000000">dbuf_put_leb128</text>
</a>
</g>
</g>
<!-- Node360512&#45;&gt;Node360513 -->
<g id="edge8" class="edge">
<title>Node360512&#45;&gt;Node360513</title>
<path fill="none" stroke="#191970" d="M203.0633,-10C219.9882,-10 239.9617,-10 258.1811,-10"/>
<polygon fill="#191970" stroke="#191970" points="258.3796,-13.5001 268.3796,-10 258.3796,-6.5001 258.3796,-13.5001"/>
</g>
<!-- Node360514 -->
<g id="node9" class="node">
<title>Node360514</title>
<g id="a_node9"><a xlink:href="cutils_8h.html#aeed81d4787ccdbd55baa9b5fd6717e88" target="_top" xlink:title="dbuf_putc">
<polygon fill="none" stroke="#ff0000" points="421,-.5 421,-19.5 480,-19.5 480,-.5 421,-.5"/>
<text text-anchor="middle" x="450.5" y="-7.5" font-family="Helvetica,sans-Serif" font-size="10.00" fill="#000000">dbuf_putc</text>
</a>
</g>
</g>
<!-- Node360513&#45;&gt;Node360514 -->
<g id="edge9" class="edge">
<title>Node360513&#45;&gt;Node360514</title>
<path fill="none" stroke="#191970" d="M356.5435,-10C373.9193,-10 393.7354,-10 410.6756,-10"/>
<polygon fill="#191970" stroke="#191970" points="410.8042,-13.5001 420.8042,-10 410.8041,-6.5001 410.8042,-13.5001"/>
</g>
</g>
</svg>
        <g id="navigator" transform="translate(0 0)" fill="#404254">
                <rect fill="#f2f5e9" fill-opacity="0.5" stroke="#606060" stroke-width=".5" x="0" y="0" width="60" height="60"/>
                <use id="zoomplus" xlink:href="#zoomPlus" x="17" y="9" onmousedown="handleZoom(evt,'in')"/>
                <use id="zoomminus" xlink:href="#zoomMin" x="42" y="9" onmousedown="handleZoom(evt,'out')"/>
                <use id="reset" xlink:href="#resetDef" x="30" y="36" onmousedown="handleReset()"/>
                <g id="arrowUp" xlink:href="#dirArrow" transform="translate(30 24)" onmousedown="handlePan(0,-1)">
                  <use xlink:href="#rim" fill="#404040">
                        <set attributeName="fill" to="#808080" begin="arrowUp.mouseover" end="arrowUp.mouseout"/>
                  </use>
                  <path fill="none" stroke="white" stroke-width="1.5" d="M0,-3.0v7 M-2.5,-0.5L0,-3.0L2.5,-0.5"/>
                </g>
                <g id="arrowRight" xlink:href="#dirArrow" transform="rotate(90) translate(36 -43)" onmousedown="handlePan(1,0)">
                  <use xlink:href="#rim" fill="#404040">
                        <set attributeName="fill" to="#808080" begin="arrowRight.mouseover" end="arrowRight.mouseout"/>
                  </use>
                  <path fill="none" stroke="white" stroke-width="1.5" d="M0,-3.0v7 M-2.5,-0.5L0,-3.0L2.5,-0.5"/>
                </g>
                <g id="arrowDown" xlink:href="#dirArrow" transform="rotate(180) translate(-30 -48)" onmousedown="handlePan(0,1)">
                  <use xlink:href="#rim" fill="#404040">
                        <set attributeName="fill" to="#808080" begin="arrowDown.mouseover" end="arrowDown.mouseout"/>
                  </use>
                  <path fill="none" stroke="white" stroke-width="1.5" d="M0,-3.0v7 M-2.5,-0.5L0,-3.0L2.5,-0.5"/>
                </g>
                <g id="arrowLeft" xlink:href="#dirArrow" transform="rotate(270) translate(-36 17)" onmousedown="handlePan(-1,0)">
                  <use xlink:href="#rim" fill="#404040">
                        <set attributeName="fill" to="#808080" begin="arrowLeft.mouseover" end="arrowLeft.mouseout"/>
                  </use>
                  <path fill="none" stroke="white" stroke-width="1.5" d="M0,-3.0v7 M-2.5,-0.5L0,-3.0L2.5,-0.5"/>
                </g>
        </g>
        <svg viewBox="0 0 15 15" width="100%" height="30px" preserveAspectRatio="xMaxYMin meet">
         <g id="arrow_out" transform="scale(0.3 0.3)">
          <a xlink:href="quickjs_8c_a55f34a1bb7e361c23cb8139c100a615f_cgraph_org.svg" target="_base">
           <rect id="button" ry="5" rx="5" y="6" x="6" height="38" width="38"
                fill="#f2f5e9" fill-opacity="0.5" stroke="#606060" stroke-width="1.0"/>
           <path id="arrow"
             d="M 11.500037,31.436501 C 11.940474,20.09759 22.043105,11.32322 32.158766,21.979434 L 37.068811,17.246167 C 37.068811,17.246167 37.088388,32 37.088388,32 L 22.160133,31.978069 C 22.160133,31.978069 26.997745,27.140456 26.997745,27.140456 C 18.528582,18.264221 13.291696,25.230495 11.500037,31.436501 z"
             style="fill:#404040;"/>
          </a>
         </g>
        </svg>
</svg>
