<?xml version="1.0" encoding="UTF-8" standalone="no"?>
<!DOCTYPE svg PUBLIC "-//W3C//DTD SVG 1.1//EN"
 "http://www.w3.org/Graphics/SVG/1.1/DTD/svg11.dtd">
<!-- Generated by graphviz version 2.40.1 (20161225.0304)
 -->
<!-- Title: js_parse_seek_token Pages: 1 -->
<!--zoomable 379 -->
<svg id="main" version="1.1" xmlns="http://www.w3.org/2000/svg" xmlns:xlink="http://www.w3.org/1999/xlink" xml:space="preserve" onload="init(evt)">
<style type="text/css"><![CDATA[
.edge:hover path { stroke: red; }
.edge:hover polygon { stroke: red; fill: red; }
]]></style>
<script type="text/javascript"><![CDATA[
var edges = document.getElementsByTagName('g');
if (edges && edges.length) {
  for (var i=0;i<edges.length;i++) {
    if (edges[i].id.substr(0,4)=='edge') {
      edges[i].setAttribute('class','edge');
    }
  }
}
]]></script>
        <defs>
                <circle id="rim" cx="0" cy="0" r="7"/>
                <circle id="rim2" cx="0" cy="0" r="3.5"/>
                <g id="zoomPlus">
                        <use xlink:href="#rim" fill="#404040">
                                <set attributeName="fill" to="#808080" begin="zoomplus.mouseover" end="zoomplus.mouseout"/>
                        </use>
                        <path d="M-4,0h8M0,-4v8" fill="none" stroke="white" stroke-width="1.5" pointer-events="none"/>
                </g>
                <g id="zoomMin">
                        <use xlink:href="#rim" fill="#404040">
                                <set attributeName="fill" to="#808080" begin="zoomminus.mouseover" end="zoomminus.mouseout"/>
                        </use>
                        <path d="M-4,0h8" fill="none" stroke="white" stroke-width="1.5" pointer-events="none"/>
                </g>
                <g id="dirArrow">
                        <path fill="none" stroke="white" stroke-width="1.5" d="M0,-3.0v7 M-2.5,-0.5L0,-3.0L2.5,-0.5"/>
                </g>
               <g id="resetDef">
                       <use xlink:href="#rim2" fill="#404040">
                               <set attributeName="fill" to="#808080" begin="reset.mouseover" end="reset.mouseout"/>
                       </use>
               </g>
        </defs>

<script type="text/javascript">
var viewWidth = 747;
var viewHeight = 379;
var sectionId = 'dynsection-1016';
</script>
<script xlink:href="svgpan.js"/>
<svg id="graph" class="graph">
<g id="viewport">
<title>js_parse_seek_token</title>
<!-- Node318398 -->
<g id="node1" class="node">
<title>Node318398</title>
<polygon fill="#bfbfbf" stroke="#000000" points="0,-227.5 0,-246.5 109,-246.5 109,-227.5 0,-227.5"/>
<text text-anchor="middle" x="54.5" y="-234.5" font-family="Helvetica,sans-Serif" font-size="10.00" fill="#000000">js_parse_seek_token</text>
</g>
<!-- Node318399 -->
<g id="node2" class="node">
<title>Node318399</title>
<g id="a_node2"><a xlink:href="quickjs_8c.html#a08f5927b79691c477c726fc5d309cfef" target="_top" xlink:title="is_let">
<polygon fill="none" stroke="#000000" points="329.5,-.5 329.5,-19.5 369.5,-19.5 369.5,-.5 329.5,-.5"/>
<text text-anchor="middle" x="349.5" y="-7.5" font-family="Helvetica,sans-Serif" font-size="10.00" fill="#000000">is_let</text>
</a>
</g>
</g>
<!-- Node318398&#45;&gt;Node318399 -->
<g id="edge1" class="edge">
<title>Node318398&#45;&gt;Node318399</title>
<path fill="none" stroke="#191970" d="M69.9283,-219.5777C87.3669,-200.2684 116.985,-168.6066 145,-144 206.3088,-90.1502 221.1418,-74.4682 292,-34 303.8356,-27.2405 317.9498,-21.3209 329.2325,-17.0519"/>
<polygon fill="#191970" stroke="#191970" points="67.0976,-217.4921 63.0313,-227.2756 72.3111,-222.1633 67.0976,-217.4921"/>
</g>
<!-- Node318427 -->
<g id="node5" class="node">
<title>Node318427</title>
<g id="a_node5"><a xlink:href="quickjs_8c.html#adf95ddf430ef93fd9efea1cc2f8a2fbe" target="_top" xlink:title="js_parse_class_default_ctor">
<polygon fill="none" stroke="#ff0000" points="601,-320.5 601,-339.5 739,-339.5 739,-320.5 601,-320.5"/>
<text text-anchor="middle" x="670" y="-327.5" font-family="Helvetica,sans-Serif" font-size="10.00" fill="#000000">js_parse_class_default_ctor</text>
</a>
</g>
</g>
<!-- Node318398&#45;&gt;Node318427 -->
<g id="edge6" class="edge">
<title>Node318398&#45;&gt;Node318427</title>
<path fill="none" stroke="#191970" d="M66.903,-254.7997C82.4898,-275.5883 111.3185,-309.1473 145,-325 312.4177,-403.7976 544.4411,-360.7711 633.3374,-339.5781"/>
<polygon fill="#191970" stroke="#191970" points="69.5892,-252.5423 60.8804,-246.5084 63.9256,-256.6562 69.5892,-252.5423"/>
</g>
<!-- Node318436 -->
<g id="node6" class="node">
<title>Node318436</title>
<g id="a_node6"><a xlink:href="quickjs_8c.html#a64f81788f15df1683a1f8c3919cfd6fd" target="_top" xlink:title="js_parse_directives">
<polygon fill="none" stroke="#000000" points="150,-296.5 150,-315.5 251,-315.5 251,-296.5 150,-296.5"/>
<text text-anchor="middle" x="200.5" y="-303.5" font-family="Helvetica,sans-Serif" font-size="10.00" fill="#000000">js_parse_directives</text>
</a>
</g>
</g>
<!-- Node318398&#45;&gt;Node318436 -->
<g id="edge7" class="edge">
<title>Node318398&#45;&gt;Node318436</title>
<path fill="none" stroke="#191970" d="M83.9336,-250.9104C112.5975,-264.457 155.3927,-284.6821 180.3717,-296.4873"/>
<polygon fill="#191970" stroke="#191970" points="85.3374,-247.7027 74.8007,-246.5942 82.3463,-254.0315 85.3374,-247.7027"/>
</g>
<!-- Node318437 -->
<g id="node9" class="node">
<title>Node318437</title>
<g id="a_node9"><a xlink:href="quickjs_8c.html#ac00298085baf11a4a7bd600cf5de2e6d" target="_top" xlink:title="js_parse_skip_parens\l_token">
<polygon fill="none" stroke="#000000" points="145,-153 145,-183 256,-183 256,-153 145,-153"/>
<text text-anchor="start" x="153" y="-171" font-family="Helvetica,sans-Serif" font-size="10.00" fill="#000000">js_parse_skip_parens</text>
<text text-anchor="middle" x="200.5" y="-160" font-family="Helvetica,sans-Serif" font-size="10.00" fill="#000000">_token</text>
</a>
</g>
</g>
<!-- Node318398&#45;&gt;Node318437 -->
<g id="edge11" class="edge">
<title>Node318398&#45;&gt;Node318437</title>
<path fill="none" stroke="#191970" d="M83.9798,-223.0678C108.5188,-211.4705 143.3912,-194.9898 168.5837,-183.0837"/>
<polygon fill="#191970" stroke="#191970" points="82.3463,-219.9685 74.8007,-227.4058 85.3374,-226.2973 82.3463,-219.9685"/>
</g>
<!-- Node318400 -->
<g id="node3" class="node">
<title>Node318400</title>
<g id="a_node3"><a xlink:href="quickjs_8c.html#ac188b916dd086803591a67de7e7a85f6" target="_top" xlink:title="js_parse_for_in_of">
<polygon fill="none" stroke="#000000" points="456,-76.5 456,-95.5 552,-95.5 552,-76.5 456,-76.5"/>
<text text-anchor="middle" x="504" y="-83.5" font-family="Helvetica,sans-Serif" font-size="10.00" fill="#000000">js_parse_for_in_of</text>
</a>
</g>
</g>
<!-- Node318399&#45;&gt;Node318400 -->
<g id="edge2" class="edge">
<title>Node318399&#45;&gt;Node318400</title>
<path fill="none" stroke="#191970" d="M378.08,-24.0588C409.0868,-39.3113 457.7445,-63.2465 484.5913,-76.4527"/>
<polygon fill="#191970" stroke="#191970" points="379.5856,-20.8989 369.0675,-19.6255 376.4958,-27.1801 379.5856,-20.8989"/>
</g>
<!-- Node318401 -->
<g id="node4" class="node">
<title>Node318401</title>
<g id="a_node4"><a xlink:href="quickjs_8c.html#a9d844c16dcc71701436848074337d32c" target="_top" xlink:title="js_parse_statement\l_or_decl">
<polygon fill="none" stroke="#ff0000" points="619,-71 619,-101 721,-101 721,-71 619,-71"/>
<text text-anchor="start" x="627" y="-89" font-family="Helvetica,sans-Serif" font-size="10.00" fill="#000000">js_parse_statement</text>
<text text-anchor="middle" x="670" y="-78" font-family="Helvetica,sans-Serif" font-size="10.00" fill="#000000">_or_decl</text>
</a>
</g>
</g>
<!-- Node318399&#45;&gt;Node318401 -->
<g id="edge5" class="edge">
<title>Node318399&#45;&gt;Node318401</title>
<path fill="none" stroke="#191970" d="M379.7439,-10.0793C422.0376,-10.9238 500.8671,-15.1848 565,-34 594.084,-42.5326 624.8822,-58.7483 645.5467,-70.8129"/>
<polygon fill="#191970" stroke="#191970" points="379.614,-6.5771 369.5634,-9.929 379.5107,-13.5763 379.614,-6.5771"/>
</g>
<!-- Node318400&#45;&gt;Node318401 -->
<g id="edge3" class="edge">
<title>Node318400&#45;&gt;Node318401</title>
<path fill="none" stroke="#191970" d="M562.0844,-86C580.5963,-86 600.9307,-86 618.909,-86"/>
<polygon fill="#191970" stroke="#191970" points="562.0141,-82.5001 552.0141,-86 562.014,-89.5001 562.0141,-82.5001"/>
</g>
<!-- Node318401&#45;&gt;Node318401 -->
<g id="edge4" class="edge">
<title>Node318401&#45;&gt;Node318401</title>
<path fill="none" stroke="#191970" d="M640.5038,-111.4579C644.1647,-116.179 653.9968,-119.5 670,-119.5 696.2617,-119.5 705.9047,-110.5566 698.9289,-101.159"/>
<polygon fill="#191970" stroke="#191970" points="644.0157,-111.3364 641.0711,-101.159 637.0263,-110.9513 644.0157,-111.3364"/>
</g>
<!-- Node318405 -->
<g id="node7" class="node">
<title>Node318405</title>
<g id="a_node7"><a xlink:href="quickjs_8c.html#acc9eb677cab8dfcf45f59381f8a19601" target="_top" xlink:title="js_parse_function_decl2">
<polygon fill="none" stroke="#ff0000" points="443,-269.5 443,-288.5 565,-288.5 565,-269.5 443,-269.5"/>
<text text-anchor="middle" x="504" y="-276.5" font-family="Helvetica,sans-Serif" font-size="10.00" fill="#000000">js_parse_function_decl2</text>
</a>
</g>
</g>
<!-- Node318436&#45;&gt;Node318405 -->
<g id="edge8" class="edge">
<title>Node318436&#45;&gt;Node318405</title>
<path fill="none" stroke="#191970" d="M244.4802,-317.8865C286.6402,-327.4479 351.8386,-337.4168 407,-325 438.0929,-318.001 470.9273,-299.8279 489.3036,-288.5313"/>
<polygon fill="#191970" stroke="#191970" points="245.0764,-314.4312 234.54,-315.5425 243.4698,-321.2443 245.0764,-314.4312"/>
</g>
<!-- Node318429 -->
<g id="node8" class="node">
<title>Node318429</title>
<g id="a_node8"><a xlink:href="quickjs_8c.html#aec05caae64451720670d1a56040110b3" target="_top" xlink:title="js_parse_program">
<polygon fill="none" stroke="#ff0000" points="302.5,-296.5 302.5,-315.5 396.5,-315.5 396.5,-296.5 302.5,-296.5"/>
<text text-anchor="middle" x="349.5" y="-303.5" font-family="Helvetica,sans-Serif" font-size="10.00" fill="#000000">js_parse_program</text>
</a>
</g>
</g>
<!-- Node318436&#45;&gt;Node318429 -->
<g id="edge10" class="edge">
<title>Node318436&#45;&gt;Node318429</title>
<path fill="none" stroke="#191970" d="M261.6126,-306C275.2172,-306 289.4375,-306 302.3778,-306"/>
<polygon fill="#191970" stroke="#191970" points="261.3606,-302.5001 251.3606,-306 261.3606,-309.5001 261.3606,-302.5001"/>
</g>
<!-- Node318405&#45;&gt;Node318427 -->
<g id="edge9" class="edge">
<title>Node318405&#45;&gt;Node318427</title>
<path fill="none" stroke="#191970" d="M545.0699,-291.6178C574.0995,-300.5366 612.4101,-312.3067 638.9167,-320.4503"/>
<polygon fill="#191970" stroke="#191970" points="545.8103,-288.1839 535.2233,-288.5927 543.7545,-294.8753 545.8103,-288.1839"/>
</g>
<!-- Node318437&#45;&gt;Node318400 -->
<g id="edge23" class="edge">
<title>Node318437&#45;&gt;Node318400</title>
<path fill="none" stroke="#191970" d="M237.0095,-148.1967C253.4235,-139.9927 273.2798,-131.0094 292,-125 346.8736,-107.3848 412.4454,-96.8497 455.9867,-91.2509"/>
<polygon fill="#191970" stroke="#191970" points="235.0933,-145.2451 227.7776,-152.9086 238.2756,-151.4799 235.0933,-145.2451"/>
</g>
<!-- Node318437&#45;&gt;Node318401 -->
<g id="edge24" class="edge">
<title>Node318437&#45;&gt;Node318401</title>
<path fill="none" stroke="#191970" d="M221.7463,-145.5094C239.0339,-128.6243 264.9265,-106.3671 292,-94 399.7682,-44.7716 543.4835,-60.9858 618.8795,-74.8316"/>
<polygon fill="#191970" stroke="#191970" points="219.0224,-143.2841 214.4356,-152.8347 223.977,-148.229 219.0224,-143.2841"/>
</g>
<!-- Node318437&#45;&gt;Node318405 -->
<g id="edge25" class="edge">
<title>Node318437&#45;&gt;Node318405</title>
<path fill="none" stroke="#191970" d="M226.2134,-189.6803C243.7298,-203.4092 268.0123,-220.4936 292,-231 340.3937,-252.196 399.2601,-264.5643 442.6715,-271.4211"/>
<polygon fill="#191970" stroke="#191970" points="228.1823,-186.773 218.189,-183.2537 223.8065,-192.2368 228.1823,-186.773"/>
</g>
<!-- Node318409 -->
<g id="node10" class="node">
<title>Node318409</title>
<g id="a_node10"><a xlink:href="quickjs_8c.html#a26be546cf89c4580ba9020e8fc43a759" target="_top" xlink:title="js_parse_destructuring\l_element">
<polygon fill="none" stroke="#000000" points="292,-153 292,-183 407,-183 407,-153 292,-153"/>
<text text-anchor="start" x="300" y="-171" font-family="Helvetica,sans-Serif" font-size="10.00" fill="#000000">js_parse_destructuring</text>
<text text-anchor="middle" x="349.5" y="-160" font-family="Helvetica,sans-Serif" font-size="10.00" fill="#000000">_element</text>
</a>
</g>
</g>
<!-- Node318437&#45;&gt;Node318409 -->
<g id="edge12" class="edge">
<title>Node318437&#45;&gt;Node318409</title>
<path fill="none" stroke="#191970" d="M266.562,-168C274.9712,-168 283.5257,-168 291.7894,-168"/>
<polygon fill="#191970" stroke="#191970" points="266.4061,-164.5001 256.406,-168 266.406,-171.5001 266.4061,-164.5001"/>
</g>
<!-- Node318407 -->
<g id="node11" class="node">
<title>Node318407</title>
<g id="a_node11"><a xlink:href="quickjs_8c.html#a840642c87c5a82d4cc68333376a3b6de" target="_top" xlink:title="js_parse_postfix_expr">
<polygon fill="none" stroke="#ff0000" points="448,-209.5 448,-228.5 560,-228.5 560,-209.5 448,-209.5"/>
<text text-anchor="middle" x="504" y="-216.5" font-family="Helvetica,sans-Serif" font-size="10.00" fill="#000000">js_parse_postfix_expr</text>
</a>
</g>
</g>
<!-- Node318437&#45;&gt;Node318407 -->
<g id="edge21" class="edge">
<title>Node318437&#45;&gt;Node318407</title>
<path fill="none" stroke="#191970" d="M234.3636,-187.9102C251.1181,-196.7042 271.9974,-206.1365 292,-211 343.7151,-223.5743 404.5935,-224.5023 447.8138,-222.9252"/>
<polygon fill="#191970" stroke="#191970" points="235.9727,-184.8014 225.5116,-183.1233 232.643,-190.9588 235.9727,-184.8014"/>
</g>
<!-- Node318410 -->
<g id="node12" class="node">
<title>Node318410</title>
<g id="a_node12"><a xlink:href="quickjs_8c.html#a9660cf21845352b14655d423389d6620" target="_top" xlink:title="js_parse_var">
<polygon fill="none" stroke="#ff0000" points="468,-114.5 468,-133.5 540,-133.5 540,-114.5 468,-114.5"/>
<text text-anchor="middle" x="504" y="-121.5" font-family="Helvetica,sans-Serif" font-size="10.00" fill="#000000">js_parse_var</text>
</a>
</g>
</g>
<!-- Node318437&#45;&gt;Node318410 -->
<g id="edge22" class="edge">
<title>Node318437&#45;&gt;Node318410</title>
<path fill="none" stroke="#191970" d="M261.8436,-150.4494C271.8619,-148.0055 282.176,-145.7399 292,-144 353.1562,-133.1688 425.3456,-127.9403 467.7494,-125.6255"/>
<polygon fill="#191970" stroke="#191970" points="260.7955,-147.104 251.9528,-152.9399 262.5048,-153.8921 260.7955,-147.104"/>
</g>
<!-- Node318409&#45;&gt;Node318400 -->
<g id="edge18" class="edge">
<title>Node318409&#45;&gt;Node318400</title>
<path fill="none" stroke="#191970" d="M376.4836,-146.7204C394.5067,-133.3077 419.1906,-116.4261 443,-105 450.6001,-101.3527 459.0639,-98.1964 467.2087,-95.5611"/>
<polygon fill="#191970" stroke="#191970" points="374.0653,-144.1613 368.204,-152.9871 378.2899,-149.7428 374.0653,-144.1613"/>
</g>
<!-- Node318409&#45;&gt;Node318401 -->
<g id="edge19" class="edge">
<title>Node318409&#45;&gt;Node318401</title>
<path fill="none" stroke="#191970" d="M417.1115,-166.7389C460.2827,-164.3395 516.9616,-158.1985 565,-143 595.6525,-133.3021 627.679,-114.452 648.1786,-101.0876"/>
<polygon fill="#191970" stroke="#191970" points="416.8123,-163.2494 407.0004,-167.2465 417.1634,-170.2406 416.8123,-163.2494"/>
</g>
<!-- Node318409&#45;&gt;Node318405 -->
<g id="edge20" class="edge">
<title>Node318409&#45;&gt;Node318405</title>
<path fill="none" stroke="#191970" d="M369.0051,-190.87C386.6627,-210.3851 414.2439,-238.058 443,-256 451.7381,-261.452 461.9718,-265.9342 471.5337,-269.4472"/>
<polygon fill="#191970" stroke="#191970" points="371.5524,-188.4674 362.2946,-183.3152 366.3188,-193.1161 371.5524,-188.4674"/>
</g>
<!-- Node318409&#45;&gt;Node318409 -->
<g id="edge13" class="edge">
<title>Node318409&#45;&gt;Node318409</title>
<path fill="none" stroke="#191970" d="M323.2022,-193.4579C326.4661,-198.179 335.2321,-201.5 349.5,-201.5 372.9141,-201.5 381.5114,-192.5566 375.2921,-183.159"/>
<polygon fill="#191970" stroke="#191970" points="326.7132,-193.3187 323.7079,-183.159 319.7216,-192.9753 326.7132,-193.3187"/>
</g>
<!-- Node318409&#45;&gt;Node318407 -->
<g id="edge14" class="edge">
<title>Node318409&#45;&gt;Node318407</title>
<path fill="none" stroke="#191970" d="M404.6224,-186.1957C428.3373,-194.024 455.0909,-202.8552 474.8603,-209.3811"/>
<polygon fill="#191970" stroke="#191970" points="405.6126,-182.8369 395.0195,-183.0258 403.4183,-189.4841 405.6126,-182.8369"/>
</g>
<!-- Node318409&#45;&gt;Node318410 -->
<g id="edge16" class="edge">
<title>Node318409&#45;&gt;Node318410</title>
<path fill="none" stroke="#191970" d="M411.9126,-150.2255C431.8957,-144.5346 453.2551,-138.4516 470.3672,-133.5783"/>
<polygon fill="#191970" stroke="#191970" points="410.8969,-146.8755 402.238,-152.9808 412.8143,-153.6079 410.8969,-146.8755"/>
</g>
<!-- Node318407&#45;&gt;Node318407 -->
<g id="edge15" class="edge">
<title>Node318407&#45;&gt;Node318407</title>
<path fill="none" stroke="#191970" d="M475.2542,-237.6539C476.4558,-242.9368 486.0377,-247 504,-247 531.3711,-247 539.2831,-237.5653 527.7359,-228.7571"/>
<polygon fill="#191970" stroke="#191970" points="478.4072,-239.1879 480.2641,-228.7571 472.3077,-235.7532 478.4072,-239.1879"/>
</g>
<!-- Node318410&#45;&gt;Node318401 -->
<g id="edge17" class="edge">
<title>Node318410&#45;&gt;Node318401</title>
<path fill="none" stroke="#191970" d="M549.8588,-113.5022C571.2917,-108.5959 596.8874,-102.7366 618.9356,-97.6895"/>
<polygon fill="#191970" stroke="#191970" points="548.9864,-110.1113 540.0195,-115.7546 550.5484,-116.9348 548.9864,-110.1113"/>
</g>
</g>
</svg>
        <g id="navigator" transform="translate(0 0)" fill="#404254">
                <rect fill="#f2f5e9" fill-opacity="0.5" stroke="#606060" stroke-width=".5" x="0" y="0" width="60" height="60"/>
                <use id="zoomplus" xlink:href="#zoomPlus" x="17" y="9" onmousedown="handleZoom(evt,'in')"/>
                <use id="zoomminus" xlink:href="#zoomMin" x="42" y="9" onmousedown="handleZoom(evt,'out')"/>
                <use id="reset" xlink:href="#resetDef" x="30" y="36" onmousedown="handleReset()"/>
                <g id="arrowUp" xlink:href="#dirArrow" transform="translate(30 24)" onmousedown="handlePan(0,-1)">
                  <use xlink:href="#rim" fill="#404040">
                        <set attributeName="fill" to="#808080" begin="arrowUp.mouseover" end="arrowUp.mouseout"/>
                  </use>
                  <path fill="none" stroke="white" stroke-width="1.5" d="M0,-3.0v7 M-2.5,-0.5L0,-3.0L2.5,-0.5"/>
                </g>
                <g id="arrowRight" xlink:href="#dirArrow" transform="rotate(90) translate(36 -43)" onmousedown="handlePan(1,0)">
                  <use xlink:href="#rim" fill="#404040">
                        <set attributeName="fill" to="#808080" begin="arrowRight.mouseover" end="arrowRight.mouseout"/>
                  </use>
                  <path fill="none" stroke="white" stroke-width="1.5" d="M0,-3.0v7 M-2.5,-0.5L0,-3.0L2.5,-0.5"/>
                </g>
                <g id="arrowDown" xlink:href="#dirArrow" transform="rotate(180) translate(-30 -48)" onmousedown="handlePan(0,1)">
                  <use xlink:href="#rim" fill="#404040">
                        <set attributeName="fill" to="#808080" begin="arrowDown.mouseover" end="arrowDown.mouseout"/>
                  </use>
                  <path fill="none" stroke="white" stroke-width="1.5" d="M0,-3.0v7 M-2.5,-0.5L0,-3.0L2.5,-0.5"/>
                </g>
                <g id="arrowLeft" xlink:href="#dirArrow" transform="rotate(270) translate(-36 17)" onmousedown="handlePan(-1,0)">
                  <use xlink:href="#rim" fill="#404040">
                        <set attributeName="fill" to="#808080" begin="arrowLeft.mouseover" end="arrowLeft.mouseout"/>
                  </use>
                  <path fill="none" stroke="white" stroke-width="1.5" d="M0,-3.0v7 M-2.5,-0.5L0,-3.0L2.5,-0.5"/>
                </g>
        </g>
        <svg viewBox="0 0 15 15" width="100%" height="30px" preserveAspectRatio="xMaxYMin meet">
         <g id="arrow_out" transform="scale(0.3 0.3)">
          <a xlink:href="quickjs_8c_aba7eb7aae2eb61bfccb4565ee626cd18_icgraph_org.svg" target="_base">
           <rect id="button" ry="5" rx="5" y="6" x="6" height="38" width="38"
                fill="#f2f5e9" fill-opacity="0.5" stroke="#606060" stroke-width="1.0"/>
           <path id="arrow"
             d="M 11.500037,31.436501 C 11.940474,20.09759 22.043105,11.32322 32.158766,21.979434 L 37.068811,17.246167 C 37.068811,17.246167 37.088388,32 37.088388,32 L 22.160133,31.978069 C 22.160133,31.978069 26.997745,27.140456 26.997745,27.140456 C 18.528582,18.264221 13.291696,25.230495 11.500037,31.436501 z"
             style="fill:#404040;"/>
          </a>
         </g>
        </svg>
</svg>
