<?xml version="1.0" encoding="UTF-8" standalone="no"?>
<!DOCTYPE svg PUBLIC "-//W3C//DTD SVG 1.1//EN"
 "http://www.w3.org/Graphics/SVG/1.1/DTD/svg11.dtd">
<!-- Generated by graphviz version 2.40.1 (20161225.0304)
 -->
<!-- Title: JS_SetPrototypeInternal Pages: 1 -->
<!--zoomable 986 -->
<svg id="main" version="1.1" xmlns="http://www.w3.org/2000/svg" xmlns:xlink="http://www.w3.org/1999/xlink" xml:space="preserve" onload="init(evt)">
<style type="text/css"><![CDATA[
.edge:hover path { stroke: red; }
.edge:hover polygon { stroke: red; fill: red; }
]]></style>
<script type="text/javascript"><![CDATA[
var edges = document.getElementsByTagName('g');
if (edges && edges.length) {
  for (var i=0;i<edges.length;i++) {
    if (edges[i].id.substr(0,4)=='edge') {
      edges[i].setAttribute('class','edge');
    }
  }
}
]]></script>
        <defs>
                <circle id="rim" cx="0" cy="0" r="7"/>
                <circle id="rim2" cx="0" cy="0" r="3.5"/>
                <g id="zoomPlus">
                        <use xlink:href="#rim" fill="#404040">
                                <set attributeName="fill" to="#808080" begin="zoomplus.mouseover" end="zoomplus.mouseout"/>
                        </use>
                        <path d="M-4,0h8M0,-4v8" fill="none" stroke="white" stroke-width="1.5" pointer-events="none"/>
                </g>
                <g id="zoomMin">
                        <use xlink:href="#rim" fill="#404040">
                                <set attributeName="fill" to="#808080" begin="zoomminus.mouseover" end="zoomminus.mouseout"/>
                        </use>
                        <path d="M-4,0h8" fill="none" stroke="white" stroke-width="1.5" pointer-events="none"/>
                </g>
                <g id="dirArrow">
                        <path fill="none" stroke="white" stroke-width="1.5" d="M0,-3.0v7 M-2.5,-0.5L0,-3.0L2.5,-0.5"/>
                </g>
               <g id="resetDef">
                       <use xlink:href="#rim2" fill="#404040">
                               <set attributeName="fill" to="#808080" begin="reset.mouseover" end="reset.mouseout"/>
                       </use>
               </g>
        </defs>

<script type="text/javascript">
var viewWidth = 634;
var viewHeight = 986;
var sectionId = 'dynsection-530';
</script>
<script xlink:href="svgpan.js"/>
<svg id="graph" class="graph">
<g id="viewport">
<title>JS_SetPrototypeInternal</title>
<!-- Node175684 -->
<g id="node1" class="node">
<title>Node175684</title>
<polygon fill="#bfbfbf" stroke="#000000" points="0,-133.5 0,-152.5 123,-152.5 123,-133.5 0,-133.5"/>
<text text-anchor="middle" x="61.5" y="-140.5" font-family="Helvetica,sans-Serif" font-size="10.00" fill="#000000">JS_SetPrototypeInternal</text>
</g>
<!-- Node175685 -->
<g id="node2" class="node">
<title>Node175685</title>
<g id="a_node2"><a xlink:href="quickjs_8c.html#ac2894ff4edcdb4e6841bcce9c76081e3" target="_top" xlink:title="JS_CallInternal">
<polygon fill="none" stroke="#000000" points="181.5,-383.5 181.5,-402.5 264.5,-402.5 264.5,-383.5 181.5,-383.5"/>
<text text-anchor="middle" x="223" y="-390.5" font-family="Helvetica,sans-Serif" font-size="10.00" fill="#000000">JS_CallInternal</text>
</a>
</g>
</g>
<!-- Node175684&#45;&gt;Node175685 -->
<g id="edge1" class="edge">
<title>Node175684&#45;&gt;Node175685</title>
<path fill="none" stroke="#191970" d="M73.2778,-161.2319C105.1853,-210.6243 192.5179,-345.8141 216.7128,-383.2675"/>
<polygon fill="#191970" stroke="#191970" points="76.1972,-159.3009 67.831,-152.8003 70.3174,-163.0993 76.1972,-159.3009"/>
</g>
<!-- Node176283 -->
<g id="node25" class="node">
<title>Node176283</title>
<g id="a_node25"><a xlink:href="quickjs_8c.html#ae8b32777df50bb192c19840adc4d32a1" target="_top" xlink:title="js_proxy_setPrototypeOf">
<polygon fill="none" stroke="#000000" points="497,-199.5 497,-218.5 622,-218.5 622,-199.5 497,-199.5"/>
<text text-anchor="middle" x="559.5" y="-206.5" font-family="Helvetica,sans-Serif" font-size="10.00" fill="#000000">js_proxy_setPrototypeOf</text>
</a>
</g>
</g>
<!-- Node175684&#45;&gt;Node176283 -->
<g id="edge36" class="edge">
<title>Node175684&#45;&gt;Node176283</title>
<path fill="none" stroke="#191970" d="M108.5867,-156.1181C124.3037,-161.9838 142.1182,-168.2122 159,-172 276.3174,-198.3227 417.376,-201.8847 496.9136,-204.1614"/>
<polygon fill="#191970" stroke="#191970" points="109.6905,-152.7938 99.0988,-152.5378 107.2191,-159.343 109.6905,-152.7938"/>
</g>
<!-- Node176067 -->
<g id="node26" class="node">
<title>Node176067</title>
<g id="a_node26"><a xlink:href="quickjs_8c.html#a43064473b2e303ee40f4c1c7a87e85da" target="_top" xlink:title="js_function_constructor">
<polygon fill="none" stroke="#ff0000" points="164,-152.5 164,-171.5 282,-171.5 282,-152.5 164,-152.5"/>
<text text-anchor="middle" x="223" y="-159.5" font-family="Helvetica,sans-Serif" font-size="10.00" fill="#000000">js_function_constructor</text>
</a>
</g>
</g>
<!-- Node175684&#45;&gt;Node176067 -->
<g id="edge33" class="edge">
<title>Node175684&#45;&gt;Node176067</title>
<path fill="none" stroke="#191970" d="M133.1605,-151.4306C143.3946,-152.6347 153.826,-153.8619 163.7858,-155.0336"/>
<polygon fill="#191970" stroke="#191970" points="133.3574,-147.9298 123.0169,-150.2373 132.5395,-154.8818 133.3574,-147.9298"/>
</g>
<!-- Node176290 -->
<g id="node27" class="node">
<title>Node176290</title>
<g id="a_node27"><a xlink:href="quickjs_8c.html#a30f6da192ec0f9642ef42d3e0d25f8d9" target="_top" xlink:title="js_object_set___proto__">
<polygon fill="none" stroke="#000000" points="162,-114.5 162,-133.5 284,-133.5 284,-114.5 162,-114.5"/>
<text text-anchor="middle" x="223" y="-121.5" font-family="Helvetica,sans-Serif" font-size="10.00" fill="#000000">js_object_set___proto__</text>
</a>
</g>
</g>
<!-- Node175684&#45;&gt;Node176290 -->
<g id="edge34" class="edge">
<title>Node175684&#45;&gt;Node176290</title>
<path fill="none" stroke="#191970" d="M132.9878,-134.5897C142.6406,-133.454 152.4723,-132.2974 161.9213,-131.1857"/>
<polygon fill="#191970" stroke="#191970" points="132.5395,-131.1182 123.0169,-135.7627 133.3574,-138.0702 132.5395,-131.1182"/>
</g>
<!-- Node176291 -->
<g id="node28" class="node">
<title>Node176291</title>
<g id="a_node28"><a xlink:href="quickjs_8c.html#a25b4a7ad34d2af9d778c833c0a358d11" target="_top" xlink:title="js_object_setPrototypeOf">
<polygon fill="none" stroke="#000000" points="159.5,-76.5 159.5,-95.5 286.5,-95.5 286.5,-76.5 159.5,-76.5"/>
<text text-anchor="middle" x="223" y="-83.5" font-family="Helvetica,sans-Serif" font-size="10.00" fill="#000000">js_object_setPrototypeOf</text>
</a>
</g>
</g>
<!-- Node175684&#45;&gt;Node176291 -->
<g id="edge35" class="edge">
<title>Node175684&#45;&gt;Node176291</title>
<path fill="none" stroke="#191970" d="M93.8687,-129.6059C112.7276,-121.9983 137.0471,-112.5221 159,-105 168.6489,-101.6938 179.2266,-98.4155 188.9545,-95.5366"/>
<polygon fill="#191970" stroke="#191970" points="92.493,-126.3869 84.5459,-133.3936 95.1279,-132.8721 92.493,-126.3869"/>
</g>
<!-- Node176292 -->
<g id="node29" class="node">
<title>Node176292</title>
<g id="a_node29"><a xlink:href="quickjs_8c.html#a30655739588b4dda775e20f87360b7bf" target="_top" xlink:title="js_reflect_setPrototypeOf">
<polygon fill="none" stroke="#000000" points="159,-38.5 159,-57.5 287,-57.5 287,-38.5 159,-38.5"/>
<text text-anchor="middle" x="223" y="-45.5" font-family="Helvetica,sans-Serif" font-size="10.00" fill="#000000">js_reflect_setPrototypeOf</text>
</a>
</g>
</g>
<!-- Node175684&#45;&gt;Node176292 -->
<g id="edge37" class="edge">
<title>Node175684&#45;&gt;Node176292</title>
<path fill="none" stroke="#191970" d="M78.4741,-126.503C96.9131,-109.4092 127.9154,-82.9996 159,-67 166.3169,-63.2339 174.498,-60.0954 182.5012,-57.526"/>
<polygon fill="#191970" stroke="#191970" points="76.0214,-124.0051 71.1539,-133.4157 80.8275,-129.0945 76.0214,-124.0051"/>
</g>
<!-- Node176293 -->
<g id="node30" class="node">
<title>Node176293</title>
<g id="a_node30"><a xlink:href="quickjs_8c.html#af7e6f1b99757ce3911225ac50ca27b6a" target="_top" xlink:title="JS_SetPrototype">
<polygon fill="none" stroke="#000000" points="177.5,-.5 177.5,-19.5 268.5,-19.5 268.5,-.5 177.5,-.5"/>
<text text-anchor="middle" x="223" y="-7.5" font-family="Helvetica,sans-Serif" font-size="10.00" fill="#000000">JS_SetPrototype</text>
</a>
</g>
</g>
<!-- Node175684&#45;&gt;Node176293 -->
<g id="edge38" class="edge">
<title>Node175684&#45;&gt;Node176293</title>
<path fill="none" stroke="#191970" d="M72.249,-124.8287C88.0882,-99.6159 120.0709,-54.2788 159,-29 164.9297,-25.1495 171.6673,-22.0553 178.4911,-19.5755"/>
<polygon fill="#191970" stroke="#191970" points="69.2241,-123.0665 66.9881,-133.4227 75.1943,-126.7212 69.2241,-123.0665"/>
</g>
<!-- Node175685&#45;&gt;Node175685 -->
<g id="edge32" class="edge">
<title>Node175685&#45;&gt;Node175685</title>
<path fill="none" stroke="#191970" d="M193.0599,-411.2746C193.9135,-416.741 203.8936,-421 223,-421 251.4375,-421 259.6577,-411.5653 247.6606,-402.7571"/>
<polygon fill="#191970" stroke="#191970" points="196.0458,-413.1007 198.3394,-402.7571 190.096,-409.4128 196.0458,-413.1007"/>
</g>
<!-- Node175686 -->
<g id="node3" class="node">
<title>Node175686</title>
<g id="a_node3"><a xlink:href="quickjs_8c.html#ade71a22dc56e7371392393df663b28b3" target="_top" xlink:title="async_func_resume">
<polygon fill="none" stroke="#000000" points="338,-865.5 338,-884.5 442,-884.5 442,-865.5 338,-865.5"/>
<text text-anchor="middle" x="390" y="-872.5" font-family="Helvetica,sans-Serif" font-size="10.00" fill="#000000">async_func_resume</text>
</a>
</g>
</g>
<!-- Node175685&#45;&gt;Node175686 -->
<g id="edge2" class="edge">
<title>Node175685&#45;&gt;Node175686</title>
<path fill="none" stroke="#191970" d="M229.7814,-412.5728C258.0788,-494.2454 366.2173,-806.3578 386.6562,-865.3489"/>
<polygon fill="#191970" stroke="#191970" points="232.9169,-410.9312 226.3359,-402.6281 226.3026,-413.2229 232.9169,-410.9312"/>
</g>
<!-- Node175705 -->
<g id="node8" class="node">
<title>Node175705</title>
<g id="a_node8"><a xlink:href="quickjs_8c.html#a1a4c02a29525d5cb2085dd8bca3af350" target="_top" xlink:title="JS_Call">
<polygon fill="none" stroke="#ff0000" points="364.5,-483.5 364.5,-502.5 415.5,-502.5 415.5,-483.5 364.5,-483.5"/>
<text text-anchor="middle" x="390" y="-490.5" font-family="Helvetica,sans-Serif" font-size="10.00" fill="#000000">JS_Call</text>
</a>
</g>
</g>
<!-- Node175685&#45;&gt;Node175705 -->
<g id="edge7" class="edge">
<title>Node175685&#45;&gt;Node175705</title>
<path fill="none" stroke="#191970" d="M256.5283,-407.543C294.9233,-428.3914 355.6176,-465.4238 379.6804,-483.3525"/>
<polygon fill="#191970" stroke="#191970" points="257.7539,-404.23 247.2832,-402.6128 254.46,-410.4067 257.7539,-404.23"/>
</g>
<!-- Node175791 -->
<g id="node23" class="node">
<title>Node175791</title>
<g id="a_node23"><a xlink:href="quickjs_8c.html#ad35594576a14c10812efaf958c99af8a" target="_top" xlink:title="JS_CallConstructorInternal">
<polygon fill="none" stroke="#ff0000" points="323,-383.5 323,-402.5 457,-402.5 457,-383.5 323,-383.5"/>
<text text-anchor="middle" x="390" y="-390.5" font-family="Helvetica,sans-Serif" font-size="10.00" fill="#000000">JS_CallConstructorInternal</text>
</a>
</g>
</g>
<!-- Node175685&#45;&gt;Node175791 -->
<g id="edge26" class="edge">
<title>Node175685&#45;&gt;Node175791</title>
<path fill="none" stroke="#191970" d="M274.9219,-386.6987C290.0918,-386.2471 306.8926,-386.1364 322.8623,-386.3665"/>
<polygon fill="#191970" stroke="#191970" points="274.5781,-383.2087 264.7104,-387.0658 274.8297,-390.2042 274.5781,-383.2087"/>
</g>
<!-- Node175805 -->
<g id="node24" class="node">
<title>Node175805</title>
<g id="a_node24"><a xlink:href="quickjs_8c.html#a75f6ee5e4235a7dc99889f3d2eb2c147" target="_top" xlink:title="JS_CallFree">
<polygon fill="none" stroke="#ff0000" points="354.5,-307.5 354.5,-326.5 425.5,-326.5 425.5,-307.5 354.5,-307.5"/>
<text text-anchor="middle" x="390" y="-314.5" font-family="Helvetica,sans-Serif" font-size="10.00" fill="#000000">JS_CallFree</text>
</a>
</g>
</g>
<!-- Node175685&#45;&gt;Node175805 -->
<g id="edge28" class="edge">
<title>Node175685&#45;&gt;Node175805</title>
<path fill="none" stroke="#191970" d="M239.2273,-377.2889C258.7392,-363.7018 292.6574,-345.2508 323,-332 332.9643,-327.6485 343.9951,-323.4528 354.1818,-320.1854"/>
<polygon fill="#191970" stroke="#191970" points="237.0379,-374.5554 231.1124,-383.3383 241.2217,-380.1676 237.0379,-374.5554"/>
</g>
<!-- Node175687 -->
<g id="node4" class="node">
<title>Node175687</title>
<g id="a_node4"><a xlink:href="quickjs_8c.html#ac90552b1f1659acb3dae9a4c62479a30" target="_top" xlink:title="js_generator_function_call">
<polygon fill="none" stroke="#ff0000" points="494.5,-958.5 494.5,-977.5 624.5,-977.5 624.5,-958.5 494.5,-958.5"/>
<text text-anchor="middle" x="559.5" y="-965.5" font-family="Helvetica,sans-Serif" font-size="10.00" fill="#000000">js_generator_function_call</text>
</a>
</g>
</g>
<!-- Node175686&#45;&gt;Node175687 -->
<g id="edge3" class="edge">
<title>Node175686&#45;&gt;Node175687</title>
<path fill="none" stroke="#191970" d="M408.4671,-891.3133C428.1641,-907.9499 460.8865,-933.4617 493,-949 500.782,-952.7654 509.4469,-955.9157 517.8825,-958.499"/>
<polygon fill="#191970" stroke="#191970" points="410.488,-888.4351 400.6226,-884.5717 405.9255,-893.7439 410.488,-888.4351"/>
</g>
<!-- Node175696 -->
<g id="node5" class="node">
<title>Node175696</title>
<g id="a_node5"><a xlink:href="quickjs_8c.html#a1bf6b62983e8fff99c0a5d5a9f486115" target="_top" xlink:title="js_async_function_resume">
<polygon fill="none" stroke="#ff0000" points="493,-821.5 493,-840.5 626,-840.5 626,-821.5 493,-821.5"/>
<text text-anchor="middle" x="559.5" y="-828.5" font-family="Helvetica,sans-Serif" font-size="10.00" fill="#000000">js_async_function_resume</text>
</a>
</g>
</g>
<!-- Node175686&#45;&gt;Node175696 -->
<g id="edge4" class="edge">
<title>Node175686&#45;&gt;Node175696</title>
<path fill="none" stroke="#191970" d="M436.4651,-862.9383C463.6496,-855.8815 497.4877,-847.0976 522.7928,-840.5287"/>
<polygon fill="#191970" stroke="#191970" points="435.5787,-859.5523 426.779,-865.4527 437.3376,-866.3277 435.5787,-859.5523"/>
</g>
<!-- Node175703 -->
<g id="node6" class="node">
<title>Node175703</title>
<g id="a_node6"><a xlink:href="quickjs_8c.html#a89b019c704a2d2914bc30b30a72040b3" target="_top" xlink:title="js_async_generator\l_resume_next">
<polygon fill="none" stroke="#000000" points="509,-909 509,-939 610,-939 610,-909 509,-909"/>
<text text-anchor="start" x="517" y="-927" font-family="Helvetica,sans-Serif" font-size="10.00" fill="#000000">js_async_generator</text>
<text text-anchor="middle" x="559.5" y="-916" font-family="Helvetica,sans-Serif" font-size="10.00" fill="#000000">_resume_next</text>
</a>
</g>
</g>
<!-- Node175686&#45;&gt;Node175703 -->
<g id="edge5" class="edge">
<title>Node175686&#45;&gt;Node175703</title>
<path fill="none" stroke="#191970" d="M432.9372,-887.4125C456.0226,-894.0862 484.6309,-902.3564 508.805,-909.3448"/>
<polygon fill="#191970" stroke="#191970" points="433.6623,-883.9789 423.0837,-884.564 431.7183,-890.7036 433.6623,-883.9789"/>
</g>
<!-- Node175704 -->
<g id="node7" class="node">
<title>Node175704</title>
<g id="a_node7"><a xlink:href="quickjs_8c.html#ae19867da709929c072f05e90301835a4" target="_top" xlink:title="js_async_generator\l_function_call">
<polygon fill="none" stroke="#ff0000" points="509,-860 509,-890 610,-890 610,-860 509,-860"/>
<text text-anchor="start" x="517" y="-878" font-family="Helvetica,sans-Serif" font-size="10.00" fill="#000000">js_async_generator</text>
<text text-anchor="middle" x="559.5" y="-867" font-family="Helvetica,sans-Serif" font-size="10.00" fill="#000000">_function_call</text>
</a>
</g>
</g>
<!-- Node175686&#45;&gt;Node175704 -->
<g id="edge6" class="edge">
<title>Node175686&#45;&gt;Node175704</title>
<path fill="none" stroke="#191970" d="M452.388,-875C470.9885,-875 491.1368,-875 508.8866,-875"/>
<polygon fill="#191970" stroke="#191970" points="452.2387,-871.5001 442.2387,-875 452.2386,-878.5001 452.2387,-871.5001"/>
</g>
<!-- Node175705&#45;&gt;Node175685 -->
<g id="edge14" class="edge">
<title>Node175705&#45;&gt;Node175685</title>
<path fill="none" stroke="#191970" d="M356.3846,-478.4097C317.9186,-457.5166 257.1545,-420.4347 233.1952,-402.5548"/>
<polygon fill="#191970" stroke="#191970" points="355.1772,-481.7324 365.6477,-483.3511 358.4719,-475.5563 355.1772,-481.7324"/>
</g>
<!-- Node175705&#45;&gt;Node175696 -->
<g id="edge15" class="edge">
<title>Node175705&#45;&gt;Node175696</title>
<path fill="none" stroke="#191970" d="M393.845,-512.7111C406.4505,-575.4298 448.2881,-768.7838 493,-812 496.9714,-815.8386 501.6627,-818.9111 506.687,-821.369"/>
<polygon fill="#191970" stroke="#191970" points="397.2156,-511.7144 391.8374,-502.5861 390.3493,-513.0759 397.2156,-511.7144"/>
</g>
<!-- Node175706 -->
<g id="node9" class="node">
<title>Node175706</title>
<g id="a_node9"><a xlink:href="structqjs_1_1js__traits_3_01std_1_1function_3_01R_07Args_8_8_8_08_4_01_4.html#ac449e51d3fe10c6c115596fa6ec278ee" target="_top" xlink:title="qjs::js_traits\&lt; std\l::function\&lt; R(Args...)\l\&gt; \&gt;::unwrap">
<polygon fill="none" stroke="#000000" points="505,-761.5 505,-802.5 614,-802.5 614,-761.5 505,-761.5"/>
<text text-anchor="start" x="513" y="-790.5" font-family="Helvetica,sans-Serif" font-size="10.00" fill="#000000">qjs::js_traits&lt; std</text>
<text text-anchor="start" x="513" y="-779.5" font-family="Helvetica,sans-Serif" font-size="10.00" fill="#000000">::function&lt; R(Args...)</text>
<text text-anchor="middle" x="559.5" y="-768.5" font-family="Helvetica,sans-Serif" font-size="10.00" fill="#000000">&gt; &gt;::unwrap</text>
</a>
</g>
</g>
<!-- Node175705&#45;&gt;Node175706 -->
<g id="edge8" class="edge">
<title>Node175705&#45;&gt;Node175706</title>
<path fill="none" stroke="#191970" d="M392.7134,-512.7289C400.1851,-559.9984 425.2028,-681.0611 493,-752 496.5003,-755.6626 500.5304,-758.913 504.8391,-761.7907"/>
<polygon fill="#191970" stroke="#191970" points="396.1417,-511.9874 391.2089,-502.6109 389.2178,-513.017 396.1417,-511.9874"/>
</g>
<!-- Node175707 -->
<g id="node10" class="node">
<title>Node175707</title>
<g id="a_node10"><a xlink:href="quickjs-libc_8c.html#abb1cbe3fdf905e81f603a3a0bfce475a" target="_top" xlink:title="call_handler">
<polygon fill="none" stroke="#000000" points="525.5,-723.5 525.5,-742.5 593.5,-742.5 593.5,-723.5 525.5,-723.5"/>
<text text-anchor="middle" x="559.5" y="-730.5" font-family="Helvetica,sans-Serif" font-size="10.00" fill="#000000">call_handler</text>
</a>
</g>
</g>
<!-- Node175705&#45;&gt;Node175707 -->
<g id="edge9" class="edge">
<title>Node175705&#45;&gt;Node175707</title>
<path fill="none" stroke="#191970" d="M393.4891,-512.7271C402.1739,-555.8997 428.8604,-659.2613 493,-714 502.0419,-721.7166 514.0356,-726.3064 525.3459,-729.0337"/>
<polygon fill="#191970" stroke="#191970" points="396.8839,-511.8434 391.5783,-502.6727 390.007,-513.1504 396.8839,-511.8434"/>
</g>
<!-- Node175708 -->
<g id="node11" class="node">
<title>Node175708</title>
<g id="a_node11"><a xlink:href="quickjs-libc_8c.html#a9fa4c190ba56314c7ed9b00bbc7ad0f9" target="_top" xlink:title="handle_posted_message">
<polygon fill="none" stroke="#000000" points="497,-685.5 497,-704.5 622,-704.5 622,-685.5 497,-685.5"/>
<text text-anchor="middle" x="559.5" y="-692.5" font-family="Helvetica,sans-Serif" font-size="10.00" fill="#000000">handle_posted_message</text>
</a>
</g>
</g>
<!-- Node175705&#45;&gt;Node175708 -->
<g id="edge10" class="edge">
<title>Node175705&#45;&gt;Node175708</title>
<path fill="none" stroke="#191970" d="M395.4536,-512.3702C407.0018,-549.7966 437.5234,-632.2086 493,-676 497.9008,-679.8686 503.5545,-682.9494 509.4529,-685.403"/>
<polygon fill="#191970" stroke="#191970" points="398.7798,-511.2757 392.5827,-502.6823 392.0683,-513.2647 398.7798,-511.2757"/>
</g>
<!-- Node175709 -->
<g id="node12" class="node">
<title>Node175709</title>
<g id="a_node12"><a xlink:href="quickjs_8c.html#aa049793cc8648d35fe81876a2543ca4e" target="_top" xlink:title="JS_GetIterator2">
<polygon fill="none" stroke="#ff0000" points="516.5,-647.5 516.5,-666.5 602.5,-666.5 602.5,-647.5 516.5,-647.5"/>
<text text-anchor="middle" x="559.5" y="-654.5" font-family="Helvetica,sans-Serif" font-size="10.00" fill="#000000">JS_GetIterator2</text>
</a>
</g>
</g>
<!-- Node175705&#45;&gt;Node175709 -->
<g id="edge11" class="edge">
<title>Node175705&#45;&gt;Node175709</title>
<path fill="none" stroke="#191970" d="M398.3805,-512.1666C412.9945,-543.3305 446.1197,-604.833 493,-638 499.9594,-642.9237 508.1737,-646.5777 516.4115,-649.2877"/>
<polygon fill="#191970" stroke="#191970" points="401.4673,-510.4993 394.141,-502.8458 395.0954,-513.3975 401.4673,-510.4993"/>
</g>
<!-- Node175741 -->
<g id="node13" class="node">
<title>Node175741</title>
<g id="a_node13"><a xlink:href="quickjs_8c.html#ad6303fbd3add4afa0cb64b0aa6d431ce" target="_top" xlink:title="JS_IteratorNext2">
<polygon fill="none" stroke="#ff0000" points="514,-609.5 514,-628.5 605,-628.5 605,-609.5 514,-609.5"/>
<text text-anchor="middle" x="559.5" y="-616.5" font-family="Helvetica,sans-Serif" font-size="10.00" fill="#000000">JS_IteratorNext2</text>
</a>
</g>
</g>
<!-- Node175705&#45;&gt;Node175741 -->
<g id="edge12" class="edge">
<title>Node175705&#45;&gt;Node175741</title>
<path fill="none" stroke="#191970" d="M402.359,-510.7803C419.8321,-534.5927 454.0074,-576.5539 493,-600 499.3799,-603.8362 506.5701,-606.9287 513.8038,-609.4127"/>
<polygon fill="#191970" stroke="#191970" points="405.1776,-508.7047 396.5049,-502.6191 399.4896,-512.7848 405.1776,-508.7047"/>
</g>
<!-- Node175745 -->
<g id="node14" class="node">
<title>Node175745</title>
<g id="a_node14"><a xlink:href="quickjs_8c.html#afd4ef2d701fa0702f321925b61c57bbf" target="_top" xlink:title="js_call_bound_function">
<polygon fill="none" stroke="#ff0000" points="501.5,-571.5 501.5,-590.5 617.5,-590.5 617.5,-571.5 501.5,-571.5"/>
<text text-anchor="middle" x="559.5" y="-578.5" font-family="Helvetica,sans-Serif" font-size="10.00" fill="#000000">js_call_bound_function</text>
</a>
</g>
</g>
<!-- Node175705&#45;&gt;Node175745 -->
<g id="edge13" class="edge">
<title>Node175705&#45;&gt;Node175745</title>
<path fill="none" stroke="#191970" d="M409.6309,-508.8905C429.5738,-524.3516 461.874,-547.5638 493,-562 500.9516,-565.6879 509.7757,-568.8176 518.3281,-571.4074"/>
<polygon fill="#191970" stroke="#191970" points="411.654,-506.0287 401.6329,-502.5895 407.322,-511.5273 411.654,-506.0287"/>
</g>
<!-- Node175746 -->
<g id="node15" class="node">
<title>Node175746</title>
<g id="a_node15"><a xlink:href="quickjs_8c.html#a3e852026d167fa03c673f86697dd3e67" target="_top" xlink:title="js_async_generator\l_resolve_or_reject">
<polygon fill="none" stroke="#ff0000" points="509,-522 509,-552 610,-552 610,-522 509,-522"/>
<text text-anchor="start" x="517" y="-540" font-family="Helvetica,sans-Serif" font-size="10.00" fill="#000000">js_async_generator</text>
<text text-anchor="middle" x="559.5" y="-529" font-family="Helvetica,sans-Serif" font-size="10.00" fill="#000000">_resolve_or_reject</text>
</a>
</g>
</g>
<!-- Node175705&#45;&gt;Node175746 -->
<g id="edge16" class="edge">
<title>Node175705&#45;&gt;Node175746</title>
<path fill="none" stroke="#191970" d="M425.5606,-502.2311C449.726,-508.5041 482.0518,-516.8955 508.8919,-523.8628"/>
<polygon fill="#191970" stroke="#191970" points="426.302,-498.8076 415.7434,-499.6827 424.5432,-505.583 426.302,-498.8076"/>
</g>
<!-- Node175749 -->
<g id="node16" class="node">
<title>Node175749</title>
<g id="a_node16"><a xlink:href="quickjs_8c.html#a2355fabf91f59212ea65baba1b0b7c1b" target="_top" xlink:title="js_async_generator_next">
<polygon fill="none" stroke="#000000" points="497,-483.5 497,-502.5 622,-502.5 622,-483.5 497,-483.5"/>
<text text-anchor="middle" x="559.5" y="-490.5" font-family="Helvetica,sans-Serif" font-size="10.00" fill="#000000">js_async_generator_next</text>
</a>
</g>
</g>
<!-- Node175705&#45;&gt;Node175749 -->
<g id="edge17" class="edge">
<title>Node175705&#45;&gt;Node175749</title>
<path fill="none" stroke="#191970" d="M425.9311,-493C446.5135,-493 472.9253,-493 496.8209,-493"/>
<polygon fill="#191970" stroke="#191970" points="425.7434,-489.5001 415.7434,-493 425.7434,-496.5001 425.7434,-489.5001"/>
</g>
<!-- Node175750 -->
<g id="node17" class="node">
<title>Node175750</title>
<g id="a_node17"><a xlink:href="quickjs_8c.html#adc0280beaa04d2b8fcaf05a82ab26c74" target="_top" xlink:title="js_link_module">
<polygon fill="none" stroke="#ff0000" points="519,-427.5 519,-446.5 600,-446.5 600,-427.5 519,-427.5"/>
<text text-anchor="middle" x="559.5" y="-434.5" font-family="Helvetica,sans-Serif" font-size="10.00" fill="#000000">js_link_module</text>
</a>
</g>
</g>
<!-- Node175705&#45;&gt;Node175750 -->
<g id="edge18" class="edge">
<title>Node175705&#45;&gt;Node175750</title>
<path fill="none" stroke="#191970" d="M425.3637,-481.3164C456.5973,-470.9974 501.5758,-456.1372 530.6716,-446.5244"/>
<polygon fill="#191970" stroke="#191970" points="424.1406,-478.0344 415.7434,-484.4948 426.3366,-484.681 424.1406,-478.0344"/>
</g>
<!-- Node175754 -->
<g id="node18" class="node">
<title>Node175754</title>
<g id="a_node18"><a xlink:href="quickjs_8c.html#a6357b7fdae71c70c140e78e6c20cb5c2" target="_top" xlink:title="js_dynamic_import_job">
<polygon fill="none" stroke="#ff0000" points="501.5,-389.5 501.5,-408.5 617.5,-408.5 617.5,-389.5 501.5,-389.5"/>
<text text-anchor="middle" x="559.5" y="-396.5" font-family="Helvetica,sans-Serif" font-size="10.00" fill="#000000">js_dynamic_import_job</text>
</a>
</g>
</g>
<!-- Node175705&#45;&gt;Node175754 -->
<g id="edge20" class="edge">
<title>Node175705&#45;&gt;Node175754</title>
<path fill="none" stroke="#191970" d="M408.1636,-476.6784C427.7985,-459.811 460.6436,-433.7833 493,-418 500.6621,-414.2625 509.1893,-411.1366 517.5123,-408.5707"/>
<polygon fill="#191970" stroke="#191970" points="405.8245,-474.0743 400.5973,-483.2899 410.4305,-479.3454 405.8245,-474.0743"/>
</g>
<!-- Node175758 -->
<g id="node19" class="node">
<title>Node175758</title>
<g id="a_node19"><a xlink:href="quickjs_8c.html#a8d4b24969540aff427939eeda47f451d" target="_top" xlink:title="js_function_apply">
<polygon fill="none" stroke="#ff0000" points="513.5,-237.5 513.5,-256.5 605.5,-256.5 605.5,-237.5 513.5,-237.5"/>
<text text-anchor="middle" x="559.5" y="-244.5" font-family="Helvetica,sans-Serif" font-size="10.00" fill="#000000">js_function_apply</text>
</a>
</g>
</g>
<!-- Node175705&#45;&gt;Node175758 -->
<g id="edge21" class="edge">
<title>Node175705&#45;&gt;Node175758</title>
<path fill="none" stroke="#191970" d="M408.1393,-475.8966C423.3626,-460.554 444.5603,-436.7079 457,-412 487.0539,-352.3063 446.6138,-314.1133 493,-266 498.5836,-260.2085 505.7996,-256.147 513.411,-253.3068"/>
<polygon fill="#191970" stroke="#191970" points="405.4828,-473.5999 400.8011,-483.1042 410.3879,-478.5939 405.4828,-473.5999"/>
</g>
<!-- Node175761 -->
<g id="node20" class="node">
<title>Node175761</title>
<g id="a_node20"><a xlink:href="quickjs_8c.html#a677ad630a103e1f3d5129e0549112b50" target="_top" xlink:title="js_function_call">
<polygon fill="none" stroke="#000000" points="517.5,-351.5 517.5,-370.5 601.5,-370.5 601.5,-351.5 517.5,-351.5"/>
<text text-anchor="middle" x="559.5" y="-358.5" font-family="Helvetica,sans-Serif" font-size="10.00" fill="#000000">js_function_call</text>
</a>
</g>
</g>
<!-- Node175705&#45;&gt;Node175761 -->
<g id="edge23" class="edge">
<title>Node175705&#45;&gt;Node175761</title>
<path fill="none" stroke="#191970" d="M403.9318,-475.506C426.8207,-447.1637 471.9409,-393.0562 493,-380 500.3476,-375.4446 508.8224,-371.9488 517.2092,-369.2767"/>
<polygon fill="#191970" stroke="#191970" points="401.1247,-473.4118 397.5933,-483.4007 406.5831,-477.7942 401.1247,-473.4118"/>
</g>
<!-- Node175712 -->
<g id="node21" class="node">
<title>Node175712</title>
<g id="a_node21"><a xlink:href="quickjs_8c.html#a5e32da9a43002cb96dcbd62a1a340144" target="_top" xlink:title="js_array_from">
<polygon fill="none" stroke="#000000" points="521.5,-313.5 521.5,-332.5 597.5,-332.5 597.5,-313.5 521.5,-313.5"/>
<text text-anchor="middle" x="559.5" y="-320.5" font-family="Helvetica,sans-Serif" font-size="10.00" fill="#000000">js_array_from</text>
</a>
</g>
</g>
<!-- Node175705&#45;&gt;Node175712 -->
<g id="edge24" class="edge">
<title>Node175705&#45;&gt;Node175712</title>
<path fill="none" stroke="#191970" d="M406.2654,-475.6215C420.6205,-459.7789 441.5986,-435.352 457,-412 476.2613,-382.7955 465.9528,-364.1889 493,-342 501.0762,-335.3745 511.3435,-331.0578 521.3798,-328.246"/>
<polygon fill="#191970" stroke="#191970" points="403.6101,-473.3385 399.4269,-483.0726 408.7673,-478.0718 403.6101,-473.3385"/>
</g>
<!-- Node175738 -->
<g id="node22" class="node">
<title>Node175738</title>
<g id="a_node22"><a xlink:href="quickjs_8c.html#aa0bbf08a7e91459c68a312fba7016c6d" target="_top" xlink:title="js_array_every">
<polygon fill="none" stroke="#000000" points="519.5,-275.5 519.5,-294.5 599.5,-294.5 599.5,-275.5 519.5,-275.5"/>
<text text-anchor="middle" x="559.5" y="-282.5" font-family="Helvetica,sans-Serif" font-size="10.00" fill="#000000">js_array_every</text>
</a>
</g>
</g>
<!-- Node175705&#45;&gt;Node175738 -->
<g id="edge25" class="edge">
<title>Node175705&#45;&gt;Node175738</title>
<path fill="none" stroke="#191970" d="M407.1507,-476.1579C422.0914,-460.67 443.4315,-436.4625 457,-412 481.5417,-367.754 456.4541,-338.9914 493,-304 500.1984,-297.1078 509.7194,-292.6875 519.3003,-289.8608"/>
<polygon fill="#191970" stroke="#191970" points="404.5227,-473.8383 399.9961,-483.4174 409.5083,-478.7519 404.5227,-473.8383"/>
</g>
<!-- Node175750&#45;&gt;Node175750 -->
<g id="edge19" class="edge">
<title>Node175750&#45;&gt;Node175750</title>
<path fill="none" stroke="#191970" d="M528.0629,-455.2746C528.9592,-460.741 539.4382,-465 559.5,-465 589.3594,-465 597.9906,-455.5653 585.3937,-446.7571"/>
<polygon fill="#191970" stroke="#191970" points="531.085,-457.0475 533.6063,-446.7571 525.2181,-453.2291 531.085,-457.0475"/>
</g>
<!-- Node175758&#45;&gt;Node175685 -->
<g id="edge22" class="edge">
<title>Node175758&#45;&gt;Node175685</title>
<path fill="none" stroke="#191970" d="M503.9795,-258.9042C500.0589,-260.9121 496.3419,-263.2584 493,-266 465.9528,-288.1889 484.4787,-314.3477 457,-336 441.8926,-347.9042 327.6173,-372.1424 264.5325,-384.8347"/>
<polygon fill="#191970" stroke="#191970" points="505.6378,-262 513.4163,-254.8064 502.8497,-255.5792 505.6378,-262"/>
</g>
<!-- Node175791&#45;&gt;Node175685 -->
<g id="edge27" class="edge">
<title>Node175791&#45;&gt;Node175685</title>
<path fill="none" stroke="#191970" d="M312.6394,-399.7338C296.1165,-399.8213 279.2713,-399.5548 264.7104,-398.9342"/>
<polygon fill="#191970" stroke="#191970" points="312.8972,-403.2315 322.8623,-399.6335 312.8284,-396.2318 312.8972,-403.2315"/>
</g>
<!-- Node175805&#45;&gt;Node175685 -->
<g id="edge29" class="edge">
<title>Node175805&#45;&gt;Node175685</title>
<path fill="none" stroke="#191970" d="M370.1017,-330.9576C356.6267,-336.8226 338.5197,-343.2225 323,-350 299.1496,-360.4156 273.09,-374.0442 253.5542,-383.474"/>
<polygon fill="#191970" stroke="#191970" points="371.8325,-334.0111 379.3837,-326.5794 368.8462,-327.68 371.8325,-334.0111"/>
</g>
<!-- Node175805&#45;&gt;Node176283 -->
<g id="edge30" class="edge">
<title>Node175805&#45;&gt;Node176283</title>
<path fill="none" stroke="#191970" d="M405.2186,-299.9519C423.9796,-279.9366 457.7324,-247.0591 493,-228 500.0774,-224.1753 508.0053,-221.0511 515.8536,-218.5228"/>
<polygon fill="#191970" stroke="#191970" points="402.5425,-297.6914 398.353,-307.4227 407.6966,-302.428 402.5425,-297.6914"/>
</g>
<!-- Node176283&#45;&gt;Node175684 -->
<g id="edge31" class="edge">
<title>Node176283&#45;&gt;Node175684</title>
<path fill="none" stroke="#191970" d="M486.8221,-217.0165C405.8448,-219.5542 271.5056,-215.2431 159,-190 124.7878,-182.3237 86.7446,-164.6236 70.0923,-152.5202"/>
<polygon fill="#191970" stroke="#191970" points="487.0455,-220.5108 496.9136,-216.6544 486.7945,-213.5153 487.0455,-220.5108"/>
</g>
</g>
</svg>
        <g id="navigator" transform="translate(0 0)" fill="#404254">
                <rect fill="#f2f5e9" fill-opacity="0.5" stroke="#606060" stroke-width=".5" x="0" y="0" width="60" height="60"/>
                <use id="zoomplus" xlink:href="#zoomPlus" x="17" y="9" onmousedown="handleZoom(evt,'in')"/>
                <use id="zoomminus" xlink:href="#zoomMin" x="42" y="9" onmousedown="handleZoom(evt,'out')"/>
                <use id="reset" xlink:href="#resetDef" x="30" y="36" onmousedown="handleReset()"/>
                <g id="arrowUp" xlink:href="#dirArrow" transform="translate(30 24)" onmousedown="handlePan(0,-1)">
                  <use xlink:href="#rim" fill="#404040">
                        <set attributeName="fill" to="#808080" begin="arrowUp.mouseover" end="arrowUp.mouseout"/>
                  </use>
                  <path fill="none" stroke="white" stroke-width="1.5" d="M0,-3.0v7 M-2.5,-0.5L0,-3.0L2.5,-0.5"/>
                </g>
                <g id="arrowRight" xlink:href="#dirArrow" transform="rotate(90) translate(36 -43)" onmousedown="handlePan(1,0)">
                  <use xlink:href="#rim" fill="#404040">
                        <set attributeName="fill" to="#808080" begin="arrowRight.mouseover" end="arrowRight.mouseout"/>
                  </use>
                  <path fill="none" stroke="white" stroke-width="1.5" d="M0,-3.0v7 M-2.5,-0.5L0,-3.0L2.5,-0.5"/>
                </g>
                <g id="arrowDown" xlink:href="#dirArrow" transform="rotate(180) translate(-30 -48)" onmousedown="handlePan(0,1)">
                  <use xlink:href="#rim" fill="#404040">
                        <set attributeName="fill" to="#808080" begin="arrowDown.mouseover" end="arrowDown.mouseout"/>
                  </use>
                  <path fill="none" stroke="white" stroke-width="1.5" d="M0,-3.0v7 M-2.5,-0.5L0,-3.0L2.5,-0.5"/>
                </g>
                <g id="arrowLeft" xlink:href="#dirArrow" transform="rotate(270) translate(-36 17)" onmousedown="handlePan(-1,0)">
                  <use xlink:href="#rim" fill="#404040">
                        <set attributeName="fill" to="#808080" begin="arrowLeft.mouseover" end="arrowLeft.mouseout"/>
                  </use>
                  <path fill="none" stroke="white" stroke-width="1.5" d="M0,-3.0v7 M-2.5,-0.5L0,-3.0L2.5,-0.5"/>
                </g>
        </g>
        <svg viewBox="0 0 15 15" width="100%" height="30px" preserveAspectRatio="xMaxYMin meet">
         <g id="arrow_out" transform="scale(0.3 0.3)">
          <a xlink:href="quickjs_8c_a11b9662411b5b3f631925a0ca708ce25_icgraph_org.svg" target="_base">
           <rect id="button" ry="5" rx="5" y="6" x="6" height="38" width="38"
                fill="#f2f5e9" fill-opacity="0.5" stroke="#606060" stroke-width="1.0"/>
           <path id="arrow"
             d="M 11.500037,31.436501 C 11.940474,20.09759 22.043105,11.32322 32.158766,21.979434 L 37.068811,17.246167 C 37.068811,17.246167 37.088388,32 37.088388,32 L 22.160133,31.978069 C 22.160133,31.978069 26.997745,27.140456 26.997745,27.140456 C 18.528582,18.264221 13.291696,25.230495 11.500037,31.436501 z"
             style="fill:#404040;"/>
          </a>
         </g>
        </svg>
</svg>
