<?xml version="1.0" encoding="UTF-8" standalone="no"?>
<!DOCTYPE svg PUBLIC "-//W3C//DTD SVG 1.1//EN"
 "http://www.w3.org/Graphics/SVG/1.1/DTD/svg11.dtd">
<!-- Generated by graphviz version 2.40.1 (20161225.0304)
 -->
<!-- Title: js_parse_function_check_names Pages: 1 -->
<!--zoomable 190 -->
<svg id="main" version="1.1" xmlns="http://www.w3.org/2000/svg" xmlns:xlink="http://www.w3.org/1999/xlink" xml:space="preserve" onload="init(evt)">
<style type="text/css"><![CDATA[
.edge:hover path { stroke: red; }
.edge:hover polygon { stroke: red; fill: red; }
]]></style>
<script type="text/javascript"><![CDATA[
var edges = document.getElementsByTagName('g');
if (edges && edges.length) {
  for (var i=0;i<edges.length;i++) {
    if (edges[i].id.substr(0,4)=='edge') {
      edges[i].setAttribute('class','edge');
    }
  }
}
]]></script>
        <defs>
                <circle id="rim" cx="0" cy="0" r="7"/>
                <circle id="rim2" cx="0" cy="0" r="3.5"/>
                <g id="zoomPlus">
                        <use xlink:href="#rim" fill="#404040">
                                <set attributeName="fill" to="#808080" begin="zoomplus.mouseover" end="zoomplus.mouseout"/>
                        </use>
                        <path d="M-4,0h8M0,-4v8" fill="none" stroke="white" stroke-width="1.5" pointer-events="none"/>
                </g>
                <g id="zoomMin">
                        <use xlink:href="#rim" fill="#404040">
                                <set attributeName="fill" to="#808080" begin="zoomminus.mouseover" end="zoomminus.mouseout"/>
                        </use>
                        <path d="M-4,0h8" fill="none" stroke="white" stroke-width="1.5" pointer-events="none"/>
                </g>
                <g id="dirArrow">
                        <path fill="none" stroke="white" stroke-width="1.5" d="M0,-3.0v7 M-2.5,-0.5L0,-3.0L2.5,-0.5"/>
                </g>
               <g id="resetDef">
                       <use xlink:href="#rim2" fill="#404040">
                               <set attributeName="fill" to="#808080" begin="reset.mouseover" end="reset.mouseout"/>
                       </use>
               </g>
        </defs>

<script type="text/javascript">
var viewWidth = 926;
var viewHeight = 190;
var sectionId = 'dynsection-1246';
</script>
<script xlink:href="svgpan.js"/>
<svg id="graph" class="graph">
<g id="viewport">
<title>js_parse_function_check_names</title>
<!-- Node356914 -->
<g id="node1" class="node">
<title>Node356914</title>
<polygon fill="#bfbfbf" stroke="#000000" points="0,-46.7022 0,-76.7022 125,-76.7022 125,-46.7022 0,-46.7022"/>
<text text-anchor="start" x="8" y="-64.7022" font-family="Helvetica,sans-Serif" font-size="10.00" fill="#000000">js_parse_function_check</text>
<text text-anchor="middle" x="62.5" y="-53.7022" font-family="Helvetica,sans-Serif" font-size="10.00" fill="#000000">_names</text>
</g>
<!-- Node356915 -->
<g id="node2" class="node">
<title>Node356915</title>
<g id="a_node2"><a xlink:href="quickjs_8c.html#acc9eb677cab8dfcf45f59381f8a19601" target="_top" xlink:title="js_parse_function_decl2">
<polygon fill="none" stroke="#000000" points="161,-52.2022 161,-71.2022 283,-71.2022 283,-52.2022 161,-52.2022"/>
<text text-anchor="middle" x="222" y="-59.2022" font-family="Helvetica,sans-Serif" font-size="10.00" fill="#000000">js_parse_function_decl2</text>
</a>
</g>
</g>
<!-- Node356914&#45;&gt;Node356915 -->
<g id="edge1" class="edge">
<title>Node356914&#45;&gt;Node356915</title>
<path fill="none" stroke="#191970" d="M135.1222,-61.7022C143.7405,-61.7022 152.4707,-61.7022 160.9059,-61.7022"/>
<polygon fill="#191970" stroke="#191970" points="135.0809,-58.2023 125.0808,-61.7022 135.0808,-65.2023 135.0809,-58.2023"/>
</g>
<!-- Node356916 -->
<g id="node3" class="node">
<title>Node356916</title>
<g id="a_node3"><a xlink:href="quickjs_8c.html#a00eb789430243c24dab4a63ad6a79653" target="_top" xlink:title="js_parse_class">
<polygon fill="none" stroke="#000000" points="508.5,-14.2022 508.5,-33.2022 590.5,-33.2022 590.5,-14.2022 508.5,-14.2022"/>
<text text-anchor="middle" x="549.5" y="-21.2022" font-family="Helvetica,sans-Serif" font-size="10.00" fill="#000000">js_parse_class</text>
</a>
</g>
</g>
<!-- Node356915&#45;&gt;Node356916 -->
<g id="edge2" class="edge">
<title>Node356915&#45;&gt;Node356916</title>
<path fill="none" stroke="#191970" d="M275.3453,-50.148C289.4846,-47.389 304.7752,-44.6754 319,-42.7022 384.8231,-33.5715 461.8746,-28.3056 508.1263,-25.7236"/>
<polygon fill="#191970" stroke="#191970" points="274.4068,-46.7661 265.2848,-52.155 275.7763,-53.6309 274.4068,-46.7661"/>
</g>
<!-- Node356917 -->
<g id="node4" class="node">
<title>Node356917</title>
<g id="a_node4"><a xlink:href="quickjs_8c.html#a498e1d5c7de1b59c1630e9847cde1e41" target="_top" xlink:title="js_parse_export">
<polygon fill="none" stroke="#000000" points="655,-4.2022 655,-23.2022 741,-23.2022 741,-4.2022 655,-4.2022"/>
<text text-anchor="middle" x="698" y="-11.2022" font-family="Helvetica,sans-Serif" font-size="10.00" fill="#000000">js_parse_export</text>
</a>
</g>
</g>
<!-- Node356915&#45;&gt;Node356917 -->
<g id="edge13" class="edge">
<title>Node356915&#45;&gt;Node356917</title>
<path fill="none" stroke="#191970" d="M251.9626,-48.0388C270.8232,-40.0039 295.8886,-30.3438 319,-24.7022 443.2175,5.6201 478.2871,1.5298 606,-4.7022 621.8691,-5.4765 639.2232,-6.998 654.5404,-8.5728"/>
<polygon fill="#191970" stroke="#191970" points="250.4835,-44.8653 242.7085,-52.0625 253.2747,-51.2848 250.4835,-44.8653"/>
</g>
<!-- Node356949 -->
<g id="node8" class="node">
<title>Node356949</title>
<g id="a_node8"><a xlink:href="quickjs_8c.html#adf95ddf430ef93fd9efea1cc2f8a2fbe" target="_top" xlink:title="js_parse_class_default_ctor">
<polygon fill="none" stroke="#000000" points="319,-52.2022 319,-71.2022 457,-71.2022 457,-52.2022 319,-52.2022"/>
<text text-anchor="middle" x="388" y="-59.2022" font-family="Helvetica,sans-Serif" font-size="10.00" fill="#000000">js_parse_class_default_ctor</text>
</a>
</g>
</g>
<!-- Node356915&#45;&gt;Node356949 -->
<g id="edge11" class="edge">
<title>Node356915&#45;&gt;Node356949</title>
<path fill="none" stroke="#191970" d="M293.4791,-61.7022C301.8754,-61.7022 310.4321,-61.7022 318.7965,-61.7022"/>
<polygon fill="#191970" stroke="#191970" points="293.3407,-58.2023 283.3406,-61.7022 293.3406,-65.2023 293.3407,-58.2023"/>
</g>
<!-- Node356950 -->
<g id="node9" class="node">
<title>Node356950</title>
<g id="a_node9"><a xlink:href="quickjs_8c.html#a3cad0b329e5f016dce8d42b4196c3499" target="_top" xlink:title="js_parse_function_decl">
<polygon fill="none" stroke="#000000" points="330,-90.2022 330,-109.2022 446,-109.2022 446,-90.2022 330,-90.2022"/>
<text text-anchor="middle" x="388" y="-97.2022" font-family="Helvetica,sans-Serif" font-size="10.00" fill="#000000">js_parse_function_decl</text>
</a>
</g>
</g>
<!-- Node356915&#45;&gt;Node356950 -->
<g id="edge14" class="edge">
<title>Node356915&#45;&gt;Node356950</title>
<path fill="none" stroke="#191970" d="M273.6534,-73.5265C297.0564,-78.8838 324.3571,-85.1333 346.4124,-90.1821"/>
<polygon fill="#191970" stroke="#191970" points="274.4177,-70.111 263.8888,-71.2912 272.8556,-76.9345 274.4177,-70.111"/>
</g>
<!-- Node356916&#45;&gt;Node356917 -->
<g id="edge3" class="edge">
<title>Node356916&#45;&gt;Node356917</title>
<path fill="none" stroke="#191970" d="M600.9505,-20.2375C618.506,-19.0553 637.9447,-17.7463 654.7858,-16.6122"/>
<polygon fill="#191970" stroke="#191970" points="600.6077,-16.7526 590.8655,-20.9166 601.0781,-23.7368 600.6077,-16.7526"/>
</g>
<!-- Node356926 -->
<g id="node6" class="node">
<title>Node356926</title>
<g id="a_node6"><a xlink:href="quickjs_8c.html#a840642c87c5a82d4cc68333376a3b6de" target="_top" xlink:title="js_parse_postfix_expr">
<polygon fill="none" stroke="#ff0000" points="642,-110.2022 642,-129.2022 754,-129.2022 754,-110.2022 642,-110.2022"/>
<text text-anchor="middle" x="698" y="-117.2022" font-family="Helvetica,sans-Serif" font-size="10.00" fill="#000000">js_parse_postfix_expr</text>
</a>
</g>
</g>
<!-- Node356916&#45;&gt;Node356926 -->
<g id="edge6" class="edge">
<title>Node356916&#45;&gt;Node356926</title>
<path fill="none" stroke="#191970" d="M565.7578,-40.4792C583.212,-57.6644 612.4387,-84.1415 642,-100.7022 648.628,-104.4153 656.1035,-107.5694 663.3825,-110.1773"/>
<polygon fill="#191970" stroke="#191970" points="568.1464,-37.9178 558.6078,-33.3062 563.1887,-42.8596 568.1464,-37.9178"/>
</g>
<!-- Node356930 -->
<g id="node7" class="node">
<title>Node356930</title>
<g id="a_node7"><a xlink:href="quickjs_8c.html#a9d844c16dcc71701436848074337d32c" target="_top" xlink:title="js_parse_statement\l_or_decl">
<polygon fill="none" stroke="#ff0000" points="647,-42.7022 647,-72.7022 749,-72.7022 749,-42.7022 647,-42.7022"/>
<text text-anchor="start" x="655" y="-60.7022" font-family="Helvetica,sans-Serif" font-size="10.00" fill="#000000">js_parse_statement</text>
<text text-anchor="middle" x="698" y="-49.7022" font-family="Helvetica,sans-Serif" font-size="10.00" fill="#000000">_or_decl</text>
</a>
</g>
</g>
<!-- Node356916&#45;&gt;Node356930 -->
<g id="edge8" class="edge">
<title>Node356916&#45;&gt;Node356930</title>
<path fill="none" stroke="#191970" d="M600.8996,-35.4704C615.7534,-38.8713 631.9589,-42.5817 646.8005,-45.9798"/>
<polygon fill="#191970" stroke="#191970" points="601.3945,-31.9933 590.8655,-33.1731 599.8321,-38.8167 601.3945,-31.9933"/>
</g>
<!-- Node356918 -->
<g id="node5" class="node">
<title>Node356918</title>
<g id="a_node5"><a xlink:href="quickjs_8c.html#ab59a3267a100decc9d2d81eb3297794a" target="_top" xlink:title="js_parse_source_element">
<polygon fill="none" stroke="#ff0000" points="790,-107.2022 790,-126.2022 918,-126.2022 918,-107.2022 790,-107.2022"/>
<text text-anchor="middle" x="854" y="-114.2022" font-family="Helvetica,sans-Serif" font-size="10.00" fill="#000000">js_parse_source_element</text>
</a>
</g>
</g>
<!-- Node356917&#45;&gt;Node356918 -->
<g id="edge4" class="edge">
<title>Node356917&#45;&gt;Node356918</title>
<path fill="none" stroke="#191970" d="M740.4529,-27.0611C745.1318,-29.0593 749.7393,-31.2746 754,-33.7022 791.0504,-54.8124 827.8995,-89.992 844.6498,-106.9603"/>
<polygon fill="#191970" stroke="#191970" points="741.4232,-23.6814 730.8366,-23.266 738.8535,-30.1927 741.4232,-23.6814"/>
</g>
<!-- Node356918&#45;&gt;Node356915 -->
<g id="edge5" class="edge">
<title>Node356918&#45;&gt;Node356915</title>
<path fill="none" stroke="#191970" d="M835.1403,-132.8702C816.1055,-148.0458 785.1466,-169.7163 754,-178.7022 744.311,-181.4975 513.0416,-183.1135 493,-179.7022 412.214,-165.9517 393.3427,-153.1787 319,-118.7022 288.3446,-104.4857 254.8239,-83.4529 236.3103,-71.3089"/>
<polygon fill="#191970" stroke="#191970" points="837.4899,-135.47 843.0049,-126.4236 833.0522,-130.0563 837.4899,-135.47"/>
</g>
<!-- Node356926&#45;&gt;Node356926 -->
<g id="edge7" class="edge">
<title>Node356926&#45;&gt;Node356926</title>
<path fill="none" stroke="#191970" d="M670.3742,-138.3561C671.5289,-143.639 680.7375,-147.7022 698,-147.7022 724.3047,-147.7022 731.9084,-138.2675 720.8111,-129.4592"/>
<polygon fill="#191970" stroke="#191970" points="673.5076,-139.9198 675.1889,-129.4592 667.3512,-136.5882 673.5076,-139.9198"/>
</g>
<!-- Node356930&#45;&gt;Node356918 -->
<g id="edge9" class="edge">
<title>Node356930&#45;&gt;Node356918</title>
<path fill="none" stroke="#191970" d="M747.4254,-76.3951C774.362,-86.5827 806.5743,-98.7655 828.4826,-107.0514"/>
<polygon fill="#191970" stroke="#191970" points="748.3606,-73.0069 737.769,-72.743 745.8843,-79.5543 748.3606,-73.0069"/>
</g>
<!-- Node356930&#45;&gt;Node356930 -->
<g id="edge10" class="edge">
<title>Node356930&#45;&gt;Node356930</title>
<path fill="none" stroke="#191970" d="M671.7022,-83.1601C674.9661,-87.8812 683.7321,-91.2022 698,-91.2022 721.4141,-91.2022 730.0114,-82.2588 723.7921,-72.8612"/>
<polygon fill="#191970" stroke="#191970" points="675.2132,-83.0209 672.2079,-72.8612 668.2216,-82.6775 675.2132,-83.0209"/>
</g>
<!-- Node356949&#45;&gt;Node356916 -->
<g id="edge12" class="edge">
<title>Node356949&#45;&gt;Node356916</title>
<path fill="none" stroke="#191970" d="M438.5583,-49.8061C461.2588,-44.4648 487.6781,-38.2485 509.0398,-33.2222"/>
<polygon fill="#191970" stroke="#191970" points="437.6858,-46.4158 428.7533,-52.1132 439.2891,-53.2297 437.6858,-46.4158"/>
</g>
<!-- Node356950&#45;&gt;Node356918 -->
<g id="edge18" class="edge">
<title>Node356950&#45;&gt;Node356918</title>
<path fill="none" stroke="#191970" d="M408.8813,-115.1408C429.1795,-129.1155 461.4776,-148.6978 493,-156.7022 605.4319,-185.2517 640.0931,-178.6387 754,-156.7022 784.1122,-150.9031 816.6832,-136.1181 836.2046,-126.2403"/>
<polygon fill="#191970" stroke="#191970" points="410.8867,-112.2722 400.6998,-109.3608 406.8477,-117.9895 410.8867,-112.2722"/>
</g>
<!-- Node356950&#45;&gt;Node356926 -->
<g id="edge17" class="edge">
<title>Node356950&#45;&gt;Node356926</title>
<path fill="none" stroke="#191970" d="M456.4366,-104.1175C512.1034,-107.7089 589.6975,-112.7149 641.7813,-116.0752"/>
<polygon fill="#191970" stroke="#191970" points="456.5133,-100.6152 446.3086,-103.464 456.0625,-107.6007 456.5133,-100.6152"/>
</g>
<!-- Node356950&#45;&gt;Node356930 -->
<g id="edge19" class="edge">
<title>Node356950&#45;&gt;Node356930</title>
<path fill="none" stroke="#191970" d="M456.4046,-90.4345C513.9242,-82.6415 594.8716,-71.6744 646.8899,-64.6268"/>
<polygon fill="#191970" stroke="#191970" points="455.7482,-86.9913 446.3086,-91.8023 456.688,-93.928 455.7482,-86.9913"/>
</g>
<!-- Node356942 -->
<g id="node10" class="node">
<title>Node356942</title>
<g id="a_node10"><a xlink:href="quickjs_8c.html#aee6d0acd87f136d43f157ae1426436e6" target="_top" xlink:title="js_parse_object_literal">
<polygon fill="none" stroke="#000000" points="493,-128.2022 493,-147.2022 606,-147.2022 606,-128.2022 493,-128.2022"/>
<text text-anchor="middle" x="549.5" y="-135.2022" font-family="Helvetica,sans-Serif" font-size="10.00" fill="#000000">js_parse_object_literal</text>
</a>
</g>
</g>
<!-- Node356950&#45;&gt;Node356942 -->
<g id="edge15" class="edge">
<title>Node356950&#45;&gt;Node356942</title>
<path fill="none" stroke="#191970" d="M438.5583,-111.5983C461.2588,-116.9396 487.6781,-123.1559 509.0398,-128.1821"/>
<polygon fill="#191970" stroke="#191970" points="439.2891,-108.1747 428.7533,-109.2912 437.6858,-114.9886 439.2891,-108.1747"/>
</g>
<!-- Node356942&#45;&gt;Node356926 -->
<g id="edge16" class="edge">
<title>Node356942&#45;&gt;Node356926</title>
<path fill="none" stroke="#191970" d="M616.0041,-129.6411C624.5482,-128.6054 633.2306,-127.553 641.5922,-126.5395"/>
<polygon fill="#191970" stroke="#191970" points="615.5713,-126.1678 606.0651,-130.8458 616.4136,-133.117 615.5713,-126.1678"/>
</g>
</g>
</svg>
        <g id="navigator" transform="translate(0 0)" fill="#404254">
                <rect fill="#f2f5e9" fill-opacity="0.5" stroke="#606060" stroke-width=".5" x="0" y="0" width="60" height="60"/>
                <use id="zoomplus" xlink:href="#zoomPlus" x="17" y="9" onmousedown="handleZoom(evt,'in')"/>
                <use id="zoomminus" xlink:href="#zoomMin" x="42" y="9" onmousedown="handleZoom(evt,'out')"/>
                <use id="reset" xlink:href="#resetDef" x="30" y="36" onmousedown="handleReset()"/>
                <g id="arrowUp" xlink:href="#dirArrow" transform="translate(30 24)" onmousedown="handlePan(0,-1)">
                  <use xlink:href="#rim" fill="#404040">
                        <set attributeName="fill" to="#808080" begin="arrowUp.mouseover" end="arrowUp.mouseout"/>
                  </use>
                  <path fill="none" stroke="white" stroke-width="1.5" d="M0,-3.0v7 M-2.5,-0.5L0,-3.0L2.5,-0.5"/>
                </g>
                <g id="arrowRight" xlink:href="#dirArrow" transform="rotate(90) translate(36 -43)" onmousedown="handlePan(1,0)">
                  <use xlink:href="#rim" fill="#404040">
                        <set attributeName="fill" to="#808080" begin="arrowRight.mouseover" end="arrowRight.mouseout"/>
                  </use>
                  <path fill="none" stroke="white" stroke-width="1.5" d="M0,-3.0v7 M-2.5,-0.5L0,-3.0L2.5,-0.5"/>
                </g>
                <g id="arrowDown" xlink:href="#dirArrow" transform="rotate(180) translate(-30 -48)" onmousedown="handlePan(0,1)">
                  <use xlink:href="#rim" fill="#404040">
                        <set attributeName="fill" to="#808080" begin="arrowDown.mouseover" end="arrowDown.mouseout"/>
                  </use>
                  <path fill="none" stroke="white" stroke-width="1.5" d="M0,-3.0v7 M-2.5,-0.5L0,-3.0L2.5,-0.5"/>
                </g>
                <g id="arrowLeft" xlink:href="#dirArrow" transform="rotate(270) translate(-36 17)" onmousedown="handlePan(-1,0)">
                  <use xlink:href="#rim" fill="#404040">
                        <set attributeName="fill" to="#808080" begin="arrowLeft.mouseover" end="arrowLeft.mouseout"/>
                  </use>
                  <path fill="none" stroke="white" stroke-width="1.5" d="M0,-3.0v7 M-2.5,-0.5L0,-3.0L2.5,-0.5"/>
                </g>
        </g>
        <svg viewBox="0 0 15 15" width="100%" height="30px" preserveAspectRatio="xMaxYMin meet">
         <g id="arrow_out" transform="scale(0.3 0.3)">
          <a xlink:href="quickjs_8c_ace91f2169edfb39164b1ede1a4bdc7d6_icgraph_org.svg" target="_base">
           <rect id="button" ry="5" rx="5" y="6" x="6" height="38" width="38"
                fill="#f2f5e9" fill-opacity="0.5" stroke="#606060" stroke-width="1.0"/>
           <path id="arrow"
             d="M 11.500037,31.436501 C 11.940474,20.09759 22.043105,11.32322 32.158766,21.979434 L 37.068811,17.246167 C 37.068811,17.246167 37.088388,32 37.088388,32 L 22.160133,31.978069 C 22.160133,31.978069 26.997745,27.140456 26.997745,27.140456 C 18.528582,18.264221 13.291696,25.230495 11.500037,31.436501 z"
             style="fill:#404040;"/>
          </a>
         </g>
        </svg>
</svg>
