<?xml version="1.0" encoding="UTF-8" standalone="no"?>
<!DOCTYPE svg PUBLIC "-//W3C//DTD SVG 1.1//EN"
 "http://www.w3.org/Graphics/SVG/1.1/DTD/svg11.dtd">
<!-- Generated by graphviz version 2.40.1 (20161225.0304)
 -->
<!-- Title: js_string_compare Pages: 1 -->
<!--zoomable 601 -->
<svg id="main" version="1.1" xmlns="http://www.w3.org/2000/svg" xmlns:xlink="http://www.w3.org/1999/xlink" xml:space="preserve" onload="init(evt)">
<style type="text/css"><![CDATA[
.edge:hover path { stroke: red; }
.edge:hover polygon { stroke: red; fill: red; }
]]></style>
<script type="text/javascript"><![CDATA[
var edges = document.getElementsByTagName('g');
if (edges && edges.length) {
  for (var i=0;i<edges.length;i++) {
    if (edges[i].id.substr(0,4)=='edge') {
      edges[i].setAttribute('class','edge');
    }
  }
}
]]></script>
        <defs>
                <circle id="rim" cx="0" cy="0" r="7"/>
                <circle id="rim2" cx="0" cy="0" r="3.5"/>
                <g id="zoomPlus">
                        <use xlink:href="#rim" fill="#404040">
                                <set attributeName="fill" to="#808080" begin="zoomplus.mouseover" end="zoomplus.mouseout"/>
                        </use>
                        <path d="M-4,0h8M0,-4v8" fill="none" stroke="white" stroke-width="1.5" pointer-events="none"/>
                </g>
                <g id="zoomMin">
                        <use xlink:href="#rim" fill="#404040">
                                <set attributeName="fill" to="#808080" begin="zoomminus.mouseover" end="zoomminus.mouseout"/>
                        </use>
                        <path d="M-4,0h8" fill="none" stroke="white" stroke-width="1.5" pointer-events="none"/>
                </g>
                <g id="dirArrow">
                        <path fill="none" stroke="white" stroke-width="1.5" d="M0,-3.0v7 M-2.5,-0.5L0,-3.0L2.5,-0.5"/>
                </g>
               <g id="resetDef">
                       <use xlink:href="#rim2" fill="#404040">
                               <set attributeName="fill" to="#808080" begin="reset.mouseover" end="reset.mouseout"/>
                       </use>
               </g>
        </defs>

<script type="text/javascript">
var viewWidth = 1019;
var viewHeight = 601;
var sectionId = 'dynsection-89';
</script>
<script xlink:href="svgpan.js"/>
<svg id="graph" class="graph">
<g id="viewport">
<title>js_string_compare</title>
<!-- Node31719 -->
<g id="node1" class="node">
<title>Node31719</title>
<polygon fill="#bfbfbf" stroke="#000000" points="0,-401.5 0,-420.5 96,-420.5 96,-401.5 0,-401.5"/>
<text text-anchor="middle" x="48" y="-408.5" font-family="Helvetica,sans-Serif" font-size="10.00" fill="#000000">js_string_compare</text>
</g>
<!-- Node31720 -->
<g id="node2" class="node">
<title>Node31720</title>
<g id="a_node2"><a xlink:href="quickjs_8c.html#a341f4d5925a607eeaad8d3cbb03e9de1" target="_top" xlink:title="js_array_cmp_generic">
<polygon fill="none" stroke="#000000" points="141.5,-496.5 141.5,-515.5 253.5,-515.5 253.5,-496.5 141.5,-496.5"/>
<text text-anchor="middle" x="197.5" y="-503.5" font-family="Helvetica,sans-Serif" font-size="10.00" fill="#000000">js_array_cmp_generic</text>
</a>
</g>
</g>
<!-- Node31719&#45;&gt;Node31720 -->
<g id="edge1" class="edge">
<title>Node31719&#45;&gt;Node31720</title>
<path fill="none" stroke="#191970" d="M70.0236,-426.5691C86.8055,-438.2791 110.5948,-454.5517 132,-468 148.1413,-478.1411 167.011,-488.9853 180.3399,-496.4826"/>
<polygon fill="#191970" stroke="#191970" points="71.6783,-423.4547 61.481,-420.5798 67.6598,-429.1864 71.6783,-423.4547"/>
</g>
<!-- Node31722 -->
<g id="node4" class="node">
<title>Node31722</title>
<g id="a_node4"><a xlink:href="quickjs_8c.html#ab4e100a9cde5f7ec87c92f5e766dbbab" target="_top" xlink:title="JS_AtomIsNumericIndex1">
<polygon fill="none" stroke="#000000" points="132,-439.5 132,-458.5 263,-458.5 263,-439.5 132,-439.5"/>
<text text-anchor="middle" x="197.5" y="-446.5" font-family="Helvetica,sans-Serif" font-size="10.00" fill="#000000">JS_AtomIsNumericIndex1</text>
</a>
</g>
</g>
<!-- Node31719&#45;&gt;Node31722 -->
<g id="edge3" class="edge">
<title>Node31719&#45;&gt;Node31722</title>
<path fill="none" stroke="#191970" d="M95.6516,-423.1121C116.4726,-428.4044 140.5377,-434.5213 160.0461,-439.4799"/>
<polygon fill="#191970" stroke="#191970" points="96.2792,-419.6604 85.7252,-420.589 94.5547,-426.4447 96.2792,-419.6604"/>
</g>
<!-- Node32144 -->
<g id="node14" class="node">
<title>Node32144</title>
<g id="a_node14"><a xlink:href="quickjs_8c.html#ad48277f7656d161f492b5f1ff5d8c388" target="_top" xlink:title="js_relational_slow">
<polygon fill="none" stroke="#000000" points="150.5,-363.5 150.5,-382.5 244.5,-382.5 244.5,-363.5 150.5,-363.5"/>
<text text-anchor="middle" x="197.5" y="-370.5" font-family="Helvetica,sans-Serif" font-size="10.00" fill="#000000">js_relational_slow</text>
</a>
</g>
</g>
<!-- Node31719&#45;&gt;Node32144 -->
<g id="edge20" class="edge">
<title>Node31719&#45;&gt;Node32144</title>
<path fill="none" stroke="#191970" d="M95.6516,-398.8879C116.4726,-393.5956 140.5377,-387.4787 160.0461,-382.5201"/>
<polygon fill="#191970" stroke="#191970" points="94.5547,-395.5553 85.7252,-401.411 96.2792,-402.3396 94.5547,-395.5553"/>
</g>
<!-- Node32330 -->
<g id="node15" class="node">
<title>Node32330</title>
<g id="a_node15"><a xlink:href="quickjs_8c.html#a6b7e8c810c238daa5ac20c70c2f22b24" target="_top" xlink:title="js_strict_eq2">
<polygon fill="none" stroke="#000000" points="326,-304.5 326,-323.5 398,-323.5 398,-304.5 326,-304.5"/>
<text text-anchor="middle" x="362" y="-311.5" font-family="Helvetica,sans-Serif" font-size="10.00" fill="#000000">js_strict_eq2</text>
</a>
</g>
</g>
<!-- Node31719&#45;&gt;Node32330 -->
<g id="edge21" class="edge">
<title>Node31719&#45;&gt;Node32330</title>
<path fill="none" stroke="#191970" d="M106.4054,-414.6953C150.8611,-415.4375 212.7528,-411.9369 263,-392 301.8469,-376.5864 337.8359,-340.7536 353.6071,-323.551"/>
<polygon fill="#191970" stroke="#191970" points="106.4302,-411.1949 96.3479,-414.4503 106.2597,-418.1928 106.4302,-411.1949"/>
</g>
<!-- Node32274 -->
<g id="node30" class="node">
<title>Node32274</title>
<g id="a_node30"><a xlink:href="quickjs_8c.html#a96177f318d170980abe8c9c41cdb52d5" target="_top" xlink:title="js_string_localeCompare">
<polygon fill="none" stroke="#000000" points="135.5,-325.5 135.5,-344.5 259.5,-344.5 259.5,-325.5 135.5,-325.5"/>
<text text-anchor="middle" x="197.5" y="-332.5" font-family="Helvetica,sans-Serif" font-size="10.00" fill="#000000">js_string_localeCompare</text>
</a>
</g>
</g>
<!-- Node31719&#45;&gt;Node32274 -->
<g id="edge40" class="edge">
<title>Node31719&#45;&gt;Node32274</title>
<path fill="none" stroke="#191970" d="M67.7459,-394.9599C84.1196,-382.3299 108.4477,-365.0668 132,-354 139.93,-350.2738 148.7485,-347.1143 157.2792,-344.5051"/>
<polygon fill="#191970" stroke="#191970" points="65.217,-392.4962 59.5232,-401.4311 69.5461,-397.997 65.217,-392.4962"/>
</g>
<!-- Node31721 -->
<g id="node3" class="node">
<title>Node31721</title>
<g id="a_node3"><a xlink:href="quickjs_8c.html#a874518d6b2fb6ff79531c4a9652202f3" target="_top" xlink:title="js_array_sort">
<polygon fill="none" stroke="#000000" points="325.5,-525.5 325.5,-544.5 398.5,-544.5 398.5,-525.5 325.5,-525.5"/>
<text text-anchor="middle" x="362" y="-532.5" font-family="Helvetica,sans-Serif" font-size="10.00" fill="#000000">js_array_sort</text>
</a>
</g>
</g>
<!-- Node31720&#45;&gt;Node31721 -->
<g id="edge2" class="edge">
<title>Node31720&#45;&gt;Node31721</title>
<path fill="none" stroke="#191970" d="M261.9018,-517.3535C283.4474,-521.1518 306.7099,-525.2528 325.382,-528.5445"/>
<polygon fill="#191970" stroke="#191970" points="262.2752,-513.8654 251.8194,-515.5761 261.0598,-520.7591 262.2752,-513.8654"/>
</g>
<!-- Node31723 -->
<g id="node5" class="node">
<title>Node31723</title>
<g id="a_node5"><a xlink:href="quickjs_8c.html#add3eea1f6d626963ade3c28a1fd563d1" target="_top" xlink:title="JS_AtomIsNumericIndex">
<polygon fill="none" stroke="#000000" points="299,-487.5 299,-506.5 425,-506.5 425,-487.5 299,-487.5"/>
<text text-anchor="middle" x="362" y="-494.5" font-family="Helvetica,sans-Serif" font-size="10.00" fill="#000000">JS_AtomIsNumericIndex</text>
</a>
</g>
</g>
<!-- Node31722&#45;&gt;Node31723 -->
<g id="edge4" class="edge">
<title>Node31722&#45;&gt;Node31723</title>
<path fill="none" stroke="#191970" d="M240.2308,-461.4686C267.9894,-469.5683 303.6257,-479.9668 329.1633,-487.4185"/>
<polygon fill="#191970" stroke="#191970" points="240.9738,-458.0395 230.3937,-458.5982 239.0129,-464.7592 240.9738,-458.0395"/>
</g>
<!-- Node31885 -->
<g id="node12" class="node">
<title>Node31885</title>
<g id="a_node12"><a xlink:href="quickjs_8c.html#ab50618f1bf78e444caa6da0e3e2785d7" target="_top" xlink:title="JS_DefineProperty">
<polygon fill="none" stroke="#ff0000" points="627.5,-430.5 627.5,-449.5 726.5,-449.5 726.5,-430.5 627.5,-430.5"/>
<text text-anchor="middle" x="677" y="-437.5" font-family="Helvetica,sans-Serif" font-size="10.00" fill="#000000">JS_DefineProperty</text>
</a>
</g>
</g>
<!-- Node31722&#45;&gt;Node31885 -->
<g id="edge19" class="edge">
<title>Node31722&#45;&gt;Node31885</title>
<path fill="none" stroke="#191970" d="M273.4181,-447.5751C372.5764,-445.7139 543.4021,-442.5076 627.4123,-440.9307"/>
<polygon fill="#191970" stroke="#191970" points="273.0995,-444.0803 263.167,-447.7675 273.231,-451.0791 273.0995,-444.0803"/>
</g>
<!-- Node31724 -->
<g id="node6" class="node">
<title>Node31724</title>
<g id="a_node6"><a xlink:href="quickjs_8c.html#a5762c57ae0c9937e986040c01222833a" target="_top" xlink:title="JS_GetPropertyInternal">
<polygon fill="none" stroke="#ff0000" points="461,-468.5 461,-487.5 580,-487.5 580,-468.5 461,-468.5"/>
<text text-anchor="middle" x="520.5" y="-475.5" font-family="Helvetica,sans-Serif" font-size="10.00" fill="#000000">JS_GetPropertyInternal</text>
</a>
</g>
</g>
<!-- Node31723&#45;&gt;Node31724 -->
<g id="edge5" class="edge">
<title>Node31723&#45;&gt;Node31724</title>
<path fill="none" stroke="#191970" d="M435.1721,-488.2286C443.812,-487.1929 452.5489,-486.1456 460.9687,-485.1362"/>
<polygon fill="#191970" stroke="#191970" points="434.6111,-484.7707 425.0988,-489.4361 435.4443,-491.7209 434.6111,-484.7707"/>
</g>
<!-- Node32293 -->
<g id="node9" class="node">
<title>Node32293</title>
<g id="a_node9"><a xlink:href="quickjs_8c.html#a9d6d0a9704951d01c128975e0d2213f8" target="_top" xlink:title="JS_HasProperty">
<polygon fill="none" stroke="#ff0000" points="788.5,-563.5 788.5,-582.5 877.5,-582.5 877.5,-563.5 788.5,-563.5"/>
<text text-anchor="middle" x="833" y="-570.5" font-family="Helvetica,sans-Serif" font-size="10.00" fill="#000000">JS_HasProperty</text>
</a>
</g>
</g>
<!-- Node31723&#45;&gt;Node32293 -->
<g id="edge9" class="edge">
<title>Node31723&#45;&gt;Node32293</title>
<path fill="none" stroke="#191970" d="M414.4169,-510.3219C418.1068,-512.0058 421.6767,-513.8911 425,-516 445.1948,-528.8149 439.3792,-545.7731 461,-556 569.2648,-607.2104 715.6374,-593.2077 788.2734,-581.5565"/>
<polygon fill="#191970" stroke="#191970" points="415.6524,-507.0463 405.0697,-506.539 413.0263,-513.535 415.6524,-507.0463"/>
</g>
<!-- Node31856 -->
<g id="node10" class="node">
<title>Node31856</title>
<g id="a_node10"><a xlink:href="quickjs_8c.html#ad7f03358a8088ca920ab308225c6b2e6" target="_top" xlink:title="JS_SetPropertyInternal">
<polygon fill="none" stroke="#ff0000" points="774,-506.5 774,-525.5 892,-525.5 892,-506.5 774,-506.5"/>
<text text-anchor="middle" x="833" y="-513.5" font-family="Helvetica,sans-Serif" font-size="10.00" fill="#000000">JS_SetPropertyInternal</text>
</a>
</g>
</g>
<!-- Node31723&#45;&gt;Node31856 -->
<g id="edge11" class="edge">
<title>Node31723&#45;&gt;Node31856</title>
<path fill="none" stroke="#191970" d="M407.8246,-509.6841C413.6659,-511.6319 419.5155,-513.7503 425,-516 441.7382,-522.866 443.439,-530.6502 461,-535 578.8517,-564.1917 723.9278,-540.3455 792.9063,-525.5558"/>
<polygon fill="#191970" stroke="#191970" points="408.6585,-506.2765 398.0679,-506.5741 406.5326,-512.9458 408.6585,-506.2765"/>
</g>
<!-- Node31921 -->
<g id="node11" class="node">
<title>Node31921</title>
<g id="a_node11"><a xlink:href="quickjs_8c.html#ad5565bb5cfd5321f181573257f3b0c91" target="_top" xlink:title="JS_CreateProperty">
<polygon fill="none" stroke="#ff0000" points="470.5,-506.5 470.5,-525.5 570.5,-525.5 570.5,-506.5 470.5,-506.5"/>
<text text-anchor="middle" x="520.5" y="-513.5" font-family="Helvetica,sans-Serif" font-size="10.00" fill="#000000">JS_CreateProperty</text>
</a>
</g>
</g>
<!-- Node31723&#45;&gt;Node31921 -->
<g id="edge13" class="edge">
<title>Node31723&#45;&gt;Node31921</title>
<path fill="none" stroke="#191970" d="M435.0487,-505.7566C446.975,-507.1863 459.0898,-508.6385 470.3037,-509.9828"/>
<polygon fill="#191970" stroke="#191970" points="435.4443,-502.2791 425.0988,-504.5639 434.6111,-509.2293 435.4443,-502.2791"/>
</g>
<!-- Node31731 -->
<g id="node7" class="node">
<title>Node31731</title>
<g id="a_node7"><a xlink:href="quickjs_8c.html#ac2894ff4edcdb4e6841bcce9c76081e3" target="_top" xlink:title="JS_CallInternal">
<polygon fill="none" stroke="#ff0000" points="928,-468.5 928,-487.5 1011,-487.5 1011,-468.5 928,-468.5"/>
<text text-anchor="middle" x="969.5" y="-475.5" font-family="Helvetica,sans-Serif" font-size="10.00" fill="#000000">JS_CallInternal</text>
</a>
</g>
</g>
<!-- Node31724&#45;&gt;Node31731 -->
<g id="edge6" class="edge">
<title>Node31724&#45;&gt;Node31731</title>
<path fill="none" stroke="#191970" d="M590.1601,-478C684.6444,-478 850.4751,-478 927.7142,-478"/>
<polygon fill="#191970" stroke="#191970" points="590.1238,-474.5001 580.1237,-478 590.1237,-481.5001 590.1238,-474.5001"/>
</g>
<!-- Node32062 -->
<g id="node8" class="node">
<title>Node32062</title>
<g id="a_node8"><a xlink:href="quickjs_8c.html#a45df491949e8e055e732eb13c446d47b" target="_top" xlink:title="js_proxy_get">
<polygon fill="none" stroke="#000000" points="641,-392.5 641,-411.5 713,-411.5 713,-392.5 641,-392.5"/>
<text text-anchor="middle" x="677" y="-399.5" font-family="Helvetica,sans-Serif" font-size="10.00" fill="#000000">js_proxy_get</text>
</a>
</g>
</g>
<!-- Node31724&#45;&gt;Node32062 -->
<g id="edge8" class="edge">
<title>Node31724&#45;&gt;Node32062</title>
<path fill="none" stroke="#191970" d="M542.6358,-462.7327C561.4892,-450.2405 589.6374,-432.7737 616,-421 624.0011,-417.4267 632.873,-414.2494 641.3164,-411.564"/>
<polygon fill="#191970" stroke="#191970" points="540.5228,-459.9357 534.1756,-468.4189 544.4276,-465.7454 540.5228,-459.9357"/>
</g>
<!-- Node31731&#45;&gt;Node31731 -->
<g id="edge7" class="edge">
<title>Node31731&#45;&gt;Node31731</title>
<path fill="none" stroke="#191970" d="M944.2025,-497.0292C945.5824,-502.128 954.0149,-506 969.5,-506 993.6719,-506 1000.6591,-496.5653 990.4615,-487.7571"/>
<polygon fill="#191970" stroke="#191970" points="947.4728,-498.2982 948.5385,-487.7571 941.1319,-495.3329 947.4728,-498.2982"/>
</g>
<!-- Node32293&#45;&gt;Node31731 -->
<g id="edge10" class="edge">
<title>Node32293&#45;&gt;Node31731</title>
<path fill="none" stroke="#191970" d="M857.1917,-557.8949C867.951,-551.0553 880.712,-542.7752 892,-535 915.3833,-518.8936 941.8865,-499.0427 957.0545,-487.5231"/>
<polygon fill="#191970" stroke="#191970" points="855.2859,-554.9589 848.7008,-563.2587 859.0245,-560.8769 855.2859,-554.9589"/>
</g>
<!-- Node31856&#45;&gt;Node31731 -->
<g id="edge12" class="edge">
<title>Node31856&#45;&gt;Node31731</title>
<path fill="none" stroke="#191970" d="M877.2487,-503.6817C896.003,-498.4607 917.528,-492.4684 935.0663,-487.5859"/>
<polygon fill="#191970" stroke="#191970" points="876.1397,-500.3572 867.4447,-506.411 878.0171,-507.1008 876.1397,-500.3572"/>
</g>
<!-- Node31921&#45;&gt;Node31856 -->
<g id="edge18" class="edge">
<title>Node31921&#45;&gt;Node31856</title>
<path fill="none" stroke="#191970" d="M580.7776,-516C636.4213,-516 718.5691,-516 773.8509,-516"/>
<polygon fill="#191970" stroke="#191970" points="580.7086,-512.5001 570.7085,-516 580.7085,-519.5001 580.7086,-512.5001"/>
</g>
<!-- Node31921&#45;&gt;Node31885 -->
<g id="edge14" class="edge">
<title>Node31921&#45;&gt;Node31885</title>
<path fill="none" stroke="#191970" d="M564.4612,-503.1877C569.7634,-501.2843 575.0498,-499.2117 580,-497 611.0304,-483.1359 644.6904,-461.7857 663.0702,-449.5307"/>
<polygon fill="#191970" stroke="#191970" points="563.3042,-499.8843 554.9691,-506.4246 565.5636,-506.5096 563.3042,-499.8843"/>
</g>
<!-- Node31885&#45;&gt;Node31731 -->
<g id="edge16" class="edge">
<title>Node31885&#45;&gt;Node31731</title>
<path fill="none" stroke="#191970" d="M736.7147,-445.5733C779.9368,-449.8733 839.7027,-456.3664 892,-464 903.6352,-465.6983 916.1991,-467.8356 927.7548,-469.9251"/>
<polygon fill="#191970" stroke="#191970" points="736.9458,-442.0792 726.6508,-444.582 736.2595,-449.0455 736.9458,-442.0792"/>
</g>
<!-- Node31885&#45;&gt;Node31856 -->
<g id="edge15" class="edge">
<title>Node31885&#45;&gt;Node31856</title>
<path fill="none" stroke="#191970" d="M705.8575,-454.0588C737.1653,-469.3113 786.2954,-493.2465 813.4029,-506.4527"/>
<polygon fill="#191970" stroke="#191970" points="707.2803,-450.8587 696.7575,-449.6255 704.2145,-457.1517 707.2803,-450.8587"/>
</g>
<!-- Node32039 -->
<g id="node13" class="node">
<title>Node32039</title>
<g id="a_node13"><a xlink:href="quickjs_8c.html#a7e5b77a4851eee6f666581d051979392" target="_top" xlink:title="js_proxy_define_own\l_property">
<polygon fill="none" stroke="#000000" points="779,-365 779,-395 887,-395 887,-365 779,-365"/>
<text text-anchor="start" x="787" y="-383" font-family="Helvetica,sans-Serif" font-size="10.00" fill="#000000">js_proxy_define_own</text>
<text text-anchor="middle" x="833" y="-372" font-family="Helvetica,sans-Serif" font-size="10.00" fill="#000000">_property</text>
</a>
</g>
</g>
<!-- Node31885&#45;&gt;Node32039 -->
<g id="edge17" class="edge">
<title>Node31885&#45;&gt;Node32039</title>
<path fill="none" stroke="#191970" d="M719.4956,-427.3969C725.7374,-425.3628 732.0613,-423.1994 738,-421 759.0567,-413.2016 782.2,-403.2437 800.3719,-395.0944"/>
<polygon fill="#191970" stroke="#191970" points="718.2906,-424.1073 709.8217,-430.4735 720.4122,-430.7781 718.2906,-424.1073"/>
</g>
<!-- Node32003 -->
<g id="node16" class="node">
<title>Node32003</title>
<g id="a_node16"><a xlink:href="quickjs_8c.html#a2ef89587b2e4287d4bd0417788c8e21e" target="_top" xlink:title="js_array_includes">
<polygon fill="none" stroke="#ff0000" points="474.5,-190.5 474.5,-209.5 566.5,-209.5 566.5,-190.5 474.5,-190.5"/>
<text text-anchor="middle" x="520.5" y="-197.5" font-family="Helvetica,sans-Serif" font-size="10.00" fill="#000000">js_array_includes</text>
</a>
</g>
</g>
<!-- Node32330&#45;&gt;Node32003 -->
<g id="edge22" class="edge">
<title>Node32330&#45;&gt;Node32003</title>
<path fill="none" stroke="#191970" d="M375.7991,-296.5698C393.4382,-275.3835 425.9193,-239.8826 461,-219 467.3361,-215.2283 474.5043,-212.1197 481.6154,-209.5881"/>
<polygon fill="#191970" stroke="#191970" points="372.9921,-294.4738 369.3856,-304.4359 378.4174,-298.8973 372.9921,-294.4738"/>
</g>
<!-- Node32004 -->
<g id="node17" class="node">
<title>Node32004</title>
<g id="a_node17"><a xlink:href="quickjs_8c.html#af4bd013e63a5d5d55e4d4700d80de12e" target="_top" xlink:title="js_array_indexOf">
<polygon fill="none" stroke="#000000" points="475.5,-380.5 475.5,-399.5 565.5,-399.5 565.5,-380.5 475.5,-380.5"/>
<text text-anchor="middle" x="520.5" y="-387.5" font-family="Helvetica,sans-Serif" font-size="10.00" fill="#000000">js_array_indexOf</text>
</a>
</g>
</g>
<!-- Node32330&#45;&gt;Node32004 -->
<g id="edge23" class="edge">
<title>Node32330&#45;&gt;Node32004</title>
<path fill="none" stroke="#191970" d="M384.7835,-328.9925C404.3913,-341.4315 433.7468,-358.9682 461,-371 469.0352,-374.5474 477.9424,-377.7521 486.3652,-380.4758"/>
<polygon fill="#191970" stroke="#191970" points="386.5531,-325.9693 376.2481,-323.5082 382.7691,-331.8585 386.5531,-325.9693"/>
</g>
<!-- Node32006 -->
<g id="node18" class="node">
<title>Node32006</title>
<g id="a_node18"><a xlink:href="quickjs_8c.html#acb566d2d7d0ce8fed7bb7f73d3baa508" target="_top" xlink:title="js_array_lastIndexOf">
<polygon fill="none" stroke="#000000" points="467,-342.5 467,-361.5 574,-361.5 574,-342.5 467,-342.5"/>
<text text-anchor="middle" x="520.5" y="-349.5" font-family="Helvetica,sans-Serif" font-size="10.00" fill="#000000">js_array_lastIndexOf</text>
</a>
</g>
</g>
<!-- Node32330&#45;&gt;Node32006 -->
<g id="edge24" class="edge">
<title>Node32330&#45;&gt;Node32006</title>
<path fill="none" stroke="#191970" d="M408.2313,-325.0838C431.1992,-330.5903 458.6728,-337.1771 480.6932,-342.4564"/>
<polygon fill="#191970" stroke="#191970" points="408.9036,-321.6459 398.3631,-322.718 407.2715,-328.453 408.9036,-321.6459"/>
</g>
<!-- Node32331 -->
<g id="node19" class="node">
<title>Node32331</title>
<g id="a_node19"><a xlink:href="quickjs_8c.html#a24be89a128d1cd7c0908604815b2b854" target="_top" xlink:title="js_same_value">
<polygon fill="none" stroke="#ff0000" points="479.5,-228.5 479.5,-247.5 561.5,-247.5 561.5,-228.5 479.5,-228.5"/>
<text text-anchor="middle" x="520.5" y="-235.5" font-family="Helvetica,sans-Serif" font-size="10.00" fill="#000000">js_same_value</text>
</a>
</g>
</g>
<!-- Node32330&#45;&gt;Node32331 -->
<g id="edge25" class="edge">
<title>Node32330&#45;&gt;Node32331</title>
<path fill="none" stroke="#191970" d="M384.7835,-299.0075C404.3913,-286.5685 433.7468,-269.0318 461,-257 469.0352,-253.4526 477.9424,-250.2479 486.3652,-247.5242"/>
<polygon fill="#191970" stroke="#191970" points="382.7691,-296.1415 376.2481,-304.4918 386.5531,-302.0307 382.7691,-296.1415"/>
</g>
<!-- Node32335 -->
<g id="node28" class="node">
<title>Node32335</title>
<g id="a_node28"><a xlink:href="quickjs_8c.html#a28a2815f15eb2c3477a05e9c7e4394b8" target="_top" xlink:title="js_same_value_zero">
<polygon fill="none" stroke="#ff0000" points="467.5,-304.5 467.5,-323.5 573.5,-323.5 573.5,-304.5 467.5,-304.5"/>
<text text-anchor="middle" x="520.5" y="-311.5" font-family="Helvetica,sans-Serif" font-size="10.00" fill="#000000">js_same_value_zero</text>
</a>
</g>
</g>
<!-- Node32330&#45;&gt;Node32335 -->
<g id="edge38" class="edge">
<title>Node32330&#45;&gt;Node32335</title>
<path fill="none" stroke="#191970" d="M408.5843,-314C427.0607,-314 448.4083,-314 467.4739,-314"/>
<polygon fill="#191970" stroke="#191970" points="408.3631,-310.5001 398.3631,-314 408.3631,-317.5001 408.3631,-310.5001"/>
</g>
<!-- Node32337 -->
<g id="node29" class="node">
<title>Node32337</title>
<g id="a_node29"><a xlink:href="quickjs_8c.html#a2c7ed6633056510dfefd7919259f189d" target="_top" xlink:title="js_strict_eq">
<polygon fill="none" stroke="#ff0000" points="487,-266.5 487,-285.5 554,-285.5 554,-266.5 487,-266.5"/>
<text text-anchor="middle" x="520.5" y="-273.5" font-family="Helvetica,sans-Serif" font-size="10.00" fill="#000000">js_strict_eq</text>
</a>
</g>
</g>
<!-- Node32330&#45;&gt;Node32337 -->
<g id="edge39" class="edge">
<title>Node32330&#45;&gt;Node32337</title>
<path fill="none" stroke="#191970" d="M408.3968,-302.8765C433.4895,-296.8606 463.9215,-289.5646 486.743,-284.0932"/>
<polygon fill="#191970" stroke="#191970" points="407.2715,-299.547 398.3631,-305.282 408.9036,-306.3541 407.2715,-299.547"/>
</g>
<!-- Node32331&#45;&gt;Node31731 -->
<g id="edge29" class="edge">
<title>Node32331&#45;&gt;Node31731</title>
<path fill="none" stroke="#191970" d="M571.8758,-235.6999C616.8608,-235.2624 683.384,-238.4797 738,-257 814.8307,-283.0533 834.7627,-297.5055 892,-355 927.792,-390.9529 955.1558,-446.2744 965.2616,-468.3858"/>
<polygon fill="#191970" stroke="#191970" points="571.7135,-232.202 561.7714,-235.8632 571.8267,-239.2011 571.7135,-232.202"/>
</g>
<!-- Node32331&#45;&gt;Node32062 -->
<g id="edge36" class="edge">
<title>Node32331&#45;&gt;Node32062</title>
<path fill="none" stroke="#191970" d="M570.8607,-249.871C574.1973,-251.8866 577.2981,-254.2437 580,-257 619.277,-297.067 578.0611,-336.6637 616,-378 622.6179,-385.2106 631.6735,-390.285 640.7821,-393.8448"/>
<polygon fill="#191970" stroke="#191970" points="572.1063,-246.5826 561.5902,-245.2932 569.007,-252.8591 572.1063,-246.5826"/>
</g>
<!-- Node32331&#45;&gt;Node31885 -->
<g id="edge30" class="edge">
<title>Node32331&#45;&gt;Node31885</title>
<path fill="none" stroke="#191970" d="M570.6459,-249.3804C574.1019,-251.5033 577.2842,-254.0191 580,-257 630.2573,-312.1633 565.546,-366.0165 616,-421 619.5247,-424.8412 623.8113,-427.9123 628.4613,-430.3668"/>
<polygon fill="#191970" stroke="#191970" points="572.1124,-246.2007 561.6013,-244.8715 568.9893,-252.4654 572.1124,-246.2007"/>
</g>
<!-- Node32331&#45;&gt;Node32039 -->
<g id="edge35" class="edge">
<title>Node32331&#45;&gt;Node32039</title>
<path fill="none" stroke="#191970" d="M570.8572,-250.3638C574.1496,-252.2677 577.2444,-254.4647 580,-257 610.7954,-285.3329 583.2371,-317.9672 616,-344 640.5546,-363.5107 722.9293,-372.8047 778.8212,-376.9605"/>
<polygon fill="#191970" stroke="#191970" points="572.3049,-247.1762 561.7781,-245.9778 569.2599,-253.4793 572.3049,-247.1762"/>
</g>
<!-- Node31846 -->
<g id="node20" class="node">
<title>Node31846</title>
<g id="a_node20"><a xlink:href="quickjs_8c.html#a8160f52fd4197ade647faa287b34862e" target="_top" xlink:title="js_array_buffer_slice">
<polygon fill="none" stroke="#000000" points="623.5,-190.5 623.5,-209.5 730.5,-209.5 730.5,-190.5 623.5,-190.5"/>
<text text-anchor="middle" x="677" y="-197.5" font-family="Helvetica,sans-Serif" font-size="10.00" fill="#000000">js_array_buffer_slice</text>
</a>
</g>
</g>
<!-- Node32331&#45;&gt;Node31846 -->
<g id="edge26" class="edge">
<title>Node32331&#45;&gt;Node31846</title>
<path fill="none" stroke="#191970" d="M569.7892,-226.032C591.7203,-220.7069 617.1849,-214.5238 637.7924,-209.5201"/>
<polygon fill="#191970" stroke="#191970" points="568.8833,-222.6502 559.9916,-228.411 570.5351,-229.4525 568.8833,-222.6502"/>
</g>
<!-- Node31840 -->
<g id="node21" class="node">
<title>Node31840</title>
<g id="a_node21"><a xlink:href="quickjs_8c.html#a3b818b1ca9d2d4aaa9b55b1cc54c1bc4" target="_top" xlink:title="JS_ArraySpeciesCreate">
<polygon fill="none" stroke="#ff0000" points="616,-152.5 616,-171.5 738,-171.5 738,-152.5 616,-152.5"/>
<text text-anchor="middle" x="677" y="-159.5" font-family="Helvetica,sans-Serif" font-size="10.00" fill="#000000">JS_ArraySpeciesCreate</text>
</a>
</g>
</g>
<!-- Node32331&#45;&gt;Node31840 -->
<g id="edge27" class="edge">
<title>Node32331&#45;&gt;Node31840</title>
<path fill="none" stroke="#191970" d="M569.4479,-224.6344C573.1228,-222.9538 576.6855,-221.0815 580,-219 599.7016,-206.6274 596.2544,-193.3022 616,-181 622.1194,-177.1874 629.0638,-174.086 636.0198,-171.5805"/>
<polygon fill="#191970" stroke="#191970" points="568.0939,-221.4067 560.1591,-228.4273 570.7402,-227.8872 568.0939,-221.4067"/>
</g>
<!-- Node31791 -->
<g id="node22" class="node">
<title>Node31791</title>
<g id="a_node22"><a xlink:href="quickjs_8c.html#afd4ef2d701fa0702f321925b61c57bbf" target="_top" xlink:title="js_call_bound_function">
<polygon fill="none" stroke="#ff0000" points="619,-114.5 619,-133.5 735,-133.5 735,-114.5 619,-114.5"/>
<text text-anchor="middle" x="677" y="-121.5" font-family="Helvetica,sans-Serif" font-size="10.00" fill="#000000">js_call_bound_function</text>
</a>
</g>
</g>
<!-- Node32331&#45;&gt;Node31791 -->
<g id="edge28" class="edge">
<title>Node32331&#45;&gt;Node31791</title>
<path fill="none" stroke="#191970" d="M570.7167,-225.4796C574.0413,-223.6117 577.1818,-221.4656 580,-219 608.1298,-194.39 587.7825,-167.5094 616,-143 620.4383,-139.1449 625.6535,-136.0717 631.1336,-133.6219"/>
<polygon fill="#191970" stroke="#191970" points="569.123,-222.3616 561.5814,-229.8031 572.1175,-228.6888 569.123,-222.3616"/>
</g>
<!-- Node31875 -->
<g id="node23" class="node">
<title>Node31875</title>
<g id="a_node23"><a xlink:href="quickjs_8c.html#a55de0909f8b4c06625f67b2fdb670279" target="_top" xlink:title="js_is_standard_regexp">
<polygon fill="none" stroke="#ff0000" points="620,-76.5 620,-95.5 734,-95.5 734,-76.5 620,-76.5"/>
<text text-anchor="middle" x="677" y="-83.5" font-family="Helvetica,sans-Serif" font-size="10.00" fill="#000000">js_is_standard_regexp</text>
</a>
</g>
</g>
<!-- Node32331&#45;&gt;Node31875 -->
<g id="edge31" class="edge">
<title>Node32331&#45;&gt;Node31875</title>
<path fill="none" stroke="#191970" d="M570.5138,-226.2546C573.9741,-224.2117 577.195,-221.814 580,-219 617.5102,-181.369 578.3556,-142.4968 616,-105 619.9293,-101.0861 624.6508,-97.9762 629.7049,-95.5057"/>
<polygon fill="#191970" stroke="#191970" points="568.9762,-223.1104 561.5197,-230.6371 572.0424,-229.4031 568.9762,-223.1104"/>
</g>
<!-- Node32332 -->
<g id="node24" class="node">
<title>Node32332</title>
<g id="a_node24"><a xlink:href="quickjs_8c.html#a92da278473611d4f0b73382fe0db113b" target="_top" xlink:title="js_object_is">
<polygon fill="none" stroke="#000000" points="643,-38.5 643,-57.5 711,-57.5 711,-38.5 643,-38.5"/>
<text text-anchor="middle" x="677" y="-45.5" font-family="Helvetica,sans-Serif" font-size="10.00" fill="#000000">js_object_is</text>
</a>
</g>
</g>
<!-- Node32331&#45;&gt;Node32332 -->
<g id="edge32" class="edge">
<title>Node32331&#45;&gt;Node32332</title>
<path fill="none" stroke="#191970" d="M570.5923,-226.5704C574.0601,-224.4583 577.2598,-221.9584 580,-219 627.1764,-168.0673 568.642,-117.7639 616,-67 623.0368,-59.4571 633.0113,-54.8871 642.8604,-52.1254"/>
<polygon fill="#191970" stroke="#191970" points="568.9348,-223.4855 561.5289,-231.062 572.0432,-229.7575 568.9348,-223.4855"/>
</g>
<!-- Node31832 -->
<g id="node25" class="node">
<title>Node31832</title>
<g id="a_node25"><a xlink:href="quickjs_8c.html#a192c7bd4fc5264ccdf89e13ed5bc0dcc" target="_top" xlink:title="js_promise_resolve">
<polygon fill="none" stroke="#ff0000" points="626.5,-.5 626.5,-19.5 727.5,-19.5 727.5,-.5 626.5,-.5"/>
<text text-anchor="middle" x="677" y="-7.5" font-family="Helvetica,sans-Serif" font-size="10.00" fill="#000000">js_promise_resolve</text>
</a>
</g>
</g>
<!-- Node32331&#45;&gt;Node31832 -->
<g id="edge33" class="edge">
<title>Node32331&#45;&gt;Node31832</title>
<path fill="none" stroke="#191970" d="M570.7407,-226.7047C574.1758,-224.5631 577.3275,-222.0197 580,-219 636.9609,-154.6391 558.8097,-93.1571 616,-29 619.469,-25.1084 623.7203,-22.0053 628.3498,-19.5324"/>
<polygon fill="#191970" stroke="#191970" points="569.086,-223.6192 561.7293,-231.2434 572.2348,-229.871 569.086,-223.6192"/>
</g>
<!-- Node31828 -->
<g id="node26" class="node">
<title>Node31828</title>
<g id="a_node26"><a xlink:href="quickjs_8c.html#ac13d124ad5c7f1234cae3076077e782e" target="_top" xlink:title="js_promise_resolve\l_function_call">
<polygon fill="none" stroke="#ff0000" points="626.5,-305 626.5,-335 727.5,-335 727.5,-305 626.5,-305"/>
<text text-anchor="start" x="634.5" y="-323" font-family="Helvetica,sans-Serif" font-size="10.00" fill="#000000">js_promise_resolve</text>
<text text-anchor="middle" x="677" y="-312" font-family="Helvetica,sans-Serif" font-size="10.00" fill="#000000">_function_call</text>
</a>
</g>
</g>
<!-- Node32331&#45;&gt;Node31828 -->
<g id="edge34" class="edge">
<title>Node32331&#45;&gt;Node31828</title>
<path fill="none" stroke="#191970" d="M569.4479,-251.3656C573.1228,-253.0462 576.6855,-254.9185 580,-257 599.7016,-269.3726 596.8081,-281.8507 616,-295 621.3817,-298.6873 627.3911,-301.972 633.4817,-304.8505"/>
<polygon fill="#191970" stroke="#191970" points="570.7402,-248.1128 560.1591,-247.5727 568.0939,-254.5933 570.7402,-248.1128"/>
</g>
<!-- Node31855 -->
<g id="node27" class="node">
<title>Node31855</title>
<g id="a_node27"><a xlink:href="quickjs_8c.html#ad38b16d301e8f3661cf4c115c86511b3" target="_top" xlink:title="js_proxy_set">
<polygon fill="none" stroke="#000000" points="641,-266.5 641,-285.5 713,-285.5 713,-266.5 641,-266.5"/>
<text text-anchor="middle" x="677" y="-273.5" font-family="Helvetica,sans-Serif" font-size="10.00" fill="#000000">js_proxy_set</text>
</a>
</g>
</g>
<!-- Node32331&#45;&gt;Node31855 -->
<g id="edge37" class="edge">
<title>Node32331&#45;&gt;Node31855</title>
<path fill="none" stroke="#191970" d="M569.9019,-249.9954C592.8658,-255.5712 619.684,-262.083 640.7393,-267.1955"/>
<polygon fill="#191970" stroke="#191970" points="570.5351,-246.5475 559.9916,-247.589 568.8833,-253.3498 570.5351,-246.5475"/>
</g>
</g>
</svg>
        <g id="navigator" transform="translate(0 0)" fill="#404254">
                <rect fill="#f2f5e9" fill-opacity="0.5" stroke="#606060" stroke-width=".5" x="0" y="0" width="60" height="60"/>
                <use id="zoomplus" xlink:href="#zoomPlus" x="17" y="9" onmousedown="handleZoom(evt,'in')"/>
                <use id="zoomminus" xlink:href="#zoomMin" x="42" y="9" onmousedown="handleZoom(evt,'out')"/>
                <use id="reset" xlink:href="#resetDef" x="30" y="36" onmousedown="handleReset()"/>
                <g id="arrowUp" xlink:href="#dirArrow" transform="translate(30 24)" onmousedown="handlePan(0,-1)">
                  <use xlink:href="#rim" fill="#404040">
                        <set attributeName="fill" to="#808080" begin="arrowUp.mouseover" end="arrowUp.mouseout"/>
                  </use>
                  <path fill="none" stroke="white" stroke-width="1.5" d="M0,-3.0v7 M-2.5,-0.5L0,-3.0L2.5,-0.5"/>
                </g>
                <g id="arrowRight" xlink:href="#dirArrow" transform="rotate(90) translate(36 -43)" onmousedown="handlePan(1,0)">
                  <use xlink:href="#rim" fill="#404040">
                        <set attributeName="fill" to="#808080" begin="arrowRight.mouseover" end="arrowRight.mouseout"/>
                  </use>
                  <path fill="none" stroke="white" stroke-width="1.5" d="M0,-3.0v7 M-2.5,-0.5L0,-3.0L2.5,-0.5"/>
                </g>
                <g id="arrowDown" xlink:href="#dirArrow" transform="rotate(180) translate(-30 -48)" onmousedown="handlePan(0,1)">
                  <use xlink:href="#rim" fill="#404040">
                        <set attributeName="fill" to="#808080" begin="arrowDown.mouseover" end="arrowDown.mouseout"/>
                  </use>
                  <path fill="none" stroke="white" stroke-width="1.5" d="M0,-3.0v7 M-2.5,-0.5L0,-3.0L2.5,-0.5"/>
                </g>
                <g id="arrowLeft" xlink:href="#dirArrow" transform="rotate(270) translate(-36 17)" onmousedown="handlePan(-1,0)">
                  <use xlink:href="#rim" fill="#404040">
                        <set attributeName="fill" to="#808080" begin="arrowLeft.mouseover" end="arrowLeft.mouseout"/>
                  </use>
                  <path fill="none" stroke="white" stroke-width="1.5" d="M0,-3.0v7 M-2.5,-0.5L0,-3.0L2.5,-0.5"/>
                </g>
        </g>
        <svg viewBox="0 0 15 15" width="100%" height="30px" preserveAspectRatio="xMaxYMin meet">
         <g id="arrow_out" transform="scale(0.3 0.3)">
          <a xlink:href="quickjs_8c_a3d9b165d4274aa43e051caba9bcbbe9f_icgraph_org.svg" target="_base">
           <rect id="button" ry="5" rx="5" y="6" x="6" height="38" width="38"
                fill="#f2f5e9" fill-opacity="0.5" stroke="#606060" stroke-width="1.0"/>
           <path id="arrow"
             d="M 11.500037,31.436501 C 11.940474,20.09759 22.043105,11.32322 32.158766,21.979434 L 37.068811,17.246167 C 37.068811,17.246167 37.088388,32 37.088388,32 L 22.160133,31.978069 C 22.160133,31.978069 26.997745,27.140456 26.997745,27.140456 C 18.528582,18.264221 13.291696,25.230495 11.500037,31.436501 z"
             style="fill:#404040;"/>
          </a>
         </g>
        </svg>
</svg>
