<?xml version="1.0" encoding="UTF-8" standalone="no"?>
<!DOCTYPE svg PUBLIC "-//W3C//DTD SVG 1.1//EN"
 "http://www.w3.org/Graphics/SVG/1.1/DTD/svg11.dtd">
<!-- Generated by graphviz version 2.40.1 (20161225.0304)
 -->
<!-- Title: typed_array_is_detached Pages: 1 -->
<!--zoomable 552 -->
<svg id="main" version="1.1" xmlns="http://www.w3.org/2000/svg" xmlns:xlink="http://www.w3.org/1999/xlink" xml:space="preserve" onload="init(evt)">
<style type="text/css"><![CDATA[
.edge:hover path { stroke: red; }
.edge:hover polygon { stroke: red; fill: red; }
]]></style>
<script type="text/javascript"><![CDATA[
var edges = document.getElementsByTagName('g');
if (edges && edges.length) {
  for (var i=0;i<edges.length;i++) {
    if (edges[i].id.substr(0,4)=='edge') {
      edges[i].setAttribute('class','edge');
    }
  }
}
]]></script>
        <defs>
                <circle id="rim" cx="0" cy="0" r="7"/>
                <circle id="rim2" cx="0" cy="0" r="3.5"/>
                <g id="zoomPlus">
                        <use xlink:href="#rim" fill="#404040">
                                <set attributeName="fill" to="#808080" begin="zoomplus.mouseover" end="zoomplus.mouseout"/>
                        </use>
                        <path d="M-4,0h8M0,-4v8" fill="none" stroke="white" stroke-width="1.5" pointer-events="none"/>
                </g>
                <g id="zoomMin">
                        <use xlink:href="#rim" fill="#404040">
                                <set attributeName="fill" to="#808080" begin="zoomminus.mouseover" end="zoomminus.mouseout"/>
                        </use>
                        <path d="M-4,0h8" fill="none" stroke="white" stroke-width="1.5" pointer-events="none"/>
                </g>
                <g id="dirArrow">
                        <path fill="none" stroke="white" stroke-width="1.5" d="M0,-3.0v7 M-2.5,-0.5L0,-3.0L2.5,-0.5"/>
                </g>
               <g id="resetDef">
                       <use xlink:href="#rim2" fill="#404040">
                               <set attributeName="fill" to="#808080" begin="reset.mouseover" end="reset.mouseout"/>
                       </use>
               </g>
        </defs>

<script type="text/javascript">
var viewWidth = 606;
var viewHeight = 552;
var sectionId = 'dynsection-63';
</script>
<script xlink:href="svgpan.js"/>
<svg id="graph" class="graph">
<g id="viewport">
<title>typed_array_is_detached</title>
<!-- Node22231 -->
<g id="node1" class="node">
<title>Node22231</title>
<polygon fill="#bfbfbf" stroke="#000000" points="0,-279.5 0,-298.5 125,-298.5 125,-279.5 0,-279.5"/>
<text text-anchor="middle" x="62.5" y="-286.5" font-family="Helvetica,sans-Serif" font-size="10.00" fill="#000000">typed_array_is_detached</text>
</g>
<!-- Node22232 -->
<g id="node2" class="node">
<title>Node22232</title>
<g id="a_node2"><a xlink:href="quickjs_8c.html#a4398c126700f887a947501bf25910f75" target="_top" xlink:title="js_array_iterator_next">
<polygon fill="none" stroke="#000000" points="180,-488.5 180,-507.5 290,-507.5 290,-488.5 180,-488.5"/>
<text text-anchor="middle" x="235" y="-495.5" font-family="Helvetica,sans-Serif" font-size="10.00" fill="#000000">js_array_iterator_next</text>
</a>
</g>
</g>
<!-- Node22231&#45;&gt;Node22232 -->
<g id="edge1" class="edge">
<title>Node22231&#45;&gt;Node22232</title>
<path fill="none" stroke="#191970" d="M71.4735,-307.7376C86.8274,-338.5343 120.4407,-400.7452 161,-444 178.1882,-462.3305 202.3479,-478.604 218.3262,-488.3771"/>
<polygon fill="#191970" stroke="#191970" points="74.5252,-306.0112 66.9828,-298.5705 68.2389,-309.0907 74.5252,-306.0112"/>
</g>
<!-- Node22842 -->
<g id="node5" class="node">
<title>Node22842</title>
<g id="a_node5"><a xlink:href="quickjs_8c.html#a623376b2e5c5459f22b16e18ce134b62" target="_top" xlink:title="JS_GetTypedArrayBuffer">
<polygon fill="none" stroke="#000000" points="172,-415.5 172,-434.5 298,-434.5 298,-415.5 172,-415.5"/>
<text text-anchor="middle" x="235" y="-422.5" font-family="Helvetica,sans-Serif" font-size="10.00" fill="#000000">JS_GetTypedArrayBuffer</text>
</a>
</g>
</g>
<!-- Node22231&#45;&gt;Node22842 -->
<g id="edge5" class="edge">
<title>Node22231&#45;&gt;Node22842</title>
<path fill="none" stroke="#191970" d="M72.921,-307.471C88.5942,-333.5201 120.7345,-380.6892 161,-406 167.1763,-409.8824 174.1144,-412.9736 181.2018,-415.4343"/>
<polygon fill="#191970" stroke="#191970" points="75.8084,-305.4752 67.7378,-298.6112 69.7664,-309.01 75.8084,-305.4752"/>
</g>
<!-- Node22387 -->
<g id="node6" class="node">
<title>Node22387</title>
<g id="a_node6"><a xlink:href="quickjs_8c.html#a19e15727ea84a3735a3850b18da03330" target="_top" xlink:title="js_typed_array_constructor_ta">
<polygon fill="none" stroke="#ff0000" points="161,-377.5 161,-396.5 309,-396.5 309,-377.5 161,-377.5"/>
<text text-anchor="middle" x="235" y="-384.5" font-family="Helvetica,sans-Serif" font-size="10.00" fill="#000000">js_typed_array_constructor_ta</text>
</a>
</g>
</g>
<!-- Node22231&#45;&gt;Node22387 -->
<g id="edge6" class="edge">
<title>Node22231&#45;&gt;Node22387</title>
<path fill="none" stroke="#191970" d="M80.4468,-305.4051C99.3001,-321.9049 130.41,-347.1147 161,-363 172.3869,-368.9132 185.5132,-373.7427 197.5198,-377.4786"/>
<polygon fill="#191970" stroke="#191970" points="82.7209,-302.7436 72.9236,-298.7107 78.0676,-307.973 82.7209,-302.7436"/>
</g>
<!-- Node22693 -->
<g id="node7" class="node">
<title>Node22693</title>
<g id="a_node7"><a xlink:href="quickjs_8c.html#abe83a22e4d81b08015c382d8f4e7f833" target="_top" xlink:title="js_typed_array_copyWithin">
<polygon fill="none" stroke="#000000" points="345,-468.5 345,-487.5 479,-487.5 479,-468.5 345,-468.5"/>
<text text-anchor="middle" x="412" y="-475.5" font-family="Helvetica,sans-Serif" font-size="10.00" fill="#000000">js_typed_array_copyWithin</text>
</a>
</g>
</g>
<!-- Node22231&#45;&gt;Node22693 -->
<g id="edge7" class="edge">
<title>Node22231&#45;&gt;Node22693</title>
<path fill="none" stroke="#191970" d="M92.1188,-302.6346C111.4582,-311.2101 137.4076,-322.1063 161,-330 225.4021,-351.5482 258.0652,-323.0823 309,-368 341.6215,-396.7679 312.7406,-429.8266 345,-459 349.3044,-462.8926 354.3501,-465.9935 359.7079,-468.4627"/>
<polygon fill="#191970" stroke="#191970" points="93.4827,-299.4104 82.9259,-298.5125 90.6186,-305.7977 93.4827,-299.4104"/>
</g>
<!-- Node22660 -->
<g id="node8" class="node">
<title>Node22660</title>
<g id="a_node8"><a xlink:href="quickjs_8c.html#ae93231189fcdcb0450f2b21c208f293f" target="_top" xlink:title="js_typed_array_fill">
<polygon fill="none" stroke="#000000" points="364.5,-430.5 364.5,-449.5 459.5,-449.5 459.5,-430.5 364.5,-430.5"/>
<text text-anchor="middle" x="412" y="-437.5" font-family="Helvetica,sans-Serif" font-size="10.00" fill="#000000">js_typed_array_fill</text>
</a>
</g>
</g>
<!-- Node22231&#45;&gt;Node22660 -->
<g id="edge8" class="edge">
<title>Node22231&#45;&gt;Node22660</title>
<path fill="none" stroke="#191970" d="M135.512,-294.9762C198.3173,-301.4664 282.8142,-313.8495 309,-335 341.2345,-361.036 313.9946,-393.5118 345,-421 350.5187,-425.8927 357.2115,-429.5325 364.2056,-432.2387"/>
<polygon fill="#191970" stroke="#191970" points="135.5376,-291.4613 125.2384,-293.9466 134.8395,-298.4265 135.5376,-291.4613"/>
</g>
<!-- Node22843 -->
<g id="node9" class="node">
<title>Node22843</title>
<g id="a_node9"><a xlink:href="quickjs_8c.html#acbb1daa9c97eac9594da8f4408e8fa5b" target="_top" xlink:title="js_typed_array_get\l_byteLength">
<polygon fill="none" stroke="#000000" points="185.5,-129 185.5,-159 284.5,-159 284.5,-129 185.5,-129"/>
<text text-anchor="start" x="193.5" y="-147" font-family="Helvetica,sans-Serif" font-size="10.00" fill="#000000">js_typed_array_get</text>
<text text-anchor="middle" x="235" y="-136" font-family="Helvetica,sans-Serif" font-size="10.00" fill="#000000">_byteLength</text>
</a>
</g>
</g>
<!-- Node22231&#45;&gt;Node22843 -->
<g id="edge9" class="edge">
<title>Node22231&#45;&gt;Node22843</title>
<path fill="none" stroke="#191970" d="M73.0691,-270.457C88.923,-244.2298 121.2819,-196.444 161,-169 168.3632,-163.9122 176.8483,-159.7862 185.3875,-156.4641"/>
<polygon fill="#191970" stroke="#191970" points="69.881,-268.9733 67.8202,-279.3658 75.912,-272.5268 69.881,-268.9733"/>
</g>
<!-- Node22844 -->
<g id="node10" class="node">
<title>Node22844</title>
<g id="a_node10"><a xlink:href="quickjs_8c.html#a7797b02f56511eb67985f7d50493c2a5" target="_top" xlink:title="js_typed_array_get\l_byteOffset">
<polygon fill="none" stroke="#000000" points="185.5,-80 185.5,-110 284.5,-110 284.5,-80 185.5,-80"/>
<text text-anchor="start" x="193.5" y="-98" font-family="Helvetica,sans-Serif" font-size="10.00" fill="#000000">js_typed_array_get</text>
<text text-anchor="middle" x="235" y="-87" font-family="Helvetica,sans-Serif" font-size="10.00" fill="#000000">_byteOffset</text>
</a>
</g>
</g>
<!-- Node22231&#45;&gt;Node22844 -->
<g id="edge10" class="edge">
<title>Node22231&#45;&gt;Node22844</title>
<path fill="none" stroke="#191970" d="M68.7213,-269.4458C80.8406,-234.4319 110.9048,-160.8796 161,-120 168.1443,-114.17 176.7144,-109.6732 185.4487,-106.2128"/>
<polygon fill="#191970" stroke="#191970" points="65.2554,-268.7759 65.4144,-279.3696 71.8964,-270.9889 65.2554,-268.7759"/>
</g>
<!-- Node22845 -->
<g id="node12" class="node">
<title>Node22845</title>
<g id="a_node12"><a xlink:href="quickjs_8c.html#add71c7e0efcb1fd14572d39e2672971d" target="_top" xlink:title="js_typed_array_get\l_length_internal">
<polygon fill="none" stroke="#000000" points="185.5,-252 185.5,-282 284.5,-282 284.5,-252 185.5,-252"/>
<text text-anchor="start" x="193.5" y="-270" font-family="Helvetica,sans-Serif" font-size="10.00" fill="#000000">js_typed_array_get</text>
<text text-anchor="middle" x="235" y="-259" font-family="Helvetica,sans-Serif" font-size="10.00" fill="#000000">_length_internal</text>
</a>
</g>
</g>
<!-- Node22231&#45;&gt;Node22845 -->
<g id="edge12" class="edge">
<title>Node22231&#45;&gt;Node22845</title>
<path fill="none" stroke="#191970" d="M135.5813,-279.6795C152.3291,-277.5435 169.7553,-275.3211 185.2532,-273.3445"/>
<polygon fill="#191970" stroke="#191970" points="134.7413,-276.2582 125.2644,-280.9953 135.6269,-283.2019 134.7413,-276.2582"/>
</g>
<!-- Node22385 -->
<g id="node22" class="node">
<title>Node22385</title>
<g id="a_node22"><a xlink:href="quickjs_8c.html#a28f4d08e4321e751cebe37ea7259fe3c" target="_top" xlink:title="js_typed_array_set\l_internal">
<polygon fill="none" stroke="#ff0000" points="185.5,-31 185.5,-61 284.5,-61 284.5,-31 185.5,-31"/>
<text text-anchor="start" x="193.5" y="-49" font-family="Helvetica,sans-Serif" font-size="10.00" fill="#000000">js_typed_array_set</text>
<text text-anchor="middle" x="235" y="-38" font-family="Helvetica,sans-Serif" font-size="10.00" fill="#000000">_internal</text>
</a>
</g>
</g>
<!-- Node22231&#45;&gt;Node22385 -->
<g id="edge24" class="edge">
<title>Node22231&#45;&gt;Node22385</title>
<path fill="none" stroke="#191970" d="M65.9568,-269.1835C74.3902,-226.7112 99.9724,-126.2897 161,-71 167.9342,-64.7178 176.5063,-60.0059 185.3297,-56.4742"/>
<polygon fill="#191970" stroke="#191970" points="62.4989,-268.6337 64.0936,-279.1078 69.3787,-269.9253 62.4989,-268.6337"/>
</g>
<!-- Node22847 -->
<g id="node23" class="node">
<title>Node22847</title>
<g id="a_node23"><a xlink:href="quickjs_8c.html#a997c03968a234b51305ddb93c80a4b97" target="_top" xlink:title="validate_typed_array">
<polygon fill="none" stroke="#000000" points="181.5,-178.5 181.5,-197.5 288.5,-197.5 288.5,-178.5 181.5,-178.5"/>
<text text-anchor="middle" x="235" y="-185.5" font-family="Helvetica,sans-Serif" font-size="10.00" fill="#000000">validate_typed_array</text>
</a>
</g>
</g>
<!-- Node22231&#45;&gt;Node22847 -->
<g id="edge25" class="edge">
<title>Node22231&#45;&gt;Node22847</title>
<path fill="none" stroke="#191970" d="M87.6067,-274.2999C123.4915,-253.289 188.4457,-215.2579 218.6891,-197.5502"/>
<polygon fill="#191970" stroke="#191970" points="85.5895,-271.425 78.7284,-279.4982 89.1265,-277.4658 85.5895,-271.425"/>
</g>
<!-- Node22233 -->
<g id="node3" class="node">
<title>Node22233</title>
<g id="a_node3"><a xlink:href="quickjs_8c.html#a43208b0746998d2b6b9b8bd1ef8b5f99" target="_top" xlink:title="js_append_enumerate">
<polygon fill="none" stroke="#000000" points="356,-506.5 356,-525.5 468,-525.5 468,-506.5 356,-506.5"/>
<text text-anchor="middle" x="412" y="-513.5" font-family="Helvetica,sans-Serif" font-size="10.00" fill="#000000">js_append_enumerate</text>
</a>
</g>
</g>
<!-- Node22232&#45;&gt;Node22233 -->
<g id="edge2" class="edge">
<title>Node22232&#45;&gt;Node22233</title>
<path fill="none" stroke="#191970" d="M300.0251,-504.6127C318.3162,-506.4728 338.0493,-508.4796 355.7795,-510.2827"/>
<polygon fill="#191970" stroke="#191970" points="300.3365,-501.1264 290.0337,-503.5966 299.6282,-508.0905 300.3365,-501.1264"/>
</g>
<!-- Node22234 -->
<g id="node4" class="node">
<title>Node22234</title>
<g id="a_node4"><a xlink:href="quickjs_8c.html#ac2894ff4edcdb4e6841bcce9c76081e3" target="_top" xlink:title="JS_CallInternal">
<polygon fill="none" stroke="#ff0000" points="515,-506.5 515,-525.5 598,-525.5 598,-506.5 515,-506.5"/>
<text text-anchor="middle" x="556.5" y="-513.5" font-family="Helvetica,sans-Serif" font-size="10.00" fill="#000000">JS_CallInternal</text>
</a>
</g>
</g>
<!-- Node22233&#45;&gt;Node22234 -->
<g id="edge3" class="edge">
<title>Node22233&#45;&gt;Node22234</title>
<path fill="none" stroke="#191970" d="M478.5907,-516C490.9645,-516 503.5611,-516 514.9166,-516"/>
<polygon fill="#191970" stroke="#191970" points="478.2813,-512.5001 468.2812,-516 478.2812,-519.5001 478.2813,-512.5001"/>
</g>
<!-- Node22234&#45;&gt;Node22234 -->
<g id="edge4" class="edge">
<title>Node22234&#45;&gt;Node22234</title>
<path fill="none" stroke="#191970" d="M529.6208,-534.6539C530.7444,-539.9368 539.7041,-544 556.5,-544 582.0938,-544 589.4919,-534.5653 578.6946,-525.7571"/>
<polygon fill="#191970" stroke="#191970" points="532.7433,-536.2361 534.3054,-525.7571 526.5494,-532.9747 532.7433,-536.2361"/>
</g>
<!-- Node22288 -->
<g id="node11" class="node">
<title>Node22288</title>
<g id="a_node11"><a xlink:href="quickjs_8c.html#a355310420e303302c981eb7c73a222fb" target="_top" xlink:title="js_typed_array_subarray">
<polygon fill="none" stroke="#000000" points="350.5,-.5 350.5,-19.5 473.5,-19.5 473.5,-.5 350.5,-.5"/>
<text text-anchor="middle" x="412" y="-7.5" font-family="Helvetica,sans-Serif" font-size="10.00" fill="#000000">js_typed_array_subarray</text>
</a>
</g>
</g>
<!-- Node22844&#45;&gt;Node22288 -->
<g id="edge11" class="edge">
<title>Node22844&#45;&gt;Node22288</title>
<path fill="none" stroke="#191970" d="M294.0684,-79.1916C299.3009,-76.8071 304.3641,-74.0899 309,-71 329.4578,-57.3646 324.2915,-42.2515 345,-29 351.0086,-25.1551 357.8063,-22.0732 364.7103,-19.6069"/>
<polygon fill="#191970" stroke="#191970" points="292.4303,-76.0813 284.523,-83.1328 295.1018,-82.5515 292.4303,-76.0813"/>
</g>
<!-- Node22845&#45;&gt;Node22693 -->
<g id="edge16" class="edge">
<title>Node22845&#45;&gt;Node22693</title>
<path fill="none" stroke="#191970" d="M265.2514,-288.4173C280.3519,-300.5265 297.7501,-316.8589 309,-335 339.244,-383.7702 304.2953,-418.548 345,-459 348.8592,-462.8352 353.4318,-465.9092 358.3479,-468.371"/>
<polygon fill="#191970" stroke="#191970" points="267.2002,-285.4996 257.1522,-282.1398 262.9119,-291.0323 267.2002,-285.4996"/>
</g>
<!-- Node22845&#45;&gt;Node22660 -->
<g id="edge17" class="edge">
<title>Node22845&#45;&gt;Node22660</title>
<path fill="none" stroke="#191970" d="M293.8522,-284.7541C299.4695,-288.1608 304.6729,-292.2045 309,-297 347.4443,-339.606 304.2953,-380.548 345,-421 350.4028,-426.3693 357.2041,-430.2466 364.3884,-433.041"/>
<polygon fill="#191970" stroke="#191970" points="295.2226,-281.5186 284.7508,-279.9086 291.933,-287.6975 295.2226,-281.5186"/>
</g>
<!-- Node22286 -->
<g id="node13" class="node">
<title>Node22286</title>
<g id="a_node13"><a xlink:href="quickjs_8c.html#aa0bbf08a7e91459c68a312fba7016c6d" target="_top" xlink:title="js_array_every">
<polygon fill="none" stroke="#000000" points="372,-392.5 372,-411.5 452,-411.5 452,-392.5 372,-392.5"/>
<text text-anchor="middle" x="412" y="-399.5" font-family="Helvetica,sans-Serif" font-size="10.00" fill="#000000">js_array_every</text>
</a>
</g>
</g>
<!-- Node22845&#45;&gt;Node22286 -->
<g id="edge13" class="edge">
<title>Node22845&#45;&gt;Node22286</title>
<path fill="none" stroke="#191970" d="M293.8007,-285.5453C299.3365,-288.7956 304.5363,-292.5864 309,-297 338.4645,-326.1339 313.9946,-355.5118 345,-383 352.5091,-389.6573 362.1919,-393.9949 371.8495,-396.8174"/>
<polygon fill="#191970" stroke="#191970" points="295.3643,-282.4133 284.8823,-280.8708 292.1146,-288.6132 295.3643,-282.4133"/>
</g>
<!-- Node22310 -->
<g id="node14" class="node">
<title>Node22310</title>
<g id="a_node14"><a xlink:href="quickjs_8c.html#a36c1692489542a86dd79a7d39ab8ff95" target="_top" xlink:title="js_array_reduce">
<polygon fill="none" stroke="#000000" points="369,-354.5 369,-373.5 455,-373.5 455,-354.5 369,-354.5"/>
<text text-anchor="middle" x="412" y="-361.5" font-family="Helvetica,sans-Serif" font-size="10.00" fill="#000000">js_array_reduce</text>
</a>
</g>
</g>
<!-- Node22845&#45;&gt;Node22310 -->
<g id="edge14" class="edge">
<title>Node22845&#45;&gt;Node22310</title>
<path fill="none" stroke="#191970" d="M292.5151,-286.6003C298.3369,-289.6575 303.9544,-293.1145 309,-297 330.128,-313.2702 323.0184,-329.903 345,-345 352.0762,-349.8599 360.3809,-353.4856 368.6884,-356.1878"/>
<polygon fill="#191970" stroke="#191970" points="293.7776,-283.3231 283.2512,-282.121 290.7305,-289.6251 293.7776,-283.3231"/>
</g>
<!-- Node22349 -->
<g id="node15" class="node">
<title>Node22349</title>
<g id="a_node15"><a xlink:href="quickjs_8c.html#a8c18ce4b7a8c97ab520d4d37a1c6fc72" target="_top" xlink:title="js_typed_array_create">
<polygon fill="none" stroke="#ff0000" points="355.5,-316.5 355.5,-335.5 468.5,-335.5 468.5,-316.5 355.5,-316.5"/>
<text text-anchor="middle" x="412" y="-323.5" font-family="Helvetica,sans-Serif" font-size="10.00" fill="#000000">js_typed_array_create</text>
</a>
</g>
</g>
<!-- Node22845&#45;&gt;Node22349 -->
<g id="edge15" class="edge">
<title>Node22845&#45;&gt;Node22349</title>
<path fill="none" stroke="#191970" d="M283.8463,-285.6226C302.8321,-292.6342 324.8292,-300.482 345,-307 355.1243,-310.2716 366.2051,-313.539 376.3885,-316.4187"/>
<polygon fill="#191970" stroke="#191970" points="284.811,-282.2473 274.2181,-282.0437 282.372,-288.8086 284.811,-282.2473"/>
</g>
<!-- Node22338 -->
<g id="node16" class="node">
<title>Node22338</title>
<g id="a_node16"><a xlink:href="quickjs_8c.html#a0b8ae7efe63abc1be33d9e828d43ce8d" target="_top" xlink:title="js_typed_array_find">
<polygon fill="none" stroke="#000000" points="361.5,-278.5 361.5,-297.5 462.5,-297.5 462.5,-278.5 361.5,-278.5"/>
<text text-anchor="middle" x="412" y="-285.5" font-family="Helvetica,sans-Serif" font-size="10.00" fill="#000000">js_typed_array_find</text>
</a>
</g>
</g>
<!-- Node22845&#45;&gt;Node22338 -->
<g id="edge18" class="edge">
<title>Node22845&#45;&gt;Node22338</title>
<path fill="none" stroke="#191970" d="M294.8291,-274.0984C316.4448,-276.6629 340.6189,-279.5311 361.3696,-281.993"/>
<polygon fill="#191970" stroke="#191970" points="295.1181,-270.6082 284.7754,-272.9056 294.2934,-277.5594 295.1181,-270.6082"/>
</g>
<!-- Node22661 -->
<g id="node17" class="node">
<title>Node22661</title>
<g id="a_node17"><a xlink:href="quickjs_8c.html#a5552c2701abfaa12a9c9b029a377725d" target="_top" xlink:title="js_typed_array_indexOf">
<polygon fill="none" stroke="#000000" points="352.5,-126.5 352.5,-145.5 471.5,-145.5 471.5,-126.5 352.5,-126.5"/>
<text text-anchor="middle" x="412" y="-133.5" font-family="Helvetica,sans-Serif" font-size="10.00" fill="#000000">js_typed_array_indexOf</text>
</a>
</g>
</g>
<!-- Node22845&#45;&gt;Node22661 -->
<g id="edge19" class="edge">
<title>Node22845&#45;&gt;Node22661</title>
<path fill="none" stroke="#191970" d="M264.8086,-245.9327C279.011,-235.1479 295.747,-221.297 309,-207 328.1092,-186.3854 322.1355,-171.3505 345,-155 350.4091,-151.1319 356.5866,-148.0489 362.9525,-145.5922"/>
<polygon fill="#191970" stroke="#191970" points="262.7143,-243.1284 256.7847,-251.9086 266.8955,-248.7425 262.7143,-243.1284"/>
</g>
<!-- Node22593 -->
<g id="node18" class="node">
<title>Node22593</title>
<g id="a_node18"><a xlink:href="quickjs_8c.html#aa04ea5aa5c3614856e8cd9843f1ebaa1" target="_top" xlink:title="js_typed_array_join">
<polygon fill="none" stroke="#000000" points="361.5,-240.5 361.5,-259.5 462.5,-259.5 462.5,-240.5 361.5,-240.5"/>
<text text-anchor="middle" x="412" y="-247.5" font-family="Helvetica,sans-Serif" font-size="10.00" fill="#000000">js_typed_array_join</text>
</a>
</g>
</g>
<!-- Node22845&#45;&gt;Node22593 -->
<g id="edge20" class="edge">
<title>Node22845&#45;&gt;Node22593</title>
<path fill="none" stroke="#191970" d="M294.8291,-261.2537C316.4448,-259.1776 340.6189,-256.8558 361.3696,-254.8628"/>
<polygon fill="#191970" stroke="#191970" points="294.3949,-257.7792 284.7754,-262.2193 295.0642,-264.7471 294.3949,-257.7792"/>
</g>
<!-- Node22846 -->
<g id="node19" class="node">
<title>Node22846</title>
<g id="a_node19"><a xlink:href="quickjs_8c.html#a1cbe16f416f7695b59db3032a6b76af6" target="_top" xlink:title="js_typed_array_reverse">
<polygon fill="none" stroke="#000000" points="353,-202.5 353,-221.5 471,-221.5 471,-202.5 353,-202.5"/>
<text text-anchor="middle" x="412" y="-209.5" font-family="Helvetica,sans-Serif" font-size="10.00" fill="#000000">js_typed_array_reverse</text>
</a>
</g>
</g>
<!-- Node22845&#45;&gt;Node22846 -->
<g id="edge21" class="edge">
<title>Node22845&#45;&gt;Node22846</title>
<path fill="none" stroke="#191970" d="M289.1785,-248.7927C306.9202,-242.9579 326.7577,-236.5693 345,-231 355.523,-227.7874 367.0308,-224.4579 377.4936,-221.5007"/>
<polygon fill="#191970" stroke="#191970" points="287.9592,-245.5093 279.561,-251.9685 290.1542,-252.1563 287.9592,-245.5093"/>
</g>
<!-- Node22287 -->
<g id="node20" class="node">
<title>Node22287</title>
<g id="a_node20"><a xlink:href="quickjs_8c.html#a04f45f4b341a84aa1039cfd862adbcd2" target="_top" xlink:title="js_typed_array_slice">
<polygon fill="none" stroke="#000000" points="359,-88.5 359,-107.5 465,-107.5 465,-88.5 359,-88.5"/>
<text text-anchor="middle" x="412" y="-95.5" font-family="Helvetica,sans-Serif" font-size="10.00" fill="#000000">js_typed_array_slice</text>
</a>
</g>
</g>
<!-- Node22845&#45;&gt;Node22287 -->
<g id="edge22" class="edge">
<title>Node22845&#45;&gt;Node22287</title>
<path fill="none" stroke="#191970" d="M267.9269,-245.9597C282.0702,-235.6081 297.8692,-222.1069 309,-207 334.5549,-172.3165 312.9921,-145.8357 345,-117 349.3118,-113.1155 354.3621,-110.0198 359.7225,-107.5535"/>
<polygon fill="#191970" stroke="#191970" points="265.5429,-243.3583 259.3911,-251.9842 269.5794,-249.0773 265.5429,-243.3583"/>
</g>
<!-- Node22676 -->
<g id="node21" class="node">
<title>Node22676</title>
<g id="a_node21"><a xlink:href="quickjs_8c.html#ad24e5f774218bb0d2859db9dc569d118" target="_top" xlink:title="js_typed_array_sort">
<polygon fill="none" stroke="#000000" points="361,-164.5 361,-183.5 463,-183.5 463,-164.5 361,-164.5"/>
<text text-anchor="middle" x="412" y="-171.5" font-family="Helvetica,sans-Serif" font-size="10.00" fill="#000000">js_typed_array_sort</text>
</a>
</g>
</g>
<!-- Node22845&#45;&gt;Node22676 -->
<g id="edge23" class="edge">
<title>Node22845&#45;&gt;Node22676</title>
<path fill="none" stroke="#191970" d="M261.3491,-245.7681C282.7879,-229.3847 314.4009,-207.1914 345,-193 353.0069,-189.2865 361.8955,-186.1459 370.5117,-183.5534"/>
<polygon fill="#191970" stroke="#191970" points="259.1319,-243.0584 253.3755,-251.953 263.4222,-248.5895 259.1319,-243.0584"/>
</g>
<!-- Node22847&#45;&gt;Node22661 -->
<g id="edge27" class="edge">
<title>Node22847&#45;&gt;Node22661</title>
<path fill="none" stroke="#191970" d="M285.7599,-175.825C293.5865,-173.701 301.5421,-171.3981 309,-169 325.3432,-163.7448 328.7238,-160.459 345,-155 354.9728,-151.6551 365.9054,-148.3893 375.9935,-145.5352"/>
<polygon fill="#191970" stroke="#191970" points="284.7367,-172.4752 275.9624,-178.4134 286.5247,-179.243 284.7367,-172.4752"/>
</g>
<!-- Node22847&#45;&gt;Node22287 -->
<g id="edge28" class="edge">
<title>Node22847&#45;&gt;Node22287</title>
<path fill="none" stroke="#191970" d="M298.3255,-175.1482C302.0716,-173.3592 305.6665,-171.3213 309,-169 332.0671,-152.9366 322.1355,-133.3505 345,-117 350.4091,-113.1319 356.5866,-110.0489 362.9525,-107.5922"/>
<polygon fill="#191970" stroke="#191970" points="296.6683,-172.046 288.765,-179.1021 299.3436,-178.5146 296.6683,-172.046"/>
</g>
<!-- Node22511 -->
<g id="node24" class="node">
<title>Node22511</title>
<g id="a_node24"><a xlink:href="quickjs_8c.html#a1e80be77ffd5dbb921de62f804a26675" target="_top" xlink:title="js_create_typed_array\l_iterator">
<polygon fill="none" stroke="#000000" points="355.5,-39 355.5,-69 468.5,-69 468.5,-39 355.5,-39"/>
<text text-anchor="start" x="363.5" y="-57" font-family="Helvetica,sans-Serif" font-size="10.00" fill="#000000">js_create_typed_array</text>
<text text-anchor="middle" x="412" y="-46" font-family="Helvetica,sans-Serif" font-size="10.00" fill="#000000">_iterator</text>
</a>
</g>
</g>
<!-- Node22847&#45;&gt;Node22511 -->
<g id="edge26" class="edge">
<title>Node22847&#45;&gt;Node22511</title>
<path fill="none" stroke="#191970" d="M297.7484,-176.6519C301.7942,-174.5135 305.6011,-171.986 309,-169 341.3658,-140.5667 314.183,-109.105 345,-79 348.9076,-75.1827 353.4512,-71.939 358.2968,-69.1846"/>
<polygon fill="#191970" stroke="#191970" points="296.2858,-173.4717 288.5753,-180.7381 299.1342,-179.866 296.2858,-173.4717"/>
</g>
</g>
</svg>
        <g id="navigator" transform="translate(0 0)" fill="#404254">
                <rect fill="#f2f5e9" fill-opacity="0.5" stroke="#606060" stroke-width=".5" x="0" y="0" width="60" height="60"/>
                <use id="zoomplus" xlink:href="#zoomPlus" x="17" y="9" onmousedown="handleZoom(evt,'in')"/>
                <use id="zoomminus" xlink:href="#zoomMin" x="42" y="9" onmousedown="handleZoom(evt,'out')"/>
                <use id="reset" xlink:href="#resetDef" x="30" y="36" onmousedown="handleReset()"/>
                <g id="arrowUp" xlink:href="#dirArrow" transform="translate(30 24)" onmousedown="handlePan(0,-1)">
                  <use xlink:href="#rim" fill="#404040">
                        <set attributeName="fill" to="#808080" begin="arrowUp.mouseover" end="arrowUp.mouseout"/>
                  </use>
                  <path fill="none" stroke="white" stroke-width="1.5" d="M0,-3.0v7 M-2.5,-0.5L0,-3.0L2.5,-0.5"/>
                </g>
                <g id="arrowRight" xlink:href="#dirArrow" transform="rotate(90) translate(36 -43)" onmousedown="handlePan(1,0)">
                  <use xlink:href="#rim" fill="#404040">
                        <set attributeName="fill" to="#808080" begin="arrowRight.mouseover" end="arrowRight.mouseout"/>
                  </use>
                  <path fill="none" stroke="white" stroke-width="1.5" d="M0,-3.0v7 M-2.5,-0.5L0,-3.0L2.5,-0.5"/>
                </g>
                <g id="arrowDown" xlink:href="#dirArrow" transform="rotate(180) translate(-30 -48)" onmousedown="handlePan(0,1)">
                  <use xlink:href="#rim" fill="#404040">
                        <set attributeName="fill" to="#808080" begin="arrowDown.mouseover" end="arrowDown.mouseout"/>
                  </use>
                  <path fill="none" stroke="white" stroke-width="1.5" d="M0,-3.0v7 M-2.5,-0.5L0,-3.0L2.5,-0.5"/>
                </g>
                <g id="arrowLeft" xlink:href="#dirArrow" transform="rotate(270) translate(-36 17)" onmousedown="handlePan(-1,0)">
                  <use xlink:href="#rim" fill="#404040">
                        <set attributeName="fill" to="#808080" begin="arrowLeft.mouseover" end="arrowLeft.mouseout"/>
                  </use>
                  <path fill="none" stroke="white" stroke-width="1.5" d="M0,-3.0v7 M-2.5,-0.5L0,-3.0L2.5,-0.5"/>
                </g>
        </g>
        <svg viewBox="0 0 15 15" width="100%" height="30px" preserveAspectRatio="xMaxYMin meet">
         <g id="arrow_out" transform="scale(0.3 0.3)">
          <a xlink:href="quickjs_8c_a869fa88a646c0a1914ec2e559b193b5c_icgraph_org.svg" target="_base">
           <rect id="button" ry="5" rx="5" y="6" x="6" height="38" width="38"
                fill="#f2f5e9" fill-opacity="0.5" stroke="#606060" stroke-width="1.0"/>
           <path id="arrow"
             d="M 11.500037,31.436501 C 11.940474,20.09759 22.043105,11.32322 32.158766,21.979434 L 37.068811,17.246167 C 37.068811,17.246167 37.088388,32 37.088388,32 L 22.160133,31.978069 C 22.160133,31.978069 26.997745,27.140456 26.997745,27.140456 C 18.528582,18.264221 13.291696,25.230495 11.500037,31.436501 z"
             style="fill:#404040;"/>
          </a>
         </g>
        </svg>
</svg>
