<?xml version="1.0" encoding="UTF-8" standalone="no"?>
<!DOCTYPE svg PUBLIC "-//W3C//DTD SVG 1.1//EN"
 "http://www.w3.org/Graphics/SVG/1.1/DTD/svg11.dtd">
<!-- Generated by graphviz version 2.40.1 (20161225.0304)
 -->
<!-- Title: JS_GetPropertyInternal Pages: 1 -->
<svg width="778pt" height="724pt"
 viewBox="0.00 0.00 778.00 724.00" xmlns="http://www.w3.org/2000/svg" xmlns:xlink="http://www.w3.org/1999/xlink">
<g id="graph0" class="graph" transform="scale(1 1) rotate(0) translate(4 720)">
<title>JS_GetPropertyInternal</title>
<!-- Node182181 -->
<g id="node1" class="node">
<title>Node182181</title>
<polygon fill="#bfbfbf" stroke="#000000" points="0,-278.5 0,-297.5 119,-297.5 119,-278.5 0,-278.5"/>
<text text-anchor="middle" x="59.5" y="-285.5" font-family="Helvetica,sans-Serif" font-size="10.00" fill="#000000">JS_GetPropertyInternal</text>
</g>
<!-- Node182182 -->
<g id="node2" class="node">
<title>Node182182</title>
<g id="a_node2"><a xlink:href="quickjs_8c.html#a288254c06a39c9fca740a7abdad2834e" target="_top" xlink:title="__JS_AtomIsTaggedInt">
<polygon fill="none" stroke="#000000" points="538,-696.5 538,-715.5 657,-715.5 657,-696.5 538,-696.5"/>
<text text-anchor="middle" x="597.5" y="-703.5" font-family="Helvetica,sans-Serif" font-size="10.00" fill="#000000">__JS_AtomIsTaggedInt</text>
</a>
</g>
</g>
<!-- Node182181&#45;&gt;Node182182 -->
<g id="edge1" class="edge">
<title>Node182181&#45;&gt;Node182182</title>
<path fill="none" stroke="#191970" d="M61.2332,-297.5605C69.9497,-344.6783 110.3434,-551.7298 155,-597 254.2778,-697.6418 430.5332,-710.895 527.9497,-709.7196"/>
<polygon fill="#191970" stroke="#191970" points="528.0519,-713.2184 537.9891,-709.5438 527.9293,-706.2195 528.0519,-713.2184"/>
</g>
<!-- Node182183 -->
<g id="node3" class="node">
<title>Node182183</title>
<g id="a_node3"><a xlink:href="quickjs_8c.html#a89f38938cee8077ce1fbba07946ed185" target="_top" xlink:title="__JS_AtomToUInt32">
<polygon fill="none" stroke="#000000" points="543.5,-658.5 543.5,-677.5 651.5,-677.5 651.5,-658.5 543.5,-658.5"/>
<text text-anchor="middle" x="597.5" y="-665.5" font-family="Helvetica,sans-Serif" font-size="10.00" fill="#000000">__JS_AtomToUInt32</text>
</a>
</g>
</g>
<!-- Node182181&#45;&gt;Node182183 -->
<g id="edge2" class="edge">
<title>Node182181&#45;&gt;Node182183</title>
<path fill="none" stroke="#191970" d="M60.3786,-297.5946C64.2178,-333.9761 82.7225,-464.9019 155,-535 259.4523,-636.3028 438.0423,-660.821 533.2678,-666.5078"/>
<polygon fill="#191970" stroke="#191970" points="533.1615,-670.0071 543.3374,-667.0572 533.543,-663.0175 533.1615,-670.0071"/>
</g>
<!-- Node182184 -->
<g id="node4" class="node">
<title>Node182184</title>
<g id="a_node4"><a xlink:href="quickjs_8c.html#a06b76f5124fd985e35f4c652fd018d6d" target="_top" xlink:title="find_own_property">
<polygon fill="none" stroke="#000000" points="197,-240.5 197,-259.5 293,-259.5 293,-240.5 197,-240.5"/>
<text text-anchor="middle" x="245" y="-247.5" font-family="Helvetica,sans-Serif" font-size="10.00" fill="#000000">find_own_property</text>
</a>
</g>
</g>
<!-- Node182181&#45;&gt;Node182184 -->
<g id="edge3" class="edge">
<title>Node182181&#45;&gt;Node182184</title>
<path fill="none" stroke="#191970" d="M106.3095,-278.411C131.3395,-273.2835 162.3414,-266.9328 188.6822,-261.5368"/>
<polygon fill="#191970" stroke="#191970" points="189.433,-264.9558 198.5271,-259.5201 188.0281,-258.0982 189.433,-264.9558"/>
</g>
<!-- Node182187 -->
<g id="node7" class="node">
<title>Node182187</title>
<g id="a_node7"><a xlink:href="quickjs_8c.html#add3eea1f6d626963ade3c28a1fd563d1" target="_top" xlink:title="JS_AtomIsNumericIndex">
<polygon fill="none" stroke="#000000" points="182,-506.5 182,-525.5 308,-525.5 308,-506.5 182,-506.5"/>
<text text-anchor="middle" x="245" y="-513.5" font-family="Helvetica,sans-Serif" font-size="10.00" fill="#000000">JS_AtomIsNumericIndex</text>
</a>
</g>
</g>
<!-- Node182181&#45;&gt;Node182187 -->
<g id="edge6" class="edge">
<title>Node182181&#45;&gt;Node182187</title>
<path fill="none" stroke="#191970" d="M63.212,-297.5652C74.0521,-324.5985 107.8979,-402.9107 155,-454 173.0155,-473.5405 198.2621,-490.2599 217.4324,-501.3949"/>
<polygon fill="#191970" stroke="#191970" points="215.8683,-504.531 226.2969,-506.4004 219.3102,-498.4357 215.8683,-504.531"/>
</g>
<!-- Node182191 -->
<g id="node11" class="node">
<title>Node182191</title>
<g id="a_node11"><a xlink:href="quickjs_8h.html#afaa20c47565bc704c6c85f3d77254e7d" target="_top" xlink:title="JS_FreeValue">
<polygon fill="none" stroke="#ff0000" points="558.5,-354.5 558.5,-373.5 636.5,-373.5 636.5,-354.5 558.5,-354.5"/>
<text text-anchor="middle" x="597.5" y="-361.5" font-family="Helvetica,sans-Serif" font-size="10.00" fill="#000000">JS_FreeValue</text>
</a>
</g>
</g>
<!-- Node182181&#45;&gt;Node182191 -->
<g id="edge27" class="edge">
<title>Node182181&#45;&gt;Node182191</title>
<path fill="none" stroke="#191970" d="M80.2441,-297.6448C99.2627,-306.0427 128.4236,-317.8136 155,-324 295.1299,-356.619 465.9684,-362.9399 548.3769,-363.9682"/>
<polygon fill="#191970" stroke="#191970" points="548.4203,-367.4688 558.4561,-364.0728 548.493,-360.4692 548.4203,-367.4688"/>
</g>
<!-- Node182228 -->
<g id="node13" class="node">
<title>Node182228</title>
<g id="a_node13"><a xlink:href="quickjs_8h.html#a2050bc428da1c65ac7eb87c3fa3b0392" target="_top" xlink:title="JS_NewInt32">
<polygon fill="none" stroke="#000000" points="559.5,-392.5 559.5,-411.5 635.5,-411.5 635.5,-392.5 559.5,-392.5"/>
<text text-anchor="middle" x="597.5" y="-399.5" font-family="Helvetica,sans-Serif" font-size="10.00" fill="#000000">JS_NewInt32</text>
</a>
</g>
</g>
<!-- Node182181&#45;&gt;Node182228 -->
<g id="edge36" class="edge">
<title>Node182181&#45;&gt;Node182228</title>
<path fill="none" stroke="#191970" d="M70.3103,-297.6507C87.0917,-312.0121 121.0289,-338.6399 155,-351 291.5928,-400.698 466.1506,-404.9104 549.2892,-403.639"/>
<polygon fill="#191970" stroke="#191970" points="549.5121,-407.1356 559.4448,-403.4489 549.381,-400.1368 549.5121,-407.1356"/>
</g>
<!-- Node182235 -->
<g id="node16" class="node">
<title>Node182235</title>
<g id="a_node16"><a xlink:href="quickjs_8h.html#a775522f2d084fc8fa0fcb33f390006b4" target="_top" xlink:title="JS_DupValue">
<polygon fill="none" stroke="#000000" points="693,-392.5 693,-411.5 770,-411.5 770,-392.5 693,-392.5"/>
<text text-anchor="middle" x="731.5" y="-399.5" font-family="Helvetica,sans-Serif" font-size="10.00" fill="#000000">JS_DupValue</text>
</a>
</g>
</g>
<!-- Node182181&#45;&gt;Node182235 -->
<g id="edge26" class="edge">
<title>Node182181&#45;&gt;Node182235</title>
<path fill="none" stroke="#191970" d="M119.249,-286.8414C204.5944,-286.029 366.1197,-287.6206 502,-307 572.2184,-317.0146 593.0325,-314.3556 657,-345 678.6084,-355.3518 699.9863,-372.6315 714.2616,-385.457"/>
<polygon fill="#191970" stroke="#191970" points="712.0712,-388.1983 721.794,-392.4077 716.8184,-383.0539 712.0712,-388.1983"/>
</g>
<!-- Node182369 -->
<g id="node19" class="node">
<title>Node182369</title>
<g id="a_node19"><a xlink:href="quickjs_8c.html#a8aac7988cf0c6f3c2b629a6662fd7ec8" target="_top" xlink:title="JS_AutoInitProperty">
<polygon fill="none" stroke="#ff0000" points="384.5,-430.5 384.5,-449.5 488.5,-449.5 488.5,-430.5 384.5,-430.5"/>
<text text-anchor="middle" x="436.5" y="-437.5" font-family="Helvetica,sans-Serif" font-size="10.00" fill="#000000">JS_AutoInitProperty</text>
</a>
</g>
</g>
<!-- Node182181&#45;&gt;Node182369 -->
<g id="edge22" class="edge">
<title>Node182181&#45;&gt;Node182369</title>
<path fill="none" stroke="#191970" d="M63.2933,-297.5649C73.6622,-322.2758 105.0815,-388.2461 155,-416 222.7767,-453.6828 314.2064,-453.9745 374.2219,-448.687"/>
<polygon fill="#191970" stroke="#191970" points="374.6915,-452.1581 384.3117,-447.7195 374.0233,-445.1901 374.6915,-452.1581"/>
</g>
<!-- Node182264 -->
<g id="node20" class="node">
<title>Node182264</title>
<g id="a_node20"><a xlink:href="quickjs_8c.html#a75f6ee5e4235a7dc99889f3d2eb2c147" target="_top" xlink:title="JS_CallFree">
<polygon fill="none" stroke="#ff0000" points="401,-316.5 401,-335.5 472,-335.5 472,-316.5 401,-316.5"/>
<text text-anchor="middle" x="436.5" y="-323.5" font-family="Helvetica,sans-Serif" font-size="10.00" fill="#000000">JS_CallFree</text>
</a>
</g>
</g>
<!-- Node182181&#45;&gt;Node182264 -->
<g id="edge24" class="edge">
<title>Node182181&#45;&gt;Node182264</title>
<path fill="none" stroke="#191970" d="M119.0307,-297.2949C130.9278,-298.9922 143.3479,-300.6505 155,-302 237.8493,-311.5956 334.8333,-319.0326 390.6224,-322.945"/>
<polygon fill="#191970" stroke="#191970" points="390.6625,-326.4561 400.8809,-323.6572 391.1474,-319.473 390.6625,-326.4561"/>
</g>
<!-- Node182287 -->
<g id="node21" class="node">
<title>Node182287</title>
<g id="a_node21"><a xlink:href="quickjs_8c.html#aeb97957655d979e9fe56c955da2b2d4b" target="_top" xlink:title="JS_GetPropertyUint32">
<polygon fill="none" stroke="#ff0000" points="187.5,-202.5 187.5,-221.5 302.5,-221.5 302.5,-202.5 187.5,-202.5"/>
<text text-anchor="middle" x="245" y="-209.5" font-family="Helvetica,sans-Serif" font-size="10.00" fill="#000000">JS_GetPropertyUint32</text>
</a>
</g>
</g>
<!-- Node182181&#45;&gt;Node182287 -->
<g id="edge28" class="edge">
<title>Node182181&#45;&gt;Node182287</title>
<path fill="none" stroke="#191970" d="M72.3786,-278.4086C90.083,-265.6829 123.3547,-243.3863 155,-231 162.0311,-228.2479 169.5351,-225.8643 177.0973,-223.8069"/>
<polygon fill="#191970" stroke="#191970" points="178.2044,-227.1371 187.0375,-221.2867 176.484,-220.3518 178.2044,-227.1371"/>
</g>
<!-- Node182395 -->
<g id="node22" class="node">
<title>Node182395</title>
<g id="a_node22"><a xlink:href="quickjs_8c.html#a93550bf785e919d0881399712c54cb34" target="_top" xlink:title="JS_GetPrototypePrimitive">
<polygon fill="none" stroke="#000000" points="180,-164.5 180,-183.5 310,-183.5 310,-164.5 180,-164.5"/>
<text text-anchor="middle" x="245" y="-171.5" font-family="Helvetica,sans-Serif" font-size="10.00" fill="#000000">JS_GetPrototypePrimitive</text>
</a>
</g>
</g>
<!-- Node182181&#45;&gt;Node182395 -->
<g id="edge29" class="edge">
<title>Node182181&#45;&gt;Node182395</title>
<path fill="none" stroke="#191970" d="M66.1333,-278.3817C80.1168,-258.9016 114.674,-214.7907 155,-193 159.8295,-190.3903 164.9847,-188.1389 170.2912,-186.1966"/>
<polygon fill="#191970" stroke="#191970" points="171.5565,-189.4651 179.9683,-183.0236 169.3756,-182.8135 171.5565,-189.4651"/>
</g>
<!-- Node182474 -->
<g id="node23" class="node">
<title>Node182474</title>
<g id="a_node23"><a xlink:href="quickjs_8h.html#aaab426b47c95d00479b7355b1cf7f56c" target="_top" xlink:title="JS_IsUninitialized">
<polygon fill="none" stroke="#000000" points="197.5,-126.5 197.5,-145.5 292.5,-145.5 292.5,-126.5 197.5,-126.5"/>
<text text-anchor="middle" x="245" y="-133.5" font-family="Helvetica,sans-Serif" font-size="10.00" fill="#000000">JS_IsUninitialized</text>
</a>
</g>
</g>
<!-- Node182181&#45;&gt;Node182474 -->
<g id="edge30" class="edge">
<title>Node182181&#45;&gt;Node182474</title>
<path fill="none" stroke="#191970" d="M63.3934,-278.4229C74.0039,-253.6189 105.9561,-186.9961 155,-155 164.6204,-148.7237 175.9399,-144.4743 187.2441,-141.6084"/>
<polygon fill="#191970" stroke="#191970" points="188.1186,-144.9998 197.1311,-139.4298 186.6122,-138.1637 188.1186,-144.9998"/>
</g>
<!-- Node182613 -->
<g id="node24" class="node">
<title>Node182613</title>
<g id="a_node24"><a xlink:href="quickjs_8c.html#a077ffa6455c0d7831bd4547542b5f2f7" target="_top" xlink:title="js_new_string_char">
<polygon fill="none" stroke="#000000" points="194.5,-88.5 194.5,-107.5 295.5,-107.5 295.5,-88.5 194.5,-88.5"/>
<text text-anchor="middle" x="245" y="-95.5" font-family="Helvetica,sans-Serif" font-size="10.00" fill="#000000">js_new_string_char</text>
</a>
</g>
</g>
<!-- Node182181&#45;&gt;Node182613 -->
<g id="edge31" class="edge">
<title>Node182181&#45;&gt;Node182613</title>
<path fill="none" stroke="#191970" d="M61.8495,-278.3703C69.5537,-248.9645 96.9542,-159.7468 155,-117 163.5752,-110.685 173.7901,-106.3707 184.2085,-103.4434"/>
<polygon fill="#191970" stroke="#191970" points="185.306,-106.7794 194.2127,-101.0417 183.6719,-99.9728 185.306,-106.7794"/>
</g>
<!-- Node182397 -->
<g id="node28" class="node">
<title>Node182397</title>
<g id="a_node28"><a xlink:href="quickjs_8c.html#ab8d0b87c9eed4eb6c054b6f4e1731554" target="_top" xlink:title="JS_ThrowReferenceErrorNot\lDefined">
<polygon fill="none" stroke="#ff0000" points="173.5,-39 173.5,-69 316.5,-69 316.5,-39 173.5,-39"/>
<text text-anchor="start" x="181.5" y="-57" font-family="Helvetica,sans-Serif" font-size="10.00" fill="#000000">JS_ThrowReferenceErrorNot</text>
<text text-anchor="middle" x="245" y="-46" font-family="Helvetica,sans-Serif" font-size="10.00" fill="#000000">Defined</text>
</a>
</g>
</g>
<!-- Node182181&#45;&gt;Node182397 -->
<g id="edge37" class="edge">
<title>Node182181&#45;&gt;Node182397</title>
<path fill="none" stroke="#191970" d="M60.9657,-278.3844C66.5309,-245.2724 89.4599,-134.9435 155,-79 157.8831,-76.539 160.9901,-74.319 164.256,-72.3165"/>
<polygon fill="#191970" stroke="#191970" points="166.0674,-75.3167 173.2277,-67.5076 162.7604,-69.1471 166.0674,-75.3167"/>
</g>
<!-- Node182475 -->
<g id="node29" class="node">
<title>Node182475</title>
<g id="a_node29"><a xlink:href="quickjs_8c.html#a75ac132a3af4de01e1fadeb0bede6ee7" target="_top" xlink:title="JS_ThrowReferenceErrorUninitialized">
<polygon fill="none" stroke="#ff0000" points="155,-.5 155,-19.5 335,-19.5 335,-.5 155,-.5"/>
<text text-anchor="middle" x="245" y="-7.5" font-family="Helvetica,sans-Serif" font-size="10.00" fill="#000000">JS_ThrowReferenceErrorUninitialized</text>
</a>
</g>
</g>
<!-- Node182181&#45;&gt;Node182475 -->
<g id="edge38" class="edge">
<title>Node182181&#45;&gt;Node182475</title>
<path fill="none" stroke="#191970" d="M59.888,-278.4264C61.9774,-240.3145 75.054,-98.1056 155,-29 156.7669,-27.4727 158.6257,-26.0579 160.56,-24.7477"/>
<polygon fill="#191970" stroke="#191970" points="162.5321,-27.6518 169.475,-19.6489 159.0568,-21.5754 162.5321,-27.6518"/>
</g>
<!-- Node182185 -->
<g id="node5" class="node">
<title>Node182185</title>
<g id="a_node5"><a xlink:href="quickjs_8c.html#a643df594b75933007bcdbb071b5ea8c5" target="_top" xlink:title="get_shape_prop">
<polygon fill="none" stroke="#000000" points="393.5,-202.5 393.5,-221.5 479.5,-221.5 479.5,-202.5 393.5,-202.5"/>
<text text-anchor="middle" x="436.5" y="-209.5" font-family="Helvetica,sans-Serif" font-size="10.00" fill="#000000">get_shape_prop</text>
</a>
</g>
</g>
<!-- Node182184&#45;&gt;Node182185 -->
<g id="edge4" class="edge">
<title>Node182184&#45;&gt;Node182185</title>
<path fill="none" stroke="#191970" d="M293.3235,-240.411C320.7573,-234.9672 355.1401,-228.1445 383.3357,-222.5496"/>
<polygon fill="#191970" stroke="#191970" points="384.2918,-225.9282 393.4192,-220.5487 382.9292,-219.0621 384.2918,-225.9282"/>
</g>
<!-- Node182186 -->
<g id="node6" class="node">
<title>Node182186</title>
<g id="a_node6"><a xlink:href="quickjs_8c.html#acab22c2945c4d609e57a2484feb68a96" target="_top" xlink:title="prop_hash_end">
<polygon fill="none" stroke="#000000" points="395,-240.5 395,-259.5 478,-259.5 478,-240.5 395,-240.5"/>
<text text-anchor="middle" x="436.5" y="-247.5" font-family="Helvetica,sans-Serif" font-size="10.00" fill="#000000">prop_hash_end</text>
</a>
</g>
</g>
<!-- Node182184&#45;&gt;Node182186 -->
<g id="edge5" class="edge">
<title>Node182184&#45;&gt;Node182186</title>
<path fill="none" stroke="#191970" d="M293.3235,-250C321.152,-250 356.1309,-250 384.5489,-250"/>
<polygon fill="#191970" stroke="#191970" points="384.6964,-253.5001 394.6964,-250 384.6963,-246.5001 384.6964,-253.5001"/>
</g>
<!-- Node182188 -->
<g id="node8" class="node">
<title>Node182188</title>
<g id="a_node8"><a xlink:href="quickjs_8c.html#ab4e100a9cde5f7ec87c92f5e766dbbab" target="_top" xlink:title="JS_AtomIsNumericIndex1">
<polygon fill="none" stroke="#000000" points="371,-544.5 371,-563.5 502,-563.5 502,-544.5 371,-544.5"/>
<text text-anchor="middle" x="436.5" y="-551.5" font-family="Helvetica,sans-Serif" font-size="10.00" fill="#000000">JS_AtomIsNumericIndex1</text>
</a>
</g>
</g>
<!-- Node182187&#45;&gt;Node182188 -->
<g id="edge7" class="edge">
<title>Node182187&#45;&gt;Node182188</title>
<path fill="none" stroke="#191970" d="M293.3235,-525.589C319.1632,-530.7165 351.1678,-537.0672 378.3606,-542.4632"/>
<polygon fill="#191970" stroke="#191970" points="378.0339,-545.9666 388.524,-544.4799 379.3965,-539.1004 378.0339,-545.9666"/>
</g>
<!-- Node182187&#45;&gt;Node182191 -->
<g id="edge19" class="edge">
<title>Node182187&#45;&gt;Node182191</title>
<path fill="none" stroke="#191970" d="M293.1905,-506.4474C365.3123,-491.9892 493.805,-465.5372 502,-459 531.2182,-435.6925 509.8702,-407.61 538,-383 541.2594,-380.1484 544.9499,-377.7242 548.8578,-375.6633"/>
<polygon fill="#191970" stroke="#191970" points="550.5507,-378.7412 558.2697,-371.484 547.7098,-372.3435 550.5507,-378.7412"/>
</g>
<!-- Node182227 -->
<g id="node12" class="node">
<title>Node182227</title>
<g id="a_node12"><a xlink:href="quickjs_8h.html#ad80a83d73e9b7d872b88fbf2943aebe9" target="_top" xlink:title="JS_IsException">
<polygon fill="none" stroke="#000000" points="554.5,-430.5 554.5,-449.5 640.5,-449.5 640.5,-430.5 554.5,-430.5"/>
<text text-anchor="middle" x="597.5" y="-437.5" font-family="Helvetica,sans-Serif" font-size="10.00" fill="#000000">JS_IsException</text>
</a>
</g>
</g>
<!-- Node182187&#45;&gt;Node182227 -->
<g id="edge20" class="edge">
<title>Node182187&#45;&gt;Node182227</title>
<path fill="none" stroke="#191970" d="M308.0216,-521.0476C361.8466,-522.8586 440.1466,-519.4391 502,-492 521.8405,-483.1985 519.2237,-469.8886 538,-459 541.6408,-456.8886 545.5453,-454.9808 549.5499,-453.2632"/>
<polygon fill="#191970" stroke="#191970" points="550.9432,-456.4768 558.9984,-449.5947 548.4096,-449.9514 550.9432,-456.4768"/>
</g>
<!-- Node182240 -->
<g id="node18" class="node">
<title>Node182240</title>
<g id="a_node18"><a xlink:href="quickjs_8h.html#a4e407128a9605afb77523e49e9a627fd" target="_top" xlink:title="JS_IsUndefined">
<polygon fill="none" stroke="#000000" points="393.5,-582.5 393.5,-601.5 479.5,-601.5 479.5,-582.5 393.5,-582.5"/>
<text text-anchor="middle" x="436.5" y="-589.5" font-family="Helvetica,sans-Serif" font-size="10.00" fill="#000000">JS_IsUndefined</text>
</a>
</g>
</g>
<!-- Node182187&#45;&gt;Node182240 -->
<g id="edge21" class="edge">
<title>Node182187&#45;&gt;Node182240</title>
<path fill="none" stroke="#191970" d="M263.8579,-525.5544C288.1909,-537.6433 332.0335,-558.6178 371,-573 377.269,-575.3138 383.9573,-577.5309 390.5754,-579.5814"/>
<polygon fill="#191970" stroke="#191970" points="389.5803,-582.9369 400.1643,-582.4583 391.592,-576.2322 389.5803,-582.9369"/>
</g>
<!-- Node182188&#45;&gt;Node182182 -->
<g id="edge8" class="edge">
<title>Node182188&#45;&gt;Node182182</title>
<path fill="none" stroke="#191970" d="M488.2269,-563.5388C493.2919,-566.0106 498.0189,-569.1116 502,-573 540.0105,-610.1257 500.4898,-649.369 538,-687 539.4641,-688.4688 541.0415,-689.8242 542.7071,-691.0749"/>
<polygon fill="#191970" stroke="#191970" points="541.288,-694.3074 551.6542,-696.4967 544.9159,-688.3208 541.288,-694.3074"/>
</g>
<!-- Node182188&#45;&gt;Node182183 -->
<g id="edge9" class="edge">
<title>Node182188&#45;&gt;Node182183</title>
<path fill="none" stroke="#191970" d="M486.3925,-563.5069C492.0371,-565.976 497.4024,-569.0851 502,-573 530.4566,-597.2313 509.8702,-624.39 538,-649 539.9281,-650.6868 542.0071,-652.2242 544.1926,-653.6252"/>
<polygon fill="#191970" stroke="#191970" points="542.5907,-656.7376 553.0572,-658.3813 545.9002,-650.5693 542.5907,-656.7376"/>
</g>
<!-- Node182189 -->
<g id="node9" class="node">
<title>Node182189</title>
<g id="a_node9"><a xlink:href="quickjs_8h.html#a9bf98b18de88b4199910a43e933eb97d" target="_top" xlink:title="__JS_NewFloat64">
<polygon fill="none" stroke="#000000" points="549,-620.5 549,-639.5 646,-639.5 646,-620.5 549,-620.5"/>
<text text-anchor="middle" x="597.5" y="-627.5" font-family="Helvetica,sans-Serif" font-size="10.00" fill="#000000">__JS_NewFloat64</text>
</a>
</g>
</g>
<!-- Node182188&#45;&gt;Node182189 -->
<g id="edge10" class="edge">
<title>Node182188&#45;&gt;Node182189</title>
<path fill="none" stroke="#191970" d="M481.5358,-563.6142C488.6575,-566.095 495.7316,-569.1794 502,-573 521.8654,-585.1079 518.2984,-598.6274 538,-611 541.3145,-613.0815 544.8772,-614.9538 548.5521,-616.6344"/>
<polygon fill="#191970" stroke="#191970" points="547.2598,-619.8872 557.8409,-620.4273 549.9061,-613.4067 547.2598,-619.8872"/>
</g>
<!-- Node182190 -->
<g id="node10" class="node">
<title>Node182190</title>
<g id="a_node10"><a xlink:href="quickjs_8c.html#af7b310b780a36d5b1579d4f400e6a8ae" target="_top" xlink:title="is_num">
<polygon fill="none" stroke="#000000" points="573.5,-582.5 573.5,-601.5 621.5,-601.5 621.5,-582.5 573.5,-582.5"/>
<text text-anchor="middle" x="597.5" y="-589.5" font-family="Helvetica,sans-Serif" font-size="10.00" fill="#000000">is_num</text>
</a>
</g>
</g>
<!-- Node182188&#45;&gt;Node182190 -->
<g id="edge11" class="edge">
<title>Node182188&#45;&gt;Node182190</title>
<path fill="none" stroke="#191970" d="M477.1271,-563.589C503.8179,-569.8887 538.3327,-578.0351 563.5559,-583.9883"/>
<polygon fill="#191970" stroke="#191970" points="562.8709,-587.4228 573.4076,-586.3136 564.479,-580.61 562.8709,-587.4228"/>
</g>
<!-- Node182188&#45;&gt;Node182191 -->
<g id="edge12" class="edge">
<title>Node182188&#45;&gt;Node182191</title>
<path fill="none" stroke="#191970" d="M450.194,-544.3338C464.9414,-533.2601 488.1471,-513.8078 502,-492 529.3556,-448.9357 501.7465,-418.8963 538,-383 541.252,-379.7801 545.0488,-377.1054 549.1225,-374.8837"/>
<polygon fill="#191970" stroke="#191970" points="550.7025,-378.0107 558.3785,-370.7079 547.8239,-371.6299 550.7025,-378.0107"/>
</g>
<!-- Node182188&#45;&gt;Node182227 -->
<g id="edge13" class="edge">
<title>Node182188&#45;&gt;Node182227</title>
<path fill="none" stroke="#191970" d="M477.2208,-544.4261C486.0987,-540.9528 494.938,-536.274 502,-530 528.4497,-506.5018 511.0612,-481.9359 538,-459 540.2447,-457.0888 542.6838,-455.3693 545.2505,-453.8222"/>
<polygon fill="#191970" stroke="#191970" points="547.035,-456.8417 554.3726,-449.199 543.8705,-450.5978 547.035,-456.8417"/>
</g>
<!-- Node182188&#45;&gt;Node182228 -->
<g id="edge14" class="edge">
<title>Node182188&#45;&gt;Node182228</title>
<path fill="none" stroke="#191970" d="M449.0751,-544.3286C463.253,-532.9562 486.3619,-512.9574 502,-492 523.1587,-463.644 511.0612,-443.9359 538,-421 541.5322,-417.9926 545.5456,-415.4598 549.7806,-413.3268"/>
<polygon fill="#191970" stroke="#191970" points="551.4781,-416.408 559.305,-409.2673 548.7334,-409.9685 551.4781,-416.408"/>
</g>
<!-- Node182229 -->
<g id="node14" class="node">
<title>Node182229</title>
<g id="a_node14"><a xlink:href="quickjs_8c.html#a3d9b165d4274aa43e051caba9bcbbe9f" target="_top" xlink:title="js_string_compare">
<polygon fill="none" stroke="#ff0000" points="549.5,-544.5 549.5,-563.5 645.5,-563.5 645.5,-544.5 549.5,-544.5"/>
<text text-anchor="middle" x="597.5" y="-551.5" font-family="Helvetica,sans-Serif" font-size="10.00" fill="#000000">js_string_compare</text>
</a>
</g>
</g>
<!-- Node182188&#45;&gt;Node182229 -->
<g id="edge15" class="edge">
<title>Node182188&#45;&gt;Node182229</title>
<path fill="none" stroke="#191970" d="M502.4494,-554C514.5392,-554 527.082,-554 538.9375,-554"/>
<polygon fill="#191970" stroke="#191970" points="539.1504,-557.5001 549.1504,-554 539.1503,-550.5001 539.1504,-557.5001"/>
</g>
<!-- Node182234 -->
<g id="node15" class="node">
<title>Node182234</title>
<g id="a_node15"><a xlink:href="quickjs_8c.html#a1be6d78cdf2c36e34930631587f98d44" target="_top" xlink:title="JS_ToNumber">
<polygon fill="none" stroke="#ff0000" points="557.5,-506.5 557.5,-525.5 637.5,-525.5 637.5,-506.5 557.5,-506.5"/>
<text text-anchor="middle" x="597.5" y="-513.5" font-family="Helvetica,sans-Serif" font-size="10.00" fill="#000000">JS_ToNumber</text>
</a>
</g>
</g>
<!-- Node182188&#45;&gt;Node182234 -->
<g id="edge16" class="edge">
<title>Node182188&#45;&gt;Node182234</title>
<path fill="none" stroke="#191970" d="M477.1271,-544.411C498.5496,-539.3547 525.0123,-533.1089 547.6657,-527.7621"/>
<polygon fill="#191970" stroke="#191970" points="548.5151,-531.1579 557.4436,-525.4543 546.907,-524.3451 548.5151,-531.1579"/>
</g>
<!-- Node182325 -->
<g id="node17" class="node">
<title>Node182325</title>
<g id="a_node17"><a xlink:href="quickjs_8c.html#a7bcb8e1a20cbc8374a5f9ba4a2088cec" target="_top" xlink:title="JS_ToString">
<polygon fill="none" stroke="#ff0000" points="562,-468.5 562,-487.5 633,-487.5 633,-468.5 562,-468.5"/>
<text text-anchor="middle" x="597.5" y="-475.5" font-family="Helvetica,sans-Serif" font-size="10.00" fill="#000000">JS_ToString</text>
</a>
</g>
</g>
<!-- Node182188&#45;&gt;Node182325 -->
<g id="edge18" class="edge">
<title>Node182188&#45;&gt;Node182325</title>
<path fill="none" stroke="#191970" d="M470.3081,-544.4398C480.8599,-540.7248 492.2744,-535.9172 502,-530 520.5428,-518.7183 519.2237,-507.8886 538,-497 542.4587,-494.4143 547.3128,-492.1339 552.2619,-490.1343"/>
<polygon fill="#191970" stroke="#191970" points="553.6343,-493.359 561.8171,-486.6291 551.2235,-486.7873 553.6343,-493.359"/>
</g>
<!-- Node182234&#45;&gt;Node182235 -->
<g id="edge17" class="edge">
<title>Node182234&#45;&gt;Node182235</title>
<path fill="none" stroke="#191970" d="M637.7752,-506.7708C644.5279,-504.2279 651.2124,-501.0229 657,-497 686.1031,-476.7706 709.2646,-441.815 721.6353,-420.4148"/>
<polygon fill="#191970" stroke="#191970" points="724.7174,-422.0742 726.5424,-411.6377 718.6075,-418.6582 724.7174,-422.0742"/>
</g>
<!-- Node182369&#45;&gt;Node182227 -->
<g id="edge23" class="edge">
<title>Node182369&#45;&gt;Node182227</title>
<path fill="none" stroke="#191970" d="M488.7721,-440C506.5023,-440 526.3244,-440 544.1385,-440"/>
<polygon fill="#191970" stroke="#191970" points="544.3641,-443.5001 554.364,-440 544.364,-436.5001 544.3641,-443.5001"/>
</g>
<!-- Node182264&#45;&gt;Node182191 -->
<g id="edge25" class="edge">
<title>Node182264&#45;&gt;Node182191</title>
<path fill="none" stroke="#191970" d="M472.2311,-334.4334C494.7037,-339.7375 524.0013,-346.6525 548.6123,-352.4613"/>
<polygon fill="#191970" stroke="#191970" points="547.9513,-355.9014 558.4879,-354.7922 549.5593,-349.0886 547.9513,-355.9014"/>
</g>
<!-- Node182614 -->
<g id="node25" class="node">
<title>Node182614</title>
<g id="a_node25"><a xlink:href="quickjs_8c.html#a960b48be1175b0982ecc03505711fc56" target="_top" xlink:title="js_new_string16">
<polygon fill="none" stroke="#000000" points="393,-107.5 393,-126.5 480,-126.5 480,-107.5 393,-107.5"/>
<text text-anchor="middle" x="436.5" y="-114.5" font-family="Helvetica,sans-Serif" font-size="10.00" fill="#000000">js_new_string16</text>
</a>
</g>
</g>
<!-- Node182613&#45;&gt;Node182614 -->
<g id="edge32" class="edge">
<title>Node182613&#45;&gt;Node182614</title>
<path fill="none" stroke="#191970" d="M295.5649,-103.0169C322.3896,-105.6783 355.3536,-108.9489 382.6551,-111.6577"/>
<polygon fill="#191970" stroke="#191970" points="382.5201,-115.1614 392.8168,-112.6659 383.2113,-108.1956 382.5201,-115.1614"/>
</g>
<!-- Node182247 -->
<g id="node27" class="node">
<title>Node182247</title>
<g id="a_node27"><a xlink:href="quickjs_8c.html#aa923510185fe24e3083baf7405b09f51" target="_top" xlink:title="js_new_string8">
<polygon fill="none" stroke="#ff0000" points="395.5,-69.5 395.5,-88.5 477.5,-88.5 477.5,-69.5 395.5,-69.5"/>
<text text-anchor="middle" x="436.5" y="-76.5" font-family="Helvetica,sans-Serif" font-size="10.00" fill="#000000">js_new_string8</text>
</a>
</g>
</g>
<!-- Node182613&#45;&gt;Node182247 -->
<g id="edge34" class="edge">
<title>Node182613&#45;&gt;Node182247</title>
<path fill="none" stroke="#191970" d="M295.5649,-92.9831C323.1757,-90.2437 357.2909,-86.8589 385.0404,-84.1057"/>
<polygon fill="#191970" stroke="#191970" points="385.7316,-87.5543 395.3371,-83.084 385.0404,-80.5886 385.7316,-87.5543"/>
</g>
<!-- Node182248 -->
<g id="node26" class="node">
<title>Node182248</title>
<g id="a_node26"><a xlink:href="quickjs_8c.html#ad303a9bc56766627b5fca41574933930" target="_top" xlink:title="js_alloc_string">
<polygon fill="none" stroke="#ff0000" points="558,-88.5 558,-107.5 637,-107.5 637,-88.5 558,-88.5"/>
<text text-anchor="middle" x="597.5" y="-95.5" font-family="Helvetica,sans-Serif" font-size="10.00" fill="#000000">js_alloc_string</text>
</a>
</g>
</g>
<!-- Node182614&#45;&gt;Node182248 -->
<g id="edge33" class="edge">
<title>Node182614&#45;&gt;Node182248</title>
<path fill="none" stroke="#191970" d="M480.0689,-111.8583C500.9715,-109.3916 526.1154,-106.4243 547.7648,-103.8694"/>
<polygon fill="#191970" stroke="#191970" points="548.2363,-107.3381 557.7571,-102.6902 547.4158,-100.3864 548.2363,-107.3381"/>
</g>
<!-- Node182247&#45;&gt;Node182248 -->
<g id="edge35" class="edge">
<title>Node182247&#45;&gt;Node182248</title>
<path fill="none" stroke="#191970" d="M477.5437,-83.8437C498.9533,-86.3703 525.3099,-89.4807 547.8595,-92.1418"/>
<polygon fill="#191970" stroke="#191970" points="547.5795,-95.633 557.9209,-93.3292 548.4,-88.6812 547.5795,-95.633"/>
</g>
</g>
</svg>
