<?xml version="1.0" encoding="UTF-8" standalone="no"?>
<!DOCTYPE svg PUBLIC "-//W3C//DTD SVG 1.1//EN"
 "http://www.w3.org/Graphics/SVG/1.1/DTD/svg11.dtd">
<!-- Generated by graphviz version 2.40.1 (20161225.0304)
 -->
<!-- Title: js_parse_function_decl2 Pages: 1 -->
<!--zoomable 263 -->
<svg id="main" version="1.1" xmlns="http://www.w3.org/2000/svg" xmlns:xlink="http://www.w3.org/1999/xlink" xml:space="preserve" onload="init(evt)">
<style type="text/css"><![CDATA[
.edge:hover path { stroke: red; }
.edge:hover polygon { stroke: red; fill: red; }
]]></style>
<script type="text/javascript"><![CDATA[
var edges = document.getElementsByTagName('g');
if (edges && edges.length) {
  for (var i=0;i<edges.length;i++) {
    if (edges[i].id.substr(0,4)=='edge') {
      edges[i].setAttribute('class','edge');
    }
  }
}
]]></script>
        <defs>
                <circle id="rim" cx="0" cy="0" r="7"/>
                <circle id="rim2" cx="0" cy="0" r="3.5"/>
                <g id="zoomPlus">
                        <use xlink:href="#rim" fill="#404040">
                                <set attributeName="fill" to="#808080" begin="zoomplus.mouseover" end="zoomplus.mouseout"/>
                        </use>
                        <path d="M-4,0h8M0,-4v8" fill="none" stroke="white" stroke-width="1.5" pointer-events="none"/>
                </g>
                <g id="zoomMin">
                        <use xlink:href="#rim" fill="#404040">
                                <set attributeName="fill" to="#808080" begin="zoomminus.mouseover" end="zoomminus.mouseout"/>
                        </use>
                        <path d="M-4,0h8" fill="none" stroke="white" stroke-width="1.5" pointer-events="none"/>
                </g>
                <g id="dirArrow">
                        <path fill="none" stroke="white" stroke-width="1.5" d="M0,-3.0v7 M-2.5,-0.5L0,-3.0L2.5,-0.5"/>
                </g>
               <g id="resetDef">
                       <use xlink:href="#rim2" fill="#404040">
                               <set attributeName="fill" to="#808080" begin="reset.mouseover" end="reset.mouseout"/>
                       </use>
               </g>
        </defs>

<script type="text/javascript">
var viewWidth = 765;
var viewHeight = 263;
var sectionId = 'dynsection-996';
</script>
<script xlink:href="svgpan.js"/>
<svg id="graph" class="graph">
<g id="viewport">
<title>js_parse_function_decl2</title>
<!-- Node314939 -->
<g id="node1" class="node">
<title>Node314939</title>
<polygon fill="#bfbfbf" stroke="#000000" points="0,-73.5232 0,-92.5232 122,-92.5232 122,-73.5232 0,-73.5232"/>
<text text-anchor="middle" x="61" y="-80.5232" font-family="Helvetica,sans-Serif" font-size="10.00" fill="#000000">js_parse_function_decl2</text>
</g>
<!-- Node314940 -->
<g id="node2" class="node">
<title>Node314940</title>
<g id="a_node2"><a xlink:href="quickjs_8c.html#a00eb789430243c24dab4a63ad6a79653" target="_top" xlink:title="js_parse_class">
<polygon fill="none" stroke="#000000" points="347.5,-88.5232 347.5,-107.5232 429.5,-107.5232 429.5,-88.5232 347.5,-88.5232"/>
<text text-anchor="middle" x="388.5" y="-95.5232" font-family="Helvetica,sans-Serif" font-size="10.00" fill="#000000">js_parse_class</text>
</a>
</g>
</g>
<!-- Node314939&#45;&gt;Node314940 -->
<g id="edge1" class="edge">
<title>Node314939&#45;&gt;Node314940</title>
<path fill="none" stroke="#191970" d="M110.5731,-94.6484C125.7075,-97.6786 142.4571,-100.5153 158,-102.0232 223.9292,-108.4194 300.9496,-104.8738 347.1661,-101.5675"/>
<polygon fill="#191970" stroke="#191970" points="110.8909,-91.1398 100.3881,-92.5336 109.4677,-97.9936 110.8909,-91.1398"/>
</g>
<!-- Node314957 -->
<g id="node8" class="node">
<title>Node314957</title>
<g id="a_node8"><a xlink:href="quickjs_8c.html#a498e1d5c7de1b59c1630e9847cde1e41" target="_top" xlink:title="js_parse_export">
<polygon fill="none" stroke="#000000" points="494,-35.5232 494,-54.5232 580,-54.5232 580,-35.5232 494,-35.5232"/>
<text text-anchor="middle" x="537" y="-42.5232" font-family="Helvetica,sans-Serif" font-size="10.00" fill="#000000">js_parse_export</text>
</a>
</g>
</g>
<!-- Node314939&#45;&gt;Node314957 -->
<g id="edge16" class="edge">
<title>Node314939&#45;&gt;Node314957</title>
<path fill="none" stroke="#191970" d="M112.6627,-71.4794C127.2544,-68.6078 143.1917,-65.8352 158,-64.0232 279.1414,-49.1999 423.4203,-45.8806 493.9155,-45.1781"/>
<polygon fill="#191970" stroke="#191970" points="111.9139,-68.0599 102.8061,-73.4728 113.3015,-74.921 111.9139,-68.0599"/>
</g>
<!-- Node314973 -->
<g id="node9" class="node">
<title>Node314973</title>
<g id="a_node9"><a xlink:href="quickjs_8c.html#adf95ddf430ef93fd9efea1cc2f8a2fbe" target="_top" xlink:title="js_parse_class_default_ctor">
<polygon fill="none" stroke="#000000" points="158,-73.5232 158,-92.5232 296,-92.5232 296,-73.5232 158,-73.5232"/>
<text text-anchor="middle" x="227" y="-80.5232" font-family="Helvetica,sans-Serif" font-size="10.00" fill="#000000">js_parse_class_default_ctor</text>
</a>
</g>
</g>
<!-- Node314939&#45;&gt;Node314973 -->
<g id="edge14" class="edge">
<title>Node314939&#45;&gt;Node314973</title>
<path fill="none" stroke="#191970" d="M132.4791,-83.0232C140.8754,-83.0232 149.4321,-83.0232 157.7965,-83.0232"/>
<polygon fill="#191970" stroke="#191970" points="132.3407,-79.5233 122.3406,-83.0232 132.3406,-86.5233 132.3407,-79.5233"/>
</g>
<!-- Node314974 -->
<g id="node10" class="node">
<title>Node314974</title>
<g id="a_node10"><a xlink:href="quickjs_8c.html#a3cad0b329e5f016dce8d42b4196c3499" target="_top" xlink:title="js_parse_function_decl">
<polygon fill="none" stroke="#000000" points="169,-179.5232 169,-198.5232 285,-198.5232 285,-179.5232 169,-179.5232"/>
<text text-anchor="middle" x="227" y="-186.5232" font-family="Helvetica,sans-Serif" font-size="10.00" fill="#000000">js_parse_function_decl</text>
</a>
</g>
</g>
<!-- Node314939&#45;&gt;Node314974 -->
<g id="edge17" class="edge">
<title>Node314939&#45;&gt;Node314974</title>
<path fill="none" stroke="#191970" d="M84.5453,-98.0582C119.082,-120.1117 182.5255,-160.6238 211.6494,-179.221"/>
<polygon fill="#191970" stroke="#191970" points="86.3361,-95.049 76.0242,-92.617 82.5687,-100.9488 86.3361,-95.049"/>
</g>
<!-- Node314941 -->
<g id="node3" class="node">
<title>Node314941</title>
<g id="a_node3"><a xlink:href="quickjs_8c.html#a840642c87c5a82d4cc68333376a3b6de" target="_top" xlink:title="js_parse_postfix_expr">
<polygon fill="none" stroke="#000000" points="481,-217.5232 481,-236.5232 593,-236.5232 593,-217.5232 481,-217.5232"/>
<text text-anchor="middle" x="537" y="-224.5232" font-family="Helvetica,sans-Serif" font-size="10.00" fill="#000000">js_parse_postfix_expr</text>
</a>
</g>
</g>
<!-- Node314940&#45;&gt;Node314941 -->
<g id="edge2" class="edge">
<title>Node314940&#45;&gt;Node314941</title>
<path fill="none" stroke="#191970" d="M407.2616,-114.3212C438.5185,-141.4736 500.3216,-195.1612 525.7088,-217.2148"/>
<polygon fill="#191970" stroke="#191970" points="409.5063,-111.635 399.6616,-107.7192 404.9157,-116.9195 409.5063,-111.635"/>
</g>
<!-- Node314945 -->
<g id="node6" class="node">
<title>Node314945</title>
<g id="a_node6"><a xlink:href="quickjs_8c.html#a9d844c16dcc71701436848074337d32c" target="_top" xlink:title="js_parse_statement\l_or_decl">
<polygon fill="none" stroke="#ff0000" points="486,-112.0232 486,-142.0232 588,-142.0232 588,-112.0232 486,-112.0232"/>
<text text-anchor="start" x="494" y="-130.0232" font-family="Helvetica,sans-Serif" font-size="10.00" fill="#000000">js_parse_statement</text>
<text text-anchor="middle" x="537" y="-119.0232" font-family="Helvetica,sans-Serif" font-size="10.00" fill="#000000">_or_decl</text>
</a>
</g>
</g>
<!-- Node314940&#45;&gt;Node314945 -->
<g id="edge8" class="edge">
<title>Node314940&#45;&gt;Node314945</title>
<path fill="none" stroke="#191970" d="M439.8996,-108.0609C454.7534,-110.9616 470.9589,-114.1263 485.8005,-117.0247"/>
<polygon fill="#191970" stroke="#191970" points="440.351,-104.583 429.8655,-106.1013 439.0093,-111.4532 440.351,-104.583"/>
</g>
<!-- Node314940&#45;&gt;Node314957 -->
<g id="edge12" class="edge">
<title>Node314940&#45;&gt;Node314957</title>
<path fill="none" stroke="#191970" d="M425.0455,-84.9801C451.447,-75.5573 486.5063,-63.0446 510.3078,-54.5497"/>
<polygon fill="#191970" stroke="#191970" points="423.6339,-81.7676 415.3922,-88.4253 425.9869,-88.3603 423.6339,-81.7676"/>
</g>
<!-- Node314941&#45;&gt;Node314941 -->
<g id="edge5" class="edge">
<title>Node314941&#45;&gt;Node314941</title>
<path fill="none" stroke="#191970" d="M509.3742,-245.6772C510.5289,-250.96 519.7375,-255.0232 537,-255.0232 563.3047,-255.0232 570.9084,-245.5885 559.8111,-236.7803"/>
<polygon fill="#191970" stroke="#191970" points="512.5076,-247.2409 514.1889,-236.7803 506.3512,-243.9092 512.5076,-247.2409"/>
</g>
<!-- Node314942 -->
<g id="node4" class="node">
<title>Node314942</title>
<g id="a_node4"><a xlink:href="quickjs_8c.html#a12b48ce2b1f247b494fdde07dbe7f232" target="_top" xlink:title="js_parse_left_hand\l_side_expr">
<polygon fill="none" stroke="#ff0000" points="644,-142.0232 644,-172.0232 742,-172.0232 742,-142.0232 644,-142.0232"/>
<text text-anchor="start" x="652" y="-160.0232" font-family="Helvetica,sans-Serif" font-size="10.00" fill="#000000">js_parse_left_hand</text>
<text text-anchor="middle" x="693" y="-149.0232" font-family="Helvetica,sans-Serif" font-size="10.00" fill="#000000">_side_expr</text>
</a>
</g>
</g>
<!-- Node314941&#45;&gt;Node314942 -->
<g id="edge3" class="edge">
<title>Node314941&#45;&gt;Node314942</title>
<path fill="none" stroke="#191970" d="M568.9472,-213.503C576.8276,-210.1208 585.2342,-206.4728 593,-203.0232 615.7037,-192.9384 641.1364,-181.2338 660.6716,-172.1551"/>
<polygon fill="#191970" stroke="#191970" points="567.4945,-210.3175 559.6742,-217.4655 570.2451,-216.7544 567.4945,-210.3175"/>
</g>
<!-- Node314958 -->
<g id="node5" class="node">
<title>Node314958</title>
<g id="a_node5"><a xlink:href="quickjs_8c.html#a9f26c765171d977db1796791f035f1f9" target="_top" xlink:title="js_parse_unary">
<polygon fill="none" stroke="#ff0000" points="651.5,-217.5232 651.5,-236.5232 734.5,-236.5232 734.5,-217.5232 651.5,-217.5232"/>
<text text-anchor="middle" x="693" y="-224.5232" font-family="Helvetica,sans-Serif" font-size="10.00" fill="#000000">js_parse_unary</text>
</a>
</g>
</g>
<!-- Node314941&#45;&gt;Node314958 -->
<g id="edge6" class="edge">
<title>Node314941&#45;&gt;Node314958</title>
<path fill="none" stroke="#191970" d="M603.3622,-227.0232C619.6776,-227.0232 636.6881,-227.0232 651.451,-227.0232"/>
<polygon fill="#191970" stroke="#191970" points="603.3196,-223.5233 593.3196,-227.0232 603.3195,-230.5233 603.3196,-223.5233"/>
</g>
<!-- Node314942&#45;&gt;Node314940 -->
<g id="edge4" class="edge">
<title>Node314942&#45;&gt;Node314940</title>
<path fill="none" stroke="#191970" d="M663.9071,-136.0733C644.7713,-123.5854 618.6132,-108.8698 593,-102.0232 537.9392,-87.3051 471.5366,-89.4698 429.6566,-93.1332"/>
<polygon fill="#191970" stroke="#191970" points="662.1862,-139.1335 672.4403,-141.7988 666.0864,-133.3207 662.1862,-139.1335"/>
</g>
<!-- Node314958&#45;&gt;Node314958 -->
<g id="edge7" class="edge">
<title>Node314958&#45;&gt;Node314958</title>
<path fill="none" stroke="#191970" d="M663.8809,-245.6772C665.0981,-250.96 674.8044,-255.0232 693,-255.0232 720.7266,-255.0232 728.7413,-245.5885 717.0441,-236.7803"/>
<polygon fill="#191970" stroke="#191970" points="667.0412,-247.2007 668.9559,-236.7803 660.9609,-243.7323 667.0412,-247.2007"/>
</g>
<!-- Node314945&#45;&gt;Node314945 -->
<g id="edge9" class="edge">
<title>Node314945&#45;&gt;Node314945</title>
<path fill="none" stroke="#191970" d="M510.7022,-152.4811C513.9661,-157.2022 522.7321,-160.5232 537,-160.5232 560.4141,-160.5232 569.0114,-151.5798 562.7921,-142.1822"/>
<polygon fill="#191970" stroke="#191970" points="514.2132,-152.3419 511.2079,-142.1822 507.2216,-151.9985 514.2132,-152.3419"/>
</g>
<!-- Node314949 -->
<g id="node7" class="node">
<title>Node314949</title>
<g id="a_node7"><a xlink:href="quickjs_8c.html#ab59a3267a100decc9d2d81eb3297794a" target="_top" xlink:title="js_parse_source_element">
<polygon fill="none" stroke="#ff0000" points="629,-76.5232 629,-95.5232 757,-95.5232 757,-76.5232 629,-76.5232"/>
<text text-anchor="middle" x="693" y="-83.5232" font-family="Helvetica,sans-Serif" font-size="10.00" fill="#000000">js_parse_source_element</text>
</a>
</g>
</g>
<!-- Node314945&#45;&gt;Node314949 -->
<g id="edge10" class="edge">
<title>Node314945&#45;&gt;Node314949</title>
<path fill="none" stroke="#191970" d="M597.9746,-110.9979C617.8088,-105.785 639.1871,-100.1664 656.6341,-95.5809"/>
<polygon fill="#191970" stroke="#191970" points="596.8621,-107.6713 588.0802,-113.5983 598.6415,-114.4414 596.8621,-107.6713"/>
</g>
<!-- Node314949&#45;&gt;Node314939 -->
<g id="edge11" class="edge">
<title>Node314949&#45;&gt;Node314939</title>
<path fill="none" stroke="#191970" d="M673.7472,-70.083C654.628,-55.3708 623.795,-34.5529 593,-26.0232 406.4215,25.656 347.5845,-9.7805 158,-49.0232 131.4389,-54.5212 102.2228,-65.4767 82.8684,-73.4706"/>
<polygon fill="#191970" stroke="#191970" points="671.651,-72.8875 681.6652,-76.347 675.9941,-67.3977 671.651,-72.8875"/>
</g>
<!-- Node314957&#45;&gt;Node314949 -->
<g id="edge13" class="edge">
<title>Node314957&#45;&gt;Node314949</title>
<path fill="none" stroke="#191970" d="M582.9515,-57.1002C606.4964,-63.2883 634.7575,-70.7159 656.7447,-76.4946"/>
<polygon fill="#191970" stroke="#191970" points="583.7429,-53.6894 573.1816,-54.5325 581.9635,-60.4595 583.7429,-53.6894"/>
</g>
<!-- Node314973&#45;&gt;Node314940 -->
<g id="edge15" class="edge">
<title>Node314973&#45;&gt;Node314940</title>
<path fill="none" stroke="#191970" d="M306.6031,-90.4167C320.6216,-91.7187 334.6861,-93.025 347.1064,-94.1786"/>
<polygon fill="#191970" stroke="#191970" points="306.7087,-86.9115 296.4278,-89.4716 306.0612,-93.8815 306.7087,-86.9115"/>
</g>
<!-- Node314974&#45;&gt;Node314941 -->
<g id="edge20" class="edge">
<title>Node314974&#45;&gt;Node314941</title>
<path fill="none" stroke="#191970" d="M247.8813,-204.4618C268.1795,-218.4366 300.4776,-238.0188 332,-246.0232 391.7598,-261.1979 464.063,-247.2955 504.8719,-236.6119"/>
<polygon fill="#191970" stroke="#191970" points="249.8867,-201.5933 239.6998,-198.6819 245.8477,-207.3105 249.8867,-201.5933"/>
</g>
<!-- Node314974&#45;&gt;Node314945 -->
<g id="edge22" class="edge">
<title>Node314974&#45;&gt;Node314945</title>
<path fill="none" stroke="#191970" d="M284.8229,-177.4587C342.5873,-165.9058 430.5325,-148.3167 485.8322,-137.2568"/>
<polygon fill="#191970" stroke="#191970" points="283.8775,-174.0783 274.7581,-179.4716 285.2504,-180.9424 283.8775,-174.0783"/>
</g>
<!-- Node314974&#45;&gt;Node314949 -->
<g id="edge21" class="edge">
<title>Node314974&#45;&gt;Node314949</title>
<path fill="none" stroke="#191970" d="M295.1855,-199.5544C371.4282,-208.1803 496.8155,-212.7685 593,-169.0232 613.8853,-159.5245 611.6174,-146.9988 629,-132.0232 644.9647,-118.2692 664.882,-104.4166 678.2192,-95.5613"/>
<polygon fill="#191970" stroke="#191970" points="295.5631,-196.0747 285.2204,-198.3721 294.7384,-203.026 295.5631,-196.0747"/>
</g>
<!-- Node314966 -->
<g id="node11" class="node">
<title>Node314966</title>
<g id="a_node11"><a xlink:href="quickjs_8c.html#aee6d0acd87f136d43f157ae1426436e6" target="_top" xlink:title="js_parse_object_literal">
<polygon fill="none" stroke="#000000" points="332,-217.5232 332,-236.5232 445,-236.5232 445,-217.5232 332,-217.5232"/>
<text text-anchor="middle" x="388.5" y="-224.5232" font-family="Helvetica,sans-Serif" font-size="10.00" fill="#000000">js_parse_object_literal</text>
</a>
</g>
</g>
<!-- Node314974&#45;&gt;Node314966 -->
<g id="edge18" class="edge">
<title>Node314974&#45;&gt;Node314966</title>
<path fill="none" stroke="#191970" d="M277.5583,-200.9193C300.2588,-206.2606 326.6781,-212.4769 348.0398,-217.5032"/>
<polygon fill="#191970" stroke="#191970" points="278.2891,-197.4957 267.7533,-198.6122 276.6858,-204.3097 278.2891,-197.4957"/>
</g>
<!-- Node314966&#45;&gt;Node314941 -->
<g id="edge19" class="edge">
<title>Node314966&#45;&gt;Node314941</title>
<path fill="none" stroke="#191970" d="M455.2828,-227.0232C463.7369,-227.0232 472.3215,-227.0232 480.5922,-227.0232"/>
<polygon fill="#191970" stroke="#191970" points="455.0651,-223.5233 445.0651,-227.0232 455.0651,-230.5233 455.0651,-223.5233"/>
</g>
</g>
</svg>
        <g id="navigator" transform="translate(0 0)" fill="#404254">
                <rect fill="#f2f5e9" fill-opacity="0.5" stroke="#606060" stroke-width=".5" x="0" y="0" width="60" height="60"/>
                <use id="zoomplus" xlink:href="#zoomPlus" x="17" y="9" onmousedown="handleZoom(evt,'in')"/>
                <use id="zoomminus" xlink:href="#zoomMin" x="42" y="9" onmousedown="handleZoom(evt,'out')"/>
                <use id="reset" xlink:href="#resetDef" x="30" y="36" onmousedown="handleReset()"/>
                <g id="arrowUp" xlink:href="#dirArrow" transform="translate(30 24)" onmousedown="handlePan(0,-1)">
                  <use xlink:href="#rim" fill="#404040">
                        <set attributeName="fill" to="#808080" begin="arrowUp.mouseover" end="arrowUp.mouseout"/>
                  </use>
                  <path fill="none" stroke="white" stroke-width="1.5" d="M0,-3.0v7 M-2.5,-0.5L0,-3.0L2.5,-0.5"/>
                </g>
                <g id="arrowRight" xlink:href="#dirArrow" transform="rotate(90) translate(36 -43)" onmousedown="handlePan(1,0)">
                  <use xlink:href="#rim" fill="#404040">
                        <set attributeName="fill" to="#808080" begin="arrowRight.mouseover" end="arrowRight.mouseout"/>
                  </use>
                  <path fill="none" stroke="white" stroke-width="1.5" d="M0,-3.0v7 M-2.5,-0.5L0,-3.0L2.5,-0.5"/>
                </g>
                <g id="arrowDown" xlink:href="#dirArrow" transform="rotate(180) translate(-30 -48)" onmousedown="handlePan(0,1)">
                  <use xlink:href="#rim" fill="#404040">
                        <set attributeName="fill" to="#808080" begin="arrowDown.mouseover" end="arrowDown.mouseout"/>
                  </use>
                  <path fill="none" stroke="white" stroke-width="1.5" d="M0,-3.0v7 M-2.5,-0.5L0,-3.0L2.5,-0.5"/>
                </g>
                <g id="arrowLeft" xlink:href="#dirArrow" transform="rotate(270) translate(-36 17)" onmousedown="handlePan(-1,0)">
                  <use xlink:href="#rim" fill="#404040">
                        <set attributeName="fill" to="#808080" begin="arrowLeft.mouseover" end="arrowLeft.mouseout"/>
                  </use>
                  <path fill="none" stroke="white" stroke-width="1.5" d="M0,-3.0v7 M-2.5,-0.5L0,-3.0L2.5,-0.5"/>
                </g>
        </g>
        <svg viewBox="0 0 15 15" width="100%" height="30px" preserveAspectRatio="xMaxYMin meet">
         <g id="arrow_out" transform="scale(0.3 0.3)">
          <a xlink:href="quickjs_8c_acc9eb677cab8dfcf45f59381f8a19601_icgraph_org.svg" target="_base">
           <rect id="button" ry="5" rx="5" y="6" x="6" height="38" width="38"
                fill="#f2f5e9" fill-opacity="0.5" stroke="#606060" stroke-width="1.0"/>
           <path id="arrow"
             d="M 11.500037,31.436501 C 11.940474,20.09759 22.043105,11.32322 32.158766,21.979434 L 37.068811,17.246167 C 37.068811,17.246167 37.088388,32 37.088388,32 L 22.160133,31.978069 C 22.160133,31.978069 26.997745,27.140456 26.997745,27.140456 C 18.528582,18.264221 13.291696,25.230495 11.500037,31.436501 z"
             style="fill:#404040;"/>
          </a>
         </g>
        </svg>
</svg>
