<?xml version="1.0" encoding="UTF-8" standalone="no"?>
<!DOCTYPE svg PUBLIC "-//W3C//DTD SVG 1.1//EN"
 "http://www.w3.org/Graphics/SVG/1.1/DTD/svg11.dtd">
<!-- Generated by graphviz version 2.40.1 (20161225.0304)
 -->
<!-- Title: JS_DefinePropertyValueUint32 Pages: 1 -->
<!--zoomable 161 -->
<svg id="main" version="1.1" xmlns="http://www.w3.org/2000/svg" xmlns:xlink="http://www.w3.org/1999/xlink" xml:space="preserve" onload="init(evt)">
<style type="text/css"><![CDATA[
.edge:hover path { stroke: red; }
.edge:hover polygon { stroke: red; fill: red; }
]]></style>
<script type="text/javascript"><![CDATA[
var edges = document.getElementsByTagName('g');
if (edges && edges.length) {
  for (var i=0;i<edges.length;i++) {
    if (edges[i].id.substr(0,4)=='edge') {
      edges[i].setAttribute('class','edge');
    }
  }
}
]]></script>
        <defs>
                <circle id="rim" cx="0" cy="0" r="7"/>
                <circle id="rim2" cx="0" cy="0" r="3.5"/>
                <g id="zoomPlus">
                        <use xlink:href="#rim" fill="#404040">
                                <set attributeName="fill" to="#808080" begin="zoomplus.mouseover" end="zoomplus.mouseout"/>
                        </use>
                        <path d="M-4,0h8M0,-4v8" fill="none" stroke="white" stroke-width="1.5" pointer-events="none"/>
                </g>
                <g id="zoomMin">
                        <use xlink:href="#rim" fill="#404040">
                                <set attributeName="fill" to="#808080" begin="zoomminus.mouseover" end="zoomminus.mouseout"/>
                        </use>
                        <path d="M-4,0h8" fill="none" stroke="white" stroke-width="1.5" pointer-events="none"/>
                </g>
                <g id="dirArrow">
                        <path fill="none" stroke="white" stroke-width="1.5" d="M0,-3.0v7 M-2.5,-0.5L0,-3.0L2.5,-0.5"/>
                </g>
               <g id="resetDef">
                       <use xlink:href="#rim2" fill="#404040">
                               <set attributeName="fill" to="#808080" begin="reset.mouseover" end="reset.mouseout"/>
                       </use>
               </g>
        </defs>

<script type="text/javascript">
var viewWidth = 759;
var viewHeight = 161;
var sectionId = 'dynsection-614';
</script>
<script xlink:href="svgpan.js"/>
<svg id="graph" class="graph">
<g id="viewport">
<title>JS_DefinePropertyValueUint32</title>
<!-- Node211142 -->
<g id="node1" class="node">
<title>Node211142</title>
<polygon fill="#bfbfbf" stroke="#000000" points="0,-19.5 0,-38.5 152,-38.5 152,-19.5 0,-19.5"/>
<text text-anchor="middle" x="76" y="-26.5" font-family="Helvetica,sans-Serif" font-size="10.00" fill="#000000">JS_DefinePropertyValueUint32</text>
</g>
<!-- Node211143 -->
<g id="node2" class="node">
<title>Node211143</title>
<g id="a_node2"><a xlink:href="quickjs_8c.html#a0c61bd5a64c743e81188bb528b78e715" target="_top" xlink:title="JS_DefinePropertyValueValue">
<polygon fill="none" stroke="#000000" points="188,-57.5 188,-76.5 337,-76.5 337,-57.5 188,-57.5"/>
<text text-anchor="middle" x="262.5" y="-64.5" font-family="Helvetica,sans-Serif" font-size="10.00" fill="#000000">JS_DefinePropertyValueValue</text>
</a>
</g>
</g>
<!-- Node211142&#45;&gt;Node211143 -->
<g id="edge1" class="edge">
<title>Node211142&#45;&gt;Node211143</title>
<path fill="none" stroke="#191970" d="M123.0618,-38.589C148.2268,-43.7165 179.3958,-50.0672 205.8786,-55.4632"/>
<polygon fill="#191970" stroke="#191970" points="205.2791,-58.9129 215.7766,-57.4799 206.6767,-52.0538 205.2791,-58.9129"/>
</g>
<!-- Node211288 -->
<g id="node6" class="node">
<title>Node211288</title>
<g id="a_node6"><a xlink:href="quickjs_8h.html#a88259aa0da61ac754402c64ccecee116" target="_top" xlink:title="JS_NewUint32">
<polygon fill="none" stroke="#ff0000" points="668,-.5 668,-19.5 751,-19.5 751,-.5 668,-.5"/>
<text text-anchor="middle" x="709.5" y="-7.5" font-family="Helvetica,sans-Serif" font-size="10.00" fill="#000000">JS_NewUint32</text>
</a>
</g>
</g>
<!-- Node211142&#45;&gt;Node211288 -->
<g id="edge10" class="edge">
<title>Node211142&#45;&gt;Node211288</title>
<path fill="none" stroke="#191970" d="M152.2377,-22.7781C212.1938,-18.2103 297.8616,-12.401 373,-10 473.7353,-6.7811 591.5202,-7.9007 657.6257,-8.9732"/>
<polygon fill="#191970" stroke="#191970" points="657.7235,-12.4752 667.781,-9.1442 657.8414,-5.4762 657.7235,-12.4752"/>
</g>
<!-- Node211144 -->
<g id="node3" class="node">
<title>Node211144</title>
<g id="a_node3"><a xlink:href="quickjs_8c.html#a0a8765bd4012467d9139bc24aabcb3ca" target="_top" xlink:title="JS_DefinePropertyValue">
<polygon fill="none" stroke="#000000" points="373,-57.5 373,-76.5 497,-76.5 497,-57.5 373,-57.5"/>
<text text-anchor="middle" x="435" y="-64.5" font-family="Helvetica,sans-Serif" font-size="10.00" fill="#000000">JS_DefinePropertyValue</text>
</a>
</g>
</g>
<!-- Node211143&#45;&gt;Node211144 -->
<g id="edge2" class="edge">
<title>Node211143&#45;&gt;Node211144</title>
<path fill="none" stroke="#191970" d="M337.1577,-67C345.6379,-67 354.2704,-67 362.7192,-67"/>
<polygon fill="#191970" stroke="#191970" points="362.9111,-70.5001 372.9111,-67 362.9111,-63.5001 362.9111,-70.5001"/>
</g>
<!-- Node211173 -->
<g id="node5" class="node">
<title>Node211173</title>
<g id="a_node5"><a xlink:href="quickjs_8h.html#afaa20c47565bc704c6c85f3d77254e7d" target="_top" xlink:title="JS_FreeValue">
<polygon fill="none" stroke="#ff0000" points="670.5,-57.5 670.5,-76.5 748.5,-76.5 748.5,-57.5 670.5,-57.5"/>
<text text-anchor="middle" x="709.5" y="-64.5" font-family="Helvetica,sans-Serif" font-size="10.00" fill="#000000">JS_FreeValue</text>
</a>
</g>
</g>
<!-- Node211143&#45;&gt;Node211173 -->
<g id="edge8" class="edge">
<title>Node211143&#45;&gt;Node211173</title>
<path fill="none" stroke="#191970" d="M307.4361,-76.5122C327.4119,-80.2776 351.2776,-84.1461 373,-86 487.7155,-95.7906 517.5366,-93.3952 632,-81 641.1839,-80.0055 650.9182,-78.5608 660.2728,-76.9728"/>
<polygon fill="#191970" stroke="#191970" points="660.9947,-80.3995 670.2304,-75.2079 659.7731,-73.5069 660.9947,-80.3995"/>
</g>
<!-- Node211195 -->
<g id="node7" class="node">
<title>Node211195</title>
<g id="a_node7"><a xlink:href="quickjs_8c.html#ab7fc45a99935a1c0ba50b0216d9401a9" target="_top" xlink:title="JS_FreeAtom">
<polygon fill="none" stroke="#ff0000" points="396.5,-19.5 396.5,-38.5 473.5,-38.5 473.5,-19.5 396.5,-19.5"/>
<text text-anchor="middle" x="435" y="-26.5" font-family="Helvetica,sans-Serif" font-size="10.00" fill="#000000">JS_FreeAtom</text>
</a>
</g>
</g>
<!-- Node211143&#45;&gt;Node211195 -->
<g id="edge7" class="edge">
<title>Node211143&#45;&gt;Node211195</title>
<path fill="none" stroke="#191970" d="M306.029,-57.411C330.6122,-51.9956 361.39,-45.2155 386.7133,-39.6371"/>
<polygon fill="#191970" stroke="#191970" points="387.4694,-43.0545 396.4822,-37.4851 385.9634,-36.2184 387.4694,-43.0545"/>
</g>
<!-- Node211289 -->
<g id="node8" class="node">
<title>Node211289</title>
<g id="a_node8"><a xlink:href="quickjs_8c.html#a859d5c989a2aaecef1653b3ac279e108" target="_top" xlink:title="JS_ValueToAtom">
<polygon fill="none" stroke="#ff0000" points="388.5,-133.5 388.5,-152.5 481.5,-152.5 481.5,-133.5 388.5,-133.5"/>
<text text-anchor="middle" x="435" y="-140.5" font-family="Helvetica,sans-Serif" font-size="10.00" fill="#000000">JS_ValueToAtom</text>
</a>
</g>
</g>
<!-- Node211143&#45;&gt;Node211289 -->
<g id="edge9" class="edge">
<title>Node211143&#45;&gt;Node211289</title>
<path fill="none" stroke="#191970" d="M281.8728,-76.625C303.7891,-87.3942 340.6461,-105.1457 373,-119 381.5571,-122.6642 390.8759,-126.4017 399.6272,-129.8025"/>
<polygon fill="#191970" stroke="#191970" points="398.6057,-133.1594 409.1957,-133.4773 401.1153,-126.6247 398.6057,-133.1594"/>
</g>
<!-- Node211145 -->
<g id="node4" class="node">
<title>Node211145</title>
<g id="a_node4"><a xlink:href="quickjs_8c.html#ab50618f1bf78e444caa6da0e3e2785d7" target="_top" xlink:title="JS_DefineProperty">
<polygon fill="none" stroke="#ff0000" points="533,-19.5 533,-38.5 632,-38.5 632,-19.5 533,-19.5"/>
<text text-anchor="middle" x="582.5" y="-26.5" font-family="Helvetica,sans-Serif" font-size="10.00" fill="#000000">JS_DefineProperty</text>
</a>
</g>
</g>
<!-- Node211144&#45;&gt;Node211145 -->
<g id="edge3" class="edge">
<title>Node211144&#45;&gt;Node211145</title>
<path fill="none" stroke="#191970" d="M472.2205,-57.411C491.5093,-52.4417 515.2584,-46.3233 535.771,-41.0387"/>
<polygon fill="#191970" stroke="#191970" points="536.7366,-44.4043 545.5472,-38.5201 534.9902,-37.6256 536.7366,-44.4043"/>
</g>
<!-- Node211144&#45;&gt;Node211173 -->
<g id="edge6" class="edge">
<title>Node211144&#45;&gt;Node211173</title>
<path fill="none" stroke="#191970" d="M497.2883,-67C546.5965,-67 614.5247,-67 660.1233,-67"/>
<polygon fill="#191970" stroke="#191970" points="660.3532,-70.5001 670.3531,-67 660.3531,-63.5001 660.3532,-70.5001"/>
</g>
<!-- Node211145&#45;&gt;Node211173 -->
<g id="edge4" class="edge">
<title>Node211145&#45;&gt;Node211173</title>
<path fill="none" stroke="#191970" d="M614.5475,-38.589C630.6411,-43.4044 650.3409,-49.2988 667.6167,-54.468"/>
<polygon fill="#191970" stroke="#191970" points="666.8791,-57.9006 677.4628,-57.4141 668.8858,-51.1943 666.8791,-57.9006"/>
</g>
<!-- Node211145&#45;&gt;Node211288 -->
<g id="edge5" class="edge">
<title>Node211145&#45;&gt;Node211288</title>
<path fill="none" stroke="#191970" d="M632.3293,-21.5452C640.6292,-20.3035 649.2562,-19.0128 657.6061,-17.7637"/>
<polygon fill="#191970" stroke="#191970" points="658.241,-21.2077 667.613,-16.2666 657.2052,-14.2848 658.241,-21.2077"/>
</g>
</g>
</svg>
        <g id="navigator" transform="translate(0 0)" fill="#404254">
                <rect fill="#f2f5e9" fill-opacity="0.5" stroke="#606060" stroke-width=".5" x="0" y="0" width="60" height="60"/>
                <use id="zoomplus" xlink:href="#zoomPlus" x="17" y="9" onmousedown="handleZoom(evt,'in')"/>
                <use id="zoomminus" xlink:href="#zoomMin" x="42" y="9" onmousedown="handleZoom(evt,'out')"/>
                <use id="reset" xlink:href="#resetDef" x="30" y="36" onmousedown="handleReset()"/>
                <g id="arrowUp" xlink:href="#dirArrow" transform="translate(30 24)" onmousedown="handlePan(0,-1)">
                  <use xlink:href="#rim" fill="#404040">
                        <set attributeName="fill" to="#808080" begin="arrowUp.mouseover" end="arrowUp.mouseout"/>
                  </use>
                  <path fill="none" stroke="white" stroke-width="1.5" d="M0,-3.0v7 M-2.5,-0.5L0,-3.0L2.5,-0.5"/>
                </g>
                <g id="arrowRight" xlink:href="#dirArrow" transform="rotate(90) translate(36 -43)" onmousedown="handlePan(1,0)">
                  <use xlink:href="#rim" fill="#404040">
                        <set attributeName="fill" to="#808080" begin="arrowRight.mouseover" end="arrowRight.mouseout"/>
                  </use>
                  <path fill="none" stroke="white" stroke-width="1.5" d="M0,-3.0v7 M-2.5,-0.5L0,-3.0L2.5,-0.5"/>
                </g>
                <g id="arrowDown" xlink:href="#dirArrow" transform="rotate(180) translate(-30 -48)" onmousedown="handlePan(0,1)">
                  <use xlink:href="#rim" fill="#404040">
                        <set attributeName="fill" to="#808080" begin="arrowDown.mouseover" end="arrowDown.mouseout"/>
                  </use>
                  <path fill="none" stroke="white" stroke-width="1.5" d="M0,-3.0v7 M-2.5,-0.5L0,-3.0L2.5,-0.5"/>
                </g>
                <g id="arrowLeft" xlink:href="#dirArrow" transform="rotate(270) translate(-36 17)" onmousedown="handlePan(-1,0)">
                  <use xlink:href="#rim" fill="#404040">
                        <set attributeName="fill" to="#808080" begin="arrowLeft.mouseover" end="arrowLeft.mouseout"/>
                  </use>
                  <path fill="none" stroke="white" stroke-width="1.5" d="M0,-3.0v7 M-2.5,-0.5L0,-3.0L2.5,-0.5"/>
                </g>
        </g>
        <svg viewBox="0 0 15 15" width="100%" height="30px" preserveAspectRatio="xMaxYMin meet">
         <g id="arrow_out" transform="scale(0.3 0.3)">
          <a xlink:href="quickjs_8c_a12aed667595f49667e0095f0a028e0d4_cgraph_org.svg" target="_base">
           <rect id="button" ry="5" rx="5" y="6" x="6" height="38" width="38"
                fill="#f2f5e9" fill-opacity="0.5" stroke="#606060" stroke-width="1.0"/>
           <path id="arrow"
             d="M 11.500037,31.436501 C 11.940474,20.09759 22.043105,11.32322 32.158766,21.979434 L 37.068811,17.246167 C 37.068811,17.246167 37.088388,32 37.088388,32 L 22.160133,31.978069 C 22.160133,31.978069 26.997745,27.140456 26.997745,27.140456 C 18.528582,18.264221 13.291696,25.230495 11.500037,31.436501 z"
             style="fill:#404040;"/>
          </a>
         </g>
        </svg>
</svg>
