<?xml version="1.0" encoding="UTF-8" standalone="no"?>
<!DOCTYPE svg PUBLIC "-//W3C//DTD SVG 1.1//EN"
 "http://www.w3.org/Graphics/SVG/1.1/DTD/svg11.dtd">
<!-- Generated by graphviz version 2.40.1 (20161225.0304)
 -->
<!-- Title: js_module_loader Pages: 1 -->
<!--zoomable 668 -->
<svg id="main" version="1.1" xmlns="http://www.w3.org/2000/svg" xmlns:xlink="http://www.w3.org/1999/xlink" xml:space="preserve" onload="init(evt)">
<style type="text/css"><![CDATA[
.edge:hover path { stroke: red; }
.edge:hover polygon { stroke: red; fill: red; }
]]></style>
<script type="text/javascript"><![CDATA[
var edges = document.getElementsByTagName('g');
if (edges && edges.length) {
  for (var i=0;i<edges.length;i++) {
    if (edges[i].id.substr(0,4)=='edge') {
      edges[i].setAttribute('class','edge');
    }
  }
}
]]></script>
        <defs>
                <circle id="rim" cx="0" cy="0" r="7"/>
                <circle id="rim2" cx="0" cy="0" r="3.5"/>
                <g id="zoomPlus">
                        <use xlink:href="#rim" fill="#404040">
                                <set attributeName="fill" to="#808080" begin="zoomplus.mouseover" end="zoomplus.mouseout"/>
                        </use>
                        <path d="M-4,0h8M0,-4v8" fill="none" stroke="white" stroke-width="1.5" pointer-events="none"/>
                </g>
                <g id="zoomMin">
                        <use xlink:href="#rim" fill="#404040">
                                <set attributeName="fill" to="#808080" begin="zoomminus.mouseover" end="zoomminus.mouseout"/>
                        </use>
                        <path d="M-4,0h8" fill="none" stroke="white" stroke-width="1.5" pointer-events="none"/>
                </g>
                <g id="dirArrow">
                        <path fill="none" stroke="white" stroke-width="1.5" d="M0,-3.0v7 M-2.5,-0.5L0,-3.0L2.5,-0.5"/>
                </g>
               <g id="resetDef">
                       <use xlink:href="#rim2" fill="#404040">
                               <set attributeName="fill" to="#808080" begin="reset.mouseover" end="reset.mouseout"/>
                       </use>
               </g>
        </defs>

<script type="text/javascript">
var viewWidth = 1078;
var viewHeight = 668;
var sectionId = 'dynsection-20';
</script>
<script xlink:href="svgpan.js"/>
<svg id="graph" class="graph">
<g id="viewport">
<title>js_module_loader</title>
<!-- Node2812 -->
<g id="node1" class="node">
<title>Node2812</title>
<polygon fill="#bfbfbf" stroke="#000000" points="0,-507.5057 0,-526.5057 92,-526.5057 92,-507.5057 0,-507.5057"/>
<text text-anchor="middle" x="46" y="-514.5057" font-family="Helvetica,sans-Serif" font-size="10.00" fill="#000000">js_module_loader</text>
</g>
<!-- Node2813 -->
<g id="node2" class="node">
<title>Node2813</title>
<g id="a_node2"><a xlink:href="cutils_8h.html#a6ba0ed81ba200dfb3deaaff79932a5b0" target="_top" xlink:title="has_suffix">
<polygon fill="none" stroke="#000000" points="166.5,-640.5057 166.5,-659.5057 228.5,-659.5057 228.5,-640.5057 166.5,-640.5057"/>
<text text-anchor="middle" x="197.5" y="-647.5057" font-family="Helvetica,sans-Serif" font-size="10.00" fill="#000000">has_suffix</text>
</a>
</g>
</g>
<!-- Node2812&#45;&gt;Node2813 -->
<g id="edge1" class="edge">
<title>Node2812&#45;&gt;Node2813</title>
<path fill="none" stroke="#191970" d="M50.1552,-526.6598C60.1552,-548.7167 87.7517,-603.0519 128,-631.0057 136.4759,-636.8925 146.7068,-640.9584 156.6812,-643.7655"/>
<polygon fill="#191970" stroke="#191970" points="155.9496,-647.1898 166.4957,-646.1739 157.618,-640.3915 155.9496,-647.1898"/>
</g>
<!-- Node2814 -->
<g id="node3" class="node">
<title>Node2814</title>
<g id="a_node3"><a xlink:href="quickjs_8c.html#a8f9200abd5af97fd0411fe053cb021e0" target="_top" xlink:title="JS_Eval">
<polygon fill="none" stroke="#000000" points="171,-602.5057 171,-621.5057 224,-621.5057 224,-602.5057 171,-602.5057"/>
<text text-anchor="middle" x="197.5" y="-609.5057" font-family="Helvetica,sans-Serif" font-size="10.00" fill="#000000">JS_Eval</text>
</a>
</g>
</g>
<!-- Node2812&#45;&gt;Node2814 -->
<g id="edge2" class="edge">
<title>Node2812&#45;&gt;Node2814</title>
<path fill="none" stroke="#191970" d="M53.745,-526.7509C67.1424,-542.95 96.2714,-575.3765 128,-593.0057 138.1296,-598.634 150.0292,-602.6769 161.0913,-605.5448"/>
<polygon fill="#191970" stroke="#191970" points="160.4045,-608.9787 170.9401,-607.8601 162.0064,-602.1645 160.4045,-608.9787"/>
</g>
<!-- Node2817 -->
<g id="node6" class="node">
<title>Node2817</title>
<g id="a_node6"><a xlink:href="quickjs_8c.html#a80e54dcf9ac687d4ccc2f90273565f30" target="_top" xlink:title="js_free">
<polygon fill="none" stroke="#000000" points="348.5,-564.5057 348.5,-583.5057 394.5,-583.5057 394.5,-564.5057 348.5,-564.5057"/>
<text text-anchor="middle" x="371.5" y="-571.5057" font-family="Helvetica,sans-Serif" font-size="10.00" fill="#000000">js_free</text>
</a>
</g>
</g>
<!-- Node2812&#45;&gt;Node2817 -->
<g id="edge5" class="edge">
<title>Node2812&#45;&gt;Node2817</title>
<path fill="none" stroke="#191970" d="M92.2208,-507.5485C138.2122,-500.28 209.9659,-494.8204 267,-517.0057 287.2286,-524.8743 284.3775,-538.8561 303,-550.0057 313.8707,-556.5141 326.7691,-561.6123 338.4255,-565.404"/>
<polygon fill="#191970" stroke="#191970" points="337.6811,-568.836 348.2671,-568.4024 339.7213,-562.1399 337.6811,-568.836"/>
</g>
<!-- Node2819 -->
<g id="node8" class="node">
<title>Node2819</title>
<g id="a_node8"><a xlink:href="quickjs_8h.html#afaa20c47565bc704c6c85f3d77254e7d" target="_top" xlink:title="JS_FreeValue">
<polygon fill="none" stroke="#000000" points="636,-398.5057 636,-417.5057 714,-417.5057 714,-398.5057 636,-398.5057"/>
<text text-anchor="middle" x="675" y="-405.5057" font-family="Helvetica,sans-Serif" font-size="10.00" fill="#000000">JS_FreeValue</text>
</a>
</g>
</g>
<!-- Node2812&#45;&gt;Node2819 -->
<g id="edge7" class="edge">
<title>Node2812&#45;&gt;Node2819</title>
<path fill="none" stroke="#191970" d="M47.2123,-507.3658C53.716,-456.8444 85.7573,-222.7325 128,-165.0057 181.4298,-91.9911 217.1971,-89.7065 303,-61.0057 428.4383,-19.0469 497.5124,41.61 600,-42.0057 654.5103,-86.4786 670.4923,-318.3766 674.1013,-388.1349"/>
<polygon fill="#191970" stroke="#191970" points="670.61,-388.4 674.5935,-398.2174 677.6016,-388.0586 670.61,-388.4"/>
</g>
<!-- Node2855 -->
<g id="node11" class="node">
<title>Node2855</title>
<g id="a_node11"><a xlink:href="quickjs_8h.html#ad80a83d73e9b7d872b88fbf2943aebe9" target="_top" xlink:title="JS_IsException">
<polygon fill="none" stroke="#000000" points="495,-165.5057 495,-184.5057 581,-184.5057 581,-165.5057 495,-165.5057"/>
<text text-anchor="middle" x="538" y="-172.5057" font-family="Helvetica,sans-Serif" font-size="10.00" fill="#000000">JS_IsException</text>
</a>
</g>
</g>
<!-- Node2812&#45;&gt;Node2855 -->
<g id="edge11" class="edge">
<title>Node2812&#45;&gt;Node2855</title>
<path fill="none" stroke="#191970" d="M48.6702,-507.2269C63.3004,-455.9338 139.1422,-217.695 303,-149.0057 371.0674,-120.4718 459.4488,-144.847 506.0291,-161.8842"/>
<polygon fill="#191970" stroke="#191970" points="504.9912,-165.2335 515.5829,-165.4922 507.4644,-158.6849 504.9912,-165.2335"/>
</g>
<!-- Node2856 -->
<g id="node12" class="node">
<title>Node2856</title>
<g id="a_node12"><a xlink:href="quickjs-libc_8c.html#a529207225a77f71253f17893e1e6dffb" target="_top" xlink:title="js_load_file">
<polygon fill="none" stroke="#000000" points="165,-564.5057 165,-583.5057 230,-583.5057 230,-564.5057 165,-564.5057"/>
<text text-anchor="middle" x="197.5" y="-571.5057" font-family="Helvetica,sans-Serif" font-size="10.00" fill="#000000">js_load_file</text>
</a>
</g>
</g>
<!-- Node2812&#45;&gt;Node2856 -->
<g id="edge12" class="edge">
<title>Node2812&#45;&gt;Node2856</title>
<path fill="none" stroke="#191970" d="M64.191,-526.5079C80.5664,-534.801 105.4524,-546.7648 128,-555.0057 136.7142,-558.1906 146.213,-561.125 155.3103,-563.6866"/>
<polygon fill="#191970" stroke="#191970" points="154.3999,-567.0661 164.968,-566.3141 156.2376,-560.3116 154.3999,-567.0661"/>
</g>
<!-- Node2857 -->
<g id="node13" class="node">
<title>Node2857</title>
<g id="a_node13"><a xlink:href="quickjs-libc_8c.html#a403f4287b78b0e8e88e39e1d9cffa463" target="_top" xlink:title="js_module_loader_so">
<polygon fill="none" stroke="#000000" points="143.5,-526.5057 143.5,-545.5057 251.5,-545.5057 251.5,-526.5057 143.5,-526.5057"/>
<text text-anchor="middle" x="197.5" y="-533.5057" font-family="Helvetica,sans-Serif" font-size="10.00" fill="#000000">js_module_loader_so</text>
</a>
</g>
</g>
<!-- Node2812&#45;&gt;Node2857 -->
<g id="edge14" class="edge">
<title>Node2812&#45;&gt;Node2857</title>
<path fill="none" stroke="#191970" d="M92.2782,-522.8096C105.2324,-524.4342 119.5489,-526.2297 133.3404,-527.9593"/>
<polygon fill="#191970" stroke="#191970" points="132.9052,-531.432 143.263,-529.2037 133.7763,-524.4864 132.9052,-531.432"/>
</g>
<!-- Node2858 -->
<g id="node14" class="node">
<title>Node2858</title>
<g id="a_node14"><a xlink:href="quickjs-libc_8c.html#a5cc3e22713f1916d49867f60a7375505" target="_top" xlink:title="js_module_set_import_meta">
<polygon fill="none" stroke="#000000" points="128,-336.5057 128,-355.5057 267,-355.5057 267,-336.5057 128,-336.5057"/>
<text text-anchor="middle" x="197.5" y="-343.5057" font-family="Helvetica,sans-Serif" font-size="10.00" fill="#000000">js_module_set_import_meta</text>
</a>
</g>
</g>
<!-- Node2812&#45;&gt;Node2858 -->
<g id="edge16" class="edge">
<title>Node2812&#45;&gt;Node2858</title>
<path fill="none" stroke="#191970" d="M54.5794,-507.3221C79.2659,-479.458 150.7205,-398.8064 182.2469,-363.222"/>
<polygon fill="#191970" stroke="#191970" points="185.003,-365.3891 189.0147,-355.5832 179.7635,-360.7471 185.003,-365.3891"/>
</g>
<!-- Node2815 -->
<g id="node4" class="node">
<title>Node2815</title>
<g id="a_node4"><a xlink:href="quickjs_8c.html#a99d6f8b4fcb9989546e5fb13d65aaf55" target="_top" xlink:title="JS_EvalThis">
<polygon fill="none" stroke="#000000" points="335.5,-621.5057 335.5,-640.5057 407.5,-640.5057 407.5,-621.5057 335.5,-621.5057"/>
<text text-anchor="middle" x="371.5" y="-628.5057" font-family="Helvetica,sans-Serif" font-size="10.00" fill="#000000">JS_EvalThis</text>
</a>
</g>
</g>
<!-- Node2814&#45;&gt;Node2815 -->
<g id="edge3" class="edge">
<title>Node2814&#45;&gt;Node2815</title>
<path fill="none" stroke="#191970" d="M224.3062,-614.9328C251.1442,-617.8634 292.972,-622.4308 325.1903,-625.9489"/>
<polygon fill="#191970" stroke="#191970" points="324.9611,-629.4446 335.282,-627.0509 325.721,-622.486 324.9611,-629.4446"/>
</g>
<!-- Node2816 -->
<g id="node5" class="node">
<title>Node2816</title>
<g id="a_node5"><a xlink:href="quickjs_8c.html#a0800e3e7b9763c0dddb2f3f85df25635" target="_top" xlink:title="JS_EvalInternal">
<polygon fill="none" stroke="#000000" points="495,-640.5057 495,-659.5057 581,-659.5057 581,-640.5057 495,-640.5057"/>
<text text-anchor="middle" x="538" y="-647.5057" font-family="Helvetica,sans-Serif" font-size="10.00" fill="#000000">JS_EvalInternal</text>
</a>
</g>
</g>
<!-- Node2815&#45;&gt;Node2816 -->
<g id="edge4" class="edge">
<title>Node2815&#45;&gt;Node2816</title>
<path fill="none" stroke="#191970" d="M407.628,-635.1284C430.1563,-637.6992 459.5492,-641.0534 484.7225,-643.926"/>
<polygon fill="#191970" stroke="#191970" points="484.5258,-647.4262 494.8582,-645.0826 485.3195,-640.4713 484.5258,-647.4262"/>
</g>
<!-- Node2818 -->
<g id="node7" class="node">
<title>Node2818</title>
<g id="a_node7"><a xlink:href="quickjs_8c.html#a69e19dda8a93d613203e0baa06f0ed8d" target="_top" xlink:title="js_free_rt">
<polygon fill="none" stroke="#000000" points="1013,-536.5057 1013,-555.5057 1070,-555.5057 1070,-536.5057 1013,-536.5057"/>
<text text-anchor="middle" x="1041.5" y="-543.5057" font-family="Helvetica,sans-Serif" font-size="10.00" fill="#000000">js_free_rt</text>
</a>
</g>
</g>
<!-- Node2817&#45;&gt;Node2818 -->
<g id="edge6" class="edge">
<title>Node2817&#45;&gt;Node2818</title>
<path fill="none" stroke="#191970" d="M394.6027,-578.8957C445.1752,-589.1589 569.5918,-612.0057 675,-612.0057 675,-612.0057 675,-612.0057 794.5,-612.0057 874.93,-612.0057 965.251,-578.9383 1011.1635,-559.6156"/>
<polygon fill="#191970" stroke="#191970" points="1012.7174,-562.7576 1020.5313,-555.6027 1009.961,-556.3232 1012.7174,-562.7576"/>
</g>
<!-- Node2820 -->
<g id="node9" class="node">
<title>Node2820</title>
<g id="a_node9"><a xlink:href="quickjs_8c.html#aa059f309c30fd5166d16c82a97973146" target="_top" xlink:title="__JS_FreeValue">
<polygon fill="none" stroke="#000000" points="750,-422.5057 750,-441.5057 839,-441.5057 839,-422.5057 750,-422.5057"/>
<text text-anchor="middle" x="794.5" y="-429.5057" font-family="Helvetica,sans-Serif" font-size="10.00" fill="#000000">__JS_FreeValue</text>
</a>
</g>
</g>
<!-- Node2819&#45;&gt;Node2820 -->
<g id="edge8" class="edge">
<title>Node2819&#45;&gt;Node2820</title>
<path fill="none" stroke="#191970" d="M714.1288,-415.8642C722.3481,-417.5149 731.1608,-419.2849 739.8298,-421.0259"/>
<polygon fill="#191970" stroke="#191970" points="739.403,-424.51 749.8964,-423.0477 740.7814,-417.6471 739.403,-424.51"/>
</g>
<!-- Node2821 -->
<g id="node10" class="node">
<title>Node2821</title>
<g id="a_node10"><a xlink:href="quickjs_8c.html#ab1ea3fad7d138be12144a38be4d36423" target="_top" xlink:title="__JS_FreeValueRT">
<polygon fill="none" stroke="#ff0000" points="875,-517.5057 875,-536.5057 977,-536.5057 977,-517.5057 875,-517.5057"/>
<text text-anchor="middle" x="926" y="-524.5057" font-family="Helvetica,sans-Serif" font-size="10.00" fill="#000000">__JS_FreeValueRT</text>
</a>
</g>
</g>
<!-- Node2820&#45;&gt;Node2821 -->
<g id="edge9" class="edge">
<title>Node2820&#45;&gt;Node2821</title>
<path fill="none" stroke="#191970" d="M808.0775,-441.8146C830.9337,-458.3266 877.2652,-491.7981 904.5549,-511.513"/>
<polygon fill="#191970" stroke="#191970" points="902.5366,-514.3727 912.6922,-517.3917 906.6358,-508.6985 902.5366,-514.3727"/>
</g>
<!-- Node2821&#45;&gt;Node2818 -->
<g id="edge10" class="edge">
<title>Node2821&#45;&gt;Node2818</title>
<path fill="none" stroke="#191970" d="M977.3326,-535.45C985.8898,-536.8577 994.6372,-538.2967 1002.8109,-539.6413"/>
<polygon fill="#191970" stroke="#191970" points="1002.3643,-543.1148 1012.7999,-541.2845 1003.5006,-536.2076 1002.3643,-543.1148"/>
</g>
<!-- Node2856&#45;&gt;Node2817 -->
<g id="edge13" class="edge">
<title>Node2856&#45;&gt;Node2817</title>
<path fill="none" stroke="#191970" d="M230.2281,-574.0057C261.0496,-574.0057 307.0021,-574.0057 338.0555,-574.0057"/>
<polygon fill="#191970" stroke="#191970" points="338.3689,-577.5058 348.3689,-574.0057 338.3688,-570.5058 338.3689,-577.5058"/>
</g>
<!-- Node2857&#45;&gt;Node2817 -->
<g id="edge15" class="edge">
<title>Node2857&#45;&gt;Node2817</title>
<path fill="none" stroke="#191970" d="M241.4075,-545.5947C271.5812,-552.1844 311.0069,-560.7946 338.5134,-566.8017"/>
<polygon fill="#191970" stroke="#191970" points="337.9113,-570.2527 348.4278,-568.967 339.4049,-563.4139 337.9113,-570.2527"/>
</g>
<!-- Node2858&#45;&gt;Node2819 -->
<g id="edge30" class="edge">
<title>Node2858&#45;&gt;Node2819</title>
<path fill="none" stroke="#191970" d="M267.1881,-355.0542C365.0675,-367.7632 540.8058,-390.5815 626.0138,-401.6452"/>
<polygon fill="#191970" stroke="#191970" points="625.5775,-405.1178 635.945,-402.9347 626.4789,-398.1761 625.5775,-405.1178"/>
</g>
<!-- Node2858&#45;&gt;Node2855 -->
<g id="edge35" class="edge">
<title>Node2858&#45;&gt;Node2855</title>
<path fill="none" stroke="#191970" d="M199.938,-336.2175C208.1686,-305.5482 238.1182,-211.2128 303,-175.0057 362.8281,-141.6188 445.2868,-152.0341 494.9411,-163.1517"/>
<polygon fill="#191970" stroke="#191970" points="494.1833,-166.5689 504.7184,-165.4453 495.7821,-159.7539 494.1833,-166.5689"/>
</g>
<!-- Node2859 -->
<g id="node15" class="node">
<title>Node2859</title>
<g id="a_node15"><a xlink:href="quickjs_8c.html#a4b66ebf3abee5d29490343fbe360ec5a" target="_top" xlink:title="JS_AtomToCString">
<polygon fill="none" stroke="#000000" points="321,-70.5057 321,-89.5057 422,-89.5057 422,-70.5057 321,-70.5057"/>
<text text-anchor="middle" x="371.5" y="-77.5057" font-family="Helvetica,sans-Serif" font-size="10.00" fill="#000000">JS_AtomToCString</text>
</a>
</g>
</g>
<!-- Node2858&#45;&gt;Node2859 -->
<g id="edge17" class="edge">
<title>Node2858&#45;&gt;Node2859</title>
<path fill="none" stroke="#191970" d="M201.0438,-336.3679C212.5575,-305.8349 251.1828,-209.2947 303,-142.0057 316.6623,-124.2641 335.794,-107.4351 350.3671,-95.7992"/>
<polygon fill="#191970" stroke="#191970" points="352.6097,-98.4889 358.345,-89.5806 348.3063,-92.9679 352.6097,-98.4889"/>
</g>
<!-- Node3253 -->
<g id="node18" class="node">
<title>Node3253</title>
<g id="a_node18"><a xlink:href="quickjs_8c.html#a841f4cb887e4d9e03e94a0697255e578" target="_top" xlink:title="JS_DefinePropertyValueStr">
<polygon fill="none" stroke="#000000" points="303,-488.5057 303,-507.5057 440,-507.5057 440,-488.5057 303,-488.5057"/>
<text text-anchor="middle" x="371.5" y="-495.5057" font-family="Helvetica,sans-Serif" font-size="10.00" fill="#000000">JS_DefinePropertyValueStr</text>
</a>
</g>
</g>
<!-- Node2858&#45;&gt;Node3253 -->
<g id="edge22" class="edge">
<title>Node2858&#45;&gt;Node3253</title>
<path fill="none" stroke="#191970" d="M202.8269,-355.5428C216.4342,-379.0674 254.8222,-440.3885 303,-474.0057 309.039,-478.2195 315.8903,-481.7602 322.8684,-484.7154"/>
<polygon fill="#191970" stroke="#191970" points="321.8086,-488.0579 332.3982,-488.3906 324.3274,-481.5267 321.8086,-488.0579"/>
</g>
<!-- Node2837 -->
<g id="node21" class="node">
<title>Node2837</title>
<g id="a_node21"><a xlink:href="quickjs_8c.html#ab7fc45a99935a1c0ba50b0216d9401a9" target="_top" xlink:title="JS_FreeAtom">
<polygon fill="none" stroke="#ff0000" points="499.5,-450.5057 499.5,-469.5057 576.5,-469.5057 576.5,-450.5057 499.5,-450.5057"/>
<text text-anchor="middle" x="538" y="-457.5057" font-family="Helvetica,sans-Serif" font-size="10.00" fill="#000000">JS_FreeAtom</text>
</a>
</g>
</g>
<!-- Node2858&#45;&gt;Node2837 -->
<g id="edge27" class="edge">
<title>Node2858&#45;&gt;Node2837</title>
<path fill="none" stroke="#191970" d="M204.6227,-355.7559C219.9713,-375.8916 258.4086,-421.7903 303,-441.0057 363.1861,-466.9412 440.0119,-467.867 489.1204,-464.9218"/>
<polygon fill="#191970" stroke="#191970" points="489.4221,-468.4095 499.1629,-464.2422 488.9494,-461.4254 489.4221,-468.4095"/>
</g>
<!-- Node2968 -->
<g id="node22" class="node">
<title>Node2968</title>
<g id="a_node22"><a xlink:href="quickjs_8c.html#ae0bc4f65da64810facb2cb9e476eda2e" target="_top" xlink:title="JS_FreeCString">
<polygon fill="none" stroke="#000000" points="495,-564.5057 495,-583.5057 581,-583.5057 581,-564.5057 495,-564.5057"/>
<text text-anchor="middle" x="538" y="-571.5057" font-family="Helvetica,sans-Serif" font-size="10.00" fill="#000000">JS_FreeCString</text>
</a>
</g>
</g>
<!-- Node2858&#45;&gt;Node2968 -->
<g id="edge28" class="edge">
<title>Node2858&#45;&gt;Node2968</title>
<path fill="none" stroke="#191970" d="M200.4749,-355.5733C210.078,-384.8004 243.1569,-473.5582 303,-517.0057 317.7127,-527.6875 420.122,-550.0135 484.8041,-563.3335"/>
<polygon fill="#191970" stroke="#191970" points="484.343,-566.8117 494.8421,-565.3908 485.7485,-559.9542 484.343,-566.8117"/>
</g>
<!-- Node3074 -->
<g id="node23" class="node">
<title>Node3074</title>
<g id="a_node23"><a xlink:href="quickjs_8c.html#a44504e6de8f6e13870e695d360d9cd3e" target="_top" xlink:title="JS_GetImportMeta">
<polygon fill="none" stroke="#ff0000" points="322,-184.5057 322,-203.5057 421,-203.5057 421,-184.5057 322,-184.5057"/>
<text text-anchor="middle" x="371.5" y="-191.5057" font-family="Helvetica,sans-Serif" font-size="10.00" fill="#000000">JS_GetImportMeta</text>
</a>
</g>
</g>
<!-- Node2858&#45;&gt;Node3074 -->
<g id="edge31" class="edge">
<title>Node2858&#45;&gt;Node3074</title>
<path fill="none" stroke="#191970" d="M202.397,-336.248C215.2831,-311.5929 252.6408,-246.3883 303,-213.0057 306.1149,-210.9409 309.4513,-209.0987 312.9133,-207.4554"/>
<polygon fill="#191970" stroke="#191970" points="314.4128,-210.6225 322.3045,-203.5535 311.727,-204.1582 314.4128,-210.6225"/>
</g>
<!-- Node3254 -->
<g id="node24" class="node">
<title>Node3254</title>
<g id="a_node24"><a xlink:href="quickjs_8c.html#a59db307289b1a0f8c16278c121fc43c1" target="_top" xlink:title="JS_GetModuleName">
<polygon fill="none" stroke="#000000" points="318,-412.5057 318,-431.5057 425,-431.5057 425,-412.5057 318,-412.5057"/>
<text text-anchor="middle" x="371.5" y="-419.5057" font-family="Helvetica,sans-Serif" font-size="10.00" fill="#000000">JS_GetModuleName</text>
</a>
</g>
</g>
<!-- Node2858&#45;&gt;Node3254 -->
<g id="edge33" class="edge">
<title>Node2858&#45;&gt;Node3254</title>
<path fill="none" stroke="#191970" d="M215.1153,-355.5075C235.8185,-366.4817 271.3688,-384.7264 303,-398.0057 312.3132,-401.9155 322.5099,-405.7299 332.1238,-409.1252"/>
<polygon fill="#191970" stroke="#191970" points="331.2752,-412.5351 341.87,-412.4982 333.5646,-405.9201 331.2752,-412.5351"/>
</g>
<!-- Node3155 -->
<g id="node26" class="node">
<title>Node3155</title>
<g id="a_node26"><a xlink:href="quickjs_8h.html#a93abffa925714e249a6aa2f4ae7900f6" target="_top" xlink:title="JS_NewBool">
<polygon fill="none" stroke="#000000" points="334.5,-298.5057 334.5,-317.5057 408.5,-317.5057 408.5,-298.5057 334.5,-298.5057"/>
<text text-anchor="middle" x="371.5" y="-305.5057" font-family="Helvetica,sans-Serif" font-size="10.00" fill="#000000">JS_NewBool</text>
</a>
</g>
</g>
<!-- Node2858&#45;&gt;Node3155 -->
<g id="edge36" class="edge">
<title>Node2858&#45;&gt;Node3155</title>
<path fill="none" stroke="#191970" d="M241.4075,-336.4167C266.7378,-330.8848 298.5881,-323.929 324.4336,-318.2846"/>
<polygon fill="#191970" stroke="#191970" points="325.3565,-321.6656 334.3794,-316.1125 323.8629,-314.8268 325.3565,-321.6656"/>
</g>
<!-- Node2864 -->
<g id="node27" class="node">
<title>Node2864</title>
<g id="a_node27"><a xlink:href="quickjs_8c.html#a0ee6a3654a6016393fac5e1c108f403a" target="_top" xlink:title="JS_NewString">
<polygon fill="none" stroke="#ff0000" points="331.5,-260.5057 331.5,-279.5057 411.5,-279.5057 411.5,-260.5057 331.5,-260.5057"/>
<text text-anchor="middle" x="371.5" y="-267.5057" font-family="Helvetica,sans-Serif" font-size="10.00" fill="#000000">JS_NewString</text>
</a>
</g>
</g>
<!-- Node2858&#45;&gt;Node2864 -->
<g id="edge37" class="edge">
<title>Node2858&#45;&gt;Node2864</title>
<path fill="none" stroke="#191970" d="M212.6966,-336.3739C232.7367,-324.0096 269.4001,-302.5415 303,-289.0057 308.8596,-286.6451 315.1146,-284.469 321.3726,-282.4978"/>
<polygon fill="#191970" stroke="#191970" points="322.5754,-285.7913 331.1527,-279.5719 320.5691,-279.085 322.5754,-285.7913"/>
</g>
<!-- Node3255 -->
<g id="node28" class="node">
<title>Node3255</title>
<g id="a_node28"><a xlink:href="cutils_8h.html#a2f9f8437694c53829c7d6b5f3d02ae85" target="_top" xlink:title="pstrcat">
<polygon fill="none" stroke="#000000" points="348,-222.5057 348,-241.5057 395,-241.5057 395,-222.5057 348,-222.5057"/>
<text text-anchor="middle" x="371.5" y="-229.5057" font-family="Helvetica,sans-Serif" font-size="10.00" fill="#000000">pstrcat</text>
</a>
</g>
</g>
<!-- Node2858&#45;&gt;Node3255 -->
<g id="edge38" class="edge">
<title>Node2858&#45;&gt;Node3255</title>
<path fill="none" stroke="#191970" d="M205.4383,-336.3325C221.7065,-317.1439 260.8633,-274.125 303,-251.0057 313.7952,-245.0827 326.5808,-240.8905 338.1654,-237.9796"/>
<polygon fill="#191970" stroke="#191970" points="338.9887,-241.3818 347.9565,-235.7402 337.4279,-234.558 338.9887,-241.3818"/>
</g>
<!-- Node3256 -->
<g id="node29" class="node">
<title>Node3256</title>
<g id="a_node29"><a xlink:href="cutils_8h.html#adbfc0638ae78ec4076886d7cbc03d0e4" target="_top" xlink:title="pstrcpy">
<polygon fill="none" stroke="#000000" points="513.5,-279.5057 513.5,-298.5057 562.5,-298.5057 562.5,-279.5057 513.5,-279.5057"/>
<text text-anchor="middle" x="538" y="-286.5057" font-family="Helvetica,sans-Serif" font-size="10.00" fill="#000000">pstrcpy</text>
</a>
</g>
</g>
<!-- Node2858&#45;&gt;Node3256 -->
<g id="edge40" class="edge">
<title>Node2858&#45;&gt;Node3256</title>
<path fill="none" stroke="#191970" d="M267.0314,-345.907C315.9541,-344.5442 382.6649,-340.0709 440,-327.0057 463.9387,-321.5507 489.7846,-311.3331 508.9204,-302.8658"/>
<polygon fill="#191970" stroke="#191970" points="510.6042,-305.9456 518.27,-298.6321 507.7166,-299.5689 510.6042,-305.9456"/>
</g>
<!-- Node2859&#45;&gt;Node2819 -->
<g id="edge21" class="edge">
<title>Node2859&#45;&gt;Node2819</title>
<path fill="none" stroke="#191970" d="M399.5722,-89.6007C411.9954,-93.9088 426.7615,-99.114 440,-104.0057 456.1031,-109.9559 459.7821,-112.3758 476,-118.0057 530.4531,-136.9088 559.407,-115.0828 600,-156.0057 633.4627,-189.7403 662.1014,-335.2714 671.631,-388.4514"/>
<polygon fill="#191970" stroke="#191970" points="668.1882,-389.0827 673.3693,-398.3243 675.0821,-387.8688 668.1882,-389.0827"/>
</g>
<!-- Node2859&#45;&gt;Node2855 -->
<g id="edge19" class="edge">
<title>Node2859&#45;&gt;Node2855</title>
<path fill="none" stroke="#191970" d="M411.1071,-89.5381C421.1074,-93.0756 431.4289,-97.7946 440,-104.0057 461.3064,-119.4454 454.946,-135.2236 476,-151.0057 481.4605,-155.0989 487.7059,-158.5816 494.0823,-161.5174"/>
<polygon fill="#191970" stroke="#191970" points="492.8662,-164.8026 503.4421,-165.4349 495.5688,-158.3453 492.8662,-164.8026"/>
</g>
<!-- Node2860 -->
<g id="node16" class="node">
<title>Node2860</title>
<g id="a_node16"><a xlink:href="quickjs_8c.html#a260bfa297ff6cb5bd18e229afaa54663" target="_top" xlink:title="JS_AtomToString">
<polygon fill="none" stroke="#ff0000" points="491,-51.5057 491,-70.5057 585,-70.5057 585,-51.5057 491,-51.5057"/>
<text text-anchor="middle" x="538" y="-58.5057" font-family="Helvetica,sans-Serif" font-size="10.00" fill="#000000">JS_AtomToString</text>
</a>
</g>
</g>
<!-- Node2859&#45;&gt;Node2860 -->
<g id="edge18" class="edge">
<title>Node2859&#45;&gt;Node2860</title>
<path fill="none" stroke="#191970" d="M422.3602,-74.2018C440.843,-72.0927 461.8492,-69.6956 480.8404,-67.5284"/>
<polygon fill="#191970" stroke="#191970" points="481.3195,-70.9966 490.8582,-66.3852 480.5258,-64.0417 481.3195,-70.9966"/>
</g>
<!-- Node2886 -->
<g id="node17" class="node">
<title>Node2886</title>
<g id="a_node17"><a xlink:href="quickjs_8h.html#af931f06630ab719b5f82a16eb27effd1" target="_top" xlink:title="JS_ToCString">
<polygon fill="none" stroke="#ff0000" points="499,-89.5057 499,-108.5057 577,-108.5057 577,-89.5057 499,-89.5057"/>
<text text-anchor="middle" x="538" y="-96.5057" font-family="Helvetica,sans-Serif" font-size="10.00" fill="#000000">JS_ToCString</text>
</a>
</g>
</g>
<!-- Node2859&#45;&gt;Node2886 -->
<g id="edge20" class="edge">
<title>Node2859&#45;&gt;Node2886</title>
<path fill="none" stroke="#191970" d="M422.3602,-85.8096C443.4819,-88.2199 467.8991,-91.0062 488.8384,-93.3957"/>
<polygon fill="#191970" stroke="#191970" points="488.4762,-96.877 498.8086,-94.5334 489.2699,-89.9221 488.4762,-96.877"/>
</g>
<!-- Node3122 -->
<g id="node19" class="node">
<title>Node3122</title>
<g id="a_node19"><a xlink:href="quickjs_8c.html#aa2ef5af1544a3012f91a80c98c326b8f" target="_top" xlink:title="JS_NewAtom">
<polygon fill="none" stroke="#ff0000" points="499.5,-488.5057 499.5,-507.5057 576.5,-507.5057 576.5,-488.5057 499.5,-488.5057"/>
<text text-anchor="middle" x="538" y="-495.5057" font-family="Helvetica,sans-Serif" font-size="10.00" fill="#000000">JS_NewAtom</text>
</a>
</g>
</g>
<!-- Node3253&#45;&gt;Node3122 -->
<g id="edge23" class="edge">
<title>Node3253&#45;&gt;Node3122</title>
<path fill="none" stroke="#191970" d="M440.1832,-498.0057C456.6321,-498.0057 473.8641,-498.0057 489.2017,-498.0057"/>
<polygon fill="#191970" stroke="#191970" points="489.4846,-501.5058 499.4845,-498.0057 489.4845,-494.5058 489.4846,-501.5058"/>
</g>
<!-- Node2952 -->
<g id="node20" class="node">
<title>Node2952</title>
<g id="a_node20"><a xlink:href="quickjs_8c.html#a0a8765bd4012467d9139bc24aabcb3ca" target="_top" xlink:title="JS_DefinePropertyValue">
<polygon fill="none" stroke="#ff0000" points="476,-526.5057 476,-545.5057 600,-545.5057 600,-526.5057 476,-526.5057"/>
<text text-anchor="middle" x="538" y="-533.5057" font-family="Helvetica,sans-Serif" font-size="10.00" fill="#000000">JS_DefinePropertyValue</text>
</a>
</g>
</g>
<!-- Node3253&#45;&gt;Node2952 -->
<g id="edge24" class="edge">
<title>Node3253&#45;&gt;Node2952</title>
<path fill="none" stroke="#191970" d="M413.515,-507.5947C435.6844,-512.6544 463.0732,-518.9053 486.511,-524.2545"/>
<polygon fill="#191970" stroke="#191970" points="485.759,-527.6728 496.2871,-526.4857 487.3166,-520.8482 485.759,-527.6728"/>
</g>
<!-- Node3253&#45;&gt;Node2837 -->
<g id="edge26" class="edge">
<title>Node3253&#45;&gt;Node2837</title>
<path fill="none" stroke="#191970" d="M413.515,-488.4167C436.6116,-483.1454 465.3734,-476.5811 489.4305,-471.0906"/>
<polygon fill="#191970" stroke="#191970" points="490.4518,-474.4476 499.4224,-468.8102 488.8942,-467.6231 490.4518,-474.4476"/>
</g>
<!-- Node2952&#45;&gt;Node2819 -->
<g id="edge25" class="edge">
<title>Node2952&#45;&gt;Node2819</title>
<path fill="none" stroke="#191970" d="M582.4449,-526.4193C588.6724,-523.954 594.7344,-520.8671 600,-517.0057 632.2543,-493.3529 655.3293,-451.4486 666.79,-427.0639"/>
<polygon fill="#191970" stroke="#191970" points="670.0523,-428.3441 670.9836,-417.7903 663.6741,-425.4598 670.0523,-428.3441"/>
</g>
<!-- Node2968&#45;&gt;Node2819 -->
<g id="edge29" class="edge">
<title>Node2968&#45;&gt;Node2819</title>
<path fill="none" stroke="#191970" d="M581.3197,-565.6656C588.0533,-563.031 594.5671,-559.565 600,-555.0057 640.8342,-520.7375 661.9299,-458.6296 670.4086,-427.2522"/>
<polygon fill="#191970" stroke="#191970" points="673.8078,-428.0865 672.8931,-417.5313 667.0258,-426.3531 673.8078,-428.0865"/>
</g>
<!-- Node3074&#45;&gt;Node2855 -->
<g id="edge32" class="edge">
<title>Node3074&#45;&gt;Node2855</title>
<path fill="none" stroke="#191970" d="M421.0047,-188.3565C441.0957,-186.0639 464.3431,-183.411 484.796,-181.077"/>
<polygon fill="#191970" stroke="#191970" points="485.3559,-184.5359 494.8946,-179.9246 484.5622,-177.5811 485.3559,-184.5359"/>
</g>
<!-- Node2945 -->
<g id="node25" class="node">
<title>Node2945</title>
<g id="a_node25"><a xlink:href="quickjs_8c.html#abbf44eaeace1104a6bef718fbf5700fe" target="_top" xlink:title="JS_DupAtom">
<polygon fill="none" stroke="#ff0000" points="500.5,-412.5057 500.5,-431.5057 575.5,-431.5057 575.5,-412.5057 500.5,-412.5057"/>
<text text-anchor="middle" x="538" y="-419.5057" font-family="Helvetica,sans-Serif" font-size="10.00" fill="#000000">JS_DupAtom</text>
</a>
</g>
</g>
<!-- Node3254&#45;&gt;Node2945 -->
<g id="edge34" class="edge">
<title>Node3254&#45;&gt;Node2945</title>
<path fill="none" stroke="#191970" d="M425.0981,-422.0057C445.9842,-422.0057 469.7345,-422.0057 490.0451,-422.0057"/>
<polygon fill="#191970" stroke="#191970" points="490.3194,-425.5058 500.3194,-422.0057 490.3193,-418.5058 490.3194,-425.5058"/>
</g>
<!-- Node3255&#45;&gt;Node3256 -->
<g id="edge39" class="edge">
<title>Node3255&#45;&gt;Node3256</title>
<path fill="none" stroke="#191970" d="M395.1344,-237.9414C408.4158,-241.4314 425.2405,-246.1106 440,-251.0057 462.2717,-258.3922 486.8945,-267.9455 505.8876,-275.6254"/>
<polygon fill="#191970" stroke="#191970" points="504.683,-278.914 515.2643,-279.4493 507.3264,-272.4322 504.683,-278.914"/>
</g>
</g>
</svg>
        <g id="navigator" transform="translate(0 0)" fill="#404254">
                <rect fill="#f2f5e9" fill-opacity="0.5" stroke="#606060" stroke-width=".5" x="0" y="0" width="60" height="60"/>
                <use id="zoomplus" xlink:href="#zoomPlus" x="17" y="9" onmousedown="handleZoom(evt,'in')"/>
                <use id="zoomminus" xlink:href="#zoomMin" x="42" y="9" onmousedown="handleZoom(evt,'out')"/>
                <use id="reset" xlink:href="#resetDef" x="30" y="36" onmousedown="handleReset()"/>
                <g id="arrowUp" xlink:href="#dirArrow" transform="translate(30 24)" onmousedown="handlePan(0,-1)">
                  <use xlink:href="#rim" fill="#404040">
                        <set attributeName="fill" to="#808080" begin="arrowUp.mouseover" end="arrowUp.mouseout"/>
                  </use>
                  <path fill="none" stroke="white" stroke-width="1.5" d="M0,-3.0v7 M-2.5,-0.5L0,-3.0L2.5,-0.5"/>
                </g>
                <g id="arrowRight" xlink:href="#dirArrow" transform="rotate(90) translate(36 -43)" onmousedown="handlePan(1,0)">
                  <use xlink:href="#rim" fill="#404040">
                        <set attributeName="fill" to="#808080" begin="arrowRight.mouseover" end="arrowRight.mouseout"/>
                  </use>
                  <path fill="none" stroke="white" stroke-width="1.5" d="M0,-3.0v7 M-2.5,-0.5L0,-3.0L2.5,-0.5"/>
                </g>
                <g id="arrowDown" xlink:href="#dirArrow" transform="rotate(180) translate(-30 -48)" onmousedown="handlePan(0,1)">
                  <use xlink:href="#rim" fill="#404040">
                        <set attributeName="fill" to="#808080" begin="arrowDown.mouseover" end="arrowDown.mouseout"/>
                  </use>
                  <path fill="none" stroke="white" stroke-width="1.5" d="M0,-3.0v7 M-2.5,-0.5L0,-3.0L2.5,-0.5"/>
                </g>
                <g id="arrowLeft" xlink:href="#dirArrow" transform="rotate(270) translate(-36 17)" onmousedown="handlePan(-1,0)">
                  <use xlink:href="#rim" fill="#404040">
                        <set attributeName="fill" to="#808080" begin="arrowLeft.mouseover" end="arrowLeft.mouseout"/>
                  </use>
                  <path fill="none" stroke="white" stroke-width="1.5" d="M0,-3.0v7 M-2.5,-0.5L0,-3.0L2.5,-0.5"/>
                </g>
        </g>
        <svg viewBox="0 0 15 15" width="100%" height="30px" preserveAspectRatio="xMaxYMin meet">
         <g id="arrow_out" transform="scale(0.3 0.3)">
          <a xlink:href="quickjs-libc_8h_ad61d60681847f324c5ba4ad88c546f1e_cgraph_org.svg" target="_base">
           <rect id="button" ry="5" rx="5" y="6" x="6" height="38" width="38"
                fill="#f2f5e9" fill-opacity="0.5" stroke="#606060" stroke-width="1.0"/>
           <path id="arrow"
             d="M 11.500037,31.436501 C 11.940474,20.09759 22.043105,11.32322 32.158766,21.979434 L 37.068811,17.246167 C 37.068811,17.246167 37.088388,32 37.088388,32 L 22.160133,31.978069 C 22.160133,31.978069 26.997745,27.140456 26.997745,27.140456 C 18.528582,18.264221 13.291696,25.230495 11.500037,31.436501 z"
             style="fill:#404040;"/>
          </a>
         </g>
        </svg>
</svg>
