<?xml version="1.0" encoding="UTF-8" standalone="no"?>
<!DOCTYPE svg PUBLIC "-//W3C//DTD SVG 1.1//EN"
 "http://www.w3.org/Graphics/SVG/1.1/DTD/svg11.dtd">
<!-- Generated by graphviz version 2.40.1 (20161225.0304)
 -->
<!-- Title: js_is_regexp Pages: 1 -->
<!--zoomable 728 -->
<svg id="main" version="1.1" xmlns="http://www.w3.org/2000/svg" xmlns:xlink="http://www.w3.org/1999/xlink" xml:space="preserve" onload="init(evt)">
<style type="text/css"><![CDATA[
.edge:hover path { stroke: red; }
.edge:hover polygon { stroke: red; fill: red; }
]]></style>
<script type="text/javascript"><![CDATA[
var edges = document.getElementsByTagName('g');
if (edges && edges.length) {
  for (var i=0;i<edges.length;i++) {
    if (edges[i].id.substr(0,4)=='edge') {
      edges[i].setAttribute('class','edge');
    }
  }
}
]]></script>
        <defs>
                <circle id="rim" cx="0" cy="0" r="7"/>
                <circle id="rim2" cx="0" cy="0" r="3.5"/>
                <g id="zoomPlus">
                        <use xlink:href="#rim" fill="#404040">
                                <set attributeName="fill" to="#808080" begin="zoomplus.mouseover" end="zoomplus.mouseout"/>
                        </use>
                        <path d="M-4,0h8M0,-4v8" fill="none" stroke="white" stroke-width="1.5" pointer-events="none"/>
                </g>
                <g id="zoomMin">
                        <use xlink:href="#rim" fill="#404040">
                                <set attributeName="fill" to="#808080" begin="zoomminus.mouseover" end="zoomminus.mouseout"/>
                        </use>
                        <path d="M-4,0h8" fill="none" stroke="white" stroke-width="1.5" pointer-events="none"/>
                </g>
                <g id="dirArrow">
                        <path fill="none" stroke="white" stroke-width="1.5" d="M0,-3.0v7 M-2.5,-0.5L0,-3.0L2.5,-0.5"/>
                </g>
               <g id="resetDef">
                       <use xlink:href="#rim2" fill="#404040">
                               <set attributeName="fill" to="#808080" begin="reset.mouseover" end="reset.mouseout"/>
                       </use>
               </g>
        </defs>

<script type="text/javascript">
var viewWidth = 707;
var viewHeight = 728;
var sectionId = 'dynsection-1552';
</script>
<script xlink:href="svgpan.js"/>
<svg id="graph" class="graph">
<g id="viewport">
<title>js_is_regexp</title>
<!-- Node417410 -->
<g id="node1" class="node">
<title>Node417410</title>
<polygon fill="#bfbfbf" stroke="#000000" points="0,-95.5 0,-114.5 71,-114.5 71,-95.5 0,-95.5"/>
<text text-anchor="middle" x="35.5" y="-102.5" font-family="Helvetica,sans-Serif" font-size="10.00" fill="#000000">js_is_regexp</text>
</g>
<!-- Node417411 -->
<g id="node2" class="node">
<title>Node417411</title>
<g id="a_node2"><a xlink:href="quickjs_8c.html#a82de8d310598980dd9ab473ce2c8dd1c" target="_top" xlink:title="js_get_regexp">
<polygon fill="none" stroke="#000000" points="111.5,-392.5 111.5,-411.5 188.5,-411.5 188.5,-392.5 111.5,-392.5"/>
<text text-anchor="middle" x="150" y="-399.5" font-family="Helvetica,sans-Serif" font-size="10.00" fill="#000000">js_get_regexp</text>
</a>
</g>
</g>
<!-- Node417410&#45;&gt;Node417411 -->
<g id="edge1" class="edge">
<title>Node417410&#45;&gt;Node417411</title>
<path fill="none" stroke="#191970" d="M37.019,-114.7161C42.5631,-148.4249 63.6877,-262.8661 107,-347 114.0915,-360.7752 124.8222,-374.5068 133.7896,-384.8038"/>
<polygon fill="#191970" stroke="#191970" points="131.2091,-387.1686 140.5001,-392.2606 136.4124,-382.4861 131.2091,-387.1686"/>
</g>
<!-- Node417413 -->
<g id="node4" class="node">
<title>Node417413</title>
<g id="a_node4"><a xlink:href="quickjs_8h.html#a89b7c8686c7eee70b86be722ee4730ad" target="_top" xlink:title="JS_GetProperty">
<polygon fill="none" stroke="#000000" points="107,-228.5 107,-247.5 193,-247.5 193,-228.5 107,-228.5"/>
<text text-anchor="middle" x="150" y="-235.5" font-family="Helvetica,sans-Serif" font-size="10.00" fill="#000000">JS_GetProperty</text>
</a>
</g>
</g>
<!-- Node417410&#45;&gt;Node417413 -->
<g id="edge3" class="edge">
<title>Node417410&#45;&gt;Node417413</title>
<path fill="none" stroke="#191970" d="M43.7346,-114.565C62.7872,-136.696 110.1514,-191.713 134.7013,-220.2294"/>
<polygon fill="#191970" stroke="#191970" points="132.3543,-222.8678 141.5311,-228.1628 137.6592,-218.3008 132.3543,-222.8678"/>
</g>
<!-- Node417460 -->
<g id="node11" class="node">
<title>Node417460</title>
<g id="a_node11"><a xlink:href="quickjs_8h.html#ad80a83d73e9b7d872b88fbf2943aebe9" target="_top" xlink:title="JS_IsException">
<polygon fill="none" stroke="#000000" points="613,-114.5 613,-133.5 699,-133.5 699,-114.5 613,-114.5"/>
<text text-anchor="middle" x="656" y="-121.5" font-family="Helvetica,sans-Serif" font-size="10.00" fill="#000000">JS_IsException</text>
</a>
</g>
</g>
<!-- Node417410&#45;&gt;Node417460 -->
<g id="edge25" class="edge">
<title>Node417410&#45;&gt;Node417460</title>
<path fill="none" stroke="#191970" d="M71.1502,-102.1108C158.0346,-95.6963 387.4862,-82.5307 577,-105 589.2572,-106.4533 602.3647,-109.1327 614.3092,-112.0305"/>
<polygon fill="#191970" stroke="#191970" points="613.4714,-115.4287 624.0249,-114.4937 615.1917,-108.6434 613.4714,-115.4287"/>
</g>
<!-- Node417619 -->
<g id="node12" class="node">
<title>Node417619</title>
<g id="a_node12"><a xlink:href="quickjs_8h.html#a4e407128a9605afb77523e49e9a627fd" target="_top" xlink:title="JS_IsUndefined">
<polygon fill="none" stroke="#000000" points="613,-57.5 613,-76.5 699,-76.5 699,-57.5 613,-57.5"/>
<text text-anchor="middle" x="656" y="-64.5" font-family="Helvetica,sans-Serif" font-size="10.00" fill="#000000">JS_IsUndefined</text>
</a>
</g>
</g>
<!-- Node417410&#45;&gt;Node417619 -->
<g id="edge27" class="edge">
<title>Node417410&#45;&gt;Node417619</title>
<path fill="none" stroke="#191970" d="M71.3409,-96.8922C82.6889,-94.619 95.319,-92.391 107,-91 287.7508,-69.476 504.0305,-66.7044 602.4763,-66.6888"/>
<polygon fill="#191970" stroke="#191970" points="602.7579,-70.1889 612.7609,-66.6973 602.7638,-63.1889 602.7579,-70.1889"/>
</g>
<!-- Node417691 -->
<g id="node23" class="node">
<title>Node417691</title>
<g id="a_node23"><a xlink:href="quickjs_8h.html#a3d68fe446df2d9c7d1900b16371bff5b" target="_top" xlink:title="JS_IsObject">
<polygon fill="none" stroke="#000000" points="114.5,-.5 114.5,-19.5 185.5,-19.5 185.5,-.5 114.5,-.5"/>
<text text-anchor="middle" x="150" y="-7.5" font-family="Helvetica,sans-Serif" font-size="10.00" fill="#000000">JS_IsObject</text>
</a>
</g>
</g>
<!-- Node417410&#45;&gt;Node417691 -->
<g id="edge26" class="edge">
<title>Node417410&#45;&gt;Node417691</title>
<path fill="none" stroke="#191970" d="M43.5938,-95.4333C56.1582,-80.9588 81.5671,-53.1534 107,-34 111.3281,-30.7405 116.1485,-27.624 120.9523,-24.7795"/>
<polygon fill="#191970" stroke="#191970" points="123.0303,-27.6267 130.0357,-19.6784 119.6027,-21.5233 123.0303,-27.6267"/>
</g>
<!-- Node417620 -->
<g id="node24" class="node">
<title>Node417620</title>
<g id="a_node24"><a xlink:href="quickjs_8c.html#a2bf30c9cddfe98a32535843202495069" target="_top" xlink:title="JS_ToBoolFree">
<polygon fill="none" stroke="#000000" points="253,-380.5 253,-399.5 337,-399.5 337,-380.5 253,-380.5"/>
<text text-anchor="middle" x="295" y="-387.5" font-family="Helvetica,sans-Serif" font-size="10.00" fill="#000000">JS_ToBoolFree</text>
</a>
</g>
</g>
<!-- Node417410&#45;&gt;Node417620 -->
<g id="edge28" class="edge">
<title>Node417410&#45;&gt;Node417620</title>
<path fill="none" stroke="#191970" d="M38.5696,-114.5727C46.8866,-139.6077 71.6321,-208.4394 107,-257 150.6896,-316.9865 164.4485,-334.3904 229,-371 233.4874,-373.545 238.3432,-375.7724 243.3146,-377.717"/>
<polygon fill="#191970" stroke="#191970" points="242.3564,-381.0903 252.9512,-381.1169 244.6854,-374.4891 242.3564,-381.0903"/>
</g>
<!-- Node417412 -->
<g id="node3" class="node">
<title>Node417412</title>
<g id="a_node3"><a xlink:href="quickjs_8c.html#ab0f713d7a2440dbb2673810323a9a78d" target="_top" xlink:title="JS_ThrowTypeErrorInvalid\lClass">
<polygon fill="none" stroke="#000000" points="229,-419 229,-449 361,-449 361,-419 229,-419"/>
<text text-anchor="start" x="237" y="-437" font-family="Helvetica,sans-Serif" font-size="10.00" fill="#000000">JS_ThrowTypeErrorInvalid</text>
<text text-anchor="middle" x="295" y="-426" font-family="Helvetica,sans-Serif" font-size="10.00" fill="#000000">Class</text>
</a>
</g>
</g>
<!-- Node417411&#45;&gt;Node417412 -->
<g id="edge2" class="edge">
<title>Node417411&#45;&gt;Node417412</title>
<path fill="none" stroke="#191970" d="M188.8573,-410.5754C198.2024,-412.6378 208.5056,-414.9116 218.9076,-417.2072"/>
<polygon fill="#191970" stroke="#191970" points="218.3636,-420.6713 228.883,-419.4087 219.8722,-413.8358 218.3636,-420.6713"/>
</g>
<!-- Node417414 -->
<g id="node5" class="node">
<title>Node417414</title>
<g id="a_node5"><a xlink:href="quickjs_8c.html#a5762c57ae0c9937e986040c01222833a" target="_top" xlink:title="JS_GetPropertyInternal">
<polygon fill="none" stroke="#000000" points="235.5,-342.5 235.5,-361.5 354.5,-361.5 354.5,-342.5 235.5,-342.5"/>
<text text-anchor="middle" x="295" y="-349.5" font-family="Helvetica,sans-Serif" font-size="10.00" fill="#000000">JS_GetPropertyInternal</text>
</a>
</g>
</g>
<!-- Node417413&#45;&gt;Node417414 -->
<g id="edge4" class="edge">
<title>Node417413&#45;&gt;Node417414</title>
<path fill="none" stroke="#191970" d="M162.3626,-247.7196C187.296,-267.3223 243.8333,-311.7724 274.4236,-335.8227"/>
<polygon fill="#191970" stroke="#191970" points="272.6441,-338.8758 282.6687,-342.305 276.9706,-333.3729 272.6441,-338.8758"/>
</g>
<!-- Node417415 -->
<g id="node6" class="node">
<title>Node417415</title>
<g id="a_node6"><a xlink:href="quickjs_8c.html#a288254c06a39c9fca740a7abdad2834e" target="_top" xlink:title="__JS_AtomIsTaggedInt">
<polygon fill="none" stroke="#000000" points="427.5,-304.5 427.5,-323.5 546.5,-323.5 546.5,-304.5 427.5,-304.5"/>
<text text-anchor="middle" x="487" y="-311.5" font-family="Helvetica,sans-Serif" font-size="10.00" fill="#000000">__JS_AtomIsTaggedInt</text>
</a>
</g>
</g>
<!-- Node417414&#45;&gt;Node417415 -->
<g id="edge5" class="edge">
<title>Node417414&#45;&gt;Node417415</title>
<path fill="none" stroke="#191970" d="M343.4497,-342.411C369.471,-337.261 401.7279,-330.8768 429.0688,-325.4656"/>
<polygon fill="#191970" stroke="#191970" points="429.7685,-328.895 438.8987,-323.5201 428.4094,-322.0282 429.7685,-328.895"/>
</g>
<!-- Node417416 -->
<g id="node7" class="node">
<title>Node417416</title>
<g id="a_node7"><a xlink:href="quickjs_8c.html#a89f38938cee8077ce1fbba07946ed185" target="_top" xlink:title="__JS_AtomToUInt32">
<polygon fill="none" stroke="#000000" points="433,-266.5 433,-285.5 541,-285.5 541,-266.5 433,-266.5"/>
<text text-anchor="middle" x="487" y="-273.5" font-family="Helvetica,sans-Serif" font-size="10.00" fill="#000000">__JS_AtomToUInt32</text>
</a>
</g>
</g>
<!-- Node417414&#45;&gt;Node417416 -->
<g id="edge6" class="edge">
<title>Node417414&#45;&gt;Node417416</title>
<path fill="none" stroke="#191970" d="M308.8636,-342.453C327.8959,-329.7776 363.5709,-307.5379 397,-295 405.2565,-291.9033 414.1385,-289.2585 422.992,-287.0148"/>
<polygon fill="#191970" stroke="#191970" points="424.0218,-290.3676 432.9409,-284.6492 422.4025,-283.5575 424.0218,-290.3676"/>
</g>
<!-- Node417417 -->
<g id="node8" class="node">
<title>Node417417</title>
<g id="a_node8"><a xlink:href="quickjs_8c.html#a06b76f5124fd985e35f4c652fd018d6d" target="_top" xlink:title="find_own_property">
<polygon fill="none" stroke="#ff0000" points="439,-228.5 439,-247.5 535,-247.5 535,-228.5 439,-228.5"/>
<text text-anchor="middle" x="487" y="-235.5" font-family="Helvetica,sans-Serif" font-size="10.00" fill="#000000">find_own_property</text>
</a>
</g>
</g>
<!-- Node417414&#45;&gt;Node417417 -->
<g id="edge7" class="edge">
<title>Node417414&#45;&gt;Node417417</title>
<path fill="none" stroke="#191970" d="M302.2459,-342.3929C317.4782,-322.9337 354.9067,-278.859 397,-257 406.7656,-251.9287 417.7946,-248.2109 428.6994,-245.4853"/>
<polygon fill="#191970" stroke="#191970" points="429.6503,-248.859 438.6391,-243.2509 428.115,-242.0294 429.6503,-248.859"/>
</g>
<!-- Node417420 -->
<g id="node9" class="node">
<title>Node417420</title>
<g id="a_node9"><a xlink:href="quickjs_8c.html#add3eea1f6d626963ade3c28a1fd563d1" target="_top" xlink:title="JS_AtomIsNumericIndex">
<polygon fill="none" stroke="#ff0000" points="424,-114.5 424,-133.5 550,-133.5 550,-114.5 424,-114.5"/>
<text text-anchor="middle" x="487" y="-121.5" font-family="Helvetica,sans-Serif" font-size="10.00" fill="#000000">JS_AtomIsNumericIndex</text>
</a>
</g>
</g>
<!-- Node417414&#45;&gt;Node417420 -->
<g id="edge8" class="edge">
<title>Node417414&#45;&gt;Node417420</title>
<path fill="none" stroke="#191970" d="M296.6559,-342.2154C302.8952,-308.5514 328.2333,-196.6362 397,-143 402.1234,-139.0039 407.8917,-135.7981 413.9704,-133.2323"/>
<polygon fill="#191970" stroke="#191970" points="415.5148,-136.3958 423.7302,-129.7056 413.1359,-129.8124 415.5148,-136.3958"/>
</g>
<!-- Node417424 -->
<g id="node10" class="node">
<title>Node417424</title>
<g id="a_node10"><a xlink:href="quickjs_8h.html#afaa20c47565bc704c6c85f3d77254e7d" target="_top" xlink:title="JS_FreeValue">
<polygon fill="none" stroke="#ff0000" points="617,-424.5 617,-443.5 695,-443.5 695,-424.5 617,-424.5"/>
<text text-anchor="middle" x="656" y="-431.5" font-family="Helvetica,sans-Serif" font-size="10.00" fill="#000000">JS_FreeValue</text>
</a>
</g>
</g>
<!-- Node417414&#45;&gt;Node417424 -->
<g id="edge17" class="edge">
<title>Node417414&#45;&gt;Node417424</title>
<path fill="none" stroke="#191970" d="M349.413,-361.6694C353.7682,-364.1371 357.737,-367.201 361,-371 442.176,-465.5116 303.4175,-566.7547 397,-649 427.0456,-675.4057 544.1988,-671.8929 577,-649 610.4296,-625.6685 640.9853,-501.8009 651.8275,-453.4007"/>
<polygon fill="#191970" stroke="#191970" points="655.2649,-454.0656 653.9944,-443.5472 648.4282,-452.5621 655.2649,-454.0656"/>
</g>
<!-- Node417605 -->
<g id="node13" class="node">
<title>Node417605</title>
<g id="a_node13"><a xlink:href="quickjs_8c.html#a8aac7988cf0c6f3c2b629a6662fd7ec8" target="_top" xlink:title="JS_AutoInitProperty">
<polygon fill="none" stroke="#ff0000" points="435,-152.5 435,-171.5 539,-171.5 539,-152.5 435,-152.5"/>
<text text-anchor="middle" x="487" y="-159.5" font-family="Helvetica,sans-Serif" font-size="10.00" fill="#000000">JS_AutoInitProperty</text>
</a>
</g>
</g>
<!-- Node417414&#45;&gt;Node417605 -->
<g id="edge12" class="edge">
<title>Node417414&#45;&gt;Node417605</title>
<path fill="none" stroke="#191970" d="M297.7199,-342.3582C306.5541,-312.9177 337.3776,-223.6107 397,-181 405.2827,-175.0806 415.0213,-170.931 424.9772,-168.037"/>
<polygon fill="#191970" stroke="#191970" points="426.1065,-171.3625 434.9596,-165.5424 424.4093,-164.5714 426.1065,-171.3625"/>
</g>
<!-- Node417513 -->
<g id="node14" class="node">
<title>Node417513</title>
<g id="a_node14"><a xlink:href="quickjs_8c.html#a75f6ee5e4235a7dc99889f3d2eb2c147" target="_top" xlink:title="JS_CallFree">
<polygon fill="none" stroke="#ff0000" points="451.5,-190.5 451.5,-209.5 522.5,-209.5 522.5,-190.5 451.5,-190.5"/>
<text text-anchor="middle" x="487" y="-197.5" font-family="Helvetica,sans-Serif" font-size="10.00" fill="#000000">JS_CallFree</text>
</a>
</g>
</g>
<!-- Node417414&#45;&gt;Node417513 -->
<g id="edge14" class="edge">
<title>Node417414&#45;&gt;Node417513</title>
<path fill="none" stroke="#191970" d="M299.3493,-342.4186C311.1426,-317.6041 346.2859,-250.9583 397,-219 410.063,-210.7681 426.0968,-206.0441 440.9939,-203.3524"/>
<polygon fill="#191970" stroke="#191970" points="441.7266,-206.7808 451.0752,-201.7955 440.6581,-199.8629 441.7266,-206.7808"/>
</g>
<!-- Node417468 -->
<g id="node15" class="node">
<title>Node417468</title>
<g id="a_node15"><a xlink:href="quickjs_8h.html#a775522f2d084fc8fa0fcb33f390006b4" target="_top" xlink:title="JS_DupValue">
<polygon fill="none" stroke="#000000" points="448.5,-620.5 448.5,-639.5 525.5,-639.5 525.5,-620.5 448.5,-620.5"/>
<text text-anchor="middle" x="487" y="-627.5" font-family="Helvetica,sans-Serif" font-size="10.00" fill="#000000">JS_DupValue</text>
</a>
</g>
</g>
<!-- Node417414&#45;&gt;Node417468 -->
<g id="edge16" class="edge">
<title>Node417414&#45;&gt;Node417468</title>
<path fill="none" stroke="#191970" d="M349.0204,-361.5643C353.514,-364.0478 357.6204,-367.1443 361,-371 432.0964,-452.1116 323.0208,-532.5089 397,-611 407.5903,-622.2362 423.0192,-627.6952 438.121,-630.1381"/>
<polygon fill="#191970" stroke="#191970" points="438.114,-633.6624 448.4604,-631.3814 438.9498,-626.7124 438.114,-633.6624"/>
</g>
<!-- Node417536 -->
<g id="node16" class="node">
<title>Node417536</title>
<g id="a_node16"><a xlink:href="quickjs_8c.html#aeb97957655d979e9fe56c955da2b2d4b" target="_top" xlink:title="JS_GetPropertyUint32">
<polygon fill="none" stroke="#ff0000" points="429.5,-582.5 429.5,-601.5 544.5,-601.5 544.5,-582.5 429.5,-582.5"/>
<text text-anchor="middle" x="487" y="-589.5" font-family="Helvetica,sans-Serif" font-size="10.00" fill="#000000">JS_GetPropertyUint32</text>
</a>
</g>
</g>
<!-- Node417414&#45;&gt;Node417536 -->
<g id="edge18" class="edge">
<title>Node417414&#45;&gt;Node417536</title>
<path fill="none" stroke="#191970" d="M348.9111,-361.6615C353.4264,-364.1257 357.5677,-367.1911 361,-371 422.0462,-438.7451 333.547,-507.5037 397,-573 403.2165,-579.4167 411.0142,-583.9362 419.405,-587.0813"/>
<polygon fill="#191970" stroke="#191970" points="418.4902,-590.4619 429.078,-590.0762 420.5605,-583.7751 418.4902,-590.4619"/>
</g>
<!-- Node417636 -->
<g id="node17" class="node">
<title>Node417636</title>
<g id="a_node17"><a xlink:href="quickjs_8c.html#a93550bf785e919d0881399712c54cb34" target="_top" xlink:title="JS_GetPrototypePrimitive">
<polygon fill="none" stroke="#000000" points="422,-544.5 422,-563.5 552,-563.5 552,-544.5 422,-544.5"/>
<text text-anchor="middle" x="487" y="-551.5" font-family="Helvetica,sans-Serif" font-size="10.00" fill="#000000">JS_GetPrototypePrimitive</text>
</a>
</g>
</g>
<!-- Node417414&#45;&gt;Node417636 -->
<g id="edge19" class="edge">
<title>Node417414&#45;&gt;Node417636</title>
<path fill="none" stroke="#191970" d="M348.4376,-361.6356C353.1064,-364.1003 357.4112,-367.173 361,-371 412.0462,-425.4341 344.0212,-482.4449 397,-535 401.5385,-539.5022 406.8583,-543.0609 412.604,-545.8612"/>
<polygon fill="#191970" stroke="#191970" points="411.3513,-549.1301 421.9327,-549.6639 413.9937,-542.648 411.3513,-549.1301"/>
</g>
<!-- Node417712 -->
<g id="node18" class="node">
<title>Node417712</title>
<g id="a_node18"><a xlink:href="quickjs_8h.html#aaab426b47c95d00479b7355b1cf7f56c" target="_top" xlink:title="JS_IsUninitialized">
<polygon fill="none" stroke="#000000" points="439.5,-506.5 439.5,-525.5 534.5,-525.5 534.5,-506.5 439.5,-506.5"/>
<text text-anchor="middle" x="487" y="-513.5" font-family="Helvetica,sans-Serif" font-size="10.00" fill="#000000">JS_IsUninitialized</text>
</a>
</g>
</g>
<!-- Node417414&#45;&gt;Node417712 -->
<g id="edge20" class="edge">
<title>Node417414&#45;&gt;Node417712</title>
<path fill="none" stroke="#191970" d="M347.5512,-361.5428C352.5124,-364.0172 357.1255,-367.1177 361,-371 402.1413,-412.2237 354.3968,-457.289 397,-497 405.8525,-505.2515 417.3505,-510.2827 429.152,-513.2771"/>
<polygon fill="#191970" stroke="#191970" points="428.5825,-516.7335 439.0852,-515.3393 430.0055,-509.8796 428.5825,-516.7335"/>
</g>
<!-- Node417845 -->
<g id="node19" class="node">
<title>Node417845</title>
<g id="a_node19"><a xlink:href="quickjs_8c.html#a077ffa6455c0d7831bd4547542b5f2f7" target="_top" xlink:title="js_new_string_char">
<polygon fill="none" stroke="#ff0000" points="436.5,-468.5 436.5,-487.5 537.5,-487.5 537.5,-468.5 436.5,-468.5"/>
<text text-anchor="middle" x="487" y="-475.5" font-family="Helvetica,sans-Serif" font-size="10.00" fill="#000000">js_new_string_char</text>
</a>
</g>
</g>
<!-- Node417414&#45;&gt;Node417845 -->
<g id="edge21" class="edge">
<title>Node417414&#45;&gt;Node417845</title>
<path fill="none" stroke="#191970" d="M346.1425,-361.524C351.5499,-363.9932 356.6517,-367.0977 361,-371 392.4499,-399.2238 364.5514,-431.9304 397,-459 405.4497,-466.049 415.8712,-470.6799 426.5908,-473.6836"/>
<polygon fill="#191970" stroke="#191970" points="425.9353,-477.1249 436.4711,-476.0075 427.538,-470.3108 425.9353,-477.1249"/>
</g>
<!-- Node417461 -->
<g id="node20" class="node">
<title>Node417461</title>
<g id="a_node20"><a xlink:href="quickjs_8h.html#a2050bc428da1c65ac7eb87c3fa3b0392" target="_top" xlink:title="JS_NewInt32">
<polygon fill="none" stroke="#000000" points="449,-430.5 449,-449.5 525,-449.5 525,-430.5 449,-430.5"/>
<text text-anchor="middle" x="487" y="-437.5" font-family="Helvetica,sans-Serif" font-size="10.00" fill="#000000">JS_NewInt32</text>
</a>
</g>
</g>
<!-- Node417414&#45;&gt;Node417461 -->
<g id="edge22" class="edge">
<title>Node417414&#45;&gt;Node417461</title>
<path fill="none" stroke="#191970" d="M342.9106,-361.6307C349.3114,-364.0838 355.5406,-367.1555 361,-371 383.3888,-386.7661 374.0564,-406.0527 397,-421 409.2744,-428.9965 424.3086,-433.7019 438.5485,-436.4479"/>
<polygon fill="#191970" stroke="#191970" points="438.2911,-439.9525 448.7263,-438.1202 439.4261,-433.0451 438.2911,-439.9525"/>
</g>
<!-- Node417637 -->
<g id="node21" class="node">
<title>Node417637</title>
<g id="a_node21"><a xlink:href="quickjs_8c.html#ab8d0b87c9eed4eb6c054b6f4e1731554" target="_top" xlink:title="JS_ThrowReferenceErrorNot\lDefined">
<polygon fill="none" stroke="#ff0000" points="415.5,-381 415.5,-411 558.5,-411 558.5,-381 415.5,-381"/>
<text text-anchor="start" x="423.5" y="-399" font-family="Helvetica,sans-Serif" font-size="10.00" fill="#000000">JS_ThrowReferenceErrorNot</text>
<text text-anchor="middle" x="487" y="-388" font-family="Helvetica,sans-Serif" font-size="10.00" fill="#000000">Defined</text>
</a>
</g>
</g>
<!-- Node417414&#45;&gt;Node417637 -->
<g id="edge23" class="edge">
<title>Node417414&#45;&gt;Node417637</title>
<path fill="none" stroke="#191970" d="M336.6611,-361.5473C358.4711,-366.5455 385.8603,-372.8222 411.2656,-378.6442"/>
<polygon fill="#191970" stroke="#191970" points="410.7311,-382.1124 421.2602,-380.9346 412.2947,-375.2892 410.7311,-382.1124"/>
</g>
<!-- Node417713 -->
<g id="node22" class="node">
<title>Node417713</title>
<g id="a_node22"><a xlink:href="quickjs_8c.html#a75ac132a3af4de01e1fadeb0bede6ee7" target="_top" xlink:title="JS_ThrowReferenceErrorUninitialized">
<polygon fill="none" stroke="#ff0000" points="397,-342.5 397,-361.5 577,-361.5 577,-342.5 397,-342.5"/>
<text text-anchor="middle" x="487" y="-349.5" font-family="Helvetica,sans-Serif" font-size="10.00" fill="#000000">JS_ThrowReferenceErrorUninitialized</text>
</a>
</g>
</g>
<!-- Node417414&#45;&gt;Node417713 -->
<g id="edge24" class="edge">
<title>Node417414&#45;&gt;Node417713</title>
<path fill="none" stroke="#191970" d="M354.6975,-352C364.8956,-352 375.7347,-352 386.6489,-352"/>
<polygon fill="#191970" stroke="#191970" points="386.677,-355.5001 396.677,-352 386.677,-348.5001 386.677,-355.5001"/>
</g>
<!-- Node417420&#45;&gt;Node417424 -->
<g id="edge9" class="edge">
<title>Node417420&#45;&gt;Node417424</title>
<path fill="none" stroke="#191970" d="M550.3993,-128.1885C560.2299,-131.2856 569.57,-135.9821 577,-143 617.2275,-180.9962 644.8892,-354.6864 653.3056,-414.0451"/>
<polygon fill="#191970" stroke="#191970" points="649.8898,-414.8939 654.7303,-424.3183 656.8234,-413.9323 649.8898,-414.8939"/>
</g>
<!-- Node417420&#45;&gt;Node417460 -->
<g id="edge10" class="edge">
<title>Node417420&#45;&gt;Node417460</title>
<path fill="none" stroke="#191970" d="M550.4102,-124C567.6292,-124 586.0963,-124 602.6953,-124"/>
<polygon fill="#191970" stroke="#191970" points="602.7612,-127.5001 612.7611,-124 602.7611,-120.5001 602.7612,-127.5001"/>
</g>
<!-- Node417420&#45;&gt;Node417619 -->
<g id="edge11" class="edge">
<title>Node417420&#45;&gt;Node417619</title>
<path fill="none" stroke="#191970" d="M515.2868,-114.4595C543.4367,-104.9651 586.8191,-90.3332 617.9712,-79.8263"/>
<polygon fill="#191970" stroke="#191970" points="619.2639,-83.0841 627.6209,-76.5716 617.0268,-76.4512 619.2639,-83.0841"/>
</g>
<!-- Node417605&#45;&gt;Node417460 -->
<g id="edge13" class="edge">
<title>Node417605&#45;&gt;Node417460</title>
<path fill="none" stroke="#191970" d="M533.302,-152.484C547.3548,-149.5261 562.8246,-146.2003 577,-143 586.804,-140.7866 597.2703,-138.3335 607.2706,-135.9456"/>
<polygon fill="#191970" stroke="#191970" points="608.1681,-139.3296 617.074,-133.5907 606.533,-132.5233 608.1681,-139.3296"/>
</g>
<!-- Node417513&#45;&gt;Node417424 -->
<g id="edge15" class="edge">
<title>Node417513&#45;&gt;Node417424</title>
<path fill="none" stroke="#191970" d="M522.6084,-199.6483C540.7904,-201.2582 562.1471,-206.1464 577,-219 636.7718,-270.726 651.3511,-371.7485 654.8824,-414.3278"/>
<polygon fill="#191970" stroke="#191970" points="651.4038,-414.7547 655.6014,-424.4825 658.3863,-414.2602 651.4038,-414.7547"/>
</g>
<!-- Node417620&#45;&gt;Node417424 -->
<g id="edge29" class="edge">
<title>Node417620&#45;&gt;Node417424</title>
<path fill="none" stroke="#191970" d="M337.2427,-395.1225C346.2481,-398.1261 354.8772,-402.7906 361,-410 439.9373,-502.9463 305.2906,-601.6289 397,-682 457.1653,-734.727 512.4147,-729.2095 577,-682 615.0597,-654.1798 643.5596,-506.9539 652.7989,-453.4527"/>
<polygon fill="#191970" stroke="#191970" points="656.2596,-453.9788 654.4747,-443.5354 649.3574,-452.8125 656.2596,-453.9788"/>
</g>
</g>
</svg>
        <g id="navigator" transform="translate(0 0)" fill="#404254">
                <rect fill="#f2f5e9" fill-opacity="0.5" stroke="#606060" stroke-width=".5" x="0" y="0" width="60" height="60"/>
                <use id="zoomplus" xlink:href="#zoomPlus" x="17" y="9" onmousedown="handleZoom(evt,'in')"/>
                <use id="zoomminus" xlink:href="#zoomMin" x="42" y="9" onmousedown="handleZoom(evt,'out')"/>
                <use id="reset" xlink:href="#resetDef" x="30" y="36" onmousedown="handleReset()"/>
                <g id="arrowUp" xlink:href="#dirArrow" transform="translate(30 24)" onmousedown="handlePan(0,-1)">
                  <use xlink:href="#rim" fill="#404040">
                        <set attributeName="fill" to="#808080" begin="arrowUp.mouseover" end="arrowUp.mouseout"/>
                  </use>
                  <path fill="none" stroke="white" stroke-width="1.5" d="M0,-3.0v7 M-2.5,-0.5L0,-3.0L2.5,-0.5"/>
                </g>
                <g id="arrowRight" xlink:href="#dirArrow" transform="rotate(90) translate(36 -43)" onmousedown="handlePan(1,0)">
                  <use xlink:href="#rim" fill="#404040">
                        <set attributeName="fill" to="#808080" begin="arrowRight.mouseover" end="arrowRight.mouseout"/>
                  </use>
                  <path fill="none" stroke="white" stroke-width="1.5" d="M0,-3.0v7 M-2.5,-0.5L0,-3.0L2.5,-0.5"/>
                </g>
                <g id="arrowDown" xlink:href="#dirArrow" transform="rotate(180) translate(-30 -48)" onmousedown="handlePan(0,1)">
                  <use xlink:href="#rim" fill="#404040">
                        <set attributeName="fill" to="#808080" begin="arrowDown.mouseover" end="arrowDown.mouseout"/>
                  </use>
                  <path fill="none" stroke="white" stroke-width="1.5" d="M0,-3.0v7 M-2.5,-0.5L0,-3.0L2.5,-0.5"/>
                </g>
                <g id="arrowLeft" xlink:href="#dirArrow" transform="rotate(270) translate(-36 17)" onmousedown="handlePan(-1,0)">
                  <use xlink:href="#rim" fill="#404040">
                        <set attributeName="fill" to="#808080" begin="arrowLeft.mouseover" end="arrowLeft.mouseout"/>
                  </use>
                  <path fill="none" stroke="white" stroke-width="1.5" d="M0,-3.0v7 M-2.5,-0.5L0,-3.0L2.5,-0.5"/>
                </g>
        </g>
        <svg viewBox="0 0 15 15" width="100%" height="30px" preserveAspectRatio="xMaxYMin meet">
         <g id="arrow_out" transform="scale(0.3 0.3)">
          <a xlink:href="quickjs_8c_a34780713146b6995321c8880802b7d9d_cgraph_org.svg" target="_base">
           <rect id="button" ry="5" rx="5" y="6" x="6" height="38" width="38"
                fill="#f2f5e9" fill-opacity="0.5" stroke="#606060" stroke-width="1.0"/>
           <path id="arrow"
             d="M 11.500037,31.436501 C 11.940474,20.09759 22.043105,11.32322 32.158766,21.979434 L 37.068811,17.246167 C 37.068811,17.246167 37.088388,32 37.088388,32 L 22.160133,31.978069 C 22.160133,31.978069 26.997745,27.140456 26.997745,27.140456 C 18.528582,18.264221 13.291696,25.230495 11.500037,31.436501 z"
             style="fill:#404040;"/>
          </a>
         </g>
        </svg>
</svg>
