<?xml version="1.0" encoding="UTF-8" standalone="no"?>
<!DOCTYPE svg PUBLIC "-//W3C//DTD SVG 1.1//EN"
 "http://www.w3.org/Graphics/SVG/1.1/DTD/svg11.dtd">
<!-- Generated by graphviz version 2.40.1 (20161225.0304)
 -->
<!-- Title: js_promise_resolve_function_call Pages: 1 -->
<svg width="952pt" height="739pt"
 viewBox="0.00 0.00 952.00 739.16" xmlns="http://www.w3.org/2000/svg" xmlns:xlink="http://www.w3.org/1999/xlink">
<g id="graph0" class="graph" transform="scale(1 1) rotate(0) translate(4 735.1628)">
<title>js_promise_resolve_function_call</title>
<!-- Node458898 -->
<g id="node1" class="node">
<title>Node458898</title>
<polygon fill="#bfbfbf" stroke="#000000" points="0,-252.9489 0,-282.9489 101,-282.9489 101,-252.9489 0,-252.9489"/>
<text text-anchor="start" x="8" y="-270.9489" font-family="Helvetica,sans-Serif" font-size="10.00" fill="#000000">js_promise_resolve</text>
<text text-anchor="middle" x="50.5" y="-259.9489" font-family="Helvetica,sans-Serif" font-size="10.00" fill="#000000">_function_call</text>
</g>
<!-- Node458899 -->
<g id="node2" class="node">
<title>Node458899</title>
<g id="a_node2"><a xlink:href="quickjs_8c.html#abe904d9507d512959fb5570a59453e2e" target="_top" xlink:title="fulfill_or_reject_promise">
<polygon fill="none" stroke="#000000" points="274,-454.4489 274,-473.4489 393,-473.4489 393,-454.4489 274,-454.4489"/>
<text text-anchor="middle" x="333.5" y="-461.4489" font-family="Helvetica,sans-Serif" font-size="10.00" fill="#000000">fulfill_or_reject_promise</text>
</a>
</g>
</g>
<!-- Node458898&#45;&gt;Node458899 -->
<g id="edge1" class="edge">
<title>Node458898&#45;&gt;Node458899</title>
<path fill="none" stroke="#191970" d="M60.0703,-283.3009C74.5325,-305.5376 103.8157,-346.9905 137,-373.9489 183.3746,-411.6229 248.0833,-437.2503 290.376,-451.2415"/>
<polygon fill="#191970" stroke="#191970" points="289.5027,-454.6374 300.0945,-454.3823 291.6554,-447.9766 289.5027,-454.6374"/>
</g>
<!-- Node458900 -->
<g id="node3" class="node">
<title>Node458900</title>
<g id="a_node3"><a xlink:href="quickjs_8c.html#a39d815a00b3ec1aed21699396fb43869" target="_top" xlink:title="JS_EnqueueJob">
<polygon fill="none" stroke="#000000" points="143.5,-100.4489 143.5,-119.4489 231.5,-119.4489 231.5,-100.4489 143.5,-100.4489"/>
<text text-anchor="middle" x="187.5" y="-107.4489" font-family="Helvetica,sans-Serif" font-size="10.00" fill="#000000">JS_EnqueueJob</text>
</a>
</g>
</g>
<!-- Node458898&#45;&gt;Node458900 -->
<g id="edge2" class="edge">
<title>Node458898&#45;&gt;Node458900</title>
<path fill="none" stroke="#191970" d="M63.3178,-252.8229C80.136,-233.0129 110.6146,-197.2389 137,-166.9489 148.6257,-153.6028 161.9026,-138.6273 171.9244,-127.3763"/>
<polygon fill="#191970" stroke="#191970" points="174.8275,-129.3797 178.8724,-119.5874 169.6038,-124.72 174.8275,-129.3797"/>
</g>
<!-- Node458904 -->
<g id="node7" class="node">
<title>Node458904</title>
<g id="a_node7"><a xlink:href="quickjs_8h.html#afaa20c47565bc704c6c85f3d77254e7d" target="_top" xlink:title="JS_FreeValue">
<polygon fill="none" stroke="#000000" points="599,-473.4489 599,-492.4489 677,-492.4489 677,-473.4489 599,-473.4489"/>
<text text-anchor="middle" x="638" y="-480.4489" font-family="Helvetica,sans-Serif" font-size="10.00" fill="#000000">JS_FreeValue</text>
</a>
</g>
</g>
<!-- Node458898&#45;&gt;Node458904 -->
<g id="edge6" class="edge">
<title>Node458898&#45;&gt;Node458904</title>
<path fill="none" stroke="#191970" d="M53.9078,-282.9942C62.7094,-319.3971 88.9411,-413.9393 137,-477.9489 236.6868,-610.7216 272.2948,-656.09 429,-710.9489 483.5327,-730.0396 511.9298,-744.4552 559,-710.9489 594.219,-685.8788 623.9984,-553.037 634.2175,-502.4925"/>
<polygon fill="#191970" stroke="#191970" points="637.6832,-503.0085 636.1943,-492.5189 630.8168,-501.6475 637.6832,-503.0085"/>
</g>
<!-- Node458940 -->
<g id="node10" class="node">
<title>Node458940</title>
<g id="a_node10"><a xlink:href="quickjs_8c.html#a8551eaac7ef616910807cebdc515760d" target="_top" xlink:title="JS_GetException">
<polygon fill="none" stroke="#000000" points="287,-302.4489 287,-321.4489 380,-321.4489 380,-302.4489 287,-302.4489"/>
<text text-anchor="middle" x="333.5" y="-309.4489" font-family="Helvetica,sans-Serif" font-size="10.00" fill="#000000">JS_GetException</text>
</a>
</g>
</g>
<!-- Node458898&#45;&gt;Node458940 -->
<g id="edge9" class="edge">
<title>Node458898&#45;&gt;Node458940</title>
<path fill="none" stroke="#191970" d="M96.8045,-283.0413C109.701,-286.7754 123.7956,-290.4249 137,-292.9489 183.5085,-301.839 237.0474,-306.6673 276.4834,-309.2287"/>
<polygon fill="#191970" stroke="#191970" points="276.5052,-312.7367 286.7027,-309.8623 276.9385,-305.7501 276.5052,-312.7367"/>
</g>
<!-- Node458941 -->
<g id="node11" class="node">
<title>Node458941</title>
<g id="a_node11"><a xlink:href="quickjs_8h.html#a89b7c8686c7eee70b86be722ee4730ad" target="_top" xlink:title="JS_GetProperty">
<polygon fill="none" stroke="#000000" points="144.5,-345.4489 144.5,-364.4489 230.5,-364.4489 230.5,-345.4489 144.5,-345.4489"/>
<text text-anchor="middle" x="187.5" y="-352.4489" font-family="Helvetica,sans-Serif" font-size="10.00" fill="#000000">JS_GetProperty</text>
</a>
</g>
</g>
<!-- Node458898&#45;&gt;Node458941 -->
<g id="edge10" class="edge">
<title>Node458898&#45;&gt;Node458941</title>
<path fill="none" stroke="#191970" d="M72.2676,-283.1552C89.5963,-295.1112 114.5779,-312.0169 137,-325.9489 144.777,-330.7812 153.3715,-335.8237 161.2318,-340.3231"/>
<polygon fill="#191970" stroke="#191970" points="159.6035,-343.4233 170.029,-345.3103 163.0557,-337.3337 159.6035,-343.4233"/>
</g>
<!-- Node458950 -->
<g id="node17" class="node">
<title>Node458950</title>
<g id="a_node17"><a xlink:href="quickjs_8h.html#ad80a83d73e9b7d872b88fbf2943aebe9" target="_top" xlink:title="JS_IsException">
<polygon fill="none" stroke="#000000" points="595,-188.4489 595,-207.4489 681,-207.4489 681,-188.4489 595,-188.4489"/>
<text text-anchor="middle" x="638" y="-195.4489" font-family="Helvetica,sans-Serif" font-size="10.00" fill="#000000">JS_IsException</text>
</a>
</g>
</g>
<!-- Node458898&#45;&gt;Node458950 -->
<g id="edge28" class="edge">
<title>Node458898&#45;&gt;Node458950</title>
<path fill="none" stroke="#191970" d="M51.4579,-252.7339C54.9055,-211.7049 70.3208,-98.103 137,-41.9489 184.4694,-1.9725 212.2334,-20.9774 274,-14.9489 401.1833,-2.5357 457.1533,24.2323 559,-52.9489 601.5114,-85.1648 623.9592,-147.1472 633.0516,-178.6091"/>
<polygon fill="#191970" stroke="#191970" points="629.7062,-179.6445 635.7217,-188.366 636.4579,-177.7967 629.7062,-179.6445"/>
</g>
<!-- Node459110 -->
<g id="node24" class="node">
<title>Node459110</title>
<g id="a_node24"><a xlink:href="quickjs_8c.html#a1ca9cdb1fa2ffc3e6506e92b200e490f" target="_top" xlink:title="JS_IsFunction">
<polygon fill="none" stroke="#000000" points="147.5,-214.4489 147.5,-233.4489 227.5,-233.4489 227.5,-214.4489 147.5,-214.4489"/>
<text text-anchor="middle" x="187.5" y="-221.4489" font-family="Helvetica,sans-Serif" font-size="10.00" fill="#000000">JS_IsFunction</text>
</a>
</g>
</g>
<!-- Node458898&#45;&gt;Node459110 -->
<g id="edge29" class="edge">
<title>Node458898&#45;&gt;Node459110</title>
<path fill="none" stroke="#191970" d="M97.2645,-252.9297C113.6698,-247.6608 131.9308,-241.796 147.7102,-236.7281"/>
<polygon fill="#191970" stroke="#191970" points="149.226,-239.9175 157.6767,-233.5272 147.0854,-233.2528 149.226,-239.9175"/>
</g>
<!-- Node459180 -->
<g id="node25" class="node">
<title>Node459180</title>
<g id="a_node25"><a xlink:href="quickjs_8h.html#a3d68fe446df2d9c7d1900b16371bff5b" target="_top" xlink:title="JS_IsObject">
<polygon fill="none" stroke="#000000" points="152,-176.4489 152,-195.4489 223,-195.4489 223,-176.4489 152,-176.4489"/>
<text text-anchor="middle" x="187.5" y="-183.4489" font-family="Helvetica,sans-Serif" font-size="10.00" fill="#000000">JS_IsObject</text>
</a>
</g>
</g>
<!-- Node458898&#45;&gt;Node459180 -->
<g id="edge30" class="edge">
<title>Node458898&#45;&gt;Node459180</title>
<path fill="none" stroke="#191970" d="M68.1084,-252.9183C84.9513,-239.0924 111.4922,-218.7079 137,-204.9489 140.71,-202.9477 144.6761,-201.063 148.6937,-199.3157"/>
<polygon fill="#191970" stroke="#191970" points="150.1247,-202.512 158.065,-195.4975 147.4835,-196.0294 150.1247,-202.512"/>
</g>
<!-- Node459334 -->
<g id="node26" class="node">
<title>Node459334</title>
<g id="a_node26"><a xlink:href="quickjs_8c.html#a38596b6e5448e564dd261426466f36f6" target="_top" xlink:title="js_promise_resolve\l_thenable_job">
<polygon fill="none" stroke="#000000" points="137,-252.9489 137,-282.9489 238,-282.9489 238,-252.9489 137,-252.9489"/>
<text text-anchor="start" x="145" y="-270.9489" font-family="Helvetica,sans-Serif" font-size="10.00" fill="#000000">js_promise_resolve</text>
<text text-anchor="middle" x="187.5" y="-259.9489" font-family="Helvetica,sans-Serif" font-size="10.00" fill="#000000">_thenable_job</text>
</a>
</g>
</g>
<!-- Node458898&#45;&gt;Node459334 -->
<g id="edge31" class="edge">
<title>Node458898&#45;&gt;Node459334</title>
<path fill="none" stroke="#191970" d="M101.1245,-267.9489C109.3614,-267.9489 117.969,-267.9489 126.4239,-267.9489"/>
<polygon fill="#191970" stroke="#191970" points="126.6262,-271.449 136.6262,-267.9489 126.6262,-264.449 126.6262,-271.449"/>
</g>
<!-- Node459120 -->
<g id="node29" class="node">
<title>Node459120</title>
<g id="a_node29"><a xlink:href="quickjs_8c.html#a24be89a128d1cd7c0908604815b2b854" target="_top" xlink:title="js_same_value">
<polygon fill="none" stroke="#ff0000" points="292.5,-24.4489 292.5,-43.4489 374.5,-43.4489 374.5,-24.4489 292.5,-24.4489"/>
<text text-anchor="middle" x="333.5" y="-31.4489" font-family="Helvetica,sans-Serif" font-size="10.00" fill="#000000">js_same_value</text>
</a>
</g>
</g>
<!-- Node458898&#45;&gt;Node459120 -->
<g id="edge40" class="edge">
<title>Node458898&#45;&gt;Node459120</title>
<path fill="none" stroke="#191970" d="M53.5339,-252.8224C61.1846,-218.6608 84.5185,-135.0888 137,-90.9489 178.1477,-56.3414 239.3331,-42.7315 282.4755,-37.3874"/>
<polygon fill="#191970" stroke="#191970" points="282.941,-40.8572 292.4841,-36.2549 282.1539,-33.9016 282.941,-40.8572"/>
</g>
<!-- Node459335 -->
<g id="node30" class="node">
<title>Node459335</title>
<g id="a_node30"><a xlink:href="quickjs_8c.html#ad6fab8e31674a32ca02feee02f99347b" target="_top" xlink:title="reject_promise">
<polygon fill="none" stroke="#000000" points="147.5,-449.4489 147.5,-468.4489 227.5,-468.4489 227.5,-449.4489 147.5,-449.4489"/>
<text text-anchor="middle" x="187.5" y="-456.4489" font-family="Helvetica,sans-Serif" font-size="10.00" fill="#000000">reject_promise</text>
</a>
</g>
</g>
<!-- Node458898&#45;&gt;Node459335 -->
<g id="edge42" class="edge">
<title>Node458898&#45;&gt;Node459335</title>
<path fill="none" stroke="#191970" d="M55.8402,-282.9612C67.0778,-312.9408 95.592,-381.1823 137,-425.9489 143.4072,-432.8758 151.5593,-439.0143 159.4345,-444.0615"/>
<polygon fill="#191970" stroke="#191970" points="157.7283,-447.1196 168.1005,-449.28 161.3394,-441.1229 157.7283,-447.1196"/>
</g>
<!-- Node458901 -->
<g id="node4" class="node">
<title>Node458901</title>
<g id="a_node4"><a xlink:href="quickjs_8h.html#a775522f2d084fc8fa0fcb33f390006b4" target="_top" xlink:title="JS_DupValue">
<polygon fill="none" stroke="#000000" points="455.5,-150.4489 455.5,-169.4489 532.5,-169.4489 532.5,-150.4489 455.5,-150.4489"/>
<text text-anchor="middle" x="494" y="-157.4489" font-family="Helvetica,sans-Serif" font-size="10.00" fill="#000000">JS_DupValue</text>
</a>
</g>
</g>
<!-- Node458900&#45;&gt;Node458901 -->
<g id="edge3" class="edge">
<title>Node458900&#45;&gt;Node458901</title>
<path fill="none" stroke="#191970" d="M231.7404,-117.166C288.3536,-126.4014 386.1175,-142.3498 444.953,-151.9478"/>
<polygon fill="#191970" stroke="#191970" points="444.6792,-155.4493 455.1123,-153.6051 445.8063,-148.5406 444.6792,-155.4493"/>
</g>
<!-- Node458902 -->
<g id="node5" class="node">
<title>Node458902</title>
<g id="a_node5"><a xlink:href="list_8h.html#a3a5d0733570b2fafc18f4c71a2968ea5" target="_top" xlink:title="list_add_tail">
<polygon fill="none" stroke="#000000" points="299.5,-62.4489 299.5,-81.4489 367.5,-81.4489 367.5,-62.4489 299.5,-62.4489"/>
<text text-anchor="middle" x="333.5" y="-69.4489" font-family="Helvetica,sans-Serif" font-size="10.00" fill="#000000">list_add_tail</text>
</a>
</g>
</g>
<!-- Node458900&#45;&gt;Node458902 -->
<g id="edge4" class="edge">
<title>Node458900&#45;&gt;Node458902</title>
<path fill="none" stroke="#191970" d="M224.342,-100.3599C244.088,-95.2205 268.5562,-88.8521 289.3191,-83.4481"/>
<polygon fill="#191970" stroke="#191970" points="290.3813,-86.7883 299.1772,-80.8822 288.618,-80.014 290.3813,-86.7883"/>
</g>
<!-- Node458903 -->
<g id="node6" class="node">
<title>Node458903</title>
<g id="a_node6"><a xlink:href="list_8h.html#a16286d5bff74a27aec51a3134ffc7b43" target="_top" xlink:title="__list_add">
<polygon fill="none" stroke="#000000" points="463.5,-62.4489 463.5,-81.4489 524.5,-81.4489 524.5,-62.4489 463.5,-62.4489"/>
<text text-anchor="middle" x="494" y="-69.4489" font-family="Helvetica,sans-Serif" font-size="10.00" fill="#000000">__list_add</text>
</a>
</g>
</g>
<!-- Node458902&#45;&gt;Node458903 -->
<g id="edge5" class="edge">
<title>Node458902&#45;&gt;Node458903</title>
<path fill="none" stroke="#191970" d="M367.5379,-71.9489C392.5582,-71.9489 426.67,-71.9489 453.1603,-71.9489"/>
<polygon fill="#191970" stroke="#191970" points="453.2676,-75.449 463.2676,-71.9489 453.2676,-68.449 453.2676,-75.449"/>
</g>
<!-- Node458905 -->
<g id="node8" class="node">
<title>Node458905</title>
<g id="a_node8"><a xlink:href="quickjs_8c.html#aa059f309c30fd5166d16c82a97973146" target="_top" xlink:title="__JS_FreeValue">
<polygon fill="none" stroke="#000000" points="717,-473.4489 717,-492.4489 806,-492.4489 806,-473.4489 717,-473.4489"/>
<text text-anchor="middle" x="761.5" y="-480.4489" font-family="Helvetica,sans-Serif" font-size="10.00" fill="#000000">__JS_FreeValue</text>
</a>
</g>
</g>
<!-- Node458904&#45;&gt;Node458905 -->
<g id="edge7" class="edge">
<title>Node458904&#45;&gt;Node458905</title>
<path fill="none" stroke="#191970" d="M677.0762,-482.9489C686.412,-482.9489 696.5507,-482.9489 706.4566,-482.9489"/>
<polygon fill="#191970" stroke="#191970" points="706.6517,-486.449 716.6517,-482.9489 706.6517,-479.449 706.6517,-486.449"/>
</g>
<!-- Node458906 -->
<g id="node9" class="node">
<title>Node458906</title>
<g id="a_node9"><a xlink:href="quickjs_8c.html#ab1ea3fad7d138be12144a38be4d36423" target="_top" xlink:title="__JS_FreeValueRT">
<polygon fill="none" stroke="#ff0000" points="842,-473.4489 842,-492.4489 944,-492.4489 944,-473.4489 842,-473.4489"/>
<text text-anchor="middle" x="893" y="-480.4489" font-family="Helvetica,sans-Serif" font-size="10.00" fill="#000000">__JS_FreeValueRT</text>
</a>
</g>
</g>
<!-- Node458905&#45;&gt;Node458906 -->
<g id="edge8" class="edge">
<title>Node458905&#45;&gt;Node458906</title>
<path fill="none" stroke="#191970" d="M806.0199,-482.9489C814.2672,-482.9489 823.0138,-482.9489 831.6583,-482.9489"/>
<polygon fill="#191970" stroke="#191970" points="831.7233,-486.449 841.7233,-482.9489 831.7232,-479.449 831.7233,-486.449"/>
</g>
<!-- Node458942 -->
<g id="node12" class="node">
<title>Node458942</title>
<g id="a_node12"><a xlink:href="quickjs_8c.html#a5762c57ae0c9937e986040c01222833a" target="_top" xlink:title="JS_GetPropertyInternal">
<polygon fill="none" stroke="#ff0000" points="274,-416.4489 274,-435.4489 393,-435.4489 393,-416.4489 274,-416.4489"/>
<text text-anchor="middle" x="333.5" y="-423.4489" font-family="Helvetica,sans-Serif" font-size="10.00" fill="#000000">JS_GetPropertyInternal</text>
</a>
</g>
</g>
<!-- Node458941&#45;&gt;Node458942 -->
<g id="edge11" class="edge">
<title>Node458941&#45;&gt;Node458942</title>
<path fill="none" stroke="#191970" d="M207.1902,-364.5243C232.2253,-376.6989 275.653,-397.8179 304.4849,-411.8388"/>
<polygon fill="#191970" stroke="#191970" points="303.1318,-415.0727 313.6555,-416.2985 306.1931,-408.7776 303.1318,-415.0727"/>
</g>
<!-- Node458942&#45;&gt;Node458901 -->
<g id="edge22" class="edge">
<title>Node458942&#45;&gt;Node458901</title>
<path fill="none" stroke="#191970" d="M339.6652,-416.2907C350.5629,-399.1777 373.884,-362.3723 393,-330.9489 426.4713,-275.9281 464.8676,-210.1635 483.1833,-178.6239"/>
<polygon fill="#191970" stroke="#191970" points="486.4024,-180.0496 488.3926,-169.6434 480.3474,-176.5372 486.4024,-180.0496"/>
</g>
<!-- Node458942&#45;&gt;Node458904 -->
<g id="edge23" class="edge">
<title>Node458942&#45;&gt;Node458904</title>
<path fill="none" stroke="#191970" d="M373.1591,-435.5216C380.0487,-438.0362 386.9392,-441.1427 393,-444.9489 412.7016,-457.3216 407.6287,-473.7564 429,-482.9489 480.0703,-504.9159 544.8742,-500.5883 588.6788,-493.5721"/>
<polygon fill="#191970" stroke="#191970" points="589.5233,-496.9787 598.7913,-491.845 588.3448,-490.0786 589.5233,-496.9787"/>
</g>
<!-- Node458943 -->
<g id="node13" class="node">
<title>Node458943</title>
<g id="a_node13"><a xlink:href="quickjs_8c.html#a288254c06a39c9fca740a7abdad2834e" target="_top" xlink:title="__JS_AtomIsTaggedInt">
<polygon fill="none" stroke="#000000" points="434.5,-340.4489 434.5,-359.4489 553.5,-359.4489 553.5,-340.4489 434.5,-340.4489"/>
<text text-anchor="middle" x="494" y="-347.4489" font-family="Helvetica,sans-Serif" font-size="10.00" fill="#000000">__JS_AtomIsTaggedInt</text>
</a>
</g>
</g>
<!-- Node458942&#45;&gt;Node458943 -->
<g id="edge12" class="edge">
<title>Node458942&#45;&gt;Node458943</title>
<path fill="none" stroke="#191970" d="M347.139,-416.2847C365.1529,-403.8853 398.2043,-382.3793 429,-368.9489 434.3159,-366.6306 439.9966,-364.5002 445.7041,-362.5715"/>
<polygon fill="#191970" stroke="#191970" points="446.8117,-365.892 455.275,-359.5183 444.6842,-359.2231 446.8117,-365.892"/>
</g>
<!-- Node458944 -->
<g id="node14" class="node">
<title>Node458944</title>
<g id="a_node14"><a xlink:href="quickjs_8c.html#a89f38938cee8077ce1fbba07946ed185" target="_top" xlink:title="__JS_AtomToUInt32">
<polygon fill="none" stroke="#000000" points="440,-302.4489 440,-321.4489 548,-321.4489 548,-302.4489 440,-302.4489"/>
<text text-anchor="middle" x="494" y="-309.4489" font-family="Helvetica,sans-Serif" font-size="10.00" fill="#000000">__JS_AtomToUInt32</text>
</a>
</g>
</g>
<!-- Node458942&#45;&gt;Node458944 -->
<g id="edge13" class="edge">
<title>Node458942&#45;&gt;Node458944</title>
<path fill="none" stroke="#191970" d="M340.4949,-416.2886C354.8777,-397.123 389.7362,-354.1435 429,-330.9489 432.6442,-328.7962 436.5488,-326.8732 440.5686,-325.1579"/>
<polygon fill="#191970" stroke="#191970" points="441.9956,-328.3595 450.0887,-321.522 439.4981,-321.8202 441.9956,-328.3595"/>
</g>
<!-- Node458945 -->
<g id="node15" class="node">
<title>Node458945</title>
<g id="a_node15"><a xlink:href="quickjs_8c.html#a06b76f5124fd985e35f4c652fd018d6d" target="_top" xlink:title="find_own_property">
<polygon fill="none" stroke="#ff0000" points="446,-644.4489 446,-663.4489 542,-663.4489 542,-644.4489 446,-644.4489"/>
<text text-anchor="middle" x="494" y="-651.4489" font-family="Helvetica,sans-Serif" font-size="10.00" fill="#000000">find_own_property</text>
</a>
</g>
</g>
<!-- Node458942&#45;&gt;Node458945 -->
<g id="edge14" class="edge">
<title>Node458942&#45;&gt;Node458945</title>
<path fill="none" stroke="#191970" d="M380.6772,-435.4762C385.3026,-437.9471 389.5504,-441.0512 393,-444.9489 449.9609,-509.3098 371.2484,-571.2966 429,-634.9489 431.291,-637.474 433.8971,-639.6708 436.7174,-641.5814"/>
<polygon fill="#191970" stroke="#191970" points="435.2662,-644.7766 445.7206,-646.496 438.6202,-638.6324 435.2662,-644.7766"/>
</g>
<!-- Node458946 -->
<g id="node16" class="node">
<title>Node458946</title>
<g id="a_node16"><a xlink:href="quickjs_8c.html#add3eea1f6d626963ade3c28a1fd563d1" target="_top" xlink:title="JS_AtomIsNumericIndex">
<polygon fill="none" stroke="#ff0000" points="431,-454.4489 431,-473.4489 557,-473.4489 557,-454.4489 431,-454.4489"/>
<text text-anchor="middle" x="494" y="-461.4489" font-family="Helvetica,sans-Serif" font-size="10.00" fill="#000000">JS_AtomIsNumericIndex</text>
</a>
</g>
</g>
<!-- Node458942&#45;&gt;Node458946 -->
<g id="edge15" class="edge">
<title>Node458942&#45;&gt;Node458946</title>
<path fill="none" stroke="#191970" d="M374.0009,-435.5379C395.1806,-440.5524 421.3022,-446.737 443.7604,-452.0542"/>
<polygon fill="#191970" stroke="#191970" points="443.2529,-455.5307 453.7903,-454.4289 444.8657,-448.719 443.2529,-455.5307"/>
</g>
<!-- Node459094 -->
<g id="node18" class="node">
<title>Node459094</title>
<g id="a_node18"><a xlink:href="quickjs_8c.html#a8aac7988cf0c6f3c2b629a6662fd7ec8" target="_top" xlink:title="JS_AutoInitProperty">
<polygon fill="none" stroke="#ff0000" points="442,-416.4489 442,-435.4489 546,-435.4489 546,-416.4489 442,-416.4489"/>
<text text-anchor="middle" x="494" y="-423.4489" font-family="Helvetica,sans-Serif" font-size="10.00" fill="#000000">JS_AutoInitProperty</text>
</a>
</g>
</g>
<!-- Node458942&#45;&gt;Node459094 -->
<g id="edge18" class="edge">
<title>Node458942&#45;&gt;Node459094</title>
<path fill="none" stroke="#191970" d="M393.2643,-425.9489C405.8526,-425.9489 419.1617,-425.9489 431.8358,-425.9489"/>
<polygon fill="#191970" stroke="#191970" points="431.8383,-429.449 441.8383,-425.9489 431.8382,-422.449 431.8383,-429.449"/>
</g>
<!-- Node459002 -->
<g id="node19" class="node">
<title>Node459002</title>
<g id="a_node19"><a xlink:href="quickjs_8c.html#a75f6ee5e4235a7dc99889f3d2eb2c147" target="_top" xlink:title="JS_CallFree">
<polygon fill="none" stroke="#ff0000" points="458.5,-682.4489 458.5,-701.4489 529.5,-701.4489 529.5,-682.4489 458.5,-682.4489"/>
<text text-anchor="middle" x="494" y="-689.4489" font-family="Helvetica,sans-Serif" font-size="10.00" fill="#000000">JS_CallFree</text>
</a>
</g>
</g>
<!-- Node458942&#45;&gt;Node459002 -->
<g id="edge20" class="edge">
<title>Node458942&#45;&gt;Node459002</title>
<path fill="none" stroke="#191970" d="M381.0836,-435.5288C385.5754,-437.993 389.6812,-441.0811 393,-444.9489 459.8048,-522.8049 361.2384,-595.9242 429,-672.9489 434.2418,-678.9073 441.2384,-683.0445 448.6999,-685.9067"/>
<polygon fill="#191970" stroke="#191970" points="447.7145,-689.2655 458.3028,-688.8913 449.7922,-682.5809 447.7145,-689.2655"/>
</g>
<!-- Node459025 -->
<g id="node20" class="node">
<title>Node459025</title>
<g id="a_node20"><a xlink:href="quickjs_8c.html#aeb97957655d979e9fe56c955da2b2d4b" target="_top" xlink:title="JS_GetPropertyUint32">
<polygon fill="none" stroke="#ff0000" points="436.5,-606.4489 436.5,-625.4489 551.5,-625.4489 551.5,-606.4489 436.5,-606.4489"/>
<text text-anchor="middle" x="494" y="-613.4489" font-family="Helvetica,sans-Serif" font-size="10.00" fill="#000000">JS_GetPropertyUint32</text>
</a>
</g>
</g>
<!-- Node458942&#45;&gt;Node459025 -->
<g id="edge24" class="edge">
<title>Node458942&#45;&gt;Node459025</title>
<path fill="none" stroke="#191970" d="M380.2127,-435.481C384.981,-437.9488 389.3893,-441.0508 393,-444.9489 440.1764,-495.8816 381.198,-546.6029 429,-596.9489 430.2522,-598.2678 431.5905,-599.4967 432.9997,-600.6416"/>
<polygon fill="#191970" stroke="#191970" points="431.4511,-603.8093 441.7434,-606.323 435.2651,-597.9396 431.4511,-603.8093"/>
</g>
<!-- Node459125 -->
<g id="node21" class="node">
<title>Node459125</title>
<g id="a_node21"><a xlink:href="quickjs_8c.html#a93550bf785e919d0881399712c54cb34" target="_top" xlink:title="JS_GetPrototypePrimitive">
<polygon fill="none" stroke="#000000" points="429,-568.4489 429,-587.4489 559,-587.4489 559,-568.4489 429,-568.4489"/>
<text text-anchor="middle" x="494" y="-575.4489" font-family="Helvetica,sans-Serif" font-size="10.00" fill="#000000">JS_GetPrototypePrimitive</text>
</a>
</g>
</g>
<!-- Node458942&#45;&gt;Node459125 -->
<g id="edge25" class="edge">
<title>Node458942&#45;&gt;Node459125</title>
<path fill="none" stroke="#191970" d="M379.3458,-435.4522C384.3857,-437.9219 389.0958,-441.0321 393,-444.9489 430.5102,-482.5799 391.0277,-521.7842 429,-558.9489 430.4809,-560.3983 432.066,-561.7382 433.7339,-562.9768"/>
<polygon fill="#191970" stroke="#191970" points="432.294,-566.1957 442.6647,-568.3635 435.9094,-560.2016 432.294,-566.1957"/>
</g>
<!-- Node459201 -->
<g id="node22" class="node">
<title>Node459201</title>
<g id="a_node22"><a xlink:href="quickjs_8h.html#aaab426b47c95d00479b7355b1cf7f56c" target="_top" xlink:title="JS_IsUninitialized">
<polygon fill="none" stroke="#000000" points="446.5,-530.4489 446.5,-549.4489 541.5,-549.4489 541.5,-530.4489 446.5,-530.4489"/>
<text text-anchor="middle" x="494" y="-537.4489" font-family="Helvetica,sans-Serif" font-size="10.00" fill="#000000">JS_IsUninitialized</text>
</a>
</g>
</g>
<!-- Node458942&#45;&gt;Node459201 -->
<g id="edge26" class="edge">
<title>Node458942&#45;&gt;Node459201</title>
<path fill="none" stroke="#191970" d="M377.5426,-435.5443C383.1227,-438.0006 388.4589,-441.0826 393,-444.9489 419.9388,-467.8848 402.5795,-492.4179 429,-515.9489 433.4887,-519.9467 438.7016,-523.2983 444.1849,-526.1035"/>
<polygon fill="#191970" stroke="#191970" points="443.0319,-529.4224 453.5881,-530.3264 445.8997,-523.0368 443.0319,-529.4224"/>
</g>
<!-- Node459332 -->
<g id="node23" class="node">
<title>Node459332</title>
<g id="a_node23"><a xlink:href="quickjs_8c.html#a077ffa6455c0d7831bd4547542b5f2f7" target="_top" xlink:title="js_new_string_char">
<polygon fill="none" stroke="#ff0000" points="443.5,-378.4489 443.5,-397.4489 544.5,-397.4489 544.5,-378.4489 443.5,-378.4489"/>
<text text-anchor="middle" x="494" y="-385.4489" font-family="Helvetica,sans-Serif" font-size="10.00" fill="#000000">js_new_string_char</text>
</a>
</g>
</g>
<!-- Node458942&#45;&gt;Node459332 -->
<g id="edge27" class="edge">
<title>Node458942&#45;&gt;Node459332</title>
<path fill="none" stroke="#191970" d="M374.0009,-416.3599C395.1806,-411.3454 421.3022,-405.1609 443.7604,-399.8437"/>
<polygon fill="#191970" stroke="#191970" points="444.8657,-403.1788 453.7903,-397.469 443.2529,-396.3671 444.8657,-403.1788"/>
</g>
<!-- Node458946&#45;&gt;Node458904 -->
<g id="edge16" class="edge">
<title>Node458946&#45;&gt;Node458904</title>
<path fill="none" stroke="#191970" d="M557.1605,-472.2826C567.8156,-473.6885 578.733,-475.129 588.9601,-476.4784"/>
<polygon fill="#191970" stroke="#191970" points="588.5498,-479.9545 598.9217,-477.7928 589.4655,-473.0146 588.5498,-479.9545"/>
</g>
<!-- Node458946&#45;&gt;Node458950 -->
<g id="edge17" class="edge">
<title>Node458946&#45;&gt;Node458950</title>
<path fill="none" stroke="#191970" d="M545.3211,-454.349C550.3494,-451.8885 555.0438,-448.8067 559,-444.9489 592.4834,-412.2979 623.6501,-269.9665 634.2079,-217.4803"/>
<polygon fill="#191970" stroke="#191970" points="637.6836,-217.946 636.1919,-207.4567 630.8168,-216.5868 637.6836,-217.946"/>
</g>
<!-- Node459094&#45;&gt;Node458950 -->
<g id="edge19" class="edge">
<title>Node459094&#45;&gt;Node458950</title>
<path fill="none" stroke="#191970" d="M544.4757,-416.4474C549.7822,-413.9743 554.7726,-410.8627 559,-406.9489 615.1994,-354.9187 631.7024,-258.8285 636.3119,-217.5881"/>
<polygon fill="#191970" stroke="#191970" points="639.809,-217.7912 637.3197,-207.4929 632.8436,-217.0957 639.809,-217.7912"/>
</g>
<!-- Node459002&#45;&gt;Node458904 -->
<g id="edge21" class="edge">
<title>Node459002&#45;&gt;Node458904</title>
<path fill="none" stroke="#191970" d="M529.5934,-687.5234C540.0514,-684.7476 550.8564,-680.2451 559,-672.9489 610.6008,-626.7176 629.3582,-541.4902 635.4203,-502.8837"/>
<polygon fill="#191970" stroke="#191970" points="638.9553,-502.8907 636.9163,-492.4939 632.0267,-501.893 638.9553,-502.8907"/>
</g>
<!-- Node459334&#45;&gt;Node458904 -->
<g id="edge37" class="edge">
<title>Node459334&#45;&gt;Node458904</title>
<path fill="none" stroke="#191970" d="M238.187,-264.9758C327.6765,-260.7478 508.9587,-257.0747 559,-292.9489 615.9364,-333.7662 632.0002,-423.5412 636.4002,-463.3162"/>
<polygon fill="#191970" stroke="#191970" points="632.9227,-463.7184 637.3734,-473.333 639.8899,-463.0414 632.9227,-463.7184"/>
</g>
<!-- Node459334&#45;&gt;Node458940 -->
<g id="edge38" class="edge">
<title>Node459334&#45;&gt;Node458940</title>
<path fill="none" stroke="#191970" d="M237.3366,-282.9682C255.1527,-288.3374 275.0224,-294.3255 292.0543,-299.4584"/>
<polygon fill="#191970" stroke="#191970" points="291.1329,-302.8362 301.7175,-302.3706 293.1528,-296.1339 291.1329,-302.8362"/>
</g>
<!-- Node459334&#45;&gt;Node458950 -->
<g id="edge39" class="edge">
<title>Node459334&#45;&gt;Node458950</title>
<path fill="none" stroke="#191970" d="M225.2903,-252.8542C229.9092,-250.0071 234.297,-246.7166 238,-242.9489 264.1989,-216.2927 244.1851,-189.488 274,-166.9489 329.7211,-124.8257 359.3897,-146.7467 429,-140.9489 486.5784,-136.1533 504.0207,-123.1852 559,-140.9489 583.4419,-148.8461 606.6877,-167.4348 621.5541,-181.2498"/>
<polygon fill="#191970" stroke="#191970" points="619.2765,-183.9156 628.9054,-188.3354 624.1343,-178.8756 619.2765,-183.9156"/>
</g>
<!-- Node459179 -->
<g id="node27" class="node">
<title>Node459179</title>
<g id="a_node27"><a xlink:href="quickjs_8c.html#a1a4c02a29525d5cb2085dd8bca3af350" target="_top" xlink:title="JS_Call">
<polygon fill="none" stroke="#ff0000" points="308,-176.4489 308,-195.4489 359,-195.4489 359,-176.4489 308,-176.4489"/>
<text text-anchor="middle" x="333.5" y="-183.4489" font-family="Helvetica,sans-Serif" font-size="10.00" fill="#000000">JS_Call</text>
</a>
</g>
</g>
<!-- Node459334&#45;&gt;Node459179 -->
<g id="edge32" class="edge">
<title>Node459334&#45;&gt;Node459179</title>
<path fill="none" stroke="#191970" d="M221.8348,-252.932C227.4293,-249.9333 233.0177,-246.5769 238,-242.9489 256.5475,-229.443 254.5813,-218.1691 274,-205.9489 281.2786,-201.3685 289.7237,-197.7115 297.9245,-194.8439"/>
<polygon fill="#191970" stroke="#191970" points="299.2444,-198.0969 307.7117,-191.7286 297.1212,-191.4267 299.2444,-198.0969"/>
</g>
<!-- Node459273 -->
<g id="node28" class="node">
<title>Node459273</title>
<g id="a_node28"><a xlink:href="quickjs_8c.html#a37cac335cb6abd3c24e162ad57f418f1" target="_top" xlink:title="js_create_resolving\l_functions">
<polygon fill="none" stroke="#ff0000" points="283,-214.9489 283,-244.9489 384,-244.9489 384,-214.9489 283,-214.9489"/>
<text text-anchor="start" x="291" y="-232.9489" font-family="Helvetica,sans-Serif" font-size="10.00" fill="#000000">js_create_resolving</text>
<text text-anchor="middle" x="333.5" y="-221.9489" font-family="Helvetica,sans-Serif" font-size="10.00" fill="#000000">_functions</text>
</a>
</g>
</g>
<!-- Node459334&#45;&gt;Node459273 -->
<g id="edge33" class="edge">
<title>Node459334&#45;&gt;Node459273</title>
<path fill="none" stroke="#191970" d="M238.154,-254.765C249.3652,-251.847 261.3547,-248.7265 272.9161,-245.7173"/>
<polygon fill="#191970" stroke="#191970" points="274.1396,-249.0156 282.9356,-243.1095 272.3764,-242.2413 274.1396,-249.0156"/>
</g>
<!-- Node459273&#45;&gt;Node458901 -->
<g id="edge34" class="edge">
<title>Node459273&#45;&gt;Node458901</title>
<path fill="none" stroke="#191970" d="M371.2894,-214.945C378.5715,-211.809 386.0825,-208.4014 393,-204.9489 409.5737,-196.6771 412.2481,-191.8536 429,-183.9489 437.2995,-180.0327 446.4249,-176.3192 455.1468,-173.0354"/>
<polygon fill="#191970" stroke="#191970" points="456.5666,-176.243 464.7572,-169.5226 454.1634,-169.6684 456.5666,-176.243"/>
</g>
<!-- Node459273&#45;&gt;Node458904 -->
<g id="edge35" class="edge">
<title>Node459273&#45;&gt;Node458904</title>
<path fill="none" stroke="#191970" d="M384.1758,-230.6812C442.3067,-232.533 532.9625,-238.8376 559,-259.9489 591.7748,-286.523 622.8275,-414.084 633.8109,-463.414"/>
<polygon fill="#191970" stroke="#191970" points="630.3927,-464.1666 635.9506,-473.1866 637.2307,-462.6694 630.3927,-464.1666"/>
</g>
<!-- Node459273&#45;&gt;Node458950 -->
<g id="edge36" class="edge">
<title>Node459273&#45;&gt;Node458950</title>
<path fill="none" stroke="#191970" d="M384.1238,-224.6289C439.5268,-218.8065 527.9721,-209.5118 584.4914,-203.5722"/>
<polygon fill="#191970" stroke="#191970" points="585.0787,-207.0298 594.6581,-202.5037 584.347,-200.0681 585.0787,-207.0298"/>
</g>
<!-- Node459120&#45;&gt;Node458901 -->
<g id="edge41" class="edge">
<title>Node459120&#45;&gt;Node458901</title>
<path fill="none" stroke="#191970" d="M373.1648,-43.5125C380.0538,-46.028 386.9426,-49.1372 393,-52.9489 393.645,-53.3548 449.5133,-112.6784 477.8696,-142.8065"/>
<polygon fill="#191970" stroke="#191970" points="475.3511,-145.2374 484.7533,-150.121 480.4487,-140.4401 475.3511,-145.2374"/>
</g>
<!-- Node459335&#45;&gt;Node458899 -->
<g id="edge43" class="edge">
<title>Node459335&#45;&gt;Node458899</title>
<path fill="none" stroke="#191970" d="M227.7816,-460.3284C238.9257,-460.7101 251.3523,-461.1357 263.6591,-461.5571"/>
<polygon fill="#191970" stroke="#191970" points="263.8238,-465.0647 273.9377,-461.9091 264.0634,-458.0688 263.8238,-465.0647"/>
</g>
</g>
</svg>
