<?xml version="1.0" encoding="UTF-8" standalone="no"?>
<!DOCTYPE svg PUBLIC "-//W3C//DTD SVG 1.1//EN"
 "http://www.w3.org/Graphics/SVG/1.1/DTD/svg11.dtd">
<!-- Generated by graphviz version 2.40.1 (20161225.0304)
 -->
<!-- Title: js_build_arguments Pages: 1 -->
<svg width="1195pt" height="1051pt"
 viewBox="0.00 0.00 1195.00 1051.06" xmlns="http://www.w3.org/2000/svg" xmlns:xlink="http://www.w3.org/1999/xlink">
<g id="graph0" class="graph" transform="scale(1 1) rotate(0) translate(4 1047.0646)">
<title>js_build_arguments</title>
<!-- Node273870 -->
<g id="node1" class="node">
<title>Node273870</title>
<polygon fill="#bfbfbf" stroke="#000000" points="0,-624.5646 0,-643.5646 101,-643.5646 101,-624.5646 0,-624.5646"/>
<text text-anchor="middle" x="50.5" y="-631.5646" font-family="Helvetica,sans-Serif" font-size="10.00" fill="#000000">js_build_arguments</text>
</g>
<!-- Node273871 -->
<g id="node2" class="node">
<title>Node273871</title>
<g id="a_node2"><a xlink:href="quickjs_8c.html#a74547db03bf739a52c83a326b32db997" target="_top" xlink:title="add_property">
<polygon fill="none" stroke="#000000" points="786.5,-862.5646 786.5,-881.5646 859.5,-881.5646 859.5,-862.5646 786.5,-862.5646"/>
<text text-anchor="middle" x="823" y="-869.5646" font-family="Helvetica,sans-Serif" font-size="10.00" fill="#000000">add_property</text>
</a>
</g>
</g>
<!-- Node273870&#45;&gt;Node273871 -->
<g id="edge1" class="edge">
<title>Node273870&#45;&gt;Node273871</title>
<path fill="none" stroke="#191970" d="M54.3724,-643.5891C76.1343,-695.4074 188.4785,-941.0646 362.5,-941.0646 362.5,-941.0646 362.5,-941.0646 529.5,-941.0646 623.8293,-941.0646 648.2882,-932.9371 739,-907.0646 757.998,-901.646 778.4785,-893.1701 794.4603,-885.9165"/>
<polygon fill="#191970" stroke="#191970" points="796.1769,-888.9785 803.7765,-881.5963 793.232,-882.6281 796.1769,-888.9785"/>
</g>
<!-- Node273900 -->
<g id="node9" class="node">
<title>Node273900</title>
<g id="a_node9"><a xlink:href="quickjs_8h.html#a775522f2d084fc8fa0fcb33f390006b4" target="_top" xlink:title="JS_DupValue">
<polygon fill="none" stroke="#000000" points="1089,-976.5646 1089,-995.5646 1166,-995.5646 1166,-976.5646 1089,-976.5646"/>
<text text-anchor="middle" x="1127.5" y="-983.5646" font-family="Helvetica,sans-Serif" font-size="10.00" fill="#000000">JS_DupValue</text>
</a>
</g>
</g>
<!-- Node273870&#45;&gt;Node273900 -->
<g id="edge55" class="edge">
<title>Node273870&#45;&gt;Node273900</title>
<path fill="none" stroke="#191970" d="M52.6555,-643.7713C67.0303,-705.7079 154.8577,-1043.0646 362.5,-1043.0646 362.5,-1043.0646 362.5,-1043.0646 823,-1043.0646 919.1457,-1043.0646 1029.4971,-1015.2695 1087.3306,-998.4983"/>
<polygon fill="#191970" stroke="#191970" points="1088.5597,-1001.7851 1097.1654,-995.6051 1086.5841,-995.0697 1088.5597,-1001.7851"/>
</g>
<!-- Node273929 -->
<g id="node12" class="node">
<title>Node273929</title>
<g id="a_node12"><a xlink:href="quickjs_8c.html#ab50618f1bf78e444caa6da0e3e2785d7" target="_top" xlink:title="JS_DefineProperty">
<polygon fill="none" stroke="#ff0000" points="313,-444.5646 313,-463.5646 412,-463.5646 412,-444.5646 313,-444.5646"/>
<text text-anchor="middle" x="362.5" y="-451.5646" font-family="Helvetica,sans-Serif" font-size="10.00" fill="#000000">JS_DefineProperty</text>
</a>
</g>
</g>
<!-- Node273870&#45;&gt;Node273929 -->
<g id="edge13" class="edge">
<title>Node273870&#45;&gt;Node273929</title>
<path fill="none" stroke="#191970" d="M67.2745,-624.387C118.9231,-594.5897 275.7657,-504.1036 337.3218,-468.5905"/>
<polygon fill="#191970" stroke="#191970" points="339.1084,-471.6005 346.0212,-463.5715 335.6103,-465.5372 339.1084,-471.6005"/>
</g>
<!-- Node273921 -->
<g id="node21" class="node">
<title>Node273921</title>
<g id="a_node21"><a xlink:href="quickjs_8h.html#afaa20c47565bc704c6c85f3d77254e7d" target="_top" xlink:title="JS_FreeValue">
<polygon fill="none" stroke="#ff0000" points="646,-7.5646 646,-26.5646 724,-26.5646 724,-7.5646 646,-7.5646"/>
<text text-anchor="middle" x="685" y="-14.5646" font-family="Helvetica,sans-Serif" font-size="10.00" fill="#000000">JS_FreeValue</text>
</a>
</g>
</g>
<!-- Node273870&#45;&gt;Node273921 -->
<g id="edge56" class="edge">
<title>Node273870&#45;&gt;Node273921</title>
<path fill="none" stroke="#191970" d="M51.3012,-624.3112C55.1719,-580.897 74.3909,-401.6241 137,-271.0646 187.1268,-166.5346 202.9881,-132.895 297,-65.0646 406.4912,13.9343 460.2342,2.1406 595,-6.0646 608.1418,-6.8647 622.3033,-8.3162 635.4155,-9.908"/>
<polygon fill="#191970" stroke="#191970" points="635.3065,-13.422 645.6667,-11.205 636.1851,-6.4774 635.3065,-13.422"/>
</g>
<!-- Node273952 -->
<g id="node22" class="node">
<title>Node273952</title>
<g id="a_node22"><a xlink:href="quickjs_8h.html#ad80a83d73e9b7d872b88fbf2943aebe9" target="_top" xlink:title="JS_IsException">
<polygon fill="none" stroke="#000000" points="642,-178.5646 642,-197.5646 728,-197.5646 728,-178.5646 642,-178.5646"/>
<text text-anchor="middle" x="685" y="-185.5646" font-family="Helvetica,sans-Serif" font-size="10.00" fill="#000000">JS_IsException</text>
</a>
</g>
</g>
<!-- Node273870&#45;&gt;Node273952 -->
<g id="edge57" class="edge">
<title>Node273870&#45;&gt;Node273952</title>
<path fill="none" stroke="#191970" d="M53.1064,-624.1601C61.4615,-593.6877 89.8216,-499.5031 137,-435.0646 250.8862,-279.5135 283.4669,-217.6962 464,-150.0646 518.5219,-129.6394 537.9355,-138.5114 595,-150.0646 617.5818,-154.6364 641.5401,-165.0562 659.0555,-173.8304"/>
<polygon fill="#191970" stroke="#191970" points="657.5826,-177.0089 668.0737,-178.488 660.7948,-170.7894 657.5826,-177.0089"/>
</g>
<!-- Node273995 -->
<g id="node23" class="node">
<title>Node273995</title>
<g id="a_node23"><a xlink:href="quickjs_8h.html#a2050bc428da1c65ac7eb87c3fa3b0392" target="_top" xlink:title="JS_NewInt32">
<polygon fill="none" stroke="#000000" points="785,-463.5646 785,-482.5646 861,-482.5646 861,-463.5646 785,-463.5646"/>
<text text-anchor="middle" x="823" y="-470.5646" font-family="Helvetica,sans-Serif" font-size="10.00" fill="#000000">JS_NewInt32</text>
</a>
</g>
</g>
<!-- Node273870&#45;&gt;Node273995 -->
<g id="edge58" class="edge">
<title>Node273870&#45;&gt;Node273995</title>
<path fill="none" stroke="#191970" d="M101.1815,-638.3776C241.8236,-649.3684 633.5397,-673.0555 739,-606.0646 739,-606.0646 788.4633,-527.7477 811.4771,-491.3092"/>
<polygon fill="#191970" stroke="#191970" points="814.5782,-492.9535 816.9589,-482.6296 808.6597,-489.2155 814.5782,-492.9535"/>
</g>
<!-- Node274073 -->
<g id="node29" class="node">
<title>Node274073</title>
<g id="a_node29"><a xlink:href="quickjs_8c.html#a0a8765bd4012467d9139bc24aabcb3ca" target="_top" xlink:title="JS_DefinePropertyValue">
<polygon fill="none" stroke="#000000" points="137,-444.5646 137,-463.5646 261,-463.5646 261,-444.5646 137,-444.5646"/>
<text text-anchor="middle" x="199" y="-451.5646" font-family="Helvetica,sans-Serif" font-size="10.00" fill="#000000">JS_DefinePropertyValue</text>
</a>
</g>
</g>
<!-- Node273870&#45;&gt;Node274073 -->
<g id="edge52" class="edge">
<title>Node273870&#45;&gt;Node274073</title>
<path fill="none" stroke="#191970" d="M57.9864,-624.3189C72.7991,-605.1067 107.0114,-561.0814 137,-525.0646 152.5807,-506.3518 170.9952,-485.4057 183.6854,-471.1444"/>
<polygon fill="#191970" stroke="#191970" points="186.3829,-473.3783 190.4311,-463.5874 181.1608,-468.7168 186.3829,-473.3783"/>
</g>
<!-- Node274075 -->
<g id="node30" class="node">
<title>Node274075</title>
<g id="a_node30"><a xlink:href="quickjs_8c.html#a73738c650f11459db0d7af3dcdf8316b" target="_top" xlink:title="JS_NewObjectProtoClass">
<polygon fill="none" stroke="#ff0000" points="297,-843.5646 297,-862.5646 428,-862.5646 428,-843.5646 297,-843.5646"/>
<text text-anchor="middle" x="362.5" y="-850.5646" font-family="Helvetica,sans-Serif" font-size="10.00" fill="#000000">JS_NewObjectProtoClass</text>
</a>
</g>
</g>
<!-- Node273870&#45;&gt;Node274075 -->
<g id="edge59" class="edge">
<title>Node273870&#45;&gt;Node274075</title>
<path fill="none" stroke="#191970" d="M64.3088,-643.7573C113.441,-678.2443 280.0493,-795.1905 340.423,-837.5682"/>
<polygon fill="#191970" stroke="#191970" points="338.6549,-840.6033 348.8506,-843.4838 342.6765,-834.8738 338.6549,-840.6033"/>
</g>
<!-- Node273872 -->
<g id="node3" class="node">
<title>Node273872</title>
<g id="a_node3"><a xlink:href="quickjs_8c.html#a3cadcaa2bd1e3f9359f1c006f396cfa0" target="_top" xlink:title="add_shape_property">
<polygon fill="none" stroke="#ff0000" points="917.5,-767.5646 917.5,-786.5646 1021.5,-786.5646 1021.5,-767.5646 917.5,-767.5646"/>
<text text-anchor="middle" x="969.5" y="-774.5646" font-family="Helvetica,sans-Serif" font-size="10.00" fill="#000000">add_shape_property</text>
</a>
</g>
</g>
<!-- Node273871&#45;&gt;Node273872 -->
<g id="edge2" class="edge">
<title>Node273871&#45;&gt;Node273872</title>
<path fill="none" stroke="#191970" d="M847.8942,-862.5258C855.8038,-858.7649 864.243,-853.9249 871,-848.0646 892.2352,-829.6474 884.2901,-812.6292 907,-796.0646 909.6572,-794.1264 912.5143,-792.3836 915.4921,-790.8167"/>
<polygon fill="#191970" stroke="#191970" points="917.0548,-793.951 924.7079,-786.6242 914.1562,-787.5793 917.0548,-793.951"/>
</g>
<!-- Node273877 -->
<g id="node6" class="node">
<title>Node273877</title>
<g id="a_node6"><a xlink:href="quickjs_8c.html#a82dbe63adeac7849406fd48d96f39f7b" target="_top" xlink:title="js_shape_hash_link">
<polygon fill="none" stroke="#ff0000" points="1076.5,-824.5646 1076.5,-843.5646 1178.5,-843.5646 1178.5,-824.5646 1076.5,-824.5646"/>
<text text-anchor="middle" x="1127.5" y="-831.5646" font-family="Helvetica,sans-Serif" font-size="10.00" fill="#000000">js_shape_hash_link</text>
</a>
</g>
</g>
<!-- Node273871&#45;&gt;Node273877 -->
<g id="edge12" class="edge">
<title>Node273871&#45;&gt;Node273877</title>
<path fill="none" stroke="#191970" d="M859.6393,-876.2001C901.6798,-879.9948 972.4875,-883.4699 1032,-872.0646 1056.0274,-867.4598 1081.7099,-856.8882 1100.3833,-848.0616"/>
<polygon fill="#191970" stroke="#191970" points="1102.0012,-851.1667 1109.4635,-843.6457 1098.9398,-844.8717 1102.0012,-851.1667"/>
</g>
<!-- Node273897 -->
<g id="node7" class="node">
<title>Node273897</title>
<g id="a_node7"><a xlink:href="quickjs_8c.html#ac0c5dbb01d6082796c44b1c7f7c170f1" target="_top" xlink:title="find_hashed_shape_prop">
<polygon fill="none" stroke="#ff0000" points="907,-805.5646 907,-824.5646 1032,-824.5646 1032,-805.5646 907,-805.5646"/>
<text text-anchor="middle" x="969.5" y="-812.5646" font-family="Helvetica,sans-Serif" font-size="10.00" fill="#000000">find_hashed_shape_prop</text>
</a>
</g>
</g>
<!-- Node273871&#45;&gt;Node273897 -->
<g id="edge6" class="edge">
<title>Node273871&#45;&gt;Node273897</title>
<path fill="none" stroke="#191970" d="M842.3855,-862.4273C859.2195,-854.2692 884.3798,-842.5783 907,-834.0646 912.9207,-831.8361 919.2286,-829.6768 925.4739,-827.6621"/>
<polygon fill="#191970" stroke="#191970" points="926.674,-830.954 935.1717,-824.6263 924.5827,-824.2737 926.674,-830.954"/>
</g>
<!-- Node273898 -->
<g id="node8" class="node">
<title>Node273898</title>
<g id="a_node8"><a xlink:href="quickjs_8c.html#a8e34657169da77ae6a386311351ed3de" target="_top" xlink:title="js_clone_shape">
<polygon fill="none" stroke="#ff0000" points="927.5,-843.5646 927.5,-862.5646 1011.5,-862.5646 1011.5,-843.5646 927.5,-843.5646"/>
<text text-anchor="middle" x="969.5" y="-850.5646" font-family="Helvetica,sans-Serif" font-size="10.00" fill="#000000">js_clone_shape</text>
</a>
</g>
</g>
<!-- Node273871&#45;&gt;Node273898 -->
<g id="edge7" class="edge">
<title>Node273871&#45;&gt;Node273898</title>
<path fill="none" stroke="#191970" d="M859.5902,-867.3191C877.0472,-865.055 898.247,-862.3056 917.3526,-859.8277"/>
<polygon fill="#191970" stroke="#191970" points="917.9503,-863.2796 927.417,-858.5224 917.0499,-856.3377 917.9503,-863.2796"/>
</g>
<!-- Node273901 -->
<g id="node10" class="node">
<title>Node273901</title>
<g id="a_node10"><a xlink:href="quickjs_8c.html#aed229eb80b3b03a2275471dee93c69d6" target="_top" xlink:title="js_dup_shape">
<polygon fill="none" stroke="#000000" points="931,-729.5646 931,-748.5646 1008,-748.5646 1008,-729.5646 931,-729.5646"/>
<text text-anchor="middle" x="969.5" y="-736.5646" font-family="Helvetica,sans-Serif" font-size="10.00" fill="#000000">js_dup_shape</text>
</a>
</g>
</g>
<!-- Node273871&#45;&gt;Node273901 -->
<g id="edge10" class="edge">
<title>Node273871&#45;&gt;Node273901</title>
<path fill="none" stroke="#191970" d="M850.7112,-862.4178C858.0417,-858.8194 865.4484,-854.098 871,-848.0646 900.1708,-816.3618 875.2645,-787.1998 907,-758.0646 911.1771,-754.2297 916.1067,-751.168 921.3356,-748.7238"/>
<polygon fill="#191970" stroke="#191970" points="922.9328,-751.8575 930.9727,-744.9575 920.3847,-745.3377 922.9328,-751.8575"/>
</g>
<!-- Node273902 -->
<g id="node11" class="node">
<title>Node273902</title>
<g id="a_node11"><a xlink:href="quickjs_8c.html#a3a9f27520d96cf58aa5bd7359e9cddee" target="_top" xlink:title="js_free_shape">
<polygon fill="none" stroke="#ff0000" points="931,-919.5646 931,-938.5646 1008,-938.5646 1008,-919.5646 931,-919.5646"/>
<text text-anchor="middle" x="969.5" y="-926.5646" font-family="Helvetica,sans-Serif" font-size="10.00" fill="#000000">js_free_shape</text>
</a>
</g>
</g>
<!-- Node273871&#45;&gt;Node273902 -->
<g id="edge11" class="edge">
<title>Node273871&#45;&gt;Node273902</title>
<path fill="none" stroke="#191970" d="M847.2414,-881.6449C864.0099,-888.258 886.8447,-897.2358 907,-905.0646 916.0706,-908.5878 925.8927,-912.3733 935.0047,-915.8728"/>
<polygon fill="#191970" stroke="#191970" points="933.9541,-919.2185 944.5443,-919.532 936.461,-912.6828 933.9541,-919.2185"/>
</g>
<!-- Node273873 -->
<g id="node4" class="node">
<title>Node273873</title>
<g id="a_node4"><a xlink:href="quickjs_8c.html#a288254c06a39c9fca740a7abdad2834e" target="_top" xlink:title="__JS_AtomIsTaggedInt">
<polygon fill="none" stroke="#000000" points="1068,-444.5646 1068,-463.5646 1187,-463.5646 1187,-444.5646 1068,-444.5646"/>
<text text-anchor="middle" x="1127.5" y="-451.5646" font-family="Helvetica,sans-Serif" font-size="10.00" fill="#000000">__JS_AtomIsTaggedInt</text>
</a>
</g>
</g>
<!-- Node273872&#45;&gt;Node273873 -->
<g id="edge3" class="edge">
<title>Node273872&#45;&gt;Node273873</title>
<path fill="none" stroke="#191970" d="M1018.2641,-767.5581C1023.3262,-765.0858 1028.0524,-761.9758 1032,-758.0646 1053.085,-737.1739 1105.9356,-537.6562 1122.4725,-473.6929"/>
<polygon fill="#191970" stroke="#191970" points="1125.9399,-474.2624 1125.0437,-463.7055 1119.161,-472.5171 1125.9399,-474.2624"/>
</g>
<!-- Node273874 -->
<g id="node5" class="node">
<title>Node273874</title>
<g id="a_node5"><a xlink:href="quickjs_8c.html#a643df594b75933007bcdbb071b5ea8c5" target="_top" xlink:title="get_shape_prop">
<polygon fill="none" stroke="#000000" points="1084.5,-691.5646 1084.5,-710.5646 1170.5,-710.5646 1170.5,-691.5646 1084.5,-691.5646"/>
<text text-anchor="middle" x="1127.5" y="-698.5646" font-family="Helvetica,sans-Serif" font-size="10.00" fill="#000000">get_shape_prop</text>
</a>
</g>
</g>
<!-- Node273872&#45;&gt;Node273874 -->
<g id="edge4" class="edge">
<title>Node273872&#45;&gt;Node273874</title>
<path fill="none" stroke="#191970" d="M1006.3966,-767.4732C1014.9486,-764.8064 1023.9107,-761.6442 1032,-758.0646 1058.4027,-746.3809 1086.5441,-728.899 1105.385,-716.3786"/>
<polygon fill="#191970" stroke="#191970" points="1107.5045,-719.1708 1113.8387,-710.678 1103.5908,-713.3671 1107.5045,-719.1708"/>
</g>
<!-- Node273872&#45;&gt;Node273877 -->
<g id="edge5" class="edge">
<title>Node273872&#45;&gt;Node273877</title>
<path fill="none" stroke="#191970" d="M1002.7523,-786.6102C1012.2523,-789.4893 1022.581,-792.7654 1032,-796.0646 1053.4131,-803.5648 1077.1139,-812.9887 1095.5477,-820.5752"/>
<polygon fill="#191970" stroke="#191970" points="1094.3544,-823.8693 1104.9324,-824.4658 1097.0351,-817.403 1094.3544,-823.8693"/>
</g>
<!-- Node273898&#45;&gt;Node273874 -->
<g id="edge8" class="edge">
<title>Node273898&#45;&gt;Node273874</title>
<path fill="none" stroke="#191970" d="M1011.6238,-844.405C1018.8134,-841.7975 1025.915,-838.4233 1032,-834.0646 1074.1923,-803.8415 1104.7778,-749.0782 1118.8513,-720.1515"/>
<polygon fill="#191970" stroke="#191970" points="1122.1819,-721.2943 1123.2801,-710.7565 1115.8501,-718.3095 1122.1819,-721.2943"/>
</g>
<!-- Node273898&#45;&gt;Node273900 -->
<g id="edge9" class="edge">
<title>Node273898&#45;&gt;Node273900</title>
<path fill="none" stroke="#191970" d="M980.863,-862.6296C1007.6072,-885.1421 1074.7778,-941.6845 1108.1129,-969.745"/>
<polygon fill="#191970" stroke="#191970" points="1105.9093,-972.4651 1115.8137,-976.2274 1110.4173,-967.1098 1105.9093,-972.4651"/>
</g>
<!-- Node273929&#45;&gt;Node273873 -->
<g id="edge15" class="edge">
<title>Node273929&#45;&gt;Node273873</title>
<path fill="none" stroke="#191970" d="M362.9544,-444.4913C365.3941,-403.5581 380.199,-241.1941 464,-150.0646 536.368,-71.3678 578.0873,-55.0646 685,-55.0646 685,-55.0646 685,-55.0646 823,-55.0646 1016.0798,-55.0646 1103.042,-353.9789 1122.9372,-434.3632"/>
<polygon fill="#191970" stroke="#191970" points="1119.5619,-435.2973 1125.3034,-444.2016 1126.3679,-433.6604 1119.5619,-435.2973"/>
</g>
<!-- Node273929&#45;&gt;Node273874 -->
<g id="edge24" class="edge">
<title>Node273929&#45;&gt;Node273874</title>
<path fill="none" stroke="#191970" d="M367.566,-444.528C380.2632,-421.727 415.9068,-364.1654 464,-340.0646 552.1369,-295.8967 586.4154,-321.0646 685,-321.0646 685,-321.0646 685,-321.0646 823,-321.0646 1009.536,-321.0646 1100.7269,-603.361 1122.3552,-681.3268"/>
<polygon fill="#191970" stroke="#191970" points="1119.0593,-682.5471 1125.0446,-691.2894 1125.8174,-680.7228 1119.0593,-682.5471"/>
</g>
<!-- Node273929&#45;&gt;Node273900 -->
<g id="edge45" class="edge">
<title>Node273929&#45;&gt;Node273900</title>
<path fill="none" stroke="#191970" d="M363.3079,-463.6282C370.0498,-536.7953 423.4164,-1005.0646 685,-1005.0646 685,-1005.0646 685,-1005.0646 823,-1005.0646 913.3777,-1005.0646 1018.5519,-996.6238 1078.6482,-990.9942"/>
<polygon fill="#191970" stroke="#191970" points="1078.9898,-994.4776 1088.614,-990.0476 1078.3278,-987.509 1078.9898,-994.4776"/>
</g>
<!-- Node273930 -->
<g id="node13" class="node">
<title>Node273930</title>
<g id="a_node13"><a xlink:href="quickjs_8c.html#a014abd680db53ab89cb133345742a59c" target="_top" xlink:title="__attribute__">
<polygon fill="none" stroke="#ff0000" points="648.5,-577.5646 648.5,-596.5646 721.5,-596.5646 721.5,-577.5646 648.5,-577.5646"/>
<text text-anchor="middle" x="685" y="-584.5646" font-family="Helvetica,sans-Serif" font-size="10.00" fill="#000000">__attribute__</text>
</a>
</g>
</g>
<!-- Node273929&#45;&gt;Node273930 -->
<g id="edge14" class="edge">
<title>Node273929&#45;&gt;Node273930</title>
<path fill="none" stroke="#191970" d="M365.5677,-463.6664C374.9741,-491.2709 406.3296,-570.8024 464,-601.0646 523.5002,-632.2869 604.7696,-614.3499 650.3477,-599.8259"/>
<polygon fill="#191970" stroke="#191970" points="651.6593,-603.0785 660.0517,-596.6118 649.4583,-596.4335 651.6593,-603.0785"/>
</g>
<!-- Node273957 -->
<g id="node14" class="node">
<title>Node273957</title>
<g id="a_node14"><a xlink:href="quickjs_8c.html#a89f38938cee8077ce1fbba07946ed185" target="_top" xlink:title="__JS_AtomToUInt32">
<polygon fill="none" stroke="#000000" points="631,-425.5646 631,-444.5646 739,-444.5646 739,-425.5646 631,-425.5646"/>
<text text-anchor="middle" x="685" y="-432.5646" font-family="Helvetica,sans-Serif" font-size="10.00" fill="#000000">__JS_AtomToUInt32</text>
</a>
</g>
</g>
<!-- Node273929&#45;&gt;Node273957 -->
<g id="edge16" class="edge">
<title>Node273929&#45;&gt;Node273957</title>
<path fill="none" stroke="#191970" d="M412.1839,-451.1374C468.1371,-447.841 559.2433,-442.4735 620.6116,-438.858"/>
<polygon fill="#191970" stroke="#191970" points="621.1744,-442.331 630.9512,-438.2488 620.7626,-435.3431 621.1744,-442.331"/>
</g>
<!-- Node274297 -->
<g id="node15" class="node">
<title>Node274297</title>
<g id="a_node15"><a xlink:href="quickjs_8c.html#a68c7ae36cec3bf8bbf6cc0868a71cc4b" target="_top" xlink:title="check_define_prop_flags">
<polygon fill="none" stroke="#000000" points="467,-349.5646 467,-368.5646 592,-368.5646 592,-349.5646 467,-349.5646"/>
<text text-anchor="middle" x="529.5" y="-356.5646" font-family="Helvetica,sans-Serif" font-size="10.00" fill="#000000">check_define_prop_flags</text>
</a>
</g>
</g>
<!-- Node273929&#45;&gt;Node274297 -->
<g id="edge17" class="edge">
<title>Node273929&#45;&gt;Node274297</title>
<path fill="none" stroke="#191970" d="M374.0415,-444.4772C392.234,-429.7259 429.108,-401.2655 464,-383.0646 471.7949,-378.9984 480.436,-375.3085 488.8166,-372.1083"/>
<polygon fill="#191970" stroke="#191970" points="490.276,-375.3015 498.4686,-368.5834 487.8747,-368.7262 490.276,-375.3015"/>
</g>
<!-- Node274161 -->
<g id="node16" class="node">
<title>Node274161</title>
<g id="a_node16"><a xlink:href="quickjs_8c.html#ac93c982cb636a5430b191d104083af3e" target="_top" xlink:title="convert_fast_array\l_to_array">
<polygon fill="none" stroke="#ff0000" points="636,-806.0646 636,-836.0646 734,-836.0646 734,-806.0646 636,-806.0646"/>
<text text-anchor="start" x="644" y="-824.0646" font-family="Helvetica,sans-Serif" font-size="10.00" fill="#000000">convert_fast_array</text>
<text text-anchor="middle" x="685" y="-813.0646" font-family="Helvetica,sans-Serif" font-size="10.00" fill="#000000">_to_array</text>
</a>
</g>
</g>
<!-- Node273929&#45;&gt;Node274161 -->
<g id="edge18" class="edge">
<title>Node273929&#45;&gt;Node274161</title>
<path fill="none" stroke="#191970" d="M363.544,-463.6602C368.1183,-501.3084 389.6128,-640.7459 464,-720.0646 507.6009,-766.5559 576.7173,-793.3508 626.0431,-807.5043"/>
<polygon fill="#191970" stroke="#191970" points="625.3693,-810.9496 635.9412,-810.2519 627.2417,-804.2046 625.3693,-810.9496"/>
</g>
<!-- Node273947 -->
<g id="node17" class="node">
<title>Node273947</title>
<g id="a_node17"><a xlink:href="quickjs_8c.html#a06b76f5124fd985e35f4c652fd018d6d" target="_top" xlink:title="find_own_property">
<polygon fill="none" stroke="#ff0000" points="775,-558.5646 775,-577.5646 871,-577.5646 871,-558.5646 775,-558.5646"/>
<text text-anchor="middle" x="823" y="-565.5646" font-family="Helvetica,sans-Serif" font-size="10.00" fill="#000000">find_own_property</text>
</a>
</g>
</g>
<!-- Node273929&#45;&gt;Node273947 -->
<g id="edge20" class="edge">
<title>Node273929&#45;&gt;Node273947</title>
<path fill="none" stroke="#191970" d="M367.4388,-463.869C379.8538,-487.265 414.9178,-546.0475 464,-568.0646 464,-568.0646 663.2136,-568.0646 764.8426,-568.0646"/>
<polygon fill="#191970" stroke="#191970" points="764.9562,-571.5647 774.9562,-568.0646 764.9561,-564.5647 764.9562,-571.5647"/>
</g>
<!-- Node273918 -->
<g id="node18" class="node">
<title>Node273918</title>
<g id="a_node18"><a xlink:href="quickjs_8c.html#a9e7b4bccf927d811b0f99b40b08c0472" target="_top" xlink:title="free_var_ref">
<polygon fill="none" stroke="#ff0000" points="495.5,-273.5646 495.5,-292.5646 563.5,-292.5646 563.5,-273.5646 495.5,-273.5646"/>
<text text-anchor="middle" x="529.5" y="-280.5646" font-family="Helvetica,sans-Serif" font-size="10.00" fill="#000000">free_var_ref</text>
</a>
</g>
</g>
<!-- Node273929&#45;&gt;Node273918 -->
<g id="edge22" class="edge">
<title>Node273929&#45;&gt;Node273918</title>
<path fill="none" stroke="#191970" d="M366.6532,-444.2893C378.205,-418.2222 413.2393,-346.3672 464,-307.0646 470.5356,-302.0042 478.2419,-297.9362 486.0302,-294.6911"/>
<polygon fill="#191970" stroke="#191970" points="487.3703,-297.9265 495.4976,-291.1296 484.9056,-291.3748 487.3703,-297.9265"/>
</g>
<!-- Node274162 -->
<g id="node19" class="node">
<title>Node274162</title>
<g id="a_node19"><a xlink:href="quickjs_8c.html#a6df3ef223d7e76a0db2c14d972dbfa77" target="_top" xlink:title="get_prop_flags">
<polygon fill="none" stroke="#000000" points="645,-463.5646 645,-482.5646 725,-482.5646 725,-463.5646 645,-463.5646"/>
<text text-anchor="middle" x="685" y="-470.5646" font-family="Helvetica,sans-Serif" font-size="10.00" fill="#000000">get_prop_flags</text>
</a>
</g>
</g>
<!-- Node273929&#45;&gt;Node274162 -->
<g id="edge23" class="edge">
<title>Node273929&#45;&gt;Node274162</title>
<path fill="none" stroke="#191970" d="M412.1839,-456.9917C472.6468,-460.5538 574.1574,-466.5343 634.8364,-470.1092"/>
<polygon fill="#191970" stroke="#191970" points="634.7531,-473.6103 644.9417,-470.7045 635.1649,-466.6224 634.7531,-473.6103"/>
</g>
<!-- Node273993 -->
<g id="node20" class="node">
<title>Node273993</title>
<g id="a_node20"><a xlink:href="quickjs_8c.html#ab4e100a9cde5f7ec87c92f5e766dbbab" target="_top" xlink:title="JS_AtomIsNumericIndex1">
<polygon fill="none" stroke="#ff0000" points="464,-235.5646 464,-254.5646 595,-254.5646 595,-235.5646 464,-235.5646"/>
<text text-anchor="middle" x="529.5" y="-242.5646" font-family="Helvetica,sans-Serif" font-size="10.00" fill="#000000">JS_AtomIsNumericIndex1</text>
</a>
</g>
</g>
<!-- Node273929&#45;&gt;Node273993 -->
<g id="edge25" class="edge">
<title>Node273929&#45;&gt;Node273993</title>
<path fill="none" stroke="#191970" d="M364.7796,-444.47C372.6739,-413.3726 401.8323,-314.465 464,-264.0646 466.2419,-262.247 468.6506,-260.6034 471.1742,-259.1169"/>
<polygon fill="#191970" stroke="#191970" points="472.741,-262.2467 480.1208,-254.6447 469.6111,-255.9854 472.741,-262.2467"/>
</g>
<!-- Node273929&#45;&gt;Node273921 -->
<g id="edge46" class="edge">
<title>Node273929&#45;&gt;Node273921</title>
<path fill="none" stroke="#191970" d="M363.3075,-444.5026C367.1503,-404.2796 386.7474,-246.4514 464,-150.0646 512.995,-88.9342 598.236,-49.2418 647.3013,-30.2355"/>
<polygon fill="#191970" stroke="#191970" points="648.7895,-33.4146 656.9033,-26.6016 646.3118,-26.8678 648.7895,-33.4146"/>
</g>
<!-- Node273929&#45;&gt;Node273952 -->
<g id="edge47" class="edge">
<title>Node273929&#45;&gt;Node273952</title>
<path fill="none" stroke="#191970" d="M363.6172,-444.3185C368.263,-408.6184 389.4454,-284.0608 464,-226.0646 489.4566,-206.2618 574.5359,-196.1746 631.3968,-191.522"/>
<polygon fill="#191970" stroke="#191970" points="631.9697,-194.9878 641.6649,-190.7153 631.4214,-188.0093 631.9697,-194.9878"/>
</g>
<!-- Node273929&#45;&gt;Node273995 -->
<g id="edge50" class="edge">
<title>Node273929&#45;&gt;Node273995</title>
<path fill="none" stroke="#191970" d="M388.7563,-444.5027C451.067,-423.2808 612.1456,-377.0879 739,-416.0646 764.8227,-423.9987 789.8371,-442.8666 805.7535,-456.7304"/>
<polygon fill="#191970" stroke="#191970" points="803.4305,-459.3485 813.2035,-463.4398 808.1149,-454.147 803.4305,-459.3485"/>
</g>
<!-- Node274014 -->
<g id="node24" class="node">
<title>Node274014</title>
<g id="a_node24"><a xlink:href="quickjs_8c.html#a8aac7988cf0c6f3c2b629a6662fd7ec8" target="_top" xlink:title="JS_AutoInitProperty">
<polygon fill="none" stroke="#ff0000" points="477.5,-159.5646 477.5,-178.5646 581.5,-178.5646 581.5,-159.5646 477.5,-159.5646"/>
<text text-anchor="middle" x="529.5" y="-166.5646" font-family="Helvetica,sans-Serif" font-size="10.00" fill="#000000">JS_AutoInitProperty</text>
</a>
</g>
</g>
<!-- Node273929&#45;&gt;Node274014 -->
<g id="edge31" class="edge">
<title>Node273929&#45;&gt;Node274014</title>
<path fill="none" stroke="#191970" d="M363.4262,-444.4747C367.5599,-406.881 387.6274,-267.9494 464,-193.0646 467.9995,-189.143 472.6917,-185.8551 477.6958,-183.0998"/>
<polygon fill="#191970" stroke="#191970" points="479.4311,-186.1502 486.9579,-178.6938 476.424,-179.829 479.4311,-186.1502"/>
</g>
<!-- Node274160 -->
<g id="node25" class="node">
<title>Node274160</title>
<g id="a_node25"><a xlink:href="quickjs_8c.html#ad5565bb5cfd5321f181573257f3b0c91" target="_top" xlink:title="JS_CreateProperty">
<polygon fill="none" stroke="#ff0000" points="479.5,-691.5646 479.5,-710.5646 579.5,-710.5646 579.5,-691.5646 479.5,-691.5646"/>
<text text-anchor="middle" x="529.5" y="-698.5646" font-family="Helvetica,sans-Serif" font-size="10.00" fill="#000000">JS_CreateProperty</text>
</a>
</g>
</g>
<!-- Node273929&#45;&gt;Node274160 -->
<g id="edge33" class="edge">
<title>Node273929&#45;&gt;Node274160</title>
<path fill="none" stroke="#191970" d="M366.6007,-463.9384C378.8067,-492.689 416.9942,-578.1625 464,-639.0646 477.3101,-656.3096 495.4984,-673.1222 509.3317,-684.8791"/>
<polygon fill="#191970" stroke="#191970" points="507.3727,-687.8021 517.2995,-691.5048 511.8484,-682.4198 507.3727,-687.8021"/>
</g>
<!-- Node274105 -->
<g id="node26" class="node">
<title>Node274105</title>
<g id="a_node26"><a xlink:href="quickjs_8c.html#a1ca9cdb1fa2ffc3e6506e92b200e490f" target="_top" xlink:title="JS_IsFunction">
<polygon fill="none" stroke="#000000" points="645,-855.5646 645,-874.5646 725,-874.5646 725,-855.5646 645,-855.5646"/>
<text text-anchor="middle" x="685" y="-862.5646" font-family="Helvetica,sans-Serif" font-size="10.00" fill="#000000">JS_IsFunction</text>
</a>
</g>
</g>
<!-- Node273929&#45;&gt;Node274105 -->
<g id="edge48" class="edge">
<title>Node273929&#45;&gt;Node274105</title>
<path fill="none" stroke="#191970" d="M362.8003,-463.8004C364.6152,-506.1827 377.2463,-676.7803 464,-773.0646 508.7653,-822.7477 584.5716,-846.3214 634.7092,-856.9791"/>
<polygon fill="#191970" stroke="#191970" points="634.1915,-860.4452 644.6876,-859.0022 635.5825,-853.5848 634.1915,-860.4452"/>
</g>
<!-- Node274019 -->
<g id="node27" class="node">
<title>Node274019</title>
<g id="a_node27"><a xlink:href="quickjs_8h.html#a88259aa0da61ac754402c64ccecee116" target="_top" xlink:title="JS_NewUint32">
<polygon fill="none" stroke="#ff0000" points="643.5,-501.5646 643.5,-520.5646 726.5,-520.5646 726.5,-501.5646 643.5,-501.5646"/>
<text text-anchor="middle" x="685" y="-508.5646" font-family="Helvetica,sans-Serif" font-size="10.00" fill="#000000">JS_NewUint32</text>
</a>
</g>
</g>
<!-- Node273929&#45;&gt;Node274019 -->
<g id="edge51" class="edge">
<title>Node273929&#45;&gt;Node274019</title>
<path fill="none" stroke="#191970" d="M399.4596,-463.5921C418.6331,-468.334 442.4851,-473.9222 464,-478.0646 521.6057,-489.1557 588.2697,-498.6584 633.1898,-504.5792"/>
<polygon fill="#191970" stroke="#191970" points="632.9074,-508.072 643.2765,-505.8967 633.8141,-501.131 632.9074,-508.072"/>
</g>
<!-- Node274013 -->
<g id="node28" class="node">
<title>Node274013</title>
<g id="a_node28"><a xlink:href="quickjs_8h.html#a4e407128a9605afb77523e49e9a627fd" target="_top" xlink:title="JS_IsUndefined">
<polygon fill="none" stroke="#000000" points="486.5,-539.5646 486.5,-558.5646 572.5,-558.5646 572.5,-539.5646 486.5,-539.5646"/>
<text text-anchor="middle" x="529.5" y="-546.5646" font-family="Helvetica,sans-Serif" font-size="10.00" fill="#000000">JS_IsUndefined</text>
</a>
</g>
</g>
<!-- Node273929&#45;&gt;Node274013 -->
<g id="edge49" class="edge">
<title>Node273929&#45;&gt;Node274013</title>
<path fill="none" stroke="#191970" d="M374.0415,-463.6519C392.234,-478.4032 429.108,-506.8636 464,-525.0646 471.7949,-529.1307 480.436,-532.8206 488.8166,-536.0208"/>
<polygon fill="#191970" stroke="#191970" points="487.8747,-539.4029 498.4686,-539.5457 490.276,-532.8276 487.8747,-539.4029"/>
</g>
<!-- Node274161&#45;&gt;Node273871 -->
<g id="edge19" class="edge">
<title>Node274161&#45;&gt;Node273871</title>
<path fill="none" stroke="#191970" d="M725.6582,-836.0904C745.2922,-843.3464 768.6319,-851.972 787.5348,-858.9579"/>
<polygon fill="#191970" stroke="#191970" points="786.3791,-862.262 796.9723,-862.4456 788.8057,-855.6961 786.3791,-862.262"/>
</g>
<!-- Node273947&#45;&gt;Node273874 -->
<g id="edge21" class="edge">
<title>Node273947&#45;&gt;Node273874</title>
<path fill="none" stroke="#191970" d="M844.8989,-577.6296C898.099,-600.8664 1034.3032,-660.3579 1096.1302,-687.3628"/>
<polygon fill="#191970" stroke="#191970" points="1094.8254,-690.6122 1105.3904,-691.4075 1097.6274,-684.1974 1094.8254,-690.6122"/>
</g>
<!-- Node273993&#45;&gt;Node273873 -->
<g id="edge26" class="edge">
<title>Node273993&#45;&gt;Node273873</title>
<path fill="none" stroke="#191970" d="M595.0872,-236.5527C696.8903,-226.7654 895.415,-221.6776 1032,-307.0646 1080.4565,-337.3574 1109.208,-402.2984 1121.0914,-434.7616"/>
<polygon fill="#191970" stroke="#191970" points="1117.8688,-436.1488 1124.4788,-444.4288 1124.4749,-433.8339 1117.8688,-436.1488"/>
</g>
<!-- Node273993&#45;&gt;Node273957 -->
<g id="edge27" class="edge">
<title>Node273993&#45;&gt;Node273957</title>
<path fill="none" stroke="#191970" d="M578.902,-254.6166C584.6942,-257.0776 590.2293,-260.1724 595,-264.0646 644.7069,-304.6173 670.3707,-379.9948 680.1762,-415.5467"/>
<polygon fill="#191970" stroke="#191970" points="676.7914,-416.4376 682.7193,-425.2189 683.5613,-414.6576 676.7914,-416.4376"/>
</g>
<!-- Node273993&#45;&gt;Node273921 -->
<g id="edge28" class="edge">
<title>Node273993&#45;&gt;Node273921</title>
<path fill="none" stroke="#191970" d="M543.3775,-235.3979C557.6397,-224.952 579.8432,-207.2124 595,-188.0646 634.268,-138.4566 664.5228,-69.1379 677.7335,-36.0715"/>
<polygon fill="#191970" stroke="#191970" points="681.0237,-37.2681 681.4136,-26.6804 674.5062,-34.714 681.0237,-37.2681"/>
</g>
<!-- Node273993&#45;&gt;Node273952 -->
<g id="edge29" class="edge">
<title>Node273993&#45;&gt;Node273952</title>
<path fill="none" stroke="#191970" d="M555.5272,-235.524C581.2042,-226.1119 620.6552,-211.6507 649.262,-201.1647"/>
<polygon fill="#191970" stroke="#191970" points="650.7034,-204.3641 658.8879,-197.6362 648.2942,-197.7917 650.7034,-204.3641"/>
</g>
<!-- Node273993&#45;&gt;Node273995 -->
<g id="edge30" class="edge">
<title>Node273993&#45;&gt;Node273995</title>
<path fill="none" stroke="#191970" d="M572.0755,-254.6649C579.925,-257.1954 587.8827,-260.3004 595,-264.0646 690.5215,-314.5831 776.7527,-414.8222 809.2757,-455.3981"/>
<polygon fill="#191970" stroke="#191970" points="806.5985,-457.6552 815.5498,-463.3231 812.0868,-453.3102 806.5985,-457.6552"/>
</g>
<!-- Node274014&#45;&gt;Node273952 -->
<g id="edge32" class="edge">
<title>Node274014&#45;&gt;Node273952</title>
<path fill="none" stroke="#191970" d="M581.7118,-175.4441C597.7796,-177.4074 615.4843,-179.5707 631.6287,-181.5433"/>
<polygon fill="#191970" stroke="#191970" points="631.629,-185.0693 641.9797,-182.8081 632.4781,-178.121 631.629,-185.0693"/>
</g>
<!-- Node274160&#45;&gt;Node273871 -->
<g id="edge37" class="edge">
<title>Node274160&#45;&gt;Node273871</title>
<path fill="none" stroke="#191970" d="M579.8275,-707.0185C624.7943,-714.3077 690.8213,-730.0349 739,-763.0646 773.4643,-786.6921 800.0452,-828.9133 813.4275,-853.2925"/>
<polygon fill="#191970" stroke="#191970" points="810.409,-855.0708 818.1934,-862.2579 816.5899,-851.785 810.409,-855.0708"/>
</g>
<!-- Node274160&#45;&gt;Node273873 -->
<g id="edge35" class="edge">
<title>Node274160&#45;&gt;Node273873</title>
<path fill="none" stroke="#191970" d="M565.3871,-691.4748C607.351,-680.0243 678.7456,-659.8043 739,-639.0646 798.6217,-618.5426 813.6019,-613.1674 871,-587.0646 957.1115,-547.9038 1055.5483,-494.2641 1101.4208,-468.7292"/>
<polygon fill="#191970" stroke="#191970" points="1103.3633,-471.6532 1110.3883,-463.7222 1099.9508,-465.5414 1103.3633,-471.6532"/>
</g>
<!-- Node274160&#45;&gt;Node273874 -->
<g id="edge40" class="edge">
<title>Node274160&#45;&gt;Node273874</title>
<path fill="none" stroke="#191970" d="M579.7129,-701.0646C691.357,-701.0646 959.3379,-701.0646 1073.9899,-701.0646"/>
<polygon fill="#191970" stroke="#191970" points="1074.27,-704.5646 1084.2699,-701.0646 1074.2699,-697.5646 1074.27,-704.5646"/>
</g>
<!-- Node274160&#45;&gt;Node273900 -->
<g id="edge41" class="edge">
<title>Node274160&#45;&gt;Node273900</title>
<path fill="none" stroke="#191970" d="M579.7017,-709.236C585.0464,-711.0698 590.2561,-713.3152 595,-716.0646 615.4092,-727.8928 611.5063,-741.7815 631,-755.0646 673.5605,-784.0653 702.6765,-760.5537 739,-797.0646 770.5522,-828.7795 744.0357,-858.7754 775,-891.0646 819.2299,-937.1869 845.75,-929.8438 907,-948.0646 964.6857,-965.225 1033.3108,-975.5326 1078.5057,-980.9968"/>
<polygon fill="#191970" stroke="#191970" points="1078.284,-984.4947 1088.6243,-982.1864 1079.1014,-977.5426 1078.284,-984.4947"/>
</g>
<!-- Node274160&#45;&gt;Node273930 -->
<g id="edge34" class="edge">
<title>Node274160&#45;&gt;Node273930</title>
<path fill="none" stroke="#191970" d="M542.4904,-691.5411C569.1788,-671.9753 630.4237,-627.0755 663.2608,-603.0019"/>
<polygon fill="#191970" stroke="#191970" points="665.7215,-605.5379 671.717,-596.8026 661.5827,-599.8924 665.7215,-605.5379"/>
</g>
<!-- Node274160&#45;&gt;Node273957 -->
<g id="edge36" class="edge">
<title>Node274160&#45;&gt;Node273957</title>
<path fill="none" stroke="#191970" d="M534.9577,-691.2894C546.9235,-669.5985 575.9185,-615.5972 595,-568.0646 614.7943,-518.7564 594.0437,-492.2397 631,-454.0646 632.3998,-452.6186 633.916,-451.2825 635.5215,-450.0479"/>
<polygon fill="#191970" stroke="#191970" points="637.5156,-452.9297 644.1668,-444.6827 633.8244,-446.9819 637.5156,-452.9297"/>
</g>
<!-- Node274160&#45;&gt;Node274161 -->
<g id="edge38" class="edge">
<title>Node274160&#45;&gt;Node274161</title>
<path fill="none" stroke="#191970" d="M538.9793,-710.769C556.261,-728.153 594.4841,-765.2013 631,-791.0646 635.8217,-794.4796 641.0691,-797.8143 646.3356,-800.9449"/>
<polygon fill="#191970" stroke="#191970" points="644.7294,-804.0585 655.145,-805.9991 648.2129,-797.9868 644.7294,-804.0585"/>
</g>
<!-- Node274160&#45;&gt;Node274162 -->
<g id="edge39" class="edge">
<title>Node274160&#45;&gt;Node274162</title>
<path fill="none" stroke="#191970" d="M534.3173,-691.4103C545.2261,-669.5205 572.6095,-614.4171 595,-568.0646 611.2569,-534.4097 603.2329,-517.083 631,-492.0646 632.7397,-490.497 634.6167,-489.0571 636.5908,-487.7346"/>
<polygon fill="#191970" stroke="#191970" points="638.6983,-490.568 645.7448,-482.6561 635.3024,-484.4469 638.6983,-490.568"/>
</g>
<!-- Node274160&#45;&gt;Node274105 -->
<g id="edge42" class="edge">
<title>Node274160&#45;&gt;Node274105</title>
<path fill="none" stroke="#191970" d="M533.6634,-710.7413C545.2406,-736.5395 580.3321,-807.6108 631,-846.0646 633.4542,-847.9271 636.1058,-849.6172 638.8711,-851.1492"/>
<polygon fill="#191970" stroke="#191970" points="637.4573,-854.3529 647.9874,-855.5222 640.4848,-848.0414 637.4573,-854.3529"/>
</g>
<!-- Node274160&#45;&gt;Node274019 -->
<g id="edge43" class="edge">
<title>Node274160&#45;&gt;Node274019</title>
<path fill="none" stroke="#191970" d="M536.3022,-691.442C552.1691,-669.1592 593.1605,-612.5249 631,-568.0646 642.8016,-554.198 656.9895,-539.2833 667.8604,-528.1895"/>
<polygon fill="#191970" stroke="#191970" points="670.5678,-530.4292 675.1082,-520.8565 665.5892,-525.5084 670.5678,-530.4292"/>
</g>
<!-- Node274019&#45;&gt;Node273995 -->
<g id="edge44" class="edge">
<title>Node274019&#45;&gt;Node273995</title>
<path fill="none" stroke="#191970" d="M719.8232,-501.4755C737.6377,-496.5701 759.5184,-490.545 778.5389,-485.3075"/>
<polygon fill="#191970" stroke="#191970" points="779.476,-488.6798 788.1879,-482.6505 777.6175,-481.931 779.476,-488.6798"/>
</g>
<!-- Node274073&#45;&gt;Node273929 -->
<g id="edge53" class="edge">
<title>Node274073&#45;&gt;Node273929</title>
<path fill="none" stroke="#191970" d="M261.2788,-454.0646C274.8704,-454.0646 289.2244,-454.0646 302.7163,-454.0646"/>
<polygon fill="#191970" stroke="#191970" points="302.8386,-457.5647 312.8386,-454.0646 302.8386,-450.5647 302.8386,-457.5647"/>
</g>
<!-- Node274073&#45;&gt;Node273921 -->
<g id="edge54" class="edge">
<title>Node274073&#45;&gt;Node273921</title>
<path fill="none" stroke="#191970" d="M201.7868,-444.3378C217.3141,-392.1111 298.4772,-143.5167 464,-41.0646 515.9738,-8.8948 588.2262,-7.3438 635.7729,-10.8389"/>
<polygon fill="#191970" stroke="#191970" points="635.5653,-14.3337 645.8223,-11.6797 636.149,-7.358 635.5653,-14.3337"/>
</g>
<!-- Node274075&#45;&gt;Node273901 -->
<g id="edge60" class="edge">
<title>Node274075&#45;&gt;Node273901</title>
<path fill="none" stroke="#191970" d="M388.6439,-862.6164C451.3809,-883.9864 614.4911,-930.2851 739,-884.0646 758.7947,-876.7163 758.4154,-866.1328 775,-853.0646 831.7732,-808.3286 842.2158,-790.1193 907,-758.0646 911.5837,-755.7966 916.4918,-753.7381 921.4678,-751.8856"/>
<polygon fill="#191970" stroke="#191970" points="922.743,-755.1482 931.0533,-748.5763 920.4586,-748.5314 922.743,-755.1482"/>
</g>
</g>
</svg>
