<?xml version="1.0" encoding="UTF-8" standalone="no"?>
<!DOCTYPE svg PUBLIC "-//W3C//DTD SVG 1.1//EN"
 "http://www.w3.org/Graphics/SVG/1.1/DTD/svg11.dtd">
<!-- Generated by graphviz version 2.40.1 (20161225.0304)
 -->
<!-- Title: JS_AutoInitProperty Pages: 1 -->
<svg width="821pt" height="823pt"
 viewBox="0.00 0.00 821.00 823.42" xmlns="http://www.w3.org/2000/svg" xmlns:xlink="http://www.w3.org/1999/xlink">
<g id="graph0" class="graph" transform="scale(1 1) rotate(0) translate(4 819.4193)">
<title>JS_AutoInitProperty</title>
<!-- Node181570 -->
<g id="node1" class="node">
<title>Node181570</title>
<polygon fill="#bfbfbf" stroke="#000000" points="0,-531.1089 0,-550.1089 104,-550.1089 104,-531.1089 0,-531.1089"/>
<text text-anchor="middle" x="52" y="-538.1089" font-family="Helvetica,sans-Serif" font-size="10.00" fill="#000000">JS_AutoInitProperty</text>
</g>
<!-- Node181571 -->
<g id="node2" class="node">
<title>Node181571</title>
<g id="a_node2"><a xlink:href="quickjs_8c.html#ab50618f1bf78e444caa6da0e3e2785d7" target="_top" xlink:title="JS_DefineProperty">
<polygon fill="none" stroke="#000000" points="160,-512.1089 160,-531.1089 259,-531.1089 259,-512.1089 160,-512.1089"/>
<text text-anchor="middle" x="209.5" y="-519.1089" font-family="Helvetica,sans-Serif" font-size="10.00" fill="#000000">JS_DefineProperty</text>
</a>
</g>
</g>
<!-- Node181570&#45;&gt;Node181571 -->
<g id="edge1" class="edge">
<title>Node181570&#45;&gt;Node181571</title>
<path fill="none" stroke="#191970" d="M114.3326,-533.0894C129.4841,-531.2616 145.4842,-529.3314 159.9522,-527.5861"/>
<polygon fill="#191970" stroke="#191970" points="113.5167,-529.6624 104.0079,-534.3349 114.3551,-536.612 113.5167,-529.6624"/>
</g>
<!-- Node181695 -->
<g id="node7" class="node">
<title>Node181695</title>
<g id="a_node7"><a xlink:href="quickjs_8c.html#ad7f03358a8088ca920ab308225c6b2e6" target="_top" xlink:title="JS_SetPropertyInternal">
<polygon fill="none" stroke="#ff0000" points="323.5,-764.1089 323.5,-783.1089 441.5,-783.1089 441.5,-764.1089 323.5,-764.1089"/>
<text text-anchor="middle" x="382.5" y="-771.1089" font-family="Helvetica,sans-Serif" font-size="10.00" fill="#000000">JS_SetPropertyInternal</text>
</a>
</g>
</g>
<!-- Node181570&#45;&gt;Node181695 -->
<g id="edge53" class="edge">
<title>Node181570&#45;&gt;Node181695</title>
<path fill="none" stroke="#191970" d="M68.1043,-557.6187C106.8606,-597.5961 209.9265,-698.3178 315,-753.6089 323.004,-757.8207 332.0208,-761.2687 340.7961,-764.0425"/>
<polygon fill="#191970" stroke="#191970" points="70.4823,-555.042 61.0302,-550.2558 65.4345,-559.8918 70.4823,-555.042"/>
</g>
<!-- Node181749 -->
<g id="node29" class="node">
<title>Node181749</title>
<g id="a_node29"><a xlink:href="quickjs_8c.html#ad13892c0a0f11781b566808876658099" target="_top" xlink:title="JS_GetOwnPropertyInternal">
<polygon fill="none" stroke="#ff0000" points="140,-173.1089 140,-192.1089 279,-192.1089 279,-173.1089 140,-173.1089"/>
<text text-anchor="middle" x="209.5" y="-180.1089" font-family="Helvetica,sans-Serif" font-size="10.00" fill="#000000">JS_GetOwnPropertyInternal</text>
</a>
</g>
</g>
<!-- Node181570&#45;&gt;Node181749 -->
<g id="edge44" class="edge">
<title>Node181570&#45;&gt;Node181749</title>
<path fill="none" stroke="#191970" d="M60.4008,-521.5138C89.2789,-455.8733 183.8694,-240.8676 205.2004,-192.3819"/>
<polygon fill="#191970" stroke="#191970" points="57.0361,-520.4705 56.2127,-531.0333 63.4434,-523.2894 57.0361,-520.4705"/>
</g>
<!-- Node181738 -->
<g id="node30" class="node">
<title>Node181738</title>
<g id="a_node30"><a xlink:href="quickjs_8c.html#a5762c57ae0c9937e986040c01222833a" target="_top" xlink:title="JS_GetPropertyInternal">
<polygon fill="none" stroke="#ff0000" points="150,-748.1089 150,-767.1089 269,-767.1089 269,-748.1089 150,-748.1089"/>
<text text-anchor="middle" x="209.5" y="-755.1089" font-family="Helvetica,sans-Serif" font-size="10.00" fill="#000000">JS_GetPropertyInternal</text>
</a>
</g>
</g>
<!-- Node181570&#45;&gt;Node181738 -->
<g id="edge51" class="edge">
<title>Node181570&#45;&gt;Node181738</title>
<path fill="none" stroke="#191970" d="M62.213,-559.0393C77.7088,-586.4622 108.6834,-639.2171 140,-680.6089 159.3403,-706.1714 185.3859,-733.4124 199.462,-747.6393"/>
<polygon fill="#191970" stroke="#191970" points="65.1739,-557.1633 57.2324,-550.1502 59.0671,-560.585 65.1739,-557.1633"/>
</g>
<!-- Node181572 -->
<g id="node3" class="node">
<title>Node181572</title>
<g id="a_node3"><a xlink:href="quickjs_8c.html#a638e637d492ee889691691baba33c4bd" target="_top" xlink:title="JS_SetPropertyGeneric">
<polygon fill="none" stroke="#000000" points="323,-135.1089 323,-154.1089 442,-154.1089 442,-135.1089 323,-135.1089"/>
<text text-anchor="middle" x="382.5" y="-142.1089" font-family="Helvetica,sans-Serif" font-size="10.00" fill="#000000">JS_SetPropertyGeneric</text>
</a>
</g>
</g>
<!-- Node181571&#45;&gt;Node181572 -->
<g id="edge2" class="edge">
<title>Node181571&#45;&gt;Node181572</title>
<path fill="none" stroke="#191970" d="M214.8474,-502.2297C228.1591,-455.4354 265.3219,-333.2244 315,-239.6089 332.7349,-206.1884 360.5772,-170.9026 374.2975,-154.3093"/>
<polygon fill="#191970" stroke="#191970" points="211.4444,-501.4026 212.1116,-511.9764 218.184,-503.2944 211.4444,-501.4026"/>
</g>
<!-- Node181573 -->
<g id="node4" class="node">
<title>Node181573</title>
<g id="a_node4"><a xlink:href="quickjs_8c.html#ac2894ff4edcdb4e6841bcce9c76081e3" target="_top" xlink:title="JS_CallInternal">
<polygon fill="none" stroke="#ff0000" points="700.5,-574.1089 700.5,-593.1089 783.5,-593.1089 783.5,-574.1089 700.5,-574.1089"/>
<text text-anchor="middle" x="742" y="-581.1089" font-family="Helvetica,sans-Serif" font-size="10.00" fill="#000000">JS_CallInternal</text>
</a>
</g>
</g>
<!-- Node181571&#45;&gt;Node181573 -->
<g id="edge36" class="edge">
<title>Node181571&#45;&gt;Node181573</title>
<path fill="none" stroke="#191970" d="M262.9487,-510.4911C315.9272,-502.6947 396.6755,-499.8995 450,-540.6089 487.546,-569.2726 447.3535,-613.4471 486,-640.6089 564.7888,-695.9837 688.1268,-620.9544 728.6253,-593.1967"/>
<polygon fill="#191970" stroke="#191970" points="262.3985,-507.0345 253.0663,-512.0505 263.4897,-513.9489 262.3985,-507.0345"/>
</g>
<!-- Node181571&#45;&gt;Node181695 -->
<g id="edge7" class="edge">
<title>Node181571&#45;&gt;Node181695</title>
<path fill="none" stroke="#191970" d="M220.3451,-539.9808C234.8244,-564.9445 260.7603,-611.22 279,-652.6089 298.2178,-696.2172 280.3997,-720.8395 315,-753.6089 319.6145,-757.9792 325.1394,-761.3993 331.0145,-764.0749"/>
<polygon fill="#191970" stroke="#191970" points="223.2969,-538.095 215.2294,-531.2273 217.2533,-541.6271 223.2969,-538.095"/>
</g>
<!-- Node182143 -->
<g id="node9" class="node">
<title>Node182143</title>
<g id="a_node9"><a xlink:href="quickjs_8c.html#a0a8765bd4012467d9139bc24aabcb3ca" target="_top" xlink:title="JS_DefinePropertyValue">
<polygon fill="none" stroke="#ff0000" points="320.5,-398.1089 320.5,-417.1089 444.5,-417.1089 444.5,-398.1089 320.5,-398.1089"/>
<text text-anchor="middle" x="382.5" y="-405.1089" font-family="Helvetica,sans-Serif" font-size="10.00" fill="#000000">JS_DefinePropertyValue</text>
</a>
</g>
</g>
<!-- Node181571&#45;&gt;Node182143 -->
<g id="edge10" class="edge">
<title>Node181571&#45;&gt;Node182143</title>
<path fill="none" stroke="#191970" d="M225.6526,-504.4552C245.1804,-484.5703 279.8232,-451.9346 315,-431.6089 325.2305,-425.6975 337.1636,-420.8685 348.1266,-417.1325"/>
<polygon fill="#191970" stroke="#191970" points="222.9089,-502.2578 218.48,-511.8825 227.9443,-507.1205 222.9089,-502.2578"/>
</g>
<!-- Node181606 -->
<g id="node17" class="node">
<title>Node181606</title>
<g id="a_node17"><a xlink:href="quickjs_8c.html#a4c9489297c684663f30e517204a9ec14" target="_top" xlink:title="JS_AddIntrinsicBaseObjects">
<polygon fill="none" stroke="#ff0000" points="671,-169.1089 671,-188.1089 813,-188.1089 813,-169.1089 671,-169.1089"/>
<text text-anchor="middle" x="742" y="-176.1089" font-family="Helvetica,sans-Serif" font-size="10.00" fill="#000000">JS_AddIntrinsicBaseObjects</text>
</a>
</g>
</g>
<!-- Node181571&#45;&gt;Node181606 -->
<g id="edge43" class="edge">
<title>Node181571&#45;&gt;Node181606</title>
<path fill="none" stroke="#191970" d="M221.5803,-503.4668C239.921,-476.6564 276.7254,-425.6389 315,-388.6089 368.6635,-336.6904 406.7927,-349.5058 450,-288.6089 481.2368,-244.5834 442.5392,-204.6267 486,-172.6089 555.7952,-121.1904 667.7969,-151.586 717.2099,-168.9909"/>
<polygon fill="#191970" stroke="#191970" points="218.5947,-501.6338 215.8908,-511.8778 224.3928,-505.5558 218.5947,-501.6338"/>
</g>
<!-- Node182163 -->
<g id="node18" class="node">
<title>Node182163</title>
<g id="a_node18"><a xlink:href="quickjs_8c.html#a04d312757919ff6b4d79cd0c2c3e5bb2" target="_top" xlink:title="js_build_arguments">
<polygon fill="none" stroke="#000000" points="510,-612.1089 510,-631.1089 611,-631.1089 611,-612.1089 510,-612.1089"/>
<text text-anchor="middle" x="560.5" y="-619.1089" font-family="Helvetica,sans-Serif" font-size="10.00" fill="#000000">js_build_arguments</text>
</a>
</g>
</g>
<!-- Node181571&#45;&gt;Node182163 -->
<g id="edge35" class="edge">
<title>Node181571&#45;&gt;Node182163</title>
<path fill="none" stroke="#191970" d="M230.6412,-506.1439C275.7014,-475.2261 382.5743,-413.0074 450,-464.6089 498.6309,-501.8266 443.7343,-553.2949 486,-597.6089 492.4713,-604.3938 500.8663,-609.2647 509.678,-612.7605"/>
<polygon fill="#191970" stroke="#191970" points="228.4149,-503.4304 222.2415,-512.0408 232.437,-509.1596 228.4149,-503.4304"/>
</g>
<!-- Node182178 -->
<g id="node21" class="node">
<title>Node182178</title>
<g id="a_node21"><a xlink:href="quickjs_8c.html#abfb24c507e9a341c0a98e61d86fd8663" target="_top" xlink:title="JS_DefinePropertyGetSet">
<polygon fill="none" stroke="#ff0000" points="317.5,-638.1089 317.5,-657.1089 447.5,-657.1089 447.5,-638.1089 317.5,-638.1089"/>
<text text-anchor="middle" x="382.5" y="-645.1089" font-family="Helvetica,sans-Serif" font-size="10.00" fill="#000000">JS_DefinePropertyGetSet</text>
</a>
</g>
</g>
<!-- Node181571&#45;&gt;Node182178 -->
<g id="edge31" class="edge">
<title>Node181571&#45;&gt;Node182178</title>
<path fill="none" stroke="#191970" d="M222.605,-539.5075C240.7791,-563.0762 275.8521,-604.2536 315,-627.6089 322.2425,-631.9297 330.4845,-635.3742 338.661,-638.101"/>
<polygon fill="#191970" stroke="#191970" points="225.3116,-537.2838 216.4937,-531.4106 219.7244,-541.5008 225.3116,-537.2838"/>
</g>
<!-- Node182179 -->
<g id="node22" class="node">
<title>Node182179</title>
<g id="a_node22"><a xlink:href="quickjs_8c.html#afda32fadaf7f938b5d1a2458a596a4b9" target="_top" xlink:title="JS_DefineGlobalFunction">
<polygon fill="none" stroke="#000000" points="318.5,-676.1089 318.5,-695.1089 446.5,-695.1089 446.5,-676.1089 318.5,-676.1089"/>
<text text-anchor="middle" x="382.5" y="-683.1089" font-family="Helvetica,sans-Serif" font-size="10.00" fill="#000000">JS_DefineGlobalFunction</text>
</a>
</g>
</g>
<!-- Node181571&#45;&gt;Node182179 -->
<g id="edge32" class="edge">
<title>Node181571&#45;&gt;Node182179</title>
<path fill="none" stroke="#191970" d="M218.196,-540.7957C233.3256,-571.9887 267.4809,-633.5319 315,-666.6089 320.5954,-670.5037 326.9728,-673.6038 333.5224,-676.0703"/>
<polygon fill="#191970" stroke="#191970" points="221.2293,-539.0218 213.8026,-531.4657 214.8963,-542.0039 221.2293,-539.0218"/>
</g>
<!-- Node182180 -->
<g id="node23" class="node">
<title>Node182180</title>
<g id="a_node23"><a xlink:href="quickjs_8c.html#a9105ee38f5a557a7922fe6cfee0f9bb2" target="_top" xlink:title="js_arguments_define\l_own_property">
<polygon fill="none" stroke="#000000" points="329,-588.6089 329,-618.6089 436,-618.6089 436,-588.6089 329,-588.6089"/>
<text text-anchor="start" x="337" y="-606.6089" font-family="Helvetica,sans-Serif" font-size="10.00" fill="#000000">js_arguments_define</text>
<text text-anchor="middle" x="382.5" y="-595.6089" font-family="Helvetica,sans-Serif" font-size="10.00" fill="#000000">_own_property</text>
</a>
</g>
</g>
<!-- Node181571&#45;&gt;Node182180 -->
<g id="edge34" class="edge">
<title>Node181571&#45;&gt;Node182180</title>
<path fill="none" stroke="#191970" d="M234.5082,-536.4164C255.5725,-548.5712 286.711,-565.8047 315,-578.6089 322.6278,-582.0614 330.8865,-585.4191 338.9233,-588.4952"/>
<polygon fill="#191970" stroke="#191970" points="235.9888,-533.2285 225.5854,-531.2233 232.4676,-539.2784 235.9888,-533.2285"/>
</g>
<!-- Node181775 -->
<g id="node24" class="node">
<title>Node181775</title>
<g id="a_node24"><a xlink:href="quickjs_8c.html#af40540b5f7e973f44e4e89d87938bfc6" target="_top" xlink:title="JS_DefinePropertyDesc">
<polygon fill="none" stroke="#ff0000" points="321.5,-550.1089 321.5,-569.1089 443.5,-569.1089 443.5,-550.1089 321.5,-550.1089"/>
<text text-anchor="middle" x="382.5" y="-557.1089" font-family="Helvetica,sans-Serif" font-size="10.00" fill="#000000">JS_DefinePropertyDesc</text>
</a>
</g>
</g>
<!-- Node181571&#45;&gt;Node181775 -->
<g id="edge37" class="edge">
<title>Node181571&#45;&gt;Node181775</title>
<path fill="none" stroke="#191970" d="M263.0051,-533.3615C287.4673,-538.7347 316.0707,-545.0175 339.1587,-550.0888"/>
<polygon fill="#191970" stroke="#191970" points="263.6733,-529.9249 253.1552,-531.1979 262.1714,-536.7619 263.6733,-529.9249"/>
</g>
<!-- Node182086 -->
<g id="node25" class="node">
<title>Node182086</title>
<g id="a_node25"><a xlink:href="quickjs_8c.html#ad47910027b4f50d5ff3239df19de556d" target="_top" xlink:title="js_object___defineGetter__">
<polygon fill="none" stroke="#000000" points="315,-474.1089 315,-493.1089 450,-493.1089 450,-474.1089 315,-474.1089"/>
<text text-anchor="middle" x="382.5" y="-481.1089" font-family="Helvetica,sans-Serif" font-size="10.00" fill="#000000">js_object___defineGetter__</text>
</a>
</g>
</g>
<!-- Node181571&#45;&gt;Node182086 -->
<g id="edge38" class="edge">
<title>Node181571&#45;&gt;Node182086</title>
<path fill="none" stroke="#191970" d="M263.0051,-509.8563C287.4673,-504.4831 316.0707,-498.2003 339.1587,-493.1289"/>
<polygon fill="#191970" stroke="#191970" points="262.1714,-506.4559 253.1552,-512.0199 263.6733,-513.2929 262.1714,-506.4559"/>
</g>
<!-- Node181763 -->
<g id="node26" class="node">
<title>Node181763</title>
<g id="a_node26"><a xlink:href="quickjs_8c.html#a3b1f61e0c2e39eb52d8b1c5c8713873e" target="_top" xlink:title="js_object_seal">
<polygon fill="none" stroke="#000000" points="343,-97.1089 343,-116.1089 422,-116.1089 422,-97.1089 343,-97.1089"/>
<text text-anchor="middle" x="382.5" y="-104.1089" font-family="Helvetica,sans-Serif" font-size="10.00" fill="#000000">js_object_seal</text>
</a>
</g>
</g>
<!-- Node181571&#45;&gt;Node181763 -->
<g id="edge39" class="edge">
<title>Node181571&#45;&gt;Node181763</title>
<path fill="none" stroke="#191970" d="M213.6026,-501.6806C229.5057,-425.2102 287.5594,-153.4368 315,-125.6089 322.4367,-118.0673 332.6145,-113.4572 342.8116,-110.6572"/>
<polygon fill="#191970" stroke="#191970" points="210.0964,-501.352 211.4965,-511.8539 216.9511,-502.7711 210.0964,-501.352"/>
</g>
<!-- Node181886 -->
<g id="node27" class="node">
<title>Node181886</title>
<g id="a_node27"><a xlink:href="quickjs_8c.html#a1fdb56277638da2aef63b9be0c12895f" target="_top" xlink:title="js_string_define_own\l_property">
<polygon fill="none" stroke="#000000" points="328.5,-714.6089 328.5,-744.6089 436.5,-744.6089 436.5,-714.6089 328.5,-714.6089"/>
<text text-anchor="start" x="336.5" y="-732.6089" font-family="Helvetica,sans-Serif" font-size="10.00" fill="#000000">js_string_define_own</text>
<text text-anchor="middle" x="382.5" y="-721.6089" font-family="Helvetica,sans-Serif" font-size="10.00" fill="#000000">_property</text>
</a>
</g>
</g>
<!-- Node181571&#45;&gt;Node181886 -->
<g id="edge41" class="edge">
<title>Node181571&#45;&gt;Node181886</title>
<path fill="none" stroke="#191970" d="M219.305,-540.2348C242.6746,-584.3815 300.7684,-692.5909 315,-704.6089 319.5829,-708.479 324.8203,-711.7767 330.3056,-714.5806"/>
<polygon fill="#191970" stroke="#191970" points="222.2777,-538.3688 214.5131,-531.1603 216.0877,-541.6375 222.2777,-538.3688"/>
</g>
<!-- Node181784 -->
<g id="node28" class="node">
<title>Node181784</title>
<g id="a_node28"><a xlink:href="quickjs_8c.html#a7e5b77a4851eee6f666581d051979392" target="_top" xlink:title="js_proxy_define_own\l_property">
<polygon fill="none" stroke="#000000" points="328.5,-249.6089 328.5,-279.6089 436.5,-279.6089 436.5,-249.6089 328.5,-249.6089"/>
<text text-anchor="start" x="336.5" y="-267.6089" font-family="Helvetica,sans-Serif" font-size="10.00" fill="#000000">js_proxy_define_own</text>
<text text-anchor="middle" x="382.5" y="-256.6089" font-family="Helvetica,sans-Serif" font-size="10.00" fill="#000000">_property</text>
</a>
</g>
</g>
<!-- Node181571&#45;&gt;Node181784 -->
<g id="edge42" class="edge">
<title>Node181571&#45;&gt;Node181784</title>
<path fill="none" stroke="#191970" d="M213.6602,-502.0065C223.7313,-458.9854 253.2741,-355.3044 315,-294.6089 321.1265,-288.5847 328.6696,-283.6589 336.4683,-279.6692"/>
<polygon fill="#191970" stroke="#191970" points="210.1894,-501.4893 211.4177,-512.0126 217.02,-503.0201 210.1894,-501.4893"/>
</g>
<!-- Node181572&#45;&gt;Node181573 -->
<g id="edge3" class="edge">
<title>Node181572&#45;&gt;Node181573</title>
<path fill="none" stroke="#191970" d="M435.6672,-133.4863C492.9238,-124.9058 582.8061,-121.8397 635,-172.6089 676.6537,-213.1257 654.5201,-375.8859 671,-431.6089 687.7681,-488.3067 722.5878,-550.6628 736.2866,-574.052"/>
<polygon fill="#191970" stroke="#191970" points="435.0416,-130.0418 425.7219,-135.081 436.15,-136.9535 435.0416,-130.0418"/>
</g>
<!-- Node182089 -->
<g id="node5" class="node">
<title>Node182089</title>
<g id="a_node5"><a xlink:href="quickjs_8c.html#af047bcc4352c7d76f5e85bb5985bcd97" target="_top" xlink:title="js_reflect_set">
<polygon fill="none" stroke="#000000" points="523,-68.1089 523,-87.1089 598,-87.1089 598,-68.1089 523,-68.1089"/>
<text text-anchor="middle" x="560.5" y="-75.1089" font-family="Helvetica,sans-Serif" font-size="10.00" fill="#000000">js_reflect_set</text>
</a>
</g>
</g>
<!-- Node181572&#45;&gt;Node182089 -->
<g id="edge5" class="edge">
<title>Node181572&#45;&gt;Node182089</title>
<path fill="none" stroke="#191970" d="M434.1091,-131.9076C439.5625,-130.0279 444.954,-127.9304 450,-125.6089 467.4695,-117.5718 468.6833,-109.9701 486,-101.6089 497.9921,-95.8186 511.7204,-90.9444 524.0982,-87.1335"/>
<polygon fill="#191970" stroke="#191970" points="432.741,-128.6706 424.2872,-135.0569 434.8783,-135.3364 432.741,-128.6706"/>
</g>
<!-- Node181787 -->
<g id="node6" class="node">
<title>Node181787</title>
<g id="a_node6"><a xlink:href="quickjs_8c.html#ad38b16d301e8f3661cf4c115c86511b3" target="_top" xlink:title="js_proxy_set">
<polygon fill="none" stroke="#000000" points="524.5,-30.1089 524.5,-49.1089 596.5,-49.1089 596.5,-30.1089 524.5,-30.1089"/>
<text text-anchor="middle" x="560.5" y="-37.1089" font-family="Helvetica,sans-Serif" font-size="10.00" fill="#000000">js_proxy_set</text>
</a>
</g>
</g>
<!-- Node181572&#45;&gt;Node181787 -->
<g id="edge6" class="edge">
<title>Node181572&#45;&gt;Node181787</title>
<path fill="none" stroke="#191970" d="M442.746,-130.5656C445.2949,-129.0767 447.7298,-127.43 450,-125.6089 476.3686,-104.4567 459.3725,-79.4342 486,-58.6089 496.9348,-50.0568 511.2805,-45.3175 524.4611,-42.7046"/>
<polygon fill="#191970" stroke="#191970" points="441.1177,-127.4663 433.7136,-135.0445 444.2275,-133.7376 441.1177,-127.4663"/>
</g>
<!-- Node181573&#45;&gt;Node181573 -->
<g id="edge4" class="edge">
<title>Node181573&#45;&gt;Node181573</title>
<path fill="none" stroke="#191970" d="M708.267,-601.5001C708.761,-607.1495 720.0054,-611.6089 742,-611.6089 773.9922,-611.6089 783.2399,-602.1742 769.7432,-593.3659"/>
<polygon fill="#191970" stroke="#191970" points="711.1456,-603.4937 714.2568,-593.3659 705.5089,-599.343 711.1456,-603.4937"/>
</g>
<!-- Node181695&#45;&gt;Node181573 -->
<g id="edge9" class="edge">
<title>Node181695&#45;&gt;Node181573</title>
<path fill="none" stroke="#191970" d="M451.7303,-778.5475C505.5107,-779.1264 579.9565,-772.5206 635,-738.6089 693.463,-702.5905 728.0118,-621.3633 738.5401,-593.3353"/>
<polygon fill="#191970" stroke="#191970" points="451.6661,-775.0457 441.6003,-778.3514 451.5306,-782.0444 451.6661,-775.0457"/>
</g>
<!-- Node181733 -->
<g id="node8" class="node">
<title>Node181733</title>
<g id="a_node8"><a xlink:href="quickjs_8c.html#aa40a5354bee3b56e05a71244910bcc78" target="_top" xlink:title="build_for_in_iterator">
<polygon fill="none" stroke="#ff0000" points="510,-688.1089 510,-707.1089 611,-707.1089 611,-688.1089 510,-688.1089"/>
<text text-anchor="middle" x="560.5" y="-695.1089" font-family="Helvetica,sans-Serif" font-size="10.00" fill="#000000">build_for_in_iterator</text>
</a>
</g>
</g>
<!-- Node181695&#45;&gt;Node181733 -->
<g id="edge8" class="edge">
<title>Node181695&#45;&gt;Node181733</title>
<path fill="none" stroke="#191970" d="M428.6991,-761.1344C435.9037,-758.8418 443.2071,-756.3107 450,-753.6089 484.5727,-739.8578 522.8814,-719.1181 544.088,-707.1152"/>
<polygon fill="#191970" stroke="#191970" points="427.5301,-757.8319 418.9932,-764.1066 429.5798,-764.5251 427.5301,-757.8319"/>
</g>
<!-- Node182143&#45;&gt;Node181573 -->
<g id="edge28" class="edge">
<title>Node182143&#45;&gt;Node181573</title>
<path fill="none" stroke="#191970" d="M423.0684,-421.3843C433.0265,-426.4139 442.8636,-433.0403 450,-441.6089 486.4528,-485.3769 441.7121,-528.7895 486,-564.6089 547.8534,-614.6349 647.9122,-604.1355 702.8259,-593.1936"/>
<polygon fill="#191970" stroke="#191970" points="424.5115,-418.1956 413.9631,-417.2044 421.591,-424.5573 424.5115,-418.1956"/>
</g>
<!-- Node182143&#45;&gt;Node181733 -->
<g id="edge25" class="edge">
<title>Node182143&#45;&gt;Node181733</title>
<path fill="none" stroke="#191970" d="M407.7806,-422.7845C422.3513,-432.8441 439.7568,-447.3509 450,-464.6089 490.7512,-533.2679 443.6073,-572.9511 486,-640.6089 499.4027,-661.9993 523.8867,-678.383 541.1199,-687.9813"/>
<polygon fill="#191970" stroke="#191970" points="409.441,-419.6872 399.1641,-417.1109 405.5913,-425.5336 409.441,-419.6872"/>
</g>
<!-- Node182144 -->
<g id="node10" class="node">
<title>Node182144</title>
<g id="a_node10"><a xlink:href="quickjs-libc_8c.html#a744c97f53406d93e57acb57e3d498227" target="_top" xlink:title="js_std_getenviron">
<polygon fill="none" stroke="#000000" points="514,-422.1089 514,-441.1089 607,-441.1089 607,-422.1089 514,-422.1089"/>
<text text-anchor="middle" x="560.5" y="-429.1089" font-family="Helvetica,sans-Serif" font-size="10.00" fill="#000000">js_std_getenviron</text>
</a>
</g>
</g>
<!-- Node182143&#45;&gt;Node182144 -->
<g id="edge11" class="edge">
<title>Node182143&#45;&gt;Node182144</title>
<path fill="none" stroke="#191970" d="M454.7641,-417.3524C474.7479,-420.0468 495.8995,-422.8987 513.9905,-425.3379"/>
<polygon fill="#191970" stroke="#191970" points="455.1338,-413.8706 444.7558,-416.0029 454.1984,-420.8078 455.1338,-413.8706"/>
</g>
<!-- Node182145 -->
<g id="node11" class="node">
<title>Node182145</title>
<g id="a_node11"><a xlink:href="quickjs_8c.html#a5d963b1e3acf275363fedd4bfdd8a57f" target="_top" xlink:title="js_function_set_properties">
<polygon fill="none" stroke="#ff0000" points="495,-384.1089 495,-403.1089 626,-403.1089 626,-384.1089 495,-384.1089"/>
<text text-anchor="middle" x="560.5" y="-391.1089" font-family="Helvetica,sans-Serif" font-size="10.00" fill="#000000">js_function_set_properties</text>
</a>
</g>
</g>
<!-- Node182143&#45;&gt;Node182145 -->
<g id="edge12" class="edge">
<title>Node182143&#45;&gt;Node182145</title>
<path fill="none" stroke="#191970" d="M454.7943,-401.9228C468.0798,-400.8779 481.8804,-399.7924 494.954,-398.7642"/>
<polygon fill="#191970" stroke="#191970" points="454.4505,-398.439 444.7558,-402.7124 454.9994,-405.4174 454.4505,-398.439"/>
</g>
<!-- Node182040 -->
<g id="node12" class="node">
<title>Node182040</title>
<g id="a_node12"><a xlink:href="quickjs_8c.html#a44d4e574b5bd12a89f8389ca79e587a0" target="_top" xlink:title="js_method_set_properties">
<polygon fill="none" stroke="#000000" points="496.5,-536.1089 496.5,-555.1089 624.5,-555.1089 624.5,-536.1089 496.5,-536.1089"/>
<text text-anchor="middle" x="560.5" y="-543.1089" font-family="Helvetica,sans-Serif" font-size="10.00" fill="#000000">js_method_set_properties</text>
</a>
</g>
</g>
<!-- Node182143&#45;&gt;Node182040 -->
<g id="edge13" class="edge">
<title>Node182143&#45;&gt;Node182040</title>
<path fill="none" stroke="#191970" d="M436.1196,-421.5486C441.1935,-424.3201 445.9463,-427.6379 450,-431.6089 482.2547,-463.2056 452.3279,-496.5272 486,-526.6089 490.2803,-530.4328 495.2246,-533.5082 500.4891,-535.9786"/>
<polygon fill="#191970" stroke="#191970" points="437.2599,-418.2172 426.7213,-417.1272 434.28,-424.5513 437.2599,-418.2172"/>
</g>
<!-- Node181852 -->
<g id="node13" class="node">
<title>Node181852</title>
<g id="a_node13"><a xlink:href="quickjs_8c.html#a61c8dfb5e807af1b6ff7d8ca61576dda" target="_top" xlink:title="build_backtrace">
<polygon fill="none" stroke="#ff0000" points="518,-460.1089 518,-479.1089 603,-479.1089 603,-460.1089 518,-460.1089"/>
<text text-anchor="middle" x="560.5" y="-467.1089" font-family="Helvetica,sans-Serif" font-size="10.00" fill="#000000">build_backtrace</text>
</a>
</g>
</g>
<!-- Node182143&#45;&gt;Node181852 -->
<g id="edge15" class="edge">
<title>Node182143&#45;&gt;Node181852</title>
<path fill="none" stroke="#191970" d="M421.8969,-420.5413C431.2128,-423.894 441.0404,-427.6761 450,-431.6089 466.566,-438.8804 469.1174,-444.106 486,-450.6089 496.0893,-454.4951 507.2524,-457.8242 517.7997,-460.5597"/>
<polygon fill="#191970" stroke="#191970" points="423.0266,-417.2285 412.4318,-417.2145 420.7054,-423.8325 423.0266,-417.2285"/>
</g>
<!-- Node181883 -->
<g id="node14" class="node">
<title>Node181883</title>
<g id="a_node14"><a xlink:href="quickjs_8c.html#aeafb37b03b5560171754f8c4505b0f6b" target="_top" xlink:title="JS_ThrowError2">
<polygon fill="none" stroke="#ff0000" points="698.5,-403.1089 698.5,-422.1089 785.5,-422.1089 785.5,-403.1089 698.5,-403.1089"/>
<text text-anchor="middle" x="742" y="-410.1089" font-family="Helvetica,sans-Serif" font-size="10.00" fill="#000000">JS_ThrowError2</text>
</a>
</g>
</g>
<!-- Node182143&#45;&gt;Node181883 -->
<g id="edge18" class="edge">
<title>Node182143&#45;&gt;Node181883</title>
<path fill="none" stroke="#191970" d="M415.0216,-394.3859C435.103,-386.9441 461.6081,-378.4033 486,-374.6089 551.4352,-364.4296 569.7394,-363.3646 635,-374.6089 666.2772,-379.9979 700.5345,-393.6384 721.6527,-403.0201"/>
<polygon fill="#191970" stroke="#191970" points="413.5351,-391.2067 405.4346,-398.0355 416.0256,-397.7487 413.5351,-391.2067"/>
</g>
<!-- Node182067 -->
<g id="node15" class="node">
<title>Node182067</title>
<g id="a_node15"><a xlink:href="quickjs_8c.html#a0c61bd5a64c743e81188bb528b78e715" target="_top" xlink:title="JS_DefinePropertyValueValue">
<polygon fill="none" stroke="#ff0000" points="486,-498.1089 486,-517.1089 635,-517.1089 635,-498.1089 486,-498.1089"/>
<text text-anchor="middle" x="560.5" y="-505.1089" font-family="Helvetica,sans-Serif" font-size="10.00" fill="#000000">JS_DefinePropertyValueValue</text>
</a>
</g>
</g>
<!-- Node182143&#45;&gt;Node182067 -->
<g id="edge19" class="edge">
<title>Node182143&#45;&gt;Node182067</title>
<path fill="none" stroke="#191970" d="M432.9805,-421.264C439.0536,-424.116 444.9004,-427.5308 450,-431.6089 473.4007,-450.3221 461.7643,-470.9904 486,-488.6089 491.2903,-492.4548 497.2849,-495.5245 503.5202,-497.9743"/>
<polygon fill="#191970" stroke="#191970" points="433.9021,-417.8559 423.3257,-417.231 431.2039,-424.315 433.9021,-417.8559"/>
</g>
<!-- Node182160 -->
<g id="node16" class="node">
<title>Node182160</title>
<g id="a_node16"><a xlink:href="quickjs_8c.html#a841f4cb887e4d9e03e94a0697255e578" target="_top" xlink:title="JS_DefinePropertyValueStr">
<polygon fill="none" stroke="#ff0000" points="492,-308.1089 492,-327.1089 629,-327.1089 629,-308.1089 492,-308.1089"/>
<text text-anchor="middle" x="560.5" y="-315.1089" font-family="Helvetica,sans-Serif" font-size="10.00" fill="#000000">JS_DefinePropertyValueStr</text>
</a>
</g>
</g>
<!-- Node182143&#45;&gt;Node182160 -->
<g id="edge21" class="edge">
<title>Node182143&#45;&gt;Node182160</title>
<path fill="none" stroke="#191970" d="M403.459,-391.9645C423.7381,-377.3911 455.7625,-355.8315 486,-341.6089 498.1733,-335.883 512.0729,-330.9965 524.5431,-327.1565"/>
<polygon fill="#191970" stroke="#191970" points="401.2935,-389.2118 395.2717,-397.929 405.4152,-394.8697 401.2935,-389.2118"/>
</g>
<!-- Node182143&#45;&gt;Node181606 -->
<g id="edge30" class="edge">
<title>Node182143&#45;&gt;Node181606</title>
<path fill="none" stroke="#191970" d="M397.5821,-390.1703C411.8044,-373.3769 433.3623,-347.0011 450,-322.6089 467.955,-296.2854 460.6407,-279.9018 486,-260.6089 540.4792,-219.1621 570.0017,-243.0808 635,-221.6089 665.2257,-211.6239 699.1815,-197.4546 720.5741,-188.1504"/>
<polygon fill="#191970" stroke="#191970" points="394.7126,-388.1407 390.8782,-398.0174 400.0349,-392.6876 394.7126,-388.1407"/>
</g>
<!-- Node182143&#45;&gt;Node182163 -->
<g id="edge23" class="edge">
<title>Node182143&#45;&gt;Node182163</title>
<path fill="none" stroke="#191970" d="M438.0941,-421.7704C442.5261,-424.493 446.5964,-427.7389 450,-431.6089 499.8565,-488.2965 435.2998,-541.6746 486,-597.6089 492.3882,-604.6566 500.8531,-609.6445 509.7813,-613.1721"/>
<polygon fill="#191970" stroke="#191970" points="439.6932,-418.6571 429.2056,-417.1534 436.4665,-424.869 439.6932,-418.6571"/>
</g>
<!-- Node181706 -->
<g id="node19" class="node">
<title>Node181706</title>
<g id="a_node19"><a xlink:href="quickjs_8c.html#a3b754d750c7f3123e85f4a2e748de023" target="_top" xlink:title="JS_CopyDataProperties">
<polygon fill="none" stroke="#ff0000" points="499.5,-270.1089 499.5,-289.1089 621.5,-289.1089 621.5,-270.1089 499.5,-270.1089"/>
<text text-anchor="middle" x="560.5" y="-277.1089" font-family="Helvetica,sans-Serif" font-size="10.00" fill="#000000">JS_CopyDataProperties</text>
</a>
</g>
</g>
<!-- Node182143&#45;&gt;Node181706 -->
<g id="edge26" class="edge">
<title>Node182143&#45;&gt;Node181706</title>
<path fill="none" stroke="#191970" d="M394.5028,-389.6936C411.8004,-365.3068 446.0818,-322.0241 486,-298.6089 492.5627,-294.7594 499.8963,-291.6821 507.3322,-289.2242"/>
<polygon fill="#191970" stroke="#191970" points="391.5431,-387.82 388.7286,-398.0341 397.2984,-391.8045 391.5431,-387.82"/>
</g>
<!-- Node181781 -->
<g id="node20" class="node">
<title>Node181781</title>
<g id="a_node20"><a xlink:href="quickjs_8c.html#a5f75fb513884286c86db6863663f262a" target="_top" xlink:title="js_object_getOwnProperty\lDescriptor">
<polygon fill="none" stroke="#ff0000" points="495,-182.6089 495,-212.6089 626,-212.6089 626,-182.6089 495,-182.6089"/>
<text text-anchor="start" x="503" y="-200.6089" font-family="Helvetica,sans-Serif" font-size="10.00" fill="#000000">js_object_getOwnProperty</text>
<text text-anchor="middle" x="560.5" y="-189.6089" font-family="Helvetica,sans-Serif" font-size="10.00" fill="#000000">Descriptor</text>
</a>
</g>
</g>
<!-- Node182143&#45;&gt;Node181781 -->
<g id="edge29" class="edge">
<title>Node182143&#45;&gt;Node181781</title>
<path fill="none" stroke="#191970" d="M398.9964,-390.2105C413.8741,-373.8026 435.5726,-348.0017 450,-322.6089 472.3052,-283.3508 454.403,-259.8633 486,-227.6089 491.952,-221.533 499.2975,-216.6494 507.0344,-212.7347"/>
<polygon fill="#191970" stroke="#191970" points="396.1249,-388.1611 391.9127,-397.8827 401.2679,-392.9097 396.1249,-388.1611"/>
</g>
<!-- Node182040&#45;&gt;Node181573 -->
<g id="edge14" class="edge">
<title>Node182040&#45;&gt;Node181573</title>
<path fill="none" stroke="#191970" d="M616.4025,-557.313C643.4485,-562.9755 675.3633,-569.6574 700.2535,-574.8686"/>
<polygon fill="#191970" stroke="#191970" points="616.8052,-553.8215 606.3001,-555.1979 615.3706,-560.6729 616.8052,-553.8215"/>
</g>
<!-- Node181852&#45;&gt;Node181573 -->
<g id="edge16" class="edge">
<title>Node181852&#45;&gt;Node181573</title>
<path fill="none" stroke="#191970" d="M612.8463,-479.5675C620.5037,-481.9832 628.119,-484.9573 635,-488.6089 677.7892,-511.3161 717.4748,-554.5508 733.958,-573.8655"/>
<polygon fill="#191970" stroke="#191970" points="613.7539,-476.1868 603.1767,-476.7972 611.826,-482.916 613.7539,-476.1868"/>
</g>
<!-- Node181852&#45;&gt;Node181883 -->
<g id="edge17" class="edge">
<title>Node181852&#45;&gt;Node181883</title>
<path fill="none" stroke="#191970" d="M610.711,-457.4732C618.865,-455.3105 627.1926,-452.9854 635,-450.6089 663.4767,-441.9409 695.5868,-430.2776 717.1365,-422.1683"/>
<polygon fill="#191970" stroke="#191970" points="609.696,-454.1206 600.8977,-460.0232 611.4566,-460.8956 609.696,-454.1206"/>
</g>
<!-- Node182067&#45;&gt;Node181573 -->
<g id="edge20" class="edge">
<title>Node182067&#45;&gt;Node181573</title>
<path fill="none" stroke="#191970" d="M615.0712,-519.9091C621.8602,-521.9109 628.6444,-524.1468 635,-526.6089 669.3465,-539.9145 706.736,-561.6649 726.9581,-574.0969"/>
<polygon fill="#191970" stroke="#191970" points="615.7435,-516.4629 605.1706,-517.1444 613.8608,-523.205 615.7435,-516.4629"/>
</g>
<!-- Node182160&#45;&gt;Node181606 -->
<g id="edge22" class="edge">
<title>Node182160&#45;&gt;Node181606</title>
<path fill="none" stroke="#191970" d="M623.6042,-304.4397C627.5703,-302.7269 631.407,-300.7928 635,-298.6089 683.4196,-269.178 722.3303,-210.9667 736.3664,-188.1251"/>
<polygon fill="#191970" stroke="#191970" points="622.2592,-301.2068 614.169,-308.0478 624.7595,-307.745 622.2592,-301.2068"/>
</g>
<!-- Node182163&#45;&gt;Node181573 -->
<g id="edge24" class="edge">
<title>Node182163&#45;&gt;Node181573</title>
<path fill="none" stroke="#191970" d="M616.4025,-609.9048C643.4485,-604.2423 675.3633,-597.5604 700.2535,-592.3492"/>
<polygon fill="#191970" stroke="#191970" points="615.3706,-606.5449 606.3001,-612.0199 616.8052,-613.3963 615.3706,-606.5449"/>
</g>
<!-- Node181706&#45;&gt;Node181573 -->
<g id="edge27" class="edge">
<title>Node181706&#45;&gt;Node181573</title>
<path fill="none" stroke="#191970" d="M630.3518,-294.5935C631.9834,-295.8324 633.5383,-297.1684 635,-298.6089 678.6176,-341.5929 649.9633,-374.0973 671,-431.6089 691.3109,-487.1362 724.0547,-550.1782 736.7422,-573.9015"/>
<polygon fill="#191970" stroke="#191970" points="631.9722,-291.4797 621.6311,-289.1746 628.2776,-297.4253 631.9722,-291.4797"/>
</g>
<!-- Node182179&#45;&gt;Node181573 -->
<g id="edge33" class="edge">
<title>Node182179&#45;&gt;Node181573</title>
<path fill="none" stroke="#191970" d="M427.4,-697.9264C434.9621,-700.0928 442.7176,-702.3716 450,-704.6089 466.1218,-709.5618 469.3523,-713.9073 486,-716.6089 551.3671,-727.2165 575.2744,-745.2137 635,-716.6089 690.3267,-690.1109 726.1389,-619.5066 737.8213,-593.4491"/>
<polygon fill="#191970" stroke="#191970" points="428.2017,-694.5158 417.6262,-695.1562 426.2928,-701.2506 428.2017,-694.5158"/>
</g>
<!-- Node181763&#45;&gt;Node181606 -->
<g id="edge40" class="edge">
<title>Node181763&#45;&gt;Node181606</title>
<path fill="none" stroke="#191970" d="M396.6043,-89.0928C414.7175,-68.1469 448.3419,-34.2126 486,-20.6089 548.2829,1.8904 576.5004,10.4262 635,-20.6089 696.7501,-53.3684 729.398,-139.4611 738.9678,-168.7158"/>
<polygon fill="#191970" stroke="#191970" points="393.7795,-87.0141 390.0308,-96.9236 399.1409,-91.5147 393.7795,-87.0141"/>
</g>
<!-- Node181749&#45;&gt;Node181572 -->
<g id="edge50" class="edge">
<title>Node181749&#45;&gt;Node181572</title>
<path fill="none" stroke="#191970" d="M263.0051,-170.8563C287.4673,-165.4831 316.0707,-159.2003 339.1587,-154.1289"/>
<polygon fill="#191970" stroke="#191970" points="262.1714,-167.4559 253.1552,-173.0199 263.6733,-174.2929 262.1714,-167.4559"/>
</g>
<!-- Node181749&#45;&gt;Node181787 -->
<g id="edge49" class="edge">
<title>Node181749&#45;&gt;Node181787</title>
<path fill="none" stroke="#191970" d="M223.5381,-165.1443C242.0703,-143.3579 276.8439,-106.6599 315,-87.6089 383.7728,-53.2712 474.8052,-43.4701 524.44,-40.6909"/>
<polygon fill="#191970" stroke="#191970" points="220.7461,-163.0278 217.0467,-172.9558 226.1299,-167.5017 220.7461,-163.0278"/>
</g>
<!-- Node181749&#45;&gt;Node181706 -->
<g id="edge45" class="edge">
<title>Node181749&#45;&gt;Node181706</title>
<path fill="none" stroke="#191970" d="M266.7203,-194.2368C315.7563,-204.6605 388.0665,-221.1262 450,-239.6089 480.3029,-248.6521 514.4193,-261.4083 536.6226,-270.066"/>
<polygon fill="#191970" stroke="#191970" points="267.4352,-190.8106 256.9279,-192.1697 265.9894,-197.6597 267.4352,-190.8106"/>
</g>
<!-- Node181749&#45;&gt;Node181781 -->
<g id="edge46" class="edge">
<title>Node181749&#45;&gt;Node181781</title>
<path fill="none" stroke="#191970" d="M289.4124,-186.0239C351.4954,-188.6771 436.5434,-192.3116 494.7246,-194.798"/>
<polygon fill="#191970" stroke="#191970" points="289.4063,-182.5206 279.266,-185.5903 289.1074,-189.5142 289.4063,-182.5206"/>
</g>
<!-- Node181749&#45;&gt;Node181763 -->
<g id="edge47" class="edge">
<title>Node181749&#45;&gt;Node181763</title>
<path fill="none" stroke="#191970" d="M233.5262,-167.6369C254.4398,-155.0958 285.885,-137.4024 315,-125.6089 323.914,-121.9981 333.7545,-118.8065 343.1007,-116.1192"/>
<polygon fill="#191970" stroke="#191970" points="231.4334,-164.8131 224.7045,-172.9968 235.0681,-170.7954 231.4334,-164.8131"/>
</g>
<!-- Node181749&#45;&gt;Node181784 -->
<g id="edge48" class="edge">
<title>Node181749&#45;&gt;Node181784</title>
<path fill="none" stroke="#191970" d="M237.5254,-196.7999C258.7011,-207.4303 288.5411,-222.2144 315,-234.6089 325.5678,-239.5593 337.1518,-244.781 347.6941,-249.4557"/>
<polygon fill="#191970" stroke="#191970" points="238.9549,-193.6011 228.449,-192.2314 235.8077,-199.8537 238.9549,-193.6011"/>
</g>
<!-- Node181738&#45;&gt;Node181573 -->
<g id="edge52" class="edge">
<title>Node181738&#45;&gt;Node181573</title>
<path fill="none" stroke="#191970" d="M242.818,-770.7017C319.3949,-798.45 510.8739,-854.2288 635,-772.6089 702.736,-728.0686 732.1678,-625.0333 739.8577,-593.1722"/>
<polygon fill="#191970" stroke="#191970" points="243.8081,-767.3362 233.2149,-767.1487 241.379,-773.9013 243.8081,-767.3362"/>
</g>
</g>
</svg>
