<?xml version="1.0" encoding="UTF-8" standalone="no"?>
<!DOCTYPE svg PUBLIC "-//W3C//DTD SVG 1.1//EN"
 "http://www.w3.org/Graphics/SVG/1.1/DTD/svg11.dtd">
<!-- Generated by graphviz version 2.40.1 (20161225.0304)
 -->
<!-- Title: js_object_getOwnPropertyDescriptor Pages: 1 -->
<!--zoomable 1253 -->
<svg id="main" version="1.1" xmlns="http://www.w3.org/2000/svg" xmlns:xlink="http://www.w3.org/1999/xlink" xml:space="preserve" onload="init(evt)">
<style type="text/css"><![CDATA[
.edge:hover path { stroke: red; }
.edge:hover polygon { stroke: red; fill: red; }
]]></style>
<script type="text/javascript"><![CDATA[
var edges = document.getElementsByTagName('g');
if (edges && edges.length) {
  for (var i=0;i<edges.length;i++) {
    if (edges[i].id.substr(0,4)=='edge') {
      edges[i].setAttribute('class','edge');
    }
  }
}
]]></script>
        <defs>
                <circle id="rim" cx="0" cy="0" r="7"/>
                <circle id="rim2" cx="0" cy="0" r="3.5"/>
                <g id="zoomPlus">
                        <use xlink:href="#rim" fill="#404040">
                                <set attributeName="fill" to="#808080" begin="zoomplus.mouseover" end="zoomplus.mouseout"/>
                        </use>
                        <path d="M-4,0h8M0,-4v8" fill="none" stroke="white" stroke-width="1.5" pointer-events="none"/>
                </g>
                <g id="zoomMin">
                        <use xlink:href="#rim" fill="#404040">
                                <set attributeName="fill" to="#808080" begin="zoomminus.mouseover" end="zoomminus.mouseout"/>
                        </use>
                        <path d="M-4,0h8" fill="none" stroke="white" stroke-width="1.5" pointer-events="none"/>
                </g>
                <g id="dirArrow">
                        <path fill="none" stroke="white" stroke-width="1.5" d="M0,-3.0v7 M-2.5,-0.5L0,-3.0L2.5,-0.5"/>
                </g>
               <g id="resetDef">
                       <use xlink:href="#rim2" fill="#404040">
                               <set attributeName="fill" to="#808080" begin="reset.mouseover" end="reset.mouseout"/>
                       </use>
               </g>
        </defs>

<script type="text/javascript">
var viewWidth = 1056;
var viewHeight = 1253;
var sectionId = 'dynsection-1421';
</script>
<script xlink:href="svgpan.js"/>
<svg id="graph" class="graph">
<g id="viewport">
<title>js_object_getOwnPropertyDescriptor</title>
<!-- Node380644 -->
<g id="node1" class="node">
<title>Node380644</title>
<polygon fill="#bfbfbf" stroke="#000000" points="0,-313 0,-343 131,-343 131,-313 0,-313"/>
<text text-anchor="start" x="8" y="-331" font-family="Helvetica,sans-Serif" font-size="10.00" fill="#000000">js_object_getOwnProperty</text>
<text text-anchor="middle" x="65.5" y="-320" font-family="Helvetica,sans-Serif" font-size="10.00" fill="#000000">Descriptor</text>
</g>
<!-- Node380645 -->
<g id="node2" class="node">
<title>Node380645</title>
<g id="a_node2"><a xlink:href="quickjs_8c.html#a0a8765bd4012467d9139bc24aabcb3ca" target="_top" xlink:title="JS_DefinePropertyValue">
<polygon fill="none" stroke="#000000" points="286,-432.5 286,-451.5 410,-451.5 410,-432.5 286,-432.5"/>
<text text-anchor="middle" x="348" y="-439.5" font-family="Helvetica,sans-Serif" font-size="10.00" fill="#000000">JS_DefinePropertyValue</text>
</a>
</g>
</g>
<!-- Node380644&#45;&gt;Node380645 -->
<g id="edge1" class="edge">
<title>Node380644&#45;&gt;Node380645</title>
<path fill="none" stroke="#191970" d="M102.7224,-343.0207C158.2951,-365.4465 262.0749,-407.3258 315.05,-428.7034"/>
<polygon fill="#191970" stroke="#191970" points="313.7441,-431.9506 324.3273,-432.4471 316.3637,-425.4592 313.7441,-431.9506"/>
</g>
<!-- Node380674 -->
<g id="node14" class="node">
<title>Node380674</title>
<g id="a_node14"><a xlink:href="quickjs_8h.html#afaa20c47565bc704c6c85f3d77254e7d" target="_top" xlink:title="JS_FreeValue">
<polygon fill="none" stroke="#ff0000" points="837.5,-109.5 837.5,-128.5 915.5,-128.5 915.5,-109.5 837.5,-109.5"/>
<text text-anchor="middle" x="876.5" y="-116.5" font-family="Helvetica,sans-Serif" font-size="10.00" fill="#000000">JS_FreeValue</text>
</a>
</g>
</g>
<!-- Node380644&#45;&gt;Node380674 -->
<g id="edge45" class="edge">
<title>Node380644&#45;&gt;Node380674</title>
<path fill="none" stroke="#191970" d="M70.4002,-312.8808C82.0528,-279.0354 114.4365,-196.2841 167,-147 172.3475,-141.9861 278.8517,-91.6237 286,-90 346.9164,-76.1635 524.8551,-63.4877 781,-96 798.7932,-98.2585 818.0849,-102.5432 834.6408,-106.8081"/>
<polygon fill="#191970" stroke="#191970" points="833.9943,-110.2577 844.5578,-109.4427 835.7917,-103.4924 833.9943,-110.2577"/>
</g>
<!-- Node380710 -->
<g id="node15" class="node">
<title>Node380710</title>
<g id="a_node15"><a xlink:href="quickjs_8h.html#ad80a83d73e9b7d872b88fbf2943aebe9" target="_top" xlink:title="JS_IsException">
<polygon fill="none" stroke="#000000" points="833.5,-1059.5 833.5,-1078.5 919.5,-1078.5 919.5,-1059.5 833.5,-1059.5"/>
<text text-anchor="middle" x="876.5" y="-1066.5" font-family="Helvetica,sans-Serif" font-size="10.00" fill="#000000">JS_IsException</text>
</a>
</g>
</g>
<!-- Node380644&#45;&gt;Node380710 -->
<g id="edge52" class="edge">
<title>Node380644&#45;&gt;Node380710</title>
<path fill="none" stroke="#191970" d="M65.6718,-343.1388C67.0258,-438.9671 78.4314,-961.308 167,-1088 219.0543,-1162.4605 257.1483,-1183 348,-1183 348,-1183 348,-1183 515.5,-1183 646.554,-1183 792.4666,-1113.8372 850.5817,-1083.2539"/>
<polygon fill="#191970" stroke="#191970" points="852.2762,-1086.3169 859.4535,-1078.5235 848.9827,-1080.1401 852.2762,-1086.3169"/>
</g>
<!-- Node380673 -->
<g id="node19" class="node">
<title>Node380673</title>
<g id="a_node19"><a xlink:href="quickjs_8h.html#a775522f2d084fc8fa0fcb33f390006b4" target="_top" xlink:title="JS_DupValue">
<polygon fill="none" stroke="#000000" points="838,-983.5 838,-1002.5 915,-1002.5 915,-983.5 838,-983.5"/>
<text text-anchor="middle" x="876.5" y="-990.5" font-family="Helvetica,sans-Serif" font-size="10.00" fill="#000000">JS_DupValue</text>
</a>
</g>
</g>
<!-- Node380644&#45;&gt;Node380673 -->
<g id="edge41" class="edge">
<title>Node380644&#45;&gt;Node380673</title>
<path fill="none" stroke="#191970" d="M68.0472,-343.0084C85.7497,-444.8907 194.2692,-1031 348,-1031 348,-1031 348,-1031 515.5,-1031 627.7428,-1031 758.5428,-1012.6065 827.7483,-1001.4133"/>
<polygon fill="#191970" stroke="#191970" points="828.6054,-1004.8196 837.9085,-999.7499 827.4744,-997.9116 828.6054,-1004.8196"/>
</g>
<!-- Node380842 -->
<g id="node23" class="node">
<title>Node380842</title>
<g id="a_node23"><a xlink:href="quickjs_8c.html#a726b00d108e0a0f4d958c36c2e426a64" target="_top" xlink:title="JS_ThrowTypeErrorNotAnObject">
<polygon fill="none" stroke="#000000" points="621,-147.5 621,-166.5 781,-166.5 781,-147.5 621,-147.5"/>
<text text-anchor="middle" x="701" y="-154.5" font-family="Helvetica,sans-Serif" font-size="10.00" fill="#000000">JS_ThrowTypeErrorNotAnObject</text>
</a>
</g>
</g>
<!-- Node380644&#45;&gt;Node380842 -->
<g id="edge55" class="edge">
<title>Node380644&#45;&gt;Node380842</title>
<path fill="none" stroke="#191970" d="M113.4263,-312.9923C209.1852,-283.3515 431.2773,-216.3347 621,-172 626.0311,-170.8243 631.2569,-169.6785 636.5192,-168.578"/>
<polygon fill="#191970" stroke="#191970" points="637.5394,-171.9423 646.6424,-166.5215 636.1458,-165.0824 637.5394,-171.9423"/>
</g>
<!-- Node380926 -->
<g id="node24" class="node">
<title>Node380926</title>
<g id="a_node24"><a xlink:href="quickjs_8c.html#adfe21c674d998ca6586b7f7400352dc4" target="_top" xlink:title="js_free_desc">
<polygon fill="none" stroke="#000000" points="312,-99.5 312,-118.5 384,-118.5 384,-99.5 312,-99.5"/>
<text text-anchor="middle" x="348" y="-106.5" font-family="Helvetica,sans-Serif" font-size="10.00" fill="#000000">js_free_desc</text>
</a>
</g>
</g>
<!-- Node380644&#45;&gt;Node380926 -->
<g id="edge42" class="edge">
<title>Node380644&#45;&gt;Node380926</title>
<path fill="none" stroke="#191970" d="M74.4264,-312.8279C90.2906,-286.9105 125.6452,-233.655 167,-200 211.1989,-164.0304 271.9521,-137.1401 310.6011,-122.2445"/>
<polygon fill="#191970" stroke="#191970" points="312.2874,-125.3489 320.4052,-118.5406 309.8135,-118.8006 312.2874,-125.3489"/>
</g>
<!-- Node380696 -->
<g id="node25" class="node">
<title>Node380696</title>
<g id="a_node25"><a xlink:href="quickjs_8c.html#ab7fc45a99935a1c0ba50b0216d9401a9" target="_top" xlink:title="JS_FreeAtom">
<polygon fill="none" stroke="#ff0000" points="170,-76.5 170,-95.5 247,-95.5 247,-76.5 170,-76.5"/>
<text text-anchor="middle" x="208.5" y="-83.5" font-family="Helvetica,sans-Serif" font-size="10.00" fill="#000000">JS_FreeAtom</text>
</a>
</g>
</g>
<!-- Node380644&#45;&gt;Node380696 -->
<g id="edge44" class="edge">
<title>Node380644&#45;&gt;Node380696</title>
<path fill="none" stroke="#191970" d="M69.1726,-312.729C79.04,-274.4524 109.3623,-172.9831 167,-110 170.0535,-106.6633 173.6807,-103.6617 177.5005,-101.0034"/>
<polygon fill="#191970" stroke="#191970" points="179.3568,-103.9706 186.0221,-95.7351 175.6758,-98.0166 179.3568,-103.9706"/>
</g>
<!-- Node380913 -->
<g id="node26" class="node">
<title>Node380913</title>
<g id="a_node26"><a xlink:href="quickjs_8c.html#ad13892c0a0f11781b566808876658099" target="_top" xlink:title="JS_GetOwnPropertyInternal">
<polygon fill="none" stroke="#ff0000" points="446,-755.5 446,-774.5 585,-774.5 585,-755.5 446,-755.5"/>
<text text-anchor="middle" x="515.5" y="-762.5" font-family="Helvetica,sans-Serif" font-size="10.00" fill="#000000">JS_GetOwnPropertyInternal</text>
</a>
</g>
</g>
<!-- Node380644&#45;&gt;Node380913 -->
<g id="edge46" class="edge">
<title>Node380644&#45;&gt;Node380913</title>
<path fill="none" stroke="#191970" d="M80.99,-343.0425C149.5922,-409.6629 425.8408,-677.931 498.1214,-748.1234"/>
<polygon fill="#191970" stroke="#191970" points="495.9336,-750.8777 505.5459,-755.3335 500.8103,-745.8559 495.9336,-750.8777"/>
</g>
<!-- Node381017 -->
<g id="node27" class="node">
<title>Node381017</title>
<g id="a_node27"><a xlink:href="quickjs_8h.html#a93abffa925714e249a6aa2f4ae7900f6" target="_top" xlink:title="JS_NewBool">
<polygon fill="none" stroke="#000000" points="171.5,-38.5 171.5,-57.5 245.5,-57.5 245.5,-38.5 171.5,-38.5"/>
<text text-anchor="middle" x="208.5" y="-45.5" font-family="Helvetica,sans-Serif" font-size="10.00" fill="#000000">JS_NewBool</text>
</a>
</g>
</g>
<!-- Node380644&#45;&gt;Node381017 -->
<g id="edge53" class="edge">
<title>Node380644&#45;&gt;Node381017</title>
<path fill="none" stroke="#191970" d="M67.3682,-312.9416C73.5238,-269.3222 96.9461,-141.2735 167,-67 168.3457,-65.5733 169.819,-64.2448 171.3828,-63.009"/>
<polygon fill="#191970" stroke="#191970" points="173.2874,-65.9455 179.7829,-57.5754 169.4854,-60.068 173.2874,-65.9455"/>
</g>
<!-- Node381045 -->
<g id="node28" class="node">
<title>Node381045</title>
<g id="a_node28"><a xlink:href="quickjs_8c.html#afc0d8ea75588216ec132a6e1655524a7" target="_top" xlink:title="JS_NewObject">
<polygon fill="none" stroke="#ff0000" points="167,-.5 167,-19.5 250,-19.5 250,-.5 167,-.5"/>
<text text-anchor="middle" x="208.5" y="-7.5" font-family="Helvetica,sans-Serif" font-size="10.00" fill="#000000">JS_NewObject</text>
</a>
</g>
</g>
<!-- Node380644&#45;&gt;Node381045 -->
<g id="edge54" class="edge">
<title>Node380644&#45;&gt;Node381045</title>
<path fill="none" stroke="#191970" d="M66.5063,-312.8622C70.4486,-265.1063 88.755,-115.6703 167,-29 168.1682,-27.706 169.4421,-26.4941 170.7949,-25.3597"/>
<polygon fill="#191970" stroke="#191970" points="172.885,-28.1718 179.2192,-19.679 168.9713,-22.3681 172.885,-28.1718"/>
</g>
<!-- Node380877 -->
<g id="node29" class="node">
<title>Node380877</title>
<g id="a_node29"><a xlink:href="quickjs_8c.html#a710289a14c2810467e5b448d3c28bd55" target="_top" xlink:title="JS_ToObject">
<polygon fill="none" stroke="#ff0000" points="171.5,-1059.5 171.5,-1078.5 245.5,-1078.5 245.5,-1059.5 171.5,-1059.5"/>
<text text-anchor="middle" x="208.5" y="-1066.5" font-family="Helvetica,sans-Serif" font-size="10.00" fill="#000000">JS_ToObject</text>
</a>
</g>
</g>
<!-- Node380644&#45;&gt;Node380877 -->
<g id="edge56" class="edge">
<title>Node380644&#45;&gt;Node380877</title>
<path fill="none" stroke="#191970" d="M65.8746,-343.1296C68.4193,-435.5817 85.6087,-924.3688 167,-1045 169.2403,-1048.3203 172.1048,-1051.2404 175.2798,-1053.7935"/>
<polygon fill="#191970" stroke="#191970" points="173.3795,-1056.7333 183.6327,-1059.4024 177.2819,-1050.9219 173.3795,-1056.7333"/>
</g>
<!-- Node380795 -->
<g id="node30" class="node">
<title>Node380795</title>
<g id="a_node30"><a xlink:href="quickjs_8c.html#a859d5c989a2aaecef1653b3ac279e108" target="_top" xlink:title="JS_ValueToAtom">
<polygon fill="none" stroke="#ff0000" points="301.5,-1211.5 301.5,-1230.5 394.5,-1230.5 394.5,-1211.5 301.5,-1211.5"/>
<text text-anchor="middle" x="348" y="-1218.5" font-family="Helvetica,sans-Serif" font-size="10.00" fill="#000000">JS_ValueToAtom</text>
</a>
</g>
</g>
<!-- Node380644&#45;&gt;Node380795 -->
<g id="edge61" class="edge">
<title>Node380644&#45;&gt;Node380795</title>
<path fill="none" stroke="#191970" d="M66.1731,-343.2998C71.1977,-454.2901 104.3922,-1133.4107 167,-1197 198.6754,-1229.172 251.1319,-1232.9742 291.4408,-1230.016"/>
<polygon fill="#191970" stroke="#191970" points="291.7556,-1233.5019 301.407,-1229.1314 291.1367,-1226.5293 291.7556,-1233.5019"/>
</g>
<!-- Node380646 -->
<g id="node3" class="node">
<title>Node380646</title>
<g id="a_node3"><a xlink:href="quickjs_8c.html#ab50618f1bf78e444caa6da0e3e2785d7" target="_top" xlink:title="JS_DefineProperty">
<polygon fill="none" stroke="#ff0000" points="466,-565.5 466,-584.5 565,-584.5 565,-565.5 466,-565.5"/>
<text text-anchor="middle" x="515.5" y="-572.5" font-family="Helvetica,sans-Serif" font-size="10.00" fill="#000000">JS_DefineProperty</text>
</a>
</g>
</g>
<!-- Node380645&#45;&gt;Node380646 -->
<g id="edge2" class="edge">
<title>Node380645&#45;&gt;Node380646</title>
<path fill="none" stroke="#191970" d="M360.0462,-451.565C388.3984,-474.0776 459.6078,-530.6199 494.9472,-558.6805"/>
<polygon fill="#191970" stroke="#191970" points="493.1031,-561.6854 503.111,-565.1628 497.456,-556.2034 493.1031,-561.6854"/>
</g>
<!-- Node380645&#45;&gt;Node380674 -->
<g id="edge40" class="edge">
<title>Node380645&#45;&gt;Node380674</title>
<path fill="none" stroke="#191970" d="M353.0454,-432.2218C376.3308,-388.266 478.3856,-208.0641 621,-138 686.6849,-105.7301 773.4761,-107.0917 827.1116,-112.1844"/>
<polygon fill="#191970" stroke="#191970" points="827.0741,-115.6991 837.3805,-113.2439 827.7925,-108.736 827.0741,-115.6991"/>
</g>
<!-- Node380647 -->
<g id="node4" class="node">
<title>Node380647</title>
<g id="a_node4"><a xlink:href="quickjs_8c.html#a014abd680db53ab89cb133345742a59c" target="_top" xlink:title="__attribute__">
<polygon fill="none" stroke="#ff0000" points="840,-701.5 840,-720.5 913,-720.5 913,-701.5 840,-701.5"/>
<text text-anchor="middle" x="876.5" y="-708.5" font-family="Helvetica,sans-Serif" font-size="10.00" fill="#000000">__attribute__</text>
</a>
</g>
</g>
<!-- Node380646&#45;&gt;Node380647 -->
<g id="edge3" class="edge">
<title>Node380646&#45;&gt;Node380647</title>
<path fill="none" stroke="#191970" d="M517.938,-584.7882C526.1686,-615.4575 556.1182,-709.7929 621,-746 695.4051,-787.5215 800.387,-747.9652 849.3632,-724.9318"/>
<polygon fill="#191970" stroke="#191970" points="850.9033,-728.0749 858.3861,-720.5744 847.8591,-721.7715 850.9033,-728.0749"/>
</g>
<!-- Node380715 -->
<g id="node5" class="node">
<title>Node380715</title>
<g id="a_node5"><a xlink:href="quickjs_8c.html#a288254c06a39c9fca740a7abdad2834e" target="_top" xlink:title="__JS_AtomIsTaggedInt">
<polygon fill="none" stroke="#000000" points="817,-394.5 817,-413.5 936,-413.5 936,-394.5 817,-394.5"/>
<text text-anchor="middle" x="876.5" y="-401.5" font-family="Helvetica,sans-Serif" font-size="10.00" fill="#000000">__JS_AtomIsTaggedInt</text>
</a>
</g>
</g>
<!-- Node380646&#45;&gt;Node380715 -->
<g id="edge4" class="edge">
<title>Node380646&#45;&gt;Node380715</title>
<path fill="none" stroke="#191970" d="M518.1858,-565.118C526.9566,-535.0353 557.8948,-444.4734 621,-409 685.8542,-372.5434 775.3752,-381.703 829.4189,-392.3603"/>
<polygon fill="#191970" stroke="#191970" points="828.9082,-395.8287 839.41,-394.4277 830.3267,-388.9739 828.9082,-395.8287"/>
</g>
<!-- Node380716 -->
<g id="node6" class="node">
<title>Node380716</title>
<g id="a_node6"><a xlink:href="quickjs_8c.html#a89f38938cee8077ce1fbba07946ed185" target="_top" xlink:title="__JS_AtomToUInt32">
<polygon fill="none" stroke="#000000" points="822.5,-337.5 822.5,-356.5 930.5,-356.5 930.5,-337.5 822.5,-337.5"/>
<text text-anchor="middle" x="876.5" y="-344.5" font-family="Helvetica,sans-Serif" font-size="10.00" fill="#000000">__JS_AtomToUInt32</text>
</a>
</g>
</g>
<!-- Node380646&#45;&gt;Node380716 -->
<g id="edge5" class="edge">
<title>Node380646&#45;&gt;Node380716</title>
<path fill="none" stroke="#191970" d="M517.5567,-565.275C527.5077,-519.2338 572.1777,-323.9872 621,-290 679.3621,-249.3718 712.4473,-271.0973 781,-290 809.7933,-297.9394 838.6586,-317.0957 856.9959,-331.0145"/>
<polygon fill="#191970" stroke="#191970" points="855.0718,-333.9529 865.1058,-337.3545 859.3832,-328.4381 855.0718,-333.9529"/>
</g>
<!-- Node381072 -->
<g id="node7" class="node">
<title>Node381072</title>
<g id="a_node7"><a xlink:href="quickjs_8c.html#a68c7ae36cec3bf8bbf6cc0868a71cc4b" target="_top" xlink:title="check_define_prop_flags">
<polygon fill="none" stroke="#000000" points="638.5,-717.5 638.5,-736.5 763.5,-736.5 763.5,-717.5 638.5,-717.5"/>
<text text-anchor="middle" x="701" y="-724.5" font-family="Helvetica,sans-Serif" font-size="10.00" fill="#000000">check_define_prop_flags</text>
</a>
</g>
</g>
<!-- Node380646&#45;&gt;Node381072 -->
<g id="edge6" class="edge">
<title>Node380646&#45;&gt;Node381072</title>
<path fill="none" stroke="#191970" d="M520.1394,-584.5088C532.6774,-609.1477 569.7769,-675.4065 621,-708 624.3591,-710.1374 627.9358,-712.0346 631.6429,-713.7186"/>
<polygon fill="#191970" stroke="#191970" points="630.4913,-717.0273 641.0764,-717.4805 633.0843,-710.5252 630.4913,-717.0273"/>
</g>
<!-- Node380936 -->
<g id="node8" class="node">
<title>Node380936</title>
<g id="a_node8"><a xlink:href="quickjs_8c.html#ac93c982cb636a5430b191d104083af3e" target="_top" xlink:title="convert_fast_array\l_to_array">
<polygon fill="none" stroke="#ff0000" points="827.5,-594 827.5,-624 925.5,-624 925.5,-594 827.5,-594"/>
<text text-anchor="start" x="835.5" y="-612" font-family="Helvetica,sans-Serif" font-size="10.00" fill="#000000">convert_fast_array</text>
<text text-anchor="middle" x="876.5" y="-601" font-family="Helvetica,sans-Serif" font-size="10.00" fill="#000000">_to_array</text>
</a>
</g>
</g>
<!-- Node380646&#45;&gt;Node380936 -->
<g id="edge7" class="edge">
<title>Node380646&#45;&gt;Node380936</title>
<path fill="none" stroke="#191970" d="M561.5395,-584.5248C579.9563,-588.0114 601.4109,-591.6695 621,-594 688.0116,-601.9723 765.438,-605.7647 817.3364,-607.5308"/>
<polygon fill="#191970" stroke="#191970" points="817.2564,-611.0299 827.3651,-607.8576 817.4845,-604.0337 817.2564,-611.0299"/>
</g>
<!-- Node380664 -->
<g id="node9" class="node">
<title>Node380664</title>
<g id="a_node9"><a xlink:href="quickjs_8c.html#a06b76f5124fd985e35f4c652fd018d6d" target="_top" xlink:title="find_own_property">
<polygon fill="none" stroke="#ff0000" points="653,-869.5 653,-888.5 749,-888.5 749,-869.5 653,-869.5"/>
<text text-anchor="middle" x="701" y="-876.5" font-family="Helvetica,sans-Serif" font-size="10.00" fill="#000000">find_own_property</text>
</a>
</g>
</g>
<!-- Node380646&#45;&gt;Node380664 -->
<g id="edge8" class="edge">
<title>Node380646&#45;&gt;Node380664</title>
<path fill="none" stroke="#191970" d="M519.6467,-584.5537C530.7917,-610.3639 562.0971,-683.7443 585,-746 602.6147,-793.881 584.4313,-819.4248 621,-855 627.2004,-861.032 634.8553,-865.5559 642.9502,-868.9472"/>
<polygon fill="#191970" stroke="#191970" points="641.9998,-872.3252 652.5942,-872.4304 644.3778,-865.7414 641.9998,-872.3252"/>
</g>
<!-- Node380665 -->
<g id="node10" class="node">
<title>Node380665</title>
<g id="a_node10"><a xlink:href="quickjs_8c.html#a643df594b75933007bcdbb071b5ea8c5" target="_top" xlink:title="get_shape_prop">
<polygon fill="none" stroke="#000000" points="833.5,-793.5 833.5,-812.5 919.5,-812.5 919.5,-793.5 833.5,-793.5"/>
<text text-anchor="middle" x="876.5" y="-800.5" font-family="Helvetica,sans-Serif" font-size="10.00" fill="#000000">get_shape_prop</text>
</a>
</g>
</g>
<!-- Node380646&#45;&gt;Node380665 -->
<g id="edge12" class="edge">
<title>Node380646&#45;&gt;Node380665</title>
<path fill="none" stroke="#191970" d="M517.5254,-584.7399C524.8332,-617.2019 553.0859,-722.2873 621,-769 680.9219,-810.2155 767.7393,-812.8023 823.1505,-809.1963"/>
<polygon fill="#191970" stroke="#191970" points="823.7439,-812.662 833.4571,-808.4306 823.2253,-805.6812 823.7439,-812.662"/>
</g>
<!-- Node380691 -->
<g id="node11" class="node">
<title>Node380691</title>
<g id="a_node11"><a xlink:href="quickjs_8c.html#a9e7b4bccf927d811b0f99b40b08c0472" target="_top" xlink:title="free_var_ref">
<polygon fill="none" stroke="#ff0000" points="667,-679.5 667,-698.5 735,-698.5 735,-679.5 667,-679.5"/>
<text text-anchor="middle" x="701" y="-686.5" font-family="Helvetica,sans-Serif" font-size="10.00" fill="#000000">free_var_ref</text>
</a>
</g>
</g>
<!-- Node380646&#45;&gt;Node380691 -->
<g id="edge10" class="edge">
<title>Node380646&#45;&gt;Node380691</title>
<path fill="none" stroke="#191970" d="M523.1194,-584.511C539.1048,-603.7931 578.2202,-647.558 621,-670 632.0612,-675.8026 644.907,-679.8583 657.0253,-682.6833"/>
<polygon fill="#191970" stroke="#191970" points="656.4719,-686.1435 666.9784,-684.7782 657.9137,-679.2935 656.4719,-686.1435"/>
</g>
<!-- Node380937 -->
<g id="node12" class="node">
<title>Node380937</title>
<g id="a_node12"><a xlink:href="quickjs_8c.html#a6df3ef223d7e76a0db2c14d972dbfa77" target="_top" xlink:title="get_prop_flags">
<polygon fill="none" stroke="#000000" points="836.5,-547.5 836.5,-566.5 916.5,-566.5 916.5,-547.5 836.5,-547.5"/>
<text text-anchor="middle" x="876.5" y="-554.5" font-family="Helvetica,sans-Serif" font-size="10.00" fill="#000000">get_prop_flags</text>
</a>
</g>
</g>
<!-- Node380646&#45;&gt;Node380937 -->
<g id="edge11" class="edge">
<title>Node380646&#45;&gt;Node380937</title>
<path fill="none" stroke="#191970" d="M558.3822,-565.4884C577.4502,-561.7231 600.2388,-557.8546 621,-556 691.8291,-549.6729 709.8899,-555.6277 781,-556 795.5429,-556.0761 811.3311,-556.2175 825.804,-556.3704"/>
<polygon fill="#191970" stroke="#191970" points="826.0357,-559.8731 836.0735,-556.4831 826.1125,-552.8735 826.0357,-559.8731"/>
</g>
<!-- Node380768 -->
<g id="node13" class="node">
<title>Node380768</title>
<g id="a_node13"><a xlink:href="quickjs_8c.html#ab4e100a9cde5f7ec87c92f5e766dbbab" target="_top" xlink:title="JS_AtomIsNumericIndex1">
<polygon fill="none" stroke="#ff0000" points="635.5,-299.5 635.5,-318.5 766.5,-318.5 766.5,-299.5 635.5,-299.5"/>
<text text-anchor="middle" x="701" y="-306.5" font-family="Helvetica,sans-Serif" font-size="10.00" fill="#000000">JS_AtomIsNumericIndex1</text>
</a>
</g>
</g>
<!-- Node380646&#45;&gt;Node380768 -->
<g id="edge13" class="edge">
<title>Node380646&#45;&gt;Node380768</title>
<path fill="none" stroke="#191970" d="M516.7686,-565.4696C522.0861,-529.3549 545.9084,-399.6043 621,-333 625.6986,-328.8325 631.0972,-325.3882 636.8246,-322.5416"/>
<polygon fill="#191970" stroke="#191970" points="638.2613,-325.7336 646.042,-318.5425 635.4751,-319.312 638.2613,-325.7336"/>
</g>
<!-- Node380646&#45;&gt;Node380674 -->
<g id="edge33" class="edge">
<title>Node380646&#45;&gt;Node380674</title>
<path fill="none" stroke="#191970" d="M517.065,-565.3381C525.6181,-513.6683 568.2616,-270.4075 621,-219 673.7285,-167.6022 713.1876,-204.6967 781,-176 807.7423,-164.6833 836.0227,-146.9914 854.8049,-134.3203"/>
<polygon fill="#191970" stroke="#191970" points="856.9466,-137.0955 863.2139,-128.5532 852.9874,-131.3227 856.9466,-137.0955"/>
</g>
<!-- Node380646&#45;&gt;Node380710 -->
<g id="edge34" class="edge">
<title>Node380646&#45;&gt;Node380710</title>
<path fill="none" stroke="#191970" d="M520.1184,-584.825C532.1479,-610.7105 564.9059,-683.1181 585,-746 606.1321,-812.1301 571.9248,-848.8942 621,-898 672.6657,-949.6979 724.2047,-889.9965 781,-936 810.0434,-959.5248 795.1433,-981.6813 817,-1012 828.0109,-1027.2739 843.4285,-1041.9099 855.8105,-1052.5261"/>
<polygon fill="#191970" stroke="#191970" points="853.8841,-1055.4769 863.8062,-1059.1921 858.3665,-1050.1002 853.8841,-1055.4769"/>
</g>
<!-- Node380770 -->
<g id="node16" class="node">
<title>Node380770</title>
<g id="a_node16"><a xlink:href="quickjs_8h.html#a2050bc428da1c65ac7eb87c3fa3b0392" target="_top" xlink:title="JS_NewInt32">
<polygon fill="none" stroke="#000000" points="972,-375.5 972,-394.5 1048,-394.5 1048,-375.5 972,-375.5"/>
<text text-anchor="middle" x="1010" y="-382.5" font-family="Helvetica,sans-Serif" font-size="10.00" fill="#000000">JS_NewInt32</text>
</a>
</g>
</g>
<!-- Node380646&#45;&gt;Node380770 -->
<g id="edge37" class="edge">
<title>Node380646&#45;&gt;Node380770</title>
<path fill="none" stroke="#191970" d="M517.2197,-565.3218C526.0715,-516.7046 568.1362,-299.9676 621,-262 735.5791,-179.7074 815.555,-227.5599 936,-301 963.2371,-317.6076 985.9685,-347.4512 998.7747,-366.7302"/>
<polygon fill="#191970" stroke="#191970" points="995.8919,-368.7183 1004.2404,-375.2415 1001.782,-364.9359 995.8919,-368.7183"/>
</g>
<!-- Node380789 -->
<g id="node17" class="node">
<title>Node380789</title>
<g id="a_node17"><a xlink:href="quickjs_8c.html#a8aac7988cf0c6f3c2b629a6662fd7ec8" target="_top" xlink:title="JS_AutoInitProperty">
<polygon fill="none" stroke="#ff0000" points="649,-945.5 649,-964.5 753,-964.5 753,-945.5 649,-945.5"/>
<text text-anchor="middle" x="701" y="-952.5" font-family="Helvetica,sans-Serif" font-size="10.00" fill="#000000">JS_AutoInitProperty</text>
</a>
</g>
</g>
<!-- Node380646&#45;&gt;Node380789 -->
<g id="edge19" class="edge">
<title>Node380646&#45;&gt;Node380789</title>
<path fill="none" stroke="#191970" d="M520.2641,-584.7801C532.6453,-610.5571 566.179,-682.7254 585,-746 608.8817,-826.288 564.781,-868.904 621,-931 626.085,-936.6166 632.4269,-940.9402 639.3007,-944.2647"/>
<polygon fill="#191970" stroke="#191970" points="638.3552,-947.6594 648.9359,-948.2065 641.0057,-941.1806 638.3552,-947.6594"/>
</g>
<!-- Node380935 -->
<g id="node18" class="node">
<title>Node380935</title>
<g id="a_node18"><a xlink:href="quickjs_8c.html#ad5565bb5cfd5321f181573257f3b0c91" target="_top" xlink:title="JS_CreateProperty">
<polygon fill="none" stroke="#ff0000" points="651,-565.5 651,-584.5 751,-584.5 751,-565.5 651,-565.5"/>
<text text-anchor="middle" x="701" y="-572.5" font-family="Helvetica,sans-Serif" font-size="10.00" fill="#000000">JS_CreateProperty</text>
</a>
</g>
</g>
<!-- Node380646&#45;&gt;Node380935 -->
<g id="edge21" class="edge">
<title>Node380646&#45;&gt;Node380935</title>
<path fill="none" stroke="#191970" d="M565.2106,-575C588.4049,-575 616.2133,-575 640.6075,-575"/>
<polygon fill="#191970" stroke="#191970" points="640.8297,-578.5001 650.8297,-575 640.8296,-571.5001 640.8297,-578.5001"/>
</g>
<!-- Node380646&#45;&gt;Node380673 -->
<g id="edge32" class="edge">
<title>Node380646&#45;&gt;Node380673</title>
<path fill="none" stroke="#191970" d="M519.412,-584.572C536.316,-625.7664 603.0408,-786.6074 621,-803 676.7551,-853.8914 720.6835,-814.6074 781,-860 822.4688,-891.2084 853.3628,-945.5516 867.6727,-974.1562"/>
<polygon fill="#191970" stroke="#191970" points="864.665,-975.9748 872.1833,-983.4397 870.9612,-972.9156 864.665,-975.9748"/>
</g>
<!-- Node380887 -->
<g id="node20" class="node">
<title>Node380887</title>
<g id="a_node20"><a xlink:href="quickjs_8c.html#a1ca9cdb1fa2ffc3e6506e92b200e490f" target="_top" xlink:title="JS_IsFunction">
<polygon fill="none" stroke="#000000" points="836.5,-493.5 836.5,-512.5 916.5,-512.5 916.5,-493.5 836.5,-493.5"/>
<text text-anchor="middle" x="876.5" y="-500.5" font-family="Helvetica,sans-Serif" font-size="10.00" fill="#000000">JS_IsFunction</text>
</a>
</g>
</g>
<!-- Node380646&#45;&gt;Node380887 -->
<g id="edge35" class="edge">
<title>Node380646&#45;&gt;Node380887</title>
<path fill="none" stroke="#191970" d="M551.987,-565.4023C572.2438,-560.2268 597.9375,-553.9127 621,-549 691.8752,-533.9023 774.5055,-519.6242 826.1687,-511.0915"/>
<polygon fill="#191970" stroke="#191970" points="826.7759,-514.5388 836.0758,-509.463 825.6405,-507.6315 826.7759,-514.5388"/>
</g>
<!-- Node380794 -->
<g id="node21" class="node">
<title>Node380794</title>
<g id="a_node21"><a xlink:href="quickjs_8h.html#a88259aa0da61ac754402c64ccecee116" target="_top" xlink:title="JS_NewUint32">
<polygon fill="none" stroke="#ff0000" points="835,-451.5 835,-470.5 918,-470.5 918,-451.5 835,-451.5"/>
<text text-anchor="middle" x="876.5" y="-458.5" font-family="Helvetica,sans-Serif" font-size="10.00" fill="#000000">JS_NewUint32</text>
</a>
</g>
</g>
<!-- Node380646&#45;&gt;Node380794 -->
<g id="edge38" class="edge">
<title>Node380646&#45;&gt;Node380794</title>
<path fill="none" stroke="#191970" d="M529.1478,-565.3901C548.6266,-552.1165 585.9338,-528.307 621,-515 688.9534,-489.213 771.9941,-474.5465 824.578,-467.1851"/>
<polygon fill="#191970" stroke="#191970" points="825.2394,-470.6274 834.6752,-465.8091 824.2942,-463.6915 825.2394,-470.6274"/>
</g>
<!-- Node380788 -->
<g id="node22" class="node">
<title>Node380788</title>
<g id="a_node22"><a xlink:href="quickjs_8h.html#a4e407128a9605afb77523e49e9a627fd" target="_top" xlink:title="JS_IsUndefined">
<polygon fill="none" stroke="#000000" points="658,-641.5 658,-660.5 744,-660.5 744,-641.5 658,-641.5"/>
<text text-anchor="middle" x="701" y="-648.5" font-family="Helvetica,sans-Serif" font-size="10.00" fill="#000000">JS_IsUndefined</text>
</a>
</g>
</g>
<!-- Node380646&#45;&gt;Node380788 -->
<g id="edge36" class="edge">
<title>Node380646&#45;&gt;Node380788</title>
<path fill="none" stroke="#191970" d="M532.6447,-584.5589C553.194,-595.7534 588.8846,-614.3696 621,-627 631.7501,-631.2278 643.5567,-635.1485 654.7211,-638.5437"/>
<polygon fill="#191970" stroke="#191970" points="653.7421,-641.9039 664.3243,-641.3866 655.7292,-635.1919 653.7421,-641.9039"/>
</g>
<!-- Node380646&#45;&gt;Node380842 -->
<g id="edge39" class="edge">
<title>Node380646&#45;&gt;Node380842</title>
<path fill="none" stroke="#191970" d="M516.7885,-565.4415C524.3207,-510.9025 564.2823,-239.4352 621,-181 624.8504,-177.033 629.3282,-173.7154 634.1612,-170.9415"/>
<polygon fill="#191970" stroke="#191970" points="635.7499,-174.0607 643.1854,-166.5133 632.6662,-167.7765 635.7499,-174.0607"/>
</g>
<!-- Node380664&#45;&gt;Node380665 -->
<g id="edge9" class="edge">
<title>Node380664&#45;&gt;Node380665</title>
<path fill="none" stroke="#191970" d="M723.2272,-869.3745C754.0843,-856.0119 810.056,-831.7735 845.1476,-816.5771"/>
<polygon fill="#191970" stroke="#191970" points="846.6676,-819.733 854.4533,-812.5473 843.8859,-813.3094 846.6676,-819.733"/>
</g>
<!-- Node380768&#45;&gt;Node380715 -->
<g id="edge14" class="edge">
<title>Node380768&#45;&gt;Node380715</title>
<path fill="none" stroke="#191970" d="M718.7937,-318.6319C749.7516,-335.3897 813.6742,-369.9917 849.9119,-389.6076"/>
<polygon fill="#191970" stroke="#191970" points="848.4597,-392.8014 858.9201,-394.4838 851.7921,-386.6454 848.4597,-392.8014"/>
</g>
<!-- Node380768&#45;&gt;Node380716 -->
<g id="edge15" class="edge">
<title>Node380768&#45;&gt;Node380716</title>
<path fill="none" stroke="#191970" d="M745.2861,-318.589C768.7581,-323.6713 797.781,-329.9554 822.5584,-335.3203"/>
<polygon fill="#191970" stroke="#191970" points="822.0182,-338.7844 832.5324,-337.4799 823.4996,-331.9429 822.0182,-338.7844"/>
</g>
<!-- Node380768&#45;&gt;Node380674 -->
<g id="edge16" class="edge">
<title>Node380768&#45;&gt;Node380674</title>
<path fill="none" stroke="#191970" d="M709.9443,-299.3167C737.9855,-268.9587 824.4475,-175.3531 860.4791,-136.3446"/>
<polygon fill="#191970" stroke="#191970" points="863.149,-138.6124 867.3632,-128.8917 858.0069,-133.8627 863.149,-138.6124"/>
</g>
<!-- Node380768&#45;&gt;Node380710 -->
<g id="edge17" class="edge">
<title>Node380768&#45;&gt;Node380710</title>
<path fill="none" stroke="#191970" d="M705.0464,-318.6628C718.5275,-351.3341 762.1263,-460.9442 781,-556 800.7962,-655.7023 773.4448,-920.1556 817,-1012 824.9444,-1028.7524 840.096,-1043.1523 853.1205,-1053.2878"/>
<polygon fill="#191970" stroke="#191970" points="851.1528,-1056.1857 861.2752,-1059.3143 855.3132,-1050.5561 851.1528,-1056.1857"/>
</g>
<!-- Node380768&#45;&gt;Node380770 -->
<g id="edge18" class="edge">
<title>Node380768&#45;&gt;Node380770</title>
<path fill="none" stroke="#191970" d="M766.5328,-304.5022C814.9375,-303.4818 881.5881,-306.9887 936,-328 958.5098,-336.6922 979.8525,-354.5367 993.7801,-367.9576"/>
<polygon fill="#191970" stroke="#191970" points="991.5279,-370.6549 1001.0764,-375.2458 996.4749,-365.7024 991.5279,-370.6549"/>
</g>
<!-- Node380789&#45;&gt;Node380710 -->
<g id="edge20" class="edge">
<title>Node380789&#45;&gt;Node380710</title>
<path fill="none" stroke="#191970" d="M715.6612,-964.5235C746.0396,-984.2565 816.0886,-1029.7584 852.908,-1053.6753"/>
<polygon fill="#191970" stroke="#191970" points="851.2159,-1056.7497 861.5085,-1059.262 855.029,-1050.8794 851.2159,-1056.7497"/>
</g>
<!-- Node380935&#45;&gt;Node380647 -->
<g id="edge22" class="edge">
<title>Node380935&#45;&gt;Node380647</title>
<path fill="none" stroke="#191970" d="M715.0956,-584.5864C731.2528,-595.6793 758.4159,-614.6492 781,-632 808.349,-653.0115 838.8876,-678.6804 857.901,-694.9383"/>
<polygon fill="#191970" stroke="#191970" points="855.6692,-697.6351 865.5371,-701.492 860.2282,-692.3232 855.6692,-697.6351"/>
</g>
<!-- Node380935&#45;&gt;Node380715 -->
<g id="edge23" class="edge">
<title>Node380935&#45;&gt;Node380715</title>
<path fill="none" stroke="#191970" d="M707.7972,-565.4775C724.5451,-542.436 769.8714,-482.5873 817,-442 826.9847,-433.4012 839.0766,-425.3228 849.745,-418.8444"/>
<polygon fill="#191970" stroke="#191970" points="851.8251,-421.6812 858.665,-413.5901 848.2723,-415.6498 851.8251,-421.6812"/>
</g>
<!-- Node380935&#45;&gt;Node380716 -->
<g id="edge24" class="edge">
<title>Node380935&#45;&gt;Node380716</title>
<path fill="none" stroke="#191970" d="M705.0201,-565.2771C717.7353,-535.4162 759.6534,-443.5189 817,-385 825.9574,-375.8595 837.5061,-367.8537 848.0422,-361.5775"/>
<polygon fill="#191970" stroke="#191970" points="849.9803,-364.502 856.9499,-356.5224 846.5253,-358.4141 849.9803,-364.502"/>
</g>
<!-- Node380935&#45;&gt;Node380936 -->
<g id="edge25" class="edge">
<title>Node380935&#45;&gt;Node380936</title>
<path fill="none" stroke="#191970" d="M750.3536,-584.5614C771.0965,-588.5799 795.405,-593.2893 817.1172,-597.4956"/>
<polygon fill="#191970" stroke="#191970" points="816.7299,-600.9856 827.2131,-599.4515 818.0613,-594.1134 816.7299,-600.9856"/>
</g>
<!-- Node380935&#45;&gt;Node380665 -->
<g id="edge27" class="edge">
<title>Node380935&#45;&gt;Node380665</title>
<path fill="none" stroke="#191970" d="M720.696,-584.6166C738.6834,-594.3115 764.8598,-610.8516 781,-632 809.1511,-668.8863 794.0266,-689.6849 817,-730 828.9098,-750.8999 846.7824,-771.8882 859.8305,-785.9603"/>
<polygon fill="#191970" stroke="#191970" points="857.4551,-788.5421 866.8739,-793.3936 862.5363,-783.7273 857.4551,-788.5421"/>
</g>
<!-- Node380935&#45;&gt;Node380937 -->
<g id="edge26" class="edge">
<title>Node380935&#45;&gt;Node380937</title>
<path fill="none" stroke="#191970" d="M751.2913,-569.8419C774.761,-567.4348 802.6319,-564.5762 826.1135,-562.1678"/>
<polygon fill="#191970" stroke="#191970" points="826.6306,-565.6333 836.2213,-561.1312 825.9163,-558.6698 826.6306,-565.6333"/>
</g>
<!-- Node380935&#45;&gt;Node380673 -->
<g id="edge28" class="edge">
<title>Node380935&#45;&gt;Node380673</title>
<path fill="none" stroke="#191970" d="M722.5978,-584.585C741.1034,-593.9577 766.931,-610.0258 781,-632 827.3429,-704.3823 794.8174,-738.9651 817,-822 832.0151,-878.2051 856.4186,-942.5191 868.7876,-973.8402"/>
<polygon fill="#191970" stroke="#191970" points="865.5387,-975.1423 872.49,-983.138 872.0421,-972.5526 865.5387,-975.1423"/>
</g>
<!-- Node380935&#45;&gt;Node380887 -->
<g id="edge29" class="edge">
<title>Node380935&#45;&gt;Node380887</title>
<path fill="none" stroke="#191970" d="M724.305,-565.439C754.9872,-552.8514 809.0967,-530.6526 843.8463,-516.3964"/>
<polygon fill="#191970" stroke="#191970" points="845.1753,-519.6343 853.0986,-512.6006 842.5184,-513.1581 845.1753,-519.6343"/>
</g>
<!-- Node380935&#45;&gt;Node380794 -->
<g id="edge30" class="edge">
<title>Node380935&#45;&gt;Node380794</title>
<path fill="none" stroke="#191970" d="M711.1148,-565.3361C730.3894,-547.3338 774.2789,-508.2926 817,-484 823.3539,-480.387 830.3864,-477.1081 837.3253,-474.2314"/>
<polygon fill="#191970" stroke="#191970" points="838.6299,-477.4793 846.6567,-470.5641 836.0695,-470.9644 838.6299,-477.4793"/>
</g>
<!-- Node380794&#45;&gt;Node380770 -->
<g id="edge31" class="edge">
<title>Node380794&#45;&gt;Node380770</title>
<path fill="none" stroke="#191970" d="M893.4079,-451.3745C916.3788,-438.2975 957.6463,-414.8043 984.4182,-399.5634"/>
<polygon fill="#191970" stroke="#191970" points="986.2706,-402.5364 993.2294,-394.5473 982.8074,-396.4531 986.2706,-402.5364"/>
</g>
<!-- Node380926&#45;&gt;Node380674 -->
<g id="edge43" class="edge">
<title>Node380926&#45;&gt;Node380674</title>
<path fill="none" stroke="#191970" d="M384.2739,-106.6614C458.7458,-102.3019 634.231,-94.2992 781,-105 796.0728,-106.0989 812.3781,-108.1611 827.1768,-110.3715"/>
<polygon fill="#191970" stroke="#191970" points="826.7299,-113.8439 837.1477,-111.9154 827.8011,-106.9264 826.7299,-113.8439"/>
</g>
<!-- Node380913&#45;&gt;Node380715 -->
<g id="edge47" class="edge">
<title>Node380913&#45;&gt;Node380715</title>
<path fill="none" stroke="#191970" d="M518.2956,-755.1046C527.8064,-722.9149 561.6594,-619.596 621,-556 685.3087,-487.0797 787.898,-439.1353 841.4183,-417.3152"/>
<polygon fill="#191970" stroke="#191970" points="842.8411,-420.5157 850.8204,-413.5458 840.2361,-414.0184 842.8411,-420.5157"/>
</g>
<!-- Node380913&#45;&gt;Node380716 -->
<g id="edge48" class="edge">
<title>Node380913&#45;&gt;Node380716</title>
<path fill="none" stroke="#191970" d="M520.1184,-755.175C532.1479,-729.2895 564.9059,-656.8819 585,-594 606.1321,-527.8699 575.0305,-494.0246 621,-442 669.8499,-386.7157 753.9491,-363.5342 812.2536,-353.8581"/>
<polygon fill="#191970" stroke="#191970" points="813.1263,-357.2641 822.4634,-352.2572 812.042,-350.3486 813.1263,-357.2641"/>
</g>
<!-- Node380913&#45;&gt;Node380664 -->
<g id="edge49" class="edge">
<title>Node380913&#45;&gt;Node380664</title>
<path fill="none" stroke="#191970" d="M524.11,-774.6301C540.9542,-792.9048 580.1978,-832.7696 621,-855 629.2288,-859.4833 638.4012,-863.2326 647.5163,-866.3326"/>
<polygon fill="#191970" stroke="#191970" points="646.7472,-869.7604 657.3374,-869.4457 648.8624,-863.0876 646.7472,-869.7604"/>
</g>
<!-- Node380913&#45;&gt;Node380789 -->
<g id="edge50" class="edge">
<title>Node380913&#45;&gt;Node380789</title>
<path fill="none" stroke="#191970" d="M518.8087,-774.5529C529.1351,-802.9398 563.5569,-887.5076 621,-931 626.7225,-935.3327 633.223,-938.8872 639.9868,-941.8024"/>
<polygon fill="#191970" stroke="#191970" points="638.7349,-945.0709 649.3248,-945.3945 641.2482,-938.5376 638.7349,-945.0709"/>
</g>
<!-- Node380913&#45;&gt;Node380673 -->
<g id="edge51" class="edge">
<title>Node380913&#45;&gt;Node380673</title>
<path fill="none" stroke="#191970" d="M516.9925,-774.6635C522.8474,-808.9049 547.6505,-925.0182 621,-974 682.6828,-1015.191 772.4151,-1010.7817 827.4835,-1002.7011"/>
<polygon fill="#191970" stroke="#191970" points="828.3439,-1006.1092 837.682,-1001.1043 827.261,-999.1934 828.3439,-1006.1092"/>
</g>
<!-- Node380877&#45;&gt;Node380645 -->
<g id="edge57" class="edge">
<title>Node380877&#45;&gt;Node380645</title>
<path fill="none" stroke="#191970" d="M210.6912,-1059.1513C226.3956,-988.5659 321.8227,-559.657 343.5847,-461.8453"/>
<polygon fill="#191970" stroke="#191970" points="347.0582,-462.3485 345.8136,-451.827 340.2253,-460.8282 347.0582,-462.3485"/>
</g>
<!-- Node380877&#45;&gt;Node380710 -->
<g id="edge59" class="edge">
<title>Node380877&#45;&gt;Node380710</title>
<path fill="none" stroke="#191970" d="M245.7649,-1077.1236C258.4646,-1079.5198 272.7905,-1081.8165 286,-1083 505.1222,-1102.6328 561.5824,-1098.9975 781,-1083 794.7175,-1081.9999 809.4558,-1080.2019 823.1503,-1078.2206"/>
<polygon fill="#191970" stroke="#191970" points="824.0174,-1081.6295 833.3849,-1076.6798 822.9752,-1074.7075 824.0174,-1081.6295"/>
</g>
<!-- Node380877&#45;&gt;Node380770 -->
<g id="edge60" class="edge">
<title>Node380877&#45;&gt;Node380770</title>
<path fill="none" stroke="#191970" d="M229.0119,-1078.5455C324.9816,-1121.6445 733.5042,-1287.521 936,-1088 986.0796,-1038.6561 1005.7964,-514.3795 1009.3814,-404.9487"/>
<polygon fill="#191970" stroke="#191970" points="1012.8882,-404.7888 1009.7097,-394.682 1005.8918,-404.565 1012.8882,-404.7888"/>
</g>
<!-- Node380877&#45;&gt;Node380673 -->
<g id="edge58" class="edge">
<title>Node380877&#45;&gt;Node380673</title>
<path fill="none" stroke="#191970" d="M245.5597,-1073.1379C338.0056,-1082.2508 585.4276,-1099.1799 781,-1045 808.3608,-1037.4202 836.5329,-1020.8002 855.1206,-1008.3775"/>
<polygon fill="#191970" stroke="#191970" points="857.1658,-1011.2189 863.43,-1002.6742 853.2046,-1005.4475 857.1658,-1011.2189"/>
</g>
<!-- Node380795&#45;&gt;Node380710 -->
<g id="edge62" class="edge">
<title>Node380795&#45;&gt;Node380710</title>
<path fill="none" stroke="#191970" d="M394.368,-1230.5262C477.4947,-1245.1016 654.9576,-1264.6487 781,-1197 825.8206,-1172.9442 855.4486,-1117.625 868.6394,-1088.2095"/>
<polygon fill="#191970" stroke="#191970" points="872.0152,-1089.2191 872.7532,-1078.65 865.5853,-1086.4521 872.0152,-1089.2191"/>
</g>
</g>
</svg>
        <g id="navigator" transform="translate(0 0)" fill="#404254">
                <rect fill="#f2f5e9" fill-opacity="0.5" stroke="#606060" stroke-width=".5" x="0" y="0" width="60" height="60"/>
                <use id="zoomplus" xlink:href="#zoomPlus" x="17" y="9" onmousedown="handleZoom(evt,'in')"/>
                <use id="zoomminus" xlink:href="#zoomMin" x="42" y="9" onmousedown="handleZoom(evt,'out')"/>
                <use id="reset" xlink:href="#resetDef" x="30" y="36" onmousedown="handleReset()"/>
                <g id="arrowUp" xlink:href="#dirArrow" transform="translate(30 24)" onmousedown="handlePan(0,-1)">
                  <use xlink:href="#rim" fill="#404040">
                        <set attributeName="fill" to="#808080" begin="arrowUp.mouseover" end="arrowUp.mouseout"/>
                  </use>
                  <path fill="none" stroke="white" stroke-width="1.5" d="M0,-3.0v7 M-2.5,-0.5L0,-3.0L2.5,-0.5"/>
                </g>
                <g id="arrowRight" xlink:href="#dirArrow" transform="rotate(90) translate(36 -43)" onmousedown="handlePan(1,0)">
                  <use xlink:href="#rim" fill="#404040">
                        <set attributeName="fill" to="#808080" begin="arrowRight.mouseover" end="arrowRight.mouseout"/>
                  </use>
                  <path fill="none" stroke="white" stroke-width="1.5" d="M0,-3.0v7 M-2.5,-0.5L0,-3.0L2.5,-0.5"/>
                </g>
                <g id="arrowDown" xlink:href="#dirArrow" transform="rotate(180) translate(-30 -48)" onmousedown="handlePan(0,1)">
                  <use xlink:href="#rim" fill="#404040">
                        <set attributeName="fill" to="#808080" begin="arrowDown.mouseover" end="arrowDown.mouseout"/>
                  </use>
                  <path fill="none" stroke="white" stroke-width="1.5" d="M0,-3.0v7 M-2.5,-0.5L0,-3.0L2.5,-0.5"/>
                </g>
                <g id="arrowLeft" xlink:href="#dirArrow" transform="rotate(270) translate(-36 17)" onmousedown="handlePan(-1,0)">
                  <use xlink:href="#rim" fill="#404040">
                        <set attributeName="fill" to="#808080" begin="arrowLeft.mouseover" end="arrowLeft.mouseout"/>
                  </use>
                  <path fill="none" stroke="white" stroke-width="1.5" d="M0,-3.0v7 M-2.5,-0.5L0,-3.0L2.5,-0.5"/>
                </g>
        </g>
        <svg viewBox="0 0 15 15" width="100%" height="30px" preserveAspectRatio="xMaxYMin meet">
         <g id="arrow_out" transform="scale(0.3 0.3)">
          <a xlink:href="quickjs_8c_a5f75fb513884286c86db6863663f262a_cgraph_org.svg" target="_base">
           <rect id="button" ry="5" rx="5" y="6" x="6" height="38" width="38"
                fill="#f2f5e9" fill-opacity="0.5" stroke="#606060" stroke-width="1.0"/>
           <path id="arrow"
             d="M 11.500037,31.436501 C 11.940474,20.09759 22.043105,11.32322 32.158766,21.979434 L 37.068811,17.246167 C 37.068811,17.246167 37.088388,32 37.088388,32 L 22.160133,31.978069 C 22.160133,31.978069 26.997745,27.140456 26.997745,27.140456 C 18.528582,18.264221 13.291696,25.230495 11.500037,31.436501 z"
             style="fill:#404040;"/>
          </a>
         </g>
        </svg>
</svg>
