<?xml version="1.0" encoding="UTF-8" standalone="no"?>
<!DOCTYPE svg PUBLIC "-//W3C//DTD SVG 1.1//EN"
 "http://www.w3.org/Graphics/SVG/1.1/DTD/svg11.dtd">
<!-- Generated by graphviz version 2.40.1 (20161225.0304)
 -->
<!-- Title: js_free_shape0 Pages: 1 -->
<!--zoomable 721 -->
<svg id="main" version="1.1" xmlns="http://www.w3.org/2000/svg" xmlns:xlink="http://www.w3.org/1999/xlink" xml:space="preserve" onload="init(evt)">
<style type="text/css"><![CDATA[
.edge:hover path { stroke: red; }
.edge:hover polygon { stroke: red; fill: red; }
]]></style>
<script type="text/javascript"><![CDATA[
var edges = document.getElementsByTagName('g');
if (edges && edges.length) {
  for (var i=0;i<edges.length;i++) {
    if (edges[i].id.substr(0,4)=='edge') {
      edges[i].setAttribute('class','edge');
    }
  }
}
]]></script>
        <defs>
                <circle id="rim" cx="0" cy="0" r="7"/>
                <circle id="rim2" cx="0" cy="0" r="3.5"/>
                <g id="zoomPlus">
                        <use xlink:href="#rim" fill="#404040">
                                <set attributeName="fill" to="#808080" begin="zoomplus.mouseover" end="zoomplus.mouseout"/>
                        </use>
                        <path d="M-4,0h8M0,-4v8" fill="none" stroke="white" stroke-width="1.5" pointer-events="none"/>
                </g>
                <g id="zoomMin">
                        <use xlink:href="#rim" fill="#404040">
                                <set attributeName="fill" to="#808080" begin="zoomminus.mouseover" end="zoomminus.mouseout"/>
                        </use>
                        <path d="M-4,0h8" fill="none" stroke="white" stroke-width="1.5" pointer-events="none"/>
                </g>
                <g id="dirArrow">
                        <path fill="none" stroke="white" stroke-width="1.5" d="M0,-3.0v7 M-2.5,-0.5L0,-3.0L2.5,-0.5"/>
                </g>
               <g id="resetDef">
                       <use xlink:href="#rim2" fill="#404040">
                               <set attributeName="fill" to="#808080" begin="reset.mouseover" end="reset.mouseout"/>
                       </use>
               </g>
        </defs>

<script type="text/javascript">
var viewWidth = 1131;
var viewHeight = 721;
var sectionId = 'dynsection-382';
</script>
<script xlink:href="svgpan.js"/>
<svg id="graph" class="graph">
<g id="viewport">
<title>js_free_shape0</title>
<!-- Node128553 -->
<g id="node1" class="node">
<title>Node128553</title>
<polygon fill="#bfbfbf" stroke="#000000" points="0,-210.3216 0,-229.3216 83,-229.3216 83,-210.3216 0,-210.3216"/>
<text text-anchor="middle" x="41.5" y="-217.3216" font-family="Helvetica,sans-Serif" font-size="10.00" fill="#000000">js_free_shape0</text>
</g>
<!-- Node128554 -->
<g id="node2" class="node">
<title>Node128554</title>
<g id="a_node2"><a xlink:href="quickjs_8c.html#a3a9f27520d96cf58aa5bd7359e9cddee" target="_top" xlink:title="js_free_shape">
<polygon fill="none" stroke="#000000" points="119,-210.3216 119,-229.3216 196,-229.3216 196,-210.3216 119,-210.3216"/>
<text text-anchor="middle" x="157.5" y="-217.3216" font-family="Helvetica,sans-Serif" font-size="10.00" fill="#000000">js_free_shape</text>
</a>
</g>
</g>
<!-- Node128553&#45;&gt;Node128554 -->
<g id="edge1" class="edge">
<title>Node128553&#45;&gt;Node128554</title>
<path fill="none" stroke="#191970" d="M93.108,-219.8216C101.7912,-219.8216 110.6679,-219.8216 118.9467,-219.8216"/>
<polygon fill="#191970" stroke="#191970" points="93.0511,-216.3217 83.051,-219.8216 93.051,-223.3217 93.0511,-216.3217"/>
</g>
<!-- Node128555 -->
<g id="node3" class="node">
<title>Node128555</title>
<g id="a_node3"><a xlink:href="quickjs_8c.html#a74547db03bf739a52c83a326b32db997" target="_top" xlink:title="add_property">
<polygon fill="none" stroke="#000000" points="259.5,-450.3216 259.5,-469.3216 332.5,-469.3216 332.5,-450.3216 259.5,-450.3216"/>
<text text-anchor="middle" x="296" y="-457.3216" font-family="Helvetica,sans-Serif" font-size="10.00" fill="#000000">add_property</text>
</a>
</g>
</g>
<!-- Node128554&#45;&gt;Node128555 -->
<g id="edge2" class="edge">
<title>Node128554&#45;&gt;Node128555</title>
<path fill="none" stroke="#191970" d="M168.1467,-238.2708C195.8902,-286.3462 269.6931,-414.2357 290.4811,-450.2582"/>
<polygon fill="#191970" stroke="#191970" points="171.1307,-236.439 163.1009,-229.5271 165.0678,-239.9378 171.1307,-236.439"/>
</g>
<!-- Node129172 -->
<g id="node17" class="node">
<title>Node129172</title>
<g id="a_node17"><a xlink:href="quickjs_8c.html#a030c2e98b1775a7e3bdd13be1400b1fe" target="_top" xlink:title="JS_NewObjectFromShape">
<polygon fill="none" stroke="#ff0000" points="396,-298.3216 396,-317.3216 529,-317.3216 529,-298.3216 396,-298.3216"/>
<text text-anchor="middle" x="462.5" y="-305.3216" font-family="Helvetica,sans-Serif" font-size="10.00" fill="#000000">JS_NewObjectFromShape</text>
</a>
</g>
</g>
<!-- Node128554&#45;&gt;Node129172 -->
<g id="edge35" class="edge">
<title>Node128554&#45;&gt;Node129172</title>
<path fill="none" stroke="#191970" d="M199.956,-232.1505C247.6419,-245.9874 327.3517,-269.0845 396,-288.8216 406.7319,-291.9071 418.4426,-295.2583 429.0046,-298.2749"/>
<polygon fill="#191970" stroke="#191970" points="200.8612,-228.7689 190.282,-229.343 198.9102,-235.4915 200.8612,-228.7689"/>
</g>
<!-- Node129192 -->
<g id="node18" class="node">
<title>Node129192</title>
<g id="a_node18"><a xlink:href="quickjs_8c.html#a41a4918c15192dc3489dc3ecb3fdc24d" target="_top" xlink:title="free_object">
<polygon fill="none" stroke="#000000" points="263.5,-210.3216 263.5,-229.3216 328.5,-229.3216 328.5,-210.3216 263.5,-210.3216"/>
<text text-anchor="middle" x="296" y="-217.3216" font-family="Helvetica,sans-Serif" font-size="10.00" fill="#000000">free_object</text>
</a>
</g>
</g>
<!-- Node128554&#45;&gt;Node129192 -->
<g id="edge31" class="edge">
<title>Node128554&#45;&gt;Node129192</title>
<path fill="none" stroke="#191970" d="M206.2945,-219.8216C225.1654,-219.8216 246.2627,-219.8216 263.2542,-219.8216"/>
<polygon fill="#191970" stroke="#191970" points="206.08,-216.3217 196.08,-219.8216 206.0799,-223.3217 206.08,-216.3217"/>
</g>
<!-- Node129297 -->
<g id="node20" class="node">
<title>Node129297</title>
<g id="a_node20"><a xlink:href="quickjs_8c.html#a8a02cfc587edc36995bda62a0160269c" target="_top" xlink:title="js_free_shape_null">
<polygon fill="none" stroke="#000000" points="247,-172.3216 247,-191.3216 345,-191.3216 345,-172.3216 247,-172.3216"/>
<text text-anchor="middle" x="296" y="-179.3216" font-family="Helvetica,sans-Serif" font-size="10.00" fill="#000000">js_free_shape_null</text>
</a>
</g>
</g>
<!-- Node128554&#45;&gt;Node129297 -->
<g id="edge33" class="edge">
<title>Node128554&#45;&gt;Node129297</title>
<path fill="none" stroke="#191970" d="M202.1342,-207.5754C221.2247,-202.3376 243.1845,-196.3125 261.0618,-191.4075"/>
<polygon fill="#191970" stroke="#191970" points="201.1669,-204.2114 192.4494,-210.2326 203.0191,-210.9619 201.1669,-204.2114"/>
</g>
<!-- Node129298 -->
<g id="node22" class="node">
<title>Node129298</title>
<g id="a_node22"><a xlink:href="quickjs_8c.html#a3dd8e78607dbc729614deacf55901b95" target="_top" xlink:title="js_shape_prepare_update">
<polygon fill="none" stroke="#000000" points="232,-96.3216 232,-115.3216 360,-115.3216 360,-96.3216 232,-96.3216"/>
<text text-anchor="middle" x="296" y="-103.3216" font-family="Helvetica,sans-Serif" font-size="10.00" fill="#000000">js_shape_prepare_update</text>
</a>
</g>
</g>
<!-- Node128554&#45;&gt;Node129298 -->
<g id="edge36" class="edge">
<title>Node128554&#45;&gt;Node129298</title>
<path fill="none" stroke="#191970" d="M177.1907,-203.6141C206.4304,-179.5467 260.4311,-135.0985 284.2215,-115.5166"/>
<polygon fill="#191970" stroke="#191970" points="174.8051,-201.0445 169.3084,-210.102 179.2537,-206.4492 174.8051,-201.0445"/>
</g>
<!-- Node128556 -->
<g id="node4" class="node">
<title>Node128556</title>
<g id="a_node4"><a xlink:href="quickjs_8c.html#ac93c982cb636a5430b191d104083af3e" target="_top" xlink:title="convert_fast_array\l_to_array">
<polygon fill="none" stroke="#ff0000" points="413.5,-248.8216 413.5,-278.8216 511.5,-278.8216 511.5,-248.8216 413.5,-248.8216"/>
<text text-anchor="start" x="421.5" y="-266.8216" font-family="Helvetica,sans-Serif" font-size="10.00" fill="#000000">convert_fast_array</text>
<text text-anchor="middle" x="462.5" y="-255.8216" font-family="Helvetica,sans-Serif" font-size="10.00" fill="#000000">_to_array</text>
</a>
</g>
</g>
<!-- Node128555&#45;&gt;Node128556 -->
<g id="edge3" class="edge">
<title>Node128555&#45;&gt;Node128556</title>
<path fill="none" stroke="#191970" d="M302.3122,-440.6579C314.764,-405.6848 345.7281,-331.2178 396,-288.8216 401.1858,-284.4482 407.2128,-280.8001 413.4802,-277.7674"/>
<polygon fill="#191970" stroke="#191970" points="298.9853,-439.5698 299.0413,-450.1645 305.6044,-441.8473 298.9853,-439.5698"/>
</g>
<!-- Node128788 -->
<g id="node6" class="node">
<title>Node128788</title>
<g id="a_node6"><a xlink:href="quickjs_8c.html#ad5565bb5cfd5321f181573257f3b0c91" target="_top" xlink:title="JS_CreateProperty">
<polygon fill="none" stroke="#ff0000" points="567,-292.3216 567,-311.3216 667,-311.3216 667,-292.3216 567,-292.3216"/>
<text text-anchor="middle" x="617" y="-299.3216" font-family="Helvetica,sans-Serif" font-size="10.00" fill="#000000">JS_CreateProperty</text>
</a>
</g>
</g>
<!-- Node128555&#45;&gt;Node128788 -->
<g id="edge22" class="edge">
<title>Node128555&#45;&gt;Node128788</title>
<path fill="none" stroke="#191970" d="M310.6975,-442.672C328.8361,-422.5197 361.5317,-389.3586 396,-369.8216 412.5013,-360.4685 525.0955,-327.8618 582.9012,-311.4349"/>
<polygon fill="#191970" stroke="#191970" points="308.0546,-440.3772 304.0626,-450.1912 313.3034,-445.0087 308.0546,-440.3772"/>
</g>
<!-- Node128559 -->
<g id="node8" class="node">
<title>Node128559</title>
<g id="a_node8"><a xlink:href="quickjs_8c.html#ad7f03358a8088ca920ab308225c6b2e6" target="_top" xlink:title="JS_SetPropertyInternal">
<polygon fill="none" stroke="#ff0000" points="883.5,-292.3216 883.5,-311.3216 1001.5,-311.3216 1001.5,-292.3216 883.5,-292.3216"/>
<text text-anchor="middle" x="942.5" y="-299.3216" font-family="Helvetica,sans-Serif" font-size="10.00" fill="#000000">JS_SetPropertyInternal</text>
</a>
</g>
</g>
<!-- Node128555&#45;&gt;Node128559 -->
<g id="edge30" class="edge">
<title>Node128555&#45;&gt;Node128559</title>
<path fill="none" stroke="#191970" d="M342.3732,-448.4883C463.9961,-418.7646 790.543,-338.9588 903.4524,-311.3646"/>
<polygon fill="#191970" stroke="#191970" points="341.4942,-445.1001 332.611,-450.8741 343.1561,-451.8999 341.4942,-445.1001"/>
</g>
<!-- Node128576 -->
<g id="node9" class="node">
<title>Node128576</title>
<g id="a_node9"><a xlink:href="quickjs_8c.html#ac2894ff4edcdb4e6841bcce9c76081e3" target="_top" xlink:title="JS_CallInternal">
<polygon fill="none" stroke="#ff0000" points="1040,-450.3216 1040,-469.3216 1123,-469.3216 1123,-450.3216 1040,-450.3216"/>
<text text-anchor="middle" x="1081.5" y="-457.3216" font-family="Helvetica,sans-Serif" font-size="10.00" fill="#000000">JS_CallInternal</text>
</a>
</g>
</g>
<!-- Node128555&#45;&gt;Node128576 -->
<g id="edge21" class="edge">
<title>Node128555&#45;&gt;Node128576</title>
<path fill="none" stroke="#191970" d="M342.8224,-468.8713C405.1488,-480.1107 518.9218,-497.8216 617,-497.8216 617,-497.8216 617,-497.8216 775,-497.8216 870.1741,-497.8216 980.7175,-479.5532 1039.5626,-468.3495"/>
<polygon fill="#191970" stroke="#191970" points="343.3695,-465.4134 332.9032,-467.0586 342.111,-472.2994 343.3695,-465.4134"/>
</g>
<!-- Node128896 -->
<g id="node10" class="node">
<title>Node128896</title>
<g id="a_node10"><a xlink:href="quickjs_8c.html#a04d312757919ff6b4d79cd0c2c3e5bb2" target="_top" xlink:title="js_build_arguments">
<polygon fill="none" stroke="#000000" points="892,-412.3216 892,-431.3216 993,-431.3216 993,-412.3216 892,-412.3216"/>
<text text-anchor="middle" x="942.5" y="-419.3216" font-family="Helvetica,sans-Serif" font-size="10.00" fill="#000000">js_build_arguments</text>
</a>
</g>
</g>
<!-- Node128555&#45;&gt;Node128896 -->
<g id="edge17" class="edge">
<title>Node128555&#45;&gt;Node128896</title>
<path fill="none" stroke="#191970" d="M342.7554,-457.0734C460.6692,-450.1427 769.4417,-431.9936 891.648,-424.8106"/>
<polygon fill="#191970" stroke="#191970" points="342.3884,-453.5889 332.611,-457.6697 342.7992,-460.5768 342.3884,-453.5889"/>
</g>
<!-- Node129168 -->
<g id="node11" class="node">
<title>Node129168</title>
<g id="a_node11"><a xlink:href="quickjs_8c.html#a6a21784a40b8684f2e779bd460dd13b2" target="_top" xlink:title="JS_AddBrand">
<polygon fill="none" stroke="#000000" points="736.5,-450.3216 736.5,-469.3216 813.5,-469.3216 813.5,-450.3216 736.5,-450.3216"/>
<text text-anchor="middle" x="775" y="-457.3216" font-family="Helvetica,sans-Serif" font-size="10.00" fill="#000000">JS_AddBrand</text>
</a>
</g>
</g>
<!-- Node128555&#45;&gt;Node129168 -->
<g id="edge15" class="edge">
<title>Node128555&#45;&gt;Node129168</title>
<path fill="none" stroke="#191970" d="M342.9165,-459.8216C437.4609,-459.8216 649.2786,-459.8216 736.4228,-459.8216"/>
<polygon fill="#191970" stroke="#191970" points="342.791,-456.3217 332.791,-459.8216 342.7909,-463.3217 342.791,-456.3217"/>
</g>
<!-- Node128872 -->
<g id="node12" class="node">
<title>Node128872</title>
<g id="a_node12"><a xlink:href="quickjs_8c.html#a1c459034f2971c4abc3a8d6d4693ef5f" target="_top" xlink:title="js_build_mapped_arguments">
<polygon fill="none" stroke="#000000" points="705,-678.3216 705,-697.3216 845,-697.3216 845,-678.3216 705,-678.3216"/>
<text text-anchor="middle" x="775" y="-685.3216" font-family="Helvetica,sans-Serif" font-size="10.00" fill="#000000">js_build_mapped_arguments</text>
</a>
</g>
</g>
<!-- Node128555&#45;&gt;Node128872 -->
<g id="edge18" class="edge">
<title>Node128555&#45;&gt;Node128872</title>
<path fill="none" stroke="#191970" d="M299.0417,-479.6288C306.6883,-521.8455 330.976,-620.3662 396,-663.8216 500.9728,-733.9748 660.9751,-712.602 734.9375,-697.3788"/>
<polygon fill="#191970" stroke="#191970" points="302.4881,-479.0178 297.3732,-469.7394 295.5857,-480.1824 302.4881,-479.0178"/>
</g>
<!-- Node128901 -->
<g id="node13" class="node">
<title>Node128901</title>
<g id="a_node13"><a xlink:href="quickjs_8c.html#ad12b6863ca31850fc39d208bb865420e" target="_top" xlink:title="js_build_module_ns">
<polygon fill="none" stroke="#ff0000" points="566,-545.3216 566,-564.3216 668,-564.3216 668,-545.3216 566,-545.3216"/>
<text text-anchor="middle" x="617" y="-552.3216" font-family="Helvetica,sans-Serif" font-size="10.00" fill="#000000">js_build_module_ns</text>
</a>
</g>
</g>
<!-- Node128555&#45;&gt;Node128901 -->
<g id="edge20" class="edge">
<title>Node128555&#45;&gt;Node128901</title>
<path fill="none" stroke="#191970" d="M308.0678,-477.7481C324.7171,-500.6844 357.1266,-539.3004 396,-554.8216 453.1906,-577.6564 525.538,-571.8585 571.5572,-564.3549"/>
<polygon fill="#191970" stroke="#191970" points="310.9072,-475.7012 302.2924,-469.5338 305.1809,-479.7273 310.9072,-475.7012"/>
</g>
<!-- Node129169 -->
<g id="node14" class="node">
<title>Node129169</title>
<g id="a_node14"><a xlink:href="quickjs_8c.html#a7128998511654840928b9df9d4c55b3c" target="_top" xlink:title="JS_DefineAutoInitProperty">
<polygon fill="none" stroke="#ff0000" points="396,-526.3216 396,-545.3216 529,-545.3216 529,-526.3216 396,-526.3216"/>
<text text-anchor="middle" x="462.5" y="-533.3216" font-family="Helvetica,sans-Serif" font-size="10.00" fill="#000000">JS_DefineAutoInitProperty</text>
</a>
</g>
</g>
<!-- Node128555&#45;&gt;Node129169 -->
<g id="edge23" class="edge">
<title>Node128555&#45;&gt;Node129169</title>
<path fill="none" stroke="#191970" d="M321.4268,-474.2432C341.3689,-485.2585 370.0056,-500.4328 396,-511.8216 408.0293,-517.092 421.6203,-522.1494 433.3659,-526.2511"/>
<polygon fill="#191970" stroke="#191970" points="323.0905,-471.1636 312.6513,-469.3542 319.6836,-477.2786 323.0905,-471.1636"/>
</g>
<!-- Node129170 -->
<g id="node15" class="node">
<title>Node129170</title>
<g id="a_node15"><a xlink:href="quickjs_8c.html#a4e5684e94183b342edf8cf73f1c23d65" target="_top" xlink:title="JS_DefineGlobalVar">
<polygon fill="none" stroke="#000000" points="890,-611.3216 890,-630.3216 995,-630.3216 995,-611.3216 890,-611.3216"/>
<text text-anchor="middle" x="942.5" y="-618.3216" font-family="Helvetica,sans-Serif" font-size="10.00" fill="#000000">JS_DefineGlobalVar</text>
</a>
</g>
</g>
<!-- Node128555&#45;&gt;Node129170 -->
<g id="edge25" class="edge">
<title>Node128555&#45;&gt;Node129170</title>
<path fill="none" stroke="#191970" d="M302.8802,-479.1918C315.5782,-511.7086 346.0562,-576.4889 396,-604.8216 479.0756,-651.9497 769.2739,-634.868 889.6019,-625.406"/>
<polygon fill="#191970" stroke="#191970" points="306.0363,-477.6392 299.2531,-469.5005 299.4804,-480.0929 306.0363,-477.6392"/>
</g>
<!-- Node129171 -->
<g id="node16" class="node">
<title>Node129171</title>
<g id="a_node16"><a xlink:href="quickjs_8c.html#a3865abec9986277dbff58ea314f3d82e" target="_top" xlink:title="JS_DefinePrivateField">
<polygon fill="none" stroke="#000000" points="718,-564.3216 718,-583.3216 832,-583.3216 832,-564.3216 718,-564.3216"/>
<text text-anchor="middle" x="775" y="-571.3216" font-family="Helvetica,sans-Serif" font-size="10.00" fill="#000000">JS_DefinePrivateField</text>
</a>
</g>
</g>
<!-- Node128555&#45;&gt;Node129171 -->
<g id="edge27" class="edge">
<title>Node128555&#45;&gt;Node129171</title>
<path fill="none" stroke="#191970" d="M305.2409,-478.5385C320.0315,-506.0933 351.9074,-556.5042 396,-576.8216 512.6841,-630.5883 671.8452,-600.5947 740.8137,-583.3316"/>
<polygon fill="#191970" stroke="#191970" points="308.278,-476.7919 300.5737,-469.5189 302.0609,-480.0089 308.278,-476.7919"/>
</g>
<!-- Node128555&#45;&gt;Node129172 -->
<g id="edge29" class="edge">
<title>Node128555&#45;&gt;Node129172</title>
<path fill="none" stroke="#191970" d="M305.8986,-441.3249C321.5419,-413.7467 354.509,-361.8814 396,-331.8216 404.548,-325.6286 414.8577,-320.8881 424.7806,-317.323"/>
<polygon fill="#191970" stroke="#191970" points="302.7113,-439.8561 300.9353,-450.3011 308.8372,-443.2434 302.7113,-439.8561"/>
</g>
<!-- Node128557 -->
<g id="node5" class="node">
<title>Node128557</title>
<g id="a_node5"><a xlink:href="quickjs_8c.html#a2b9a2014cb970af5b5b7dde00afbdffa" target="_top" xlink:title="delete_property">
<polygon fill="none" stroke="#ff0000" points="575.5,-181.3216 575.5,-200.3216 658.5,-200.3216 658.5,-181.3216 575.5,-181.3216"/>
<text text-anchor="middle" x="617" y="-188.3216" font-family="Helvetica,sans-Serif" font-size="10.00" fill="#000000">delete_property</text>
</a>
</g>
</g>
<!-- Node128556&#45;&gt;Node128557 -->
<g id="edge4" class="edge">
<title>Node128556&#45;&gt;Node128557</title>
<path fill="none" stroke="#191970" d="M514.7616,-244.9705C519.6121,-242.9823 524.4216,-240.9184 529,-238.8216 554.9486,-226.9376 583.7658,-210.5808 601.1269,-200.3591"/>
<polygon fill="#191970" stroke="#191970" points="513.4265,-241.7348 505.4335,-248.6891 516.0187,-248.2371 513.4265,-241.7348"/>
</g>
<!-- Node128556&#45;&gt;Node128788 -->
<g id="edge5" class="edge">
<title>Node128556&#45;&gt;Node128788</title>
<path fill="none" stroke="#191970" d="M521.7786,-278.4015C540.5906,-283.0283 560.9079,-288.0255 577.9242,-292.2107"/>
<polygon fill="#191970" stroke="#191970" points="522.3561,-274.9392 511.8096,-275.9495 520.6842,-281.7367 522.3561,-274.9392"/>
</g>
<!-- Node128789 -->
<g id="node7" class="node">
<title>Node128789</title>
<g id="a_node7"><a xlink:href="quickjs_8c.html#ab50618f1bf78e444caa6da0e3e2785d7" target="_top" xlink:title="JS_DefineProperty">
<polygon fill="none" stroke="#ff0000" points="725.5,-254.3216 725.5,-273.3216 824.5,-273.3216 824.5,-254.3216 725.5,-254.3216"/>
<text text-anchor="middle" x="775" y="-261.3216" font-family="Helvetica,sans-Serif" font-size="10.00" fill="#000000">JS_DefineProperty</text>
</a>
</g>
</g>
<!-- Node128556&#45;&gt;Node128789 -->
<g id="edge14" class="edge">
<title>Node128556&#45;&gt;Node128789</title>
<path fill="none" stroke="#191970" d="M521.9432,-263.8216C580.8635,-263.8216 670.0909,-263.8216 725.3408,-263.8216"/>
<polygon fill="#191970" stroke="#191970" points="521.6719,-260.3217 511.6719,-263.8216 521.6719,-267.3217 521.6719,-260.3217"/>
</g>
<!-- Node128788&#45;&gt;Node128789 -->
<g id="edge6" class="edge">
<title>Node128788&#45;&gt;Node128789</title>
<path fill="none" stroke="#191970" d="M666.7616,-289.8536C688.9029,-284.5285 714.6116,-278.3454 735.4166,-273.3417"/>
<polygon fill="#191970" stroke="#191970" points="665.7744,-286.4912 656.8701,-292.2326 667.4113,-293.2971 665.7744,-286.4912"/>
</g>
<!-- Node128788&#45;&gt;Node128559 -->
<g id="edge13" class="edge">
<title>Node128788&#45;&gt;Node128559</title>
<path fill="none" stroke="#191970" d="M677.4059,-301.8216C736.2416,-301.8216 825.1086,-301.8216 883.4704,-301.8216"/>
<polygon fill="#191970" stroke="#191970" points="677.1461,-298.3217 667.146,-301.8216 677.146,-305.3217 677.1461,-298.3217"/>
</g>
<!-- Node128789&#45;&gt;Node128559 -->
<g id="edge7" class="edge">
<title>Node128789&#45;&gt;Node128559</title>
<path fill="none" stroke="#191970" d="M827.1201,-275.6459C850.7347,-281.0032 878.282,-287.2527 900.5366,-292.3016"/>
<polygon fill="#191970" stroke="#191970" points="827.7939,-272.2099 817.2673,-273.4106 826.2451,-279.0364 827.7939,-272.2099"/>
</g>
<!-- Node128789&#45;&gt;Node128576 -->
<g id="edge12" class="edge">
<title>Node128789&#45;&gt;Node128576</title>
<path fill="none" stroke="#191970" d="M834.6091,-253.0713C884.4757,-247.4837 955.1101,-247.8866 1004,-282.8216 1062.1355,-324.3632 1077.1813,-419.3098 1080.5955,-450.0339"/>
<polygon fill="#191970" stroke="#191970" points="834.1096,-249.6062 824.6123,-254.3021 834.9651,-256.5538 834.1096,-249.6062"/>
</g>
<!-- Node128789&#45;&gt;Node128896 -->
<g id="edge10" class="edge">
<title>Node128789&#45;&gt;Node128896</title>
<path fill="none" stroke="#191970" d="M792.8017,-280.6137C827.8569,-313.6806 904.8176,-386.2764 932.4081,-412.3021"/>
<polygon fill="#191970" stroke="#191970" points="794.9017,-277.7831 785.2257,-273.4674 790.0985,-282.8752 794.9017,-277.7831"/>
</g>
<!-- Node128559&#45;&gt;Node128576 -->
<g id="edge8" class="edge">
<title>Node128559&#45;&gt;Node128576</title>
<path fill="none" stroke="#191970" d="M957.8567,-319.2775C987.0743,-352.4887 1049.7997,-423.7881 1072.8082,-449.9417"/>
<polygon fill="#191970" stroke="#191970" points="960.4281,-316.9015 951.1951,-311.7052 955.1725,-321.5251 960.4281,-316.9015"/>
</g>
<!-- Node128576&#45;&gt;Node128576 -->
<g id="edge9" class="edge">
<title>Node128576&#45;&gt;Node128576</title>
<path fill="none" stroke="#191970" d="M1055.8305,-478.8508C1057.2307,-483.9496 1065.7872,-487.8216 1081.5,-487.8216 1106.0273,-487.8216 1113.1173,-478.3869 1102.7698,-469.5787"/>
<polygon fill="#191970" stroke="#191970" points="1059.1052,-480.1136 1060.2302,-469.5787 1052.7811,-477.1127 1059.1052,-480.1136"/>
</g>
<!-- Node128896&#45;&gt;Node128576 -->
<g id="edge11" class="edge">
<title>Node128896&#45;&gt;Node128576</title>
<path fill="none" stroke="#191970" d="M987.2953,-434.0678C1006.4547,-439.3056 1028.4938,-445.3307 1046.4357,-450.2357"/>
<polygon fill="#191970" stroke="#191970" points="988.1446,-430.6716 977.5756,-431.4106 986.2986,-437.4238 988.1446,-430.6716"/>
</g>
<!-- Node129168&#45;&gt;Node128576 -->
<g id="edge16" class="edge">
<title>Node129168&#45;&gt;Node128576</title>
<path fill="none" stroke="#191970" d="M823.8168,-459.8216C883.5757,-459.8216 983.742,-459.8216 1039.9698,-459.8216"/>
<polygon fill="#191970" stroke="#191970" points="823.5081,-456.3217 813.5081,-459.8216 823.5081,-463.3217 823.5081,-456.3217"/>
</g>
<!-- Node128872&#45;&gt;Node128576 -->
<g id="edge19" class="edge">
<title>Node128872&#45;&gt;Node128576</title>
<path fill="none" stroke="#191970" d="M855.0593,-688.826C903.0207,-685.4408 962.5311,-673.7294 1004,-639.8216 1060.1027,-593.9481 1076.4984,-499.8013 1080.4235,-469.4681"/>
<polygon fill="#191970" stroke="#191970" points="854.784,-685.3362 845.0108,-689.427 855.202,-692.3237 854.784,-685.3362"/>
</g>
<!-- Node129169&#45;&gt;Node128901 -->
<g id="edge24" class="edge">
<title>Node129169&#45;&gt;Node128901</title>
<path fill="none" stroke="#191970" d="M539.4559,-545.2854C548.4163,-546.3874 557.3819,-547.4899 565.8705,-548.5338"/>
<polygon fill="#191970" stroke="#191970" points="539.7198,-541.7916 529.3674,-544.0448 538.8654,-548.7393 539.7198,-541.7916"/>
</g>
<!-- Node129170&#45;&gt;Node128576 -->
<g id="edge26" class="edge">
<title>Node129170&#45;&gt;Node128576</title>
<path fill="none" stroke="#191970" d="M963.5881,-605.1549C976.0298,-595.4021 991.6968,-582.2017 1004,-568.8216 1034.8039,-535.3213 1063.8684,-489.2245 1075.8003,-469.4569"/>
<polygon fill="#191970" stroke="#191970" points="961.3673,-602.4473 955.5708,-611.3159 965.6327,-607.9978 961.3673,-602.4473"/>
</g>
<!-- Node129171&#45;&gt;Node128576 -->
<g id="edge28" class="edge">
<title>Node129171&#45;&gt;Node128576</title>
<path fill="none" stroke="#191970" d="M839.5175,-562.2379C886.4988,-552.4127 950.9272,-536.0136 1004,-511.8216 1029.2113,-500.3296 1055.321,-480.9887 1069.8801,-469.4121"/>
<polygon fill="#191970" stroke="#191970" points="838.5637,-558.8604 829.4689,-564.2949 839.9677,-565.7182 838.5637,-558.8604"/>
</g>
<!-- Node129193 -->
<g id="node19" class="node">
<title>Node129193</title>
<g id="a_node19"><a xlink:href="quickjs_8c.html#a3d1c7a8d6aa5a9ba8ea8ef2828db188a" target="_top" xlink:title="free_gc_object">
<polygon fill="none" stroke="#ff0000" points="422.5,-210.3216 422.5,-229.3216 502.5,-229.3216 502.5,-210.3216 422.5,-210.3216"/>
<text text-anchor="middle" x="462.5" y="-217.3216" font-family="Helvetica,sans-Serif" font-size="10.00" fill="#000000">free_gc_object</text>
</a>
</g>
</g>
<!-- Node129192&#45;&gt;Node129193 -->
<g id="edge32" class="edge">
<title>Node129192&#45;&gt;Node129193</title>
<path fill="none" stroke="#191970" d="M339.0933,-219.8216C364.7787,-219.8216 397.1705,-219.8216 422.3227,-219.8216"/>
<polygon fill="#191970" stroke="#191970" points="338.8951,-216.3217 328.895,-219.8216 338.895,-223.3217 338.8951,-216.3217"/>
</g>
<!-- Node129209 -->
<g id="node21" class="node">
<title>Node129209</title>
<g id="a_node21"><a xlink:href="quickjs_8c.html#a1b4fe6eb1b7bcaec6713bd5ac2921f1b" target="_top" xlink:title="JS_FreeContext">
<polygon fill="none" stroke="#ff0000" points="418.5,-172.3216 418.5,-191.3216 506.5,-191.3216 506.5,-172.3216 418.5,-172.3216"/>
<text text-anchor="middle" x="462.5" y="-179.3216" font-family="Helvetica,sans-Serif" font-size="10.00" fill="#000000">JS_FreeContext</text>
</a>
</g>
</g>
<!-- Node129297&#45;&gt;Node129209 -->
<g id="edge34" class="edge">
<title>Node129297&#45;&gt;Node129209</title>
<path fill="none" stroke="#191970" d="M355.0773,-181.8216C375.9072,-181.8216 398.9478,-181.8216 418.3318,-181.8216"/>
<polygon fill="#191970" stroke="#191970" points="355.055,-178.3217 345.055,-181.8216 355.0549,-185.3217 355.055,-178.3217"/>
</g>
<!-- Node129298&#45;&gt;Node128556 -->
<g id="edge37" class="edge">
<title>Node129298&#45;&gt;Node128556</title>
<path fill="none" stroke="#191970" d="M317.944,-121.7087C331.3546,-132.2398 348.1477,-146.9948 360,-162.8216 382.4038,-192.7383 368.5005,-213.5092 396,-238.8216 401.0819,-243.4994 407.1227,-247.3269 413.4595,-250.4523"/>
<polygon fill="#191970" stroke="#191970" points="319.7806,-118.7078 309.7058,-115.4293 315.5372,-124.275 319.7806,-118.7078"/>
</g>
<!-- Node129298&#45;&gt;Node128557 -->
<g id="edge38" class="edge">
<title>Node129298&#45;&gt;Node128557</title>
<path fill="none" stroke="#191970" d="M348.7777,-117.6515C396.1779,-128.5324 467.5588,-145.5532 529,-162.8216 549.0648,-168.4609 571.4442,-175.5933 588.6132,-181.2481"/>
<polygon fill="#191970" stroke="#191970" points="349.2729,-114.1745 338.7444,-115.3578 347.7129,-120.9985 349.2729,-114.1745"/>
</g>
<!-- Node129298&#45;&gt;Node128789 -->
<g id="edge42" class="edge">
<title>Node129298&#45;&gt;Node128789</title>
<path fill="none" stroke="#191970" d="M370.4007,-104.6641C449.4071,-106.5657 575.5339,-118.7853 669,-171.8216 709.9029,-195.0315 749.3796,-235.5357 766.3324,-254.0657"/>
<polygon fill="#191970" stroke="#191970" points="370.1159,-101.1582 360.0512,-104.4676 369.983,-108.1569 370.1159,-101.1582"/>
</g>
<!-- Node129212 -->
<g id="node23" class="node">
<title>Node129212</title>
<g id="a_node23"><a xlink:href="quickjs_8c.html#a8aac7988cf0c6f3c2b629a6662fd7ec8" target="_top" xlink:title="JS_AutoInitProperty">
<polygon fill="none" stroke="#ff0000" points="565,-20.3216 565,-39.3216 669,-39.3216 669,-20.3216 565,-20.3216"/>
<text text-anchor="middle" x="617" y="-27.3216" font-family="Helvetica,sans-Serif" font-size="10.00" fill="#000000">JS_AutoInitProperty</text>
</a>
</g>
</g>
<!-- Node129298&#45;&gt;Node129212 -->
<g id="edge39" class="edge">
<title>Node129298&#45;&gt;Node129212</title>
<path fill="none" stroke="#191970" d="M336.5809,-93.3267C354.6839,-87.9409 376.3251,-81.7596 396,-76.8216 454.4008,-62.1641 522.2227,-48.1861 567.1708,-39.3427"/>
<polygon fill="#191970" stroke="#191970" points="335.4953,-89.9982 326.9226,-96.2239 337.5066,-96.703 335.4953,-89.9982"/>
</g>
<!-- Node129152 -->
<g id="node24" class="node">
<title>Node129152</title>
<g id="a_node24"><a xlink:href="quickjs_8c.html#a11b9662411b5b3f631925a0ca708ce25" target="_top" xlink:title="JS_SetPrototypeInternal">
<polygon fill="none" stroke="#ff0000" points="881,-99.3216 881,-118.3216 1004,-118.3216 1004,-99.3216 881,-99.3216"/>
<text text-anchor="middle" x="942.5" y="-106.3216" font-family="Helvetica,sans-Serif" font-size="10.00" fill="#000000">JS_SetPrototypeInternal</text>
</a>
</g>
</g>
<!-- Node129298&#45;&gt;Node129152 -->
<g id="edge43" class="edge">
<title>Node129298&#45;&gt;Node129152</title>
<path fill="none" stroke="#191970" d="M316.2411,-90.1851C335.654,-75.9627 366.3176,-55.4683 396,-43.8216 509.7718,.8199 548.5841,10.0807 669,-10.8216 768.3913,-28.0744 879.4149,-78.1841 923.2316,-99.2816"/>
<polygon fill="#191970" stroke="#191970" points="314.074,-87.4352 308.1573,-96.2241 318.2634,-93.0431 314.074,-87.4352"/>
</g>
<!-- Node129299 -->
<g id="node25" class="node">
<title>Node129299</title>
<g id="a_node25"><a xlink:href="quickjs_8c.html#a6d48937f79966a773376cc24834c663f" target="_top" xlink:title="js_update_property\l_flags">
<polygon fill="none" stroke="#ff0000" points="567.5,-58.8216 567.5,-88.8216 666.5,-88.8216 666.5,-58.8216 567.5,-58.8216"/>
<text text-anchor="start" x="575.5" y="-76.8216" font-family="Helvetica,sans-Serif" font-size="10.00" fill="#000000">js_update_property</text>
<text text-anchor="middle" x="617" y="-65.8216" font-family="Helvetica,sans-Serif" font-size="10.00" fill="#000000">_flags</text>
</a>
</g>
</g>
<!-- Node129298&#45;&gt;Node129299 -->
<g id="edge45" class="edge">
<title>Node129298&#45;&gt;Node129299</title>
<path fill="none" stroke="#191970" d="M370.1229,-94.9571C378.8366,-93.8243 387.6092,-92.7499 396,-91.8216 454.7317,-85.3241 522.4877,-80.147 567.33,-77.0428"/>
<polygon fill="#191970" stroke="#191970" points="369.3992,-91.5224 359.947,-96.3084 370.3208,-98.4614 369.3992,-91.5224"/>
</g>
<!-- Node129212&#45;&gt;Node128789 -->
<g id="edge41" class="edge">
<title>Node129212&#45;&gt;Node128789</title>
<path fill="none" stroke="#191970" d="M663.7615,-44.4457C665.624,-45.7804 667.3834,-47.2355 669,-48.8216 700.637,-79.8626 685.9164,-101.8184 705,-141.8216 725.713,-185.2402 755.9999,-234.0806 768.86,-254.2868"/>
<polygon fill="#191970" stroke="#191970" points="665.4553,-41.3814 655.0608,-39.3311 661.9079,-47.4161 665.4553,-41.3814"/>
</g>
<!-- Node129212&#45;&gt;Node128559 -->
<g id="edge40" class="edge">
<title>Node129212&#45;&gt;Node128559</title>
<path fill="none" stroke="#191970" d="M658.7673,-43.3812C662.3151,-45.0389 665.7755,-46.8518 669,-48.8216 789.8834,-122.6696 904.0975,-255.3205 934.5873,-292.1222"/>
<polygon fill="#191970" stroke="#191970" points="659.8466,-40.0372 649.2738,-39.3544 657.1131,-46.4814 659.8466,-40.0372"/>
</g>
<!-- Node129152&#45;&gt;Node128576 -->
<g id="edge44" class="edge">
<title>Node129152&#45;&gt;Node128576</title>
<path fill="none" stroke="#191970" d="M951.3232,-128.0837C963.5995,-155.0957 986.316,-205.8556 1004,-249.8216 1034.744,-326.2575 1067.717,-420.1126 1078.1433,-450.1172"/>
<polygon fill="#191970" stroke="#191970" points="954.3565,-126.2997 947.0225,-118.6536 947.9875,-129.2044 954.3565,-126.2997"/>
</g>
<!-- Node129299&#45;&gt;Node128789 -->
<g id="edge46" class="edge">
<title>Node129299&#45;&gt;Node128789</title>
<path fill="none" stroke="#191970" d="M657.2734,-94.4679C661.4354,-97.3447 665.4379,-100.4732 669,-103.8216 719.499,-151.2907 757.9137,-227.2475 770.5438,-254.0625"/>
<polygon fill="#191970" stroke="#191970" points="658.9084,-91.3592 648.5966,-88.9266 655.1407,-97.2588 658.9084,-91.3592"/>
</g>
</g>
</svg>
        <g id="navigator" transform="translate(0 0)" fill="#404254">
                <rect fill="#f2f5e9" fill-opacity="0.5" stroke="#606060" stroke-width=".5" x="0" y="0" width="60" height="60"/>
                <use id="zoomplus" xlink:href="#zoomPlus" x="17" y="9" onmousedown="handleZoom(evt,'in')"/>
                <use id="zoomminus" xlink:href="#zoomMin" x="42" y="9" onmousedown="handleZoom(evt,'out')"/>
                <use id="reset" xlink:href="#resetDef" x="30" y="36" onmousedown="handleReset()"/>
                <g id="arrowUp" xlink:href="#dirArrow" transform="translate(30 24)" onmousedown="handlePan(0,-1)">
                  <use xlink:href="#rim" fill="#404040">
                        <set attributeName="fill" to="#808080" begin="arrowUp.mouseover" end="arrowUp.mouseout"/>
                  </use>
                  <path fill="none" stroke="white" stroke-width="1.5" d="M0,-3.0v7 M-2.5,-0.5L0,-3.0L2.5,-0.5"/>
                </g>
                <g id="arrowRight" xlink:href="#dirArrow" transform="rotate(90) translate(36 -43)" onmousedown="handlePan(1,0)">
                  <use xlink:href="#rim" fill="#404040">
                        <set attributeName="fill" to="#808080" begin="arrowRight.mouseover" end="arrowRight.mouseout"/>
                  </use>
                  <path fill="none" stroke="white" stroke-width="1.5" d="M0,-3.0v7 M-2.5,-0.5L0,-3.0L2.5,-0.5"/>
                </g>
                <g id="arrowDown" xlink:href="#dirArrow" transform="rotate(180) translate(-30 -48)" onmousedown="handlePan(0,1)">
                  <use xlink:href="#rim" fill="#404040">
                        <set attributeName="fill" to="#808080" begin="arrowDown.mouseover" end="arrowDown.mouseout"/>
                  </use>
                  <path fill="none" stroke="white" stroke-width="1.5" d="M0,-3.0v7 M-2.5,-0.5L0,-3.0L2.5,-0.5"/>
                </g>
                <g id="arrowLeft" xlink:href="#dirArrow" transform="rotate(270) translate(-36 17)" onmousedown="handlePan(-1,0)">
                  <use xlink:href="#rim" fill="#404040">
                        <set attributeName="fill" to="#808080" begin="arrowLeft.mouseover" end="arrowLeft.mouseout"/>
                  </use>
                  <path fill="none" stroke="white" stroke-width="1.5" d="M0,-3.0v7 M-2.5,-0.5L0,-3.0L2.5,-0.5"/>
                </g>
        </g>
        <svg viewBox="0 0 15 15" width="100%" height="30px" preserveAspectRatio="xMaxYMin meet">
         <g id="arrow_out" transform="scale(0.3 0.3)">
          <a xlink:href="quickjs_8c_a6f921a6312ada5c7da7b485e24d37f54_icgraph_org.svg" target="_base">
           <rect id="button" ry="5" rx="5" y="6" x="6" height="38" width="38"
                fill="#f2f5e9" fill-opacity="0.5" stroke="#606060" stroke-width="1.0"/>
           <path id="arrow"
             d="M 11.500037,31.436501 C 11.940474,20.09759 22.043105,11.32322 32.158766,21.979434 L 37.068811,17.246167 C 37.068811,17.246167 37.088388,32 37.088388,32 L 22.160133,31.978069 C 22.160133,31.978069 26.997745,27.140456 26.997745,27.140456 C 18.528582,18.264221 13.291696,25.230495 11.500037,31.436501 z"
             style="fill:#404040;"/>
          </a>
         </g>
        </svg>
</svg>
