<?xml version="1.0" encoding="UTF-8" standalone="no"?>
<!DOCTYPE svg PUBLIC "-//W3C//DTD SVG 1.1//EN"
 "http://www.w3.org/Graphics/SVG/1.1/DTD/svg11.dtd">
<!-- Generated by graphviz version 2.40.1 (20161225.0304)
 -->
<!-- Title: math_mod Pages: 1 -->
<svg width="446pt" height="104pt"
 viewBox="0.00 0.00 446.00 104.00" xmlns="http://www.w3.org/2000/svg" xmlns:xlink="http://www.w3.org/1999/xlink">
<g id="graph0" class="graph" transform="scale(1 1) rotate(0) translate(4 100)">
<title>math_mod</title>
<!-- Node470276 -->
<g id="node1" class="node">
<title>Node470276</title>
<polygon fill="#bfbfbf" stroke="#000000" points="0,-38.5 0,-57.5 62,-57.5 62,-38.5 0,-38.5"/>
<text text-anchor="middle" x="31" y="-45.5" font-family="Helvetica,sans-Serif" font-size="10.00" fill="#000000">math_mod</text>
</g>
<!-- Node470277 -->
<g id="node2" class="node">
<title>Node470277</title>
<g id="a_node2"><a xlink:href="quickjs_8c.html#aef33badbc2ebaf812f7cba5302f2d047" target="_top" xlink:title="get_date_fields">
<polygon fill="none" stroke="#000000" points="98,-38.5 98,-57.5 181,-57.5 181,-38.5 98,-38.5"/>
<text text-anchor="middle" x="139.5" y="-45.5" font-family="Helvetica,sans-Serif" font-size="10.00" fill="#000000">get_date_fields</text>
</a>
</g>
</g>
<!-- Node470276&#45;&gt;Node470277 -->
<g id="edge1" class="edge">
<title>Node470276&#45;&gt;Node470277</title>
<path fill="none" stroke="#191970" d="M72.1008,-48C80.5388,-48 89.4284,-48 97.8844,-48"/>
<polygon fill="#191970" stroke="#191970" points="72.0918,-44.5001 62.0917,-48 72.0917,-51.5001 72.0918,-44.5001"/>
</g>
<!-- Node470278 -->
<g id="node3" class="node">
<title>Node470278</title>
<g id="a_node3"><a xlink:href="quickjs_8c.html#a937f8b17cb6d260cec8239dfb462035e" target="_top" xlink:title="get_date_field">
<polygon fill="none" stroke="#000000" points="220,-76.5 220,-95.5 297,-95.5 297,-76.5 220,-76.5"/>
<text text-anchor="middle" x="258.5" y="-83.5" font-family="Helvetica,sans-Serif" font-size="10.00" fill="#000000">get_date_field</text>
</a>
</g>
</g>
<!-- Node470277&#45;&gt;Node470278 -->
<g id="edge2" class="edge">
<title>Node470277&#45;&gt;Node470278</title>
<path fill="none" stroke="#191970" d="M179.2098,-60.6804C195.2886,-65.8148 213.5433,-71.6441 228.4809,-76.4141"/>
<polygon fill="#191970" stroke="#191970" points="180.1195,-57.2969 169.5287,-57.589 177.9901,-63.9652 180.1195,-57.2969"/>
</g>
<!-- Node470279 -->
<g id="node4" class="node">
<title>Node470279</title>
<g id="a_node4"><a xlink:href="quickjs_8c.html#a12803d7cccf6345067677bd4d25287ed" target="_top" xlink:title="set_date_field">
<polygon fill="none" stroke="#000000" points="220,-38.5 220,-57.5 297,-57.5 297,-38.5 220,-38.5"/>
<text text-anchor="middle" x="258.5" y="-45.5" font-family="Helvetica,sans-Serif" font-size="10.00" fill="#000000">set_date_field</text>
</a>
</g>
</g>
<!-- Node470277&#45;&gt;Node470279 -->
<g id="edge3" class="edge">
<title>Node470277&#45;&gt;Node470279</title>
<path fill="none" stroke="#191970" d="M191.363,-48C200.9437,-48 210.7929,-48 219.8949,-48"/>
<polygon fill="#191970" stroke="#191970" points="191.1205,-44.5001 181.1204,-48 191.1204,-51.5001 191.1205,-44.5001"/>
</g>
<!-- Node470281 -->
<g id="node6" class="node">
<title>Node470281</title>
<g id="a_node6"><a xlink:href="quickjs_8c.html#ab522181d975cc7949088c8ff67fedde0" target="_top" xlink:title="get_date_string">
<polygon fill="none" stroke="#000000" points="217,-.5 217,-19.5 300,-19.5 300,-.5 217,-.5"/>
<text text-anchor="middle" x="258.5" y="-7.5" font-family="Helvetica,sans-Serif" font-size="10.00" fill="#000000">get_date_string</text>
</a>
</g>
</g>
<!-- Node470277&#45;&gt;Node470281 -->
<g id="edge5" class="edge">
<title>Node470277&#45;&gt;Node470281</title>
<path fill="none" stroke="#191970" d="M179.2098,-35.3196C195.2886,-30.1852 213.5433,-24.3559 228.4809,-19.5859"/>
<polygon fill="#191970" stroke="#191970" points="177.9901,-32.0348 169.5287,-38.411 180.1195,-38.7031 177.9901,-32.0348"/>
</g>
<!-- Node470280 -->
<g id="node5" class="node">
<title>Node470280</title>
<g id="a_node5"><a xlink:href="quickjs_8c.html#aea694f707706fc250d38365486dc8c96" target="_top" xlink:title="js_date_setYear">
<polygon fill="none" stroke="#000000" points="343.5,-38.5 343.5,-57.5 430.5,-57.5 430.5,-38.5 343.5,-38.5"/>
<text text-anchor="middle" x="387" y="-45.5" font-family="Helvetica,sans-Serif" font-size="10.00" fill="#000000">js_date_setYear</text>
</a>
</g>
</g>
<!-- Node470279&#45;&gt;Node470280 -->
<g id="edge4" class="edge">
<title>Node470279&#45;&gt;Node470280</title>
<path fill="none" stroke="#191970" d="M307.1808,-48C318.9715,-48 331.5065,-48 343.064,-48"/>
<polygon fill="#191970" stroke="#191970" points="307.0543,-44.5001 297.0542,-48 307.0542,-51.5001 307.0543,-44.5001"/>
</g>
<!-- Node470282 -->
<g id="node7" class="node">
<title>Node470282</title>
<g id="a_node7"><a xlink:href="quickjs_8c.html#a7e4e02ec8849f3beaf28dc0613bb4016" target="_top" xlink:title="js_date_constructor">
<polygon fill="none" stroke="#ff0000" points="336,-.5 336,-19.5 438,-19.5 438,-.5 336,-.5"/>
<text text-anchor="middle" x="387" y="-7.5" font-family="Helvetica,sans-Serif" font-size="10.00" fill="#000000">js_date_constructor</text>
</a>
</g>
</g>
<!-- Node470281&#45;&gt;Node470282 -->
<g id="edge6" class="edge">
<title>Node470281&#45;&gt;Node470282</title>
<path fill="none" stroke="#191970" d="M310.2331,-10C318.5944,-10 327.2498,-10 335.6031,-10"/>
<polygon fill="#191970" stroke="#191970" points="310.2203,-6.5001 300.2203,-10 310.2202,-13.5001 310.2203,-6.5001"/>
</g>
</g>
</svg>
