<?xml version="1.0" encoding="UTF-8" standalone="no"?>
<!DOCTYPE svg PUBLIC "-//W3C//DTD SVG 1.1//EN"
 "http://www.w3.org/Graphics/SVG/1.1/DTD/svg11.dtd">
<!-- Generated by graphviz version 2.40.1 (20161225.0304)
 -->
<!-- Title: JS_SetPropertyGeneric Pages: 1 -->
<svg width="585pt" height="958pt"
 viewBox="0.00 0.00 585.00 957.50" xmlns="http://www.w3.org/2000/svg" xmlns:xlink="http://www.w3.org/1999/xlink">
<g id="graph0" class="graph" transform="scale(1 1) rotate(0) translate(4 953.5)">
<title>JS_SetPropertyGeneric</title>
<!-- Node202422 -->
<g id="node1" class="node">
<title>Node202422</title>
<polygon fill="#bfbfbf" stroke="#000000" points="0,-153.5 0,-172.5 119,-172.5 119,-153.5 0,-153.5"/>
<text text-anchor="middle" x="59.5" y="-160.5" font-family="Helvetica,sans-Serif" font-size="10.00" fill="#000000">JS_SetPropertyGeneric</text>
</g>
<!-- Node202423 -->
<g id="node2" class="node">
<title>Node202423</title>
<g id="a_node2"><a xlink:href="quickjs_8c.html#ac2894ff4edcdb4e6841bcce9c76081e3" target="_top" xlink:title="JS_CallInternal">
<polygon fill="none" stroke="#000000" points="155,-363.5 155,-382.5 238,-382.5 238,-363.5 155,-363.5"/>
<text text-anchor="middle" x="196.5" y="-370.5" font-family="Helvetica,sans-Serif" font-size="10.00" fill="#000000">JS_CallInternal</text>
</a>
</g>
</g>
<!-- Node202422&#45;&gt;Node202423 -->
<g id="edge1" class="edge">
<title>Node202422&#45;&gt;Node202423</title>
<path fill="none" stroke="#191970" d="M71.3478,-181.1608C99.3666,-224.1094 168.947,-330.7654 190.2207,-363.3748"/>
<polygon fill="#191970" stroke="#191970" points="74.1379,-179.0319 65.7426,-172.569 68.2752,-182.8567 74.1379,-179.0319"/>
</g>
<!-- Node202777 -->
<g id="node29" class="node">
<title>Node202777</title>
<g id="a_node29"><a xlink:href="quickjs_8c.html#ad38b16d301e8f3661cf4c115c86511b3" target="_top" xlink:title="js_proxy_set">
<polygon fill="none" stroke="#000000" points="474.5,-.5 474.5,-19.5 546.5,-19.5 546.5,-.5 474.5,-.5"/>
<text text-anchor="middle" x="510.5" y="-7.5" font-family="Helvetica,sans-Serif" font-size="10.00" fill="#000000">js_proxy_set</text>
</a>
</g>
</g>
<!-- Node202422&#45;&gt;Node202777 -->
<g id="edge38" class="edge">
<title>Node202422&#45;&gt;Node202777</title>
<path fill="none" stroke="#191970" d="M129.1827,-162.0617C162.7303,-159.9874 203.1421,-155.0738 238,-144 337.9343,-112.2525 347.1671,-69.2263 444,-29 453.6469,-24.9925 464.4173,-21.5144 474.4333,-18.6688"/>
<polygon fill="#191970" stroke="#191970" points="128.7995,-158.5773 119.0054,-162.618 129.1816,-165.5669 128.7995,-158.5773"/>
</g>
<!-- Node202994 -->
<g id="node30" class="node">
<title>Node202994</title>
<g id="a_node30"><a xlink:href="quickjs_8c.html#af047bcc4352c7d76f5e85bb5985bcd97" target="_top" xlink:title="js_reflect_set">
<polygon fill="none" stroke="#000000" points="159,-115.5 159,-134.5 234,-134.5 234,-115.5 159,-115.5"/>
<text text-anchor="middle" x="196.5" y="-122.5" font-family="Helvetica,sans-Serif" font-size="10.00" fill="#000000">js_reflect_set</text>
</a>
</g>
</g>
<!-- Node202422&#45;&gt;Node202994 -->
<g id="edge39" class="edge">
<title>Node202422&#45;&gt;Node202994</title>
<path fill="none" stroke="#191970" d="M103.9108,-150.6817C122.7337,-145.4607 144.3376,-139.4684 161.9402,-134.5859"/>
<polygon fill="#191970" stroke="#191970" points="102.7716,-147.3654 94.0709,-153.411 104.6426,-154.1108 102.7716,-147.3654"/>
</g>
<!-- Node202423&#45;&gt;Node202423 -->
<g id="edge37" class="edge">
<title>Node202423&#45;&gt;Node202423</title>
<path fill="none" stroke="#191970" d="M171.2025,-392.0292C172.5824,-397.128 181.0149,-401 196.5,-401 220.6719,-401 227.6591,-391.5653 217.4615,-382.7571"/>
<polygon fill="#191970" stroke="#191970" points="174.4728,-393.2982 175.5385,-382.7571 168.1319,-390.3329 174.4728,-393.2982"/>
</g>
<!-- Node202424 -->
<g id="node3" class="node">
<title>Node202424</title>
<g id="a_node3"><a xlink:href="quickjs_8c.html#ade71a22dc56e7371392393df663b28b3" target="_top" xlink:title="async_func_resume">
<polygon fill="none" stroke="#000000" points="289,-836.5 289,-855.5 393,-855.5 393,-836.5 289,-836.5"/>
<text text-anchor="middle" x="341" y="-843.5" font-family="Helvetica,sans-Serif" font-size="10.00" fill="#000000">async_func_resume</text>
</a>
</g>
</g>
<!-- Node202423&#45;&gt;Node202424 -->
<g id="edge2" class="edge">
<title>Node202423&#45;&gt;Node202424</title>
<path fill="none" stroke="#191970" d="M202.5346,-392.7534C227.2245,-473.5721 320.0842,-777.5352 337.9985,-836.1751"/>
<polygon fill="#191970" stroke="#191970" points="205.7871,-391.4203 199.5181,-382.8793 199.0925,-393.4656 205.7871,-391.4203"/>
</g>
<!-- Node202443 -->
<g id="node8" class="node">
<title>Node202443</title>
<g id="a_node8"><a xlink:href="quickjs_8c.html#a1a4c02a29525d5cb2085dd8bca3af350" target="_top" xlink:title="JS_Call">
<polygon fill="none" stroke="#ff0000" points="315.5,-401.5 315.5,-420.5 366.5,-420.5 366.5,-401.5 315.5,-401.5"/>
<text text-anchor="middle" x="341" y="-408.5" font-family="Helvetica,sans-Serif" font-size="10.00" fill="#000000">JS_Call</text>
</a>
</g>
</g>
<!-- Node202423&#45;&gt;Node202443 -->
<g id="edge7" class="edge">
<title>Node202423&#45;&gt;Node202443</title>
<path fill="none" stroke="#191970" d="M248.3524,-380.1309C274.197,-386.291 303.8346,-394.6885 322.4855,-401.4368"/>
<polygon fill="#191970" stroke="#191970" points="248.8269,-376.6484 238.2954,-377.8052 247.2497,-383.4684 248.8269,-376.6484"/>
</g>
<!-- Node202529 -->
<g id="node27" class="node">
<title>Node202529</title>
<g id="a_node27"><a xlink:href="quickjs_8c.html#ad35594576a14c10812efaf958c99af8a" target="_top" xlink:title="JS_CallConstructorInternal">
<polygon fill="none" stroke="#ff0000" points="274,-325.5 274,-344.5 408,-344.5 408,-325.5 274,-325.5"/>
<text text-anchor="middle" x="341" y="-332.5" font-family="Helvetica,sans-Serif" font-size="10.00" fill="#000000">JS_CallConstructorInternal</text>
</a>
</g>
</g>
<!-- Node202423&#45;&gt;Node202529 -->
<g id="edge31" class="edge">
<title>Node202423&#45;&gt;Node202529</title>
<path fill="none" stroke="#191970" d="M224.6409,-360.1228C240.2258,-354.9852 260.2462,-349.3173 279.272,-344.547"/>
<polygon fill="#191970" stroke="#191970" points="223.412,-356.8442 215.095,-363.4076 225.6897,-363.4633 223.412,-356.8442"/>
</g>
<!-- Node202543 -->
<g id="node28" class="node">
<title>Node202543</title>
<g id="a_node28"><a xlink:href="quickjs_8c.html#a75f6ee5e4235a7dc99889f3d2eb2c147" target="_top" xlink:title="JS_CallFree">
<polygon fill="none" stroke="#ff0000" points="305.5,-363.5 305.5,-382.5 376.5,-382.5 376.5,-363.5 305.5,-363.5"/>
<text text-anchor="middle" x="341" y="-370.5" font-family="Helvetica,sans-Serif" font-size="10.00" fill="#000000">JS_CallFree</text>
</a>
</g>
</g>
<!-- Node202423&#45;&gt;Node202543 -->
<g id="edge33" class="edge">
<title>Node202423&#45;&gt;Node202543</title>
<path fill="none" stroke="#191970" d="M248.4963,-366.4915C267.2911,-366.0322 288.0752,-366.228 305.1736,-367.0789"/>
<polygon fill="#191970" stroke="#191970" points="248.1798,-362.9996 238.2954,-366.814 248.401,-369.9961 248.1798,-362.9996"/>
</g>
<!-- Node202425 -->
<g id="node4" class="node">
<title>Node202425</title>
<g id="a_node4"><a xlink:href="quickjs_8c.html#ac90552b1f1659acb3dae9a4c62479a30" target="_top" xlink:title="js_generator_function_call">
<polygon fill="none" stroke="#ff0000" points="445.5,-880.5 445.5,-899.5 575.5,-899.5 575.5,-880.5 445.5,-880.5"/>
<text text-anchor="middle" x="510.5" y="-887.5" font-family="Helvetica,sans-Serif" font-size="10.00" fill="#000000">js_generator_function_call</text>
</a>
</g>
</g>
<!-- Node202424&#45;&gt;Node202425 -->
<g id="edge3" class="edge">
<title>Node202424&#45;&gt;Node202425</title>
<path fill="none" stroke="#191970" d="M387.4651,-858.0617C414.6496,-865.1185 448.4877,-873.9024 473.7928,-880.4713"/>
<polygon fill="#191970" stroke="#191970" points="388.3376,-854.6723 377.779,-855.5473 386.5787,-861.4477 388.3376,-854.6723"/>
</g>
<!-- Node202434 -->
<g id="node5" class="node">
<title>Node202434</title>
<g id="a_node5"><a xlink:href="quickjs_8c.html#a1bf6b62983e8fff99c0a5d5a9f486115" target="_top" xlink:title="js_async_function_resume">
<polygon fill="none" stroke="#ff0000" points="444,-792.5 444,-811.5 577,-811.5 577,-792.5 444,-792.5"/>
<text text-anchor="middle" x="510.5" y="-799.5" font-family="Helvetica,sans-Serif" font-size="10.00" fill="#000000">js_async_function_resume</text>
</a>
</g>
</g>
<!-- Node202424&#45;&gt;Node202434 -->
<g id="edge4" class="edge">
<title>Node202424&#45;&gt;Node202434</title>
<path fill="none" stroke="#191970" d="M387.4651,-833.9383C414.6496,-826.8815 448.4877,-818.0976 473.7928,-811.5287"/>
<polygon fill="#191970" stroke="#191970" points="386.5787,-830.5523 377.779,-836.4527 388.3376,-837.3277 386.5787,-830.5523"/>
</g>
<!-- Node202441 -->
<g id="node6" class="node">
<title>Node202441</title>
<g id="a_node6"><a xlink:href="quickjs_8c.html#a89b019c704a2d2914bc30b30a72040b3" target="_top" xlink:title="js_async_generator\l_resume_next">
<polygon fill="none" stroke="#000000" points="460,-831 460,-861 561,-861 561,-831 460,-831"/>
<text text-anchor="start" x="468" y="-849" font-family="Helvetica,sans-Serif" font-size="10.00" fill="#000000">js_async_generator</text>
<text text-anchor="middle" x="510.5" y="-838" font-family="Helvetica,sans-Serif" font-size="10.00" fill="#000000">_resume_next</text>
</a>
</g>
</g>
<!-- Node202424&#45;&gt;Node202441 -->
<g id="edge5" class="edge">
<title>Node202424&#45;&gt;Node202441</title>
<path fill="none" stroke="#191970" d="M403.388,-846C421.9885,-846 442.1368,-846 459.8866,-846"/>
<polygon fill="#191970" stroke="#191970" points="403.2387,-842.5001 393.2387,-846 403.2386,-849.5001 403.2387,-842.5001"/>
</g>
<!-- Node202442 -->
<g id="node7" class="node">
<title>Node202442</title>
<g id="a_node7"><a xlink:href="quickjs_8c.html#ae19867da709929c072f05e90301835a4" target="_top" xlink:title="js_async_generator\l_function_call">
<polygon fill="none" stroke="#ff0000" points="460,-919 460,-949 561,-949 561,-919 460,-919"/>
<text text-anchor="start" x="468" y="-937" font-family="Helvetica,sans-Serif" font-size="10.00" fill="#000000">js_async_generator</text>
<text text-anchor="middle" x="510.5" y="-926" font-family="Helvetica,sans-Serif" font-size="10.00" fill="#000000">_function_call</text>
</a>
</g>
</g>
<!-- Node202424&#45;&gt;Node202442 -->
<g id="edge6" class="edge">
<title>Node202424&#45;&gt;Node202442</title>
<path fill="none" stroke="#191970" d="M363.1366,-861.2394C383.5367,-874.8664 414.9583,-894.818 444,-909 451.204,-912.518 459.0369,-915.8612 466.7149,-918.8915"/>
<polygon fill="#191970" stroke="#191970" points="365.0943,-858.3381 354.8476,-855.6445 361.178,-864.1401 365.0943,-858.3381"/>
</g>
<!-- Node202443&#45;&gt;Node202423 -->
<g id="edge14" class="edge">
<title>Node202443&#45;&gt;Node202423</title>
<path fill="none" stroke="#191970" d="M305.4088,-407.5497C276.8289,-401.469 237.8374,-390.8129 215.095,-382.5924"/>
<polygon fill="#191970" stroke="#191970" points="304.923,-411.0222 315.4179,-409.57 306.3081,-404.1605 304.923,-411.0222"/>
</g>
<!-- Node202443&#45;&gt;Node202434 -->
<g id="edge15" class="edge">
<title>Node202443&#45;&gt;Node202434</title>
<path fill="none" stroke="#191970" d="M343.8892,-430.749C354.4185,-500.1436 392.8155,-731.3949 444,-783 447.805,-786.8362 452.3271,-789.9109 457.1966,-792.3732"/>
<polygon fill="#191970" stroke="#191970" points="347.3307,-430.0967 342.3924,-420.7232 340.4074,-431.1304 347.3307,-430.0967"/>
</g>
<!-- Node202444 -->
<g id="node9" class="node">
<title>Node202444</title>
<g id="a_node9"><a xlink:href="structqjs_1_1js__traits_3_01std_1_1function_3_01R_07Args_8_8_8_08_4_01_4.html#ac449e51d3fe10c6c115596fa6ec278ee" target="_top" xlink:title="qjs::js_traits\&lt; std\l::function\&lt; R(Args...)\l\&gt; \&gt;::unwrap">
<polygon fill="none" stroke="#000000" points="456,-190.5 456,-231.5 565,-231.5 565,-190.5 456,-190.5"/>
<text text-anchor="start" x="464" y="-219.5" font-family="Helvetica,sans-Serif" font-size="10.00" fill="#000000">qjs::js_traits&lt; std</text>
<text text-anchor="start" x="464" y="-208.5" font-family="Helvetica,sans-Serif" font-size="10.00" fill="#000000">::function&lt; R(Args...)</text>
<text text-anchor="middle" x="510.5" y="-197.5" font-family="Helvetica,sans-Serif" font-size="10.00" fill="#000000">&gt; &gt;::unwrap</text>
</a>
</g>
</g>
<!-- Node202443&#45;&gt;Node202444 -->
<g id="edge8" class="edge">
<title>Node202443&#45;&gt;Node202444</title>
<path fill="none" stroke="#191970" d="M376.9583,-407.9335C388.2436,-405.2677 399.8647,-400.4868 408,-392 455.7425,-342.1948 400.0562,-294.1868 444,-241 447.3882,-236.8991 451.4547,-233.3363 455.8855,-230.2454"/>
<polygon fill="#191970" stroke="#191970" points="375.9849,-404.5547 366.7983,-409.8327 377.2712,-411.4356 375.9849,-404.5547"/>
</g>
<!-- Node202445 -->
<g id="node10" class="node">
<title>Node202445</title>
<g id="a_node10"><a xlink:href="quickjs-libc_8c.html#abb1cbe3fdf905e81f603a3a0bfce475a" target="_top" xlink:title="call_handler">
<polygon fill="none" stroke="#000000" points="476.5,-152.5 476.5,-171.5 544.5,-171.5 544.5,-152.5 476.5,-152.5"/>
<text text-anchor="middle" x="510.5" y="-159.5" font-family="Helvetica,sans-Serif" font-size="10.00" fill="#000000">call_handler</text>
</a>
</g>
</g>
<!-- Node202443&#45;&gt;Node202445 -->
<g id="edge9" class="edge">
<title>Node202443&#45;&gt;Node202445</title>
<path fill="none" stroke="#191970" d="M376.6659,-408.3754C388.1704,-405.7649 400.0024,-400.9057 408,-392 471.5637,-321.2192 380.5061,-251.8435 444,-181 452.2542,-171.7903 464.6315,-166.9158 476.4777,-164.3789"/>
<polygon fill="#191970" stroke="#191970" points="375.9794,-404.9425 366.7447,-410.1358 377.2024,-411.8348 375.9794,-404.9425"/>
</g>
<!-- Node202446 -->
<g id="node11" class="node">
<title>Node202446</title>
<g id="a_node11"><a xlink:href="quickjs-libc_8c.html#a9fa4c190ba56314c7ed9b00bbc7ad0f9" target="_top" xlink:title="handle_posted_message">
<polygon fill="none" stroke="#000000" points="448,-114.5 448,-133.5 573,-133.5 573,-114.5 448,-114.5"/>
<text text-anchor="middle" x="510.5" y="-121.5" font-family="Helvetica,sans-Serif" font-size="10.00" fill="#000000">handle_posted_message</text>
</a>
</g>
</g>
<!-- Node202443&#45;&gt;Node202446 -->
<g id="edge10" class="edge">
<title>Node202443&#45;&gt;Node202446</title>
<path fill="none" stroke="#191970" d="M376.5244,-408.5498C388.1253,-405.9646 400.0545,-401.0769 408,-392 481.6487,-307.8633 370.4343,-227.2092 444,-143 447.3178,-139.2021 451.337,-136.139 455.7379,-133.6718"/>
<polygon fill="#191970" stroke="#191970" points="375.7815,-405.1261 366.5226,-410.2762 376.9723,-412.0241 375.7815,-405.1261"/>
</g>
<!-- Node202447 -->
<g id="node12" class="node">
<title>Node202447</title>
<g id="a_node12"><a xlink:href="quickjs_8c.html#aa049793cc8648d35fe81876a2543ca4e" target="_top" xlink:title="JS_GetIterator2">
<polygon fill="none" stroke="#ff0000" points="467.5,-76.5 467.5,-95.5 553.5,-95.5 553.5,-76.5 467.5,-76.5"/>
<text text-anchor="middle" x="510.5" y="-83.5" font-family="Helvetica,sans-Serif" font-size="10.00" fill="#000000">JS_GetIterator2</text>
</a>
</g>
</g>
<!-- Node202443&#45;&gt;Node202447 -->
<g id="edge11" class="edge">
<title>Node202443&#45;&gt;Node202447</title>
<path fill="none" stroke="#191970" d="M376.6201,-408.6327C388.2298,-406.0553 400.1402,-401.1512 408,-392 491.7601,-294.4774 360.3361,-202.6052 444,-105 450.017,-97.9804 458.4306,-93.4646 467.2547,-90.5815"/>
<polygon fill="#191970" stroke="#191970" points="375.8705,-405.2101 366.6044,-410.3471 377.0516,-412.1097 375.8705,-405.2101"/>
</g>
<!-- Node202479 -->
<g id="node13" class="node">
<title>Node202479</title>
<g id="a_node13"><a xlink:href="quickjs_8c.html#ad6303fbd3add4afa0cb64b0aa6d431ce" target="_top" xlink:title="JS_IteratorNext2">
<polygon fill="none" stroke="#ff0000" points="465,-716.5 465,-735.5 556,-735.5 556,-716.5 465,-716.5"/>
<text text-anchor="middle" x="510.5" y="-723.5" font-family="Helvetica,sans-Serif" font-size="10.00" fill="#000000">JS_IteratorNext2</text>
</a>
</g>
</g>
<!-- Node202443&#45;&gt;Node202479 -->
<g id="edge12" class="edge">
<title>Node202443&#45;&gt;Node202479</title>
<path fill="none" stroke="#191970" d="M348.9993,-429.8978C362.1674,-461.3487 388.8563,-526.559 408,-583 426.433,-637.3457 403.3352,-666.5079 444,-707 449.7857,-712.7611 457.1897,-716.8022 464.9442,-719.6306"/>
<polygon fill="#191970" stroke="#191970" points="352.1864,-428.4477 345.0823,-420.5874 345.7341,-431.1622 352.1864,-428.4477"/>
</g>
<!-- Node202483 -->
<g id="node14" class="node">
<title>Node202483</title>
<g id="a_node14"><a xlink:href="quickjs_8c.html#afd4ef2d701fa0702f321925b61c57bbf" target="_top" xlink:title="js_call_bound_function">
<polygon fill="none" stroke="#ff0000" points="452.5,-678.5 452.5,-697.5 568.5,-697.5 568.5,-678.5 452.5,-678.5"/>
<text text-anchor="middle" x="510.5" y="-685.5" font-family="Helvetica,sans-Serif" font-size="10.00" fill="#000000">js_call_bound_function</text>
</a>
</g>
</g>
<!-- Node202443&#45;&gt;Node202483 -->
<g id="edge13" class="edge">
<title>Node202443&#45;&gt;Node202483</title>
<path fill="none" stroke="#191970" d="M348.4163,-430.2291C371.2499,-489.3464 439.2409,-664.7011 444,-669 448.2769,-672.8633 453.2879,-675.9458 458.6073,-678.4045"/>
<polygon fill="#191970" stroke="#191970" points="351.5699,-428.6795 344.7037,-420.6107 345.0395,-431.2002 351.5699,-428.6795"/>
</g>
<!-- Node202484 -->
<g id="node15" class="node">
<title>Node202484</title>
<g id="a_node15"><a xlink:href="quickjs_8c.html#a3e852026d167fa03c673f86697dd3e67" target="_top" xlink:title="js_async_generator\l_resolve_or_reject">
<polygon fill="none" stroke="#ff0000" points="460,-629 460,-659 561,-659 561,-629 460,-629"/>
<text text-anchor="start" x="468" y="-647" font-family="Helvetica,sans-Serif" font-size="10.00" fill="#000000">js_async_generator</text>
<text text-anchor="middle" x="510.5" y="-636" font-family="Helvetica,sans-Serif" font-size="10.00" fill="#000000">_resolve_or_reject</text>
</a>
</g>
</g>
<!-- Node202443&#45;&gt;Node202484 -->
<g id="edge16" class="edge">
<title>Node202443&#45;&gt;Node202484</title>
<path fill="none" stroke="#191970" d="M345.5187,-430.6015C355.8856,-471.3358 385.1438,-565.7643 444,-619 448.6651,-623.2196 454.1107,-626.7502 459.8407,-629.6988"/>
<polygon fill="#191970" stroke="#191970" points="348.9042,-429.7112 343.1354,-420.8246 342.1034,-431.3691 348.9042,-429.7112"/>
</g>
<!-- Node202487 -->
<g id="node16" class="node">
<title>Node202487</title>
<g id="a_node16"><a xlink:href="quickjs_8c.html#a2355fabf91f59212ea65baba1b0b7c1b" target="_top" xlink:title="js_async_generator_next">
<polygon fill="none" stroke="#000000" points="448,-590.5 448,-609.5 573,-609.5 573,-590.5 448,-590.5"/>
<text text-anchor="middle" x="510.5" y="-597.5" font-family="Helvetica,sans-Serif" font-size="10.00" fill="#000000">js_async_generator_next</text>
</a>
</g>
</g>
<!-- Node202443&#45;&gt;Node202487 -->
<g id="edge17" class="edge">
<title>Node202443&#45;&gt;Node202487</title>
<path fill="none" stroke="#191970" d="M347.3741,-430.4549C359.9911,-465.8828 391.5563,-540.9513 444,-581 449.0577,-584.8623 454.8715,-587.9398 460.9116,-590.3918"/>
<polygon fill="#191970" stroke="#191970" points="350.6222,-429.137 344.0646,-420.8154 344.0015,-431.41 350.6222,-429.137"/>
</g>
<!-- Node202488 -->
<g id="node17" class="node">
<title>Node202488</title>
<g id="a_node17"><a xlink:href="quickjs_8c.html#adc0280beaa04d2b8fcaf05a82ab26c74" target="_top" xlink:title="js_link_module">
<polygon fill="none" stroke="#ff0000" points="470,-534.5 470,-553.5 551,-553.5 551,-534.5 470,-534.5"/>
<text text-anchor="middle" x="510.5" y="-541.5" font-family="Helvetica,sans-Serif" font-size="10.00" fill="#000000">js_link_module</text>
</a>
</g>
</g>
<!-- Node202443&#45;&gt;Node202488 -->
<g id="edge18" class="edge">
<title>Node202443&#45;&gt;Node202488</title>
<path fill="none" stroke="#191970" d="M352.57,-429.21C369.559,-454.4691 403.65,-499.8612 444,-525 451.8471,-529.8889 460.9899,-533.5558 469.9391,-536.2934"/>
<polygon fill="#191970" stroke="#191970" points="355.3317,-427.0391 346.9187,-420.5992 349.4795,-430.8799 355.3317,-427.0391"/>
</g>
<!-- Node202492 -->
<g id="node18" class="node">
<title>Node202492</title>
<g id="a_node18"><a xlink:href="quickjs_8c.html#a6357b7fdae71c70c140e78e6c20cb5c2" target="_top" xlink:title="js_dynamic_import_job">
<polygon fill="none" stroke="#ff0000" points="452.5,-496.5 452.5,-515.5 568.5,-515.5 568.5,-496.5 452.5,-496.5"/>
<text text-anchor="middle" x="510.5" y="-503.5" font-family="Helvetica,sans-Serif" font-size="10.00" fill="#000000">js_dynamic_import_job</text>
</a>
</g>
</g>
<!-- Node202443&#45;&gt;Node202492 -->
<g id="edge20" class="edge">
<title>Node202443&#45;&gt;Node202492</title>
<path fill="none" stroke="#191970" d="M358.8088,-427.278C378.3728,-444.3727 411.3692,-470.9551 444,-487 451.6502,-490.7617 460.1721,-493.8983 468.4937,-496.4672"/>
<polygon fill="#191970" stroke="#191970" points="361.0859,-424.6192 351.2868,-420.5909 356.435,-429.8508 361.0859,-424.6192"/>
</g>
<!-- Node202496 -->
<g id="node19" class="node">
<title>Node202496</title>
<g id="a_node19"><a xlink:href="quickjs_8c.html#a8d4b24969540aff427939eeda47f451d" target="_top" xlink:title="js_function_apply">
<polygon fill="none" stroke="#ff0000" points="464.5,-754.5 464.5,-773.5 556.5,-773.5 556.5,-754.5 464.5,-754.5"/>
<text text-anchor="middle" x="510.5" y="-761.5" font-family="Helvetica,sans-Serif" font-size="10.00" fill="#000000">js_function_apply</text>
</a>
</g>
</g>
<!-- Node202443&#45;&gt;Node202496 -->
<g id="edge21" class="edge">
<title>Node202443&#45;&gt;Node202496</title>
<path fill="none" stroke="#191970" d="M349.406,-429.767C363.1588,-461.03 390.6687,-525.9763 408,-583 429.4482,-653.5689 393.4243,-691.3148 444,-745 449.5164,-750.8556 456.7003,-754.9475 464.3011,-757.798"/>
<polygon fill="#191970" stroke="#191970" points="352.5572,-428.239 345.304,-420.5162 346.1581,-431.0765 352.5572,-428.239"/>
</g>
<!-- Node202499 -->
<g id="node20" class="node">
<title>Node202499</title>
<g id="a_node20"><a xlink:href="quickjs_8c.html#a677ad630a103e1f3d5129e0549112b50" target="_top" xlink:title="js_function_call">
<polygon fill="none" stroke="#000000" points="468.5,-458.5 468.5,-477.5 552.5,-477.5 552.5,-458.5 468.5,-458.5"/>
<text text-anchor="middle" x="510.5" y="-465.5" font-family="Helvetica,sans-Serif" font-size="10.00" fill="#000000">js_function_call</text>
</a>
</g>
</g>
<!-- Node202443&#45;&gt;Node202499 -->
<g id="edge23" class="edge">
<title>Node202443&#45;&gt;Node202499</title>
<path fill="none" stroke="#191970" d="M374.9579,-424.2589C394.9312,-431.8737 420.752,-441.4023 444,-449 454.0435,-452.2823 465.04,-455.5532 475.1476,-458.4326"/>
<polygon fill="#191970" stroke="#191970" points="375.9659,-420.8969 365.3758,-420.5817 373.4579,-427.4322 375.9659,-420.8969"/>
</g>
<!-- Node202450 -->
<g id="node21" class="node">
<title>Node202450</title>
<g id="a_node21"><a xlink:href="quickjs_8c.html#a5e32da9a43002cb96dcbd62a1a340144" target="_top" xlink:title="js_array_from">
<polygon fill="none" stroke="#000000" points="472.5,-420.5 472.5,-439.5 548.5,-439.5 548.5,-420.5 472.5,-420.5"/>
<text text-anchor="middle" x="510.5" y="-427.5" font-family="Helvetica,sans-Serif" font-size="10.00" fill="#000000">js_array_from</text>
</a>
</g>
</g>
<!-- Node202443&#45;&gt;Node202450 -->
<g id="edge24" class="edge">
<title>Node202443&#45;&gt;Node202450</title>
<path fill="none" stroke="#191970" d="M376.8957,-415.0237C404.8777,-418.1603 443.6499,-422.5065 472.2214,-425.7092"/>
<polygon fill="#191970" stroke="#191970" points="377.0711,-411.5215 366.7434,-413.8857 376.2912,-418.478 377.0711,-411.5215"/>
</g>
<!-- Node202476 -->
<g id="node22" class="node">
<title>Node202476</title>
<g id="a_node22"><a xlink:href="quickjs_8c.html#aa0bbf08a7e91459c68a312fba7016c6d" target="_top" xlink:title="js_array_every">
<polygon fill="none" stroke="#000000" points="470.5,-382.5 470.5,-401.5 550.5,-401.5 550.5,-382.5 470.5,-382.5"/>
<text text-anchor="middle" x="510.5" y="-389.5" font-family="Helvetica,sans-Serif" font-size="10.00" fill="#000000">js_array_every</text>
</a>
</g>
</g>
<!-- Node202443&#45;&gt;Node202476 -->
<g id="edge25" class="edge">
<title>Node202443&#45;&gt;Node202476</title>
<path fill="none" stroke="#191970" d="M376.6835,-407.0001C404.0578,-403.9316 441.8501,-399.6953 470.2923,-396.5071"/>
<polygon fill="#191970" stroke="#191970" points="376.2912,-403.522 366.7434,-408.1143 377.0711,-410.4785 376.2912,-403.522"/>
</g>
<!-- Node202500 -->
<g id="node23" class="node">
<title>Node202500</title>
<g id="a_node23"><a xlink:href="quickjs_8c.html#a36c1692489542a86dd79a7d39ab8ff95" target="_top" xlink:title="js_array_reduce">
<polygon fill="none" stroke="#000000" points="467.5,-344.5 467.5,-363.5 553.5,-363.5 553.5,-344.5 467.5,-344.5"/>
<text text-anchor="middle" x="510.5" y="-351.5" font-family="Helvetica,sans-Serif" font-size="10.00" fill="#000000">js_array_reduce</text>
</a>
</g>
</g>
<!-- Node202443&#45;&gt;Node202500 -->
<g id="edge26" class="edge">
<title>Node202443&#45;&gt;Node202500</title>
<path fill="none" stroke="#191970" d="M376.4974,-402.4249C386.8067,-399.5363 397.9828,-396.0123 408,-392 424.7945,-385.2731 427.2121,-379.7435 444,-373 452.9135,-369.4196 462.7502,-366.2214 472.0626,-363.5163"/>
<polygon fill="#191970" stroke="#191970" points="375.3018,-399.1219 366.552,-405.0961 377.1176,-405.8823 375.3018,-399.1219"/>
</g>
<!-- Node202501 -->
<g id="node24" class="node">
<title>Node202501</title>
<g id="a_node24"><a xlink:href="quickjs_8c.html#a9dd41b086da4e13b3487cc9c6e2af2b8" target="_top" xlink:title="js_array_find">
<polygon fill="none" stroke="#000000" points="474.5,-306.5 474.5,-325.5 546.5,-325.5 546.5,-306.5 474.5,-306.5"/>
<text text-anchor="middle" x="510.5" y="-313.5" font-family="Helvetica,sans-Serif" font-size="10.00" fill="#000000">js_array_find</text>
</a>
</g>
</g>
<!-- Node202443&#45;&gt;Node202501 -->
<g id="edge27" class="edge">
<title>Node202443&#45;&gt;Node202501</title>
<path fill="none" stroke="#191970" d="M376.8711,-405.9076C387.6377,-403.1002 398.9734,-398.7475 408,-392 431.999,-374.0606 420.0187,-352.9631 444,-335 452.8413,-328.3775 463.9164,-324.061 474.4779,-321.2485"/>
<polygon fill="#191970" stroke="#191970" points="375.8133,-402.5576 366.8168,-408.1534 377.3393,-409.3892 375.8133,-402.5576"/>
</g>
<!-- Node202502 -->
<g id="node25" class="node">
<title>Node202502</title>
<g id="a_node25"><a xlink:href="quickjs_8c.html#ad90c33b4aae1181151bda4a98ac2ef23" target="_top" xlink:title="JS_FlattenIntoArray">
<polygon fill="none" stroke="#ff0000" points="458.5,-250.5 458.5,-269.5 562.5,-269.5 562.5,-250.5 458.5,-250.5"/>
<text text-anchor="middle" x="510.5" y="-257.5" font-family="Helvetica,sans-Serif" font-size="10.00" fill="#000000">JS_FlattenIntoArray</text>
</a>
</g>
</g>
<!-- Node202443&#45;&gt;Node202502 -->
<g id="edge28" class="edge">
<title>Node202443&#45;&gt;Node202502</title>
<path fill="none" stroke="#191970" d="M376.616,-407.2477C387.7749,-404.5263 399.406,-399.8857 408,-392 441.2688,-361.4729 414.4779,-331.1637 444,-297 454.6252,-284.7042 470.3918,-275.6825 483.9064,-269.6271"/>
<polygon fill="#191970" stroke="#191970" points="375.7234,-403.8567 366.6014,-409.2454 377.0929,-410.7215 375.7234,-403.8567"/>
</g>
<!-- Node202504 -->
<g id="node26" class="node">
<title>Node202504</title>
<g id="a_node26"><a xlink:href="quickjs_8c.html#aed1bf9ce4b9e3a82388679dd6ec7635b" target="_top" xlink:title="js_string_replace">
<polygon fill="none" stroke="#000000" points="465.5,-38.5 465.5,-57.5 555.5,-57.5 555.5,-38.5 465.5,-38.5"/>
<text text-anchor="middle" x="510.5" y="-45.5" font-family="Helvetica,sans-Serif" font-size="10.00" fill="#000000">js_string_replace</text>
</a>
</g>
</g>
<!-- Node202443&#45;&gt;Node202504 -->
<g id="edge30" class="edge">
<title>Node202443&#45;&gt;Node202504</title>
<path fill="none" stroke="#191970" d="M376.6943,-408.696C388.3109,-406.1244 400.2066,-401.2078 408,-392 501.8887,-281.0716 350.2208,-178.021 444,-67 449.5787,-60.3957 457.2796,-56.0034 465.4677,-53.1012"/>
<polygon fill="#191970" stroke="#191970" points="375.9394,-405.274 366.6678,-410.4012 377.1131,-412.1749 375.9394,-405.274"/>
</g>
<!-- Node202488&#45;&gt;Node202488 -->
<g id="edge19" class="edge">
<title>Node202488&#45;&gt;Node202488</title>
<path fill="none" stroke="#191970" d="M479.0629,-562.2746C479.9592,-567.741 490.4382,-572 510.5,-572 540.3594,-572 548.9906,-562.5653 536.3937,-553.7571"/>
<polygon fill="#191970" stroke="#191970" points="482.085,-564.0475 484.6063,-553.7571 476.2181,-560.2291 482.085,-564.0475"/>
</g>
<!-- Node202496&#45;&gt;Node202423 -->
<g id="edge22" class="edge">
<title>Node202496&#45;&gt;Node202423</title>
<path fill="none" stroke="#191970" d="M454.9341,-751.4914C451.0751,-749.6204 447.3811,-747.4705 444,-745 302.1351,-641.3441 217.559,-429.9052 199.9507,-382.5515"/>
<polygon fill="#191970" stroke="#191970" points="453.5929,-754.7242 464.168,-755.3701 456.3038,-748.2704 453.5929,-754.7242"/>
</g>
<!-- Node202502&#45;&gt;Node202502 -->
<g id="edge29" class="edge">
<title>Node202502&#45;&gt;Node202502</title>
<path fill="none" stroke="#191970" d="M479.0629,-278.2746C479.9592,-283.741 490.4382,-288 510.5,-288 540.3594,-288 548.9906,-278.5653 536.3937,-269.7571"/>
<polygon fill="#191970" stroke="#191970" points="482.085,-280.0475 484.6063,-269.7571 476.2181,-276.2291 482.085,-280.0475"/>
</g>
<!-- Node202529&#45;&gt;Node202423 -->
<g id="edge32" class="edge">
<title>Node202529&#45;&gt;Node202423</title>
<path fill="none" stroke="#191970" d="M312.7961,-347.8979C291.5982,-354.8825 262.2201,-362.8432 238.2954,-368.1948"/>
<polygon fill="#191970" stroke="#191970" points="314.1689,-351.127 322.4855,-344.5632 311.8909,-344.508 314.1689,-351.127"/>
</g>
<!-- Node202543&#45;&gt;Node202423 -->
<g id="edge34" class="edge">
<title>Node202543&#45;&gt;Node202423</title>
<path fill="none" stroke="#191970" d="M295.0774,-379.3348C276.869,-379.9342 256.0761,-379.8846 238.2954,-379.186"/>
<polygon fill="#191970" stroke="#191970" points="295.3253,-382.8277 305.1736,-378.9211 295.0386,-375.8335 295.3253,-382.8277"/>
</g>
<!-- Node202543&#45;&gt;Node202504 -->
<g id="edge36" class="edge">
<title>Node202543&#45;&gt;Node202504</title>
<path fill="none" stroke="#191970" d="M386.3344,-367.8829C394.5738,-364.9807 402.3379,-360.5924 408,-354 491.7601,-256.4774 360.3361,-164.6052 444,-67 449.5481,-60.5274 457.1339,-56.1836 465.2004,-53.2856"/>
<polygon fill="#191970" stroke="#191970" points="385.2125,-364.5628 376.5411,-370.6503 387.116,-371.2991 385.2125,-364.5628"/>
</g>
<!-- Node202543&#45;&gt;Node202777 -->
<g id="edge35" class="edge">
<title>Node202543&#45;&gt;Node202777</title>
<path fill="none" stroke="#191970" d="M386.4086,-367.9462C394.6426,-365.0394 402.3858,-360.6332 408,-354 501.8887,-243.0716 350.2208,-140.021 444,-29 451.5932,-20.0108 463.1181,-15.1196 474.4518,-12.5062"/>
<polygon fill="#191970" stroke="#191970" points="385.2867,-364.6261 376.6152,-370.7135 387.1901,-371.3624 385.2867,-364.6261"/>
</g>
</g>
</svg>
