<?xml version="1.0" encoding="UTF-8" standalone="no"?>
<!DOCTYPE svg PUBLIC "-//W3C//DTD SVG 1.1//EN"
 "http://www.w3.org/Graphics/SVG/1.1/DTD/svg11.dtd">
<!-- Generated by graphviz version 2.40.1 (20161225.0304)
 -->
<!-- Title: JS_DefinePropertyValueValue Pages: 1 -->
<svg width="1101pt" height="1084pt"
 viewBox="0.00 0.00 1101.00 1084.00" xmlns="http://www.w3.org/2000/svg" xmlns:xlink="http://www.w3.org/1999/xlink">
<g id="graph0" class="graph" transform="scale(1 1) rotate(0) translate(4 1080.0042)">
<title>JS_DefinePropertyValueValue</title>
<!-- Node210098 -->
<g id="node1" class="node">
<title>Node210098</title>
<polygon fill="#bfbfbf" stroke="#000000" points="0,-112.7074 0,-131.7074 149,-131.7074 149,-112.7074 0,-112.7074"/>
<text text-anchor="middle" x="74.5" y="-119.7074" font-family="Helvetica,sans-Serif" font-size="10.00" fill="#000000">JS_DefinePropertyValueValue</text>
</g>
<!-- Node210099 -->
<g id="node2" class="node">
<title>Node210099</title>
<g id="a_node2"><a xlink:href="quickjs_8c.html#a0a8765bd4012467d9139bc24aabcb3ca" target="_top" xlink:title="JS_DefinePropertyValue">
<polygon fill="none" stroke="#000000" points="185,-207.7074 185,-226.7074 309,-226.7074 309,-207.7074 185,-207.7074"/>
<text text-anchor="middle" x="247" y="-214.7074" font-family="Helvetica,sans-Serif" font-size="10.00" fill="#000000">JS_DefinePropertyValue</text>
</a>
</g>
</g>
<!-- Node210098&#45;&gt;Node210099 -->
<g id="edge1" class="edge">
<title>Node210098&#45;&gt;Node210099</title>
<path fill="none" stroke="#191970" d="M87.5873,-131.8618C107.7609,-146.451 148.0031,-174.4039 185,-193.2074 192.6914,-197.1165 201.1772,-200.789 209.3378,-204.0297"/>
<polygon fill="#191970" stroke="#191970" points="208.111,-207.3077 218.7011,-207.6241 210.6196,-200.7727 208.111,-207.3077"/>
</g>
<!-- Node210128 -->
<g id="node15" class="node">
<title>Node210128</title>
<g id="a_node15"><a xlink:href="quickjs_8h.html#afaa20c47565bc704c6c85f3d77254e7d" target="_top" xlink:title="JS_FreeValue">
<polygon fill="none" stroke="#ff0000" points="708.5,-207.7074 708.5,-226.7074 786.5,-226.7074 786.5,-207.7074 708.5,-207.7074"/>
<text text-anchor="middle" x="747.5" y="-214.7074" font-family="Helvetica,sans-Serif" font-size="10.00" fill="#000000">JS_FreeValue</text>
</a>
</g>
</g>
<!-- Node210098&#45;&gt;Node210128 -->
<g id="edge56" class="edge">
<title>Node210098&#45;&gt;Node210128</title>
<path fill="none" stroke="#191970" d="M141.8004,-131.7074C277.1745,-150.8167 579.5913,-193.5056 698.3136,-210.2643"/>
<polygon fill="#191970" stroke="#191970" points="697.8265,-213.7301 708.2176,-211.6623 698.805,-206.7989 697.8265,-213.7301"/>
</g>
<!-- Node210150 -->
<g id="node28" class="node">
<title>Node210150</title>
<g id="a_node28"><a xlink:href="quickjs_8c.html#ab7fc45a99935a1c0ba50b0216d9401a9" target="_top" xlink:title="JS_FreeAtom">
<polygon fill="none" stroke="#ff0000" points="709,-131.7074 709,-150.7074 786,-150.7074 786,-131.7074 709,-131.7074"/>
<text text-anchor="middle" x="747.5" y="-138.7074" font-family="Helvetica,sans-Serif" font-size="10.00" fill="#000000">JS_FreeAtom</text>
</a>
</g>
</g>
<!-- Node210098&#45;&gt;Node210150 -->
<g id="edge55" class="edge">
<title>Node210098&#45;&gt;Node210150</title>
<path fill="none" stroke="#191970" d="M84.7474,-112.6579C103.1257,-96.2611 143.6479,-63.3474 185,-51.2074 384.1507,7.2588 459.0876,25.3702 652,-51.2074 688.4772,-65.6872 719.106,-101.4327 735.24,-123.2674"/>
<polygon fill="#191970" stroke="#191970" points="732.3972,-125.3093 741.0606,-131.4082 738.0915,-121.2379 732.3972,-125.3093"/>
</g>
<!-- Node210244 -->
<g id="node29" class="node">
<title>Node210244</title>
<g id="a_node29"><a xlink:href="quickjs_8c.html#a859d5c989a2aaecef1653b3ac279e108" target="_top" xlink:title="JS_ValueToAtom">
<polygon fill="none" stroke="#ff0000" points="701,-169.7074 701,-188.7074 794,-188.7074 794,-169.7074 701,-169.7074"/>
<text text-anchor="middle" x="747.5" y="-176.7074" font-family="Helvetica,sans-Serif" font-size="10.00" fill="#000000">JS_ValueToAtom</text>
</a>
</g>
</g>
<!-- Node210098&#45;&gt;Node210244 -->
<g id="edge57" class="edge">
<title>Node210098&#45;&gt;Node210244</title>
<path fill="none" stroke="#191970" d="M110.9564,-112.7034C205.1965,-90.0883 462.7309,-40.7967 652,-122.2074 673.3713,-131.3999 668.2984,-147.8347 688,-160.2074 691.3145,-162.2889 694.8772,-164.1612 698.5521,-165.8418"/>
<polygon fill="#191970" stroke="#191970" points="697.2598,-169.0946 707.8409,-169.6347 699.9061,-162.6141 697.2598,-169.0946"/>
</g>
<!-- Node210100 -->
<g id="node3" class="node">
<title>Node210100</title>
<g id="a_node3"><a xlink:href="quickjs_8c.html#ab50618f1bf78e444caa6da0e3e2785d7" target="_top" xlink:title="JS_DefineProperty">
<polygon fill="none" stroke="#ff0000" points="345,-568.7074 345,-587.7074 444,-587.7074 444,-568.7074 345,-568.7074"/>
<text text-anchor="middle" x="394.5" y="-575.7074" font-family="Helvetica,sans-Serif" font-size="10.00" fill="#000000">JS_DefineProperty</text>
</a>
</g>
</g>
<!-- Node210099&#45;&gt;Node210100 -->
<g id="edge2" class="edge">
<title>Node210099&#45;&gt;Node210100</title>
<path fill="none" stroke="#191970" d="M250.9453,-226.8633C270.7781,-275.4032 359.6984,-493.0318 386.6998,-559.1168"/>
<polygon fill="#191970" stroke="#191970" points="383.5887,-560.7561 390.6111,-568.6894 390.0687,-558.1084 383.5887,-560.7561"/>
</g>
<!-- Node210099&#45;&gt;Node210128 -->
<g id="edge54" class="edge">
<title>Node210099&#45;&gt;Node210128</title>
<path fill="none" stroke="#191970" d="M309.1247,-217.2074C409.8305,-217.2074 606.6657,-217.2074 698.3365,-217.2074"/>
<polygon fill="#191970" stroke="#191970" points="698.4552,-220.7075 708.4552,-217.2074 698.4552,-213.7075 698.4552,-220.7075"/>
</g>
<!-- Node210101 -->
<g id="node4" class="node">
<title>Node210101</title>
<g id="a_node4"><a xlink:href="quickjs_8c.html#a014abd680db53ab89cb133345742a59c" target="_top" xlink:title="__attribute__">
<polygon fill="none" stroke="#ff0000" points="711,-359.7074 711,-378.7074 784,-378.7074 784,-359.7074 711,-359.7074"/>
<text text-anchor="middle" x="747.5" y="-366.7074" font-family="Helvetica,sans-Serif" font-size="10.00" fill="#000000">__attribute__</text>
</a>
</g>
</g>
<!-- Node210100&#45;&gt;Node210101 -->
<g id="edge3" class="edge">
<title>Node210100&#45;&gt;Node210101</title>
<path fill="none" stroke="#191970" d="M396.9329,-568.5098C404.2951,-541.2856 429.0246,-463.7013 480,-426.2074 497.6365,-413.2352 628.6984,-389.3701 700.6023,-377.04"/>
<polygon fill="#191970" stroke="#191970" points="701.4922,-380.4389 710.7613,-375.3072 700.3151,-373.5385 701.4922,-380.4389"/>
</g>
<!-- Node210169 -->
<g id="node5" class="node">
<title>Node210169</title>
<g id="a_node5"><a xlink:href="quickjs_8c.html#a288254c06a39c9fca740a7abdad2834e" target="_top" xlink:title="__JS_AtomIsTaggedInt">
<polygon fill="none" stroke="#000000" points="688,-625.7074 688,-644.7074 807,-644.7074 807,-625.7074 688,-625.7074"/>
<text text-anchor="middle" x="747.5" y="-632.7074" font-family="Helvetica,sans-Serif" font-size="10.00" fill="#000000">__JS_AtomIsTaggedInt</text>
</a>
</g>
</g>
<!-- Node210100&#45;&gt;Node210169 -->
<g id="edge4" class="edge">
<title>Node210100&#45;&gt;Node210169</title>
<path fill="none" stroke="#191970" d="M396.5829,-587.7899C405.4579,-627.6484 441.4309,-779.479 480,-806.2074 542.8316,-849.7497 586.0715,-844.9009 652,-806.2074 681.1357,-789.1076 722.5772,-695.532 739.6682,-654.5012"/>
<polygon fill="#191970" stroke="#191970" points="742.9822,-655.6451 743.5537,-645.0657 736.5095,-652.9796 742.9822,-655.6451"/>
</g>
<!-- Node210170 -->
<g id="node6" class="node">
<title>Node210170</title>
<g id="a_node6"><a xlink:href="quickjs_8c.html#a89f38938cee8077ce1fbba07946ed185" target="_top" xlink:title="__JS_AtomToUInt32">
<polygon fill="none" stroke="#000000" points="693.5,-473.7074 693.5,-492.7074 801.5,-492.7074 801.5,-473.7074 693.5,-473.7074"/>
<text text-anchor="middle" x="747.5" y="-480.7074" font-family="Helvetica,sans-Serif" font-size="10.00" fill="#000000">__JS_AtomToUInt32</text>
</a>
</g>
</g>
<!-- Node210100&#45;&gt;Node210170 -->
<g id="edge5" class="edge">
<title>Node210100&#45;&gt;Node210170</title>
<path fill="none" stroke="#191970" d="M402.5164,-568.5127C416.3985,-552.5088 446.6458,-520.9664 480,-507.2074 545.4328,-480.2156 627.3239,-476.7959 683.147,-478.4838"/>
<polygon fill="#191970" stroke="#191970" points="683.1358,-481.9856 693.2572,-478.8538 683.392,-474.9903 683.1358,-481.9856"/>
</g>
<!-- Node210525 -->
<g id="node7" class="node">
<title>Node210525</title>
<g id="a_node7"><a xlink:href="quickjs_8c.html#a68c7ae36cec3bf8bbf6cc0868a71cc4b" target="_top" xlink:title="check_define_prop_flags">
<polygon fill="none" stroke="#000000" points="503.5,-283.7074 503.5,-302.7074 628.5,-302.7074 628.5,-283.7074 503.5,-283.7074"/>
<text text-anchor="middle" x="566" y="-290.7074" font-family="Helvetica,sans-Serif" font-size="10.00" fill="#000000">check_define_prop_flags</text>
</a>
</g>
</g>
<!-- Node210100&#45;&gt;Node210525 -->
<g id="edge6" class="edge">
<title>Node210100&#45;&gt;Node210525</title>
<path fill="none" stroke="#191970" d="M396.4224,-568.4366C405.0542,-525.4962 441.4947,-354.0391 480,-317.2074 484.1306,-313.2563 488.8556,-309.9455 493.918,-307.1726"/>
<polygon fill="#191970" stroke="#191970" points="495.7809,-310.1642 503.3394,-302.7399 492.8008,-303.8302 495.7809,-310.1642"/>
</g>
<!-- Node210378 -->
<g id="node8" class="node">
<title>Node210378</title>
<g id="a_node8"><a xlink:href="quickjs_8c.html#ac93c982cb636a5430b191d104083af3e" target="_top" xlink:title="convert_fast_array\l_to_array">
<polygon fill="none" stroke="#ff0000" points="698.5,-883.2074 698.5,-913.2074 796.5,-913.2074 796.5,-883.2074 698.5,-883.2074"/>
<text text-anchor="start" x="706.5" y="-901.2074" font-family="Helvetica,sans-Serif" font-size="10.00" fill="#000000">convert_fast_array</text>
<text text-anchor="middle" x="747.5" y="-890.2074" font-family="Helvetica,sans-Serif" font-size="10.00" fill="#000000">_to_array</text>
</a>
</g>
</g>
<!-- Node210100&#45;&gt;Node210378 -->
<g id="edge7" class="edge">
<title>Node210100&#45;&gt;Node210378</title>
<path fill="none" stroke="#191970" d="M395.702,-587.9053C401.8327,-635.6673 431.2426,-845.1558 480,-884.2074 538.4168,-930.9955 629.1067,-924.4882 688.4037,-913.2041"/>
<polygon fill="#191970" stroke="#191970" points="689.2502,-916.6041 698.3673,-911.2071 687.8745,-909.7406 689.2502,-916.6041"/>
</g>
<!-- Node210217 -->
<g id="node9" class="node">
<title>Node210217</title>
<g id="a_node9"><a xlink:href="quickjs_8c.html#a3dd8e78607dbc729614deacf55901b95" target="_top" xlink:title="js_shape_prepare_update">
<polygon fill="none" stroke="#ff0000" points="843,-866.7074 843,-885.7074 971,-885.7074 971,-866.7074 843,-866.7074"/>
<text text-anchor="middle" x="907" y="-873.7074" font-family="Helvetica,sans-Serif" font-size="10.00" fill="#000000">js_shape_prepare_update</text>
</a>
</g>
</g>
<!-- Node210100&#45;&gt;Node210217 -->
<g id="edge52" class="edge">
<title>Node210100&#45;&gt;Node210217</title>
<path fill="none" stroke="#191970" d="M394.7666,-588.0829C396.6183,-648.3616 409.6581,-966.0694 480,-1024.2074 592.4333,-1117.1342 680.9543,-1069.6181 807,-996.2074 849.3682,-971.5316 881.7695,-921.8571 897.1499,-894.8016"/>
<polygon fill="#191970" stroke="#191970" points="900.2695,-896.3924 902.0332,-885.9454 894.1396,-893.0124 900.2695,-896.3924"/>
</g>
<!-- Node210119 -->
<g id="node10" class="node">
<title>Node210119</title>
<g id="a_node10"><a xlink:href="quickjs_8c.html#a643df594b75933007bcdbb071b5ea8c5" target="_top" xlink:title="get_shape_prop">
<polygon fill="none" stroke="#000000" points="1007,-444.7074 1007,-463.7074 1093,-463.7074 1093,-444.7074 1007,-444.7074"/>
<text text-anchor="middle" x="1050" y="-451.7074" font-family="Helvetica,sans-Serif" font-size="10.00" fill="#000000">get_shape_prop</text>
</a>
</g>
</g>
<!-- Node210100&#45;&gt;Node210119 -->
<g id="edge14" class="edge">
<title>Node210100&#45;&gt;Node210119</title>
<path fill="none" stroke="#191970" d="M395.3472,-568.6101C401.4263,-500.809 439.3262,-95.7071 480,-61.2074 590.896,32.8552 672.9176,-15.9259 807,-72.2074 896.7101,-109.8634 917.3334,-136.0546 971,-217.2074 1018.4362,-288.9388 1039.7829,-391.7308 1046.9973,-434.4362"/>
<polygon fill="#191970" stroke="#191970" points="1043.5535,-435.0654 1048.6014,-444.3804 1050.4642,-433.9506 1043.5535,-435.0654"/>
</g>
<!-- Node210118 -->
<g id="node11" class="node">
<title>Node210118</title>
<g id="a_node11"><a xlink:href="quickjs_8c.html#a06b76f5124fd985e35f4c652fd018d6d" target="_top" xlink:title="find_own_property">
<polygon fill="none" stroke="#ff0000" points="859,-226.7074 859,-245.7074 955,-245.7074 955,-226.7074 859,-226.7074"/>
<text text-anchor="middle" x="907" y="-233.7074" font-family="Helvetica,sans-Serif" font-size="10.00" fill="#000000">find_own_property</text>
</a>
</g>
</g>
<!-- Node210100&#45;&gt;Node210118 -->
<g id="edge10" class="edge">
<title>Node210100&#45;&gt;Node210118</title>
<path fill="none" stroke="#191970" d="M394.7177,-568.5087C396.2989,-507.9033 408.102,-181.8775 480,-122.2074 591.8353,-29.3923 674.6175,-62.2354 807,-122.2074 850.3571,-141.849 882.3505,-190.6073 897.4059,-217.559"/>
<polygon fill="#191970" stroke="#191970" points="894.3499,-219.266 902.1759,-226.4076 900.5116,-215.9443 894.3499,-219.266"/>
</g>
<!-- Node210145 -->
<g id="node12" class="node">
<title>Node210145</title>
<g id="a_node12"><a xlink:href="quickjs_8c.html#a9e7b4bccf927d811b0f99b40b08c0472" target="_top" xlink:title="free_var_ref">
<polygon fill="none" stroke="#ff0000" points="532,-245.7074 532,-264.7074 600,-264.7074 600,-245.7074 532,-245.7074"/>
<text text-anchor="middle" x="566" y="-252.7074" font-family="Helvetica,sans-Serif" font-size="10.00" fill="#000000">free_var_ref</text>
</a>
</g>
</g>
<!-- Node210100&#45;&gt;Node210145 -->
<g id="edge12" class="edge">
<title>Node210100&#45;&gt;Node210145</title>
<path fill="none" stroke="#191970" d="M395.892,-568.4143C402.8105,-521.1042 434.968,-316.7546 480,-274.2074 491.1977,-263.6275 506.9018,-258.4324 521.8308,-256.0222"/>
<polygon fill="#191970" stroke="#191970" points="522.4831,-259.4683 531.9775,-254.7666 521.6234,-252.5213 522.4831,-259.4683"/>
</g>
<!-- Node210379 -->
<g id="node13" class="node">
<title>Node210379</title>
<g id="a_node13"><a xlink:href="quickjs_8c.html#a6df3ef223d7e76a0db2c14d972dbfa77" target="_top" xlink:title="get_prop_flags">
<polygon fill="none" stroke="#000000" points="707.5,-549.7074 707.5,-568.7074 787.5,-568.7074 787.5,-549.7074 707.5,-549.7074"/>
<text text-anchor="middle" x="747.5" y="-556.7074" font-family="Helvetica,sans-Serif" font-size="10.00" fill="#000000">get_prop_flags</text>
</a>
</g>
</g>
<!-- Node210100&#45;&gt;Node210379 -->
<g id="edge13" class="edge">
<title>Node210100&#45;&gt;Node210379</title>
<path fill="none" stroke="#191970" d="M444.3276,-575.5254C511.3452,-571.9183 629.861,-565.5392 697.1467,-561.9176"/>
<polygon fill="#191970" stroke="#191970" points="697.6926,-565.3934 707.49,-561.3609 697.3164,-558.4035 697.6926,-565.3934"/>
</g>
<!-- Node210193 -->
<g id="node14" class="node">
<title>Node210193</title>
<g id="a_node14"><a xlink:href="quickjs_8c.html#ab4e100a9cde5f7ec87c92f5e766dbbab" target="_top" xlink:title="JS_AtomIsNumericIndex1">
<polygon fill="none" stroke="#ff0000" points="500.5,-435.7074 500.5,-454.7074 631.5,-454.7074 631.5,-435.7074 500.5,-435.7074"/>
<text text-anchor="middle" x="566" y="-442.7074" font-family="Helvetica,sans-Serif" font-size="10.00" fill="#000000">JS_AtomIsNumericIndex1</text>
</a>
</g>
</g>
<!-- Node210100&#45;&gt;Node210193 -->
<g id="edge15" class="edge">
<title>Node210100&#45;&gt;Node210193</title>
<path fill="none" stroke="#191970" d="M399.2419,-568.6773C410.3153,-547.4246 440.0008,-495.9249 480,-469.2074 486.6897,-464.739 494.2015,-461.0959 501.9272,-458.1273"/>
<polygon fill="#191970" stroke="#191970" points="503.1186,-461.4187 511.416,-454.8305 500.8211,-454.8064 503.1186,-461.4187"/>
</g>
<!-- Node210100&#45;&gt;Node210128 -->
<g id="edge36" class="edge">
<title>Node210100&#45;&gt;Node210128</title>
<path fill="none" stroke="#191970" d="M395.1586,-568.4112C398.0436,-533.6135 412.6431,-414.8616 480,-355.2074 538.9887,-302.9644 583.3799,-350.9406 652,-312.2074 686.9042,-292.5054 717.8765,-256.6043 734.5373,-235.0245"/>
<polygon fill="#191970" stroke="#191970" points="737.3606,-237.0936 740.5817,-227.0003 731.7694,-232.8819 737.3606,-237.0936"/>
</g>
<!-- Node210164 -->
<g id="node16" class="node">
<title>Node210164</title>
<g id="a_node16"><a xlink:href="quickjs_8h.html#ad80a83d73e9b7d872b88fbf2943aebe9" target="_top" xlink:title="JS_IsException">
<polygon fill="none" stroke="#000000" points="864,-359.7074 864,-378.7074 950,-378.7074 950,-359.7074 864,-359.7074"/>
<text text-anchor="middle" x="907" y="-366.7074" font-family="Helvetica,sans-Serif" font-size="10.00" fill="#000000">JS_IsException</text>
</a>
</g>
</g>
<!-- Node210100&#45;&gt;Node210164 -->
<g id="edge37" class="edge">
<title>Node210100&#45;&gt;Node210164</title>
<path fill="none" stroke="#191970" d="M395.5359,-568.5416C399.5432,-536.3052 417.0913,-431.7756 480,-383.2074 517.0446,-354.6073 641.3444,-353.8854 688,-350.2074 740.7253,-346.0508 754.344,-345.2494 807,-350.2074 823.1644,-351.7294 840.6064,-354.6061 856.327,-357.6692"/>
<polygon fill="#191970" stroke="#191970" points="855.8837,-361.1502 866.3783,-359.6966 857.2678,-354.2884 855.8837,-361.1502"/>
</g>
<!-- Node210196 -->
<g id="node17" class="node">
<title>Node210196</title>
<g id="a_node17"><a xlink:href="quickjs_8h.html#a2050bc428da1c65ac7eb87c3fa3b0392" target="_top" xlink:title="JS_NewInt32">
<polygon fill="none" stroke="#000000" points="869,-511.7074 869,-530.7074 945,-530.7074 945,-511.7074 869,-511.7074"/>
<text text-anchor="middle" x="907" y="-518.7074" font-family="Helvetica,sans-Serif" font-size="10.00" fill="#000000">JS_NewInt32</text>
</a>
</g>
</g>
<!-- Node210100&#45;&gt;Node210196 -->
<g id="edge40" class="edge">
<title>Node210100&#45;&gt;Node210196</title>
<path fill="none" stroke="#191970" d="M438.2948,-568.663C451.6384,-565.9812 466.3792,-563.2443 480,-561.2074 616.5425,-540.788 779.3036,-528.9635 858.6675,-523.9957"/>
<polygon fill="#191970" stroke="#191970" points="859.0776,-527.4771 868.8431,-523.3679 858.6465,-520.4904 859.0776,-527.4771"/>
</g>
<!-- Node210215 -->
<g id="node18" class="node">
<title>Node210215</title>
<g id="a_node18"><a xlink:href="quickjs_8c.html#a8aac7988cf0c6f3c2b629a6662fd7ec8" target="_top" xlink:title="JS_AutoInitProperty">
<polygon fill="none" stroke="#ff0000" points="695.5,-844.7074 695.5,-863.7074 799.5,-863.7074 799.5,-844.7074 695.5,-844.7074"/>
<text text-anchor="middle" x="747.5" y="-851.7074" font-family="Helvetica,sans-Serif" font-size="10.00" fill="#000000">JS_AutoInitProperty</text>
</a>
</g>
</g>
<!-- Node210100&#45;&gt;Node210215 -->
<g id="edge21" class="edge">
<title>Node210100&#45;&gt;Node210215</title>
<path fill="none" stroke="#191970" d="M395.8618,-587.8992C402.5248,-633.7876 433.2711,-828.4397 480,-863.2074 511.2491,-886.4577 616.2857,-875.3971 685.0679,-864.9925"/>
<polygon fill="#191970" stroke="#191970" points="686.012,-868.3881 695.3591,-863.4001 684.9415,-861.4705 686.012,-868.3881"/>
</g>
<!-- Node210377 -->
<g id="node19" class="node">
<title>Node210377</title>
<g id="a_node19"><a xlink:href="quickjs_8c.html#ad5565bb5cfd5321f181573257f3b0c91" target="_top" xlink:title="JS_CreateProperty">
<polygon fill="none" stroke="#ff0000" points="516,-625.7074 516,-644.7074 616,-644.7074 616,-625.7074 516,-625.7074"/>
<text text-anchor="middle" x="566" y="-632.7074" font-family="Helvetica,sans-Serif" font-size="10.00" fill="#000000">JS_CreateProperty</text>
</a>
</g>
</g>
<!-- Node210100&#45;&gt;Node210377 -->
<g id="edge24" class="edge">
<title>Node210100&#45;&gt;Node210377</title>
<path fill="none" stroke="#191970" d="M417.5065,-587.7798C434.5941,-594.7194 458.5551,-604.0949 480,-611.2074 492.5382,-615.3658 506.2587,-619.4152 518.985,-622.9674"/>
<polygon fill="#191970" stroke="#191970" points="518.3665,-626.4271 528.9365,-625.7021 520.2214,-619.6773 518.3665,-626.4271"/>
</g>
<!-- Node210127 -->
<g id="node20" class="node">
<title>Node210127</title>
<g id="a_node20"><a xlink:href="quickjs_8h.html#a775522f2d084fc8fa0fcb33f390006b4" target="_top" xlink:title="JS_DupValue">
<polygon fill="none" stroke="#000000" points="709,-967.7074 709,-986.7074 786,-986.7074 786,-967.7074 709,-967.7074"/>
<text text-anchor="middle" x="747.5" y="-974.7074" font-family="Helvetica,sans-Serif" font-size="10.00" fill="#000000">JS_DupValue</text>
</a>
</g>
</g>
<!-- Node210100&#45;&gt;Node210127 -->
<g id="edge35" class="edge">
<title>Node210100&#45;&gt;Node210127</title>
<path fill="none" stroke="#191970" d="M394.8906,-587.8402C397.4385,-645.2962 413.7199,-942.1122 480,-996.2074 549.1008,-1052.6046 664.5844,-1013.9524 718.3324,-990.9266"/>
<polygon fill="#191970" stroke="#191970" points="719.8828,-994.0683 727.6248,-986.8355 717.0622,-987.6617 719.8828,-994.0683"/>
</g>
<!-- Node210316 -->
<g id="node21" class="node">
<title>Node210316</title>
<g id="a_node21"><a xlink:href="quickjs_8c.html#a1ca9cdb1fa2ffc3e6506e92b200e490f" target="_top" xlink:title="JS_IsFunction">
<polygon fill="none" stroke="#000000" points="707.5,-771.7074 707.5,-790.7074 787.5,-790.7074 787.5,-771.7074 707.5,-771.7074"/>
<text text-anchor="middle" x="747.5" y="-778.7074" font-family="Helvetica,sans-Serif" font-size="10.00" fill="#000000">JS_IsFunction</text>
</a>
</g>
</g>
<!-- Node210100&#45;&gt;Node210316 -->
<g id="edge38" class="edge">
<title>Node210100&#45;&gt;Node210316</title>
<path fill="none" stroke="#191970" d="M396.1654,-587.843C403.8273,-630.9413 437.1531,-805.2683 480,-836.2074 541.9759,-880.9593 578.1497,-855.9529 652,-836.2074 680.433,-828.6052 709.1779,-810.2803 727.5936,-796.864"/>
<polygon fill="#191970" stroke="#191970" points="729.8579,-799.5408 735.7576,-790.7406 725.6577,-793.9409 729.8579,-799.5408"/>
</g>
<!-- Node210243 -->
<g id="node22" class="node">
<title>Node210243</title>
<g id="a_node22"><a xlink:href="quickjs_8h.html#a88259aa0da61ac754402c64ccecee116" target="_top" xlink:title="JS_NewUint32">
<polygon fill="none" stroke="#ff0000" points="706,-587.7074 706,-606.7074 789,-606.7074 789,-587.7074 706,-587.7074"/>
<text text-anchor="middle" x="747.5" y="-594.7074" font-family="Helvetica,sans-Serif" font-size="10.00" fill="#000000">JS_NewUint32</text>
</a>
</g>
</g>
<!-- Node210100&#45;&gt;Node210243 -->
<g id="edge41" class="edge">
<title>Node210100&#45;&gt;Node210243</title>
<path fill="none" stroke="#191970" d="M444.2292,-581.1671C455.959,-581.8509 468.4199,-582.5658 480,-583.2074 555.0297,-587.3646 641.9166,-591.8515 695.7999,-594.5956"/>
<polygon fill="#191970" stroke="#191970" points="695.6299,-598.0914 705.7948,-595.1039 695.9855,-591.1004 695.6299,-598.0914"/>
</g>
<!-- Node210214 -->
<g id="node23" class="node">
<title>Node210214</title>
<g id="a_node23"><a xlink:href="quickjs_8h.html#a4e407128a9605afb77523e49e9a627fd" target="_top" xlink:title="JS_IsUndefined">
<polygon fill="none" stroke="#000000" points="523,-777.7074 523,-796.7074 609,-796.7074 609,-777.7074 523,-777.7074"/>
<text text-anchor="middle" x="566" y="-784.7074" font-family="Helvetica,sans-Serif" font-size="10.00" fill="#000000">JS_IsUndefined</text>
</a>
</g>
</g>
<!-- Node210100&#45;&gt;Node210214 -->
<g id="edge39" class="edge">
<title>Node210100&#45;&gt;Node210214</title>
<path fill="none" stroke="#191970" d="M395.7992,-587.9283C400.5463,-619.4128 419.9406,-719.3719 480,-768.2074 489.3612,-775.8191 501.1219,-780.5437 512.9137,-783.4377"/>
<polygon fill="#191970" stroke="#191970" points="512.2747,-786.8794 522.7742,-785.4613 513.682,-780.0223 512.2747,-786.8794"/>
</g>
<!-- Node210526 -->
<g id="node24" class="node">
<title>Node210526</title>
<g id="a_node24"><a xlink:href="quickjs_8c.html#af2333dd9d30e60437b73af383477188c" target="_top" xlink:title="JS_NumberIsInteger">
<polygon fill="none" stroke="#ff0000" points="512.5,-739.7074 512.5,-758.7074 619.5,-758.7074 619.5,-739.7074 512.5,-739.7074"/>
<text text-anchor="middle" x="566" y="-746.7074" font-family="Helvetica,sans-Serif" font-size="10.00" fill="#000000">JS_NumberIsInteger</text>
</a>
</g>
</g>
<!-- Node210100&#45;&gt;Node210526 -->
<g id="edge42" class="edge">
<title>Node210100&#45;&gt;Node210526</title>
<path fill="none" stroke="#191970" d="M396.9472,-587.8857C404.3468,-615.0591 429.1654,-692.5228 480,-730.2074 486.6369,-735.1275 494.3032,-738.817 502.2688,-741.5764"/>
<polygon fill="#191970" stroke="#191970" points="501.5012,-744.9997 512.0843,-744.501 503.5001,-738.2911 501.5012,-744.9997"/>
</g>
<!-- Node210529 -->
<g id="node25" class="node">
<title>Node210529</title>
<g id="a_node25"><a xlink:href="quickjs_8c.html#aced4796120beed3ba63dc0b234b399ab" target="_top" xlink:title="JS_NumberIsNegativeOrMinusZero">
<polygon fill="none" stroke="#000000" points="480,-701.7074 480,-720.7074 652,-720.7074 652,-701.7074 480,-701.7074"/>
<text text-anchor="middle" x="566" y="-708.7074" font-family="Helvetica,sans-Serif" font-size="10.00" fill="#000000">JS_NumberIsNegativeOrMinusZero</text>
</a>
</g>
</g>
<!-- Node210100&#45;&gt;Node210529 -->
<g id="edge43" class="edge">
<title>Node210100&#45;&gt;Node210529</title>
<path fill="none" stroke="#191970" d="M398.8554,-588.0028C409.3303,-610.357 438.1988,-665.2743 480,-692.2074 483.2094,-694.2752 486.6108,-696.1204 490.1363,-697.7668"/>
<polygon fill="#191970" stroke="#191970" points="489.1306,-701.1366 499.7116,-701.6766 491.7768,-694.656 489.1306,-701.1366"/>
</g>
<!-- Node210502 -->
<g id="node26" class="node">
<title>Node210502</title>
<g id="a_node26"><a xlink:href="quickjs_8c.html#a24be89a128d1cd7c0908604815b2b854" target="_top" xlink:title="js_same_value">
<polygon fill="none" stroke="#ff0000" points="525,-967.7074 525,-986.7074 607,-986.7074 607,-967.7074 525,-967.7074"/>
<text text-anchor="middle" x="566" y="-974.7074" font-family="Helvetica,sans-Serif" font-size="10.00" fill="#000000">js_same_value</text>
</a>
</g>
</g>
<!-- Node210100&#45;&gt;Node210502 -->
<g id="edge44" class="edge">
<title>Node210100&#45;&gt;Node210502</title>
<path fill="none" stroke="#191970" d="M395.3922,-587.9947C400.4569,-641.4633 427.2489,-897.8627 480,-953.2074 489.2042,-962.8642 501.9394,-968.7405 514.7913,-972.2869"/>
<polygon fill="#191970" stroke="#191970" points="514.052,-975.7083 524.5853,-974.5686 515.6403,-968.8909 514.052,-975.7083"/>
</g>
<!-- Node210388 -->
<g id="node27" class="node">
<title>Node210388</title>
<g id="a_node27"><a xlink:href="quickjs_8c.html#aee75cc1546e19479e3ccda58f3b50a96" target="_top" xlink:title="JS_SetPropertyValue">
<polygon fill="none" stroke="#ff0000" points="511,-131.7074 511,-150.7074 621,-150.7074 621,-131.7074 511,-131.7074"/>
<text text-anchor="middle" x="566" y="-138.7074" font-family="Helvetica,sans-Serif" font-size="10.00" fill="#000000">JS_SetPropertyValue</text>
</a>
</g>
</g>
<!-- Node210100&#45;&gt;Node210388 -->
<g id="edge46" class="edge">
<title>Node210100&#45;&gt;Node210388</title>
<path fill="none" stroke="#191970" d="M395.1919,-568.6256C398.5517,-526.759 415.7266,-356.607 480,-236.2074 496.8679,-204.6097 526.5341,-175.1813 546.2292,-157.6912"/>
<polygon fill="#191970" stroke="#191970" points="548.7335,-160.1521 553.993,-150.9549 544.146,-154.8648 548.7335,-160.1521"/>
</g>
<!-- Node210279 -->
<g id="node30" class="node">
<title>Node210279</title>
<g id="a_node30"><a xlink:href="quickjs_8c.html#a726b00d108e0a0f4d958c36c2e426a64" target="_top" xlink:title="JS_ThrowTypeErrorNotAnObject">
<polygon fill="none" stroke="#000000" points="486,-663.7074 486,-682.7074 646,-682.7074 646,-663.7074 486,-663.7074"/>
<text text-anchor="middle" x="566" y="-670.7074" font-family="Helvetica,sans-Serif" font-size="10.00" fill="#000000">JS_ThrowTypeErrorNotAnObject</text>
</a>
</g>
</g>
<!-- Node210100&#45;&gt;Node210279 -->
<g id="edge53" class="edge">
<title>Node210100&#45;&gt;Node210279</title>
<path fill="none" stroke="#191970" d="M402.3541,-587.852C416.223,-604.2008 446.7458,-637.23 480,-654.2074 484.6473,-656.58 489.5838,-658.6577 494.6497,-660.4769"/>
<polygon fill="#191970" stroke="#191970" points="493.9177,-663.9186 504.5095,-663.6664 496.0722,-657.2584 493.9177,-663.9186"/>
</g>
<!-- Node210378&#45;&gt;Node210217 -->
<g id="edge8" class="edge">
<title>Node210378&#45;&gt;Node210217</title>
<path fill="none" stroke="#191970" d="M796.6567,-891.4271C808.0268,-889.8589 820.3749,-888.1557 832.557,-886.4754"/>
<polygon fill="#191970" stroke="#191970" points="833.2979,-889.9064 842.7259,-885.0728 832.3414,-882.9721 833.2979,-889.9064"/>
</g>
<!-- Node210217&#45;&gt;Node210119 -->
<g id="edge9" class="edge">
<title>Node210217&#45;&gt;Node210119</title>
<path fill="none" stroke="#191970" d="M910.2554,-866.6004C928.5224,-812.6937 1018.3557,-547.5911 1043.4678,-473.4841"/>
<polygon fill="#191970" stroke="#191970" points="1046.7925,-474.5784 1046.6871,-463.984 1040.1628,-472.3318 1046.7925,-474.5784"/>
</g>
<!-- Node210118&#45;&gt;Node210119 -->
<g id="edge11" class="edge">
<title>Node210118&#45;&gt;Node210119</title>
<path fill="none" stroke="#191970" d="M913.329,-245.8559C935.3856,-279.4805 1009.0968,-391.8514 1038.1161,-436.0906"/>
<polygon fill="#191970" stroke="#191970" points="1035.3326,-438.2285 1043.744,-444.6703 1041.1857,-434.389 1035.3326,-438.2285"/>
</g>
<!-- Node210193&#45;&gt;Node210169 -->
<g id="edge16" class="edge">
<title>Node210193&#45;&gt;Node210169</title>
<path fill="none" stroke="#191970" d="M570.2206,-454.9981C583.2634,-484.101 625.8276,-570.8673 688,-616.2074 690.6284,-618.1242 693.4579,-619.8527 696.4053,-621.4107"/>
<polygon fill="#191970" stroke="#191970" points="694.969,-624.6024 705.5176,-625.5909 697.8878,-618.24 694.969,-624.6024"/>
</g>
<!-- Node210193&#45;&gt;Node210170 -->
<g id="edge17" class="edge">
<title>Node210193&#45;&gt;Node210170</title>
<path fill="none" stroke="#191970" d="M611.8001,-454.7964C636.1826,-459.9013 666.3567,-466.2187 692.0557,-471.5992"/>
<polygon fill="#191970" stroke="#191970" points="691.5242,-475.0637 702.0292,-473.6873 692.9587,-468.2123 691.5242,-475.0637"/>
</g>
<!-- Node210193&#45;&gt;Node210128 -->
<g id="edge18" class="edge">
<title>Node210193&#45;&gt;Node210128</title>
<path fill="none" stroke="#191970" d="M574.7757,-435.4639C590.5981,-417.7964 624.7913,-379.1561 652,-345.2074 682.7315,-306.8632 716.6849,-260.2604 734.6691,-235.213"/>
<polygon fill="#191970" stroke="#191970" points="737.5623,-237.1842 740.5368,-227.0155 731.8702,-233.1099 737.5623,-237.1842"/>
</g>
<!-- Node210193&#45;&gt;Node210164 -->
<g id="edge19" class="edge">
<title>Node210193&#45;&gt;Node210164</title>
<path fill="none" stroke="#191970" d="M608.8426,-435.6589C671.2003,-421.761 786.8635,-395.9827 854.3363,-380.9448"/>
<polygon fill="#191970" stroke="#191970" points="855.3335,-384.3084 864.3327,-378.7168 853.8107,-377.4761 855.3335,-384.3084"/>
</g>
<!-- Node210193&#45;&gt;Node210196 -->
<g id="edge20" class="edge">
<title>Node210193&#45;&gt;Node210196</title>
<path fill="none" stroke="#191970" d="M631.6259,-442.7327C680.9191,-442.69 749.5342,-446.5336 807,-464.2074 836.5154,-473.2849 866.8345,-492.1722 886.2328,-505.7189"/>
<polygon fill="#191970" stroke="#191970" points="884.4118,-508.7197 894.5809,-511.6931 888.4856,-503.0272 884.4118,-508.7197"/>
</g>
<!-- Node210215&#45;&gt;Node210217 -->
<g id="edge23" class="edge">
<title>Node210215&#45;&gt;Node210217</title>
<path fill="none" stroke="#191970" d="M799.7263,-861.411C810.2993,-862.8694 821.6081,-864.4292 832.7718,-865.969"/>
<polygon fill="#191970" stroke="#191970" points="832.5737,-869.4747 842.9582,-867.374 833.5302,-862.5404 832.5737,-869.4747"/>
</g>
<!-- Node210215&#45;&gt;Node210164 -->
<g id="edge22" class="edge">
<title>Node210215&#45;&gt;Node210164</title>
<path fill="none" stroke="#191970" d="M763.3407,-844.5933C777.3543,-835.16 797.0725,-819.4158 807,-800.2074 868.2519,-681.6927 805.5735,-630.2573 843,-502.2074 855.6293,-458.9981 881.0649,-412.4588 895.7826,-387.5087"/>
<polygon fill="#191970" stroke="#191970" points="898.8803,-389.1486 901.022,-378.7725 892.8771,-385.5483 898.8803,-389.1486"/>
</g>
<!-- Node210377&#45;&gt;Node210101 -->
<g id="edge25" class="edge">
<title>Node210377&#45;&gt;Node210101</title>
<path fill="none" stroke="#191970" d="M572.6749,-625.4248C599.5276,-586.0705 699.9066,-438.9585 735.1629,-387.2882"/>
<polygon fill="#191970" stroke="#191970" points="738.2106,-389.0314 740.9558,-378.7984 732.4284,-385.086 738.2106,-389.0314"/>
</g>
<!-- Node210377&#45;&gt;Node210169 -->
<g id="edge26" class="edge">
<title>Node210377&#45;&gt;Node210169</title>
<path fill="none" stroke="#191970" d="M616.0761,-635.2074C635.1057,-635.2074 657.1439,-635.2074 677.6715,-635.2074"/>
<polygon fill="#191970" stroke="#191970" points="677.9248,-638.7075 687.9248,-635.2074 677.9248,-631.7075 677.9248,-638.7075"/>
</g>
<!-- Node210377&#45;&gt;Node210170 -->
<g id="edge27" class="edge">
<title>Node210377&#45;&gt;Node210170</title>
<path fill="none" stroke="#191970" d="M577.3536,-625.6991C607.6567,-600.3213 690.6985,-530.7767 728.4136,-499.1915"/>
<polygon fill="#191970" stroke="#191970" points="730.7312,-501.8159 736.1507,-492.7121 726.2368,-496.4493 730.7312,-501.8159"/>
</g>
<!-- Node210377&#45;&gt;Node210378 -->
<g id="edge28" class="edge">
<title>Node210377&#45;&gt;Node210378</title>
<path fill="none" stroke="#191970" d="M616.0986,-636.2996C629.3977,-639.0188 642.6431,-644.326 652,-654.2074 719.822,-725.831 626.9028,-795.7677 688,-873.2074 688.9543,-874.4169 689.9777,-875.5686 691.06,-876.6652"/>
<polygon fill="#191970" stroke="#191970" points="688.9983,-879.5008 698.9514,-883.1321 693.4352,-874.0865 688.9983,-879.5008"/>
</g>
<!-- Node210377&#45;&gt;Node210119 -->
<g id="edge30" class="edge">
<title>Node210377&#45;&gt;Node210119</title>
<path fill="none" stroke="#191970" d="M615.6569,-644.7207C637.7198,-648.4863 664.0634,-652.3546 688,-654.2074 740.7312,-658.2889 756.5318,-670.0251 807,-654.2074 913.1133,-620.9494 1004.0909,-514.1632 1036.9304,-471.7813"/>
<polygon fill="#191970" stroke="#191970" points="1039.7622,-473.8396 1043.0401,-463.7646 1034.1948,-469.5965 1039.7622,-473.8396"/>
</g>
<!-- Node210377&#45;&gt;Node210379 -->
<g id="edge29" class="edge">
<title>Node210377&#45;&gt;Node210379</title>
<path fill="none" stroke="#191970" d="M584.6913,-625.5578C608.3543,-613.5563 650.5556,-592.8637 688,-578.2074 693.5632,-576.0298 699.4877,-573.9096 705.3603,-571.9228"/>
<polygon fill="#191970" stroke="#191970" points="706.7119,-575.1629 715.1214,-568.7186 704.5286,-568.5121 706.7119,-575.1629"/>
</g>
<!-- Node210377&#45;&gt;Node210127 -->
<g id="edge31" class="edge">
<title>Node210377&#45;&gt;Node210127</title>
<path fill="none" stroke="#191970" d="M616.2884,-636.1225C629.5918,-638.8378 642.7918,-644.1872 652,-654.2074 733.6181,-743.0219 631.933,-816.4084 688,-923.2074 696.1659,-938.7622 710.697,-952.0813 723.3544,-961.6"/>
<polygon fill="#191970" stroke="#191970" points="721.5427,-964.6068 731.7166,-967.5634 725.6071,-958.9075 721.5427,-964.6068"/>
</g>
<!-- Node210377&#45;&gt;Node210316 -->
<g id="edge32" class="edge">
<title>Node210377&#45;&gt;Node210316</title>
<path fill="none" stroke="#191970" d="M616.1194,-640.1025C628.5349,-642.9288 641.3272,-647.3403 652,-654.2074 673.9706,-668.3438 715.7077,-731.0825 735.9352,-762.7665"/>
<polygon fill="#191970" stroke="#191970" points="733.1685,-764.9395 741.4765,-771.5143 739.082,-761.1936 733.1685,-764.9395"/>
</g>
<!-- Node210377&#45;&gt;Node210243 -->
<g id="edge33" class="edge">
<title>Node210377&#45;&gt;Node210243</title>
<path fill="none" stroke="#191970" d="M611.8001,-625.6184C637.4079,-620.257 669.404,-613.558 695.8949,-608.0118"/>
<polygon fill="#191970" stroke="#191970" points="696.6829,-611.4227 705.7535,-605.9477 695.2484,-604.5713 696.6829,-611.4227"/>
</g>
<!-- Node210243&#45;&gt;Node210196 -->
<g id="edge34" class="edge">
<title>Node210243&#45;&gt;Node210196</title>
<path fill="none" stroke="#191970" d="M781.624,-587.6588C790.0472,-584.9357 798.9571,-581.7374 807,-578.2074 834.3284,-566.2131 863.8049,-548.8139 883.6222,-536.3983"/>
<polygon fill="#191970" stroke="#191970" points="885.6949,-539.2284 892.2639,-530.9158 881.9448,-533.3176 885.6949,-539.2284"/>
</g>
<!-- Node210502&#45;&gt;Node210127 -->
<g id="edge45" class="edge">
<title>Node210502&#45;&gt;Node210127</title>
<path fill="none" stroke="#191970" d="M607.1852,-977.2074C634.3851,-977.2074 670.1544,-977.2074 698.7701,-977.2074"/>
<polygon fill="#191970" stroke="#191970" points="698.96,-980.7075 708.9599,-977.2074 698.9599,-973.7075 698.96,-980.7075"/>
</g>
<!-- Node210388&#45;&gt;Node210101 -->
<g id="edge47" class="edge">
<title>Node210388&#45;&gt;Node210101</title>
<path fill="none" stroke="#191970" d="M575.4186,-150.8669C591.6616,-167.6852 625.726,-203.6651 652,-236.2074 683.967,-275.8009 717.925,-325.0565 735.4579,-351.1002"/>
<polygon fill="#191970" stroke="#191970" points="732.6672,-353.2233 741.1401,-359.5842 738.4833,-349.3279 732.6672,-353.2233"/>
</g>
<!-- Node210388&#45;&gt;Node210128 -->
<g id="edge49" class="edge">
<title>Node210388&#45;&gt;Node210128</title>
<path fill="none" stroke="#191970" d="M615.3326,-150.7153C627.7587,-154.2405 640.7529,-158.9597 652,-165.2074 670.9742,-175.7473 669.2237,-187.3187 688,-198.2074 691.6408,-200.3187 695.5453,-202.2266 699.5499,-203.9442"/>
<polygon fill="#191970" stroke="#191970" points="698.4096,-207.256 708.9984,-207.6127 700.9432,-200.7305 698.4096,-207.256"/>
</g>
<!-- Node210388&#45;&gt;Node210150 -->
<g id="edge48" class="edge">
<title>Node210388&#45;&gt;Node210150</title>
<path fill="none" stroke="#191970" d="M621.4422,-141.2074C646.052,-141.2074 674.766,-141.2074 698.568,-141.2074"/>
<polygon fill="#191970" stroke="#191970" points="698.7829,-144.7075 708.7828,-141.2074 698.7828,-137.7075 698.7829,-144.7075"/>
</g>
<!-- Node210388&#45;&gt;Node210244 -->
<g id="edge50" class="edge">
<title>Node210388&#45;&gt;Node210244</title>
<path fill="none" stroke="#191970" d="M611.8001,-150.7964C636.1826,-155.9013 666.3567,-162.2187 692.0557,-167.5992"/>
<polygon fill="#191970" stroke="#191970" points="691.5242,-171.0637 702.0292,-169.6873 692.9587,-164.2123 691.5242,-171.0637"/>
</g>
<!-- Node210244&#45;&gt;Node210164 -->
<g id="edge51" class="edge">
<title>Node210244&#45;&gt;Node210164</title>
<path fill="none" stroke="#191970" d="M790.7192,-188.796C796.5503,-191.2578 802.1759,-194.3432 807,-198.2074 813.7858,-203.6429 872.2635,-307.2176 896.5221,-350.4744"/>
<polygon fill="#191970" stroke="#191970" points="893.5868,-352.396 901.5275,-359.4099 899.6939,-348.975 893.5868,-352.396"/>
</g>
</g>
</svg>
