<?xml version="1.0" encoding="UTF-8" standalone="no"?>
<!DOCTYPE svg PUBLIC "-//W3C//DTD SVG 1.1//EN"
 "http://www.w3.org/Graphics/SVG/1.1/DTD/svg11.dtd">
<!-- Generated by graphviz version 2.40.1 (20161225.0304)
 -->
<!-- Title: js_parse_left_hand_side_expr Pages: 1 -->
<!--zoomable 204 -->
<svg id="main" version="1.1" xmlns="http://www.w3.org/2000/svg" xmlns:xlink="http://www.w3.org/1999/xlink" xml:space="preserve" onload="init(evt)">
<style type="text/css"><![CDATA[
.edge:hover path { stroke: red; }
.edge:hover polygon { stroke: red; fill: red; }
]]></style>
<script type="text/javascript"><![CDATA[
var edges = document.getElementsByTagName('g');
if (edges && edges.length) {
  for (var i=0;i<edges.length;i++) {
    if (edges[i].id.substr(0,4)=='edge') {
      edges[i].setAttribute('class','edge');
    }
  }
}
]]></script>
        <defs>
                <circle id="rim" cx="0" cy="0" r="7"/>
                <circle id="rim2" cx="0" cy="0" r="3.5"/>
                <g id="zoomPlus">
                        <use xlink:href="#rim" fill="#404040">
                                <set attributeName="fill" to="#808080" begin="zoomplus.mouseover" end="zoomplus.mouseout"/>
                        </use>
                        <path d="M-4,0h8M0,-4v8" fill="none" stroke="white" stroke-width="1.5" pointer-events="none"/>
                </g>
                <g id="zoomMin">
                        <use xlink:href="#rim" fill="#404040">
                                <set attributeName="fill" to="#808080" begin="zoomminus.mouseover" end="zoomminus.mouseout"/>
                        </use>
                        <path d="M-4,0h8" fill="none" stroke="white" stroke-width="1.5" pointer-events="none"/>
                </g>
                <g id="dirArrow">
                        <path fill="none" stroke="white" stroke-width="1.5" d="M0,-3.0v7 M-2.5,-0.5L0,-3.0L2.5,-0.5"/>
                </g>
               <g id="resetDef">
                       <use xlink:href="#rim2" fill="#404040">
                               <set attributeName="fill" to="#808080" begin="reset.mouseover" end="reset.mouseout"/>
                       </use>
               </g>
        </defs>

<script type="text/javascript">
var viewWidth = 543;
var viewHeight = 204;
var sectionId = 'dynsection-1028';
</script>
<script xlink:href="svgpan.js"/>
<svg id="graph" class="graph">
<g id="viewport">
<title>js_parse_left_hand_side_expr</title>
<!-- Node320501 -->
<g id="node1" class="node">
<title>Node320501</title>
<polygon fill="#bfbfbf" stroke="#000000" points="0,-64 0,-94 98,-94 98,-64 0,-64"/>
<text text-anchor="start" x="8" y="-82" font-family="Helvetica,sans-Serif" font-size="10.00" fill="#000000">js_parse_left_hand</text>
<text text-anchor="middle" x="49" y="-71" font-family="Helvetica,sans-Serif" font-size="10.00" fill="#000000">_side_expr</text>
</g>
<!-- Node320502 -->
<g id="node2" class="node">
<title>Node320502</title>
<g id="a_node2"><a xlink:href="quickjs_8c.html#a00eb789430243c24dab4a63ad6a79653" target="_top" xlink:title="js_parse_class">
<polygon fill="none" stroke="#000000" points="150.5,-138.5 150.5,-157.5 232.5,-157.5 232.5,-138.5 150.5,-138.5"/>
<text text-anchor="middle" x="191.5" y="-145.5" font-family="Helvetica,sans-Serif" font-size="10.00" fill="#000000">js_parse_class</text>
</a>
</g>
</g>
<!-- Node320501&#45;&gt;Node320502 -->
<g id="edge1" class="edge">
<title>Node320501&#45;&gt;Node320502</title>
<path fill="none" stroke="#191970" d="M84.8279,-98.9014C99.8587,-107.0053 117.6202,-116.2656 134,-124 144.7598,-129.0807 156.8892,-134.2263 167.2246,-138.443"/>
<polygon fill="#191970" stroke="#191970" points="86.3167,-95.727 75.8588,-94.0289 82.9751,-101.878 86.3167,-95.727"/>
</g>
<!-- Node320513 -->
<g id="node7" class="node">
<title>Node320513</title>
<g id="a_node7"><a xlink:href="quickjs_8c.html#a26be546cf89c4580ba9020e8fc43a759" target="_top" xlink:title="js_parse_destructuring\l_element">
<polygon fill="none" stroke="#ff0000" points="134,-33 134,-63 249,-63 249,-33 134,-33"/>
<text text-anchor="start" x="142" y="-51" font-family="Helvetica,sans-Serif" font-size="10.00" fill="#000000">js_parse_destructuring</text>
<text text-anchor="middle" x="191.5" y="-40" font-family="Helvetica,sans-Serif" font-size="10.00" fill="#000000">_element</text>
</a>
</g>
</g>
<!-- Node320501&#45;&gt;Node320513 -->
<g id="edge10" class="edge">
<title>Node320501&#45;&gt;Node320513</title>
<path fill="none" stroke="#191970" d="M107.8574,-66.1959C116.3402,-64.3505 125.0648,-62.4526 133.5302,-60.611"/>
<polygon fill="#191970" stroke="#191970" points="107.0678,-62.7858 98.0404,-68.3316 108.5559,-69.6258 107.0678,-62.7858"/>
</g>
<!-- Node320517 -->
<g id="node8" class="node">
<title>Node320517</title>
<g id="a_node8"><a xlink:href="quickjs_8c.html#ac188b916dd086803591a67de7e7a85f6" target="_top" xlink:title="js_parse_for_in_of">
<polygon fill="none" stroke="#000000" points="293,-.5 293,-19.5 389,-19.5 389,-.5 293,-.5"/>
<text text-anchor="middle" x="341" y="-7.5" font-family="Helvetica,sans-Serif" font-size="10.00" fill="#000000">js_parse_for_in_of</text>
</a>
</g>
</g>
<!-- Node320501&#45;&gt;Node320517 -->
<g id="edge16" class="edge">
<title>Node320501&#45;&gt;Node320517</title>
<path fill="none" stroke="#191970" d="M73.9398,-57.5157C89.972,-45.0519 111.8783,-30.3957 134,-23 186.2501,-5.5319 249.9839,-4.3001 292.8115,-6.1367"/>
<polygon fill="#191970" stroke="#191970" points="71.7345,-54.7977 66.1214,-63.7835 76.113,-60.2593 71.7345,-54.7977"/>
</g>
<!-- Node320503 -->
<g id="node3" class="node">
<title>Node320503</title>
<g id="a_node3"><a xlink:href="quickjs_8c.html#a840642c87c5a82d4cc68333376a3b6de" target="_top" xlink:title="js_parse_postfix_expr">
<polygon fill="none" stroke="#000000" points="285,-82.5 285,-101.5 397,-101.5 397,-82.5 285,-82.5"/>
<text text-anchor="middle" x="341" y="-89.5" font-family="Helvetica,sans-Serif" font-size="10.00" fill="#000000">js_parse_postfix_expr</text>
</a>
</g>
</g>
<!-- Node320502&#45;&gt;Node320503 -->
<g id="edge2" class="edge">
<title>Node320502&#45;&gt;Node320503</title>
<path fill="none" stroke="#191970" d="M226.7692,-134.7888C254.0661,-124.5639 291.2144,-110.6488 315.6354,-101.5011"/>
<polygon fill="#191970" stroke="#191970" points="225.3368,-131.5878 217.2,-138.3733 227.7923,-138.143 225.3368,-131.5878"/>
</g>
<!-- Node320515 -->
<g id="node5" class="node">
<title>Node320515</title>
<g id="a_node5"><a xlink:href="quickjs_8c.html#a9d844c16dcc71701436848074337d32c" target="_top" xlink:title="js_parse_statement\l_or_decl">
<polygon fill="none" stroke="#ff0000" points="433,-24 433,-54 535,-54 535,-24 433,-24"/>
<text text-anchor="start" x="441" y="-42" font-family="Helvetica,sans-Serif" font-size="10.00" fill="#000000">js_parse_statement</text>
<text text-anchor="middle" x="484" y="-31" font-family="Helvetica,sans-Serif" font-size="10.00" fill="#000000">_or_decl</text>
</a>
</g>
</g>
<!-- Node320502&#45;&gt;Node320515 -->
<g id="edge7" class="edge">
<title>Node320502&#45;&gt;Node320515</title>
<path fill="none" stroke="#191970" d="M242.6365,-154.2148C286.3508,-157.0787 349.5282,-155.2231 397,-129 420.0321,-116.2773 414.8353,-101.0365 433,-82 442.4342,-72.113 454.0069,-62.2046 463.7422,-54.3952"/>
<polygon fill="#191970" stroke="#191970" points="242.7529,-150.7136 232.5163,-153.4451 242.222,-157.6935 242.7529,-150.7136"/>
</g>
<!-- Node320522 -->
<g id="node6" class="node">
<title>Node320522</title>
<g id="a_node6"><a xlink:href="quickjs_8c.html#a498e1d5c7de1b59c1630e9847cde1e41" target="_top" xlink:title="js_parse_export">
<polygon fill="none" stroke="#ff0000" points="298,-176.5 298,-195.5 384,-195.5 384,-176.5 298,-176.5"/>
<text text-anchor="middle" x="341" y="-183.5" font-family="Helvetica,sans-Serif" font-size="10.00" fill="#000000">js_parse_export</text>
</a>
</g>
</g>
<!-- Node320502&#45;&gt;Node320522 -->
<g id="edge9" class="edge">
<title>Node320502&#45;&gt;Node320522</title>
<path fill="none" stroke="#191970" d="M239.1516,-160.1121C259.9726,-165.4044 284.0377,-171.5213 303.5461,-176.4799"/>
<polygon fill="#191970" stroke="#191970" points="239.7792,-156.6604 229.2252,-157.589 238.0547,-163.4447 239.7792,-156.6604"/>
</g>
<!-- Node320503&#45;&gt;Node320501 -->
<g id="edge3" class="edge">
<title>Node320503&#45;&gt;Node320501</title>
<path fill="none" stroke="#191970" d="M274.6354,-93.9595C233.9826,-94.5937 180.9213,-94.4097 134,-91 122.406,-90.1575 109.9862,-88.7144 98.3201,-87.1149"/>
<polygon fill="#191970" stroke="#191970" points="274.7556,-97.458 284.6923,-93.782 274.632,-90.4591 274.7556,-97.458"/>
</g>
<!-- Node320503&#45;&gt;Node320503 -->
<g id="edge4" class="edge">
<title>Node320503&#45;&gt;Node320503</title>
<path fill="none" stroke="#191970" d="M314.4941,-110.6539C315.6021,-115.9368 324.4374,-120 341,-120 366.2383,-120 373.5337,-110.5653 362.8863,-101.7571"/>
<polygon fill="#191970" stroke="#191970" points="317.6117,-112.2449 319.1137,-101.7571 311.3992,-109.0192 317.6117,-112.2449"/>
</g>
<!-- Node320504 -->
<g id="node4" class="node">
<title>Node320504</title>
<g id="a_node4"><a xlink:href="quickjs_8c.html#a9f26c765171d977db1796791f035f1f9" target="_top" xlink:title="js_parse_unary">
<polygon fill="none" stroke="#ff0000" points="442.5,-91.5 442.5,-110.5 525.5,-110.5 525.5,-91.5 442.5,-91.5"/>
<text text-anchor="middle" x="484" y="-98.5" font-family="Helvetica,sans-Serif" font-size="10.00" fill="#000000">js_parse_unary</text>
</a>
</g>
</g>
<!-- Node320503&#45;&gt;Node320504 -->
<g id="edge5" class="edge">
<title>Node320503&#45;&gt;Node320504</title>
<path fill="none" stroke="#191970" d="M407.4318,-96.181C419.2728,-96.9263 431.3001,-97.6832 442.2059,-98.3696"/>
<polygon fill="#191970" stroke="#191970" points="407.3071,-92.6663 397.107,-95.5312 406.8673,-99.6525 407.3071,-92.6663"/>
</g>
<!-- Node320504&#45;&gt;Node320504 -->
<g id="edge6" class="edge">
<title>Node320504&#45;&gt;Node320504</title>
<path fill="none" stroke="#191970" d="M457.4941,-119.6539C458.6021,-124.9368 467.4374,-129 484,-129 509.2383,-129 516.5337,-119.5653 505.8863,-110.7571"/>
<polygon fill="#191970" stroke="#191970" points="460.6117,-121.2449 462.1137,-110.7571 454.3992,-118.0192 460.6117,-121.2449"/>
</g>
<!-- Node320515&#45;&gt;Node320515 -->
<g id="edge8" class="edge">
<title>Node320515&#45;&gt;Node320515</title>
<path fill="none" stroke="#191970" d="M458.7683,-64.4579C461.8999,-69.179 470.3105,-72.5 484,-72.5 506.4648,-72.5 514.7137,-63.5566 508.7464,-54.159"/>
<polygon fill="#191970" stroke="#191970" points="462.2789,-64.3127 459.2536,-54.159 455.2867,-63.9832 462.2789,-64.3127"/>
</g>
<!-- Node320513&#45;&gt;Node320503 -->
<g id="edge12" class="edge">
<title>Node320513&#45;&gt;Node320503</title>
<path fill="none" stroke="#191970" d="M252.1566,-65.8521C271.4169,-71.5207 291.9726,-77.5705 308.4556,-82.4217"/>
<polygon fill="#191970" stroke="#191970" points="253.1126,-62.4851 242.5313,-63.0192 251.1362,-69.2003 253.1126,-62.4851"/>
</g>
<!-- Node320513&#45;&gt;Node320515 -->
<g id="edge15" class="edge">
<title>Node320513&#45;&gt;Node320515</title>
<path fill="none" stroke="#191970" d="M259.5923,-45.9049C312.4612,-44.2781 384.6251,-42.0577 432.6921,-40.5787"/>
<polygon fill="#191970" stroke="#191970" points="259.1762,-42.4159 249.2886,-46.2219 259.3915,-49.4126 259.1762,-42.4159"/>
</g>
<!-- Node320513&#45;&gt;Node320513 -->
<g id="edge11" class="edge">
<title>Node320513&#45;&gt;Node320513</title>
<path fill="none" stroke="#191970" d="M166.2683,-73.4579C169.3999,-78.179 177.8105,-81.5 191.5,-81.5 213.9648,-81.5 222.2137,-72.5566 216.2464,-63.159"/>
<polygon fill="#191970" stroke="#191970" points="169.7789,-73.3127 166.7536,-63.159 162.7867,-72.9832 169.7789,-73.3127"/>
</g>
<!-- Node320513&#45;&gt;Node320517 -->
<g id="edge13" class="edge">
<title>Node320513&#45;&gt;Node320517</title>
<path fill="none" stroke="#191970" d="M259.1539,-30.8037C274.2738,-26.9605 289.7844,-23.018 303.1813,-19.6128"/>
<polygon fill="#191970" stroke="#191970" points="258.1302,-27.4525 249.3006,-33.3082 259.8547,-34.2368 258.1302,-27.4525"/>
</g>
<!-- Node320517&#45;&gt;Node320515 -->
<g id="edge14" class="edge">
<title>Node320517&#45;&gt;Node320515</title>
<path fill="none" stroke="#191970" d="M398.1472,-21.5893C409.6306,-23.9181 421.6291,-26.3514 432.8911,-28.6353"/>
<polygon fill="#191970" stroke="#191970" points="398.716,-18.1335 388.2199,-19.5761 397.3247,-24.9938 398.716,-18.1335"/>
</g>
</g>
</svg>
        <g id="navigator" transform="translate(0 0)" fill="#404254">
                <rect fill="#f2f5e9" fill-opacity="0.5" stroke="#606060" stroke-width=".5" x="0" y="0" width="60" height="60"/>
                <use id="zoomplus" xlink:href="#zoomPlus" x="17" y="9" onmousedown="handleZoom(evt,'in')"/>
                <use id="zoomminus" xlink:href="#zoomMin" x="42" y="9" onmousedown="handleZoom(evt,'out')"/>
                <use id="reset" xlink:href="#resetDef" x="30" y="36" onmousedown="handleReset()"/>
                <g id="arrowUp" xlink:href="#dirArrow" transform="translate(30 24)" onmousedown="handlePan(0,-1)">
                  <use xlink:href="#rim" fill="#404040">
                        <set attributeName="fill" to="#808080" begin="arrowUp.mouseover" end="arrowUp.mouseout"/>
                  </use>
                  <path fill="none" stroke="white" stroke-width="1.5" d="M0,-3.0v7 M-2.5,-0.5L0,-3.0L2.5,-0.5"/>
                </g>
                <g id="arrowRight" xlink:href="#dirArrow" transform="rotate(90) translate(36 -43)" onmousedown="handlePan(1,0)">
                  <use xlink:href="#rim" fill="#404040">
                        <set attributeName="fill" to="#808080" begin="arrowRight.mouseover" end="arrowRight.mouseout"/>
                  </use>
                  <path fill="none" stroke="white" stroke-width="1.5" d="M0,-3.0v7 M-2.5,-0.5L0,-3.0L2.5,-0.5"/>
                </g>
                <g id="arrowDown" xlink:href="#dirArrow" transform="rotate(180) translate(-30 -48)" onmousedown="handlePan(0,1)">
                  <use xlink:href="#rim" fill="#404040">
                        <set attributeName="fill" to="#808080" begin="arrowDown.mouseover" end="arrowDown.mouseout"/>
                  </use>
                  <path fill="none" stroke="white" stroke-width="1.5" d="M0,-3.0v7 M-2.5,-0.5L0,-3.0L2.5,-0.5"/>
                </g>
                <g id="arrowLeft" xlink:href="#dirArrow" transform="rotate(270) translate(-36 17)" onmousedown="handlePan(-1,0)">
                  <use xlink:href="#rim" fill="#404040">
                        <set attributeName="fill" to="#808080" begin="arrowLeft.mouseover" end="arrowLeft.mouseout"/>
                  </use>
                  <path fill="none" stroke="white" stroke-width="1.5" d="M0,-3.0v7 M-2.5,-0.5L0,-3.0L2.5,-0.5"/>
                </g>
        </g>
        <svg viewBox="0 0 15 15" width="100%" height="30px" preserveAspectRatio="xMaxYMin meet">
         <g id="arrow_out" transform="scale(0.3 0.3)">
          <a xlink:href="quickjs_8c_a12b48ce2b1f247b494fdde07dbe7f232_icgraph_org.svg" target="_base">
           <rect id="button" ry="5" rx="5" y="6" x="6" height="38" width="38"
                fill="#f2f5e9" fill-opacity="0.5" stroke="#606060" stroke-width="1.0"/>
           <path id="arrow"
             d="M 11.500037,31.436501 C 11.940474,20.09759 22.043105,11.32322 32.158766,21.979434 L 37.068811,17.246167 C 37.068811,17.246167 37.088388,32 37.088388,32 L 22.160133,31.978069 C 22.160133,31.978069 26.997745,27.140456 26.997745,27.140456 C 18.528582,18.264221 13.291696,25.230495 11.500037,31.436501 z"
             style="fill:#404040;"/>
          </a>
         </g>
        </svg>
</svg>
