<?xml version="1.0" encoding="UTF-8" standalone="no"?>
<!DOCTYPE svg PUBLIC "-//W3C//DTD SVG 1.1//EN"
 "http://www.w3.org/Graphics/SVG/1.1/DTD/svg11.dtd">
<!-- Generated by graphviz version 2.40.1 (20161225.0304)
 -->
<!-- Title: is_digit Pages: 1 -->
<svg width="1118pt" height="760pt"
 viewBox="0.00 0.00 1118.00 759.96" xmlns="http://www.w3.org/2000/svg" xmlns:xlink="http://www.w3.org/1999/xlink">
<g id="graph0" class="graph" transform="scale(1 1) rotate(0) translate(4 755.9565)">
<title>is_digit</title>
<!-- Node60262 -->
<g id="node1" class="node">
<title>Node60262</title>
<polygon fill="#bfbfbf" stroke="#000000" points="0,-152.5 0,-171.5 47,-171.5 47,-152.5 0,-152.5"/>
<text text-anchor="middle" x="23.5" y="-159.5" font-family="Helvetica,sans-Serif" font-size="10.00" fill="#000000">is_digit</text>
</g>
<!-- Node60263 -->
<g id="node2" class="node">
<title>Node60263</title>
<g id="a_node2"><a xlink:href="quickjs_8c.html#a40bcef4994dba57dfb34b6eed66daef0" target="_top" xlink:title="js_atof">
<polygon fill="none" stroke="#000000" points="240,-76.5 240,-95.5 286,-95.5 286,-76.5 240,-76.5"/>
<text text-anchor="middle" x="263" y="-83.5" font-family="Helvetica,sans-Serif" font-size="10.00" fill="#000000">js_atof</text>
</a>
</g>
</g>
<!-- Node60262&#45;&gt;Node60263 -->
<g id="edge1" class="edge">
<title>Node60262&#45;&gt;Node60263</title>
<path fill="none" stroke="#191970" d="M37.9785,-144.8743C49.0335,-133.0263 65.3335,-118.0039 83,-110 135.4082,-86.2561 204.5721,-84.1687 239.9672,-84.9273"/>
<polygon fill="#191970" stroke="#191970" points="35.2664,-142.6565 31.2107,-152.4444 40.485,-147.3221 35.2664,-142.6565"/>
</g>
<!-- Node60874 -->
<g id="node4" class="node">
<title>Node60874</title>
<g id="a_node4"><a xlink:href="quickjs_8c.html#a75a3798e2045f6e403c1ef467126d1fb" target="_top" xlink:title="next_token">
<polygon fill="none" stroke="#ff0000" points="376,-342.5 376,-361.5 441,-361.5 441,-342.5 376,-342.5"/>
<text text-anchor="middle" x="408.5" y="-349.5" font-family="Helvetica,sans-Serif" font-size="10.00" fill="#000000">next_token</text>
</a>
</g>
</g>
<!-- Node60262&#45;&gt;Node60874 -->
<g id="edge60" class="edge">
<title>Node60262&#45;&gt;Node60874</title>
<path fill="none" stroke="#191970" d="M35.5336,-180.0786C46.758,-196.2302 64.5082,-220.0451 83,-238 134.0841,-287.6008 145.5025,-307.5458 212,-333 266.735,-353.9517 336.0223,-355.3907 375.9991,-354.0365"/>
<polygon fill="#191970" stroke="#191970" points="38.2482,-177.8469 29.7228,-171.5566 32.4647,-181.7905 38.2482,-177.8469"/>
</g>
<!-- Node60882 -->
<g id="node19" class="node">
<title>Node60882</title>
<g id="a_node19"><a xlink:href="quickjs_8c.html#a7fbd31397bde22dfa2b876b945f9afb4" target="_top" xlink:title="json_next_token">
<polygon fill="none" stroke="#000000" points="364.5,-114.5 364.5,-133.5 452.5,-133.5 452.5,-114.5 364.5,-114.5"/>
<text text-anchor="middle" x="408.5" y="-121.5" font-family="Helvetica,sans-Serif" font-size="10.00" fill="#000000">json_next_token</text>
</a>
</g>
</g>
<!-- Node60262&#45;&gt;Node60882 -->
<g id="edge59" class="edge">
<title>Node60262&#45;&gt;Node60882</title>
<path fill="none" stroke="#191970" d="M57.4162,-158.5395C95.1497,-154.6993 157.9284,-148.3392 212,-143 264.3555,-137.8302 324.5732,-132.0291 364.4012,-128.2124"/>
<polygon fill="#191970" stroke="#191970" points="56.6004,-155.1044 47.0065,-159.5997 57.3097,-162.0684 56.6004,-155.1044"/>
</g>
<!-- Node60884 -->
<g id="node25" class="node">
<title>Node60884</title>
<g id="a_node25"><a xlink:href="quickjs_8c.html#a522741f41afb1d0da0aa55968cd8579e" target="_top" xlink:title="JS_NewAtomLen">
<polygon fill="none" stroke="#000000" points="83,-209.5 83,-228.5 176,-228.5 176,-209.5 83,-209.5"/>
<text text-anchor="middle" x="129.5" y="-216.5" font-family="Helvetica,sans-Serif" font-size="10.00" fill="#000000">JS_NewAtomLen</text>
</a>
</g>
</g>
<!-- Node60262&#45;&gt;Node60884 -->
<g id="edge51" class="edge">
<title>Node60262&#45;&gt;Node60884</title>
<path fill="none" stroke="#191970" d="M50.3767,-176.4525C69.6321,-186.8069 95.022,-200.46 111.7841,-209.4735"/>
<polygon fill="#191970" stroke="#191970" points="51.9465,-173.3228 41.4815,-171.6693 48.6312,-179.488 51.9465,-173.3228"/>
</g>
<!-- Node60264 -->
<g id="node3" class="node">
<title>Node60264</title>
<g id="a_node3"><a xlink:href="quickjs_8c.html#a0315f23b9804563f376c47edef2967fd" target="_top" xlink:title="JS_ToNumberHintFree">
<polygon fill="none" stroke="#ff0000" points="350,-38.5 350,-57.5 467,-57.5 467,-38.5 350,-38.5"/>
<text text-anchor="middle" x="408.5" y="-45.5" font-family="Helvetica,sans-Serif" font-size="10.00" fill="#000000">JS_ToNumberHintFree</text>
</a>
</g>
</g>
<!-- Node60263&#45;&gt;Node60264 -->
<g id="edge2" class="edge">
<title>Node60263&#45;&gt;Node60264</title>
<path fill="none" stroke="#191970" d="M295.8754,-77.414C318.5003,-71.5051 348.5707,-63.6516 371.9486,-57.5461"/>
<polygon fill="#191970" stroke="#191970" points="294.8459,-74.0654 286.0549,-79.9788 296.6148,-80.8382 294.8459,-74.0654"/>
</g>
<!-- Node60263&#45;&gt;Node60874 -->
<g id="edge3" class="edge">
<title>Node60263&#45;&gt;Node60874</title>
<path fill="none" stroke="#191970" d="M280.5797,-102.8342C291.1802,-113.6238 304.4366,-128.3159 314,-143 360.2894,-214.075 394.9704,-311.5625 405.3151,-342.3069"/>
<polygon fill="#191970" stroke="#191970" points="282.9824,-100.2876 273.4211,-95.7233 278.0492,-105.2539 282.9824,-100.2876"/>
</g>
<!-- Node60263&#45;&gt;Node60882 -->
<g id="edge42" class="edge">
<title>Node60263&#45;&gt;Node60882</title>
<path fill="none" stroke="#191970" d="M295.8754,-94.586C318.5003,-100.4949 348.5707,-108.3484 371.9486,-114.4539"/>
<polygon fill="#191970" stroke="#191970" points="296.6148,-91.1618 286.0549,-92.0212 294.8459,-97.9346 296.6148,-91.1618"/>
</g>
<!-- Node60690 -->
<g id="node23" class="node">
<title>Node60690</title>
<g id="a_node23"><a xlink:href="quickjs_8c.html#aed39bc2ad38569d153500dc6ae23cd6c" target="_top" xlink:title="js_parseInt">
<polygon fill="none" stroke="#000000" points="376,-.5 376,-19.5 441,-19.5 441,-.5 376,-.5"/>
<text text-anchor="middle" x="408.5" y="-7.5" font-family="Helvetica,sans-Serif" font-size="10.00" fill="#000000">js_parseInt</text>
</a>
</g>
</g>
<!-- Node60263&#45;&gt;Node60690 -->
<g id="edge49" class="edge">
<title>Node60263&#45;&gt;Node60690</title>
<path fill="none" stroke="#191970" d="M283.4611,-70.3372C300.53,-57.8386 325.8733,-40.566 350,-29 358.0885,-25.1225 367.1674,-21.7439 375.7159,-18.9544"/>
<polygon fill="#191970" stroke="#191970" points="281.2714,-67.6038 275.3396,-76.3825 285.4512,-73.219 281.2714,-67.6038"/>
</g>
<!-- Node60691 -->
<g id="node24" class="node">
<title>Node60691</title>
<g id="a_node24"><a xlink:href="quickjs_8c.html#abb21478f7d3d0ff964efbe82a673daef" target="_top" xlink:title="js_parseFloat">
<polygon fill="none" stroke="#000000" points="371,-76.5 371,-95.5 446,-95.5 446,-76.5 371,-76.5"/>
<text text-anchor="middle" x="408.5" y="-83.5" font-family="Helvetica,sans-Serif" font-size="10.00" fill="#000000">js_parseFloat</text>
</a>
</g>
</g>
<!-- Node60263&#45;&gt;Node60691 -->
<g id="edge50" class="edge">
<title>Node60263&#45;&gt;Node60691</title>
<path fill="none" stroke="#191970" d="M296.3351,-86C318.5424,-86 347.7688,-86 370.8202,-86"/>
<polygon fill="#191970" stroke="#191970" points="296.0549,-82.5001 286.0549,-86 296.0549,-89.5001 296.0549,-82.5001"/>
</g>
<!-- Node60875 -->
<g id="node5" class="node">
<title>Node60875</title>
<g id="a_node5"><a xlink:href="quickjs_8c.html#aeca8ed71e1eef8ec809afab744958c28" target="_top" xlink:title="js_parse_expect">
<polygon fill="none" stroke="#ff0000" points="526,-487.5 526,-506.5 614,-506.5 614,-487.5 526,-487.5"/>
<text text-anchor="middle" x="570" y="-494.5" font-family="Helvetica,sans-Serif" font-size="10.00" fill="#000000">js_parse_expect</text>
</a>
</g>
</g>
<!-- Node60874&#45;&gt;Node60875 -->
<g id="edge4" class="edge">
<title>Node60874&#45;&gt;Node60875</title>
<path fill="none" stroke="#191970" d="M424.0651,-369.4404C442.1863,-389.3476 473.4196,-422.453 503,-448 520.232,-462.8824 541.7149,-478.0594 555.6375,-487.4984"/>
<polygon fill="#191970" stroke="#191970" points="426.4446,-366.8531 417.1448,-361.7773 421.2495,-371.5447 426.4446,-366.8531"/>
</g>
<!-- Node60581 -->
<g id="node6" class="node">
<title>Node60581</title>
<g id="a_node6"><a xlink:href="quickjs_8c.html#a035daca514f14aacc1e0cff81d8e423a" target="_top" xlink:title="js_parse_template">
<polygon fill="none" stroke="#000000" points="694,-620.5 694,-639.5 790,-639.5 790,-620.5 694,-620.5"/>
<text text-anchor="middle" x="742" y="-627.5" font-family="Helvetica,sans-Serif" font-size="10.00" fill="#000000">js_parse_template</text>
</a>
</g>
</g>
<!-- Node60874&#45;&gt;Node60581 -->
<g id="edge24" class="edge">
<title>Node60874&#45;&gt;Node60581</title>
<path fill="none" stroke="#191970" d="M411.3276,-371.958C418.4621,-414.6732 441.2455,-515.3374 503,-568 517.7796,-580.6036 631.4358,-606.4394 696.5491,-620.4525"/>
<polygon fill="#191970" stroke="#191970" points="414.7695,-371.3133 409.7732,-361.9706 407.8527,-372.3899 414.7695,-371.3133"/>
</g>
<!-- Node60554 -->
<g id="node7" class="node">
<title>Node60554</title>
<g id="a_node7"><a xlink:href="quickjs_8c.html#a840642c87c5a82d4cc68333376a3b6de" target="_top" xlink:title="js_parse_postfix_expr">
<polygon fill="none" stroke="#ff0000" points="998,-525.5 998,-544.5 1110,-544.5 1110,-525.5 998,-525.5"/>
<text text-anchor="middle" x="1054" y="-532.5" font-family="Helvetica,sans-Serif" font-size="10.00" fill="#000000">js_parse_postfix_expr</text>
</a>
</g>
</g>
<!-- Node60874&#45;&gt;Node60554 -->
<g id="edge40" class="edge">
<title>Node60874&#45;&gt;Node60554</title>
<path fill="none" stroke="#191970" d="M411.1895,-371.8658C420.4142,-436.78 452.9874,-640.7247 503,-680 664.1431,-806.547 790.4273,-749.0001 962,-637 1001.3394,-611.3198 1034.6134,-564.7609 1047.8611,-544.6641"/>
<polygon fill="#191970" stroke="#191970" points="414.6258,-371.1651 409.7817,-361.7425 407.6925,-372.1293 414.6258,-371.1651"/>
</g>
<!-- Node60582 -->
<g id="node8" class="node">
<title>Node60582</title>
<g id="a_node8"><a xlink:href="quickjs_8c.html#a42234753f3193f37ce45b3c0ca4c25cd" target="_top" xlink:title="js_parse_property_name">
<polygon fill="none" stroke="#000000" points="680.5,-430.5 680.5,-449.5 803.5,-449.5 803.5,-430.5 680.5,-430.5"/>
<text text-anchor="middle" x="742" y="-437.5" font-family="Helvetica,sans-Serif" font-size="10.00" fill="#000000">js_parse_property_name</text>
</a>
</g>
</g>
<!-- Node60874&#45;&gt;Node60582 -->
<g id="edge25" class="edge">
<title>Node60874&#45;&gt;Node60582</title>
<path fill="none" stroke="#191970" d="M430.7503,-367.2138C449.2664,-379.1259 476.7482,-395.1172 503,-404 561.3293,-423.7368 631.3219,-432.6755 680.4387,-436.7103"/>
<polygon fill="#191970" stroke="#191970" points="432.4607,-364.1497 422.1823,-361.5795 428.6145,-369.9984 432.4607,-364.1497"/>
</g>
<!-- Node60566 -->
<g id="node9" class="node">
<title>Node60566</title>
<g id="a_node9"><a xlink:href="quickjs_8c.html#aee6d0acd87f136d43f157ae1426436e6" target="_top" xlink:title="js_parse_object_literal">
<polygon fill="none" stroke="#000000" points="848,-544.5 848,-563.5 961,-563.5 961,-544.5 848,-544.5"/>
<text text-anchor="middle" x="904.5" y="-551.5" font-family="Helvetica,sans-Serif" font-size="10.00" fill="#000000">js_parse_object_literal</text>
</a>
</g>
</g>
<!-- Node60874&#45;&gt;Node60566 -->
<g id="edge33" class="edge">
<title>Node60874&#45;&gt;Node60566</title>
<path fill="none" stroke="#191970" d="M413.9859,-371.5176C424.8399,-406.3636 452.489,-479.0807 503,-516 565.4266,-561.6287 596.1371,-544.5643 673,-553 732.3279,-559.5112 800.7238,-558.8049 847.704,-557.0635"/>
<polygon fill="#191970" stroke="#191970" points="417.2502,-370.2152 411.0444,-361.6281 410.5407,-372.211 417.2502,-370.2152"/>
</g>
<!-- Node60556 -->
<g id="node10" class="node">
<title>Node60556</title>
<g id="a_node10"><a xlink:href="quickjs_8c.html#a00eb789430243c24dab4a63ad6a79653" target="_top" xlink:title="js_parse_class">
<polygon fill="none" stroke="#ff0000" points="863.5,-243.5 863.5,-262.5 945.5,-262.5 945.5,-243.5 863.5,-243.5"/>
<text text-anchor="middle" x="904.5" y="-250.5" font-family="Helvetica,sans-Serif" font-size="10.00" fill="#000000">js_parse_class</text>
</a>
</g>
</g>
<!-- Node60874&#45;&gt;Node60556 -->
<g id="edge35" class="edge">
<title>Node60874&#45;&gt;Node60556</title>
<path fill="none" stroke="#191970" d="M416.2666,-333.0122C429.3035,-303.95 458.6002,-249.3539 503,-226 624.1829,-162.2588 676.1524,-195.2432 811,-219 837.3664,-223.6451 866.0811,-235.1294 884.6348,-243.4682"/>
<polygon fill="#191970" stroke="#191970" points="412.9393,-331.8897 412.2013,-342.4589 419.3692,-334.6568 412.9393,-331.8897"/>
</g>
<!-- Node60568 -->
<g id="node11" class="node">
<title>Node60568</title>
<g id="a_node11"><a xlink:href="quickjs_8c.html#a26be546cf89c4580ba9020e8fc43a759" target="_top" xlink:title="js_parse_destructuring\l_element">
<polygon fill="none" stroke="#ff0000" points="847,-410 847,-440 962,-440 962,-410 847,-410"/>
<text text-anchor="start" x="855" y="-428" font-family="Helvetica,sans-Serif" font-size="10.00" fill="#000000">js_parse_destructuring</text>
<text text-anchor="middle" x="904.5" y="-417" font-family="Helvetica,sans-Serif" font-size="10.00" fill="#000000">_element</text>
</a>
</g>
</g>
<!-- Node60874&#45;&gt;Node60568 -->
<g id="edge39" class="edge">
<title>Node60874&#45;&gt;Node60568</title>
<path fill="none" stroke="#191970" d="M451.4178,-361.2395C467.5492,-364.5513 486.0766,-368.1637 503,-371 624.9091,-391.4315 768.664,-409.2606 846.8119,-418.4308"/>
<polygon fill="#191970" stroke="#191970" points="451.7071,-357.7249 441.2042,-359.1177 450.2833,-364.5786 451.7071,-357.7249"/>
</g>
<!-- Node60578 -->
<g id="node12" class="node">
<title>Node60578</title>
<g id="a_node12"><a xlink:href="quickjs_8c.html#a253917187cfb6b3db09d355b31edb3d5" target="_top" xlink:title="js_parse_array_literal">
<polygon fill="none" stroke="#000000" points="687.5,-658.5 687.5,-677.5 796.5,-677.5 796.5,-658.5 687.5,-658.5"/>
<text text-anchor="middle" x="742" y="-665.5" font-family="Helvetica,sans-Serif" font-size="10.00" fill="#000000">js_parse_array_literal</text>
</a>
</g>
</g>
<!-- Node60874&#45;&gt;Node60578 -->
<g id="edge36" class="edge">
<title>Node60874&#45;&gt;Node60578</title>
<path fill="none" stroke="#191970" d="M411.886,-371.8725C422.646,-432.5221 458.0129,-613.2827 503,-649 559.2332,-693.646 648.2,-686.7514 700.2543,-677.5039"/>
<polygon fill="#191970" stroke="#191970" points="415.2807,-370.9646 410.1163,-361.7137 408.3845,-372.1661 415.2807,-370.9646"/>
</g>
<!-- Node60876 -->
<g id="node13" class="node">
<title>Node60876</title>
<g id="a_node13"><a xlink:href="quickjs_8c.html#a02cbd69384985a4e904190810cf45641" target="_top" xlink:title="js_parse_expect_semi">
<polygon fill="none" stroke="#ff0000" points="513,-152.5 513,-171.5 627,-171.5 627,-152.5 513,-152.5"/>
<text text-anchor="middle" x="570" y="-159.5" font-family="Helvetica,sans-Serif" font-size="10.00" fill="#000000">js_parse_expect_semi</text>
</a>
</g>
</g>
<!-- Node60874&#45;&gt;Node60876 -->
<g id="edge22" class="edge">
<title>Node60874&#45;&gt;Node60876</title>
<path fill="none" stroke="#191970" d="M414.5774,-332.393C426.2215,-297.9516 454.8819,-226.4161 503,-186 510.4743,-179.7221 519.716,-175.0333 528.9224,-171.5507"/>
<polygon fill="#191970" stroke="#191970" points="411.1571,-331.5932 411.3917,-342.1854 417.8138,-333.7588 411.1571,-331.5932"/>
</g>
<!-- Node60877 -->
<g id="node14" class="node">
<title>Node60877</title>
<g id="a_node14"><a xlink:href="quickjs_8c.html#aba7eb7aae2eb61bfccb4565ee626cd18" target="_top" xlink:title="js_parse_seek_token">
<polygon fill="none" stroke="#ff0000" points="515.5,-266.5 515.5,-285.5 624.5,-285.5 624.5,-266.5 515.5,-266.5"/>
<text text-anchor="middle" x="570" y="-273.5" font-family="Helvetica,sans-Serif" font-size="10.00" fill="#000000">js_parse_seek_token</text>
</a>
</g>
</g>
<!-- Node60874&#45;&gt;Node60877 -->
<g id="edge26" class="edge">
<title>Node60874&#45;&gt;Node60877</title>
<path fill="none" stroke="#191970" d="M432.9307,-337.1481C451.6941,-326.0908 478.4648,-311.0601 503,-300 514.94,-294.6176 528.4791,-289.5778 540.2461,-285.5196"/>
<polygon fill="#191970" stroke="#191970" points="430.9566,-334.2501 424.1556,-342.3739 434.5383,-340.2644 430.9566,-334.2501"/>
</g>
<!-- Node60878 -->
<g id="node15" class="node">
<title>Node60878</title>
<g id="a_node15"><a xlink:href="quickjs_8c.html#ac00298085baf11a4a7bd600cf5de2e6d" target="_top" xlink:title="js_parse_skip_parens\l_token">
<polygon fill="none" stroke="#ff0000" points="686.5,-267 686.5,-297 797.5,-297 797.5,-267 686.5,-267"/>
<text text-anchor="start" x="694.5" y="-285" font-family="Helvetica,sans-Serif" font-size="10.00" fill="#000000">js_parse_skip_parens</text>
<text text-anchor="middle" x="742" y="-274" font-family="Helvetica,sans-Serif" font-size="10.00" fill="#000000">_token</text>
</a>
</g>
</g>
<!-- Node60874&#45;&gt;Node60878 -->
<g id="edge32" class="edge">
<title>Node60874&#45;&gt;Node60878</title>
<path fill="none" stroke="#191970" d="M450.961,-343.0876C510.8308,-330.5213 620.1335,-307.5792 686.4106,-293.6679"/>
<polygon fill="#191970" stroke="#191970" points="450.1524,-339.681 441.0846,-345.1607 451.5903,-346.5317 450.1524,-339.681"/>
</g>
<!-- Node60563 -->
<g id="node16" class="node">
<title>Node60563</title>
<g id="a_node16"><a xlink:href="quickjs_8c.html#adf95ddf430ef93fd9efea1cc2f8a2fbe" target="_top" xlink:title="js_parse_class_default_ctor">
<polygon fill="none" stroke="#000000" points="673,-228.5 673,-247.5 811,-247.5 811,-228.5 673,-228.5"/>
<text text-anchor="middle" x="742" y="-235.5" font-family="Helvetica,sans-Serif" font-size="10.00" fill="#000000">js_parse_class_default_ctor</text>
</a>
</g>
</g>
<!-- Node60874&#45;&gt;Node60563 -->
<g id="edge34" class="edge">
<title>Node60874&#45;&gt;Node60563</title>
<path fill="none" stroke="#191970" d="M420.3033,-333.9064C436.1122,-311.4135 466.4496,-273.926 503,-257 556.2565,-232.3376 623.3507,-229.0785 672.8836,-231.1273"/>
<polygon fill="#191970" stroke="#191970" points="417.3529,-332.0208 414.618,-342.2566 423.1391,-335.9604 417.3529,-332.0208"/>
</g>
<!-- Node60881 -->
<g id="node17" class="node">
<title>Node60881</title>
<g id="a_node17"><a xlink:href="quickjs_8c.html#ab10609a91c359ea5d3051f7bb646af83" target="_top" xlink:title="js_parse_destructuring_var">
<polygon fill="none" stroke="#000000" points="503,-342.5 503,-361.5 637,-361.5 637,-342.5 503,-342.5"/>
<text text-anchor="middle" x="570" y="-349.5" font-family="Helvetica,sans-Serif" font-size="10.00" fill="#000000">js_parse_destructuring_var</text>
</a>
</g>
</g>
<!-- Node60874&#45;&gt;Node60881 -->
<g id="edge37" class="edge">
<title>Node60874&#45;&gt;Node60881</title>
<path fill="none" stroke="#191970" d="M451.6066,-352C467.2857,-352 485.4041,-352 502.6789,-352"/>
<polygon fill="#191970" stroke="#191970" points="451.182,-348.5001 441.1819,-352 451.1819,-355.5001 451.182,-348.5001"/>
</g>
<!-- Node60571 -->
<g id="node18" class="node">
<title>Node60571</title>
<g id="a_node18"><a xlink:href="quickjs_8c.html#a2ecfb6abb190101748202a8aa5821fba" target="_top" xlink:title="js_parse_delete">
<polygon fill="none" stroke="#ff0000" points="527.5,-620.5 527.5,-639.5 612.5,-639.5 612.5,-620.5 527.5,-620.5"/>
<text text-anchor="middle" x="570" y="-627.5" font-family="Helvetica,sans-Serif" font-size="10.00" fill="#000000">js_parse_delete</text>
</a>
</g>
</g>
<!-- Node60874&#45;&gt;Node60571 -->
<g id="edge41" class="edge">
<title>Node60874&#45;&gt;Node60571</title>
<path fill="none" stroke="#191970" d="M410.254,-371.6746C415.4861,-418.7521 435.1252,-538.949 503,-606 509.7683,-612.6861 518.5265,-617.5214 527.4652,-621.0143"/>
<polygon fill="#191970" stroke="#191970" points="413.7228,-371.1889 409.2347,-361.5916 406.7583,-371.893 413.7228,-371.1889"/>
</g>
<!-- Node60875&#45;&gt;Node60581 -->
<g id="edge5" class="edge">
<title>Node60875&#45;&gt;Node60581</title>
<path fill="none" stroke="#191970" d="M590.6707,-512.9837C626.6631,-540.8151 699.813,-597.3786 729.2782,-620.1628"/>
<polygon fill="#191970" stroke="#191970" points="592.4217,-509.9134 582.3698,-506.565 588.1397,-515.451 592.4217,-509.9134"/>
</g>
<!-- Node60875&#45;&gt;Node60554 -->
<g id="edge21" class="edge">
<title>Node60875&#45;&gt;Node60554</title>
<path fill="none" stroke="#191970" d="M624.2293,-501.2577C716.7439,-508.5212 904.1438,-523.2344 997.9123,-530.5964"/>
<polygon fill="#191970" stroke="#191970" points="624.4781,-497.7665 614.2348,-500.473 623.9302,-504.7451 624.4781,-497.7665"/>
</g>
<!-- Node60875&#45;&gt;Node60582 -->
<g id="edge8" class="edge">
<title>Node60875&#45;&gt;Node60582</title>
<path fill="none" stroke="#191970" d="M608.6001,-484.2081C640.2779,-473.7102 684.4337,-459.0772 713.1171,-449.5716"/>
<polygon fill="#191970" stroke="#191970" points="607.1803,-480.9914 598.7889,-487.4595 609.3823,-487.636 607.1803,-480.9914"/>
</g>
<!-- Node60875&#45;&gt;Node60566 -->
<g id="edge16" class="edge">
<title>Node60875&#45;&gt;Node60566</title>
<path fill="none" stroke="#191970" d="M604.5071,-510.03C624.2858,-516.9966 649.7321,-525.1214 673,-530 731.9242,-542.3548 800.68,-548.4581 847.8616,-551.4017"/>
<polygon fill="#191970" stroke="#191970" points="605.5999,-506.7036 595.0054,-506.6193 603.2349,-513.292 605.5999,-506.7036"/>
</g>
<!-- Node60875&#45;&gt;Node60556 -->
<g id="edge17" class="edge">
<title>Node60875&#45;&gt;Node60556</title>
<path fill="none" stroke="#191970" d="M591.1207,-481.3402C611.9159,-465.9397 644.5969,-441.7844 673,-421 755.7552,-360.4426 855.6329,-288.2689 891.1634,-262.6221"/>
<polygon fill="#191970" stroke="#191970" points="588.9348,-478.6038 582.9833,-487.3691 593.1019,-484.2283 588.9348,-478.6038"/>
</g>
<!-- Node60875&#45;&gt;Node60568 -->
<g id="edge20" class="edge">
<title>Node60875&#45;&gt;Node60568</title>
<path fill="none" stroke="#191970" d="M624.1683,-491.4778C673.4151,-485.7472 747.822,-475.3057 811,-459 830.2332,-454.0361 851.0546,-446.6708 868.1562,-440.0634"/>
<polygon fill="#191970" stroke="#191970" points="623.5943,-488.0205 614.0545,-492.6296 624.3864,-494.9755 623.5943,-488.0205"/>
</g>
<!-- Node60875&#45;&gt;Node60578 -->
<g id="edge18" class="edge">
<title>Node60875&#45;&gt;Node60578</title>
<path fill="none" stroke="#191970" d="M580.5522,-515.8647C601.3454,-552.4233 647.7798,-630.9199 673,-649 678.453,-652.9092 684.6757,-656.0146 691.1007,-658.4814"/>
<polygon fill="#191970" stroke="#191970" points="583.3707,-513.7377 575.4064,-506.7505 577.2751,-517.1793 583.3707,-513.7377"/>
</g>
<!-- Node60581&#45;&gt;Node60554 -->
<g id="edge6" class="edge">
<title>Node60581&#45;&gt;Node60554</title>
<path fill="none" stroke="#191970" d="M796.1774,-618.167C841.0835,-607.8354 906.3375,-591.6072 962,-573 986.9121,-564.6722 1014.6747,-552.8372 1033.1203,-544.5956"/>
<polygon fill="#191970" stroke="#191970" points="795.322,-614.7722 786.3508,-620.4085 796.8787,-621.5969 795.322,-614.7722"/>
</g>
<!-- Node60554&#45;&gt;Node60554 -->
<g id="edge7" class="edge">
<title>Node60554&#45;&gt;Node60554</title>
<path fill="none" stroke="#191970" d="M1026.3742,-553.6539C1027.5289,-558.9368 1036.7375,-563 1054,-563 1080.3047,-563 1087.9084,-553.5653 1076.8111,-544.7571"/>
<polygon fill="#191970" stroke="#191970" points="1029.5076,-555.2176 1031.1889,-544.7571 1023.3512,-551.886 1029.5076,-555.2176"/>
</g>
<!-- Node60582&#45;&gt;Node60566 -->
<g id="edge9" class="edge">
<title>Node60582&#45;&gt;Node60566</title>
<path fill="none" stroke="#191970" d="M763.9089,-455.3699C797.895,-479.2125 862.3471,-524.4281 890.619,-544.262"/>
<polygon fill="#191970" stroke="#191970" points="765.7717,-452.4014 755.5752,-449.5235 761.7515,-458.1319 765.7717,-452.4014"/>
</g>
<!-- Node60582&#45;&gt;Node60556 -->
<g id="edge11" class="edge">
<title>Node60582&#45;&gt;Node60556</title>
<path fill="none" stroke="#191970" d="M794.2313,-426.453C800.2452,-423.5909 806.0027,-420.1444 811,-416 863.7346,-372.2659 892.8688,-290.5983 901.6363,-262.6611"/>
<polygon fill="#191970" stroke="#191970" points="792.5033,-423.3827 784.6422,-430.4858 795.2171,-429.8353 792.5033,-423.3827"/>
</g>
<!-- Node60582&#45;&gt;Node60568 -->
<g id="edge13" class="edge">
<title>Node60582&#45;&gt;Node60568</title>
<path fill="none" stroke="#191970" d="M813.9112,-433.362C824.9111,-432.3467 836.1423,-431.3099 846.7841,-430.3276"/>
<polygon fill="#191970" stroke="#191970" points="813.5338,-429.8819 803.8978,-434.2864 814.1773,-436.8523 813.5338,-429.8819"/>
</g>
<!-- Node60566&#45;&gt;Node60554 -->
<g id="edge10" class="edge">
<title>Node60566&#45;&gt;Node60554</title>
<path fill="none" stroke="#191970" d="M971.0462,-545.5426C980.0117,-544.4032 989.1365,-543.2435 997.8964,-542.1302"/>
<polygon fill="#191970" stroke="#191970" points="970.4984,-542.084 961.0195,-546.8169 971.381,-549.0281 970.4984,-542.084"/>
</g>
<!-- Node60556&#45;&gt;Node60554 -->
<g id="edge12" class="edge">
<title>Node60556&#45;&gt;Node60554</title>
<path fill="none" stroke="#191970" d="M918.1001,-270.9838C930.3653,-287.6205 948.4977,-313.2868 962,-337 1001.5741,-406.5015 1038.4117,-495.9427 1050.1397,-525.2394"/>
<polygon fill="#191970" stroke="#191970" points="920.7384,-268.6667 911.9564,-262.7398 915.1256,-272.8496 920.7384,-268.6667"/>
</g>
<!-- Node60568&#45;&gt;Node60554 -->
<g id="edge15" class="edge">
<title>Node60568&#45;&gt;Node60554</title>
<path fill="none" stroke="#191970" d="M933.1682,-446.0936C965.5477,-469.918 1016.843,-507.6604 1040.8261,-525.3068"/>
<polygon fill="#191970" stroke="#191970" points="935.1028,-443.1718 924.9739,-440.0644 930.9542,-448.81 935.1028,-443.1718"/>
</g>
<!-- Node60568&#45;&gt;Node60568 -->
<g id="edge14" class="edge">
<title>Node60568&#45;&gt;Node60568</title>
<path fill="none" stroke="#191970" d="M878.2022,-450.4579C881.4661,-455.179 890.2321,-458.5 904.5,-458.5 927.9141,-458.5 936.5114,-449.5566 930.2921,-440.159"/>
<polygon fill="#191970" stroke="#191970" points="881.7132,-450.3187 878.7079,-440.159 874.7216,-449.9753 881.7132,-450.3187"/>
</g>
<!-- Node60578&#45;&gt;Node60554 -->
<g id="edge19" class="edge">
<title>Node60578&#45;&gt;Node60554</title>
<path fill="none" stroke="#191970" d="M802.4084,-656.2842C847.881,-646.031 910.8968,-628.7089 962,-603 994.292,-586.7546 1027.1686,-559.2388 1043.4771,-544.6886"/>
<polygon fill="#191970" stroke="#191970" points="801.4167,-652.9187 792.4049,-658.4898 802.924,-659.7545 801.4167,-652.9187"/>
</g>
<!-- Node60876&#45;&gt;Node60556 -->
<g id="edge23" class="edge">
<title>Node60876&#45;&gt;Node60556</title>
<path fill="none" stroke="#191970" d="M637.6705,-159.5099C687.1812,-159.8642 755.168,-164.9521 811,-186 845.5696,-199.0323 879.004,-228.2184 894.8906,-243.4051"/>
<polygon fill="#191970" stroke="#191970" points="637.3996,-156.0098 627.3969,-159.5021 637.3942,-163.0098 637.3996,-156.0098"/>
</g>
<!-- Node60877&#45;&gt;Node60878 -->
<g id="edge27" class="edge">
<title>Node60877&#45;&gt;Node60878</title>
<path fill="none" stroke="#191970" d="M635.2305,-278.2755C652.1062,-278.8642 670.1168,-279.4924 686.446,-280.0621"/>
<polygon fill="#191970" stroke="#191970" points="635.0107,-274.7658 624.8948,-277.9149 634.7666,-281.7615 635.0107,-274.7658"/>
</g>
<!-- Node60877&#45;&gt;Node60563 -->
<g id="edge30" class="edge">
<title>Node60877&#45;&gt;Node60563</title>
<path fill="none" stroke="#191970" d="M623.1959,-264.2474C647.5166,-258.8742 675.9547,-252.5914 698.9092,-247.5201"/>
<polygon fill="#191970" stroke="#191970" points="622.4123,-260.836 613.4029,-266.411 623.9225,-267.6712 622.4123,-260.836"/>
</g>
<!-- Node60878&#45;&gt;Node60554 -->
<g id="edge29" class="edge">
<title>Node60878&#45;&gt;Node60554</title>
<path fill="none" stroke="#191970" d="M791.935,-300.9295C839.4689,-320.7006 911.1041,-355.2237 962,-401 1004.8018,-439.4964 1037.8091,-501.7305 1049.4524,-525.4247"/>
<polygon fill="#191970" stroke="#191970" points="793.0491,-297.6037 782.4685,-297.0543 790.3972,-304.0819 793.0491,-297.6037"/>
</g>
<!-- Node60878&#45;&gt;Node60568 -->
<g id="edge28" class="edge">
<title>Node60878&#45;&gt;Node60568</title>
<path fill="none" stroke="#191970" d="M795.96,-301.8034C801.2989,-304.817 806.4258,-308.2083 811,-312 832.9231,-330.1726 829.086,-342.8651 847,-365 860.0701,-381.1497 876.6297,-398.1154 888.6177,-409.8692"/>
<polygon fill="#191970" stroke="#191970" points="797.3254,-298.5692 786.8351,-297.0844 794.1098,-304.787 797.3254,-298.5692"/>
</g>
<!-- Node60563&#45;&gt;Node60556 -->
<g id="edge31" class="edge">
<title>Node60563&#45;&gt;Node60556</title>
<path fill="none" stroke="#191970" d="M821.7587,-245.3623C836.0536,-246.6819 850.4101,-248.0071 863.0575,-249.1745"/>
<polygon fill="#191970" stroke="#191970" points="821.6654,-241.8389 811.386,-244.4049 821.0219,-248.8093 821.6654,-241.8389"/>
</g>
<!-- Node60881&#45;&gt;Node60568 -->
<g id="edge38" class="edge">
<title>Node60881&#45;&gt;Node60568</title>
<path fill="none" stroke="#191970" d="M626.8125,-340.9064C676.8083,-333.5993 750.8045,-328.8405 811,-350 844.7671,-361.8696 875.3671,-391.6456 891.8127,-409.9082"/>
<polygon fill="#191970" stroke="#191970" points="626.1831,-337.462 616.8334,-342.4453 627.2501,-344.3802 626.1831,-337.462"/>
</g>
<!-- Node60883 -->
<g id="node20" class="node">
<title>Node60883</title>
<g id="a_node20"><a xlink:href="quickjs_8c.html#ae66a7542eaaa25e85eeb8427eca70eae" target="_top" xlink:title="json_parse_expect">
<polygon fill="none" stroke="#000000" points="521,-38.5 521,-57.5 619,-57.5 619,-38.5 521,-38.5"/>
<text text-anchor="middle" x="570" y="-45.5" font-family="Helvetica,sans-Serif" font-size="10.00" fill="#000000">json_parse_expect</text>
</a>
</g>
</g>
<!-- Node60882&#45;&gt;Node60883 -->
<g id="edge43" class="edge">
<title>Node60882&#45;&gt;Node60883</title>
<path fill="none" stroke="#191970" d="M455.4718,-110.7606C459.4692,-109.0345 463.3679,-107.1183 467,-105 485.7493,-94.065 484.4164,-83.2144 503,-72 512.8382,-66.063 524.3706,-61.2723 535.0678,-57.5785"/>
<polygon fill="#191970" stroke="#191970" points="454.0818,-107.546 446.0444,-114.4488 456.6322,-114.0648 454.0818,-107.546"/>
</g>
<!-- Node60598 -->
<g id="node21" class="node">
<title>Node60598</title>
<g id="a_node21"><a xlink:href="quickjs_8c.html#a756c1ab5dee9a6dd07723d7a075e2a53" target="_top" xlink:title="json_parse_value">
<polygon fill="none" stroke="#000000" points="696,-58.5 696,-77.5 788,-77.5 788,-58.5 696,-58.5"/>
<text text-anchor="middle" x="742" y="-65.5" font-family="Helvetica,sans-Serif" font-size="10.00" fill="#000000">json_parse_value</text>
</a>
</g>
</g>
<!-- Node60882&#45;&gt;Node60598 -->
<g id="edge47" class="edge">
<title>Node60882&#45;&gt;Node60598</title>
<path fill="none" stroke="#191970" d="M462.8145,-114.8797C527.6546,-103.992 634.9564,-85.9743 695.9224,-75.7372"/>
<polygon fill="#191970" stroke="#191970" points="462.0685,-111.4559 452.7862,-116.5636 463.2278,-118.3593 462.0685,-111.4559"/>
</g>
<!-- Node60599 -->
<g id="node22" class="node">
<title>Node60599</title>
<g id="a_node22"><a xlink:href="quickjs_8c.html#a2ce39fc64f8e4a7a0e19bf5527df730f" target="_top" xlink:title="JS_ParseJSON2">
<polygon fill="none" stroke="#ff0000" points="858.5,-86.5 858.5,-105.5 950.5,-105.5 950.5,-86.5 858.5,-86.5"/>
<text text-anchor="middle" x="904.5" y="-93.5" font-family="Helvetica,sans-Serif" font-size="10.00" fill="#000000">JS_ParseJSON2</text>
</a>
</g>
</g>
<!-- Node60882&#45;&gt;Node60599 -->
<g id="edge48" class="edge">
<title>Node60882&#45;&gt;Node60599</title>
<path fill="none" stroke="#191970" d="M463.0774,-122.2685C540.5207,-119.6194 686.7114,-113.91 811,-105 826.4526,-103.8922 843.3124,-102.3672 858.4071,-100.8872"/>
<polygon fill="#191970" stroke="#191970" points="462.4916,-118.7862 452.6155,-122.622 462.728,-125.7822 462.4916,-118.7862"/>
</g>
<!-- Node60883&#45;&gt;Node60598 -->
<g id="edge44" class="edge">
<title>Node60883&#45;&gt;Node60598</title>
<path fill="none" stroke="#191970" d="M629.4229,-54.9096C651.2067,-57.4426 675.5135,-60.269 695.9504,-62.6454"/>
<polygon fill="#191970" stroke="#191970" points="629.6257,-51.4097 619.2883,-53.7312 628.8171,-58.3629 629.6257,-51.4097"/>
</g>
<!-- Node60598&#45;&gt;Node60598 -->
<g id="edge45" class="edge">
<title>Node60598&#45;&gt;Node60598</title>
<path fill="none" stroke="#191970" d="M711.6856,-86.2746C712.5499,-91.741 722.6547,-96 742,-96 770.793,-96 779.1159,-86.5653 766.9689,-77.7571"/>
<polygon fill="#191970" stroke="#191970" points="714.6799,-88.0877 717.0311,-77.7571 708.7508,-84.3667 714.6799,-88.0877"/>
</g>
<!-- Node60598&#45;&gt;Node60599 -->
<g id="edge46" class="edge">
<title>Node60598&#45;&gt;Node60599</title>
<path fill="none" stroke="#191970" d="M798.1613,-77.677C817.7713,-81.056 839.5432,-84.8074 858.2533,-88.0313"/>
<polygon fill="#191970" stroke="#191970" points="798.5804,-74.1977 788.1313,-75.9488 797.3917,-81.0961 798.5804,-74.1977"/>
</g>
<!-- Node60519 -->
<g id="node26" class="node">
<title>Node60519</title>
<g id="a_node26"><a xlink:href="quickjs-libc_8c.html#a744c97f53406d93e57acb57e3d498227" target="_top" xlink:title="js_std_getenviron">
<polygon fill="none" stroke="#000000" points="216.5,-152.5 216.5,-171.5 309.5,-171.5 309.5,-152.5 216.5,-152.5"/>
<text text-anchor="middle" x="263" y="-159.5" font-family="Helvetica,sans-Serif" font-size="10.00" fill="#000000">js_std_getenviron</text>
</a>
</g>
</g>
<!-- Node60884&#45;&gt;Node60519 -->
<g id="edge52" class="edge">
<title>Node60884&#45;&gt;Node60519</title>
<path fill="none" stroke="#191970" d="M158.5148,-204.9889C174.2208,-197.5691 194.034,-188.4719 212,-181 219.7646,-177.7708 228.2944,-174.4905 236.119,-171.5848"/>
<polygon fill="#191970" stroke="#191970" points="156.8468,-201.9065 149.3196,-209.3625 159.8535,-208.2279 156.8468,-201.9065"/>
</g>
<!-- Node60885 -->
<g id="node27" class="node">
<title>Node60885</title>
<g id="a_node27"><a xlink:href="quickjs_8c.html#aa2ef5af1544a3012f91a80c98c326b8f" target="_top" xlink:title="JS_NewAtom">
<polygon fill="none" stroke="#ff0000" points="224.5,-266.5 224.5,-285.5 301.5,-285.5 301.5,-266.5 224.5,-266.5"/>
<text text-anchor="middle" x="263" y="-273.5" font-family="Helvetica,sans-Serif" font-size="10.00" fill="#000000">JS_NewAtom</text>
</a>
</g>
</g>
<!-- Node60884&#45;&gt;Node60885 -->
<g id="edge53" class="edge">
<title>Node60884&#45;&gt;Node60885</title>
<path fill="none" stroke="#191970" d="M158.5148,-233.0111C174.2208,-240.4309 194.034,-249.5281 212,-257 219.7646,-260.2292 228.2944,-263.5095 236.119,-266.4152"/>
<polygon fill="#191970" stroke="#191970" points="159.8535,-229.7721 149.3196,-228.6375 156.8468,-236.0935 159.8535,-229.7721"/>
</g>
<!-- Node60660 -->
<g id="node28" class="node">
<title>Node60660</title>
<g id="a_node28"><a xlink:href="quickjs_8c.html#aadfd9c31a6f69160c12e99b8d5eb5b3c" target="_top" xlink:title="js_atom_concat_str">
<polygon fill="none" stroke="#ff0000" points="212,-228.5 212,-247.5 314,-247.5 314,-228.5 212,-228.5"/>
<text text-anchor="middle" x="263" y="-235.5" font-family="Helvetica,sans-Serif" font-size="10.00" fill="#000000">js_atom_concat_str</text>
</a>
</g>
</g>
<!-- Node60884&#45;&gt;Node60660 -->
<g id="edge54" class="edge">
<title>Node60884&#45;&gt;Node60660</title>
<path fill="none" stroke="#191970" d="M186.2829,-227.0815C194.6733,-228.2756 203.2787,-229.5003 211.5525,-230.6779"/>
<polygon fill="#191970" stroke="#191970" points="186.5852,-223.5893 176.1918,-225.6453 185.5989,-230.5195 186.5852,-223.5893"/>
</g>
<!-- Node60901 -->
<g id="node29" class="node">
<title>Node60901</title>
<g id="a_node29"><a xlink:href="quickjs_8c.html#ad91865d0889d1420e3e70d5d497a9bdb" target="_top" xlink:title="parse_ident">
<polygon fill="none" stroke="#000000" points="229.5,-304.5 229.5,-323.5 296.5,-323.5 296.5,-304.5 229.5,-304.5"/>
<text text-anchor="middle" x="263" y="-311.5" font-family="Helvetica,sans-Serif" font-size="10.00" fill="#000000">parse_ident</text>
</a>
</g>
</g>
<!-- Node60884&#45;&gt;Node60901 -->
<g id="edge55" class="edge">
<title>Node60884&#45;&gt;Node60901</title>
<path fill="none" stroke="#191970" d="M144.4459,-236.22C159.9072,-253.1376 185.4709,-278.7161 212,-295 218.0395,-298.7071 224.9176,-301.8729 231.6245,-304.4963"/>
<polygon fill="#191970" stroke="#191970" points="146.984,-233.8076 137.7075,-228.6893 141.7675,-238.4754 146.984,-233.8076"/>
</g>
<!-- Node60902 -->
<g id="node30" class="node">
<title>Node60902</title>
<g id="a_node30"><a xlink:href="quickjs_8c.html#adab89942b11c3b3cbf3ecb9e763b0ab6" target="_top" xlink:title="json_parse_ident">
<polygon fill="none" stroke="#000000" points="218,-190.5 218,-209.5 308,-209.5 308,-190.5 218,-190.5"/>
<text text-anchor="middle" x="263" y="-197.5" font-family="Helvetica,sans-Serif" font-size="10.00" fill="#000000">json_parse_ident</text>
</a>
</g>
</g>
<!-- Node60884&#45;&gt;Node60902 -->
<g id="edge57" class="edge">
<title>Node60884&#45;&gt;Node60902</title>
<path fill="none" stroke="#191970" d="M186.2029,-210.9299C196.7923,-209.4228 207.7269,-207.8666 217.9077,-206.4176"/>
<polygon fill="#191970" stroke="#191970" points="185.5989,-207.4805 176.1918,-212.3547 186.5852,-214.4107 185.5989,-207.4805"/>
</g>
<!-- Node60901&#45;&gt;Node60874 -->
<g id="edge56" class="edge">
<title>Node60901&#45;&gt;Node60874</title>
<path fill="none" stroke="#191970" d="M306.6278,-325.3942C328.8839,-331.2068 355.4953,-338.1568 375.9375,-343.4957"/>
<polygon fill="#191970" stroke="#191970" points="307.3063,-321.9541 296.7463,-322.8135 305.5374,-328.7269 307.3063,-321.9541"/>
</g>
<!-- Node60902&#45;&gt;Node60882 -->
<g id="edge58" class="edge">
<title>Node60902&#45;&gt;Node60882</title>
<path fill="none" stroke="#191970" d="M301.0508,-186.7205C305.4679,-184.9161 309.8677,-182.9945 314,-181 343.8509,-166.5919 376.5128,-145.6265 394.554,-133.5463"/>
<polygon fill="#191970" stroke="#191970" points="299.4942,-183.5709 291.4506,-190.4667 302.0388,-190.092 299.4942,-183.5709"/>
</g>
</g>
</svg>
