<?xml version="1.0" encoding="UTF-8" standalone="no"?>
<!DOCTYPE svg PUBLIC "-//W3C//DTD SVG 1.1//EN"
 "http://www.w3.org/Graphics/SVG/1.1/DTD/svg11.dtd">
<!-- Generated by graphviz version 2.40.1 (20161225.0304)
 -->
<!-- Title: js_resize_array Pages: 1 -->
<svg width="829pt" height="677pt"
 viewBox="0.00 0.00 829.00 677.22" xmlns="http://www.w3.org/2000/svg" xmlns:xlink="http://www.w3.org/1999/xlink">
<g id="graph0" class="graph" transform="scale(1 1) rotate(0) translate(4 673.2181)">
<title>js_resize_array</title>
<!-- Node58992 -->
<g id="node1" class="node">
<title>Node58992</title>
<polygon fill="#bfbfbf" stroke="#000000" points="0,-385.7181 0,-404.7181 83,-404.7181 83,-385.7181 0,-385.7181"/>
<text text-anchor="middle" x="41.5" y="-392.7181" font-family="Helvetica,sans-Serif" font-size="10.00" fill="#000000">js_resize_array</text>
</g>
<!-- Node58993 -->
<g id="node2" class="node">
<title>Node58993</title>
<g id="a_node2"><a xlink:href="quickjs_8c.html#aff573513d994f4e9ad7b0430c03ddc3d" target="_top" xlink:title="add_arg">
<polygon fill="none" stroke="#000000" points="460,-541.7181 460,-560.7181 511,-560.7181 511,-541.7181 460,-541.7181"/>
<text text-anchor="middle" x="485.5" y="-548.7181" font-family="Helvetica,sans-Serif" font-size="10.00" fill="#000000">add_arg</text>
</a>
</g>
</g>
<!-- Node58992&#45;&gt;Node58993 -->
<g id="edge1" class="edge">
<title>Node58992&#45;&gt;Node58993</title>
<path fill="none" stroke="#191970" d="M47.3006,-414.7393C57.0094,-443.6915 79.4814,-497.368 119,-523.2181 227.9431,-594.4804 395.9892,-569.9487 459.763,-557.0424"/>
<polygon fill="#191970" stroke="#191970" points="50.5586,-413.4345 44.1956,-404.9632 43.887,-415.5536 50.5586,-413.4345"/>
</g>
<!-- Node59030 -->
<g id="node5" class="node">
<title>Node59030</title>
<g id="a_node5"><a xlink:href="quickjs_8c.html#a9f64fb61a20cee1cad0eb2680624e341" target="_top" xlink:title="add_closure_var">
<polygon fill="none" stroke="#000000" points="143.5,-593.7181 143.5,-612.7181 231.5,-612.7181 231.5,-593.7181 143.5,-593.7181"/>
<text text-anchor="middle" x="187.5" y="-600.7181" font-family="Helvetica,sans-Serif" font-size="10.00" fill="#000000">add_closure_var</text>
</a>
</g>
</g>
<!-- Node58992&#45;&gt;Node59030 -->
<g id="edge4" class="edge">
<title>Node58992&#45;&gt;Node59030</title>
<path fill="none" stroke="#191970" d="M44.4121,-414.82C50.9557,-452.0568 70.2525,-533.3866 119,-579.2181 125.7937,-585.6054 134.3835,-590.3055 143.1633,-593.76"/>
<polygon fill="#191970" stroke="#191970" points="47.8367,-414.0735 42.7723,-404.7675 40.928,-415.2006 47.8367,-414.0735"/>
</g>
<!-- Node59039 -->
<g id="node7" class="node">
<title>Node59039</title>
<g id="a_node7"><a xlink:href="quickjs_8c.html#aaea4bacf94d0db93f4a13f6e88860ad0" target="_top" xlink:title="add_export_entry2">
<polygon fill="none" stroke="#000000" points="294.5,-649.7181 294.5,-668.7181 391.5,-668.7181 391.5,-649.7181 294.5,-649.7181"/>
<text text-anchor="middle" x="343" y="-656.7181" font-family="Helvetica,sans-Serif" font-size="10.00" fill="#000000">add_export_entry2</text>
</a>
</g>
</g>
<!-- Node58992&#45;&gt;Node59039 -->
<g id="edge7" class="edge">
<title>Node58992&#45;&gt;Node59039</title>
<path fill="none" stroke="#191970" d="M45.4801,-414.6949C56.0537,-464.4954 86.2818,-594.5059 119,-622.2181 167.7248,-663.4878 244.4834,-667.3422 294.2837,-664.6086"/>
<polygon fill="#191970" stroke="#191970" points="48.8949,-413.925 43.4258,-404.851 42.0426,-415.3551 48.8949,-413.925"/>
</g>
<!-- Node59046 -->
<g id="node10" class="node">
<title>Node59046</title>
<g id="a_node10"><a xlink:href="quickjs_8c.html#ae7344d4ed92b31de7c7ef8716b911cb8" target="_top" xlink:title="add_global_var">
<polygon fill="none" stroke="#000000" points="302,-517.7181 302,-536.7181 384,-536.7181 384,-517.7181 302,-517.7181"/>
<text text-anchor="middle" x="343" y="-524.7181" font-family="Helvetica,sans-Serif" font-size="10.00" fill="#000000">add_global_var</text>
</a>
</g>
</g>
<!-- Node58992&#45;&gt;Node59046 -->
<g id="edge12" class="edge">
<title>Node58992&#45;&gt;Node59046</title>
<path fill="none" stroke="#191970" d="M51.2689,-414.0491C63.7968,-436.1509 87.6962,-472.0821 119,-490.2181 176.1267,-523.3147 254.3931,-528.9412 301.6798,-528.8759"/>
<polygon fill="#191970" stroke="#191970" points="54.1857,-412.087 46.3273,-404.981 48.0391,-415.4366 54.1857,-412.087"/>
</g>
<!-- Node59049 -->
<g id="node13" class="node">
<title>Node59049</title>
<g id="a_node13"><a xlink:href="quickjs_8c.html#a3ff40fe185637ba5525078d1cbedbefa" target="_top" xlink:title="add_import">
<polygon fill="none" stroke="#000000" points="155,-423.7181 155,-442.7181 220,-442.7181 220,-423.7181 155,-423.7181"/>
<text text-anchor="middle" x="187.5" y="-430.7181" font-family="Helvetica,sans-Serif" font-size="10.00" fill="#000000">add_import</text>
</a>
</g>
</g>
<!-- Node58992&#45;&gt;Node59049 -->
<g id="edge19" class="edge">
<title>Node58992&#45;&gt;Node59049</title>
<path fill="none" stroke="#191970" d="M88.3124,-407.4022C109.9337,-413.0296 135.0882,-419.5767 154.6551,-424.6694"/>
<polygon fill="#191970" stroke="#191970" points="88.9012,-403.9388 78.342,-404.8071 87.1379,-410.7132 88.9012,-403.9388"/>
</g>
<!-- Node59051 -->
<g id="node15" class="node">
<title>Node59051</title>
<g id="a_node15"><a xlink:href="quickjs_8c.html#ad5cccb20d07c9e601482d5b2398c2f55" target="_top" xlink:title="add_req_module_entry">
<polygon fill="none" stroke="#000000" points="130,-385.7181 130,-404.7181 245,-404.7181 245,-385.7181 130,-385.7181"/>
<text text-anchor="middle" x="187.5" y="-392.7181" font-family="Helvetica,sans-Serif" font-size="10.00" fill="#000000">add_req_module_entry</text>
</a>
</g>
</g>
<!-- Node58992&#45;&gt;Node59051 -->
<g id="edge21" class="edge">
<title>Node58992&#45;&gt;Node59051</title>
<path fill="none" stroke="#191970" d="M93.4645,-395.2181C105.2624,-395.2181 117.8618,-395.2181 129.8788,-395.2181"/>
<polygon fill="#191970" stroke="#191970" points="93.3378,-391.7182 83.3377,-395.2181 93.3377,-398.7182 93.3378,-391.7182"/>
</g>
<!-- Node59052 -->
<g id="node16" class="node">
<title>Node59052</title>
<g id="a_node16"><a xlink:href="quickjs_8c.html#ade1e452957ebf589907635cc79718d16" target="_top" xlink:title="add_resolve_entry">
<polygon fill="none" stroke="#000000" points="139.5,-461.7181 139.5,-480.7181 235.5,-480.7181 235.5,-461.7181 139.5,-461.7181"/>
<text text-anchor="middle" x="187.5" y="-468.7181" font-family="Helvetica,sans-Serif" font-size="10.00" fill="#000000">add_resolve_entry</text>
</a>
</g>
</g>
<!-- Node58992&#45;&gt;Node59052 -->
<g id="edge24" class="edge">
<title>Node58992&#45;&gt;Node59052</title>
<path fill="none" stroke="#191970" d="M60.1503,-411.985C75.1102,-424.6465 97.1497,-441.5996 119,-452.2181 126.77,-455.9941 135.4124,-459.1257 143.8692,-461.6829"/>
<polygon fill="#191970" stroke="#191970" points="62.0639,-409.0119 52.2151,-405.1064 57.4788,-414.3012 62.0639,-409.0119"/>
</g>
<!-- Node59623 -->
<g id="node18" class="node">
<title>Node59623</title>
<g id="a_node18"><a xlink:href="quickjs_8c.html#a18dd9d3b970d353bfd39b504d8102ab7" target="_top" xlink:title="add_star_export_entry">
<polygon fill="none" stroke="#000000" points="581.5,-94.7181 581.5,-113.7181 694.5,-113.7181 694.5,-94.7181 581.5,-94.7181"/>
<text text-anchor="middle" x="638" y="-101.7181" font-family="Helvetica,sans-Serif" font-size="10.00" fill="#000000">add_star_export_entry</text>
</a>
</g>
</g>
<!-- Node58992&#45;&gt;Node59623 -->
<g id="edge27" class="edge">
<title>Node58992&#45;&gt;Node59623</title>
<path fill="none" stroke="#191970" d="M43.7824,-375.7264C49.3397,-337.2632 67.1574,-251.337 119,-205.2181 166.2106,-163.2198 212.4333,-212.9853 256,-167.2181 306.2554,-114.4243 235.0833,-52.7514 292,-7.2181 311.265,8.1939 519.3459,-6.104 541,-15.2181 582.2873,-32.5958 617.213,-75.5341 631.3165,-94.7068"/>
<polygon fill="#191970" stroke="#191970" points="40.3119,-375.2736 42.4741,-385.6455 47.2518,-376.189 40.3119,-375.2736"/>
</g>
<!-- Node59624 -->
<g id="node19" class="node">
<title>Node59624</title>
<g id="a_node19"><a xlink:href="quickjs_8c.html#ab2e0855c4317f8e3b05c0a091bc43a29" target="_top" xlink:title="add_var">
<polygon fill="none" stroke="#ff0000" points="162,-214.7181 162,-233.7181 213,-233.7181 213,-214.7181 162,-214.7181"/>
<text text-anchor="middle" x="187.5" y="-221.7181" font-family="Helvetica,sans-Serif" font-size="10.00" fill="#000000">add_var</text>
</a>
</g>
</g>
<!-- Node58992&#45;&gt;Node59624 -->
<g id="edge29" class="edge">
<title>Node58992&#45;&gt;Node59624</title>
<path fill="none" stroke="#191970" d="M56.3156,-377.8656C86.7954,-342.1666 155.6473,-261.525 179.3228,-233.7955"/>
<polygon fill="#191970" stroke="#191970" points="53.5994,-375.6567 49.7679,-385.5344 58.923,-380.202 53.5994,-375.6567"/>
</g>
<!-- Node59632 -->
<g id="node27" class="node">
<title>Node59632</title>
<g id="a_node27"><a xlink:href="quickjs_8c.html#abe9790a1548fcb007a2c864356f71ef5" target="_top" xlink:title="bc_atom_to_idx">
<polygon fill="none" stroke="#ff0000" points="144.5,-138.7181 144.5,-157.7181 230.5,-157.7181 230.5,-138.7181 144.5,-138.7181"/>
<text text-anchor="middle" x="187.5" y="-145.7181" font-family="Helvetica,sans-Serif" font-size="10.00" fill="#000000">bc_atom_to_idx</text>
</a>
</g>
</g>
<!-- Node58992&#45;&gt;Node59632 -->
<g id="edge46" class="edge">
<title>Node58992&#45;&gt;Node59632</title>
<path fill="none" stroke="#191970" d="M42.7614,-375.4181C46.5527,-332.4524 61.4638,-229.8997 119,-172.2181 125.9413,-165.2592 135.0119,-160.3129 144.2699,-156.7987"/>
<polygon fill="#191970" stroke="#191970" points="39.2514,-375.4139 41.9747,-385.6528 46.2309,-375.9505 39.2514,-375.4139"/>
</g>
<!-- Node59635 -->
<g id="node28" class="node">
<title>Node59635</title>
<g id="a_node28"><a xlink:href="quickjs_8c.html#a51fe964c0b48eb3191aec8c98e73e4c6" target="_top" xlink:title="get_exported_names">
<polygon fill="none" stroke="#ff0000" points="134,-82.7181 134,-101.7181 241,-101.7181 241,-82.7181 134,-82.7181"/>
<text text-anchor="middle" x="187.5" y="-89.7181" font-family="Helvetica,sans-Serif" font-size="10.00" fill="#000000">get_exported_names</text>
</a>
</g>
</g>
<!-- Node58992&#45;&gt;Node59635 -->
<g id="edge47" class="edge">
<title>Node58992&#45;&gt;Node59635</title>
<path fill="none" stroke="#191970" d="M42.2083,-375.3471C44.888,-327.663 57.7042,-205.0905 119,-129.2181 129.1928,-116.6014 144.8811,-107.6829 158.6733,-101.7679"/>
<polygon fill="#191970" stroke="#191970" points="38.7024,-375.3937 41.7307,-385.5465 45.6947,-375.7212 38.7024,-375.3937"/>
</g>
<!-- Node59636 -->
<g id="node29" class="node">
<title>Node59636</title>
<g id="a_node29"><a xlink:href="quickjs_8c.html#a7d118830f69bffb6590c82bd3c077ac5" target="_top" xlink:title="JS_WriteSharedArrayBuffer">
<polygon fill="none" stroke="#ff0000" points="119,-44.7181 119,-63.7181 256,-63.7181 256,-44.7181 119,-44.7181"/>
<text text-anchor="middle" x="187.5" y="-51.7181" font-family="Helvetica,sans-Serif" font-size="10.00" fill="#000000">JS_WriteSharedArrayBuffer</text>
</a>
</g>
</g>
<!-- Node58992&#45;&gt;Node59636 -->
<g id="edge49" class="edge">
<title>Node58992&#45;&gt;Node59636</title>
<path fill="none" stroke="#191970" d="M43.652,-375.3675C50.8879,-312.1984 76.3102,-117.4014 119,-73.2181 122.6874,-69.4017 127.0687,-66.3313 131.8067,-63.864"/>
<polygon fill="#191970" stroke="#191970" points="40.1448,-375.2379 42.5125,-385.5648 47.1015,-376.0154 40.1448,-375.2379"/>
</g>
<!-- Node59637 -->
<g id="node30" class="node">
<title>Node59637</title>
<g id="a_node30"><a xlink:href="quickjs_8c.html#ae45b122556638f15e903dc36708dbe20" target="_top" xlink:title="ss_check">
<polygon fill="none" stroke="#ff0000" points="158,-6.7181 158,-25.7181 217,-25.7181 217,-6.7181 158,-6.7181"/>
<text text-anchor="middle" x="187.5" y="-13.7181" font-family="Helvetica,sans-Serif" font-size="10.00" fill="#000000">ss_check</text>
</a>
</g>
</g>
<!-- Node58992&#45;&gt;Node59637 -->
<g id="edge50" class="edge">
<title>Node58992&#45;&gt;Node59637</title>
<path fill="none" stroke="#191970" d="M43.1149,-375.2802C49.0216,-307.2123 71.6254,-85.4499 119,-35.2181 128.9917,-24.6237 144.3261,-19.7593 157.9549,-17.5933"/>
<polygon fill="#191970" stroke="#191970" points="39.6069,-375.2292 42.2559,-385.4875 46.5823,-375.8163 39.6069,-375.2292"/>
</g>
<!-- Node58994 -->
<g id="node3" class="node">
<title>Node58994</title>
<g id="a_node3"><a xlink:href="quickjs_8c.html#acc9eb677cab8dfcf45f59381f8a19601" target="_top" xlink:title="js_parse_function_decl2">
<polygon fill="none" stroke="#ff0000" points="577,-442.7181 577,-461.7181 699,-461.7181 699,-442.7181 577,-442.7181"/>
<text text-anchor="middle" x="638" y="-449.7181" font-family="Helvetica,sans-Serif" font-size="10.00" fill="#000000">js_parse_function_decl2</text>
</a>
</g>
</g>
<!-- Node58993&#45;&gt;Node58994 -->
<g id="edge2" class="edge">
<title>Node58993&#45;&gt;Node58994</title>
<path fill="none" stroke="#191970" d="M509.082,-535.9092C540.94,-515.2276 596.7814,-478.9764 623.264,-461.7844"/>
<polygon fill="#191970" stroke="#191970" points="506.8818,-533.1646 500.4,-541.5453 510.6934,-539.0359 506.8818,-533.1646"/>
</g>
<!-- Node59013 -->
<g id="node4" class="node">
<title>Node59013</title>
<g id="a_node4"><a xlink:href="quickjs_8c.html#a498e1d5c7de1b59c1630e9847cde1e41" target="_top" xlink:title="js_parse_export">
<polygon fill="none" stroke="#ff0000" points="735,-385.7181 735,-404.7181 821,-404.7181 821,-385.7181 735,-385.7181"/>
<text text-anchor="middle" x="778" y="-392.7181" font-family="Helvetica,sans-Serif" font-size="10.00" fill="#000000">js_parse_export</text>
</a>
</g>
</g>
<!-- Node58994&#45;&gt;Node59013 -->
<g id="edge3" class="edge">
<title>Node58994&#45;&gt;Node59013</title>
<path fill="none" stroke="#191970" d="M670.7671,-438.8772C696.4439,-428.4231 731.548,-414.1307 754.4907,-404.7897"/>
<polygon fill="#191970" stroke="#191970" points="669.3748,-435.665 661.4329,-442.6776 672.0145,-442.1483 669.3748,-435.665"/>
</g>
<!-- Node59031 -->
<g id="node6" class="node">
<title>Node59031</title>
<g id="a_node6"><a xlink:href="quickjs_8c.html#a4671a759c33274b073d0578ac62261e0" target="_top" xlink:title="get_closure_var2">
<polygon fill="none" stroke="#ff0000" points="297.5,-593.7181 297.5,-612.7181 388.5,-612.7181 388.5,-593.7181 297.5,-593.7181"/>
<text text-anchor="middle" x="343" y="-600.7181" font-family="Helvetica,sans-Serif" font-size="10.00" fill="#000000">get_closure_var2</text>
</a>
</g>
</g>
<!-- Node59030&#45;&gt;Node59031 -->
<g id="edge5" class="edge">
<title>Node59030&#45;&gt;Node59031</title>
<path fill="none" stroke="#191970" d="M241.7911,-603.2181C259.9411,-603.2181 279.9729,-603.2181 297.3923,-603.2181"/>
<polygon fill="#191970" stroke="#191970" points="241.6442,-599.7182 231.6441,-603.2181 241.6441,-606.7182 241.6442,-599.7182"/>
</g>
<!-- Node59031&#45;&gt;Node59031 -->
<g id="edge6" class="edge">
<title>Node59031&#45;&gt;Node59031</title>
<path fill="none" stroke="#191970" d="M316.4941,-621.872C317.6021,-627.1549 326.4374,-631.2181 343,-631.2181 368.2383,-631.2181 375.5337,-621.7834 364.8863,-612.9752"/>
<polygon fill="#191970" stroke="#191970" points="319.6117,-623.463 321.1137,-612.9752 313.3992,-620.2373 319.6117,-623.463"/>
</g>
<!-- Node59040 -->
<g id="node8" class="node">
<title>Node59040</title>
<g id="a_node8"><a xlink:href="quickjs_8c.html#ac4a40e2d5f6c48850ba11ed6ce953925" target="_top" xlink:title="add_export_entry">
<polygon fill="none" stroke="#ff0000" points="439.5,-633.7181 439.5,-652.7181 531.5,-652.7181 531.5,-633.7181 439.5,-633.7181"/>
<text text-anchor="middle" x="485.5" y="-640.7181" font-family="Helvetica,sans-Serif" font-size="10.00" fill="#000000">add_export_entry</text>
</a>
</g>
</g>
<!-- Node59039&#45;&gt;Node59040 -->
<g id="edge8" class="edge">
<title>Node59039&#45;&gt;Node59040</title>
<path fill="none" stroke="#191970" d="M401.6185,-652.6364C414.244,-651.2188 427.4162,-649.7398 439.4803,-648.3852"/>
<polygon fill="#191970" stroke="#191970" points="401.1889,-649.1625 391.6419,-653.7566 401.97,-656.1188 401.1889,-649.1625"/>
</g>
<!-- Node59041 -->
<g id="node9" class="node">
<title>Node59041</title>
<g id="a_node9"><a xlink:href="quickjs_8c.html#a369af749a1fb181216fe8a8b55f841b0" target="_top" xlink:title="JS_AddModuleExport">
<polygon fill="none" stroke="#ff0000" points="430,-595.7181 430,-614.7181 541,-614.7181 541,-595.7181 430,-595.7181"/>
<text text-anchor="middle" x="485.5" y="-602.7181" font-family="Helvetica,sans-Serif" font-size="10.00" fill="#000000">JS_AddModuleExport</text>
</a>
</g>
</g>
<!-- Node59039&#45;&gt;Node59041 -->
<g id="edge11" class="edge">
<title>Node59039&#45;&gt;Node59041</title>
<path fill="none" stroke="#191970" d="M379.0937,-646.0869C384.1192,-644.1668 389.2021,-642.1759 394,-640.2181 410.2114,-633.6031 413.7015,-630.6154 430,-624.2181 438.3426,-620.9435 447.5078,-617.6751 455.9443,-614.7956"/>
<polygon fill="#191970" stroke="#191970" points="377.7158,-642.8657 369.5901,-649.6645 380.182,-649.4169 377.7158,-642.8657"/>
</g>
<!-- Node59040&#45;&gt;Node58994 -->
<g id="edge10" class="edge">
<title>Node59040&#45;&gt;Node58994</title>
<path fill="none" stroke="#191970" d="M536.2798,-628.2427C537.95,-627.0059 539.5326,-625.6672 541,-624.2181 574.9082,-590.7331 553.0697,-564.4292 577,-523.2181 591.1993,-498.7651 614.2769,-474.7527 627.6042,-461.8786"/>
<polygon fill="#191970" stroke="#191970" points="534.0987,-625.4696 527.3243,-633.6156 537.7,-631.4722 534.0987,-625.4696"/>
</g>
<!-- Node59040&#45;&gt;Node59013 -->
<g id="edge9" class="edge">
<title>Node59040&#45;&gt;Node59013</title>
<path fill="none" stroke="#191970" d="M530.2743,-629.8522C534,-628.1565 537.6268,-626.2818 541,-624.2181 646.9097,-559.4249 743.5589,-439.9351 770.5486,-405.0318"/>
<polygon fill="#191970" stroke="#191970" points="528.8174,-626.6668 520.8972,-633.7039 531.4771,-633.1418 528.8174,-626.6668"/>
</g>
<!-- Node59046&#45;&gt;Node58994 -->
<g id="edge18" class="edge">
<title>Node59046&#45;&gt;Node58994</title>
<path fill="none" stroke="#191970" d="M390.3949,-515.1685C448.8709,-500.3018 547.093,-475.3301 600.5626,-461.7361"/>
<polygon fill="#191970" stroke="#191970" points="389.4909,-511.787 380.6616,-517.6431 391.2157,-518.5711 389.4909,-511.787"/>
</g>
<!-- Node59047 -->
<g id="node11" class="node">
<title>Node59047</title>
<g id="a_node11"><a xlink:href="quickjs_8c.html#a99125693fff3fd8277f544b15109354b" target="_top" xlink:title="define_var">
<polygon fill="none" stroke="#ff0000" points="454.5,-318.7181 454.5,-337.7181 516.5,-337.7181 516.5,-318.7181 454.5,-318.7181"/>
<text text-anchor="middle" x="485.5" y="-325.7181" font-family="Helvetica,sans-Serif" font-size="10.00" fill="#000000">define_var</text>
</a>
</g>
</g>
<!-- Node59046&#45;&gt;Node59047 -->
<g id="edge13" class="edge">
<title>Node59046&#45;&gt;Node59047</title>
<path fill="none" stroke="#191970" d="M388.3832,-512.533C390.3662,-511.2122 392.2529,-509.7771 394,-508.2181 449.4513,-458.7372 475.8113,-367.7666 483.2344,-337.9572"/>
<polygon fill="#191970" stroke="#191970" points="386.2562,-509.7102 379.2073,-517.62 389.6503,-515.8324 386.2562,-509.7102"/>
</g>
<!-- Node59047&#45;&gt;Node58994 -->
<g id="edge17" class="edge">
<title>Node59047&#45;&gt;Node58994</title>
<path fill="none" stroke="#191970" d="M505.3055,-344.3222C537.4406,-370.4517 599.9717,-421.2967 626.0892,-442.5332"/>
<polygon fill="#191970" stroke="#191970" points="507.4333,-341.5414 497.4664,-337.9482 503.0172,-346.9726 507.4333,-341.5414"/>
</g>
<!-- Node59047&#45;&gt;Node59013 -->
<g id="edge16" class="edge">
<title>Node59047&#45;&gt;Node59013</title>
<path fill="none" stroke="#191970" d="M526.345,-337.5741C581.7203,-350.2583 680.1055,-372.7944 736.0475,-385.6085"/>
<polygon fill="#191970" stroke="#191970" points="527.0548,-334.146 516.5257,-335.3248 525.4918,-340.9693 527.0548,-334.146"/>
</g>
<!-- Node59001 -->
<g id="node12" class="node">
<title>Node59001</title>
<g id="a_node12"><a xlink:href="quickjs_8c.html#a9d844c16dcc71701436848074337d32c" target="_top" xlink:title="js_parse_statement\l_or_decl">
<polygon fill="none" stroke="#ff0000" points="587,-244.2181 587,-274.2181 689,-274.2181 689,-244.2181 587,-244.2181"/>
<text text-anchor="start" x="595" y="-262.2181" font-family="Helvetica,sans-Serif" font-size="10.00" fill="#000000">js_parse_statement</text>
<text text-anchor="middle" x="638" y="-251.2181" font-family="Helvetica,sans-Serif" font-size="10.00" fill="#000000">_or_decl</text>
</a>
</g>
</g>
<!-- Node59047&#45;&gt;Node59001 -->
<g id="edge14" class="edge">
<title>Node59047&#45;&gt;Node59001</title>
<path fill="none" stroke="#191970" d="M515.9527,-314.4395C541.6013,-302.8346 578.2322,-286.2606 604.6628,-274.3018"/>
<polygon fill="#191970" stroke="#191970" points="514.3725,-311.3128 506.7045,-318.6239 517.2581,-317.6904 514.3725,-311.3128"/>
</g>
<!-- Node59001&#45;&gt;Node59001 -->
<g id="edge15" class="edge">
<title>Node59001&#45;&gt;Node59001</title>
<path fill="none" stroke="#191970" d="M613.1237,-284.676C616.2112,-289.3971 624.5033,-292.7181 638,-292.7181 660.1484,-292.7181 668.2811,-283.7747 662.3979,-274.3771"/>
<polygon fill="#191970" stroke="#191970" points="616.6342,-284.5288 613.6021,-274.3771 609.6418,-284.2039 616.6342,-284.5288"/>
</g>
<!-- Node59050 -->
<g id="node14" class="node">
<title>Node59050</title>
<g id="a_node14"><a xlink:href="quickjs_8c.html#aa24f7964f6d938a05c3c3c03af5a01e9" target="_top" xlink:title="js_parse_import">
<polygon fill="none" stroke="#ff0000" points="300,-423.7181 300,-442.7181 386,-442.7181 386,-423.7181 300,-423.7181"/>
<text text-anchor="middle" x="343" y="-430.7181" font-family="Helvetica,sans-Serif" font-size="10.00" fill="#000000">js_parse_import</text>
</a>
</g>
</g>
<!-- Node59049&#45;&gt;Node59050 -->
<g id="edge20" class="edge">
<title>Node59049&#45;&gt;Node59050</title>
<path fill="none" stroke="#191970" d="M230.3118,-433.2181C251.9443,-433.2181 278.1327,-433.2181 299.8169,-433.2181"/>
<polygon fill="#191970" stroke="#191970" points="230.0979,-429.7182 220.0979,-433.2181 230.0979,-436.7182 230.0979,-429.7182"/>
</g>
<!-- Node59051&#45;&gt;Node59013 -->
<g id="edge22" class="edge">
<title>Node59051&#45;&gt;Node59013</title>
<path fill="none" stroke="#191970" d="M255.2114,-395.2181C377.7891,-395.2181 633.1786,-395.2181 734.8688,-395.2181"/>
<polygon fill="#191970" stroke="#191970" points="255.1948,-391.7182 245.1948,-395.2181 255.1947,-398.7182 255.1948,-391.7182"/>
</g>
<!-- Node59051&#45;&gt;Node59050 -->
<g id="edge23" class="edge">
<title>Node59051&#45;&gt;Node59050</title>
<path fill="none" stroke="#191970" d="M236.4742,-407.1861C258.2652,-412.5112 283.5672,-418.6943 304.043,-423.698"/>
<polygon fill="#191970" stroke="#191970" points="237.2843,-403.7811 226.7392,-404.8071 235.6225,-410.581 237.2843,-403.7811"/>
</g>
<!-- Node59053 -->
<g id="node17" class="node">
<title>Node59053</title>
<g id="a_node17"><a xlink:href="quickjs_8c.html#a9796602fa908587aec571ec952dab68e" target="_top" xlink:title="js_resolve_export1">
<polygon fill="none" stroke="#ff0000" points="294,-461.7181 294,-480.7181 392,-480.7181 392,-461.7181 294,-461.7181"/>
<text text-anchor="middle" x="343" y="-468.7181" font-family="Helvetica,sans-Serif" font-size="10.00" fill="#000000">js_resolve_export1</text>
</a>
</g>
</g>
<!-- Node59052&#45;&gt;Node59053 -->
<g id="edge25" class="edge">
<title>Node59052&#45;&gt;Node59053</title>
<path fill="none" stroke="#191970" d="M246.0186,-471.2181C261.7862,-471.2181 278.6798,-471.2181 293.8772,-471.2181"/>
<polygon fill="#191970" stroke="#191970" points="245.8488,-467.7182 235.8488,-471.2181 245.8487,-474.7182 245.8488,-467.7182"/>
</g>
<!-- Node59053&#45;&gt;Node59053 -->
<g id="edge26" class="edge">
<title>Node59053&#45;&gt;Node59053</title>
<path fill="none" stroke="#191970" d="M316.4941,-489.872C317.6021,-495.1549 326.4374,-499.2181 343,-499.2181 368.2383,-499.2181 375.5337,-489.7834 364.8863,-480.9752"/>
<polygon fill="#191970" stroke="#191970" points="319.6117,-491.463 321.1137,-480.9752 313.3992,-488.2373 319.6117,-491.463"/>
</g>
<!-- Node59623&#45;&gt;Node59013 -->
<g id="edge28" class="edge">
<title>Node59623&#45;&gt;Node59013</title>
<path fill="none" stroke="#191970" d="M647.0631,-123.0564C674.0475,-179.1453 753.2353,-343.7428 773.3245,-385.4996"/>
<polygon fill="#191970" stroke="#191970" points="650.1474,-121.3942 642.6581,-113.9002 643.8395,-124.429 650.1474,-121.3942"/>
</g>
<!-- Node59624&#45;&gt;Node58994 -->
<g id="edge45" class="edge">
<title>Node59624&#45;&gt;Node58994</title>
<path fill="none" stroke="#191970" d="M201.3291,-241.7157C219.8338,-264.0934 254.6734,-302.7504 292,-326.2181 391.447,-388.7415 526.3919,-426.4247 594.6409,-442.7149"/>
<polygon fill="#191970" stroke="#191970" points="203.8748,-239.2981 194.8559,-233.7384 198.4392,-243.7089 203.8748,-239.2981"/>
</g>
<!-- Node59624&#45;&gt;Node59047 -->
<g id="edge38" class="edge">
<title>Node59624&#45;&gt;Node59047</title>
<path fill="none" stroke="#191970" d="M204.5956,-240.7933C224.06,-258.6076 257.6346,-286.2424 292,-300.2181 346.2391,-322.276 415.2401,-327.3207 454.4821,-328.2648"/>
<polygon fill="#191970" stroke="#191970" points="206.8485,-238.108 197.1564,-233.8283 202.0642,-243.2179 206.8485,-238.108"/>
</g>
<!-- Node59624&#45;&gt;Node59001 -->
<g id="edge39" class="edge">
<title>Node59624&#45;&gt;Node59001</title>
<path fill="none" stroke="#191970" d="M223.0058,-226.9766C302.4115,-233.1457 494.6014,-248.0773 586.8819,-255.2467"/>
<polygon fill="#191970" stroke="#191970" points="223.2527,-223.4853 213.0116,-226.2001 222.7104,-230.4643 223.2527,-223.4853"/>
</g>
<!-- Node59625 -->
<g id="node20" class="node">
<title>Node59625</title>
<g id="a_node20"><a xlink:href="quickjs_8c.html#a9a006fc2eb9bbbc399c396d7a1e8d18b" target="_top" xlink:title="add_scope_var">
<polygon fill="none" stroke="#ff0000" points="301.5,-271.7181 301.5,-290.7181 384.5,-290.7181 384.5,-271.7181 301.5,-271.7181"/>
<text text-anchor="middle" x="343" y="-278.7181" font-family="Helvetica,sans-Serif" font-size="10.00" fill="#000000">add_scope_var</text>
</a>
</g>
</g>
<!-- Node59624&#45;&gt;Node59625 -->
<g id="edge30" class="edge">
<title>Node59624&#45;&gt;Node59625</title>
<path fill="none" stroke="#191970" d="M222.8112,-237.1617C251.4705,-247.6671 291.2212,-262.2381 317.0248,-271.6966"/>
<polygon fill="#191970" stroke="#191970" points="223.7714,-233.786 213.1777,-233.6305 221.3622,-240.3584 223.7714,-233.786"/>
</g>
<!-- Node59627 -->
<g id="node21" class="node">
<title>Node59627</title>
<g id="a_node21"><a xlink:href="quickjs_8c.html#afe834031fad358f2fbd7d71cfe8ac19c" target="_top" xlink:title="add_func_var">
<polygon fill="none" stroke="#ff0000" points="305.5,-195.7181 305.5,-214.7181 380.5,-214.7181 380.5,-195.7181 305.5,-195.7181"/>
<text text-anchor="middle" x="343" y="-202.7181" font-family="Helvetica,sans-Serif" font-size="10.00" fill="#000000">add_func_var</text>
</a>
</g>
</g>
<!-- Node59624&#45;&gt;Node59627 -->
<g id="edge32" class="edge">
<title>Node59624&#45;&gt;Node59627</title>
<path fill="none" stroke="#191970" d="M223.1737,-219.8593C247.7509,-216.8562 280.3553,-212.8724 305.3485,-209.8186"/>
<polygon fill="#191970" stroke="#191970" points="222.6793,-216.3935 213.1777,-221.0806 223.5284,-223.3419 222.6793,-216.3935"/>
</g>
<!-- Node59038 -->
<g id="node22" class="node">
<title>Node59038</title>
<g id="a_node22"><a xlink:href="quickjs_8c.html#a3d84c0bab25b37dbac0b6f3aa7b93e59" target="_top" xlink:title="add_eval_variables">
<polygon fill="none" stroke="#ff0000" points="435.5,-119.7181 435.5,-138.7181 535.5,-138.7181 535.5,-119.7181 435.5,-119.7181"/>
<text text-anchor="middle" x="485.5" y="-126.7181" font-family="Helvetica,sans-Serif" font-size="10.00" fill="#000000">add_eval_variables</text>
</a>
</g>
</g>
<!-- Node59624&#45;&gt;Node59038 -->
<g id="edge44" class="edge">
<title>Node59624&#45;&gt;Node59038</title>
<path fill="none" stroke="#191970" d="M222.7433,-212.1266C233.4507,-208.3841 245.2308,-204.1974 256,-200.2181 272.1031,-194.2679 275.7517,-191.7596 292,-186.2181 346.5256,-167.622 410.8747,-149.3891 449.9086,-138.7311"/>
<polygon fill="#191970" stroke="#191970" points="221.5672,-208.83 213.2713,-215.4201 223.8661,-215.4417 221.5672,-208.83"/>
</g>
<!-- Node59628 -->
<g id="node23" class="node">
<title>Node59628</title>
<g id="a_node23"><a xlink:href="quickjs_8c.html#a868100a32a3062ab6365985bb5c02b7d" target="_top" xlink:title="add_arguments_var">
<polygon fill="none" stroke="#ff0000" points="292,-119.7181 292,-138.7181 394,-138.7181 394,-119.7181 292,-119.7181"/>
<text text-anchor="middle" x="343" y="-126.7181" font-family="Helvetica,sans-Serif" font-size="10.00" fill="#000000">add_arguments_var</text>
</a>
</g>
</g>
<!-- Node59624&#45;&gt;Node59628 -->
<g id="edge34" class="edge">
<title>Node59624&#45;&gt;Node59628</title>
<path fill="none" stroke="#191970" d="M222.88,-216.1195C234.1463,-212.456 246.214,-207.3095 256,-200.2181 277.3064,-184.7784 271.5154,-169.7325 292,-153.2181 299.2373,-147.3835 308.1264,-142.5742 316.4447,-138.8327"/>
<polygon fill="#191970" stroke="#191970" points="221.8569,-212.7722 213.2631,-218.9688 223.8454,-219.4838 221.8569,-212.7722"/>
</g>
<!-- Node59629 -->
<g id="node24" class="node">
<title>Node59629</title>
<g id="a_node24"><a xlink:href="quickjs_8c.html#a2bfa1a7eb92eca442a25cf6726a0b19d" target="_top" xlink:title="add_arguments_arg">
<polygon fill="none" stroke="#000000" points="292,-81.7181 292,-100.7181 394,-100.7181 394,-81.7181 292,-81.7181"/>
<text text-anchor="middle" x="343" y="-88.7181" font-family="Helvetica,sans-Serif" font-size="10.00" fill="#000000">add_arguments_arg</text>
</a>
</g>
</g>
<!-- Node59624&#45;&gt;Node59629 -->
<g id="edge36" class="edge">
<title>Node59624&#45;&gt;Node59629</title>
<path fill="none" stroke="#191970" d="M223.0229,-217.9443C234.7031,-214.3893 246.9889,-208.8454 256,-200.2181 287.1185,-170.4248 261.1753,-140.3152 292,-110.2181 295.9887,-106.3235 300.8478,-103.2149 305.9642,-100.7369"/>
<polygon fill="#191970" stroke="#191970" points="221.7891,-214.6499 213.012,-220.584 223.5739,-221.4186 221.7891,-214.6499"/>
</g>
<!-- Node59630 -->
<g id="node25" class="node">
<title>Node59630</title>
<g id="a_node25"><a xlink:href="quickjs_8c.html#a237c9785e84b9382c476ee0868edb117" target="_top" xlink:title="add_var_this">
<polygon fill="none" stroke="#000000" points="307,-43.7181 307,-62.7181 379,-62.7181 379,-43.7181 307,-43.7181"/>
<text text-anchor="middle" x="343" y="-50.7181" font-family="Helvetica,sans-Serif" font-size="10.00" fill="#000000">add_var_this</text>
</a>
</g>
</g>
<!-- Node59624&#45;&gt;Node59630 -->
<g id="edge40" class="edge">
<title>Node59624&#45;&gt;Node59630</title>
<path fill="none" stroke="#191970" d="M222.9222,-218.6582C234.8417,-215.1639 247.3065,-209.4757 256,-200.2181 296.454,-157.1389 251.9705,-115.6921 292,-72.2181 296.0961,-67.7695 301.3317,-64.3577 306.8809,-61.7424"/>
<polygon fill="#191970" stroke="#191970" points="221.9841,-215.285 213.1328,-221.1077 223.6833,-222.0756 221.9841,-215.285"/>
</g>
<!-- Node59631 -->
<g id="node26" class="node">
<title>Node59631</title>
<g id="a_node26"><a xlink:href="quickjs_8c.html#a0b2f53f86b03dc687031b5092d8069cf" target="_top" xlink:title="resolve_pseudo_var">
<polygon fill="none" stroke="#ff0000" points="433.5,-24.7181 433.5,-43.7181 537.5,-43.7181 537.5,-24.7181 433.5,-24.7181"/>
<text text-anchor="middle" x="485.5" y="-31.7181" font-family="Helvetica,sans-Serif" font-size="10.00" fill="#000000">resolve_pseudo_var</text>
</a>
</g>
</g>
<!-- Node59624&#45;&gt;Node59631 -->
<g id="edge43" class="edge">
<title>Node59624&#45;&gt;Node59631</title>
<path fill="none" stroke="#191970" d="M222.9581,-219.0242C234.9941,-215.5669 247.5258,-209.8086 256,-200.2181 305.9872,-143.6457 233.2333,-81.6063 292,-34.2181 339.7251,4.2664 417.7439,-12.1196 458.6097,-24.7011"/>
<polygon fill="#191970" stroke="#191970" points="221.9593,-215.6649 213.0644,-221.4208 223.6073,-222.4681 221.9593,-215.6649"/>
</g>
<!-- Node59625&#45;&gt;Node59047 -->
<g id="edge31" class="edge">
<title>Node59625&#45;&gt;Node59047</title>
<path fill="none" stroke="#191970" d="M381.5017,-293.9169C405.0172,-301.6729 434.6153,-311.4351 456.2168,-318.5598"/>
<polygon fill="#191970" stroke="#191970" points="382.4301,-290.5377 371.837,-290.7292 380.2375,-297.1855 382.4301,-290.5377"/>
</g>
<!-- Node59627&#45;&gt;Node59038 -->
<g id="edge33" class="edge">
<title>Node59627&#45;&gt;Node59038</title>
<path fill="none" stroke="#191970" d="M373.7755,-191.2029C380.4889,-188.016 387.5211,-184.5772 394,-181.2181 420.9267,-167.2574 451.4059,-149.5374 469.5086,-138.8036"/>
<polygon fill="#191970" stroke="#191970" points="371.842,-188.2435 364.2694,-195.6534 374.81,-194.5831 371.842,-188.2435"/>
</g>
<!-- Node59628&#45;&gt;Node59038 -->
<g id="edge35" class="edge">
<title>Node59628&#45;&gt;Node59038</title>
<path fill="none" stroke="#191970" d="M404.2679,-129.2181C414.6214,-129.2181 425.2618,-129.2181 435.2911,-129.2181"/>
<polygon fill="#191970" stroke="#191970" points="404.0433,-125.7182 394.0433,-129.2181 404.0432,-132.7182 404.0433,-125.7182"/>
</g>
<!-- Node59629&#45;&gt;Node59038 -->
<g id="edge37" class="edge">
<title>Node59629&#45;&gt;Node59038</title>
<path fill="none" stroke="#191970" d="M388.6531,-103.3923C408.3577,-108.6468 431.0747,-114.7047 449.5527,-119.6322"/>
<polygon fill="#191970" stroke="#191970" points="389.523,-100.002 378.9588,-100.8071 387.7193,-106.7656 389.523,-100.002"/>
</g>
<!-- Node59630&#45;&gt;Node59038 -->
<g id="edge42" class="edge">
<title>Node59630&#45;&gt;Node59038</title>
<path fill="none" stroke="#191970" d="M381.2368,-66.504C385.5958,-68.3002 389.9311,-70.218 394,-72.2181 423.0572,-86.5014 454.628,-107.5107 472.0453,-119.6325"/>
<polygon fill="#191970" stroke="#191970" points="382.3383,-63.1765 371.7508,-62.7817 379.7813,-69.6927 382.3383,-63.1765"/>
</g>
<!-- Node59630&#45;&gt;Node59631 -->
<g id="edge41" class="edge">
<title>Node59630&#45;&gt;Node59631</title>
<path fill="none" stroke="#191970" d="M389.2806,-47.0473C403.3627,-45.1697 418.9344,-43.0935 433.3744,-41.1682"/>
<polygon fill="#191970" stroke="#191970" points="388.7772,-43.5834 379.3275,-48.3744 389.7024,-50.522 388.7772,-43.5834"/>
</g>
<!-- Node59635&#45;&gt;Node59635 -->
<g id="edge48" class="edge">
<title>Node59635&#45;&gt;Node59635</title>
<path fill="none" stroke="#191970" d="M160.2475,-110.872C161.3867,-116.1549 170.4708,-120.2181 187.5,-120.2181 213.4492,-120.2181 220.9502,-110.7834 210.0028,-101.9752"/>
<polygon fill="#191970" stroke="#191970" points="163.3752,-112.4451 164.9972,-101.9752 157.2001,-109.1484 163.3752,-112.4451"/>
</g>
</g>
</svg>
