<?xml version="1.0" encoding="UTF-8" standalone="no"?>
<!DOCTYPE svg PUBLIC "-//W3C//DTD SVG 1.1//EN"
 "http://www.w3.org/Graphics/SVG/1.1/DTD/svg11.dtd">
<!-- Generated by graphviz version 2.40.1 (20161225.0304)
 -->
<!-- Title: JS_AddIntrinsicEval Pages: 1 -->
<svg width="695pt" height="913pt"
 viewBox="0.00 0.00 695.00 912.84" xmlns="http://www.w3.org/2000/svg" xmlns:xlink="http://www.w3.org/1999/xlink">
<g id="graph0" class="graph" transform="scale(1 1) rotate(0) translate(4 908.8422)">
<title>JS_AddIntrinsicEval</title>
<!-- Node477238 -->
<g id="node1" class="node">
<title>Node477238</title>
<polygon fill="#bfbfbf" stroke="#000000" points="0,-341.5 0,-360.5 105,-360.5 105,-341.5 0,-341.5"/>
<text text-anchor="middle" x="52.5" y="-348.5" font-family="Helvetica,sans-Serif" font-size="10.00" fill="#000000">JS_AddIntrinsicEval</text>
</g>
<!-- Node477239 -->
<g id="node2" class="node">
<title>Node477239</title>
<g id="a_node2"><a xlink:href="quickjs_8c.html#a46a8a7e155cfd0af984f6725f060f0d6" target="_top" xlink:title="__JS_EvalInternal">
<polygon fill="none" stroke="#000000" points="141,-341.5 141,-360.5 237,-360.5 237,-341.5 141,-341.5"/>
<text text-anchor="middle" x="189" y="-348.5" font-family="Helvetica,sans-Serif" font-size="10.00" fill="#000000">__JS_EvalInternal</text>
</a>
</g>
</g>
<!-- Node477238&#45;&gt;Node477239 -->
<g id="edge1" class="edge">
<title>Node477238&#45;&gt;Node477239</title>
<path fill="none" stroke="#191970" d="M105.2745,-351C113.5948,-351 122.2391,-351 130.6766,-351"/>
<polygon fill="#191970" stroke="#191970" points="130.8302,-354.5001 140.8302,-351 130.8302,-347.5001 130.8302,-354.5001"/>
</g>
<!-- Node477240 -->
<g id="node3" class="node">
<title>Node477240</title>
<g id="a_node3"><a xlink:href="quickjs_8c.html#a7949e036beb1ce2a2ce1337539536166" target="_top" xlink:title="add_closure_variables">
<polygon fill="none" stroke="#000000" points="278,-872.5 278,-891.5 391,-891.5 391,-872.5 278,-872.5"/>
<text text-anchor="middle" x="334.5" y="-879.5" font-family="Helvetica,sans-Serif" font-size="10.00" fill="#000000">add_closure_variables</text>
</a>
</g>
</g>
<!-- Node477239&#45;&gt;Node477240 -->
<g id="edge2" class="edge">
<title>Node477239&#45;&gt;Node477240</title>
<path fill="none" stroke="#191970" d="M189.3267,-360.5871C191.6505,-423.5034 207.5241,-777.2728 273,-858 276.0436,-861.7525 279.7525,-864.92 283.825,-867.5933"/>
<polygon fill="#191970" stroke="#191970" points="282.1493,-870.666 292.5986,-872.4158 285.5211,-864.5316 282.1493,-870.666"/>
</g>
<!-- Node477242 -->
<g id="node5" class="node">
<title>Node477242</title>
<g id="a_node5"><a xlink:href="quickjs_8c.html#abbf44eaeace1104a6bef718fbf5700fe" target="_top" xlink:title="JS_DupAtom">
<polygon fill="none" stroke="#ff0000" points="596.5,-872.5 596.5,-891.5 671.5,-891.5 671.5,-872.5 596.5,-872.5"/>
<text text-anchor="middle" x="634" y="-879.5" font-family="Helvetica,sans-Serif" font-size="10.00" fill="#000000">JS_DupAtom</text>
</a>
</g>
</g>
<!-- Node477239&#45;&gt;Node477242 -->
<g id="edge27" class="edge">
<title>Node477239&#45;&gt;Node477242</title>
<path fill="none" stroke="#191970" d="M189.8294,-360.6328C193.5256,-399.188 211.142,-545.0637 273,-644 350.5065,-767.9648 519.0182,-841.0591 595.2099,-868.9376"/>
<polygon fill="#191970" stroke="#191970" points="594.3031,-872.3309 604.8976,-872.4198 596.671,-865.7435 594.3031,-872.3309"/>
</g>
<!-- Node477245 -->
<g id="node7" class="node">
<title>Node477245</title>
<g id="a_node7"><a xlink:href="quickjs_8c.html#a7cd95e5ed87d4b27630af7944855779f" target="_top" xlink:title="free_token">
<polygon fill="none" stroke="#000000" points="457.5,-360.5 457.5,-379.5 519.5,-379.5 519.5,-360.5 457.5,-360.5"/>
<text text-anchor="middle" x="488.5" y="-367.5" font-family="Helvetica,sans-Serif" font-size="10.00" fill="#000000">free_token</text>
</a>
</g>
</g>
<!-- Node477239&#45;&gt;Node477245 -->
<g id="edge7" class="edge">
<title>Node477239&#45;&gt;Node477245</title>
<path fill="none" stroke="#191970" d="M237.1199,-354.0527C295.3735,-357.7482 392.4769,-363.9084 447.3867,-367.3918"/>
<polygon fill="#191970" stroke="#191970" points="447.2543,-370.8904 457.4559,-368.0306 447.6976,-363.9044 447.2543,-370.8904"/>
</g>
<!-- Node477283 -->
<g id="node10" class="node">
<title>Node477283</title>
<g id="a_node10"><a xlink:href="quickjs_8c.html#a76e95dd1ab1d7cb4b9407d2ad41ee119" target="_top" xlink:title="js_class_has_bytecode">
<polygon fill="none" stroke="#000000" points="275,-550.5 275,-569.5 394,-569.5 394,-550.5 275,-550.5"/>
<text text-anchor="middle" x="334.5" y="-557.5" font-family="Helvetica,sans-Serif" font-size="10.00" fill="#000000">js_class_has_bytecode</text>
</a>
</g>
</g>
<!-- Node477239&#45;&gt;Node477283 -->
<g id="edge10" class="edge">
<title>Node477239&#45;&gt;Node477283</title>
<path fill="none" stroke="#191970" d="M190.6968,-360.5317C196.5247,-390.5712 218.4539,-484.3305 273,-536 277.1084,-539.8917 281.9198,-543.175 287.0101,-545.9398"/>
<polygon fill="#191970" stroke="#191970" points="285.8464,-549.2613 296.3824,-550.3759 288.8412,-542.9342 285.8464,-549.2613"/>
</g>
<!-- Node477284 -->
<g id="node11" class="node">
<title>Node477284</title>
<g id="a_node11"><a xlink:href="quickjs_8c.html#a97fcc747d8b1c3644174745d2e2739be" target="_top" xlink:title="js_create_function">
<polygon fill="none" stroke="#ff0000" points="286.5,-597.5 286.5,-616.5 382.5,-616.5 382.5,-597.5 286.5,-597.5"/>
<text text-anchor="middle" x="334.5" y="-604.5" font-family="Helvetica,sans-Serif" font-size="10.00" fill="#000000">js_create_function</text>
</a>
</g>
</g>
<!-- Node477239&#45;&gt;Node477284 -->
<g id="edge11" class="edge">
<title>Node477239&#45;&gt;Node477284</title>
<path fill="none" stroke="#191970" d="M189.9182,-360.5915C193.6679,-394.7368 210.7186,-511.9136 273,-579 278.2132,-584.6154 284.7693,-589.188 291.6439,-592.8844"/>
<polygon fill="#191970" stroke="#191970" points="290.5861,-596.2573 301.1194,-597.3975 293.5962,-589.9375 290.5861,-596.2573"/>
</g>
<!-- Node477311 -->
<g id="node18" class="node">
<title>Node477311</title>
<g id="a_node18"><a xlink:href="quickjs_8c.html#a1b660b405f6a69b35dd871279c780ef7" target="_top" xlink:title="js_free_function_def">
<polygon fill="none" stroke="#ff0000" points="436.5,-512.5 436.5,-531.5 540.5,-531.5 540.5,-512.5 436.5,-512.5"/>
<text text-anchor="middle" x="488.5" y="-519.5" font-family="Helvetica,sans-Serif" font-size="10.00" fill="#000000">js_free_function_def</text>
</a>
</g>
</g>
<!-- Node477239&#45;&gt;Node477311 -->
<g id="edge32" class="edge">
<title>Node477239&#45;&gt;Node477311</title>
<path fill="none" stroke="#191970" d="M191.9534,-360.818C200.149,-386.2288 225.7445,-454.3693 273,-486 318.1305,-516.2083 380.1847,-523.8877 426.1171,-524.7889"/>
<polygon fill="#191970" stroke="#191970" points="426.2154,-528.2899 436.2478,-524.8839 426.2811,-521.2902 426.2154,-528.2899"/>
</g>
<!-- Node477312 -->
<g id="node19" class="node">
<title>Node477312</title>
<g id="a_node19"><a xlink:href="quickjs_8h.html#ad80a83d73e9b7d872b88fbf2943aebe9" target="_top" xlink:title="JS_IsException">
<polygon fill="none" stroke="#000000" points="445.5,-436.5 445.5,-455.5 531.5,-455.5 531.5,-436.5 445.5,-436.5"/>
<text text-anchor="middle" x="488.5" y="-443.5" font-family="Helvetica,sans-Serif" font-size="10.00" fill="#000000">JS_IsException</text>
</a>
</g>
</g>
<!-- Node477239&#45;&gt;Node477312 -->
<g id="edge36" class="edge">
<title>Node477239&#45;&gt;Node477312</title>
<path fill="none" stroke="#191970" d="M192.5829,-360.7414C201.7376,-383.9973 228.4577,-442.4924 273,-465 332.0886,-494.8579 411.9756,-474.5903 456.0052,-459.0696"/>
<polygon fill="#191970" stroke="#191970" points="457.4254,-462.277 465.6147,-455.555 455.0209,-455.7029 457.4254,-462.277"/>
</g>
<!-- Node477353 -->
<g id="node20" class="node">
<title>Node477353</title>
<g id="a_node20"><a xlink:href="quickjs_8h.html#a775522f2d084fc8fa0fcb33f390006b4" target="_top" xlink:title="JS_DupValue">
<polygon fill="none" stroke="#000000" points="296,-398.5 296,-417.5 373,-417.5 373,-398.5 296,-398.5"/>
<text text-anchor="middle" x="334.5" y="-405.5" font-family="Helvetica,sans-Serif" font-size="10.00" fill="#000000">JS_DupValue</text>
</a>
</g>
</g>
<!-- Node477239&#45;&gt;Node477353 -->
<g id="edge28" class="edge">
<title>Node477239&#45;&gt;Node477353</title>
<path fill="none" stroke="#191970" d="M213.255,-360.5455C230.0296,-367.143 252.8661,-376.1166 273,-384 281.9348,-387.4984 291.6029,-391.2754 300.5692,-394.7746"/>
<polygon fill="#191970" stroke="#191970" points="299.367,-398.0624 309.9553,-398.4362 301.9112,-391.5411 299.367,-398.0624"/>
</g>
<!-- Node477645 -->
<g id="node21" class="node">
<title>Node477645</title>
<g id="a_node21"><a xlink:href="quickjs_8c.html#a5d217acce00892ab2b50a1dcc1eb4cc8" target="_top" xlink:title="JS_EvalFunctionInternal">
<polygon fill="none" stroke="#ff0000" points="273,-436.5 273,-455.5 396,-455.5 396,-436.5 273,-436.5"/>
<text text-anchor="middle" x="334.5" y="-443.5" font-family="Helvetica,sans-Serif" font-size="10.00" fill="#000000">JS_EvalFunctionInternal</text>
</a>
</g>
</g>
<!-- Node477239&#45;&gt;Node477645 -->
<g id="edge29" class="edge">
<title>Node477239&#45;&gt;Node477645</title>
<path fill="none" stroke="#191970" d="M197.0521,-360.6219C210.9505,-376.6394 241.0401,-408.8052 273,-427 276.7147,-429.1148 280.6922,-431.0217 284.7712,-432.7358"/>
<polygon fill="#191970" stroke="#191970" points="283.8058,-436.113 294.397,-436.3922 286.2916,-429.5692 283.8058,-436.113"/>
</g>
<!-- Node477262 -->
<g id="node22" class="node">
<title>Node477262</title>
<g id="a_node22"><a xlink:href="quickjs_8c.html#a05db980a30860573f912cbeb64e99c3c" target="_top" xlink:title="js_free_module_def">
<polygon fill="none" stroke="#ff0000" points="438,-322.5 438,-341.5 539,-341.5 539,-322.5 438,-322.5"/>
<text text-anchor="middle" x="488.5" y="-329.5" font-family="Helvetica,sans-Serif" font-size="10.00" fill="#000000">js_free_module_def</text>
</a>
</g>
</g>
<!-- Node477239&#45;&gt;Node477262 -->
<g id="edge33" class="edge">
<title>Node477239&#45;&gt;Node477262</title>
<path fill="none" stroke="#191970" d="M237.1199,-347.9473C288.9567,-344.6588 371.5557,-339.4188 427.8135,-335.8499"/>
<polygon fill="#191970" stroke="#191970" points="428.2399,-339.33 437.9982,-335.2038 427.7967,-332.344 428.2399,-339.33"/>
</g>
<!-- Node477735 -->
<g id="node23" class="node">
<title>Node477735</title>
<g id="a_node23"><a xlink:href="quickjs_8c.html#a8020fd59ed57f7f299216ec1ebfcda01" target="_top" xlink:title="js_new_function_def">
<polygon fill="none" stroke="#ff0000" points="281.5,-208.5 281.5,-227.5 387.5,-227.5 387.5,-208.5 281.5,-208.5"/>
<text text-anchor="middle" x="334.5" y="-215.5" font-family="Helvetica,sans-Serif" font-size="10.00" fill="#000000">js_new_function_def</text>
</a>
</g>
</g>
<!-- Node477239&#45;&gt;Node477735 -->
<g id="edge37" class="edge">
<title>Node477239&#45;&gt;Node477735</title>
<path fill="none" stroke="#191970" d="M193.9804,-341.4356C205.3001,-320.5615 234.9554,-270.5121 273,-242 278.4843,-237.8899 284.762,-234.3904 291.1632,-231.4406"/>
<polygon fill="#191970" stroke="#191970" points="292.6827,-234.5987 300.5521,-227.5048 289.9765,-228.143 292.6827,-234.5987"/>
</g>
<!-- Node477656 -->
<g id="node24" class="node">
<title>Node477656</title>
<g id="a_node24"><a xlink:href="quickjs_8c.html#aa2ef5af1544a3012f91a80c98c326b8f" target="_top" xlink:title="JS_NewAtom">
<polygon fill="none" stroke="#ff0000" points="450,-227.5 450,-246.5 527,-246.5 527,-227.5 450,-227.5"/>
<text text-anchor="middle" x="488.5" y="-234.5" font-family="Helvetica,sans-Serif" font-size="10.00" fill="#000000">JS_NewAtom</text>
</a>
</g>
</g>
<!-- Node477239&#45;&gt;Node477656 -->
<g id="edge41" class="edge">
<title>Node477239&#45;&gt;Node477656</title>
<path fill="none" stroke="#191970" d="M204.6778,-341.4839C221.2398,-331.7002 248.3229,-316.4577 273,-306 329.7103,-281.9671 397.7891,-261.4905 442.0394,-249.2288"/>
<polygon fill="#191970" stroke="#191970" points="443.2121,-252.5365 451.9296,-246.5151 441.3599,-245.7859 443.2121,-252.5365"/>
</g>
<!-- Node477736 -->
<g id="node25" class="node">
<title>Node477736</title>
<g id="a_node25"><a xlink:href="quickjs_8c.html#a882c4281596de628ebd966718888e30a" target="_top" xlink:title="js_new_module_def">
<polygon fill="none" stroke="#ff0000" points="437,-284.5 437,-303.5 540,-303.5 540,-284.5 437,-284.5"/>
<text text-anchor="middle" x="488.5" y="-291.5" font-family="Helvetica,sans-Serif" font-size="10.00" fill="#000000">js_new_module_def</text>
</a>
</g>
</g>
<!-- Node477239&#45;&gt;Node477736 -->
<g id="edge39" class="edge">
<title>Node477239&#45;&gt;Node477736</title>
<path fill="none" stroke="#191970" d="M235.6262,-341.4243C247.7844,-338.9656 260.8764,-336.3518 273,-334 324.7021,-323.9706 383.4889,-313.0941 426.5875,-305.2179"/>
<polygon fill="#191970" stroke="#191970" points="427.4297,-308.6221 436.6388,-303.3835 426.1729,-301.7359 427.4297,-308.6221"/>
</g>
<!-- Node477737 -->
<g id="node26" class="node">
<title>Node477737</title>
<g id="a_node26"><a xlink:href="quickjs_8c.html#a317ecdd2a00184939feb6a0b3df79b2b" target="_top" xlink:title="js_parse_init">
<polygon fill="none" stroke="#000000" points="299,-170.5 299,-189.5 370,-189.5 370,-170.5 299,-170.5"/>
<text text-anchor="middle" x="334.5" y="-177.5" font-family="Helvetica,sans-Serif" font-size="10.00" fill="#000000">js_parse_init</text>
</a>
</g>
</g>
<!-- Node477239&#45;&gt;Node477737 -->
<g id="edge42" class="edge">
<title>Node477239&#45;&gt;Node477737</title>
<path fill="none" stroke="#191970" d="M191.6205,-341.146C199.3017,-314.1822 224.3463,-238.5692 273,-199 277.721,-195.1605 283.2161,-192.0948 288.9424,-189.6473"/>
<polygon fill="#191970" stroke="#191970" points="290.5084,-192.8016 298.7019,-186.0847 288.108,-186.2261 290.5084,-192.8016"/>
</g>
<!-- Node477738 -->
<g id="node27" class="node">
<title>Node477738</title>
<g id="a_node27"><a xlink:href="quickjs_8c.html#aec05caae64451720670d1a56040110b3" target="_top" xlink:title="js_parse_program">
<polygon fill="none" stroke="#ff0000" points="287.5,-132.5 287.5,-151.5 381.5,-151.5 381.5,-132.5 287.5,-132.5"/>
<text text-anchor="middle" x="334.5" y="-139.5" font-family="Helvetica,sans-Serif" font-size="10.00" fill="#000000">js_parse_program</text>
</a>
</g>
</g>
<!-- Node477239&#45;&gt;Node477738 -->
<g id="edge43" class="edge">
<title>Node477239&#45;&gt;Node477738</title>
<path fill="none" stroke="#191970" d="M190.3848,-341.4783C195.3807,-310.6038 215.3367,-212.3019 273,-161 274.7637,-159.4308 276.6552,-157.9913 278.6412,-156.6706"/>
<polygon fill="#191970" stroke="#191970" points="280.7743,-159.4921 287.8523,-151.6084 277.4028,-153.3575 280.7743,-159.4921"/>
</g>
<!-- Node477657 -->
<g id="node28" class="node">
<title>Node477657</title>
<g id="a_node28"><a xlink:href="quickjs_8c.html#a041f16b68daf31525cd76aa4794073ef" target="_top" xlink:title="js_resolve_module">
<polygon fill="none" stroke="#ff0000" points="285.5,-76.5 285.5,-95.5 383.5,-95.5 383.5,-76.5 285.5,-76.5"/>
<text text-anchor="middle" x="334.5" y="-83.5" font-family="Helvetica,sans-Serif" font-size="10.00" fill="#000000">js_resolve_module</text>
</a>
</g>
</g>
<!-- Node477239&#45;&gt;Node477657 -->
<g id="edge44" class="edge">
<title>Node477239&#45;&gt;Node477657</title>
<path fill="none" stroke="#191970" d="M190.2578,-341.1827C195.0504,-307.2575 214.9237,-193.2114 273,-123 280.7397,-113.6431 291.499,-106.0482 301.8573,-100.2299"/>
<polygon fill="#191970" stroke="#191970" points="303.5274,-103.3063 310.7709,-95.5744 300.2867,-97.1016 303.5274,-103.3063"/>
</g>
<!-- Node477832 -->
<g id="node29" class="node">
<title>Node477832</title>
<g id="a_node29"><a xlink:href="quickjs_8c.html#a7d087e9b184f7e0369bab54aafb1c36d" target="_top" xlink:title="push_scope">
<polygon fill="none" stroke="#ff0000" points="300,-38.5 300,-57.5 369,-57.5 369,-38.5 300,-38.5"/>
<text text-anchor="middle" x="334.5" y="-45.5" font-family="Helvetica,sans-Serif" font-size="10.00" fill="#000000">push_scope</text>
</a>
</g>
</g>
<!-- Node477239&#45;&gt;Node477832 -->
<g id="edge46" class="edge">
<title>Node477239&#45;&gt;Node477832</title>
<path fill="none" stroke="#191970" d="M190.6085,-341.3253C198.266,-296.3488 232.3455,-108.148 273,-67 277.8021,-62.1397 283.8183,-58.5171 290.1949,-55.8184"/>
<polygon fill="#191970" stroke="#191970" points="291.416,-59.0993 299.6957,-52.489 289.1008,-52.4932 291.416,-59.0993"/>
</g>
<!-- Node477858 -->
<g id="node30" class="node">
<title>Node477858</title>
<g id="a_node30"><a xlink:href="quickjs_8c.html#a20ece19ce8f97880a19f0711a8c2aba2" target="_top" xlink:title="skip_shebang">
<polygon fill="none" stroke="#ff0000" points="296,-.5 296,-19.5 373,-19.5 373,-.5 296,-.5"/>
<text text-anchor="middle" x="334.5" y="-7.5" font-family="Helvetica,sans-Serif" font-size="10.00" fill="#000000">skip_shebang</text>
</a>
</g>
</g>
<!-- Node477239&#45;&gt;Node477858 -->
<g id="edge47" class="edge">
<title>Node477239&#45;&gt;Node477858</title>
<path fill="none" stroke="#191970" d="M190.2447,-341.3641C196.6843,-292.915 227.6749,-76.3863 273,-29 276.8139,-25.0127 281.4444,-21.8566 286.4345,-19.3595"/>
<polygon fill="#191970" stroke="#191970" points="287.7941,-22.5849 295.7067,-15.5392 285.1274,-16.1127 287.7941,-22.5849"/>
</g>
<!-- Node477241 -->
<g id="node4" class="node">
<title>Node477241</title>
<g id="a_node4"><a xlink:href="quickjs_8c.html#aba57c133967ae980c5b76b796eaafeac" target="_top" xlink:title="is_var_in_arg_scope">
<polygon fill="none" stroke="#000000" points="581,-777.5 581,-796.5 687,-796.5 687,-777.5 581,-777.5"/>
<text text-anchor="middle" x="634" y="-784.5" font-family="Helvetica,sans-Serif" font-size="10.00" fill="#000000">is_var_in_arg_scope</text>
</a>
</g>
</g>
<!-- Node477240&#45;&gt;Node477241 -->
<g id="edge3" class="edge">
<title>Node477240&#45;&gt;Node477241</title>
<path fill="none" stroke="#191970" d="M364.5885,-872.4561C418.968,-855.2071 533.5914,-818.8491 594.3115,-799.589"/>
<polygon fill="#191970" stroke="#191970" points="595.4578,-802.8973 603.9315,-796.5376 593.3413,-796.225 595.4578,-802.8973"/>
</g>
<!-- Node477240&#45;&gt;Node477242 -->
<g id="edge4" class="edge">
<title>Node477240&#45;&gt;Node477242</title>
<path fill="none" stroke="#191970" d="M374.0937,-891.5104C391.7091,-895.2755 412.7744,-899.1442 432,-901 481.9899,-905.8254 495.0552,-906.2718 545,-901 559.0232,-899.5198 574.086,-896.7624 587.7591,-893.7981"/>
<polygon fill="#191970" stroke="#191970" points="588.9196,-897.1243 597.9038,-891.5088 587.3786,-890.2961 588.9196,-897.1243"/>
</g>
<!-- Node477244 -->
<g id="node6" class="node">
<title>Node477244</title>
<g id="a_node6"><a xlink:href="quickjs_8c.html#aa4bf422fda79761502d4d52e13c3162e" target="_top" xlink:title="set_closure_from_var">
<polygon fill="none" stroke="#000000" points="433.5,-872.5 433.5,-891.5 543.5,-891.5 543.5,-872.5 433.5,-872.5"/>
<text text-anchor="middle" x="488.5" y="-879.5" font-family="Helvetica,sans-Serif" font-size="10.00" fill="#000000">set_closure_from_var</text>
</a>
</g>
</g>
<!-- Node477240&#45;&gt;Node477244 -->
<g id="edge5" class="edge">
<title>Node477240&#45;&gt;Node477244</title>
<path fill="none" stroke="#191970" d="M391.4064,-882C401.7952,-882 412.7088,-882 423.3159,-882"/>
<polygon fill="#191970" stroke="#191970" points="423.3646,-885.5001 433.3646,-882 423.3646,-878.5001 423.3646,-885.5001"/>
</g>
<!-- Node477244&#45;&gt;Node477242 -->
<g id="edge6" class="edge">
<title>Node477244&#45;&gt;Node477242</title>
<path fill="none" stroke="#191970" d="M543.5073,-882C557.4873,-882 572.3982,-882 585.9989,-882"/>
<polygon fill="#191970" stroke="#191970" points="586.107,-885.5001 596.107,-882 586.1069,-878.5001 586.107,-885.5001"/>
</g>
<!-- Node477246 -->
<g id="node8" class="node">
<title>Node477246</title>
<g id="a_node8"><a xlink:href="quickjs_8c.html#ab7fc45a99935a1c0ba50b0216d9401a9" target="_top" xlink:title="JS_FreeAtom">
<polygon fill="none" stroke="#ff0000" points="595.5,-360.5 595.5,-379.5 672.5,-379.5 672.5,-360.5 595.5,-360.5"/>
<text text-anchor="middle" x="634" y="-367.5" font-family="Helvetica,sans-Serif" font-size="10.00" fill="#000000">JS_FreeAtom</text>
</a>
</g>
</g>
<!-- Node477245&#45;&gt;Node477246 -->
<g id="edge8" class="edge">
<title>Node477245&#45;&gt;Node477246</title>
<path fill="none" stroke="#191970" d="M519.7134,-370C538.816,-370 563.6645,-370 585.3106,-370"/>
<polygon fill="#191970" stroke="#191970" points="585.3184,-373.5001 595.3184,-370 585.3183,-366.5001 585.3184,-373.5001"/>
</g>
<!-- Node477251 -->
<g id="node9" class="node">
<title>Node477251</title>
<g id="a_node9"><a xlink:href="quickjs_8h.html#afaa20c47565bc704c6c85f3d77254e7d" target="_top" xlink:title="JS_FreeValue">
<polygon fill="none" stroke="#ff0000" points="595,-398.5 595,-417.5 673,-417.5 673,-398.5 595,-398.5"/>
<text text-anchor="middle" x="634" y="-405.5" font-family="Helvetica,sans-Serif" font-size="10.00" fill="#000000">JS_FreeValue</text>
</a>
</g>
</g>
<!-- Node477245&#45;&gt;Node477251 -->
<g id="edge9" class="edge">
<title>Node477245&#45;&gt;Node477251</title>
<path fill="none" stroke="#191970" d="M519.7134,-378.152C539.4817,-383.3148 565.4035,-390.0848 587.5616,-395.8718"/>
<polygon fill="#191970" stroke="#191970" points="586.882,-399.3116 597.442,-398.4522 588.6509,-392.5388 586.882,-399.3116"/>
</g>
<!-- Node477284&#45;&gt;Node477246 -->
<g id="edge25" class="edge">
<title>Node477284&#45;&gt;Node477246</title>
<path fill="none" stroke="#191970" d="M366.5024,-597.3879C376.8769,-593.062 387.8091,-587.0678 396,-579 422.6278,-552.7722 404.0594,-527.8246 432,-503 471.6102,-467.8072 505.3898,-500.1928 545,-465 572.9406,-440.1754 553.3067,-414.1002 581,-389 582.736,-387.4266 584.6114,-385.9813 586.5851,-384.6538"/>
<polygon fill="#191970" stroke="#191970" points="588.7047,-387.4797 595.7392,-379.557 585.2995,-381.3637 588.7047,-387.4797"/>
</g>
<!-- Node477284&#45;&gt;Node477284 -->
<g id="edge18" class="edge">
<title>Node477284&#45;&gt;Node477284</title>
<path fill="none" stroke="#191970" d="M312.3054,-616.7571C301.5081,-625.5653 308.9063,-635 334.5,-635 351.2959,-635 360.2556,-630.9368 361.3792,-625.6539"/>
<polygon fill="#191970" stroke="#191970" points="364.4506,-623.9747 356.6946,-616.7571 358.2567,-627.2361 364.4506,-623.9747"/>
</g>
<!-- Node477285 -->
<g id="node12" class="node">
<title>Node477285</title>
<g id="a_node12"><a xlink:href="quickjs_8c.html#a3d84c0bab25b37dbac0b6f3aa7b93e59" target="_top" xlink:title="add_eval_variables">
<polygon fill="none" stroke="#ff0000" points="438.5,-758.5 438.5,-777.5 538.5,-777.5 538.5,-758.5 438.5,-758.5"/>
<text text-anchor="middle" x="488.5" y="-765.5" font-family="Helvetica,sans-Serif" font-size="10.00" fill="#000000">add_eval_variables</text>
</a>
</g>
</g>
<!-- Node477284&#45;&gt;Node477285 -->
<g id="edge12" class="edge">
<title>Node477284&#45;&gt;Node477285</title>
<path fill="none" stroke="#191970" d="M338.4191,-616.5157C349.3409,-641.8772 382.5991,-711.6975 432,-749 434.4802,-750.8728 437.1561,-752.5677 439.9475,-754.1006"/>
<polygon fill="#191970" stroke="#191970" points="438.6229,-757.346 449.1585,-758.4648 441.6201,-751.0201 438.6229,-757.346"/>
</g>
<!-- Node477303 -->
<g id="node13" class="node">
<title>Node477303</title>
<g id="a_node13"><a xlink:href="quickjs_8c.html#a9780456a71703c53244b88831bc8fb7a" target="_top" xlink:title="add_gc_object">
<polygon fill="none" stroke="#ff0000" points="448.5,-682.5 448.5,-701.5 528.5,-701.5 528.5,-682.5 448.5,-682.5"/>
<text text-anchor="middle" x="488.5" y="-689.5" font-family="Helvetica,sans-Serif" font-size="10.00" fill="#000000">add_gc_object</text>
</a>
</g>
</g>
<!-- Node477284&#45;&gt;Node477303 -->
<g id="edge14" class="edge">
<title>Node477284&#45;&gt;Node477303</title>
<path fill="none" stroke="#191970" d="M348.2994,-616.6065C366.8289,-629.2766 401.0124,-651.8529 432,-668 439.1105,-671.7052 446.9215,-675.3054 454.4071,-678.5423"/>
<polygon fill="#191970" stroke="#191970" points="453.063,-681.774 463.6376,-682.4287 455.7794,-675.3225 453.063,-681.774"/>
</g>
<!-- Node477304 -->
<g id="node14" class="node">
<title>Node477304</title>
<g id="a_node14"><a xlink:href="quickjs_8c.html#ac8353dd499e0a2adbe6bd0943979aca4" target="_top" xlink:title="add_module_variables">
<polygon fill="none" stroke="#ff0000" points="432,-606.5 432,-625.5 545,-625.5 545,-606.5 432,-606.5"/>
<text text-anchor="middle" x="488.5" y="-613.5" font-family="Helvetica,sans-Serif" font-size="10.00" fill="#000000">add_module_variables</text>
</a>
</g>
</g>
<!-- Node477284&#45;&gt;Node477304 -->
<g id="edge15" class="edge">
<title>Node477284&#45;&gt;Node477304</title>
<path fill="none" stroke="#191970" d="M382.804,-609.823C395.0541,-610.5389 408.4349,-611.3209 421.4319,-612.0804"/>
<polygon fill="#191970" stroke="#191970" points="421.5567,-615.5936 431.7439,-612.6831 421.9651,-608.6055 421.5567,-615.5936"/>
</g>
<!-- Node477306 -->
<g id="node15" class="node">
<title>Node477306</title>
<g id="a_node15"><a xlink:href="quickjs_8c.html#a8cdae63a2cea1f6df8105adc6e2d03d0" target="_top" xlink:title="compute_stack_size">
<polygon fill="none" stroke="#ff0000" points="435,-568.5 435,-587.5 542,-587.5 542,-568.5 435,-568.5"/>
<text text-anchor="middle" x="488.5" y="-575.5" font-family="Helvetica,sans-Serif" font-size="10.00" fill="#000000">compute_stack_size</text>
</a>
</g>
</g>
<!-- Node477284&#45;&gt;Node477306 -->
<g id="edge16" class="edge">
<title>Node477284&#45;&gt;Node477306</title>
<path fill="none" stroke="#191970" d="M382.804,-597.9038C397.0664,-595.218 412.8615,-592.2436 427.7989,-589.4307"/>
<polygon fill="#191970" stroke="#191970" points="428.7943,-592.8049 437.9738,-587.5147 427.4988,-585.9258 428.7943,-592.8049"/>
</g>
<!-- Node477309 -->
<g id="node16" class="node">
<title>Node477309</title>
<g id="a_node16"><a xlink:href="cutils_8h.html#a8a3b715fc2146312b777c4e3db546b55" target="_top" xlink:title="dbuf_free">
<polygon fill="none" stroke="#000000" points="605.5,-578.5 605.5,-597.5 662.5,-597.5 662.5,-578.5 605.5,-578.5"/>
<text text-anchor="middle" x="634" y="-585.5" font-family="Helvetica,sans-Serif" font-size="10.00" fill="#000000">dbuf_free</text>
</a>
</g>
</g>
<!-- Node477284&#45;&gt;Node477309 -->
<g id="edge17" class="edge">
<title>Node477284&#45;&gt;Node477309</title>
<path fill="none" stroke="#191970" d="M360.4419,-616.6013C400.5208,-630.0637 479.6933,-651.1848 545,-635 569.6139,-628.9 594.9227,-614.6117 612.2284,-603.3793"/>
<polygon fill="#191970" stroke="#191970" points="614.6055,-605.9996 620.9641,-597.5249 610.7085,-600.1847 614.6055,-605.9996"/>
</g>
<!-- Node477310 -->
<g id="node17" class="node">
<title>Node477310</title>
<g id="a_node17"><a xlink:href="quickjs_8c.html#a2814982d965920b44b14bef36ba18bba" target="_top" xlink:title="JS_DupContext">
<polygon fill="none" stroke="#000000" points="445.5,-720.5 445.5,-739.5 531.5,-739.5 531.5,-720.5 445.5,-720.5"/>
<text text-anchor="middle" x="488.5" y="-727.5" font-family="Helvetica,sans-Serif" font-size="10.00" fill="#000000">JS_DupContext</text>
</a>
</g>
</g>
<!-- Node477284&#45;&gt;Node477310 -->
<g id="edge19" class="edge">
<title>Node477284&#45;&gt;Node477310</title>
<path fill="none" stroke="#191970" d="M340.8975,-616.5175C354.993,-636.7851 390.7709,-684.5138 432,-711 435.1454,-713.0206 438.5281,-714.8493 442.0186,-716.5001"/>
<polygon fill="#191970" stroke="#191970" points="440.8465,-719.8042 451.4208,-720.4634 443.5656,-713.3538 440.8465,-719.8042"/>
</g>
<!-- Node477284&#45;&gt;Node477311 -->
<g id="edge20" class="edge">
<title>Node477284&#45;&gt;Node477311</title>
<path fill="none" stroke="#191970" d="M357.3193,-597.4236C369.049,-592.298 383.4734,-585.6775 396,-579 420.3504,-566.0196 447.0757,-549.2618 465.5107,-537.2821"/>
<polygon fill="#191970" stroke="#191970" points="467.6456,-540.0677 474.0931,-531.6606 463.8101,-534.212 467.6456,-540.0677"/>
</g>
<!-- Node477284&#45;&gt;Node477312 -->
<g id="edge26" class="edge">
<title>Node477284&#45;&gt;Node477312</title>
<path fill="none" stroke="#191970" d="M368.3664,-597.414C378.3874,-593.1636 388.6355,-587.2082 396,-579 430.071,-541.0259 397.4465,-507.5356 432,-470 435.5187,-466.1776 439.7462,-462.9406 444.2849,-460.2048"/>
<polygon fill="#191970" stroke="#191970" points="446.0225,-463.2465 453.2921,-455.5391 442.8028,-457.0309 446.0225,-463.2465"/>
</g>
<!-- Node477285&#45;&gt;Node477241 -->
<g id="edge13" class="edge">
<title>Node477285&#45;&gt;Node477241</title>
<path fill="none" stroke="#191970" d="M538.5728,-774.5387C548.9137,-775.8891 559.9338,-777.3281 570.6751,-778.7308"/>
<polygon fill="#191970" stroke="#191970" points="570.4877,-782.2359 580.8568,-780.0603 571.3942,-775.2949 570.4877,-782.2359"/>
</g>
<!-- Node477311&#45;&gt;Node477246 -->
<g id="edge23" class="edge">
<title>Node477311&#45;&gt;Node477246</title>
<path fill="none" stroke="#191970" d="M523.7079,-512.4609C531.5427,-508.9687 539.2256,-504.2727 545,-498 579.5535,-460.4644 545.3825,-425.5274 581,-389 582.6357,-387.3226 584.4296,-385.7927 586.3379,-384.3974"/>
<polygon fill="#191970" stroke="#191970" points="588.4713,-387.2023 595.3005,-379.1021 584.9106,-381.1755 588.4713,-387.2023"/>
</g>
<!-- Node477311&#45;&gt;Node477251 -->
<g id="edge24" class="edge">
<title>Node477311&#45;&gt;Node477251</title>
<path fill="none" stroke="#191970" d="M516.9135,-512.4447C526.2635,-508.6575 536.4467,-503.8057 545,-498 575.4091,-477.3592 604.0721,-445.2741 620.2911,-425.5083"/>
<polygon fill="#191970" stroke="#191970" points="623.0966,-427.6047 626.6392,-417.6196 617.6431,-423.2161 623.0966,-427.6047"/>
</g>
<!-- Node477311&#45;&gt;Node477309 -->
<g id="edge21" class="edge">
<title>Node477311&#45;&gt;Node477309</title>
<path fill="none" stroke="#191970" d="M509.6569,-531.597C534.3333,-542.7904 575.3259,-561.385 603.453,-574.1436"/>
<polygon fill="#191970" stroke="#191970" points="602.2648,-577.4478 612.8175,-578.3915 605.1565,-571.073 602.2648,-577.4478"/>
</g>
<!-- Node477311&#45;&gt;Node477311 -->
<g id="edge22" class="edge">
<title>Node477311&#45;&gt;Node477311</title>
<path fill="none" stroke="#191970" d="M466.3054,-531.7571C455.5081,-540.5653 462.9063,-550 488.5,-550 505.2959,-550 514.2556,-545.9368 515.3792,-540.6539"/>
<polygon fill="#191970" stroke="#191970" points="518.4506,-538.9747 510.6946,-531.7571 512.2567,-542.2361 518.4506,-538.9747"/>
</g>
<!-- Node477645&#45;&gt;Node477251 -->
<g id="edge30" class="edge">
<title>Node477645&#45;&gt;Node477251</title>
<path fill="none" stroke="#191970" d="M378.5109,-436.4671C395.2016,-433.1041 414.4188,-429.5336 432,-427 483.9066,-419.5199 543.7602,-414.3139 584.761,-411.2669"/>
<polygon fill="#191970" stroke="#191970" points="585.0431,-414.7557 594.7625,-410.5387 584.5347,-407.7742 585.0431,-414.7557"/>
</g>
<!-- Node477645&#45;&gt;Node477312 -->
<g id="edge31" class="edge">
<title>Node477645&#45;&gt;Node477312</title>
<path fill="none" stroke="#191970" d="M396.2504,-446C409.0638,-446 422.4641,-446 434.9543,-446"/>
<polygon fill="#191970" stroke="#191970" points="435.199,-449.5001 445.199,-446 435.199,-442.5001 435.199,-449.5001"/>
</g>
<!-- Node477262&#45;&gt;Node477246 -->
<g id="edge34" class="edge">
<title>Node477262&#45;&gt;Node477246</title>
<path fill="none" stroke="#191970" d="M525.2158,-341.589C544.1566,-346.5358 567.4572,-352.6211 587.6285,-357.8892"/>
<polygon fill="#191970" stroke="#191970" points="586.9883,-361.3394 597.5482,-360.4799 588.7572,-354.5665 586.9883,-361.3394"/>
</g>
<!-- Node477262&#45;&gt;Node477251 -->
<g id="edge35" class="edge">
<title>Node477262&#45;&gt;Node477251</title>
<path fill="none" stroke="#191970" d="M525.5631,-341.5617C532.3029,-344.0957 539.0694,-347.2119 545,-351 564.6063,-363.5231 561.5187,-376.2833 581,-389 583.9544,-390.9285 587.1292,-392.6909 590.4036,-394.2957"/>
<polygon fill="#191970" stroke="#191970" points="589.2308,-397.6029 599.795,-398.4081 592.0386,-391.1907 589.2308,-397.6029"/>
</g>
<!-- Node477735&#45;&gt;Node477656 -->
<g id="edge38" class="edge">
<title>Node477735&#45;&gt;Node477656</title>
<path fill="none" stroke="#191970" d="M387.9295,-224.592C404.7639,-226.6689 423.2617,-228.9511 439.7523,-230.9857"/>
<polygon fill="#191970" stroke="#191970" points="439.3745,-234.4655 449.7279,-232.2164 440.2317,-227.5182 439.3745,-234.4655"/>
</g>
<!-- Node477736&#45;&gt;Node477246 -->
<g id="edge40" class="edge">
<title>Node477736&#45;&gt;Node477246</title>
<path fill="none" stroke="#191970" d="M521.3098,-303.5186C529.2173,-306.2236 537.5344,-309.4211 545,-313 569.5161,-324.7526 595.468,-341.9958 612.9806,-354.4365"/>
<polygon fill="#191970" stroke="#191970" points="611.1592,-357.4382 621.317,-360.4499 615.2544,-351.7611 611.1592,-357.4382"/>
</g>
<!-- Node477657&#45;&gt;Node477657 -->
<g id="edge45" class="edge">
<title>Node477657&#45;&gt;Node477657</title>
<path fill="none" stroke="#191970" d="M312.3054,-95.7571C301.5081,-104.5653 308.9063,-114 334.5,-114 351.2959,-114 360.2556,-109.9368 361.3792,-104.6539"/>
<polygon fill="#191970" stroke="#191970" points="364.4506,-102.9747 356.6946,-95.7571 358.2567,-106.2361 364.4506,-102.9747"/>
</g>
</g>
</svg>
