<?xml version="1.0" encoding="UTF-8" standalone="no"?>
<!DOCTYPE svg PUBLIC "-//W3C//DTD SVG 1.1//EN"
 "http://www.w3.org/Graphics/SVG/1.1/DTD/svg11.dtd">
<!-- Generated by graphviz version 2.40.1 (20161225.0304)
 -->
<!-- Title: js_dynamic_import Pages: 1 -->
<!--zoomable 1013 -->
<svg id="main" version="1.1" xmlns="http://www.w3.org/2000/svg" xmlns:xlink="http://www.w3.org/1999/xlink" xml:space="preserve" onload="init(evt)">
<style type="text/css"><![CDATA[
.edge:hover path { stroke: red; }
.edge:hover polygon { stroke: red; fill: red; }
]]></style>
<script type="text/javascript"><![CDATA[
var edges = document.getElementsByTagName('g');
if (edges && edges.length) {
  for (var i=0;i<edges.length;i++) {
    if (edges[i].id.substr(0,4)=='edge') {
      edges[i].setAttribute('class','edge');
    }
  }
}
]]></script>
        <defs>
                <circle id="rim" cx="0" cy="0" r="7"/>
                <circle id="rim2" cx="0" cy="0" r="3.5"/>
                <g id="zoomPlus">
                        <use xlink:href="#rim" fill="#404040">
                                <set attributeName="fill" to="#808080" begin="zoomplus.mouseover" end="zoomplus.mouseout"/>
                        </use>
                        <path d="M-4,0h8M0,-4v8" fill="none" stroke="white" stroke-width="1.5" pointer-events="none"/>
                </g>
                <g id="zoomMin">
                        <use xlink:href="#rim" fill="#404040">
                                <set attributeName="fill" to="#808080" begin="zoomminus.mouseover" end="zoomminus.mouseout"/>
                        </use>
                        <path d="M-4,0h8" fill="none" stroke="white" stroke-width="1.5" pointer-events="none"/>
                </g>
                <g id="dirArrow">
                        <path fill="none" stroke="white" stroke-width="1.5" d="M0,-3.0v7 M-2.5,-0.5L0,-3.0L2.5,-0.5"/>
                </g>
               <g id="resetDef">
                       <use xlink:href="#rim2" fill="#404040">
                               <set attributeName="fill" to="#808080" begin="reset.mouseover" end="reset.mouseout"/>
                       </use>
               </g>
        </defs>

<script type="text/javascript">
var viewWidth = 564;
var viewHeight = 1013;
var sectionId = 'dynsection-79';
</script>
<script xlink:href="svgpan.js"/>
<svg id="graph" class="graph">
<g id="viewport">
<title>js_dynamic_import</title>
<!-- Node28371 -->
<g id="node1" class="node">
<title>Node28371</title>
<polygon fill="#bfbfbf" stroke="#000000" points="0,-155.5 0,-174.5 98,-174.5 98,-155.5 0,-155.5"/>
<text text-anchor="middle" x="49" y="-162.5" font-family="Helvetica,sans-Serif" font-size="10.00" fill="#000000">js_dynamic_import</text>
</g>
<!-- Node28372 -->
<g id="node2" class="node">
<title>Node28372</title>
<g id="a_node2"><a xlink:href="quickjs_8c.html#ac2894ff4edcdb4e6841bcce9c76081e3" target="_top" xlink:title="JS_CallInternal">
<polygon fill="none" stroke="#000000" points="134,-434.5 134,-453.5 217,-453.5 217,-434.5 134,-434.5"/>
<text text-anchor="middle" x="175.5" y="-441.5" font-family="Helvetica,sans-Serif" font-size="10.00" fill="#000000">JS_CallInternal</text>
</a>
</g>
</g>
<!-- Node28371&#45;&gt;Node28372 -->
<g id="edge1" class="edge">
<title>Node28371&#45;&gt;Node28372</title>
<path fill="none" stroke="#191970" d="M57.5172,-183.785C82.1564,-238.1275 152.9141,-394.1861 171.1639,-434.4366"/>
<polygon fill="#191970" stroke="#191970" points="60.6715,-182.2661 53.3544,-174.6038 54.2962,-185.1567 60.6715,-182.2661"/>
</g>
<!-- Node28372&#45;&gt;Node28372 -->
<g id="edge41" class="edge">
<title>Node28372&#45;&gt;Node28372</title>
<path fill="none" stroke="#191970" d="M152.0626,-463.0292C153.341,-468.128 161.1535,-472 175.5,-472 197.8945,-472 204.368,-462.5653 194.9203,-453.7571"/>
<polygon fill="#191970" stroke="#191970" points="155.3158,-464.3243 156.0797,-453.7571 148.8927,-461.5415 155.3158,-464.3243"/>
</g>
<!-- Node28373 -->
<g id="node3" class="node">
<title>Node28373</title>
<g id="a_node3"><a xlink:href="quickjs_8c.html#ade71a22dc56e7371392393df663b28b3" target="_top" xlink:title="async_func_resume">
<polygon fill="none" stroke="#000000" points="268,-886.5 268,-905.5 372,-905.5 372,-886.5 268,-886.5"/>
<text text-anchor="middle" x="320" y="-893.5" font-family="Helvetica,sans-Serif" font-size="10.00" fill="#000000">async_func_resume</text>
</a>
</g>
</g>
<!-- Node28372&#45;&gt;Node28373 -->
<g id="edge2" class="edge">
<title>Node28372&#45;&gt;Node28373</title>
<path fill="none" stroke="#191970" d="M181.7036,-463.405C206.5946,-541.2648 298.7506,-829.5313 316.889,-886.2688"/>
<polygon fill="#191970" stroke="#191970" points="185.0314,-462.3203 178.6525,-453.861 178.3638,-464.4519 185.0314,-462.3203"/>
</g>
<!-- Node28392 -->
<g id="node8" class="node">
<title>Node28392</title>
<g id="a_node8"><a xlink:href="quickjs_8c.html#a1a4c02a29525d5cb2085dd8bca3af350" target="_top" xlink:title="JS_Call">
<polygon fill="none" stroke="#ff0000" points="294.5,-434.5 294.5,-453.5 345.5,-453.5 345.5,-434.5 294.5,-434.5"/>
<text text-anchor="middle" x="320" y="-441.5" font-family="Helvetica,sans-Serif" font-size="10.00" fill="#000000">JS_Call</text>
</a>
</g>
</g>
<!-- Node28372&#45;&gt;Node28392 -->
<g id="edge7" class="edge">
<title>Node28372&#45;&gt;Node28392</title>
<path fill="none" stroke="#191970" d="M227.4675,-437.4922C250.1282,-436.9376 275.6855,-437.3355 294.1897,-438.6858"/>
<polygon fill="#191970" stroke="#191970" points="227.1797,-433.9994 217.2954,-437.814 227.4011,-440.9959 227.1797,-433.9994"/>
</g>
<!-- Node28477 -->
<g id="node29" class="node">
<title>Node28477</title>
<g id="a_node29"><a xlink:href="quickjs_8c.html#ad35594576a14c10812efaf958c99af8a" target="_top" xlink:title="JS_CallConstructorInternal">
<polygon fill="none" stroke="#ff0000" points="253,-396.5 253,-415.5 387,-415.5 387,-396.5 253,-396.5"/>
<text text-anchor="middle" x="320" y="-403.5" font-family="Helvetica,sans-Serif" font-size="10.00" fill="#000000">JS_CallConstructorInternal</text>
</a>
</g>
</g>
<!-- Node28372&#45;&gt;Node28477 -->
<g id="edge35" class="edge">
<title>Node28372&#45;&gt;Node28477</title>
<path fill="none" stroke="#191970" d="M203.6409,-431.1228C219.2258,-425.9852 239.2462,-420.3173 258.272,-415.547"/>
<polygon fill="#191970" stroke="#191970" points="202.412,-427.8442 194.095,-434.4076 204.6897,-434.4633 202.412,-427.8442"/>
</g>
<!-- Node28491 -->
<g id="node30" class="node">
<title>Node28491</title>
<g id="a_node30"><a xlink:href="quickjs_8c.html#a75f6ee5e4235a7dc99889f3d2eb2c147" target="_top" xlink:title="JS_CallFree">
<polygon fill="none" stroke="#ff0000" points="284.5,-610.5 284.5,-629.5 355.5,-629.5 355.5,-610.5 284.5,-610.5"/>
<text text-anchor="middle" x="320" y="-617.5" font-family="Helvetica,sans-Serif" font-size="10.00" fill="#000000">JS_CallFree</text>
</a>
</g>
</g>
<!-- Node28372&#45;&gt;Node28491 -->
<g id="edge37" class="edge">
<title>Node28372&#45;&gt;Node28491</title>
<path fill="none" stroke="#191970" d="M193.382,-461.1492C226.1058,-497.6775 294.116,-581.1069 314.2595,-610.1575"/>
<polygon fill="#191970" stroke="#191970" points="195.9228,-458.7411 186.5987,-453.7099 190.7502,-463.4575 195.9228,-458.7411"/>
</g>
<!-- Node28374 -->
<g id="node4" class="node">
<title>Node28374</title>
<g id="a_node4"><a xlink:href="quickjs_8c.html#ac90552b1f1659acb3dae9a4c62479a30" target="_top" xlink:title="js_generator_function_call">
<polygon fill="none" stroke="#ff0000" points="424.5,-886.5 424.5,-905.5 554.5,-905.5 554.5,-886.5 424.5,-886.5"/>
<text text-anchor="middle" x="489.5" y="-893.5" font-family="Helvetica,sans-Serif" font-size="10.00" fill="#000000">js_generator_function_call</text>
</a>
</g>
</g>
<!-- Node28373&#45;&gt;Node28374 -->
<g id="edge3" class="edge">
<title>Node28373&#45;&gt;Node28374</title>
<path fill="none" stroke="#191970" d="M382.4686,-896C396.0904,-896 410.5389,-896 424.2652,-896"/>
<polygon fill="#191970" stroke="#191970" points="382.2387,-892.5001 372.2387,-896 382.2386,-899.5001 382.2387,-892.5001"/>
</g>
<!-- Node28383 -->
<g id="node5" class="node">
<title>Node28383</title>
<g id="a_node5"><a xlink:href="quickjs_8c.html#a1bf6b62983e8fff99c0a5d5a9f486115" target="_top" xlink:title="js_async_function_resume">
<polygon fill="none" stroke="#ff0000" points="423,-848.5 423,-867.5 556,-867.5 556,-848.5 423,-848.5"/>
<text text-anchor="middle" x="489.5" y="-855.5" font-family="Helvetica,sans-Serif" font-size="10.00" fill="#000000">js_async_function_resume</text>
</a>
</g>
</g>
<!-- Node28373&#45;&gt;Node28383 -->
<g id="edge4" class="edge">
<title>Node28373&#45;&gt;Node28383</title>
<path fill="none" stroke="#191970" d="M372.7425,-884.1757C396.639,-878.8184 424.5152,-872.5689 447.0356,-867.5201"/>
<polygon fill="#191970" stroke="#191970" points="371.7641,-880.8081 362.772,-886.411 373.2955,-887.6386 371.7641,-880.8081"/>
</g>
<!-- Node28390 -->
<g id="node6" class="node">
<title>Node28390</title>
<g id="a_node6"><a xlink:href="quickjs_8c.html#a89b019c704a2d2914bc30b30a72040b3" target="_top" xlink:title="js_async_generator\l_resume_next">
<polygon fill="none" stroke="#000000" points="439,-974 439,-1004 540,-1004 540,-974 439,-974"/>
<text text-anchor="start" x="447" y="-992" font-family="Helvetica,sans-Serif" font-size="10.00" fill="#000000">js_async_generator</text>
<text text-anchor="middle" x="489.5" y="-981" font-family="Helvetica,sans-Serif" font-size="10.00" fill="#000000">_resume_next</text>
</a>
</g>
</g>
<!-- Node28373&#45;&gt;Node28390 -->
<g id="edge5" class="edge">
<title>Node28373&#45;&gt;Node28390</title>
<path fill="none" stroke="#191970" d="M340.1791,-911.6904C360.3124,-926.8094 392.5505,-949.5979 423,-965 429.3525,-968.2132 436.24,-971.2024 443.094,-973.9041"/>
<polygon fill="#191970" stroke="#191970" points="342.1594,-908.7993 332.0812,-905.531 337.9216,-914.3707 342.1594,-908.7993"/>
</g>
<!-- Node28391 -->
<g id="node7" class="node">
<title>Node28391</title>
<g id="a_node7"><a xlink:href="quickjs_8c.html#ae19867da709929c072f05e90301835a4" target="_top" xlink:title="js_async_generator\l_function_call">
<polygon fill="none" stroke="#ff0000" points="439,-925 439,-955 540,-955 540,-925 439,-925"/>
<text text-anchor="start" x="447" y="-943" font-family="Helvetica,sans-Serif" font-size="10.00" fill="#000000">js_async_generator</text>
<text text-anchor="middle" x="489.5" y="-932" font-family="Helvetica,sans-Serif" font-size="10.00" fill="#000000">_function_call</text>
</a>
</g>
</g>
<!-- Node28373&#45;&gt;Node28391 -->
<g id="edge6" class="edge">
<title>Node28373&#45;&gt;Node28391</title>
<path fill="none" stroke="#191970" d="M366.7373,-908.1324C389.1637,-913.954 416.0693,-920.9383 438.969,-926.8828"/>
<polygon fill="#191970" stroke="#191970" points="367.3376,-904.6723 356.779,-905.5473 365.5787,-911.4477 367.3376,-904.6723"/>
</g>
<!-- Node28392&#45;&gt;Node28372 -->
<g id="edge14" class="edge">
<title>Node28392&#45;&gt;Node28372</title>
<path fill="none" stroke="#191970" d="M284.1175,-449.9239C263.8618,-450.9297 238.4473,-451.0171 217.2954,-450.186"/>
<polygon fill="#191970" stroke="#191970" points="284.4195,-453.4121 294.1897,-449.3142 283.9965,-446.4249 284.4195,-453.4121"/>
</g>
<!-- Node28392&#45;&gt;Node28383 -->
<g id="edge15" class="edge">
<title>Node28392&#45;&gt;Node28383</title>
<path fill="none" stroke="#191970" d="M329.747,-462.5355C344.4693,-491.3459 372.2244,-548.9781 387,-601 416.2293,-703.9106 352.3531,-758.6635 423,-839 426.4095,-842.8772 430.5499,-845.9879 435.0793,-848.4803"/>
<polygon fill="#191970" stroke="#191970" points="332.8295,-460.8766 325.1256,-453.6033 326.6123,-464.0933 332.8295,-460.8766"/>
</g>
<!-- Node28393 -->
<g id="node9" class="node">
<title>Node28393</title>
<g id="a_node9"><a xlink:href="structqjs_1_1js__traits_3_01std_1_1function_3_01R_07Args_8_8_8_08_4_01_4.html#ac449e51d3fe10c6c115596fa6ec278ee" target="_top" xlink:title="qjs::js_traits\&lt; std\l::function\&lt; R(Args...)\l\&gt; \&gt;::unwrap">
<polygon fill="none" stroke="#000000" points="435,-448.5 435,-489.5 544,-489.5 544,-448.5 435,-448.5"/>
<text text-anchor="start" x="443" y="-477.5" font-family="Helvetica,sans-Serif" font-size="10.00" fill="#000000">qjs::js_traits&lt; std</text>
<text text-anchor="start" x="443" y="-466.5" font-family="Helvetica,sans-Serif" font-size="10.00" fill="#000000">::function&lt; R(Args...)</text>
<text text-anchor="middle" x="489.5" y="-455.5" font-family="Helvetica,sans-Serif" font-size="10.00" fill="#000000">&gt; &gt;::unwrap</text>
</a>
</g>
</g>
<!-- Node28392&#45;&gt;Node28393 -->
<g id="edge8" class="edge">
<title>Node28392&#45;&gt;Node28393</title>
<path fill="none" stroke="#191970" d="M355.7116,-449.2672C378.6128,-452.645 408.7972,-457.0969 434.6986,-460.9172"/>
<polygon fill="#191970" stroke="#191970" points="356.1471,-445.7936 345.7434,-447.797 355.1256,-452.7187 356.1471,-445.7936"/>
</g>
<!-- Node28394 -->
<g id="node10" class="node">
<title>Node28394</title>
<g id="a_node10"><a xlink:href="quickjs-libc_8c.html#abb1cbe3fdf905e81f603a3a0bfce475a" target="_top" xlink:title="call_handler">
<polygon fill="none" stroke="#000000" points="455.5,-410.5 455.5,-429.5 523.5,-429.5 523.5,-410.5 455.5,-410.5"/>
<text text-anchor="middle" x="489.5" y="-417.5" font-family="Helvetica,sans-Serif" font-size="10.00" fill="#000000">call_handler</text>
</a>
</g>
</g>
<!-- Node28392&#45;&gt;Node28394 -->
<g id="edge9" class="edge">
<title>Node28392&#45;&gt;Node28394</title>
<path fill="none" stroke="#191970" d="M355.9702,-438.9069C385.3013,-434.7538 426.4516,-428.9272 455.2948,-424.8432"/>
<polygon fill="#191970" stroke="#191970" points="355.1539,-435.4875 345.7434,-440.3549 356.1354,-442.4183 355.1539,-435.4875"/>
</g>
<!-- Node28395 -->
<g id="node11" class="node">
<title>Node28395</title>
<g id="a_node11"><a xlink:href="quickjs-libc_8c.html#a9fa4c190ba56314c7ed9b00bbc7ad0f9" target="_top" xlink:title="handle_posted_message">
<polygon fill="none" stroke="#000000" points="427,-372.5 427,-391.5 552,-391.5 552,-372.5 427,-372.5"/>
<text text-anchor="middle" x="489.5" y="-379.5" font-family="Helvetica,sans-Serif" font-size="10.00" fill="#000000">handle_posted_message</text>
</a>
</g>
</g>
<!-- Node28392&#45;&gt;Node28395 -->
<g id="edge10" class="edge">
<title>Node28392&#45;&gt;Node28395</title>
<path fill="none" stroke="#191970" d="M355.7754,-436.0706C366.0913,-433.1972 377.2012,-429.5196 387,-425 404.4617,-416.9459 405.5463,-409.0713 423,-401 431.0647,-397.2706 440.0235,-394.1096 448.6857,-391.5001"/>
<polygon fill="#191970" stroke="#191970" points="354.5921,-432.7622 345.8022,-438.6772 356.3623,-439.5347 354.5921,-432.7622"/>
</g>
<!-- Node28396 -->
<g id="node12" class="node">
<title>Node28396</title>
<g id="a_node12"><a xlink:href="quickjs_8c.html#aa049793cc8648d35fe81876a2543ca4e" target="_top" xlink:title="JS_GetIterator2">
<polygon fill="none" stroke="#ff0000" points="446.5,-334.5 446.5,-353.5 532.5,-353.5 532.5,-334.5 446.5,-334.5"/>
<text text-anchor="middle" x="489.5" y="-341.5" font-family="Helvetica,sans-Serif" font-size="10.00" fill="#000000">JS_GetIterator2</text>
</a>
</g>
</g>
<!-- Node28392&#45;&gt;Node28396 -->
<g id="edge11" class="edge">
<title>Node28392&#45;&gt;Node28396</title>
<path fill="none" stroke="#191970" d="M355.4273,-439.2639C366.38,-436.4746 377.9358,-432.0425 387,-425 412.1619,-405.4504 397.8574,-382.5744 423,-363 429.8215,-357.6892 438.0662,-353.8628 446.3939,-351.1059"/>
<polygon fill="#191970" stroke="#191970" points="354.6568,-435.8496 345.6269,-441.3915 356.1419,-442.6903 354.6568,-435.8496"/>
</g>
<!-- Node28428 -->
<g id="node13" class="node">
<title>Node28428</title>
<g id="a_node13"><a xlink:href="quickjs_8c.html#ad6303fbd3add4afa0cb64b0aa6d431ce" target="_top" xlink:title="JS_IteratorNext2">
<polygon fill="none" stroke="#ff0000" points="444,-296.5 444,-315.5 535,-315.5 535,-296.5 444,-296.5"/>
<text text-anchor="middle" x="489.5" y="-303.5" font-family="Helvetica,sans-Serif" font-size="10.00" fill="#000000">JS_IteratorNext2</text>
</a>
</g>
</g>
<!-- Node28392&#45;&gt;Node28428 -->
<g id="edge12" class="edge">
<title>Node28392&#45;&gt;Node28428</title>
<path fill="none" stroke="#191970" d="M355.6929,-440.3309C366.8572,-437.6153 378.4721,-432.9571 387,-425 421.5373,-392.7745 388.4945,-357.2595 423,-325 428.8766,-319.506 436.2321,-315.5863 443.89,-312.7932"/>
<polygon fill="#191970" stroke="#191970" points="354.7969,-436.9403 345.6681,-442.3176 356.1577,-443.8067 354.7969,-436.9403"/>
</g>
<!-- Node28432 -->
<g id="node14" class="node">
<title>Node28432</title>
<g id="a_node14"><a xlink:href="quickjs_8c.html#afd4ef2d701fa0702f321925b61c57bbf" target="_top" xlink:title="js_call_bound_function">
<polygon fill="none" stroke="#ff0000" points="431.5,-258.5 431.5,-277.5 547.5,-277.5 547.5,-258.5 431.5,-258.5"/>
<text text-anchor="middle" x="489.5" y="-265.5" font-family="Helvetica,sans-Serif" font-size="10.00" fill="#000000">js_call_bound_function</text>
</a>
</g>
</g>
<!-- Node28392&#45;&gt;Node28432 -->
<g id="edge13" class="edge">
<title>Node28392&#45;&gt;Node28432</title>
<path fill="none" stroke="#191970" d="M355.8553,-440.8337C367.1329,-438.1604 378.7754,-433.4003 387,-425 431.3443,-379.708 378.7004,-332.3357 423,-287 426.7762,-283.1355 431.2797,-280.0425 436.138,-277.5692"/>
<polygon fill="#191970" stroke="#191970" points="354.8878,-437.4544 345.7095,-442.7467 356.1848,-444.3332 354.8878,-437.4544"/>
</g>
<!-- Node28433 -->
<g id="node15" class="node">
<title>Node28433</title>
<g id="a_node15"><a xlink:href="quickjs_8c.html#a3e852026d167fa03c673f86697dd3e67" target="_top" xlink:title="js_async_generator\l_resolve_or_reject">
<polygon fill="none" stroke="#ff0000" points="439,-209 439,-239 540,-239 540,-209 439,-209"/>
<text text-anchor="start" x="447" y="-227" font-family="Helvetica,sans-Serif" font-size="10.00" fill="#000000">js_async_generator</text>
<text text-anchor="middle" x="489.5" y="-216" font-family="Helvetica,sans-Serif" font-size="10.00" fill="#000000">_resolve_or_reject</text>
</a>
</g>
</g>
<!-- Node28392&#45;&gt;Node28433 -->
<g id="edge16" class="edge">
<title>Node28392&#45;&gt;Node28433</title>
<path fill="none" stroke="#191970" d="M355.5024,-441.2262C366.9928,-438.6027 378.8575,-433.7735 387,-425 441.3131,-366.4782 371.1697,-309.7317 423,-249 427.3237,-243.9338 432.7822,-239.8925 438.7044,-236.6692"/>
<polygon fill="#191970" stroke="#191970" points="354.8261,-437.7916 345.6042,-443.0076 356.0661,-444.6809 354.8261,-437.7916"/>
</g>
<!-- Node28436 -->
<g id="node16" class="node">
<title>Node28436</title>
<g id="a_node16"><a xlink:href="quickjs_8c.html#a2355fabf91f59212ea65baba1b0b7c1b" target="_top" xlink:title="js_async_generator_next">
<polygon fill="none" stroke="#000000" points="427,-170.5 427,-189.5 552,-189.5 552,-170.5 427,-170.5"/>
<text text-anchor="middle" x="489.5" y="-177.5" font-family="Helvetica,sans-Serif" font-size="10.00" fill="#000000">js_async_generator_next</text>
</a>
</g>
</g>
<!-- Node28392&#45;&gt;Node28436 -->
<g id="edge17" class="edge">
<title>Node28392&#45;&gt;Node28436</title>
<path fill="none" stroke="#191970" d="M355.7214,-441.425C367.2308,-438.8188 379.0516,-433.9497 387,-425 454.5406,-348.9517 355.5344,-275.1149 423,-199 426.4247,-195.1362 430.5751,-192.0344 435.1108,-189.5475"/>
<polygon fill="#191970" stroke="#191970" points="355.0313,-437.9926 345.7924,-443.1785 356.2488,-444.8859 355.0313,-437.9926"/>
</g>
<!-- Node28437 -->
<g id="node17" class="node">
<title>Node28437</title>
<g id="a_node17"><a xlink:href="quickjs_8c.html#adc0280beaa04d2b8fcaf05a82ab26c74" target="_top" xlink:title="js_link_module">
<polygon fill="none" stroke="#ff0000" points="449,-114.5 449,-133.5 530,-133.5 530,-114.5 449,-114.5"/>
<text text-anchor="middle" x="489.5" y="-121.5" font-family="Helvetica,sans-Serif" font-size="10.00" fill="#000000">js_link_module</text>
</a>
</g>
</g>
<!-- Node28392&#45;&gt;Node28437 -->
<g id="edge18" class="edge">
<title>Node28392&#45;&gt;Node28437</title>
<path fill="none" stroke="#191970" d="M355.5653,-441.5854C367.17,-439.0036 379.0912,-434.1089 387,-425 464.6376,-335.5823 356.2045,-258.7828 423,-161 431.7192,-148.2359 446.3588,-139.4105 459.686,-133.5898"/>
<polygon fill="#191970" stroke="#191970" points="354.8196,-438.1622 345.5576,-443.3067 356.0062,-445.0609 354.8196,-438.1622"/>
</g>
<!-- Node28441 -->
<g id="node18" class="node">
<title>Node28441</title>
<g id="a_node18"><a xlink:href="quickjs_8c.html#a6357b7fdae71c70c140e78e6c20cb5c2" target="_top" xlink:title="js_dynamic_import_job">
<polygon fill="none" stroke="#000000" points="431.5,-.5 431.5,-19.5 547.5,-19.5 547.5,-.5 431.5,-.5"/>
<text text-anchor="middle" x="489.5" y="-7.5" font-family="Helvetica,sans-Serif" font-size="10.00" fill="#000000">js_dynamic_import_job</text>
</a>
</g>
</g>
<!-- Node28392&#45;&gt;Node28441 -->
<g id="edge20" class="edge">
<title>Node28392&#45;&gt;Node28441</title>
<path fill="none" stroke="#191970" d="M355.7959,-441.7811C367.4218,-439.2173 379.2975,-434.284 387,-425 443.4208,-356.9949 366.6462,-97.0607 423,-29 426.1396,-25.2082 429.9793,-22.1436 434.2143,-19.6705"/>
<polygon fill="#191970" stroke="#191970" points="355.0336,-438.3601 345.7546,-443.4739 356.1973,-445.2627 355.0336,-438.3601"/>
</g>
<!-- Node28444 -->
<g id="node19" class="node">
<title>Node28444</title>
<g id="a_node19"><a xlink:href="quickjs_8c.html#a8d4b24969540aff427939eeda47f451d" target="_top" xlink:title="js_function_apply">
<polygon fill="none" stroke="#ff0000" points="443.5,-38.5 443.5,-57.5 535.5,-57.5 535.5,-38.5 443.5,-38.5"/>
<text text-anchor="middle" x="489.5" y="-45.5" font-family="Helvetica,sans-Serif" font-size="10.00" fill="#000000">js_function_apply</text>
</a>
</g>
</g>
<!-- Node28392&#45;&gt;Node28444 -->
<g id="edge22" class="edge">
<title>Node28392&#45;&gt;Node28444</title>
<path fill="none" stroke="#191970" d="M355.7464,-441.7398C367.3677,-439.1723 379.2532,-434.2471 387,-425 489.6941,-302.4183 320.4268,-189.6829 423,-67 428.3142,-60.644 435.5947,-56.3339 443.3956,-53.4287"/>
<polygon fill="#191970" stroke="#191970" points="354.9877,-438.3184 345.7123,-443.4386 356.1562,-445.2202 354.9877,-438.3184"/>
</g>
<!-- Node28447 -->
<g id="node20" class="node">
<title>Node28447</title>
<g id="a_node20"><a xlink:href="quickjs_8c.html#a677ad630a103e1f3d5129e0549112b50" target="_top" xlink:title="js_function_call">
<polygon fill="none" stroke="#000000" points="447.5,-76.5 447.5,-95.5 531.5,-95.5 531.5,-76.5 447.5,-76.5"/>
<text text-anchor="middle" x="489.5" y="-83.5" font-family="Helvetica,sans-Serif" font-size="10.00" fill="#000000">js_function_call</text>
</a>
</g>
</g>
<!-- Node28392&#45;&gt;Node28447 -->
<g id="edge24" class="edge">
<title>Node28392&#45;&gt;Node28447</title>
<path fill="none" stroke="#191970" d="M355.6855,-441.6885C367.3013,-439.1163 379.1987,-434.2012 387,-425 479.5552,-315.8364 330.5525,-214.2548 423,-105 429.2048,-97.6672 438.0257,-93.0619 447.2218,-90.1955"/>
<polygon fill="#191970" stroke="#191970" points="354.9313,-438.2665 345.6603,-443.3948 356.1058,-445.1673 354.9313,-438.2665"/>
</g>
<!-- Node28399 -->
<g id="node21" class="node">
<title>Node28399</title>
<g id="a_node21"><a xlink:href="quickjs_8c.html#a5e32da9a43002cb96dcbd62a1a340144" target="_top" xlink:title="js_array_from">
<polygon fill="none" stroke="#000000" points="451.5,-734.5 451.5,-753.5 527.5,-753.5 527.5,-734.5 451.5,-734.5"/>
<text text-anchor="middle" x="489.5" y="-741.5" font-family="Helvetica,sans-Serif" font-size="10.00" fill="#000000">js_array_from</text>
</a>
</g>
</g>
<!-- Node28392&#45;&gt;Node28399 -->
<g id="edge25" class="edge">
<title>Node28392&#45;&gt;Node28399</title>
<path fill="none" stroke="#191970" d="M329.0824,-463.1893C342.7405,-492.4802 368.894,-550.2922 387,-601 406.2975,-655.0448 382.3352,-684.5079 423,-725 430.5724,-732.5403 440.9172,-737.1342 451.1914,-739.9189"/>
<polygon fill="#191970" stroke="#191970" points="332.0712,-461.3196 324.6538,-453.7544 325.7345,-464.2939 332.0712,-461.3196"/>
</g>
<!-- Node28425 -->
<g id="node22" class="node">
<title>Node28425</title>
<g id="a_node22"><a xlink:href="quickjs_8c.html#aa0bbf08a7e91459c68a312fba7016c6d" target="_top" xlink:title="js_array_every">
<polygon fill="none" stroke="#000000" points="449.5,-696.5 449.5,-715.5 529.5,-715.5 529.5,-696.5 449.5,-696.5"/>
<text text-anchor="middle" x="489.5" y="-703.5" font-family="Helvetica,sans-Serif" font-size="10.00" fill="#000000">js_array_every</text>
</a>
</g>
</g>
<!-- Node28392&#45;&gt;Node28425 -->
<g id="edge26" class="edge">
<title>Node28392&#45;&gt;Node28425</title>
<path fill="none" stroke="#191970" d="M328.174,-463.0365C340.8374,-492.5545 365.9347,-551.1617 387,-601 403.132,-639.1667 392.0217,-659.4812 423,-687 430.3609,-693.5389 439.8292,-697.8382 449.2995,-700.6618"/>
<polygon fill="#191970" stroke="#191970" points="331.2619,-461.3568 324.1017,-453.5477 324.8293,-464.1176 331.2619,-461.3568"/>
</g>
<!-- Node28448 -->
<g id="node23" class="node">
<title>Node28448</title>
<g id="a_node23"><a xlink:href="quickjs_8c.html#a36c1692489542a86dd79a7d39ab8ff95" target="_top" xlink:title="js_array_reduce">
<polygon fill="none" stroke="#000000" points="446.5,-658.5 446.5,-677.5 532.5,-677.5 532.5,-658.5 446.5,-658.5"/>
<text text-anchor="middle" x="489.5" y="-665.5" font-family="Helvetica,sans-Serif" font-size="10.00" fill="#000000">js_array_reduce</text>
</a>
</g>
</g>
<!-- Node28392&#45;&gt;Node28448 -->
<g id="edge27" class="edge">
<title>Node28392&#45;&gt;Node28448</title>
<path fill="none" stroke="#191970" d="M327.2448,-462.9743C345.0496,-508.7024 391.7677,-623.1309 423,-649 429.7504,-654.5912 438.0583,-658.5386 446.4866,-661.3251"/>
<polygon fill="#191970" stroke="#191970" points="330.4977,-461.6819 323.6314,-453.6132 323.9673,-464.2027 330.4977,-461.6819"/>
</g>
<!-- Node28449 -->
<g id="node24" class="node">
<title>Node28449</title>
<g id="a_node24"><a xlink:href="quickjs_8c.html#a9dd41b086da4e13b3487cc9c6e2af2b8" target="_top" xlink:title="js_array_find">
<polygon fill="none" stroke="#000000" points="453.5,-620.5 453.5,-639.5 525.5,-639.5 525.5,-620.5 453.5,-620.5"/>
<text text-anchor="middle" x="489.5" y="-627.5" font-family="Helvetica,sans-Serif" font-size="10.00" fill="#000000">js_array_find</text>
</a>
</g>
</g>
<!-- Node28392&#45;&gt;Node28449 -->
<g id="edge28" class="edge">
<title>Node28392&#45;&gt;Node28449</title>
<path fill="none" stroke="#191970" d="M326.4738,-463.1144C339.2539,-497.9216 371.0755,-571.6724 423,-611 431.8059,-617.6696 442.871,-621.9992 453.4343,-624.8094"/>
<polygon fill="#191970" stroke="#191970" points="329.7569,-461.9003 323.1177,-453.6436 323.1589,-464.2384 329.7569,-461.9003"/>
</g>
<!-- Node28450 -->
<g id="node25" class="node">
<title>Node28450</title>
<g id="a_node25"><a xlink:href="quickjs_8c.html#ad90c33b4aae1181151bda4a98ac2ef23" target="_top" xlink:title="JS_FlattenIntoArray">
<polygon fill="none" stroke="#ff0000" points="437.5,-564.5 437.5,-583.5 541.5,-583.5 541.5,-564.5 437.5,-564.5"/>
<text text-anchor="middle" x="489.5" y="-571.5" font-family="Helvetica,sans-Serif" font-size="10.00" fill="#000000">JS_FlattenIntoArray</text>
</a>
</g>
</g>
<!-- Node28392&#45;&gt;Node28450 -->
<g id="edge29" class="edge">
<title>Node28392&#45;&gt;Node28450</title>
<path fill="none" stroke="#191970" d="M331.9424,-462.0895C349.1536,-486.7432 383.2662,-530.6099 423,-555 429.2421,-558.8317 436.2853,-561.9161 443.3932,-564.3918"/>
<polygon fill="#191970" stroke="#191970" points="334.722,-459.9532 326.1971,-453.6622 328.9382,-463.8963 334.722,-459.9532"/>
</g>
<!-- Node28452 -->
<g id="node26" class="node">
<title>Node28452</title>
<g id="a_node26"><a xlink:href="quickjs_8c.html#aed1bf9ce4b9e3a82388679dd6ec7635b" target="_top" xlink:title="js_string_replace">
<polygon fill="none" stroke="#000000" points="444.5,-810.5 444.5,-829.5 534.5,-829.5 534.5,-810.5 444.5,-810.5"/>
<text text-anchor="middle" x="489.5" y="-817.5" font-family="Helvetica,sans-Serif" font-size="10.00" fill="#000000">js_string_replace</text>
</a>
</g>
</g>
<!-- Node28392&#45;&gt;Node28452 -->
<g id="edge31" class="edge">
<title>Node28392&#45;&gt;Node28452</title>
<path fill="none" stroke="#191970" d="M329.5673,-462.5879C344.0523,-491.4675 371.4984,-549.1898 387,-601 412.889,-687.5274 362.4146,-734.0176 423,-801 428.7187,-807.3225 436.3804,-811.5994 444.4675,-814.4791"/>
<polygon fill="#191970" stroke="#191970" points="332.6701,-460.9678 325.0252,-453.6326 326.4272,-464.1343 332.6701,-460.9678"/>
</g>
<!-- Node28453 -->
<g id="node27" class="node">
<title>Node28453</title>
<g id="a_node27"><a xlink:href="quickjs_8c.html#a624282391413d4c5a030adbd8b77aa80" target="_top" xlink:title="internalize_json_property">
<polygon fill="none" stroke="#ff0000" points="427,-508.5 427,-527.5 552,-527.5 552,-508.5 427,-508.5"/>
<text text-anchor="middle" x="489.5" y="-515.5" font-family="Helvetica,sans-Serif" font-size="10.00" fill="#000000">internalize_json_property</text>
</a>
</g>
</g>
<!-- Node28392&#45;&gt;Node28453 -->
<g id="edge32" class="edge">
<title>Node28392&#45;&gt;Node28453</title>
<path fill="none" stroke="#191970" d="M344.2006,-458.8192C364.6373,-470.8649 394.9699,-487.6618 423,-499 431.7935,-502.557 441.4925,-505.728 450.7008,-508.4125"/>
<polygon fill="#191970" stroke="#191970" points="345.9314,-455.7763 335.551,-453.6557 342.3434,-461.7868 345.9314,-455.7763"/>
</g>
<!-- Node28455 -->
<g id="node28" class="node">
<title>Node28455</title>
<g id="a_node28"><a xlink:href="quickjs_8c.html#a0da6493b4bc0edb7ddddfab807241d0b" target="_top" xlink:title="js_json_check">
<polygon fill="none" stroke="#ff0000" points="450,-772.5 450,-791.5 529,-791.5 529,-772.5 450,-772.5"/>
<text text-anchor="middle" x="489.5" y="-779.5" font-family="Helvetica,sans-Serif" font-size="10.00" fill="#000000">js_json_check</text>
</a>
</g>
</g>
<!-- Node28392&#45;&gt;Node28455 -->
<g id="edge34" class="edge">
<title>Node28392&#45;&gt;Node28455</title>
<path fill="none" stroke="#191970" d="M329.3081,-462.6683C343.4505,-491.6542 370.4505,-549.5149 387,-601 409.571,-671.2179 372.4243,-709.3148 423,-763 430.0808,-770.5161 439.9089,-775.1265 449.8395,-777.9354"/>
<polygon fill="#191970" stroke="#191970" points="332.4383,-461.1022 324.8802,-453.6776 326.1586,-464.195 332.4383,-461.1022"/>
</g>
<!-- Node28437&#45;&gt;Node28437 -->
<g id="edge19" class="edge">
<title>Node28437&#45;&gt;Node28437</title>
<path fill="none" stroke="#191970" d="M458.0629,-142.2746C458.9592,-147.741 469.4382,-152 489.5,-152 519.3594,-152 527.9906,-142.5653 515.3937,-133.7571"/>
<polygon fill="#191970" stroke="#191970" points="461.085,-144.0475 463.6063,-133.7571 455.2181,-140.2291 461.085,-144.0475"/>
</g>
<!-- Node28441&#45;&gt;Node28371 -->
<g id="edge21" class="edge">
<title>Node28441&#45;&gt;Node28371</title>
<path fill="none" stroke="#191970" d="M444.4767,-22.3981C437.2683,-24.5168 429.9102,-26.7595 423,-29 289.5843,-72.2574 132.5866,-132.428 73.2982,-155.4883"/>
<polygon fill="#191970" stroke="#191970" points="445.5239,-25.7388 454.1574,-19.5977 443.5787,-19.0145 445.5239,-25.7388"/>
</g>
<!-- Node28444&#45;&gt;Node28372 -->
<g id="edge23" class="edge">
<title>Node28444&#45;&gt;Node28372</title>
<path fill="none" stroke="#191970" d="M434.0999,-60.3896C430.1781,-62.2881 426.4262,-64.4768 423,-67 399.4756,-84.3243 403.0195,-97.5684 387,-122 306.1337,-245.3303 207.6633,-395.0922 181.9082,-434.2561"/>
<polygon fill="#191970" stroke="#191970" points="435.6097,-63.5521 443.4858,-56.4657 432.9096,-57.0937 435.6097,-63.5521"/>
</g>
<!-- Node28450&#45;&gt;Node28450 -->
<g id="edge30" class="edge">
<title>Node28450&#45;&gt;Node28450</title>
<path fill="none" stroke="#191970" d="M458.0629,-592.2746C458.9592,-597.741 469.4382,-602 489.5,-602 519.3594,-602 527.9906,-592.5653 515.3937,-583.7571"/>
<polygon fill="#191970" stroke="#191970" points="461.085,-594.0475 463.6063,-583.7571 455.2181,-590.2291 461.085,-594.0475"/>
</g>
<!-- Node28453&#45;&gt;Node28453 -->
<g id="edge33" class="edge">
<title>Node28453&#45;&gt;Node28453</title>
<path fill="none" stroke="#191970" d="M458.0629,-536.2746C458.9592,-541.741 469.4382,-546 489.5,-546 519.3594,-546 527.9906,-536.5653 515.3937,-527.7571"/>
<polygon fill="#191970" stroke="#191970" points="461.085,-538.0475 463.6063,-527.7571 455.2181,-534.2291 461.085,-538.0475"/>
</g>
<!-- Node28477&#45;&gt;Node28372 -->
<g id="edge36" class="edge">
<title>Node28477&#45;&gt;Node28372</title>
<path fill="none" stroke="#191970" d="M291.7961,-418.8979C270.5982,-425.8825 241.2201,-433.8432 217.2954,-439.1948"/>
<polygon fill="#191970" stroke="#191970" points="293.1689,-422.127 301.4855,-415.5632 290.8909,-415.508 293.1689,-422.127"/>
</g>
<!-- Node28491&#45;&gt;Node28372 -->
<g id="edge38" class="edge">
<title>Node28491&#45;&gt;Node28372</title>
<path fill="none" stroke="#191970" d="M302.2915,-603.0443C269.594,-566.5722 201.248,-482.734 181.1646,-453.733"/>
<polygon fill="#191970" stroke="#191970" points="299.7356,-605.436 309.0622,-610.4625 304.9059,-600.717 299.7356,-605.436"/>
</g>
<!-- Node28491&#45;&gt;Node28452 -->
<g id="edge40" class="edge">
<title>Node28491&#45;&gt;Node28452</title>
<path fill="none" stroke="#191970" d="M325.5168,-639.161C337.1754,-676.1827 367.8811,-757.7013 423,-801 429.2318,-805.8954 436.6705,-809.5295 444.2794,-812.2273"/>
<polygon fill="#191970" stroke="#191970" points="328.8631,-638.1349 322.6159,-629.5778 322.1634,-640.163 328.8631,-638.1349"/>
</g>
<!-- Node28491&#45;&gt;Node28455 -->
<g id="edge39" class="edge">
<title>Node28491&#45;&gt;Node28455</title>
<path fill="none" stroke="#191970" d="M328.4526,-638.9019C343.1701,-669.6356 376.4407,-730.2892 423,-763 430.9581,-768.591 440.5377,-772.5462 449.916,-775.3408"/>
<polygon fill="#191970" stroke="#191970" points="331.5691,-637.303 324.1803,-629.7098 325.2212,-640.2534 331.5691,-637.303"/>
</g>
</g>
</svg>
        <g id="navigator" transform="translate(0 0)" fill="#404254">
                <rect fill="#f2f5e9" fill-opacity="0.5" stroke="#606060" stroke-width=".5" x="0" y="0" width="60" height="60"/>
                <use id="zoomplus" xlink:href="#zoomPlus" x="17" y="9" onmousedown="handleZoom(evt,'in')"/>
                <use id="zoomminus" xlink:href="#zoomMin" x="42" y="9" onmousedown="handleZoom(evt,'out')"/>
                <use id="reset" xlink:href="#resetDef" x="30" y="36" onmousedown="handleReset()"/>
                <g id="arrowUp" xlink:href="#dirArrow" transform="translate(30 24)" onmousedown="handlePan(0,-1)">
                  <use xlink:href="#rim" fill="#404040">
                        <set attributeName="fill" to="#808080" begin="arrowUp.mouseover" end="arrowUp.mouseout"/>
                  </use>
                  <path fill="none" stroke="white" stroke-width="1.5" d="M0,-3.0v7 M-2.5,-0.5L0,-3.0L2.5,-0.5"/>
                </g>
                <g id="arrowRight" xlink:href="#dirArrow" transform="rotate(90) translate(36 -43)" onmousedown="handlePan(1,0)">
                  <use xlink:href="#rim" fill="#404040">
                        <set attributeName="fill" to="#808080" begin="arrowRight.mouseover" end="arrowRight.mouseout"/>
                  </use>
                  <path fill="none" stroke="white" stroke-width="1.5" d="M0,-3.0v7 M-2.5,-0.5L0,-3.0L2.5,-0.5"/>
                </g>
                <g id="arrowDown" xlink:href="#dirArrow" transform="rotate(180) translate(-30 -48)" onmousedown="handlePan(0,1)">
                  <use xlink:href="#rim" fill="#404040">
                        <set attributeName="fill" to="#808080" begin="arrowDown.mouseover" end="arrowDown.mouseout"/>
                  </use>
                  <path fill="none" stroke="white" stroke-width="1.5" d="M0,-3.0v7 M-2.5,-0.5L0,-3.0L2.5,-0.5"/>
                </g>
                <g id="arrowLeft" xlink:href="#dirArrow" transform="rotate(270) translate(-36 17)" onmousedown="handlePan(-1,0)">
                  <use xlink:href="#rim" fill="#404040">
                        <set attributeName="fill" to="#808080" begin="arrowLeft.mouseover" end="arrowLeft.mouseout"/>
                  </use>
                  <path fill="none" stroke="white" stroke-width="1.5" d="M0,-3.0v7 M-2.5,-0.5L0,-3.0L2.5,-0.5"/>
                </g>
        </g>
        <svg viewBox="0 0 15 15" width="100%" height="30px" preserveAspectRatio="xMaxYMin meet">
         <g id="arrow_out" transform="scale(0.3 0.3)">
          <a xlink:href="quickjs_8c_a50e94675d1c4cf67c88e72169ea3c21a_icgraph_org.svg" target="_base">
           <rect id="button" ry="5" rx="5" y="6" x="6" height="38" width="38"
                fill="#f2f5e9" fill-opacity="0.5" stroke="#606060" stroke-width="1.0"/>
           <path id="arrow"
             d="M 11.500037,31.436501 C 11.940474,20.09759 22.043105,11.32322 32.158766,21.979434 L 37.068811,17.246167 C 37.068811,17.246167 37.088388,32 37.088388,32 L 22.160133,31.978069 C 22.160133,31.978069 26.997745,27.140456 26.997745,27.140456 C 18.528582,18.264221 13.291696,25.230495 11.500037,31.436501 z"
             style="fill:#404040;"/>
          </a>
         </g>
        </svg>
</svg>
