<?xml version="1.0" encoding="UTF-8" standalone="no"?>
<!DOCTYPE svg PUBLIC "-//W3C//DTD SVG 1.1//EN"
 "http://www.w3.org/Graphics/SVG/1.1/DTD/svg11.dtd">
<!-- Generated by graphviz version 2.40.1 (20161225.0304)
 -->
<!-- Title: js_for_of_next Pages: 1 -->
<!--zoomable 1013 -->
<svg id="main" version="1.1" xmlns="http://www.w3.org/2000/svg" xmlns:xlink="http://www.w3.org/1999/xlink" xml:space="preserve" onload="init(evt)">
<style type="text/css"><![CDATA[
.edge:hover path { stroke: red; }
.edge:hover polygon { stroke: red; fill: red; }
]]></style>
<script type="text/javascript"><![CDATA[
var edges = document.getElementsByTagName('g');
if (edges && edges.length) {
  for (var i=0;i<edges.length;i++) {
    if (edges[i].id.substr(0,4)=='edge') {
      edges[i].setAttribute('class','edge');
    }
  }
}
]]></script>
        <defs>
                <circle id="rim" cx="0" cy="0" r="7"/>
                <circle id="rim2" cx="0" cy="0" r="3.5"/>
                <g id="zoomPlus">
                        <use xlink:href="#rim" fill="#404040">
                                <set attributeName="fill" to="#808080" begin="zoomplus.mouseover" end="zoomplus.mouseout"/>
                        </use>
                        <path d="M-4,0h8M0,-4v8" fill="none" stroke="white" stroke-width="1.5" pointer-events="none"/>
                </g>
                <g id="zoomMin">
                        <use xlink:href="#rim" fill="#404040">
                                <set attributeName="fill" to="#808080" begin="zoomminus.mouseover" end="zoomminus.mouseout"/>
                        </use>
                        <path d="M-4,0h8" fill="none" stroke="white" stroke-width="1.5" pointer-events="none"/>
                </g>
                <g id="dirArrow">
                        <path fill="none" stroke="white" stroke-width="1.5" d="M0,-3.0v7 M-2.5,-0.5L0,-3.0L2.5,-0.5"/>
                </g>
               <g id="resetDef">
                       <use xlink:href="#rim2" fill="#404040">
                               <set attributeName="fill" to="#808080" begin="reset.mouseover" end="reset.mouseout"/>
                       </use>
               </g>
        </defs>

<script type="text/javascript">
var viewWidth = 544;
var viewHeight = 1013;
var sectionId = 'dynsection-819';
</script>
<script xlink:href="svgpan.js"/>
<svg id="graph" class="graph">
<g id="viewport">
<title>js_for_of_next</title>
<!-- Node286832 -->
<g id="node1" class="node">
<title>Node286832</title>
<polygon fill="#bfbfbf" stroke="#000000" points="0,-274.5 0,-293.5 78,-293.5 78,-274.5 0,-274.5"/>
<text text-anchor="middle" x="39" y="-281.5" font-family="Helvetica,sans-Serif" font-size="10.00" fill="#000000">js_for_of_next</text>
</g>
<!-- Node286833 -->
<g id="node2" class="node">
<title>Node286833</title>
<g id="a_node2"><a xlink:href="quickjs_8c.html#ac2894ff4edcdb4e6841bcce9c76081e3" target="_top" xlink:title="JS_CallInternal">
<polygon fill="none" stroke="#000000" points="114,-274.5 114,-293.5 197,-293.5 197,-274.5 114,-274.5"/>
<text text-anchor="middle" x="155.5" y="-281.5" font-family="Helvetica,sans-Serif" font-size="10.00" fill="#000000">JS_CallInternal</text>
</a>
</g>
</g>
<!-- Node286832&#45;&gt;Node286833 -->
<g id="edge1" class="edge">
<title>Node286832&#45;&gt;Node286833</title>
<path fill="none" stroke="#191970" d="M88.3213,-284C96.8345,-284 105.6082,-284 113.8919,-284"/>
<polygon fill="#191970" stroke="#191970" points="88.1169,-280.5001 78.1169,-284 88.1169,-287.5001 88.1169,-280.5001"/>
</g>
<!-- Node286833&#45;&gt;Node286833 -->
<g id="edge40" class="edge">
<title>Node286833&#45;&gt;Node286833</title>
<path fill="none" stroke="#191970" d="M134.0196,-303.4C135.4541,-308.3146 142.6143,-312 155.5,-312 176.1172,-312 182.0768,-302.5653 173.379,-293.7571"/>
<polygon fill="#191970" stroke="#191970" points="137.401,-304.3496 137.621,-293.7571 130.8434,-301.9004 137.401,-304.3496"/>
</g>
<!-- Node286834 -->
<g id="node3" class="node">
<title>Node286834</title>
<g id="a_node3"><a xlink:href="quickjs_8c.html#ade71a22dc56e7371392393df663b28b3" target="_top" xlink:title="async_func_resume">
<polygon fill="none" stroke="#000000" points="248,-892.5 248,-911.5 352,-911.5 352,-892.5 248,-892.5"/>
<text text-anchor="middle" x="300" y="-899.5" font-family="Helvetica,sans-Serif" font-size="10.00" fill="#000000">async_func_resume</text>
</a>
</g>
</g>
<!-- Node286833&#45;&gt;Node286834 -->
<g id="edge2" class="edge">
<title>Node286833&#45;&gt;Node286834</title>
<path fill="none" stroke="#191970" d="M160.0805,-303.5901C182.6381,-400.0646 281.4849,-822.8142 297.7352,-892.3141"/>
<polygon fill="#191970" stroke="#191970" points="163.4547,-302.6478 157.7697,-293.7073 156.6385,-304.2416 163.4547,-302.6478"/>
</g>
<!-- Node286853 -->
<g id="node8" class="node">
<title>Node286853</title>
<g id="a_node8"><a xlink:href="quickjs_8c.html#a1a4c02a29525d5cb2085dd8bca3af350" target="_top" xlink:title="JS_Call">
<polygon fill="none" stroke="#ff0000" points="274.5,-366.5 274.5,-385.5 325.5,-385.5 325.5,-366.5 274.5,-366.5"/>
<text text-anchor="middle" x="300" y="-373.5" font-family="Helvetica,sans-Serif" font-size="10.00" fill="#000000">JS_Call</text>
</a>
</g>
</g>
<!-- Node286833&#45;&gt;Node286853 -->
<g id="edge7" class="edge">
<title>Node286833&#45;&gt;Node286853</title>
<path fill="none" stroke="#191970" d="M187.5346,-298.6777C220.4699,-317.7532 269.7662,-349.8516 290.3895,-366.3007"/>
<polygon fill="#191970" stroke="#191970" points="189.1399,-295.5643 178.7164,-293.6666 185.6814,-301.6503 189.1399,-295.5643"/>
</g>
<!-- Node286938 -->
<g id="node29" class="node">
<title>Node286938</title>
<g id="a_node29"><a xlink:href="quickjs_8c.html#ad35594576a14c10812efaf958c99af8a" target="_top" xlink:title="JS_CallConstructorInternal">
<polygon fill="none" stroke="#ff0000" points="233,-274.5 233,-293.5 367,-293.5 367,-274.5 233,-274.5"/>
<text text-anchor="middle" x="300" y="-281.5" font-family="Helvetica,sans-Serif" font-size="10.00" fill="#000000">JS_CallConstructorInternal</text>
</a>
</g>
</g>
<!-- Node286833&#45;&gt;Node286938 -->
<g id="edge34" class="edge">
<title>Node286833&#45;&gt;Node286938</title>
<path fill="none" stroke="#191970" d="M207.5209,-277.4909C215.7845,-277.2892 224.4321,-277.2142 232.9815,-277.2658"/>
<polygon fill="#191970" stroke="#191970" points="207.1798,-273.9998 197.2954,-277.814 207.401,-280.9963 207.1798,-273.9998"/>
</g>
<!-- Node286952 -->
<g id="node30" class="node">
<title>Node286952</title>
<g id="a_node30"><a xlink:href="quickjs_8c.html#a75f6ee5e4235a7dc99889f3d2eb2c147" target="_top" xlink:title="JS_CallFree">
<polygon fill="none" stroke="#ff0000" points="264.5,-91.5 264.5,-110.5 335.5,-110.5 335.5,-91.5 264.5,-91.5"/>
<text text-anchor="middle" x="300" y="-98.5" font-family="Helvetica,sans-Serif" font-size="10.00" fill="#000000">JS_CallFree</text>
</a>
</g>
</g>
<!-- Node286833&#45;&gt;Node286952 -->
<g id="edge36" class="edge">
<title>Node286833&#45;&gt;Node286952</title>
<path fill="none" stroke="#191970" d="M158.7023,-264.4197C166.2042,-229.2158 187.8044,-156.4964 233,-116 241.742,-108.167 253.2224,-102.8425 264.2049,-99.7033"/>
<polygon fill="#191970" stroke="#191970" points="155.2265,-263.9582 156.75,-274.4429 162.0974,-265.2965 155.2265,-263.9582"/>
</g>
<!-- Node286835 -->
<g id="node4" class="node">
<title>Node286835</title>
<g id="a_node4"><a xlink:href="quickjs_8c.html#ac90552b1f1659acb3dae9a4c62479a30" target="_top" xlink:title="js_generator_function_call">
<polygon fill="none" stroke="#ff0000" points="404.5,-985.5 404.5,-1004.5 534.5,-1004.5 534.5,-985.5 404.5,-985.5"/>
<text text-anchor="middle" x="469.5" y="-992.5" font-family="Helvetica,sans-Serif" font-size="10.00" fill="#000000">js_generator_function_call</text>
</a>
</g>
</g>
<!-- Node286834&#45;&gt;Node286835 -->
<g id="edge3" class="edge">
<title>Node286834&#45;&gt;Node286835</title>
<path fill="none" stroke="#191970" d="M318.4671,-918.3133C338.1641,-934.9499 370.8865,-960.4617 403,-976 410.782,-979.7654 419.4469,-982.9157 427.8825,-985.499"/>
<polygon fill="#191970" stroke="#191970" points="320.488,-915.4351 310.6226,-911.5717 315.9255,-920.7439 320.488,-915.4351"/>
</g>
<!-- Node286844 -->
<g id="node5" class="node">
<title>Node286844</title>
<g id="a_node5"><a xlink:href="quickjs_8c.html#a1bf6b62983e8fff99c0a5d5a9f486115" target="_top" xlink:title="js_async_function_resume">
<polygon fill="none" stroke="#ff0000" points="403,-848.5 403,-867.5 536,-867.5 536,-848.5 403,-848.5"/>
<text text-anchor="middle" x="469.5" y="-855.5" font-family="Helvetica,sans-Serif" font-size="10.00" fill="#000000">js_async_function_resume</text>
</a>
</g>
</g>
<!-- Node286834&#45;&gt;Node286844 -->
<g id="edge4" class="edge">
<title>Node286834&#45;&gt;Node286844</title>
<path fill="none" stroke="#191970" d="M346.4651,-889.9383C373.6496,-882.8815 407.4877,-874.0976 432.7928,-867.5287"/>
<polygon fill="#191970" stroke="#191970" points="345.5787,-886.5523 336.779,-892.4527 347.3376,-893.3277 345.5787,-886.5523"/>
</g>
<!-- Node286851 -->
<g id="node6" class="node">
<title>Node286851</title>
<g id="a_node6"><a xlink:href="quickjs_8c.html#a89b019c704a2d2914bc30b30a72040b3" target="_top" xlink:title="js_async_generator\l_resume_next">
<polygon fill="none" stroke="#000000" points="419,-936 419,-966 520,-966 520,-936 419,-936"/>
<text text-anchor="start" x="427" y="-954" font-family="Helvetica,sans-Serif" font-size="10.00" fill="#000000">js_async_generator</text>
<text text-anchor="middle" x="469.5" y="-943" font-family="Helvetica,sans-Serif" font-size="10.00" fill="#000000">_resume_next</text>
</a>
</g>
</g>
<!-- Node286834&#45;&gt;Node286851 -->
<g id="edge5" class="edge">
<title>Node286834&#45;&gt;Node286851</title>
<path fill="none" stroke="#191970" d="M342.9372,-914.4125C366.0226,-921.0862 394.6309,-929.3564 418.805,-936.3448"/>
<polygon fill="#191970" stroke="#191970" points="343.6623,-910.9789 333.0837,-911.564 341.7183,-917.7036 343.6623,-910.9789"/>
</g>
<!-- Node286852 -->
<g id="node7" class="node">
<title>Node286852</title>
<g id="a_node7"><a xlink:href="quickjs_8c.html#ae19867da709929c072f05e90301835a4" target="_top" xlink:title="js_async_generator\l_function_call">
<polygon fill="none" stroke="#ff0000" points="419,-887 419,-917 520,-917 520,-887 419,-887"/>
<text text-anchor="start" x="427" y="-905" font-family="Helvetica,sans-Serif" font-size="10.00" fill="#000000">js_async_generator</text>
<text text-anchor="middle" x="469.5" y="-894" font-family="Helvetica,sans-Serif" font-size="10.00" fill="#000000">_function_call</text>
</a>
</g>
</g>
<!-- Node286834&#45;&gt;Node286852 -->
<g id="edge6" class="edge">
<title>Node286834&#45;&gt;Node286852</title>
<path fill="none" stroke="#191970" d="M362.388,-902C380.9885,-902 401.1368,-902 418.8866,-902"/>
<polygon fill="#191970" stroke="#191970" points="362.2387,-898.5001 352.2387,-902 362.2386,-905.5001 362.2387,-898.5001"/>
</g>
<!-- Node286853&#45;&gt;Node286833 -->
<g id="edge14" class="edge">
<title>Node286853&#45;&gt;Node286833</title>
<path fill="none" stroke="#191970" d="M268.2443,-361.4837C235.24,-342.3885 185.5848,-310.0599 164.981,-293.5959"/>
<polygon fill="#191970" stroke="#191970" points="266.649,-364.6027 277.0736,-366.4945 270.104,-358.5148 266.649,-364.6027"/>
</g>
<!-- Node286853&#45;&gt;Node286844 -->
<g id="edge15" class="edge">
<title>Node286853&#45;&gt;Node286844</title>
<path fill="none" stroke="#191970" d="M301.7375,-395.7477C309.14,-475.5029 340.5618,-772.7381 403,-839 406.6232,-842.845 410.9653,-845.9296 415.6723,-848.4016"/>
<polygon fill="#191970" stroke="#191970" points="305.2073,-395.2551 300.8188,-385.6119 298.2359,-395.8871 305.2073,-395.2551"/>
</g>
<!-- Node286854 -->
<g id="node9" class="node">
<title>Node286854</title>
<g id="a_node9"><a xlink:href="structqjs_1_1js__traits_3_01std_1_1function_3_01R_07Args_8_8_8_08_4_01_4.html#ac449e51d3fe10c6c115596fa6ec278ee" target="_top" xlink:title="qjs::js_traits\&lt; std\l::function\&lt; R(Args...)\l\&gt; \&gt;::unwrap">
<polygon fill="none" stroke="#000000" points="415,-600.5 415,-641.5 524,-641.5 524,-600.5 415,-600.5"/>
<text text-anchor="start" x="423" y="-629.5" font-family="Helvetica,sans-Serif" font-size="10.00" fill="#000000">qjs::js_traits&lt; std</text>
<text text-anchor="start" x="423" y="-618.5" font-family="Helvetica,sans-Serif" font-size="10.00" fill="#000000">::function&lt; R(Args...)</text>
<text text-anchor="middle" x="469.5" y="-607.5" font-family="Helvetica,sans-Serif" font-size="10.00" fill="#000000">&gt; &gt;::unwrap</text>
</a>
</g>
</g>
<!-- Node286853&#45;&gt;Node286854 -->
<g id="edge8" class="edge">
<title>Node286853&#45;&gt;Node286854</title>
<path fill="none" stroke="#191970" d="M304.4623,-395.375C314.8697,-436.57 344.4328,-533.763 403,-591 406.5327,-594.4525 410.5324,-597.5493 414.7748,-600.3186"/>
<polygon fill="#191970" stroke="#191970" points="307.8332,-394.4238 302.0752,-385.5302 301.0303,-396.0734 307.8332,-394.4238"/>
</g>
<!-- Node286855 -->
<g id="node10" class="node">
<title>Node286855</title>
<g id="a_node10"><a xlink:href="quickjs-libc_8c.html#abb1cbe3fdf905e81f603a3a0bfce475a" target="_top" xlink:title="call_handler">
<polygon fill="none" stroke="#000000" points="435.5,-562.5 435.5,-581.5 503.5,-581.5 503.5,-562.5 435.5,-562.5"/>
<text text-anchor="middle" x="469.5" y="-569.5" font-family="Helvetica,sans-Serif" font-size="10.00" fill="#000000">call_handler</text>
</a>
</g>
</g>
<!-- Node286853&#45;&gt;Node286855 -->
<g id="edge9" class="edge">
<title>Node286853&#45;&gt;Node286855</title>
<path fill="none" stroke="#191970" d="M305.9669,-395.7267C318.0804,-432.3807 349.0815,-511.0638 403,-553 412.2883,-560.2242 424.2106,-564.7017 435.3889,-567.4768"/>
<polygon fill="#191970" stroke="#191970" points="309.173,-394.2588 302.8095,-385.7879 302.5016,-396.3783 309.173,-394.2588"/>
</g>
<!-- Node286856 -->
<g id="node11" class="node">
<title>Node286856</title>
<g id="a_node11"><a xlink:href="quickjs-libc_8c.html#a9fa4c190ba56314c7ed9b00bbc7ad0f9" target="_top" xlink:title="handle_posted_message">
<polygon fill="none" stroke="#000000" points="407,-524.5 407,-543.5 532,-543.5 532,-524.5 407,-524.5"/>
<text text-anchor="middle" x="469.5" y="-531.5" font-family="Helvetica,sans-Serif" font-size="10.00" fill="#000000">handle_posted_message</text>
</a>
</g>
</g>
<!-- Node286853&#45;&gt;Node286856 -->
<g id="edge10" class="edge">
<title>Node286853&#45;&gt;Node286856</title>
<path fill="none" stroke="#191970" d="M308.8132,-394.8068C323.8433,-424.8129 357.3,-483.3519 403,-515 408.6266,-518.8965 415.0444,-521.9998 421.6221,-524.4699"/>
<polygon fill="#191970" stroke="#191970" points="311.9551,-393.2643 304.4314,-385.8048 305.6611,-396.328 311.9551,-393.2643"/>
</g>
<!-- Node286857 -->
<g id="node12" class="node">
<title>Node286857</title>
<g id="a_node12"><a xlink:href="quickjs_8c.html#aa049793cc8648d35fe81876a2543ca4e" target="_top" xlink:title="JS_GetIterator2">
<polygon fill="none" stroke="#ff0000" points="426.5,-486.5 426.5,-505.5 512.5,-505.5 512.5,-486.5 426.5,-486.5"/>
<text text-anchor="middle" x="469.5" y="-493.5" font-family="Helvetica,sans-Serif" font-size="10.00" fill="#000000">JS_GetIterator2</text>
</a>
</g>
</g>
<!-- Node286853&#45;&gt;Node286857 -->
<g id="edge11" class="edge">
<title>Node286853&#45;&gt;Node286857</title>
<path fill="none" stroke="#191970" d="M313.3664,-393.7373C331.3204,-416.3395 365.3525,-455.0958 403,-477 410.161,-481.1665 418.2929,-484.4672 426.3519,-487.0663"/>
<polygon fill="#191970" stroke="#191970" points="315.9953,-391.4163 307.0957,-385.6676 310.4679,-395.7114 315.9953,-391.4163"/>
</g>
<!-- Node286889 -->
<g id="node13" class="node">
<title>Node286889</title>
<g id="a_node13"><a xlink:href="quickjs_8c.html#ad6303fbd3add4afa0cb64b0aa6d431ce" target="_top" xlink:title="JS_IteratorNext2">
<polygon fill="none" stroke="#ff0000" points="424,-448.5 424,-467.5 515,-467.5 515,-448.5 424,-448.5"/>
<text text-anchor="middle" x="469.5" y="-455.5" font-family="Helvetica,sans-Serif" font-size="10.00" fill="#000000">JS_IteratorNext2</text>
</a>
</g>
</g>
<!-- Node286853&#45;&gt;Node286889 -->
<g id="edge12" class="edge">
<title>Node286853&#45;&gt;Node286889</title>
<path fill="none" stroke="#191970" d="M321.4657,-391.5216C341.6737,-405.5409 373.2058,-425.922 403,-439 411.3559,-442.6678 420.6114,-445.8323 429.496,-448.4693"/>
<polygon fill="#191970" stroke="#191970" points="323.2159,-388.4733 313.0246,-385.577 319.1853,-394.1965 323.2159,-388.4733"/>
</g>
<!-- Node286892 -->
<g id="node14" class="node">
<title>Node286892</title>
<g id="a_node14"><a xlink:href="quickjs_8c.html#afd4ef2d701fa0702f321925b61c57bbf" target="_top" xlink:title="js_call_bound_function">
<polygon fill="none" stroke="#ff0000" points="411.5,-410.5 411.5,-429.5 527.5,-429.5 527.5,-410.5 411.5,-410.5"/>
<text text-anchor="middle" x="469.5" y="-417.5" font-family="Helvetica,sans-Serif" font-size="10.00" fill="#000000">js_call_bound_function</text>
</a>
</g>
</g>
<!-- Node286853&#45;&gt;Node286892 -->
<g id="edge13" class="edge">
<title>Node286853&#45;&gt;Node286892</title>
<path fill="none" stroke="#191970" d="M335.6969,-385.2665C364.2137,-392.669 404.0299,-403.0048 432.8058,-410.4747"/>
<polygon fill="#191970" stroke="#191970" points="336.302,-381.8076 325.7434,-382.6827 334.5432,-388.583 336.302,-381.8076"/>
</g>
<!-- Node286893 -->
<g id="node15" class="node">
<title>Node286893</title>
<g id="a_node15"><a xlink:href="quickjs_8c.html#a3e852026d167fa03c673f86697dd3e67" target="_top" xlink:title="js_async_generator\l_resolve_or_reject">
<polygon fill="none" stroke="#ff0000" points="419,-361 419,-391 520,-391 520,-361 419,-361"/>
<text text-anchor="start" x="427" y="-379" font-family="Helvetica,sans-Serif" font-size="10.00" fill="#000000">js_async_generator</text>
<text text-anchor="middle" x="469.5" y="-368" font-family="Helvetica,sans-Serif" font-size="10.00" fill="#000000">_resolve_or_reject</text>
</a>
</g>
</g>
<!-- Node286853&#45;&gt;Node286893 -->
<g id="edge16" class="edge">
<title>Node286853&#45;&gt;Node286893</title>
<path fill="none" stroke="#191970" d="M335.8847,-376C360.0145,-376 392.1716,-376 418.8919,-376"/>
<polygon fill="#191970" stroke="#191970" points="335.7434,-372.5001 325.7434,-376 335.7434,-379.5001 335.7434,-372.5001"/>
</g>
<!-- Node286896 -->
<g id="node16" class="node">
<title>Node286896</title>
<g id="a_node16"><a xlink:href="quickjs_8c.html#a2355fabf91f59212ea65baba1b0b7c1b" target="_top" xlink:title="js_async_generator_next">
<polygon fill="none" stroke="#000000" points="407,-322.5 407,-341.5 532,-341.5 532,-322.5 407,-322.5"/>
<text text-anchor="middle" x="469.5" y="-329.5" font-family="Helvetica,sans-Serif" font-size="10.00" fill="#000000">js_async_generator_next</text>
</a>
</g>
</g>
<!-- Node286853&#45;&gt;Node286896 -->
<g id="edge17" class="edge">
<title>Node286853&#45;&gt;Node286896</title>
<path fill="none" stroke="#191970" d="M335.6969,-366.7335C364.2137,-359.331 404.0299,-348.9952 432.8058,-341.5253"/>
<polygon fill="#191970" stroke="#191970" points="334.5432,-363.417 325.7434,-369.3173 336.302,-370.1924 334.5432,-363.417"/>
</g>
<!-- Node286897 -->
<g id="node17" class="node">
<title>Node286897</title>
<g id="a_node17"><a xlink:href="quickjs_8c.html#adc0280beaa04d2b8fcaf05a82ab26c74" target="_top" xlink:title="js_link_module">
<polygon fill="none" stroke="#ff0000" points="429,-266.5 429,-285.5 510,-285.5 510,-266.5 429,-266.5"/>
<text text-anchor="middle" x="469.5" y="-273.5" font-family="Helvetica,sans-Serif" font-size="10.00" fill="#000000">js_link_module</text>
</a>
</g>
</g>
<!-- Node286853&#45;&gt;Node286897 -->
<g id="edge18" class="edge">
<title>Node286853&#45;&gt;Node286897</title>
<path fill="none" stroke="#191970" d="M323.7375,-361.0979C344.5068,-348.1514 375.5605,-329.0161 403,-313 419.4309,-303.4095 438.4181,-292.9013 451.8868,-285.5423"/>
<polygon fill="#191970" stroke="#191970" points="321.8638,-358.1416 315.2377,-366.4087 325.573,-364.0781 321.8638,-358.1416"/>
</g>
<!-- Node286901 -->
<g id="node18" class="node">
<title>Node286901</title>
<g id="a_node18"><a xlink:href="quickjs_8c.html#a6357b7fdae71c70c140e78e6c20cb5c2" target="_top" xlink:title="js_dynamic_import_job">
<polygon fill="none" stroke="#ff0000" points="411.5,-228.5 411.5,-247.5 527.5,-247.5 527.5,-228.5 411.5,-228.5"/>
<text text-anchor="middle" x="469.5" y="-235.5" font-family="Helvetica,sans-Serif" font-size="10.00" fill="#000000">js_dynamic_import_job</text>
</a>
</g>
</g>
<!-- Node286853&#45;&gt;Node286901 -->
<g id="edge20" class="edge">
<title>Node286853&#45;&gt;Node286901</title>
<path fill="none" stroke="#191970" d="M316.313,-358.9947C330.127,-344.4148 350.2908,-322.7052 367,-303 383.7901,-283.1993 381.4645,-271.4981 403,-257 408.777,-253.1108 415.3497,-250.0087 422.0612,-247.5365"/>
<polygon fill="#191970" stroke="#191970" points="313.7152,-356.6475 309.3541,-366.3032 318.7847,-361.4745 313.7152,-356.6475"/>
</g>
<!-- Node286905 -->
<g id="node19" class="node">
<title>Node286905</title>
<g id="a_node19"><a xlink:href="quickjs_8c.html#a8d4b24969540aff427939eeda47f451d" target="_top" xlink:title="js_function_apply">
<polygon fill="none" stroke="#ff0000" points="423.5,-76.5 423.5,-95.5 515.5,-95.5 515.5,-76.5 423.5,-76.5"/>
<text text-anchor="middle" x="469.5" y="-83.5" font-family="Helvetica,sans-Serif" font-size="10.00" fill="#000000">js_function_apply</text>
</a>
</g>
</g>
<!-- Node286853&#45;&gt;Node286905 -->
<g id="edge21" class="edge">
<title>Node286853&#45;&gt;Node286905</title>
<path fill="none" stroke="#191970" d="M320.299,-359.5976C335.6111,-346.0634 355.8252,-325.4865 367,-303 406.8049,-222.9027 342.9429,-171.2808 403,-105 408.4824,-98.9495 415.7442,-94.7728 423.4534,-91.9012"/>
<polygon fill="#191970" stroke="#191970" points="317.7143,-357.2024 312.3852,-366.3594 322.2616,-362.5243 317.7143,-357.2024"/>
</g>
<!-- Node286908 -->
<g id="node20" class="node">
<title>Node286908</title>
<g id="a_node20"><a xlink:href="quickjs_8c.html#a677ad630a103e1f3d5129e0549112b50" target="_top" xlink:title="js_function_call">
<polygon fill="none" stroke="#000000" points="427.5,-190.5 427.5,-209.5 511.5,-209.5 511.5,-190.5 427.5,-190.5"/>
<text text-anchor="middle" x="469.5" y="-197.5" font-family="Helvetica,sans-Serif" font-size="10.00" fill="#000000">js_function_call</text>
</a>
</g>
</g>
<!-- Node286853&#45;&gt;Node286908 -->
<g id="edge23" class="edge">
<title>Node286853&#45;&gt;Node286908</title>
<path fill="none" stroke="#191970" d="M318.436,-359.3048C333.0412,-345.3428 353.2135,-324.3334 367,-303 389.0459,-268.8861 372.5199,-245.8467 403,-219 409.8479,-212.9684 418.4908,-208.8435 427.2594,-206.0248"/>
<polygon fill="#191970" stroke="#191970" points="315.8788,-356.9044 310.9706,-366.2938 320.6628,-362.0145 315.8788,-356.9044"/>
</g>
<!-- Node286882 -->
<g id="node21" class="node">
<title>Node286882</title>
<g id="a_node21"><a xlink:href="quickjs_8c.html#a5e32da9a43002cb96dcbd62a1a340144" target="_top" xlink:title="js_array_from">
<polygon fill="none" stroke="#000000" points="431.5,-152.5 431.5,-171.5 507.5,-171.5 507.5,-152.5 431.5,-152.5"/>
<text text-anchor="middle" x="469.5" y="-159.5" font-family="Helvetica,sans-Serif" font-size="10.00" fill="#000000">js_array_from</text>
</a>
</g>
</g>
<!-- Node286853&#45;&gt;Node286882 -->
<g id="edge24" class="edge">
<title>Node286853&#45;&gt;Node286882</title>
<path fill="none" stroke="#191970" d="M319.3822,-359.4856C334.3583,-345.7604 354.5663,-324.9826 367,-303 394.8326,-253.7923 362.8524,-220.8023 403,-181 410.589,-173.4763 420.9387,-168.8875 431.2124,-166.1023"/>
<polygon fill="#191970" stroke="#191970" points="316.8193,-357.0814 311.683,-366.348 321.477,-362.307 316.8193,-357.0814"/>
</g>
<!-- Node286873 -->
<g id="node22" class="node">
<title>Node286873</title>
<g id="a_node22"><a xlink:href="quickjs_8c.html#aa0bbf08a7e91459c68a312fba7016c6d" target="_top" xlink:title="js_array_every">
<polygon fill="none" stroke="#000000" points="429.5,-114.5 429.5,-133.5 509.5,-133.5 509.5,-114.5 429.5,-114.5"/>
<text text-anchor="middle" x="469.5" y="-121.5" font-family="Helvetica,sans-Serif" font-size="10.00" fill="#000000">js_array_every</text>
</a>
</g>
</g>
<!-- Node286853&#45;&gt;Node286873 -->
<g id="edge25" class="edge">
<title>Node286853&#45;&gt;Node286873</title>
<path fill="none" stroke="#191970" d="M319.7794,-359.7018C334.9792,-346.0983 355.2942,-325.3786 367,-303 400.784,-238.4134 352.949,-195.9876 403,-143 409.9258,-135.6678 419.4663,-131.1018 429.16,-128.2759"/>
<polygon fill="#191970" stroke="#191970" points="317.2106,-357.2967 311.9485,-366.4925 321.7966,-362.5852 317.2106,-357.2967"/>
</g>
<!-- Node286909 -->
<g id="node23" class="node">
<title>Node286909</title>
<g id="a_node23"><a xlink:href="quickjs_8c.html#a36c1692489542a86dd79a7d39ab8ff95" target="_top" xlink:title="js_array_reduce">
<polygon fill="none" stroke="#000000" points="426.5,-810.5 426.5,-829.5 512.5,-829.5 512.5,-810.5 426.5,-810.5"/>
<text text-anchor="middle" x="469.5" y="-817.5" font-family="Helvetica,sans-Serif" font-size="10.00" fill="#000000">js_array_reduce</text>
</a>
</g>
</g>
<!-- Node286853&#45;&gt;Node286909 -->
<g id="edge26" class="edge">
<title>Node286853&#45;&gt;Node286909</title>
<path fill="none" stroke="#191970" d="M302.1388,-395.5625C310.751,-470.8717 345.2298,-740.8395 403,-801 409.3206,-807.5821 417.7493,-811.9306 426.4773,-814.7916"/>
<polygon fill="#191970" stroke="#191970" points="305.6096,-395.106 301.0173,-385.5582 298.6532,-395.8859 305.6096,-395.106"/>
</g>
<!-- Node286910 -->
<g id="node24" class="node">
<title>Node286910</title>
<g id="a_node24"><a xlink:href="quickjs_8c.html#a9dd41b086da4e13b3487cc9c6e2af2b8" target="_top" xlink:title="js_array_find">
<polygon fill="none" stroke="#000000" points="433.5,-772.5 433.5,-791.5 505.5,-791.5 505.5,-772.5 433.5,-772.5"/>
<text text-anchor="middle" x="469.5" y="-779.5" font-family="Helvetica,sans-Serif" font-size="10.00" fill="#000000">js_array_find</text>
</a>
</g>
</g>
<!-- Node286853&#45;&gt;Node286910 -->
<g id="edge27" class="edge">
<title>Node286853&#45;&gt;Node286910</title>
<path fill="none" stroke="#191970" d="M302.7077,-396.0667C312.7518,-467.6506 350.0488,-709.0773 403,-763 410.9922,-771.1388 422.2104,-775.8536 433.1597,-778.5648"/>
<polygon fill="#191970" stroke="#191970" points="306.1187,-395.1804 301.2856,-385.7522 299.1843,-396.1366 306.1187,-395.1804"/>
</g>
<!-- Node286911 -->
<g id="node25" class="node">
<title>Node286911</title>
<g id="a_node25"><a xlink:href="quickjs_8c.html#ad90c33b4aae1181151bda4a98ac2ef23" target="_top" xlink:title="JS_FlattenIntoArray">
<polygon fill="none" stroke="#ff0000" points="417.5,-716.5 417.5,-735.5 521.5,-735.5 521.5,-716.5 417.5,-716.5"/>
<text text-anchor="middle" x="469.5" y="-723.5" font-family="Helvetica,sans-Serif" font-size="10.00" fill="#000000">JS_FlattenIntoArray</text>
</a>
</g>
</g>
<!-- Node286853&#45;&gt;Node286911 -->
<g id="edge28" class="edge">
<title>Node286853&#45;&gt;Node286911</title>
<path fill="none" stroke="#191970" d="M303.5833,-395.6167C315.6742,-459.779 356.8037,-661.8714 403,-707 407.1227,-711.0274 412.0373,-714.2125 417.3019,-716.7296"/>
<polygon fill="#191970" stroke="#191970" points="306.9929,-394.8072 301.7247,-385.6151 300.1107,-396.0862 306.9929,-394.8072"/>
</g>
<!-- Node286913 -->
<g id="node26" class="node">
<title>Node286913</title>
<g id="a_node26"><a xlink:href="quickjs_8c.html#aed1bf9ce4b9e3a82388679dd6ec7635b" target="_top" xlink:title="js_string_replace">
<polygon fill="none" stroke="#000000" points="424.5,-38.5 424.5,-57.5 514.5,-57.5 514.5,-38.5 424.5,-38.5"/>
<text text-anchor="middle" x="469.5" y="-45.5" font-family="Helvetica,sans-Serif" font-size="10.00" fill="#000000">js_string_replace</text>
</a>
</g>
</g>
<!-- Node286853&#45;&gt;Node286913 -->
<g id="edge30" class="edge">
<title>Node286853&#45;&gt;Node286913</title>
<path fill="none" stroke="#191970" d="M320.4771,-359.6845C335.8873,-346.1982 356.1465,-325.6433 367,-303 412.8612,-207.3212 332.8835,-146.6326 403,-67 408.6337,-60.6017 416.2576,-56.291 424.3344,-53.4021"/>
<polygon fill="#191970" stroke="#191970" points="317.8863,-357.2914 312.5053,-366.418 322.4032,-362.639 317.8863,-357.2914"/>
</g>
<!-- Node286914 -->
<g id="node27" class="node">
<title>Node286914</title>
<g id="a_node27"><a xlink:href="quickjs_8c.html#a624282391413d4c5a030adbd8b77aa80" target="_top" xlink:title="internalize_json_property">
<polygon fill="none" stroke="#ff0000" points="407,-660.5 407,-679.5 532,-679.5 532,-660.5 407,-660.5"/>
<text text-anchor="middle" x="469.5" y="-667.5" font-family="Helvetica,sans-Serif" font-size="10.00" fill="#000000">internalize_json_property</text>
</a>
</g>
</g>
<!-- Node286853&#45;&gt;Node286914 -->
<g id="edge31" class="edge">
<title>Node286853&#45;&gt;Node286914</title>
<path fill="none" stroke="#191970" d="M301.4886,-395.9326C306.3453,-446.3747 326.1884,-580.1051 403,-651 407.2352,-654.909 412.2201,-658.02 417.5247,-660.495"/>
<polygon fill="#191970" stroke="#191970" points="304.9549,-395.3916 300.6066,-385.7302 297.9809,-395.9945 304.9549,-395.3916"/>
</g>
<!-- Node286916 -->
<g id="node28" class="node">
<title>Node286916</title>
<g id="a_node28"><a xlink:href="quickjs_8c.html#a0da6493b4bc0edb7ddddfab807241d0b" target="_top" xlink:title="js_json_check">
<polygon fill="none" stroke="#ff0000" points="430,-.5 430,-19.5 509,-19.5 509,-.5 430,-.5"/>
<text text-anchor="middle" x="469.5" y="-7.5" font-family="Helvetica,sans-Serif" font-size="10.00" fill="#000000">js_json_check</text>
</a>
</g>
</g>
<!-- Node286853&#45;&gt;Node286916 -->
<g id="edge33" class="edge">
<title>Node286853&#45;&gt;Node286916</title>
<path fill="none" stroke="#191970" d="M320.6075,-359.7462C336.0896,-346.2939 356.3818,-325.7546 367,-303 418.9379,-191.6974 322.793,-122.0197 403,-29 409.8216,-21.0887 419.687,-16.3602 429.7395,-13.5649"/>
<polygon fill="#191970" stroke="#191970" points="318.0115,-357.3551 312.5932,-366.4596 322.5066,-362.7211 318.0115,-357.3551"/>
</g>
<!-- Node286897&#45;&gt;Node286897 -->
<g id="edge19" class="edge">
<title>Node286897&#45;&gt;Node286897</title>
<path fill="none" stroke="#191970" d="M438.0629,-294.2746C438.9592,-299.741 449.4382,-304 469.5,-304 499.3594,-304 507.9906,-294.5653 495.3937,-285.7571"/>
<polygon fill="#191970" stroke="#191970" points="441.085,-296.0475 443.6063,-285.7571 435.2181,-292.2291 441.085,-296.0475"/>
</g>
<!-- Node286905&#45;&gt;Node286833 -->
<g id="edge22" class="edge">
<title>Node286905&#45;&gt;Node286833</title>
<path fill="none" stroke="#191970" d="M417.7366,-98.8526C412.6655,-100.6845 407.6727,-102.73 403,-105 301.8798,-154.1243 198.5066,-244.6431 165.9593,-274.3077"/>
<polygon fill="#191970" stroke="#191970" points="419.1422,-102.0735 427.5217,-95.59 416.9281,-95.4329 419.1422,-102.0735"/>
</g>
<!-- Node286911&#45;&gt;Node286911 -->
<g id="edge29" class="edge">
<title>Node286911&#45;&gt;Node286911</title>
<path fill="none" stroke="#191970" d="M438.0629,-744.2746C438.9592,-749.741 449.4382,-754 469.5,-754 499.3594,-754 507.9906,-744.5653 495.3937,-735.7571"/>
<polygon fill="#191970" stroke="#191970" points="441.085,-746.0475 443.6063,-735.7571 435.2181,-742.2291 441.085,-746.0475"/>
</g>
<!-- Node286914&#45;&gt;Node286914 -->
<g id="edge32" class="edge">
<title>Node286914&#45;&gt;Node286914</title>
<path fill="none" stroke="#191970" d="M438.0629,-688.2746C438.9592,-693.741 449.4382,-698 469.5,-698 499.3594,-698 507.9906,-688.5653 495.3937,-679.7571"/>
<polygon fill="#191970" stroke="#191970" points="441.085,-690.0475 443.6063,-679.7571 435.2181,-686.2291 441.085,-690.0475"/>
</g>
<!-- Node286938&#45;&gt;Node286833 -->
<g id="edge35" class="edge">
<title>Node286938&#45;&gt;Node286833</title>
<path fill="none" stroke="#191970" d="M222.7059,-290.7354C213.9651,-290.6845 205.3232,-290.5014 197.2954,-290.186"/>
<polygon fill="#191970" stroke="#191970" points="222.9819,-294.2354 232.9815,-290.7342 222.981,-287.2354 222.9819,-294.2354"/>
</g>
<!-- Node286952&#45;&gt;Node286833 -->
<g id="edge37" class="edge">
<title>Node286952&#45;&gt;Node286833</title>
<path fill="none" stroke="#191970" d="M273.0852,-113.696C259.7437,-118.1037 244.146,-124.0129 233,-134 187.716,-174.5757 166.1198,-247.5005 158.6584,-274.2978"/>
<polygon fill="#191970" stroke="#191970" points="274.2985,-116.9822 282.7367,-110.5754 272.1449,-110.3217 274.2985,-116.9822"/>
</g>
<!-- Node286952&#45;&gt;Node286913 -->
<g id="edge39" class="edge">
<title>Node286952&#45;&gt;Node286913</title>
<path fill="none" stroke="#191970" d="M337.5897,-88.1858C357.0522,-81.6544 381.2366,-73.6981 403,-67 413.3283,-63.8213 424.6137,-60.5293 434.9066,-57.5965"/>
<polygon fill="#191970" stroke="#191970" points="336.2393,-84.9474 327.8804,-91.4573 338.4745,-91.581 336.2393,-84.9474"/>
</g>
<!-- Node286952&#45;&gt;Node286916 -->
<g id="edge38" class="edge">
<title>Node286952&#45;&gt;Node286916</title>
<path fill="none" stroke="#191970" d="M318.8654,-84.8954C338.6589,-68.7273 371.2521,-44.109 403,-29 411.3483,-25.027 420.6908,-21.7251 429.6741,-19.05"/>
<polygon fill="#191970" stroke="#191970" points="316.4189,-82.3776 310.9633,-91.4598 320.8919,-87.7621 316.4189,-82.3776"/>
</g>
</g>
</svg>
        <g id="navigator" transform="translate(0 0)" fill="#404254">
                <rect fill="#f2f5e9" fill-opacity="0.5" stroke="#606060" stroke-width=".5" x="0" y="0" width="60" height="60"/>
                <use id="zoomplus" xlink:href="#zoomPlus" x="17" y="9" onmousedown="handleZoom(evt,'in')"/>
                <use id="zoomminus" xlink:href="#zoomMin" x="42" y="9" onmousedown="handleZoom(evt,'out')"/>
                <use id="reset" xlink:href="#resetDef" x="30" y="36" onmousedown="handleReset()"/>
                <g id="arrowUp" xlink:href="#dirArrow" transform="translate(30 24)" onmousedown="handlePan(0,-1)">
                  <use xlink:href="#rim" fill="#404040">
                        <set attributeName="fill" to="#808080" begin="arrowUp.mouseover" end="arrowUp.mouseout"/>
                  </use>
                  <path fill="none" stroke="white" stroke-width="1.5" d="M0,-3.0v7 M-2.5,-0.5L0,-3.0L2.5,-0.5"/>
                </g>
                <g id="arrowRight" xlink:href="#dirArrow" transform="rotate(90) translate(36 -43)" onmousedown="handlePan(1,0)">
                  <use xlink:href="#rim" fill="#404040">
                        <set attributeName="fill" to="#808080" begin="arrowRight.mouseover" end="arrowRight.mouseout"/>
                  </use>
                  <path fill="none" stroke="white" stroke-width="1.5" d="M0,-3.0v7 M-2.5,-0.5L0,-3.0L2.5,-0.5"/>
                </g>
                <g id="arrowDown" xlink:href="#dirArrow" transform="rotate(180) translate(-30 -48)" onmousedown="handlePan(0,1)">
                  <use xlink:href="#rim" fill="#404040">
                        <set attributeName="fill" to="#808080" begin="arrowDown.mouseover" end="arrowDown.mouseout"/>
                  </use>
                  <path fill="none" stroke="white" stroke-width="1.5" d="M0,-3.0v7 M-2.5,-0.5L0,-3.0L2.5,-0.5"/>
                </g>
                <g id="arrowLeft" xlink:href="#dirArrow" transform="rotate(270) translate(-36 17)" onmousedown="handlePan(-1,0)">
                  <use xlink:href="#rim" fill="#404040">
                        <set attributeName="fill" to="#808080" begin="arrowLeft.mouseover" end="arrowLeft.mouseout"/>
                  </use>
                  <path fill="none" stroke="white" stroke-width="1.5" d="M0,-3.0v7 M-2.5,-0.5L0,-3.0L2.5,-0.5"/>
                </g>
        </g>
        <svg viewBox="0 0 15 15" width="100%" height="30px" preserveAspectRatio="xMaxYMin meet">
         <g id="arrow_out" transform="scale(0.3 0.3)">
          <a xlink:href="quickjs_8c_ab75e30a0aee430042ee90fa8458a81ee_icgraph_org.svg" target="_base">
           <rect id="button" ry="5" rx="5" y="6" x="6" height="38" width="38"
                fill="#f2f5e9" fill-opacity="0.5" stroke="#606060" stroke-width="1.0"/>
           <path id="arrow"
             d="M 11.500037,31.436501 C 11.940474,20.09759 22.043105,11.32322 32.158766,21.979434 L 37.068811,17.246167 C 37.068811,17.246167 37.088388,32 37.088388,32 L 22.160133,31.978069 C 22.160133,31.978069 26.997745,27.140456 26.997745,27.140456 C 18.528582,18.264221 13.291696,25.230495 11.500037,31.436501 z"
             style="fill:#404040;"/>
          </a>
         </g>
        </svg>
</svg>
