<?xml version="1.0" encoding="UTF-8" standalone="no"?>
<!DOCTYPE svg PUBLIC "-//W3C//DTD SVG 1.1//EN"
 "http://www.w3.org/Graphics/SVG/1.1/DTD/svg11.dtd">
<!-- Generated by graphviz version 2.40.1 (20161225.0304)
 -->
<!-- Title: js_strtod Pages: 1 -->
<!--zoomable 1003 -->
<svg id="main" version="1.1" xmlns="http://www.w3.org/2000/svg" xmlns:xlink="http://www.w3.org/1999/xlink" xml:space="preserve" onload="init(evt)">
<style type="text/css"><![CDATA[
.edge:hover path { stroke: red; }
.edge:hover polygon { stroke: red; fill: red; }
]]></style>
<script type="text/javascript"><![CDATA[
var edges = document.getElementsByTagName('g');
if (edges && edges.length) {
  for (var i=0;i<edges.length;i++) {
    if (edges[i].id.substr(0,4)=='edge') {
      edges[i].setAttribute('class','edge');
    }
  }
}
]]></script>
        <defs>
                <circle id="rim" cx="0" cy="0" r="7"/>
                <circle id="rim2" cx="0" cy="0" r="3.5"/>
                <g id="zoomPlus">
                        <use xlink:href="#rim" fill="#404040">
                                <set attributeName="fill" to="#808080" begin="zoomplus.mouseover" end="zoomplus.mouseout"/>
                        </use>
                        <path d="M-4,0h8M0,-4v8" fill="none" stroke="white" stroke-width="1.5" pointer-events="none"/>
                </g>
                <g id="zoomMin">
                        <use xlink:href="#rim" fill="#404040">
                                <set attributeName="fill" to="#808080" begin="zoomminus.mouseover" end="zoomminus.mouseout"/>
                        </use>
                        <path d="M-4,0h8" fill="none" stroke="white" stroke-width="1.5" pointer-events="none"/>
                </g>
                <g id="dirArrow">
                        <path fill="none" stroke="white" stroke-width="1.5" d="M0,-3.0v7 M-2.5,-0.5L0,-3.0L2.5,-0.5"/>
                </g>
               <g id="resetDef">
                       <use xlink:href="#rim2" fill="#404040">
                               <set attributeName="fill" to="#808080" begin="reset.mouseover" end="reset.mouseout"/>
                       </use>
               </g>
        </defs>

<script type="text/javascript">
var viewWidth = 1930;
var viewHeight = 1003;
var sectionId = 'dynsection-674';
</script>
<script xlink:href="svgpan.js"/>
<svg id="graph" class="graph">
<g id="viewport">
<title>js_strtod</title>
<!-- Node234320 -->
<g id="node1" class="node">
<title>Node234320</title>
<polygon fill="#bfbfbf" stroke="#000000" points="0,-374.434 0,-393.434 54,-393.434 54,-374.434 0,-374.434"/>
<text text-anchor="middle" x="27" y="-381.434" font-family="Helvetica,sans-Serif" font-size="10.00" fill="#000000">js_strtod</text>
</g>
<!-- Node234321 -->
<g id="node2" class="node">
<title>Node234321</title>
<g id="a_node2"><a xlink:href="quickjs_8c.html#a40bcef4994dba57dfb34b6eed66daef0" target="_top" xlink:title="js_atof">
<polygon fill="none" stroke="#000000" points="90,-374.434 90,-393.434 136,-393.434 136,-374.434 90,-374.434"/>
<text text-anchor="middle" x="113" y="-381.434" font-family="Helvetica,sans-Serif" font-size="10.00" fill="#000000">js_atof</text>
</a>
</g>
</g>
<!-- Node234320&#45;&gt;Node234321 -->
<g id="edge1" class="edge">
<title>Node234320&#45;&gt;Node234321</title>
<path fill="none" stroke="#191970" d="M64.4492,-383.934C73.0424,-383.934 81.9363,-383.934 89.7272,-383.934"/>
<polygon fill="#191970" stroke="#191970" points="64.211,-380.4341 54.2109,-383.934 64.2109,-387.4341 64.211,-380.4341"/>
</g>
<!-- Node234322 -->
<g id="node3" class="node">
<title>Node234322</title>
<g id="a_node3"><a xlink:href="quickjs_8c.html#a0315f23b9804563f376c47edef2967fd" target="_top" xlink:title="JS_ToNumberHintFree">
<polygon fill="none" stroke="#000000" points="172,-937.434 172,-956.434 289,-956.434 289,-937.434 172,-937.434"/>
<text text-anchor="middle" x="230.5" y="-944.434" font-family="Helvetica,sans-Serif" font-size="10.00" fill="#000000">JS_ToNumberHintFree</text>
</a>
</g>
</g>
<!-- Node234321&#45;&gt;Node234322 -->
<g id="edge2" class="edge">
<title>Node234321&#45;&gt;Node234322</title>
<path fill="none" stroke="#191970" d="M117.0871,-403.5174C136.0241,-494.2537 214.8888,-872.1333 228.4961,-937.3321"/>
<polygon fill="#191970" stroke="#191970" points="120.5087,-402.7799 115.0394,-393.7059 113.6563,-404.2101 120.5087,-402.7799"/>
</g>
<!-- Node234932 -->
<g id="node6" class="node">
<title>Node234932</title>
<g id="a_node6"><a xlink:href="quickjs_8c.html#a75a3798e2045f6e403c1ef467126d1fb" target="_top" xlink:title="next_token">
<polygon fill="none" stroke="#ff0000" points="198,-412.434 198,-431.434 263,-431.434 263,-412.434 198,-412.434"/>
<text text-anchor="middle" x="230.5" y="-419.434" font-family="Helvetica,sans-Serif" font-size="10.00" fill="#000000">next_token</text>
</a>
</g>
</g>
<!-- Node234321&#45;&gt;Node234932 -->
<g id="edge5" class="edge">
<title>Node234321&#45;&gt;Node234932</title>
<path fill="none" stroke="#191970" d="M145.9189,-394.5801C163.2386,-400.1814 184.2979,-406.9921 201.0701,-412.4163"/>
<polygon fill="#191970" stroke="#191970" points="146.806,-391.1886 136.2142,-391.4416 144.652,-397.849 146.806,-391.1886"/>
</g>
<!-- Node234940 -->
<g id="node28" class="node">
<title>Node234940</title>
<g id="a_node28"><a xlink:href="quickjs_8c.html#a7fbd31397bde22dfa2b876b945f9afb4" target="_top" xlink:title="json_next_token">
<polygon fill="none" stroke="#ff0000" points="186.5,-374.434 186.5,-393.434 274.5,-393.434 274.5,-374.434 186.5,-374.434"/>
<text text-anchor="middle" x="230.5" y="-381.434" font-family="Helvetica,sans-Serif" font-size="10.00" fill="#000000">json_next_token</text>
</a>
</g>
</g>
<!-- Node234321&#45;&gt;Node234940 -->
<g id="edge67" class="edge">
<title>Node234321&#45;&gt;Node234940</title>
<path fill="none" stroke="#191970" d="M146.5634,-383.934C158.964,-383.934 173.2113,-383.934 186.4052,-383.934"/>
<polygon fill="#191970" stroke="#191970" points="146.2143,-380.4341 136.2142,-383.934 146.2142,-387.4341 146.2143,-380.4341"/>
</g>
<!-- Node234739 -->
<g id="node29" class="node">
<title>Node234739</title>
<g id="a_node29"><a xlink:href="quickjs_8c.html#aed39bc2ad38569d153500dc6ae23cd6c" target="_top" xlink:title="js_parseInt">
<polygon fill="none" stroke="#000000" points="198,-336.434 198,-355.434 263,-355.434 263,-336.434 198,-336.434"/>
<text text-anchor="middle" x="230.5" y="-343.434" font-family="Helvetica,sans-Serif" font-size="10.00" fill="#000000">js_parseInt</text>
</a>
</g>
</g>
<!-- Node234321&#45;&gt;Node234739 -->
<g id="edge68" class="edge">
<title>Node234321&#45;&gt;Node234739</title>
<path fill="none" stroke="#191970" d="M145.9189,-373.2879C163.2386,-367.6866 184.2979,-360.876 201.0701,-355.4518"/>
<polygon fill="#191970" stroke="#191970" points="144.652,-370.0191 136.2142,-376.4264 146.806,-376.6794 144.652,-370.0191"/>
</g>
<!-- Node234740 -->
<g id="node30" class="node">
<title>Node234740</title>
<g id="a_node30"><a xlink:href="quickjs_8c.html#abb21478f7d3d0ff964efbe82a673daef" target="_top" xlink:title="js_parseFloat">
<polygon fill="none" stroke="#000000" points="193,-298.434 193,-317.434 268,-317.434 268,-298.434 193,-298.434"/>
<text text-anchor="middle" x="230.5" y="-305.434" font-family="Helvetica,sans-Serif" font-size="10.00" fill="#000000">js_parseFloat</text>
</a>
</g>
</g>
<!-- Node234321&#45;&gt;Node234740 -->
<g id="edge69" class="edge">
<title>Node234321&#45;&gt;Node234740</title>
<path fill="none" stroke="#191970" d="M127.5127,-366.1226C138.551,-353.6051 154.7412,-337.3052 172,-326.934 178.4071,-323.0838 185.6842,-319.9186 192.8766,-317.3517"/>
<polygon fill="#191970" stroke="#191970" points="124.5666,-364.1836 120.7441,-374.0648 129.8943,-368.724 124.5666,-364.1836"/>
</g>
<!-- Node234323 -->
<g id="node4" class="node">
<title>Node234323</title>
<g id="a_node4"><a xlink:href="quickjs_8c.html#ae738291483438efefca5c9fa4d269504" target="_top" xlink:title="JS_ToNumberFree">
<polygon fill="none" stroke="#ff0000" points="342.5,-937.434 342.5,-956.434 441.5,-956.434 441.5,-937.434 342.5,-937.434"/>
<text text-anchor="middle" x="392" y="-944.434" font-family="Helvetica,sans-Serif" font-size="10.00" fill="#000000">JS_ToNumberFree</text>
</a>
</g>
</g>
<!-- Node234322&#45;&gt;Node234323 -->
<g id="edge3" class="edge">
<title>Node234322&#45;&gt;Node234323</title>
<path fill="none" stroke="#191970" d="M299.6033,-946.934C313.9639,-946.934 328.8263,-946.934 342.3224,-946.934"/>
<polygon fill="#191970" stroke="#191970" points="299.2621,-943.4341 289.2621,-946.934 299.262,-950.4341 299.2621,-943.4341"/>
</g>
<!-- Node234930 -->
<g id="node5" class="node">
<title>Node234930</title>
<g id="a_node5"><a xlink:href="quickjs_8c.html#a95c291df13743182541d687be697e59d" target="_top" xlink:title="JS_ToNumericFree">
<polygon fill="none" stroke="#ff0000" points="341.5,-975.434 341.5,-994.434 442.5,-994.434 442.5,-975.434 341.5,-975.434"/>
<text text-anchor="middle" x="392" y="-982.434" font-family="Helvetica,sans-Serif" font-size="10.00" fill="#000000">JS_ToNumericFree</text>
</a>
</g>
</g>
<!-- Node234322&#45;&gt;Node234930 -->
<g id="edge4" class="edge">
<title>Node234322&#45;&gt;Node234930</title>
<path fill="none" stroke="#191970" d="M281.0583,-958.8301C303.7588,-964.1714 330.1781,-970.3877 351.5398,-975.414"/>
<polygon fill="#191970" stroke="#191970" points="281.7891,-955.4065 271.2533,-956.523 280.1858,-962.2204 281.7891,-955.4065"/>
</g>
<!-- Node234933 -->
<g id="node7" class="node">
<title>Node234933</title>
<g id="a_node7"><a xlink:href="quickjs_8c.html#aeca8ed71e1eef8ec809afab744958c28" target="_top" xlink:title="js_parse_expect">
<polygon fill="none" stroke="#ff0000" points="348,-557.434 348,-576.434 436,-576.434 436,-557.434 348,-557.434"/>
<text text-anchor="middle" x="392" y="-564.434" font-family="Helvetica,sans-Serif" font-size="10.00" fill="#000000">js_parse_expect</text>
</a>
</g>
</g>
<!-- Node234932&#45;&gt;Node234933 -->
<g id="edge6" class="edge">
<title>Node234932&#45;&gt;Node234933</title>
<path fill="none" stroke="#191970" d="M241.6741,-440.2845C257.5399,-465.0499 288.7321,-509.2503 325,-536.934 336.3464,-545.5948 350.5889,-552.4196 363.0217,-557.3572"/>
<polygon fill="#191970" stroke="#191970" points="244.4661,-438.1485 236.19,-431.5336 238.5346,-441.8658 244.4661,-438.1485"/>
</g>
<!-- Node234627 -->
<g id="node8" class="node">
<title>Node234627</title>
<g id="a_node8"><a xlink:href="quickjs_8c.html#a035daca514f14aacc1e0cff81d8e423a" target="_top" xlink:title="js_parse_template">
<polygon fill="none" stroke="#000000" points="516,-747.434 516,-766.434 612,-766.434 612,-747.434 516,-747.434"/>
<text text-anchor="middle" x="564" y="-754.434" font-family="Helvetica,sans-Serif" font-size="10.00" fill="#000000">js_parse_template</text>
</a>
</g>
</g>
<!-- Node234932&#45;&gt;Node234627 -->
<g id="edge42" class="edge">
<title>Node234932&#45;&gt;Node234627</title>
<path fill="none" stroke="#191970" d="M233.5723,-441.466C243.7556,-503.5681 278.4182,-694.6492 325,-732.934 378.4799,-776.8883 463.0957,-773.9307 515.9812,-766.4185"/>
<polygon fill="#191970" stroke="#191970" points="237.0028,-440.7539 231.9584,-431.437 230.0917,-441.8661 237.0028,-440.7539"/>
</g>
<!-- Node234600 -->
<g id="node9" class="node">
<title>Node234600</title>
<g id="a_node9"><a xlink:href="quickjs_8c.html#a840642c87c5a82d4cc68333376a3b6de" target="_top" xlink:title="js_parse_postfix_expr">
<polygon fill="none" stroke="#ff0000" points="820,-443.434 820,-462.434 932,-462.434 932,-443.434 820,-443.434"/>
<text text-anchor="middle" x="876" y="-450.434" font-family="Helvetica,sans-Serif" font-size="10.00" fill="#000000">js_parse_postfix_expr</text>
</a>
</g>
</g>
<!-- Node234932&#45;&gt;Node234600 -->
<g id="edge58" class="edge">
<title>Node234932&#45;&gt;Node234600</title>
<path fill="none" stroke="#191970" d="M272.9936,-414.319C279.0571,-411.5969 284.6879,-407.9138 289,-402.934 350.7014,-331.679 252.9151,-254.6639 325,-193.934 377.3443,-149.8351 565.3023,-183.8512 633,-193.934 702.3907,-204.269 731.6929,-193.181 784,-239.934 848.871,-297.9169 869.7683,-409.6914 874.7149,-443.2053"/>
<polygon fill="#191970" stroke="#191970" points="271.4461,-411.157 263.2363,-417.854 273.8305,-417.7384 271.4461,-411.157"/>
</g>
<!-- Node234616 -->
<g id="node10" class="node">
<title>Node234616</title>
<g id="a_node10"><a xlink:href="quickjs_8c.html#a9f26c765171d977db1796791f035f1f9" target="_top" xlink:title="js_parse_unary">
<polygon fill="none" stroke="#000000" points="968,-738.434 968,-757.434 1051,-757.434 1051,-738.434 968,-738.434"/>
<text text-anchor="middle" x="1009.5" y="-745.434" font-family="Helvetica,sans-Serif" font-size="10.00" fill="#000000">js_parse_unary</text>
</a>
</g>
</g>
<!-- Node234932&#45;&gt;Node234616 -->
<g id="edge60" class="edge">
<title>Node234932&#45;&gt;Node234616</title>
<path fill="none" stroke="#191970" d="M233.0647,-441.6727C242.103,-508.0339 274.6688,-721.3734 325,-764.934 405.9484,-834.9932 456.9442,-794.934 564,-794.934 564,-794.934 564,-794.934 726.5,-794.934 817.1449,-794.934 921.9414,-771.1787 974.9528,-757.4452"/>
<polygon fill="#191970" stroke="#191970" points="236.5249,-441.1418 231.7334,-431.6925 229.5864,-442.0675 236.5249,-441.1418"/>
</g>
<!-- Node234617 -->
<g id="node11" class="node">
<title>Node234617</title>
<g id="a_node11"><a xlink:href="quickjs_8c.html#a2ecfb6abb190101748202a8aa5821fba" target="_top" xlink:title="js_parse_delete">
<polygon fill="none" stroke="#000000" points="1099,-738.434 1099,-757.434 1184,-757.434 1184,-738.434 1099,-738.434"/>
<text text-anchor="middle" x="1141.5" y="-745.434" font-family="Helvetica,sans-Serif" font-size="10.00" fill="#000000">js_parse_delete</text>
</a>
</g>
</g>
<!-- Node234932&#45;&gt;Node234617 -->
<g id="edge59" class="edge">
<title>Node234932&#45;&gt;Node234617</title>
<path fill="none" stroke="#191970" d="M232.5808,-441.7168C240.4157,-512.2538 270.5039,-749.8444 325,-798.934 404.7179,-870.7432 456.7083,-832.934 564,-832.934 564,-832.934 564,-832.934 876,-832.934 974.0067,-832.934 1083.0886,-779.749 1124.401,-757.5194"/>
<polygon fill="#191970" stroke="#191970" points="236.0362,-441.1155 231.4788,-431.551 229.077,-441.8699 236.0362,-441.1155"/>
</g>
<!-- Node234618 -->
<g id="node12" class="node">
<title>Node234618</title>
<g id="a_node12"><a xlink:href="quickjs_8c.html#ad70b14684de2ed3babfd7c2264249437" target="_top" xlink:title="js_parse_expr_binary">
<polygon fill="none" stroke="#000000" points="1087,-136.434 1087,-155.434 1196,-155.434 1196,-136.434 1087,-136.434"/>
<text text-anchor="middle" x="1141.5" y="-143.434" font-family="Helvetica,sans-Serif" font-size="10.00" fill="#000000">js_parse_expr_binary</text>
</a>
</g>
</g>
<!-- Node234932&#45;&gt;Node234618 -->
<g id="edge61" class="edge">
<title>Node234932&#45;&gt;Node234618</title>
<path fill="none" stroke="#191970" d="M272.442,-414.6686C278.7369,-411.9128 284.5863,-408.1278 289,-402.934 357.4235,-322.4178 249.43,-241.7839 325,-167.934 401.6065,-93.0712 456.888,-136.934 564,-136.934 564,-136.934 564,-136.934 876,-136.934 948.9853,-136.934 1033.1915,-140.3731 1086.8562,-142.9995"/>
<polygon fill="#191970" stroke="#191970" points="271.2694,-411.3708 263.016,-418.0141 273.6108,-417.9677 271.2694,-411.3708"/>
</g>
<!-- Node234619 -->
<g id="node13" class="node">
<title>Node234619</title>
<g id="a_node13"><a xlink:href="quickjs_8c.html#aae2d76e4aa080c7737119ef079a9b97d" target="_top" xlink:title="js_parse_logical_and_or">
<polygon fill="none" stroke="#000000" points="1232,-89.434 1232,-108.434 1353,-108.434 1353,-89.434 1232,-89.434"/>
<text text-anchor="middle" x="1292.5" y="-96.434" font-family="Helvetica,sans-Serif" font-size="10.00" fill="#000000">js_parse_logical_and_or</text>
</a>
</g>
</g>
<!-- Node234932&#45;&gt;Node234619 -->
<g id="edge62" class="edge">
<title>Node234932&#45;&gt;Node234619</title>
<path fill="none" stroke="#191970" d="M272.9901,-414.5666C279.1047,-411.817 284.7528,-408.0606 289,-402.934 369.6084,-305.6369 234.099,-208.6919 325,-120.934 401.7431,-46.8444 457.3287,-98.934 564,-98.934 564,-98.934 564,-98.934 1009.5,-98.934 1086.1458,-98.934 1174.4682,-98.934 1231.7748,-98.934"/>
<polygon fill="#191970" stroke="#191970" points="271.3577,-411.4341 263.1315,-418.1109 273.7259,-418.0214 271.3577,-411.4341"/>
</g>
<!-- Node234620 -->
<g id="node14" class="node">
<title>Node234620</title>
<g id="a_node14"><a xlink:href="quickjs_8c.html#a93b69939f7af67646a177249bf2deb4d" target="_top" xlink:title="js_parse_coalesce_expr">
<polygon fill="none" stroke="#000000" points="1389,-117.434 1389,-136.434 1511,-136.434 1511,-117.434 1389,-117.434"/>
<text text-anchor="middle" x="1450" y="-124.434" font-family="Helvetica,sans-Serif" font-size="10.00" fill="#000000">js_parse_coalesce_expr</text>
</a>
</g>
</g>
<!-- Node234932&#45;&gt;Node234620 -->
<g id="edge63" class="edge">
<title>Node234932&#45;&gt;Node234620</title>
<path fill="none" stroke="#191970" d="M273.0636,-414.627C279.1695,-411.8702 284.7956,-408.0958 289,-402.934 334.8902,-346.5945 272.6189,-128.2954 325,-77.934 401.7656,-4.1282 457.5094,-60.934 564,-60.934 564,-60.934 564,-60.934 1141.5,-60.934 1235.8785,-60.934 1262.0507,-54.7242 1353,-79.934 1383.4759,-88.3815 1415.9873,-106.1585 1434.5651,-117.2658"/>
<polygon fill="#191970" stroke="#191970" points="271.4323,-411.4943 263.2089,-418.1746 273.8033,-418.0806 271.4323,-411.4943"/>
</g>
<!-- Node234621 -->
<g id="node15" class="node">
<title>Node234621</title>
<g id="a_node15"><a xlink:href="quickjs_8c.html#a6686f5baeecd532b043761b6c24ed431" target="_top" xlink:title="js_parse_cond_expr">
<polygon fill="none" stroke="#000000" points="1547,-671.434 1547,-690.434 1651,-690.434 1651,-671.434 1547,-671.434"/>
<text text-anchor="middle" x="1599" y="-678.434" font-family="Helvetica,sans-Serif" font-size="10.00" fill="#000000">js_parse_cond_expr</text>
</a>
</g>
</g>
<!-- Node234932&#45;&gt;Node234621 -->
<g id="edge64" class="edge">
<title>Node234932&#45;&gt;Node234621</title>
<path fill="none" stroke="#191970" d="M273.1181,-414.6712C279.2176,-411.9091 284.8274,-408.1215 289,-402.934 340.2233,-339.2529 266.0801,-93.5693 325,-36.934 401.7117,36.8033 457.5957,-22.934 564,-22.934 564,-22.934 564,-22.934 1292.5,-22.934 1396.7004,-22.934 1445.7967,-26.6551 1511,-107.934 1584.6852,-199.786 1597.1895,-602.4684 1598.7945,-671.0011"/>
<polygon fill="#191970" stroke="#191970" points="271.4877,-411.5383 263.2663,-418.221 273.8607,-418.1238 271.4877,-411.5383"/>
</g>
<!-- Node234622 -->
<g id="node16" class="node">
<title>Node234622</title>
<g id="a_node16"><a xlink:href="quickjs_8c.html#afa1bc2743b3cf892d36544a708453736" target="_top" xlink:title="js_parse_assign_expr2">
<polygon fill="none" stroke="#ff0000" points="1687,-757.434 1687,-776.434 1803,-776.434 1803,-757.434 1687,-757.434"/>
<text text-anchor="middle" x="1745" y="-764.434" font-family="Helvetica,sans-Serif" font-size="10.00" fill="#000000">js_parse_assign_expr2</text>
</a>
</g>
</g>
<!-- Node234932&#45;&gt;Node234622 -->
<g id="edge65" class="edge">
<title>Node234932&#45;&gt;Node234622</title>
<path fill="none" stroke="#191970" d="M232.1838,-442.0453C238.8893,-517.089 266.2293,-779.2427 325,-833.934 403.687,-907.1592 456.5124,-870.934 564,-870.934 564,-870.934 564,-870.934 1450,-870.934 1562.9539,-870.934 1687.1038,-802.2778 1729.689,-776.5317"/>
<polygon fill="#191970" stroke="#191970" points="235.6348,-441.3281 231.2831,-431.6682 228.661,-441.9334 235.6348,-441.3281"/>
</g>
<!-- Node234625 -->
<g id="node17" class="node">
<title>Node234625</title>
<g id="a_node17"><a xlink:href="quickjs_8c.html#a9fc8ae779f77a7886fc7cfa48cc487fb" target="_top" xlink:title="js_parse_expr2">
<polygon fill="none" stroke="#ff0000" points="1839,-785.434 1839,-804.434 1922,-804.434 1922,-785.434 1839,-785.434"/>
<text text-anchor="middle" x="1880.5" y="-792.434" font-family="Helvetica,sans-Serif" font-size="10.00" fill="#000000">js_parse_expr2</text>
</a>
</g>
</g>
<!-- Node234932&#45;&gt;Node234625 -->
<g id="edge66" class="edge">
<title>Node234932&#45;&gt;Node234625</title>
<path fill="none" stroke="#191970" d="M231.7801,-441.7391C237.2806,-520.3947 261.5758,-809.3704 325,-869.934 402.839,-944.2623 456.3728,-908.934 564,-908.934 564,-908.934 564,-908.934 1599,-908.934 1709.9903,-908.934 1828.7816,-831.8562 1867.502,-804.4575"/>
<polygon fill="#191970" stroke="#191970" points="235.2689,-441.4537 231.1025,-431.7125 228.2848,-441.9257 235.2689,-441.4537"/>
</g>
<!-- Node234628 -->
<g id="node18" class="node">
<title>Node234628</title>
<g id="a_node18"><a xlink:href="quickjs_8c.html#a42234753f3193f37ce45b3c0ca4c25cd" target="_top" xlink:title="js_parse_property_name">
<polygon fill="none" stroke="#000000" points="502.5,-519.434 502.5,-538.434 625.5,-538.434 625.5,-519.434 502.5,-519.434"/>
<text text-anchor="middle" x="564" y="-526.434" font-family="Helvetica,sans-Serif" font-size="10.00" fill="#000000">js_parse_property_name</text>
</a>
</g>
</g>
<!-- Node234932&#45;&gt;Node234628 -->
<g id="edge43" class="edge">
<title>Node234932&#45;&gt;Node234628</title>
<path fill="none" stroke="#191970" d="M253.9713,-436.8767C272.6046,-448.1695 299.6497,-463.319 325,-472.934 383.9735,-495.3018 454.6395,-510.5236 503.7679,-519.3861"/>
<polygon fill="#191970" stroke="#191970" points="255.6452,-433.797 245.2961,-431.5284 251.9717,-439.7556 255.6452,-433.797"/>
</g>
<!-- Node234612 -->
<g id="node19" class="node">
<title>Node234612</title>
<g id="a_node19"><a xlink:href="quickjs_8c.html#aee6d0acd87f136d43f157ae1426436e6" target="_top" xlink:title="js_parse_object_literal">
<polygon fill="none" stroke="#000000" points="670,-538.434 670,-557.434 783,-557.434 783,-538.434 670,-538.434"/>
<text text-anchor="middle" x="726.5" y="-545.434" font-family="Helvetica,sans-Serif" font-size="10.00" fill="#000000">js_parse_object_literal</text>
</a>
</g>
</g>
<!-- Node234932&#45;&gt;Node234612 -->
<g id="edge51" class="edge">
<title>Node234932&#45;&gt;Node234612</title>
<path fill="none" stroke="#191970" d="M235.2005,-441.2422C245.0203,-476.9267 271.3869,-552.5947 325,-585.934 441.3199,-658.2676 499.9941,-629.6741 633,-596.934 663.9641,-589.312 696.031,-569.4144 713.397,-557.4495"/>
<polygon fill="#191970" stroke="#191970" points="238.5814,-440.3365 232.6724,-431.5425 231.8077,-442.102 238.5814,-440.3365"/>
</g>
<!-- Node234602 -->
<g id="node20" class="node">
<title>Node234602</title>
<g id="a_node20"><a xlink:href="quickjs_8c.html#a00eb789430243c24dab4a63ad6a79653" target="_top" xlink:title="js_parse_class">
<polygon fill="none" stroke="#ff0000" points="685.5,-443.434 685.5,-462.434 767.5,-462.434 767.5,-443.434 685.5,-443.434"/>
<text text-anchor="middle" x="726.5" y="-450.434" font-family="Helvetica,sans-Serif" font-size="10.00" fill="#000000">js_parse_class</text>
</a>
</g>
</g>
<!-- Node234932&#45;&gt;Node234602 -->
<g id="edge53" class="edge">
<title>Node234932&#45;&gt;Node234602</title>
<path fill="none" stroke="#191970" d="M273.5312,-420.8177C347.3529,-419.4377 502.7686,-418.8723 633,-433.934 650.9356,-436.0083 670.5486,-439.7607 687.1589,-443.3862"/>
<polygon fill="#191970" stroke="#191970" points="273.1715,-417.3241 263.2443,-421.0254 273.3129,-424.3227 273.1715,-417.3241"/>
</g>
<!-- Node234614 -->
<g id="node21" class="node">
<title>Node234614</title>
<g id="a_node21"><a xlink:href="quickjs_8c.html#a26be546cf89c4580ba9020e8fc43a759" target="_top" xlink:title="js_parse_destructuring\l_element">
<polygon fill="none" stroke="#ff0000" points="669,-311.934 669,-341.934 784,-341.934 784,-311.934 669,-311.934"/>
<text text-anchor="start" x="677" y="-329.934" font-family="Helvetica,sans-Serif" font-size="10.00" fill="#000000">js_parse_destructuring</text>
<text text-anchor="middle" x="726.5" y="-318.934" font-family="Helvetica,sans-Serif" font-size="10.00" fill="#000000">_element</text>
</a>
</g>
</g>
<!-- Node234932&#45;&gt;Node234614 -->
<g id="edge57" class="edge">
<title>Node234932&#45;&gt;Node234614</title>
<path fill="none" stroke="#191970" d="M272.8678,-411.7658C278.5791,-409.3897 284.1371,-406.4826 289,-402.934 311.1196,-386.7925 301.9352,-367.6935 325,-352.934 389.8287,-311.4491 418.3875,-327.3012 495,-319.934 556.0517,-314.0632 571.7095,-317.6429 633,-319.934 644.5494,-320.3657 656.8844,-321.0964 668.681,-321.927"/>
<polygon fill="#191970" stroke="#191970" points="271.4067,-408.5729 263.2073,-415.2826 273.8013,-415.1506 271.4067,-408.5729"/>
</g>
<!-- Node234624 -->
<g id="node22" class="node">
<title>Node234624</title>
<g id="a_node22"><a xlink:href="quickjs_8c.html#a253917187cfb6b3db09d355b31edb3d5" target="_top" xlink:title="js_parse_array_literal">
<polygon fill="none" stroke="#000000" points="509.5,-367.434 509.5,-386.434 618.5,-386.434 618.5,-367.434 509.5,-367.434"/>
<text text-anchor="middle" x="564" y="-374.434" font-family="Helvetica,sans-Serif" font-size="10.00" fill="#000000">js_parse_array_literal</text>
</a>
</g>
</g>
<!-- Node234932&#45;&gt;Node234624 -->
<g id="edge54" class="edge">
<title>Node234932&#45;&gt;Node234624</title>
<path fill="none" stroke="#191970" d="M273.0059,-416.1986C333.1588,-408.082 443.1491,-393.2407 509.3158,-384.3127"/>
<polygon fill="#191970" stroke="#191970" points="272.5267,-412.7314 263.0846,-417.5373 273.4628,-419.6686 272.5267,-412.7314"/>
</g>
<!-- Node234934 -->
<g id="node23" class="node">
<title>Node234934</title>
<g id="a_node23"><a xlink:href="quickjs_8c.html#a02cbd69384985a4e904190810cf45641" target="_top" xlink:title="js_parse_expect_semi">
<polygon fill="none" stroke="#ff0000" points="507,-443.434 507,-462.434 621,-462.434 621,-443.434 507,-443.434"/>
<text text-anchor="middle" x="564" y="-450.434" font-family="Helvetica,sans-Serif" font-size="10.00" fill="#000000">js_parse_expect_semi</text>
</a>
</g>
</g>
<!-- Node234932&#45;&gt;Node234934 -->
<g id="edge40" class="edge">
<title>Node234932&#45;&gt;Node234934</title>
<path fill="none" stroke="#191970" d="M260.5858,-435.3551C278.8198,-442.7462 302.7797,-451.1658 325,-454.934 386.3656,-465.3405 457.8726,-462.8652 506.5682,-459.0312"/>
<polygon fill="#191970" stroke="#191970" points="261.9294,-432.1233 251.3527,-431.5026 259.2339,-438.5835 261.9294,-432.1233"/>
</g>
<!-- Node234935 -->
<g id="node24" class="node">
<title>Node234935</title>
<g id="a_node24"><a xlink:href="quickjs_8c.html#aba7eb7aae2eb61bfccb4565ee626cd18" target="_top" xlink:title="js_parse_seek_token">
<polygon fill="none" stroke="#ff0000" points="337.5,-241.434 337.5,-260.434 446.5,-260.434 446.5,-241.434 337.5,-241.434"/>
<text text-anchor="middle" x="392" y="-248.434" font-family="Helvetica,sans-Serif" font-size="10.00" fill="#000000">js_parse_seek_token</text>
</a>
</g>
</g>
<!-- Node234932&#45;&gt;Node234935 -->
<g id="edge44" class="edge">
<title>Node234932&#45;&gt;Node234935</title>
<path fill="none" stroke="#191970" d="M272.7933,-413.8745C278.8322,-411.2056 284.5076,-407.6555 289,-402.934 331.2128,-358.5695 281.9583,-313.4947 325,-269.934 328.8241,-266.0638 333.374,-262.9671 338.2764,-260.4917"/>
<polygon fill="#191970" stroke="#191970" points="271.3279,-410.6829 263.1222,-417.3849 273.7163,-417.2629 271.3279,-410.6829"/>
</g>
<!-- Node234936 -->
<g id="node25" class="node">
<title>Node234936</title>
<g id="a_node25"><a xlink:href="quickjs_8c.html#ac00298085baf11a4a7bd600cf5de2e6d" target="_top" xlink:title="js_parse_skip_parens\l_token">
<polygon fill="none" stroke="#ff0000" points="508.5,-203.934 508.5,-233.934 619.5,-233.934 619.5,-203.934 508.5,-203.934"/>
<text text-anchor="start" x="516.5" y="-221.934" font-family="Helvetica,sans-Serif" font-size="10.00" fill="#000000">js_parse_skip_parens</text>
<text text-anchor="middle" x="564" y="-210.934" font-family="Helvetica,sans-Serif" font-size="10.00" fill="#000000">_token</text>
</a>
</g>
</g>
<!-- Node234932&#45;&gt;Node234936 -->
<g id="edge50" class="edge">
<title>Node234932&#45;&gt;Node234936</title>
<path fill="none" stroke="#191970" d="M272.836,-414.18C278.9187,-411.4747 284.5967,-407.8333 289,-402.934 340.916,-345.1696 266.0414,-282.4898 325,-231.934 375.078,-188.9932 454.9539,-194.3099 508.414,-204.5463"/>
<polygon fill="#191970" stroke="#191970" points="271.2862,-411.0184 263.0694,-417.7068 273.6637,-417.6023 271.2862,-411.0184"/>
</g>
<!-- Node234609 -->
<g id="node26" class="node">
<title>Node234609</title>
<g id="a_node26"><a xlink:href="quickjs_8c.html#adf95ddf430ef93fd9efea1cc2f8a2fbe" target="_top" xlink:title="js_parse_class_default_ctor">
<polygon fill="none" stroke="#000000" points="495,-329.434 495,-348.434 633,-348.434 633,-329.434 495,-329.434"/>
<text text-anchor="middle" x="564" y="-336.434" font-family="Helvetica,sans-Serif" font-size="10.00" fill="#000000">js_parse_class_default_ctor</text>
</a>
</g>
</g>
<!-- Node234932&#45;&gt;Node234609 -->
<g id="edge52" class="edge">
<title>Node234932&#45;&gt;Node234609</title>
<path fill="none" stroke="#191970" d="M271.4395,-409.1035C277.358,-407.1136 283.3541,-405.0232 289,-402.934 305.2561,-396.9186 308.4332,-393.0316 325,-387.934 383.5992,-369.9031 452.3418,-356.5968 501.0223,-348.4369"/>
<polygon fill="#191970" stroke="#191970" points="270.0288,-405.8832 261.6282,-412.3393 272.2213,-412.531 270.0288,-405.8832"/>
</g>
<!-- Node234939 -->
<g id="node27" class="node">
<title>Node234939</title>
<g id="a_node27"><a xlink:href="quickjs_8c.html#ab10609a91c359ea5d3051f7bb646af83" target="_top" xlink:title="js_parse_destructuring_var">
<polygon fill="none" stroke="#000000" points="325,-279.434 325,-298.434 459,-298.434 459,-279.434 325,-279.434"/>
<text text-anchor="middle" x="392" y="-286.434" font-family="Helvetica,sans-Serif" font-size="10.00" fill="#000000">js_parse_destructuring_var</text>
</a>
</g>
</g>
<!-- Node234932&#45;&gt;Node234939 -->
<g id="edge55" class="edge">
<title>Node234932&#45;&gt;Node234939</title>
<path fill="none" stroke="#191970" d="M272.7225,-413.2373C278.6759,-410.6491 284.3434,-407.2909 289,-402.934 320.4585,-373.5 293.9855,-342.8355 325,-312.934 331.5823,-306.588 339.9575,-301.9054 348.5391,-298.4548"/>
<polygon fill="#191970" stroke="#191970" points="271.4275,-409.9841 263.2362,-416.7037 273.83,-416.5589 271.4275,-409.9841"/>
</g>
<!-- Node234933&#45;&gt;Node234627 -->
<g id="edge7" class="edge">
<title>Node234933&#45;&gt;Node234627</title>
<path fill="none" stroke="#191970" d="M405.0966,-585.0207C423.879,-610.5201 460.0644,-658.0435 495,-694.934 513.8253,-714.8127 538.0758,-735.6307 552.2446,-747.3744"/>
<polygon fill="#191970" stroke="#191970" points="407.7272,-582.6886 398.9988,-576.6832 402.0771,-586.8209 407.7272,-582.6886"/>
</g>
<!-- Node234933&#45;&gt;Node234600 -->
<g id="edge38" class="edge">
<title>Node234933&#45;&gt;Node234600</title>
<path fill="none" stroke="#191970" d="M426.8496,-579.76C446.552,-586.3289 471.8131,-593.626 495,-596.934 622.8402,-615.1726 673.5036,-633.7645 784,-566.934 827.9591,-540.3466 859.8263,-484.7388 871.3143,-462.4623"/>
<polygon fill="#191970" stroke="#191970" points="427.9708,-576.4444 417.3762,-576.5156 425.7028,-583.0669 427.9708,-576.4444"/>
</g>
<!-- Node234933&#45;&gt;Node234621 -->
<g id="edge39" class="edge">
<title>Node234933&#45;&gt;Node234621</title>
<path fill="none" stroke="#191970" d="M416.5502,-581.5682C470.5759,-612.3404 604.6672,-680.934 726.5,-680.934 726.5,-680.934 726.5,-680.934 1292.5,-680.934 1381.8958,-680.934 1485.9582,-680.934 1546.9377,-680.934"/>
<polygon fill="#191970" stroke="#191970" points="418.1144,-578.4298 407.7048,-576.4575 414.6124,-584.4909 418.1144,-578.4298"/>
</g>
<!-- Node234933&#45;&gt;Node234628 -->
<g id="edge25" class="edge">
<title>Node234933&#45;&gt;Node234628</title>
<path fill="none" stroke="#191970" d="M445.1959,-555.1814C469.5166,-549.8082 497.9547,-543.5254 520.9092,-538.4541"/>
<polygon fill="#191970" stroke="#191970" points="444.4123,-551.7701 435.4029,-557.345 445.9225,-558.6052 444.4123,-551.7701"/>
</g>
<!-- Node234933&#45;&gt;Node234612 -->
<g id="edge33" class="edge">
<title>Node234933&#45;&gt;Node234612</title>
<path fill="none" stroke="#191970" d="M446.3984,-577.0825C495.5023,-584.5912 569.559,-591.801 633,-580.934 658.9593,-576.4874 687.2867,-565.5685 705.8791,-557.502"/>
<polygon fill="#191970" stroke="#191970" points="446.7367,-573.5924 436.3117,-575.482 445.6397,-580.5059 446.7367,-573.5924"/>
</g>
<!-- Node234933&#45;&gt;Node234602 -->
<g id="edge34" class="edge">
<title>Node234933&#45;&gt;Node234602</title>
<path fill="none" stroke="#191970" d="M446.194,-573.1437C496.9103,-576.5951 573.5623,-575.6273 633,-547.934 674.3232,-528.6806 707.4161,-482.8025 720.4749,-462.6782"/>
<polygon fill="#191970" stroke="#191970" points="446.3323,-569.6441 436.0954,-572.3747 445.8007,-576.6239 446.3323,-569.6441"/>
</g>
<!-- Node234933&#45;&gt;Node234614 -->
<g id="edge37" class="edge">
<title>Node234933&#45;&gt;Node234614</title>
<path fill="none" stroke="#191970" d="M415.3902,-551.8848C435.7667,-539.2956 466.4432,-521.5749 495,-509.934 553.9096,-485.9201 581.7236,-509.5869 633,-471.934 657.1433,-454.2053 700.6306,-375.6767 718.501,-342.1688"/>
<polygon fill="#191970" stroke="#191970" points="413.4139,-548.9928 406.7975,-557.2677 417.13,-554.925 413.4139,-548.9928"/>
</g>
<!-- Node234933&#45;&gt;Node234624 -->
<g id="edge35" class="edge">
<title>Node234933&#45;&gt;Node234624</title>
<path fill="none" stroke="#191970" d="M403.9613,-549.0173C422.0793,-522.4923 458.2768,-471.8322 495,-433.934 512.8409,-415.5223 536.3478,-397.1655 550.8054,-386.4414"/>
<polygon fill="#191970" stroke="#191970" points="401.0403,-547.0887 398.3355,-557.3325 406.8381,-551.0113 401.0403,-547.0887"/>
</g>
<!-- Node234627&#45;&gt;Node234600 -->
<g id="edge8" class="edge">
<title>Node234627&#45;&gt;Node234600</title>
<path fill="none" stroke="#191970" d="M607.7693,-744.0261C616.3436,-740.8583 625.1161,-737.1463 633,-732.934 707.1669,-693.3071 728.8633,-682.4238 784,-618.934 828.9379,-567.1881 861.5861,-489.9434 872.2493,-462.7958"/>
<polygon fill="#191970" stroke="#191970" points="606.5102,-740.7586 598.2307,-747.3692 608.8255,-747.3646 606.5102,-740.7586"/>
</g>
<!-- Node234600&#45;&gt;Node234600 -->
<g id="edge9" class="edge">
<title>Node234600&#45;&gt;Node234600</title>
<path fill="none" stroke="#191970" d="M851.4465,-471.9632C852.7858,-477.062 860.9703,-480.934 876,-480.934 899.4609,-480.934 906.2426,-471.4993 896.345,-462.6911"/>
<polygon fill="#191970" stroke="#191970" points="854.709,-473.2436 855.655,-462.6911 848.3348,-470.3504 854.709,-473.2436"/>
</g>
<!-- Node234600&#45;&gt;Node234616 -->
<g id="edge10" class="edge">
<title>Node234600&#45;&gt;Node234616</title>
<path fill="none" stroke="#191970" d="M884.653,-472.0549C910.4557,-529.072 986.2452,-696.5471 1005.1765,-738.3803"/>
<polygon fill="#191970" stroke="#191970" points="887.7534,-470.4167 880.4418,-462.7492 881.3761,-473.3028 887.7534,-470.4167"/>
</g>
<!-- Node234616&#45;&gt;Node234616 -->
<g id="edge13" class="edge">
<title>Node234616&#45;&gt;Node234616</title>
<path fill="none" stroke="#191970" d="M984.9465,-766.9632C986.2858,-772.062 994.4703,-775.934 1009.5,-775.934 1032.9609,-775.934 1039.7426,-766.4993 1029.845,-757.6911"/>
<polygon fill="#191970" stroke="#191970" points="988.209,-768.2436 989.155,-757.6911 981.8348,-765.3504 988.209,-768.2436"/>
</g>
<!-- Node234616&#45;&gt;Node234617 -->
<g id="edge11" class="edge">
<title>Node234616&#45;&gt;Node234617</title>
<path fill="none" stroke="#191970" d="M1061.4212,-741.3224C1073.7516,-741.0766 1086.7696,-741.1582 1098.6434,-741.5673"/>
<polygon fill="#191970" stroke="#191970" points="1061.164,-737.8281 1051.2656,-741.6059 1061.3594,-744.8254 1061.164,-737.8281"/>
</g>
<!-- Node234616&#45;&gt;Node234618 -->
<g id="edge14" class="edge">
<title>Node234616&#45;&gt;Node234618</title>
<path fill="none" stroke="#191970" d="M1013.886,-727.9312C1034.8302,-632.4127 1124.2724,-224.5022 1139.3407,-155.7819"/>
<polygon fill="#191970" stroke="#191970" points="1010.4041,-727.4698 1011.681,-737.9874 1017.2416,-728.9692 1010.4041,-727.4698"/>
</g>
<!-- Node234617&#45;&gt;Node234616 -->
<g id="edge12" class="edge">
<title>Node234617&#45;&gt;Node234616</title>
<path fill="none" stroke="#191970" d="M1088.4405,-754.5673C1076.0696,-754.793 1063.0673,-754.6913 1051.2656,-754.2621"/>
<polygon fill="#191970" stroke="#191970" points="1088.7382,-758.0608 1098.6434,-754.3008 1088.5553,-751.0632 1088.7382,-758.0608"/>
</g>
<!-- Node234618&#45;&gt;Node234618 -->
<g id="edge15" class="edge">
<title>Node234618&#45;&gt;Node234618</title>
<path fill="none" stroke="#191970" d="M1116.9465,-164.9632C1118.2858,-170.062 1126.4703,-173.934 1141.5,-173.934 1164.9609,-173.934 1171.7426,-164.4993 1161.845,-155.6911"/>
<polygon fill="#191970" stroke="#191970" points="1120.209,-166.2436 1121.155,-155.6911 1113.8348,-163.3504 1120.209,-166.2436"/>
</g>
<!-- Node234618&#45;&gt;Node234619 -->
<g id="edge16" class="edge">
<title>Node234618&#45;&gt;Node234619</title>
<path fill="none" stroke="#191970" d="M1181.6654,-133.4322C1206.7775,-125.6158 1238.6239,-115.7034 1261.7296,-108.5116"/>
<polygon fill="#191970" stroke="#191970" points="1180.5651,-130.109 1172.0571,-136.4229 1182.6455,-136.7927 1180.5651,-130.109"/>
</g>
<!-- Node234618&#45;&gt;Node234620 -->
<g id="edge24" class="edge">
<title>Node234618&#45;&gt;Node234620</title>
<path fill="none" stroke="#191970" d="M1206.3827,-143.6271C1248.2546,-141.9504 1303.8786,-139.3723 1353,-135.934 1364.6412,-135.1192 1377.0539,-134.0897 1388.9764,-133.0206"/>
<polygon fill="#191970" stroke="#191970" points="1206.1717,-140.1326 1196.3172,-144.0234 1206.4472,-147.1271 1206.1717,-140.1326"/>
</g>
<!-- Node234619&#45;&gt;Node234619 -->
<g id="edge17" class="edge">
<title>Node234619&#45;&gt;Node234619</title>
<path fill="none" stroke="#191970" d="M1264.5009,-117.588C1265.6712,-122.8708 1275.0043,-126.934 1292.5,-126.934 1319.1602,-126.934 1326.8666,-117.4993 1315.6194,-108.6911"/>
<polygon fill="#191970" stroke="#191970" points="1267.6403,-119.142 1269.3806,-108.6911 1261.5029,-115.7757 1267.6403,-119.142"/>
</g>
<!-- Node234619&#45;&gt;Node234620 -->
<g id="edge18" class="edge">
<title>Node234619&#45;&gt;Node234620</title>
<path fill="none" stroke="#191970" d="M1356.3141,-110.2787C1369.6449,-112.6487 1383.5685,-115.124 1396.4802,-117.4194"/>
<polygon fill="#191970" stroke="#191970" points="1356.7203,-106.7961 1346.2621,-108.4917 1355.495,-113.6881 1356.7203,-106.7961"/>
</g>
<!-- Node234620&#45;&gt;Node234621 -->
<g id="edge19" class="edge">
<title>Node234620&#45;&gt;Node234621</title>
<path fill="none" stroke="#191970" d="M1455.2497,-146.4532C1479.328,-235.9792 1578.7762,-605.7393 1596.3426,-671.0536"/>
<polygon fill="#191970" stroke="#191970" points="1458.5634,-145.2975 1452.5862,-136.5497 1451.8036,-147.1156 1458.5634,-145.2975"/>
</g>
<!-- Node234621&#45;&gt;Node234622 -->
<g id="edge20" class="edge">
<title>Node234621&#45;&gt;Node234622</title>
<path fill="none" stroke="#191970" d="M1632.9768,-695.1408C1665.9987,-712.8232 1714.1093,-741.8818 1734.8567,-757.3107"/>
<polygon fill="#191970" stroke="#191970" points="1634.5787,-692.0288 1624.0983,-690.4759 1631.3228,-698.2255 1634.5787,-692.0288"/>
</g>
<!-- Node234622&#45;&gt;Node234621 -->
<g id="edge21" class="edge">
<title>Node234622&#45;&gt;Node234621</title>
<path fill="none" stroke="#191970" d="M1710.9361,-752.6806C1677.8592,-734.9629 1629.705,-705.8715 1609.0352,-690.4768"/>
<polygon fill="#191970" stroke="#191970" points="1709.3501,-755.8009 1719.8303,-757.3554 1712.6069,-749.6047 1709.3501,-755.8009"/>
</g>
<!-- Node234622&#45;&gt;Node234622 -->
<g id="edge22" class="edge">
<title>Node234622&#45;&gt;Node234622</title>
<path fill="none" stroke="#191970" d="M1720.0745,-785.9632C1721.4341,-791.062 1729.7426,-794.934 1745,-794.934 1768.8164,-794.934 1775.7008,-785.4993 1765.6533,-776.6911"/>
<polygon fill="#191970" stroke="#191970" points="1723.3407,-787.238 1724.3467,-776.6911 1716.9831,-784.3087 1723.3407,-787.238"/>
</g>
<!-- Node234622&#45;&gt;Node234625 -->
<g id="edge23" class="edge">
<title>Node234622&#45;&gt;Node234625</title>
<path fill="none" stroke="#191970" d="M1801.2407,-778.5557C1813.8863,-781.1688 1827.0829,-783.8958 1838.9983,-786.358"/>
<polygon fill="#191970" stroke="#191970" points="1801.7538,-775.0879 1791.2524,-776.4917 1800.3372,-781.943 1801.7538,-775.0879"/>
</g>
<!-- Node234628&#45;&gt;Node234612 -->
<g id="edge26" class="edge">
<title>Node234628&#45;&gt;Node234612</title>
<path fill="none" stroke="#191970" d="M636.1686,-537.3722C647.4524,-538.6915 658.9728,-540.0385 669.8445,-541.3097"/>
<polygon fill="#191970" stroke="#191970" points="636.2367,-533.8564 625.8978,-536.1713 635.4237,-540.809 636.2367,-533.8564"/>
</g>
<!-- Node234628&#45;&gt;Node234602 -->
<g id="edge28" class="edge">
<title>Node234628&#45;&gt;Node234602</title>
<path fill="none" stroke="#191970" d="M604.6176,-516.117C614.0572,-512.7792 623.9797,-508.9746 633,-504.934 661.478,-492.1774 692.8457,-473.7693 711.0459,-462.6211"/>
<polygon fill="#191970" stroke="#191970" points="603.3335,-512.8573 595.0134,-519.4168 605.6081,-519.4775 603.3335,-512.8573"/>
</g>
<!-- Node234628&#45;&gt;Node234614 -->
<g id="edge30" class="edge">
<title>Node234628&#45;&gt;Node234614</title>
<path fill="none" stroke="#191970" d="M616.8989,-515.4071C622.7101,-512.5476 628.2365,-509.0962 633,-504.934 659.6425,-481.6546 652.625,-465.2966 669,-433.934 686.1785,-401.0325 706.9143,-362.7963 718.1966,-342.1118"/>
<polygon fill="#191970" stroke="#191970" points="615.3887,-512.2469 607.6012,-519.4305 618.1688,-518.6711 615.3887,-512.2469"/>
</g>
<!-- Node234612&#45;&gt;Node234600 -->
<g id="edge27" class="edge">
<title>Node234612&#45;&gt;Node234600</title>
<path fill="none" stroke="#191970" d="M750.1354,-532.9148C781.1499,-513.2066 834.6946,-479.1816 860.8023,-462.5914"/>
<polygon fill="#191970" stroke="#191970" points="748.2205,-529.9847 741.6576,-538.3021 751.9749,-535.8928 748.2205,-529.9847"/>
</g>
<!-- Node234602&#45;&gt;Node234600 -->
<g id="edge29" class="edge">
<title>Node234602&#45;&gt;Node234600</title>
<path fill="none" stroke="#191970" d="M777.8323,-452.934C791.3544,-452.934 806.0137,-452.934 819.7783,-452.934"/>
<polygon fill="#191970" stroke="#191970" points="777.7473,-449.4341 767.7473,-452.934 777.7472,-456.4341 777.7473,-449.4341"/>
</g>
<!-- Node234614&#45;&gt;Node234600 -->
<g id="edge32" class="edge">
<title>Node234614&#45;&gt;Node234600</title>
<path fill="none" stroke="#191970" d="M752.4035,-348.7657C785.4053,-376.5799 841.0037,-423.4388 864.7259,-443.4321"/>
<polygon fill="#191970" stroke="#191970" points="754.4353,-345.9008 744.5332,-342.1326 749.9241,-351.2534 754.4353,-345.9008"/>
</g>
<!-- Node234614&#45;&gt;Node234614 -->
<g id="edge31" class="edge">
<title>Node234614&#45;&gt;Node234614</title>
<path fill="none" stroke="#191970" d="M700.2022,-352.3919C703.4661,-357.113 712.2321,-360.434 726.5,-360.434 749.9141,-360.434 758.5114,-351.4906 752.2921,-342.093"/>
<polygon fill="#191970" stroke="#191970" points="703.7132,-352.2527 700.7079,-342.093 696.7216,-351.9093 703.7132,-352.2527"/>
</g>
<!-- Node234624&#45;&gt;Node234600 -->
<g id="edge36" class="edge">
<title>Node234624&#45;&gt;Node234600</title>
<path fill="none" stroke="#191970" d="M613.1085,-388.8963C674.9392,-403.9577 779.925,-429.5311 836.7158,-443.3648"/>
<polygon fill="#191970" stroke="#191970" points="613.7434,-385.4487 603.1991,-386.4825 612.0866,-392.2498 613.7434,-385.4487"/>
</g>
<!-- Node234934&#45;&gt;Node234602 -->
<g id="edge41" class="edge">
<title>Node234934&#45;&gt;Node234602</title>
<path fill="none" stroke="#191970" d="M631.3348,-452.934C649.6367,-452.934 668.9096,-452.934 685.2884,-452.934"/>
<polygon fill="#191970" stroke="#191970" points="631.2915,-449.4341 621.2914,-452.934 631.2914,-456.4341 631.2915,-449.4341"/>
</g>
<!-- Node234935&#45;&gt;Node234936 -->
<g id="edge45" class="edge">
<title>Node234935&#45;&gt;Node234936</title>
<path fill="none" stroke="#191970" d="M453.2092,-239.5463C471.1525,-236.208 490.6702,-232.5768 508.254,-229.3054"/>
<polygon fill="#191970" stroke="#191970" points="452.3311,-236.1495 443.14,-241.4196 453.6115,-243.0314 452.3311,-236.1495"/>
</g>
<!-- Node234935&#45;&gt;Node234609 -->
<g id="edge48" class="edge">
<title>Node234935&#45;&gt;Node234609</title>
<path fill="none" stroke="#191970" d="M442.9877,-263.6147C448.4797,-265.5035 453.9145,-267.6087 459,-269.934 495.3028,-286.5329 533.3591,-314.6597 552.1112,-329.351"/>
<polygon fill="#191970" stroke="#191970" points="443.6948,-260.166 433.1037,-260.4478 441.5589,-266.8322 443.6948,-260.166"/>
</g>
<!-- Node234936&#45;&gt;Node234600 -->
<g id="edge47" class="edge">
<title>Node234936&#45;&gt;Node234600</title>
<path fill="none" stroke="#191970" d="M629.5694,-231.6669C676.6479,-243.4758 739.4025,-264.9628 784,-301.934 833.1566,-342.6848 863.1681,-416.8991 872.6943,-443.2969"/>
<polygon fill="#191970" stroke="#191970" points="630.3166,-228.2467 619.7735,-229.2918 628.6672,-235.0496 630.3166,-228.2467"/>
</g>
<!-- Node234936&#45;&gt;Node234614 -->
<g id="edge46" class="edge">
<title>Node234936&#45;&gt;Node234614</title>
<path fill="none" stroke="#191970" d="M613.2537,-238.2786C620.0463,-241.5382 626.8089,-245.1152 633,-248.934 637.0932,-251.4588 682.6243,-289.8173 708.6049,-311.7824"/>
<polygon fill="#191970" stroke="#191970" points="614.5715,-235.0323 604.0235,-234.0374 611.6488,-241.393 614.5715,-235.0323"/>
</g>
<!-- Node234609&#45;&gt;Node234602 -->
<g id="edge49" class="edge">
<title>Node234609&#45;&gt;Node234602</title>
<path fill="none" stroke="#191970" d="M621.3432,-352.1443C625.3935,-353.8534 629.3238,-355.775 633,-357.934 671.9111,-380.7865 705.7937,-423.9451 719.7316,-443.2154"/>
<polygon fill="#191970" stroke="#191970" points="622.33,-348.7761 611.738,-348.5306 619.8651,-355.3278 622.33,-348.7761"/>
</g>
<!-- Node234939&#45;&gt;Node234614 -->
<g id="edge56" class="edge">
<title>Node234939&#45;&gt;Node234614</title>
<path fill="none" stroke="#191970" d="M469.464,-280.1268C517.1131,-276.7164 579.1551,-275.9 633,-286.934 656.35,-291.7189 681.0746,-302.5809 699.2306,-311.7799"/>
<polygon fill="#191970" stroke="#191970" points="468.9183,-276.6584 459.2166,-280.9158 469.4558,-283.6377 468.9183,-276.6584"/>
</g>
</g>
</svg>
        <g id="navigator" transform="translate(0 0)" fill="#404254">
                <rect fill="#f2f5e9" fill-opacity="0.5" stroke="#606060" stroke-width=".5" x="0" y="0" width="60" height="60"/>
                <use id="zoomplus" xlink:href="#zoomPlus" x="17" y="9" onmousedown="handleZoom(evt,'in')"/>
                <use id="zoomminus" xlink:href="#zoomMin" x="42" y="9" onmousedown="handleZoom(evt,'out')"/>
                <use id="reset" xlink:href="#resetDef" x="30" y="36" onmousedown="handleReset()"/>
                <g id="arrowUp" xlink:href="#dirArrow" transform="translate(30 24)" onmousedown="handlePan(0,-1)">
                  <use xlink:href="#rim" fill="#404040">
                        <set attributeName="fill" to="#808080" begin="arrowUp.mouseover" end="arrowUp.mouseout"/>
                  </use>
                  <path fill="none" stroke="white" stroke-width="1.5" d="M0,-3.0v7 M-2.5,-0.5L0,-3.0L2.5,-0.5"/>
                </g>
                <g id="arrowRight" xlink:href="#dirArrow" transform="rotate(90) translate(36 -43)" onmousedown="handlePan(1,0)">
                  <use xlink:href="#rim" fill="#404040">
                        <set attributeName="fill" to="#808080" begin="arrowRight.mouseover" end="arrowRight.mouseout"/>
                  </use>
                  <path fill="none" stroke="white" stroke-width="1.5" d="M0,-3.0v7 M-2.5,-0.5L0,-3.0L2.5,-0.5"/>
                </g>
                <g id="arrowDown" xlink:href="#dirArrow" transform="rotate(180) translate(-30 -48)" onmousedown="handlePan(0,1)">
                  <use xlink:href="#rim" fill="#404040">
                        <set attributeName="fill" to="#808080" begin="arrowDown.mouseover" end="arrowDown.mouseout"/>
                  </use>
                  <path fill="none" stroke="white" stroke-width="1.5" d="M0,-3.0v7 M-2.5,-0.5L0,-3.0L2.5,-0.5"/>
                </g>
                <g id="arrowLeft" xlink:href="#dirArrow" transform="rotate(270) translate(-36 17)" onmousedown="handlePan(-1,0)">
                  <use xlink:href="#rim" fill="#404040">
                        <set attributeName="fill" to="#808080" begin="arrowLeft.mouseover" end="arrowLeft.mouseout"/>
                  </use>
                  <path fill="none" stroke="white" stroke-width="1.5" d="M0,-3.0v7 M-2.5,-0.5L0,-3.0L2.5,-0.5"/>
                </g>
        </g>
        <svg viewBox="0 0 15 15" width="100%" height="30px" preserveAspectRatio="xMaxYMin meet">
         <g id="arrow_out" transform="scale(0.3 0.3)">
          <a xlink:href="quickjs_8c_afe15bf5b8db2df1ac795c3803a1f67a6_icgraph_org.svg" target="_base">
           <rect id="button" ry="5" rx="5" y="6" x="6" height="38" width="38"
                fill="#f2f5e9" fill-opacity="0.5" stroke="#606060" stroke-width="1.0"/>
           <path id="arrow"
             d="M 11.500037,31.436501 C 11.940474,20.09759 22.043105,11.32322 32.158766,21.979434 L 37.068811,17.246167 C 37.068811,17.246167 37.088388,32 37.088388,32 L 22.160133,31.978069 C 22.160133,31.978069 26.997745,27.140456 26.997745,27.140456 C 18.528582,18.264221 13.291696,25.230495 11.500037,31.436501 z"
             style="fill:#404040;"/>
          </a>
         </g>
        </svg>
</svg>
