<?xml version="1.0" encoding="UTF-8" standalone="no"?>
<!DOCTYPE svg PUBLIC "-//W3C//DTD SVG 1.1//EN"
 "http://www.w3.org/Graphics/SVG/1.1/DTD/svg11.dtd">
<!-- Generated by graphviz version 2.40.1 (20161225.0304)
 -->
<!-- Title: js_promise_constructor Pages: 1 -->
<svg width="1056pt" height="229pt"
 viewBox="0.00 0.00 1056.00 229.00" xmlns="http://www.w3.org/2000/svg" xmlns:xlink="http://www.w3.org/1999/xlink">
<g id="graph0" class="graph" transform="scale(1 1) rotate(0) translate(4 225)">
<title>js_promise_constructor</title>
<!-- Node459780 -->
<g id="node1" class="node">
<title>Node459780</title>
<polygon fill="#bfbfbf" stroke="#000000" points="0,-136.5 0,-155.5 118,-155.5 118,-136.5 0,-136.5"/>
<text text-anchor="middle" x="59" y="-143.5" font-family="Helvetica,sans-Serif" font-size="10.00" fill="#000000">js_promise_constructor</text>
</g>
<!-- Node459781 -->
<g id="node2" class="node">
<title>Node459781</title>
<g id="a_node2"><a xlink:href="quickjs_8c.html#a2e66fcf1bc1d19f346317f10ee590621" target="_top" xlink:title="JS_AddIntrinsicPromise">
<polygon fill="none" stroke="#000000" points="655,-201.5 655,-220.5 777,-220.5 777,-201.5 655,-201.5"/>
<text text-anchor="middle" x="716" y="-208.5" font-family="Helvetica,sans-Serif" font-size="10.00" fill="#000000">JS_AddIntrinsicPromise</text>
</a>
</g>
</g>
<!-- Node459780&#45;&gt;Node459781 -->
<g id="edge1" class="edge">
<title>Node459780&#45;&gt;Node459781</title>
<path fill="none" stroke="#191970" d="M117.0167,-157.4738C200.1194,-173.2672 358.0332,-200.8976 494,-211 548.1944,-215.0267 610.0362,-214.6177 654.6609,-213.4377"/>
<polygon fill="#191970" stroke="#191970" points="117.4952,-154.0019 107.0157,-155.5615 116.1804,-160.8774 117.4952,-154.0019"/>
</g>
<!-- Node459786 -->
<g id="node5" class="node">
<title>Node459786</title>
<g id="a_node5"><a xlink:href="quickjs_8c.html#a28c0ccdd26317bc38d0a693f1dffe4dc" target="_top" xlink:title="js_new_promise_capability">
<polygon fill="none" stroke="#000000" points="154,-95.5 154,-114.5 288,-114.5 288,-95.5 154,-95.5"/>
<text text-anchor="middle" x="221" y="-102.5" font-family="Helvetica,sans-Serif" font-size="10.00" fill="#000000">js_new_promise_capability</text>
</a>
</g>
</g>
<!-- Node459780&#45;&gt;Node459786 -->
<g id="edge4" class="edge">
<title>Node459780&#45;&gt;Node459786</title>
<path fill="none" stroke="#191970" d="M106.3917,-134.0058C130.9072,-127.8013 160.4155,-120.3331 183.3503,-114.5286"/>
<polygon fill="#191970" stroke="#191970" points="105.4088,-130.6441 96.5732,-136.4907 107.1263,-137.4302 105.4088,-130.6441"/>
</g>
<!-- Node459782 -->
<g id="node3" class="node">
<title>Node459782</title>
<g id="a_node3"><a xlink:href="quickjs_8c.html#ad8aedb643b8753b7a15f6cb2df61945e" target="_top" xlink:title="JS_NewContext">
<polygon fill="none" stroke="#000000" points="813,-201.5 813,-220.5 902,-220.5 902,-201.5 813,-201.5"/>
<text text-anchor="middle" x="857.5" y="-208.5" font-family="Helvetica,sans-Serif" font-size="10.00" fill="#000000">JS_NewContext</text>
</a>
</g>
</g>
<!-- Node459781&#45;&gt;Node459782 -->
<g id="edge2" class="edge">
<title>Node459781&#45;&gt;Node459782</title>
<path fill="none" stroke="#191970" d="M787.3807,-211C796.0398,-211 804.6863,-211 812.8014,-211"/>
<polygon fill="#191970" stroke="#191970" points="787.241,-207.5001 777.241,-211 787.241,-214.5001 787.241,-207.5001"/>
</g>
<!-- Node459783 -->
<g id="node4" class="node">
<title>Node459783</title>
<g id="a_node4"><a xlink:href="classqjs_1_1Context.html#a4392a23648acfc4bf6b445336efb5007" target="_top" xlink:title="qjs::Context::Context">
<polygon fill="none" stroke="#ff0000" points="938,-201.5 938,-220.5 1048,-220.5 1048,-201.5 938,-201.5"/>
<text text-anchor="middle" x="993" y="-208.5" font-family="Helvetica,sans-Serif" font-size="10.00" fill="#000000">qjs::Context::Context</text>
</a>
</g>
</g>
<!-- Node459782&#45;&gt;Node459783 -->
<g id="edge3" class="edge">
<title>Node459782&#45;&gt;Node459783</title>
<path fill="none" stroke="#191970" d="M912.3476,-211C920.7739,-211 929.4767,-211 937.9083,-211"/>
<polygon fill="#191970" stroke="#191970" points="912.2433,-207.5001 902.2433,-211 912.2433,-214.5001 912.2433,-207.5001"/>
</g>
<!-- Node459787 -->
<g id="node6" class="node">
<title>Node459787</title>
<g id="a_node6"><a xlink:href="quickjs_8c.html#a2287eaf81466a0d408341cdae08ed673" target="_top" xlink:title="JS_NewPromiseCapability">
<polygon fill="none" stroke="#000000" points="324,-152.5 324,-171.5 458,-171.5 458,-152.5 324,-152.5"/>
<text text-anchor="middle" x="391" y="-159.5" font-family="Helvetica,sans-Serif" font-size="10.00" fill="#000000">JS_NewPromiseCapability</text>
</a>
</g>
</g>
<!-- Node459786&#45;&gt;Node459787 -->
<g id="edge5" class="edge">
<title>Node459786&#45;&gt;Node459787</title>
<path fill="none" stroke="#191970" d="M254.9523,-118.276C274.9237,-125.8966 300.7446,-135.4252 324,-143 334.1166,-146.2952 345.195,-149.5701 355.3786,-152.4492"/>
<polygon fill="#191970" stroke="#191970" points="255.9613,-114.9143 245.3713,-114.5955 253.4511,-121.4488 255.9613,-114.9143"/>
</g>
<!-- Node459854 -->
<g id="node11" class="node">
<title>Node459854</title>
<g id="a_node11"><a xlink:href="quickjs_8c.html#a7a5c4f3ad3260974d9a0c75120ce5647" target="_top" xlink:title="js_promise_all">
<polygon fill="none" stroke="#000000" points="351.5,-114.5 351.5,-133.5 430.5,-133.5 430.5,-114.5 351.5,-114.5"/>
<text text-anchor="middle" x="391" y="-121.5" font-family="Helvetica,sans-Serif" font-size="10.00" fill="#000000">js_promise_all</text>
</a>
</g>
</g>
<!-- Node459786&#45;&gt;Node459854 -->
<g id="edge11" class="edge">
<title>Node459786&#45;&gt;Node459854</title>
<path fill="none" stroke="#191970" d="M298.2875,-113.638C316.5941,-115.684 335.3818,-117.7838 351.2163,-119.5536"/>
<polygon fill="#191970" stroke="#191970" points="298.5154,-110.1418 288.1885,-112.5093 297.7378,-117.0985 298.5154,-110.1418"/>
</g>
<!-- Node459855 -->
<g id="node12" class="node">
<title>Node459855</title>
<g id="a_node12"><a xlink:href="quickjs_8c.html#a44e36674957b179c1963f7046c049d14" target="_top" xlink:title="js_promise_race">
<polygon fill="none" stroke="#000000" points="347,-76.5 347,-95.5 435,-95.5 435,-76.5 347,-76.5"/>
<text text-anchor="middle" x="391" y="-83.5" font-family="Helvetica,sans-Serif" font-size="10.00" fill="#000000">js_promise_race</text>
</a>
</g>
</g>
<!-- Node459786&#45;&gt;Node459855 -->
<g id="edge12" class="edge">
<title>Node459786&#45;&gt;Node459855</title>
<path fill="none" stroke="#191970" d="M298.4777,-96.3407C315.1202,-94.4807 332.1504,-92.5773 346.9893,-90.9188"/>
<polygon fill="#191970" stroke="#191970" points="297.7378,-92.9015 288.1885,-97.4907 298.5154,-99.8582 297.7378,-92.9015"/>
</g>
<!-- Node459870 -->
<g id="node13" class="node">
<title>Node459870</title>
<g id="a_node13"><a xlink:href="quickjs_8c.html#a192c7bd4fc5264ccdf89e13ed5bc0dcc" target="_top" xlink:title="js_promise_resolve">
<polygon fill="none" stroke="#ff0000" points="340.5,-38.5 340.5,-57.5 441.5,-57.5 441.5,-38.5 340.5,-38.5"/>
<text text-anchor="middle" x="391" y="-45.5" font-family="Helvetica,sans-Serif" font-size="10.00" fill="#000000">js_promise_resolve</text>
</a>
</g>
</g>
<!-- Node459786&#45;&gt;Node459870 -->
<g id="edge13" class="edge">
<title>Node459786&#45;&gt;Node459870</title>
<path fill="none" stroke="#191970" d="M254.9523,-91.724C274.9237,-84.1034 300.7446,-74.5748 324,-67 334.1166,-63.7048 345.195,-60.4299 355.3786,-57.5508"/>
<polygon fill="#191970" stroke="#191970" points="253.4511,-88.5512 245.3713,-95.4045 255.9613,-95.0857 253.4511,-88.5512"/>
</g>
<!-- Node459884 -->
<g id="node14" class="node">
<title>Node459884</title>
<g id="a_node14"><a xlink:href="quickjs_8c.html#ad66faf78650b6f6217fc4327b0739ba0" target="_top" xlink:title="js_promise_then">
<polygon fill="none" stroke="#000000" points="347,-.5 347,-19.5 435,-19.5 435,-.5 347,-.5"/>
<text text-anchor="middle" x="391" y="-7.5" font-family="Helvetica,sans-Serif" font-size="10.00" fill="#000000">js_promise_then</text>
</a>
</g>
</g>
<!-- Node459786&#45;&gt;Node459884 -->
<g id="edge15" class="edge">
<title>Node459786&#45;&gt;Node459884</title>
<path fill="none" stroke="#191970" d="M238.8026,-88.7095C258.3614,-71.604 291.3534,-45.0127 324,-29 331.7072,-25.2197 340.2929,-22.0749 348.677,-19.5037"/>
<polygon fill="#191970" stroke="#191970" points="236.4266,-86.1387 231.2828,-95.4011 241.08,-91.368 236.4266,-86.1387"/>
</g>
<!-- Node459788 -->
<g id="node7" class="node">
<title>Node459788</title>
<g id="a_node7"><a xlink:href="quickjs_8c.html#a8029b29b8458274699fbcb7ce42a7100" target="_top" xlink:title="js_async_function_call">
<polygon fill="none" stroke="#000000" points="498.5,-182.5 498.5,-201.5 614.5,-201.5 614.5,-182.5 498.5,-182.5"/>
<text text-anchor="middle" x="556.5" y="-189.5" font-family="Helvetica,sans-Serif" font-size="10.00" fill="#000000">js_async_function_call</text>
</a>
</g>
</g>
<!-- Node459787&#45;&gt;Node459788 -->
<g id="edge6" class="edge">
<title>Node459787&#45;&gt;Node459788</title>
<path fill="none" stroke="#191970" d="M453.9171,-173.4049C470.4055,-176.3937 488.0102,-179.5849 503.8976,-182.4648"/>
<polygon fill="#191970" stroke="#191970" points="454.2842,-169.9145 443.8203,-171.5747 453.0356,-176.8023 454.2842,-169.9145"/>
</g>
<!-- Node459789 -->
<g id="node8" class="node">
<title>Node459789</title>
<g id="a_node8"><a xlink:href="quickjs_8c.html#a2355fabf91f59212ea65baba1b0b7c1b" target="_top" xlink:title="js_async_generator_next">
<polygon fill="none" stroke="#000000" points="494,-144.5 494,-163.5 619,-163.5 619,-144.5 494,-144.5"/>
<text text-anchor="middle" x="556.5" y="-151.5" font-family="Helvetica,sans-Serif" font-size="10.00" fill="#000000">js_async_generator_next</text>
</a>
</g>
</g>
<!-- Node459787&#45;&gt;Node459789 -->
<g id="edge8" class="edge">
<title>Node459787&#45;&gt;Node459789</title>
<path fill="none" stroke="#191970" d="M468.5651,-158.2506C477.0172,-157.8421 485.5417,-157.43 493.7841,-157.0316"/>
<polygon fill="#191970" stroke="#191970" points="468.1345,-154.7673 458.3152,-158.7461 468.4725,-161.7591 468.1345,-154.7673"/>
</g>
<!-- Node459790 -->
<g id="node9" class="node">
<title>Node459790</title>
<g id="a_node9"><a xlink:href="quickjs_8c.html#a50e94675d1c4cf67c88e72169ea3c21a" target="_top" xlink:title="js_dynamic_import">
<polygon fill="none" stroke="#ff0000" points="507.5,-106.5 507.5,-125.5 605.5,-125.5 605.5,-106.5 507.5,-106.5"/>
<text text-anchor="middle" x="556.5" y="-113.5" font-family="Helvetica,sans-Serif" font-size="10.00" fill="#000000">js_dynamic_import</text>
</a>
</g>
</g>
<!-- Node459787&#45;&gt;Node459790 -->
<g id="edge9" class="edge">
<title>Node459787&#45;&gt;Node459790</title>
<path fill="none" stroke="#191970" d="M435.003,-149.7696C462.3408,-142.1711 496.9658,-132.5473 522.2522,-125.519"/>
<polygon fill="#191970" stroke="#191970" points="433.9892,-146.4186 425.2917,-152.4688 435.8638,-153.1629 433.9892,-146.4186"/>
</g>
<!-- Node459814 -->
<g id="node10" class="node">
<title>Node459814</title>
<g id="a_node10"><a xlink:href="quickjs_8c.html#aa45afa6d2861615f29444c9614ce766a" target="_top" xlink:title="js_async_from_sync\l_iterator_next">
<polygon fill="none" stroke="#000000" points="503,-49 503,-79 610,-79 610,-49 503,-49"/>
<text text-anchor="start" x="511" y="-67" font-family="Helvetica,sans-Serif" font-size="10.00" fill="#000000">js_async_from_sync</text>
<text text-anchor="middle" x="556.5" y="-56" font-family="Helvetica,sans-Serif" font-size="10.00" fill="#000000">_iterator_next</text>
</a>
</g>
</g>
<!-- Node459787&#45;&gt;Node459814 -->
<g id="edge10" class="edge">
<title>Node459787&#45;&gt;Node459814</title>
<path fill="none" stroke="#191970" d="M448.6196,-148.3519C451.8948,-146.7586 455.0503,-144.9816 458,-143 479.5498,-128.5231 474.0817,-113.6504 494,-97 502.2845,-90.0746 512.2587,-84.011 521.782,-79.0351"/>
<polygon fill="#191970" stroke="#191970" points="446.9822,-145.2446 439.1441,-152.373 449.7168,-151.6883 446.9822,-145.2446"/>
</g>
<!-- Node459788&#45;&gt;Node459781 -->
<g id="edge7" class="edge">
<title>Node459788&#45;&gt;Node459781</title>
<path fill="none" stroke="#191970" d="M624.4886,-200.099C634.5525,-201.2978 644.8719,-202.5271 654.7866,-203.7081"/>
<polygon fill="#191970" stroke="#191970" points="624.8782,-196.6207 614.5344,-198.9132 624.0501,-203.5716 624.8782,-196.6207"/>
</g>
<!-- Node459870&#45;&gt;Node459814 -->
<g id="edge14" class="edge">
<title>Node459870&#45;&gt;Node459814</title>
<path fill="none" stroke="#191970" d="M451.7746,-53.8755C468.4995,-55.4924 486.5156,-57.2341 502.8098,-58.8094"/>
<polygon fill="#191970" stroke="#191970" points="451.8452,-50.3661 441.5547,-52.8875 451.1715,-57.3336 451.8452,-50.3661"/>
</g>
</g>
</svg>
