<?xml version="1.0" encoding="UTF-8" standalone="no"?>
<!DOCTYPE svg PUBLIC "-//W3C//DTD SVG 1.1//EN"
 "http://www.w3.org/Graphics/SVG/1.1/DTD/svg11.dtd">
<!-- Generated by graphviz version 2.40.1 (20161225.0304)
 -->
<!-- Title: js_array_from Pages: 1 -->
<svg width="685pt" height="1186pt"
 viewBox="0.00 0.00 685.00 1186.00" xmlns="http://www.w3.org/2000/svg" xmlns:xlink="http://www.w3.org/1999/xlink">
<g id="graph0" class="graph" transform="scale(1 1) rotate(0) translate(4 1182)">
<title>js_array_from</title>
<!-- Node396269 -->
<g id="node1" class="node">
<title>Node396269</title>
<polygon fill="#bfbfbf" stroke="#000000" points="0,-427.5 0,-446.5 76,-446.5 76,-427.5 0,-427.5"/>
<text text-anchor="middle" x="38" y="-434.5" font-family="Helvetica,sans-Serif" font-size="10.00" fill="#000000">js_array_from</text>
</g>
<!-- Node396270 -->
<g id="node2" class="node">
<title>Node396270</title>
<g id="a_node2"><a xlink:href="quickjs_8c.html#a59a7e992f228759bf0a56f0aae4f3cc3" target="_top" xlink:title="check_function">
<polygon fill="none" stroke="#000000" points="143.5,-1158.5 143.5,-1177.5 226.5,-1177.5 226.5,-1158.5 143.5,-1158.5"/>
<text text-anchor="middle" x="185" y="-1165.5" font-family="Helvetica,sans-Serif" font-size="10.00" fill="#000000">check_function</text>
</a>
</g>
</g>
<!-- Node396269&#45;&gt;Node396270 -->
<g id="edge1" class="edge">
<title>Node396269&#45;&gt;Node396270</title>
<path fill="none" stroke="#191970" d="M38.3828,-446.6493C41.66,-527.2478 65.9968,-1086.9632 112,-1144 117.6593,-1151.0167 125.4169,-1156.0013 133.7708,-1159.5378"/>
<polygon fill="#191970" stroke="#191970" points="132.7811,-1162.9004 143.3759,-1162.9464 135.1222,-1156.3035 132.7811,-1162.9004"/>
</g>
<!-- Node396272 -->
<g id="node4" class="node">
<title>Node396272</title>
<g id="a_node4"><a xlink:href="quickjs_8c.html#a68c7842d6b1ef577bc4625aec4ede310" target="_top" xlink:title="js_array_constructor">
<polygon fill="none" stroke="#000000" points="132.5,-779.5 132.5,-798.5 237.5,-798.5 237.5,-779.5 132.5,-779.5"/>
<text text-anchor="middle" x="185" y="-786.5" font-family="Helvetica,sans-Serif" font-size="10.00" fill="#000000">js_array_constructor</text>
</a>
</g>
</g>
<!-- Node396269&#45;&gt;Node396272 -->
<g id="edge3" class="edge">
<title>Node396269&#45;&gt;Node396272</title>
<path fill="none" stroke="#191970" d="M40.7387,-446.5842C49.5656,-477.0523 78.6428,-574.1981 112,-651 131.1487,-695.0882 158.7997,-744.3187 173.9836,-770.4088"/>
<polygon fill="#191970" stroke="#191970" points="171.0708,-772.3607 179.1488,-779.2161 177.109,-768.8195 171.0708,-772.3607"/>
</g>
<!-- Node396274 -->
<g id="node6" class="node">
<title>Node396274</title>
<g id="a_node6"><a xlink:href="quickjs_8h.html#a775522f2d084fc8fa0fcb33f390006b4" target="_top" xlink:title="JS_DupValue">
<polygon fill="none" stroke="#000000" points="483.5,-1044.5 483.5,-1063.5 560.5,-1063.5 560.5,-1044.5 483.5,-1044.5"/>
<text text-anchor="middle" x="522" y="-1051.5" font-family="Helvetica,sans-Serif" font-size="10.00" fill="#000000">JS_DupValue</text>
</a>
</g>
</g>
<!-- Node396269&#45;&gt;Node396274 -->
<g id="edge30" class="edge">
<title>Node396269&#45;&gt;Node396274</title>
<path fill="none" stroke="#191970" d="M38.4442,-446.6982C42.0311,-523.1139 67.2786,-1026.559 112,-1075 162.1895,-1129.3639 372.5944,-1133.748 443,-1111 467.4419,-1103.1028 490.6877,-1084.5142 505.5541,-1070.6992"/>
<polygon fill="#191970" stroke="#191970" points="508.1343,-1073.0733 512.9054,-1063.6135 503.2765,-1068.0333 508.1343,-1073.0733"/>
</g>
<!-- Node396275 -->
<g id="node7" class="node">
<title>Node396275</title>
<g id="a_node7"><a xlink:href="quickjs_8h.html#afaa20c47565bc704c6c85f3d77254e7d" target="_top" xlink:title="JS_FreeValue">
<polygon fill="none" stroke="#ff0000" points="483,-532.5 483,-551.5 561,-551.5 561,-532.5 483,-532.5"/>
<text text-anchor="middle" x="522" y="-539.5" font-family="Helvetica,sans-Serif" font-size="10.00" fill="#000000">JS_FreeValue</text>
</a>
</g>
</g>
<!-- Node396269&#45;&gt;Node396275 -->
<g id="edge35" class="edge">
<title>Node396269&#45;&gt;Node396275</title>
<path fill="none" stroke="#191970" d="M76.0903,-435.2851C149.7086,-433.2971 315.5039,-435.3295 443,-485 466.6679,-494.2207 489.7557,-512.2407 504.7979,-525.5619"/>
<polygon fill="#191970" stroke="#191970" points="502.5349,-528.2351 512.2796,-532.3934 507.255,-523.0658 502.5349,-528.2351"/>
</g>
<!-- Node396315 -->
<g id="node8" class="node">
<title>Node396315</title>
<g id="a_node8"><a xlink:href="quickjs_8h.html#a89b7c8686c7eee70b86be722ee4730ad" target="_top" xlink:title="JS_GetProperty">
<polygon fill="none" stroke="#ff0000" points="479,-361.5 479,-380.5 565,-380.5 565,-361.5 479,-361.5"/>
<text text-anchor="middle" x="522" y="-368.5" font-family="Helvetica,sans-Serif" font-size="10.00" fill="#000000">JS_GetProperty</text>
</a>
</g>
</g>
<!-- Node396269&#45;&gt;Node396315 -->
<g id="edge41" class="edge">
<title>Node396269&#45;&gt;Node396315</title>
<path fill="none" stroke="#191970" d="M38.4715,-427.3051C40.58,-395.9897 51.9332,-297.2506 112,-257 173.105,-216.0537 377.8382,-222.8772 443,-257 481.2286,-277.0189 504.6486,-324.8764 515.259,-351.7857"/>
<polygon fill="#191970" stroke="#191970" points="512.0292,-353.1412 518.8119,-361.2803 518.5852,-350.6879 512.0292,-353.1412"/>
</g>
<!-- Node396324 -->
<g id="node9" class="node">
<title>Node396324</title>
<g id="a_node9"><a xlink:href="quickjs_8h.html#ad80a83d73e9b7d872b88fbf2943aebe9" target="_top" xlink:title="JS_IsException">
<polygon fill="none" stroke="#000000" points="479,-684.5 479,-703.5 565,-703.5 565,-684.5 479,-684.5"/>
<text text-anchor="middle" x="522" y="-691.5" font-family="Helvetica,sans-Serif" font-size="10.00" fill="#000000">JS_IsException</text>
</a>
</g>
</g>
<!-- Node396269&#45;&gt;Node396324 -->
<g id="edge46" class="edge">
<title>Node396269&#45;&gt;Node396324</title>
<path fill="none" stroke="#191970" d="M38.6277,-446.6352C42.2421,-499.2796 62.0132,-751.816 112,-808 211.3262,-919.6405 317.2928,-947.7898 443,-867 496.6169,-832.5413 514.2926,-751.6876 519.7441,-713.997"/>
<polygon fill="#191970" stroke="#191970" points="523.2533,-714.1522 521.0698,-703.7848 516.3115,-713.251 523.2533,-714.1522"/>
</g>
<!-- Node396481 -->
<g id="node10" class="node">
<title>Node396481</title>
<g id="a_node10"><a xlink:href="quickjs_8h.html#a4e407128a9605afb77523e49e9a627fd" target="_top" xlink:title="JS_IsUndefined">
<polygon fill="none" stroke="#000000" points="479,-399.5 479,-418.5 565,-418.5 565,-399.5 479,-399.5"/>
<text text-anchor="middle" x="522" y="-406.5" font-family="Helvetica,sans-Serif" font-size="10.00" fill="#000000">JS_IsUndefined</text>
</a>
</g>
</g>
<!-- Node396269&#45;&gt;Node396481 -->
<g id="edge47" class="edge">
<title>Node396269&#45;&gt;Node396481</title>
<path fill="none" stroke="#191970" d="M54.805,-427.4209C69.4644,-419.4675 91.5323,-408.4494 112,-402 252.9244,-357.5947 299.5794,-335.475 443,-371 460.561,-375.3498 462.716,-382.117 479,-390 482.6156,-391.7503 486.4305,-393.5299 490.2342,-395.2628"/>
<polygon fill="#191970" stroke="#191970" points="488.9895,-398.5403 499.5468,-399.4311 491.8493,-392.1511 488.9895,-398.5403"/>
</g>
<!-- Node396401 -->
<g id="node12" class="node">
<title>Node396401</title>
<g id="a_node12"><a xlink:href="quickjs_8h.html#a88259aa0da61ac754402c64ccecee116" target="_top" xlink:title="JS_NewUint32">
<polygon fill="none" stroke="#ff0000" points="480.5,-949.5 480.5,-968.5 563.5,-968.5 563.5,-949.5 480.5,-949.5"/>
<text text-anchor="middle" x="522" y="-956.5" font-family="Helvetica,sans-Serif" font-size="10.00" fill="#000000">JS_NewUint32</text>
</a>
</g>
</g>
<!-- Node396269&#45;&gt;Node396401 -->
<g id="edge60" class="edge">
<title>Node396269&#45;&gt;Node396401</title>
<path fill="none" stroke="#191970" d="M38.5657,-446.5153C42.0969,-503.3377 62.5894,-797.8405 112,-871 165.1583,-949.7085 202.6121,-957.1334 294,-983 357.719,-1001.0352 377.4965,-992.7303 443,-983 457.9463,-980.7798 473.9786,-976.3186 487.6684,-971.8385"/>
<polygon fill="#191970" stroke="#191970" points="488.8338,-975.1391 497.1736,-968.6047 486.5792,-968.5121 488.8338,-975.1391"/>
</g>
<!-- Node396325 -->
<g id="node13" class="node">
<title>Node396325</title>
<g id="a_node13"><a xlink:href="quickjs_8h.html#a2050bc428da1c65ac7eb87c3fa3b0392" target="_top" xlink:title="JS_NewInt32">
<polygon fill="none" stroke="#000000" points="601,-266.5 601,-285.5 677,-285.5 677,-266.5 601,-266.5"/>
<text text-anchor="middle" x="639" y="-273.5" font-family="Helvetica,sans-Serif" font-size="10.00" fill="#000000">JS_NewInt32</text>
</a>
</g>
</g>
<!-- Node396269&#45;&gt;Node396325 -->
<g id="edge58" class="edge">
<title>Node396269&#45;&gt;Node396325</title>
<path fill="none" stroke="#191970" d="M39.2321,-427.423C44.9567,-384.5839 70.4517,-211.273 112,-180 119.5384,-174.3259 413.2478,-175.4942 443,-181 499.981,-191.5447 513.4066,-200.6154 565,-227 583.8588,-236.6443 603.802,-250.0603 618.227,-260.4163"/>
<polygon fill="#191970" stroke="#191970" points="616.2956,-263.3396 626.4364,-266.4078 620.4223,-257.6854 616.2956,-263.3396"/>
</g>
<!-- Node396588 -->
<g id="node14" class="node">
<title>Node396588</title>
<g id="a_node14"><a xlink:href="quickjs_8h.html#af763b173e78debf2075670ca2c128a30" target="_top" xlink:title="JS_SetProperty">
<polygon fill="none" stroke="#ff0000" points="325.5,-646.5 325.5,-665.5 411.5,-665.5 411.5,-646.5 325.5,-646.5"/>
<text text-anchor="middle" x="368.5" y="-653.5" font-family="Helvetica,sans-Serif" font-size="10.00" fill="#000000">JS_SetProperty</text>
</a>
</g>
</g>
<!-- Node396269&#45;&gt;Node396588 -->
<g id="edge61" class="edge">
<title>Node396269&#45;&gt;Node396588</title>
<path fill="none" stroke="#191970" d="M40.0191,-446.508C46.0461,-472.5171 66.3938,-545.3997 112,-583 170.3491,-631.1063 258.6565,-647.5431 314.9415,-653.1394"/>
<polygon fill="#191970" stroke="#191970" points="314.7873,-656.6397 325.0641,-654.0633 315.4237,-649.6687 314.7873,-656.6397"/>
</g>
<!-- Node396551 -->
<g id="node17" class="node">
<title>Node396551</title>
<g id="a_node17"><a xlink:href="quickjs_8c.html#a1a4c02a29525d5cb2085dd8bca3af350" target="_top" xlink:title="JS_Call">
<polygon fill="none" stroke="#ff0000" points="159.5,-114.5 159.5,-133.5 210.5,-133.5 210.5,-114.5 159.5,-114.5"/>
<text text-anchor="middle" x="185" y="-121.5" font-family="Helvetica,sans-Serif" font-size="10.00" fill="#000000">JS_Call</text>
</a>
</g>
</g>
<!-- Node396269&#45;&gt;Node396551 -->
<g id="edge23" class="edge">
<title>Node396269&#45;&gt;Node396551</title>
<path fill="none" stroke="#191970" d="M39.2024,-427.4871C45.0782,-382.4019 72.1134,-190.6513 112,-148 121.7303,-137.5952 136.0442,-131.6948 149.425,-128.3513"/>
<polygon fill="#191970" stroke="#191970" points="150.3164,-131.7405 159.3841,-126.2607 148.8783,-124.8899 150.3164,-131.7405"/>
</g>
<!-- Node396642 -->
<g id="node18" class="node">
<title>Node396642</title>
<g id="a_node18"><a xlink:href="quickjs_8c.html#a28704096ee67c5b0ab1bd60ce050e36a" target="_top" xlink:title="JS_CallConstructor">
<polygon fill="none" stroke="#ff0000" points="134,-76.5 134,-95.5 236,-95.5 236,-76.5 134,-76.5"/>
<text text-anchor="middle" x="185" y="-83.5" font-family="Helvetica,sans-Serif" font-size="10.00" fill="#000000">JS_CallConstructor</text>
</a>
</g>
</g>
<!-- Node396269&#45;&gt;Node396642 -->
<g id="edge24" class="edge">
<title>Node396269&#45;&gt;Node396642</title>
<path fill="none" stroke="#191970" d="M38.8126,-427.3688C43.172,-377.9539 65.3476,-153.3299 112,-105 115.658,-101.2105 119.9684,-98.1427 124.6359,-95.6635"/>
<polygon fill="#191970" stroke="#191970" points="126.2104,-98.7951 133.9743,-91.586 123.4093,-92.38 126.2104,-98.7951"/>
</g>
<!-- Node396706 -->
<g id="node19" class="node">
<title>Node396706</title>
<g id="a_node19"><a xlink:href="quickjs_8c.html#a57a83f0615206965524d78bf89bbf777" target="_top" xlink:title="JS_DefinePropertyValueInt64">
<polygon fill="none" stroke="#000000" points="112,-304.5 112,-323.5 258,-323.5 258,-304.5 112,-304.5"/>
<text text-anchor="middle" x="185" y="-311.5" font-family="Helvetica,sans-Serif" font-size="10.00" fill="#000000">JS_DefinePropertyValueInt64</text>
</a>
</g>
</g>
<!-- Node396269&#45;&gt;Node396706 -->
<g id="edge25" class="edge">
<title>Node396269&#45;&gt;Node396706</title>
<path fill="none" stroke="#191970" d="M42.6616,-427.2801C52.6146,-407.5395 77.8498,-362.5494 112,-338 117.9579,-333.7171 124.7252,-330.1667 131.6793,-327.2318"/>
<polygon fill="#191970" stroke="#191970" points="133.1188,-330.4289 141.2193,-323.6001 130.6283,-323.8869 133.1188,-330.4289"/>
</g>
<!-- Node396537 -->
<g id="node21" class="node">
<title>Node396537</title>
<g id="a_node21"><a xlink:href="quickjs_8h.html#a6acbc709e59969eac6775f9b253b438f" target="_top" xlink:title="JS_NewInt64">
<polygon fill="none" stroke="#ff0000" points="330.5,-266.5 330.5,-285.5 406.5,-285.5 406.5,-266.5 330.5,-266.5"/>
<text text-anchor="middle" x="368.5" y="-273.5" font-family="Helvetica,sans-Serif" font-size="10.00" fill="#000000">JS_NewInt64</text>
</a>
</g>
</g>
<!-- Node396269&#45;&gt;Node396537 -->
<g id="edge59" class="edge">
<title>Node396269&#45;&gt;Node396537</title>
<path fill="none" stroke="#191970" d="M39.7352,-427.2487C45.0367,-400.6645 63.702,-326.793 112,-295 174.3702,-253.9437 264.7038,-258.4174 319.8559,-266.4577"/>
<polygon fill="#191970" stroke="#191970" points="319.645,-269.9669 330.0642,-268.0455 320.7209,-263.0501 319.645,-269.9669"/>
</g>
<!-- Node396660 -->
<g id="node22" class="node">
<title>Node396660</title>
<g id="a_node22"><a xlink:href="quickjs_8c.html#ac71df7cd121a3af9abf57897c58e75c2" target="_top" xlink:title="js_for_of_start">
<polygon fill="none" stroke="#ff0000" points="329,-570.5 329,-589.5 408,-589.5 408,-570.5 329,-570.5"/>
<text text-anchor="middle" x="368.5" y="-577.5" font-family="Helvetica,sans-Serif" font-size="10.00" fill="#000000">js_for_of_start</text>
</a>
</g>
</g>
<!-- Node396269&#45;&gt;Node396660 -->
<g id="edge31" class="edge">
<title>Node396269&#45;&gt;Node396660</title>
<path fill="none" stroke="#191970" d="M41.0774,-446.7311C48.8237,-469.4459 71.4609,-525.9323 112,-551 175.023,-589.9709 263.6359,-590.6986 318.4929,-586.3269"/>
<polygon fill="#191970" stroke="#191970" points="319.0102,-589.7949 328.6628,-585.427 318.3931,-582.8222 319.0102,-589.7949"/>
</g>
<!-- Node396707 -->
<g id="node23" class="node">
<title>Node396707</title>
<g id="a_node23"><a xlink:href="quickjs_8c.html#a5f848f76409193212a44e6221e430919" target="_top" xlink:title="js_get_length64">
<polygon fill="none" stroke="#000000" points="142.5,-494.5 142.5,-513.5 227.5,-513.5 227.5,-494.5 142.5,-494.5"/>
<text text-anchor="middle" x="185" y="-501.5" font-family="Helvetica,sans-Serif" font-size="10.00" fill="#000000">js_get_length64</text>
</a>
</g>
</g>
<!-- Node396269&#45;&gt;Node396707 -->
<g id="edge36" class="edge">
<title>Node396269&#45;&gt;Node396707</title>
<path fill="none" stroke="#191970" d="M52.5385,-446.6742C67.1211,-456.0791 90.4474,-470.3231 112,-480 121.3104,-484.1803 131.5752,-488.0054 141.3925,-491.3142"/>
<polygon fill="#191970" stroke="#191970" points="140.4165,-494.6772 151.0088,-494.4451 142.5836,-488.0211 140.4165,-494.6772"/>
</g>
<!-- Node396711 -->
<g id="node25" class="node">
<title>Node396711</title>
<g id="a_node25"><a xlink:href="quickjs_8c.html#a7bb763b31e1c40a04aa0c1d5db0f1191" target="_top" xlink:title="JS_GetPropertyInt64">
<polygon fill="none" stroke="#ff0000" points="314.5,-190.5 314.5,-209.5 422.5,-209.5 422.5,-190.5 314.5,-190.5"/>
<text text-anchor="middle" x="368.5" y="-197.5" font-family="Helvetica,sans-Serif" font-size="10.00" fill="#000000">JS_GetPropertyInt64</text>
</a>
</g>
</g>
<!-- Node396269&#45;&gt;Node396711 -->
<g id="edge42" class="edge">
<title>Node396269&#45;&gt;Node396711</title>
<path fill="none" stroke="#191970" d="M39.9148,-427.3842C47.6799,-389.4067 78.033,-250.6274 112,-224 168.4983,-179.7097 254.9835,-181.5239 311.6421,-189.0396"/>
<polygon fill="#191970" stroke="#191970" points="311.4659,-192.5499 321.8604,-190.4994 312.456,-185.6202 311.4659,-192.5499"/>
</g>
<!-- Node396681 -->
<g id="node26" class="node">
<title>Node396681</title>
<g id="a_node26"><a xlink:href="quickjs_8c.html#afa39b15865cb50fc2383e76e33b2de1a" target="_top" xlink:title="JS_IsConstructor">
<polygon fill="none" stroke="#000000" points="138.5,-38.5 138.5,-57.5 231.5,-57.5 231.5,-38.5 138.5,-38.5"/>
<text text-anchor="middle" x="185" y="-45.5" font-family="Helvetica,sans-Serif" font-size="10.00" fill="#000000">JS_IsConstructor</text>
</a>
</g>
</g>
<!-- Node396269&#45;&gt;Node396681 -->
<g id="edge45" class="edge">
<title>Node396269&#45;&gt;Node396681</title>
<path fill="none" stroke="#191970" d="M38.5773,-427.3407C41.9232,-374.5721 60.5013,-121.5336 112,-67 116.7121,-62.0102 122.5541,-58.2672 128.866,-55.4695"/>
<polygon fill="#191970" stroke="#191970" points="130.1715,-58.719 138.373,-52.0119 127.779,-52.1406 130.1715,-58.719"/>
</g>
<!-- Node396554 -->
<g id="node27" class="node">
<title>Node396554</title>
<g id="a_node27"><a xlink:href="quickjs_8c.html#abb88b24dc63d82fcc312bba0cf93c3d7" target="_top" xlink:title="JS_IteratorClose">
<polygon fill="none" stroke="#ff0000" points="323.5,-380.5 323.5,-399.5 413.5,-399.5 413.5,-380.5 323.5,-380.5"/>
<text text-anchor="middle" x="368.5" y="-387.5" font-family="Helvetica,sans-Serif" font-size="10.00" fill="#000000">JS_IteratorClose</text>
</a>
</g>
</g>
<!-- Node396269&#45;&gt;Node396554 -->
<g id="edge48" class="edge">
<title>Node396269&#45;&gt;Node396554</title>
<path fill="none" stroke="#191970" d="M76.2354,-431.5626C134.5806,-423.2654 246.1197,-407.4035 313.2617,-397.8554"/>
<polygon fill="#191970" stroke="#191970" points="313.8301,-401.3098 323.2377,-396.4367 312.8445,-394.3796 313.8301,-401.3098"/>
</g>
<!-- Node396555 -->
<g id="node28" class="node">
<title>Node396555</title>
<g id="a_node28"><a xlink:href="quickjs_8c.html#a44f6eee98516c994a594533cfa8618ed" target="_top" xlink:title="JS_IteratorNext">
<polygon fill="none" stroke="#ff0000" points="325.5,-532.5 325.5,-551.5 411.5,-551.5 411.5,-532.5 325.5,-532.5"/>
<text text-anchor="middle" x="368.5" y="-539.5" font-family="Helvetica,sans-Serif" font-size="10.00" fill="#000000">JS_IteratorNext</text>
</a>
</g>
</g>
<!-- Node396269&#45;&gt;Node396555 -->
<g id="edge53" class="edge">
<title>Node396269&#45;&gt;Node396555</title>
<path fill="none" stroke="#191970" d="M42.9152,-446.6618C52.977,-465.2774 77.8811,-505.7931 112,-523 176.2369,-555.396 261.2157,-554.5403 315.3843,-549.4556"/>
<polygon fill="#191970" stroke="#191970" points="315.8668,-552.9246 325.4599,-548.4276 315.1562,-545.9608 315.8668,-552.9246"/>
</g>
<!-- Node396534 -->
<g id="node29" class="node">
<title>Node396534</title>
<g id="a_node29"><a xlink:href="quickjs_8c.html#ad4ba09e4c7ab9f28c144182e1aacf1f6" target="_top" xlink:title="JS_NewArray">
<polygon fill="none" stroke="#ff0000" points="146.5,-.5 146.5,-19.5 223.5,-19.5 223.5,-.5 146.5,-.5"/>
<text text-anchor="middle" x="185" y="-7.5" font-family="Helvetica,sans-Serif" font-size="10.00" fill="#000000">JS_NewArray</text>
</a>
</g>
</g>
<!-- Node396269&#45;&gt;Node396534 -->
<g id="edge57" class="edge">
<title>Node396269&#45;&gt;Node396534</title>
<path fill="none" stroke="#191970" d="M38.377,-427.4726C40.7681,-371.8856 55.5802,-89.8307 112,-29 118.5435,-21.945 127.3444,-17.3746 136.568,-14.4437"/>
<polygon fill="#191970" stroke="#191970" points="137.4455,-17.832 146.2559,-11.9476 135.6989,-11.0534 137.4455,-17.832"/>
</g>
<!-- Node396543 -->
<g id="node30" class="node">
<title>Node396543</title>
<g id="a_node30"><a xlink:href="quickjs_8c.html#a710289a14c2810467e5b448d3c28bd55" target="_top" xlink:title="JS_ToObject">
<polygon fill="none" stroke="#ff0000" points="331.5,-1082.5 331.5,-1101.5 405.5,-1101.5 405.5,-1082.5 331.5,-1082.5"/>
<text text-anchor="middle" x="368.5" y="-1089.5" font-family="Helvetica,sans-Serif" font-size="10.00" fill="#000000">JS_ToObject</text>
</a>
</g>
</g>
<!-- Node396269&#45;&gt;Node396543 -->
<g id="edge62" class="edge">
<title>Node396269&#45;&gt;Node396543</title>
<path fill="none" stroke="#191970" d="M38.5649,-446.9223C42.8613,-520.8729 71.3164,-984.4375 112,-1030 164.6774,-1088.9947 262.9527,-1096.6174 321.3724,-1095.326"/>
<polygon fill="#191970" stroke="#191970" points="321.5618,-1098.8218 331.4457,-1095.0062 321.3396,-1091.8254 321.5618,-1098.8218"/>
</g>
<!-- Node396271 -->
<g id="node3" class="node">
<title>Node396271</title>
<g id="a_node3"><a xlink:href="quickjs_8c.html#a1ca9cdb1fa2ffc3e6506e92b200e490f" target="_top" xlink:title="JS_IsFunction">
<polygon fill="none" stroke="#000000" points="328.5,-1158.5 328.5,-1177.5 408.5,-1177.5 408.5,-1158.5 328.5,-1158.5"/>
<text text-anchor="middle" x="368.5" y="-1165.5" font-family="Helvetica,sans-Serif" font-size="10.00" fill="#000000">JS_IsFunction</text>
</a>
</g>
</g>
<!-- Node396270&#45;&gt;Node396271 -->
<g id="edge2" class="edge">
<title>Node396270&#45;&gt;Node396271</title>
<path fill="none" stroke="#191970" d="M226.639,-1168C253.762,-1168 289.3129,-1168 318.0401,-1168"/>
<polygon fill="#191970" stroke="#191970" points="318.2869,-1171.5001 328.2869,-1168 318.2868,-1164.5001 318.2869,-1171.5001"/>
</g>
<!-- Node396273 -->
<g id="node5" class="node">
<title>Node396273</title>
<g id="a_node5"><a xlink:href="quickjs_8c.html#a93dbf502b17d1328c524401335f60499" target="_top" xlink:title="js_create_from_ctor">
<polygon fill="none" stroke="#ff0000" points="317,-684.5 317,-703.5 420,-703.5 420,-684.5 317,-684.5"/>
<text text-anchor="middle" x="368.5" y="-691.5" font-family="Helvetica,sans-Serif" font-size="10.00" fill="#000000">js_create_from_ctor</text>
</a>
</g>
</g>
<!-- Node396272&#45;&gt;Node396273 -->
<g id="edge4" class="edge">
<title>Node396272&#45;&gt;Node396273</title>
<path fill="none" stroke="#191970" d="M197.4327,-779.3079C217.0208,-764.4165 256.6871,-735.7716 294,-718 302.9232,-713.75 312.7898,-709.9777 322.3434,-706.7546"/>
<polygon fill="#191970" stroke="#191970" points="323.6901,-709.9979 332.1333,-703.5977 321.5417,-703.3357 323.6901,-709.9979"/>
</g>
<!-- Node396272&#45;&gt;Node396274 -->
<g id="edge10" class="edge">
<title>Node396272&#45;&gt;Node396274</title>
<path fill="none" stroke="#191970" d="M187.6497,-798.7522C196.7449,-830.3687 229.7354,-930.9901 294,-983 346.0497,-1025.1242 423.1759,-1042.3566 473.019,-1049.3387"/>
<polygon fill="#191970" stroke="#191970" points="472.8514,-1052.8467 483.222,-1050.6783 473.7627,-1045.9063 472.8514,-1052.8467"/>
</g>
<!-- Node396272&#45;&gt;Node396275 -->
<g id="edge11" class="edge">
<title>Node396272&#45;&gt;Node396275</title>
<path fill="none" stroke="#191970" d="M210.3452,-779.4709C232.3084,-771.3805 265.0247,-759.7281 294,-751 359.4376,-731.2886 390.4601,-756.7055 443,-713 490.8672,-673.1815 511.2315,-598.0057 518.5253,-562.09"/>
<polygon fill="#191970" stroke="#191970" points="522.0325,-562.3795 520.4525,-551.9031 515.1545,-561.0782 522.0325,-562.3795"/>
</g>
<!-- Node396272&#45;&gt;Node396324 -->
<g id="edge12" class="edge">
<title>Node396272&#45;&gt;Node396324</title>
<path fill="none" stroke="#191970" d="M199.0214,-798.603C239.798,-825.2313 360.6612,-894.8489 443,-845 490.7518,-816.0905 511.0278,-747.7752 518.39,-713.8409"/>
<polygon fill="#191970" stroke="#191970" points="521.8775,-714.2505 520.4127,-703.7574 515.0142,-712.8736 521.8775,-714.2505"/>
</g>
<!-- Node396487 -->
<g id="node11" class="node">
<title>Node396487</title>
<g id="a_node11"><a xlink:href="quickjs_8h.html#ab995df176086f2a2a06ab777d4c4ef28" target="_top" xlink:title="JS_IsNumber">
<polygon fill="none" stroke="#000000" points="330,-760.5 330,-779.5 407,-779.5 407,-760.5 330,-760.5"/>
<text text-anchor="middle" x="368.5" y="-767.5" font-family="Helvetica,sans-Serif" font-size="10.00" fill="#000000">JS_IsNumber</text>
</a>
</g>
</g>
<!-- Node396272&#45;&gt;Node396487 -->
<g id="edge13" class="edge">
<title>Node396272&#45;&gt;Node396487</title>
<path fill="none" stroke="#191970" d="M237.5837,-783.5554C263.4604,-780.876 294.454,-777.6669 319.7876,-775.0438"/>
<polygon fill="#191970" stroke="#191970" points="320.322,-778.5073 329.9083,-773.9959 319.601,-771.5445 320.322,-778.5073"/>
</g>
<!-- Node396272&#45;&gt;Node396401 -->
<g id="edge14" class="edge">
<title>Node396272&#45;&gt;Node396401</title>
<path fill="none" stroke="#191970" d="M187.6468,-798.7455C196.5301,-829.2787 228.4765,-923.1767 294,-959 351.5545,-990.4664 430.1332,-981.1954 478.4012,-970.742"/>
<polygon fill="#191970" stroke="#191970" points="479.2481,-974.1388 488.2225,-968.5076 477.6952,-967.3132 479.2481,-974.1388"/>
</g>
<!-- Node396272&#45;&gt;Node396588 -->
<g id="edge16" class="edge">
<title>Node396272&#45;&gt;Node396588</title>
<path fill="none" stroke="#191970" d="M191.3511,-779.3198C206.3848,-757.2081 246.4774,-702.7654 294,-675 300.5711,-671.1608 307.9107,-668.0892 315.3504,-665.6338"/>
<polygon fill="#191970" stroke="#191970" points="316.5312,-668.9347 325.1322,-662.7481 314.5505,-662.2207 316.5312,-668.9347"/>
</g>
<!-- Node396705 -->
<g id="node15" class="node">
<title>Node396705</title>
<g id="a_node15"><a xlink:href="quickjs_8c.html#aae909eaec829081b270012adfcd717a4" target="_top" xlink:title="JS_SetPropertyUint32">
<polygon fill="none" stroke="#ff0000" points="311.5,-930.5 311.5,-949.5 425.5,-949.5 425.5,-930.5 311.5,-930.5"/>
<text text-anchor="middle" x="368.5" y="-937.5" font-family="Helvetica,sans-Serif" font-size="10.00" fill="#000000">JS_SetPropertyUint32</text>
</a>
</g>
</g>
<!-- Node396272&#45;&gt;Node396705 -->
<g id="edge17" class="edge">
<title>Node396272&#45;&gt;Node396705</title>
<path fill="none" stroke="#191970" d="M196.7579,-798.6754C227.4978,-823.9709 310.5124,-892.2827 348.7397,-923.7395"/>
<polygon fill="#191970" stroke="#191970" points="346.6568,-926.5582 356.6025,-930.2097 351.1047,-921.1529 346.6568,-926.5582"/>
</g>
<!-- Node396507 -->
<g id="node16" class="node">
<title>Node396507</title>
<g id="a_node16"><a xlink:href="quickjs_8c.html#a77d135018423229ffcdcde7a46eb3fd9" target="_top" xlink:title="JS_ToArrayLengthFree">
<polygon fill="none" stroke="#ff0000" points="310,-798.5 310,-817.5 427,-817.5 427,-798.5 310,-798.5"/>
<text text-anchor="middle" x="368.5" y="-805.5" font-family="Helvetica,sans-Serif" font-size="10.00" fill="#000000">JS_ToArrayLengthFree</text>
</a>
</g>
</g>
<!-- Node396272&#45;&gt;Node396507 -->
<g id="edge19" class="edge">
<title>Node396272&#45;&gt;Node396507</title>
<path fill="none" stroke="#191970" d="M237.5837,-794.4446C256.9695,-796.4519 279.2271,-798.7565 299.8253,-800.8893"/>
<polygon fill="#191970" stroke="#191970" points="299.4766,-804.3718 309.784,-801.9204 300.1976,-797.409 299.4766,-804.3718"/>
</g>
<!-- Node396273&#45;&gt;Node396274 -->
<g id="edge5" class="edge">
<title>Node396273&#45;&gt;Node396274</title>
<path fill="none" stroke="#191970" d="M388.4412,-703.6757C405.808,-713.2057 430.1597,-729.4567 443,-751 495.2988,-838.7462 445.3119,-881.5652 479,-978 486.3002,-998.8975 499.2618,-1020.681 509.0515,-1035.5413"/>
<polygon fill="#191970" stroke="#191970" points="506.4295,-1037.9113 514.9354,-1044.228 512.2251,-1033.9857 506.4295,-1037.9113"/>
</g>
<!-- Node396273&#45;&gt;Node396275 -->
<g id="edge6" class="edge">
<title>Node396273&#45;&gt;Node396275</title>
<path fill="none" stroke="#191970" d="M420.2033,-686.4748C428.335,-683.7458 436.2663,-680.0372 443,-675 482.2637,-645.6283 505.7052,-590.5019 515.9217,-561.297"/>
<polygon fill="#191970" stroke="#191970" points="519.2435,-562.3996 519.0922,-551.8058 512.6041,-560.1817 519.2435,-562.3996"/>
</g>
<!-- Node396273&#45;&gt;Node396315 -->
<g id="edge7" class="edge">
<title>Node396273&#45;&gt;Node396315</title>
<path fill="none" stroke="#191970" d="M420.3027,-689.3174C428.9193,-686.3335 436.992,-681.8037 443,-675 527.5086,-579.2986 402.7346,-492.3916 479,-390 479.7953,-388.9323 480.6638,-387.9235 481.593,-386.9704"/>
<polygon fill="#191970" stroke="#191970" points="483.9273,-389.5897 489.6961,-380.7031 479.6447,-384.0527 483.9273,-389.5897"/>
</g>
<!-- Node396273&#45;&gt;Node396324 -->
<g id="edge8" class="edge">
<title>Node396273&#45;&gt;Node396324</title>
<path fill="none" stroke="#191970" d="M420.0403,-694C435.687,-694 452.9063,-694 468.6682,-694"/>
<polygon fill="#191970" stroke="#191970" points="468.7845,-697.5001 478.7845,-694 468.7844,-690.5001 468.7845,-697.5001"/>
</g>
<!-- Node396273&#45;&gt;Node396481 -->
<g id="edge9" class="edge">
<title>Node396273&#45;&gt;Node396481</title>
<path fill="none" stroke="#191970" d="M420.1106,-688.6519C428.64,-685.7186 436.7307,-681.3778 443,-675 491.6677,-625.4903 458.7077,-589.3926 479,-523 489.4082,-488.9465 504.7215,-450.3841 513.9884,-427.9677"/>
<polygon fill="#191970" stroke="#191970" points="517.2705,-429.1909 517.8928,-418.6143 510.8107,-426.4943 517.2705,-429.1909"/>
</g>
<!-- Node396401&#45;&gt;Node396325 -->
<g id="edge15" class="edge">
<title>Node396401&#45;&gt;Node396325</title>
<path fill="none" stroke="#191970" d="M523.7392,-949.1605C529.6074,-915.9386 549.1932,-804.8652 565,-713 592.7038,-551.9926 625.3548,-357.4658 635.6912,-295.7662"/>
<polygon fill="#191970" stroke="#191970" points="639.2046,-295.9773 637.4044,-285.5365 632.3007,-294.821 639.2046,-295.9773"/>
</g>
<!-- Node396705&#45;&gt;Node396401 -->
<g id="edge18" class="edge">
<title>Node396705&#45;&gt;Node396401</title>
<path fill="none" stroke="#191970" d="M425.6577,-947.0749C440.1989,-948.8748 455.7457,-950.7991 470.0136,-952.5652"/>
<polygon fill="#191970" stroke="#191970" points="469.79,-956.0641 480.1442,-953.8192 470.6499,-949.1172 469.79,-956.0641"/>
</g>
<!-- Node396507&#45;&gt;Node396275 -->
<g id="edge20" class="edge">
<title>Node396507&#45;&gt;Node396275</title>
<path fill="none" stroke="#191970" d="M427.2728,-799.3038C433.045,-796.6775 438.4411,-793.3098 443,-789 481.6109,-752.4991 462.8273,-725.6118 479,-675 491.9263,-634.5477 507.2739,-587.2503 515.6919,-561.3697"/>
<polygon fill="#191970" stroke="#191970" points="519.0815,-562.264 518.8481,-551.6717 512.4251,-560.0976 519.0815,-562.264"/>
</g>
<!-- Node396507&#45;&gt;Node396324 -->
<g id="edge21" class="edge">
<title>Node396507&#45;&gt;Node396324</title>
<path fill="none" stroke="#191970" d="M423.0714,-798.3699C430.0682,-795.9204 436.9061,-792.8495 443,-789 473.8243,-769.5283 498.5422,-734.0351 511.6743,-712.3785"/>
<polygon fill="#191970" stroke="#191970" points="514.8357,-713.9062 516.8731,-703.5091 508.7967,-710.3664 514.8357,-713.9062"/>
</g>
<!-- Node396507&#45;&gt;Node396507 -->
<g id="edge22" class="edge">
<title>Node396507&#45;&gt;Node396507</title>
<path fill="none" stroke="#191970" d="M345.0724,-817.7571C333.6752,-826.5653 341.4844,-836 368.5,-836 386.229,-836 395.6865,-831.9368 396.8725,-826.6539"/>
<polygon fill="#191970" stroke="#191970" points="399.8449,-824.7974 391.9276,-817.7571 393.7265,-828.1981 399.8449,-824.7974"/>
</g>
<!-- Node396536 -->
<g id="node20" class="node">
<title>Node396536</title>
<g id="a_node20"><a xlink:href="quickjs_8c.html#a0c61bd5a64c743e81188bb528b78e715" target="_top" xlink:title="JS_DefinePropertyValueValue">
<polygon fill="none" stroke="#ff0000" points="294,-418.5 294,-437.5 443,-437.5 443,-418.5 294,-418.5"/>
<text text-anchor="middle" x="368.5" y="-425.5" font-family="Helvetica,sans-Serif" font-size="10.00" fill="#000000">JS_DefinePropertyValueValue</text>
</a>
</g>
</g>
<!-- Node396706&#45;&gt;Node396536 -->
<g id="edge26" class="edge">
<title>Node396706&#45;&gt;Node396536</title>
<path fill="none" stroke="#191970" d="M193.2342,-323.7366C210.1008,-343.0393 250.6568,-386.2533 294,-409 298.4655,-411.3435 303.2355,-413.4091 308.1231,-415.2278"/>
<polygon fill="#191970" stroke="#191970" points="307.0235,-418.5506 317.6176,-418.4291 309.26,-411.9175 307.0235,-418.5506"/>
</g>
<!-- Node396706&#45;&gt;Node396537 -->
<g id="edge28" class="edge">
<title>Node396706&#45;&gt;Node396537</title>
<path fill="none" stroke="#191970" d="M231.3048,-304.411C258.5381,-298.7714 292.9178,-291.6519 320.4486,-285.9507"/>
<polygon fill="#191970" stroke="#191970" points="321.1733,-289.375 330.2558,-283.9198 319.7537,-282.5204 321.1733,-289.375"/>
</g>
<!-- Node396536&#45;&gt;Node396275 -->
<g id="edge27" class="edge">
<title>Node396536&#45;&gt;Node396275</title>
<path fill="none" stroke="#191970" d="M411.6679,-437.5861C422.4265,-441.1103 433.5722,-445.8094 443,-452 471.9556,-471.0131 496.6838,-503.4 510.4221,-523.6989"/>
<polygon fill="#191970" stroke="#191970" points="507.6788,-525.8975 516.0956,-532.3324 513.5287,-522.0532 507.6788,-525.8975"/>
</g>
<!-- Node396537&#45;&gt;Node396325 -->
<g id="edge29" class="edge">
<title>Node396537&#45;&gt;Node396325</title>
<path fill="none" stroke="#191970" d="M406.6823,-276C454.8774,-276 537.8281,-276 590.4699,-276"/>
<polygon fill="#191970" stroke="#191970" points="590.5749,-279.5001 600.5749,-276 590.5749,-272.5001 590.5749,-279.5001"/>
</g>
<!-- Node396660&#45;&gt;Node396275 -->
<g id="edge32" class="edge">
<title>Node396660&#45;&gt;Node396275</title>
<path fill="none" stroke="#191970" d="M407.2345,-570.411C427.3993,-565.4191 452.2479,-559.2676 473.6611,-553.9666"/>
<polygon fill="#191970" stroke="#191970" points="474.6781,-557.3206 483.544,-551.5201 472.9959,-550.5257 474.6781,-557.3206"/>
</g>
<!-- Node396660&#45;&gt;Node396315 -->
<g id="edge33" class="edge">
<title>Node396660&#45;&gt;Node396315</title>
<path fill="none" stroke="#191970" d="M408.2611,-578.0123C420.9083,-575.4404 433.9476,-570.4429 443,-561 496.7468,-504.935 430.0969,-450.3365 479,-390 479.9636,-388.8112 481.0166,-387.6945 482.141,-386.6459"/>
<polygon fill="#191970" stroke="#191970" points="484.352,-389.3662 490.4013,-380.6681 480.2481,-383.6954 484.352,-389.3662"/>
</g>
<!-- Node396660&#45;&gt;Node396324 -->
<g id="edge34" class="edge">
<title>Node396660&#45;&gt;Node396324</title>
<path fill="none" stroke="#191970" d="M408.1844,-588.4807C419.9892,-592.1087 432.55,-597.1382 443,-604 471.9556,-623.0131 496.6838,-655.4 510.4221,-675.6989"/>
<polygon fill="#191970" stroke="#191970" points="507.6788,-677.8975 516.0956,-684.3324 513.5287,-674.0532 507.6788,-677.8975"/>
</g>
<!-- Node396707&#45;&gt;Node396315 -->
<g id="edge37" class="edge">
<title>Node396707&#45;&gt;Node396315</title>
<path fill="none" stroke="#191970" d="M189.3123,-494.1535C201.3509,-468.0805 238.1443,-397.4409 294,-371 351.1163,-343.9624 425.6631,-350.6467 473.6886,-359.5089"/>
<polygon fill="#191970" stroke="#191970" points="473.0339,-362.9471 483.5183,-361.4217 474.371,-356.0759 473.0339,-362.9471"/>
</g>
<!-- Node396707&#45;&gt;Node396324 -->
<g id="edge38" class="edge">
<title>Node396707&#45;&gt;Node396324</title>
<path fill="none" stroke="#191970" d="M193.2342,-513.7366C210.1008,-533.0393 250.6568,-576.2533 294,-599 354.5146,-630.7584 381.0911,-608.0534 443,-637 465.7511,-647.6377 488.6902,-665.114 503.9435,-677.9155"/>
<polygon fill="#191970" stroke="#191970" points="501.7109,-680.6117 511.5769,-684.4734 506.2725,-675.3021 501.7109,-680.6117"/>
</g>
<!-- Node396708 -->
<g id="node24" class="node">
<title>Node396708</title>
<g id="a_node24"><a xlink:href="quickjs_8c.html#a07acd485a57197356906928a788a0644" target="_top" xlink:title="JS_ToLengthFree">
<polygon fill="none" stroke="#ff0000" points="321.5,-494.5 321.5,-513.5 415.5,-513.5 415.5,-494.5 321.5,-494.5"/>
<text text-anchor="middle" x="368.5" y="-501.5" font-family="Helvetica,sans-Serif" font-size="10.00" fill="#000000">JS_ToLengthFree</text>
</a>
</g>
</g>
<!-- Node396707&#45;&gt;Node396708 -->
<g id="edge39" class="edge">
<title>Node396707&#45;&gt;Node396708</title>
<path fill="none" stroke="#191970" d="M227.5598,-504C252.4383,-504 284.1674,-504 311.2189,-504"/>
<polygon fill="#191970" stroke="#191970" points="311.3336,-507.5001 321.3336,-504 311.3336,-500.5001 311.3336,-507.5001"/>
</g>
<!-- Node396708&#45;&gt;Node396275 -->
<g id="edge40" class="edge">
<title>Node396708&#45;&gt;Node396275</title>
<path fill="none" stroke="#191970" d="M407.2345,-513.589C427.3993,-518.5809 452.2479,-524.7324 473.6611,-530.0334"/>
<polygon fill="#191970" stroke="#191970" points="472.9959,-533.4743 483.544,-532.4799 474.6781,-526.6794 472.9959,-533.4743"/>
</g>
<!-- Node396711&#45;&gt;Node396315 -->
<g id="edge43" class="edge">
<title>Node396711&#45;&gt;Node396315</title>
<path fill="none" stroke="#191970" d="M416.5981,-209.5241C426.0464,-212.9702 435.379,-217.6502 443,-224 484.2165,-258.3415 507.1395,-319.9113 516.6691,-351.3535"/>
<polygon fill="#191970" stroke="#191970" points="513.3534,-352.4873 519.4893,-361.1245 520.0789,-350.5461 513.3534,-352.4873"/>
</g>
<!-- Node396711&#45;&gt;Node396325 -->
<g id="edge44" class="edge">
<title>Node396711&#45;&gt;Node396325</title>
<path fill="none" stroke="#191970" d="M402.4851,-209.5485C451.2746,-223.2564 541.2009,-248.5223 595.0084,-263.6401"/>
<polygon fill="#191970" stroke="#191970" points="594.3672,-267.0954 604.9411,-266.4308 596.2606,-260.3563 594.3672,-267.0954"/>
</g>
<!-- Node396554&#45;&gt;Node396275 -->
<g id="edge49" class="edge">
<title>Node396554&#45;&gt;Node396275</title>
<path fill="none" stroke="#191970" d="M413.5964,-395.5233C423.9674,-398.3494 434.4493,-402.6035 443,-409 482.2637,-438.3717 505.7052,-493.4981 515.9217,-522.703"/>
<polygon fill="#191970" stroke="#191970" points="512.6041,-523.8183 519.0922,-532.1942 519.2435,-521.6004 512.6041,-523.8183"/>
</g>
<!-- Node396554&#45;&gt;Node396315 -->
<g id="edge50" class="edge">
<title>Node396554&#45;&gt;Node396315</title>
<path fill="none" stroke="#191970" d="M413.7248,-384.4021C431.0301,-382.2601 450.9235,-379.7977 468.8988,-377.5728"/>
<polygon fill="#191970" stroke="#191970" points="469.4475,-381.0317 478.9418,-376.3297 468.5876,-374.0847 469.4475,-381.0317"/>
</g>
<!-- Node396554&#45;&gt;Node396324 -->
<g id="edge51" class="edge">
<title>Node396554&#45;&gt;Node396324</title>
<path fill="none" stroke="#191970" d="M413.5561,-393.3769C424.417,-396.2097 435.14,-401.004 443,-409 491.6677,-458.5097 460.3065,-494.1397 479,-561 490.435,-601.8989 506.3301,-649.0323 515.244,-674.7644"/>
<polygon fill="#191970" stroke="#191970" points="512.0067,-676.1109 518.6034,-684.4016 518.6166,-673.8067 512.0067,-676.1109"/>
</g>
<!-- Node396554&#45;&gt;Node396481 -->
<g id="edge52" class="edge">
<title>Node396554&#45;&gt;Node396481</title>
<path fill="none" stroke="#191970" d="M413.7248,-395.5979C431.0301,-397.7399 450.9235,-400.2023 468.8988,-402.4272"/>
<polygon fill="#191970" stroke="#191970" points="468.5876,-405.9153 478.9418,-403.6703 469.4475,-398.9683 468.5876,-405.9153"/>
</g>
<!-- Node396555&#45;&gt;Node396275 -->
<g id="edge54" class="edge">
<title>Node396555&#45;&gt;Node396275</title>
<path fill="none" stroke="#191970" d="M411.6668,-542C430.6958,-542 453.1558,-542 472.8278,-542"/>
<polygon fill="#191970" stroke="#191970" points="472.8279,-545.5001 482.8279,-542 472.8279,-538.5001 472.8279,-545.5001"/>
</g>
<!-- Node396555&#45;&gt;Node396315 -->
<g id="edge55" class="edge">
<title>Node396555&#45;&gt;Node396315</title>
<path fill="none" stroke="#191970" d="M411.8332,-538.8442C423.2159,-536.0665 434.6336,-531.2449 443,-523 486.6176,-480.016 439.1043,-436.4592 479,-390 480.1332,-388.6804 481.3758,-387.4487 482.7016,-386.2997"/>
<polygon fill="#191970" stroke="#191970" points="484.7634,-389.1296 491.0243,-380.5826 480.8,-383.3598 484.7634,-389.1296"/>
</g>
<!-- Node396555&#45;&gt;Node396324 -->
<g id="edge56" class="edge">
<title>Node396555&#45;&gt;Node396324</title>
<path fill="none" stroke="#191970" d="M411.6536,-547.01C422.6496,-549.826 433.9149,-554.2038 443,-561 482.2637,-590.3717 505.7052,-645.4981 515.9217,-674.703"/>
<polygon fill="#191970" stroke="#191970" points="512.6041,-675.8183 519.0922,-684.1942 519.2435,-673.6004 512.6041,-675.8183"/>
</g>
<!-- Node396543&#45;&gt;Node396274 -->
<g id="edge63" class="edge">
<title>Node396543&#45;&gt;Node396274</title>
<path fill="none" stroke="#191970" d="M405.6581,-1082.8013C426.1251,-1077.7345 451.765,-1071.3872 473.7622,-1065.9416"/>
<polygon fill="#191970" stroke="#191970" points="474.7152,-1069.3114 483.5811,-1063.5109 473.033,-1062.5165 474.7152,-1069.3114"/>
</g>
<!-- Node396543&#45;&gt;Node396324 -->
<g id="edge64" class="edge">
<title>Node396543&#45;&gt;Node396324</title>
<path fill="none" stroke="#191970" d="M374.8839,-1082.3697C388.8456,-1060.9676 422.4824,-1007.5065 443,-959 480.4135,-870.5492 507.5951,-758.5162 517.6898,-713.7682"/>
<polygon fill="#191970" stroke="#191970" points="521.1307,-714.4178 519.8839,-703.8966 514.2975,-712.8989 521.1307,-714.4178"/>
</g>
<!-- Node396543&#45;&gt;Node396325 -->
<g id="edge65" class="edge">
<title>Node396543&#45;&gt;Node396325</title>
<path fill="none" stroke="#191970" d="M405.814,-1100.9114C450.2887,-1109.0816 523.7578,-1114.3996 565,-1073 621.6517,-1016.132 636.3218,-412.6669 638.6428,-295.6062"/>
<polygon fill="#191970" stroke="#191970" points="642.1428,-295.6332 638.8347,-285.5681 635.1441,-295.4994 642.1428,-295.6332"/>
</g>
</g>
</svg>
