<?xml version="1.0" encoding="UTF-8" standalone="no"?>
<!DOCTYPE svg PUBLIC "-//W3C//DTD SVG 1.1//EN"
 "http://www.w3.org/Graphics/SVG/1.1/DTD/svg11.dtd">
<!-- Generated by graphviz version 2.40.1 (20161225.0304)
 -->
<!-- Title: JS_DupContext Pages: 1 -->
<svg width="592pt" height="179pt"
 viewBox="0.00 0.00 592.00 179.00" xmlns="http://www.w3.org/2000/svg" xmlns:xlink="http://www.w3.org/1999/xlink">
<g id="graph0" class="graph" transform="scale(1 1) rotate(0) translate(4 175)">
<title>JS_DupContext</title>
<!-- Node4634 -->
<g id="node1" class="node">
<title>Node4634</title>
<polygon fill="#bfbfbf" stroke="#000000" points="0,-57.5 0,-76.5 86,-76.5 86,-57.5 0,-57.5"/>
<text text-anchor="middle" x="43" y="-64.5" font-family="Helvetica,sans-Serif" font-size="10.00" fill="#000000">JS_DupContext</text>
</g>
<!-- Node4635 -->
<g id="node2" class="node">
<title>Node4635</title>
<g id="a_node2"><a xlink:href="quickjs_8c.html#a97fcc747d8b1c3644174745d2e2739be" target="_top" xlink:title="js_create_function">
<polygon fill="none" stroke="#000000" points="140.5,-133.5 140.5,-152.5 236.5,-152.5 236.5,-133.5 140.5,-133.5"/>
<text text-anchor="middle" x="188.5" y="-140.5" font-family="Helvetica,sans-Serif" font-size="10.00" fill="#000000">js_create_function</text>
</a>
</g>
</g>
<!-- Node4634&#45;&gt;Node4635 -->
<g id="edge1" class="edge">
<title>Node4634&#45;&gt;Node4635</title>
<path fill="none" stroke="#191970" d="M70.2936,-81.2565C99.5104,-96.5174 145.048,-120.3034 170.2219,-133.4527"/>
<polygon fill="#191970" stroke="#191970" points="71.9118,-78.153 61.4277,-76.6255 68.6709,-84.3576 71.9118,-78.153"/>
</g>
<!-- Node4642 -->
<g id="node5" class="node">
<title>Node4642</title>
<g id="a_node5"><a xlink:href="quickjs_8c.html#a7128998511654840928b9df9d4c55b3c" target="_top" xlink:title="JS_DefineAutoInitProperty">
<polygon fill="none" stroke="#000000" points="122,-76.5 122,-95.5 255,-95.5 255,-76.5 122,-76.5"/>
<text text-anchor="middle" x="188.5" y="-83.5" font-family="Helvetica,sans-Serif" font-size="10.00" fill="#000000">JS_DefineAutoInitProperty</text>
</a>
</g>
</g>
<!-- Node4634&#45;&gt;Node4642 -->
<g id="edge5" class="edge">
<title>Node4634&#45;&gt;Node4642</title>
<path fill="none" stroke="#191970" d="M96.2448,-73.9529C104.6077,-75.045 113.342,-76.1855 121.9592,-77.3108"/>
<polygon fill="#191970" stroke="#191970" points="96.6299,-70.4736 86.2609,-72.6492 95.7234,-77.4147 96.6299,-70.4736"/>
</g>
<!-- Node4909 -->
<g id="node10" class="node">
<title>Node4909</title>
<g id="a_node10"><a xlink:href="quickjs_8c.html#a21cfe4c4fc9372dc0b95b37667cff0c9" target="_top" xlink:title="JS_NewCFunction3">
<polygon fill="none" stroke="#ff0000" points="136.5,-38.5 136.5,-57.5 240.5,-57.5 240.5,-38.5 136.5,-38.5"/>
<text text-anchor="middle" x="188.5" y="-45.5" font-family="Helvetica,sans-Serif" font-size="10.00" fill="#000000">JS_NewCFunction3</text>
</a>
</g>
</g>
<!-- Node4634&#45;&gt;Node4909 -->
<g id="edge10" class="edge">
<title>Node4634&#45;&gt;Node4909</title>
<path fill="none" stroke="#191970" d="M96.4877,-60.0154C109.5212,-58.3134 123.4436,-56.4953 136.411,-54.802"/>
<polygon fill="#191970" stroke="#191970" points="95.7234,-56.5853 86.2609,-61.3508 96.6299,-63.5264 95.7234,-56.5853"/>
</g>
<!-- Node4693 -->
<g id="node11" class="node">
<title>Node4693</title>
<g id="a_node11"><a xlink:href="quickjs_8c.html#a367627778ac537f4bb1f0fd07a2dee1b" target="_top" xlink:title="JS_ReadFunctionTag">
<polygon fill="none" stroke="#ff0000" points="133,-.5 133,-19.5 244,-19.5 244,-.5 133,-.5"/>
<text text-anchor="middle" x="188.5" y="-7.5" font-family="Helvetica,sans-Serif" font-size="10.00" fill="#000000">JS_ReadFunctionTag</text>
</a>
</g>
</g>
<!-- Node4634&#45;&gt;Node4693 -->
<g id="edge11" class="edge">
<title>Node4634&#45;&gt;Node4693</title>
<path fill="none" stroke="#191970" d="M70.032,-52.5858C85.0619,-44.9332 104.262,-35.744 122,-29 131.2031,-25.501 141.3334,-22.2941 150.8526,-19.5512"/>
<polygon fill="#191970" stroke="#191970" points="68.09,-49.6497 60.8147,-57.3516 71.3051,-55.8677 68.09,-49.6497"/>
</g>
<!-- Node4635&#45;&gt;Node4635 -->
<g id="edge4" class="edge">
<title>Node4635&#45;&gt;Node4635</title>
<path fill="none" stroke="#191970" d="M161.6208,-161.6539C162.7444,-166.9368 171.7041,-171 188.5,-171 214.0938,-171 221.4919,-161.5653 210.6946,-152.7571"/>
<polygon fill="#191970" stroke="#191970" points="164.7433,-163.2361 166.3054,-152.7571 158.5494,-159.9747 164.7433,-163.2361"/>
</g>
<!-- Node4636 -->
<g id="node3" class="node">
<title>Node4636</title>
<g id="a_node3"><a xlink:href="quickjs_8c.html#a46a8a7e155cfd0af984f6725f060f0d6" target="_top" xlink:title="__JS_EvalInternal">
<polygon fill="none" stroke="#000000" points="319,-142.5 319,-161.5 415,-161.5 415,-142.5 319,-142.5"/>
<text text-anchor="middle" x="367" y="-149.5" font-family="Helvetica,sans-Serif" font-size="10.00" fill="#000000">__JS_EvalInternal</text>
</a>
</g>
</g>
<!-- Node4635&#45;&gt;Node4636 -->
<g id="edge2" class="edge">
<title>Node4635&#45;&gt;Node4636</title>
<path fill="none" stroke="#191970" d="M246.9264,-145.9459C270.2549,-147.1221 296.7865,-148.4598 318.9663,-149.5781"/>
<polygon fill="#191970" stroke="#191970" points="246.9683,-142.4436 236.8047,-145.4355 246.6157,-149.4347 246.9683,-142.4436"/>
</g>
<!-- Node4637 -->
<g id="node4" class="node">
<title>Node4637</title>
<g id="a_node4"><a xlink:href="quickjs_8c.html#acbcccb7ec58fd4a024ea1d01e5d04561" target="_top" xlink:title="JS_AddIntrinsicEval">
<polygon fill="none" stroke="#ff0000" points="479,-142.5 479,-161.5 584,-161.5 584,-142.5 479,-142.5"/>
<text text-anchor="middle" x="531.5" y="-149.5" font-family="Helvetica,sans-Serif" font-size="10.00" fill="#000000">JS_AddIntrinsicEval</text>
</a>
</g>
</g>
<!-- Node4636&#45;&gt;Node4637 -->
<g id="edge3" class="edge">
<title>Node4636&#45;&gt;Node4637</title>
<path fill="none" stroke="#191970" d="M425.1096,-152C442.6013,-152 461.6912,-152 478.8105,-152"/>
<polygon fill="#191970" stroke="#191970" points="425.0225,-148.5001 415.0224,-152 425.0224,-155.5001 425.0225,-148.5001"/>
</g>
<!-- Node4643 -->
<g id="node6" class="node">
<title>Node4643</title>
<g id="a_node6"><a xlink:href="quickjs_8c.html#ad12b6863ca31850fc39d208bb865420e" target="_top" xlink:title="js_build_module_ns">
<polygon fill="none" stroke="#000000" points="316,-104.5 316,-123.5 418,-123.5 418,-104.5 316,-104.5"/>
<text text-anchor="middle" x="367" y="-111.5" font-family="Helvetica,sans-Serif" font-size="10.00" fill="#000000">js_build_module_ns</text>
</a>
</g>
</g>
<!-- Node4642&#45;&gt;Node4643 -->
<g id="edge6" class="edge">
<title>Node4642&#45;&gt;Node4643</title>
<path fill="none" stroke="#191970" d="M259.4597,-97.1309C278.3037,-100.0869 298.2844,-103.2211 315.8435,-105.9754"/>
<polygon fill="#191970" stroke="#191970" points="259.8519,-93.6497 249.4303,-95.5577 258.7671,-100.5652 259.8519,-93.6497"/>
</g>
<!-- Node4860 -->
<g id="node8" class="node">
<title>Node4860</title>
<g id="a_node8"><a xlink:href="quickjs_8c.html#aab4130a4c3108a127681be821818528a" target="_top" xlink:title="js_closure">
<polygon fill="none" stroke="#ff0000" points="336.5,-66.5 336.5,-85.5 397.5,-85.5 397.5,-66.5 336.5,-66.5"/>
<text text-anchor="middle" x="367" y="-73.5" font-family="Helvetica,sans-Serif" font-size="10.00" fill="#000000">js_closure</text>
</a>
</g>
</g>
<!-- Node4642&#45;&gt;Node4860 -->
<g id="edge8" class="edge">
<title>Node4642&#45;&gt;Node4860</title>
<path fill="none" stroke="#191970" d="M265.4091,-81.6914C290.2884,-80.2976 316.4721,-78.8307 336.0255,-77.7353"/>
<polygon fill="#191970" stroke="#191970" points="265.0092,-78.2082 255.2206,-82.2621 265.4008,-85.1972 265.0092,-78.2082"/>
</g>
<!-- Node4808 -->
<g id="node9" class="node">
<title>Node4808</title>
<g id="a_node9"><a xlink:href="quickjs_8c.html#a6ee4e2edda1f223a5a40e2c48b41d618" target="_top" xlink:title="JS_InstantiateFunctionListItem">
<polygon fill="none" stroke="#ff0000" points="291,-28.5 291,-47.5 443,-47.5 443,-28.5 291,-28.5"/>
<text text-anchor="middle" x="367" y="-35.5" font-family="Helvetica,sans-Serif" font-size="10.00" fill="#000000">JS_InstantiateFunctionListItem</text>
</a>
</g>
</g>
<!-- Node4642&#45;&gt;Node4808 -->
<g id="edge9" class="edge">
<title>Node4642&#45;&gt;Node4808</title>
<path fill="none" stroke="#191970" d="M231.6102,-73.6603C254.2658,-67.204 279.6362,-60.0273 291,-57 302.9594,-53.8141 316.0196,-50.4923 327.8869,-47.5339"/>
<polygon fill="#191970" stroke="#191970" points="230.441,-70.3541 221.7849,-76.4633 232.3615,-77.0855 230.441,-70.3541"/>
</g>
<!-- Node4644 -->
<g id="node7" class="node">
<title>Node4644</title>
<g id="a_node7"><a xlink:href="quickjs_8c.html#a2f5aeb4e31e2001c555335ae5172165b" target="_top" xlink:title="js_get_module_ns">
<polygon fill="none" stroke="#ff0000" points="484,-104.5 484,-123.5 579,-123.5 579,-104.5 484,-104.5"/>
<text text-anchor="middle" x="531.5" y="-111.5" font-family="Helvetica,sans-Serif" font-size="10.00" fill="#000000">js_get_module_ns</text>
</a>
</g>
</g>
<!-- Node4643&#45;&gt;Node4644 -->
<g id="edge7" class="edge">
<title>Node4643&#45;&gt;Node4644</title>
<path fill="none" stroke="#191970" d="M428.1673,-114C446.5278,-114 466.3913,-114 483.7506,-114"/>
<polygon fill="#191970" stroke="#191970" points="428.1471,-110.5001 418.1471,-114 428.1471,-117.5001 428.1471,-110.5001"/>
</g>
</g>
</svg>
