<?xml version="1.0" encoding="UTF-8" standalone="no"?>
<!DOCTYPE svg PUBLIC "-//W3C//DTD SVG 1.1//EN"
 "http://www.w3.org/Graphics/SVG/1.1/DTD/svg11.dtd">
<!-- Generated by graphviz version 2.40.1 (20161225.0304)
 -->
<!-- Title: define_var Pages: 1 -->
<svg width="635pt" height="327pt"
 viewBox="0.00 0.00 635.00 326.56" xmlns="http://www.w3.org/2000/svg" xmlns:xlink="http://www.w3.org/1999/xlink">
<g id="graph0" class="graph" transform="scale(1 1) rotate(0) translate(4 322.5617)">
<title>define_var</title>
<!-- Node312961 -->
<g id="node1" class="node">
<title>Node312961</title>
<polygon fill="#bfbfbf" stroke="#000000" points="0,-145.8598 0,-164.8598 62,-164.8598 62,-145.8598 0,-145.8598"/>
<text text-anchor="middle" x="31" y="-152.8598" font-family="Helvetica,sans-Serif" font-size="10.00" fill="#000000">define_var</text>
</g>
<!-- Node312962 -->
<g id="node2" class="node">
<title>Node312962</title>
<g id="a_node2"><a xlink:href="quickjs_8c.html#ae7344d4ed92b31de7c7ef8716b911cb8" target="_top" xlink:title="add_global_var">
<polygon fill="none" stroke="#000000" points="271.5,-297.8598 271.5,-316.8598 353.5,-316.8598 353.5,-297.8598 271.5,-297.8598"/>
<text text-anchor="middle" x="312.5" y="-304.8598" font-family="Helvetica,sans-Serif" font-size="10.00" fill="#000000">add_global_var</text>
</a>
</g>
</g>
<!-- Node312961&#45;&gt;Node312962 -->
<g id="edge1" class="edge">
<title>Node312961&#45;&gt;Node312962</title>
<path fill="none" stroke="#191970" d="M32.6257,-165.1759C37.401,-190.5566 53.9296,-258.4518 98,-288.3598 146.0282,-320.9537 214.6964,-321.0012 261.3039,-315.9911"/>
<polygon fill="#191970" stroke="#191970" points="261.9656,-319.4371 271.4817,-314.7795 261.138,-312.4862 261.9656,-319.4371"/>
</g>
<!-- Node312973 -->
<g id="node7" class="node">
<title>Node312973</title>
<g id="a_node7"><a xlink:href="quickjs_8c.html#a9a006fc2eb9bbbc399c396d7a1e8d18b" target="_top" xlink:title="add_scope_var">
<polygon fill="none" stroke="#000000" points="117,-259.8598 117,-278.8598 200,-278.8598 200,-259.8598 117,-259.8598"/>
<text text-anchor="middle" x="158.5" y="-266.8598" font-family="Helvetica,sans-Serif" font-size="10.00" fill="#000000">add_scope_var</text>
</a>
</g>
</g>
<!-- Node312961&#45;&gt;Node312973 -->
<g id="edge6" class="edge">
<title>Node312961&#45;&gt;Node312973</title>
<path fill="none" stroke="#191970" d="M35.7558,-164.872C45.2361,-182.9452 68.1683,-222.4806 98,-245.3598 103.3616,-249.4718 109.5194,-252.9723 115.8088,-255.9226"/>
<polygon fill="#191970" stroke="#191970" points="114.4689,-259.1561 125.0404,-259.8586 117.2143,-252.717 114.4689,-259.1561"/>
</g>
<!-- Node312974 -->
<g id="node8" class="node">
<title>Node312974</title>
<g id="a_node8"><a xlink:href="quickjs_8c.html#ab2e0855c4317f8e3b05c0a091bc43a29" target="_top" xlink:title="add_var">
<polygon fill="none" stroke="#000000" points="287,-259.8598 287,-278.8598 338,-278.8598 338,-259.8598 287,-259.8598"/>
<text text-anchor="middle" x="312.5" y="-266.8598" font-family="Helvetica,sans-Serif" font-size="10.00" fill="#000000">add_var</text>
</a>
</g>
</g>
<!-- Node312961&#45;&gt;Node312974 -->
<g id="edge11" class="edge">
<title>Node312961&#45;&gt;Node312974</title>
<path fill="none" stroke="#191970" d="M39.5634,-164.9275C51.4495,-177.6263 74.1879,-199.8924 98,-212.3598 129.0425,-228.6129 224.2431,-250.5421 276.7713,-261.8786"/>
<polygon fill="#191970" stroke="#191970" points="276.1651,-265.3281 286.6763,-263.9999 277.631,-258.4833 276.1651,-265.3281"/>
</g>
<!-- Node312975 -->
<g id="node10" class="node">
<title>Node312975</title>
<g id="a_node10"><a xlink:href="quickjs_8c.html#aa26b47ba93d2f7737148d89fa85ba21f" target="_top" xlink:title="find_arg">
<polygon fill="none" stroke="#000000" points="287,-164.8598 287,-183.8598 338,-183.8598 338,-164.8598 287,-164.8598"/>
<text text-anchor="middle" x="312.5" y="-171.8598" font-family="Helvetica,sans-Serif" font-size="10.00" fill="#000000">find_arg</text>
</a>
</g>
</g>
<!-- Node312961&#45;&gt;Node312975 -->
<g id="edge12" class="edge">
<title>Node312961&#45;&gt;Node312975</title>
<path fill="none" stroke="#191970" d="M62.201,-157.4657C114.9176,-161.0239 221.291,-168.2036 276.861,-171.9543"/>
<polygon fill="#191970" stroke="#191970" points="276.7313,-175.4534 286.9443,-172.6349 277.2028,-168.4693 276.7313,-175.4534"/>
</g>
<!-- Node312976 -->
<g id="node11" class="node">
<title>Node312976</title>
<g id="a_node11"><a xlink:href="quickjs_8c.html#a87911bf8f73f022d21edeaca80361ce2" target="_top" xlink:title="find_global_var">
<polygon fill="none" stroke="#000000" points="406.5,-88.8598 406.5,-107.8598 488.5,-107.8598 488.5,-88.8598 406.5,-88.8598"/>
<text text-anchor="middle" x="447.5" y="-95.8598" font-family="Helvetica,sans-Serif" font-size="10.00" fill="#000000">find_global_var</text>
</a>
</g>
</g>
<!-- Node312961&#45;&gt;Node312976 -->
<g id="edge13" class="edge">
<title>Node312961&#45;&gt;Node312976</title>
<path fill="none" stroke="#191970" d="M62.3052,-151.0755C133.7316,-141.3005 309.2734,-117.2768 396.541,-105.3338"/>
<polygon fill="#191970" stroke="#191970" points="397.0467,-108.7973 406.4797,-103.9736 396.0975,-101.8619 397.0467,-108.7973"/>
</g>
<!-- Node312977 -->
<g id="node12" class="node">
<title>Node312977</title>
<g id="a_node12"><a xlink:href="quickjs_8c.html#a83749bc9db22260434eed3a360edc6c0" target="_top" xlink:title="find_lexical_decl">
<polygon fill="none" stroke="#000000" points="114,-69.8598 114,-88.8598 203,-88.8598 203,-69.8598 114,-69.8598"/>
<text text-anchor="middle" x="158.5" y="-76.8598" font-family="Helvetica,sans-Serif" font-size="10.00" fill="#000000">find_lexical_decl</text>
</a>
</g>
</g>
<!-- Node312961&#45;&gt;Node312977 -->
<g id="edge14" class="edge">
<title>Node312961&#45;&gt;Node312977</title>
<path fill="none" stroke="#191970" d="M41.6931,-145.4988C54.3771,-134.1873 76.5187,-115.6259 98,-103.3598 104.9685,-99.3807 112.7265,-95.7623 120.2998,-92.6108"/>
<polygon fill="#191970" stroke="#191970" points="121.7139,-95.8153 129.7204,-88.8765 119.1343,-89.3079 121.7139,-95.8153"/>
</g>
<!-- Node312979 -->
<g id="node14" class="node">
<title>Node312979</title>
<g id="a_node14"><a xlink:href="quickjs_8c.html#a17f57e818da8e28af51d672f9dd1e02b" target="_top" xlink:title="find_var">
<polygon fill="none" stroke="#000000" points="133,-183.8598 133,-202.8598 184,-202.8598 184,-183.8598 133,-183.8598"/>
<text text-anchor="middle" x="158.5" y="-190.8598" font-family="Helvetica,sans-Serif" font-size="10.00" fill="#000000">find_var</text>
</a>
</g>
</g>
<!-- Node312961&#45;&gt;Node312979 -->
<g id="edge17" class="edge">
<title>Node312961&#45;&gt;Node312979</title>
<path fill="none" stroke="#191970" d="M62.19,-164.6556C80.5626,-170.1314 103.8672,-177.0771 122.9499,-182.7645"/>
<polygon fill="#191970" stroke="#191970" points="122.1933,-186.1911 132.7764,-185.6932 124.1927,-179.4827 122.1933,-186.1911"/>
</g>
<!-- Node312980 -->
<g id="node15" class="node">
<title>Node312980</title>
<g id="a_node15"><a xlink:href="quickjs_8c.html#ad48dbcc587663ec98a4283179c2b96e9" target="_top" xlink:title="find_var_in_child_scope">
<polygon fill="none" stroke="#000000" points="98,-31.8598 98,-50.8598 219,-50.8598 219,-31.8598 98,-31.8598"/>
<text text-anchor="middle" x="158.5" y="-38.8598" font-family="Helvetica,sans-Serif" font-size="10.00" fill="#000000">find_var_in_child_scope</text>
</a>
</g>
</g>
<!-- Node312961&#45;&gt;Node312980 -->
<g id="edge19" class="edge">
<title>Node312961&#45;&gt;Node312980</title>
<path fill="none" stroke="#191970" d="M35.1845,-145.7003C43.9754,-126.5362 66.2095,-83.5592 98,-60.3598 100.6679,-58.4129 103.5414,-56.6613 106.5356,-55.0861"/>
<polygon fill="#191970" stroke="#191970" points="108.1446,-58.1993 115.7956,-50.8704 105.2441,-51.8284 108.1446,-58.1993"/>
</g>
<!-- Node312981 -->
<g id="node16" class="node">
<title>Node312981</title>
<g id="a_node16"><a xlink:href="quickjs_8c.html#a58d52131a3c2240818c58fd0f18bf700" target="_top" xlink:title="is_child_scope">
<polygon fill="none" stroke="#000000" points="272,-12.8598 272,-31.8598 353,-31.8598 353,-12.8598 272,-12.8598"/>
<text text-anchor="middle" x="312.5" y="-19.8598" font-family="Helvetica,sans-Serif" font-size="10.00" fill="#000000">is_child_scope</text>
</a>
</g>
</g>
<!-- Node312961&#45;&gt;Node312981 -->
<g id="edge21" class="edge">
<title>Node312961&#45;&gt;Node312981</title>
<path fill="none" stroke="#191970" d="M32.4159,-145.6922C36.7497,-120.0633 52.4317,-50.4281 98,-22.3598 150.6179,10.0508 225.1537,.4417 271.0806,-10.3288"/>
<polygon fill="#191970" stroke="#191970" points="270.4408,-13.7758 280.9882,-12.7747 272.1186,-6.9799 270.4408,-13.7758"/>
</g>
<!-- Node312963 -->
<g id="node3" class="node">
<title>Node312963</title>
<g id="a_node3"><a xlink:href="quickjs_8c.html#abbf44eaeace1104a6bef718fbf5700fe" target="_top" xlink:title="JS_DupAtom">
<polygon fill="none" stroke="#000000" points="410,-297.8598 410,-316.8598 485,-316.8598 485,-297.8598 410,-297.8598"/>
<text text-anchor="middle" x="447.5" y="-304.8598" font-family="Helvetica,sans-Serif" font-size="10.00" fill="#000000">JS_DupAtom</text>
</a>
</g>
</g>
<!-- Node312962&#45;&gt;Node312963 -->
<g id="edge2" class="edge">
<title>Node312962&#45;&gt;Node312963</title>
<path fill="none" stroke="#191970" d="M353.738,-307.3598C368.2285,-307.3598 384.632,-307.3598 399.6216,-307.3598"/>
<polygon fill="#191970" stroke="#191970" points="399.7323,-310.8599 409.7323,-307.3598 399.7323,-303.8599 399.7323,-310.8599"/>
</g>
<!-- Node312965 -->
<g id="node5" class="node">
<title>Node312965</title>
<g id="a_node5"><a xlink:href="quickjs_8c.html#afa610f3175e9cb11fdceac95071099b5" target="_top" xlink:title="js_resize_array">
<polygon fill="none" stroke="#000000" points="406,-259.8598 406,-278.8598 489,-278.8598 489,-259.8598 406,-259.8598"/>
<text text-anchor="middle" x="447.5" y="-266.8598" font-family="Helvetica,sans-Serif" font-size="10.00" fill="#000000">js_resize_array</text>
</a>
</g>
</g>
<!-- Node312962&#45;&gt;Node312965 -->
<g id="edge4" class="edge">
<title>Node312962&#45;&gt;Node312965</title>
<path fill="none" stroke="#191970" d="M346.5662,-297.7708C363.9135,-292.8879 385.2022,-286.8955 403.7492,-281.6748"/>
<polygon fill="#191970" stroke="#191970" points="404.7671,-285.0244 413.4447,-278.9457 402.8704,-278.2863 404.7671,-285.0244"/>
</g>
<!-- Node312964 -->
<g id="node4" class="node">
<title>Node312964</title>
<g id="a_node4"><a xlink:href="quickjs_8c.html#a7f6796ee7a195631366f57c713a33f65" target="_top" xlink:title="__JS_AtomIsConst">
<polygon fill="none" stroke="#000000" points="525,-297.8598 525,-316.8598 627,-316.8598 627,-297.8598 525,-297.8598"/>
<text text-anchor="middle" x="576" y="-304.8598" font-family="Helvetica,sans-Serif" font-size="10.00" fill="#000000">__JS_AtomIsConst</text>
</a>
</g>
</g>
<!-- Node312963&#45;&gt;Node312964 -->
<g id="edge3" class="edge">
<title>Node312963&#45;&gt;Node312964</title>
<path fill="none" stroke="#191970" d="M485.013,-307.3598C494.3469,-307.3598 504.5972,-307.3598 514.7475,-307.3598"/>
<polygon fill="#191970" stroke="#191970" points="514.8269,-310.8599 524.8269,-307.3598 514.8268,-303.8599 514.8269,-310.8599"/>
</g>
<!-- Node312966 -->
<g id="node6" class="node">
<title>Node312966</title>
<g id="a_node6"><a xlink:href="quickjs_8c.html#a0eda61158c0a22ef337abc3a035bca33" target="_top" xlink:title="js_realloc_array">
<polygon fill="none" stroke="#ff0000" points="533.5,-259.8598 533.5,-278.8598 618.5,-278.8598 618.5,-259.8598 533.5,-259.8598"/>
<text text-anchor="middle" x="576" y="-266.8598" font-family="Helvetica,sans-Serif" font-size="10.00" fill="#000000">js_realloc_array</text>
</a>
</g>
</g>
<!-- Node312965&#45;&gt;Node312966 -->
<g id="edge5" class="edge">
<title>Node312965&#45;&gt;Node312966</title>
<path fill="none" stroke="#191970" d="M489.2203,-269.3598C499.9929,-269.3598 511.7332,-269.3598 522.9973,-269.3598"/>
<polygon fill="#191970" stroke="#191970" points="523.1667,-272.8599 533.1667,-269.3598 523.1667,-265.8599 523.1667,-272.8599"/>
</g>
<!-- Node312973&#45;&gt;Node312974 -->
<g id="edge7" class="edge">
<title>Node312973&#45;&gt;Node312974</title>
<path fill="none" stroke="#191970" d="M200.1746,-269.3598C224.0133,-269.3598 253.6194,-269.3598 276.4508,-269.3598"/>
<polygon fill="#191970" stroke="#191970" points="276.7388,-272.8599 286.7388,-269.3598 276.7387,-265.8599 276.7388,-272.8599"/>
</g>
<!-- Node312974&#45;&gt;Node312963 -->
<g id="edge9" class="edge">
<title>Node312974&#45;&gt;Node312963</title>
<path fill="none" stroke="#191970" d="M338.2102,-276.5968C356.7859,-281.8255 382.3228,-289.0136 404.0405,-295.1267"/>
<polygon fill="#191970" stroke="#191970" points="403.1371,-298.5084 413.7114,-297.8489 405.0338,-291.7703 403.1371,-298.5084"/>
</g>
<!-- Node312974&#45;&gt;Node312965 -->
<g id="edge10" class="edge">
<title>Node312974&#45;&gt;Node312965</title>
<path fill="none" stroke="#191970" d="M338.2102,-269.3598C354.4968,-269.3598 376.1346,-269.3598 395.8578,-269.3598"/>
<polygon fill="#191970" stroke="#191970" points="395.9588,-272.8599 405.9587,-269.3598 395.9587,-265.8599 395.9588,-272.8599"/>
</g>
<!-- Node312971 -->
<g id="node9" class="node">
<title>Node312971</title>
<g id="a_node9"><a xlink:href="quickjs_8c.html#a853f0924d441ea4225488f37c8b69f9a" target="_top" xlink:title="__attribute__">
<polygon fill="none" stroke="#000000" points="411,-221.8598 411,-240.8598 484,-240.8598 484,-221.8598 411,-221.8598"/>
<text text-anchor="middle" x="447.5" y="-228.8598" font-family="Helvetica,sans-Serif" font-size="10.00" fill="#000000">__attribute__</text>
</a>
</g>
</g>
<!-- Node312974&#45;&gt;Node312971 -->
<g id="edge8" class="edge">
<title>Node312974&#45;&gt;Node312971</title>
<path fill="none" stroke="#191970" d="M338.2102,-262.1229C356.7859,-256.8942 382.3228,-249.706 404.0405,-243.5929"/>
<polygon fill="#191970" stroke="#191970" points="405.0338,-246.9493 413.7114,-240.8707 403.1371,-240.2112 405.0338,-246.9493"/>
</g>
<!-- Node312978 -->
<g id="node13" class="node">
<title>Node312978</title>
<g id="a_node13"><a xlink:href="quickjs_8c.html#a928ebc27e3c6cd81cef3ae8cd95acdcf" target="_top" xlink:title="find_lexical_global_var">
<polygon fill="none" stroke="#000000" points="255,-69.8598 255,-88.8598 370,-88.8598 370,-69.8598 255,-69.8598"/>
<text text-anchor="middle" x="312.5" y="-76.8598" font-family="Helvetica,sans-Serif" font-size="10.00" fill="#000000">find_lexical_global_var</text>
</a>
</g>
</g>
<!-- Node312977&#45;&gt;Node312978 -->
<g id="edge15" class="edge">
<title>Node312977&#45;&gt;Node312978</title>
<path fill="none" stroke="#191970" d="M203.0432,-79.3598C216.0529,-79.3598 230.5757,-79.3598 244.6816,-79.3598"/>
<polygon fill="#191970" stroke="#191970" points="244.8515,-82.8599 254.8515,-79.3598 244.8515,-75.8599 244.8515,-82.8599"/>
</g>
<!-- Node312978&#45;&gt;Node312976 -->
<g id="edge16" class="edge">
<title>Node312978&#45;&gt;Node312976</title>
<path fill="none" stroke="#191970" d="M370.1437,-87.4726C378.8052,-88.6916 387.6878,-89.9418 396.2047,-91.1405"/>
<polygon fill="#191970" stroke="#191970" points="395.9823,-94.6436 406.3725,-92.5715 396.9579,-87.7119 395.9823,-94.6436"/>
</g>
<!-- Node312979&#45;&gt;Node312975 -->
<g id="edge18" class="edge">
<title>Node312979&#45;&gt;Node312975</title>
<path fill="none" stroke="#191970" d="M184.2761,-190.1796C209.5593,-187.0603 248.3272,-182.2772 276.6171,-178.7869"/>
<polygon fill="#191970" stroke="#191970" points="277.4003,-182.2169 286.8965,-177.5187 276.5431,-175.2696 277.4003,-182.2169"/>
</g>
<!-- Node312980&#45;&gt;Node312981 -->
<g id="edge20" class="edge">
<title>Node312980&#45;&gt;Node312981</title>
<path fill="none" stroke="#191970" d="M219.3649,-33.8505C233.4341,-32.1147 248.2557,-30.286 261.835,-28.6107"/>
<polygon fill="#191970" stroke="#191970" points="262.4478,-32.0617 271.9439,-27.3635 261.5906,-25.1144 262.4478,-32.0617"/>
</g>
</g>
</svg>
