<?xml version="1.0" encoding="UTF-8" standalone="no"?>
<!DOCTYPE svg PUBLIC "-//W3C//DTD SVG 1.1//EN"
 "http://www.w3.org/Graphics/SVG/1.1/DTD/svg11.dtd">
<!-- Generated by graphviz version 2.40.1 (20161225.0304)
 -->
<!-- Title: JS_TryGetPropertyInt64 Pages: 1 -->
<!--zoomable 942 -->
<svg id="main" version="1.1" xmlns="http://www.w3.org/2000/svg" xmlns:xlink="http://www.w3.org/1999/xlink" xml:space="preserve" onload="init(evt)">
<style type="text/css"><![CDATA[
.edge:hover path { stroke: red; }
.edge:hover polygon { stroke: red; fill: red; }
]]></style>
<script type="text/javascript"><![CDATA[
var edges = document.getElementsByTagName('g');
if (edges && edges.length) {
  for (var i=0;i<edges.length;i++) {
    if (edges[i].id.substr(0,4)=='edge') {
      edges[i].setAttribute('class','edge');
    }
  }
}
]]></script>
        <defs>
                <circle id="rim" cx="0" cy="0" r="7"/>
                <circle id="rim2" cx="0" cy="0" r="3.5"/>
                <g id="zoomPlus">
                        <use xlink:href="#rim" fill="#404040">
                                <set attributeName="fill" to="#808080" begin="zoomplus.mouseover" end="zoomplus.mouseout"/>
                        </use>
                        <path d="M-4,0h8M0,-4v8" fill="none" stroke="white" stroke-width="1.5" pointer-events="none"/>
                </g>
                <g id="zoomMin">
                        <use xlink:href="#rim" fill="#404040">
                                <set attributeName="fill" to="#808080" begin="zoomminus.mouseover" end="zoomminus.mouseout"/>
                        </use>
                        <path d="M-4,0h8" fill="none" stroke="white" stroke-width="1.5" pointer-events="none"/>
                </g>
                <g id="dirArrow">
                        <path fill="none" stroke="white" stroke-width="1.5" d="M0,-3.0v7 M-2.5,-0.5L0,-3.0L2.5,-0.5"/>
                </g>
               <g id="resetDef">
                       <use xlink:href="#rim2" fill="#404040">
                               <set attributeName="fill" to="#808080" begin="reset.mouseover" end="reset.mouseout"/>
                       </use>
               </g>
        </defs>

<script type="text/javascript">
var viewWidth = 1174;
var viewHeight = 942;
var sectionId = 'dynsection-578';
</script>
<script xlink:href="svgpan.js"/>
<svg id="graph" class="graph">
<g id="viewport">
<title>JS_TryGetPropertyInt64</title>
<!-- Node196533 -->
<g id="node1" class="node">
<title>Node196533</title>
<polygon fill="#bfbfbf" stroke="#000000" points="0,-566.8238 0,-585.8238 122,-585.8238 122,-566.8238 0,-566.8238"/>
<text text-anchor="middle" x="61" y="-573.8238" font-family="Helvetica,sans-Serif" font-size="10.00" fill="#000000">JS_TryGetPropertyInt64</text>
</g>
<!-- Node196534 -->
<g id="node2" class="node">
<title>Node196534</title>
<g id="a_node2"><a xlink:href="quickjs_8c.html#a877fcb7651d95b411ce70e62b7f4a1f0" target="_top" xlink:title="__JS_AtomFromUInt32">
<polygon fill="none" stroke="#000000" points="293,-914.8238 293,-933.8238 412,-933.8238 412,-914.8238 293,-914.8238"/>
<text text-anchor="middle" x="352.5" y="-921.8238" font-family="Helvetica,sans-Serif" font-size="10.00" fill="#000000">__JS_AtomFromUInt32</text>
</a>
</g>
</g>
<!-- Node196533&#45;&gt;Node196534 -->
<g id="edge1" class="edge">
<title>Node196533&#45;&gt;Node196534</title>
<path fill="none" stroke="#191970" d="M62.9617,-585.9568C72.4359,-631.6035 114.7715,-825.6523 158,-867.3238 191.3503,-899.4729 241.8346,-913.6305 283.0117,-919.7989"/>
<polygon fill="#191970" stroke="#191970" points="282.6097,-923.2765 292.9925,-921.1674 283.5607,-916.3414 282.6097,-923.2765"/>
</g>
<!-- Node196535 -->
<g id="node3" class="node">
<title>Node196535</title>
<g id="a_node3"><a xlink:href="quickjs_8c.html#ab7fc45a99935a1c0ba50b0216d9401a9" target="_top" xlink:title="JS_FreeAtom">
<polygon fill="none" stroke="#000000" points="811.5,-123.8238 811.5,-142.8238 888.5,-142.8238 888.5,-123.8238 811.5,-123.8238"/>
<text text-anchor="middle" x="850" y="-130.8238" font-family="Helvetica,sans-Serif" font-size="10.00" fill="#000000">JS_FreeAtom</text>
</a>
</g>
</g>
<!-- Node196533&#45;&gt;Node196535 -->
<g id="edge2" class="edge">
<title>Node196533&#45;&gt;Node196535</title>
<path fill="none" stroke="#191970" d="M61.5179,-566.5639C65.1038,-502.5223 88.1957,-142.5573 158,-63.3238 218.0669,4.8569 261.6339,-.3238 352.5,-.3238 352.5,-.3238 352.5,-.3238 538,-.3238 646.6564,-.3238 680.1665,-7.2878 775,-60.3238 800.1189,-74.3716 822.8654,-98.9811 836.5596,-115.7054"/>
<polygon fill="#191970" stroke="#191970" points="833.8988,-117.9829 842.8602,-123.6347 839.3793,-113.628 833.8988,-117.9829"/>
</g>
<!-- Node196541 -->
<g id="node7" class="node">
<title>Node196541</title>
<g id="a_node7"><a xlink:href="quickjs_8h.html#a89b7c8686c7eee70b86be722ee4730ad" target="_top" xlink:title="JS_GetProperty">
<polygon fill="none" stroke="#000000" points="164.5,-408.8238 164.5,-427.8238 250.5,-427.8238 250.5,-408.8238 164.5,-408.8238"/>
<text text-anchor="middle" x="207.5" y="-415.8238" font-family="Helvetica,sans-Serif" font-size="10.00" fill="#000000">JS_GetProperty</text>
</a>
</g>
</g>
<!-- Node196533&#45;&gt;Node196541 -->
<g id="edge6" class="edge">
<title>Node196533&#45;&gt;Node196541</title>
<path fill="none" stroke="#191970" d="M70.1642,-566.4402C94.4182,-540.2823 160.5284,-468.9826 191.3191,-435.7749"/>
<polygon fill="#191970" stroke="#191970" points="194.1066,-437.9163 198.3392,-428.2037 188.9735,-433.1569 194.1066,-437.9163"/>
</g>
<!-- Node196582 -->
<g id="node14" class="node">
<title>Node196582</title>
<g id="a_node14"><a xlink:href="quickjs_8h.html#ad80a83d73e9b7d872b88fbf2943aebe9" target="_top" xlink:title="JS_IsException">
<polygon fill="none" stroke="#000000" points="676.5,-800.8238 676.5,-819.8238 762.5,-819.8238 762.5,-800.8238 676.5,-800.8238"/>
<text text-anchor="middle" x="719.5" y="-807.8238" font-family="Helvetica,sans-Serif" font-size="10.00" fill="#000000">JS_IsException</text>
</a>
</g>
</g>
<!-- Node196533&#45;&gt;Node196582 -->
<g id="edge38" class="edge">
<title>Node196533&#45;&gt;Node196582</title>
<path fill="none" stroke="#191970" d="M70.9246,-586.0069C87.8968,-602.2841 123.9679,-635.6677 158,-659.3238 214.3592,-698.4997 229.4867,-708.3012 293,-734.3238 420.3103,-786.4852 583.4466,-802.907 666.2062,-808.0319"/>
<polygon fill="#191970" stroke="#191970" points="666.1867,-811.5367 676.3748,-808.6294 666.5974,-804.5488 666.1867,-811.5367"/>
</g>
<!-- Node196641 -->
<g id="node19" class="node">
<title>Node196641</title>
<g id="a_node19"><a xlink:href="quickjs_8c.html#a90d6e607f6917d817c1e997bd2e6ed07" target="_top" xlink:title="JS_GetPropertyValue">
<polygon fill="none" stroke="#ff0000" points="664,-180.8238 664,-199.8238 775,-199.8238 775,-180.8238 664,-180.8238"/>
<text text-anchor="middle" x="719.5" y="-187.8238" font-family="Helvetica,sans-Serif" font-size="10.00" fill="#000000">JS_GetPropertyValue</text>
</a>
</g>
</g>
<!-- Node196533&#45;&gt;Node196641 -->
<g id="edge33" class="edge">
<title>Node196533&#45;&gt;Node196641</title>
<path fill="none" stroke="#191970" d="M63.6851,-566.5276C77.7946,-517.0169 148.2684,-292.6357 293,-189.3238 414.9599,-102.2668 481.1867,-121.3407 628,-151.3238 651.1261,-156.0468 675.642,-166.8446 693.4706,-175.8837"/>
<polygon fill="#191970" stroke="#191970" points="692.1524,-179.1439 702.6361,-180.6747 695.3952,-172.9403 692.1524,-179.1439"/>
</g>
<!-- Node196583 -->
<g id="node20" class="node">
<title>Node196583</title>
<g id="a_node20"><a xlink:href="quickjs_8h.html#a2050bc428da1c65ac7eb87c3fa3b0392" target="_top" xlink:title="JS_NewInt32">
<polygon fill="none" stroke="#000000" points="812,-161.8238 812,-180.8238 888,-180.8238 888,-161.8238 812,-161.8238"/>
<text text-anchor="middle" x="850" y="-168.8238" font-family="Helvetica,sans-Serif" font-size="10.00" fill="#000000">JS_NewInt32</text>
</a>
</g>
</g>
<!-- Node196533&#45;&gt;Node196583 -->
<g id="edge45" class="edge">
<title>Node196533&#45;&gt;Node196583</title>
<path fill="none" stroke="#191970" d="M61.4956,-566.5265C65.749,-493.6097 102.3239,-38.3238 352.5,-38.3238 352.5,-38.3238 352.5,-38.3238 538,-38.3238 650.2062,-38.3238 676.4042,-71.76 775,-125.3238 792.5741,-134.8712 793.933,-141.897 811,-152.3238 813.6773,-153.9594 816.5159,-155.5659 819.3925,-157.1092"/>
<polygon fill="#191970" stroke="#191970" points="818.0604,-160.3587 828.5591,-161.7831 821.2401,-154.1226 818.0604,-160.3587"/>
</g>
<!-- Node196825 -->
<g id="node26" class="node">
<title>Node196825</title>
<g id="a_node26"><a xlink:href="quickjs_8c.html#a9d6d0a9704951d01c128975e0d2213f8" target="_top" xlink:title="JS_HasProperty">
<polygon fill="none" stroke="#ff0000" points="308,-705.8238 308,-724.8238 397,-724.8238 397,-705.8238 308,-705.8238"/>
<text text-anchor="middle" x="352.5" y="-712.8238" font-family="Helvetica,sans-Serif" font-size="10.00" fill="#000000">JS_HasProperty</text>
</a>
</g>
</g>
<!-- Node196533&#45;&gt;Node196825 -->
<g id="edge34" class="edge">
<title>Node196533&#45;&gt;Node196825</title>
<path fill="none" stroke="#191970" d="M81.036,-585.8778C131.4802,-609.9319 263.9122,-673.0813 323.1396,-701.3235"/>
<polygon fill="#191970" stroke="#191970" points="321.791,-704.5579 332.3238,-705.7029 324.804,-698.2395 321.791,-704.5579"/>
</g>
<!-- Node196968 -->
<g id="node27" class="node">
<title>Node196968</title>
<g id="a_node27"><a xlink:href="quickjs_8c.html#aa641af3a921335927dab07dc83285917" target="_top" xlink:title="JS_NewAtomInt64">
<polygon fill="none" stroke="#000000" points="158,-838.8238 158,-857.8238 257,-857.8238 257,-838.8238 158,-838.8238"/>
<text text-anchor="middle" x="207.5" y="-845.8238" font-family="Helvetica,sans-Serif" font-size="10.00" fill="#000000">JS_NewAtomInt64</text>
</a>
</g>
</g>
<!-- Node196533&#45;&gt;Node196968 -->
<g id="edge39" class="edge">
<title>Node196533&#45;&gt;Node196968</title>
<path fill="none" stroke="#191970" d="M64.4865,-585.9478C75.7501,-616.4962 113.0537,-713.5436 158,-786.3238 167.9003,-802.3551 181.3543,-818.957 191.7371,-830.9421"/>
<polygon fill="#191970" stroke="#191970" points="189.4163,-833.6015 198.6599,-838.779 194.6625,-828.9672 189.4163,-833.6015"/>
</g>
<!-- Node196536 -->
<g id="node4" class="node">
<title>Node196536</title>
<g id="a_node4"><a xlink:href="quickjs_8c.html#a7f6796ee7a195631366f57c713a33f65" target="_top" xlink:title="__JS_AtomIsConst">
<polygon fill="none" stroke="#000000" points="925,-433.8238 925,-452.8238 1027,-452.8238 1027,-433.8238 925,-433.8238"/>
<text text-anchor="middle" x="976" y="-440.8238" font-family="Helvetica,sans-Serif" font-size="10.00" fill="#000000">__JS_AtomIsConst</text>
</a>
</g>
</g>
<!-- Node196535&#45;&gt;Node196536 -->
<g id="edge3" class="edge">
<title>Node196535&#45;&gt;Node196536</title>
<path fill="none" stroke="#191970" d="M877.243,-142.9247C881.6319,-145.4364 885.7826,-148.5347 889,-152.3238 924.9967,-194.7167 960.74,-364.8181 972.208,-423.3889"/>
<polygon fill="#191970" stroke="#191970" points="968.8368,-424.3909 974.1708,-433.5451 975.7097,-423.0626 968.8368,-424.3909"/>
</g>
<!-- Node196537 -->
<g id="node5" class="node">
<title>Node196537</title>
<g id="a_node5"><a xlink:href="quickjs_8c.html#a0bbd9e3ecd55e3ea6c9d44bfda382095" target="_top" xlink:title="__JS_FreeAtom">
<polygon fill="none" stroke="#000000" points="932.5,-123.8238 932.5,-142.8238 1019.5,-142.8238 1019.5,-123.8238 932.5,-123.8238"/>
<text text-anchor="middle" x="976" y="-130.8238" font-family="Helvetica,sans-Serif" font-size="10.00" fill="#000000">__JS_FreeAtom</text>
</a>
</g>
</g>
<!-- Node196535&#45;&gt;Node196537 -->
<g id="edge4" class="edge">
<title>Node196535&#45;&gt;Node196537</title>
<path fill="none" stroke="#191970" d="M888.8323,-133.3238C899.3509,-133.3238 910.9289,-133.3238 922.1152,-133.3238"/>
<polygon fill="#191970" stroke="#191970" points="922.2367,-136.8239 932.2366,-133.3238 922.2366,-129.8239 922.2367,-136.8239"/>
</g>
<!-- Node196538 -->
<g id="node6" class="node">
<title>Node196538</title>
<g id="a_node6"><a xlink:href="quickjs_8c.html#a58c8965dad50b15b75918a09f3d9dc7c" target="_top" xlink:title="JS_FreeAtomStruct">
<polygon fill="none" stroke="#ff0000" points="1063,-123.8238 1063,-142.8238 1166,-142.8238 1166,-123.8238 1063,-123.8238"/>
<text text-anchor="middle" x="1114.5" y="-130.8238" font-family="Helvetica,sans-Serif" font-size="10.00" fill="#000000">JS_FreeAtomStruct</text>
</a>
</g>
</g>
<!-- Node196537&#45;&gt;Node196538 -->
<g id="edge5" class="edge">
<title>Node196537&#45;&gt;Node196538</title>
<path fill="none" stroke="#191970" d="M1019.8223,-133.3238C1030.2585,-133.3238 1041.5896,-133.3238 1052.6647,-133.3238"/>
<polygon fill="#191970" stroke="#191970" points="1052.7308,-136.8239 1062.7308,-133.3238 1052.7307,-129.8239 1052.7308,-136.8239"/>
</g>
<!-- Node196542 -->
<g id="node8" class="node">
<title>Node196542</title>
<g id="a_node8"><a xlink:href="quickjs_8c.html#a5762c57ae0c9937e986040c01222833a" target="_top" xlink:title="JS_GetPropertyInternal">
<polygon fill="none" stroke="#000000" points="293,-408.8238 293,-427.8238 412,-427.8238 412,-408.8238 293,-408.8238"/>
<text text-anchor="middle" x="352.5" y="-415.8238" font-family="Helvetica,sans-Serif" font-size="10.00" fill="#000000">JS_GetPropertyInternal</text>
</a>
</g>
</g>
<!-- Node196541&#45;&gt;Node196542 -->
<g id="edge7" class="edge">
<title>Node196541&#45;&gt;Node196542</title>
<path fill="none" stroke="#191970" d="M250.6122,-418.3238C260.7746,-418.3238 271.8644,-418.3238 282.8661,-418.3238"/>
<polygon fill="#191970" stroke="#191970" points="282.9157,-421.8239 292.9157,-418.3238 282.9157,-414.8239 282.9157,-421.8239"/>
</g>
<!-- Node196543 -->
<g id="node9" class="node">
<title>Node196543</title>
<g id="a_node9"><a xlink:href="quickjs_8c.html#a288254c06a39c9fca740a7abdad2834e" target="_top" xlink:title="__JS_AtomIsTaggedInt">
<polygon fill="none" stroke="#000000" points="478.5,-180.8238 478.5,-199.8238 597.5,-199.8238 597.5,-180.8238 478.5,-180.8238"/>
<text text-anchor="middle" x="538" y="-187.8238" font-family="Helvetica,sans-Serif" font-size="10.00" fill="#000000">__JS_AtomIsTaggedInt</text>
</a>
</g>
</g>
<!-- Node196542&#45;&gt;Node196543 -->
<g id="edge8" class="edge">
<title>Node196542&#45;&gt;Node196543</title>
<path fill="none" stroke="#191970" d="M353.8393,-408.5552C358.9914,-374.9436 380.7335,-263.1791 448,-209.3238 454.1357,-204.4114 461.2389,-200.6856 468.7107,-197.8717"/>
<polygon fill="#191970" stroke="#191970" points="469.8816,-201.1717 478.3271,-194.7745 467.7356,-194.5088 469.8816,-201.1717"/>
</g>
<!-- Node196544 -->
<g id="node10" class="node">
<title>Node196544</title>
<g id="a_node10"><a xlink:href="quickjs_8c.html#a89f38938cee8077ce1fbba07946ed185" target="_top" xlink:title="__JS_AtomToUInt32">
<polygon fill="none" stroke="#000000" points="484,-534.8238 484,-553.8238 592,-553.8238 592,-534.8238 484,-534.8238"/>
<text text-anchor="middle" x="538" y="-541.8238" font-family="Helvetica,sans-Serif" font-size="10.00" fill="#000000">__JS_AtomToUInt32</text>
</a>
</g>
</g>
<!-- Node196542&#45;&gt;Node196544 -->
<g id="edge9" class="edge">
<title>Node196542&#45;&gt;Node196544</title>
<path fill="none" stroke="#191970" d="M358.0245,-427.8604C370.8597,-449.0946 404.9104,-500.3602 448,-525.3238 455.9151,-529.9094 464.7941,-533.3941 473.8093,-536.041"/>
<polygon fill="#191970" stroke="#191970" points="473.0464,-539.4591 483.6061,-538.5969 474.8135,-532.6858 473.0464,-539.4591"/>
</g>
<!-- Node196545 -->
<g id="node11" class="node">
<title>Node196545</title>
<g id="a_node11"><a xlink:href="quickjs_8c.html#a06b76f5124fd985e35f4c652fd018d6d" target="_top" xlink:title="find_own_property">
<polygon fill="none" stroke="#ff0000" points="490,-496.8238 490,-515.8238 586,-515.8238 586,-496.8238 490,-496.8238"/>
<text text-anchor="middle" x="538" y="-503.8238" font-family="Helvetica,sans-Serif" font-size="10.00" fill="#000000">find_own_property</text>
</a>
</g>
</g>
<!-- Node196542&#45;&gt;Node196545 -->
<g id="edge10" class="edge">
<title>Node196542&#45;&gt;Node196545</title>
<path fill="none" stroke="#191970" d="M363.0666,-428.0641C379.7921,-442.9388 413.9709,-471.1797 448,-486.3238 457.9645,-490.7583 469.0008,-494.2491 479.8323,-496.9844"/>
<polygon fill="#191970" stroke="#191970" points="479.1511,-500.4194 489.6855,-499.2893 480.7456,-493.6034 479.1511,-500.4194"/>
</g>
<!-- Node196548 -->
<g id="node12" class="node">
<title>Node196548</title>
<g id="a_node12"><a xlink:href="quickjs_8c.html#add3eea1f6d626963ade3c28a1fd563d1" target="_top" xlink:title="JS_AtomIsNumericIndex">
<polygon fill="none" stroke="#ff0000" points="475,-724.8238 475,-743.8238 601,-743.8238 601,-724.8238 475,-724.8238"/>
<text text-anchor="middle" x="538" y="-731.8238" font-family="Helvetica,sans-Serif" font-size="10.00" fill="#000000">JS_AtomIsNumericIndex</text>
</a>
</g>
</g>
<!-- Node196542&#45;&gt;Node196548 -->
<g id="edge11" class="edge">
<title>Node196542&#45;&gt;Node196548</title>
<path fill="none" stroke="#191970" d="M353.7737,-427.8755C359.04,-464.1853 382.0261,-595.6968 448,-677.3238 463.2167,-696.1509 486.3999,-710.6263 505.4256,-720.2784"/>
<polygon fill="#191970" stroke="#191970" points="504.1295,-723.5396 514.6544,-724.7552 507.1847,-717.2415 504.1295,-723.5396"/>
</g>
<!-- Node196552 -->
<g id="node13" class="node">
<title>Node196552</title>
<g id="a_node13"><a xlink:href="quickjs_8h.html#afaa20c47565bc704c6c85f3d77254e7d" target="_top" xlink:title="JS_FreeValue">
<polygon fill="none" stroke="#ff0000" points="811,-686.8238 811,-705.8238 889,-705.8238 889,-686.8238 811,-686.8238"/>
<text text-anchor="middle" x="850" y="-693.8238" font-family="Helvetica,sans-Serif" font-size="10.00" fill="#000000">JS_FreeValue</text>
</a>
</g>
</g>
<!-- Node196542&#45;&gt;Node196552 -->
<g id="edge19" class="edge">
<title>Node196542&#45;&gt;Node196552</title>
<path fill="none" stroke="#191970" d="M355.7997,-428.0545C365.3513,-454.621 395.7232,-528.71 448,-563.3238 515.8152,-608.226 550.3542,-572.1115 628,-596.3238 701.5988,-619.2741 783.005,-660.2779 823.7402,-681.9637"/>
<polygon fill="#191970" stroke="#191970" points="822.2617,-685.1425 832.7281,-686.7876 825.5721,-678.9746 822.2617,-685.1425"/>
</g>
<!-- Node196722 -->
<g id="node15" class="node">
<title>Node196722</title>
<g id="a_node15"><a xlink:href="quickjs_8c.html#a8aac7988cf0c6f3c2b629a6662fd7ec8" target="_top" xlink:title="JS_AutoInitProperty">
<polygon fill="none" stroke="#ff0000" points="486,-648.8238 486,-667.8238 590,-667.8238 590,-648.8238 486,-648.8238"/>
<text text-anchor="middle" x="538" y="-655.8238" font-family="Helvetica,sans-Serif" font-size="10.00" fill="#000000">JS_AutoInitProperty</text>
</a>
</g>
</g>
<!-- Node196542&#45;&gt;Node196722 -->
<g id="edge14" class="edge">
<title>Node196542&#45;&gt;Node196722</title>
<path fill="none" stroke="#191970" d="M353.8365,-428.28C358.9796,-462.5615 380.6957,-576.7594 448,-634.3238 456.0091,-641.1739 465.7732,-646.0916 475.8797,-649.617"/>
<polygon fill="#191970" stroke="#191970" points="475.0422,-653.0206 485.6282,-652.5879 477.0829,-646.3247 475.0422,-653.0206"/>
</g>
<!-- Node196618 -->
<g id="node16" class="node">
<title>Node196618</title>
<g id="a_node16"><a xlink:href="quickjs_8c.html#a75f6ee5e4235a7dc99889f3d2eb2c147" target="_top" xlink:title="JS_CallFree">
<polygon fill="none" stroke="#ff0000" points="684,-686.8238 684,-705.8238 755,-705.8238 755,-686.8238 684,-686.8238"/>
<text text-anchor="middle" x="719.5" y="-693.8238" font-family="Helvetica,sans-Serif" font-size="10.00" fill="#000000">JS_CallFree</text>
</a>
</g>
</g>
<!-- Node196542&#45;&gt;Node196618 -->
<g id="edge16" class="edge">
<title>Node196542&#45;&gt;Node196618</title>
<path fill="none" stroke="#191970" d="M354.6695,-427.8442C362.0088,-457.7841 388.8259,-550.7361 448,-596.3238 513.1574,-646.5209 552.1082,-607.6115 628,-639.3238 653.7343,-650.0772 680.5139,-667.6264 698.4013,-680.4155"/>
<polygon fill="#191970" stroke="#191970" points="696.7502,-683.5433 706.892,-686.6082 700.8751,-677.8877 696.7502,-683.5433"/>
</g>
<!-- Node196590 -->
<g id="node17" class="node">
<title>Node196590</title>
<g id="a_node17"><a xlink:href="quickjs_8h.html#a775522f2d084fc8fa0fcb33f390006b4" target="_top" xlink:title="JS_DupValue">
<polygon fill="none" stroke="#000000" points="811.5,-408.8238 811.5,-427.8238 888.5,-427.8238 888.5,-408.8238 811.5,-408.8238"/>
<text text-anchor="middle" x="850" y="-415.8238" font-family="Helvetica,sans-Serif" font-size="10.00" fill="#000000">JS_DupValue</text>
</a>
</g>
</g>
<!-- Node196542&#45;&gt;Node196590 -->
<g id="edge18" class="edge">
<title>Node196542&#45;&gt;Node196590</title>
<path fill="none" stroke="#191970" d="M412.016,-418.3238C511.4777,-418.3238 709.5825,-418.3238 801.3092,-418.3238"/>
<polygon fill="#191970" stroke="#191970" points="801.4288,-421.8239 811.4288,-418.3238 801.4288,-414.8239 801.4288,-421.8239"/>
</g>
<!-- Node196640 -->
<g id="node18" class="node">
<title>Node196640</title>
<g id="a_node18"><a xlink:href="quickjs_8c.html#aeb97957655d979e9fe56c955da2b2d4b" target="_top" xlink:title="JS_GetPropertyUint32">
<polygon fill="none" stroke="#ff0000" points="480.5,-294.8238 480.5,-313.8238 595.5,-313.8238 595.5,-294.8238 480.5,-294.8238"/>
<text text-anchor="middle" x="538" y="-301.8238" font-family="Helvetica,sans-Serif" font-size="10.00" fill="#000000">JS_GetPropertyUint32</text>
</a>
</g>
</g>
<!-- Node196542&#45;&gt;Node196640 -->
<g id="edge20" class="edge">
<title>Node196542&#45;&gt;Node196640</title>
<path fill="none" stroke="#191970" d="M359.1333,-408.7054C373.1168,-389.2254 407.674,-345.1145 448,-323.3238 454.9149,-319.5872 462.4977,-316.5851 470.2359,-314.1732"/>
<polygon fill="#191970" stroke="#191970" points="471.3925,-317.4842 480.0822,-311.4228 469.5093,-310.7422 471.3925,-317.4842"/>
</g>
<!-- Node196542&#45;&gt;Node196583 -->
<g id="edge30" class="edge">
<title>Node196542&#45;&gt;Node196583</title>
<path fill="none" stroke="#191970" d="M354.6778,-408.7964C364.4491,-366.9657 405.6232,-200.3733 448,-171.3238 561.0751,-93.8105 737.3052,-135.2502 813.1976,-158.7327"/>
<polygon fill="#191970" stroke="#191970" points="812.2081,-162.0906 822.7982,-161.7747 814.3225,-155.4176 812.2081,-162.0906"/>
</g>
<!-- Node196748 -->
<g id="node21" class="node">
<title>Node196748</title>
<g id="a_node21"><a xlink:href="quickjs_8c.html#a93550bf785e919d0881399712c54cb34" target="_top" xlink:title="JS_GetPrototypePrimitive">
<polygon fill="none" stroke="#000000" points="473,-332.8238 473,-351.8238 603,-351.8238 603,-332.8238 473,-332.8238"/>
<text text-anchor="middle" x="538" y="-339.8238" font-family="Helvetica,sans-Serif" font-size="10.00" fill="#000000">JS_GetPrototypePrimitive</text>
</a>
</g>
</g>
<!-- Node196542&#45;&gt;Node196748 -->
<g id="edge27" class="edge">
<title>Node196542&#45;&gt;Node196748</title>
<path fill="none" stroke="#191970" d="M365.3786,-408.7324C383.083,-396.0067 416.3547,-373.7101 448,-361.3238 454.7476,-358.6827 461.9308,-356.3809 469.183,-354.3812"/>
<polygon fill="#191970" stroke="#191970" points="470.2665,-357.7166 479.0808,-351.838 468.5244,-350.9368 470.2665,-357.7166"/>
</g>
<!-- Node196827 -->
<g id="node22" class="node">
<title>Node196827</title>
<g id="a_node22"><a xlink:href="quickjs_8h.html#aaab426b47c95d00479b7355b1cf7f56c" target="_top" xlink:title="JS_IsUninitialized">
<polygon fill="none" stroke="#000000" points="490.5,-256.8238 490.5,-275.8238 585.5,-275.8238 585.5,-256.8238 490.5,-256.8238"/>
<text text-anchor="middle" x="538" y="-263.8238" font-family="Helvetica,sans-Serif" font-size="10.00" fill="#000000">JS_IsUninitialized</text>
</a>
</g>
</g>
<!-- Node196542&#45;&gt;Node196827 -->
<g id="edge28" class="edge">
<title>Node196542&#45;&gt;Node196827</title>
<path fill="none" stroke="#191970" d="M356.3934,-408.7467C367.0039,-383.9427 398.9561,-317.3199 448,-285.3238 457.6204,-279.0475 468.9399,-274.7981 480.2441,-271.9322"/>
<polygon fill="#191970" stroke="#191970" points="481.1186,-275.3236 490.1311,-269.7536 479.6122,-268.4875 481.1186,-275.3236"/>
</g>
<!-- Node196966 -->
<g id="node23" class="node">
<title>Node196966</title>
<g id="a_node23"><a xlink:href="quickjs_8c.html#a077ffa6455c0d7831bd4547542b5f2f7" target="_top" xlink:title="js_new_string_char">
<polygon fill="none" stroke="#ff0000" points="487.5,-218.8238 487.5,-237.8238 588.5,-237.8238 588.5,-218.8238 487.5,-218.8238"/>
<text text-anchor="middle" x="538" y="-225.8238" font-family="Helvetica,sans-Serif" font-size="10.00" fill="#000000">js_new_string_char</text>
</a>
</g>
</g>
<!-- Node196542&#45;&gt;Node196966 -->
<g id="edge29" class="edge">
<title>Node196542&#45;&gt;Node196966</title>
<path fill="none" stroke="#191970" d="M354.8495,-408.6941C362.5537,-379.2883 389.9542,-290.0706 448,-247.3238 456.5752,-241.0087 466.7901,-236.6945 477.2085,-233.7672"/>
<polygon fill="#191970" stroke="#191970" points="478.306,-237.1032 487.2127,-231.3655 476.6719,-230.2966 478.306,-237.1032"/>
</g>
<!-- Node196750 -->
<g id="node24" class="node">
<title>Node196750</title>
<g id="a_node24"><a xlink:href="quickjs_8c.html#ab8d0b87c9eed4eb6c054b6f4e1731554" target="_top" xlink:title="JS_ThrowReferenceErrorNot\lDefined">
<polygon fill="none" stroke="#ff0000" points="466.5,-447.3238 466.5,-477.3238 609.5,-477.3238 609.5,-447.3238 466.5,-447.3238"/>
<text text-anchor="start" x="474.5" y="-465.3238" font-family="Helvetica,sans-Serif" font-size="10.00" fill="#000000">JS_ThrowReferenceErrorNot</text>
<text text-anchor="middle" x="538" y="-454.3238" font-family="Helvetica,sans-Serif" font-size="10.00" fill="#000000">Defined</text>
</a>
</g>
</g>
<!-- Node196542&#45;&gt;Node196750 -->
<g id="edge31" class="edge">
<title>Node196542&#45;&gt;Node196750</title>
<path fill="none" stroke="#191970" d="M392.7507,-427.8711C413.7291,-432.8471 440.0503,-439.0904 464.5036,-444.8907"/>
<polygon fill="#191970" stroke="#191970" points="463.948,-448.3559 474.4858,-447.2584 465.5636,-441.5449 463.948,-448.3559"/>
</g>
<!-- Node196828 -->
<g id="node25" class="node">
<title>Node196828</title>
<g id="a_node25"><a xlink:href="quickjs_8c.html#a75ac132a3af4de01e1fadeb0bede6ee7" target="_top" xlink:title="JS_ThrowReferenceErrorUninitialized">
<polygon fill="none" stroke="#ff0000" points="448,-370.8238 448,-389.8238 628,-389.8238 628,-370.8238 448,-370.8238"/>
<text text-anchor="middle" x="538" y="-377.8238" font-family="Helvetica,sans-Serif" font-size="10.00" fill="#000000">JS_ThrowReferenceErrorUninitialized</text>
</a>
</g>
</g>
<!-- Node196542&#45;&gt;Node196828 -->
<g id="edge32" class="edge">
<title>Node196542&#45;&gt;Node196828</title>
<path fill="none" stroke="#191970" d="M399.3095,-408.7348C424.3395,-403.6073 455.3414,-397.2566 481.6822,-391.8606"/>
<polygon fill="#191970" stroke="#191970" points="482.433,-395.2796 491.5271,-389.8438 481.0281,-388.422 482.433,-395.2796"/>
</g>
<!-- Node196548&#45;&gt;Node196552 -->
<g id="edge12" class="edge">
<title>Node196548&#45;&gt;Node196552</title>
<path fill="none" stroke="#191970" d="M601.2241,-732.1457C649.1697,-729.7965 716.5616,-724.9979 775,-715.3238 785.6449,-713.5616 796.9939,-711.0346 807.557,-708.3962"/>
<polygon fill="#191970" stroke="#191970" points="808.5889,-711.7446 817.3951,-705.8538 806.8374,-704.9672 808.5889,-711.7446"/>
</g>
<!-- Node196548&#45;&gt;Node196582 -->
<g id="edge13" class="edge">
<title>Node196548&#45;&gt;Node196582</title>
<path fill="none" stroke="#191970" d="M560.9871,-743.9492C592.8992,-757.3119 650.7844,-781.5503 687.0757,-796.7467"/>
<polygon fill="#191970" stroke="#191970" points="686.1237,-800.1425 696.6995,-800.7765 688.8274,-793.6857 686.1237,-800.1425"/>
</g>
<!-- Node196722&#45;&gt;Node196582 -->
<g id="edge15" class="edge">
<title>Node196722&#45;&gt;Node196582</title>
<path fill="none" stroke="#191970" d="M555.7549,-667.8801C574.5416,-678.3683 604.6415,-696.2654 628,-715.3238 657.8077,-739.6441 687.8985,-772.9571 705.0638,-792.986"/>
<polygon fill="#191970" stroke="#191970" points="702.4565,-795.323 711.5905,-800.6915 707.798,-790.7987 702.4565,-795.323"/>
</g>
<!-- Node196618&#45;&gt;Node196552 -->
<g id="edge17" class="edge">
<title>Node196618&#45;&gt;Node196552</title>
<path fill="none" stroke="#191970" d="M755.1597,-696.3238C769.1398,-696.3238 785.4191,-696.3238 800.5036,-696.3238"/>
<polygon fill="#191970" stroke="#191970" points="800.713,-699.8239 810.713,-696.3238 800.713,-692.8239 800.713,-699.8239"/>
</g>
<!-- Node196640&#45;&gt;Node196641 -->
<g id="edge21" class="edge">
<title>Node196640&#45;&gt;Node196641</title>
<path fill="none" stroke="#191970" d="M595.535,-297.509C606.7443,-294.7295 618.0831,-290.8203 628,-285.3238 662.3487,-266.2856 691.7403,-230.1201 707.401,-208.3194"/>
<polygon fill="#191970" stroke="#191970" points="710.3912,-210.1504 713.2464,-199.9475 704.6518,-206.143 710.3912,-210.1504"/>
</g>
<!-- Node196641&#45;&gt;Node196535 -->
<g id="edge23" class="edge">
<title>Node196641&#45;&gt;Node196535</title>
<path fill="none" stroke="#191970" d="M741.3428,-180.7833C762.5152,-171.5355 794.847,-157.4136 818.7414,-146.977"/>
<polygon fill="#191970" stroke="#191970" points="820.3229,-150.1056 828.086,-142.8954 817.521,-143.6908 820.3229,-150.1056"/>
</g>
<!-- Node196641&#45;&gt;Node196541 -->
<g id="edge25" class="edge">
<title>Node196641&#45;&gt;Node196541</title>
<path fill="none" stroke="#191970" d="M692.7498,-180.7409C642.5099,-164.3735 531.5823,-136.0483 448,-171.3238 333.9912,-219.4407 247.2646,-350.9491 218.1178,-399.7626"/>
<polygon fill="#191970" stroke="#191970" points="214.9632,-398.2229 212.9235,-408.6195 221.0015,-401.7641 214.9632,-398.2229"/>
</g>
<!-- Node196641&#45;&gt;Node196552 -->
<g id="edge24" class="edge">
<title>Node196641&#45;&gt;Node196552</title>
<path fill="none" stroke="#191970" d="M721.9904,-199.98C737.7055,-260.9137 823.1674,-592.2833 844.9471,-676.7316"/>
<polygon fill="#191970" stroke="#191970" points="841.597,-677.7571 847.4835,-686.5662 848.3752,-676.009 841.597,-677.7571"/>
</g>
<!-- Node196641&#45;&gt;Node196590 -->
<g id="edge22" class="edge">
<title>Node196641&#45;&gt;Node196590</title>
<path fill="none" stroke="#191970" d="M724.9413,-199.8304C744.7153,-234.3781 812.9894,-353.6617 839.4273,-399.8519"/>
<polygon fill="#191970" stroke="#191970" points="836.5303,-401.8363 844.5355,-408.7766 842.6055,-398.359 836.5303,-401.8363"/>
</g>
<!-- Node196641&#45;&gt;Node196583 -->
<g id="edge26" class="edge">
<title>Node196641&#45;&gt;Node196583</title>
<path fill="none" stroke="#191970" d="M775.2223,-182.211C784.0853,-180.9206 793.1881,-179.5953 801.8573,-178.3331"/>
<polygon fill="#191970" stroke="#191970" points="802.4034,-181.7906 811.7948,-176.8862 801.3948,-174.8636 802.4034,-181.7906"/>
</g>
<!-- Node196825&#45;&gt;Node196548 -->
<g id="edge35" class="edge">
<title>Node196825&#45;&gt;Node196548</title>
<path fill="none" stroke="#191970" d="M397.4044,-719.9232C417.6728,-721.9992 442.1391,-724.5052 464.9409,-726.8407"/>
<polygon fill="#191970" stroke="#191970" points="464.6307,-730.3271 474.9353,-727.8643 465.344,-723.3635 464.6307,-730.3271"/>
</g>
<!-- Node196825&#45;&gt;Node196552 -->
<g id="edge37" class="edge">
<title>Node196825&#45;&gt;Node196552</title>
<path fill="none" stroke="#191970" d="M370.5365,-724.905C389.2862,-734.2806 419.7843,-747.9164 448,-753.3238 590.9518,-780.7199 638.5185,-785.9062 775,-735.3238 793.0311,-728.6412 793.9221,-720.1625 811,-711.3238 811.8174,-710.9007 812.6496,-710.4828 813.4931,-710.0704"/>
<polygon fill="#191970" stroke="#191970" points="815.1139,-713.1794 822.8046,-705.8921 812.2481,-706.7929 815.1139,-713.1794"/>
</g>
<!-- Node196825&#45;&gt;Node196590 -->
<g id="edge36" class="edge">
<title>Node196825&#45;&gt;Node196590</title>
<path fill="none" stroke="#191970" d="M397.1933,-712.9964C464.7639,-708.841 589.1685,-698.5183 628,-677.3238 735.4794,-618.6608 814.1562,-485.8138 840.4477,-436.8756"/>
<polygon fill="#191970" stroke="#191970" points="843.5558,-438.485 845.128,-428.0075 837.3651,-435.2177 843.5558,-438.485"/>
</g>
<!-- Node196968&#45;&gt;Node196534 -->
<g id="edge40" class="edge">
<title>Node196968&#45;&gt;Node196534</title>
<path fill="none" stroke="#191970" d="M221.6147,-857.8942C238.2417,-868.9327 266.9104,-887.2379 293,-900.3238 300.503,-904.0871 308.7447,-907.7146 316.6399,-910.96"/>
<polygon fill="#191970" stroke="#191970" points="315.4409,-914.2499 326.0256,-914.7127 318.0397,-907.7502 315.4409,-914.2499"/>
</g>
<!-- Node196968&#45;&gt;Node196582 -->
<g id="edge43" class="edge">
<title>Node196968&#45;&gt;Node196582</title>
<path fill="none" stroke="#191970" d="M257.1435,-847.0144C335.9309,-844.5936 494.3697,-838.3285 628,-824.3238 640.3617,-823.0283 653.6058,-821.2377 666.0709,-819.3694"/>
<polygon fill="#191970" stroke="#191970" points="666.971,-822.7721 676.3218,-817.7909 665.9056,-815.8536 666.971,-822.7721"/>
</g>
<!-- Node196645 -->
<g id="node28" class="node">
<title>Node196645</title>
<g id="a_node28"><a xlink:href="quickjs_8c.html#acd08798ec15cc37c60d2e7d70007c6a8" target="_top" xlink:title="__JS_NewAtom">
<polygon fill="none" stroke="#ff0000" points="675.5,-857.8238 675.5,-876.8238 763.5,-876.8238 763.5,-857.8238 675.5,-857.8238"/>
<text text-anchor="middle" x="719.5" y="-864.8238" font-family="Helvetica,sans-Serif" font-size="10.00" fill="#000000">__JS_NewAtom</text>
</a>
</g>
</g>
<!-- Node196968&#45;&gt;Node196645 -->
<g id="edge41" class="edge">
<title>Node196968&#45;&gt;Node196645</title>
<path fill="none" stroke="#191970" d="M257.0729,-857.738C268.8091,-859.6063 281.3121,-861.3042 293,-862.3238 426.258,-873.9483 583.8124,-871.6573 665.0251,-869.3011"/>
<polygon fill="#191970" stroke="#191970" points="665.6036,-872.7853 675.4932,-868.9846 665.392,-865.7885 665.6036,-872.7853"/>
</g>
<!-- Node196598 -->
<g id="node29" class="node">
<title>Node196598</title>
<g id="a_node29"><a xlink:href="quickjs_8c.html#a0ee6a3654a6016393fac5e1c108f403a" target="_top" xlink:title="JS_NewString">
<polygon fill="none" stroke="#ff0000" points="312.5,-800.8238 312.5,-819.8238 392.5,-819.8238 392.5,-800.8238 312.5,-800.8238"/>
<text text-anchor="middle" x="352.5" y="-807.8238" font-family="Helvetica,sans-Serif" font-size="10.00" fill="#000000">JS_NewString</text>
</a>
</g>
</g>
<!-- Node196968&#45;&gt;Node196598 -->
<g id="edge44" class="edge">
<title>Node196968&#45;&gt;Node196598</title>
<path fill="none" stroke="#191970" d="M244.0896,-838.7348C262.9654,-833.788 286.1859,-827.7027 306.2879,-822.4346"/>
<polygon fill="#191970" stroke="#191970" points="307.3875,-825.7647 316.1735,-819.8438 305.6129,-818.9933 307.3875,-825.7647"/>
</g>
<!-- Node196645&#45;&gt;Node196536 -->
<g id="edge42" class="edge">
<title>Node196645&#45;&gt;Node196536</title>
<path fill="none" stroke="#191970" d="M735.3858,-857.7426C769.1445,-836.5302 848.2614,-782.1468 889,-715.3238 941.214,-629.6777 965.2367,-509.5181 973.0156,-462.8906"/>
<polygon fill="#191970" stroke="#191970" points="976.4873,-463.3453 974.6152,-452.9172 969.5757,-462.2368 976.4873,-463.3453"/>
</g>
</g>
</svg>
        <g id="navigator" transform="translate(0 0)" fill="#404254">
                <rect fill="#f2f5e9" fill-opacity="0.5" stroke="#606060" stroke-width=".5" x="0" y="0" width="60" height="60"/>
                <use id="zoomplus" xlink:href="#zoomPlus" x="17" y="9" onmousedown="handleZoom(evt,'in')"/>
                <use id="zoomminus" xlink:href="#zoomMin" x="42" y="9" onmousedown="handleZoom(evt,'out')"/>
                <use id="reset" xlink:href="#resetDef" x="30" y="36" onmousedown="handleReset()"/>
                <g id="arrowUp" xlink:href="#dirArrow" transform="translate(30 24)" onmousedown="handlePan(0,-1)">
                  <use xlink:href="#rim" fill="#404040">
                        <set attributeName="fill" to="#808080" begin="arrowUp.mouseover" end="arrowUp.mouseout"/>
                  </use>
                  <path fill="none" stroke="white" stroke-width="1.5" d="M0,-3.0v7 M-2.5,-0.5L0,-3.0L2.5,-0.5"/>
                </g>
                <g id="arrowRight" xlink:href="#dirArrow" transform="rotate(90) translate(36 -43)" onmousedown="handlePan(1,0)">
                  <use xlink:href="#rim" fill="#404040">
                        <set attributeName="fill" to="#808080" begin="arrowRight.mouseover" end="arrowRight.mouseout"/>
                  </use>
                  <path fill="none" stroke="white" stroke-width="1.5" d="M0,-3.0v7 M-2.5,-0.5L0,-3.0L2.5,-0.5"/>
                </g>
                <g id="arrowDown" xlink:href="#dirArrow" transform="rotate(180) translate(-30 -48)" onmousedown="handlePan(0,1)">
                  <use xlink:href="#rim" fill="#404040">
                        <set attributeName="fill" to="#808080" begin="arrowDown.mouseover" end="arrowDown.mouseout"/>
                  </use>
                  <path fill="none" stroke="white" stroke-width="1.5" d="M0,-3.0v7 M-2.5,-0.5L0,-3.0L2.5,-0.5"/>
                </g>
                <g id="arrowLeft" xlink:href="#dirArrow" transform="rotate(270) translate(-36 17)" onmousedown="handlePan(-1,0)">
                  <use xlink:href="#rim" fill="#404040">
                        <set attributeName="fill" to="#808080" begin="arrowLeft.mouseover" end="arrowLeft.mouseout"/>
                  </use>
                  <path fill="none" stroke="white" stroke-width="1.5" d="M0,-3.0v7 M-2.5,-0.5L0,-3.0L2.5,-0.5"/>
                </g>
        </g>
        <svg viewBox="0 0 15 15" width="100%" height="30px" preserveAspectRatio="xMaxYMin meet">
         <g id="arrow_out" transform="scale(0.3 0.3)">
          <a xlink:href="quickjs_8c_a14674e74168715dc5a3a391910982e5d_cgraph_org.svg" target="_base">
           <rect id="button" ry="5" rx="5" y="6" x="6" height="38" width="38"
                fill="#f2f5e9" fill-opacity="0.5" stroke="#606060" stroke-width="1.0"/>
           <path id="arrow"
             d="M 11.500037,31.436501 C 11.940474,20.09759 22.043105,11.32322 32.158766,21.979434 L 37.068811,17.246167 C 37.068811,17.246167 37.088388,32 37.088388,32 L 22.160133,31.978069 C 22.160133,31.978069 26.997745,27.140456 26.997745,27.140456 C 18.528582,18.264221 13.291696,25.230495 11.500037,31.436501 z"
             style="fill:#404040;"/>
          </a>
         </g>
        </svg>
</svg>
