<?xml version="1.0" encoding="UTF-8" standalone="no"?>
<!DOCTYPE svg PUBLIC "-//W3C//DTD SVG 1.1//EN"
 "http://www.w3.org/Graphics/SVG/1.1/DTD/svg11.dtd">
<!-- Generated by graphviz version 2.40.1 (20161225.0304)
 -->
<!-- Title: js_realloc_array Pages: 1 -->
<!--zoomable 815 -->
<svg id="main" version="1.1" xmlns="http://www.w3.org/2000/svg" xmlns:xlink="http://www.w3.org/1999/xlink" xml:space="preserve" onload="init(evt)">
<style type="text/css"><![CDATA[
.edge:hover path { stroke: red; }
.edge:hover polygon { stroke: red; fill: red; }
]]></style>
<script type="text/javascript"><![CDATA[
var edges = document.getElementsByTagName('g');
if (edges && edges.length) {
  for (var i=0;i<edges.length;i++) {
    if (edges[i].id.substr(0,4)=='edge') {
      edges[i].setAttribute('class','edge');
    }
  }
}
]]></script>
        <defs>
                <circle id="rim" cx="0" cy="0" r="7"/>
                <circle id="rim2" cx="0" cy="0" r="3.5"/>
                <g id="zoomPlus">
                        <use xlink:href="#rim" fill="#404040">
                                <set attributeName="fill" to="#808080" begin="zoomplus.mouseover" end="zoomplus.mouseout"/>
                        </use>
                        <path d="M-4,0h8M0,-4v8" fill="none" stroke="white" stroke-width="1.5" pointer-events="none"/>
                </g>
                <g id="zoomMin">
                        <use xlink:href="#rim" fill="#404040">
                                <set attributeName="fill" to="#808080" begin="zoomminus.mouseover" end="zoomminus.mouseout"/>
                        </use>
                        <path d="M-4,0h8" fill="none" stroke="white" stroke-width="1.5" pointer-events="none"/>
                </g>
                <g id="dirArrow">
                        <path fill="none" stroke="white" stroke-width="1.5" d="M0,-3.0v7 M-2.5,-0.5L0,-3.0L2.5,-0.5"/>
                </g>
               <g id="resetDef">
                       <use xlink:href="#rim2" fill="#404040">
                               <set attributeName="fill" to="#808080" begin="reset.mouseover" end="reset.mouseout"/>
                       </use>
               </g>
        </defs>

<script type="text/javascript">
var viewWidth = 950;
var viewHeight = 815;
var sectionId = 'dynsection-156';
</script>
<script xlink:href="svgpan.js"/>
<svg id="graph" class="graph">
<g id="viewport">
<title>js_realloc_array</title>
<!-- Node58336 -->
<g id="node1" class="node">
<title>Node58336</title>
<polygon fill="#bfbfbf" stroke="#000000" points="0,-246.5 0,-265.5 85,-265.5 85,-246.5 0,-246.5"/>
<text text-anchor="middle" x="42.5" y="-253.5" font-family="Helvetica,sans-Serif" font-size="10.00" fill="#000000">js_realloc_array</text>
</g>
<!-- Node58337 -->
<g id="node2" class="node">
<title>Node58337</title>
<g id="a_node2"><a xlink:href="quickjs_8c.html#afa610f3175e9cb11fdceac95071099b5" target="_top" xlink:title="js_resize_array">
<polygon fill="none" stroke="#000000" points="121,-246.5 121,-265.5 204,-265.5 204,-246.5 121,-246.5"/>
<text text-anchor="middle" x="162.5" y="-253.5" font-family="Helvetica,sans-Serif" font-size="10.00" fill="#000000">js_resize_array</text>
</a>
</g>
</g>
<!-- Node58336&#45;&gt;Node58337 -->
<g id="edge1" class="edge">
<title>Node58336&#45;&gt;Node58337</title>
<path fill="none" stroke="#191970" d="M95.3834,-256C103.8939,-256 112.5982,-256 120.7982,-256"/>
<polygon fill="#191970" stroke="#191970" points="95.1454,-252.5001 85.1454,-256 95.1454,-259.5001 95.1454,-252.5001"/>
</g>
<!-- Node58338 -->
<g id="node3" class="node">
<title>Node58338</title>
<g id="a_node3"><a xlink:href="quickjs_8c.html#ab2e0855c4317f8e3b05c0a091bc43a29" target="_top" xlink:title="add_var">
<polygon fill="none" stroke="#000000" points="283,-427.5 283,-446.5 334,-446.5 334,-427.5 283,-427.5"/>
<text text-anchor="middle" x="308.5" y="-434.5" font-family="Helvetica,sans-Serif" font-size="10.00" fill="#000000">add_var</text>
</a>
</g>
</g>
<!-- Node58337&#45;&gt;Node58338 -->
<g id="edge2" class="edge">
<title>Node58337&#45;&gt;Node58338</title>
<path fill="none" stroke="#191970" d="M176.8447,-273.7835C207.2037,-311.4203 277.0916,-398.0622 300.6116,-427.2205"/>
<polygon fill="#191970" stroke="#191970" points="179.3522,-271.3174 170.3496,-265.7313 173.9038,-275.7123 179.3522,-271.3174"/>
</g>
<!-- Node58388 -->
<g id="node16" class="node">
<title>Node58388</title>
<g id="a_node16"><a xlink:href="quickjs_8c.html#aff573513d994f4e9ad7b0430c03ddc3d" target="_top" xlink:title="add_arg">
<polygon fill="none" stroke="#000000" points="581,-655.5 581,-674.5 632,-674.5 632,-655.5 581,-655.5"/>
<text text-anchor="middle" x="606.5" y="-662.5" font-family="Helvetica,sans-Serif" font-size="10.00" fill="#000000">add_arg</text>
</a>
</g>
</g>
<!-- Node58337&#45;&gt;Node58388 -->
<g id="edge25" class="edge">
<title>Node58337&#45;&gt;Node58388</title>
<path fill="none" stroke="#191970" d="M167.3597,-275.6606C185.4635,-343.9668 256.1697,-571.0554 413,-649 467.7873,-676.2293 542.1524,-672.8908 580.7953,-668.6417"/>
<polygon fill="#191970" stroke="#191970" points="170.6997,-274.5954 164.8194,-265.7822 163.9202,-276.3388 170.6997,-274.5954"/>
</g>
<!-- Node58389 -->
<g id="node17" class="node">
<title>Node58389</title>
<g id="a_node17"><a xlink:href="quickjs_8c.html#ae7344d4ed92b31de7c7ef8716b911cb8" target="_top" xlink:title="add_global_var">
<polygon fill="none" stroke="#000000" points="423,-256.5 423,-275.5 505,-275.5 505,-256.5 423,-256.5"/>
<text text-anchor="middle" x="464" y="-263.5" font-family="Helvetica,sans-Serif" font-size="10.00" fill="#000000">add_global_var</text>
</a>
</g>
</g>
<!-- Node58337&#45;&gt;Node58389 -->
<g id="edge27" class="edge">
<title>Node58337&#45;&gt;Node58389</title>
<path fill="none" stroke="#191970" d="M178.5721,-272.6934C193.1168,-286.5046 215.8981,-305.0911 240,-313 297.8537,-331.9843 318.5547,-330.0763 377,-313 395.2247,-307.6752 396.3759,-299.1723 413,-290 422.3391,-284.8472 432.9711,-279.7314 442.102,-275.5552"/>
<polygon fill="#191970" stroke="#191970" points="180.9627,-270.1353 171.383,-265.6098 176.0497,-275.1216 180.9627,-270.1353"/>
</g>
<!-- Node58390 -->
<g id="node18" class="node">
<title>Node58390</title>
<g id="a_node18"><a xlink:href="quickjs_8c.html#ad5cccb20d07c9e601482d5b2398c2f55" target="_top" xlink:title="add_req_module_entry">
<polygon fill="none" stroke="#000000" points="251,-284.5 251,-303.5 366,-303.5 366,-284.5 251,-284.5"/>
<text text-anchor="middle" x="308.5" y="-291.5" font-family="Helvetica,sans-Serif" font-size="10.00" fill="#000000">add_req_module_entry</text>
</a>
</g>
</g>
<!-- Node58337&#45;&gt;Node58390 -->
<g id="edge30" class="edge">
<title>Node58337&#45;&gt;Node58390</title>
<path fill="none" stroke="#191970" d="M209.036,-268.1121C229.3696,-273.4044 252.8713,-279.5213 271.923,-284.4799"/>
<polygon fill="#191970" stroke="#191970" points="209.9012,-264.7207 199.342,-265.589 208.1379,-271.4951 209.9012,-264.7207"/>
</g>
<!-- Node58392 -->
<g id="node20" class="node">
<title>Node58392</title>
<g id="a_node20"><a xlink:href="quickjs_8c.html#aaea4bacf94d0db93f4a13f6e88860ad0" target="_top" xlink:title="add_export_entry2">
<polygon fill="none" stroke="#000000" points="415.5,-712.5 415.5,-731.5 512.5,-731.5 512.5,-712.5 415.5,-712.5"/>
<text text-anchor="middle" x="464" y="-719.5" font-family="Helvetica,sans-Serif" font-size="10.00" fill="#000000">add_export_entry2</text>
</a>
</g>
</g>
<!-- Node58337&#45;&gt;Node58392 -->
<g id="edge33" class="edge">
<title>Node58337&#45;&gt;Node58392</title>
<path fill="none" stroke="#191970" d="M162.9477,-276.0805C165.1395,-354.6002 177.356,-639.4091 240,-698 287.5601,-742.4829 368.0087,-739.2555 418.4467,-731.5618"/>
<polygon fill="#191970" stroke="#191970" points="166.4364,-275.5856 162.684,-265.6775 159.4387,-275.763 166.4364,-275.5856"/>
</g>
<!-- Node58399 -->
<g id="node23" class="node">
<title>Node58399</title>
<g id="a_node23"><a xlink:href="quickjs_8c.html#a18dd9d3b970d353bfd39b504d8102ab7" target="_top" xlink:title="add_star_export_entry">
<polygon fill="none" stroke="#000000" points="702.5,-740.5 702.5,-759.5 815.5,-759.5 815.5,-740.5 702.5,-740.5"/>
<text text-anchor="middle" x="759" y="-747.5" font-family="Helvetica,sans-Serif" font-size="10.00" fill="#000000">add_star_export_entry</text>
</a>
</g>
</g>
<!-- Node58337&#45;&gt;Node58399 -->
<g id="edge38" class="edge">
<title>Node58337&#45;&gt;Node58399</title>
<path fill="none" stroke="#191970" d="M164.3081,-275.7831C172.342,-361.6512 205.9122,-699.1789 240,-731 380.5522,-862.2063 647.0774,-788.005 732.1731,-759.564"/>
<polygon fill="#191970" stroke="#191970" points="167.7716,-275.2262 163.3645,-265.5915 160.8014,-275.8716 167.7716,-275.2262"/>
</g>
<!-- Node58400 -->
<g id="node24" class="node">
<title>Node58400</title>
<g id="a_node24"><a xlink:href="quickjs_8c.html#ade1e452957ebf589907635cc79718d16" target="_top" xlink:title="add_resolve_entry">
<polygon fill="none" stroke="#ff0000" points="260.5,-208.5 260.5,-227.5 356.5,-227.5 356.5,-208.5 260.5,-208.5"/>
<text text-anchor="middle" x="308.5" y="-215.5" font-family="Helvetica,sans-Serif" font-size="10.00" fill="#000000">add_resolve_entry</text>
</a>
</g>
</g>
<!-- Node58337&#45;&gt;Node58400 -->
<g id="edge40" class="edge">
<title>Node58337&#45;&gt;Node58400</title>
<path fill="none" stroke="#191970" d="M209.036,-243.8879C229.3696,-238.5956 252.8713,-232.4787 271.923,-227.5201"/>
<polygon fill="#191970" stroke="#191970" points="208.1379,-240.5049 199.342,-246.411 209.9012,-247.2793 208.1379,-240.5049"/>
</g>
<!-- Node58972 -->
<g id="node25" class="node">
<title>Node58972</title>
<g id="a_node25"><a xlink:href="quickjs_8c.html#a51fe964c0b48eb3191aec8c98e73e4c6" target="_top" xlink:title="get_exported_names">
<polygon fill="none" stroke="#ff0000" points="255,-152.5 255,-171.5 362,-171.5 362,-152.5 255,-152.5"/>
<text text-anchor="middle" x="308.5" y="-159.5" font-family="Helvetica,sans-Serif" font-size="10.00" fill="#000000">get_exported_names</text>
</a>
</g>
</g>
<!-- Node58337&#45;&gt;Node58972 -->
<g id="edge41" class="edge">
<title>Node58337&#45;&gt;Node58972</title>
<path fill="none" stroke="#191970" d="M182.694,-239.9444C198.0229,-228.057 219.8316,-211.7769 240,-199 256.0993,-188.8009 275.2444,-178.6125 289.1962,-171.5169"/>
<polygon fill="#191970" stroke="#191970" points="180.195,-237.4557 174.4787,-246.3762 184.5102,-242.9675 180.195,-237.4557"/>
</g>
<!-- Node58973 -->
<g id="node26" class="node">
<title>Node58973</title>
<g id="a_node26"><a xlink:href="quickjs_8c.html#a3ff40fe185637ba5525078d1cbedbefa" target="_top" xlink:title="add_import">
<polygon fill="none" stroke="#000000" points="276,-246.5 276,-265.5 341,-265.5 341,-246.5 276,-246.5"/>
<text text-anchor="middle" x="308.5" y="-253.5" font-family="Helvetica,sans-Serif" font-size="10.00" fill="#000000">add_import</text>
</a>
</g>
</g>
<!-- Node58337&#45;&gt;Node58973 -->
<g id="edge43" class="edge">
<title>Node58337&#45;&gt;Node58973</title>
<path fill="none" stroke="#191970" d="M214.4791,-256C234.9645,-256 257.8643,-256 275.9349,-256"/>
<polygon fill="#191970" stroke="#191970" points="214.3378,-252.5001 204.3377,-256 214.3377,-259.5001 214.3378,-252.5001"/>
</g>
<!-- Node58974 -->
<g id="node27" class="node">
<title>Node58974</title>
<g id="a_node27"><a xlink:href="quickjs_8c.html#a9f64fb61a20cee1cad0eb2680624e341" target="_top" xlink:title="add_closure_var">
<polygon fill="none" stroke="#ff0000" points="264.5,-114.5 264.5,-133.5 352.5,-133.5 352.5,-114.5 264.5,-114.5"/>
<text text-anchor="middle" x="308.5" y="-121.5" font-family="Helvetica,sans-Serif" font-size="10.00" fill="#000000">add_closure_var</text>
</a>
</g>
</g>
<!-- Node58337&#45;&gt;Node58974 -->
<g id="edge45" class="edge">
<title>Node58337&#45;&gt;Node58974</title>
<path fill="none" stroke="#191970" d="M170.3627,-237.2035C181.8947,-211.9491 205.7992,-167.4216 240,-143 247.2314,-137.8363 255.8136,-134.0743 264.4148,-131.3339"/>
<polygon fill="#191970" stroke="#191970" points="167.1222,-235.878 166.3062,-246.4413 173.5315,-238.6925 167.1222,-235.878"/>
</g>
<!-- Node58978 -->
<g id="node28" class="node">
<title>Node58978</title>
<g id="a_node28"><a xlink:href="quickjs_8c.html#ae45b122556638f15e903dc36708dbe20" target="_top" xlink:title="ss_check">
<polygon fill="none" stroke="#ff0000" points="279,-76.5 279,-95.5 338,-95.5 338,-76.5 279,-76.5"/>
<text text-anchor="middle" x="308.5" y="-83.5" font-family="Helvetica,sans-Serif" font-size="10.00" fill="#000000">ss_check</text>
</a>
</g>
</g>
<!-- Node58337&#45;&gt;Node58978 -->
<g id="edge46" class="edge">
<title>Node58337&#45;&gt;Node58978</title>
<path fill="none" stroke="#191970" d="M167.1746,-236.1013C175.8354,-203.6852 197.4928,-139.6271 240,-105 250.908,-96.1142 265.6848,-91.3746 278.7217,-88.8505"/>
<polygon fill="#191970" stroke="#191970" points="163.6927,-235.5952 164.6403,-246.1476 170.4801,-237.3075 163.6927,-235.5952"/>
</g>
<!-- Node58980 -->
<g id="node29" class="node">
<title>Node58980</title>
<g id="a_node29"><a xlink:href="quickjs_8c.html#abe9790a1548fcb007a2c864356f71ef5" target="_top" xlink:title="bc_atom_to_idx">
<polygon fill="none" stroke="#ff0000" points="265.5,-38.5 265.5,-57.5 351.5,-57.5 351.5,-38.5 265.5,-38.5"/>
<text text-anchor="middle" x="308.5" y="-45.5" font-family="Helvetica,sans-Serif" font-size="10.00" fill="#000000">bc_atom_to_idx</text>
</a>
</g>
</g>
<!-- Node58337&#45;&gt;Node58980 -->
<g id="edge47" class="edge">
<title>Node58337&#45;&gt;Node58980</title>
<path fill="none" stroke="#191970" d="M164.8882,-236.1134C170.5857,-197.6109 188.5705,-112.6663 240,-67 247.1059,-60.6904 256.1343,-56.4575 265.2858,-53.6229"/>
<polygon fill="#191970" stroke="#191970" points="161.3586,-236.0986 163.4911,-246.4766 168.2959,-237.0339 161.3586,-236.0986"/>
</g>
<!-- Node58983 -->
<g id="node30" class="node">
<title>Node58983</title>
<g id="a_node30"><a xlink:href="quickjs_8c.html#a7d118830f69bffb6590c82bd3c077ac5" target="_top" xlink:title="JS_WriteSharedArrayBuffer">
<polygon fill="none" stroke="#ff0000" points="240,-.5 240,-19.5 377,-19.5 377,-.5 240,-.5"/>
<text text-anchor="middle" x="308.5" y="-7.5" font-family="Helvetica,sans-Serif" font-size="10.00" fill="#000000">JS_WriteSharedArrayBuffer</text>
</a>
</g>
</g>
<!-- Node58337&#45;&gt;Node58983 -->
<g id="edge48" class="edge">
<title>Node58337&#45;&gt;Node58983</title>
<path fill="none" stroke="#191970" d="M166.7249,-236.4073C177.7819,-186.8494 208.8741,-58.3583 240,-29 244.1298,-25.1047 248.9872,-21.9958 254.1773,-19.5165"/>
<polygon fill="#191970" stroke="#191970" points="163.2422,-235.9492 164.5152,-246.4672 170.0792,-237.451 163.2422,-235.9492"/>
</g>
<!-- Node58339 -->
<g id="node4" class="node">
<title>Node58339</title>
<g id="a_node4"><a xlink:href="quickjs_8c.html#a9a006fc2eb9bbbc399c396d7a1e8d18b" target="_top" xlink:title="add_scope_var">
<polygon fill="none" stroke="#ff0000" points="422.5,-218.5 422.5,-237.5 505.5,-237.5 505.5,-218.5 422.5,-218.5"/>
<text text-anchor="middle" x="464" y="-225.5" font-family="Helvetica,sans-Serif" font-size="10.00" fill="#000000">add_scope_var</text>
</a>
</g>
</g>
<!-- Node58338&#45;&gt;Node58339 -->
<g id="edge3" class="edge">
<title>Node58338&#45;&gt;Node58339</title>
<path fill="none" stroke="#191970" d="M318.7382,-418.5395C332.1562,-394.3288 356.4048,-350.5186 377,-313 393.0784,-283.7096 387.7488,-268.8819 413,-247 417.4272,-243.1636 422.7013,-240.0709 428.1525,-237.5869"/>
<polygon fill="#191970" stroke="#191970" points="315.6343,-416.9198 313.8467,-427.3627 321.7565,-420.3138 315.6343,-416.9198"/>
</g>
<!-- Node58340 -->
<g id="node5" class="node">
<title>Node58340</title>
<g id="a_node5"><a xlink:href="quickjs_8c.html#a99125693fff3fd8277f544b15109354b" target="_top" xlink:title="define_var">
<polygon fill="none" stroke="#ff0000" points="575.5,-294.5 575.5,-313.5 637.5,-313.5 637.5,-294.5 575.5,-294.5"/>
<text text-anchor="middle" x="606.5" y="-301.5" font-family="Helvetica,sans-Serif" font-size="10.00" fill="#000000">define_var</text>
</a>
</g>
</g>
<!-- Node58338&#45;&gt;Node58340 -->
<g id="edge16" class="edge">
<title>Node58338&#45;&gt;Node58340</title>
<path fill="none" stroke="#191970" d="M319.0138,-418.8835C335.3662,-392.607 369.5768,-344.6962 413,-323 465.39,-296.8236 535.6462,-297.4014 575.4875,-300.4923"/>
<polygon fill="#191970" stroke="#191970" points="315.9858,-417.1271 313.8133,-427.4969 321.9783,-420.7453 315.9858,-417.1271"/>
</g>
<!-- Node58346 -->
<g id="node6" class="node">
<title>Node58346</title>
<g id="a_node6"><a xlink:href="quickjs_8c.html#a9d844c16dcc71701436848074337d32c" target="_top" xlink:title="js_parse_statement\l_or_decl">
<polygon fill="none" stroke="#ff0000" points="708,-349 708,-379 810,-379 810,-349 708,-349"/>
<text text-anchor="start" x="716" y="-367" font-family="Helvetica,sans-Serif" font-size="10.00" fill="#000000">js_parse_statement</text>
<text text-anchor="middle" x="759" y="-356" font-family="Helvetica,sans-Serif" font-size="10.00" fill="#000000">_or_decl</text>
</a>
</g>
</g>
<!-- Node58338&#45;&gt;Node58346 -->
<g id="edge17" class="edge">
<title>Node58338&#45;&gt;Node58346</title>
<path fill="none" stroke="#191970" d="M344.0058,-431.2466C423.4115,-418.3795 615.6014,-387.2366 707.8819,-372.2833"/>
<polygon fill="#191970" stroke="#191970" points="343.323,-427.8115 334.0116,-432.866 344.4427,-434.7213 343.323,-427.8115"/>
</g>
<!-- Node58351 -->
<g id="node8" class="node">
<title>Node58351</title>
<g id="a_node8"><a xlink:href="quickjs_8c.html#acc9eb677cab8dfcf45f59381f8a19601" target="_top" xlink:title="js_parse_function_decl2">
<polygon fill="none" stroke="#ff0000" points="698,-617.5 698,-636.5 820,-636.5 820,-617.5 698,-617.5"/>
<text text-anchor="middle" x="759" y="-624.5" font-family="Helvetica,sans-Serif" font-size="10.00" fill="#000000">js_parse_function_decl2</text>
</a>
</g>
</g>
<!-- Node58338&#45;&gt;Node58351 -->
<g id="edge23" class="edge">
<title>Node58338&#45;&gt;Node58351</title>
<path fill="none" stroke="#191970" d="M312.4884,-456.9042C321.8249,-497.5332 349.3158,-589.3454 413,-627 459.5365,-654.5157 611.6882,-643.3374 697.9267,-634.2753"/>
<polygon fill="#191970" stroke="#191970" points="315.8572,-455.9231 310.3215,-446.8895 309.0155,-457.4036 315.8572,-455.9231"/>
</g>
<!-- Node58379 -->
<g id="node9" class="node">
<title>Node58379</title>
<g id="a_node9"><a xlink:href="quickjs_8c.html#afe834031fad358f2fbd7d71cfe8ac19c" target="_top" xlink:title="add_func_var">
<polygon fill="none" stroke="#ff0000" points="426.5,-598.5 426.5,-617.5 501.5,-617.5 501.5,-598.5 426.5,-598.5"/>
<text text-anchor="middle" x="464" y="-605.5" font-family="Helvetica,sans-Serif" font-size="10.00" fill="#000000">add_func_var</text>
</a>
</g>
</g>
<!-- Node58338&#45;&gt;Node58379 -->
<g id="edge10" class="edge">
<title>Node58338&#45;&gt;Node58379</title>
<path fill="none" stroke="#191970" d="M316.9226,-456.2102C331.8346,-488.1232 365.8177,-552.1873 413,-589 417.9167,-592.8361 423.688,-595.9571 429.5465,-598.4767"/>
<polygon fill="#191970" stroke="#191970" points="319.9276,-454.3629 312.605,-446.7059 313.5544,-457.2581 319.9276,-454.3629"/>
</g>
<!-- Node58383 -->
<g id="node10" class="node">
<title>Node58383</title>
<g id="a_node10"><a xlink:href="quickjs_8c.html#a3d84c0bab25b37dbac0b6f3aa7b93e59" target="_top" xlink:title="add_eval_variables">
<polygon fill="none" stroke="#ff0000" points="556.5,-522.5 556.5,-541.5 656.5,-541.5 656.5,-522.5 556.5,-522.5"/>
<text text-anchor="middle" x="606.5" y="-529.5" font-family="Helvetica,sans-Serif" font-size="10.00" fill="#000000">add_eval_variables</text>
</a>
</g>
</g>
<!-- Node58338&#45;&gt;Node58383 -->
<g id="edge22" class="edge">
<title>Node58338&#45;&gt;Node58383</title>
<path fill="none" stroke="#191970" d="M343.1223,-450.2039C363.3819,-457.7759 389.5174,-467.2801 413,-475 468.0606,-493.1012 532.8014,-511.6208 571.694,-522.4526"/>
<polygon fill="#191970" stroke="#191970" points="344.2781,-446.8993 333.686,-446.6581 341.8159,-453.452 344.2781,-446.8993"/>
</g>
<!-- Node58384 -->
<g id="node11" class="node">
<title>Node58384</title>
<g id="a_node11"><a xlink:href="quickjs_8c.html#a868100a32a3062ab6365985bb5c02b7d" target="_top" xlink:title="add_arguments_var">
<polygon fill="none" stroke="#ff0000" points="413,-560.5 413,-579.5 515,-579.5 515,-560.5 413,-560.5"/>
<text text-anchor="middle" x="464" y="-567.5" font-family="Helvetica,sans-Serif" font-size="10.00" fill="#000000">add_arguments_var</text>
</a>
</g>
</g>
<!-- Node58338&#45;&gt;Node58384 -->
<g id="edge12" class="edge">
<title>Node58338&#45;&gt;Node58384</title>
<path fill="none" stroke="#191970" d="M320.8487,-455.1395C338.5822,-479.9461 373.5077,-524.401 413,-551 418.5642,-554.7476 424.9649,-557.8779 431.3101,-560.4451"/>
<polygon fill="#191970" stroke="#191970" points="323.5229,-452.8566 314.9202,-446.6724 317.7887,-456.8715 323.5229,-452.8566"/>
</g>
<!-- Node58385 -->
<g id="node12" class="node">
<title>Node58385</title>
<g id="a_node12"><a xlink:href="quickjs_8c.html#a2bfa1a7eb92eca442a25cf6726a0b19d" target="_top" xlink:title="add_arguments_arg">
<polygon fill="none" stroke="#000000" points="413,-522.5 413,-541.5 515,-541.5 515,-522.5 413,-522.5"/>
<text text-anchor="middle" x="464" y="-529.5" font-family="Helvetica,sans-Serif" font-size="10.00" fill="#000000">add_arguments_arg</text>
</a>
</g>
</g>
<!-- Node58338&#45;&gt;Node58385 -->
<g id="edge14" class="edge">
<title>Node58338&#45;&gt;Node58385</title>
<path fill="none" stroke="#191970" d="M329.3357,-452.5926C349.9904,-467.7005 382.8251,-490.7905 413,-508 422.1803,-513.2358 432.6916,-518.3253 441.777,-522.4602"/>
<polygon fill="#191970" stroke="#191970" points="331.3984,-449.7649 321.2727,-446.6469 327.2439,-455.3988 331.3984,-449.7649"/>
</g>
<!-- Node58386 -->
<g id="node13" class="node">
<title>Node58386</title>
<g id="a_node13"><a xlink:href="quickjs_8c.html#a237c9785e84b9382c476ee0868edb117" target="_top" xlink:title="add_var_this">
<polygon fill="none" stroke="#000000" points="428,-446.5 428,-465.5 500,-465.5 500,-446.5 428,-446.5"/>
<text text-anchor="middle" x="464" y="-453.5" font-family="Helvetica,sans-Serif" font-size="10.00" fill="#000000">add_var_this</text>
</a>
</g>
</g>
<!-- Node58338&#45;&gt;Node58386 -->
<g id="edge18" class="edge">
<title>Node58338&#45;&gt;Node58386</title>
<path fill="none" stroke="#191970" d="M344.3548,-441.381C369.3943,-444.4405 402.6995,-448.5099 427.8119,-451.5783"/>
<polygon fill="#191970" stroke="#191970" points="344.5284,-437.8762 334.1777,-440.1375 343.6793,-444.8246 344.5284,-437.8762"/>
</g>
<!-- Node58387 -->
<g id="node14" class="node">
<title>Node58387</title>
<g id="a_node14"><a xlink:href="quickjs_8c.html#a0b2f53f86b03dc687031b5092d8069cf" target="_top" xlink:title="resolve_pseudo_var">
<polygon fill="none" stroke="#ff0000" points="554.5,-427.5 554.5,-446.5 658.5,-446.5 658.5,-427.5 554.5,-427.5"/>
<text text-anchor="middle" x="606.5" y="-434.5" font-family="Helvetica,sans-Serif" font-size="10.00" fill="#000000">resolve_pseudo_var</text>
</a>
</g>
</g>
<!-- Node58338&#45;&gt;Node58387 -->
<g id="edge21" class="edge">
<title>Node58338&#45;&gt;Node58387</title>
<path fill="none" stroke="#191970" d="M344.2949,-437C396.5535,-437 494.0516,-437 554.3064,-437"/>
<polygon fill="#191970" stroke="#191970" points="344.1653,-433.5001 334.1652,-437 344.1652,-440.5001 344.1653,-433.5001"/>
</g>
<!-- Node58356 -->
<g id="node15" class="node">
<title>Node58356</title>
<g id="a_node15"><a xlink:href="quickjs_8c.html#aec05caae64451720670d1a56040110b3" target="_top" xlink:title="js_parse_program">
<polygon fill="none" stroke="#ff0000" points="417,-332.5 417,-351.5 511,-351.5 511,-332.5 417,-332.5"/>
<text text-anchor="middle" x="464" y="-339.5" font-family="Helvetica,sans-Serif" font-size="10.00" fill="#000000">js_parse_program</text>
</a>
</g>
</g>
<!-- Node58338&#45;&gt;Node58356 -->
<g id="edge24" class="edge">
<title>Node58338&#45;&gt;Node58356</title>
<path fill="none" stroke="#191970" d="M329.3357,-421.4074C349.9904,-406.2995 382.8251,-383.2095 413,-366 422.1803,-360.7642 432.6916,-355.6747 441.777,-351.5398"/>
<polygon fill="#191970" stroke="#191970" points="327.2439,-418.6012 321.2727,-427.3531 331.3984,-424.2351 327.2439,-418.6012"/>
</g>
<!-- Node58339&#45;&gt;Node58340 -->
<g id="edge4" class="edge">
<title>Node58339&#45;&gt;Node58340</title>
<path fill="none" stroke="#191970" d="M502.2368,-241.2859C506.5958,-243.0821 510.9311,-244.9999 515,-247 544.0572,-261.2833 575.628,-282.2926 593.0453,-294.4144"/>
<polygon fill="#191970" stroke="#191970" points="503.3383,-237.9584 492.7508,-237.5636 500.7813,-244.4747 503.3383,-237.9584"/>
</g>
<!-- Node58340&#45;&gt;Node58346 -->
<g id="edge5" class="edge">
<title>Node58340&#45;&gt;Node58346</title>
<path fill="none" stroke="#191970" d="M640,-317.1803C663.8174,-326.5511 695.8564,-339.1566 720.6901,-348.9272"/>
<polygon fill="#191970" stroke="#191970" points="641.2512,-313.9115 630.6641,-313.5072 638.6883,-320.4255 641.2512,-313.9115"/>
</g>
<!-- Node58353 -->
<g id="node7" class="node">
<title>Node58353</title>
<g id="a_node7"><a xlink:href="quickjs_8c.html#a498e1d5c7de1b59c1630e9847cde1e41" target="_top" xlink:title="js_parse_export">
<polygon fill="none" stroke="#ff0000" points="856,-617.5 856,-636.5 942,-636.5 942,-617.5 856,-617.5"/>
<text text-anchor="middle" x="899" y="-624.5" font-family="Helvetica,sans-Serif" font-size="10.00" fill="#000000">js_parse_export</text>
</a>
</g>
</g>
<!-- Node58340&#45;&gt;Node58353 -->
<g id="edge7" class="edge">
<title>Node58340&#45;&gt;Node58353</title>
<path fill="none" stroke="#191970" d="M647.9803,-298.6183C695.5545,-294.9003 773.0189,-296.7198 820,-339 863.4524,-378.1046 891.651,-571.7809 897.7535,-617.3753"/>
<polygon fill="#191970" stroke="#191970" points="647.3709,-295.159 637.7252,-299.5418 647.9988,-302.1307 647.3709,-295.159"/>
</g>
<!-- Node58340&#45;&gt;Node58351 -->
<g id="edge8" class="edge">
<title>Node58340&#45;&gt;Node58351</title>
<path fill="none" stroke="#191970" d="M646.7236,-316.4121C652.3946,-319.5 657.7349,-323.3118 662,-328 682.841,-350.9086 742.99,-568.285 756.3501,-617.2404"/>
<polygon fill="#191970" stroke="#191970" points="648.1843,-313.2313 637.6465,-312.1334 645.1997,-319.5631 648.1843,-313.2313"/>
</g>
<!-- Node58346&#45;&gt;Node58346 -->
<g id="edge6" class="edge">
<title>Node58346&#45;&gt;Node58346</title>
<path fill="none" stroke="#191970" d="M734.1237,-389.4579C737.2112,-394.179 745.5033,-397.5 759,-397.5 781.1484,-397.5 789.2811,-388.5566 783.3979,-379.159"/>
<polygon fill="#191970" stroke="#191970" points="737.6342,-389.3107 734.6021,-379.159 730.6418,-388.9858 737.6342,-389.3107"/>
</g>
<!-- Node58351&#45;&gt;Node58353 -->
<g id="edge9" class="edge">
<title>Node58351&#45;&gt;Node58353</title>
<path fill="none" stroke="#191970" d="M830.497,-627C839.1078,-627 847.6883,-627 855.7172,-627"/>
<polygon fill="#191970" stroke="#191970" points="830.4061,-623.5001 820.406,-627 830.406,-630.5001 830.4061,-623.5001"/>
</g>
<!-- Node58379&#45;&gt;Node58383 -->
<g id="edge11" class="edge">
<title>Node58379&#45;&gt;Node58383</title>
<path fill="none" stroke="#191970" d="M502.2368,-594.7141C506.5958,-592.9179 510.9311,-591.0001 515,-589 544.0572,-574.7167 575.628,-553.7074 593.0453,-541.5856"/>
<polygon fill="#191970" stroke="#191970" points="500.7813,-591.5253 492.7508,-598.4364 503.3383,-598.0416 500.7813,-591.5253"/>
</g>
<!-- Node58384&#45;&gt;Node58383 -->
<g id="edge13" class="edge">
<title>Node58384&#45;&gt;Node58383</title>
<path fill="none" stroke="#191970" d="M509.6531,-557.8258C529.3577,-552.5713 552.0747,-546.5134 570.5527,-541.5859"/>
<polygon fill="#191970" stroke="#191970" points="508.7193,-554.4525 499.9588,-560.411 510.523,-561.2161 508.7193,-554.4525"/>
</g>
<!-- Node58385&#45;&gt;Node58383 -->
<g id="edge15" class="edge">
<title>Node58385&#45;&gt;Node58383</title>
<path fill="none" stroke="#191970" d="M525.2679,-532C535.6214,-532 546.2618,-532 556.2911,-532"/>
<polygon fill="#191970" stroke="#191970" points="525.0433,-528.5001 515.0433,-532 525.0432,-535.5001 525.0433,-528.5001"/>
</g>
<!-- Node58386&#45;&gt;Node58383 -->
<g id="edge20" class="edge">
<title>Node58386&#45;&gt;Node58383</title>
<path fill="none" stroke="#191970" d="M494.7755,-470.0152C501.4889,-473.2021 508.5211,-476.6409 515,-480 541.9267,-493.9607 572.4059,-511.6806 590.5086,-522.4145"/>
<polygon fill="#191970" stroke="#191970" points="495.81,-466.635 485.2694,-465.5647 492.842,-472.9746 495.81,-466.635"/>
</g>
<!-- Node58386&#45;&gt;Node58387 -->
<g id="edge19" class="edge">
<title>Node58386&#45;&gt;Node58387</title>
<path fill="none" stroke="#191970" d="M510.2806,-449.8293C524.3627,-447.9516 539.9344,-445.8754 554.3744,-443.9501"/>
<polygon fill="#191970" stroke="#191970" points="509.7772,-446.3653 500.3275,-451.1563 510.7024,-453.3039 509.7772,-446.3653"/>
</g>
<!-- Node58388&#45;&gt;Node58351 -->
<g id="edge26" class="edge">
<title>Node58388&#45;&gt;Node58351</title>
<path fill="none" stroke="#191970" d="M641.9814,-656.1587C665.607,-650.2717 696.6293,-642.5415 720.7961,-636.5197"/>
<polygon fill="#191970" stroke="#191970" points="640.8821,-652.8256 632.0251,-658.6397 642.5746,-659.6179 640.8821,-652.8256"/>
</g>
<!-- Node58389&#45;&gt;Node58340 -->
<g id="edge28" class="edge">
<title>Node58389&#45;&gt;Node58340</title>
<path fill="none" stroke="#191970" d="M509.8345,-278.2225C531.257,-283.9352 556.2071,-290.5886 575.3929,-295.7048"/>
<polygon fill="#191970" stroke="#191970" points="510.523,-274.7839 499.9588,-275.589 508.7193,-281.5475 510.523,-274.7839"/>
</g>
<!-- Node58389&#45;&gt;Node58351 -->
<g id="edge29" class="edge">
<title>Node58389&#45;&gt;Node58351</title>
<path fill="none" stroke="#191970" d="M486.5387,-281.2503C532.5793,-312.7232 635.3324,-384.704 662,-418 715.5144,-484.8159 747.3422,-585.9714 756.3453,-617.3646"/>
<polygon fill="#191970" stroke="#191970" points="488.3611,-278.2568 478.1261,-275.5193 484.42,-284.042 488.3611,-278.2568"/>
</g>
<!-- Node58390&#45;&gt;Node58353 -->
<g id="edge31" class="edge">
<title>Node58390&#45;&gt;Node58353</title>
<path fill="none" stroke="#191970" d="M369.6216,-279.9897C372.2128,-278.492 374.6893,-276.8345 377,-275 403.1691,-254.2244 384.268,-226.0563 413,-209 522.0168,-144.284 748.9034,-220.9103 820,-295 866.663,-343.6274 892.7791,-568.0201 898.0157,-617.3799"/>
<polygon fill="#191970" stroke="#191970" points="367.8815,-276.9448 360.4442,-284.4904 370.9637,-283.2297 367.8815,-276.9448"/>
</g>
<!-- Node58391 -->
<g id="node19" class="node">
<title>Node58391</title>
<g id="a_node19"><a xlink:href="quickjs_8c.html#aa24f7964f6d938a05c3c3c03af5a01e9" target="_top" xlink:title="js_parse_import">
<polygon fill="none" stroke="#ff0000" points="421,-142.5 421,-161.5 507,-161.5 507,-142.5 421,-142.5"/>
<text text-anchor="middle" x="464" y="-149.5" font-family="Helvetica,sans-Serif" font-size="10.00" fill="#000000">js_parse_import</text>
</a>
</g>
</g>
<!-- Node58390&#45;&gt;Node58391 -->
<g id="edge32" class="edge">
<title>Node58390&#45;&gt;Node58391</title>
<path fill="none" stroke="#191970" d="M371.5929,-279.3256C373.4956,-278.0042 375.3067,-276.5658 377,-275 411.3747,-243.2135 381.4354,-210.5786 413,-176 418.6077,-169.8568 426.114,-165.1473 433.6399,-161.5965"/>
<polygon fill="#191970" stroke="#191970" points="369.6781,-276.389 362.7454,-284.4007 373.1612,-282.4609 369.6781,-276.389"/>
</g>
<!-- Node58393 -->
<g id="node21" class="node">
<title>Node58393</title>
<g id="a_node21"><a xlink:href="quickjs_8c.html#ac4a40e2d5f6c48850ba11ed6ce953925" target="_top" xlink:title="add_export_entry">
<polygon fill="none" stroke="#ff0000" points="560.5,-693.5 560.5,-712.5 652.5,-712.5 652.5,-693.5 560.5,-693.5"/>
<text text-anchor="middle" x="606.5" y="-700.5" font-family="Helvetica,sans-Serif" font-size="10.00" fill="#000000">add_export_entry</text>
</a>
</g>
</g>
<!-- Node58392&#45;&gt;Node58393 -->
<g id="edge34" class="edge">
<title>Node58392&#45;&gt;Node58393</title>
<path fill="none" stroke="#191970" d="M522.6185,-714.1842C535.244,-712.5008 548.4162,-710.7445 560.4803,-709.136"/>
<polygon fill="#191970" stroke="#191970" points="522.0915,-710.7234 512.6419,-715.5144 523.0167,-717.662 522.0915,-710.7234"/>
</g>
<!-- Node58394 -->
<g id="node22" class="node">
<title>Node58394</title>
<g id="a_node22"><a xlink:href="quickjs_8c.html#a369af749a1fb181216fe8a8b55f841b0" target="_top" xlink:title="JS_AddModuleExport">
<polygon fill="none" stroke="#ff0000" points="551,-731.5 551,-750.5 662,-750.5 662,-731.5 551,-731.5"/>
<text text-anchor="middle" x="606.5" y="-738.5" font-family="Helvetica,sans-Serif" font-size="10.00" fill="#000000">JS_AddModuleExport</text>
</a>
</g>
</g>
<!-- Node58392&#45;&gt;Node58394 -->
<g id="edge37" class="edge">
<title>Node58392&#45;&gt;Node58394</title>
<path fill="none" stroke="#191970" d="M522.5872,-729.8116C531.8891,-731.0519 541.4884,-732.3318 550.7233,-733.5631"/>
<polygon fill="#191970" stroke="#191970" points="523.0167,-726.338 512.6419,-728.4856 522.0915,-733.2766 523.0167,-726.338"/>
</g>
<!-- Node58393&#45;&gt;Node58353 -->
<g id="edge35" class="edge">
<title>Node58393&#45;&gt;Node58353</title>
<path fill="none" stroke="#191970" d="M653.2584,-690.8508C711.3165,-675.7656 809.1492,-650.3458 862.1711,-636.5692"/>
<polygon fill="#191970" stroke="#191970" points="652.0476,-687.5491 643.2492,-693.4515 653.808,-694.3242 652.0476,-687.5491"/>
</g>
<!-- Node58393&#45;&gt;Node58351 -->
<g id="edge36" class="edge">
<title>Node58393&#45;&gt;Node58351</title>
<path fill="none" stroke="#191970" d="M647.4957,-690.0164C652.4417,-688.1428 657.3754,-686.124 662,-684 692.7074,-669.8963 726.2098,-648.8239 744.7061,-636.6422"/>
<polygon fill="#191970" stroke="#191970" points="646.2628,-686.7403 638.0472,-693.4301 648.6415,-693.3238 646.2628,-686.7403"/>
</g>
<!-- Node58399&#45;&gt;Node58353 -->
<g id="edge39" class="edge">
<title>Node58399&#45;&gt;Node58353</title>
<path fill="none" stroke="#191970" d="M778.4449,-733.6472C790.4817,-723.4695 806.2174,-710.0644 820,-698 844.8372,-676.2592 873.5648,-650.2092 888.5992,-636.5053"/>
<polygon fill="#191970" stroke="#191970" points="776.1577,-730.9976 770.7722,-740.1216 780.672,-736.3475 776.1577,-730.9976"/>
</g>
<!-- Node58972&#45;&gt;Node58972 -->
<g id="edge42" class="edge">
<title>Node58972&#45;&gt;Node58972</title>
<path fill="none" stroke="#191970" d="M281.2475,-180.6539C282.3867,-185.9368 291.4708,-190 308.5,-190 334.4492,-190 341.9502,-180.5653 331.0028,-171.7571"/>
<polygon fill="#191970" stroke="#191970" points="284.3752,-182.227 285.9972,-171.7571 278.2001,-178.9303 284.3752,-182.227"/>
</g>
<!-- Node58973&#45;&gt;Node58391 -->
<g id="edge44" class="edge">
<title>Node58973&#45;&gt;Node58391</title>
<path fill="none" stroke="#191970" d="M351.0363,-249.6152C360.2305,-246.8161 369.4479,-242.7902 377,-237 401.9826,-217.8458 389.7261,-197.1975 413,-176 419.5835,-170.0038 427.9308,-165.238 435.9561,-161.5854"/>
<polygon fill="#191970" stroke="#191970" points="349.9401,-246.284 341.1485,-252.1965 351.7083,-253.057 349.9401,-246.284"/>
</g>
</g>
</svg>
        <g id="navigator" transform="translate(0 0)" fill="#404254">
                <rect fill="#f2f5e9" fill-opacity="0.5" stroke="#606060" stroke-width=".5" x="0" y="0" width="60" height="60"/>
                <use id="zoomplus" xlink:href="#zoomPlus" x="17" y="9" onmousedown="handleZoom(evt,'in')"/>
                <use id="zoomminus" xlink:href="#zoomMin" x="42" y="9" onmousedown="handleZoom(evt,'out')"/>
                <use id="reset" xlink:href="#resetDef" x="30" y="36" onmousedown="handleReset()"/>
                <g id="arrowUp" xlink:href="#dirArrow" transform="translate(30 24)" onmousedown="handlePan(0,-1)">
                  <use xlink:href="#rim" fill="#404040">
                        <set attributeName="fill" to="#808080" begin="arrowUp.mouseover" end="arrowUp.mouseout"/>
                  </use>
                  <path fill="none" stroke="white" stroke-width="1.5" d="M0,-3.0v7 M-2.5,-0.5L0,-3.0L2.5,-0.5"/>
                </g>
                <g id="arrowRight" xlink:href="#dirArrow" transform="rotate(90) translate(36 -43)" onmousedown="handlePan(1,0)">
                  <use xlink:href="#rim" fill="#404040">
                        <set attributeName="fill" to="#808080" begin="arrowRight.mouseover" end="arrowRight.mouseout"/>
                  </use>
                  <path fill="none" stroke="white" stroke-width="1.5" d="M0,-3.0v7 M-2.5,-0.5L0,-3.0L2.5,-0.5"/>
                </g>
                <g id="arrowDown" xlink:href="#dirArrow" transform="rotate(180) translate(-30 -48)" onmousedown="handlePan(0,1)">
                  <use xlink:href="#rim" fill="#404040">
                        <set attributeName="fill" to="#808080" begin="arrowDown.mouseover" end="arrowDown.mouseout"/>
                  </use>
                  <path fill="none" stroke="white" stroke-width="1.5" d="M0,-3.0v7 M-2.5,-0.5L0,-3.0L2.5,-0.5"/>
                </g>
                <g id="arrowLeft" xlink:href="#dirArrow" transform="rotate(270) translate(-36 17)" onmousedown="handlePan(-1,0)">
                  <use xlink:href="#rim" fill="#404040">
                        <set attributeName="fill" to="#808080" begin="arrowLeft.mouseover" end="arrowLeft.mouseout"/>
                  </use>
                  <path fill="none" stroke="white" stroke-width="1.5" d="M0,-3.0v7 M-2.5,-0.5L0,-3.0L2.5,-0.5"/>
                </g>
        </g>
        <svg viewBox="0 0 15 15" width="100%" height="30px" preserveAspectRatio="xMaxYMin meet">
         <g id="arrow_out" transform="scale(0.3 0.3)">
          <a xlink:href="quickjs_8c_a0eda61158c0a22ef337abc3a035bca33_icgraph_org.svg" target="_base">
           <rect id="button" ry="5" rx="5" y="6" x="6" height="38" width="38"
                fill="#f2f5e9" fill-opacity="0.5" stroke="#606060" stroke-width="1.0"/>
           <path id="arrow"
             d="M 11.500037,31.436501 C 11.940474,20.09759 22.043105,11.32322 32.158766,21.979434 L 37.068811,17.246167 C 37.068811,17.246167 37.088388,32 37.088388,32 L 22.160133,31.978069 C 22.160133,31.978069 26.997745,27.140456 26.997745,27.140456 C 18.528582,18.264221 13.291696,25.230495 11.500037,31.436501 z"
             style="fill:#404040;"/>
          </a>
         </g>
        </svg>
</svg>
