<?xml version="1.0" encoding="UTF-8" standalone="no"?>
<!DOCTYPE svg PUBLIC "-//W3C//DTD SVG 1.1//EN"
 "http://www.w3.org/Graphics/SVG/1.1/DTD/svg11.dtd">
<!-- Generated by graphviz version 2.40.1 (20161225.0304)
 -->
<!-- Title: add_var Pages: 1 -->
<!--zoomable 473 -->
<svg id="main" version="1.1" xmlns="http://www.w3.org/2000/svg" xmlns:xlink="http://www.w3.org/1999/xlink" xml:space="preserve" onload="init(evt)">
<style type="text/css"><![CDATA[
.edge:hover path { stroke: red; }
.edge:hover polygon { stroke: red; fill: red; }
]]></style>
<script type="text/javascript"><![CDATA[
var edges = document.getElementsByTagName('g');
if (edges && edges.length) {
  for (var i=0;i<edges.length;i++) {
    if (edges[i].id.substr(0,4)=='edge') {
      edges[i].setAttribute('class','edge');
    }
  }
}
]]></script>
        <defs>
                <circle id="rim" cx="0" cy="0" r="7"/>
                <circle id="rim2" cx="0" cy="0" r="3.5"/>
                <g id="zoomPlus">
                        <use xlink:href="#rim" fill="#404040">
                                <set attributeName="fill" to="#808080" begin="zoomplus.mouseover" end="zoomplus.mouseout"/>
                        </use>
                        <path d="M-4,0h8M0,-4v8" fill="none" stroke="white" stroke-width="1.5" pointer-events="none"/>
                </g>
                <g id="zoomMin">
                        <use xlink:href="#rim" fill="#404040">
                                <set attributeName="fill" to="#808080" begin="zoomminus.mouseover" end="zoomminus.mouseout"/>
                        </use>
                        <path d="M-4,0h8" fill="none" stroke="white" stroke-width="1.5" pointer-events="none"/>
                </g>
                <g id="dirArrow">
                        <path fill="none" stroke="white" stroke-width="1.5" d="M0,-3.0v7 M-2.5,-0.5L0,-3.0L2.5,-0.5"/>
                </g>
               <g id="resetDef">
                       <use xlink:href="#rim2" fill="#404040">
                               <set attributeName="fill" to="#808080" begin="reset.mouseover" end="reset.mouseout"/>
                       </use>
               </g>
        </defs>

<script type="text/javascript">
var viewWidth = 761;
var viewHeight = 473;
var sectionId = 'dynsection-973';
</script>
<script xlink:href="svgpan.js"/>
<svg id="graph" class="graph">
<g id="viewport">
<title>add_var</title>
<!-- Node312693 -->
<g id="node1" class="node">
<title>Node312693</title>
<polygon fill="#bfbfbf" stroke="#000000" points="0,-266.5 0,-285.5 51,-285.5 51,-266.5 0,-266.5"/>
<text text-anchor="middle" x="25.5" y="-273.5" font-family="Helvetica,sans-Serif" font-size="10.00" fill="#000000">add_var</text>
</g>
<!-- Node312694 -->
<g id="node2" class="node">
<title>Node312694</title>
<g id="a_node2"><a xlink:href="quickjs_8c.html#a2bfa1a7eb92eca442a25cf6726a0b19d" target="_top" xlink:title="add_arguments_arg">
<polygon fill="none" stroke="#000000" points="87,-418.5 87,-437.5 189,-437.5 189,-418.5 87,-418.5"/>
<text text-anchor="middle" x="138" y="-425.5" font-family="Helvetica,sans-Serif" font-size="10.00" fill="#000000">add_arguments_arg</text>
</a>
</g>
</g>
<!-- Node312693&#45;&gt;Node312694 -->
<g id="edge1" class="edge">
<title>Node312693&#45;&gt;Node312694</title>
<path fill="none" stroke="#191970" d="M29.5474,-295.5119C36.4678,-324.1941 53.2242,-377.7141 87,-409 91.1591,-412.8525 96.1701,-415.9428 101.4053,-418.4166"/>
<polygon fill="#191970" stroke="#191970" points="32.907,-294.4991 27.2946,-285.5129 26.0782,-296.0377 32.907,-294.4991"/>
</g>
<!-- Node312695 -->
<g id="node3" class="node">
<title>Node312695</title>
<g id="a_node3"><a xlink:href="quickjs_8c.html#a3d84c0bab25b37dbac0b6f3aa7b93e59" target="_top" xlink:title="add_eval_variables">
<polygon fill="none" stroke="#000000" points="227,-418.5 227,-437.5 327,-437.5 327,-418.5 227,-418.5"/>
<text text-anchor="middle" x="277" y="-425.5" font-family="Helvetica,sans-Serif" font-size="10.00" fill="#000000">add_eval_variables</text>
</a>
</g>
</g>
<!-- Node312693&#45;&gt;Node312695 -->
<g id="edge10" class="edge">
<title>Node312693&#45;&gt;Node312695</title>
<path fill="none" stroke="#191970" d="M29.6247,-295.6764C38.665,-336.6983 61.4673,-429.049 87,-447 139.3397,-483.7979 220.7521,-454.3123 257.6525,-437.5714"/>
<polygon fill="#191970" stroke="#191970" points="33.0212,-294.8231 27.4937,-285.7845 26.1782,-296.2973 33.0212,-294.8231"/>
</g>
<!-- Node312703 -->
<g id="node5" class="node">
<title>Node312703</title>
<g id="a_node5"><a xlink:href="quickjs_8c.html#a868100a32a3062ab6365985bb5c02b7d" target="_top" xlink:title="add_arguments_var">
<polygon fill="none" stroke="#000000" points="87,-342.5 87,-361.5 189,-361.5 189,-342.5 87,-342.5"/>
<text text-anchor="middle" x="138" y="-349.5" font-family="Helvetica,sans-Serif" font-size="10.00" fill="#000000">add_arguments_var</text>
</a>
</g>
</g>
<!-- Node312693&#45;&gt;Node312703 -->
<g id="edge5" class="edge">
<title>Node312693&#45;&gt;Node312703</title>
<path fill="none" stroke="#191970" d="M40.5737,-293.2013C52.2258,-305.638 69.3076,-322.1032 87,-333 92.9534,-336.6667 99.7264,-339.8012 106.3478,-342.4048"/>
<polygon fill="#191970" stroke="#191970" points="43.0705,-290.7449 33.7488,-285.7094 37.8957,-295.4589 43.0705,-290.7449"/>
</g>
<!-- Node312706 -->
<g id="node8" class="node">
<title>Node312706</title>
<g id="a_node8"><a xlink:href="quickjs_8c.html#afe834031fad358f2fbd7d71cfe8ac19c" target="_top" xlink:title="add_func_var">
<polygon fill="none" stroke="#000000" points="100.5,-380.5 100.5,-399.5 175.5,-399.5 175.5,-380.5 100.5,-380.5"/>
<text text-anchor="middle" x="138" y="-387.5" font-family="Helvetica,sans-Serif" font-size="10.00" fill="#000000">add_func_var</text>
</a>
</g>
</g>
<!-- Node312693&#45;&gt;Node312706 -->
<g id="edge11" class="edge">
<title>Node312693&#45;&gt;Node312706</title>
<path fill="none" stroke="#191970" d="M33.2535,-294.7944C42.911,-316.0536 61.3252,-350.3882 87,-371 91.7893,-374.8448 97.4344,-377.9621 103.1919,-380.4734"/>
<polygon fill="#191970" stroke="#191970" points="36.4204,-293.3002 29.2225,-285.5258 30.0012,-296.092 36.4204,-293.3002"/>
</g>
<!-- Node312707 -->
<g id="node9" class="node">
<title>Node312707</title>
<g id="a_node9"><a xlink:href="quickjs_8c.html#a9a006fc2eb9bbbc399c396d7a1e8d18b" target="_top" xlink:title="add_scope_var">
<polygon fill="none" stroke="#000000" points="96.5,-152.5 96.5,-171.5 179.5,-171.5 179.5,-152.5 96.5,-152.5"/>
<text text-anchor="middle" x="138" y="-159.5" font-family="Helvetica,sans-Serif" font-size="10.00" fill="#000000">add_scope_var</text>
</a>
</g>
</g>
<!-- Node312693&#45;&gt;Node312707 -->
<g id="edge14" class="edge">
<title>Node312693&#45;&gt;Node312707</title>
<path fill="none" stroke="#191970" d="M34.4185,-257.3727C44.7227,-237.4974 63.3383,-206.1573 87,-186 94.0021,-180.0349 102.7382,-175.2146 110.9908,-171.5027"/>
<polygon fill="#191970" stroke="#191970" points="31.2685,-255.8464 29.9232,-266.3555 37.5284,-258.9791 31.2685,-255.8464"/>
</g>
<!-- Node312708 -->
<g id="node10" class="node">
<title>Node312708</title>
<g id="a_node10"><a xlink:href="quickjs_8c.html#a99125693fff3fd8277f544b15109354b" target="_top" xlink:title="define_var">
<polygon fill="none" stroke="#000000" points="246,-152.5 246,-171.5 308,-171.5 308,-152.5 246,-152.5"/>
<text text-anchor="middle" x="277" y="-159.5" font-family="Helvetica,sans-Serif" font-size="10.00" fill="#000000">define_var</text>
</a>
</g>
</g>
<!-- Node312693&#45;&gt;Node312708 -->
<g id="edge33" class="edge">
<title>Node312693&#45;&gt;Node312708</title>
<path fill="none" stroke="#191970" d="M41.8804,-259.0608C53.5629,-247.7995 70.1322,-233.4055 87,-224 139.1248,-194.9354 206.976,-176.9385 245.8912,-168.2574"/>
<polygon fill="#191970" stroke="#191970" points="39.262,-256.7283 34.6297,-266.2568 44.193,-261.6967 39.262,-256.7283"/>
</g>
<!-- Node312714 -->
<g id="node12" class="node">
<title>Node312714</title>
<g id="a_node12"><a xlink:href="quickjs_8c.html#a9d844c16dcc71701436848074337d32c" target="_top" xlink:title="js_parse_statement\l_or_decl">
<polygon fill="none" stroke="#ff0000" points="651,-166 651,-196 753,-196 753,-166 651,-166"/>
<text text-anchor="start" x="659" y="-184" font-family="Helvetica,sans-Serif" font-size="10.00" fill="#000000">js_parse_statement</text>
<text text-anchor="middle" x="702" y="-173" font-family="Helvetica,sans-Serif" font-size="10.00" fill="#000000">_or_decl</text>
</a>
</g>
</g>
<!-- Node312693&#45;&gt;Node312714 -->
<g id="edge36" class="edge">
<title>Node312693&#45;&gt;Node312714</title>
<path fill="none" stroke="#191970" d="M60.9958,-267.2018C109.4706,-255.9773 199.2452,-238 277,-238 277,-238 277,-238 426,-238 508.9327,-238 603.0397,-213.0118 657.167,-196.1253"/>
<polygon fill="#191970" stroke="#191970" points="59.9441,-263.8537 51.0133,-269.5538 61.5495,-270.6671 59.9441,-263.8537"/>
</g>
<!-- Node312719 -->
<g id="node15" class="node">
<title>Node312719</title>
<g id="a_node15"><a xlink:href="quickjs_8c.html#acc9eb677cab8dfcf45f59381f8a19601" target="_top" xlink:title="js_parse_function_decl2">
<polygon fill="none" stroke="#ff0000" points="365,-.5 365,-19.5 487,-19.5 487,-.5 365,-.5"/>
<text text-anchor="middle" x="426" y="-7.5" font-family="Helvetica,sans-Serif" font-size="10.00" fill="#000000">js_parse_function_decl2</text>
</a>
</g>
</g>
<!-- Node312693&#45;&gt;Node312719 -->
<g id="edge34" class="edge">
<title>Node312693&#45;&gt;Node312719</title>
<path fill="none" stroke="#191970" d="M29.7841,-256.2097C36.9347,-227.6061 53.8999,-174.676 87,-143 165.2206,-68.1449 290.489,-33.9218 364.8576,-19.4664"/>
<polygon fill="#191970" stroke="#191970" points="26.3151,-255.6731 27.4406,-266.208 33.1304,-257.2706 26.3151,-255.6731"/>
</g>
<!-- Node312741 -->
<g id="node17" class="node">
<title>Node312741</title>
<g id="a_node17"><a xlink:href="quickjs_8c.html#a237c9785e84b9382c476ee0868edb117" target="_top" xlink:title="add_var_this">
<polygon fill="none" stroke="#000000" points="102,-304.5 102,-323.5 174,-323.5 174,-304.5 102,-304.5"/>
<text text-anchor="middle" x="138" y="-311.5" font-family="Helvetica,sans-Serif" font-size="10.00" fill="#000000">add_var_this</text>
</a>
</g>
</g>
<!-- Node312693&#45;&gt;Node312741 -->
<g id="edge29" class="edge">
<title>Node312693&#45;&gt;Node312741</title>
<path fill="none" stroke="#191970" d="M60.5054,-287.824C76.3636,-293.1806 94.8627,-299.4292 109.8088,-304.4777"/>
<polygon fill="#191970" stroke="#191970" points="61.6222,-284.5071 51.028,-284.6228 59.382,-291.139 61.6222,-284.5071"/>
</g>
<!-- Node312742 -->
<g id="node18" class="node">
<title>Node312742</title>
<g id="a_node18"><a xlink:href="quickjs_8c.html#a0b2f53f86b03dc687031b5092d8069cf" target="_top" xlink:title="resolve_pseudo_var">
<polygon fill="none" stroke="#000000" points="225,-304.5 225,-323.5 329,-323.5 329,-304.5 225,-304.5"/>
<text text-anchor="middle" x="277" y="-311.5" font-family="Helvetica,sans-Serif" font-size="10.00" fill="#000000">resolve_pseudo_var</text>
</a>
</g>
</g>
<!-- Node312693&#45;&gt;Node312742 -->
<g id="edge37" class="edge">
<title>Node312693&#45;&gt;Node312742</title>
<path fill="none" stroke="#191970" d="M61.2315,-279.146C94.4488,-282.3085 145.2448,-287.7516 189,-295 204.7281,-297.6055 221.893,-301.151 236.853,-304.4739"/>
<polygon fill="#191970" stroke="#191970" points="61.3776,-275.6445 51.0956,-278.1999 60.727,-282.6142 61.3776,-275.6445"/>
</g>
<!-- Node312724 -->
<g id="node19" class="node">
<title>Node312724</title>
<g id="a_node19"><a xlink:href="quickjs_8c.html#aec05caae64451720670d1a56040110b3" target="_top" xlink:title="js_parse_program">
<polygon fill="none" stroke="#ff0000" points="91,-38.5 91,-57.5 185,-57.5 185,-38.5 91,-38.5"/>
<text text-anchor="middle" x="138" y="-45.5" font-family="Helvetica,sans-Serif" font-size="10.00" fill="#000000">js_parse_program</text>
</a>
</g>
</g>
<!-- Node312693&#45;&gt;Node312724 -->
<g id="edge35" class="edge">
<title>Node312693&#45;&gt;Node312724</title>
<path fill="none" stroke="#191970" d="M29.3118,-256.3007C38.4386,-210.8283 62.6068,-100.272 87,-72 92.3697,-65.7764 99.7065,-61.0531 107.1414,-57.5155"/>
<polygon fill="#191970" stroke="#191970" points="25.8272,-255.881 27.3245,-266.3695 32.6947,-257.2365 25.8272,-255.881"/>
</g>
<!-- Node312694&#45;&gt;Node312695 -->
<g id="edge2" class="edge">
<title>Node312694&#45;&gt;Node312695</title>
<path fill="none" stroke="#191970" d="M199.5334,-428C208.6407,-428 217.9329,-428 226.7733,-428"/>
<polygon fill="#191970" stroke="#191970" points="199.3636,-424.5001 189.3635,-428 199.3635,-431.5001 199.3636,-424.5001"/>
</g>
<!-- Node312696 -->
<g id="node4" class="node">
<title>Node312696</title>
<g id="a_node4"><a xlink:href="quickjs_8c.html#a97fcc747d8b1c3644174745d2e2739be" target="_top" xlink:title="js_create_function">
<polygon fill="none" stroke="#ff0000" points="654,-399.5 654,-418.5 750,-418.5 750,-399.5 654,-399.5"/>
<text text-anchor="middle" x="702" y="-406.5" font-family="Helvetica,sans-Serif" font-size="10.00" fill="#000000">js_create_function</text>
</a>
</g>
</g>
<!-- Node312695&#45;&gt;Node312696 -->
<g id="edge3" class="edge">
<title>Node312695&#45;&gt;Node312696</title>
<path fill="none" stroke="#191970" d="M337.0186,-425.3168C422.0244,-421.5166 575.8076,-414.6415 653.8201,-411.1539"/>
<polygon fill="#191970" stroke="#191970" points="336.8363,-421.8214 327.0027,-425.7646 337.149,-428.8144 336.8363,-421.8214"/>
</g>
<!-- Node312696&#45;&gt;Node312696 -->
<g id="edge4" class="edge">
<title>Node312696&#45;&gt;Node312696</title>
<path fill="none" stroke="#191970" d="M677.4465,-428.0292C678.7858,-433.128 686.9703,-437 702,-437 725.4609,-437 732.2426,-427.5653 722.345,-418.7571"/>
<polygon fill="#191970" stroke="#191970" points="680.709,-429.3096 681.655,-418.7571 674.3348,-426.4164 680.709,-429.3096"/>
</g>
<!-- Node312703&#45;&gt;Node312695 -->
<g id="edge9" class="edge">
<title>Node312703&#45;&gt;Node312695</title>
<path fill="none" stroke="#191970" d="M176.4294,-365.2804C180.7289,-367.0706 184.9977,-368.9886 189,-371 217.1372,-385.1408 247.4331,-406.2002 264.1203,-418.3694"/>
<polygon fill="#191970" stroke="#191970" points="177.6464,-361.998 167.0598,-361.5788 175.0743,-368.5083 177.6464,-361.998"/>
</g>
<!-- Node312704 -->
<g id="node6" class="node">
<title>Node312704</title>
<g id="a_node6"><a xlink:href="quickjs_8c.html#a30aac2d7e62ad60386ab6b522d7db744" target="_top" xlink:title="resolve_scope_var">
<polygon fill="none" stroke="#000000" points="377,-361.5 377,-380.5 475,-380.5 475,-361.5 377,-361.5"/>
<text text-anchor="middle" x="426" y="-368.5" font-family="Helvetica,sans-Serif" font-size="10.00" fill="#000000">resolve_scope_var</text>
</a>
</g>
</g>
<!-- Node312703&#45;&gt;Node312704 -->
<g id="edge6" class="edge">
<title>Node312703&#45;&gt;Node312704</title>
<path fill="none" stroke="#191970" d="M199.4262,-356.0524C252.3437,-359.5435 327.7326,-364.5171 376.7621,-367.7517"/>
<polygon fill="#191970" stroke="#191970" points="199.3655,-352.5409 189.1568,-355.3749 198.9046,-359.5257 199.3655,-352.5409"/>
</g>
<!-- Node312705 -->
<g id="node7" class="node">
<title>Node312705</title>
<g id="a_node7"><a xlink:href="quickjs_8c.html#a7a4eedc4cc552a71e165f4d28ad43985" target="_top" xlink:title="resolve_variables">
<polygon fill="none" stroke="#000000" points="523,-380.5 523,-399.5 615,-399.5 615,-380.5 523,-380.5"/>
<text text-anchor="middle" x="569" y="-387.5" font-family="Helvetica,sans-Serif" font-size="10.00" fill="#000000">resolve_variables</text>
</a>
</g>
</g>
<!-- Node312704&#45;&gt;Node312705 -->
<g id="edge7" class="edge">
<title>Node312704&#45;&gt;Node312705</title>
<path fill="none" stroke="#191970" d="M485.4707,-378.9017C497.8623,-380.5481 510.7502,-382.2605 522.5874,-383.8333"/>
<polygon fill="#191970" stroke="#191970" points="485.5864,-375.3864 475.2125,-377.5387 484.6644,-382.3254 485.5864,-375.3864"/>
</g>
<!-- Node312705&#45;&gt;Node312696 -->
<g id="edge8" class="edge">
<title>Node312705&#45;&gt;Node312696</title>
<path fill="none" stroke="#191970" d="M625.2541,-398.0363C634.7083,-399.3869 644.4457,-400.778 653.6768,-402.0967"/>
<polygon fill="#191970" stroke="#191970" points="625.5382,-394.5414 615.1437,-396.592 624.5482,-401.4711 625.5382,-394.5414"/>
</g>
<!-- Node312706&#45;&gt;Node312695 -->
<g id="edge13" class="edge">
<title>Node312706&#45;&gt;Node312695</title>
<path fill="none" stroke="#191970" d="M182.7953,-402.2462C201.9547,-407.484 223.9938,-413.5091 241.9357,-418.4141"/>
<polygon fill="#191970" stroke="#191970" points="183.6446,-398.85 173.0756,-399.589 181.7986,-405.6022 183.6446,-398.85"/>
</g>
<!-- Node312706&#45;&gt;Node312704 -->
<g id="edge12" class="edge">
<title>Node312706&#45;&gt;Node312704</title>
<path fill="none" stroke="#191970" d="M185.7764,-386.8481C238.622,-383.3617 323.3443,-377.7724 376.7672,-374.248"/>
<polygon fill="#191970" stroke="#191970" points="185.3988,-383.3653 175.651,-387.5161 185.8597,-390.3501 185.3988,-383.3653"/>
</g>
<!-- Node312707&#45;&gt;Node312708 -->
<g id="edge15" class="edge">
<title>Node312707&#45;&gt;Node312708</title>
<path fill="none" stroke="#191970" d="M189.9418,-162C208.7788,-162 229.4573,-162 245.9328,-162"/>
<polygon fill="#191970" stroke="#191970" points="189.7046,-158.5001 179.7046,-162 189.7045,-165.5001 189.7046,-158.5001"/>
</g>
<!-- Node312740 -->
<g id="node16" class="node">
<title>Node312740</title>
<g id="a_node16"><a xlink:href="quickjs_8c.html#a1e310fff13ce6850b927d0fa738391b9" target="_top" xlink:title="add_private_class_field">
<polygon fill="none" stroke="#000000" points="366.5,-38.5 366.5,-57.5 485.5,-57.5 485.5,-38.5 366.5,-38.5"/>
<text text-anchor="middle" x="426" y="-45.5" font-family="Helvetica,sans-Serif" font-size="10.00" fill="#000000">add_private_class_field</text>
</a>
</g>
</g>
<!-- Node312707&#45;&gt;Node312740 -->
<g id="edge27" class="edge">
<title>Node312707&#45;&gt;Node312740</title>
<path fill="none" stroke="#191970" d="M186.186,-149.745C225.5304,-138.9439 282.092,-121.5819 329,-100 346.0346,-92.1625 348.5697,-87.036 365,-78 378.2365,-70.7205 393.4865,-63.2205 405.4274,-57.5404"/>
<polygon fill="#191970" stroke="#191970" points="185.0589,-146.4241 176.3205,-152.415 186.8876,-153.181 185.0589,-146.4241"/>
</g>
<!-- Node312709 -->
<g id="node11" class="node">
<title>Node312709</title>
<g id="a_node11"><a xlink:href="quickjs_8c.html#a00eb789430243c24dab4a63ad6a79653" target="_top" xlink:title="js_parse_class">
<polygon fill="none" stroke="#ff0000" points="528,-67.5 528,-86.5 610,-86.5 610,-67.5 528,-67.5"/>
<text text-anchor="middle" x="569" y="-74.5" font-family="Helvetica,sans-Serif" font-size="10.00" fill="#000000">js_parse_class</text>
</a>
</g>
</g>
<!-- Node312708&#45;&gt;Node312709 -->
<g id="edge16" class="edge">
<title>Node312708&#45;&gt;Node312709</title>
<path fill="none" stroke="#191970" d="M309.8961,-148.2046C316.3696,-145.1062 323.0081,-141.6468 329,-138 346.3151,-127.4619 346.4159,-118.0929 365,-110 418.1229,-86.8663 485.4083,-79.7874 527.8451,-77.7134"/>
<polygon fill="#191970" stroke="#191970" points="308.2489,-145.1096 300.624,-152.4656 311.172,-151.4701 308.2489,-145.1096"/>
</g>
<!-- Node312708&#45;&gt;Node312714 -->
<g id="edge22" class="edge">
<title>Node312708&#45;&gt;Node312714</title>
<path fill="none" stroke="#191970" d="M318.5043,-169.7058C333.1465,-172.1311 349.757,-174.5521 365,-176 465.9202,-185.586 584.5897,-184.4872 650.763,-182.7753"/>
<polygon fill="#191970" stroke="#191970" points="318.6846,-166.1861 308.2382,-167.953 317.5064,-173.0862 318.6846,-166.1861"/>
</g>
<!-- Node312721 -->
<g id="node13" class="node">
<title>Node312721</title>
<g id="a_node13"><a xlink:href="quickjs_8c.html#a498e1d5c7de1b59c1630e9847cde1e41" target="_top" xlink:title="js_parse_export">
<polygon fill="none" stroke="#ff0000" points="659,-67.5 659,-86.5 745,-86.5 745,-67.5 659,-67.5"/>
<text text-anchor="middle" x="702" y="-74.5" font-family="Helvetica,sans-Serif" font-size="10.00" fill="#000000">js_parse_export</text>
</a>
</g>
</g>
<!-- Node312708&#45;&gt;Node312721 -->
<g id="edge23" class="edge">
<title>Node312708&#45;&gt;Node312721</title>
<path fill="none" stroke="#191970" d="M318.3212,-154.2372C382.0761,-142.1908 508.235,-118.0792 615,-96 629.3828,-93.0256 645.0717,-89.6423 659.1167,-86.5631"/>
<polygon fill="#191970" stroke="#191970" points="317.4453,-150.8406 308.2678,-156.1344 318.7434,-157.7192 317.4453,-150.8406"/>
</g>
<!-- Node312739 -->
<g id="node14" class="node">
<title>Node312739</title>
<g id="a_node14"><a xlink:href="quickjs_8c.html#a53e971ab3c46da0b7d48481b0696e138" target="_top" xlink:title="js_define_var">
<polygon fill="none" stroke="#ff0000" points="532,-152.5 532,-171.5 606,-171.5 606,-152.5 532,-152.5"/>
<text text-anchor="middle" x="569" y="-159.5" font-family="Helvetica,sans-Serif" font-size="10.00" fill="#000000">js_define_var</text>
</a>
</g>
</g>
<!-- Node312708&#45;&gt;Node312739 -->
<g id="edge20" class="edge">
<title>Node312708&#45;&gt;Node312739</title>
<path fill="none" stroke="#191970" d="M318.33,-162C375.2195,-162 476.8164,-162 531.5728,-162"/>
<polygon fill="#191970" stroke="#191970" points="318.2491,-158.5001 308.2491,-162 318.2491,-165.5001 318.2491,-158.5001"/>
</g>
<!-- Node312708&#45;&gt;Node312719 -->
<g id="edge24" class="edge">
<title>Node312708&#45;&gt;Node312719</title>
<path fill="none" stroke="#191970" d="M293.1208,-144.9699C304.0155,-132.9612 318.3077,-116.193 329,-100 348.4951,-70.4755 337.9795,-51.8396 365,-29 369.5745,-25.1333 374.9333,-22.0525 380.542,-19.5981"/>
<polygon fill="#191970" stroke="#191970" points="290.4194,-142.7363 286.207,-152.4577 295.5624,-147.485 290.4194,-142.7363"/>
</g>
<!-- Node312709&#45;&gt;Node312714 -->
<g id="edge17" class="edge">
<title>Node312709&#45;&gt;Node312714</title>
<path fill="none" stroke="#191970" d="M589.4461,-92.9879C614.7806,-112.7984 657.6382,-146.3111 682.5182,-165.7661"/>
<polygon fill="#191970" stroke="#191970" points="591.3075,-90.0004 581.2739,-86.5977 586.9955,-95.5147 591.3075,-90.0004"/>
</g>
<!-- Node312709&#45;&gt;Node312721 -->
<g id="edge19" class="edge">
<title>Node312709&#45;&gt;Node312721</title>
<path fill="none" stroke="#191970" d="M620.722,-77C633.3256,-77 646.6751,-77 658.8331,-77"/>
<polygon fill="#191970" stroke="#191970" points="620.353,-73.5001 610.353,-77 620.3529,-80.5001 620.353,-73.5001"/>
</g>
<!-- Node312714&#45;&gt;Node312714 -->
<g id="edge18" class="edge">
<title>Node312714&#45;&gt;Node312714</title>
<path fill="none" stroke="#191970" d="M678.5452,-206.4579C681.4563,-211.179 689.2745,-214.5 702,-214.5 722.8828,-214.5 730.5507,-205.5566 725.0037,-196.159"/>
<polygon fill="#191970" stroke="#191970" points="682.0553,-206.3026 678.9963,-196.159 675.062,-205.9962 682.0553,-206.3026"/>
</g>
<!-- Node312739&#45;&gt;Node312714 -->
<g id="edge21" class="edge">
<title>Node312739&#45;&gt;Node312714</title>
<path fill="none" stroke="#191970" d="M616.0858,-168.7265C627.3084,-170.3298 639.3395,-172.0485 650.7393,-173.677"/>
<polygon fill="#191970" stroke="#191970" points="616.4424,-165.242 606.0479,-167.2926 615.4524,-172.1717 616.4424,-165.242"/>
</g>
<!-- Node312719&#45;&gt;Node312709 -->
<g id="edge25" class="edge">
<title>Node312719&#45;&gt;Node312709</title>
<path fill="none" stroke="#191970" d="M471.0724,-22.7574C476.5078,-24.6702 481.9264,-26.76 487,-29 512.0501,-40.0599 539.092,-56.9591 555.0097,-67.4744"/>
<polygon fill="#191970" stroke="#191970" points="471.9351,-19.3556 461.3414,-19.5112 469.7199,-25.9959 471.9351,-19.3556"/>
</g>
<!-- Node312719&#45;&gt;Node312721 -->
<g id="edge26" class="edge">
<title>Node312719&#45;&gt;Node312721</title>
<path fill="none" stroke="#191970" d="M475.1873,-21.9404C528.6636,-34.922 613.0749,-55.4131 662.4376,-67.3961"/>
<polygon fill="#191970" stroke="#191970" points="475.7944,-18.4862 465.251,-19.5283 474.143,-25.2886 475.7944,-18.4862"/>
</g>
<!-- Node312740&#45;&gt;Node312709 -->
<g id="edge28" class="edge">
<title>Node312740&#45;&gt;Node312709</title>
<path fill="none" stroke="#191970" d="M483.3055,-59.6214C498.1165,-62.625 513.7743,-65.8004 527.5965,-68.6035"/>
<polygon fill="#191970" stroke="#191970" points="483.716,-56.1335 473.2199,-57.5761 482.3247,-62.9938 483.716,-56.1335"/>
</g>
<!-- Node312741&#45;&gt;Node312695 -->
<g id="edge32" class="edge">
<title>Node312741&#45;&gt;Node312695</title>
<path fill="none" stroke="#191970" d="M179.8369,-327.7044C183.0309,-329.3122 186.1259,-331.0751 189,-333 225.2382,-357.2701 257.0895,-399.3124 270.3919,-418.2531"/>
<polygon fill="#191970" stroke="#191970" points="181.2298,-324.4932 170.6746,-323.5777 178.3551,-330.8757 181.2298,-324.4932"/>
</g>
<!-- Node312741&#45;&gt;Node312742 -->
<g id="edge30" class="edge">
<title>Node312741&#45;&gt;Node312742</title>
<path fill="none" stroke="#191970" d="M184.2748,-314C197.2677,-314 211.4842,-314 224.7966,-314"/>
<polygon fill="#191970" stroke="#191970" points="184.1578,-310.5001 174.1578,-314 184.1577,-317.5001 184.1578,-310.5001"/>
</g>
<!-- Node312742&#45;&gt;Node312704 -->
<g id="edge31" class="edge">
<title>Node312742&#45;&gt;Node312704</title>
<path fill="none" stroke="#191970" d="M311.513,-327.203C338.8716,-337.669 376.4542,-352.0462 400.9794,-361.4284"/>
<polygon fill="#191970" stroke="#191970" points="312.5297,-323.8446 301.9392,-323.5405 310.0286,-330.3825 312.5297,-323.8446"/>
</g>
</g>
</svg>
        <g id="navigator" transform="translate(0 0)" fill="#404254">
                <rect fill="#f2f5e9" fill-opacity="0.5" stroke="#606060" stroke-width=".5" x="0" y="0" width="60" height="60"/>
                <use id="zoomplus" xlink:href="#zoomPlus" x="17" y="9" onmousedown="handleZoom(evt,'in')"/>
                <use id="zoomminus" xlink:href="#zoomMin" x="42" y="9" onmousedown="handleZoom(evt,'out')"/>
                <use id="reset" xlink:href="#resetDef" x="30" y="36" onmousedown="handleReset()"/>
                <g id="arrowUp" xlink:href="#dirArrow" transform="translate(30 24)" onmousedown="handlePan(0,-1)">
                  <use xlink:href="#rim" fill="#404040">
                        <set attributeName="fill" to="#808080" begin="arrowUp.mouseover" end="arrowUp.mouseout"/>
                  </use>
                  <path fill="none" stroke="white" stroke-width="1.5" d="M0,-3.0v7 M-2.5,-0.5L0,-3.0L2.5,-0.5"/>
                </g>
                <g id="arrowRight" xlink:href="#dirArrow" transform="rotate(90) translate(36 -43)" onmousedown="handlePan(1,0)">
                  <use xlink:href="#rim" fill="#404040">
                        <set attributeName="fill" to="#808080" begin="arrowRight.mouseover" end="arrowRight.mouseout"/>
                  </use>
                  <path fill="none" stroke="white" stroke-width="1.5" d="M0,-3.0v7 M-2.5,-0.5L0,-3.0L2.5,-0.5"/>
                </g>
                <g id="arrowDown" xlink:href="#dirArrow" transform="rotate(180) translate(-30 -48)" onmousedown="handlePan(0,1)">
                  <use xlink:href="#rim" fill="#404040">
                        <set attributeName="fill" to="#808080" begin="arrowDown.mouseover" end="arrowDown.mouseout"/>
                  </use>
                  <path fill="none" stroke="white" stroke-width="1.5" d="M0,-3.0v7 M-2.5,-0.5L0,-3.0L2.5,-0.5"/>
                </g>
                <g id="arrowLeft" xlink:href="#dirArrow" transform="rotate(270) translate(-36 17)" onmousedown="handlePan(-1,0)">
                  <use xlink:href="#rim" fill="#404040">
                        <set attributeName="fill" to="#808080" begin="arrowLeft.mouseover" end="arrowLeft.mouseout"/>
                  </use>
                  <path fill="none" stroke="white" stroke-width="1.5" d="M0,-3.0v7 M-2.5,-0.5L0,-3.0L2.5,-0.5"/>
                </g>
        </g>
        <svg viewBox="0 0 15 15" width="100%" height="30px" preserveAspectRatio="xMaxYMin meet">
         <g id="arrow_out" transform="scale(0.3 0.3)">
          <a xlink:href="quickjs_8c_ab2e0855c4317f8e3b05c0a091bc43a29_icgraph_org.svg" target="_base">
           <rect id="button" ry="5" rx="5" y="6" x="6" height="38" width="38"
                fill="#f2f5e9" fill-opacity="0.5" stroke="#606060" stroke-width="1.0"/>
           <path id="arrow"
             d="M 11.500037,31.436501 C 11.940474,20.09759 22.043105,11.32322 32.158766,21.979434 L 37.068811,17.246167 C 37.068811,17.246167 37.088388,32 37.088388,32 L 22.160133,31.978069 C 22.160133,31.978069 26.997745,27.140456 26.997745,27.140456 C 18.528582,18.264221 13.291696,25.230495 11.500037,31.436501 z"
             style="fill:#404040;"/>
          </a>
         </g>
        </svg>
</svg>
