<?xml version="1.0" encoding="UTF-8" standalone="no"?>
<!DOCTYPE svg PUBLIC "-//W3C//DTD SVG 1.1//EN"
 "http://www.w3.org/Graphics/SVG/1.1/DTD/svg11.dtd">
<!-- Generated by graphviz version 2.40.1 (20161225.0304)
 -->
<!-- Title: emit_u32 Pages: 1 -->
<svg width="930pt" height="1671pt"
 viewBox="0.00 0.00 930.00 1670.63" xmlns="http://www.w3.org/2000/svg" xmlns:xlink="http://www.w3.org/1999/xlink">
<g id="graph0" class="graph" transform="scale(1 1) rotate(0) translate(4 1666.6323)">
<title>emit_u32</title>
<!-- Node311674 -->
<g id="node1" class="node">
<title>Node311674</title>
<polygon fill="#bfbfbf" stroke="#000000" points="0,-996.5 0,-1015.5 56,-1015.5 56,-996.5 0,-996.5"/>
<text text-anchor="middle" x="28" y="-1003.5" font-family="Helvetica,sans-Serif" font-size="10.00" fill="#000000">emit_u32</text>
</g>
<!-- Node311675 -->
<g id="node2" class="node">
<title>Node311675</title>
<g id="a_node2"><a xlink:href="quickjs_8c.html#aa57b449a878287663249bb7ab23ed8e9" target="_top" xlink:title="emit_atom">
<polygon fill="none" stroke="#000000" points="106.5,-1167.5 106.5,-1186.5 168.5,-1186.5 168.5,-1167.5 106.5,-1167.5"/>
<text text-anchor="middle" x="137.5" y="-1174.5" font-family="Helvetica,sans-Serif" font-size="10.00" fill="#000000">emit_atom</text>
</a>
</g>
</g>
<!-- Node311674&#45;&gt;Node311675 -->
<g id="edge1" class="edge">
<title>Node311674&#45;&gt;Node311675</title>
<path fill="none" stroke="#191970" d="M39.6965,-1024.2658C62.8407,-1060.4087 113.7604,-1139.9271 131.3671,-1167.4226"/>
<polygon fill="#191970" stroke="#191970" points="42.5411,-1022.2176 34.2009,-1015.6837 36.6461,-1025.9925 42.5411,-1022.2176"/>
</g>
<!-- Node311677 -->
<g id="node4" class="node">
<title>Node311677</title>
<g id="a_node4"><a xlink:href="quickjs_8c.html#a840642c87c5a82d4cc68333376a3b6de" target="_top" xlink:title="js_parse_postfix_expr">
<polygon fill="none" stroke="#ff0000" points="810,-1348.5 810,-1367.5 922,-1367.5 922,-1348.5 810,-1348.5"/>
<text text-anchor="middle" x="866" y="-1355.5" font-family="Helvetica,sans-Serif" font-size="10.00" fill="#000000">js_parse_postfix_expr</text>
</a>
</g>
</g>
<!-- Node311674&#45;&gt;Node311677 -->
<g id="edge112" class="edge">
<title>Node311674&#45;&gt;Node311677</title>
<path fill="none" stroke="#191970" d="M28.8208,-1025.5428C33.1061,-1123.6174 54.1699,-1559.2626 92,-1605 147.5127,-1672.116 192.4011,-1662 279.5,-1662 279.5,-1662 279.5,-1662 595,-1662 680.4224,-1662 713.5423,-1652.3477 774,-1592 841.0416,-1525.0803 860.5307,-1403.4765 864.9128,-1367.9784"/>
<polygon fill="#191970" stroke="#191970" points="32.3166,-1025.3667 28.3907,-1015.5261 25.323,-1025.6671 32.3166,-1025.3667"/>
</g>
<!-- Node311679 -->
<g id="node7" class="node">
<title>Node311679</title>
<g id="a_node7"><a xlink:href="quickjs_8c.html#a00eb789430243c24dab4a63ad6a79653" target="_top" xlink:title="js_parse_class">
<polygon fill="none" stroke="#000000" points="692,-1310.5 692,-1329.5 774,-1329.5 774,-1310.5 692,-1310.5"/>
<text text-anchor="middle" x="733" y="-1317.5" font-family="Helvetica,sans-Serif" font-size="10.00" fill="#000000">js_parse_class</text>
</a>
</g>
</g>
<!-- Node311674&#45;&gt;Node311679 -->
<g id="edge109" class="edge">
<title>Node311674&#45;&gt;Node311679</title>
<path fill="none" stroke="#191970" d="M29.909,-1025.7728C39.2149,-1109.9283 87.5145,-1434 279.5,-1434 279.5,-1434 279.5,-1434 437,-1434 537.9202,-1434 564.671,-1416.9406 656,-1374 681.4147,-1362.0506 707.4375,-1341.7818 721.7786,-1329.7669"/>
<polygon fill="#191970" stroke="#191970" points="33.3815,-1025.3264 28.8627,-1015.7435 26.4193,-1026.0527 33.3815,-1025.3264"/>
</g>
<!-- Node311680 -->
<g id="node8" class="node">
<title>Node311680</title>
<g id="a_node8"><a xlink:href="quickjs_8c.html#a9d844c16dcc71701436848074337d32c" target="_top" xlink:title="js_parse_statement\l_or_decl">
<polygon fill="none" stroke="#ff0000" points="815,-440 815,-470 917,-470 917,-440 815,-440"/>
<text text-anchor="start" x="823" y="-458" font-family="Helvetica,sans-Serif" font-size="10.00" fill="#000000">js_parse_statement</text>
<text text-anchor="middle" x="866" y="-447" font-family="Helvetica,sans-Serif" font-size="10.00" fill="#000000">_or_decl</text>
</a>
</g>
</g>
<!-- Node311674&#45;&gt;Node311680 -->
<g id="edge113" class="edge">
<title>Node311674&#45;&gt;Node311680</title>
<path fill="none" stroke="#191970" d="M28.626,-986.0837C32.0384,-882.7866 49.8154,-407.4308 92,-267 133.7168,-128.1262 134.4958,0 279.5,0 279.5,0 279.5,0 595,0 680.4224,0 717.9124,-5.5705 774,-70 824.1987,-127.6647 856.6352,-375.923 864.2649,-439.9094"/>
<polygon fill="#191970" stroke="#191970" points="25.1198,-986.2206 28.2949,-996.3285 32.1162,-986.4468 25.1198,-986.2206"/>
</g>
<!-- Node311697 -->
<g id="node10" class="node">
<title>Node311697</title>
<g id="a_node10"><a xlink:href="quickjs_8c.html#a26be546cf89c4580ba9020e8fc43a759" target="_top" xlink:title="js_parse_destructuring\l_element">
<polygon fill="none" stroke="#000000" points="379.5,-863 379.5,-893 494.5,-893 494.5,-863 379.5,-863"/>
<text text-anchor="start" x="387.5" y="-881" font-family="Helvetica,sans-Serif" font-size="10.00" fill="#000000">js_parse_destructuring</text>
<text text-anchor="middle" x="437" y="-870" font-family="Helvetica,sans-Serif" font-size="10.00" fill="#000000">_element</text>
</a>
</g>
</g>
<!-- Node311674&#45;&gt;Node311697 -->
<g id="edge110" class="edge">
<title>Node311674&#45;&gt;Node311697</title>
<path fill="none" stroke="#191970" d="M66.5091,-1001.1593C138.6308,-991.7345 291.1874,-969.9998 340,-949 371.8233,-935.3092 403.1615,-909.5202 421.2629,-893.0795"/>
<polygon fill="#191970" stroke="#191970" points="65.9414,-997.7035 56.4737,-1002.459 66.8405,-1004.6455 65.9414,-997.7035"/>
</g>
<!-- Node311685 -->
<g id="node13" class="node">
<title>Node311685</title>
<g id="a_node13"><a xlink:href="quickjs_8c.html#acc9eb677cab8dfcf45f59381f8a19601" target="_top" xlink:title="js_parse_function_decl2">
<polygon fill="none" stroke="#ff0000" points="534,-830.5 534,-849.5 656,-849.5 656,-830.5 534,-830.5"/>
<text text-anchor="middle" x="595" y="-837.5" font-family="Helvetica,sans-Serif" font-size="10.00" fill="#000000">js_parse_function_decl2</text>
</a>
</g>
</g>
<!-- Node311674&#45;&gt;Node311685 -->
<g id="edge111" class="edge">
<title>Node311674&#45;&gt;Node311685</title>
<path fill="none" stroke="#191970" d="M66.0672,-1016.6617C125.8424,-1031.5695 244.7286,-1053.7699 340,-1025 453.0957,-990.8476 556.8805,-882.6233 586.5521,-849.637"/>
<polygon fill="#191970" stroke="#191970" points="66.8584,-1013.2514 56.3025,-1014.1589 65.1203,-1020.0322 66.8584,-1013.2514"/>
</g>
<!-- Node311705 -->
<g id="node14" class="node">
<title>Node311705</title>
<g id="a_node14"><a xlink:href="quickjs_8c.html#afa1bc2743b3cf892d36544a708453736" target="_top" xlink:title="js_parse_assign_expr2">
<polygon fill="none" stroke="#ff0000" points="379,-654.5 379,-673.5 495,-673.5 495,-654.5 379,-654.5"/>
<text text-anchor="middle" x="437" y="-661.5" font-family="Helvetica,sans-Serif" font-size="10.00" fill="#000000">js_parse_assign_expr2</text>
</a>
</g>
</g>
<!-- Node311674&#45;&gt;Node311705 -->
<g id="edge108" class="edge">
<title>Node311674&#45;&gt;Node311705</title>
<path fill="none" stroke="#191970" d="M29.0669,-986.1591C33.9417,-898.9016 55.4438,-549.0446 92,-446 127.0798,-347.1172 126.9929,-297.4291 219,-247 266.1587,-221.1523 297.8854,-213.5574 340,-247 373.761,-273.809 425.9952,-594.5042 435.4924,-654.399"/>
<polygon fill="#191970" stroke="#191970" points="25.565,-986.101 28.511,-996.278 32.5544,-986.4851 25.565,-986.101"/>
</g>
<!-- Node311707 -->
<g id="node18" class="node">
<title>Node311707</title>
<g id="a_node18"><a xlink:href="quickjs_8c.html#a253917187cfb6b3db09d355b31edb3d5" target="_top" xlink:title="js_parse_array_literal">
<polygon fill="none" stroke="#000000" points="225,-1462.5 225,-1481.5 334,-1481.5 334,-1462.5 225,-1462.5"/>
<text text-anchor="middle" x="279.5" y="-1469.5" font-family="Helvetica,sans-Serif" font-size="10.00" fill="#000000">js_parse_array_literal</text>
</a>
</g>
</g>
<!-- Node311674&#45;&gt;Node311707 -->
<g id="edge107" class="edge">
<title>Node311674&#45;&gt;Node311707</title>
<path fill="none" stroke="#191970" d="M29.4973,-1026.1647C35.814,-1108.7067 61.3765,-1417.8774 92,-1448 126.2753,-1481.7148 182.7255,-1484.7016 224.7459,-1481.0885"/>
<polygon fill="#191970" stroke="#191970" points="32.9496,-1025.3991 28.7067,-1015.691 25.9694,-1025.9261 32.9496,-1025.3991"/>
</g>
<!-- Node311716 -->
<g id="node19" class="node">
<title>Node311716</title>
<g id="a_node19"><a xlink:href="quickjs_8c.html#a069baa06a1214006c4ec473875de010e" target="_top" xlink:title="get_lvalue">
<polygon fill="none" stroke="#ff0000" points="249,-996.5 249,-1015.5 310,-1015.5 310,-996.5 249,-996.5"/>
<text text-anchor="middle" x="279.5" y="-1003.5" font-family="Helvetica,sans-Serif" font-size="10.00" fill="#000000">get_lvalue</text>
</a>
</g>
</g>
<!-- Node311674&#45;&gt;Node311716 -->
<g id="edge105" class="edge">
<title>Node311674&#45;&gt;Node311716</title>
<path fill="none" stroke="#191970" d="M66.4646,-1006C116.5329,-1006 203.0347,-1006 248.8959,-1006"/>
<polygon fill="#191970" stroke="#191970" points="66.3614,-1002.5001 56.3614,-1006 66.3613,-1009.5001 66.3614,-1002.5001"/>
</g>
<!-- Node311718 -->
<g id="node22" class="node">
<title>Node311718</title>
<g id="a_node22"><a xlink:href="quickjs_8c.html#a521694c7cb5b3e8b8f6393ac0cf9cc4f" target="_top" xlink:title="emit_class_init_end">
<polygon fill="none" stroke="#000000" points="385.5,-1500.5 385.5,-1519.5 488.5,-1519.5 488.5,-1500.5 385.5,-1500.5"/>
<text text-anchor="middle" x="437" y="-1507.5" font-family="Helvetica,sans-Serif" font-size="10.00" fill="#000000">emit_class_init_end</text>
</a>
</g>
</g>
<!-- Node311674&#45;&gt;Node311718 -->
<g id="edge60" class="edge">
<title>Node311674&#45;&gt;Node311718</title>
<path fill="none" stroke="#191970" d="M29.5163,-1026.0152C36.1449,-1111.4258 63.5197,-1442.6882 92,-1479 166.5052,-1573.9925 336.313,-1539.0657 406.1386,-1519.5653"/>
<polygon fill="#191970" stroke="#191970" points="32.991,-1025.5509 28.7356,-1015.8482 26.0115,-1026.0869 32.991,-1025.5509"/>
</g>
<!-- Node311719 -->
<g id="node23" class="node">
<title>Node311719</title>
<g id="a_node23"><a xlink:href="quickjs_8c.html#a6b3c67655a0facc68b271ce3d401deb3" target="_top" xlink:title="emit_goto">
<polygon fill="none" stroke="#ff0000" points="108,-455.5 108,-474.5 167,-474.5 167,-455.5 108,-455.5"/>
<text text-anchor="middle" x="137.5" y="-462.5" font-family="Helvetica,sans-Serif" font-size="10.00" fill="#000000">emit_goto</text>
</a>
</g>
</g>
<!-- Node311674&#45;&gt;Node311719 -->
<g id="edge62" class="edge">
<title>Node311674&#45;&gt;Node311719</title>
<path fill="none" stroke="#191970" d="M29.579,-986.4234C34.7378,-926.1856 53.052,-738.5718 92,-588 103.2325,-544.5755 124.1216,-495.1461 133.1535,-474.6687"/>
<polygon fill="#191970" stroke="#191970" points="26.087,-986.1826 28.7434,-996.439 33.0628,-986.7646 26.087,-986.1826"/>
</g>
<!-- Node311720 -->
<g id="node24" class="node">
<title>Node311720</title>
<g id="a_node24"><a xlink:href="quickjs_8c.html#a98ab69061f85c400e0eed2c0eb47f49b" target="_top" xlink:title="js_emit_spread_code">
<polygon fill="none" stroke="#000000" points="225,-844.5 225,-863.5 334,-863.5 334,-844.5 225,-844.5"/>
<text text-anchor="middle" x="279.5" y="-851.5" font-family="Helvetica,sans-Serif" font-size="10.00" fill="#000000">js_emit_spread_code</text>
</a>
</g>
</g>
<!-- Node311674&#45;&gt;Node311720 -->
<g id="edge106" class="edge">
<title>Node311674&#45;&gt;Node311720</title>
<path fill="none" stroke="#191970" d="M39.2441,-987.8256C50.6782,-970.6418 69.8319,-945.1495 92,-929 137.6233,-895.7633 200.0216,-874.6679 240.05,-863.5882"/>
<polygon fill="#191970" stroke="#191970" points="36.1901,-986.1035 33.7159,-996.4054 42.0744,-989.895 36.1901,-986.1035"/>
</g>
<!-- Node311723 -->
<g id="node28" class="node">
<title>Node311723</title>
<g id="a_node28"><a xlink:href="quickjs_8c.html#a555f0d4061c655933eb187026d0796af" target="_top" xlink:title="emit_label">
<polygon fill="none" stroke="#000000" points="107,-597.5 107,-616.5 168,-616.5 168,-597.5 107,-597.5"/>
<text text-anchor="middle" x="137.5" y="-604.5" font-family="Helvetica,sans-Serif" font-size="10.00" fill="#000000">emit_label</text>
</a>
</g>
</g>
<!-- Node311674&#45;&gt;Node311723 -->
<g id="edge81" class="edge">
<title>Node311674&#45;&gt;Node311723</title>
<path fill="none" stroke="#191970" d="M33.4555,-986.1211C53.2324,-914.0573 120.7432,-668.0592 134.8879,-616.5182"/>
<polygon fill="#191970" stroke="#191970" points="29.9781,-985.5673 30.7068,-996.137 36.7285,-987.4199 29.9781,-985.5673"/>
</g>
<!-- Node311724 -->
<g id="node29" class="node">
<title>Node311724</title>
<g id="a_node29"><a xlink:href="quickjs_8c.html#a24d4ada6c0c50e82c89955a9300708a9" target="_top" xlink:title="put_lvalue">
<polygon fill="none" stroke="#ff0000" points="249,-920.5 249,-939.5 310,-939.5 310,-920.5 249,-920.5"/>
<text text-anchor="middle" x="279.5" y="-927.5" font-family="Helvetica,sans-Serif" font-size="10.00" fill="#000000">put_lvalue</text>
</a>
</g>
</g>
<!-- Node311674&#45;&gt;Node311724 -->
<g id="edge114" class="edge">
<title>Node311674&#45;&gt;Node311724</title>
<path fill="none" stroke="#191970" d="M43.4685,-989.1959C55.4838,-977.2867 73.2172,-962.048 92,-954 143.8842,-931.7688 210.6895,-928.5768 248.9443,-928.8756"/>
<polygon fill="#191970" stroke="#191970" points="40.8983,-986.8186 36.4449,-996.432 45.9213,-991.6941 40.8983,-986.8186"/>
</g>
<!-- Node311725 -->
<g id="node30" class="node">
<title>Node311725</title>
<g id="a_node30"><a xlink:href="quickjs_8c.html#a22324bb35cdaa36ce844506a073bb7f4" target="_top" xlink:title="emit_push_const">
<polygon fill="none" stroke="#000000" points="92,-1576.5 92,-1595.5 183,-1595.5 183,-1576.5 92,-1576.5"/>
<text text-anchor="middle" x="137.5" y="-1583.5" font-family="Helvetica,sans-Serif" font-size="10.00" fill="#000000">emit_push_const</text>
</a>
</g>
</g>
<!-- Node311674&#45;&gt;Node311725 -->
<g id="edge101" class="edge">
<title>Node311674&#45;&gt;Node311725</title>
<path fill="none" stroke="#191970" d="M29.1848,-1025.7573C34.9506,-1119.5 61.0578,-1516.7728 92,-1562 96.236,-1568.1916 102.5909,-1572.9039 109.2181,-1576.4411"/>
<polygon fill="#191970" stroke="#191970" points="32.6714,-1025.4283 28.5706,-1015.6593 25.6843,-1025.8533 32.6714,-1025.4283"/>
</g>
<!-- Node311676 -->
<g id="node3" class="node">
<title>Node311676</title>
<g id="a_node3"><a xlink:href="quickjs_8c.html#a035daca514f14aacc1e0cff81d8e423a" target="_top" xlink:title="js_parse_template">
<polygon fill="none" stroke="#000000" points="231.5,-1576.5 231.5,-1595.5 327.5,-1595.5 327.5,-1576.5 231.5,-1576.5"/>
<text text-anchor="middle" x="279.5" y="-1583.5" font-family="Helvetica,sans-Serif" font-size="10.00" fill="#000000">js_parse_template</text>
</a>
</g>
</g>
<!-- Node311675&#45;&gt;Node311676 -->
<g id="edge2" class="edge">
<title>Node311675&#45;&gt;Node311676</title>
<path fill="none" stroke="#191970" d="M138.1426,-1197.0171C140.7458,-1253.1739 153.8117,-1415.502 219,-1529 230.4997,-1549.0219 251.2576,-1566.2821 265.2089,-1576.4116"/>
<polygon fill="#191970" stroke="#191970" points="141.627,-1196.5535 137.731,-1186.7011 134.6326,-1196.8327 141.627,-1196.5535"/>
</g>
<!-- Node311675&#45;&gt;Node311677 -->
<g id="edge49" class="edge">
<title>Node311675&#45;&gt;Node311677</title>
<path fill="none" stroke="#191970" d="M139.8948,-1196.8441C145.7294,-1235.9184 164.4504,-1322.7757 219,-1366 412.699,-1519.4841 751.3038,-1403.2592 842.7059,-1367.5357"/>
<polygon fill="#191970" stroke="#191970" points="143.3387,-1196.194 138.5216,-1186.7575 136.4027,-1197.1383 143.3387,-1196.194"/>
</g>
<!-- Node311712 -->
<g id="node5" class="node">
<title>Node311712</title>
<g id="a_node5"><a xlink:href="quickjs_8c.html#ab87db7e4e299e811a54acab5fe3620a7" target="_top" xlink:title="set_object_name">
<polygon fill="none" stroke="#000000" points="234,-1224.5 234,-1243.5 325,-1243.5 325,-1224.5 234,-1224.5"/>
<text text-anchor="middle" x="279.5" y="-1231.5" font-family="Helvetica,sans-Serif" font-size="10.00" fill="#000000">set_object_name</text>
</a>
</g>
</g>
<!-- Node311675&#45;&gt;Node311712 -->
<g id="edge5" class="edge">
<title>Node311675&#45;&gt;Node311712</title>
<path fill="none" stroke="#191970" d="M170.3122,-1190.3475C185.1689,-1196.3751 202.9597,-1203.5711 219,-1210 230.9571,-1214.7923 244.2622,-1220.0758 255.3437,-1224.4626"/>
<polygon fill="#191970" stroke="#191970" points="171.603,-1187.0941 161.0209,-1186.575 168.9696,-1193.5799 171.603,-1187.0941"/>
</g>
<!-- Node311689 -->
<g id="node6" class="node">
<title>Node311689</title>
<g id="a_node6"><a xlink:href="quickjs_8c.html#aee6d0acd87f136d43f157ae1426436e6" target="_top" xlink:title="js_parse_object_literal">
<polygon fill="none" stroke="#000000" points="380.5,-1348.5 380.5,-1367.5 493.5,-1367.5 493.5,-1348.5 380.5,-1348.5"/>
<text text-anchor="middle" x="437" y="-1355.5" font-family="Helvetica,sans-Serif" font-size="10.00" fill="#000000">js_parse_object_literal</text>
</a>
</g>
</g>
<!-- Node311675&#45;&gt;Node311689 -->
<g id="edge34" class="edge">
<title>Node311675&#45;&gt;Node311689</title>
<path fill="none" stroke="#191970" d="M145.4447,-1196.014C157.4575,-1222.4306 182.7529,-1269.9203 219,-1296 246.2288,-1315.591 333.8878,-1336.588 389.4039,-1348.428"/>
<polygon fill="#191970" stroke="#191970" points="148.5865,-1194.4632 141.3684,-1186.7075 142.1745,-1197.2716 148.5865,-1194.4632"/>
</g>
<!-- Node311675&#45;&gt;Node311679 -->
<g id="edge40" class="edge">
<title>Node311675&#45;&gt;Node311679</title>
<path fill="none" stroke="#191970" d="M142.4042,-1196.3315C151.6974,-1229.0032 174.996,-1295.0846 219,-1331 275.3305,-1376.976 304.0259,-1366.6731 376,-1377 500.2559,-1394.8284 648.2575,-1350.0099 707.0623,-1329.5487"/>
<polygon fill="#191970" stroke="#191970" points="145.7684,-1195.3642 139.7799,-1186.6242 139.011,-1197.1911 145.7684,-1195.3642"/>
</g>
<!-- Node311687 -->
<g id="node9" class="node">
<title>Node311687</title>
<g id="a_node9"><a xlink:href="quickjs_8c.html#a498e1d5c7de1b59c1630e9847cde1e41" target="_top" xlink:title="js_parse_export">
<polygon fill="none" stroke="#ff0000" points="823,-1234.5 823,-1253.5 909,-1253.5 909,-1234.5 823,-1234.5"/>
<text text-anchor="middle" x="866" y="-1241.5" font-family="Helvetica,sans-Serif" font-size="10.00" fill="#000000">js_parse_export</text>
</a>
</g>
</g>
<!-- Node311675&#45;&gt;Node311687 -->
<g id="edge58" class="edge">
<title>Node311675&#45;&gt;Node311687</title>
<path fill="none" stroke="#191970" d="M150.0516,-1194.802C164.3177,-1213.3364 189.4909,-1241.2678 219,-1253 437.174,-1339.7413 730.3487,-1278.8516 830.6448,-1253.57"/>
<polygon fill="#191970" stroke="#191970" points="152.7184,-1192.5221 143.9533,-1186.5703 147.0938,-1196.689 152.7184,-1192.5221"/>
</g>
<!-- Node311675&#45;&gt;Node311697 -->
<g id="edge48" class="edge">
<title>Node311675&#45;&gt;Node311697</title>
<path fill="none" stroke="#191970" d="M155.302,-1160.3246C171.4517,-1145.4836 196.1587,-1123.4826 219,-1106 270.3899,-1066.6665 294.3914,-1070.9119 340,-1025 381.3739,-983.3509 415.2494,-921.488 429.6014,-893.1595"/>
<polygon fill="#191970" stroke="#191970" points="152.6517,-1158.0087 147.692,-1167.3709 157.4076,-1163.145 152.6517,-1158.0087"/>
</g>
<!-- Node311698 -->
<g id="node11" class="node">
<title>Node311698</title>
<g id="a_node11"><a xlink:href="quickjs_8c.html#a9660cf21845352b14655d423389d6620" target="_top" xlink:title="js_parse_var">
<polygon fill="none" stroke="#000000" points="559,-956.5 559,-975.5 631,-975.5 631,-956.5 559,-956.5"/>
<text text-anchor="middle" x="595" y="-963.5" font-family="Helvetica,sans-Serif" font-size="10.00" fill="#000000">js_parse_var</text>
</a>
</g>
</g>
<!-- Node311675&#45;&gt;Node311698 -->
<g id="edge56" class="edge">
<title>Node311675&#45;&gt;Node311698</title>
<path fill="none" stroke="#191970" d="M179.0195,-1180.4088C220.3237,-1182.7681 285.2647,-1183.6772 340,-1172 414.4277,-1156.1217 438.8383,-1153.8696 498,-1106 545.3535,-1067.6847 579.3071,-1000.38 590.7638,-975.5507"/>
<polygon fill="#191970" stroke="#191970" points="178.9923,-1176.9003 168.7927,-1179.767 178.5538,-1183.8865 178.9923,-1176.9003"/>
</g>
<!-- Node311682 -->
<g id="node12" class="node">
<title>Node311682</title>
<g id="a_node12"><a xlink:href="quickjs_8c.html#ac188b916dd086803591a67de7e7a85f6" target="_top" xlink:title="js_parse_for_in_of">
<polygon fill="none" stroke="#000000" points="547,-616.5 547,-635.5 643,-635.5 643,-616.5 547,-616.5"/>
<text text-anchor="middle" x="595" y="-623.5" font-family="Helvetica,sans-Serif" font-size="10.00" fill="#000000">js_parse_for_in_of</text>
</a>
</g>
</g>
<!-- Node311675&#45;&gt;Node311682 -->
<g id="edge57" class="edge">
<title>Node311675&#45;&gt;Node311682</title>
<path fill="none" stroke="#191970" d="M164.0008,-1162.4527C179.8315,-1153.9049 200.4138,-1143.0383 219,-1134 271.9601,-1108.2458 291.5869,-1113.5295 340,-1080 422.1596,-1023.0987 445.8567,-1005.2586 498,-920 505.9747,-906.9607 576.3802,-684.9138 591.9576,-635.6353"/>
<polygon fill="#191970" stroke="#191970" points="161.9365,-1159.5909 154.8183,-1167.4383 165.2766,-1165.7426 161.9365,-1159.5909"/>
</g>
<!-- Node311675&#45;&gt;Node311685 -->
<g id="edge59" class="edge">
<title>Node311675&#45;&gt;Node311685</title>
<path fill="none" stroke="#191970" d="M178.8891,-1173.6958C221.0728,-1169.093 287.5719,-1158.3716 340,-1134 358.3809,-1125.4555 358.0348,-1115.3871 376,-1106 426.3345,-1079.6994 458.0995,-1108.4133 498,-1068 537.4198,-1028.0735 511.9617,-998.5981 534,-947 550.1261,-909.2441 576.3755,-867.9346 588.4924,-849.6395"/>
<polygon fill="#191970" stroke="#191970" points="178.3027,-1170.2375 168.7117,-1174.7388 179.0164,-1177.201 178.3027,-1170.2375"/>
</g>
<!-- Node311675&#45;&gt;Node311705 -->
<g id="edge51" class="edge">
<title>Node311675&#45;&gt;Node311705</title>
<path fill="none" stroke="#191970" d="M141.0521,-1157.4623C151.4485,-1102.2779 183.3393,-946.9107 219,-911 258.7183,-871.0032 302.2371,-914.8479 340,-873 393.4894,-813.7244 328.4257,-761.1202 376,-697 383.892,-686.3633 396.2643,-678.7747 407.8095,-673.5786"/>
<polygon fill="#191970" stroke="#191970" points="137.5969,-1156.8991 139.2152,-1167.3696 144.4796,-1158.1752 137.5969,-1156.8991"/>
</g>
<!-- Node311713 -->
<g id="node16" class="node">
<title>Node311713</title>
<g id="a_node16"><a xlink:href="quickjs_8c.html#a1e86277b96b55991d572603e00fef94d" target="_top" xlink:title="emit_class_field_init">
<polygon fill="none" stroke="#000000" points="227,-654.5 227,-673.5 332,-673.5 332,-654.5 227,-654.5"/>
<text text-anchor="middle" x="279.5" y="-661.5" font-family="Helvetica,sans-Serif" font-size="10.00" fill="#000000">emit_class_field_init</text>
</a>
</g>
</g>
<!-- Node311675&#45;&gt;Node311713 -->
<g id="edge35" class="edge">
<title>Node311675&#45;&gt;Node311713</title>
<path fill="none" stroke="#191970" d="M138.7546,-1156.968C143.1575,-1095.4251 160.9293,-904.4683 219,-759 232.5565,-725.0406 258.5897,-690.0032 271.6383,-673.5829"/>
<polygon fill="#191970" stroke="#191970" points="135.2449,-1156.9944 138.0627,-1167.2077 142.229,-1157.4664 135.2449,-1156.9944"/>
</g>
<!-- Node311714 -->
<g id="node17" class="node">
<title>Node311714</title>
<g id="a_node17"><a xlink:href="quickjs_8c.html#a38e4107378b0d9abd638e4fe13541678" target="_top" xlink:title="emit_class_init_start">
<polygon fill="none" stroke="#ff0000" points="226,-768.5 226,-787.5 333,-787.5 333,-768.5 226,-768.5"/>
<text text-anchor="middle" x="279.5" y="-775.5" font-family="Helvetica,sans-Serif" font-size="10.00" fill="#000000">emit_class_init_start</text>
</a>
</g>
</g>
<!-- Node311675&#45;&gt;Node311714 -->
<g id="edge38" class="edge">
<title>Node311675&#45;&gt;Node311714</title>
<path fill="none" stroke="#191970" d="M138.3067,-1157.1799C141.3272,-1102.2706 155.3568,-944.9892 219,-835 230.5639,-815.0151 251.3057,-797.7457 265.2359,-787.604"/>
<polygon fill="#191970" stroke="#191970" points="134.805,-1157.1311 137.8154,-1167.2893 141.7968,-1157.471 134.805,-1157.1311"/>
</g>
<!-- Node311675&#45;&gt;Node311707 -->
<g id="edge41" class="edge">
<title>Node311675&#45;&gt;Node311707</title>
<path fill="none" stroke="#191970" d="M141.29,-1196.4429C150.0265,-1238.0789 174.3326,-1337.9273 219,-1410 232.1515,-1431.2205 253.6857,-1450.9899 267.2014,-1462.2675"/>
<polygon fill="#191970" stroke="#191970" points="144.6961,-1195.6284 139.276,-1186.525 137.8362,-1197.0216 144.6961,-1195.6284"/>
</g>
<!-- Node311675&#45;&gt;Node311716 -->
<g id="edge43" class="edge">
<title>Node311675&#45;&gt;Node311716</title>
<path fill="none" stroke="#191970" d="M149.9035,-1158.9395C165.3164,-1136.8557 192.7943,-1098.6374 219,-1068 235.6187,-1048.5709 256.8449,-1027.6054 269.2308,-1015.7118"/>
<polygon fill="#191970" stroke="#191970" points="146.8961,-1157.1345 144.0756,-1167.3471 152.6491,-1161.1224 146.8961,-1157.1345"/>
</g>
<!-- Node311700 -->
<g id="node20" class="node">
<title>Node311700</title>
<g id="a_node20"><a xlink:href="quickjs_8c.html#a2ecfb6abb190101748202a8aa5821fba" target="_top" xlink:title="js_parse_delete">
<polygon fill="none" stroke="#ff0000" points="237,-1500.5 237,-1519.5 322,-1519.5 322,-1500.5 237,-1500.5"/>
<text text-anchor="middle" x="279.5" y="-1507.5" font-family="Helvetica,sans-Serif" font-size="10.00" fill="#000000">js_parse_delete</text>
</a>
</g>
</g>
<!-- Node311675&#45;&gt;Node311700 -->
<g id="edge50" class="edge">
<title>Node311675&#45;&gt;Node311700</title>
<path fill="none" stroke="#191970" d="M140.0999,-1196.7225C148.6324,-1258.6185 177.6236,-1447.4863 219,-1491 223.9311,-1496.1858 230.2585,-1499.9631 236.9552,-1502.7128"/>
<polygon fill="#191970" stroke="#191970" points="143.5541,-1196.1477 138.7464,-1186.7065 136.6172,-1197.0851 143.5541,-1196.1477"/>
</g>
<!-- Node311717 -->
<g id="node21" class="node">
<title>Node311717</title>
<g id="a_node21"><a xlink:href="quickjs_8c.html#acea69d5aa6481a035d0833b8bce455f5" target="_top" xlink:title="emit_return">
<polygon fill="none" stroke="#000000" points="247,-540.5 247,-559.5 312,-559.5 312,-540.5 247,-540.5"/>
<text text-anchor="middle" x="279.5" y="-547.5" font-family="Helvetica,sans-Serif" font-size="10.00" fill="#000000">emit_return</text>
</a>
</g>
</g>
<!-- Node311675&#45;&gt;Node311717 -->
<g id="edge52" class="edge">
<title>Node311675&#45;&gt;Node311717</title>
<path fill="none" stroke="#191970" d="M139.4132,-1157.3496C147.7812,-1073.1157 182.3827,-742.4177 219,-645 231.8653,-610.7728 258.2171,-575.8589 271.4877,-559.5246"/>
<polygon fill="#191970" stroke="#191970" points="135.9247,-1157.0615 138.4279,-1167.3563 142.891,-1157.7475 135.9247,-1157.0615"/>
</g>
<!-- Node311676&#45;&gt;Node311677 -->
<g id="edge3" class="edge">
<title>Node311676&#45;&gt;Node311677</title>
<path fill="none" stroke="#191970" d="M338.0495,-1593.7662C437.8094,-1603.7251 642.666,-1609.576 774,-1513 826.69,-1474.2546 854.6669,-1395.4627 863.1636,-1367.8373"/>
<polygon fill="#191970" stroke="#191970" points="338.1715,-1590.2599 327.861,-1592.6979 337.4414,-1597.2218 338.1715,-1590.2599"/>
</g>
<!-- Node311677&#45;&gt;Node311677 -->
<g id="edge4" class="edge">
<title>Node311677&#45;&gt;Node311677</title>
<path fill="none" stroke="#191970" d="M841.4465,-1377.0292C842.7858,-1382.128 850.9703,-1386 866,-1386 889.4609,-1386 896.2426,-1376.5653 886.345,-1367.7571"/>
<polygon fill="#191970" stroke="#191970" points="844.709,-1378.3096 845.655,-1367.7571 838.3348,-1375.4164 844.709,-1378.3096"/>
</g>
<!-- Node311712&#45;&gt;Node311689 -->
<g id="edge6" class="edge">
<title>Node311712&#45;&gt;Node311689</title>
<path fill="none" stroke="#191970" d="M299.6541,-1249.8674C332.7298,-1275.9079 397.5564,-1326.946 424.6443,-1348.2724"/>
<polygon fill="#191970" stroke="#191970" points="301.6195,-1246.9601 291.5972,-1243.5242 297.2893,-1252.4601 301.6195,-1246.9601"/>
</g>
<!-- Node311712&#45;&gt;Node311679 -->
<g id="edge8" class="edge">
<title>Node311712&#45;&gt;Node311679</title>
<path fill="none" stroke="#191970" d="M324.8149,-1245.9826C340.918,-1250.0514 359.2133,-1254.4596 376,-1258 489.7189,-1281.9836 625.2339,-1303.6412 691.8581,-1313.8389"/>
<polygon fill="#191970" stroke="#191970" points="325.6598,-1242.5861 315.1048,-1243.5039 323.9283,-1249.3686 325.6598,-1242.5861"/>
</g>
<!-- Node311712&#45;&gt;Node311687 -->
<g id="edge32" class="edge">
<title>Node311712&#45;&gt;Node311687</title>
<path fill="none" stroke="#191970" d="M335.1489,-1234.9488C451.5036,-1236.9327 718.3662,-1241.4828 822.8895,-1243.265"/>
<polygon fill="#191970" stroke="#191970" points="335.0919,-1231.4474 325.0336,-1234.7764 334.9725,-1238.4464 335.0919,-1231.4474"/>
</g>
<!-- Node311712&#45;&gt;Node311697 -->
<g id="edge13" class="edge">
<title>Node311712&#45;&gt;Node311697</title>
<path fill="none" stroke="#191970" d="M287.9149,-1214.9797C315.8062,-1151.9365 404.8834,-950.5936 430.219,-893.3272"/>
<polygon fill="#191970" stroke="#191970" points="284.5579,-1213.9168 283.7127,-1224.4779 290.9594,-1216.7489 284.5579,-1213.9168"/>
</g>
<!-- Node311712&#45;&gt;Node311698 -->
<g id="edge31" class="edge">
<title>Node311712&#45;&gt;Node311698</title>
<path fill="none" stroke="#191970" d="M335.4663,-1233.9514C383.5741,-1231.0771 452.2355,-1219.8617 498,-1182 566.7312,-1125.1376 588.6381,-1009.4742 593.7177,-975.5527"/>
<polygon fill="#191970" stroke="#191970" points="335.041,-1230.468 325.2256,-1234.4566 335.386,-1237.4595 335.041,-1230.468"/>
</g>
<!-- Node311712&#45;&gt;Node311685 -->
<g id="edge33" class="edge">
<title>Node311712&#45;&gt;Node311685</title>
<path fill="none" stroke="#191970" d="M305.8185,-1219.3218C362.4967,-1187.6116 491.5265,-1114.8456 498,-1106 540.7901,-1047.5296 507.772,-1014.5416 534,-947 548.8616,-908.7288 575.7433,-867.6769 588.2553,-849.5429"/>
<polygon fill="#191970" stroke="#191970" points="303.7674,-1216.4585 296.746,-1224.3926 307.1827,-1222.5689 303.7674,-1216.4585"/>
</g>
<!-- Node311712&#45;&gt;Node311705 -->
<g id="edge25" class="edge">
<title>Node311712&#45;&gt;Node311705</title>
<path fill="none" stroke="#191970" d="M285.6447,-1214.6114C297.1734,-1177.8586 322.4638,-1095.4235 340,-1025 358.8717,-949.2134 355.9776,-928.4908 376,-853 394.4741,-783.3468 423.4411,-701.4521 433.4548,-673.7292"/>
<polygon fill="#191970" stroke="#191970" points="282.2001,-1213.8973 282.5324,-1224.4869 288.8764,-1216.0013 282.2001,-1213.8973"/>
</g>
<!-- Node311689&#45;&gt;Node311677 -->
<g id="edge7" class="edge">
<title>Node311689&#45;&gt;Node311677</title>
<path fill="none" stroke="#191970" d="M503.7305,-1358C587.8184,-1358 730.8511,-1358 809.6906,-1358"/>
<polygon fill="#191970" stroke="#191970" points="503.5254,-1354.5001 493.5254,-1358 503.5254,-1361.5001 503.5254,-1354.5001"/>
</g>
<!-- Node311679&#45;&gt;Node311677 -->
<g id="edge9" class="edge">
<title>Node311679&#45;&gt;Node311677</title>
<path fill="none" stroke="#191970" d="M776.3669,-1332.3906C794.5807,-1337.5945 815.4393,-1343.5541 832.4492,-1348.4141"/>
<polygon fill="#191970" stroke="#191970" points="777.1383,-1328.971 766.5615,-1329.589 775.2152,-1335.7016 777.1383,-1328.971"/>
</g>
<!-- Node311679&#45;&gt;Node311680 -->
<g id="edge10" class="edge">
<title>Node311679&#45;&gt;Node311680</title>
<path fill="none" stroke="#191970" d="M736.0494,-1300.1672C754.1868,-1182.2063 847.6208,-574.534 863.6563,-470.2427"/>
<polygon fill="#191970" stroke="#191970" points="732.5541,-1299.8699 734.4937,-1310.2856 739.4728,-1300.9337 732.5541,-1299.8699"/>
</g>
<!-- Node311679&#45;&gt;Node311687 -->
<g id="edge12" class="edge">
<title>Node311679&#45;&gt;Node311687</title>
<path fill="none" stroke="#191970" d="M758.6458,-1305.3452C785.3749,-1290.0715 826.4802,-1266.5828 849.2922,-1253.5473"/>
<polygon fill="#191970" stroke="#191970" points="756.7905,-1302.3743 749.8445,-1310.3745 760.2635,-1308.452 756.7905,-1302.3743"/>
</g>
<!-- Node311680&#45;&gt;Node311680 -->
<g id="edge11" class="edge">
<title>Node311680&#45;&gt;Node311680</title>
<path fill="none" stroke="#191970" d="M842.5452,-480.4579C845.4563,-485.179 853.2745,-488.5 866,-488.5 886.8828,-488.5 894.5507,-479.5566 889.0037,-470.159"/>
<polygon fill="#191970" stroke="#191970" points="846.0553,-480.3026 842.9963,-470.159 839.062,-479.9962 846.0553,-480.3026"/>
</g>
<!-- Node311697&#45;&gt;Node311677 -->
<g id="edge15" class="edge">
<title>Node311697&#45;&gt;Node311677</title>
<path fill="none" stroke="#191970" d="M504.8919,-885.185C552.0036,-893.2955 613.6593,-910.513 656,-947 774.3525,-1048.99 736.0509,-1125.3744 810,-1263 827.1269,-1294.8747 849.4882,-1331.465 860.0198,-1348.4345"/>
<polygon fill="#191970" stroke="#191970" points="505.2012,-881.6895 494.7697,-883.5427 504.0801,-888.5991 505.2012,-881.6895"/>
</g>
<!-- Node311697&#45;&gt;Node311680 -->
<g id="edge21" class="edge">
<title>Node311697&#45;&gt;Node311680</title>
<path fill="none" stroke="#191970" d="M464.2444,-856.688C474.9772,-848.031 487.2768,-837.7792 498,-828 572.2727,-760.2663 792.5626,-531.4991 851.4098,-470.2117"/>
<polygon fill="#191970" stroke="#191970" points="462.0202,-853.9852 456.3944,-862.963 466.3909,-859.4529 462.0202,-853.9852"/>
</g>
<!-- Node311697&#45;&gt;Node311697 -->
<g id="edge14" class="edge">
<title>Node311697&#45;&gt;Node311697</title>
<path fill="none" stroke="#191970" d="M409.2807,-903.4579C412.721,-908.179 421.9608,-911.5 437,-911.5 461.6797,-911.5 470.7418,-902.5566 464.1862,-893.159"/>
<polygon fill="#191970" stroke="#191970" points="412.7921,-903.3266 409.8138,-893.159 405.8014,-902.9647 412.7921,-903.3266"/>
</g>
<!-- Node311697&#45;&gt;Node311698 -->
<g id="edge16" class="edge">
<title>Node311697&#45;&gt;Node311698</title>
<path fill="none" stroke="#191970" d="M473.0159,-898.0595C505.8567,-916.3505 552.9459,-942.5774 577.9235,-956.489"/>
<polygon fill="#191970" stroke="#191970" points="474.6006,-894.9359 464.1612,-893.1277 471.1945,-901.0513 474.6006,-894.9359"/>
</g>
<!-- Node311697&#45;&gt;Node311682 -->
<g id="edge19" class="edge">
<title>Node311697&#45;&gt;Node311682</title>
<path fill="none" stroke="#191970" d="M489.0477,-857.1248C492.3931,-854.4207 495.4397,-851.3905 498,-848 551.9007,-776.6227 477.2111,-719.1015 534,-650 539.2025,-643.6695 546.3038,-639.0015 553.8243,-635.5616"/>
<polygon fill="#191970" stroke="#191970" points="487.0064,-854.2812 480.7877,-862.859 490.9983,-860.0314 487.0064,-854.2812"/>
</g>
<!-- Node311697&#45;&gt;Node311685 -->
<g id="edge22" class="edge">
<title>Node311697&#45;&gt;Node311685</title>
<path fill="none" stroke="#191970" d="M504.9525,-861.657C522.147,-857.5216 540.0537,-853.2149 555.3275,-849.5415"/>
<polygon fill="#191970" stroke="#191970" points="503.8405,-858.3246 494.9362,-864.066 505.4774,-865.1305 503.8405,-858.3246"/>
</g>
<!-- Node311698&#45;&gt;Node311680 -->
<g id="edge17" class="edge">
<title>Node311698&#45;&gt;Node311680</title>
<path fill="none" stroke="#191970" d="M605.8845,-947.4177C618.2608,-926.1722 638.9585,-890.287 656,-859 737.8613,-708.7081 831.4568,-523.6745 858.3908,-470.1524"/>
<polygon fill="#191970" stroke="#191970" points="602.6983,-945.9332 600.678,-956.3337 608.7431,-949.4631 602.6983,-945.9332"/>
</g>
<!-- Node311698&#45;&gt;Node311687 -->
<g id="edge18" class="edge">
<title>Node311698&#45;&gt;Node311687</title>
<path fill="none" stroke="#191970" d="M611.3176,-982.7391C662.2314,-1034.968 817.1268,-1193.8644 856.7108,-1234.4709"/>
<polygon fill="#191970" stroke="#191970" points="613.815,-980.2869 604.3284,-975.5694 608.8026,-985.1732 613.815,-980.2869"/>
</g>
<!-- Node311682&#45;&gt;Node311680 -->
<g id="edge20" class="edge">
<title>Node311682&#45;&gt;Node311680</title>
<path fill="none" stroke="#191970" d="M604.0798,-606.947C618.5774,-578.6475 649.6897,-525.8592 692,-498 728.7746,-473.7857 778.0557,-463.2024 814.7825,-458.5793"/>
<polygon fill="#191970" stroke="#191970" points="600.8112,-605.6602 599.5004,-616.1736 607.0813,-608.7723 600.8112,-605.6602"/>
</g>
<!-- Node311685&#45;&gt;Node311679 -->
<g id="edge23" class="edge">
<title>Node311685&#45;&gt;Node311679</title>
<path fill="none" stroke="#191970" d="M616.206,-855.9286C629.7417,-867.2683 646.4773,-883.696 656,-902 695.1649,-977.2805 726.109,-1254.6968 731.9905,-1310.2704"/>
<polygon fill="#191970" stroke="#191970" points="618.2698,-853.0969 608.2847,-849.5543 613.8812,-858.5504 618.2698,-853.0969"/>
</g>
<!-- Node311685&#45;&gt;Node311687 -->
<g id="edge24" class="edge">
<title>Node311685&#45;&gt;Node311687</title>
<path fill="none" stroke="#191970" d="M666.186,-831.8033C702.6293,-831.5967 745.2531,-838.104 774,-864 831.8715,-916.1323 859.9202,-1180.193 865.107,-1234.3032"/>
<polygon fill="#191970" stroke="#191970" points="666.0069,-828.3063 656.0876,-832.029 666.1634,-835.3046 666.0069,-828.3063"/>
</g>
<!-- Node311705&#45;&gt;Node311698 -->
<g id="edge29" class="edge">
<title>Node311705&#45;&gt;Node311698</title>
<path fill="none" stroke="#191970" d="M445.9779,-682.932C462.6971,-717.9837 499.9964,-795.2293 534,-859 553.4176,-895.4159 578.2279,-937.7395 589.2633,-956.3653"/>
<polygon fill="#191970" stroke="#191970" points="449.1084,-681.365 441.6514,-673.8388 442.7874,-684.3726 449.1084,-681.365"/>
</g>
<!-- Node311705&#45;&gt;Node311682 -->
<g id="edge30" class="edge">
<title>Node311705&#45;&gt;Node311682</title>
<path fill="none" stroke="#191970" d="M486.7616,-652.032C508.9029,-646.7069 534.6116,-640.5238 555.4166,-635.5201"/>
<polygon fill="#191970" stroke="#191970" points="485.7744,-648.6696 476.8701,-654.411 487.4113,-655.4755 485.7744,-648.6696"/>
</g>
<!-- Node311705&#45;&gt;Node311705 -->
<g id="edge28" class="edge">
<title>Node311705&#45;&gt;Node311705</title>
<path fill="none" stroke="#191970" d="M407.8809,-682.6539C409.0981,-687.9368 418.8044,-692 437,-692 464.7266,-692 472.7413,-682.5653 461.0441,-673.7571"/>
<polygon fill="#191970" stroke="#191970" points="411.0412,-684.1775 412.9559,-673.7571 404.9609,-680.7091 411.0412,-684.1775"/>
</g>
<!-- Node311704 -->
<g id="node15" class="node">
<title>Node311704</title>
<g id="a_node15"><a xlink:href="quickjs_8c.html#a6686f5baeecd532b043761b6c24ed431" target="_top" xlink:title="js_parse_cond_expr">
<polygon fill="none" stroke="#000000" points="543,-350.5 543,-369.5 647,-369.5 647,-350.5 543,-350.5"/>
<text text-anchor="middle" x="595" y="-357.5" font-family="Helvetica,sans-Serif" font-size="10.00" fill="#000000">js_parse_cond_expr</text>
</a>
</g>
</g>
<!-- Node311705&#45;&gt;Node311704 -->
<g id="edge26" class="edge">
<title>Node311705&#45;&gt;Node311704</title>
<path fill="none" stroke="#191970" d="M445.2148,-644.9794C473.048,-586.6092 563.4442,-412.7889 588.5054,-369.601"/>
<polygon fill="#191970" stroke="#191970" points="441.9725,-643.6504 440.9056,-654.1914 448.3131,-646.6164 441.9725,-643.6504"/>
</g>
<!-- Node311704&#45;&gt;Node311705 -->
<g id="edge27" class="edge">
<title>Node311704&#45;&gt;Node311705</title>
<path fill="none" stroke="#191970" d="M586.9246,-378.7282C559.2893,-436.7362 468.8217,-610.7081 443.5879,-654.238"/>
<polygon fill="#191970" stroke="#191970" points="590.1335,-380.1285 591.1951,-369.587 583.7914,-377.1657 590.1335,-380.1285"/>
</g>
<!-- Node311713&#45;&gt;Node311677 -->
<g id="edge36" class="edge">
<title>Node311713&#45;&gt;Node311677</title>
<path fill="none" stroke="#191970" d="M304.0795,-649.2942C368.7123,-612.7343 546.0098,-526.3032 656,-607 897.4645,-784.1559 712.9461,-979.6807 810,-1263 821.6024,-1296.8696 846.1351,-1331.9483 858.517,-1348.3975"/>
<polygon fill="#191970" stroke="#191970" points="302.3029,-646.2784 295.3824,-654.3007 305.7952,-652.345 302.3029,-646.2784"/>
</g>
<!-- Node311713&#45;&gt;Node311685 -->
<g id="edge37" class="edge">
<title>Node311713&#45;&gt;Node311685</title>
<path fill="none" stroke="#191970" d="M309.8176,-650.667C354.6086,-633.1847 439.4675,-608.7419 498,-645 567.4307,-688.0091 588.7528,-797.2636 593.7208,-830.3556"/>
<polygon fill="#191970" stroke="#191970" points="308.3311,-647.4926 300.3712,-654.4848 310.9541,-653.9826 308.3311,-647.4926"/>
</g>
<!-- Node311714&#45;&gt;Node311679 -->
<g id="edge39" class="edge">
<title>Node311714&#45;&gt;Node311679</title>
<path fill="none" stroke="#191970" d="M330.4575,-790.1656C333.6982,-791.0838 336.9014,-792.0314 340,-793 414.5592,-816.3075 610.6848,-883.3694 656,-947 699.9188,-1008.6697 726.8785,-1258.4779 732.0767,-1310.4858"/>
<polygon fill="#191970" stroke="#191970" points="331.2579,-786.7562 320.6898,-787.5076 329.4199,-793.5106 331.2579,-786.7562"/>
</g>
<!-- Node311707&#45;&gt;Node311677 -->
<g id="edge42" class="edge">
<title>Node311707&#45;&gt;Node311677</title>
<path fill="none" stroke="#191970" d="M329.2707,-1485.3131C333.0074,-1487.0055 336.6298,-1488.8948 340,-1491 359.7312,-1503.3254 354.6287,-1519.8075 376,-1529 463.8665,-1566.7942 740.0703,-1506.8527 774,-1486 821.7966,-1456.6248 852.039,-1392.2158 862.1918,-1367.7186"/>
<polygon fill="#191970" stroke="#191970" points="330.409,-1481.9983 319.8258,-1481.5011 327.789,-1488.4895 330.409,-1481.9983"/>
</g>
<!-- Node311716&#45;&gt;Node311697 -->
<g id="edge44" class="edge">
<title>Node311716&#45;&gt;Node311697</title>
<path fill="none" stroke="#191970" d="M319.6117,-993.0069C326.6894,-989.9118 333.7761,-986.2482 340,-982 376.9103,-956.8061 410.1168,-915.2491 426.4057,-893.0616"/>
<polygon fill="#191970" stroke="#191970" points="318.0047,-989.8814 310.0477,-996.8769 320.6305,-996.3703 318.0047,-989.8814"/>
</g>
<!-- Node311716&#45;&gt;Node311698 -->
<g id="edge46" class="edge">
<title>Node311716&#45;&gt;Node311698</title>
<path fill="none" stroke="#191970" d="M320.2258,-1000.8367C382.2417,-992.9741 499.387,-978.1221 558.6722,-970.6057"/>
<polygon fill="#191970" stroke="#191970" points="319.5185,-997.3982 310.0381,-1002.1283 320.399,-1004.3426 319.5185,-997.3982"/>
</g>
<!-- Node311716&#45;&gt;Node311682 -->
<g id="edge47" class="edge">
<title>Node311716&#45;&gt;Node311682</title>
<path fill="none" stroke="#191970" d="M300.6483,-990.2105C313.4817,-979.7171 329.3788,-964.9674 340,-949 365.2376,-911.0591 347.3344,-888.4221 376,-853 416.4852,-802.9723 459.5054,-826.5751 498,-775 532.5808,-728.6687 495.0946,-692.7643 534,-650 539.7438,-643.6865 547.3578,-639.0123 555.2531,-635.5589"/>
<polygon fill="#191970" stroke="#191970" points="298.4164,-987.5134 292.7436,-996.4616 302.7584,-993.004 298.4164,-987.5134"/>
</g>
<!-- Node311716&#45;&gt;Node311705 -->
<g id="edge45" class="edge">
<title>Node311716&#45;&gt;Node311705</title>
<path fill="none" stroke="#191970" d="M301.3764,-990.3266C314.3526,-979.963 330.1413,-965.311 340,-949 370.7902,-898.0581 357.1376,-876.4564 376,-820 394.7989,-763.7336 422.3727,-698.0803 432.7989,-673.7301"/>
<polygon fill="#191970" stroke="#191970" points="299.1464,-987.626 293.3459,-996.492 303.4092,-993.1784 299.1464,-987.626"/>
</g>
<!-- Node311717&#45;&gt;Node311680 -->
<g id="edge54" class="edge">
<title>Node311717&#45;&gt;Node311680</title>
<path fill="none" stroke="#191970" d="M321.9788,-538.4324C396.3178,-518.7544 555.1297,-479.2256 692,-462 733.0947,-456.8281 780.0375,-455.187 814.7999,-454.7788"/>
<polygon fill="#191970" stroke="#191970" points="320.8238,-535.1179 312.0609,-541.0729 322.6248,-541.8822 320.8238,-535.1179"/>
</g>
<!-- Node311717&#45;&gt;Node311685 -->
<g id="edge55" class="edge">
<title>Node311717&#45;&gt;Node311685</title>
<path fill="none" stroke="#191970" d="M322.4633,-553.78C370.8572,-560.1931 449.1134,-577.3544 498,-623 563.1505,-683.8312 587.4152,-796.4951 593.4073,-830.2174"/>
<polygon fill="#191970" stroke="#191970" points="322.6682,-550.2789 312.3163,-552.5349 321.8155,-557.2268 322.6682,-550.2789"/>
</g>
<!-- Node311717&#45;&gt;Node311705 -->
<g id="edge53" class="edge">
<title>Node311717&#45;&gt;Node311705</title>
<path fill="none" stroke="#191970" d="M319.3667,-563.3663C326.4685,-566.4247 333.6268,-569.9793 340,-574 377.3039,-597.5343 413.2144,-636.3922 428.8382,-654.3502"/>
<polygon fill="#191970" stroke="#191970" points="320.3796,-560.0009 309.7964,-559.506 317.7611,-566.4927 320.3796,-560.0009"/>
</g>
<!-- Node311718&#45;&gt;Node311679 -->
<g id="edge61" class="edge">
<title>Node311718&#45;&gt;Node311679</title>
<path fill="none" stroke="#191970" d="M498.8103,-1504.8089C545.9655,-1498.1323 610.3702,-1482.8725 656,-1448 698.0338,-1415.8758 721.972,-1353.6683 729.9626,-1329.7219"/>
<polygon fill="#191970" stroke="#191970" points="498.1772,-1501.3621 488.7231,-1506.1443 499.096,-1508.3015 498.1772,-1501.3621"/>
</g>
<!-- Node311719&#45;&gt;Node311680 -->
<g id="edge79" class="edge">
<title>Node311719&#45;&gt;Node311680</title>
<path fill="none" stroke="#191970" d="M139.1132,-445.1834C145.1786,-375.5532 168.8725,-143.5357 219,-92 288.597,-20.4479 337.1829,-38 437,-38 437,-38 437,-38 595,-38 790.5618,-38 852.2125,-364.4319 863.8241,-439.6642"/>
<polygon fill="#191970" stroke="#191970" points="135.6176,-444.984 138.2626,-455.2434 142.5927,-445.5738 135.6176,-444.984"/>
</g>
<!-- Node311719&#45;&gt;Node311697 -->
<g id="edge67" class="edge">
<title>Node311719&#45;&gt;Node311697</title>
<path fill="none" stroke="#191970" d="M143.7687,-484.5193C154.4312,-514.6751 178.9249,-572.4973 219,-605 262.9905,-640.6783 298.4718,-606.4836 340,-645 374.1341,-676.6585 418.4361,-816.3029 432.5063,-862.846"/>
<polygon fill="#191970" stroke="#191970" points="146.9861,-483.1078 140.463,-474.7591 140.356,-485.3534 146.9861,-483.1078"/>
</g>
<!-- Node311719&#45;&gt;Node311682 -->
<g id="edge78" class="edge">
<title>Node311719&#45;&gt;Node311682</title>
<path fill="none" stroke="#191970" d="M139.955,-445.5446C147.8825,-386.1849 174.8759,-209.4018 219,-176 268.8899,-138.2335 454.2263,-169.2879 498,-214 550.5086,-267.6342 517.0004,-305.8919 534,-379 555.5084,-471.4984 583.915,-582.8468 592.4623,-616.1404"/>
<polygon fill="#191970" stroke="#191970" points="136.4808,-445.1203 138.6604,-455.4886 143.4222,-446.0241 136.4808,-445.1203"/>
</g>
<!-- Node311719&#45;&gt;Node311685 -->
<g id="edge80" class="edge">
<title>Node311719&#45;&gt;Node311685</title>
<path fill="none" stroke="#191970" d="M141.2156,-445.2063C151.502,-392.7639 182.0482,-252.4405 219,-226 270.8976,-188.8653 460.2342,-242.5598 498,-294 544.4027,-357.2043 518.2157,-568.196 534,-645 548.9956,-717.9661 580.4367,-802.4402 591.2517,-830.4421"/>
<polygon fill="#191970" stroke="#191970" points="137.7355,-444.77 139.284,-455.2511 144.6095,-446.092 137.7355,-444.77"/>
</g>
<!-- Node311719&#45;&gt;Node311705 -->
<g id="edge76" class="edge">
<title>Node311719&#45;&gt;Node311705</title>
<path fill="none" stroke="#191970" d="M147.4301,-483.298C160.8187,-506.3607 186.7422,-545.7864 219,-569 265.3246,-602.3364 287.8128,-588.8963 340,-612 369.3527,-624.9947 401.9544,-643.3284 420.8996,-654.3973"/>
<polygon fill="#191970" stroke="#191970" points="150.4367,-481.504 142.4776,-474.5108 144.3385,-484.941 150.4367,-481.504"/>
</g>
<!-- Node311719&#45;&gt;Node311704 -->
<g id="edge75" class="edge">
<title>Node311719&#45;&gt;Node311704</title>
<path fill="none" stroke="#191970" d="M139.3225,-445.1556C145.7256,-380.3167 169.5282,-176.6551 219,-138 317.6121,-60.9488 399.2007,-99.189 498,-176 558.7249,-223.2102 585.5505,-319.2385 592.849,-350.166"/>
<polygon fill="#191970" stroke="#191970" points="135.8234,-444.9797 138.3555,-455.2675 142.7916,-445.6461 135.8234,-444.9797"/>
</g>
<!-- Node311719&#45;&gt;Node311713 -->
<g id="edge63" class="edge">
<title>Node311719&#45;&gt;Node311713</title>
<path fill="none" stroke="#191970" d="M144.375,-484.1991C159.2093,-524.7345 194.8313,-617.1983 219,-640 225.6575,-646.281 234.1589,-650.99 242.6709,-654.493"/>
<polygon fill="#191970" stroke="#191970" points="147.6169,-482.8721 140.9191,-474.663 141.0357,-485.2572 147.6169,-482.8721"/>
</g>
<!-- Node311719&#45;&gt;Node311714 -->
<g id="edge64" class="edge">
<title>Node311719&#45;&gt;Node311714</title>
<path fill="none" stroke="#191970" d="M144.5983,-484.1482C164.0026,-536.4719 216.6496,-678.2848 219,-683 235.3995,-715.9001 260.3403,-751.7123 272.433,-768.4162"/>
<polygon fill="#191970" stroke="#191970" points="147.8467,-482.8416 141.0884,-474.6822 141.2834,-485.2753 147.8467,-482.8416"/>
</g>
<!-- Node311719&#45;&gt;Node311717 -->
<g id="edge77" class="edge">
<title>Node311719&#45;&gt;Node311717</title>
<path fill="none" stroke="#191970" d="M162.2492,-479.8146C191.2942,-497.2008 238.6209,-525.5301 263.3275,-540.3193"/>
<polygon fill="#191970" stroke="#191970" points="163.8911,-476.7184 153.5132,-474.5854 160.2958,-482.7246 163.8911,-476.7184"/>
</g>
<!-- Node311719&#45;&gt;Node311720 -->
<g id="edge65" class="edge">
<title>Node311719&#45;&gt;Node311720</title>
<path fill="none" stroke="#191970" d="M145.7695,-483.9864C155.8712,-507.851 172.8632,-550.266 183,-588 207.4539,-679.0294 174.4013,-713.962 219,-797 229.8567,-817.2141 250.5657,-834.3067 264.7005,-844.3575"/>
<polygon fill="#191970" stroke="#191970" points="148.9393,-482.4975 141.782,-474.6857 142.5056,-485.2558 148.9393,-482.4975"/>
</g>
<!-- Node311721 -->
<g id="node25" class="node">
<title>Node311721</title>
<g id="a_node25"><a xlink:href="quickjs_8c.html#a964237617fb99ed93ebe4abda62d6c84" target="_top" xlink:title="optional_chain_test">
<polygon fill="none" stroke="#000000" points="229,-256.5 229,-275.5 330,-275.5 330,-256.5 229,-256.5"/>
<text text-anchor="middle" x="279.5" y="-263.5" font-family="Helvetica,sans-Serif" font-size="10.00" fill="#000000">optional_chain_test</text>
</a>
</g>
</g>
<!-- Node311719&#45;&gt;Node311721 -->
<g id="edge68" class="edge">
<title>Node311719&#45;&gt;Node311721</title>
<path fill="none" stroke="#191970" d="M140.9759,-445.1362C148.4784,-408.1908 169.6674,-328.7033 219,-285 223.3676,-281.1308 228.5198,-278.0493 233.9447,-275.5953"/>
<polygon fill="#191970" stroke="#191970" points="137.5016,-444.6715 139.0709,-455.1495 144.3782,-445.9798 137.5016,-444.6715"/>
</g>
<!-- Node311702 -->
<g id="node26" class="node">
<title>Node311702</title>
<g id="a_node26"><a xlink:href="quickjs_8c.html#aae2d76e4aa080c7737119ef079a9b97d" target="_top" xlink:title="js_parse_logical_and_or">
<polygon fill="none" stroke="#000000" points="219,-294.5 219,-313.5 340,-313.5 340,-294.5 219,-294.5"/>
<text text-anchor="middle" x="279.5" y="-301.5" font-family="Helvetica,sans-Serif" font-size="10.00" fill="#000000">js_parse_logical_and_or</text>
</a>
</g>
</g>
<!-- Node311719&#45;&gt;Node311702 -->
<g id="edge70" class="edge">
<title>Node311719&#45;&gt;Node311702</title>
<path fill="none" stroke="#191970" d="M147.5607,-446.0928C161.3987,-421.2298 188.1294,-377.0666 219,-346 231.9782,-332.9393 249.4985,-321.2829 262.3447,-313.5833"/>
<polygon fill="#191970" stroke="#191970" points="144.3166,-444.7311 142.5982,-455.1856 150.4611,-448.0845 144.3166,-444.7311"/>
</g>
<!-- Node311703 -->
<g id="node27" class="node">
<title>Node311703</title>
<g id="a_node27"><a xlink:href="quickjs_8c.html#a93b69939f7af67646a177249bf2deb4d" target="_top" xlink:title="js_parse_coalesce_expr">
<polygon fill="none" stroke="#000000" points="376,-303.5 376,-322.5 498,-322.5 498,-303.5 376,-303.5"/>
<text text-anchor="middle" x="437" y="-310.5" font-family="Helvetica,sans-Serif" font-size="10.00" fill="#000000">js_parse_coalesce_expr</text>
</a>
</g>
</g>
<!-- Node311719&#45;&gt;Node311703 -->
<g id="edge74" class="edge">
<title>Node311719&#45;&gt;Node311703</title>
<path fill="none" stroke="#191970" d="M141.8585,-445.3231C153.1706,-396.2346 184.9663,-270.6107 219,-247 263.1859,-216.3462 288.604,-231.1729 340,-247 376.2081,-258.1501 411.0069,-287.9386 427.3303,-303.3956"/>
<polygon fill="#191970" stroke="#191970" points="138.3905,-444.7908 139.5965,-455.3168 145.2178,-446.3362 138.3905,-444.7908"/>
</g>
<!-- Node311720&#45;&gt;Node311697 -->
<g id="edge66" class="edge">
<title>Node311720&#45;&gt;Node311697</title>
<path fill="none" stroke="#191970" d="M344.2087,-863.8604C355.8151,-865.629 367.8421,-867.4616 379.2367,-869.198"/>
<polygon fill="#191970" stroke="#191970" points="344.557,-860.3731 334.1438,-862.3267 343.5024,-867.2932 344.557,-860.3731"/>
</g>
<!-- Node311721&#45;&gt;Node311677 -->
<g id="edge69" class="edge">
<title>Node311721&#45;&gt;Node311677</title>
<path fill="none" stroke="#191970" d="M340.1453,-261.3828C421.4132,-258.552 565.8396,-265.7388 656,-341 745.1118,-415.3859 744.1032,-461.8378 774,-574 852.9774,-870.2948 721.604,-969.3775 810,-1263 820.3207,-1297.2819 845.4442,-1332.1706 858.2376,-1348.4873"/>
<polygon fill="#191970" stroke="#191970" points="339.9216,-257.8889 330.0736,-261.7964 340.2089,-264.883 339.9216,-257.8889"/>
</g>
<!-- Node311702&#45;&gt;Node311702 -->
<g id="edge71" class="edge">
<title>Node311702&#45;&gt;Node311702</title>
<path fill="none" stroke="#191970" d="M252.9941,-322.6539C254.1021,-327.9368 262.9374,-332 279.5,-332 304.7383,-332 312.0337,-322.5653 301.3863,-313.7571"/>
<polygon fill="#191970" stroke="#191970" points="256.1117,-324.2449 257.6137,-313.7571 249.8992,-321.0192 256.1117,-324.2449"/>
</g>
<!-- Node311702&#45;&gt;Node311703 -->
<g id="edge72" class="edge">
<title>Node311702&#45;&gt;Node311703</title>
<path fill="none" stroke="#191970" d="M350.5632,-308.0608C358.9698,-308.5411 367.4944,-309.0283 375.7488,-309.4999"/>
<polygon fill="#191970" stroke="#191970" points="350.577,-304.5559 340.3936,-307.4796 350.1776,-311.5445 350.577,-304.5559"/>
</g>
<!-- Node311703&#45;&gt;Node311704 -->
<g id="edge73" class="edge">
<title>Node311703&#45;&gt;Node311704</title>
<path fill="none" stroke="#191970" d="M478.6789,-325.3982C505.0086,-333.2304 538.5193,-343.1988 562.8031,-350.4224"/>
<polygon fill="#191970" stroke="#191970" points="479.5565,-322.0077 468.9737,-322.5112 477.5606,-328.7172 479.5565,-322.0077"/>
</g>
<!-- Node311723&#45;&gt;Node311677 -->
<g id="edge92" class="edge">
<title>Node311723&#45;&gt;Node311677</title>
<path fill="none" stroke="#191970" d="M150.0373,-589.1618C164.2911,-570.5964 189.4538,-542.6386 219,-531 335.6734,-485.0411 706.4638,-527.3413 774,-633 849.5229,-751.1537 769.2485,-1128.8236 810,-1263 820.4043,-1297.2566 845.4893,-1332.157 858.2558,-1348.4818"/>
<polygon fill="#191970" stroke="#191970" points="147.0718,-587.2857 143.9449,-597.4086 152.7021,-591.4451 147.0718,-587.2857"/>
</g>
<!-- Node311723&#45;&gt;Node311680 -->
<g id="edge99" class="edge">
<title>Node311723&#45;&gt;Node311680</title>
<path fill="none" stroke="#191970" d="M148.7599,-588.7443C162.5887,-568.0136 188.0606,-534.8849 219,-518 416.8828,-410.007 699.8711,-432.1861 814.6774,-447.1466"/>
<polygon fill="#191970" stroke="#191970" points="145.7248,-586.9928 143.2476,-597.2939 151.608,-590.7859 145.7248,-586.9928"/>
</g>
<!-- Node311723&#45;&gt;Node311697 -->
<g id="edge90" class="edge">
<title>Node311723&#45;&gt;Node311697</title>
<path fill="none" stroke="#191970" d="M140.4422,-626.8563C147.1875,-665.3256 167.3589,-750.3238 219,-797 260.8173,-834.7968 287.2615,-815.102 340,-835 362.233,-843.3884 386.6897,-854.2415 405.4836,-862.9453"/>
<polygon fill="#191970" stroke="#191970" points="143.8189,-625.8143 138.7599,-616.5053 136.9095,-626.9373 143.8189,-625.8143"/>
</g>
<!-- Node311723&#45;&gt;Node311682 -->
<g id="edge98" class="edge">
<title>Node311723&#45;&gt;Node311682</title>
<path fill="none" stroke="#191970" d="M150.0373,-589.1618C164.2911,-570.5964 189.4538,-542.6386 219,-531 269.0358,-511.2904 286.4587,-525.962 340,-531 411.1625,-537.6961 431.8635,-533.8909 498,-561 532.1379,-574.993 566.7629,-601.9428 583.928,-616.3539"/>
<polygon fill="#191970" stroke="#191970" points="147.0718,-587.2857 143.9449,-597.4086 152.7021,-591.4451 147.0718,-587.2857"/>
</g>
<!-- Node311723&#45;&gt;Node311685 -->
<g id="edge100" class="edge">
<title>Node311723&#45;&gt;Node311685</title>
<path fill="none" stroke="#191970" d="M148.0944,-625.3453C161.7194,-647.3066 187.4304,-683.6617 219,-704 327.2377,-773.7307 379.6996,-731.1788 498,-782 529.549,-795.5533 563.2927,-817.6801 581.4877,-830.3254"/>
<polygon fill="#191970" stroke="#191970" points="151.0125,-623.4062 142.8598,-616.6398 145.0135,-627.0135 151.0125,-623.4062"/>
</g>
<!-- Node311723&#45;&gt;Node311705 -->
<g id="edge96" class="edge">
<title>Node311723&#45;&gt;Node311705</title>
<path fill="none" stroke="#191970" d="M150.0373,-624.8382C164.2911,-643.4036 189.4538,-671.3614 219,-683 284.3923,-708.7587 369.1189,-687.3656 411.0857,-673.5178"/>
<polygon fill="#191970" stroke="#191970" points="152.7021,-622.5549 143.9449,-616.5914 147.0718,-626.7143 152.7021,-622.5549"/>
</g>
<!-- Node311723&#45;&gt;Node311704 -->
<g id="edge95" class="edge">
<title>Node311723&#45;&gt;Node311704</title>
<path fill="none" stroke="#191970" d="M144.8418,-587.7957C162.2043,-542.7861 205.3558,-433.4146 219,-422 267.27,-381.6181 451.457,-367.0148 542.8846,-362.1773"/>
<polygon fill="#191970" stroke="#191970" points="141.511,-586.7062 141.1917,-597.2962 148.0453,-589.2167 141.511,-586.7062"/>
</g>
<!-- Node311723&#45;&gt;Node311713 -->
<g id="edge82" class="edge">
<title>Node311723&#45;&gt;Node311713</title>
<path fill="none" stroke="#191970" d="M170.3122,-620.3475C185.1689,-626.3751 202.9597,-633.5711 219,-640 230.9571,-644.7923 244.2622,-650.0758 255.3437,-654.4626"/>
<polygon fill="#191970" stroke="#191970" points="171.603,-617.0941 161.0209,-616.575 168.9696,-623.5799 171.603,-617.0941"/>
</g>
<!-- Node311723&#45;&gt;Node311714 -->
<g id="edge83" class="edge">
<title>Node311723&#45;&gt;Node311714</title>
<path fill="none" stroke="#191970" d="M143.4446,-626.3405C153.9031,-657.3514 178.4169,-718.3262 219,-754 226.0442,-760.192 234.8802,-764.8918 243.6058,-768.4159"/>
<polygon fill="#191970" stroke="#191970" points="146.7375,-625.1481 140.3282,-616.7118 140.0777,-627.3037 146.7375,-625.1481"/>
</g>
<!-- Node311723&#45;&gt;Node311717 -->
<g id="edge97" class="edge">
<title>Node311723&#45;&gt;Node311717</title>
<path fill="none" stroke="#191970" d="M170.7352,-593.6591C196.7788,-583.205 232.3844,-568.9126 255.6549,-559.5716"/>
<polygon fill="#191970" stroke="#191970" points="169.244,-590.4862 161.2676,-597.4595 171.8517,-596.9823 169.244,-590.4862"/>
</g>
<!-- Node311723&#45;&gt;Node311720 -->
<g id="edge89" class="edge">
<title>Node311723&#45;&gt;Node311720</title>
<path fill="none" stroke="#191970" d="M139.3682,-626.9634C144.405,-669.8078 162.0004,-771.4249 219,-830 225.1468,-836.3167 233.1643,-841.0121 241.342,-844.4879"/>
<polygon fill="#191970" stroke="#191970" points="142.8419,-626.5298 138.2996,-616.9581 135.8815,-627.2733 142.8419,-626.5298"/>
</g>
<!-- Node311723&#45;&gt;Node311721 -->
<g id="edge91" class="edge">
<title>Node311723&#45;&gt;Node311721</title>
<path fill="none" stroke="#191970" d="M145.7178,-587.9996C155.7668,-564.1207 172.705,-521.6911 183,-484 206.6825,-397.2961 159.5499,-352.41 219,-285 222.4225,-281.1192 226.6276,-278.023 231.2125,-275.5541"/>
<polygon fill="#191970" stroke="#191970" points="142.4524,-586.7347 141.7531,-597.3064 148.8924,-589.4782 142.4524,-586.7347"/>
</g>
<!-- Node311723&#45;&gt;Node311702 -->
<g id="edge93" class="edge">
<title>Node311723&#45;&gt;Node311702</title>
<path fill="none" stroke="#191970" d="M145.2521,-587.8628C154.825,-563.844 171.2765,-521.2715 183,-484 202.019,-423.5347 182.7104,-397.9697 219,-346 228.9558,-331.7425 245.4082,-320.7801 258.6449,-313.6356"/>
<polygon fill="#191970" stroke="#191970" points="141.9693,-586.6456 141.4918,-597.2297 148.4654,-589.2535 141.9693,-586.6456"/>
</g>
<!-- Node311723&#45;&gt;Node311703 -->
<g id="edge94" class="edge">
<title>Node311723&#45;&gt;Node311703</title>
<path fill="none" stroke="#191970" d="M144.5703,-588.045C153.5615,-563.9041 169.5369,-520.8902 183,-484 199.1944,-439.626 185.0898,-416.8848 219,-384 225.8936,-377.3149 346.2986,-340.3551 405.143,-322.5688"/>
<polygon fill="#191970" stroke="#191970" points="141.2811,-586.8486 141.0683,-597.4413 147.8403,-589.2933 141.2811,-586.8486"/>
</g>
<!-- Node311723&#45;&gt;Node311724 -->
<g id="edge84" class="edge">
<title>Node311723&#45;&gt;Node311724</title>
<path fill="none" stroke="#191970" d="M140.0321,-626.8689C146.6498,-673.1334 167.6401,-790.3917 219,-873 231.2674,-892.7311 252.0339,-910.189 265.7571,-920.4288"/>
<polygon fill="#191970" stroke="#191970" points="143.4963,-626.3686 138.6793,-616.9322 136.5603,-627.313 143.4963,-626.3686"/>
</g>
<!-- Node311724&#45;&gt;Node311697 -->
<g id="edge85" class="edge">
<title>Node311724&#45;&gt;Node311697</title>
<path fill="none" stroke="#191970" d="M318.1037,-917.2547C340.2141,-909.9547 368.0883,-900.7518 391.2891,-893.0918"/>
<polygon fill="#191970" stroke="#191970" points="316.7864,-914.0037 308.3879,-920.4624 318.9811,-920.6507 316.7864,-914.0037"/>
</g>
<!-- Node311724&#45;&gt;Node311698 -->
<g id="edge87" class="edge">
<title>Node311724&#45;&gt;Node311698</title>
<path fill="none" stroke="#191970" d="M320.2258,-934.647C382.2417,-941.7233 499.387,-955.0901 558.6722,-961.8548"/>
<polygon fill="#191970" stroke="#191970" points="320.3705,-931.1409 310.0381,-933.4845 319.5768,-938.0958 320.3705,-931.1409"/>
</g>
<!-- Node311724&#45;&gt;Node311682 -->
<g id="edge88" class="edge">
<title>Node311724&#45;&gt;Node311682</title>
<path fill="none" stroke="#191970" d="M319.6446,-919.3204C327.0673,-915.9698 334.2727,-911.6207 340,-906 369.5736,-876.9769 352.7013,-854.2653 376,-820 418.59,-757.3632 448.8424,-758.6265 498,-701 516.0061,-679.8918 512.1754,-667.1309 534,-650 541.7883,-643.8867 551.3281,-639.1567 560.5294,-635.5758"/>
<polygon fill="#191970" stroke="#191970" points="318.2308,-916.1157 310.2211,-923.0509 320.8074,-922.6243 318.2308,-916.1157"/>
</g>
<!-- Node311724&#45;&gt;Node311705 -->
<g id="edge86" class="edge">
<title>Node311724&#45;&gt;Node311705</title>
<path fill="none" stroke="#191970" d="M319.7487,-920.6619C327.4293,-917.2001 334.7102,-912.4668 340,-906 397.1846,-836.0918 327.0375,-781.894 376,-706 385.41,-691.414 401.859,-680.5318 415.3062,-673.5034"/>
<polygon fill="#191970" stroke="#191970" points="318.3756,-917.4398 310.2888,-924.2848 320.8791,-923.9768 318.3756,-917.4398"/>
</g>
<!-- Node311725&#45;&gt;Node311676 -->
<g id="edge102" class="edge">
<title>Node311725&#45;&gt;Node311676</title>
<path fill="none" stroke="#191970" d="M193.5464,-1586C206.0756,-1586 219.2556,-1586 231.4284,-1586"/>
<polygon fill="#191970" stroke="#191970" points="193.2114,-1582.5001 183.2113,-1586 193.2113,-1589.5001 193.2114,-1582.5001"/>
</g>
<!-- Node311725&#45;&gt;Node311677 -->
<g id="edge103" class="edge">
<title>Node311725&#45;&gt;Node311677</title>
<path fill="none" stroke="#191970" d="M183.3029,-1597.8808C194.887,-1600.553 207.348,-1603.1437 219,-1605 315.045,-1620.3014 339.7438,-1624 437,-1624 437,-1624 437,-1624 595,-1624 681.4293,-1624 711.3939,-1607.5861 774,-1548 830.5464,-1494.1813 856.6854,-1398.3878 863.8712,-1367.7256"/>
<polygon fill="#191970" stroke="#191970" points="183.929,-1594.4322 173.391,-1595.5279 182.3122,-1601.243 183.929,-1594.4322"/>
</g>
<!-- Node311725&#45;&gt;Node311700 -->
<g id="edge104" class="edge">
<title>Node311725&#45;&gt;Node311700</title>
<path fill="none" stroke="#191970" d="M164.5083,-1571.5449C193.0354,-1556.2768 237.1996,-1532.6397 261.6616,-1519.5473"/>
<polygon fill="#191970" stroke="#191970" points="162.6495,-1568.5699 155.4844,-1576.3745 165.9526,-1574.7416 162.6495,-1568.5699"/>
</g>
</g>
</svg>
