<?xml version="1.0" encoding="UTF-8" standalone="no"?>
<!DOCTYPE svg PUBLIC "-//W3C//DTD SVG 1.1//EN"
 "http://www.w3.org/Graphics/SVG/1.1/DTD/svg11.dtd">
<!-- Generated by graphviz version 2.40.1 (20161225.0304)
 -->
<!-- Title: js_build_mapped_arguments Pages: 1 -->
<svg width="606pt" height="1013pt"
 viewBox="0.00 0.00 606.00 1013.00" xmlns="http://www.w3.org/2000/svg" xmlns:xlink="http://www.w3.org/1999/xlink">
<g id="graph0" class="graph" transform="scale(1 1) rotate(0) translate(4 1009)">
<title>js_build_mapped_arguments</title>
<!-- Node275348 -->
<g id="node1" class="node">
<title>Node275348</title>
<polygon fill="#bfbfbf" stroke="#000000" points="0,-274.5 0,-293.5 140,-293.5 140,-274.5 0,-274.5"/>
<text text-anchor="middle" x="70" y="-281.5" font-family="Helvetica,sans-Serif" font-size="10.00" fill="#000000">js_build_mapped_arguments</text>
</g>
<!-- Node275349 -->
<g id="node2" class="node">
<title>Node275349</title>
<g id="a_node2"><a xlink:href="quickjs_8c.html#ac2894ff4edcdb4e6841bcce9c76081e3" target="_top" xlink:title="JS_CallInternal">
<polygon fill="none" stroke="#000000" points="176,-274.5 176,-293.5 259,-293.5 259,-274.5 176,-274.5"/>
<text text-anchor="middle" x="217.5" y="-281.5" font-family="Helvetica,sans-Serif" font-size="10.00" fill="#000000">JS_CallInternal</text>
</a>
</g>
</g>
<!-- Node275348&#45;&gt;Node275349 -->
<g id="edge1" class="edge">
<title>Node275348&#45;&gt;Node275349</title>
<path fill="none" stroke="#191970" d="M150.5617,-284C159.2833,-284 167.8767,-284 175.8485,-284"/>
<polygon fill="#191970" stroke="#191970" points="150.2941,-280.5001 140.2941,-284 150.2941,-287.5001 150.2941,-280.5001"/>
</g>
<!-- Node275349&#45;&gt;Node275349 -->
<g id="edge40" class="edge">
<title>Node275349&#45;&gt;Node275349</title>
<path fill="none" stroke="#191970" d="M190.6208,-302.6539C191.7444,-307.9368 200.7041,-312 217.5,-312 243.0938,-312 250.4919,-302.5653 239.6946,-293.7571"/>
<polygon fill="#191970" stroke="#191970" points="193.7433,-304.2361 195.3054,-293.7571 187.5494,-300.9747 193.7433,-304.2361"/>
</g>
<!-- Node275350 -->
<g id="node3" class="node">
<title>Node275350</title>
<g id="a_node3"><a xlink:href="quickjs_8c.html#ade71a22dc56e7371392393df663b28b3" target="_top" xlink:title="async_func_resume">
<polygon fill="none" stroke="#000000" points="310,-892.5 310,-911.5 414,-911.5 414,-892.5 310,-892.5"/>
<text text-anchor="middle" x="362" y="-899.5" font-family="Helvetica,sans-Serif" font-size="10.00" fill="#000000">async_func_resume</text>
</a>
</g>
</g>
<!-- Node275349&#45;&gt;Node275350 -->
<g id="edge2" class="edge">
<title>Node275349&#45;&gt;Node275350</title>
<path fill="none" stroke="#191970" d="M222.0805,-303.5901C244.6381,-400.0646 343.4849,-822.8142 359.7352,-892.3141"/>
<polygon fill="#191970" stroke="#191970" points="225.4547,-302.6478 219.7697,-293.7073 218.6385,-304.2416 225.4547,-302.6478"/>
</g>
<!-- Node275369 -->
<g id="node8" class="node">
<title>Node275369</title>
<g id="a_node8"><a xlink:href="quickjs_8c.html#a1a4c02a29525d5cb2085dd8bca3af350" target="_top" xlink:title="JS_Call">
<polygon fill="none" stroke="#ff0000" points="336.5,-366.5 336.5,-385.5 387.5,-385.5 387.5,-366.5 336.5,-366.5"/>
<text text-anchor="middle" x="362" y="-373.5" font-family="Helvetica,sans-Serif" font-size="10.00" fill="#000000">JS_Call</text>
</a>
</g>
</g>
<!-- Node275349&#45;&gt;Node275369 -->
<g id="edge7" class="edge">
<title>Node275349&#45;&gt;Node275369</title>
<path fill="none" stroke="#191970" d="M249.5346,-298.6777C282.4699,-317.7532 331.7662,-349.8516 352.3895,-366.3007"/>
<polygon fill="#191970" stroke="#191970" points="251.1399,-295.5643 240.7164,-293.6666 247.6814,-301.6503 251.1399,-295.5643"/>
</g>
<!-- Node275455 -->
<g id="node29" class="node">
<title>Node275455</title>
<g id="a_node29"><a xlink:href="quickjs_8c.html#ad35594576a14c10812efaf958c99af8a" target="_top" xlink:title="JS_CallConstructorInternal">
<polygon fill="none" stroke="#ff0000" points="295,-274.5 295,-293.5 429,-293.5 429,-274.5 295,-274.5"/>
<text text-anchor="middle" x="362" y="-281.5" font-family="Helvetica,sans-Serif" font-size="10.00" fill="#000000">JS_CallConstructorInternal</text>
</a>
</g>
</g>
<!-- Node275349&#45;&gt;Node275455 -->
<g id="edge34" class="edge">
<title>Node275349&#45;&gt;Node275455</title>
<path fill="none" stroke="#191970" d="M269.5209,-277.4909C277.7845,-277.2892 286.4321,-277.2142 294.9815,-277.2658"/>
<polygon fill="#191970" stroke="#191970" points="269.1798,-273.9998 259.2954,-277.814 269.401,-280.9963 269.1798,-273.9998"/>
</g>
<!-- Node275469 -->
<g id="node30" class="node">
<title>Node275469</title>
<g id="a_node30"><a xlink:href="quickjs_8c.html#a75f6ee5e4235a7dc99889f3d2eb2c147" target="_top" xlink:title="JS_CallFree">
<polygon fill="none" stroke="#ff0000" points="326.5,-91.5 326.5,-110.5 397.5,-110.5 397.5,-91.5 326.5,-91.5"/>
<text text-anchor="middle" x="362" y="-98.5" font-family="Helvetica,sans-Serif" font-size="10.00" fill="#000000">JS_CallFree</text>
</a>
</g>
</g>
<!-- Node275349&#45;&gt;Node275469 -->
<g id="edge36" class="edge">
<title>Node275349&#45;&gt;Node275469</title>
<path fill="none" stroke="#191970" d="M220.7023,-264.4197C228.2042,-229.2158 249.8044,-156.4964 295,-116 303.742,-108.167 315.2224,-102.8425 326.2049,-99.7033"/>
<polygon fill="#191970" stroke="#191970" points="217.2265,-263.9582 218.75,-274.4429 224.0974,-265.2965 217.2265,-263.9582"/>
</g>
<!-- Node275351 -->
<g id="node4" class="node">
<title>Node275351</title>
<g id="a_node4"><a xlink:href="quickjs_8c.html#ac90552b1f1659acb3dae9a4c62479a30" target="_top" xlink:title="js_generator_function_call">
<polygon fill="none" stroke="#ff0000" points="466.5,-985.5 466.5,-1004.5 596.5,-1004.5 596.5,-985.5 466.5,-985.5"/>
<text text-anchor="middle" x="531.5" y="-992.5" font-family="Helvetica,sans-Serif" font-size="10.00" fill="#000000">js_generator_function_call</text>
</a>
</g>
</g>
<!-- Node275350&#45;&gt;Node275351 -->
<g id="edge3" class="edge">
<title>Node275350&#45;&gt;Node275351</title>
<path fill="none" stroke="#191970" d="M380.4671,-918.3133C400.1641,-934.9499 432.8865,-960.4617 465,-976 472.782,-979.7654 481.4469,-982.9157 489.8825,-985.499"/>
<polygon fill="#191970" stroke="#191970" points="382.488,-915.4351 372.6226,-911.5717 377.9255,-920.7439 382.488,-915.4351"/>
</g>
<!-- Node275360 -->
<g id="node5" class="node">
<title>Node275360</title>
<g id="a_node5"><a xlink:href="quickjs_8c.html#a1bf6b62983e8fff99c0a5d5a9f486115" target="_top" xlink:title="js_async_function_resume">
<polygon fill="none" stroke="#ff0000" points="465,-848.5 465,-867.5 598,-867.5 598,-848.5 465,-848.5"/>
<text text-anchor="middle" x="531.5" y="-855.5" font-family="Helvetica,sans-Serif" font-size="10.00" fill="#000000">js_async_function_resume</text>
</a>
</g>
</g>
<!-- Node275350&#45;&gt;Node275360 -->
<g id="edge4" class="edge">
<title>Node275350&#45;&gt;Node275360</title>
<path fill="none" stroke="#191970" d="M408.4651,-889.9383C435.6496,-882.8815 469.4877,-874.0976 494.7928,-867.5287"/>
<polygon fill="#191970" stroke="#191970" points="407.5787,-886.5523 398.779,-892.4527 409.3376,-893.3277 407.5787,-886.5523"/>
</g>
<!-- Node275367 -->
<g id="node6" class="node">
<title>Node275367</title>
<g id="a_node6"><a xlink:href="quickjs_8c.html#a89b019c704a2d2914bc30b30a72040b3" target="_top" xlink:title="js_async_generator\l_resume_next">
<polygon fill="none" stroke="#000000" points="481,-936 481,-966 582,-966 582,-936 481,-936"/>
<text text-anchor="start" x="489" y="-954" font-family="Helvetica,sans-Serif" font-size="10.00" fill="#000000">js_async_generator</text>
<text text-anchor="middle" x="531.5" y="-943" font-family="Helvetica,sans-Serif" font-size="10.00" fill="#000000">_resume_next</text>
</a>
</g>
</g>
<!-- Node275350&#45;&gt;Node275367 -->
<g id="edge5" class="edge">
<title>Node275350&#45;&gt;Node275367</title>
<path fill="none" stroke="#191970" d="M404.9372,-914.4125C428.0226,-921.0862 456.6309,-929.3564 480.805,-936.3448"/>
<polygon fill="#191970" stroke="#191970" points="405.6623,-910.9789 395.0837,-911.564 403.7183,-917.7036 405.6623,-910.9789"/>
</g>
<!-- Node275368 -->
<g id="node7" class="node">
<title>Node275368</title>
<g id="a_node7"><a xlink:href="quickjs_8c.html#ae19867da709929c072f05e90301835a4" target="_top" xlink:title="js_async_generator\l_function_call">
<polygon fill="none" stroke="#ff0000" points="481,-887 481,-917 582,-917 582,-887 481,-887"/>
<text text-anchor="start" x="489" y="-905" font-family="Helvetica,sans-Serif" font-size="10.00" fill="#000000">js_async_generator</text>
<text text-anchor="middle" x="531.5" y="-894" font-family="Helvetica,sans-Serif" font-size="10.00" fill="#000000">_function_call</text>
</a>
</g>
</g>
<!-- Node275350&#45;&gt;Node275368 -->
<g id="edge6" class="edge">
<title>Node275350&#45;&gt;Node275368</title>
<path fill="none" stroke="#191970" d="M424.388,-902C442.9885,-902 463.1368,-902 480.8866,-902"/>
<polygon fill="#191970" stroke="#191970" points="424.2387,-898.5001 414.2387,-902 424.2386,-905.5001 424.2387,-898.5001"/>
</g>
<!-- Node275369&#45;&gt;Node275349 -->
<g id="edge14" class="edge">
<title>Node275369&#45;&gt;Node275349</title>
<path fill="none" stroke="#191970" d="M330.2443,-361.4837C297.24,-342.3885 247.5848,-310.0599 226.981,-293.5959"/>
<polygon fill="#191970" stroke="#191970" points="328.649,-364.6027 339.0736,-366.4945 332.104,-358.5148 328.649,-364.6027"/>
</g>
<!-- Node275369&#45;&gt;Node275360 -->
<g id="edge15" class="edge">
<title>Node275369&#45;&gt;Node275360</title>
<path fill="none" stroke="#191970" d="M363.7375,-395.7477C371.14,-475.5029 402.5618,-772.7381 465,-839 468.6232,-842.845 472.9653,-845.9296 477.6723,-848.4016"/>
<polygon fill="#191970" stroke="#191970" points="367.2073,-395.2551 362.8188,-385.6119 360.2359,-395.8871 367.2073,-395.2551"/>
</g>
<!-- Node275370 -->
<g id="node9" class="node">
<title>Node275370</title>
<g id="a_node9"><a xlink:href="structqjs_1_1js__traits_3_01std_1_1function_3_01R_07Args_8_8_8_08_4_01_4.html#ac449e51d3fe10c6c115596fa6ec278ee" target="_top" xlink:title="qjs::js_traits\&lt; std\l::function\&lt; R(Args...)\l\&gt; \&gt;::unwrap">
<polygon fill="none" stroke="#000000" points="477,-600.5 477,-641.5 586,-641.5 586,-600.5 477,-600.5"/>
<text text-anchor="start" x="485" y="-629.5" font-family="Helvetica,sans-Serif" font-size="10.00" fill="#000000">qjs::js_traits&lt; std</text>
<text text-anchor="start" x="485" y="-618.5" font-family="Helvetica,sans-Serif" font-size="10.00" fill="#000000">::function&lt; R(Args...)</text>
<text text-anchor="middle" x="531.5" y="-607.5" font-family="Helvetica,sans-Serif" font-size="10.00" fill="#000000">&gt; &gt;::unwrap</text>
</a>
</g>
</g>
<!-- Node275369&#45;&gt;Node275370 -->
<g id="edge8" class="edge">
<title>Node275369&#45;&gt;Node275370</title>
<path fill="none" stroke="#191970" d="M366.4623,-395.375C376.8697,-436.57 406.4328,-533.763 465,-591 468.5327,-594.4525 472.5324,-597.5493 476.7748,-600.3186"/>
<polygon fill="#191970" stroke="#191970" points="369.8332,-394.4238 364.0752,-385.5302 363.0303,-396.0734 369.8332,-394.4238"/>
</g>
<!-- Node275371 -->
<g id="node10" class="node">
<title>Node275371</title>
<g id="a_node10"><a xlink:href="quickjs-libc_8c.html#abb1cbe3fdf905e81f603a3a0bfce475a" target="_top" xlink:title="call_handler">
<polygon fill="none" stroke="#000000" points="497.5,-562.5 497.5,-581.5 565.5,-581.5 565.5,-562.5 497.5,-562.5"/>
<text text-anchor="middle" x="531.5" y="-569.5" font-family="Helvetica,sans-Serif" font-size="10.00" fill="#000000">call_handler</text>
</a>
</g>
</g>
<!-- Node275369&#45;&gt;Node275371 -->
<g id="edge9" class="edge">
<title>Node275369&#45;&gt;Node275371</title>
<path fill="none" stroke="#191970" d="M367.9669,-395.7267C380.0804,-432.3807 411.0815,-511.0638 465,-553 474.2883,-560.2242 486.2106,-564.7017 497.3889,-567.4768"/>
<polygon fill="#191970" stroke="#191970" points="371.173,-394.2588 364.8095,-385.7879 364.5016,-396.3783 371.173,-394.2588"/>
</g>
<!-- Node275372 -->
<g id="node11" class="node">
<title>Node275372</title>
<g id="a_node11"><a xlink:href="quickjs-libc_8c.html#a9fa4c190ba56314c7ed9b00bbc7ad0f9" target="_top" xlink:title="handle_posted_message">
<polygon fill="none" stroke="#000000" points="469,-524.5 469,-543.5 594,-543.5 594,-524.5 469,-524.5"/>
<text text-anchor="middle" x="531.5" y="-531.5" font-family="Helvetica,sans-Serif" font-size="10.00" fill="#000000">handle_posted_message</text>
</a>
</g>
</g>
<!-- Node275369&#45;&gt;Node275372 -->
<g id="edge10" class="edge">
<title>Node275369&#45;&gt;Node275372</title>
<path fill="none" stroke="#191970" d="M370.8132,-394.8068C385.8433,-424.8129 419.3,-483.3519 465,-515 470.6266,-518.8965 477.0444,-521.9998 483.6221,-524.4699"/>
<polygon fill="#191970" stroke="#191970" points="373.9551,-393.2643 366.4314,-385.8048 367.6611,-396.328 373.9551,-393.2643"/>
</g>
<!-- Node275373 -->
<g id="node12" class="node">
<title>Node275373</title>
<g id="a_node12"><a xlink:href="quickjs_8c.html#aa049793cc8648d35fe81876a2543ca4e" target="_top" xlink:title="JS_GetIterator2">
<polygon fill="none" stroke="#ff0000" points="488.5,-486.5 488.5,-505.5 574.5,-505.5 574.5,-486.5 488.5,-486.5"/>
<text text-anchor="middle" x="531.5" y="-493.5" font-family="Helvetica,sans-Serif" font-size="10.00" fill="#000000">JS_GetIterator2</text>
</a>
</g>
</g>
<!-- Node275369&#45;&gt;Node275373 -->
<g id="edge11" class="edge">
<title>Node275369&#45;&gt;Node275373</title>
<path fill="none" stroke="#191970" d="M375.3664,-393.7373C393.3204,-416.3395 427.3525,-455.0958 465,-477 472.161,-481.1665 480.2929,-484.4672 488.3519,-487.0663"/>
<polygon fill="#191970" stroke="#191970" points="377.9953,-391.4163 369.0957,-385.6676 372.4679,-395.7114 377.9953,-391.4163"/>
</g>
<!-- Node275405 -->
<g id="node13" class="node">
<title>Node275405</title>
<g id="a_node13"><a xlink:href="quickjs_8c.html#ad6303fbd3add4afa0cb64b0aa6d431ce" target="_top" xlink:title="JS_IteratorNext2">
<polygon fill="none" stroke="#ff0000" points="486,-448.5 486,-467.5 577,-467.5 577,-448.5 486,-448.5"/>
<text text-anchor="middle" x="531.5" y="-455.5" font-family="Helvetica,sans-Serif" font-size="10.00" fill="#000000">JS_IteratorNext2</text>
</a>
</g>
</g>
<!-- Node275369&#45;&gt;Node275405 -->
<g id="edge12" class="edge">
<title>Node275369&#45;&gt;Node275405</title>
<path fill="none" stroke="#191970" d="M383.4657,-391.5216C403.6737,-405.5409 435.2058,-425.922 465,-439 473.3559,-442.6678 482.6114,-445.8323 491.496,-448.4693"/>
<polygon fill="#191970" stroke="#191970" points="385.2159,-388.4733 375.0246,-385.577 381.1853,-394.1965 385.2159,-388.4733"/>
</g>
<!-- Node275409 -->
<g id="node14" class="node">
<title>Node275409</title>
<g id="a_node14"><a xlink:href="quickjs_8c.html#afd4ef2d701fa0702f321925b61c57bbf" target="_top" xlink:title="js_call_bound_function">
<polygon fill="none" stroke="#ff0000" points="473.5,-410.5 473.5,-429.5 589.5,-429.5 589.5,-410.5 473.5,-410.5"/>
<text text-anchor="middle" x="531.5" y="-417.5" font-family="Helvetica,sans-Serif" font-size="10.00" fill="#000000">js_call_bound_function</text>
</a>
</g>
</g>
<!-- Node275369&#45;&gt;Node275409 -->
<g id="edge13" class="edge">
<title>Node275369&#45;&gt;Node275409</title>
<path fill="none" stroke="#191970" d="M397.6969,-385.2665C426.2137,-392.669 466.0299,-403.0048 494.8058,-410.4747"/>
<polygon fill="#191970" stroke="#191970" points="398.302,-381.8076 387.7434,-382.6827 396.5432,-388.583 398.302,-381.8076"/>
</g>
<!-- Node275410 -->
<g id="node15" class="node">
<title>Node275410</title>
<g id="a_node15"><a xlink:href="quickjs_8c.html#a3e852026d167fa03c673f86697dd3e67" target="_top" xlink:title="js_async_generator\l_resolve_or_reject">
<polygon fill="none" stroke="#ff0000" points="481,-361 481,-391 582,-391 582,-361 481,-361"/>
<text text-anchor="start" x="489" y="-379" font-family="Helvetica,sans-Serif" font-size="10.00" fill="#000000">js_async_generator</text>
<text text-anchor="middle" x="531.5" y="-368" font-family="Helvetica,sans-Serif" font-size="10.00" fill="#000000">_resolve_or_reject</text>
</a>
</g>
</g>
<!-- Node275369&#45;&gt;Node275410 -->
<g id="edge16" class="edge">
<title>Node275369&#45;&gt;Node275410</title>
<path fill="none" stroke="#191970" d="M397.8847,-376C422.0145,-376 454.1716,-376 480.8919,-376"/>
<polygon fill="#191970" stroke="#191970" points="397.7434,-372.5001 387.7434,-376 397.7434,-379.5001 397.7434,-372.5001"/>
</g>
<!-- Node275413 -->
<g id="node16" class="node">
<title>Node275413</title>
<g id="a_node16"><a xlink:href="quickjs_8c.html#a2355fabf91f59212ea65baba1b0b7c1b" target="_top" xlink:title="js_async_generator_next">
<polygon fill="none" stroke="#000000" points="469,-322.5 469,-341.5 594,-341.5 594,-322.5 469,-322.5"/>
<text text-anchor="middle" x="531.5" y="-329.5" font-family="Helvetica,sans-Serif" font-size="10.00" fill="#000000">js_async_generator_next</text>
</a>
</g>
</g>
<!-- Node275369&#45;&gt;Node275413 -->
<g id="edge17" class="edge">
<title>Node275369&#45;&gt;Node275413</title>
<path fill="none" stroke="#191970" d="M397.6969,-366.7335C426.2137,-359.331 466.0299,-348.9952 494.8058,-341.5253"/>
<polygon fill="#191970" stroke="#191970" points="396.5432,-363.417 387.7434,-369.3173 398.302,-370.1924 396.5432,-363.417"/>
</g>
<!-- Node275414 -->
<g id="node17" class="node">
<title>Node275414</title>
<g id="a_node17"><a xlink:href="quickjs_8c.html#adc0280beaa04d2b8fcaf05a82ab26c74" target="_top" xlink:title="js_link_module">
<polygon fill="none" stroke="#ff0000" points="491,-266.5 491,-285.5 572,-285.5 572,-266.5 491,-266.5"/>
<text text-anchor="middle" x="531.5" y="-273.5" font-family="Helvetica,sans-Serif" font-size="10.00" fill="#000000">js_link_module</text>
</a>
</g>
</g>
<!-- Node275369&#45;&gt;Node275414 -->
<g id="edge18" class="edge">
<title>Node275369&#45;&gt;Node275414</title>
<path fill="none" stroke="#191970" d="M385.7375,-361.0979C406.5068,-348.1514 437.5605,-329.0161 465,-313 481.4309,-303.4095 500.4181,-292.9013 513.8868,-285.5423"/>
<polygon fill="#191970" stroke="#191970" points="383.8638,-358.1416 377.2377,-366.4087 387.573,-364.0781 383.8638,-358.1416"/>
</g>
<!-- Node275418 -->
<g id="node18" class="node">
<title>Node275418</title>
<g id="a_node18"><a xlink:href="quickjs_8c.html#a6357b7fdae71c70c140e78e6c20cb5c2" target="_top" xlink:title="js_dynamic_import_job">
<polygon fill="none" stroke="#ff0000" points="473.5,-228.5 473.5,-247.5 589.5,-247.5 589.5,-228.5 473.5,-228.5"/>
<text text-anchor="middle" x="531.5" y="-235.5" font-family="Helvetica,sans-Serif" font-size="10.00" fill="#000000">js_dynamic_import_job</text>
</a>
</g>
</g>
<!-- Node275369&#45;&gt;Node275418 -->
<g id="edge20" class="edge">
<title>Node275369&#45;&gt;Node275418</title>
<path fill="none" stroke="#191970" d="M378.313,-358.9947C392.127,-344.4148 412.2908,-322.7052 429,-303 445.7901,-283.1993 443.4645,-271.4981 465,-257 470.777,-253.1108 477.3497,-250.0087 484.0612,-247.5365"/>
<polygon fill="#191970" stroke="#191970" points="375.7152,-356.6475 371.3541,-366.3032 380.7847,-361.4745 375.7152,-356.6475"/>
</g>
<!-- Node275422 -->
<g id="node19" class="node">
<title>Node275422</title>
<g id="a_node19"><a xlink:href="quickjs_8c.html#a8d4b24969540aff427939eeda47f451d" target="_top" xlink:title="js_function_apply">
<polygon fill="none" stroke="#ff0000" points="485.5,-76.5 485.5,-95.5 577.5,-95.5 577.5,-76.5 485.5,-76.5"/>
<text text-anchor="middle" x="531.5" y="-83.5" font-family="Helvetica,sans-Serif" font-size="10.00" fill="#000000">js_function_apply</text>
</a>
</g>
</g>
<!-- Node275369&#45;&gt;Node275422 -->
<g id="edge21" class="edge">
<title>Node275369&#45;&gt;Node275422</title>
<path fill="none" stroke="#191970" d="M382.299,-359.5976C397.6111,-346.0634 417.8252,-325.4865 429,-303 468.8049,-222.9027 404.9429,-171.2808 465,-105 470.4824,-98.9495 477.7442,-94.7728 485.4534,-91.9012"/>
<polygon fill="#191970" stroke="#191970" points="379.7143,-357.2024 374.3852,-366.3594 384.2616,-362.5243 379.7143,-357.2024"/>
</g>
<!-- Node275425 -->
<g id="node20" class="node">
<title>Node275425</title>
<g id="a_node20"><a xlink:href="quickjs_8c.html#a677ad630a103e1f3d5129e0549112b50" target="_top" xlink:title="js_function_call">
<polygon fill="none" stroke="#000000" points="489.5,-190.5 489.5,-209.5 573.5,-209.5 573.5,-190.5 489.5,-190.5"/>
<text text-anchor="middle" x="531.5" y="-197.5" font-family="Helvetica,sans-Serif" font-size="10.00" fill="#000000">js_function_call</text>
</a>
</g>
</g>
<!-- Node275369&#45;&gt;Node275425 -->
<g id="edge23" class="edge">
<title>Node275369&#45;&gt;Node275425</title>
<path fill="none" stroke="#191970" d="M380.436,-359.3048C395.0412,-345.3428 415.2135,-324.3334 429,-303 451.0459,-268.8861 434.5199,-245.8467 465,-219 471.8479,-212.9684 480.4908,-208.8435 489.2594,-206.0248"/>
<polygon fill="#191970" stroke="#191970" points="377.8788,-356.9044 372.9706,-366.2938 382.6628,-362.0145 377.8788,-356.9044"/>
</g>
<!-- Node275376 -->
<g id="node21" class="node">
<title>Node275376</title>
<g id="a_node21"><a xlink:href="quickjs_8c.html#a5e32da9a43002cb96dcbd62a1a340144" target="_top" xlink:title="js_array_from">
<polygon fill="none" stroke="#000000" points="493.5,-152.5 493.5,-171.5 569.5,-171.5 569.5,-152.5 493.5,-152.5"/>
<text text-anchor="middle" x="531.5" y="-159.5" font-family="Helvetica,sans-Serif" font-size="10.00" fill="#000000">js_array_from</text>
</a>
</g>
</g>
<!-- Node275369&#45;&gt;Node275376 -->
<g id="edge24" class="edge">
<title>Node275369&#45;&gt;Node275376</title>
<path fill="none" stroke="#191970" d="M381.3822,-359.4856C396.3583,-345.7604 416.5663,-324.9826 429,-303 456.8326,-253.7923 424.8524,-220.8023 465,-181 472.589,-173.4763 482.9387,-168.8875 493.2124,-166.1023"/>
<polygon fill="#191970" stroke="#191970" points="378.8193,-357.0814 373.683,-366.348 383.477,-362.307 378.8193,-357.0814"/>
</g>
<!-- Node275402 -->
<g id="node22" class="node">
<title>Node275402</title>
<g id="a_node22"><a xlink:href="quickjs_8c.html#aa0bbf08a7e91459c68a312fba7016c6d" target="_top" xlink:title="js_array_every">
<polygon fill="none" stroke="#000000" points="491.5,-114.5 491.5,-133.5 571.5,-133.5 571.5,-114.5 491.5,-114.5"/>
<text text-anchor="middle" x="531.5" y="-121.5" font-family="Helvetica,sans-Serif" font-size="10.00" fill="#000000">js_array_every</text>
</a>
</g>
</g>
<!-- Node275369&#45;&gt;Node275402 -->
<g id="edge25" class="edge">
<title>Node275369&#45;&gt;Node275402</title>
<path fill="none" stroke="#191970" d="M381.7794,-359.7018C396.9792,-346.0983 417.2942,-325.3786 429,-303 462.784,-238.4134 414.949,-195.9876 465,-143 471.9258,-135.6678 481.4663,-131.1018 491.16,-128.2759"/>
<polygon fill="#191970" stroke="#191970" points="379.2106,-357.2967 373.9485,-366.4925 383.7966,-362.5852 379.2106,-357.2967"/>
</g>
<!-- Node275426 -->
<g id="node23" class="node">
<title>Node275426</title>
<g id="a_node23"><a xlink:href="quickjs_8c.html#a36c1692489542a86dd79a7d39ab8ff95" target="_top" xlink:title="js_array_reduce">
<polygon fill="none" stroke="#000000" points="488.5,-810.5 488.5,-829.5 574.5,-829.5 574.5,-810.5 488.5,-810.5"/>
<text text-anchor="middle" x="531.5" y="-817.5" font-family="Helvetica,sans-Serif" font-size="10.00" fill="#000000">js_array_reduce</text>
</a>
</g>
</g>
<!-- Node275369&#45;&gt;Node275426 -->
<g id="edge26" class="edge">
<title>Node275369&#45;&gt;Node275426</title>
<path fill="none" stroke="#191970" d="M364.1388,-395.5625C372.751,-470.8717 407.2298,-740.8395 465,-801 471.3206,-807.5821 479.7493,-811.9306 488.4773,-814.7916"/>
<polygon fill="#191970" stroke="#191970" points="367.6096,-395.106 363.0173,-385.5582 360.6532,-395.8859 367.6096,-395.106"/>
</g>
<!-- Node275427 -->
<g id="node24" class="node">
<title>Node275427</title>
<g id="a_node24"><a xlink:href="quickjs_8c.html#a9dd41b086da4e13b3487cc9c6e2af2b8" target="_top" xlink:title="js_array_find">
<polygon fill="none" stroke="#000000" points="495.5,-772.5 495.5,-791.5 567.5,-791.5 567.5,-772.5 495.5,-772.5"/>
<text text-anchor="middle" x="531.5" y="-779.5" font-family="Helvetica,sans-Serif" font-size="10.00" fill="#000000">js_array_find</text>
</a>
</g>
</g>
<!-- Node275369&#45;&gt;Node275427 -->
<g id="edge27" class="edge">
<title>Node275369&#45;&gt;Node275427</title>
<path fill="none" stroke="#191970" d="M364.7077,-396.0667C374.7518,-467.6506 412.0488,-709.0773 465,-763 472.9922,-771.1388 484.2104,-775.8536 495.1597,-778.5648"/>
<polygon fill="#191970" stroke="#191970" points="368.1187,-395.1804 363.2856,-385.7522 361.1843,-396.1366 368.1187,-395.1804"/>
</g>
<!-- Node275428 -->
<g id="node25" class="node">
<title>Node275428</title>
<g id="a_node25"><a xlink:href="quickjs_8c.html#ad90c33b4aae1181151bda4a98ac2ef23" target="_top" xlink:title="JS_FlattenIntoArray">
<polygon fill="none" stroke="#ff0000" points="479.5,-716.5 479.5,-735.5 583.5,-735.5 583.5,-716.5 479.5,-716.5"/>
<text text-anchor="middle" x="531.5" y="-723.5" font-family="Helvetica,sans-Serif" font-size="10.00" fill="#000000">JS_FlattenIntoArray</text>
</a>
</g>
</g>
<!-- Node275369&#45;&gt;Node275428 -->
<g id="edge28" class="edge">
<title>Node275369&#45;&gt;Node275428</title>
<path fill="none" stroke="#191970" d="M365.5833,-395.6167C377.6742,-459.779 418.8037,-661.8714 465,-707 469.1227,-711.0274 474.0373,-714.2125 479.3019,-716.7296"/>
<polygon fill="#191970" stroke="#191970" points="368.9929,-394.8072 363.7247,-385.6151 362.1107,-396.0862 368.9929,-394.8072"/>
</g>
<!-- Node275430 -->
<g id="node26" class="node">
<title>Node275430</title>
<g id="a_node26"><a xlink:href="quickjs_8c.html#aed1bf9ce4b9e3a82388679dd6ec7635b" target="_top" xlink:title="js_string_replace">
<polygon fill="none" stroke="#000000" points="486.5,-38.5 486.5,-57.5 576.5,-57.5 576.5,-38.5 486.5,-38.5"/>
<text text-anchor="middle" x="531.5" y="-45.5" font-family="Helvetica,sans-Serif" font-size="10.00" fill="#000000">js_string_replace</text>
</a>
</g>
</g>
<!-- Node275369&#45;&gt;Node275430 -->
<g id="edge30" class="edge">
<title>Node275369&#45;&gt;Node275430</title>
<path fill="none" stroke="#191970" d="M382.4771,-359.6845C397.8873,-346.1982 418.1465,-325.6433 429,-303 474.8612,-207.3212 394.8835,-146.6326 465,-67 470.6337,-60.6017 478.2576,-56.291 486.3344,-53.4021"/>
<polygon fill="#191970" stroke="#191970" points="379.8863,-357.2914 374.5053,-366.418 384.4032,-362.639 379.8863,-357.2914"/>
</g>
<!-- Node275431 -->
<g id="node27" class="node">
<title>Node275431</title>
<g id="a_node27"><a xlink:href="quickjs_8c.html#a624282391413d4c5a030adbd8b77aa80" target="_top" xlink:title="internalize_json_property">
<polygon fill="none" stroke="#ff0000" points="469,-660.5 469,-679.5 594,-679.5 594,-660.5 469,-660.5"/>
<text text-anchor="middle" x="531.5" y="-667.5" font-family="Helvetica,sans-Serif" font-size="10.00" fill="#000000">internalize_json_property</text>
</a>
</g>
</g>
<!-- Node275369&#45;&gt;Node275431 -->
<g id="edge31" class="edge">
<title>Node275369&#45;&gt;Node275431</title>
<path fill="none" stroke="#191970" d="M363.4886,-395.9326C368.3453,-446.3747 388.1884,-580.1051 465,-651 469.2352,-654.909 474.2201,-658.02 479.5247,-660.495"/>
<polygon fill="#191970" stroke="#191970" points="366.9549,-395.3916 362.6066,-385.7302 359.9809,-395.9945 366.9549,-395.3916"/>
</g>
<!-- Node275433 -->
<g id="node28" class="node">
<title>Node275433</title>
<g id="a_node28"><a xlink:href="quickjs_8c.html#a0da6493b4bc0edb7ddddfab807241d0b" target="_top" xlink:title="js_json_check">
<polygon fill="none" stroke="#ff0000" points="492,-.5 492,-19.5 571,-19.5 571,-.5 492,-.5"/>
<text text-anchor="middle" x="531.5" y="-7.5" font-family="Helvetica,sans-Serif" font-size="10.00" fill="#000000">js_json_check</text>
</a>
</g>
</g>
<!-- Node275369&#45;&gt;Node275433 -->
<g id="edge33" class="edge">
<title>Node275369&#45;&gt;Node275433</title>
<path fill="none" stroke="#191970" d="M382.6075,-359.7462C398.0896,-346.2939 418.3818,-325.7546 429,-303 480.9379,-191.6974 384.793,-122.0197 465,-29 471.8216,-21.0887 481.687,-16.3602 491.7395,-13.5649"/>
<polygon fill="#191970" stroke="#191970" points="380.0115,-357.3551 374.5932,-366.4596 384.5066,-362.7211 380.0115,-357.3551"/>
</g>
<!-- Node275414&#45;&gt;Node275414 -->
<g id="edge19" class="edge">
<title>Node275414&#45;&gt;Node275414</title>
<path fill="none" stroke="#191970" d="M500.0629,-294.2746C500.9592,-299.741 511.4382,-304 531.5,-304 561.3594,-304 569.9906,-294.5653 557.3937,-285.7571"/>
<polygon fill="#191970" stroke="#191970" points="503.085,-296.0475 505.6063,-285.7571 497.2181,-292.2291 503.085,-296.0475"/>
</g>
<!-- Node275422&#45;&gt;Node275349 -->
<g id="edge22" class="edge">
<title>Node275422&#45;&gt;Node275349</title>
<path fill="none" stroke="#191970" d="M479.7366,-98.8526C474.6655,-100.6845 469.6727,-102.73 465,-105 363.8798,-154.1243 260.5066,-244.6431 227.9593,-274.3077"/>
<polygon fill="#191970" stroke="#191970" points="481.1422,-102.0735 489.5217,-95.59 478.9281,-95.4329 481.1422,-102.0735"/>
</g>
<!-- Node275428&#45;&gt;Node275428 -->
<g id="edge29" class="edge">
<title>Node275428&#45;&gt;Node275428</title>
<path fill="none" stroke="#191970" d="M500.0629,-744.2746C500.9592,-749.741 511.4382,-754 531.5,-754 561.3594,-754 569.9906,-744.5653 557.3937,-735.7571"/>
<polygon fill="#191970" stroke="#191970" points="503.085,-746.0475 505.6063,-735.7571 497.2181,-742.2291 503.085,-746.0475"/>
</g>
<!-- Node275431&#45;&gt;Node275431 -->
<g id="edge32" class="edge">
<title>Node275431&#45;&gt;Node275431</title>
<path fill="none" stroke="#191970" d="M500.0629,-688.2746C500.9592,-693.741 511.4382,-698 531.5,-698 561.3594,-698 569.9906,-688.5653 557.3937,-679.7571"/>
<polygon fill="#191970" stroke="#191970" points="503.085,-690.0475 505.6063,-679.7571 497.2181,-686.2291 503.085,-690.0475"/>
</g>
<!-- Node275455&#45;&gt;Node275349 -->
<g id="edge35" class="edge">
<title>Node275455&#45;&gt;Node275349</title>
<path fill="none" stroke="#191970" d="M284.7059,-290.7354C275.9651,-290.6845 267.3232,-290.5014 259.2954,-290.186"/>
<polygon fill="#191970" stroke="#191970" points="284.9819,-294.2354 294.9815,-290.7342 284.981,-287.2354 284.9819,-294.2354"/>
</g>
<!-- Node275469&#45;&gt;Node275349 -->
<g id="edge37" class="edge">
<title>Node275469&#45;&gt;Node275349</title>
<path fill="none" stroke="#191970" d="M335.0852,-113.696C321.7437,-118.1037 306.146,-124.0129 295,-134 249.716,-174.5757 228.1198,-247.5005 220.6584,-274.2978"/>
<polygon fill="#191970" stroke="#191970" points="336.2985,-116.9822 344.7367,-110.5754 334.1449,-110.3217 336.2985,-116.9822"/>
</g>
<!-- Node275469&#45;&gt;Node275430 -->
<g id="edge39" class="edge">
<title>Node275469&#45;&gt;Node275430</title>
<path fill="none" stroke="#191970" d="M399.5897,-88.1858C419.0522,-81.6544 443.2366,-73.6981 465,-67 475.3283,-63.8213 486.6137,-60.5293 496.9066,-57.5965"/>
<polygon fill="#191970" stroke="#191970" points="398.2393,-84.9474 389.8804,-91.4573 400.4745,-91.581 398.2393,-84.9474"/>
</g>
<!-- Node275469&#45;&gt;Node275433 -->
<g id="edge38" class="edge">
<title>Node275469&#45;&gt;Node275433</title>
<path fill="none" stroke="#191970" d="M380.8654,-84.8954C400.6589,-68.7273 433.2521,-44.109 465,-29 473.3483,-25.027 482.6908,-21.7251 491.6741,-19.05"/>
<polygon fill="#191970" stroke="#191970" points="378.4189,-82.3776 372.9633,-91.4598 382.8919,-87.7621 378.4189,-82.3776"/>
</g>
</g>
</svg>
