<?xml version="1.0" encoding="UTF-8" standalone="no"?>
<!DOCTYPE svg PUBLIC "-//W3C//DTD SVG 1.1//EN"
 "http://www.w3.org/Graphics/SVG/1.1/DTD/svg11.dtd">
<!-- Generated by graphviz version 2.40.1 (20161225.0304)
 -->
<!-- Title: js_dup_shape Pages: 1 -->
<!--zoomable 635 -->
<svg id="main" version="1.1" xmlns="http://www.w3.org/2000/svg" xmlns:xlink="http://www.w3.org/1999/xlink" xml:space="preserve" onload="init(evt)">
<style type="text/css"><![CDATA[
.edge:hover path { stroke: red; }
.edge:hover polygon { stroke: red; fill: red; }
]]></style>
<script type="text/javascript"><![CDATA[
var edges = document.getElementsByTagName('g');
if (edges && edges.length) {
  for (var i=0;i<edges.length;i++) {
    if (edges[i].id.substr(0,4)=='edge') {
      edges[i].setAttribute('class','edge');
    }
  }
}
]]></script>
        <defs>
                <circle id="rim" cx="0" cy="0" r="7"/>
                <circle id="rim2" cx="0" cy="0" r="3.5"/>
                <g id="zoomPlus">
                        <use xlink:href="#rim" fill="#404040">
                                <set attributeName="fill" to="#808080" begin="zoomplus.mouseover" end="zoomplus.mouseout"/>
                        </use>
                        <path d="M-4,0h8M0,-4v8" fill="none" stroke="white" stroke-width="1.5" pointer-events="none"/>
                </g>
                <g id="zoomMin">
                        <use xlink:href="#rim" fill="#404040">
                                <set attributeName="fill" to="#808080" begin="zoomminus.mouseover" end="zoomminus.mouseout"/>
                        </use>
                        <path d="M-4,0h8" fill="none" stroke="white" stroke-width="1.5" pointer-events="none"/>
                </g>
                <g id="dirArrow">
                        <path fill="none" stroke="white" stroke-width="1.5" d="M0,-3.0v7 M-2.5,-0.5L0,-3.0L2.5,-0.5"/>
                </g>
               <g id="resetDef">
                       <use xlink:href="#rim2" fill="#404040">
                               <set attributeName="fill" to="#808080" begin="reset.mouseover" end="reset.mouseout"/>
                       </use>
               </g>
        </defs>

<script type="text/javascript">
var viewWidth = 1000;
var viewHeight = 635;
var sectionId = 'dynsection-380';
</script>
<script xlink:href="svgpan.js"/>
<svg id="graph" class="graph">
<g id="viewport">
<title>js_dup_shape</title>
<!-- Node127877 -->
<g id="node1" class="node">
<title>Node127877</title>
<polygon fill="#bfbfbf" stroke="#000000" points="0,-10.9526 0,-29.9526 77,-29.9526 77,-10.9526 0,-10.9526"/>
<text text-anchor="middle" x="38.5" y="-17.9526" font-family="Helvetica,sans-Serif" font-size="10.00" fill="#000000">js_dup_shape</text>
</g>
<!-- Node127878 -->
<g id="node2" class="node">
<title>Node127878</title>
<g id="a_node2"><a xlink:href="quickjs_8c.html#a74547db03bf739a52c83a326b32db997" target="_top" xlink:title="add_property">
<polygon fill="none" stroke="#000000" points="113,-268.9526 113,-287.9526 186,-287.9526 186,-268.9526 113,-268.9526"/>
<text text-anchor="middle" x="149.5" y="-275.9526" font-family="Helvetica,sans-Serif" font-size="10.00" fill="#000000">add_property</text>
</a>
</g>
</g>
<!-- Node127877&#45;&gt;Node127878 -->
<g id="edge1" class="edge">
<title>Node127877&#45;&gt;Node127878</title>
<path fill="none" stroke="#191970" d="M46.7199,-39.5583C68.8505,-90.9969 129.115,-231.0713 145.3981,-268.9184"/>
<polygon fill="#191970" stroke="#191970" points="49.883,-38.0541 42.7158,-30.2514 43.4529,-40.8206 49.883,-38.0541"/>
</g>
<!-- Node128496 -->
<g id="node20" class="node">
<title>Node128496</title>
<g id="a_node20"><a xlink:href="quickjs_8c.html#a73738c650f11459db0d7af3dcdf8316b" target="_top" xlink:title="JS_NewObjectProtoClass">
<polygon fill="none" stroke="#ff0000" points="401.5,-48.9526 401.5,-67.9526 532.5,-67.9526 532.5,-48.9526 401.5,-48.9526"/>
<text text-anchor="middle" x="467" y="-55.9526" font-family="Helvetica,sans-Serif" font-size="10.00" fill="#000000">JS_NewObjectProtoClass</text>
</a>
</g>
</g>
<!-- Node127877&#45;&gt;Node128496 -->
<g id="edge41" class="edge">
<title>Node127877&#45;&gt;Node128496</title>
<path fill="none" stroke="#191970" d="M87.4189,-21.7499C149.7281,-23.7782 260.6499,-28.6497 355,-39.4526 375.6719,-41.8195 398.3271,-45.4624 417.8201,-48.9276"/>
<polygon fill="#191970" stroke="#191970" points="87.2107,-18.2417 77.1057,-21.4258 86.9908,-25.2383 87.2107,-18.2417"/>
</g>
<!-- Node128513 -->
<g id="node21" class="node">
<title>Node128513</title>
<g id="a_node21"><a xlink:href="quickjs_8c.html#ad4ba09e4c7ab9f28c144182e1aacf1f6" target="_top" xlink:title="JS_NewArray">
<polygon fill="none" stroke="#ff0000" points="428.5,-10.9526 428.5,-29.9526 505.5,-29.9526 505.5,-10.9526 428.5,-10.9526"/>
<text text-anchor="middle" x="467" y="-17.9526" font-family="Helvetica,sans-Serif" font-size="10.00" fill="#000000">JS_NewArray</text>
</a>
</g>
</g>
<!-- Node127877&#45;&gt;Node128513 -->
<g id="edge40" class="edge">
<title>Node127877&#45;&gt;Node128513</title>
<path fill="none" stroke="#191970" d="M87.2199,-9.9561C95.7728,-8.4981 104.6177,-7.2333 113,-6.4526 220.092,3.5224 247.6523,.2306 355,-6.4526 379.5452,-7.9807 406.9415,-11.3752 428.4946,-14.4388"/>
<polygon fill="#191970" stroke="#191970" points="86.5765,-6.5156 77.3588,-11.7392 87.8221,-13.4039 86.5765,-6.5156"/>
</g>
<!-- Node127879 -->
<g id="node3" class="node">
<title>Node127879</title>
<g id="a_node3"><a xlink:href="quickjs_8c.html#ac93c982cb636a5430b191d104083af3e" target="_top" xlink:title="convert_fast_array\l_to_array">
<polygon fill="none" stroke="#000000" points="239.5,-263.4526 239.5,-293.4526 337.5,-293.4526 337.5,-263.4526 239.5,-263.4526"/>
<text text-anchor="start" x="247.5" y="-281.4526" font-family="Helvetica,sans-Serif" font-size="10.00" fill="#000000">convert_fast_array</text>
<text text-anchor="middle" x="288.5" y="-270.4526" font-family="Helvetica,sans-Serif" font-size="10.00" fill="#000000">_to_array</text>
</a>
</g>
</g>
<!-- Node127878&#45;&gt;Node127879 -->
<g id="edge2" class="edge">
<title>Node127878&#45;&gt;Node127879</title>
<path fill="none" stroke="#191970" d="M196.3196,-278.4526C210.1882,-278.4526 225.4099,-278.4526 239.4174,-278.4526"/>
<polygon fill="#191970" stroke="#191970" points="196.0206,-274.9527 186.0206,-278.4526 196.0206,-281.9527 196.0206,-274.9527"/>
</g>
<!-- Node128111 -->
<g id="node5" class="node">
<title>Node128111</title>
<g id="a_node5"><a xlink:href="quickjs_8c.html#ad5565bb5cfd5321f181573257f3b0c91" target="_top" xlink:title="JS_CreateProperty">
<polygon fill="none" stroke="#ff0000" points="417,-200.9526 417,-219.9526 517,-219.9526 517,-200.9526 417,-200.9526"/>
<text text-anchor="middle" x="467" y="-207.9526" font-family="Helvetica,sans-Serif" font-size="10.00" fill="#000000">JS_CreateProperty</text>
</a>
</g>
</g>
<!-- Node127878&#45;&gt;Node128111 -->
<g id="edge23" class="edge">
<title>Node127878&#45;&gt;Node128111</title>
<path fill="none" stroke="#191970" d="M185.2088,-265.5137C196.8375,-261.6018 209.8742,-257.5319 222,-254.4526 288.5983,-237.5402 366.9796,-224.6629 416.8164,-217.3323"/>
<polygon fill="#191970" stroke="#191970" points="183.7295,-262.3212 175.4104,-268.8819 186.0051,-268.941 183.7295,-262.3212"/>
</g>
<!-- Node127882 -->
<g id="node7" class="node">
<title>Node127882</title>
<g id="a_node7"><a xlink:href="quickjs_8c.html#ad7f03358a8088ca920ab308225c6b2e6" target="_top" xlink:title="JS_SetPropertyInternal">
<polygon fill="none" stroke="#ff0000" points="755,-200.9526 755,-219.9526 873,-219.9526 873,-200.9526 755,-200.9526"/>
<text text-anchor="middle" x="814" y="-207.9526" font-family="Helvetica,sans-Serif" font-size="10.00" fill="#000000">JS_SetPropertyInternal</text>
</a>
</g>
</g>
<!-- Node127878&#45;&gt;Node127882 -->
<g id="edge39" class="edge">
<title>Node127878&#45;&gt;Node127882</title>
<path fill="none" stroke="#191970" d="M167.023,-261.41C180.8419,-248.958 201.1955,-232.6951 222,-223.4526 291.862,-192.4162 314.8887,-198.5949 391,-191.4526 520.3633,-179.313 672.7353,-192.9937 754.6776,-202.6273"/>
<polygon fill="#191970" stroke="#191970" points="164.2581,-259.2015 159.3175,-268.5739 169.0245,-264.3282 164.2581,-259.2015"/>
</g>
<!-- Node127899 -->
<g id="node8" class="node">
<title>Node127899</title>
<g id="a_node8"><a xlink:href="quickjs_8c.html#ac2894ff4edcdb4e6841bcce9c76081e3" target="_top" xlink:title="JS_CallInternal">
<polygon fill="none" stroke="#ff0000" points="909,-295.9526 909,-314.9526 992,-314.9526 992,-295.9526 909,-295.9526"/>
<text text-anchor="middle" x="950.5" y="-302.9526" font-family="Helvetica,sans-Serif" font-size="10.00" fill="#000000">JS_CallInternal</text>
</a>
</g>
</g>
<!-- Node127878&#45;&gt;Node127899 -->
<g id="edge22" class="edge">
<title>Node127878&#45;&gt;Node127899</title>
<path fill="none" stroke="#191970" d="M179.8351,-292.1136C235.5278,-315.9094 358.3472,-362.4526 467,-362.4526 467,-362.4526 467,-362.4526 649,-362.4526 749.9485,-362.4526 866.6519,-331.2196 920.4711,-314.9931"/>
<polygon fill="#191970" stroke="#191970" points="181.1143,-288.8535 170.5471,-288.0885 178.3308,-295.2763 181.1143,-288.8535"/>
</g>
<!-- Node128219 -->
<g id="node10" class="node">
<title>Node128219</title>
<g id="a_node10"><a xlink:href="quickjs_8c.html#a04d312757919ff6b4d79cd0c2c3e5bb2" target="_top" xlink:title="js_build_arguments">
<polygon fill="none" stroke="#000000" points="763.5,-153.9526 763.5,-172.9526 864.5,-172.9526 864.5,-153.9526 763.5,-153.9526"/>
<text text-anchor="middle" x="814" y="-160.9526" font-family="Helvetica,sans-Serif" font-size="10.00" fill="#000000">js_build_arguments</text>
</a>
</g>
</g>
<!-- Node127878&#45;&gt;Node128219 -->
<g id="edge18" class="edge">
<title>Node127878&#45;&gt;Node128219</title>
<path fill="none" stroke="#191970" d="M158.6966,-259.806C170.2385,-238.7099 192.1949,-205.3543 222,-190.4526 407.198,-97.8589 667.0744,-134.161 769.7617,-153.9237"/>
<polygon fill="#191970" stroke="#191970" points="155.5343,-258.3004 154.0066,-268.7846 161.7389,-261.5414 155.5343,-258.3004"/>
</g>
<!-- Node128491 -->
<g id="node11" class="node">
<title>Node128491</title>
<g id="a_node11"><a xlink:href="quickjs_8c.html#a6a21784a40b8684f2e779bd460dd13b2" target="_top" xlink:title="JS_AddBrand">
<polygon fill="none" stroke="#000000" points="610.5,-580.9526 610.5,-599.9526 687.5,-599.9526 687.5,-580.9526 610.5,-580.9526"/>
<text text-anchor="middle" x="649" y="-587.9526" font-family="Helvetica,sans-Serif" font-size="10.00" fill="#000000">JS_AddBrand</text>
</a>
</g>
</g>
<!-- Node127878&#45;&gt;Node128491 -->
<g id="edge16" class="edge">
<title>Node127878&#45;&gt;Node128491</title>
<path fill="none" stroke="#191970" d="M151.5075,-298.4663C157.9164,-357.961 179.9725,-531.754 222,-566.4526 338.5167,-662.6505 539.6117,-621.0744 617.1917,-599.9759"/>
<polygon fill="#191970" stroke="#191970" points="154.9518,-297.7493 150.4331,-288.1664 147.9896,-298.4756 154.9518,-297.7493"/>
</g>
<!-- Node128195 -->
<g id="node12" class="node">
<title>Node128195</title>
<g id="a_node12"><a xlink:href="quickjs_8c.html#a1c459034f2971c4abc3a8d6d4693ef5f" target="_top" xlink:title="js_build_mapped_arguments">
<polygon fill="none" stroke="#000000" points="579,-86.9526 579,-105.9526 719,-105.9526 719,-86.9526 579,-86.9526"/>
<text text-anchor="middle" x="649" y="-93.9526" font-family="Helvetica,sans-Serif" font-size="10.00" fill="#000000">js_build_mapped_arguments</text>
</a>
</g>
</g>
<!-- Node127878&#45;&gt;Node128195 -->
<g id="edge19" class="edge">
<title>Node127878&#45;&gt;Node128195</title>
<path fill="none" stroke="#191970" d="M152.0625,-258.5673C157.7107,-223.8183 174.7273,-152.6807 222,-120.4526 278.2105,-82.131 472.742,-86.3746 578.7664,-91.8813"/>
<polygon fill="#191970" stroke="#191970" points="148.543,-258.446 150.5556,-268.848 155.469,-259.4613 148.543,-258.446"/>
</g>
<!-- Node128224 -->
<g id="node13" class="node">
<title>Node128224</title>
<g id="a_node13"><a xlink:href="quickjs_8c.html#ad12b6863ca31850fc39d208bb865420e" target="_top" xlink:title="js_build_module_ns">
<polygon fill="none" stroke="#ff0000" points="416,-390.9526 416,-409.9526 518,-409.9526 518,-390.9526 416,-390.9526"/>
<text text-anchor="middle" x="467" y="-397.9526" font-family="Helvetica,sans-Serif" font-size="10.00" fill="#000000">js_build_module_ns</text>
</a>
</g>
</g>
<!-- Node127878&#45;&gt;Node128224 -->
<g id="edge21" class="edge">
<title>Node127878&#45;&gt;Node128224</title>
<path fill="none" stroke="#191970" d="M157.6233,-297.5029C168.5667,-320.5636 190.3882,-358.5307 222,-376.4526 281.8582,-410.3883 363.3291,-411.1318 415.5528,-407.0103"/>
<polygon fill="#191970" stroke="#191970" points="160.6731,-295.7524 153.3646,-288.0819 154.2945,-298.6358 160.6731,-295.7524"/>
</g>
<!-- Node128492 -->
<g id="node14" class="node">
<title>Node128492</title>
<g id="a_node14"><a xlink:href="quickjs_8c.html#a7128998511654840928b9df9d4c55b3c" target="_top" xlink:title="JS_DefineAutoInitProperty">
<polygon fill="none" stroke="#000000" points="222,-428.9526 222,-447.9526 355,-447.9526 355,-428.9526 222,-428.9526"/>
<text text-anchor="middle" x="288.5" y="-435.9526" font-family="Helvetica,sans-Serif" font-size="10.00" fill="#000000">JS_DefineAutoInitProperty</text>
</a>
</g>
</g>
<!-- Node127878&#45;&gt;Node128492 -->
<g id="edge24" class="edge">
<title>Node127878&#45;&gt;Node128492</title>
<path fill="none" stroke="#191970" d="M154.9772,-298.0909C164.1257,-327.4194 185.2326,-382.6132 222,-414.4526 229.2373,-420.7198 238.2378,-425.396 247.2553,-428.8688"/>
<polygon fill="#191970" stroke="#191970" points="158.2484,-296.8111 152.0488,-288.2195 151.5375,-298.802 158.2484,-296.8111"/>
</g>
<!-- Node128493 -->
<g id="node17" class="node">
<title>Node128493</title>
<g id="a_node17"><a xlink:href="quickjs_8c.html#a4e5684e94183b342edf8cf73f1c23d65" target="_top" xlink:title="JS_DefineGlobalVar">
<polygon fill="none" stroke="#000000" points="761.5,-542.9526 761.5,-561.9526 866.5,-561.9526 866.5,-542.9526 761.5,-542.9526"/>
<text text-anchor="middle" x="814" y="-549.9526" font-family="Helvetica,sans-Serif" font-size="10.00" fill="#000000">JS_DefineGlobalVar</text>
</a>
</g>
</g>
<!-- Node127878&#45;&gt;Node128493 -->
<g id="edge29" class="edge">
<title>Node127878&#45;&gt;Node128493</title>
<path fill="none" stroke="#191970" d="M152.6432,-298.1676C161.3062,-349.8171 187.2089,-486.9784 222,-514.4526 304.5436,-579.6364 632.2198,-564.9958 761.3253,-556.4129"/>
<polygon fill="#191970" stroke="#191970" points="156.0483,-297.303 150.9771,-288.0007 149.1404,-298.4351 156.0483,-297.303"/>
</g>
<!-- Node128494 -->
<g id="node18" class="node">
<title>Node128494</title>
<g id="a_node18"><a xlink:href="quickjs_8c.html#a3865abec9986277dbff58ea314f3d82e" target="_top" xlink:title="JS_DefinePrivateField">
<polygon fill="none" stroke="#000000" points="231.5,-485.9526 231.5,-504.9526 345.5,-504.9526 345.5,-485.9526 231.5,-485.9526"/>
<text text-anchor="middle" x="288.5" y="-492.9526" font-family="Helvetica,sans-Serif" font-size="10.00" fill="#000000">JS_DefinePrivateField</text>
</a>
</g>
</g>
<!-- Node127878&#45;&gt;Node128494 -->
<g id="edge31" class="edge">
<title>Node127878&#45;&gt;Node128494</title>
<path fill="none" stroke="#191970" d="M153.0672,-298.2244C160.3668,-333.8057 179.9915,-409.3859 222,-457.4526 233.1129,-470.1682 249.566,-479.6196 263.3258,-485.9162"/>
<polygon fill="#191970" stroke="#191970" points="156.456,-297.3146 151.1175,-288.163 149.5839,-298.6463 156.456,-297.3146"/>
</g>
<!-- Node128495 -->
<g id="node19" class="node">
<title>Node128495</title>
<g id="a_node19"><a xlink:href="quickjs_8c.html#a030c2e98b1775a7e3bdd13be1400b1fe" target="_top" xlink:title="JS_NewObjectFromShape">
<polygon fill="none" stroke="#000000" points="222,-48.9526 222,-67.9526 355,-67.9526 355,-48.9526 222,-48.9526"/>
<text text-anchor="middle" x="288.5" y="-55.9526" font-family="Helvetica,sans-Serif" font-size="10.00" fill="#000000">JS_NewObjectFromShape</text>
</a>
</g>
</g>
<!-- Node127878&#45;&gt;Node128495 -->
<g id="edge33" class="edge">
<title>Node127878&#45;&gt;Node128495</title>
<path fill="none" stroke="#191970" d="M151.3488,-258.722C156.0359,-219.7172 171.8338,-132.2223 222,-82.4526 228.3608,-76.1421 236.5013,-71.479 244.8894,-68.0369"/>
<polygon fill="#191970" stroke="#191970" points="147.8575,-258.4543 150.2632,-268.7723 154.817,-259.2061 147.8575,-258.4543"/>
</g>
<!-- Node127880 -->
<g id="node4" class="node">
<title>Node127880</title>
<g id="a_node4"><a xlink:href="quickjs_8c.html#a2b9a2014cb970af5b5b7dde00afbdffa" target="_top" xlink:title="delete_property">
<polygon fill="none" stroke="#ff0000" points="425.5,-314.9526 425.5,-333.9526 508.5,-333.9526 508.5,-314.9526 425.5,-314.9526"/>
<text text-anchor="middle" x="467" y="-321.9526" font-family="Helvetica,sans-Serif" font-size="10.00" fill="#000000">delete_property</text>
</a>
</g>
</g>
<!-- Node127879&#45;&gt;Node127880 -->
<g id="edge3" class="edge">
<title>Node127879&#45;&gt;Node127880</title>
<path fill="none" stroke="#191970" d="M347.5674,-293.6744C374.8006,-300.6925 406.2835,-308.8058 430.0866,-314.9399"/>
<polygon fill="#191970" stroke="#191970" points="348.3055,-290.2504 337.7484,-291.1441 346.5586,-297.0289 348.3055,-290.2504"/>
</g>
<!-- Node127879&#45;&gt;Node128111 -->
<g id="edge4" class="edge">
<title>Node127879&#45;&gt;Node128111</title>
<path fill="none" stroke="#191970" d="M330.6541,-259.2348C349.0206,-251.1547 370.9037,-241.9179 391,-234.4526 405.0083,-229.2488 420.7235,-224.1642 434.2122,-220.0244"/>
<polygon fill="#191970" stroke="#191970" points="329.1209,-256.086 321.3982,-263.3393 331.9586,-262.485 329.1209,-256.086"/>
</g>
<!-- Node128112 -->
<g id="node6" class="node">
<title>Node128112</title>
<g id="a_node6"><a xlink:href="quickjs_8c.html#ab50618f1bf78e444caa6da0e3e2785d7" target="_top" xlink:title="JS_DefineProperty">
<polygon fill="none" stroke="#ff0000" points="599.5,-238.9526 599.5,-257.9526 698.5,-257.9526 698.5,-238.9526 599.5,-238.9526"/>
<text text-anchor="middle" x="649" y="-245.9526" font-family="Helvetica,sans-Serif" font-size="10.00" fill="#000000">JS_DefineProperty</text>
</a>
</g>
</g>
<!-- Node127879&#45;&gt;Node128112 -->
<g id="edge14" class="edge">
<title>Node127879&#45;&gt;Node128112</title>
<path fill="none" stroke="#191970" d="M347.8894,-273.5103C418.1065,-267.667 533.6986,-258.0477 599.3595,-252.5836"/>
<polygon fill="#191970" stroke="#191970" points="347.5454,-270.0268 337.8701,-274.3441 348.1259,-277.0027 347.5454,-270.0268"/>
</g>
<!-- Node128251 -->
<g id="node9" class="node">
<title>Node128251</title>
<g id="a_node9"><a xlink:href="quickjs_8c.html#a9105ee38f5a557a7922fe6cfee0f9bb2" target="_top" xlink:title="js_arguments_define\l_own_property">
<polygon fill="none" stroke="#000000" points="760.5,-277.4526 760.5,-307.4526 867.5,-307.4526 867.5,-277.4526 760.5,-277.4526"/>
<text text-anchor="start" x="768.5" y="-295.4526" font-family="Helvetica,sans-Serif" font-size="10.00" fill="#000000">js_arguments_define</text>
<text text-anchor="middle" x="814" y="-284.4526" font-family="Helvetica,sans-Serif" font-size="10.00" fill="#000000">_own_property</text>
</a>
</g>
</g>
<!-- Node127879&#45;&gt;Node128251 -->
<g id="edge15" class="edge">
<title>Node127879&#45;&gt;Node128251</title>
<path fill="none" stroke="#191970" d="M348.1833,-280.0426C451.3864,-282.7921 661.5973,-288.3924 760.4095,-291.0249"/>
<polygon fill="#191970" stroke="#191970" points="348.0275,-276.5373 337.9378,-279.7697 347.841,-283.5348 348.0275,-276.5373"/>
</g>
<!-- Node128111&#45;&gt;Node128112 -->
<g id="edge5" class="edge">
<title>Node128111&#45;&gt;Node128112</title>
<path fill="none" stroke="#191970" d="M522.9458,-222.1336C548.7558,-227.5225 579.0069,-233.8386 603.404,-238.9325"/>
<polygon fill="#191970" stroke="#191970" points="523.4306,-218.6594 512.9263,-220.0416 521.9998,-225.5116 523.4306,-218.6594"/>
</g>
<!-- Node128111&#45;&gt;Node127882 -->
<g id="edge13" class="edge">
<title>Node128111&#45;&gt;Node127882</title>
<path fill="none" stroke="#191970" d="M527.4105,-210.4526C591.3244,-210.4526 691.5195,-210.4526 754.9231,-210.4526"/>
<polygon fill="#191970" stroke="#191970" points="527.0862,-206.9527 517.0862,-210.4526 527.0862,-213.9527 527.0862,-206.9527"/>
</g>
<!-- Node128112&#45;&gt;Node127882 -->
<g id="edge6" class="edge">
<title>Node128112&#45;&gt;Node127882</title>
<path fill="none" stroke="#191970" d="M700.654,-236.5565C723.8465,-231.2152 750.8383,-224.9989 772.6629,-219.9726"/>
<polygon fill="#191970" stroke="#191970" points="699.5959,-233.2085 690.6365,-238.8636 701.1669,-240.0299 699.5959,-233.2085"/>
</g>
<!-- Node128112&#45;&gt;Node127899 -->
<g id="edge12" class="edge">
<title>Node128112&#45;&gt;Node127899</title>
<path fill="none" stroke="#191970" d="M708.8745,-248.06C754.5858,-249.1275 818.7346,-253.5956 873,-268.4526 895.5772,-274.6339 919.6109,-287.1496 934.823,-295.9054"/>
<polygon fill="#191970" stroke="#191970" points="708.895,-244.5598 698.8316,-247.8731 708.7647,-251.5586 708.895,-244.5598"/>
</g>
<!-- Node128112&#45;&gt;Node128251 -->
<g id="edge9" class="edge">
<title>Node128112&#45;&gt;Node128251</title>
<path fill="none" stroke="#191970" d="M694.4845,-260.5818C714.8911,-266.0236 739.1095,-272.4818 760.3918,-278.1571"/>
<polygon fill="#191970" stroke="#191970" points="695.3667,-257.1948 684.8025,-257.9999 693.5631,-263.9585 695.3667,-257.1948"/>
</g>
<!-- Node128112&#45;&gt;Node128219 -->
<g id="edge10" class="edge">
<title>Node128112&#45;&gt;Node128219</title>
<path fill="none" stroke="#191970" d="M674.9078,-234.0503C696.2518,-222.2991 727.3883,-205.4173 755,-191.4526 767.5459,-185.1075 781.7805,-178.3398 793.1243,-173.0477"/>
<polygon fill="#191970" stroke="#191970" points="673.1805,-231.0059 666.1186,-238.9041 676.5645,-237.1336 673.1805,-231.0059"/>
</g>
<!-- Node127882&#45;&gt;Node127899 -->
<g id="edge7" class="edge">
<title>Node127882&#45;&gt;Node127899</title>
<path fill="none" stroke="#191970" d="M852.636,-223.8538C859.6346,-226.9211 866.7035,-230.4699 873,-234.4526 901.0671,-252.2059 928.3973,-280.6019 941.8523,-295.5349"/>
<polygon fill="#191970" stroke="#191970" points="853.7945,-220.5458 843.2151,-219.974 851.1289,-227.0184 853.7945,-220.5458"/>
</g>
<!-- Node127899&#45;&gt;Node127899 -->
<g id="edge8" class="edge">
<title>Node127899&#45;&gt;Node127899</title>
<path fill="none" stroke="#191970" d="M925.2025,-324.4818C926.5824,-329.5806 935.0149,-333.4526 950.5,-333.4526 974.6719,-333.4526 981.6591,-324.0179 971.4615,-315.2096"/>
<polygon fill="#191970" stroke="#191970" points="928.4728,-325.7508 929.5385,-315.2096 922.1319,-322.7855 928.4728,-325.7508"/>
</g>
<!-- Node128219&#45;&gt;Node127899 -->
<g id="edge11" class="edge">
<title>Node128219&#45;&gt;Node127899</title>
<path fill="none" stroke="#191970" d="M850.7246,-177.1704C858.5594,-181.0773 866.4403,-185.8323 873,-191.4526 909.3475,-222.5947 936.2043,-274.6573 946.2148,-295.9445"/>
<polygon fill="#191970" stroke="#191970" points="852.1768,-173.9859 841.6305,-172.9726 849.243,-180.3414 852.1768,-173.9859"/>
</g>
<!-- Node128491&#45;&gt;Node127899 -->
<g id="edge17" class="edge">
<title>Node128491&#45;&gt;Node127899</title>
<path fill="none" stroke="#191970" d="M697.7738,-600.8687C747.5117,-608.4772 824.12,-611.4637 873,-571.4526 914.7806,-537.2527 942.8831,-358.4698 949.1663,-314.9902"/>
<polygon fill="#191970" stroke="#191970" points="698.33,-597.4132 687.8944,-599.2429 697.1933,-604.3203 698.33,-597.4132"/>
</g>
<!-- Node128195&#45;&gt;Node127899 -->
<g id="edge20" class="edge">
<title>Node128195&#45;&gt;Node127899</title>
<path fill="none" stroke="#191970" d="M729.1327,-96.6805C775.4735,-100.6532 832.45,-112.5485 873,-144.4526 924.1977,-184.7341 943.5499,-267.2677 948.8515,-295.6276"/>
<polygon fill="#191970" stroke="#191970" points="729.3482,-93.1869 719.1144,-95.9292 728.8246,-100.1673 729.3482,-93.1869"/>
</g>
<!-- Node128492&#45;&gt;Node128224 -->
<g id="edge27" class="edge">
<title>Node128492&#45;&gt;Node128224</title>
<path fill="none" stroke="#191970" d="M343.3699,-426.7716C368.6836,-421.3827 398.3529,-415.0665 422.2808,-409.9726"/>
<polygon fill="#191970" stroke="#191970" points="342.5951,-423.358 333.5431,-428.8636 344.0527,-430.2046 342.5951,-423.358"/>
</g>
<!-- Node128141 -->
<g id="node15" class="node">
<title>Node128141</title>
<g id="a_node15"><a xlink:href="quickjs_8c.html#aab4130a4c3108a127681be821818528a" target="_top" xlink:title="js_closure">
<polygon fill="none" stroke="#ff0000" points="618.5,-419.9526 618.5,-438.9526 679.5,-438.9526 679.5,-419.9526 618.5,-419.9526"/>
<text text-anchor="middle" x="649" y="-426.9526" font-family="Helvetica,sans-Serif" font-size="10.00" fill="#000000">js_closure</text>
</a>
</g>
</g>
<!-- Node128492&#45;&gt;Node128141 -->
<g id="edge25" class="edge">
<title>Node128492&#45;&gt;Node128141</title>
<path fill="none" stroke="#191970" d="M365.3971,-436.5328C444.1334,-434.5671 562.6075,-431.6094 618.1709,-430.2222"/>
<polygon fill="#191970" stroke="#191970" points="364.9509,-433.0428 355.0414,-436.7914 365.1256,-440.0406 364.9509,-433.0428"/>
</g>
<!-- Node128121 -->
<g id="node16" class="node">
<title>Node128121</title>
<g id="a_node16"><a xlink:href="quickjs_8c.html#a6ee4e2edda1f223a5a40e2c48b41d618" target="_top" xlink:title="JS_InstantiateFunctionListItem">
<polygon fill="none" stroke="#ff0000" points="391,-466.9526 391,-485.9526 543,-485.9526 543,-466.9526 391,-466.9526"/>
<text text-anchor="middle" x="467" y="-473.9526" font-family="Helvetica,sans-Serif" font-size="10.00" fill="#000000">JS_InstantiateFunctionListItem</text>
</a>
</g>
</g>
<!-- Node128492&#45;&gt;Node128121 -->
<g id="edge28" class="edge">
<title>Node128492&#45;&gt;Node128121</title>
<path fill="none" stroke="#191970" d="M343.3699,-450.1336C368.6836,-455.5225 398.3529,-461.8386 422.2808,-466.9325"/>
<polygon fill="#191970" stroke="#191970" points="344.0527,-446.7006 333.5431,-448.0416 342.5951,-453.5472 344.0527,-446.7006"/>
</g>
<!-- Node128141&#45;&gt;Node127899 -->
<g id="edge26" class="edge">
<title>Node128141&#45;&gt;Node127899</title>
<path fill="none" stroke="#191970" d="M689.7233,-426.046C736.349,-420.776 813.8997,-407.7482 873,-376.4526 902.6721,-360.7402 929.7272,-330.9357 942.5986,-315.4135"/>
<polygon fill="#191970" stroke="#191970" points="689.2698,-422.5744 679.6964,-427.1132 690.0107,-429.5351 689.2698,-422.5744"/>
</g>
<!-- Node128493&#45;&gt;Node127899 -->
<g id="edge30" class="edge">
<title>Node128493&#45;&gt;Node127899</title>
<path fill="none" stroke="#191970" d="M860.4539,-538.2104C865.072,-535.4879 869.381,-532.2643 873,-528.4526 933.9568,-464.2495 947.2224,-349.6323 949.8796,-315.3819"/>
<polygon fill="#191970" stroke="#191970" points="858.6316,-535.2101 851.2924,-542.8512 861.7948,-541.4546 858.6316,-535.2101"/>
</g>
<!-- Node128494&#45;&gt;Node127899 -->
<g id="edge32" class="edge">
<title>Node128494&#45;&gt;Node127899</title>
<path fill="none" stroke="#191970" d="M355.8706,-503.2215C471.9965,-513.0384 712.7876,-517.3414 873,-409.4526 909.9811,-384.5491 936.118,-335.9548 946.063,-315.2138"/>
<polygon fill="#191970" stroke="#191970" points="355.9724,-499.7169 345.7025,-502.3206 355.3545,-506.6896 355.9724,-499.7169"/>
</g>
<!-- Node128495&#45;&gt;Node128496 -->
<g id="edge34" class="edge">
<title>Node128495&#45;&gt;Node128496</title>
<path fill="none" stroke="#191970" d="M365.5702,-58.4526C377.4581,-58.4526 389.6397,-58.4526 401.2501,-58.4526"/>
<polygon fill="#191970" stroke="#191970" points="365.2207,-54.9527 355.2206,-58.4526 365.2206,-61.9527 365.2207,-54.9527"/>
</g>
<!-- Node128495&#45;&gt;Node128513 -->
<g id="edge37" class="edge">
<title>Node128495&#45;&gt;Node128513</title>
<path fill="none" stroke="#191970" d="M343.4133,-46.7624C370.8985,-40.9112 403.5098,-33.9687 428.33,-28.6849"/>
<polygon fill="#191970" stroke="#191970" points="342.5951,-43.358 333.5431,-48.8636 344.0527,-50.2046 342.5951,-43.358"/>
</g>
<!-- Node128496&#45;&gt;Node128219 -->
<g id="edge35" class="edge">
<title>Node128496&#45;&gt;Node128219</title>
<path fill="none" stroke="#191970" d="M542.7495,-51.6203C594.4348,-49.9114 663.3444,-53.5611 719,-77.4526 758.66,-94.4776 792.7669,-135.0871 806.9612,-153.7588"/>
<polygon fill="#191970" stroke="#191970" points="542.5013,-48.1274 532.6511,-52.0291 542.7845,-55.1216 542.5013,-48.1274"/>
</g>
<!-- Node128496&#45;&gt;Node128195 -->
<g id="edge36" class="edge">
<title>Node128496&#45;&gt;Node128195</title>
<path fill="none" stroke="#191970" d="M522.9458,-70.1336C548.7558,-75.5225 579.0069,-81.8386 603.404,-86.9325"/>
<polygon fill="#191970" stroke="#191970" points="523.4306,-66.6594 512.9263,-68.0416 521.9998,-73.5116 523.4306,-66.6594"/>
</g>
<!-- Node128513&#45;&gt;Node127899 -->
<g id="edge38" class="edge">
<title>Node128513&#45;&gt;Node127899</title>
<path fill="none" stroke="#191970" d="M515.893,-14.1039C600.6116,-6.0533 775.0027,-2.9602 873,-96.4526 933.2008,-153.8859 946.9467,-262.2648 949.8056,-295.5067"/>
<polygon fill="#191970" stroke="#191970" points="515.3681,-10.639 505.7724,-15.1304 516.0746,-17.6033 515.3681,-10.639"/>
</g>
</g>
</svg>
        <g id="navigator" transform="translate(0 0)" fill="#404254">
                <rect fill="#f2f5e9" fill-opacity="0.5" stroke="#606060" stroke-width=".5" x="0" y="0" width="60" height="60"/>
                <use id="zoomplus" xlink:href="#zoomPlus" x="17" y="9" onmousedown="handleZoom(evt,'in')"/>
                <use id="zoomminus" xlink:href="#zoomMin" x="42" y="9" onmousedown="handleZoom(evt,'out')"/>
                <use id="reset" xlink:href="#resetDef" x="30" y="36" onmousedown="handleReset()"/>
                <g id="arrowUp" xlink:href="#dirArrow" transform="translate(30 24)" onmousedown="handlePan(0,-1)">
                  <use xlink:href="#rim" fill="#404040">
                        <set attributeName="fill" to="#808080" begin="arrowUp.mouseover" end="arrowUp.mouseout"/>
                  </use>
                  <path fill="none" stroke="white" stroke-width="1.5" d="M0,-3.0v7 M-2.5,-0.5L0,-3.0L2.5,-0.5"/>
                </g>
                <g id="arrowRight" xlink:href="#dirArrow" transform="rotate(90) translate(36 -43)" onmousedown="handlePan(1,0)">
                  <use xlink:href="#rim" fill="#404040">
                        <set attributeName="fill" to="#808080" begin="arrowRight.mouseover" end="arrowRight.mouseout"/>
                  </use>
                  <path fill="none" stroke="white" stroke-width="1.5" d="M0,-3.0v7 M-2.5,-0.5L0,-3.0L2.5,-0.5"/>
                </g>
                <g id="arrowDown" xlink:href="#dirArrow" transform="rotate(180) translate(-30 -48)" onmousedown="handlePan(0,1)">
                  <use xlink:href="#rim" fill="#404040">
                        <set attributeName="fill" to="#808080" begin="arrowDown.mouseover" end="arrowDown.mouseout"/>
                  </use>
                  <path fill="none" stroke="white" stroke-width="1.5" d="M0,-3.0v7 M-2.5,-0.5L0,-3.0L2.5,-0.5"/>
                </g>
                <g id="arrowLeft" xlink:href="#dirArrow" transform="rotate(270) translate(-36 17)" onmousedown="handlePan(-1,0)">
                  <use xlink:href="#rim" fill="#404040">
                        <set attributeName="fill" to="#808080" begin="arrowLeft.mouseover" end="arrowLeft.mouseout"/>
                  </use>
                  <path fill="none" stroke="white" stroke-width="1.5" d="M0,-3.0v7 M-2.5,-0.5L0,-3.0L2.5,-0.5"/>
                </g>
        </g>
        <svg viewBox="0 0 15 15" width="100%" height="30px" preserveAspectRatio="xMaxYMin meet">
         <g id="arrow_out" transform="scale(0.3 0.3)">
          <a xlink:href="quickjs_8c_aed229eb80b3b03a2275471dee93c69d6_icgraph_org.svg" target="_base">
           <rect id="button" ry="5" rx="5" y="6" x="6" height="38" width="38"
                fill="#f2f5e9" fill-opacity="0.5" stroke="#606060" stroke-width="1.0"/>
           <path id="arrow"
             d="M 11.500037,31.436501 C 11.940474,20.09759 22.043105,11.32322 32.158766,21.979434 L 37.068811,17.246167 C 37.068811,17.246167 37.088388,32 37.088388,32 L 22.160133,31.978069 C 22.160133,31.978069 26.997745,27.140456 26.997745,27.140456 C 18.528582,18.264221 13.291696,25.230495 11.500037,31.436501 z"
             style="fill:#404040;"/>
          </a>
         </g>
        </svg>
</svg>
