<?xml version="1.0" encoding="UTF-8" standalone="no"?>
<!DOCTYPE svg PUBLIC "-//W3C//DTD SVG 1.1//EN"
 "http://www.w3.org/Graphics/SVG/1.1/DTD/svg11.dtd">
<!-- Generated by graphviz version 2.40.1 (20161225.0304)
 -->
<!-- Title: js_parse_function_decl Pages: 1 -->
<svg width="571pt" height="185pt"
 viewBox="0.00 0.00 571.00 185.00" xmlns="http://www.w3.org/2000/svg" xmlns:xlink="http://www.w3.org/1999/xlink">
<g id="graph0" class="graph" transform="scale(1 1) rotate(0) translate(4 181)">
<title>js_parse_function_decl</title>
<!-- Node314238 -->
<g id="node1" class="node">
<title>Node314238</title>
<polygon fill="#bfbfbf" stroke="#000000" points="0,-87 0,-106 116,-106 116,-87 0,-87"/>
<text text-anchor="middle" x="58" y="-94" font-family="Helvetica,sans-Serif" font-size="10.00" fill="#000000">js_parse_function_decl</text>
</g>
<!-- Node314239 -->
<g id="node2" class="node">
<title>Node314239</title>
<g id="a_node2"><a xlink:href="quickjs_8c.html#aee6d0acd87f136d43f157ae1426436e6" target="_top" xlink:title="js_parse_object_literal">
<polygon fill="none" stroke="#000000" points="152,-144 152,-163 265,-163 265,-144 152,-144"/>
<text text-anchor="middle" x="208.5" y="-151" font-family="Helvetica,sans-Serif" font-size="10.00" fill="#000000">js_parse_object_literal</text>
</a>
</g>
</g>
<!-- Node314238&#45;&gt;Node314239 -->
<g id="edge1" class="edge">
<title>Node314238&#45;&gt;Node314239</title>
<path fill="none" stroke="#191970" d="M92.8605,-109.703C120.4944,-120.169 158.4554,-134.5462 183.2275,-143.9284"/>
<polygon fill="#191970" stroke="#191970" points="93.7817,-106.3093 83.1903,-106.0405 91.3024,-112.8556 93.7817,-106.3093"/>
</g>
<!-- Node314240 -->
<g id="node3" class="node">
<title>Node314240</title>
<g id="a_node3"><a xlink:href="quickjs_8c.html#a840642c87c5a82d4cc68333376a3b6de" target="_top" xlink:title="js_parse_postfix_expr">
<polygon fill="none" stroke="#000000" points="309,-121 309,-140 421,-140 421,-121 309,-121"/>
<text text-anchor="middle" x="365" y="-128" font-family="Helvetica,sans-Serif" font-size="10.00" fill="#000000">js_parse_postfix_expr</text>
</a>
</g>
</g>
<!-- Node314238&#45;&gt;Node314240 -->
<g id="edge7" class="edge">
<title>Node314238&#45;&gt;Node314240</title>
<path fill="none" stroke="#191970" d="M126.1089,-104.043C181.0774,-110.1307 257.4729,-118.5915 308.945,-124.292"/>
<polygon fill="#191970" stroke="#191970" points="126.4298,-100.5572 116.1053,-102.9351 125.6592,-107.5147 126.4298,-100.5572"/>
</g>
<!-- Node314247 -->
<g id="node6" class="node">
<title>Node314247</title>
<g id="a_node6"><a xlink:href="quickjs_8c.html#ab59a3267a100decc9d2d81eb3297794a" target="_top" xlink:title="js_parse_source_element">
<polygon fill="none" stroke="#ff0000" points="301,-52 301,-71 429,-71 429,-52 301,-52"/>
<text text-anchor="middle" x="365" y="-59" font-family="Helvetica,sans-Serif" font-size="10.00" fill="#000000">js_parse_source_element</text>
</a>
</g>
</g>
<!-- Node314238&#45;&gt;Node314247 -->
<g id="edge8" class="edge">
<title>Node314238&#45;&gt;Node314247</title>
<path fill="none" stroke="#191970" d="M126.2604,-88.7179C178.3741,-82.7766 249.6812,-74.6471 300.7691,-68.8227"/>
<polygon fill="#191970" stroke="#191970" points="125.6444,-85.2653 116.1053,-89.8756 126.4374,-92.2203 125.6444,-85.2653"/>
</g>
<!-- Node314243 -->
<g id="node7" class="node">
<title>Node314243</title>
<g id="a_node7"><a xlink:href="quickjs_8c.html#a9d844c16dcc71701436848074337d32c" target="_top" xlink:title="js_parse_statement\l_or_decl">
<polygon fill="none" stroke="#ff0000" points="157.5,-.5 157.5,-30.5 259.5,-30.5 259.5,-.5 157.5,-.5"/>
<text text-anchor="start" x="165.5" y="-18.5" font-family="Helvetica,sans-Serif" font-size="10.00" fill="#000000">js_parse_statement</text>
<text text-anchor="middle" x="208.5" y="-7.5" font-family="Helvetica,sans-Serif" font-size="10.00" fill="#000000">_or_decl</text>
</a>
</g>
</g>
<!-- Node314238&#45;&gt;Node314243 -->
<g id="edge9" class="edge">
<title>Node314238&#45;&gt;Node314243</title>
<path fill="none" stroke="#191970" d="M84.7304,-82.1135C111.6573,-67.6213 153.0347,-45.3518 180.4293,-30.6078"/>
<polygon fill="#191970" stroke="#191970" points="83.0022,-79.0689 75.8553,-86.8902 86.3197,-85.2328 83.0022,-79.0689"/>
</g>
<!-- Node314239&#45;&gt;Node314240 -->
<g id="edge2" class="edge">
<title>Node314239&#45;&gt;Node314240</title>
<path fill="none" stroke="#191970" d="M275.1801,-143.7004C286.394,-142.0523 297.9319,-140.3566 308.8453,-138.7528"/>
<polygon fill="#191970" stroke="#191970" points="274.3849,-140.2796 265.0001,-145.1965 275.4028,-147.2052 274.3849,-140.2796"/>
</g>
<!-- Node314240&#45;&gt;Node314240 -->
<g id="edge4" class="edge">
<title>Node314240&#45;&gt;Node314240</title>
<path fill="none" stroke="#191970" d="M337.3742,-149.1539C338.5289,-154.4368 347.7375,-158.5 365,-158.5 391.3047,-158.5 398.9084,-149.0653 387.8111,-140.2571"/>
<polygon fill="#191970" stroke="#191970" points="340.5076,-150.7176 342.1889,-140.2571 334.3512,-147.386 340.5076,-150.7176"/>
</g>
<!-- Node314241 -->
<g id="node4" class="node">
<title>Node314241</title>
<g id="a_node4"><a xlink:href="quickjs_8c.html#a12b48ce2b1f247b494fdde07dbe7f232" target="_top" xlink:title="js_parse_left_hand\l_side_expr">
<polygon fill="none" stroke="#ff0000" points="465,-146.5 465,-176.5 563,-176.5 563,-146.5 465,-146.5"/>
<text text-anchor="start" x="473" y="-164.5" font-family="Helvetica,sans-Serif" font-size="10.00" fill="#000000">js_parse_left_hand</text>
<text text-anchor="middle" x="514" y="-153.5" font-family="Helvetica,sans-Serif" font-size="10.00" fill="#000000">_side_expr</text>
</a>
</g>
</g>
<!-- Node314240&#45;&gt;Node314241 -->
<g id="edge3" class="edge">
<title>Node314240&#45;&gt;Node314241</title>
<path fill="none" stroke="#191970" d="M420.7606,-142.1012C435.2497,-145.1157 450.7502,-148.3406 464.8699,-151.2783"/>
<polygon fill="#191970" stroke="#191970" points="421.424,-138.6643 410.9207,-140.054 419.9981,-145.5176 421.424,-138.6643"/>
</g>
<!-- Node314260 -->
<g id="node5" class="node">
<title>Node314260</title>
<g id="a_node5"><a xlink:href="quickjs_8c.html#a9f26c765171d977db1796791f035f1f9" target="_top" xlink:title="js_parse_unary">
<polygon fill="none" stroke="#ff0000" points="472.5,-90 472.5,-109 555.5,-109 555.5,-90 472.5,-90"/>
<text text-anchor="middle" x="514" y="-97" font-family="Helvetica,sans-Serif" font-size="10.00" fill="#000000">js_parse_unary</text>
</a>
</g>
</g>
<!-- Node314240&#45;&gt;Node314260 -->
<g id="edge5" class="edge">
<title>Node314240&#45;&gt;Node314260</title>
<path fill="none" stroke="#191970" d="M420.7795,-118.8949C437.8491,-115.3435 456.3207,-111.5004 472.2839,-108.1792"/>
<polygon fill="#191970" stroke="#191970" points="419.9981,-115.4824 410.9207,-120.946 421.424,-122.3357 419.9981,-115.4824"/>
</g>
<!-- Node314260&#45;&gt;Node314260 -->
<g id="edge6" class="edge">
<title>Node314260&#45;&gt;Node314260</title>
<path fill="none" stroke="#191970" d="M486.3742,-118.1539C487.5289,-123.4368 496.7375,-127.5 514,-127.5 540.3047,-127.5 547.9084,-118.0653 536.8111,-109.2571"/>
<polygon fill="#191970" stroke="#191970" points="489.5076,-119.7176 491.1889,-109.2571 483.3512,-116.386 489.5076,-119.7176"/>
</g>
<!-- Node314243&#45;&gt;Node314247 -->
<g id="edge11" class="edge">
<title>Node314243&#45;&gt;Node314247</title>
<path fill="none" stroke="#191970" d="M269.4408,-33.4123C290.8789,-39.7136 314.1418,-46.5513 332.3473,-51.9024"/>
<polygon fill="#191970" stroke="#191970" points="270.3251,-30.0242 259.744,-30.5621 268.3511,-36.7401 270.3251,-30.0242"/>
</g>
<!-- Node314243&#45;&gt;Node314243 -->
<g id="edge10" class="edge">
<title>Node314243&#45;&gt;Node314243</title>
<path fill="none" stroke="#191970" d="M181.8468,-40.9579C185.1548,-45.679 194.0392,-49 208.5,-49 232.2305,-49 240.944,-40.0566 234.6406,-30.659"/>
<polygon fill="#191970" stroke="#191970" points="185.3579,-40.8207 182.3594,-30.659 178.3665,-40.4726 185.3579,-40.8207"/>
</g>
</g>
</svg>
