<?xml version="1.0" encoding="UTF-8" standalone="no"?>
<!DOCTYPE svg PUBLIC "-//W3C//DTD SVG 1.1//EN"
 "http://www.w3.org/Graphics/SVG/1.1/DTD/svg11.dtd">
<!-- Generated by graphviz version 2.40.1 (20161225.0304)
 -->
<!-- Title: JS_ToNumberFree Pages: 1 -->
<!--zoomable 557 -->
<svg id="main" version="1.1" xmlns="http://www.w3.org/2000/svg" xmlns:xlink="http://www.w3.org/1999/xlink" xml:space="preserve" onload="init(evt)">
<style type="text/css"><![CDATA[
.edge:hover path { stroke: red; }
.edge:hover polygon { stroke: red; fill: red; }
]]></style>
<script type="text/javascript"><![CDATA[
var edges = document.getElementsByTagName('g');
if (edges && edges.length) {
  for (var i=0;i<edges.length;i++) {
    if (edges[i].id.substr(0,4)=='edge') {
      edges[i].setAttribute('class','edge');
    }
  }
}
]]></script>
        <defs>
                <circle id="rim" cx="0" cy="0" r="7"/>
                <circle id="rim2" cx="0" cy="0" r="3.5"/>
                <g id="zoomPlus">
                        <use xlink:href="#rim" fill="#404040">
                                <set attributeName="fill" to="#808080" begin="zoomplus.mouseover" end="zoomplus.mouseout"/>
                        </use>
                        <path d="M-4,0h8M0,-4v8" fill="none" stroke="white" stroke-width="1.5" pointer-events="none"/>
                </g>
                <g id="zoomMin">
                        <use xlink:href="#rim" fill="#404040">
                                <set attributeName="fill" to="#808080" begin="zoomminus.mouseover" end="zoomminus.mouseout"/>
                        </use>
                        <path d="M-4,0h8" fill="none" stroke="white" stroke-width="1.5" pointer-events="none"/>
                </g>
                <g id="dirArrow">
                        <path fill="none" stroke="white" stroke-width="1.5" d="M0,-3.0v7 M-2.5,-0.5L0,-3.0L2.5,-0.5"/>
                </g>
               <g id="resetDef">
                       <use xlink:href="#rim2" fill="#404040">
                               <set attributeName="fill" to="#808080" begin="reset.mouseover" end="reset.mouseout"/>
                       </use>
               </g>
        </defs>

<script type="text/javascript">
var viewWidth = 1003;
var viewHeight = 557;
var sectionId = 'dynsection-98';
</script>
<script xlink:href="svgpan.js"/>
<svg id="graph" class="graph">
<g id="viewport">
<title>JS_ToNumberFree</title>
<!-- Node36517 -->
<g id="node1" class="node">
<title>Node36517</title>
<polygon fill="#bfbfbf" stroke="#000000" points="0,-246.2542 0,-265.2542 99,-265.2542 99,-246.2542 0,-246.2542"/>
<text text-anchor="middle" x="49.5" y="-253.2542" font-family="Helvetica,sans-Serif" font-size="10.00" fill="#000000">JS_ToNumberFree</text>
</g>
<!-- Node36518 -->
<g id="node2" class="node">
<title>Node36518</title>
<g id="a_node2"><a xlink:href="quickjs_8c.html#a9a2e141f21d9ea38a3a23c9b4eb6e356" target="_top" xlink:title="__JS_ToFloat64Free">
<polygon fill="none" stroke="#000000" points="139.5,-265.2542 139.5,-284.2542 246.5,-284.2542 246.5,-265.2542 139.5,-265.2542"/>
<text text-anchor="middle" x="193" y="-272.2542" font-family="Helvetica,sans-Serif" font-size="10.00" fill="#000000">__JS_ToFloat64Free</text>
</a>
</g>
</g>
<!-- Node36517&#45;&gt;Node36518 -->
<g id="edge1" class="edge">
<title>Node36517&#45;&gt;Node36518</title>
<path fill="none" stroke="#191970" d="M109.4819,-263.6961C119.404,-265.0098 129.6349,-266.3644 139.3873,-267.6557"/>
<polygon fill="#191970" stroke="#191970" points="109.6595,-260.1891 99.2866,-262.3462 108.7407,-267.1286 109.6595,-260.1891"/>
</g>
<!-- Node36646 -->
<g id="node7" class="node">
<title>Node36646</title>
<g id="a_node7"><a xlink:href="quickjs_8c.html#ad7f03358a8088ca920ab308225c6b2e6" target="_top" xlink:title="JS_SetPropertyInternal">
<polygon fill="none" stroke="#ff0000" points="758,-279.2542 758,-298.2542 876,-298.2542 876,-279.2542 758,-279.2542"/>
<text text-anchor="middle" x="817" y="-286.2542" font-family="Helvetica,sans-Serif" font-size="10.00" fill="#000000">JS_SetPropertyInternal</text>
</a>
</g>
</g>
<!-- Node36517&#45;&gt;Node36646 -->
<g id="edge16" class="edge">
<title>Node36517&#45;&gt;Node36646</title>
<path fill="none" stroke="#191970" d="M75.6101,-270.055C92.1374,-278.4175 114.2345,-288.3607 135,-293.7542 225.9191,-317.3692 251.5641,-312.7542 345.5,-312.7542 345.5,-312.7542 345.5,-312.7542 513.5,-312.7542 598.5973,-312.7542 696.6994,-303.2617 757.7908,-296.2164"/>
<polygon fill="#191970" stroke="#191970" points="77.0623,-266.8653 66.5749,-265.3603 73.8348,-273.0769 77.0623,-266.8653"/>
</g>
<!-- Node36606 -->
<g id="node8" class="node">
<title>Node36606</title>
<g id="a_node8"><a xlink:href="quickjs_8c.html#a60d84dd116a9d7d912d08f298a4734dd" target="_top" xlink:title="js_json_to_str">
<polygon fill="none" stroke="#000000" points="154.5,-511.2542 154.5,-530.2542 231.5,-530.2542 231.5,-511.2542 154.5,-511.2542"/>
<text text-anchor="middle" x="193" y="-518.2542" font-family="Helvetica,sans-Serif" font-size="10.00" fill="#000000">js_json_to_str</text>
</a>
</g>
</g>
<!-- Node36517&#45;&gt;Node36606 -->
<g id="edge12" class="edge">
<title>Node36517&#45;&gt;Node36606</title>
<path fill="none" stroke="#191970" d="M51.1664,-275.6953C55.9657,-320.8918 73.6843,-432.2017 135,-496.7542 140.929,-502.9962 148.722,-507.6712 156.664,-511.152"/>
<polygon fill="#191970" stroke="#191970" points="54.6245,-275.0902 50.1865,-265.4697 47.6564,-275.758 54.6245,-275.0902"/>
</g>
<!-- Node36607 -->
<g id="node9" class="node">
<title>Node36607</title>
<g id="a_node9"><a xlink:href="quickjs_8c.html#a343a343b16bc3c9875050e99ee0d2884" target="_top" xlink:title="JS_JSONStringify">
<polygon fill="none" stroke="#ff0000" points="465,-473.2542 465,-492.2542 562,-492.2542 562,-473.2542 465,-473.2542"/>
<text text-anchor="middle" x="513.5" y="-480.2542" font-family="Helvetica,sans-Serif" font-size="10.00" fill="#000000">JS_JSONStringify</text>
</a>
</g>
</g>
<!-- Node36517&#45;&gt;Node36607 -->
<g id="edge15" class="edge">
<title>Node36517&#45;&gt;Node36607</title>
<path fill="none" stroke="#191970" d="M53.7916,-275.7829C62.536,-311.5786 85.8895,-386.4539 135,-425.7542 231.1165,-502.6707 386.3263,-498.1163 464.7749,-489.7242"/>
<polygon fill="#191970" stroke="#191970" points="57.1079,-274.5874 51.4517,-265.6287 50.2867,-276.1593 57.1079,-274.5874"/>
</g>
<!-- Node37075 -->
<g id="node10" class="node">
<title>Node37075</title>
<g id="a_node10"><a xlink:href="quickjs_8c.html#a77d135018423229ffcdcde7a46eb3fd9" target="_top" xlink:title="JS_ToArrayLengthFree">
<polygon fill="none" stroke="#000000" points="287,-341.2542 287,-360.2542 404,-360.2542 404,-341.2542 287,-341.2542"/>
<text text-anchor="middle" x="345.5" y="-348.2542" font-family="Helvetica,sans-Serif" font-size="10.00" fill="#000000">JS_ToArrayLengthFree</text>
</a>
</g>
</g>
<!-- Node36517&#45;&gt;Node37075 -->
<g id="edge17" class="edge">
<title>Node36517&#45;&gt;Node37075</title>
<path fill="none" stroke="#191970" d="M64.3669,-272.8868C80.0744,-289.7165 106.4804,-314.5864 135,-326.7542 183.3789,-347.3951 243.3912,-352.4649 286.9446,-352.9189"/>
<polygon fill="#191970" stroke="#191970" points="66.8596,-270.4252 57.553,-265.3618 61.6707,-275.1237 66.8596,-270.4252"/>
</g>
<!-- Node37076 -->
<g id="node13" class="node">
<title>Node37076</title>
<g id="a_node13"><a xlink:href="quickjs_8c.html#a643088ab23784b7f3c6ff94c37228256" target="_top" xlink:title="JS_ToInt32Free">
<polygon fill="none" stroke="#000000" points="302.5,-37.2542 302.5,-56.2542 388.5,-56.2542 388.5,-37.2542 302.5,-37.2542"/>
<text text-anchor="middle" x="345.5" y="-44.2542" font-family="Helvetica,sans-Serif" font-size="10.00" fill="#000000">JS_ToInt32Free</text>
</a>
</g>
</g>
<!-- Node36517&#45;&gt;Node37076 -->
<g id="edge24" class="edge">
<title>Node36517&#45;&gt;Node37076</title>
<path fill="none" stroke="#191970" d="M51.8631,-236.1772C57.7935,-196.5053 77.2257,-106.9109 135,-65.7542 184.013,-30.8389 256.6173,-32.8612 302.4717,-38.8241"/>
<polygon fill="#191970" stroke="#191970" points="48.3842,-235.7861 50.5026,-246.1669 55.3201,-236.7307 48.3842,-235.7861"/>
</g>
<!-- Node37103 -->
<g id="node19" class="node">
<title>Node37103</title>
<g id="a_node19"><a xlink:href="quickjs_8c.html#a419bec82cb80e98e08626a9a5212ec4c" target="_top" xlink:title="JS_ToInt32SatFree">
<polygon fill="none" stroke="#000000" points="142.5,-397.2542 142.5,-416.2542 243.5,-416.2542 243.5,-397.2542 142.5,-397.2542"/>
<text text-anchor="middle" x="193" y="-404.2542" font-family="Helvetica,sans-Serif" font-size="10.00" fill="#000000">JS_ToInt32SatFree</text>
</a>
</g>
</g>
<!-- Node36517&#45;&gt;Node37103 -->
<g id="edge32" class="edge">
<title>Node36517&#45;&gt;Node37103</title>
<path fill="none" stroke="#191970" d="M61.3762,-273.8895C76.7552,-296.6045 105.1464,-336.026 135,-364.7542 148.079,-377.3402 165.1046,-389.231 177.3212,-397.126"/>
<polygon fill="#191970" stroke="#191970" points="64.2544,-271.897 55.7909,-265.5237 58.4327,-275.7839 64.2544,-271.897"/>
</g>
<!-- Node37110 -->
<g id="node22" class="node">
<title>Node37110</title>
<g id="a_node22"><a xlink:href="quickjs_8c.html#a96b34a3e22e35e0ac6d7b388e7c2b5c6" target="_top" xlink:title="JS_ToInt64Free">
<polygon fill="none" stroke="#000000" points="150,-189.2542 150,-208.2542 236,-208.2542 236,-189.2542 150,-189.2542"/>
<text text-anchor="middle" x="193" y="-196.2542" font-family="Helvetica,sans-Serif" font-size="10.00" fill="#000000">JS_ToInt64Free</text>
</a>
</g>
</g>
<!-- Node36517&#45;&gt;Node37110 -->
<g id="edge36" class="edge">
<title>Node36517&#45;&gt;Node37110</title>
<path fill="none" stroke="#191970" d="M78.7132,-241.8863C95.0912,-234.336 115.9911,-225.0702 135,-217.7542 143.6033,-214.4431 153.0577,-211.1881 161.7911,-208.3335"/>
<polygon fill="#191970" stroke="#191970" points="77.2322,-238.715 69.6411,-246.1059 80.1844,-245.062 77.2322,-238.715"/>
</g>
<!-- Node37115 -->
<g id="node24" class="node">
<title>Node37115</title>
<g id="a_node24"><a xlink:href="quickjs_8c.html#a8c94da482e7e46bf333be67ff97e58c1" target="_top" xlink:title="JS_ToInt64SatFree">
<polygon fill="none" stroke="#000000" points="142.5,-151.2542 142.5,-170.2542 243.5,-170.2542 243.5,-151.2542 142.5,-151.2542"/>
<text text-anchor="middle" x="193" y="-158.2542" font-family="Helvetica,sans-Serif" font-size="10.00" fill="#000000">JS_ToInt64SatFree</text>
</a>
</g>
</g>
<!-- Node36517&#45;&gt;Node37115 -->
<g id="edge38" class="edge">
<title>Node36517&#45;&gt;Node37115</title>
<path fill="none" stroke="#191970" d="M64.7193,-238.6116C80.7055,-221.5431 107.3281,-195.6571 135,-179.7542 141.5227,-176.0056 148.8887,-172.8749 156.1285,-170.3076"/>
<polygon fill="#191970" stroke="#191970" points="61.9419,-236.462 57.768,-246.2 67.1036,-241.1903 61.9419,-236.462"/>
</g>
<!-- Node37124 -->
<g id="node27" class="node">
<title>Node37124</title>
<g id="a_node27"><a xlink:href="quickjs_8c.html#a4985d9fd12208519be70abef27263906" target="_top" xlink:title="JS_ToIntegerFree">
<polygon fill="none" stroke="#000000" points="145.5,-113.2542 145.5,-132.2542 240.5,-132.2542 240.5,-113.2542 145.5,-113.2542"/>
<text text-anchor="middle" x="193" y="-120.2542" font-family="Helvetica,sans-Serif" font-size="10.00" fill="#000000">JS_ToIntegerFree</text>
</a>
</g>
</g>
<!-- Node36517&#45;&gt;Node37124 -->
<g id="edge41" class="edge">
<title>Node36517&#45;&gt;Node37124</title>
<path fill="none" stroke="#191970" d="M58.8111,-237.0291C72.2665,-211.8249 99.4786,-167.217 135,-141.7542 140.3394,-137.9268 146.4945,-134.8388 152.757,-132.3567"/>
<polygon fill="#191970" stroke="#191970" points="55.532,-235.7507 54.0473,-246.241 61.7497,-238.9662 55.532,-235.7507"/>
</g>
<!-- Node37125 -->
<g id="node29" class="node">
<title>Node37125</title>
<g id="a_node29"><a xlink:href="quickjs_8c.html#a1be6d78cdf2c36e34930631587f98d44" target="_top" xlink:title="JS_ToNumber">
<polygon fill="none" stroke="#ff0000" points="153,-75.2542 153,-94.2542 233,-94.2542 233,-75.2542 153,-75.2542"/>
<text text-anchor="middle" x="193" y="-82.2542" font-family="Helvetica,sans-Serif" font-size="10.00" fill="#000000">JS_ToNumber</text>
</a>
</g>
</g>
<!-- Node36517&#45;&gt;Node37125 -->
<g id="edge43" class="edge">
<title>Node36517&#45;&gt;Node37125</title>
<path fill="none" stroke="#191970" d="M55.2704,-236.3457C65.8247,-204.1413 91.2721,-139.6601 135,-103.7542 140.241,-99.4507 146.4865,-96.1115 152.9066,-93.5234"/>
<polygon fill="#191970" stroke="#191970" points="51.9138,-235.3526 52.2571,-245.9419 58.5923,-237.4498 51.9138,-235.3526"/>
</g>
<!-- Node37126 -->
<g id="node30" class="node">
<title>Node37126</title>
<g id="a_node30"><a xlink:href="quickjs_8c.html#a4623c0fbf1417b8c089ba0f5037c5362" target="_top" xlink:title="JS_ToUint8ClampFree">
<polygon fill="none" stroke="#ff0000" points="135,-227.2542 135,-246.2542 251,-246.2542 251,-227.2542 135,-227.2542"/>
<text text-anchor="middle" x="193" y="-234.2542" font-family="Helvetica,sans-Serif" font-size="10.00" fill="#000000">JS_ToUint8ClampFree</text>
</a>
</g>
</g>
<!-- Node36517&#45;&gt;Node37126 -->
<g id="edge44" class="edge">
<title>Node36517&#45;&gt;Node37126</title>
<path fill="none" stroke="#191970" d="M109.4309,-247.8191C117.8652,-246.7024 126.5235,-245.556 134.9223,-244.444"/>
<polygon fill="#191970" stroke="#191970" points="108.7407,-244.3799 99.2866,-249.1623 109.6595,-251.3193 108.7407,-244.3799"/>
</g>
<!-- Node36519 -->
<g id="node3" class="node">
<title>Node36519</title>
<g id="a_node3"><a xlink:href="quickjs_8c.html#ab1b614ef35f1cea05da0ad4927c53118" target="_top" xlink:title="JS_ToFloat64Free">
<polygon fill="none" stroke="#ff0000" points="297,-265.2542 297,-284.2542 394,-284.2542 394,-265.2542 297,-265.2542"/>
<text text-anchor="middle" x="345.5" y="-272.2542" font-family="Helvetica,sans-Serif" font-size="10.00" fill="#000000">JS_ToFloat64Free</text>
</a>
</g>
</g>
<!-- Node36518&#45;&gt;Node36519 -->
<g id="edge2" class="edge">
<title>Node36518&#45;&gt;Node36519</title>
<path fill="none" stroke="#191970" d="M256.8524,-274.7542C270.2125,-274.7542 284.0943,-274.7542 296.7976,-274.7542"/>
<polygon fill="#191970" stroke="#191970" points="256.7658,-271.2543 246.7658,-274.7542 256.7658,-278.2543 256.7658,-271.2543"/>
</g>
<!-- Node36520 -->
<g id="node4" class="node">
<title>Node36520</title>
<g id="a_node4"><a xlink:href="quickjs_8c.html#aee75cc1546e19479e3ccda58f3b50a96" target="_top" xlink:title="JS_SetPropertyValue">
<polygon fill="none" stroke="#ff0000" points="458.5,-256.2542 458.5,-275.2542 568.5,-275.2542 568.5,-256.2542 458.5,-256.2542"/>
<text text-anchor="middle" x="513.5" y="-263.2542" font-family="Helvetica,sans-Serif" font-size="10.00" fill="#000000">JS_SetPropertyValue</text>
</a>
</g>
</g>
<!-- Node36519&#45;&gt;Node36520 -->
<g id="edge3" class="edge">
<title>Node36519&#45;&gt;Node36520</title>
<path fill="none" stroke="#191970" d="M404.2058,-271.6093C421.7454,-270.6697 440.9076,-269.6431 458.2196,-268.7157"/>
<polygon fill="#191970" stroke="#191970" points="403.891,-268.121 394.0926,-272.1511 404.2655,-275.111 403.891,-268.121"/>
</g>
<!-- Node36522 -->
<g id="node5" class="node">
<title>Node36522</title>
<g id="a_node5"><a xlink:href="quickjs_8c.html#ac2894ff4edcdb4e6841bcce9c76081e3" target="_top" xlink:title="JS_CallInternal">
<polygon fill="none" stroke="#ff0000" points="912,-232.2542 912,-251.2542 995,-251.2542 995,-232.2542 912,-232.2542"/>
<text text-anchor="middle" x="953.5" y="-239.2542" font-family="Helvetica,sans-Serif" font-size="10.00" fill="#000000">JS_CallInternal</text>
</a>
</g>
</g>
<!-- Node36520&#45;&gt;Node36522 -->
<g id="edge4" class="edge">
<title>Node36520&#45;&gt;Node36522</title>
<path fill="none" stroke="#191970" d="M578.7869,-262.1931C670.5619,-257.1872 835.074,-248.2138 911.876,-244.0246"/>
<polygon fill="#191970" stroke="#191970" points="578.5753,-258.6994 568.7808,-262.7389 578.9566,-265.689 578.5753,-258.6994"/>
</g>
<!-- Node36769 -->
<g id="node6" class="node">
<title>Node36769</title>
<g id="a_node6"><a xlink:href="quickjs_8c.html#ab50618f1bf78e444caa6da0e3e2785d7" target="_top" xlink:title="JS_DefineProperty">
<polygon fill="none" stroke="#ff0000" points="623,-341.2542 623,-360.2542 722,-360.2542 722,-341.2542 623,-341.2542"/>
<text text-anchor="middle" x="672.5" y="-348.2542" font-family="Helvetica,sans-Serif" font-size="10.00" fill="#000000">JS_DefineProperty</text>
</a>
</g>
</g>
<!-- Node36520&#45;&gt;Node36769 -->
<g id="edge6" class="edge">
<title>Node36520&#45;&gt;Node36769</title>
<path fill="none" stroke="#191970" d="M540.372,-280.1197C572.8148,-297.4634 626.4874,-326.1563 654.3913,-341.0735"/>
<polygon fill="#191970" stroke="#191970" points="541.8993,-276.9675 531.4302,-275.3396 538.5991,-283.1408 541.8993,-276.9675"/>
</g>
<!-- Node36520&#45;&gt;Node36646 -->
<g id="edge11" class="edge">
<title>Node36520&#45;&gt;Node36646</title>
<path fill="none" stroke="#191970" d="M579.086,-265.0536C633.717,-267.6517 710.6314,-273.591 762.0666,-279.2521"/>
<polygon fill="#191970" stroke="#191970" points="578.9602,-261.5446 568.8137,-264.5939 578.6472,-268.5376 578.9602,-261.5446"/>
</g>
<!-- Node36522&#45;&gt;Node36522 -->
<g id="edge5" class="edge">
<title>Node36522&#45;&gt;Node36522</title>
<path fill="none" stroke="#191970" d="M928.2025,-260.7834C929.5824,-265.8822 938.0149,-269.7542 953.5,-269.7542 977.6719,-269.7542 984.6591,-260.3195 974.4615,-251.5113"/>
<polygon fill="#191970" stroke="#191970" points="931.4728,-262.0524 932.5385,-251.5113 925.1319,-259.0871 931.4728,-262.0524"/>
</g>
<!-- Node36769&#45;&gt;Node36522 -->
<g id="edge10" class="edge">
<title>Node36769&#45;&gt;Node36522</title>
<path fill="none" stroke="#191970" d="M732.0731,-346.0003C774.0548,-340.8174 830.6432,-330.0477 876,-307.7542 904.8661,-293.5662 931.8592,-266.1932 945.0526,-251.5538"/>
<polygon fill="#191970" stroke="#191970" points="731.5296,-342.5398 722.001,-347.1717 732.3384,-349.493 731.5296,-342.5398"/>
</g>
<!-- Node36769&#45;&gt;Node36646 -->
<g id="edge7" class="edge">
<title>Node36769&#45;&gt;Node36646</title>
<path fill="none" stroke="#191970" d="M704.2568,-337.1285C731.5593,-325.4139 770.2559,-308.8105 794.4752,-298.4189"/>
<polygon fill="#191970" stroke="#191970" points="702.5712,-334.0431 694.7614,-341.2026 705.3313,-340.4759 702.5712,-334.0431"/>
</g>
<!-- Node36646&#45;&gt;Node36520 -->
<g id="edge8" class="edge">
<title>Node36646&#45;&gt;Node36520</title>
<path fill="none" stroke="#191970" d="M747.5378,-289.2667C693.2028,-286.5791 618.6913,-280.7869 568.4616,-275.2594"/>
<polygon fill="#191970" stroke="#191970" points="747.6271,-292.7747 757.78,-289.7468 747.9549,-285.7823 747.6271,-292.7747"/>
</g>
<!-- Node36646&#45;&gt;Node36522 -->
<g id="edge9" class="edge">
<title>Node36646&#45;&gt;Node36522</title>
<path fill="none" stroke="#191970" d="M854.1826,-275.9514C876.659,-268.2123 904.8502,-258.5054 925.4498,-251.4125"/>
<polygon fill="#191970" stroke="#191970" points="852.9385,-272.678 844.6228,-279.2431 855.2175,-279.2967 852.9385,-272.678"/>
</g>
<!-- Node36606&#45;&gt;Node36606 -->
<g id="edge13" class="edge">
<title>Node36606&#45;&gt;Node36606</title>
<path fill="none" stroke="#191970" d="M166.4941,-539.4082C167.6021,-544.691 176.4374,-548.7542 193,-548.7542 218.2383,-548.7542 225.5337,-539.3195 214.8863,-530.5113"/>
<polygon fill="#191970" stroke="#191970" points="169.6117,-540.9991 171.1137,-530.5113 163.3992,-537.7734 169.6117,-540.9991"/>
</g>
<!-- Node36606&#45;&gt;Node36607 -->
<g id="edge14" class="edge">
<title>Node36606&#45;&gt;Node36607</title>
<path fill="none" stroke="#191970" d="M241.6555,-515.4142C284.4362,-510.6726 348.3759,-503.4732 404,-496.7542 423.8831,-494.3525 445.7794,-491.5787 464.7323,-489.1369"/>
<polygon fill="#191970" stroke="#191970" points="241.0759,-511.9569 231.5214,-516.5353 241.8457,-518.9144 241.0759,-511.9569"/>
</g>
<!-- Node37075&#45;&gt;Node36769 -->
<g id="edge19" class="edge">
<title>Node37075&#45;&gt;Node36769</title>
<path fill="none" stroke="#191970" d="M414.4969,-350.7542C476.9448,-350.7542 567.4018,-350.7542 622.9513,-350.7542"/>
<polygon fill="#191970" stroke="#191970" points="414.3387,-347.2543 404.3387,-350.7542 414.3387,-354.2543 414.3387,-347.2543"/>
</g>
<!-- Node37075&#45;&gt;Node37075 -->
<g id="edge20" class="edge">
<title>Node37075&#45;&gt;Node37075</title>
<path fill="none" stroke="#191970" d="M317.1275,-369.4082C318.3135,-374.691 327.771,-378.7542 345.5,-378.7542 372.5156,-378.7542 380.3248,-369.3195 368.9276,-360.5113"/>
<polygon fill="#191970" stroke="#191970" points="320.2735,-370.9523 322.0724,-360.5113 314.1551,-367.5516 320.2735,-370.9523"/>
</g>
<!-- Node36659 -->
<g id="node11" class="node">
<title>Node36659</title>
<g id="a_node11"><a xlink:href="quickjs_8c.html#a68c7842d6b1ef577bc4625aec4ede310" target="_top" xlink:title="js_array_constructor">
<polygon fill="none" stroke="#ff0000" points="461,-417.2542 461,-436.2542 566,-436.2542 566,-417.2542 461,-417.2542"/>
<text text-anchor="middle" x="513.5" y="-424.2542" font-family="Helvetica,sans-Serif" font-size="10.00" fill="#000000">js_array_constructor</text>
</a>
</g>
</g>
<!-- Node37075&#45;&gt;Node36659 -->
<g id="edge18" class="edge">
<title>Node37075&#45;&gt;Node36659</title>
<path fill="none" stroke="#191970" d="M369.7678,-365.8918C395.2668,-381.7167 432.685,-404.6799 440,-407.7542 448.8698,-411.4819 458.6577,-414.6287 468.1187,-417.2226"/>
<polygon fill="#191970" stroke="#191970" points="371.3309,-362.7424 360.9905,-360.4346 367.6349,-368.6871 371.3309,-362.7424"/>
</g>
<!-- Node36804 -->
<g id="node12" class="node">
<title>Node36804</title>
<g id="a_node12"><a xlink:href="quickjs_8c.html#ad55fe6f65ecb58e327ac9e9b4ab475f5" target="_top" xlink:title="set_array_length">
<polygon fill="none" stroke="#000000" points="469,-379.2542 469,-398.2542 558,-398.2542 558,-379.2542 469,-379.2542"/>
<text text-anchor="middle" x="513.5" y="-386.2542" font-family="Helvetica,sans-Serif" font-size="10.00" fill="#000000">set_array_length</text>
</a>
</g>
</g>
<!-- Node37075&#45;&gt;Node36804 -->
<g id="edge21" class="edge">
<title>Node37075&#45;&gt;Node36804</title>
<path fill="none" stroke="#191970" d="M397.7757,-362.5785C421.4607,-367.9358 449.0903,-374.1854 471.4114,-379.2342"/>
<polygon fill="#191970" stroke="#191970" points="398.4193,-359.1357 387.8935,-360.3432 396.8749,-365.9632 398.4193,-359.1357"/>
</g>
<!-- Node36804&#45;&gt;Node36769 -->
<g id="edge23" class="edge">
<title>Node36804&#45;&gt;Node36769</title>
<path fill="none" stroke="#191970" d="M563.5766,-376.7862C585.858,-371.4611 611.7294,-365.278 632.6661,-360.2743"/>
<polygon fill="#191970" stroke="#191970" points="562.5349,-373.4365 553.6224,-379.1652 564.1621,-380.2448 562.5349,-373.4365"/>
</g>
<!-- Node36804&#45;&gt;Node36646 -->
<g id="edge22" class="edge">
<title>Node36804&#45;&gt;Node36646</title>
<path fill="none" stroke="#191970" d="M568.1589,-392.6343C611.5363,-393.6611 672.8425,-390.4478 722,-369.7542 760.3547,-353.6082 794.6149,-316.1187 809.3478,-298.3831"/>
<polygon fill="#191970" stroke="#191970" points="568.1943,-389.1338 558.0876,-392.3124 567.9707,-396.1302 568.1943,-389.1338"/>
</g>
<!-- Node37076&#45;&gt;Node36520 -->
<g id="edge25" class="edge">
<title>Node37076&#45;&gt;Node36520</title>
<path fill="none" stroke="#191970" d="M397.7313,-60.7587C399.9649,-62.2577 402.0722,-63.9171 404,-65.7542 436.6873,-96.9032 418.8907,-120.8404 440,-160.7542 459.8695,-198.324 491.0042,-238.2815 505.5338,-256.1503"/>
<polygon fill="#191970" stroke="#191970" points="399.0516,-57.4903 388.603,-55.7359 395.677,-63.6232 399.0516,-57.4903"/>
</g>
<!-- Node37077 -->
<g id="node14" class="node">
<title>Node37077</title>
<g id="a_node14"><a xlink:href="quickjs_8c.html#a4073bd2b4f247bf6077cd956759193b9" target="_top" xlink:title="JS_ToInt32">
<polygon fill="none" stroke="#ff0000" points="480,-94.2542 480,-113.2542 547,-113.2542 547,-94.2542 480,-94.2542"/>
<text text-anchor="middle" x="513.5" y="-101.2542" font-family="Helvetica,sans-Serif" font-size="10.00" fill="#000000">JS_ToInt32</text>
</a>
</g>
</g>
<!-- Node37076&#45;&gt;Node37077 -->
<g id="edge26" class="edge">
<title>Node37076&#45;&gt;Node37077</title>
<path fill="none" stroke="#191970" d="M388.0348,-59.617C393.4607,-61.5353 398.8974,-63.5979 404,-65.7542 420.6647,-72.7966 423.128,-78.2239 440,-84.7542 452.6601,-89.6543 467.0309,-93.6871 479.6866,-96.7572"/>
<polygon fill="#191970" stroke="#191970" points="388.9486,-56.2311 378.3542,-56.3308 386.6984,-62.8596 388.9486,-56.2311"/>
</g>
<!-- Node37099 -->
<g id="node15" class="node">
<title>Node37099</title>
<g id="a_node15"><a xlink:href="quickjs_8c.html#abb4af1ff2252e70ad0e5a9c25550f548" target="_top" xlink:title="JS_ToUint32Free">
<polygon fill="none" stroke="#ff0000" points="467,-56.2542 467,-75.2542 560,-75.2542 560,-56.2542 467,-56.2542"/>
<text text-anchor="middle" x="513.5" y="-63.2542" font-family="Helvetica,sans-Serif" font-size="10.00" fill="#000000">JS_ToUint32Free</text>
</a>
</g>
</g>
<!-- Node37076&#45;&gt;Node37099 -->
<g id="edge27" class="edge">
<title>Node37076&#45;&gt;Node37099</title>
<path fill="none" stroke="#191970" d="M398.8712,-52.7903C420.7108,-55.2602 445.7509,-58.0921 466.8456,-60.4778"/>
<polygon fill="#191970" stroke="#191970" points="399.0942,-49.2932 388.7642,-51.6472 398.3075,-56.2489 399.0942,-49.2932"/>
</g>
<!-- Node37101 -->
<g id="node16" class="node">
<title>Node37101</title>
<g id="a_node16"><a xlink:href="quickjs_8c.html#a6896e5e971fbeee13a495383bf0bbda9" target="_top" xlink:title="js_binary_logic_slow">
<polygon fill="none" stroke="#000000" points="460,-18.2542 460,-37.2542 567,-37.2542 567,-18.2542 460,-18.2542"/>
<text text-anchor="middle" x="513.5" y="-25.2542" font-family="Helvetica,sans-Serif" font-size="10.00" fill="#000000">js_binary_logic_slow</text>
</a>
</g>
</g>
<!-- Node37076&#45;&gt;Node37101 -->
<g id="edge28" class="edge">
<title>Node37076&#45;&gt;Node37101</title>
<path fill="none" stroke="#191970" d="M398.7074,-40.7367C418.2219,-38.5297 440.3099,-36.0317 459.862,-33.8204"/>
<polygon fill="#191970" stroke="#191970" points="398.3075,-37.2595 388.7642,-41.8613 399.0942,-44.2152 398.3075,-37.2595"/>
</g>
<!-- Node37102 -->
<g id="node17" class="node">
<title>Node37102</title>
<g id="a_node17"><a xlink:href="quickjs_8c.html#a68ffe1ef341efd5fafc563c11876f8ab" target="_top" xlink:title="js_not_slow">
<polygon fill="none" stroke="#000000" points="638.5,-28.2542 638.5,-47.2542 706.5,-47.2542 706.5,-28.2542 638.5,-28.2542"/>
<text text-anchor="middle" x="672.5" y="-35.2542" font-family="Helvetica,sans-Serif" font-size="10.00" fill="#000000">js_not_slow</text>
</a>
</g>
</g>
<!-- Node37076&#45;&gt;Node37102 -->
<g id="edge29" class="edge">
<title>Node37076&#45;&gt;Node37102</title>
<path fill="none" stroke="#191970" d="M372.3158,-32.7583C390.7862,-23.9321 416.198,-13.3606 440,-8.7542 504.1432,3.6593 522.538,1.8804 587,-8.7542 609.4247,-12.4537 633.8762,-21.2661 650.8643,-28.2125"/>
<polygon fill="#191970" stroke="#191970" points="370.7646,-29.6207 363.3349,-37.1738 373.8532,-35.9025 370.7646,-29.6207"/>
</g>
<!-- Node36741 -->
<g id="node18" class="node">
<title>Node36741</title>
<g id="a_node18"><a xlink:href="quickjs_8c.html#ae34b58b803dc65ed20305c6201ca711b" target="_top" xlink:title="remainingElementsCount_add">
<polygon fill="none" stroke="#ff0000" points="440,-132.2542 440,-151.2542 587,-151.2542 587,-132.2542 440,-132.2542"/>
<text text-anchor="middle" x="513.5" y="-139.2542" font-family="Helvetica,sans-Serif" font-size="10.00" fill="#000000">remainingElementsCount_add</text>
</a>
</g>
</g>
<!-- Node37076&#45;&gt;Node36741 -->
<g id="edge31" class="edge">
<title>Node37076&#45;&gt;Node36741</title>
<path fill="none" stroke="#191970" d="M396.534,-60.8108C399.1577,-62.2991 401.6683,-63.9418 404,-65.7542 427.6565,-84.143 415.7931,-105.0963 440,-122.7542 445.324,-126.6378 451.3721,-129.7292 457.6584,-132.1897"/>
<polygon fill="#191970" stroke="#191970" points="397.7988,-57.5345 387.2735,-56.3226 394.7458,-63.8337 397.7988,-57.5345"/>
</g>
<!-- Node37102&#45;&gt;Node36522 -->
<g id="edge30" class="edge">
<title>Node37102&#45;&gt;Node36522</title>
<path fill="none" stroke="#191970" d="M694.054,-53.402C749.4704,-93.6331 895.6846,-199.7815 940.3522,-232.2092"/>
<polygon fill="#191970" stroke="#191970" points="695.8249,-50.3625 685.6763,-47.3199 691.7125,-56.0272 695.8249,-50.3625"/>
</g>
<!-- Node37104 -->
<g id="node20" class="node">
<title>Node37104</title>
<g id="a_node20"><a xlink:href="quickjs_8c.html#ad698ea01233894f912303776fe3c08c8" target="_top" xlink:title="JS_ToInt32Sat">
<polygon fill="none" stroke="#ff0000" points="304.5,-435.2542 304.5,-454.2542 386.5,-454.2542 386.5,-435.2542 304.5,-435.2542"/>
<text text-anchor="middle" x="345.5" y="-442.2542" font-family="Helvetica,sans-Serif" font-size="10.00" fill="#000000">JS_ToInt32Sat</text>
</a>
</g>
</g>
<!-- Node37103&#45;&gt;Node37104 -->
<g id="edge33" class="edge">
<title>Node37103&#45;&gt;Node37104</title>
<path fill="none" stroke="#191970" d="M241.3184,-418.7942C262.6234,-424.103 287.3042,-430.253 307.2945,-435.2342"/>
<polygon fill="#191970" stroke="#191970" points="242.0318,-415.365 231.4822,-416.3432 240.3392,-422.1573 242.0318,-415.365"/>
</g>
<!-- Node37107 -->
<g id="node21" class="node">
<title>Node37107</title>
<g id="a_node21"><a xlink:href="quickjs_8c.html#a6d4699bf179372379572ec9039e5ec00" target="_top" xlink:title="JS_ToInt32Clamp">
<polygon fill="none" stroke="#ff0000" points="298,-397.2542 298,-416.2542 393,-416.2542 393,-397.2542 298,-397.2542"/>
<text text-anchor="middle" x="345.5" y="-404.2542" font-family="Helvetica,sans-Serif" font-size="10.00" fill="#000000">JS_ToInt32Clamp</text>
</a>
</g>
</g>
<!-- Node37103&#45;&gt;Node37107 -->
<g id="edge34" class="edge">
<title>Node37103&#45;&gt;Node37107</title>
<path fill="none" stroke="#191970" d="M254.1823,-406.7542C268.6953,-406.7542 283.9669,-406.7542 297.7791,-406.7542"/>
<polygon fill="#191970" stroke="#191970" points="253.7803,-403.2543 243.7803,-406.7542 253.7803,-410.2543 253.7803,-403.2543"/>
</g>
<!-- Node37107&#45;&gt;Node36607 -->
<g id="edge35" class="edge">
<title>Node37107&#45;&gt;Node36607</title>
<path fill="none" stroke="#191970" d="M388.2753,-419.5828C393.6287,-421.4987 398.9821,-423.5699 404,-425.7542 420.7822,-433.0596 423.8223,-437.193 440,-445.7542 458.1828,-455.3765 479.1658,-465.8808 494.0456,-473.2302"/>
<polygon fill="#191970" stroke="#191970" points="389.3062,-416.2364 378.7117,-416.3111 387.0405,-422.8596 389.3062,-416.2364"/>
</g>
<!-- Node37111 -->
<g id="node23" class="node">
<title>Node37111</title>
<g id="a_node23"><a xlink:href="quickjs_8c.html#ae2829a2d31c667739617023e2374a6b2" target="_top" xlink:title="JS_ToInt64">
<polygon fill="none" stroke="#ff0000" points="312,-189.2542 312,-208.2542 379,-208.2542 379,-189.2542 312,-189.2542"/>
<text text-anchor="middle" x="345.5" y="-196.2542" font-family="Helvetica,sans-Serif" font-size="10.00" fill="#000000">JS_ToInt64</text>
</a>
</g>
</g>
<!-- Node37110&#45;&gt;Node37111 -->
<g id="edge37" class="edge">
<title>Node37110&#45;&gt;Node37111</title>
<path fill="none" stroke="#191970" d="M246.3858,-198.7542C268.13,-198.7542 292.6076,-198.7542 311.7972,-198.7542"/>
<polygon fill="#191970" stroke="#191970" points="246.2925,-195.2543 236.2925,-198.7542 246.2924,-202.2543 246.2925,-195.2543"/>
</g>
<!-- Node37116 -->
<g id="node25" class="node">
<title>Node37116</title>
<g id="a_node25"><a xlink:href="quickjs_8c.html#aee6a60a9e9f3c0d9827d5cb0e15c23b4" target="_top" xlink:title="JS_ToInt64Sat">
<polygon fill="none" stroke="#ff0000" points="304.5,-151.2542 304.5,-170.2542 386.5,-170.2542 386.5,-151.2542 304.5,-151.2542"/>
<text text-anchor="middle" x="345.5" y="-158.2542" font-family="Helvetica,sans-Serif" font-size="10.00" fill="#000000">JS_ToInt64Sat</text>
</a>
</g>
</g>
<!-- Node37115&#45;&gt;Node37116 -->
<g id="edge39" class="edge">
<title>Node37115&#45;&gt;Node37116</title>
<path fill="none" stroke="#191970" d="M254.0708,-160.7542C270.8598,-160.7542 288.6719,-160.7542 304.071,-160.7542"/>
<polygon fill="#191970" stroke="#191970" points="253.7803,-157.2543 243.7803,-160.7542 253.7803,-164.2543 253.7803,-157.2543"/>
</g>
<!-- Node37122 -->
<g id="node26" class="node">
<title>Node37122</title>
<g id="a_node26"><a xlink:href="quickjs_8c.html#a537e88d38784e3df2a19c72f8bd1d77e" target="_top" xlink:title="JS_ToInt64Clamp">
<polygon fill="none" stroke="#ff0000" points="298,-113.2542 298,-132.2542 393,-132.2542 393,-113.2542 298,-113.2542"/>
<text text-anchor="middle" x="345.5" y="-120.2542" font-family="Helvetica,sans-Serif" font-size="10.00" fill="#000000">JS_ToInt64Clamp</text>
</a>
</g>
</g>
<!-- Node37115&#45;&gt;Node37122 -->
<g id="edge40" class="edge">
<title>Node37115&#45;&gt;Node37122</title>
<path fill="none" stroke="#191970" d="M241.3184,-148.7142C262.6234,-143.4054 287.3042,-137.2555 307.2945,-132.2743"/>
<polygon fill="#191970" stroke="#191970" points="240.3392,-145.3511 231.4822,-151.1652 242.0318,-152.1434 240.3392,-145.3511"/>
</g>
<!-- Node37083 -->
<g id="node28" class="node">
<title>Node37083</title>
<g id="a_node28"><a xlink:href="quickjs_8c.html#a0586dbbd419acfaca58bb867e3a39ed3" target="_top" xlink:title="js_atomics_store">
<polygon fill="none" stroke="#000000" points="300,-75.2542 300,-94.2542 391,-94.2542 391,-75.2542 300,-75.2542"/>
<text text-anchor="middle" x="345.5" y="-82.2542" font-family="Helvetica,sans-Serif" font-size="10.00" fill="#000000">js_atomics_store</text>
</a>
</g>
</g>
<!-- Node37124&#45;&gt;Node37083 -->
<g id="edge42" class="edge">
<title>Node37124&#45;&gt;Node37083</title>
<path fill="none" stroke="#191970" d="M241.3184,-110.7142C262.6234,-105.4054 287.3042,-99.2555 307.2945,-94.2743"/>
<polygon fill="#191970" stroke="#191970" points="240.3392,-107.3511 231.4822,-113.1652 242.0318,-114.1434 240.3392,-107.3511"/>
</g>
<!-- Node37126&#45;&gt;Node36520 -->
<g id="edge45" class="edge">
<title>Node37126&#45;&gt;Node36520</title>
<path fill="none" stroke="#191970" d="M261.4357,-242.8946C302.7268,-246.6049 356.3869,-251.4364 404,-255.7542 421.6807,-257.3576 440.9663,-259.1158 458.3575,-260.7046"/>
<polygon fill="#191970" stroke="#191970" points="261.4887,-239.3853 251.2156,-241.9764 260.8623,-246.3573 261.4887,-239.3853"/>
</g>
</g>
</svg>
        <g id="navigator" transform="translate(0 0)" fill="#404254">
                <rect fill="#f2f5e9" fill-opacity="0.5" stroke="#606060" stroke-width=".5" x="0" y="0" width="60" height="60"/>
                <use id="zoomplus" xlink:href="#zoomPlus" x="17" y="9" onmousedown="handleZoom(evt,'in')"/>
                <use id="zoomminus" xlink:href="#zoomMin" x="42" y="9" onmousedown="handleZoom(evt,'out')"/>
                <use id="reset" xlink:href="#resetDef" x="30" y="36" onmousedown="handleReset()"/>
                <g id="arrowUp" xlink:href="#dirArrow" transform="translate(30 24)" onmousedown="handlePan(0,-1)">
                  <use xlink:href="#rim" fill="#404040">
                        <set attributeName="fill" to="#808080" begin="arrowUp.mouseover" end="arrowUp.mouseout"/>
                  </use>
                  <path fill="none" stroke="white" stroke-width="1.5" d="M0,-3.0v7 M-2.5,-0.5L0,-3.0L2.5,-0.5"/>
                </g>
                <g id="arrowRight" xlink:href="#dirArrow" transform="rotate(90) translate(36 -43)" onmousedown="handlePan(1,0)">
                  <use xlink:href="#rim" fill="#404040">
                        <set attributeName="fill" to="#808080" begin="arrowRight.mouseover" end="arrowRight.mouseout"/>
                  </use>
                  <path fill="none" stroke="white" stroke-width="1.5" d="M0,-3.0v7 M-2.5,-0.5L0,-3.0L2.5,-0.5"/>
                </g>
                <g id="arrowDown" xlink:href="#dirArrow" transform="rotate(180) translate(-30 -48)" onmousedown="handlePan(0,1)">
                  <use xlink:href="#rim" fill="#404040">
                        <set attributeName="fill" to="#808080" begin="arrowDown.mouseover" end="arrowDown.mouseout"/>
                  </use>
                  <path fill="none" stroke="white" stroke-width="1.5" d="M0,-3.0v7 M-2.5,-0.5L0,-3.0L2.5,-0.5"/>
                </g>
                <g id="arrowLeft" xlink:href="#dirArrow" transform="rotate(270) translate(-36 17)" onmousedown="handlePan(-1,0)">
                  <use xlink:href="#rim" fill="#404040">
                        <set attributeName="fill" to="#808080" begin="arrowLeft.mouseover" end="arrowLeft.mouseout"/>
                  </use>
                  <path fill="none" stroke="white" stroke-width="1.5" d="M0,-3.0v7 M-2.5,-0.5L0,-3.0L2.5,-0.5"/>
                </g>
        </g>
        <svg viewBox="0 0 15 15" width="100%" height="30px" preserveAspectRatio="xMaxYMin meet">
         <g id="arrow_out" transform="scale(0.3 0.3)">
          <a xlink:href="quickjs_8c_ae738291483438efefca5c9fa4d269504_icgraph_org.svg" target="_base">
           <rect id="button" ry="5" rx="5" y="6" x="6" height="38" width="38"
                fill="#f2f5e9" fill-opacity="0.5" stroke="#606060" stroke-width="1.0"/>
           <path id="arrow"
             d="M 11.500037,31.436501 C 11.940474,20.09759 22.043105,11.32322 32.158766,21.979434 L 37.068811,17.246167 C 37.068811,17.246167 37.088388,32 37.088388,32 L 22.160133,31.978069 C 22.160133,31.978069 26.997745,27.140456 26.997745,27.140456 C 18.528582,18.264221 13.291696,25.230495 11.500037,31.436501 z"
             style="fill:#404040;"/>
          </a>
         </g>
        </svg>
</svg>
