<?xml version="1.0" encoding="UTF-8" standalone="no"?>
<!DOCTYPE svg PUBLIC "-//W3C//DTD SVG 1.1//EN"
 "http://www.w3.org/Graphics/SVG/1.1/DTD/svg11.dtd">
<!-- Generated by graphviz version 2.40.1 (20161225.0304)
 -->
<!-- Title: js_create_desc Pages: 1 -->
<!--zoomable 1159 -->
<svg id="main" version="1.1" xmlns="http://www.w3.org/2000/svg" xmlns:xlink="http://www.w3.org/1999/xlink" xml:space="preserve" onload="init(evt)">
<style type="text/css"><![CDATA[
.edge:hover path { stroke: red; }
.edge:hover polygon { stroke: red; fill: red; }
]]></style>
<script type="text/javascript"><![CDATA[
var edges = document.getElementsByTagName('g');
if (edges && edges.length) {
  for (var i=0;i<edges.length;i++) {
    if (edges[i].id.substr(0,4)=='edge') {
      edges[i].setAttribute('class','edge');
    }
  }
}
]]></script>
        <defs>
                <circle id="rim" cx="0" cy="0" r="7"/>
                <circle id="rim2" cx="0" cy="0" r="3.5"/>
                <g id="zoomPlus">
                        <use xlink:href="#rim" fill="#404040">
                                <set attributeName="fill" to="#808080" begin="zoomplus.mouseover" end="zoomplus.mouseout"/>
                        </use>
                        <path d="M-4,0h8M0,-4v8" fill="none" stroke="white" stroke-width="1.5" pointer-events="none"/>
                </g>
                <g id="zoomMin">
                        <use xlink:href="#rim" fill="#404040">
                                <set attributeName="fill" to="#808080" begin="zoomminus.mouseover" end="zoomminus.mouseout"/>
                        </use>
                        <path d="M-4,0h8" fill="none" stroke="white" stroke-width="1.5" pointer-events="none"/>
                </g>
                <g id="dirArrow">
                        <path fill="none" stroke="white" stroke-width="1.5" d="M0,-3.0v7 M-2.5,-0.5L0,-3.0L2.5,-0.5"/>
                </g>
               <g id="resetDef">
                       <use xlink:href="#rim2" fill="#404040">
                               <set attributeName="fill" to="#808080" begin="reset.mouseover" end="reset.mouseout"/>
                       </use>
               </g>
        </defs>

<script type="text/javascript">
var viewWidth = 1035;
var viewHeight = 1159;
var sectionId = 'dynsection-1671';
</script>
<script xlink:href="svgpan.js"/>
<svg id="graph" class="graph">
<g id="viewport">
<title>js_create_desc</title>
<!-- Node448577 -->
<g id="node1" class="node">
<title>Node448577</title>
<polygon fill="#bfbfbf" stroke="#000000" points="0,-76.5 0,-95.5 83,-95.5 83,-76.5 0,-76.5"/>
<text text-anchor="middle" x="41.5" y="-83.5" font-family="Helvetica,sans-Serif" font-size="10.00" fill="#000000">js_create_desc</text>
</g>
<!-- Node448578 -->
<g id="node2" class="node">
<title>Node448578</title>
<g id="a_node2"><a xlink:href="quickjs_8c.html#a0a8765bd4012467d9139bc24aabcb3ca" target="_top" xlink:title="JS_DefinePropertyValue">
<polygon fill="none" stroke="#000000" points="119,-570.5 119,-589.5 243,-589.5 243,-570.5 119,-570.5"/>
<text text-anchor="middle" x="181" y="-577.5" font-family="Helvetica,sans-Serif" font-size="10.00" fill="#000000">JS_DefinePropertyValue</text>
</a>
</g>
</g>
<!-- Node448577&#45;&gt;Node448578 -->
<g id="edge1" class="edge">
<title>Node448577&#45;&gt;Node448578</title>
<path fill="none" stroke="#191970" d="M44.2866,-95.8678C61.3756,-156.3839 152.0409,-477.4496 175.4704,-560.4183"/>
<polygon fill="#191970" stroke="#191970" points="172.1208,-561.4362 178.2068,-570.1087 178.8574,-559.5338 172.1208,-561.4362"/>
</g>
<!-- Node448643 -->
<g id="node16" class="node">
<title>Node448643</title>
<g id="a_node16"><a xlink:href="quickjs_8h.html#ad80a83d73e9b7d872b88fbf2943aebe9" target="_top" xlink:title="JS_IsException">
<polygon fill="none" stroke="#000000" points="638.5,-829.5 638.5,-848.5 724.5,-848.5 724.5,-829.5 638.5,-829.5"/>
<text text-anchor="middle" x="681.5" y="-836.5" font-family="Helvetica,sans-Serif" font-size="10.00" fill="#000000">JS_IsException</text>
</a>
</g>
</g>
<!-- Node448577&#45;&gt;Node448643 -->
<g id="edge53" class="edge">
<title>Node448577&#45;&gt;Node448643</title>
<path fill="none" stroke="#191970" d="M42.3519,-95.719C47.9046,-158.0241 79.9419,-501.8473 119,-599 203.8171,-809.9729 212.1138,-912.3794 414,-1017 481.8723,-1052.1725 520.4008,-1056.2492 586,-1017 644.6155,-981.9293 669.3196,-897.186 677.7835,-858.6566"/>
<polygon fill="#191970" stroke="#191970" points="681.247,-859.1898 679.8323,-848.6898 674.3904,-857.7803 681.247,-859.1898"/>
</g>
<!-- Node448606 -->
<g id="node20" class="node">
<title>Node448606</title>
<g id="a_node20"><a xlink:href="quickjs_8h.html#a775522f2d084fc8fa0fcb33f390006b4" target="_top" xlink:title="JS_DupValue">
<polygon fill="none" stroke="#000000" points="643,-133.5 643,-152.5 720,-152.5 720,-133.5 643,-133.5"/>
<text text-anchor="middle" x="681.5" y="-140.5" font-family="Helvetica,sans-Serif" font-size="10.00" fill="#000000">JS_DupValue</text>
</a>
</g>
</g>
<!-- Node448577&#45;&gt;Node448606 -->
<g id="edge52" class="edge">
<title>Node448577&#45;&gt;Node448606</title>
<path fill="none" stroke="#191970" d="M83.0625,-82.6584C174.9425,-76.3087 401.7786,-66.3524 586,-105 609.7947,-109.9919 635.3129,-120.4342 653.9798,-129.1112"/>
<polygon fill="#191970" stroke="#191970" points="652.5389,-132.3017 663.0714,-133.4496 655.5536,-125.9841 652.5389,-132.3017"/>
</g>
<!-- Node448950 -->
<g id="node29" class="node">
<title>Node448950</title>
<g id="a_node29"><a xlink:href="quickjs_8h.html#a93abffa925714e249a6aa2f4ae7900f6" target="_top" xlink:title="JS_NewBool">
<polygon fill="none" stroke="#000000" points="144,-38.5 144,-57.5 218,-57.5 218,-38.5 144,-38.5"/>
<text text-anchor="middle" x="181" y="-45.5" font-family="Helvetica,sans-Serif" font-size="10.00" fill="#000000">JS_NewBool</text>
</a>
</g>
</g>
<!-- Node448577&#45;&gt;Node448950 -->
<g id="edge54" class="edge">
<title>Node448577&#45;&gt;Node448950</title>
<path fill="none" stroke="#191970" d="M76.7017,-76.411C94.7099,-71.5056 116.8284,-65.4804 136.0556,-60.2429"/>
<polygon fill="#191970" stroke="#191970" points="137.081,-63.5912 145.8095,-57.5859 135.2412,-56.8373 137.081,-63.5912"/>
</g>
<!-- Node448978 -->
<g id="node30" class="node">
<title>Node448978</title>
<g id="a_node30"><a xlink:href="quickjs_8c.html#afc0d8ea75588216ec132a6e1655524a7" target="_top" xlink:title="JS_NewObject">
<polygon fill="none" stroke="#ff0000" points="139.5,-.5 139.5,-19.5 222.5,-19.5 222.5,-.5 139.5,-.5"/>
<text text-anchor="middle" x="181" y="-7.5" font-family="Helvetica,sans-Serif" font-size="10.00" fill="#000000">JS_NewObject</text>
</a>
</g>
</g>
<!-- Node448577&#45;&gt;Node448978 -->
<g id="edge55" class="edge">
<title>Node448577&#45;&gt;Node448978</title>
<path fill="none" stroke="#191970" d="M52.2682,-76.2192C66.5624,-63.6937 93.0339,-42.0515 119,-29 123.3599,-26.8086 128.0207,-24.8145 132.7556,-23.0139"/>
<polygon fill="#191970" stroke="#191970" points="134.2315,-26.2051 142.506,-19.5881 131.9111,-19.6009 134.2315,-26.2051"/>
</g>
<!-- Node448579 -->
<g id="node3" class="node">
<title>Node448579</title>
<g id="a_node3"><a xlink:href="quickjs_8c.html#ab50618f1bf78e444caa6da0e3e2785d7" target="_top" xlink:title="JS_DefineProperty">
<polygon fill="none" stroke="#ff0000" points="279,-570.5 279,-589.5 378,-589.5 378,-570.5 279,-570.5"/>
<text text-anchor="middle" x="328.5" y="-577.5" font-family="Helvetica,sans-Serif" font-size="10.00" fill="#000000">JS_DefineProperty</text>
</a>
</g>
</g>
<!-- Node448578&#45;&gt;Node448579 -->
<g id="edge2" class="edge">
<title>Node448578&#45;&gt;Node448579</title>
<path fill="none" stroke="#191970" d="M243.1258,-580C251.6337,-580 260.3534,-580 268.8165,-580"/>
<polygon fill="#191970" stroke="#191970" points="268.9808,-583.5001 278.9807,-580 268.9807,-576.5001 268.9808,-583.5001"/>
</g>
<!-- Node448607 -->
<g id="node15" class="node">
<title>Node448607</title>
<g id="a_node15"><a xlink:href="quickjs_8h.html#afaa20c47565bc704c6c85f3d77254e7d" target="_top" xlink:title="JS_FreeValue">
<polygon fill="none" stroke="#ff0000" points="642.5,-671.5 642.5,-690.5 720.5,-690.5 720.5,-671.5 642.5,-671.5"/>
<text text-anchor="middle" x="681.5" y="-678.5" font-family="Helvetica,sans-Serif" font-size="10.00" fill="#000000">JS_FreeValue</text>
</a>
</g>
</g>
<!-- Node448578&#45;&gt;Node448607 -->
<g id="edge51" class="edge">
<title>Node448578&#45;&gt;Node448607</title>
<path fill="none" stroke="#191970" d="M189.5169,-589.5987C217.6991,-620.5386 311.9581,-717.5735 414,-751 486.6461,-774.7971 513.9077,-776.4255 586,-751 605.3759,-744.1665 605.5295,-734.2819 622,-722 633.7443,-713.2424 647.1554,-703.9429 658.2687,-696.4182"/>
<polygon fill="#191970" stroke="#191970" points="660.2668,-699.2924 666.6129,-690.8084 656.3612,-693.4832 660.2668,-699.2924"/>
</g>
<!-- Node448580 -->
<g id="node4" class="node">
<title>Node448580</title>
<g id="a_node4"><a xlink:href="quickjs_8c.html#a014abd680db53ab89cb133345742a59c" target="_top" xlink:title="__attribute__">
<polygon fill="none" stroke="#ff0000" points="645,-620.5 645,-639.5 718,-639.5 718,-620.5 645,-620.5"/>
<text text-anchor="middle" x="681.5" y="-627.5" font-family="Helvetica,sans-Serif" font-size="10.00" fill="#000000">__attribute__</text>
</a>
</g>
</g>
<!-- Node448579&#45;&gt;Node448580 -->
<g id="edge3" class="edge">
<title>Node448579&#45;&gt;Node448580</title>
<path fill="none" stroke="#191970" d="M378.1946,-588.3831C389.9259,-590.2938 402.396,-592.2695 414,-594 491.1245,-605.5016 581.0106,-617.2617 634.4801,-624.0844"/>
<polygon fill="#191970" stroke="#191970" points="634.312,-627.5912 644.6738,-625.3816 635.1957,-620.6472 634.312,-627.5912"/>
</g>
<!-- Node448648 -->
<g id="node5" class="node">
<title>Node448648</title>
<g id="a_node5"><a xlink:href="quickjs_8c.html#a288254c06a39c9fca740a7abdad2834e" target="_top" xlink:title="__JS_AtomIsTaggedInt">
<polygon fill="none" stroke="#000000" points="622,-468.5 622,-487.5 741,-487.5 741,-468.5 622,-468.5"/>
<text text-anchor="middle" x="681.5" y="-475.5" font-family="Helvetica,sans-Serif" font-size="10.00" fill="#000000">__JS_AtomIsTaggedInt</text>
</a>
</g>
</g>
<!-- Node448579&#45;&gt;Node448648 -->
<g id="edge4" class="edge">
<title>Node448579&#45;&gt;Node448648</title>
<path fill="none" stroke="#191970" d="M335.1687,-570.4648C348.0643,-552.9061 378.3162,-515.8122 414,-500 476.7663,-472.187 555.8861,-469.1006 611.7475,-471.492"/>
<polygon fill="#191970" stroke="#191970" points="611.7365,-474.9957 621.8982,-471.9976 612.0847,-468.0044 611.7365,-474.9957"/>
</g>
<!-- Node448649 -->
<g id="node6" class="node">
<title>Node448649</title>
<g id="a_node6"><a xlink:href="quickjs_8c.html#a89f38938cee8077ce1fbba07946ed185" target="_top" xlink:title="__JS_AtomToUInt32">
<polygon fill="none" stroke="#000000" points="627.5,-506.5 627.5,-525.5 735.5,-525.5 735.5,-506.5 627.5,-506.5"/>
<text text-anchor="middle" x="681.5" y="-513.5" font-family="Helvetica,sans-Serif" font-size="10.00" fill="#000000">__JS_AtomToUInt32</text>
</a>
</g>
</g>
<!-- Node448579&#45;&gt;Node448649 -->
<g id="edge5" class="edge">
<title>Node448579&#45;&gt;Node448649</title>
<path fill="none" stroke="#191970" d="M338.539,-570.4783C353.5556,-556.9433 383.3903,-532.7068 414,-523 480.9106,-501.7817 562.023,-503.1718 617.2642,-507.874"/>
<polygon fill="#191970" stroke="#191970" points="616.9921,-511.3636 627.2686,-508.7858 617.6276,-504.3925 616.9921,-511.3636"/>
</g>
<!-- Node449005 -->
<g id="node7" class="node">
<title>Node449005</title>
<g id="a_node7"><a xlink:href="quickjs_8c.html#a68c7ae36cec3bf8bbf6cc0868a71cc4b" target="_top" xlink:title="check_define_prop_flags">
<polygon fill="none" stroke="#000000" points="437.5,-190.5 437.5,-209.5 562.5,-209.5 562.5,-190.5 437.5,-190.5"/>
<text text-anchor="middle" x="500" y="-197.5" font-family="Helvetica,sans-Serif" font-size="10.00" fill="#000000">check_define_prop_flags</text>
</a>
</g>
</g>
<!-- Node448579&#45;&gt;Node449005 -->
<g id="edge6" class="edge">
<title>Node448579&#45;&gt;Node449005</title>
<path fill="none" stroke="#191970" d="M329.5029,-570.3682C335.053,-518.8552 363.5935,-276.2777 414,-224 418.1356,-219.7108 422.9681,-216.1686 428.195,-213.2458"/>
<polygon fill="#191970" stroke="#191970" points="429.7974,-216.3592 437.3104,-208.889 426.7787,-210.0435 429.7974,-216.3592"/>
</g>
<!-- Node448869 -->
<g id="node8" class="node">
<title>Node448869</title>
<g id="a_node8"><a xlink:href="quickjs_8c.html#ac93c982cb636a5430b191d104083af3e" target="_top" xlink:title="convert_fast_array\l_to_array">
<polygon fill="none" stroke="#ff0000" points="632.5,-419 632.5,-449 730.5,-449 730.5,-419 632.5,-419"/>
<text text-anchor="start" x="640.5" y="-437" font-family="Helvetica,sans-Serif" font-size="10.00" fill="#000000">convert_fast_array</text>
<text text-anchor="middle" x="681.5" y="-426" font-family="Helvetica,sans-Serif" font-size="10.00" fill="#000000">_to_array</text>
</a>
</g>
</g>
<!-- Node448579&#45;&gt;Node448869 -->
<g id="edge7" class="edge">
<title>Node448579&#45;&gt;Node448869</title>
<path fill="none" stroke="#191970" d="M332.5295,-570.2557C342.5034,-547.5123 370.7108,-490.9688 414,-466 477.9827,-429.0955 564.8205,-425.5449 621.9678,-428.2413"/>
<polygon fill="#191970" stroke="#191970" points="622.103,-431.754 632.2808,-428.8108 622.489,-424.7646 622.103,-431.754"/>
</g>
<!-- Node448724 -->
<g id="node9" class="node">
<title>Node448724</title>
<g id="a_node9"><a xlink:href="quickjs_8c.html#a3dd8e78607dbc729614deacf55901b95" target="_top" xlink:title="js_shape_prepare_update">
<polygon fill="none" stroke="#ff0000" points="777,-674.5 777,-693.5 905,-693.5 905,-674.5 777,-674.5"/>
<text text-anchor="middle" x="841" y="-681.5" font-family="Helvetica,sans-Serif" font-size="10.00" fill="#000000">js_shape_prepare_update</text>
</a>
</g>
</g>
<!-- Node448579&#45;&gt;Node448724 -->
<g id="edge49" class="edge">
<title>Node448579&#45;&gt;Node448724</title>
<path fill="none" stroke="#191970" d="M378.1484,-574.6935C457.734,-568.1397 617.4609,-563.0966 741,-611 773.8202,-623.7263 805.5724,-650.044 824.1921,-667.356"/>
<polygon fill="#191970" stroke="#191970" points="821.9034,-670.0098 831.5564,-674.3768 826.7336,-664.9433 821.9034,-670.0098"/>
</g>
<!-- Node448598 -->
<g id="node10" class="node">
<title>Node448598</title>
<g id="a_node10"><a xlink:href="quickjs_8c.html#a643df594b75933007bcdbb071b5ea8c5" target="_top" xlink:title="get_shape_prop">
<polygon fill="none" stroke="#000000" points="941,-915.5 941,-934.5 1027,-934.5 1027,-915.5 941,-915.5"/>
<text text-anchor="middle" x="984" y="-922.5" font-family="Helvetica,sans-Serif" font-size="10.00" fill="#000000">get_shape_prop</text>
</a>
</g>
</g>
<!-- Node448579&#45;&gt;Node448598 -->
<g id="edge14" class="edge">
<title>Node448579&#45;&gt;Node448598</title>
<path fill="none" stroke="#191970" d="M328.8012,-589.6787C330.8595,-648.7557 344.9184,-960.1246 414,-1017 582.1999,-1155.4804 875.6728,-992.4938 960.4496,-940.1259"/>
<polygon fill="#191970" stroke="#191970" points="962.4637,-942.9944 969.0864,-934.7245 958.752,-937.0595 962.4637,-942.9944"/>
</g>
<!-- Node448597 -->
<g id="node11" class="node">
<title>Node448597</title>
<g id="a_node11"><a xlink:href="quickjs_8c.html#a06b76f5124fd985e35f4c652fd018d6d" target="_top" xlink:title="find_own_property">
<polygon fill="none" stroke="#ff0000" points="793,-1102.5 793,-1121.5 889,-1121.5 889,-1102.5 793,-1102.5"/>
<text text-anchor="middle" x="841" y="-1109.5" font-family="Helvetica,sans-Serif" font-size="10.00" fill="#000000">find_own_property</text>
</a>
</g>
</g>
<!-- Node448579&#45;&gt;Node448597 -->
<g id="edge10" class="edge">
<title>Node448579&#45;&gt;Node448597</title>
<path fill="none" stroke="#191970" d="M328.5665,-589.882C329.2233,-654.6942 336.366,-1018.51 414,-1088 523.005,-1185.57 717.1595,-1147.1662 800.8205,-1124.2971"/>
<polygon fill="#191970" stroke="#191970" points="802.0141,-1127.5975 810.6979,-1121.5277 800.1243,-1120.8574 802.0141,-1127.5975"/>
</g>
<!-- Node448624 -->
<g id="node12" class="node">
<title>Node448624</title>
<g id="a_node12"><a xlink:href="quickjs_8c.html#a9e7b4bccf927d811b0f99b40b08c0472" target="_top" xlink:title="free_var_ref">
<polygon fill="none" stroke="#ff0000" points="466,-988.5 466,-1007.5 534,-1007.5 534,-988.5 466,-988.5"/>
<text text-anchor="middle" x="500" y="-995.5" font-family="Helvetica,sans-Serif" font-size="10.00" fill="#000000">free_var_ref</text>
</a>
</g>
</g>
<!-- Node448579&#45;&gt;Node448624 -->
<g id="edge12" class="edge">
<title>Node448579&#45;&gt;Node448624</title>
<path fill="none" stroke="#191970" d="M329.1896,-589.7227C333.3208,-645.1925 356.5751,-921.2096 414,-979 424.8586,-989.9277 440.4904,-995.1969 455.4566,-997.5689"/>
<polygon fill="#191970" stroke="#191970" points="455.3008,-1001.075 465.6446,-998.7822 456.1286,-994.1242 455.3008,-1001.075"/>
</g>
<!-- Node448870 -->
<g id="node13" class="node">
<title>Node448870</title>
<g id="a_node13"><a xlink:href="quickjs_8c.html#a6df3ef223d7e76a0db2c14d972dbfa77" target="_top" xlink:title="get_prop_flags">
<polygon fill="none" stroke="#000000" points="641.5,-304.5 641.5,-323.5 721.5,-323.5 721.5,-304.5 641.5,-304.5"/>
<text text-anchor="middle" x="681.5" y="-311.5" font-family="Helvetica,sans-Serif" font-size="10.00" fill="#000000">get_prop_flags</text>
</a>
</g>
</g>
<!-- Node448579&#45;&gt;Node448870 -->
<g id="edge13" class="edge">
<title>Node448579&#45;&gt;Node448870</title>
<path fill="none" stroke="#191970" d="M330.3118,-570.4362C338.4736,-528.4347 373.2078,-361.0429 414,-330 477.7396,-281.4942 576.7308,-290.9935 634.7316,-302.4175"/>
<polygon fill="#191970" stroke="#191970" points="634.2174,-305.8852 644.7192,-304.4839 635.6358,-299.0303 634.2174,-305.8852"/>
</g>
<!-- Node448701 -->
<g id="node14" class="node">
<title>Node448701</title>
<g id="a_node14"><a xlink:href="quickjs_8c.html#ab4e100a9cde5f7ec87c92f5e766dbbab" target="_top" xlink:title="JS_AtomIsNumericIndex1">
<polygon fill="none" stroke="#ff0000" points="434.5,-532.5 434.5,-551.5 565.5,-551.5 565.5,-532.5 434.5,-532.5"/>
<text text-anchor="middle" x="500" y="-539.5" font-family="Helvetica,sans-Serif" font-size="10.00" fill="#000000">JS_AtomIsNumericIndex1</text>
</a>
</g>
</g>
<!-- Node448579&#45;&gt;Node448701 -->
<g id="edge15" class="edge">
<title>Node448579&#45;&gt;Node448701</title>
<path fill="none" stroke="#191970" d="M371.7767,-570.411C394.6119,-565.3513 422.8232,-559.1004 446.9648,-553.7512"/>
<polygon fill="#191970" stroke="#191970" points="448.0285,-557.1005 457.0345,-551.5201 446.5141,-550.2663 448.0285,-557.1005"/>
</g>
<!-- Node448579&#45;&gt;Node448607 -->
<g id="edge36" class="edge">
<title>Node448579&#45;&gt;Node448607</title>
<path fill="none" stroke="#191970" d="M333.5286,-589.598C344.7596,-609.8678 374.0688,-656.6769 414,-675 484.3506,-707.2816 576.4495,-700.0814 632.1801,-691.1198"/>
<polygon fill="#191970" stroke="#191970" points="632.8725,-694.5525 642.1495,-689.4351 631.7061,-687.6503 632.8725,-694.5525"/>
</g>
<!-- Node448579&#45;&gt;Node448643 -->
<g id="edge37" class="edge">
<title>Node448579&#45;&gt;Node448643</title>
<path fill="none" stroke="#191970" d="M329.499,-589.6219C334.8353,-638.9533 361.7124,-862.7524 414,-903 474.5769,-949.6282 512.8624,-925.2406 586,-903 616.3585,-893.7682 645.8424,-871.3193 663.8292,-855.6303"/>
<polygon fill="#191970" stroke="#191970" points="666.5958,-857.8493 671.689,-848.559 661.914,-852.6454 666.5958,-857.8493"/>
</g>
<!-- Node448703 -->
<g id="node17" class="node">
<title>Node448703</title>
<g id="a_node17"><a xlink:href="quickjs_8h.html#a2050bc428da1c65ac7eb87c3fa3b0392" target="_top" xlink:title="JS_NewInt32">
<polygon fill="none" stroke="#000000" points="803,-342.5 803,-361.5 879,-361.5 879,-342.5 803,-342.5"/>
<text text-anchor="middle" x="841" y="-349.5" font-family="Helvetica,sans-Serif" font-size="10.00" fill="#000000">JS_NewInt32</text>
</a>
</g>
</g>
<!-- Node448579&#45;&gt;Node448703 -->
<g id="edge40" class="edge">
<title>Node448579&#45;&gt;Node448703</title>
<path fill="none" stroke="#191970" d="M329.4737,-570.2314C334.6839,-520.1473 361.0328,-292.9302 414,-252 471.5063,-207.5623 673.9492,-228.9666 741,-257 779.4473,-273.0745 811.8332,-311.1942 828.6321,-333.9594"/>
<polygon fill="#191970" stroke="#191970" points="826.0005,-336.2967 834.663,-342.3968 831.6953,-332.2261 826.0005,-336.2967"/>
</g>
<!-- Node448722 -->
<g id="node18" class="node">
<title>Node448722</title>
<g id="a_node18"><a xlink:href="quickjs_8c.html#a8aac7988cf0c6f3c2b629a6662fd7ec8" target="_top" xlink:title="JS_AutoInitProperty">
<polygon fill="none" stroke="#ff0000" points="448,-798.5 448,-817.5 552,-817.5 552,-798.5 448,-798.5"/>
<text text-anchor="middle" x="500" y="-805.5" font-family="Helvetica,sans-Serif" font-size="10.00" fill="#000000">JS_AutoInitProperty</text>
</a>
</g>
</g>
<!-- Node448579&#45;&gt;Node448722 -->
<g id="edge21" class="edge">
<title>Node448579&#45;&gt;Node448722</title>
<path fill="none" stroke="#191970" d="M331.3147,-589.5239C339.863,-617.1753 367.8006,-698.8077 414,-751 429.8729,-768.9319 452.6224,-783.6803 470.7368,-793.6796"/>
<polygon fill="#191970" stroke="#191970" points="469.2545,-796.8555 479.726,-798.4674 472.5452,-790.6772 469.2545,-796.8555"/>
</g>
<!-- Node448868 -->
<g id="node19" class="node">
<title>Node448868</title>
<g id="a_node19"><a xlink:href="quickjs_8c.html#ad5565bb5cfd5321f181573257f3b0c91" target="_top" xlink:title="JS_CreateProperty">
<polygon fill="none" stroke="#ff0000" points="450,-380.5 450,-399.5 550,-399.5 550,-380.5 450,-380.5"/>
<text text-anchor="middle" x="500" y="-387.5" font-family="Helvetica,sans-Serif" font-size="10.00" fill="#000000">JS_CreateProperty</text>
</a>
</g>
</g>
<!-- Node448579&#45;&gt;Node448868 -->
<g id="edge24" class="edge">
<title>Node448579&#45;&gt;Node448868</title>
<path fill="none" stroke="#191970" d="M330.5812,-570.4205C337.2737,-541.9589 360.971,-457.2044 414,-414 421.5813,-407.8233 430.6487,-403.2333 440.0093,-399.8232"/>
<polygon fill="#191970" stroke="#191970" points="441.3651,-403.0641 449.8202,-396.6796 439.2291,-396.398 441.3651,-403.0641"/>
</g>
<!-- Node448579&#45;&gt;Node448606 -->
<g id="edge35" class="edge">
<title>Node448579&#45;&gt;Node448606</title>
<path fill="none" stroke="#191970" d="M329.1227,-570.2082C332.8815,-514.3539 354.412,-236.5573 414,-181 444.8384,-152.2476 564.2777,-145.138 632.6737,-143.4533"/>
<polygon fill="#191970" stroke="#191970" points="632.8626,-146.9501 642.7846,-143.2345 632.7112,-139.9518 632.8626,-146.9501"/>
</g>
<!-- Node448820 -->
<g id="node21" class="node">
<title>Node448820</title>
<g id="a_node21"><a xlink:href="quickjs_8c.html#a1ca9cdb1fa2ffc3e6506e92b200e490f" target="_top" xlink:title="JS_IsFunction">
<polygon fill="none" stroke="#000000" points="641.5,-266.5 641.5,-285.5 721.5,-285.5 721.5,-266.5 641.5,-266.5"/>
<text text-anchor="middle" x="681.5" y="-273.5" font-family="Helvetica,sans-Serif" font-size="10.00" fill="#000000">JS_IsFunction</text>
</a>
</g>
</g>
<!-- Node448579&#45;&gt;Node448820 -->
<g id="edge38" class="edge">
<title>Node448579&#45;&gt;Node448820</title>
<path fill="none" stroke="#191970" d="M329.8292,-570.4998C336.4529,-524.6268 367.4422,-326.7486 414,-290 477.8786,-239.5798 579.4197,-251.5491 637.2854,-264.1726"/>
<polygon fill="#191970" stroke="#191970" points="636.6903,-267.6267 647.2185,-266.4401 638.2482,-260.8023 636.6903,-267.6267"/>
</g>
<!-- Node448727 -->
<g id="node22" class="node">
<title>Node448727</title>
<g id="a_node22"><a xlink:href="quickjs_8h.html#a88259aa0da61ac754402c64ccecee116" target="_top" xlink:title="JS_NewUint32">
<polygon fill="none" stroke="#ff0000" points="640,-342.5 640,-361.5 723,-361.5 723,-342.5 640,-342.5"/>
<text text-anchor="middle" x="681.5" y="-349.5" font-family="Helvetica,sans-Serif" font-size="10.00" fill="#000000">JS_NewUint32</text>
</a>
</g>
</g>
<!-- Node448579&#45;&gt;Node448727 -->
<g id="edge41" class="edge">
<title>Node448579&#45;&gt;Node448727</title>
<path fill="none" stroke="#191970" d="M329.0508,-570.3999C331.5718,-536.3724 345.0944,-420.892 414,-371 476.9672,-325.4079 571.595,-331.2071 629.7948,-340.7542"/>
<polygon fill="#191970" stroke="#191970" points="629.4178,-344.2411 639.8693,-342.5041 630.6158,-337.3443 629.4178,-344.2411"/>
</g>
<!-- Node448721 -->
<g id="node23" class="node">
<title>Node448721</title>
<g id="a_node23"><a xlink:href="quickjs_8h.html#a4e407128a9605afb77523e49e9a627fd" target="_top" xlink:title="JS_IsUndefined">
<polygon fill="none" stroke="#000000" points="457,-950.5 457,-969.5 543,-969.5 543,-950.5 457,-950.5"/>
<text text-anchor="middle" x="500" y="-957.5" font-family="Helvetica,sans-Serif" font-size="10.00" fill="#000000">JS_IsUndefined</text>
</a>
</g>
</g>
<!-- Node448579&#45;&gt;Node448721 -->
<g id="edge39" class="edge">
<title>Node448579&#45;&gt;Node448721</title>
<path fill="none" stroke="#191970" d="M329.5029,-589.6318C335.053,-641.1448 363.5935,-883.7223 414,-936 422.8294,-945.1572 434.8352,-950.9097 447.0737,-954.4994"/>
<polygon fill="#191970" stroke="#191970" points="446.3334,-957.9218 456.8824,-956.9383 448.0225,-951.1287 446.3334,-957.9218"/>
</g>
<!-- Node449006 -->
<g id="node24" class="node">
<title>Node449006</title>
<g id="a_node24"><a xlink:href="quickjs_8c.html#af2333dd9d30e60437b73af383477188c" target="_top" xlink:title="JS_NumberIsInteger">
<polygon fill="none" stroke="#ff0000" points="446.5,-874.5 446.5,-893.5 553.5,-893.5 553.5,-874.5 446.5,-874.5"/>
<text text-anchor="middle" x="500" y="-881.5" font-family="Helvetica,sans-Serif" font-size="10.00" fill="#000000">JS_NumberIsInteger</text>
</a>
</g>
</g>
<!-- Node448579&#45;&gt;Node449006 -->
<g id="edge42" class="edge">
<title>Node448579&#45;&gt;Node449006</title>
<path fill="none" stroke="#191970" d="M330.0842,-589.7857C337.6395,-635.267 371.4141,-825.4551 414,-865 420.3622,-870.9079 428.133,-875.1297 436.3744,-878.1228"/>
<polygon fill="#191970" stroke="#191970" points="435.6241,-881.5525 446.2093,-881.0994 437.6519,-874.8526 435.6241,-881.5525"/>
</g>
<!-- Node449009 -->
<g id="node25" class="node">
<title>Node449009</title>
<g id="a_node25"><a xlink:href="quickjs_8c.html#aced4796120beed3ba63dc0b234b399ab" target="_top" xlink:title="JS_NumberIsNegativeOrMinusZero">
<polygon fill="none" stroke="#000000" points="414,-836.5 414,-855.5 586,-855.5 586,-836.5 414,-836.5"/>
<text text-anchor="middle" x="500" y="-843.5" font-family="Helvetica,sans-Serif" font-size="10.00" fill="#000000">JS_NumberIsNegativeOrMinusZero</text>
</a>
</g>
</g>
<!-- Node448579&#45;&gt;Node449009 -->
<g id="edge43" class="edge">
<title>Node448579&#45;&gt;Node449009</title>
<path fill="none" stroke="#191970" d="M330.5122,-589.5776C339.38,-630.9007 376.2121,-793.353 414,-827 415.7165,-828.5284 417.528,-829.9429 419.4172,-831.2514"/>
<polygon fill="#191970" stroke="#191970" points="417.744,-834.3272 428.1467,-836.3359 421.2671,-828.2784 417.744,-834.3272"/>
</g>
<!-- Node448991 -->
<g id="node26" class="node">
<title>Node448991</title>
<g id="a_node26"><a xlink:href="quickjs_8c.html#a24be89a128d1cd7c0908604815b2b854" target="_top" xlink:title="js_same_value">
<polygon fill="none" stroke="#ff0000" points="459,-114.5 459,-133.5 541,-133.5 541,-114.5 459,-114.5"/>
<text text-anchor="middle" x="500" y="-121.5" font-family="Helvetica,sans-Serif" font-size="10.00" fill="#000000">js_same_value</text>
</a>
</g>
</g>
<!-- Node448579&#45;&gt;Node448991 -->
<g id="edge44" class="edge">
<title>Node448579&#45;&gt;Node448991</title>
<path fill="none" stroke="#191970" d="M329.0703,-570.2987C332.6652,-512.3994 354.0004,-212.791 414,-148 423.1483,-138.1212 435.989,-132.1831 448.9634,-128.6489"/>
<polygon fill="#191970" stroke="#191970" points="449.883,-132.0291 458.8521,-126.3894 448.3237,-125.2049 449.883,-132.0291"/>
</g>
<!-- Node448878 -->
<g id="node27" class="node">
<title>Node448878</title>
<g id="a_node27"><a xlink:href="quickjs_8c.html#aee75cc1546e19479e3ccda58f3b50a96" target="_top" xlink:title="JS_SetPropertyValue">
<polygon fill="none" stroke="#ff0000" points="445,-646.5 445,-665.5 555,-665.5 555,-646.5 445,-646.5"/>
<text text-anchor="middle" x="500" y="-653.5" font-family="Helvetica,sans-Serif" font-size="10.00" fill="#000000">JS_SetPropertyValue</text>
</a>
</g>
</g>
<!-- Node448579&#45;&gt;Node448878 -->
<g id="edge46" class="edge">
<title>Node448579&#45;&gt;Node448878</title>
<path fill="none" stroke="#191970" d="M341.7906,-589.6831C358.0915,-601.1723 386.9045,-620.2466 414,-632 424.4489,-636.5325 435.9844,-640.4403 447.122,-643.7086"/>
<polygon fill="#191970" stroke="#191970" points="446.196,-647.0839 456.7698,-646.4157 448.0872,-640.3442 446.196,-647.0839"/>
</g>
<!-- Node448775 -->
<g id="node28" class="node">
<title>Node448775</title>
<g id="a_node28"><a xlink:href="quickjs_8c.html#a726b00d108e0a0f4d958c36c2e426a64" target="_top" xlink:title="JS_ThrowTypeErrorNotAnObject">
<polygon fill="none" stroke="#000000" points="420,-722.5 420,-741.5 580,-741.5 580,-722.5 420,-722.5"/>
<text text-anchor="middle" x="500" y="-729.5" font-family="Helvetica,sans-Serif" font-size="10.00" fill="#000000">JS_ThrowTypeErrorNotAnObject</text>
</a>
</g>
</g>
<!-- Node448579&#45;&gt;Node448775 -->
<g id="edge50" class="edge">
<title>Node448579&#45;&gt;Node448775</title>
<path fill="none" stroke="#191970" d="M332.1856,-589.7389C341.7722,-613.7241 369.8535,-676.0132 414,-708 420.0409,-712.377 426.8497,-715.9564 433.9243,-718.8836"/>
<polygon fill="#191970" stroke="#191970" points="433.0957,-722.3084 443.6891,-722.4845 435.5176,-715.7407 433.0957,-722.3084"/>
</g>
<!-- Node448869&#45;&gt;Node448724 -->
<g id="edge8" class="edge">
<title>Node448869&#45;&gt;Node448724</title>
<path fill="none" stroke="#191970" d="M727.6026,-449.0663C732.478,-451.8704 737.0783,-455.1577 741,-459 801.8236,-518.5921 828.5382,-621.676 837.3987,-664.4863"/>
<polygon fill="#191970" stroke="#191970" points="833.9933,-665.3089 839.3579,-674.4452 840.8617,-663.9576 833.9933,-665.3089"/>
</g>
<!-- Node448724&#45;&gt;Node448598 -->
<g id="edge9" class="edge">
<title>Node448724&#45;&gt;Node448598</title>
<path fill="none" stroke="#191970" d="M846.7829,-693.746C868.3897,-730.1603 944.5998,-858.5982 973.1198,-906.6634"/>
<polygon fill="#191970" stroke="#191970" points="970.1889,-908.5828 978.3018,-915.3968 976.2089,-905.0107 970.1889,-908.5828"/>
</g>
<!-- Node448597&#45;&gt;Node448598 -->
<g id="edge11" class="edge">
<title>Node448597&#45;&gt;Node448598</title>
<path fill="none" stroke="#191970" d="M880.8747,-1102.3699C889.5458,-1098.899 898.1593,-1094.2353 905,-1088 948.8494,-1048.0313 970.9751,-978.44 979.5802,-944.5995"/>
<polygon fill="#191970" stroke="#191970" points="983.0526,-945.1298 981.992,-934.5882 976.2472,-943.4903 983.0526,-945.1298"/>
</g>
<!-- Node448701&#45;&gt;Node448648 -->
<g id="edge16" class="edge">
<title>Node448701&#45;&gt;Node448648</title>
<path fill="none" stroke="#191970" d="M525.1183,-532.3651C549.7029,-523.0226 588.2697,-508.5999 622,-497 628.1237,-494.894 634.6283,-492.7367 641.0028,-490.6665"/>
<polygon fill="#191970" stroke="#191970" points="642.3899,-493.8971 650.8393,-487.505 640.2479,-487.2328 642.3899,-493.8971"/>
</g>
<!-- Node448701&#45;&gt;Node448649 -->
<g id="edge17" class="edge">
<title>Node448701&#45;&gt;Node448649</title>
<path fill="none" stroke="#191970" d="M565.5257,-532.6134C582.3432,-530.2043 600.4162,-527.6153 617.1726,-525.2149"/>
<polygon fill="#191970" stroke="#191970" points="618.0101,-528.6308 627.4127,-523.748 617.0174,-521.7015 618.0101,-528.6308"/>
</g>
<!-- Node448701&#45;&gt;Node448607 -->
<g id="edge18" class="edge">
<title>Node448701&#45;&gt;Node448607</title>
<path fill="none" stroke="#191970" d="M509.4879,-551.6895C529.2218,-571.5205 576.6367,-617.516 622,-649 631.3466,-655.4869 642.1527,-661.6522 651.9703,-666.8083"/>
<polygon fill="#191970" stroke="#191970" points="650.5026,-669.9887 661.0003,-671.4201 653.6864,-663.7547 650.5026,-669.9887"/>
</g>
<!-- Node448701&#45;&gt;Node448643 -->
<g id="edge19" class="edge">
<title>Node448701&#45;&gt;Node448643</title>
<path fill="none" stroke="#191970" d="M510.62,-551.7051C528.0359,-568.0295 563.0235,-602.5852 586,-637 607.7351,-669.5555 654.5545,-776.3255 673.3985,-820.0609"/>
<polygon fill="#191970" stroke="#191970" points="670.2015,-821.4863 677.3639,-829.2934 676.6334,-818.7238 670.2015,-821.4863"/>
</g>
<!-- Node448701&#45;&gt;Node448703 -->
<g id="edge20" class="edge">
<title>Node448701&#45;&gt;Node448703</title>
<path fill="none" stroke="#191970" d="M537.0663,-551.5638C587.3195,-562.306 678.0108,-573.607 741,-535 801.2521,-498.0707 827.7593,-411.0681 836.9524,-371.8197"/>
<polygon fill="#191970" stroke="#191970" points="840.4061,-372.4107 839.1424,-361.8915 833.5705,-370.9029 840.4061,-372.4107"/>
</g>
<!-- Node448722&#45;&gt;Node448724 -->
<g id="edge23" class="edge">
<title>Node448722&#45;&gt;Node448724</title>
<path fill="none" stroke="#191970" d="M537.5023,-798.4227C552.6667,-794.32 570.2713,-789.2636 586,-784 667.6751,-756.6673 761.4196,-717.9557 809.2739,-697.6472"/>
<polygon fill="#191970" stroke="#191970" points="810.9392,-700.7423 818.768,-693.6037 808.1962,-694.302 810.9392,-700.7423"/>
</g>
<!-- Node448722&#45;&gt;Node448643 -->
<g id="edge22" class="edge">
<title>Node448722&#45;&gt;Node448643</title>
<path fill="none" stroke="#191970" d="M552.0106,-816.8834C575.9333,-820.9693 604.2775,-825.8105 628.3393,-829.9202"/>
<polygon fill="#191970" stroke="#191970" points="627.9173,-833.3987 638.3639,-831.6324 629.0959,-826.4987 627.9173,-833.3987"/>
</g>
<!-- Node448868&#45;&gt;Node448580 -->
<g id="edge25" class="edge">
<title>Node448868&#45;&gt;Node448580</title>
<path fill="none" stroke="#191970" d="M507.3398,-399.7055C534.8783,-436.1201 632.301,-564.9434 668.1408,-612.3349"/>
<polygon fill="#191970" stroke="#191970" points="665.4442,-614.5718 674.2677,-620.4366 671.0274,-610.3495 665.4442,-614.5718"/>
</g>
<!-- Node448868&#45;&gt;Node448648 -->
<g id="edge26" class="edge">
<title>Node448868&#45;&gt;Node448648</title>
<path fill="none" stroke="#191970" d="M514.5156,-399.5186C536.8754,-413.8747 581.4173,-441.2694 622,-459 627.0305,-461.1978 632.3982,-463.2694 637.7731,-465.1788"/>
<polygon fill="#191970" stroke="#191970" points="636.79,-468.541 647.3843,-468.4325 639.0347,-461.9106 636.79,-468.541"/>
</g>
<!-- Node448868&#45;&gt;Node448649 -->
<g id="edge27" class="edge">
<title>Node448868&#45;&gt;Node448649</title>
<path fill="none" stroke="#191970" d="M508.4717,-399.761C527.0156,-420.5527 573.4409,-469.5478 622,-497 625.7169,-499.1013 629.698,-501.0057 633.7741,-502.724"/>
<polygon fill="#191970" stroke="#191970" points="632.7874,-506.0939 643.3778,-506.4009 635.2903,-499.5567 632.7874,-506.0939"/>
</g>
<!-- Node448868&#45;&gt;Node448869 -->
<g id="edge28" class="edge">
<title>Node448868&#45;&gt;Node448869</title>
<path fill="none" stroke="#191970" d="M539.3828,-399.5473C563.711,-405.4451 595.3829,-413.1231 622.6515,-419.7337"/>
<polygon fill="#191970" stroke="#191970" points="621.9338,-423.161 632.4769,-422.1156 623.583,-416.3581 621.9338,-423.161"/>
</g>
<!-- Node448868&#45;&gt;Node448598 -->
<g id="edge30" class="edge">
<title>Node448868&#45;&gt;Node448598</title>
<path fill="none" stroke="#191970" d="M550.0361,-381.941C601.6768,-376.2668 682.6996,-374.9714 741,-410 928.3885,-522.5886 973.3578,-824.9164 982.1325,-905.1994"/>
<polygon fill="#191970" stroke="#191970" points="978.675,-905.7936 983.1771,-915.3842 985.6385,-905.0793 978.675,-905.7936"/>
</g>
<!-- Node448868&#45;&gt;Node448870 -->
<g id="edge29" class="edge">
<title>Node448868&#45;&gt;Node448870</title>
<path fill="none" stroke="#191970" d="M518.6913,-380.3505C542.3543,-368.3489 584.5556,-347.6563 622,-333 627.5632,-330.8225 633.4877,-328.7022 639.3603,-326.7154"/>
<polygon fill="#191970" stroke="#191970" points="640.7119,-329.9555 649.1214,-323.5112 638.5286,-323.3047 640.7119,-329.9555"/>
</g>
<!-- Node448868&#45;&gt;Node448606 -->
<g id="edge31" class="edge">
<title>Node448868&#45;&gt;Node448606</title>
<path fill="none" stroke="#191970" d="M507.115,-380.3173C534.3915,-343.1972 632.5445,-209.6226 668.3283,-160.9251"/>
<polygon fill="#191970" stroke="#191970" points="671.3331,-162.7466 674.4342,-152.6158 665.6923,-158.6016 671.3331,-162.7466"/>
</g>
<!-- Node448868&#45;&gt;Node448820 -->
<g id="edge32" class="edge">
<title>Node448868&#45;&gt;Node448820</title>
<path fill="none" stroke="#191970" d="M509.8959,-380.2576C529.6255,-361.3248 575.9358,-319.2957 622,-295 626.0479,-292.865 630.3782,-290.9176 634.7878,-289.1539"/>
<polygon fill="#191970" stroke="#191970" points="636.3124,-292.3224 644.489,-285.5849 633.8955,-285.7529 636.3124,-292.3224"/>
</g>
<!-- Node448868&#45;&gt;Node448727 -->
<g id="edge33" class="edge">
<title>Node448868&#45;&gt;Node448727</title>
<path fill="none" stroke="#191970" d="M545.8001,-380.411C571.4079,-375.0496 603.404,-368.3507 629.8949,-362.8044"/>
<polygon fill="#191970" stroke="#191970" points="630.6829,-366.2154 639.7535,-360.7403 629.2484,-359.3639 630.6829,-366.2154"/>
</g>
<!-- Node448727&#45;&gt;Node448703 -->
<g id="edge34" class="edge">
<title>Node448727&#45;&gt;Node448703</title>
<path fill="none" stroke="#191970" d="M723.4067,-352C744.6813,-352 770.6333,-352 792.7395,-352"/>
<polygon fill="#191970" stroke="#191970" points="792.9193,-355.5001 802.9193,-352 792.9193,-348.5001 792.9193,-355.5001"/>
</g>
<!-- Node448991&#45;&gt;Node448606 -->
<g id="edge45" class="edge">
<title>Node448991&#45;&gt;Node448606</title>
<path fill="none" stroke="#191970" d="M541.1852,-128.3114C568.3851,-131.1588 604.1544,-134.9032 632.7701,-137.8988"/>
<polygon fill="#191970" stroke="#191970" points="632.6499,-141.4053 642.9599,-138.9655 633.3787,-134.4433 632.6499,-141.4053"/>
</g>
<!-- Node448878&#45;&gt;Node448580 -->
<g id="edge47" class="edge">
<title>Node448878&#45;&gt;Node448580</title>
<path fill="none" stroke="#191970" d="M555.4422,-648.0579C580.8009,-644.4252 610.5174,-640.1683 634.727,-636.7003"/>
<polygon fill="#191970" stroke="#191970" points="635.334,-640.1491 644.7366,-635.2664 634.3413,-633.2199 635.334,-640.1491"/>
</g>
<!-- Node448878&#45;&gt;Node448607 -->
<g id="edge48" class="edge">
<title>Node448878&#45;&gt;Node448607</title>
<path fill="none" stroke="#191970" d="M555.4422,-663.6367C579.8704,-667.0014 608.3424,-670.9232 632.0402,-674.1874"/>
<polygon fill="#191970" stroke="#191970" points="631.8344,-677.692 642.2185,-675.5893 632.7897,-670.7575 631.8344,-677.692"/>
</g>
</g>
</svg>
        <g id="navigator" transform="translate(0 0)" fill="#404254">
                <rect fill="#f2f5e9" fill-opacity="0.5" stroke="#606060" stroke-width=".5" x="0" y="0" width="60" height="60"/>
                <use id="zoomplus" xlink:href="#zoomPlus" x="17" y="9" onmousedown="handleZoom(evt,'in')"/>
                <use id="zoomminus" xlink:href="#zoomMin" x="42" y="9" onmousedown="handleZoom(evt,'out')"/>
                <use id="reset" xlink:href="#resetDef" x="30" y="36" onmousedown="handleReset()"/>
                <g id="arrowUp" xlink:href="#dirArrow" transform="translate(30 24)" onmousedown="handlePan(0,-1)">
                  <use xlink:href="#rim" fill="#404040">
                        <set attributeName="fill" to="#808080" begin="arrowUp.mouseover" end="arrowUp.mouseout"/>
                  </use>
                  <path fill="none" stroke="white" stroke-width="1.5" d="M0,-3.0v7 M-2.5,-0.5L0,-3.0L2.5,-0.5"/>
                </g>
                <g id="arrowRight" xlink:href="#dirArrow" transform="rotate(90) translate(36 -43)" onmousedown="handlePan(1,0)">
                  <use xlink:href="#rim" fill="#404040">
                        <set attributeName="fill" to="#808080" begin="arrowRight.mouseover" end="arrowRight.mouseout"/>
                  </use>
                  <path fill="none" stroke="white" stroke-width="1.5" d="M0,-3.0v7 M-2.5,-0.5L0,-3.0L2.5,-0.5"/>
                </g>
                <g id="arrowDown" xlink:href="#dirArrow" transform="rotate(180) translate(-30 -48)" onmousedown="handlePan(0,1)">
                  <use xlink:href="#rim" fill="#404040">
                        <set attributeName="fill" to="#808080" begin="arrowDown.mouseover" end="arrowDown.mouseout"/>
                  </use>
                  <path fill="none" stroke="white" stroke-width="1.5" d="M0,-3.0v7 M-2.5,-0.5L0,-3.0L2.5,-0.5"/>
                </g>
                <g id="arrowLeft" xlink:href="#dirArrow" transform="rotate(270) translate(-36 17)" onmousedown="handlePan(-1,0)">
                  <use xlink:href="#rim" fill="#404040">
                        <set attributeName="fill" to="#808080" begin="arrowLeft.mouseover" end="arrowLeft.mouseout"/>
                  </use>
                  <path fill="none" stroke="white" stroke-width="1.5" d="M0,-3.0v7 M-2.5,-0.5L0,-3.0L2.5,-0.5"/>
                </g>
        </g>
        <svg viewBox="0 0 15 15" width="100%" height="30px" preserveAspectRatio="xMaxYMin meet">
         <g id="arrow_out" transform="scale(0.3 0.3)">
          <a xlink:href="quickjs_8c_a8e59e32f9ef5272d7d0b1d884191321c_cgraph_org.svg" target="_base">
           <rect id="button" ry="5" rx="5" y="6" x="6" height="38" width="38"
                fill="#f2f5e9" fill-opacity="0.5" stroke="#606060" stroke-width="1.0"/>
           <path id="arrow"
             d="M 11.500037,31.436501 C 11.940474,20.09759 22.043105,11.32322 32.158766,21.979434 L 37.068811,17.246167 C 37.068811,17.246167 37.088388,32 37.088388,32 L 22.160133,31.978069 C 22.160133,31.978069 26.997745,27.140456 26.997745,27.140456 C 18.528582,18.264221 13.291696,25.230495 11.500037,31.436501 z"
             style="fill:#404040;"/>
          </a>
         </g>
        </svg>
</svg>
