<?xml version="1.0" encoding="UTF-8" standalone="no"?>
<!DOCTYPE svg PUBLIC "-//W3C//DTD SVG 1.1//EN"
 "http://www.w3.org/Graphics/SVG/1.1/DTD/svg11.dtd">
<!-- Generated by graphviz version 2.40.1 (20161225.0304)
 -->
<!-- Title: js_string_obj_get_length Pages: 1 -->
<svg width="629pt" height="412pt"
 viewBox="0.00 0.00 629.00 411.50" xmlns="http://www.w3.org/2000/svg" xmlns:xlink="http://www.w3.org/1999/xlink">
<g id="graph0" class="graph" transform="scale(1 1) rotate(0) translate(4 407.5)">
<title>js_string_obj_get_length</title>
<!-- Node187095 -->
<g id="node1" class="node">
<title>Node187095</title>
<polygon fill="#bfbfbf" stroke="#000000" points="0,-185 0,-204 122,-204 122,-185 0,-185"/>
<text text-anchor="middle" x="61" y="-192" font-family="Helvetica,sans-Serif" font-size="10.00" fill="#000000">js_string_obj_get_length</text>
</g>
<!-- Node187096 -->
<g id="node2" class="node">
<title>Node187096</title>
<g id="a_node2"><a xlink:href="quickjs_8c.html#a176ac5ff56a118a0b1b2566798d28823" target="_top" xlink:title="JS_GetOwnPropertyNamesInternal">
<polygon fill="none" stroke="#000000" points="158,-204 158,-223 328,-223 328,-204 158,-204"/>
<text text-anchor="middle" x="243" y="-211" font-family="Helvetica,sans-Serif" font-size="10.00" fill="#000000">JS_GetOwnPropertyNamesInternal</text>
</a>
</g>
</g>
<!-- Node187095&#45;&gt;Node187096 -->
<g id="edge1" class="edge">
<title>Node187095&#45;&gt;Node187096</title>
<path fill="none" stroke="#191970" d="M132.2079,-201.9338C140.5994,-202.8098 149.2268,-203.7105 157.7857,-204.604"/>
<polygon fill="#191970" stroke="#191970" points="132.4191,-198.4369 122.1097,-200.8796 131.6922,-205.3991 132.4191,-198.4369"/>
</g>
<!-- Node187706 -->
<g id="node15" class="node">
<title>Node187706</title>
<g id="a_node15"><a xlink:href="quickjs_8c.html#a22eca439161b721bd030c61869d452ce" target="_top" xlink:title="js_string_delete_property">
<polygon fill="none" stroke="#000000" points="180.5,-166 180.5,-185 305.5,-185 305.5,-166 180.5,-166"/>
<text text-anchor="middle" x="243" y="-173" font-family="Helvetica,sans-Serif" font-size="10.00" fill="#000000">js_string_delete_property</text>
</a>
</g>
</g>
<!-- Node187095&#45;&gt;Node187706 -->
<g id="edge15" class="edge">
<title>Node187095&#45;&gt;Node187706</title>
<path fill="none" stroke="#191970" d="M132.4049,-187.0456C148.2876,-185.3876 165.0063,-183.6422 180.4992,-182.0248"/>
<polygon fill="#191970" stroke="#191970" points="131.6922,-183.6009 122.1097,-188.1204 132.4191,-190.5631 131.6922,-183.6009"/>
</g>
<!-- Node187097 -->
<g id="node3" class="node">
<title>Node187097</title>
<g id="a_node3"><a xlink:href="quickjs_8c.html#a160229a9daaaf70e287d6dadb69bc609" target="_top" xlink:title="JS_GetOwnPropertyNames">
<polygon fill="none" stroke="#000000" points="366.5,-384 366.5,-403 504.5,-403 504.5,-384 366.5,-384"/>
<text text-anchor="middle" x="435.5" y="-391" font-family="Helvetica,sans-Serif" font-size="10.00" fill="#000000">JS_GetOwnPropertyNames</text>
</a>
</g>
</g>
<!-- Node187096&#45;&gt;Node187097 -->
<g id="edge2" class="edge">
<title>Node187096&#45;&gt;Node187097</title>
<path fill="none" stroke="#191970" d="M251.912,-232.5151C268.8104,-266.4378 308.8184,-337.3112 364,-374.5 369.7515,-378.3762 376.258,-381.4625 382.945,-383.9197"/>
<polygon fill="#191970" stroke="#191970" points="254.9321,-230.7216 247.4184,-223.2519 248.634,-233.7768 254.9321,-230.7216"/>
</g>
<!-- Node187100 -->
<g id="node5" class="node">
<title>Node187100</title>
<g id="a_node5"><a xlink:href="quickjs_8c.html#aa40a5354bee3b56e05a71244910bcc78" target="_top" xlink:title="build_for_in_iterator">
<polygon fill="none" stroke="#000000" points="385,-346 385,-365 486,-365 486,-346 385,-346"/>
<text text-anchor="middle" x="435.5" y="-353" font-family="Helvetica,sans-Serif" font-size="10.00" fill="#000000">build_for_in_iterator</text>
</a>
</g>
</g>
<!-- Node187096&#45;&gt;Node187100 -->
<g id="edge4" class="edge">
<title>Node187096&#45;&gt;Node187100</title>
<path fill="none" stroke="#191970" d="M255.5466,-231.3518C275.4221,-258.2762 316.7708,-309.0389 364,-336.5 370.6621,-340.3736 378.1289,-343.4752 385.6574,-345.9538"/>
<polygon fill="#191970" stroke="#191970" points="258.3488,-229.2539 249.6519,-223.2028 252.6771,-233.3566 258.3488,-229.2539"/>
</g>
<!-- Node187238 -->
<g id="node7" class="node">
<title>Node187238</title>
<g id="a_node7"><a xlink:href="quickjs_8c.html#a3b754d750c7f3123e85f4a2e748de023" target="_top" xlink:title="JS_CopyDataProperties">
<polygon fill="none" stroke="#ff0000" points="374.5,-308 374.5,-327 496.5,-327 496.5,-308 374.5,-308"/>
<text text-anchor="middle" x="435.5" y="-315" font-family="Helvetica,sans-Serif" font-size="10.00" fill="#000000">JS_CopyDataProperties</text>
</a>
</g>
</g>
<!-- Node187096&#45;&gt;Node187238 -->
<g id="edge6" class="edge">
<title>Node187096&#45;&gt;Node187238</title>
<path fill="none" stroke="#191970" d="M261.6537,-229.8064C284.3655,-248.8671 324.5895,-280.1356 364,-298.5 372.1495,-302.2975 381.1881,-305.4388 390.0203,-307.9988"/>
<polygon fill="#191970" stroke="#191970" points="263.726,-226.9738 253.8448,-223.1512 259.1855,-232.3015 263.726,-226.9738"/>
</g>
<!-- Node187391 -->
<g id="node8" class="node">
<title>Node187391</title>
<g id="a_node8"><a xlink:href="quickjs_8c.html#ab2de4cc7a9e58c7a6220acf9e4769d62" target="_top" xlink:title="JS_ObjectDefineProperties">
<polygon fill="none" stroke="#ff0000" points="368,-270 368,-289 503,-289 503,-270 368,-270"/>
<text text-anchor="middle" x="435.5" y="-277" font-family="Helvetica,sans-Serif" font-size="10.00" fill="#000000">JS_ObjectDefineProperties</text>
</a>
</g>
</g>
<!-- Node187096&#45;&gt;Node187391 -->
<g id="edge7" class="edge">
<title>Node187096&#45;&gt;Node187391</title>
<path fill="none" stroke="#191970" d="M275.8345,-226.9065C300.0108,-236.5508 333.7934,-249.5562 364,-259.5 375.2639,-263.208 387.6661,-266.8339 398.9337,-269.9578"/>
<polygon fill="#191970" stroke="#191970" points="277.0073,-223.6059 266.4232,-223.1284 274.3994,-230.102 277.0073,-223.6059"/>
</g>
<!-- Node187385 -->
<g id="node9" class="node">
<title>Node187385</title>
<g id="a_node9"><a xlink:href="quickjs_8c.html#ad4eec5e88dc04d884c28e0f09d9a81f5" target="_top" xlink:title="js_object_getOwnProperty\lDescriptors">
<polygon fill="none" stroke="#000000" points="370,-220.5 370,-250.5 501,-250.5 501,-220.5 370,-220.5"/>
<text text-anchor="start" x="378" y="-238.5" font-family="Helvetica,sans-Serif" font-size="10.00" fill="#000000">js_object_getOwnProperty</text>
<text text-anchor="middle" x="435.5" y="-227.5" font-family="Helvetica,sans-Serif" font-size="10.00" fill="#000000">Descriptors</text>
</a>
</g>
</g>
<!-- Node187096&#45;&gt;Node187385 -->
<g id="edge8" class="edge">
<title>Node187096&#45;&gt;Node187385</title>
<path fill="none" stroke="#191970" d="M336.579,-224.1947C347.7906,-225.4761 359.0506,-226.7629 369.7498,-227.9857"/>
<polygon fill="#191970" stroke="#191970" points="336.6465,-220.6798 326.3137,-223.0216 335.8516,-227.6345 336.6465,-220.6798"/>
</g>
<!-- Node187340 -->
<g id="node10" class="node">
<title>Node187340</title>
<g id="a_node10"><a xlink:href="quickjs_8c.html#a79c9d633e8f9d5fd70546406b9e6f176" target="_top" xlink:title="JS_GetOwnPropertyNames2">
<polygon fill="none" stroke="#ff0000" points="364,-182 364,-201 507,-201 507,-182 364,-182"/>
<text text-anchor="middle" x="435.5" y="-189" font-family="Helvetica,sans-Serif" font-size="10.00" fill="#000000">JS_GetOwnPropertyNames2</text>
</a>
</g>
</g>
<!-- Node187096&#45;&gt;Node187340 -->
<g id="edge9" class="edge">
<title>Node187096&#45;&gt;Node187340</title>
<path fill="none" stroke="#191970" d="M336.3198,-202.8349C345.5691,-201.7778 354.8545,-200.7166 363.834,-199.6904"/>
<polygon fill="#191970" stroke="#191970" points="335.8516,-199.3655 326.3137,-203.9784 336.6465,-206.3202 335.8516,-199.3655"/>
</g>
<!-- Node187411 -->
<g id="node11" class="node">
<title>Node187411</title>
<g id="a_node11"><a xlink:href="quickjs_8c.html#a3b1f61e0c2e39eb52d8b1c5c8713873e" target="_top" xlink:title="js_object_seal">
<polygon fill="none" stroke="#ff0000" points="396,-144 396,-163 475,-163 475,-144 396,-144"/>
<text text-anchor="middle" x="435.5" y="-151" font-family="Helvetica,sans-Serif" font-size="10.00" fill="#000000">js_object_seal</text>
</a>
</g>
</g>
<!-- Node187096&#45;&gt;Node187411 -->
<g id="edge10" class="edge">
<title>Node187096&#45;&gt;Node187411</title>
<path fill="none" stroke="#191970" d="M308.1805,-201.2551C314.97,-199.2932 321.6894,-197.0515 328,-194.5 345.3839,-187.4712 346.7594,-179.8735 364,-172.5 374.0379,-168.207 385.2925,-164.6701 395.8492,-161.8606"/>
<polygon fill="#191970" stroke="#191970" points="306.9706,-197.9561 298.2226,-203.9329 308.7884,-204.7159 306.9706,-197.9561"/>
</g>
<!-- Node187447 -->
<g id="node12" class="node">
<title>Node187447</title>
<g id="a_node12"><a xlink:href="quickjs_8c.html#a43a4ecde0329def8ff22e9341c7b109d" target="_top" xlink:title="js_object_isSealed">
<polygon fill="none" stroke="#000000" points="386.5,-106 386.5,-125 484.5,-125 484.5,-106 386.5,-106"/>
<text text-anchor="middle" x="435.5" y="-113" font-family="Helvetica,sans-Serif" font-size="10.00" fill="#000000">js_object_isSealed</text>
</a>
</g>
</g>
<!-- Node187096&#45;&gt;Node187447 -->
<g id="edge11" class="edge">
<title>Node187096&#45;&gt;Node187447</title>
<path fill="none" stroke="#191970" d="M319.9381,-199.523C322.7453,-198.0121 325.4462,-196.3431 328,-194.5 353.217,-176.3007 339.1503,-153.1977 364,-134.5 370.5685,-129.5577 378.3214,-125.899 386.2561,-123.1911"/>
<polygon fill="#191970" stroke="#191970" points="318.2572,-196.4446 310.6613,-203.8307 321.2053,-202.7935 318.2572,-196.4446"/>
</g>
<!-- Node187184 -->
<g id="node13" class="node">
<title>Node187184</title>
<g id="a_node13"><a xlink:href="quickjs_8c.html#a624282391413d4c5a030adbd8b77aa80" target="_top" xlink:title="internalize_json_property">
<polygon fill="none" stroke="#ff0000" points="373,-50 373,-69 498,-69 498,-50 373,-50"/>
<text text-anchor="middle" x="435.5" y="-57" font-family="Helvetica,sans-Serif" font-size="10.00" fill="#000000">internalize_json_property</text>
</a>
</g>
</g>
<!-- Node187096&#45;&gt;Node187184 -->
<g id="edge12" class="edge">
<title>Node187096&#45;&gt;Node187184</title>
<path fill="none" stroke="#191970" d="M322.4582,-198.7734C324.3907,-197.4597 326.244,-196.038 328,-194.5 362.9052,-163.9269 333.3112,-131.3035 364,-96.5 375.0927,-83.92 391.4964,-75.0039 405.7948,-69.0809"/>
<polygon fill="#191970" stroke="#191970" points="320.4834,-195.8705 313.5341,-203.8679 323.9538,-201.9497 320.4834,-195.8705"/>
</g>
<!-- Node187449 -->
<g id="node14" class="node">
<title>Node187449</title>
<g id="a_node14"><a xlink:href="quickjs_8c.html#a438b354d69a8f0674195b0cdc19dd686" target="_top" xlink:title="js_proxy_get_own_property\l_names">
<polygon fill="none" stroke="#000000" points="367.5,-.5 367.5,-30.5 503.5,-30.5 503.5,-.5 367.5,-.5"/>
<text text-anchor="start" x="375.5" y="-18.5" font-family="Helvetica,sans-Serif" font-size="10.00" fill="#000000">js_proxy_get_own_property</text>
<text text-anchor="middle" x="435.5" y="-7.5" font-family="Helvetica,sans-Serif" font-size="10.00" fill="#000000">_names</text>
</a>
</g>
</g>
<!-- Node187096&#45;&gt;Node187449 -->
<g id="edge14" class="edge">
<title>Node187096&#45;&gt;Node187449</title>
<path fill="none" stroke="#191970" d="M323.9324,-198.1099C325.3485,-196.9819 326.7073,-195.7801 328,-194.5 377.9435,-145.04 317.0193,-92.7825 364,-40.5 367.5157,-36.5875 371.6784,-33.2873 376.2,-30.5036"/>
<polygon fill="#191970" stroke="#191970" points="321.705,-195.3849 315.2605,-203.7944 325.5426,-201.2393 321.705,-195.3849"/>
</g>
<!-- Node187098 -->
<g id="node4" class="node">
<title>Node187098</title>
<g id="a_node4"><a xlink:href="quickjs-libc_8c.html#afc77720d4d1c0b90749ce275a4a16f74" target="_top" xlink:title="build_envp">
<polygon fill="none" stroke="#ff0000" points="550.5,-384 550.5,-403 613.5,-403 613.5,-384 550.5,-384"/>
<text text-anchor="middle" x="582" y="-391" font-family="Helvetica,sans-Serif" font-size="10.00" fill="#000000">build_envp</text>
</a>
</g>
</g>
<!-- Node187097&#45;&gt;Node187098 -->
<g id="edge3" class="edge">
<title>Node187097&#45;&gt;Node187098</title>
<path fill="none" stroke="#191970" d="M515.0019,-393.5C527.5815,-393.5 539.9134,-393.5 550.499,-393.5"/>
<polygon fill="#191970" stroke="#191970" points="514.8888,-390.0001 504.8888,-393.5 514.8888,-397.0001 514.8888,-390.0001"/>
</g>
<!-- Node187101 -->
<g id="node6" class="node">
<title>Node187101</title>
<g id="a_node6"><a xlink:href="quickjs_8c.html#a3472bcc4762be7f7de1dcf4c1e0c5ff1" target="_top" xlink:title="js_for_in_start">
<polygon fill="none" stroke="#ff0000" points="543,-346 543,-365 621,-365 621,-346 543,-346"/>
<text text-anchor="middle" x="582" y="-353" font-family="Helvetica,sans-Serif" font-size="10.00" fill="#000000">js_for_in_start</text>
</a>
</g>
</g>
<!-- Node187100&#45;&gt;Node187101 -->
<g id="edge5" class="edge">
<title>Node187100&#45;&gt;Node187101</title>
<path fill="none" stroke="#191970" d="M496.48,-355.5C512.146,-355.5 528.5826,-355.5 542.8129,-355.5"/>
<polygon fill="#191970" stroke="#191970" points="496.3275,-352.0001 486.3274,-355.5 496.3274,-359.0001 496.3275,-352.0001"/>
</g>
<!-- Node187184&#45;&gt;Node187184 -->
<g id="edge13" class="edge">
<title>Node187184&#45;&gt;Node187184</title>
<path fill="none" stroke="#191970" d="M408.2475,-78.1539C409.3867,-83.4368 418.4708,-87.5 435.5,-87.5 461.4492,-87.5 468.9502,-78.0653 458.0028,-69.2571"/>
<polygon fill="#191970" stroke="#191970" points="411.3752,-79.727 412.9972,-69.2571 405.2001,-76.4303 411.3752,-79.727"/>
</g>
</g>
</svg>
