<?xml version="1.0" encoding="UTF-8" standalone="no"?>
<!DOCTYPE svg PUBLIC "-//W3C//DTD SVG 1.1//EN"
 "http://www.w3.org/Graphics/SVG/1.1/DTD/svg11.dtd">
<!-- Generated by graphviz version 2.40.1 (20161225.0304)
 -->
<!-- Title: JS_NewAtom Pages: 1 -->
<!--zoomable 572 -->
<svg id="main" version="1.1" xmlns="http://www.w3.org/2000/svg" xmlns:xlink="http://www.w3.org/1999/xlink" xml:space="preserve" onload="init(evt)">
<style type="text/css"><![CDATA[
.edge:hover path { stroke: red; }
.edge:hover polygon { stroke: red; fill: red; }
]]></style>
<script type="text/javascript"><![CDATA[
var edges = document.getElementsByTagName('g');
if (edges && edges.length) {
  for (var i=0;i<edges.length;i++) {
    if (edges[i].id.substr(0,4)=='edge') {
      edges[i].setAttribute('class','edge');
    }
  }
}
]]></script>
        <defs>
                <circle id="rim" cx="0" cy="0" r="7"/>
                <circle id="rim2" cx="0" cy="0" r="3.5"/>
                <g id="zoomPlus">
                        <use xlink:href="#rim" fill="#404040">
                                <set attributeName="fill" to="#808080" begin="zoomplus.mouseover" end="zoomplus.mouseout"/>
                        </use>
                        <path d="M-4,0h8M0,-4v8" fill="none" stroke="white" stroke-width="1.5" pointer-events="none"/>
                </g>
                <g id="zoomMin">
                        <use xlink:href="#rim" fill="#404040">
                                <set attributeName="fill" to="#808080" begin="zoomminus.mouseover" end="zoomminus.mouseout"/>
                        </use>
                        <path d="M-4,0h8" fill="none" stroke="white" stroke-width="1.5" pointer-events="none"/>
                </g>
                <g id="dirArrow">
                        <path fill="none" stroke="white" stroke-width="1.5" d="M0,-3.0v7 M-2.5,-0.5L0,-3.0L2.5,-0.5"/>
                </g>
               <g id="resetDef">
                       <use xlink:href="#rim2" fill="#404040">
                               <set attributeName="fill" to="#808080" begin="reset.mouseover" end="reset.mouseout"/>
                       </use>
               </g>
        </defs>

<script type="text/javascript">
var viewWidth = 797;
var viewHeight = 572;
var sectionId = 'dynsection-250';
</script>
<script xlink:href="svgpan.js"/>
<svg id="graph" class="graph">
<g id="viewport">
<title>JS_NewAtom</title>
<!-- Node85800 -->
<g id="node1" class="node">
<title>Node85800</title>
<polygon fill="#bfbfbf" stroke="#000000" points="0,-259.5 0,-278.5 77,-278.5 77,-259.5 0,-259.5"/>
<text text-anchor="middle" x="38.5" y="-266.5" font-family="Helvetica,sans-Serif" font-size="10.00" fill="#000000">JS_NewAtom</text>
</g>
<!-- Node85801 -->
<g id="node2" class="node">
<title>Node85801</title>
<g id="a_node2"><a xlink:href="quickjs_8c.html#a46a8a7e155cfd0af984f6725f060f0d6" target="_top" xlink:title="__JS_EvalInternal">
<polygon fill="none" stroke="#000000" points="305,-518.5 305,-537.5 401,-537.5 401,-518.5 305,-518.5"/>
<text text-anchor="middle" x="353" y="-525.5" font-family="Helvetica,sans-Serif" font-size="10.00" fill="#000000">__JS_EvalInternal</text>
</a>
</g>
</g>
<!-- Node85800&#45;&gt;Node85801 -->
<g id="edge1" class="edge">
<title>Node85800&#45;&gt;Node85801</title>
<path fill="none" stroke="#191970" d="M41.7291,-288.6935C50.713,-340.8972 77.681,-480.7642 113,-509 169.4789,-554.1521 259.2263,-546.9552 311.4849,-537.5422"/>
<polygon fill="#191970" stroke="#191970" points="45.1578,-287.9768 40.0458,-278.6968 38.255,-289.1392 45.1578,-287.9768"/>
</g>
<!-- Node85807 -->
<g id="node4" class="node">
<title>Node85807</title>
<g id="a_node4"><a xlink:href="classqjs_1_1Value.html#a7816587475ecf667433f9ea681df925b" target="_top" xlink:title="qjs::Value::add_getter">
<polygon fill="none" stroke="#000000" points="121,-442.5 121,-461.5 233,-461.5 233,-442.5 121,-442.5"/>
<text text-anchor="middle" x="177" y="-449.5" font-family="Helvetica,sans-Serif" font-size="10.00" fill="#000000">qjs::Value::add_getter</text>
</a>
</g>
</g>
<!-- Node85800&#45;&gt;Node85807 -->
<g id="edge3" class="edge">
<title>Node85800&#45;&gt;Node85807</title>
<path fill="none" stroke="#191970" d="M42.0159,-289.0237C49.13,-323.5383 68.5058,-394.2508 113,-433 117.4576,-436.8821 122.6792,-439.9715 128.1835,-442.4299"/>
<polygon fill="#191970" stroke="#191970" points="45.3769,-287.966 40.0548,-278.8049 38.5023,-289.2854 45.3769,-287.966"/>
</g>
<!-- Node85808 -->
<g id="node5" class="node">
<title>Node85808</title>
<g id="a_node5"><a xlink:href="classqjs_1_1Value.html#ac6bbb5f2ab1ed265b2b508325807e2fb" target="_top" xlink:title="qjs::Value::add_getter\l_setter">
<polygon fill="none" stroke="#000000" points="121,-393 121,-423 233,-423 233,-393 121,-393"/>
<text text-anchor="start" x="129" y="-411" font-family="Helvetica,sans-Serif" font-size="10.00" fill="#000000">qjs::Value::add_getter</text>
<text text-anchor="middle" x="177" y="-400" font-family="Helvetica,sans-Serif" font-size="10.00" fill="#000000">_setter</text>
</a>
</g>
</g>
<!-- Node85800&#45;&gt;Node85808 -->
<g id="edge4" class="edge">
<title>Node85800&#45;&gt;Node85808</title>
<path fill="none" stroke="#191970" d="M46.5099,-288.1816C57.8629,-313.2198 80.8843,-356.9133 113,-383 117.7221,-386.8357 123.1028,-390.1352 128.6923,-392.9601"/>
<polygon fill="#191970" stroke="#191970" points="49.5775,-286.4607 42.3662,-278.6988 43.1632,-289.2636 49.5775,-286.4607"/>
</g>
<!-- Node85809 -->
<g id="node6" class="node">
<title>Node85809</title>
<g id="a_node6"><a xlink:href="quickjs_8c.html#ae8e62d181b34d2e7bdda0b099c0880f5" target="_top" xlink:title="find_atom">
<polygon fill="none" stroke="#000000" points="147.5,-354.5 147.5,-373.5 206.5,-373.5 206.5,-354.5 147.5,-354.5"/>
<text text-anchor="middle" x="177" y="-361.5" font-family="Helvetica,sans-Serif" font-size="10.00" fill="#000000">find_atom</text>
</a>
</g>
</g>
<!-- Node85800&#45;&gt;Node85809 -->
<g id="edge5" class="edge">
<title>Node85800&#45;&gt;Node85809</title>
<path fill="none" stroke="#191970" d="M53.1147,-286.4878C67.1031,-302.2893 89.4993,-325.2643 113,-340 123.5564,-346.6192 136.2199,-351.8461 147.486,-355.7092"/>
<polygon fill="#191970" stroke="#191970" points="55.44,-283.8255 46.2548,-278.5451 50.1423,-288.4009 55.44,-283.8255"/>
</g>
<!-- Node85829 -->
<g id="node11" class="node">
<title>Node85829</title>
<g id="a_node11"><a xlink:href="quickjs_8c.html#a369af749a1fb181216fe8a8b55f841b0" target="_top" xlink:title="JS_AddModuleExport">
<polygon fill="none" stroke="#000000" points="121.5,-240.5 121.5,-259.5 232.5,-259.5 232.5,-240.5 121.5,-240.5"/>
<text text-anchor="middle" x="177" y="-247.5" font-family="Helvetica,sans-Serif" font-size="10.00" fill="#000000">JS_AddModuleExport</text>
</a>
</g>
</g>
<!-- Node85800&#45;&gt;Node85829 -->
<g id="edge11" class="edge">
<title>Node85800&#45;&gt;Node85829</title>
<path fill="none" stroke="#191970" d="M86.9969,-262.347C98.0744,-260.8273 109.9326,-259.2006 121.2857,-257.6431"/>
<polygon fill="#191970" stroke="#191970" points="86.5115,-258.8807 77.08,-263.7074 87.4629,-265.8158 86.5115,-258.8807"/>
</g>
<!-- Node85832 -->
<g id="node16" class="node">
<title>Node85832</title>
<g id="a_node16"><a xlink:href="quickjs_8c.html#a841f4cb887e4d9e03e94a0697255e578" target="_top" xlink:title="JS_DefinePropertyValueStr">
<polygon fill="none" stroke="#000000" points="284.5,-316.5 284.5,-335.5 421.5,-335.5 421.5,-316.5 284.5,-316.5"/>
<text text-anchor="middle" x="353" y="-323.5" font-family="Helvetica,sans-Serif" font-size="10.00" fill="#000000">JS_DefinePropertyValueStr</text>
</a>
</g>
</g>
<!-- Node85800&#45;&gt;Node85832 -->
<g id="edge18" class="edge">
<title>Node85800&#45;&gt;Node85832</title>
<path fill="none" stroke="#191970" d="M77.0038,-281.5057C88.4964,-284.9294 101.1815,-288.407 113,-291 170.1695,-303.5429 236.0121,-312.7835 284.255,-318.6101"/>
<polygon fill="#191970" stroke="#191970" points="77.8491,-278.1043 67.263,-278.5344 75.8067,-284.7998 77.8491,-278.1043"/>
</g>
<!-- Node85853 -->
<g id="node23" class="node">
<title>Node85853</title>
<g id="a_node23"><a xlink:href="quickjs_8c.html#a04f589361a4fbc30d997402e92a50de2" target="_top" xlink:title="JS_GetPropertyStr">
<polygon fill="none" stroke="#ff0000" points="127.5,-164.5 127.5,-183.5 226.5,-183.5 226.5,-164.5 127.5,-164.5"/>
<text text-anchor="middle" x="177" y="-171.5" font-family="Helvetica,sans-Serif" font-size="10.00" fill="#000000">JS_GetPropertyStr</text>
</a>
</g>
</g>
<!-- Node85800&#45;&gt;Node85853 -->
<g id="edge28" class="edge">
<title>Node85800&#45;&gt;Node85853</title>
<path fill="none" stroke="#191970" d="M53.1147,-251.5122C67.1031,-235.7107 89.4993,-212.7357 113,-198 122.4505,-192.0742 133.5897,-187.2644 143.9033,-183.5499"/>
<polygon fill="#191970" stroke="#191970" points="50.1423,-249.5991 46.2548,-259.4549 55.44,-254.1745 50.1423,-249.5991"/>
</g>
<!-- Node85867 -->
<g id="node24" class="node">
<title>Node85867</title>
<g id="a_node24"><a xlink:href="quickjs_8c.html#a90dd988b99a5bc7b2a4aaffd2de405a9" target="_top" xlink:title="js_host_resolve_imported\l_module">
<polygon fill="none" stroke="#ff0000" points="113,-115 113,-145 241,-145 241,-115 113,-115"/>
<text text-anchor="start" x="121" y="-133" font-family="Helvetica,sans-Serif" font-size="10.00" fill="#000000">js_host_resolve_imported</text>
<text text-anchor="middle" x="177" y="-122" font-family="Helvetica,sans-Serif" font-size="10.00" fill="#000000">_module</text>
</a>
</g>
</g>
<!-- Node85800&#45;&gt;Node85867 -->
<g id="edge29" class="edge">
<title>Node85800&#45;&gt;Node85867</title>
<path fill="none" stroke="#191970" d="M46.5099,-249.8184C57.8629,-224.7802 80.8843,-181.0867 113,-155 117.7221,-151.1643 123.1028,-147.8648 128.6923,-145.0399"/>
<polygon fill="#191970" stroke="#191970" points="43.1632,-248.7364 42.3662,-259.3012 49.5775,-251.5393 43.1632,-248.7364"/>
</g>
<!-- Node86418 -->
<g id="node25" class="node">
<title>Node86418</title>
<g id="a_node25"><a xlink:href="quickjs_8c.html#a8020fd59ed57f7f299216ec1ebfcda01" target="_top" xlink:title="js_new_function_def">
<polygon fill="none" stroke="#ff0000" points="124,-480.5 124,-499.5 230,-499.5 230,-480.5 124,-480.5"/>
<text text-anchor="middle" x="177" y="-487.5" font-family="Helvetica,sans-Serif" font-size="10.00" fill="#000000">js_new_function_def</text>
</a>
</g>
</g>
<!-- Node85800&#45;&gt;Node86418 -->
<g id="edge30" class="edge">
<title>Node85800&#45;&gt;Node86418</title>
<path fill="none" stroke="#191970" d="M40.0433,-288.7672C44.2569,-329.0099 59.5181,-420.8735 113,-471 117.1438,-474.8838 122.046,-477.9769 127.2644,-480.4397"/>
<polygon fill="#191970" stroke="#191970" points="43.5143,-288.2907 39.1087,-278.6554 36.544,-288.9351 43.5143,-288.2907"/>
</g>
<!-- Node86422 -->
<g id="node26" class="node">
<title>Node86422</title>
<g id="a_node26"><a xlink:href="quickjs_8c.html#a27c3a725d4014a35b5bedcdf6e70dec7" target="_top" xlink:title="JS_NewAtomString">
<polygon fill="none" stroke="#ff0000" points="125.5,-76.5 125.5,-95.5 228.5,-95.5 228.5,-76.5 125.5,-76.5"/>
<text text-anchor="middle" x="177" y="-83.5" font-family="Helvetica,sans-Serif" font-size="10.00" fill="#000000">JS_NewAtomString</text>
</a>
</g>
</g>
<!-- Node85800&#45;&gt;Node86422 -->
<g id="edge32" class="edge">
<title>Node85800&#45;&gt;Node86422</title>
<path fill="none" stroke="#191970" d="M42.0159,-248.9763C49.13,-214.4617 68.5058,-143.7492 113,-105 117.4576,-101.1179 122.6792,-98.0285 128.1835,-95.5701"/>
<polygon fill="#191970" stroke="#191970" points="38.5023,-248.7146 40.0548,-259.1951 45.3769,-250.034 38.5023,-248.7146"/>
</g>
<!-- Node85995 -->
<g id="node27" class="node">
<title>Node85995</title>
<g id="a_node27"><a xlink:href="quickjs_8c.html#a21cfe4c4fc9372dc0b95b37667cff0c9" target="_top" xlink:title="JS_NewCFunction3">
<polygon fill="none" stroke="#ff0000" points="301,-278.5 301,-297.5 405,-297.5 405,-278.5 301,-278.5"/>
<text text-anchor="middle" x="353" y="-285.5" font-family="Helvetica,sans-Serif" font-size="10.00" fill="#000000">JS_NewCFunction3</text>
</a>
</g>
</g>
<!-- Node85800&#45;&gt;Node85995 -->
<g id="edge33" class="edge">
<title>Node85800&#45;&gt;Node85995</title>
<path fill="none" stroke="#191970" d="M87.0585,-271.9336C144.9467,-275.4308 241.3083,-281.2523 300.7689,-284.8445"/>
<polygon fill="#191970" stroke="#191970" points="87.2568,-268.4393 77.0639,-271.3298 86.8346,-275.4265 87.2568,-268.4393"/>
</g>
<!-- Node86423 -->
<g id="node28" class="node">
<title>Node86423</title>
<g id="a_node28"><a xlink:href="quickjs_8c.html#ac29cc4ec49efa0f0308e494316ce5139" target="_top" xlink:title="JS_NewCModule">
<polygon fill="none" stroke="#ff0000" points="306.5,-126.5 306.5,-145.5 399.5,-145.5 399.5,-126.5 306.5,-126.5"/>
<text text-anchor="middle" x="353" y="-133.5" font-family="Helvetica,sans-Serif" font-size="10.00" fill="#000000">JS_NewCModule</text>
</a>
</g>
</g>
<!-- Node85800&#45;&gt;Node86423 -->
<g id="edge35" class="edge">
<title>Node85800&#45;&gt;Node86423</title>
<path fill="none" stroke="#191970" d="M64.0538,-254.4955C78.1888,-246.8505 96.239,-237.697 113,-231 168.1068,-208.9814 190.4243,-224.0432 241,-193 260.8274,-180.83 256.912,-166.7348 277,-155 285.9251,-149.7862 296.2492,-145.9936 306.355,-143.2377"/>
<polygon fill="#191970" stroke="#191970" points="62.0329,-251.6125 54.9574,-259.4985 65.4063,-257.746 62.0329,-251.6125"/>
</g>
<!-- Node86425 -->
<g id="node29" class="node">
<title>Node86425</title>
<g id="a_node29"><a xlink:href="quickjs_8c.html#acc3990661d2851b858601061a62cc7d6" target="_top" xlink:title="JS_SetModuleExport">
<polygon fill="none" stroke="#ff0000" points="122.5,-38.5 122.5,-57.5 231.5,-57.5 231.5,-38.5 122.5,-38.5"/>
<text text-anchor="middle" x="177" y="-45.5" font-family="Helvetica,sans-Serif" font-size="10.00" fill="#000000">JS_SetModuleExport</text>
</a>
</g>
</g>
<!-- Node85800&#45;&gt;Node86425 -->
<g id="edge38" class="edge">
<title>Node85800&#45;&gt;Node86425</title>
<path fill="none" stroke="#191970" d="M40.0433,-249.2328C44.2569,-208.9901 59.5181,-117.1265 113,-67 117.1438,-63.1162 122.046,-60.0231 127.2644,-57.5603"/>
<polygon fill="#191970" stroke="#191970" points="36.544,-249.0649 39.1087,-259.3446 43.5143,-249.7093 36.544,-249.0649"/>
</g>
<!-- Node86138 -->
<g id="node30" class="node">
<title>Node86138</title>
<g id="a_node30"><a xlink:href="quickjs_8c.html#a62617fe11025d2e5a545db069fc28e64" target="_top" xlink:title="JS_SetPropertyStr">
<polygon fill="none" stroke="#ff0000" points="128,-.5 128,-19.5 226,-19.5 226,-.5 128,-.5"/>
<text text-anchor="middle" x="177" y="-7.5" font-family="Helvetica,sans-Serif" font-size="10.00" fill="#000000">JS_SetPropertyStr</text>
</a>
</g>
</g>
<!-- Node85800&#45;&gt;Node86138 -->
<g id="edge39" class="edge">
<title>Node85800&#45;&gt;Node86138</title>
<path fill="none" stroke="#191970" d="M42.1331,-249.3675C52.032,-197.873 80.8957,-60.7087 113,-29 117.2056,-24.8462 122.2756,-21.5934 127.6986,-19.0474"/>
<polygon fill="#191970" stroke="#191970" points="38.6364,-249.0224 40.2194,-259.4984 45.5148,-250.3218 38.6364,-249.0224"/>
</g>
<!-- Node85802 -->
<g id="node3" class="node">
<title>Node85802</title>
<g id="a_node3"><a xlink:href="quickjs_8c.html#acbcccb7ec58fd4a024ea1d01e5d04561" target="_top" xlink:title="JS_AddIntrinsicEval">
<polygon fill="none" stroke="#ff0000" points="485.5,-544.5 485.5,-563.5 590.5,-563.5 590.5,-544.5 485.5,-544.5"/>
<text text-anchor="middle" x="538" y="-551.5" font-family="Helvetica,sans-Serif" font-size="10.00" fill="#000000">JS_AddIntrinsicEval</text>
</a>
</g>
</g>
<!-- Node85801&#45;&gt;Node85802 -->
<g id="edge2" class="edge">
<title>Node85801&#45;&gt;Node85802</title>
<path fill="none" stroke="#191970" d="M411.0599,-536.1598C434.8008,-539.4963 462.0728,-543.3292 485.2388,-546.5849"/>
<polygon fill="#191970" stroke="#191970" points="411.5134,-532.6892 401.1236,-534.7633 410.5392,-539.6211 411.5134,-532.6892"/>
</g>
<!-- Node85810 -->
<g id="node7" class="node">
<title>Node85810</title>
<g id="a_node7"><a xlink:href="quickjs_8c.html#a6ee4e2edda1f223a5a40e2c48b41d618" target="_top" xlink:title="JS_InstantiateFunctionListItem">
<polygon fill="none" stroke="#000000" points="277,-376.5 277,-395.5 429,-395.5 429,-376.5 277,-376.5"/>
<text text-anchor="middle" x="353" y="-383.5" font-family="Helvetica,sans-Serif" font-size="10.00" fill="#000000">JS_InstantiateFunctionListItem</text>
</a>
</g>
</g>
<!-- Node85809&#45;&gt;Node85810 -->
<g id="edge6" class="edge">
<title>Node85809&#45;&gt;Node85810</title>
<path fill="none" stroke="#191970" d="M216.8229,-368.9779C234.5505,-371.1938 256.0486,-373.8811 276.6756,-376.4595"/>
<polygon fill="#191970" stroke="#191970" points="217.2129,-365.4995 206.856,-367.732 216.3446,-372.4454 217.2129,-365.4995"/>
</g>
<!-- Node85811 -->
<g id="node8" class="node">
<title>Node85811</title>
<g id="a_node8"><a xlink:href="quickjs_8c.html#ac00854b7f1f0f8567af964a2f8f2adb0" target="_top" xlink:title="JS_SetPropertyFunctionList">
<polygon fill="none" stroke="#ff0000" points="468.5,-506.5 468.5,-525.5 607.5,-525.5 607.5,-506.5 468.5,-506.5"/>
<text text-anchor="middle" x="538" y="-513.5" font-family="Helvetica,sans-Serif" font-size="10.00" fill="#000000">JS_SetPropertyFunctionList</text>
</a>
</g>
</g>
<!-- Node85809&#45;&gt;Node85811 -->
<g id="edge10" class="edge">
<title>Node85809&#45;&gt;Node85811</title>
<path fill="none" stroke="#191970" d="M216.0874,-374.6771C224.4386,-377.3823 233.1152,-380.5215 241,-384 257.9474,-391.4765 260.5764,-396.4341 277,-405 358.6327,-447.5764 379.3472,-458.2326 465,-492 478.2801,-497.2355 493.2118,-502.2872 506.0945,-506.3941"/>
<polygon fill="#191970" stroke="#191970" points="217.0883,-371.3231 206.5004,-371.7064 215.0164,-378.0095 217.0883,-371.3231"/>
</g>
<!-- Node85810&#45;&gt;Node85811 -->
<g id="edge7" class="edge">
<title>Node85810&#45;&gt;Node85811</title>
<path fill="none" stroke="#191970" d="M372.2422,-402.4392C387.8485,-415.9555 410.2532,-435.7796 429,-454 445.683,-470.2146 445.3514,-479.5433 465,-492 474.69,-498.1432 486.1079,-502.8675 496.9991,-506.4328"/>
<polygon fill="#191970" stroke="#191970" points="374.1985,-399.5048 364.3379,-395.6294 369.6295,-404.8081 374.1985,-399.5048"/>
</g>
<!-- Node85820 -->
<g id="node9" class="node">
<title>Node85820</title>
<g id="a_node9"><a xlink:href="quickjs_8c.html#a3afdbdd7b58ef7e1dcc178c362071b3d" target="_top" xlink:title="JS_AddIntrinsicProxy">
<polygon fill="none" stroke="#ff0000" points="662.5,-487.5 662.5,-506.5 773.5,-506.5 773.5,-487.5 662.5,-487.5"/>
<text text-anchor="middle" x="718" y="-494.5" font-family="Helvetica,sans-Serif" font-size="10.00" fill="#000000">JS_AddIntrinsicProxy</text>
</a>
</g>
</g>
<!-- Node85811&#45;&gt;Node85820 -->
<g id="edge8" class="edge">
<title>Node85811&#45;&gt;Node85820</title>
<path fill="none" stroke="#191970" d="M617.8782,-507.5684C632.8523,-505.9878 648.205,-504.3672 662.2498,-502.8847"/>
<polygon fill="#191970" stroke="#191970" points="617.17,-504.1236 607.5927,-508.6541 617.9049,-511.085 617.17,-504.1236"/>
</g>
<!-- Node85826 -->
<g id="node10" class="node">
<title>Node85826</title>
<g id="a_node10"><a xlink:href="quickjs_8c.html#a4c9489297c684663f30e517204a9ec14" target="_top" xlink:title="JS_AddIntrinsicBaseObjects">
<polygon fill="none" stroke="#ff0000" points="647,-259.5 647,-278.5 789,-278.5 789,-259.5 647,-259.5"/>
<text text-anchor="middle" x="718" y="-266.5" font-family="Helvetica,sans-Serif" font-size="10.00" fill="#000000">JS_AddIntrinsicBaseObjects</text>
</a>
</g>
</g>
<!-- Node85811&#45;&gt;Node85826 -->
<g id="edge9" class="edge">
<title>Node85811&#45;&gt;Node85826</title>
<path fill="none" stroke="#191970" d="M562.1624,-500.7686C577.4375,-490.3161 596.8878,-475.4062 611,-459 663.3371,-398.1556 702.3705,-307.7844 714.2422,-278.5168"/>
<polygon fill="#191970" stroke="#191970" points="560.1087,-497.9312 553.723,-506.3854 563.9871,-503.7585 560.1087,-497.9312"/>
</g>
<!-- Node85830 -->
<g id="node12" class="node">
<title>Node85830</title>
<g id="a_node12"><a xlink:href="classqjs_1_1Context_1_1Module.html#aa51896e065a04689c9dbe80a282805bb" target="_top" xlink:title="qjs::Context::Module::add">
<polygon fill="none" stroke="#000000" points="288.5,-164.5 288.5,-183.5 417.5,-183.5 417.5,-164.5 288.5,-164.5"/>
<text text-anchor="middle" x="353" y="-171.5" font-family="Helvetica,sans-Serif" font-size="10.00" fill="#000000">qjs::Context::Module::add</text>
</a>
</g>
</g>
<!-- Node85829&#45;&gt;Node85830 -->
<g id="edge12" class="edge">
<title>Node85829&#45;&gt;Node85830</title>
<path fill="none" stroke="#191970" d="M219.1309,-236.8425C226.6562,-233.7617 234.2439,-230.1455 241,-226 259.5001,-214.6484 257.8844,-203.2812 277,-193 284.1868,-189.1346 292.1795,-186.0375 300.2057,-183.5607"/>
<polygon fill="#191970" stroke="#191970" points="217.784,-233.6104 209.6995,-240.4581 220.2897,-240.1466 217.784,-233.6104"/>
</g>
<!-- Node85813 -->
<g id="node13" class="node">
<title>Node85813</title>
<g id="a_node13"><a xlink:href="quickjs-libc_8c.html#a0e65c67dfff872a664f8d29e7eae5a61" target="_top" xlink:title="js_init_module_std">
<polygon fill="none" stroke="#ff0000" points="489,-88.5 489,-107.5 587,-107.5 587,-88.5 489,-88.5"/>
<text text-anchor="middle" x="538" y="-95.5" font-family="Helvetica,sans-Serif" font-size="10.00" fill="#000000">js_init_module_std</text>
</a>
</g>
</g>
<!-- Node85829&#45;&gt;Node85813 -->
<g id="edge13" class="edge">
<title>Node85829&#45;&gt;Node85813</title>
<path fill="none" stroke="#191970" d="M198.944,-234.1129C212.3546,-223.5818 229.1477,-208.8268 241,-193 263.4038,-163.0833 246.1641,-138.1207 277,-117 341.2833,-72.9699 436.5726,-79.4062 492.4747,-88.4522"/>
<polygon fill="#191970" stroke="#191970" points="196.5372,-231.5466 190.7058,-240.3923 200.7806,-237.1138 196.5372,-231.5466"/>
</g>
<!-- Node85815 -->
<g id="node14" class="node">
<title>Node85815</title>
<g id="a_node14"><a xlink:href="quickjs-libc_8c.html#adcca2b4a661355e6ff87a0def2339894" target="_top" xlink:title="js_init_module_os">
<polygon fill="none" stroke="#ff0000" points="490.5,-126.5 490.5,-145.5 585.5,-145.5 585.5,-126.5 490.5,-126.5"/>
<text text-anchor="middle" x="538" y="-133.5" font-family="Helvetica,sans-Serif" font-size="10.00" fill="#000000">js_init_module_os</text>
</a>
</g>
</g>
<!-- Node85829&#45;&gt;Node85815 -->
<g id="edge14" class="edge">
<title>Node85829&#45;&gt;Node85815</title>
<path fill="none" stroke="#191970" d="M242.7584,-260.4578C296.658,-265.5983 372.9235,-264.7182 429,-231 454.6784,-215.5599 442.9485,-194.2857 465,-174 478.5647,-161.5215 496.995,-151.9699 511.9429,-145.5641"/>
<polygon fill="#191970" stroke="#191970" points="242.9375,-256.9575 232.6271,-259.396 242.2078,-263.9193 242.9375,-256.9575"/>
</g>
<!-- Node85831 -->
<g id="node15" class="node">
<title>Node85831</title>
<g id="a_node15"><a xlink:href="quickjs_8c.html#ac7a9b88dd7ca1a70cd0ecd9a28905e25" target="_top" xlink:title="JS_AddModuleExportList">
<polygon fill="none" stroke="#000000" points="289.5,-202.5 289.5,-221.5 416.5,-221.5 416.5,-202.5 289.5,-202.5"/>
<text text-anchor="middle" x="353" y="-209.5" font-family="Helvetica,sans-Serif" font-size="10.00" fill="#000000">JS_AddModuleExportList</text>
</a>
</g>
</g>
<!-- Node85829&#45;&gt;Node85831 -->
<g id="edge15" class="edge">
<title>Node85829&#45;&gt;Node85831</title>
<path fill="none" stroke="#191970" d="M231.433,-238.2474C256.3194,-232.8742 285.4188,-226.5914 308.9071,-221.5201"/>
<polygon fill="#191970" stroke="#191970" points="230.4483,-234.8793 221.4122,-240.411 231.9257,-241.7216 230.4483,-234.8793"/>
</g>
<!-- Node85831&#45;&gt;Node85813 -->
<g id="edge16" class="edge">
<title>Node85831&#45;&gt;Node85813</title>
<path fill="none" stroke="#191970" d="M422.4273,-197.6594C424.7276,-196.2464 426.9293,-194.6976 429,-193 457.9042,-169.3043 436.2105,-140.8349 465,-117 471.8594,-111.3211 480.2254,-107.3185 488.8137,-104.5024"/>
<polygon fill="#191970" stroke="#191970" points="420.4109,-194.7616 413.1346,-202.4627 423.6252,-200.98 420.4109,-194.7616"/>
</g>
<!-- Node85831&#45;&gt;Node85815 -->
<g id="edge17" class="edge">
<title>Node85831&#45;&gt;Node85815</title>
<path fill="none" stroke="#191970" d="M415.5078,-199.1037C420.1816,-197.3193 424.7329,-195.2951 429,-193 448.1156,-182.7188 446.2704,-170.9687 465,-160 475.3609,-153.9323 487.4593,-149.1646 498.793,-145.5329"/>
<polygon fill="#191970" stroke="#191970" points="414.1154,-195.8811 405.7943,-202.4393 416.3889,-202.5017 414.1154,-195.8811"/>
</g>
<!-- Node85832&#45;&gt;Node85820 -->
<g id="edge26" class="edge">
<title>Node85832&#45;&gt;Node85820</title>
<path fill="none" stroke="#191970" d="M390.3155,-339.6978C403.959,-346.2293 418.5854,-355.2336 429,-367 458.1014,-399.8787 430.6782,-431.6154 465,-459 494.6415,-482.6503 597.296,-491.6569 662.3784,-495.0327"/>
<polygon fill="#191970" stroke="#191970" points="391.648,-336.4597 381.0908,-335.5675 388.7874,-342.8485 391.648,-336.4597"/>
</g>
<!-- Node85832&#45;&gt;Node85826 -->
<g id="edge27" class="edge">
<title>Node85832&#45;&gt;Node85826</title>
<path fill="none" stroke="#191970" d="M422.4273,-311.6594C424.7276,-310.2464 426.9293,-308.6976 429,-307 457.9042,-283.3043 433.4172,-250.9866 465,-231 542.1288,-182.1905 658.4585,-236.2297 701.3528,-259.4492"/>
<polygon fill="#191970" stroke="#191970" points="420.4109,-308.7616 413.1346,-316.4627 423.6252,-314.98 420.4109,-308.7616"/>
</g>
<!-- Node85833 -->
<g id="node17" class="node">
<title>Node85833</title>
<g id="a_node17"><a xlink:href="quickjs-libc_8c.html#a5cc3e22713f1916d49867f60a7375505" target="_top" xlink:title="js_module_set_import_meta">
<polygon fill="none" stroke="#ff0000" points="468.5,-392.5 468.5,-411.5 607.5,-411.5 607.5,-392.5 468.5,-392.5"/>
<text text-anchor="middle" x="538" y="-399.5" font-family="Helvetica,sans-Serif" font-size="10.00" fill="#000000">js_module_set_import_meta</text>
</a>
</g>
</g>
<!-- Node85832&#45;&gt;Node85833 -->
<g id="edge19" class="edge">
<title>Node85832&#45;&gt;Node85833</title>
<path fill="none" stroke="#191970" d="M379.6686,-340.4153C407.1641,-355.1241 448.304,-376.6642 465,-383 474.5502,-386.6241 485.0577,-389.8037 495.0525,-392.4731"/>
<polygon fill="#191970" stroke="#191970" points="381.0408,-337.1795 370.5745,-335.5336 377.73,-343.3471 381.0408,-337.1795"/>
</g>
<!-- Node85838 -->
<g id="node18" class="node">
<title>Node85838</title>
<g id="a_node18"><a xlink:href="quickjs-libc_8c.html#a7aebce2172c6aa4a6645aef600a69e6b" target="_top" xlink:title="js_std_urlGet">
<polygon fill="none" stroke="#000000" points="501,-354.5 501,-373.5 575,-373.5 575,-354.5 501,-354.5"/>
<text text-anchor="middle" x="538" y="-361.5" font-family="Helvetica,sans-Serif" font-size="10.00" fill="#000000">js_std_urlGet</text>
</a>
</g>
</g>
<!-- Node85832&#45;&gt;Node85838 -->
<g id="edge20" class="edge">
<title>Node85832&#45;&gt;Node85838</title>
<path fill="none" stroke="#191970" d="M409.5081,-337.6071C439.2064,-343.7073 474.7693,-351.0121 500.9447,-356.3886"/>
<polygon fill="#191970" stroke="#191970" points="410.1831,-334.1727 399.6833,-335.589 408.7746,-341.0296 410.1831,-334.1727"/>
</g>
<!-- Node85839 -->
<g id="node19" class="node">
<title>Node85839</title>
<g id="a_node19"><a xlink:href="quickjs-libc_8c.html#a9fa4c190ba56314c7ed9b00bbc7ad0f9" target="_top" xlink:title="handle_posted_message">
<polygon fill="none" stroke="#000000" points="475.5,-278.5 475.5,-297.5 600.5,-297.5 600.5,-278.5 475.5,-278.5"/>
<text text-anchor="middle" x="538" y="-285.5" font-family="Helvetica,sans-Serif" font-size="10.00" fill="#000000">handle_posted_message</text>
</a>
</g>
</g>
<!-- Node85832&#45;&gt;Node85839 -->
<g id="edge21" class="edge">
<title>Node85832&#45;&gt;Node85839</title>
<path fill="none" stroke="#191970" d="M409.52,-314.3905C435.8312,-308.986 466.7435,-302.6365 491.6524,-297.5201"/>
<polygon fill="#191970" stroke="#191970" points="408.7746,-310.9704 399.6833,-316.411 410.183,-317.8273 408.7746,-310.9704"/>
</g>
<!-- Node85840 -->
<g id="node20" class="node">
<title>Node85840</title>
<g id="a_node20"><a xlink:href="quickjs-libc_8c.html#a0142166ddf6e134f89207c3ee3c7572c" target="_top" xlink:title="js_os_stat">
<polygon fill="none" stroke="#000000" points="507,-240.5 507,-259.5 569,-259.5 569,-240.5 507,-240.5"/>
<text text-anchor="middle" x="538" y="-247.5" font-family="Helvetica,sans-Serif" font-size="10.00" fill="#000000">js_os_stat</text>
</a>
</g>
</g>
<!-- Node85832&#45;&gt;Node85840 -->
<g id="edge22" class="edge">
<title>Node85832&#45;&gt;Node85840</title>
<path fill="none" stroke="#191970" d="M416.7332,-313.0118C420.9972,-311.2542 425.1301,-309.2607 429,-307 449.088,-295.2652 444.9688,-280.8316 465,-269 477.6289,-261.5406 493.1802,-256.9715 506.6795,-254.1914"/>
<polygon fill="#191970" stroke="#191970" points="415.4224,-309.7645 407.24,-316.495 417.8337,-316.3361 415.4224,-309.7645"/>
</g>
<!-- Node85841 -->
<g id="node21" class="node">
<title>Node85841</title>
<g id="a_node21"><a xlink:href="quickjs_8c.html#acd5457d29e9641ae5e3a1d778f94bd0e" target="_top" xlink:title="JS_NewGlobalCConstructor2">
<polygon fill="none" stroke="#ff0000" points="465,-316.5 465,-335.5 611,-335.5 611,-316.5 465,-316.5"/>
<text text-anchor="middle" x="538" y="-323.5" font-family="Helvetica,sans-Serif" font-size="10.00" fill="#000000">JS_NewGlobalCConstructor2</text>
</a>
</g>
</g>
<!-- Node85832&#45;&gt;Node85841 -->
<g id="edge23" class="edge">
<title>Node85832&#45;&gt;Node85841</title>
<path fill="none" stroke="#191970" d="M431.642,-326C442.6523,-326 453.9306,-326 464.8338,-326"/>
<polygon fill="#191970" stroke="#191970" points="431.6243,-322.5001 421.6243,-326 431.6242,-329.5001 431.6243,-322.5001"/>
</g>
<!-- Node85844 -->
<g id="node22" class="node">
<title>Node85844</title>
<g id="a_node22"><a xlink:href="quickjs_8c.html#a9eb2d90f27f684820f9de13189502b7c" target="_top" xlink:title="js_regexp_exec">
<polygon fill="none" stroke="#ff0000" points="495.5,-430.5 495.5,-449.5 580.5,-449.5 580.5,-430.5 495.5,-430.5"/>
<text text-anchor="middle" x="538" y="-437.5" font-family="Helvetica,sans-Serif" font-size="10.00" fill="#000000">js_regexp_exec</text>
</a>
</g>
</g>
<!-- Node85832&#45;&gt;Node85844 -->
<g id="edge25" class="edge">
<title>Node85832&#45;&gt;Node85844</title>
<path fill="none" stroke="#191970" d="M386.8755,-339.8675C400.9183,-346.6808 416.7526,-355.8448 429,-367 450.3248,-386.423 441.5025,-404.2707 465,-421 473.8546,-427.3042 484.6412,-431.5177 495.1762,-434.3336"/>
<polygon fill="#191970" stroke="#191970" points="388.051,-336.5549 377.5058,-335.5305 385.1106,-342.9073 388.051,-336.5549"/>
</g>
<!-- Node85841&#45;&gt;Node85826 -->
<g id="edge24" class="edge">
<title>Node85841&#45;&gt;Node85826</title>
<path fill="none" stroke="#191970" d="M586.9146,-313.8941C594.994,-311.7156 603.2569,-309.3777 611,-307 639.4554,-298.262 671.5693,-286.6114 693.1257,-278.5241"/>
<polygon fill="#191970" stroke="#191970" points="585.9702,-310.5235 577.1977,-316.4643 587.7602,-317.2907 585.9702,-310.5235"/>
</g>
<!-- Node86418&#45;&gt;Node85801 -->
<g id="edge31" class="edge">
<title>Node86418&#45;&gt;Node85801</title>
<path fill="none" stroke="#191970" d="M231.433,-501.7526C256.3194,-507.1258 285.4188,-513.4086 308.9071,-518.4799"/>
<polygon fill="#191970" stroke="#191970" points="231.9257,-498.2784 221.4122,-499.589 230.4483,-505.1207 231.9257,-498.2784"/>
</g>
<!-- Node85995&#45;&gt;Node85826 -->
<g id="edge34" class="edge">
<title>Node85995&#45;&gt;Node85826</title>
<path fill="none" stroke="#191970" d="M411.686,-274.6412C417.9033,-271.7569 423.832,-268.2538 429,-264 454.7982,-242.7657 436.268,-215.0563 465,-198 520.7979,-164.8765 548.8751,-179.2633 611,-198 651.3409,-210.1667 690.4372,-243.0677 708.1386,-259.456"/>
<polygon fill="#191970" stroke="#191970" points="410.3492,-271.4065 402.4254,-278.4395 413.0056,-277.8828 410.3492,-271.4065"/>
</g>
<!-- Node86423&#45;&gt;Node85813 -->
<g id="edge36" class="edge">
<title>Node86423&#45;&gt;Node85813</title>
<path fill="none" stroke="#191970" d="M409.52,-124.3905C435.8312,-118.986 466.7435,-112.6365 491.6524,-107.5201"/>
<polygon fill="#191970" stroke="#191970" points="408.7746,-120.9704 399.6833,-126.411 410.183,-127.8273 408.7746,-120.9704"/>
</g>
<!-- Node86423&#45;&gt;Node85815 -->
<g id="edge37" class="edge">
<title>Node86423&#45;&gt;Node85815</title>
<path fill="none" stroke="#191970" d="M409.7091,-136C435.5276,-136 465.7445,-136 490.3654,-136"/>
<polygon fill="#191970" stroke="#191970" points="409.6833,-132.5001 399.6833,-136 409.6833,-139.5001 409.6833,-132.5001"/>
</g>
</g>
</svg>
        <g id="navigator" transform="translate(0 0)" fill="#404254">
                <rect fill="#f2f5e9" fill-opacity="0.5" stroke="#606060" stroke-width=".5" x="0" y="0" width="60" height="60"/>
                <use id="zoomplus" xlink:href="#zoomPlus" x="17" y="9" onmousedown="handleZoom(evt,'in')"/>
                <use id="zoomminus" xlink:href="#zoomMin" x="42" y="9" onmousedown="handleZoom(evt,'out')"/>
                <use id="reset" xlink:href="#resetDef" x="30" y="36" onmousedown="handleReset()"/>
                <g id="arrowUp" xlink:href="#dirArrow" transform="translate(30 24)" onmousedown="handlePan(0,-1)">
                  <use xlink:href="#rim" fill="#404040">
                        <set attributeName="fill" to="#808080" begin="arrowUp.mouseover" end="arrowUp.mouseout"/>
                  </use>
                  <path fill="none" stroke="white" stroke-width="1.5" d="M0,-3.0v7 M-2.5,-0.5L0,-3.0L2.5,-0.5"/>
                </g>
                <g id="arrowRight" xlink:href="#dirArrow" transform="rotate(90) translate(36 -43)" onmousedown="handlePan(1,0)">
                  <use xlink:href="#rim" fill="#404040">
                        <set attributeName="fill" to="#808080" begin="arrowRight.mouseover" end="arrowRight.mouseout"/>
                  </use>
                  <path fill="none" stroke="white" stroke-width="1.5" d="M0,-3.0v7 M-2.5,-0.5L0,-3.0L2.5,-0.5"/>
                </g>
                <g id="arrowDown" xlink:href="#dirArrow" transform="rotate(180) translate(-30 -48)" onmousedown="handlePan(0,1)">
                  <use xlink:href="#rim" fill="#404040">
                        <set attributeName="fill" to="#808080" begin="arrowDown.mouseover" end="arrowDown.mouseout"/>
                  </use>
                  <path fill="none" stroke="white" stroke-width="1.5" d="M0,-3.0v7 M-2.5,-0.5L0,-3.0L2.5,-0.5"/>
                </g>
                <g id="arrowLeft" xlink:href="#dirArrow" transform="rotate(270) translate(-36 17)" onmousedown="handlePan(-1,0)">
                  <use xlink:href="#rim" fill="#404040">
                        <set attributeName="fill" to="#808080" begin="arrowLeft.mouseover" end="arrowLeft.mouseout"/>
                  </use>
                  <path fill="none" stroke="white" stroke-width="1.5" d="M0,-3.0v7 M-2.5,-0.5L0,-3.0L2.5,-0.5"/>
                </g>
        </g>
        <svg viewBox="0 0 15 15" width="100%" height="30px" preserveAspectRatio="xMaxYMin meet">
         <g id="arrow_out" transform="scale(0.3 0.3)">
          <a xlink:href="quickjs_8c_aa2ef5af1544a3012f91a80c98c326b8f_icgraph_org.svg" target="_base">
           <rect id="button" ry="5" rx="5" y="6" x="6" height="38" width="38"
                fill="#f2f5e9" fill-opacity="0.5" stroke="#606060" stroke-width="1.0"/>
           <path id="arrow"
             d="M 11.500037,31.436501 C 11.940474,20.09759 22.043105,11.32322 32.158766,21.979434 L 37.068811,17.246167 C 37.068811,17.246167 37.088388,32 37.088388,32 L 22.160133,31.978069 C 22.160133,31.978069 26.997745,27.140456 26.997745,27.140456 C 18.528582,18.264221 13.291696,25.230495 11.500037,31.436501 z"
             style="fill:#404040;"/>
          </a>
         </g>
        </svg>
</svg>
