<?xml version="1.0" encoding="UTF-8" standalone="no"?>
<!DOCTYPE svg PUBLIC "-//W3C//DTD SVG 1.1//EN"
 "http://www.w3.org/Graphics/SVG/1.1/DTD/svg11.dtd">
<!-- Generated by graphviz version 2.40.1 (20161225.0304)
 -->
<!-- Title: add_req_module_entry Pages: 1 -->
<svg width="479pt" height="85pt"
 viewBox="0.00 0.00 479.00 85.00" xmlns="http://www.w3.org/2000/svg" xmlns:xlink="http://www.w3.org/1999/xlink">
<g id="graph0" class="graph" transform="scale(1 1) rotate(0) translate(4 81)">
<title>add_req_module_entry</title>
<!-- Node331937 -->
<g id="node1" class="node">
<title>Node331937</title>
<polygon fill="#bfbfbf" stroke="#000000" points="0,-38.5 0,-57.5 115,-57.5 115,-38.5 0,-38.5"/>
<text text-anchor="middle" x="57.5" y="-45.5" font-family="Helvetica,sans-Serif" font-size="10.00" fill="#000000">add_req_module_entry</text>
</g>
<!-- Node331938 -->
<g id="node2" class="node">
<title>Node331938</title>
<g id="a_node2"><a xlink:href="quickjs_8c.html#abbf44eaeace1104a6bef718fbf5700fe" target="_top" xlink:title="JS_DupAtom">
<polygon fill="none" stroke="#000000" points="155,-57.5 155,-76.5 230,-76.5 230,-57.5 155,-57.5"/>
<text text-anchor="middle" x="192.5" y="-64.5" font-family="Helvetica,sans-Serif" font-size="10.00" fill="#000000">JS_DupAtom</text>
</a>
</g>
</g>
<!-- Node331937&#45;&gt;Node331938 -->
<g id="edge1" class="edge">
<title>Node331937&#45;&gt;Node331938</title>
<path fill="none" stroke="#191970" d="M115.1437,-56.1128C125.038,-57.5054 135.221,-58.9385 144.8177,-60.2892"/>
<polygon fill="#191970" stroke="#191970" points="144.5692,-63.7886 154.9594,-61.7165 145.5448,-56.8569 144.5692,-63.7886"/>
</g>
<!-- Node331940 -->
<g id="node4" class="node">
<title>Node331940</title>
<g id="a_node4"><a xlink:href="quickjs_8c.html#afa610f3175e9cb11fdceac95071099b5" target="_top" xlink:title="js_resize_array">
<polygon fill="none" stroke="#000000" points="151,-19.5 151,-38.5 234,-38.5 234,-19.5 151,-19.5"/>
<text text-anchor="middle" x="192.5" y="-26.5" font-family="Helvetica,sans-Serif" font-size="10.00" fill="#000000">js_resize_array</text>
</a>
</g>
</g>
<!-- Node331937&#45;&gt;Node331940 -->
<g id="edge3" class="edge">
<title>Node331937&#45;&gt;Node331940</title>
<path fill="none" stroke="#191970" d="M115.1437,-39.8872C123.7033,-38.6825 132.4789,-37.4474 140.904,-36.2617"/>
<polygon fill="#191970" stroke="#191970" points="141.5542,-39.7047 150.9688,-34.8451 140.5786,-32.773 141.5542,-39.7047"/>
</g>
<!-- Node331939 -->
<g id="node3" class="node">
<title>Node331939</title>
<g id="a_node3"><a xlink:href="quickjs_8c.html#a7f6796ee7a195631366f57c713a33f65" target="_top" xlink:title="__JS_AtomIsConst">
<polygon fill="none" stroke="#000000" points="270,-57.5 270,-76.5 372,-76.5 372,-57.5 270,-57.5"/>
<text text-anchor="middle" x="321" y="-64.5" font-family="Helvetica,sans-Serif" font-size="10.00" fill="#000000">__JS_AtomIsConst</text>
</a>
</g>
</g>
<!-- Node331938&#45;&gt;Node331939 -->
<g id="edge2" class="edge">
<title>Node331938&#45;&gt;Node331939</title>
<path fill="none" stroke="#191970" d="M230.013,-67C239.3469,-67 249.5972,-67 259.7475,-67"/>
<polygon fill="#191970" stroke="#191970" points="259.8269,-70.5001 269.8269,-67 259.8268,-63.5001 259.8269,-70.5001"/>
</g>
<!-- Node331941 -->
<g id="node5" class="node">
<title>Node331941</title>
<g id="a_node5"><a xlink:href="quickjs_8c.html#a0eda61158c0a22ef337abc3a035bca33" target="_top" xlink:title="js_realloc_array">
<polygon fill="none" stroke="#000000" points="278.5,-19.5 278.5,-38.5 363.5,-38.5 363.5,-19.5 278.5,-19.5"/>
<text text-anchor="middle" x="321" y="-26.5" font-family="Helvetica,sans-Serif" font-size="10.00" fill="#000000">js_realloc_array</text>
</a>
</g>
</g>
<!-- Node331940&#45;&gt;Node331941 -->
<g id="edge4" class="edge">
<title>Node331940&#45;&gt;Node331941</title>
<path fill="none" stroke="#191970" d="M234.2203,-29C244.9929,-29 256.7332,-29 267.9973,-29"/>
<polygon fill="#191970" stroke="#191970" points="268.1667,-32.5001 278.1667,-29 268.1667,-25.5001 268.1667,-32.5001"/>
</g>
<!-- Node331942 -->
<g id="node6" class="node">
<title>Node331942</title>
<g id="a_node6"><a xlink:href="quickjs_8c.html#a1c31248142879982abb1595f97817cd9" target="_top" xlink:title="js_realloc2">
<polygon fill="none" stroke="#ff0000" points="408,-38.5 408,-57.5 471,-57.5 471,-38.5 408,-38.5"/>
<text text-anchor="middle" x="439.5" y="-45.5" font-family="Helvetica,sans-Serif" font-size="10.00" fill="#000000">js_realloc2</text>
</a>
</g>
</g>
<!-- Node331941&#45;&gt;Node331942 -->
<g id="edge5" class="edge">
<title>Node331941&#45;&gt;Node331942</title>
<path fill="none" stroke="#191970" d="M363.7812,-35.8594C374.9477,-37.6498 386.962,-39.5762 398.0577,-41.3552"/>
<polygon fill="#191970" stroke="#191970" points="397.5107,-44.8122 407.9387,-42.9395 398.619,-37.9004 397.5107,-44.8122"/>
</g>
<!-- Node331947 -->
<g id="node7" class="node">
<title>Node331947</title>
<g id="a_node7"><a xlink:href="cutils_8h.html#a94f155fcce337a2b9d4719ed8042cbbe" target="_top" xlink:title="max_int">
<polygon fill="none" stroke="#000000" points="414,-.5 414,-19.5 465,-19.5 465,-.5 414,-.5"/>
<text text-anchor="middle" x="439.5" y="-7.5" font-family="Helvetica,sans-Serif" font-size="10.00" fill="#000000">max_int</text>
</a>
</g>
</g>
<!-- Node331941&#45;&gt;Node331947 -->
<g id="edge6" class="edge">
<title>Node331941&#45;&gt;Node331947</title>
<path fill="none" stroke="#191970" d="M363.7812,-22.1406C376.833,-20.0479 391.0429,-17.7695 403.5906,-15.7576"/>
<polygon fill="#191970" stroke="#191970" points="404.3579,-19.1794 413.6777,-14.1403 403.2496,-12.2677 404.3579,-19.1794"/>
</g>
</g>
</svg>
