<?xml version="1.0" encoding="UTF-8" standalone="no"?>
<!DOCTYPE svg PUBLIC "-//W3C//DTD SVG 1.1//EN"
 "http://www.w3.org/Graphics/SVG/1.1/DTD/svg11.dtd">
<!-- Generated by graphviz version 2.40.1 (20161225.0304)
 -->
<!-- Title: js_define_var Pages: 1 -->
<svg width="607pt" height="327pt"
 viewBox="0.00 0.00 607.00 326.56" xmlns="http://www.w3.org/2000/svg" xmlns:xlink="http://www.w3.org/1999/xlink">
<g id="graph0" class="graph" transform="scale(1 1) rotate(0) translate(4 322.5617)">
<title>js_define_var</title>
<!-- Node323979 -->
<g id="node1" class="node">
<title>Node323979</title>
<polygon fill="#bfbfbf" stroke="#000000" points="0,-145.8598 0,-164.8598 74,-164.8598 74,-145.8598 0,-145.8598"/>
<text text-anchor="middle" x="37" y="-152.8598" font-family="Helvetica,sans-Serif" font-size="10.00" fill="#000000">js_define_var</text>
</g>
<!-- Node323980 -->
<g id="node2" class="node">
<title>Node323980</title>
<g id="a_node2"><a xlink:href="quickjs_8c.html#a99125693fff3fd8277f544b15109354b" target="_top" xlink:title="define_var">
<polygon fill="none" stroke="#000000" points="110,-145.8598 110,-164.8598 172,-164.8598 172,-145.8598 110,-145.8598"/>
<text text-anchor="middle" x="141" y="-152.8598" font-family="Helvetica,sans-Serif" font-size="10.00" fill="#000000">define_var</text>
</a>
</g>
</g>
<!-- Node323979&#45;&gt;Node323980 -->
<g id="edge1" class="edge">
<title>Node323979&#45;&gt;Node323980</title>
<path fill="none" stroke="#191970" d="M74.2526,-155.3598C82.54,-155.3598 91.3721,-155.3598 99.8073,-155.3598"/>
<polygon fill="#191970" stroke="#191970" points="99.8362,-158.8599 109.8362,-155.3598 99.8362,-151.8599 99.8362,-158.8599"/>
</g>
<!-- Node323981 -->
<g id="node3" class="node">
<title>Node323981</title>
<g id="a_node3"><a xlink:href="quickjs_8c.html#ae7344d4ed92b31de7c7ef8716b911cb8" target="_top" xlink:title="add_global_var">
<polygon fill="none" stroke="#000000" points="381.5,-297.8598 381.5,-316.8598 463.5,-316.8598 463.5,-297.8598 381.5,-297.8598"/>
<text text-anchor="middle" x="422.5" y="-304.8598" font-family="Helvetica,sans-Serif" font-size="10.00" fill="#000000">add_global_var</text>
</a>
</g>
</g>
<!-- Node323980&#45;&gt;Node323981 -->
<g id="edge2" class="edge">
<title>Node323980&#45;&gt;Node323981</title>
<path fill="none" stroke="#191970" d="M142.6257,-165.1759C147.401,-190.5566 163.9296,-258.4518 208,-288.3598 256.0282,-320.9537 324.6964,-321.0012 371.3039,-315.9911"/>
<polygon fill="#191970" stroke="#191970" points="371.9656,-319.4371 381.4817,-314.7795 371.138,-312.4862 371.9656,-319.4371"/>
</g>
<!-- Node323992 -->
<g id="node6" class="node">
<title>Node323992</title>
<g id="a_node6"><a xlink:href="quickjs_8c.html#a9a006fc2eb9bbbc399c396d7a1e8d18b" target="_top" xlink:title="add_scope_var">
<polygon fill="none" stroke="#000000" points="227,-259.8598 227,-278.8598 310,-278.8598 310,-259.8598 227,-259.8598"/>
<text text-anchor="middle" x="268.5" y="-266.8598" font-family="Helvetica,sans-Serif" font-size="10.00" fill="#000000">add_scope_var</text>
</a>
</g>
</g>
<!-- Node323980&#45;&gt;Node323992 -->
<g id="edge5" class="edge">
<title>Node323980&#45;&gt;Node323992</title>
<path fill="none" stroke="#191970" d="M145.7558,-164.872C155.2361,-182.9452 178.1683,-222.4806 208,-245.3598 213.3616,-249.4718 219.5194,-252.9723 225.8088,-255.9226"/>
<polygon fill="#191970" stroke="#191970" points="224.4689,-259.1561 235.0404,-259.8586 227.2143,-252.717 224.4689,-259.1561"/>
</g>
<!-- Node323993 -->
<g id="node7" class="node">
<title>Node323993</title>
<g id="a_node7"><a xlink:href="quickjs_8c.html#ab2e0855c4317f8e3b05c0a091bc43a29" target="_top" xlink:title="add_var">
<polygon fill="none" stroke="#ff0000" points="397,-259.8598 397,-278.8598 448,-278.8598 448,-259.8598 397,-259.8598"/>
<text text-anchor="middle" x="422.5" y="-266.8598" font-family="Helvetica,sans-Serif" font-size="10.00" fill="#000000">add_var</text>
</a>
</g>
</g>
<!-- Node323980&#45;&gt;Node323993 -->
<g id="edge9" class="edge">
<title>Node323980&#45;&gt;Node323993</title>
<path fill="none" stroke="#191970" d="M149.5634,-164.9275C161.4495,-177.6263 184.1879,-199.8924 208,-212.3598 239.0425,-228.6129 334.2431,-250.5421 386.7713,-261.8786"/>
<polygon fill="#191970" stroke="#191970" points="386.1651,-265.3281 396.6763,-263.9999 387.631,-258.4833 386.1651,-265.3281"/>
</g>
<!-- Node323994 -->
<g id="node8" class="node">
<title>Node323994</title>
<g id="a_node8"><a xlink:href="quickjs_8c.html#aa26b47ba93d2f7737148d89fa85ba21f" target="_top" xlink:title="find_arg">
<polygon fill="none" stroke="#000000" points="397,-164.8598 397,-183.8598 448,-183.8598 448,-164.8598 397,-164.8598"/>
<text text-anchor="middle" x="422.5" y="-171.8598" font-family="Helvetica,sans-Serif" font-size="10.00" fill="#000000">find_arg</text>
</a>
</g>
</g>
<!-- Node323980&#45;&gt;Node323994 -->
<g id="edge10" class="edge">
<title>Node323980&#45;&gt;Node323994</title>
<path fill="none" stroke="#191970" d="M172.201,-157.4657C224.9176,-161.0239 331.291,-168.2036 386.861,-171.9543"/>
<polygon fill="#191970" stroke="#191970" points="386.7313,-175.4534 396.9443,-172.6349 387.2028,-168.4693 386.7313,-175.4534"/>
</g>
<!-- Node323995 -->
<g id="node9" class="node">
<title>Node323995</title>
<g id="a_node9"><a xlink:href="quickjs_8c.html#a87911bf8f73f022d21edeaca80361ce2" target="_top" xlink:title="find_global_var">
<polygon fill="none" stroke="#000000" points="516.5,-88.8598 516.5,-107.8598 598.5,-107.8598 598.5,-88.8598 516.5,-88.8598"/>
<text text-anchor="middle" x="557.5" y="-95.8598" font-family="Helvetica,sans-Serif" font-size="10.00" fill="#000000">find_global_var</text>
</a>
</g>
</g>
<!-- Node323980&#45;&gt;Node323995 -->
<g id="edge11" class="edge">
<title>Node323980&#45;&gt;Node323995</title>
<path fill="none" stroke="#191970" d="M172.3052,-151.0755C243.7316,-141.3005 419.2734,-117.2768 506.541,-105.3338"/>
<polygon fill="#191970" stroke="#191970" points="507.0467,-108.7973 516.4797,-103.9736 506.0975,-101.8619 507.0467,-108.7973"/>
</g>
<!-- Node323996 -->
<g id="node10" class="node">
<title>Node323996</title>
<g id="a_node10"><a xlink:href="quickjs_8c.html#a83749bc9db22260434eed3a360edc6c0" target="_top" xlink:title="find_lexical_decl">
<polygon fill="none" stroke="#000000" points="224,-69.8598 224,-88.8598 313,-88.8598 313,-69.8598 224,-69.8598"/>
<text text-anchor="middle" x="268.5" y="-76.8598" font-family="Helvetica,sans-Serif" font-size="10.00" fill="#000000">find_lexical_decl</text>
</a>
</g>
</g>
<!-- Node323980&#45;&gt;Node323996 -->
<g id="edge12" class="edge">
<title>Node323980&#45;&gt;Node323996</title>
<path fill="none" stroke="#191970" d="M151.6931,-145.4988C164.3771,-134.1873 186.5187,-115.6259 208,-103.3598 214.9685,-99.3807 222.7265,-95.7623 230.2998,-92.6108"/>
<polygon fill="#191970" stroke="#191970" points="231.7139,-95.8153 239.7204,-88.8765 229.1343,-89.3079 231.7139,-95.8153"/>
</g>
<!-- Node323998 -->
<g id="node12" class="node">
<title>Node323998</title>
<g id="a_node12"><a xlink:href="quickjs_8c.html#a17f57e818da8e28af51d672f9dd1e02b" target="_top" xlink:title="find_var">
<polygon fill="none" stroke="#000000" points="243,-183.8598 243,-202.8598 294,-202.8598 294,-183.8598 243,-183.8598"/>
<text text-anchor="middle" x="268.5" y="-190.8598" font-family="Helvetica,sans-Serif" font-size="10.00" fill="#000000">find_var</text>
</a>
</g>
</g>
<!-- Node323980&#45;&gt;Node323998 -->
<g id="edge15" class="edge">
<title>Node323980&#45;&gt;Node323998</title>
<path fill="none" stroke="#191970" d="M172.19,-164.6556C190.5626,-170.1314 213.8672,-177.0771 232.9499,-182.7645"/>
<polygon fill="#191970" stroke="#191970" points="232.1933,-186.1911 242.7764,-185.6932 234.1927,-179.4827 232.1933,-186.1911"/>
</g>
<!-- Node323999 -->
<g id="node13" class="node">
<title>Node323999</title>
<g id="a_node13"><a xlink:href="quickjs_8c.html#ad48dbcc587663ec98a4283179c2b96e9" target="_top" xlink:title="find_var_in_child_scope">
<polygon fill="none" stroke="#000000" points="208,-31.8598 208,-50.8598 329,-50.8598 329,-31.8598 208,-31.8598"/>
<text text-anchor="middle" x="268.5" y="-38.8598" font-family="Helvetica,sans-Serif" font-size="10.00" fill="#000000">find_var_in_child_scope</text>
</a>
</g>
</g>
<!-- Node323980&#45;&gt;Node323999 -->
<g id="edge17" class="edge">
<title>Node323980&#45;&gt;Node323999</title>
<path fill="none" stroke="#191970" d="M145.1845,-145.7003C153.9754,-126.5362 176.2095,-83.5592 208,-60.3598 210.6679,-58.4129 213.5414,-56.6613 216.5356,-55.0861"/>
<polygon fill="#191970" stroke="#191970" points="218.1446,-58.1993 225.7956,-50.8704 215.2441,-51.8284 218.1446,-58.1993"/>
</g>
<!-- Node324000 -->
<g id="node14" class="node">
<title>Node324000</title>
<g id="a_node14"><a xlink:href="quickjs_8c.html#a58d52131a3c2240818c58fd0f18bf700" target="_top" xlink:title="is_child_scope">
<polygon fill="none" stroke="#000000" points="382,-12.8598 382,-31.8598 463,-31.8598 463,-12.8598 382,-12.8598"/>
<text text-anchor="middle" x="422.5" y="-19.8598" font-family="Helvetica,sans-Serif" font-size="10.00" fill="#000000">is_child_scope</text>
</a>
</g>
</g>
<!-- Node323980&#45;&gt;Node324000 -->
<g id="edge19" class="edge">
<title>Node323980&#45;&gt;Node324000</title>
<path fill="none" stroke="#191970" d="M142.4159,-145.6922C146.7497,-120.0633 162.4317,-50.4281 208,-22.3598 260.6179,10.0508 335.1537,.4417 381.0806,-10.3288"/>
<polygon fill="#191970" stroke="#191970" points="380.4408,-13.7758 390.9882,-12.7747 382.1186,-6.9799 380.4408,-13.7758"/>
</g>
<!-- Node323982 -->
<g id="node4" class="node">
<title>Node323982</title>
<g id="a_node4"><a xlink:href="quickjs_8c.html#abbf44eaeace1104a6bef718fbf5700fe" target="_top" xlink:title="JS_DupAtom">
<polygon fill="none" stroke="#ff0000" points="520,-259.8598 520,-278.8598 595,-278.8598 595,-259.8598 520,-259.8598"/>
<text text-anchor="middle" x="557.5" y="-266.8598" font-family="Helvetica,sans-Serif" font-size="10.00" fill="#000000">JS_DupAtom</text>
</a>
</g>
</g>
<!-- Node323981&#45;&gt;Node323982 -->
<g id="edge3" class="edge">
<title>Node323981&#45;&gt;Node323982</title>
<path fill="none" stroke="#191970" d="M456.5662,-297.7708C473.9135,-292.8879 495.2022,-286.8955 513.7492,-281.6748"/>
<polygon fill="#191970" stroke="#191970" points="514.7671,-285.0244 523.4447,-278.9457 512.8704,-278.2863 514.7671,-285.0244"/>
</g>
<!-- Node323984 -->
<g id="node5" class="node">
<title>Node323984</title>
<g id="a_node5"><a xlink:href="quickjs_8c.html#afa610f3175e9cb11fdceac95071099b5" target="_top" xlink:title="js_resize_array">
<polygon fill="none" stroke="#ff0000" points="516,-297.8598 516,-316.8598 599,-316.8598 599,-297.8598 516,-297.8598"/>
<text text-anchor="middle" x="557.5" y="-304.8598" font-family="Helvetica,sans-Serif" font-size="10.00" fill="#000000">js_resize_array</text>
</a>
</g>
</g>
<!-- Node323981&#45;&gt;Node323984 -->
<g id="edge4" class="edge">
<title>Node323981&#45;&gt;Node323984</title>
<path fill="none" stroke="#191970" d="M463.738,-307.3598C476.8376,-307.3598 491.5006,-307.3598 505.2691,-307.3598"/>
<polygon fill="#191970" stroke="#191970" points="505.5829,-310.8599 515.5829,-307.3598 505.5828,-303.8599 505.5829,-310.8599"/>
</g>
<!-- Node323992&#45;&gt;Node323993 -->
<g id="edge6" class="edge">
<title>Node323992&#45;&gt;Node323993</title>
<path fill="none" stroke="#191970" d="M310.1746,-269.3598C334.0133,-269.3598 363.6194,-269.3598 386.4508,-269.3598"/>
<polygon fill="#191970" stroke="#191970" points="386.7388,-272.8599 396.7388,-269.3598 386.7387,-265.8599 386.7388,-272.8599"/>
</g>
<!-- Node323993&#45;&gt;Node323982 -->
<g id="edge7" class="edge">
<title>Node323993&#45;&gt;Node323982</title>
<path fill="none" stroke="#191970" d="M448.2102,-269.3598C465.5532,-269.3598 488.9641,-269.3598 509.6695,-269.3598"/>
<polygon fill="#191970" stroke="#191970" points="509.8901,-272.8599 519.8901,-269.3598 509.89,-265.8599 509.8901,-272.8599"/>
</g>
<!-- Node323993&#45;&gt;Node323984 -->
<g id="edge8" class="edge">
<title>Node323993&#45;&gt;Node323984</title>
<path fill="none" stroke="#191970" d="M448.2102,-276.5968C466.7859,-281.8255 492.3228,-289.0136 514.0405,-295.1267"/>
<polygon fill="#191970" stroke="#191970" points="513.1371,-298.5084 523.7114,-297.8489 515.0338,-291.7703 513.1371,-298.5084"/>
</g>
<!-- Node323997 -->
<g id="node11" class="node">
<title>Node323997</title>
<g id="a_node11"><a xlink:href="quickjs_8c.html#a928ebc27e3c6cd81cef3ae8cd95acdcf" target="_top" xlink:title="find_lexical_global_var">
<polygon fill="none" stroke="#000000" points="365,-69.8598 365,-88.8598 480,-88.8598 480,-69.8598 365,-69.8598"/>
<text text-anchor="middle" x="422.5" y="-76.8598" font-family="Helvetica,sans-Serif" font-size="10.00" fill="#000000">find_lexical_global_var</text>
</a>
</g>
</g>
<!-- Node323996&#45;&gt;Node323997 -->
<g id="edge13" class="edge">
<title>Node323996&#45;&gt;Node323997</title>
<path fill="none" stroke="#191970" d="M313.0432,-79.3598C326.0529,-79.3598 340.5757,-79.3598 354.6816,-79.3598"/>
<polygon fill="#191970" stroke="#191970" points="354.8515,-82.8599 364.8515,-79.3598 354.8515,-75.8599 354.8515,-82.8599"/>
</g>
<!-- Node323997&#45;&gt;Node323995 -->
<g id="edge14" class="edge">
<title>Node323997&#45;&gt;Node323995</title>
<path fill="none" stroke="#191970" d="M480.1437,-87.4726C488.8052,-88.6916 497.6878,-89.9418 506.2047,-91.1405"/>
<polygon fill="#191970" stroke="#191970" points="505.9823,-94.6436 516.3725,-92.5715 506.9579,-87.7119 505.9823,-94.6436"/>
</g>
<!-- Node323998&#45;&gt;Node323994 -->
<g id="edge16" class="edge">
<title>Node323998&#45;&gt;Node323994</title>
<path fill="none" stroke="#191970" d="M294.2761,-190.1796C319.5593,-187.0603 358.3272,-182.2772 386.6171,-178.7869"/>
<polygon fill="#191970" stroke="#191970" points="387.4003,-182.2169 396.8965,-177.5187 386.5431,-175.2696 387.4003,-182.2169"/>
</g>
<!-- Node323999&#45;&gt;Node324000 -->
<g id="edge18" class="edge">
<title>Node323999&#45;&gt;Node324000</title>
<path fill="none" stroke="#191970" d="M329.3649,-33.8505C343.4341,-32.1147 358.2557,-30.286 371.835,-28.6107"/>
<polygon fill="#191970" stroke="#191970" points="372.4478,-32.0617 381.9439,-27.3635 371.5906,-25.1144 372.4478,-32.0617"/>
</g>
</g>
</svg>
