<?xml version="1.0" encoding="UTF-8" standalone="no"?>
<!DOCTYPE svg PUBLIC "-//W3C//DTD SVG 1.1//EN"
 "http://www.w3.org/Graphics/SVG/1.1/DTD/svg11.dtd">
<!-- Generated by graphviz version 2.40.1 (20161225.0304)
 -->
<!-- Title: typed_array_get_length Pages: 1 -->
<!--zoomable 969 -->
<svg id="main" version="1.1" xmlns="http://www.w3.org/2000/svg" xmlns:xlink="http://www.w3.org/1999/xlink" xml:space="preserve" onload="init(evt)">
<style type="text/css"><![CDATA[
.edge:hover path { stroke: red; }
.edge:hover polygon { stroke: red; fill: red; }
]]></style>
<script type="text/javascript"><![CDATA[
var edges = document.getElementsByTagName('g');
if (edges && edges.length) {
  for (var i=0;i<edges.length;i++) {
    if (edges[i].id.substr(0,4)=='edge') {
      edges[i].setAttribute('class','edge');
    }
  }
}
]]></script>
        <defs>
                <circle id="rim" cx="0" cy="0" r="7"/>
                <circle id="rim2" cx="0" cy="0" r="3.5"/>
                <g id="zoomPlus">
                        <use xlink:href="#rim" fill="#404040">
                                <set attributeName="fill" to="#808080" begin="zoomplus.mouseover" end="zoomplus.mouseout"/>
                        </use>
                        <path d="M-4,0h8M0,-4v8" fill="none" stroke="white" stroke-width="1.5" pointer-events="none"/>
                </g>
                <g id="zoomMin">
                        <use xlink:href="#rim" fill="#404040">
                                <set attributeName="fill" to="#808080" begin="zoomminus.mouseover" end="zoomminus.mouseout"/>
                        </use>
                        <path d="M-4,0h8" fill="none" stroke="white" stroke-width="1.5" pointer-events="none"/>
                </g>
                <g id="dirArrow">
                        <path fill="none" stroke="white" stroke-width="1.5" d="M0,-3.0v7 M-2.5,-0.5L0,-3.0L2.5,-0.5"/>
                </g>
               <g id="resetDef">
                       <use xlink:href="#rim2" fill="#404040">
                               <set attributeName="fill" to="#808080" begin="reset.mouseover" end="reset.mouseout"/>
                       </use>
               </g>
        </defs>

<script type="text/javascript">
var viewWidth = 815;
var viewHeight = 969;
var sectionId = 'dynsection-64';
</script>
<script xlink:href="svgpan.js"/>
<svg id="graph" class="graph">
<g id="viewport">
<title>typed_array_get_length</title>
<!-- Node22849 -->
<g id="node1" class="node">
<title>Node22849</title>
<polygon fill="#bfbfbf" stroke="#000000" points="0,-263 0,-282 118,-282 118,-263 0,-263"/>
<text text-anchor="middle" x="59" y="-270" font-family="Helvetica,sans-Serif" font-size="10.00" fill="#000000">typed_array_get_length</text>
</g>
<!-- Node22850 -->
<g id="node2" class="node">
<title>Node22850</title>
<g id="a_node2"><a xlink:href="quickjs_8c.html#ab50618f1bf78e444caa6da0e3e2785d7" target="_top" xlink:title="JS_DefineProperty">
<polygon fill="none" stroke="#000000" points="157.5,-282 157.5,-301 256.5,-301 256.5,-282 157.5,-282"/>
<text text-anchor="middle" x="207" y="-289" font-family="Helvetica,sans-Serif" font-size="10.00" fill="#000000">JS_DefineProperty</text>
</a>
</g>
</g>
<!-- Node22849&#45;&gt;Node22850 -->
<g id="edge1" class="edge">
<title>Node22849&#45;&gt;Node22850</title>
<path fill="none" stroke="#191970" d="M128.3911,-281.4083C138.0956,-282.6542 147.9062,-283.9136 157.1518,-285.1006"/>
<polygon fill="#191970" stroke="#191970" points="128.7088,-277.9205 118.3445,-280.1185 127.8174,-284.8635 128.7088,-277.9205"/>
</g>
<!-- Node22906 -->
<g id="node30" class="node">
<title>Node22906</title>
<g id="a_node30"><a xlink:href="quickjs_8c.html#a04f45f4b341a84aa1039cfd862adbcd2" target="_top" xlink:title="js_typed_array_slice">
<polygon fill="none" stroke="#000000" points="154,-244 154,-263 260,-263 260,-244 154,-244"/>
<text text-anchor="middle" x="207" y="-251" font-family="Helvetica,sans-Serif" font-size="10.00" fill="#000000">js_typed_array_slice</text>
</a>
</g>
</g>
<!-- Node22849&#45;&gt;Node22906 -->
<g id="edge47" class="edge">
<title>Node22849&#45;&gt;Node22906</title>
<path fill="none" stroke="#191970" d="M128.3451,-263.5976C136.9205,-262.4967 145.5796,-261.385 153.8593,-260.3221"/>
<polygon fill="#191970" stroke="#191970" points="127.8174,-260.1365 118.3445,-264.8815 128.7088,-267.0795 127.8174,-260.1365"/>
</g>
<!-- Node22851 -->
<g id="node3" class="node">
<title>Node22851</title>
<g id="a_node3"><a xlink:href="quickjs_8c.html#a638e637d492ee889691691baba33c4bd" target="_top" xlink:title="JS_SetPropertyGeneric">
<polygon fill="none" stroke="#000000" points="304,-890 304,-909 423,-909 423,-890 304,-890"/>
<text text-anchor="middle" x="363.5" y="-897" font-family="Helvetica,sans-Serif" font-size="10.00" fill="#000000">JS_SetPropertyGeneric</text>
</a>
</g>
</g>
<!-- Node22850&#45;&gt;Node22851 -->
<g id="edge2" class="edge">
<title>Node22850&#45;&gt;Node22851</title>
<path fill="none" stroke="#191970" d="M207.9568,-311.2091C212.5894,-400.1003 235.0119,-763.3947 296,-856.5 306.126,-871.9585 323.9496,-882.9609 338.7393,-889.9649"/>
<polygon fill="#191970" stroke="#191970" points="211.4487,-310.9582 207.4484,-301.1476 204.4576,-311.3115 211.4487,-310.9582"/>
</g>
<!-- Node22852 -->
<g id="node4" class="node">
<title>Node22852</title>
<g id="a_node4"><a xlink:href="quickjs_8c.html#ac2894ff4edcdb4e6841bcce9c76081e3" target="_top" xlink:title="JS_CallInternal">
<polygon fill="none" stroke="#ff0000" points="694.5,-605 694.5,-624 777.5,-624 777.5,-605 694.5,-605"/>
<text text-anchor="middle" x="736" y="-612" font-family="Helvetica,sans-Serif" font-size="10.00" fill="#000000">JS_CallInternal</text>
</a>
</g>
</g>
<!-- Node22850&#45;&gt;Node22852 -->
<g id="edge39" class="edge">
<title>Node22850&#45;&gt;Node22852</title>
<path fill="none" stroke="#191970" d="M207.5826,-311.1739C210.4779,-394.6431 226.1194,-718.2802 296,-785.5 349.4697,-836.9338 565.1549,-847.2922 629,-809.5 700.7779,-767.0121 727.6054,-657.3993 734.2366,-624.1826"/>
<polygon fill="#191970" stroke="#191970" points="211.0764,-310.9231 207.2543,-301.0417 204.0801,-311.1498 211.0764,-310.9231"/>
</g>
<!-- Node22974 -->
<g id="node7" class="node">
<title>Node22974</title>
<g id="a_node7"><a xlink:href="quickjs_8c.html#ad7f03358a8088ca920ab308225c6b2e6" target="_top" xlink:title="JS_SetPropertyInternal">
<polygon fill="none" stroke="#ff0000" points="304.5,-757 304.5,-776 422.5,-776 422.5,-757 304.5,-757"/>
<text text-anchor="middle" x="363.5" y="-764" font-family="Helvetica,sans-Serif" font-size="10.00" fill="#000000">JS_SetPropertyInternal</text>
</a>
</g>
</g>
<!-- Node22850&#45;&gt;Node22974 -->
<g id="edge7" class="edge">
<title>Node22850&#45;&gt;Node22974</title>
<path fill="none" stroke="#191970" d="M213.5358,-311.337C240.276,-392.4974 340.8473,-697.7457 360.2493,-756.6335"/>
<polygon fill="#191970" stroke="#191970" points="216.7223,-309.8236 210.2687,-301.4211 210.0738,-312.0141 216.7223,-309.8236"/>
</g>
<!-- Node23422 -->
<g id="node9" class="node">
<title>Node23422</title>
<g id="a_node9"><a xlink:href="quickjs_8c.html#a0a8765bd4012467d9139bc24aabcb3ca" target="_top" xlink:title="JS_DefinePropertyValue">
<polygon fill="none" stroke="#ff0000" points="301.5,-491 301.5,-510 425.5,-510 425.5,-491 301.5,-491"/>
<text text-anchor="middle" x="363.5" y="-498" font-family="Helvetica,sans-Serif" font-size="10.00" fill="#000000">JS_DefinePropertyValue</text>
</a>
</g>
</g>
<!-- Node22850&#45;&gt;Node23422 -->
<g id="edge10" class="edge">
<title>Node22850&#45;&gt;Node23422</title>
<path fill="none" stroke="#191970" d="M220.1332,-309.0389C251.8721,-351.4251 331.9231,-458.3302 356.327,-490.9207"/>
<polygon fill="#191970" stroke="#191970" points="222.9267,-306.9301 214.1311,-301.0234 217.3234,-311.1259 222.9267,-306.9301"/>
</g>
<!-- Node22885 -->
<g id="node17" class="node">
<title>Node22885</title>
<g id="a_node17"><a xlink:href="quickjs_8c.html#a4c9489297c684663f30e517204a9ec14" target="_top" xlink:title="JS_AddIntrinsicBaseObjects">
<polygon fill="none" stroke="#ff0000" points="665,-206 665,-225 807,-225 807,-206 665,-206"/>
<text text-anchor="middle" x="736" y="-213" font-family="Helvetica,sans-Serif" font-size="10.00" fill="#000000">JS_AddIntrinsicBaseObjects</text>
</a>
</g>
</g>
<!-- Node22850&#45;&gt;Node22885 -->
<g id="edge46" class="edge">
<title>Node22850&#45;&gt;Node22885</title>
<path fill="none" stroke="#191970" d="M266.6811,-291.5348C313.8203,-289.2467 379.9384,-280.7508 431,-253.5 451.5245,-242.5464 445.6287,-224.6925 467,-215.5 542.5059,-183.0225 641.3357,-195.2016 695.7307,-205.9851"/>
<polygon fill="#191970" stroke="#191970" points="266.4743,-288.0402 256.6246,-291.9431 266.7584,-295.0344 266.4743,-288.0402"/>
</g>
<!-- Node23442 -->
<g id="node20" class="node">
<title>Node23442</title>
<g id="a_node20"><a xlink:href="quickjs_8c.html#a04d312757919ff6b4d79cd0c2c3e5bb2" target="_top" xlink:title="js_build_arguments">
<polygon fill="none" stroke="#000000" points="497.5,-377 497.5,-396 598.5,-396 598.5,-377 497.5,-377"/>
<text text-anchor="middle" x="548" y="-384" font-family="Helvetica,sans-Serif" font-size="10.00" fill="#000000">js_build_arguments</text>
</a>
</g>
</g>
<!-- Node22850&#45;&gt;Node23442 -->
<g id="edge38" class="edge">
<title>Node22850&#45;&gt;Node23442</title>
<path fill="none" stroke="#191970" d="M221.4969,-309.2108C237.576,-327.4233 265.3278,-354.8557 296,-367.5 361.5088,-394.5053 444.6557,-394.9992 497.1151,-391.684"/>
<polygon fill="#191970" stroke="#191970" points="223.737,-306.4446 214.5796,-301.116 218.4153,-310.9921 223.737,-306.4446"/>
</g>
<!-- Node23457 -->
<g id="node22" class="node">
<title>Node23457</title>
<g id="a_node22"><a xlink:href="quickjs_8c.html#abfb24c507e9a341c0a98e61d86fd8663" target="_top" xlink:title="JS_DefinePropertyGetSet">
<polygon fill="none" stroke="#ff0000" points="298.5,-301 298.5,-320 428.5,-320 428.5,-301 298.5,-301"/>
<text text-anchor="middle" x="363.5" y="-308" font-family="Helvetica,sans-Serif" font-size="10.00" fill="#000000">JS_DefinePropertyGetSet</text>
</a>
</g>
</g>
<!-- Node22850&#45;&gt;Node23457 -->
<g id="edge34" class="edge">
<title>Node22850&#45;&gt;Node23457</title>
<path fill="none" stroke="#191970" d="M266.6682,-298.7441C277.0007,-299.9985 287.7918,-301.3086 298.2632,-302.5799"/>
<polygon fill="#191970" stroke="#191970" points="266.8665,-295.2425 256.5176,-297.5117 266.0228,-302.1915 266.8665,-295.2425"/>
</g>
<!-- Node23458 -->
<g id="node23" class="node">
<title>Node23458</title>
<g id="a_node23"><a xlink:href="quickjs_8c.html#afda32fadaf7f938b5d1a2458a596a4b9" target="_top" xlink:title="JS_DefineGlobalFunction">
<polygon fill="none" stroke="#000000" points="299.5,-339 299.5,-358 427.5,-358 427.5,-339 299.5,-339"/>
<text text-anchor="middle" x="363.5" y="-346" font-family="Helvetica,sans-Serif" font-size="10.00" fill="#000000">JS_DefineGlobalFunction</text>
</a>
</g>
</g>
<!-- Node22850&#45;&gt;Node23458 -->
<g id="edge35" class="edge">
<title>Node22850&#45;&gt;Node23458</title>
<path fill="none" stroke="#191970" d="M236.6672,-305.3068C253.7943,-312.9885 275.8671,-322.4018 296,-329.5 305.7592,-332.9408 316.4793,-336.1913 326.4461,-338.9986"/>
<polygon fill="#191970" stroke="#191970" points="237.7592,-301.9589 227.2065,-301.0147 234.8671,-308.3336 237.7592,-301.9589"/>
</g>
<!-- Node23459 -->
<g id="node24" class="node">
<title>Node23459</title>
<g id="a_node24"><a xlink:href="quickjs_8c.html#a9105ee38f5a557a7922fe6cfee0f9bb2" target="_top" xlink:title="js_arguments_define\l_own_property">
<polygon fill="none" stroke="#000000" points="310,-213.5 310,-243.5 417,-243.5 417,-213.5 310,-213.5"/>
<text text-anchor="start" x="318" y="-231.5" font-family="Helvetica,sans-Serif" font-size="10.00" fill="#000000">js_arguments_define</text>
<text text-anchor="middle" x="363.5" y="-220.5" font-family="Helvetica,sans-Serif" font-size="10.00" fill="#000000">_own_property</text>
</a>
</g>
</g>
<!-- Node22850&#45;&gt;Node23459 -->
<g id="edge37" class="edge">
<title>Node22850&#45;&gt;Node23459</title>
<path fill="none" stroke="#191970" d="M244.0963,-278.5093C249.4511,-276.5449 254.8799,-274.5041 260,-272.5 283.2727,-263.3904 309.1477,-252.3904 329.2045,-243.6678"/>
<polygon fill="#191970" stroke="#191970" points="242.8326,-275.2445 234.6205,-281.9387 245.2147,-281.8267 242.8326,-275.2445"/>
</g>
<!-- Node23054 -->
<g id="node25" class="node">
<title>Node23054</title>
<g id="a_node25"><a xlink:href="quickjs_8c.html#af40540b5f7e973f44e4e89d87938bfc6" target="_top" xlink:title="JS_DefinePropertyDesc">
<polygon fill="none" stroke="#ff0000" points="302.5,-175 302.5,-194 424.5,-194 424.5,-175 302.5,-175"/>
<text text-anchor="middle" x="363.5" y="-182" font-family="Helvetica,sans-Serif" font-size="10.00" fill="#000000">JS_DefinePropertyDesc</text>
</a>
</g>
</g>
<!-- Node22850&#45;&gt;Node23054 -->
<g id="edge40" class="edge">
<title>Node22850&#45;&gt;Node23054</title>
<path fill="none" stroke="#191970" d="M253.7694,-277.1328C255.9714,-275.7264 258.066,-274.1862 260,-272.5 286.0716,-249.7686 269.1508,-225.3074 296,-203.5 300.8194,-199.5856 306.3975,-196.4768 312.2408,-194.0079"/>
<polygon fill="#191970" stroke="#191970" points="252.0104,-274.1046 244.8568,-281.9197 255.3226,-280.2714 252.0104,-274.1046"/>
</g>
<!-- Node23365 -->
<g id="node26" class="node">
<title>Node23365</title>
<g id="a_node26"><a xlink:href="quickjs_8c.html#ad47910027b4f50d5ff3239df19de556d" target="_top" xlink:title="js_object___defineGetter__">
<polygon fill="none" stroke="#000000" points="296,-137 296,-156 431,-156 431,-137 296,-137"/>
<text text-anchor="middle" x="363.5" y="-144" font-family="Helvetica,sans-Serif" font-size="10.00" fill="#000000">js_object___defineGetter__</text>
</a>
</g>
</g>
<!-- Node22850&#45;&gt;Node23365 -->
<g id="edge41" class="edge">
<title>Node22850&#45;&gt;Node23365</title>
<path fill="none" stroke="#191970" d="M255.3555,-276.5678C257.0049,-275.3188 258.5629,-273.9657 260,-272.5 295.1285,-236.6738 259.6422,-200.078 296,-165.5 300.058,-161.6407 304.837,-158.5549 309.947,-156.0891"/>
<polygon fill="#191970" stroke="#191970" points="253.1936,-273.787 246.4839,-281.9864 256.8423,-279.7609 253.1936,-273.787"/>
</g>
<!-- Node23040 -->
<g id="node27" class="node">
<title>Node23040</title>
<g id="a_node27"><a xlink:href="quickjs_8c.html#a3b1f61e0c2e39eb52d8b1c5c8713873e" target="_top" xlink:title="js_object_seal">
<polygon fill="none" stroke="#000000" points="324,-99 324,-118 403,-118 403,-99 324,-99"/>
<text text-anchor="middle" x="363.5" y="-106" font-family="Helvetica,sans-Serif" font-size="10.00" fill="#000000">js_object_seal</text>
</a>
</g>
</g>
<!-- Node22850&#45;&gt;Node23040 -->
<g id="edge42" class="edge">
<title>Node22850&#45;&gt;Node23040</title>
<path fill="none" stroke="#191970" d="M256.0645,-276.259C257.4644,-275.0968 258.7833,-273.8461 260,-272.5 304.526,-223.2402 249.7814,-175.1753 296,-127.5 303.3722,-119.8954 313.5295,-115.2652 323.7274,-112.4659"/>
<polygon fill="#191970" stroke="#191970" points="253.7566,-273.5866 247.309,-281.9937 257.592,-279.4424 253.7566,-273.5866"/>
</g>
<!-- Node23304 -->
<g id="node28" class="node">
<title>Node23304</title>
<g id="a_node28"><a xlink:href="quickjs_8c.html#a1fdb56277638da2aef63b9be0c12895f" target="_top" xlink:title="js_string_define_own\l_property">
<polygon fill="none" stroke="#000000" points="309.5,-49.5 309.5,-79.5 417.5,-79.5 417.5,-49.5 309.5,-49.5"/>
<text text-anchor="start" x="317.5" y="-67.5" font-family="Helvetica,sans-Serif" font-size="10.00" fill="#000000">js_string_define_own</text>
<text text-anchor="middle" x="363.5" y="-56.5" font-family="Helvetica,sans-Serif" font-size="10.00" fill="#000000">_property</text>
</a>
</g>
</g>
<!-- Node22850&#45;&gt;Node23304 -->
<g id="edge44" class="edge">
<title>Node22850&#45;&gt;Node23304</title>
<path fill="none" stroke="#191970" d="M256.3032,-276.2031C257.6218,-275.0568 258.8605,-273.8246 260,-272.5 314.0576,-209.6599 242.2726,-152.6227 296,-89.5 299.7259,-85.1225 304.2923,-81.511 309.2767,-78.5315"/>
<polygon fill="#191970" stroke="#191970" points="254.2908,-273.3391 248.0133,-281.874 258.2431,-279.1167 254.2908,-273.3391"/>
</g>
<!-- Node23065 -->
<g id="node29" class="node">
<title>Node23065</title>
<g id="a_node29"><a xlink:href="quickjs_8c.html#a7e5b77a4851eee6f666581d051979392" target="_top" xlink:title="js_proxy_define_own\l_property">
<polygon fill="none" stroke="#000000" points="309.5,-.5 309.5,-30.5 417.5,-30.5 417.5,-.5 309.5,-.5"/>
<text text-anchor="start" x="317.5" y="-18.5" font-family="Helvetica,sans-Serif" font-size="10.00" fill="#000000">js_proxy_define_own</text>
<text text-anchor="middle" x="363.5" y="-7.5" font-family="Helvetica,sans-Serif" font-size="10.00" fill="#000000">_property</text>
</a>
</g>
</g>
<!-- Node22850&#45;&gt;Node23065 -->
<g id="edge45" class="edge">
<title>Node22850&#45;&gt;Node23065</title>
<path fill="none" stroke="#191970" d="M256.7935,-275.8816C257.9349,-274.8271 259.0084,-273.7016 260,-272.5 326.6939,-191.6812 229.2009,-120.2319 296,-39.5 299.7265,-34.9962 304.3599,-31.3372 309.4416,-28.3646"/>
<polygon fill="#191970" stroke="#191970" points="254.5277,-273.1988 248.4237,-281.8585 258.5957,-278.8954 254.5277,-273.1988"/>
</g>
<!-- Node22851&#45;&gt;Node22852 -->
<g id="edge3" class="edge">
<title>Node22851&#45;&gt;Node22852</title>
<path fill="none" stroke="#191970" d="M389.051,-914.0255C439.948,-940.8181 555.4135,-990.6421 629,-937.5 683.4755,-898.1593 725.6312,-673.6553 734.3423,-624.1556"/>
<polygon fill="#191970" stroke="#191970" points="390.5061,-910.8337 380.0433,-909.1659 387.1825,-916.9943 390.5061,-910.8337"/>
</g>
<!-- Node23368 -->
<g id="node5" class="node">
<title>Node23368</title>
<g id="a_node5"><a xlink:href="quickjs_8c.html#af047bcc4352c7d76f5e85bb5985bcd97" target="_top" xlink:title="js_reflect_set">
<polygon fill="none" stroke="#000000" points="510.5,-909 510.5,-928 585.5,-928 585.5,-909 510.5,-909"/>
<text text-anchor="middle" x="548" y="-916" font-family="Helvetica,sans-Serif" font-size="10.00" fill="#000000">js_reflect_set</text>
</a>
</g>
</g>
<!-- Node22851&#45;&gt;Node23368 -->
<g id="edge5" class="edge">
<title>Node22851&#45;&gt;Node23368</title>
<path fill="none" stroke="#191970" d="M433.3916,-906.6975C459.5078,-909.387 488.168,-912.3384 510.2951,-914.6171"/>
<polygon fill="#191970" stroke="#191970" points="433.453,-903.1854 423.1471,-905.6425 432.7359,-910.1486 433.453,-903.1854"/>
</g>
<!-- Node23064 -->
<g id="node6" class="node">
<title>Node23064</title>
<g id="a_node6"><a xlink:href="quickjs_8c.html#ad38b16d301e8f3661cf4c115c86511b3" target="_top" xlink:title="js_proxy_set">
<polygon fill="none" stroke="#000000" points="512,-871 512,-890 584,-890 584,-871 512,-871"/>
<text text-anchor="middle" x="548" y="-878" font-family="Helvetica,sans-Serif" font-size="10.00" fill="#000000">js_proxy_set</text>
</a>
</g>
</g>
<!-- Node22851&#45;&gt;Node23064 -->
<g id="edge6" class="edge">
<title>Node22851&#45;&gt;Node23064</title>
<path fill="none" stroke="#191970" d="M433.2667,-892.3154C460.0687,-889.5553 489.5671,-886.5175 511.9414,-884.2134"/>
<polygon fill="#191970" stroke="#191970" points="432.7359,-888.8514 423.1471,-893.3575 433.453,-895.8146 432.7359,-888.8514"/>
</g>
<!-- Node22852&#45;&gt;Node22852 -->
<g id="edge4" class="edge">
<title>Node22852&#45;&gt;Node22852</title>
<path fill="none" stroke="#191970" d="M700.7678,-632.3913C701.2838,-638.0406 713.0278,-642.5 736,-642.5 769.4141,-642.5 779.0728,-633.0653 764.9763,-624.2571"/>
<polygon fill="#191970" stroke="#191970" points="703.7017,-634.3176 707.0237,-624.2571 698.1529,-630.0501 703.7017,-634.3176"/>
</g>
<!-- Node22974&#45;&gt;Node22852 -->
<g id="edge9" class="edge">
<title>Node22974&#45;&gt;Node22852</title>
<path fill="none" stroke="#191970" d="M396.1194,-779.6105C448.7826,-798.5328 554.1854,-826.9401 629,-785.5 694.2521,-749.3566 724.9942,-654.9789 733.4806,-624.2936"/>
<polygon fill="#191970" stroke="#191970" points="397.2098,-776.2821 386.6167,-776.0914 394.7788,-782.8464 397.2098,-776.2821"/>
</g>
<!-- Node23012 -->
<g id="node8" class="node">
<title>Node23012</title>
<g id="a_node8"><a xlink:href="quickjs_8c.html#aa40a5354bee3b56e05a71244910bcc78" target="_top" xlink:title="build_for_in_iterator">
<polygon fill="none" stroke="#ff0000" points="497.5,-757 497.5,-776 598.5,-776 598.5,-757 497.5,-757"/>
<text text-anchor="middle" x="548" y="-764" font-family="Helvetica,sans-Serif" font-size="10.00" fill="#000000">build_for_in_iterator</text>
</a>
</g>
</g>
<!-- Node22974&#45;&gt;Node23012 -->
<g id="edge8" class="edge">
<title>Node22974&#45;&gt;Node23012</title>
<path fill="none" stroke="#191970" d="M432.6687,-766.5C454.104,-766.5 477.3161,-766.5 497.2585,-766.5"/>
<polygon fill="#191970" stroke="#191970" points="432.6383,-763.0001 422.6382,-766.5 432.6382,-770.0001 432.6383,-763.0001"/>
</g>
<!-- Node23422&#45;&gt;Node22852 -->
<g id="edge32" class="edge">
<title>Node23422&#45;&gt;Node22852</title>
<path fill="none" stroke="#191970" d="M371.5227,-519.5443C385.6348,-550.2331 418.1167,-609.5998 467,-633.5 549.0165,-673.5997 662.164,-641.5859 711.4291,-624.0526"/>
<polygon fill="#191970" stroke="#191970" points="374.6918,-518.0566 367.4439,-510.3288 368.2908,-520.8898 374.6918,-518.0566"/>
</g>
<!-- Node23422&#45;&gt;Node23012 -->
<g id="edge31" class="edge">
<title>Node23422&#45;&gt;Node23012</title>
<path fill="none" stroke="#191970" d="M365.7273,-520.1907C372.1336,-567.2032 395.0231,-686.6037 467,-747.5 475.6011,-754.777 486.4805,-759.3834 497.4514,-762.2711"/>
<polygon fill="#191970" stroke="#191970" points="369.1803,-519.5971 364.4606,-510.1116 362.2349,-520.47 369.1803,-519.5971"/>
</g>
<!-- Node23423 -->
<g id="node10" class="node">
<title>Node23423</title>
<g id="a_node10"><a xlink:href="quickjs-libc_8c.html#a744c97f53406d93e57acb57e3d498227" target="_top" xlink:title="js_std_getenviron">
<polygon fill="none" stroke="#000000" points="501.5,-605 501.5,-624 594.5,-624 594.5,-605 501.5,-605"/>
<text text-anchor="middle" x="548" y="-612" font-family="Helvetica,sans-Serif" font-size="10.00" fill="#000000">js_std_getenviron</text>
</a>
</g>
</g>
<!-- Node23422&#45;&gt;Node23423 -->
<g id="edge11" class="edge">
<title>Node23422&#45;&gt;Node23423</title>
<path fill="none" stroke="#191970" d="M377.3118,-517.7502C395.5347,-539.3098 429.6935,-575.7684 467,-595.5 477.47,-601.0376 489.5433,-604.9771 501.1185,-607.7741"/>
<polygon fill="#191970" stroke="#191970" points="379.996,-515.504 370.9272,-510.026 374.6006,-519.9637 379.996,-515.504"/>
</g>
<!-- Node23424 -->
<g id="node11" class="node">
<title>Node23424</title>
<g id="a_node11"><a xlink:href="quickjs_8c.html#a5d963b1e3acf275363fedd4bfdd8a57f" target="_top" xlink:title="js_function_set_properties">
<polygon fill="none" stroke="#ff0000" points="482.5,-529 482.5,-548 613.5,-548 613.5,-529 482.5,-529"/>
<text text-anchor="middle" x="548" y="-536" font-family="Helvetica,sans-Serif" font-size="10.00" fill="#000000">js_function_set_properties</text>
</a>
</g>
</g>
<!-- Node23422&#45;&gt;Node23424 -->
<g id="edge12" class="edge">
<title>Node23422&#45;&gt;Node23424</title>
<path fill="none" stroke="#191970" d="M419.8672,-512.1095C446.1074,-517.514 476.936,-523.8635 501.7776,-528.9799"/>
<polygon fill="#191970" stroke="#191970" points="420.5576,-508.6783 410.0571,-510.089 419.1455,-515.5344 420.5576,-508.6783"/>
</g>
<!-- Node23315 -->
<g id="node12" class="node">
<title>Node23315</title>
<g id="a_node12"><a xlink:href="quickjs_8c.html#a44d4e574b5bd12a89f8389ca79e587a0" target="_top" xlink:title="js_method_set_properties">
<polygon fill="none" stroke="#000000" points="484,-567 484,-586 612,-586 612,-567 484,-567"/>
<text text-anchor="middle" x="548" y="-574" font-family="Helvetica,sans-Serif" font-size="10.00" fill="#000000">js_method_set_properties</text>
</a>
</g>
</g>
<!-- Node23422&#45;&gt;Node23315 -->
<g id="edge13" class="edge">
<title>Node23422&#45;&gt;Node23315</title>
<path fill="none" stroke="#191970" d="M386.553,-515.6014C406.9631,-528.3746 437.9411,-546.3326 467,-557.5 476.7076,-561.2307 487.362,-564.3658 497.6626,-566.9452"/>
<polygon fill="#191970" stroke="#191970" points="388.2806,-512.5523 377.9639,-510.1405 384.5248,-518.4595 388.2806,-512.5523"/>
</g>
<!-- Node23300 -->
<g id="node13" class="node">
<title>Node23300</title>
<g id="a_node13"><a xlink:href="quickjs_8c.html#a61c8dfb5e807af1b6ff7d8ca61576dda" target="_top" xlink:title="build_backtrace">
<polygon fill="none" stroke="#ff0000" points="505.5,-415 505.5,-434 590.5,-434 590.5,-415 505.5,-415"/>
<text text-anchor="middle" x="548" y="-422" font-family="Helvetica,sans-Serif" font-size="10.00" fill="#000000">build_backtrace</text>
</a>
</g>
</g>
<!-- Node23422&#45;&gt;Node23300 -->
<g id="edge15" class="edge">
<title>Node23422&#45;&gt;Node23300</title>
<path fill="none" stroke="#191970" d="M386.553,-485.3986C406.9631,-472.6254 437.9411,-454.6674 467,-443.5 479.1346,-438.8367 492.7483,-435.1039 505.3014,-432.2238"/>
<polygon fill="#191970" stroke="#191970" points="384.5248,-482.5405 377.9639,-490.8595 388.2806,-488.4477 384.5248,-482.5405"/>
</g>
<!-- Node23301 -->
<g id="node14" class="node">
<title>Node23301</title>
<g id="a_node14"><a xlink:href="quickjs_8c.html#aeafb37b03b5560171754f8c4505b0f6b" target="_top" xlink:title="JS_ThrowError2">
<polygon fill="none" stroke="#ff0000" points="692.5,-358 692.5,-377 779.5,-377 779.5,-358 692.5,-358"/>
<text text-anchor="middle" x="736" y="-365" font-family="Helvetica,sans-Serif" font-size="10.00" fill="#000000">JS_ThrowError2</text>
</a>
</g>
</g>
<!-- Node23422&#45;&gt;Node23301 -->
<g id="edge18" class="edge">
<title>Node23422&#45;&gt;Node23301</title>
<path fill="none" stroke="#191970" d="M371.5227,-481.4557C385.6348,-450.7669 418.1167,-391.4002 467,-367.5 542.939,-330.3717 645.9668,-345.7451 699.8167,-357.9398"/>
<polygon fill="#191970" stroke="#191970" points="368.2908,-480.1102 367.4439,-490.6712 374.6918,-482.9434 368.2908,-480.1102"/>
</g>
<!-- Node23346 -->
<g id="node15" class="node">
<title>Node23346</title>
<g id="a_node15"><a xlink:href="quickjs_8c.html#a0c61bd5a64c743e81188bb528b78e715" target="_top" xlink:title="JS_DefinePropertyValueValue">
<polygon fill="none" stroke="#ff0000" points="473.5,-491 473.5,-510 622.5,-510 622.5,-491 473.5,-491"/>
<text text-anchor="middle" x="548" y="-498" font-family="Helvetica,sans-Serif" font-size="10.00" fill="#000000">JS_DefinePropertyValueValue</text>
</a>
</g>
</g>
<!-- Node23422&#45;&gt;Node23346 -->
<g id="edge19" class="edge">
<title>Node23422&#45;&gt;Node23346</title>
<path fill="none" stroke="#191970" d="M435.8861,-500.5C448.1675,-500.5 460.942,-500.5 473.282,-500.5"/>
<polygon fill="#191970" stroke="#191970" points="435.7061,-497.0001 425.7061,-500.5 435.706,-504.0001 435.7061,-497.0001"/>
</g>
<!-- Node23439 -->
<g id="node16" class="node">
<title>Node23439</title>
<g id="a_node16"><a xlink:href="quickjs_8c.html#a841f4cb887e4d9e03e94a0697255e578" target="_top" xlink:title="JS_DefinePropertyValueStr">
<polygon fill="none" stroke="#ff0000" points="479.5,-225 479.5,-244 616.5,-244 616.5,-225 479.5,-225"/>
<text text-anchor="middle" x="548" y="-232" font-family="Helvetica,sans-Serif" font-size="10.00" fill="#000000">JS_DefinePropertyValueStr</text>
</a>
</g>
</g>
<!-- Node23422&#45;&gt;Node23439 -->
<g id="edge21" class="edge">
<title>Node23422&#45;&gt;Node23439</title>
<path fill="none" stroke="#191970" d="M374.1034,-481.8413C388.2452,-456.4893 413.5236,-409.4992 431,-367.5 450.6002,-320.397 430.3709,-294.013 467,-258.5 473.5287,-252.1702 481.6461,-247.4987 490.1998,-244.0535"/>
<polygon fill="#191970" stroke="#191970" points="370.9552,-480.2991 369.1047,-490.7311 377.0568,-483.73 370.9552,-480.2991"/>
</g>
<!-- Node23422&#45;&gt;Node22885 -->
<g id="edge33" class="edge">
<title>Node23422&#45;&gt;Node22885</title>
<path fill="none" stroke="#191970" d="M371.413,-481.442C385.926,-448.5286 419.7098,-380.6181 467,-339.5 506.2917,-305.3364 651.7376,-247.6332 710.8133,-225.0071"/>
<polygon fill="#191970" stroke="#191970" points="368.1156,-480.2505 367.3854,-490.8202 374.5476,-483.0128 368.1156,-480.2505"/>
</g>
<!-- Node23441 -->
<g id="node18" class="node">
<title>Node23441</title>
<g id="a_node18"><a xlink:href="quickjs_8c.html#a80f0e1750e0bb787b098c0c7eafee797" target="_top" xlink:title="JS_DefineObjectName">
<polygon fill="none" stroke="#ff0000" points="489.5,-453 489.5,-472 606.5,-472 606.5,-453 489.5,-453"/>
<text text-anchor="middle" x="548" y="-460" font-family="Helvetica,sans-Serif" font-size="10.00" fill="#000000">JS_DefineObjectName</text>
</a>
</g>
</g>
<!-- Node23422&#45;&gt;Node23441 -->
<g id="edge23" class="edge">
<title>Node23422&#45;&gt;Node23441</title>
<path fill="none" stroke="#191970" d="M419.8672,-488.8905C446.1074,-483.486 476.936,-477.1365 501.7776,-472.0201"/>
<polygon fill="#191970" stroke="#191970" points="419.1455,-485.4656 410.0571,-490.911 420.5576,-492.3217 419.1455,-485.4656"/>
</g>
<!-- Node23316 -->
<g id="node19" class="node">
<title>Node23316</title>
<g id="a_node19"><a xlink:href="quickjs_8c.html#a116b8bb41915b573650c477a55d8e46d" target="_top" xlink:title="JS_DefineObjectNameComputed">
<polygon fill="none" stroke="#ff0000" points="467,-719 467,-738 629,-738 629,-719 467,-719"/>
<text text-anchor="middle" x="548" y="-726" font-family="Helvetica,sans-Serif" font-size="10.00" fill="#000000">JS_DefineObjectNameComputed</text>
</a>
</g>
</g>
<!-- Node23422&#45;&gt;Node23316 -->
<g id="edge25" class="edge">
<title>Node23422&#45;&gt;Node23316</title>
<path fill="none" stroke="#191970" d="M367.3792,-520.239C376.6664,-562.0354 404.2397,-659.707 467,-709.5 471.8656,-713.3603 477.382,-716.4599 483.1933,-718.9453"/>
<polygon fill="#191970" stroke="#191970" points="370.7575,-519.2964 365.2728,-510.2318 363.9076,-520.7383 370.7575,-519.2964"/>
</g>
<!-- Node23422&#45;&gt;Node23442 -->
<g id="edge27" class="edge">
<title>Node23422&#45;&gt;Node23442</title>
<path fill="none" stroke="#191970" d="M377.3118,-483.2498C395.5347,-461.6902 429.6935,-425.2316 467,-405.5 476.3208,-400.5702 486.9123,-396.9069 497.2919,-394.1887"/>
<polygon fill="#191970" stroke="#191970" points="374.6006,-481.0363 370.9272,-490.974 379.996,-485.496 374.6006,-481.0363"/>
</g>
<!-- Node23352 -->
<g id="node21" class="node">
<title>Node23352</title>
<g id="a_node21"><a xlink:href="quickjs_8c.html#a1c459034f2971c4abc3a8d6d4693ef5f" target="_top" xlink:title="js_build_mapped_arguments">
<polygon fill="none" stroke="#000000" points="478,-681 478,-700 618,-700 618,-681 478,-681"/>
<text text-anchor="middle" x="548" y="-688" font-family="Helvetica,sans-Serif" font-size="10.00" fill="#000000">js_build_mapped_arguments</text>
</a>
</g>
</g>
<!-- Node23422&#45;&gt;Node23352 -->
<g id="edge29" class="edge">
<title>Node23422&#45;&gt;Node23352</title>
<path fill="none" stroke="#191970" d="M370.2711,-519.9015C383.3802,-554.6052 415.5495,-627.3329 467,-666.5 475.2857,-672.8076 485.206,-677.4625 495.2167,-680.8963"/>
<polygon fill="#191970" stroke="#191970" points="373.3973,-518.2577 366.6844,-510.0609 366.8205,-520.6548 373.3973,-518.2577"/>
</g>
<!-- Node23315&#45;&gt;Node22852 -->
<g id="edge14" class="edge">
<title>Node23315&#45;&gt;Node22852</title>
<path fill="none" stroke="#191970" d="M605.3465,-588.0913C634.0522,-593.8935 668.1653,-600.7887 694.335,-606.0784"/>
<polygon fill="#191970" stroke="#191970" points="605.9356,-584.6397 595.4403,-586.089 604.5487,-591.5009 605.9356,-584.6397"/>
</g>
<!-- Node23300&#45;&gt;Node22852 -->
<g id="edge17" class="edge">
<title>Node23300&#45;&gt;Node22852</title>
<path fill="none" stroke="#191970" d="M600.5918,-430.5472C610.6449,-433.3848 620.6302,-437.5116 629,-443.5 689.3803,-486.7006 723.1353,-575.6205 732.955,-604.9105"/>
<polygon fill="#191970" stroke="#191970" points="601.1164,-427.0731 590.5733,-428.1182 599.467,-433.876 601.1164,-427.0731"/>
</g>
<!-- Node23300&#45;&gt;Node23301 -->
<g id="edge16" class="edge">
<title>Node23300&#45;&gt;Node23301</title>
<path fill="none" stroke="#191970" d="M600.4861,-413.085C610.0232,-410.7569 619.846,-408.1901 629,-405.5 657.7482,-397.0517 690.0796,-385.2393 711.6043,-377.036"/>
<polygon fill="#191970" stroke="#191970" points="599.6069,-409.6965 590.691,-415.4199 601.23,-416.5057 599.6069,-409.6965"/>
</g>
<!-- Node23346&#45;&gt;Node22852 -->
<g id="edge20" class="edge">
<title>Node23346&#45;&gt;Node22852</title>
<path fill="none" stroke="#191970" d="M614.6927,-513.2771C619.6428,-515.0877 624.4676,-517.1506 629,-519.5 672.227,-541.9074 711.9841,-585.6907 728.2457,-604.9833"/>
<polygon fill="#191970" stroke="#191970" points="615.6559,-509.9093 605.0628,-510.097 613.4609,-516.5563 615.6559,-509.9093"/>
</g>
<!-- Node23439&#45;&gt;Node22885 -->
<g id="edge22" class="edge">
<title>Node23439&#45;&gt;Node22885</title>
<path fill="none" stroke="#191970" d="M626.7452,-226.5417C639.4322,-225.2595 652.5003,-223.9388 664.9912,-222.6764"/>
<polygon fill="#191970" stroke="#191970" points="626.2677,-223.072 616.6703,-227.5599 626.9716,-230.0366 626.2677,-223.072"/>
</g>
<!-- Node23441&#45;&gt;Node22852 -->
<g id="edge24" class="edge">
<title>Node23441&#45;&gt;Node22852</title>
<path fill="none" stroke="#191970" d="M616.0242,-474.8101C620.5606,-476.7268 624.9356,-478.9413 629,-481.5 680.6633,-514.0241 718.4658,-580.3251 731.2616,-604.9833"/>
<polygon fill="#191970" stroke="#191970" points="617.1266,-471.486 606.5338,-471.2796 614.6859,-478.0467 617.1266,-471.486"/>
</g>
<!-- Node23316&#45;&gt;Node22852 -->
<g id="edge26" class="edge">
<title>Node23316&#45;&gt;Node22852</title>
<path fill="none" stroke="#191970" d="M614.6927,-715.7229C619.6428,-713.9123 624.4676,-711.8494 629,-709.5 672.227,-687.0926 711.9841,-643.3093 728.2457,-624.0167"/>
<polygon fill="#191970" stroke="#191970" points="613.4609,-712.4437 605.0628,-718.903 615.6559,-719.0907 613.4609,-712.4437"/>
</g>
<!-- Node23442&#45;&gt;Node22852 -->
<g id="edge28" class="edge">
<title>Node23442&#45;&gt;Node22852</title>
<path fill="none" stroke="#191970" d="M608.1764,-394.3205C615.6649,-397.0498 622.8414,-400.6806 629,-405.5 698.3409,-459.7632 726.8438,-571.2473 734.0581,-604.7613"/>
<polygon fill="#191970" stroke="#191970" points="609.1661,-390.9629 598.5774,-391.3239 607.0801,-397.6449 609.1661,-390.9629"/>
</g>
<!-- Node23352&#45;&gt;Node22852 -->
<g id="edge30" class="edge">
<title>Node23352&#45;&gt;Node22852</title>
<path fill="none" stroke="#191970" d="M594.8459,-678.0432C606.1503,-674.648 618.1074,-670.7275 629,-666.5 661.5403,-653.8709 697.7485,-635.2542 718.6006,-624.0593"/>
<polygon fill="#191970" stroke="#191970" points="593.7388,-674.7203 585.123,-680.8862 595.7034,-681.439 593.7388,-674.7203"/>
</g>
<!-- Node23458&#45;&gt;Node22852 -->
<g id="edge36" class="edge">
<title>Node23458&#45;&gt;Node22852</title>
<path fill="none" stroke="#191970" d="M416.622,-337.2929C474.3854,-328.26 566.7644,-323.3767 629,-367.5 712.8718,-426.9627 731.6112,-566.6397 735.223,-604.7479"/>
<polygon fill="#191970" stroke="#191970" points="415.8978,-333.8651 406.6057,-338.9551 417.0439,-340.7707 415.8978,-333.8651"/>
</g>
<!-- Node23040&#45;&gt;Node22885 -->
<g id="edge43" class="edge">
<title>Node23040&#45;&gt;Node22885</title>
<path fill="none" stroke="#191970" d="M408.5521,-120.6537C461.454,-135.0182 551.7903,-159.8385 629,-182.5 654.9276,-190.1099 684.2447,-199.1848 705.6266,-205.8903"/>
<polygon fill="#191970" stroke="#191970" points="409.3712,-117.2494 398.8037,-118.01 407.5389,-124.0054 409.3712,-117.2494"/>
</g>
</g>
</svg>
        <g id="navigator" transform="translate(0 0)" fill="#404254">
                <rect fill="#f2f5e9" fill-opacity="0.5" stroke="#606060" stroke-width=".5" x="0" y="0" width="60" height="60"/>
                <use id="zoomplus" xlink:href="#zoomPlus" x="17" y="9" onmousedown="handleZoom(evt,'in')"/>
                <use id="zoomminus" xlink:href="#zoomMin" x="42" y="9" onmousedown="handleZoom(evt,'out')"/>
                <use id="reset" xlink:href="#resetDef" x="30" y="36" onmousedown="handleReset()"/>
                <g id="arrowUp" xlink:href="#dirArrow" transform="translate(30 24)" onmousedown="handlePan(0,-1)">
                  <use xlink:href="#rim" fill="#404040">
                        <set attributeName="fill" to="#808080" begin="arrowUp.mouseover" end="arrowUp.mouseout"/>
                  </use>
                  <path fill="none" stroke="white" stroke-width="1.5" d="M0,-3.0v7 M-2.5,-0.5L0,-3.0L2.5,-0.5"/>
                </g>
                <g id="arrowRight" xlink:href="#dirArrow" transform="rotate(90) translate(36 -43)" onmousedown="handlePan(1,0)">
                  <use xlink:href="#rim" fill="#404040">
                        <set attributeName="fill" to="#808080" begin="arrowRight.mouseover" end="arrowRight.mouseout"/>
                  </use>
                  <path fill="none" stroke="white" stroke-width="1.5" d="M0,-3.0v7 M-2.5,-0.5L0,-3.0L2.5,-0.5"/>
                </g>
                <g id="arrowDown" xlink:href="#dirArrow" transform="rotate(180) translate(-30 -48)" onmousedown="handlePan(0,1)">
                  <use xlink:href="#rim" fill="#404040">
                        <set attributeName="fill" to="#808080" begin="arrowDown.mouseover" end="arrowDown.mouseout"/>
                  </use>
                  <path fill="none" stroke="white" stroke-width="1.5" d="M0,-3.0v7 M-2.5,-0.5L0,-3.0L2.5,-0.5"/>
                </g>
                <g id="arrowLeft" xlink:href="#dirArrow" transform="rotate(270) translate(-36 17)" onmousedown="handlePan(-1,0)">
                  <use xlink:href="#rim" fill="#404040">
                        <set attributeName="fill" to="#808080" begin="arrowLeft.mouseover" end="arrowLeft.mouseout"/>
                  </use>
                  <path fill="none" stroke="white" stroke-width="1.5" d="M0,-3.0v7 M-2.5,-0.5L0,-3.0L2.5,-0.5"/>
                </g>
        </g>
        <svg viewBox="0 0 15 15" width="100%" height="30px" preserveAspectRatio="xMaxYMin meet">
         <g id="arrow_out" transform="scale(0.3 0.3)">
          <a xlink:href="quickjs_8c_a3300653c365889b88c41c24ab23b4ca0_icgraph_org.svg" target="_base">
           <rect id="button" ry="5" rx="5" y="6" x="6" height="38" width="38"
                fill="#f2f5e9" fill-opacity="0.5" stroke="#606060" stroke-width="1.0"/>
           <path id="arrow"
             d="M 11.500037,31.436501 C 11.940474,20.09759 22.043105,11.32322 32.158766,21.979434 L 37.068811,17.246167 C 37.068811,17.246167 37.088388,32 37.088388,32 L 22.160133,31.978069 C 22.160133,31.978069 26.997745,27.140456 26.997745,27.140456 C 18.528582,18.264221 13.291696,25.230495 11.500037,31.436501 z"
             style="fill:#404040;"/>
          </a>
         </g>
        </svg>
</svg>
