<?xml version="1.0" encoding="UTF-8" standalone="no"?>
<!DOCTYPE svg PUBLIC "-//W3C//DTD SVG 1.1//EN"
 "http://www.w3.org/Graphics/SVG/1.1/DTD/svg11.dtd">
<!-- Generated by graphviz version 2.40.1 (20161225.0304)
 -->
<!-- Title: js_object_isSealed Pages: 1 -->
<!--zoomable 559 -->
<svg id="main" version="1.1" xmlns="http://www.w3.org/2000/svg" xmlns:xlink="http://www.w3.org/1999/xlink" xml:space="preserve" onload="init(evt)">
<style type="text/css"><![CDATA[
.edge:hover path { stroke: red; }
.edge:hover polygon { stroke: red; fill: red; }
]]></style>
<script type="text/javascript"><![CDATA[
var edges = document.getElementsByTagName('g');
if (edges && edges.length) {
  for (var i=0;i<edges.length;i++) {
    if (edges[i].id.substr(0,4)=='edge') {
      edges[i].setAttribute('class','edge');
    }
  }
}
]]></script>
        <defs>
                <circle id="rim" cx="0" cy="0" r="7"/>
                <circle id="rim2" cx="0" cy="0" r="3.5"/>
                <g id="zoomPlus">
                        <use xlink:href="#rim" fill="#404040">
                                <set attributeName="fill" to="#808080" begin="zoomplus.mouseover" end="zoomplus.mouseout"/>
                        </use>
                        <path d="M-4,0h8M0,-4v8" fill="none" stroke="white" stroke-width="1.5" pointer-events="none"/>
                </g>
                <g id="zoomMin">
                        <use xlink:href="#rim" fill="#404040">
                                <set attributeName="fill" to="#808080" begin="zoomminus.mouseover" end="zoomminus.mouseout"/>
                        </use>
                        <path d="M-4,0h8" fill="none" stroke="white" stroke-width="1.5" pointer-events="none"/>
                </g>
                <g id="dirArrow">
                        <path fill="none" stroke="white" stroke-width="1.5" d="M0,-3.0v7 M-2.5,-0.5L0,-3.0L2.5,-0.5"/>
                </g>
               <g id="resetDef">
                       <use xlink:href="#rim2" fill="#404040">
                               <set attributeName="fill" to="#808080" begin="reset.mouseover" end="reset.mouseout"/>
                       </use>
               </g>
        </defs>

<script type="text/javascript">
var viewWidth = 1137;
var viewHeight = 559;
var sectionId = 'dynsection-1440';
</script>
<script xlink:href="svgpan.js"/>
<svg id="graph" class="graph">
<g id="viewport">
<title>js_object_isSealed</title>
<!-- Node386776 -->
<g id="node1" class="node">
<title>Node386776</title>
<polygon fill="#bfbfbf" stroke="#000000" points="0,-379.0278 0,-398.0278 98,-398.0278 98,-379.0278 0,-379.0278"/>
<text text-anchor="middle" x="49" y="-386.0278" font-family="Helvetica,sans-Serif" font-size="10.00" fill="#000000">js_object_isSealed</text>
</g>
<!-- Node386777 -->
<g id="node2" class="node">
<title>Node386777</title>
<g id="a_node2"><a xlink:href="quickjs_8c.html#adfe21c674d998ca6586b7f7400352dc4" target="_top" xlink:title="js_free_desc">
<polygon fill="none" stroke="#000000" points="373.5,-531.0278 373.5,-550.0278 445.5,-550.0278 445.5,-531.0278 373.5,-531.0278"/>
<text text-anchor="middle" x="409.5" y="-538.0278" font-family="Helvetica,sans-Serif" font-size="10.00" fill="#000000">js_free_desc</text>
</a>
</g>
</g>
<!-- Node386776&#45;&gt;Node386777 -->
<g id="edge1" class="edge">
<title>Node386776&#45;&gt;Node386777</title>
<path fill="none" stroke="#191970" d="M54.6572,-398.0573C66.6479,-417.3551 96.6097,-461.0417 134,-482.5278 206.6112,-524.2533 305.4345,-536.107 362.8581,-539.3837"/>
<polygon fill="#191970" stroke="#191970" points="362.9188,-542.8912 373.0829,-539.901 363.2726,-535.9001 362.9188,-542.8912"/>
</g>
<!-- Node386816 -->
<g id="node5" class="node">
<title>Node386816</title>
<g id="a_node5"><a xlink:href="quickjs_8c.html#a6b42cd922447e1eb6bfc52761895a174" target="_top" xlink:title="js_free_prop_enum">
<polygon fill="none" stroke="#000000" points="360,-493.0278 360,-512.0278 459,-512.0278 459,-493.0278 360,-493.0278"/>
<text text-anchor="middle" x="409.5" y="-500.0278" font-family="Helvetica,sans-Serif" font-size="10.00" fill="#000000">js_free_prop_enum</text>
</a>
</g>
</g>
<!-- Node386776&#45;&gt;Node386816 -->
<g id="edge4" class="edge">
<title>Node386776&#45;&gt;Node386816</title>
<path fill="none" stroke="#191970" d="M60.2667,-398.2026C75.8025,-411.0228 105.1652,-433.4261 134,-445.5278 204.8458,-475.2612 292.6485,-489.9757 349.8192,-496.9021"/>
<polygon fill="#191970" stroke="#191970" points="349.4364,-500.3811 359.7754,-498.0671 350.25,-493.4286 349.4364,-500.3811"/>
</g>
<!-- Node386817 -->
<g id="node8" class="node">
<title>Node386817</title>
<g id="a_node8"><a xlink:href="quickjs_8c.html#ad13892c0a0f11781b566808876658099" target="_top" xlink:title="JS_GetOwnPropertyInternal">
<polygon fill="none" stroke="#000000" points="340,-284.0278 340,-303.0278 479,-303.0278 479,-284.0278 340,-284.0278"/>
<text text-anchor="middle" x="409.5" y="-291.0278" font-family="Helvetica,sans-Serif" font-size="10.00" fill="#000000">JS_GetOwnPropertyInternal</text>
</a>
</g>
</g>
<!-- Node386776&#45;&gt;Node386817 -->
<g id="edge7" class="edge">
<title>Node386776&#45;&gt;Node386817</title>
<path fill="none" stroke="#191970" d="M98.1059,-392.6088C150.7001,-395.2305 235.8002,-394.3703 304,-369.5278 339.2621,-356.6832 373.2182,-328.4694 392.6932,-310.2654"/>
<polygon fill="#191970" stroke="#191970" points="395.3182,-312.5975 400.1146,-303.1505 390.4739,-307.5444 395.3182,-312.5975"/>
</g>
<!-- Node387086 -->
<g id="node26" class="node">
<title>Node387086</title>
<g id="a_node26"><a xlink:href="quickjs_8c.html#a176ac5ff56a118a0b1b2566798d28823" target="_top" xlink:title="JS_GetOwnPropertyNamesInternal">
<polygon fill="none" stroke="#ff0000" points="134,-417.0278 134,-436.0278 304,-436.0278 304,-417.0278 134,-417.0278"/>
<text text-anchor="middle" x="219" y="-424.0278" font-family="Helvetica,sans-Serif" font-size="10.00" fill="#000000">JS_GetOwnPropertyNamesInternal</text>
</a>
</g>
</g>
<!-- Node386776&#45;&gt;Node387086 -->
<g id="edge31" class="edge">
<title>Node386776&#45;&gt;Node387086</title>
<path fill="none" stroke="#191970" d="M91.8982,-398.1168C114.5336,-403.1765 142.4982,-409.4274 166.4287,-414.7766"/>
<polygon fill="#191970" stroke="#191970" points="165.8876,-418.2419 176.4103,-417.0077 167.4147,-411.4105 165.8876,-418.2419"/>
</g>
<!-- Node386965 -->
<g id="node27" class="node">
<title>Node386965</title>
<g id="a_node27"><a xlink:href="quickjs_8c.html#a17c92ef7fbad6a6029f6aa933d669624" target="_top" xlink:title="JS_IsExtensible">
<polygon fill="none" stroke="#ff0000" points="175,-341.0278 175,-360.0278 263,-360.0278 263,-341.0278 175,-341.0278"/>
<text text-anchor="middle" x="219" y="-348.0278" font-family="Helvetica,sans-Serif" font-size="10.00" fill="#000000">JS_IsExtensible</text>
</a>
</g>
</g>
<!-- Node386776&#45;&gt;Node386965 -->
<g id="edge40" class="edge">
<title>Node386776&#45;&gt;Node386965</title>
<path fill="none" stroke="#191970" d="M91.8982,-378.9388C114.5336,-373.8791 142.4982,-367.6282 166.4287,-362.279"/>
<polygon fill="#191970" stroke="#191970" points="167.4147,-365.6451 176.4103,-360.0478 165.8876,-358.8137 167.4147,-365.6451"/>
</g>
<!-- Node387058 -->
<g id="node28" class="node">
<title>Node387058</title>
<g id="a_node28"><a xlink:href="quickjs_8h.html#a3d68fe446df2d9c7d1900b16371bff5b" target="_top" xlink:title="JS_IsObject">
<polygon fill="none" stroke="#000000" points="183.5,-303.0278 183.5,-322.0278 254.5,-322.0278 254.5,-303.0278 183.5,-303.0278"/>
<text text-anchor="middle" x="219" y="-310.0278" font-family="Helvetica,sans-Serif" font-size="10.00" fill="#000000">JS_IsObject</text>
</a>
</g>
</g>
<!-- Node386776&#45;&gt;Node387058 -->
<g id="edge41" class="edge">
<title>Node386776&#45;&gt;Node387058</title>
<path fill="none" stroke="#191970" d="M60.2951,-378.92C75.8632,-366.1758 105.2623,-343.8583 134,-331.5278 146.2806,-326.2586 160.212,-322.3631 173.191,-319.5208"/>
<polygon fill="#191970" stroke="#191970" points="174.2413,-322.8791 183.3459,-317.461 172.8497,-316.0188 174.2413,-322.8791"/>
</g>
<!-- Node387157 -->
<g id="node29" class="node">
<title>Node387157</title>
<g id="a_node29"><a xlink:href="quickjs_8h.html#a93abffa925714e249a6aa2f4ae7900f6" target="_top" xlink:title="JS_NewBool">
<polygon fill="none" stroke="#000000" points="182,-265.0278 182,-284.0278 256,-284.0278 256,-265.0278 182,-265.0278"/>
<text text-anchor="middle" x="219" y="-272.0278" font-family="Helvetica,sans-Serif" font-size="10.00" fill="#000000">JS_NewBool</text>
</a>
</g>
</g>
<!-- Node386776&#45;&gt;Node387157 -->
<g id="edge42" class="edge">
<title>Node386776&#45;&gt;Node387157</title>
<path fill="none" stroke="#191970" d="M54.6527,-378.9347C66.6353,-359.5012 96.5828,-315.4715 134,-293.5278 145.3214,-286.8882 158.7369,-282.5668 171.5251,-279.7549"/>
<polygon fill="#191970" stroke="#191970" points="172.4408,-283.1427 181.5944,-277.8079 171.1118,-276.27 172.4408,-283.1427"/>
</g>
<!-- Node386778 -->
<g id="node3" class="node">
<title>Node386778</title>
<g id="a_node3"><a xlink:href="quickjs_8h.html#afaa20c47565bc704c6c85f3d77254e7d" target="_top" xlink:title="JS_FreeValue">
<polygon fill="none" stroke="#000000" points="910.5,-493.0278 910.5,-512.0278 988.5,-512.0278 988.5,-493.0278 910.5,-493.0278"/>
<text text-anchor="middle" x="949.5" y="-500.0278" font-family="Helvetica,sans-Serif" font-size="10.00" fill="#000000">JS_FreeValue</text>
</a>
</g>
</g>
<!-- Node386777&#45;&gt;Node386778 -->
<g id="edge2" class="edge">
<title>Node386777&#45;&gt;Node386778</title>
<path fill="none" stroke="#191970" d="M445.7204,-539.8234C522.2317,-538.0654 705.8682,-532.42 859,-516.5278 872.4837,-515.1284 887.025,-513.1082 900.4236,-511.0358"/>
<polygon fill="#191970" stroke="#191970" points="901.0829,-514.4751 910.4104,-509.4504 899.9853,-507.5616 901.0829,-514.4751"/>
</g>
<!-- Node386779 -->
<g id="node4" class="node">
<title>Node386779</title>
<g id="a_node4"><a xlink:href="quickjs_8c.html#aa059f309c30fd5166d16c82a97973146" target="_top" xlink:title="__JS_FreeValue">
<polygon fill="none" stroke="#ff0000" points="1040,-493.0278 1040,-512.0278 1129,-512.0278 1129,-493.0278 1040,-493.0278"/>
<text text-anchor="middle" x="1084.5" y="-500.0278" font-family="Helvetica,sans-Serif" font-size="10.00" fill="#000000">__JS_FreeValue</text>
</a>
</g>
</g>
<!-- Node386778&#45;&gt;Node386779 -->
<g id="edge3" class="edge">
<title>Node386778&#45;&gt;Node386779</title>
<path fill="none" stroke="#191970" d="M988.5476,-502.5278C1001.3308,-502.5278 1015.7805,-502.5278 1029.514,-502.5278"/>
<polygon fill="#191970" stroke="#191970" points="1029.837,-506.0279 1039.8369,-502.5278 1029.8369,-499.0279 1029.837,-506.0279"/>
</g>
<!-- Node386799 -->
<g id="node6" class="node">
<title>Node386799</title>
<g id="a_node6"><a xlink:href="quickjs_8c.html#a80e54dcf9ac687d4ccc2f90273565f30" target="_top" xlink:title="js_free">
<polygon fill="none" stroke="#ff0000" points="582,-455.0278 582,-474.0278 628,-474.0278 628,-455.0278 582,-455.0278"/>
<text text-anchor="middle" x="605" y="-462.0278" font-family="Helvetica,sans-Serif" font-size="10.00" fill="#000000">js_free</text>
</a>
</g>
</g>
<!-- Node386816&#45;&gt;Node386799 -->
<g id="edge5" class="edge">
<title>Node386816&#45;&gt;Node386799</title>
<path fill="none" stroke="#191970" d="M458.5806,-492.9878C494.0458,-486.0943 540.9867,-476.9703 572.0465,-470.9331"/>
<polygon fill="#191970" stroke="#191970" points="572.783,-474.3555 581.9314,-469.0117 571.4473,-467.4841 572.783,-474.3555"/>
</g>
<!-- Node386800 -->
<g id="node7" class="node">
<title>Node386800</title>
<g id="a_node7"><a xlink:href="quickjs_8c.html#ab7fc45a99935a1c0ba50b0216d9401a9" target="_top" xlink:title="JS_FreeAtom">
<polygon fill="none" stroke="#ff0000" points="911,-417.0278 911,-436.0278 988,-436.0278 988,-417.0278 911,-417.0278"/>
<text text-anchor="middle" x="949.5" y="-424.0278" font-family="Helvetica,sans-Serif" font-size="10.00" fill="#000000">JS_FreeAtom</text>
</a>
</g>
</g>
<!-- Node386816&#45;&gt;Node386800 -->
<g id="edge6" class="edge">
<title>Node386816&#45;&gt;Node386800</title>
<path fill="none" stroke="#191970" d="M459.2562,-501.5337C516.4149,-499.8561 612.8931,-495.3826 695,-483.5278 769.4179,-472.7831 854.3772,-451.9939 904.889,-438.7124"/>
<polygon fill="#191970" stroke="#191970" points="906.0537,-442.0246 914.8236,-436.08 904.2607,-435.2581 906.0537,-442.0246"/>
</g>
<!-- Node386818 -->
<g id="node9" class="node">
<title>Node386818</title>
<g id="a_node9"><a xlink:href="quickjs_8c.html#a288254c06a39c9fca740a7abdad2834e" target="_top" xlink:title="__JS_AtomIsTaggedInt">
<polygon fill="none" stroke="#000000" points="545.5,-189.0278 545.5,-208.0278 664.5,-208.0278 664.5,-189.0278 545.5,-189.0278"/>
<text text-anchor="middle" x="605" y="-196.0278" font-family="Helvetica,sans-Serif" font-size="10.00" fill="#000000">__JS_AtomIsTaggedInt</text>
</a>
</g>
</g>
<!-- Node386817&#45;&gt;Node386818 -->
<g id="edge8" class="edge">
<title>Node386817&#45;&gt;Node386818</title>
<path fill="none" stroke="#191970" d="M419.6605,-283.921C437.4821,-267.6292 476.1839,-234.6837 515,-217.5278 521.5272,-214.6429 528.5181,-212.1862 535.6118,-210.0962"/>
<polygon fill="#191970" stroke="#191970" points="536.578,-213.4607 545.3149,-207.4676 534.7476,-206.7042 536.578,-213.4607"/>
</g>
<!-- Node386819 -->
<g id="node10" class="node">
<title>Node386819</title>
<g id="a_node10"><a xlink:href="quickjs_8c.html#a89f38938cee8077ce1fbba07946ed185" target="_top" xlink:title="__JS_AtomToUInt32">
<polygon fill="none" stroke="#000000" points="551,-151.0278 551,-170.0278 659,-170.0278 659,-151.0278 551,-151.0278"/>
<text text-anchor="middle" x="605" y="-158.0278" font-family="Helvetica,sans-Serif" font-size="10.00" fill="#000000">__JS_AtomToUInt32</text>
</a>
</g>
</g>
<!-- Node386817&#45;&gt;Node386819 -->
<g id="edge9" class="edge">
<title>Node386817&#45;&gt;Node386819</title>
<path fill="none" stroke="#191970" d="M415.4885,-283.7066C429.7056,-261.2985 467.8569,-206.2753 515,-179.5278 522.9561,-175.0138 531.8577,-171.5685 540.8834,-168.9398"/>
<polygon fill="#191970" stroke="#191970" points="541.8868,-172.2955 550.6871,-166.3959 540.1285,-165.5199 541.8868,-172.2955"/>
</g>
<!-- Node386820 -->
<g id="node11" class="node">
<title>Node386820</title>
<g id="a_node11"><a xlink:href="quickjs_8c.html#a06b76f5124fd985e35f4c652fd018d6d" target="_top" xlink:title="find_own_property">
<polygon fill="none" stroke="#000000" points="557,-75.0278 557,-94.0278 653,-94.0278 653,-75.0278 557,-75.0278"/>
<text text-anchor="middle" x="605" y="-82.0278" font-family="Helvetica,sans-Serif" font-size="10.00" fill="#000000">find_own_property</text>
</a>
</g>
</g>
<!-- Node386817&#45;&gt;Node386820 -->
<g id="edge10" class="edge">
<title>Node386817&#45;&gt;Node386820</title>
<path fill="none" stroke="#191970" d="M414.3403,-284.011C427.647,-258.5246 467.0012,-187.5439 515,-141.5278 533.1597,-124.1182 557.4297,-109.1174 576.1902,-98.8806"/>
<polygon fill="#191970" stroke="#191970" points="577.9807,-101.8927 585.1711,-94.1113 574.6976,-95.7103 577.9807,-101.8927"/>
</g>
<!-- Node386821 -->
<g id="node14" class="node">
<title>Node386821</title>
<g id="a_node14"><a xlink:href="quickjs_8c.html#a8aac7988cf0c6f3c2b629a6662fd7ec8" target="_top" xlink:title="JS_AutoInitProperty">
<polygon fill="none" stroke="#000000" points="553,-227.0278 553,-246.0278 657,-246.0278 657,-227.0278 553,-227.0278"/>
<text text-anchor="middle" x="605" y="-234.0278" font-family="Helvetica,sans-Serif" font-size="10.00" fill="#000000">JS_AutoInitProperty</text>
</a>
</g>
</g>
<!-- Node386817&#45;&gt;Node386821 -->
<g id="edge13" class="edge">
<title>Node386817&#45;&gt;Node386821</title>
<path fill="none" stroke="#191970" d="M438.9574,-283.9447C460.0601,-277.17 489.1928,-268.0013 515,-260.5278 528.874,-256.51 544.0227,-252.3743 557.8678,-248.6919"/>
<polygon fill="#191970" stroke="#191970" points="558.9077,-252.0373 567.6818,-246.0989 557.1195,-245.2696 558.9077,-252.0373"/>
</g>
<!-- Node386830 -->
<g id="node20" class="node">
<title>Node386830</title>
<g id="a_node20"><a xlink:href="quickjs_8h.html#a775522f2d084fc8fa0fcb33f390006b4" target="_top" xlink:title="JS_DupValue">
<polygon fill="none" stroke="#000000" points="911,-313.0278 911,-332.0278 988,-332.0278 988,-313.0278 911,-313.0278"/>
<text text-anchor="middle" x="949.5" y="-320.0278" font-family="Helvetica,sans-Serif" font-size="10.00" fill="#000000">JS_DupValue</text>
</a>
</g>
</g>
<!-- Node386817&#45;&gt;Node386830 -->
<g id="edge21" class="edge">
<title>Node386817&#45;&gt;Node386830</title>
<path fill="none" stroke="#191970" d="M479.083,-291.3266C536.9304,-290.0251 621.3892,-289.3474 695,-293.5278 766.8587,-297.6087 849.5814,-308.121 900.7087,-315.3014"/>
<polygon fill="#191970" stroke="#191970" points="900.4194,-318.7954 910.8119,-316.7348 901.4028,-311.8648 900.4194,-318.7954"/>
</g>
<!-- Node386835 -->
<g id="node21" class="node">
<title>Node386835</title>
<g id="a_node21"><a xlink:href="quickjs_8c.html#aeb97957655d979e9fe56c955da2b2d4b" target="_top" xlink:title="JS_GetPropertyUint32">
<polygon fill="none" stroke="#000000" points="547.5,-303.0278 547.5,-322.0278 662.5,-322.0278 662.5,-303.0278 547.5,-303.0278"/>
<text text-anchor="middle" x="605" y="-310.0278" font-family="Helvetica,sans-Serif" font-size="10.00" fill="#000000">JS_GetPropertyUint32</text>
</a>
</g>
</g>
<!-- Node386817&#45;&gt;Node386835 -->
<g id="edge22" class="edge">
<title>Node386817&#45;&gt;Node386835</title>
<path fill="none" stroke="#191970" d="M479.252,-300.3068C498.0343,-302.1322 518.3228,-304.1039 537.0078,-305.9199"/>
<polygon fill="#191970" stroke="#191970" points="536.9119,-309.4269 547.2036,-306.9107 537.5891,-302.4598 536.9119,-309.4269"/>
</g>
<!-- Node387088 -->
<g id="node24" class="node">
<title>Node387088</title>
<g id="a_node24"><a xlink:href="quickjs_8h.html#aaab426b47c95d00479b7355b1cf7f56c" target="_top" xlink:title="JS_IsUninitialized">
<polygon fill="none" stroke="#000000" points="557.5,-341.0278 557.5,-360.0278 652.5,-360.0278 652.5,-341.0278 557.5,-341.0278"/>
<text text-anchor="middle" x="605" y="-348.0278" font-family="Helvetica,sans-Serif" font-size="10.00" fill="#000000">JS_IsUninitialized</text>
</a>
</g>
</g>
<!-- Node386817&#45;&gt;Node387088 -->
<g id="edge29" class="edge">
<title>Node386817&#45;&gt;Node387088</title>
<path fill="none" stroke="#191970" d="M433.0781,-303.0779C454.2608,-311.4024 486.3487,-323.3854 515,-331.5278 525.3496,-334.469 536.4853,-337.1781 547.2767,-339.5736"/>
<polygon fill="#191970" stroke="#191970" points="546.5446,-342.9961 557.0578,-341.683 548.0204,-336.1534 546.5446,-342.9961"/>
</g>
<!-- Node387090 -->
<g id="node25" class="node">
<title>Node387090</title>
<g id="a_node25"><a xlink:href="quickjs_8c.html#a75ac132a3af4de01e1fadeb0bede6ee7" target="_top" xlink:title="JS_ThrowReferenceErrorUninitialized">
<polygon fill="none" stroke="#ff0000" points="515,-379.0278 515,-398.0278 695,-398.0278 695,-379.0278 515,-379.0278"/>
<text text-anchor="middle" x="605" y="-386.0278" font-family="Helvetica,sans-Serif" font-size="10.00" fill="#000000">JS_ThrowReferenceErrorUninitialized</text>
</a>
</g>
</g>
<!-- Node386817&#45;&gt;Node387090 -->
<g id="edge30" class="edge">
<title>Node386817&#45;&gt;Node387090</title>
<path fill="none" stroke="#191970" d="M419.6605,-303.1346C437.4821,-319.4264 476.1839,-352.3718 515,-369.5278 520.7512,-372.0697 526.8625,-374.2792 533.0868,-376.1984"/>
<polygon fill="#191970" stroke="#191970" points="532.3505,-379.6274 542.9257,-378.9813 534.2558,-372.8916 532.3505,-379.6274"/>
</g>
<!-- Node386806 -->
<g id="node12" class="node">
<title>Node386806</title>
<g id="a_node12"><a xlink:href="quickjs_8c.html#a643df594b75933007bcdbb071b5ea8c5" target="_top" xlink:title="get_shape_prop">
<polygon fill="none" stroke="#000000" points="906.5,-75.0278 906.5,-94.0278 992.5,-94.0278 992.5,-75.0278 906.5,-75.0278"/>
<text text-anchor="middle" x="949.5" y="-82.0278" font-family="Helvetica,sans-Serif" font-size="10.00" fill="#000000">get_shape_prop</text>
</a>
</g>
</g>
<!-- Node386820&#45;&gt;Node386806 -->
<g id="edge11" class="edge">
<title>Node386820&#45;&gt;Node386806</title>
<path fill="none" stroke="#191970" d="M653.264,-84.5278C717.246,-84.5278 829.78,-84.5278 896.1993,-84.5278"/>
<polygon fill="#191970" stroke="#191970" points="896.4487,-88.0279 906.4487,-84.5278 896.4487,-81.0279 896.4487,-88.0279"/>
</g>
<!-- Node386805 -->
<g id="node13" class="node">
<title>Node386805</title>
<g id="a_node13"><a xlink:href="quickjs_8c.html#acab22c2945c4d609e57a2484feb68a96" target="_top" xlink:title="prop_hash_end">
<polygon fill="none" stroke="#000000" points="753.5,-37.0278 753.5,-56.0278 836.5,-56.0278 836.5,-37.0278 753.5,-37.0278"/>
<text text-anchor="middle" x="795" y="-44.0278" font-family="Helvetica,sans-Serif" font-size="10.00" fill="#000000">prop_hash_end</text>
</a>
</g>
</g>
<!-- Node386820&#45;&gt;Node386805 -->
<g id="edge12" class="edge">
<title>Node386820&#45;&gt;Node386805</title>
<path fill="none" stroke="#191970" d="M652.945,-74.9388C680.4576,-69.4363 715.0144,-62.5249 743.1556,-56.8967"/>
<polygon fill="#191970" stroke="#191970" points="744.0888,-60.2794 753.2082,-54.8862 742.7159,-53.4154 744.0888,-60.2794"/>
</g>
<!-- Node386813 -->
<g id="node15" class="node">
<title>Node386813</title>
<g id="a_node15"><a xlink:href="quickjs_8c.html#af2bcf1faee5b5dd948692540d9cce73e" target="_top" xlink:title="js_autoinit_free">
<polygon fill="none" stroke="#ff0000" points="753.5,-265.0278 753.5,-284.0278 836.5,-284.0278 836.5,-265.0278 753.5,-265.0278"/>
<text text-anchor="middle" x="795" y="-272.0278" font-family="Helvetica,sans-Serif" font-size="10.00" fill="#000000">js_autoinit_free</text>
</a>
</g>
</g>
<!-- Node386821&#45;&gt;Node386813 -->
<g id="edge14" class="edge">
<title>Node386821&#45;&gt;Node386813</title>
<path fill="none" stroke="#191970" d="M652.945,-246.1168C680.4576,-251.6193 715.0144,-258.5307 743.1556,-264.1589"/>
<polygon fill="#191970" stroke="#191970" points="742.7159,-267.6402 753.2082,-266.1694 744.0888,-260.7762 742.7159,-267.6402"/>
</g>
<!-- Node386814 -->
<g id="node16" class="node">
<title>Node386814</title>
<g id="a_node16"><a xlink:href="quickjs_8c.html#ab47c18f4aa00970629cc8e69fe2fdb51" target="_top" xlink:title="js_autoinit_get_realm">
<polygon fill="none" stroke="#000000" points="895,-246.0278 895,-265.0278 1004,-265.0278 1004,-246.0278 895,-246.0278"/>
<text text-anchor="middle" x="949.5" y="-253.0278" font-family="Helvetica,sans-Serif" font-size="10.00" fill="#000000">js_autoinit_get_realm</text>
</a>
</g>
</g>
<!-- Node386821&#45;&gt;Node386814 -->
<g id="edge17" class="edge">
<title>Node386821&#45;&gt;Node386814</title>
<path fill="none" stroke="#191970" d="M657.3221,-239.4135C718.2485,-242.7737 818.9149,-248.3257 884.7241,-251.9552"/>
<polygon fill="#191970" stroke="#191970" points="884.7978,-255.4645 894.9754,-252.5206 885.1833,-248.4752 884.7978,-255.4645"/>
</g>
<!-- Node386822 -->
<g id="node17" class="node">
<title>Node386822</title>
<g id="a_node17"><a xlink:href="quickjs_8c.html#a822a6c16ff56aeab5fa7e87a076c6b06" target="_top" xlink:title="js_autoinit_get_id">
<polygon fill="none" stroke="#000000" points="749,-151.0278 749,-170.0278 841,-170.0278 841,-151.0278 749,-151.0278"/>
<text text-anchor="middle" x="795" y="-158.0278" font-family="Helvetica,sans-Serif" font-size="10.00" fill="#000000">js_autoinit_get_id</text>
</a>
</g>
</g>
<!-- Node386821&#45;&gt;Node386822 -->
<g id="edge16" class="edge">
<title>Node386821&#45;&gt;Node386822</title>
<path fill="none" stroke="#191970" d="M657.3766,-230.9906C670.2324,-228.1709 683.573,-223.9231 695,-217.5278 715.3012,-206.1658 711.1726,-191.6978 731,-179.5278 734.4033,-177.4389 738.0497,-175.568 741.8123,-173.8945"/>
<polygon fill="#191970" stroke="#191970" points="743.3201,-177.062 751.3315,-170.1289 740.7452,-170.5528 743.3201,-177.062"/>
</g>
<!-- Node386823 -->
<g id="node18" class="node">
<title>Node386823</title>
<g id="a_node18"><a xlink:href="quickjs_8h.html#ad80a83d73e9b7d872b88fbf2943aebe9" target="_top" xlink:title="JS_IsException">
<polygon fill="none" stroke="#000000" points="752,-189.0278 752,-208.0278 838,-208.0278 838,-189.0278 752,-189.0278"/>
<text text-anchor="middle" x="795" y="-196.0278" font-family="Helvetica,sans-Serif" font-size="10.00" fill="#000000">JS_IsException</text>
</a>
</g>
</g>
<!-- Node386821&#45;&gt;Node386823 -->
<g id="edge18" class="edge">
<title>Node386821&#45;&gt;Node386823</title>
<path fill="none" stroke="#191970" d="M652.945,-226.9388C680.066,-221.5146 714.032,-214.7214 741.95,-209.1378"/>
<polygon fill="#191970" stroke="#191970" points="742.8186,-212.5335 751.938,-207.1402 741.4458,-205.6694 742.8186,-212.5335"/>
</g>
<!-- Node386824 -->
<g id="node19" class="node">
<title>Node386824</title>
<g id="a_node19"><a xlink:href="quickjs_8c.html#a3dd8e78607dbc729614deacf55901b95" target="_top" xlink:title="js_shape_prepare_update">
<polygon fill="none" stroke="#ff0000" points="731,-113.0278 731,-132.0278 859,-132.0278 859,-113.0278 731,-113.0278"/>
<text text-anchor="middle" x="795" y="-120.0278" font-family="Helvetica,sans-Serif" font-size="10.00" fill="#000000">js_shape_prepare_update</text>
</a>
</g>
</g>
<!-- Node386821&#45;&gt;Node386824 -->
<g id="edge19" class="edge">
<title>Node386821&#45;&gt;Node386824</title>
<path fill="none" stroke="#191970" d="M657.0926,-233.7773C670.5263,-230.9736 684.2202,-226.0372 695,-217.5278 724.3367,-194.3697 702.6193,-165.8481 731,-141.5278 732.9637,-139.845 735.0713,-138.3112 737.2828,-136.9133"/>
<polygon fill="#191970" stroke="#191970" points="739.0447,-139.9407 746.2429,-132.1666 735.7678,-133.7551 739.0447,-139.9407"/>
</g>
<!-- Node386813&#45;&gt;Node386814 -->
<g id="edge15" class="edge">
<title>Node386813&#45;&gt;Node386814</title>
<path fill="none" stroke="#191970" d="M836.8099,-269.3861C851.6113,-267.5659 868.6289,-265.4731 884.8799,-263.4746"/>
<polygon fill="#191970" stroke="#191970" points="885.3748,-266.9402 894.8728,-262.2457 884.5204,-259.9925 885.3748,-266.9402"/>
</g>
<!-- Node386824&#45;&gt;Node386806 -->
<g id="edge20" class="edge">
<title>Node386824&#45;&gt;Node386806</title>
<path fill="none" stroke="#191970" d="M833.9869,-112.9388C854.283,-107.9469 879.2935,-101.7954 900.8462,-96.4944"/>
<polygon fill="#191970" stroke="#191970" points="901.9188,-99.835 910.7935,-94.0478 900.2469,-93.0376 901.9188,-99.835"/>
</g>
<!-- Node386836 -->
<g id="node22" class="node">
<title>Node386836</title>
<g id="a_node22"><a xlink:href="quickjs_8c.html#a90d6e607f6917d817c1e997bd2e6ed07" target="_top" xlink:title="JS_GetPropertyValue">
<polygon fill="none" stroke="#ff0000" points="739.5,-379.0278 739.5,-398.0278 850.5,-398.0278 850.5,-379.0278 739.5,-379.0278"/>
<text text-anchor="middle" x="795" y="-386.0278" font-family="Helvetica,sans-Serif" font-size="10.00" fill="#000000">JS_GetPropertyValue</text>
</a>
</g>
</g>
<!-- Node386835&#45;&gt;Node386836 -->
<g id="edge23" class="edge">
<title>Node386835&#45;&gt;Node386836</title>
<path fill="none" stroke="#191970" d="M662.7492,-319.9465C673.8253,-322.6782 685.059,-326.4154 695,-331.5278 714.3022,-341.4544 712.4999,-353.1762 731,-364.5278 737.7561,-368.6733 745.3438,-372.2895 752.8691,-375.3703"/>
<polygon fill="#191970" stroke="#191970" points="751.7103,-378.6744 762.3005,-378.9859 754.216,-372.1382 751.7103,-378.6744"/>
</g>
<!-- Node386976 -->
<g id="node23" class="node">
<title>Node386976</title>
<g id="a_node23"><a xlink:href="quickjs_8h.html#a88259aa0da61ac754402c64ccecee116" target="_top" xlink:title="JS_NewUint32">
<polygon fill="none" stroke="#ff0000" points="908,-370.0278 908,-389.0278 991,-389.0278 991,-370.0278 908,-370.0278"/>
<text text-anchor="middle" x="949.5" y="-377.0278" font-family="Helvetica,sans-Serif" font-size="10.00" fill="#000000">JS_NewUint32</text>
</a>
</g>
</g>
<!-- Node386835&#45;&gt;Node386976 -->
<g id="edge28" class="edge">
<title>Node386835&#45;&gt;Node386976</title>
<path fill="none" stroke="#191970" d="M653.9926,-322.0561C718.6172,-334.6246 831.8506,-356.6468 897.8004,-369.473"/>
<polygon fill="#191970" stroke="#191970" points="897.48,-372.9762 907.9643,-371.4497 898.8165,-366.105 897.48,-372.9762"/>
</g>
<!-- Node386836&#45;&gt;Node386778 -->
<g id="edge26" class="edge">
<title>Node386836&#45;&gt;Node386778</title>
<path fill="none" stroke="#191970" d="M807.9068,-398.0513C834.4236,-417.617 895.2747,-462.5169 927.9006,-486.5904"/>
<polygon fill="#191970" stroke="#191970" points="926.1777,-489.6687 936.3024,-492.7897 930.3338,-484.0361 926.1777,-489.6687"/>
</g>
<!-- Node386836&#45;&gt;Node386800 -->
<g id="edge25" class="edge">
<title>Node386836&#45;&gt;Node386800</title>
<path fill="none" stroke="#191970" d="M833.9869,-398.1168C854.283,-403.1087 879.2935,-409.2602 900.8462,-414.5611"/>
<polygon fill="#191970" stroke="#191970" points="900.2469,-418.018 910.7935,-417.0077 901.9188,-411.2206 900.2469,-418.018"/>
</g>
<!-- Node386836&#45;&gt;Node386830 -->
<g id="edge24" class="edge">
<title>Node386836&#45;&gt;Node386830</title>
<path fill="none" stroke="#191970" d="M817.4656,-378.9308C843.858,-367.6564 887.8275,-348.8733 917.7097,-336.1081"/>
<polygon fill="#191970" stroke="#191970" points="919.4368,-339.1764 927.2579,-332.0293 916.6869,-332.7391 919.4368,-339.1764"/>
</g>
<!-- Node386836&#45;&gt;Node386976 -->
<g id="edge27" class="edge">
<title>Node386836&#45;&gt;Node386976</title>
<path fill="none" stroke="#191970" d="M850.778,-385.2786C866.0878,-384.3868 882.6199,-383.4237 897.6962,-382.5455"/>
<polygon fill="#191970" stroke="#191970" points="898.0887,-386.0287 907.8682,-381.9529 897.6815,-379.0405 898.0887,-386.0287"/>
</g>
<!-- Node387086&#45;&gt;Node386777 -->
<g id="edge34" class="edge">
<title>Node387086&#45;&gt;Node386777</title>
<path fill="none" stroke="#191970" d="M228.4121,-436.1512C247.6234,-455.2503 293.4782,-498.1164 340,-521.5278 347.3877,-525.2455 355.5953,-528.3103 363.7064,-530.8114"/>
<polygon fill="#191970" stroke="#191970" points="362.9151,-534.2249 373.4908,-533.5885 364.8265,-527.491 362.9151,-534.2249"/>
</g>
<!-- Node387086&#45;&gt;Node386816 -->
<g id="edge35" class="edge">
<title>Node387086&#45;&gt;Node386816</title>
<path fill="none" stroke="#191970" d="M240.225,-436.2112C264.2339,-447.0327 304.6022,-464.831 340,-478.5278 349.8216,-482.3282 360.5308,-486.1716 370.5355,-489.6356"/>
<polygon fill="#191970" stroke="#191970" points="369.6518,-493.0324 380.2464,-492.9576 371.9176,-486.4092 369.6518,-493.0324"/>
</g>
<!-- Node387086&#45;&gt;Node386799 -->
<g id="edge33" class="edge">
<title>Node387086&#45;&gt;Node386799</title>
<path fill="none" stroke="#191970" d="M298.7005,-436.0345C312.4667,-437.5949 326.6424,-439.1504 340,-440.5278 423.2661,-449.114 521.4266,-457.5696 571.678,-461.7776"/>
<polygon fill="#191970" stroke="#191970" points="571.6847,-465.2902 581.941,-462.6337 572.2666,-458.3145 571.6847,-465.2902"/>
</g>
<!-- Node387086&#45;&gt;Node386800 -->
<g id="edge36" class="edge">
<title>Node387086&#45;&gt;Node386800</title>
<path fill="none" stroke="#191970" d="M304.2273,-426.5278C458.1888,-426.5278 778.0472,-426.5278 900.4224,-426.5278"/>
<polygon fill="#191970" stroke="#191970" points="900.6103,-430.0279 910.6102,-426.5278 900.6102,-423.0279 900.6103,-430.0279"/>
</g>
<!-- Node387086&#45;&gt;Node386817 -->
<g id="edge37" class="edge">
<title>Node387086&#45;&gt;Node386817</title>
<path fill="none" stroke="#191970" d="M276.8897,-416.9198C286.6064,-413.4908 296.0883,-408.8387 304,-402.5278 330.121,-381.6918 317.0284,-360.7919 340,-336.5278 350.9893,-324.9202 365.7657,-315.2015 378.8679,-307.9572"/>
<polygon fill="#191970" stroke="#191970" points="380.8186,-310.8856 388.0344,-303.1279 377.5557,-304.6925 380.8186,-310.8856"/>
</g>
<!-- Node387086&#45;&gt;Node386806 -->
<g id="edge32" class="edge">
<title>Node387086&#45;&gt;Node386806</title>
<path fill="none" stroke="#191970" d="M240.2545,-416.9825C259.3254,-407.4411 286.8731,-391.0945 304,-369.5278 332.0797,-334.169 317.1875,-313.4932 340,-274.5278 401.2103,-169.9763 410.0994,-126.138 515,-65.5278 648.1858,11.4253 711.2156,15.1338 859,-27.5278 886.3454,-35.4217 913.3893,-54.2975 930.6893,-68.1742"/>
<polygon fill="#191970" stroke="#191970" points="928.8639,-71.207 938.7978,-74.8906 933.3292,-65.8161 928.8639,-71.207"/>
</g>
<!-- Node387086&#45;&gt;Node387088 -->
<g id="edge38" class="edge">
<title>Node387086&#45;&gt;Node387088</title>
<path fill="none" stroke="#191970" d="M252.9849,-417.0199C277.1391,-410.4592 310.4103,-401.8193 340,-395.5278 410.9689,-380.438 493.482,-367.0787 547.3389,-358.9139"/>
<polygon fill="#191970" stroke="#191970" points="548.017,-362.3513 557.3841,-357.4009 546.9743,-355.4294 548.017,-362.3513"/>
</g>
<!-- Node387086&#45;&gt;Node387090 -->
<g id="edge39" class="edge">
<title>Node387086&#45;&gt;Node387090</title>
<path fill="none" stroke="#191970" d="M298.7005,-417.0211C312.4667,-415.4607 326.6424,-413.9052 340,-412.5278 394.3822,-406.92 455.1176,-401.368 504.71,-397.0186"/>
<polygon fill="#191970" stroke="#191970" points="505.1381,-400.4946 514.7953,-396.1371 504.5286,-393.5212 505.1381,-400.4946"/>
</g>
</g>
</svg>
        <g id="navigator" transform="translate(0 0)" fill="#404254">
                <rect fill="#f2f5e9" fill-opacity="0.5" stroke="#606060" stroke-width=".5" x="0" y="0" width="60" height="60"/>
                <use id="zoomplus" xlink:href="#zoomPlus" x="17" y="9" onmousedown="handleZoom(evt,'in')"/>
                <use id="zoomminus" xlink:href="#zoomMin" x="42" y="9" onmousedown="handleZoom(evt,'out')"/>
                <use id="reset" xlink:href="#resetDef" x="30" y="36" onmousedown="handleReset()"/>
                <g id="arrowUp" xlink:href="#dirArrow" transform="translate(30 24)" onmousedown="handlePan(0,-1)">
                  <use xlink:href="#rim" fill="#404040">
                        <set attributeName="fill" to="#808080" begin="arrowUp.mouseover" end="arrowUp.mouseout"/>
                  </use>
                  <path fill="none" stroke="white" stroke-width="1.5" d="M0,-3.0v7 M-2.5,-0.5L0,-3.0L2.5,-0.5"/>
                </g>
                <g id="arrowRight" xlink:href="#dirArrow" transform="rotate(90) translate(36 -43)" onmousedown="handlePan(1,0)">
                  <use xlink:href="#rim" fill="#404040">
                        <set attributeName="fill" to="#808080" begin="arrowRight.mouseover" end="arrowRight.mouseout"/>
                  </use>
                  <path fill="none" stroke="white" stroke-width="1.5" d="M0,-3.0v7 M-2.5,-0.5L0,-3.0L2.5,-0.5"/>
                </g>
                <g id="arrowDown" xlink:href="#dirArrow" transform="rotate(180) translate(-30 -48)" onmousedown="handlePan(0,1)">
                  <use xlink:href="#rim" fill="#404040">
                        <set attributeName="fill" to="#808080" begin="arrowDown.mouseover" end="arrowDown.mouseout"/>
                  </use>
                  <path fill="none" stroke="white" stroke-width="1.5" d="M0,-3.0v7 M-2.5,-0.5L0,-3.0L2.5,-0.5"/>
                </g>
                <g id="arrowLeft" xlink:href="#dirArrow" transform="rotate(270) translate(-36 17)" onmousedown="handlePan(-1,0)">
                  <use xlink:href="#rim" fill="#404040">
                        <set attributeName="fill" to="#808080" begin="arrowLeft.mouseover" end="arrowLeft.mouseout"/>
                  </use>
                  <path fill="none" stroke="white" stroke-width="1.5" d="M0,-3.0v7 M-2.5,-0.5L0,-3.0L2.5,-0.5"/>
                </g>
        </g>
        <svg viewBox="0 0 15 15" width="100%" height="30px" preserveAspectRatio="xMaxYMin meet">
         <g id="arrow_out" transform="scale(0.3 0.3)">
          <a xlink:href="quickjs_8c_a43a4ecde0329def8ff22e9341c7b109d_cgraph_org.svg" target="_base">
           <rect id="button" ry="5" rx="5" y="6" x="6" height="38" width="38"
                fill="#f2f5e9" fill-opacity="0.5" stroke="#606060" stroke-width="1.0"/>
           <path id="arrow"
             d="M 11.500037,31.436501 C 11.940474,20.09759 22.043105,11.32322 32.158766,21.979434 L 37.068811,17.246167 C 37.068811,17.246167 37.088388,32 37.088388,32 L 22.160133,31.978069 C 22.160133,31.978069 26.997745,27.140456 26.997745,27.140456 C 18.528582,18.264221 13.291696,25.230495 11.500037,31.436501 z"
             style="fill:#404040;"/>
          </a>
         </g>
        </svg>
</svg>
