<?xml version="1.0" encoding="UTF-8" standalone="no"?>
<!DOCTYPE svg PUBLIC "-//W3C//DTD SVG 1.1//EN"
 "http://www.w3.org/Graphics/SVG/1.1/DTD/svg11.dtd">
<!-- Generated by graphviz version 2.40.1 (20161225.0304)
 -->
<!-- Title: js_parse_array_literal Pages: 1 -->
<svg width="682pt" height="228pt"
 viewBox="0.00 0.00 682.00 228.00" xmlns="http://www.w3.org/2000/svg" xmlns:xlink="http://www.w3.org/1999/xlink">
<g id="graph0" class="graph" transform="scale(1 1) rotate(0) translate(4 224)">
<title>js_parse_array_literal</title>
<!-- Node323151 -->
<g id="node1" class="node">
<title>Node323151</title>
<polygon fill="#bfbfbf" stroke="#000000" points="0,-134.5 0,-153.5 109,-153.5 109,-134.5 0,-134.5"/>
<text text-anchor="middle" x="54.5" y="-141.5" font-family="Helvetica,sans-Serif" font-size="10.00" fill="#000000">js_parse_array_literal</text>
</g>
<!-- Node323152 -->
<g id="node2" class="node">
<title>Node323152</title>
<g id="a_node2"><a xlink:href="quickjs_8c.html#a840642c87c5a82d4cc68333376a3b6de" target="_top" xlink:title="js_parse_postfix_expr">
<polygon fill="none" stroke="#000000" points="145,-134.5 145,-153.5 257,-153.5 257,-134.5 145,-134.5"/>
<text text-anchor="middle" x="201" y="-141.5" font-family="Helvetica,sans-Serif" font-size="10.00" fill="#000000">js_parse_postfix_expr</text>
</a>
</g>
</g>
<!-- Node323151&#45;&gt;Node323152 -->
<g id="edge1" class="edge">
<title>Node323151&#45;&gt;Node323152</title>
<path fill="none" stroke="#191970" d="M119.0685,-144C127.6903,-144 136.4749,-144 144.9352,-144"/>
<polygon fill="#191970" stroke="#191970" points="119.0512,-140.5001 109.0512,-144 119.0512,-147.5001 119.0512,-140.5001"/>
</g>
<!-- Node323152&#45;&gt;Node323152 -->
<g id="edge10" class="edge">
<title>Node323152&#45;&gt;Node323152</title>
<path fill="none" stroke="#191970" d="M174.9584,-163.0292C176.3789,-168.128 185.0594,-172 201,-172 225.8828,-172 233.0755,-162.5653 222.5781,-153.7571"/>
<polygon fill="#191970" stroke="#191970" points="178.238,-164.2855 179.4219,-153.7571 171.9308,-161.2493 178.238,-164.2855"/>
</g>
<!-- Node323153 -->
<g id="node3" class="node">
<title>Node323153</title>
<g id="a_node3"><a xlink:href="quickjs_8c.html#a12b48ce2b1f247b494fdde07dbe7f232" target="_top" xlink:title="js_parse_left_hand\l_side_expr">
<polygon fill="none" stroke="#000000" points="293,-151 293,-181 391,-181 391,-151 293,-151"/>
<text text-anchor="start" x="301" y="-169" font-family="Helvetica,sans-Serif" font-size="10.00" fill="#000000">js_parse_left_hand</text>
<text text-anchor="middle" x="342" y="-158" font-family="Helvetica,sans-Serif" font-size="10.00" fill="#000000">_side_expr</text>
</a>
</g>
</g>
<!-- Node323152&#45;&gt;Node323153 -->
<g id="edge2" class="edge">
<title>Node323152&#45;&gt;Node323153</title>
<path fill="none" stroke="#191970" d="M267.2133,-154.3312C275.8615,-155.6805 284.596,-157.0434 292.8938,-158.338"/>
<polygon fill="#191970" stroke="#191970" points="267.5521,-150.8418 257.1321,-152.7582 266.4729,-157.7581 267.5521,-150.8418"/>
</g>
<!-- Node323174 -->
<g id="node7" class="node">
<title>Node323174</title>
<g id="a_node7"><a xlink:href="quickjs_8c.html#a9f26c765171d977db1796791f035f1f9" target="_top" xlink:title="js_parse_unary">
<polygon fill="none" stroke="#000000" points="300.5,-56.5 300.5,-75.5 383.5,-75.5 383.5,-56.5 300.5,-56.5"/>
<text text-anchor="middle" x="342" y="-63.5" font-family="Helvetica,sans-Serif" font-size="10.00" fill="#000000">js_parse_unary</text>
</a>
</g>
</g>
<!-- Node323152&#45;&gt;Node323174 -->
<g id="edge11" class="edge">
<title>Node323152&#45;&gt;Node323174</title>
<path fill="none" stroke="#191970" d="M227.2563,-129.4752C255.6706,-113.7567 300.178,-89.1356 324.5692,-75.6426"/>
<polygon fill="#191970" stroke="#191970" points="225.3455,-126.5324 218.2894,-134.4357 228.734,-132.6576 225.3455,-126.5324"/>
</g>
<!-- Node323154 -->
<g id="node4" class="node">
<title>Node323154</title>
<g id="a_node4"><a xlink:href="quickjs_8c.html#a00eb789430243c24dab4a63ad6a79653" target="_top" xlink:title="js_parse_class">
<polygon fill="none" stroke="#ff0000" points="443.5,-200.5 443.5,-219.5 525.5,-219.5 525.5,-200.5 443.5,-200.5"/>
<text text-anchor="middle" x="484.5" y="-207.5" font-family="Helvetica,sans-Serif" font-size="10.00" fill="#000000">js_parse_class</text>
</a>
</g>
</g>
<!-- Node323153&#45;&gt;Node323154 -->
<g id="edge3" class="edge">
<title>Node323153&#45;&gt;Node323154</title>
<path fill="none" stroke="#191970" d="M400.3198,-184.0075C418.5326,-189.6311 437.9117,-195.6148 453.4794,-200.4217"/>
<polygon fill="#191970" stroke="#191970" points="401.2294,-180.6254 390.6419,-181.0192 399.1641,-187.3138 401.2294,-180.6254"/>
</g>
<!-- Node323172 -->
<g id="node5" class="node">
<title>Node323172</title>
<g id="a_node5"><a xlink:href="quickjs_8c.html#a26be546cf89c4580ba9020e8fc43a759" target="_top" xlink:title="js_parse_destructuring\l_element">
<polygon fill="none" stroke="#ff0000" points="427,-95 427,-125 542,-125 542,-95 427,-95"/>
<text text-anchor="start" x="435" y="-113" font-family="Helvetica,sans-Serif" font-size="10.00" fill="#000000">js_parse_destructuring</text>
<text text-anchor="middle" x="484.5" y="-102" font-family="Helvetica,sans-Serif" font-size="10.00" fill="#000000">_element</text>
</a>
</g>
</g>
<!-- Node323153&#45;&gt;Node323172 -->
<g id="edge5" class="edge">
<title>Node323153&#45;&gt;Node323172</title>
<path fill="none" stroke="#191970" d="M389.5701,-147.3058C407.9858,-140.0687 428.7829,-131.8958 446.2072,-125.0484"/>
<polygon fill="#191970" stroke="#191970" points="388.2144,-144.0779 380.1874,-150.993 390.7747,-150.5929 388.2144,-144.0779"/>
</g>
<!-- Node323163 -->
<g id="node6" class="node">
<title>Node323163</title>
<g id="a_node6"><a xlink:href="quickjs_8c.html#ac188b916dd086803591a67de7e7a85f6" target="_top" xlink:title="js_parse_for_in_of">
<polygon fill="none" stroke="#ff0000" points="578,-131.5 578,-150.5 674,-150.5 674,-131.5 578,-131.5"/>
<text text-anchor="middle" x="626" y="-138.5" font-family="Helvetica,sans-Serif" font-size="10.00" fill="#000000">js_parse_for_in_of</text>
</a>
</g>
</g>
<!-- Node323153&#45;&gt;Node323163 -->
<g id="edge9" class="edge">
<title>Node323153&#45;&gt;Node323163</title>
<path fill="none" stroke="#191970" d="M401.4799,-163.3352C441.3106,-161.2555 494.8795,-157.8898 542,-153 553.5756,-151.7988 566.0063,-150.1962 577.6618,-148.5543"/>
<polygon fill="#191970" stroke="#191970" points="401.2125,-159.8441 391.4038,-163.8492 401.5692,-166.8351 401.2125,-159.8441"/>
</g>
<!-- Node323154&#45;&gt;Node323152 -->
<g id="edge4" class="edge">
<title>Node323154&#45;&gt;Node323152</title>
<path fill="none" stroke="#191970" d="M433.215,-210.058C394.0751,-208.8789 339.2001,-204.5656 293,-191 263.9163,-182.4603 233.138,-164.7128 215.5774,-153.6363"/>
<polygon fill="#191970" stroke="#191970" points="433.2313,-213.5593 443.3134,-210.3034 433.4014,-206.5614 433.2313,-213.5593"/>
</g>
<!-- Node323172&#45;&gt;Node323152 -->
<g id="edge7" class="edge">
<title>Node323172&#45;&gt;Node323152</title>
<path fill="none" stroke="#191970" d="M416.5093,-118.1541C367.7344,-124.0036 302.8088,-131.7901 257.0105,-137.2827"/>
<polygon fill="#191970" stroke="#191970" points="417.1475,-121.6027 426.6595,-116.9368 416.3139,-114.6525 417.1475,-121.6027"/>
</g>
<!-- Node323172&#45;&gt;Node323172 -->
<g id="edge6" class="edge">
<title>Node323172&#45;&gt;Node323172</title>
<path fill="none" stroke="#191970" d="M459.6237,-135.4579C462.7112,-140.179 471.0033,-143.5 484.5,-143.5 506.6484,-143.5 514.7811,-134.5566 508.8979,-125.159"/>
<polygon fill="#191970" stroke="#191970" points="463.1342,-135.3107 460.1021,-125.159 456.1418,-134.9858 463.1342,-135.3107"/>
</g>
<!-- Node323172&#45;&gt;Node323163 -->
<g id="edge8" class="edge">
<title>Node323172&#45;&gt;Node323163</title>
<path fill="none" stroke="#191970" d="M551.925,-124.7715C562.2818,-127.0405 572.7338,-129.3304 582.3907,-131.446"/>
<polygon fill="#191970" stroke="#191970" points="552.5708,-121.3301 542.0535,-122.6089 551.0727,-128.1679 552.5708,-121.3301"/>
</g>
<!-- Node323174&#45;&gt;Node323174 -->
<g id="edge16" class="edge">
<title>Node323174&#45;&gt;Node323174</title>
<path fill="none" stroke="#191970" d="M315.9584,-85.0292C317.3789,-90.128 326.0594,-94 342,-94 366.8828,-94 374.0755,-84.5653 363.5781,-75.7571"/>
<polygon fill="#191970" stroke="#191970" points="319.238,-86.2855 320.4219,-75.7571 312.9308,-83.2493 319.238,-86.2855"/>
</g>
<!-- Node323175 -->
<g id="node8" class="node">
<title>Node323175</title>
<g id="a_node8"><a xlink:href="quickjs_8c.html#a2ecfb6abb190101748202a8aa5821fba" target="_top" xlink:title="js_parse_delete">
<polygon fill="none" stroke="#000000" points="442,-56.5 442,-75.5 527,-75.5 527,-56.5 442,-56.5"/>
<text text-anchor="middle" x="484.5" y="-63.5" font-family="Helvetica,sans-Serif" font-size="10.00" fill="#000000">js_parse_delete</text>
</a>
</g>
</g>
<!-- Node323174&#45;&gt;Node323175 -->
<g id="edge12" class="edge">
<title>Node323174&#45;&gt;Node323175</title>
<path fill="none" stroke="#191970" d="M393.7008,-59.4811C409.4278,-59.1005 426.532,-59.19 441.611,-59.7497"/>
<polygon fill="#191970" stroke="#191970" points="393.4849,-55.9861 383.6,-59.7989 393.7051,-62.9826 393.4849,-55.9861"/>
</g>
<!-- Node323176 -->
<g id="node9" class="node">
<title>Node323176</title>
<g id="a_node9"><a xlink:href="quickjs_8c.html#ad70b14684de2ed3babfd7c2264249437" target="_top" xlink:title="js_parse_expr_binary">
<polygon fill="none" stroke="#ff0000" points="430,-.5 430,-19.5 539,-19.5 539,-.5 430,-.5"/>
<text text-anchor="middle" x="484.5" y="-7.5" font-family="Helvetica,sans-Serif" font-size="10.00" fill="#000000">js_parse_expr_binary</text>
</a>
</g>
</g>
<!-- Node323174&#45;&gt;Node323176 -->
<g id="edge14" class="edge">
<title>Node323174&#45;&gt;Node323176</title>
<path fill="none" stroke="#191970" d="M375.9607,-52.6541C401.9469,-42.4419 437.1476,-28.6086 460.323,-19.5011"/>
<polygon fill="#191970" stroke="#191970" points="374.5236,-49.4582 366.4966,-56.3733 377.0839,-55.9732 374.5236,-49.4582"/>
</g>
<!-- Node323175&#45;&gt;Node323174 -->
<g id="edge13" class="edge">
<title>Node323175&#45;&gt;Node323174</title>
<path fill="none" stroke="#191970" d="M431.4462,-72.5504C415.6432,-72.9041 398.5603,-72.7877 383.6,-72.2011"/>
<polygon fill="#191970" stroke="#191970" points="431.7186,-76.044 441.611,-72.2503 431.512,-69.047 431.7186,-76.044"/>
</g>
<!-- Node323176&#45;&gt;Node323176 -->
<g id="edge15" class="edge">
<title>Node323176&#45;&gt;Node323176</title>
<path fill="none" stroke="#191970" d="M458.4584,-29.0292C459.8789,-34.128 468.5594,-38 484.5,-38 509.3828,-38 516.5755,-28.5653 506.0781,-19.7571"/>
<polygon fill="#191970" stroke="#191970" points="461.738,-30.2855 462.9219,-19.7571 455.4308,-27.2493 461.738,-30.2855"/>
</g>
</g>
</svg>
