<?xml version="1.0" encoding="UTF-8" standalone="no"?>
<!DOCTYPE svg PUBLIC "-//W3C//DTD SVG 1.1//EN"
 "http://www.w3.org/Graphics/SVG/1.1/DTD/svg11.dtd">
<!-- Generated by graphviz version 2.40.1 (20161225.0304)
 -->
<!-- Title: find_lexical_decl Pages: 1 -->
<svg width="366pt" height="28pt"
 viewBox="0.00 0.00 366.00 28.00" xmlns="http://www.w3.org/2000/svg" xmlns:xlink="http://www.w3.org/1999/xlink">
<g id="graph0" class="graph" transform="scale(1 1) rotate(0) translate(4 24)">
<title>find_lexical_decl</title>
<!-- Node312463 -->
<g id="node1" class="node">
<title>Node312463</title>
<polygon fill="#bfbfbf" stroke="#000000" points="0,-.5 0,-19.5 89,-19.5 89,-.5 0,-.5"/>
<text text-anchor="middle" x="44.5" y="-7.5" font-family="Helvetica,sans-Serif" font-size="10.00" fill="#000000">find_lexical_decl</text>
</g>
<!-- Node312464 -->
<g id="node2" class="node">
<title>Node312464</title>
<g id="a_node2"><a xlink:href="quickjs_8c.html#a928ebc27e3c6cd81cef3ae8cd95acdcf" target="_top" xlink:title="find_lexical_global_var">
<polygon fill="none" stroke="#000000" points="125,-.5 125,-19.5 240,-19.5 240,-.5 125,-.5"/>
<text text-anchor="middle" x="182.5" y="-7.5" font-family="Helvetica,sans-Serif" font-size="10.00" fill="#000000">find_lexical_global_var</text>
</a>
</g>
</g>
<!-- Node312463&#45;&gt;Node312464 -->
<g id="edge1" class="edge">
<title>Node312463&#45;&gt;Node312464</title>
<path fill="none" stroke="#191970" d="M89.3046,-10C97.4502,-10 106.1109,-10 114.7456,-10"/>
<polygon fill="#191970" stroke="#191970" points="114.8376,-13.5001 124.8376,-10 114.8375,-6.5001 114.8376,-13.5001"/>
</g>
<!-- Node312465 -->
<g id="node3" class="node">
<title>Node312465</title>
<g id="a_node3"><a xlink:href="quickjs_8c.html#a87911bf8f73f022d21edeaca80361ce2" target="_top" xlink:title="find_global_var">
<polygon fill="none" stroke="#000000" points="276,-.5 276,-19.5 358,-19.5 358,-.5 276,-.5"/>
<text text-anchor="middle" x="317" y="-7.5" font-family="Helvetica,sans-Serif" font-size="10.00" fill="#000000">find_global_var</text>
</a>
</g>
</g>
<!-- Node312464&#45;&gt;Node312465 -->
<g id="edge2" class="edge">
<title>Node312464&#45;&gt;Node312465</title>
<path fill="none" stroke="#191970" d="M240.3207,-10C248.7311,-10 257.3423,-10 265.6139,-10"/>
<polygon fill="#191970" stroke="#191970" points="265.869,-13.5001 275.8689,-10 265.8689,-6.5001 265.869,-13.5001"/>
</g>
</g>
</svg>
