<?xml version="1.0" encoding="UTF-8" standalone="no"?>
<!DOCTYPE svg PUBLIC "-//W3C//DTD SVG 1.1//EN"
 "http://www.w3.org/Graphics/SVG/1.1/DTD/svg11.dtd">
<!-- Generated by graphviz version 2.40.1 (20161225.0304)
 -->
<!-- Title: emit_atom Pages: 1 -->
<svg width="1199pt" height="883pt"
 viewBox="0.00 0.00 1199.00 882.54" xmlns="http://www.w3.org/2000/svg" xmlns:xlink="http://www.w3.org/1999/xlink">
<g id="graph0" class="graph" transform="scale(1 1) rotate(0) translate(4 878.5363)">
<title>emit_atom</title>
<!-- Node311794 -->
<g id="node1" class="node">
<title>Node311794</title>
<polygon fill="#bfbfbf" stroke="#000000" points="0,-546.6425 0,-565.6425 62,-565.6425 62,-546.6425 0,-546.6425"/>
<text text-anchor="middle" x="31" y="-553.6425" font-family="Helvetica,sans-Serif" font-size="10.00" fill="#000000">emit_atom</text>
</g>
<!-- Node311795 -->
<g id="node2" class="node">
<title>Node311795</title>
<g id="a_node2"><a xlink:href="quickjs_8c.html#a1e86277b96b55991d572603e00fef94d" target="_top" xlink:title="emit_class_field_init">
<polygon fill="none" stroke="#000000" points="234,-698.6425 234,-717.6425 339,-717.6425 339,-698.6425 234,-698.6425"/>
<text text-anchor="middle" x="286.5" y="-705.6425" font-family="Helvetica,sans-Serif" font-size="10.00" fill="#000000">emit_class_field_init</text>
</a>
</g>
</g>
<!-- Node311794&#45;&gt;Node311795 -->
<g id="edge1" class="edge">
<title>Node311794&#45;&gt;Node311795</title>
<path fill="none" stroke="#191970" d="M34.7637,-576.0456C41.5916,-606.099 59.0832,-662.3864 98,-689.1425 137.5715,-716.3486 193.3175,-718.7026 233.9182,-715.7025"/>
<polygon fill="#191970" stroke="#191970" points="38.1206,-574.9992 32.6465,-565.9281 31.269,-576.433 38.1206,-574.9992"/>
</g>
<!-- Node311796 -->
<g id="node3" class="node">
<title>Node311796</title>
<g id="a_node3"><a xlink:href="quickjs_8c.html#a840642c87c5a82d4cc68333376a3b6de" target="_top" xlink:title="js_parse_postfix_expr">
<polygon fill="none" stroke="#000000" points="379,-584.6425 379,-603.6425 491,-603.6425 491,-584.6425 379,-584.6425"/>
<text text-anchor="middle" x="435" y="-591.6425" font-family="Helvetica,sans-Serif" font-size="10.00" fill="#000000">js_parse_postfix_expr</text>
</a>
</g>
</g>
<!-- Node311794&#45;&gt;Node311796 -->
<g id="edge56" class="edge">
<title>Node311794&#45;&gt;Node311796</title>
<path fill="none" stroke="#191970" d="M72.2727,-565.677C80.7456,-567.3774 89.6328,-568.9758 98,-570.1425 196.1773,-583.8321 311.5966,-589.9065 378.7068,-592.4541"/>
<polygon fill="#191970" stroke="#191970" points="72.71,-562.1929 62.2057,-563.5745 71.2789,-569.0451 72.71,-562.1929"/>
</g>
<!-- Node311798 -->
<g id="node5" class="node">
<title>Node311798</title>
<g id="a_node5"><a xlink:href="quickjs_8c.html#a00eb789430243c24dab4a63ad6a79653" target="_top" xlink:title="js_parse_class">
<polygon fill="none" stroke="#000000" points="971,-595.6425 971,-614.6425 1053,-614.6425 1053,-595.6425 971,-595.6425"/>
<text text-anchor="middle" x="1012" y="-602.6425" font-family="Helvetica,sans-Serif" font-size="10.00" fill="#000000">js_parse_class</text>
</a>
</g>
</g>
<!-- Node311794&#45;&gt;Node311798 -->
<g id="edge48" class="edge">
<title>Node311794&#45;&gt;Node311798</title>
<path fill="none" stroke="#191970" d="M32.183,-536.4335C37.7757,-446.2549 62.7693,-75.7851 98,-39.1425 156.8957,22.1134 201.5236,-7.1425 286.5,-7.1425 286.5,-7.1425 286.5,-7.1425 576,-7.1425 666.4584,-7.1425 698.6724,6.1068 777,-39.1425 873.5864,-94.9398 887.2059,-133.3556 935,-234.1425 998.1366,-367.2834 1009.7373,-551.4746 1011.6509,-595.442"/>
<polygon fill="#191970" stroke="#191970" points="28.6768,-536.4296 31.5602,-546.6246 35.6638,-536.8567 28.6768,-536.4296"/>
</g>
<!-- Node311806 -->
<g id="node7" class="node">
<title>Node311806</title>
<g id="a_node7"><a xlink:href="quickjs_8c.html#a498e1d5c7de1b59c1630e9847cde1e41" target="_top" xlink:title="js_parse_export">
<polygon fill="none" stroke="#ff0000" points="1097,-633.6425 1097,-652.6425 1183,-652.6425 1183,-633.6425 1097,-633.6425"/>
<text text-anchor="middle" x="1140" y="-640.6425" font-family="Helvetica,sans-Serif" font-size="10.00" fill="#000000">js_parse_export</text>
</a>
</g>
</g>
<!-- Node311794&#45;&gt;Node311806 -->
<g id="edge51" class="edge">
<title>Node311794&#45;&gt;Node311806</title>
<path fill="none" stroke="#191970" d="M33.1906,-575.8325C39.8531,-632.1669 61.6665,-792.2495 98,-828.1425 159.2022,-888.6026 200.4701,-872.1425 286.5,-872.1425 286.5,-872.1425 286.5,-872.1425 874,-872.1425 1010.8025,-872.1425 1112.2327,-696.0308 1135.1228,-652.6908"/>
<polygon fill="#191970" stroke="#191970" points="36.6497,-575.2754 32.0296,-565.741 29.6956,-576.0756 36.6497,-575.2754"/>
</g>
<!-- Node311816 -->
<g id="node8" class="node">
<title>Node311816</title>
<g id="a_node8"><a xlink:href="quickjs_8c.html#a26be546cf89c4580ba9020e8fc43a759" target="_top" xlink:title="js_parse_destructuring\l_element">
<polygon fill="none" stroke="#000000" points="661.5,-376.1425 661.5,-406.1425 776.5,-406.1425 776.5,-376.1425 661.5,-376.1425"/>
<text text-anchor="start" x="669.5" y="-394.1425" font-family="Helvetica,sans-Serif" font-size="10.00" fill="#000000">js_parse_destructuring</text>
<text text-anchor="middle" x="719" y="-383.1425" font-family="Helvetica,sans-Serif" font-size="10.00" fill="#000000">_element</text>
</a>
</g>
</g>
<!-- Node311794&#45;&gt;Node311816 -->
<g id="edge50" class="edge">
<title>Node311794&#45;&gt;Node311816</title>
<path fill="none" stroke="#191970" d="M38.7513,-537.0729C49.3334,-512.8051 70.2079,-470.6248 98,-442.1425 166.3766,-372.0677 188.5928,-328.1425 286.5,-328.1425 286.5,-328.1425 286.5,-328.1425 435,-328.1425 520.4224,-328.1425 542.2176,-336.0697 625,-357.1425 644.3405,-362.0657 665.2737,-369.4268 682.4659,-376.0421"/>
<polygon fill="#191970" stroke="#191970" points="35.4078,-535.9935 34.7405,-546.5673 41.8561,-538.7175 35.4078,-535.9935"/>
</g>
<!-- Node311817 -->
<g id="node9" class="node">
<title>Node311817</title>
<g id="a_node9"><a xlink:href="quickjs_8c.html#a9660cf21845352b14655d423389d6620" target="_top" xlink:title="js_parse_var">
<polygon fill="none" stroke="#000000" points="838,-400.6425 838,-419.6425 910,-419.6425 910,-400.6425 838,-400.6425"/>
<text text-anchor="middle" x="874" y="-407.6425" font-family="Helvetica,sans-Serif" font-size="10.00" fill="#000000">js_parse_var</text>
</a>
</g>
</g>
<!-- Node311794&#45;&gt;Node311817 -->
<g id="edge59" class="edge">
<title>Node311794&#45;&gt;Node311817</title>
<path fill="none" stroke="#191970" d="M32.798,-576.2461C37.1231,-611.4051 51.4913,-683.5143 98,-717.1425 186.3127,-780.9971 237.647,-755.0225 343,-727.1425 577.0524,-665.2042 810.7802,-466.4193 863.1509,-419.9317"/>
<polygon fill="#191970" stroke="#191970" points="36.2295,-575.4185 31.6843,-565.8482 29.2693,-576.1641 36.2295,-575.4185"/>
</g>
<!-- Node311801 -->
<g id="node10" class="node">
<title>Node311801</title>
<g id="a_node10"><a xlink:href="quickjs_8c.html#ac188b916dd086803591a67de7e7a85f6" target="_top" xlink:title="js_parse_for_in_of">
<polygon fill="none" stroke="#000000" points="826,-310.6425 826,-329.6425 922,-329.6425 922,-310.6425 826,-310.6425"/>
<text text-anchor="middle" x="874" y="-317.6425" font-family="Helvetica,sans-Serif" font-size="10.00" fill="#000000">js_parse_for_in_of</text>
</a>
</g>
</g>
<!-- Node311794&#45;&gt;Node311801 -->
<g id="edge52" class="edge">
<title>Node311794&#45;&gt;Node311801</title>
<path fill="none" stroke="#191970" d="M32.7406,-536.0568C39.9323,-455.196 68.3475,-156.422 98,-127.1425 158.222,-67.678 201.8672,-100.1425 286.5,-100.1425 286.5,-100.1425 286.5,-100.1425 435,-100.1425 588.1419,-100.1425 662.415,-40.5417 777,-142.1425 821.8579,-181.9173 779.7881,-222.2301 813,-272.1425 824.0486,-288.7468 842.7102,-302.1953 856.4895,-310.5873"/>
<polygon fill="#191970" stroke="#191970" points="29.2251,-536.0798 31.8359,-546.3479 36.1983,-536.6929 29.2251,-536.0798"/>
</g>
<!-- Node311804 -->
<g id="node11" class="node">
<title>Node311804</title>
<g id="a_node11"><a xlink:href="quickjs_8c.html#acc9eb677cab8dfcf45f59381f8a19601" target="_top" xlink:title="js_parse_function_decl2">
<polygon fill="none" stroke="#ff0000" points="813,-633.6425 813,-652.6425 935,-652.6425 935,-633.6425 813,-633.6425"/>
<text text-anchor="middle" x="874" y="-640.6425" font-family="Helvetica,sans-Serif" font-size="10.00" fill="#000000">js_parse_function_decl2</text>
</a>
</g>
</g>
<!-- Node311794&#45;&gt;Node311804 -->
<g id="edge53" class="edge">
<title>Node311794&#45;&gt;Node311804</title>
<path fill="none" stroke="#191970" d="M34.4545,-575.7328C43.1234,-622.4035 67.3174,-737.9245 98,-760.1425 220.4137,-848.7848 641.9186,-788.9332 777,-721.1425 798.0831,-710.5619 794.9143,-697.2868 813,-682.1425 826.5885,-670.764 843.7133,-660.0886 856.3569,-652.7935"/>
<polygon fill="#191970" stroke="#191970" points="37.8603,-574.8985 32.6318,-565.6836 30.9727,-576.1477 37.8603,-574.8985"/>
</g>
<!-- Node311819 -->
<g id="node13" class="node">
<title>Node311819</title>
<g id="a_node13"><a xlink:href="quickjs_8c.html#a2ecfb6abb190101748202a8aa5821fba" target="_top" xlink:title="js_parse_delete">
<polygon fill="none" stroke="#000000" points="831.5,-243.6425 831.5,-262.6425 916.5,-262.6425 916.5,-243.6425 831.5,-243.6425"/>
<text text-anchor="middle" x="874" y="-250.6425" font-family="Helvetica,sans-Serif" font-size="10.00" fill="#000000">js_parse_delete</text>
</a>
</g>
</g>
<!-- Node311794&#45;&gt;Node311819 -->
<g id="edge49" class="edge">
<title>Node311794&#45;&gt;Node311819</title>
<path fill="none" stroke="#191970" d="M32.529,-536.2222C39.2273,-451.2319 67.0318,-121.763 98,-88.1425 156.2174,-24.939 200.5701,-45.1425 286.5,-45.1425 286.5,-45.1425 286.5,-45.1425 576,-45.1425 666.7549,-45.1425 702.9926,-28.613 777,-81.1425 792.2361,-91.9568 851.8636,-209.0803 869.2298,-243.613"/>
<polygon fill="#191970" stroke="#191970" points="29.0282,-536.0982 31.7409,-546.3399 36.007,-536.6419 29.0282,-536.0982"/>
</g>
<!-- Node311832 -->
<g id="node14" class="node">
<title>Node311832</title>
<g id="a_node14"><a xlink:href="quickjs_8c.html#a38e4107378b0d9abd638e4fe13541678" target="_top" xlink:title="emit_class_init_start">
<polygon fill="none" stroke="#000000" points="665.5,-786.6425 665.5,-805.6425 772.5,-805.6425 772.5,-786.6425 665.5,-786.6425"/>
<text text-anchor="middle" x="719" y="-793.6425" font-family="Helvetica,sans-Serif" font-size="10.00" fill="#000000">emit_class_init_start</text>
</a>
</g>
</g>
<!-- Node311794&#45;&gt;Node311832 -->
<g id="edge28" class="edge">
<title>Node311794&#45;&gt;Node311832</title>
<path fill="none" stroke="#191970" d="M33.6441,-575.8799C41.0726,-628.2177 63.843,-768.5648 98,-798.1425 161.8443,-853.4272 202.0459,-822.1425 286.5,-822.1425 286.5,-822.1425 286.5,-822.1425 435,-822.1425 515.5804,-822.1425 608.4878,-811.6341 665.4806,-803.9786"/>
<polygon fill="#191970" stroke="#191970" points="37.0952,-575.2853 32.2582,-565.8591 30.1612,-576.2443 37.0952,-575.2853"/>
</g>
<!-- Node311834 -->
<g id="node16" class="node">
<title>Node311834</title>
<g id="a_node16"><a xlink:href="quickjs_8c.html#acea69d5aa6481a035d0833b8bce455f5" target="_top" xlink:title="emit_return">
<polygon fill="none" stroke="#000000" points="543.5,-128.6425 543.5,-147.6425 608.5,-147.6425 608.5,-128.6425 543.5,-128.6425"/>
<text text-anchor="middle" x="576" y="-135.6425" font-family="Helvetica,sans-Serif" font-size="10.00" fill="#000000">emit_return</text>
</a>
</g>
</g>
<!-- Node311794&#45;&gt;Node311834 -->
<g id="edge32" class="edge">
<title>Node311794&#45;&gt;Node311834</title>
<path fill="none" stroke="#191970" d="M31.2468,-536.3174C32.6017,-463.5015 41.3717,-212.4402 98,-162.1425 163.6182,-103.8599 446.4335,-125.4236 543.3034,-134.7434"/>
<polygon fill="#191970" stroke="#191970" points="27.7458,-536.3612 31.0868,-546.4155 34.7449,-536.4722 27.7458,-536.3612"/>
</g>
<!-- Node311824 -->
<g id="node17" class="node">
<title>Node311824</title>
<g id="a_node17"><a xlink:href="quickjs_8c.html#afa1bc2743b3cf892d36544a708453736" target="_top" xlink:title="js_parse_assign_expr2">
<polygon fill="none" stroke="#ff0000" points="661,-187.6425 661,-206.6425 777,-206.6425 777,-187.6425 661,-187.6425"/>
<text text-anchor="middle" x="719" y="-194.6425" font-family="Helvetica,sans-Serif" font-size="10.00" fill="#000000">js_parse_assign_expr2</text>
</a>
</g>
</g>
<!-- Node311794&#45;&gt;Node311824 -->
<g id="edge47" class="edge">
<title>Node311794&#45;&gt;Node311824</title>
<path fill="none" stroke="#191970" d="M33.2274,-536.467C40.2022,-477.8779 63.2493,-305.9756 98,-263.1425 156.1334,-191.4882 194.2296,-176.1425 286.5,-176.1425 286.5,-176.1425 286.5,-176.1425 435,-176.1425 513.3627,-176.1425 603.5575,-184.1925 660.8938,-190.3244"/>
<polygon fill="#191970" stroke="#191970" points="29.7274,-536.2646 32.048,-546.6021 36.6805,-537.0737 29.7274,-536.2646"/>
</g>
<!-- Node311835 -->
<g id="node18" class="node">
<title>Node311835</title>
<g id="a_node18"><a xlink:href="quickjs_8c.html#a069baa06a1214006c4ec473875de010e" target="_top" xlink:title="get_lvalue">
<polygon fill="none" stroke="#000000" points="545.5,-280.6425 545.5,-299.6425 606.5,-299.6425 606.5,-280.6425 545.5,-280.6425"/>
<text text-anchor="middle" x="576" y="-287.6425" font-family="Helvetica,sans-Serif" font-size="10.00" fill="#000000">get_lvalue</text>
</a>
</g>
</g>
<!-- Node311794&#45;&gt;Node311835 -->
<g id="edge39" class="edge">
<title>Node311794&#45;&gt;Node311835</title>
<path fill="none" stroke="#191970" d="M33.4761,-536.6148C40.5527,-484.1971 62.658,-342.4563 98,-314.1425 232.3951,-206.4734 462.4688,-257.406 545.2209,-280.7086"/>
<polygon fill="#191970" stroke="#191970" points="29.9928,-536.26 32.1619,-546.6304 36.9333,-537.1708 29.9928,-536.26"/>
</g>
<!-- Node311826 -->
<g id="node19" class="node">
<title>Node311826</title>
<g id="a_node19"><a xlink:href="quickjs_8c.html#a253917187cfb6b3db09d355b31edb3d5" target="_top" xlink:title="js_parse_array_literal">
<polygon fill="none" stroke="#000000" points="232,-622.6425 232,-641.6425 341,-641.6425 341,-622.6425 232,-622.6425"/>
<text text-anchor="middle" x="286.5" y="-629.6425" font-family="Helvetica,sans-Serif" font-size="10.00" fill="#000000">js_parse_array_literal</text>
</a>
</g>
</g>
<!-- Node311794&#45;&gt;Node311826 -->
<g id="edge45" class="edge">
<title>Node311794&#45;&gt;Node311826</title>
<path fill="none" stroke="#191970" d="M47.3412,-572.9426C59.9946,-584.8497 78.5883,-600.0877 98,-608.1425 140.6591,-625.8437 193.0349,-631.3619 231.7417,-632.7284"/>
<polygon fill="#191970" stroke="#191970" points="49.5342,-570.192 39.9351,-565.7079 44.6428,-575.1994 49.5342,-570.192"/>
</g>
<!-- Node311808 -->
<g id="node20" class="node">
<title>Node311808</title>
<g id="a_node20"><a xlink:href="quickjs_8c.html#aee6d0acd87f136d43f157ae1426436e6" target="_top" xlink:title="js_parse_object_literal">
<polygon fill="none" stroke="#000000" points="230,-546.6425 230,-565.6425 343,-565.6425 343,-546.6425 230,-546.6425"/>
<text text-anchor="middle" x="286.5" y="-553.6425" font-family="Helvetica,sans-Serif" font-size="10.00" fill="#000000">js_parse_object_literal</text>
</a>
</g>
</g>
<!-- Node311794&#45;&gt;Node311808 -->
<g id="edge54" class="edge">
<title>Node311794&#45;&gt;Node311808</title>
<path fill="none" stroke="#191970" d="M72.1016,-556.1425C114.7492,-556.1425 181.7652,-556.1425 229.5136,-556.1425"/>
<polygon fill="#191970" stroke="#191970" points="72.0739,-552.6426 62.0739,-556.1425 72.0738,-559.6426 72.0739,-552.6426"/>
</g>
<!-- Node311829 -->
<g id="node21" class="node">
<title>Node311829</title>
<g id="a_node21"><a xlink:href="quickjs_8c.html#a035daca514f14aacc1e0cff81d8e423a" target="_top" xlink:title="js_parse_template">
<polygon fill="none" stroke="#000000" points="98,-660.6425 98,-679.6425 194,-679.6425 194,-660.6425 98,-660.6425"/>
<text text-anchor="middle" x="146" y="-667.6425" font-family="Helvetica,sans-Serif" font-size="10.00" fill="#000000">js_parse_template</text>
</a>
</g>
</g>
<!-- Node311794&#45;&gt;Node311829 -->
<g id="edge57" class="edge">
<title>Node311794&#45;&gt;Node311829</title>
<path fill="none" stroke="#191970" d="M41.1979,-574.6206C52.8381,-594.3677 73.4726,-625.5982 98,-646.1425 104.8568,-651.8857 113.3209,-656.6965 121.2228,-660.4666"/>
<polygon fill="#191970" stroke="#191970" points="44.0983,-572.6421 36.0929,-565.7021 38.0231,-576.1196 44.0983,-572.6421"/>
</g>
<!-- Node311836 -->
<g id="node22" class="node">
<title>Node311836</title>
<g id="a_node22"><a xlink:href="quickjs_8c.html#ab87db7e4e299e811a54acab5fe3620a7" target="_top" xlink:title="set_object_name">
<polygon fill="none" stroke="#000000" points="100.5,-451.6425 100.5,-470.6425 191.5,-470.6425 191.5,-451.6425 100.5,-451.6425"/>
<text text-anchor="middle" x="146" y="-458.6425" font-family="Helvetica,sans-Serif" font-size="10.00" fill="#000000">set_object_name</text>
</a>
</g>
</g>
<!-- Node311794&#45;&gt;Node311836 -->
<g id="edge60" class="edge">
<title>Node311794&#45;&gt;Node311836</title>
<path fill="none" stroke="#191970" d="M50.6648,-539.8976C74.7341,-520.0143 114.7081,-486.9923 134.362,-470.7565"/>
<polygon fill="#191970" stroke="#191970" points="48.3544,-537.2664 42.8739,-546.3336 52.8126,-542.6631 48.3544,-537.2664"/>
</g>
<!-- Node311795&#45;&gt;Node311796 -->
<g id="edge2" class="edge">
<title>Node311795&#45;&gt;Node311796</title>
<path fill="none" stroke="#191970" d="M324.0456,-694.5321C330.5888,-691.5131 337.1615,-688.0352 343,-684.1425 378.6942,-660.344 412.5971,-621.6183 427.3177,-603.7428"/>
<polygon fill="#191970" stroke="#191970" points="322.3639,-691.4458 314.5694,-698.6219 325.1377,-697.8728 322.3639,-691.4458"/>
</g>
<!-- Node311795&#45;&gt;Node311804 -->
<g id="edge27" class="edge">
<title>Node311795&#45;&gt;Node311804</title>
<path fill="none" stroke="#191970" d="M349.1773,-715.8867C443.7599,-725.5175 627.7718,-736.2024 777,-696.1425 809.805,-687.336 843.617,-665.371 861.3613,-652.6531"/>
<polygon fill="#191970" stroke="#191970" points="349.511,-712.4026 339.2005,-714.8407 348.781,-719.3645 349.511,-712.4026"/>
</g>
<!-- Node311796&#45;&gt;Node311796 -->
<g id="edge22" class="edge">
<title>Node311796&#45;&gt;Node311796</title>
<path fill="none" stroke="#191970" d="M408.9584,-613.1717C410.3789,-618.2705 419.0594,-622.1425 435,-622.1425 459.8828,-622.1425 467.0755,-612.7077 456.5781,-603.8995"/>
<polygon fill="#191970" stroke="#191970" points="412.238,-614.428 413.4219,-603.8995 405.9308,-611.3918 412.238,-614.428"/>
</g>
<!-- Node311797 -->
<g id="node4" class="node">
<title>Node311797</title>
<g id="a_node4"><a xlink:href="quickjs_8c.html#a12b48ce2b1f247b494fdde07dbe7f232" target="_top" xlink:title="js_parse_left_hand\l_side_expr">
<polygon fill="none" stroke="#000000" points="527,-433.1425 527,-463.1425 625,-463.1425 625,-433.1425 527,-433.1425"/>
<text text-anchor="start" x="535" y="-451.1425" font-family="Helvetica,sans-Serif" font-size="10.00" fill="#000000">js_parse_left_hand</text>
<text text-anchor="middle" x="576" y="-440.1425" font-family="Helvetica,sans-Serif" font-size="10.00" fill="#000000">_side_expr</text>
</a>
</g>
</g>
<!-- Node311796&#45;&gt;Node311797 -->
<g id="edge3" class="edge">
<title>Node311796&#45;&gt;Node311797</title>
<path fill="none" stroke="#191970" d="M451.2512,-577.3149C478.8773,-548.7093 534.5829,-491.0283 561.1936,-463.4739"/>
<polygon fill="#191970" stroke="#191970" points="448.6806,-574.9384 444.2514,-584.563 453.7159,-579.8012 448.6806,-574.9384"/>
</g>
<!-- Node311818 -->
<g id="node12" class="node">
<title>Node311818</title>
<g id="a_node12"><a xlink:href="quickjs_8c.html#a9f26c765171d977db1796791f035f1f9" target="_top" xlink:title="js_parse_unary">
<polygon fill="none" stroke="#ff0000" points="677.5,-243.6425 677.5,-262.6425 760.5,-262.6425 760.5,-243.6425 677.5,-243.6425"/>
<text text-anchor="middle" x="719" y="-250.6425" font-family="Helvetica,sans-Serif" font-size="10.00" fill="#000000">js_parse_unary</text>
</a>
</g>
</g>
<!-- Node311796&#45;&gt;Node311818 -->
<g id="edge23" class="edge">
<title>Node311796&#45;&gt;Node311818</title>
<path fill="none" stroke="#191970" d="M437.6631,-574.6825C446.7834,-511.0795 478.8808,-311.1325 527,-271.1425 568.7124,-236.4769 634.5193,-238.4768 677.2222,-244.6193"/>
<polygon fill="#191970" stroke="#191970" points="434.1951,-574.2107 436.2703,-584.6003 441.127,-575.1842 434.1951,-574.2107"/>
</g>
<!-- Node311797&#45;&gt;Node311798 -->
<g id="edge4" class="edge">
<title>Node311797&#45;&gt;Node311798</title>
<path fill="none" stroke="#191970" d="M634.9595,-459.511C707.7888,-474.8626 834.3822,-505.8648 935,-553.1425 959.9652,-564.873 985.9345,-584.1337 1000.4274,-595.6309"/>
<polygon fill="#191970" stroke="#191970" points="635.5514,-456.0593 625.0481,-457.4487 634.1254,-462.9125 635.5514,-456.0593"/>
</g>
<!-- Node311797&#45;&gt;Node311816 -->
<g id="edge9" class="edge">
<title>Node311797&#45;&gt;Node311816</title>
<path fill="none" stroke="#191970" d="M623.4463,-429.2303C642.1053,-421.7928 663.238,-413.3693 680.8767,-406.3385"/>
<polygon fill="#191970" stroke="#191970" points="621.9392,-426.0632 613.9459,-433.0172 624.5312,-432.5656 621.9392,-426.0632"/>
</g>
<!-- Node311797&#45;&gt;Node311801 -->
<g id="edge21" class="edge">
<title>Node311797&#45;&gt;Node311801</title>
<path fill="none" stroke="#191970" d="M635.1043,-455.2941C676.9321,-457.6836 733.1533,-455.323 777,-433.1425 798.9382,-422.0447 796.9892,-409.7999 813,-391.1425 831.838,-369.1906 853.9704,-343.4399 865.7086,-329.786"/>
<polygon fill="#191970" stroke="#191970" points="635.28,-451.7981 625.0664,-454.6146 634.8071,-458.7821 635.28,-451.7981"/>
</g>
<!-- Node311798&#45;&gt;Node311796 -->
<g id="edge5" class="edge">
<title>Node311798&#45;&gt;Node311796</title>
<path fill="none" stroke="#191970" d="M960.6295,-604.1631C852.6868,-602.1053 603.0702,-597.3466 491.1124,-595.2122"/>
<polygon fill="#191970" stroke="#191970" points="960.8663,-607.6682 970.9312,-604.3595 960.9998,-600.6695 960.8663,-607.6682"/>
</g>
<!-- Node311799 -->
<g id="node6" class="node">
<title>Node311799</title>
<g id="a_node6"><a xlink:href="quickjs_8c.html#a9d844c16dcc71701436848074337d32c" target="_top" xlink:title="js_parse_statement\l_or_decl">
<polygon fill="none" stroke="#ff0000" points="1089,-357.1425 1089,-387.1425 1191,-387.1425 1191,-357.1425 1089,-357.1425"/>
<text text-anchor="start" x="1097" y="-375.1425" font-family="Helvetica,sans-Serif" font-size="10.00" fill="#000000">js_parse_statement</text>
<text text-anchor="middle" x="1140" y="-364.1425" font-family="Helvetica,sans-Serif" font-size="10.00" fill="#000000">_or_decl</text>
</a>
</g>
</g>
<!-- Node311798&#45;&gt;Node311799 -->
<g id="edge6" class="edge">
<title>Node311798&#45;&gt;Node311799</title>
<path fill="none" stroke="#191970" d="M1022.2496,-586.485C1046.8872,-541.6368 1109.0605,-428.4621 1131.6405,-387.3593"/>
<polygon fill="#191970" stroke="#191970" points="1019.0844,-584.9776 1017.337,-595.4274 1025.2195,-588.3481 1019.0844,-584.9776"/>
</g>
<!-- Node311798&#45;&gt;Node311806 -->
<g id="edge8" class="edge">
<title>Node311798&#45;&gt;Node311806</title>
<path fill="none" stroke="#191970" d="M1054.2242,-617.6778C1071.6371,-622.8472 1091.4917,-628.7416 1107.7105,-633.5565"/>
<polygon fill="#191970" stroke="#191970" points="1054.8824,-614.2223 1044.2998,-614.7315 1052.8902,-620.9328 1054.8824,-614.2223"/>
</g>
<!-- Node311799&#45;&gt;Node311799 -->
<g id="edge7" class="edge">
<title>Node311799&#45;&gt;Node311799</title>
<path fill="none" stroke="#191970" d="M1117.2559,-397.6004C1120.0788,-402.3214 1127.6602,-405.6425 1140,-405.6425 1160.25,-405.6425 1167.6855,-396.6991 1162.3066,-387.3015"/>
<polygon fill="#191970" stroke="#191970" points="1120.7658,-397.441 1117.6934,-387.3015 1113.7721,-397.1439 1120.7658,-397.441"/>
</g>
<!-- Node311816&#45;&gt;Node311796 -->
<g id="edge11" class="edge">
<title>Node311816&#45;&gt;Node311796</title>
<path fill="none" stroke="#191970" d="M651.3665,-388.1805C611.8053,-389.7021 562.7709,-397.5417 527,-423.1425 468.8825,-464.7364 443.9293,-554.7106 437.0685,-584.4106"/>
<polygon fill="#191970" stroke="#191970" points="651.5613,-391.6767 661.4675,-387.9192 651.3803,-384.679 651.5613,-391.6767"/>
</g>
<!-- Node311816&#45;&gt;Node311799 -->
<g id="edge17" class="edge">
<title>Node311816&#45;&gt;Node311799</title>
<path fill="none" stroke="#191970" d="M786.9019,-388.078C871.2674,-384.2705 1013.3089,-377.8601 1088.967,-374.4456"/>
<polygon fill="#191970" stroke="#191970" points="786.4875,-384.5931 776.6555,-388.5404 786.8032,-391.5859 786.4875,-384.5931"/>
</g>
<!-- Node311816&#45;&gt;Node311816 -->
<g id="edge10" class="edge">
<title>Node311816&#45;&gt;Node311816</title>
<path fill="none" stroke="#191970" d="M693.7683,-416.6004C696.8999,-421.3214 705.3105,-424.6425 719,-424.6425 741.4648,-424.6425 749.7137,-415.6991 743.7464,-406.3015"/>
<polygon fill="#191970" stroke="#191970" points="697.2789,-416.4552 694.2536,-406.3015 690.2867,-416.1256 697.2789,-416.4552"/>
</g>
<!-- Node311816&#45;&gt;Node311817 -->
<g id="edge12" class="edge">
<title>Node311816&#45;&gt;Node311817</title>
<path fill="none" stroke="#191970" d="M786.9307,-399.4695C804.4561,-401.6177 822.6444,-403.8473 837.8367,-405.7095"/>
<polygon fill="#191970" stroke="#191970" points="787.0679,-395.9602 776.7163,-398.2174 786.2161,-402.9082 787.0679,-395.9602"/>
</g>
<!-- Node311816&#45;&gt;Node311801 -->
<g id="edge15" class="edge">
<title>Node311816&#45;&gt;Node311801</title>
<path fill="none" stroke="#191970" d="M761.1991,-371.8126C790.9787,-358.1716 829.6018,-340.4797 853.0557,-329.7363"/>
<polygon fill="#191970" stroke="#191970" points="759.5055,-368.7386 751.8715,-376.0852 762.4207,-375.1027 759.5055,-368.7386"/>
</g>
<!-- Node311816&#45;&gt;Node311804 -->
<g id="edge18" class="edge">
<title>Node311816&#45;&gt;Node311804</title>
<path fill="none" stroke="#191970" d="M733.6576,-414.9729C766.6665,-468.639 845.6877,-597.1121 868.0262,-633.4302"/>
<polygon fill="#191970" stroke="#191970" points="736.4521,-412.8356 728.2318,-406.1515 730.4897,-416.503 736.4521,-412.8356"/>
</g>
<!-- Node311817&#45;&gt;Node311799 -->
<g id="edge13" class="edge">
<title>Node311817&#45;&gt;Node311799</title>
<path fill="none" stroke="#191970" d="M920.2799,-404.2765C956.4494,-399.6101 1007.9698,-392.7832 1053,-386.1425 1064.6538,-384.4239 1077.1679,-382.4725 1088.9706,-380.5839"/>
<polygon fill="#191970" stroke="#191970" points="919.5106,-400.8465 910.0385,-405.593 920.4032,-407.7894 919.5106,-400.8465"/>
</g>
<!-- Node311817&#45;&gt;Node311806 -->
<g id="edge14" class="edge">
<title>Node311817&#45;&gt;Node311806</title>
<path fill="none" stroke="#191970" d="M892.8522,-426.6559C944.6132,-471.9954 1087.8014,-597.4196 1128.8616,-633.3859"/>
<polygon fill="#191970" stroke="#191970" points="894.9195,-423.8138 885.091,-419.8575 890.3071,-429.0794 894.9195,-423.8138"/>
</g>
<!-- Node311801&#45;&gt;Node311799 -->
<g id="edge16" class="edge">
<title>Node311801&#45;&gt;Node311799</title>
<path fill="none" stroke="#191970" d="M932.1364,-331.5075C978.8177,-340.6331 1043.7468,-353.3261 1088.5574,-362.086"/>
<polygon fill="#191970" stroke="#191970" points="932.6564,-328.043 922.1706,-329.5593 931.3133,-334.9129 932.6564,-328.043"/>
</g>
<!-- Node311804&#45;&gt;Node311798 -->
<g id="edge19" class="edge">
<title>Node311804&#45;&gt;Node311798</title>
<path fill="none" stroke="#191970" d="M918.473,-630.8963C937.4946,-625.6584 959.3751,-619.6334 977.1879,-614.7284"/>
<polygon fill="#191970" stroke="#191970" points="917.5352,-627.5242 908.8232,-633.5535 919.3936,-634.273 917.5352,-627.5242"/>
</g>
<!-- Node311804&#45;&gt;Node311806 -->
<g id="edge20" class="edge">
<title>Node311804&#45;&gt;Node311806</title>
<path fill="none" stroke="#191970" d="M945.1031,-643.1425C993.3838,-643.1425 1055.6705,-643.1425 1096.6728,-643.1425"/>
<polygon fill="#191970" stroke="#191970" points="945.0258,-639.6426 935.0258,-643.1425 945.0257,-646.6426 945.0258,-639.6426"/>
</g>
<!-- Node311818&#45;&gt;Node311818 -->
<g id="edge26" class="edge">
<title>Node311818&#45;&gt;Node311818</title>
<path fill="none" stroke="#191970" d="M692.4941,-271.7964C693.6021,-277.0793 702.4374,-281.1425 719,-281.1425 744.2383,-281.1425 751.5337,-271.7077 740.8863,-262.8995"/>
<polygon fill="#191970" stroke="#191970" points="695.6117,-273.3874 697.1137,-262.8995 689.3992,-270.1616 695.6117,-273.3874"/>
</g>
<!-- Node311818&#45;&gt;Node311819 -->
<g id="edge24" class="edge">
<title>Node311818&#45;&gt;Node311819</title>
<path fill="none" stroke="#191970" d="M770.574,-246.74C790.2677,-246.1929 812.4858,-246.2917 831.2674,-247.0365"/>
<polygon fill="#191970" stroke="#191970" points="770.411,-243.2435 760.5372,-247.085 770.6515,-250.2393 770.411,-243.2435"/>
</g>
<!-- Node311819&#45;&gt;Node311818 -->
<g id="edge25" class="edge">
<title>Node311819&#45;&gt;Node311818</title>
<path fill="none" stroke="#191970" d="M821.1641,-259.579C801.3656,-260.0986 779.1696,-259.9722 760.5372,-259.1999"/>
<polygon fill="#191970" stroke="#191970" points="821.3872,-263.0737 831.2674,-259.2484 821.1582,-256.0774 821.3872,-263.0737"/>
</g>
<!-- Node311832&#45;&gt;Node311798 -->
<g id="edge31" class="edge">
<title>Node311832&#45;&gt;Node311798</title>
<path fill="none" stroke="#191970" d="M782.7397,-784.9471C828.7451,-774.3541 890.366,-754.7515 935,-720.1425 973.1659,-690.5488 998.8676,-636.5324 1008.1497,-614.6881"/>
<polygon fill="#191970" stroke="#191970" points="781.8819,-781.5523 772.8778,-787.1358 783.3986,-788.386 781.8819,-781.5523"/>
</g>
<!-- Node311833 -->
<g id="node15" class="node">
<title>Node311833</title>
<g id="a_node15"><a xlink:href="quickjs_8c.html#ac9030f2b94f2e8292ad37ab68fc99bbd" target="_top" xlink:title="add_brand">
<polygon fill="none" stroke="#000000" points="843,-691.6425 843,-710.6425 905,-710.6425 905,-691.6425 843,-691.6425"/>
<text text-anchor="middle" x="874" y="-698.6425" font-family="Helvetica,sans-Serif" font-size="10.00" fill="#000000">add_brand</text>
</a>
</g>
</g>
<!-- Node311832&#45;&gt;Node311833 -->
<g id="edge29" class="edge">
<title>Node311832&#45;&gt;Node311833</title>
<path fill="none" stroke="#191970" d="M755.8801,-782.6338C763.0548,-779.5216 770.3938,-775.9838 777,-772.1425 794.5227,-761.9533 796.7119,-756.2073 813,-744.1425 828.826,-732.4199 847.3635,-719.4587 859.8133,-710.8624"/>
<polygon fill="#191970" stroke="#191970" points="754.1862,-779.5467 746.2826,-786.6024 756.8611,-786.0155 754.1862,-779.5467"/>
</g>
<!-- Node311833&#45;&gt;Node311798 -->
<g id="edge30" class="edge">
<title>Node311833&#45;&gt;Node311798</title>
<path fill="none" stroke="#191970" d="M898.2358,-686.1807C909.5279,-679.0742 923.0735,-670.3552 935,-662.1425 958.2876,-646.1063 984.6017,-626.2324 999.6534,-614.6893"/>
<polygon fill="#191970" stroke="#191970" points="896.361,-683.225 889.7368,-691.4937 900.0716,-689.1607 896.361,-683.225"/>
</g>
<!-- Node311834&#45;&gt;Node311799 -->
<g id="edge37" class="edge">
<title>Node311834&#45;&gt;Node311799</title>
<path fill="none" stroke="#191970" d="M618.7546,-132.8764C660.0756,-129.202 724.0255,-127.2763 777,-142.1425 928.2048,-184.575 1076.1804,-312.7337 1124.0046,-356.9497"/>
<polygon fill="#191970" stroke="#191970" points="618.3757,-129.3966 608.7572,-133.8391 619.0467,-136.3644 618.3757,-129.3966"/>
</g>
<!-- Node311834&#45;&gt;Node311804 -->
<g id="edge38" class="edge">
<title>Node311834&#45;&gt;Node311804</title>
<path fill="none" stroke="#191970" d="M618.6128,-140.9512C671.0546,-145.3353 755.7793,-155.7441 777,-178.1425 815.7546,-219.0478 801.2498,-374.0326 813,-429.1425 830.0786,-509.2433 860.704,-603.4364 870.727,-633.449"/>
<polygon fill="#191970" stroke="#191970" points="618.8294,-137.4575 608.5832,-140.153 618.274,-144.4354 618.8294,-137.4575"/>
</g>
<!-- Node311834&#45;&gt;Node311824 -->
<g id="edge33" class="edge">
<title>Node311834&#45;&gt;Node311824</title>
<path fill="none" stroke="#191970" d="M608.5731,-151.5817C635.1456,-162.5452 672.0367,-177.766 695.7163,-187.5359"/>
<polygon fill="#191970" stroke="#191970" points="609.8727,-148.3318 599.2937,-147.7532 607.2029,-154.8027 609.8727,-148.3318"/>
</g>
<!-- Node311824&#45;&gt;Node311817 -->
<g id="edge35" class="edge">
<title>Node311824&#45;&gt;Node311817</title>
<path fill="none" stroke="#191970" d="M749.9682,-211.6523C759.7255,-217.4836 769.8189,-225.0152 777,-234.1425 807.5046,-272.9142 788.4855,-296.3311 813,-339.1425 827.0511,-363.6809 850.182,-387.6627 863.5585,-400.5083"/>
<polygon fill="#191970" stroke="#191970" points="751.6363,-208.5752 741.1949,-206.778 748.2366,-214.6942 751.6363,-208.5752"/>
</g>
<!-- Node311824&#45;&gt;Node311801 -->
<g id="edge36" class="edge">
<title>Node311824&#45;&gt;Node311801</title>
<path fill="none" stroke="#191970" d="M745.1338,-211.9328C755.4535,-218.2463 767.169,-226.0265 777,-234.1425 794.9407,-248.9535 795.813,-256.4632 813,-272.1425 828.5306,-286.3107 847.7849,-301.0356 860.4575,-310.3775"/>
<polygon fill="#191970" stroke="#191970" points="746.8886,-208.9042 736.5068,-206.7905 743.3045,-214.9171 746.8886,-208.9042"/>
</g>
<!-- Node311824&#45;&gt;Node311824 -->
<g id="edge34" class="edge">
<title>Node311824&#45;&gt;Node311824</title>
<path fill="none" stroke="#191970" d="M692.4941,-215.7964C693.6021,-221.0793 702.4374,-225.1425 719,-225.1425 744.2383,-225.1425 751.5337,-215.7077 740.8863,-206.8995"/>
<polygon fill="#191970" stroke="#191970" points="695.6117,-217.3874 697.1137,-206.8995 689.3992,-214.1616 695.6117,-217.3874"/>
</g>
<!-- Node311835&#45;&gt;Node311816 -->
<g id="edge40" class="edge">
<title>Node311835&#45;&gt;Node311816</title>
<path fill="none" stroke="#191970" d="M610.2948,-304.3833C615.471,-307.2419 620.5575,-310.5034 625,-314.1425 645.3551,-330.8163 640.8286,-344.2469 661,-361.1425 667.7788,-366.8204 675.8112,-371.8234 683.7039,-376.0356"/>
<polygon fill="#191970" stroke="#191970" points="611.5032,-301.0722 601.0004,-299.6784 608.3416,-307.3176 611.5032,-301.0722"/>
</g>
<!-- Node311835&#45;&gt;Node311817 -->
<g id="edge43" class="edge">
<title>Node311835&#45;&gt;Node311817</title>
<path fill="none" stroke="#191970" d="M612.3194,-303.0773C652.7882,-317.6743 720.0263,-342.4782 777,-366.1425 803.8114,-377.2787 834.22,-391.3047 853.7295,-400.4874"/>
<polygon fill="#191970" stroke="#191970" points="613.4704,-299.7718 602.8759,-299.6811 611.1014,-306.3588 613.4704,-299.7718"/>
</g>
<!-- Node311835&#45;&gt;Node311801 -->
<g id="edge44" class="edge">
<title>Node311835&#45;&gt;Node311801</title>
<path fill="none" stroke="#191970" d="M616.7617,-294.246C671.2609,-299.7325 767.72,-309.4431 825.7718,-315.2873"/>
<polygon fill="#191970" stroke="#191970" points="617.0691,-290.7593 606.7688,-293.24 616.3679,-297.7241 617.0691,-290.7593"/>
</g>
<!-- Node311835&#45;&gt;Node311818 -->
<g id="edge41" class="edge">
<title>Node311835&#45;&gt;Node311818</title>
<path fill="none" stroke="#191970" d="M616.4138,-279.6857C637.0295,-274.3516 661.9268,-267.9097 682.0309,-262.7079"/>
<polygon fill="#191970" stroke="#191970" points="615.4815,-276.3116 606.6771,-282.205 617.235,-283.0885 615.4815,-276.3116"/>
</g>
<!-- Node311835&#45;&gt;Node311824 -->
<g id="edge42" class="edge">
<title>Node311835&#45;&gt;Node311824</title>
<path fill="none" stroke="#191970" d="M599.119,-274.7793C616.1785,-263.475 639.9812,-247.7695 661,-234.1425 675.4316,-224.7861 691.9792,-214.2486 703.6961,-206.8192"/>
<polygon fill="#191970" stroke="#191970" points="596.7946,-272.1211 590.3958,-280.5655 600.6639,-277.9545 596.7946,-272.1211"/>
</g>
<!-- Node311826&#45;&gt;Node311796 -->
<g id="edge46" class="edge">
<title>Node311826&#45;&gt;Node311796</title>
<path fill="none" stroke="#191970" d="M333.8329,-620.0304C354.5146,-614.7381 378.4188,-608.6212 397.7966,-603.6625"/>
<polygon fill="#191970" stroke="#191970" points="332.793,-616.6836 323.9728,-622.5535 334.5284,-623.4651 332.793,-616.6836"/>
</g>
<!-- Node311808&#45;&gt;Node311796 -->
<g id="edge55" class="edge">
<title>Node311808&#45;&gt;Node311796</title>
<path fill="none" stroke="#191970" d="M333.8329,-568.2546C354.5146,-573.5469 378.4188,-579.6638 397.7966,-584.6224"/>
<polygon fill="#191970" stroke="#191970" points="334.5284,-564.8198 323.9728,-565.7315 332.793,-571.6013 334.5284,-564.8198"/>
</g>
<!-- Node311829&#45;&gt;Node311796 -->
<g id="edge58" class="edge">
<title>Node311829&#45;&gt;Node311796</title>
<path fill="none" stroke="#191970" d="M204.3538,-671.4157C244.3449,-670.6379 298.0754,-666.3005 343,-651.1425 374.6898,-640.45 406.7892,-617.0696 423.4079,-603.8147"/>
<polygon fill="#191970" stroke="#191970" points="204.1927,-667.9173 194.2375,-671.5427 204.2806,-674.9168 204.1927,-667.9173"/>
</g>
<!-- Node311836&#45;&gt;Node311798 -->
<g id="edge62" class="edge">
<title>Node311836&#45;&gt;Node311798</title>
<path fill="none" stroke="#191970" d="M201.7702,-463.6837C241.3145,-465.9011 295.5644,-469.7844 343,-476.1425 583.0426,-508.3167 867.0618,-571.5444 971.1599,-595.5707"/>
<polygon fill="#191970" stroke="#191970" points="201.7115,-460.1754 191.5366,-463.1285 201.3323,-467.1652 201.7115,-460.1754"/>
</g>
<!-- Node311836&#45;&gt;Node311806 -->
<g id="edge66" class="edge">
<title>Node311836&#45;&gt;Node311806</title>
<path fill="none" stroke="#191970" d="M171.192,-475.7827C187.5544,-484.8495 209.5655,-496.2316 230,-504.1425 258.0269,-514.9926 466.3673,-557.9243 491,-575.1425 598.1365,-650.0304 544.8909,-755.1001 661,-815.1425 839.162,-907.2736 1077.9882,-700.7775 1129.811,-652.8109"/>
<polygon fill="#191970" stroke="#191970" points="172.6962,-472.6129 162.2654,-470.7555 169.2612,-478.7123 172.6962,-472.6129"/>
</g>
<!-- Node311836&#45;&gt;Node311816 -->
<g id="edge63" class="edge">
<title>Node311836&#45;&gt;Node311816</title>
<path fill="none" stroke="#191970" d="M160.0616,-443.6934C175.2223,-426.388 201.1014,-400.9407 230,-390.1425 377.3212,-335.0945 567.4916,-360.2392 661.3531,-378.3421"/>
<polygon fill="#191970" stroke="#191970" points="157.2994,-441.5394 153.5138,-451.4349 162.644,-446.06 157.2994,-441.5394"/>
</g>
<!-- Node311836&#45;&gt;Node311817 -->
<g id="edge65" class="edge">
<title>Node311836&#45;&gt;Node311817</title>
<path fill="none" stroke="#191970" d="M173.7112,-447.2187C189.7202,-439.9576 210.4944,-431.8365 230,-428.1425 279.3451,-418.7973 292.9971,-423.4541 343,-428.1425 409.6523,-434.392 427.0971,-436.1927 491,-456.1425 507.7135,-461.3603 509.8723,-468.5077 527,-472.1425 569.6067,-481.1842 581.4841,-474 625,-472.1425 692.7405,-469.251 711.7739,-477.6545 777,-459.1425 808.2182,-450.2823 841.2743,-431.2086 859.6062,-419.6454"/>
<polygon fill="#191970" stroke="#191970" points="171.9794,-444.165 164.413,-451.5813 174.9528,-450.5022 171.9794,-444.165"/>
</g>
<!-- Node311836&#45;&gt;Node311804 -->
<g id="edge67" class="edge">
<title>Node311836&#45;&gt;Node311804</title>
<path fill="none" stroke="#191970" d="M200.6199,-472.7991C240.1915,-481.3089 294.955,-493.2188 343,-504.1425 408.91,-519.1279 425.4872,-522.5061 491,-539.1425 620.5557,-572.0419 773.7027,-614.8032 840.2842,-633.586"/>
<polygon fill="#191970" stroke="#191970" points="201.1578,-469.3349 190.6458,-470.657 199.6879,-476.1788 201.1578,-469.3349"/>
</g>
<!-- Node311836&#45;&gt;Node311824 -->
<g id="edge64" class="edge">
<title>Node311836&#45;&gt;Node311824</title>
<path fill="none" stroke="#191970" d="M157.1205,-442.9763C171.511,-420.7837 198.5072,-383.3384 230,-360.1425 364.7392,-260.9008 563.5557,-219.6707 660.9418,-204.6547"/>
<polygon fill="#191970" stroke="#191970" points="154.1372,-441.1454 151.7486,-451.4675 160.0528,-444.8879 154.1372,-441.1454"/>
</g>
<!-- Node311836&#45;&gt;Node311808 -->
<g id="edge61" class="edge">
<title>Node311836&#45;&gt;Node311808</title>
<path fill="none" stroke="#191970" d="M163.1427,-478.3374C179.3224,-493.8783 204.7967,-516.6311 230,-532.1425 239.1669,-537.7842 249.895,-542.71 259.5256,-546.6066"/>
<polygon fill="#191970" stroke="#191970" points="165.1773,-475.4317 155.5797,-470.9444 160.2841,-480.4375 165.1773,-475.4317"/>
</g>
</g>
</svg>
