<?xml version="1.0" encoding="UTF-8" standalone="no"?>
<!DOCTYPE svg PUBLIC "-//W3C//DTD SVG 1.1//EN"
 "http://www.w3.org/Graphics/SVG/1.1/DTD/svg11.dtd">
<!-- Generated by graphviz version 2.40.1 (20161225.0304)
 -->
<!-- Title: set_value Pages: 1 -->
<!--zoomable 531 -->
<svg id="main" version="1.1" xmlns="http://www.w3.org/2000/svg" xmlns:xlink="http://www.w3.org/1999/xlink" xml:space="preserve" onload="init(evt)">
<style type="text/css"><![CDATA[
.edge:hover path { stroke: red; }
.edge:hover polygon { stroke: red; fill: red; }
]]></style>
<script type="text/javascript"><![CDATA[
var edges = document.getElementsByTagName('g');
if (edges && edges.length) {
  for (var i=0;i<edges.length;i++) {
    if (edges[i].id.substr(0,4)=='edge') {
      edges[i].setAttribute('class','edge');
    }
  }
}
]]></script>
        <defs>
                <circle id="rim" cx="0" cy="0" r="7"/>
                <circle id="rim2" cx="0" cy="0" r="3.5"/>
                <g id="zoomPlus">
                        <use xlink:href="#rim" fill="#404040">
                                <set attributeName="fill" to="#808080" begin="zoomplus.mouseover" end="zoomplus.mouseout"/>
                        </use>
                        <path d="M-4,0h8M0,-4v8" fill="none" stroke="white" stroke-width="1.5" pointer-events="none"/>
                </g>
                <g id="zoomMin">
                        <use xlink:href="#rim" fill="#404040">
                                <set attributeName="fill" to="#808080" begin="zoomminus.mouseover" end="zoomminus.mouseout"/>
                        </use>
                        <path d="M-4,0h8" fill="none" stroke="white" stroke-width="1.5" pointer-events="none"/>
                </g>
                <g id="dirArrow">
                        <path fill="none" stroke="white" stroke-width="1.5" d="M0,-3.0v7 M-2.5,-0.5L0,-3.0L2.5,-0.5"/>
                </g>
               <g id="resetDef">
                       <use xlink:href="#rim2" fill="#404040">
                               <set attributeName="fill" to="#808080" begin="reset.mouseover" end="reset.mouseout"/>
                       </use>
               </g>
        </defs>

<script type="text/javascript">
var viewWidth = 1290;
var viewHeight = 531;
var sectionId = 'dynsection-202';
</script>
<script xlink:href="svgpan.js"/>
<svg id="graph" class="graph">
<g id="viewport">
<title>set_value</title>
<!-- Node69296 -->
<g id="node1" class="node">
<title>Node69296</title>
<polygon fill="#bfbfbf" stroke="#000000" points="0,-302.5139 0,-321.5139 59,-321.5139 59,-302.5139 0,-302.5139"/>
<text text-anchor="middle" x="29.5" y="-309.5139" font-family="Helvetica,sans-Serif" font-size="10.00" fill="#000000">set_value</text>
</g>
<!-- Node69297 -->
<g id="node2" class="node">
<title>Node69297</title>
<g id="a_node2"><a xlink:href="quickjs_8c.html#ac2894ff4edcdb4e6841bcce9c76081e3" target="_top" xlink:title="JS_CallInternal">
<polygon fill="none" stroke="#000000" points="701,-319.5139 701,-338.5139 784,-338.5139 784,-319.5139 701,-319.5139"/>
<text text-anchor="middle" x="742.5" y="-326.5139" font-family="Helvetica,sans-Serif" font-size="10.00" fill="#000000">JS_CallInternal</text>
</a>
</g>
</g>
<!-- Node69296&#45;&gt;Node69297 -->
<g id="edge1" class="edge">
<title>Node69296&#45;&gt;Node69297</title>
<path fill="none" stroke="#191970" d="M69.1879,-302.9783C122.1067,-291.7396 218.8324,-274.0139 302.5,-274.0139 302.5,-274.0139 302.5,-274.0139 460,-274.0139 551.5016,-274.0139 576.66,-269.169 665,-293.0139 687.2007,-299.0064 710.9286,-310.9397 726.1958,-319.423"/>
<polygon fill="#191970" stroke="#191970" points="68.2418,-299.6018 59.2051,-305.1324 69.7184,-306.4443 68.2418,-299.6018"/>
</g>
<!-- Node69362 -->
<g id="node11" class="node">
<title>Node69362</title>
<g id="a_node11"><a xlink:href="quickjs_8c.html#adc0280beaa04d2b8fcaf05a82ab26c74" target="_top" xlink:title="js_link_module">
<polygon fill="none" stroke="#000000" points="1016,-218.5139 1016,-237.5139 1097,-237.5139 1097,-218.5139 1016,-218.5139"/>
<text text-anchor="middle" x="1056.5" y="-225.5139" font-family="Helvetica,sans-Serif" font-size="10.00" fill="#000000">js_link_module</text>
</a>
</g>
</g>
<!-- Node69296&#45;&gt;Node69362 -->
<g id="edge38" class="edge">
<title>Node69296&#45;&gt;Node69362</title>
<path fill="none" stroke="#191970" d="M38.351,-293.3228C48.8713,-273.3469 68.4073,-242.4722 95,-227.0139 175.5051,-180.2165 209.3815,-198.0139 302.5,-198.0139 302.5,-198.0139 302.5,-198.0139 742.5,-198.0139 841.0718,-198.0139 956.2638,-212.8455 1015.9715,-221.6517"/>
<polygon fill="#191970" stroke="#191970" points="35.159,-291.88 33.8002,-302.3873 41.4149,-295.0207 35.159,-291.88"/>
</g>
<!-- Node69482 -->
<g id="node17" class="node">
<title>Node69482</title>
<g id="a_node17"><a xlink:href="quickjs_8c.html#ad5565bb5cfd5321f181573257f3b0c91" target="_top" xlink:title="JS_CreateProperty">
<polygon fill="none" stroke="#ff0000" points="99.5,-416.5139 99.5,-435.5139 199.5,-435.5139 199.5,-416.5139 99.5,-416.5139"/>
<text text-anchor="middle" x="149.5" y="-423.5139" font-family="Helvetica,sans-Serif" font-size="10.00" fill="#000000">JS_CreateProperty</text>
</a>
</g>
</g>
<!-- Node69296&#45;&gt;Node69482 -->
<g id="edge23" class="edge">
<title>Node69296&#45;&gt;Node69482</title>
<path fill="none" stroke="#191970" d="M37.9889,-330.9013C48.4894,-352.247 68.301,-386.662 95,-407.0139 100.0205,-410.8409 105.8706,-413.935 111.838,-416.4251"/>
<polygon fill="#191970" stroke="#191970" points="41.0275,-329.1393 33.5926,-321.5912 34.6977,-332.1283 41.0275,-329.1393"/>
</g>
<!-- Node69445 -->
<g id="node18" class="node">
<title>Node69445</title>
<g id="a_node18"><a xlink:href="quickjs_8c.html#ab50618f1bf78e444caa6da0e3e2785d7" target="_top" xlink:title="JS_DefineProperty">
<polygon fill="none" stroke="#ff0000" points="253,-454.5139 253,-473.5139 352,-473.5139 352,-454.5139 253,-454.5139"/>
<text text-anchor="middle" x="302.5" y="-461.5139" font-family="Helvetica,sans-Serif" font-size="10.00" fill="#000000">JS_DefineProperty</text>
</a>
</g>
</g>
<!-- Node69296&#45;&gt;Node69445 -->
<g id="edge37" class="edge">
<title>Node69296&#45;&gt;Node69445</title>
<path fill="none" stroke="#191970" d="M33.0076,-331.9471C39.4546,-362.0405 56.2565,-418.3801 95,-445.0139 141.2064,-476.778 207.5276,-477.043 252.667,-472.3079"/>
<polygon fill="#191970" stroke="#191970" points="36.3796,-330.9543 31.0196,-321.8153 29.5106,-332.3021 36.3796,-330.9543"/>
</g>
<!-- Node69422 -->
<g id="node19" class="node">
<title>Node69422</title>
<g id="a_node19"><a xlink:href="quickjs_8c.html#ad7f03358a8088ca920ab308225c6b2e6" target="_top" xlink:title="JS_SetPropertyInternal">
<polygon fill="none" stroke="#ff0000" points="401,-340.5139 401,-359.5139 519,-359.5139 519,-340.5139 401,-340.5139"/>
<text text-anchor="middle" x="460" y="-347.5139" font-family="Helvetica,sans-Serif" font-size="10.00" fill="#000000">JS_SetPropertyInternal</text>
</a>
</g>
</g>
<!-- Node69296&#45;&gt;Node69422 -->
<g id="edge53" class="edge">
<title>Node69296&#45;&gt;Node69422</title>
<path fill="none" stroke="#191970" d="M68.8107,-321.3822C77.4006,-323.1582 86.4733,-324.8287 95,-326.0139 202.2448,-340.921 328.5417,-346.6172 400.9414,-348.7593"/>
<polygon fill="#191970" stroke="#191970" points="69.5232,-317.9554 59.0104,-319.2716 68.0494,-324.7985 69.5232,-317.9554"/>
</g>
<!-- Node69444 -->
<g id="node20" class="node">
<title>Node69444</title>
<g id="a_node20"><a xlink:href="quickjs_8c.html#aee75cc1546e19479e3ccda58f3b50a96" target="_top" xlink:title="JS_SetPropertyValue">
<polygon fill="none" stroke="#ff0000" points="555,-416.5139 555,-435.5139 665,-435.5139 665,-416.5139 555,-416.5139"/>
<text text-anchor="middle" x="610" y="-423.5139" font-family="Helvetica,sans-Serif" font-size="10.00" fill="#000000">JS_SetPropertyValue</text>
</a>
</g>
</g>
<!-- Node69296&#45;&gt;Node69444 -->
<g id="edge54" class="edge">
<title>Node69296&#45;&gt;Node69444</title>
<path fill="none" stroke="#191970" d="M31.0823,-332.1341C35.0352,-367.3191 48.6638,-439.4677 95,-473.0139 254.6277,-588.5802 519.1326,-471.4153 591.3128,-435.6557"/>
<polygon fill="#191970" stroke="#191970" points="34.5226,-331.3461 30.0794,-321.7281 27.5549,-332.0177 34.5226,-331.3461"/>
</g>
<!-- Node69620 -->
<g id="node21" class="node">
<title>Node69620</title>
<g id="a_node21"><a xlink:href="quickjs_8c.html#ad50f89a3ee5e8b29b31bb62cf8ea0d82" target="_top" xlink:title="JS_SetGlobalVar">
<polygon fill="none" stroke="#000000" points="564,-302.5139 564,-321.5139 656,-321.5139 656,-302.5139 564,-302.5139"/>
<text text-anchor="middle" x="610" y="-309.5139" font-family="Helvetica,sans-Serif" font-size="10.00" fill="#000000">JS_SetGlobalVar</text>
</a>
</g>
</g>
<!-- Node69296&#45;&gt;Node69620 -->
<g id="edge43" class="edge">
<title>Node69296&#45;&gt;Node69620</title>
<path fill="none" stroke="#191970" d="M69.1605,-312.0139C173.1333,-312.0139 453.1855,-312.0139 563.9772,-312.0139"/>
<polygon fill="#191970" stroke="#191970" points="69.0852,-308.514 59.0852,-312.0139 69.0851,-315.514 69.0852,-308.514"/>
</g>
<!-- Node69907 -->
<g id="node22" class="node">
<title>Node69907</title>
<g id="a_node22"><a xlink:href="quickjs_8c.html#a742ee8af627e4502758e503d152b0cd0" target="_top" xlink:title="JS_SetClassProto">
<polygon fill="none" stroke="#000000" points="253.5,-145.5139 253.5,-164.5139 351.5,-164.5139 351.5,-145.5139 253.5,-145.5139"/>
<text text-anchor="middle" x="302.5" y="-152.5139" font-family="Helvetica,sans-Serif" font-size="10.00" fill="#000000">JS_SetClassProto</text>
</a>
</g>
</g>
<!-- Node69296&#45;&gt;Node69907 -->
<g id="edge39" class="edge">
<title>Node69296&#45;&gt;Node69907</title>
<path fill="none" stroke="#191970" d="M33.5944,-292.2251C40.6893,-263.3331 58.1881,-210.2021 95,-184.0139 141.2375,-151.1204 208.1757,-147.547 253.4158,-149.7745"/>
<polygon fill="#191970" stroke="#191970" points="30.1012,-291.8027 31.2981,-302.3297 36.9272,-293.354 30.1012,-291.8027"/>
</g>
<!-- Node69910 -->
<g id="node26" class="node">
<title>Node69910</title>
<g id="a_node26"><a xlink:href="quickjs_8c.html#acc3990661d2851b858601061a62cc7d6" target="_top" xlink:title="JS_SetModuleExport">
<polygon fill="none" stroke="#000000" points="95,-63.5139 95,-82.5139 204,-82.5139 204,-63.5139 95,-63.5139"/>
<text text-anchor="middle" x="149.5" y="-70.5139" font-family="Helvetica,sans-Serif" font-size="10.00" fill="#000000">JS_SetModuleExport</text>
</a>
</g>
</g>
<!-- Node69296&#45;&gt;Node69910 -->
<g id="edge44" class="edge">
<title>Node69296&#45;&gt;Node69910</title>
<path fill="none" stroke="#191970" d="M35.3528,-292.4297C45.2736,-260.5905 67.066,-196.122 95,-146.0139 108.5541,-121.7006 129.2311,-96.3142 140.8305,-82.822"/>
<polygon fill="#191970" stroke="#191970" points="31.926,-291.6674 32.3482,-302.2538 38.6199,-293.7147 31.926,-291.6674"/>
</g>
<!-- Node69912 -->
<g id="node29" class="node">
<title>Node69912</title>
<g id="a_node29"><a xlink:href="quickjs_8c.html#aeadd1b317a296e3b9fd4ebc0261f7559" target="_top" xlink:title="JS_SetPrivateField">
<polygon fill="none" stroke="#000000" points="559.5,-226.5139 559.5,-245.5139 660.5,-245.5139 660.5,-226.5139 559.5,-226.5139"/>
<text text-anchor="middle" x="610" y="-233.5139" font-family="Helvetica,sans-Serif" font-size="10.00" fill="#000000">JS_SetPrivateField</text>
</a>
</g>
</g>
<!-- Node69296&#45;&gt;Node69912 -->
<g id="edge51" class="edge">
<title>Node69296&#45;&gt;Node69912</title>
<path fill="none" stroke="#191970" d="M45.2244,-294.7571C57.4673,-282.6185 75.5955,-267.291 95,-260.0139 255.7004,-199.7482 464.5977,-216.2985 559.3319,-228.402"/>
<polygon fill="#191970" stroke="#191970" points="42.5063,-292.5332 38.0747,-302.1567 47.5403,-297.3972 42.5063,-292.5332"/>
</g>
<!-- Node69481 -->
<g id="node30" class="node">
<title>Node69481</title>
<g id="a_node30"><a xlink:href="quickjs_8c.html#ad55fe6f65ecb58e327ac9e9b4ab475f5" target="_top" xlink:title="set_array_length">
<polygon fill="none" stroke="#000000" points="105,-378.5139 105,-397.5139 194,-397.5139 194,-378.5139 105,-378.5139"/>
<text text-anchor="middle" x="149.5" y="-385.5139" font-family="Helvetica,sans-Serif" font-size="10.00" fill="#000000">set_array_length</text>
</a>
</g>
</g>
<!-- Node69296&#45;&gt;Node69481 -->
<g id="edge55" class="edge">
<title>Node69296&#45;&gt;Node69481</title>
<path fill="none" stroke="#191970" d="M47.5367,-328.42C60.1992,-339.3993 77.8677,-353.6764 95,-364.0139 104.1176,-369.5154 114.7208,-374.475 124.1383,-378.4382"/>
<polygon fill="#191970" stroke="#191970" points="49.8059,-325.7545 39.9945,-321.7559 45.1709,-331.0001 49.8059,-325.7545"/>
</g>
<!-- Node69297&#45;&gt;Node69297 -->
<g id="edge22" class="edge">
<title>Node69297&#45;&gt;Node69297</title>
<path fill="none" stroke="#191970" d="M717.9465,-348.0431C719.2858,-353.1419 727.4703,-357.0139 742.5,-357.0139 765.9609,-357.0139 772.7426,-347.5792 762.845,-338.771"/>
<polygon fill="#191970" stroke="#191970" points="721.209,-349.3235 722.155,-338.771 714.8348,-346.4303 721.209,-349.3235"/>
</g>
<!-- Node69298 -->
<g id="node3" class="node">
<title>Node69298</title>
<g id="a_node3"><a xlink:href="quickjs_8c.html#ade71a22dc56e7371392393df663b28b3" target="_top" xlink:title="async_func_resume">
<polygon fill="none" stroke="#000000" points="835,-136.5139 835,-155.5139 939,-155.5139 939,-136.5139 835,-136.5139"/>
<text text-anchor="middle" x="887" y="-143.5139" font-family="Helvetica,sans-Serif" font-size="10.00" fill="#000000">async_func_resume</text>
</a>
</g>
</g>
<!-- Node69297&#45;&gt;Node69298 -->
<g id="edge2" class="edge">
<title>Node69297&#45;&gt;Node69298</title>
<path fill="none" stroke="#191970" d="M756.4499,-311.3472C786.3486,-273.4825 855.7834,-185.5477 879.159,-155.9441"/>
<polygon fill="#191970" stroke="#191970" points="753.5158,-309.4154 750.0655,-319.4327 759.0096,-313.7534 753.5158,-309.4154"/>
</g>
<!-- Node69317 -->
<g id="node8" class="node">
<title>Node69317</title>
<g id="a_node8"><a xlink:href="quickjs_8c.html#a1a4c02a29525d5cb2085dd8bca3af350" target="_top" xlink:title="JS_Call">
<polygon fill="none" stroke="#ff0000" points="861.5,-281.5139 861.5,-300.5139 912.5,-300.5139 912.5,-281.5139 861.5,-281.5139"/>
<text text-anchor="middle" x="887" y="-288.5139" font-family="Helvetica,sans-Serif" font-size="10.00" fill="#000000">JS_Call</text>
</a>
</g>
</g>
<!-- Node69297&#45;&gt;Node69317 -->
<g id="edge7" class="edge">
<title>Node69297&#45;&gt;Node69317</title>
<path fill="none" stroke="#191970" d="M770.8555,-316.0661C797.1795,-307.4027 836.0219,-297.2526 861.4179,-292.444"/>
<polygon fill="#191970" stroke="#191970" points="769.4139,-312.8605 761.095,-319.4215 771.6897,-319.4803 769.4139,-312.8605"/>
</g>
<!-- Node69403 -->
<g id="node14" class="node">
<title>Node69403</title>
<g id="a_node14"><a xlink:href="quickjs_8c.html#ad35594576a14c10812efaf958c99af8a" target="_top" xlink:title="JS_CallConstructorInternal">
<polygon fill="none" stroke="#ff0000" points="820,-357.5139 820,-376.5139 954,-376.5139 954,-357.5139 820,-357.5139"/>
<text text-anchor="middle" x="887" y="-364.5139" font-family="Helvetica,sans-Serif" font-size="10.00" fill="#000000">JS_CallConstructorInternal</text>
</a>
</g>
</g>
<!-- Node69297&#45;&gt;Node69403 -->
<g id="edge16" class="edge">
<title>Node69297&#45;&gt;Node69403</title>
<path fill="none" stroke="#191970" d="M794.3524,-336.1448C820.197,-342.3049 849.8346,-350.7024 868.4855,-357.4507"/>
<polygon fill="#191970" stroke="#191970" points="794.8269,-332.6623 784.2954,-333.8191 793.2497,-339.4823 794.8269,-332.6623"/>
</g>
<!-- Node69417 -->
<g id="node15" class="node">
<title>Node69417</title>
<g id="a_node15"><a xlink:href="quickjs_8c.html#a75f6ee5e4235a7dc99889f3d2eb2c147" target="_top" xlink:title="JS_CallFree">
<polygon fill="none" stroke="#ff0000" points="851.5,-319.5139 851.5,-338.5139 922.5,-338.5139 922.5,-319.5139 851.5,-319.5139"/>
<text text-anchor="middle" x="887" y="-326.5139" font-family="Helvetica,sans-Serif" font-size="10.00" fill="#000000">JS_CallFree</text>
</a>
</g>
</g>
<!-- Node69297&#45;&gt;Node69417 -->
<g id="edge18" class="edge">
<title>Node69297&#45;&gt;Node69417</title>
<path fill="none" stroke="#191970" d="M794.4963,-322.5054C813.2911,-322.0461 834.0752,-322.242 851.1736,-323.0928"/>
<polygon fill="#191970" stroke="#191970" points="794.1798,-319.0135 784.2954,-322.8279 794.401,-326.0101 794.1798,-319.0135"/>
</g>
<!-- Node69299 -->
<g id="node4" class="node">
<title>Node69299</title>
<g id="a_node4"><a xlink:href="quickjs_8c.html#ac90552b1f1659acb3dae9a4c62479a30" target="_top" xlink:title="js_generator_function_call">
<polygon fill="none" stroke="#ff0000" points="991.5,-43.5139 991.5,-62.5139 1121.5,-62.5139 1121.5,-43.5139 991.5,-43.5139"/>
<text text-anchor="middle" x="1056.5" y="-50.5139" font-family="Helvetica,sans-Serif" font-size="10.00" fill="#000000">js_generator_function_call</text>
</a>
</g>
</g>
<!-- Node69298&#45;&gt;Node69299 -->
<g id="edge3" class="edge">
<title>Node69298&#45;&gt;Node69299</title>
<path fill="none" stroke="#191970" d="M905.8698,-129.761C925.6667,-113.4285 958.2627,-88.5157 990,-73.0139 998.4496,-68.8868 1007.9237,-65.4179 1017.0136,-62.5894"/>
<polygon fill="#191970" stroke="#191970" points="903.379,-127.2819 897.9661,-136.3897 907.8772,-132.6453 903.379,-127.2819"/>
</g>
<!-- Node69308 -->
<g id="node5" class="node">
<title>Node69308</title>
<g id="a_node5"><a xlink:href="quickjs_8c.html#a1bf6b62983e8fff99c0a5d5a9f486115" target="_top" xlink:title="js_async_function_resume">
<polygon fill="none" stroke="#ff0000" points="990,-180.5139 990,-199.5139 1123,-199.5139 1123,-180.5139 990,-180.5139"/>
<text text-anchor="middle" x="1056.5" y="-187.5139" font-family="Helvetica,sans-Serif" font-size="10.00" fill="#000000">js_async_function_resume</text>
</a>
</g>
</g>
<!-- Node69298&#45;&gt;Node69308 -->
<g id="edge4" class="edge">
<title>Node69298&#45;&gt;Node69308</title>
<path fill="none" stroke="#191970" d="M933.4651,-158.0757C960.6496,-165.1324 994.4877,-173.9163 1019.7928,-180.4852"/>
<polygon fill="#191970" stroke="#191970" points="934.3376,-154.6862 923.779,-155.5613 932.5787,-161.4616 934.3376,-154.6862"/>
</g>
<!-- Node69315 -->
<g id="node6" class="node">
<title>Node69315</title>
<g id="a_node6"><a xlink:href="quickjs_8c.html#a89b019c704a2d2914bc30b30a72040b3" target="_top" xlink:title="js_async_generator\l_resume_next">
<polygon fill="none" stroke="#000000" points="1006,-131.0139 1006,-161.0139 1107,-161.0139 1107,-131.0139 1006,-131.0139"/>
<text text-anchor="start" x="1014" y="-149.0139" font-family="Helvetica,sans-Serif" font-size="10.00" fill="#000000">js_async_generator</text>
<text text-anchor="middle" x="1056.5" y="-138.0139" font-family="Helvetica,sans-Serif" font-size="10.00" fill="#000000">_resume_next</text>
</a>
</g>
</g>
<!-- Node69298&#45;&gt;Node69315 -->
<g id="edge5" class="edge">
<title>Node69298&#45;&gt;Node69315</title>
<path fill="none" stroke="#191970" d="M949.388,-146.0139C967.9885,-146.0139 988.1368,-146.0139 1005.8866,-146.0139"/>
<polygon fill="#191970" stroke="#191970" points="949.2387,-142.514 939.2387,-146.0139 949.2386,-149.514 949.2387,-142.514"/>
</g>
<!-- Node69316 -->
<g id="node7" class="node">
<title>Node69316</title>
<g id="a_node7"><a xlink:href="quickjs_8c.html#ae19867da709929c072f05e90301835a4" target="_top" xlink:title="js_async_generator\l_function_call">
<polygon fill="none" stroke="#ff0000" points="1006,-82.0139 1006,-112.0139 1107,-112.0139 1107,-82.0139 1006,-82.0139"/>
<text text-anchor="start" x="1014" y="-100.0139" font-family="Helvetica,sans-Serif" font-size="10.00" fill="#000000">js_async_generator</text>
<text text-anchor="middle" x="1056.5" y="-89.0139" font-family="Helvetica,sans-Serif" font-size="10.00" fill="#000000">_function_call</text>
</a>
</g>
</g>
<!-- Node69298&#45;&gt;Node69316 -->
<g id="edge6" class="edge">
<title>Node69298&#45;&gt;Node69316</title>
<path fill="none" stroke="#191970" d="M929.9372,-133.6014C953.0226,-126.9277 981.6309,-118.6575 1005.805,-111.6691"/>
<polygon fill="#191970" stroke="#191970" points="928.7183,-130.3104 920.0837,-136.4499 930.6623,-137.035 928.7183,-130.3104"/>
</g>
<!-- Node69317&#45;&gt;Node69297 -->
<g id="edge10" class="edge">
<title>Node69317&#45;&gt;Node69297</title>
<path fill="none" stroke="#191970" d="M858.7961,-303.9118C837.5982,-310.8964 808.2201,-318.8571 784.2954,-324.2087"/>
<polygon fill="#191970" stroke="#191970" points="860.1689,-307.1409 868.4855,-300.5771 857.8909,-300.5219 860.1689,-307.1409"/>
</g>
<!-- Node69317&#45;&gt;Node69308 -->
<g id="edge11" class="edge">
<title>Node69317&#45;&gt;Node69308</title>
<path fill="none" stroke="#191970" d="M903.6444,-274.257C922.8706,-255.7897 956.2133,-226.4038 990,-209.0139 997.3664,-205.2224 1005.593,-202.0945 1013.6807,-199.5479"/>
<polygon fill="#191970" stroke="#191970" points="901.0076,-271.9403 896.3088,-281.4362 905.9037,-276.9431 901.0076,-271.9403"/>
</g>
<!-- Node69318 -->
<g id="node9" class="node">
<title>Node69318</title>
<g id="a_node9"><a xlink:href="structqjs_1_1js__traits_3_01std_1_1function_3_01R_07Args_8_8_8_08_4_01_4.html#ac449e51d3fe10c6c115596fa6ec278ee" target="_top" xlink:title="qjs::js_traits\&lt; std\l::function\&lt; R(Args...)\l\&gt; \&gt;::unwrap">
<polygon fill="none" stroke="#000000" points="1002,-312.5139 1002,-353.5139 1111,-353.5139 1111,-312.5139 1002,-312.5139"/>
<text text-anchor="start" x="1010" y="-341.5139" font-family="Helvetica,sans-Serif" font-size="10.00" fill="#000000">qjs::js_traits&lt; std</text>
<text text-anchor="start" x="1010" y="-330.5139" font-family="Helvetica,sans-Serif" font-size="10.00" fill="#000000">::function&lt; R(Args...)</text>
<text text-anchor="middle" x="1056.5" y="-319.5139" font-family="Helvetica,sans-Serif" font-size="10.00" fill="#000000">&gt; &gt;::unwrap</text>
</a>
</g>
</g>
<!-- Node69317&#45;&gt;Node69318 -->
<g id="edge8" class="edge">
<title>Node69317&#45;&gt;Node69318</title>
<path fill="none" stroke="#191970" d="M922.7116,-299.8628C945.6128,-305.5374 975.7972,-313.0168 1001.6986,-319.4348"/>
<polygon fill="#191970" stroke="#191970" points="923.2917,-296.4008 912.7434,-297.3928 921.608,-303.1953 923.2917,-296.4008"/>
</g>
<!-- Node69319 -->
<g id="node10" class="node">
<title>Node69319</title>
<g id="a_node10"><a xlink:href="quickjs-libc_8c.html#abb1cbe3fdf905e81f603a3a0bfce475a" target="_top" xlink:title="call_handler">
<polygon fill="none" stroke="#000000" points="1022.5,-274.5139 1022.5,-293.5139 1090.5,-293.5139 1090.5,-274.5139 1022.5,-274.5139"/>
<text text-anchor="middle" x="1056.5" y="-281.5139" font-family="Helvetica,sans-Serif" font-size="10.00" fill="#000000">call_handler</text>
</a>
</g>
</g>
<!-- Node69317&#45;&gt;Node69319 -->
<g id="edge9" class="edge">
<title>Node69317&#45;&gt;Node69319</title>
<path fill="none" stroke="#191970" d="M922.9702,-289.5284C952.3013,-288.3171 993.4516,-286.6177 1022.2948,-285.4265"/>
<polygon fill="#191970" stroke="#191970" points="922.5904,-286.041 912.7434,-289.9508 922.8793,-293.0351 922.5904,-286.041"/>
</g>
<!-- Node69317&#45;&gt;Node69362 -->
<g id="edge12" class="edge">
<title>Node69317&#45;&gt;Node69362</title>
<path fill="none" stroke="#191970" d="M922.2787,-277.9015C954.6547,-265.8679 1001.8521,-248.3255 1030.7926,-237.5689"/>
<polygon fill="#191970" stroke="#191970" points="920.8975,-274.6808 912.7434,-281.4456 923.3363,-281.2423 920.8975,-274.6808"/>
</g>
<!-- Node69350 -->
<g id="node13" class="node">
<title>Node69350</title>
<g id="a_node13"><a xlink:href="quickjs_8c.html#aa0bbf08a7e91459c68a312fba7016c6d" target="_top" xlink:title="js_array_every">
<polygon fill="none" stroke="#000000" points="1016.5,-372.5139 1016.5,-391.5139 1096.5,-391.5139 1096.5,-372.5139 1016.5,-372.5139"/>
<text text-anchor="middle" x="1056.5" y="-379.5139" font-family="Helvetica,sans-Serif" font-size="10.00" fill="#000000">js_array_every</text>
</a>
</g>
</g>
<!-- Node69317&#45;&gt;Node69350 -->
<g id="edge15" class="edge">
<title>Node69317&#45;&gt;Node69350</title>
<path fill="none" stroke="#191970" d="M922.7361,-296.29C933.4962,-299.1063 944.8622,-303.4179 954,-310.0139 977.0889,-326.6803 966.9276,-346.3248 990,-363.0139 997.783,-368.6437 1007.1958,-372.6103 1016.4597,-375.4035"/>
<polygon fill="#191970" stroke="#191970" points="923.2234,-292.8119 912.6979,-294.0223 921.6808,-299.6399 923.2234,-292.8119"/>
</g>
<!-- Node69362&#45;&gt;Node69362 -->
<g id="edge13" class="edge">
<title>Node69362&#45;&gt;Node69362</title>
<path fill="none" stroke="#191970" d="M1025.8114,-246.2885C1026.6864,-251.7549 1036.9159,-256.0139 1056.5,-256.0139 1085.6484,-256.0139 1094.0742,-246.5792 1081.7772,-237.771"/>
<polygon fill="#191970" stroke="#191970" points="1028.8144,-248.0884 1031.2228,-237.771 1022.906,-244.3346 1028.8144,-248.0884"/>
</g>
<!-- Node69363 -->
<g id="node12" class="node">
<title>Node69363</title>
<g id="a_node12"><a xlink:href="quickjs_8c.html#a5d217acce00892ab2b50a1dcc1eb4cc8" target="_top" xlink:title="JS_EvalFunctionInternal">
<polygon fill="none" stroke="#ff0000" points="1159,-314.5139 1159,-333.5139 1282,-333.5139 1282,-314.5139 1159,-314.5139"/>
<text text-anchor="middle" x="1220.5" y="-321.5139" font-family="Helvetica,sans-Serif" font-size="10.00" fill="#000000">JS_EvalFunctionInternal</text>
</a>
</g>
</g>
<!-- Node69362&#45;&gt;Node69363 -->
<g id="edge14" class="edge">
<title>Node69362&#45;&gt;Node69363</title>
<path fill="none" stroke="#191970" d="M1082.9195,-242.4248C1095.17,-249.1807 1109.8885,-257.4026 1123,-265.0139 1152.2597,-281.9992 1185.933,-302.618 1205.0685,-314.4376"/>
<polygon fill="#191970" stroke="#191970" points="1084.5497,-239.327 1074.1001,-237.5786 1081.1786,-245.4618 1084.5497,-239.327"/>
</g>
<!-- Node69403&#45;&gt;Node69297 -->
<g id="edge17" class="edge">
<title>Node69403&#45;&gt;Node69297</title>
<path fill="none" stroke="#191970" d="M815.427,-354.9417C795.3051,-349.6658 775.1133,-343.6733 761.095,-338.6063"/>
<polygon fill="#191970" stroke="#191970" points="814.716,-358.3725 825.272,-357.4669 816.4552,-351.592 814.716,-358.3725"/>
</g>
<!-- Node69417&#45;&gt;Node69297 -->
<g id="edge19" class="edge">
<title>Node69417&#45;&gt;Node69297</title>
<path fill="none" stroke="#191970" d="M841.0774,-335.3487C822.869,-335.9481 802.0761,-335.8985 784.2954,-335.1999"/>
<polygon fill="#191970" stroke="#191970" points="841.3253,-338.8416 851.1736,-334.935 841.0386,-331.8475 841.3253,-338.8416"/>
</g>
<!-- Node69417&#45;&gt;Node69363 -->
<g id="edge20" class="edge">
<title>Node69417&#45;&gt;Node69363</title>
<path fill="none" stroke="#191970" d="M932.4573,-337.2323C940.0824,-339.8835 947.5895,-343.3866 954,-348.0139 977.0889,-364.6803 964.8358,-387.6862 990,-401.0139 1042.237,-428.6801 1067.1599,-420.4047 1123,-401.0139 1161.9175,-387.4996 1197.0367,-351.2887 1212.3618,-333.7716"/>
<polygon fill="#191970" stroke="#191970" points="933.3945,-333.8592 922.8092,-334.3091 931.3647,-340.5585 933.3945,-333.8592"/>
</g>
<!-- Node69602 -->
<g id="node16" class="node">
<title>Node69602</title>
<g id="a_node16"><a xlink:href="quickjs_8c.html#a7e5b77a4851eee6f666581d051979392" target="_top" xlink:title="js_proxy_define_own\l_property">
<polygon fill="none" stroke="#000000" points="1002.5,-449.0139 1002.5,-479.0139 1110.5,-479.0139 1110.5,-449.0139 1002.5,-449.0139"/>
<text text-anchor="start" x="1010.5" y="-467.0139" font-family="Helvetica,sans-Serif" font-size="10.00" fill="#000000">js_proxy_define_own</text>
<text text-anchor="middle" x="1056.5" y="-456.0139" font-family="Helvetica,sans-Serif" font-size="10.00" fill="#000000">_property</text>
</a>
</g>
</g>
<!-- Node69417&#45;&gt;Node69602 -->
<g id="edge21" class="edge">
<title>Node69417&#45;&gt;Node69602</title>
<path fill="none" stroke="#191970" d="M932.2893,-335.8493C940.1809,-338.6339 947.8254,-342.5397 954,-348.0139 985.0054,-375.5021 961.1038,-404.3163 990,-434.0139 995.8295,-440.0051 1003.0733,-444.9011 1010.6146,-448.8684"/>
<polygon fill="#191970" stroke="#191970" points="933.2054,-332.4704 922.6228,-332.9788 931.2127,-339.1808 933.2054,-332.4704"/>
</g>
<!-- Node69482&#45;&gt;Node69445 -->
<g id="edge24" class="edge">
<title>Node69482&#45;&gt;Node69445</title>
<path fill="none" stroke="#191970" d="M197.9768,-438.0539C219.3517,-443.3627 244.1134,-449.5127 264.1693,-454.4939"/>
<polygon fill="#191970" stroke="#191970" points="198.6572,-434.6166 188.1084,-435.6029 196.9698,-441.4102 198.6572,-434.6166"/>
</g>
<!-- Node69482&#45;&gt;Node69422 -->
<g id="edge36" class="edge">
<title>Node69482&#45;&gt;Node69422</title>
<path fill="none" stroke="#191970" d="M209.8255,-417.2712C253.375,-410.2995 313.357,-399.3343 365,-385.0139 390.2371,-378.0158 418.2789,-367.3073 437.3112,-359.5782"/>
<polygon fill="#191970" stroke="#191970" points="209.0141,-413.8559 199.6812,-418.8707 210.1043,-420.7705 209.0141,-413.8559"/>
</g>
<!-- Node69445&#45;&gt;Node69297 -->
<g id="edge34" class="edge">
<title>Node69445&#45;&gt;Node69297</title>
<path fill="none" stroke="#191970" d="M340.9888,-451.3011C359.1605,-445.3525 381.1658,-438.2261 401,-432.0139 460.4648,-413.3893 637.4838,-360.393 710.481,-338.5766"/>
<polygon fill="#191970" stroke="#191970" points="339.7365,-448.0283 331.3259,-454.4713 341.9187,-454.6795 339.7365,-448.0283"/>
</g>
<!-- Node69445&#45;&gt;Node69602 -->
<g id="edge35" class="edge">
<title>Node69445&#45;&gt;Node69602</title>
<path fill="none" stroke="#191970" d="M362.3976,-464.0139C424.368,-464.0139 523.9556,-464.0139 610,-464.0139 610,-464.0139 610,-464.0139 742.5,-464.0139 833.6745,-464.0139 939.7405,-464.0139 1002.3244,-464.0139"/>
<polygon fill="#191970" stroke="#191970" points="362.03,-460.514 352.0299,-464.0139 362.0299,-467.514 362.03,-460.514"/>
</g>
<!-- Node69445&#45;&gt;Node69422 -->
<g id="edge25" class="edge">
<title>Node69445&#45;&gt;Node69422</title>
<path fill="none" stroke="#191970" d="M349.6826,-450.1485C355.1955,-447.3348 360.4618,-443.9865 365,-440.0139 390.1413,-418.0058 376.0767,-396.2686 401,-374.0139 407.9286,-367.8272 416.6626,-363.1165 425.2713,-359.5793"/>
<polygon fill="#191970" stroke="#191970" points="347.9369,-447.0961 340.2573,-454.395 350.8124,-453.4783 347.9369,-447.0961"/>
</g>
<!-- Node69422&#45;&gt;Node69297 -->
<g id="edge33" class="edge">
<title>Node69422&#45;&gt;Node69297</title>
<path fill="none" stroke="#191970" d="M529.3561,-344.8582C583.0565,-340.8663 655.6602,-335.4693 700.7592,-332.1168"/>
<polygon fill="#191970" stroke="#191970" points="528.9342,-341.3798 519.2213,-345.6116 529.4532,-348.3606 528.9342,-341.3798"/>
</g>
<!-- Node69422&#45;&gt;Node69444 -->
<g id="edge26" class="edge">
<title>Node69422&#45;&gt;Node69444</title>
<path fill="none" stroke="#191970" d="M499.0377,-363.7863C532.1138,-379.0647 577.4154,-402.7479 598.4265,-416.3343"/>
<polygon fill="#191970" stroke="#191970" points="500.1882,-360.4652 489.6352,-359.5253 497.2988,-366.841 500.1882,-360.4652"/>
</g>
<!-- Node69422&#45;&gt;Node69620 -->
<g id="edge31" class="edge">
<title>Node69422&#45;&gt;Node69620</title>
<path fill="none" stroke="#191970" d="M507.811,-337.9018C528.7016,-332.6095 552.8472,-326.4926 572.4209,-321.534"/>
<polygon fill="#191970" stroke="#191970" points="506.6856,-334.5763 497.8513,-340.4249 508.4047,-341.3619 506.6856,-334.5763"/>
</g>
<!-- Node69444&#45;&gt;Node69297 -->
<g id="edge28" class="edge">
<title>Node69444&#45;&gt;Node69297</title>
<path fill="none" stroke="#191970" d="M646.2853,-412.3075C652.7259,-409.2858 659.2168,-405.8317 665,-402.0139 693.3833,-383.2765 721.0022,-353.7622 734.2927,-338.6426"/>
<polygon fill="#191970" stroke="#191970" points="644.709,-409.1774 636.9736,-416.4171 647.5354,-415.5814 644.709,-409.1774"/>
</g>
<!-- Node69444&#45;&gt;Node69350 -->
<g id="edge27" class="edge">
<title>Node69444&#45;&gt;Node69350</title>
<path fill="none" stroke="#191970" d="M675.4123,-419.5679C769.1701,-410.3286 938.9599,-393.5968 1016.2441,-385.9809"/>
<polygon fill="#191970" stroke="#191970" points="674.806,-416.1106 665.1975,-420.5745 675.4926,-423.0769 674.806,-416.1106"/>
</g>
<!-- Node69444&#45;&gt;Node69445 -->
<g id="edge29" class="edge">
<title>Node69444&#45;&gt;Node69445</title>
<path fill="none" stroke="#191970" d="M544.7541,-433.0506C503.5047,-437.6121 449.0894,-443.8364 401,-450.0139 385.0674,-452.0606 367.7115,-454.4678 352.0691,-456.7036"/>
<polygon fill="#191970" stroke="#191970" points="545.3891,-436.5019 554.9457,-431.9278 544.6225,-429.544 545.3891,-436.5019"/>
</g>
<!-- Node69444&#45;&gt;Node69422 -->
<g id="edge30" class="edge">
<title>Node69444&#45;&gt;Node69422</title>
<path fill="none" stroke="#191970" d="M570.7841,-412.1592C537.8267,-396.9257 492.8282,-373.4026 471.7702,-359.8205"/>
<polygon fill="#191970" stroke="#191970" points="569.6046,-415.4673 580.1574,-416.4105 572.4961,-409.0924 569.6046,-415.4673"/>
</g>
<!-- Node69620&#45;&gt;Node69297 -->
<g id="edge32" class="edge">
<title>Node69620&#45;&gt;Node69297</title>
<path fill="none" stroke="#191970" d="M666.3612,-319.2452C677.9243,-320.7287 689.8985,-322.265 700.8319,-323.6678"/>
<polygon fill="#191970" stroke="#191970" points="666.7062,-315.7608 656.3421,-317.9597 665.8153,-322.7039 666.7062,-315.7608"/>
</g>
<!-- Node69908 -->
<g id="node23" class="node">
<title>Node69908</title>
<g id="a_node23"><a xlink:href="structqjs_1_1js__traits_3_01std_1_1shared__ptr_3_01T_01_4_01_4.html#af3558afeef079826c58411353c8ccce0" target="_top" xlink:title="Register class in QuickJS context. ">
<polygon fill="none" stroke="#ff0000" points="409.5,-128.5139 409.5,-169.5139 510.5,-169.5139 510.5,-128.5139 409.5,-128.5139"/>
<text text-anchor="start" x="417.5" y="-157.5139" font-family="Helvetica,sans-Serif" font-size="10.00" fill="#000000">qjs::js_traits&lt; std</text>
<text text-anchor="start" x="417.5" y="-146.5139" font-family="Helvetica,sans-Serif" font-size="10.00" fill="#000000">::shared_ptr&lt; T &gt; &gt;</text>
<text text-anchor="middle" x="460" y="-135.5139" font-family="Helvetica,sans-Serif" font-size="10.00" fill="#000000">::register_class</text>
</a>
</g>
</g>
<!-- Node69907&#45;&gt;Node69908 -->
<g id="edge40" class="edge">
<title>Node69907&#45;&gt;Node69908</title>
<path fill="none" stroke="#191970" d="M361.9852,-152.7478C377.6083,-152.1526 394.3091,-151.5164 409.4169,-150.9409"/>
<polygon fill="#191970" stroke="#191970" points="361.7613,-149.2537 351.9019,-153.1319 362.0279,-156.2486 361.7613,-149.2537"/>
</g>
<!-- Node69456 -->
<g id="node24" class="node">
<title>Node69456</title>
<g id="a_node24"><a xlink:href="quickjs-libc_8c.html#a08cea1a0226b7603e6969e2208d99d55" target="_top" xlink:title="js_std_init">
<polygon fill="none" stroke="#ff0000" points="429.5,-19.5139 429.5,-38.5139 490.5,-38.5139 490.5,-19.5139 429.5,-19.5139"/>
<text text-anchor="middle" x="460" y="-26.5139" font-family="Helvetica,sans-Serif" font-size="10.00" fill="#000000">js_std_init</text>
</a>
</g>
</g>
<!-- Node69907&#45;&gt;Node69456 -->
<g id="edge41" class="edge">
<title>Node69907&#45;&gt;Node69456</title>
<path fill="none" stroke="#191970" d="M322.6978,-138.8557C355.9645,-112.2423 421.2648,-60.0021 448.0771,-38.5522"/>
<polygon fill="#191970" stroke="#191970" points="320.2195,-136.3561 314.5972,-145.3361 324.5924,-141.8222 320.2195,-136.3561"/>
</g>
<!-- Node69305 -->
<g id="node25" class="node">
<title>Node69305</title>
<g id="a_node25"><a xlink:href="quickjs-libc_8c.html#a066e7962ce24f22d5df20968a8baa346" target="_top" xlink:title="js_os_init">
<polygon fill="none" stroke="#ff0000" points="431,-90.5139 431,-109.5139 489,-109.5139 489,-90.5139 431,-90.5139"/>
<text text-anchor="middle" x="460" y="-97.5139" font-family="Helvetica,sans-Serif" font-size="10.00" fill="#000000">js_os_init</text>
</a>
</g>
</g>
<!-- Node69907&#45;&gt;Node69305 -->
<g id="edge42" class="edge">
<title>Node69907&#45;&gt;Node69305</title>
<path fill="none" stroke="#191970" d="M337.5258,-141.8373C356.2891,-134.8737 379.8363,-126.286 401,-119.0139 410.6682,-115.6918 421.2857,-112.2188 430.8165,-109.1644"/>
<polygon fill="#191970" stroke="#191970" points="336.0636,-138.647 327.9143,-145.4175 338.507,-145.2067 336.0636,-138.647"/>
</g>
<!-- Node69910&#45;&gt;Node69456 -->
<g id="edge46" class="edge">
<title>Node69910&#45;&gt;Node69456</title>
<path fill="none" stroke="#191970" d="M166.4049,-56.4033C183.387,-40.98 211.1173,-19.0771 240,-10.0139 305.6576,10.589 387.4019,-7.0416 430.3938,-19.4185"/>
<polygon fill="#191970" stroke="#191970" points="163.8757,-53.9769 158.9737,-63.3696 168.6631,-59.0838 163.8757,-53.9769"/>
</g>
<!-- Node69910&#45;&gt;Node69305 -->
<g id="edge47" class="edge">
<title>Node69910&#45;&gt;Node69305</title>
<path fill="none" stroke="#191970" d="M186.4802,-85.5756C202.6988,-90.4706 222.087,-95.5023 240,-98.0139 307.8977,-107.5341 388.7407,-104.687 430.9939,-102.1353"/>
<polygon fill="#191970" stroke="#191970" points="187.4214,-82.203 176.8329,-82.5692 185.3387,-88.886 187.4214,-82.203"/>
</g>
<!-- Node69911 -->
<g id="node27" class="node">
<title>Node69911</title>
<g id="a_node27"><a xlink:href="classqjs_1_1Context_1_1Module.html#a3b16e4ca57ab1de004a35ae1930b40d2" target="_top" xlink:title="qjs::Context::Module\l::Module">
<polygon fill="none" stroke="#000000" points="249,-58.0139 249,-88.0139 356,-88.0139 356,-58.0139 249,-58.0139"/>
<text text-anchor="start" x="257" y="-76.0139" font-family="Helvetica,sans-Serif" font-size="10.00" fill="#000000">qjs::Context::Module</text>
<text text-anchor="middle" x="302.5" y="-65.0139" font-family="Helvetica,sans-Serif" font-size="10.00" fill="#000000">::Module</text>
</a>
</g>
</g>
<!-- Node69910&#45;&gt;Node69911 -->
<g id="edge45" class="edge">
<title>Node69910&#45;&gt;Node69911</title>
<path fill="none" stroke="#191970" d="M214.65,-73.0139C226.0532,-73.0139 237.8004,-73.0139 248.8478,-73.0139"/>
<polygon fill="#191970" stroke="#191970" points="214.3044,-69.514 204.3044,-73.0139 214.3043,-76.514 214.3044,-69.514"/>
</g>
<!-- Node69458 -->
<g id="node28" class="node">
<title>Node69458</title>
<g id="a_node28"><a xlink:href="quickjs_8c.html#a04f1ec3f8d1f5c012280eb23e64a7b58" target="_top" xlink:title="JS_SetModuleExportList">
<polygon fill="none" stroke="#000000" points="240,-19.5139 240,-38.5139 365,-38.5139 365,-19.5139 240,-19.5139"/>
<text text-anchor="middle" x="302.5" y="-26.5139" font-family="Helvetica,sans-Serif" font-size="10.00" fill="#000000">JS_SetModuleExportList</text>
</a>
</g>
</g>
<!-- Node69910&#45;&gt;Node69458 -->
<g id="edge48" class="edge">
<title>Node69910&#45;&gt;Node69458</title>
<path fill="none" stroke="#191970" d="M192.4137,-60.6727C216.7826,-53.6647 246.8249,-45.0251 269.3661,-38.5426"/>
<polygon fill="#191970" stroke="#191970" points="191.3419,-57.339 182.6987,-63.4666 193.2766,-64.0664 191.3419,-57.339"/>
</g>
<!-- Node69458&#45;&gt;Node69456 -->
<g id="edge49" class="edge">
<title>Node69458&#45;&gt;Node69456</title>
<path fill="none" stroke="#191970" d="M375.4127,-29.0139C394.484,-29.0139 414.0144,-29.0139 429.4968,-29.0139"/>
<polygon fill="#191970" stroke="#191970" points="375.2008,-25.514 365.2007,-29.0139 375.2007,-32.514 375.2008,-25.514"/>
</g>
<!-- Node69458&#45;&gt;Node69305 -->
<g id="edge50" class="edge">
<title>Node69458&#45;&gt;Node69305</title>
<path fill="none" stroke="#191970" d="M346.2157,-41.8729C352.5862,-44.0719 359.012,-46.4738 365,-49.0139 393.9515,-61.2952 425.8172,-79.4211 444.3039,-90.4315"/>
<polygon fill="#191970" stroke="#191970" points="346.9148,-38.4174 336.3214,-38.5937 344.7126,-45.062 346.9148,-38.4174"/>
</g>
<!-- Node69912&#45;&gt;Node69297 -->
<g id="edge52" class="edge">
<title>Node69912&#45;&gt;Node69297</title>
<path fill="none" stroke="#191970" d="M645.8075,-249.6725C652.3839,-252.7249 659.0459,-256.2022 665,-260.0139 692.6131,-277.6916 720.1348,-305.1086 733.7385,-319.482"/>
<polygon fill="#191970" stroke="#191970" points="646.8899,-246.3255 636.3261,-245.5151 644.0788,-252.7363 646.8899,-246.3255"/>
</g>
<!-- Node69481&#45;&gt;Node69445 -->
<g id="edge57" class="edge">
<title>Node69481&#45;&gt;Node69445</title>
<path fill="none" stroke="#191970" d="M189.9383,-401.1456C194.7314,-402.9851 199.5115,-404.9552 204,-407.0139 235.0687,-421.2635 269.1291,-442.2846 287.9493,-454.4177"/>
<polygon fill="#191970" stroke="#191970" points="190.7648,-397.721 180.171,-397.567 188.3566,-404.2937 190.7648,-397.721"/>
</g>
<!-- Node69481&#45;&gt;Node69422 -->
<g id="edge56" class="edge">
<title>Node69481&#45;&gt;Node69422</title>
<path fill="none" stroke="#191970" d="M204.2355,-382.4586C247.8314,-377.9035 310.3909,-371.0764 365,-364.0139 376.5734,-362.5171 388.9206,-360.7922 400.7531,-359.0757"/>
<polygon fill="#191970" stroke="#191970" points="203.7143,-378.9938 194.1299,-383.5092 204.4383,-385.9563 203.7143,-378.9938"/>
</g>
</g>
</svg>
        <g id="navigator" transform="translate(0 0)" fill="#404254">
                <rect fill="#f2f5e9" fill-opacity="0.5" stroke="#606060" stroke-width=".5" x="0" y="0" width="60" height="60"/>
                <use id="zoomplus" xlink:href="#zoomPlus" x="17" y="9" onmousedown="handleZoom(evt,'in')"/>
                <use id="zoomminus" xlink:href="#zoomMin" x="42" y="9" onmousedown="handleZoom(evt,'out')"/>
                <use id="reset" xlink:href="#resetDef" x="30" y="36" onmousedown="handleReset()"/>
                <g id="arrowUp" xlink:href="#dirArrow" transform="translate(30 24)" onmousedown="handlePan(0,-1)">
                  <use xlink:href="#rim" fill="#404040">
                        <set attributeName="fill" to="#808080" begin="arrowUp.mouseover" end="arrowUp.mouseout"/>
                  </use>
                  <path fill="none" stroke="white" stroke-width="1.5" d="M0,-3.0v7 M-2.5,-0.5L0,-3.0L2.5,-0.5"/>
                </g>
                <g id="arrowRight" xlink:href="#dirArrow" transform="rotate(90) translate(36 -43)" onmousedown="handlePan(1,0)">
                  <use xlink:href="#rim" fill="#404040">
                        <set attributeName="fill" to="#808080" begin="arrowRight.mouseover" end="arrowRight.mouseout"/>
                  </use>
                  <path fill="none" stroke="white" stroke-width="1.5" d="M0,-3.0v7 M-2.5,-0.5L0,-3.0L2.5,-0.5"/>
                </g>
                <g id="arrowDown" xlink:href="#dirArrow" transform="rotate(180) translate(-30 -48)" onmousedown="handlePan(0,1)">
                  <use xlink:href="#rim" fill="#404040">
                        <set attributeName="fill" to="#808080" begin="arrowDown.mouseover" end="arrowDown.mouseout"/>
                  </use>
                  <path fill="none" stroke="white" stroke-width="1.5" d="M0,-3.0v7 M-2.5,-0.5L0,-3.0L2.5,-0.5"/>
                </g>
                <g id="arrowLeft" xlink:href="#dirArrow" transform="rotate(270) translate(-36 17)" onmousedown="handlePan(-1,0)">
                  <use xlink:href="#rim" fill="#404040">
                        <set attributeName="fill" to="#808080" begin="arrowLeft.mouseover" end="arrowLeft.mouseout"/>
                  </use>
                  <path fill="none" stroke="white" stroke-width="1.5" d="M0,-3.0v7 M-2.5,-0.5L0,-3.0L2.5,-0.5"/>
                </g>
        </g>
        <svg viewBox="0 0 15 15" width="100%" height="30px" preserveAspectRatio="xMaxYMin meet">
         <g id="arrow_out" transform="scale(0.3 0.3)">
          <a xlink:href="quickjs_8c_a0ec52a675282f321a6f42aa1298a53fe_icgraph_org.svg" target="_base">
           <rect id="button" ry="5" rx="5" y="6" x="6" height="38" width="38"
                fill="#f2f5e9" fill-opacity="0.5" stroke="#606060" stroke-width="1.0"/>
           <path id="arrow"
             d="M 11.500037,31.436501 C 11.940474,20.09759 22.043105,11.32322 32.158766,21.979434 L 37.068811,17.246167 C 37.068811,17.246167 37.088388,32 37.088388,32 L 22.160133,31.978069 C 22.160133,31.978069 26.997745,27.140456 26.997745,27.140456 C 18.528582,18.264221 13.291696,25.230495 11.500037,31.436501 z"
             style="fill:#404040;"/>
          </a>
         </g>
        </svg>
</svg>
