<?xml version="1.0" encoding="UTF-8" standalone="no"?>
<!DOCTYPE svg PUBLIC "-//W3C//DTD SVG 1.1//EN"
 "http://www.w3.org/Graphics/SVG/1.1/DTD/svg11.dtd">
<!-- Generated by graphviz version 2.40.1 (20161225.0304)
 -->
<!-- Title: js_parse_program Pages: 1 -->
<!--zoomable 745 -->
<svg id="main" version="1.1" xmlns="http://www.w3.org/2000/svg" xmlns:xlink="http://www.w3.org/1999/xlink" xml:space="preserve" onload="init(evt)">
<style type="text/css"><![CDATA[
.edge:hover path { stroke: red; }
.edge:hover polygon { stroke: red; fill: red; }
]]></style>
<script type="text/javascript"><![CDATA[
var edges = document.getElementsByTagName('g');
if (edges && edges.length) {
  for (var i=0;i<edges.length;i++) {
    if (edges[i].id.substr(0,4)=='edge') {
      edges[i].setAttribute('class','edge');
    }
  }
}
]]></script>
        <defs>
                <circle id="rim" cx="0" cy="0" r="7"/>
                <circle id="rim2" cx="0" cy="0" r="3.5"/>
                <g id="zoomPlus">
                        <use xlink:href="#rim" fill="#404040">
                                <set attributeName="fill" to="#808080" begin="zoomplus.mouseover" end="zoomplus.mouseout"/>
                        </use>
                        <path d="M-4,0h8M0,-4v8" fill="none" stroke="white" stroke-width="1.5" pointer-events="none"/>
                </g>
                <g id="zoomMin">
                        <use xlink:href="#rim" fill="#404040">
                                <set attributeName="fill" to="#808080" begin="zoomminus.mouseover" end="zoomminus.mouseout"/>
                        </use>
                        <path d="M-4,0h8" fill="none" stroke="white" stroke-width="1.5" pointer-events="none"/>
                </g>
                <g id="dirArrow">
                        <path fill="none" stroke="white" stroke-width="1.5" d="M0,-3.0v7 M-2.5,-0.5L0,-3.0L2.5,-0.5"/>
                </g>
               <g id="resetDef">
                       <use xlink:href="#rim2" fill="#404040">
                               <set attributeName="fill" to="#808080" begin="reset.mouseover" end="reset.mouseout"/>
                       </use>
               </g>
        </defs>

<script type="text/javascript">
var viewWidth = 987;
var viewHeight = 745;
var sectionId = 'dynsection-1247';
</script>
<script xlink:href="svgpan.js"/>
<svg id="graph" class="graph">
<g id="viewport">
<title>js_parse_program</title>
<!-- Node356951 -->
<g id="node1" class="node">
<title>Node356951</title>
<polygon fill="#bfbfbf" stroke="#000000" points="0,-206.0908 0,-225.0908 94,-225.0908 94,-206.0908 0,-206.0908"/>
<text text-anchor="middle" x="47" y="-213.0908" font-family="Helvetica,sans-Serif" font-size="10.00" fill="#000000">js_parse_program</text>
</g>
<!-- Node356952 -->
<g id="node2" class="node">
<title>Node356952</title>
<g id="a_node2"><a xlink:href="quickjs_8c.html#ab2e0855c4317f8e3b05c0a091bc43a29" target="_top" xlink:title="add_var">
<polygon fill="none" stroke="#000000" points="639,-300.0908 639,-319.0908 690,-319.0908 690,-300.0908 639,-300.0908"/>
<text text-anchor="middle" x="664.5" y="-307.0908" font-family="Helvetica,sans-Serif" font-size="10.00" fill="#000000">add_var</text>
</a>
</g>
</g>
<!-- Node356951&#45;&gt;Node356952 -->
<g id="edge1" class="edge">
<title>Node356951&#45;&gt;Node356952</title>
<path fill="none" stroke="#191970" d="M59.2345,-205.9432C120.0996,-159.1833 394.3693,36.8811 571,-81.5908 589.5315,-94.0205 639.9558,-237.6154 657.9834,-290.3346"/>
<polygon fill="#191970" stroke="#191970" points="654.6913,-291.5252 661.227,-299.864 661.318,-289.2696 654.6913,-291.5252"/>
</g>
<!-- Node356963 -->
<g id="node8" class="node">
<title>Node356963</title>
<g id="a_node8"><a xlink:href="quickjs_8c.html#a832fb9c17eacb588e93f333cf8b76522" target="_top" xlink:title="emit_op">
<polygon fill="none" stroke="#000000" points="479.5,-15.0908 479.5,-34.0908 530.5,-34.0908 530.5,-15.0908 479.5,-15.0908"/>
<text text-anchor="middle" x="505" y="-22.0908" font-family="Helvetica,sans-Serif" font-size="10.00" fill="#000000">emit_op</text>
</a>
</g>
</g>
<!-- Node356951&#45;&gt;Node356963 -->
<g id="edge7" class="edge">
<title>Node356951&#45;&gt;Node356963</title>
<path fill="none" stroke="#191970" d="M48.4473,-205.8544C53.431,-176.1807 72.8412,-86.5917 130,-48.5908 235.8905,21.8083 397.9236,-1.0811 469.2221,-16.0131"/>
<polygon fill="#191970" stroke="#191970" points="468.5512,-19.4488 479.0657,-18.1464 470.0339,-12.6077 468.5512,-19.4488"/>
</g>
<!-- Node356968 -->
<g id="node12" class="node">
<title>Node356968</title>
<g id="a_node12"><a xlink:href="quickjs_8c.html#a50b5ef50e38aaeb8cba27214601474c7" target="_top" xlink:title="emit_u16">
<polygon fill="none" stroke="#000000" points="477,-129.0908 477,-148.0908 533,-148.0908 533,-129.0908 477,-129.0908"/>
<text text-anchor="middle" x="505" y="-136.0908" font-family="Helvetica,sans-Serif" font-size="10.00" fill="#000000">emit_u16</text>
</a>
</g>
</g>
<!-- Node356951&#45;&gt;Node356968 -->
<g id="edge12" class="edge">
<title>Node356951&#45;&gt;Node356968</title>
<path fill="none" stroke="#191970" d="M94.289,-207.6405C185.3571,-192.3299 383.4289,-159.0296 466.7999,-145.0131"/>
<polygon fill="#191970" stroke="#191970" points="467.5691,-148.433 476.8504,-143.3234 466.4084,-141.5299 467.5691,-148.433"/>
</g>
<!-- Node356970 -->
<g id="node14" class="node">
<title>Node356970</title>
<g id="a_node14"><a xlink:href="quickjs_8c.html#a64f81788f15df1683a1f8c3919cfd6fd" target="_top" xlink:title="js_parse_directives">
<polygon fill="none" stroke="#000000" points="143.5,-642.0908 143.5,-661.0908 244.5,-661.0908 244.5,-642.0908 143.5,-642.0908"/>
<text text-anchor="middle" x="194" y="-649.0908" font-family="Helvetica,sans-Serif" font-size="10.00" fill="#000000">js_parse_directives</text>
</a>
</g>
</g>
<!-- Node356951&#45;&gt;Node356970 -->
<g id="edge15" class="edge">
<title>Node356951&#45;&gt;Node356970</title>
<path fill="none" stroke="#191970" d="M50.207,-225.1028C68.6957,-279.9399 161.7429,-555.9167 187.4253,-632.0905"/>
<polygon fill="#191970" stroke="#191970" points="184.1974,-633.4717 190.7089,-641.8294 190.8305,-631.2352 184.1974,-633.4717"/>
</g>
<!-- Node356973 -->
<g id="node17" class="node">
<title>Node356973</title>
<g id="a_node17"><a xlink:href="quickjs_8c.html#a75a3798e2045f6e403c1ef467126d1fb" target="_top" xlink:title="next_token">
<polygon fill="none" stroke="#ff0000" points="472.5,-699.0908 472.5,-718.0908 537.5,-718.0908 537.5,-699.0908 472.5,-699.0908"/>
<text text-anchor="middle" x="505" y="-706.0908" font-family="Helvetica,sans-Serif" font-size="10.00" fill="#000000">next_token</text>
</a>
</g>
</g>
<!-- Node356951&#45;&gt;Node356973 -->
<g id="edge62" class="edge">
<title>Node356951&#45;&gt;Node356973</title>
<path fill="none" stroke="#191970" d="M47.3831,-225.4372C49.9223,-285.5696 66.2394,-602.9666 130,-670.5908 216.1394,-761.95 383.8316,-737.702 462.4256,-719.8257"/>
<polygon fill="#191970" stroke="#191970" points="463.5238,-723.163 472.4575,-717.4674 461.9218,-716.3488 463.5238,-723.163"/>
</g>
<!-- Node357080 -->
<g id="node18" class="node">
<title>Node357080</title>
<g id="a_node18"><a xlink:href="quickjs_8c.html#ab59a3267a100decc9d2d81eb3297794a" target="_top" xlink:title="js_parse_source_element">
<polygon fill="none" stroke="#000000" points="130,-243.0908 130,-262.0908 258,-262.0908 258,-243.0908 130,-243.0908"/>
<text text-anchor="middle" x="194" y="-250.0908" font-family="Helvetica,sans-Serif" font-size="10.00" fill="#000000">js_parse_source_element</text>
</a>
</g>
</g>
<!-- Node356951&#45;&gt;Node357080 -->
<g id="edge20" class="edge">
<title>Node356951&#45;&gt;Node357080</title>
<path fill="none" stroke="#191970" d="M84.8562,-225.1193C103.5589,-229.8268 126.3245,-235.5569 146.215,-240.5633"/>
<polygon fill="#191970" stroke="#191970" points="145.4651,-243.9837 156.0169,-243.0305 147.1737,-237.1954 145.4651,-243.9837"/>
</g>
<!-- Node356953 -->
<g id="node3" class="node">
<title>Node356953</title>
<g id="a_node3"><a xlink:href="quickjs_8c.html#a853f0924d441ea4225488f37c8b69f9a" target="_top" xlink:title="__attribute__">
<polygon fill="none" stroke="#000000" points="763,-300.0908 763,-319.0908 836,-319.0908 836,-300.0908 763,-300.0908"/>
<text text-anchor="middle" x="799.5" y="-307.0908" font-family="Helvetica,sans-Serif" font-size="10.00" fill="#000000">__attribute__</text>
</a>
</g>
</g>
<!-- Node356952&#45;&gt;Node356953 -->
<g id="edge2" class="edge">
<title>Node356952&#45;&gt;Node356953</title>
<path fill="none" stroke="#191970" d="M690.2102,-309.5908C707.8953,-309.5908 731.8902,-309.5908 752.8918,-309.5908"/>
<polygon fill="#191970" stroke="#191970" points="752.9205,-313.0909 762.9205,-309.5908 752.9204,-306.0909 752.9205,-313.0909"/>
</g>
<!-- Node356954 -->
<g id="node4" class="node">
<title>Node356954</title>
<g id="a_node4"><a xlink:href="quickjs_8c.html#abbf44eaeace1104a6bef718fbf5700fe" target="_top" xlink:title="JS_DupAtom">
<polygon fill="none" stroke="#000000" points="762,-452.0908 762,-471.0908 837,-471.0908 837,-452.0908 762,-452.0908"/>
<text text-anchor="middle" x="799.5" y="-459.0908" font-family="Helvetica,sans-Serif" font-size="10.00" fill="#000000">JS_DupAtom</text>
</a>
</g>
</g>
<!-- Node356952&#45;&gt;Node356954 -->
<g id="edge3" class="edge">
<title>Node356952&#45;&gt;Node356954</title>
<path fill="none" stroke="#191970" d="M690.2186,-313.8997C700.92,-316.6942 712.9343,-321.2423 722,-328.5908 759.7381,-359.1809 782.9582,-413.387 793.2504,-442.2478"/>
<polygon fill="#191970" stroke="#191970" points="790.0242,-443.6314 796.5653,-451.9659 796.6494,-441.3714 790.0242,-443.6314"/>
</g>
<!-- Node356956 -->
<g id="node6" class="node">
<title>Node356956</title>
<g id="a_node6"><a xlink:href="quickjs_8c.html#afa610f3175e9cb11fdceac95071099b5" target="_top" xlink:title="js_resize_array">
<polygon fill="none" stroke="#000000" points="758,-338.0908 758,-357.0908 841,-357.0908 841,-338.0908 758,-338.0908"/>
<text text-anchor="middle" x="799.5" y="-345.0908" font-family="Helvetica,sans-Serif" font-size="10.00" fill="#000000">js_resize_array</text>
</a>
</g>
</g>
<!-- Node356952&#45;&gt;Node356956 -->
<g id="edge5" class="edge">
<title>Node356952&#45;&gt;Node356956</title>
<path fill="none" stroke="#191970" d="M690.2102,-316.8278C708.7859,-322.0565 734.3228,-329.2447 756.0405,-335.3578"/>
<polygon fill="#191970" stroke="#191970" points="755.1371,-338.7395 765.7114,-338.08 757.0338,-332.0013 755.1371,-338.7395"/>
</g>
<!-- Node356955 -->
<g id="node5" class="node">
<title>Node356955</title>
<g id="a_node5"><a xlink:href="quickjs_8c.html#a7f6796ee7a195631366f57c713a33f65" target="_top" xlink:title="__JS_AtomIsConst">
<polygon fill="none" stroke="#000000" points="877,-414.0908 877,-433.0908 979,-433.0908 979,-414.0908 877,-414.0908"/>
<text text-anchor="middle" x="928" y="-421.0908" font-family="Helvetica,sans-Serif" font-size="10.00" fill="#000000">__JS_AtomIsConst</text>
</a>
</g>
</g>
<!-- Node356954&#45;&gt;Node356955 -->
<g id="edge4" class="edge">
<title>Node356954&#45;&gt;Node356955</title>
<path fill="none" stroke="#191970" d="M831.926,-452.0018C848.2097,-447.1864 868.1421,-441.292 885.622,-436.1228"/>
<polygon fill="#191970" stroke="#191970" points="886.9875,-439.369 895.5844,-433.1768 885.0024,-432.6563 886.9875,-439.369"/>
</g>
<!-- Node356957 -->
<g id="node7" class="node">
<title>Node356957</title>
<g id="a_node7"><a xlink:href="quickjs_8c.html#a0eda61158c0a22ef337abc3a035bca33" target="_top" xlink:title="js_realloc_array">
<polygon fill="none" stroke="#ff0000" points="885.5,-338.0908 885.5,-357.0908 970.5,-357.0908 970.5,-338.0908 885.5,-338.0908"/>
<text text-anchor="middle" x="928" y="-345.0908" font-family="Helvetica,sans-Serif" font-size="10.00" fill="#000000">js_realloc_array</text>
</a>
</g>
</g>
<!-- Node356956&#45;&gt;Node356957 -->
<g id="edge6" class="edge">
<title>Node356956&#45;&gt;Node356957</title>
<path fill="none" stroke="#191970" d="M841.2203,-347.5908C851.9929,-347.5908 863.7332,-347.5908 874.9973,-347.5908"/>
<polygon fill="#191970" stroke="#191970" points="875.1667,-351.0909 885.1667,-347.5908 875.1667,-344.0909 875.1667,-351.0909"/>
</g>
<!-- Node356964 -->
<g id="node9" class="node">
<title>Node356964</title>
<g id="a_node9"><a xlink:href="cutils_8h.html#a8ba08f82c43549fcb3c939229498354d" target="_top" xlink:title="dbuf_put_u32">
<polygon fill="none" stroke="#000000" points="627,-20.0908 627,-39.0908 702,-39.0908 702,-20.0908 627,-20.0908"/>
<text text-anchor="middle" x="664.5" y="-27.0908" font-family="Helvetica,sans-Serif" font-size="10.00" fill="#000000">dbuf_put_u32</text>
</a>
</g>
</g>
<!-- Node356963&#45;&gt;Node356964 -->
<g id="edge8" class="edge">
<title>Node356963&#45;&gt;Node356964</title>
<path fill="none" stroke="#191970" d="M530.6264,-25.3942C553.7629,-26.1195 588.4067,-27.2055 616.6553,-28.091"/>
<polygon fill="#191970" stroke="#191970" points="616.6354,-31.592 626.7402,-28.4071 616.8548,-24.5954 616.6354,-31.592"/>
</g>
<!-- Node356967 -->
<g id="node11" class="node">
<title>Node356967</title>
<g id="a_node11"><a xlink:href="cutils_8h.html#aeed81d4787ccdbd55baa9b5fd6717e88" target="_top" xlink:title="dbuf_putc">
<polygon fill="none" stroke="#000000" points="635,-67.0908 635,-86.0908 694,-86.0908 694,-67.0908 635,-67.0908"/>
<text text-anchor="middle" x="664.5" y="-74.0908" font-family="Helvetica,sans-Serif" font-size="10.00" fill="#000000">dbuf_putc</text>
</a>
</g>
</g>
<!-- Node356963&#45;&gt;Node356967 -->
<g id="edge10" class="edge">
<title>Node356963&#45;&gt;Node356967</title>
<path fill="none" stroke="#191970" d="M530.6264,-32.9455C556.2603,-41.3027 596.0196,-54.265 625.5567,-63.8946"/>
<polygon fill="#191970" stroke="#191970" points="624.5542,-67.249 635.1465,-67.0211 626.7239,-60.5938 624.5542,-67.249"/>
</g>
<!-- Node356965 -->
<g id="node10" class="node">
<title>Node356965</title>
<g id="a_node10"><a xlink:href="cutils_8h.html#ad1cfaae47347ae771136b5a9bbda49aa" target="_top" xlink:title="dbuf_put">
<polygon fill="none" stroke="#ff0000" points="772.5,-91.0908 772.5,-110.0908 826.5,-110.0908 826.5,-91.0908 772.5,-91.0908"/>
<text text-anchor="middle" x="799.5" y="-98.0908" font-family="Helvetica,sans-Serif" font-size="10.00" fill="#000000">dbuf_put</text>
</a>
</g>
</g>
<!-- Node356964&#45;&gt;Node356965 -->
<g id="edge9" class="edge">
<title>Node356964&#45;&gt;Node356965</title>
<path fill="none" stroke="#191970" d="M684.8559,-39.1772C695.9146,-44.4668 709.7868,-51.2348 722,-57.5908 739.5202,-66.7088 758.955,-77.4937 773.9797,-85.9815"/>
<polygon fill="#191970" stroke="#191970" points="772.2835,-89.0432 782.7082,-90.9341 775.738,-82.955 772.2835,-89.0432"/>
</g>
<!-- Node356967&#45;&gt;Node356965 -->
<g id="edge11" class="edge">
<title>Node356967&#45;&gt;Node356965</title>
<path fill="none" stroke="#191970" d="M694.1263,-81.8577C714.1367,-85.4152 740.7128,-90.1398 762.1687,-93.9542"/>
<polygon fill="#191970" stroke="#191970" points="761.7809,-97.44 772.2391,-95.7445 763.0062,-90.5481 761.7809,-97.44"/>
</g>
<!-- Node356969 -->
<g id="node13" class="node">
<title>Node356969</title>
<g id="a_node13"><a xlink:href="cutils_8h.html#a31a6b9f8517a73d45e976d8a026e964e" target="_top" xlink:title="dbuf_put_u16">
<polygon fill="none" stroke="#000000" points="627,-110.0908 627,-129.0908 702,-129.0908 702,-110.0908 627,-110.0908"/>
<text text-anchor="middle" x="664.5" y="-117.0908" font-family="Helvetica,sans-Serif" font-size="10.00" fill="#000000">dbuf_put_u16</text>
</a>
</g>
</g>
<!-- Node356968&#45;&gt;Node356969 -->
<g id="edge13" class="edge">
<title>Node356968&#45;&gt;Node356969</title>
<path fill="none" stroke="#191970" d="M533.1482,-135.2378C556.2249,-132.4888 589.4036,-128.5365 616.6407,-125.292"/>
<polygon fill="#191970" stroke="#191970" points="617.2394,-128.7455 626.7552,-124.0871 616.4114,-121.7946 617.2394,-128.7455"/>
</g>
<!-- Node356969&#45;&gt;Node356965 -->
<g id="edge14" class="edge">
<title>Node356969&#45;&gt;Node356965</title>
<path fill="none" stroke="#191970" d="M702.105,-114.2983C720.9318,-111.6486 743.647,-108.4516 762.403,-105.8119"/>
<polygon fill="#191970" stroke="#191970" points="762.9513,-109.2693 772.3659,-104.4097 761.9757,-102.3376 762.9513,-109.2693"/>
</g>
<!-- Node356971 -->
<g id="node15" class="node">
<title>Node356971</title>
<g id="a_node15"><a xlink:href="quickjs_8c.html#adc9771417493518c8625fa604362d809" target="_top" xlink:title="js_parse_get_pos">
<polygon fill="none" stroke="#000000" points="302,-623.0908 302,-642.0908 395,-642.0908 395,-623.0908 302,-623.0908"/>
<text text-anchor="middle" x="348.5" y="-630.0908" font-family="Helvetica,sans-Serif" font-size="10.00" fill="#000000">js_parse_get_pos</text>
</a>
</g>
</g>
<!-- Node356970&#45;&gt;Node356971 -->
<g id="edge16" class="edge">
<title>Node356970&#45;&gt;Node356971</title>
<path fill="none" stroke="#191970" d="M244.5891,-645.3695C259.7494,-643.5052 276.4711,-641.4488 291.9874,-639.5406"/>
<polygon fill="#191970" stroke="#191970" points="292.4832,-643.0061 301.9812,-638.3116 291.6288,-636.0584 292.4832,-643.0061"/>
</g>
<!-- Node356972 -->
<g id="node16" class="node">
<title>Node356972</title>
<g id="a_node16"><a xlink:href="quickjs_8c.html#aba7eb7aae2eb61bfccb4565ee626cd18" target="_top" xlink:title="js_parse_seek_token">
<polygon fill="none" stroke="#000000" points="294,-661.0908 294,-680.0908 403,-680.0908 403,-661.0908 294,-661.0908"/>
<text text-anchor="middle" x="348.5" y="-668.0908" font-family="Helvetica,sans-Serif" font-size="10.00" fill="#000000">js_parse_seek_token</text>
</a>
</g>
</g>
<!-- Node356970&#45;&gt;Node356972 -->
<g id="edge17" class="edge">
<title>Node356970&#45;&gt;Node356972</title>
<path fill="none" stroke="#191970" d="M244.5891,-657.8122C257.0191,-659.3408 270.4989,-660.9985 283.5033,-662.5977"/>
<polygon fill="#191970" stroke="#191970" points="283.449,-666.1173 293.8015,-663.8642 284.3035,-659.1697 283.449,-666.1173"/>
</g>
<!-- Node356970&#45;&gt;Node356973 -->
<g id="edge19" class="edge">
<title>Node356970&#45;&gt;Node356973</title>
<path fill="none" stroke="#191970" d="M214.1724,-661.1367C234.015,-670.0711 265.4051,-683.0017 294,-689.5908 351.2818,-702.7902 419.2797,-706.9141 462.2875,-708.1497"/>
<polygon fill="#191970" stroke="#191970" points="462.3125,-711.6513 472.3961,-708.3999 462.4858,-704.6534 462.3125,-711.6513"/>
</g>
<!-- Node356972&#45;&gt;Node356973 -->
<g id="edge18" class="edge">
<title>Node356972&#45;&gt;Node356973</title>
<path fill="none" stroke="#191970" d="M387.9916,-680.1798C410.7084,-685.6958 439.2558,-692.6274 462.4658,-698.2631"/>
<polygon fill="#191970" stroke="#191970" points="461.8395,-701.7126 472.383,-700.6711 463.4912,-694.9102 461.8395,-701.7126"/>
</g>
<!-- Node357081 -->
<g id="node19" class="node">
<title>Node357081</title>
<g id="a_node19"><a xlink:href="quickjs_8c.html#a498e1d5c7de1b59c1630e9847cde1e41" target="_top" xlink:title="js_parse_export">
<polygon fill="none" stroke="#ff0000" points="305.5,-395.0908 305.5,-414.0908 391.5,-414.0908 391.5,-395.0908 305.5,-395.0908"/>
<text text-anchor="middle" x="348.5" y="-402.0908" font-family="Helvetica,sans-Serif" font-size="10.00" fill="#000000">js_parse_export</text>
</a>
</g>
</g>
<!-- Node357080&#45;&gt;Node357081 -->
<g id="edge21" class="edge">
<title>Node357080&#45;&gt;Node357081</title>
<path fill="none" stroke="#191970" d="M203.6647,-262.0991C229.2431,-287.2637 298.9634,-355.8558 331.4355,-387.8024"/>
<polygon fill="#191970" stroke="#191970" points="329.2558,-390.568 338.839,-395.0862 334.1651,-385.578 329.2558,-390.568"/>
</g>
<!-- Node357478 -->
<g id="node26" class="node">
<title>Node357478</title>
<g id="a_node26"><a xlink:href="quickjs_8c.html#a2738f70401d666222802576640dd5781" target="_top" xlink:title="peek_token">
<polygon fill="none" stroke="#ff0000" points="471.5,-167.0908 471.5,-186.0908 538.5,-186.0908 538.5,-167.0908 471.5,-167.0908"/>
<text text-anchor="middle" x="505" y="-174.0908" font-family="Helvetica,sans-Serif" font-size="10.00" fill="#000000">peek_token</text>
</a>
</g>
</g>
<!-- Node357080&#45;&gt;Node357478 -->
<g id="edge60" class="edge">
<title>Node357080&#45;&gt;Node357478</title>
<path fill="none" stroke="#191970" d="M231.9711,-243.0239C250.6456,-238.3377 273.494,-232.6322 294,-227.5908 351.9363,-213.3473 418.9062,-197.217 461.5818,-186.9804"/>
<polygon fill="#191970" stroke="#191970" points="462.4515,-190.3712 471.3599,-184.6361 460.8195,-183.5641 462.4515,-190.3712"/>
</g>
<!-- Node357481 -->
<g id="node27" class="node">
<title>Node357481</title>
<g id="a_node27"><a xlink:href="quickjs_8c.html#a76ed161458dbf48da341e43ab398efd4" target="_top" xlink:title="token_is_pseudo_keyword">
<polygon fill="none" stroke="#000000" points="439,-585.0908 439,-604.0908 571,-604.0908 571,-585.0908 439,-585.0908"/>
<text text-anchor="middle" x="505" y="-592.0908" font-family="Helvetica,sans-Serif" font-size="10.00" fill="#000000">token_is_pseudo_keyword</text>
</a>
</g>
</g>
<!-- Node357080&#45;&gt;Node357481 -->
<g id="edge61" class="edge">
<title>Node357080&#45;&gt;Node357481</title>
<path fill="none" stroke="#191970" d="M198.5562,-262.4479C211.3717,-289.6421 249.6996,-367.4255 294,-423.5908 349.2859,-493.684 365.7189,-511.606 439,-562.5908 449.0251,-569.5658 460.8019,-575.8058 471.6108,-580.8827"/>
<polygon fill="#191970" stroke="#191970" points="470.2382,-584.1031 480.792,-585.034 473.1222,-577.7248 470.2382,-584.1031"/>
</g>
<!-- Node357498 -->
<g id="node28" class="node">
<title>Node357498</title>
<g id="a_node28"><a xlink:href="quickjs_8c.html#a3cad0b329e5f016dce8d42b4196c3499" target="_top" xlink:title="js_parse_function_decl">
<polygon fill="none" stroke="#ff0000" points="447,-91.0908 447,-110.0908 563,-110.0908 563,-91.0908 447,-91.0908"/>
<text text-anchor="middle" x="505" y="-98.0908" font-family="Helvetica,sans-Serif" font-size="10.00" fill="#000000">js_parse_function_decl</text>
</a>
</g>
</g>
<!-- Node357080&#45;&gt;Node357498 -->
<g id="edge40" class="edge">
<title>Node357080&#45;&gt;Node357498</title>
<path fill="none" stroke="#191970" d="M208.9105,-242.9905C246.3067,-219.2527 347.6378,-157.0199 439,-119.5908 444.5841,-117.3032 450.5397,-115.1775 456.5018,-113.2391"/>
<polygon fill="#191970" stroke="#191970" points="457.9553,-116.4533 466.4771,-110.1582 455.8896,-109.7651 457.9553,-116.4533"/>
</g>
<!-- Node357506 -->
<g id="node29" class="node">
<title>Node357506</title>
<g id="a_node29"><a xlink:href="quickjs_8c.html#aa24f7964f6d938a05c3c3c03af5a01e9" target="_top" xlink:title="js_parse_import">
<polygon fill="none" stroke="#ff0000" points="305.5,-585.0908 305.5,-604.0908 391.5,-604.0908 391.5,-585.0908 305.5,-585.0908"/>
<text text-anchor="middle" x="348.5" y="-592.0908" font-family="Helvetica,sans-Serif" font-size="10.00" fill="#000000">js_parse_import</text>
</a>
</g>
</g>
<!-- Node357080&#45;&gt;Node357506 -->
<g id="edge41" class="edge">
<title>Node357080&#45;&gt;Node357506</title>
<path fill="none" stroke="#191970" d="M196.8759,-262.4115C207.3589,-297.5857 245.4617,-420.147 294,-513.5908 305.8867,-536.4746 322.8938,-560.7673 334.737,-576.7119"/>
<polygon fill="#191970" stroke="#191970" points="332.2191,-579.186 341.0356,-585.0614 337.8074,-574.9703 332.2191,-579.186"/>
</g>
<!-- Node357508 -->
<g id="node30" class="node">
<title>Node357508</title>
<g id="a_node30"><a xlink:href="quickjs_8c.html#a9d844c16dcc71701436848074337d32c" target="_top" xlink:title="js_parse_statement\l_or_decl">
<polygon fill="none" stroke="#ff0000" points="297.5,-237.5908 297.5,-267.5908 399.5,-267.5908 399.5,-237.5908 297.5,-237.5908"/>
<text text-anchor="start" x="305.5" y="-255.5908" font-family="Helvetica,sans-Serif" font-size="10.00" fill="#000000">js_parse_statement</text>
<text text-anchor="middle" x="348.5" y="-244.5908" font-family="Helvetica,sans-Serif" font-size="10.00" fill="#000000">_or_decl</text>
</a>
</g>
</g>
<!-- Node357080&#45;&gt;Node357508 -->
<g id="edge47" class="edge">
<title>Node357080&#45;&gt;Node357508</title>
<path fill="none" stroke="#191970" d="M258.1797,-252.5908C267.7996,-252.5908 277.6979,-252.5908 287.2545,-252.5908"/>
<polygon fill="#191970" stroke="#191970" points="287.461,-256.0909 297.461,-252.5908 287.4609,-249.0909 287.461,-256.0909"/>
</g>
<!-- Node357081&#45;&gt;Node356954 -->
<g id="edge34" class="edge">
<title>Node357081&#45;&gt;Node356954</title>
<path fill="none" stroke="#191970" d="M391.7045,-412.5086C395.7871,-414.3918 399.646,-416.7181 403,-419.5908 432.6125,-444.9542 406.2583,-478.4206 439,-499.5908 545.3169,-568.3338 707.1594,-505.5698 771.606,-475.5326"/>
<polygon fill="#191970" stroke="#191970" points="773.2134,-478.6438 780.7404,-471.1877 770.2065,-472.3225 773.2134,-478.6438"/>
</g>
<!-- Node357081&#45;&gt;Node356963 -->
<g id="edge32" class="edge">
<title>Node357081&#45;&gt;Node356963</title>
<path fill="none" stroke="#191970" d="M354.4711,-394.9928C365.7759,-376.3693 390.3063,-333.7167 403,-294.5908 432.6282,-203.2675 391.8847,-165.2445 439,-81.5908 448.7214,-64.3304 465.7467,-49.8237 480.0702,-39.7647"/>
<polygon fill="#191970" stroke="#191970" points="482.1848,-42.5611 488.55,-34.0915 478.2924,-36.7431 482.1848,-42.5611"/>
</g>
<!-- Node357081&#45;&gt;Node356968 -->
<g id="edge33" class="edge">
<title>Node357081&#45;&gt;Node356968</title>
<path fill="none" stroke="#191970" d="M354.1553,-394.8825C364.9204,-376.0704 388.5681,-333.1094 403,-294.5908 425.0885,-235.637 395.0058,-202.6238 439,-157.5908 446.3741,-150.0426 456.5375,-145.4425 466.6802,-142.6544"/>
<polygon fill="#191970" stroke="#191970" points="467.7079,-146.0116 476.712,-140.4281 466.1913,-139.1778 467.7079,-146.0116"/>
</g>
<!-- Node357081&#45;&gt;Node356973 -->
<g id="edge37" class="edge">
<title>Node357081&#45;&gt;Node356973</title>
<path fill="none" stroke="#191970" d="M351.9883,-414.4996C362.9216,-445.083 398.2311,-540.3472 439,-613.5908 454.7803,-641.941 476.9298,-672.3451 491.1242,-690.919"/>
<polygon fill="#191970" stroke="#191970" points="488.5056,-693.2544 497.3905,-699.0259 494.044,-688.9735 488.5056,-693.2544"/>
</g>
<!-- Node357082 -->
<g id="node20" class="node">
<title>Node357082</title>
<g id="a_node20"><a xlink:href="quickjs_8c.html#ac4a40e2d5f6c48850ba11ed6ce953925" target="_top" xlink:title="add_export_entry">
<polygon fill="none" stroke="#ff0000" points="459,-471.0908 459,-490.0908 551,-490.0908 551,-471.0908 459,-471.0908"/>
<text text-anchor="middle" x="505" y="-478.0908" font-family="Helvetica,sans-Serif" font-size="10.00" fill="#000000">add_export_entry</text>
</a>
</g>
</g>
<!-- Node357081&#45;&gt;Node357082 -->
<g id="edge22" class="edge">
<title>Node357081&#45;&gt;Node357082</title>
<path fill="none" stroke="#191970" d="M363.4435,-414.2509C381.0459,-425.3736 411.3942,-443.7578 439,-456.5908 447.5253,-460.554 456.9028,-464.3071 465.8456,-467.6171"/>
<polygon fill="#191970" stroke="#191970" points="464.7236,-470.933 475.318,-471.024 467.0927,-464.3461 464.7236,-470.933"/>
</g>
<!-- Node357088 -->
<g id="node21" class="node">
<title>Node357088</title>
<g id="a_node21"><a xlink:href="quickjs_8c.html#ad5cccb20d07c9e601482d5b2398c2f55" target="_top" xlink:title="add_req_module_entry">
<polygon fill="none" stroke="#000000" points="607,-452.0908 607,-471.0908 722,-471.0908 722,-452.0908 607,-452.0908"/>
<text text-anchor="middle" x="664.5" y="-459.0908" font-family="Helvetica,sans-Serif" font-size="10.00" fill="#000000">add_req_module_entry</text>
</a>
</g>
</g>
<!-- Node357081&#45;&gt;Node357088 -->
<g id="edge23" class="edge">
<title>Node357081&#45;&gt;Node357088</title>
<path fill="none" stroke="#191970" d="M391.7008,-414.028C406.6553,-417.197 423.5409,-420.6667 439,-423.5908 491.9494,-433.6063 552.1437,-443.6839 597.0148,-450.9421"/>
<polygon fill="#191970" stroke="#191970" points="596.4933,-454.4031 606.9229,-452.5393 597.6074,-447.4923 596.4933,-454.4031"/>
</g>
<!-- Node357089 -->
<g id="node22" class="node">
<title>Node357089</title>
<g id="a_node22"><a xlink:href="quickjs_8c.html#a18dd9d3b970d353bfd39b504d8102ab7" target="_top" xlink:title="add_star_export_entry">
<polygon fill="none" stroke="#000000" points="608,-338.0908 608,-357.0908 721,-357.0908 721,-338.0908 608,-338.0908"/>
<text text-anchor="middle" x="664.5" y="-345.0908" font-family="Helvetica,sans-Serif" font-size="10.00" fill="#000000">add_star_export_entry</text>
</a>
</g>
</g>
<!-- Node357081&#45;&gt;Node357089 -->
<g id="edge26" class="edge">
<title>Node357081&#45;&gt;Node357089</title>
<path fill="none" stroke="#191970" d="M391.7008,-395.1537C406.6553,-391.9847 423.5409,-388.515 439,-385.5908 492.3121,-375.5068 552.9686,-365.3598 597.9346,-358.0909"/>
<polygon fill="#191970" stroke="#191970" points="598.5417,-361.5383 607.8578,-356.4923 597.4284,-354.6274 598.5417,-361.5383"/>
</g>
<!-- Node357090 -->
<g id="node23" class="node">
<title>Node357090</title>
<g id="a_node23"><a xlink:href="quickjs_8c.html#a99125693fff3fd8277f544b15109354b" target="_top" xlink:title="define_var">
<polygon fill="none" stroke="#ff0000" points="474,-319.0908 474,-338.0908 536,-338.0908 536,-319.0908 474,-319.0908"/>
<text text-anchor="middle" x="505" y="-326.0908" font-family="Helvetica,sans-Serif" font-size="10.00" fill="#000000">define_var</text>
</a>
</g>
</g>
<!-- Node357081&#45;&gt;Node357090 -->
<g id="edge28" class="edge">
<title>Node357081&#45;&gt;Node357090</title>
<path fill="none" stroke="#191970" d="M363.4435,-394.9308C381.0459,-383.8081 411.3942,-365.4238 439,-352.5908 447.5253,-348.6277 456.9028,-344.8746 465.8456,-341.5645"/>
<polygon fill="#191970" stroke="#191970" points="467.0927,-344.8356 475.318,-338.1577 464.7236,-338.2487 467.0927,-344.8356"/>
</g>
<!-- Node357100 -->
<g id="node24" class="node">
<title>Node357100</title>
<g id="a_node24"><a xlink:href="quickjs_8c.html#aa57b449a878287663249bb7ab23ed8e9" target="_top" xlink:title="emit_atom">
<polygon fill="none" stroke="#ff0000" points="633.5,-547.0908 633.5,-566.0908 695.5,-566.0908 695.5,-547.0908 633.5,-547.0908"/>
<text text-anchor="middle" x="664.5" y="-554.0908" font-family="Helvetica,sans-Serif" font-size="10.00" fill="#000000">emit_atom</text>
</a>
</g>
</g>
<!-- Node357081&#45;&gt;Node357100 -->
<g id="edge30" class="edge">
<title>Node357081&#45;&gt;Node357100</title>
<path fill="none" stroke="#191970" d="M355.0501,-414.3113C374.7977,-443.5548 432.7799,-528.9405 439,-532.5908 496.0994,-566.1 575.4851,-565.942 623.2404,-561.8884"/>
<polygon fill="#191970" stroke="#191970" points="623.5942,-565.3707 633.2204,-560.945 622.9353,-558.4018 623.5942,-565.3707"/>
</g>
<!-- Node356975 -->
<g id="node25" class="node">
<title>Node356975</title>
<g id="a_node25"><a xlink:href="quickjs_8c.html#ab7fc45a99935a1c0ba50b0216d9401a9" target="_top" xlink:title="JS_FreeAtom">
<polygon fill="none" stroke="#ff0000" points="466.5,-395.0908 466.5,-414.0908 543.5,-414.0908 543.5,-395.0908 466.5,-395.0908"/>
<text text-anchor="middle" x="505" y="-402.0908" font-family="Helvetica,sans-Serif" font-size="10.00" fill="#000000">JS_FreeAtom</text>
</a>
</g>
</g>
<!-- Node357081&#45;&gt;Node356975 -->
<g id="edge35" class="edge">
<title>Node357081&#45;&gt;Node356975</title>
<path fill="none" stroke="#191970" d="M391.6786,-404.5908C411.6474,-404.5908 435.4581,-404.5908 456.0878,-404.5908"/>
<polygon fill="#191970" stroke="#191970" points="456.2377,-408.0909 466.2377,-404.5908 456.2376,-401.0909 456.2377,-408.0909"/>
</g>
<!-- Node357081&#45;&gt;Node357478 -->
<g id="edge38" class="edge">
<title>Node357081&#45;&gt;Node357478</title>
<path fill="none" stroke="#191970" d="M355.0254,-395.0842C378.8385,-360.3917 461.3033,-240.2512 492.717,-194.4856"/>
<polygon fill="#191970" stroke="#191970" points="495.6732,-196.3634 498.4468,-186.138 489.902,-192.402 495.6732,-196.3634"/>
</g>
<!-- Node357081&#45;&gt;Node357481 -->
<g id="edge39" class="edge">
<title>Node357081&#45;&gt;Node357481</title>
<path fill="none" stroke="#191970" d="M355.8458,-414.1832C366.9596,-428.9698 388.3071,-458.467 403,-485.5908 422.5409,-521.6646 409.2477,-542.3426 439,-570.5908 443.2483,-574.6243 448.2267,-577.9892 453.5116,-580.7943"/>
<polygon fill="#191970" stroke="#191970" points="452.0747,-583.9859 462.6203,-585.0059 455.0125,-577.6322 452.0747,-583.9859"/>
</g>
<!-- Node357088&#45;&gt;Node356954 -->
<g id="edge24" class="edge">
<title>Node357088&#45;&gt;Node356954</title>
<path fill="none" stroke="#191970" d="M722.1437,-461.5908C732.038,-461.5908 742.221,-461.5908 751.8177,-461.5908"/>
<polygon fill="#191970" stroke="#191970" points="751.9595,-465.0909 761.9594,-461.5908 751.9594,-458.0909 751.9595,-465.0909"/>
</g>
<!-- Node357088&#45;&gt;Node356956 -->
<g id="edge25" class="edge">
<title>Node357088&#45;&gt;Node356956</title>
<path fill="none" stroke="#191970" d="M676.01,-451.8713C699.2238,-432.2685 751.8621,-387.8184 780.3427,-363.7681"/>
<polygon fill="#191970" stroke="#191970" points="782.6369,-366.4118 788.0191,-357.2858 778.1206,-361.0635 782.6369,-366.4118"/>
</g>
<!-- Node357089&#45;&gt;Node356956 -->
<g id="edge27" class="edge">
<title>Node357089&#45;&gt;Node356956</title>
<path fill="none" stroke="#191970" d="M721.3609,-347.5908C730.07,-347.5908 739.0214,-347.5908 747.6156,-347.5908"/>
<polygon fill="#191970" stroke="#191970" points="747.8811,-351.0909 757.881,-347.5908 747.881,-344.0909 747.8811,-351.0909"/>
</g>
<!-- Node357090&#45;&gt;Node356952 -->
<g id="edge29" class="edge">
<title>Node357090&#45;&gt;Node356952</title>
<path fill="none" stroke="#191970" d="M536.1318,-324.8823C562.7406,-321.7126 601.0262,-317.152 628.8571,-313.8367"/>
<polygon fill="#191970" stroke="#191970" points="629.4497,-317.2909 638.9655,-312.6326 628.6217,-310.3401 629.4497,-317.2909"/>
</g>
<!-- Node357100&#45;&gt;Node356954 -->
<g id="edge31" class="edge">
<title>Node357100&#45;&gt;Node356954</title>
<path fill="none" stroke="#191970" d="M692.6706,-547.0882C702.3317,-543.2521 712.9755,-538.3566 722,-532.5908 745.8321,-517.3646 769.2131,-494.5517 783.9543,-478.9189"/>
<polygon fill="#191970" stroke="#191970" points="786.6154,-481.1962 790.8321,-471.4766 781.4745,-476.4453 786.6154,-481.1962"/>
</g>
<!-- Node356975&#45;&gt;Node356955 -->
<g id="edge36" class="edge">
<title>Node356975&#45;&gt;Node356955</title>
<path fill="none" stroke="#191970" d="M543.6598,-406.3273C617.3263,-409.6362 778.3338,-416.8682 866.7875,-420.8413"/>
<polygon fill="#191970" stroke="#191970" points="866.796,-424.3452 876.943,-421.2975 867.1102,-417.3522 866.796,-424.3452"/>
</g>
<!-- Node357506&#45;&gt;Node356954 -->
<g id="edge43" class="edge">
<title>Node357506&#45;&gt;Node356954</title>
<path fill="none" stroke="#191970" d="M379.5138,-604.1204C387.3122,-606.8637 395.573,-610.0762 403,-613.5908 419.9491,-621.6116 420.9498,-630.5121 439,-635.5908 495.4738,-651.4806 513.3793,-646.6193 571,-635.5908 641.9276,-622.0155 665.6655,-620.7731 722,-575.5908 754.8171,-549.2704 779.1066,-505.3467 791.1067,-480.4037"/>
<polygon fill="#191970" stroke="#191970" points="794.311,-481.8136 795.3571,-471.2705 787.9646,-478.86 794.311,-481.8136"/>
</g>
<!-- Node357506&#45;&gt;Node356973 -->
<g id="edge45" class="edge">
<title>Node357506&#45;&gt;Node356973</title>
<path fill="none" stroke="#191970" d="M387.7433,-604.1149C393.2555,-606.5923 398.5495,-609.6993 403,-613.5908 429.6342,-636.8798 412.5215,-661.125 439,-684.5908 445.7623,-690.5838 454.1405,-695.1182 462.6322,-698.5364"/>
<polygon fill="#191970" stroke="#191970" points="461.5932,-701.8816 472.1879,-701.9395 463.9417,-695.2873 461.5932,-701.8816"/>
</g>
<!-- Node357506&#45;&gt;Node357088 -->
<g id="edge42" class="edge">
<title>Node357506&#45;&gt;Node357088</title>
<path fill="none" stroke="#191970" d="M385.2137,-604.1C401.5575,-607.8648 421.1153,-611.7337 439,-613.5908 497.3529,-619.6502 521.426,-644.9628 571,-613.5908 602.5828,-593.6042 587.6226,-569.5511 607,-537.5908 619.7636,-516.539 637.1155,-494.2838 649.4099,-479.3362"/>
<polygon fill="#191970" stroke="#191970" points="652.2748,-481.3656 655.9913,-471.444 646.8987,-476.8825 652.2748,-481.3656"/>
</g>
<!-- Node357506&#45;&gt;Node356975 -->
<g id="edge44" class="edge">
<title>Node357506&#45;&gt;Node356975</title>
<path fill="none" stroke="#191970" d="M353.871,-584.9559C366.8172,-562.1672 401.4634,-503.7074 439,-461.5908 452.5519,-446.3854 470.0872,-431.4199 483.6767,-420.6414"/>
<polygon fill="#191970" stroke="#191970" points="486.2107,-423.1046 491.9556,-414.2026 481.9132,-417.579 486.2107,-423.1046"/>
</g>
<!-- Node357506&#45;&gt;Node357481 -->
<g id="edge46" class="edge">
<title>Node357506&#45;&gt;Node357481</title>
<path fill="none" stroke="#191970" d="M391.6786,-594.5908C403.1724,-594.5908 415.9391,-594.5908 428.6394,-594.5908"/>
<polygon fill="#191970" stroke="#191970" points="428.785,-598.0909 438.785,-594.5908 428.785,-591.0909 428.785,-598.0909"/>
</g>
<!-- Node357508&#45;&gt;Node356952 -->
<g id="edge48" class="edge">
<title>Node357508&#45;&gt;Node356952</title>
<path fill="none" stroke="#191970" d="M399.8666,-254.7515C445.3241,-257.4614 513.2219,-263.4659 571,-276.5908 591.9619,-281.3526 614.7213,-289.3209 632.5368,-296.2345"/>
<polygon fill="#191970" stroke="#191970" points="631.2968,-299.5079 641.8828,-299.9399 633.8767,-293.0007 631.2968,-299.5079"/>
</g>
<!-- Node357508&#45;&gt;Node356954 -->
<g id="edge53" class="edge">
<title>Node357508&#45;&gt;Node356954</title>
<path fill="none" stroke="#191970" d="M399.6781,-266.299C412.5078,-269.6979 426.2497,-273.3066 439,-276.5908 497.5607,-291.6751 522.0028,-274.1485 571,-309.5908 595.2773,-327.1519 584.7316,-346.5435 607,-366.5908 651.7453,-406.8733 716.6757,-434.1466 758.497,-448.7881"/>
<polygon fill="#191970" stroke="#191970" points="757.4928,-452.1436 768.0873,-452.0661 759.7568,-445.5199 757.4928,-452.1436"/>
</g>
<!-- Node357508&#45;&gt;Node356963 -->
<g id="edge51" class="edge">
<title>Node357508&#45;&gt;Node356963</title>
<path fill="none" stroke="#191970" d="M354.3244,-237.3002C366.7242,-205.9665 397.9838,-133.0865 439,-81.5908 451.6544,-65.7033 469.1711,-50.8137 482.9787,-40.2393"/>
<polygon fill="#191970" stroke="#191970" points="485.096,-43.0264 491.02,-34.2425 480.9113,-37.415 485.096,-43.0264"/>
</g>
<!-- Node357508&#45;&gt;Node356965 -->
<g id="edge49" class="edge">
<title>Node357508&#45;&gt;Node356965</title>
<path fill="none" stroke="#191970" d="M399.7636,-241.1528C445.1542,-230.6244 513.0117,-213.9021 571,-195.5908 639.404,-173.9905 656.1665,-167.0799 722,-138.5908 738.9223,-131.2678 757.4817,-122.2055 772.1949,-114.7676"/>
<polygon fill="#191970" stroke="#191970" points="773.9336,-117.8098 781.2523,-110.149 770.7537,-111.5738 773.9336,-117.8098"/>
</g>
<!-- Node357508&#45;&gt;Node356968 -->
<g id="edge52" class="edge">
<title>Node357508&#45;&gt;Node356968</title>
<path fill="none" stroke="#191970" d="M358.9283,-237.3612C374.1181,-216.3281 404.327,-178.6101 439,-157.5908 447.4758,-152.4527 457.4059,-148.6481 466.9524,-145.8527"/>
<polygon fill="#191970" stroke="#191970" points="467.9049,-149.2213 476.6848,-143.2914 466.1233,-142.4518 467.9049,-149.2213"/>
</g>
<!-- Node357508&#45;&gt;Node356973 -->
<g id="edge57" class="edge">
<title>Node357508&#45;&gt;Node356973</title>
<path fill="none" stroke="#191970" d="M356.073,-267.7416C367.8878,-292.0105 390.6313,-341.3734 403,-385.5908 430.6357,-484.3872 400.7674,-518.3925 439,-613.5908 450.9633,-643.3792 473.718,-673.0054 489.124,-691.0586"/>
<polygon fill="#191970" stroke="#191970" points="486.7996,-693.7175 496.0171,-698.9414 492.0691,-689.1096 486.7996,-693.7175"/>
</g>
<!-- Node357508&#45;&gt;Node357090 -->
<g id="edge50" class="edge">
<title>Node357508&#45;&gt;Node357090</title>
<path fill="none" stroke="#191970" d="M372.0974,-267.6566C390.0174,-278.7222 415.5022,-293.6675 439,-304.5908 447.5253,-308.554 456.9028,-312.3071 465.8456,-315.6171"/>
<polygon fill="#191970" stroke="#191970" points="464.7236,-318.933 475.318,-319.024 467.0927,-312.3461 464.7236,-318.933"/>
</g>
<!-- Node357508&#45;&gt;Node356975 -->
<g id="edge54" class="edge">
<title>Node357508&#45;&gt;Node356975</title>
<path fill="none" stroke="#191970" d="M362.1729,-267.8358C379.5278,-286.9742 410.6282,-320.5705 439,-347.5908 453.9293,-361.809 471.6502,-377.0289 484.9688,-388.1619"/>
<polygon fill="#191970" stroke="#191970" points="483.0812,-391.1436 493.0118,-394.8361 487.5513,-385.7568 483.0812,-391.1436"/>
</g>
<!-- Node357508&#45;&gt;Node357478 -->
<g id="edge58" class="edge">
<title>Node357508&#45;&gt;Node357478</title>
<path fill="none" stroke="#191970" d="M372.0974,-237.5251C390.0174,-226.4595 415.5022,-211.5142 439,-200.5908 447.5253,-196.6277 456.9028,-192.8746 465.8456,-189.5645"/>
<polygon fill="#191970" stroke="#191970" points="467.0927,-192.8356 475.318,-186.1577 464.7236,-186.2487 467.0927,-192.8356"/>
</g>
<!-- Node357508&#45;&gt;Node357481 -->
<g id="edge59" class="edge">
<title>Node357508&#45;&gt;Node357481</title>
<path fill="none" stroke="#191970" d="M355.2987,-267.9897C366.0525,-292.5986 387.3685,-342.4188 403,-385.5908 421.0889,-435.5498 415.577,-451.8994 439,-499.5908 453.2274,-528.5591 475.6007,-558.5942 490.2863,-576.9413"/>
<polygon fill="#191970" stroke="#191970" points="487.781,-579.4077 496.8086,-584.9532 493.2096,-574.9884 487.781,-579.4077"/>
</g>
<!-- Node357508&#45;&gt;Node357498 -->
<g id="edge55" class="edge">
<title>Node357508&#45;&gt;Node357498</title>
<path fill="none" stroke="#191970" d="M354.6846,-237.2737C366.6833,-209.5153 395.7963,-150.8804 439,-119.5908 441.6557,-117.6675 444.5024,-115.9381 447.4685,-114.3832"/>
<polygon fill="#191970" stroke="#191970" points="448.9885,-117.5372 456.6532,-110.2226 446.1,-111.1609 448.9885,-117.5372"/>
</g>
<!-- Node357508&#45;&gt;Node357508 -->
<g id="edge56" class="edge">
<title>Node357508&#45;&gt;Node357508</title>
<path fill="none" stroke="#191970" d="M321.6623,-267.7498C315.1908,-277.1474 324.1367,-286.0908 348.5,-286.0908 363.3464,-286.0908 372.4677,-282.7698 375.8639,-278.0487"/>
<polygon fill="#191970" stroke="#191970" points="379.3435,-277.5582 375.3377,-267.7498 372.3527,-277.9155 379.3435,-277.5582"/>
</g>
</g>
</svg>
        <g id="navigator" transform="translate(0 0)" fill="#404254">
                <rect fill="#f2f5e9" fill-opacity="0.5" stroke="#606060" stroke-width=".5" x="0" y="0" width="60" height="60"/>
                <use id="zoomplus" xlink:href="#zoomPlus" x="17" y="9" onmousedown="handleZoom(evt,'in')"/>
                <use id="zoomminus" xlink:href="#zoomMin" x="42" y="9" onmousedown="handleZoom(evt,'out')"/>
                <use id="reset" xlink:href="#resetDef" x="30" y="36" onmousedown="handleReset()"/>
                <g id="arrowUp" xlink:href="#dirArrow" transform="translate(30 24)" onmousedown="handlePan(0,-1)">
                  <use xlink:href="#rim" fill="#404040">
                        <set attributeName="fill" to="#808080" begin="arrowUp.mouseover" end="arrowUp.mouseout"/>
                  </use>
                  <path fill="none" stroke="white" stroke-width="1.5" d="M0,-3.0v7 M-2.5,-0.5L0,-3.0L2.5,-0.5"/>
                </g>
                <g id="arrowRight" xlink:href="#dirArrow" transform="rotate(90) translate(36 -43)" onmousedown="handlePan(1,0)">
                  <use xlink:href="#rim" fill="#404040">
                        <set attributeName="fill" to="#808080" begin="arrowRight.mouseover" end="arrowRight.mouseout"/>
                  </use>
                  <path fill="none" stroke="white" stroke-width="1.5" d="M0,-3.0v7 M-2.5,-0.5L0,-3.0L2.5,-0.5"/>
                </g>
                <g id="arrowDown" xlink:href="#dirArrow" transform="rotate(180) translate(-30 -48)" onmousedown="handlePan(0,1)">
                  <use xlink:href="#rim" fill="#404040">
                        <set attributeName="fill" to="#808080" begin="arrowDown.mouseover" end="arrowDown.mouseout"/>
                  </use>
                  <path fill="none" stroke="white" stroke-width="1.5" d="M0,-3.0v7 M-2.5,-0.5L0,-3.0L2.5,-0.5"/>
                </g>
                <g id="arrowLeft" xlink:href="#dirArrow" transform="rotate(270) translate(-36 17)" onmousedown="handlePan(-1,0)">
                  <use xlink:href="#rim" fill="#404040">
                        <set attributeName="fill" to="#808080" begin="arrowLeft.mouseover" end="arrowLeft.mouseout"/>
                  </use>
                  <path fill="none" stroke="white" stroke-width="1.5" d="M0,-3.0v7 M-2.5,-0.5L0,-3.0L2.5,-0.5"/>
                </g>
        </g>
        <svg viewBox="0 0 15 15" width="100%" height="30px" preserveAspectRatio="xMaxYMin meet">
         <g id="arrow_out" transform="scale(0.3 0.3)">
          <a xlink:href="quickjs_8c_aec05caae64451720670d1a56040110b3_cgraph_org.svg" target="_base">
           <rect id="button" ry="5" rx="5" y="6" x="6" height="38" width="38"
                fill="#f2f5e9" fill-opacity="0.5" stroke="#606060" stroke-width="1.0"/>
           <path id="arrow"
             d="M 11.500037,31.436501 C 11.940474,20.09759 22.043105,11.32322 32.158766,21.979434 L 37.068811,17.246167 C 37.068811,17.246167 37.088388,32 37.088388,32 L 22.160133,31.978069 C 22.160133,31.978069 26.997745,27.140456 26.997745,27.140456 C 18.528582,18.264221 13.291696,25.230495 11.500037,31.436501 z"
             style="fill:#404040;"/>
          </a>
         </g>
        </svg>
</svg>
