<?xml version="1.0" encoding="UTF-8" standalone="no"?>
<!DOCTYPE svg PUBLIC "-//W3C//DTD SVG 1.1//EN"
 "http://www.w3.org/Graphics/SVG/1.1/DTD/svg11.dtd">
<!-- Generated by graphviz version 2.40.1 (20161225.0304)
 -->
<!-- Title: js_parse_function_decl Pages: 1 -->
<!--zoomable 1236 -->
<svg id="main" version="1.1" xmlns="http://www.w3.org/2000/svg" xmlns:xlink="http://www.w3.org/1999/xlink" xml:space="preserve" onload="init(evt)">
<style type="text/css"><![CDATA[
.edge:hover path { stroke: red; }
.edge:hover polygon { stroke: red; fill: red; }
]]></style>
<script type="text/javascript"><![CDATA[
var edges = document.getElementsByTagName('g');
if (edges && edges.length) {
  for (var i=0;i<edges.length;i++) {
    if (edges[i].id.substr(0,4)=='edge') {
      edges[i].setAttribute('class','edge');
    }
  }
}
]]></script>
        <defs>
                <circle id="rim" cx="0" cy="0" r="7"/>
                <circle id="rim2" cx="0" cy="0" r="3.5"/>
                <g id="zoomPlus">
                        <use xlink:href="#rim" fill="#404040">
                                <set attributeName="fill" to="#808080" begin="zoomplus.mouseover" end="zoomplus.mouseout"/>
                        </use>
                        <path d="M-4,0h8M0,-4v8" fill="none" stroke="white" stroke-width="1.5" pointer-events="none"/>
                </g>
                <g id="zoomMin">
                        <use xlink:href="#rim" fill="#404040">
                                <set attributeName="fill" to="#808080" begin="zoomminus.mouseover" end="zoomminus.mouseout"/>
                        </use>
                        <path d="M-4,0h8" fill="none" stroke="white" stroke-width="1.5" pointer-events="none"/>
                </g>
                <g id="dirArrow">
                        <path fill="none" stroke="white" stroke-width="1.5" d="M0,-3.0v7 M-2.5,-0.5L0,-3.0L2.5,-0.5"/>
                </g>
               <g id="resetDef">
                       <use xlink:href="#rim2" fill="#404040">
                               <set attributeName="fill" to="#808080" begin="reset.mouseover" end="reset.mouseout"/>
                       </use>
               </g>
        </defs>

<script type="text/javascript">
var viewWidth = 869;
var viewHeight = 1236;
var sectionId = 'dynsection-992';
</script>
<script xlink:href="svgpan.js"/>
<svg id="graph" class="graph">
<g id="viewport">
<title>js_parse_function_decl</title>
<!-- Node313672 -->
<g id="node1" class="node">
<title>Node313672</title>
<polygon fill="#bfbfbf" stroke="#000000" points="0,-689.5 0,-708.5 116,-708.5 116,-689.5 0,-689.5"/>
<text text-anchor="middle" x="58" y="-696.5" font-family="Helvetica,sans-Serif" font-size="10.00" fill="#000000">js_parse_function_decl</text>
</g>
<!-- Node313673 -->
<g id="node2" class="node">
<title>Node313673</title>
<g id="a_node2"><a xlink:href="quickjs_8c.html#acc9eb677cab8dfcf45f59381f8a19601" target="_top" xlink:title="js_parse_function_decl2">
<polygon fill="none" stroke="#ff0000" points="152,-689.5 152,-708.5 274,-708.5 274,-689.5 152,-689.5"/>
<text text-anchor="middle" x="213" y="-696.5" font-family="Helvetica,sans-Serif" font-size="10.00" fill="#000000">js_parse_function_decl2</text>
</a>
</g>
</g>
<!-- Node313672&#45;&gt;Node313673 -->
<g id="edge1" class="edge">
<title>Node313672&#45;&gt;Node313673</title>
<path fill="none" stroke="#191970" d="M116.1573,-699C124.5542,-699 133.2748,-699 141.8893,-699"/>
<polygon fill="#191970" stroke="#191970" points="141.9277,-702.5001 151.9276,-699 141.9276,-695.5001 141.9277,-702.5001"/>
</g>
<!-- Node313674 -->
<g id="node3" class="node">
<title>Node313674</title>
<g id="a_node3"><a xlink:href="quickjs_8c.html#a76ed161458dbf48da341e43ab398efd4" target="_top" xlink:title="token_is_pseudo_keyword">
<polygon fill="none" stroke="#000000" points="618,-363.5 618,-382.5 750,-382.5 750,-363.5 618,-363.5"/>
<text text-anchor="middle" x="684" y="-370.5" font-family="Helvetica,sans-Serif" font-size="10.00" fill="#000000">token_is_pseudo_keyword</text>
</a>
</g>
</g>
<!-- Node313673&#45;&gt;Node313674 -->
<g id="edge2" class="edge">
<title>Node313673&#45;&gt;Node313674</title>
<path fill="none" stroke="#191970" d="M214.5654,-689.3572C220.4684,-656.1401 244.477,-545.3641 310,-488 394.2683,-414.2248 525.1217,-387.7774 607.6021,-378.2968"/>
<polygon fill="#191970" stroke="#191970" points="608.1029,-381.763 617.6633,-377.1969 607.3421,-374.8045 608.1029,-381.763"/>
</g>
<!-- Node313675 -->
<g id="node4" class="node">
<title>Node313675</title>
<g id="a_node4"><a xlink:href="quickjs_8c.html#a2738f70401d666222802576640dd5781" target="_top" xlink:title="peek_token">
<polygon fill="none" stroke="#ff0000" points="339,-1176.5 339,-1195.5 406,-1195.5 406,-1176.5 339,-1176.5"/>
<text text-anchor="middle" x="372.5" y="-1183.5" font-family="Helvetica,sans-Serif" font-size="10.00" fill="#000000">peek_token</text>
</a>
</g>
</g>
<!-- Node313673&#45;&gt;Node313675 -->
<g id="edge3" class="edge">
<title>Node313673&#45;&gt;Node313675</title>
<path fill="none" stroke="#191970" d="M213.7693,-708.5324C218.7548,-768.1427 248.239,-1089.4641 310,-1162 315.1922,-1168.0981 322.1174,-1172.6522 329.4665,-1176.0517"/>
<polygon fill="#191970" stroke="#191970" points="328.3166,-1179.3604 338.9036,-1179.7695 330.8825,-1172.8476 328.3166,-1179.3604"/>
</g>
<!-- Node313684 -->
<g id="node5" class="node">
<title>Node313684</title>
<g id="a_node5"><a xlink:href="quickjs_8c.html#a75a3798e2045f6e403c1ef467126d1fb" target="_top" xlink:title="next_token">
<polygon fill="none" stroke="#ff0000" points="651.5,-262.5 651.5,-281.5 716.5,-281.5 716.5,-262.5 651.5,-262.5"/>
<text text-anchor="middle" x="684" y="-269.5" font-family="Helvetica,sans-Serif" font-size="10.00" fill="#000000">next_token</text>
</a>
</g>
</g>
<!-- Node313673&#45;&gt;Node313684 -->
<g id="edge4" class="edge">
<title>Node313673&#45;&gt;Node313684</title>
<path fill="none" stroke="#191970" d="M213.2884,-689.1644C215.4009,-624.6633 230.719,-262.7045 310,-196 356.2542,-157.0831 524.8038,-173.4407 582,-193 617.6052,-205.1758 650.4063,-235.3934 668.7498,-254.7291"/>
<polygon fill="#191970" stroke="#191970" points="666.3426,-257.2818 675.6922,-262.2654 671.491,-252.539 666.3426,-257.2818"/>
</g>
<!-- Node313788 -->
<g id="node6" class="node">
<title>Node313788</title>
<g id="a_node6"><a xlink:href="quickjs_8c.html#ab1d195fd11f9d22a0a79a040df2be944" target="_top" xlink:title="js_parse_error_reserved\l_identifier">
<polygon fill="none" stroke="#ff0000" points="312,-1089 312,-1119 433,-1119 433,-1089 312,-1089"/>
<text text-anchor="start" x="320" y="-1107" font-family="Helvetica,sans-Serif" font-size="10.00" fill="#000000">js_parse_error_reserved</text>
<text text-anchor="middle" x="372.5" y="-1096" font-family="Helvetica,sans-Serif" font-size="10.00" fill="#000000">_identifier</text>
</a>
</g>
</g>
<!-- Node313673&#45;&gt;Node313788 -->
<g id="edge5" class="edge">
<title>Node313673&#45;&gt;Node313788</title>
<path fill="none" stroke="#191970" d="M214.3774,-708.6496C222.0661,-761.3852 261.0952,-1014.5276 310,-1074 312.8727,-1077.4934 316.2487,-1080.6077 319.9184,-1083.3788"/>
<polygon fill="#191970" stroke="#191970" points="318.0602,-1086.3457 328.3397,-1088.9112 321.9036,-1080.4952 318.0602,-1086.3457"/>
</g>
<!-- Node313792 -->
<g id="node7" class="node">
<title>Node313792</title>
<g id="a_node7"><a xlink:href="quickjs_8c.html#abbf44eaeace1104a6bef718fbf5700fe" target="_top" xlink:title="JS_DupAtom">
<polygon fill="none" stroke="#ff0000" points="786,-499.5 786,-518.5 861,-518.5 861,-499.5 786,-499.5"/>
<text text-anchor="middle" x="823.5" y="-506.5" font-family="Helvetica,sans-Serif" font-size="10.00" fill="#000000">JS_DupAtom</text>
</a>
</g>
</g>
<!-- Node313673&#45;&gt;Node313792 -->
<g id="edge6" class="edge">
<title>Node313673&#45;&gt;Node313792</title>
<path fill="none" stroke="#191970" d="M213.888,-689.2356C220.6005,-616.4758 264.3406,-160.6243 310,-122 385.0231,-58.5364 681.9009,-95.1579 750,-166 795.3882,-213.2165 816.3917,-423.2165 821.9459,-489.1352"/>
<polygon fill="#191970" stroke="#191970" points="818.4804,-489.7014 822.7812,-499.3841 825.4573,-489.1328 818.4804,-489.7014"/>
</g>
<!-- Node313686 -->
<g id="node8" class="node">
<title>Node313686</title>
<g id="a_node8"><a xlink:href="quickjs_8c.html#ab7fc45a99935a1c0ba50b0216d9401a9" target="_top" xlink:title="JS_FreeAtom">
<polygon fill="none" stroke="#ff0000" points="645.5,-442.5 645.5,-461.5 722.5,-461.5 722.5,-442.5 645.5,-442.5"/>
<text text-anchor="middle" x="684" y="-449.5" font-family="Helvetica,sans-Serif" font-size="10.00" fill="#000000">JS_FreeAtom</text>
</a>
</g>
</g>
<!-- Node313673&#45;&gt;Node313686 -->
<g id="edge7" class="edge">
<title>Node313673&#45;&gt;Node313686</title>
<path fill="none" stroke="#191970" d="M213.6813,-689.279C217.9597,-631.2935 243.1299,-331.6884 310,-276 356.4626,-237.3066 533.6115,-232.744 582,-269 627.584,-303.1547 587.7989,-343.7057 618,-392 629.0831,-409.7229 646.8281,-425.4374 661.1283,-436.3341"/>
<polygon fill="#191970" stroke="#191970" points="659.3628,-439.3797 669.4966,-442.4712 663.5025,-433.7349 659.3628,-439.3797"/>
</g>
<!-- Node313793 -->
<g id="node9" class="node">
<title>Node313793</title>
<g id="a_node9"><a xlink:href="quickjs_8c.html#a87911bf8f73f022d21edeaca80361ce2" target="_top" xlink:title="find_global_var">
<polygon fill="none" stroke="#000000" points="485.5,-1050.5 485.5,-1069.5 567.5,-1069.5 567.5,-1050.5 485.5,-1050.5"/>
<text text-anchor="middle" x="526.5" y="-1057.5" font-family="Helvetica,sans-Serif" font-size="10.00" fill="#000000">find_global_var</text>
</a>
</g>
</g>
<!-- Node313673&#45;&gt;Node313793 -->
<g id="edge8" class="edge">
<title>Node313673&#45;&gt;Node313793</title>
<path fill="none" stroke="#191970" d="M214.2815,-708.7698C221.198,-759.9128 255.7812,-996.1617 310,-1041 355.7404,-1078.8268 427.0175,-1077.3393 475.1752,-1070.5709"/>
<polygon fill="#191970" stroke="#191970" points="475.7257,-1074.0275 485.0831,-1069.0587 474.6695,-1067.1076 475.7257,-1074.0275"/>
</g>
<!-- Node313794 -->
<g id="node10" class="node">
<title>Node313794</title>
<g id="a_node10"><a xlink:href="quickjs_8c.html#a83749bc9db22260434eed3a360edc6c0" target="_top" xlink:title="find_lexical_decl">
<polygon fill="none" stroke="#ff0000" points="482,-1012.5 482,-1031.5 571,-1031.5 571,-1012.5 482,-1012.5"/>
<text text-anchor="middle" x="526.5" y="-1019.5" font-family="Helvetica,sans-Serif" font-size="10.00" fill="#000000">find_lexical_decl</text>
</a>
</g>
</g>
<!-- Node313673&#45;&gt;Node313794 -->
<g id="edge9" class="edge">
<title>Node313673&#45;&gt;Node313794</title>
<path fill="none" stroke="#191970" d="M213.6513,-708.6074C216.7273,-746.2471 233.0728,-885.1302 310,-957 322.4698,-968.65 417.9403,-994.4758 477.8664,-1009.8359"/>
<polygon fill="#191970" stroke="#191970" points="477.3321,-1013.3116 487.887,-1012.3919 479.0623,-1006.5288 477.3321,-1013.3116"/>
</g>
<!-- Node313796 -->
<g id="node11" class="node">
<title>Node313796</title>
<g id="a_node11"><a xlink:href="quickjs_8c.html#a17f57e818da8e28af51d672f9dd1e02b" target="_top" xlink:title="find_var">
<polygon fill="none" stroke="#ff0000" points="501,-974.5 501,-993.5 552,-993.5 552,-974.5 501,-974.5"/>
<text text-anchor="middle" x="526.5" y="-981.5" font-family="Helvetica,sans-Serif" font-size="10.00" fill="#000000">find_var</text>
</a>
</g>
</g>
<!-- Node313673&#45;&gt;Node313796 -->
<g id="edge10" class="edge">
<title>Node313673&#45;&gt;Node313796</title>
<path fill="none" stroke="#191970" d="M214.2709,-708.7449C219.312,-743.3697 241.105,-861.6101 310,-922 336.9998,-945.6667 436.6935,-967.2869 490.8778,-977.6156"/>
<polygon fill="#191970" stroke="#191970" points="490.2814,-981.0647 500.7555,-979.4694 491.5727,-974.1848 490.2814,-981.0647"/>
</g>
<!-- Node313798 -->
<g id="node12" class="node">
<title>Node313798</title>
<g id="a_node12"><a xlink:href="quickjs_8c.html#a99125693fff3fd8277f544b15109354b" target="_top" xlink:title="define_var">
<polygon fill="none" stroke="#ff0000" points="341.5,-1012.5 341.5,-1031.5 403.5,-1031.5 403.5,-1012.5 341.5,-1012.5"/>
<text text-anchor="middle" x="372.5" y="-1019.5" font-family="Helvetica,sans-Serif" font-size="10.00" fill="#000000">define_var</text>
</a>
</g>
</g>
<!-- Node313673&#45;&gt;Node313798 -->
<g id="edge11" class="edge">
<title>Node313673&#45;&gt;Node313798</title>
<path fill="none" stroke="#191970" d="M213.2668,-708.7697C214.9094,-749.7981 226.6297,-910.0954 310,-998 315.9788,-1004.304 323.7949,-1008.9728 331.8654,-1012.4239"/>
<polygon fill="#191970" stroke="#191970" points="330.7685,-1015.7499 341.3616,-1015.9407 333.1996,-1009.1856 330.7685,-1015.7499"/>
</g>
<!-- Node313806 -->
<g id="node13" class="node">
<title>Node313806</title>
<g id="a_node13"><a xlink:href="quickjs_8c.html#ab2e0855c4317f8e3b05c0a091bc43a29" target="_top" xlink:title="add_var">
<polygon fill="none" stroke="#ff0000" points="501,-1176.5 501,-1195.5 552,-1195.5 552,-1176.5 501,-1176.5"/>
<text text-anchor="middle" x="526.5" y="-1183.5" font-family="Helvetica,sans-Serif" font-size="10.00" fill="#000000">add_var</text>
</a>
</g>
</g>
<!-- Node313673&#45;&gt;Node313806 -->
<g id="edge65" class="edge">
<title>Node313673&#45;&gt;Node313806</title>
<path fill="none" stroke="#191970" d="M213.2632,-708.9116C215.2139,-773.9086 229.6782,-1138.6133 310,-1205 363.9195,-1249.5649 453.2898,-1219.6166 498.4843,-1199.7076"/>
<polygon fill="#191970" stroke="#191970" points="500.0348,-1202.8475 507.6879,-1195.5207 497.1361,-1196.4759 500.0348,-1202.8475"/>
</g>
<!-- Node313809 -->
<g id="node14" class="node">
<title>Node313809</title>
<g id="a_node14"><a xlink:href="quickjs_8c.html#a8020fd59ed57f7f299216ec1ebfcda01" target="_top" xlink:title="js_new_function_def">
<polygon fill="none" stroke="#ff0000" points="319.5,-784.5 319.5,-803.5 425.5,-803.5 425.5,-784.5 319.5,-784.5"/>
<text text-anchor="middle" x="372.5" y="-791.5" font-family="Helvetica,sans-Serif" font-size="10.00" fill="#000000">js_new_function_def</text>
</a>
</g>
</g>
<!-- Node313673&#45;&gt;Node313809 -->
<g id="edge17" class="edge">
<title>Node313673&#45;&gt;Node313809</title>
<path fill="none" stroke="#191970" d="M222.6074,-708.5621C239.1122,-724.4916 274.5122,-756.5309 310,-775 314.241,-777.2072 318.78,-779.2026 323.404,-780.9963"/>
<polygon fill="#191970" stroke="#191970" points="322.3515,-784.3368 332.9462,-784.3977 324.7019,-777.7431 322.3515,-784.3368"/>
</g>
<!-- Node313815 -->
<g id="node15" class="node">
<title>Node313815</title>
<g id="a_node15"><a xlink:href="quickjs_8c.html#a832fb9c17eacb588e93f333cf8b76522" target="_top" xlink:title="emit_op">
<polygon fill="none" stroke="#ff0000" points="658.5,-822.5 658.5,-841.5 709.5,-841.5 709.5,-822.5 658.5,-822.5"/>
<text text-anchor="middle" x="684" y="-829.5" font-family="Helvetica,sans-Serif" font-size="10.00" fill="#000000">emit_op</text>
</a>
</g>
</g>
<!-- Node313673&#45;&gt;Node313815 -->
<g id="edge18" class="edge">
<title>Node313673&#45;&gt;Node313815</title>
<path fill="none" stroke="#191970" d="M213.5942,-708.5414C217.4353,-766.7782 240.8139,-1073.6825 310,-1129 358.0006,-1167.3787 542.4815,-1126.0668 582,-1079 649.0964,-999.0877 546.8261,-923.3032 618,-847 625.7934,-838.645 637.188,-834.4728 648.324,-832.5114"/>
<polygon fill="#191970" stroke="#191970" points="648.87,-835.9707 658.3674,-831.275 648.0146,-829.0231 648.87,-835.9707"/>
</g>
<!-- Node313820 -->
<g id="node16" class="node">
<title>Node313820</title>
<g id="a_node16"><a xlink:href="quickjs_8c.html#a1e86277b96b55991d572603e00fef94d" target="_top" xlink:title="emit_class_field_init">
<polygon fill="none" stroke="#000000" points="320,-746.5 320,-765.5 425,-765.5 425,-746.5 320,-746.5"/>
<text text-anchor="middle" x="372.5" y="-753.5" font-family="Helvetica,sans-Serif" font-size="10.00" fill="#000000">emit_class_field_init</text>
</a>
</g>
</g>
<!-- Node313673&#45;&gt;Node313820 -->
<g id="edge19" class="edge">
<title>Node313673&#45;&gt;Node313820</title>
<path fill="none" stroke="#191970" d="M239.6967,-708.5405C266.1492,-717.9938 306.8537,-732.5402 336.2264,-743.037"/>
<polygon fill="#191970" stroke="#191970" points="335.1216,-746.3589 345.7162,-746.4284 337.4773,-739.7672 335.1216,-746.3589"/>
</g>
<!-- Node313821 -->
<g id="node17" class="node">
<title>Node313821</title>
<g id="a_node17"><a xlink:href="quickjs_8c.html#aa57b449a878287663249bb7ab23ed8e9" target="_top" xlink:title="emit_atom">
<polygon fill="none" stroke="#ff0000" points="653,-651.5 653,-670.5 715,-670.5 715,-651.5 653,-651.5"/>
<text text-anchor="middle" x="684" y="-658.5" font-family="Helvetica,sans-Serif" font-size="10.00" fill="#000000">emit_atom</text>
</a>
</g>
</g>
<!-- Node313673&#45;&gt;Node313821 -->
<g id="edge59" class="edge">
<title>Node313673&#45;&gt;Node313821</title>
<path fill="none" stroke="#191970" d="M214.4415,-708.86C219.8297,-741.6678 242.0896,-847.4216 310,-889 357.3804,-918.0089 379.8882,-896.0081 435,-889 501.9419,-880.4876 528.9205,-892.6683 582,-851 611.6542,-827.721 657.7777,-723.4794 676.105,-680.0686"/>
<polygon fill="#191970" stroke="#191970" points="679.4144,-681.2267 680.0467,-670.6507 672.9572,-678.5241 679.4144,-681.2267"/>
</g>
<!-- Node313823 -->
<g id="node18" class="node">
<title>Node313823</title>
<g id="a_node18"><a xlink:href="quickjs_8c.html#a50b5ef50e38aaeb8cba27214601474c7" target="_top" xlink:title="emit_u16">
<polygon fill="none" stroke="#ff0000" points="498.5,-746.5 498.5,-765.5 554.5,-765.5 554.5,-746.5 498.5,-746.5"/>
<text text-anchor="middle" x="526.5" y="-753.5" font-family="Helvetica,sans-Serif" font-size="10.00" fill="#000000">emit_u16</text>
</a>
</g>
</g>
<!-- Node313673&#45;&gt;Node313823 -->
<g id="edge39" class="edge">
<title>Node313673&#45;&gt;Node313823</title>
<path fill="none" stroke="#191970" d="M271.9953,-708.5176C316.7889,-715.8848 379.8679,-726.5608 435,-737 452.3919,-740.2932 471.5787,-744.2303 487.8715,-747.6644"/>
<polygon fill="#191970" stroke="#191970" points="487.6038,-751.1854 498.1125,-749.8366 489.0564,-744.3378 487.6038,-751.1854"/>
</g>
<!-- Node313825 -->
<g id="node19" class="node">
<title>Node313825</title>
<g id="a_node19"><a xlink:href="quickjs_8c.html#a6b3c67655a0facc68b271ce3d401deb3" target="_top" xlink:title="emit_goto">
<polygon fill="none" stroke="#ff0000" points="497,-708.5 497,-727.5 556,-727.5 556,-708.5 497,-708.5"/>
<text text-anchor="middle" x="526.5" y="-715.5" font-family="Helvetica,sans-Serif" font-size="10.00" fill="#000000">emit_goto</text>
</a>
</g>
</g>
<!-- Node313673&#45;&gt;Node313825 -->
<g id="edge61" class="edge">
<title>Node313673&#45;&gt;Node313825</title>
<path fill="none" stroke="#191970" d="M274.3653,-698.2554C319.0027,-698.2313 380.8489,-699.2675 435,-704 452.0724,-705.492 470.7989,-708.1704 486.839,-710.7878"/>
<polygon fill="#191970" stroke="#191970" points="486.5055,-714.2807 496.9472,-712.4859 487.6653,-707.3775 486.5055,-714.2807"/>
</g>
<!-- Node313828 -->
<g id="node20" class="node">
<title>Node313828</title>
<g id="a_node20"><a xlink:href="quickjs_8c.html#a0dd0929b9f2ff5983b0027b7cce5c447" target="_top" xlink:title="new_label">
<polygon fill="none" stroke="#ff0000" points="654,-613.5 654,-632.5 714,-632.5 714,-613.5 654,-613.5"/>
<text text-anchor="middle" x="684" y="-620.5" font-family="Helvetica,sans-Serif" font-size="10.00" fill="#000000">new_label</text>
</a>
</g>
</g>
<!-- Node313673&#45;&gt;Node313828 -->
<g id="edge60" class="edge">
<title>Node313673&#45;&gt;Node313828</title>
<path fill="none" stroke="#191970" d="M272.1756,-689.4515C369.4387,-673.7572 560.5924,-642.9129 643.7581,-629.4934"/>
<polygon fill="#191970" stroke="#191970" points="644.506,-632.9181 653.8207,-627.8697 643.3908,-626.0075 644.506,-632.9181"/>
</g>
<!-- Node313830 -->
<g id="node21" class="node">
<title>Node313830</title>
<g id="a_node21"><a xlink:href="quickjs_8c.html#a555f0d4061c655933eb187026d0796af" target="_top" xlink:title="emit_label">
<polygon fill="none" stroke="#ff0000" points="496,-822.5 496,-841.5 557,-841.5 557,-822.5 496,-822.5"/>
<text text-anchor="middle" x="526.5" y="-829.5" font-family="Helvetica,sans-Serif" font-size="10.00" fill="#000000">emit_label</text>
</a>
</g>
</g>
<!-- Node313673&#45;&gt;Node313830 -->
<g id="edge64" class="edge">
<title>Node313673&#45;&gt;Node313830</title>
<path fill="none" stroke="#191970" d="M217.7242,-708.5233C229.5983,-731.2949 263.1275,-788.796 310,-813 365.6737,-841.7487 440.2203,-841.1946 485.7271,-837.2572"/>
<polygon fill="#191970" stroke="#191970" points="486.1909,-840.7288 495.81,-836.2877 485.5209,-833.7609 486.1909,-840.7288"/>
</g>
<!-- Node313831 -->
<g id="node22" class="node">
<title>Node313831</title>
<g id="a_node22"><a xlink:href="quickjs_8c.html#aff573513d994f4e9ad7b0430c03ddc3d" target="_top" xlink:title="add_arg">
<polygon fill="none" stroke="#ff0000" points="658.5,-175.5 658.5,-194.5 709.5,-194.5 709.5,-175.5 658.5,-175.5"/>
<text text-anchor="middle" x="684" y="-182.5" font-family="Helvetica,sans-Serif" font-size="10.00" fill="#000000">add_arg</text>
</a>
</g>
</g>
<!-- Node313673&#45;&gt;Node313831 -->
<g id="edge29" class="edge">
<title>Node313673&#45;&gt;Node313831</title>
<path fill="none" stroke="#191970" d="M213.1634,-689.4828C214.5065,-623.865 225.9331,-239.0774 310,-169 410.1566,-85.5104 583.0416,-142.7136 653.1392,-171.3625"/>
<polygon fill="#191970" stroke="#191970" points="652.1383,-174.7374 662.7147,-175.3621 654.8363,-168.2782 652.1383,-174.7374"/>
</g>
<!-- Node313832 -->
<g id="node23" class="node">
<title>Node313832</title>
<g id="a_node23"><a xlink:href="quickjs_8c.html#ac00298085baf11a4a7bd600cf5de2e6d" target="_top" xlink:title="js_parse_skip_parens\l_token">
<polygon fill="none" stroke="#ff0000" points="471,-317 471,-347 582,-347 582,-317 471,-317"/>
<text text-anchor="start" x="479" y="-335" font-family="Helvetica,sans-Serif" font-size="10.00" fill="#000000">js_parse_skip_parens</text>
<text text-anchor="middle" x="526.5" y="-324" font-family="Helvetica,sans-Serif" font-size="10.00" fill="#000000">_token</text>
</a>
</g>
</g>
<!-- Node313673&#45;&gt;Node313832 -->
<g id="edge31" class="edge">
<title>Node313673&#45;&gt;Node313832</title>
<path fill="none" stroke="#191970" d="M214.3451,-689.4188C221.5853,-639.2565 257.5518,-407.4573 310,-362 350.8733,-326.5748 413.3509,-321.2983 460.7024,-323.5797"/>
<polygon fill="#191970" stroke="#191970" points="460.6736,-327.0843 470.8668,-324.195 461.0966,-320.0971 460.6736,-327.0843"/>
</g>
<!-- Node313837 -->
<g id="node24" class="node">
<title>Node313837</title>
<g id="a_node24"><a xlink:href="quickjs_8c.html#aeca8ed71e1eef8ec809afab744958c28" target="_top" xlink:title="js_parse_expect">
<polygon fill="none" stroke="#000000" points="482.5,-202.5 482.5,-221.5 570.5,-221.5 570.5,-202.5 482.5,-202.5"/>
<text text-anchor="middle" x="526.5" y="-209.5" font-family="Helvetica,sans-Serif" font-size="10.00" fill="#000000">js_parse_expect</text>
</a>
</g>
</g>
<!-- Node313673&#45;&gt;Node313837 -->
<g id="edge34" class="edge">
<title>Node313673&#45;&gt;Node313837</title>
<path fill="none" stroke="#191970" d="M213.5383,-689.2438C217.112,-628.2663 239.4775,-300.0504 310,-236 353.3847,-196.5968 423.5845,-196.1057 472.2331,-201.8541"/>
<polygon fill="#191970" stroke="#191970" points="471.9009,-205.3404 482.2697,-203.1638 472.8066,-198.3992 471.9009,-205.3404"/>
</g>
<!-- Node313838 -->
<g id="node25" class="node">
<title>Node313838</title>
<g id="a_node25"><a xlink:href="quickjs_8c.html#a7d087e9b184f7e0369bab54aafb1c36d" target="_top" xlink:title="push_scope">
<polygon fill="none" stroke="#ff0000" points="338,-860.5 338,-879.5 407,-879.5 407,-860.5 338,-860.5"/>
<text text-anchor="middle" x="372.5" y="-867.5" font-family="Helvetica,sans-Serif" font-size="10.00" fill="#000000">push_scope</text>
</a>
</g>
</g>
<!-- Node313673&#45;&gt;Node313838 -->
<g id="edge36" class="edge">
<title>Node313673&#45;&gt;Node313838</title>
<path fill="none" stroke="#191970" d="M216.8789,-708.7366C227.6946,-734.7078 260.6691,-806.3459 310,-846 315.4171,-850.3545 321.7136,-853.9842 328.183,-856.9901"/>
<polygon fill="#191970" stroke="#191970" points="327.1262,-860.3414 337.703,-860.9595 329.8202,-853.8806 327.1262,-860.3414"/>
</g>
<!-- Node313839 -->
<g id="node26" class="node">
<title>Node313839</title>
<g id="a_node26"><a xlink:href="quickjs_8c.html#a26be546cf89c4580ba9020e8fc43a759" target="_top" xlink:title="js_parse_destructuring\l_element">
<polygon fill="none" stroke="#ff0000" points="315,-543 315,-573 430,-573 430,-543 315,-543"/>
<text text-anchor="start" x="323" y="-561" font-family="Helvetica,sans-Serif" font-size="10.00" fill="#000000">js_parse_destructuring</text>
<text text-anchor="middle" x="372.5" y="-550" font-family="Helvetica,sans-Serif" font-size="10.00" fill="#000000">_element</text>
</a>
</g>
</g>
<!-- Node313673&#45;&gt;Node313839 -->
<g id="edge40" class="edge">
<title>Node313673&#45;&gt;Node313839</title>
<path fill="none" stroke="#191970" d="M223.9631,-689.3085C249.2445,-666.9594 312.1623,-611.3393 347.464,-580.1322"/>
<polygon fill="#191970" stroke="#191970" points="350.214,-582.3726 355.3881,-573.1271 345.5778,-577.1281 350.214,-582.3726"/>
</g>
<!-- Node314185 -->
<g id="node27" class="node">
<title>Node314185</title>
<g id="a_node27"><a xlink:href="quickjs_8c.html#a4b2edcb56737c91ad1f7fd7561199dc9" target="_top" xlink:title="js_parse_assign_expr">
<polygon fill="none" stroke="#ff0000" points="471,-278.5 471,-297.5 582,-297.5 582,-278.5 471,-278.5"/>
<text text-anchor="middle" x="526.5" y="-285.5" font-family="Helvetica,sans-Serif" font-size="10.00" fill="#000000">js_parse_assign_expr</text>
</a>
</g>
</g>
<!-- Node313673&#45;&gt;Node314185 -->
<g id="edge62" class="edge">
<title>Node313673&#45;&gt;Node314185</title>
<path fill="none" stroke="#191970" d="M214.034,-689.3052C220.0058,-635.2056 251.8597,-371.1928 310,-319 350.2753,-282.8447 412.8208,-277.3412 460.35,-279.5647"/>
<polygon fill="#191970" stroke="#191970" points="460.3654,-283.0716 470.5551,-280.1699 460.7799,-276.0839 460.3654,-283.0716"/>
</g>
<!-- Node314186 -->
<g id="node28" class="node">
<title>Node314186</title>
<g id="a_node28"><a xlink:href="quickjs_8c.html#ab87db7e4e299e811a54acab5fe3620a7" target="_top" xlink:title="set_object_name">
<polygon fill="none" stroke="#ff0000" points="481,-480.5 481,-499.5 572,-499.5 572,-480.5 481,-480.5"/>
<text text-anchor="middle" x="526.5" y="-487.5" font-family="Helvetica,sans-Serif" font-size="10.00" fill="#000000">set_object_name</text>
</a>
</g>
</g>
<!-- Node313673&#45;&gt;Node314186 -->
<g id="edge63" class="edge">
<title>Node313673&#45;&gt;Node314186</title>
<path fill="none" stroke="#191970" d="M215.648,-689.2733C224.0417,-660.411 252.9328,-574.7339 310,-534 357.0176,-500.4394 423.6471,-491.1382 470.5389,-489.1679"/>
<polygon fill="#191970" stroke="#191970" points="470.9394,-492.657 480.8225,-488.8393 470.7158,-485.6605 470.9394,-492.657"/>
</g>
<!-- Node314217 -->
<g id="node29" class="node">
<title>Node314217</title>
<g id="a_node29"><a xlink:href="quickjs_8c.html#ace91f2169edfb39164b1ede1a4bdc7d6" target="_top" xlink:title="js_parse_function_check\l_names">
<polygon fill="none" stroke="#000000" points="310,-39 310,-69 435,-69 435,-39 310,-39"/>
<text text-anchor="start" x="318" y="-57" font-family="Helvetica,sans-Serif" font-size="10.00" fill="#000000">js_parse_function_check</text>
<text text-anchor="middle" x="372.5" y="-46" font-family="Helvetica,sans-Serif" font-size="10.00" fill="#000000">_names</text>
</a>
</g>
</g>
<!-- Node313673&#45;&gt;Node314217 -->
<g id="edge66" class="edge">
<title>Node313673&#45;&gt;Node314217</title>
<path fill="none" stroke="#191970" d="M213.3202,-689.3205C215.82,-618.9551 234.1669,-185.8824 310,-84 312.5467,-80.5785 315.586,-77.5294 318.9326,-74.8151"/>
<polygon fill="#191970" stroke="#191970" points="320.9904,-77.6474 327.2123,-69.0719 317.0006,-71.8957 320.9904,-77.6474"/>
</g>
<!-- Node314074 -->
<g id="node30" class="node">
<title>Node314074</title>
<g id="a_node30"><a xlink:href="quickjs_8c.html#a3ac482a1947e8b15aabcd775444929b3" target="_top" xlink:title="js_strndup">
<polygon fill="none" stroke="#000000" points="341.5,-.5 341.5,-19.5 403.5,-19.5 403.5,-.5 341.5,-.5"/>
<text text-anchor="middle" x="372.5" y="-7.5" font-family="Helvetica,sans-Serif" font-size="10.00" fill="#000000">js_strndup</text>
</a>
</g>
</g>
<!-- Node313673&#45;&gt;Node314074 -->
<g id="edge67" class="edge">
<title>Node313673&#45;&gt;Node314074</title>
<path fill="none" stroke="#191970" d="M213.7738,-689.3488C220.1284,-611.0784 264.6222,-81.8231 310,-29 315.6303,-22.4459 323.445,-18.11 331.6453,-15.2526"/>
<polygon fill="#191970" stroke="#191970" points="332.6578,-18.6038 341.3409,-12.5331 330.7673,-11.8639 332.6578,-18.6038"/>
</g>
<!-- Node313798&#45;&gt;Node313793 -->
<g id="edge14" class="edge">
<title>Node313798&#45;&gt;Node313793</title>
<path fill="none" stroke="#191970" d="M403.6642,-1029.6899C424.9842,-1034.9506 453.6753,-1042.0303 477.967,-1048.0243"/>
<polygon fill="#191970" stroke="#191970" points="477.179,-1051.4348 487.7263,-1050.4325 478.856,-1044.6386 477.179,-1051.4348"/>
</g>
<!-- Node313798&#45;&gt;Node313794 -->
<g id="edge15" class="edge">
<title>Node313798&#45;&gt;Node313794</title>
<path fill="none" stroke="#191970" d="M403.6642,-1022C423.1756,-1022 448.8605,-1022 471.6971,-1022"/>
<polygon fill="#191970" stroke="#191970" points="471.9569,-1025.5001 481.9568,-1022 471.9568,-1018.5001 471.9569,-1025.5001"/>
</g>
<!-- Node313798&#45;&gt;Node313796 -->
<g id="edge16" class="edge">
<title>Node313798&#45;&gt;Node313796</title>
<path fill="none" stroke="#191970" d="M403.6642,-1014.3101C428.9584,-1008.0687 464.6279,-999.2671 491.0168,-992.7556"/>
<polygon fill="#191970" stroke="#191970" points="492.1188,-996.0887 500.9891,-990.2949 490.4417,-989.2926 492.1188,-996.0887"/>
</g>
<!-- Node313798&#45;&gt;Node313806 -->
<g id="edge12" class="edge">
<title>Node313798&#45;&gt;Node313806</title>
<path fill="none" stroke="#191970" d="M383.4577,-1031.5039C396.213,-1042.7163 417.7338,-1062.1015 435,-1080 463.779,-1109.8329 494.8127,-1146.9491 512.3308,-1168.4121"/>
<polygon fill="#191970" stroke="#191970" points="509.7405,-1170.7745 518.7607,-1176.3321 515.175,-1166.3625 509.7405,-1170.7745"/>
</g>
<!-- Node313806&#45;&gt;Node313792 -->
<g id="edge13" class="edge">
<title>Node313806&#45;&gt;Node313792</title>
<path fill="none" stroke="#191970" d="M552.0388,-1178.9951C562.2504,-1175.2295 573.5642,-1169.731 582,-1162 697.8194,-1055.8569 695.6163,-998.3869 750,-851 793.5791,-732.8948 814.7747,-581.8207 821.2629,-528.6058"/>
<polygon fill="#191970" stroke="#191970" points="824.7564,-528.8663 822.4566,-518.5241 817.8049,-528.0432 824.7564,-528.8663"/>
</g>
<!-- Node313820&#45;&gt;Node313815 -->
<g id="edge20" class="edge">
<title>Node313820&#45;&gt;Node313815</title>
<path fill="none" stroke="#191970" d="M419.8045,-765.6285C425.3044,-768.0769 430.5345,-771.148 435,-775 463.301,-799.4129 439.4172,-831.0134 471,-851 527.5821,-886.8069 610.1616,-862.729 654.0216,-845.3742"/>
<polygon fill="#191970" stroke="#191970" points="655.354,-848.6108 663.2806,-841.5808 652.7001,-842.1333 655.354,-848.6108"/>
</g>
<!-- Node313820&#45;&gt;Node313821 -->
<g id="edge21" class="edge">
<title>Node313820&#45;&gt;Node313821</title>
<path fill="none" stroke="#191970" d="M412.5049,-765.5106C430.3019,-769.2757 451.5826,-773.1444 471,-775 520.1096,-779.6932 536.9633,-795.1364 582,-775 625.8331,-755.4018 658.6278,-706.6256 674.1128,-679.6596"/>
<polygon fill="#191970" stroke="#191970" points="677.2337,-681.2487 679.023,-670.806 671.1121,-677.8536 677.2337,-681.2487"/>
</g>
<!-- Node313820&#45;&gt;Node313823 -->
<g id="edge23" class="edge">
<title>Node313820&#45;&gt;Node313823</title>
<path fill="none" stroke="#191970" d="M425.0673,-756C445.7998,-756 469.1686,-756 488.246,-756"/>
<polygon fill="#191970" stroke="#191970" points="488.359,-759.5001 498.359,-756 488.359,-752.5001 488.359,-759.5001"/>
</g>
<!-- Node313820&#45;&gt;Node313825 -->
<g id="edge24" class="edge">
<title>Node313820&#45;&gt;Node313825</title>
<path fill="none" stroke="#191970" d="M411.3607,-746.411C434.4908,-740.7036 463.7637,-733.4804 487.0049,-727.7455"/>
<polygon fill="#191970" stroke="#191970" points="488.0167,-731.1009 496.887,-725.3071 486.3397,-724.3048 488.0167,-731.1009"/>
</g>
<!-- Node313820&#45;&gt;Node313830 -->
<g id="edge27" class="edge">
<title>Node313820&#45;&gt;Node313830</title>
<path fill="none" stroke="#191970" d="M413.2763,-765.5066C420.7523,-768.0458 428.3019,-771.1779 435,-775 453.8519,-785.7572 452.7858,-796.1951 471,-808 476.9188,-811.836 483.5536,-815.3117 490.121,-818.3518"/>
<polygon fill="#191970" stroke="#191970" points="489.038,-821.6978 499.6035,-822.4857 491.8354,-815.281 489.038,-821.6978"/>
</g>
<!-- Node313821&#45;&gt;Node313792 -->
<g id="edge22" class="edge">
<title>Node313821&#45;&gt;Node313792</title>
<path fill="none" stroke="#191970" d="M715.2456,-657.1906C727.1036,-654.4914 740.1177,-649.8796 750,-642 787.4958,-612.1031 808.8009,-557.6058 818.003,-528.5178"/>
<polygon fill="#191970" stroke="#191970" points="821.4219,-529.3021 820.9458,-518.718 814.7176,-527.2889 821.4219,-529.3021"/>
</g>
<!-- Node313825&#45;&gt;Node313815 -->
<g id="edge25" class="edge">
<title>Node313825&#45;&gt;Node313815</title>
<path fill="none" stroke="#191970" d="M556.0396,-725.5675C564.7394,-728.4584 574.0502,-732.2362 582,-737 617.3935,-758.2091 650.8886,-793.3094 669.3129,-814.3878"/>
<polygon fill="#191970" stroke="#191970" points="666.8695,-816.9152 676.0356,-822.2287 672.1837,-812.3588 666.8695,-816.9152"/>
</g>
<!-- Node313825&#45;&gt;Node313828 -->
<g id="edge26" class="edge">
<title>Node313825&#45;&gt;Node313828</title>
<path fill="none" stroke="#191970" d="M556.1655,-708.7287C565.061,-705.0494 574.4499,-700.1896 582,-694 603.738,-676.1791 595.168,-658.3958 618,-642 625.6815,-636.4838 634.9384,-632.5619 644.0571,-629.7759"/>
<polygon fill="#191970" stroke="#191970" points="645.0541,-633.1324 653.8166,-627.1769 643.2527,-626.3682 645.0541,-633.1324"/>
</g>
<!-- Node313830&#45;&gt;Node313815 -->
<g id="edge28" class="edge">
<title>Node313830&#45;&gt;Node313815</title>
<path fill="none" stroke="#191970" d="M557.2415,-832C583.2428,-832 620.5354,-832 647.9415,-832"/>
<polygon fill="#191970" stroke="#191970" points="648.2833,-835.5001 658.2833,-832 648.2832,-828.5001 648.2833,-835.5001"/>
</g>
<!-- Node313831&#45;&gt;Node313792 -->
<g id="edge30" class="edge">
<title>Node313831&#45;&gt;Node313792</title>
<path fill="none" stroke="#191970" d="M696.5945,-194.6726C711.4765,-206.7533 735.9812,-228.7989 750,-253 796.2673,-332.8729 815.0701,-443.8412 821.1078,-488.8429"/>
<polygon fill="#191970" stroke="#191970" points="817.6699,-489.5531 822.4041,-499.0314 824.6139,-488.6696 817.6699,-489.5531"/>
</g>
<!-- Node313832&#45;&gt;Node313674 -->
<g id="edge32" class="edge">
<title>Node313832&#45;&gt;Node313674</title>
<path fill="none" stroke="#191970" d="M582.0286,-346.4551C600.0931,-351.1576 619.9479,-356.3261 637.2996,-360.8431"/>
<polygon fill="#191970" stroke="#191970" points="636.6352,-364.2867 647.1944,-363.4189 638.3987,-357.5125 636.6352,-364.2867"/>
</g>
<!-- Node313832&#45;&gt;Node313684 -->
<g id="edge33" class="edge">
<title>Node313832&#45;&gt;Node313684</title>
<path fill="none" stroke="#191970" d="M566.2439,-316.8595C591.8739,-307.0956 624.8787,-294.5224 649.4223,-285.1725"/>
<polygon fill="#191970" stroke="#191970" points="650.9448,-288.3379 659.0437,-281.5072 648.4528,-281.7965 650.9448,-288.3379"/>
</g>
<!-- Node313837&#45;&gt;Node313684 -->
<g id="edge35" class="edge">
<title>Node313837&#45;&gt;Node313684</title>
<path fill="none" stroke="#191970" d="M551.4563,-221.5072C577.8747,-231.5713 619.7647,-247.5294 649.3708,-258.8079"/>
<polygon fill="#191970" stroke="#191970" points="648.3093,-262.1488 658.9001,-262.4382 650.8013,-255.6074 648.3093,-262.1488"/>
</g>
<!-- Node313838&#45;&gt;Node313815 -->
<g id="edge37" class="edge">
<title>Node313838&#45;&gt;Node313815</title>
<path fill="none" stroke="#191970" d="M407.1434,-878.5784C449.1306,-887.5504 521.7443,-898.4732 582,-884 611.365,-876.9466 641.8029,-859.9487 661.6962,-847.2951"/>
<polygon fill="#191970" stroke="#191970" points="663.8521,-850.0674 670.3083,-841.6669 660.0226,-844.2078 663.8521,-850.0674"/>
</g>
<!-- Node313838&#45;&gt;Node313823 -->
<g id="edge38" class="edge">
<title>Node313838&#45;&gt;Node313823</title>
<path fill="none" stroke="#191970" d="M385.3651,-860.4765C411.796,-840.9108 472.4501,-796.0109 504.9705,-771.9374"/>
<polygon fill="#191970" stroke="#191970" points="507.3901,-774.501 513.3451,-765.738 503.2252,-768.8748 507.3901,-774.501"/>
</g>
<!-- Node313839&#45;&gt;Node313684 -->
<g id="edge46" class="edge">
<title>Node313839&#45;&gt;Node313684</title>
<path fill="none" stroke="#191970" d="M384.0858,-542.7905C401.6822,-520.1284 436.7331,-476.6665 471,-444 516.3688,-400.7501 533.2515,-396.4014 582,-357 611.1769,-333.4175 644.481,-305.4655 664.8722,-288.231"/>
<polygon fill="#191970" stroke="#191970" points="667.3996,-290.6773 672.7711,-281.545 662.877,-285.3344 667.3996,-290.6773"/>
</g>
<!-- Node313839&#45;&gt;Node313792 -->
<g id="edge51" class="edge">
<title>Node313839&#45;&gt;Node313792</title>
<path fill="none" stroke="#191970" d="M430.0776,-551.7443C520.122,-541.9612 692.5782,-523.2243 775.991,-514.1617"/>
<polygon fill="#191970" stroke="#191970" points="776.3877,-517.6393 785.9511,-513.0796 775.6315,-510.6803 776.3877,-517.6393"/>
</g>
<!-- Node313839&#45;&gt;Node313686 -->
<g id="edge58" class="edge">
<title>Node313839&#45;&gt;Node313686</title>
<path fill="none" stroke="#191970" d="M384.2527,-542.8173C401.0165,-522.4385 433.9022,-486.9576 471,-471 523.8389,-448.2714 590.7367,-446.0944 635.3233,-447.9181"/>
<polygon fill="#191970" stroke="#191970" points="635.1594,-451.4142 645.3191,-448.4093 635.503,-444.4227 635.1594,-451.4142"/>
</g>
<!-- Node313839&#45;&gt;Node313815 -->
<g id="edge43" class="edge">
<title>Node313839&#45;&gt;Node313815</title>
<path fill="none" stroke="#191970" d="M395.4556,-573.1624C448.1583,-608.012 573.934,-691.418 582,-699 620.3332,-735.0329 655.3964,-786.5068 672.6889,-813.6396"/>
<polygon fill="#191970" stroke="#191970" points="669.9465,-815.8539 678.2289,-822.4608 675.8744,-812.1309 669.9465,-815.8539"/>
</g>
<!-- Node313839&#45;&gt;Node313821 -->
<g id="edge47" class="edge">
<title>Node313839&#45;&gt;Node313821</title>
<path fill="none" stroke="#191970" d="M418.5441,-573.0956C470.4662,-590.1696 551.6138,-617.0224 582,-628 598.146,-633.833 601.7347,-636.5086 618,-642 626.1199,-644.7414 634.8828,-647.4411 643.2877,-649.9065"/>
<polygon fill="#191970" stroke="#191970" points="642.3519,-653.2792 652.9298,-652.6815 644.2879,-646.5522 642.3519,-653.2792"/>
</g>
<!-- Node313839&#45;&gt;Node313823 -->
<g id="edge50" class="edge">
<title>Node313839&#45;&gt;Node313823</title>
<path fill="none" stroke="#191970" d="M376.7038,-573.1407C386.9701,-607.3632 416.5498,-691.2499 471,-737 476.2389,-741.4018 482.5507,-744.8018 489.0115,-747.4227"/>
<polygon fill="#191970" stroke="#191970" points="487.8814,-750.7353 498.4762,-750.731 490.1912,-744.1273 487.8814,-750.7353"/>
</g>
<!-- Node313839&#45;&gt;Node313825 -->
<g id="edge44" class="edge">
<title>Node313839&#45;&gt;Node313825</title>
<path fill="none" stroke="#191970" d="M386.9879,-573.0524C415.7184,-602.9023 479.7431,-669.4214 510.0239,-700.882"/>
<polygon fill="#191970" stroke="#191970" points="507.8276,-703.6473 517.2841,-708.425 512.8711,-698.793 507.8276,-703.6473"/>
</g>
<!-- Node313839&#45;&gt;Node313828 -->
<g id="edge42" class="edge">
<title>Node313839&#45;&gt;Node313828</title>
<path fill="none" stroke="#191970" d="M430.3336,-564.287C472.6732,-569.5048 531.3351,-578.0175 582,-590 604.5188,-595.3258 629.2228,-603.262 648.6781,-610.017"/>
<polygon fill="#191970" stroke="#191970" points="647.7393,-613.3971 658.3341,-613.4217 650.0671,-606.7955 647.7393,-613.3971"/>
</g>
<!-- Node313839&#45;&gt;Node313830 -->
<g id="edge45" class="edge">
<title>Node313839&#45;&gt;Node313830</title>
<path fill="none" stroke="#191970" d="M377.3278,-573.1331C389.4535,-609.8307 423.6405,-705.6389 471,-775 481.378,-790.1993 495.9889,-805.0188 507.6144,-815.736"/>
<polygon fill="#191970" stroke="#191970" points="505.318,-818.3779 515.0972,-822.4544 509.9946,-813.1692 505.318,-818.3779"/>
</g>
<!-- Node313839&#45;&gt;Node313832 -->
<g id="edge41" class="edge">
<title>Node313839&#45;&gt;Node313832</title>
<path fill="none" stroke="#191970" d="M381.1198,-542.7767C397.5383,-514.1129 434.8891,-450.4758 471,-400 482.0553,-384.5469 495.5076,-368.0154 506.3992,-355.122"/>
<polygon fill="#191970" stroke="#191970" points="509.3102,-357.1025 513.1359,-347.2225 503.9839,-352.5603 509.3102,-357.1025"/>
</g>
<!-- Node313839&#45;&gt;Node313837 -->
<g id="edge49" class="edge">
<title>Node313839&#45;&gt;Node313837</title>
<path fill="none" stroke="#191970" d="M375.1991,-542.8705C383.6611,-498.2075 412.6518,-364.1099 471,-269 480.5067,-253.5038 494.9094,-238.8741 506.6604,-228.3164"/>
<polygon fill="#191970" stroke="#191970" points="509.0257,-230.8979 514.2792,-221.6972 504.4348,-225.6136 509.0257,-230.8979"/>
</g>
<!-- Node313839&#45;&gt;Node313839 -->
<g id="edge48" class="edge">
<title>Node313839&#45;&gt;Node313839</title>
<path fill="none" stroke="#191970" d="M345.6623,-573.159C339.1908,-582.5566 348.1367,-591.5 372.5,-591.5 387.3464,-591.5 396.4677,-588.179 399.8639,-583.4579"/>
<polygon fill="#191970" stroke="#191970" points="403.3435,-582.9673 399.3377,-573.159 396.3527,-583.3246 403.3435,-582.9673"/>
</g>
<!-- Node313839&#45;&gt;Node314185 -->
<g id="edge52" class="edge">
<title>Node313839&#45;&gt;Node314185</title>
<path fill="none" stroke="#191970" d="M374.1287,-542.9902C379.5612,-500.1609 400.883,-376.082 471,-308 473.1011,-305.9599 475.4252,-304.126 477.8963,-302.4778"/>
<polygon fill="#191970" stroke="#191970" points="479.7107,-305.4737 486.7539,-297.5589 476.3122,-299.354 479.7107,-305.4737"/>
</g>
<!-- Node313839&#45;&gt;Node314186 -->
<g id="edge53" class="edge">
<title>Node313839&#45;&gt;Node314186</title>
<path fill="none" stroke="#191970" d="M406.1909,-542.8307C425.1969,-534.3033 449.396,-523.496 471,-514 478.7889,-510.5764 487.2087,-506.9151 495.0793,-503.5097"/>
<polygon fill="#191970" stroke="#191970" points="496.5349,-506.6936 504.328,-499.5159 493.7598,-500.2671 496.5349,-506.6936"/>
</g>
<!-- Node314186&#45;&gt;Node313792 -->
<g id="edge57" class="edge">
<title>Node314186&#45;&gt;Node313792</title>
<path fill="none" stroke="#191970" d="M572.2554,-492.9271C627.401,-496.4549 719.6239,-502.3547 775.6773,-505.9406"/>
<polygon fill="#191970" stroke="#191970" points="775.5027,-509.4365 785.7057,-506.5822 775.9496,-502.4508 775.5027,-509.4365"/>
</g>
<!-- Node314186&#45;&gt;Node313686 -->
<g id="edge56" class="edge">
<title>Node314186&#45;&gt;Node313686</title>
<path fill="none" stroke="#191970" d="M566.2439,-480.411C587.2648,-475.3393 613.2465,-469.0707 635.4522,-463.7131"/>
<polygon fill="#191970" stroke="#191970" points="636.4576,-467.0711 645.3577,-461.3232 634.8158,-460.2663 636.4576,-467.0711"/>
</g>
<!-- Node314186&#45;&gt;Node313815 -->
<g id="edge54" class="edge">
<title>Node314186&#45;&gt;Node313815</title>
<path fill="none" stroke="#191970" d="M530.8768,-499.504C552.2902,-546.0017 646.1611,-749.8355 675.3244,-813.1615"/>
<polygon fill="#191970" stroke="#191970" points="672.2075,-814.7608 679.5697,-822.3799 678.5657,-811.8327 672.2075,-814.7608"/>
</g>
<!-- Node314186&#45;&gt;Node313821 -->
<g id="edge55" class="edge">
<title>Node314186&#45;&gt;Node313821</title>
<path fill="none" stroke="#191970" d="M531.7786,-499.6719C549.2548,-531.56 604.8666,-631.92 618,-642 625.2848,-647.5912 634.1599,-651.5378 643.009,-654.3234"/>
<polygon fill="#191970" stroke="#191970" points="642.3357,-657.767 652.9028,-657.0009 644.1643,-651.0101 642.3357,-657.767"/>
</g>
</g>
</svg>
        <g id="navigator" transform="translate(0 0)" fill="#404254">
                <rect fill="#f2f5e9" fill-opacity="0.5" stroke="#606060" stroke-width=".5" x="0" y="0" width="60" height="60"/>
                <use id="zoomplus" xlink:href="#zoomPlus" x="17" y="9" onmousedown="handleZoom(evt,'in')"/>
                <use id="zoomminus" xlink:href="#zoomMin" x="42" y="9" onmousedown="handleZoom(evt,'out')"/>
                <use id="reset" xlink:href="#resetDef" x="30" y="36" onmousedown="handleReset()"/>
                <g id="arrowUp" xlink:href="#dirArrow" transform="translate(30 24)" onmousedown="handlePan(0,-1)">
                  <use xlink:href="#rim" fill="#404040">
                        <set attributeName="fill" to="#808080" begin="arrowUp.mouseover" end="arrowUp.mouseout"/>
                  </use>
                  <path fill="none" stroke="white" stroke-width="1.5" d="M0,-3.0v7 M-2.5,-0.5L0,-3.0L2.5,-0.5"/>
                </g>
                <g id="arrowRight" xlink:href="#dirArrow" transform="rotate(90) translate(36 -43)" onmousedown="handlePan(1,0)">
                  <use xlink:href="#rim" fill="#404040">
                        <set attributeName="fill" to="#808080" begin="arrowRight.mouseover" end="arrowRight.mouseout"/>
                  </use>
                  <path fill="none" stroke="white" stroke-width="1.5" d="M0,-3.0v7 M-2.5,-0.5L0,-3.0L2.5,-0.5"/>
                </g>
                <g id="arrowDown" xlink:href="#dirArrow" transform="rotate(180) translate(-30 -48)" onmousedown="handlePan(0,1)">
                  <use xlink:href="#rim" fill="#404040">
                        <set attributeName="fill" to="#808080" begin="arrowDown.mouseover" end="arrowDown.mouseout"/>
                  </use>
                  <path fill="none" stroke="white" stroke-width="1.5" d="M0,-3.0v7 M-2.5,-0.5L0,-3.0L2.5,-0.5"/>
                </g>
                <g id="arrowLeft" xlink:href="#dirArrow" transform="rotate(270) translate(-36 17)" onmousedown="handlePan(-1,0)">
                  <use xlink:href="#rim" fill="#404040">
                        <set attributeName="fill" to="#808080" begin="arrowLeft.mouseover" end="arrowLeft.mouseout"/>
                  </use>
                  <path fill="none" stroke="white" stroke-width="1.5" d="M0,-3.0v7 M-2.5,-0.5L0,-3.0L2.5,-0.5"/>
                </g>
        </g>
        <svg viewBox="0 0 15 15" width="100%" height="30px" preserveAspectRatio="xMaxYMin meet">
         <g id="arrow_out" transform="scale(0.3 0.3)">
          <a xlink:href="quickjs_8c_a3cad0b329e5f016dce8d42b4196c3499_cgraph_org.svg" target="_base">
           <rect id="button" ry="5" rx="5" y="6" x="6" height="38" width="38"
                fill="#f2f5e9" fill-opacity="0.5" stroke="#606060" stroke-width="1.0"/>
           <path id="arrow"
             d="M 11.500037,31.436501 C 11.940474,20.09759 22.043105,11.32322 32.158766,21.979434 L 37.068811,17.246167 C 37.068811,17.246167 37.088388,32 37.088388,32 L 22.160133,31.978069 C 22.160133,31.978069 26.997745,27.140456 26.997745,27.140456 C 18.528582,18.264221 13.291696,25.230495 11.500037,31.436501 z"
             style="fill:#404040;"/>
          </a>
         </g>
        </svg>
</svg>
