<?xml version="1.0" encoding="UTF-8" standalone="no"?>
<!DOCTYPE svg PUBLIC "-//W3C//DTD SVG 1.1//EN"
 "http://www.w3.org/Graphics/SVG/1.1/DTD/svg11.dtd">
<!-- Generated by graphviz version 2.40.1 (20161225.0304)
 -->
<!-- Title: js_parse_directives Pages: 1 -->
<svg width="1032pt" height="241pt"
 viewBox="0.00 0.00 1032.00 240.51" xmlns="http://www.w3.org/2000/svg" xmlns:xlink="http://www.w3.org/1999/xlink">
<g id="graph0" class="graph" transform="scale(1 1) rotate(0) translate(4 236.5124)">
<title>js_parse_directives</title>
<!-- Node356876 -->
<g id="node1" class="node">
<title>Node356876</title>
<polygon fill="#bfbfbf" stroke="#000000" points="0,-166.0124 0,-185.0124 101,-185.0124 101,-166.0124 0,-166.0124"/>
<text text-anchor="middle" x="50.5" y="-173.0124" font-family="Helvetica,sans-Serif" font-size="10.00" fill="#000000">js_parse_directives</text>
</g>
<!-- Node356877 -->
<g id="node2" class="node">
<title>Node356877</title>
<g id="a_node2"><a xlink:href="quickjs_8c.html#acc9eb677cab8dfcf45f59381f8a19601" target="_top" xlink:title="js_parse_function_decl2">
<polygon fill="none" stroke="#000000" points="137,-128.0124 137,-147.0124 259,-147.0124 259,-128.0124 137,-128.0124"/>
<text text-anchor="middle" x="198" y="-135.0124" font-family="Helvetica,sans-Serif" font-size="10.00" fill="#000000">js_parse_function_decl2</text>
</a>
</g>
</g>
<!-- Node356876&#45;&gt;Node356877 -->
<g id="edge1" class="edge">
<title>Node356876&#45;&gt;Node356877</title>
<path fill="none" stroke="#191970" d="M97.5141,-163.4002C118.0566,-158.108 141.7998,-151.9911 161.0472,-147.0324"/>
<polygon fill="#191970" stroke="#191970" points="96.5311,-160.0391 87.7205,-165.9234 98.2775,-166.8178 96.5311,-160.0391"/>
</g>
<!-- Node356881 -->
<g id="node6" class="node">
<title>Node356881</title>
<g id="a_node6"><a xlink:href="quickjs_8c.html#aec05caae64451720670d1a56040110b3" target="_top" xlink:title="js_parse_program">
<polygon fill="none" stroke="#ff0000" points="930,-173.0124 930,-192.0124 1024,-192.0124 1024,-173.0124 930,-173.0124"/>
<text text-anchor="middle" x="977" y="-180.0124" font-family="Helvetica,sans-Serif" font-size="10.00" fill="#000000">js_parse_program</text>
</a>
</g>
</g>
<!-- Node356876&#45;&gt;Node356881 -->
<g id="edge21" class="edge">
<title>Node356876&#45;&gt;Node356881</title>
<path fill="none" stroke="#191970" d="M91.5133,-187.8421C150.9861,-204.6021 264.9027,-232.5124 364,-232.5124 364,-232.5124 364,-232.5124 674,-232.5124 772.3672,-232.5124 886.3295,-206.5417 942.3147,-192.0347"/>
<polygon fill="#191970" stroke="#191970" points="92.3284,-184.435 81.7516,-185.0529 90.4052,-191.1657 92.3284,-184.435"/>
</g>
<!-- Node356878 -->
<g id="node3" class="node">
<title>Node356878</title>
<g id="a_node3"><a xlink:href="quickjs_8c.html#a00eb789430243c24dab4a63ad6a79653" target="_top" xlink:title="js_parse_class">
<polygon fill="none" stroke="#000000" points="484.5,-147.0124 484.5,-166.0124 566.5,-166.0124 566.5,-147.0124 484.5,-147.0124"/>
<text text-anchor="middle" x="525.5" y="-154.0124" font-family="Helvetica,sans-Serif" font-size="10.00" fill="#000000">js_parse_class</text>
</a>
</g>
</g>
<!-- Node356877&#45;&gt;Node356878 -->
<g id="edge2" class="edge">
<title>Node356877&#45;&gt;Node356878</title>
<path fill="none" stroke="#191970" d="M269.5031,-141.6606C335.2418,-145.4745 430.4199,-150.9963 484.2804,-154.121"/>
<polygon fill="#191970" stroke="#191970" points="269.402,-138.149 259.2161,-141.0638 268.9965,-145.1372 269.402,-138.149"/>
</g>
<!-- Node356879 -->
<g id="node4" class="node">
<title>Node356879</title>
<g id="a_node4"><a xlink:href="quickjs_8c.html#a498e1d5c7de1b59c1630e9847cde1e41" target="_top" xlink:title="js_parse_export">
<polygon fill="none" stroke="#000000" points="631,-178.0124 631,-197.0124 717,-197.0124 717,-178.0124 631,-178.0124"/>
<text text-anchor="middle" x="674" y="-185.0124" font-family="Helvetica,sans-Serif" font-size="10.00" fill="#000000">js_parse_export</text>
</a>
</g>
</g>
<!-- Node356877&#45;&gt;Node356879 -->
<g id="edge14" class="edge">
<title>Node356877&#45;&gt;Node356879</title>
<path fill="none" stroke="#191970" d="M240.9818,-149.7381C257.7169,-154.0782 277.1337,-158.6031 295,-161.5124 415.5901,-181.1488 560.1155,-185.9808 630.7892,-187.1519"/>
<polygon fill="#191970" stroke="#191970" points="241.5094,-146.2571 230.9462,-147.0758 239.7144,-153.0231 241.5094,-146.2571"/>
</g>
<!-- Node356911 -->
<g id="node9" class="node">
<title>Node356911</title>
<g id="a_node9"><a xlink:href="quickjs_8c.html#adf95ddf430ef93fd9efea1cc2f8a2fbe" target="_top" xlink:title="js_parse_class_default_ctor">
<polygon fill="none" stroke="#000000" points="295,-109.0124 295,-128.0124 433,-128.0124 433,-109.0124 295,-109.0124"/>
<text text-anchor="middle" x="364" y="-116.0124" font-family="Helvetica,sans-Serif" font-size="10.00" fill="#000000">js_parse_class_default_ctor</text>
</a>
</g>
</g>
<!-- Node356877&#45;&gt;Node356911 -->
<g id="edge12" class="edge">
<title>Node356877&#45;&gt;Node356911</title>
<path fill="none" stroke="#191970" d="M269.4791,-129.331C277.8754,-128.37 286.4321,-127.3906 294.7965,-126.4332"/>
<polygon fill="#191970" stroke="#191970" points="268.8777,-125.8769 259.3406,-130.4914 269.6738,-132.8315 268.8777,-125.8769"/>
</g>
<!-- Node356912 -->
<g id="node10" class="node">
<title>Node356912</title>
<g id="a_node10"><a xlink:href="quickjs_8c.html#a3cad0b329e5f016dce8d42b4196c3499" target="_top" xlink:title="js_parse_function_decl">
<polygon fill="none" stroke="#000000" points="306,-71.0124 306,-90.0124 422,-90.0124 422,-71.0124 306,-71.0124"/>
<text text-anchor="middle" x="364" y="-78.0124" font-family="Helvetica,sans-Serif" font-size="10.00" fill="#000000">js_parse_function_decl</text>
</a>
</g>
</g>
<!-- Node356877&#45;&gt;Node356912 -->
<g id="edge15" class="edge">
<title>Node356877&#45;&gt;Node356912</title>
<path fill="none" stroke="#191970" d="M229.7669,-124.0966C248.5601,-116.4046 272.9316,-106.8511 295,-99.5124 305.1396,-96.1405 316.2536,-92.8899 326.543,-90.0596"/>
<polygon fill="#191970" stroke="#191970" points="228.3965,-120.8757 220.4895,-127.9277 231.0683,-127.3458 228.3965,-120.8757"/>
</g>
<!-- Node356878&#45;&gt;Node356879 -->
<g id="edge3" class="edge">
<title>Node356878&#45;&gt;Node356879</title>
<path fill="none" stroke="#191970" d="M576.9505,-167.2529C594.506,-170.9177 613.9447,-174.9756 630.7858,-178.4912"/>
<polygon fill="#191970" stroke="#191970" points="577.3698,-163.765 566.8655,-165.1476 575.9393,-170.6173 577.3698,-163.765"/>
</g>
<!-- Node356888 -->
<g id="node7" class="node">
<title>Node356888</title>
<g id="a_node7"><a xlink:href="quickjs_8c.html#a840642c87c5a82d4cc68333376a3b6de" target="_top" xlink:title="js_parse_postfix_expr">
<polygon fill="none" stroke="#ff0000" points="618,-54.0124 618,-73.0124 730,-73.0124 730,-54.0124 618,-54.0124"/>
<text text-anchor="middle" x="674" y="-61.0124" font-family="Helvetica,sans-Serif" font-size="10.00" fill="#000000">js_parse_postfix_expr</text>
</a>
</g>
</g>
<!-- Node356878&#45;&gt;Node356888 -->
<g id="edge7" class="edge">
<title>Node356878&#45;&gt;Node356888</title>
<path fill="none" stroke="#191970" d="M549.6327,-141.399C580.3838,-122.1407 632.645,-89.4115 658.5281,-73.2018"/>
<polygon fill="#191970" stroke="#191970" points="547.4503,-138.636 540.8328,-146.91 551.1657,-144.5686 547.4503,-138.636"/>
</g>
<!-- Node356892 -->
<g id="node8" class="node">
<title>Node356892</title>
<g id="a_node8"><a xlink:href="quickjs_8c.html#a9d844c16dcc71701436848074337d32c" target="_top" xlink:title="js_parse_statement\l_or_decl">
<polygon fill="none" stroke="#ff0000" points="623,-110.5124 623,-140.5124 725,-140.5124 725,-110.5124 623,-110.5124"/>
<text text-anchor="start" x="631" y="-128.5124" font-family="Helvetica,sans-Serif" font-size="10.00" fill="#000000">js_parse_statement</text>
<text text-anchor="middle" x="674" y="-117.5124" font-family="Helvetica,sans-Serif" font-size="10.00" fill="#000000">_or_decl</text>
</a>
</g>
</g>
<!-- Node356878&#45;&gt;Node356892 -->
<g id="edge9" class="edge">
<title>Node356878&#45;&gt;Node356892</title>
<path fill="none" stroke="#191970" d="M576.8996,-145.7825C591.7534,-142.6817 607.9589,-139.2987 622.8005,-136.2005"/>
<polygon fill="#191970" stroke="#191970" points="575.9393,-142.4074 566.8655,-147.8771 577.3698,-149.2597 575.9393,-142.4074"/>
</g>
<!-- Node356880 -->
<g id="node5" class="node">
<title>Node356880</title>
<g id="a_node5"><a xlink:href="quickjs_8c.html#ab59a3267a100decc9d2d81eb3297794a" target="_top" xlink:title="js_parse_source_element">
<polygon fill="none" stroke="#000000" points="766,-116.0124 766,-135.0124 894,-135.0124 894,-116.0124 766,-116.0124"/>
<text text-anchor="middle" x="830" y="-123.0124" font-family="Helvetica,sans-Serif" font-size="10.00" fill="#000000">js_parse_source_element</text>
</a>
</g>
</g>
<!-- Node356879&#45;&gt;Node356880 -->
<g id="edge4" class="edge">
<title>Node356879&#45;&gt;Node356880</title>
<path fill="none" stroke="#191970" d="M711.3539,-174.492C717.6014,-172.2227 724.0002,-169.8417 730,-167.5124 757.2082,-156.9491 788.1282,-143.7804 808.291,-135.0337"/>
<polygon fill="#191970" stroke="#191970" points="709.9696,-171.2701 701.7399,-177.9426 712.3344,-177.8586 709.9696,-171.2701"/>
</g>
<!-- Node356880&#45;&gt;Node356877 -->
<g id="edge5" class="edge">
<title>Node356880&#45;&gt;Node356877</title>
<path fill="none" stroke="#191970" d="M821.0964,-106.7053C806.5621,-78.4784 774.7993,-26.1641 730,-4.5124 728.4369,-3.7569 495.2994,2.8947 469,-1.5124 388.323,-15.0316 366.8533,-22.4143 295,-61.5124 260.0473,-80.5314 224.6796,-112.0333 207.9513,-127.8388"/>
<polygon fill="#191970" stroke="#191970" points="818.0848,-108.5103 825.6639,-115.9135 824.3557,-105.3997 818.0848,-108.5103"/>
</g>
<!-- Node356880&#45;&gt;Node356881 -->
<g id="edge6" class="edge">
<title>Node356880&#45;&gt;Node356881</title>
<path fill="none" stroke="#191970" d="M864.0497,-138.7153C891.0411,-149.1813 928.1193,-163.5586 952.3152,-172.9407"/>
<polygon fill="#191970" stroke="#191970" points="865.1935,-135.405 854.6045,-135.0529 862.6627,-141.9315 865.1935,-135.405"/>
</g>
<!-- Node356888&#45;&gt;Node356888 -->
<g id="edge8" class="edge">
<title>Node356888&#45;&gt;Node356888</title>
<path fill="none" stroke="#191970" d="M646.3742,-82.1663C647.5289,-87.4492 656.7375,-91.5124 674,-91.5124 700.3047,-91.5124 707.9084,-82.0776 696.8111,-73.2694"/>
<polygon fill="#191970" stroke="#191970" points="649.5076,-83.73 651.1889,-73.2694 643.3512,-80.3984 649.5076,-83.73"/>
</g>
<!-- Node356892&#45;&gt;Node356880 -->
<g id="edge10" class="edge">
<title>Node356892&#45;&gt;Node356880</title>
<path fill="none" stroke="#191970" d="M735.3823,-125.5124C745.4308,-125.5124 755.8651,-125.5124 765.9756,-125.5124"/>
<polygon fill="#191970" stroke="#191970" points="735.0803,-122.0125 725.0802,-125.5124 735.0802,-129.0125 735.0803,-122.0125"/>
</g>
<!-- Node356892&#45;&gt;Node356892 -->
<g id="edge11" class="edge">
<title>Node356892&#45;&gt;Node356892</title>
<path fill="none" stroke="#191970" d="M647.7022,-150.9703C650.9661,-155.6913 659.7321,-159.0124 674,-159.0124 697.4141,-159.0124 706.0114,-150.0689 699.7921,-140.6714"/>
<polygon fill="#191970" stroke="#191970" points="651.2132,-150.831 648.2079,-140.6714 644.2216,-150.4876 651.2132,-150.831"/>
</g>
<!-- Node356911&#45;&gt;Node356878 -->
<g id="edge13" class="edge">
<title>Node356911&#45;&gt;Node356878</title>
<path fill="none" stroke="#191970" d="M414.5583,-130.4084C437.2588,-135.7497 463.6781,-141.966 485.0398,-146.9923"/>
<polygon fill="#191970" stroke="#191970" points="415.2891,-126.9849 404.7533,-128.1014 413.6858,-133.7988 415.2891,-126.9849"/>
</g>
<!-- Node356912&#45;&gt;Node356880 -->
<g id="edge19" class="edge">
<title>Node356912&#45;&gt;Node356880</title>
<path fill="none" stroke="#191970" d="M384.8813,-65.0738C405.1795,-51.099 437.4776,-31.5168 469,-23.5124 581.7952,5.1294 623.311,1.9696 730,-44.5124 769.1214,-61.5567 805.5319,-98.2568 821.4996,-115.7948"/>
<polygon fill="#191970" stroke="#191970" points="382.8477,-62.2251 376.6998,-70.8537 386.8867,-67.9423 382.8477,-62.2251"/>
</g>
<!-- Node356912&#45;&gt;Node356888 -->
<g id="edge18" class="edge">
<title>Node356912&#45;&gt;Node356888</title>
<path fill="none" stroke="#191970" d="M432.4366,-76.7594C488.1034,-73.7067 565.6975,-69.4515 617.7813,-66.5953"/>
<polygon fill="#191970" stroke="#191970" points="432.1019,-73.2724 422.3086,-77.3148 432.4853,-80.2619 432.1019,-73.2724"/>
</g>
<!-- Node356912&#45;&gt;Node356892 -->
<g id="edge20" class="edge">
<title>Node356912&#45;&gt;Node356892</title>
<path fill="none" stroke="#191970" d="M432.4046,-90.4421C489.9242,-98.7917 570.8716,-110.5421 622.8899,-118.0932"/>
<polygon fill="#191970" stroke="#191970" points="432.7077,-86.9495 422.3086,-88.9765 431.7021,-93.8769 432.7077,-86.9495"/>
</g>
<!-- Node356904 -->
<g id="node11" class="node">
<title>Node356904</title>
<g id="a_node11"><a xlink:href="quickjs_8c.html#aee6d0acd87f136d43f157ae1426436e6" target="_top" xlink:title="js_parse_object_literal">
<polygon fill="none" stroke="#000000" points="469,-33.0124 469,-52.0124 582,-52.0124 582,-33.0124 469,-33.0124"/>
<text text-anchor="middle" x="525.5" y="-40.0124" font-family="Helvetica,sans-Serif" font-size="10.00" fill="#000000">js_parse_object_literal</text>
</a>
</g>
</g>
<!-- Node356912&#45;&gt;Node356904 -->
<g id="edge16" class="edge">
<title>Node356912&#45;&gt;Node356904</title>
<path fill="none" stroke="#191970" d="M414.5583,-68.6163C437.2588,-63.275 463.6781,-57.0587 485.0398,-52.0324"/>
<polygon fill="#191970" stroke="#191970" points="413.6858,-65.2259 404.7533,-70.9234 415.2891,-72.0398 413.6858,-65.2259"/>
</g>
<!-- Node356904&#45;&gt;Node356888 -->
<g id="edge17" class="edge">
<title>Node356904&#45;&gt;Node356888</title>
<path fill="none" stroke="#191970" d="M592.0041,-51.917C600.5482,-53.1252 609.2306,-54.3531 617.5922,-55.5355"/>
<polygon fill="#191970" stroke="#191970" points="592.4567,-48.4462 582.0651,-50.5115 591.4765,-55.3773 592.4567,-48.4462"/>
</g>
</g>
</svg>
