<?xml version="1.0" encoding="UTF-8" standalone="no"?>
<!DOCTYPE svg PUBLIC "-//W3C//DTD SVG 1.1//EN"
 "http://www.w3.org/Graphics/SVG/1.1/DTD/svg11.dtd">
<!-- Generated by graphviz version 2.40.1 (20161225.0304)
 -->
<!-- Title: js_aggregate_error_constructor Pages: 1 -->
<svg width="1056pt" height="1138pt"
 viewBox="0.00 0.00 1056.00 1137.55" xmlns="http://www.w3.org/2000/svg" xmlns:xlink="http://www.w3.org/1999/xlink">
<g id="graph0" class="graph" transform="scale(1 1) rotate(0) translate(4 1133.5483)">
<title>js_aggregate_error_constructor</title>
<!-- Node394936 -->
<g id="node1" class="node">
<title>Node394936</title>
<polygon fill="#bfbfbf" stroke="#000000" points="0,-299 0,-329 97,-329 97,-299 0,-299"/>
<text text-anchor="start" x="8" y="-317" font-family="Helvetica,sans-Serif" font-size="10.00" fill="#000000">js_aggregate_error</text>
<text text-anchor="middle" x="48.5" y="-306" font-family="Helvetica,sans-Serif" font-size="10.00" fill="#000000">_constructor</text>
</g>
<!-- Node394937 -->
<g id="node2" class="node">
<title>Node394937</title>
<g id="a_node2"><a xlink:href="quickjs_8c.html#a0a8765bd4012467d9139bc24aabcb3ca" target="_top" xlink:title="JS_DefinePropertyValue">
<polygon fill="none" stroke="#000000" points="136.5,-551.5 136.5,-570.5 260.5,-570.5 260.5,-551.5 136.5,-551.5"/>
<text text-anchor="middle" x="198.5" y="-558.5" font-family="Helvetica,sans-Serif" font-size="10.00" fill="#000000">JS_DefinePropertyValue</text>
</a>
</g>
</g>
<!-- Node394936&#45;&gt;Node394937 -->
<g id="edge1" class="edge">
<title>Node394936&#45;&gt;Node394937</title>
<path fill="none" stroke="#191970" d="M57.6574,-329.0791C83.7863,-372.1047 158.6483,-495.3775 187.2265,-542.4363"/>
<polygon fill="#191970" stroke="#191970" points="184.4058,-544.5344 192.5881,-551.265 190.3889,-540.9009 184.4058,-544.5344"/>
</g>
<!-- Node395002 -->
<g id="node16" class="node">
<title>Node395002</title>
<g id="a_node16"><a xlink:href="quickjs_8h.html#ad80a83d73e9b7d872b88fbf2943aebe9" target="_top" xlink:title="JS_IsException">
<polygon fill="none" stroke="#000000" points="659.5,-722.5 659.5,-741.5 745.5,-741.5 745.5,-722.5 659.5,-722.5"/>
<text text-anchor="middle" x="702.5" y="-729.5" font-family="Helvetica,sans-Serif" font-size="10.00" fill="#000000">JS_IsException</text>
</a>
</g>
</g>
<!-- Node394936&#45;&gt;Node395002 -->
<g id="edge57" class="edge">
<title>Node394936&#45;&gt;Node395002</title>
<path fill="none" stroke="#191970" d="M50.7325,-329.1557C57.491,-371.5067 80.5677,-493.6431 133,-580 231.6769,-742.5226 259.3998,-810.0939 435,-883 505.6013,-912.3124 540.0397,-919.8792 607,-883 658.4849,-854.644 686.0758,-785.5333 696.9369,-751.5377"/>
<polygon fill="#191970" stroke="#191970" points="700.328,-752.4158 699.8844,-741.8303 693.6299,-750.382 700.328,-752.4158"/>
</g>
<!-- Node394965 -->
<g id="node20" class="node">
<title>Node394965</title>
<g id="a_node20"><a xlink:href="quickjs_8h.html#a775522f2d084fc8fa0fcb33f390006b4" target="_top" xlink:title="JS_DupValue">
<polygon fill="none" stroke="#000000" points="664,-95.5 664,-114.5 741,-114.5 741,-95.5 664,-95.5"/>
<text text-anchor="middle" x="702.5" y="-102.5" font-family="Helvetica,sans-Serif" font-size="10.00" fill="#000000">JS_DupValue</text>
</a>
</g>
</g>
<!-- Node394936&#45;&gt;Node394965 -->
<g id="edge56" class="edge">
<title>Node394936&#45;&gt;Node394965</title>
<path fill="none" stroke="#191970" d="M64.4672,-298.8152C114.2394,-252.6691 272.9567,-114.3562 435,-67 508.3753,-45.5565 531.9219,-52.6116 607,-67 631.0274,-71.6047 656.7099,-82.1764 675.3833,-91.003"/>
<polygon fill="#191970" stroke="#191970" points="673.9398,-94.1929 684.4635,-95.4188 677.0012,-87.8978 673.9398,-94.1929"/>
</g>
<!-- Node395161 -->
<g id="node30" class="node">
<title>Node395161</title>
<g id="a_node30"><a xlink:href="quickjs_8c.html#a73738c650f11459db0d7af3dcdf8316b" target="_top" xlink:title="JS_NewObjectProtoClass">
<polygon fill="none" stroke="#ff0000" points="133,-.5 133,-19.5 264,-19.5 264,-.5 133,-.5"/>
<text text-anchor="middle" x="198.5" y="-7.5" font-family="Helvetica,sans-Serif" font-size="10.00" fill="#000000">JS_NewObjectProtoClass</text>
</a>
</g>
</g>
<!-- Node394936&#45;&gt;Node395161 -->
<g id="edge58" class="edge">
<title>Node394936&#45;&gt;Node395161</title>
<path fill="none" stroke="#191970" d="M51.2203,-298.9142C60.9241,-246.5973 95.2793,-73.9795 133,-34 136.6465,-30.1351 140.9671,-26.89 145.6235,-24.1658"/>
<polygon fill="#191970" stroke="#191970" points="147.513,-27.1349 154.9032,-19.5431 144.3917,-20.8693 147.513,-27.1349"/>
</g>
<!-- Node394938 -->
<g id="node3" class="node">
<title>Node394938</title>
<g id="a_node3"><a xlink:href="quickjs_8c.html#ab50618f1bf78e444caa6da0e3e2785d7" target="_top" xlink:title="JS_DefineProperty">
<polygon fill="none" stroke="#ff0000" points="300,-551.5 300,-570.5 399,-570.5 399,-551.5 300,-551.5"/>
<text text-anchor="middle" x="349.5" y="-558.5" font-family="Helvetica,sans-Serif" font-size="10.00" fill="#000000">JS_DefineProperty</text>
</a>
</g>
</g>
<!-- Node394937&#45;&gt;Node394938 -->
<g id="edge2" class="edge">
<title>Node394937&#45;&gt;Node394938</title>
<path fill="none" stroke="#191970" d="M260.7893,-561C270.3349,-561 280.1714,-561 289.6624,-561"/>
<polygon fill="#191970" stroke="#191970" points="289.7955,-564.5001 299.7955,-561 289.7955,-557.5001 289.7955,-564.5001"/>
</g>
<!-- Node394966 -->
<g id="node15" class="node">
<title>Node394966</title>
<g id="a_node15"><a xlink:href="quickjs_8h.html#afaa20c47565bc704c6c85f3d77254e7d" target="_top" xlink:title="JS_FreeValue">
<polygon fill="none" stroke="#ff0000" points="663.5,-968.5 663.5,-987.5 741.5,-987.5 741.5,-968.5 663.5,-968.5"/>
<text text-anchor="middle" x="702.5" y="-975.5" font-family="Helvetica,sans-Serif" font-size="10.00" fill="#000000">JS_FreeValue</text>
</a>
</g>
</g>
<!-- Node394937&#45;&gt;Node394966 -->
<g id="edge55" class="edge">
<title>Node394937&#45;&gt;Node394966</title>
<path fill="none" stroke="#191970" d="M199.0778,-570.5242C203.3602,-631.6851 235.8276,-970.7934 435,-1101 498.9848,-1142.8293 538.343,-1134.615 607,-1101 651.3317,-1079.2949 681.0049,-1025.986 694.3792,-997.193"/>
<polygon fill="#191970" stroke="#191970" points="697.6923,-998.357 698.5661,-987.7982 691.2985,-995.5075 697.6923,-998.357"/>
</g>
<!-- Node394939 -->
<g id="node4" class="node">
<title>Node394939</title>
<g id="a_node4"><a xlink:href="quickjs_8c.html#a014abd680db53ab89cb133345742a59c" target="_top" xlink:title="__attribute__">
<polygon fill="none" stroke="#ff0000" points="666,-892.5 666,-911.5 739,-911.5 739,-892.5 666,-892.5"/>
<text text-anchor="middle" x="702.5" y="-899.5" font-family="Helvetica,sans-Serif" font-size="10.00" fill="#000000">__attribute__</text>
</a>
</g>
</g>
<!-- Node394938&#45;&gt;Node394939 -->
<g id="edge3" class="edge">
<title>Node394938&#45;&gt;Node394939</title>
<path fill="none" stroke="#191970" d="M351.3665,-570.6198C361.4126,-621.9395 409.54,-861.9405 435,-883 496.9336,-934.2289 596.9835,-925.0053 655.5774,-913.5654"/>
<polygon fill="#191970" stroke="#191970" points="656.5746,-916.9337 665.666,-911.4934 655.1663,-910.0769 656.5746,-916.9337"/>
</g>
<!-- Node395007 -->
<g id="node5" class="node">
<title>Node395007</title>
<g id="a_node5"><a xlink:href="quickjs_8c.html#a288254c06a39c9fca740a7abdad2834e" target="_top" xlink:title="__JS_AtomIsTaggedInt">
<polygon fill="none" stroke="#000000" points="643,-570.5 643,-589.5 762,-589.5 762,-570.5 643,-570.5"/>
<text text-anchor="middle" x="702.5" y="-577.5" font-family="Helvetica,sans-Serif" font-size="10.00" fill="#000000">__JS_AtomIsTaggedInt</text>
</a>
</g>
</g>
<!-- Node394938&#45;&gt;Node395007 -->
<g id="edge4" class="edge">
<title>Node394938&#45;&gt;Node395007</title>
<path fill="none" stroke="#191970" d="M399.3276,-563.6819C460.2466,-566.9609 563.7176,-572.5301 632.5824,-576.2367"/>
<polygon fill="#191970" stroke="#191970" points="632.7301,-579.7497 642.9038,-576.7923 633.1064,-572.7598 632.7301,-579.7497"/>
</g>
<!-- Node395008 -->
<g id="node6" class="node">
<title>Node395008</title>
<g id="a_node6"><a xlink:href="quickjs_8c.html#a89f38938cee8077ce1fbba07946ed185" target="_top" xlink:title="__JS_AtomToUInt32">
<polygon fill="none" stroke="#000000" points="648.5,-608.5 648.5,-627.5 756.5,-627.5 756.5,-608.5 648.5,-608.5"/>
<text text-anchor="middle" x="702.5" y="-615.5" font-family="Helvetica,sans-Serif" font-size="10.00" fill="#000000">__JS_AtomToUInt32</text>
</a>
</g>
</g>
<!-- Node394938&#45;&gt;Node395008 -->
<g id="edge5" class="edge">
<title>Node394938&#45;&gt;Node395008</title>
<path fill="none" stroke="#191970" d="M380.9298,-570.5566C396.9847,-575.1563 416.9024,-580.433 435,-584 503.8242,-597.5652 583.726,-606.8989 638.158,-612.3071"/>
<polygon fill="#191970" stroke="#191970" points="638.062,-615.8144 648.3551,-613.304 638.7431,-608.8476 638.062,-615.8144"/>
</g>
<!-- Node395364 -->
<g id="node7" class="node">
<title>Node395364</title>
<g id="a_node7"><a xlink:href="quickjs_8c.html#a68c7ae36cec3bf8bbf6cc0868a71cc4b" target="_top" xlink:title="check_define_prop_flags">
<polygon fill="none" stroke="#000000" points="458.5,-266.5 458.5,-285.5 583.5,-285.5 583.5,-266.5 458.5,-266.5"/>
<text text-anchor="middle" x="521" y="-273.5" font-family="Helvetica,sans-Serif" font-size="10.00" fill="#000000">check_define_prop_flags</text>
</a>
</g>
</g>
<!-- Node394938&#45;&gt;Node395364 -->
<g id="edge6" class="edge">
<title>Node394938&#45;&gt;Node395364</title>
<path fill="none" stroke="#191970" d="M351.4224,-551.2292C360.0542,-508.2888 396.4947,-336.8317 435,-300 439.1306,-296.0489 443.8556,-292.7382 448.918,-289.9652"/>
<polygon fill="#191970" stroke="#191970" points="450.7809,-292.9568 458.3394,-285.5325 447.8008,-286.6228 450.7809,-292.9568"/>
</g>
<!-- Node395228 -->
<g id="node8" class="node">
<title>Node395228</title>
<g id="a_node8"><a xlink:href="quickjs_8c.html#ac93c982cb636a5430b191d104083af3e" target="_top" xlink:title="convert_fast_array\l_to_array">
<polygon fill="none" stroke="#ff0000" points="653.5,-483 653.5,-513 751.5,-513 751.5,-483 653.5,-483"/>
<text text-anchor="start" x="661.5" y="-501" font-family="Helvetica,sans-Serif" font-size="10.00" fill="#000000">convert_fast_array</text>
<text text-anchor="middle" x="702.5" y="-490" font-family="Helvetica,sans-Serif" font-size="10.00" fill="#000000">_to_array</text>
</a>
</g>
</g>
<!-- Node394938&#45;&gt;Node395228 -->
<g id="edge7" class="edge">
<title>Node394938&#45;&gt;Node395228</title>
<path fill="none" stroke="#191970" d="M369.7552,-551.4777C386.7862,-543.8902 411.9722,-533.6357 435,-528 505.1496,-510.832 588.0868,-503.4591 642.8087,-500.3116"/>
<polygon fill="#191970" stroke="#191970" points="643.232,-503.7938 653.0264,-499.7542 642.8506,-496.8042 643.232,-503.7938"/>
</g>
<!-- Node395083 -->
<g id="node9" class="node">
<title>Node395083</title>
<g id="a_node9"><a xlink:href="quickjs_8c.html#a3dd8e78607dbc729614deacf55901b95" target="_top" xlink:title="js_shape_prepare_update">
<polygon fill="none" stroke="#ff0000" points="798,-510.5 798,-529.5 926,-529.5 926,-510.5 798,-510.5"/>
<text text-anchor="middle" x="862" y="-517.5" font-family="Helvetica,sans-Serif" font-size="10.00" fill="#000000">js_shape_prepare_update</text>
</a>
</g>
</g>
<!-- Node394938&#45;&gt;Node395083 -->
<g id="edge49" class="edge">
<title>Node394938&#45;&gt;Node395083</title>
<path fill="none" stroke="#191970" d="M399.1063,-557.0315C489.5133,-549.7989 681.5326,-534.4374 787.6467,-525.9483"/>
<polygon fill="#191970" stroke="#191970" points="787.9523,-529.4351 797.6413,-525.1487 787.394,-522.4574 787.9523,-529.4351"/>
</g>
<!-- Node394957 -->
<g id="node10" class="node">
<title>Node394957</title>
<g id="a_node10"><a xlink:href="quickjs_8c.html#a643df594b75933007bcdbb071b5ea8c5" target="_top" xlink:title="get_shape_prop">
<polygon fill="none" stroke="#000000" points="962,-466.5 962,-485.5 1048,-485.5 1048,-466.5 962,-466.5"/>
<text text-anchor="middle" x="1005" y="-473.5" font-family="Helvetica,sans-Serif" font-size="10.00" fill="#000000">get_shape_prop</text>
</a>
</g>
</g>
<!-- Node394938&#45;&gt;Node394957 -->
<g id="edge14" class="edge">
<title>Node394938&#45;&gt;Node394957</title>
<path fill="none" stroke="#191970" d="M350.5924,-570.8214C354.7062,-602.5509 372.3801,-702.6432 435,-744 495.6499,-784.0557 695.7392,-780.8727 762,-751 883.4276,-696.2562 968.5884,-547.5231 995.7348,-494.8231"/>
<polygon fill="#191970" stroke="#191970" points="998.999,-496.1237 1000.3841,-485.6198 992.751,-492.9673 998.999,-496.1237"/>
</g>
<!-- Node394956 -->
<g id="node11" class="node">
<title>Node394956</title>
<g id="a_node11"><a xlink:href="quickjs_8c.html#a06b76f5124fd985e35f4c652fd018d6d" target="_top" xlink:title="find_own_property">
<polygon fill="none" stroke="#ff0000" points="814,-260.5 814,-279.5 910,-279.5 910,-260.5 814,-260.5"/>
<text text-anchor="middle" x="862" y="-267.5" font-family="Helvetica,sans-Serif" font-size="10.00" fill="#000000">find_own_property</text>
</a>
</g>
</g>
<!-- Node394938&#45;&gt;Node394956 -->
<g id="edge10" class="edge">
<title>Node394938&#45;&gt;Node394956</title>
<path fill="none" stroke="#191970" d="M350.111,-551.1856C353.7405,-496.4356 374.4079,-229.4737 435,-181 560.657,-80.4744 771.9282,-208.1673 840.0919,-254.4599"/>
<polygon fill="#191970" stroke="#191970" points="838.5169,-257.6252 848.7366,-260.4196 842.49,-251.862 838.5169,-257.6252"/>
</g>
<!-- Node394983 -->
<g id="node12" class="node">
<title>Node394983</title>
<g id="a_node12"><a xlink:href="quickjs_8c.html#a9e7b4bccf927d811b0f99b40b08c0472" target="_top" xlink:title="free_var_ref">
<polygon fill="none" stroke="#ff0000" points="487,-228.5 487,-247.5 555,-247.5 555,-228.5 487,-228.5"/>
<text text-anchor="middle" x="521" y="-235.5" font-family="Helvetica,sans-Serif" font-size="10.00" fill="#000000">free_var_ref</text>
</a>
</g>
</g>
<!-- Node394938&#45;&gt;Node394983 -->
<g id="edge12" class="edge">
<title>Node394938&#45;&gt;Node394983</title>
<path fill="none" stroke="#191970" d="M350.892,-551.2069C357.8105,-503.8968 389.968,-299.5472 435,-257 446.1977,-246.4202 461.9018,-241.225 476.8308,-238.8148"/>
<polygon fill="#191970" stroke="#191970" points="477.4831,-242.2609 486.9775,-237.5592 476.6234,-235.3139 477.4831,-242.2609"/>
</g>
<!-- Node395229 -->
<g id="node13" class="node">
<title>Node395229</title>
<g id="a_node13"><a xlink:href="quickjs_8c.html#a6df3ef223d7e76a0db2c14d972dbfa77" target="_top" xlink:title="get_prop_flags">
<polygon fill="none" stroke="#000000" points="662.5,-368.5 662.5,-387.5 742.5,-387.5 742.5,-368.5 662.5,-368.5"/>
<text text-anchor="middle" x="702.5" y="-375.5" font-family="Helvetica,sans-Serif" font-size="10.00" fill="#000000">get_prop_flags</text>
</a>
</g>
</g>
<!-- Node394938&#45;&gt;Node395229 -->
<g id="edge13" class="edge">
<title>Node394938&#45;&gt;Node395229</title>
<path fill="none" stroke="#191970" d="M351.5521,-551.1686C358.0339,-522.8453 380.9282,-440.8148 435,-405 500.345,-361.7184 595.0567,-363.5996 652.4959,-370.018"/>
<polygon fill="#191970" stroke="#191970" points="652.0776,-373.4928 662.4246,-371.2144 652.9151,-366.5431 652.0776,-373.4928"/>
</g>
<!-- Node395060 -->
<g id="node14" class="node">
<title>Node395060</title>
<g id="a_node14"><a xlink:href="quickjs_8c.html#ab4e100a9cde5f7ec87c92f5e766dbbab" target="_top" xlink:title="JS_AtomIsNumericIndex1">
<polygon fill="none" stroke="#ff0000" points="455.5,-646.5 455.5,-665.5 586.5,-665.5 586.5,-646.5 455.5,-646.5"/>
<text text-anchor="middle" x="521" y="-653.5" font-family="Helvetica,sans-Serif" font-size="10.00" fill="#000000">JS_AtomIsNumericIndex1</text>
</a>
</g>
</g>
<!-- Node394938&#45;&gt;Node395060 -->
<g id="edge15" class="edge">
<title>Node394938&#45;&gt;Node395060</title>
<path fill="none" stroke="#191970" d="M358.5226,-570.7799C373.1413,-586.054 403.5524,-615.5249 435,-632 443.8564,-636.6398 453.7093,-640.4651 463.4944,-643.5918"/>
<polygon fill="#191970" stroke="#191970" points="462.6343,-646.9875 473.2174,-646.4899 464.6339,-640.2792 462.6343,-646.9875"/>
</g>
<!-- Node394938&#45;&gt;Node394966 -->
<g id="edge36" class="edge">
<title>Node394938&#45;&gt;Node394966</title>
<path fill="none" stroke="#191970" d="M350.3548,-570.5049C356.4861,-637.6537 394.6822,-1038.8566 435,-1073 493.3365,-1122.4025 536.3362,-1102.1613 607,-1073 644.6199,-1057.4751 675.2239,-1019.1578 690.9663,-996.2097"/>
<polygon fill="#191970" stroke="#191970" points="693.9995,-997.9686 696.6064,-987.6995 688.1645,-994.1016 693.9995,-997.9686"/>
</g>
<!-- Node394938&#45;&gt;Node395002 -->
<g id="edge37" class="edge">
<title>Node394938&#45;&gt;Node395002</title>
<path fill="none" stroke="#191970" d="M351.5869,-570.6637C358.1631,-598.4897 381.2876,-678.9755 435,-713 499.745,-754.0132 591.8324,-750.1371 649.3267,-742.1437"/>
<polygon fill="#191970" stroke="#191970" points="649.9156,-745.5947 659.2953,-740.6682 648.8906,-738.6702 649.9156,-745.5947"/>
</g>
<!-- Node395062 -->
<g id="node17" class="node">
<title>Node395062</title>
<g id="a_node17"><a xlink:href="quickjs_8h.html#a2050bc428da1c65ac7eb87c3fa3b0392" target="_top" xlink:title="JS_NewInt32">
<polygon fill="none" stroke="#000000" points="824,-406.5 824,-425.5 900,-425.5 900,-406.5 824,-406.5"/>
<text text-anchor="middle" x="862" y="-413.5" font-family="Helvetica,sans-Serif" font-size="10.00" fill="#000000">JS_NewInt32</text>
</a>
</g>
</g>
<!-- Node394938&#45;&gt;Node395062 -->
<g id="edge40" class="edge">
<title>Node394938&#45;&gt;Node395062</title>
<path fill="none" stroke="#191970" d="M351.7068,-551.3006C360.9342,-511.6503 397.684,-362.677 435,-335 493.4187,-291.6713 694.452,-294.0298 762,-321 800.8734,-336.5212 833.2829,-375.1372 849.9322,-398.0735"/>
<polygon fill="#191970" stroke="#191970" points="847.0928,-400.1204 855.7076,-406.2878 852.8191,-396.0943 847.0928,-400.1204"/>
</g>
<!-- Node395081 -->
<g id="node18" class="node">
<title>Node395081</title>
<g id="a_node18"><a xlink:href="quickjs_8c.html#a8aac7988cf0c6f3c2b629a6662fd7ec8" target="_top" xlink:title="JS_AutoInitProperty">
<polygon fill="none" stroke="#ff0000" points="469,-684.5 469,-703.5 573,-703.5 573,-684.5 469,-684.5"/>
<text text-anchor="middle" x="521" y="-691.5" font-family="Helvetica,sans-Serif" font-size="10.00" fill="#000000">JS_AutoInitProperty</text>
</a>
</g>
</g>
<!-- Node394938&#45;&gt;Node395081 -->
<g id="edge21" class="edge">
<title>Node394938&#45;&gt;Node395081</title>
<path fill="none" stroke="#191970" d="M353.8554,-570.7955C364.3303,-593.1496 393.1988,-648.067 435,-675 442.2061,-679.6429 450.3804,-683.1635 458.7533,-685.8307"/>
<polygon fill="#191970" stroke="#191970" points="458.0547,-689.2694 468.6274,-688.5858 459.936,-682.5269 458.0547,-689.2694"/>
</g>
<!-- Node395227 -->
<g id="node19" class="node">
<title>Node395227</title>
<g id="a_node19"><a xlink:href="quickjs_8c.html#ad5565bb5cfd5321f181573257f3b0c91" target="_top" xlink:title="JS_CreateProperty">
<polygon fill="none" stroke="#ff0000" points="471,-456.5 471,-475.5 571,-475.5 571,-456.5 471,-456.5"/>
<text text-anchor="middle" x="521" y="-463.5" font-family="Helvetica,sans-Serif" font-size="10.00" fill="#000000">JS_CreateProperty</text>
</a>
</g>
</g>
<!-- Node394938&#45;&gt;Node395227 -->
<g id="edge24" class="edge">
<title>Node394938&#45;&gt;Node395227</title>
<path fill="none" stroke="#191970" d="M358.5226,-551.2201C373.1413,-535.946 403.5524,-506.4751 435,-490 443.8564,-485.3602 453.7093,-481.5349 463.4944,-478.4082"/>
<polygon fill="#191970" stroke="#191970" points="464.6339,-481.7208 473.2174,-475.5101 462.6343,-475.0125 464.6339,-481.7208"/>
</g>
<!-- Node394938&#45;&gt;Node394965 -->
<g id="edge35" class="edge">
<title>Node394938&#45;&gt;Node394965</title>
<path fill="none" stroke="#191970" d="M350.0605,-551.259C353.5342,-494.4391 374.0084,-206.3213 435,-148 465.5981,-118.7415 585.427,-109.3692 653.8706,-106.3831"/>
<polygon fill="#191970" stroke="#191970" points="654.1364,-109.8752 663.9859,-105.9719 653.852,-102.881 654.1364,-109.8752"/>
</g>
<!-- Node395179 -->
<g id="node21" class="node">
<title>Node395179</title>
<g id="a_node21"><a xlink:href="quickjs_8c.html#a1ca9cdb1fa2ffc3e6506e92b200e490f" target="_top" xlink:title="JS_IsFunction">
<polygon fill="none" stroke="#000000" points="662.5,-330.5 662.5,-349.5 742.5,-349.5 742.5,-330.5 662.5,-330.5"/>
<text text-anchor="middle" x="702.5" y="-337.5" font-family="Helvetica,sans-Serif" font-size="10.00" fill="#000000">JS_IsFunction</text>
</a>
</g>
</g>
<!-- Node394938&#45;&gt;Node395179 -->
<g id="edge38" class="edge">
<title>Node394938&#45;&gt;Node395179</title>
<path fill="none" stroke="#191970" d="M350.4252,-551.1862C354.0823,-518.4818 370.6523,-412.6449 435,-366 468.5979,-341.6452 584.6434,-338.5824 652.3478,-338.9815"/>
<polygon fill="#191970" stroke="#191970" points="652.3448,-342.4815 662.3746,-339.0679 652.4052,-335.4817 652.3448,-342.4815"/>
</g>
<!-- Node395086 -->
<g id="node22" class="node">
<title>Node395086</title>
<g id="a_node22"><a xlink:href="quickjs_8h.html#a88259aa0da61ac754402c64ccecee116" target="_top" xlink:title="JS_NewUint32">
<polygon fill="none" stroke="#ff0000" points="661,-406.5 661,-425.5 744,-425.5 744,-406.5 661,-406.5"/>
<text text-anchor="middle" x="702.5" y="-413.5" font-family="Helvetica,sans-Serif" font-size="10.00" fill="#000000">JS_NewUint32</text>
</a>
</g>
</g>
<!-- Node394938&#45;&gt;Node395086 -->
<g id="edge41" class="edge">
<title>Node394938&#45;&gt;Node395086</title>
<path fill="none" stroke="#191970" d="M353.5234,-551.245C363.484,-528.4786 391.6648,-471.8889 435,-447 501.9806,-408.5307 593.9228,-406.804 650.709,-410.4171"/>
<polygon fill="#191970" stroke="#191970" points="650.6646,-413.9228 660.8891,-411.1462 651.1647,-406.9407 650.6646,-413.9228"/>
</g>
<!-- Node395080 -->
<g id="node23" class="node">
<title>Node395080</title>
<g id="a_node23"><a xlink:href="quickjs_8h.html#a4e407128a9605afb77523e49e9a627fd" target="_top" xlink:title="JS_IsUndefined">
<polygon fill="none" stroke="#000000" points="478,-190.5 478,-209.5 564,-209.5 564,-190.5 478,-190.5"/>
<text text-anchor="middle" x="521" y="-197.5" font-family="Helvetica,sans-Serif" font-size="10.00" fill="#000000">JS_IsUndefined</text>
</a>
</g>
</g>
<!-- Node394938&#45;&gt;Node395080 -->
<g id="edge39" class="edge">
<title>Node394938&#45;&gt;Node395080</title>
<path fill="none" stroke="#191970" d="M350.5499,-551.3671C356.2406,-500.9213 384.99,-267.6513 435,-219 443.8193,-210.4203 455.5914,-205.357 467.5886,-202.4473"/>
<polygon fill="#191970" stroke="#191970" points="468.516,-205.8323 477.6593,-200.4797 467.1737,-198.9622 468.516,-205.8323"/>
</g>
<!-- Node395365 -->
<g id="node24" class="node">
<title>Node395365</title>
<g id="a_node24"><a xlink:href="quickjs_8c.html#af2333dd9d30e60437b73af383477188c" target="_top" xlink:title="JS_NumberIsInteger">
<polygon fill="none" stroke="#ff0000" points="467.5,-1044.5 467.5,-1063.5 574.5,-1063.5 574.5,-1044.5 467.5,-1044.5"/>
<text text-anchor="middle" x="521" y="-1051.5" font-family="Helvetica,sans-Serif" font-size="10.00" fill="#000000">JS_NumberIsInteger</text>
</a>
</g>
</g>
<!-- Node394938&#45;&gt;Node395365 -->
<g id="edge42" class="edge">
<title>Node394938&#45;&gt;Node395365</title>
<path fill="none" stroke="#191970" d="M349.8406,-570.8735C352.1725,-632.6005 367.7611,-965.0879 435,-1035 441.2379,-1041.4859 449.1527,-1045.9938 457.6438,-1049.0905"/>
<polygon fill="#191970" stroke="#191970" points="456.833,-1052.5012 467.4168,-1052.0172 458.8412,-1045.7954 456.833,-1052.5012"/>
</g>
<!-- Node395368 -->
<g id="node25" class="node">
<title>Node395368</title>
<g id="a_node25"><a xlink:href="quickjs_8c.html#aced4796120beed3ba63dc0b234b399ab" target="_top" xlink:title="JS_NumberIsNegativeOrMinusZero">
<polygon fill="none" stroke="#000000" points="435,-1006.5 435,-1025.5 607,-1025.5 607,-1006.5 435,-1006.5"/>
<text text-anchor="middle" x="521" y="-1013.5" font-family="Helvetica,sans-Serif" font-size="10.00" fill="#000000">JS_NumberIsNegativeOrMinusZero</text>
</a>
</g>
</g>
<!-- Node394938&#45;&gt;Node395368 -->
<g id="edge43" class="edge">
<title>Node394938&#45;&gt;Node395368</title>
<path fill="none" stroke="#191970" d="M350.0061,-570.8383C353.2268,-629.5485 372.7562,-933.2573 435,-997 436.2485,-998.2786 437.5623,-999.4801 438.9328,-1000.6088"/>
<polygon fill="#191970" stroke="#191970" points="437.1005,-1003.595 447.3422,-1006.3079 441.0277,-997.8004 437.1005,-1003.595"/>
</g>
<!-- Node395350 -->
<g id="node26" class="node">
<title>Node395350</title>
<g id="a_node26"><a xlink:href="quickjs_8c.html#a24be89a128d1cd7c0908604815b2b854" target="_top" xlink:title="js_same_value">
<polygon fill="none" stroke="#ff0000" points="480,-76.5 480,-95.5 562,-95.5 562,-76.5 480,-76.5"/>
<text text-anchor="middle" x="521" y="-83.5" font-family="Helvetica,sans-Serif" font-size="10.00" fill="#000000">js_same_value</text>
</a>
</g>
</g>
<!-- Node394938&#45;&gt;Node395350 -->
<g id="edge44" class="edge">
<title>Node394938&#45;&gt;Node395350</title>
<path fill="none" stroke="#191970" d="M349.9847,-551.265C353.1376,-491.8093 372.5961,-177.9329 435,-110 444.1085,-100.0845 456.9365,-94.1346 469.9113,-90.6009"/>
<polygon fill="#191970" stroke="#191970" points="470.8319,-93.9808 479.8027,-88.3439 469.2747,-87.1562 470.8319,-93.9808"/>
</g>
<!-- Node395237 -->
<g id="node27" class="node">
<title>Node395237</title>
<g id="a_node27"><a xlink:href="quickjs_8c.html#aee75cc1546e19479e3ccda58f3b50a96" target="_top" xlink:title="JS_SetPropertyValue">
<polygon fill="none" stroke="#ff0000" points="466,-968.5 466,-987.5 576,-987.5 576,-968.5 466,-968.5"/>
<text text-anchor="middle" x="521" y="-975.5" font-family="Helvetica,sans-Serif" font-size="10.00" fill="#000000">JS_SetPropertyValue</text>
</a>
</g>
</g>
<!-- Node394938&#45;&gt;Node395237 -->
<g id="edge46" class="edge">
<title>Node394938&#45;&gt;Node395237</title>
<path fill="none" stroke="#191970" d="M350.899,-570.6581C358.3684,-621.2842 394.7169,-855.9988 435,-916 448.9306,-936.7494 472.2772,-952.9298 491.1324,-963.5508"/>
<polygon fill="#191970" stroke="#191970" points="489.5037,-966.6489 499.9669,-968.3138 492.8257,-960.4874 489.5037,-966.6489"/>
</g>
<!-- Node395134 -->
<g id="node28" class="node">
<title>Node395134</title>
<g id="a_node28"><a xlink:href="quickjs_8c.html#a726b00d108e0a0f4d958c36c2e426a64" target="_top" xlink:title="JS_ThrowTypeErrorNotAnObject">
<polygon fill="none" stroke="#000000" points="441,-854.5 441,-873.5 601,-873.5 601,-854.5 441,-854.5"/>
<text text-anchor="middle" x="521" y="-861.5" font-family="Helvetica,sans-Serif" font-size="10.00" fill="#000000">JS_ThrowTypeErrorNotAnObject</text>
</a>
</g>
</g>
<!-- Node394938&#45;&gt;Node395134 -->
<g id="edge50" class="edge">
<title>Node394938&#45;&gt;Node395134</title>
<path fill="none" stroke="#191970" d="M351.0894,-570.7518C358.6681,-616.0753 392.5321,-805.603 435,-845 436.5133,-846.4039 438.1062,-847.7126 439.766,-848.9321"/>
<polygon fill="#191970" stroke="#191970" points="438.2081,-852.0821 448.5647,-854.316 441.8617,-846.1111 438.2081,-852.0821"/>
</g>
<!-- Node395243 -->
<g id="node29" class="node">
<title>Node395243</title>
<g id="a_node29"><a xlink:href="quickjs_8c.html#a77d135018423229ffcdcde7a46eb3fd9" target="_top" xlink:title="JS_ToArrayLengthFree">
<polygon fill="none" stroke="#ff0000" points="462.5,-798.5 462.5,-817.5 579.5,-817.5 579.5,-798.5 462.5,-798.5"/>
<text text-anchor="middle" x="521" y="-805.5" font-family="Helvetica,sans-Serif" font-size="10.00" fill="#000000">JS_ToArrayLengthFree</text>
</a>
</g>
</g>
<!-- Node394938&#45;&gt;Node395243 -->
<g id="edge51" class="edge">
<title>Node394938&#45;&gt;Node395243</title>
<path fill="none" stroke="#191970" d="M350.2155,-570.7329C353.2924,-605.3168 368.4596,-723.4363 435,-784 440.1604,-788.6969 446.1652,-792.4841 452.5578,-795.5362"/>
<polygon fill="#191970" stroke="#191970" points="451.5694,-798.9149 462.1479,-799.5024 454.2446,-792.4463 451.5694,-798.9149"/>
</g>
<!-- Node395228&#45;&gt;Node395083 -->
<g id="edge8" class="edge">
<title>Node395228&#45;&gt;Node395083</title>
<path fill="none" stroke="#191970" d="M751.6567,-504.7802C763.0268,-506.3485 775.3749,-508.0517 787.557,-509.732"/>
<polygon fill="#191970" stroke="#191970" points="787.3414,-513.2353 797.7259,-511.1346 788.2979,-506.301 787.3414,-513.2353"/>
</g>
<!-- Node395083&#45;&gt;Node394957 -->
<g id="edge9" class="edge">
<title>Node395083&#45;&gt;Node394957</title>
<path fill="none" stroke="#191970" d="M893.0289,-510.4527C913.9228,-504.0237 941.6919,-495.4794 964.3482,-488.5082"/>
<polygon fill="#191970" stroke="#191970" points="965.5032,-491.8149 974.0317,-485.5287 963.4446,-485.1244 965.5032,-491.8149"/>
</g>
<!-- Node394956&#45;&gt;Node394957 -->
<g id="edge11" class="edge">
<title>Node394956&#45;&gt;Node394957</title>
<path fill="none" stroke="#191970" d="M868.7054,-279.6595C891.0318,-311.822 963.0946,-415.6328 992.4154,-457.8711"/>
<polygon fill="#191970" stroke="#191970" points="989.565,-459.9028 998.1427,-466.1217 995.3154,-455.911 989.565,-459.9028"/>
</g>
<!-- Node395060&#45;&gt;Node395007 -->
<g id="edge16" class="edge">
<title>Node395060&#45;&gt;Node395007</title>
<path fill="none" stroke="#191970" d="M539.6913,-646.3505C563.3543,-634.3489 605.5556,-613.6563 643,-599 648.5632,-596.8225 654.4877,-594.7022 660.3603,-592.7154"/>
<polygon fill="#191970" stroke="#191970" points="661.7119,-595.9555 670.1214,-589.5112 659.5286,-589.3047 661.7119,-595.9555"/>
</g>
<!-- Node395060&#45;&gt;Node395008 -->
<g id="edge17" class="edge">
<title>Node395060&#45;&gt;Node395008</title>
<path fill="none" stroke="#191970" d="M566.8001,-646.411C591.1826,-641.3061 621.3567,-634.9887 647.0557,-629.6082"/>
<polygon fill="#191970" stroke="#191970" points="647.9587,-632.9951 657.0292,-627.5201 646.5242,-626.1436 647.9587,-632.9951"/>
</g>
<!-- Node395060&#45;&gt;Node394966 -->
<g id="edge18" class="edge">
<title>Node395060&#45;&gt;Node394966</title>
<path fill="none" stroke="#191970" d="M586.6295,-661.5288C594.2977,-664.6145 601.3758,-668.9548 607,-675 682.2658,-755.9002 592.3588,-822.7898 643,-921 651.551,-937.5832 666.8337,-952.0645 679.769,-962.2811"/>
<polygon fill="#191970" stroke="#191970" points="677.7428,-965.1367 687.836,-968.3582 681.9548,-959.5456 677.7428,-965.1367"/>
</g>
<!-- Node395060&#45;&gt;Node395002 -->
<g id="edge19" class="edge">
<title>Node395060&#45;&gt;Node395002</title>
<path fill="none" stroke="#191970" d="M576.8406,-665.598C587.049,-668.119 597.4777,-671.2212 607,-675 634.1449,-685.772 662.5504,-703.7123 681.2514,-716.5903"/>
<polygon fill="#191970" stroke="#191970" points="679.4082,-719.5727 689.6043,-722.452 683.4292,-713.8428 679.4082,-719.5727"/>
</g>
<!-- Node395060&#45;&gt;Node395062 -->
<g id="edge20" class="edge">
<title>Node395060&#45;&gt;Node395062</title>
<path fill="none" stroke="#191970" d="M586.6692,-659.0701C648.7977,-660.5484 736.2596,-658.4771 762,-637 810.0095,-596.9423 770.6864,-557.245 798,-501 810.5062,-475.2469 831.3269,-449.522 845.811,-433.2301"/>
<polygon fill="#191970" stroke="#191970" points="848.5924,-435.3737 852.73,-425.6202 843.4131,-430.6646 848.5924,-435.3737"/>
</g>
<!-- Node395081&#45;&gt;Node395083 -->
<g id="edge23" class="edge">
<title>Node395081&#45;&gt;Node395083</title>
<path fill="none" stroke="#191970" d="M573.4109,-701.0639C625.1069,-705.3562 704.5129,-704.5397 762,-670 812.8374,-639.4557 843.2049,-571.9441 855.5524,-538.9272"/>
<polygon fill="#191970" stroke="#191970" points="858.8484,-540.1046 858.9312,-529.5101 852.2596,-537.7405 858.8484,-540.1046"/>
</g>
<!-- Node395081&#45;&gt;Node395002 -->
<g id="edge22" class="edge">
<title>Node395081&#45;&gt;Node395002</title>
<path fill="none" stroke="#191970" d="M566.8001,-703.589C591.8315,-708.8297 622.967,-715.3485 649.098,-720.8194"/>
<polygon fill="#191970" stroke="#191970" points="648.7086,-724.3137 659.2136,-722.9373 650.1431,-717.4623 648.7086,-724.3137"/>
</g>
<!-- Node395227&#45;&gt;Node394939 -->
<g id="edge25" class="edge">
<title>Node395227&#45;&gt;Node394939</title>
<path fill="none" stroke="#191970" d="M526.6115,-475.7635C541.2475,-501.5003 581.232,-573.5801 607,-637 627.0004,-686.2249 625.2499,-700.9196 643,-751 659.944,-798.8059 682.4771,-854.0386 694.3623,-882.6184"/>
<polygon fill="#191970" stroke="#191970" points="691.2787,-884.3171 698.3622,-892.1959 697.738,-881.6195 691.2787,-884.3171"/>
</g>
<!-- Node395227&#45;&gt;Node395007 -->
<g id="edge26" class="edge">
<title>Node395227&#45;&gt;Node395007</title>
<path fill="none" stroke="#191970" d="M536.1624,-475.5235C567.6579,-495.3058 640.3858,-540.9861 678.3864,-564.8543"/>
<polygon fill="#191970" stroke="#191970" points="676.9233,-568.0684 687.2531,-570.4234 680.6465,-562.1407 676.9233,-568.0684"/>
</g>
<!-- Node395227&#45;&gt;Node395008 -->
<g id="edge27" class="edge">
<title>Node395227&#45;&gt;Node395008</title>
<path fill="none" stroke="#191970" d="M527.1529,-475.6131C543.2041,-499.9287 588.8804,-564.4025 643,-599 646.1549,-601.0169 649.5413,-602.8353 653.0393,-604.4722"/>
<polygon fill="#191970" stroke="#191970" points="651.8994,-607.7886 662.477,-608.3926 654.5848,-601.3242 651.8994,-607.7886"/>
</g>
<!-- Node395227&#45;&gt;Node395228 -->
<g id="edge28" class="edge">
<title>Node395227&#45;&gt;Node395228</title>
<path fill="none" stroke="#191970" d="M571.0761,-474.8288C593.3782,-478.7609 619.8124,-483.4215 643.1047,-487.5281"/>
<polygon fill="#191970" stroke="#191970" points="642.7593,-491.0211 653.2152,-489.3107 643.9748,-484.1274 642.7593,-491.0211"/>
</g>
<!-- Node395227&#45;&gt;Node394957 -->
<g id="edge30" class="edge">
<title>Node395227&#45;&gt;Node394957</title>
<path fill="none" stroke="#191970" d="M571.4268,-467.0419C663.3744,-468.9416 857.4557,-472.9516 951.5745,-474.8962"/>
<polygon fill="#191970" stroke="#191970" points="951.6571,-478.3985 961.7273,-475.1059 951.8017,-471.4 951.6571,-478.3985"/>
</g>
<!-- Node395227&#45;&gt;Node395229 -->
<g id="edge29" class="edge">
<title>Node395227&#45;&gt;Node395229</title>
<path fill="none" stroke="#191970" d="M535.5156,-456.4814C557.8754,-442.1253 602.4173,-414.7306 643,-397 648.0305,-394.8022 653.3982,-392.7306 658.7731,-390.8212"/>
<polygon fill="#191970" stroke="#191970" points="660.0347,-394.0894 668.3843,-387.5675 657.79,-387.459 660.0347,-394.0894"/>
</g>
<!-- Node395227&#45;&gt;Node394965 -->
<g id="edge31" class="edge">
<title>Node395227&#45;&gt;Node394965</title>
<path fill="none" stroke="#191970" d="M525.85,-456.3585C538.9426,-430.3303 576.1009,-356.4567 607,-295 638.4106,-232.5259 675.619,-158.4901 692.8516,-124.1994"/>
<polygon fill="#191970" stroke="#191970" points="696.1668,-125.3971 697.5298,-114.8903 689.9122,-122.2539 696.1668,-125.3971"/>
</g>
<!-- Node395227&#45;&gt;Node395179 -->
<g id="edge32" class="edge">
<title>Node395227&#45;&gt;Node395179</title>
<path fill="none" stroke="#191970" d="M529.4717,-456.239C548.0156,-435.4473 594.4409,-386.4522 643,-359 646.7169,-356.8987 650.698,-354.9943 654.7741,-353.276"/>
<polygon fill="#191970" stroke="#191970" points="656.2903,-356.4433 664.3778,-349.5991 653.7874,-349.9061 656.2903,-356.4433"/>
</g>
<!-- Node395227&#45;&gt;Node395086 -->
<g id="edge33" class="edge">
<title>Node395227&#45;&gt;Node395086</title>
<path fill="none" stroke="#191970" d="M555.566,-456.4777C584.615,-448.4752 626.3266,-436.9844 657.8913,-428.2889"/>
<polygon fill="#191970" stroke="#191970" points="659.0428,-431.6021 667.7541,-425.5719 657.1836,-424.8535 659.0428,-431.6021"/>
</g>
<!-- Node395086&#45;&gt;Node395062 -->
<g id="edge34" class="edge">
<title>Node395086&#45;&gt;Node395062</title>
<path fill="none" stroke="#191970" d="M744.4067,-416C765.6813,-416 791.6333,-416 813.7395,-416"/>
<polygon fill="#191970" stroke="#191970" points="813.9193,-419.5001 823.9193,-416 813.9193,-412.5001 813.9193,-419.5001"/>
</g>
<!-- Node395350&#45;&gt;Node394965 -->
<g id="edge45" class="edge">
<title>Node395350&#45;&gt;Node394965</title>
<path fill="none" stroke="#191970" d="M562.1852,-90.3114C589.3851,-93.1588 625.1544,-96.9032 653.7701,-99.8988"/>
<polygon fill="#191970" stroke="#191970" points="653.6499,-103.4053 663.9599,-100.9655 654.3787,-96.4433 653.6499,-103.4053"/>
</g>
<!-- Node395237&#45;&gt;Node394939 -->
<g id="edge47" class="edge">
<title>Node395237&#45;&gt;Node394939</title>
<path fill="none" stroke="#191970" d="M562.7539,-968.3842C577.021,-964.566 592.9231,-959.7105 607,-954 632.5573,-943.6323 660.0464,-928.1628 678.9392,-916.791"/>
<polygon fill="#191970" stroke="#191970" points="680.7662,-919.7763 687.4771,-911.5779 677.1183,-913.8019 680.7662,-919.7763"/>
</g>
<!-- Node395237&#45;&gt;Node394966 -->
<g id="edge48" class="edge">
<title>Node395237&#45;&gt;Node394966</title>
<path fill="none" stroke="#191970" d="M576.4422,-978C600.8704,-978 629.3424,-978 653.0402,-978"/>
<polygon fill="#191970" stroke="#191970" points="653.2185,-981.5001 663.2185,-978 653.2185,-974.5001 653.2185,-981.5001"/>
</g>
<!-- Node395243&#45;&gt;Node394966 -->
<g id="edge52" class="edge">
<title>Node395243&#45;&gt;Node394966</title>
<path fill="none" stroke="#191970" d="M558.7166,-817.6494C575.1509,-823.3921 593.6636,-832.1363 607,-845 633.901,-870.9475 621.1433,-890.6813 643,-921 654.0109,-936.2739 669.4285,-950.9099 681.8105,-961.5261"/>
<polygon fill="#191970" stroke="#191970" points="679.8841,-964.4769 689.8062,-968.1921 684.3665,-959.1002 679.8841,-964.4769"/>
</g>
<!-- Node395243&#45;&gt;Node395002 -->
<g id="edge53" class="edge">
<title>Node395243&#45;&gt;Node395002</title>
<path fill="none" stroke="#191970" d="M543.9871,-798.3745C575.8992,-785.0119 633.7844,-760.7735 670.0757,-745.5771"/>
<polygon fill="#191970" stroke="#191970" points="671.8274,-748.6381 679.6995,-741.5473 669.1237,-742.1813 671.8274,-748.6381"/>
</g>
<!-- Node395243&#45;&gt;Node395243 -->
<g id="edge54" class="edge">
<title>Node395243&#45;&gt;Node395243</title>
<path fill="none" stroke="#191970" d="M494.7981,-817.7571C482.0512,-826.5653 490.7852,-836 521,-836 541.3006,-836 551.9044,-831.741 552.8114,-826.2746"/>
<polygon fill="#191970" stroke="#191970" points="555.6252,-824.1836 547.2019,-817.7571 549.7791,-828.0337 555.6252,-824.1836"/>
</g>
</g>
</svg>
