<?xml version="1.0" encoding="UTF-8" standalone="no"?>
<!DOCTYPE svg PUBLIC "-//W3C//DTD SVG 1.1//EN"
 "http://www.w3.org/Graphics/SVG/1.1/DTD/svg11.dtd">
<!-- Generated by graphviz version 2.40.1 (20161225.0304)
 -->
<!-- Title: emit_return Pages: 1 -->
<!--zoomable 610 -->
<svg id="main" version="1.1" xmlns="http://www.w3.org/2000/svg" xmlns:xlink="http://www.w3.org/1999/xlink" xml:space="preserve" onload="init(evt)">
<style type="text/css"><![CDATA[
.edge:hover path { stroke: red; }
.edge:hover polygon { stroke: red; fill: red; }
]]></style>
<script type="text/javascript"><![CDATA[
var edges = document.getElementsByTagName('g');
if (edges && edges.length) {
  for (var i=0;i<edges.length;i++) {
    if (edges[i].id.substr(0,4)=='edge') {
      edges[i].setAttribute('class','edge');
    }
  }
}
]]></script>
        <defs>
                <circle id="rim" cx="0" cy="0" r="7"/>
                <circle id="rim2" cx="0" cy="0" r="3.5"/>
                <g id="zoomPlus">
                        <use xlink:href="#rim" fill="#404040">
                                <set attributeName="fill" to="#808080" begin="zoomplus.mouseover" end="zoomplus.mouseout"/>
                        </use>
                        <path d="M-4,0h8M0,-4v8" fill="none" stroke="white" stroke-width="1.5" pointer-events="none"/>
                </g>
                <g id="zoomMin">
                        <use xlink:href="#rim" fill="#404040">
                                <set attributeName="fill" to="#808080" begin="zoomminus.mouseover" end="zoomminus.mouseout"/>
                        </use>
                        <path d="M-4,0h8" fill="none" stroke="white" stroke-width="1.5" pointer-events="none"/>
                </g>
                <g id="dirArrow">
                        <path fill="none" stroke="white" stroke-width="1.5" d="M0,-3.0v7 M-2.5,-0.5L0,-3.0L2.5,-0.5"/>
                </g>
               <g id="resetDef">
                       <use xlink:href="#rim2" fill="#404040">
                               <set attributeName="fill" to="#808080" begin="reset.mouseover" end="reset.mouseout"/>
                       </use>
               </g>
        </defs>

<script type="text/javascript">
var viewWidth = 974;
var viewHeight = 610;
var sectionId = 'dynsection-1076';
</script>
<script xlink:href="svgpan.js"/>
<svg id="graph" class="graph">
<g id="viewport">
<title>emit_return</title>
<!-- Node327961 -->
<g id="node1" class="node">
<title>Node327961</title>
<polygon fill="#bfbfbf" stroke="#000000" points="0,-294.5 0,-313.5 65,-313.5 65,-294.5 0,-294.5"/>
<text text-anchor="middle" x="32.5" y="-301.5" font-family="Helvetica,sans-Serif" font-size="10.00" fill="#000000">emit_return</text>
</g>
<!-- Node327962 -->
<g id="node2" class="node">
<title>Node327962</title>
<g id="a_node2"><a xlink:href="quickjs_8c.html#afa1bc2743b3cf892d36544a708453736" target="_top" xlink:title="js_parse_assign_expr2">
<polygon fill="none" stroke="#000000" points="101,-294.5 101,-313.5 217,-313.5 217,-294.5 101,-294.5"/>
<text text-anchor="middle" x="159" y="-301.5" font-family="Helvetica,sans-Serif" font-size="10.00" fill="#000000">js_parse_assign_expr2</text>
</a>
</g>
</g>
<!-- Node327961&#45;&gt;Node327962 -->
<g id="edge1" class="edge">
<title>Node327961&#45;&gt;Node327962</title>
<path fill="none" stroke="#191970" d="M75.0975,-304C83.264,-304 91.9464,-304 100.5117,-304"/>
<polygon fill="#191970" stroke="#191970" points="75.0769,-300.5001 65.0769,-304 75.0769,-307.5001 75.0769,-300.5001"/>
</g>
<!-- Node327974 -->
<g id="node8" class="node">
<title>Node327974</title>
<g id="a_node8"><a xlink:href="quickjs_8c.html#a9d844c16dcc71701436848074337d32c" target="_top" xlink:title="js_parse_statement\l_or_decl">
<polygon fill="none" stroke="#ff0000" points="859,-137 859,-167 961,-167 961,-137 859,-137"/>
<text text-anchor="start" x="867" y="-155" font-family="Helvetica,sans-Serif" font-size="10.00" fill="#000000">js_parse_statement</text>
<text text-anchor="middle" x="910" y="-144" font-family="Helvetica,sans-Serif" font-size="10.00" fill="#000000">_or_decl</text>
</a>
</g>
</g>
<!-- Node327961&#45;&gt;Node327974 -->
<g id="edge42" class="edge">
<title>Node327961&#45;&gt;Node327974</title>
<path fill="none" stroke="#191970" d="M39.179,-284.4747C63.5171,-217.325 154.2042,0 308.5,0 308.5,0 308.5,0 612,0 709.2836,0 733.7719,-25.3203 818,-74 848.4583,-91.6034 878.5612,-119.6941 895.6578,-136.9264"/>
<polygon fill="#191970" stroke="#191970" points="35.7636,-283.6349 35.7316,-294.2297 42.3636,-285.9673 35.7636,-283.6349"/>
</g>
<!-- Node327970 -->
<g id="node12" class="node">
<title>Node327970</title>
<g id="a_node12"><a xlink:href="quickjs_8c.html#acc9eb677cab8dfcf45f59381f8a19601" target="_top" xlink:title="js_parse_function_decl2">
<polygon fill="none" stroke="#ff0000" points="551,-484.5 551,-503.5 673,-503.5 673,-484.5 551,-484.5"/>
<text text-anchor="middle" x="612" y="-491.5" font-family="Helvetica,sans-Serif" font-size="10.00" fill="#000000">js_parse_function_decl2</text>
</a>
</g>
</g>
<!-- Node327961&#45;&gt;Node327970 -->
<g id="edge41" class="edge">
<title>Node327961&#45;&gt;Node327970</title>
<path fill="none" stroke="#191970" d="M46.3819,-321.5276C90.677,-375.7457 235.4315,-540.0229 400,-589 448.9877,-603.5792 467.6783,-608.3132 515,-589 558.2114,-571.3644 592.6061,-524.1793 605.9731,-503.7039"/>
<polygon fill="#191970" stroke="#191970" points="48.9357,-319.1191 39.932,-313.5348 43.4882,-323.515 48.9357,-319.1191"/>
</g>
<!-- Node327962&#45;&gt;Node327962 -->
<g id="edge31" class="edge">
<title>Node327962&#45;&gt;Node327962</title>
<path fill="none" stroke="#191970" d="M135.5626,-323.0292C136.841,-328.128 144.6535,-332 159,-332 181.3945,-332 187.868,-322.5653 178.4203,-313.7571"/>
<polygon fill="#191970" stroke="#191970" points="138.8158,-324.3243 139.5797,-313.7571 132.3927,-321.5415 138.8158,-324.3243"/>
</g>
<!-- Node327963 -->
<g id="node3" class="node">
<title>Node327963</title>
<g id="a_node3"><a xlink:href="quickjs_8c.html#a4b2edcb56737c91ad1f7fd7561199dc9" target="_top" xlink:title="js_parse_assign_expr">
<polygon fill="none" stroke="#000000" points="253,-389.5 253,-408.5 364,-408.5 364,-389.5 253,-389.5"/>
<text text-anchor="middle" x="308.5" y="-396.5" font-family="Helvetica,sans-Serif" font-size="10.00" fill="#000000">js_parse_assign_expr</text>
</a>
</g>
</g>
<!-- Node327962&#45;&gt;Node327963 -->
<g id="edge2" class="edge">
<title>Node327962&#45;&gt;Node327963</title>
<path fill="none" stroke="#191970" d="M182.6354,-319.0192C213.6499,-338.7274 267.1946,-372.7524 293.3023,-389.3426"/>
<polygon fill="#191970" stroke="#191970" points="184.4749,-316.0412 174.1576,-313.6319 180.7205,-321.9493 184.4749,-316.0412"/>
</g>
<!-- Node327991 -->
<g id="node9" class="node">
<title>Node327991</title>
<g id="a_node9"><a xlink:href="quickjs_8c.html#a6686f5baeecd532b043761b6c24ed431" target="_top" xlink:title="js_parse_cond_expr">
<polygon fill="none" stroke="#000000" points="405.5,-560.5 405.5,-579.5 509.5,-579.5 509.5,-560.5 405.5,-560.5"/>
<text text-anchor="middle" x="457.5" y="-567.5" font-family="Helvetica,sans-Serif" font-size="10.00" fill="#000000">js_parse_cond_expr</text>
</a>
</g>
</g>
<!-- Node327962&#45;&gt;Node327991 -->
<g id="edge32" class="edge">
<title>Node327962&#45;&gt;Node327991</title>
<path fill="none" stroke="#191970" d="M175.4739,-321.6524C211.1882,-364.8319 300.5784,-475.2323 400,-537 415.4366,-546.5903 435.3758,-553.9293 447.26,-560.3852"/>
<polygon fill="#191970" stroke="#191970" points="177.9597,-319.1679 168.871,-313.723 172.5805,-323.6473 177.9597,-319.1679"/>
</g>
<!-- Node327976 -->
<g id="node11" class="node">
<title>Node327976</title>
<g id="a_node11"><a xlink:href="quickjs_8c.html#ac188b916dd086803591a67de7e7a85f6" target="_top" xlink:title="js_parse_for_in_of">
<polygon fill="none" stroke="#000000" points="564,-142.5 564,-161.5 660,-161.5 660,-142.5 564,-142.5"/>
<text text-anchor="middle" x="612" y="-149.5" font-family="Helvetica,sans-Serif" font-size="10.00" fill="#000000">js_parse_for_in_of</text>
</a>
</g>
</g>
<!-- Node327962&#45;&gt;Node327976 -->
<g id="edge39" class="edge">
<title>Node327962&#45;&gt;Node327976</title>
<path fill="none" stroke="#191970" d="M166.683,-284.8596C179.5934,-255.5375 208.6586,-200.3427 253,-176 352.3836,-121.4402 491.2989,-132.1807 563.7351,-143.0526"/>
<polygon fill="#191970" stroke="#191970" points="163.3257,-283.813 162.6591,-294.3868 169.7741,-286.5366 163.3257,-283.813"/>
</g>
<!-- Node327986 -->
<g id="node13" class="node">
<title>Node327986</title>
<g id="a_node13"><a xlink:href="quickjs_8c.html#a9660cf21845352b14655d423389d6620" target="_top" xlink:title="js_parse_var">
<polygon fill="none" stroke="#000000" points="727.5,-256.5 727.5,-275.5 799.5,-275.5 799.5,-256.5 727.5,-256.5"/>
<text text-anchor="middle" x="763.5" y="-263.5" font-family="Helvetica,sans-Serif" font-size="10.00" fill="#000000">js_parse_var</text>
</a>
</g>
</g>
<!-- Node327962&#45;&gt;Node327986 -->
<g id="edge40" class="edge">
<title>Node327962&#45;&gt;Node327986</title>
<path fill="none" stroke="#191970" d="M202.7032,-291.8747C250.6537,-279.2493 330.1104,-260.314 400,-253 519.3295,-240.5121 661.7605,-253.7219 727.2699,-261.3632"/>
<polygon fill="#191970" stroke="#191970" points="201.7276,-288.5124 192.9641,-294.4666 203.5279,-295.277 201.7276,-288.5124"/>
</g>
<!-- Node327993 -->
<g id="node15" class="node">
<title>Node327993</title>
<g id="a_node15"><a xlink:href="quickjs_8c.html#a9fc8ae779f77a7886fc7cfa48cc487fb" target="_top" xlink:title="js_parse_expr2">
<polygon fill="none" stroke="#000000" points="267,-104.5 267,-123.5 350,-123.5 350,-104.5 267,-104.5"/>
<text text-anchor="middle" x="308.5" y="-111.5" font-family="Helvetica,sans-Serif" font-size="10.00" fill="#000000">js_parse_expr2</text>
</a>
</g>
</g>
<!-- Node327962&#45;&gt;Node327993 -->
<g id="edge33" class="edge">
<title>Node327962&#45;&gt;Node327993</title>
<path fill="none" stroke="#191970" d="M165.2832,-284.7012C177.2383,-250.7424 206.3116,-179.9381 253,-138 259.7944,-131.8969 268.3807,-127.1701 276.7561,-123.5891"/>
<polygon fill="#191970" stroke="#191970" points="161.9084,-283.7544 162.0026,-294.3488 168.5357,-286.008 161.9084,-283.7544"/>
</g>
<!-- Node327964 -->
<g id="node4" class="node">
<title>Node327964</title>
<g id="a_node4"><a xlink:href="quickjs_8c.html#a253917187cfb6b3db09d355b31edb3d5" target="_top" xlink:title="js_parse_array_literal">
<polygon fill="none" stroke="#000000" points="709,-370.5 709,-389.5 818,-389.5 818,-370.5 709,-370.5"/>
<text text-anchor="middle" x="763.5" y="-377.5" font-family="Helvetica,sans-Serif" font-size="10.00" fill="#000000">js_parse_array_literal</text>
</a>
</g>
</g>
<!-- Node327963&#45;&gt;Node327964 -->
<g id="edge3" class="edge">
<title>Node327963&#45;&gt;Node327964</title>
<path fill="none" stroke="#191970" d="M374.3954,-396.2483C464.5513,-392.4836 624.7094,-385.7957 708.6729,-382.2895"/>
<polygon fill="#191970" stroke="#191970" points="374.1372,-392.756 364.2919,-396.6702 374.4293,-399.7499 374.1372,-392.756"/>
</g>
<!-- Node327965 -->
<g id="node5" class="node">
<title>Node327965</title>
<g id="a_node5"><a xlink:href="quickjs_8c.html#a840642c87c5a82d4cc68333376a3b6de" target="_top" xlink:title="js_parse_postfix_expr">
<polygon fill="none" stroke="#ff0000" points="854,-351.5 854,-370.5 966,-370.5 966,-351.5 854,-351.5"/>
<text text-anchor="middle" x="910" y="-358.5" font-family="Helvetica,sans-Serif" font-size="10.00" fill="#000000">js_parse_postfix_expr</text>
</a>
</g>
</g>
<!-- Node327963&#45;&gt;Node327965 -->
<g id="edge30" class="edge">
<title>Node327963&#45;&gt;Node327965</title>
<path fill="none" stroke="#191970" d="M374.3348,-407.425C472.2621,-418.072 661.559,-431.3805 818,-399 845.0758,-393.3958 874.2444,-379.9531 892.3132,-370.6592"/>
<polygon fill="#191970" stroke="#191970" points="374.6126,-403.9344 364.2869,-406.3068 373.8383,-410.8915 374.6126,-403.9344"/>
</g>
<!-- Node327967 -->
<g id="node6" class="node">
<title>Node327967</title>
<g id="a_node6"><a xlink:href="quickjs_8c.html#a00eb789430243c24dab4a63ad6a79653" target="_top" xlink:title="js_parse_class">
<polygon fill="none" stroke="#000000" points="722.5,-446.5 722.5,-465.5 804.5,-465.5 804.5,-446.5 722.5,-446.5"/>
<text text-anchor="middle" x="763.5" y="-453.5" font-family="Helvetica,sans-Serif" font-size="10.00" fill="#000000">js_parse_class</text>
</a>
</g>
</g>
<!-- Node327963&#45;&gt;Node327967 -->
<g id="edge6" class="edge">
<title>Node327963&#45;&gt;Node327967</title>
<path fill="none" stroke="#191970" d="M351.6415,-411.6519C355.8408,-413.0517 360.0178,-414.5114 364,-416 380.4007,-422.1308 383.0014,-427.8027 400,-432 514.2058,-460.1996 654.3454,-460.0911 722.4453,-457.9233"/>
<polygon fill="#191970" stroke="#191970" points="352.4749,-408.2434 341.8834,-408.5088 350.3287,-414.9063 352.4749,-408.2434"/>
</g>
<!-- Node327968 -->
<g id="node7" class="node">
<title>Node327968</title>
<g id="a_node7"><a xlink:href="quickjs_8c.html#a498e1d5c7de1b59c1630e9847cde1e41" target="_top" xlink:title="js_parse_export">
<polygon fill="none" stroke="#ff0000" points="867,-465.5 867,-484.5 953,-484.5 953,-465.5 867,-465.5"/>
<text text-anchor="middle" x="910" y="-472.5" font-family="Helvetica,sans-Serif" font-size="10.00" fill="#000000">js_parse_export</text>
</a>
</g>
</g>
<!-- Node327963&#45;&gt;Node327968 -->
<g id="edge25" class="edge">
<title>Node327963&#45;&gt;Node327968</title>
<path fill="none" stroke="#191970" d="M361.4167,-413.8942C362.306,-414.5654 363.1685,-415.2669 364,-416 393.2461,-441.785 368.4959,-473.0286 400,-496 554.8422,-608.904 812.0029,-516.0772 888.1301,-484.528"/>
<polygon fill="#191970" stroke="#191970" points="363.1608,-410.8583 352.8023,-408.6331 359.5123,-416.8323 363.1608,-410.8583"/>
</g>
<!-- Node327963&#45;&gt;Node327991 -->
<g id="edge11" class="edge">
<title>Node327963&#45;&gt;Node327991</title>
<path fill="none" stroke="#191970" d="M319.952,-417.7263C343.8709,-456.794 397.1632,-543.5876 400,-546 407.1693,-552.0967 416.1066,-556.8214 424.7822,-560.4025"/>
<polygon fill="#191970" stroke="#191970" points="322.7575,-415.6053 314.5524,-408.9025 316.7867,-419.2591 322.7575,-415.6053"/>
</g>
<!-- Node327985 -->
<g id="node10" class="node">
<title>Node327985</title>
<g id="a_node10"><a xlink:href="quickjs_8c.html#a26be546cf89c4580ba9020e8fc43a759" target="_top" xlink:title="js_parse_destructuring\l_element">
<polygon fill="none" stroke="#000000" points="400,-263 400,-293 515,-293 515,-263 400,-263"/>
<text text-anchor="start" x="408" y="-281" font-family="Helvetica,sans-Serif" font-size="10.00" fill="#000000">js_parse_destructuring</text>
<text text-anchor="middle" x="457.5" y="-270" font-family="Helvetica,sans-Serif" font-size="10.00" fill="#000000">_element</text>
</a>
</g>
</g>
<!-- Node327963&#45;&gt;Node327985 -->
<g id="edge13" class="edge">
<title>Node327963&#45;&gt;Node327985</title>
<path fill="none" stroke="#191970" d="M328.2352,-382.9734C357.1404,-359.5001 410.6137,-316.0755 438.8746,-293.1254"/>
<polygon fill="#191970" stroke="#191970" points="325.9978,-380.2816 320.4414,-389.3026 330.4106,-385.7156 325.9978,-380.2816"/>
</g>
<!-- Node327963&#45;&gt;Node327976 -->
<g id="edge26" class="edge">
<title>Node327963&#45;&gt;Node327976</title>
<path fill="none" stroke="#191970" d="M316.3309,-379.6744C329.5272,-349.196 358.8424,-289.6687 400,-253 453.4226,-205.4039 533.2324,-175.5991 578.1428,-161.561"/>
<polygon fill="#191970" stroke="#191970" points="312.9928,-378.5835 312.3424,-389.1584 319.4454,-381.2972 312.9928,-378.5835"/>
</g>
<!-- Node327963&#45;&gt;Node327970 -->
<g id="edge27" class="edge">
<title>Node327963&#45;&gt;Node327970</title>
<path fill="none" stroke="#191970" d="M324.6554,-416.1298C341.6591,-432.9572 370.069,-457.8254 400,-470 448.2068,-489.6084 507.3561,-494.9226 550.9163,-495.7265"/>
<polygon fill="#191970" stroke="#191970" points="326.7713,-413.2891 317.2677,-408.6058 321.7765,-418.1934 326.7713,-413.2891"/>
</g>
<!-- Node327973 -->
<g id="node14" class="node">
<title>Node327973</title>
<g id="a_node14"><a xlink:href="quickjs_8c.html#aee6d0acd87f136d43f157ae1426436e6" target="_top" xlink:title="js_parse_object_literal">
<polygon fill="none" stroke="#000000" points="555.5,-332.5 555.5,-351.5 668.5,-351.5 668.5,-332.5 555.5,-332.5"/>
<text text-anchor="middle" x="612" y="-339.5" font-family="Helvetica,sans-Serif" font-size="10.00" fill="#000000">js_parse_object_literal</text>
</a>
</g>
</g>
<!-- Node327963&#45;&gt;Node327973 -->
<g id="edge28" class="edge">
<title>Node327963&#45;&gt;Node327973</title>
<path fill="none" stroke="#191970" d="M340.248,-385.4784C357.6043,-378.6177 379.6551,-370.7514 400,-366 451.7605,-353.9116 512.1057,-347.8344 555.1476,-344.8275"/>
<polygon fill="#191970" stroke="#191970" points="338.5792,-382.3778 330.6198,-389.3706 341.2027,-388.8676 338.5792,-382.3778"/>
</g>
<!-- Node327964&#45;&gt;Node327965 -->
<g id="edge4" class="edge">
<title>Node327964&#45;&gt;Node327965</title>
<path fill="none" stroke="#191970" d="M828.0685,-371.6259C836.6903,-370.5077 845.4749,-369.3684 853.9352,-368.2712"/>
<polygon fill="#191970" stroke="#191970" points="827.518,-368.1679 818.0512,-372.9251 828.4183,-375.1098 827.518,-368.1679"/>
</g>
<!-- Node327965&#45;&gt;Node327965 -->
<g id="edge5" class="edge">
<title>Node327965&#45;&gt;Node327965</title>
<path fill="none" stroke="#191970" d="M882.7475,-379.6539C883.8867,-384.9368 892.9708,-389 910,-389 935.9492,-389 943.4502,-379.5653 932.5028,-370.7571"/>
<polygon fill="#191970" stroke="#191970" points="885.8752,-381.227 887.4972,-370.7571 879.7001,-377.9303 885.8752,-381.227"/>
</g>
<!-- Node327967&#45;&gt;Node327965 -->
<g id="edge8" class="edge">
<title>Node327967&#45;&gt;Node327965</title>
<path fill="none" stroke="#191970" d="M797.7177,-442.4537C804.5881,-439.3141 811.6447,-435.7754 818,-432 849.5691,-413.246 882.7506,-385.2722 899.2959,-370.6668"/>
<polygon fill="#191970" stroke="#191970" points="796.3018,-439.2528 788.5476,-446.4725 799.1116,-445.6642 796.3018,-439.2528"/>
</g>
<!-- Node327967&#45;&gt;Node327968 -->
<g id="edge7" class="edge">
<title>Node327967&#45;&gt;Node327968</title>
<path fill="none" stroke="#191970" d="M814.9852,-462.6773C831.9197,-464.8735 850.5612,-467.2912 866.8136,-469.399"/>
<polygon fill="#191970" stroke="#191970" points="815.0654,-459.1584 804.6983,-461.3431 814.165,-466.1003 815.0654,-459.1584"/>
</g>
<!-- Node327967&#45;&gt;Node327974 -->
<g id="edge9" class="edge">
<title>Node327967&#45;&gt;Node327974</title>
<path fill="none" stroke="#191970" d="M783.1485,-439.2166C794.5657,-428.6254 808.523,-414.124 818,-399 868.1753,-318.9275 897.2653,-207.3192 906.639,-167.1519"/>
<polygon fill="#191970" stroke="#191970" points="780.485,-436.9044 775.3843,-446.1906 785.1626,-442.1121 780.485,-436.9044"/>
</g>
<!-- Node327974&#45;&gt;Node327974 -->
<g id="edge10" class="edge">
<title>Node327974&#45;&gt;Node327974</title>
<path fill="none" stroke="#191970" d="M884.0576,-177.4579C887.2774,-182.179 895.9249,-185.5 910,-185.5 933.0977,-185.5 941.5788,-176.5566 935.4435,-167.159"/>
<polygon fill="#191970" stroke="#191970" points="887.5684,-177.3167 884.5565,-167.159 880.5766,-176.9779 887.5684,-177.3167"/>
</g>
<!-- Node327991&#45;&gt;Node327962 -->
<g id="edge12" class="edge">
<title>Node327991&#45;&gt;Node327962</title>
<path fill="none" stroke="#191970" d="M400.5705,-555.3522C400.3797,-555.2351 400.1895,-555.1177 400,-555 286.6778,-484.5963 186.388,-351.0099 163.7608,-313.5789"/>
<polygon fill="#191970" stroke="#191970" points="399.0869,-558.5327 409.5226,-560.3626 402.5058,-552.4244 399.0869,-558.5327"/>
</g>
<!-- Node327985&#45;&gt;Node327965 -->
<g id="edge20" class="edge">
<title>Node327985&#45;&gt;Node327965</title>
<path fill="none" stroke="#191970" d="M525.2081,-290.4194C616.2345,-307.1159 776.0971,-336.4388 858.1675,-351.4926"/>
<polygon fill="#191970" stroke="#191970" points="525.7364,-286.958 515.2691,-288.5963 524.4735,-293.8431 525.7364,-286.958"/>
</g>
<!-- Node327985&#45;&gt;Node327974 -->
<g id="edge21" class="edge">
<title>Node327985&#45;&gt;Node327974</title>
<path fill="none" stroke="#191970" d="M521.5062,-260.1773C612.1189,-234.9459 775.9818,-189.3178 858.9366,-166.2188"/>
<polygon fill="#191970" stroke="#191970" points="520.3272,-256.8723 511.6326,-262.9266 522.205,-263.6158 520.3272,-256.8723"/>
</g>
<!-- Node327985&#45;&gt;Node327985 -->
<g id="edge14" class="edge">
<title>Node327985&#45;&gt;Node327985</title>
<path fill="none" stroke="#191970" d="M431.2022,-303.4579C434.4661,-308.179 443.2321,-311.5 457.5,-311.5 480.9141,-311.5 489.5114,-302.5566 483.2921,-293.159"/>
<polygon fill="#191970" stroke="#191970" points="434.7132,-303.3187 431.7079,-293.159 427.7216,-302.9753 434.7132,-303.3187"/>
</g>
<!-- Node327985&#45;&gt;Node327976 -->
<g id="edge15" class="edge">
<title>Node327985&#45;&gt;Node327976</title>
<path fill="none" stroke="#191970" d="M494.5241,-257.7771C501.5106,-253.4994 508.6213,-248.8137 515,-244 550.3857,-217.2959 586.9649,-179.227 603.259,-161.6167"/>
<polygon fill="#191970" stroke="#191970" points="492.6152,-254.84 485.8053,-262.9564 496.1903,-260.8583 492.6152,-254.84"/>
</g>
<!-- Node327985&#45;&gt;Node327970 -->
<g id="edge17" class="edge">
<title>Node327985&#45;&gt;Node327970</title>
<path fill="none" stroke="#191970" d="M474.3335,-301.5342C507.9489,-348.5305 582.1319,-452.2427 605.0905,-484.3401"/>
<polygon fill="#191970" stroke="#191970" points="477.0286,-299.286 468.3641,-293.1887 471.3352,-303.3585 477.0286,-299.286"/>
</g>
<!-- Node327985&#45;&gt;Node327986 -->
<g id="edge22" class="edge">
<title>Node327985&#45;&gt;Node327986</title>
<path fill="none" stroke="#191970" d="M525.1981,-275.3452C587.5403,-272.9004 677.6522,-269.3666 727.2906,-267.42"/>
<polygon fill="#191970" stroke="#191970" points="524.9114,-271.8536 515.0563,-275.7429 525.1858,-278.8483 524.9114,-271.8536"/>
</g>
<!-- Node327976&#45;&gt;Node327974 -->
<g id="edge16" class="edge">
<title>Node327976&#45;&gt;Node327974</title>
<path fill="none" stroke="#191970" d="M670.472,-152C725.3224,-152 806.5312,-152 858.8627,-152"/>
<polygon fill="#191970" stroke="#191970" points="670.2101,-148.5001 660.2101,-152 670.21,-155.5001 670.2101,-148.5001"/>
</g>
<!-- Node327970&#45;&gt;Node327967 -->
<g id="edge18" class="edge">
<title>Node327970&#45;&gt;Node327967</title>
<path fill="none" stroke="#191970" d="M660.0016,-481.96C681.1668,-476.6512 705.6858,-470.5012 725.5451,-465.5201"/>
<polygon fill="#191970" stroke="#191970" points="659.0779,-478.5832 650.2298,-484.411 660.7809,-485.3729 659.0779,-478.5832"/>
</g>
<!-- Node327970&#45;&gt;Node327968 -->
<g id="edge19" class="edge">
<title>Node327970&#45;&gt;Node327968</title>
<path fill="none" stroke="#191970" d="M683.0856,-489.4677C740.2877,-485.8206 818.808,-480.8143 866.8884,-477.7487"/>
<polygon fill="#191970" stroke="#191970" points="682.7808,-485.9799 673.0238,-490.1092 683.2263,-492.9657 682.7808,-485.9799"/>
</g>
<!-- Node327986&#45;&gt;Node327968 -->
<g id="edge24" class="edge">
<title>Node327986&#45;&gt;Node327968</title>
<path fill="none" stroke="#191970" d="M775.6026,-283.9901C792.8149,-309.4977 825.4487,-357.5726 854,-398 871.1639,-422.3034 891.8766,-450.4978 902.662,-465.0962"/>
<polygon fill="#191970" stroke="#191970" points="778.4862,-282.0061 769.9951,-275.6695 772.6814,-285.9182 778.4862,-282.0061"/>
</g>
<!-- Node327986&#45;&gt;Node327974 -->
<g id="edge23" class="edge">
<title>Node327986&#45;&gt;Node327974</title>
<path fill="none" stroke="#191970" d="M783.7232,-250.2631C811.958,-228.2921 862.8414,-188.6968 890.618,-167.0822"/>
<polygon fill="#191970" stroke="#191970" points="781.4812,-247.573 775.7385,-256.4765 785.7801,-253.0974 781.4812,-247.573"/>
</g>
<!-- Node327973&#45;&gt;Node327965 -->
<g id="edge29" class="edge">
<title>Node327973&#45;&gt;Node327965</title>
<path fill="none" stroke="#191970" d="M679.0173,-346.2729C731.7273,-349.6336 804.313,-354.2616 853.9635,-357.4272"/>
<polygon fill="#191970" stroke="#191970" points="678.9554,-342.762 668.753,-345.6185 678.51,-349.7478 678.9554,-342.762"/>
</g>
<!-- Node327993&#45;&gt;Node327974 -->
<g id="edge38" class="edge">
<title>Node327993&#45;&gt;Node327974</title>
<path fill="none" stroke="#191970" d="M356.4162,-102.2496C370.3814,-99.3155 385.7242,-96.5621 400,-95 584.7013,-74.7889 639.4274,-50.6689 818,-102 843.8573,-109.4328 870.5662,-124.9828 888.4997,-136.7803"/>
<polygon fill="#191970" stroke="#191970" points="355.552,-98.8557 346.5258,-104.4036 357.0416,-105.6954 355.552,-98.8557"/>
</g>
<!-- Node327994 -->
<g id="node16" class="node">
<title>Node327994</title>
<g id="a_node16"><a xlink:href="quickjs_8c.html#af219bd55085ad700eb078affe3f65505" target="_top" xlink:title="js_parse_expr">
<polygon fill="none" stroke="#ff0000" points="419,-104.5 419,-123.5 496,-123.5 496,-104.5 419,-104.5"/>
<text text-anchor="middle" x="457.5" y="-111.5" font-family="Helvetica,sans-Serif" font-size="10.00" fill="#000000">js_parse_expr</text>
</a>
</g>
</g>
<!-- Node327993&#45;&gt;Node327994 -->
<g id="edge34" class="edge">
<title>Node327993&#45;&gt;Node327994</title>
<path fill="none" stroke="#191970" d="M360.1301,-114C379.378,-114 400.8813,-114 418.7743,-114"/>
<polygon fill="#191970" stroke="#191970" points="360.0048,-110.5001 350.0048,-114 360.0048,-117.5001 360.0048,-110.5001"/>
</g>
<!-- Node327994&#45;&gt;Node327965 -->
<g id="edge36" class="edge">
<title>Node327994&#45;&gt;Node327965</title>
<path fill="none" stroke="#191970" d="M506.4479,-110.5266C551.3511,-109.1219 618.899,-111.5727 673,-133 789.7826,-179.2531 880.8756,-314.3925 904.1861,-351.4858"/>
<polygon fill="#191970" stroke="#191970" points="506.2404,-107.032 496.384,-110.9179 506.5125,-114.0267 506.2404,-107.032"/>
</g>
<!-- Node327994&#45;&gt;Node327974 -->
<g id="edge37" class="edge">
<title>Node327994&#45;&gt;Node327974</title>
<path fill="none" stroke="#191970" d="M506.2022,-105.3079C520.5794,-103.1217 536.3798,-101.0885 551,-100 605.0726,-95.9742 619.0937,-94.1557 673,-100 737.9127,-107.0375 811.1026,-124.6159 858.75,-137.3908"/>
<polygon fill="#191970" stroke="#191970" points="505.3538,-101.8985 496.0222,-106.9156 506.4458,-108.8128 505.3538,-101.8985"/>
</g>
<!-- Node327994&#45;&gt;Node327976 -->
<g id="edge35" class="edge">
<title>Node327994&#45;&gt;Node327976</title>
<path fill="none" stroke="#191970" d="M505.8026,-125.8802C527.56,-131.2316 552.8991,-137.4639 573.3681,-142.4983"/>
<polygon fill="#191970" stroke="#191970" points="506.6349,-122.4807 496.0883,-123.491 504.963,-129.2781 506.6349,-122.4807"/>
</g>
</g>
</svg>
        <g id="navigator" transform="translate(0 0)" fill="#404254">
                <rect fill="#f2f5e9" fill-opacity="0.5" stroke="#606060" stroke-width=".5" x="0" y="0" width="60" height="60"/>
                <use id="zoomplus" xlink:href="#zoomPlus" x="17" y="9" onmousedown="handleZoom(evt,'in')"/>
                <use id="zoomminus" xlink:href="#zoomMin" x="42" y="9" onmousedown="handleZoom(evt,'out')"/>
                <use id="reset" xlink:href="#resetDef" x="30" y="36" onmousedown="handleReset()"/>
                <g id="arrowUp" xlink:href="#dirArrow" transform="translate(30 24)" onmousedown="handlePan(0,-1)">
                  <use xlink:href="#rim" fill="#404040">
                        <set attributeName="fill" to="#808080" begin="arrowUp.mouseover" end="arrowUp.mouseout"/>
                  </use>
                  <path fill="none" stroke="white" stroke-width="1.5" d="M0,-3.0v7 M-2.5,-0.5L0,-3.0L2.5,-0.5"/>
                </g>
                <g id="arrowRight" xlink:href="#dirArrow" transform="rotate(90) translate(36 -43)" onmousedown="handlePan(1,0)">
                  <use xlink:href="#rim" fill="#404040">
                        <set attributeName="fill" to="#808080" begin="arrowRight.mouseover" end="arrowRight.mouseout"/>
                  </use>
                  <path fill="none" stroke="white" stroke-width="1.5" d="M0,-3.0v7 M-2.5,-0.5L0,-3.0L2.5,-0.5"/>
                </g>
                <g id="arrowDown" xlink:href="#dirArrow" transform="rotate(180) translate(-30 -48)" onmousedown="handlePan(0,1)">
                  <use xlink:href="#rim" fill="#404040">
                        <set attributeName="fill" to="#808080" begin="arrowDown.mouseover" end="arrowDown.mouseout"/>
                  </use>
                  <path fill="none" stroke="white" stroke-width="1.5" d="M0,-3.0v7 M-2.5,-0.5L0,-3.0L2.5,-0.5"/>
                </g>
                <g id="arrowLeft" xlink:href="#dirArrow" transform="rotate(270) translate(-36 17)" onmousedown="handlePan(-1,0)">
                  <use xlink:href="#rim" fill="#404040">
                        <set attributeName="fill" to="#808080" begin="arrowLeft.mouseover" end="arrowLeft.mouseout"/>
                  </use>
                  <path fill="none" stroke="white" stroke-width="1.5" d="M0,-3.0v7 M-2.5,-0.5L0,-3.0L2.5,-0.5"/>
                </g>
        </g>
        <svg viewBox="0 0 15 15" width="100%" height="30px" preserveAspectRatio="xMaxYMin meet">
         <g id="arrow_out" transform="scale(0.3 0.3)">
          <a xlink:href="quickjs_8c_acea69d5aa6481a035d0833b8bce455f5_icgraph_org.svg" target="_base">
           <rect id="button" ry="5" rx="5" y="6" x="6" height="38" width="38"
                fill="#f2f5e9" fill-opacity="0.5" stroke="#606060" stroke-width="1.0"/>
           <path id="arrow"
             d="M 11.500037,31.436501 C 11.940474,20.09759 22.043105,11.32322 32.158766,21.979434 L 37.068811,17.246167 C 37.068811,17.246167 37.088388,32 37.088388,32 L 22.160133,31.978069 C 22.160133,31.978069 26.997745,27.140456 26.997745,27.140456 C 18.528582,18.264221 13.291696,25.230495 11.500037,31.436501 z"
             style="fill:#404040;"/>
          </a>
         </g>
        </svg>
</svg>
