<?xml version="1.0" encoding="UTF-8" standalone="no"?>
<!DOCTYPE svg PUBLIC "-//W3C//DTD SVG 1.1//EN"
 "http://www.w3.org/Graphics/SVG/1.1/DTD/svg11.dtd">
<!-- Generated by graphviz version 2.40.1 (20161225.0304)
 -->
<!-- Title: js_method_set_home_object Pages: 1 -->
<svg width="740pt" height="919pt"
 viewBox="0.00 0.00 740.00 919.00" xmlns="http://www.w3.org/2000/svg" xmlns:xlink="http://www.w3.org/1999/xlink">
<g id="graph0" class="graph" transform="scale(1 1) rotate(0) translate(4 915)">
<title>js_method_set_home_object</title>
<!-- Node140331 -->
<g id="node1" class="node">
<title>Node140331</title>
<polygon fill="#bfbfbf" stroke="#000000" points="0,-301 0,-331 110,-331 110,-301 0,-301"/>
<text text-anchor="start" x="8" y="-319" font-family="Helvetica,sans-Serif" font-size="10.00" fill="#000000">js_method_set_home</text>
<text text-anchor="middle" x="55" y="-308" font-family="Helvetica,sans-Serif" font-size="10.00" fill="#000000">_object</text>
</g>
<!-- Node140332 -->
<g id="node2" class="node">
<title>Node140332</title>
<g id="a_node2"><a xlink:href="quickjs_8c.html#ac2894ff4edcdb4e6841bcce9c76081e3" target="_top" xlink:title="JS_CallInternal">
<polygon fill="none" stroke="#000000" points="310,-306.5 310,-325.5 393,-325.5 393,-306.5 310,-306.5"/>
<text text-anchor="middle" x="351.5" y="-313.5" font-family="Helvetica,sans-Serif" font-size="10.00" fill="#000000">JS_CallInternal</text>
</a>
</g>
</g>
<!-- Node140331&#45;&gt;Node140332 -->
<g id="edge1" class="edge">
<title>Node140331&#45;&gt;Node140332</title>
<path fill="none" stroke="#191970" d="M120.1261,-331.283C128.7836,-332.8185 137.5767,-334.13 146,-335 202.5879,-340.8445 217.5216,-341.8221 274,-335 289.4037,-333.1394 306.1632,-329.2701 320.1437,-325.5058"/>
<polygon fill="#191970" stroke="#191970" points="120.5299,-327.7977 110.0555,-329.3907 119.2371,-334.6773 120.5299,-327.7977"/>
</g>
<!-- Node140511 -->
<g id="node29" class="node">
<title>Node140511</title>
<g id="a_node29"><a xlink:href="quickjs_8c.html#a44d4e574b5bd12a89f8389ca79e587a0" target="_top" xlink:title="js_method_set_properties">
<polygon fill="none" stroke="#000000" points="146,-306.5 146,-325.5 274,-325.5 274,-306.5 146,-306.5"/>
<text text-anchor="middle" x="210" y="-313.5" font-family="Helvetica,sans-Serif" font-size="10.00" fill="#000000">js_method_set_properties</text>
</a>
</g>
</g>
<!-- Node140331&#45;&gt;Node140511 -->
<g id="edge37" class="edge">
<title>Node140331&#45;&gt;Node140511</title>
<path fill="none" stroke="#191970" d="M120.2744,-316C128.7331,-316 137.391,-316 145.8315,-316"/>
<polygon fill="#191970" stroke="#191970" points="120.0837,-312.5001 110.0836,-316 120.0836,-319.5001 120.0837,-312.5001"/>
</g>
<!-- Node140585 -->
<g id="node30" class="node">
<title>Node140585</title>
<g id="a_node30"><a xlink:href="quickjs_8c.html#a36322a209de4ef17f939e6d128578d7f" target="_top" xlink:title="js_op_define_class">
<polygon fill="none" stroke="#000000" points="160,-268.5 160,-287.5 260,-287.5 260,-268.5 160,-268.5"/>
<text text-anchor="middle" x="210" y="-275.5" font-family="Helvetica,sans-Serif" font-size="10.00" fill="#000000">js_op_define_class</text>
</a>
</g>
</g>
<!-- Node140331&#45;&gt;Node140585 -->
<g id="edge39" class="edge">
<title>Node140331&#45;&gt;Node140585</title>
<path fill="none" stroke="#191970" d="M120.1717,-300.0224C137.5175,-295.7699 155.709,-291.3101 171.1495,-287.5246"/>
<polygon fill="#191970" stroke="#191970" points="118.9626,-296.7151 110.0836,-302.4956 120.6294,-303.5138 118.9626,-296.7151"/>
</g>
<!-- Node140332&#45;&gt;Node140332 -->
<g id="edge36" class="edge">
<title>Node140332&#45;&gt;Node140332</title>
<path fill="none" stroke="#191970" d="M325.4584,-335.0292C326.8789,-340.128 335.5594,-344 351.5,-344 376.3828,-344 383.5755,-334.5653 373.0781,-325.7571"/>
<polygon fill="#191970" stroke="#191970" points="328.738,-336.2855 329.9219,-325.7571 322.4308,-333.2493 328.738,-336.2855"/>
</g>
<!-- Node140333 -->
<g id="node3" class="node">
<title>Node140333</title>
<g id="a_node3"><a xlink:href="quickjs_8c.html#ade71a22dc56e7371392393df663b28b3" target="_top" xlink:title="async_func_resume">
<polygon fill="none" stroke="#000000" points="444,-798.5 444,-817.5 548,-817.5 548,-798.5 444,-798.5"/>
<text text-anchor="middle" x="496" y="-805.5" font-family="Helvetica,sans-Serif" font-size="10.00" fill="#000000">async_func_resume</text>
</a>
</g>
</g>
<!-- Node140332&#45;&gt;Node140333 -->
<g id="edge2" class="edge">
<title>Node140332&#45;&gt;Node140333</title>
<path fill="none" stroke="#191970" d="M357.2184,-335.4704C381.4696,-418.0418 475.3854,-737.8106 493.1067,-798.1487"/>
<polygon fill="#191970" stroke="#191970" points="360.5626,-334.4363 354.3864,-325.8279 353.8463,-336.4089 360.5626,-334.4363"/>
</g>
<!-- Node140352 -->
<g id="node8" class="node">
<title>Node140352</title>
<g id="a_node8"><a xlink:href="quickjs_8c.html#a1a4c02a29525d5cb2085dd8bca3af350" target="_top" xlink:title="JS_Call">
<polygon fill="none" stroke="#ff0000" points="470.5,-344.5 470.5,-363.5 521.5,-363.5 521.5,-344.5 470.5,-344.5"/>
<text text-anchor="middle" x="496" y="-351.5" font-family="Helvetica,sans-Serif" font-size="10.00" fill="#000000">JS_Call</text>
</a>
</g>
</g>
<!-- Node140332&#45;&gt;Node140352 -->
<g id="edge7" class="edge">
<title>Node140332&#45;&gt;Node140352</title>
<path fill="none" stroke="#191970" d="M403.3524,-323.1309C429.197,-329.291 458.8346,-337.6885 477.4855,-344.4368"/>
<polygon fill="#191970" stroke="#191970" points="403.8269,-319.6484 393.2954,-320.8052 402.2497,-326.4684 403.8269,-319.6484"/>
</g>
<!-- Node140438 -->
<g id="node27" class="node">
<title>Node140438</title>
<g id="a_node27"><a xlink:href="quickjs_8c.html#ad35594576a14c10812efaf958c99af8a" target="_top" xlink:title="JS_CallConstructorInternal">
<polygon fill="none" stroke="#ff0000" points="429,-306.5 429,-325.5 563,-325.5 563,-306.5 429,-306.5"/>
<text text-anchor="middle" x="496" y="-313.5" font-family="Helvetica,sans-Serif" font-size="10.00" fill="#000000">JS_CallConstructorInternal</text>
</a>
</g>
</g>
<!-- Node140332&#45;&gt;Node140438 -->
<g id="edge31" class="edge">
<title>Node140332&#45;&gt;Node140438</title>
<path fill="none" stroke="#191970" d="M403.5209,-309.4909C411.7845,-309.2892 420.4321,-309.2142 428.9815,-309.2658"/>
<polygon fill="#191970" stroke="#191970" points="403.1798,-305.9998 393.2954,-309.814 403.401,-312.9963 403.1798,-305.9998"/>
</g>
<!-- Node140452 -->
<g id="node28" class="node">
<title>Node140452</title>
<g id="a_node28"><a xlink:href="quickjs_8c.html#a75f6ee5e4235a7dc99889f3d2eb2c147" target="_top" xlink:title="JS_CallFree">
<polygon fill="none" stroke="#ff0000" points="460.5,-230.5 460.5,-249.5 531.5,-249.5 531.5,-230.5 460.5,-230.5"/>
<text text-anchor="middle" x="496" y="-237.5" font-family="Helvetica,sans-Serif" font-size="10.00" fill="#000000">JS_CallFree</text>
</a>
</g>
</g>
<!-- Node140332&#45;&gt;Node140452 -->
<g id="edge33" class="edge">
<title>Node140332&#45;&gt;Node140452</title>
<path fill="none" stroke="#191970" d="M364.7672,-299.0299C379.7224,-285.2493 405.0793,-267.0749 429,-255 438.8168,-250.0446 449.9057,-245.634 460.1959,-242.3665"/>
<polygon fill="#191970" stroke="#191970" points="362.2175,-296.6295 357.604,-306.1672 367.1583,-301.5882 362.2175,-296.6295"/>
</g>
<!-- Node140334 -->
<g id="node4" class="node">
<title>Node140334</title>
<g id="a_node4"><a xlink:href="quickjs_8c.html#ac90552b1f1659acb3dae9a4c62479a30" target="_top" xlink:title="js_generator_function_call">
<polygon fill="none" stroke="#ff0000" points="600.5,-891.5 600.5,-910.5 730.5,-910.5 730.5,-891.5 600.5,-891.5"/>
<text text-anchor="middle" x="665.5" y="-898.5" font-family="Helvetica,sans-Serif" font-size="10.00" fill="#000000">js_generator_function_call</text>
</a>
</g>
</g>
<!-- Node140333&#45;&gt;Node140334 -->
<g id="edge3" class="edge">
<title>Node140333&#45;&gt;Node140334</title>
<path fill="none" stroke="#191970" d="M514.4671,-824.3133C534.1641,-840.9499 566.8865,-866.4617 599,-882 606.782,-885.7654 615.4469,-888.9157 623.8825,-891.499"/>
<polygon fill="#191970" stroke="#191970" points="516.488,-821.4351 506.6226,-817.5717 511.9255,-826.7439 516.488,-821.4351"/>
</g>
<!-- Node140343 -->
<g id="node5" class="node">
<title>Node140343</title>
<g id="a_node5"><a xlink:href="quickjs_8c.html#a1bf6b62983e8fff99c0a5d5a9f486115" target="_top" xlink:title="js_async_function_resume">
<polygon fill="none" stroke="#ff0000" points="599,-754.5 599,-773.5 732,-773.5 732,-754.5 599,-754.5"/>
<text text-anchor="middle" x="665.5" y="-761.5" font-family="Helvetica,sans-Serif" font-size="10.00" fill="#000000">js_async_function_resume</text>
</a>
</g>
</g>
<!-- Node140333&#45;&gt;Node140343 -->
<g id="edge4" class="edge">
<title>Node140333&#45;&gt;Node140343</title>
<path fill="none" stroke="#191970" d="M542.4651,-795.9383C569.6496,-788.8815 603.4877,-780.0976 628.7928,-773.5287"/>
<polygon fill="#191970" stroke="#191970" points="541.5787,-792.5523 532.779,-798.4527 543.3376,-799.3277 541.5787,-792.5523"/>
</g>
<!-- Node140350 -->
<g id="node6" class="node">
<title>Node140350</title>
<g id="a_node6"><a xlink:href="quickjs_8c.html#a89b019c704a2d2914bc30b30a72040b3" target="_top" xlink:title="js_async_generator\l_resume_next">
<polygon fill="none" stroke="#000000" points="615,-842 615,-872 716,-872 716,-842 615,-842"/>
<text text-anchor="start" x="623" y="-860" font-family="Helvetica,sans-Serif" font-size="10.00" fill="#000000">js_async_generator</text>
<text text-anchor="middle" x="665.5" y="-849" font-family="Helvetica,sans-Serif" font-size="10.00" fill="#000000">_resume_next</text>
</a>
</g>
</g>
<!-- Node140333&#45;&gt;Node140350 -->
<g id="edge5" class="edge">
<title>Node140333&#45;&gt;Node140350</title>
<path fill="none" stroke="#191970" d="M538.9372,-820.4125C562.0226,-827.0862 590.6309,-835.3564 614.805,-842.3448"/>
<polygon fill="#191970" stroke="#191970" points="539.6623,-816.9789 529.0837,-817.564 537.7183,-823.7036 539.6623,-816.9789"/>
</g>
<!-- Node140351 -->
<g id="node7" class="node">
<title>Node140351</title>
<g id="a_node7"><a xlink:href="quickjs_8c.html#ae19867da709929c072f05e90301835a4" target="_top" xlink:title="js_async_generator\l_function_call">
<polygon fill="none" stroke="#ff0000" points="615,-793 615,-823 716,-823 716,-793 615,-793"/>
<text text-anchor="start" x="623" y="-811" font-family="Helvetica,sans-Serif" font-size="10.00" fill="#000000">js_async_generator</text>
<text text-anchor="middle" x="665.5" y="-800" font-family="Helvetica,sans-Serif" font-size="10.00" fill="#000000">_function_call</text>
</a>
</g>
</g>
<!-- Node140333&#45;&gt;Node140351 -->
<g id="edge6" class="edge">
<title>Node140333&#45;&gt;Node140351</title>
<path fill="none" stroke="#191970" d="M558.388,-808C576.9885,-808 597.1368,-808 614.8866,-808"/>
<polygon fill="#191970" stroke="#191970" points="558.2387,-804.5001 548.2387,-808 558.2386,-811.5001 558.2387,-804.5001"/>
</g>
<!-- Node140352&#45;&gt;Node140332 -->
<g id="edge14" class="edge">
<title>Node140352&#45;&gt;Node140332</title>
<path fill="none" stroke="#191970" d="M460.4088,-350.5497C431.8289,-344.469 392.8374,-333.8129 370.095,-325.5924"/>
<polygon fill="#191970" stroke="#191970" points="459.923,-354.0222 470.4179,-352.57 461.3081,-347.1605 459.923,-354.0222"/>
</g>
<!-- Node140352&#45;&gt;Node140343 -->
<g id="edge15" class="edge">
<title>Node140352&#45;&gt;Node140343</title>
<path fill="none" stroke="#191970" d="M498.6164,-373.8269C508.4661,-445.5819 545.4968,-690.3763 599,-745 602.7808,-748.86 607.2873,-751.9501 612.1474,-754.4216"/>
<polygon fill="#191970" stroke="#191970" points="502.0764,-373.2942 497.2706,-363.852 495.1392,-374.2302 502.0764,-373.2942"/>
</g>
<!-- Node140353 -->
<g id="node9" class="node">
<title>Node140353</title>
<g id="a_node9"><a xlink:href="structqjs_1_1js__traits_3_01std_1_1function_3_01R_07Args_8_8_8_08_4_01_4.html#ac449e51d3fe10c6c115596fa6ec278ee" target="_top" xlink:title="qjs::js_traits\&lt; std\l::function\&lt; R(Args...)\l\&gt; \&gt;::unwrap">
<polygon fill="none" stroke="#000000" points="611,-600.5 611,-641.5 720,-641.5 720,-600.5 611,-600.5"/>
<text text-anchor="start" x="619" y="-629.5" font-family="Helvetica,sans-Serif" font-size="10.00" fill="#000000">qjs::js_traits&lt; std</text>
<text text-anchor="start" x="619" y="-618.5" font-family="Helvetica,sans-Serif" font-size="10.00" fill="#000000">::function&lt; R(Args...)</text>
<text text-anchor="middle" x="665.5" y="-607.5" font-family="Helvetica,sans-Serif" font-size="10.00" fill="#000000">&gt; &gt;::unwrap</text>
</a>
</g>
</g>
<!-- Node140352&#45;&gt;Node140353 -->
<g id="edge8" class="edge">
<title>Node140352&#45;&gt;Node140353</title>
<path fill="none" stroke="#191970" d="M499.5121,-373.529C508.4196,-417.807 535.8221,-526.943 599,-591 602.5575,-594.607 606.6269,-597.8193 610.9612,-600.6721"/>
<polygon fill="#191970" stroke="#191970" points="502.9126,-372.6766 497.595,-363.5129 496.0374,-373.9926 502.9126,-372.6766"/>
</g>
<!-- Node140354 -->
<g id="node10" class="node">
<title>Node140354</title>
<g id="a_node10"><a xlink:href="quickjs-libc_8c.html#abb1cbe3fdf905e81f603a3a0bfce475a" target="_top" xlink:title="call_handler">
<polygon fill="none" stroke="#000000" points="631.5,-562.5 631.5,-581.5 699.5,-581.5 699.5,-562.5 631.5,-562.5"/>
<text text-anchor="middle" x="665.5" y="-569.5" font-family="Helvetica,sans-Serif" font-size="10.00" fill="#000000">call_handler</text>
</a>
</g>
</g>
<!-- Node140352&#45;&gt;Node140354 -->
<g id="edge9" class="edge">
<title>Node140352&#45;&gt;Node140354</title>
<path fill="none" stroke="#191970" d="M500.5141,-373.3938C510.8065,-413.2305 539.8301,-504.5874 599,-553 608.1071,-560.4514 619.9868,-564.9822 631.1818,-567.7365"/>
<polygon fill="#191970" stroke="#191970" points="503.892,-372.4729 498.0984,-363.6025 497.0958,-374.1498 503.892,-372.4729"/>
</g>
<!-- Node140355 -->
<g id="node11" class="node">
<title>Node140355</title>
<g id="a_node11"><a xlink:href="quickjs-libc_8c.html#a9fa4c190ba56314c7ed9b00bbc7ad0f9" target="_top" xlink:title="handle_posted_message">
<polygon fill="none" stroke="#000000" points="603,-524.5 603,-543.5 728,-543.5 728,-524.5 603,-524.5"/>
<text text-anchor="middle" x="665.5" y="-531.5" font-family="Helvetica,sans-Serif" font-size="10.00" fill="#000000">handle_posted_message</text>
</a>
</g>
</g>
<!-- Node140352&#45;&gt;Node140355 -->
<g id="edge10" class="edge">
<title>Node140352&#45;&gt;Node140355</title>
<path fill="none" stroke="#191970" d="M503.0315,-373.3505C516.3608,-407.2777 548.5656,-477.451 599,-515 604.2007,-518.872 610.1663,-521.9559 616.3427,-524.4119"/>
<polygon fill="#191970" stroke="#191970" points="506.1881,-371.8037 499.3678,-363.696 499.6435,-374.2873 506.1881,-371.8037"/>
</g>
<!-- Node140356 -->
<g id="node12" class="node">
<title>Node140356</title>
<g id="a_node12"><a xlink:href="quickjs_8c.html#aa049793cc8648d35fe81876a2543ca4e" target="_top" xlink:title="JS_GetIterator2">
<polygon fill="none" stroke="#ff0000" points="622.5,-486.5 622.5,-505.5 708.5,-505.5 708.5,-486.5 622.5,-486.5"/>
<text text-anchor="middle" x="665.5" y="-493.5" font-family="Helvetica,sans-Serif" font-size="10.00" fill="#000000">JS_GetIterator2</text>
</a>
</g>
</g>
<!-- Node140352&#45;&gt;Node140356 -->
<g id="edge11" class="edge">
<title>Node140352&#45;&gt;Node140356</title>
<path fill="none" stroke="#191970" d="M506.51,-372.5065C522.8142,-399.537 556.7681,-449.5729 599,-477 606.0489,-481.5778 614.215,-485.0728 622.3603,-487.7347"/>
<polygon fill="#191970" stroke="#191970" points="509.4031,-370.5215 501.319,-363.6733 503.368,-374.0681 509.4031,-370.5215"/>
</g>
<!-- Node140388 -->
<g id="node13" class="node">
<title>Node140388</title>
<g id="a_node13"><a xlink:href="quickjs_8c.html#ad6303fbd3add4afa0cb64b0aa6d431ce" target="_top" xlink:title="JS_IteratorNext2">
<polygon fill="none" stroke="#ff0000" points="620,-448.5 620,-467.5 711,-467.5 711,-448.5 620,-448.5"/>
<text text-anchor="middle" x="665.5" y="-455.5" font-family="Helvetica,sans-Serif" font-size="10.00" fill="#000000">JS_IteratorNext2</text>
</a>
</g>
</g>
<!-- Node140352&#45;&gt;Node140388 -->
<g id="edge12" class="edge">
<title>Node140352&#45;&gt;Node140388</title>
<path fill="none" stroke="#191970" d="M511.9681,-370.8442C530.9921,-389.9775 564.5521,-420.8852 599,-439 606.2266,-442.8002 614.306,-445.9221 622.2754,-448.4579"/>
<polygon fill="#191970" stroke="#191970" points="514.4573,-368.3835 504.9684,-363.6705 509.4471,-373.2722 514.4573,-368.3835"/>
</g>
<!-- Node140392 -->
<g id="node14" class="node">
<title>Node140392</title>
<g id="a_node14"><a xlink:href="quickjs_8c.html#afd4ef2d701fa0702f321925b61c57bbf" target="_top" xlink:title="js_call_bound_function">
<polygon fill="none" stroke="#ff0000" points="607.5,-410.5 607.5,-429.5 723.5,-429.5 723.5,-410.5 607.5,-410.5"/>
<text text-anchor="middle" x="665.5" y="-417.5" font-family="Helvetica,sans-Serif" font-size="10.00" fill="#000000">js_call_bound_function</text>
</a>
</g>
</g>
<!-- Node140352&#45;&gt;Node140392 -->
<g id="edge13" class="edge">
<title>Node140352&#45;&gt;Node140392</title>
<path fill="none" stroke="#191970" d="M523.6876,-368.0059C544.1566,-378.0203 572.8896,-391.3743 599,-401 608.3507,-404.4472 618.6284,-407.6563 628.2491,-410.4194"/>
<polygon fill="#191970" stroke="#191970" points="525.1432,-364.8212 514.6277,-363.5272 522.0411,-371.0963 525.1432,-364.8212"/>
</g>
<!-- Node140393 -->
<g id="node15" class="node">
<title>Node140393</title>
<g id="a_node15"><a xlink:href="quickjs_8c.html#a3e852026d167fa03c673f86697dd3e67" target="_top" xlink:title="js_async_generator\l_resolve_or_reject">
<polygon fill="none" stroke="#ff0000" points="615,-361 615,-391 716,-391 716,-361 615,-361"/>
<text text-anchor="start" x="623" y="-379" font-family="Helvetica,sans-Serif" font-size="10.00" fill="#000000">js_async_generator</text>
<text text-anchor="middle" x="665.5" y="-368" font-family="Helvetica,sans-Serif" font-size="10.00" fill="#000000">_resolve_or_reject</text>
</a>
</g>
</g>
<!-- Node140352&#45;&gt;Node140393 -->
<g id="edge16" class="edge">
<title>Node140352&#45;&gt;Node140393</title>
<path fill="none" stroke="#191970" d="M531.8847,-358.6576C556.0145,-361.7895 588.1716,-365.9633 614.8919,-369.4314"/>
<polygon fill="#191970" stroke="#191970" points="532.1107,-355.1577 521.7434,-357.3413 531.2097,-362.0994 532.1107,-355.1577"/>
</g>
<!-- Node140396 -->
<g id="node16" class="node">
<title>Node140396</title>
<g id="a_node16"><a xlink:href="quickjs_8c.html#a2355fabf91f59212ea65baba1b0b7c1b" target="_top" xlink:title="js_async_generator_next">
<polygon fill="none" stroke="#000000" points="603,-322.5 603,-341.5 728,-341.5 728,-322.5 603,-322.5"/>
<text text-anchor="middle" x="665.5" y="-329.5" font-family="Helvetica,sans-Serif" font-size="10.00" fill="#000000">js_async_generator_next</text>
</a>
</g>
</g>
<!-- Node140352&#45;&gt;Node140396 -->
<g id="edge17" class="edge">
<title>Node140352&#45;&gt;Node140396</title>
<path fill="none" stroke="#191970" d="M531.9311,-349.3364C552.5135,-346.6649 578.9253,-343.2368 602.8209,-340.1353"/>
<polygon fill="#191970" stroke="#191970" points="531.2097,-345.9006 521.7434,-350.6587 532.1107,-352.8423 531.2097,-345.9006"/>
</g>
<!-- Node140397 -->
<g id="node17" class="node">
<title>Node140397</title>
<g id="a_node17"><a xlink:href="quickjs_8c.html#adc0280beaa04d2b8fcaf05a82ab26c74" target="_top" xlink:title="js_link_module">
<polygon fill="none" stroke="#ff0000" points="625,-266.5 625,-285.5 706,-285.5 706,-266.5 625,-266.5"/>
<text text-anchor="middle" x="665.5" y="-273.5" font-family="Helvetica,sans-Serif" font-size="10.00" fill="#000000">js_link_module</text>
</a>
</g>
</g>
<!-- Node140352&#45;&gt;Node140397 -->
<g id="edge18" class="edge">
<title>Node140352&#45;&gt;Node140397</title>
<path fill="none" stroke="#191970" d="M531.6644,-345.8234C541.9776,-342.9443 553.114,-339.3255 563,-335 580.1788,-327.4837 582.8038,-322.4493 599,-313 615.4328,-303.4127 634.4197,-292.9041 647.8879,-285.5441"/>
<polygon fill="#191970" stroke="#191970" points="530.4768,-342.517 521.7023,-348.4548 532.2645,-349.2849 530.4768,-342.517"/>
</g>
<!-- Node140401 -->
<g id="node18" class="node">
<title>Node140401</title>
<g id="a_node18"><a xlink:href="quickjs_8c.html#a6357b7fdae71c70c140e78e6c20cb5c2" target="_top" xlink:title="js_dynamic_import_job">
<polygon fill="none" stroke="#ff0000" points="607.5,-228.5 607.5,-247.5 723.5,-247.5 723.5,-228.5 607.5,-228.5"/>
<text text-anchor="middle" x="665.5" y="-235.5" font-family="Helvetica,sans-Serif" font-size="10.00" fill="#000000">js_dynamic_import_job</text>
</a>
</g>
</g>
<!-- Node140352&#45;&gt;Node140401 -->
<g id="edge20" class="edge">
<title>Node140352&#45;&gt;Node140401</title>
<path fill="none" stroke="#191970" d="M531.5651,-349.8251C542.6222,-347.0718 554.205,-342.5192 563,-335 592.0206,-310.189 570.0039,-281.8396 599,-257 603.5593,-253.0942 608.8745,-249.9893 614.4762,-247.5215"/>
<polygon fill="#191970" stroke="#191970" points="530.7341,-346.4229 521.6534,-351.8812 532.1559,-353.2769 530.7341,-346.4229"/>
</g>
<!-- Node140405 -->
<g id="node19" class="node">
<title>Node140405</title>
<g id="a_node19"><a xlink:href="quickjs_8c.html#a8d4b24969540aff427939eeda47f451d" target="_top" xlink:title="js_function_apply">
<polygon fill="none" stroke="#ff0000" points="619.5,-38.5 619.5,-57.5 711.5,-57.5 711.5,-38.5 619.5,-38.5"/>
<text text-anchor="middle" x="665.5" y="-45.5" font-family="Helvetica,sans-Serif" font-size="10.00" fill="#000000">js_function_apply</text>
</a>
</g>
</g>
<!-- Node140352&#45;&gt;Node140405 -->
<g id="edge21" class="edge">
<title>Node140352&#45;&gt;Node140405</title>
<path fill="none" stroke="#191970" d="M531.5755,-351.5943C543.1811,-349.0132 555.1003,-344.1168 563,-335 641.7018,-244.1734 520.3878,-157.9042 599,-67 604.3408,-60.8242 611.5362,-56.5887 619.2243,-53.6984"/>
<polygon fill="#191970" stroke="#191970" points="530.8291,-348.1711 521.5663,-353.3142 532.0146,-355.07 530.8291,-348.1711"/>
</g>
<!-- Node140408 -->
<g id="node20" class="node">
<title>Node140408</title>
<g id="a_node20"><a xlink:href="quickjs_8c.html#a677ad630a103e1f3d5129e0549112b50" target="_top" xlink:title="js_function_call">
<polygon fill="none" stroke="#000000" points="623.5,-190.5 623.5,-209.5 707.5,-209.5 707.5,-190.5 623.5,-190.5"/>
<text text-anchor="middle" x="665.5" y="-197.5" font-family="Helvetica,sans-Serif" font-size="10.00" fill="#000000">js_function_call</text>
</a>
</g>
</g>
<!-- Node140352&#45;&gt;Node140408 -->
<g id="edge23" class="edge">
<title>Node140352&#45;&gt;Node140408</title>
<path fill="none" stroke="#191970" d="M531.6361,-350.6142C542.8973,-347.9244 554.5855,-343.2101 563,-335 601.637,-297.3017 560.4002,-256.7364 599,-219 605.6969,-212.4529 614.4864,-208.1315 623.4716,-205.2875"/>
<polygon fill="#191970" stroke="#191970" points="530.6807,-347.2336 521.5205,-352.5573 532.0012,-354.108 530.6807,-347.2336"/>
</g>
<!-- Node140359 -->
<g id="node21" class="node">
<title>Node140359</title>
<g id="a_node21"><a xlink:href="quickjs_8c.html#a5e32da9a43002cb96dcbd62a1a340144" target="_top" xlink:title="js_array_from">
<polygon fill="none" stroke="#000000" points="627.5,-152.5 627.5,-171.5 703.5,-171.5 703.5,-152.5 627.5,-152.5"/>
<text text-anchor="middle" x="665.5" y="-159.5" font-family="Helvetica,sans-Serif" font-size="10.00" fill="#000000">js_array_from</text>
</a>
</g>
</g>
<!-- Node140352&#45;&gt;Node140359 -->
<g id="edge24" class="edge">
<title>Node140352&#45;&gt;Node140359</title>
<path fill="none" stroke="#191970" d="M531.9799,-350.9541C543.2668,-348.2899 554.8834,-343.5047 563,-335 611.5287,-284.1511 550.5215,-231.8967 599,-181 606.4531,-173.1751 616.8849,-168.5037 627.2798,-165.7357"/>
<polygon fill="#191970" stroke="#191970" points="531.0052,-347.5755 521.8169,-352.8505 532.2892,-354.4567 531.0052,-347.5755"/>
</g>
<!-- Node140385 -->
<g id="node22" class="node">
<title>Node140385</title>
<g id="a_node22"><a xlink:href="quickjs_8c.html#aa0bbf08a7e91459c68a312fba7016c6d" target="_top" xlink:title="js_array_every">
<polygon fill="none" stroke="#000000" points="625.5,-114.5 625.5,-133.5 705.5,-133.5 705.5,-114.5 625.5,-114.5"/>
<text text-anchor="middle" x="665.5" y="-121.5" font-family="Helvetica,sans-Serif" font-size="10.00" fill="#000000">js_array_every</text>
</a>
</g>
</g>
<!-- Node140352&#45;&gt;Node140385 -->
<g id="edge25" class="edge">
<title>Node140352&#45;&gt;Node140385</title>
<path fill="none" stroke="#191970" d="M531.584,-351.3013C543.0814,-348.6843 554.9298,-343.84 563,-335 621.5361,-270.8805 540.5272,-207.1772 599,-143 605.8737,-135.4557 615.5141,-130.8267 625.3262,-128.0087"/>
<polygon fill="#191970" stroke="#191970" points="530.9027,-347.8675 521.6743,-353.0721 532.1341,-354.7583 530.9027,-347.8675"/>
</g>
<!-- Node140409 -->
<g id="node23" class="node">
<title>Node140409</title>
<g id="a_node23"><a xlink:href="quickjs_8c.html#a36c1692489542a86dd79a7d39ab8ff95" target="_top" xlink:title="js_array_reduce">
<polygon fill="none" stroke="#000000" points="622.5,-76.5 622.5,-95.5 708.5,-95.5 708.5,-76.5 622.5,-76.5"/>
<text text-anchor="middle" x="665.5" y="-83.5" font-family="Helvetica,sans-Serif" font-size="10.00" fill="#000000">js_array_reduce</text>
</a>
</g>
</g>
<!-- Node140352&#45;&gt;Node140409 -->
<g id="edge26" class="edge">
<title>Node140352&#45;&gt;Node140409</title>
<path fill="none" stroke="#191970" d="M531.7351,-351.4371C543.2456,-348.832 555.0637,-343.9604 563,-335 631.6021,-257.5459 530.4743,-182.5217 599,-105 605.1233,-98.0729 613.5792,-93.594 622.4106,-90.7172"/>
<polygon fill="#191970" stroke="#191970" points="531.0441,-348.0049 521.8042,-353.1889 532.2601,-354.8984 531.0441,-348.0049"/>
</g>
<!-- Node140410 -->
<g id="node24" class="node">
<title>Node140410</title>
<g id="a_node24"><a xlink:href="quickjs_8c.html#a9dd41b086da4e13b3487cc9c6e2af2b8" target="_top" xlink:title="js_array_find">
<polygon fill="none" stroke="#000000" points="629.5,-716.5 629.5,-735.5 701.5,-735.5 701.5,-716.5 629.5,-716.5"/>
<text text-anchor="middle" x="665.5" y="-723.5" font-family="Helvetica,sans-Serif" font-size="10.00" fill="#000000">js_array_find</text>
</a>
</g>
</g>
<!-- Node140352&#45;&gt;Node140410 -->
<g id="edge27" class="edge">
<title>Node140352&#45;&gt;Node140410</title>
<path fill="none" stroke="#191970" d="M499.1767,-373.5969C510.3934,-440.4938 550.1095,-658.3827 599,-707 607.0884,-715.0432 618.3314,-719.7333 629.2739,-722.4514"/>
<polygon fill="#191970" stroke="#191970" points="502.6026,-372.8607 497.5199,-363.5647 495.6962,-374.0014 502.6026,-372.8607"/>
</g>
<!-- Node140411 -->
<g id="node25" class="node">
<title>Node140411</title>
<g id="a_node25"><a xlink:href="quickjs_8c.html#ad90c33b4aae1181151bda4a98ac2ef23" target="_top" xlink:title="JS_FlattenIntoArray">
<polygon fill="none" stroke="#ff0000" points="613.5,-660.5 613.5,-679.5 717.5,-679.5 717.5,-660.5 613.5,-660.5"/>
<text text-anchor="middle" x="665.5" y="-667.5" font-family="Helvetica,sans-Serif" font-size="10.00" fill="#000000">JS_FlattenIntoArray</text>
</a>
</g>
</g>
<!-- Node140352&#45;&gt;Node140411 -->
<g id="edge28" class="edge">
<title>Node140352&#45;&gt;Node140411</title>
<path fill="none" stroke="#191970" d="M496.8418,-373.722C500.1925,-426.6849 516.8161,-573.257 599,-651 603.1869,-654.9607 608.1416,-658.104 613.429,-660.5974"/>
<polygon fill="#191970" stroke="#191970" points="500.3316,-373.4366 496.298,-363.6397 493.3418,-373.8137 500.3316,-373.4366"/>
</g>
<!-- Node140413 -->
<g id="node26" class="node">
<title>Node140413</title>
<g id="a_node26"><a xlink:href="quickjs_8c.html#aed1bf9ce4b9e3a82388679dd6ec7635b" target="_top" xlink:title="js_string_replace">
<polygon fill="none" stroke="#000000" points="620.5,-.5 620.5,-19.5 710.5,-19.5 710.5,-.5 620.5,-.5"/>
<text text-anchor="middle" x="665.5" y="-7.5" font-family="Helvetica,sans-Serif" font-size="10.00" fill="#000000">js_string_replace</text>
</a>
</g>
</g>
<!-- Node140352&#45;&gt;Node140413 -->
<g id="edge30" class="edge">
<title>Node140352&#45;&gt;Node140413</title>
<path fill="none" stroke="#191970" d="M531.6594,-351.6664C543.2728,-349.092 555.1754,-344.1813 563,-335 651.8227,-230.7765 510.2802,-133.311 599,-29 604.5232,-22.5061 612.098,-18.1529 620.1614,-15.2523"/>
<polygon fill="#191970" stroke="#191970" points="530.9071,-348.2441 521.638,-353.3759 532.0842,-355.1444 530.9071,-348.2441"/>
</g>
<!-- Node140397&#45;&gt;Node140397 -->
<g id="edge19" class="edge">
<title>Node140397&#45;&gt;Node140397</title>
<path fill="none" stroke="#191970" d="M634.0629,-294.2746C634.9592,-299.741 645.4382,-304 665.5,-304 695.3594,-304 703.9906,-294.5653 691.3937,-285.7571"/>
<polygon fill="#191970" stroke="#191970" points="637.085,-296.0475 639.6063,-285.7571 631.2181,-292.2291 637.085,-296.0475"/>
</g>
<!-- Node140405&#45;&gt;Node140332 -->
<g id="edge22" class="edge">
<title>Node140405&#45;&gt;Node140332</title>
<path fill="none" stroke="#191970" d="M610.3896,-58.1043C606.1542,-60.4907 602.265,-63.4165 599,-67 540.5272,-131.1772 621.9541,-195.2647 563,-259 559.99,-262.2541 449.1152,-291.0188 389.1355,-306.3972"/>
<polygon fill="#191970" stroke="#191970" points="611.856,-61.2824 619.4803,-53.9256 608.9324,-54.9221 611.856,-61.2824"/>
</g>
<!-- Node140411&#45;&gt;Node140411 -->
<g id="edge29" class="edge">
<title>Node140411&#45;&gt;Node140411</title>
<path fill="none" stroke="#191970" d="M634.0629,-688.2746C634.9592,-693.741 645.4382,-698 665.5,-698 695.3594,-698 703.9906,-688.5653 691.3937,-679.7571"/>
<polygon fill="#191970" stroke="#191970" points="637.085,-690.0475 639.6063,-679.7571 631.2181,-686.2291 637.085,-690.0475"/>
</g>
<!-- Node140438&#45;&gt;Node140332 -->
<g id="edge32" class="edge">
<title>Node140438&#45;&gt;Node140332</title>
<path fill="none" stroke="#191970" d="M418.7059,-322.7354C409.9651,-322.6845 401.3232,-322.5014 393.2954,-322.186"/>
<polygon fill="#191970" stroke="#191970" points="418.9819,-326.2354 428.9815,-322.7342 418.981,-319.2354 418.9819,-326.2354"/>
</g>
<!-- Node140452&#45;&gt;Node140332 -->
<g id="edge34" class="edge">
<title>Node140452&#45;&gt;Node140332</title>
<path fill="none" stroke="#191970" d="M474.8863,-253.7982C461.4116,-259.3247 443.7665,-265.546 429,-273 409.4729,-282.8571 388.9887,-296.7788 373.9872,-306.4172"/>
<polygon fill="#191970" stroke="#191970" points="476.5011,-256.9122 484.2609,-249.6986 473.6963,-250.4986 476.5011,-256.9122"/>
</g>
<!-- Node140452&#45;&gt;Node140413 -->
<g id="edge35" class="edge">
<title>Node140452&#45;&gt;Node140413</title>
<path fill="none" stroke="#191970" d="M499.9593,-220.3095C509.393,-178.5726 537.1817,-80.8038 599,-29 605.166,-23.8329 612.6595,-20.069 620.3633,-17.3278"/>
<polygon fill="#191970" stroke="#191970" points="496.492,-219.7859 497.8153,-230.2978 503.3361,-221.2551 496.492,-219.7859"/>
</g>
<!-- Node140511&#45;&gt;Node140332 -->
<g id="edge38" class="edge">
<title>Node140511&#45;&gt;Node140332</title>
<path fill="none" stroke="#191970" d="M284.3977,-316C293.1461,-316 301.8199,-316 309.8822,-316"/>
<polygon fill="#191970" stroke="#191970" points="284.1259,-312.5001 274.1258,-316 284.1258,-319.5001 284.1259,-312.5001"/>
</g>
<!-- Node140585&#45;&gt;Node140332 -->
<g id="edge40" class="edge">
<title>Node140585&#45;&gt;Node140332</title>
<path fill="none" stroke="#191970" d="M255.601,-290.2462C275.105,-295.484 297.5404,-301.5091 315.805,-306.4141"/>
<polygon fill="#191970" stroke="#191970" points="256.272,-286.8025 245.7064,-287.589 254.4564,-293.5629 256.272,-286.8025"/>
</g>
</g>
</svg>
