<?xml version="1.0" encoding="UTF-8" standalone="no"?>
<!DOCTYPE svg PUBLIC "-//W3C//DTD SVG 1.1//EN"
 "http://www.w3.org/Graphics/SVG/1.1/DTD/svg11.dtd">
<!-- Generated by graphviz version 2.40.1 (20161225.0304)
 -->
<!-- Title: JS_NewCFunction3 Pages: 1 -->
<svg width="1221pt" height="390pt"
 viewBox="0.00 0.00 1221.00 389.86" xmlns="http://www.w3.org/2000/svg" xmlns:xlink="http://www.w3.org/1999/xlink">
<g id="graph0" class="graph" transform="scale(1 1) rotate(0) translate(4 385.8641)">
<title>JS_NewCFunction3</title>
<!-- Node143465 -->
<g id="node1" class="node">
<title>Node143465</title>
<polygon fill="#bfbfbf" stroke="#000000" points="0,-181.7308 0,-200.7308 104,-200.7308 104,-181.7308 0,-181.7308"/>
<text text-anchor="middle" x="52" y="-188.7308" font-family="Helvetica,sans-Serif" font-size="10.00" fill="#000000">JS_NewCFunction3</text>
</g>
<!-- Node143466 -->
<g id="node2" class="node">
<title>Node143466</title>
<g id="a_node2"><a xlink:href="quickjs_8c.html#a4c9489297c684663f30e517204a9ec14" target="_top" xlink:title="JS_AddIntrinsicBaseObjects">
<polygon fill="none" stroke="#000000" points="654,-276.7308 654,-295.7308 796,-295.7308 796,-276.7308 654,-276.7308"/>
<text text-anchor="middle" x="725" y="-283.7308" font-family="Helvetica,sans-Serif" font-size="10.00" fill="#000000">JS_AddIntrinsicBaseObjects</text>
</a>
</g>
</g>
<!-- Node143465&#45;&gt;Node143466 -->
<g id="edge1" class="edge">
<title>Node143465&#45;&gt;Node143466</title>
<path fill="none" stroke="#191970" d="M69.3563,-208.2533C105.0991,-241.9683 191.0579,-316.3013 280,-343.2308 348.4853,-363.9665 375.2673,-371.5046 441,-343.2308 462.3713,-334.0383 455.9957,-315.2334 477,-305.2308 532.2636,-278.9133 602.3628,-275.9151 653.9248,-278.4807"/>
<polygon fill="#191970" stroke="#191970" points="71.3962,-205.3608 61.7526,-200.9732 66.5552,-210.417 71.3962,-205.3608"/>
</g>
<!-- Node143471 -->
<g id="node5" class="node">
<title>Node143471</title>
<g id="a_node5"><a xlink:href="quickjs_8c.html#a7efb53c2f76fd5cc0e584449437ec09c" target="_top" xlink:title="JS_AddIntrinsicBasicObjects">
<polygon fill="none" stroke="#000000" points="653,-48.7308 653,-67.7308 797,-67.7308 797,-48.7308 653,-48.7308"/>
<text text-anchor="middle" x="725" y="-55.7308" font-family="Helvetica,sans-Serif" font-size="10.00" fill="#000000">JS_AddIntrinsicBasicObjects</text>
</a>
</g>
</g>
<!-- Node143465&#45;&gt;Node143471 -->
<g id="edge4" class="edge">
<title>Node143465&#45;&gt;Node143471</title>
<path fill="none" stroke="#191970" d="M74.4151,-175.9486C113.8873,-150.0006 199.2817,-98.1134 280,-77.2308 408.015,-44.1121 563.5611,-46.7604 652.7404,-52.1703"/>
<polygon fill="#191970" stroke="#191970" points="72.2191,-173.2058 65.8332,-181.6598 76.0974,-179.0333 72.2191,-173.2058"/>
</g>
<!-- Node143473 -->
<g id="node7" class="node">
<title>Node143473</title>
<g id="a_node7"><a xlink:href="quickjs_8c.html#a2e66fcf1bc1d19f346317f10ee590621" target="_top" xlink:title="JS_AddIntrinsicPromise">
<polygon fill="none" stroke="#000000" points="664,-10.7308 664,-29.7308 786,-29.7308 786,-10.7308 664,-10.7308"/>
<text text-anchor="middle" x="725" y="-17.7308" font-family="Helvetica,sans-Serif" font-size="10.00" fill="#000000">JS_AddIntrinsicPromise</text>
</a>
</g>
</g>
<!-- Node143465&#45;&gt;Node143473 -->
<g id="edge7" class="edge">
<title>Node143465&#45;&gt;Node143473</title>
<path fill="none" stroke="#191970" d="M62.2599,-172.799C76.5353,-148.8959 104.6637,-107.622 140,-85.2308 305.7289,19.7852 551.927,3.8397 664.6679,-10.6966"/>
<polygon fill="#191970" stroke="#191970" points="59.1488,-171.1872 57.1657,-181.5949 65.2062,-174.6955 59.1488,-171.1872"/>
</g>
<!-- Node143474 -->
<g id="node8" class="node">
<title>Node143474</title>
<g id="a_node8"><a xlink:href="quickjs_8c.html#a177d09828596bfe6df4bd90b2e93989d" target="_top" xlink:title="JS_AddIntrinsicTypedArrays">
<polygon fill="none" stroke="#000000" points="654.5,-352.7308 654.5,-371.7308 795.5,-371.7308 795.5,-352.7308 654.5,-352.7308"/>
<text text-anchor="middle" x="725" y="-359.7308" font-family="Helvetica,sans-Serif" font-size="10.00" fill="#000000">JS_AddIntrinsicTypedArrays</text>
</a>
</g>
</g>
<!-- Node143465&#45;&gt;Node143474 -->
<g id="edge9" class="edge">
<title>Node143465&#45;&gt;Node143474</title>
<path fill="none" stroke="#191970" d="M61.306,-209.905C75.1482,-235.9454 103.4971,-283.1229 140,-311.2308 192.968,-352.0172 214.3159,-353.7913 280,-366.2308 410.3767,-390.922 566.111,-380.6822 654.4949,-371.2681"/>
<polygon fill="#191970" stroke="#191970" points="64.2743,-208.0249 56.5754,-200.7463 58.0549,-211.2374 64.2743,-208.0249"/>
</g>
<!-- Node143475 -->
<g id="node9" class="node">
<title>Node143475</title>
<g id="a_node9"><a xlink:href="quickjs_8c.html#a76d4772691a319f48dc636a0e7f6c1ed" target="_top" xlink:title="JS_NewCFunction2">
<polygon fill="none" stroke="#000000" points="140,-181.7308 140,-200.7308 244,-200.7308 244,-181.7308 140,-181.7308"/>
<text text-anchor="middle" x="192" y="-188.7308" font-family="Helvetica,sans-Serif" font-size="10.00" fill="#000000">JS_NewCFunction2</text>
</a>
</g>
</g>
<!-- Node143465&#45;&gt;Node143475 -->
<g id="edge11" class="edge">
<title>Node143465&#45;&gt;Node143475</title>
<path fill="none" stroke="#191970" d="M114.3869,-191.2308C122.8847,-191.2308 131.5339,-191.2308 139.8256,-191.2308"/>
<polygon fill="#191970" stroke="#191970" points="114.1309,-187.7309 104.1308,-191.2308 114.1308,-194.7309 114.1309,-187.7309"/>
</g>
<!-- Node143467 -->
<g id="node3" class="node">
<title>Node143467</title>
<g id="a_node3"><a xlink:href="quickjs_8c.html#ad8aedb643b8753b7a15f6cb2df61945e" target="_top" xlink:title="JS_NewContext">
<polygon fill="none" stroke="#000000" points="978,-143.7308 978,-162.7308 1067,-162.7308 1067,-143.7308 978,-143.7308"/>
<text text-anchor="middle" x="1022.5" y="-150.7308" font-family="Helvetica,sans-Serif" font-size="10.00" fill="#000000">JS_NewContext</text>
</a>
</g>
</g>
<!-- Node143466&#45;&gt;Node143467 -->
<g id="edge2" class="edge">
<title>Node143466&#45;&gt;Node143467</title>
<path fill="none" stroke="#191970" d="M776.593,-273.8666C783.5161,-271.8444 790.4751,-269.6206 797,-267.2308 879.3838,-237.0576 970.6772,-184.4499 1006.6759,-162.8779"/>
<polygon fill="#191970" stroke="#191970" points="775.2179,-270.6168 766.5302,-276.6811 777.1034,-277.3581 775.2179,-270.6168"/>
</g>
<!-- Node143468 -->
<g id="node4" class="node">
<title>Node143468</title>
<g id="a_node4"><a xlink:href="classqjs_1_1Context.html#a4392a23648acfc4bf6b445336efb5007" target="_top" xlink:title="qjs::Context::Context">
<polygon fill="none" stroke="#ff0000" points="1103,-143.7308 1103,-162.7308 1213,-162.7308 1213,-143.7308 1103,-143.7308"/>
<text text-anchor="middle" x="1158" y="-150.7308" font-family="Helvetica,sans-Serif" font-size="10.00" fill="#000000">qjs::Context::Context</text>
</a>
</g>
</g>
<!-- Node143467&#45;&gt;Node143468 -->
<g id="edge3" class="edge">
<title>Node143467&#45;&gt;Node143468</title>
<path fill="none" stroke="#191970" d="M1077.3476,-153.2308C1085.7739,-153.2308 1094.4767,-153.2308 1102.9083,-153.2308"/>
<polygon fill="#191970" stroke="#191970" points="1077.2433,-149.7309 1067.2433,-153.2308 1077.2433,-156.7309 1077.2433,-149.7309"/>
</g>
<!-- Node143472 -->
<g id="node6" class="node">
<title>Node143472</title>
<g id="a_node6"><a xlink:href="quickjs_8c.html#a442ff496ba00319ad39eb0a129b9eb8b" target="_top" xlink:title="JS_NewContextRaw">
<polygon fill="none" stroke="#000000" points="833,-48.7308 833,-67.7308 942,-67.7308 942,-48.7308 833,-48.7308"/>
<text text-anchor="middle" x="887.5" y="-55.7308" font-family="Helvetica,sans-Serif" font-size="10.00" fill="#000000">JS_NewContextRaw</text>
</a>
</g>
</g>
<!-- Node143471&#45;&gt;Node143472 -->
<g id="edge5" class="edge">
<title>Node143471&#45;&gt;Node143472</title>
<path fill="none" stroke="#191970" d="M807.2729,-58.2308C815.849,-58.2308 824.41,-58.2308 832.5734,-58.2308"/>
<polygon fill="#191970" stroke="#191970" points="807.2212,-54.7309 797.2212,-58.2308 807.2212,-61.7309 807.2212,-54.7309"/>
</g>
<!-- Node143472&#45;&gt;Node143467 -->
<g id="edge6" class="edge">
<title>Node143472&#45;&gt;Node143467</title>
<path fill="none" stroke="#191970" d="M922.9638,-71.9428C929.4821,-74.9902 936.0889,-78.452 942,-82.2308 970.5756,-100.4983 999.2075,-128.6774 1013.3727,-143.442"/>
<polygon fill="#191970" stroke="#191970" points="924.1295,-68.6314 913.5684,-67.786 921.2972,-75.0328 924.1295,-68.6314"/>
</g>
<!-- Node143473&#45;&gt;Node143467 -->
<g id="edge8" class="edge">
<title>Node143473&#45;&gt;Node143467</title>
<path fill="none" stroke="#191970" d="M796.3488,-11.841C841.0164,-9.9811 898.1973,-14.0551 942,-39.2308 984.4327,-63.6191 1010.0222,-120.4983 1018.9297,-143.409"/>
<polygon fill="#191970" stroke="#191970" points="795.9534,-8.3568 786.1507,-12.3764 796.3205,-15.3472 795.9534,-8.3568"/>
</g>
<!-- Node143474&#45;&gt;Node143467 -->
<g id="edge10" class="edge">
<title>Node143474&#45;&gt;Node143467</title>
<path fill="none" stroke="#191970" d="M781.0846,-349.5699C786.5594,-347.701 791.9507,-345.5945 797,-343.2308 868.5926,-309.7168 882.6182,-292.4083 942,-240.2308 971.0617,-214.6949 1000.8532,-179.7452 1014.6295,-162.9799"/>
<polygon fill="#191970" stroke="#191970" points="779.6839,-346.3414 771.1956,-352.6815 781.785,-353.0186 779.6839,-346.3414"/>
</g>
<!-- Node143475&#45;&gt;Node143473 -->
<g id="edge42" class="edge">
<title>Node143475&#45;&gt;Node143473</title>
<path fill="none" stroke="#191970" d="M200.7037,-172.2385C213.8247,-146.0013 241.316,-99.4004 280,-77.2308 402.1459,-7.2296 573.6468,-7.6625 663.9167,-13.9654"/>
<polygon fill="#191970" stroke="#191970" points="197.4267,-170.9769 196.2456,-181.5057 203.7348,-174.0115 197.4267,-170.9769"/>
</g>
<!-- Node143476 -->
<g id="node10" class="node">
<title>Node143476</title>
<g id="a_node10"><a xlink:href="quickjs_8h.html#aa68c88001ca8a8662d8f9f321a72f421" target="_top" xlink:title="JS_NewCFunction">
<polygon fill="none" stroke="#000000" points="497.5,-314.7308 497.5,-333.7308 596.5,-333.7308 596.5,-314.7308 497.5,-314.7308"/>
<text text-anchor="middle" x="547" y="-321.7308" font-family="Helvetica,sans-Serif" font-size="10.00" fill="#000000">JS_NewCFunction</text>
</a>
</g>
</g>
<!-- Node143475&#45;&gt;Node143476 -->
<g id="edge12" class="edge">
<title>Node143475&#45;&gt;Node143476</title>
<path fill="none" stroke="#191970" d="M208.5179,-208.4659C225.0903,-224.7434 252.0975,-248.6308 280,-262.2308 317.8575,-280.6829 431.0025,-303.2579 497.2291,-315.4336"/>
<polygon fill="#191970" stroke="#191970" points="210.7939,-205.7909 201.2624,-201.1649 205.8287,-210.7252 210.7939,-205.7909"/>
</g>
<!-- Node143482 -->
<g id="node12" class="node">
<title>Node143482</title>
<g id="a_node12"><a xlink:href="quickjs_8h.html#ae75598e7954a062f9890bc2ecf435fa1" target="_top" xlink:title="JS_NewCFunctionMagic">
<polygon fill="none" stroke="#000000" points="484.5,-162.7308 484.5,-181.7308 609.5,-181.7308 609.5,-162.7308 484.5,-162.7308"/>
<text text-anchor="middle" x="547" y="-169.7308" font-family="Helvetica,sans-Serif" font-size="10.00" fill="#000000">JS_NewCFunctionMagic</text>
</a>
</g>
</g>
<!-- Node143475&#45;&gt;Node143482 -->
<g id="edge16" class="edge">
<title>Node143475&#45;&gt;Node143482</title>
<path fill="none" stroke="#191970" d="M254.0583,-187.9094C318.7283,-184.4482 419.5043,-179.0545 484.3818,-175.5822"/>
<polygon fill="#191970" stroke="#191970" points="253.7989,-184.4182 244.0002,-188.4477 254.173,-191.4082 253.7989,-184.4182"/>
</g>
<!-- Node143480 -->
<g id="node14" class="node">
<title>Node143480</title>
<g id="a_node14"><a xlink:href="quickjs-libc_8c.html#a066e7962ce24f22d5df20968a8baa346" target="_top" xlink:title="js_os_init">
<polygon fill="none" stroke="#ff0000" points="696,-238.7308 696,-257.7308 754,-257.7308 754,-238.7308 696,-238.7308"/>
<text text-anchor="middle" x="725" y="-245.7308" font-family="Helvetica,sans-Serif" font-size="10.00" fill="#000000">js_os_init</text>
</a>
</g>
</g>
<!-- Node143475&#45;&gt;Node143480 -->
<g id="edge20" class="edge">
<title>Node143475&#45;&gt;Node143480</title>
<path fill="none" stroke="#191970" d="M232.8852,-203.5457C247.6124,-207.5473 264.4357,-211.6239 280,-214.2308 435.3189,-240.2453 624.5137,-246.3835 695.8881,-247.8086"/>
<polygon fill="#191970" stroke="#191970" points="233.6381,-200.1221 223.0654,-200.8063 231.7571,-206.8647 233.6381,-200.1221"/>
</g>
<!-- Node143484 -->
<g id="node15" class="node">
<title>Node143484</title>
<g id="a_node15"><a xlink:href="quickjs_8c.html#a6ee4e2edda1f223a5a40e2c48b41d618" target="_top" xlink:title="JS_InstantiateFunctionListItem">
<polygon fill="none" stroke="#000000" points="284.5,-124.7308 284.5,-143.7308 436.5,-143.7308 436.5,-124.7308 284.5,-124.7308"/>
<text text-anchor="middle" x="360.5" y="-131.7308" font-family="Helvetica,sans-Serif" font-size="10.00" fill="#000000">JS_InstantiateFunctionListItem</text>
</a>
</g>
</g>
<!-- Node143475&#45;&gt;Node143484 -->
<g id="edge21" class="edge">
<title>Node143475&#45;&gt;Node143484</title>
<path fill="none" stroke="#191970" d="M225.7514,-177.951C242.0479,-171.6991 261.9406,-164.301 280,-158.2308 295.206,-153.1198 312.2071,-147.9699 326.6532,-143.7582"/>
<polygon fill="#191970" stroke="#191970" points="224.1841,-174.8043 216.1178,-181.6734 226.7072,-181.3338 224.1841,-174.8043"/>
</g>
<!-- Node143492 -->
<g id="node18" class="node">
<title>Node143492</title>
<g id="a_node18"><a xlink:href="quickjs_8c.html#a3afdbdd7b58ef7e1dcc178c362071b3d" target="_top" xlink:title="JS_AddIntrinsicProxy">
<polygon fill="none" stroke="#000000" points="669.5,-86.7308 669.5,-105.7308 780.5,-105.7308 780.5,-86.7308 669.5,-86.7308"/>
<text text-anchor="middle" x="725" y="-93.7308" font-family="Helvetica,sans-Serif" font-size="10.00" fill="#000000">JS_AddIntrinsicProxy</text>
</a>
</g>
</g>
<!-- Node143475&#45;&gt;Node143492 -->
<g id="edge41" class="edge">
<title>Node143475&#45;&gt;Node143492</title>
<path fill="none" stroke="#191970" d="M206.211,-173.3254C222.006,-154.9494 249.3599,-127.3806 280,-115.2308 411.5445,-63.0691 582.4172,-75.7733 669.1716,-87.2601"/>
<polygon fill="#191970" stroke="#191970" points="203.1184,-171.571 199.4219,-181.5001 208.5035,-176.0433 203.1184,-171.571"/>
</g>
<!-- Node143495 -->
<g id="node20" class="node">
<title>Node143495</title>
<g id="a_node20"><a xlink:href="quickjs_8c.html#a293feb2179c9a722b2bd410bc2c5c173" target="_top" xlink:title="JS_NewGlobalCConstructor">
<polygon fill="none" stroke="#000000" points="477,-200.7308 477,-219.7308 617,-219.7308 617,-200.7308 477,-200.7308"/>
<text text-anchor="middle" x="547" y="-207.7308" font-family="Helvetica,sans-Serif" font-size="10.00" fill="#000000">JS_NewGlobalCConstructor</text>
</a>
</g>
</g>
<!-- Node143475&#45;&gt;Node143495 -->
<g id="edge35" class="edge">
<title>Node143475&#45;&gt;Node143495</title>
<path fill="none" stroke="#191970" d="M254.1961,-194.7986C262.8622,-195.2859 271.6535,-195.7749 280,-196.2308 346.7422,-199.8767 422.8799,-203.8506 476.7255,-206.63"/>
<polygon fill="#191970" stroke="#191970" points="254.2957,-191.2988 244.1143,-194.2296 253.9011,-198.2877 254.2957,-191.2988"/>
</g>
<!-- Node143496 -->
<g id="node21" class="node">
<title>Node143496</title>
<g id="a_node21"><a xlink:href="quickjs_8c.html#abc33a664e231090ec89f9d9975e21229" target="_top" xlink:title="JS_NewGlobalCConstructorOnly">
<polygon fill="none" stroke="#000000" points="280,-314.7308 280,-333.7308 441,-333.7308 441,-314.7308 280,-314.7308"/>
<text text-anchor="middle" x="360.5" y="-321.7308" font-family="Helvetica,sans-Serif" font-size="10.00" fill="#000000">JS_NewGlobalCConstructorOnly</text>
</a>
</g>
</g>
<!-- Node143475&#45;&gt;Node143496 -->
<g id="edge39" class="edge">
<title>Node143475&#45;&gt;Node143496</title>
<path fill="none" stroke="#191970" d="M202.2616,-209.984C216.5388,-234.3423 244.6693,-276.5406 280,-300.2308 289.3267,-306.4847 300.3256,-311.1477 311.147,-314.6111"/>
<polygon fill="#191970" stroke="#191970" points="205.1532,-207.9886 197.1666,-201.0269 199.0687,-211.4496 205.1532,-207.9886"/>
</g>
<!-- Node143476&#45;&gt;Node143466 -->
<g id="edge14" class="edge">
<title>Node143476&#45;&gt;Node143466</title>
<path fill="none" stroke="#191970" d="M601.7162,-312.5498C626.959,-307.1609 656.5452,-300.8448 680.4061,-295.7509"/>
<polygon fill="#191970" stroke="#191970" points="600.9658,-309.1311 591.9169,-314.6418 602.4273,-315.9768 600.9658,-309.1311"/>
</g>
<!-- Node143476&#45;&gt;Node143474 -->
<g id="edge15" class="edge">
<title>Node143476&#45;&gt;Node143474</title>
<path fill="none" stroke="#191970" d="M601.7162,-335.9118C626.959,-341.3007 656.5452,-347.6169 680.4061,-352.7108"/>
<polygon fill="#191970" stroke="#191970" points="602.4273,-332.4848 591.9169,-333.8198 600.9658,-339.3306 602.4273,-332.4848"/>
</g>
<!-- Node143477 -->
<g id="node11" class="node">
<title>Node143477</title>
<g id="a_node11"><a xlink:href="quickjs-libc_8c.html#ad04466feec6822a3b838baf229f6dfa0" target="_top" xlink:title="js_std_add_helpers">
<polygon fill="none" stroke="#ff0000" points="674.5,-314.7308 674.5,-333.7308 775.5,-333.7308 775.5,-314.7308 674.5,-314.7308"/>
<text text-anchor="middle" x="725" y="-321.7308" font-family="Helvetica,sans-Serif" font-size="10.00" fill="#000000">js_std_add_helpers</text>
</a>
</g>
</g>
<!-- Node143476&#45;&gt;Node143477 -->
<g id="edge13" class="edge">
<title>Node143476&#45;&gt;Node143477</title>
<path fill="none" stroke="#191970" d="M606.7905,-324.2308C628.7497,-324.2308 653.3772,-324.2308 674.4462,-324.2308"/>
<polygon fill="#191970" stroke="#191970" points="606.583,-320.7309 596.5829,-324.2308 606.5829,-327.7309 606.583,-320.7309"/>
</g>
<!-- Node143482&#45;&gt;Node143466 -->
<g id="edge19" class="edge">
<title>Node143482&#45;&gt;Node143466</title>
<path fill="none" stroke="#191970" d="M610.5371,-186.5783C612.8055,-187.9874 614.9719,-189.5338 617,-191.2308 645.665,-215.2153 624.2508,-243.3473 653,-267.2308 657.6737,-271.1135 663.0582,-274.211 668.7349,-276.6807"/>
<polygon fill="#191970" stroke="#191970" points="611.8448,-183.3131 601.3592,-181.7956 608.6098,-189.5208 611.8448,-183.3131"/>
</g>
<!-- Node143483 -->
<g id="node13" class="node">
<title>Node143483</title>
<g id="a_node13"><a xlink:href="quickjs_8c.html#a4497f8c7cf2ec38da989910ae8b1f042" target="_top" xlink:title="JS_AddIntrinsicMapSet">
<polygon fill="none" stroke="#000000" points="665.5,-124.7308 665.5,-143.7308 784.5,-143.7308 784.5,-124.7308 665.5,-124.7308"/>
<text text-anchor="middle" x="725" y="-131.7308" font-family="Helvetica,sans-Serif" font-size="10.00" fill="#000000">JS_AddIntrinsicMapSet</text>
</a>
</g>
</g>
<!-- Node143482&#45;&gt;Node143483 -->
<g id="edge17" class="edge">
<title>Node143482&#45;&gt;Node143483</title>
<path fill="none" stroke="#191970" d="M601.7162,-160.5498C626.959,-155.1609 656.5452,-148.8448 680.4061,-143.7509"/>
<polygon fill="#191970" stroke="#191970" points="600.9658,-157.1311 591.9169,-162.6418 602.4273,-163.9768 600.9658,-157.1311"/>
</g>
<!-- Node143483&#45;&gt;Node143467 -->
<g id="edge18" class="edge">
<title>Node143483&#45;&gt;Node143467</title>
<path fill="none" stroke="#191970" d="M795.1385,-138.7103C851.6497,-142.3194 929.4009,-147.285 977.7701,-150.3741"/>
<polygon fill="#191970" stroke="#191970" points="795.0485,-135.1975 784.8457,-138.0529 794.6023,-142.1832 795.0485,-135.1975"/>
</g>
<!-- Node143485 -->
<g id="node16" class="node">
<title>Node143485</title>
<g id="a_node16"><a xlink:href="quickjs_8c.html#ac00854b7f1f0f8567af964a2f8f2adb0" target="_top" xlink:title="JS_SetPropertyFunctionList">
<polygon fill="none" stroke="#ff0000" points="477.5,-124.7308 477.5,-143.7308 616.5,-143.7308 616.5,-124.7308 477.5,-124.7308"/>
<text text-anchor="middle" x="547" y="-131.7308" font-family="Helvetica,sans-Serif" font-size="10.00" fill="#000000">JS_SetPropertyFunctionList</text>
</a>
</g>
</g>
<!-- Node143484&#45;&gt;Node143485 -->
<g id="edge22" class="edge">
<title>Node143484&#45;&gt;Node143485</title>
<path fill="none" stroke="#191970" d="M446.8226,-134.2308C457.0754,-134.2308 467.4406,-134.2308 477.4186,-134.2308"/>
<polygon fill="#191970" stroke="#191970" points="446.6257,-130.7309 436.6257,-134.2308 446.6256,-137.7309 446.6257,-130.7309"/>
</g>
<!-- Node143485&#45;&gt;Node143466 -->
<g id="edge33" class="edge">
<title>Node143485&#45;&gt;Node143466</title>
<path fill="none" stroke="#191970" d="M612.2294,-149.226C613.9046,-150.4596 615.5011,-151.7919 617,-153.2308 655.3299,-190.0266 614.5409,-230.5701 653,-267.2308 657.0238,-271.0664 661.7272,-274.1496 666.7684,-276.6248"/>
<polygon fill="#191970" stroke="#191970" points="613.6572,-146.0005 603.2838,-143.8457 610.0493,-151.9991 613.6572,-146.0005"/>
</g>
<!-- Node143485&#45;&gt;Node143471 -->
<g id="edge32" class="edge">
<title>Node143485&#45;&gt;Node143471</title>
<path fill="none" stroke="#191970" d="M570.8185,-119.315C591.8056,-106.6926 623.5387,-88.8512 653,-77.2308 662.2602,-73.5783 672.4636,-70.4041 682.2051,-67.7509"/>
<polygon fill="#191970" stroke="#191970" points="568.9662,-116.3451 562.2495,-124.5387 572.6099,-122.322 568.9662,-116.3451"/>
</g>
<!-- Node143485&#45;&gt;Node143473 -->
<g id="edge29" class="edge">
<title>Node143485&#45;&gt;Node143473</title>
<path fill="none" stroke="#191970" d="M565.5638,-117.9421C579.7161,-105.4871 599.6594,-87.8559 617,-72.2308 633.1247,-57.7013 633.9518,-49.6364 653,-39.2308 660.0342,-35.3882 667.8843,-32.2925 675.7426,-29.8072"/>
<polygon fill="#191970" stroke="#191970" points="563.1636,-115.3919 557.9637,-124.623 567.7852,-120.6494 563.1636,-115.3919"/>
</g>
<!-- Node143485&#45;&gt;Node143474 -->
<g id="edge34" class="edge">
<title>Node143485&#45;&gt;Node143474</title>
<path fill="none" stroke="#191970" d="M613.1584,-149.5745C614.5101,-150.7111 615.7948,-151.928 617,-153.2308 675.3645,-216.3216 594.4139,-280.3457 653,-343.2308 656.5249,-347.0144 660.7062,-350.0795 665.2525,-352.5583"/>
<polygon fill="#191970" stroke="#191970" points="615.015,-146.6049 604.7698,-143.9053 611.0954,-152.4046 615.015,-146.6049"/>
</g>
<!-- Node143485&#45;&gt;Node143483 -->
<g id="edge28" class="edge">
<title>Node143485&#45;&gt;Node143483</title>
<path fill="none" stroke="#191970" d="M626.8631,-134.2308C639.7755,-134.2308 652.9472,-134.2308 665.2755,-134.2308"/>
<polygon fill="#191970" stroke="#191970" points="626.5842,-130.7309 616.5842,-134.2308 626.5842,-137.7309 626.5842,-130.7309"/>
</g>
<!-- Node143485&#45;&gt;Node143480 -->
<g id="edge23" class="edge">
<title>Node143485&#45;&gt;Node143480</title>
<path fill="none" stroke="#191970" d="M610.5371,-148.5783C612.8055,-149.9874 614.9719,-151.5338 617,-153.2308 645.665,-177.2153 624.2508,-205.3473 653,-229.2308 664.9329,-239.1441 681.499,-243.9385 695.7327,-246.2348"/>
<polygon fill="#191970" stroke="#191970" points="611.8448,-145.3131 601.3592,-143.7956 608.6098,-151.5208 611.8448,-145.3131"/>
</g>
<!-- Node143490 -->
<g id="node17" class="node">
<title>Node143490</title>
<g id="a_node17"><a xlink:href="quickjs_8c.html#aafc8241682ce24b6d72e0f237ee85a51" target="_top" xlink:title="JS_AddIntrinsicRegExp">
<polygon fill="none" stroke="#000000" points="664.5,-200.7308 664.5,-219.7308 785.5,-219.7308 785.5,-200.7308 664.5,-200.7308"/>
<text text-anchor="middle" x="725" y="-207.7308" font-family="Helvetica,sans-Serif" font-size="10.00" fill="#000000">JS_AddIntrinsicRegExp</text>
</a>
</g>
</g>
<!-- Node143485&#45;&gt;Node143490 -->
<g id="edge24" class="edge">
<title>Node143485&#45;&gt;Node143490</title>
<path fill="none" stroke="#191970" d="M605.4222,-147.397C609.4492,-149.1146 613.352,-151.0504 617,-153.2308 636.9693,-165.1666 632.9889,-179.3654 653,-191.2308 659.5608,-195.121 666.9219,-198.2273 674.3658,-200.7043"/>
<polygon fill="#191970" stroke="#191970" points="606.4534,-144.0448 595.862,-143.7723 603.9717,-150.5902 606.4534,-144.0448"/>
</g>
<!-- Node143485&#45;&gt;Node143492 -->
<g id="edge26" class="edge">
<title>Node143485&#45;&gt;Node143492</title>
<path fill="none" stroke="#191970" d="M601.7162,-122.5498C626.959,-117.1609 656.5452,-110.8448 680.4061,-105.7509"/>
<polygon fill="#191970" stroke="#191970" points="600.9658,-119.1311 591.9169,-124.6418 602.4273,-125.9768 600.9658,-119.1311"/>
</g>
<!-- Node143493 -->
<g id="node19" class="node">
<title>Node143493</title>
<g id="a_node19"><a xlink:href="quickjs_8c.html#a8ecbf5799518b7bfc3fefd47c7a0dd4e" target="_top" xlink:title="JS_AddIntrinsicDate">
<polygon fill="none" stroke="#000000" points="671.5,-162.7308 671.5,-181.7308 778.5,-181.7308 778.5,-162.7308 671.5,-162.7308"/>
<text text-anchor="middle" x="725" y="-169.7308" font-family="Helvetica,sans-Serif" font-size="10.00" fill="#000000">JS_AddIntrinsicDate</text>
</a>
</g>
</g>
<!-- Node143485&#45;&gt;Node143493 -->
<g id="edge30" class="edge">
<title>Node143485&#45;&gt;Node143493</title>
<path fill="none" stroke="#191970" d="M601.7162,-145.9118C626.959,-151.3007 656.5452,-157.6169 680.4061,-162.7108"/>
<polygon fill="#191970" stroke="#191970" points="602.4273,-142.4848 591.9169,-143.8198 600.9658,-149.3306 602.4273,-142.4848"/>
</g>
<!-- Node143490&#45;&gt;Node143467 -->
<g id="edge25" class="edge">
<title>Node143490&#45;&gt;Node143467</title>
<path fill="none" stroke="#191970" d="M795.6507,-200.7847C838.2537,-194.6058 893.4891,-185.7403 942,-175.2308 958.1421,-171.7338 975.871,-166.9886 990.5725,-162.8004"/>
<polygon fill="#191970" stroke="#191970" points="795.0595,-197.3336 785.658,-202.2185 796.0537,-204.2627 795.0595,-197.3336"/>
</g>
<!-- Node143492&#45;&gt;Node143467 -->
<g id="edge27" class="edge">
<title>Node143492&#45;&gt;Node143467</title>
<path fill="none" stroke="#191970" d="M784.7607,-107.6808C841.8203,-118.6132 926.5043,-134.8384 977.8971,-144.6851"/>
<polygon fill="#191970" stroke="#191970" points="785.2748,-104.2157 774.7948,-105.7713 783.9575,-111.0906 785.2748,-104.2157"/>
</g>
<!-- Node143493&#45;&gt;Node143467 -->
<g id="edge31" class="edge">
<title>Node143493&#45;&gt;Node143467</title>
<path fill="none" stroke="#191970" d="M788.8452,-168.1533C845.7073,-164.5218 927.4557,-159.3009 977.6568,-156.0948"/>
<polygon fill="#191970" stroke="#191970" points="788.2872,-164.6817 778.5306,-168.8121 788.7334,-171.6675 788.2872,-164.6817"/>
</g>
<!-- Node143495&#45;&gt;Node143466 -->
<g id="edge38" class="edge">
<title>Node143495&#45;&gt;Node143466</title>
<path fill="none" stroke="#191970" d="M570.8185,-225.1466C591.8056,-237.769 623.5387,-255.6105 653,-267.2308 662.2602,-270.8833 672.4636,-274.0575 682.2051,-276.7107"/>
<polygon fill="#191970" stroke="#191970" points="572.6099,-222.1396 562.2495,-219.9229 568.9662,-228.1166 572.6099,-222.1396"/>
</g>
<!-- Node143495&#45;&gt;Node143490 -->
<g id="edge36" class="edge">
<title>Node143495&#45;&gt;Node143490</title>
<path fill="none" stroke="#191970" d="M627.0967,-210.2308C639.6561,-210.2308 652.4545,-210.2308 664.4778,-210.2308"/>
<polygon fill="#191970" stroke="#191970" points="627.0948,-206.7309 617.0948,-210.2308 627.0948,-213.7309 627.0948,-206.7309"/>
</g>
<!-- Node143495&#45;&gt;Node143493 -->
<g id="edge37" class="edge">
<title>Node143495&#45;&gt;Node143493</title>
<path fill="none" stroke="#191970" d="M601.7162,-198.5498C626.959,-193.1609 656.5452,-186.8448 680.4061,-181.7509"/>
<polygon fill="#191970" stroke="#191970" points="600.9658,-195.1311 591.9169,-200.6418 602.4273,-201.9768 600.9658,-195.1311"/>
</g>
<!-- Node143496&#45;&gt;Node143474 -->
<g id="edge40" class="edge">
<title>Node143496&#45;&gt;Node143474</title>
<path fill="none" stroke="#191970" d="M422.9261,-335.4179C440.3832,-338.272 459.3952,-341.1247 477,-343.2308 536.5976,-350.3605 604.5901,-355.3493 654.2909,-358.4201"/>
<polygon fill="#191970" stroke="#191970" points="423.2883,-331.9301 412.8497,-333.7429 422.1404,-338.8354 423.2883,-331.9301"/>
</g>
</g>
</svg>
