<?xml version="1.0" encoding="UTF-8" standalone="no"?>
<!DOCTYPE svg PUBLIC "-//W3C//DTD SVG 1.1//EN"
 "http://www.w3.org/Graphics/SVG/1.1/DTD/svg11.dtd">
<!-- Generated by graphviz version 2.40.1 (20161225.0304)
 -->
<!-- Title: emit_goto Pages: 1 -->
<!--zoomable 634 -->
<svg id="main" version="1.1" xmlns="http://www.w3.org/2000/svg" xmlns:xlink="http://www.w3.org/1999/xlink" xml:space="preserve" onload="init(evt)">
<style type="text/css"><![CDATA[
.edge:hover path { stroke: red; }
.edge:hover polygon { stroke: red; fill: red; }
]]></style>
<script type="text/javascript"><![CDATA[
var edges = document.getElementsByTagName('g');
if (edges && edges.length) {
  for (var i=0;i<edges.length;i++) {
    if (edges[i].id.substr(0,4)=='edge') {
      edges[i].setAttribute('class','edge');
    }
  }
}
]]></script>
        <defs>
                <circle id="rim" cx="0" cy="0" r="7"/>
                <circle id="rim2" cx="0" cy="0" r="3.5"/>
                <g id="zoomPlus">
                        <use xlink:href="#rim" fill="#404040">
                                <set attributeName="fill" to="#808080" begin="zoomplus.mouseover" end="zoomplus.mouseout"/>
                        </use>
                        <path d="M-4,0h8M0,-4v8" fill="none" stroke="white" stroke-width="1.5" pointer-events="none"/>
                </g>
                <g id="zoomMin">
                        <use xlink:href="#rim" fill="#404040">
                                <set attributeName="fill" to="#808080" begin="zoomminus.mouseover" end="zoomminus.mouseout"/>
                        </use>
                        <path d="M-4,0h8" fill="none" stroke="white" stroke-width="1.5" pointer-events="none"/>
                </g>
                <g id="dirArrow">
                        <path fill="none" stroke="white" stroke-width="1.5" d="M0,-3.0v7 M-2.5,-0.5L0,-3.0L2.5,-0.5"/>
                </g>
               <g id="resetDef">
                       <use xlink:href="#rim2" fill="#404040">
                               <set attributeName="fill" to="#808080" begin="reset.mouseover" end="reset.mouseout"/>
                       </use>
               </g>
        </defs>

<script type="text/javascript">
var viewWidth = 1129;
var viewHeight = 634;
var sectionId = 'dynsection-949';
</script>
<script xlink:href="svgpan.js"/>
<svg id="graph" class="graph">
<g id="viewport">
<title>emit_goto</title>
<!-- Node312047 -->
<g id="node1" class="node">
<title>Node312047</title>
<polygon fill="#bfbfbf" stroke="#000000" points="0,-265.7513 0,-284.7513 59,-284.7513 59,-265.7513 0,-265.7513"/>
<text text-anchor="middle" x="29.5" y="-272.7513" font-family="Helvetica,sans-Serif" font-size="10.00" fill="#000000">emit_goto</text>
</g>
<!-- Node312048 -->
<g id="node2" class="node">
<title>Node312048</title>
<g id="a_node2"><a xlink:href="quickjs_8c.html#abb105b8bb34f4bf0a39ade5bc0252191" target="_top" xlink:title="emit_break">
<polygon fill="none" stroke="#000000" points="280.5,-454.7513 280.5,-473.7513 345.5,-473.7513 345.5,-454.7513 280.5,-454.7513"/>
<text text-anchor="middle" x="313" y="-461.7513" font-family="Helvetica,sans-Serif" font-size="10.00" fill="#000000">emit_break</text>
</a>
</g>
</g>
<!-- Node312047&#45;&gt;Node312048 -->
<g id="edge1" class="edge">
<title>Node312047&#45;&gt;Node312048</title>
<path fill="none" stroke="#191970" d="M33.3235,-295.0882C40.1896,-325.1631 57.5395,-381.9901 95,-412.2513 149.1781,-456.0172 234.1732,-464.0024 280.4016,-464.8465"/>
<polygon fill="#191970" stroke="#191970" points="36.6796,-294.0415 31.1852,-284.9827 29.8312,-295.4906 36.6796,-294.0415"/>
</g>
<!-- Node312049 -->
<g id="node3" class="node">
<title>Node312049</title>
<g id="a_node3"><a xlink:href="quickjs_8c.html#a9d844c16dcc71701436848074337d32c" target="_top" xlink:title="js_parse_statement\l_or_decl">
<polygon fill="none" stroke="#000000" points="411,-456.2513 411,-486.2513 513,-486.2513 513,-456.2513 411,-456.2513"/>
<text text-anchor="start" x="419" y="-474.2513" font-family="Helvetica,sans-Serif" font-size="10.00" fill="#000000">js_parse_statement</text>
<text text-anchor="middle" x="462" y="-463.2513" font-family="Helvetica,sans-Serif" font-size="10.00" fill="#000000">_or_decl</text>
</a>
</g>
</g>
<!-- Node312047&#45;&gt;Node312049 -->
<g id="edge48" class="edge">
<title>Node312047&#45;&gt;Node312049</title>
<path fill="none" stroke="#191970" d="M30.9792,-295.247C34.7964,-331.6988 48.2552,-408.9085 95,-449.2513 183.3084,-525.4651 332.5614,-504.0772 410.7438,-485.5978"/>
<polygon fill="#191970" stroke="#191970" points="34.434,-294.5872 30.0487,-284.9425 27.4623,-295.2168 34.434,-294.5872"/>
</g>
<!-- Node312051 -->
<g id="node5" class="node">
<title>Node312051</title>
<g id="a_node5"><a xlink:href="quickjs_8c.html#ac188b916dd086803591a67de7e7a85f6" target="_top" xlink:title="js_parse_for_in_of">
<polygon fill="none" stroke="#000000" points="727,-537.7513 727,-556.7513 823,-556.7513 823,-537.7513 727,-537.7513"/>
<text text-anchor="middle" x="775" y="-544.7513" font-family="Helvetica,sans-Serif" font-size="10.00" fill="#000000">js_parse_for_in_of</text>
</a>
</g>
</g>
<!-- Node312047&#45;&gt;Node312051 -->
<g id="edge43" class="edge">
<title>Node312047&#45;&gt;Node312051</title>
<path fill="none" stroke="#191970" d="M30.966,-294.9119C34.8725,-335.1583 48.6436,-428.1917 95,-488.2513 164.6319,-578.4669 199.0375,-623.2513 313,-623.2513 313,-623.2513 313,-623.2513 462,-623.2513 558.3707,-623.2513 586.2084,-633.6046 678,-604.2513 711.116,-593.6614 745.0756,-570.2409 762.6955,-556.9521"/>
<polygon fill="#191970" stroke="#191970" points="34.4422,-294.4849 30.0912,-284.8247 27.4684,-295.0897 34.4422,-294.4849"/>
</g>
<!-- Node312054 -->
<g id="node8" class="node">
<title>Node312054</title>
<g id="a_node8"><a xlink:href="quickjs_8c.html#acc9eb677cab8dfcf45f59381f8a19601" target="_top" xlink:title="js_parse_function_decl2">
<polygon fill="none" stroke="#ff0000" points="714,-212.7513 714,-231.7513 836,-231.7513 836,-212.7513 714,-212.7513"/>
<text text-anchor="middle" x="775" y="-219.7513" font-family="Helvetica,sans-Serif" font-size="10.00" fill="#000000">js_parse_function_decl2</text>
</a>
</g>
</g>
<!-- Node312047&#45;&gt;Node312054 -->
<g id="edge44" class="edge">
<title>Node312047&#45;&gt;Node312054</title>
<path fill="none" stroke="#191970" d="M33.0413,-255.4426C39.5331,-225.5419 56.3935,-169.5819 95,-143.2513 175.348,-88.452 215.7438,-124.2513 313,-124.2513 313,-124.2513 313,-124.2513 462,-124.2513 579.5843,-124.2513 711.1315,-188.0169 757.607,-212.6762"/>
<polygon fill="#191970" stroke="#191970" points="29.557,-255.0194 31.0373,-265.5103 36.4223,-256.386 29.557,-255.0194"/>
</g>
<!-- Node312085 -->
<g id="node11" class="node">
<title>Node312085</title>
<g id="a_node11"><a xlink:href="quickjs_8c.html#a1e86277b96b55991d572603e00fef94d" target="_top" xlink:title="emit_class_field_init">
<polygon fill="none" stroke="#000000" points="561.5,-76.7513 561.5,-95.7513 666.5,-95.7513 666.5,-76.7513 561.5,-76.7513"/>
<text text-anchor="middle" x="614" y="-83.7513" font-family="Helvetica,sans-Serif" font-size="10.00" fill="#000000">emit_class_field_init</text>
</a>
</g>
</g>
<!-- Node312047&#45;&gt;Node312085 -->
<g id="edge16" class="edge">
<title>Node312047&#45;&gt;Node312085</title>
<path fill="none" stroke="#191970" d="M30.7386,-255.5193C34.1619,-219.6911 46.9999,-144.487 95,-110.2513 168.5272,-57.8087 444.5894,-72.725 561.3404,-81.7088"/>
<polygon fill="#191970" stroke="#191970" points="27.2356,-255.4188 29.9254,-265.6664 34.2132,-255.9781 27.2356,-255.4188"/>
</g>
<!-- Node312086 -->
<g id="node12" class="node">
<title>Node312086</title>
<g id="a_node12"><a xlink:href="quickjs_8c.html#a38e4107378b0d9abd638e4fe13541678" target="_top" xlink:title="emit_class_init_start">
<polygon fill="none" stroke="#000000" points="560.5,-38.7513 560.5,-57.7513 667.5,-57.7513 667.5,-38.7513 560.5,-38.7513"/>
<text text-anchor="middle" x="614" y="-45.7513" font-family="Helvetica,sans-Serif" font-size="10.00" fill="#000000">emit_class_init_start</text>
</a>
</g>
</g>
<!-- Node312047&#45;&gt;Node312086 -->
<g id="edge19" class="edge">
<title>Node312047&#45;&gt;Node312086</title>
<path fill="none" stroke="#191970" d="M33.0009,-255.833C41.6704,-210.0989 65.5798,-97.7628 95,-75.2513 166.5661,-20.491 442.431,-34.7484 560.2055,-43.6576"/>
<polygon fill="#191970" stroke="#191970" points="29.5533,-255.2293 31.1727,-265.6996 36.4361,-256.5047 29.5533,-255.2293"/>
</g>
<!-- Node312088 -->
<g id="node14" class="node">
<title>Node312088</title>
<g id="a_node14"><a xlink:href="quickjs_8c.html#acea69d5aa6481a035d0833b8bce455f5" target="_top" xlink:title="emit_return">
<polygon fill="none" stroke="#000000" points="123,-322.7513 123,-341.7513 188,-341.7513 188,-322.7513 123,-322.7513"/>
<text text-anchor="middle" x="155.5" y="-329.7513" font-family="Helvetica,sans-Serif" font-size="10.00" fill="#000000">emit_return</text>
</a>
</g>
</g>
<!-- Node312047&#45;&gt;Node312088 -->
<g id="edge23" class="edge">
<title>Node312047&#45;&gt;Node312088</title>
<path fill="none" stroke="#191970" d="M56.2454,-289.4032C68.0153,-295.4543 82.0771,-302.4465 95,-308.2513 106.3384,-313.3443 119.103,-318.4917 129.9748,-322.7063"/>
<polygon fill="#191970" stroke="#191970" points="57.8511,-286.2933 47.3631,-284.7927 54.6262,-292.5062 57.8511,-286.2933"/>
</g>
<!-- Node312068 -->
<g id="node15" class="node">
<title>Node312068</title>
<g id="a_node15"><a xlink:href="quickjs_8c.html#afa1bc2743b3cf892d36544a708453736" target="_top" xlink:title="js_parse_assign_expr2">
<polygon fill="none" stroke="#ff0000" points="255,-244.7513 255,-263.7513 371,-263.7513 371,-244.7513 255,-244.7513"/>
<text text-anchor="middle" x="313" y="-251.7513" font-family="Helvetica,sans-Serif" font-size="10.00" fill="#000000">js_parse_assign_expr2</text>
</a>
</g>
</g>
<!-- Node312047&#45;&gt;Node312068 -->
<g id="edge38" class="edge">
<title>Node312047&#45;&gt;Node312068</title>
<path fill="none" stroke="#191970" d="M69.3934,-275.7552C107.221,-275.8611 165.6017,-275.0607 216,-270.2513 231.4615,-268.7758 248.1876,-266.3276 263.3255,-263.7846"/>
<polygon fill="#191970" stroke="#191970" points="69.3105,-272.2548 59.2928,-275.7038 69.2749,-279.2547 69.3105,-272.2548"/>
</g>
<!-- Node312067 -->
<g id="node16" class="node">
<title>Node312067</title>
<g id="a_node16"><a xlink:href="quickjs_8c.html#a6686f5baeecd532b043761b6c24ed431" target="_top" xlink:title="js_parse_cond_expr">
<polygon fill="none" stroke="#000000" points="410,-195.7513 410,-214.7513 514,-214.7513 514,-195.7513 410,-195.7513"/>
<text text-anchor="middle" x="462" y="-202.7513" font-family="Helvetica,sans-Serif" font-size="10.00" fill="#000000">js_parse_cond_expr</text>
</a>
</g>
</g>
<!-- Node312047&#45;&gt;Node312067 -->
<g id="edge41" class="edge">
<title>Node312047&#45;&gt;Node312067</title>
<path fill="none" stroke="#191970" d="M69.4173,-267.6283C113.8909,-259.2395 187.9696,-245.577 252,-235.2513 305.6292,-226.6029 367.1736,-217.9612 409.7088,-212.1895"/>
<polygon fill="#191970" stroke="#191970" points="68.4876,-264.242 59.3124,-269.5397 69.7887,-271.12 68.4876,-264.242"/>
</g>
<!-- Node312089 -->
<g id="node17" class="node">
<title>Node312089</title>
<g id="a_node17"><a xlink:href="quickjs_8c.html#a98ab69061f85c400e0eed2c0eb47f49b" target="_top" xlink:title="js_emit_spread_code">
<polygon fill="none" stroke="#000000" points="101,-360.7513 101,-379.7513 210,-379.7513 210,-360.7513 101,-360.7513"/>
<text text-anchor="middle" x="155.5" y="-367.7513" font-family="Helvetica,sans-Serif" font-size="10.00" fill="#000000">js_emit_spread_code</text>
</a>
</g>
</g>
<!-- Node312047&#45;&gt;Node312089 -->
<g id="edge31" class="edge">
<title>Node312047&#45;&gt;Node312089</title>
<path fill="none" stroke="#191970" d="M40.8872,-293.5584C52.5006,-310.7911 72.0397,-336.1466 95,-351.2513 100.7944,-355.0632 107.4009,-358.1496 114.0688,-360.6368"/>
<polygon fill="#191970" stroke="#191970" points="43.666,-291.4113 35.2794,-284.937 37.7981,-295.2281 43.666,-291.4113"/>
</g>
<!-- Node312059 -->
<g id="node18" class="node">
<title>Node312059</title>
<g id="a_node18"><a xlink:href="quickjs_8c.html#a26be546cf89c4580ba9020e8fc43a759" target="_top" xlink:title="js_parse_destructuring\l_element">
<polygon fill="none" stroke="#ff0000" points="255.5,-349.2513 255.5,-379.2513 370.5,-379.2513 370.5,-349.2513 255.5,-349.2513"/>
<text text-anchor="start" x="263.5" y="-367.2513" font-family="Helvetica,sans-Serif" font-size="10.00" fill="#000000">js_parse_destructuring</text>
<text text-anchor="middle" x="313" y="-356.2513" font-family="Helvetica,sans-Serif" font-size="10.00" fill="#000000">_element</text>
</a>
</g>
</g>
<!-- Node312047&#45;&gt;Node312059 -->
<g id="edge42" class="edge">
<title>Node312047&#45;&gt;Node312059</title>
<path fill="none" stroke="#191970" d="M34.1891,-294.6947C41.8204,-321.5133 59.752,-368.8516 95,-389.2513 153.6893,-423.2176 236.158,-397.863 280.9639,-379.2593"/>
<polygon fill="#191970" stroke="#191970" points="37.5404,-293.6772 31.6031,-284.9023 30.7725,-295.4646 37.5404,-293.6772"/>
</g>
<!-- Node312066 -->
<g id="node19" class="node">
<title>Node312066</title>
<g id="a_node19"><a xlink:href="quickjs_8c.html#a93b69939f7af67646a177249bf2deb4d" target="_top" xlink:title="js_parse_coalesce_expr">
<polygon fill="none" stroke="#000000" points="252,-168.7513 252,-187.7513 374,-187.7513 374,-168.7513 252,-168.7513"/>
<text text-anchor="middle" x="313" y="-175.7513" font-family="Helvetica,sans-Serif" font-size="10.00" fill="#000000">js_parse_coalesce_expr</text>
</a>
</g>
</g>
<!-- Node312047&#45;&gt;Node312066 -->
<g id="edge39" class="edge">
<title>Node312047&#45;&gt;Node312066</title>
<path fill="none" stroke="#191970" d="M55.2571,-260.9148C67.1285,-254.6636 81.5433,-247.5657 95,-242.2513 155.3503,-218.4173 228.1547,-198.7877 272.4887,-187.8004"/>
<polygon fill="#191970" stroke="#191970" points="53.5044,-257.8832 46.3486,-265.6963 56.8149,-264.0509 53.5044,-257.8832"/>
</g>
<!-- Node312065 -->
<g id="node20" class="node">
<title>Node312065</title>
<g id="a_node20"><a xlink:href="quickjs_8c.html#aae2d76e4aa080c7737119ef079a9b97d" target="_top" xlink:title="js_parse_logical_and_or">
<polygon fill="none" stroke="#000000" points="95,-152.7513 95,-171.7513 216,-171.7513 216,-152.7513 95,-152.7513"/>
<text text-anchor="middle" x="155.5" y="-159.7513" font-family="Helvetica,sans-Serif" font-size="10.00" fill="#000000">js_parse_logical_and_or</text>
</a>
</g>
</g>
<!-- Node312047&#45;&gt;Node312065 -->
<g id="edge45" class="edge">
<title>Node312047&#45;&gt;Node312065</title>
<path fill="none" stroke="#191970" d="M44.0119,-257.449C56.6791,-242.4395 75.9664,-220.8192 95,-204.2513 109.1773,-191.9106 127.0213,-179.8939 139.6465,-171.8981"/>
<polygon fill="#191970" stroke="#191970" points="41.074,-255.5079 37.3706,-265.4344 46.4559,-259.984 41.074,-255.5079"/>
</g>
<!-- Node312090 -->
<g id="node21" class="node">
<title>Node312090</title>
<g id="a_node21"><a xlink:href="quickjs_8c.html#a964237617fb99ed93ebe4abda62d6c84" target="_top" xlink:title="optional_chain_test">
<polygon fill="none" stroke="#000000" points="872,-19.7513 872,-38.7513 973,-38.7513 973,-19.7513 872,-19.7513"/>
<text text-anchor="middle" x="922.5" y="-26.7513" font-family="Helvetica,sans-Serif" font-size="10.00" fill="#000000">optional_chain_test</text>
</a>
</g>
</g>
<!-- Node312047&#45;&gt;Node312090 -->
<g id="edge49" class="edge">
<title>Node312047&#45;&gt;Node312090</title>
<path fill="none" stroke="#191970" d="M32.1272,-255.6006C39.4281,-204.0979 61.6455,-67.1794 95,-38.2513 168.7965,25.7519 215.3152,-10.2513 313,-10.2513 313,-10.2513 313,-10.2513 614,-10.2513 704.9546,-10.2513 810.7083,-18.5807 871.7905,-24.2095"/>
<polygon fill="#191970" stroke="#191970" points="28.6284,-255.352 30.7283,-265.7367 35.5627,-256.3091 28.6284,-255.352"/>
</g>
<!-- Node312048&#45;&gt;Node312049 -->
<g id="edge2" class="edge">
<title>Node312048&#45;&gt;Node312049</title>
<path fill="none" stroke="#191970" d="M355.987,-466.2708C373.1461,-467.0769 393.0396,-468.0115 410.927,-468.8519"/>
<polygon fill="#191970" stroke="#191970" points="355.8519,-462.7607 345.6987,-465.7875 355.5234,-469.753 355.8519,-462.7607"/>
</g>
<!-- Node312049&#45;&gt;Node312049 -->
<g id="edge9" class="edge">
<title>Node312049&#45;&gt;Node312049</title>
<path fill="none" stroke="#191970" d="M435.7022,-496.7092C438.9661,-501.4303 447.7321,-504.7513 462,-504.7513 485.4141,-504.7513 494.0114,-495.8079 487.7921,-486.4103"/>
<polygon fill="#191970" stroke="#191970" points="439.2132,-496.57 436.2079,-486.4103 432.2216,-496.2265 439.2132,-496.57"/>
</g>
<!-- Node312050 -->
<g id="node4" class="node">
<title>Node312050</title>
<g id="a_node4"><a xlink:href="quickjs_8c.html#a729d43e44d20f1ed655cd9f4843995d3" target="_top" xlink:title="js_parse_statement">
<polygon fill="none" stroke="#000000" points="563,-575.7513 563,-594.7513 665,-594.7513 665,-575.7513 563,-575.7513"/>
<text text-anchor="middle" x="614" y="-582.7513" font-family="Helvetica,sans-Serif" font-size="10.00" fill="#000000">js_parse_statement</text>
</a>
</g>
</g>
<!-- Node312049&#45;&gt;Node312050 -->
<g id="edge3" class="edge">
<title>Node312049&#45;&gt;Node312050</title>
<path fill="none" stroke="#191970" d="M486.0437,-494.3193C502.3663,-512.2028 525.3933,-536.2104 550,-552.2513 566.3031,-562.8791 587.9835,-569.7397 601.4607,-575.6643"/>
<polygon fill="#191970" stroke="#191970" points="488.3428,-491.6441 479.0343,-486.5841 483.1557,-496.3445 488.3428,-491.6441"/>
</g>
<!-- Node312052 -->
<g id="node6" class="node">
<title>Node312052</title>
<g id="a_node6"><a xlink:href="quickjs_8c.html#acc0cac53be5317d9cab6a79afcd7da48" target="_top" xlink:title="js_parse_block">
<polygon fill="none" stroke="#000000" points="573,-423.7513 573,-442.7513 655,-442.7513 655,-423.7513 573,-423.7513"/>
<text text-anchor="middle" x="614" y="-430.7513" font-family="Helvetica,sans-Serif" font-size="10.00" fill="#000000">js_parse_block</text>
</a>
</g>
</g>
<!-- Node312049&#45;&gt;Node312052 -->
<g id="edge7" class="edge">
<title>Node312049&#45;&gt;Node312052</title>
<path fill="none" stroke="#191970" d="M508.5854,-453.326C529.1519,-447.4927 553.1165,-441.5716 572.9949,-437.4337"/>
<polygon fill="#191970" stroke="#191970" points="507.4191,-450.0201 498.795,-456.1743 509.3746,-456.7414 507.4191,-450.0201"/>
</g>
<!-- Node312053 -->
<g id="node7" class="node">
<title>Node312053</title>
<g id="a_node7"><a xlink:href="quickjs_8c.html#ab59a3267a100decc9d2d81eb3297794a" target="_top" xlink:title="js_parse_source_element">
<polygon fill="none" stroke="#ff0000" points="550,-461.7513 550,-480.7513 678,-480.7513 678,-461.7513 550,-461.7513"/>
<text text-anchor="middle" x="614" y="-468.7513" font-family="Helvetica,sans-Serif" font-size="10.00" fill="#000000">js_parse_source_element</text>
</a>
</g>
</g>
<!-- Node312049&#45;&gt;Node312053 -->
<g id="edge10" class="edge">
<title>Node312049&#45;&gt;Node312053</title>
<path fill="none" stroke="#191970" d="M523.1914,-471.2513C531.9743,-471.2513 541.0317,-471.2513 549.8696,-471.2513"/>
<polygon fill="#191970" stroke="#191970" points="523.0367,-467.7514 513.0366,-471.2513 523.0366,-474.7514 523.0367,-467.7514"/>
</g>
<!-- Node312050&#45;&gt;Node312049 -->
<g id="edge6" class="edge">
<title>Node312050&#45;&gt;Node312049</title>
<path fill="none" stroke="#191970" d="M553.8156,-572.6149C552.5165,-571.8495 551.2426,-571.0613 550,-570.2513 515.0343,-547.4575 483.2583,-508.5773 469.3762,-486.5651"/>
<polygon fill="#191970" stroke="#191970" points="552.2181,-575.7295 562.6917,-577.3278 555.5009,-569.5469 552.2181,-575.7295"/>
</g>
<!-- Node312050&#45;&gt;Node312051 -->
<g id="edge4" class="edge">
<title>Node312050&#45;&gt;Node312051</title>
<path fill="none" stroke="#191970" d="M664.4018,-573.3552C687.032,-568.0139 713.3695,-561.7976 734.665,-556.7713"/>
<polygon fill="#191970" stroke="#191970" points="663.5557,-569.9587 654.6271,-575.6623 665.1637,-576.7715 663.5557,-569.9587"/>
</g>
<!-- Node312051&#45;&gt;Node312049 -->
<g id="edge5" class="edge">
<title>Node312051&#45;&gt;Node312049</title>
<path fill="none" stroke="#191970" d="M716.6342,-547.7691C670.3523,-546.5922 604.6022,-541.3451 550,-523.2513 524.7326,-514.8783 498.863,-498.4646 481.7718,-486.3076"/>
<polygon fill="#191970" stroke="#191970" points="716.7204,-551.2714 726.7878,-547.9701 716.859,-544.2728 716.7204,-551.2714"/>
</g>
<!-- Node312052&#45;&gt;Node312049 -->
<g id="edge8" class="edge">
<title>Node312052&#45;&gt;Node312049</title>
<path fill="none" stroke="#191970" d="M584.8522,-445.986C564.5529,-452.3691 536.9414,-459.5945 513.0366,-464.9075"/>
<polygon fill="#191970" stroke="#191970" points="586.0493,-449.2769 594.4616,-442.8361 583.8689,-442.6251 586.0493,-449.2769"/>
</g>
<!-- Node312053&#45;&gt;Node312054 -->
<g id="edge11" class="edge">
<title>Node312053&#45;&gt;Node312054</title>
<path fill="none" stroke="#191970" d="M672.3947,-456.584C674.3671,-455.2622 676.2459,-453.8215 678,-452.2513 748.3904,-389.2401 769.2375,-266.7583 773.8756,-231.7849"/>
<polygon fill="#191970" stroke="#191970" points="670.2954,-453.7456 663.2416,-461.651 673.6857,-459.8698 670.2954,-453.7456"/>
</g>
<!-- Node312056 -->
<g id="node9" class="node">
<title>Node312056</title>
<g id="a_node9"><a xlink:href="quickjs_8c.html#a00eb789430243c24dab4a63ad6a79653" target="_top" xlink:title="js_parse_class">
<polygon fill="none" stroke="#ff0000" points="881.5,-76.7513 881.5,-95.7513 963.5,-95.7513 963.5,-76.7513 881.5,-76.7513"/>
<text text-anchor="middle" x="922.5" y="-83.7513" font-family="Helvetica,sans-Serif" font-size="10.00" fill="#000000">js_parse_class</text>
</a>
</g>
</g>
<!-- Node312054&#45;&gt;Node312056 -->
<g id="edge12" class="edge">
<title>Node312054&#45;&gt;Node312056</title>
<path fill="none" stroke="#191970" d="M793.1609,-205.5063C824.342,-176.7563 887.1031,-118.8884 911.9883,-95.9434"/>
<polygon fill="#191970" stroke="#191970" points="790.5872,-203.1186 785.6078,-212.4705 795.3323,-208.265 790.5872,-203.1186"/>
</g>
<!-- Node312056&#45;&gt;Node312049 -->
<g id="edge15" class="edge">
<title>Node312056&#45;&gt;Node312049</title>
<path fill="none" stroke="#191970" d="M918.042,-105.6276C901.1308,-174.0158 833.8414,-404.5709 678,-490.2513 621.4258,-521.3553 543.7124,-502.2577 498.5733,-486.2615"/>
<polygon fill="#191970" stroke="#191970" points="921.4782,-106.3071 920.4046,-95.7668 914.6709,-104.6761 921.4782,-106.3071"/>
</g>
<!-- Node312057 -->
<g id="node10" class="node">
<title>Node312057</title>
<g id="a_node10"><a xlink:href="quickjs_8c.html#a840642c87c5a82d4cc68333376a3b6de" target="_top" xlink:title="js_parse_postfix_expr">
<polygon fill="none" stroke="#ff0000" points="1009,-95.7513 1009,-114.7513 1121,-114.7513 1121,-95.7513 1009,-95.7513"/>
<text text-anchor="middle" x="1065" y="-102.7513" font-family="Helvetica,sans-Serif" font-size="10.00" fill="#000000">js_parse_postfix_expr</text>
</a>
</g>
</g>
<!-- Node312056&#45;&gt;Node312057 -->
<g id="edge13" class="edge">
<title>Node312056&#45;&gt;Node312057</title>
<path fill="none" stroke="#191970" d="M973.8779,-93.1017C985.205,-94.6119 997.2603,-96.2193 1008.7681,-97.7537"/>
<polygon fill="#191970" stroke="#191970" points="974.0918,-89.5993 963.7169,-91.7469 973.1666,-96.5379 974.0918,-89.5993"/>
</g>
<!-- Node312057&#45;&gt;Node312057 -->
<g id="edge14" class="edge">
<title>Node312057&#45;&gt;Node312057</title>
<path fill="none" stroke="#191970" d="M1038.4941,-123.9052C1039.6021,-129.1881 1048.4374,-133.2513 1065,-133.2513 1090.2383,-133.2513 1097.5337,-123.8165 1086.8863,-115.0083"/>
<polygon fill="#191970" stroke="#191970" points="1041.6117,-125.4962 1043.1137,-115.0083 1035.3992,-122.2704 1041.6117,-125.4962"/>
</g>
<!-- Node312085&#45;&gt;Node312054 -->
<g id="edge18" class="edge">
<title>Node312085&#45;&gt;Node312054</title>
<path fill="none" stroke="#191970" d="M658.4248,-99.5888C665.2727,-102.5685 672.0399,-106.1042 678,-110.2513 720.2294,-139.6349 755.6795,-191.466 769.1681,-212.736"/>
<polygon fill="#191970" stroke="#191970" points="659.6897,-96.3252 649.1048,-95.865 657.0924,-102.8255 659.6897,-96.3252"/>
</g>
<!-- Node312085&#45;&gt;Node312057 -->
<g id="edge17" class="edge">
<title>Node312085&#45;&gt;Node312057</title>
<path fill="none" stroke="#191970" d="M676.9175,-92.1833C729.1131,-96.792 805.3072,-102.7989 872,-105.2513 918.0409,-106.9443 970.3017,-106.8186 1008.8187,-106.3396"/>
<polygon fill="#191970" stroke="#191970" points="677.0797,-88.684 666.8083,-91.2817 676.4578,-95.6563 677.0797,-88.684"/>
</g>
<!-- Node312086&#45;&gt;Node312056 -->
<g id="edge22" class="edge">
<title>Node312086&#45;&gt;Node312056</title>
<path fill="none" stroke="#191970" d="M669.021,-59.6961C683.5974,-62.4561 699.3543,-65.1976 714,-67.2513 771.7731,-75.3527 839.0593,-80.764 881.2212,-83.674"/>
<polygon fill="#191970" stroke="#191970" points="669.6285,-56.2488 659.1464,-57.7905 668.3021,-63.122 669.6285,-56.2488"/>
</g>
<!-- Node312087 -->
<g id="node13" class="node">
<title>Node312087</title>
<g id="a_node13"><a xlink:href="quickjs_8c.html#ac9030f2b94f2e8292ad37ab68fc99bbd" target="_top" xlink:title="add_brand">
<polygon fill="none" stroke="#000000" points="744,-38.7513 744,-57.7513 806,-57.7513 806,-38.7513 744,-38.7513"/>
<text text-anchor="middle" x="775" y="-45.7513" font-family="Helvetica,sans-Serif" font-size="10.00" fill="#000000">add_brand</text>
</a>
</g>
</g>
<!-- Node312086&#45;&gt;Node312087 -->
<g id="edge20" class="edge">
<title>Node312086&#45;&gt;Node312087</title>
<path fill="none" stroke="#191970" d="M677.8537,-48.2513C700.4879,-48.2513 724.9582,-48.2513 743.6771,-48.2513"/>
<polygon fill="#191970" stroke="#191970" points="677.6107,-44.7514 667.6107,-48.2513 677.6106,-51.7514 677.6107,-44.7514"/>
</g>
<!-- Node312087&#45;&gt;Node312056 -->
<g id="edge21" class="edge">
<title>Node312087&#45;&gt;Node312056</title>
<path fill="none" stroke="#191970" d="M816.2202,-58.8707C837.9723,-64.4746 864.4458,-71.295 885.5293,-76.7266"/>
<polygon fill="#191970" stroke="#191970" points="816.838,-55.4157 806.281,-56.3101 815.0915,-62.1943 816.838,-55.4157"/>
</g>
<!-- Node312088&#45;&gt;Node312049 -->
<g id="edge29" class="edge">
<title>Node312088&#45;&gt;Node312049</title>
<path fill="none" stroke="#191970" d="M197.7545,-341.375C204.2401,-343.9141 210.5734,-347.1451 216,-351.2513 239.2973,-368.8799 228.6664,-388.6707 252,-406.2513 255.3101,-408.7453 350.8632,-437.796 411.9218,-456.2059"/>
<polygon fill="#191970" stroke="#191970" points="198.8255,-338.0424 188.231,-338.1288 196.567,-344.6681 198.8255,-338.0424"/>
</g>
<!-- Node312088&#45;&gt;Node312054 -->
<g id="edge30" class="edge">
<title>Node312088&#45;&gt;Node312054</title>
<path fill="none" stroke="#191970" d="M198.4348,-324.6277C308.4265,-305.0973 600.1556,-253.2971 721.1957,-231.8049"/>
<polygon fill="#191970" stroke="#191970" points="197.6037,-321.2204 188.3696,-326.4149 198.8275,-328.1126 197.6037,-321.2204"/>
</g>
<!-- Node312088&#45;&gt;Node312068 -->
<g id="edge24" class="edge">
<title>Node312088&#45;&gt;Node312068</title>
<path fill="none" stroke="#191970" d="M191.1423,-319.0071C199.3929,-315.6955 208.0746,-312.0097 216,-308.2513 245.4313,-294.2943 278.2773,-275.2314 297.2032,-263.8865"/>
<polygon fill="#191970" stroke="#191970" points="189.7546,-315.7918 181.7259,-322.7048 192.3133,-322.3074 189.7546,-315.7918"/>
</g>
<!-- Node312068&#45;&gt;Node312051 -->
<g id="edge28" class="edge">
<title>Node312068&#45;&gt;Node312051</title>
<path fill="none" stroke="#191970" d="M381.6561,-263.014C460.7639,-276.1854 591.0076,-307.6635 678,-379.2513 732.8722,-424.4067 763.1867,-509.2548 772.1486,-537.6889"/>
<polygon fill="#191970" stroke="#191970" points="381.748,-259.4838 371.3186,-261.3487 380.6346,-266.3947 381.748,-259.4838"/>
</g>
<!-- Node312068&#45;&gt;Node312068 -->
<g id="edge27" class="edge">
<title>Node312068&#45;&gt;Node312068</title>
<path fill="none" stroke="#191970" d="M285.3742,-272.9052C286.5289,-278.1881 295.7375,-282.2513 313,-282.2513 339.3047,-282.2513 346.9084,-272.8165 335.8111,-264.0083"/>
<polygon fill="#191970" stroke="#191970" points="288.5076,-274.4689 290.1889,-264.0083 282.3512,-271.1373 288.5076,-274.4689"/>
</g>
<!-- Node312068&#45;&gt;Node312067 -->
<g id="edge25" class="edge">
<title>Node312068&#45;&gt;Node312067</title>
<path fill="none" stroke="#191970" d="M338.2489,-240.733C358.804,-232.4405 388.421,-222.3158 413.5274,-214.8222"/>
<polygon fill="#191970" stroke="#191970" points="336.8122,-237.5401 328.9456,-244.6371 339.521,-243.9948 336.8122,-237.5401"/>
</g>
<!-- Node312067&#45;&gt;Node312068 -->
<g id="edge26" class="edge">
<title>Node312067&#45;&gt;Node312068</title>
<path fill="none" stroke="#191970" d="M436.7355,-218.7759C416.1546,-227.0778 386.4967,-237.2146 361.376,-244.7091"/>
<polygon fill="#191970" stroke="#191970" points="438.1831,-221.9642 446.05,-214.8674 435.4746,-215.5094 438.1831,-221.9642"/>
</g>
<!-- Node312089&#45;&gt;Node312059 -->
<g id="edge32" class="edge">
<title>Node312089&#45;&gt;Node312059</title>
<path fill="none" stroke="#191970" d="M220.2087,-367.7862C231.8151,-367.344 243.8421,-366.8859 255.2367,-366.4518"/>
<polygon fill="#191970" stroke="#191970" points="220.0033,-364.2914 210.1438,-368.1696 220.2699,-371.2863 220.0033,-364.2914"/>
</g>
<!-- Node312059&#45;&gt;Node312049 -->
<g id="edge36" class="edge">
<title>Node312059&#45;&gt;Node312049</title>
<path fill="none" stroke="#191970" d="M342.1847,-385.2094C371.291,-406.1113 415.2791,-437.7 441.075,-456.2246"/>
<polygon fill="#191970" stroke="#191970" points="344.1962,-382.345 334.032,-379.3548 340.1131,-388.0308 344.1962,-382.345"/>
</g>
<!-- Node312059&#45;&gt;Node312051 -->
<g id="edge35" class="edge">
<title>Node312059&#45;&gt;Node312051</title>
<path fill="none" stroke="#191970" d="M380.6511,-367.233C472.0507,-372.3154 629.1745,-385.0899 678,-414.2513 728.5439,-444.439 760.5534,-512.1638 771.1289,-537.4672"/>
<polygon fill="#191970" stroke="#191970" points="380.8326,-363.7378 370.6584,-366.6934 380.4551,-370.7276 380.8326,-363.7378"/>
</g>
<!-- Node312059&#45;&gt;Node312054 -->
<g id="edge37" class="edge">
<title>Node312059&#45;&gt;Node312054</title>
<path fill="none" stroke="#191970" d="M381.036,-360.6454C456.4733,-354.5771 580.3902,-338.3728 678,-295.2513 714.0516,-279.3246 749.1918,-247.7141 765.5155,-231.8311"/>
<polygon fill="#191970" stroke="#191970" points="380.4242,-357.1819 370.721,-361.4361 380.9593,-364.1614 380.4242,-357.1819"/>
</g>
<!-- Node312059&#45;&gt;Node312057 -->
<g id="edge34" class="edge">
<title>Node312059&#45;&gt;Node312057</title>
<path fill="none" stroke="#191970" d="M380.4468,-348.3151C441.1685,-335.3713 533.042,-319.2513 614,-319.2513 614,-319.2513 614,-319.2513 775,-319.2513 914.5341,-319.2513 1031.0269,-156.8672 1058.7416,-115.0025"/>
<polygon fill="#191970" stroke="#191970" points="379.6367,-344.9093 370.6025,-350.444 381.1164,-351.7511 379.6367,-344.9093"/>
</g>
<!-- Node312059&#45;&gt;Node312059 -->
<g id="edge33" class="edge">
<title>Node312059&#45;&gt;Node312059</title>
<path fill="none" stroke="#191970" d="M286.7022,-389.7092C289.9661,-394.4303 298.7321,-397.7513 313,-397.7513 336.4141,-397.7513 345.0114,-388.8079 338.7921,-379.4103"/>
<polygon fill="#191970" stroke="#191970" points="290.2132,-389.57 287.2079,-379.4103 283.2216,-389.2265 290.2132,-389.57"/>
</g>
<!-- Node312066&#45;&gt;Node312067 -->
<g id="edge40" class="edge">
<title>Node312066&#45;&gt;Node312067</title>
<path fill="none" stroke="#191970" d="M375.484,-189.5739C386.9554,-191.6526 398.8173,-193.8021 409.9426,-195.8181"/>
<polygon fill="#191970" stroke="#191970" points="375.9957,-186.1097 365.5318,-187.7705 374.7475,-192.9975 375.9957,-186.1097"/>
</g>
<!-- Node312065&#45;&gt;Node312066 -->
<g id="edge47" class="edge">
<title>Node312065&#45;&gt;Node312066</title>
<path fill="none" stroke="#191970" d="M226.5632,-169.4704C234.9698,-170.3244 243.4944,-171.1904 251.7488,-172.0289"/>
<polygon fill="#191970" stroke="#191970" points="226.6962,-165.966 216.3936,-168.4373 225.9886,-172.9301 226.6962,-165.966"/>
</g>
<!-- Node312065&#45;&gt;Node312065 -->
<g id="edge46" class="edge">
<title>Node312065&#45;&gt;Node312065</title>
<path fill="none" stroke="#191970" d="M132.0626,-181.2805C133.341,-186.3793 141.1535,-190.2513 155.5,-190.2513 177.8945,-190.2513 184.368,-180.8165 174.9203,-172.0083"/>
<polygon fill="#191970" stroke="#191970" points="135.3158,-182.5756 136.0797,-172.0083 128.8927,-179.7928 135.3158,-182.5756"/>
</g>
<!-- Node312090&#45;&gt;Node312057 -->
<g id="edge50" class="edge">
<title>Node312090&#45;&gt;Node312057</title>
<path fill="none" stroke="#191970" d="M949.6034,-43.7064C978.231,-58.9745 1022.5506,-82.6116 1047.0988,-95.704"/>
<polygon fill="#191970" stroke="#191970" points="951.0183,-40.4944 940.5477,-38.8767 947.7242,-46.6709 951.0183,-40.4944"/>
</g>
</g>
</svg>
        <g id="navigator" transform="translate(0 0)" fill="#404254">
                <rect fill="#f2f5e9" fill-opacity="0.5" stroke="#606060" stroke-width=".5" x="0" y="0" width="60" height="60"/>
                <use id="zoomplus" xlink:href="#zoomPlus" x="17" y="9" onmousedown="handleZoom(evt,'in')"/>
                <use id="zoomminus" xlink:href="#zoomMin" x="42" y="9" onmousedown="handleZoom(evt,'out')"/>
                <use id="reset" xlink:href="#resetDef" x="30" y="36" onmousedown="handleReset()"/>
                <g id="arrowUp" xlink:href="#dirArrow" transform="translate(30 24)" onmousedown="handlePan(0,-1)">
                  <use xlink:href="#rim" fill="#404040">
                        <set attributeName="fill" to="#808080" begin="arrowUp.mouseover" end="arrowUp.mouseout"/>
                  </use>
                  <path fill="none" stroke="white" stroke-width="1.5" d="M0,-3.0v7 M-2.5,-0.5L0,-3.0L2.5,-0.5"/>
                </g>
                <g id="arrowRight" xlink:href="#dirArrow" transform="rotate(90) translate(36 -43)" onmousedown="handlePan(1,0)">
                  <use xlink:href="#rim" fill="#404040">
                        <set attributeName="fill" to="#808080" begin="arrowRight.mouseover" end="arrowRight.mouseout"/>
                  </use>
                  <path fill="none" stroke="white" stroke-width="1.5" d="M0,-3.0v7 M-2.5,-0.5L0,-3.0L2.5,-0.5"/>
                </g>
                <g id="arrowDown" xlink:href="#dirArrow" transform="rotate(180) translate(-30 -48)" onmousedown="handlePan(0,1)">
                  <use xlink:href="#rim" fill="#404040">
                        <set attributeName="fill" to="#808080" begin="arrowDown.mouseover" end="arrowDown.mouseout"/>
                  </use>
                  <path fill="none" stroke="white" stroke-width="1.5" d="M0,-3.0v7 M-2.5,-0.5L0,-3.0L2.5,-0.5"/>
                </g>
                <g id="arrowLeft" xlink:href="#dirArrow" transform="rotate(270) translate(-36 17)" onmousedown="handlePan(-1,0)">
                  <use xlink:href="#rim" fill="#404040">
                        <set attributeName="fill" to="#808080" begin="arrowLeft.mouseover" end="arrowLeft.mouseout"/>
                  </use>
                  <path fill="none" stroke="white" stroke-width="1.5" d="M0,-3.0v7 M-2.5,-0.5L0,-3.0L2.5,-0.5"/>
                </g>
        </g>
        <svg viewBox="0 0 15 15" width="100%" height="30px" preserveAspectRatio="xMaxYMin meet">
         <g id="arrow_out" transform="scale(0.3 0.3)">
          <a xlink:href="quickjs_8c_a6b3c67655a0facc68b271ce3d401deb3_icgraph_org.svg" target="_base">
           <rect id="button" ry="5" rx="5" y="6" x="6" height="38" width="38"
                fill="#f2f5e9" fill-opacity="0.5" stroke="#606060" stroke-width="1.0"/>
           <path id="arrow"
             d="M 11.500037,31.436501 C 11.940474,20.09759 22.043105,11.32322 32.158766,21.979434 L 37.068811,17.246167 C 37.068811,17.246167 37.088388,32 37.088388,32 L 22.160133,31.978069 C 22.160133,31.978069 26.997745,27.140456 26.997745,27.140456 C 18.528582,18.264221 13.291696,25.230495 11.500037,31.436501 z"
             style="fill:#404040;"/>
          </a>
         </g>
        </svg>
</svg>
