<?xml version="1.0" encoding="UTF-8" standalone="no"?>
<!DOCTYPE svg PUBLIC "-//W3C//DTD SVG 1.1//EN"
 "http://www.w3.org/Graphics/SVG/1.1/DTD/svg11.dtd">
<!-- Generated by graphviz version 2.40.1 (20161225.0304)
 -->
<!-- Title: JS_NewCatchOffset Pages: 1 -->
<svg width="716pt" height="991pt"
 viewBox="0.00 0.00 716.00 990.50" xmlns="http://www.w3.org/2000/svg" xmlns:xlink="http://www.w3.org/1999/xlink">
<g id="graph0" class="graph" transform="scale(1 1) rotate(0) translate(4 986.5)">
<title>JS_NewCatchOffset</title>
<!-- Node28087 -->
<g id="node1" class="node">
<title>Node28087</title>
<polygon fill="#bfbfbf" stroke="#000000" points="0,-362.5 0,-381.5 107,-381.5 107,-362.5 0,-362.5"/>
<text text-anchor="middle" x="53.5" y="-369.5" font-family="Helvetica,sans-Serif" font-size="10.00" fill="#000000">JS_NewCatchOffset</text>
</g>
<!-- Node28088 -->
<g id="node2" class="node">
<title>Node28088</title>
<g id="a_node2"><a xlink:href="quickjs_8c.html#ac2894ff4edcdb4e6841bcce9c76081e3" target="_top" xlink:title="JS_CallInternal">
<polygon fill="none" stroke="#000000" points="143,-362.5 143,-381.5 226,-381.5 226,-362.5 143,-362.5"/>
<text text-anchor="middle" x="184.5" y="-369.5" font-family="Helvetica,sans-Serif" font-size="10.00" fill="#000000">JS_CallInternal</text>
</a>
</g>
</g>
<!-- Node28087&#45;&gt;Node28088 -->
<g id="edge1" class="edge">
<title>Node28087&#45;&gt;Node28088</title>
<path fill="none" stroke="#191970" d="M117.2677,-372C125.9241,-372 134.6208,-372 142.7526,-372"/>
<polygon fill="#191970" stroke="#191970" points="117.1607,-368.5001 107.1607,-372 117.1607,-375.5001 117.1607,-368.5001"/>
</g>
<!-- Node28088&#45;&gt;Node28088 -->
<g id="edge40" class="edge">
<title>Node28088&#45;&gt;Node28088</title>
<path fill="none" stroke="#191970" d="M160.3186,-391.0292C161.6376,-396.128 169.6981,-400 184.5,-400 207.6055,-400 214.2844,-390.5653 204.5368,-381.7571"/>
<polygon fill="#191970" stroke="#191970" points="163.5776,-392.3148 164.4632,-381.7571 157.187,-389.4582 163.5776,-392.3148"/>
</g>
<!-- Node28089 -->
<g id="node3" class="node">
<title>Node28089</title>
<g id="a_node3"><a xlink:href="quickjs_8c.html#ade71a22dc56e7371392393df663b28b3" target="_top" xlink:title="async_func_resume">
<polygon fill="none" stroke="#000000" points="277,-864.5 277,-883.5 381,-883.5 381,-864.5 277,-864.5"/>
<text text-anchor="middle" x="329" y="-871.5" font-family="Helvetica,sans-Serif" font-size="10.00" fill="#000000">async_func_resume</text>
</a>
</g>
</g>
<!-- Node28088&#45;&gt;Node28089 -->
<g id="edge2" class="edge">
<title>Node28088&#45;&gt;Node28089</title>
<path fill="none" stroke="#191970" d="M190.055,-391.2984C214.0931,-474.8079 308.727,-803.5707 326.2135,-864.3195"/>
<polygon fill="#191970" stroke="#191970" points="193.3872,-390.2215 187.2575,-381.5799 186.6604,-392.1578 193.3872,-390.2215"/>
</g>
<!-- Node28108 -->
<g id="node8" class="node">
<title>Node28108</title>
<g id="a_node8"><a xlink:href="quickjs_8c.html#a1a4c02a29525d5cb2085dd8bca3af350" target="_top" xlink:title="JS_Call">
<polygon fill="none" stroke="#ff0000" points="303.5,-400.5 303.5,-419.5 354.5,-419.5 354.5,-400.5 303.5,-400.5"/>
<text text-anchor="middle" x="329" y="-407.5" font-family="Helvetica,sans-Serif" font-size="10.00" fill="#000000">JS_Call</text>
</a>
</g>
</g>
<!-- Node28088&#45;&gt;Node28108 -->
<g id="edge7" class="edge">
<title>Node28088&#45;&gt;Node28108</title>
<path fill="none" stroke="#191970" d="M236.3524,-379.1309C262.197,-385.291 291.8346,-393.6885 310.4855,-400.4368"/>
<polygon fill="#191970" stroke="#191970" points="236.8269,-375.6484 226.2954,-376.8052 235.2497,-382.4684 236.8269,-375.6484"/>
</g>
<!-- Node28194 -->
<g id="node29" class="node">
<title>Node28194</title>
<g id="a_node29"><a xlink:href="quickjs_8c.html#ad35594576a14c10812efaf958c99af8a" target="_top" xlink:title="JS_CallConstructorInternal">
<polygon fill="none" stroke="#ff0000" points="262,-362.5 262,-381.5 396,-381.5 396,-362.5 262,-362.5"/>
<text text-anchor="middle" x="329" y="-369.5" font-family="Helvetica,sans-Serif" font-size="10.00" fill="#000000">JS_CallConstructorInternal</text>
</a>
</g>
</g>
<!-- Node28088&#45;&gt;Node28194 -->
<g id="edge35" class="edge">
<title>Node28088&#45;&gt;Node28194</title>
<path fill="none" stroke="#191970" d="M236.5209,-365.4909C244.7845,-365.2892 253.4321,-365.2142 261.9815,-365.2658"/>
<polygon fill="#191970" stroke="#191970" points="236.1798,-361.9998 226.2954,-365.814 236.401,-368.9963 236.1798,-361.9998"/>
</g>
<!-- Node28208 -->
<g id="node30" class="node">
<title>Node28208</title>
<g id="a_node30"><a xlink:href="quickjs_8c.html#a75f6ee5e4235a7dc99889f3d2eb2c147" target="_top" xlink:title="JS_CallFree">
<polygon fill="none" stroke="#ff0000" points="293.5,-286.5 293.5,-305.5 364.5,-305.5 364.5,-286.5 293.5,-286.5"/>
<text text-anchor="middle" x="329" y="-293.5" font-family="Helvetica,sans-Serif" font-size="10.00" fill="#000000">JS_CallFree</text>
</a>
</g>
</g>
<!-- Node28088&#45;&gt;Node28208 -->
<g id="edge37" class="edge">
<title>Node28088&#45;&gt;Node28208</title>
<path fill="none" stroke="#191970" d="M197.7672,-355.0299C212.7224,-341.2493 238.0793,-323.0749 262,-311 271.8168,-306.0446 282.9057,-301.634 293.1959,-298.3665"/>
<polygon fill="#191970" stroke="#191970" points="195.2175,-352.6295 190.604,-362.1672 200.1583,-357.5882 195.2175,-352.6295"/>
</g>
<!-- Node28090 -->
<g id="node4" class="node">
<title>Node28090</title>
<g id="a_node4"><a xlink:href="quickjs_8c.html#a1bf6b62983e8fff99c0a5d5a9f486115" target="_top" xlink:title="js_async_function_resume">
<polygon fill="none" stroke="#ff0000" points="432,-826.5 432,-845.5 565,-845.5 565,-826.5 432,-826.5"/>
<text text-anchor="middle" x="498.5" y="-833.5" font-family="Helvetica,sans-Serif" font-size="10.00" fill="#000000">js_async_function_resume</text>
</a>
</g>
</g>
<!-- Node28089&#45;&gt;Node28090 -->
<g id="edge3" class="edge">
<title>Node28089&#45;&gt;Node28090</title>
<path fill="none" stroke="#191970" d="M381.7425,-862.1757C405.639,-856.8184 433.5152,-850.5689 456.0356,-845.5201"/>
<polygon fill="#191970" stroke="#191970" points="380.7641,-858.8081 371.772,-864.411 382.2955,-865.6386 380.7641,-858.8081"/>
</g>
<!-- Node28098 -->
<g id="node5" class="node">
<title>Node28098</title>
<g id="a_node5"><a xlink:href="quickjs_8c.html#ae19867da709929c072f05e90301835a4" target="_top" xlink:title="js_async_generator\l_function_call">
<polygon fill="none" stroke="#ff0000" points="448,-952 448,-982 549,-982 549,-952 448,-952"/>
<text text-anchor="start" x="456" y="-970" font-family="Helvetica,sans-Serif" font-size="10.00" fill="#000000">js_async_generator</text>
<text text-anchor="middle" x="498.5" y="-959" font-family="Helvetica,sans-Serif" font-size="10.00" fill="#000000">_function_call</text>
</a>
</g>
</g>
<!-- Node28089&#45;&gt;Node28098 -->
<g id="edge4" class="edge">
<title>Node28089&#45;&gt;Node28098</title>
<path fill="none" stroke="#191970" d="M349.1791,-889.6904C369.3124,-904.8094 401.5505,-927.5979 432,-943 438.3525,-946.2132 445.24,-949.2024 452.094,-951.9041"/>
<polygon fill="#191970" stroke="#191970" points="351.1594,-886.7993 341.0812,-883.531 346.9216,-892.3707 351.1594,-886.7993"/>
</g>
<!-- Node28099 -->
<g id="node6" class="node">
<title>Node28099</title>
<g id="a_node6"><a xlink:href="quickjs_8c.html#a89b019c704a2d2914bc30b30a72040b3" target="_top" xlink:title="js_async_generator\l_resume_next">
<polygon fill="none" stroke="#000000" points="448,-903 448,-933 549,-933 549,-903 448,-903"/>
<text text-anchor="start" x="456" y="-921" font-family="Helvetica,sans-Serif" font-size="10.00" fill="#000000">js_async_generator</text>
<text text-anchor="middle" x="498.5" y="-910" font-family="Helvetica,sans-Serif" font-size="10.00" fill="#000000">_resume_next</text>
</a>
</g>
</g>
<!-- Node28089&#45;&gt;Node28099 -->
<g id="edge5" class="edge">
<title>Node28089&#45;&gt;Node28099</title>
<path fill="none" stroke="#191970" d="M375.7373,-886.1324C398.1637,-891.954 425.0693,-898.9383 447.969,-904.8828"/>
<polygon fill="#191970" stroke="#191970" points="376.3376,-882.6723 365.779,-883.5473 374.5787,-889.4477 376.3376,-882.6723"/>
</g>
<!-- Node28100 -->
<g id="node7" class="node">
<title>Node28100</title>
<g id="a_node7"><a xlink:href="quickjs_8c.html#ac90552b1f1659acb3dae9a4c62479a30" target="_top" xlink:title="js_generator_function_call">
<polygon fill="none" stroke="#ff0000" points="433.5,-864.5 433.5,-883.5 563.5,-883.5 563.5,-864.5 433.5,-864.5"/>
<text text-anchor="middle" x="498.5" y="-871.5" font-family="Helvetica,sans-Serif" font-size="10.00" fill="#000000">js_generator_function_call</text>
</a>
</g>
</g>
<!-- Node28089&#45;&gt;Node28100 -->
<g id="edge6" class="edge">
<title>Node28089&#45;&gt;Node28100</title>
<path fill="none" stroke="#191970" d="M391.4686,-874C405.0904,-874 419.5389,-874 433.2652,-874"/>
<polygon fill="#191970" stroke="#191970" points="391.2387,-870.5001 381.2387,-874 391.2386,-877.5001 391.2387,-870.5001"/>
</g>
<!-- Node28108&#45;&gt;Node28088 -->
<g id="edge21" class="edge">
<title>Node28108&#45;&gt;Node28088</title>
<path fill="none" stroke="#191970" d="M293.4088,-406.5497C264.8289,-400.469 225.8374,-389.8129 203.095,-381.5924"/>
<polygon fill="#191970" stroke="#191970" points="292.923,-410.0222 303.4179,-408.57 294.3081,-403.1605 292.923,-410.0222"/>
</g>
<!-- Node28108&#45;&gt;Node28090 -->
<g id="edge17" class="edge">
<title>Node28108&#45;&gt;Node28090</title>
<path fill="none" stroke="#191970" d="M331.3763,-429.6641C340.6258,-503.0682 376.4819,-759.7661 432,-817 435.7621,-820.8783 440.2563,-823.9803 445.1091,-826.4589"/>
<polygon fill="#191970" stroke="#191970" points="334.8222,-429.0104 330.1213,-419.5155 327.8752,-429.8695 334.8222,-429.0104"/>
</g>
<!-- Node28109 -->
<g id="node9" class="node">
<title>Node28109</title>
<g id="a_node9"><a xlink:href="quickjs-libc_8c.html#abb1cbe3fdf905e81f603a3a0bfce475a" target="_top" xlink:title="call_handler">
<polygon fill="none" stroke="#000000" points="464.5,-788.5 464.5,-807.5 532.5,-807.5 532.5,-788.5 464.5,-788.5"/>
<text text-anchor="middle" x="498.5" y="-795.5" font-family="Helvetica,sans-Serif" font-size="10.00" fill="#000000">call_handler</text>
</a>
</g>
</g>
<!-- Node28108&#45;&gt;Node28109 -->
<g id="edge8" class="edge">
<title>Node28108&#45;&gt;Node28109</title>
<path fill="none" stroke="#191970" d="M331.9122,-429.5914C342.5192,-498.4318 381.1453,-727.8344 432,-779 440.549,-787.6013 452.7034,-792.3731 464.2876,-794.9983"/>
<polygon fill="#191970" stroke="#191970" points="335.3638,-429.0077 330.404,-419.6456 328.443,-430.0573 335.3638,-429.0077"/>
</g>
<!-- Node28110 -->
<g id="node10" class="node">
<title>Node28110</title>
<g id="a_node10"><a xlink:href="quickjs-libc_8c.html#a9fa4c190ba56314c7ed9b00bbc7ad0f9" target="_top" xlink:title="handle_posted_message">
<polygon fill="none" stroke="#000000" points="436,-750.5 436,-769.5 561,-769.5 561,-750.5 436,-750.5"/>
<text text-anchor="middle" x="498.5" y="-757.5" font-family="Helvetica,sans-Serif" font-size="10.00" fill="#000000">handle_posted_message</text>
</a>
</g>
</g>
<!-- Node28108&#45;&gt;Node28110 -->
<g id="edge9" class="edge">
<title>Node28108&#45;&gt;Node28110</title>
<path fill="none" stroke="#191970" d="M332.5833,-429.6167C344.6742,-493.779 385.8037,-695.8714 432,-741 435.9509,-744.8596 440.6291,-747.9457 445.6457,-750.4115"/>
<polygon fill="#191970" stroke="#191970" points="335.9929,-428.8072 330.7247,-419.6151 329.1107,-430.0862 335.9929,-428.8072"/>
</g>
<!-- Node28111 -->
<g id="node11" class="node">
<title>Node28111</title>
<g id="a_node11"><a xlink:href="quickjs_8c.html#a624282391413d4c5a030adbd8b77aa80" target="_top" xlink:title="internalize_json_property">
<polygon fill="none" stroke="#ff0000" points="436,-694.5 436,-713.5 561,-713.5 561,-694.5 436,-694.5"/>
<text text-anchor="middle" x="498.5" y="-701.5" font-family="Helvetica,sans-Serif" font-size="10.00" fill="#000000">internalize_json_property</text>
</a>
</g>
</g>
<!-- Node28108&#45;&gt;Node28111 -->
<g id="edge10" class="edge">
<title>Node28108&#45;&gt;Node28111</title>
<path fill="none" stroke="#191970" d="M330.4886,-429.9326C335.3453,-480.3747 355.1884,-614.1051 432,-685 436.2352,-688.909 441.2201,-692.02 446.5247,-694.495"/>
<polygon fill="#191970" stroke="#191970" points="333.9549,-429.3916 329.6066,-419.7302 326.9809,-429.9945 333.9549,-429.3916"/>
</g>
<!-- Node28113 -->
<g id="node12" class="node">
<title>Node28113</title>
<g id="a_node12"><a xlink:href="quickjs_8c.html#aa0bbf08a7e91459c68a312fba7016c6d" target="_top" xlink:title="js_array_every">
<polygon fill="none" stroke="#000000" points="458.5,-656.5 458.5,-675.5 538.5,-675.5 538.5,-656.5 458.5,-656.5"/>
<text text-anchor="middle" x="498.5" y="-663.5" font-family="Helvetica,sans-Serif" font-size="10.00" fill="#000000">js_array_every</text>
</a>
</g>
</g>
<!-- Node28108&#45;&gt;Node28113 -->
<g id="edge12" class="edge">
<title>Node28108&#45;&gt;Node28113</title>
<path fill="none" stroke="#191970" d="M331.8321,-429.9093C339.3695,-475.3947 364.1897,-587.5784 432,-647 439.405,-653.489 448.8891,-657.7703 458.3606,-660.5926"/>
<polygon fill="#191970" stroke="#191970" points="335.264,-429.2003 330.2725,-419.855 328.3467,-430.2733 335.264,-429.2003"/>
</g>
<!-- Node28114 -->
<g id="node13" class="node">
<title>Node28114</title>
<g id="a_node13"><a xlink:href="quickjs_8c.html#a9dd41b086da4e13b3487cc9c6e2af2b8" target="_top" xlink:title="js_array_find">
<polygon fill="none" stroke="#000000" points="462.5,-618.5 462.5,-637.5 534.5,-637.5 534.5,-618.5 462.5,-618.5"/>
<text text-anchor="middle" x="498.5" y="-625.5" font-family="Helvetica,sans-Serif" font-size="10.00" fill="#000000">js_array_find</text>
</a>
</g>
</g>
<!-- Node28108&#45;&gt;Node28114 -->
<g id="edge13" class="edge">
<title>Node28108&#45;&gt;Node28114</title>
<path fill="none" stroke="#191970" d="M333.5141,-429.3938C343.8065,-469.2305 372.8301,-560.5874 432,-609 440.6424,-616.0712 451.7818,-620.5122 462.4634,-623.3009"/>
<polygon fill="#191970" stroke="#191970" points="336.892,-428.4729 331.0984,-419.6025 330.0958,-430.1498 336.892,-428.4729"/>
</g>
<!-- Node28115 -->
<g id="node14" class="node">
<title>Node28115</title>
<g id="a_node14"><a xlink:href="quickjs_8c.html#a5e32da9a43002cb96dcbd62a1a340144" target="_top" xlink:title="js_array_from">
<polygon fill="none" stroke="#000000" points="460.5,-580.5 460.5,-599.5 536.5,-599.5 536.5,-580.5 460.5,-580.5"/>
<text text-anchor="middle" x="498.5" y="-587.5" font-family="Helvetica,sans-Serif" font-size="10.00" fill="#000000">js_array_from</text>
</a>
</g>
</g>
<!-- Node28108&#45;&gt;Node28115 -->
<g id="edge14" class="edge">
<title>Node28108&#45;&gt;Node28115</title>
<path fill="none" stroke="#191970" d="M336.0315,-429.3505C349.3608,-463.2777 381.5656,-533.451 432,-571 440.2827,-577.1665 450.5052,-581.3342 460.4295,-584.15"/>
<polygon fill="#191970" stroke="#191970" points="339.1881,-427.8037 332.3678,-419.696 332.6435,-430.2873 339.1881,-427.8037"/>
</g>
<!-- Node28116 -->
<g id="node15" class="node">
<title>Node28116</title>
<g id="a_node15"><a xlink:href="quickjs_8c.html#a36c1692489542a86dd79a7d39ab8ff95" target="_top" xlink:title="js_array_reduce">
<polygon fill="none" stroke="#000000" points="455.5,-542.5 455.5,-561.5 541.5,-561.5 541.5,-542.5 455.5,-542.5"/>
<text text-anchor="middle" x="498.5" y="-549.5" font-family="Helvetica,sans-Serif" font-size="10.00" fill="#000000">js_array_reduce</text>
</a>
</g>
</g>
<!-- Node28108&#45;&gt;Node28116 -->
<g id="edge15" class="edge">
<title>Node28108&#45;&gt;Node28116</title>
<path fill="none" stroke="#191970" d="M340.4399,-428.1408C357.466,-453.7733 391.8167,-500.5232 432,-528 440.916,-534.0966 451.5602,-538.8378 461.6908,-542.4349"/>
<polygon fill="#191970" stroke="#191970" points="343.3562,-426.2052 334.9723,-419.7275 337.4868,-430.0196 343.3562,-426.2052"/>
</g>
<!-- Node28117 -->
<g id="node16" class="node">
<title>Node28117</title>
<g id="a_node16"><a xlink:href="quickjs_8c.html#aa45afa6d2861615f29444c9614ce766a" target="_top" xlink:title="js_async_from_sync\l_iterator_next">
<polygon fill="none" stroke="#000000" points="601,-332 601,-362 708,-362 708,-332 601,-332"/>
<text text-anchor="start" x="609" y="-350" font-family="Helvetica,sans-Serif" font-size="10.00" fill="#000000">js_async_from_sync</text>
<text text-anchor="middle" x="654.5" y="-339" font-family="Helvetica,sans-Serif" font-size="10.00" fill="#000000">_iterator_next</text>
</a>
</g>
</g>
<!-- Node28108&#45;&gt;Node28117 -->
<g id="edge16" class="edge">
<title>Node28108&#45;&gt;Node28117</title>
<path fill="none" stroke="#191970" d="M343.0629,-427.3151C361.1158,-448.0201 394.6055,-481.5626 432,-495 487.6286,-514.9896 513.5111,-524.0347 565,-495 616.5261,-465.9443 641.7503,-393.9648 650.6402,-362.33"/>
<polygon fill="#191970" stroke="#191970" points="345.6427,-424.9455 336.5103,-419.5742 340.2998,-429.4682 345.6427,-424.9455"/>
</g>
<!-- Node28118 -->
<g id="node17" class="node">
<title>Node28118</title>
<g id="a_node17"><a xlink:href="quickjs_8c.html#a2355fabf91f59212ea65baba1b0b7c1b" target="_top" xlink:title="js_async_generator_next">
<polygon fill="none" stroke="#000000" points="436,-466.5 436,-485.5 561,-485.5 561,-466.5 436,-466.5"/>
<text text-anchor="middle" x="498.5" y="-473.5" font-family="Helvetica,sans-Serif" font-size="10.00" fill="#000000">js_async_generator_next</text>
</a>
</g>
</g>
<!-- Node28108&#45;&gt;Node28118 -->
<g id="edge18" class="edge">
<title>Node28108&#45;&gt;Node28118</title>
<path fill="none" stroke="#191970" d="M356.6876,-424.0059C377.1566,-434.0203 405.8896,-447.3743 432,-457 441.3507,-460.4472 451.6284,-463.6563 461.2491,-466.4194"/>
<polygon fill="#191970" stroke="#191970" points="358.1432,-420.8212 347.6277,-419.5272 355.0411,-427.0963 358.1432,-420.8212"/>
</g>
<!-- Node28119 -->
<g id="node18" class="node">
<title>Node28119</title>
<g id="a_node18"><a xlink:href="quickjs_8c.html#a3e852026d167fa03c673f86697dd3e67" target="_top" xlink:title="js_async_generator\l_resolve_or_reject">
<polygon fill="none" stroke="#ff0000" points="448,-417 448,-447 549,-447 549,-417 448,-417"/>
<text text-anchor="start" x="456" y="-435" font-family="Helvetica,sans-Serif" font-size="10.00" fill="#000000">js_async_generator</text>
<text text-anchor="middle" x="498.5" y="-424" font-family="Helvetica,sans-Serif" font-size="10.00" fill="#000000">_resolve_or_reject</text>
</a>
</g>
</g>
<!-- Node28108&#45;&gt;Node28119 -->
<g id="edge19" class="edge">
<title>Node28108&#45;&gt;Node28119</title>
<path fill="none" stroke="#191970" d="M364.8847,-414.6576C389.0145,-417.7895 421.1716,-421.9633 447.8919,-425.4314"/>
<polygon fill="#191970" stroke="#191970" points="365.1107,-411.1577 354.7434,-413.3413 364.2097,-418.0994 365.1107,-411.1577"/>
</g>
<!-- Node28122 -->
<g id="node19" class="node">
<title>Node28122</title>
<g id="a_node19"><a xlink:href="quickjs_8c.html#afd4ef2d701fa0702f321925b61c57bbf" target="_top" xlink:title="js_call_bound_function">
<polygon fill="none" stroke="#ff0000" points="440.5,-378.5 440.5,-397.5 556.5,-397.5 556.5,-378.5 440.5,-378.5"/>
<text text-anchor="middle" x="498.5" y="-385.5" font-family="Helvetica,sans-Serif" font-size="10.00" fill="#000000">js_call_bound_function</text>
</a>
</g>
</g>
<!-- Node28108&#45;&gt;Node28122 -->
<g id="edge20" class="edge">
<title>Node28108&#45;&gt;Node28122</title>
<path fill="none" stroke="#191970" d="M364.892,-405.3414C386.7298,-402.507 415.1404,-398.8195 440.1455,-395.574"/>
<polygon fill="#191970" stroke="#191970" points="364.2097,-401.9006 354.7434,-406.6587 365.1107,-408.8423 364.2097,-401.9006"/>
</g>
<!-- Node28123 -->
<g id="node20" class="node">
<title>Node28123</title>
<g id="a_node20"><a xlink:href="quickjs_8c.html#a6357b7fdae71c70c140e78e6c20cb5c2" target="_top" xlink:title="js_dynamic_import_job">
<polygon fill="none" stroke="#ff0000" points="440.5,-340.5 440.5,-359.5 556.5,-359.5 556.5,-340.5 440.5,-340.5"/>
<text text-anchor="middle" x="498.5" y="-347.5" font-family="Helvetica,sans-Serif" font-size="10.00" fill="#000000">js_dynamic_import_job</text>
</a>
</g>
</g>
<!-- Node28108&#45;&gt;Node28123 -->
<g id="edge22" class="edge">
<title>Node28108&#45;&gt;Node28123</title>
<path fill="none" stroke="#191970" d="M364.6644,-401.8234C374.9776,-398.9443 386.114,-395.3255 396,-391 413.1788,-383.4837 414.8286,-376.5332 432,-369 440.3566,-365.3339 449.6124,-362.17 458.4971,-359.5332"/>
<polygon fill="#191970" stroke="#191970" points="363.4768,-398.517 354.7023,-404.4548 365.2645,-405.2849 363.4768,-398.517"/>
</g>
<!-- Node28125 -->
<g id="node21" class="node">
<title>Node28125</title>
<g id="a_node21"><a xlink:href="quickjs_8c.html#ad90c33b4aae1181151bda4a98ac2ef23" target="_top" xlink:title="JS_FlattenIntoArray">
<polygon fill="none" stroke="#ff0000" points="446.5,-284.5 446.5,-303.5 550.5,-303.5 550.5,-284.5 446.5,-284.5"/>
<text text-anchor="middle" x="498.5" y="-291.5" font-family="Helvetica,sans-Serif" font-size="10.00" fill="#000000">JS_FlattenIntoArray</text>
</a>
</g>
</g>
<!-- Node28108&#45;&gt;Node28125 -->
<g id="edge23" class="edge">
<title>Node28108&#45;&gt;Node28125</title>
<path fill="none" stroke="#191970" d="M364.3675,-405.1865C375.3167,-402.3925 386.8855,-397.9772 396,-391 420.6937,-372.0968 409.6537,-352.6276 432,-331 444.2467,-319.1471 461.0368,-309.8446 474.6817,-303.5319"/>
<polygon fill="#191970" stroke="#191970" points="363.5984,-401.7719 354.5745,-407.3235 365.0908,-408.6109 363.5984,-401.7719"/>
</g>
<!-- Node28127 -->
<g id="node22" class="node">
<title>Node28127</title>
<g id="a_node22"><a xlink:href="quickjs_8c.html#a8d4b24969540aff427939eeda47f451d" target="_top" xlink:title="js_function_apply">
<polygon fill="none" stroke="#ff0000" points="452.5,-38.5 452.5,-57.5 544.5,-57.5 544.5,-38.5 452.5,-38.5"/>
<text text-anchor="middle" x="498.5" y="-45.5" font-family="Helvetica,sans-Serif" font-size="10.00" fill="#000000">js_function_apply</text>
</a>
</g>
</g>
<!-- Node28108&#45;&gt;Node28127 -->
<g id="edge25" class="edge">
<title>Node28108&#45;&gt;Node28127</title>
<path fill="none" stroke="#191970" d="M364.6926,-407.6945C376.309,-405.1228 388.205,-400.2065 396,-391 489.622,-280.4246 338.4871,-177.6677 432,-67 437.3473,-60.6718 444.6431,-56.3746 452.4485,-53.4732"/>
<polygon fill="#191970" stroke="#191970" points="363.9378,-404.2725 354.6663,-409.3999 365.1117,-411.1734 363.9378,-404.2725"/>
</g>
<!-- Node28130 -->
<g id="node23" class="node">
<title>Node28130</title>
<g id="a_node23"><a xlink:href="quickjs_8c.html#a677ad630a103e1f3d5129e0549112b50" target="_top" xlink:title="js_function_call">
<polygon fill="none" stroke="#000000" points="456.5,-246.5 456.5,-265.5 540.5,-265.5 540.5,-246.5 456.5,-246.5"/>
<text text-anchor="middle" x="498.5" y="-253.5" font-family="Helvetica,sans-Serif" font-size="10.00" fill="#000000">js_function_call</text>
</a>
</g>
</g>
<!-- Node28108&#45;&gt;Node28130 -->
<g id="edge27" class="edge">
<title>Node28108&#45;&gt;Node28130</title>
<path fill="none" stroke="#191970" d="M364.6361,-406.6142C375.8973,-403.9244 387.5855,-399.2101 396,-391 434.637,-353.3017 393.4002,-312.7364 432,-275 438.6969,-268.4529 447.4864,-264.1315 456.4716,-261.2875"/>
<polygon fill="#191970" stroke="#191970" points="363.6807,-403.2336 354.5205,-408.5573 365.0012,-410.108 363.6807,-403.2336"/>
</g>
<!-- Node28131 -->
<g id="node24" class="node">
<title>Node28131</title>
<g id="a_node24"><a xlink:href="quickjs_8c.html#aa049793cc8648d35fe81876a2543ca4e" target="_top" xlink:title="JS_GetIterator2">
<polygon fill="none" stroke="#ff0000" points="455.5,-208.5 455.5,-227.5 541.5,-227.5 541.5,-208.5 455.5,-208.5"/>
<text text-anchor="middle" x="498.5" y="-215.5" font-family="Helvetica,sans-Serif" font-size="10.00" fill="#000000">JS_GetIterator2</text>
</a>
</g>
</g>
<!-- Node28108&#45;&gt;Node28131 -->
<g id="edge28" class="edge">
<title>Node28108&#45;&gt;Node28131</title>
<path fill="none" stroke="#191970" d="M364.9799,-406.9541C376.2668,-404.2899 387.8834,-399.5047 396,-391 444.5287,-340.1511 383.5215,-287.8967 432,-237 438.2938,-230.3923 446.7116,-226.0334 455.4376,-223.1703"/>
<polygon fill="#191970" stroke="#191970" points="364.0052,-403.5755 354.8169,-408.8505 365.2892,-410.4567 364.0052,-403.5755"/>
</g>
<!-- Node28161 -->
<g id="node25" class="node">
<title>Node28161</title>
<g id="a_node25"><a xlink:href="quickjs_8c.html#ad6303fbd3add4afa0cb64b0aa6d431ce" target="_top" xlink:title="JS_IteratorNext2">
<polygon fill="none" stroke="#ff0000" points="453,-170.5 453,-189.5 544,-189.5 544,-170.5 453,-170.5"/>
<text text-anchor="middle" x="498.5" y="-177.5" font-family="Helvetica,sans-Serif" font-size="10.00" fill="#000000">JS_IteratorNext2</text>
</a>
</g>
</g>
<!-- Node28108&#45;&gt;Node28161 -->
<g id="edge29" class="edge">
<title>Node28108&#45;&gt;Node28161</title>
<path fill="none" stroke="#191970" d="M364.584,-407.3013C376.0814,-404.6843 387.9298,-399.84 396,-391 454.5361,-326.8805 373.5272,-263.1772 432,-199 437.5798,-192.8758 444.9828,-188.6727 452.8208,-185.7999"/>
<polygon fill="#191970" stroke="#191970" points="363.9027,-403.8675 354.6743,-409.0721 365.1341,-410.7583 363.9027,-403.8675"/>
</g>
<!-- Node28164 -->
<g id="node26" class="node">
<title>Node28164</title>
<g id="a_node26"><a xlink:href="quickjs_8c.html#a0da6493b4bc0edb7ddddfab807241d0b" target="_top" xlink:title="js_json_check">
<polygon fill="none" stroke="#ff0000" points="459,-.5 459,-19.5 538,-19.5 538,-.5 459,-.5"/>
<text text-anchor="middle" x="498.5" y="-7.5" font-family="Helvetica,sans-Serif" font-size="10.00" fill="#000000">js_json_check</text>
</a>
</g>
</g>
<!-- Node28108&#45;&gt;Node28164 -->
<g id="edge31" class="edge">
<title>Node28108&#45;&gt;Node28164</title>
<path fill="none" stroke="#191970" d="M364.752,-407.7446C376.3739,-405.1775 388.2583,-400.2513 396,-391 499.7619,-267.0052 328.3604,-153.097 432,-29 438.7731,-20.89 448.7475,-16.1105 458.9221,-13.3301"/>
<polygon fill="#191970" stroke="#191970" points="363.993,-404.3232 354.7171,-409.4427 365.161,-411.2251 363.993,-404.3232"/>
</g>
<!-- Node28168 -->
<g id="node27" class="node">
<title>Node28168</title>
<g id="a_node27"><a xlink:href="quickjs_8c.html#adc0280beaa04d2b8fcaf05a82ab26c74" target="_top" xlink:title="js_link_module">
<polygon fill="none" stroke="#ff0000" points="458,-114.5 458,-133.5 539,-133.5 539,-114.5 458,-114.5"/>
<text text-anchor="middle" x="498.5" y="-121.5" font-family="Helvetica,sans-Serif" font-size="10.00" fill="#000000">js_link_module</text>
</a>
</g>
</g>
<!-- Node28108&#45;&gt;Node28168 -->
<g id="edge32" class="edge">
<title>Node28108&#45;&gt;Node28168</title>
<path fill="none" stroke="#191970" d="M364.7351,-407.4371C376.2456,-404.832 388.0637,-399.9604 396,-391 464.6021,-313.5459 372.7984,-245.8561 432,-161 440.9203,-148.2142 455.746,-139.3542 469.1378,-133.5174"/>
<polygon fill="#191970" stroke="#191970" points="364.0441,-404.0049 354.8042,-409.1889 365.2601,-410.8984 364.0441,-404.0049"/>
</g>
<!-- Node28156 -->
<g id="node28" class="node">
<title>Node28156</title>
<g id="a_node28"><a xlink:href="quickjs_8c.html#a27dcb5e2923cd6c0201c70546d704748" target="_top" xlink:title="js_map_constructor">
<polygon fill="none" stroke="#ff0000" points="447.5,-76.5 447.5,-95.5 549.5,-95.5 549.5,-76.5 447.5,-76.5"/>
<text text-anchor="middle" x="498.5" y="-83.5" font-family="Helvetica,sans-Serif" font-size="10.00" fill="#000000">js_map_constructor</text>
</a>
</g>
</g>
<!-- Node28108&#45;&gt;Node28156 -->
<g id="edge34" class="edge">
<title>Node28108&#45;&gt;Node28156</title>
<path fill="none" stroke="#191970" d="M364.6179,-407.6309C376.2274,-405.0532 388.1382,-400.1495 396,-391 479.4938,-293.8299 348.6021,-202.2523 432,-105 436.1426,-100.1692 441.4202,-96.5243 447.1853,-93.7813"/>
<polygon fill="#191970" stroke="#191970" points="363.8685,-404.2081 354.6025,-409.3455 365.0498,-411.1078 363.8685,-404.2081"/>
</g>
<!-- Node28111&#45;&gt;Node28111 -->
<g id="edge11" class="edge">
<title>Node28111&#45;&gt;Node28111</title>
<path fill="none" stroke="#191970" d="M469.3809,-722.6539C470.5981,-727.9368 480.3044,-732 498.5,-732 526.2266,-732 534.2413,-722.5653 522.5441,-713.7571"/>
<polygon fill="#191970" stroke="#191970" points="472.5412,-724.1775 474.4559,-713.7571 466.4609,-720.7091 472.5412,-724.1775"/>
</g>
<!-- Node28125&#45;&gt;Node28125 -->
<g id="edge24" class="edge">
<title>Node28125&#45;&gt;Node28125</title>
<path fill="none" stroke="#191970" d="M469.3809,-312.6539C470.5981,-317.9368 480.3044,-322 498.5,-322 526.2266,-322 534.2413,-312.5653 522.5441,-303.7571"/>
<polygon fill="#191970" stroke="#191970" points="472.5412,-314.1775 474.4559,-303.7571 466.4609,-310.7091 472.5412,-314.1775"/>
</g>
<!-- Node28127&#45;&gt;Node28088 -->
<g id="edge26" class="edge">
<title>Node28127&#45;&gt;Node28088</title>
<path fill="none" stroke="#191970" d="M442.9001,-58.1547C438.8272,-60.5356 435.1065,-63.446 432,-67 358.6997,-150.8571 469.9292,-231.6969 396,-315 393.0577,-318.3154 282.152,-347.0521 222.1505,-362.4108"/>
<polygon fill="#191970" stroke="#191970" points="444.7177,-61.1677 452.2773,-53.7445 441.7385,-54.8333 444.7177,-61.1677"/>
</g>
<!-- Node28161&#45;&gt;Node28117 -->
<g id="edge30" class="edge">
<title>Node28161&#45;&gt;Node28117</title>
<path fill="none" stroke="#191970" d="M553.8157,-192.1628C557.7822,-194.1127 561.5657,-196.3751 565,-199 611.5209,-234.5569 639.0994,-301.817 649.6009,-331.8517"/>
<polygon fill="#191970" stroke="#191970" points="554.8809,-188.8137 544.3065,-188.1565 552.1631,-195.2646 554.8809,-188.8137"/>
</g>
<!-- Node28168&#45;&gt;Node28168 -->
<g id="edge33" class="edge">
<title>Node28168&#45;&gt;Node28168</title>
<path fill="none" stroke="#191970" d="M469.3809,-142.6539C470.5981,-147.9368 480.3044,-152 498.5,-152 526.2266,-152 534.2413,-142.5653 522.5441,-133.7571"/>
<polygon fill="#191970" stroke="#191970" points="472.5412,-144.1775 474.4559,-133.7571 466.4609,-140.7091 472.5412,-144.1775"/>
</g>
<!-- Node28194&#45;&gt;Node28088 -->
<g id="edge36" class="edge">
<title>Node28194&#45;&gt;Node28088</title>
<path fill="none" stroke="#191970" d="M251.7059,-378.7354C242.9651,-378.6845 234.3232,-378.5014 226.2954,-378.186"/>
<polygon fill="#191970" stroke="#191970" points="251.9819,-382.2354 261.9815,-378.7342 251.981,-375.2354 251.9819,-382.2354"/>
</g>
<!-- Node28208&#45;&gt;Node28088 -->
<g id="edge38" class="edge">
<title>Node28208&#45;&gt;Node28088</title>
<path fill="none" stroke="#191970" d="M307.8863,-309.7982C294.4116,-315.3247 276.7665,-321.546 262,-329 242.4729,-338.8571 221.9887,-352.7788 206.9872,-362.4172"/>
<polygon fill="#191970" stroke="#191970" points="309.5011,-312.9122 317.2609,-305.6986 306.6963,-306.4986 309.5011,-312.9122"/>
</g>
<!-- Node28208&#45;&gt;Node28164 -->
<g id="edge39" class="edge">
<title>Node28208&#45;&gt;Node28164</title>
<path fill="none" stroke="#191970" d="M330.7173,-276.3002C336.0841,-227.0409 356.9767,-97.5662 432,-29 439.4451,-22.1957 449.1641,-17.8111 458.8632,-14.9908"/>
<polygon fill="#191970" stroke="#191970" points="327.2312,-275.988 329.7275,-286.2845 334.197,-276.6786 327.2312,-275.988"/>
</g>
</g>
</svg>
