<?xml version="1.0" encoding="UTF-8" standalone="no"?>
<!DOCTYPE svg PUBLIC "-//W3C//DTD SVG 1.1//EN"
 "http://www.w3.org/Graphics/SVG/1.1/DTD/svg11.dtd">
<!-- Generated by graphviz version 2.40.1 (20161225.0304)
 -->
<!-- Title: JS_DefinePropertyValueUint32 Pages: 1 -->
<svg width="759pt" height="161pt"
 viewBox="0.00 0.00 759.00 161.00" xmlns="http://www.w3.org/2000/svg" xmlns:xlink="http://www.w3.org/1999/xlink">
<g id="graph0" class="graph" transform="scale(1 1) rotate(0) translate(4 157)">
<title>JS_DefinePropertyValueUint32</title>
<!-- Node75941 -->
<g id="node1" class="node">
<title>Node75941</title>
<polygon fill="#bfbfbf" stroke="#000000" points="0,-19.5 0,-38.5 152,-38.5 152,-19.5 0,-19.5"/>
<text text-anchor="middle" x="76" y="-26.5" font-family="Helvetica,sans-Serif" font-size="10.00" fill="#000000">JS_DefinePropertyValueUint32</text>
</g>
<!-- Node75942 -->
<g id="node2" class="node">
<title>Node75942</title>
<g id="a_node2"><a xlink:href="quickjs_8c.html#a0c61bd5a64c743e81188bb528b78e715" target="_top" xlink:title="JS_DefinePropertyValueValue">
<polygon fill="none" stroke="#000000" points="188,-57.5 188,-76.5 337,-76.5 337,-57.5 188,-57.5"/>
<text text-anchor="middle" x="262.5" y="-64.5" font-family="Helvetica,sans-Serif" font-size="10.00" fill="#000000">JS_DefinePropertyValueValue</text>
</a>
</g>
</g>
<!-- Node75941&#45;&gt;Node75942 -->
<g id="edge1" class="edge">
<title>Node75941&#45;&gt;Node75942</title>
<path fill="none" stroke="#191970" d="M123.0618,-38.589C148.2268,-43.7165 179.3958,-50.0672 205.8786,-55.4632"/>
<polygon fill="#191970" stroke="#191970" points="205.2791,-58.9129 215.7766,-57.4799 206.6767,-52.0538 205.2791,-58.9129"/>
</g>
<!-- Node76092 -->
<g id="node6" class="node">
<title>Node76092</title>
<g id="a_node6"><a xlink:href="quickjs_8h.html#a88259aa0da61ac754402c64ccecee116" target="_top" xlink:title="JS_NewUint32">
<polygon fill="none" stroke="#ff0000" points="668,-.5 668,-19.5 751,-19.5 751,-.5 668,-.5"/>
<text text-anchor="middle" x="709.5" y="-7.5" font-family="Helvetica,sans-Serif" font-size="10.00" fill="#000000">JS_NewUint32</text>
</a>
</g>
</g>
<!-- Node75941&#45;&gt;Node76092 -->
<g id="edge10" class="edge">
<title>Node75941&#45;&gt;Node76092</title>
<path fill="none" stroke="#191970" d="M152.2377,-22.7781C212.1938,-18.2103 297.8616,-12.401 373,-10 473.7353,-6.7811 591.5202,-7.9007 657.6257,-8.9732"/>
<polygon fill="#191970" stroke="#191970" points="657.7235,-12.4752 667.781,-9.1442 657.8414,-5.4762 657.7235,-12.4752"/>
</g>
<!-- Node75943 -->
<g id="node3" class="node">
<title>Node75943</title>
<g id="a_node3"><a xlink:href="quickjs_8c.html#a0a8765bd4012467d9139bc24aabcb3ca" target="_top" xlink:title="JS_DefinePropertyValue">
<polygon fill="none" stroke="#000000" points="373,-57.5 373,-76.5 497,-76.5 497,-57.5 373,-57.5"/>
<text text-anchor="middle" x="435" y="-64.5" font-family="Helvetica,sans-Serif" font-size="10.00" fill="#000000">JS_DefinePropertyValue</text>
</a>
</g>
</g>
<!-- Node75942&#45;&gt;Node75943 -->
<g id="edge2" class="edge">
<title>Node75942&#45;&gt;Node75943</title>
<path fill="none" stroke="#191970" d="M337.1577,-67C345.6379,-67 354.2704,-67 362.7192,-67"/>
<polygon fill="#191970" stroke="#191970" points="362.9111,-70.5001 372.9111,-67 362.9111,-63.5001 362.9111,-70.5001"/>
</g>
<!-- Node75972 -->
<g id="node5" class="node">
<title>Node75972</title>
<g id="a_node5"><a xlink:href="quickjs_8h.html#afaa20c47565bc704c6c85f3d77254e7d" target="_top" xlink:title="JS_FreeValue">
<polygon fill="none" stroke="#ff0000" points="670.5,-57.5 670.5,-76.5 748.5,-76.5 748.5,-57.5 670.5,-57.5"/>
<text text-anchor="middle" x="709.5" y="-64.5" font-family="Helvetica,sans-Serif" font-size="10.00" fill="#000000">JS_FreeValue</text>
</a>
</g>
</g>
<!-- Node75942&#45;&gt;Node75972 -->
<g id="edge8" class="edge">
<title>Node75942&#45;&gt;Node75972</title>
<path fill="none" stroke="#191970" d="M307.4361,-76.5122C327.4119,-80.2776 351.2776,-84.1461 373,-86 487.7155,-95.7906 517.5366,-93.3952 632,-81 641.1839,-80.0055 650.9182,-78.5608 660.2728,-76.9728"/>
<polygon fill="#191970" stroke="#191970" points="660.9947,-80.3995 670.2304,-75.2079 659.7731,-73.5069 660.9947,-80.3995"/>
</g>
<!-- Node75994 -->
<g id="node7" class="node">
<title>Node75994</title>
<g id="a_node7"><a xlink:href="quickjs_8c.html#ab7fc45a99935a1c0ba50b0216d9401a9" target="_top" xlink:title="JS_FreeAtom">
<polygon fill="none" stroke="#ff0000" points="396.5,-19.5 396.5,-38.5 473.5,-38.5 473.5,-19.5 396.5,-19.5"/>
<text text-anchor="middle" x="435" y="-26.5" font-family="Helvetica,sans-Serif" font-size="10.00" fill="#000000">JS_FreeAtom</text>
</a>
</g>
</g>
<!-- Node75942&#45;&gt;Node75994 -->
<g id="edge7" class="edge">
<title>Node75942&#45;&gt;Node75994</title>
<path fill="none" stroke="#191970" d="M306.029,-57.411C330.6122,-51.9956 361.39,-45.2155 386.7133,-39.6371"/>
<polygon fill="#191970" stroke="#191970" points="387.4694,-43.0545 396.4822,-37.4851 385.9634,-36.2184 387.4694,-43.0545"/>
</g>
<!-- Node76093 -->
<g id="node8" class="node">
<title>Node76093</title>
<g id="a_node8"><a xlink:href="quickjs_8c.html#a859d5c989a2aaecef1653b3ac279e108" target="_top" xlink:title="JS_ValueToAtom">
<polygon fill="none" stroke="#ff0000" points="388.5,-133.5 388.5,-152.5 481.5,-152.5 481.5,-133.5 388.5,-133.5"/>
<text text-anchor="middle" x="435" y="-140.5" font-family="Helvetica,sans-Serif" font-size="10.00" fill="#000000">JS_ValueToAtom</text>
</a>
</g>
</g>
<!-- Node75942&#45;&gt;Node76093 -->
<g id="edge9" class="edge">
<title>Node75942&#45;&gt;Node76093</title>
<path fill="none" stroke="#191970" d="M281.8728,-76.625C303.7891,-87.3942 340.6461,-105.1457 373,-119 381.5571,-122.6642 390.8759,-126.4017 399.6272,-129.8025"/>
<polygon fill="#191970" stroke="#191970" points="398.6057,-133.1594 409.1957,-133.4773 401.1153,-126.6247 398.6057,-133.1594"/>
</g>
<!-- Node75944 -->
<g id="node4" class="node">
<title>Node75944</title>
<g id="a_node4"><a xlink:href="quickjs_8c.html#ab50618f1bf78e444caa6da0e3e2785d7" target="_top" xlink:title="JS_DefineProperty">
<polygon fill="none" stroke="#ff0000" points="533,-19.5 533,-38.5 632,-38.5 632,-19.5 533,-19.5"/>
<text text-anchor="middle" x="582.5" y="-26.5" font-family="Helvetica,sans-Serif" font-size="10.00" fill="#000000">JS_DefineProperty</text>
</a>
</g>
</g>
<!-- Node75943&#45;&gt;Node75944 -->
<g id="edge3" class="edge">
<title>Node75943&#45;&gt;Node75944</title>
<path fill="none" stroke="#191970" d="M472.2205,-57.411C491.5093,-52.4417 515.2584,-46.3233 535.771,-41.0387"/>
<polygon fill="#191970" stroke="#191970" points="536.7366,-44.4043 545.5472,-38.5201 534.9902,-37.6256 536.7366,-44.4043"/>
</g>
<!-- Node75943&#45;&gt;Node75972 -->
<g id="edge6" class="edge">
<title>Node75943&#45;&gt;Node75972</title>
<path fill="none" stroke="#191970" d="M497.2883,-67C546.5965,-67 614.5247,-67 660.1233,-67"/>
<polygon fill="#191970" stroke="#191970" points="660.3532,-70.5001 670.3531,-67 660.3531,-63.5001 660.3532,-70.5001"/>
</g>
<!-- Node75944&#45;&gt;Node75972 -->
<g id="edge4" class="edge">
<title>Node75944&#45;&gt;Node75972</title>
<path fill="none" stroke="#191970" d="M614.5475,-38.589C630.6411,-43.4044 650.3409,-49.2988 667.6167,-54.468"/>
<polygon fill="#191970" stroke="#191970" points="666.8791,-57.9006 677.4628,-57.4141 668.8858,-51.1943 666.8791,-57.9006"/>
</g>
<!-- Node75944&#45;&gt;Node76092 -->
<g id="edge5" class="edge">
<title>Node75944&#45;&gt;Node76092</title>
<path fill="none" stroke="#191970" d="M632.3293,-21.5452C640.6292,-20.3035 649.2562,-19.0128 657.6061,-17.7637"/>
<polygon fill="#191970" stroke="#191970" points="658.241,-21.2077 667.613,-16.2666 657.2052,-14.2848 658.241,-21.2077"/>
</g>
</g>
</svg>
