<?xml version="1.0" encoding="UTF-8" standalone="no"?>
<!DOCTYPE svg PUBLIC "-//W3C//DTD SVG 1.1//EN"
 "http://www.w3.org/Graphics/SVG/1.1/DTD/svg11.dtd">
<!-- Generated by graphviz version 2.40.1 (20161225.0304)
 -->
<!-- Title: js_get_length64 Pages: 1 -->
<svg width="716pt" height="671pt"
 viewBox="0.00 0.00 716.00 670.98" xmlns="http://www.w3.org/2000/svg" xmlns:xlink="http://www.w3.org/1999/xlink">
<g id="graph0" class="graph" transform="scale(1 1) rotate(0) translate(4 666.9783)">
<title>js_get_length64</title>
<!-- Node43203 -->
<g id="node1" class="node">
<title>Node43203</title>
<polygon fill="#bfbfbf" stroke="#000000" points="0,-159.2587 0,-178.2587 85,-178.2587 85,-159.2587 0,-159.2587"/>
<text text-anchor="middle" x="42.5" y="-166.2587" font-family="Helvetica,sans-Serif" font-size="10.00" fill="#000000">js_get_length64</text>
</g>
<!-- Node43204 -->
<g id="node2" class="node">
<title>Node43204</title>
<g id="a_node2"><a xlink:href="quickjs_8h.html#a89b7c8686c7eee70b86be722ee4730ad" target="_top" xlink:title="JS_GetProperty">
<polygon fill="none" stroke="#000000" points="125,-159.2587 125,-178.2587 211,-178.2587 211,-159.2587 125,-159.2587"/>
<text text-anchor="middle" x="168" y="-166.2587" font-family="Helvetica,sans-Serif" font-size="10.00" fill="#000000">JS_GetProperty</text>
</a>
</g>
</g>
<!-- Node43203&#45;&gt;Node43204 -->
<g id="edge1" class="edge">
<title>Node43203&#45;&gt;Node43204</title>
<path fill="none" stroke="#191970" d="M85.339,-168.7587C94.8253,-168.7587 104.9889,-168.7587 114.8305,-168.7587"/>
<polygon fill="#191970" stroke="#191970" points="114.928,-172.2588 124.928,-168.7587 114.928,-165.2588 114.928,-172.2588"/>
</g>
<!-- Node43296 -->
<g id="node16" class="node">
<title>Node43296</title>
<g id="a_node16"><a xlink:href="quickjs_8h.html#ad80a83d73e9b7d872b88fbf2943aebe9" target="_top" xlink:title="JS_IsException">
<polygon fill="none" stroke="#000000" points="622,-61.2587 622,-80.2587 708,-80.2587 708,-61.2587 622,-61.2587"/>
<text text-anchor="middle" x="665" y="-68.2587" font-family="Helvetica,sans-Serif" font-size="10.00" fill="#000000">JS_IsException</text>
</a>
</g>
</g>
<!-- Node43203&#45;&gt;Node43296 -->
<g id="edge22" class="edge">
<title>Node43203&#45;&gt;Node43296</title>
<path fill="none" stroke="#191970" d="M56.4902,-159.1189C89.1199,-137.046 173.3946,-82.3862 251,-51.7587 316.9767,-25.7206 335.5829,-22.2646 406,-13.7587 485.4227,-4.1651 509.8748,10.8372 586,-13.7587 610.4419,-21.6559 633.6877,-40.2446 648.5541,-54.0596"/>
<polygon fill="#191970" stroke="#191970" points="646.2765,-56.7255 655.9054,-61.1452 651.1343,-51.6854 646.2765,-56.7255"/>
</g>
<!-- Node43638 -->
<g id="node20" class="node">
<title>Node43638</title>
<g id="a_node20"><a xlink:href="quickjs_8c.html#a07acd485a57197356906928a788a0644" target="_top" xlink:title="JS_ToLengthFree">
<polygon fill="none" stroke="#000000" points="121,-197.2587 121,-216.2587 215,-216.2587 215,-197.2587 121,-197.2587"/>
<text text-anchor="middle" x="168" y="-204.2587" font-family="Helvetica,sans-Serif" font-size="10.00" fill="#000000">JS_ToLengthFree</text>
</a>
</g>
</g>
<!-- Node43203&#45;&gt;Node43638 -->
<g id="edge23" class="edge">
<title>Node43203&#45;&gt;Node43638</title>
<path fill="none" stroke="#191970" d="M74.1689,-178.3477C90.0725,-183.1632 109.5396,-189.0576 126.6114,-194.2267"/>
<polygon fill="#191970" stroke="#191970" points="125.756,-197.6246 136.3412,-197.1728 127.7846,-190.925 125.756,-197.6246"/>
</g>
<!-- Node43205 -->
<g id="node3" class="node">
<title>Node43205</title>
<g id="a_node3"><a xlink:href="quickjs_8c.html#a5762c57ae0c9937e986040c01222833a" target="_top" xlink:title="JS_GetPropertyInternal">
<polygon fill="none" stroke="#000000" points="251,-317.2587 251,-336.2587 370,-336.2587 370,-317.2587 251,-317.2587"/>
<text text-anchor="middle" x="310.5" y="-324.2587" font-family="Helvetica,sans-Serif" font-size="10.00" fill="#000000">JS_GetPropertyInternal</text>
</a>
</g>
</g>
<!-- Node43204&#45;&gt;Node43205 -->
<g id="edge2" class="edge">
<title>Node43204&#45;&gt;Node43205</title>
<path fill="none" stroke="#191970" d="M199.2627,-178.387C204.8294,-180.9149 210.3332,-184.0119 215,-187.7587 257.071,-221.5365 288.0573,-278.7078 302.1182,-308.0929"/>
<polygon fill="#191970" stroke="#191970" points="298.9842,-309.654 306.3763,-317.244 305.3308,-306.7009 298.9842,-309.654"/>
</g>
<!-- Node43206 -->
<g id="node4" class="node">
<title>Node43206</title>
<g id="a_node4"><a xlink:href="quickjs_8c.html#a288254c06a39c9fca740a7abdad2834e" target="_top" xlink:title="__JS_AtomIsTaggedInt">
<polygon fill="none" stroke="#000000" points="436.5,-251.2587 436.5,-270.2587 555.5,-270.2587 555.5,-251.2587 436.5,-251.2587"/>
<text text-anchor="middle" x="496" y="-258.2587" font-family="Helvetica,sans-Serif" font-size="10.00" fill="#000000">__JS_AtomIsTaggedInt</text>
</a>
</g>
</g>
<!-- Node43205&#45;&gt;Node43206 -->
<g id="edge3" class="edge">
<title>Node43205&#45;&gt;Node43206</title>
<path fill="none" stroke="#191970" d="M327.2472,-317.2246C345.9311,-306.9404 377.3108,-290.7066 406,-280.7587 414.8669,-277.6841 424.3933,-274.9688 433.8119,-272.6094"/>
<polygon fill="#191970" stroke="#191970" points="434.6441,-276.0092 443.5559,-270.2794 433.0161,-269.2011 434.6441,-276.0092"/>
</g>
<!-- Node43207 -->
<g id="node5" class="node">
<title>Node43207</title>
<g id="a_node5"><a xlink:href="quickjs_8c.html#a89f38938cee8077ce1fbba07946ed185" target="_top" xlink:title="__JS_AtomToUInt32">
<polygon fill="none" stroke="#000000" points="442,-213.2587 442,-232.2587 550,-232.2587 550,-213.2587 442,-213.2587"/>
<text text-anchor="middle" x="496" y="-220.2587" font-family="Helvetica,sans-Serif" font-size="10.00" fill="#000000">__JS_AtomToUInt32</text>
</a>
</g>
</g>
<!-- Node43205&#45;&gt;Node43207 -->
<g id="edge4" class="edge">
<title>Node43205&#45;&gt;Node43207</title>
<path fill="none" stroke="#191970" d="M318.2894,-317.0797C333.2612,-299.1772 367.96,-260.9706 406,-241.7587 414.0605,-237.6878 422.9513,-234.4883 431.9123,-231.9738"/>
<polygon fill="#191970" stroke="#191970" points="432.7973,-235.3603 441.6274,-229.5054 431.0735,-228.5758 432.7973,-235.3603"/>
</g>
<!-- Node43208 -->
<g id="node6" class="node">
<title>Node43208</title>
<g id="a_node6"><a xlink:href="quickjs_8c.html#a077ffa6455c0d7831bd4547542b5f2f7" target="_top" xlink:title="js_new_string_char">
<polygon fill="none" stroke="#ff0000" points="445.5,-175.2587 445.5,-194.2587 546.5,-194.2587 546.5,-175.2587 445.5,-175.2587"/>
<text text-anchor="middle" x="496" y="-182.2587" font-family="Helvetica,sans-Serif" font-size="10.00" fill="#000000">js_new_string_char</text>
</a>
</g>
</g>
<!-- Node43205&#45;&gt;Node43208 -->
<g id="edge5" class="edge">
<title>Node43205&#45;&gt;Node43208</title>
<path fill="none" stroke="#191970" d="M314.9339,-317.2179C326.3656,-293.7535 359.253,-233.023 406,-203.7587 414.8216,-198.2363 424.9845,-194.2943 435.234,-191.4859"/>
<polygon fill="#191970" stroke="#191970" points="436.1422,-194.8674 445.0465,-189.1261 434.5053,-188.0614 436.1422,-194.8674"/>
</g>
<!-- Node43236 -->
<g id="node7" class="node">
<title>Node43236</title>
<g id="a_node7"><a xlink:href="quickjs_8h.html#a2050bc428da1c65ac7eb87c3fa3b0392" target="_top" xlink:title="JS_NewInt32">
<polygon fill="none" stroke="#000000" points="458,-137.2587 458,-156.2587 534,-156.2587 534,-137.2587 458,-137.2587"/>
<text text-anchor="middle" x="496" y="-144.2587" font-family="Helvetica,sans-Serif" font-size="10.00" fill="#000000">JS_NewInt32</text>
</a>
</g>
</g>
<!-- Node43205&#45;&gt;Node43236 -->
<g id="edge6" class="edge">
<title>Node43205&#45;&gt;Node43236</title>
<path fill="none" stroke="#191970" d="M313.2687,-316.8823C321.8001,-288.383 350.5238,-205.5093 406,-165.7587 418.0125,-157.1514 433.1006,-152.2841 447.4711,-149.5777"/>
<polygon fill="#191970" stroke="#191970" points="448.4164,-152.9724 457.7539,-147.9663 447.3326,-146.0568 448.4164,-152.9724"/>
</g>
<!-- Node43237 -->
<g id="node8" class="node">
<title>Node43237</title>
<g id="a_node8"><a xlink:href="quickjs_8c.html#a93550bf785e919d0881399712c54cb34" target="_top" xlink:title="JS_GetPrototypePrimitive">
<polygon fill="none" stroke="#000000" points="431,-605.2587 431,-624.2587 561,-624.2587 561,-605.2587 431,-605.2587"/>
<text text-anchor="middle" x="496" y="-612.2587" font-family="Helvetica,sans-Serif" font-size="10.00" fill="#000000">JS_GetPrototypePrimitive</text>
</a>
</g>
</g>
<!-- Node43205&#45;&gt;Node43237 -->
<g id="edge7" class="edge">
<title>Node43205&#45;&gt;Node43237</title>
<path fill="none" stroke="#191970" d="M310.7453,-336.424C312.2911,-375.5643 323.5788,-523.6362 406,-595.7587 410.5424,-599.7335 415.7054,-602.9488 421.2066,-605.5422"/>
<polygon fill="#191970" stroke="#191970" points="420.1494,-608.8886 430.7344,-609.3438 422.7436,-602.387 420.1494,-608.8886"/>
</g>
<!-- Node43238 -->
<g id="node9" class="node">
<title>Node43238</title>
<g id="a_node9"><a xlink:href="quickjs_8c.html#a06b76f5124fd985e35f4c652fd018d6d" target="_top" xlink:title="find_own_property">
<polygon fill="none" stroke="#ff0000" points="448,-567.2587 448,-586.2587 544,-586.2587 544,-567.2587 448,-567.2587"/>
<text text-anchor="middle" x="496" y="-574.2587" font-family="Helvetica,sans-Serif" font-size="10.00" fill="#000000">find_own_property</text>
</a>
</g>
</g>
<!-- Node43205&#45;&gt;Node43238 -->
<g id="edge8" class="edge">
<title>Node43205&#45;&gt;Node43238</title>
<path fill="none" stroke="#191970" d="M311.6178,-336.6729C316.1304,-371.892 336.2535,-492.1033 406,-552.7587 415.0563,-560.6346 426.4261,-565.961 438.0068,-569.5543"/>
<polygon fill="#191970" stroke="#191970" points="437.1713,-572.954 447.738,-572.1829 438.9968,-566.1962 437.1713,-572.954"/>
</g>
<!-- Node43234 -->
<g id="node10" class="node">
<title>Node43234</title>
<g id="a_node10"><a xlink:href="quickjs_8h.html#a775522f2d084fc8fa0fcb33f390006b4" target="_top" xlink:title="JS_DupValue">
<polygon fill="none" stroke="#000000" points="457.5,-61.2587 457.5,-80.2587 534.5,-80.2587 534.5,-61.2587 457.5,-61.2587"/>
<text text-anchor="middle" x="496" y="-68.2587" font-family="Helvetica,sans-Serif" font-size="10.00" fill="#000000">JS_DupValue</text>
</a>
</g>
</g>
<!-- Node43205&#45;&gt;Node43234 -->
<g id="edge9" class="edge">
<title>Node43205&#45;&gt;Node43234</title>
<path fill="none" stroke="#191970" d="M311.2434,-317.2499C314.594,-281.2477 331.5645,-152.1884 406,-89.7587 417.5321,-80.0867 432.7718,-74.9611 447.426,-72.3453"/>
<polygon fill="#191970" stroke="#191970" points="448.0236,-75.7955 457.4249,-70.9103 447.0291,-68.8665 448.0236,-75.7955"/>
</g>
<!-- Node43241 -->
<g id="node11" class="node">
<title>Node43241</title>
<g id="a_node11"><a xlink:href="quickjs_8c.html#a75f6ee5e4235a7dc99889f3d2eb2c147" target="_top" xlink:title="JS_CallFree">
<polygon fill="none" stroke="#ff0000" points="460.5,-491.2587 460.5,-510.2587 531.5,-510.2587 531.5,-491.2587 460.5,-491.2587"/>
<text text-anchor="middle" x="496" y="-498.2587" font-family="Helvetica,sans-Serif" font-size="10.00" fill="#000000">JS_CallFree</text>
</a>
</g>
</g>
<!-- Node43205&#45;&gt;Node43241 -->
<g id="edge10" class="edge">
<title>Node43205&#45;&gt;Node43241</title>
<path fill="none" stroke="#191970" d="M313.3848,-336.2733C322.2308,-363.7273 351.7224,-443.5535 406,-481.7587 418.8384,-490.7955 435.0894,-495.6936 450.2384,-498.299"/>
<polygon fill="#191970" stroke="#191970" points="450.1012,-501.8147 460.4947,-499.7591 451.0879,-494.8845 450.1012,-501.8147"/>
</g>
<!-- Node43285 -->
<g id="node12" class="node">
<title>Node43285</title>
<g id="a_node12"><a xlink:href="quickjs_8h.html#afaa20c47565bc704c6c85f3d77254e7d" target="_top" xlink:title="JS_FreeValue">
<polygon fill="none" stroke="#ff0000" points="626,-510.2587 626,-529.2587 704,-529.2587 704,-510.2587 626,-510.2587"/>
<text text-anchor="middle" x="665" y="-517.2587" font-family="Helvetica,sans-Serif" font-size="10.00" fill="#000000">JS_FreeValue</text>
</a>
</g>
</g>
<!-- Node43205&#45;&gt;Node43285 -->
<g id="edge20" class="edge">
<title>Node43205&#45;&gt;Node43285</title>
<path fill="none" stroke="#191970" d="M311.7414,-336.3022C316.574,-369.0482 337.3977,-477.163 406,-519.7587 473.2893,-561.5392 570.6015,-545.8234 624.7625,-531.954"/>
<polygon fill="#191970" stroke="#191970" points="625.9159,-535.2689 634.6771,-529.3113 624.1129,-528.505 625.9159,-535.2689"/>
</g>
<!-- Node43507 -->
<g id="node13" class="node">
<title>Node43507</title>
<g id="a_node13"><a xlink:href="quickjs_8h.html#aaab426b47c95d00479b7355b1cf7f56c" target="_top" xlink:title="JS_IsUninitialized">
<polygon fill="none" stroke="#000000" points="448.5,-415.2587 448.5,-434.2587 543.5,-434.2587 543.5,-415.2587 448.5,-415.2587"/>
<text text-anchor="middle" x="496" y="-422.2587" font-family="Helvetica,sans-Serif" font-size="10.00" fill="#000000">JS_IsUninitialized</text>
</a>
</g>
</g>
<!-- Node43205&#45;&gt;Node43507 -->
<g id="edge12" class="edge">
<title>Node43205&#45;&gt;Node43507</title>
<path fill="none" stroke="#191970" d="M318.9278,-336.2611C334.409,-353.0808 369.1796,-387.9911 406,-405.7587 416.0205,-410.5941 427.2529,-414.2049 438.2954,-416.8994"/>
<polygon fill="#191970" stroke="#191970" points="437.8225,-420.3794 448.3428,-419.1252 439.3366,-413.5451 437.8225,-420.3794"/>
</g>
<!-- Node43508 -->
<g id="node14" class="node">
<title>Node43508</title>
<g id="a_node14"><a xlink:href="quickjs_8c.html#a75ac132a3af4de01e1fadeb0bede6ee7" target="_top" xlink:title="JS_ThrowReferenceErrorUninitialized">
<polygon fill="none" stroke="#ff0000" points="406,-377.2587 406,-396.2587 586,-396.2587 586,-377.2587 406,-377.2587"/>
<text text-anchor="middle" x="496" y="-384.2587" font-family="Helvetica,sans-Serif" font-size="10.00" fill="#000000">JS_ThrowReferenceErrorUninitialized</text>
</a>
</g>
</g>
<!-- Node43205&#45;&gt;Node43508 -->
<g id="edge13" class="edge">
<title>Node43205&#45;&gt;Node43508</title>
<path fill="none" stroke="#191970" d="M329.8222,-336.3986C348.8146,-345.5493 378.8228,-359.1492 406,-367.7587 414.4064,-370.4218 423.3736,-372.82 432.2686,-374.9437"/>
<polygon fill="#191970" stroke="#191970" points="431.7184,-378.4082 442.2469,-377.2243 433.2781,-371.5841 431.7184,-378.4082"/>
</g>
<!-- Node43394 -->
<g id="node15" class="node">
<title>Node43394</title>
<g id="a_node15"><a xlink:href="quickjs_8c.html#a8aac7988cf0c6f3c2b629a6662fd7ec8" target="_top" xlink:title="JS_AutoInitProperty">
<polygon fill="none" stroke="#ff0000" points="444,-99.2587 444,-118.2587 548,-118.2587 548,-99.2587 444,-99.2587"/>
<text text-anchor="middle" x="496" y="-106.2587" font-family="Helvetica,sans-Serif" font-size="10.00" fill="#000000">JS_AutoInitProperty</text>
</a>
</g>
</g>
<!-- Node43205&#45;&gt;Node43394 -->
<g id="edge14" class="edge">
<title>Node43205&#45;&gt;Node43394</title>
<path fill="none" stroke="#191970" d="M312.0779,-316.9963C317.8846,-284.4201 341.2018,-178.6441 406,-127.7587 414.1853,-121.3309 424.0359,-116.9444 434.1735,-113.9765"/>
<polygon fill="#191970" stroke="#191970" points="435.078,-117.3582 443.9358,-111.5454 433.3864,-110.5657 435.078,-117.3582"/>
</g>
<!-- Node43327 -->
<g id="node17" class="node">
<title>Node43327</title>
<g id="a_node17"><a xlink:href="quickjs_8c.html#aeb97957655d979e9fe56c955da2b2d4b" target="_top" xlink:title="JS_GetPropertyUint32">
<polygon fill="none" stroke="#ff0000" points="438.5,-339.2587 438.5,-358.2587 553.5,-358.2587 553.5,-339.2587 438.5,-339.2587"/>
<text text-anchor="middle" x="496" y="-346.2587" font-family="Helvetica,sans-Serif" font-size="10.00" fill="#000000">JS_GetPropertyUint32</text>
</a>
</g>
</g>
<!-- Node43205&#45;&gt;Node43327 -->
<g id="edge16" class="edge">
<title>Node43205&#45;&gt;Node43327</title>
<path fill="none" stroke="#191970" d="M370.2144,-333.8408C388.7087,-336.0342 409.2188,-338.4666 428.2185,-340.72"/>
<polygon fill="#191970" stroke="#191970" points="427.9531,-344.2129 438.2957,-341.9151 428.7776,-337.2616 427.9531,-344.2129"/>
</g>
<!-- Node43423 -->
<g id="node18" class="node">
<title>Node43423</title>
<g id="a_node18"><a xlink:href="quickjs_8c.html#add3eea1f6d626963ade3c28a1fd563d1" target="_top" xlink:title="JS_AtomIsNumericIndex">
<polygon fill="none" stroke="#ff0000" points="433,-453.2587 433,-472.2587 559,-472.2587 559,-453.2587 433,-453.2587"/>
<text text-anchor="middle" x="496" y="-460.2587" font-family="Helvetica,sans-Serif" font-size="10.00" fill="#000000">JS_AtomIsNumericIndex</text>
</a>
</g>
</g>
<!-- Node43205&#45;&gt;Node43423 -->
<g id="edge17" class="edge">
<title>Node43205&#45;&gt;Node43423</title>
<path fill="none" stroke="#191970" d="M315.4173,-336.502C327.4574,-359.2876 360.7676,-416.204 406,-443.7587 411.37,-447.03 417.2172,-449.7445 423.2678,-451.9961"/>
<polygon fill="#191970" stroke="#191970" points="422.3111,-455.3658 432.904,-455.1667 424.4989,-448.7165 422.3111,-455.3658"/>
</g>
<!-- Node43424 -->
<g id="node19" class="node">
<title>Node43424</title>
<g id="a_node19"><a xlink:href="quickjs_8c.html#ab8d0b87c9eed4eb6c054b6f4e1731554" target="_top" xlink:title="JS_ThrowReferenceErrorNot\lDefined">
<polygon fill="none" stroke="#ff0000" points="424.5,-289.7587 424.5,-319.7587 567.5,-319.7587 567.5,-289.7587 424.5,-289.7587"/>
<text text-anchor="start" x="432.5" y="-307.7587" font-family="Helvetica,sans-Serif" font-size="10.00" fill="#000000">JS_ThrowReferenceErrorNot</text>
<text text-anchor="middle" x="496" y="-296.7587" font-family="Helvetica,sans-Serif" font-size="10.00" fill="#000000">Defined</text>
</a>
</g>
</g>
<!-- Node43205&#45;&gt;Node43424 -->
<g id="edge21" class="edge">
<title>Node43205&#45;&gt;Node43424</title>
<path fill="none" stroke="#191970" d="M370.2144,-319.6767C384.2413,-318.0131 399.4278,-316.212 414.2353,-314.4559"/>
<polygon fill="#191970" stroke="#191970" points="414.8892,-317.903 424.4073,-313.2495 414.0647,-310.9517 414.8892,-317.903"/>
</g>
<!-- Node43241&#45;&gt;Node43285 -->
<g id="edge11" class="edge">
<title>Node43241&#45;&gt;Node43285</title>
<path fill="none" stroke="#191970" d="M531.8406,-504.7881C556.3265,-507.541 589.0816,-511.2235 615.9775,-514.2473"/>
<polygon fill="#191970" stroke="#191970" points="615.6409,-517.7315 625.9693,-515.3707 616.423,-510.7753 615.6409,-517.7315"/>
</g>
<!-- Node43394&#45;&gt;Node43296 -->
<g id="edge15" class="edge">
<title>Node43394&#45;&gt;Node43296</title>
<path fill="none" stroke="#191970" d="M542.302,-99.2427C556.3548,-96.2849 571.8246,-92.959 586,-89.7587 595.804,-87.5454 606.2703,-85.0922 616.2706,-82.7043"/>
<polygon fill="#191970" stroke="#191970" points="617.1681,-86.0884 626.074,-80.3494 615.533,-79.282 617.1681,-86.0884"/>
</g>
<!-- Node43423&#45;&gt;Node43285 -->
<g id="edge19" class="edge">
<title>Node43423&#45;&gt;Node43285</title>
<path fill="none" stroke="#191970" d="M551.7786,-472.3514C563.2348,-474.9281 575.1158,-478.0525 586,-481.7587 604.3184,-487.9964 623.9284,-497.4119 639.0281,-505.3099"/>
<polygon fill="#191970" stroke="#191970" points="637.7711,-508.6065 648.2405,-510.2321 641.0699,-502.4325 637.7711,-508.6065"/>
</g>
<!-- Node43423&#45;&gt;Node43296 -->
<g id="edge18" class="edge">
<title>Node43423&#45;&gt;Node43296</title>
<path fill="none" stroke="#191970" d="M559.2786,-459.0647C569.2418,-455.9325 578.6578,-451.0962 586,-443.7587 636.7831,-393.0089 658.2265,-160.4454 663.5896,-90.6303"/>
<polygon fill="#191970" stroke="#191970" points="667.0884,-90.7747 664.3381,-80.5431 660.1076,-90.2566 667.0884,-90.7747"/>
</g>
<!-- Node43638&#45;&gt;Node43285 -->
<g id="edge28" class="edge">
<title>Node43638&#45;&gt;Node43285</title>
<path fill="none" stroke="#191970" d="M169.7242,-216.3664C179.9543,-270.16 238.0599,-535.0994 406,-633.7587 474.9779,-674.281 515.1292,-670.8711 586,-633.7587 624.2286,-613.7399 647.6486,-565.8823 658.259,-538.973"/>
<polygon fill="#191970" stroke="#191970" points="661.5852,-540.0709 661.8119,-529.4785 655.0292,-537.6175 661.5852,-540.0709"/>
</g>
<!-- Node43639 -->
<g id="node21" class="node">
<title>Node43639</title>
<g id="a_node21"><a xlink:href="quickjs_8c.html#a537e88d38784e3df2a19c72f8bd1d77e" target="_top" xlink:title="JS_ToInt64Clamp">
<polygon fill="none" stroke="#000000" points="263,-61.2587 263,-80.2587 358,-80.2587 358,-61.2587 263,-61.2587"/>
<text text-anchor="middle" x="310.5" y="-68.2587" font-family="Helvetica,sans-Serif" font-size="10.00" fill="#000000">JS_ToInt64Clamp</text>
</a>
</g>
</g>
<!-- Node43638&#45;&gt;Node43639 -->
<g id="edge24" class="edge">
<title>Node43638&#45;&gt;Node43639</title>
<path fill="none" stroke="#191970" d="M198.0325,-197.2493C203.9497,-194.6666 209.8991,-191.5187 215,-187.7587 252.6171,-160.0308 284.1452,-114.2006 299.8293,-88.9143"/>
<polygon fill="#191970" stroke="#191970" points="302.8545,-90.6756 305.0443,-80.3095 296.8681,-87.0475 302.8545,-90.6756"/>
</g>
<!-- Node43639&#45;&gt;Node43234 -->
<g id="edge27" class="edge">
<title>Node43639&#45;&gt;Node43234</title>
<path fill="none" stroke="#191970" d="M358.2709,-70.7587C385.5897,-70.7587 419.7779,-70.7587 447.2573,-70.7587"/>
<polygon fill="#191970" stroke="#191970" points="447.4323,-74.2588 457.4323,-70.7587 447.4323,-67.2588 447.4323,-74.2588"/>
</g>
<!-- Node43640 -->
<g id="node22" class="node">
<title>Node43640</title>
<g id="a_node22"><a xlink:href="quickjs_8c.html#a8c94da482e7e46bf333be67ff97e58c1" target="_top" xlink:title="JS_ToInt64SatFree">
<polygon fill="none" stroke="#ff0000" points="445.5,-23.2587 445.5,-42.2587 546.5,-42.2587 546.5,-23.2587 445.5,-23.2587"/>
<text text-anchor="middle" x="496" y="-30.2587" font-family="Helvetica,sans-Serif" font-size="10.00" fill="#000000">JS_ToInt64SatFree</text>
</a>
</g>
</g>
<!-- Node43639&#45;&gt;Node43640 -->
<g id="edge25" class="edge">
<title>Node43639&#45;&gt;Node43640</title>
<path fill="none" stroke="#191970" d="M357.3095,-61.1697C382.3395,-56.0423 413.3414,-49.6915 439.6822,-44.2955"/>
<polygon fill="#191970" stroke="#191970" points="440.433,-47.7145 449.5271,-42.2788 439.0281,-40.8569 440.433,-47.7145"/>
</g>
<!-- Node43640&#45;&gt;Node43296 -->
<g id="edge26" class="edge">
<title>Node43640&#45;&gt;Node43296</title>
<path fill="none" stroke="#191970" d="M542.302,-42.2748C556.3548,-45.2326 571.8246,-48.5585 586,-51.7587 595.804,-53.9721 606.2703,-56.4252 616.2706,-58.8132"/>
<polygon fill="#191970" stroke="#191970" points="615.533,-62.2355 626.074,-61.1681 617.1681,-55.4291 615.533,-62.2355"/>
</g>
</g>
</svg>
