<?xml version="1.0" encoding="UTF-8" standalone="no"?>
<!DOCTYPE svg PUBLIC "-//W3C//DTD SVG 1.1//EN"
 "http://www.w3.org/Graphics/SVG/1.1/DTD/svg11.dtd">
<!-- Generated by graphviz version 2.40.1 (20161225.0304)
 -->
<!-- Title: JS_InstantiateFunctionListItem Pages: 1 -->
<!--zoomable 619 -->
<svg id="main" version="1.1" xmlns="http://www.w3.org/2000/svg" xmlns:xlink="http://www.w3.org/1999/xlink" xml:space="preserve" onload="init(evt)">
<style type="text/css"><![CDATA[
.edge:hover path { stroke: red; }
.edge:hover polygon { stroke: red; fill: red; }
]]></style>
<script type="text/javascript"><![CDATA[
var edges = document.getElementsByTagName('g');
if (edges && edges.length) {
  for (var i=0;i<edges.length;i++) {
    if (edges[i].id.substr(0,4)=='edge') {
      edges[i].setAttribute('class','edge');
    }
  }
}
]]></script>
        <defs>
                <circle id="rim" cx="0" cy="0" r="7"/>
                <circle id="rim2" cx="0" cy="0" r="3.5"/>
                <g id="zoomPlus">
                        <use xlink:href="#rim" fill="#404040">
                                <set attributeName="fill" to="#808080" begin="zoomplus.mouseover" end="zoomplus.mouseout"/>
                        </use>
                        <path d="M-4,0h8M0,-4v8" fill="none" stroke="white" stroke-width="1.5" pointer-events="none"/>
                </g>
                <g id="zoomMin">
                        <use xlink:href="#rim" fill="#404040">
                                <set attributeName="fill" to="#808080" begin="zoomminus.mouseover" end="zoomminus.mouseout"/>
                        </use>
                        <path d="M-4,0h8" fill="none" stroke="white" stroke-width="1.5" pointer-events="none"/>
                </g>
                <g id="dirArrow">
                        <path fill="none" stroke="white" stroke-width="1.5" d="M0,-3.0v7 M-2.5,-0.5L0,-3.0L2.5,-0.5"/>
                </g>
               <g id="resetDef">
                       <use xlink:href="#rim2" fill="#404040">
                               <set attributeName="fill" to="#808080" begin="reset.mouseover" end="reset.mouseout"/>
                       </use>
               </g>
        </defs>

<script type="text/javascript">
var viewWidth = 906;
var viewHeight = 619;
var sectionId = 'dynsection-1383';
</script>
<script xlink:href="svgpan.js"/>
<svg id="graph" class="graph">
<g id="viewport">
<title>JS_InstantiateFunctionListItem</title>
<!-- Node371246 -->
<g id="node1" class="node">
<title>Node371246</title>
<polygon fill="#bfbfbf" stroke="#000000" points="0,-323.5 0,-342.5 152,-342.5 152,-323.5 0,-323.5"/>
<text text-anchor="middle" x="76" y="-330.5" font-family="Helvetica,sans-Serif" font-size="10.00" fill="#000000">JS_InstantiateFunctionListItem</text>
</g>
<!-- Node371247 -->
<g id="node2" class="node">
<title>Node371247</title>
<g id="a_node2"><a xlink:href="quickjs_8h.html#a9bf98b18de88b4199910a43e933eb97d" target="_top" xlink:title="__JS_NewFloat64">
<polygon fill="none" stroke="#000000" points="360.5,-589.5 360.5,-608.5 457.5,-608.5 457.5,-589.5 360.5,-589.5"/>
<text text-anchor="middle" x="409" y="-596.5" font-family="Helvetica,sans-Serif" font-size="10.00" fill="#000000">__JS_NewFloat64</text>
</a>
</g>
</g>
<!-- Node371246&#45;&gt;Node371247 -->
<g id="edge1" class="edge">
<title>Node371246&#45;&gt;Node371247</title>
<path fill="none" stroke="#191970" d="M77.0037,-342.7321C81.4968,-380.7653 103.4191,-520.1995 188,-580 234.8715,-613.1392 302.0876,-614.128 350.0645,-609.1714"/>
<polygon fill="#191970" stroke="#191970" points="350.7643,-612.6141 360.2991,-607.9947 349.9647,-605.6599 350.7643,-612.6141"/>
</g>
<!-- Node371248 -->
<g id="node3" class="node">
<title>Node371248</title>
<g id="a_node3"><a xlink:href="quickjs_8c.html#ae8e62d181b34d2e7bdda0b099c0880f5" target="_top" xlink:title="find_atom">
<polygon fill="none" stroke="#000000" points="379.5,-114.5 379.5,-133.5 438.5,-133.5 438.5,-114.5 379.5,-114.5"/>
<text text-anchor="middle" x="409" y="-121.5" font-family="Helvetica,sans-Serif" font-size="10.00" fill="#000000">find_atom</text>
</a>
</g>
</g>
<!-- Node371246&#45;&gt;Node371248 -->
<g id="edge2" class="edge">
<title>Node371246&#45;&gt;Node371248</title>
<path fill="none" stroke="#191970" d="M91.1736,-323.4766C144.0479,-290.2913 320.4658,-179.5665 385.0482,-139.0328"/>
<polygon fill="#191970" stroke="#191970" points="387.1279,-141.8598 393.7373,-133.5793 383.4067,-135.9309 387.1279,-141.8598"/>
</g>
<!-- Node371301 -->
<g id="node8" class="node">
<title>Node371301</title>
<g id="a_node8"><a xlink:href="quickjs_8c.html#a7128998511654840928b9df9d4c55b3c" target="_top" xlink:title="JS_DefineAutoInitProperty">
<polygon fill="none" stroke="#000000" points="188,-285.5 188,-304.5 321,-304.5 321,-285.5 188,-285.5"/>
<text text-anchor="middle" x="254.5" y="-292.5" font-family="Helvetica,sans-Serif" font-size="10.00" fill="#000000">JS_DefineAutoInitProperty</text>
</a>
</g>
</g>
<!-- Node371246&#45;&gt;Node371301 -->
<g id="edge7" class="edge">
<title>Node371246&#45;&gt;Node371301</title>
<path fill="none" stroke="#191970" d="M121.0431,-323.411C145.0225,-318.3061 174.6979,-311.9887 199.9721,-306.6082"/>
<polygon fill="#191970" stroke="#191970" points="200.7288,-310.0256 209.7808,-304.5201 199.2712,-303.179 200.7288,-310.0256"/>
</g>
<!-- Node371351 -->
<g id="node20" class="node">
<title>Node371351</title>
<g id="a_node20"><a xlink:href="quickjs_8c.html#abfb24c507e9a341c0a98e61d86fd8663" target="_top" xlink:title="JS_DefinePropertyGetSet">
<polygon fill="none" stroke="#000000" points="189.5,-418.5 189.5,-437.5 319.5,-437.5 319.5,-418.5 189.5,-418.5"/>
<text text-anchor="middle" x="254.5" y="-425.5" font-family="Helvetica,sans-Serif" font-size="10.00" fill="#000000">JS_DefinePropertyGetSet</text>
</a>
</g>
</g>
<!-- Node371246&#45;&gt;Node371351 -->
<g id="edge25" class="edge">
<title>Node371246&#45;&gt;Node371351</title>
<path fill="none" stroke="#191970" d="M87.3475,-342.532C106.7795,-358.4171 148.1919,-390.3927 188,-409 192.9629,-411.3198 198.269,-413.4162 203.6384,-415.2951"/>
<polygon fill="#191970" stroke="#191970" points="202.7189,-418.6765 213.3112,-418.4437 204.8856,-412.0203 202.7189,-418.6765"/>
</g>
<!-- Node371392 -->
<g id="node24" class="node">
<title>Node371392</title>
<g id="a_node24"><a xlink:href="quickjs_8h.html#a2050bc428da1c65ac7eb87c3fa3b0392" target="_top" xlink:title="JS_NewInt32">
<polygon fill="none" stroke="#000000" points="521.5,-532.5 521.5,-551.5 597.5,-551.5 597.5,-532.5 521.5,-532.5"/>
<text text-anchor="middle" x="559.5" y="-539.5" font-family="Helvetica,sans-Serif" font-size="10.00" fill="#000000">JS_NewInt32</text>
</a>
</g>
</g>
<!-- Node371246&#45;&gt;Node371392 -->
<g id="edge44" class="edge">
<title>Node371246&#45;&gt;Node371392</title>
<path fill="none" stroke="#191970" d="M82.5949,-342.6725C98.1874,-364.7679 139.6675,-419.1788 188,-447 293.387,-507.663 437.5142,-530.1229 511.4462,-538.0129"/>
<polygon fill="#191970" stroke="#191970" points="511.0967,-541.4953 521.4012,-539.032 511.8096,-534.5317 511.0967,-541.4953"/>
</g>
<!-- Node371472 -->
<g id="node25" class="node">
<title>Node371472</title>
<g id="a_node25"><a xlink:href="quickjs_8c.html#a0a8765bd4012467d9139bc24aabcb3ca" target="_top" xlink:title="JS_DefinePropertyValue">
<polygon fill="none" stroke="#000000" points="192.5,-380.5 192.5,-399.5 316.5,-399.5 316.5,-380.5 192.5,-380.5"/>
<text text-anchor="middle" x="254.5" y="-387.5" font-family="Helvetica,sans-Serif" font-size="10.00" fill="#000000">JS_DefinePropertyValue</text>
</a>
</g>
</g>
<!-- Node371246&#45;&gt;Node371472 -->
<g id="edge33" class="edge">
<title>Node371246&#45;&gt;Node371472</title>
<path fill="none" stroke="#191970" d="M105.8769,-342.5405C135.7379,-352.076 181.8273,-366.7936 214.76,-377.3099"/>
<polygon fill="#191970" stroke="#191970" points="213.9348,-380.7205 224.5256,-380.4284 216.0642,-374.0522 213.9348,-380.7205"/>
</g>
<!-- Node371340 -->
<g id="node26" class="node">
<title>Node371340</title>
<g id="a_node26"><a xlink:href="quickjs_8c.html#ab7fc45a99935a1c0ba50b0216d9401a9" target="_top" xlink:title="JS_FreeAtom">
<polygon fill="none" stroke="#ff0000" points="521,-.5 521,-19.5 598,-19.5 598,-.5 521,-.5"/>
<text text-anchor="middle" x="559.5" y="-7.5" font-family="Helvetica,sans-Serif" font-size="10.00" fill="#000000">JS_FreeAtom</text>
</a>
</g>
</g>
<!-- Node371246&#45;&gt;Node371340 -->
<g id="edge36" class="edge">
<title>Node371246&#45;&gt;Node371340</title>
<path fill="none" stroke="#191970" d="M77.2543,-323.2993C82.6237,-285.9679 107.2128,-150.4573 188,-86 237.3763,-46.6044 421.4812,-23.5657 510.5793,-14.4984"/>
<polygon fill="#191970" stroke="#191970" points="511.099,-17.964 520.7014,-13.487 510.403,-10.9987 511.099,-17.964"/>
</g>
<!-- Node371388 -->
<g id="node27" class="node">
<title>Node371388</title>
<g id="a_node27"><a xlink:href="quickjs_8h.html#a89b7c8686c7eee70b86be722ee4730ad" target="_top" xlink:title="JS_GetProperty">
<polygon fill="none" stroke="#ff0000" points="211.5,-.5 211.5,-19.5 297.5,-19.5 297.5,-.5 211.5,-.5"/>
<text text-anchor="middle" x="254.5" y="-7.5" font-family="Helvetica,sans-Serif" font-size="10.00" fill="#000000">JS_GetProperty</text>
</a>
</g>
</g>
<!-- Node371246&#45;&gt;Node371388 -->
<g id="edge38" class="edge">
<title>Node371246&#45;&gt;Node371388</title>
<path fill="none" stroke="#191970" d="M76.7446,-323.4329C80.4325,-282.5533 100.2643,-120.6848 188,-34 192.0382,-30.0102 196.7878,-26.6787 201.8599,-23.8978"/>
<polygon fill="#191970" stroke="#191970" points="203.7049,-26.8973 211.2542,-19.4637 200.7169,-20.5671 203.7049,-26.8973"/>
</g>
<!-- Node371683 -->
<g id="node28" class="node">
<title>Node371683</title>
<g id="a_node28"><a xlink:href="quickjs_8c.html#a76d4772691a319f48dc636a0e7f6c1ed" target="_top" xlink:title="JS_NewCFunction2">
<polygon fill="none" stroke="#000000" points="202.5,-95.5 202.5,-114.5 306.5,-114.5 306.5,-95.5 202.5,-95.5"/>
<text text-anchor="middle" x="254.5" y="-102.5" font-family="Helvetica,sans-Serif" font-size="10.00" fill="#000000">JS_NewCFunction2</text>
</a>
</g>
</g>
<!-- Node371246&#45;&gt;Node371683 -->
<g id="edge39" class="edge">
<title>Node371246&#45;&gt;Node371683</title>
<path fill="none" stroke="#191970" d="M83.4427,-323.4934C110.66,-288.7284 205.0537,-168.1583 240.7139,-122.6091"/>
<polygon fill="#191970" stroke="#191970" points="243.6169,-124.5787 247.0256,-114.5472 238.1052,-120.2636 243.6169,-124.5787"/>
</g>
<!-- Node371473 -->
<g id="node30" class="node">
<title>Node371473</title>
<g id="a_node30"><a xlink:href="quickjs_8h.html#a6acbc709e59969eac6775f9b253b438f" target="_top" xlink:title="JS_NewInt64">
<polygon fill="none" stroke="#000000" points="216.5,-551.5 216.5,-570.5 292.5,-570.5 292.5,-551.5 216.5,-551.5"/>
<text text-anchor="middle" x="254.5" y="-558.5" font-family="Helvetica,sans-Serif" font-size="10.00" fill="#000000">JS_NewInt64</text>
</a>
</g>
</g>
<!-- Node371246&#45;&gt;Node371473 -->
<g id="edge45" class="edge">
<title>Node371246&#45;&gt;Node371473</title>
<path fill="none" stroke="#191970" d="M78.6183,-342.6771C87.8563,-375.0263 121.9837,-480.54 188,-537 193.5792,-541.7716 200.1815,-545.6236 207.0243,-548.7253"/>
<polygon fill="#191970" stroke="#191970" points="205.8469,-552.0242 216.4308,-552.5057 208.4573,-545.5291 205.8469,-552.0242"/>
</g>
<!-- Node371249 -->
<g id="node4" class="node">
<title>Node371249</title>
<g id="a_node4"><a xlink:href="quickjs_8c.html#abbf44eaeace1104a6bef718fbf5700fe" target="_top" xlink:title="JS_DupAtom">
<polygon fill="none" stroke="#000000" points="671.5,-266.5 671.5,-285.5 746.5,-285.5 746.5,-266.5 671.5,-266.5"/>
<text text-anchor="middle" x="709" y="-273.5" font-family="Helvetica,sans-Serif" font-size="10.00" fill="#000000">JS_DupAtom</text>
</a>
</g>
</g>
<!-- Node371248&#45;&gt;Node371249 -->
<g id="edge3" class="edge">
<title>Node371248&#45;&gt;Node371249</title>
<path fill="none" stroke="#191970" d="M438.5001,-116.7052C490.0022,-104.7158 593.5523,-84.151 622,-105 664.8558,-136.4085 631.6967,-172.8346 658,-219 666.5693,-234.0401 679.6357,-248.543 690.3972,-259.156"/>
<polygon fill="#191970" stroke="#191970" points="688.0765,-261.7793 697.7286,-266.1484 692.9078,-256.7138 688.0765,-261.7793"/>
</g>
<!-- Node371251 -->
<g id="node6" class="node">
<title>Node371251</title>
<g id="a_node6"><a xlink:href="quickjs_8c.html#aa2ef5af1544a3012f91a80c98c326b8f" target="_top" xlink:title="JS_NewAtom">
<polygon fill="none" stroke="#000000" points="521,-38.5 521,-57.5 598,-57.5 598,-38.5 521,-38.5"/>
<text text-anchor="middle" x="559.5" y="-45.5" font-family="Helvetica,sans-Serif" font-size="10.00" fill="#000000">JS_NewAtom</text>
</a>
</g>
</g>
<!-- Node371248&#45;&gt;Node371251 -->
<g id="edge5" class="edge">
<title>Node371248&#45;&gt;Node371251</title>
<path fill="none" stroke="#191970" d="M438.5348,-115.4733C446.1304,-112.6805 454.1007,-109.1934 461,-105 479.5479,-93.7267 478.5447,-83.4243 497,-72 503.5227,-67.9623 510.8363,-64.4113 518.0996,-61.3644"/>
<polygon fill="#191970" stroke="#191970" points="519.8616,-64.433 527.8936,-57.5238 517.3061,-57.9161 519.8616,-64.433"/>
</g>
<!-- Node371250 -->
<g id="node5" class="node">
<title>Node371250</title>
<g id="a_node5"><a xlink:href="quickjs_8c.html#a7f6796ee7a195631366f57c713a33f65" target="_top" xlink:title="__JS_AtomIsConst">
<polygon fill="none" stroke="#000000" points="796,-133.5 796,-152.5 898,-152.5 898,-133.5 796,-133.5"/>
<text text-anchor="middle" x="847" y="-140.5" font-family="Helvetica,sans-Serif" font-size="10.00" fill="#000000">__JS_AtomIsConst</text>
</a>
</g>
</g>
<!-- Node371249&#45;&gt;Node371250 -->
<g id="edge4" class="edge">
<title>Node371249&#45;&gt;Node371250</title>
<path fill="none" stroke="#191970" d="M718.9246,-266.435C742.0855,-244.1132 799.9597,-188.336 829.3204,-160.039"/>
<polygon fill="#191970" stroke="#191970" points="832.0215,-162.2968 836.793,-152.8372 827.1638,-157.2565 832.0215,-162.2968"/>
</g>
<!-- Node371252 -->
<g id="node7" class="node">
<title>Node371252</title>
<g id="a_node7"><a xlink:href="quickjs_8c.html#a522741f41afb1d0da0aa55968cd8579e" target="_top" xlink:title="JS_NewAtomLen">
<polygon fill="none" stroke="#ff0000" points="662.5,-38.5 662.5,-57.5 755.5,-57.5 755.5,-38.5 662.5,-38.5"/>
<text text-anchor="middle" x="709" y="-45.5" font-family="Helvetica,sans-Serif" font-size="10.00" fill="#000000">JS_NewAtomLen</text>
</a>
</g>
</g>
<!-- Node371251&#45;&gt;Node371252 -->
<g id="edge6" class="edge">
<title>Node371251&#45;&gt;Node371252</title>
<path fill="none" stroke="#191970" d="M598.3891,-48C614.8102,-48 634.2573,-48 652.2301,-48"/>
<polygon fill="#191970" stroke="#191970" points="652.3202,-51.5001 662.3202,-48 652.3202,-44.5001 652.3202,-51.5001"/>
</g>
<!-- Node371302 -->
<g id="node9" class="node">
<title>Node371302</title>
<g id="a_node9"><a xlink:href="quickjs_8c.html#a74547db03bf739a52c83a326b32db997" target="_top" xlink:title="add_property">
<polygon fill="none" stroke="#000000" points="372.5,-266.5 372.5,-285.5 445.5,-285.5 445.5,-266.5 372.5,-266.5"/>
<text text-anchor="middle" x="409" y="-273.5" font-family="Helvetica,sans-Serif" font-size="10.00" fill="#000000">add_property</text>
</a>
</g>
</g>
<!-- Node371301&#45;&gt;Node371302 -->
<g id="edge8" class="edge">
<title>Node371301&#45;&gt;Node371302</title>
<path fill="none" stroke="#191970" d="M321.3674,-286.7768C335.1385,-285.0833 349.3579,-283.3346 362.232,-281.7514"/>
<polygon fill="#191970" stroke="#191970" points="362.7361,-285.2159 372.2341,-280.5214 361.8817,-278.2682 362.7361,-285.2159"/>
</g>
<!-- Node371349 -->
<g id="node18" class="node">
<title>Node371349</title>
<g id="a_node18"><a xlink:href="quickjs_8c.html#a06b76f5124fd985e35f4c652fd018d6d" target="_top" xlink:title="find_own_property">
<polygon fill="none" stroke="#000000" points="511.5,-380.5 511.5,-399.5 607.5,-399.5 607.5,-380.5 511.5,-380.5"/>
<text text-anchor="middle" x="559.5" y="-387.5" font-family="Helvetica,sans-Serif" font-size="10.00" fill="#000000">find_own_property</text>
</a>
</g>
</g>
<!-- Node371301&#45;&gt;Node371349 -->
<g id="edge21" class="edge">
<title>Node371301&#45;&gt;Node371349</title>
<path fill="none" stroke="#191970" d="M284.7185,-304.5621C330.5712,-319.0505 420.4852,-347.3803 497,-371 503.7711,-373.0902 510.9602,-375.292 517.96,-377.4263"/>
<polygon fill="#191970" stroke="#191970" points="517.4233,-380.9214 528.0091,-380.4843 519.4612,-374.2246 517.4233,-380.9214"/>
</g>
<!-- Node371350 -->
<g id="node19" class="node">
<title>Node371350</title>
<g id="a_node19"><a xlink:href="quickjs_8c.html#a2814982d965920b44b14bef36ba18bba" target="_top" xlink:title="JS_DupContext">
<polygon fill="none" stroke="#000000" points="516.5,-114.5 516.5,-133.5 602.5,-133.5 602.5,-114.5 516.5,-114.5"/>
<text text-anchor="middle" x="559.5" y="-121.5" font-family="Helvetica,sans-Serif" font-size="10.00" fill="#000000">JS_DupContext</text>
</a>
</g>
</g>
<!-- Node371301&#45;&gt;Node371350 -->
<g id="edge24" class="edge">
<title>Node371301&#45;&gt;Node371350</title>
<path fill="none" stroke="#191970" d="M271.772,-285.3163C322.7292,-256.7469 472.6674,-172.6832 533.4556,-138.602"/>
<polygon fill="#191970" stroke="#191970" points="535.4064,-141.5208 542.4174,-133.5774 531.9831,-135.415 535.4064,-141.5208"/>
</g>
<!-- Node371303 -->
<g id="node10" class="node">
<title>Node371303</title>
<g id="a_node10"><a xlink:href="quickjs_8c.html#a3cadcaa2bd1e3f9359f1c006f396cfa0" target="_top" xlink:title="add_shape_property">
<polygon fill="none" stroke="#ff0000" points="507.5,-304.5 507.5,-323.5 611.5,-323.5 611.5,-304.5 507.5,-304.5"/>
<text text-anchor="middle" x="559.5" y="-311.5" font-family="Helvetica,sans-Serif" font-size="10.00" fill="#000000">add_shape_property</text>
</a>
</g>
</g>
<!-- Node371302&#45;&gt;Node371303 -->
<g id="edge9" class="edge">
<title>Node371302&#45;&gt;Node371303</title>
<path fill="none" stroke="#191970" d="M445.8164,-285.2958C465.7244,-290.3225 490.5383,-296.5877 511.8994,-301.9813"/>
<polygon fill="#191970" stroke="#191970" points="511.2028,-305.4151 521.7554,-304.4698 512.9166,-298.6281 511.2028,-305.4151"/>
</g>
<!-- Node371305 -->
<g id="node12" class="node">
<title>Node371305</title>
<g id="a_node12"><a xlink:href="quickjs_8c.html#a82dbe63adeac7849406fd48d96f39f7b" target="_top" xlink:title="js_shape_hash_link">
<polygon fill="none" stroke="#ff0000" points="658,-190.5 658,-209.5 760,-209.5 760,-190.5 658,-190.5"/>
<text text-anchor="middle" x="709" y="-197.5" font-family="Helvetica,sans-Serif" font-size="10.00" fill="#000000">js_shape_hash_link</text>
</a>
</g>
</g>
<!-- Node371302&#45;&gt;Node371305 -->
<g id="edge20" class="edge">
<title>Node371302&#45;&gt;Node371305</title>
<path fill="none" stroke="#191970" d="M414.2228,-266.3242C425.8739,-245.9032 456.2076,-198.8178 497,-181 555.5917,-155.4077 631.8241,-173.0886 675.087,-187.2393"/>
<polygon fill="#191970" stroke="#191970" points="673.9785,-190.5591 684.5728,-190.4597 676.2288,-183.9307 673.9785,-190.5591"/>
</g>
<!-- Node371320 -->
<g id="node14" class="node">
<title>Node371320</title>
<g id="a_node14"><a xlink:href="quickjs_8c.html#ac0c5dbb01d6082796c44b1c7f7c170f1" target="_top" xlink:title="find_hashed_shape_prop">
<polygon fill="none" stroke="#ff0000" points="497,-266.5 497,-285.5 622,-285.5 622,-266.5 497,-266.5"/>
<text text-anchor="middle" x="559.5" y="-273.5" font-family="Helvetica,sans-Serif" font-size="10.00" fill="#000000">find_hashed_shape_prop</text>
</a>
</g>
</g>
<!-- Node371302&#45;&gt;Node371320 -->
<g id="edge14" class="edge">
<title>Node371302&#45;&gt;Node371320</title>
<path fill="none" stroke="#191970" d="M445.8164,-276C458.211,-276 472.5071,-276 486.6877,-276"/>
<polygon fill="#191970" stroke="#191970" points="486.9641,-279.5001 496.9641,-276 486.964,-272.5001 486.9641,-279.5001"/>
</g>
<!-- Node371321 -->
<g id="node15" class="node">
<title>Node371321</title>
<g id="a_node15"><a xlink:href="quickjs_8c.html#a8e34657169da77ae6a386311351ed3de" target="_top" xlink:title="js_clone_shape">
<polygon fill="none" stroke="#ff0000" points="517.5,-342.5 517.5,-361.5 601.5,-361.5 601.5,-342.5 517.5,-342.5"/>
<text text-anchor="middle" x="559.5" y="-349.5" font-family="Helvetica,sans-Serif" font-size="10.00" fill="#000000">js_clone_shape</text>
</a>
</g>
</g>
<!-- Node371302&#45;&gt;Node371321 -->
<g id="edge15" class="edge">
<title>Node371302&#45;&gt;Node371321</title>
<path fill="none" stroke="#191970" d="M421.4612,-285.6903C437.9451,-298.1178 468.2763,-319.6543 497,-333 501.7633,-335.2131 506.8486,-337.2473 511.9836,-339.0949"/>
<polygon fill="#191970" stroke="#191970" points="511.2539,-342.5423 521.8479,-342.4159 513.4874,-335.9081 511.2539,-342.5423"/>
</g>
<!-- Node371323 -->
<g id="node16" class="node">
<title>Node371323</title>
<g id="a_node16"><a xlink:href="quickjs_8c.html#aed229eb80b3b03a2275471dee93c69d6" target="_top" xlink:title="js_dup_shape">
<polygon fill="none" stroke="#000000" points="521,-228.5 521,-247.5 598,-247.5 598,-228.5 521,-228.5"/>
<text text-anchor="middle" x="559.5" y="-235.5" font-family="Helvetica,sans-Serif" font-size="10.00" fill="#000000">js_dup_shape</text>
</a>
</g>
</g>
<!-- Node371302&#45;&gt;Node371323 -->
<g id="edge18" class="edge">
<title>Node371302&#45;&gt;Node371323</title>
<path fill="none" stroke="#191970" d="M445.8164,-266.7042C465.7244,-261.6775 490.5383,-255.4123 511.8994,-250.0187"/>
<polygon fill="#191970" stroke="#191970" points="512.9166,-253.3719 521.7554,-247.5302 511.2028,-246.5849 512.9166,-253.3719"/>
</g>
<!-- Node371324 -->
<g id="node17" class="node">
<title>Node371324</title>
<g id="a_node17"><a xlink:href="quickjs_8c.html#a3a9f27520d96cf58aa5bd7359e9cddee" target="_top" xlink:title="js_free_shape">
<polygon fill="none" stroke="#ff0000" points="521,-190.5 521,-209.5 598,-209.5 598,-190.5 521,-190.5"/>
<text text-anchor="middle" x="559.5" y="-197.5" font-family="Helvetica,sans-Serif" font-size="10.00" fill="#000000">js_free_shape</text>
</a>
</g>
</g>
<!-- Node371302&#45;&gt;Node371324 -->
<g id="edge19" class="edge">
<title>Node371302&#45;&gt;Node371324</title>
<path fill="none" stroke="#191970" d="M421.4612,-266.3097C437.9451,-253.8822 468.2763,-232.3457 497,-219 501.7633,-216.7869 506.8486,-214.7527 511.9836,-212.9051"/>
<polygon fill="#191970" stroke="#191970" points="513.4874,-216.0919 521.8479,-209.5841 511.2539,-209.4577 513.4874,-216.0919"/>
</g>
<!-- Node371303&#45;&gt;Node371249 -->
<g id="edge11" class="edge">
<title>Node371303&#45;&gt;Node371249</title>
<path fill="none" stroke="#191970" d="M597.2252,-304.411C616.7756,-299.4417 640.8466,-293.3233 661.6374,-288.0387"/>
<polygon fill="#191970" stroke="#191970" points="662.7165,-291.3757 671.5461,-285.5201 660.9921,-284.5915 662.7165,-291.3757"/>
</g>
<!-- Node371304 -->
<g id="node11" class="node">
<title>Node371304</title>
<g id="a_node11"><a xlink:href="quickjs_8c.html#a643df594b75933007bcdbb071b5ea8c5" target="_top" xlink:title="get_shape_prop">
<polygon fill="none" stroke="#000000" points="666,-361.5 666,-380.5 752,-380.5 752,-361.5 666,-361.5"/>
<text text-anchor="middle" x="709" y="-368.5" font-family="Helvetica,sans-Serif" font-size="10.00" fill="#000000">get_shape_prop</text>
</a>
</g>
</g>
<!-- Node371303&#45;&gt;Node371304 -->
<g id="edge10" class="edge">
<title>Node371303&#45;&gt;Node371304</title>
<path fill="none" stroke="#191970" d="M595.2791,-323.5967C604.1285,-326.3186 613.5049,-329.5043 622,-333 638.7306,-339.8845 641.489,-344.6044 658,-352 662.4544,-353.9952 667.1877,-355.9588 671.9059,-357.8224"/>
<polygon fill="#191970" stroke="#191970" points="670.8851,-361.1792 681.4755,-361.485 673.3873,-354.6417 670.8851,-361.1792"/>
</g>
<!-- Node371303&#45;&gt;Node371305 -->
<g id="edge12" class="edge">
<title>Node371303&#45;&gt;Node371305</title>
<path fill="none" stroke="#191970" d="M601.8714,-304.4979C608.8823,-301.9912 615.859,-298.8691 622,-295 626.3727,-292.245 669.8026,-243.9241 693.5974,-217.2866"/>
<polygon fill="#191970" stroke="#191970" points="696.2401,-219.582 700.2867,-209.7904 691.0172,-214.9213 696.2401,-219.582"/>
</g>
<!-- Node371308 -->
<g id="node13" class="node">
<title>Node371308</title>
<g id="a_node13"><a xlink:href="quickjs_8c.html#acab22c2945c4d609e57a2484feb68a96" target="_top" xlink:title="prop_hash_end">
<polygon fill="none" stroke="#000000" points="667.5,-323.5 667.5,-342.5 750.5,-342.5 750.5,-323.5 667.5,-323.5"/>
<text text-anchor="middle" x="709" y="-330.5" font-family="Helvetica,sans-Serif" font-size="10.00" fill="#000000">prop_hash_end</text>
</a>
</g>
</g>
<!-- Node371303&#45;&gt;Node371308 -->
<g id="edge13" class="edge">
<title>Node371303&#45;&gt;Node371308</title>
<path fill="none" stroke="#191970" d="M611.7878,-320.6453C626.5653,-322.5234 642.6339,-324.5655 657.3723,-326.4386"/>
<polygon fill="#191970" stroke="#191970" points="656.9696,-329.9155 667.3311,-327.7043 657.8522,-322.9714 656.9696,-329.9155"/>
</g>
<!-- Node371321&#45;&gt;Node371249 -->
<g id="edge17" class="edge">
<title>Node371321&#45;&gt;Node371249</title>
<path fill="none" stroke="#191970" d="M597.1662,-342.4462C605.5128,-339.8105 614.1929,-336.6522 622,-333 646.235,-321.6627 671.5612,-304.3541 688.5966,-291.7846"/>
<polygon fill="#191970" stroke="#191970" points="690.8045,-294.5036 696.6996,-285.7002 686.6013,-288.9059 690.8045,-294.5036"/>
</g>
<!-- Node371321&#45;&gt;Node371304 -->
<g id="edge16" class="edge">
<title>Node371321&#45;&gt;Node371304</title>
<path fill="none" stroke="#191970" d="M601.5419,-357.3431C618.3633,-359.481 637.9375,-361.9686 655.7356,-364.2306"/>
<polygon fill="#191970" stroke="#191970" points="655.6139,-367.7432 665.9754,-365.532 656.4965,-360.7991 655.6139,-367.7432"/>
</g>
<!-- Node371349&#45;&gt;Node371304 -->
<g id="edge22" class="edge">
<title>Node371349&#45;&gt;Node371304</title>
<path fill="none" stroke="#191970" d="M607.6257,-383.8837C622.8902,-381.9437 639.8586,-379.7872 655.4785,-377.8021"/>
<polygon fill="#191970" stroke="#191970" points="656.0379,-381.2592 665.5168,-376.5263 655.1553,-374.3151 656.0379,-381.2592"/>
</g>
<!-- Node371349&#45;&gt;Node371308 -->
<g id="edge23" class="edge">
<title>Node371349&#45;&gt;Node371308</title>
<path fill="none" stroke="#191970" d="M595.2791,-380.4033C604.1285,-377.6814 613.5049,-374.4957 622,-371 638.7306,-364.1155 641.489,-359.3956 658,-352 662.4544,-350.0048 667.1877,-348.0412 671.9059,-346.1776"/>
<polygon fill="#191970" stroke="#191970" points="673.3873,-349.3583 681.4755,-342.515 670.8851,-342.8208 673.3873,-349.3583"/>
</g>
<!-- Node371352 -->
<g id="node21" class="node">
<title>Node371352</title>
<g id="a_node21"><a xlink:href="quickjs_8c.html#ab50618f1bf78e444caa6da0e3e2785d7" target="_top" xlink:title="JS_DefineProperty">
<polygon fill="none" stroke="#ff0000" points="359.5,-399.5 359.5,-418.5 458.5,-418.5 458.5,-399.5 359.5,-399.5"/>
<text text-anchor="middle" x="409" y="-406.5" font-family="Helvetica,sans-Serif" font-size="10.00" fill="#000000">JS_DefineProperty</text>
</a>
</g>
</g>
<!-- Node371351&#45;&gt;Node371352 -->
<g id="edge26" class="edge">
<title>Node371351&#45;&gt;Node371352</title>
<path fill="none" stroke="#191970" d="M319.5741,-419.9974C329.4896,-418.778 339.6797,-417.5248 349.4686,-416.321"/>
<polygon fill="#191970" stroke="#191970" points="349.998,-419.7824 359.496,-415.0879 349.1436,-412.8347 349.998,-419.7824"/>
</g>
<!-- Node371341 -->
<g id="node23" class="node">
<title>Node371341</title>
<g id="a_node23"><a xlink:href="quickjs_8h.html#afaa20c47565bc704c6c85f3d77254e7d" target="_top" xlink:title="JS_FreeValue">
<polygon fill="none" stroke="#ff0000" points="520.5,-494.5 520.5,-513.5 598.5,-513.5 598.5,-494.5 520.5,-494.5"/>
<text text-anchor="middle" x="559.5" y="-501.5" font-family="Helvetica,sans-Serif" font-size="10.00" fill="#000000">JS_FreeValue</text>
</a>
</g>
</g>
<!-- Node371351&#45;&gt;Node371341 -->
<g id="edge32" class="edge">
<title>Node371351&#45;&gt;Node371341</title>
<path fill="none" stroke="#191970" d="M281.6829,-437.5904C302.2121,-444.6278 331.1676,-454.1182 357,-461 408.8654,-474.817 469.1328,-487.1471 510.3481,-495.0227"/>
<polygon fill="#191970" stroke="#191970" points="509.9226,-498.5043 520.3994,-496.9273 511.2258,-491.6267 509.9226,-498.5043"/>
</g>
<!-- Node371352&#45;&gt;Node371304 -->
<g id="edge29" class="edge">
<title>Node371352&#45;&gt;Node371304</title>
<path fill="none" stroke="#191970" d="M458.656,-414.6898C502.2046,-418.3372 566.979,-420.4919 622,-409 643.714,-404.4647 666.6425,-394.1953 683.5071,-385.4745"/>
<polygon fill="#191970" stroke="#191970" points="685.5097,-388.3728 692.6809,-380.5737 682.2114,-382.1986 685.5097,-388.3728"/>
</g>
<!-- Node371352&#45;&gt;Node371349 -->
<g id="edge28" class="edge">
<title>Node371352&#45;&gt;Node371349</title>
<path fill="none" stroke="#191970" d="M458.6964,-402.726C472.3381,-401.0038 487.2511,-399.1211 501.3232,-397.3446"/>
<polygon fill="#191970" stroke="#191970" points="501.9082,-400.7986 511.391,-396.0736 501.0313,-393.8537 501.9082,-400.7986"/>
</g>
<!-- Node371353 -->
<g id="node22" class="node">
<title>Node371353</title>
<g id="a_node22"><a xlink:href="quickjs_8c.html#a014abd680db53ab89cb133345742a59c" target="_top" xlink:title="__attribute__">
<polygon fill="none" stroke="#ff0000" points="523,-456.5 523,-475.5 596,-475.5 596,-456.5 523,-456.5"/>
<text text-anchor="middle" x="559.5" y="-463.5" font-family="Helvetica,sans-Serif" font-size="10.00" fill="#000000">__attribute__</text>
</a>
</g>
</g>
<!-- Node371352&#45;&gt;Node371353 -->
<g id="edge27" class="edge">
<title>Node371352&#45;&gt;Node371353</title>
<path fill="none" stroke="#191970" d="M434.1903,-418.5405C458.9332,-427.9116 496.891,-442.2876 524.5478,-452.7623"/>
<polygon fill="#191970" stroke="#191970" points="523.6361,-456.1595 534.2275,-456.4284 526.1154,-449.6133 523.6361,-456.1595"/>
</g>
<!-- Node371352&#45;&gt;Node371341 -->
<g id="edge30" class="edge">
<title>Node371352&#45;&gt;Node371341</title>
<path fill="none" stroke="#191970" d="M436.7881,-418.5641C445.1222,-422.2573 453.9206,-427.0512 461,-433 482.5202,-451.0832 474.2901,-468.4354 497,-485 501.1876,-488.0544 505.872,-490.6238 510.7423,-492.784"/>
<polygon fill="#191970" stroke="#191970" points="509.6662,-496.1202 520.2558,-496.4538 512.1855,-489.5893 509.6662,-496.1202"/>
</g>
<!-- Node371352&#45;&gt;Node371392 -->
<g id="edge31" class="edge">
<title>Node371352&#45;&gt;Node371392</title>
<path fill="none" stroke="#191970" d="M413.7137,-418.5712C424.9806,-440.4537 455.6443,-494.4473 497,-523 501.5497,-526.1412 506.6331,-528.775 511.8819,-530.9809"/>
<polygon fill="#191970" stroke="#191970" points="510.8356,-534.3254 521.4289,-534.5062 513.2604,-527.7588 510.8356,-534.3254"/>
</g>
<!-- Node371472&#45;&gt;Node371352 -->
<g id="edge34" class="edge">
<title>Node371472&#45;&gt;Node371352</title>
<path fill="none" stroke="#191970" d="M316.8957,-397.6733C327.558,-398.9845 338.6126,-400.3439 349.2052,-401.6466"/>
<polygon fill="#191970" stroke="#191970" points="348.8391,-405.1279 359.1915,-402.8747 349.6935,-398.1802 348.8391,-405.1279"/>
</g>
<!-- Node371472&#45;&gt;Node371341 -->
<g id="edge35" class="edge">
<title>Node371472&#45;&gt;Node371341</title>
<path fill="none" stroke="#191970" d="M292.9374,-399.5163C302.2498,-402.2214 312.0865,-405.4196 321,-409 337.7879,-415.7435 340.3115,-421.0141 357,-428 401.7323,-446.7251 417.2845,-440.0106 461,-461 478.335,-469.3232 479.6148,-476.7822 497,-485 501.7485,-487.2446 506.8244,-489.2989 511.9539,-491.1583"/>
<polygon fill="#191970" stroke="#191970" points="511.2178,-494.604 521.8121,-494.4925 513.4606,-487.973 511.2178,-494.604"/>
</g>
<!-- Node371340&#45;&gt;Node371250 -->
<g id="edge37" class="edge">
<title>Node371340&#45;&gt;Node371250</title>
<path fill="none" stroke="#191970" d="M598.3712,-4.8823C640.8463,-1.2022 709.5569,-1.0021 760,-29 798.8192,-50.5462 825.7721,-97.3922 838.554,-123.8355"/>
<polygon fill="#191970" stroke="#191970" points="835.506,-125.5823 842.8896,-133.1806 841.8559,-122.6363 835.506,-125.5823"/>
</g>
<!-- Node371684 -->
<g id="node29" class="node">
<title>Node371684</title>
<g id="a_node29"><a xlink:href="quickjs_8c.html#a21cfe4c4fc9372dc0b95b37667cff0c9" target="_top" xlink:title="JS_NewCFunction3">
<polygon fill="none" stroke="#ff0000" points="357,-76.5 357,-95.5 461,-95.5 461,-76.5 357,-76.5"/>
<text text-anchor="middle" x="409" y="-83.5" font-family="Helvetica,sans-Serif" font-size="10.00" fill="#000000">JS_NewCFunction3</text>
</a>
</g>
</g>
<!-- Node371683&#45;&gt;Node371684 -->
<g id="edge40" class="edge">
<title>Node371683&#45;&gt;Node371684</title>
<path fill="none" stroke="#191970" d="M306.8067,-98.5675C319.6425,-96.9889 333.5077,-95.2838 346.7599,-93.6541"/>
<polygon fill="#191970" stroke="#191970" points="347.2492,-97.1204 356.7472,-92.4259 346.3948,-90.1727 347.2492,-97.1204"/>
</g>
<!-- Node371684&#45;&gt;Node371251 -->
<g id="edge43" class="edge">
<title>Node371684&#45;&gt;Node371251</title>
<path fill="none" stroke="#191970" d="M446.9775,-76.411C466.6587,-71.4417 490.8907,-65.3233 511.8206,-60.0387"/>
<polygon fill="#191970" stroke="#191970" points="512.9567,-63.3617 521.7956,-57.5201 511.243,-56.5747 512.9567,-63.3617"/>
</g>
<!-- Node371684&#45;&gt;Node371350 -->
<g id="edge41" class="edge">
<title>Node371684&#45;&gt;Node371350</title>
<path fill="none" stroke="#191970" d="M446.9775,-95.589C466.6587,-100.5583 490.8907,-106.6767 511.8206,-111.9613"/>
<polygon fill="#191970" stroke="#191970" points="511.243,-115.4253 521.7956,-114.4799 512.9567,-108.6383 511.243,-115.4253"/>
</g>
<!-- Node371684&#45;&gt;Node371340 -->
<g id="edge42" class="edge">
<title>Node371684&#45;&gt;Node371340</title>
<path fill="none" stroke="#191970" d="M433.6468,-76.4939C442.5867,-72.57 452.5569,-67.6187 461,-62 479.0697,-49.9751 478.1481,-39.7572 497,-29 501.4418,-26.4654 506.2581,-24.2342 511.179,-22.2782"/>
<polygon fill="#191970" stroke="#191970" points="512.4783,-25.5304 520.7003,-18.8483 510.1059,-18.9446 512.4783,-25.5304"/>
</g>
<!-- Node371473&#45;&gt;Node371247 -->
<g id="edge47" class="edge">
<title>Node371473&#45;&gt;Node371247</title>
<path fill="none" stroke="#191970" d="M292.691,-570.3933C313.1487,-575.4249 338.5658,-581.6764 360.417,-587.0508"/>
<polygon fill="#191970" stroke="#191970" points="359.6286,-590.4611 370.1752,-589.4509 361.3005,-583.6637 359.6286,-590.4611"/>
</g>
<!-- Node371473&#45;&gt;Node371392 -->
<g id="edge46" class="edge">
<title>Node371473&#45;&gt;Node371392</title>
<path fill="none" stroke="#191970" d="M292.5118,-558.6321C347.9125,-555.1809 450.8189,-548.7703 511.415,-544.9955"/>
<polygon fill="#191970" stroke="#191970" points="511.7264,-548.4829 521.4894,-544.3679 511.2911,-541.4965 511.7264,-548.4829"/>
</g>
</g>
</svg>
        <g id="navigator" transform="translate(0 0)" fill="#404254">
                <rect fill="#f2f5e9" fill-opacity="0.5" stroke="#606060" stroke-width=".5" x="0" y="0" width="60" height="60"/>
                <use id="zoomplus" xlink:href="#zoomPlus" x="17" y="9" onmousedown="handleZoom(evt,'in')"/>
                <use id="zoomminus" xlink:href="#zoomMin" x="42" y="9" onmousedown="handleZoom(evt,'out')"/>
                <use id="reset" xlink:href="#resetDef" x="30" y="36" onmousedown="handleReset()"/>
                <g id="arrowUp" xlink:href="#dirArrow" transform="translate(30 24)" onmousedown="handlePan(0,-1)">
                  <use xlink:href="#rim" fill="#404040">
                        <set attributeName="fill" to="#808080" begin="arrowUp.mouseover" end="arrowUp.mouseout"/>
                  </use>
                  <path fill="none" stroke="white" stroke-width="1.5" d="M0,-3.0v7 M-2.5,-0.5L0,-3.0L2.5,-0.5"/>
                </g>
                <g id="arrowRight" xlink:href="#dirArrow" transform="rotate(90) translate(36 -43)" onmousedown="handlePan(1,0)">
                  <use xlink:href="#rim" fill="#404040">
                        <set attributeName="fill" to="#808080" begin="arrowRight.mouseover" end="arrowRight.mouseout"/>
                  </use>
                  <path fill="none" stroke="white" stroke-width="1.5" d="M0,-3.0v7 M-2.5,-0.5L0,-3.0L2.5,-0.5"/>
                </g>
                <g id="arrowDown" xlink:href="#dirArrow" transform="rotate(180) translate(-30 -48)" onmousedown="handlePan(0,1)">
                  <use xlink:href="#rim" fill="#404040">
                        <set attributeName="fill" to="#808080" begin="arrowDown.mouseover" end="arrowDown.mouseout"/>
                  </use>
                  <path fill="none" stroke="white" stroke-width="1.5" d="M0,-3.0v7 M-2.5,-0.5L0,-3.0L2.5,-0.5"/>
                </g>
                <g id="arrowLeft" xlink:href="#dirArrow" transform="rotate(270) translate(-36 17)" onmousedown="handlePan(-1,0)">
                  <use xlink:href="#rim" fill="#404040">
                        <set attributeName="fill" to="#808080" begin="arrowLeft.mouseover" end="arrowLeft.mouseout"/>
                  </use>
                  <path fill="none" stroke="white" stroke-width="1.5" d="M0,-3.0v7 M-2.5,-0.5L0,-3.0L2.5,-0.5"/>
                </g>
        </g>
        <svg viewBox="0 0 15 15" width="100%" height="30px" preserveAspectRatio="xMaxYMin meet">
         <g id="arrow_out" transform="scale(0.3 0.3)">
          <a xlink:href="quickjs_8c_a6ee4e2edda1f223a5a40e2c48b41d618_cgraph_org.svg" target="_base">
           <rect id="button" ry="5" rx="5" y="6" x="6" height="38" width="38"
                fill="#f2f5e9" fill-opacity="0.5" stroke="#606060" stroke-width="1.0"/>
           <path id="arrow"
             d="M 11.500037,31.436501 C 11.940474,20.09759 22.043105,11.32322 32.158766,21.979434 L 37.068811,17.246167 C 37.068811,17.246167 37.088388,32 37.088388,32 L 22.160133,31.978069 C 22.160133,31.978069 26.997745,27.140456 26.997745,27.140456 C 18.528582,18.264221 13.291696,25.230495 11.500037,31.436501 z"
             style="fill:#404040;"/>
          </a>
         </g>
        </svg>
</svg>
