<?xml version="1.0" encoding="UTF-8" standalone="no"?>
<!DOCTYPE svg PUBLIC "-//W3C//DTD SVG 1.1//EN"
 "http://www.w3.org/Graphics/SVG/1.1/DTD/svg11.dtd">
<!-- Generated by graphviz version 2.40.1 (20161225.0304)
 -->
<!-- Title: emit_class_init_end Pages: 1 -->
<!--zoomable 169 -->
<svg id="main" version="1.1" xmlns="http://www.w3.org/2000/svg" xmlns:xlink="http://www.w3.org/1999/xlink" xml:space="preserve" onload="init(evt)">
<style type="text/css"><![CDATA[
.edge:hover path { stroke: red; }
.edge:hover polygon { stroke: red; fill: red; }
]]></style>
<script type="text/javascript"><![CDATA[
var edges = document.getElementsByTagName('g');
if (edges && edges.length) {
  for (var i=0;i<edges.length;i++) {
    if (edges[i].id.substr(0,4)=='edge') {
      edges[i].setAttribute('class','edge');
    }
  }
}
]]></script>
        <defs>
                <circle id="rim" cx="0" cy="0" r="7"/>
                <circle id="rim2" cx="0" cy="0" r="3.5"/>
                <g id="zoomPlus">
                        <use xlink:href="#rim" fill="#404040">
                                <set attributeName="fill" to="#808080" begin="zoomplus.mouseover" end="zoomplus.mouseout"/>
                        </use>
                        <path d="M-4,0h8M0,-4v8" fill="none" stroke="white" stroke-width="1.5" pointer-events="none"/>
                </g>
                <g id="zoomMin">
                        <use xlink:href="#rim" fill="#404040">
                                <set attributeName="fill" to="#808080" begin="zoomminus.mouseover" end="zoomminus.mouseout"/>
                        </use>
                        <path d="M-4,0h8" fill="none" stroke="white" stroke-width="1.5" pointer-events="none"/>
                </g>
                <g id="dirArrow">
                        <path fill="none" stroke="white" stroke-width="1.5" d="M0,-3.0v7 M-2.5,-0.5L0,-3.0L2.5,-0.5"/>
                </g>
               <g id="resetDef">
                       <use xlink:href="#rim2" fill="#404040">
                               <set attributeName="fill" to="#808080" begin="reset.mouseover" end="reset.mouseout"/>
                       </use>
               </g>
        </defs>

<script type="text/javascript">
var viewWidth = 511;
var viewHeight = 169;
var sectionId = 'dynsection-1041';
</script>
<script xlink:href="svgpan.js"/>
<svg id="graph" class="graph">
<g id="viewport">
<title>emit_class_init_end</title>
<!-- Node321946 -->
<g id="node1" class="node">
<title>Node321946</title>
<polygon fill="#bfbfbf" stroke="#000000" points="0,-39.4809 0,-58.4809 103,-58.4809 103,-39.4809 0,-39.4809"/>
<text text-anchor="middle" x="51.5" y="-46.4809" font-family="Helvetica,sans-Serif" font-size="10.00" fill="#000000">emit_class_init_end</text>
</g>
<!-- Node321947 -->
<g id="node2" class="node">
<title>Node321947</title>
<g id="a_node2"><a xlink:href="quickjs_8c.html#a00eb789430243c24dab4a63ad6a79653" target="_top" xlink:title="js_parse_class">
<polygon fill="none" stroke="#000000" points="139,-39.4809 139,-58.4809 221,-58.4809 221,-39.4809 139,-39.4809"/>
<text text-anchor="middle" x="180" y="-46.4809" font-family="Helvetica,sans-Serif" font-size="10.00" fill="#000000">js_parse_class</text>
</a>
</g>
</g>
<!-- Node321946&#45;&gt;Node321947 -->
<g id="edge1" class="edge">
<title>Node321946&#45;&gt;Node321947</title>
<path fill="none" stroke="#191970" d="M113.146,-48.9809C121.8244,-48.9809 130.5663,-48.9809 138.7369,-48.9809"/>
<polygon fill="#191970" stroke="#191970" points="113.0255,-45.481 103.0255,-48.9809 113.0254,-52.481 113.0255,-45.481"/>
</g>
<!-- Node321948 -->
<g id="node3" class="node">
<title>Node321948</title>
<g id="a_node3"><a xlink:href="quickjs_8c.html#a840642c87c5a82d4cc68333376a3b6de" target="_top" xlink:title="js_parse_postfix_expr">
<polygon fill="none" stroke="#000000" points="257,-123.4809 257,-142.4809 369,-142.4809 369,-123.4809 257,-123.4809"/>
<text text-anchor="middle" x="313" y="-130.4809" font-family="Helvetica,sans-Serif" font-size="10.00" fill="#000000">js_parse_postfix_expr</text>
</a>
</g>
</g>
<!-- Node321947&#45;&gt;Node321948 -->
<g id="edge2" class="edge">
<title>Node321947&#45;&gt;Node321948</title>
<path fill="none" stroke="#191970" d="M196.3711,-66.0089C211.0793,-80.4751 233.865,-100.9155 257,-113.9809 263.5258,-117.6664 270.8835,-120.7949 278.0679,-123.3845"/>
<polygon fill="#191970" stroke="#191970" points="198.6113,-63.2978 189.0799,-58.6715 193.6459,-68.2319 198.6113,-63.2978"/>
</g>
<!-- Node321952 -->
<g id="node6" class="node">
<title>Node321952</title>
<g id="a_node6"><a xlink:href="quickjs_8c.html#a9d844c16dcc71701436848074337d32c" target="_top" xlink:title="js_parse_statement\l_or_decl">
<polygon fill="none" stroke="#ff0000" points="262,-55.9809 262,-85.9809 364,-85.9809 364,-55.9809 262,-55.9809"/>
<text text-anchor="start" x="270" y="-73.9809" font-family="Helvetica,sans-Serif" font-size="10.00" fill="#000000">js_parse_statement</text>
<text text-anchor="middle" x="313" y="-62.9809" font-family="Helvetica,sans-Serif" font-size="10.00" fill="#000000">_or_decl</text>
</a>
</g>
</g>
<!-- Node321947&#45;&gt;Node321952 -->
<g id="edge8" class="edge">
<title>Node321947&#45;&gt;Node321952</title>
<path fill="none" stroke="#191970" d="M231.5124,-57.5018C241.4639,-59.1479 251.8878,-60.8721 261.8284,-62.5165"/>
<polygon fill="#191970" stroke="#191970" points="231.7901,-54.0002 221.353,-55.8213 230.6477,-60.9064 231.7901,-54.0002"/>
</g>
<!-- Node321959 -->
<g id="node7" class="node">
<title>Node321959</title>
<g id="a_node7"><a xlink:href="quickjs_8c.html#a498e1d5c7de1b59c1630e9847cde1e41" target="_top" xlink:title="js_parse_export">
<polygon fill="none" stroke="#ff0000" points="270,-17.4809 270,-36.4809 356,-36.4809 356,-17.4809 270,-17.4809"/>
<text text-anchor="middle" x="313" y="-24.4809" font-family="Helvetica,sans-Serif" font-size="10.00" fill="#000000">js_parse_export</text>
</a>
</g>
</g>
<!-- Node321947&#45;&gt;Node321959 -->
<g id="edge10" class="edge">
<title>Node321947&#45;&gt;Node321959</title>
<path fill="none" stroke="#191970" d="M231.3441,-40.4879C244.0585,-38.3848 257.5536,-36.1525 269.8331,-34.1213"/>
<polygon fill="#191970" stroke="#191970" points="230.6477,-37.0555 221.353,-42.1406 231.7901,-43.9616 230.6477,-37.0555"/>
</g>
<!-- Node321948&#45;&gt;Node321948 -->
<g id="edge5" class="edge">
<title>Node321948&#45;&gt;Node321948</title>
<path fill="none" stroke="#191970" d="M288.4465,-152.0101C289.7858,-157.1089 297.9703,-160.9809 313,-160.9809 336.4609,-160.9809 343.2426,-151.5462 333.345,-142.738"/>
<polygon fill="#191970" stroke="#191970" points="291.709,-153.2905 292.655,-142.738 285.3348,-150.3974 291.709,-153.2905"/>
</g>
<!-- Node321949 -->
<g id="node4" class="node">
<title>Node321949</title>
<g id="a_node4"><a xlink:href="quickjs_8c.html#a12b48ce2b1f247b494fdde07dbe7f232" target="_top" xlink:title="js_parse_left_hand\l_side_expr">
<polygon fill="none" stroke="#ff0000" points="405,-23.9809 405,-53.9809 503,-53.9809 503,-23.9809 405,-23.9809"/>
<text text-anchor="start" x="413" y="-41.9809" font-family="Helvetica,sans-Serif" font-size="10.00" fill="#000000">js_parse_left_hand</text>
<text text-anchor="middle" x="454" y="-30.9809" font-family="Helvetica,sans-Serif" font-size="10.00" fill="#000000">_side_expr</text>
</a>
</g>
</g>
<!-- Node321948&#45;&gt;Node321949 -->
<g id="edge3" class="edge">
<title>Node321948&#45;&gt;Node321949</title>
<path fill="none" stroke="#191970" d="M357.5901,-119.6877C361.541,-117.9654 365.4021,-116.0651 369,-113.9809 397.2687,-97.6057 424.6165,-70.9317 440.3515,-54.2005"/>
<polygon fill="#191970" stroke="#191970" points="356.2883,-116.4387 348.2897,-123.3866 358.8752,-122.9432 356.2883,-116.4387"/>
</g>
<!-- Node321969 -->
<g id="node5" class="node">
<title>Node321969</title>
<g id="a_node5"><a xlink:href="quickjs_8c.html#a9f26c765171d977db1796791f035f1f9" target="_top" xlink:title="js_parse_unary">
<polygon fill="none" stroke="#ff0000" points="412.5,-123.4809 412.5,-142.4809 495.5,-142.4809 495.5,-123.4809 412.5,-123.4809"/>
<text text-anchor="middle" x="454" y="-130.4809" font-family="Helvetica,sans-Serif" font-size="10.00" fill="#000000">js_parse_unary</text>
</a>
</g>
</g>
<!-- Node321948&#45;&gt;Node321969 -->
<g id="edge6" class="edge">
<title>Node321948&#45;&gt;Node321969</title>
<path fill="none" stroke="#191970" d="M379.3891,-132.9809C390.6367,-132.9809 402.0243,-132.9809 412.4015,-132.9809"/>
<polygon fill="#191970" stroke="#191970" points="379.1321,-129.481 369.1321,-132.9809 379.132,-136.481 379.1321,-129.481"/>
</g>
<!-- Node321949&#45;&gt;Node321947 -->
<g id="edge4" class="edge">
<title>Node321949&#45;&gt;Node321947</title>
<path fill="none" stroke="#191970" d="M411.4483,-20.1662C398.1244,-15.1785 383.1897,-10.4877 369,-7.9809 319.9813,.6788 305.2956,4.0757 257,-7.9809 232.7548,-14.0335 207.7758,-29.3162 193.0809,-39.4164"/>
<polygon fill="#191970" stroke="#191970" points="410.2434,-23.453 420.8317,-23.8236 412.7855,-16.9309 410.2434,-23.453"/>
</g>
<!-- Node321969&#45;&gt;Node321969 -->
<g id="edge7" class="edge">
<title>Node321969&#45;&gt;Node321969</title>
<path fill="none" stroke="#191970" d="M427.9584,-152.0101C429.3789,-157.1089 438.0594,-160.9809 454,-160.9809 478.8828,-160.9809 486.0755,-151.5462 475.5781,-142.738"/>
<polygon fill="#191970" stroke="#191970" points="431.238,-153.2665 432.4219,-142.738 424.9308,-150.2302 431.238,-153.2665"/>
</g>
<!-- Node321952&#45;&gt;Node321952 -->
<g id="edge9" class="edge">
<title>Node321952&#45;&gt;Node321952</title>
<path fill="none" stroke="#191970" d="M289.5452,-96.4388C292.4563,-101.1599 300.2745,-104.4809 313,-104.4809 333.8828,-104.4809 341.5507,-95.5375 336.0037,-86.1399"/>
<polygon fill="#191970" stroke="#191970" points="293.0553,-96.2835 289.9963,-86.1399 286.062,-95.9772 293.0553,-96.2835"/>
</g>
</g>
</svg>
        <g id="navigator" transform="translate(0 0)" fill="#404254">
                <rect fill="#f2f5e9" fill-opacity="0.5" stroke="#606060" stroke-width=".5" x="0" y="0" width="60" height="60"/>
                <use id="zoomplus" xlink:href="#zoomPlus" x="17" y="9" onmousedown="handleZoom(evt,'in')"/>
                <use id="zoomminus" xlink:href="#zoomMin" x="42" y="9" onmousedown="handleZoom(evt,'out')"/>
                <use id="reset" xlink:href="#resetDef" x="30" y="36" onmousedown="handleReset()"/>
                <g id="arrowUp" xlink:href="#dirArrow" transform="translate(30 24)" onmousedown="handlePan(0,-1)">
                  <use xlink:href="#rim" fill="#404040">
                        <set attributeName="fill" to="#808080" begin="arrowUp.mouseover" end="arrowUp.mouseout"/>
                  </use>
                  <path fill="none" stroke="white" stroke-width="1.5" d="M0,-3.0v7 M-2.5,-0.5L0,-3.0L2.5,-0.5"/>
                </g>
                <g id="arrowRight" xlink:href="#dirArrow" transform="rotate(90) translate(36 -43)" onmousedown="handlePan(1,0)">
                  <use xlink:href="#rim" fill="#404040">
                        <set attributeName="fill" to="#808080" begin="arrowRight.mouseover" end="arrowRight.mouseout"/>
                  </use>
                  <path fill="none" stroke="white" stroke-width="1.5" d="M0,-3.0v7 M-2.5,-0.5L0,-3.0L2.5,-0.5"/>
                </g>
                <g id="arrowDown" xlink:href="#dirArrow" transform="rotate(180) translate(-30 -48)" onmousedown="handlePan(0,1)">
                  <use xlink:href="#rim" fill="#404040">
                        <set attributeName="fill" to="#808080" begin="arrowDown.mouseover" end="arrowDown.mouseout"/>
                  </use>
                  <path fill="none" stroke="white" stroke-width="1.5" d="M0,-3.0v7 M-2.5,-0.5L0,-3.0L2.5,-0.5"/>
                </g>
                <g id="arrowLeft" xlink:href="#dirArrow" transform="rotate(270) translate(-36 17)" onmousedown="handlePan(-1,0)">
                  <use xlink:href="#rim" fill="#404040">
                        <set attributeName="fill" to="#808080" begin="arrowLeft.mouseover" end="arrowLeft.mouseout"/>
                  </use>
                  <path fill="none" stroke="white" stroke-width="1.5" d="M0,-3.0v7 M-2.5,-0.5L0,-3.0L2.5,-0.5"/>
                </g>
        </g>
        <svg viewBox="0 0 15 15" width="100%" height="30px" preserveAspectRatio="xMaxYMin meet">
         <g id="arrow_out" transform="scale(0.3 0.3)">
          <a xlink:href="quickjs_8c_a521694c7cb5b3e8b8f6393ac0cf9cc4f_icgraph_org.svg" target="_base">
           <rect id="button" ry="5" rx="5" y="6" x="6" height="38" width="38"
                fill="#f2f5e9" fill-opacity="0.5" stroke="#606060" stroke-width="1.0"/>
           <path id="arrow"
             d="M 11.500037,31.436501 C 11.940474,20.09759 22.043105,11.32322 32.158766,21.979434 L 37.068811,17.246167 C 37.068811,17.246167 37.088388,32 37.088388,32 L 22.160133,31.978069 C 22.160133,31.978069 26.997745,27.140456 26.997745,27.140456 C 18.528582,18.264221 13.291696,25.230495 11.500037,31.436501 z"
             style="fill:#404040;"/>
          </a>
         </g>
        </svg>
</svg>
