<?xml version="1.0" encoding="UTF-8" standalone="no"?>
<!DOCTYPE svg PUBLIC "-//W3C//DTD SVG 1.1//EN"
 "http://www.w3.org/Graphics/SVG/1.1/DTD/svg11.dtd">
<!-- Generated by graphviz version 2.40.1 (20161225.0304)
 -->
<!-- Title: JS_NewAtomStr Pages: 1 -->
<svg width="839pt" height="661pt"
 viewBox="0.00 0.00 839.00 660.78" xmlns="http://www.w3.org/2000/svg" xmlns:xlink="http://www.w3.org/1999/xlink">
<g id="graph0" class="graph" transform="scale(1 1) rotate(0) translate(4 656.7769)">
<title>JS_NewAtomStr</title>
<!-- Node84418 -->
<g id="node1" class="node">
<title>Node84418</title>
<polygon fill="#bfbfbf" stroke="#000000" points="0,-498.8538 0,-517.8538 90,-517.8538 90,-498.8538 0,-498.8538"/>
<text text-anchor="middle" x="45" y="-505.8538" font-family="Helvetica,sans-Serif" font-size="10.00" fill="#000000">JS_NewAtomStr</text>
</g>
<!-- Node84419 -->
<g id="node2" class="node">
<title>Node84419</title>
<g id="a_node2"><a xlink:href="quickjs_8c.html#a22324bb35cdaa36ce844506a073bb7f4" target="_top" xlink:title="emit_push_const">
<polygon fill="none" stroke="#000000" points="437,-631.8538 437,-650.8538 528,-650.8538 528,-631.8538 437,-631.8538"/>
<text text-anchor="middle" x="482.5" y="-638.8538" font-family="Helvetica,sans-Serif" font-size="10.00" fill="#000000">emit_push_const</text>
</a>
</g>
</g>
<!-- Node84418&#45;&gt;Node84419 -->
<g id="edge1" class="edge">
<title>Node84418&#45;&gt;Node84419</title>
<path fill="none" stroke="#191970" d="M68.1958,-523.431C108.5569,-548.812 195.1417,-599.5314 276,-622.3538 329.8783,-637.561 394.4934,-641.3041 436.9228,-641.8993"/>
<polygon fill="#191970" stroke="#191970" points="69.947,-520.3969 59.63,-517.9862 66.1919,-526.3044 69.947,-520.3969"/>
</g>
<!-- Node84456 -->
<g id="node6" class="node">
<title>Node84456</title>
<g id="a_node6"><a xlink:href="quickjs_8c.html#a522741f41afb1d0da0aa55968cd8579e" target="_top" xlink:title="JS_NewAtomLen">
<polygon fill="none" stroke="#000000" points="136.5,-517.8538 136.5,-536.8538 229.5,-536.8538 229.5,-517.8538 136.5,-517.8538"/>
<text text-anchor="middle" x="183" y="-524.8538" font-family="Helvetica,sans-Serif" font-size="10.00" fill="#000000">JS_NewAtomLen</text>
</a>
</g>
</g>
<!-- Node84418&#45;&gt;Node84456 -->
<g id="edge7" class="edge">
<title>Node84418&#45;&gt;Node84456</title>
<path fill="none" stroke="#191970" d="M100.4493,-515.9881C112.3338,-517.6243 124.7766,-519.3375 136.2915,-520.9229"/>
<polygon fill="#191970" stroke="#191970" points="100.5703,-512.4718 90.1864,-514.5751 99.6155,-519.4064 100.5703,-512.4718"/>
</g>
<!-- Node85059 -->
<g id="node28" class="node">
<title>Node85059</title>
<g id="a_node28"><a xlink:href="quickjs_8c.html#ad54b242d774ba44b2ac39fe8161aaf9c" target="_top" xlink:title="JS_ReadObjectAtoms">
<polygon fill="none" stroke="#000000" points="126,-479.8538 126,-498.8538 240,-498.8538 240,-479.8538 126,-479.8538"/>
<text text-anchor="middle" x="183" y="-486.8538" font-family="Helvetica,sans-Serif" font-size="10.00" fill="#000000">JS_ReadObjectAtoms</text>
</a>
</g>
</g>
<!-- Node84418&#45;&gt;Node85059 -->
<g id="edge33" class="edge">
<title>Node84418&#45;&gt;Node85059</title>
<path fill="none" stroke="#191970" d="M100.2118,-500.7521C108.574,-499.6008 117.2178,-498.4107 125.6246,-497.2533"/>
<polygon fill="#191970" stroke="#191970" points="99.6155,-497.3011 90.1864,-502.1324 100.5703,-504.2357 99.6155,-497.3011"/>
</g>
<!-- Node84999 -->
<g id="node30" class="node">
<title>Node84999</title>
<g id="a_node30"><a xlink:href="quickjs_8c.html#a859d5c989a2aaecef1653b3ac279e108" target="_top" xlink:title="JS_ValueToAtom">
<polygon fill="none" stroke="#ff0000" points="136.5,-441.8538 136.5,-460.8538 229.5,-460.8538 229.5,-441.8538 136.5,-441.8538"/>
<text text-anchor="middle" x="183" y="-448.8538" font-family="Helvetica,sans-Serif" font-size="10.00" fill="#000000">JS_ValueToAtom</text>
</a>
</g>
</g>
<!-- Node84418&#45;&gt;Node84999 -->
<g id="edge35" class="edge">
<title>Node84418&#45;&gt;Node84999</title>
<path fill="none" stroke="#191970" d="M72.7425,-494.3549C88.2209,-486.795 107.9634,-477.562 126,-470.3538 134.427,-466.9859 143.7095,-463.7128 152.2926,-460.8589"/>
<polygon fill="#191970" stroke="#191970" points="71.128,-491.2486 63.7094,-498.8127 74.2258,-497.5258 71.128,-491.2486"/>
</g>
<!-- Node84420 -->
<g id="node3" class="node">
<title>Node84420</title>
<g id="a_node3"><a xlink:href="quickjs_8c.html#a035daca514f14aacc1e0cff81d8e423a" target="_top" xlink:title="js_parse_template">
<polygon fill="none" stroke="#000000" points="587,-574.8538 587,-593.8538 683,-593.8538 683,-574.8538 587,-574.8538"/>
<text text-anchor="middle" x="635" y="-581.8538" font-family="Helvetica,sans-Serif" font-size="10.00" fill="#000000">js_parse_template</text>
</a>
</g>
</g>
<!-- Node84419&#45;&gt;Node84420 -->
<g id="edge2" class="edge">
<title>Node84419&#45;&gt;Node84420</title>
<path fill="none" stroke="#191970" d="M532.3646,-628.8822C538.7065,-626.9002 545.0537,-624.7157 551,-622.3538 567.8138,-615.6752 570.5648,-610.9165 587,-603.3538 594.1648,-600.0568 602.0757,-596.7814 609.3731,-593.9023"/>
<polygon fill="#191970" stroke="#191970" points="531.0493,-625.6218 522.4616,-631.8267 533.0444,-632.3315 531.0493,-625.6218"/>
</g>
<!-- Node84421 -->
<g id="node4" class="node">
<title>Node84421</title>
<g id="a_node4"><a xlink:href="quickjs_8c.html#a840642c87c5a82d4cc68333376a3b6de" target="_top" xlink:title="js_parse_postfix_expr">
<polygon fill="none" stroke="#ff0000" points="719,-574.8538 719,-593.8538 831,-593.8538 831,-574.8538 719,-574.8538"/>
<text text-anchor="middle" x="775" y="-581.8538" font-family="Helvetica,sans-Serif" font-size="10.00" fill="#000000">js_parse_postfix_expr</text>
</a>
</g>
</g>
<!-- Node84419&#45;&gt;Node84421 -->
<g id="edge5" class="edge">
<title>Node84419&#45;&gt;Node84421</title>
<path fill="none" stroke="#191970" d="M538.1133,-649.4076C578.9951,-653.4077 635.4705,-654.8843 683,-641.3538 715.5284,-632.0936 747.7971,-607.6756 764.0898,-593.9936"/>
<polygon fill="#191970" stroke="#191970" points="538.3836,-645.9168 528.0706,-648.3439 537.6462,-652.8778 538.3836,-645.9168"/>
</g>
<!-- Node84444 -->
<g id="node5" class="node">
<title>Node84444</title>
<g id="a_node5"><a xlink:href="quickjs_8c.html#a2ecfb6abb190101748202a8aa5821fba" target="_top" xlink:title="js_parse_delete">
<polygon fill="none" stroke="#ff0000" points="592.5,-612.8538 592.5,-631.8538 677.5,-631.8538 677.5,-612.8538 592.5,-612.8538"/>
<text text-anchor="middle" x="635" y="-619.8538" font-family="Helvetica,sans-Serif" font-size="10.00" fill="#000000">js_parse_delete</text>
</a>
</g>
</g>
<!-- Node84419&#45;&gt;Node84444 -->
<g id="edge6" class="edge">
<title>Node84419&#45;&gt;Node84444</title>
<path fill="none" stroke="#191970" d="M538.5211,-634.3741C556.3233,-632.1561 575.7112,-629.7405 592.4062,-627.6605"/>
<polygon fill="#191970" stroke="#191970" points="537.7456,-630.9436 528.255,-635.6531 538.6111,-637.8898 537.7456,-630.9436"/>
</g>
<!-- Node84420&#45;&gt;Node84421 -->
<g id="edge3" class="edge">
<title>Node84420&#45;&gt;Node84421</title>
<path fill="none" stroke="#191970" d="M693.2384,-584.3538C701.6057,-584.3538 710.2037,-584.3538 718.5358,-584.3538"/>
<polygon fill="#191970" stroke="#191970" points="693.1801,-580.8539 683.1801,-584.3538 693.18,-587.8539 693.1801,-580.8539"/>
</g>
<!-- Node84421&#45;&gt;Node84421 -->
<g id="edge4" class="edge">
<title>Node84421&#45;&gt;Node84421</title>
<path fill="none" stroke="#191970" d="M748.9584,-603.3829C750.3789,-608.4817 759.0594,-612.3538 775,-612.3538 799.8828,-612.3538 807.0755,-602.919 796.5781,-594.1108"/>
<polygon fill="#191970" stroke="#191970" points="752.238,-604.6393 753.4219,-594.1108 745.9308,-601.603 752.238,-604.6393"/>
</g>
<!-- Node84457 -->
<g id="node7" class="node">
<title>Node84457</title>
<g id="a_node7"><a xlink:href="quickjs-libc_8c.html#a744c97f53406d93e57acb57e3d498227" target="_top" xlink:title="js_std_getenviron">
<polygon fill="none" stroke="#000000" points="280.5,-479.8538 280.5,-498.8538 373.5,-498.8538 373.5,-479.8538 280.5,-479.8538"/>
<text text-anchor="middle" x="327" y="-486.8538" font-family="Helvetica,sans-Serif" font-size="10.00" fill="#000000">js_std_getenviron</text>
</a>
</g>
</g>
<!-- Node84456&#45;&gt;Node84457 -->
<g id="edge8" class="edge">
<title>Node84456&#45;&gt;Node84457</title>
<path fill="none" stroke="#191970" d="M229.1722,-515.1694C249.1642,-509.8938 272.2187,-503.8099 290.924,-498.8738"/>
<polygon fill="#191970" stroke="#191970" points="228.1132,-511.829 219.3373,-517.7647 229.8994,-518.5973 228.1132,-511.829"/>
</g>
<!-- Node84458 -->
<g id="node8" class="node">
<title>Node84458</title>
<g id="a_node8"><a xlink:href="quickjs_8c.html#aa2ef5af1544a3012f91a80c98c326b8f" target="_top" xlink:title="JS_NewAtom">
<polygon fill="none" stroke="#000000" points="288.5,-296.8538 288.5,-315.8538 365.5,-315.8538 365.5,-296.8538 288.5,-296.8538"/>
<text text-anchor="middle" x="327" y="-303.8538" font-family="Helvetica,sans-Serif" font-size="10.00" fill="#000000">JS_NewAtom</text>
</a>
</g>
</g>
<!-- Node84456&#45;&gt;Node84458 -->
<g id="edge9" class="edge">
<title>Node84456&#45;&gt;Node84458</title>
<path fill="none" stroke="#191970" d="M234.4832,-512.7029C236.4323,-511.3765 238.2835,-509.9304 240,-508.3538 300.4621,-452.8205 320.7311,-348.0876 325.6727,-315.9647"/>
<polygon fill="#191970" stroke="#191970" points="232.4323,-509.8403 225.4232,-517.7852 235.857,-515.9453 232.4323,-509.8403"/>
</g>
<!-- Node84828 -->
<g id="node23" class="node">
<title>Node84828</title>
<g id="a_node23"><a xlink:href="quickjs_8c.html#aadfd9c31a6f69160c12e99b8d5eb5b3c" target="_top" xlink:title="js_atom_concat_str">
<polygon fill="none" stroke="#ff0000" points="276,-593.8538 276,-612.8538 378,-612.8538 378,-593.8538 276,-593.8538"/>
<text text-anchor="middle" x="327" y="-600.8538" font-family="Helvetica,sans-Serif" font-size="10.00" fill="#000000">js_atom_concat_str</text>
</a>
</g>
</g>
<!-- Node84456&#45;&gt;Node84828 -->
<g id="edge25" class="edge">
<title>Node84456&#45;&gt;Node84828</title>
<path fill="none" stroke="#191970" d="M205.238,-542.6767C223.658,-554.9488 250.8034,-572.0817 276,-584.3538 283.0506,-587.7878 290.8903,-590.9923 298.2663,-593.7551"/>
<polygon fill="#191970" stroke="#191970" points="206.9484,-539.6087 196.7005,-536.9198 203.0348,-545.4125 206.9484,-539.6087"/>
</g>
<!-- Node85047 -->
<g id="node24" class="node">
<title>Node85047</title>
<g id="a_node24"><a xlink:href="quickjs_8c.html#ad91865d0889d1420e3e70d5d497a9bdb" target="_top" xlink:title="parse_ident">
<polygon fill="none" stroke="#000000" points="293.5,-517.8538 293.5,-536.8538 360.5,-536.8538 360.5,-517.8538 293.5,-517.8538"/>
<text text-anchor="middle" x="327" y="-524.8538" font-family="Helvetica,sans-Serif" font-size="10.00" fill="#000000">parse_ident</text>
</a>
</g>
</g>
<!-- Node84456&#45;&gt;Node85047 -->
<g id="edge26" class="edge">
<title>Node84456&#45;&gt;Node85047</title>
<path fill="none" stroke="#191970" d="M239.9077,-527.3538C257.9699,-527.3538 277.3589,-527.3538 293.2469,-527.3538"/>
<polygon fill="#191970" stroke="#191970" points="239.7527,-523.8539 229.7527,-527.3538 239.7526,-530.8539 239.7527,-523.8539"/>
</g>
<!-- Node85056 -->
<g id="node26" class="node">
<title>Node85056</title>
<g id="a_node26"><a xlink:href="quickjs_8c.html#adab89942b11c3b3cbf3ecb9e763b0ab6" target="_top" xlink:title="json_parse_ident">
<polygon fill="none" stroke="#000000" points="282,-555.8538 282,-574.8538 372,-574.8538 372,-555.8538 282,-555.8538"/>
<text text-anchor="middle" x="327" y="-562.8538" font-family="Helvetica,sans-Serif" font-size="10.00" fill="#000000">json_parse_ident</text>
</a>
</g>
</g>
<!-- Node84456&#45;&gt;Node85056 -->
<g id="edge31" class="edge">
<title>Node84456&#45;&gt;Node85056</title>
<path fill="none" stroke="#191970" d="M229.1722,-539.5381C249.1642,-544.8137 272.2187,-550.8976 290.924,-555.8337"/>
<polygon fill="#191970" stroke="#191970" points="229.8994,-536.1102 219.3373,-536.9428 228.1132,-542.8785 229.8994,-536.1102"/>
</g>
<!-- Node84459 -->
<g id="node9" class="node">
<title>Node84459</title>
<g id="a_node9"><a xlink:href="classqjs_1_1Value.html#ac6bbb5f2ab1ed265b2b508325807e2fb" target="_top" xlink:title="qjs::Value::add_getter\l_setter">
<polygon fill="none" stroke="#000000" points="426.5,-430.3538 426.5,-460.3538 538.5,-460.3538 538.5,-430.3538 426.5,-430.3538"/>
<text text-anchor="start" x="434.5" y="-448.3538" font-family="Helvetica,sans-Serif" font-size="10.00" fill="#000000">qjs::Value::add_getter</text>
<text text-anchor="middle" x="482.5" y="-437.3538" font-family="Helvetica,sans-Serif" font-size="10.00" fill="#000000">_setter</text>
</a>
</g>
</g>
<!-- Node84458&#45;&gt;Node84459 -->
<g id="edge10" class="edge">
<title>Node84458&#45;&gt;Node84459</title>
<path fill="none" stroke="#191970" d="M336.7053,-324.9456C350.6436,-349.9561 378.5957,-394.2987 414,-420.3538 419.2,-424.1806 425.0468,-427.4749 431.0763,-430.297"/>
<polygon fill="#191970" stroke="#191970" points="339.7517,-323.221 331.9108,-316.0956 333.5968,-326.5554 339.7517,-323.221"/>
</g>
<!-- Node84460 -->
<g id="node10" class="node">
<title>Node84460</title>
<g id="a_node10"><a xlink:href="classqjs_1_1Value.html#a7816587475ecf667433f9ea681df925b" target="_top" xlink:title="qjs::Value::add_getter">
<polygon fill="none" stroke="#000000" points="426.5,-391.8538 426.5,-410.8538 538.5,-410.8538 538.5,-391.8538 426.5,-391.8538"/>
<text text-anchor="middle" x="482.5" y="-398.8538" font-family="Helvetica,sans-Serif" font-size="10.00" fill="#000000">qjs::Value::add_getter</text>
</a>
</g>
</g>
<!-- Node84458&#45;&gt;Node84460 -->
<g id="edge11" class="edge">
<title>Node84458&#45;&gt;Node84460</title>
<path fill="none" stroke="#191970" d="M342.397,-323.7511C358.5929,-341.0211 385.6277,-367.0635 414,-382.3538 421.0617,-386.1594 428.9535,-389.2574 436.7985,-391.7618"/>
<polygon fill="#191970" stroke="#191970" points="344.6928,-321.0756 335.3585,-316.0634 339.5298,-325.8025 344.6928,-321.0756"/>
</g>
<!-- Node84461 -->
<g id="node11" class="node">
<title>Node84461</title>
<g id="a_node11"><a xlink:href="quickjs_8c.html#a27c3a725d4014a35b5bedcdf6e70dec7" target="_top" xlink:title="JS_NewAtomString">
<polygon fill="none" stroke="#ff0000" points="431,-353.8538 431,-372.8538 534,-372.8538 534,-353.8538 431,-353.8538"/>
<text text-anchor="middle" x="482.5" y="-360.8538" font-family="Helvetica,sans-Serif" font-size="10.00" fill="#000000">JS_NewAtomString</text>
</a>
</g>
</g>
<!-- Node84458&#45;&gt;Node84461 -->
<g id="edge12" class="edge">
<title>Node84458&#45;&gt;Node84461</title>
<path fill="none" stroke="#191970" d="M355.9588,-320.2296C372.6875,-327.9335 394.2646,-337.3462 414,-344.3538 423.7692,-347.8225 434.5025,-351.0606 444.5153,-353.8459"/>
<polygon fill="#191970" stroke="#191970" points="357.2623,-316.9756 346.7199,-315.9221 354.3043,-323.32 357.2623,-316.9756"/>
</g>
<!-- Node84464 -->
<g id="node12" class="node">
<title>Node84464</title>
<g id="a_node12"><a xlink:href="quickjs_8c.html#a21cfe4c4fc9372dc0b95b37667cff0c9" target="_top" xlink:title="JS_NewCFunction3">
<polygon fill="none" stroke="#ff0000" points="430.5,-315.8538 430.5,-334.8538 534.5,-334.8538 534.5,-315.8538 430.5,-315.8538"/>
<text text-anchor="middle" x="482.5" y="-322.8538" font-family="Helvetica,sans-Serif" font-size="10.00" fill="#000000">JS_NewCFunction3</text>
</a>
</g>
</g>
<!-- Node84458&#45;&gt;Node84464 -->
<g id="edge13" class="edge">
<title>Node84458&#45;&gt;Node84464</title>
<path fill="none" stroke="#191970" d="M375.77,-312.3128C393.1345,-314.4345 412.7495,-316.8312 430.3837,-318.9858"/>
<polygon fill="#191970" stroke="#191970" points="376.1888,-308.838 365.8381,-311.0992 375.3397,-315.7863 376.1888,-308.838"/>
</g>
<!-- Node84490 -->
<g id="node13" class="node">
<title>Node84490</title>
<g id="a_node13"><a xlink:href="quickjs_8c.html#a04f589361a4fbc30d997402e92a50de2" target="_top" xlink:title="JS_GetPropertyStr">
<polygon fill="none" stroke="#ff0000" points="433,-277.8538 433,-296.8538 532,-296.8538 532,-277.8538 433,-277.8538"/>
<text text-anchor="middle" x="482.5" y="-284.8538" font-family="Helvetica,sans-Serif" font-size="10.00" fill="#000000">JS_GetPropertyStr</text>
</a>
</g>
</g>
<!-- Node84458&#45;&gt;Node84490 -->
<g id="edge14" class="edge">
<title>Node84458&#45;&gt;Node84490</title>
<path fill="none" stroke="#191970" d="M375.9406,-300.3739C394.1251,-298.152 414.7585,-295.6308 432.9933,-293.4028"/>
<polygon fill="#191970" stroke="#191970" points="375.3397,-296.9212 365.8381,-301.6083 376.1888,-303.8695 375.3397,-296.9212"/>
</g>
<!-- Node84507 -->
<g id="node14" class="node">
<title>Node84507</title>
<g id="a_node14"><a xlink:href="quickjs_8c.html#a62617fe11025d2e5a545db069fc28e64" target="_top" xlink:title="JS_SetPropertyStr">
<polygon fill="none" stroke="#ff0000" points="433.5,-239.8538 433.5,-258.8538 531.5,-258.8538 531.5,-239.8538 433.5,-239.8538"/>
<text text-anchor="middle" x="482.5" y="-246.8538" font-family="Helvetica,sans-Serif" font-size="10.00" fill="#000000">JS_SetPropertyStr</text>
</a>
</g>
</g>
<!-- Node84458&#45;&gt;Node84507 -->
<g id="edge15" class="edge">
<title>Node84458&#45;&gt;Node84507</title>
<path fill="none" stroke="#191970" d="M364.0941,-293.1761C368.8123,-291.3126 373.5456,-289.349 378,-287.3538 394.511,-279.9582 397.1862,-275.0323 414,-268.3538 423.061,-264.7546 433.053,-261.5675 442.5384,-258.8808"/>
<polygon fill="#191970" stroke="#191970" points="362.6127,-289.9954 354.5245,-296.8388 365.1149,-296.5329 362.6127,-289.9954"/>
</g>
<!-- Node84514 -->
<g id="node15" class="node">
<title>Node84514</title>
<g id="a_node15"><a xlink:href="quickjs_8c.html#a841f4cb887e4d9e03e94a0697255e578" target="_top" xlink:title="JS_DefinePropertyValueStr">
<polygon fill="none" stroke="#ff0000" points="414,-201.8538 414,-220.8538 551,-220.8538 551,-201.8538 414,-201.8538"/>
<text text-anchor="middle" x="482.5" y="-208.8538" font-family="Helvetica,sans-Serif" font-size="10.00" fill="#000000">JS_DefinePropertyValueStr</text>
</a>
</g>
</g>
<!-- Node84458&#45;&gt;Node84514 -->
<g id="edge16" class="edge">
<title>Node84458&#45;&gt;Node84514</title>
<path fill="none" stroke="#191970" d="M371.416,-291.9546C373.7317,-290.5518 375.9462,-289.0215 378,-287.3538 401.2597,-268.4655 389.9494,-248.224 414,-230.3538 419.2502,-226.4527 425.2626,-223.3525 431.4965,-220.8888"/>
<polygon fill="#191970" stroke="#191970" points="369.3923,-289.0602 362.1096,-296.7553 372.6014,-295.2813 369.3923,-289.0602"/>
</g>
<!-- Node84528 -->
<g id="node16" class="node">
<title>Node84528</title>
<g id="a_node16"><a xlink:href="quickjs_8c.html#ac29cc4ec49efa0f0308e494316ce5139" target="_top" xlink:title="JS_NewCModule">
<polygon fill="none" stroke="#ff0000" points="436,-163.8538 436,-182.8538 529,-182.8538 529,-163.8538 436,-163.8538"/>
<text text-anchor="middle" x="482.5" y="-170.8538" font-family="Helvetica,sans-Serif" font-size="10.00" fill="#000000">JS_NewCModule</text>
</a>
</g>
</g>
<!-- Node84458&#45;&gt;Node84528 -->
<g id="edge17" class="edge">
<title>Node84458&#45;&gt;Node84528</title>
<path fill="none" stroke="#191970" d="M373.2977,-291.3818C374.965,-290.1428 376.5428,-288.8028 378,-287.3538 410.0168,-255.516 380.6435,-222.785 414,-192.3538 420.1998,-186.6977 427.939,-182.7059 435.9625,-179.8932"/>
<polygon fill="#191970" stroke="#191970" points="371.1148,-288.6111 364.3589,-296.7725 374.7297,-294.6054 371.1148,-288.6111"/>
</g>
<!-- Node84530 -->
<g id="node17" class="node">
<title>Node84530</title>
<g id="a_node17"><a xlink:href="quickjs_8c.html#a369af749a1fb181216fe8a8b55f841b0" target="_top" xlink:title="JS_AddModuleExport">
<polygon fill="none" stroke="#ff0000" points="427,-125.8538 427,-144.8538 538,-144.8538 538,-125.8538 427,-125.8538"/>
<text text-anchor="middle" x="482.5" y="-132.8538" font-family="Helvetica,sans-Serif" font-size="10.00" fill="#000000">JS_AddModuleExport</text>
</a>
</g>
</g>
<!-- Node84458&#45;&gt;Node84530 -->
<g id="edge18" class="edge">
<title>Node84458&#45;&gt;Node84530</title>
<path fill="none" stroke="#191970" d="M373.6472,-291.4231C375.2024,-290.1736 376.6632,-288.82 378,-287.3538 419.2587,-242.1007 370.8331,-197.7904 414,-154.3538 417.8278,-150.5021 422.3633,-147.4132 427.2502,-144.9385"/>
<polygon fill="#191970" stroke="#191970" points="371.7367,-288.4904 365.2188,-296.8431 375.5229,-294.3781 371.7367,-288.4904"/>
</g>
<!-- Node84533 -->
<g id="node18" class="node">
<title>Node84533</title>
<g id="a_node18"><a xlink:href="quickjs_8c.html#acc3990661d2851b858601061a62cc7d6" target="_top" xlink:title="JS_SetModuleExport">
<polygon fill="none" stroke="#ff0000" points="428,-87.8538 428,-106.8538 537,-106.8538 537,-87.8538 428,-87.8538"/>
<text text-anchor="middle" x="482.5" y="-94.8538" font-family="Helvetica,sans-Serif" font-size="10.00" fill="#000000">JS_SetModuleExport</text>
</a>
</g>
</g>
<!-- Node84458&#45;&gt;Node84533 -->
<g id="edge19" class="edge">
<title>Node84458&#45;&gt;Node84533</title>
<path fill="none" stroke="#191970" d="M374.2073,-291.1329C375.5629,-289.9649 376.8344,-288.7075 378,-287.3538 428.6745,-228.4972 360.8409,-172.9762 414,-116.3538 417.8857,-112.2149 422.5867,-108.95 427.6845,-106.3786"/>
<polygon fill="#191970" stroke="#191970" points="372.0079,-288.3948 365.6785,-296.8912 375.9249,-294.1963 372.0079,-288.3948"/>
</g>
<!-- Node84534 -->
<g id="node19" class="node">
<title>Node84534</title>
<g id="a_node19"><a xlink:href="quickjs_8c.html#a90dd988b99a5bc7b2a4aaffd2de405a9" target="_top" xlink:title="js_host_resolve_imported\l_module">
<polygon fill="none" stroke="#ff0000" points="418.5,-38.3538 418.5,-68.3538 546.5,-68.3538 546.5,-38.3538 418.5,-38.3538"/>
<text text-anchor="start" x="426.5" y="-56.3538" font-family="Helvetica,sans-Serif" font-size="10.00" fill="#000000">js_host_resolve_imported</text>
<text text-anchor="middle" x="482.5" y="-45.3538" font-family="Helvetica,sans-Serif" font-size="10.00" fill="#000000">_module</text>
</a>
</g>
</g>
<!-- Node84458&#45;&gt;Node84534 -->
<g id="edge20" class="edge">
<title>Node84458&#45;&gt;Node84534</title>
<path fill="none" stroke="#191970" d="M374.1991,-291.2521C375.564,-290.0507 376.8389,-288.7538 378,-287.3538 438.1705,-214.8013 353.5876,-150.7049 414,-78.3538 417.2456,-74.4668 421.1493,-71.1841 425.4262,-68.4118"/>
<polygon fill="#191970" stroke="#191970" points="371.8523,-288.616 365.5615,-297.1411 375.7956,-294.3997 371.8523,-288.616"/>
</g>
<!-- Node85042 -->
<g id="node20" class="node">
<title>Node85042</title>
<g id="a_node20"><a xlink:href="quickjs_8c.html#a8020fd59ed57f7f299216ec1ebfcda01" target="_top" xlink:title="js_new_function_def">
<polygon fill="none" stroke="#ff0000" points="429.5,-517.8538 429.5,-536.8538 535.5,-536.8538 535.5,-517.8538 429.5,-517.8538"/>
<text text-anchor="middle" x="482.5" y="-524.8538" font-family="Helvetica,sans-Serif" font-size="10.00" fill="#000000">js_new_function_def</text>
</a>
</g>
</g>
<!-- Node84458&#45;&gt;Node85042 -->
<g id="edge21" class="edge">
<title>Node84458&#45;&gt;Node85042</title>
<path fill="none" stroke="#191970" d="M329.7493,-326.0095C336.4543,-366.39 357.4531,-459.0236 414,-508.3538 418.464,-512.248 423.6621,-515.3499 429.1623,-517.8196"/>
<polygon fill="#191970" stroke="#191970" points="333.2022,-325.4352 328.2195,-316.0852 326.2839,-326.5017 333.2022,-325.4352"/>
</g>
<!-- Node84435 -->
<g id="node21" class="node">
<title>Node84435</title>
<g id="a_node21"><a xlink:href="quickjs_8c.html#a46a8a7e155cfd0af984f6725f060f0d6" target="_top" xlink:title="__JS_EvalInternal">
<polygon fill="none" stroke="#ff0000" points="587,-258.8538 587,-277.8538 683,-277.8538 683,-258.8538 587,-258.8538"/>
<text text-anchor="middle" x="635" y="-265.8538" font-family="Helvetica,sans-Serif" font-size="10.00" fill="#000000">__JS_EvalInternal</text>
</a>
</g>
</g>
<!-- Node84458&#45;&gt;Node84435 -->
<g id="edge23" class="edge">
<title>Node84458&#45;&gt;Node84435</title>
<path fill="none" stroke="#191970" d="M374.2578,-291.3C375.6064,-290.0852 376.8618,-288.7725 378,-287.3538 450.7279,-196.7049 326.3471,-104.6659 414,-28.3538 459.9232,11.6278 501.3401,6.879 551,-28.3538 591.1444,-56.8354 625.0893,-217.8097 633.1736,-258.8376"/>
<polygon fill="#191970" stroke="#191970" points="371.9101,-288.6685 365.6834,-297.2405 375.8966,-294.4225 371.9101,-288.6685"/>
</g>
<!-- Node85046 -->
<g id="node22" class="node">
<title>Node85046</title>
<g id="a_node22"><a xlink:href="quickjs_8c.html#ae8e62d181b34d2e7bdda0b099c0880f5" target="_top" xlink:title="find_atom">
<polygon fill="none" stroke="#ff0000" points="453,-479.8538 453,-498.8538 512,-498.8538 512,-479.8538 453,-479.8538"/>
<text text-anchor="middle" x="482.5" y="-486.8538" font-family="Helvetica,sans-Serif" font-size="10.00" fill="#000000">find_atom</text>
</a>
</g>
</g>
<!-- Node84458&#45;&gt;Node85046 -->
<g id="edge24" class="edge">
<title>Node84458&#45;&gt;Node85046</title>
<path fill="none" stroke="#191970" d="M331.9244,-326.0642C341.5938,-360.6227 366.3882,-432.1022 414,-470.3538 424.9679,-479.1654 439.7513,-483.897 452.777,-486.4349"/>
<polygon fill="#191970" stroke="#191970" points="335.2613,-324.9933 329.3066,-316.2302 328.4968,-326.794 335.2613,-324.9933"/>
</g>
<!-- Node85042&#45;&gt;Node84435 -->
<g id="edge22" class="edge">
<title>Node85042&#45;&gt;Node84435</title>
<path fill="none" stroke="#191970" d="M544.7745,-513.2846C546.98,-511.8001 549.0684,-510.1617 551,-508.3538 621.2609,-442.5904 632.772,-314.7922 634.6413,-278.3011"/>
<polygon fill="#191970" stroke="#191970" points="542.817,-510.368 535.772,-518.2812 546.2141,-516.4886 542.817,-510.368"/>
</g>
<!-- Node85048 -->
<g id="node25" class="node">
<title>Node85048</title>
<g id="a_node25"><a xlink:href="quickjs_8c.html#a75a3798e2045f6e403c1ef467126d1fb" target="_top" xlink:title="next_token">
<polygon fill="none" stroke="#ff0000" points="450,-555.8538 450,-574.8538 515,-574.8538 515,-555.8538 450,-555.8538"/>
<text text-anchor="middle" x="482.5" y="-562.8538" font-family="Helvetica,sans-Serif" font-size="10.00" fill="#000000">next_token</text>
</a>
</g>
</g>
<!-- Node85047&#45;&gt;Node85048 -->
<g id="edge27" class="edge">
<title>Node85047&#45;&gt;Node85048</title>
<path fill="none" stroke="#191970" d="M370.7552,-538.0463C395.8836,-544.187 426.9111,-551.7693 449.8903,-557.3848"/>
<polygon fill="#191970" stroke="#191970" points="371.2862,-534.5732 360.7412,-535.5992 369.6245,-541.3731 371.2862,-534.5732"/>
</g>
<!-- Node85048&#45;&gt;Node84420 -->
<g id="edge28" class="edge">
<title>Node85048&#45;&gt;Node84420</title>
<path fill="none" stroke="#191970" d="M525.1946,-570.6731C544.4123,-573.0674 567.1822,-575.9043 586.9909,-578.3723"/>
<polygon fill="#191970" stroke="#191970" points="525.5711,-567.193 515.2151,-569.4297 524.7056,-574.1393 525.5711,-567.193"/>
</g>
<!-- Node85048&#45;&gt;Node84421 -->
<g id="edge29" class="edge">
<title>Node85048&#45;&gt;Node84421</title>
<path fill="none" stroke="#191970" d="M525.3492,-562.8402C566.0324,-561.0473 628.8453,-559.8201 683,-565.3538 701.1718,-567.2106 721.0526,-571.0794 737.6689,-574.8443"/>
<polygon fill="#191970" stroke="#191970" points="525.072,-559.3493 515.2483,-563.3172 525.4023,-566.3415 525.072,-559.3493"/>
</g>
<!-- Node85048&#45;&gt;Node84444 -->
<g id="edge30" class="edge">
<title>Node85048&#45;&gt;Node84444</title>
<path fill="none" stroke="#191970" d="M524.7557,-575.5376C533.5457,-578.082 542.6666,-581.0437 551,-584.3538 567.8138,-591.0323 570.5648,-595.7911 587,-603.3538 594.1648,-606.6507 602.0757,-609.9261 609.3731,-612.8052"/>
<polygon fill="#191970" stroke="#191970" points="525.603,-572.1406 515.0316,-572.846 523.7355,-578.8869 525.603,-572.1406"/>
</g>
<!-- Node85057 -->
<g id="node27" class="node">
<title>Node85057</title>
<g id="a_node27"><a xlink:href="quickjs_8c.html#a7fbd31397bde22dfa2b876b945f9afb4" target="_top" xlink:title="json_next_token">
<polygon fill="none" stroke="#ff0000" points="438.5,-593.8538 438.5,-612.8538 526.5,-612.8538 526.5,-593.8538 438.5,-593.8538"/>
<text text-anchor="middle" x="482.5" y="-600.8538" font-family="Helvetica,sans-Serif" font-size="10.00" fill="#000000">json_next_token</text>
</a>
</g>
</g>
<!-- Node85056&#45;&gt;Node85057 -->
<g id="edge32" class="edge">
<title>Node85056&#45;&gt;Node85057</title>
<path fill="none" stroke="#191970" d="M375.9742,-577.3217C397.7652,-582.6469 423.0672,-588.83 443.543,-593.8337"/>
<polygon fill="#191970" stroke="#191970" points="376.7843,-573.9168 366.2392,-574.9428 375.1225,-580.7167 376.7843,-573.9168"/>
</g>
<!-- Node84576 -->
<g id="node29" class="node">
<title>Node84576</title>
<g id="a_node29"><a xlink:href="quickjs_8c.html#a12be2ea9c010752715072489497594e9" target="_top" xlink:title="JS_ReadObject">
<polygon fill="none" stroke="#ff0000" points="284,-258.8538 284,-277.8538 370,-277.8538 370,-258.8538 284,-258.8538"/>
<text text-anchor="middle" x="327" y="-265.8538" font-family="Helvetica,sans-Serif" font-size="10.00" fill="#000000">JS_ReadObject</text>
</a>
</g>
</g>
<!-- Node85059&#45;&gt;Node84576 -->
<g id="edge34" class="edge">
<title>Node85059&#45;&gt;Node84576</title>
<path fill="none" stroke="#191970" d="M236.1716,-474.113C237.5333,-472.9505 238.8156,-471.6997 240,-470.3538 294.7602,-408.1249 222.3331,-350.5279 276,-287.3538 279.3034,-283.4652 283.4824,-280.3717 288.0206,-277.9109"/>
<polygon fill="#191970" stroke="#191970" points="233.9809,-471.3683 227.6331,-479.851 237.8853,-477.1782 233.9809,-471.3683"/>
</g>
</g>
</svg>
