<?xml version="1.0" encoding="UTF-8" standalone="no"?>
<!DOCTYPE svg PUBLIC "-//W3C//DTD SVG 1.1//EN"
 "http://www.w3.org/Graphics/SVG/1.1/DTD/svg11.dtd">
<!-- Generated by graphviz version 2.40.1 (20161225.0304)
 -->
<!-- Title: js_date_getTime Pages: 1 -->
<svg width="498pt" height="123pt"
 viewBox="0.00 0.00 498.00 123.00" xmlns="http://www.w3.org/2000/svg" xmlns:xlink="http://www.w3.org/1999/xlink">
<g id="graph0" class="graph" transform="scale(1 1) rotate(0) translate(4 119)">
<title>js_date_getTime</title>
<!-- Node475004 -->
<g id="node1" class="node">
<title>Node475004</title>
<polygon fill="#bfbfbf" stroke="#000000" points="0,-76.5 0,-95.5 89,-95.5 89,-76.5 0,-76.5"/>
<text text-anchor="middle" x="44.5" y="-83.5" font-family="Helvetica,sans-Serif" font-size="10.00" fill="#000000">js_date_getTime</text>
</g>
<!-- Node475005 -->
<g id="node2" class="node">
<title>Node475005</title>
<g id="a_node2"><a xlink:href="quickjs_8h.html#ae91f44bd7249613050c18c7133702c67" target="_top" xlink:title="JS_NewFloat64">
<polygon fill="none" stroke="#000000" points="131.5,-95.5 131.5,-114.5 217.5,-114.5 217.5,-95.5 131.5,-95.5"/>
<text text-anchor="middle" x="174.5" y="-102.5" font-family="Helvetica,sans-Serif" font-size="10.00" fill="#000000">JS_NewFloat64</text>
</a>
</g>
</g>
<!-- Node475004&#45;&gt;Node475005 -->
<g id="edge1" class="edge">
<title>Node475004&#45;&gt;Node475005</title>
<path fill="none" stroke="#191970" d="M89.2386,-92.5387C99.5911,-94.0518 110.7054,-95.6762 121.3775,-97.2359"/>
<polygon fill="#191970" stroke="#191970" points="121.0337,-100.7228 131.4347,-98.7058 122.0461,-93.7964 121.0337,-100.7228"/>
</g>
<!-- Node475007 -->
<g id="node4" class="node">
<title>Node475007</title>
<g id="a_node4"><a xlink:href="quickjs_8c.html#a5ec6b290012ff91cab9950078724eea2" target="_top" xlink:title="JS_ThisTimeValue">
<polygon fill="none" stroke="#000000" points="125,-57.5 125,-76.5 224,-76.5 224,-57.5 125,-57.5"/>
<text text-anchor="middle" x="174.5" y="-64.5" font-family="Helvetica,sans-Serif" font-size="10.00" fill="#000000">JS_ThisTimeValue</text>
</a>
</g>
</g>
<!-- Node475004&#45;&gt;Node475007 -->
<g id="edge3" class="edge">
<title>Node475004&#45;&gt;Node475007</title>
<path fill="none" stroke="#191970" d="M89.2386,-79.4613C97.4738,-78.2577 106.191,-76.9836 114.7843,-75.7277"/>
<polygon fill="#191970" stroke="#191970" points="115.39,-79.1764 124.7787,-74.267 114.3776,-72.25 115.39,-79.1764"/>
</g>
<!-- Node475006 -->
<g id="node3" class="node">
<title>Node475006</title>
<g id="a_node3"><a xlink:href="quickjs_8h.html#a9bf98b18de88b4199910a43e933eb97d" target="_top" xlink:title="__JS_NewFloat64">
<polygon fill="none" stroke="#000000" points="260,-95.5 260,-114.5 357,-114.5 357,-95.5 260,-95.5"/>
<text text-anchor="middle" x="308.5" y="-102.5" font-family="Helvetica,sans-Serif" font-size="10.00" fill="#000000">__JS_NewFloat64</text>
</a>
</g>
</g>
<!-- Node475005&#45;&gt;Node475006 -->
<g id="edge2" class="edge">
<title>Node475005&#45;&gt;Node475006</title>
<path fill="none" stroke="#191970" d="M217.636,-105C227.8404,-105 238.8943,-105 249.6626,-105"/>
<polygon fill="#191970" stroke="#191970" points="249.8624,-108.5001 259.8624,-105 249.8623,-101.5001 249.8624,-108.5001"/>
</g>
<!-- Node475008 -->
<g id="node5" class="node">
<title>Node475008</title>
<g id="a_node5"><a xlink:href="quickjs_8h.html#ab995df176086f2a2a06ab777d4c4ef28" target="_top" xlink:title="JS_IsNumber">
<polygon fill="none" stroke="#000000" points="270,-57.5 270,-76.5 347,-76.5 347,-57.5 270,-57.5"/>
<text text-anchor="middle" x="308.5" y="-64.5" font-family="Helvetica,sans-Serif" font-size="10.00" fill="#000000">JS_IsNumber</text>
</a>
</g>
</g>
<!-- Node475007&#45;&gt;Node475008 -->
<g id="edge4" class="edge">
<title>Node475007&#45;&gt;Node475008</title>
<path fill="none" stroke="#191970" d="M224.0159,-67C235.5462,-67 247.8192,-67 259.3342,-67"/>
<polygon fill="#191970" stroke="#191970" points="259.6531,-70.5001 269.6531,-67 259.653,-63.5001 259.6531,-70.5001"/>
</g>
<!-- Node475009 -->
<g id="node6" class="node">
<title>Node475009</title>
<g id="a_node6"><a xlink:href="quickjs_8c.html#a8cc9386cd04cfa067d0c6bf588c6bb58" target="_top" xlink:title="JS_ToFloat64">
<polygon fill="none" stroke="#000000" points="270,-19.5 270,-38.5 347,-38.5 347,-19.5 270,-19.5"/>
<text text-anchor="middle" x="308.5" y="-26.5" font-family="Helvetica,sans-Serif" font-size="10.00" fill="#000000">JS_ToFloat64</text>
</a>
</g>
</g>
<!-- Node475007&#45;&gt;Node475009 -->
<g id="edge5" class="edge">
<title>Node475007&#45;&gt;Node475009</title>
<path fill="none" stroke="#191970" d="M208.3139,-57.411C225.5326,-52.5281 246.6637,-46.5357 265.0733,-41.315"/>
<polygon fill="#191970" stroke="#191970" points="266.0312,-44.6815 274.697,-38.5859 264.1214,-37.947 266.0312,-44.6815"/>
</g>
<!-- Node475010 -->
<g id="node7" class="node">
<title>Node475010</title>
<g id="a_node7"><a xlink:href="quickjs_8h.html#a775522f2d084fc8fa0fcb33f390006b4" target="_top" xlink:title="JS_DupValue">
<polygon fill="none" stroke="#000000" points="403,-38.5 403,-57.5 480,-57.5 480,-38.5 403,-38.5"/>
<text text-anchor="middle" x="441.5" y="-45.5" font-family="Helvetica,sans-Serif" font-size="10.00" fill="#000000">JS_DupValue</text>
</a>
</g>
</g>
<!-- Node475009&#45;&gt;Node475010 -->
<g id="edge6" class="edge">
<title>Node475009&#45;&gt;Node475010</title>
<path fill="none" stroke="#191970" d="M347.3266,-34.5467C361.5304,-36.5758 377.7842,-38.8977 392.7451,-41.035"/>
<polygon fill="#191970" stroke="#191970" points="392.4605,-44.5298 402.855,-42.4793 393.4505,-37.6002 392.4605,-44.5298"/>
</g>
<!-- Node475011 -->
<g id="node8" class="node">
<title>Node475011</title>
<g id="a_node8"><a xlink:href="quickjs_8c.html#ab1b614ef35f1cea05da0ad4927c53118" target="_top" xlink:title="JS_ToFloat64Free">
<polygon fill="none" stroke="#ff0000" points="393,-.5 393,-19.5 490,-19.5 490,-.5 393,-.5"/>
<text text-anchor="middle" x="441.5" y="-7.5" font-family="Helvetica,sans-Serif" font-size="10.00" fill="#000000">JS_ToFloat64Free</text>
</a>
</g>
</g>
<!-- Node475009&#45;&gt;Node475011 -->
<g id="edge7" class="edge">
<title>Node475009&#45;&gt;Node475011</title>
<path fill="none" stroke="#191970" d="M347.3266,-23.4533C358.4682,-21.8617 370.8712,-20.0898 382.9222,-18.3683"/>
<polygon fill="#191970" stroke="#191970" points="383.5223,-21.8182 392.9267,-16.939 382.5322,-14.8885 383.5223,-21.8182"/>
</g>
</g>
</svg>
