<?xml version="1.0" encoding="UTF-8" standalone="no"?>
<!DOCTYPE svg PUBLIC "-//W3C//DTD SVG 1.1//EN"
 "http://www.w3.org/Graphics/SVG/1.1/DTD/svg11.dtd">
<!-- Generated by graphviz version 2.40.1 (20161225.0304)
 -->
<!-- Title: JS_AtomGetStrRT Pages: 1 -->
<!--zoomable 611 -->
<svg id="main" version="1.1" xmlns="http://www.w3.org/2000/svg" xmlns:xlink="http://www.w3.org/1999/xlink" xml:space="preserve" onload="init(evt)">
<style type="text/css"><![CDATA[
.edge:hover path { stroke: red; }
.edge:hover polygon { stroke: red; fill: red; }
]]></style>
<script type="text/javascript"><![CDATA[
var edges = document.getElementsByTagName('g');
if (edges && edges.length) {
  for (var i=0;i<edges.length;i++) {
    if (edges[i].id.substr(0,4)=='edge') {
      edges[i].setAttribute('class','edge');
    }
  }
}
]]></script>
        <defs>
                <circle id="rim" cx="0" cy="0" r="7"/>
                <circle id="rim2" cx="0" cy="0" r="3.5"/>
                <g id="zoomPlus">
                        <use xlink:href="#rim" fill="#404040">
                                <set attributeName="fill" to="#808080" begin="zoomplus.mouseover" end="zoomplus.mouseout"/>
                        </use>
                        <path d="M-4,0h8M0,-4v8" fill="none" stroke="white" stroke-width="1.5" pointer-events="none"/>
                </g>
                <g id="zoomMin">
                        <use xlink:href="#rim" fill="#404040">
                                <set attributeName="fill" to="#808080" begin="zoomminus.mouseover" end="zoomminus.mouseout"/>
                        </use>
                        <path d="M-4,0h8" fill="none" stroke="white" stroke-width="1.5" pointer-events="none"/>
                </g>
                <g id="dirArrow">
                        <path fill="none" stroke="white" stroke-width="1.5" d="M0,-3.0v7 M-2.5,-0.5L0,-3.0L2.5,-0.5"/>
                </g>
               <g id="resetDef">
                       <use xlink:href="#rim2" fill="#404040">
                               <set attributeName="fill" to="#808080" begin="reset.mouseover" end="reset.mouseout"/>
                       </use>
               </g>
        </defs>

<script type="text/javascript">
var viewWidth = 998;
var viewHeight = 611;
var sectionId = 'dynsection-260';
</script>
<script xlink:href="svgpan.js"/>
<svg id="graph" class="graph">
<g id="viewport">
<title>JS_AtomGetStrRT</title>
<!-- Node88431 -->
<g id="node1" class="node">
<title>Node88431</title>
<polygon fill="#bfbfbf" stroke="#000000" points="0,-114.5 0,-133.5 99,-133.5 99,-114.5 0,-114.5"/>
<text text-anchor="middle" x="49.5" y="-121.5" font-family="Helvetica,sans-Serif" font-size="10.00" fill="#000000">JS_AtomGetStrRT</text>
</g>
<!-- Node88432 -->
<g id="node2" class="node">
<title>Node88432</title>
<g id="a_node2"><a xlink:href="quickjs_8c.html#ab18048ab5eea3e47109a5473f78515bc" target="_top" xlink:title="JS_AtomGetStr">
<polygon fill="none" stroke="#000000" points="154,-338.5 154,-357.5 240,-357.5 240,-338.5 154,-338.5"/>
<text text-anchor="middle" x="197" y="-345.5" font-family="Helvetica,sans-Serif" font-size="10.00" fill="#000000">JS_AtomGetStr</text>
</a>
</g>
</g>
<!-- Node88431&#45;&gt;Node88432 -->
<g id="edge1" class="edge">
<title>Node88431&#45;&gt;Node88432</title>
<path fill="none" stroke="#191970" d="M61.4477,-142.1443C91.2551,-187.4111 168.124,-304.1476 190.6857,-338.4109"/>
<polygon fill="#191970" stroke="#191970" points="64.2607,-140.0521 55.8379,-133.625 58.4143,-143.9018 64.2607,-140.0521"/>
</g>
<!-- Node89055 -->
<g id="node23" class="node">
<title>Node89055</title>
<g id="a_node23"><a xlink:href="quickjs_8c.html#a2424196308d86d1a8c2bb410ca279be4" target="_top" xlink:title="JS_DumpMemoryUsage">
<polygon fill="none" stroke="#000000" points="135,-152.5 135,-171.5 259,-171.5 259,-152.5 135,-152.5"/>
<text text-anchor="middle" x="197" y="-159.5" font-family="Helvetica,sans-Serif" font-size="10.00" fill="#000000">JS_DumpMemoryUsage</text>
</a>
</g>
</g>
<!-- Node88431&#45;&gt;Node89055 -->
<g id="edge34" class="edge">
<title>Node88431&#45;&gt;Node89055</title>
<path fill="none" stroke="#191970" d="M96.5141,-136.1121C117.0566,-141.4044 140.7998,-147.5213 160.0472,-152.4799"/>
<polygon fill="#191970" stroke="#191970" points="97.2775,-132.6946 86.7205,-133.589 95.5311,-139.4732 97.2775,-132.6946"/>
</g>
<!-- Node89056 -->
<g id="node24" class="node">
<title>Node89056</title>
<g id="a_node24"><a xlink:href="quickjs_8c.html#a315f18f552c506d05a36ab22649c8e3f" target="_top" xlink:title="JS_DumpObject">
<polygon fill="none" stroke="#000000" points="340.5,-114.5 340.5,-133.5 429.5,-133.5 429.5,-114.5 340.5,-114.5"/>
<text text-anchor="middle" x="385" y="-121.5" font-family="Helvetica,sans-Serif" font-size="10.00" fill="#000000">JS_DumpObject</text>
</a>
</g>
</g>
<!-- Node88431&#45;&gt;Node89056 -->
<g id="edge35" class="edge">
<title>Node88431&#45;&gt;Node89056</title>
<path fill="none" stroke="#191970" d="M109.2931,-124C175.5735,-124 280.9465,-124 340.3913,-124"/>
<polygon fill="#191970" stroke="#191970" points="109.0042,-120.5001 99.0042,-124 109.0041,-127.5001 109.0042,-120.5001"/>
</g>
<!-- Node89058 -->
<g id="node26" class="node">
<title>Node89058</title>
<g id="a_node26"><a xlink:href="quickjs_8c.html#adc98d8b63e5b752b814ca91abb7f2a00" target="_top" xlink:title="JS_DumpShape">
<polygon fill="none" stroke="#000000" points="153,-19.5 153,-38.5 241,-38.5 241,-19.5 153,-19.5"/>
<text text-anchor="middle" x="197" y="-26.5" font-family="Helvetica,sans-Serif" font-size="10.00" fill="#000000">JS_DumpShape</text>
</a>
</g>
</g>
<!-- Node88431&#45;&gt;Node89058 -->
<g id="edge37" class="edge">
<title>Node88431&#45;&gt;Node89058</title>
<path fill="none" stroke="#191970" d="M72.3532,-108.4212C89.485,-96.8267 113.5684,-80.7046 135,-67 150.5287,-57.0701 168.5109,-46.1067 181.0972,-38.5185"/>
<polygon fill="#191970" stroke="#191970" points="69.9213,-105.8416 63.6117,-114.3527 73.8518,-111.634 69.9213,-105.8416"/>
</g>
<!-- Node89060 -->
<g id="node28" class="node">
<title>Node89060</title>
<g id="a_node28"><a xlink:href="quickjs_8c.html#a42ffceed2bd5abf49dd5f2f7c3404c8c" target="_top" xlink:title="JS_DumpValueShort">
<polygon fill="none" stroke="#000000" points="143,-76.5 143,-95.5 251,-95.5 251,-76.5 143,-76.5"/>
<text text-anchor="middle" x="197" y="-83.5" font-family="Helvetica,sans-Serif" font-size="10.00" fill="#000000">JS_DumpValueShort</text>
</a>
</g>
</g>
<!-- Node88431&#45;&gt;Node89060 -->
<g id="edge39" class="edge">
<title>Node88431&#45;&gt;Node89060</title>
<path fill="none" stroke="#191970" d="M96.5141,-111.8879C117.0566,-106.5956 140.7998,-100.4787 160.0472,-95.5201"/>
<polygon fill="#191970" stroke="#191970" points="95.5311,-108.5268 86.7205,-114.411 97.2775,-115.3054 95.5311,-108.5268"/>
</g>
<!-- Node88433 -->
<g id="node3" class="node">
<title>Node88433</title>
<g id="a_node3"><a xlink:href="quickjs_8c.html#ab4e5569a1110db200c0eab67bcd4862a" target="_top" xlink:title="print_atom">
<polygon fill="none" stroke="#000000" points="354,-530.5 354,-549.5 416,-549.5 416,-530.5 354,-530.5"/>
<text text-anchor="middle" x="385" y="-537.5" font-family="Helvetica,sans-Serif" font-size="10.00" fill="#000000">print_atom</text>
</a>
</g>
</g>
<!-- Node88432&#45;&gt;Node88433 -->
<g id="edge2" class="edge">
<title>Node88432&#45;&gt;Node88433</title>
<path fill="none" stroke="#191970" d="M202.2628,-367.6217C213.0952,-404.0169 241.4795,-481.8358 295,-521 311.8826,-533.354 335.0539,-538.0397 353.6571,-539.6702"/>
<polygon fill="#191970" stroke="#191970" points="205.5564,-366.4075 199.4561,-357.7451 198.823,-368.321 205.5564,-366.4075"/>
</g>
<!-- Node88434 -->
<g id="node4" class="node">
<title>Node88434</title>
<g id="a_node4"><a xlink:href="quickjs_8c.html#ab8d0b87c9eed4eb6c054b6f4e1731554" target="_top" xlink:title="JS_ThrowReferenceErrorNot\lDefined">
<polygon fill="none" stroke="#000000" points="313.5,-481 313.5,-511 456.5,-511 456.5,-481 313.5,-481"/>
<text text-anchor="start" x="321.5" y="-499" font-family="Helvetica,sans-Serif" font-size="10.00" fill="#000000">JS_ThrowReferenceErrorNot</text>
<text text-anchor="middle" x="385" y="-488" font-family="Helvetica,sans-Serif" font-size="10.00" fill="#000000">Defined</text>
</a>
</g>
</g>
<!-- Node88432&#45;&gt;Node88434 -->
<g id="edge3" class="edge">
<title>Node88432&#45;&gt;Node88434</title>
<path fill="none" stroke="#191970" d="M206.7442,-366.5555C221.9327,-393.6482 253.8312,-443.7623 295,-471 300.8155,-474.8476 307.2166,-478.108 313.8425,-480.8699"/>
<polygon fill="#191970" stroke="#191970" points="209.777,-364.8063 201.9183,-357.7006 203.6306,-368.1562 209.777,-364.8063"/>
</g>
<!-- Node89045 -->
<g id="node10" class="node">
<title>Node89045</title>
<g id="a_node10"><a xlink:href="quickjs_8c.html#a75ac132a3af4de01e1fadeb0bede6ee7" target="_top" xlink:title="JS_ThrowReferenceErrorUninitialized">
<polygon fill="none" stroke="#000000" points="295,-442.5 295,-461.5 475,-461.5 475,-442.5 295,-442.5"/>
<text text-anchor="middle" x="385" y="-449.5" font-family="Helvetica,sans-Serif" font-size="10.00" fill="#000000">JS_ThrowReferenceErrorUninitialized</text>
</a>
</g>
</g>
<!-- Node88432&#45;&gt;Node89045 -->
<g id="edge14" class="edge">
<title>Node88432&#45;&gt;Node89045</title>
<path fill="none" stroke="#191970" d="M211.7678,-365.2568C229.5007,-384.8156 261.1174,-416.1594 295,-433 302.8652,-436.9092 311.5051,-440.0157 320.2236,-442.484"/>
<polygon fill="#191970" stroke="#191970" points="214.3018,-362.8389 205.052,-357.6726 209.0611,-367.4796 214.3018,-362.8389"/>
</g>
<!-- Node88837 -->
<g id="node15" class="node">
<title>Node88837</title>
<g id="a_node15"><a xlink:href="quickjs_8c.html#acf2f211c47aeb52306aa1467fc034915" target="_top" xlink:title="__attribute">
<polygon fill="none" stroke="#000000" points="354,-404.5 354,-423.5 416,-423.5 416,-404.5 354,-404.5"/>
<text text-anchor="middle" x="385" y="-411.5" font-family="Helvetica,sans-Serif" font-size="10.00" fill="#000000">__attribute</text>
</a>
</g>
</g>
<!-- Node88432&#45;&gt;Node88837 -->
<g id="edge26" class="edge">
<title>Node88432&#45;&gt;Node88837</title>
<path fill="none" stroke="#191970" d="M222.6327,-362.3874C241.9999,-372.7349 269.5134,-386.3379 295,-395 314.0512,-401.4749 336.1512,-406.1788 353.6838,-409.2865"/>
<polygon fill="#191970" stroke="#191970" points="224.2825,-359.3006 213.8242,-357.6052 220.9426,-365.4524 224.2825,-359.3006"/>
</g>
<!-- Node89047 -->
<g id="node16" class="node">
<title>Node89047</title>
<g id="a_node16"><a xlink:href="quickjs_8c.html#ab1d195fd11f9d22a0a79a040df2be944" target="_top" xlink:title="js_parse_error_reserved\l_identifier">
<polygon fill="none" stroke="#ff0000" points="324.5,-355 324.5,-385 445.5,-385 445.5,-355 324.5,-355"/>
<text text-anchor="start" x="332.5" y="-373" font-family="Helvetica,sans-Serif" font-size="10.00" fill="#000000">js_parse_error_reserved</text>
<text text-anchor="middle" x="385" y="-362" font-family="Helvetica,sans-Serif" font-size="10.00" fill="#000000">_identifier</text>
</a>
</g>
</g>
<!-- Node88432&#45;&gt;Node89047 -->
<g id="edge27" class="edge">
<title>Node88432&#45;&gt;Node89047</title>
<path fill="none" stroke="#191970" d="M250.0899,-354.2127C273.1822,-356.9149 300.3667,-360.0961 324.2599,-362.8921"/>
<polygon fill="#191970" stroke="#191970" points="250.4701,-350.7333 240.131,-353.0472 249.6564,-357.6859 250.4701,-350.7333"/>
</g>
<!-- Node89048 -->
<g id="node17" class="node">
<title>Node89048</title>
<g id="a_node17"><a xlink:href="quickjs_8c.html#a6c762f0392095a1152dd6fab61a93e5c" target="_top" xlink:title="js_unsupported_keyword">
<polygon fill="none" stroke="#ff0000" points="322.5,-316.5 322.5,-335.5 447.5,-335.5 447.5,-316.5 322.5,-316.5"/>
<text text-anchor="middle" x="385" y="-323.5" font-family="Helvetica,sans-Serif" font-size="10.00" fill="#000000">js_unsupported_keyword</text>
</a>
</g>
</g>
<!-- Node88432&#45;&gt;Node89048 -->
<g id="edge28" class="edge">
<title>Node88432&#45;&gt;Node89048</title>
<path fill="none" stroke="#191970" d="M250.171,-341.7779C272.6692,-339.1451 299.0406,-336.0591 322.465,-333.3179"/>
<polygon fill="#191970" stroke="#191970" points="249.6564,-338.3141 240.131,-342.9528 250.4701,-345.2667 249.6564,-338.3141"/>
</g>
<!-- Node89049 -->
<g id="node18" class="node">
<title>Node89049</title>
<g id="a_node18"><a xlink:href="quickjs_8c.html#aaea4bacf94d0db93f4a13f6e88860ad0" target="_top" xlink:title="add_export_entry2">
<polygon fill="none" stroke="#ff0000" points="336.5,-278.5 336.5,-297.5 433.5,-297.5 433.5,-278.5 336.5,-278.5"/>
<text text-anchor="middle" x="385" y="-285.5" font-family="Helvetica,sans-Serif" font-size="10.00" fill="#000000">add_export_entry2</text>
</a>
</g>
</g>
<!-- Node88432&#45;&gt;Node89049 -->
<g id="edge29" class="edge">
<title>Node88432&#45;&gt;Node89049</title>
<path fill="none" stroke="#191970" d="M225.9835,-334.1773C245.2139,-325.4322 271.2011,-314.4179 295,-307 308.264,-302.8657 322.9071,-299.3471 336.4599,-296.5031"/>
<polygon fill="#191970" stroke="#191970" points="224.4724,-331.0199 216.8583,-338.3872 227.4048,-337.3761 224.4724,-331.0199"/>
</g>
<!-- Node89054 -->
<g id="node19" class="node">
<title>Node89054</title>
<g id="a_node19"><a xlink:href="quickjs_8c.html#a0c56d4991dacd4cd61dddec1afa2703c" target="_top" xlink:title="js_resolve_export_throw\l_error">
<polygon fill="none" stroke="#ff0000" points="324,-229 324,-259 446,-259 446,-229 324,-229"/>
<text text-anchor="start" x="332" y="-247" font-family="Helvetica,sans-Serif" font-size="10.00" fill="#000000">js_resolve_export_throw</text>
<text text-anchor="middle" x="385" y="-236" font-family="Helvetica,sans-Serif" font-size="10.00" fill="#000000">_error</text>
</a>
</g>
</g>
<!-- Node88432&#45;&gt;Node89054 -->
<g id="edge30" class="edge">
<title>Node88432&#45;&gt;Node89054</title>
<path fill="none" stroke="#191970" d="M213.5565,-331.0385C231.9078,-313.1614 263.1427,-285.3714 295,-269 303.9426,-264.4044 313.8325,-260.5685 323.6864,-257.3937"/>
<polygon fill="#191970" stroke="#191970" points="210.6981,-328.945 206.0754,-338.4781 215.6341,-333.9085 210.6981,-328.945"/>
</g>
<!-- Node88477 -->
<g id="node20" class="node">
<title>Node88477</title>
<g id="a_node20"><a xlink:href="quickjs_8c.html#a4497f8c7cf2ec38da989910ae8b1f042" target="_top" xlink:title="JS_AddIntrinsicMapSet">
<polygon fill="none" stroke="#ff0000" points="325.5,-190.5 325.5,-209.5 444.5,-209.5 444.5,-190.5 325.5,-190.5"/>
<text text-anchor="middle" x="385" y="-197.5" font-family="Helvetica,sans-Serif" font-size="10.00" fill="#000000">JS_AddIntrinsicMapSet</text>
</a>
</g>
</g>
<!-- Node88432&#45;&gt;Node88477 -->
<g id="edge31" class="edge">
<title>Node88432&#45;&gt;Node88477</title>
<path fill="none" stroke="#191970" d="M205.9299,-329.2364C220.4444,-300.8751 251.9251,-247.4894 295,-220 304.0401,-214.2308 314.513,-210.1115 325.0494,-207.1736"/>
<polygon fill="#191970" stroke="#191970" points="202.664,-327.9445 201.3601,-338.4588 208.9362,-331.0525 202.664,-327.9445"/>
</g>
<!-- Node88475 -->
<g id="node21" class="node">
<title>Node88475</title>
<g id="a_node21"><a xlink:href="quickjs_8c.html#a4c9489297c684663f30e517204a9ec14" target="_top" xlink:title="JS_AddIntrinsicBaseObjects">
<polygon fill="none" stroke="#ff0000" points="314,-152.5 314,-171.5 456,-171.5 456,-152.5 314,-152.5"/>
<text text-anchor="middle" x="385" y="-159.5" font-family="Helvetica,sans-Serif" font-size="10.00" fill="#000000">JS_AddIntrinsicBaseObjects</text>
</a>
</g>
</g>
<!-- Node88432&#45;&gt;Node88475 -->
<g id="edge32" class="edge">
<title>Node88432&#45;&gt;Node88475</title>
<path fill="none" stroke="#191970" d="M202.6294,-328.5467C213.9224,-293.1854 242.8361,-218.5631 295,-181 300.702,-176.894 307.1026,-173.6381 313.7933,-171.0615"/>
<polygon fill="#191970" stroke="#191970" points="199.2621,-327.5895 199.6841,-338.1759 205.956,-329.6369 199.2621,-327.5895"/>
</g>
<!-- Node88483 -->
<g id="node22" class="node">
<title>Node88483</title>
<g id="a_node22"><a xlink:href="quickjs_8c.html#a177d09828596bfe6df4bd90b2e93989d" target="_top" xlink:title="JS_AddIntrinsicTypedArrays">
<polygon fill="none" stroke="#ff0000" points="314.5,-568.5 314.5,-587.5 455.5,-587.5 455.5,-568.5 314.5,-568.5"/>
<text text-anchor="middle" x="385" y="-575.5" font-family="Helvetica,sans-Serif" font-size="10.00" fill="#000000">JS_AddIntrinsicTypedArrays</text>
</a>
</g>
</g>
<!-- Node88432&#45;&gt;Node88483 -->
<g id="edge33" class="edge">
<title>Node88432&#45;&gt;Node88483</title>
<path fill="none" stroke="#191970" d="M200.1411,-367.7376C207.9483,-409.9369 232.3273,-509.1407 295,-559 300.7487,-563.5733 307.3373,-567.1166 314.2784,-569.8523"/>
<polygon fill="#191970" stroke="#191970" points="203.5865,-367.1212 198.4296,-357.8662 196.6894,-368.3171 203.5865,-367.1212"/>
</g>
<!-- Node88435 -->
<g id="node5" class="node">
<title>Node88435</title>
<g id="a_node5"><a xlink:href="quickjs_8c.html#a5762c57ae0c9937e986040c01222833a" target="_top" xlink:title="JS_GetPropertyInternal">
<polygon fill="none" stroke="#ff0000" points="521,-486.5 521,-505.5 640,-505.5 640,-486.5 521,-486.5"/>
<text text-anchor="middle" x="580.5" y="-493.5" font-family="Helvetica,sans-Serif" font-size="10.00" fill="#000000">JS_GetPropertyInternal</text>
</a>
</g>
</g>
<!-- Node88434&#45;&gt;Node88435 -->
<g id="edge4" class="edge">
<title>Node88434&#45;&gt;Node88435</title>
<path fill="none" stroke="#191970" d="M466.9082,-496C484.9467,-496 503.7246,-496 520.696,-496"/>
<polygon fill="#191970" stroke="#191970" points="466.6869,-492.5001 456.6869,-496 466.6868,-499.5001 466.6869,-492.5001"/>
</g>
<!-- Node88442 -->
<g id="node7" class="node">
<title>Node88442</title>
<g id="a_node7"><a xlink:href="quickjs_8c.html#ac2894ff4edcdb4e6841bcce9c76081e3" target="_top" xlink:title="JS_CallInternal">
<polygon fill="none" stroke="#ff0000" points="907,-467.5 907,-486.5 990,-486.5 990,-467.5 907,-467.5"/>
<text text-anchor="middle" x="948.5" y="-474.5" font-family="Helvetica,sans-Serif" font-size="10.00" fill="#000000">JS_CallInternal</text>
</a>
</g>
</g>
<!-- Node88434&#45;&gt;Node88442 -->
<g id="edge13" class="edge">
<title>Node88434&#45;&gt;Node88442</title>
<path fill="none" stroke="#191970" d="M465.6045,-514.4839C468.9075,-516.4418 472.0605,-518.6066 475,-521 502.1286,-543.0893 481.1366,-572.777 511,-591 547.6644,-613.373 834.2806,-600.482 871,-581 910.7824,-559.8929 935.707,-508.2891 944.7079,-486.7224"/>
<polygon fill="#191970" stroke="#191970" points="467.04,-511.2853 456.5542,-509.7692 463.806,-517.4934 467.04,-511.2853"/>
</g>
<!-- Node88567 -->
<g id="node8" class="node">
<title>Node88567</title>
<g id="a_node8"><a xlink:href="quickjs_8c.html#ad7f03358a8088ca920ab308225c6b2e6" target="_top" xlink:title="JS_SetPropertyInternal">
<polygon fill="none" stroke="#ff0000" points="521.5,-562.5 521.5,-581.5 639.5,-581.5 639.5,-562.5 521.5,-562.5"/>
<text text-anchor="middle" x="580.5" y="-569.5" font-family="Helvetica,sans-Serif" font-size="10.00" fill="#000000">JS_SetPropertyInternal</text>
</a>
</g>
</g>
<!-- Node88434&#45;&gt;Node88567 -->
<g id="edge9" class="edge">
<title>Node88434&#45;&gt;Node88567</title>
<path fill="none" stroke="#191970" d="M459.9094,-514.4603C465.1005,-516.4523 470.18,-518.6286 475,-521 492.9456,-529.8292 493.3346,-538.6228 511,-548 521.9368,-553.8055 534.5637,-558.6572 546.0297,-562.4444"/>
<polygon fill="#191970" stroke="#191970" points="461.0712,-511.1588 450.4767,-511.0716 458.7044,-517.7465 461.0712,-511.1588"/>
</g>
<!-- Node89044 -->
<g id="node6" class="node">
<title>Node89044</title>
<g id="a_node6"><a xlink:href="quickjs_8c.html#a0e8d8152892d3235c94ec6df17c87d13" target="_top" xlink:title="JS_GetGlobalVar">
<polygon fill="none" stroke="#000000" points="732.5,-448.5 732.5,-467.5 824.5,-467.5 824.5,-448.5 732.5,-448.5"/>
<text text-anchor="middle" x="778.5" y="-455.5" font-family="Helvetica,sans-Serif" font-size="10.00" fill="#000000">JS_GetGlobalVar</text>
</a>
</g>
</g>
<!-- Node88435&#45;&gt;Node89044 -->
<g id="edge5" class="edge">
<title>Node88435&#45;&gt;Node89044</title>
<path fill="none" stroke="#191970" d="M640.3758,-484.5087C669.831,-478.8557 704.7929,-472.1458 732.172,-466.8912"/>
<polygon fill="#191970" stroke="#191970" points="639.3693,-481.1379 630.2082,-486.46 640.6887,-488.0124 639.3693,-481.1379"/>
</g>
<!-- Node88435&#45;&gt;Node88442 -->
<g id="edge8" class="edge">
<title>Node88435&#45;&gt;Node88442</title>
<path fill="none" stroke="#191970" d="M650.426,-492.3897C726.1445,-488.4803 844.4297,-482.3732 906.7892,-479.1535"/>
<polygon fill="#191970" stroke="#191970" points="649.8408,-488.9152 640.0346,-492.9262 650.2018,-495.9058 649.8408,-488.9152"/>
</g>
<!-- Node89044&#45;&gt;Node88442 -->
<g id="edge6" class="edge">
<title>Node89044&#45;&gt;Node88442</title>
<path fill="none" stroke="#191970" d="M834.7039,-464.2816C858.2343,-466.9115 885.1036,-469.9145 906.8224,-472.3419"/>
<polygon fill="#191970" stroke="#191970" points="834.8314,-460.7741 824.5044,-463.1417 834.0538,-467.7308 834.8314,-460.7741"/>
</g>
<!-- Node88442&#45;&gt;Node88442 -->
<g id="edge7" class="edge">
<title>Node88442&#45;&gt;Node88442</title>
<path fill="none" stroke="#191970" d="M916.6886,-495.2746C917.5956,-500.741 928.1994,-505 948.5,-505 978.7148,-505 987.4488,-495.5653 974.7019,-486.7571"/>
<polygon fill="#191970" stroke="#191970" points="919.7209,-497.0337 922.2981,-486.7571 913.8748,-493.1836 919.7209,-497.0337"/>
</g>
<!-- Node88567&#45;&gt;Node88442 -->
<g id="edge12" class="edge">
<title>Node88567&#45;&gt;Node88442</title>
<path fill="none" stroke="#191970" d="M649.8517,-580.6069C710.8202,-585.1836 800.5598,-584.4963 871,-553 903.6864,-538.3848 930.5442,-503.6 942.2202,-486.6355"/>
<polygon fill="#191970" stroke="#191970" points="649.8209,-577.0928 639.5685,-579.7647 649.2494,-584.0694 649.8209,-577.0928"/>
</g>
<!-- Node88765 -->
<g id="node9" class="node">
<title>Node88765</title>
<g id="a_node9"><a xlink:href="quickjs_8c.html#ad50f89a3ee5e8b29b31bb62cf8ea0d82" target="_top" xlink:title="JS_SetGlobalVar">
<polygon fill="none" stroke="#000000" points="732.5,-524.5 732.5,-543.5 824.5,-543.5 824.5,-524.5 732.5,-524.5"/>
<text text-anchor="middle" x="778.5" y="-531.5" font-family="Helvetica,sans-Serif" font-size="10.00" fill="#000000">JS_SetGlobalVar</text>
</a>
</g>
</g>
<!-- Node88567&#45;&gt;Node88765 -->
<g id="edge10" class="edge">
<title>Node88567&#45;&gt;Node88765</title>
<path fill="none" stroke="#191970" d="M640.3758,-560.5087C669.831,-554.8557 704.7929,-548.1458 732.172,-542.8912"/>
<polygon fill="#191970" stroke="#191970" points="639.3693,-557.1379 630.2082,-562.46 640.6887,-564.0124 639.3693,-557.1379"/>
</g>
<!-- Node88765&#45;&gt;Node88442 -->
<g id="edge11" class="edge">
<title>Node88765&#45;&gt;Node88442</title>
<path fill="none" stroke="#191970" d="M830.7222,-521.8974C843.9762,-518.4314 858.1095,-514.3895 871,-510 890.9343,-503.2119 912.964,-493.619 928.4244,-486.5245"/>
<polygon fill="#191970" stroke="#191970" points="829.617,-518.5672 820.7933,-524.4318 831.3483,-525.3497 829.617,-518.5672"/>
</g>
<!-- Node89045&#45;&gt;Node88435 -->
<g id="edge17" class="edge">
<title>Node89045&#45;&gt;Node88435</title>
<path fill="none" stroke="#191970" d="M438.0429,-463.7409C450.1892,-466.4424 463.0438,-469.3116 475,-472 496.0753,-476.7389 519.5054,-482.0633 538.9217,-486.4909"/>
<polygon fill="#191970" stroke="#191970" points="438.563,-460.2712 428.0419,-461.5188 437.0447,-467.1046 438.563,-460.2712"/>
</g>
<!-- Node89045&#45;&gt;Node89044 -->
<g id="edge21" class="edge">
<title>Node89045&#45;&gt;Node89044</title>
<path fill="none" stroke="#191970" d="M485.3111,-453.5295C564.7525,-454.7408 672.0624,-456.3771 732.3752,-457.2967"/>
<polygon fill="#191970" stroke="#191970" points="485.3291,-450.0295 475.2768,-453.3765 485.2223,-457.0287 485.3291,-450.0295"/>
</g>
<!-- Node89045&#45;&gt;Node88442 -->
<g id="edge25" class="edge">
<title>Node89045&#45;&gt;Node88442</title>
<path fill="none" stroke="#191970" d="M445.2078,-440.7706C538.0208,-425.5986 721.0173,-404.2086 871,-439 894.5022,-444.4518 919.096,-458.0761 934.1128,-467.4372"/>
<polygon fill="#191970" stroke="#191970" points="444.4443,-437.3495 435.1566,-442.4474 445.5962,-444.2541 444.4443,-437.3495"/>
</g>
<!-- Node89045&#45;&gt;Node88765 -->
<g id="edge24" class="edge">
<title>Node89045&#45;&gt;Node88765</title>
<path fill="none" stroke="#191970" d="M461.2223,-465.0881C466.0261,-467.0764 470.6661,-469.3653 475,-472 496.2979,-484.9474 488.8045,-503.66 511,-515 581.4822,-551.0105 676.3171,-547.5731 732.0801,-541.1997"/>
<polygon fill="#191970" stroke="#191970" points="462.413,-461.7969 451.8196,-461.6231 459.9925,-468.3651 462.413,-461.7969"/>
</g>
<!-- Node89046 -->
<g id="node11" class="node">
<title>Node89046</title>
<g id="a_node11"><a xlink:href="quickjs_8c.html#a99f9e5cb113b94e2dde9891f324e547d" target="_top" xlink:title="JS_ThrowReferenceErrorUninitialized2">
<polygon fill="none" stroke="#000000" points="686,-310.5 686,-329.5 871,-329.5 871,-310.5 686,-310.5"/>
<text text-anchor="middle" x="778.5" y="-317.5" font-family="Helvetica,sans-Serif" font-size="10.00" fill="#000000">JS_ThrowReferenceErrorUninitialized2</text>
</a>
</g>
</g>
<!-- Node89045&#45;&gt;Node89046 -->
<g id="edge15" class="edge">
<title>Node89045&#45;&gt;Node89046</title>
<path fill="none" stroke="#191970" d="M469.4685,-437.2851C471.3945,-435.9653 473.2438,-434.5396 475,-433 511.1493,-401.3087 472.3341,-359.5668 511,-331 580.5343,-279.6274 690.2379,-297.0988 745.0332,-310.4945"/>
<polygon fill="#191970" stroke="#191970" points="467.4915,-434.3852 460.5834,-442.4182 470.9931,-440.4464 467.4915,-434.3852"/>
</g>
<!-- Node89014 -->
<g id="node12" class="node">
<title>Node89014</title>
<g id="a_node12"><a xlink:href="quickjs_8c.html#a176ac5ff56a118a0b1b2566798d28823" target="_top" xlink:title="JS_GetOwnPropertyNamesInternal">
<polygon fill="none" stroke="#ff0000" points="693.5,-353.5 693.5,-372.5 863.5,-372.5 863.5,-353.5 693.5,-353.5"/>
<text text-anchor="middle" x="778.5" y="-360.5" font-family="Helvetica,sans-Serif" font-size="10.00" fill="#000000">JS_GetOwnPropertyNamesInternal</text>
</a>
</g>
</g>
<!-- Node89045&#45;&gt;Node89014 -->
<g id="edge18" class="edge">
<title>Node89045&#45;&gt;Node89014</title>
<path fill="none" stroke="#191970" d="M467.6854,-437.8587C470.2311,-436.3864 472.6793,-434.7712 475,-433 502.8097,-411.7745 481.1366,-381.223 511,-363 585.7273,-317.4007 695.4399,-338.9535 748.1009,-353.4894"/>
<polygon fill="#191970" stroke="#191970" points="466.0899,-434.7432 458.6983,-442.3337 469.2101,-441.0094 466.0899,-434.7432"/>
</g>
<!-- Node89012 -->
<g id="node13" class="node">
<title>Node89012</title>
<g id="a_node13"><a xlink:href="quickjs_8c.html#ad13892c0a0f11781b566808876658099" target="_top" xlink:title="JS_GetOwnPropertyInternal">
<polygon fill="none" stroke="#ff0000" points="511,-372.5 511,-391.5 650,-391.5 650,-372.5 511,-372.5"/>
<text text-anchor="middle" x="580.5" y="-379.5" font-family="Helvetica,sans-Serif" font-size="10.00" fill="#000000">JS_GetOwnPropertyInternal</text>
</a>
</g>
</g>
<!-- Node89045&#45;&gt;Node89012 -->
<g id="edge19" class="edge">
<title>Node89045&#45;&gt;Node89012</title>
<path fill="none" stroke="#191970" d="M457.2768,-439.6916C463.3824,-437.7698 469.3689,-435.5538 475,-433 493.2143,-424.7394 493.3346,-415.3772 511,-406 521.9368,-400.1945 534.5637,-395.3428 546.0297,-391.5556"/>
<polygon fill="#191970" stroke="#191970" points="456.2575,-436.3429 447.6182,-442.4759 458.1965,-443.069 456.2575,-436.3429"/>
</g>
<!-- Node88804 -->
<g id="node14" class="node">
<title>Node88804</title>
<g id="a_node14"><a xlink:href="quickjs_8c.html#a541a07ee8f5d72f230f97472ec9e42dd" target="_top" xlink:title="JS_GetGlobalVarRef">
<polygon fill="none" stroke="#000000" points="724.5,-263.5 724.5,-282.5 832.5,-282.5 832.5,-263.5 724.5,-263.5"/>
<text text-anchor="middle" x="778.5" y="-270.5" font-family="Helvetica,sans-Serif" font-size="10.00" fill="#000000">JS_GetGlobalVarRef</text>
</a>
</g>
</g>
<!-- Node89045&#45;&gt;Node88804 -->
<g id="edge22" class="edge">
<title>Node89045&#45;&gt;Node88804</title>
<path fill="none" stroke="#191970" d="M470.3719,-436.9538C471.9839,-435.7252 473.5304,-434.4092 475,-433 521.682,-388.2351 461.3604,-333.4611 511,-292 576.3919,-237.382 684.9867,-251.1416 741.6025,-263.4301"/>
<polygon fill="#191970" stroke="#191970" points="468.3773,-434.0745 461.8178,-442.3946 472.1341,-439.9809 468.3773,-434.0745"/>
</g>
<!-- Node89046&#45;&gt;Node88442 -->
<g id="edge16" class="edge">
<title>Node89046&#45;&gt;Node88442</title>
<path fill="none" stroke="#191970" d="M852.0935,-333.1837C858.8361,-336.101 865.273,-339.6596 871,-344 914.6623,-377.0908 938.0936,-442.471 945.6967,-467.2075"/>
<polygon fill="#191970" stroke="#191970" points="853.3373,-329.9122 842.7473,-329.5901 850.825,-336.4459 853.3373,-329.9122"/>
</g>
<!-- Node89012&#45;&gt;Node89014 -->
<g id="edge20" class="edge">
<title>Node89012&#45;&gt;Node89014</title>
<path fill="none" stroke="#191970" d="M660.0278,-374.3685C671.0358,-373.3122 682.3781,-372.2238 693.481,-371.1584"/>
<polygon fill="#191970" stroke="#191970" points="659.6489,-370.8887 650.029,-375.328 660.3176,-377.8567 659.6489,-370.8887"/>
</g>
<!-- Node88804&#45;&gt;Node88442 -->
<g id="edge23" class="edge">
<title>Node88804&#45;&gt;Node88442</title>
<path fill="none" stroke="#191970" d="M842.4683,-284.4098C852.8313,-288.3905 862.8267,-293.7593 871,-301 923.9802,-347.935 942.3607,-437.8331 947.114,-467.3491"/>
<polygon fill="#191970" stroke="#191970" points="843.4842,-281.0582 832.8896,-281.1304 841.2168,-287.6809 843.4842,-281.0582"/>
</g>
<!-- Node89057 -->
<g id="node25" class="node">
<title>Node89057</title>
<g id="a_node25"><a xlink:href="quickjs_8c.html#a9ca2f6b32f0e892e8031147aa8edf270" target="_top" xlink:title="JS_DumpGCObject">
<polygon fill="none" stroke="#000000" points="528.5,-114.5 528.5,-133.5 632.5,-133.5 632.5,-114.5 528.5,-114.5"/>
<text text-anchor="middle" x="580.5" y="-121.5" font-family="Helvetica,sans-Serif" font-size="10.00" fill="#000000">JS_DumpGCObject</text>
</a>
</g>
</g>
<!-- Node89056&#45;&gt;Node89057 -->
<g id="edge36" class="edge">
<title>Node89056&#45;&gt;Node89057</title>
<path fill="none" stroke="#191970" d="M440.1377,-124C467.7607,-124 501.0286,-124 528.2421,-124"/>
<polygon fill="#191970" stroke="#191970" points="439.8517,-120.5001 429.8516,-124 439.8516,-127.5001 439.8517,-120.5001"/>
</g>
<!-- Node89059 -->
<g id="node27" class="node">
<title>Node89059</title>
<g id="a_node27"><a xlink:href="quickjs_8c.html#ac4df713e496f8c3ee627c8bc008964a5" target="_top" xlink:title="JS_DumpShapes">
<polygon fill="none" stroke="#000000" points="338.5,-.5 338.5,-19.5 431.5,-19.5 431.5,-.5 338.5,-.5"/>
<text text-anchor="middle" x="385" y="-7.5" font-family="Helvetica,sans-Serif" font-size="10.00" fill="#000000">JS_DumpShapes</text>
</a>
</g>
</g>
<!-- Node89058&#45;&gt;Node89059 -->
<g id="edge38" class="edge">
<title>Node89058&#45;&gt;Node89059</title>
<path fill="none" stroke="#191970" d="M251.3221,-23.51C278.8277,-20.7302 311.8847,-17.3893 338.244,-14.7253"/>
<polygon fill="#191970" stroke="#191970" points="250.675,-20.0575 241.0776,-24.5453 251.3789,-27.022 250.675,-20.0575"/>
</g>
<!-- Node89060&#45;&gt;Node89056 -->
<g id="edge40" class="edge">
<title>Node89060&#45;&gt;Node89056</title>
<path fill="none" stroke="#191970" d="M254.3841,-97.5989C282.0504,-103.191 314.7324,-109.797 340.4838,-115.0021"/>
<polygon fill="#191970" stroke="#191970" points="254.9356,-94.1397 244.4403,-95.589 253.5487,-101.0009 254.9356,-94.1397"/>
</g>
<!-- Node89061 -->
<g id="node29" class="node">
<title>Node89061</title>
<g id="a_node29"><a xlink:href="quickjs_8c.html#a646c3d9262414e3636fe43d01588edc8" target="_top" xlink:title="JS_DumpValue">
<polygon fill="none" stroke="#000000" points="342.5,-38.5 342.5,-57.5 427.5,-57.5 427.5,-38.5 342.5,-38.5"/>
<text text-anchor="middle" x="385" y="-45.5" font-family="Helvetica,sans-Serif" font-size="10.00" fill="#000000">JS_DumpValue</text>
</a>
</g>
</g>
<!-- Node89060&#45;&gt;Node89061 -->
<g id="edge41" class="edge">
<title>Node89060&#45;&gt;Node89061</title>
<path fill="none" stroke="#191970" d="M254.6099,-74.3554C282.9165,-68.6339 316.4295,-61.86 342.3913,-56.6124"/>
<polygon fill="#191970" stroke="#191970" points="253.5487,-70.9991 244.4403,-76.411 254.9356,-77.8603 253.5487,-70.9991"/>
</g>
<!-- Node89062 -->
<g id="node30" class="node">
<title>Node89062</title>
<g id="a_node30"><a xlink:href="quickjs_8c.html#a2ed336fc5fbbc0999bf58d0fa70a443e" target="_top" xlink:title="JS_PrintValue">
<polygon fill="none" stroke="#000000" points="345.5,-76.5 345.5,-95.5 424.5,-95.5 424.5,-76.5 345.5,-76.5"/>
<text text-anchor="middle" x="385" y="-83.5" font-family="Helvetica,sans-Serif" font-size="10.00" fill="#000000">JS_PrintValue</text>
</a>
</g>
</g>
<!-- Node89060&#45;&gt;Node89062 -->
<g id="edge42" class="edge">
<title>Node89060&#45;&gt;Node89062</title>
<path fill="none" stroke="#191970" d="M261.203,-86C289.0933,-86 320.8871,-86 345.2705,-86"/>
<polygon fill="#191970" stroke="#191970" points="261.1252,-82.5001 251.1252,-86 261.1251,-89.5001 261.1252,-82.5001"/>
</g>
</g>
</svg>
        <g id="navigator" transform="translate(0 0)" fill="#404254">
                <rect fill="#f2f5e9" fill-opacity="0.5" stroke="#606060" stroke-width=".5" x="0" y="0" width="60" height="60"/>
                <use id="zoomplus" xlink:href="#zoomPlus" x="17" y="9" onmousedown="handleZoom(evt,'in')"/>
                <use id="zoomminus" xlink:href="#zoomMin" x="42" y="9" onmousedown="handleZoom(evt,'out')"/>
                <use id="reset" xlink:href="#resetDef" x="30" y="36" onmousedown="handleReset()"/>
                <g id="arrowUp" xlink:href="#dirArrow" transform="translate(30 24)" onmousedown="handlePan(0,-1)">
                  <use xlink:href="#rim" fill="#404040">
                        <set attributeName="fill" to="#808080" begin="arrowUp.mouseover" end="arrowUp.mouseout"/>
                  </use>
                  <path fill="none" stroke="white" stroke-width="1.5" d="M0,-3.0v7 M-2.5,-0.5L0,-3.0L2.5,-0.5"/>
                </g>
                <g id="arrowRight" xlink:href="#dirArrow" transform="rotate(90) translate(36 -43)" onmousedown="handlePan(1,0)">
                  <use xlink:href="#rim" fill="#404040">
                        <set attributeName="fill" to="#808080" begin="arrowRight.mouseover" end="arrowRight.mouseout"/>
                  </use>
                  <path fill="none" stroke="white" stroke-width="1.5" d="M0,-3.0v7 M-2.5,-0.5L0,-3.0L2.5,-0.5"/>
                </g>
                <g id="arrowDown" xlink:href="#dirArrow" transform="rotate(180) translate(-30 -48)" onmousedown="handlePan(0,1)">
                  <use xlink:href="#rim" fill="#404040">
                        <set attributeName="fill" to="#808080" begin="arrowDown.mouseover" end="arrowDown.mouseout"/>
                  </use>
                  <path fill="none" stroke="white" stroke-width="1.5" d="M0,-3.0v7 M-2.5,-0.5L0,-3.0L2.5,-0.5"/>
                </g>
                <g id="arrowLeft" xlink:href="#dirArrow" transform="rotate(270) translate(-36 17)" onmousedown="handlePan(-1,0)">
                  <use xlink:href="#rim" fill="#404040">
                        <set attributeName="fill" to="#808080" begin="arrowLeft.mouseover" end="arrowLeft.mouseout"/>
                  </use>
                  <path fill="none" stroke="white" stroke-width="1.5" d="M0,-3.0v7 M-2.5,-0.5L0,-3.0L2.5,-0.5"/>
                </g>
        </g>
        <svg viewBox="0 0 15 15" width="100%" height="30px" preserveAspectRatio="xMaxYMin meet">
         <g id="arrow_out" transform="scale(0.3 0.3)">
          <a xlink:href="quickjs_8c_a4e63c63058f1efe20ee939c165f7b3ad_icgraph_org.svg" target="_base">
           <rect id="button" ry="5" rx="5" y="6" x="6" height="38" width="38"
                fill="#f2f5e9" fill-opacity="0.5" stroke="#606060" stroke-width="1.0"/>
           <path id="arrow"
             d="M 11.500037,31.436501 C 11.940474,20.09759 22.043105,11.32322 32.158766,21.979434 L 37.068811,17.246167 C 37.068811,17.246167 37.088388,32 37.088388,32 L 22.160133,31.978069 C 22.160133,31.978069 26.997745,27.140456 26.997745,27.140456 C 18.528582,18.264221 13.291696,25.230495 11.500037,31.436501 z"
             style="fill:#404040;"/>
          </a>
         </g>
        </svg>
</svg>
