<?xml version="1.0" encoding="UTF-8" standalone="no"?>
<!DOCTYPE svg PUBLIC "-//W3C//DTD SVG 1.1//EN"
 "http://www.w3.org/Graphics/SVG/1.1/DTD/svg11.dtd">
<!-- Generated by graphviz version 2.40.1 (20161225.0304)
 -->
<!-- Title: build_arg_list Pages: 1 -->
<!--zoomable 976 -->
<svg id="main" version="1.1" xmlns="http://www.w3.org/2000/svg" xmlns:xlink="http://www.w3.org/1999/xlink" xml:space="preserve" onload="init(evt)">
<style type="text/css"><![CDATA[
.edge:hover path { stroke: red; }
.edge:hover polygon { stroke: red; fill: red; }
]]></style>
<script type="text/javascript"><![CDATA[
var edges = document.getElementsByTagName('g');
if (edges && edges.length) {
  for (var i=0;i<edges.length;i++) {
    if (edges[i].id.substr(0,4)=='edge') {
      edges[i].setAttribute('class','edge');
    }
  }
}
]]></script>
        <defs>
                <circle id="rim" cx="0" cy="0" r="7"/>
                <circle id="rim2" cx="0" cy="0" r="3.5"/>
                <g id="zoomPlus">
                        <use xlink:href="#rim" fill="#404040">
                                <set attributeName="fill" to="#808080" begin="zoomplus.mouseover" end="zoomplus.mouseout"/>
                        </use>
                        <path d="M-4,0h8M0,-4v8" fill="none" stroke="white" stroke-width="1.5" pointer-events="none"/>
                </g>
                <g id="zoomMin">
                        <use xlink:href="#rim" fill="#404040">
                                <set attributeName="fill" to="#808080" begin="zoomminus.mouseover" end="zoomminus.mouseout"/>
                        </use>
                        <path d="M-4,0h8" fill="none" stroke="white" stroke-width="1.5" pointer-events="none"/>
                </g>
                <g id="dirArrow">
                        <path fill="none" stroke="white" stroke-width="1.5" d="M0,-3.0v7 M-2.5,-0.5L0,-3.0L2.5,-0.5"/>
                </g>
               <g id="resetDef">
                       <use xlink:href="#rim2" fill="#404040">
                               <set attributeName="fill" to="#808080" begin="reset.mouseover" end="reset.mouseout"/>
                       </use>
               </g>
        </defs>

<script type="text/javascript">
var viewWidth = 559;
var viewHeight = 976;
var sectionId = 'dynsection-121';
</script>
<script xlink:href="svgpan.js"/>
<svg id="graph" class="graph">
<g id="viewport">
<title>build_arg_list</title>
<!-- Node44773 -->
<g id="node1" class="node">
<title>Node44773</title>
<polygon fill="#bfbfbf" stroke="#000000" points="0,-529 0,-548 74,-548 74,-529 0,-529"/>
<text text-anchor="middle" x="37" y="-536" font-family="Helvetica,sans-Serif" font-size="10.00" fill="#000000">build_arg_list</text>
</g>
<!-- Node44774 -->
<g id="node2" class="node">
<title>Node44774</title>
<g id="a_node2"><a xlink:href="quickjs_8c.html#ac2894ff4edcdb4e6841bcce9c76081e3" target="_top" xlink:title="JS_CallInternal">
<polygon fill="none" stroke="#000000" points="119.5,-529 119.5,-548 202.5,-548 202.5,-529 119.5,-529"/>
<text text-anchor="middle" x="161" y="-536" font-family="Helvetica,sans-Serif" font-size="10.00" fill="#000000">JS_CallInternal</text>
</a>
</g>
</g>
<!-- Node44773&#45;&gt;Node44774 -->
<g id="edge1" class="edge">
<title>Node44773&#45;&gt;Node44774</title>
<path fill="none" stroke="#191970" d="M84.5325,-538.5C96.0484,-538.5 108.2695,-538.5 119.4835,-538.5"/>
<polygon fill="#191970" stroke="#191970" points="84.2041,-535.0001 74.2041,-538.5 84.2041,-542.0001 84.2041,-535.0001"/>
</g>
<!-- Node44847 -->
<g id="node19" class="node">
<title>Node44847</title>
<g id="a_node19"><a xlink:href="quickjs_8c.html#a8d4b24969540aff427939eeda47f451d" target="_top" xlink:title="js_function_apply">
<polygon fill="none" stroke="#ff0000" points="438.5,-948 438.5,-967 530.5,-967 530.5,-948 438.5,-948"/>
<text text-anchor="middle" x="484.5" y="-955" font-family="Helvetica,sans-Serif" font-size="10.00" fill="#000000">js_function_apply</text>
</a>
</g>
</g>
<!-- Node44773&#45;&gt;Node44847 -->
<g id="edge39" class="edge">
<title>Node44773&#45;&gt;Node44847</title>
<path fill="none" stroke="#191970" d="M48.1493,-556.7703C88.5923,-621.2964 234.8741,-839.8924 418,-938.5 425.0832,-942.3141 433.0138,-945.4331 440.8631,-947.9598"/>
<polygon fill="#191970" stroke="#191970" points="51.0108,-554.7433 42.767,-548.0882 45.0613,-558.4316 51.0108,-554.7433"/>
</g>
<!-- Node44893 -->
<g id="node30" class="node">
<title>Node44893</title>
<g id="a_node30"><a xlink:href="quickjs_8c.html#a392bb9e4d465d6a061eb3f6c830e0efa" target="_top" xlink:title="js_reflect_construct">
<polygon fill="none" stroke="#000000" points="110,-491 110,-510 212,-510 212,-491 110,-491"/>
<text text-anchor="middle" x="161" y="-498" font-family="Helvetica,sans-Serif" font-size="10.00" fill="#000000">js_reflect_construct</text>
</a>
</g>
</g>
<!-- Node44773&#45;&gt;Node44893 -->
<g id="edge40" class="edge">
<title>Node44773&#45;&gt;Node44893</title>
<path fill="none" stroke="#191970" d="M77.9047,-525.9647C94.7734,-520.7952 114.0076,-514.9009 129.7196,-510.0859"/>
<polygon fill="#191970" stroke="#191970" points="76.826,-522.6345 68.2904,-528.911 78.8771,-529.3273 76.826,-522.6345"/>
</g>
<!-- Node44774&#45;&gt;Node44774 -->
<g id="edge38" class="edge">
<title>Node44774&#45;&gt;Node44774</title>
<path fill="none" stroke="#191970" d="M137.9346,-557.5292C139.1928,-562.628 146.8812,-566.5 161,-566.5 183.0391,-566.5 189.4097,-557.0653 180.112,-548.2571"/>
<polygon fill="#191970" stroke="#191970" points="141.1854,-558.8286 141.888,-548.2571 134.7463,-556.0831 141.1854,-558.8286"/>
</g>
<!-- Node44775 -->
<g id="node3" class="node">
<title>Node44775</title>
<g id="a_node3"><a xlink:href="quickjs_8c.html#ade71a22dc56e7371392393df663b28b3" target="_top" xlink:title="async_func_resume">
<polygon fill="none" stroke="#000000" points="263,-94 263,-113 367,-113 367,-94 263,-94"/>
<text text-anchor="middle" x="315" y="-101" font-family="Helvetica,sans-Serif" font-size="10.00" fill="#000000">async_func_resume</text>
</a>
</g>
</g>
<!-- Node44774&#45;&gt;Node44775 -->
<g id="edge2" class="edge">
<title>Node44774&#45;&gt;Node44775</title>
<path fill="none" stroke="#191970" d="M208.1464,-523.2258C209.5191,-522.0728 210.8108,-520.833 212,-519.5 269.0844,-455.5128 306.8747,-169.5 313.8369,-113.1558"/>
<polygon fill="#191970" stroke="#191970" points="205.9507,-520.4822 199.5512,-528.9259 209.8196,-526.3159 205.9507,-520.4822"/>
</g>
<!-- Node44794 -->
<g id="node8" class="node">
<title>Node44794</title>
<g id="a_node8"><a xlink:href="quickjs_8c.html#a1a4c02a29525d5cb2085dd8bca3af350" target="_top" xlink:title="JS_Call">
<polygon fill="none" stroke="#ff0000" points="289.5,-529 289.5,-548 340.5,-548 340.5,-529 289.5,-529"/>
<text text-anchor="middle" x="315" y="-536" font-family="Helvetica,sans-Serif" font-size="10.00" fill="#000000">JS_Call</text>
</a>
</g>
</g>
<!-- Node44774&#45;&gt;Node44794 -->
<g id="edge7" class="edge">
<title>Node44774&#45;&gt;Node44794</title>
<path fill="none" stroke="#191970" d="M212.6701,-532.0857C238.4131,-531.3796 268.4068,-531.7875 289.2388,-533.3093"/>
<polygon fill="#191970" stroke="#191970" points="212.5498,-528.5877 202.6746,-532.4258 212.7879,-535.5836 212.5498,-528.5877"/>
</g>
<!-- Node44880 -->
<g id="node28" class="node">
<title>Node44880</title>
<g id="a_node28"><a xlink:href="quickjs_8c.html#ad35594576a14c10812efaf958c99af8a" target="_top" xlink:title="JS_CallConstructorInternal">
<polygon fill="none" stroke="#ff0000" points="248,-567 248,-586 382,-586 382,-567 248,-567"/>
<text text-anchor="middle" x="315" y="-574" font-family="Helvetica,sans-Serif" font-size="10.00" fill="#000000">JS_CallConstructorInternal</text>
</a>
</g>
</g>
<!-- Node44774&#45;&gt;Node44880 -->
<g id="edge33" class="edge">
<title>Node44774&#45;&gt;Node44880</title>
<path fill="none" stroke="#191970" d="M212.4784,-544.7934C240.8957,-551.0193 274.542,-559.8951 295.3308,-566.958"/>
<polygon fill="#191970" stroke="#191970" points="213.1839,-541.3653 202.6746,-542.7091 211.7281,-548.2122 213.1839,-541.3653"/>
</g>
<!-- Node44894 -->
<g id="node29" class="node">
<title>Node44894</title>
<g id="a_node29"><a xlink:href="quickjs_8c.html#a75f6ee5e4235a7dc99889f3d2eb2c147" target="_top" xlink:title="JS_CallFree">
<polygon fill="none" stroke="#ff0000" points="279.5,-491 279.5,-510 350.5,-510 350.5,-491 279.5,-491"/>
<text text-anchor="middle" x="315" y="-498" font-family="Helvetica,sans-Serif" font-size="10.00" fill="#000000">JS_CallFree</text>
</a>
</g>
</g>
<!-- Node44774&#45;&gt;Node44894 -->
<g id="edge35" class="edge">
<title>Node44774&#45;&gt;Node44894</title>
<path fill="none" stroke="#191970" d="M190.595,-525.7455C215.9254,-517.8876 252.4597,-508.7581 279.3867,-503.4923"/>
<polygon fill="#191970" stroke="#191970" points="189.2553,-522.5002 180.8175,-528.9076 191.4094,-529.1606 189.2553,-522.5002"/>
</g>
<!-- Node44776 -->
<g id="node4" class="node">
<title>Node44776</title>
<g id="a_node4"><a xlink:href="quickjs_8c.html#ac90552b1f1659acb3dae9a4c62479a30" target="_top" xlink:title="js_generator_function_call">
<polygon fill="none" stroke="#ff0000" points="419.5,-50 419.5,-69 549.5,-69 549.5,-50 419.5,-50"/>
<text text-anchor="middle" x="484.5" y="-57" font-family="Helvetica,sans-Serif" font-size="10.00" fill="#000000">js_generator_function_call</text>
</a>
</g>
</g>
<!-- Node44775&#45;&gt;Node44776 -->
<g id="edge3" class="edge">
<title>Node44775&#45;&gt;Node44776</title>
<path fill="none" stroke="#191970" d="M361.4651,-91.4383C388.6496,-84.3815 422.4877,-75.5976 447.7928,-69.0287"/>
<polygon fill="#191970" stroke="#191970" points="360.5787,-88.0523 351.779,-93.9527 362.3376,-94.8277 360.5787,-88.0523"/>
</g>
<!-- Node44785 -->
<g id="node5" class="node">
<title>Node44785</title>
<g id="a_node5"><a xlink:href="quickjs_8c.html#a1bf6b62983e8fff99c0a5d5a9f486115" target="_top" xlink:title="js_async_function_resume">
<polygon fill="none" stroke="#ff0000" points="418,-138 418,-157 551,-157 551,-138 418,-138"/>
<text text-anchor="middle" x="484.5" y="-145" font-family="Helvetica,sans-Serif" font-size="10.00" fill="#000000">js_async_function_resume</text>
</a>
</g>
</g>
<!-- Node44775&#45;&gt;Node44785 -->
<g id="edge4" class="edge">
<title>Node44775&#45;&gt;Node44785</title>
<path fill="none" stroke="#191970" d="M361.4651,-115.5617C388.6496,-122.6185 422.4877,-131.4024 447.7928,-137.9713"/>
<polygon fill="#191970" stroke="#191970" points="362.3376,-112.1723 351.779,-113.0473 360.5787,-118.9477 362.3376,-112.1723"/>
</g>
<!-- Node44792 -->
<g id="node6" class="node">
<title>Node44792</title>
<g id="a_node6"><a xlink:href="quickjs_8c.html#a89b019c704a2d2914bc30b30a72040b3" target="_top" xlink:title="js_async_generator\l_resume_next">
<polygon fill="none" stroke="#000000" points="434,-88.5 434,-118.5 535,-118.5 535,-88.5 434,-88.5"/>
<text text-anchor="start" x="442" y="-106.5" font-family="Helvetica,sans-Serif" font-size="10.00" fill="#000000">js_async_generator</text>
<text text-anchor="middle" x="484.5" y="-95.5" font-family="Helvetica,sans-Serif" font-size="10.00" fill="#000000">_resume_next</text>
</a>
</g>
</g>
<!-- Node44775&#45;&gt;Node44792 -->
<g id="edge5" class="edge">
<title>Node44775&#45;&gt;Node44792</title>
<path fill="none" stroke="#191970" d="M377.388,-103.5C395.9885,-103.5 416.1368,-103.5 433.8866,-103.5"/>
<polygon fill="#191970" stroke="#191970" points="377.2387,-100.0001 367.2387,-103.5 377.2386,-107.0001 377.2387,-100.0001"/>
</g>
<!-- Node44793 -->
<g id="node7" class="node">
<title>Node44793</title>
<g id="a_node7"><a xlink:href="quickjs_8c.html#ae19867da709929c072f05e90301835a4" target="_top" xlink:title="js_async_generator\l_function_call">
<polygon fill="none" stroke="#ff0000" points="434,-.5 434,-30.5 535,-30.5 535,-.5 434,-.5"/>
<text text-anchor="start" x="442" y="-18.5" font-family="Helvetica,sans-Serif" font-size="10.00" fill="#000000">js_async_generator</text>
<text text-anchor="middle" x="484.5" y="-7.5" font-family="Helvetica,sans-Serif" font-size="10.00" fill="#000000">_function_call</text>
</a>
</g>
</g>
<!-- Node44775&#45;&gt;Node44793 -->
<g id="edge6" class="edge">
<title>Node44775&#45;&gt;Node44793</title>
<path fill="none" stroke="#191970" d="M337.1366,-88.2606C357.5367,-74.6336 388.9583,-54.682 418,-40.5 425.204,-36.982 433.0369,-33.6388 440.7149,-30.6085"/>
<polygon fill="#191970" stroke="#191970" points="335.178,-85.3599 328.8476,-93.8555 339.0943,-91.1619 335.178,-85.3599"/>
</g>
<!-- Node44794&#45;&gt;Node44774 -->
<g id="edge14" class="edge">
<title>Node44794&#45;&gt;Node44774</title>
<path fill="none" stroke="#191970" d="M278.9508,-544.3176C256.1194,-545.4684 226.5133,-545.5539 202.6746,-544.5742"/>
<polygon fill="#191970" stroke="#191970" points="279.4702,-547.7925 289.2388,-543.6907 279.0444,-540.8055 279.4702,-547.7925"/>
</g>
<!-- Node44794&#45;&gt;Node44785 -->
<g id="edge15" class="edge">
<title>Node44794&#45;&gt;Node44785</title>
<path fill="none" stroke="#191970" d="M350.7391,-536.2337C362.3598,-533.6656 374.2467,-528.7416 382,-519.5 483.3595,-398.6845 316.7597,-287.4154 418,-166.5 421.2374,-162.6334 425.2026,-159.5241 429.5694,-157.0277"/>
<polygon fill="#191970" stroke="#191970" points="349.981,-532.8122 340.7061,-537.9334 351.1502,-539.7139 349.981,-532.8122"/>
</g>
<!-- Node44795 -->
<g id="node9" class="node">
<title>Node44795</title>
<g id="a_node9"><a xlink:href="structqjs_1_1js__traits_3_01std_1_1function_3_01R_07Args_8_8_8_08_4_01_4.html#ac449e51d3fe10c6c115596fa6ec278ee" target="_top" xlink:title="qjs::js_traits\&lt; std\l::function\&lt; R(Args...)\l\&gt; \&gt;::unwrap">
<polygon fill="none" stroke="#000000" points="430,-700 430,-741 539,-741 539,-700 430,-700"/>
<text text-anchor="start" x="438" y="-729" font-family="Helvetica,sans-Serif" font-size="10.00" fill="#000000">qjs::js_traits&lt; std</text>
<text text-anchor="start" x="438" y="-718" font-family="Helvetica,sans-Serif" font-size="10.00" fill="#000000">::function&lt; R(Args...)</text>
<text text-anchor="middle" x="484.5" y="-707" font-family="Helvetica,sans-Serif" font-size="10.00" fill="#000000">&gt; &gt;::unwrap</text>
</a>
</g>
</g>
<!-- Node44794&#45;&gt;Node44795 -->
<g id="edge8" class="edge">
<title>Node44794&#45;&gt;Node44795</title>
<path fill="none" stroke="#191970" d="M350.811,-541.7099C362.0853,-544.3864 373.7371,-549.1374 382,-557.5 425.0417,-601.0607 378.2841,-643.887 418,-690.5 421.3678,-694.4527 425.3626,-697.9088 429.6972,-700.926"/>
<polygon fill="#191970" stroke="#191970" points="351.1477,-538.2115 340.6713,-539.7909 349.846,-545.0894 351.1477,-538.2115"/>
</g>
<!-- Node44796 -->
<g id="node10" class="node">
<title>Node44796</title>
<g id="a_node10"><a xlink:href="quickjs-libc_8c.html#abb1cbe3fdf905e81f603a3a0bfce475a" target="_top" xlink:title="call_handler">
<polygon fill="none" stroke="#000000" points="450.5,-662 450.5,-681 518.5,-681 518.5,-662 450.5,-662"/>
<text text-anchor="middle" x="484.5" y="-669" font-family="Helvetica,sans-Serif" font-size="10.00" fill="#000000">call_handler</text>
</a>
</g>
</g>
<!-- Node44794&#45;&gt;Node44796 -->
<g id="edge9" class="edge">
<title>Node44794&#45;&gt;Node44796</title>
<path fill="none" stroke="#191970" d="M350.616,-542.2523C361.7749,-544.9737 373.406,-549.6143 382,-557.5 415.2688,-588.0271 384.7613,-621.9401 418,-652.5 426.839,-660.6267 438.9197,-665.3035 450.3607,-667.9857"/>
<polygon fill="#191970" stroke="#191970" points="351.0929,-538.7785 340.6014,-540.2546 349.7234,-545.6433 351.0929,-538.7785"/>
</g>
<!-- Node44797 -->
<g id="node11" class="node">
<title>Node44797</title>
<g id="a_node11"><a xlink:href="quickjs-libc_8c.html#a9fa4c190ba56314c7ed9b00bbc7ad0f9" target="_top" xlink:title="handle_posted_message">
<polygon fill="none" stroke="#000000" points="422,-624 422,-643 547,-643 547,-624 422,-624"/>
<text text-anchor="middle" x="484.5" y="-631" font-family="Helvetica,sans-Serif" font-size="10.00" fill="#000000">handle_posted_message</text>
</a>
</g>
</g>
<!-- Node44794&#45;&gt;Node44797 -->
<g id="edge10" class="edge">
<title>Node44794&#45;&gt;Node44797</title>
<path fill="none" stroke="#191970" d="M350.8711,-543.5924C361.6377,-546.3998 372.9734,-550.7525 382,-557.5 405.999,-575.4394 394.0187,-596.5369 418,-614.5 423.1895,-618.3871 429.1485,-621.4798 435.3216,-623.9402"/>
<polygon fill="#191970" stroke="#191970" points="351.3393,-540.1108 340.8168,-541.3466 349.8133,-546.9424 351.3393,-540.1108"/>
</g>
<!-- Node44798 -->
<g id="node12" class="node">
<title>Node44798</title>
<g id="a_node12"><a xlink:href="quickjs_8c.html#aa049793cc8648d35fe81876a2543ca4e" target="_top" xlink:title="JS_GetIterator2">
<polygon fill="none" stroke="#ff0000" points="441.5,-586 441.5,-605 527.5,-605 527.5,-586 441.5,-586"/>
<text text-anchor="middle" x="484.5" y="-593" font-family="Helvetica,sans-Serif" font-size="10.00" fill="#000000">JS_GetIterator2</text>
</a>
</g>
</g>
<!-- Node44794&#45;&gt;Node44798 -->
<g id="edge11" class="edge">
<title>Node44794&#45;&gt;Node44798</title>
<path fill="none" stroke="#191970" d="M350.4974,-547.0751C360.8067,-549.9637 371.9828,-553.4877 382,-557.5 398.7945,-564.2269 401.2121,-569.7565 418,-576.5 426.9135,-580.0804 436.7502,-583.2786 446.0626,-585.9837"/>
<polygon fill="#191970" stroke="#191970" points="351.1176,-543.6177 340.552,-544.4039 349.3018,-550.3781 351.1176,-543.6177"/>
</g>
<!-- Node44830 -->
<g id="node13" class="node">
<title>Node44830</title>
<g id="a_node13"><a xlink:href="quickjs_8c.html#ad6303fbd3add4afa0cb64b0aa6d431ce" target="_top" xlink:title="JS_IteratorNext2">
<polygon fill="none" stroke="#ff0000" points="439,-548 439,-567 530,-567 530,-548 439,-548"/>
<text text-anchor="middle" x="484.5" y="-555" font-family="Helvetica,sans-Serif" font-size="10.00" fill="#000000">JS_IteratorNext2</text>
</a>
</g>
</g>
<!-- Node44794&#45;&gt;Node44830 -->
<g id="edge12" class="edge">
<title>Node44794&#45;&gt;Node44830</title>
<path fill="none" stroke="#191970" d="M350.7652,-542.5091C376.3645,-545.3786 411.0438,-549.266 438.6727,-552.363"/>
<polygon fill="#191970" stroke="#191970" points="351.0711,-539.0215 340.7434,-541.3857 350.2912,-545.978 351.0711,-539.0215"/>
</g>
<!-- Node44834 -->
<g id="node14" class="node">
<title>Node44834</title>
<g id="a_node14"><a xlink:href="quickjs_8c.html#afd4ef2d701fa0702f321925b61c57bbf" target="_top" xlink:title="js_call_bound_function">
<polygon fill="none" stroke="#ff0000" points="426.5,-510 426.5,-529 542.5,-529 542.5,-510 426.5,-510"/>
<text text-anchor="middle" x="484.5" y="-517" font-family="Helvetica,sans-Serif" font-size="10.00" fill="#000000">js_call_bound_function</text>
</a>
</g>
</g>
<!-- Node44794&#45;&gt;Node44834 -->
<g id="edge13" class="edge">
<title>Node44794&#45;&gt;Node44834</title>
<path fill="none" stroke="#191970" d="M350.892,-534.4767C372.7298,-532.0288 401.1404,-528.8441 426.1455,-526.0412"/>
<polygon fill="#191970" stroke="#191970" points="350.2912,-531.022 340.7434,-535.6143 351.0711,-537.9785 350.2912,-531.022"/>
</g>
<!-- Node44835 -->
<g id="node15" class="node">
<title>Node44835</title>
<g id="a_node15"><a xlink:href="quickjs_8c.html#a3e852026d167fa03c673f86697dd3e67" target="_top" xlink:title="js_async_generator\l_resolve_or_reject">
<polygon fill="none" stroke="#ff0000" points="434,-460.5 434,-490.5 535,-490.5 535,-460.5 434,-460.5"/>
<text text-anchor="start" x="442" y="-478.5" font-family="Helvetica,sans-Serif" font-size="10.00" fill="#000000">js_async_generator</text>
<text text-anchor="middle" x="484.5" y="-467.5" font-family="Helvetica,sans-Serif" font-size="10.00" fill="#000000">_resolve_or_reject</text>
</a>
</g>
</g>
<!-- Node44794&#45;&gt;Node44835 -->
<g id="edge16" class="edge">
<title>Node44794&#45;&gt;Node44835</title>
<path fill="none" stroke="#191970" d="M350.4974,-529.9249C360.8067,-527.0363 371.9828,-523.5123 382,-519.5 398.7945,-512.7731 401.5,-507.9201 418,-500.5 425.6493,-497.0601 433.9269,-493.6837 441.9593,-490.5798"/>
<polygon fill="#191970" stroke="#191970" points="349.3018,-526.6219 340.552,-532.5961 351.1176,-533.3823 349.3018,-526.6219"/>
</g>
<!-- Node44838 -->
<g id="node16" class="node">
<title>Node44838</title>
<g id="a_node16"><a xlink:href="quickjs_8c.html#a2355fabf91f59212ea65baba1b0b7c1b" target="_top" xlink:title="js_async_generator_next">
<polygon fill="none" stroke="#000000" points="422,-422 422,-441 547,-441 547,-422 422,-422"/>
<text text-anchor="middle" x="484.5" y="-429" font-family="Helvetica,sans-Serif" font-size="10.00" fill="#000000">js_async_generator_next</text>
</a>
</g>
</g>
<!-- Node44794&#45;&gt;Node44838 -->
<g id="edge17" class="edge">
<title>Node44794&#45;&gt;Node44838</title>
<path fill="none" stroke="#191970" d="M350.5931,-533.9731C361.5557,-531.1963 373.0754,-526.7186 382,-519.5 408.5876,-497.9947 391.5833,-473.215 418,-451.5 423.3086,-447.1363 429.55,-443.7242 436.0456,-441.0565"/>
<polygon fill="#191970" stroke="#191970" points="349.8184,-530.5596 340.7724,-536.075 351.2835,-537.4045 349.8184,-530.5596"/>
</g>
<!-- Node44839 -->
<g id="node17" class="node">
<title>Node44839</title>
<g id="a_node17"><a xlink:href="quickjs_8c.html#adc0280beaa04d2b8fcaf05a82ab26c74" target="_top" xlink:title="js_link_module">
<polygon fill="none" stroke="#ff0000" points="444,-366 444,-385 525,-385 525,-366 444,-366"/>
<text text-anchor="middle" x="484.5" y="-373" font-family="Helvetica,sans-Serif" font-size="10.00" fill="#000000">js_link_module</text>
</a>
</g>
</g>
<!-- Node44794&#45;&gt;Node44839 -->
<g id="edge18" class="edge">
<title>Node44794&#45;&gt;Node44839</title>
<path fill="none" stroke="#191970" d="M350.7908,-534.9347C361.9619,-532.2263 373.5561,-527.5462 382,-519.5 418.3242,-484.8866 385.9147,-451.0754 418,-412.5 428.3072,-400.1078 443.8933,-391.1238 457.386,-385.114"/>
<polygon fill="#191970" stroke="#191970" points="349.8902,-531.5446 340.753,-536.9076 351.2403,-538.4132 349.8902,-531.5446"/>
</g>
<!-- Node44843 -->
<g id="node18" class="node">
<title>Node44843</title>
<g id="a_node18"><a xlink:href="quickjs_8c.html#a6357b7fdae71c70c140e78e6c20cb5c2" target="_top" xlink:title="js_dynamic_import_job">
<polygon fill="none" stroke="#ff0000" points="426.5,-328 426.5,-347 542.5,-347 542.5,-328 426.5,-328"/>
<text text-anchor="middle" x="484.5" y="-335" font-family="Helvetica,sans-Serif" font-size="10.00" fill="#000000">js_dynamic_import_job</text>
</a>
</g>
</g>
<!-- Node44794&#45;&gt;Node44843 -->
<g id="edge20" class="edge">
<title>Node44794&#45;&gt;Node44843</title>
<path fill="none" stroke="#191970" d="M350.4255,-535.6542C361.9091,-533.0244 373.7893,-528.2097 382,-519.5 432.8914,-465.5161 367.1619,-410.5341 418,-356.5 421.6202,-352.6522 425.9605,-349.5658 430.6663,-347.0927"/>
<polygon fill="#191970" stroke="#191970" points="349.7538,-532.2188 340.5381,-537.4457 351.0019,-539.1067 349.7538,-532.2188"/>
</g>
<!-- Node44794&#45;&gt;Node44847 -->
<g id="edge21" class="edge">
<title>Node44794&#45;&gt;Node44847</title>
<path fill="none" stroke="#191970" d="M350.7775,-540.7342C362.4017,-543.2994 374.281,-548.2297 382,-557.5 436.4176,-622.8542 363.6469,-873.0922 418,-938.5 423.295,-944.872 430.5668,-949.1894 438.3649,-952.0968"/>
<polygon fill="#191970" stroke="#191970" points="351.182,-537.253 340.7389,-539.0392 350.0165,-544.1554 351.182,-537.253"/>
</g>
<!-- Node44850 -->
<g id="node20" class="node">
<title>Node44850</title>
<g id="a_node20"><a xlink:href="quickjs_8c.html#a677ad630a103e1f3d5129e0549112b50" target="_top" xlink:title="js_function_call">
<polygon fill="none" stroke="#000000" points="442.5,-290 442.5,-309 526.5,-309 526.5,-290 442.5,-290"/>
<text text-anchor="middle" x="484.5" y="-297" font-family="Helvetica,sans-Serif" font-size="10.00" fill="#000000">js_function_call</text>
</a>
</g>
</g>
<!-- Node44794&#45;&gt;Node44850 -->
<g id="edge23" class="edge">
<title>Node44794&#45;&gt;Node44850</title>
<path fill="none" stroke="#191970" d="M350.6246,-535.8382C362.1255,-533.2244 373.9657,-528.3727 382,-519.5 442.9161,-452.2268 357.1503,-385.8332 418,-318.5 424.36,-311.4624 433.1274,-306.9589 442.2109,-304.0958"/>
<polygon fill="#191970" stroke="#191970" points="349.9407,-532.4048 340.7092,-537.6038 351.168,-539.2964 349.9407,-532.4048"/>
</g>
<!-- Node44801 -->
<g id="node21" class="node">
<title>Node44801</title>
<g id="a_node21"><a xlink:href="quickjs_8c.html#a5e32da9a43002cb96dcbd62a1a340144" target="_top" xlink:title="js_array_from">
<polygon fill="none" stroke="#000000" points="446.5,-252 446.5,-271 522.5,-271 522.5,-252 446.5,-252"/>
<text text-anchor="middle" x="484.5" y="-259" font-family="Helvetica,sans-Serif" font-size="10.00" fill="#000000">js_array_from</text>
</a>
</g>
</g>
<!-- Node44794&#45;&gt;Node44801 -->
<g id="edge24" class="edge">
<title>Node44794&#45;&gt;Node44801</title>
<path fill="none" stroke="#191970" d="M350.7642,-535.9628C362.2773,-533.3599 374.0895,-528.4832 382,-519.5 452.9917,-438.8815 347.0878,-361.1885 418,-280.5 425.213,-272.2926 435.7008,-267.5194 446.2238,-264.7759"/>
<polygon fill="#191970" stroke="#191970" points="350.0713,-532.5309 340.8292,-537.711 351.2845,-539.425 350.0713,-532.5309"/>
</g>
<!-- Node44827 -->
<g id="node22" class="node">
<title>Node44827</title>
<g id="a_node22"><a xlink:href="quickjs_8c.html#aa0bbf08a7e91459c68a312fba7016c6d" target="_top" xlink:title="js_array_every">
<polygon fill="none" stroke="#000000" points="444.5,-214 444.5,-233 524.5,-233 524.5,-214 444.5,-214"/>
<text text-anchor="middle" x="484.5" y="-221" font-family="Helvetica,sans-Serif" font-size="10.00" fill="#000000">js_array_every</text>
</a>
</g>
</g>
<!-- Node44794&#45;&gt;Node44827 -->
<g id="edge25" class="edge">
<title>Node44794&#45;&gt;Node44827</title>
<path fill="none" stroke="#191970" d="M350.5974,-536.1132C362.205,-533.5339 374.1198,-528.6337 382,-519.5 463.0973,-425.5023 336.9954,-336.5777 418,-242.5 424.7377,-234.6749 434.4533,-229.9631 444.3857,-227.1559"/>
<polygon fill="#191970" stroke="#191970" points="349.8494,-532.6903 340.585,-537.8304 351.0328,-539.5895 349.8494,-532.6903"/>
</g>
<!-- Node44851 -->
<g id="node23" class="node">
<title>Node44851</title>
<g id="a_node23"><a xlink:href="quickjs_8c.html#a36c1692489542a86dd79a7d39ab8ff95" target="_top" xlink:title="js_array_reduce">
<polygon fill="none" stroke="#000000" points="441.5,-910 441.5,-929 527.5,-929 527.5,-910 441.5,-910"/>
<text text-anchor="middle" x="484.5" y="-917" font-family="Helvetica,sans-Serif" font-size="10.00" fill="#000000">js_array_reduce</text>
</a>
</g>
</g>
<!-- Node44794&#45;&gt;Node44851 -->
<g id="edge26" class="edge">
<title>Node44794&#45;&gt;Node44851</title>
<path fill="none" stroke="#191970" d="M350.7239,-540.779C362.3432,-543.3483 374.2331,-548.2698 382,-557.5 480.6907,-674.7836 319.425,-783.1191 418,-900.5 424.023,-907.672 432.5492,-912.2374 441.4941,-915.1188"/>
<polygon fill="#191970" stroke="#191970" points="351.1376,-537.2993 340.6931,-539.0775 349.9669,-544.2007 351.1376,-537.2993"/>
</g>
<!-- Node44852 -->
<g id="node24" class="node">
<title>Node44852</title>
<g id="a_node24"><a xlink:href="quickjs_8c.html#a9dd41b086da4e13b3487cc9c6e2af2b8" target="_top" xlink:title="js_array_find">
<polygon fill="none" stroke="#000000" points="448.5,-872 448.5,-891 520.5,-891 520.5,-872 448.5,-872"/>
<text text-anchor="middle" x="484.5" y="-879" font-family="Helvetica,sans-Serif" font-size="10.00" fill="#000000">js_array_find</text>
</a>
</g>
</g>
<!-- Node44794&#45;&gt;Node44852 -->
<g id="edge27" class="edge">
<title>Node44794&#45;&gt;Node44852</title>
<path fill="none" stroke="#191970" d="M350.6575,-540.8353C362.2706,-543.4098 374.1736,-548.3202 382,-557.5 470.5561,-661.3707 329.5464,-758.542 418,-862.5 425.6253,-871.4619 437.1578,-876.3467 448.4885,-878.9627"/>
<polygon fill="#191970" stroke="#191970" points="351.0826,-537.3573 340.6363,-539.1256 349.9052,-544.2576 351.0826,-537.3573"/>
</g>
<!-- Node44853 -->
<g id="node25" class="node">
<title>Node44853</title>
<g id="a_node25"><a xlink:href="quickjs_8c.html#ad90c33b4aae1181151bda4a98ac2ef23" target="_top" xlink:title="JS_FlattenIntoArray">
<polygon fill="none" stroke="#ff0000" points="432.5,-816 432.5,-835 536.5,-835 536.5,-816 432.5,-816"/>
<text text-anchor="middle" x="484.5" y="-823" font-family="Helvetica,sans-Serif" font-size="10.00" fill="#000000">JS_FlattenIntoArray</text>
</a>
</g>
</g>
<!-- Node44794&#45;&gt;Node44853 -->
<g id="edge28" class="edge">
<title>Node44794&#45;&gt;Node44853</title>
<path fill="none" stroke="#191970" d="M350.5244,-540.9502C362.1253,-543.5354 374.0545,-548.4231 382,-557.5 455.6487,-641.6367 344.4343,-722.2908 418,-806.5 421.9498,-811.0213 426.8935,-814.5012 432.2921,-817.1741"/>
<polygon fill="#191970" stroke="#191970" points="350.9723,-537.4759 340.5226,-539.2238 349.7815,-544.3739 350.9723,-537.4759"/>
</g>
<!-- Node44855 -->
<g id="node26" class="node">
<title>Node44855</title>
<g id="a_node26"><a xlink:href="quickjs_8c.html#aed1bf9ce4b9e3a82388679dd6ec7635b" target="_top" xlink:title="js_string_replace">
<polygon fill="none" stroke="#000000" points="439.5,-176 439.5,-195 529.5,-195 529.5,-176 439.5,-176"/>
<text text-anchor="middle" x="484.5" y="-183" font-family="Helvetica,sans-Serif" font-size="10.00" fill="#000000">js_string_replace</text>
</a>
</g>
</g>
<!-- Node44794&#45;&gt;Node44855 -->
<g id="edge30" class="edge">
<title>Node44794&#45;&gt;Node44855</title>
<path fill="none" stroke="#191970" d="M350.6765,-536.1809C362.2914,-533.6079 374.1906,-528.6943 382,-519.5 473.222,-412.101 326.884,-311.989 418,-204.5 423.5901,-197.9054 431.296,-193.5173 439.4854,-190.6162"/>
<polygon fill="#191970" stroke="#191970" points="349.9229,-532.7587 340.6526,-537.8882 351.0983,-539.6593 349.9229,-532.7587"/>
</g>
<!-- Node44856 -->
<g id="node27" class="node">
<title>Node44856</title>
<g id="a_node27"><a xlink:href="quickjs_8c.html#a624282391413d4c5a030adbd8b77aa80" target="_top" xlink:title="internalize_json_property">
<polygon fill="none" stroke="#ff0000" points="422,-760 422,-779 547,-779 547,-760 422,-760"/>
<text text-anchor="middle" x="484.5" y="-767" font-family="Helvetica,sans-Serif" font-size="10.00" fill="#000000">internalize_json_property</text>
</a>
</g>
</g>
<!-- Node44794&#45;&gt;Node44856 -->
<g id="edge31" class="edge">
<title>Node44794&#45;&gt;Node44856</title>
<path fill="none" stroke="#191970" d="M350.5887,-541.1945C362.0865,-543.8111 373.9339,-548.6562 382,-557.5 440.8004,-621.9697 359.2632,-685.9723 418,-750.5 421.4755,-754.3181 425.6596,-757.3897 430.2163,-759.8577"/>
<polygon fill="#191970" stroke="#191970" points="351.138,-537.7373 340.6784,-539.4242 349.9071,-544.6282 351.138,-537.7373"/>
</g>
<!-- Node44839&#45;&gt;Node44839 -->
<g id="edge19" class="edge">
<title>Node44839&#45;&gt;Node44839</title>
<path fill="none" stroke="#191970" d="M453.0629,-393.7746C453.9592,-399.241 464.4382,-403.5 484.5,-403.5 514.3594,-403.5 522.9906,-394.0653 510.3937,-385.2571"/>
<polygon fill="#191970" stroke="#191970" points="456.085,-395.5475 458.6063,-385.2571 450.2181,-391.7291 456.085,-395.5475"/>
</g>
<!-- Node44847&#45;&gt;Node44774 -->
<g id="edge22" class="edge">
<title>Node44847&#45;&gt;Node44774</title>
<path fill="none" stroke="#191970" d="M429.054,-945.1722C425.1426,-943.2597 421.4056,-941.0509 418,-938.5 394.0187,-920.5369 398.1145,-906.7607 382,-881.5 297.4221,-748.9179 193.3389,-588.342 167.1836,-548.0277"/>
<polygon fill="#191970" stroke="#191970" points="427.8489,-948.4623 438.4234,-949.1184 430.566,-942.0112 427.8489,-948.4623"/>
</g>
<!-- Node44853&#45;&gt;Node44853 -->
<g id="edge29" class="edge">
<title>Node44853&#45;&gt;Node44853</title>
<path fill="none" stroke="#191970" d="M453.0629,-843.7746C453.9592,-849.241 464.4382,-853.5 484.5,-853.5 514.3594,-853.5 522.9906,-844.0653 510.3937,-835.2571"/>
<polygon fill="#191970" stroke="#191970" points="456.085,-845.5475 458.6063,-835.2571 450.2181,-841.7291 456.085,-845.5475"/>
</g>
<!-- Node44856&#45;&gt;Node44856 -->
<g id="edge32" class="edge">
<title>Node44856&#45;&gt;Node44856</title>
<path fill="none" stroke="#191970" d="M453.0629,-787.7746C453.9592,-793.241 464.4382,-797.5 484.5,-797.5 514.3594,-797.5 522.9906,-788.0653 510.3937,-779.2571"/>
<polygon fill="#191970" stroke="#191970" points="456.085,-789.5475 458.6063,-779.2571 450.2181,-785.7291 456.085,-789.5475"/>
</g>
<!-- Node44880&#45;&gt;Node44774 -->
<g id="edge34" class="edge">
<title>Node44880&#45;&gt;Node44774</title>
<path fill="none" stroke="#191970" d="M239.3063,-564.5715C217.6686,-559.2609 195.8932,-553.2055 180.8175,-548.0924"/>
<polygon fill="#191970" stroke="#191970" points="238.6727,-568.0188 249.2138,-566.953 240.3088,-561.2127 238.6727,-568.0188"/>
</g>
<!-- Node44894&#45;&gt;Node44774 -->
<g id="edge36" class="edge">
<title>Node44894&#45;&gt;Node44774</title>
<path fill="none" stroke="#191970" d="M285.5966,-513.195C262.1097,-520.4914 228.9017,-528.8971 202.6746,-534.2909"/>
<polygon fill="#191970" stroke="#191970" points="286.8959,-516.4532 295.3308,-510.042 284.7389,-509.7939 286.8959,-516.4532"/>
</g>
<!-- Node44894&#45;&gt;Node44855 -->
<g id="edge37" class="edge">
<title>Node44894&#45;&gt;Node44855</title>
<path fill="none" stroke="#191970" d="M315.8642,-480.8428C319.271,-428.0542 336.0225,-281.9665 418,-204.5 423.9344,-198.8922 431.4081,-194.9229 439.1848,-192.1174"/>
<polygon fill="#191970" stroke="#191970" points="312.3661,-480.7142 315.3094,-490.892 319.3554,-481.1002 312.3661,-480.7142"/>
</g>
</g>
</svg>
        <g id="navigator" transform="translate(0 0)" fill="#404254">
                <rect fill="#f2f5e9" fill-opacity="0.5" stroke="#606060" stroke-width=".5" x="0" y="0" width="60" height="60"/>
                <use id="zoomplus" xlink:href="#zoomPlus" x="17" y="9" onmousedown="handleZoom(evt,'in')"/>
                <use id="zoomminus" xlink:href="#zoomMin" x="42" y="9" onmousedown="handleZoom(evt,'out')"/>
                <use id="reset" xlink:href="#resetDef" x="30" y="36" onmousedown="handleReset()"/>
                <g id="arrowUp" xlink:href="#dirArrow" transform="translate(30 24)" onmousedown="handlePan(0,-1)">
                  <use xlink:href="#rim" fill="#404040">
                        <set attributeName="fill" to="#808080" begin="arrowUp.mouseover" end="arrowUp.mouseout"/>
                  </use>
                  <path fill="none" stroke="white" stroke-width="1.5" d="M0,-3.0v7 M-2.5,-0.5L0,-3.0L2.5,-0.5"/>
                </g>
                <g id="arrowRight" xlink:href="#dirArrow" transform="rotate(90) translate(36 -43)" onmousedown="handlePan(1,0)">
                  <use xlink:href="#rim" fill="#404040">
                        <set attributeName="fill" to="#808080" begin="arrowRight.mouseover" end="arrowRight.mouseout"/>
                  </use>
                  <path fill="none" stroke="white" stroke-width="1.5" d="M0,-3.0v7 M-2.5,-0.5L0,-3.0L2.5,-0.5"/>
                </g>
                <g id="arrowDown" xlink:href="#dirArrow" transform="rotate(180) translate(-30 -48)" onmousedown="handlePan(0,1)">
                  <use xlink:href="#rim" fill="#404040">
                        <set attributeName="fill" to="#808080" begin="arrowDown.mouseover" end="arrowDown.mouseout"/>
                  </use>
                  <path fill="none" stroke="white" stroke-width="1.5" d="M0,-3.0v7 M-2.5,-0.5L0,-3.0L2.5,-0.5"/>
                </g>
                <g id="arrowLeft" xlink:href="#dirArrow" transform="rotate(270) translate(-36 17)" onmousedown="handlePan(-1,0)">
                  <use xlink:href="#rim" fill="#404040">
                        <set attributeName="fill" to="#808080" begin="arrowLeft.mouseover" end="arrowLeft.mouseout"/>
                  </use>
                  <path fill="none" stroke="white" stroke-width="1.5" d="M0,-3.0v7 M-2.5,-0.5L0,-3.0L2.5,-0.5"/>
                </g>
        </g>
        <svg viewBox="0 0 15 15" width="100%" height="30px" preserveAspectRatio="xMaxYMin meet">
         <g id="arrow_out" transform="scale(0.3 0.3)">
          <a xlink:href="quickjs_8c_a4956f45ffd2849b96dc051277264f87a_icgraph_org.svg" target="_base">
           <rect id="button" ry="5" rx="5" y="6" x="6" height="38" width="38"
                fill="#f2f5e9" fill-opacity="0.5" stroke="#606060" stroke-width="1.0"/>
           <path id="arrow"
             d="M 11.500037,31.436501 C 11.940474,20.09759 22.043105,11.32322 32.158766,21.979434 L 37.068811,17.246167 C 37.068811,17.246167 37.088388,32 37.088388,32 L 22.160133,31.978069 C 22.160133,31.978069 26.997745,27.140456 26.997745,27.140456 C 18.528582,18.264221 13.291696,25.230495 11.500037,31.436501 z"
             style="fill:#404040;"/>
          </a>
         </g>
        </svg>
</svg>
