<?xml version="1.0" encoding="UTF-8" standalone="no"?>
<!DOCTYPE svg PUBLIC "-//W3C//DTD SVG 1.1//EN"
 "http://www.w3.org/Graphics/SVG/1.1/DTD/svg11.dtd">
<!-- Generated by graphviz version 2.40.1 (20161225.0304)
 -->
<!-- Title: JS_AddIntrinsicRegExpCompiler Pages: 1 -->
<!--zoomable 788 -->
<svg id="main" version="1.1" xmlns="http://www.w3.org/2000/svg" xmlns:xlink="http://www.w3.org/1999/xlink" xml:space="preserve" onload="init(evt)">
<style type="text/css"><![CDATA[
.edge:hover path { stroke: red; }
.edge:hover polygon { stroke: red; fill: red; }
]]></style>
<script type="text/javascript"><![CDATA[
var edges = document.getElementsByTagName('g');
if (edges && edges.length) {
  for (var i=0;i<edges.length;i++) {
    if (edges[i].id.substr(0,4)=='edge') {
      edges[i].setAttribute('class','edge');
    }
  }
}
]]></script>
        <defs>
                <circle id="rim" cx="0" cy="0" r="7"/>
                <circle id="rim2" cx="0" cy="0" r="3.5"/>
                <g id="zoomPlus">
                        <use xlink:href="#rim" fill="#404040">
                                <set attributeName="fill" to="#808080" begin="zoomplus.mouseover" end="zoomplus.mouseout"/>
                        </use>
                        <path d="M-4,0h8M0,-4v8" fill="none" stroke="white" stroke-width="1.5" pointer-events="none"/>
                </g>
                <g id="zoomMin">
                        <use xlink:href="#rim" fill="#404040">
                                <set attributeName="fill" to="#808080" begin="zoomminus.mouseover" end="zoomminus.mouseout"/>
                        </use>
                        <path d="M-4,0h8" fill="none" stroke="white" stroke-width="1.5" pointer-events="none"/>
                </g>
                <g id="dirArrow">
                        <path fill="none" stroke="white" stroke-width="1.5" d="M0,-3.0v7 M-2.5,-0.5L0,-3.0L2.5,-0.5"/>
                </g>
               <g id="resetDef">
                       <use xlink:href="#rim2" fill="#404040">
                               <set attributeName="fill" to="#808080" begin="reset.mouseover" end="reset.mouseout"/>
                       </use>
               </g>
        </defs>

<script type="text/javascript">
var viewWidth = 939;
var viewHeight = 788;
var sectionId = 'dynsection-37';
</script>
<script xlink:href="svgpan.js"/>
<svg id="graph" class="graph">
<g id="viewport">
<title>JS_AddIntrinsicRegExpCompiler</title>
<!-- Node7817 -->
<g id="node1" class="node">
<title>Node7817</title>
<polygon fill="#bfbfbf" stroke="#000000" points="0,-646.5 0,-665.5 160,-665.5 160,-646.5 0,-646.5"/>
<text text-anchor="middle" x="80" y="-653.5" font-family="Helvetica,sans-Serif" font-size="10.00" fill="#000000">JS_AddIntrinsicRegExpCompiler</text>
</g>
<!-- Node7818 -->
<g id="node2" class="node">
<title>Node7818</title>
<g id="a_node2"><a xlink:href="quickjs_8c.html#ab0bd3fbfe9b7f004c067b103a6d60d03" target="_top" xlink:title="js_compile_regexp">
<polygon fill="none" stroke="#000000" points="196,-646.5 196,-665.5 294,-665.5 294,-646.5 196,-646.5"/>
<text text-anchor="middle" x="245" y="-653.5" font-family="Helvetica,sans-Serif" font-size="10.00" fill="#000000">js_compile_regexp</text>
</a>
</g>
</g>
<!-- Node7817&#45;&gt;Node7818 -->
<g id="edge1" class="edge">
<title>Node7817&#45;&gt;Node7818</title>
<path fill="none" stroke="#191970" d="M160.0833,-656C168.6277,-656 177.2068,-656 185.4534,-656"/>
<polygon fill="#191970" stroke="#191970" points="185.6937,-659.5001 195.6936,-656 185.6936,-652.5001 185.6937,-659.5001"/>
</g>
<!-- Node7819 -->
<g id="node3" class="node">
<title>Node7819</title>
<g id="a_node3"><a xlink:href="quickjs_8c.html#a80e54dcf9ac687d4ccc2f90273565f30" target="_top" xlink:title="js_free">
<polygon fill="none" stroke="#000000" points="354,-760.5 354,-779.5 400,-779.5 400,-760.5 354,-760.5"/>
<text text-anchor="middle" x="377" y="-767.5" font-family="Helvetica,sans-Serif" font-size="10.00" fill="#000000">js_free</text>
</a>
</g>
</g>
<!-- Node7818&#45;&gt;Node7819 -->
<g id="edge2" class="edge">
<title>Node7818&#45;&gt;Node7819</title>
<path fill="none" stroke="#191970" d="M251.3606,-665.6739C264.1707,-684.4867 294.8713,-726.3152 330,-751 334.3882,-754.0836 339.3504,-756.7757 344.3646,-759.088"/>
<polygon fill="#191970" stroke="#191970" points="343.357,-762.4596 353.9342,-763.0697 346.046,-755.9967 343.357,-762.4596"/>
</g>
<!-- Node7821 -->
<g id="node5" class="node">
<title>Node7821</title>
<g id="a_node5"><a xlink:href="quickjs_8c.html#ae0bc4f65da64810facb2cb9e476eda2e" target="_top" xlink:title="JS_FreeCString">
<polygon fill="none" stroke="#000000" points="334,-722.5 334,-741.5 420,-741.5 420,-722.5 334,-722.5"/>
<text text-anchor="middle" x="377" y="-729.5" font-family="Helvetica,sans-Serif" font-size="10.00" fill="#000000">JS_FreeCString</text>
</a>
</g>
</g>
<!-- Node7818&#45;&gt;Node7821 -->
<g id="edge4" class="edge">
<title>Node7818&#45;&gt;Node7821</title>
<path fill="none" stroke="#191970" d="M259.8403,-665.5586C276.6435,-676.2683 304.9455,-693.9667 330,-708 335.7703,-711.232 342.0235,-714.5496 348.0285,-717.6476"/>
<polygon fill="#191970" stroke="#191970" points="346.6555,-720.876 357.1555,-722.2911 349.8298,-714.637 346.6555,-720.876"/>
</g>
<!-- Node7858 -->
<g id="node7" class="node">
<title>Node7858</title>
<g id="a_node7"><a xlink:href="quickjs_8h.html#a4e407128a9605afb77523e49e9a627fd" target="_top" xlink:title="JS_IsUndefined">
<polygon fill="none" stroke="#000000" points="334,-570.5 334,-589.5 420,-589.5 420,-570.5 334,-570.5"/>
<text text-anchor="middle" x="377" y="-577.5" font-family="Helvetica,sans-Serif" font-size="10.00" fill="#000000">JS_IsUndefined</text>
</a>
</g>
</g>
<!-- Node7818&#45;&gt;Node7858 -->
<g id="edge6" class="edge">
<title>Node7818&#45;&gt;Node7858</title>
<path fill="none" stroke="#191970" d="M257.4468,-646.4502C273.5717,-634.3662 302.8417,-613.3968 330,-599 333.5722,-597.1064 337.3758,-595.2805 341.2127,-593.5591"/>
<polygon fill="#191970" stroke="#191970" points="342.877,-596.6546 350.706,-589.5162 340.1342,-590.2143 342.877,-596.6546"/>
</g>
<!-- Node7859 -->
<g id="node8" class="node">
<title>Node7859</title>
<g id="a_node8"><a xlink:href="quickjs_8c.html#aa923510185fe24e3083baf7405b09f51" target="_top" xlink:title="js_new_string8">
<polygon fill="none" stroke="#000000" points="336,-608.5 336,-627.5 418,-627.5 418,-608.5 336,-608.5"/>
<text text-anchor="middle" x="377" y="-615.5" font-family="Helvetica,sans-Serif" font-size="10.00" fill="#000000">js_new_string8</text>
</a>
</g>
</g>
<!-- Node7818&#45;&gt;Node7859 -->
<g id="edge7" class="edge">
<title>Node7818&#45;&gt;Node7859</title>
<path fill="none" stroke="#191970" d="M278.3092,-646.411C295.1928,-641.5506 315.8948,-635.5909 333.9705,-630.3873"/>
<polygon fill="#191970" stroke="#191970" points="335.06,-633.7158 343.7015,-627.5859 333.1235,-626.989 335.06,-633.7158"/>
</g>
<!-- Node7885 -->
<g id="node11" class="node">
<title>Node7885</title>
<g id="a_node11"><a xlink:href="quickjs_8h.html#a1e7f56471f8608df9405987087a56070" target="_top" xlink:title="JS_ToCStringLen">
<polygon fill="none" stroke="#000000" points="330,-646.5 330,-665.5 424,-665.5 424,-646.5 330,-646.5"/>
<text text-anchor="middle" x="377" y="-653.5" font-family="Helvetica,sans-Serif" font-size="10.00" fill="#000000">JS_ToCStringLen</text>
</a>
</g>
</g>
<!-- Node7818&#45;&gt;Node7885 -->
<g id="edge10" class="edge">
<title>Node7818&#45;&gt;Node7885</title>
<path fill="none" stroke="#191970" d="M294.1519,-656C302.4898,-656 311.2121,-656 319.7365,-656"/>
<polygon fill="#191970" stroke="#191970" points="319.9971,-659.5001 329.9971,-656 319.997,-652.5001 319.9971,-659.5001"/>
</g>
<!-- Node7886 -->
<g id="node12" class="node">
<title>Node7886</title>
<g id="a_node12"><a xlink:href="quickjs_8c.html#af49e67b73f845dc1f9c3ee648dd9f95c" target="_top" xlink:title="JS_ToCStringLen2">
<polygon fill="none" stroke="#ff0000" points="464,-684.5 464,-703.5 563,-703.5 563,-684.5 464,-684.5"/>
<text text-anchor="middle" x="513.5" y="-691.5" font-family="Helvetica,sans-Serif" font-size="10.00" fill="#000000">JS_ToCStringLen2</text>
</a>
</g>
</g>
<!-- Node7818&#45;&gt;Node7886 -->
<g id="edge14" class="edge">
<title>Node7818&#45;&gt;Node7886</title>
<path fill="none" stroke="#191970" d="M283.3206,-665.5634C297.8658,-668.9299 314.628,-672.4949 330,-675 370.9985,-681.6813 417.5546,-686.4695 453.5136,-689.5679"/>
<polygon fill="#191970" stroke="#191970" points="453.579,-693.0857 463.8372,-690.4363 454.1657,-686.1103 453.579,-693.0857"/>
</g>
<!-- Node8253 -->
<g id="node13" class="node">
<title>Node8253</title>
<g id="a_node13"><a xlink:href="libregexp_8h.html#a9f2d004d841acbf42a7cf0490258b5ab" target="_top" xlink:title="lre_compile">
<polygon fill="none" stroke="#000000" points="344,-304.5 344,-323.5 410,-323.5 410,-304.5 344,-304.5"/>
<text text-anchor="middle" x="377" y="-311.5" font-family="Helvetica,sans-Serif" font-size="10.00" fill="#000000">lre_compile</text>
</a>
</g>
</g>
<!-- Node7818&#45;&gt;Node8253 -->
<g id="edge15" class="edge">
<title>Node7818&#45;&gt;Node8253</title>
<path fill="none" stroke="#191970" d="M248.6682,-646.496C266.5777,-600.0942 344.9632,-397.0044 369.5771,-333.232"/>
<polygon fill="#191970" stroke="#191970" points="372.9514,-334.2097 373.287,-323.6201 366.4209,-331.6891 372.9514,-334.2097"/>
</g>
<!-- Node7820 -->
<g id="node4" class="node">
<title>Node7820</title>
<g id="a_node4"><a xlink:href="quickjs_8c.html#a69e19dda8a93d613203e0baa06f0ed8d" target="_top" xlink:title="js_free_rt">
<polygon fill="none" stroke="#000000" points="485,-760.5 485,-779.5 542,-779.5 542,-760.5 485,-760.5"/>
<text text-anchor="middle" x="513.5" y="-767.5" font-family="Helvetica,sans-Serif" font-size="10.00" fill="#000000">js_free_rt</text>
</a>
</g>
</g>
<!-- Node7819&#45;&gt;Node7820 -->
<g id="edge3" class="edge">
<title>Node7819&#45;&gt;Node7820</title>
<path fill="none" stroke="#191970" d="M400.1554,-770C420.4302,-770 450.3152,-770 474.3086,-770"/>
<polygon fill="#191970" stroke="#191970" points="474.5232,-773.5001 484.5232,-770 474.5231,-766.5001 474.5232,-773.5001"/>
</g>
<!-- Node7822 -->
<g id="node6" class="node">
<title>Node7822</title>
<g id="a_node6"><a xlink:href="quickjs_8h.html#afaa20c47565bc704c6c85f3d77254e7d" target="_top" xlink:title="JS_FreeValue">
<polygon fill="none" stroke="#ff0000" points="627.5,-703.5 627.5,-722.5 705.5,-722.5 705.5,-703.5 627.5,-703.5"/>
<text text-anchor="middle" x="666.5" y="-710.5" font-family="Helvetica,sans-Serif" font-size="10.00" fill="#000000">JS_FreeValue</text>
</a>
</g>
</g>
<!-- Node7821&#45;&gt;Node7822 -->
<g id="edge5" class="edge">
<title>Node7821&#45;&gt;Node7822</title>
<path fill="none" stroke="#191970" d="M420.0285,-729.176C472.7074,-725.7187 561.7315,-719.876 617.1411,-716.2394"/>
<polygon fill="#191970" stroke="#191970" points="617.6675,-719.7125 627.4168,-715.565 617.209,-712.7275 617.6675,-719.7125"/>
</g>
<!-- Node7860 -->
<g id="node9" class="node">
<title>Node7860</title>
<g id="a_node9"><a xlink:href="quickjs_8c.html#ad303a9bc56766627b5fca41574933930" target="_top" xlink:title="js_alloc_string">
<polygon fill="none" stroke="#ff0000" points="627,-646.5 627,-665.5 706,-665.5 706,-646.5 627,-646.5"/>
<text text-anchor="middle" x="666.5" y="-653.5" font-family="Helvetica,sans-Serif" font-size="10.00" fill="#000000">js_alloc_string</text>
</a>
</g>
</g>
<!-- Node7859&#45;&gt;Node7860 -->
<g id="edge8" class="edge">
<title>Node7859&#45;&gt;Node7860</title>
<path fill="none" stroke="#191970" d="M418.2692,-621.0612C456.8431,-624.1745 515.9856,-629.5936 567,-637 583.2754,-639.3629 600.9375,-642.5349 616.8014,-645.6095"/>
<polygon fill="#191970" stroke="#191970" points="616.4459,-649.1067 626.9339,-647.6064 617.7994,-642.2388 616.4459,-649.1067"/>
</g>
<!-- Node7864 -->
<g id="node10" class="node">
<title>Node7864</title>
<g id="a_node10"><a xlink:href="quickjs_8c.html#a260bfa297ff6cb5bd18e229afaa54663" target="_top" xlink:title="JS_AtomToString">
<polygon fill="none" stroke="#ff0000" points="466.5,-646.5 466.5,-665.5 560.5,-665.5 560.5,-646.5 466.5,-646.5"/>
<text text-anchor="middle" x="513.5" y="-653.5" font-family="Helvetica,sans-Serif" font-size="10.00" fill="#000000">JS_AtomToString</text>
</a>
</g>
</g>
<!-- Node7859&#45;&gt;Node7864 -->
<g id="edge9" class="edge">
<title>Node7859&#45;&gt;Node7864</title>
<path fill="none" stroke="#191970" d="M411.4447,-627.589C428.9847,-632.4719 450.51,-638.4643 469.2631,-643.685"/>
<polygon fill="#191970" stroke="#191970" points="468.494,-647.1039 479.0663,-646.4141 470.3713,-640.3603 468.494,-647.1039"/>
</g>
<!-- Node7885&#45;&gt;Node7886 -->
<g id="edge11" class="edge">
<title>Node7885&#45;&gt;Node7886</title>
<path fill="none" stroke="#191970" d="M411.4447,-665.589C428.9847,-670.4719 450.51,-676.4643 469.2631,-681.685"/>
<polygon fill="#191970" stroke="#191970" points="468.494,-685.1039 479.0663,-684.4141 470.3713,-678.3603 468.494,-685.1039"/>
</g>
<!-- Node7886&#45;&gt;Node7822 -->
<g id="edge13" class="edge">
<title>Node7886&#45;&gt;Node7822</title>
<path fill="none" stroke="#191970" d="M563.1747,-700.1688C580.3723,-702.3044 599.6408,-704.6972 616.8374,-706.8328"/>
<polygon fill="#191970" stroke="#191970" points="616.8848,-710.3654 627.24,-708.1246 617.7476,-703.4188 616.8848,-710.3654"/>
</g>
<!-- Node7886&#45;&gt;Node7860 -->
<g id="edge12" class="edge">
<title>Node7886&#45;&gt;Node7860</title>
<path fill="none" stroke="#191970" d="M552.1084,-684.411C572.2074,-679.4191 596.9751,-673.2676 618.3185,-667.9666"/>
<polygon fill="#191970" stroke="#191970" points="619.3078,-671.3274 628.1693,-665.5201 617.6204,-664.5338 619.3078,-671.3274"/>
</g>
<!-- Node8254 -->
<g id="node14" class="node">
<title>Node8254</title>
<g id="a_node14"><a xlink:href="libregexp_8c.html#a0a619a0b3bf0d0ec3aa0a9a59d610e1c" target="_top" xlink:title="__attribute__">
<polygon fill="none" stroke="#000000" points="767,-342.5 767,-361.5 840,-361.5 840,-342.5 767,-342.5"/>
<text text-anchor="middle" x="803.5" y="-349.5" font-family="Helvetica,sans-Serif" font-size="10.00" fill="#000000">__attribute__</text>
</a>
</g>
</g>
<!-- Node8253&#45;&gt;Node8254 -->
<g id="edge16" class="edge">
<title>Node8253&#45;&gt;Node8254</title>
<path fill="none" stroke="#191970" d="M393.2467,-323.5179C409.5574,-332.6126 435.6869,-345.9497 460,-353 575.5079,-386.495 610.6944,-386.1711 730,-371 741.2115,-369.5743 753.1587,-366.972 764.091,-364.1412"/>
<polygon fill="#191970" stroke="#191970" points="765.0628,-367.5041 773.7952,-361.5044 763.2273,-360.749 765.0628,-367.5041"/>
</g>
<!-- Node8255 -->
<g id="node15" class="node">
<title>Node8255</title>
<g id="a_node15"><a xlink:href="libregexp_8c.html#a09c49010ae229bc3a53575addc5f7c40" target="_top" xlink:title="compute_stack_size">
<polygon fill="none" stroke="#ff0000" points="460,-.5 460,-19.5 567,-19.5 567,-.5 460,-.5"/>
<text text-anchor="middle" x="513.5" y="-7.5" font-family="Helvetica,sans-Serif" font-size="10.00" fill="#000000">compute_stack_size</text>
</a>
</g>
</g>
<!-- Node8253&#45;&gt;Node8255 -->
<g id="edge17" class="edge">
<title>Node8253&#45;&gt;Node8255</title>
<path fill="none" stroke="#191970" d="M378.7588,-304.271C386.9481,-259.8753 422.5306,-76.8383 460,-34 463.2233,-30.3148 467.1237,-27.1673 471.3331,-24.4853"/>
<polygon fill="#191970" stroke="#191970" points="473.1788,-27.4657 480.2893,-19.6113 469.8327,-21.3172 473.1788,-27.4657"/>
</g>
<!-- Node7976 -->
<g id="node16" class="node">
<title>Node7976</title>
<g id="a_node16"><a xlink:href="cutils_8h.html#a1fed0a329cb7bb0e04283285037921a4" target="_top" xlink:title="dbuf_error">
<polygon fill="none" stroke="#000000" points="483.5,-570.5 483.5,-589.5 543.5,-589.5 543.5,-570.5 483.5,-570.5"/>
<text text-anchor="middle" x="513.5" y="-577.5" font-family="Helvetica,sans-Serif" font-size="10.00" fill="#000000">dbuf_error</text>
</a>
</g>
</g>
<!-- Node8253&#45;&gt;Node7976 -->
<g id="edge18" class="edge">
<title>Node8253&#45;&gt;Node7976</title>
<path fill="none" stroke="#191970" d="M377.3477,-323.56C379.1819,-359.8166 390.5461,-490.3503 460,-561 463.93,-564.9977 468.7544,-568.1568 473.8819,-570.6528"/>
<polygon fill="#191970" stroke="#191970" points="472.7281,-573.9615 483.3109,-574.467 475.3532,-567.4723 472.7281,-573.9615"/>
</g>
<!-- Node7977 -->
<g id="node17" class="node">
<title>Node7977</title>
<g id="a_node17"><a xlink:href="cutils_8h.html#a8a3b715fc2146312b777c4e3db546b55" target="_top" xlink:title="dbuf_free">
<polygon fill="none" stroke="#000000" points="485,-532.5 485,-551.5 542,-551.5 542,-532.5 485,-532.5"/>
<text text-anchor="middle" x="513.5" y="-539.5" font-family="Helvetica,sans-Serif" font-size="10.00" fill="#000000">dbuf_free</text>
</a>
</g>
</g>
<!-- Node8253&#45;&gt;Node7977 -->
<g id="edge19" class="edge">
<title>Node8253&#45;&gt;Node7977</title>
<path fill="none" stroke="#191970" d="M378.0544,-323.8829C382.0989,-356.9256 399.5649,-464.7479 460,-523 464.3644,-527.2068 469.7195,-530.4889 475.3374,-533.0478"/>
<polygon fill="#191970" stroke="#191970" points="474.3209,-536.4061 484.9114,-536.707 476.82,-529.8674 474.3209,-536.4061"/>
</g>
<!-- Node7989 -->
<g id="node18" class="node">
<title>Node7989</title>
<g id="a_node18"><a xlink:href="cutils_8h.html#a04e3983476063eb6fbab2fd74fc49fc6" target="_top" xlink:title="dbuf_init2">
<polygon fill="none" stroke="#ff0000" points="484,-494.5 484,-513.5 543,-513.5 543,-494.5 484,-494.5"/>
<text text-anchor="middle" x="513.5" y="-501.5" font-family="Helvetica,sans-Serif" font-size="10.00" fill="#000000">dbuf_init2</text>
</a>
</g>
</g>
<!-- Node8253&#45;&gt;Node7989 -->
<g id="edge20" class="edge">
<title>Node8253&#45;&gt;Node7989</title>
<path fill="none" stroke="#191970" d="M378.9829,-323.689C385.3751,-352.5076 408.1175,-438.562 460,-485 464.1771,-488.7387 469.1388,-491.754 474.3304,-494.1828"/>
<polygon fill="#191970" stroke="#191970" points="473.218,-497.507 483.8036,-497.9507 475.8052,-491.0026 473.218,-497.507"/>
</g>
<!-- Node7979 -->
<g id="node19" class="node">
<title>Node7979</title>
<g id="a_node19"><a xlink:href="cutils_8h.html#ad1cfaae47347ae771136b5a9bbda49aa" target="_top" xlink:title="dbuf_put">
<polygon fill="none" stroke="#ff0000" points="877,-171.5 877,-190.5 931,-190.5 931,-171.5 877,-171.5"/>
<text text-anchor="middle" x="904" y="-178.5" font-family="Helvetica,sans-Serif" font-size="10.00" fill="#000000">dbuf_put</text>
</a>
</g>
</g>
<!-- Node8253&#45;&gt;Node7979 -->
<g id="edge21" class="edge">
<title>Node8253&#45;&gt;Node7979</title>
<path fill="none" stroke="#191970" d="M396.0197,-304.4005C412.5689,-296.3783 437.3816,-285.1355 460,-278 624.8375,-225.9984 673.4182,-242.331 841,-200 849.5183,-197.8483 858.6042,-195.2747 867.148,-192.7268"/>
<polygon fill="#191970" stroke="#191970" points="868.312,-196.0312 876.8621,-189.7745 866.2764,-189.3337 868.312,-196.0312"/>
</g>
<!-- Node8256 -->
<g id="node20" class="node">
<title>Node8256</title>
<g id="a_node20"><a xlink:href="cutils_8h.html#a8ba08f82c43549fcb3c939229498354d" target="_top" xlink:title="dbuf_put_u32">
<polygon fill="none" stroke="#000000" points="766,-171.5 766,-190.5 841,-190.5 841,-171.5 766,-171.5"/>
<text text-anchor="middle" x="803.5" y="-178.5" font-family="Helvetica,sans-Serif" font-size="10.00" fill="#000000">dbuf_put_u32</text>
</a>
</g>
</g>
<!-- Node8253&#45;&gt;Node8256 -->
<g id="edge22" class="edge">
<title>Node8253&#45;&gt;Node8256</title>
<path fill="none" stroke="#191970" d="M380.3216,-304.284C389.0431,-280.4476 415.0743,-219.1204 460,-193 553.1737,-138.8275 685.8604,-155.1229 755.9243,-169.417"/>
<polygon fill="#191970" stroke="#191970" points="755.2874,-172.8597 765.795,-171.5028 756.7347,-166.0109 755.2874,-172.8597"/>
</g>
<!-- Node7978 -->
<g id="node21" class="node">
<title>Node7978</title>
<g id="a_node21"><a xlink:href="cutils_8h.html#aeed81d4787ccdbd55baa9b5fd6717e88" target="_top" xlink:title="dbuf_putc">
<polygon fill="none" stroke="#000000" points="774,-114.5 774,-133.5 833,-133.5 833,-114.5 774,-114.5"/>
<text text-anchor="middle" x="803.5" y="-121.5" font-family="Helvetica,sans-Serif" font-size="10.00" fill="#000000">dbuf_putc</text>
</a>
</g>
</g>
<!-- Node8253&#45;&gt;Node7978 -->
<g id="edge24" class="edge">
<title>Node8253&#45;&gt;Node7978</title>
<path fill="none" stroke="#191970" d="M378.7309,-304.3761C384.4195,-275.8628 405.3991,-191.5464 460,-155 553.7139,-92.2739 695.4492,-105.0618 763.8307,-116.2049"/>
<polygon fill="#191970" stroke="#191970" points="763.3195,-119.6682 773.7653,-117.8975 764.4953,-112.7676 763.3195,-119.6682"/>
</g>
<!-- Node8257 -->
<g id="node22" class="node">
<title>Node8257</title>
<g id="a_node22"><a xlink:href="quickjs_8c.html#a770bcb52221b07905a94fcb36ac192cd" target="_top" xlink:title="lre_realloc">
<polygon fill="none" stroke="#000000" points="483,-456.5 483,-475.5 544,-475.5 544,-456.5 483,-456.5"/>
<text text-anchor="middle" x="513.5" y="-463.5" font-family="Helvetica,sans-Serif" font-size="10.00" fill="#000000">lre_realloc</text>
</a>
</g>
</g>
<!-- Node8253&#45;&gt;Node8257 -->
<g id="edge26" class="edge">
<title>Node8253&#45;&gt;Node8257</title>
<path fill="none" stroke="#191970" d="M380.3919,-323.5703C389.4487,-347.7857 416.5114,-412.0434 460,-447 464.026,-450.2362 468.6457,-452.9436 473.4473,-455.2032"/>
<polygon fill="#191970" stroke="#191970" points="472.2157,-458.4807 482.7969,-459.0177 474.86,-451.9994 472.2157,-458.4807"/>
</g>
<!-- Node8258 -->
<g id="node23" class="node">
<title>Node8258</title>
<g id="a_node23"><a xlink:href="cutils_8h.html#adbfc0638ae78ec4076886d7cbc03d0e4" target="_top" xlink:title="pstrcpy">
<polygon fill="none" stroke="#000000" points="489,-418.5 489,-437.5 538,-437.5 538,-418.5 489,-418.5"/>
<text text-anchor="middle" x="513.5" y="-425.5" font-family="Helvetica,sans-Serif" font-size="10.00" fill="#000000">pstrcpy</text>
</a>
</g>
</g>
<!-- Node8253&#45;&gt;Node8258 -->
<g id="edge27" class="edge">
<title>Node8253&#45;&gt;Node8258</title>
<path fill="none" stroke="#191970" d="M383.7579,-323.5931C396.7501,-341.4566 426.8752,-380.1632 460,-404 466.0216,-408.3332 472.9503,-412.1442 479.7817,-415.3792"/>
<polygon fill="#191970" stroke="#191970" points="478.3813,-418.5868 488.9426,-419.4284 481.2113,-412.1843 478.3813,-418.5868"/>
</g>
<!-- Node8259 -->
<g id="node24" class="node">
<title>Node8259</title>
<g id="a_node24"><a xlink:href="cutils_8h.html#a3b6aba81e32ed70a2a851744e5a9cc9c" target="_top" xlink:title="put_u32">
<polygon fill="none" stroke="#000000" points="641,-266.5 641,-285.5 692,-285.5 692,-266.5 641,-266.5"/>
<text text-anchor="middle" x="666.5" y="-273.5" font-family="Helvetica,sans-Serif" font-size="10.00" fill="#000000">put_u32</text>
</a>
</g>
</g>
<!-- Node8253&#45;&gt;Node8259 -->
<g id="edge28" class="edge">
<title>Node8253&#45;&gt;Node8259</title>
<path fill="none" stroke="#191970" d="M410.3208,-305.3041C425.4002,-301.6455 443.5049,-297.6348 460,-295 519.5223,-285.4923 589.5138,-280.2941 630.8215,-277.8351"/>
<polygon fill="#191970" stroke="#191970" points="631.1483,-281.3222 640.931,-277.2542 630.7466,-274.3337 631.1483,-281.3222"/>
</g>
<!-- Node8260 -->
<g id="node25" class="node">
<title>Node8260</title>
<g id="a_node25"><a xlink:href="libregexp_8c.html#a9cfa82248f8e07e4f79304fb3c51b6ab" target="_top" xlink:title="re_emit_op">
<polygon fill="none" stroke="#000000" points="634,-76.5 634,-95.5 699,-95.5 699,-76.5 634,-76.5"/>
<text text-anchor="middle" x="666.5" y="-83.5" font-family="Helvetica,sans-Serif" font-size="10.00" fill="#000000">re_emit_op</text>
</a>
</g>
</g>
<!-- Node8253&#45;&gt;Node8260 -->
<g id="edge29" class="edge">
<title>Node8253&#45;&gt;Node8260</title>
<path fill="none" stroke="#191970" d="M377.6305,-304.276C380.3656,-270.8508 394.2542,-159.985 460,-110 507.046,-74.232 578.3925,-74.4015 623.7051,-79.1688"/>
<polygon fill="#191970" stroke="#191970" points="623.4567,-82.6635 633.7962,-80.3517 624.2718,-75.7111 623.4567,-82.6635"/>
</g>
<!-- Node8261 -->
<g id="node26" class="node">
<title>Node8261</title>
<g id="a_node26"><a xlink:href="libregexp_8c.html#ac72424cc4c3614e12582bb5684d5971e" target="_top" xlink:title="re_emit_op_u32">
<polygon fill="none" stroke="#000000" points="623.5,-190.5 623.5,-209.5 709.5,-209.5 709.5,-190.5 623.5,-190.5"/>
<text text-anchor="middle" x="666.5" y="-197.5" font-family="Helvetica,sans-Serif" font-size="10.00" fill="#000000">re_emit_op_u32</text>
</a>
</g>
</g>
<!-- Node8253&#45;&gt;Node8261 -->
<g id="edge31" class="edge">
<title>Node8253&#45;&gt;Node8261</title>
<path fill="none" stroke="#191970" d="M382.5999,-304.3074C394.2385,-285.1785 423.0612,-242.7995 460,-224 507.7946,-199.6756 569.6748,-195.5027 613.1879,-196.2831"/>
<polygon fill="#191970" stroke="#191970" points="613.1905,-199.7844 623.2822,-196.5585 613.3814,-192.787 613.1905,-199.7844"/>
</g>
<!-- Node8262 -->
<g id="node27" class="node">
<title>Node8262</title>
<g id="a_node27"><a xlink:href="libregexp_8c.html#a108e0185eb65a399b93d273b6b609da5" target="_top" xlink:title="re_emit_op_u8">
<polygon fill="none" stroke="#000000" points="626.5,-38.5 626.5,-57.5 706.5,-57.5 706.5,-38.5 626.5,-38.5"/>
<text text-anchor="middle" x="666.5" y="-45.5" font-family="Helvetica,sans-Serif" font-size="10.00" fill="#000000">re_emit_op_u8</text>
</a>
</g>
</g>
<!-- Node8253&#45;&gt;Node8262 -->
<g id="edge34" class="edge">
<title>Node8253&#45;&gt;Node8262</title>
<path fill="none" stroke="#191970" d="M378.9251,-304.2892C387.2811,-263.1524 421.7135,-103.9481 460,-73 503.7341,-37.6484 570.6709,-36.0545 616.3999,-40.23"/>
<polygon fill="#191970" stroke="#191970" points="616.0851,-43.716 626.3923,-41.2643 616.8058,-36.7532 616.0851,-43.716"/>
</g>
<!-- Node8263 -->
<g id="node28" class="node">
<title>Node8263</title>
<g id="a_node28"><a xlink:href="libregexp_8c.html#af445f369f2ccbbc81596e0fbed929b7e" target="_top" xlink:title="re_parse_disjunction">
<polygon fill="none" stroke="#ff0000" points="460.5,-304.5 460.5,-323.5 566.5,-323.5 566.5,-304.5 460.5,-304.5"/>
<text text-anchor="middle" x="513.5" y="-311.5" font-family="Helvetica,sans-Serif" font-size="10.00" fill="#000000">re_parse_disjunction</text>
</a>
</g>
</g>
<!-- Node8253&#45;&gt;Node8263 -->
<g id="edge36" class="edge">
<title>Node8253&#45;&gt;Node8263</title>
<path fill="none" stroke="#191970" d="M410.0428,-314C422.1696,-314 436.3385,-314 450.2308,-314"/>
<polygon fill="#191970" stroke="#191970" points="450.2644,-317.5001 460.2644,-314 450.2644,-310.5001 450.2644,-317.5001"/>
</g>
<!-- Node8284 -->
<g id="node29" class="node">
<title>Node8284</title>
<g id="a_node29"><a xlink:href="libregexp_8c.html#a93c827426ec4f4fcca04dd8c040c3250" target="_top" xlink:title="re_parse_out_of_memory">
<polygon fill="none" stroke="#000000" points="603,-342.5 603,-361.5 730,-361.5 730,-342.5 603,-342.5"/>
<text text-anchor="middle" x="666.5" y="-349.5" font-family="Helvetica,sans-Serif" font-size="10.00" fill="#000000">re_parse_out_of_memory</text>
</a>
</g>
</g>
<!-- Node8253&#45;&gt;Node8284 -->
<g id="edge42" class="edge">
<title>Node8253&#45;&gt;Node8284</title>
<path fill="none" stroke="#191970" d="M410.3208,-322.6959C425.4002,-326.3545 443.5049,-330.3652 460,-333 503.8241,-340.0002 553.3234,-344.6643 592.8713,-347.6189"/>
<polygon fill="#191970" stroke="#191970" points="592.7352,-351.1182 602.9625,-348.3521 593.2425,-344.1366 592.7352,-351.1182"/>
</g>
<!-- Node8256&#45;&gt;Node7979 -->
<g id="edge23" class="edge">
<title>Node8256&#45;&gt;Node7979</title>
<path fill="none" stroke="#191970" d="M841.2084,-181C849.5109,-181 858.3013,-181 866.5918,-181"/>
<polygon fill="#191970" stroke="#191970" points="866.7515,-184.5001 876.7515,-181 866.7515,-177.5001 866.7515,-184.5001"/>
</g>
<!-- Node7978&#45;&gt;Node7979 -->
<g id="edge25" class="edge">
<title>Node7978&#45;&gt;Node7979</title>
<path fill="none" stroke="#191970" d="M820.5485,-133.6693C836.3813,-142.6491 860.1739,-156.1434 878.3082,-166.4285"/>
<polygon fill="#191970" stroke="#191970" points="876.7782,-169.5845 887.2033,-171.4735 880.2317,-163.4956 876.7782,-169.5845"/>
</g>
<!-- Node8260&#45;&gt;Node7978 -->
<g id="edge30" class="edge">
<title>Node8260&#45;&gt;Node7978</title>
<path fill="none" stroke="#191970" d="M699.3149,-95.1019C718.7711,-100.4986 743.5561,-107.3732 764.0704,-113.0633"/>
<polygon fill="#191970" stroke="#191970" points="763.1842,-116.4496 773.7559,-115.7498 765.0552,-109.7043 763.1842,-116.4496"/>
</g>
<!-- Node8261&#45;&gt;Node8256 -->
<g id="edge32" class="edge">
<title>Node8261&#45;&gt;Node8256</title>
<path fill="none" stroke="#191970" d="M709.8477,-193.9883C724.4972,-191.9566 740.929,-189.6777 755.8905,-187.6028"/>
<polygon fill="#191970" stroke="#191970" points="756.5492,-191.045 765.9736,-186.2044 755.5875,-184.1114 756.5492,-191.045"/>
</g>
<!-- Node8261&#45;&gt;Node7978 -->
<g id="edge33" class="edge">
<title>Node8261&#45;&gt;Node7978</title>
<path fill="none" stroke="#191970" d="M683.8511,-190.3745C707.4243,-177.2975 749.7738,-153.8043 777.2475,-138.5634"/>
<polygon fill="#191970" stroke="#191970" points="779.243,-141.459 786.2897,-133.5473 775.8473,-135.3377 779.243,-141.459"/>
</g>
<!-- Node8262&#45;&gt;Node7978 -->
<g id="edge35" class="edge">
<title>Node8262&#45;&gt;Node7978</title>
<path fill="none" stroke="#191970" d="M706.6742,-57.5702C714.6155,-60.1362 722.735,-63.2622 730,-67 750.8855,-77.7456 771.7653,-94.6814 785.9035,-107.3042"/>
<polygon fill="#191970" stroke="#191970" points="783.6566,-109.9923 793.3979,-114.1585 788.3809,-104.8269 783.6566,-109.9923"/>
</g>
<!-- Node8263&#45;&gt;Node8254 -->
<g id="edge37" class="edge">
<title>Node8263&#45;&gt;Node8254</title>
<path fill="none" stroke="#191970" d="M566.755,-316.2153C610.7729,-318.6338 674.7791,-323.5067 730,-333 740.2291,-334.7585 751.1201,-337.2331 761.2978,-339.8168"/>
<polygon fill="#191970" stroke="#191970" points="760.6257,-343.2589 771.1868,-342.4143 762.4041,-336.4885 760.6257,-343.2589"/>
</g>
<!-- Node8263&#45;&gt;Node8259 -->
<g id="edge38" class="edge">
<title>Node8263&#45;&gt;Node8259</title>
<path fill="none" stroke="#191970" d="M552.1084,-304.411C576.3221,-298.3971 607.3117,-290.7004 630.9269,-284.8351"/>
<polygon fill="#191970" stroke="#191970" points="632.019,-288.1703 640.8805,-282.363 630.3316,-281.3767 632.019,-288.1703"/>
</g>
<!-- Node8263&#45;&gt;Node8261 -->
<g id="edge39" class="edge">
<title>Node8263&#45;&gt;Node8261</title>
<path fill="none" stroke="#191970" d="M526.2815,-304.4765C552.5408,-284.9108 612.8011,-240.0109 645.1103,-215.9374"/>
<polygon fill="#191970" stroke="#191970" points="647.5029,-218.5195 653.4305,-209.738 643.3205,-212.9063 647.5029,-218.5195"/>
</g>
<!-- Node8263&#45;&gt;Node8284 -->
<g id="edge40" class="edge">
<title>Node8263&#45;&gt;Node8284</title>
<path fill="none" stroke="#191970" d="M552.1084,-323.589C572.2074,-328.5809 596.9751,-334.7324 618.3185,-340.0334"/>
<polygon fill="#191970" stroke="#191970" points="617.6204,-343.4662 628.1693,-342.4799 619.3078,-336.6726 617.6204,-343.4662"/>
</g>
<!-- Node8284&#45;&gt;Node8254 -->
<g id="edge41" class="edge">
<title>Node8284&#45;&gt;Node8254</title>
<path fill="none" stroke="#191970" d="M730.1871,-352C739.1291,-352 748.181,-352 756.7293,-352"/>
<polygon fill="#191970" stroke="#191970" points="756.8653,-355.5001 766.8653,-352 756.8652,-348.5001 756.8653,-355.5001"/>
</g>
</g>
</svg>
        <g id="navigator" transform="translate(0 0)" fill="#404254">
                <rect fill="#f2f5e9" fill-opacity="0.5" stroke="#606060" stroke-width=".5" x="0" y="0" width="60" height="60"/>
                <use id="zoomplus" xlink:href="#zoomPlus" x="17" y="9" onmousedown="handleZoom(evt,'in')"/>
                <use id="zoomminus" xlink:href="#zoomMin" x="42" y="9" onmousedown="handleZoom(evt,'out')"/>
                <use id="reset" xlink:href="#resetDef" x="30" y="36" onmousedown="handleReset()"/>
                <g id="arrowUp" xlink:href="#dirArrow" transform="translate(30 24)" onmousedown="handlePan(0,-1)">
                  <use xlink:href="#rim" fill="#404040">
                        <set attributeName="fill" to="#808080" begin="arrowUp.mouseover" end="arrowUp.mouseout"/>
                  </use>
                  <path fill="none" stroke="white" stroke-width="1.5" d="M0,-3.0v7 M-2.5,-0.5L0,-3.0L2.5,-0.5"/>
                </g>
                <g id="arrowRight" xlink:href="#dirArrow" transform="rotate(90) translate(36 -43)" onmousedown="handlePan(1,0)">
                  <use xlink:href="#rim" fill="#404040">
                        <set attributeName="fill" to="#808080" begin="arrowRight.mouseover" end="arrowRight.mouseout"/>
                  </use>
                  <path fill="none" stroke="white" stroke-width="1.5" d="M0,-3.0v7 M-2.5,-0.5L0,-3.0L2.5,-0.5"/>
                </g>
                <g id="arrowDown" xlink:href="#dirArrow" transform="rotate(180) translate(-30 -48)" onmousedown="handlePan(0,1)">
                  <use xlink:href="#rim" fill="#404040">
                        <set attributeName="fill" to="#808080" begin="arrowDown.mouseover" end="arrowDown.mouseout"/>
                  </use>
                  <path fill="none" stroke="white" stroke-width="1.5" d="M0,-3.0v7 M-2.5,-0.5L0,-3.0L2.5,-0.5"/>
                </g>
                <g id="arrowLeft" xlink:href="#dirArrow" transform="rotate(270) translate(-36 17)" onmousedown="handlePan(-1,0)">
                  <use xlink:href="#rim" fill="#404040">
                        <set attributeName="fill" to="#808080" begin="arrowLeft.mouseover" end="arrowLeft.mouseout"/>
                  </use>
                  <path fill="none" stroke="white" stroke-width="1.5" d="M0,-3.0v7 M-2.5,-0.5L0,-3.0L2.5,-0.5"/>
                </g>
        </g>
        <svg viewBox="0 0 15 15" width="100%" height="30px" preserveAspectRatio="xMaxYMin meet">
         <g id="arrow_out" transform="scale(0.3 0.3)">
          <a xlink:href="quickjs_8h_aa24c64e9ce871601a39b40dbfee0deb4_cgraph_org.svg" target="_base">
           <rect id="button" ry="5" rx="5" y="6" x="6" height="38" width="38"
                fill="#f2f5e9" fill-opacity="0.5" stroke="#606060" stroke-width="1.0"/>
           <path id="arrow"
             d="M 11.500037,31.436501 C 11.940474,20.09759 22.043105,11.32322 32.158766,21.979434 L 37.068811,17.246167 C 37.068811,17.246167 37.088388,32 37.088388,32 L 22.160133,31.978069 C 22.160133,31.978069 26.997745,27.140456 26.997745,27.140456 C 18.528582,18.264221 13.291696,25.230495 11.500037,31.436501 z"
             style="fill:#404040;"/>
          </a>
         </g>
        </svg>
</svg>
