<?xml version="1.0" encoding="UTF-8" standalone="no"?>
<!DOCTYPE svg PUBLIC "-//W3C//DTD SVG 1.1//EN"
 "http://www.w3.org/Graphics/SVG/1.1/DTD/svg11.dtd">
<!-- Generated by graphviz version 2.40.1 (20161225.0304)
 -->
<!-- Title: js_iterator_get_value_done Pages: 1 -->
<!--zoomable 1013 -->
<svg id="main" version="1.1" xmlns="http://www.w3.org/2000/svg" xmlns:xlink="http://www.w3.org/1999/xlink" xml:space="preserve" onload="init(evt)">
<style type="text/css"><![CDATA[
.edge:hover path { stroke: red; }
.edge:hover polygon { stroke: red; fill: red; }
]]></style>
<script type="text/javascript"><![CDATA[
var edges = document.getElementsByTagName('g');
if (edges && edges.length) {
  for (var i=0;i<edges.length;i++) {
    if (edges[i].id.substr(0,4)=='edge') {
      edges[i].setAttribute('class','edge');
    }
  }
}
]]></script>
        <defs>
                <circle id="rim" cx="0" cy="0" r="7"/>
                <circle id="rim2" cx="0" cy="0" r="3.5"/>
                <g id="zoomPlus">
                        <use xlink:href="#rim" fill="#404040">
                                <set attributeName="fill" to="#808080" begin="zoomplus.mouseover" end="zoomplus.mouseout"/>
                        </use>
                        <path d="M-4,0h8M0,-4v8" fill="none" stroke="white" stroke-width="1.5" pointer-events="none"/>
                </g>
                <g id="zoomMin">
                        <use xlink:href="#rim" fill="#404040">
                                <set attributeName="fill" to="#808080" begin="zoomminus.mouseover" end="zoomminus.mouseout"/>
                        </use>
                        <path d="M-4,0h8" fill="none" stroke="white" stroke-width="1.5" pointer-events="none"/>
                </g>
                <g id="dirArrow">
                        <path fill="none" stroke="white" stroke-width="1.5" d="M0,-3.0v7 M-2.5,-0.5L0,-3.0L2.5,-0.5"/>
                </g>
               <g id="resetDef">
                       <use xlink:href="#rim2" fill="#404040">
                               <set attributeName="fill" to="#808080" begin="reset.mouseover" end="reset.mouseout"/>
                       </use>
               </g>
        </defs>

<script type="text/javascript">
var viewWidth = 599;
var viewHeight = 1013;
var sectionId = 'dynsection-823';
</script>
<script xlink:href="svgpan.js"/>
<svg id="graph" class="graph">
<g id="viewport">
<title>js_iterator_get_value_done</title>
<!-- Node288920 -->
<g id="node1" class="node">
<title>Node288920</title>
<polygon fill="#bfbfbf" stroke="#000000" points="0,-274.5 0,-293.5 133,-293.5 133,-274.5 0,-274.5"/>
<text text-anchor="middle" x="66.5" y="-281.5" font-family="Helvetica,sans-Serif" font-size="10.00" fill="#000000">js_iterator_get_value_done</text>
</g>
<!-- Node288921 -->
<g id="node2" class="node">
<title>Node288921</title>
<g id="a_node2"><a xlink:href="quickjs_8c.html#ac2894ff4edcdb4e6841bcce9c76081e3" target="_top" xlink:title="JS_CallInternal">
<polygon fill="none" stroke="#000000" points="169,-274.5 169,-293.5 252,-293.5 252,-274.5 169,-274.5"/>
<text text-anchor="middle" x="210.5" y="-281.5" font-family="Helvetica,sans-Serif" font-size="10.00" fill="#000000">JS_CallInternal</text>
</a>
</g>
</g>
<!-- Node288920&#45;&gt;Node288921 -->
<g id="edge1" class="edge">
<title>Node288920&#45;&gt;Node288921</title>
<path fill="none" stroke="#191970" d="M143.0737,-284C151.9687,-284 160.7702,-284 168.9323,-284"/>
<polygon fill="#191970" stroke="#191970" points="143.0204,-280.5001 133.0203,-284 143.0203,-287.5001 143.0204,-280.5001"/>
</g>
<!-- Node288921&#45;&gt;Node288921 -->
<g id="edge40" class="edge">
<title>Node288921&#45;&gt;Node288921</title>
<path fill="none" stroke="#191970" d="M183.6208,-302.6539C184.7444,-307.9368 193.7041,-312 210.5,-312 236.0938,-312 243.4919,-302.5653 232.6946,-293.7571"/>
<polygon fill="#191970" stroke="#191970" points="186.7433,-304.2361 188.3054,-293.7571 180.5494,-300.9747 186.7433,-304.2361"/>
</g>
<!-- Node288922 -->
<g id="node3" class="node">
<title>Node288922</title>
<g id="a_node3"><a xlink:href="quickjs_8c.html#ade71a22dc56e7371392393df663b28b3" target="_top" xlink:title="async_func_resume">
<polygon fill="none" stroke="#000000" points="303,-892.5 303,-911.5 407,-911.5 407,-892.5 303,-892.5"/>
<text text-anchor="middle" x="355" y="-899.5" font-family="Helvetica,sans-Serif" font-size="10.00" fill="#000000">async_func_resume</text>
</a>
</g>
</g>
<!-- Node288921&#45;&gt;Node288922 -->
<g id="edge2" class="edge">
<title>Node288921&#45;&gt;Node288922</title>
<path fill="none" stroke="#191970" d="M215.0805,-303.5901C237.6381,-400.0646 336.4849,-822.8142 352.7352,-892.3141"/>
<polygon fill="#191970" stroke="#191970" points="218.4547,-302.6478 212.7697,-293.7073 211.6385,-304.2416 218.4547,-302.6478"/>
</g>
<!-- Node288941 -->
<g id="node8" class="node">
<title>Node288941</title>
<g id="a_node8"><a xlink:href="quickjs_8c.html#a1a4c02a29525d5cb2085dd8bca3af350" target="_top" xlink:title="JS_Call">
<polygon fill="none" stroke="#ff0000" points="329.5,-366.5 329.5,-385.5 380.5,-385.5 380.5,-366.5 329.5,-366.5"/>
<text text-anchor="middle" x="355" y="-373.5" font-family="Helvetica,sans-Serif" font-size="10.00" fill="#000000">JS_Call</text>
</a>
</g>
</g>
<!-- Node288921&#45;&gt;Node288941 -->
<g id="edge7" class="edge">
<title>Node288921&#45;&gt;Node288941</title>
<path fill="none" stroke="#191970" d="M242.5346,-298.6777C275.4699,-317.7532 324.7662,-349.8516 345.3895,-366.3007"/>
<polygon fill="#191970" stroke="#191970" points="244.1399,-295.5643 233.7164,-293.6666 240.6814,-301.6503 244.1399,-295.5643"/>
</g>
<!-- Node289027 -->
<g id="node29" class="node">
<title>Node289027</title>
<g id="a_node29"><a xlink:href="quickjs_8c.html#ad35594576a14c10812efaf958c99af8a" target="_top" xlink:title="JS_CallConstructorInternal">
<polygon fill="none" stroke="#ff0000" points="288,-274.5 288,-293.5 422,-293.5 422,-274.5 288,-274.5"/>
<text text-anchor="middle" x="355" y="-281.5" font-family="Helvetica,sans-Serif" font-size="10.00" fill="#000000">JS_CallConstructorInternal</text>
</a>
</g>
</g>
<!-- Node288921&#45;&gt;Node289027 -->
<g id="edge34" class="edge">
<title>Node288921&#45;&gt;Node289027</title>
<path fill="none" stroke="#191970" d="M262.5209,-277.4909C270.7845,-277.2892 279.4321,-277.2142 287.9815,-277.2658"/>
<polygon fill="#191970" stroke="#191970" points="262.1798,-273.9998 252.2954,-277.814 262.401,-280.9963 262.1798,-273.9998"/>
</g>
<!-- Node289041 -->
<g id="node30" class="node">
<title>Node289041</title>
<g id="a_node30"><a xlink:href="quickjs_8c.html#a75f6ee5e4235a7dc99889f3d2eb2c147" target="_top" xlink:title="JS_CallFree">
<polygon fill="none" stroke="#ff0000" points="319.5,-91.5 319.5,-110.5 390.5,-110.5 390.5,-91.5 319.5,-91.5"/>
<text text-anchor="middle" x="355" y="-98.5" font-family="Helvetica,sans-Serif" font-size="10.00" fill="#000000">JS_CallFree</text>
</a>
</g>
</g>
<!-- Node288921&#45;&gt;Node289041 -->
<g id="edge36" class="edge">
<title>Node288921&#45;&gt;Node289041</title>
<path fill="none" stroke="#191970" d="M213.7023,-264.4197C221.2042,-229.2158 242.8044,-156.4964 288,-116 296.742,-108.167 308.2224,-102.8425 319.2049,-99.7033"/>
<polygon fill="#191970" stroke="#191970" points="210.2265,-263.9582 211.75,-274.4429 217.0974,-265.2965 210.2265,-263.9582"/>
</g>
<!-- Node288923 -->
<g id="node4" class="node">
<title>Node288923</title>
<g id="a_node4"><a xlink:href="quickjs_8c.html#ac90552b1f1659acb3dae9a4c62479a30" target="_top" xlink:title="js_generator_function_call">
<polygon fill="none" stroke="#ff0000" points="459.5,-985.5 459.5,-1004.5 589.5,-1004.5 589.5,-985.5 459.5,-985.5"/>
<text text-anchor="middle" x="524.5" y="-992.5" font-family="Helvetica,sans-Serif" font-size="10.00" fill="#000000">js_generator_function_call</text>
</a>
</g>
</g>
<!-- Node288922&#45;&gt;Node288923 -->
<g id="edge3" class="edge">
<title>Node288922&#45;&gt;Node288923</title>
<path fill="none" stroke="#191970" d="M373.4671,-918.3133C393.1641,-934.9499 425.8865,-960.4617 458,-976 465.782,-979.7654 474.4469,-982.9157 482.8825,-985.499"/>
<polygon fill="#191970" stroke="#191970" points="375.488,-915.4351 365.6226,-911.5717 370.9255,-920.7439 375.488,-915.4351"/>
</g>
<!-- Node288932 -->
<g id="node5" class="node">
<title>Node288932</title>
<g id="a_node5"><a xlink:href="quickjs_8c.html#a1bf6b62983e8fff99c0a5d5a9f486115" target="_top" xlink:title="js_async_function_resume">
<polygon fill="none" stroke="#ff0000" points="458,-848.5 458,-867.5 591,-867.5 591,-848.5 458,-848.5"/>
<text text-anchor="middle" x="524.5" y="-855.5" font-family="Helvetica,sans-Serif" font-size="10.00" fill="#000000">js_async_function_resume</text>
</a>
</g>
</g>
<!-- Node288922&#45;&gt;Node288932 -->
<g id="edge4" class="edge">
<title>Node288922&#45;&gt;Node288932</title>
<path fill="none" stroke="#191970" d="M401.4651,-889.9383C428.6496,-882.8815 462.4877,-874.0976 487.7928,-867.5287"/>
<polygon fill="#191970" stroke="#191970" points="400.5787,-886.5523 391.779,-892.4527 402.3376,-893.3277 400.5787,-886.5523"/>
</g>
<!-- Node288939 -->
<g id="node6" class="node">
<title>Node288939</title>
<g id="a_node6"><a xlink:href="quickjs_8c.html#a89b019c704a2d2914bc30b30a72040b3" target="_top" xlink:title="js_async_generator\l_resume_next">
<polygon fill="none" stroke="#000000" points="474,-936 474,-966 575,-966 575,-936 474,-936"/>
<text text-anchor="start" x="482" y="-954" font-family="Helvetica,sans-Serif" font-size="10.00" fill="#000000">js_async_generator</text>
<text text-anchor="middle" x="524.5" y="-943" font-family="Helvetica,sans-Serif" font-size="10.00" fill="#000000">_resume_next</text>
</a>
</g>
</g>
<!-- Node288922&#45;&gt;Node288939 -->
<g id="edge5" class="edge">
<title>Node288922&#45;&gt;Node288939</title>
<path fill="none" stroke="#191970" d="M397.9372,-914.4125C421.0226,-921.0862 449.6309,-929.3564 473.805,-936.3448"/>
<polygon fill="#191970" stroke="#191970" points="398.6623,-910.9789 388.0837,-911.564 396.7183,-917.7036 398.6623,-910.9789"/>
</g>
<!-- Node288940 -->
<g id="node7" class="node">
<title>Node288940</title>
<g id="a_node7"><a xlink:href="quickjs_8c.html#ae19867da709929c072f05e90301835a4" target="_top" xlink:title="js_async_generator\l_function_call">
<polygon fill="none" stroke="#ff0000" points="474,-887 474,-917 575,-917 575,-887 474,-887"/>
<text text-anchor="start" x="482" y="-905" font-family="Helvetica,sans-Serif" font-size="10.00" fill="#000000">js_async_generator</text>
<text text-anchor="middle" x="524.5" y="-894" font-family="Helvetica,sans-Serif" font-size="10.00" fill="#000000">_function_call</text>
</a>
</g>
</g>
<!-- Node288922&#45;&gt;Node288940 -->
<g id="edge6" class="edge">
<title>Node288922&#45;&gt;Node288940</title>
<path fill="none" stroke="#191970" d="M417.388,-902C435.9885,-902 456.1368,-902 473.8866,-902"/>
<polygon fill="#191970" stroke="#191970" points="417.2387,-898.5001 407.2387,-902 417.2386,-905.5001 417.2387,-898.5001"/>
</g>
<!-- Node288941&#45;&gt;Node288921 -->
<g id="edge14" class="edge">
<title>Node288941&#45;&gt;Node288921</title>
<path fill="none" stroke="#191970" d="M323.2443,-361.4837C290.24,-342.3885 240.5848,-310.0599 219.981,-293.5959"/>
<polygon fill="#191970" stroke="#191970" points="321.649,-364.6027 332.0736,-366.4945 325.104,-358.5148 321.649,-364.6027"/>
</g>
<!-- Node288941&#45;&gt;Node288932 -->
<g id="edge15" class="edge">
<title>Node288941&#45;&gt;Node288932</title>
<path fill="none" stroke="#191970" d="M356.7375,-395.7477C364.14,-475.5029 395.5618,-772.7381 458,-839 461.6232,-842.845 465.9653,-845.9296 470.6723,-848.4016"/>
<polygon fill="#191970" stroke="#191970" points="360.2073,-395.2551 355.8188,-385.6119 353.2359,-395.8871 360.2073,-395.2551"/>
</g>
<!-- Node288942 -->
<g id="node9" class="node">
<title>Node288942</title>
<g id="a_node9"><a xlink:href="structqjs_1_1js__traits_3_01std_1_1function_3_01R_07Args_8_8_8_08_4_01_4.html#ac449e51d3fe10c6c115596fa6ec278ee" target="_top" xlink:title="qjs::js_traits\&lt; std\l::function\&lt; R(Args...)\l\&gt; \&gt;::unwrap">
<polygon fill="none" stroke="#000000" points="470,-600.5 470,-641.5 579,-641.5 579,-600.5 470,-600.5"/>
<text text-anchor="start" x="478" y="-629.5" font-family="Helvetica,sans-Serif" font-size="10.00" fill="#000000">qjs::js_traits&lt; std</text>
<text text-anchor="start" x="478" y="-618.5" font-family="Helvetica,sans-Serif" font-size="10.00" fill="#000000">::function&lt; R(Args...)</text>
<text text-anchor="middle" x="524.5" y="-607.5" font-family="Helvetica,sans-Serif" font-size="10.00" fill="#000000">&gt; &gt;::unwrap</text>
</a>
</g>
</g>
<!-- Node288941&#45;&gt;Node288942 -->
<g id="edge8" class="edge">
<title>Node288941&#45;&gt;Node288942</title>
<path fill="none" stroke="#191970" d="M359.4623,-395.375C369.8697,-436.57 399.4328,-533.763 458,-591 461.5327,-594.4525 465.5324,-597.5493 469.7748,-600.3186"/>
<polygon fill="#191970" stroke="#191970" points="362.8332,-394.4238 357.0752,-385.5302 356.0303,-396.0734 362.8332,-394.4238"/>
</g>
<!-- Node288943 -->
<g id="node10" class="node">
<title>Node288943</title>
<g id="a_node10"><a xlink:href="quickjs-libc_8c.html#abb1cbe3fdf905e81f603a3a0bfce475a" target="_top" xlink:title="call_handler">
<polygon fill="none" stroke="#000000" points="490.5,-562.5 490.5,-581.5 558.5,-581.5 558.5,-562.5 490.5,-562.5"/>
<text text-anchor="middle" x="524.5" y="-569.5" font-family="Helvetica,sans-Serif" font-size="10.00" fill="#000000">call_handler</text>
</a>
</g>
</g>
<!-- Node288941&#45;&gt;Node288943 -->
<g id="edge9" class="edge">
<title>Node288941&#45;&gt;Node288943</title>
<path fill="none" stroke="#191970" d="M360.9669,-395.7267C373.0804,-432.3807 404.0815,-511.0638 458,-553 467.2883,-560.2242 479.2106,-564.7017 490.3889,-567.4768"/>
<polygon fill="#191970" stroke="#191970" points="364.173,-394.2588 357.8095,-385.7879 357.5016,-396.3783 364.173,-394.2588"/>
</g>
<!-- Node288944 -->
<g id="node11" class="node">
<title>Node288944</title>
<g id="a_node11"><a xlink:href="quickjs-libc_8c.html#a9fa4c190ba56314c7ed9b00bbc7ad0f9" target="_top" xlink:title="handle_posted_message">
<polygon fill="none" stroke="#000000" points="462,-524.5 462,-543.5 587,-543.5 587,-524.5 462,-524.5"/>
<text text-anchor="middle" x="524.5" y="-531.5" font-family="Helvetica,sans-Serif" font-size="10.00" fill="#000000">handle_posted_message</text>
</a>
</g>
</g>
<!-- Node288941&#45;&gt;Node288944 -->
<g id="edge10" class="edge">
<title>Node288941&#45;&gt;Node288944</title>
<path fill="none" stroke="#191970" d="M363.8132,-394.8068C378.8433,-424.8129 412.3,-483.3519 458,-515 463.6266,-518.8965 470.0444,-521.9998 476.6221,-524.4699"/>
<polygon fill="#191970" stroke="#191970" points="366.9551,-393.2643 359.4314,-385.8048 360.6611,-396.328 366.9551,-393.2643"/>
</g>
<!-- Node288945 -->
<g id="node12" class="node">
<title>Node288945</title>
<g id="a_node12"><a xlink:href="quickjs_8c.html#aa049793cc8648d35fe81876a2543ca4e" target="_top" xlink:title="JS_GetIterator2">
<polygon fill="none" stroke="#ff0000" points="481.5,-486.5 481.5,-505.5 567.5,-505.5 567.5,-486.5 481.5,-486.5"/>
<text text-anchor="middle" x="524.5" y="-493.5" font-family="Helvetica,sans-Serif" font-size="10.00" fill="#000000">JS_GetIterator2</text>
</a>
</g>
</g>
<!-- Node288941&#45;&gt;Node288945 -->
<g id="edge11" class="edge">
<title>Node288941&#45;&gt;Node288945</title>
<path fill="none" stroke="#191970" d="M368.3664,-393.7373C386.3204,-416.3395 420.3525,-455.0958 458,-477 465.161,-481.1665 473.2929,-484.4672 481.3519,-487.0663"/>
<polygon fill="#191970" stroke="#191970" points="370.9953,-391.4163 362.0957,-385.6676 365.4679,-395.7114 370.9953,-391.4163"/>
</g>
<!-- Node288977 -->
<g id="node13" class="node">
<title>Node288977</title>
<g id="a_node13"><a xlink:href="quickjs_8c.html#ad6303fbd3add4afa0cb64b0aa6d431ce" target="_top" xlink:title="JS_IteratorNext2">
<polygon fill="none" stroke="#ff0000" points="479,-448.5 479,-467.5 570,-467.5 570,-448.5 479,-448.5"/>
<text text-anchor="middle" x="524.5" y="-455.5" font-family="Helvetica,sans-Serif" font-size="10.00" fill="#000000">JS_IteratorNext2</text>
</a>
</g>
</g>
<!-- Node288941&#45;&gt;Node288977 -->
<g id="edge12" class="edge">
<title>Node288941&#45;&gt;Node288977</title>
<path fill="none" stroke="#191970" d="M376.4657,-391.5216C396.6737,-405.5409 428.2058,-425.922 458,-439 466.3559,-442.6678 475.6114,-445.8323 484.496,-448.4693"/>
<polygon fill="#191970" stroke="#191970" points="378.2159,-388.4733 368.0246,-385.577 374.1853,-394.1965 378.2159,-388.4733"/>
</g>
<!-- Node288981 -->
<g id="node14" class="node">
<title>Node288981</title>
<g id="a_node14"><a xlink:href="quickjs_8c.html#afd4ef2d701fa0702f321925b61c57bbf" target="_top" xlink:title="js_call_bound_function">
<polygon fill="none" stroke="#ff0000" points="466.5,-410.5 466.5,-429.5 582.5,-429.5 582.5,-410.5 466.5,-410.5"/>
<text text-anchor="middle" x="524.5" y="-417.5" font-family="Helvetica,sans-Serif" font-size="10.00" fill="#000000">js_call_bound_function</text>
</a>
</g>
</g>
<!-- Node288941&#45;&gt;Node288981 -->
<g id="edge13" class="edge">
<title>Node288941&#45;&gt;Node288981</title>
<path fill="none" stroke="#191970" d="M390.6969,-385.2665C419.2137,-392.669 459.0299,-403.0048 487.8058,-410.4747"/>
<polygon fill="#191970" stroke="#191970" points="391.302,-381.8076 380.7434,-382.6827 389.5432,-388.583 391.302,-381.8076"/>
</g>
<!-- Node288982 -->
<g id="node15" class="node">
<title>Node288982</title>
<g id="a_node15"><a xlink:href="quickjs_8c.html#a3e852026d167fa03c673f86697dd3e67" target="_top" xlink:title="js_async_generator\l_resolve_or_reject">
<polygon fill="none" stroke="#ff0000" points="474,-361 474,-391 575,-391 575,-361 474,-361"/>
<text text-anchor="start" x="482" y="-379" font-family="Helvetica,sans-Serif" font-size="10.00" fill="#000000">js_async_generator</text>
<text text-anchor="middle" x="524.5" y="-368" font-family="Helvetica,sans-Serif" font-size="10.00" fill="#000000">_resolve_or_reject</text>
</a>
</g>
</g>
<!-- Node288941&#45;&gt;Node288982 -->
<g id="edge16" class="edge">
<title>Node288941&#45;&gt;Node288982</title>
<path fill="none" stroke="#191970" d="M390.8847,-376C415.0145,-376 447.1716,-376 473.8919,-376"/>
<polygon fill="#191970" stroke="#191970" points="390.7434,-372.5001 380.7434,-376 390.7434,-379.5001 390.7434,-372.5001"/>
</g>
<!-- Node288985 -->
<g id="node16" class="node">
<title>Node288985</title>
<g id="a_node16"><a xlink:href="quickjs_8c.html#a2355fabf91f59212ea65baba1b0b7c1b" target="_top" xlink:title="js_async_generator_next">
<polygon fill="none" stroke="#000000" points="462,-322.5 462,-341.5 587,-341.5 587,-322.5 462,-322.5"/>
<text text-anchor="middle" x="524.5" y="-329.5" font-family="Helvetica,sans-Serif" font-size="10.00" fill="#000000">js_async_generator_next</text>
</a>
</g>
</g>
<!-- Node288941&#45;&gt;Node288985 -->
<g id="edge17" class="edge">
<title>Node288941&#45;&gt;Node288985</title>
<path fill="none" stroke="#191970" d="M390.6969,-366.7335C419.2137,-359.331 459.0299,-348.9952 487.8058,-341.5253"/>
<polygon fill="#191970" stroke="#191970" points="389.5432,-363.417 380.7434,-369.3173 391.302,-370.1924 389.5432,-363.417"/>
</g>
<!-- Node288986 -->
<g id="node17" class="node">
<title>Node288986</title>
<g id="a_node17"><a xlink:href="quickjs_8c.html#adc0280beaa04d2b8fcaf05a82ab26c74" target="_top" xlink:title="js_link_module">
<polygon fill="none" stroke="#ff0000" points="484,-266.5 484,-285.5 565,-285.5 565,-266.5 484,-266.5"/>
<text text-anchor="middle" x="524.5" y="-273.5" font-family="Helvetica,sans-Serif" font-size="10.00" fill="#000000">js_link_module</text>
</a>
</g>
</g>
<!-- Node288941&#45;&gt;Node288986 -->
<g id="edge18" class="edge">
<title>Node288941&#45;&gt;Node288986</title>
<path fill="none" stroke="#191970" d="M378.7375,-361.0979C399.5068,-348.1514 430.5605,-329.0161 458,-313 474.4309,-303.4095 493.4181,-292.9013 506.8868,-285.5423"/>
<polygon fill="#191970" stroke="#191970" points="376.8638,-358.1416 370.2377,-366.4087 380.573,-364.0781 376.8638,-358.1416"/>
</g>
<!-- Node288990 -->
<g id="node18" class="node">
<title>Node288990</title>
<g id="a_node18"><a xlink:href="quickjs_8c.html#a6357b7fdae71c70c140e78e6c20cb5c2" target="_top" xlink:title="js_dynamic_import_job">
<polygon fill="none" stroke="#ff0000" points="466.5,-228.5 466.5,-247.5 582.5,-247.5 582.5,-228.5 466.5,-228.5"/>
<text text-anchor="middle" x="524.5" y="-235.5" font-family="Helvetica,sans-Serif" font-size="10.00" fill="#000000">js_dynamic_import_job</text>
</a>
</g>
</g>
<!-- Node288941&#45;&gt;Node288990 -->
<g id="edge20" class="edge">
<title>Node288941&#45;&gt;Node288990</title>
<path fill="none" stroke="#191970" d="M371.313,-358.9947C385.127,-344.4148 405.2908,-322.7052 422,-303 438.7901,-283.1993 436.4645,-271.4981 458,-257 463.777,-253.1108 470.3497,-250.0087 477.0612,-247.5365"/>
<polygon fill="#191970" stroke="#191970" points="368.7152,-356.6475 364.3541,-366.3032 373.7847,-361.4745 368.7152,-356.6475"/>
</g>
<!-- Node288994 -->
<g id="node19" class="node">
<title>Node288994</title>
<g id="a_node19"><a xlink:href="quickjs_8c.html#a8d4b24969540aff427939eeda47f451d" target="_top" xlink:title="js_function_apply">
<polygon fill="none" stroke="#ff0000" points="478.5,-76.5 478.5,-95.5 570.5,-95.5 570.5,-76.5 478.5,-76.5"/>
<text text-anchor="middle" x="524.5" y="-83.5" font-family="Helvetica,sans-Serif" font-size="10.00" fill="#000000">js_function_apply</text>
</a>
</g>
</g>
<!-- Node288941&#45;&gt;Node288994 -->
<g id="edge21" class="edge">
<title>Node288941&#45;&gt;Node288994</title>
<path fill="none" stroke="#191970" d="M375.299,-359.5976C390.6111,-346.0634 410.8252,-325.4865 422,-303 461.8049,-222.9027 397.9429,-171.2808 458,-105 463.4824,-98.9495 470.7442,-94.7728 478.4534,-91.9012"/>
<polygon fill="#191970" stroke="#191970" points="372.7143,-357.2024 367.3852,-366.3594 377.2616,-362.5243 372.7143,-357.2024"/>
</g>
<!-- Node288997 -->
<g id="node20" class="node">
<title>Node288997</title>
<g id="a_node20"><a xlink:href="quickjs_8c.html#a677ad630a103e1f3d5129e0549112b50" target="_top" xlink:title="js_function_call">
<polygon fill="none" stroke="#000000" points="482.5,-190.5 482.5,-209.5 566.5,-209.5 566.5,-190.5 482.5,-190.5"/>
<text text-anchor="middle" x="524.5" y="-197.5" font-family="Helvetica,sans-Serif" font-size="10.00" fill="#000000">js_function_call</text>
</a>
</g>
</g>
<!-- Node288941&#45;&gt;Node288997 -->
<g id="edge23" class="edge">
<title>Node288941&#45;&gt;Node288997</title>
<path fill="none" stroke="#191970" d="M373.436,-359.3048C388.0412,-345.3428 408.2135,-324.3334 422,-303 444.0459,-268.8861 427.5199,-245.8467 458,-219 464.8479,-212.9684 473.4908,-208.8435 482.2594,-206.0248"/>
<polygon fill="#191970" stroke="#191970" points="370.8788,-356.9044 365.9706,-366.2938 375.6628,-362.0145 370.8788,-356.9044"/>
</g>
<!-- Node288970 -->
<g id="node21" class="node">
<title>Node288970</title>
<g id="a_node21"><a xlink:href="quickjs_8c.html#a5e32da9a43002cb96dcbd62a1a340144" target="_top" xlink:title="js_array_from">
<polygon fill="none" stroke="#000000" points="486.5,-152.5 486.5,-171.5 562.5,-171.5 562.5,-152.5 486.5,-152.5"/>
<text text-anchor="middle" x="524.5" y="-159.5" font-family="Helvetica,sans-Serif" font-size="10.00" fill="#000000">js_array_from</text>
</a>
</g>
</g>
<!-- Node288941&#45;&gt;Node288970 -->
<g id="edge24" class="edge">
<title>Node288941&#45;&gt;Node288970</title>
<path fill="none" stroke="#191970" d="M374.3822,-359.4856C389.3583,-345.7604 409.5663,-324.9826 422,-303 449.8326,-253.7923 417.8524,-220.8023 458,-181 465.589,-173.4763 475.9387,-168.8875 486.2124,-166.1023"/>
<polygon fill="#191970" stroke="#191970" points="371.8193,-357.0814 366.683,-366.348 376.477,-362.307 371.8193,-357.0814"/>
</g>
<!-- Node288961 -->
<g id="node22" class="node">
<title>Node288961</title>
<g id="a_node22"><a xlink:href="quickjs_8c.html#aa0bbf08a7e91459c68a312fba7016c6d" target="_top" xlink:title="js_array_every">
<polygon fill="none" stroke="#000000" points="484.5,-114.5 484.5,-133.5 564.5,-133.5 564.5,-114.5 484.5,-114.5"/>
<text text-anchor="middle" x="524.5" y="-121.5" font-family="Helvetica,sans-Serif" font-size="10.00" fill="#000000">js_array_every</text>
</a>
</g>
</g>
<!-- Node288941&#45;&gt;Node288961 -->
<g id="edge25" class="edge">
<title>Node288941&#45;&gt;Node288961</title>
<path fill="none" stroke="#191970" d="M374.7794,-359.7018C389.9792,-346.0983 410.2942,-325.3786 422,-303 455.784,-238.4134 407.949,-195.9876 458,-143 464.9258,-135.6678 474.4663,-131.1018 484.16,-128.2759"/>
<polygon fill="#191970" stroke="#191970" points="372.2106,-357.2967 366.9485,-366.4925 376.7966,-362.5852 372.2106,-357.2967"/>
</g>
<!-- Node288998 -->
<g id="node23" class="node">
<title>Node288998</title>
<g id="a_node23"><a xlink:href="quickjs_8c.html#a36c1692489542a86dd79a7d39ab8ff95" target="_top" xlink:title="js_array_reduce">
<polygon fill="none" stroke="#000000" points="481.5,-810.5 481.5,-829.5 567.5,-829.5 567.5,-810.5 481.5,-810.5"/>
<text text-anchor="middle" x="524.5" y="-817.5" font-family="Helvetica,sans-Serif" font-size="10.00" fill="#000000">js_array_reduce</text>
</a>
</g>
</g>
<!-- Node288941&#45;&gt;Node288998 -->
<g id="edge26" class="edge">
<title>Node288941&#45;&gt;Node288998</title>
<path fill="none" stroke="#191970" d="M357.1388,-395.5625C365.751,-470.8717 400.2298,-740.8395 458,-801 464.3206,-807.5821 472.7493,-811.9306 481.4773,-814.7916"/>
<polygon fill="#191970" stroke="#191970" points="360.6096,-395.106 356.0173,-385.5582 353.6532,-395.8859 360.6096,-395.106"/>
</g>
<!-- Node288999 -->
<g id="node24" class="node">
<title>Node288999</title>
<g id="a_node24"><a xlink:href="quickjs_8c.html#a9dd41b086da4e13b3487cc9c6e2af2b8" target="_top" xlink:title="js_array_find">
<polygon fill="none" stroke="#000000" points="488.5,-772.5 488.5,-791.5 560.5,-791.5 560.5,-772.5 488.5,-772.5"/>
<text text-anchor="middle" x="524.5" y="-779.5" font-family="Helvetica,sans-Serif" font-size="10.00" fill="#000000">js_array_find</text>
</a>
</g>
</g>
<!-- Node288941&#45;&gt;Node288999 -->
<g id="edge27" class="edge">
<title>Node288941&#45;&gt;Node288999</title>
<path fill="none" stroke="#191970" d="M357.7077,-396.0667C367.7518,-467.6506 405.0488,-709.0773 458,-763 465.9922,-771.1388 477.2104,-775.8536 488.1597,-778.5648"/>
<polygon fill="#191970" stroke="#191970" points="361.1187,-395.1804 356.2856,-385.7522 354.1843,-396.1366 361.1187,-395.1804"/>
</g>
<!-- Node289000 -->
<g id="node25" class="node">
<title>Node289000</title>
<g id="a_node25"><a xlink:href="quickjs_8c.html#ad90c33b4aae1181151bda4a98ac2ef23" target="_top" xlink:title="JS_FlattenIntoArray">
<polygon fill="none" stroke="#ff0000" points="472.5,-716.5 472.5,-735.5 576.5,-735.5 576.5,-716.5 472.5,-716.5"/>
<text text-anchor="middle" x="524.5" y="-723.5" font-family="Helvetica,sans-Serif" font-size="10.00" fill="#000000">JS_FlattenIntoArray</text>
</a>
</g>
</g>
<!-- Node288941&#45;&gt;Node289000 -->
<g id="edge28" class="edge">
<title>Node288941&#45;&gt;Node289000</title>
<path fill="none" stroke="#191970" d="M358.5833,-395.6167C370.6742,-459.779 411.8037,-661.8714 458,-707 462.1227,-711.0274 467.0373,-714.2125 472.3019,-716.7296"/>
<polygon fill="#191970" stroke="#191970" points="361.9929,-394.8072 356.7247,-385.6151 355.1107,-396.0862 361.9929,-394.8072"/>
</g>
<!-- Node289002 -->
<g id="node26" class="node">
<title>Node289002</title>
<g id="a_node26"><a xlink:href="quickjs_8c.html#aed1bf9ce4b9e3a82388679dd6ec7635b" target="_top" xlink:title="js_string_replace">
<polygon fill="none" stroke="#000000" points="479.5,-38.5 479.5,-57.5 569.5,-57.5 569.5,-38.5 479.5,-38.5"/>
<text text-anchor="middle" x="524.5" y="-45.5" font-family="Helvetica,sans-Serif" font-size="10.00" fill="#000000">js_string_replace</text>
</a>
</g>
</g>
<!-- Node288941&#45;&gt;Node289002 -->
<g id="edge30" class="edge">
<title>Node288941&#45;&gt;Node289002</title>
<path fill="none" stroke="#191970" d="M375.4771,-359.6845C390.8873,-346.1982 411.1465,-325.6433 422,-303 467.8612,-207.3212 387.8835,-146.6326 458,-67 463.6337,-60.6017 471.2576,-56.291 479.3344,-53.4021"/>
<polygon fill="#191970" stroke="#191970" points="372.8863,-357.2914 367.5053,-366.418 377.4032,-362.639 372.8863,-357.2914"/>
</g>
<!-- Node289003 -->
<g id="node27" class="node">
<title>Node289003</title>
<g id="a_node27"><a xlink:href="quickjs_8c.html#a624282391413d4c5a030adbd8b77aa80" target="_top" xlink:title="internalize_json_property">
<polygon fill="none" stroke="#ff0000" points="462,-660.5 462,-679.5 587,-679.5 587,-660.5 462,-660.5"/>
<text text-anchor="middle" x="524.5" y="-667.5" font-family="Helvetica,sans-Serif" font-size="10.00" fill="#000000">internalize_json_property</text>
</a>
</g>
</g>
<!-- Node288941&#45;&gt;Node289003 -->
<g id="edge31" class="edge">
<title>Node288941&#45;&gt;Node289003</title>
<path fill="none" stroke="#191970" d="M356.4886,-395.9326C361.3453,-446.3747 381.1884,-580.1051 458,-651 462.2352,-654.909 467.2201,-658.02 472.5247,-660.495"/>
<polygon fill="#191970" stroke="#191970" points="359.9549,-395.3916 355.6066,-385.7302 352.9809,-395.9945 359.9549,-395.3916"/>
</g>
<!-- Node289005 -->
<g id="node28" class="node">
<title>Node289005</title>
<g id="a_node28"><a xlink:href="quickjs_8c.html#a0da6493b4bc0edb7ddddfab807241d0b" target="_top" xlink:title="js_json_check">
<polygon fill="none" stroke="#ff0000" points="485,-.5 485,-19.5 564,-19.5 564,-.5 485,-.5"/>
<text text-anchor="middle" x="524.5" y="-7.5" font-family="Helvetica,sans-Serif" font-size="10.00" fill="#000000">js_json_check</text>
</a>
</g>
</g>
<!-- Node288941&#45;&gt;Node289005 -->
<g id="edge33" class="edge">
<title>Node288941&#45;&gt;Node289005</title>
<path fill="none" stroke="#191970" d="M375.6075,-359.7462C391.0896,-346.2939 411.3818,-325.7546 422,-303 473.9379,-191.6974 377.793,-122.0197 458,-29 464.8216,-21.0887 474.687,-16.3602 484.7395,-13.5649"/>
<polygon fill="#191970" stroke="#191970" points="373.0115,-357.3551 367.5932,-366.4596 377.5066,-362.7211 373.0115,-357.3551"/>
</g>
<!-- Node288986&#45;&gt;Node288986 -->
<g id="edge19" class="edge">
<title>Node288986&#45;&gt;Node288986</title>
<path fill="none" stroke="#191970" d="M493.0629,-294.2746C493.9592,-299.741 504.4382,-304 524.5,-304 554.3594,-304 562.9906,-294.5653 550.3937,-285.7571"/>
<polygon fill="#191970" stroke="#191970" points="496.085,-296.0475 498.6063,-285.7571 490.2181,-292.2291 496.085,-296.0475"/>
</g>
<!-- Node288994&#45;&gt;Node288921 -->
<g id="edge22" class="edge">
<title>Node288994&#45;&gt;Node288921</title>
<path fill="none" stroke="#191970" d="M472.7366,-98.8526C467.6655,-100.6845 462.6727,-102.73 458,-105 356.8798,-154.1243 253.5066,-244.6431 220.9593,-274.3077"/>
<polygon fill="#191970" stroke="#191970" points="474.1422,-102.0735 482.5217,-95.59 471.9281,-95.4329 474.1422,-102.0735"/>
</g>
<!-- Node289000&#45;&gt;Node289000 -->
<g id="edge29" class="edge">
<title>Node289000&#45;&gt;Node289000</title>
<path fill="none" stroke="#191970" d="M493.0629,-744.2746C493.9592,-749.741 504.4382,-754 524.5,-754 554.3594,-754 562.9906,-744.5653 550.3937,-735.7571"/>
<polygon fill="#191970" stroke="#191970" points="496.085,-746.0475 498.6063,-735.7571 490.2181,-742.2291 496.085,-746.0475"/>
</g>
<!-- Node289003&#45;&gt;Node289003 -->
<g id="edge32" class="edge">
<title>Node289003&#45;&gt;Node289003</title>
<path fill="none" stroke="#191970" d="M493.0629,-688.2746C493.9592,-693.741 504.4382,-698 524.5,-698 554.3594,-698 562.9906,-688.5653 550.3937,-679.7571"/>
<polygon fill="#191970" stroke="#191970" points="496.085,-690.0475 498.6063,-679.7571 490.2181,-686.2291 496.085,-690.0475"/>
</g>
<!-- Node289027&#45;&gt;Node288921 -->
<g id="edge35" class="edge">
<title>Node289027&#45;&gt;Node288921</title>
<path fill="none" stroke="#191970" d="M277.7059,-290.7354C268.9651,-290.6845 260.3232,-290.5014 252.2954,-290.186"/>
<polygon fill="#191970" stroke="#191970" points="277.9819,-294.2354 287.9815,-290.7342 277.981,-287.2354 277.9819,-294.2354"/>
</g>
<!-- Node289041&#45;&gt;Node288921 -->
<g id="edge37" class="edge">
<title>Node289041&#45;&gt;Node288921</title>
<path fill="none" stroke="#191970" d="M328.0852,-113.696C314.7437,-118.1037 299.146,-124.0129 288,-134 242.716,-174.5757 221.1198,-247.5005 213.6584,-274.2978"/>
<polygon fill="#191970" stroke="#191970" points="329.2985,-116.9822 337.7367,-110.5754 327.1449,-110.3217 329.2985,-116.9822"/>
</g>
<!-- Node289041&#45;&gt;Node289002 -->
<g id="edge39" class="edge">
<title>Node289041&#45;&gt;Node289002</title>
<path fill="none" stroke="#191970" d="M392.5897,-88.1858C412.0522,-81.6544 436.2366,-73.6981 458,-67 468.3283,-63.8213 479.6137,-60.5293 489.9066,-57.5965"/>
<polygon fill="#191970" stroke="#191970" points="391.2393,-84.9474 382.8804,-91.4573 393.4745,-91.581 391.2393,-84.9474"/>
</g>
<!-- Node289041&#45;&gt;Node289005 -->
<g id="edge38" class="edge">
<title>Node289041&#45;&gt;Node289005</title>
<path fill="none" stroke="#191970" d="M373.8654,-84.8954C393.6589,-68.7273 426.2521,-44.109 458,-29 466.3483,-25.027 475.6908,-21.7251 484.6741,-19.05"/>
<polygon fill="#191970" stroke="#191970" points="371.4189,-82.3776 365.9633,-91.4598 375.8919,-87.7621 371.4189,-82.3776"/>
</g>
</g>
</svg>
        <g id="navigator" transform="translate(0 0)" fill="#404254">
                <rect fill="#f2f5e9" fill-opacity="0.5" stroke="#606060" stroke-width=".5" x="0" y="0" width="60" height="60"/>
                <use id="zoomplus" xlink:href="#zoomPlus" x="17" y="9" onmousedown="handleZoom(evt,'in')"/>
                <use id="zoomminus" xlink:href="#zoomMin" x="42" y="9" onmousedown="handleZoom(evt,'out')"/>
                <use id="reset" xlink:href="#resetDef" x="30" y="36" onmousedown="handleReset()"/>
                <g id="arrowUp" xlink:href="#dirArrow" transform="translate(30 24)" onmousedown="handlePan(0,-1)">
                  <use xlink:href="#rim" fill="#404040">
                        <set attributeName="fill" to="#808080" begin="arrowUp.mouseover" end="arrowUp.mouseout"/>
                  </use>
                  <path fill="none" stroke="white" stroke-width="1.5" d="M0,-3.0v7 M-2.5,-0.5L0,-3.0L2.5,-0.5"/>
                </g>
                <g id="arrowRight" xlink:href="#dirArrow" transform="rotate(90) translate(36 -43)" onmousedown="handlePan(1,0)">
                  <use xlink:href="#rim" fill="#404040">
                        <set attributeName="fill" to="#808080" begin="arrowRight.mouseover" end="arrowRight.mouseout"/>
                  </use>
                  <path fill="none" stroke="white" stroke-width="1.5" d="M0,-3.0v7 M-2.5,-0.5L0,-3.0L2.5,-0.5"/>
                </g>
                <g id="arrowDown" xlink:href="#dirArrow" transform="rotate(180) translate(-30 -48)" onmousedown="handlePan(0,1)">
                  <use xlink:href="#rim" fill="#404040">
                        <set attributeName="fill" to="#808080" begin="arrowDown.mouseover" end="arrowDown.mouseout"/>
                  </use>
                  <path fill="none" stroke="white" stroke-width="1.5" d="M0,-3.0v7 M-2.5,-0.5L0,-3.0L2.5,-0.5"/>
                </g>
                <g id="arrowLeft" xlink:href="#dirArrow" transform="rotate(270) translate(-36 17)" onmousedown="handlePan(-1,0)">
                  <use xlink:href="#rim" fill="#404040">
                        <set attributeName="fill" to="#808080" begin="arrowLeft.mouseover" end="arrowLeft.mouseout"/>
                  </use>
                  <path fill="none" stroke="white" stroke-width="1.5" d="M0,-3.0v7 M-2.5,-0.5L0,-3.0L2.5,-0.5"/>
                </g>
        </g>
        <svg viewBox="0 0 15 15" width="100%" height="30px" preserveAspectRatio="xMaxYMin meet">
         <g id="arrow_out" transform="scale(0.3 0.3)">
          <a xlink:href="quickjs_8c_af25e40231392c9973a4f09de5fc12c71_icgraph_org.svg" target="_base">
           <rect id="button" ry="5" rx="5" y="6" x="6" height="38" width="38"
                fill="#f2f5e9" fill-opacity="0.5" stroke="#606060" stroke-width="1.0"/>
           <path id="arrow"
             d="M 11.500037,31.436501 C 11.940474,20.09759 22.043105,11.32322 32.158766,21.979434 L 37.068811,17.246167 C 37.068811,17.246167 37.088388,32 37.088388,32 L 22.160133,31.978069 C 22.160133,31.978069 26.997745,27.140456 26.997745,27.140456 C 18.528582,18.264221 13.291696,25.230495 11.500037,31.436501 z"
             style="fill:#404040;"/>
          </a>
         </g>
        </svg>
</svg>
