<?xml version="1.0" encoding="UTF-8" standalone="no"?>
<!DOCTYPE svg PUBLIC "-//W3C//DTD SVG 1.1//EN"
 "http://www.w3.org/Graphics/SVG/1.1/DTD/svg11.dtd">
<!-- Generated by graphviz version 2.40.1 (20161225.0304)
 -->
<!-- Title: js_atom_concat_str Pages: 1 -->
<svg width="568pt" height="190pt"
 viewBox="0.00 0.00 568.00 190.00" xmlns="http://www.w3.org/2000/svg" xmlns:xlink="http://www.w3.org/1999/xlink">
<g id="graph0" class="graph" transform="scale(1 1) rotate(0) translate(4 186)">
<title>js_atom_concat_str</title>
<!-- Node98058 -->
<g id="node1" class="node">
<title>Node98058</title>
<polygon fill="#bfbfbf" stroke="#000000" points="0,-53.5 0,-72.5 102,-72.5 102,-53.5 0,-53.5"/>
<text text-anchor="middle" x="51" y="-60.5" font-family="Helvetica,sans-Serif" font-size="10.00" fill="#000000">js_atom_concat_str</text>
</g>
<!-- Node98059 -->
<g id="node2" class="node">
<title>Node98059</title>
<g id="a_node2"><a xlink:href="quickjs_8c.html#a6bb36fa120270db7f4e19891b8a0bfe1" target="_top" xlink:title="get_private_setter_name">
<polygon fill="none" stroke="#000000" points="138,-34.5 138,-53.5 262,-53.5 262,-34.5 138,-34.5"/>
<text text-anchor="middle" x="200" y="-41.5" font-family="Helvetica,sans-Serif" font-size="10.00" fill="#000000">get_private_setter_name</text>
</a>
</g>
</g>
<!-- Node98058&#45;&gt;Node98059 -->
<g id="edge1" class="edge">
<title>Node98058&#45;&gt;Node98059</title>
<path fill="none" stroke="#191970" d="M112.3792,-55.1731C120.7789,-54.102 129.4084,-53.0016 137.8222,-51.9287"/>
<polygon fill="#191970" stroke="#191970" points="111.7543,-51.7244 102.2773,-56.4613 112.6398,-58.6682 111.7543,-51.7244"/>
</g>
<!-- Node98099 -->
<g id="node9" class="node">
<title>Node98099</title>
<g id="a_node9"><a xlink:href="quickjs_8c.html#aa38698096df1fd806b60ab8b209fa4a8" target="_top" xlink:title="js_atom_concat_num">
<polygon fill="none" stroke="#000000" points="145,-72.5 145,-91.5 255,-91.5 255,-72.5 145,-72.5"/>
<text text-anchor="middle" x="200" y="-79.5" font-family="Helvetica,sans-Serif" font-size="10.00" fill="#000000">js_atom_concat_num</text>
</a>
</g>
</g>
<!-- Node98058&#45;&gt;Node98099 -->
<g id="edge10" class="edge">
<title>Node98058&#45;&gt;Node98099</title>
<path fill="none" stroke="#191970" d="M112.422,-70.8323C123.154,-72.2008 134.2599,-73.617 144.8107,-74.9624"/>
<polygon fill="#191970" stroke="#191970" points="112.6398,-67.3318 102.2773,-69.5387 111.7543,-74.2756 112.6398,-67.3318"/>
</g>
<!-- Node98060 -->
<g id="node3" class="node">
<title>Node98060</title>
<g id="a_node3"><a xlink:href="quickjs_8c.html#a00eb789430243c24dab4a63ad6a79653" target="_top" xlink:title="js_parse_class">
<polygon fill="none" stroke="#000000" points="314,-72.5 314,-91.5 396,-91.5 396,-72.5 314,-72.5"/>
<text text-anchor="middle" x="355" y="-79.5" font-family="Helvetica,sans-Serif" font-size="10.00" fill="#000000">js_parse_class</text>
</a>
</g>
</g>
<!-- Node98059&#45;&gt;Node98060 -->
<g id="edge2" class="edge">
<title>Node98059&#45;&gt;Node98060</title>
<path fill="none" stroke="#191970" d="M249.1105,-56.04C270.7647,-61.3488 295.8502,-67.4988 316.1682,-72.4799"/>
<polygon fill="#191970" stroke="#191970" points="249.6588,-52.5708 239.113,-53.589 247.992,-59.3695 249.6588,-52.5708"/>
</g>
<!-- Node98096 -->
<g id="node7" class="node">
<title>Node98096</title>
<g id="a_node7"><a xlink:href="quickjs_8c.html#a7d2ad72913c8768cc7bceeb2693d53c4" target="_top" xlink:title="resolve_scope_private\l_field">
<polygon fill="none" stroke="#000000" points="298,-14 298,-44 412,-44 412,-14 298,-14"/>
<text text-anchor="start" x="306" y="-32" font-family="Helvetica,sans-Serif" font-size="10.00" fill="#000000">resolve_scope_private</text>
<text text-anchor="middle" x="355" y="-21" font-family="Helvetica,sans-Serif" font-size="10.00" fill="#000000">_field</text>
</a>
</g>
</g>
<!-- Node98059&#45;&gt;Node98096 -->
<g id="edge8" class="edge">
<title>Node98059&#45;&gt;Node98096</title>
<path fill="none" stroke="#191970" d="M272.1917,-37.0137C280.8008,-36.1806 289.4977,-35.3389 297.8547,-34.5302"/>
<polygon fill="#191970" stroke="#191970" points="271.7677,-33.5383 262.1513,-37.9854 272.442,-40.5057 271.7677,-33.5383"/>
</g>
<!-- Node98061 -->
<g id="node4" class="node">
<title>Node98061</title>
<g id="a_node4"><a xlink:href="quickjs_8c.html#a840642c87c5a82d4cc68333376a3b6de" target="_top" xlink:title="js_parse_postfix_expr">
<polygon fill="none" stroke="#ff0000" points="448,-144.5 448,-163.5 560,-163.5 560,-144.5 448,-144.5"/>
<text text-anchor="middle" x="504" y="-151.5" font-family="Helvetica,sans-Serif" font-size="10.00" fill="#000000">js_parse_postfix_expr</text>
</a>
</g>
</g>
<!-- Node98060&#45;&gt;Node98061 -->
<g id="edge3" class="edge">
<title>Node98060&#45;&gt;Node98061</title>
<path fill="none" stroke="#191970" d="M378.2659,-96.9181C396.6943,-108.3221 423.3508,-123.9171 448,-135 455.7718,-138.4944 464.3907,-141.7201 472.4904,-144.4841"/>
<polygon fill="#191970" stroke="#191970" points="380.012,-93.8819 369.6794,-91.5389 376.2956,-99.814 380.012,-93.8819"/>
</g>
<!-- Node98065 -->
<g id="node5" class="node">
<title>Node98065</title>
<g id="a_node5"><a xlink:href="quickjs_8c.html#a9d844c16dcc71701436848074337d32c" target="_top" xlink:title="js_parse_statement\l_or_decl">
<polygon fill="none" stroke="#ff0000" points="453,-77 453,-107 555,-107 555,-77 453,-77"/>
<text text-anchor="start" x="461" y="-95" font-family="Helvetica,sans-Serif" font-size="10.00" fill="#000000">js_parse_statement</text>
<text text-anchor="middle" x="504" y="-84" font-family="Helvetica,sans-Serif" font-size="10.00" fill="#000000">_or_decl</text>
</a>
</g>
</g>
<!-- Node98060&#45;&gt;Node98065 -->
<g id="edge5" class="edge">
<title>Node98060&#45;&gt;Node98065</title>
<path fill="none" stroke="#191970" d="M406.2885,-85.4422C421.3674,-86.4542 437.8557,-87.5608 452.9213,-88.5719"/>
<polygon fill="#191970" stroke="#191970" points="406.3213,-81.9366 396.1093,-84.759 405.8525,-88.9209 406.3213,-81.9366"/>
</g>
<!-- Node98072 -->
<g id="node6" class="node">
<title>Node98072</title>
<g id="a_node6"><a xlink:href="quickjs_8c.html#a498e1d5c7de1b59c1630e9847cde1e41" target="_top" xlink:title="js_parse_export">
<polygon fill="none" stroke="#ff0000" points="461,-38.5 461,-57.5 547,-57.5 547,-38.5 461,-38.5"/>
<text text-anchor="middle" x="504" y="-45.5" font-family="Helvetica,sans-Serif" font-size="10.00" fill="#000000">js_parse_export</text>
</a>
</g>
</g>
<!-- Node98060&#45;&gt;Node98072 -->
<g id="edge7" class="edge">
<title>Node98060&#45;&gt;Node98072</title>
<path fill="none" stroke="#191970" d="M406.0413,-70.353C424.3678,-66.1711 444.8035,-61.5079 462.2483,-57.5272"/>
<polygon fill="#191970" stroke="#191970" points="405.0801,-66.9823 396.1093,-72.6193 406.6374,-73.8069 405.0801,-66.9823"/>
</g>
<!-- Node98061&#45;&gt;Node98061 -->
<g id="edge4" class="edge">
<title>Node98061&#45;&gt;Node98061</title>
<path fill="none" stroke="#191970" d="M476.3742,-172.6539C477.5289,-177.9368 486.7375,-182 504,-182 530.3047,-182 537.9084,-172.5653 526.8111,-163.7571"/>
<polygon fill="#191970" stroke="#191970" points="479.5076,-174.2176 481.1889,-163.7571 473.3512,-170.886 479.5076,-174.2176"/>
</g>
<!-- Node98065&#45;&gt;Node98065 -->
<g id="edge6" class="edge">
<title>Node98065&#45;&gt;Node98065</title>
<path fill="none" stroke="#191970" d="M477.7022,-117.4579C480.9661,-122.179 489.7321,-125.5 504,-125.5 527.4141,-125.5 536.0114,-116.5566 529.7921,-107.159"/>
<polygon fill="#191970" stroke="#191970" points="481.2132,-117.3187 478.2079,-107.159 474.2216,-116.9753 481.2132,-117.3187"/>
</g>
<!-- Node98097 -->
<g id="node8" class="node">
<title>Node98097</title>
<g id="a_node8"><a xlink:href="quickjs_8c.html#a7a4eedc4cc552a71e165f4d28ad43985" target="_top" xlink:title="resolve_variables">
<polygon fill="none" stroke="#ff0000" points="458,-.5 458,-19.5 550,-19.5 550,-.5 458,-.5"/>
<text text-anchor="middle" x="504" y="-7.5" font-family="Helvetica,sans-Serif" font-size="10.00" fill="#000000">resolve_variables</text>
</a>
</g>
</g>
<!-- Node98096&#45;&gt;Node98097 -->
<g id="edge9" class="edge">
<title>Node98096&#45;&gt;Node98097</title>
<path fill="none" stroke="#191970" d="M422.2072,-20.43C434.248,-18.8945 446.5454,-17.3264 457.825,-15.8881"/>
<polygon fill="#191970" stroke="#191970" points="421.6581,-16.9715 412.1812,-21.7084 422.5436,-23.9153 421.6581,-16.9715"/>
</g>
<!-- Node98099&#45;&gt;Node98060 -->
<g id="edge11" class="edge">
<title>Node98099&#45;&gt;Node98060</title>
<path fill="none" stroke="#191970" d="M265.1969,-82C281.6407,-82 298.8428,-82 313.7396,-82"/>
<polygon fill="#191970" stroke="#191970" points="265.0837,-78.5001 255.0836,-82 265.0836,-85.5001 265.0837,-78.5001"/>
</g>
</g>
</svg>
