<?xml version="1.0" encoding="UTF-8" standalone="no"?>
<!DOCTYPE svg PUBLIC "-//W3C//DTD SVG 1.1//EN"
 "http://www.w3.org/Graphics/SVG/1.1/DTD/svg11.dtd">
<!-- Generated by graphviz version 2.40.1 (20161225.0304)
 -->
<!-- Title: js_is_live_code Pages: 1 -->
<svg width="1097pt" height="599pt"
 viewBox="0.00 0.00 1097.00 598.75" xmlns="http://www.w3.org/2000/svg" xmlns:xlink="http://www.w3.org/1999/xlink">
<g id="graph0" class="graph" transform="scale(1 1) rotate(0) translate(4 594.7465)">
<title>js_is_live_code</title>
<!-- Node311530 -->
<g id="node1" class="node">
<title>Node311530</title>
<polygon fill="#bfbfbf" stroke="#000000" points="0,-429.188 0,-448.188 83,-448.188 83,-429.188 0,-429.188"/>
<text text-anchor="middle" x="41.5" y="-436.188" font-family="Helvetica,sans-Serif" font-size="10.00" fill="#000000">js_is_live_code</text>
</g>
<!-- Node311531 -->
<g id="node2" class="node">
<title>Node311531</title>
<g id="a_node2"><a xlink:href="quickjs_8c.html#a6b3c67655a0facc68b271ce3d401deb3" target="_top" xlink:title="emit_goto">
<polygon fill="none" stroke="#000000" points="119,-277.188 119,-296.188 178,-296.188 178,-277.188 119,-277.188"/>
<text text-anchor="middle" x="148.5" y="-284.188" font-family="Helvetica,sans-Serif" font-size="10.00" fill="#000000">emit_goto</text>
</a>
</g>
</g>
<!-- Node311530&#45;&gt;Node311531 -->
<g id="edge1" class="edge">
<title>Node311530&#45;&gt;Node311531</title>
<path fill="none" stroke="#191970" d="M54.1915,-420.659C77.0352,-388.2081 124.3227,-321.0333 141.8092,-296.1927"/>
<polygon fill="#191970" stroke="#191970" points="51.0876,-418.9879 48.1933,-429.1797 56.8116,-423.0173 51.0876,-418.9879"/>
</g>
<!-- Node311541 -->
<g id="node5" class="node">
<title>Node311541</title>
<g id="a_node5"><a xlink:href="quickjs_8c.html#acc9eb677cab8dfcf45f59381f8a19601" target="_top" xlink:title="js_parse_function_decl2">
<polygon fill="none" stroke="#ff0000" points="529,-315.188 529,-334.188 651,-334.188 651,-315.188 529,-315.188"/>
<text text-anchor="middle" x="590" y="-322.188" font-family="Helvetica,sans-Serif" font-size="10.00" fill="#000000">js_parse_function_decl2</text>
</a>
</g>
</g>
<!-- Node311530&#45;&gt;Node311541 -->
<g id="edge45" class="edge">
<title>Node311530&#45;&gt;Node311541</title>
<path fill="none" stroke="#191970" d="M93.0553,-427.9728C199.6321,-405.8219 442.7101,-355.3007 544.1782,-334.2116"/>
<polygon fill="#191970" stroke="#191970" points="92.2554,-424.5642 83.1768,-430.0259 93.6799,-431.4177 92.2554,-424.5642"/>
</g>
<!-- Node311536 -->
<g id="node7" class="node">
<title>Node311536</title>
<g id="a_node7"><a xlink:href="quickjs_8c.html#a9d844c16dcc71701436848074337d32c" target="_top" xlink:title="js_parse_statement\l_or_decl">
<polygon fill="none" stroke="#ff0000" points="987,-361.688 987,-391.688 1089,-391.688 1089,-361.688 987,-361.688"/>
<text text-anchor="start" x="995" y="-379.688" font-family="Helvetica,sans-Serif" font-size="10.00" fill="#000000">js_parse_statement</text>
<text text-anchor="middle" x="1038" y="-368.688" font-family="Helvetica,sans-Serif" font-size="10.00" fill="#000000">_or_decl</text>
</a>
</g>
</g>
<!-- Node311530&#45;&gt;Node311536 -->
<g id="edge46" class="edge">
<title>Node311530&#45;&gt;Node311536</title>
<path fill="none" stroke="#191970" d="M55.1237,-456.026C88.125,-495.8942 176.858,-590.688 274.5,-590.688 274.5,-590.688 274.5,-590.688 745,-590.688 840.1153,-590.688 876.3438,-591.6233 951,-532.688 998.95,-494.8352 1024.6215,-422.8604 1033.9075,-391.6951"/>
<polygon fill="#191970" stroke="#191970" points="57.7935,-453.7614 48.778,-448.1963 52.3553,-458.1689 57.7935,-453.7614"/>
</g>
<!-- Node311532 -->
<g id="node3" class="node">
<title>Node311532</title>
<g id="a_node3"><a xlink:href="quickjs_8c.html#a1e86277b96b55991d572603e00fef94d" target="_top" xlink:title="emit_class_field_init">
<polygon fill="none" stroke="#000000" points="379.5,-429.188 379.5,-448.188 484.5,-448.188 484.5,-429.188 379.5,-429.188"/>
<text text-anchor="middle" x="432" y="-436.188" font-family="Helvetica,sans-Serif" font-size="10.00" fill="#000000">emit_class_field_init</text>
</a>
</g>
</g>
<!-- Node311531&#45;&gt;Node311532 -->
<g id="edge2" class="edge">
<title>Node311531&#45;&gt;Node311532</title>
<path fill="none" stroke="#191970" d="M157.885,-305.3713C168.7618,-325.1663 188.5047,-355.9592 214,-373.688 263.7721,-408.2984 332.2344,-424.7729 379.0787,-432.4169"/>
<polygon fill="#191970" stroke="#191970" points="160.9104,-303.605 153.1464,-296.396 154.7202,-306.8733 160.9104,-303.605"/>
</g>
<!-- Node311531&#45;&gt;Node311541 -->
<g id="edge44" class="edge">
<title>Node311531&#45;&gt;Node311541</title>
<path fill="none" stroke="#191970" d="M186.0914,-299.2067C195.1379,-301.7684 204.8374,-304.1491 214,-305.688 323.9012,-324.1472 454.1954,-326.4461 528.9689,-325.9227"/>
<polygon fill="#191970" stroke="#191970" points="186.8013,-295.7664 176.2186,-296.2726 184.8072,-302.4764 186.8013,-295.7664"/>
</g>
<!-- Node311531&#45;&gt;Node311536 -->
<g id="edge43" class="edge">
<title>Node311531&#45;&gt;Node311536</title>
<path fill="none" stroke="#191970" d="M151.0944,-306.5109C158.3145,-358.4637 180.3495,-496.5728 214,-525.688 287.83,-589.5675 334.3708,-552.688 432,-552.688 432,-552.688 432,-552.688 745,-552.688 840.4852,-552.688 872.491,-546.0366 951,-491.688 989.2862,-465.184 1017.8645,-416.4859 1030.6306,-391.8358"/>
<polygon fill="#191970" stroke="#191970" points="154.5204,-305.7269 149.7119,-296.2861 147.5835,-306.6649 154.5204,-305.7269"/>
</g>
<!-- Node311569 -->
<g id="node8" class="node">
<title>Node311569</title>
<g id="a_node8"><a xlink:href="quickjs_8c.html#a38e4107378b0d9abd638e4fe13541678" target="_top" xlink:title="emit_class_init_start">
<polygon fill="none" stroke="#000000" points="378.5,-391.188 378.5,-410.188 485.5,-410.188 485.5,-391.188 378.5,-391.188"/>
<text text-anchor="middle" x="432" y="-398.188" font-family="Helvetica,sans-Serif" font-size="10.00" fill="#000000">emit_class_init_start</text>
</a>
</g>
</g>
<!-- Node311531&#45;&gt;Node311569 -->
<g id="edge10" class="edge">
<title>Node311531&#45;&gt;Node311569</title>
<path fill="none" stroke="#191970" d="M165.6646,-303.4606C178.1605,-314.8417 195.985,-329.4451 214,-338.688 266.6887,-365.7209 332.7712,-382.3972 378.2893,-391.551"/>
<polygon fill="#191970" stroke="#191970" points="167.9645,-300.8192 158.2742,-296.5357 163.1782,-305.9272 167.9645,-300.8192"/>
</g>
<!-- Node311571 -->
<g id="node10" class="node">
<title>Node311571</title>
<g id="a_node10"><a xlink:href="quickjs_8c.html#a98ab69061f85c400e0eed2c0eb47f49b" target="_top" xlink:title="js_emit_spread_code">
<polygon fill="none" stroke="#000000" points="220,-277.188 220,-296.188 329,-296.188 329,-277.188 220,-277.188"/>
<text text-anchor="middle" x="274.5" y="-284.188" font-family="Helvetica,sans-Serif" font-size="10.00" fill="#000000">js_emit_spread_code</text>
</a>
</g>
</g>
<!-- Node311531&#45;&gt;Node311571 -->
<g id="edge14" class="edge">
<title>Node311531&#45;&gt;Node311571</title>
<path fill="none" stroke="#191970" d="M188.1596,-286.688C198.2422,-286.688 209.2538,-286.688 219.9359,-286.688"/>
<polygon fill="#191970" stroke="#191970" points="188.0414,-283.1881 178.0414,-286.688 188.0414,-290.1881 188.0414,-283.1881"/>
</g>
<!-- Node311553 -->
<g id="node11" class="node">
<title>Node311553</title>
<g id="a_node11"><a xlink:href="quickjs_8c.html#a26be546cf89c4580ba9020e8fc43a759" target="_top" xlink:title="js_parse_destructuring\l_element">
<polygon fill="none" stroke="#ff0000" points="374.5,-243.688 374.5,-273.688 489.5,-273.688 489.5,-243.688 374.5,-243.688"/>
<text text-anchor="start" x="382.5" y="-261.688" font-family="Helvetica,sans-Serif" font-size="10.00" fill="#000000">js_parse_destructuring</text>
<text text-anchor="middle" x="432" y="-250.688" font-family="Helvetica,sans-Serif" font-size="10.00" fill="#000000">_element</text>
</a>
</g>
</g>
<!-- Node311531&#45;&gt;Node311553 -->
<g id="edge22" class="edge">
<title>Node311531&#45;&gt;Node311553</title>
<path fill="none" stroke="#191970" d="M185.5363,-274.263C194.7377,-271.6444 204.646,-269.2148 214,-267.688 267.834,-258.9012 330.0813,-257.1519 374.2436,-257.3031"/>
<polygon fill="#191970" stroke="#191970" points="184.4687,-270.929 175.8889,-277.1448 186.4723,-277.6362 184.4687,-270.929"/>
</g>
<!-- Node311538 -->
<g id="node12" class="node">
<title>Node311538</title>
<g id="a_node12"><a xlink:href="quickjs_8c.html#ac188b916dd086803591a67de7e7a85f6" target="_top" xlink:title="js_parse_for_in_of">
<polygon fill="none" stroke="#000000" points="847,-125.188 847,-144.188 943,-144.188 943,-125.188 847,-125.188"/>
<text text-anchor="middle" x="895" y="-132.188" font-family="Helvetica,sans-Serif" font-size="10.00" fill="#000000">js_parse_for_in_of</text>
</a>
</g>
</g>
<!-- Node311531&#45;&gt;Node311538 -->
<g id="edge42" class="edge">
<title>Node311531&#45;&gt;Node311538</title>
<path fill="none" stroke="#191970" d="M151.3765,-267.1162C159.2156,-216.4277 182.4945,-82.7323 214,-52.688 285.9381,15.9137 332.5954,-2.688 432,-2.688 432,-2.688 432,-2.688 590,-2.688 713.1846,-2.688 843.0378,-94.498 882.758,-124.9818"/>
<polygon fill="#191970" stroke="#191970" points="147.8996,-266.7011 149.8659,-277.1118 154.821,-267.7471 147.8996,-266.7011"/>
</g>
<!-- Node311572 -->
<g id="node13" class="node">
<title>Node311572</title>
<g id="a_node13"><a xlink:href="quickjs_8c.html#a964237617fb99ed93ebe4abda62d6c84" target="_top" xlink:title="optional_chain_test">
<polygon fill="none" stroke="#000000" points="224,-467.188 224,-486.188 325,-486.188 325,-467.188 224,-467.188"/>
<text text-anchor="middle" x="274.5" y="-474.188" font-family="Helvetica,sans-Serif" font-size="10.00" fill="#000000">optional_chain_test</text>
</a>
</g>
</g>
<!-- Node311531&#45;&gt;Node311572 -->
<g id="edge23" class="edge">
<title>Node311531&#45;&gt;Node311572</title>
<path fill="none" stroke="#191970" d="M156.0593,-305.6314C166.8578,-331.5351 188.2669,-378.8754 214,-414.688 228.7436,-435.2066 250.1914,-455.4957 263.1946,-467.0199"/>
<polygon fill="#191970" stroke="#191970" points="159.2405,-304.1636 152.2166,-296.2316 152.761,-306.8124 159.2405,-304.1636"/>
</g>
<!-- Node311558 -->
<g id="node14" class="node">
<title>Node311558</title>
<g id="a_node14"><a xlink:href="quickjs_8c.html#aae2d76e4aa080c7737119ef079a9b97d" target="_top" xlink:title="js_parse_logical_and_or">
<polygon fill="none" stroke="#000000" points="214,-107.188 214,-126.188 335,-126.188 335,-107.188 214,-107.188"/>
<text text-anchor="middle" x="274.5" y="-114.188" font-family="Helvetica,sans-Serif" font-size="10.00" fill="#000000">js_parse_logical_and_or</text>
</a>
</g>
</g>
<!-- Node311531&#45;&gt;Node311558 -->
<g id="edge25" class="edge">
<title>Node311531&#45;&gt;Node311558</title>
<path fill="none" stroke="#191970" d="M154.9659,-267.3893C164.6154,-240.7019 184.828,-192.0517 214,-158.688 225.8672,-145.1157 243.0152,-133.753 256.0268,-126.2832"/>
<polygon fill="#191970" stroke="#191970" points="151.5772,-266.4771 151.5832,-277.0719 158.1855,-268.7858 151.5772,-266.4771"/>
</g>
<!-- Node311559 -->
<g id="node15" class="node">
<title>Node311559</title>
<g id="a_node15"><a xlink:href="quickjs_8c.html#a93b69939f7af67646a177249bf2deb4d" target="_top" xlink:title="js_parse_coalesce_expr">
<polygon fill="none" stroke="#000000" points="371,-87.188 371,-106.188 493,-106.188 493,-87.188 371,-87.188"/>
<text text-anchor="middle" x="432" y="-94.188" font-family="Helvetica,sans-Serif" font-size="10.00" fill="#000000">js_parse_coalesce_expr</text>
</a>
</g>
</g>
<!-- Node311531&#45;&gt;Node311559 -->
<g id="edge33" class="edge">
<title>Node311531&#45;&gt;Node311559</title>
<path fill="none" stroke="#191970" d="M152.3443,-267.056C161.4312,-222.8926 185.6175,-117.9886 214,-97.688 270.4883,-57.2847 358.0032,-74.2896 403.0417,-87.1617"/>
<polygon fill="#191970" stroke="#191970" points="148.9077,-266.3929 150.3661,-276.8868 155.7701,-267.7738 148.9077,-266.3929"/>
</g>
<!-- Node311560 -->
<g id="node16" class="node">
<title>Node311560</title>
<g id="a_node16"><a xlink:href="quickjs_8c.html#a6686f5baeecd532b043761b6c24ed431" target="_top" xlink:title="js_parse_cond_expr">
<polygon fill="none" stroke="#000000" points="538,-87.188 538,-106.188 642,-106.188 642,-87.188 538,-87.188"/>
<text text-anchor="middle" x="590" y="-94.188" font-family="Helvetica,sans-Serif" font-size="10.00" fill="#000000">js_parse_cond_expr</text>
</a>
</g>
</g>
<!-- Node311531&#45;&gt;Node311560 -->
<g id="edge34" class="edge">
<title>Node311531&#45;&gt;Node311560</title>
<path fill="none" stroke="#191970" d="M162.2465,-269.0942C174.4413,-254.5531 193.4651,-234.3137 214,-221.688 319.334,-156.9245 462.1205,-121.4816 537.834,-106.1137"/>
<polygon fill="#191970" stroke="#191970" points="159.494,-266.9315 155.8957,-276.8967 164.9229,-271.3504 159.494,-266.9315"/>
</g>
<!-- Node311561 -->
<g id="node17" class="node">
<title>Node311561</title>
<g id="a_node17"><a xlink:href="quickjs_8c.html#afa1bc2743b3cf892d36544a708453736" target="_top" xlink:title="js_parse_assign_expr2">
<polygon fill="none" stroke="#ff0000" points="687,-87.188 687,-106.188 803,-106.188 803,-87.188 687,-87.188"/>
<text text-anchor="middle" x="745" y="-94.188" font-family="Helvetica,sans-Serif" font-size="10.00" fill="#000000">js_parse_assign_expr2</text>
</a>
</g>
</g>
<!-- Node311531&#45;&gt;Node311561 -->
<g id="edge35" class="edge">
<title>Node311531&#45;&gt;Node311561</title>
<path fill="none" stroke="#191970" d="M151.3897,-267.0784C159.0412,-218.1478 181.4921,-92.8643 214,-68.688 236.0384,-52.298 395.0853,-48.3979 651,-77.688 669.0302,-79.7516 688.7478,-83.5025 705.4472,-87.1296"/>
<polygon fill="#191970" stroke="#191970" points="147.9183,-266.6261 149.8733,-277.039 154.8386,-267.6797 147.9183,-266.6261"/>
</g>
<!-- Node311573 -->
<g id="node18" class="node">
<title>Node311573</title>
<g id="a_node18"><a xlink:href="quickjs_8c.html#abb105b8bb34f4bf0a39ade5bc0252191" target="_top" xlink:title="emit_break">
<polygon fill="none" stroke="#000000" points="712.5,-505.188 712.5,-524.188 777.5,-524.188 777.5,-505.188 712.5,-505.188"/>
<text text-anchor="middle" x="745" y="-512.188" font-family="Helvetica,sans-Serif" font-size="10.00" fill="#000000">emit_break</text>
</a>
</g>
</g>
<!-- Node311531&#45;&gt;Node311573 -->
<g id="edge36" class="edge">
<title>Node311531&#45;&gt;Node311573</title>
<path fill="none" stroke="#191970" d="M151.7316,-306.3725C159.9519,-353.7992 183.2068,-472.2093 214,-495.688 292.3075,-555.3947 609.3269,-528.7276 712.429,-518.2277"/>
<polygon fill="#191970" stroke="#191970" points="155.167,-305.6965 150.0483,-296.4202 148.265,-306.8639 155.167,-305.6965"/>
</g>
<!-- Node311574 -->
<g id="node19" class="node">
<title>Node311574</title>
<g id="a_node19"><a xlink:href="quickjs_8c.html#acea69d5aa6481a035d0833b8bce455f5" target="_top" xlink:title="emit_return">
<polygon fill="none" stroke="#000000" points="399.5,-201.188 399.5,-220.188 464.5,-220.188 464.5,-201.188 399.5,-201.188"/>
<text text-anchor="middle" x="432" y="-208.188" font-family="Helvetica,sans-Serif" font-size="10.00" fill="#000000">emit_return</text>
</a>
</g>
</g>
<!-- Node311531&#45;&gt;Node311574 -->
<g id="edge38" class="edge">
<title>Node311531&#45;&gt;Node311574</title>
<path fill="none" stroke="#191970" d="M173.8598,-272.4159C185.7471,-266.2217 200.2861,-259.3364 214,-254.688 277.8093,-233.0595 355.9188,-220.4728 399.1853,-214.6508"/>
<polygon fill="#191970" stroke="#191970" points="172.1258,-269.3741 164.9614,-277.1794 175.4295,-275.5455 172.1258,-269.3741"/>
</g>
<!-- Node311533 -->
<g id="node4" class="node">
<title>Node311533</title>
<g id="a_node4"><a xlink:href="quickjs_8c.html#a840642c87c5a82d4cc68333376a3b6de" target="_top" xlink:title="js_parse_postfix_expr">
<polygon fill="none" stroke="#ff0000" points="839,-412.188 839,-431.188 951,-431.188 951,-412.188 839,-412.188"/>
<text text-anchor="middle" x="895" y="-419.188" font-family="Helvetica,sans-Serif" font-size="10.00" fill="#000000">js_parse_postfix_expr</text>
</a>
</g>
</g>
<!-- Node311532&#45;&gt;Node311533 -->
<g id="edge3" class="edge">
<title>Node311532&#45;&gt;Node311533</title>
<path fill="none" stroke="#191970" d="M494.8054,-436.382C585.5348,-433.0507 751.8937,-426.9425 838.7865,-423.752"/>
<polygon fill="#191970" stroke="#191970" points="494.526,-432.8898 484.6612,-436.7545 494.7829,-439.8851 494.526,-432.8898"/>
</g>
<!-- Node311532&#45;&gt;Node311541 -->
<g id="edge5" class="edge">
<title>Node311532&#45;&gt;Node311541</title>
<path fill="none" stroke="#191970" d="M482.3532,-425.3238C486.0602,-423.6453 489.6535,-421.773 493,-419.688 512.7456,-407.3858 512.4932,-398.0819 529,-381.688 546.0715,-364.7333 566.6522,-345.7999 579.0129,-334.5829"/>
<polygon fill="#191970" stroke="#191970" points="480.9429,-422.1186 472.9802,-429.1076 483.5633,-428.6097 480.9429,-422.1186"/>
</g>
<!-- Node311533&#45;&gt;Node311533 -->
<g id="edge4" class="edge">
<title>Node311533&#45;&gt;Node311533</title>
<path fill="none" stroke="#191970" d="M868.4941,-440.342C869.6021,-445.6248 878.4374,-449.688 895,-449.688 920.2383,-449.688 927.5337,-440.2533 916.8863,-431.4451"/>
<polygon fill="#191970" stroke="#191970" points="871.6117,-441.9329 873.1137,-431.4451 865.3992,-438.7072 871.6117,-441.9329"/>
</g>
<!-- Node311535 -->
<g id="node6" class="node">
<title>Node311535</title>
<g id="a_node6"><a xlink:href="quickjs_8c.html#a00eb789430243c24dab4a63ad6a79653" target="_top" xlink:title="js_parse_class">
<polygon fill="none" stroke="#ff0000" points="704,-367.188 704,-386.188 786,-386.188 786,-367.188 704,-367.188"/>
<text text-anchor="middle" x="745" y="-374.188" font-family="Helvetica,sans-Serif" font-size="10.00" fill="#000000">js_parse_class</text>
</a>
</g>
</g>
<!-- Node311541&#45;&gt;Node311535 -->
<g id="edge6" class="edge">
<title>Node311541&#45;&gt;Node311535</title>
<path fill="none" stroke="#191970" d="M628.0563,-337.4553C655.3842,-346.6234 691.6335,-358.7844 716.4888,-367.123"/>
<polygon fill="#191970" stroke="#191970" points="629.0233,-334.0881 618.4294,-334.2256 626.7969,-340.7246 629.0233,-334.0881"/>
</g>
<!-- Node311535&#45;&gt;Node311533 -->
<g id="edge7" class="edge">
<title>Node311535&#45;&gt;Node311533</title>
<path fill="none" stroke="#191970" d="M786.4658,-389.1278C810.7224,-396.4048 840.8723,-405.4497 863.2347,-412.1584"/>
<polygon fill="#191970" stroke="#191970" points="787.3952,-385.7525 776.8111,-386.2314 785.3837,-392.4573 787.3952,-385.7525"/>
</g>
<!-- Node311535&#45;&gt;Node311536 -->
<g id="edge8" class="edge">
<title>Node311535&#45;&gt;Node311536</title>
<path fill="none" stroke="#191970" d="M796.3465,-376.688C849.9179,-376.688 933.4087,-376.688 986.8913,-376.688"/>
<polygon fill="#191970" stroke="#191970" points="796.0489,-373.1881 786.0489,-376.688 796.0489,-380.1881 796.0489,-373.1881"/>
</g>
<!-- Node311536&#45;&gt;Node311536 -->
<g id="edge9" class="edge">
<title>Node311536&#45;&gt;Node311536</title>
<path fill="none" stroke="#191970" d="M1012.7683,-402.1459C1015.8999,-406.867 1024.3105,-410.188 1038,-410.188 1060.4648,-410.188 1068.7137,-401.2446 1062.7464,-391.847"/>
<polygon fill="#191970" stroke="#191970" points="1016.2789,-402.0007 1013.2536,-391.847 1009.2867,-401.6712 1016.2789,-402.0007"/>
</g>
<!-- Node311569&#45;&gt;Node311535 -->
<g id="edge13" class="edge">
<title>Node311569&#45;&gt;Node311535</title>
<path fill="none" stroke="#191970" d="M482.4084,-389.1251C497.329,-386.1616 513.7528,-383.3456 529,-381.688 589.5968,-375.1005 660.2964,-374.8614 703.8568,-375.5655"/>
<polygon fill="#191970" stroke="#191970" points="481.4447,-385.7498 472.352,-391.1879 482.8513,-392.6071 481.4447,-385.7498"/>
</g>
<!-- Node311570 -->
<g id="node9" class="node">
<title>Node311570</title>
<g id="a_node9"><a xlink:href="quickjs_8c.html#ac9030f2b94f2e8292ad37ab68fc99bbd" target="_top" xlink:title="add_brand">
<polygon fill="none" stroke="#000000" points="559,-391.188 559,-410.188 621,-410.188 621,-391.188 559,-391.188"/>
<text text-anchor="middle" x="590" y="-398.188" font-family="Helvetica,sans-Serif" font-size="10.00" fill="#000000">add_brand</text>
</a>
</g>
</g>
<!-- Node311569&#45;&gt;Node311570 -->
<g id="edge11" class="edge">
<title>Node311569&#45;&gt;Node311570</title>
<path fill="none" stroke="#191970" d="M496.0772,-400.688C517.7318,-400.688 540.9388,-400.688 558.8668,-400.688"/>
<polygon fill="#191970" stroke="#191970" points="495.9328,-397.1881 485.9327,-400.688 495.9327,-404.1881 495.9328,-397.1881"/>
</g>
<!-- Node311570&#45;&gt;Node311535 -->
<g id="edge12" class="edge">
<title>Node311570&#45;&gt;Node311535</title>
<path fill="none" stroke="#191970" d="M631.2926,-394.2943C653.7823,-390.8121 681.5192,-386.5173 703.9682,-383.0413"/>
<polygon fill="#191970" stroke="#191970" points="630.7132,-390.8423 621.3666,-395.8313 631.7844,-397.7598 630.7132,-390.8423"/>
</g>
<!-- Node311571&#45;&gt;Node311553 -->
<g id="edge15" class="edge">
<title>Node311571&#45;&gt;Node311553</title>
<path fill="none" stroke="#191970" d="M338.1935,-275.3647C350.1825,-273.2334 362.6552,-271.016 374.4433,-268.9203"/>
<polygon fill="#191970" stroke="#191970" points="337.495,-271.9339 328.2621,-277.1303 338.7203,-278.8259 337.495,-271.9339"/>
</g>
<!-- Node311553&#45;&gt;Node311533 -->
<g id="edge17" class="edge">
<title>Node311553&#45;&gt;Node311533</title>
<path fill="none" stroke="#191970" d="M499.6582,-268.0834C576.4233,-280.6665 703.8198,-307.4683 803,-357.688 834.0716,-373.4211 866.6709,-398.4425 883.4704,-412.0711"/>
<polygon fill="#191970" stroke="#191970" points="500.0601,-264.6032 489.6317,-266.4737 498.9505,-271.5147 500.0601,-264.6032"/>
</g>
<!-- Node311553&#45;&gt;Node311541 -->
<g id="edge21" class="edge">
<title>Node311553&#45;&gt;Node311541</title>
<path fill="none" stroke="#191970" d="M475.4909,-277.891C492.172,-285.1585 511.4188,-293.4256 529,-300.688 540.8858,-305.5978 554.1639,-310.8493 565.2893,-315.1842"/>
<polygon fill="#191970" stroke="#191970" points="476.5625,-274.5398 465.9977,-273.7427 473.7595,-280.9541 476.5625,-274.5398"/>
</g>
<!-- Node311553&#45;&gt;Node311536 -->
<g id="edge20" class="edge">
<title>Node311553&#45;&gt;Node311536</title>
<path fill="none" stroke="#191970" d="M499.6789,-258.4824C543.1427,-259.2368 600.6741,-261.8886 651,-269.688 779.3,-289.5717 925.7577,-337.1596 996.0413,-361.6152"/>
<polygon fill="#191970" stroke="#191970" points="499.5571,-254.9804 489.5077,-258.3359 499.4563,-261.9797 499.5571,-254.9804"/>
</g>
<!-- Node311553&#45;&gt;Node311553 -->
<g id="edge16" class="edge">
<title>Node311553&#45;&gt;Node311553</title>
<path fill="none" stroke="#191970" d="M404.2807,-284.1459C407.721,-288.867 416.9608,-292.188 432,-292.188 456.6797,-292.188 465.7418,-283.2446 459.1862,-273.847"/>
<polygon fill="#191970" stroke="#191970" points="407.7921,-284.0146 404.8138,-273.847 400.8014,-283.6527 407.7921,-284.0146"/>
</g>
<!-- Node311553&#45;&gt;Node311538 -->
<g id="edge18" class="edge">
<title>Node311553&#45;&gt;Node311538</title>
<path fill="none" stroke="#191970" d="M498.2401,-240.9477C597.6102,-214.3345 781.8523,-164.9911 859.2708,-144.257"/>
<polygon fill="#191970" stroke="#191970" points="497.0641,-237.6392 488.31,-243.6072 498.8751,-244.4009 497.0641,-237.6392"/>
</g>
<!-- Node311538&#45;&gt;Node311536 -->
<g id="edge19" class="edge">
<title>Node311538&#45;&gt;Node311536</title>
<path fill="none" stroke="#191970" d="M912.6499,-151.5269C924.4657,-163.4088 939.8388,-180.1051 951,-196.688 989.1787,-253.4128 1020.1175,-329.4267 1032.3505,-361.4514"/>
<polygon fill="#191970" stroke="#191970" points="915.0595,-148.9875 905.479,-144.4636 910.1473,-153.9746 915.0595,-148.9875"/>
</g>
<!-- Node311572&#45;&gt;Node311533 -->
<g id="edge24" class="edge">
<title>Node311572&#45;&gt;Node311533</title>
<path fill="none" stroke="#191970" d="M335.1083,-475.5845C433.6624,-473.1387 634.5923,-465.4366 803,-441.688 820.9655,-439.1546 840.6479,-435.058 857.1807,-431.2302"/>
<polygon fill="#191970" stroke="#191970" points="334.9492,-472.0872 325.0356,-475.8249 335.1163,-479.0852 334.9492,-472.0872"/>
</g>
<!-- Node311558&#45;&gt;Node311558 -->
<g id="edge26" class="edge">
<title>Node311558&#45;&gt;Node311558</title>
<path fill="none" stroke="#191970" d="M251.0626,-135.7172C252.341,-140.816 260.1535,-144.688 274.5,-144.688 296.8945,-144.688 303.368,-135.2533 293.9203,-126.4451"/>
<polygon fill="#191970" stroke="#191970" points="254.3158,-137.0124 255.0797,-126.4451 247.8927,-134.2295 254.3158,-137.0124"/>
</g>
<!-- Node311558&#45;&gt;Node311559 -->
<g id="edge27" class="edge">
<title>Node311558&#45;&gt;Node311559</title>
<path fill="none" stroke="#191970" d="M345.5632,-107.6641C353.9698,-106.5966 362.4944,-105.5141 370.7488,-104.466"/>
<polygon fill="#191970" stroke="#191970" points="344.873,-104.2236 335.3936,-108.9555 345.7549,-111.1678 344.873,-104.2236"/>
</g>
<!-- Node311559&#45;&gt;Node311560 -->
<g id="edge28" class="edge">
<title>Node311559&#45;&gt;Node311560</title>
<path fill="none" stroke="#191970" d="M503.2307,-96.688C514.8695,-96.688 526.7354,-96.688 537.8047,-96.688"/>
<polygon fill="#191970" stroke="#191970" points="503.087,-93.1881 493.0869,-96.688 503.0869,-100.1881 503.087,-93.1881"/>
</g>
<!-- Node311560&#45;&gt;Node311561 -->
<g id="edge29" class="edge">
<title>Node311560&#45;&gt;Node311561</title>
<path fill="none" stroke="#191970" d="M652.3735,-90.0536C663.7934,-89.8771 675.6693,-89.9028 686.9565,-90.1308"/>
<polygon fill="#191970" stroke="#191970" points="651.9675,-86.5614 642.0439,-90.2727 652.1159,-93.5598 651.9675,-86.5614"/>
</g>
<!-- Node311561&#45;&gt;Node311538 -->
<g id="edge32" class="edge">
<title>Node311561&#45;&gt;Node311538</title>
<path fill="none" stroke="#191970" d="M792.811,-108.8001C813.7016,-114.0924 837.8472,-120.2093 857.4209,-125.168"/>
<polygon fill="#191970" stroke="#191970" points="793.4047,-105.34 782.8513,-106.277 791.6856,-112.1257 793.4047,-105.34"/>
</g>
<!-- Node311561&#45;&gt;Node311560 -->
<g id="edge30" class="edge">
<title>Node311561&#45;&gt;Node311560</title>
<path fill="none" stroke="#191970" d="M676.8087,-103.3946C665.1467,-103.5039 653.1995,-103.4069 642.0439,-103.1034"/>
<polygon fill="#191970" stroke="#191970" points="677.0091,-106.8921 686.9565,-103.2453 676.9061,-99.8928 677.0091,-106.8921"/>
</g>
<!-- Node311561&#45;&gt;Node311561 -->
<g id="edge31" class="edge">
<title>Node311561&#45;&gt;Node311561</title>
<path fill="none" stroke="#191970" d="M717.0009,-115.342C718.1712,-120.6248 727.5043,-124.688 745,-124.688 771.6602,-124.688 779.3666,-115.2533 768.1194,-106.4451"/>
<polygon fill="#191970" stroke="#191970" points="720.1403,-116.896 721.8806,-106.4451 714.0029,-113.5297 720.1403,-116.896"/>
</g>
<!-- Node311573&#45;&gt;Node311536 -->
<g id="edge37" class="edge">
<title>Node311573&#45;&gt;Node311536</title>
<path fill="none" stroke="#191970" d="M787.4743,-509.3349C830.8128,-502.4965 898.9142,-487.8655 951,-458.688 982.146,-441.2406 1010.7128,-410.2221 1026.1063,-391.7446"/>
<polygon fill="#191970" stroke="#191970" points="786.9152,-505.8795 777.5496,-510.8328 787.9599,-512.8012 786.9152,-505.8795"/>
</g>
<!-- Node311574&#45;&gt;Node311541 -->
<g id="edge41" class="edge">
<title>Node311574&#45;&gt;Node311541</title>
<path fill="none" stroke="#191970" d="M474.0141,-224.0202C480.5786,-226.8069 487.1262,-230.0297 493,-233.688 530.8285,-257.2484 566.751,-297.0062 582.1407,-315.1477"/>
<polygon fill="#191970" stroke="#191970" points="475.0476,-220.6654 464.4609,-220.2496 472.4776,-227.1766 475.0476,-220.6654"/>
</g>
<!-- Node311574&#45;&gt;Node311536 -->
<g id="edge40" class="edge">
<title>Node311574&#45;&gt;Node311536</title>
<path fill="none" stroke="#191970" d="M474.8101,-211.5364C566.6157,-214.8802 787.3598,-231.1588 951,-309.688 978.8436,-323.0499 1006.287,-346.3309 1022.6866,-361.6264"/>
<polygon fill="#191970" stroke="#191970" points="474.8911,-208.0372 464.7808,-211.2046 474.6596,-215.0334 474.8911,-208.0372"/>
</g>
<!-- Node311574&#45;&gt;Node311561 -->
<g id="edge39" class="edge">
<title>Node311574&#45;&gt;Node311561</title>
<path fill="none" stroke="#191970" d="M470.7494,-197.3779C478.3127,-194.2457 486.0476,-190.6497 493,-186.688 510.6112,-176.6526 510.9307,-167.873 529,-158.688 559.7793,-143.0422 651.2538,-119.393 704.7796,-106.2869"/>
<polygon fill="#191970" stroke="#191970" points="469.3525,-194.1664 461.333,-201.0901 471.9199,-200.6786 469.3525,-194.1664"/>
</g>
</g>
</svg>
