<?xml version="1.0" encoding="UTF-8" standalone="no"?>
<!DOCTYPE svg PUBLIC "-//W3C//DTD SVG 1.1//EN"
 "http://www.w3.org/Graphics/SVG/1.1/DTD/svg11.dtd">
<!-- Generated by graphviz version 2.40.1 (20161225.0304)
 -->
<!-- Title: js_promise_all_resolve_element Pages: 1 -->
<svg width="986pt" height="596pt"
 viewBox="0.00 0.00 986.00 596.02" xmlns="http://www.w3.org/2000/svg" xmlns:xlink="http://www.w3.org/1999/xlink">
<g id="graph0" class="graph" transform="scale(1 1) rotate(0) translate(4 592.0214)">
<title>js_promise_all_resolve_element</title>
<!-- Node463531 -->
<g id="node1" class="node">
<title>Node463531</title>
<polygon fill="#bfbfbf" stroke="#000000" points="0,-306.4156 0,-336.4156 116,-336.4156 116,-306.4156 0,-306.4156"/>
<text text-anchor="start" x="8" y="-324.4156" font-family="Helvetica,sans-Serif" font-size="10.00" fill="#000000">js_promise_all_resolve</text>
<text text-anchor="middle" x="58" y="-313.4156" font-family="Helvetica,sans-Serif" font-size="10.00" fill="#000000">_element</text>
</g>
<!-- Node463532 -->
<g id="node2" class="node">
<title>Node463532</title>
<g id="a_node2"><a xlink:href="quickjs_8c.html#a57af8ddae60fbd0080e34d23ce2a04a6" target="_top" xlink:title="js_aggregate_error\l_constructor">
<polygon fill="none" stroke="#000000" points="152,-388.4156 152,-418.4156 249,-418.4156 249,-388.4156 152,-388.4156"/>
<text text-anchor="start" x="160" y="-406.4156" font-family="Helvetica,sans-Serif" font-size="10.00" fill="#000000">js_aggregate_error</text>
<text text-anchor="middle" x="200.5" y="-395.4156" font-family="Helvetica,sans-Serif" font-size="10.00" fill="#000000">_constructor</text>
</a>
</g>
</g>
<!-- Node463531&#45;&gt;Node463532 -->
<g id="edge1" class="edge">
<title>Node463531&#45;&gt;Node463532</title>
<path fill="none" stroke="#191970" d="M84.1367,-336.4556C106.893,-349.5505 140.0792,-368.6471 165.1933,-383.0987"/>
<polygon fill="#191970" stroke="#191970" points="163.6333,-386.2391 174.0464,-388.1931 167.1247,-380.1719 163.6333,-386.2391"/>
</g>
<!-- Node463533 -->
<g id="node3" class="node">
<title>Node463533</title>
<g id="a_node3"><a xlink:href="quickjs_8c.html#a0a8765bd4012467d9139bc24aabcb3ca" target="_top" xlink:title="JS_DefinePropertyValue">
<polygon fill="none" stroke="#000000" points="299,-311.9156 299,-330.9156 423,-330.9156 423,-311.9156 299,-311.9156"/>
<text text-anchor="middle" x="361" y="-318.9156" font-family="Helvetica,sans-Serif" font-size="10.00" fill="#000000">JS_DefinePropertyValue</text>
</a>
</g>
</g>
<!-- Node463531&#45;&gt;Node463533 -->
<g id="edge19" class="edge">
<title>Node463531&#45;&gt;Node463533</title>
<path fill="none" stroke="#191970" d="M116.0629,-321.4156C165.1979,-321.4156 235.8455,-321.4156 288.6525,-321.4156"/>
<polygon fill="#191970" stroke="#191970" points="288.9645,-324.9157 298.9644,-321.4156 288.9644,-317.9157 288.9645,-324.9157"/>
</g>
<!-- Node463561 -->
<g id="node5" class="node">
<title>Node463561</title>
<g id="a_node5"><a xlink:href="quickjs_8h.html#a775522f2d084fc8fa0fcb33f390006b4" target="_top" xlink:title="JS_DupValue">
<polygon fill="none" stroke="#000000" points="640.5,-373.9156 640.5,-392.9156 717.5,-392.9156 717.5,-373.9156 640.5,-373.9156"/>
<text text-anchor="middle" x="679" y="-380.9156" font-family="Helvetica,sans-Serif" font-size="10.00" fill="#000000">JS_DupValue</text>
</a>
</g>
</g>
<!-- Node463531&#45;&gt;Node463561 -->
<g id="edge22" class="edge">
<title>Node463531&#45;&gt;Node463561</title>
<path fill="none" stroke="#191970" d="M116.0966,-330.5972C127.9587,-332.3229 140.3687,-334.0208 152,-335.4156 327.447,-356.4534 536.7413,-372.974 629.9866,-379.8897"/>
<polygon fill="#191970" stroke="#191970" points="630.0114,-383.401 640.2419,-380.6462 630.5265,-376.4199 630.0114,-383.401"/>
</g>
<!-- Node463562 -->
<g id="node6" class="node">
<title>Node463562</title>
<g id="a_node6"><a xlink:href="quickjs_8h.html#afaa20c47565bc704c6c85f3d77254e7d" target="_top" xlink:title="JS_FreeValue">
<polygon fill="none" stroke="#ff0000" points="774,-335.9156 774,-354.9156 852,-354.9156 852,-335.9156 774,-335.9156"/>
<text text-anchor="middle" x="813" y="-342.9156" font-family="Helvetica,sans-Serif" font-size="10.00" fill="#000000">JS_FreeValue</text>
</a>
</g>
</g>
<!-- Node463531&#45;&gt;Node463562 -->
<g id="edge23" class="edge">
<title>Node463531&#45;&gt;Node463562</title>
<path fill="none" stroke="#191970" d="M60.2138,-336.4902C66.6043,-373.9616 88.8406,-471.328 152,-513.4156 201.2791,-546.2536 225.8088,-519.637 285,-521.4156 487.6853,-527.5058 563.4654,-550.1259 734,-440.4156 764.5058,-420.7902 789.1803,-385.6407 802.4166,-364.0391"/>
<polygon fill="#191970" stroke="#191970" points="805.5845,-365.5588 807.6732,-355.1719 799.563,-361.9892 805.5845,-365.5588"/>
</g>
<!-- Node463598 -->
<g id="node7" class="node">
<title>Node463598</title>
<g id="a_node7"><a xlink:href="quickjs_8h.html#ad80a83d73e9b7d872b88fbf2943aebe9" target="_top" xlink:title="JS_IsException">
<polygon fill="none" stroke="#000000" points="892,-221.9156 892,-240.9156 978,-240.9156 978,-221.9156 892,-221.9156"/>
<text text-anchor="middle" x="935" y="-228.9156" font-family="Helvetica,sans-Serif" font-size="10.00" fill="#000000">JS_IsException</text>
</a>
</g>
</g>
<!-- Node463531&#45;&gt;Node463598 -->
<g id="edge24" class="edge">
<title>Node463531&#45;&gt;Node463598</title>
<path fill="none" stroke="#191970" d="M60.0423,-336.5514C66.1663,-375.8004 88.0855,-481.5391 152,-535.4156 225.1876,-597.1087 265.2792,-587.4156 361,-587.4156 361,-587.4156 361,-587.4156 679,-587.4156 846.2656,-587.4156 914.9912,-325.1677 931.111,-250.8382"/>
<polygon fill="#191970" stroke="#191970" points="934.5602,-251.4427 933.1838,-240.9377 927.7087,-250.0082 934.5602,-251.4427"/>
</g>
<!-- Node463773 -->
<g id="node13" class="node">
<title>Node463773</title>
<g id="a_node13"><a xlink:href="quickjs_8c.html#a1a4c02a29525d5cb2085dd8bca3af350" target="_top" xlink:title="JS_Call">
<polygon fill="none" stroke="#ff0000" points="175,-159.9156 175,-178.9156 226,-178.9156 226,-159.9156 175,-159.9156"/>
<text text-anchor="middle" x="200.5" y="-166.9156" font-family="Helvetica,sans-Serif" font-size="10.00" fill="#000000">JS_Call</text>
</a>
</g>
</g>
<!-- Node463531&#45;&gt;Node463773 -->
<g id="edge18" class="edge">
<title>Node463531&#45;&gt;Node463773</title>
<path fill="none" stroke="#191970" d="M65.9711,-306.1746C80.2166,-280.1534 112.3038,-226.7456 152,-193.4156 156.3169,-189.7909 161.2745,-186.547 166.3352,-183.7044"/>
<polygon fill="#191970" stroke="#191970" points="168.1453,-186.7094 175.4399,-179.0257 164.9458,-180.4833 168.1453,-186.7094"/>
</g>
<!-- Node463768 -->
<g id="node14" class="node">
<title>Node463768</title>
<g id="a_node14"><a xlink:href="quickjs_8c.html#a12aed667595f49667e0095f0a028e0d4" target="_top" xlink:title="JS_DefinePropertyValueUint32">
<polygon fill="none" stroke="#ff0000" points="285,-31.9156 285,-50.9156 437,-50.9156 437,-31.9156 285,-31.9156"/>
<text text-anchor="middle" x="361" y="-38.9156" font-family="Helvetica,sans-Serif" font-size="10.00" fill="#000000">JS_DefinePropertyValueUint32</text>
</a>
</g>
</g>
<!-- Node463531&#45;&gt;Node463768 -->
<g id="edge20" class="edge">
<title>Node463531&#45;&gt;Node463768</title>
<path fill="none" stroke="#191970" d="M68.4008,-306.3478C84.1178,-284.6413 115.941,-244.6362 152,-221.4156 190.286,-196.7608 216.9441,-220.759 249,-188.4156 284.914,-152.1795 251.6259,-118.0035 285,-79.4156 294.151,-68.835 306.9507,-60.8789 319.4403,-55.0547"/>
<polygon fill="#191970" stroke="#191970" points="321.0571,-58.1696 328.8652,-51.0084 318.2955,-51.7373 321.0571,-58.1696"/>
</g>
<!-- Node463905 -->
<g id="node15" class="node">
<title>Node463905</title>
<g id="a_node15"><a xlink:href="quickjs_8h.html#a93abffa925714e249a6aa2f4ae7900f6" target="_top" xlink:title="JS_NewBool">
<polygon fill="none" stroke="#000000" points="163.5,-121.9156 163.5,-140.9156 237.5,-140.9156 237.5,-121.9156 163.5,-121.9156"/>
<text text-anchor="middle" x="200.5" y="-128.9156" font-family="Helvetica,sans-Serif" font-size="10.00" fill="#000000">JS_NewBool</text>
</a>
</g>
</g>
<!-- Node463531&#45;&gt;Node463905 -->
<g id="edge25" class="edge">
<title>Node463531&#45;&gt;Node463905</title>
<path fill="none" stroke="#191970" d="M62.3723,-306.3755C72.6446,-273.5576 101.3509,-194.9079 152,-150.4156 153.9023,-148.7445 155.9688,-147.2116 158.1406,-145.8068"/>
<polygon fill="#191970" stroke="#191970" points="159.826,-148.8743 166.9158,-141.0011 156.4637,-142.7347 159.826,-148.8743"/>
</g>
<!-- Node463933 -->
<g id="node16" class="node">
<title>Node463933</title>
<g id="a_node16"><a xlink:href="quickjs_8c.html#afc0d8ea75588216ec132a6e1655524a7" target="_top" xlink:title="JS_NewObject">
<polygon fill="none" stroke="#000000" points="159,-450.9156 159,-469.9156 242,-469.9156 242,-450.9156 159,-450.9156"/>
<text text-anchor="middle" x="200.5" y="-457.9156" font-family="Helvetica,sans-Serif" font-size="10.00" fill="#000000">JS_NewObject</text>
</a>
</g>
</g>
<!-- Node463531&#45;&gt;Node463933 -->
<g id="edge26" class="edge">
<title>Node463531&#45;&gt;Node463933</title>
<path fill="none" stroke="#191970" d="M69.3386,-336.7427C85.9661,-358.6141 118.6257,-399.3438 152,-428.4156 158.998,-434.5114 167.23,-440.3587 174.9053,-445.3488"/>
<polygon fill="#191970" stroke="#191970" points="173.2218,-448.4244 183.5523,-450.7765 176.9433,-442.4956 173.2218,-448.4244"/>
</g>
<!-- Node463605 -->
<g id="node17" class="node">
<title>Node463605</title>
<g id="a_node17"><a xlink:href="quickjs_8c.html#a0ee6a3654a6016393fac5e1c108f403a" target="_top" xlink:title="JS_NewString">
<polygon fill="none" stroke="#ff0000" points="160.5,-83.9156 160.5,-102.9156 240.5,-102.9156 240.5,-83.9156 160.5,-83.9156"/>
<text text-anchor="middle" x="200.5" y="-90.9156" font-family="Helvetica,sans-Serif" font-size="10.00" fill="#000000">JS_NewString</text>
</a>
</g>
</g>
<!-- Node463531&#45;&gt;Node463605 -->
<g id="edge28" class="edge">
<title>Node463531&#45;&gt;Node463605</title>
<path fill="none" stroke="#191970" d="M60.7271,-306.2546C68.3054,-268.3541 93.0686,-168.5122 152,-112.4156 153.6498,-110.8451 155.4445,-109.3998 157.3395,-108.0701"/>
<polygon fill="#191970" stroke="#191970" points="159.2629,-111.0006 166.1529,-102.952 155.7476,-104.9472 159.2629,-111.0006"/>
</g>
<!-- Node463967 -->
<g id="node18" class="node">
<title>Node463967</title>
<g id="a_node18"><a xlink:href="quickjs_8c.html#a525bb5bdbab2566313d9bcd876838d9d" target="_top" xlink:title="JS_ToBool">
<polygon fill="none" stroke="#000000" points="498,-425.9156 498,-444.9156 563,-444.9156 563,-425.9156 498,-425.9156"/>
<text text-anchor="middle" x="530.5" y="-432.9156" font-family="Helvetica,sans-Serif" font-size="10.00" fill="#000000">JS_ToBool</text>
</a>
</g>
</g>
<!-- Node463531&#45;&gt;Node463967 -->
<g id="edge29" class="edge">
<title>Node463531&#45;&gt;Node463967</title>
<path fill="none" stroke="#191970" d="M62.0734,-336.8543C71.5945,-369.548 98.6501,-445.5374 152,-479.4156 259.0401,-547.388 314.9225,-526.6927 437,-492.4156 465.3131,-484.4658 493.5482,-465.3117 511.4621,-451.3962"/>
<polygon fill="#191970" stroke="#191970" points="513.7615,-454.0389 519.3821,-445.0579 509.3876,-448.5736 513.7615,-454.0389"/>
</g>
<!-- Node463831 -->
<g id="node20" class="node">
<title>Node463831</title>
<g id="a_node20"><a xlink:href="quickjs_8c.html#a4073bd2b4f247bf6077cd956759193b9" target="_top" xlink:title="JS_ToInt32">
<polygon fill="none" stroke="#000000" points="497,-273.9156 497,-292.9156 564,-292.9156 564,-273.9156 497,-273.9156"/>
<text text-anchor="middle" x="530.5" y="-280.9156" font-family="Helvetica,sans-Serif" font-size="10.00" fill="#000000">JS_ToInt32</text>
</a>
</g>
</g>
<!-- Node463531&#45;&gt;Node463831 -->
<g id="edge33" class="edge">
<title>Node463531&#45;&gt;Node463831</title>
<path fill="none" stroke="#191970" d="M116.3101,-316.4338C162.1574,-312.5413 227.6441,-307.0353 285,-302.4156 355.4642,-296.74 437.333,-290.4687 486.4701,-286.7396"/>
<polygon fill="#191970" stroke="#191970" points="487.0336,-290.207 496.7404,-285.961 486.5044,-283.2271 487.0336,-290.207"/>
</g>
<!-- Node463968 -->
<g id="node21" class="node">
<title>Node463968</title>
<g id="a_node21"><a xlink:href="quickjs_8c.html#ae34b58b803dc65ed20305c6201ca711b" target="_top" xlink:title="remainingElementsCount_add">
<polygon fill="none" stroke="#000000" points="287.5,-88.9156 287.5,-107.9156 434.5,-107.9156 434.5,-88.9156 287.5,-88.9156"/>
<text text-anchor="middle" x="361" y="-95.9156" font-family="Helvetica,sans-Serif" font-size="10.00" fill="#000000">remainingElementsCount_add</text>
</a>
</g>
</g>
<!-- Node463531&#45;&gt;Node463968 -->
<g id="edge36" class="edge">
<title>Node463531&#45;&gt;Node463968</title>
<path fill="none" stroke="#191970" d="M84.5655,-306.2949C103.2957,-295.7386 129.0347,-281.4417 152,-269.4156 194.6116,-247.1012 210.5871,-250.3661 249,-221.4156 290.4689,-190.1618 328.9353,-142.1352 348.1605,-116.3137"/>
<polygon fill="#191970" stroke="#191970" points="351.041,-118.3042 354.1317,-108.1702 345.3959,-114.165 351.041,-118.3042"/>
</g>
<!-- Node463532&#45;&gt;Node463533 -->
<g id="edge2" class="edge">
<title>Node463532&#45;&gt;Node463533</title>
<path fill="none" stroke="#191970" d="M229.9382,-388.3755C259.3712,-373.338 304.2958,-350.3859 333.1542,-335.6421"/>
<polygon fill="#191970" stroke="#191970" points="334.9667,-338.6464 342.2794,-330.98 331.7819,-332.4129 334.9667,-338.6464"/>
</g>
<!-- Node463532&#45;&gt;Node463561 -->
<g id="edge15" class="edge">
<title>Node463532&#45;&gt;Node463561</title>
<path fill="none" stroke="#191970" d="M249.0144,-401.3878C340.6399,-397.5581 538.1754,-389.3016 630.0984,-385.4595"/>
<polygon fill="#191970" stroke="#191970" points="630.3986,-388.9501 640.2437,-385.0355 630.1062,-381.9562 630.3986,-388.9501"/>
</g>
<!-- Node463532&#45;&gt;Node463598 -->
<g id="edge16" class="edge">
<title>Node463532&#45;&gt;Node463598</title>
<path fill="none" stroke="#191970" d="M249.3427,-415.386C303.58,-428.0136 393.9243,-447.0795 473,-454.4156 588.6701,-465.1466 623.9651,-477.6584 734,-440.4156 794.5106,-419.9349 811.3081,-410.0623 856,-364.4156 889.8202,-329.8727 915.1378,-278.1508 927.1889,-250.4866"/>
<polygon fill="#191970" stroke="#191970" points="930.4672,-251.7208 931.1482,-241.1479 924.0224,-248.9885 930.4672,-251.7208"/>
</g>
<!-- Node463757 -->
<g id="node12" class="node">
<title>Node463757</title>
<g id="a_node12"><a xlink:href="quickjs_8c.html#a73738c650f11459db0d7af3dcdf8316b" target="_top" xlink:title="JS_NewObjectProtoClass">
<polygon fill="none" stroke="#ff0000" points="295.5,-463.9156 295.5,-482.9156 426.5,-482.9156 426.5,-463.9156 295.5,-463.9156"/>
<text text-anchor="middle" x="361" y="-470.9156" font-family="Helvetica,sans-Serif" font-size="10.00" fill="#000000">JS_NewObjectProtoClass</text>
</a>
</g>
</g>
<!-- Node463532&#45;&gt;Node463757 -->
<g id="edge17" class="edge">
<title>Node463532&#45;&gt;Node463757</title>
<path fill="none" stroke="#191970" d="M225.3809,-418.615C241.8863,-428.2794 264.2503,-440.5889 285,-449.4156 294.8419,-453.6022 305.6692,-457.4486 315.9897,-460.7786"/>
<polygon fill="#191970" stroke="#191970" points="315.0917,-464.1648 325.6805,-463.8073 317.1798,-457.4835 315.0917,-464.1648"/>
</g>
<!-- Node463534 -->
<g id="node4" class="node">
<title>Node463534</title>
<g id="a_node4"><a xlink:href="quickjs_8c.html#ab50618f1bf78e444caa6da0e3e2785d7" target="_top" xlink:title="JS_DefineProperty">
<polygon fill="none" stroke="#ff0000" points="481,-221.9156 481,-240.9156 580,-240.9156 580,-221.9156 481,-221.9156"/>
<text text-anchor="middle" x="530.5" y="-228.9156" font-family="Helvetica,sans-Serif" font-size="10.00" fill="#000000">JS_DefineProperty</text>
</a>
</g>
</g>
<!-- Node463533&#45;&gt;Node463534 -->
<g id="edge3" class="edge">
<title>Node463533&#45;&gt;Node463534</title>
<path fill="none" stroke="#191970" d="M379.1395,-311.784C408.9598,-295.9502 468.5032,-264.3342 503.3595,-245.8264"/>
<polygon fill="#191970" stroke="#191970" points="505.3002,-248.7588 512.491,-240.9779 502.0174,-242.5763 505.3002,-248.7588"/>
</g>
<!-- Node463533&#45;&gt;Node463562 -->
<g id="edge14" class="edge">
<title>Node463533&#45;&gt;Node463562</title>
<path fill="none" stroke="#191970" d="M423.3741,-324.7275C514.1821,-329.5491 680.954,-338.4043 763.722,-342.799"/>
<polygon fill="#191970" stroke="#191970" points="763.6969,-346.3025 773.8684,-343.3378 764.0681,-339.3124 763.6969,-346.3025"/>
</g>
<!-- Node463534&#45;&gt;Node463561 -->
<g id="edge4" class="edge">
<title>Node463534&#45;&gt;Node463561</title>
<path fill="none" stroke="#191970" d="M551.7596,-241.0474C563.216,-246.8444 577.1786,-254.9344 588,-264.4156 622.5389,-294.677 652.7221,-339.8022 668.1283,-364.8933"/>
<polygon fill="#191970" stroke="#191970" points="665.3012,-366.9832 673.458,-373.7447 671.298,-363.3723 665.3012,-366.9832"/>
</g>
<!-- Node463534&#45;&gt;Node463562 -->
<g id="edge5" class="edge">
<title>Node463534&#45;&gt;Node463562</title>
<path fill="none" stroke="#191970" d="M554.0999,-240.9391C604.3682,-261.2243 722.1182,-308.7411 779.8722,-332.0472"/>
<polygon fill="#191970" stroke="#191970" points="778.6854,-335.3424 789.2686,-335.839 781.305,-328.851 778.6854,-335.3424"/>
</g>
<!-- Node463534&#45;&gt;Node463598 -->
<g id="edge6" class="edge">
<title>Node463534&#45;&gt;Node463598</title>
<path fill="none" stroke="#191970" d="M580.0996,-231.4156C656.6191,-231.4156 802.8352,-231.4156 881.5952,-231.4156"/>
<polygon fill="#191970" stroke="#191970" points="881.7834,-234.9157 891.7833,-231.4156 881.7833,-227.9157 881.7834,-234.9157"/>
</g>
<!-- Node463658 -->
<g id="node8" class="node">
<title>Node463658</title>
<g id="a_node8"><a xlink:href="quickjs_8h.html#a2050bc428da1c65ac7eb87c3fa3b0392" target="_top" xlink:title="JS_NewInt32">
<polygon fill="none" stroke="#000000" points="775,-31.9156 775,-50.9156 851,-50.9156 851,-31.9156 775,-31.9156"/>
<text text-anchor="middle" x="813" y="-38.9156" font-family="Helvetica,sans-Serif" font-size="10.00" fill="#000000">JS_NewInt32</text>
</a>
</g>
</g>
<!-- Node463534&#45;&gt;Node463658 -->
<g id="edge7" class="edge">
<title>Node463534&#45;&gt;Node463658</title>
<path fill="none" stroke="#191970" d="M544.8976,-221.7322C590.8026,-190.858 733.9721,-94.5671 790.0987,-56.8182"/>
<polygon fill="#191970" stroke="#191970" points="792.2868,-59.5645 798.6314,-51.0794 788.3802,-53.756 792.2868,-59.5645"/>
</g>
<!-- Node463682 -->
<g id="node9" class="node">
<title>Node463682</title>
<g id="a_node9"><a xlink:href="quickjs_8h.html#a88259aa0da61ac754402c64ccecee116" target="_top" xlink:title="JS_NewUint32">
<polygon fill="none" stroke="#ff0000" points="637.5,-31.9156 637.5,-50.9156 720.5,-50.9156 720.5,-31.9156 637.5,-31.9156"/>
<text text-anchor="middle" x="679" y="-38.9156" font-family="Helvetica,sans-Serif" font-size="10.00" fill="#000000">JS_NewUint32</text>
</a>
</g>
</g>
<!-- Node463534&#45;&gt;Node463682 -->
<g id="edge8" class="edge">
<title>Node463534&#45;&gt;Node463682</title>
<path fill="none" stroke="#191970" d="M533.479,-221.7725C542.5588,-193.852 572.4554,-111.9768 624,-65.4156 628.3583,-61.4786 633.4643,-58.1117 638.7773,-55.2548"/>
<polygon fill="#191970" stroke="#191970" points="640.3163,-58.3985 647.8187,-50.9175 637.2886,-52.0871 640.3163,-58.3985"/>
</g>
<!-- Node463833 -->
<g id="node10" class="node">
<title>Node463833</title>
<g id="a_node10"><a xlink:href="quickjs_8c.html#aee75cc1546e19479e3ccda58f3b50a96" target="_top" xlink:title="JS_SetPropertyValue">
<polygon fill="none" stroke="#ff0000" points="624,-183.9156 624,-202.9156 734,-202.9156 734,-183.9156 624,-183.9156"/>
<text text-anchor="middle" x="679" y="-190.9156" font-family="Helvetica,sans-Serif" font-size="10.00" fill="#000000">JS_SetPropertyValue</text>
</a>
</g>
</g>
<!-- Node463534&#45;&gt;Node463833 -->
<g id="edge10" class="edge">
<title>Node463534&#45;&gt;Node463833</title>
<path fill="none" stroke="#191970" d="M567.9728,-221.8266C587.3925,-216.8572 611.3025,-210.7388 631.9542,-205.4542"/>
<polygon fill="#191970" stroke="#191970" points="632.9765,-208.8055 641.7966,-202.9356 631.2411,-202.024 632.9765,-208.8055"/>
</g>
<!-- Node463682&#45;&gt;Node463658 -->
<g id="edge9" class="edge">
<title>Node463682&#45;&gt;Node463658</title>
<path fill="none" stroke="#191970" d="M720.6639,-41.4156C734.5122,-41.4156 750.054,-41.4156 764.3805,-41.4156"/>
<polygon fill="#191970" stroke="#191970" points="764.5561,-44.9157 774.5561,-41.4156 764.5561,-37.9157 764.5561,-44.9157"/>
</g>
<!-- Node463833&#45;&gt;Node463562 -->
<g id="edge11" class="edge">
<title>Node463833&#45;&gt;Node463562</title>
<path fill="none" stroke="#191970" d="M687.5897,-203.0669C698.426,-215.2498 717.6249,-236.8587 734,-255.4156 756.1066,-280.4676 781.5897,-309.5329 797.4987,-327.7007"/>
<polygon fill="#191970" stroke="#191970" points="795.2624,-330.4598 804.4827,-335.6787 800.5294,-325.849 795.2624,-330.4598"/>
</g>
<!-- Node463707 -->
<g id="node11" class="node">
<title>Node463707</title>
<g id="a_node11"><a xlink:href="quickjs_8c.html#a643088ab23784b7f3c6ff94c37228256" target="_top" xlink:title="JS_ToInt32Free">
<polygon fill="none" stroke="#ff0000" points="770,-183.9156 770,-202.9156 856,-202.9156 856,-183.9156 770,-183.9156"/>
<text text-anchor="middle" x="813" y="-190.9156" font-family="Helvetica,sans-Serif" font-size="10.00" fill="#000000">JS_ToInt32Free</text>
</a>
</g>
</g>
<!-- Node463833&#45;&gt;Node463707 -->
<g id="edge12" class="edge">
<title>Node463833&#45;&gt;Node463707</title>
<path fill="none" stroke="#191970" d="M734.2766,-193.4156C742.6822,-193.4156 751.3419,-193.4156 759.7041,-193.4156"/>
<polygon fill="#191970" stroke="#191970" points="759.7196,-196.9157 769.7195,-193.4156 759.7195,-189.9157 759.7196,-196.9157"/>
</g>
<!-- Node463707&#45;&gt;Node463598 -->
<g id="edge13" class="edge">
<title>Node463707&#45;&gt;Node463598</title>
<path fill="none" stroke="#191970" d="M843.7858,-203.0046C859.1013,-207.775 877.8166,-213.6043 894.2998,-218.7384"/>
<polygon fill="#191970" stroke="#191970" points="893.6356,-222.1974 904.2241,-221.8296 895.7174,-215.5141 893.6356,-222.1974"/>
</g>
<!-- Node463768&#45;&gt;Node463682 -->
<g id="edge21" class="edge">
<title>Node463768&#45;&gt;Node463682</title>
<path fill="none" stroke="#191970" d="M406.5521,-31.9032C426.8001,-28.1378 450.989,-24.2693 473,-22.4156 523.9308,-18.1262 537.1593,-17.1646 588,-22.4156 602.4686,-23.9099 618.0283,-26.7069 632.1177,-29.7042"/>
<polygon fill="#191970" stroke="#191970" points="631.5607,-33.1655 642.0805,-31.9063 633.0716,-26.3305 631.5607,-33.1655"/>
</g>
<!-- Node463933&#45;&gt;Node463757 -->
<g id="edge27" class="edge">
<title>Node463933&#45;&gt;Node463757</title>
<path fill="none" stroke="#191970" d="M242.2505,-463.7972C255.3816,-464.8608 270.3151,-466.0704 285.0544,-467.2642"/>
<polygon fill="#191970" stroke="#191970" points="284.953,-470.7674 295.2029,-468.0862 285.5182,-463.7902 284.953,-470.7674"/>
</g>
<!-- Node463967&#45;&gt;Node463561 -->
<g id="edge30" class="edge">
<title>Node463967&#45;&gt;Node463561</title>
<path fill="none" stroke="#191970" d="M557.4877,-425.8369C576.1548,-419.2246 601.5727,-410.247 624,-402.4156 629.6823,-400.4313 635.6986,-398.3416 641.5858,-396.3029"/>
<polygon fill="#191970" stroke="#191970" points="642.9823,-399.5235 651.2897,-392.9479 640.6949,-392.9077 642.9823,-399.5235"/>
</g>
<!-- Node463782 -->
<g id="node19" class="node">
<title>Node463782</title>
<g id="a_node19"><a xlink:href="quickjs_8c.html#a2bf30c9cddfe98a32535843202495069" target="_top" xlink:title="JS_ToBoolFree">
<polygon fill="none" stroke="#000000" points="637,-411.9156 637,-430.9156 721,-430.9156 721,-411.9156 637,-411.9156"/>
<text text-anchor="middle" x="679" y="-418.9156" font-family="Helvetica,sans-Serif" font-size="10.00" fill="#000000">JS_ToBoolFree</text>
</a>
</g>
</g>
<!-- Node463967&#45;&gt;Node463782 -->
<g id="edge31" class="edge">
<title>Node463967&#45;&gt;Node463782</title>
<path fill="none" stroke="#191970" d="M563.089,-432.3432C581.7253,-430.5862 605.5389,-428.3412 626.728,-426.3436"/>
<polygon fill="#191970" stroke="#191970" points="627.2576,-429.8092 636.8849,-425.386 626.6005,-422.8401 627.2576,-429.8092"/>
</g>
<!-- Node463782&#45;&gt;Node463562 -->
<g id="edge32" class="edge">
<title>Node463782&#45;&gt;Node463562</title>
<path fill="none" stroke="#191970" d="M711.6503,-411.8979C719.1686,-409.2281 727.0064,-406.046 734,-402.4156 756.0374,-390.9756 778.7806,-373.9105 794.1722,-361.4345"/>
<polygon fill="#191970" stroke="#191970" points="796.4332,-364.1065 801.9156,-355.0404 791.9761,-358.7089 796.4332,-364.1065"/>
</g>
<!-- Node463831&#45;&gt;Node463561 -->
<g id="edge34" class="edge">
<title>Node463831&#45;&gt;Node463561</title>
<path fill="none" stroke="#191970" d="M544.7388,-293.004C570.507,-310.3563 625.0774,-347.104 656.1285,-368.0139"/>
<polygon fill="#191970" stroke="#191970" points="654.3365,-371.0267 664.5861,-373.7092 658.2464,-365.2204 654.3365,-371.0267"/>
</g>
<!-- Node463831&#45;&gt;Node463707 -->
<g id="edge35" class="edge">
<title>Node463831&#45;&gt;Node463707</title>
<path fill="none" stroke="#191970" d="M560.465,-273.8692C611.6371,-257.5666 715.8774,-224.3573 773.1336,-206.1163"/>
<polygon fill="#191970" stroke="#191970" points="774.4514,-209.3699 782.9171,-202.9995 772.3265,-202.7002 774.4514,-209.3699"/>
</g>
<!-- Node463968&#45;&gt;Node463598 -->
<g id="edge39" class="edge">
<title>Node463968&#45;&gt;Node463598</title>
<path fill="none" stroke="#191970" d="M434.9,-98.6898C534.3763,-101.4881 715.1233,-115.2285 856,-174.4156 879.1547,-184.1436 902.0291,-201.7656 917.157,-214.8499"/>
<polygon fill="#191970" stroke="#191970" points="914.9186,-217.5431 924.7171,-221.5731 919.5704,-212.3123 914.9186,-217.5431"/>
</g>
<!-- Node463968&#45;&gt;Node463658 -->
<g id="edge40" class="edge">
<title>Node463968&#45;&gt;Node463658</title>
<path fill="none" stroke="#191970" d="M385.5114,-88.7724C401.0427,-82.049 421.1214,-72.1894 437,-60.4156 455.6876,-46.5589 451.6287,-31.608 473,-22.4156 575.0712,21.4885 710.5265,-9.3136 775.3317,-28.7931"/>
<polygon fill="#191970" stroke="#191970" points="774.5226,-32.2062 785.1099,-31.8091 776.5857,-25.5172 774.5226,-32.2062"/>
</g>
<!-- Node463968&#45;&gt;Node463707 -->
<g id="edge44" class="edge">
<title>Node463968&#45;&gt;Node463707</title>
<path fill="none" stroke="#191970" d="M389.749,-107.9506C412.2215,-115.1441 444.3475,-124.8604 473,-131.4156 587.6028,-157.6344 618.7716,-151.0991 734,-174.4156 744.3729,-176.5145 755.4508,-179.015 765.9298,-181.5015"/>
<polygon fill="#191970" stroke="#191970" points="765.2088,-184.9278 775.7505,-183.8675 766.8484,-178.1226 765.2088,-184.9278"/>
</g>
<!-- Node463680 -->
<g id="node22" class="node">
<title>Node463680</title>
<g id="a_node22"><a xlink:href="quickjs_8c.html#aeb97957655d979e9fe56c955da2b2d4b" target="_top" xlink:title="JS_GetPropertyUint32">
<polygon fill="none" stroke="#ff0000" points="473,-31.9156 473,-50.9156 588,-50.9156 588,-31.9156 473,-31.9156"/>
<text text-anchor="middle" x="530.5" y="-38.9156" font-family="Helvetica,sans-Serif" font-size="10.00" fill="#000000">JS_GetPropertyUint32</text>
</a>
</g>
</g>
<!-- Node463968&#45;&gt;Node463680 -->
<g id="edge37" class="edge">
<title>Node463968&#45;&gt;Node463680</title>
<path fill="none" stroke="#191970" d="M389.0564,-88.8274C411.6974,-81.1066 444.3783,-69.9997 473,-60.4156 479.0845,-58.3781 485.5359,-56.2323 491.8335,-54.1455"/>
<polygon fill="#191970" stroke="#191970" points="493.1332,-57.4022 501.5283,-50.939 490.935,-50.7563 493.1332,-57.4022"/>
</g>
<!-- Node463969 -->
<g id="node23" class="node">
<title>Node463969</title>
<g id="a_node23"><a xlink:href="quickjs_8c.html#aae909eaec829081b270012adfcd717a4" target="_top" xlink:title="JS_SetPropertyUint32">
<polygon fill="none" stroke="#000000" points="473.5,-69.9156 473.5,-88.9156 587.5,-88.9156 587.5,-69.9156 473.5,-69.9156"/>
<text text-anchor="middle" x="530.5" y="-76.9156" font-family="Helvetica,sans-Serif" font-size="10.00" fill="#000000">JS_SetPropertyUint32</text>
</a>
</g>
</g>
<!-- Node463968&#45;&gt;Node463969 -->
<g id="edge41" class="edge">
<title>Node463968&#45;&gt;Node463969</title>
<path fill="none" stroke="#191970" d="M434.8521,-90.1372C444.3518,-89.0723 454.0373,-87.9866 463.4204,-86.9348"/>
<polygon fill="#191970" stroke="#191970" points="463.9123,-90.4017 473.4602,-85.8094 463.1325,-83.4452 463.9123,-90.4017"/>
</g>
<!-- Node463680&#45;&gt;Node463682 -->
<g id="edge38" class="edge">
<title>Node463680&#45;&gt;Node463682</title>
<path fill="none" stroke="#191970" d="M588.3392,-41.4156C601.0639,-41.4156 614.4655,-41.4156 626.9458,-41.4156"/>
<polygon fill="#191970" stroke="#191970" points="627.1775,-44.9157 637.1774,-41.4156 627.1774,-37.9157 627.1775,-44.9157"/>
</g>
<!-- Node463969&#45;&gt;Node463682 -->
<g id="edge42" class="edge">
<title>Node463969&#45;&gt;Node463682</title>
<path fill="none" stroke="#191970" d="M567.9728,-69.8266C587.3925,-64.8572 611.3025,-58.7388 631.9542,-53.4542"/>
<polygon fill="#191970" stroke="#191970" points="632.9765,-56.8055 641.7966,-50.9356 631.2411,-50.024 632.9765,-56.8055"/>
</g>
<!-- Node463969&#45;&gt;Node463833 -->
<g id="edge43" class="edge">
<title>Node463969&#45;&gt;Node463833</title>
<path fill="none" stroke="#191970" d="M542.9056,-88.9391C568.3926,-108.5048 626.8805,-153.4046 658.2394,-177.4782"/>
<polygon fill="#191970" stroke="#191970" points="656.2514,-180.3644 666.3149,-183.6775 660.514,-174.8118 656.2514,-180.3644"/>
</g>
</g>
</svg>
