<?xml version="1.0" encoding="UTF-8" standalone="no"?>
<!DOCTYPE svg PUBLIC "-//W3C//DTD SVG 1.1//EN"
 "http://www.w3.org/Graphics/SVG/1.1/DTD/svg11.dtd">
<!-- Generated by graphviz version 2.40.1 (20161225.0304)
 -->
<!-- Title: seal_template_obj Pages: 1 -->
<svg width="517pt" height="96pt"
 viewBox="0.00 0.00 517.00 95.50" xmlns="http://www.w3.org/2000/svg" xmlns:xlink="http://www.w3.org/1999/xlink">
<g id="graph0" class="graph" transform="scale(1 1) rotate(0) translate(4 91.5)">
<title>seal_template_obj</title>
<!-- Node316965 -->
<g id="node1" class="node">
<title>Node316965</title>
<polygon fill="#bfbfbf" stroke="#000000" points="0,-31.5 0,-50.5 95,-50.5 95,-31.5 0,-31.5"/>
<text text-anchor="middle" x="47.5" y="-38.5" font-family="Helvetica,sans-Serif" font-size="10.00" fill="#000000">seal_template_obj</text>
</g>
<!-- Node316966 -->
<g id="node2" class="node">
<title>Node316966</title>
<g id="a_node2"><a xlink:href="quickjs_8c.html#a035daca514f14aacc1e0cff81d8e423a" target="_top" xlink:title="js_parse_template">
<polygon fill="none" stroke="#000000" points="131,-31.5 131,-50.5 227,-50.5 227,-31.5 131,-31.5"/>
<text text-anchor="middle" x="179" y="-38.5" font-family="Helvetica,sans-Serif" font-size="10.00" fill="#000000">js_parse_template</text>
</a>
</g>
</g>
<!-- Node316965&#45;&gt;Node316966 -->
<g id="edge1" class="edge">
<title>Node316965&#45;&gt;Node316966</title>
<path fill="none" stroke="#191970" d="M105.5715,-41C114.0562,-41 122.7138,-41 130.9687,-41"/>
<polygon fill="#191970" stroke="#191970" points="105.3465,-37.5001 95.3465,-41 105.3465,-44.5001 105.3465,-37.5001"/>
</g>
<!-- Node316967 -->
<g id="node3" class="node">
<title>Node316967</title>
<g id="a_node3"><a xlink:href="quickjs_8c.html#a840642c87c5a82d4cc68333376a3b6de" target="_top" xlink:title="js_parse_postfix_expr">
<polygon fill="none" stroke="#000000" points="263,-31.5 263,-50.5 375,-50.5 375,-31.5 263,-31.5"/>
<text text-anchor="middle" x="319" y="-38.5" font-family="Helvetica,sans-Serif" font-size="10.00" fill="#000000">js_parse_postfix_expr</text>
</a>
</g>
</g>
<!-- Node316966&#45;&gt;Node316967 -->
<g id="edge2" class="edge">
<title>Node316966&#45;&gt;Node316967</title>
<path fill="none" stroke="#191970" d="M237.2384,-41C245.6057,-41 254.2037,-41 262.5358,-41"/>
<polygon fill="#191970" stroke="#191970" points="237.1801,-37.5001 227.1801,-41 237.18,-44.5001 237.1801,-37.5001"/>
</g>
<!-- Node316967&#45;&gt;Node316967 -->
<g id="edge4" class="edge">
<title>Node316967&#45;&gt;Node316967</title>
<path fill="none" stroke="#191970" d="M292.9584,-60.0292C294.3789,-65.128 303.0594,-69 319,-69 343.8828,-69 351.0755,-59.5653 340.5781,-50.7571"/>
<polygon fill="#191970" stroke="#191970" points="296.238,-61.2855 297.4219,-50.7571 289.9308,-58.2493 296.238,-61.2855"/>
</g>
<!-- Node316968 -->
<g id="node4" class="node">
<title>Node316968</title>
<g id="a_node4"><a xlink:href="quickjs_8c.html#a12b48ce2b1f247b494fdde07dbe7f232" target="_top" xlink:title="js_parse_left_hand\l_side_expr">
<polygon fill="none" stroke="#ff0000" points="411,-57 411,-87 509,-87 509,-57 411,-57"/>
<text text-anchor="start" x="419" y="-75" font-family="Helvetica,sans-Serif" font-size="10.00" fill="#000000">js_parse_left_hand</text>
<text text-anchor="middle" x="460" y="-64" font-family="Helvetica,sans-Serif" font-size="10.00" fill="#000000">_side_expr</text>
</a>
</g>
</g>
<!-- Node316967&#45;&gt;Node316968 -->
<g id="edge3" class="edge">
<title>Node316967&#45;&gt;Node316968</title>
<path fill="none" stroke="#191970" d="M372.3131,-52.7213C384.8526,-55.4782 398.1647,-58.405 410.5272,-61.123"/>
<polygon fill="#191970" stroke="#191970" points="372.9735,-49.283 362.4552,-50.554 371.4703,-56.1197 372.9735,-49.283"/>
</g>
<!-- Node316989 -->
<g id="node5" class="node">
<title>Node316989</title>
<g id="a_node5"><a xlink:href="quickjs_8c.html#a9f26c765171d977db1796791f035f1f9" target="_top" xlink:title="js_parse_unary">
<polygon fill="none" stroke="#ff0000" points="418.5,-.5 418.5,-19.5 501.5,-19.5 501.5,-.5 418.5,-.5"/>
<text text-anchor="middle" x="460" y="-7.5" font-family="Helvetica,sans-Serif" font-size="10.00" fill="#000000">js_parse_unary</text>
</a>
</g>
</g>
<!-- Node316967&#45;&gt;Node316989 -->
<g id="edge5" class="edge">
<title>Node316967&#45;&gt;Node316989</title>
<path fill="none" stroke="#191970" d="M372.2814,-29.2856C387.5349,-25.932 403.9338,-22.3266 418.3777,-19.151"/>
<polygon fill="#191970" stroke="#191970" points="371.4703,-25.8803 362.4552,-31.446 372.9735,-32.717 371.4703,-25.8803"/>
</g>
<!-- Node316989&#45;&gt;Node316989 -->
<g id="edge6" class="edge">
<title>Node316989&#45;&gt;Node316989</title>
<path fill="none" stroke="#191970" d="M433.9584,-29.0292C435.3789,-34.128 444.0594,-38 460,-38 484.8828,-38 492.0755,-28.5653 481.5781,-19.7571"/>
<polygon fill="#191970" stroke="#191970" points="437.238,-30.2855 438.4219,-19.7571 430.9308,-27.2493 437.238,-30.2855"/>
</g>
</g>
</svg>
