<?xml version="1.0" encoding="UTF-8" standalone="no"?>
<!DOCTYPE svg PUBLIC "-//W3C//DTD SVG 1.1//EN"
 "http://www.w3.org/Graphics/SVG/1.1/DTD/svg11.dtd">
<!-- Generated by graphviz version 2.40.1 (20161225.0304)
 -->
<!-- Title: js_has_unscopable Pages: 1 -->
<svg width="566pt" height="1013pt"
 viewBox="0.00 0.00 566.00 1013.00" xmlns="http://www.w3.org/2000/svg" xmlns:xlink="http://www.w3.org/1999/xlink">
<g id="graph0" class="graph" transform="scale(1 1) rotate(0) translate(4 1009)">
<title>js_has_unscopable</title>
<!-- Node270068 -->
<g id="node1" class="node">
<title>Node270068</title>
<polygon fill="#bfbfbf" stroke="#000000" points="0,-274.5 0,-293.5 100,-293.5 100,-274.5 0,-274.5"/>
<text text-anchor="middle" x="50" y="-281.5" font-family="Helvetica,sans-Serif" font-size="10.00" fill="#000000">js_has_unscopable</text>
</g>
<!-- Node270069 -->
<g id="node2" class="node">
<title>Node270069</title>
<g id="a_node2"><a xlink:href="quickjs_8c.html#ac2894ff4edcdb4e6841bcce9c76081e3" target="_top" xlink:title="JS_CallInternal">
<polygon fill="none" stroke="#000000" points="136,-274.5 136,-293.5 219,-293.5 219,-274.5 136,-274.5"/>
<text text-anchor="middle" x="177.5" y="-281.5" font-family="Helvetica,sans-Serif" font-size="10.00" fill="#000000">JS_CallInternal</text>
</a>
</g>
</g>
<!-- Node270068&#45;&gt;Node270069 -->
<g id="edge1" class="edge">
<title>Node270068&#45;&gt;Node270069</title>
<path fill="none" stroke="#191970" d="M110.1514,-284C118.8453,-284 127.6289,-284 135.8524,-284"/>
<polygon fill="#191970" stroke="#191970" points="110.0255,-280.5001 100.0254,-284 110.0254,-287.5001 110.0255,-280.5001"/>
</g>
<!-- Node270069&#45;&gt;Node270069 -->
<g id="edge40" class="edge">
<title>Node270069&#45;&gt;Node270069</title>
<path fill="none" stroke="#191970" d="M154.0626,-303.0292C155.341,-308.128 163.1535,-312 177.5,-312 199.8945,-312 206.368,-302.5653 196.9203,-293.7571"/>
<polygon fill="#191970" stroke="#191970" points="157.3158,-304.3243 158.0797,-293.7571 150.8927,-301.5415 157.3158,-304.3243"/>
</g>
<!-- Node270070 -->
<g id="node3" class="node">
<title>Node270070</title>
<g id="a_node3"><a xlink:href="quickjs_8c.html#ade71a22dc56e7371392393df663b28b3" target="_top" xlink:title="async_func_resume">
<polygon fill="none" stroke="#000000" points="270,-892.5 270,-911.5 374,-911.5 374,-892.5 270,-892.5"/>
<text text-anchor="middle" x="322" y="-899.5" font-family="Helvetica,sans-Serif" font-size="10.00" fill="#000000">async_func_resume</text>
</a>
</g>
</g>
<!-- Node270069&#45;&gt;Node270070 -->
<g id="edge2" class="edge">
<title>Node270069&#45;&gt;Node270070</title>
<path fill="none" stroke="#191970" d="M182.0805,-303.5901C204.6381,-400.0646 303.4849,-822.8142 319.7352,-892.3141"/>
<polygon fill="#191970" stroke="#191970" points="185.4547,-302.6478 179.7697,-293.7073 178.6385,-304.2416 185.4547,-302.6478"/>
</g>
<!-- Node270089 -->
<g id="node8" class="node">
<title>Node270089</title>
<g id="a_node8"><a xlink:href="quickjs_8c.html#a1a4c02a29525d5cb2085dd8bca3af350" target="_top" xlink:title="JS_Call">
<polygon fill="none" stroke="#ff0000" points="296.5,-366.5 296.5,-385.5 347.5,-385.5 347.5,-366.5 296.5,-366.5"/>
<text text-anchor="middle" x="322" y="-373.5" font-family="Helvetica,sans-Serif" font-size="10.00" fill="#000000">JS_Call</text>
</a>
</g>
</g>
<!-- Node270069&#45;&gt;Node270089 -->
<g id="edge7" class="edge">
<title>Node270069&#45;&gt;Node270089</title>
<path fill="none" stroke="#191970" d="M209.5346,-298.6777C242.4699,-317.7532 291.7662,-349.8516 312.3895,-366.3007"/>
<polygon fill="#191970" stroke="#191970" points="211.1399,-295.5643 200.7164,-293.6666 207.6814,-301.6503 211.1399,-295.5643"/>
</g>
<!-- Node270175 -->
<g id="node29" class="node">
<title>Node270175</title>
<g id="a_node29"><a xlink:href="quickjs_8c.html#ad35594576a14c10812efaf958c99af8a" target="_top" xlink:title="JS_CallConstructorInternal">
<polygon fill="none" stroke="#ff0000" points="255,-274.5 255,-293.5 389,-293.5 389,-274.5 255,-274.5"/>
<text text-anchor="middle" x="322" y="-281.5" font-family="Helvetica,sans-Serif" font-size="10.00" fill="#000000">JS_CallConstructorInternal</text>
</a>
</g>
</g>
<!-- Node270069&#45;&gt;Node270175 -->
<g id="edge34" class="edge">
<title>Node270069&#45;&gt;Node270175</title>
<path fill="none" stroke="#191970" d="M229.5209,-277.4909C237.7845,-277.2892 246.4321,-277.2142 254.9815,-277.2658"/>
<polygon fill="#191970" stroke="#191970" points="229.1798,-273.9998 219.2954,-277.814 229.401,-280.9963 229.1798,-273.9998"/>
</g>
<!-- Node270189 -->
<g id="node30" class="node">
<title>Node270189</title>
<g id="a_node30"><a xlink:href="quickjs_8c.html#a75f6ee5e4235a7dc99889f3d2eb2c147" target="_top" xlink:title="JS_CallFree">
<polygon fill="none" stroke="#ff0000" points="286.5,-91.5 286.5,-110.5 357.5,-110.5 357.5,-91.5 286.5,-91.5"/>
<text text-anchor="middle" x="322" y="-98.5" font-family="Helvetica,sans-Serif" font-size="10.00" fill="#000000">JS_CallFree</text>
</a>
</g>
</g>
<!-- Node270069&#45;&gt;Node270189 -->
<g id="edge36" class="edge">
<title>Node270069&#45;&gt;Node270189</title>
<path fill="none" stroke="#191970" d="M180.7023,-264.4197C188.2042,-229.2158 209.8044,-156.4964 255,-116 263.742,-108.167 275.2224,-102.8425 286.2049,-99.7033"/>
<polygon fill="#191970" stroke="#191970" points="177.2265,-263.9582 178.75,-274.4429 184.0974,-265.2965 177.2265,-263.9582"/>
</g>
<!-- Node270071 -->
<g id="node4" class="node">
<title>Node270071</title>
<g id="a_node4"><a xlink:href="quickjs_8c.html#ac90552b1f1659acb3dae9a4c62479a30" target="_top" xlink:title="js_generator_function_call">
<polygon fill="none" stroke="#ff0000" points="426.5,-985.5 426.5,-1004.5 556.5,-1004.5 556.5,-985.5 426.5,-985.5"/>
<text text-anchor="middle" x="491.5" y="-992.5" font-family="Helvetica,sans-Serif" font-size="10.00" fill="#000000">js_generator_function_call</text>
</a>
</g>
</g>
<!-- Node270070&#45;&gt;Node270071 -->
<g id="edge3" class="edge">
<title>Node270070&#45;&gt;Node270071</title>
<path fill="none" stroke="#191970" d="M340.4671,-918.3133C360.1641,-934.9499 392.8865,-960.4617 425,-976 432.782,-979.7654 441.4469,-982.9157 449.8825,-985.499"/>
<polygon fill="#191970" stroke="#191970" points="342.488,-915.4351 332.6226,-911.5717 337.9255,-920.7439 342.488,-915.4351"/>
</g>
<!-- Node270080 -->
<g id="node5" class="node">
<title>Node270080</title>
<g id="a_node5"><a xlink:href="quickjs_8c.html#a1bf6b62983e8fff99c0a5d5a9f486115" target="_top" xlink:title="js_async_function_resume">
<polygon fill="none" stroke="#ff0000" points="425,-848.5 425,-867.5 558,-867.5 558,-848.5 425,-848.5"/>
<text text-anchor="middle" x="491.5" y="-855.5" font-family="Helvetica,sans-Serif" font-size="10.00" fill="#000000">js_async_function_resume</text>
</a>
</g>
</g>
<!-- Node270070&#45;&gt;Node270080 -->
<g id="edge4" class="edge">
<title>Node270070&#45;&gt;Node270080</title>
<path fill="none" stroke="#191970" d="M368.4651,-889.9383C395.6496,-882.8815 429.4877,-874.0976 454.7928,-867.5287"/>
<polygon fill="#191970" stroke="#191970" points="367.5787,-886.5523 358.779,-892.4527 369.3376,-893.3277 367.5787,-886.5523"/>
</g>
<!-- Node270087 -->
<g id="node6" class="node">
<title>Node270087</title>
<g id="a_node6"><a xlink:href="quickjs_8c.html#a89b019c704a2d2914bc30b30a72040b3" target="_top" xlink:title="js_async_generator\l_resume_next">
<polygon fill="none" stroke="#000000" points="441,-936 441,-966 542,-966 542,-936 441,-936"/>
<text text-anchor="start" x="449" y="-954" font-family="Helvetica,sans-Serif" font-size="10.00" fill="#000000">js_async_generator</text>
<text text-anchor="middle" x="491.5" y="-943" font-family="Helvetica,sans-Serif" font-size="10.00" fill="#000000">_resume_next</text>
</a>
</g>
</g>
<!-- Node270070&#45;&gt;Node270087 -->
<g id="edge5" class="edge">
<title>Node270070&#45;&gt;Node270087</title>
<path fill="none" stroke="#191970" d="M364.9372,-914.4125C388.0226,-921.0862 416.6309,-929.3564 440.805,-936.3448"/>
<polygon fill="#191970" stroke="#191970" points="365.6623,-910.9789 355.0837,-911.564 363.7183,-917.7036 365.6623,-910.9789"/>
</g>
<!-- Node270088 -->
<g id="node7" class="node">
<title>Node270088</title>
<g id="a_node7"><a xlink:href="quickjs_8c.html#ae19867da709929c072f05e90301835a4" target="_top" xlink:title="js_async_generator\l_function_call">
<polygon fill="none" stroke="#ff0000" points="441,-887 441,-917 542,-917 542,-887 441,-887"/>
<text text-anchor="start" x="449" y="-905" font-family="Helvetica,sans-Serif" font-size="10.00" fill="#000000">js_async_generator</text>
<text text-anchor="middle" x="491.5" y="-894" font-family="Helvetica,sans-Serif" font-size="10.00" fill="#000000">_function_call</text>
</a>
</g>
</g>
<!-- Node270070&#45;&gt;Node270088 -->
<g id="edge6" class="edge">
<title>Node270070&#45;&gt;Node270088</title>
<path fill="none" stroke="#191970" d="M384.388,-902C402.9885,-902 423.1368,-902 440.8866,-902"/>
<polygon fill="#191970" stroke="#191970" points="384.2387,-898.5001 374.2387,-902 384.2386,-905.5001 384.2387,-898.5001"/>
</g>
<!-- Node270089&#45;&gt;Node270069 -->
<g id="edge14" class="edge">
<title>Node270089&#45;&gt;Node270069</title>
<path fill="none" stroke="#191970" d="M290.2443,-361.4837C257.24,-342.3885 207.5848,-310.0599 186.981,-293.5959"/>
<polygon fill="#191970" stroke="#191970" points="288.649,-364.6027 299.0736,-366.4945 292.104,-358.5148 288.649,-364.6027"/>
</g>
<!-- Node270089&#45;&gt;Node270080 -->
<g id="edge15" class="edge">
<title>Node270089&#45;&gt;Node270080</title>
<path fill="none" stroke="#191970" d="M323.7375,-395.7477C331.14,-475.5029 362.5618,-772.7381 425,-839 428.6232,-842.845 432.9653,-845.9296 437.6723,-848.4016"/>
<polygon fill="#191970" stroke="#191970" points="327.2073,-395.2551 322.8188,-385.6119 320.2359,-395.8871 327.2073,-395.2551"/>
</g>
<!-- Node270090 -->
<g id="node9" class="node">
<title>Node270090</title>
<g id="a_node9"><a xlink:href="structqjs_1_1js__traits_3_01std_1_1function_3_01R_07Args_8_8_8_08_4_01_4.html#ac449e51d3fe10c6c115596fa6ec278ee" target="_top" xlink:title="qjs::js_traits\&lt; std\l::function\&lt; R(Args...)\l\&gt; \&gt;::unwrap">
<polygon fill="none" stroke="#000000" points="437,-600.5 437,-641.5 546,-641.5 546,-600.5 437,-600.5"/>
<text text-anchor="start" x="445" y="-629.5" font-family="Helvetica,sans-Serif" font-size="10.00" fill="#000000">qjs::js_traits&lt; std</text>
<text text-anchor="start" x="445" y="-618.5" font-family="Helvetica,sans-Serif" font-size="10.00" fill="#000000">::function&lt; R(Args...)</text>
<text text-anchor="middle" x="491.5" y="-607.5" font-family="Helvetica,sans-Serif" font-size="10.00" fill="#000000">&gt; &gt;::unwrap</text>
</a>
</g>
</g>
<!-- Node270089&#45;&gt;Node270090 -->
<g id="edge8" class="edge">
<title>Node270089&#45;&gt;Node270090</title>
<path fill="none" stroke="#191970" d="M326.4623,-395.375C336.8697,-436.57 366.4328,-533.763 425,-591 428.5327,-594.4525 432.5324,-597.5493 436.7748,-600.3186"/>
<polygon fill="#191970" stroke="#191970" points="329.8332,-394.4238 324.0752,-385.5302 323.0303,-396.0734 329.8332,-394.4238"/>
</g>
<!-- Node270091 -->
<g id="node10" class="node">
<title>Node270091</title>
<g id="a_node10"><a xlink:href="quickjs-libc_8c.html#abb1cbe3fdf905e81f603a3a0bfce475a" target="_top" xlink:title="call_handler">
<polygon fill="none" stroke="#000000" points="457.5,-562.5 457.5,-581.5 525.5,-581.5 525.5,-562.5 457.5,-562.5"/>
<text text-anchor="middle" x="491.5" y="-569.5" font-family="Helvetica,sans-Serif" font-size="10.00" fill="#000000">call_handler</text>
</a>
</g>
</g>
<!-- Node270089&#45;&gt;Node270091 -->
<g id="edge9" class="edge">
<title>Node270089&#45;&gt;Node270091</title>
<path fill="none" stroke="#191970" d="M327.9669,-395.7267C340.0804,-432.3807 371.0815,-511.0638 425,-553 434.2883,-560.2242 446.2106,-564.7017 457.3889,-567.4768"/>
<polygon fill="#191970" stroke="#191970" points="331.173,-394.2588 324.8095,-385.7879 324.5016,-396.3783 331.173,-394.2588"/>
</g>
<!-- Node270092 -->
<g id="node11" class="node">
<title>Node270092</title>
<g id="a_node11"><a xlink:href="quickjs-libc_8c.html#a9fa4c190ba56314c7ed9b00bbc7ad0f9" target="_top" xlink:title="handle_posted_message">
<polygon fill="none" stroke="#000000" points="429,-524.5 429,-543.5 554,-543.5 554,-524.5 429,-524.5"/>
<text text-anchor="middle" x="491.5" y="-531.5" font-family="Helvetica,sans-Serif" font-size="10.00" fill="#000000">handle_posted_message</text>
</a>
</g>
</g>
<!-- Node270089&#45;&gt;Node270092 -->
<g id="edge10" class="edge">
<title>Node270089&#45;&gt;Node270092</title>
<path fill="none" stroke="#191970" d="M330.8132,-394.8068C345.8433,-424.8129 379.3,-483.3519 425,-515 430.6266,-518.8965 437.0444,-521.9998 443.6221,-524.4699"/>
<polygon fill="#191970" stroke="#191970" points="333.9551,-393.2643 326.4314,-385.8048 327.6611,-396.328 333.9551,-393.2643"/>
</g>
<!-- Node270093 -->
<g id="node12" class="node">
<title>Node270093</title>
<g id="a_node12"><a xlink:href="quickjs_8c.html#aa049793cc8648d35fe81876a2543ca4e" target="_top" xlink:title="JS_GetIterator2">
<polygon fill="none" stroke="#ff0000" points="448.5,-486.5 448.5,-505.5 534.5,-505.5 534.5,-486.5 448.5,-486.5"/>
<text text-anchor="middle" x="491.5" y="-493.5" font-family="Helvetica,sans-Serif" font-size="10.00" fill="#000000">JS_GetIterator2</text>
</a>
</g>
</g>
<!-- Node270089&#45;&gt;Node270093 -->
<g id="edge11" class="edge">
<title>Node270089&#45;&gt;Node270093</title>
<path fill="none" stroke="#191970" d="M335.3664,-393.7373C353.3204,-416.3395 387.3525,-455.0958 425,-477 432.161,-481.1665 440.2929,-484.4672 448.3519,-487.0663"/>
<polygon fill="#191970" stroke="#191970" points="337.9953,-391.4163 329.0957,-385.6676 332.4679,-395.7114 337.9953,-391.4163"/>
</g>
<!-- Node270125 -->
<g id="node13" class="node">
<title>Node270125</title>
<g id="a_node13"><a xlink:href="quickjs_8c.html#ad6303fbd3add4afa0cb64b0aa6d431ce" target="_top" xlink:title="JS_IteratorNext2">
<polygon fill="none" stroke="#ff0000" points="446,-448.5 446,-467.5 537,-467.5 537,-448.5 446,-448.5"/>
<text text-anchor="middle" x="491.5" y="-455.5" font-family="Helvetica,sans-Serif" font-size="10.00" fill="#000000">JS_IteratorNext2</text>
</a>
</g>
</g>
<!-- Node270089&#45;&gt;Node270125 -->
<g id="edge12" class="edge">
<title>Node270089&#45;&gt;Node270125</title>
<path fill="none" stroke="#191970" d="M343.4657,-391.5216C363.6737,-405.5409 395.2058,-425.922 425,-439 433.3559,-442.6678 442.6114,-445.8323 451.496,-448.4693"/>
<polygon fill="#191970" stroke="#191970" points="345.2159,-388.4733 335.0246,-385.577 341.1853,-394.1965 345.2159,-388.4733"/>
</g>
<!-- Node270129 -->
<g id="node14" class="node">
<title>Node270129</title>
<g id="a_node14"><a xlink:href="quickjs_8c.html#afd4ef2d701fa0702f321925b61c57bbf" target="_top" xlink:title="js_call_bound_function">
<polygon fill="none" stroke="#ff0000" points="433.5,-410.5 433.5,-429.5 549.5,-429.5 549.5,-410.5 433.5,-410.5"/>
<text text-anchor="middle" x="491.5" y="-417.5" font-family="Helvetica,sans-Serif" font-size="10.00" fill="#000000">js_call_bound_function</text>
</a>
</g>
</g>
<!-- Node270089&#45;&gt;Node270129 -->
<g id="edge13" class="edge">
<title>Node270089&#45;&gt;Node270129</title>
<path fill="none" stroke="#191970" d="M357.6969,-385.2665C386.2137,-392.669 426.0299,-403.0048 454.8058,-410.4747"/>
<polygon fill="#191970" stroke="#191970" points="358.302,-381.8076 347.7434,-382.6827 356.5432,-388.583 358.302,-381.8076"/>
</g>
<!-- Node270130 -->
<g id="node15" class="node">
<title>Node270130</title>
<g id="a_node15"><a xlink:href="quickjs_8c.html#a3e852026d167fa03c673f86697dd3e67" target="_top" xlink:title="js_async_generator\l_resolve_or_reject">
<polygon fill="none" stroke="#ff0000" points="441,-361 441,-391 542,-391 542,-361 441,-361"/>
<text text-anchor="start" x="449" y="-379" font-family="Helvetica,sans-Serif" font-size="10.00" fill="#000000">js_async_generator</text>
<text text-anchor="middle" x="491.5" y="-368" font-family="Helvetica,sans-Serif" font-size="10.00" fill="#000000">_resolve_or_reject</text>
</a>
</g>
</g>
<!-- Node270089&#45;&gt;Node270130 -->
<g id="edge16" class="edge">
<title>Node270089&#45;&gt;Node270130</title>
<path fill="none" stroke="#191970" d="M357.8847,-376C382.0145,-376 414.1716,-376 440.8919,-376"/>
<polygon fill="#191970" stroke="#191970" points="357.7434,-372.5001 347.7434,-376 357.7434,-379.5001 357.7434,-372.5001"/>
</g>
<!-- Node270133 -->
<g id="node16" class="node">
<title>Node270133</title>
<g id="a_node16"><a xlink:href="quickjs_8c.html#a2355fabf91f59212ea65baba1b0b7c1b" target="_top" xlink:title="js_async_generator_next">
<polygon fill="none" stroke="#000000" points="429,-322.5 429,-341.5 554,-341.5 554,-322.5 429,-322.5"/>
<text text-anchor="middle" x="491.5" y="-329.5" font-family="Helvetica,sans-Serif" font-size="10.00" fill="#000000">js_async_generator_next</text>
</a>
</g>
</g>
<!-- Node270089&#45;&gt;Node270133 -->
<g id="edge17" class="edge">
<title>Node270089&#45;&gt;Node270133</title>
<path fill="none" stroke="#191970" d="M357.6969,-366.7335C386.2137,-359.331 426.0299,-348.9952 454.8058,-341.5253"/>
<polygon fill="#191970" stroke="#191970" points="356.5432,-363.417 347.7434,-369.3173 358.302,-370.1924 356.5432,-363.417"/>
</g>
<!-- Node270134 -->
<g id="node17" class="node">
<title>Node270134</title>
<g id="a_node17"><a xlink:href="quickjs_8c.html#adc0280beaa04d2b8fcaf05a82ab26c74" target="_top" xlink:title="js_link_module">
<polygon fill="none" stroke="#ff0000" points="451,-266.5 451,-285.5 532,-285.5 532,-266.5 451,-266.5"/>
<text text-anchor="middle" x="491.5" y="-273.5" font-family="Helvetica,sans-Serif" font-size="10.00" fill="#000000">js_link_module</text>
</a>
</g>
</g>
<!-- Node270089&#45;&gt;Node270134 -->
<g id="edge18" class="edge">
<title>Node270089&#45;&gt;Node270134</title>
<path fill="none" stroke="#191970" d="M345.7375,-361.0979C366.5068,-348.1514 397.5605,-329.0161 425,-313 441.4309,-303.4095 460.4181,-292.9013 473.8868,-285.5423"/>
<polygon fill="#191970" stroke="#191970" points="343.8638,-358.1416 337.2377,-366.4087 347.573,-364.0781 343.8638,-358.1416"/>
</g>
<!-- Node270138 -->
<g id="node18" class="node">
<title>Node270138</title>
<g id="a_node18"><a xlink:href="quickjs_8c.html#a6357b7fdae71c70c140e78e6c20cb5c2" target="_top" xlink:title="js_dynamic_import_job">
<polygon fill="none" stroke="#ff0000" points="433.5,-228.5 433.5,-247.5 549.5,-247.5 549.5,-228.5 433.5,-228.5"/>
<text text-anchor="middle" x="491.5" y="-235.5" font-family="Helvetica,sans-Serif" font-size="10.00" fill="#000000">js_dynamic_import_job</text>
</a>
</g>
</g>
<!-- Node270089&#45;&gt;Node270138 -->
<g id="edge20" class="edge">
<title>Node270089&#45;&gt;Node270138</title>
<path fill="none" stroke="#191970" d="M338.313,-358.9947C352.127,-344.4148 372.2908,-322.7052 389,-303 405.7901,-283.1993 403.4645,-271.4981 425,-257 430.777,-253.1108 437.3497,-250.0087 444.0612,-247.5365"/>
<polygon fill="#191970" stroke="#191970" points="335.7152,-356.6475 331.3541,-366.3032 340.7847,-361.4745 335.7152,-356.6475"/>
</g>
<!-- Node270142 -->
<g id="node19" class="node">
<title>Node270142</title>
<g id="a_node19"><a xlink:href="quickjs_8c.html#a8d4b24969540aff427939eeda47f451d" target="_top" xlink:title="js_function_apply">
<polygon fill="none" stroke="#ff0000" points="445.5,-76.5 445.5,-95.5 537.5,-95.5 537.5,-76.5 445.5,-76.5"/>
<text text-anchor="middle" x="491.5" y="-83.5" font-family="Helvetica,sans-Serif" font-size="10.00" fill="#000000">js_function_apply</text>
</a>
</g>
</g>
<!-- Node270089&#45;&gt;Node270142 -->
<g id="edge21" class="edge">
<title>Node270089&#45;&gt;Node270142</title>
<path fill="none" stroke="#191970" d="M342.299,-359.5976C357.6111,-346.0634 377.8252,-325.4865 389,-303 428.8049,-222.9027 364.9429,-171.2808 425,-105 430.4824,-98.9495 437.7442,-94.7728 445.4534,-91.9012"/>
<polygon fill="#191970" stroke="#191970" points="339.7143,-357.2024 334.3852,-366.3594 344.2616,-362.5243 339.7143,-357.2024"/>
</g>
<!-- Node270145 -->
<g id="node20" class="node">
<title>Node270145</title>
<g id="a_node20"><a xlink:href="quickjs_8c.html#a677ad630a103e1f3d5129e0549112b50" target="_top" xlink:title="js_function_call">
<polygon fill="none" stroke="#000000" points="449.5,-190.5 449.5,-209.5 533.5,-209.5 533.5,-190.5 449.5,-190.5"/>
<text text-anchor="middle" x="491.5" y="-197.5" font-family="Helvetica,sans-Serif" font-size="10.00" fill="#000000">js_function_call</text>
</a>
</g>
</g>
<!-- Node270089&#45;&gt;Node270145 -->
<g id="edge23" class="edge">
<title>Node270089&#45;&gt;Node270145</title>
<path fill="none" stroke="#191970" d="M340.436,-359.3048C355.0412,-345.3428 375.2135,-324.3334 389,-303 411.0459,-268.8861 394.5199,-245.8467 425,-219 431.8479,-212.9684 440.4908,-208.8435 449.2594,-206.0248"/>
<polygon fill="#191970" stroke="#191970" points="337.8788,-356.9044 332.9706,-366.2938 342.6628,-362.0145 337.8788,-356.9044"/>
</g>
<!-- Node270096 -->
<g id="node21" class="node">
<title>Node270096</title>
<g id="a_node21"><a xlink:href="quickjs_8c.html#a5e32da9a43002cb96dcbd62a1a340144" target="_top" xlink:title="js_array_from">
<polygon fill="none" stroke="#000000" points="453.5,-152.5 453.5,-171.5 529.5,-171.5 529.5,-152.5 453.5,-152.5"/>
<text text-anchor="middle" x="491.5" y="-159.5" font-family="Helvetica,sans-Serif" font-size="10.00" fill="#000000">js_array_from</text>
</a>
</g>
</g>
<!-- Node270089&#45;&gt;Node270096 -->
<g id="edge24" class="edge">
<title>Node270089&#45;&gt;Node270096</title>
<path fill="none" stroke="#191970" d="M341.3822,-359.4856C356.3583,-345.7604 376.5663,-324.9826 389,-303 416.8326,-253.7923 384.8524,-220.8023 425,-181 432.589,-173.4763 442.9387,-168.8875 453.2124,-166.1023"/>
<polygon fill="#191970" stroke="#191970" points="338.8193,-357.0814 333.683,-366.348 343.477,-362.307 338.8193,-357.0814"/>
</g>
<!-- Node270122 -->
<g id="node22" class="node">
<title>Node270122</title>
<g id="a_node22"><a xlink:href="quickjs_8c.html#aa0bbf08a7e91459c68a312fba7016c6d" target="_top" xlink:title="js_array_every">
<polygon fill="none" stroke="#000000" points="451.5,-114.5 451.5,-133.5 531.5,-133.5 531.5,-114.5 451.5,-114.5"/>
<text text-anchor="middle" x="491.5" y="-121.5" font-family="Helvetica,sans-Serif" font-size="10.00" fill="#000000">js_array_every</text>
</a>
</g>
</g>
<!-- Node270089&#45;&gt;Node270122 -->
<g id="edge25" class="edge">
<title>Node270089&#45;&gt;Node270122</title>
<path fill="none" stroke="#191970" d="M341.7794,-359.7018C356.9792,-346.0983 377.2942,-325.3786 389,-303 422.784,-238.4134 374.949,-195.9876 425,-143 431.9258,-135.6678 441.4663,-131.1018 451.16,-128.2759"/>
<polygon fill="#191970" stroke="#191970" points="339.2106,-357.2967 333.9485,-366.4925 343.7966,-362.5852 339.2106,-357.2967"/>
</g>
<!-- Node270146 -->
<g id="node23" class="node">
<title>Node270146</title>
<g id="a_node23"><a xlink:href="quickjs_8c.html#a36c1692489542a86dd79a7d39ab8ff95" target="_top" xlink:title="js_array_reduce">
<polygon fill="none" stroke="#000000" points="448.5,-810.5 448.5,-829.5 534.5,-829.5 534.5,-810.5 448.5,-810.5"/>
<text text-anchor="middle" x="491.5" y="-817.5" font-family="Helvetica,sans-Serif" font-size="10.00" fill="#000000">js_array_reduce</text>
</a>
</g>
</g>
<!-- Node270089&#45;&gt;Node270146 -->
<g id="edge26" class="edge">
<title>Node270089&#45;&gt;Node270146</title>
<path fill="none" stroke="#191970" d="M324.1388,-395.5625C332.751,-470.8717 367.2298,-740.8395 425,-801 431.3206,-807.5821 439.7493,-811.9306 448.4773,-814.7916"/>
<polygon fill="#191970" stroke="#191970" points="327.6096,-395.106 323.0173,-385.5582 320.6532,-395.8859 327.6096,-395.106"/>
</g>
<!-- Node270147 -->
<g id="node24" class="node">
<title>Node270147</title>
<g id="a_node24"><a xlink:href="quickjs_8c.html#a9dd41b086da4e13b3487cc9c6e2af2b8" target="_top" xlink:title="js_array_find">
<polygon fill="none" stroke="#000000" points="455.5,-772.5 455.5,-791.5 527.5,-791.5 527.5,-772.5 455.5,-772.5"/>
<text text-anchor="middle" x="491.5" y="-779.5" font-family="Helvetica,sans-Serif" font-size="10.00" fill="#000000">js_array_find</text>
</a>
</g>
</g>
<!-- Node270089&#45;&gt;Node270147 -->
<g id="edge27" class="edge">
<title>Node270089&#45;&gt;Node270147</title>
<path fill="none" stroke="#191970" d="M324.7077,-396.0667C334.7518,-467.6506 372.0488,-709.0773 425,-763 432.9922,-771.1388 444.2104,-775.8536 455.1597,-778.5648"/>
<polygon fill="#191970" stroke="#191970" points="328.1187,-395.1804 323.2856,-385.7522 321.1843,-396.1366 328.1187,-395.1804"/>
</g>
<!-- Node270148 -->
<g id="node25" class="node">
<title>Node270148</title>
<g id="a_node25"><a xlink:href="quickjs_8c.html#ad90c33b4aae1181151bda4a98ac2ef23" target="_top" xlink:title="JS_FlattenIntoArray">
<polygon fill="none" stroke="#ff0000" points="439.5,-716.5 439.5,-735.5 543.5,-735.5 543.5,-716.5 439.5,-716.5"/>
<text text-anchor="middle" x="491.5" y="-723.5" font-family="Helvetica,sans-Serif" font-size="10.00" fill="#000000">JS_FlattenIntoArray</text>
</a>
</g>
</g>
<!-- Node270089&#45;&gt;Node270148 -->
<g id="edge28" class="edge">
<title>Node270089&#45;&gt;Node270148</title>
<path fill="none" stroke="#191970" d="M325.5833,-395.6167C337.6742,-459.779 378.8037,-661.8714 425,-707 429.1227,-711.0274 434.0373,-714.2125 439.3019,-716.7296"/>
<polygon fill="#191970" stroke="#191970" points="328.9929,-394.8072 323.7247,-385.6151 322.1107,-396.0862 328.9929,-394.8072"/>
</g>
<!-- Node270150 -->
<g id="node26" class="node">
<title>Node270150</title>
<g id="a_node26"><a xlink:href="quickjs_8c.html#aed1bf9ce4b9e3a82388679dd6ec7635b" target="_top" xlink:title="js_string_replace">
<polygon fill="none" stroke="#000000" points="446.5,-38.5 446.5,-57.5 536.5,-57.5 536.5,-38.5 446.5,-38.5"/>
<text text-anchor="middle" x="491.5" y="-45.5" font-family="Helvetica,sans-Serif" font-size="10.00" fill="#000000">js_string_replace</text>
</a>
</g>
</g>
<!-- Node270089&#45;&gt;Node270150 -->
<g id="edge30" class="edge">
<title>Node270089&#45;&gt;Node270150</title>
<path fill="none" stroke="#191970" d="M342.4771,-359.6845C357.8873,-346.1982 378.1465,-325.6433 389,-303 434.8612,-207.3212 354.8835,-146.6326 425,-67 430.6337,-60.6017 438.2576,-56.291 446.3344,-53.4021"/>
<polygon fill="#191970" stroke="#191970" points="339.8863,-357.2914 334.5053,-366.418 344.4032,-362.639 339.8863,-357.2914"/>
</g>
<!-- Node270151 -->
<g id="node27" class="node">
<title>Node270151</title>
<g id="a_node27"><a xlink:href="quickjs_8c.html#a624282391413d4c5a030adbd8b77aa80" target="_top" xlink:title="internalize_json_property">
<polygon fill="none" stroke="#ff0000" points="429,-660.5 429,-679.5 554,-679.5 554,-660.5 429,-660.5"/>
<text text-anchor="middle" x="491.5" y="-667.5" font-family="Helvetica,sans-Serif" font-size="10.00" fill="#000000">internalize_json_property</text>
</a>
</g>
</g>
<!-- Node270089&#45;&gt;Node270151 -->
<g id="edge31" class="edge">
<title>Node270089&#45;&gt;Node270151</title>
<path fill="none" stroke="#191970" d="M323.4886,-395.9326C328.3453,-446.3747 348.1884,-580.1051 425,-651 429.2352,-654.909 434.2201,-658.02 439.5247,-660.495"/>
<polygon fill="#191970" stroke="#191970" points="326.9549,-395.3916 322.6066,-385.7302 319.9809,-395.9945 326.9549,-395.3916"/>
</g>
<!-- Node270153 -->
<g id="node28" class="node">
<title>Node270153</title>
<g id="a_node28"><a xlink:href="quickjs_8c.html#a0da6493b4bc0edb7ddddfab807241d0b" target="_top" xlink:title="js_json_check">
<polygon fill="none" stroke="#ff0000" points="452,-.5 452,-19.5 531,-19.5 531,-.5 452,-.5"/>
<text text-anchor="middle" x="491.5" y="-7.5" font-family="Helvetica,sans-Serif" font-size="10.00" fill="#000000">js_json_check</text>
</a>
</g>
</g>
<!-- Node270089&#45;&gt;Node270153 -->
<g id="edge33" class="edge">
<title>Node270089&#45;&gt;Node270153</title>
<path fill="none" stroke="#191970" d="M342.6075,-359.7462C358.0896,-346.2939 378.3818,-325.7546 389,-303 440.9379,-191.6974 344.793,-122.0197 425,-29 431.8216,-21.0887 441.687,-16.3602 451.7395,-13.5649"/>
<polygon fill="#191970" stroke="#191970" points="340.0115,-357.3551 334.5932,-366.4596 344.5066,-362.7211 340.0115,-357.3551"/>
</g>
<!-- Node270134&#45;&gt;Node270134 -->
<g id="edge19" class="edge">
<title>Node270134&#45;&gt;Node270134</title>
<path fill="none" stroke="#191970" d="M460.0629,-294.2746C460.9592,-299.741 471.4382,-304 491.5,-304 521.3594,-304 529.9906,-294.5653 517.3937,-285.7571"/>
<polygon fill="#191970" stroke="#191970" points="463.085,-296.0475 465.6063,-285.7571 457.2181,-292.2291 463.085,-296.0475"/>
</g>
<!-- Node270142&#45;&gt;Node270069 -->
<g id="edge22" class="edge">
<title>Node270142&#45;&gt;Node270069</title>
<path fill="none" stroke="#191970" d="M439.7366,-98.8526C434.6655,-100.6845 429.6727,-102.73 425,-105 323.8798,-154.1243 220.5066,-244.6431 187.9593,-274.3077"/>
<polygon fill="#191970" stroke="#191970" points="441.1422,-102.0735 449.5217,-95.59 438.9281,-95.4329 441.1422,-102.0735"/>
</g>
<!-- Node270148&#45;&gt;Node270148 -->
<g id="edge29" class="edge">
<title>Node270148&#45;&gt;Node270148</title>
<path fill="none" stroke="#191970" d="M460.0629,-744.2746C460.9592,-749.741 471.4382,-754 491.5,-754 521.3594,-754 529.9906,-744.5653 517.3937,-735.7571"/>
<polygon fill="#191970" stroke="#191970" points="463.085,-746.0475 465.6063,-735.7571 457.2181,-742.2291 463.085,-746.0475"/>
</g>
<!-- Node270151&#45;&gt;Node270151 -->
<g id="edge32" class="edge">
<title>Node270151&#45;&gt;Node270151</title>
<path fill="none" stroke="#191970" d="M460.0629,-688.2746C460.9592,-693.741 471.4382,-698 491.5,-698 521.3594,-698 529.9906,-688.5653 517.3937,-679.7571"/>
<polygon fill="#191970" stroke="#191970" points="463.085,-690.0475 465.6063,-679.7571 457.2181,-686.2291 463.085,-690.0475"/>
</g>
<!-- Node270175&#45;&gt;Node270069 -->
<g id="edge35" class="edge">
<title>Node270175&#45;&gt;Node270069</title>
<path fill="none" stroke="#191970" d="M244.7059,-290.7354C235.9651,-290.6845 227.3232,-290.5014 219.2954,-290.186"/>
<polygon fill="#191970" stroke="#191970" points="244.9819,-294.2354 254.9815,-290.7342 244.981,-287.2354 244.9819,-294.2354"/>
</g>
<!-- Node270189&#45;&gt;Node270069 -->
<g id="edge37" class="edge">
<title>Node270189&#45;&gt;Node270069</title>
<path fill="none" stroke="#191970" d="M295.0852,-113.696C281.7437,-118.1037 266.146,-124.0129 255,-134 209.716,-174.5757 188.1198,-247.5005 180.6584,-274.2978"/>
<polygon fill="#191970" stroke="#191970" points="296.2985,-116.9822 304.7367,-110.5754 294.1449,-110.3217 296.2985,-116.9822"/>
</g>
<!-- Node270189&#45;&gt;Node270150 -->
<g id="edge39" class="edge">
<title>Node270189&#45;&gt;Node270150</title>
<path fill="none" stroke="#191970" d="M359.5897,-88.1858C379.0522,-81.6544 403.2366,-73.6981 425,-67 435.3283,-63.8213 446.6137,-60.5293 456.9066,-57.5965"/>
<polygon fill="#191970" stroke="#191970" points="358.2393,-84.9474 349.8804,-91.4573 360.4745,-91.581 358.2393,-84.9474"/>
</g>
<!-- Node270189&#45;&gt;Node270153 -->
<g id="edge38" class="edge">
<title>Node270189&#45;&gt;Node270153</title>
<path fill="none" stroke="#191970" d="M340.8654,-84.8954C360.6589,-68.7273 393.2521,-44.109 425,-29 433.3483,-25.027 442.6908,-21.7251 451.6741,-19.05"/>
<polygon fill="#191970" stroke="#191970" points="338.4189,-82.3776 332.9633,-91.4598 342.8919,-87.7621 338.4189,-82.3776"/>
</g>
</g>
</svg>
