<?xml version="1.0" encoding="UTF-8" standalone="no"?>
<!DOCTYPE svg PUBLIC "-//W3C//DTD SVG 1.1//EN"
 "http://www.w3.org/Graphics/SVG/1.1/DTD/svg11.dtd">
<!-- Generated by graphviz version 2.40.1 (20161225.0304)
 -->
<!-- Title: JS_NewAtomLen Pages: 1 -->
<svg width="775pt" height="707pt"
 viewBox="0.00 0.00 775.00 706.50" xmlns="http://www.w3.org/2000/svg" xmlns:xlink="http://www.w3.org/1999/xlink">
<g id="graph0" class="graph" transform="scale(1 1) rotate(0) translate(4 702.5)">
<title>JS_NewAtomLen</title>
<!-- Node19124 -->
<g id="node1" class="node">
<title>Node19124</title>
<polygon fill="#bfbfbf" stroke="#000000" points="0,-405.5 0,-424.5 93,-424.5 93,-405.5 0,-405.5"/>
<text text-anchor="middle" x="46.5" y="-412.5" font-family="Helvetica,sans-Serif" font-size="10.00" fill="#000000">JS_NewAtomLen</text>
</g>
<!-- Node19125 -->
<g id="node2" class="node">
<title>Node19125</title>
<g id="a_node2"><a xlink:href="quickjs_8c.html#aadfd9c31a6f69160c12e99b8d5eb5b3c" target="_top" xlink:title="js_atom_concat_str">
<polygon fill="none" stroke="#000000" points="129,-632.5 129,-651.5 231,-651.5 231,-632.5 129,-632.5"/>
<text text-anchor="middle" x="180" y="-639.5" font-family="Helvetica,sans-Serif" font-size="10.00" fill="#000000">js_atom_concat_str</text>
</a>
</g>
</g>
<!-- Node19124&#45;&gt;Node19125 -->
<g id="edge1" class="edge">
<title>Node19124&#45;&gt;Node19125</title>
<path fill="none" stroke="#191970" d="M55.1796,-433.8734C69.3111,-464.0419 98.7652,-524.6524 129,-573 142.743,-594.976 161.3648,-618.9547 171.8844,-632.0612"/>
<polygon fill="#191970" stroke="#191970" points="58.2318,-432.1361 50.844,-424.542 51.8836,-435.0857 58.2318,-432.1361"/>
</g>
<!-- Node19167 -->
<g id="node7" class="node">
<title>Node19167</title>
<g id="a_node7"><a xlink:href="quickjs_8c.html#aa2ef5af1544a3012f91a80c98c326b8f" target="_top" xlink:title="JS_NewAtom">
<polygon fill="none" stroke="#000000" points="141.5,-316.5 141.5,-335.5 218.5,-335.5 218.5,-316.5 141.5,-316.5"/>
<text text-anchor="middle" x="180" y="-323.5" font-family="Helvetica,sans-Serif" font-size="10.00" fill="#000000">JS_NewAtom</text>
</a>
</g>
</g>
<!-- Node19124&#45;&gt;Node19167 -->
<g id="edge7" class="edge">
<title>Node19124&#45;&gt;Node19167</title>
<path fill="none" stroke="#191970" d="M69.3749,-399.7501C96.8874,-381.4084 142.2521,-351.1653 165.4112,-335.7259"/>
<polygon fill="#191970" stroke="#191970" points="67.1659,-397.0162 60.7868,-405.4754 71.0488,-402.8406 67.1659,-397.0162"/>
</g>
<!-- Node19443 -->
<g id="node26" class="node">
<title>Node19443</title>
<g id="a_node26"><a xlink:href="quickjs-libc_8c.html#a744c97f53406d93e57acb57e3d498227" target="_top" xlink:title="js_std_getenviron">
<polygon fill="none" stroke="#000000" points="133.5,-405.5 133.5,-424.5 226.5,-424.5 226.5,-405.5 133.5,-405.5"/>
<text text-anchor="middle" x="180" y="-412.5" font-family="Helvetica,sans-Serif" font-size="10.00" fill="#000000">js_std_getenviron</text>
</a>
</g>
</g>
<!-- Node19124&#45;&gt;Node19443 -->
<g id="edge28" class="edge">
<title>Node19124&#45;&gt;Node19443</title>
<path fill="none" stroke="#191970" d="M103.3776,-415C113.2912,-415 123.5019,-415 133.1089,-415"/>
<polygon fill="#191970" stroke="#191970" points="103.1919,-411.5001 93.1918,-415 103.1918,-418.5001 103.1919,-411.5001"/>
</g>
<!-- Node19751 -->
<g id="node27" class="node">
<title>Node19751</title>
<g id="a_node27"><a xlink:href="quickjs_8c.html#adab89942b11c3b3cbf3ecb9e763b0ab6" target="_top" xlink:title="json_parse_ident">
<polygon fill="none" stroke="#000000" points="135,-139.5 135,-158.5 225,-158.5 225,-139.5 135,-139.5"/>
<text text-anchor="middle" x="180" y="-146.5" font-family="Helvetica,sans-Serif" font-size="10.00" fill="#000000">json_parse_ident</text>
</a>
</g>
</g>
<!-- Node19124&#45;&gt;Node19751 -->
<g id="edge29" class="edge">
<title>Node19124&#45;&gt;Node19751</title>
<path fill="none" stroke="#191970" d="M56.0288,-396.0138C82.4014,-343.466 155.6931,-197.4316 175.1865,-158.591"/>
<polygon fill="#191970" stroke="#191970" points="52.7671,-394.7099 51.4097,-405.2175 59.0234,-397.8499 52.7671,-394.7099"/>
</g>
<!-- Node19754 -->
<g id="node29" class="node">
<title>Node19754</title>
<g id="a_node29"><a xlink:href="quickjs_8c.html#ad91865d0889d1420e3e70d5d497a9bdb" target="_top" xlink:title="parse_ident">
<polygon fill="none" stroke="#000000" points="146.5,-544.5 146.5,-563.5 213.5,-563.5 213.5,-544.5 146.5,-544.5"/>
<text text-anchor="middle" x="180" y="-551.5" font-family="Helvetica,sans-Serif" font-size="10.00" fill="#000000">parse_ident</text>
</a>
</g>
</g>
<!-- Node19124&#45;&gt;Node19754 -->
<g id="edge31" class="edge">
<title>Node19124&#45;&gt;Node19754</title>
<path fill="none" stroke="#191970" d="M62.8377,-432.0108C91.1398,-461.4789 148.4003,-521.0985 170.7598,-544.3791"/>
<polygon fill="#191970" stroke="#191970" points="65.1273,-429.3419 55.676,-424.554 60.0786,-434.1908 65.1273,-429.3419"/>
</g>
<!-- Node19126 -->
<g id="node3" class="node">
<title>Node19126</title>
<g id="a_node3"><a xlink:href="quickjs_8c.html#a6bb36fa120270db7f4e19891b8a0bfe1" target="_top" xlink:title="get_private_setter_name">
<polygon fill="none" stroke="#000000" points="273.5,-670.5 273.5,-689.5 397.5,-689.5 397.5,-670.5 273.5,-670.5"/>
<text text-anchor="middle" x="335.5" y="-677.5" font-family="Helvetica,sans-Serif" font-size="10.00" fill="#000000">get_private_setter_name</text>
</a>
</g>
</g>
<!-- Node19125&#45;&gt;Node19126 -->
<g id="edge2" class="edge">
<title>Node19125&#45;&gt;Node19126</title>
<path fill="none" stroke="#191970" d="M228.9742,-653.968C250.7652,-659.2931 276.0672,-665.4762 296.543,-670.4799"/>
<polygon fill="#191970" stroke="#191970" points="229.7843,-650.563 219.2392,-651.589 228.1225,-657.3629 229.7843,-650.563"/>
</g>
<!-- Node19166 -->
<g id="node6" class="node">
<title>Node19166</title>
<g id="a_node6"><a xlink:href="quickjs_8c.html#aa38698096df1fd806b60ab8b209fa4a8" target="_top" xlink:title="js_atom_concat_num">
<polygon fill="none" stroke="#000000" points="280.5,-632.5 280.5,-651.5 390.5,-651.5 390.5,-632.5 280.5,-632.5"/>
<text text-anchor="middle" x="335.5" y="-639.5" font-family="Helvetica,sans-Serif" font-size="10.00" fill="#000000">js_atom_concat_num</text>
</a>
</g>
</g>
<!-- Node19125&#45;&gt;Node19166 -->
<g id="edge5" class="edge">
<title>Node19125&#45;&gt;Node19166</title>
<path fill="none" stroke="#191970" d="M241.5024,-642C254.3665,-642 267.8516,-642 280.4628,-642"/>
<polygon fill="#191970" stroke="#191970" points="241.3475,-638.5001 231.3475,-642 241.3474,-645.5001 241.3475,-638.5001"/>
</g>
<!-- Node19127 -->
<g id="node4" class="node">
<title>Node19127</title>
<g id="a_node4"><a xlink:href="quickjs_8c.html#a00eb789430243c24dab4a63ad6a79653" target="_top" xlink:title="js_parse_class">
<polygon fill="none" stroke="#ff0000" points="475,-629.5 475,-648.5 557,-648.5 557,-629.5 475,-629.5"/>
<text text-anchor="middle" x="516" y="-636.5" font-family="Helvetica,sans-Serif" font-size="10.00" fill="#000000">js_parse_class</text>
</a>
</g>
</g>
<!-- Node19126&#45;&gt;Node19127 -->
<g id="edge3" class="edge">
<title>Node19126&#45;&gt;Node19127</title>
<path fill="none" stroke="#191970" d="M387.3232,-668.2285C415.1616,-661.9051 448.9978,-654.2193 474.9853,-648.3164"/>
<polygon fill="#191970" stroke="#191970" points="386.3403,-664.8625 377.364,-670.4907 387.8909,-671.6887 386.3403,-664.8625"/>
</g>
<!-- Node19163 -->
<g id="node5" class="node">
<title>Node19163</title>
<g id="a_node5"><a xlink:href="quickjs_8c.html#a7d2ad72913c8768cc7bceeb2693d53c4" target="_top" xlink:title="resolve_scope_private\l_field">
<polygon fill="none" stroke="#ff0000" points="459,-668 459,-698 573,-698 573,-668 459,-668"/>
<text text-anchor="start" x="467" y="-686" font-family="Helvetica,sans-Serif" font-size="10.00" fill="#000000">resolve_scope_private</text>
<text text-anchor="middle" x="516" y="-675" font-family="Helvetica,sans-Serif" font-size="10.00" fill="#000000">_field</text>
</a>
</g>
</g>
<!-- Node19126&#45;&gt;Node19163 -->
<g id="edge4" class="edge">
<title>Node19126&#45;&gt;Node19163</title>
<path fill="none" stroke="#191970" d="M408.0283,-681.2055C424.964,-681.4869 442.7665,-681.7828 458.9216,-682.0513"/>
<polygon fill="#191970" stroke="#191970" points="407.6747,-677.6992 397.6179,-681.0324 407.5583,-684.6982 407.6747,-677.6992"/>
</g>
<!-- Node19166&#45;&gt;Node19127 -->
<g id="edge6" class="edge">
<title>Node19166&#45;&gt;Node19127</title>
<path fill="none" stroke="#191970" d="M400.7039,-640.9163C425.4898,-640.5043 453.0126,-640.0469 474.9501,-639.6823"/>
<polygon fill="#191970" stroke="#191970" points="400.5772,-637.4178 390.6367,-641.0836 400.6935,-644.4168 400.5772,-637.4178"/>
</g>
<!-- Node19157 -->
<g id="node8" class="node">
<title>Node19157</title>
<g id="a_node8"><a xlink:href="quickjs_8c.html#a46a8a7e155cfd0af984f6725f060f0d6" target="_top" xlink:title="__JS_EvalInternal">
<polygon fill="none" stroke="#ff0000" points="468,-76.5 468,-95.5 564,-95.5 564,-76.5 468,-76.5"/>
<text text-anchor="middle" x="516" y="-83.5" font-family="Helvetica,sans-Serif" font-size="10.00" fill="#000000">__JS_EvalInternal</text>
</a>
</g>
</g>
<!-- Node19167&#45;&gt;Node19157 -->
<g id="edge8" class="edge">
<title>Node19167&#45;&gt;Node19157</title>
<path fill="none" stroke="#191970" d="M186.17,-306.6422C205.1788,-247.1359 261.8788,-70.6821 267,-67 337.4012,-16.3814 449.7781,-56.451 495.5741,-76.4037"/>
<polygon fill="#191970" stroke="#191970" points="182.7861,-305.7335 183.0801,-316.3243 189.4547,-307.8617 182.7861,-305.7335"/>
</g>
<!-- Node19168 -->
<g id="node9" class="node">
<title>Node19168</title>
<g id="a_node9"><a xlink:href="classqjs_1_1Value.html#a7816587475ecf667433f9ea681df925b" target="_top" xlink:title="qjs::Value::add_getter">
<polygon fill="none" stroke="#000000" points="279.5,-404.5 279.5,-423.5 391.5,-423.5 391.5,-404.5 279.5,-404.5"/>
<text text-anchor="middle" x="335.5" y="-411.5" font-family="Helvetica,sans-Serif" font-size="10.00" fill="#000000">qjs::Value::add_getter</text>
</a>
</g>
</g>
<!-- Node19167&#45;&gt;Node19168 -->
<g id="edge9" class="edge">
<title>Node19167&#45;&gt;Node19168</title>
<path fill="none" stroke="#191970" d="M196.7825,-342.7404C213.3231,-358.3578 239.9774,-381.2549 267,-395 274.4801,-398.8048 282.8195,-401.9288 291.034,-404.4653"/>
<polygon fill="#191970" stroke="#191970" points="199.1443,-340.1556 189.5178,-335.7305 194.2836,-345.1929 199.1443,-340.1556"/>
</g>
<!-- Node19169 -->
<g id="node10" class="node">
<title>Node19169</title>
<g id="a_node10"><a xlink:href="classqjs_1_1Value.html#ac6bbb5f2ab1ed265b2b508325807e2fb" target="_top" xlink:title="qjs::Value::add_getter\l_setter">
<polygon fill="none" stroke="#000000" points="279.5,-355 279.5,-385 391.5,-385 391.5,-355 279.5,-355"/>
<text text-anchor="start" x="287.5" y="-373" font-family="Helvetica,sans-Serif" font-size="10.00" fill="#000000">qjs::Value::add_getter</text>
<text text-anchor="middle" x="335.5" y="-362" font-family="Helvetica,sans-Serif" font-size="10.00" fill="#000000">_setter</text>
</a>
</g>
</g>
<!-- Node19167&#45;&gt;Node19169 -->
<g id="edge10" class="edge">
<title>Node19167&#45;&gt;Node19169</title>
<path fill="none" stroke="#191970" d="M223.5109,-338.3118C241.7384,-343.4694 263.1033,-349.5148 282.2576,-354.9346"/>
<polygon fill="#191970" stroke="#191970" points="224.3164,-334.9023 213.7412,-335.5473 222.4104,-341.6379 224.3164,-334.9023"/>
</g>
<!-- Node19170 -->
<g id="node11" class="node">
<title>Node19170</title>
<g id="a_node11"><a xlink:href="quickjs_8c.html#ae8e62d181b34d2e7bdda0b099c0880f5" target="_top" xlink:title="find_atom">
<polygon fill="none" stroke="#000000" points="306,-316.5 306,-335.5 365,-335.5 365,-316.5 306,-316.5"/>
<text text-anchor="middle" x="335.5" y="-323.5" font-family="Helvetica,sans-Serif" font-size="10.00" fill="#000000">find_atom</text>
</a>
</g>
</g>
<!-- Node19167&#45;&gt;Node19170 -->
<g id="edge11" class="edge">
<title>Node19167&#45;&gt;Node19170</title>
<path fill="none" stroke="#191970" d="M228.9787,-326C254.245,-326 284.2306,-326 305.9401,-326"/>
<polygon fill="#191970" stroke="#191970" points="228.8381,-322.5001 218.8381,-326 228.8381,-329.5001 228.8381,-322.5001"/>
</g>
<!-- Node19190 -->
<g id="node14" class="node">
<title>Node19190</title>
<g id="a_node14"><a xlink:href="quickjs_8c.html#a369af749a1fb181216fe8a8b55f841b0" target="_top" xlink:title="JS_AddModuleExport">
<polygon fill="none" stroke="#ff0000" points="280,-278.5 280,-297.5 391,-297.5 391,-278.5 280,-278.5"/>
<text text-anchor="middle" x="335.5" y="-285.5" font-family="Helvetica,sans-Serif" font-size="10.00" fill="#000000">JS_AddModuleExport</text>
</a>
</g>
</g>
<!-- Node19167&#45;&gt;Node19190 -->
<g id="edge15" class="edge">
<title>Node19167&#45;&gt;Node19190</title>
<path fill="none" stroke="#191970" d="M228.6152,-314.1198C250.5135,-308.7684 276.0166,-302.5361 296.6181,-297.5017"/>
<polygon fill="#191970" stroke="#191970" points="227.7214,-310.7351 218.8381,-316.509 229.3831,-317.535 227.7214,-310.7351"/>
</g>
<!-- Node19193 -->
<g id="node17" class="node">
<title>Node19193</title>
<g id="a_node17"><a xlink:href="quickjs_8c.html#a841f4cb887e4d9e03e94a0697255e578" target="_top" xlink:title="JS_DefinePropertyValueStr">
<polygon fill="none" stroke="#ff0000" points="267,-240.5 267,-259.5 404,-259.5 404,-240.5 267,-240.5"/>
<text text-anchor="middle" x="335.5" y="-247.5" font-family="Helvetica,sans-Serif" font-size="10.00" fill="#000000">JS_DefinePropertyValueStr</text>
</a>
</g>
</g>
<!-- Node19167&#45;&gt;Node19193 -->
<g id="edge18" class="edge">
<title>Node19167&#45;&gt;Node19193</title>
<path fill="none" stroke="#191970" d="M200.0382,-310.2745C217.0322,-297.5943 242.4876,-280.1024 267,-269 275.2067,-265.283 284.303,-262.1408 293.1142,-259.548"/>
<polygon fill="#191970" stroke="#191970" points="197.8142,-307.5686 191.9725,-316.4075 202.0511,-313.1408 197.8142,-307.5686"/>
</g>
<!-- Node19214 -->
<g id="node18" class="node">
<title>Node19214</title>
<g id="a_node18"><a xlink:href="quickjs_8c.html#a04f589361a4fbc30d997402e92a50de2" target="_top" xlink:title="JS_GetPropertyStr">
<polygon fill="none" stroke="#ff0000" points="286,-202.5 286,-221.5 385,-221.5 385,-202.5 286,-202.5"/>
<text text-anchor="middle" x="335.5" y="-209.5" font-family="Helvetica,sans-Serif" font-size="10.00" fill="#000000">JS_GetPropertyStr</text>
</a>
</g>
</g>
<!-- Node19167&#45;&gt;Node19214 -->
<g id="edge19" class="edge">
<title>Node19167&#45;&gt;Node19214</title>
<path fill="none" stroke="#191970" d="M191.9205,-307.7153C206.9018,-286.1866 234.6128,-250.8544 267,-231 273.313,-227.1299 280.4296,-224.0302 287.6263,-221.5524"/>
<polygon fill="#191970" stroke="#191970" points="188.8367,-306.0274 186.132,-316.2712 194.6345,-309.9499 188.8367,-306.0274"/>
</g>
<!-- Node19228 -->
<g id="node19" class="node">
<title>Node19228</title>
<g id="a_node19"><a xlink:href="quickjs_8c.html#a90dd988b99a5bc7b2a4aaffd2de405a9" target="_top" xlink:title="js_host_resolve_imported\l_module">
<polygon fill="none" stroke="#ff0000" points="271.5,-153 271.5,-183 399.5,-183 399.5,-153 271.5,-153"/>
<text text-anchor="start" x="279.5" y="-171" font-family="Helvetica,sans-Serif" font-size="10.00" fill="#000000">js_host_resolve_imported</text>
<text text-anchor="middle" x="335.5" y="-160" font-family="Helvetica,sans-Serif" font-size="10.00" fill="#000000">_module</text>
</a>
</g>
</g>
<!-- Node19167&#45;&gt;Node19228 -->
<g id="edge20" class="edge">
<title>Node19167&#45;&gt;Node19228</title>
<path fill="none" stroke="#191970" d="M187.6257,-307.1818C200.1112,-278.6109 227.5369,-224.3118 267,-193 271.8594,-189.1443 277.3682,-185.8488 283.0996,-183.0401"/>
<polygon fill="#191970" stroke="#191970" points="184.3763,-305.8799 183.7072,-316.4536 190.8241,-308.605 184.3763,-305.8799"/>
</g>
<!-- Node19743 -->
<g id="node20" class="node">
<title>Node19743</title>
<g id="a_node20"><a xlink:href="quickjs_8c.html#a8020fd59ed57f7f299216ec1ebfcda01" target="_top" xlink:title="js_new_function_def">
<polygon fill="none" stroke="#ff0000" points="282.5,-114.5 282.5,-133.5 388.5,-133.5 388.5,-114.5 282.5,-114.5"/>
<text text-anchor="middle" x="335.5" y="-121.5" font-family="Helvetica,sans-Serif" font-size="10.00" fill="#000000">js_new_function_def</text>
</a>
</g>
</g>
<!-- Node19167&#45;&gt;Node19743 -->
<g id="edge21" class="edge">
<title>Node19167&#45;&gt;Node19743</title>
<path fill="none" stroke="#191970" d="M183.7652,-306.1598C191.9594,-268.5358 215.0103,-186.6831 267,-143 271.6299,-139.1098 276.997,-136.0128 282.6495,-133.5478"/>
<polygon fill="#191970" stroke="#191970" points="180.2609,-305.8262 181.6835,-316.3251 187.1186,-307.2306 180.2609,-305.8262"/>
</g>
<!-- Node19747 -->
<g id="node21" class="node">
<title>Node19747</title>
<g id="a_node21"><a xlink:href="quickjs_8c.html#a27c3a725d4014a35b5bedcdf6e70dec7" target="_top" xlink:title="JS_NewAtomString">
<polygon fill="none" stroke="#ff0000" points="284,-76.5 284,-95.5 387,-95.5 387,-76.5 284,-76.5"/>
<text text-anchor="middle" x="335.5" y="-83.5" font-family="Helvetica,sans-Serif" font-size="10.00" fill="#000000">JS_NewAtomString</text>
</a>
</g>
</g>
<!-- Node19167&#45;&gt;Node19747 -->
<g id="edge23" class="edge">
<title>Node19167&#45;&gt;Node19747</title>
<path fill="none" stroke="#191970" d="M185.2378,-306.57C198.6876,-258.0217 235.5902,-133.2888 267,-105 271.8603,-100.6226 277.6442,-97.2434 283.7609,-94.6366"/>
<polygon fill="#191970" stroke="#191970" points="181.7987,-305.8774 182.5354,-316.4466 188.5506,-307.7249 181.7987,-305.8774"/>
</g>
<!-- Node19426 -->
<g id="node22" class="node">
<title>Node19426</title>
<g id="a_node22"><a xlink:href="quickjs_8c.html#a21cfe4c4fc9372dc0b95b37667cff0c9" target="_top" xlink:title="JS_NewCFunction3">
<polygon fill="none" stroke="#ff0000" points="283.5,-556.5 283.5,-575.5 387.5,-575.5 387.5,-556.5 283.5,-556.5"/>
<text text-anchor="middle" x="335.5" y="-563.5" font-family="Helvetica,sans-Serif" font-size="10.00" fill="#000000">JS_NewCFunction3</text>
</a>
</g>
</g>
<!-- Node19167&#45;&gt;Node19426 -->
<g id="edge24" class="edge">
<title>Node19167&#45;&gt;Node19426</title>
<path fill="none" stroke="#191970" d="M195.8411,-343.5365C207.197,-356.9914 222.0173,-376.5085 231,-396 259.8763,-458.6583 219.1144,-497.3324 267,-547 271.6255,-551.7977 277.3476,-555.4167 283.4977,-558.1409"/>
<polygon fill="#191970" stroke="#191970" points="198.175,-340.8862 188.9751,-335.6314 192.8901,-345.4764 198.175,-340.8862"/>
</g>
<!-- Node19748 -->
<g id="node23" class="node">
<title>Node19748</title>
<g id="a_node23"><a xlink:href="quickjs_8c.html#ac29cc4ec49efa0f0308e494316ce5139" target="_top" xlink:title="JS_NewCModule">
<polygon fill="none" stroke="#ff0000" points="289,-518.5 289,-537.5 382,-537.5 382,-518.5 289,-518.5"/>
<text text-anchor="middle" x="335.5" y="-525.5" font-family="Helvetica,sans-Serif" font-size="10.00" fill="#000000">JS_NewCModule</text>
</a>
</g>
</g>
<!-- Node19167&#45;&gt;Node19748 -->
<g id="edge25" class="edge">
<title>Node19167&#45;&gt;Node19748</title>
<path fill="none" stroke="#191970" d="M195.4192,-343.7406C206.5612,-357.2989 221.2988,-376.856 231,-396 254.8258,-443.017 229.0303,-472.4408 267,-509 273.0454,-514.8208 280.7122,-518.8898 288.7127,-521.7271"/>
<polygon fill="#191970" stroke="#191970" points="197.822,-341.16 188.7056,-335.7618 192.4658,-345.6669 197.822,-341.16"/>
</g>
<!-- Node19750 -->
<g id="node24" class="node">
<title>Node19750</title>
<g id="a_node24"><a xlink:href="quickjs_8c.html#acc3990661d2851b858601061a62cc7d6" target="_top" xlink:title="JS_SetModuleExport">
<polygon fill="none" stroke="#ff0000" points="281,-480.5 281,-499.5 390,-499.5 390,-480.5 281,-480.5"/>
<text text-anchor="middle" x="335.5" y="-487.5" font-family="Helvetica,sans-Serif" font-size="10.00" fill="#000000">JS_SetModuleExport</text>
</a>
</g>
</g>
<!-- Node19167&#45;&gt;Node19750 -->
<g id="edge26" class="edge">
<title>Node19167&#45;&gt;Node19750</title>
<path fill="none" stroke="#191970" d="M194.2824,-343.6911C205.0689,-357.4847 219.8653,-377.3647 231,-396 249.9649,-427.7402 238.6472,-447.2675 267,-471 271.6372,-474.8815 277.0088,-477.9732 282.6637,-480.4353"/>
<polygon fill="#191970" stroke="#191970" points="196.8071,-341.2417 187.8519,-335.5799 191.3217,-345.5905 196.8071,-341.2417"/>
</g>
<!-- Node19354 -->
<g id="node25" class="node">
<title>Node19354</title>
<g id="a_node25"><a xlink:href="quickjs_8c.html#a62617fe11025d2e5a545db069fc28e64" target="_top" xlink:title="JS_SetPropertyStr">
<polygon fill="none" stroke="#ff0000" points="286.5,-442.5 286.5,-461.5 384.5,-461.5 384.5,-442.5 286.5,-442.5"/>
<text text-anchor="middle" x="335.5" y="-449.5" font-family="Helvetica,sans-Serif" font-size="10.00" fill="#000000">JS_SetPropertyStr</text>
</a>
</g>
</g>
<!-- Node19167&#45;&gt;Node19354 -->
<g id="edge27" class="edge">
<title>Node19167&#45;&gt;Node19354</title>
<path fill="none" stroke="#191970" d="M192.6272,-344.0884C211.9753,-371.3304 248.6397,-420.988 267,-433 272.8867,-436.8513 279.5479,-439.9295 286.3469,-442.3879"/>
<polygon fill="#191970" stroke="#191970" points="195.4037,-341.9523 186.781,-335.796 189.6825,-345.9858 195.4037,-341.9523"/>
</g>
<!-- Node19171 -->
<g id="node12" class="node">
<title>Node19171</title>
<g id="a_node12"><a xlink:href="quickjs_8c.html#a6ee4e2edda1f223a5a40e2c48b41d618" target="_top" xlink:title="JS_InstantiateFunctionListItem">
<polygon fill="none" stroke="#000000" points="440,-354.5 440,-373.5 592,-373.5 592,-354.5 440,-354.5"/>
<text text-anchor="middle" x="516" y="-361.5" font-family="Helvetica,sans-Serif" font-size="10.00" fill="#000000">JS_InstantiateFunctionListItem</text>
</a>
</g>
</g>
<!-- Node19170&#45;&gt;Node19171 -->
<g id="edge12" class="edge">
<title>Node19170&#45;&gt;Node19171</title>
<path fill="none" stroke="#191970" d="M375.2082,-334.3596C403.367,-340.2878 441.2139,-348.2556 470.576,-354.4371"/>
<polygon fill="#191970" stroke="#191970" points="375.8125,-330.9102 365.3059,-332.2749 374.3703,-337.76 375.8125,-330.9102"/>
</g>
<!-- Node19172 -->
<g id="node13" class="node">
<title>Node19172</title>
<g id="a_node13"><a xlink:href="quickjs_8c.html#ac00854b7f1f0f8567af964a2f8f2adb0" target="_top" xlink:title="JS_SetPropertyFunctionList">
<polygon fill="none" stroke="#ff0000" points="628,-335.5 628,-354.5 767,-354.5 767,-335.5 628,-335.5"/>
<text text-anchor="middle" x="697.5" y="-342.5" font-family="Helvetica,sans-Serif" font-size="10.00" fill="#000000">JS_SetPropertyFunctionList</text>
</a>
</g>
</g>
<!-- Node19170&#45;&gt;Node19172 -->
<g id="edge14" class="edge">
<title>Node19170&#45;&gt;Node19172</title>
<path fill="none" stroke="#191970" d="M375.4536,-328.097C436.2691,-331.289 552.8946,-337.4102 627.8518,-341.3444"/>
<polygon fill="#191970" stroke="#191970" points="375.2937,-324.5839 365.124,-327.5548 374.9268,-331.5743 375.2937,-324.5839"/>
</g>
<!-- Node19171&#45;&gt;Node19172 -->
<g id="edge13" class="edge">
<title>Node19171&#45;&gt;Node19172</title>
<path fill="none" stroke="#191970" d="M602.2315,-354.973C610.8279,-354.0731 619.4785,-353.1675 627.8738,-352.2887"/>
<polygon fill="#191970" stroke="#191970" points="601.7647,-351.5027 592.1834,-356.0249 602.4935,-358.4646 601.7647,-351.5027"/>
</g>
<!-- Node19191 -->
<g id="node15" class="node">
<title>Node19191</title>
<g id="a_node15"><a xlink:href="classqjs_1_1Context_1_1Module.html#aa51896e065a04689c9dbe80a282805bb" target="_top" xlink:title="qjs::Context::Module::add">
<polygon fill="none" stroke="#000000" points="451.5,-278.5 451.5,-297.5 580.5,-297.5 580.5,-278.5 451.5,-278.5"/>
<text text-anchor="middle" x="516" y="-285.5" font-family="Helvetica,sans-Serif" font-size="10.00" fill="#000000">qjs::Context::Module::add</text>
</a>
</g>
</g>
<!-- Node19190&#45;&gt;Node19191 -->
<g id="edge16" class="edge">
<title>Node19190&#45;&gt;Node19191</title>
<path fill="none" stroke="#191970" d="M401.1502,-288C417.5221,-288 435.0634,-288 451.385,-288"/>
<polygon fill="#191970" stroke="#191970" points="401.1288,-284.5001 391.1288,-288 401.1287,-291.5001 401.1288,-284.5001"/>
</g>
<!-- Node19192 -->
<g id="node16" class="node">
<title>Node19192</title>
<g id="a_node16"><a xlink:href="quickjs_8c.html#ac7a9b88dd7ca1a70cd0ecd9a28905e25" target="_top" xlink:title="JS_AddModuleExportList">
<polygon fill="none" stroke="#ff0000" points="452.5,-240.5 452.5,-259.5 579.5,-259.5 579.5,-240.5 452.5,-240.5"/>
<text text-anchor="middle" x="516" y="-247.5" font-family="Helvetica,sans-Serif" font-size="10.00" fill="#000000">JS_AddModuleExportList</text>
</a>
</g>
</g>
<!-- Node19190&#45;&gt;Node19192 -->
<g id="edge17" class="edge">
<title>Node19190&#45;&gt;Node19192</title>
<path fill="none" stroke="#191970" d="M390.9847,-276.319C416.582,-270.9301 446.5838,-264.6139 470.7798,-259.5201"/>
<polygon fill="#191970" stroke="#191970" points="390.1122,-272.9259 381.0478,-278.411 391.5543,-279.7757 390.1122,-272.9259"/>
</g>
<!-- Node19743&#45;&gt;Node19157 -->
<g id="edge22" class="edge">
<title>Node19743&#45;&gt;Node19157</title>
<path fill="none" stroke="#191970" d="M390.9847,-112.319C416.582,-106.9301 446.5838,-100.6139 470.7798,-95.5201"/>
<polygon fill="#191970" stroke="#191970" points="390.1122,-108.9259 381.0478,-114.411 391.5543,-115.7757 390.1122,-108.9259"/>
</g>
<!-- Node19752 -->
<g id="node28" class="node">
<title>Node19752</title>
<g id="a_node28"><a xlink:href="quickjs_8c.html#a7fbd31397bde22dfa2b876b945f9afb4" target="_top" xlink:title="json_next_token">
<polygon fill="none" stroke="#ff0000" points="291.5,-.5 291.5,-19.5 379.5,-19.5 379.5,-.5 291.5,-.5"/>
<text text-anchor="middle" x="335.5" y="-7.5" font-family="Helvetica,sans-Serif" font-size="10.00" fill="#000000">json_next_token</text>
</a>
</g>
</g>
<!-- Node19751&#45;&gt;Node19752 -->
<g id="edge30" class="edge">
<title>Node19751&#45;&gt;Node19752</title>
<path fill="none" stroke="#191970" d="M189.4091,-130.5541C203.1726,-105.3152 231.1065,-60.1742 267,-34 275.4507,-27.8376 285.6222,-23.1483 295.5104,-19.6247"/>
<polygon fill="#191970" stroke="#191970" points="186.2787,-128.9866 184.6916,-139.4619 192.4648,-132.2627 186.2787,-128.9866"/>
</g>
<!-- Node19755 -->
<g id="node30" class="node">
<title>Node19755</title>
<g id="a_node30"><a xlink:href="quickjs_8c.html#a75a3798e2045f6e403c1ef467126d1fb" target="_top" xlink:title="next_token">
<polygon fill="none" stroke="#ff0000" points="303,-594.5 303,-613.5 368,-613.5 368,-594.5 303,-594.5"/>
<text text-anchor="middle" x="335.5" y="-601.5" font-family="Helvetica,sans-Serif" font-size="10.00" fill="#000000">next_token</text>
</a>
</g>
</g>
<!-- Node19754&#45;&gt;Node19755 -->
<g id="edge32" class="edge">
<title>Node19754&#45;&gt;Node19755</title>
<path fill="none" stroke="#191970" d="M214.7509,-567.0266C230.5976,-572.8001 249.6559,-579.5124 267,-585 278.6488,-588.6857 291.5322,-592.3622 302.9533,-595.4854"/>
<polygon fill="#191970" stroke="#191970" points="215.9367,-563.7335 205.3431,-563.5723 213.524,-570.3046 215.9367,-563.7335"/>
</g>
<!-- Node19755&#45;&gt;Node19127 -->
<g id="edge33" class="edge">
<title>Node19755&#45;&gt;Node19127</title>
<path fill="none" stroke="#191970" d="M378.0884,-612.2581C407.2673,-617.9161 445.7676,-625.3815 474.6728,-630.9864"/>
<polygon fill="#191970" stroke="#191970" points="378.6706,-608.8059 368.1872,-610.3382 377.338,-615.6779 378.6706,-608.8059"/>
</g>
</g>
</svg>
