<?xml version="1.0" encoding="UTF-8" standalone="no"?>
<!DOCTYPE svg PUBLIC "-//W3C//DTD SVG 1.1//EN"
 "http://www.w3.org/Graphics/SVG/1.1/DTD/svg11.dtd">
<!-- Generated by graphviz version 2.40.1 (20161225.0304)
 -->
<!-- Title: JS_OrdinaryIsInstanceOf Pages: 1 -->
<!--zoomable 780 -->
<svg id="main" version="1.1" xmlns="http://www.w3.org/2000/svg" xmlns:xlink="http://www.w3.org/1999/xlink" xml:space="preserve" onload="init(evt)">
<style type="text/css"><![CDATA[
.edge:hover path { stroke: red; }
.edge:hover polygon { stroke: red; fill: red; }
]]></style>
<script type="text/javascript"><![CDATA[
var edges = document.getElementsByTagName('g');
if (edges && edges.length) {
  for (var i=0;i<edges.length;i++) {
    if (edges[i].id.substr(0,4)=='edge') {
      edges[i].setAttribute('class','edge');
    }
  }
}
]]></script>
        <defs>
                <circle id="rim" cx="0" cy="0" r="7"/>
                <circle id="rim2" cx="0" cy="0" r="3.5"/>
                <g id="zoomPlus">
                        <use xlink:href="#rim" fill="#404040">
                                <set attributeName="fill" to="#808080" begin="zoomplus.mouseover" end="zoomplus.mouseout"/>
                        </use>
                        <path d="M-4,0h8M0,-4v8" fill="none" stroke="white" stroke-width="1.5" pointer-events="none"/>
                </g>
                <g id="zoomMin">
                        <use xlink:href="#rim" fill="#404040">
                                <set attributeName="fill" to="#808080" begin="zoomminus.mouseover" end="zoomminus.mouseout"/>
                        </use>
                        <path d="M-4,0h8" fill="none" stroke="white" stroke-width="1.5" pointer-events="none"/>
                </g>
                <g id="dirArrow">
                        <path fill="none" stroke="white" stroke-width="1.5" d="M0,-3.0v7 M-2.5,-0.5L0,-3.0L2.5,-0.5"/>
                </g>
               <g id="resetDef">
                       <use xlink:href="#rim2" fill="#404040">
                               <set attributeName="fill" to="#808080" begin="reset.mouseover" end="reset.mouseout"/>
                       </use>
               </g>
        </defs>

<script type="text/javascript">
var viewWidth = 1164;
var viewHeight = 780;
var sectionId = 'dynsection-537';
</script>
<script xlink:href="svgpan.js"/>
<svg id="graph" class="graph">
<g id="viewport">
<title>JS_OrdinaryIsInstanceOf</title>
<!-- Node179430 -->
<g id="node1" class="node">
<title>Node179430</title>
<polygon fill="#bfbfbf" stroke="#000000" points="0,-152.5 0,-171.5 127,-171.5 127,-152.5 0,-152.5"/>
<text text-anchor="middle" x="63.5" y="-159.5" font-family="Helvetica,sans-Serif" font-size="10.00" fill="#000000">JS_OrdinaryIsInstanceOf</text>
</g>
<!-- Node179431 -->
<g id="node2" class="node">
<title>Node179431</title>
<g id="a_node2"><a xlink:href="quickjs_8h.html#a775522f2d084fc8fa0fcb33f390006b4" target="_top" xlink:title="JS_DupValue">
<polygon fill="none" stroke="#000000" points="642.5,-677.5 642.5,-696.5 719.5,-696.5 719.5,-677.5 642.5,-677.5"/>
<text text-anchor="middle" x="681" y="-684.5" font-family="Helvetica,sans-Serif" font-size="10.00" fill="#000000">JS_DupValue</text>
</a>
</g>
</g>
<!-- Node179430&#45;&gt;Node179431 -->
<g id="edge1" class="edge">
<title>Node179430&#45;&gt;Node179431</title>
<path fill="none" stroke="#191970" d="M64.1489,-171.7172C68.7089,-231.2346 101.5044,-547.9285 289,-668 395.9426,-736.4856 554.9498,-715.32 633.5236,-698.7433"/>
<polygon fill="#191970" stroke="#191970" points="634.5825,-702.0948 643.6086,-696.5468 633.0928,-695.2552 634.5825,-702.0948"/>
</g>
<!-- Node179432 -->
<g id="node3" class="node">
<title>Node179432</title>
<g id="a_node3"><a xlink:href="quickjs_8h.html#afaa20c47565bc704c6c85f3d77254e7d" target="_top" xlink:title="JS_FreeValue">
<polygon fill="none" stroke="#000000" points="811,-601.5 811,-620.5 889,-620.5 889,-601.5 811,-601.5"/>
<text text-anchor="middle" x="850" y="-608.5" font-family="Helvetica,sans-Serif" font-size="10.00" fill="#000000">JS_FreeValue</text>
</a>
</g>
</g>
<!-- Node179430&#45;&gt;Node179432 -->
<g id="edge2" class="edge">
<title>Node179430&#45;&gt;Node179432</title>
<path fill="none" stroke="#191970" d="M64.9274,-171.7919C73.3825,-228.9739 118.062,-519.8475 163,-597 218.02,-691.462 235.1827,-763 344.5,-763 344.5,-763 344.5,-763 495.5,-763 618.7172,-763 666.0976,-796.6372 771,-732 809.4659,-708.2986 832.9081,-658.0618 843.4278,-630.3542"/>
<polygon fill="#191970" stroke="#191970" points="846.8362,-631.2203 846.9389,-620.6259 840.2519,-628.8439 846.8362,-631.2203"/>
</g>
<!-- Node179470 -->
<g id="node6" class="node">
<title>Node179470</title>
<g id="a_node6"><a xlink:href="quickjs_8h.html#a89b7c8686c7eee70b86be722ee4730ad" target="_top" xlink:title="JS_GetProperty">
<polygon fill="none" stroke="#000000" points="301.5,-228.5 301.5,-247.5 387.5,-247.5 387.5,-228.5 301.5,-228.5"/>
<text text-anchor="middle" x="344.5" y="-235.5" font-family="Helvetica,sans-Serif" font-size="10.00" fill="#000000">JS_GetProperty</text>
</a>
</g>
</g>
<!-- Node179430&#45;&gt;Node179470 -->
<g id="edge5" class="edge">
<title>Node179430&#45;&gt;Node179470</title>
<path fill="none" stroke="#191970" d="M98.8043,-171.5485C149.593,-185.2849 243.2933,-210.6274 299.1489,-225.7342"/>
<polygon fill="#191970" stroke="#191970" points="298.5521,-229.1985 309.1191,-228.4308 300.3797,-222.4413 298.5521,-229.1985"/>
</g>
<!-- Node179524 -->
<g id="node18" class="node">
<title>Node179524</title>
<g id="a_node18"><a xlink:href="quickjs_8h.html#ad80a83d73e9b7d872b88fbf2943aebe9" target="_top" xlink:title="JS_IsException">
<polygon fill="none" stroke="#000000" points="807,-114.5 807,-133.5 893,-133.5 893,-114.5 807,-114.5"/>
<text text-anchor="middle" x="850" y="-121.5" font-family="Helvetica,sans-Serif" font-size="10.00" fill="#000000">JS_IsException</text>
</a>
</g>
</g>
<!-- Node179430&#45;&gt;Node179524 -->
<g id="edge31" class="edge">
<title>Node179430&#45;&gt;Node179524</title>
<path fill="none" stroke="#191970" d="M76.4722,-152.4765C115.1167,-125.0778 233.679,-48 344.5,-48 344.5,-48 344.5,-48 495.5,-48 614.397,-48 750.841,-89.3783 814.2036,-111.0713"/>
<polygon fill="#191970" stroke="#191970" points="813.1368,-114.4058 823.7316,-114.3745 815.4298,-107.792 813.1368,-114.4058"/>
</g>
<!-- Node179863 -->
<g id="node22" class="node">
<title>Node179863</title>
<g id="a_node22"><a xlink:href="quickjs_8c.html#a7f82fd53b039b4e12f1addfa15d750ae" target="_top" xlink:title="JS_GetPrototypeFree">
<polygon fill="none" stroke="#000000" points="289,-639.5 289,-658.5 400,-658.5 400,-639.5 289,-639.5"/>
<text text-anchor="middle" x="344.5" y="-646.5" font-family="Helvetica,sans-Serif" font-size="10.00" fill="#000000">JS_GetPrototypeFree</text>
</a>
</g>
</g>
<!-- Node179430&#45;&gt;Node179863 -->
<g id="edge26" class="edge">
<title>Node179430&#45;&gt;Node179863</title>
<path fill="none" stroke="#191970" d="M69.1131,-171.728C103.6064,-231.5083 286.9127,-549.1957 333.6487,-630.1936"/>
<polygon fill="#191970" stroke="#191970" points="330.8442,-632.3365 338.8736,-639.2488 336.9073,-628.838 330.8442,-632.3365"/>
</g>
<!-- Node179532 -->
<g id="node24" class="node">
<title>Node179532</title>
<g id="a_node24"><a xlink:href="quickjs_8c.html#a1ca9cdb1fa2ffc3e6506e92b200e490f" target="_top" xlink:title="JS_IsFunction">
<polygon fill="none" stroke="#000000" points="304.5,-114.5 304.5,-133.5 384.5,-133.5 384.5,-114.5 304.5,-114.5"/>
<text text-anchor="middle" x="344.5" y="-121.5" font-family="Helvetica,sans-Serif" font-size="10.00" fill="#000000">JS_IsFunction</text>
</a>
</g>
</g>
<!-- Node179430&#45;&gt;Node179532 -->
<g id="edge32" class="edge">
<title>Node179430&#45;&gt;Node179532</title>
<path fill="none" stroke="#191970" d="M108.9341,-152.4879C125.8534,-149.1666 145.254,-145.6184 163,-143 207.0746,-136.4968 257.4922,-131.4052 293.9861,-128.1366"/>
<polygon fill="#191970" stroke="#191970" points="294.7125,-131.5862 304.3668,-127.2223 294.0983,-124.6132 294.7125,-131.5862"/>
</g>
<!-- Node179850 -->
<g id="node25" class="node">
<title>Node179850</title>
<g id="a_node25"><a xlink:href="quickjs_8c.html#af4cd70eee97bbcab2d0f2e46cf53ccd7" target="_top" xlink:title="JS_IsInstanceOf">
<polygon fill="none" stroke="#ff0000" points="163,-152.5 163,-171.5 253,-171.5 253,-152.5 163,-152.5"/>
<text text-anchor="middle" x="208" y="-159.5" font-family="Helvetica,sans-Serif" font-size="10.00" fill="#000000">JS_IsInstanceOf</text>
</a>
</g>
</g>
<!-- Node179430&#45;&gt;Node179850 -->
<g id="edge33" class="edge">
<title>Node179430&#45;&gt;Node179850</title>
<path fill="none" stroke="#191970" d="M127.3004,-155.2912C135.6996,-155.209 144.2533,-155.2498 152.4989,-155.4139"/>
<polygon fill="#191970" stroke="#191970" points="152.6539,-158.9192 162.7438,-155.6875 152.8409,-151.9216 152.6539,-158.9192"/>
</g>
<!-- Node179531 -->
<g id="node26" class="node">
<title>Node179531</title>
<g id="a_node26"><a xlink:href="quickjs_8h.html#a149f24b67e745bad93573b3b4c80db4c" target="_top" xlink:title="JS_IsNull">
<polygon fill="none" stroke="#000000" points="315,-76.5 315,-95.5 374,-95.5 374,-76.5 315,-76.5"/>
<text text-anchor="middle" x="344.5" y="-83.5" font-family="Helvetica,sans-Serif" font-size="10.00" fill="#000000">JS_IsNull</text>
</a>
</g>
</g>
<!-- Node179430&#45;&gt;Node179531 -->
<g id="edge40" class="edge">
<title>Node179430&#45;&gt;Node179531</title>
<path fill="none" stroke="#191970" d="M90.3296,-152.3923C110.2431,-145.4353 138.1377,-136.0534 163,-129 211.4092,-115.2664 267.9225,-102.3622 304.8655,-94.3406"/>
<polygon fill="#191970" stroke="#191970" points="305.7057,-97.74 314.7434,-92.2109 304.2304,-90.8972 305.7057,-97.74"/>
</g>
<!-- Node179725 -->
<g id="node27" class="node">
<title>Node179725</title>
<g id="a_node27"><a xlink:href="quickjs_8c.html#a246e337d6566552736209730827c0871" target="_top" xlink:title="js_poll_interrupts">
<polygon fill="none" stroke="#ff0000" points="163,-.5 163,-19.5 253,-19.5 253,-.5 163,-.5"/>
<text text-anchor="middle" x="208" y="-7.5" font-family="Helvetica,sans-Serif" font-size="10.00" fill="#000000">js_poll_interrupts</text>
</a>
</g>
</g>
<!-- Node179430&#45;&gt;Node179725 -->
<g id="edge41" class="edge">
<title>Node179430&#45;&gt;Node179725</title>
<path fill="none" stroke="#191970" d="M69.1092,-152.2059C82.7036,-129.1474 119.5137,-70.6273 163,-34 167.2326,-30.435 172.0806,-27.1803 176.9914,-24.2967"/>
<polygon fill="#191970" stroke="#191970" points="178.6645,-27.371 185.7792,-19.5204 175.3216,-21.2207 178.6645,-27.371"/>
</g>
<!-- Node179433 -->
<g id="node4" class="node">
<title>Node179433</title>
<g id="a_node4"><a xlink:href="quickjs_8c.html#aa059f309c30fd5166d16c82a97973146" target="_top" xlink:title="__JS_FreeValue">
<polygon fill="none" stroke="#000000" points="929,-601.5 929,-620.5 1018,-620.5 1018,-601.5 929,-601.5"/>
<text text-anchor="middle" x="973.5" y="-608.5" font-family="Helvetica,sans-Serif" font-size="10.00" fill="#000000">__JS_FreeValue</text>
</a>
</g>
</g>
<!-- Node179432&#45;&gt;Node179433 -->
<g id="edge3" class="edge">
<title>Node179432&#45;&gt;Node179433</title>
<path fill="none" stroke="#191970" d="M889.0762,-611C898.412,-611 908.5507,-611 918.4566,-611"/>
<polygon fill="#191970" stroke="#191970" points="918.6517,-614.5001 928.6517,-611 918.6517,-607.5001 918.6517,-614.5001"/>
</g>
<!-- Node179434 -->
<g id="node5" class="node">
<title>Node179434</title>
<g id="a_node5"><a xlink:href="quickjs_8c.html#ab1ea3fad7d138be12144a38be4d36423" target="_top" xlink:title="__JS_FreeValueRT">
<polygon fill="none" stroke="#ff0000" points="1054,-601.5 1054,-620.5 1156,-620.5 1156,-601.5 1054,-601.5"/>
<text text-anchor="middle" x="1105" y="-608.5" font-family="Helvetica,sans-Serif" font-size="10.00" fill="#000000">__JS_FreeValueRT</text>
</a>
</g>
</g>
<!-- Node179433&#45;&gt;Node179434 -->
<g id="edge4" class="edge">
<title>Node179433&#45;&gt;Node179434</title>
<path fill="none" stroke="#191970" d="M1018.0199,-611C1026.2672,-611 1035.0138,-611 1043.6583,-611"/>
<polygon fill="#191970" stroke="#191970" points="1043.7233,-614.5001 1053.7233,-611 1043.7232,-607.5001 1043.7233,-614.5001"/>
</g>
<!-- Node179471 -->
<g id="node7" class="node">
<title>Node179471</title>
<g id="a_node7"><a xlink:href="quickjs_8c.html#a5762c57ae0c9937e986040c01222833a" target="_top" xlink:title="JS_GetPropertyInternal">
<polygon fill="none" stroke="#000000" points="436,-389.5 436,-408.5 555,-408.5 555,-389.5 436,-389.5"/>
<text text-anchor="middle" x="495.5" y="-396.5" font-family="Helvetica,sans-Serif" font-size="10.00" fill="#000000">JS_GetPropertyInternal</text>
</a>
</g>
</g>
<!-- Node179470&#45;&gt;Node179471 -->
<g id="edge6" class="edge">
<title>Node179470&#45;&gt;Node179471</title>
<path fill="none" stroke="#191970" d="M353.4935,-247.5891C378.1936,-273.925 447.3437,-347.6545 479.1349,-381.5511"/>
<polygon fill="#191970" stroke="#191970" points="476.9688,-384.3579 486.3627,-389.2576 482.0746,-379.5692 476.9688,-384.3579"/>
</g>
<!-- Node179471&#45;&gt;Node179431 -->
<g id="edge13" class="edge">
<title>Node179471&#45;&gt;Node179431</title>
<path fill="none" stroke="#191970" d="M495.7453,-408.6652C497.2911,-447.8055 508.5788,-595.8775 591,-668 602.3269,-677.9116 617.5125,-683.1003 632.1802,-685.7003"/>
<polygon fill="#191970" stroke="#191970" points="631.8075,-689.1823 642.1983,-687.113 632.785,-682.2509 631.8075,-689.1823"/>
</g>
<!-- Node179471&#45;&gt;Node179432 -->
<g id="edge24" class="edge">
<title>Node179471&#45;&gt;Node179432</title>
<path fill="none" stroke="#191970" d="M496.9325,-408.8129C502.2796,-441.4975 524.3131,-547.1303 591,-592 653.5069,-634.0572 744.7628,-629.3053 800.6051,-620.9331"/>
<polygon fill="#191970" stroke="#191970" points="801.2812,-624.3696 810.6051,-619.3382 800.1786,-617.457 801.2812,-624.3696"/>
</g>
<!-- Node179472 -->
<g id="node8" class="node">
<title>Node179472</title>
<g id="a_node8"><a xlink:href="quickjs_8c.html#a288254c06a39c9fca740a7abdad2834e" target="_top" xlink:title="__JS_AtomIsTaggedInt">
<polygon fill="none" stroke="#000000" points="621.5,-323.5 621.5,-342.5 740.5,-342.5 740.5,-323.5 621.5,-323.5"/>
<text text-anchor="middle" x="681" y="-330.5" font-family="Helvetica,sans-Serif" font-size="10.00" fill="#000000">__JS_AtomIsTaggedInt</text>
</a>
</g>
</g>
<!-- Node179471&#45;&gt;Node179472 -->
<g id="edge7" class="edge">
<title>Node179471&#45;&gt;Node179472</title>
<path fill="none" stroke="#191970" d="M511.8607,-389.3721C530.4593,-378.8063 562.007,-362.0184 591,-352 598.811,-349.301 607.1418,-346.9167 615.463,-344.8303"/>
<polygon fill="#191970" stroke="#191970" points="616.2759,-348.2347 625.1953,-342.5168 614.657,-341.4244 616.2759,-348.2347"/>
</g>
<!-- Node179473 -->
<g id="node9" class="node">
<title>Node179473</title>
<g id="a_node9"><a xlink:href="quickjs_8c.html#a89f38938cee8077ce1fbba07946ed185" target="_top" xlink:title="__JS_AtomToUInt32">
<polygon fill="none" stroke="#000000" points="627,-285.5 627,-304.5 735,-304.5 735,-285.5 627,-285.5"/>
<text text-anchor="middle" x="681" y="-292.5" font-family="Helvetica,sans-Serif" font-size="10.00" fill="#000000">__JS_AtomToUInt32</text>
</a>
</g>
</g>
<!-- Node179471&#45;&gt;Node179473 -->
<g id="edge8" class="edge">
<title>Node179471&#45;&gt;Node179473</title>
<path fill="none" stroke="#191970" d="M503.2894,-389.321C518.2612,-371.4184 552.96,-333.2119 591,-314 599.0605,-309.9291 607.9513,-306.7296 616.9123,-304.2151"/>
<polygon fill="#191970" stroke="#191970" points="617.7973,-307.6015 626.6274,-301.7467 616.0735,-300.8171 617.7973,-307.6015"/>
</g>
<!-- Node179474 -->
<g id="node10" class="node">
<title>Node179474</title>
<g id="a_node10"><a xlink:href="quickjs_8c.html#a077ffa6455c0d7831bd4547542b5f2f7" target="_top" xlink:title="js_new_string_char">
<polygon fill="none" stroke="#ff0000" points="630.5,-247.5 630.5,-266.5 731.5,-266.5 731.5,-247.5 630.5,-247.5"/>
<text text-anchor="middle" x="681" y="-254.5" font-family="Helvetica,sans-Serif" font-size="10.00" fill="#000000">js_new_string_char</text>
</a>
</g>
</g>
<!-- Node179471&#45;&gt;Node179474 -->
<g id="edge9" class="edge">
<title>Node179471&#45;&gt;Node179474</title>
<path fill="none" stroke="#191970" d="M499.9339,-389.4592C511.3656,-365.9948 544.253,-305.2642 591,-276 599.8216,-270.4776 609.9845,-266.5356 620.234,-263.7271"/>
<polygon fill="#191970" stroke="#191970" points="621.1422,-267.1086 630.0465,-261.3673 619.5053,-260.3027 621.1422,-267.1086"/>
</g>
<!-- Node179499 -->
<g id="node11" class="node">
<title>Node179499</title>
<g id="a_node11"><a xlink:href="quickjs_8h.html#a2050bc428da1c65ac7eb87c3fa3b0392" target="_top" xlink:title="JS_NewInt32">
<polygon fill="none" stroke="#000000" points="643,-563.5 643,-582.5 719,-582.5 719,-563.5 643,-563.5"/>
<text text-anchor="middle" x="681" y="-570.5" font-family="Helvetica,sans-Serif" font-size="10.00" fill="#000000">JS_NewInt32</text>
</a>
</g>
</g>
<!-- Node179471&#45;&gt;Node179499 -->
<g id="edge10" class="edge">
<title>Node179471&#45;&gt;Node179499</title>
<path fill="none" stroke="#191970" d="M498.3848,-408.5145C507.2308,-435.9685 536.7224,-515.7948 591,-554 603.0844,-562.5061 618.1925,-567.3453 632.559,-570.0571"/>
<polygon fill="#191970" stroke="#191970" points="632.4121,-573.5772 642.8353,-571.6778 633.5027,-566.6626 632.4121,-573.5772"/>
</g>
<!-- Node179500 -->
<g id="node12" class="node">
<title>Node179500</title>
<g id="a_node12"><a xlink:href="quickjs_8c.html#a93550bf785e919d0881399712c54cb34" target="_top" xlink:title="JS_GetPrototypePrimitive">
<polygon fill="none" stroke="#000000" points="616,-639.5 616,-658.5 746,-658.5 746,-639.5 616,-639.5"/>
<text text-anchor="middle" x="681" y="-646.5" font-family="Helvetica,sans-Serif" font-size="10.00" fill="#000000">JS_GetPrototypePrimitive</text>
</a>
</g>
</g>
<!-- Node179471&#45;&gt;Node179500 -->
<g id="edge11" class="edge">
<title>Node179471&#45;&gt;Node179500</title>
<path fill="none" stroke="#191970" d="M496.6178,-408.9141C501.1304,-444.1333 521.2535,-564.3445 591,-625 595.612,-629.0109 600.8241,-632.3606 606.3584,-635.1569"/>
<polygon fill="#191970" stroke="#191970" points="605.3643,-638.5429 615.9276,-639.3595 608.1791,-632.1337 605.3643,-638.5429"/>
</g>
<!-- Node179501 -->
<g id="node13" class="node">
<title>Node179501</title>
<g id="a_node13"><a xlink:href="quickjs_8c.html#a06b76f5124fd985e35f4c652fd018d6d" target="_top" xlink:title="find_own_property">
<polygon fill="none" stroke="#ff0000" points="633,-525.5 633,-544.5 729,-544.5 729,-525.5 633,-525.5"/>
<text text-anchor="middle" x="681" y="-532.5" font-family="Helvetica,sans-Serif" font-size="10.00" fill="#000000">find_own_property</text>
</a>
</g>
</g>
<!-- Node179471&#45;&gt;Node179501 -->
<g id="edge12" class="edge">
<title>Node179471&#45;&gt;Node179501</title>
<path fill="none" stroke="#191970" d="M500.4173,-408.7433C512.4574,-431.5288 545.7676,-488.4452 591,-516 600.7043,-521.9117 611.9672,-526.005 623.1725,-528.8339"/>
<polygon fill="#191970" stroke="#191970" points="622.4431,-532.2572 632.9641,-531.0085 623.9608,-525.4236 622.4431,-532.2572"/>
</g>
<!-- Node179502 -->
<g id="node14" class="node">
<title>Node179502</title>
<g id="a_node14"><a xlink:href="quickjs_8c.html#a75f6ee5e4235a7dc99889f3d2eb2c147" target="_top" xlink:title="JS_CallFree">
<polygon fill="none" stroke="#ff0000" points="645.5,-171.5 645.5,-190.5 716.5,-190.5 716.5,-171.5 645.5,-171.5"/>
<text text-anchor="middle" x="681" y="-178.5" font-family="Helvetica,sans-Serif" font-size="10.00" fill="#000000">JS_CallFree</text>
</a>
</g>
</g>
<!-- Node179471&#45;&gt;Node179502 -->
<g id="edge14" class="edge">
<title>Node179471&#45;&gt;Node179502</title>
<path fill="none" stroke="#191970" d="M497.0779,-389.2376C502.8846,-356.6614 526.2018,-250.8854 591,-200 603.5694,-190.1294 620.0657,-185.0725 635.4976,-182.5742"/>
<polygon fill="#191970" stroke="#191970" points="635.9702,-186.0422 645.4329,-181.277 635.0639,-179.1012 635.9702,-186.0422"/>
</g>
<!-- Node179734 -->
<g id="node15" class="node">
<title>Node179734</title>
<g id="a_node15"><a xlink:href="quickjs_8h.html#aaab426b47c95d00479b7355b1cf7f56c" target="_top" xlink:title="JS_IsUninitialized">
<polygon fill="none" stroke="#000000" points="633.5,-487.5 633.5,-506.5 728.5,-506.5 728.5,-487.5 633.5,-487.5"/>
<text text-anchor="middle" x="681" y="-494.5" font-family="Helvetica,sans-Serif" font-size="10.00" fill="#000000">JS_IsUninitialized</text>
</a>
</g>
</g>
<!-- Node179471&#45;&gt;Node179734 -->
<g id="edge16" class="edge">
<title>Node179471&#45;&gt;Node179734</title>
<path fill="none" stroke="#191970" d="M503.9278,-408.5023C519.409,-425.322 554.1796,-460.2324 591,-478 601.0205,-482.8354 612.2529,-486.4461 623.2954,-489.1407"/>
<polygon fill="#191970" stroke="#191970" points="622.8225,-492.6207 633.3428,-491.3665 624.3366,-485.7864 622.8225,-492.6207"/>
</g>
<!-- Node179735 -->
<g id="node16" class="node">
<title>Node179735</title>
<g id="a_node16"><a xlink:href="quickjs_8c.html#a75ac132a3af4de01e1fadeb0bede6ee7" target="_top" xlink:title="JS_ThrowReferenceErrorUninitialized">
<polygon fill="none" stroke="#ff0000" points="591,-449.5 591,-468.5 771,-468.5 771,-449.5 591,-449.5"/>
<text text-anchor="middle" x="681" y="-456.5" font-family="Helvetica,sans-Serif" font-size="10.00" fill="#000000">JS_ThrowReferenceErrorUninitialized</text>
</a>
</g>
</g>
<!-- Node179471&#45;&gt;Node179735 -->
<g id="edge17" class="edge">
<title>Node179471&#45;&gt;Node179735</title>
<path fill="none" stroke="#191970" d="M514.8222,-408.6399C533.8146,-417.7906 563.8228,-431.3905 591,-440 599.4064,-442.6631 608.3736,-445.0613 617.2686,-447.185"/>
<polygon fill="#191970" stroke="#191970" points="616.7184,-450.6494 627.2469,-449.4656 618.2781,-443.8254 616.7184,-450.6494"/>
</g>
<!-- Node179629 -->
<g id="node17" class="node">
<title>Node179629</title>
<g id="a_node17"><a xlink:href="quickjs_8c.html#a8aac7988cf0c6f3c2b629a6662fd7ec8" target="_top" xlink:title="JS_AutoInitProperty">
<polygon fill="none" stroke="#ff0000" points="629,-133.5 629,-152.5 733,-152.5 733,-133.5 629,-133.5"/>
<text text-anchor="middle" x="681" y="-140.5" font-family="Helvetica,sans-Serif" font-size="10.00" fill="#000000">JS_AutoInitProperty</text>
</a>
</g>
</g>
<!-- Node179471&#45;&gt;Node179629 -->
<g id="edge18" class="edge">
<title>Node179471&#45;&gt;Node179629</title>
<path fill="none" stroke="#191970" d="M496.2434,-389.4911C499.594,-353.489 516.5645,-224.4296 591,-162 598.9742,-155.312 608.7212,-150.7978 618.8215,-147.7841"/>
<polygon fill="#191970" stroke="#191970" points="619.7233,-151.1664 628.5672,-145.3325 618.0155,-144.3779 619.7233,-151.1664"/>
</g>
<!-- Node179555 -->
<g id="node19" class="node">
<title>Node179555</title>
<g id="a_node19"><a xlink:href="quickjs_8c.html#aeb97957655d979e9fe56c955da2b2d4b" target="_top" xlink:title="JS_GetPropertyUint32">
<polygon fill="none" stroke="#ff0000" points="623.5,-411.5 623.5,-430.5 738.5,-430.5 738.5,-411.5 623.5,-411.5"/>
<text text-anchor="middle" x="681" y="-418.5" font-family="Helvetica,sans-Serif" font-size="10.00" fill="#000000">JS_GetPropertyUint32</text>
</a>
</g>
</g>
<!-- Node179471&#45;&gt;Node179555 -->
<g id="edge20" class="edge">
<title>Node179471&#45;&gt;Node179555</title>
<path fill="none" stroke="#191970" d="M555.2144,-406.082C573.7087,-408.2754 594.2188,-410.7079 613.2185,-412.9612"/>
<polygon fill="#191970" stroke="#191970" points="612.9531,-416.4542 623.2957,-414.1564 613.7776,-409.5029 612.9531,-416.4542"/>
</g>
<!-- Node179658 -->
<g id="node20" class="node">
<title>Node179658</title>
<g id="a_node20"><a xlink:href="quickjs_8c.html#add3eea1f6d626963ade3c28a1fd563d1" target="_top" xlink:title="JS_AtomIsNumericIndex">
<polygon fill="none" stroke="#ff0000" points="618,-209.5 618,-228.5 744,-228.5 744,-209.5 618,-209.5"/>
<text text-anchor="middle" x="681" y="-216.5" font-family="Helvetica,sans-Serif" font-size="10.00" fill="#000000">JS_AtomIsNumericIndex</text>
</a>
</g>
</g>
<!-- Node179471&#45;&gt;Node179658 -->
<g id="edge21" class="edge">
<title>Node179471&#45;&gt;Node179658</title>
<path fill="none" stroke="#191970" d="M498.2687,-389.1236C506.8001,-360.6243 535.5238,-277.7505 591,-238 596.1965,-234.2766 601.9685,-231.253 608.0089,-228.8015"/>
<polygon fill="#191970" stroke="#191970" points="609.4052,-232.0207 617.678,-225.4017 607.0831,-225.417 609.4052,-232.0207"/>
</g>
<!-- Node179659 -->
<g id="node21" class="node">
<title>Node179659</title>
<g id="a_node21"><a xlink:href="quickjs_8c.html#ab8d0b87c9eed4eb6c054b6f4e1731554" target="_top" xlink:title="JS_ThrowReferenceErrorNot\lDefined">
<polygon fill="none" stroke="#ff0000" points="609.5,-362 609.5,-392 752.5,-392 752.5,-362 609.5,-362"/>
<text text-anchor="start" x="617.5" y="-380" font-family="Helvetica,sans-Serif" font-size="10.00" fill="#000000">JS_ThrowReferenceErrorNot</text>
<text text-anchor="middle" x="681" y="-369" font-family="Helvetica,sans-Serif" font-size="10.00" fill="#000000">Defined</text>
</a>
</g>
</g>
<!-- Node179471&#45;&gt;Node179659 -->
<g id="edge25" class="edge">
<title>Node179471&#45;&gt;Node179659</title>
<path fill="none" stroke="#191970" d="M555.2144,-391.918C569.2413,-390.2544 584.4278,-388.4533 599.2353,-386.6972"/>
<polygon fill="#191970" stroke="#191970" points="599.8892,-390.1442 609.4073,-385.4908 599.0647,-383.1929 599.8892,-390.1442"/>
</g>
<!-- Node179502&#45;&gt;Node179432 -->
<g id="edge15" class="edge">
<title>Node179502&#45;&gt;Node179432</title>
<path fill="none" stroke="#191970" d="M716.5945,-179.6454C735.2282,-180.8936 757.0137,-185.7574 771,-200 826.6943,-256.7149 844.8945,-516.7028 849.0082,-591.0742"/>
<polygon fill="#191970" stroke="#191970" points="845.5287,-591.5555 849.5511,-601.357 852.519,-591.1864 845.5287,-591.5555"/>
</g>
<!-- Node179629&#45;&gt;Node179524 -->
<g id="edge19" class="edge">
<title>Node179629&#45;&gt;Node179524</title>
<path fill="none" stroke="#191970" d="M733.0846,-137.1443C753.3286,-134.8684 776.4984,-132.2635 796.8437,-129.9762"/>
<polygon fill="#191970" stroke="#191970" points="797.3398,-133.4425 806.8861,-128.8471 796.5576,-126.4863 797.3398,-133.4425"/>
</g>
<!-- Node179658&#45;&gt;Node179432 -->
<g id="edge22" class="edge">
<title>Node179658&#45;&gt;Node179432</title>
<path fill="none" stroke="#191970" d="M744.2786,-222.694C754.2418,-225.8263 763.6578,-230.6626 771,-238 821.7831,-288.7498 843.2265,-521.3133 848.5896,-591.1284"/>
<polygon fill="#191970" stroke="#191970" points="845.1076,-591.5021 849.3381,-601.2157 852.0884,-590.9841 845.1076,-591.5021"/>
</g>
<!-- Node179658&#45;&gt;Node179524 -->
<g id="edge23" class="edge">
<title>Node179658&#45;&gt;Node179524</title>
<path fill="none" stroke="#191970" d="M744.0702,-210.3964C753.4048,-207.796 762.6737,-204.4097 771,-200 797.9255,-185.7401 822.0699,-159.5932 836.3816,-142.0036"/>
<polygon fill="#191970" stroke="#191970" points="839.4901,-143.7138 842.932,-133.6937 833.9927,-139.3804 839.4901,-143.7138"/>
</g>
<!-- Node179863&#45;&gt;Node179432 -->
<g id="edge27" class="edge">
<title>Node179863&#45;&gt;Node179432</title>
<path fill="none" stroke="#191970" d="M363.4854,-658.5808C425.4735,-688.4429 626.2627,-773.8828 771,-706 804.4962,-690.29 828.717,-652.6263 840.956,-629.722"/>
<polygon fill="#191970" stroke="#191970" points="844.1618,-631.14 845.5936,-620.6424 837.9279,-627.9559 844.1618,-631.14"/>
</g>
<!-- Node179831 -->
<g id="node23" class="node">
<title>Node179831</title>
<g id="a_node23"><a xlink:href="quickjs_8c.html#ad56da91bca3e6259b73d5148126b5099" target="_top" xlink:title="JS_GetPrototype">
<polygon fill="none" stroke="#ff0000" points="449.5,-639.5 449.5,-658.5 541.5,-658.5 541.5,-639.5 449.5,-639.5"/>
<text text-anchor="middle" x="495.5" y="-646.5" font-family="Helvetica,sans-Serif" font-size="10.00" fill="#000000">JS_GetPrototype</text>
</a>
</g>
</g>
<!-- Node179863&#45;&gt;Node179831 -->
<g id="edge28" class="edge">
<title>Node179863&#45;&gt;Node179831</title>
<path fill="none" stroke="#191970" d="M400.2978,-649C413.0257,-649 426.5567,-649 439.3013,-649"/>
<polygon fill="#191970" stroke="#191970" points="439.3232,-652.5001 449.3231,-649 439.3231,-645.5001 439.3232,-652.5001"/>
</g>
<!-- Node179831&#45;&gt;Node179431 -->
<g id="edge29" class="edge">
<title>Node179831&#45;&gt;Node179431</title>
<path fill="none" stroke="#191970" d="M541.831,-658.491C569.4521,-664.1492 604.4733,-671.3234 632.4739,-677.0593"/>
<polygon fill="#191970" stroke="#191970" points="631.9465,-680.5239 642.4455,-679.102 633.3514,-673.6663 631.9465,-680.5239"/>
</g>
<!-- Node179831&#45;&gt;Node179500 -->
<g id="edge30" class="edge">
<title>Node179831&#45;&gt;Node179500</title>
<path fill="none" stroke="#191970" d="M541.831,-649C561.1002,-649 583.9709,-649 605.547,-649"/>
<polygon fill="#191970" stroke="#191970" points="605.6812,-652.5001 615.6812,-649 605.6811,-645.5001 605.6812,-652.5001"/>
</g>
<!-- Node179850&#45;&gt;Node179430 -->
<g id="edge39" class="edge">
<title>Node179850&#45;&gt;Node179430</title>
<path fill="none" stroke="#191970" d="M162.7438,-168.3125C154.6651,-168.5865 146.0605,-168.7318 137.424,-168.7484"/>
<polygon fill="#191970" stroke="#191970" points="137.3141,-165.248 127.3004,-168.7088 137.2866,-172.248 137.3141,-165.248"/>
</g>
<!-- Node179850&#45;&gt;Node179470 -->
<g id="edge34" class="edge">
<title>Node179850&#45;&gt;Node179470</title>
<path fill="none" stroke="#191970" d="M221.3498,-171.5305C237.081,-182.5316 264.2216,-200.8016 289,-214 295.8158,-217.6305 303.2972,-221.1562 310.499,-224.3377"/>
<polygon fill="#191970" stroke="#191970" points="309.4876,-227.7123 320.0575,-228.44 312.2485,-221.2797 309.4876,-227.7123"/>
</g>
<!-- Node179850&#45;&gt;Node179502 -->
<g id="edge37" class="edge">
<title>Node179850&#45;&gt;Node179502</title>
<path fill="none" stroke="#191970" d="M253.2423,-171.1218C264.8489,-173.1029 277.3472,-174.9255 289,-176 413.8331,-187.5111 561.9613,-185.0461 635.2398,-182.7576"/>
<polygon fill="#191970" stroke="#191970" points="635.6161,-186.2473 645.4966,-182.4229 635.3878,-179.251 635.6161,-186.2473"/>
</g>
<!-- Node179850&#45;&gt;Node179524 -->
<g id="edge35" class="edge">
<title>Node179850&#45;&gt;Node179524</title>
<path fill="none" stroke="#191970" d="M253.0017,-157.5533C291.9122,-153.7069 349.6679,-147.9938 400,-143 484.8911,-134.5773 505.7969,-128.2274 591,-124 662.1543,-120.4696 744.4398,-121.3091 796.824,-122.4617"/>
<polygon fill="#191970" stroke="#191970" points="796.8115,-125.9623 806.89,-122.6952 796.9739,-118.9642 796.8115,-125.9623"/>
</g>
<!-- Node179850&#45;&gt;Node179532 -->
<g id="edge38" class="edge">
<title>Node179850&#45;&gt;Node179532</title>
<path fill="none" stroke="#191970" d="M242.4447,-152.411C259.9847,-147.5281 281.51,-141.5357 300.2631,-136.315"/>
<polygon fill="#191970" stroke="#191970" points="301.3713,-139.6397 310.0663,-133.5859 299.494,-132.8961 301.3713,-139.6397"/>
</g>
<!-- Node179850&#45;&gt;Node179531 -->
<g id="edge36" class="edge">
<title>Node179850&#45;&gt;Node179531</title>
<path fill="none" stroke="#191970" d="M219.4034,-152.3852C234.5041,-140.0393 262.345,-118.5909 289,-105 294.0469,-102.4267 299.5209,-100.0746 304.998,-97.9691"/>
<polygon fill="#191970" stroke="#191970" points="306.5459,-101.1318 314.7689,-94.451 304.1745,-94.5457 306.5459,-101.1318"/>
</g>
</g>
</svg>
        <g id="navigator" transform="translate(0 0)" fill="#404254">
                <rect fill="#f2f5e9" fill-opacity="0.5" stroke="#606060" stroke-width=".5" x="0" y="0" width="60" height="60"/>
                <use id="zoomplus" xlink:href="#zoomPlus" x="17" y="9" onmousedown="handleZoom(evt,'in')"/>
                <use id="zoomminus" xlink:href="#zoomMin" x="42" y="9" onmousedown="handleZoom(evt,'out')"/>
                <use id="reset" xlink:href="#resetDef" x="30" y="36" onmousedown="handleReset()"/>
                <g id="arrowUp" xlink:href="#dirArrow" transform="translate(30 24)" onmousedown="handlePan(0,-1)">
                  <use xlink:href="#rim" fill="#404040">
                        <set attributeName="fill" to="#808080" begin="arrowUp.mouseover" end="arrowUp.mouseout"/>
                  </use>
                  <path fill="none" stroke="white" stroke-width="1.5" d="M0,-3.0v7 M-2.5,-0.5L0,-3.0L2.5,-0.5"/>
                </g>
                <g id="arrowRight" xlink:href="#dirArrow" transform="rotate(90) translate(36 -43)" onmousedown="handlePan(1,0)">
                  <use xlink:href="#rim" fill="#404040">
                        <set attributeName="fill" to="#808080" begin="arrowRight.mouseover" end="arrowRight.mouseout"/>
                  </use>
                  <path fill="none" stroke="white" stroke-width="1.5" d="M0,-3.0v7 M-2.5,-0.5L0,-3.0L2.5,-0.5"/>
                </g>
                <g id="arrowDown" xlink:href="#dirArrow" transform="rotate(180) translate(-30 -48)" onmousedown="handlePan(0,1)">
                  <use xlink:href="#rim" fill="#404040">
                        <set attributeName="fill" to="#808080" begin="arrowDown.mouseover" end="arrowDown.mouseout"/>
                  </use>
                  <path fill="none" stroke="white" stroke-width="1.5" d="M0,-3.0v7 M-2.5,-0.5L0,-3.0L2.5,-0.5"/>
                </g>
                <g id="arrowLeft" xlink:href="#dirArrow" transform="rotate(270) translate(-36 17)" onmousedown="handlePan(-1,0)">
                  <use xlink:href="#rim" fill="#404040">
                        <set attributeName="fill" to="#808080" begin="arrowLeft.mouseover" end="arrowLeft.mouseout"/>
                  </use>
                  <path fill="none" stroke="white" stroke-width="1.5" d="M0,-3.0v7 M-2.5,-0.5L0,-3.0L2.5,-0.5"/>
                </g>
        </g>
        <svg viewBox="0 0 15 15" width="100%" height="30px" preserveAspectRatio="xMaxYMin meet">
         <g id="arrow_out" transform="scale(0.3 0.3)">
          <a xlink:href="quickjs_8c_aa0b5c1a59ff4832154e2a98d7c63a4b2_cgraph_org.svg" target="_base">
           <rect id="button" ry="5" rx="5" y="6" x="6" height="38" width="38"
                fill="#f2f5e9" fill-opacity="0.5" stroke="#606060" stroke-width="1.0"/>
           <path id="arrow"
             d="M 11.500037,31.436501 C 11.940474,20.09759 22.043105,11.32322 32.158766,21.979434 L 37.068811,17.246167 C 37.068811,17.246167 37.088388,32 37.088388,32 L 22.160133,31.978069 C 22.160133,31.978069 26.997745,27.140456 26.997745,27.140456 C 18.528582,18.264221 13.291696,25.230495 11.500037,31.436501 z"
             style="fill:#404040;"/>
          </a>
         </g>
        </svg>
</svg>
