<?xml version="1.0" encoding="UTF-8" standalone="no"?>
<!DOCTYPE svg PUBLIC "-//W3C//DTD SVG 1.1//EN"
 "http://www.w3.org/Graphics/SVG/1.1/DTD/svg11.dtd">
<!-- Generated by graphviz version 2.40.1 (20161225.0304)
 -->
<!-- Title: js_emit_spread_code Pages: 1 -->
<!--zoomable 202 -->
<svg id="main" version="1.1" xmlns="http://www.w3.org/2000/svg" xmlns:xlink="http://www.w3.org/1999/xlink" xml:space="preserve" onload="init(evt)">
<style type="text/css"><![CDATA[
.edge:hover path { stroke: red; }
.edge:hover polygon { stroke: red; fill: red; }
]]></style>
<script type="text/javascript"><![CDATA[
var edges = document.getElementsByTagName('g');
if (edges && edges.length) {
  for (var i=0;i<edges.length;i++) {
    if (edges[i].id.substr(0,4)=='edge') {
      edges[i].setAttribute('class','edge');
    }
  }
}
]]></script>
        <defs>
                <circle id="rim" cx="0" cy="0" r="7"/>
                <circle id="rim2" cx="0" cy="0" r="3.5"/>
                <g id="zoomPlus">
                        <use xlink:href="#rim" fill="#404040">
                                <set attributeName="fill" to="#808080" begin="zoomplus.mouseover" end="zoomplus.mouseout"/>
                        </use>
                        <path d="M-4,0h8M0,-4v8" fill="none" stroke="white" stroke-width="1.5" pointer-events="none"/>
                </g>
                <g id="zoomMin">
                        <use xlink:href="#rim" fill="#404040">
                                <set attributeName="fill" to="#808080" begin="zoomminus.mouseover" end="zoomminus.mouseout"/>
                        </use>
                        <path d="M-4,0h8" fill="none" stroke="white" stroke-width="1.5" pointer-events="none"/>
                </g>
                <g id="dirArrow">
                        <path fill="none" stroke="white" stroke-width="1.5" d="M0,-3.0v7 M-2.5,-0.5L0,-3.0L2.5,-0.5"/>
                </g>
               <g id="resetDef">
                       <use xlink:href="#rim2" fill="#404040">
                               <set attributeName="fill" to="#808080" begin="reset.mouseover" end="reset.mouseout"/>
                       </use>
               </g>
        </defs>

<script type="text/javascript">
var viewWidth = 830;
var viewHeight = 202;
var sectionId = 'dynsection-1057';
</script>
<script xlink:href="svgpan.js"/>
<svg id="graph" class="graph">
<g id="viewport">
<title>js_emit_spread_code</title>
<!-- Node324054 -->
<g id="node1" class="node">
<title>Node324054</title>
<polygon fill="#bfbfbf" stroke="#000000" points="0,-81.3357 0,-100.3357 109,-100.3357 109,-81.3357 0,-81.3357"/>
<text text-anchor="middle" x="54.5" y="-88.3357" font-family="Helvetica,sans-Serif" font-size="10.00" fill="#000000">js_emit_spread_code</text>
</g>
<!-- Node324055 -->
<g id="node2" class="node">
<title>Node324055</title>
<g id="a_node2"><a xlink:href="quickjs_8c.html#a26be546cf89c4580ba9020e8fc43a759" target="_top" xlink:title="js_parse_destructuring\l_element">
<polygon fill="none" stroke="#000000" points="145,-75.8357 145,-105.8357 260,-105.8357 260,-75.8357 145,-75.8357"/>
<text text-anchor="start" x="153" y="-93.8357" font-family="Helvetica,sans-Serif" font-size="10.00" fill="#000000">js_parse_destructuring</text>
<text text-anchor="middle" x="202.5" y="-82.8357" font-family="Helvetica,sans-Serif" font-size="10.00" fill="#000000">_element</text>
</a>
</g>
</g>
<!-- Node324054&#45;&gt;Node324055 -->
<g id="edge1" class="edge">
<title>Node324054&#45;&gt;Node324055</title>
<path fill="none" stroke="#191970" d="M119.325,-90.8357C127.724,-90.8357 136.2831,-90.8357 144.5606,-90.8357"/>
<polygon fill="#191970" stroke="#191970" points="119.1893,-87.3358 109.1892,-90.8357 119.1892,-94.3358 119.1893,-87.3358"/>
</g>
<!-- Node324055&#45;&gt;Node324055 -->
<g id="edge2" class="edge">
<title>Node324055&#45;&gt;Node324055</title>
<path fill="none" stroke="#191970" d="M176.2022,-116.2936C179.4661,-121.0147 188.2321,-124.3357 202.5,-124.3357 225.9141,-124.3357 234.5114,-115.3923 228.2921,-105.9947"/>
<polygon fill="#191970" stroke="#191970" points="179.7132,-116.1544 176.7079,-105.9947 172.7216,-115.811 179.7132,-116.1544"/>
</g>
<!-- Node324056 -->
<g id="node3" class="node">
<title>Node324056</title>
<g id="a_node3"><a xlink:href="quickjs_8c.html#a840642c87c5a82d4cc68333376a3b6de" target="_top" xlink:title="js_parse_postfix_expr">
<polygon fill="none" stroke="#000000" points="301,-100.3357 301,-119.3357 413,-119.3357 413,-100.3357 301,-100.3357"/>
<text text-anchor="middle" x="357" y="-107.3357" font-family="Helvetica,sans-Serif" font-size="10.00" fill="#000000">js_parse_postfix_expr</text>
</a>
</g>
</g>
<!-- Node324055&#45;&gt;Node324056 -->
<g id="edge3" class="edge">
<title>Node324055&#45;&gt;Node324056</title>
<path fill="none" stroke="#191970" d="M270.1992,-99.1612C280.4721,-100.4245 290.9738,-101.716 300.9625,-102.9444"/>
<polygon fill="#191970" stroke="#191970" points="270.3826,-95.6574 260.0301,-97.9106 269.5281,-102.6051 270.3826,-95.6574"/>
</g>
<!-- Node324067 -->
<g id="node5" class="node">
<title>Node324067</title>
<g id="a_node5"><a xlink:href="quickjs_8c.html#ac188b916dd086803591a67de7e7a85f6" target="_top" xlink:title="js_parse_for_in_of">
<polygon fill="none" stroke="#000000" points="588,-106.3357 588,-125.3357 684,-125.3357 684,-106.3357 588,-106.3357"/>
<text text-anchor="middle" x="636" y="-113.3357" font-family="Helvetica,sans-Serif" font-size="10.00" fill="#000000">js_parse_for_in_of</text>
</a>
</g>
</g>
<!-- Node324055&#45;&gt;Node324067 -->
<g id="edge14" class="edge">
<title>Node324055&#45;&gt;Node324067</title>
<path fill="none" stroke="#191970" d="M228.9493,-112C246.7536,-124.8437 271.3945,-140.0308 296,-146.8357 405.6613,-177.1637 439.9953,-166.8437 552,-146.8357 574.8007,-142.7627 599.5159,-132.9293 616.1929,-125.4208"/>
<polygon fill="#191970" stroke="#191970" points="230.9011,-109.0898 220.7884,-105.9302 226.7236,-114.7066 230.9011,-109.0898"/>
</g>
<!-- Node324065 -->
<g id="node6" class="node">
<title>Node324065</title>
<g id="a_node6"><a xlink:href="quickjs_8c.html#a9d844c16dcc71701436848074337d32c" target="_top" xlink:title="js_parse_statement\l_or_decl">
<polygon fill="none" stroke="#ff0000" points="720,-100.8357 720,-130.8357 822,-130.8357 822,-100.8357 720,-100.8357"/>
<text text-anchor="start" x="728" y="-118.8357" font-family="Helvetica,sans-Serif" font-size="10.00" fill="#000000">js_parse_statement</text>
<text text-anchor="middle" x="771" y="-107.8357" font-family="Helvetica,sans-Serif" font-size="10.00" fill="#000000">_or_decl</text>
</a>
</g>
</g>
<!-- Node324055&#45;&gt;Node324065 -->
<g id="edge15" class="edge">
<title>Node324055&#45;&gt;Node324065</title>
<path fill="none" stroke="#191970" d="M220.7958,-113.7177C237.8853,-133.1026 265.3141,-159.4996 296,-170.8357 451.7448,-228.3714 654.0553,-162.4382 735.1136,-130.8393"/>
<polygon fill="#191970" stroke="#191970" points="223.28,-111.2369 214.1254,-105.9035 217.9559,-115.7817 223.28,-111.2369"/>
</g>
<!-- Node324090 -->
<g id="node8" class="node">
<title>Node324090</title>
<g id="a_node8"><a xlink:href="quickjs_8c.html#a9660cf21845352b14655d423389d6620" target="_top" xlink:title="js_parse_var">
<polygon fill="none" stroke="#ff0000" points="600,-52.3357 600,-71.3357 672,-71.3357 672,-52.3357 600,-52.3357"/>
<text text-anchor="middle" x="636" y="-59.3357" font-family="Helvetica,sans-Serif" font-size="10.00" fill="#000000">js_parse_var</text>
</a>
</g>
</g>
<!-- Node324055&#45;&gt;Node324090 -->
<g id="edge12" class="edge">
<title>Node324055&#45;&gt;Node324090</title>
<path fill="none" stroke="#191970" d="M221.9348,-68.1204C239.2327,-49.7868 266.3328,-25.3721 296,-14.8357 411.3941,26.147 560.6166,-28.9527 614.9991,-52.2861"/>
<polygon fill="#191970" stroke="#191970" points="219.3087,-65.8057 215.1426,-75.5471 224.4742,-70.5299 219.3087,-65.8057"/>
</g>
<!-- Node324061 -->
<g id="node9" class="node">
<title>Node324061</title>
<g id="a_node9"><a xlink:href="quickjs_8c.html#acc9eb677cab8dfcf45f59381f8a19601" target="_top" xlink:title="js_parse_function_decl2">
<polygon fill="none" stroke="#ff0000" points="296,-24.3357 296,-43.3357 418,-43.3357 418,-24.3357 296,-24.3357"/>
<text text-anchor="middle" x="357" y="-31.3357" font-family="Helvetica,sans-Serif" font-size="10.00" fill="#000000">js_parse_function_decl2</text>
</a>
</g>
</g>
<!-- Node324055&#45;&gt;Node324061 -->
<g id="edge16" class="edge">
<title>Node324055&#45;&gt;Node324061</title>
<path fill="none" stroke="#191970" d="M253.1967,-72.1321C279.1612,-62.5529 309.6822,-51.2928 330.88,-43.4722"/>
<polygon fill="#191970" stroke="#191970" points="251.668,-68.9654 243.4975,-75.7104 254.0909,-75.5327 251.668,-68.9654"/>
</g>
<!-- Node324056&#45;&gt;Node324056 -->
<g id="edge9" class="edge">
<title>Node324056&#45;&gt;Node324056</title>
<path fill="none" stroke="#191970" d="M329.7475,-128.4896C330.8867,-133.7725 339.9708,-137.8357 357,-137.8357 382.9492,-137.8357 390.4502,-128.401 379.5028,-119.5928"/>
<polygon fill="#191970" stroke="#191970" points="332.8752,-130.0627 334.4972,-119.5928 326.7001,-126.766 332.8752,-130.0627"/>
</g>
<!-- Node324057 -->
<g id="node4" class="node">
<title>Node324057</title>
<g id="a_node4"><a xlink:href="quickjs_8c.html#a12b48ce2b1f247b494fdde07dbe7f232" target="_top" xlink:title="js_parse_left_hand\l_side_expr">
<polygon fill="none" stroke="#ff0000" points="454,-50.8357 454,-80.8357 552,-80.8357 552,-50.8357 454,-50.8357"/>
<text text-anchor="start" x="462" y="-68.8357" font-family="Helvetica,sans-Serif" font-size="10.00" fill="#000000">js_parse_left_hand</text>
<text text-anchor="middle" x="503" y="-57.8357" font-family="Helvetica,sans-Serif" font-size="10.00" fill="#000000">_side_expr</text>
</a>
</g>
</g>
<!-- Node324056&#45;&gt;Node324057 -->
<g id="edge4" class="edge">
<title>Node324056&#45;&gt;Node324057</title>
<path fill="none" stroke="#191970" d="M398.463,-97.34C415.715,-92.1407 435.8764,-86.0647 453.8652,-80.6434"/>
<polygon fill="#191970" stroke="#191970" points="397.2445,-94.0516 388.6798,-100.2883 399.2644,-100.7539 397.2445,-94.0516"/>
</g>
<!-- Node324076 -->
<g id="node7" class="node">
<title>Node324076</title>
<g id="a_node7"><a xlink:href="quickjs_8c.html#a9f26c765171d977db1796791f035f1f9" target="_top" xlink:title="js_parse_unary">
<polygon fill="none" stroke="#ff0000" points="461.5,-100.3357 461.5,-119.3357 544.5,-119.3357 544.5,-100.3357 461.5,-100.3357"/>
<text text-anchor="middle" x="503" y="-107.3357" font-family="Helvetica,sans-Serif" font-size="10.00" fill="#000000">js_parse_unary</text>
</a>
</g>
</g>
<!-- Node324056&#45;&gt;Node324076 -->
<g id="edge10" class="edge">
<title>Node324056&#45;&gt;Node324076</title>
<path fill="none" stroke="#191970" d="M423.3312,-109.8357C436.291,-109.8357 449.5335,-109.8357 461.4065,-109.8357"/>
<polygon fill="#191970" stroke="#191970" points="423.0299,-106.3358 413.0299,-109.8357 423.0298,-113.3358 423.0299,-106.3358"/>
</g>
<!-- Node324057&#45;&gt;Node324055 -->
<g id="edge5" class="edge">
<title>Node324057&#45;&gt;Node324055</title>
<path fill="none" stroke="#191970" d="M443.5972,-70.7777C390.3593,-75.2068 312.7574,-81.6629 260.0839,-86.045"/>
<polygon fill="#191970" stroke="#191970" points="443.8985,-74.2648 453.5738,-69.9477 443.318,-67.2889 443.8985,-74.2648"/>
</g>
<!-- Node324057&#45;&gt;Node324067 -->
<g id="edge6" class="edge">
<title>Node324057&#45;&gt;Node324067</title>
<path fill="none" stroke="#191970" d="M552.3761,-84.3981C572.0907,-91.8097 593.96,-100.0312 610.3883,-106.2072"/>
<polygon fill="#191970" stroke="#191970" points="553.4964,-81.0802 542.9044,-80.8373 551.0331,-87.6325 553.4964,-81.0802"/>
</g>
<!-- Node324067&#45;&gt;Node324065 -->
<g id="edge7" class="edge">
<title>Node324067&#45;&gt;Node324065</title>
<path fill="none" stroke="#191970" d="M694.4959,-115.8357C702.9152,-115.8357 711.5247,-115.8357 719.7878,-115.8357"/>
<polygon fill="#191970" stroke="#191970" points="694.3568,-112.3358 684.3568,-115.8357 694.3568,-119.3358 694.3568,-112.3358"/>
</g>
<!-- Node324065&#45;&gt;Node324065 -->
<g id="edge8" class="edge">
<title>Node324065&#45;&gt;Node324065</title>
<path fill="none" stroke="#191970" d="M747.1898,-141.2936C750.145,-146.0147 758.0817,-149.3357 771,-149.3357 792.1992,-149.3357 799.9833,-140.3923 794.3523,-130.9947"/>
<polygon fill="#191970" stroke="#191970" points="750.7,-141.1403 747.6477,-130.9947 743.7069,-140.8293 750.7,-141.1403"/>
</g>
<!-- Node324076&#45;&gt;Node324076 -->
<g id="edge11" class="edge">
<title>Node324076&#45;&gt;Node324076</title>
<path fill="none" stroke="#191970" d="M478.4465,-128.8649C479.7858,-133.9637 487.9703,-137.8357 503,-137.8357 526.4609,-137.8357 533.2426,-128.401 523.345,-119.5928"/>
<polygon fill="#191970" stroke="#191970" points="481.709,-130.1453 482.655,-119.5928 475.3348,-127.2521 481.709,-130.1453"/>
</g>
<!-- Node324090&#45;&gt;Node324065 -->
<g id="edge13" class="edge">
<title>Node324090&#45;&gt;Node324065</title>
<path fill="none" stroke="#191970" d="M669.1892,-75.1114C688.6312,-82.8882 713.2463,-92.7342 733.4027,-100.7968"/>
<polygon fill="#191970" stroke="#191970" points="670.4092,-71.8298 659.8245,-71.3655 667.8094,-78.3291 670.4092,-71.8298"/>
</g>
</g>
</svg>
        <g id="navigator" transform="translate(0 0)" fill="#404254">
                <rect fill="#f2f5e9" fill-opacity="0.5" stroke="#606060" stroke-width=".5" x="0" y="0" width="60" height="60"/>
                <use id="zoomplus" xlink:href="#zoomPlus" x="17" y="9" onmousedown="handleZoom(evt,'in')"/>
                <use id="zoomminus" xlink:href="#zoomMin" x="42" y="9" onmousedown="handleZoom(evt,'out')"/>
                <use id="reset" xlink:href="#resetDef" x="30" y="36" onmousedown="handleReset()"/>
                <g id="arrowUp" xlink:href="#dirArrow" transform="translate(30 24)" onmousedown="handlePan(0,-1)">
                  <use xlink:href="#rim" fill="#404040">
                        <set attributeName="fill" to="#808080" begin="arrowUp.mouseover" end="arrowUp.mouseout"/>
                  </use>
                  <path fill="none" stroke="white" stroke-width="1.5" d="M0,-3.0v7 M-2.5,-0.5L0,-3.0L2.5,-0.5"/>
                </g>
                <g id="arrowRight" xlink:href="#dirArrow" transform="rotate(90) translate(36 -43)" onmousedown="handlePan(1,0)">
                  <use xlink:href="#rim" fill="#404040">
                        <set attributeName="fill" to="#808080" begin="arrowRight.mouseover" end="arrowRight.mouseout"/>
                  </use>
                  <path fill="none" stroke="white" stroke-width="1.5" d="M0,-3.0v7 M-2.5,-0.5L0,-3.0L2.5,-0.5"/>
                </g>
                <g id="arrowDown" xlink:href="#dirArrow" transform="rotate(180) translate(-30 -48)" onmousedown="handlePan(0,1)">
                  <use xlink:href="#rim" fill="#404040">
                        <set attributeName="fill" to="#808080" begin="arrowDown.mouseover" end="arrowDown.mouseout"/>
                  </use>
                  <path fill="none" stroke="white" stroke-width="1.5" d="M0,-3.0v7 M-2.5,-0.5L0,-3.0L2.5,-0.5"/>
                </g>
                <g id="arrowLeft" xlink:href="#dirArrow" transform="rotate(270) translate(-36 17)" onmousedown="handlePan(-1,0)">
                  <use xlink:href="#rim" fill="#404040">
                        <set attributeName="fill" to="#808080" begin="arrowLeft.mouseover" end="arrowLeft.mouseout"/>
                  </use>
                  <path fill="none" stroke="white" stroke-width="1.5" d="M0,-3.0v7 M-2.5,-0.5L0,-3.0L2.5,-0.5"/>
                </g>
        </g>
        <svg viewBox="0 0 15 15" width="100%" height="30px" preserveAspectRatio="xMaxYMin meet">
         <g id="arrow_out" transform="scale(0.3 0.3)">
          <a xlink:href="quickjs_8c_a98ab69061f85c400e0eed2c0eb47f49b_icgraph_org.svg" target="_base">
           <rect id="button" ry="5" rx="5" y="6" x="6" height="38" width="38"
                fill="#f2f5e9" fill-opacity="0.5" stroke="#606060" stroke-width="1.0"/>
           <path id="arrow"
             d="M 11.500037,31.436501 C 11.940474,20.09759 22.043105,11.32322 32.158766,21.979434 L 37.068811,17.246167 C 37.068811,17.246167 37.088388,32 37.088388,32 L 22.160133,31.978069 C 22.160133,31.978069 26.997745,27.140456 26.997745,27.140456 C 18.528582,18.264221 13.291696,25.230495 11.500037,31.436501 z"
             style="fill:#404040;"/>
          </a>
         </g>
        </svg>
</svg>
