<?xml version="1.0" encoding="UTF-8" standalone="no"?>
<!DOCTYPE svg PUBLIC "-//W3C//DTD SVG 1.1//EN"
 "http://www.w3.org/Graphics/SVG/1.1/DTD/svg11.dtd">
<!-- Generated by graphviz version 2.40.1 (20161225.0304)
 -->
<!-- Title: js_unary_arith_slow Pages: 1 -->
<svg width="569pt" height="1013pt"
 viewBox="0.00 0.00 569.00 1013.00" xmlns="http://www.w3.org/2000/svg" xmlns:xlink="http://www.w3.org/1999/xlink">
<g id="graph0" class="graph" transform="scale(1 1) rotate(0) translate(4 1009)">
<title>js_unary_arith_slow</title>
<!-- Node261401 -->
<g id="node1" class="node">
<title>Node261401</title>
<polygon fill="#bfbfbf" stroke="#000000" points="0,-274.5 0,-293.5 103,-293.5 103,-274.5 0,-274.5"/>
<text text-anchor="middle" x="51.5" y="-281.5" font-family="Helvetica,sans-Serif" font-size="10.00" fill="#000000">js_unary_arith_slow</text>
</g>
<!-- Node261402 -->
<g id="node2" class="node">
<title>Node261402</title>
<g id="a_node2"><a xlink:href="quickjs_8c.html#ac2894ff4edcdb4e6841bcce9c76081e3" target="_top" xlink:title="JS_CallInternal">
<polygon fill="none" stroke="#000000" points="139,-274.5 139,-293.5 222,-293.5 222,-274.5 139,-274.5"/>
<text text-anchor="middle" x="180.5" y="-281.5" font-family="Helvetica,sans-Serif" font-size="10.00" fill="#000000">JS_CallInternal</text>
</a>
</g>
</g>
<!-- Node261401&#45;&gt;Node261402 -->
<g id="edge1" class="edge">
<title>Node261401&#45;&gt;Node261402</title>
<path fill="none" stroke="#191970" d="M113.2655,-284C121.8746,-284 130.5488,-284 138.6731,-284"/>
<polygon fill="#191970" stroke="#191970" points="113.226,-280.5001 103.2259,-284 113.2259,-287.5001 113.226,-280.5001"/>
</g>
<!-- Node261402&#45;&gt;Node261402 -->
<g id="edge40" class="edge">
<title>Node261402&#45;&gt;Node261402</title>
<path fill="none" stroke="#191970" d="M156.6906,-303.0292C157.9893,-308.128 165.9258,-312 180.5,-312 203.25,-312 209.8262,-302.5653 200.2285,-293.7571"/>
<polygon fill="#191970" stroke="#191970" points="159.9465,-304.3197 160.7715,-293.7571 153.5396,-301.4998 159.9465,-304.3197"/>
</g>
<!-- Node261403 -->
<g id="node3" class="node">
<title>Node261403</title>
<g id="a_node3"><a xlink:href="quickjs_8c.html#ade71a22dc56e7371392393df663b28b3" target="_top" xlink:title="async_func_resume">
<polygon fill="none" stroke="#000000" points="273,-892.5 273,-911.5 377,-911.5 377,-892.5 273,-892.5"/>
<text text-anchor="middle" x="325" y="-899.5" font-family="Helvetica,sans-Serif" font-size="10.00" fill="#000000">async_func_resume</text>
</a>
</g>
</g>
<!-- Node261402&#45;&gt;Node261403 -->
<g id="edge2" class="edge">
<title>Node261402&#45;&gt;Node261403</title>
<path fill="none" stroke="#191970" d="M185.0805,-303.5901C207.6381,-400.0646 306.4849,-822.8142 322.7352,-892.3141"/>
<polygon fill="#191970" stroke="#191970" points="188.4547,-302.6478 182.7697,-293.7073 181.6385,-304.2416 188.4547,-302.6478"/>
</g>
<!-- Node261422 -->
<g id="node8" class="node">
<title>Node261422</title>
<g id="a_node8"><a xlink:href="quickjs_8c.html#a1a4c02a29525d5cb2085dd8bca3af350" target="_top" xlink:title="JS_Call">
<polygon fill="none" stroke="#ff0000" points="299.5,-366.5 299.5,-385.5 350.5,-385.5 350.5,-366.5 299.5,-366.5"/>
<text text-anchor="middle" x="325" y="-373.5" font-family="Helvetica,sans-Serif" font-size="10.00" fill="#000000">JS_Call</text>
</a>
</g>
</g>
<!-- Node261402&#45;&gt;Node261422 -->
<g id="edge7" class="edge">
<title>Node261402&#45;&gt;Node261422</title>
<path fill="none" stroke="#191970" d="M212.5346,-298.6777C245.4699,-317.7532 294.7662,-349.8516 315.3895,-366.3007"/>
<polygon fill="#191970" stroke="#191970" points="214.1399,-295.5643 203.7164,-293.6666 210.6814,-301.6503 214.1399,-295.5643"/>
</g>
<!-- Node261508 -->
<g id="node29" class="node">
<title>Node261508</title>
<g id="a_node29"><a xlink:href="quickjs_8c.html#ad35594576a14c10812efaf958c99af8a" target="_top" xlink:title="JS_CallConstructorInternal">
<polygon fill="none" stroke="#ff0000" points="258,-274.5 258,-293.5 392,-293.5 392,-274.5 258,-274.5"/>
<text text-anchor="middle" x="325" y="-281.5" font-family="Helvetica,sans-Serif" font-size="10.00" fill="#000000">JS_CallConstructorInternal</text>
</a>
</g>
</g>
<!-- Node261402&#45;&gt;Node261508 -->
<g id="edge34" class="edge">
<title>Node261402&#45;&gt;Node261508</title>
<path fill="none" stroke="#191970" d="M232.5209,-277.4909C240.7845,-277.2892 249.4321,-277.2142 257.9815,-277.2658"/>
<polygon fill="#191970" stroke="#191970" points="232.1798,-273.9998 222.2954,-277.814 232.401,-280.9963 232.1798,-273.9998"/>
</g>
<!-- Node261522 -->
<g id="node30" class="node">
<title>Node261522</title>
<g id="a_node30"><a xlink:href="quickjs_8c.html#a75f6ee5e4235a7dc99889f3d2eb2c147" target="_top" xlink:title="JS_CallFree">
<polygon fill="none" stroke="#ff0000" points="289.5,-91.5 289.5,-110.5 360.5,-110.5 360.5,-91.5 289.5,-91.5"/>
<text text-anchor="middle" x="325" y="-98.5" font-family="Helvetica,sans-Serif" font-size="10.00" fill="#000000">JS_CallFree</text>
</a>
</g>
</g>
<!-- Node261402&#45;&gt;Node261522 -->
<g id="edge36" class="edge">
<title>Node261402&#45;&gt;Node261522</title>
<path fill="none" stroke="#191970" d="M183.7023,-264.4197C191.2042,-229.2158 212.8044,-156.4964 258,-116 266.742,-108.167 278.2224,-102.8425 289.2049,-99.7033"/>
<polygon fill="#191970" stroke="#191970" points="180.2265,-263.9582 181.75,-274.4429 187.0974,-265.2965 180.2265,-263.9582"/>
</g>
<!-- Node261404 -->
<g id="node4" class="node">
<title>Node261404</title>
<g id="a_node4"><a xlink:href="quickjs_8c.html#ac90552b1f1659acb3dae9a4c62479a30" target="_top" xlink:title="js_generator_function_call">
<polygon fill="none" stroke="#ff0000" points="429.5,-985.5 429.5,-1004.5 559.5,-1004.5 559.5,-985.5 429.5,-985.5"/>
<text text-anchor="middle" x="494.5" y="-992.5" font-family="Helvetica,sans-Serif" font-size="10.00" fill="#000000">js_generator_function_call</text>
</a>
</g>
</g>
<!-- Node261403&#45;&gt;Node261404 -->
<g id="edge3" class="edge">
<title>Node261403&#45;&gt;Node261404</title>
<path fill="none" stroke="#191970" d="M343.4671,-918.3133C363.1641,-934.9499 395.8865,-960.4617 428,-976 435.782,-979.7654 444.4469,-982.9157 452.8825,-985.499"/>
<polygon fill="#191970" stroke="#191970" points="345.488,-915.4351 335.6226,-911.5717 340.9255,-920.7439 345.488,-915.4351"/>
</g>
<!-- Node261413 -->
<g id="node5" class="node">
<title>Node261413</title>
<g id="a_node5"><a xlink:href="quickjs_8c.html#a1bf6b62983e8fff99c0a5d5a9f486115" target="_top" xlink:title="js_async_function_resume">
<polygon fill="none" stroke="#ff0000" points="428,-848.5 428,-867.5 561,-867.5 561,-848.5 428,-848.5"/>
<text text-anchor="middle" x="494.5" y="-855.5" font-family="Helvetica,sans-Serif" font-size="10.00" fill="#000000">js_async_function_resume</text>
</a>
</g>
</g>
<!-- Node261403&#45;&gt;Node261413 -->
<g id="edge4" class="edge">
<title>Node261403&#45;&gt;Node261413</title>
<path fill="none" stroke="#191970" d="M371.4651,-889.9383C398.6496,-882.8815 432.4877,-874.0976 457.7928,-867.5287"/>
<polygon fill="#191970" stroke="#191970" points="370.5787,-886.5523 361.779,-892.4527 372.3376,-893.3277 370.5787,-886.5523"/>
</g>
<!-- Node261420 -->
<g id="node6" class="node">
<title>Node261420</title>
<g id="a_node6"><a xlink:href="quickjs_8c.html#a89b019c704a2d2914bc30b30a72040b3" target="_top" xlink:title="js_async_generator\l_resume_next">
<polygon fill="none" stroke="#000000" points="444,-936 444,-966 545,-966 545,-936 444,-936"/>
<text text-anchor="start" x="452" y="-954" font-family="Helvetica,sans-Serif" font-size="10.00" fill="#000000">js_async_generator</text>
<text text-anchor="middle" x="494.5" y="-943" font-family="Helvetica,sans-Serif" font-size="10.00" fill="#000000">_resume_next</text>
</a>
</g>
</g>
<!-- Node261403&#45;&gt;Node261420 -->
<g id="edge5" class="edge">
<title>Node261403&#45;&gt;Node261420</title>
<path fill="none" stroke="#191970" d="M367.9372,-914.4125C391.0226,-921.0862 419.6309,-929.3564 443.805,-936.3448"/>
<polygon fill="#191970" stroke="#191970" points="368.6623,-910.9789 358.0837,-911.564 366.7183,-917.7036 368.6623,-910.9789"/>
</g>
<!-- Node261421 -->
<g id="node7" class="node">
<title>Node261421</title>
<g id="a_node7"><a xlink:href="quickjs_8c.html#ae19867da709929c072f05e90301835a4" target="_top" xlink:title="js_async_generator\l_function_call">
<polygon fill="none" stroke="#ff0000" points="444,-887 444,-917 545,-917 545,-887 444,-887"/>
<text text-anchor="start" x="452" y="-905" font-family="Helvetica,sans-Serif" font-size="10.00" fill="#000000">js_async_generator</text>
<text text-anchor="middle" x="494.5" y="-894" font-family="Helvetica,sans-Serif" font-size="10.00" fill="#000000">_function_call</text>
</a>
</g>
</g>
<!-- Node261403&#45;&gt;Node261421 -->
<g id="edge6" class="edge">
<title>Node261403&#45;&gt;Node261421</title>
<path fill="none" stroke="#191970" d="M387.388,-902C405.9885,-902 426.1368,-902 443.8866,-902"/>
<polygon fill="#191970" stroke="#191970" points="387.2387,-898.5001 377.2387,-902 387.2386,-905.5001 387.2387,-898.5001"/>
</g>
<!-- Node261422&#45;&gt;Node261402 -->
<g id="edge14" class="edge">
<title>Node261422&#45;&gt;Node261402</title>
<path fill="none" stroke="#191970" d="M293.2443,-361.4837C260.24,-342.3885 210.5848,-310.0599 189.981,-293.5959"/>
<polygon fill="#191970" stroke="#191970" points="291.649,-364.6027 302.0736,-366.4945 295.104,-358.5148 291.649,-364.6027"/>
</g>
<!-- Node261422&#45;&gt;Node261413 -->
<g id="edge15" class="edge">
<title>Node261422&#45;&gt;Node261413</title>
<path fill="none" stroke="#191970" d="M326.7375,-395.7477C334.14,-475.5029 365.5618,-772.7381 428,-839 431.6232,-842.845 435.9653,-845.9296 440.6723,-848.4016"/>
<polygon fill="#191970" stroke="#191970" points="330.2073,-395.2551 325.8188,-385.6119 323.2359,-395.8871 330.2073,-395.2551"/>
</g>
<!-- Node261423 -->
<g id="node9" class="node">
<title>Node261423</title>
<g id="a_node9"><a xlink:href="structqjs_1_1js__traits_3_01std_1_1function_3_01R_07Args_8_8_8_08_4_01_4.html#ac449e51d3fe10c6c115596fa6ec278ee" target="_top" xlink:title="qjs::js_traits\&lt; std\l::function\&lt; R(Args...)\l\&gt; \&gt;::unwrap">
<polygon fill="none" stroke="#000000" points="440,-600.5 440,-641.5 549,-641.5 549,-600.5 440,-600.5"/>
<text text-anchor="start" x="448" y="-629.5" font-family="Helvetica,sans-Serif" font-size="10.00" fill="#000000">qjs::js_traits&lt; std</text>
<text text-anchor="start" x="448" y="-618.5" font-family="Helvetica,sans-Serif" font-size="10.00" fill="#000000">::function&lt; R(Args...)</text>
<text text-anchor="middle" x="494.5" y="-607.5" font-family="Helvetica,sans-Serif" font-size="10.00" fill="#000000">&gt; &gt;::unwrap</text>
</a>
</g>
</g>
<!-- Node261422&#45;&gt;Node261423 -->
<g id="edge8" class="edge">
<title>Node261422&#45;&gt;Node261423</title>
<path fill="none" stroke="#191970" d="M329.4623,-395.375C339.8697,-436.57 369.4328,-533.763 428,-591 431.5327,-594.4525 435.5324,-597.5493 439.7748,-600.3186"/>
<polygon fill="#191970" stroke="#191970" points="332.8332,-394.4238 327.0752,-385.5302 326.0303,-396.0734 332.8332,-394.4238"/>
</g>
<!-- Node261424 -->
<g id="node10" class="node">
<title>Node261424</title>
<g id="a_node10"><a xlink:href="quickjs-libc_8c.html#abb1cbe3fdf905e81f603a3a0bfce475a" target="_top" xlink:title="call_handler">
<polygon fill="none" stroke="#000000" points="460.5,-562.5 460.5,-581.5 528.5,-581.5 528.5,-562.5 460.5,-562.5"/>
<text text-anchor="middle" x="494.5" y="-569.5" font-family="Helvetica,sans-Serif" font-size="10.00" fill="#000000">call_handler</text>
</a>
</g>
</g>
<!-- Node261422&#45;&gt;Node261424 -->
<g id="edge9" class="edge">
<title>Node261422&#45;&gt;Node261424</title>
<path fill="none" stroke="#191970" d="M330.9669,-395.7267C343.0804,-432.3807 374.0815,-511.0638 428,-553 437.2883,-560.2242 449.2106,-564.7017 460.3889,-567.4768"/>
<polygon fill="#191970" stroke="#191970" points="334.173,-394.2588 327.8095,-385.7879 327.5016,-396.3783 334.173,-394.2588"/>
</g>
<!-- Node261425 -->
<g id="node11" class="node">
<title>Node261425</title>
<g id="a_node11"><a xlink:href="quickjs-libc_8c.html#a9fa4c190ba56314c7ed9b00bbc7ad0f9" target="_top" xlink:title="handle_posted_message">
<polygon fill="none" stroke="#000000" points="432,-524.5 432,-543.5 557,-543.5 557,-524.5 432,-524.5"/>
<text text-anchor="middle" x="494.5" y="-531.5" font-family="Helvetica,sans-Serif" font-size="10.00" fill="#000000">handle_posted_message</text>
</a>
</g>
</g>
<!-- Node261422&#45;&gt;Node261425 -->
<g id="edge10" class="edge">
<title>Node261422&#45;&gt;Node261425</title>
<path fill="none" stroke="#191970" d="M333.8132,-394.8068C348.8433,-424.8129 382.3,-483.3519 428,-515 433.6266,-518.8965 440.0444,-521.9998 446.6221,-524.4699"/>
<polygon fill="#191970" stroke="#191970" points="336.9551,-393.2643 329.4314,-385.8048 330.6611,-396.328 336.9551,-393.2643"/>
</g>
<!-- Node261426 -->
<g id="node12" class="node">
<title>Node261426</title>
<g id="a_node12"><a xlink:href="quickjs_8c.html#aa049793cc8648d35fe81876a2543ca4e" target="_top" xlink:title="JS_GetIterator2">
<polygon fill="none" stroke="#ff0000" points="451.5,-486.5 451.5,-505.5 537.5,-505.5 537.5,-486.5 451.5,-486.5"/>
<text text-anchor="middle" x="494.5" y="-493.5" font-family="Helvetica,sans-Serif" font-size="10.00" fill="#000000">JS_GetIterator2</text>
</a>
</g>
</g>
<!-- Node261422&#45;&gt;Node261426 -->
<g id="edge11" class="edge">
<title>Node261422&#45;&gt;Node261426</title>
<path fill="none" stroke="#191970" d="M338.3664,-393.7373C356.3204,-416.3395 390.3525,-455.0958 428,-477 435.161,-481.1665 443.2929,-484.4672 451.3519,-487.0663"/>
<polygon fill="#191970" stroke="#191970" points="340.9953,-391.4163 332.0957,-385.6676 335.4679,-395.7114 340.9953,-391.4163"/>
</g>
<!-- Node261458 -->
<g id="node13" class="node">
<title>Node261458</title>
<g id="a_node13"><a xlink:href="quickjs_8c.html#ad6303fbd3add4afa0cb64b0aa6d431ce" target="_top" xlink:title="JS_IteratorNext2">
<polygon fill="none" stroke="#ff0000" points="449,-448.5 449,-467.5 540,-467.5 540,-448.5 449,-448.5"/>
<text text-anchor="middle" x="494.5" y="-455.5" font-family="Helvetica,sans-Serif" font-size="10.00" fill="#000000">JS_IteratorNext2</text>
</a>
</g>
</g>
<!-- Node261422&#45;&gt;Node261458 -->
<g id="edge12" class="edge">
<title>Node261422&#45;&gt;Node261458</title>
<path fill="none" stroke="#191970" d="M346.4657,-391.5216C366.6737,-405.5409 398.2058,-425.922 428,-439 436.3559,-442.6678 445.6114,-445.8323 454.496,-448.4693"/>
<polygon fill="#191970" stroke="#191970" points="348.2159,-388.4733 338.0246,-385.577 344.1853,-394.1965 348.2159,-388.4733"/>
</g>
<!-- Node261462 -->
<g id="node14" class="node">
<title>Node261462</title>
<g id="a_node14"><a xlink:href="quickjs_8c.html#afd4ef2d701fa0702f321925b61c57bbf" target="_top" xlink:title="js_call_bound_function">
<polygon fill="none" stroke="#ff0000" points="436.5,-410.5 436.5,-429.5 552.5,-429.5 552.5,-410.5 436.5,-410.5"/>
<text text-anchor="middle" x="494.5" y="-417.5" font-family="Helvetica,sans-Serif" font-size="10.00" fill="#000000">js_call_bound_function</text>
</a>
</g>
</g>
<!-- Node261422&#45;&gt;Node261462 -->
<g id="edge13" class="edge">
<title>Node261422&#45;&gt;Node261462</title>
<path fill="none" stroke="#191970" d="M360.6969,-385.2665C389.2137,-392.669 429.0299,-403.0048 457.8058,-410.4747"/>
<polygon fill="#191970" stroke="#191970" points="361.302,-381.8076 350.7434,-382.6827 359.5432,-388.583 361.302,-381.8076"/>
</g>
<!-- Node261463 -->
<g id="node15" class="node">
<title>Node261463</title>
<g id="a_node15"><a xlink:href="quickjs_8c.html#a3e852026d167fa03c673f86697dd3e67" target="_top" xlink:title="js_async_generator\l_resolve_or_reject">
<polygon fill="none" stroke="#ff0000" points="444,-361 444,-391 545,-391 545,-361 444,-361"/>
<text text-anchor="start" x="452" y="-379" font-family="Helvetica,sans-Serif" font-size="10.00" fill="#000000">js_async_generator</text>
<text text-anchor="middle" x="494.5" y="-368" font-family="Helvetica,sans-Serif" font-size="10.00" fill="#000000">_resolve_or_reject</text>
</a>
</g>
</g>
<!-- Node261422&#45;&gt;Node261463 -->
<g id="edge16" class="edge">
<title>Node261422&#45;&gt;Node261463</title>
<path fill="none" stroke="#191970" d="M360.8847,-376C385.0145,-376 417.1716,-376 443.8919,-376"/>
<polygon fill="#191970" stroke="#191970" points="360.7434,-372.5001 350.7434,-376 360.7434,-379.5001 360.7434,-372.5001"/>
</g>
<!-- Node261466 -->
<g id="node16" class="node">
<title>Node261466</title>
<g id="a_node16"><a xlink:href="quickjs_8c.html#a2355fabf91f59212ea65baba1b0b7c1b" target="_top" xlink:title="js_async_generator_next">
<polygon fill="none" stroke="#000000" points="432,-322.5 432,-341.5 557,-341.5 557,-322.5 432,-322.5"/>
<text text-anchor="middle" x="494.5" y="-329.5" font-family="Helvetica,sans-Serif" font-size="10.00" fill="#000000">js_async_generator_next</text>
</a>
</g>
</g>
<!-- Node261422&#45;&gt;Node261466 -->
<g id="edge17" class="edge">
<title>Node261422&#45;&gt;Node261466</title>
<path fill="none" stroke="#191970" d="M360.6969,-366.7335C389.2137,-359.331 429.0299,-348.9952 457.8058,-341.5253"/>
<polygon fill="#191970" stroke="#191970" points="359.5432,-363.417 350.7434,-369.3173 361.302,-370.1924 359.5432,-363.417"/>
</g>
<!-- Node261467 -->
<g id="node17" class="node">
<title>Node261467</title>
<g id="a_node17"><a xlink:href="quickjs_8c.html#adc0280beaa04d2b8fcaf05a82ab26c74" target="_top" xlink:title="js_link_module">
<polygon fill="none" stroke="#ff0000" points="454,-266.5 454,-285.5 535,-285.5 535,-266.5 454,-266.5"/>
<text text-anchor="middle" x="494.5" y="-273.5" font-family="Helvetica,sans-Serif" font-size="10.00" fill="#000000">js_link_module</text>
</a>
</g>
</g>
<!-- Node261422&#45;&gt;Node261467 -->
<g id="edge18" class="edge">
<title>Node261422&#45;&gt;Node261467</title>
<path fill="none" stroke="#191970" d="M348.7375,-361.0979C369.5068,-348.1514 400.5605,-329.0161 428,-313 444.4309,-303.4095 463.4181,-292.9013 476.8868,-285.5423"/>
<polygon fill="#191970" stroke="#191970" points="346.8638,-358.1416 340.2377,-366.4087 350.573,-364.0781 346.8638,-358.1416"/>
</g>
<!-- Node261471 -->
<g id="node18" class="node">
<title>Node261471</title>
<g id="a_node18"><a xlink:href="quickjs_8c.html#a6357b7fdae71c70c140e78e6c20cb5c2" target="_top" xlink:title="js_dynamic_import_job">
<polygon fill="none" stroke="#ff0000" points="436.5,-228.5 436.5,-247.5 552.5,-247.5 552.5,-228.5 436.5,-228.5"/>
<text text-anchor="middle" x="494.5" y="-235.5" font-family="Helvetica,sans-Serif" font-size="10.00" fill="#000000">js_dynamic_import_job</text>
</a>
</g>
</g>
<!-- Node261422&#45;&gt;Node261471 -->
<g id="edge20" class="edge">
<title>Node261422&#45;&gt;Node261471</title>
<path fill="none" stroke="#191970" d="M341.313,-358.9947C355.127,-344.4148 375.2908,-322.7052 392,-303 408.7901,-283.1993 406.4645,-271.4981 428,-257 433.777,-253.1108 440.3497,-250.0087 447.0612,-247.5365"/>
<polygon fill="#191970" stroke="#191970" points="338.7152,-356.6475 334.3541,-366.3032 343.7847,-361.4745 338.7152,-356.6475"/>
</g>
<!-- Node261475 -->
<g id="node19" class="node">
<title>Node261475</title>
<g id="a_node19"><a xlink:href="quickjs_8c.html#a8d4b24969540aff427939eeda47f451d" target="_top" xlink:title="js_function_apply">
<polygon fill="none" stroke="#ff0000" points="448.5,-76.5 448.5,-95.5 540.5,-95.5 540.5,-76.5 448.5,-76.5"/>
<text text-anchor="middle" x="494.5" y="-83.5" font-family="Helvetica,sans-Serif" font-size="10.00" fill="#000000">js_function_apply</text>
</a>
</g>
</g>
<!-- Node261422&#45;&gt;Node261475 -->
<g id="edge21" class="edge">
<title>Node261422&#45;&gt;Node261475</title>
<path fill="none" stroke="#191970" d="M345.299,-359.5976C360.6111,-346.0634 380.8252,-325.4865 392,-303 431.8049,-222.9027 367.9429,-171.2808 428,-105 433.4824,-98.9495 440.7442,-94.7728 448.4534,-91.9012"/>
<polygon fill="#191970" stroke="#191970" points="342.7143,-357.2024 337.3852,-366.3594 347.2616,-362.5243 342.7143,-357.2024"/>
</g>
<!-- Node261478 -->
<g id="node20" class="node">
<title>Node261478</title>
<g id="a_node20"><a xlink:href="quickjs_8c.html#a677ad630a103e1f3d5129e0549112b50" target="_top" xlink:title="js_function_call">
<polygon fill="none" stroke="#000000" points="452.5,-190.5 452.5,-209.5 536.5,-209.5 536.5,-190.5 452.5,-190.5"/>
<text text-anchor="middle" x="494.5" y="-197.5" font-family="Helvetica,sans-Serif" font-size="10.00" fill="#000000">js_function_call</text>
</a>
</g>
</g>
<!-- Node261422&#45;&gt;Node261478 -->
<g id="edge23" class="edge">
<title>Node261422&#45;&gt;Node261478</title>
<path fill="none" stroke="#191970" d="M343.436,-359.3048C358.0412,-345.3428 378.2135,-324.3334 392,-303 414.0459,-268.8861 397.5199,-245.8467 428,-219 434.8479,-212.9684 443.4908,-208.8435 452.2594,-206.0248"/>
<polygon fill="#191970" stroke="#191970" points="340.8788,-356.9044 335.9706,-366.2938 345.6628,-362.0145 340.8788,-356.9044"/>
</g>
<!-- Node261429 -->
<g id="node21" class="node">
<title>Node261429</title>
<g id="a_node21"><a xlink:href="quickjs_8c.html#a5e32da9a43002cb96dcbd62a1a340144" target="_top" xlink:title="js_array_from">
<polygon fill="none" stroke="#000000" points="456.5,-152.5 456.5,-171.5 532.5,-171.5 532.5,-152.5 456.5,-152.5"/>
<text text-anchor="middle" x="494.5" y="-159.5" font-family="Helvetica,sans-Serif" font-size="10.00" fill="#000000">js_array_from</text>
</a>
</g>
</g>
<!-- Node261422&#45;&gt;Node261429 -->
<g id="edge24" class="edge">
<title>Node261422&#45;&gt;Node261429</title>
<path fill="none" stroke="#191970" d="M344.3822,-359.4856C359.3583,-345.7604 379.5663,-324.9826 392,-303 419.8326,-253.7923 387.8524,-220.8023 428,-181 435.589,-173.4763 445.9387,-168.8875 456.2124,-166.1023"/>
<polygon fill="#191970" stroke="#191970" points="341.8193,-357.0814 336.683,-366.348 346.477,-362.307 341.8193,-357.0814"/>
</g>
<!-- Node261455 -->
<g id="node22" class="node">
<title>Node261455</title>
<g id="a_node22"><a xlink:href="quickjs_8c.html#aa0bbf08a7e91459c68a312fba7016c6d" target="_top" xlink:title="js_array_every">
<polygon fill="none" stroke="#000000" points="454.5,-114.5 454.5,-133.5 534.5,-133.5 534.5,-114.5 454.5,-114.5"/>
<text text-anchor="middle" x="494.5" y="-121.5" font-family="Helvetica,sans-Serif" font-size="10.00" fill="#000000">js_array_every</text>
</a>
</g>
</g>
<!-- Node261422&#45;&gt;Node261455 -->
<g id="edge25" class="edge">
<title>Node261422&#45;&gt;Node261455</title>
<path fill="none" stroke="#191970" d="M344.7794,-359.7018C359.9792,-346.0983 380.2942,-325.3786 392,-303 425.784,-238.4134 377.949,-195.9876 428,-143 434.9258,-135.6678 444.4663,-131.1018 454.16,-128.2759"/>
<polygon fill="#191970" stroke="#191970" points="342.2106,-357.2967 336.9485,-366.4925 346.7966,-362.5852 342.2106,-357.2967"/>
</g>
<!-- Node261479 -->
<g id="node23" class="node">
<title>Node261479</title>
<g id="a_node23"><a xlink:href="quickjs_8c.html#a36c1692489542a86dd79a7d39ab8ff95" target="_top" xlink:title="js_array_reduce">
<polygon fill="none" stroke="#000000" points="451.5,-810.5 451.5,-829.5 537.5,-829.5 537.5,-810.5 451.5,-810.5"/>
<text text-anchor="middle" x="494.5" y="-817.5" font-family="Helvetica,sans-Serif" font-size="10.00" fill="#000000">js_array_reduce</text>
</a>
</g>
</g>
<!-- Node261422&#45;&gt;Node261479 -->
<g id="edge26" class="edge">
<title>Node261422&#45;&gt;Node261479</title>
<path fill="none" stroke="#191970" d="M327.1388,-395.5625C335.751,-470.8717 370.2298,-740.8395 428,-801 434.3206,-807.5821 442.7493,-811.9306 451.4773,-814.7916"/>
<polygon fill="#191970" stroke="#191970" points="330.6096,-395.106 326.0173,-385.5582 323.6532,-395.8859 330.6096,-395.106"/>
</g>
<!-- Node261480 -->
<g id="node24" class="node">
<title>Node261480</title>
<g id="a_node24"><a xlink:href="quickjs_8c.html#a9dd41b086da4e13b3487cc9c6e2af2b8" target="_top" xlink:title="js_array_find">
<polygon fill="none" stroke="#000000" points="458.5,-772.5 458.5,-791.5 530.5,-791.5 530.5,-772.5 458.5,-772.5"/>
<text text-anchor="middle" x="494.5" y="-779.5" font-family="Helvetica,sans-Serif" font-size="10.00" fill="#000000">js_array_find</text>
</a>
</g>
</g>
<!-- Node261422&#45;&gt;Node261480 -->
<g id="edge27" class="edge">
<title>Node261422&#45;&gt;Node261480</title>
<path fill="none" stroke="#191970" d="M327.7077,-396.0667C337.7518,-467.6506 375.0488,-709.0773 428,-763 435.9922,-771.1388 447.2104,-775.8536 458.1597,-778.5648"/>
<polygon fill="#191970" stroke="#191970" points="331.1187,-395.1804 326.2856,-385.7522 324.1843,-396.1366 331.1187,-395.1804"/>
</g>
<!-- Node261481 -->
<g id="node25" class="node">
<title>Node261481</title>
<g id="a_node25"><a xlink:href="quickjs_8c.html#ad90c33b4aae1181151bda4a98ac2ef23" target="_top" xlink:title="JS_FlattenIntoArray">
<polygon fill="none" stroke="#ff0000" points="442.5,-716.5 442.5,-735.5 546.5,-735.5 546.5,-716.5 442.5,-716.5"/>
<text text-anchor="middle" x="494.5" y="-723.5" font-family="Helvetica,sans-Serif" font-size="10.00" fill="#000000">JS_FlattenIntoArray</text>
</a>
</g>
</g>
<!-- Node261422&#45;&gt;Node261481 -->
<g id="edge28" class="edge">
<title>Node261422&#45;&gt;Node261481</title>
<path fill="none" stroke="#191970" d="M328.5833,-395.6167C340.6742,-459.779 381.8037,-661.8714 428,-707 432.1227,-711.0274 437.0373,-714.2125 442.3019,-716.7296"/>
<polygon fill="#191970" stroke="#191970" points="331.9929,-394.8072 326.7247,-385.6151 325.1107,-396.0862 331.9929,-394.8072"/>
</g>
<!-- Node261483 -->
<g id="node26" class="node">
<title>Node261483</title>
<g id="a_node26"><a xlink:href="quickjs_8c.html#aed1bf9ce4b9e3a82388679dd6ec7635b" target="_top" xlink:title="js_string_replace">
<polygon fill="none" stroke="#000000" points="449.5,-38.5 449.5,-57.5 539.5,-57.5 539.5,-38.5 449.5,-38.5"/>
<text text-anchor="middle" x="494.5" y="-45.5" font-family="Helvetica,sans-Serif" font-size="10.00" fill="#000000">js_string_replace</text>
</a>
</g>
</g>
<!-- Node261422&#45;&gt;Node261483 -->
<g id="edge30" class="edge">
<title>Node261422&#45;&gt;Node261483</title>
<path fill="none" stroke="#191970" d="M345.4771,-359.6845C360.8873,-346.1982 381.1465,-325.6433 392,-303 437.8612,-207.3212 357.8835,-146.6326 428,-67 433.6337,-60.6017 441.2576,-56.291 449.3344,-53.4021"/>
<polygon fill="#191970" stroke="#191970" points="342.8863,-357.2914 337.5053,-366.418 347.4032,-362.639 342.8863,-357.2914"/>
</g>
<!-- Node261484 -->
<g id="node27" class="node">
<title>Node261484</title>
<g id="a_node27"><a xlink:href="quickjs_8c.html#a624282391413d4c5a030adbd8b77aa80" target="_top" xlink:title="internalize_json_property">
<polygon fill="none" stroke="#ff0000" points="432,-660.5 432,-679.5 557,-679.5 557,-660.5 432,-660.5"/>
<text text-anchor="middle" x="494.5" y="-667.5" font-family="Helvetica,sans-Serif" font-size="10.00" fill="#000000">internalize_json_property</text>
</a>
</g>
</g>
<!-- Node261422&#45;&gt;Node261484 -->
<g id="edge31" class="edge">
<title>Node261422&#45;&gt;Node261484</title>
<path fill="none" stroke="#191970" d="M326.4886,-395.9326C331.3453,-446.3747 351.1884,-580.1051 428,-651 432.2352,-654.909 437.2201,-658.02 442.5247,-660.495"/>
<polygon fill="#191970" stroke="#191970" points="329.9549,-395.3916 325.6066,-385.7302 322.9809,-395.9945 329.9549,-395.3916"/>
</g>
<!-- Node261486 -->
<g id="node28" class="node">
<title>Node261486</title>
<g id="a_node28"><a xlink:href="quickjs_8c.html#a0da6493b4bc0edb7ddddfab807241d0b" target="_top" xlink:title="js_json_check">
<polygon fill="none" stroke="#ff0000" points="455,-.5 455,-19.5 534,-19.5 534,-.5 455,-.5"/>
<text text-anchor="middle" x="494.5" y="-7.5" font-family="Helvetica,sans-Serif" font-size="10.00" fill="#000000">js_json_check</text>
</a>
</g>
</g>
<!-- Node261422&#45;&gt;Node261486 -->
<g id="edge33" class="edge">
<title>Node261422&#45;&gt;Node261486</title>
<path fill="none" stroke="#191970" d="M345.6075,-359.7462C361.0896,-346.2939 381.3818,-325.7546 392,-303 443.9379,-191.6974 347.793,-122.0197 428,-29 434.8216,-21.0887 444.687,-16.3602 454.7395,-13.5649"/>
<polygon fill="#191970" stroke="#191970" points="343.0115,-357.3551 337.5932,-366.4596 347.5066,-362.7211 343.0115,-357.3551"/>
</g>
<!-- Node261467&#45;&gt;Node261467 -->
<g id="edge19" class="edge">
<title>Node261467&#45;&gt;Node261467</title>
<path fill="none" stroke="#191970" d="M463.0629,-294.2746C463.9592,-299.741 474.4382,-304 494.5,-304 524.3594,-304 532.9906,-294.5653 520.3937,-285.7571"/>
<polygon fill="#191970" stroke="#191970" points="466.085,-296.0475 468.6063,-285.7571 460.2181,-292.2291 466.085,-296.0475"/>
</g>
<!-- Node261475&#45;&gt;Node261402 -->
<g id="edge22" class="edge">
<title>Node261475&#45;&gt;Node261402</title>
<path fill="none" stroke="#191970" d="M442.7366,-98.8526C437.6655,-100.6845 432.6727,-102.73 428,-105 326.8798,-154.1243 223.5066,-244.6431 190.9593,-274.3077"/>
<polygon fill="#191970" stroke="#191970" points="444.1422,-102.0735 452.5217,-95.59 441.9281,-95.4329 444.1422,-102.0735"/>
</g>
<!-- Node261481&#45;&gt;Node261481 -->
<g id="edge29" class="edge">
<title>Node261481&#45;&gt;Node261481</title>
<path fill="none" stroke="#191970" d="M463.0629,-744.2746C463.9592,-749.741 474.4382,-754 494.5,-754 524.3594,-754 532.9906,-744.5653 520.3937,-735.7571"/>
<polygon fill="#191970" stroke="#191970" points="466.085,-746.0475 468.6063,-735.7571 460.2181,-742.2291 466.085,-746.0475"/>
</g>
<!-- Node261484&#45;&gt;Node261484 -->
<g id="edge32" class="edge">
<title>Node261484&#45;&gt;Node261484</title>
<path fill="none" stroke="#191970" d="M463.0629,-688.2746C463.9592,-693.741 474.4382,-698 494.5,-698 524.3594,-698 532.9906,-688.5653 520.3937,-679.7571"/>
<polygon fill="#191970" stroke="#191970" points="466.085,-690.0475 468.6063,-679.7571 460.2181,-686.2291 466.085,-690.0475"/>
</g>
<!-- Node261508&#45;&gt;Node261402 -->
<g id="edge35" class="edge">
<title>Node261508&#45;&gt;Node261402</title>
<path fill="none" stroke="#191970" d="M247.7059,-290.7354C238.9651,-290.6845 230.3232,-290.5014 222.2954,-290.186"/>
<polygon fill="#191970" stroke="#191970" points="247.9819,-294.2354 257.9815,-290.7342 247.981,-287.2354 247.9819,-294.2354"/>
</g>
<!-- Node261522&#45;&gt;Node261402 -->
<g id="edge37" class="edge">
<title>Node261522&#45;&gt;Node261402</title>
<path fill="none" stroke="#191970" d="M298.0852,-113.696C284.7437,-118.1037 269.146,-124.0129 258,-134 212.716,-174.5757 191.1198,-247.5005 183.6584,-274.2978"/>
<polygon fill="#191970" stroke="#191970" points="299.2985,-116.9822 307.7367,-110.5754 297.1449,-110.3217 299.2985,-116.9822"/>
</g>
<!-- Node261522&#45;&gt;Node261483 -->
<g id="edge39" class="edge">
<title>Node261522&#45;&gt;Node261483</title>
<path fill="none" stroke="#191970" d="M362.5897,-88.1858C382.0522,-81.6544 406.2366,-73.6981 428,-67 438.3283,-63.8213 449.6137,-60.5293 459.9066,-57.5965"/>
<polygon fill="#191970" stroke="#191970" points="361.2393,-84.9474 352.8804,-91.4573 363.4745,-91.581 361.2393,-84.9474"/>
</g>
<!-- Node261522&#45;&gt;Node261486 -->
<g id="edge38" class="edge">
<title>Node261522&#45;&gt;Node261486</title>
<path fill="none" stroke="#191970" d="M343.8654,-84.8954C363.6589,-68.7273 396.2521,-44.109 428,-29 436.3483,-25.027 445.6908,-21.7251 454.6741,-19.05"/>
<polygon fill="#191970" stroke="#191970" points="341.4189,-82.3776 335.9633,-91.4598 345.8919,-87.7621 341.4189,-82.3776"/>
</g>
</g>
</svg>
