<?xml version="1.0" encoding="UTF-8" standalone="no"?>
<!DOCTYPE svg PUBLIC "-//W3C//DTD SVG 1.1//EN"
 "http://www.w3.org/Graphics/SVG/1.1/DTD/svg11.dtd">
<!-- Generated by graphviz version 2.40.1 (20161225.0304)
 -->
<!-- Title: pop_break_entry Pages: 1 -->
<!--zoomable 294 -->
<svg id="main" version="1.1" xmlns="http://www.w3.org/2000/svg" xmlns:xlink="http://www.w3.org/1999/xlink" xml:space="preserve" onload="init(evt)">
<style type="text/css"><![CDATA[
.edge:hover path { stroke: red; }
.edge:hover polygon { stroke: red; fill: red; }
]]></style>
<script type="text/javascript"><![CDATA[
var edges = document.getElementsByTagName('g');
if (edges && edges.length) {
  for (var i=0;i<edges.length;i++) {
    if (edges[i].id.substr(0,4)=='edge') {
      edges[i].setAttribute('class','edge');
    }
  }
}
]]></script>
        <defs>
                <circle id="rim" cx="0" cy="0" r="7"/>
                <circle id="rim2" cx="0" cy="0" r="3.5"/>
                <g id="zoomPlus">
                        <use xlink:href="#rim" fill="#404040">
                                <set attributeName="fill" to="#808080" begin="zoomplus.mouseover" end="zoomplus.mouseout"/>
                        </use>
                        <path d="M-4,0h8M0,-4v8" fill="none" stroke="white" stroke-width="1.5" pointer-events="none"/>
                </g>
                <g id="zoomMin">
                        <use xlink:href="#rim" fill="#404040">
                                <set attributeName="fill" to="#808080" begin="zoomminus.mouseover" end="zoomminus.mouseout"/>
                        </use>
                        <path d="M-4,0h8" fill="none" stroke="white" stroke-width="1.5" pointer-events="none"/>
                </g>
                <g id="dirArrow">
                        <path fill="none" stroke="white" stroke-width="1.5" d="M0,-3.0v7 M-2.5,-0.5L0,-3.0L2.5,-0.5"/>
                </g>
               <g id="resetDef">
                       <use xlink:href="#rim2" fill="#404040">
                               <set attributeName="fill" to="#808080" begin="reset.mouseover" end="reset.mouseout"/>
                       </use>
               </g>
        </defs>

<script type="text/javascript">
var viewWidth = 810;
var viewHeight = 294;
var sectionId = 'dynsection-1004';
</script>
<script xlink:href="svgpan.js"/>
<svg id="graph" class="graph">
<g id="viewport">
<title>pop_break_entry</title>
<!-- Node316820 -->
<g id="node1" class="node">
<title>Node316820</title>
<polygon fill="#bfbfbf" stroke="#000000" points="0,-123.9134 0,-142.9134 89,-142.9134 89,-123.9134 0,-123.9134"/>
<text text-anchor="middle" x="44.5" y="-130.9134" font-family="Helvetica,sans-Serif" font-size="10.00" fill="#000000">pop_break_entry</text>
</g>
<!-- Node316821 -->
<g id="node2" class="node">
<title>Node316821</title>
<g id="a_node2"><a xlink:href="quickjs_8c.html#a26be546cf89c4580ba9020e8fc43a759" target="_top" xlink:title="js_parse_destructuring\l_element">
<polygon fill="none" stroke="#000000" points="125,-118.4134 125,-148.4134 240,-148.4134 240,-118.4134 125,-118.4134"/>
<text text-anchor="start" x="133" y="-136.4134" font-family="Helvetica,sans-Serif" font-size="10.00" fill="#000000">js_parse_destructuring</text>
<text text-anchor="middle" x="182.5" y="-125.4134" font-family="Helvetica,sans-Serif" font-size="10.00" fill="#000000">_element</text>
</a>
</g>
</g>
<!-- Node316820&#45;&gt;Node316821 -->
<g id="edge1" class="edge">
<title>Node316820&#45;&gt;Node316821</title>
<path fill="none" stroke="#191970" d="M99.3472,-133.4134C107.7275,-133.4134 116.3989,-133.4134 124.8376,-133.4134"/>
<polygon fill="#191970" stroke="#191970" points="99.3047,-129.9135 89.3046,-133.4134 99.3046,-136.9135 99.3047,-129.9135"/>
</g>
<!-- Node316827 -->
<g id="node5" class="node">
<title>Node316827</title>
<g id="a_node5"><a xlink:href="quickjs_8c.html#ac188b916dd086803591a67de7e7a85f6" target="_top" xlink:title="js_parse_for_in_of">
<polygon fill="none" stroke="#000000" points="568,-126.9134 568,-145.9134 664,-145.9134 664,-126.9134 568,-126.9134"/>
<text text-anchor="middle" x="616" y="-133.9134" font-family="Helvetica,sans-Serif" font-size="10.00" fill="#000000">js_parse_for_in_of</text>
</a>
</g>
</g>
<!-- Node316820&#45;&gt;Node316827 -->
<g id="edge17" class="edge">
<title>Node316820&#45;&gt;Node316827</title>
<path fill="none" stroke="#191970" d="M64.2372,-149.508C102.3376,-179.4148 189.8841,-242.5869 276,-265.4134 386.5455,-294.7153 433.86,-298.1283 532,-239.4134 571.4047,-215.8384 600.3055,-166.676 611.2219,-145.9522"/>
<polygon fill="#191970" stroke="#191970" points="66.0573,-146.4834 56.0533,-142.9945 61.6981,-151.9604 66.0573,-146.4834"/>
</g>
<!-- Node316825 -->
<g id="node6" class="node">
<title>Node316825</title>
<g id="a_node6"><a xlink:href="quickjs_8c.html#a9d844c16dcc71701436848074337d32c" target="_top" xlink:title="js_parse_statement\l_or_decl">
<polygon fill="none" stroke="#ff0000" points="700,-42.4134 700,-72.4134 802,-72.4134 802,-42.4134 700,-42.4134"/>
<text text-anchor="start" x="708" y="-60.4134" font-family="Helvetica,sans-Serif" font-size="10.00" fill="#000000">js_parse_statement</text>
<text text-anchor="middle" x="751" y="-49.4134" font-family="Helvetica,sans-Serif" font-size="10.00" fill="#000000">_or_decl</text>
</a>
</g>
</g>
<!-- Node316820&#45;&gt;Node316825 -->
<g id="edge18" class="edge">
<title>Node316820&#45;&gt;Node316825</title>
<path fill="none" stroke="#191970" d="M63.9273,-117.4366C108.9372,-82.0983 225.0826,-.4134 337,-.4134 337,-.4134 337,-.4134 483,-.4134 563.8864,-.4134 585.7948,1.2401 664,-19.4134 684.2384,-24.7582 705.808,-34.1521 722.4071,-42.2622"/>
<polygon fill="#191970" stroke="#191970" points="61.5274,-114.8739 55.8961,-123.8483 65.8948,-120.3444 61.5274,-114.8739"/>
</g>
<!-- Node316821&#45;&gt;Node316821 -->
<g id="edge2" class="edge">
<title>Node316821&#45;&gt;Node316821</title>
<path fill="none" stroke="#191970" d="M157.9791,-158.8713C161.0225,-163.5923 169.1961,-166.9134 182.5,-166.9134 204.332,-166.9134 212.3485,-157.9699 206.5493,-148.5724"/>
<polygon fill="#191970" stroke="#191970" points="161.4895,-158.722 158.4507,-148.5724 154.4968,-158.4018 161.4895,-158.722"/>
</g>
<!-- Node316822 -->
<g id="node3" class="node">
<title>Node316822</title>
<g id="a_node3"><a xlink:href="quickjs_8c.html#a840642c87c5a82d4cc68333376a3b6de" target="_top" xlink:title="js_parse_postfix_expr">
<polygon fill="none" stroke="#000000" points="281,-180.9134 281,-199.9134 393,-199.9134 393,-180.9134 281,-180.9134"/>
<text text-anchor="middle" x="337" y="-187.9134" font-family="Helvetica,sans-Serif" font-size="10.00" fill="#000000">js_parse_postfix_expr</text>
</a>
</g>
</g>
<!-- Node316821&#45;&gt;Node316822 -->
<g id="edge3" class="edge">
<title>Node316821&#45;&gt;Node316822</title>
<path fill="none" stroke="#191970" d="M233.1967,-152.117C259.1612,-161.6961 289.6822,-172.9563 310.88,-180.7768"/>
<polygon fill="#191970" stroke="#191970" points="234.0909,-148.7164 223.4975,-148.5387 231.668,-155.2837 234.0909,-148.7164"/>
</g>
<!-- Node316821&#45;&gt;Node316827 -->
<g id="edge14" class="edge">
<title>Node316821&#45;&gt;Node316827</title>
<path fill="none" stroke="#191970" d="M250.086,-133.1876C320.4873,-133.0508 433.9816,-133.1064 532,-134.4134 543.5231,-134.567 555.9336,-134.8163 567.5865,-135.0875"/>
<polygon fill="#191970" stroke="#191970" points="250.0111,-129.6876 240.0186,-133.2091 250.0261,-136.6876 250.0111,-129.6876"/>
</g>
<!-- Node316821&#45;&gt;Node316825 -->
<g id="edge15" class="edge">
<title>Node316821&#45;&gt;Node316825</title>
<path fill="none" stroke="#191970" d="M250.246,-124.3567C365.4547,-108.955 597.0279,-77.9972 699.8257,-64.2546"/>
<polygon fill="#191970" stroke="#191970" points="249.5874,-120.9136 240.1394,-125.7078 250.515,-127.8518 249.5874,-120.9136"/>
</g>
<!-- Node316856 -->
<g id="node8" class="node">
<title>Node316856</title>
<g id="a_node8"><a xlink:href="quickjs_8c.html#a9660cf21845352b14655d423389d6620" target="_top" xlink:title="js_parse_var">
<polygon fill="none" stroke="#ff0000" points="580,-28.9134 580,-47.9134 652,-47.9134 652,-28.9134 580,-28.9134"/>
<text text-anchor="middle" x="616" y="-35.9134" font-family="Helvetica,sans-Serif" font-size="10.00" fill="#000000">js_parse_var</text>
</a>
</g>
</g>
<!-- Node316821&#45;&gt;Node316856 -->
<g id="edge12" class="edge">
<title>Node316821&#45;&gt;Node316856</title>
<path fill="none" stroke="#191970" d="M204.1405,-111.0513C221.7676,-94.4222 248.2087,-72.8731 276,-62.4134 380.6721,-23.0184 516.1094,-28.7111 579.8327,-34.3894"/>
<polygon fill="#191970" stroke="#191970" points="201.4242,-108.8104 196.6887,-118.2881 206.3009,-113.8321 201.4242,-108.8104"/>
</g>
<!-- Node316830 -->
<g id="node9" class="node">
<title>Node316830</title>
<g id="a_node9"><a xlink:href="quickjs_8c.html#acc9eb677cab8dfcf45f59381f8a19601" target="_top" xlink:title="js_parse_function_decl2">
<polygon fill="none" stroke="#ff0000" points="276,-236.9134 276,-255.9134 398,-255.9134 398,-236.9134 276,-236.9134"/>
<text text-anchor="middle" x="337" y="-243.9134" font-family="Helvetica,sans-Serif" font-size="10.00" fill="#000000">js_parse_function_decl2</text>
</a>
</g>
</g>
<!-- Node316821&#45;&gt;Node316830 -->
<g id="edge16" class="edge">
<title>Node316821&#45;&gt;Node316830</title>
<path fill="none" stroke="#191970" d="M200.0137,-156.6107C217.1986,-177.8623 245.2436,-208.7671 276,-227.4134 282.2602,-231.2086 289.347,-234.3099 296.418,-236.8226"/>
<polygon fill="#191970" stroke="#191970" points="202.7124,-154.3807 193.7634,-148.7092 197.2224,-158.7235 202.7124,-154.3807"/>
</g>
<!-- Node316822&#45;&gt;Node316822 -->
<g id="edge9" class="edge">
<title>Node316822&#45;&gt;Node316822</title>
<path fill="none" stroke="#191970" d="M309.7475,-209.0673C310.8867,-214.3502 319.9708,-218.4134 337,-218.4134 362.9492,-218.4134 370.4502,-208.9786 359.5028,-200.1704"/>
<polygon fill="#191970" stroke="#191970" points="312.8752,-210.6404 314.4972,-200.1704 306.7001,-207.3437 312.8752,-210.6404"/>
</g>
<!-- Node316823 -->
<g id="node4" class="node">
<title>Node316823</title>
<g id="a_node4"><a xlink:href="quickjs_8c.html#a12b48ce2b1f247b494fdde07dbe7f232" target="_top" xlink:title="js_parse_left_hand\l_side_expr">
<polygon fill="none" stroke="#ff0000" points="434,-143.4134 434,-173.4134 532,-173.4134 532,-143.4134 434,-143.4134"/>
<text text-anchor="start" x="442" y="-161.4134" font-family="Helvetica,sans-Serif" font-size="10.00" fill="#000000">js_parse_left_hand</text>
<text text-anchor="middle" x="483" y="-150.4134" font-family="Helvetica,sans-Serif" font-size="10.00" fill="#000000">_side_expr</text>
</a>
</g>
</g>
<!-- Node316822&#45;&gt;Node316823 -->
<g id="edge4" class="edge">
<title>Node316822&#45;&gt;Node316823</title>
<path fill="none" stroke="#191970" d="M390.5145,-178.6842C404.6953,-175.576 419.9347,-172.2359 433.8699,-169.1816"/>
<polygon fill="#191970" stroke="#191970" points="389.4283,-175.3391 380.4095,-180.899 390.927,-182.1768 389.4283,-175.3391"/>
</g>
<!-- Node316842 -->
<g id="node7" class="node">
<title>Node316842</title>
<g id="a_node7"><a xlink:href="quickjs_8c.html#a9f26c765171d977db1796791f035f1f9" target="_top" xlink:title="js_parse_unary">
<polygon fill="none" stroke="#ff0000" points="441.5,-192.9134 441.5,-211.9134 524.5,-211.9134 524.5,-192.9134 441.5,-192.9134"/>
<text text-anchor="middle" x="483" y="-199.9134" font-family="Helvetica,sans-Serif" font-size="10.00" fill="#000000">js_parse_unary</text>
</a>
</g>
</g>
<!-- Node316822&#45;&gt;Node316842 -->
<g id="edge10" class="edge">
<title>Node316822&#45;&gt;Node316842</title>
<path fill="none" stroke="#191970" d="M403.3312,-195.8652C416.291,-196.9304 429.5335,-198.0189 441.4065,-198.9947"/>
<polygon fill="#191970" stroke="#191970" points="403.283,-192.3496 393.0299,-195.0186 402.7095,-199.326 403.283,-192.3496"/>
</g>
<!-- Node316823&#45;&gt;Node316821 -->
<g id="edge5" class="edge">
<title>Node316823&#45;&gt;Node316821</title>
<path fill="none" stroke="#191970" d="M423.5972,-153.4714C370.3593,-149.0423 292.7574,-142.5862 240.0839,-138.204"/>
<polygon fill="#191970" stroke="#191970" points="423.318,-156.9601 433.5738,-154.3014 423.8985,-149.9842 423.318,-156.9601"/>
</g>
<!-- Node316823&#45;&gt;Node316827 -->
<g id="edge6" class="edge">
<title>Node316823&#45;&gt;Node316827</title>
<path fill="none" stroke="#191970" d="M542.1585,-148.6278C550.7826,-147.2012 559.5735,-145.7471 567.9414,-144.3629"/>
<polygon fill="#191970" stroke="#191970" points="541.4411,-145.1988 532.1464,-150.2839 542.5836,-152.1049 541.4411,-145.1988"/>
</g>
<!-- Node316827&#45;&gt;Node316825 -->
<g id="edge7" class="edge">
<title>Node316827&#45;&gt;Node316825</title>
<path fill="none" stroke="#191970" d="M641.109,-121.7199C664.9851,-107.748 700.7487,-86.8197 724.9357,-72.6658"/>
<polygon fill="#191970" stroke="#191970" points="639.1473,-118.8126 632.2842,-126.8841 642.6827,-124.8542 639.1473,-118.8126"/>
</g>
<!-- Node316825&#45;&gt;Node316825 -->
<g id="edge8" class="edge">
<title>Node316825&#45;&gt;Node316825</title>
<path fill="none" stroke="#191970" d="M727.1898,-82.8713C730.145,-87.5923 738.0817,-90.9134 751,-90.9134 772.1992,-90.9134 779.9833,-81.9699 774.3523,-72.5724"/>
<polygon fill="#191970" stroke="#191970" points="730.7,-82.718 727.6477,-72.5724 723.7069,-82.407 730.7,-82.718"/>
</g>
<!-- Node316842&#45;&gt;Node316842 -->
<g id="edge11" class="edge">
<title>Node316842&#45;&gt;Node316842</title>
<path fill="none" stroke="#191970" d="M458.4465,-221.4425C459.7858,-226.5413 467.9703,-230.4134 483,-230.4134 506.4609,-230.4134 513.2426,-220.9786 503.345,-212.1704"/>
<polygon fill="#191970" stroke="#191970" points="461.709,-222.723 462.655,-212.1704 455.3348,-219.8298 461.709,-222.723"/>
</g>
<!-- Node316856&#45;&gt;Node316825 -->
<g id="edge13" class="edge">
<title>Node316856&#45;&gt;Node316825</title>
<path fill="none" stroke="#191970" d="M662.0835,-44.8992C674.2115,-46.6061 687.3687,-48.4578 699.7502,-50.2004"/>
<polygon fill="#191970" stroke="#191970" points="662.5677,-41.4329 652.1775,-43.505 661.5921,-48.3646 662.5677,-41.4329"/>
</g>
</g>
</svg>
        <g id="navigator" transform="translate(0 0)" fill="#404254">
                <rect fill="#f2f5e9" fill-opacity="0.5" stroke="#606060" stroke-width=".5" x="0" y="0" width="60" height="60"/>
                <use id="zoomplus" xlink:href="#zoomPlus" x="17" y="9" onmousedown="handleZoom(evt,'in')"/>
                <use id="zoomminus" xlink:href="#zoomMin" x="42" y="9" onmousedown="handleZoom(evt,'out')"/>
                <use id="reset" xlink:href="#resetDef" x="30" y="36" onmousedown="handleReset()"/>
                <g id="arrowUp" xlink:href="#dirArrow" transform="translate(30 24)" onmousedown="handlePan(0,-1)">
                  <use xlink:href="#rim" fill="#404040">
                        <set attributeName="fill" to="#808080" begin="arrowUp.mouseover" end="arrowUp.mouseout"/>
                  </use>
                  <path fill="none" stroke="white" stroke-width="1.5" d="M0,-3.0v7 M-2.5,-0.5L0,-3.0L2.5,-0.5"/>
                </g>
                <g id="arrowRight" xlink:href="#dirArrow" transform="rotate(90) translate(36 -43)" onmousedown="handlePan(1,0)">
                  <use xlink:href="#rim" fill="#404040">
                        <set attributeName="fill" to="#808080" begin="arrowRight.mouseover" end="arrowRight.mouseout"/>
                  </use>
                  <path fill="none" stroke="white" stroke-width="1.5" d="M0,-3.0v7 M-2.5,-0.5L0,-3.0L2.5,-0.5"/>
                </g>
                <g id="arrowDown" xlink:href="#dirArrow" transform="rotate(180) translate(-30 -48)" onmousedown="handlePan(0,1)">
                  <use xlink:href="#rim" fill="#404040">
                        <set attributeName="fill" to="#808080" begin="arrowDown.mouseover" end="arrowDown.mouseout"/>
                  </use>
                  <path fill="none" stroke="white" stroke-width="1.5" d="M0,-3.0v7 M-2.5,-0.5L0,-3.0L2.5,-0.5"/>
                </g>
                <g id="arrowLeft" xlink:href="#dirArrow" transform="rotate(270) translate(-36 17)" onmousedown="handlePan(-1,0)">
                  <use xlink:href="#rim" fill="#404040">
                        <set attributeName="fill" to="#808080" begin="arrowLeft.mouseover" end="arrowLeft.mouseout"/>
                  </use>
                  <path fill="none" stroke="white" stroke-width="1.5" d="M0,-3.0v7 M-2.5,-0.5L0,-3.0L2.5,-0.5"/>
                </g>
        </g>
        <svg viewBox="0 0 15 15" width="100%" height="30px" preserveAspectRatio="xMaxYMin meet">
         <g id="arrow_out" transform="scale(0.3 0.3)">
          <a xlink:href="quickjs_8c_a5c7cab2e519987b7421a0db07237ec0a_icgraph_org.svg" target="_base">
           <rect id="button" ry="5" rx="5" y="6" x="6" height="38" width="38"
                fill="#f2f5e9" fill-opacity="0.5" stroke="#606060" stroke-width="1.0"/>
           <path id="arrow"
             d="M 11.500037,31.436501 C 11.940474,20.09759 22.043105,11.32322 32.158766,21.979434 L 37.068811,17.246167 C 37.068811,17.246167 37.088388,32 37.088388,32 L 22.160133,31.978069 C 22.160133,31.978069 26.997745,27.140456 26.997745,27.140456 C 18.528582,18.264221 13.291696,25.230495 11.500037,31.436501 z"
             style="fill:#404040;"/>
          </a>
         </g>
        </svg>
</svg>
