<?xml version="1.0" encoding="UTF-8" standalone="no"?>
<!DOCTYPE svg PUBLIC "-//W3C//DTD SVG 1.1//EN"
 "http://www.w3.org/Graphics/SVG/1.1/DTD/svg11.dtd">
<!-- Generated by graphviz version 2.40.1 (20161225.0304)
 -->
<!-- Title: js_parse_class_default_ctor Pages: 1 -->
<svg width="546pt" height="169pt"
 viewBox="0.00 0.00 546.00 168.98" xmlns="http://www.w3.org/2000/svg" xmlns:xlink="http://www.w3.org/1999/xlink">
<g id="graph0" class="graph" transform="scale(1 1) rotate(0) translate(4 164.9809)">
<title>js_parse_class_default_ctor</title>
<!-- Node321103 -->
<g id="node1" class="node">
<title>Node321103</title>
<polygon fill="#bfbfbf" stroke="#000000" points="0,-39.4809 0,-58.4809 138,-58.4809 138,-39.4809 0,-39.4809"/>
<text text-anchor="middle" x="69" y="-46.4809" font-family="Helvetica,sans-Serif" font-size="10.00" fill="#000000">js_parse_class_default_ctor</text>
</g>
<!-- Node321104 -->
<g id="node2" class="node">
<title>Node321104</title>
<g id="a_node2"><a xlink:href="quickjs_8c.html#a00eb789430243c24dab4a63ad6a79653" target="_top" xlink:title="js_parse_class">
<polygon fill="none" stroke="#000000" points="174,-39.4809 174,-58.4809 256,-58.4809 256,-39.4809 174,-39.4809"/>
<text text-anchor="middle" x="215" y="-46.4809" font-family="Helvetica,sans-Serif" font-size="10.00" fill="#000000">js_parse_class</text>
</a>
</g>
</g>
<!-- Node321103&#45;&gt;Node321104 -->
<g id="edge1" class="edge">
<title>Node321103&#45;&gt;Node321104</title>
<path fill="none" stroke="#191970" d="M148.1926,-48.9809C157.0645,-48.9809 165.8135,-48.9809 173.9104,-48.9809"/>
<polygon fill="#191970" stroke="#191970" points="148.152,-45.481 138.152,-48.9809 148.1519,-52.481 148.152,-45.481"/>
</g>
<!-- Node321105 -->
<g id="node3" class="node">
<title>Node321105</title>
<g id="a_node3"><a xlink:href="quickjs_8c.html#a840642c87c5a82d4cc68333376a3b6de" target="_top" xlink:title="js_parse_postfix_expr">
<polygon fill="none" stroke="#000000" points="292,-123.4809 292,-142.4809 404,-142.4809 404,-123.4809 292,-123.4809"/>
<text text-anchor="middle" x="348" y="-130.4809" font-family="Helvetica,sans-Serif" font-size="10.00" fill="#000000">js_parse_postfix_expr</text>
</a>
</g>
</g>
<!-- Node321104&#45;&gt;Node321105 -->
<g id="edge2" class="edge">
<title>Node321104&#45;&gt;Node321105</title>
<path fill="none" stroke="#191970" d="M231.3711,-66.0089C246.0793,-80.4751 268.865,-100.9155 292,-113.9809 298.5258,-117.6664 305.8835,-120.7949 313.0679,-123.3845"/>
<polygon fill="#191970" stroke="#191970" points="233.6113,-63.2978 224.0799,-58.6715 228.6459,-68.2319 233.6113,-63.2978"/>
</g>
<!-- Node321109 -->
<g id="node6" class="node">
<title>Node321109</title>
<g id="a_node6"><a xlink:href="quickjs_8c.html#a9d844c16dcc71701436848074337d32c" target="_top" xlink:title="js_parse_statement\l_or_decl">
<polygon fill="none" stroke="#ff0000" points="297,-55.9809 297,-85.9809 399,-85.9809 399,-55.9809 297,-55.9809"/>
<text text-anchor="start" x="305" y="-73.9809" font-family="Helvetica,sans-Serif" font-size="10.00" fill="#000000">js_parse_statement</text>
<text text-anchor="middle" x="348" y="-62.9809" font-family="Helvetica,sans-Serif" font-size="10.00" fill="#000000">_or_decl</text>
</a>
</g>
</g>
<!-- Node321104&#45;&gt;Node321109 -->
<g id="edge8" class="edge">
<title>Node321104&#45;&gt;Node321109</title>
<path fill="none" stroke="#191970" d="M266.5124,-57.5018C276.4639,-59.1479 286.8878,-60.8721 296.8284,-62.5165"/>
<polygon fill="#191970" stroke="#191970" points="266.7901,-54.0002 256.353,-55.8213 265.6477,-60.9064 266.7901,-54.0002"/>
</g>
<!-- Node321115 -->
<g id="node7" class="node">
<title>Node321115</title>
<g id="a_node7"><a xlink:href="quickjs_8c.html#a498e1d5c7de1b59c1630e9847cde1e41" target="_top" xlink:title="js_parse_export">
<polygon fill="none" stroke="#ff0000" points="305,-17.4809 305,-36.4809 391,-36.4809 391,-17.4809 305,-17.4809"/>
<text text-anchor="middle" x="348" y="-24.4809" font-family="Helvetica,sans-Serif" font-size="10.00" fill="#000000">js_parse_export</text>
</a>
</g>
</g>
<!-- Node321104&#45;&gt;Node321115 -->
<g id="edge10" class="edge">
<title>Node321104&#45;&gt;Node321115</title>
<path fill="none" stroke="#191970" d="M266.3441,-40.4879C279.0585,-38.3848 292.5536,-36.1525 304.8331,-34.1213"/>
<polygon fill="#191970" stroke="#191970" points="265.6477,-37.0555 256.353,-42.1406 266.7901,-43.9616 265.6477,-37.0555"/>
</g>
<!-- Node321105&#45;&gt;Node321105 -->
<g id="edge5" class="edge">
<title>Node321105&#45;&gt;Node321105</title>
<path fill="none" stroke="#191970" d="M323.4465,-152.0101C324.7858,-157.1089 332.9703,-160.9809 348,-160.9809 371.4609,-160.9809 378.2426,-151.5462 368.345,-142.738"/>
<polygon fill="#191970" stroke="#191970" points="326.709,-153.2905 327.655,-142.738 320.3348,-150.3974 326.709,-153.2905"/>
</g>
<!-- Node321106 -->
<g id="node4" class="node">
<title>Node321106</title>
<g id="a_node4"><a xlink:href="quickjs_8c.html#a12b48ce2b1f247b494fdde07dbe7f232" target="_top" xlink:title="js_parse_left_hand\l_side_expr">
<polygon fill="none" stroke="#ff0000" points="440,-23.9809 440,-53.9809 538,-53.9809 538,-23.9809 440,-23.9809"/>
<text text-anchor="start" x="448" y="-41.9809" font-family="Helvetica,sans-Serif" font-size="10.00" fill="#000000">js_parse_left_hand</text>
<text text-anchor="middle" x="489" y="-30.9809" font-family="Helvetica,sans-Serif" font-size="10.00" fill="#000000">_side_expr</text>
</a>
</g>
</g>
<!-- Node321105&#45;&gt;Node321106 -->
<g id="edge3" class="edge">
<title>Node321105&#45;&gt;Node321106</title>
<path fill="none" stroke="#191970" d="M392.5901,-119.6877C396.541,-117.9654 400.4021,-116.0651 404,-113.9809 432.2687,-97.6057 459.6165,-70.9317 475.3515,-54.2005"/>
<polygon fill="#191970" stroke="#191970" points="391.2883,-116.4387 383.2897,-123.3866 393.8752,-122.9432 391.2883,-116.4387"/>
</g>
<!-- Node321125 -->
<g id="node5" class="node">
<title>Node321125</title>
<g id="a_node5"><a xlink:href="quickjs_8c.html#a9f26c765171d977db1796791f035f1f9" target="_top" xlink:title="js_parse_unary">
<polygon fill="none" stroke="#ff0000" points="447.5,-123.4809 447.5,-142.4809 530.5,-142.4809 530.5,-123.4809 447.5,-123.4809"/>
<text text-anchor="middle" x="489" y="-130.4809" font-family="Helvetica,sans-Serif" font-size="10.00" fill="#000000">js_parse_unary</text>
</a>
</g>
</g>
<!-- Node321105&#45;&gt;Node321125 -->
<g id="edge6" class="edge">
<title>Node321105&#45;&gt;Node321125</title>
<path fill="none" stroke="#191970" d="M414.3891,-132.9809C425.6367,-132.9809 437.0243,-132.9809 447.4015,-132.9809"/>
<polygon fill="#191970" stroke="#191970" points="414.1321,-129.481 404.1321,-132.9809 414.132,-136.481 414.1321,-129.481"/>
</g>
<!-- Node321106&#45;&gt;Node321104 -->
<g id="edge4" class="edge">
<title>Node321106&#45;&gt;Node321104</title>
<path fill="none" stroke="#191970" d="M446.4483,-20.1662C433.1244,-15.1785 418.1897,-10.4877 404,-7.9809 354.9813,.6788 340.2956,4.0757 292,-7.9809 267.7548,-14.0335 242.7758,-29.3162 228.0809,-39.4164"/>
<polygon fill="#191970" stroke="#191970" points="445.2434,-23.453 455.8317,-23.8236 447.7855,-16.9309 445.2434,-23.453"/>
</g>
<!-- Node321125&#45;&gt;Node321125 -->
<g id="edge7" class="edge">
<title>Node321125&#45;&gt;Node321125</title>
<path fill="none" stroke="#191970" d="M462.9584,-152.0101C464.3789,-157.1089 473.0594,-160.9809 489,-160.9809 513.8828,-160.9809 521.0755,-151.5462 510.5781,-142.738"/>
<polygon fill="#191970" stroke="#191970" points="466.238,-153.2665 467.4219,-142.738 459.9308,-150.2302 466.238,-153.2665"/>
</g>
<!-- Node321109&#45;&gt;Node321109 -->
<g id="edge9" class="edge">
<title>Node321109&#45;&gt;Node321109</title>
<path fill="none" stroke="#191970" d="M324.5452,-96.4388C327.4563,-101.1599 335.2745,-104.4809 348,-104.4809 368.8828,-104.4809 376.5507,-95.5375 371.0037,-86.1399"/>
<polygon fill="#191970" stroke="#191970" points="328.0553,-96.2835 324.9963,-86.1399 321.062,-95.9772 328.0553,-96.2835"/>
</g>
</g>
</svg>
