<?xml version="1.0" encoding="UTF-8" standalone="no"?>
<!DOCTYPE svg PUBLIC "-//W3C//DTD SVG 1.1//EN"
 "http://www.w3.org/Graphics/SVG/1.1/DTD/svg11.dtd">
<!-- Generated by graphviz version 2.40.1 (20161225.0304)
 -->
<!-- Title: js_proxy_define_own_property Pages: 1 -->
<svg width="986pt" height="1163pt"
 viewBox="0.00 0.00 986.00 1162.61" xmlns="http://www.w3.org/2000/svg" xmlns:xlink="http://www.w3.org/1999/xlink">
<g id="graph0" class="graph" transform="scale(1 1) rotate(0) translate(4 1158.6107)">
<title>js_proxy_define_own_property</title>
<!-- Node449451 -->
<g id="node1" class="node">
<title>Node449451</title>
<polygon fill="#bfbfbf" stroke="#000000" points="0,-329.6107 0,-359.6107 108,-359.6107 108,-329.6107 0,-329.6107"/>
<text text-anchor="start" x="8" y="-347.6107" font-family="Helvetica,sans-Serif" font-size="10.00" fill="#000000">js_proxy_define_own</text>
<text text-anchor="middle" x="54" y="-336.6107" font-family="Helvetica,sans-Serif" font-size="10.00" fill="#000000">_property</text>
</g>
<!-- Node449452 -->
<g id="node2" class="node">
<title>Node449452</title>
<g id="a_node2"><a xlink:href="quickjs_8c.html#a68c7ae36cec3bf8bbf6cc0868a71cc4b" target="_top" xlink:title="check_define_prop_flags">
<polygon fill="none" stroke="#000000" points="739,-829.1107 739,-848.1107 864,-848.1107 864,-829.1107 739,-829.1107"/>
<text text-anchor="middle" x="801.5" y="-836.1107" font-family="Helvetica,sans-Serif" font-size="10.00" fill="#000000">check_define_prop_flags</text>
</a>
</g>
</g>
<!-- Node449451&#45;&gt;Node449452 -->
<g id="edge1" class="edge">
<title>Node449451&#45;&gt;Node449452</title>
<path fill="none" stroke="#191970" d="M55.6072,-359.8647C63.9192,-437.4533 103.2155,-788.5653 144,-889.6107 189.8659,-1003.2455 177.958,-1116.6107 300.5,-1116.6107 300.5,-1116.6107 300.5,-1116.6107 456.5,-1116.6107 626.8372,-1116.6107 591.0576,-942.0371 739,-857.6107 742.8723,-855.4009 747.0291,-853.4217 751.2919,-851.6545"/>
<polygon fill="#191970" stroke="#191970" points="752.5896,-854.9059 760.7235,-848.1169 750.1312,-848.3518 752.5896,-854.9059"/>
</g>
<!-- Node449453 -->
<g id="node3" class="node">
<title>Node449453</title>
<g id="a_node3"><a xlink:href="quickjs_8c.html#a9e94551ddba8762d74eda5127445dbbd" target="_top" xlink:title="get_proxy_method">
<polygon fill="none" stroke="#000000" points="252,-886.1107 252,-905.1107 349,-905.1107 349,-886.1107 252,-886.1107"/>
<text text-anchor="middle" x="300.5" y="-893.1107" font-family="Helvetica,sans-Serif" font-size="10.00" fill="#000000">get_proxy_method</text>
</a>
</g>
</g>
<!-- Node449451&#45;&gt;Node449453 -->
<g id="edge2" class="edge">
<title>Node449451&#45;&gt;Node449453</title>
<path fill="none" stroke="#191970" d="M60.7211,-359.6344C95.348,-437.0357 253.4776,-790.5019 292.0136,-876.6412"/>
<polygon fill="#191970" stroke="#191970" points="288.8254,-878.0853 296.104,-885.7842 295.2151,-875.2267 288.8254,-878.0853"/>
</g>
<!-- Node449456 -->
<g id="node5" class="node">
<title>Node449456</title>
<g id="a_node5"><a xlink:href="quickjs_8h.html#ad80a83d73e9b7d872b88fbf2943aebe9" target="_top" xlink:title="JS_IsException">
<polygon fill="none" stroke="#000000" points="758.5,-867.1107 758.5,-886.1107 844.5,-886.1107 844.5,-867.1107 758.5,-867.1107"/>
<text text-anchor="middle" x="801.5" y="-874.1107" font-family="Helvetica,sans-Serif" font-size="10.00" fill="#000000">JS_IsException</text>
</a>
</g>
</g>
<!-- Node449451&#45;&gt;Node449456 -->
<g id="edge68" class="edge">
<title>Node449451&#45;&gt;Node449456</title>
<path fill="none" stroke="#191970" d="M54.9191,-359.8048C60.3424,-446.6022 89.7946,-880.0355 144,-1000.6107 184.0122,-1089.6143 202.9161,-1154.6107 300.5,-1154.6107 300.5,-1154.6107 300.5,-1154.6107 456.5,-1154.6107 622.6098,-1154.6107 753.9682,-956.7952 791.0057,-894.8964"/>
<polygon fill="#191970" stroke="#191970" points="794.0792,-896.5743 796.131,-886.1801 788.0451,-893.0262 794.0792,-896.5743"/>
</g>
<!-- Node449461 -->
<g id="node9" class="node">
<title>Node449461</title>
<g id="a_node9"><a xlink:href="quickjs_8c.html#afa67965c1017685fc6783776d6d0d4d7" target="_top" xlink:title="JS_AtomToValue">
<polygon fill="none" stroke="#000000" points="410,-183.1107 410,-202.1107 503,-202.1107 503,-183.1107 410,-183.1107"/>
<text text-anchor="middle" x="456.5" y="-190.1107" font-family="Helvetica,sans-Serif" font-size="10.00" fill="#000000">JS_AtomToValue</text>
</a>
</g>
</g>
<!-- Node449451&#45;&gt;Node449461 -->
<g id="edge8" class="edge">
<title>Node449451&#45;&gt;Node449461</title>
<path fill="none" stroke="#191970" d="M64.5666,-329.4532C79.6844,-309.0085 109.5019,-273.0394 144,-254.6107 225.851,-210.8864 334.6381,-197.8436 399.8995,-194.0469"/>
<polygon fill="#191970" stroke="#191970" points="400.1878,-197.5367 409.9891,-193.5137 399.8183,-190.5464 400.1878,-197.5367"/>
</g>
<!-- Node449489 -->
<g id="node14" class="node">
<title>Node449489</title>
<g id="a_node14"><a xlink:href="quickjs_8c.html#a75f6ee5e4235a7dc99889f3d2eb2c147" target="_top" xlink:title="JS_CallFree">
<polygon fill="none" stroke="#000000" points="144.5,-430.1107 144.5,-449.1107 215.5,-449.1107 215.5,-430.1107 144.5,-430.1107"/>
<text text-anchor="middle" x="180" y="-437.1107" font-family="Helvetica,sans-Serif" font-size="10.00" fill="#000000">JS_CallFree</text>
</a>
</g>
</g>
<!-- Node449451&#45;&gt;Node449489 -->
<g id="edge13" class="edge">
<title>Node449451&#45;&gt;Node449489</title>
<path fill="none" stroke="#191970" d="M73.9651,-359.6637C97.2026,-377.1841 135.4032,-405.9861 159.0528,-423.8172"/>
<polygon fill="#191970" stroke="#191970" points="156.961,-426.6233 167.0529,-429.849 161.1752,-421.034 156.961,-426.6233"/>
</g>
<!-- Node449635 -->
<g id="node17" class="node">
<title>Node449635</title>
<g id="a_node17"><a xlink:href="quickjs_8c.html#ab50618f1bf78e444caa6da0e3e2785d7" target="_top" xlink:title="JS_DefineProperty">
<polygon fill="none" stroke="#ff0000" points="584,-563.1107 584,-582.1107 683,-582.1107 683,-563.1107 584,-563.1107"/>
<text text-anchor="middle" x="633.5" y="-570.1107" font-family="Helvetica,sans-Serif" font-size="10.00" fill="#000000">JS_DefineProperty</text>
</a>
</g>
</g>
<!-- Node449451&#45;&gt;Node449635 -->
<g id="edge60" class="edge">
<title>Node449451&#45;&gt;Node449635</title>
<path fill="none" stroke="#191970" d="M55.0302,-359.9906C60.6393,-432.0692 93.4022,-740.2416 252,-914.6107 296.6705,-963.7233 320.4561,-967.0676 385,-982.6107 446.7892,-997.4904 479.7635,-1023.9937 528,-982.6107 567.9305,-948.3535 550.2525,-799.3946 564,-748.6107 579.9645,-689.637 609.4129,-623.4629 624.3284,-591.6741"/>
<polygon fill="#191970" stroke="#191970" points="627.6648,-592.8069 628.789,-582.2718 621.3405,-589.8064 627.6648,-592.8069"/>
</g>
<!-- Node449536 -->
<g id="node18" class="node">
<title>Node449536</title>
<g id="a_node18"><a xlink:href="quickjs_8h.html#afaa20c47565bc704c6c85f3d77254e7d" target="_top" xlink:title="JS_FreeValue">
<polygon fill="none" stroke="#ff0000" points="900,-126.1107 900,-145.1107 978,-145.1107 978,-126.1107 900,-126.1107"/>
<text text-anchor="middle" x="939" y="-133.1107" font-family="Helvetica,sans-Serif" font-size="10.00" fill="#000000">JS_FreeValue</text>
</a>
</g>
</g>
<!-- Node449451&#45;&gt;Node449536 -->
<g id="edge63" class="edge">
<title>Node449451&#45;&gt;Node449536</title>
<path fill="none" stroke="#191970" d="M56.4874,-329.2383C65.8326,-273.337 100.5369,-81.9685 144,-40.6107 195.8525,8.7302 228.9234,-2.6107 300.5,-2.6107 300.5,-2.6107 300.5,-2.6107 633.5,-2.6107 737.2559,-2.6107 774.6564,13.1435 864,-39.6107 895.1128,-57.9817 918.1002,-94.585 929.9515,-116.9058"/>
<polygon fill="#191970" stroke="#191970" points="926.9457,-118.7163 934.6022,-126.0394 933.1836,-115.54 926.9457,-118.7163"/>
</g>
<!-- Node449582 -->
<g id="node19" class="node">
<title>Node449582</title>
<g id="a_node19"><a xlink:href="quickjs_8h.html#a4e407128a9605afb77523e49e9a627fd" target="_top" xlink:title="JS_IsUndefined">
<polygon fill="none" stroke="#000000" points="758.5,-411.1107 758.5,-430.1107 844.5,-430.1107 844.5,-411.1107 758.5,-411.1107"/>
<text text-anchor="middle" x="801.5" y="-418.1107" font-family="Helvetica,sans-Serif" font-size="10.00" fill="#000000">JS_IsUndefined</text>
</a>
</g>
</g>
<!-- Node449451&#45;&gt;Node449582 -->
<g id="edge69" class="edge">
<title>Node449451&#45;&gt;Node449582</title>
<path fill="none" stroke="#191970" d="M97.341,-329.5373C181.3713,-302.4728 371.9099,-251.6704 528,-287.6107 628.1242,-310.6646 734.0616,-375.518 779.1228,-405.304"/>
<polygon fill="#191970" stroke="#191970" points="777.2888,-408.288 787.5475,-410.9357 781.1791,-402.4685 777.2888,-408.288"/>
</g>
<!-- Node449683 -->
<g id="node22" class="node">
<title>Node449683</title>
<g id="a_node22"><a xlink:href="quickjs_8c.html#a24be89a128d1cd7c0908604815b2b854" target="_top" xlink:title="js_same_value">
<polygon fill="none" stroke="#ff0000" points="760.5,-715.1107 760.5,-734.1107 842.5,-734.1107 842.5,-715.1107 760.5,-715.1107"/>
<text text-anchor="middle" x="801.5" y="-722.1107" font-family="Helvetica,sans-Serif" font-size="10.00" fill="#000000">js_same_value</text>
</a>
</g>
</g>
<!-- Node449451&#45;&gt;Node449683 -->
<g id="edge70" class="edge">
<title>Node449451&#45;&gt;Node449683</title>
<path fill="none" stroke="#191970" d="M54.2964,-359.7877C56.002,-420.6255 67.4589,-651.6961 144,-820.6107 176.1453,-891.5505 189.2142,-912.5269 252,-958.6107 352.4979,-1032.3746 413.2804,-1057.3996 528,-1008.6107 595.566,-979.8756 741.9493,-799.8707 787.6092,-742.297"/>
<polygon fill="#191970" stroke="#191970" points="790.5927,-744.1664 794.045,-734.1498 785.0998,-739.8273 790.5927,-744.1664"/>
</g>
<!-- Node449673 -->
<g id="node27" class="node">
<title>Node449673</title>
<g id="a_node27"><a xlink:href="quickjs_8c.html#a2bf30c9cddfe98a32535843202495069" target="_top" xlink:title="JS_ToBoolFree">
<polygon fill="none" stroke="#000000" points="414.5,-69.1107 414.5,-88.1107 498.5,-88.1107 498.5,-69.1107 414.5,-69.1107"/>
<text text-anchor="middle" x="456.5" y="-76.1107" font-family="Helvetica,sans-Serif" font-size="10.00" fill="#000000">JS_ToBoolFree</text>
</a>
</g>
</g>
<!-- Node449451&#45;&gt;Node449673 -->
<g id="edge71" class="edge">
<title>Node449451&#45;&gt;Node449673</title>
<path fill="none" stroke="#191970" d="M55.9195,-329.4561C61.6142,-291.1984 82.0751,-190.2359 144,-140.6107 219.0771,-80.4456 336.4038,-73.4171 403.9038,-75.0928"/>
<polygon fill="#191970" stroke="#191970" points="404.1871,-78.6037 414.2953,-75.4296 404.4139,-71.6074 404.1871,-78.6037"/>
</g>
<!-- Node449886 -->
<g id="node28" class="node">
<title>Node449886</title>
<g id="a_node28"><a xlink:href="quickjs_8c.html#a8e59e32f9ef5272d7d0b1d884191321c" target="_top" xlink:title="js_create_desc">
<polygon fill="none" stroke="#000000" points="259,-335.1107 259,-354.1107 342,-354.1107 342,-335.1107 259,-335.1107"/>
<text text-anchor="middle" x="300.5" y="-342.1107" font-family="Helvetica,sans-Serif" font-size="10.00" fill="#000000">js_create_desc</text>
</a>
</g>
</g>
<!-- Node449451&#45;&gt;Node449886 -->
<g id="edge54" class="edge">
<title>Node449451&#45;&gt;Node449886</title>
<path fill="none" stroke="#191970" d="M108.0955,-344.6107C149.9033,-344.6107 207.4074,-344.6107 248.6412,-344.6107"/>
<polygon fill="#191970" stroke="#191970" points="248.7544,-348.1108 258.7544,-344.6107 248.7543,-341.1108 248.7544,-348.1108"/>
</g>
<!-- Node449768 -->
<g id="node29" class="node">
<title>Node449768</title>
<g id="a_node29"><a xlink:href="quickjs_8c.html#adfe21c674d998ca6586b7f7400352dc4" target="_top" xlink:title="js_free_desc">
<polygon fill="none" stroke="#000000" points="144,-50.1107 144,-69.1107 216,-69.1107 216,-50.1107 144,-50.1107"/>
<text text-anchor="middle" x="180" y="-57.1107" font-family="Helvetica,sans-Serif" font-size="10.00" fill="#000000">js_free_desc</text>
</a>
</g>
</g>
<!-- Node449451&#45;&gt;Node449768 -->
<g id="edge61" class="edge">
<title>Node449451&#45;&gt;Node449768</title>
<path fill="none" stroke="#191970" d="M55.7968,-329.467C61.5358,-286.6885 82.7846,-162.9063 144,-83.6107 146.341,-80.5783 149.178,-77.8016 152.2205,-75.299"/>
<polygon fill="#191970" stroke="#191970" points="154.4642,-77.9972 160.5546,-69.3278 150.3872,-72.307 154.4642,-77.9972"/>
</g>
<!-- Node449756 -->
<g id="node30" class="node">
<title>Node449756</title>
<g id="a_node30"><a xlink:href="quickjs_8c.html#ad13892c0a0f11781b566808876658099" target="_top" xlink:title="JS_GetOwnPropertyInternal">
<polygon fill="none" stroke="#ff0000" points="564,-183.1107 564,-202.1107 703,-202.1107 703,-183.1107 564,-183.1107"/>
<text text-anchor="middle" x="633.5" y="-190.1107" font-family="Helvetica,sans-Serif" font-size="10.00" fill="#000000">JS_GetOwnPropertyInternal</text>
</a>
</g>
</g>
<!-- Node449451&#45;&gt;Node449756 -->
<g id="edge64" class="edge">
<title>Node449451&#45;&gt;Node449756</title>
<path fill="none" stroke="#191970" d="M60.9996,-329.2258C73.6843,-303.1282 103.006,-250.323 144,-222.6107 280.9962,-130 491.8686,-160.6437 585.6699,-180.8279"/>
<polygon fill="#191970" stroke="#191970" points="585.1959,-184.3075 595.7154,-183.0467 586.7057,-177.4722 585.1959,-184.3075"/>
</g>
<!-- Node449454 -->
<g id="node4" class="node">
<title>Node449454</title>
<g id="a_node4"><a xlink:href="quickjs_8c.html#af23ec7c9970ceb4671c59da7abd4b078" target="_top" xlink:title="js_check_stack_overflow">
<polygon fill="none" stroke="#ff0000" points="393,-905.1107 393,-924.1107 520,-924.1107 520,-905.1107 393,-905.1107"/>
<text text-anchor="middle" x="456.5" y="-912.1107" font-family="Helvetica,sans-Serif" font-size="10.00" fill="#000000">js_check_stack_overflow</text>
</a>
</g>
</g>
<!-- Node449453&#45;&gt;Node449454 -->
<g id="edge3" class="edge">
<title>Node449453&#45;&gt;Node449454</title>
<path fill="none" stroke="#191970" d="M349.0042,-901.5182C359.7268,-902.8242 371.3214,-904.2364 382.7919,-905.6334"/>
<polygon fill="#191970" stroke="#191970" points="382.4652,-909.1194 392.815,-906.8542 383.3116,-902.1707 382.4652,-909.1194"/>
</g>
<!-- Node449453&#45;&gt;Node449456 -->
<g id="edge4" class="edge">
<title>Node449453&#45;&gt;Node449456</title>
<path fill="none" stroke="#191970" d="M306.1651,-905.3523C317.9492,-924.5124 347.182,-966.6221 385,-982.6107 443.5389,-1007.3596 465.5274,-994.2935 528,-982.6107 622.5967,-964.9204 726.5728,-915.5839 774.5303,-890.9642"/>
<polygon fill="#191970" stroke="#191970" points="776.3589,-893.9586 783.6231,-886.2462 773.1349,-887.7452 776.3589,-893.9586"/>
</g>
<!-- Node449457 -->
<g id="node6" class="node">
<title>Node449457</title>
<g id="a_node6"><a xlink:href="quickjs_8h.html#a149f24b67e745bad93573b3b4c80db4c" target="_top" xlink:title="JS_IsNull">
<polygon fill="none" stroke="#000000" points="427,-867.1107 427,-886.1107 486,-886.1107 486,-867.1107 427,-867.1107"/>
<text text-anchor="middle" x="456.5" y="-874.1107" font-family="Helvetica,sans-Serif" font-size="10.00" fill="#000000">JS_IsNull</text>
</a>
</g>
</g>
<!-- Node449453&#45;&gt;Node449457 -->
<g id="edge5" class="edge">
<title>Node449453&#45;&gt;Node449457</title>
<path fill="none" stroke="#191970" d="M349.0042,-889.7031C370.7344,-887.0565 396.0464,-883.9736 416.648,-881.4645"/>
<polygon fill="#191970" stroke="#191970" points="417.1431,-884.9301 426.6465,-880.2467 416.2967,-877.9815 417.1431,-884.9301"/>
</g>
<!-- Node449458 -->
<g id="node7" class="node">
<title>Node449458</title>
<g id="a_node7"><a xlink:href="quickjs_8c.html#a8353f635fb8a20553c08db8cf38c17e0" target="_top" xlink:title="JS_ThrowStackOverflow">
<polygon fill="none" stroke="#ff0000" points="394,-829.1107 394,-848.1107 519,-848.1107 519,-829.1107 394,-829.1107"/>
<text text-anchor="middle" x="456.5" y="-836.1107" font-family="Helvetica,sans-Serif" font-size="10.00" fill="#000000">JS_ThrowStackOverflow</text>
</a>
</g>
</g>
<!-- Node449453&#45;&gt;Node449458 -->
<g id="edge6" class="edge">
<title>Node449453&#45;&gt;Node449458</title>
<path fill="none" stroke="#191970" d="M319.2665,-886.1053C336.1549,-877.8101 361.808,-865.8451 385,-857.6107 391.8235,-855.188 399.109,-852.9109 406.3223,-850.8328"/>
<polygon fill="#191970" stroke="#191970" points="407.3648,-854.1758 416.0635,-848.1274 405.4916,-847.4311 407.3648,-854.1758"/>
</g>
<!-- Node449460 -->
<g id="node8" class="node">
<title>Node449460</title>
<g id="a_node8"><a xlink:href="quickjs_8c.html#a199d64ccbee0a90d93e1ad12745417f6" target="_top" xlink:title="JS_ThrowTypeErrorRevoked\lProxy">
<polygon fill="none" stroke="#000000" points="385,-943.6107 385,-973.6107 528,-973.6107 528,-943.6107 385,-943.6107"/>
<text text-anchor="start" x="393" y="-961.6107" font-family="Helvetica,sans-Serif" font-size="10.00" fill="#000000">JS_ThrowTypeErrorRevoked</text>
<text text-anchor="middle" x="456.5" y="-950.6107" font-family="Helvetica,sans-Serif" font-size="10.00" fill="#000000">Proxy</text>
</a>
</g>
</g>
<!-- Node449453&#45;&gt;Node449460 -->
<g id="edge7" class="edge">
<title>Node449453&#45;&gt;Node449460</title>
<path fill="none" stroke="#191970" d="M320.4376,-905.1633C337.4298,-913.1626 362.5886,-924.6727 385,-933.6107 390.4775,-935.7952 396.2299,-937.9815 401.9929,-940.1019"/>
<polygon fill="#191970" stroke="#191970" points="401.0607,-943.4866 411.655,-943.5963 403.4415,-936.9039 401.0607,-943.4866"/>
</g>
<!-- Node449462 -->
<g id="node10" class="node">
<title>Node449462</title>
<g id="a_node10"><a xlink:href="quickjs_8c.html#a06ff303a11e6641cbf1f6634e6a61811" target="_top" xlink:title="__JS_AtomToValue">
<polygon fill="none" stroke="#ff0000" points="581.5,-221.1107 581.5,-240.1107 685.5,-240.1107 685.5,-221.1107 581.5,-221.1107"/>
<text text-anchor="middle" x="633.5" y="-228.1107" font-family="Helvetica,sans-Serif" font-size="10.00" fill="#000000">__JS_AtomToValue</text>
</a>
</g>
</g>
<!-- Node449461&#45;&gt;Node449462 -->
<g id="edge9" class="edge">
<title>Node449461&#45;&gt;Node449462</title>
<path fill="none" stroke="#191970" d="M501.1646,-202.1997C524.8373,-207.282 554.1082,-213.5661 579.0974,-218.931"/>
<polygon fill="#191970" stroke="#191970" points="578.6447,-222.4135 589.1566,-221.0906 580.1141,-215.5695 578.6447,-222.4135"/>
</g>
<!-- Node449463 -->
<g id="node11" class="node">
<title>Node449463</title>
<g id="a_node11"><a xlink:href="quickjs_8c.html#a288254c06a39c9fca740a7abdad2834e" target="_top" xlink:title="__JS_AtomIsTaggedInt">
<polygon fill="none" stroke="#000000" points="742,-259.1107 742,-278.1107 861,-278.1107 861,-259.1107 742,-259.1107"/>
<text text-anchor="middle" x="801.5" y="-266.1107" font-family="Helvetica,sans-Serif" font-size="10.00" fill="#000000">__JS_AtomIsTaggedInt</text>
</a>
</g>
</g>
<!-- Node449462&#45;&gt;Node449463 -->
<g id="edge10" class="edge">
<title>Node449462&#45;&gt;Node449463</title>
<path fill="none" stroke="#191970" d="M675.8935,-240.1997C698.2626,-245.2594 725.8982,-251.5103 749.5472,-256.8594"/>
<polygon fill="#191970" stroke="#191970" points="748.8856,-260.2981 759.4114,-259.0906 750.4299,-253.4706 748.8856,-260.2981"/>
</g>
<!-- Node449464 -->
<g id="node12" class="node">
<title>Node449464</title>
<g id="a_node12"><a xlink:href="quickjs_8c.html#a89f38938cee8077ce1fbba07946ed185" target="_top" xlink:title="__JS_AtomToUInt32">
<polygon fill="none" stroke="#000000" points="747.5,-221.1107 747.5,-240.1107 855.5,-240.1107 855.5,-221.1107 747.5,-221.1107"/>
<text text-anchor="middle" x="801.5" y="-228.1107" font-family="Helvetica,sans-Serif" font-size="10.00" fill="#000000">__JS_AtomToUInt32</text>
</a>
</g>
</g>
<!-- Node449462&#45;&gt;Node449464 -->
<g id="edge11" class="edge">
<title>Node449462&#45;&gt;Node449464</title>
<path fill="none" stroke="#191970" d="M685.7353,-230.6107C701.9279,-230.6107 719.9674,-230.6107 736.8952,-230.6107"/>
<polygon fill="#191970" stroke="#191970" points="737.2651,-234.1108 747.2651,-230.6107 737.2651,-227.1108 737.2651,-234.1108"/>
</g>
<!-- Node449465 -->
<g id="node13" class="node">
<title>Node449465</title>
<g id="a_node13"><a xlink:href="quickjs_8h.html#a775522f2d084fc8fa0fcb33f390006b4" target="_top" xlink:title="JS_DupValue">
<polygon fill="none" stroke="#000000" points="900.5,-449.1107 900.5,-468.1107 977.5,-468.1107 977.5,-449.1107 900.5,-449.1107"/>
<text text-anchor="middle" x="939" y="-456.1107" font-family="Helvetica,sans-Serif" font-size="10.00" fill="#000000">JS_DupValue</text>
</a>
</g>
</g>
<!-- Node449462&#45;&gt;Node449465 -->
<g id="edge12" class="edge">
<title>Node449462&#45;&gt;Node449465</title>
<path fill="none" stroke="#191970" d="M670.1013,-240.1402C681.0968,-243.8108 692.9104,-248.6007 703,-254.6107 721.6475,-265.7183 721.8326,-274.3294 739,-287.6107 791.3599,-328.1182 814.472,-324.6858 864,-368.6107 888.9594,-390.7464 912.7238,-421.4632 926.5783,-440.678"/>
<polygon fill="#191970" stroke="#191970" points="923.7415,-442.7284 932.3804,-448.8619 929.452,-438.6798 923.7415,-442.7284"/>
</g>
<!-- Node449490 -->
<g id="node15" class="node">
<title>Node449490</title>
<g id="a_node15"><a xlink:href="quickjs_8c.html#ac2894ff4edcdb4e6841bcce9c76081e3" target="_top" xlink:title="JS_CallInternal">
<polygon fill="none" stroke="#ff0000" points="259,-506.1107 259,-525.1107 342,-525.1107 342,-506.1107 259,-506.1107"/>
<text text-anchor="middle" x="300.5" y="-513.1107" font-family="Helvetica,sans-Serif" font-size="10.00" fill="#000000">JS_CallInternal</text>
</a>
</g>
</g>
<!-- Node449489&#45;&gt;Node449490 -->
<g id="edge14" class="edge">
<title>Node449489&#45;&gt;Node449490</title>
<path fill="none" stroke="#191970" d="M203.8069,-449.1221C227.2128,-462.0418 262.3722,-484.4175 283.22,-499.8099"/>
<polygon fill="#191970" stroke="#191970" points="281.1373,-502.6234 291.2026,-505.9311 285.3969,-497.0685 281.1373,-502.6234"/>
</g>
<!-- Node449489&#45;&gt;Node449536 -->
<g id="edge53" class="edge">
<title>Node449489&#45;&gt;Node449536</title>
<path fill="none" stroke="#191970" d="M184.0403,-429.8819C201.228,-389.8734 272.5722,-237.1543 385,-173.6107 549.9213,-80.398 788.0692,-107.8934 889.8595,-125.7092"/>
<polygon fill="#191970" stroke="#191970" points="889.3946,-129.1817 899.856,-127.5053 890.6325,-122.292 889.3946,-129.1817"/>
</g>
<!-- Node449490&#45;&gt;Node449454 -->
<g id="edge19" class="edge">
<title>Node449490&#45;&gt;Node449454</title>
<path fill="none" stroke="#191970" d="M301.3025,-525.1848C305.9702,-578.6276 331.2958,-839.6625 385,-895.6107 386.2535,-896.9166 387.5858,-898.1363 388.9842,-899.2754"/>
<polygon fill="#191970" stroke="#191970" points="387.3513,-902.3903 397.6309,-904.9555 391.1946,-896.5397 387.3513,-902.3903"/>
</g>
<!-- Node449490&#45;&gt;Node449456 -->
<g id="edge41" class="edge">
<title>Node449490&#45;&gt;Node449456</title>
<path fill="none" stroke="#191970" d="M302.2956,-525.1272C310.5167,-567.7249 345.8481,-740.3801 385,-776.6107 398.4801,-789.0849 639.2534,-841.8719 748.4386,-865.314"/>
<polygon fill="#191970" stroke="#191970" points="747.7572,-868.7473 758.2687,-867.4215 749.2246,-861.9029 747.7572,-868.7473"/>
</g>
<!-- Node449490&#45;&gt;Node449457 -->
<g id="edge42" class="edge">
<title>Node449490&#45;&gt;Node449457</title>
<path fill="none" stroke="#191970" d="M301.5577,-525.2048C307.2836,-575.4532 336.1319,-807.8794 385,-857.6107 393.4248,-866.1843 405.2453,-871.0286 416.8528,-873.7244"/>
<polygon fill="#191970" stroke="#191970" points="416.4386,-877.207 426.9078,-875.5802 417.7091,-870.3233 416.4386,-877.207"/>
</g>
<!-- Node449490&#45;&gt;Node449458 -->
<g id="edge50" class="edge">
<title>Node449490&#45;&gt;Node449458</title>
<path fill="none" stroke="#191970" d="M301.9771,-525.1485C309.2897,-571.239 342.954,-770.4779 385,-814.6107 388.6876,-818.4813 393.0175,-821.7277 397.6912,-824.4506"/>
<polygon fill="#191970" stroke="#191970" points="396.509,-827.7706 407.0241,-829.0681 399.6132,-821.4965 396.509,-827.7706"/>
</g>
<!-- Node449490&#45;&gt;Node449461 -->
<g id="edge16" class="edge">
<title>Node449490&#45;&gt;Node449461</title>
<path fill="none" stroke="#191970" d="M302.9594,-506.0682C311.4599,-473.9399 341.4828,-367.2586 385,-287.6107 400.9055,-258.4995 425.0174,-228.5009 440.7649,-210.2008"/>
<polygon fill="#191970" stroke="#191970" points="443.8028,-212.0438 447.7509,-202.212 438.5334,-207.4358 443.8028,-212.0438"/>
</g>
<!-- Node449490&#45;&gt;Node449465 -->
<g id="edge39" class="edge">
<title>Node449490&#45;&gt;Node449465</title>
<path fill="none" stroke="#191970" d="M342.0537,-516.7382C387.6941,-517.6712 463.1332,-518.3145 528,-514.6107 677.9917,-506.0464 716.1616,-504.3441 864,-477.6107 874.4173,-475.7269 885.5288,-473.2023 895.9198,-470.6098"/>
<polygon fill="#191970" stroke="#191970" points="896.7988,-473.9977 905.6153,-468.1223 895.0591,-467.2173 896.7988,-473.9977"/>
</g>
<!-- Node449490&#45;&gt;Node449489 -->
<g id="edge17" class="edge">
<title>Node449490&#45;&gt;Node449489</title>
<path fill="none" stroke="#191970" d="M276.2871,-505.8749C252.932,-492.9493 218.1556,-470.8093 197.4121,-455.509"/>
<polygon fill="#191970" stroke="#191970" points="199.5232,-452.7173 189.4554,-449.4173 195.2679,-458.2754 199.5232,-452.7173"/>
</g>
<!-- Node449490&#45;&gt;Node449490 -->
<g id="edge18" class="edge">
<title>Node449490&#45;&gt;Node449490</title>
<path fill="none" stroke="#191970" d="M282.0045,-525.3677C273.0067,-534.1759 279.1719,-543.6107 300.5,-543.6107 314.1633,-543.6107 321.6038,-539.7387 322.8213,-534.6399"/>
<polygon fill="#191970" stroke="#191970" points="326.0452,-533.2767 318.9955,-525.3677 319.5744,-535.9468 326.0452,-533.2767"/>
</g>
<!-- Node449533 -->
<g id="node16" class="node">
<title>Node449533</title>
<g id="a_node16"><a xlink:href="quickjs_8c.html#a9e7b4bccf927d811b0f99b40b08c0472" target="_top" xlink:title="free_var_ref">
<polygon fill="none" stroke="#ff0000" points="767.5,-639.1107 767.5,-658.1107 835.5,-658.1107 835.5,-639.1107 767.5,-639.1107"/>
<text text-anchor="middle" x="801.5" y="-646.1107" font-family="Helvetica,sans-Serif" font-size="10.00" fill="#000000">free_var_ref</text>
</a>
</g>
</g>
<!-- Node449490&#45;&gt;Node449533 -->
<g id="edge15" class="edge">
<title>Node449490&#45;&gt;Node449533</title>
<path fill="none" stroke="#191970" d="M311.0943,-525.1304C326.2955,-538.235 355.7041,-561.5737 385,-573.6107 419.2129,-587.668 657.3161,-626.0172 757.3734,-641.7434"/>
<polygon fill="#191970" stroke="#191970" points="757.0409,-645.2339 767.4625,-643.3259 758.1257,-638.3185 757.0409,-645.2339"/>
</g>
<!-- Node449490&#45;&gt;Node449635 -->
<g id="edge20" class="edge">
<title>Node449490&#45;&gt;Node449635</title>
<path fill="none" stroke="#191970" d="M320.4833,-525.2313C337.2944,-532.8774 362.1749,-543.1627 385,-548.6107 448.3037,-563.7202 522.839,-569.3617 573.6517,-571.4439"/>
<polygon fill="#191970" stroke="#191970" points="573.68,-574.9473 583.8044,-571.8255 573.943,-567.9523 573.68,-574.9473"/>
</g>
<!-- Node449490&#45;&gt;Node449536 -->
<g id="edge40" class="edge">
<title>Node449490&#45;&gt;Node449536</title>
<path fill="none" stroke="#191970" d="M312.4643,-505.8973C328.2912,-493.4106 357.4146,-471.6678 385,-457.6107 586.2726,-355.0452 695.1745,-437.7049 864,-287.6107 904.9186,-251.232 925.976,-187.4402 934.4275,-155.3003"/>
<polygon fill="#191970" stroke="#191970" points="937.8854,-155.898 936.9031,-145.3488 931.0924,-154.2081 937.8854,-155.898"/>
</g>
<!-- Node449490&#45;&gt;Node449582 -->
<g id="edge43" class="edge">
<title>Node449490&#45;&gt;Node449582</title>
<path fill="none" stroke="#191970" d="M328.4076,-505.9891C344.7518,-500.6152 365.8768,-494.1152 385,-489.6107 513.8721,-459.2543 668.2511,-437.3829 747.9744,-427.1366"/>
<polygon fill="#191970" stroke="#191970" points="748.7747,-430.563 758.2521,-425.8271 747.8899,-423.6191 748.7747,-430.563"/>
</g>
<!-- Node449553 -->
<g id="node20" class="node">
<title>Node449553</title>
<g id="a_node20"><a xlink:href="quickjs_8h.html#a2050bc428da1c65ac7eb87c3fa3b0392" target="_top" xlink:title="JS_NewInt32">
<polygon fill="none" stroke="#000000" points="901,-677.1107 901,-696.1107 977,-696.1107 977,-677.1107 901,-677.1107"/>
<text text-anchor="middle" x="939" y="-684.1107" font-family="Helvetica,sans-Serif" font-size="10.00" fill="#000000">JS_NewInt32</text>
</a>
</g>
</g>
<!-- Node449490&#45;&gt;Node449553 -->
<g id="edge45" class="edge">
<title>Node449490&#45;&gt;Node449553</title>
<path fill="none" stroke="#191970" d="M302.6729,-525.4186C309.471,-553.7539 333.0547,-636.3927 385,-678.6107 551.7209,-814.1112 660.4022,-812.1978 864,-743.6107 887.3207,-735.7545 909.1374,-717.4417 923.1615,-703.6784"/>
<polygon fill="#191970" stroke="#191970" points="925.975,-705.8078 930.4707,-696.214 920.9735,-700.9103 925.975,-705.8078"/>
</g>
<!-- Node449591 -->
<g id="node21" class="node">
<title>Node449591</title>
<g id="a_node21"><a xlink:href="quickjs_8h.html#a88259aa0da61ac754402c64ccecee116" target="_top" xlink:title="JS_NewUint32">
<polygon fill="none" stroke="#ff0000" points="760,-677.1107 760,-696.1107 843,-696.1107 843,-677.1107 760,-677.1107"/>
<text text-anchor="middle" x="801.5" y="-684.1107" font-family="Helvetica,sans-Serif" font-size="10.00" fill="#000000">JS_NewUint32</text>
</a>
</g>
</g>
<!-- Node449490&#45;&gt;Node449591 -->
<g id="edge47" class="edge">
<title>Node449490&#45;&gt;Node449591</title>
<path fill="none" stroke="#191970" d="M306.8525,-525.2876C319.4146,-543.5818 349.3271,-583.146 385,-602.6107 416.8422,-619.9852 645.6434,-660.2515 749.9343,-677.9739"/>
<polygon fill="#191970" stroke="#191970" points="749.4825,-681.4472 759.9268,-679.6677 750.6524,-674.5456 749.4825,-681.4472"/>
</g>
<!-- Node449490&#45;&gt;Node449683 -->
<g id="edge48" class="edge">
<title>Node449490&#45;&gt;Node449683</title>
<path fill="none" stroke="#191970" d="M304.3446,-525.1588C314.0873,-548.0569 342.0617,-606.2898 385,-634.6107 499.4464,-710.0963 666.4641,-723.4562 749.9612,-725.0795"/>
<polygon fill="#191970" stroke="#191970" points="750.1562,-728.5826 760.2057,-725.2273 750.2573,-721.5833 750.1562,-728.5826"/>
</g>
<!-- Node449685 -->
<g id="node23" class="node">
<title>Node449685</title>
<g id="a_node23"><a xlink:href="quickjs_8c.html#aee75cc1546e19479e3ccda58f3b50a96" target="_top" xlink:title="JS_SetPropertyValue">
<polygon fill="none" stroke="#ff0000" points="746.5,-449.1107 746.5,-468.1107 856.5,-468.1107 856.5,-449.1107 746.5,-449.1107"/>
<text text-anchor="middle" x="801.5" y="-456.1107" font-family="Helvetica,sans-Serif" font-size="10.00" fill="#000000">JS_SetPropertyValue</text>
</a>
</g>
</g>
<!-- Node449490&#45;&gt;Node449685 -->
<g id="edge49" class="edge">
<title>Node449490&#45;&gt;Node449685</title>
<path fill="none" stroke="#191970" d="M342.2745,-511.6307C415.4502,-504.5512 571.5435,-488.9696 703,-472.6107 713.7609,-471.2715 725.1679,-469.7472 736.2568,-468.2091"/>
<polygon fill="#191970" stroke="#191970" points="736.9063,-471.6524 746.3234,-466.7976 735.9342,-464.7202 736.9063,-471.6524"/>
</g>
<!-- Node449634 -->
<g id="node24" class="node">
<title>Node449634</title>
<g id="a_node24"><a xlink:href="quickjs_8c.html#a0a8765bd4012467d9139bc24aabcb3ca" target="_top" xlink:title="JS_DefinePropertyValue">
<polygon fill="none" stroke="#000000" points="394.5,-297.1107 394.5,-316.1107 518.5,-316.1107 518.5,-297.1107 394.5,-297.1107"/>
<text text-anchor="middle" x="456.5" y="-304.1107" font-family="Helvetica,sans-Serif" font-size="10.00" fill="#000000">JS_DefinePropertyValue</text>
</a>
</g>
</g>
<!-- Node449490&#45;&gt;Node449634 -->
<g id="edge36" class="edge">
<title>Node449490&#45;&gt;Node449634</title>
<path fill="none" stroke="#191970" d="M301.8299,-505.994C306.6623,-474.8285 326.2121,-375.7361 385,-325.6107 386.9669,-323.9336 389.0665,-322.4027 391.2656,-321.0055"/>
<polygon fill="#191970" stroke="#191970" points="392.9978,-324.0484 400.172,-316.2522 389.7018,-317.8729 392.9978,-324.0484"/>
</g>
<!-- Node449836 -->
<g id="node25" class="node">
<title>Node449836</title>
<g id="a_node25"><a xlink:href="quickjs_8h.html#a93abffa925714e249a6aa2f4ae7900f6" target="_top" xlink:title="JS_NewBool">
<polygon fill="none" stroke="#000000" points="419.5,-335.1107 419.5,-354.1107 493.5,-354.1107 493.5,-335.1107 419.5,-335.1107"/>
<text text-anchor="middle" x="456.5" y="-342.1107" font-family="Helvetica,sans-Serif" font-size="10.00" fill="#000000">JS_NewBool</text>
</a>
</g>
</g>
<!-- Node449490&#45;&gt;Node449836 -->
<g id="edge44" class="edge">
<title>Node449490&#45;&gt;Node449836</title>
<path fill="none" stroke="#191970" d="M302.9641,-506.0419C310.3971,-479.1566 335.2107,-402.3782 385,-363.6107 392.1423,-358.0495 400.771,-354.1103 409.5264,-351.3215"/>
<polygon fill="#191970" stroke="#191970" points="410.6628,-354.6396 419.3929,-348.6365 408.8247,-347.8852 410.6628,-354.6396"/>
</g>
<!-- Node449863 -->
<g id="node26" class="node">
<title>Node449863</title>
<g id="a_node26"><a xlink:href="quickjs_8c.html#afc0d8ea75588216ec132a6e1655524a7" target="_top" xlink:title="JS_NewObject">
<polygon fill="none" stroke="#ff0000" points="415,-373.1107 415,-392.1107 498,-392.1107 498,-373.1107 415,-373.1107"/>
<text text-anchor="middle" x="456.5" y="-380.1107" font-family="Helvetica,sans-Serif" font-size="10.00" fill="#000000">JS_NewObject</text>
</a>
</g>
</g>
<!-- Node449490&#45;&gt;Node449863 -->
<g id="edge46" class="edge">
<title>Node449490&#45;&gt;Node449863</title>
<path fill="none" stroke="#191970" d="M305.4244,-505.9095C316.6409,-484.7625 346.1534,-434.2028 385,-406.6107 391.0915,-402.284 398.0198,-398.6937 405.1093,-395.7266"/>
<polygon fill="#191970" stroke="#191970" points="406.6982,-398.8676 414.8131,-392.056 404.2216,-392.3204 406.6982,-398.8676"/>
</g>
<!-- Node449490&#45;&gt;Node449673 -->
<g id="edge51" class="edge">
<title>Node449490&#45;&gt;Node449673</title>
<path fill="none" stroke="#191970" d="M304.1004,-505.7724C312.7867,-481.7584 335.1941,-418.1198 349,-363.6107 370.102,-280.2946 350.2513,-252.2198 385,-173.6107 398.4615,-143.1578 423.3441,-113.3662 439.9116,-95.4918"/>
<polygon fill="#191970" stroke="#191970" points="442.5251,-97.8223 446.8677,-88.1583 437.4464,-93.0049 442.5251,-97.8223"/>
</g>
<!-- Node449635&#45;&gt;Node449452 -->
<g id="edge23" class="edge">
<title>Node449635&#45;&gt;Node449452</title>
<path fill="none" stroke="#191970" d="M639.3508,-582.314C655.1668,-608.4955 700.1956,-682.7159 739,-743.6107 756.1538,-770.5298 776.5703,-801.3404 789.2857,-820.3892"/>
<polygon fill="#191970" stroke="#191970" points="786.5499,-822.5944 795.0182,-828.9614 792.3687,-818.7032 786.5499,-822.5944"/>
</g>
<!-- Node449635&#45;&gt;Node449456 -->
<g id="edge27" class="edge">
<title>Node449635&#45;&gt;Node449456</title>
<path fill="none" stroke="#191970" d="M639.3569,-582.3063C652.4581,-604.3603 684.4344,-660.2751 703,-710.6107 726.2766,-773.7189 692.7618,-808.7591 739,-857.6107 741.982,-860.7612 745.4681,-863.3944 749.2412,-865.5945"/>
<polygon fill="#191970" stroke="#191970" points="747.9299,-868.8465 758.4637,-869.982 750.9371,-862.5254 747.9299,-868.8465"/>
</g>
<!-- Node449635&#45;&gt;Node449463 -->
<g id="edge21" class="edge">
<title>Node449635&#45;&gt;Node449463</title>
<path fill="none" stroke="#191970" d="M638.8994,-562.8404C662.7945,-519.6017 759.2542,-345.0554 791.1812,-287.2827"/>
<polygon fill="#191970" stroke="#191970" points="794.4309,-288.6384 796.2045,-278.193 788.3042,-285.2525 794.4309,-288.6384"/>
</g>
<!-- Node449635&#45;&gt;Node449464 -->
<g id="edge22" class="edge">
<title>Node449635&#45;&gt;Node449464</title>
<path fill="none" stroke="#191970" d="M635.4135,-562.9188C645.2121,-514.1916 691.1705,-296.4659 739,-249.6107 740.4886,-248.1524 742.0856,-246.8055 743.7676,-245.5616"/>
<polygon fill="#191970" stroke="#191970" points="746.0007,-248.3038 752.7792,-240.1611 742.4024,-242.2994 746.0007,-248.3038"/>
</g>
<!-- Node449635&#45;&gt;Node449465 -->
<g id="edge25" class="edge">
<title>Node449635&#45;&gt;Node449465</title>
<path fill="none" stroke="#191970" d="M683.3881,-577.8497C732.3066,-580.6799 807.5529,-578.7119 864,-548.6107 894.2117,-532.4999 917.121,-498.6605 929.2678,-477.3749"/>
<polygon fill="#191970" stroke="#191970" points="932.4886,-478.7798 934.2154,-468.3267 926.3468,-475.4215 932.4886,-478.7798"/>
</g>
<!-- Node449635&#45;&gt;Node449533 -->
<g id="edge24" class="edge">
<title>Node449635&#45;&gt;Node449533</title>
<path fill="none" stroke="#191970" d="M668.3848,-582.1727C679.76,-585.9352 692.2267,-590.7703 703,-596.6107 720.8197,-606.2711 721.3478,-614.6476 739,-624.6107 746.1963,-628.6723 754.2158,-632.329 762.0462,-635.4924"/>
<polygon fill="#191970" stroke="#191970" points="760.8459,-638.7806 771.4359,-639.1004 763.3568,-632.2464 760.8459,-638.7806"/>
</g>
<!-- Node449635&#45;&gt;Node449536 -->
<g id="edge26" class="edge">
<title>Node449635&#45;&gt;Node449536</title>
<path fill="none" stroke="#191970" d="M666.7458,-563.0709C724.0071,-545.9907 837.6471,-509.0334 864,-477.6107 905.9145,-427.6325 930.2627,-221.0908 937.0397,-155.6167"/>
<polygon fill="#191970" stroke="#191970" points="940.5476,-155.7144 938.0704,-145.4132 933.583,-155.0108 940.5476,-155.7144"/>
</g>
<!-- Node449635&#45;&gt;Node449582 -->
<g id="edge28" class="edge">
<title>Node449635&#45;&gt;Node449582</title>
<path fill="none" stroke="#191970" d="M640.0169,-562.9579C658.8142,-535.3661 713.4181,-457.0244 739,-439.6107 742.0879,-437.5087 745.4159,-435.6331 748.871,-433.9604"/>
<polygon fill="#191970" stroke="#191970" points="750.3952,-437.1158 758.2362,-429.9905 747.6632,-430.6709 750.3952,-437.1158"/>
</g>
<!-- Node449635&#45;&gt;Node449553 -->
<g id="edge29" class="edge">
<title>Node449635&#45;&gt;Node449553</title>
<path fill="none" stroke="#191970" d="M683.1428,-578.9191C731.2123,-586.3811 805.2434,-601.5067 864,-629.6107 885.7063,-639.9931 907.2347,-657.2682 921.6203,-670.0843"/>
<polygon fill="#191970" stroke="#191970" points="919.4714,-672.862 929.2123,-677.0292 924.1961,-667.697 919.4714,-672.862"/>
</g>
<!-- Node449635&#45;&gt;Node449591 -->
<g id="edge30" class="edge">
<title>Node449635&#45;&gt;Node449591</title>
<path fill="none" stroke="#191970" d="M644.375,-582.2308C658.0896,-594.3813 682.3722,-615.9569 703,-634.6107 719.0988,-649.1688 720.1481,-656.8535 739,-667.6107 742.8724,-669.8203 747.0293,-671.7994 751.292,-673.5665"/>
<polygon fill="#191970" stroke="#191970" points="750.1315,-676.8693 760.7237,-677.104 752.5897,-670.3151 750.1315,-676.8693"/>
</g>
<!-- Node449635&#45;&gt;Node449683 -->
<g id="edge32" class="edge">
<title>Node449635&#45;&gt;Node449683</title>
<path fill="none" stroke="#191970" d="M640.0169,-582.2634C658.8142,-609.8552 713.4181,-688.1969 739,-705.6107 742.6856,-708.1195 746.7131,-710.3058 750.8906,-712.2096"/>
<polygon fill="#191970" stroke="#191970" points="749.6167,-715.4696 760.201,-715.9413 752.221,-708.972 749.6167,-715.4696"/>
</g>
<!-- Node449635&#45;&gt;Node449685 -->
<g id="edge34" class="edge">
<title>Node449635&#45;&gt;Node449685</title>
<path fill="none" stroke="#191970" d="M644.5766,-562.7893C669.4943,-540.7498 728.6017,-488.7938 739,-482.6107 745.8138,-478.559 753.4331,-474.9628 760.9451,-471.8668"/>
<polygon fill="#191970" stroke="#191970" points="762.2823,-475.1022 770.3342,-468.2162 759.7455,-468.578 762.2823,-475.1022"/>
</g>
<!-- Node449591&#45;&gt;Node449553 -->
<g id="edge31" class="edge">
<title>Node449591&#45;&gt;Node449553</title>
<path fill="none" stroke="#191970" d="M843.1277,-686.6107C858.0272,-686.6107 874.9508,-686.6107 890.3885,-686.6107"/>
<polygon fill="#191970" stroke="#191970" points="890.7957,-690.1108 900.7956,-686.6107 890.7956,-683.1108 890.7957,-690.1108"/>
</g>
<!-- Node449683&#45;&gt;Node449465 -->
<g id="edge33" class="edge">
<title>Node449683&#45;&gt;Node449465</title>
<path fill="none" stroke="#191970" d="M842.6791,-718.3403C850.5497,-715.5265 858.1469,-711.4657 864,-705.6107 896.8389,-672.7611 925.671,-531.1625 935.4541,-478.4669"/>
<polygon fill="#191970" stroke="#191970" points="938.9424,-478.8471 937.294,-468.3813 932.0561,-477.5908 938.9424,-478.8471"/>
</g>
<!-- Node449685&#45;&gt;Node449536 -->
<g id="edge35" class="edge">
<title>Node449685&#45;&gt;Node449536</title>
<path fill="none" stroke="#191970" d="M851.1203,-449.0312C855.9051,-446.5669 860.3326,-443.4787 864,-439.6107 903.705,-397.7334 929.1384,-216.2156 936.6622,-155.487"/>
<polygon fill="#191970" stroke="#191970" points="940.1657,-155.6683 937.8927,-145.3201 933.2164,-154.8271 940.1657,-155.6683"/>
</g>
<!-- Node449634&#45;&gt;Node449635 -->
<g id="edge37" class="edge">
<title>Node449634&#45;&gt;Node449635</title>
<path fill="none" stroke="#191970" d="M512.8855,-316.1852C518.3622,-318.6537 523.5327,-321.7441 528,-325.6107 599.4959,-387.491 623.9213,-506.3166 630.987,-553.0475"/>
<polygon fill="#191970" stroke="#191970" points="627.5371,-553.6497 632.3973,-563.064 634.4688,-552.6737 627.5371,-553.6497"/>
</g>
<!-- Node449634&#45;&gt;Node449536 -->
<g id="edge38" class="edge">
<title>Node449634&#45;&gt;Node449536</title>
<path fill="none" stroke="#191970" d="M463.7089,-296.8381C485.5202,-267.3952 550.1608,-181.0995 564,-173.6107 619.0137,-143.8409 800.9996,-137.3423 889.6308,-135.9599"/>
<polygon fill="#191970" stroke="#191970" points="889.756,-139.4586 899.7059,-135.8187 889.6577,-132.4593 889.756,-139.4586"/>
</g>
<!-- Node449673&#45;&gt;Node449536 -->
<g id="edge52" class="edge">
<title>Node449673&#45;&gt;Node449536</title>
<path fill="none" stroke="#191970" d="M498.5735,-76.241C573.3086,-73.0959 733.6188,-71.1644 864,-102.6107 880.9664,-106.7028 898.8965,-114.452 912.9697,-121.4132"/>
<polygon fill="#191970" stroke="#191970" points="911.5406,-124.6134 922.0373,-126.0519 914.7287,-118.3815 911.5406,-124.6134"/>
</g>
<!-- Node449886&#45;&gt;Node449456 -->
<g id="edge57" class="edge">
<title>Node449886&#45;&gt;Node449456</title>
<path fill="none" stroke="#191970" d="M308.6511,-354.4602C366.2339,-424.0021 710.2599,-838.8086 739,-857.6107 742.1259,-859.6557 745.4821,-861.489 748.9575,-863.1312"/>
<polygon fill="#191970" stroke="#191970" points="747.7824,-866.4332 758.3595,-867.0462 750.4732,-859.971 747.7824,-866.4332"/>
</g>
<!-- Node449886&#45;&gt;Node449465 -->
<g id="edge56" class="edge">
<title>Node449886&#45;&gt;Node449465</title>
<path fill="none" stroke="#191970" d="M310.3664,-334.9849C325.1386,-321.3203 354.5396,-296.9239 385,-287.6107 445.7782,-269.0278 465.2926,-277.2625 528,-287.6107 605.7951,-300.4487 794.3743,-364.6086 864,-401.6107 885.006,-412.7742 906.3536,-429.653 920.8734,-442.1486"/>
<polygon fill="#191970" stroke="#191970" points="918.7579,-444.9491 928.5792,-448.9231 923.3797,-439.6918 918.7579,-444.9491"/>
</g>
<!-- Node449886&#45;&gt;Node449634 -->
<g id="edge55" class="edge">
<title>Node449886&#45;&gt;Node449634</title>
<path fill="none" stroke="#191970" d="M339.8654,-335.0217C360.4513,-330.0072 385.8405,-323.8226 407.669,-318.5054"/>
<polygon fill="#191970" stroke="#191970" points="408.5302,-321.8981 417.4177,-316.1307 406.8734,-315.0969 408.5302,-321.8981"/>
</g>
<!-- Node449886&#45;&gt;Node449836 -->
<g id="edge58" class="edge">
<title>Node449886&#45;&gt;Node449836</title>
<path fill="none" stroke="#191970" d="M342.3051,-344.6107C362.9362,-344.6107 387.9082,-344.6107 409.2323,-344.6107"/>
<polygon fill="#191970" stroke="#191970" points="409.3726,-348.1108 419.3725,-344.6107 409.3725,-341.1108 409.3726,-348.1108"/>
</g>
<!-- Node449886&#45;&gt;Node449863 -->
<g id="edge59" class="edge">
<title>Node449886&#45;&gt;Node449863</title>
<path fill="none" stroke="#191970" d="M339.8654,-354.1997C360.4513,-359.2142 385.8405,-365.3987 407.669,-370.7159"/>
<polygon fill="#191970" stroke="#191970" points="406.8734,-374.1244 417.4177,-373.0906 408.5302,-367.3233 406.8734,-374.1244"/>
</g>
<!-- Node449768&#45;&gt;Node449536 -->
<g id="edge62" class="edge">
<title>Node449768&#45;&gt;Node449536</title>
<path fill="none" stroke="#191970" d="M216.1783,-55.5347C268.9418,-49.9519 370.1306,-40.6107 456.5,-40.6107 456.5,-40.6107 456.5,-40.6107 633.5,-40.6107 737.4005,-40.6107 768.4838,-38.7209 864,-79.6107 885.9786,-89.0196 907.4663,-106.1099 921.7681,-118.9448"/>
<polygon fill="#191970" stroke="#191970" points="919.5903,-121.6982 929.3078,-125.9199 924.344,-116.5598 919.5903,-121.6982"/>
</g>
<!-- Node449756&#45;&gt;Node449463 -->
<g id="edge65" class="edge">
<title>Node449756&#45;&gt;Node449463</title>
<path fill="none" stroke="#191970" d="M682.0136,-202.1872C689.323,-204.6619 696.5613,-207.7543 703,-211.6107 722.9584,-223.5646 719.2125,-237.376 739,-249.6107 742.3761,-251.6982 745.9973,-253.57 749.7335,-255.2461"/>
<polygon fill="#191970" stroke="#191970" points="748.5985,-258.5616 759.1834,-259.0208 751.1951,-252.061 748.5985,-258.5616"/>
</g>
<!-- Node449756&#45;&gt;Node449464 -->
<g id="edge66" class="edge">
<title>Node449756&#45;&gt;Node449464</title>
<path fill="none" stroke="#191970" d="M675.8935,-202.1997C698.2626,-207.2594 725.8982,-213.5103 749.5472,-218.8594"/>
<polygon fill="#191970" stroke="#191970" points="748.8856,-222.2981 759.4114,-221.0906 750.4299,-215.4706 748.8856,-222.2981"/>
</g>
<!-- Node449756&#45;&gt;Node449465 -->
<g id="edge67" class="edge">
<title>Node449756&#45;&gt;Node449465</title>
<path fill="none" stroke="#191970" d="M676.0784,-183.0869C726.6677,-174.4255 810.885,-168.7357 864,-211.6107 900.2241,-240.8512 927.0487,-385.3077 935.8726,-438.7159"/>
<polygon fill="#191970" stroke="#191970" points="932.471,-439.6064 937.5208,-448.9204 939.3814,-438.4902 932.471,-439.6064"/>
</g>
</g>
</svg>
