<?xml version="1.0" encoding="UTF-8" standalone="no"?>
<!DOCTYPE svg PUBLIC "-//W3C//DTD SVG 1.1//EN"
 "http://www.w3.org/Graphics/SVG/1.1/DTD/svg11.dtd">
<!-- Generated by graphviz version 2.40.1 (20161225.0304)
 -->
<!-- Title: get_exported_names Pages: 1 -->
<svg width="536pt" height="84pt"
 viewBox="0.00 0.00 536.00 84.00" xmlns="http://www.w3.org/2000/svg" xmlns:xlink="http://www.w3.org/1999/xlink">
<g id="graph0" class="graph" transform="scale(1 1) rotate(0) translate(4 80)">
<title>get_exported_names</title>
<!-- Node339629 -->
<g id="node1" class="node">
<title>Node339629</title>
<polygon fill="#bfbfbf" stroke="#000000" points="0,-19.5 0,-38.5 107,-38.5 107,-19.5 0,-19.5"/>
<text text-anchor="middle" x="53.5" y="-26.5" font-family="Helvetica,sans-Serif" font-size="10.00" fill="#000000">get_exported_names</text>
</g>
<!-- Node339629&#45;&gt;Node339629 -->
<g id="edge1" class="edge">
<title>Node339629&#45;&gt;Node339629</title>
<path fill="none" stroke="#191970" d="M27.4584,-48.0292C28.8789,-53.128 37.5594,-57 53.5,-57 78.3828,-57 85.5755,-47.5653 75.0781,-38.7571"/>
<polygon fill="#191970" stroke="#191970" points="30.738,-49.2855 31.9219,-38.7571 24.4308,-46.2493 30.738,-49.2855"/>
</g>
<!-- Node339630 -->
<g id="node2" class="node">
<title>Node339630</title>
<g id="a_node2"><a xlink:href="quickjs_8c.html#ad12b6863ca31850fc39d208bb865420e" target="_top" xlink:title="js_build_module_ns">
<polygon fill="none" stroke="#000000" points="143,-19.5 143,-38.5 245,-38.5 245,-19.5 143,-19.5"/>
<text text-anchor="middle" x="194" y="-26.5" font-family="Helvetica,sans-Serif" font-size="10.00" fill="#000000">js_build_module_ns</text>
</a>
</g>
</g>
<!-- Node339629&#45;&gt;Node339630 -->
<g id="edge2" class="edge">
<title>Node339629&#45;&gt;Node339630</title>
<path fill="none" stroke="#191970" d="M117.09,-29C125.7504,-29 134.5471,-29 142.9472,-29"/>
<polygon fill="#191970" stroke="#191970" points="117.0179,-25.5001 107.0178,-29 117.0178,-32.5001 117.0179,-25.5001"/>
</g>
<!-- Node339631 -->
<g id="node3" class="node">
<title>Node339631</title>
<g id="a_node3"><a xlink:href="quickjs_8c.html#a2f5aeb4e31e2001c555335ae5172165b" target="_top" xlink:title="js_get_module_ns">
<polygon fill="none" stroke="#000000" points="281,-19.5 281,-38.5 376,-38.5 376,-19.5 281,-19.5"/>
<text text-anchor="middle" x="328.5" y="-26.5" font-family="Helvetica,sans-Serif" font-size="10.00" fill="#000000">js_get_module_ns</text>
</a>
</g>
</g>
<!-- Node339630&#45;&gt;Node339631 -->
<g id="edge3" class="edge">
<title>Node339630&#45;&gt;Node339631</title>
<path fill="none" stroke="#191970" d="M255.2586,-29C263.8806,-29 272.6349,-29 280.9487,-29"/>
<polygon fill="#191970" stroke="#191970" points="255.2324,-25.5001 245.2324,-29 255.2323,-32.5001 255.2324,-25.5001"/>
</g>
<!-- Node339632 -->
<g id="node4" class="node">
<title>Node339632</title>
<g id="a_node4"><a xlink:href="quickjs_8c.html#adc0280beaa04d2b8fcaf05a82ab26c74" target="_top" xlink:title="js_link_module">
<polygon fill="none" stroke="#ff0000" points="429.5,-38.5 429.5,-57.5 510.5,-57.5 510.5,-38.5 429.5,-38.5"/>
<text text-anchor="middle" x="470" y="-45.5" font-family="Helvetica,sans-Serif" font-size="10.00" fill="#000000">js_link_module</text>
</a>
</g>
</g>
<!-- Node339631&#45;&gt;Node339632 -->
<g id="edge4" class="edge">
<title>Node339631&#45;&gt;Node339632</title>
<path fill="none" stroke="#191970" d="M385.955,-36.7148C400.5453,-38.6739 415.9182,-40.7381 429.4695,-42.5577"/>
<polygon fill="#191970" stroke="#191970" points="386.388,-33.2416 376.0111,-35.3796 385.4563,-40.1793 386.388,-33.2416"/>
</g>
<!-- Node339637 -->
<g id="node5" class="node">
<title>Node339637</title>
<g id="a_node5"><a xlink:href="quickjs_8c.html#a6357b7fdae71c70c140e78e6c20cb5c2" target="_top" xlink:title="js_dynamic_import_job">
<polygon fill="none" stroke="#ff0000" points="412,-.5 412,-19.5 528,-19.5 528,-.5 412,-.5"/>
<text text-anchor="middle" x="470" y="-7.5" font-family="Helvetica,sans-Serif" font-size="10.00" fill="#000000">js_dynamic_import_job</text>
</a>
</g>
</g>
<!-- Node339631&#45;&gt;Node339637 -->
<g id="edge6" class="edge">
<title>Node339631&#45;&gt;Node339637</title>
<path fill="none" stroke="#191970" d="M386.1636,-21.2572C394.6198,-20.1217 403.3344,-18.9516 411.8012,-17.8147"/>
<polygon fill="#191970" stroke="#191970" points="385.4563,-17.8207 376.0111,-22.6204 386.388,-24.7584 385.4563,-17.8207"/>
</g>
<!-- Node339632&#45;&gt;Node339632 -->
<g id="edge5" class="edge">
<title>Node339632&#45;&gt;Node339632</title>
<path fill="none" stroke="#191970" d="M443.9584,-67.0292C445.3789,-72.128 454.0594,-76 470,-76 494.8828,-76 502.0755,-66.5653 491.5781,-57.7571"/>
<polygon fill="#191970" stroke="#191970" points="447.238,-68.2855 448.4219,-57.7571 440.9308,-65.2493 447.238,-68.2855"/>
</g>
</g>
</svg>
