<?xml version="1.0" encoding="UTF-8" standalone="no"?>
<!DOCTYPE svg PUBLIC "-//W3C//DTD SVG 1.1//EN"
 "http://www.w3.org/Graphics/SVG/1.1/DTD/svg11.dtd">
<!-- Generated by graphviz version 2.40.1 (20161225.0304)
 -->
<!-- Title: JS_DefineObjectNameComputed Pages: 1 -->
<!--zoomable 902 -->
<svg id="main" version="1.1" xmlns="http://www.w3.org/2000/svg" xmlns:xlink="http://www.w3.org/1999/xlink" xml:space="preserve" onload="init(evt)">
<style type="text/css"><![CDATA[
.edge:hover path { stroke: red; }
.edge:hover polygon { stroke: red; fill: red; }
]]></style>
<script type="text/javascript"><![CDATA[
var edges = document.getElementsByTagName('g');
if (edges && edges.length) {
  for (var i=0;i<edges.length;i++) {
    if (edges[i].id.substr(0,4)=='edge') {
      edges[i].setAttribute('class','edge');
    }
  }
}
]]></script>
        <defs>
                <circle id="rim" cx="0" cy="0" r="7"/>
                <circle id="rim2" cx="0" cy="0" r="3.5"/>
                <g id="zoomPlus">
                        <use xlink:href="#rim" fill="#404040">
                                <set attributeName="fill" to="#808080" begin="zoomplus.mouseover" end="zoomplus.mouseout"/>
                        </use>
                        <path d="M-4,0h8M0,-4v8" fill="none" stroke="white" stroke-width="1.5" pointer-events="none"/>
                </g>
                <g id="zoomMin">
                        <use xlink:href="#rim" fill="#404040">
                                <set attributeName="fill" to="#808080" begin="zoomminus.mouseover" end="zoomminus.mouseout"/>
                        </use>
                        <path d="M-4,0h8" fill="none" stroke="white" stroke-width="1.5" pointer-events="none"/>
                </g>
                <g id="dirArrow">
                        <path fill="none" stroke="white" stroke-width="1.5" d="M0,-3.0v7 M-2.5,-0.5L0,-3.0L2.5,-0.5"/>
                </g>
               <g id="resetDef">
                       <use xlink:href="#rim2" fill="#404040">
                               <set attributeName="fill" to="#808080" begin="reset.mouseover" end="reset.mouseout"/>
                       </use>
               </g>
        </defs>

<script type="text/javascript">
var viewWidth = 947;
var viewHeight = 902;
var sectionId = 'dynsection-628';
</script>
<script xlink:href="svgpan.js"/>
<svg id="graph" class="graph">
<g id="viewport">
<title>JS_DefineObjectNameComputed</title>
<!-- Node216268 -->
<g id="node1" class="node">
<title>Node216268</title>
<polygon fill="#bfbfbf" stroke="#000000" points="0,-722.5 0,-741.5 162,-741.5 162,-722.5 0,-722.5"/>
<text text-anchor="middle" x="81" y="-729.5" font-family="Helvetica,sans-Serif" font-size="10.00" fill="#000000">JS_DefineObjectNameComputed</text>
</g>
<!-- Node216269 -->
<g id="node2" class="node">
<title>Node216269</title>
<g id="a_node2"><a xlink:href="quickjs_8c.html#a0a8765bd4012467d9139bc24aabcb3ca" target="_top" xlink:title="JS_DefinePropertyValue">
<polygon fill="none" stroke="#000000" points="198,-760.5 198,-779.5 322,-779.5 322,-760.5 198,-760.5"/>
<text text-anchor="middle" x="260" y="-767.5" font-family="Helvetica,sans-Serif" font-size="10.00" fill="#000000">JS_DefinePropertyValue</text>
</a>
</g>
</g>
<!-- Node216268&#45;&gt;Node216269 -->
<g id="edge1" class="edge">
<title>Node216268&#45;&gt;Node216269</title>
<path fill="none" stroke="#191970" d="M126.1693,-741.589C150.2159,-746.6939 179.9744,-753.0113 205.3194,-758.3918"/>
<polygon fill="#191970" stroke="#191970" points="204.6467,-761.8269 215.1556,-760.4799 206.1004,-754.9795 204.6467,-761.8269"/>
</g>
<!-- Node216334 -->
<g id="node15" class="node">
<title>Node216334</title>
<g id="a_node15"><a xlink:href="quickjs_8h.html#ad80a83d73e9b7d872b88fbf2943aebe9" target="_top" xlink:title="JS_IsException">
<polygon fill="none" stroke="#000000" points="724.5,-608.5 724.5,-627.5 810.5,-627.5 810.5,-608.5 724.5,-608.5"/>
<text text-anchor="middle" x="767.5" y="-615.5" font-family="Helvetica,sans-Serif" font-size="10.00" fill="#000000">JS_IsException</text>
</a>
</g>
</g>
<!-- Node216268&#45;&gt;Node216334 -->
<g id="edge46" class="edge">
<title>Node216268&#45;&gt;Node216334</title>
<path fill="none" stroke="#191970" d="M91.2488,-741.7654C110.4239,-759.3597 153.7959,-796.0338 198,-812 396.1599,-883.5737 496.0951,-934.9638 672,-819 735.8211,-776.9264 758.0366,-679.8206 764.8355,-637.883"/>
<polygon fill="#191970" stroke="#191970" points="768.3222,-638.2312 766.3369,-627.8241 761.3989,-637.1978 768.3222,-638.2312"/>
</g>
<!-- Node216320 -->
<g id="node26" class="node">
<title>Node216320</title>
<g id="a_node26"><a xlink:href="quickjs_8c.html#ab7fc45a99935a1c0ba50b0216d9401a9" target="_top" xlink:title="JS_FreeAtom">
<polygon fill="none" stroke="#ff0000" points="221.5,-684.5 221.5,-703.5 298.5,-703.5 298.5,-684.5 221.5,-684.5"/>
<text text-anchor="middle" x="260" y="-691.5" font-family="Helvetica,sans-Serif" font-size="10.00" fill="#000000">JS_FreeAtom</text>
</a>
</g>
</g>
<!-- Node216268&#45;&gt;Node216320 -->
<g id="edge44" class="edge">
<title>Node216268&#45;&gt;Node216320</title>
<path fill="none" stroke="#191970" d="M126.1693,-722.411C152.159,-716.8936 184.821,-709.9598 211.3717,-704.3233"/>
<polygon fill="#191970" stroke="#191970" points="212.1665,-707.7327 221.2217,-702.2323 210.7128,-700.8853 212.1665,-707.7327"/>
</g>
<!-- Node216656 -->
<g id="node27" class="node">
<title>Node216656</title>
<g id="a_node27"><a xlink:href="quickjs_8c.html#adadf01adc112b1f79ced7b2884a5738b" target="_top" xlink:title="js_get_function_name">
<polygon fill="none" stroke="#ff0000" points="204,-646.5 204,-665.5 316,-665.5 316,-646.5 204,-646.5"/>
<text text-anchor="middle" x="260" y="-653.5" font-family="Helvetica,sans-Serif" font-size="10.00" fill="#000000">js_get_function_name</text>
</a>
</g>
</g>
<!-- Node216268&#45;&gt;Node216656 -->
<g id="edge45" class="edge">
<title>Node216268&#45;&gt;Node216656</title>
<path fill="none" stroke="#191970" d="M98.4527,-722.4291C120.9863,-710.3229 161.6324,-689.33 198,-675 203.6364,-672.7791 209.6428,-670.6523 215.6145,-668.6782"/>
<polygon fill="#191970" stroke="#191970" points="217.0941,-671.8803 225.5603,-665.5106 214.9697,-665.2104 217.0941,-671.8803"/>
</g>
<!-- Node216484 -->
<g id="node28" class="node">
<title>Node216484</title>
<g id="a_node28"><a xlink:href="quickjs_8h.html#a3d68fe446df2d9c7d1900b16371bff5b" target="_top" xlink:title="JS_IsObject">
<polygon fill="none" stroke="#000000" points="224.5,-608.5 224.5,-627.5 295.5,-627.5 295.5,-608.5 224.5,-608.5"/>
<text text-anchor="middle" x="260" y="-615.5" font-family="Helvetica,sans-Serif" font-size="10.00" fill="#000000">JS_IsObject</text>
</a>
</g>
</g>
<!-- Node216268&#45;&gt;Node216484 -->
<g id="edge47" class="edge">
<title>Node216268&#45;&gt;Node216484</title>
<path fill="none" stroke="#191970" d="M90.0938,-722.4765C108.657,-703.557 152.9738,-660.9979 198,-637 203.219,-634.2184 208.9067,-631.7783 214.6511,-629.6568"/>
<polygon fill="#191970" stroke="#191970" points="215.9542,-632.9107 224.2992,-626.3829 213.7048,-626.2819 215.9542,-632.9107"/>
</g>
<!-- Node216570 -->
<g id="node29" class="node">
<title>Node216570</title>
<g id="a_node29"><a xlink:href="quickjs_8c.html#a03feb143bf5c7905bc161a16b8f99a13" target="_top" xlink:title="js_object_has_name">
<polygon fill="none" stroke="#000000" points="358,-190.5 358,-209.5 464,-209.5 464,-190.5 358,-190.5"/>
<text text-anchor="middle" x="411" y="-197.5" font-family="Helvetica,sans-Serif" font-size="10.00" fill="#000000">js_object_has_name</text>
</a>
</g>
</g>
<!-- Node216268&#45;&gt;Node216570 -->
<g id="edge48" class="edge">
<title>Node216268&#45;&gt;Node216570</title>
<path fill="none" stroke="#191970" d="M162.1533,-736.2154C223.0816,-737.4931 299.6882,-734.4539 322,-713 371.0362,-665.8491 345.6128,-475.8903 358,-409 371.034,-338.6173 394.1669,-256.7714 405.0399,-219.8558"/>
<polygon fill="#191970" stroke="#191970" points="408.5036,-220.4868 407.996,-209.9042 401.7934,-218.4936 408.5036,-220.4868"/>
</g>
<!-- Node216414 -->
<g id="node30" class="node">
<title>Node216414</title>
<g id="a_node30"><a xlink:href="quickjs_8c.html#a859d5c989a2aaecef1653b3ac279e108" target="_top" xlink:title="JS_ValueToAtom">
<polygon fill="none" stroke="#ff0000" points="364.5,-798.5 364.5,-817.5 457.5,-817.5 457.5,-798.5 364.5,-798.5"/>
<text text-anchor="middle" x="411" y="-805.5" font-family="Helvetica,sans-Serif" font-size="10.00" fill="#000000">JS_ValueToAtom</text>
</a>
</g>
</g>
<!-- Node216268&#45;&gt;Node216414 -->
<g id="edge50" class="edge">
<title>Node216268&#45;&gt;Node216414</title>
<path fill="none" stroke="#191970" d="M96.1743,-741.65C117.8224,-754.8785 159.2507,-778.2277 198,-789 249.659,-803.3612 310.8214,-807.5657 354.3233,-808.5026"/>
<polygon fill="#191970" stroke="#191970" points="354.3752,-812.0039 364.4313,-808.6685 354.4901,-805.0048 354.3752,-812.0039"/>
</g>
<!-- Node216270 -->
<g id="node3" class="node">
<title>Node216270</title>
<g id="a_node3"><a xlink:href="quickjs_8c.html#ab50618f1bf78e444caa6da0e3e2785d7" target="_top" xlink:title="JS_DefineProperty">
<polygon fill="none" stroke="#ff0000" points="361.5,-418.5 361.5,-437.5 460.5,-437.5 460.5,-418.5 361.5,-418.5"/>
<text text-anchor="middle" x="411" y="-425.5" font-family="Helvetica,sans-Serif" font-size="10.00" fill="#000000">JS_DefineProperty</text>
</a>
</g>
</g>
<!-- Node216269&#45;&gt;Node216270 -->
<g id="edge2" class="edge">
<title>Node216269&#45;&gt;Node216270</title>
<path fill="none" stroke="#191970" d="M300.7477,-760.4453C308.6559,-756.9968 316.2586,-752.3237 322,-746 363.0861,-700.7474 397.4738,-510.2624 407.8177,-447.8746"/>
<polygon fill="#191970" stroke="#191970" points="411.3087,-448.2133 409.4655,-437.78 404.4001,-447.0855 411.3087,-448.2133"/>
</g>
<!-- Node216298 -->
<g id="node14" class="node">
<title>Node216298</title>
<g id="a_node14"><a xlink:href="quickjs_8h.html#afaa20c47565bc704c6c85f3d77254e7d" target="_top" xlink:title="JS_FreeValue">
<polygon fill="none" stroke="#ff0000" points="728.5,-874.5 728.5,-893.5 806.5,-893.5 806.5,-874.5 728.5,-874.5"/>
<text text-anchor="middle" x="767.5" y="-881.5" font-family="Helvetica,sans-Serif" font-size="10.00" fill="#000000">JS_FreeValue</text>
</a>
</g>
</g>
<!-- Node216269&#45;&gt;Node216298 -->
<g id="edge43" class="edge">
<title>Node216269&#45;&gt;Node216298</title>
<path fill="none" stroke="#191970" d="M322.343,-762.2949C365.1428,-760.0836 421.6452,-763.4931 464,-789 489.0273,-804.072 475.401,-828.2386 500,-844 566.4395,-886.5699 660.9147,-890.4882 717.9928,-888.1551"/>
<polygon fill="#191970" stroke="#191970" points="718.3835,-891.6403 728.2001,-887.6547 718.0407,-884.6487 718.3835,-891.6403"/>
</g>
<!-- Node216271 -->
<g id="node4" class="node">
<title>Node216271</title>
<g id="a_node4"><a xlink:href="quickjs_8c.html#a014abd680db53ab89cb133345742a59c" target="_top" xlink:title="__attribute__">
<polygon fill="none" stroke="#ff0000" points="731,-336.5 731,-355.5 804,-355.5 804,-336.5 731,-336.5"/>
<text text-anchor="middle" x="767.5" y="-343.5" font-family="Helvetica,sans-Serif" font-size="10.00" fill="#000000">__attribute__</text>
</a>
</g>
</g>
<!-- Node216270&#45;&gt;Node216271 -->
<g id="edge3" class="edge">
<title>Node216270&#45;&gt;Node216271</title>
<path fill="none" stroke="#191970" d="M431.8096,-418.4371C449.591,-410.6029 476.0262,-399.7461 500,-393 575.9016,-371.6415 666.7823,-358.132 720.6867,-351.3308"/>
<polygon fill="#191970" stroke="#191970" points="721.1402,-354.8014 730.6343,-350.0991 720.28,-347.8545 721.1402,-354.8014"/>
</g>
<!-- Node216339 -->
<g id="node5" class="node">
<title>Node216339</title>
<g id="a_node5"><a xlink:href="quickjs_8c.html#a288254c06a39c9fca740a7abdad2834e" target="_top" xlink:title="__JS_AtomIsTaggedInt">
<polygon fill="none" stroke="#000000" points="708,-494.5 708,-513.5 827,-513.5 827,-494.5 708,-494.5"/>
<text text-anchor="middle" x="767.5" y="-501.5" font-family="Helvetica,sans-Serif" font-size="10.00" fill="#000000">__JS_AtomIsTaggedInt</text>
</a>
</g>
</g>
<!-- Node216270&#45;&gt;Node216339 -->
<g id="edge4" class="edge">
<title>Node216270&#45;&gt;Node216339</title>
<path fill="none" stroke="#191970" d="M430.681,-437.5332C448.4131,-445.7387 475.3982,-457.2864 500,-464 565.8585,-481.9722 643.1851,-492.4319 697.715,-498.1156"/>
<polygon fill="#191970" stroke="#191970" points="697.6627,-501.6282 707.965,-499.1558 698.3695,-494.664 697.6627,-501.6282"/>
</g>
<!-- Node216340 -->
<g id="node6" class="node">
<title>Node216340</title>
<g id="a_node6"><a xlink:href="quickjs_8c.html#a89f38938cee8077ce1fbba07946ed185" target="_top" xlink:title="__JS_AtomToUInt32">
<polygon fill="none" stroke="#000000" points="713.5,-456.5 713.5,-475.5 821.5,-475.5 821.5,-456.5 713.5,-456.5"/>
<text text-anchor="middle" x="767.5" y="-463.5" font-family="Helvetica,sans-Serif" font-size="10.00" fill="#000000">__JS_AtomToUInt32</text>
</a>
</g>
</g>
<!-- Node216270&#45;&gt;Node216340 -->
<g id="edge5" class="edge">
<title>Node216270&#45;&gt;Node216340</title>
<path fill="none" stroke="#191970" d="M460.8135,-436.4344C473.5645,-438.4287 487.2706,-440.4295 500,-442 569.2335,-450.5415 648.9054,-457.2963 703.1699,-461.4356"/>
<polygon fill="#191970" stroke="#191970" points="703.1004,-464.9402 713.3356,-462.2031 703.6275,-457.9601 703.1004,-464.9402"/>
</g>
<!-- Node216695 -->
<g id="node7" class="node">
<title>Node216695</title>
<g id="a_node7"><a xlink:href="quickjs_8c.html#a68c7ae36cec3bf8bbf6cc0868a71cc4b" target="_top" xlink:title="check_define_prop_flags">
<polygon fill="none" stroke="#000000" points="523.5,-190.5 523.5,-209.5 648.5,-209.5 648.5,-190.5 523.5,-190.5"/>
<text text-anchor="middle" x="586" y="-197.5" font-family="Helvetica,sans-Serif" font-size="10.00" fill="#000000">check_define_prop_flags</text>
</a>
</g>
</g>
<!-- Node216270&#45;&gt;Node216695 -->
<g id="edge6" class="edge">
<title>Node216270&#45;&gt;Node216695</title>
<path fill="none" stroke="#191970" d="M412.2935,-418.1732C417.1451,-385.3509 437.3116,-278.5157 500,-224 504.7591,-219.8613 510.1779,-216.4319 515.9264,-213.591"/>
<polygon fill="#191970" stroke="#191970" points="517.3906,-216.7711 525.1837,-209.5935 514.6155,-210.3447 517.3906,-216.7711"/>
</g>
<!-- Node216549 -->
<g id="node8" class="node">
<title>Node216549</title>
<g id="a_node8"><a xlink:href="quickjs_8c.html#ac93c982cb636a5430b191d104083af3e" target="_top" xlink:title="convert_fast_array\l_to_array">
<polygon fill="none" stroke="#ff0000" points="718.5,-274 718.5,-304 816.5,-304 816.5,-274 718.5,-274"/>
<text text-anchor="start" x="726.5" y="-292" font-family="Helvetica,sans-Serif" font-size="10.00" fill="#000000">convert_fast_array</text>
<text text-anchor="middle" x="767.5" y="-281" font-family="Helvetica,sans-Serif" font-size="10.00" fill="#000000">_to_array</text>
</a>
</g>
</g>
<!-- Node216270&#45;&gt;Node216549 -->
<g id="edge7" class="edge">
<title>Node216270&#45;&gt;Node216549</title>
<path fill="none" stroke="#191970" d="M413.9918,-418.2875C422.5072,-392.5473 449.5773,-322.6603 500,-295 564.4501,-259.6447 651.4365,-265.707 708.4695,-275.4916"/>
<polygon fill="#191970" stroke="#191970" points="707.9444,-278.9533 718.4073,-277.2862 709.1884,-272.0648 707.9444,-278.9533"/>
</g>
<!-- Node216288 -->
<g id="node9" class="node">
<title>Node216288</title>
<g id="a_node9"><a xlink:href="quickjs_8c.html#a06b76f5124fd985e35f4c652fd018d6d" target="_top" xlink:title="find_own_property">
<polygon fill="none" stroke="#ff0000" points="538,-.5 538,-19.5 634,-19.5 634,-.5 538,-.5"/>
<text text-anchor="middle" x="586" y="-7.5" font-family="Helvetica,sans-Serif" font-size="10.00" fill="#000000">find_own_property</text>
</a>
</g>
</g>
<!-- Node216270&#45;&gt;Node216288 -->
<g id="edge8" class="edge">
<title>Node216270&#45;&gt;Node216288</title>
<path fill="none" stroke="#191970" d="M413.6221,-418.4632C421.6926,-388.9507 446.6605,-296.441 464,-219 482.3022,-137.2594 443.1841,-95.5503 500,-34 507.4864,-25.8898 517.4612,-20.4345 527.9612,-16.7846"/>
<polygon fill="#191970" stroke="#191970" points="529.0926,-20.1 537.6953,-13.9158 527.1137,-13.3855 529.0926,-20.1"/>
</g>
<!-- Node216289 -->
<g id="node10" class="node">
<title>Node216289</title>
<g id="a_node10"><a xlink:href="quickjs_8c.html#a643df594b75933007bcdbb071b5ea8c5" target="_top" xlink:title="get_shape_prop">
<polygon fill="none" stroke="#000000" points="724.5,-38.5 724.5,-57.5 810.5,-57.5 810.5,-38.5 724.5,-38.5"/>
<text text-anchor="middle" x="767.5" y="-45.5" font-family="Helvetica,sans-Serif" font-size="10.00" fill="#000000">get_shape_prop</text>
</a>
</g>
</g>
<!-- Node216270&#45;&gt;Node216289 -->
<g id="edge12" class="edge">
<title>Node216270&#45;&gt;Node216289</title>
<path fill="none" stroke="#191970" d="M413.4471,-418.4216C421.0137,-388.7895 444.6853,-295.9721 464,-219 480.161,-154.5957 449.7379,-117.3914 500,-74 559.096,-22.9823 655.2146,-27.5476 714.7153,-36.8324"/>
<polygon fill="#191970" stroke="#191970" points="714.2221,-40.2983 724.66,-38.4813 715.3672,-33.3926 714.2221,-40.2983"/>
</g>
<!-- Node216315 -->
<g id="node11" class="node">
<title>Node216315</title>
<g id="a_node11"><a xlink:href="quickjs_8c.html#a9e7b4bccf927d811b0f99b40b08c0472" target="_top" xlink:title="free_var_ref">
<polygon fill="none" stroke="#ff0000" points="552,-760.5 552,-779.5 620,-779.5 620,-760.5 552,-760.5"/>
<text text-anchor="middle" x="586" y="-767.5" font-family="Helvetica,sans-Serif" font-size="10.00" fill="#000000">free_var_ref</text>
</a>
</g>
</g>
<!-- Node216270&#45;&gt;Node216315 -->
<g id="edge10" class="edge">
<title>Node216270&#45;&gt;Node216315</title>
<path fill="none" stroke="#191970" d="M412.3248,-437.7454C419.1771,-486.7338 452.1329,-705.5336 500,-751 511.1697,-761.6095 526.8677,-766.811 541.7998,-769.2179"/>
<polygon fill="#191970" stroke="#191970" points="541.5967,-772.7193 551.95,-770.4698 542.4537,-765.7719 541.5967,-772.7193"/>
</g>
<!-- Node216550 -->
<g id="node12" class="node">
<title>Node216550</title>
<g id="a_node12"><a xlink:href="quickjs_8c.html#a6df3ef223d7e76a0db2c14d972dbfa77" target="_top" xlink:title="get_prop_flags">
<polygon fill="none" stroke="#000000" points="727.5,-231.5 727.5,-250.5 807.5,-250.5 807.5,-231.5 727.5,-231.5"/>
<text text-anchor="middle" x="767.5" y="-238.5" font-family="Helvetica,sans-Serif" font-size="10.00" fill="#000000">get_prop_flags</text>
</a>
</g>
</g>
<!-- Node216270&#45;&gt;Node216550 -->
<g id="edge11" class="edge">
<title>Node216270&#45;&gt;Node216550</title>
<path fill="none" stroke="#191970" d="M412.8657,-418.3993C419.1129,-389.1361 442.2496,-300.7616 500,-263 565.4886,-220.1785 660.1556,-224.0674 717.5469,-231.813"/>
<polygon fill="#191970" stroke="#191970" points="717.0704,-235.2803 727.467,-233.2405 718.0675,-228.3517 717.0704,-235.2803"/>
</g>
<!-- Node216363 -->
<g id="node13" class="node">
<title>Node216363</title>
<g id="a_node13"><a xlink:href="quickjs_8c.html#ab4e100a9cde5f7ec87c92f5e766dbbab" target="_top" xlink:title="JS_AtomIsNumericIndex1">
<polygon fill="none" stroke="#ff0000" points="520.5,-532.5 520.5,-551.5 651.5,-551.5 651.5,-532.5 520.5,-532.5"/>
<text text-anchor="middle" x="586" y="-539.5" font-family="Helvetica,sans-Serif" font-size="10.00" fill="#000000">JS_AtomIsNumericIndex1</text>
</a>
</g>
</g>
<!-- Node216270&#45;&gt;Node216363 -->
<g id="edge13" class="edge">
<title>Node216270&#45;&gt;Node216363</title>
<path fill="none" stroke="#191970" d="M417.8749,-437.7633C431.4208,-456.2655 463.441,-496.5025 500,-518 507.8503,-522.6161 516.6267,-526.3775 525.4908,-529.4334"/>
<polygon fill="#191970" stroke="#191970" points="524.5138,-532.7953 535.104,-532.4794 526.6283,-526.1222 524.5138,-532.7953"/>
</g>
<!-- Node216270&#45;&gt;Node216298 -->
<g id="edge33" class="edge">
<title>Node216270&#45;&gt;Node216298</title>
<path fill="none" stroke="#191970" d="M412.1471,-437.7094C418.4616,-489.6457 450.5105,-734.3224 500,-789 556.8985,-851.8633 658.1384,-873.1389 718.4208,-880.3326"/>
<polygon fill="#191970" stroke="#191970" points="718.1305,-883.8217 728.4553,-881.445 718.9019,-876.8644 718.1305,-883.8217"/>
</g>
<!-- Node216270&#45;&gt;Node216334 -->
<g id="edge34" class="edge">
<title>Node216270&#45;&gt;Node216334</title>
<path fill="none" stroke="#191970" d="M414.4366,-437.5648C423.8621,-462.3391 452.6184,-528.8964 500,-561 504.4675,-564.027 637.5479,-591.5116 714.2807,-607.1823"/>
<polygon fill="#191970" stroke="#191970" points="713.7607,-610.6482 724.2586,-609.2183 715.1603,-603.7896 713.7607,-610.6482"/>
</g>
<!-- Node216366 -->
<g id="node16" class="node">
<title>Node216366</title>
<g id="a_node16"><a xlink:href="quickjs_8h.html#a2050bc428da1c65ac7eb87c3fa3b0392" target="_top" xlink:title="JS_NewInt32">
<polygon fill="none" stroke="#000000" points="863,-418.5 863,-437.5 939,-437.5 939,-418.5 863,-418.5"/>
<text text-anchor="middle" x="901" y="-425.5" font-family="Helvetica,sans-Serif" font-size="10.00" fill="#000000">JS_NewInt32</text>
</a>
</g>
</g>
<!-- Node216270&#45;&gt;Node216366 -->
<g id="edge37" class="edge">
<title>Node216270&#45;&gt;Node216366</title>
<path fill="none" stroke="#191970" d="M460.6804,-428C555.1894,-428 759.7348,-428 852.9569,-428"/>
<polygon fill="#191970" stroke="#191970" points="852.9599,-431.5001 862.9598,-428 852.9598,-424.5001 852.9599,-431.5001"/>
</g>
<!-- Node216385 -->
<g id="node17" class="node">
<title>Node216385</title>
<g id="a_node17"><a xlink:href="quickjs_8c.html#a8aac7988cf0c6f3c2b629a6662fd7ec8" target="_top" xlink:title="JS_AutoInitProperty">
<polygon fill="none" stroke="#ff0000" points="534,-608.5 534,-627.5 638,-627.5 638,-608.5 534,-608.5"/>
<text text-anchor="middle" x="586" y="-615.5" font-family="Helvetica,sans-Serif" font-size="10.00" fill="#000000">JS_AutoInitProperty</text>
</a>
</g>
</g>
<!-- Node216270&#45;&gt;Node216385 -->
<g id="edge19" class="edge">
<title>Node216270&#45;&gt;Node216385</title>
<path fill="none" stroke="#191970" d="M413.2915,-437.5857C420.6075,-466.0645 446.1504,-550.8621 500,-594 507.1075,-599.6937 515.4821,-604.0381 524.1679,-607.3526"/>
<polygon fill="#191970" stroke="#191970" points="523.0757,-610.6779 533.6699,-610.5601 525.3145,-604.0455 523.0757,-610.6779"/>
</g>
<!-- Node216548 -->
<g id="node18" class="node">
<title>Node216548</title>
<g id="a_node18"><a xlink:href="quickjs_8c.html#ad5565bb5cfd5321f181573257f3b0c91" target="_top" xlink:title="JS_CreateProperty">
<polygon fill="none" stroke="#ff0000" points="536,-304.5 536,-323.5 636,-323.5 636,-304.5 536,-304.5"/>
<text text-anchor="middle" x="586" y="-311.5" font-family="Helvetica,sans-Serif" font-size="10.00" fill="#000000">JS_CreateProperty</text>
</a>
</g>
</g>
<!-- Node216270&#45;&gt;Node216548 -->
<g id="edge21" class="edge">
<title>Node216270&#45;&gt;Node216548</title>
<path fill="none" stroke="#191970" d="M417.8749,-418.2367C431.4208,-399.7345 463.441,-359.4975 500,-338 507.9484,-333.3262 516.8463,-329.5286 525.8232,-326.4524"/>
<polygon fill="#191970" stroke="#191970" points="527.0659,-329.7306 535.554,-323.3901 524.9646,-323.0534 527.0659,-329.7306"/>
</g>
<!-- Node216297 -->
<g id="node19" class="node">
<title>Node216297</title>
<g id="a_node19"><a xlink:href="quickjs_8h.html#a775522f2d084fc8fa0fcb33f390006b4" target="_top" xlink:title="JS_DupValue">
<polygon fill="none" stroke="#000000" points="729,-114.5 729,-133.5 806,-133.5 806,-114.5 729,-114.5"/>
<text text-anchor="middle" x="767.5" y="-121.5" font-family="Helvetica,sans-Serif" font-size="10.00" fill="#000000">JS_DupValue</text>
</a>
</g>
</g>
<!-- Node216270&#45;&gt;Node216297 -->
<g id="edge32" class="edge">
<title>Node216270&#45;&gt;Node216297</title>
<path fill="none" stroke="#191970" d="M413.4502,-418.4958C427.098,-365.6367 493.363,-110.0556 500,-105 570.6052,-51.2182 684.3922,-88.0715 737.8962,-110.3976"/>
<polygon fill="#191970" stroke="#191970" points="736.5911,-113.6461 747.1611,-114.3721 739.3509,-107.2131 736.5911,-113.6461"/>
</g>
<!-- Node216486 -->
<g id="node20" class="node">
<title>Node216486</title>
<g id="a_node20"><a xlink:href="quickjs_8c.html#a1ca9cdb1fa2ffc3e6506e92b200e490f" target="_top" xlink:title="JS_IsFunction">
<polygon fill="none" stroke="#000000" points="727.5,-171.5 727.5,-190.5 807.5,-190.5 807.5,-171.5 727.5,-171.5"/>
<text text-anchor="middle" x="767.5" y="-178.5" font-family="Helvetica,sans-Serif" font-size="10.00" fill="#000000">JS_IsFunction</text>
</a>
</g>
</g>
<!-- Node216270&#45;&gt;Node216486 -->
<g id="edge35" class="edge">
<title>Node216270&#45;&gt;Node216486</title>
<path fill="none" stroke="#191970" d="M412.9239,-418.4839C421.581,-376.7013 458.3224,-210.2832 500,-181 568.6836,-132.742 673.7307,-152.6296 729.5524,-168.491"/>
<polygon fill="#191970" stroke="#191970" points="728.8013,-171.9184 739.3828,-171.3885 730.7804,-165.204 728.8013,-171.9184"/>
</g>
<!-- Node216413 -->
<g id="node21" class="node">
<title>Node216413</title>
<g id="a_node21"><a xlink:href="quickjs_8h.html#a88259aa0da61ac754402c64ccecee116" target="_top" xlink:title="JS_NewUint32">
<polygon fill="none" stroke="#ff0000" points="726,-380.5 726,-399.5 809,-399.5 809,-380.5 726,-380.5"/>
<text text-anchor="middle" x="767.5" y="-387.5" font-family="Helvetica,sans-Serif" font-size="10.00" fill="#000000">JS_NewUint32</text>
</a>
</g>
</g>
<!-- Node216270&#45;&gt;Node216413 -->
<g id="edge38" class="edge">
<title>Node216270&#45;&gt;Node216413</title>
<path fill="none" stroke="#191970" d="M460.8135,-419.5656C473.5645,-417.5713 487.2706,-415.5705 500,-414 574.7766,-404.7746 661.7299,-397.6335 715.6966,-393.6209"/>
<polygon fill="#191970" stroke="#191970" points="715.9916,-397.1088 725.7078,-392.8844 715.4779,-390.1277 715.9916,-397.1088"/>
</g>
<!-- Node216384 -->
<g id="node22" class="node">
<title>Node216384</title>
<g id="a_node22"><a xlink:href="quickjs_8h.html#a4e407128a9605afb77523e49e9a627fd" target="_top" xlink:title="JS_IsUndefined">
<polygon fill="none" stroke="#000000" points="543,-722.5 543,-741.5 629,-741.5 629,-722.5 543,-722.5"/>
<text text-anchor="middle" x="586" y="-729.5" font-family="Helvetica,sans-Serif" font-size="10.00" fill="#000000">JS_IsUndefined</text>
</a>
</g>
</g>
<!-- Node216270&#45;&gt;Node216384 -->
<g id="edge36" class="edge">
<title>Node216270&#45;&gt;Node216384</title>
<path fill="none" stroke="#191970" d="M412.7095,-437.7903C420.8465,-483.2923 457.0454,-673.5595 500,-713 509.0632,-721.3217 520.9258,-726.2892 532.9325,-729.1888"/>
<polygon fill="#191970" stroke="#191970" points="532.5065,-732.672 542.9938,-731.1664 533.8566,-725.8034 532.5065,-732.672"/>
</g>
<!-- Node216696 -->
<g id="node23" class="node">
<title>Node216696</title>
<g id="a_node23"><a xlink:href="quickjs_8c.html#af2333dd9d30e60437b73af383477188c" target="_top" xlink:title="JS_NumberIsInteger">
<polygon fill="none" stroke="#ff0000" points="532.5,-684.5 532.5,-703.5 639.5,-703.5 639.5,-684.5 532.5,-684.5"/>
<text text-anchor="middle" x="586" y="-691.5" font-family="Helvetica,sans-Serif" font-size="10.00" fill="#000000">JS_NumberIsInteger</text>
</a>
</g>
</g>
<!-- Node216270&#45;&gt;Node216696 -->
<g id="edge39" class="edge">
<title>Node216270&#45;&gt;Node216696</title>
<path fill="none" stroke="#191970" d="M411.3294,-437.6028C413.1433,-474.5747 424.8609,-608.9388 500,-675 506.4379,-680.6601 514.1806,-684.7524 522.3477,-687.6921"/>
<polygon fill="#191970" stroke="#191970" points="521.4922,-691.0899 532.0774,-690.6384 523.521,-684.3904 521.4922,-691.0899"/>
</g>
<!-- Node216699 -->
<g id="node24" class="node">
<title>Node216699</title>
<g id="a_node24"><a xlink:href="quickjs_8c.html#aced4796120beed3ba63dc0b234b399ab" target="_top" xlink:title="JS_NumberIsNegativeOrMinusZero">
<polygon fill="none" stroke="#000000" points="500,-646.5 500,-665.5 672,-665.5 672,-646.5 500,-646.5"/>
<text text-anchor="middle" x="586" y="-653.5" font-family="Helvetica,sans-Serif" font-size="10.00" fill="#000000">JS_NumberIsNegativeOrMinusZero</text>
</a>
</g>
</g>
<!-- Node216270&#45;&gt;Node216699 -->
<g id="edge40" class="edge">
<title>Node216270&#45;&gt;Node216699</title>
<path fill="none" stroke="#191970" d="M412.0389,-437.728C416.1568,-471.2071 434.4548,-582.5909 500,-637 502.0074,-638.6664 504.1293,-640.195 506.3415,-641.5969"/>
<polygon fill="#191970" stroke="#191970" points="504.8054,-644.7448 515.2704,-646.3988 508.121,-638.5798 504.8054,-644.7448"/>
</g>
<!-- Node216672 -->
<g id="node25" class="node">
<title>Node216672</title>
<g id="a_node25"><a xlink:href="quickjs_8c.html#a24be89a128d1cd7c0908604815b2b854" target="_top" xlink:title="js_same_value">
<polygon fill="none" stroke="#ff0000" points="545,-114.5 545,-133.5 627,-133.5 627,-114.5 545,-114.5"/>
<text text-anchor="middle" x="586" y="-121.5" font-family="Helvetica,sans-Serif" font-size="10.00" fill="#000000">js_same_value</text>
</a>
</g>
</g>
<!-- Node216270&#45;&gt;Node216672 -->
<g id="edge41" class="edge">
<title>Node216270&#45;&gt;Node216672</title>
<path fill="none" stroke="#191970" d="M413.5258,-418.1901C425.7767,-370.9106 479.262,-168.0123 500,-148 509.4176,-138.912 521.9775,-133.208 534.5827,-129.6444"/>
<polygon fill="#191970" stroke="#191970" points="535.7399,-132.9659 544.6424,-127.2216 534.1008,-126.1605 535.7399,-132.9659"/>
</g>
<!-- Node216288&#45;&gt;Node216289 -->
<g id="edge9" class="edge">
<title>Node216288&#45;&gt;Node216289</title>
<path fill="none" stroke="#191970" d="M631.8001,-19.589C656.8315,-24.8297 687.967,-31.3485 714.098,-36.8194"/>
<polygon fill="#191970" stroke="#191970" points="713.7086,-40.3137 724.2136,-38.9373 715.1431,-33.4623 713.7086,-40.3137"/>
</g>
<!-- Node216363&#45;&gt;Node216339 -->
<g id="edge14" class="edge">
<title>Node216363&#45;&gt;Node216339</title>
<path fill="none" stroke="#191970" d="M631.8001,-532.411C656.1826,-527.3061 686.3567,-520.9887 712.0557,-515.6082"/>
<polygon fill="#191970" stroke="#191970" points="712.9587,-518.9951 722.0292,-513.5201 711.5242,-512.1436 712.9587,-518.9951"/>
</g>
<!-- Node216363&#45;&gt;Node216340 -->
<g id="edge15" class="edge">
<title>Node216363&#45;&gt;Node216340</title>
<path fill="none" stroke="#191970" d="M604.6913,-532.3505C628.3543,-520.3489 670.5556,-499.6563 708,-485 713.5632,-482.8225 719.4877,-480.7022 725.3603,-478.7154"/>
<polygon fill="#191970" stroke="#191970" points="726.7119,-481.9555 735.1214,-475.5112 724.5286,-475.3047 726.7119,-481.9555"/>
</g>
<!-- Node216363&#45;&gt;Node216298 -->
<g id="edge16" class="edge">
<title>Node216363&#45;&gt;Node216298</title>
<path fill="none" stroke="#191970" d="M608.082,-551.5124C627.4986,-560.9325 655.2094,-577.1139 672,-599 736.9766,-683.6955 759.0898,-815.0158 765.3526,-864.3657"/>
<polygon fill="#191970" stroke="#191970" points="761.883,-864.8289 766.5404,-874.3451 768.8339,-864.0015 761.883,-864.8289"/>
</g>
<!-- Node216363&#45;&gt;Node216334 -->
<g id="edge17" class="edge">
<title>Node216363&#45;&gt;Node216334</title>
<path fill="none" stroke="#191970" d="M627.7539,-551.6158C642.021,-555.434 657.9231,-560.2895 672,-566 697.5573,-576.3677 725.0464,-591.8372 743.9392,-603.209"/>
<polygon fill="#191970" stroke="#191970" points="742.1183,-606.1981 752.4771,-608.4221 745.7662,-600.2237 742.1183,-606.1981"/>
</g>
<!-- Node216363&#45;&gt;Node216366 -->
<g id="edge18" class="edge">
<title>Node216363&#45;&gt;Node216366</title>
<path fill="none" stroke="#191970" d="M651.6259,-550.5975C702.4883,-554.1342 773.1377,-551.9964 827,-523 858.4479,-506.0702 880.8779,-469.4298 892.3211,-446.925"/>
<polygon fill="#191970" stroke="#191970" points="895.5802,-448.2258 896.7987,-437.7012 889.283,-445.1689 895.5802,-448.2258"/>
</g>
<!-- Node216385&#45;&gt;Node216334 -->
<g id="edge20" class="edge">
<title>Node216385&#45;&gt;Node216334</title>
<path fill="none" stroke="#191970" d="M638.0106,-618C661.9333,-618 690.2775,-618 714.3393,-618"/>
<polygon fill="#191970" stroke="#191970" points="714.3639,-621.5001 724.3639,-618 714.3638,-614.5001 714.3639,-621.5001"/>
</g>
<!-- Node216548&#45;&gt;Node216271 -->
<g id="edge22" class="edge">
<title>Node216548&#45;&gt;Node216271</title>
<path fill="none" stroke="#191970" d="M636.0761,-322.8288C662.5687,-327.4997 694.8923,-333.1986 720.8534,-337.7758"/>
<polygon fill="#191970" stroke="#191970" points="720.3713,-341.2447 730.8271,-339.5343 721.5867,-334.351 720.3713,-341.2447"/>
</g>
<!-- Node216548&#45;&gt;Node216339 -->
<g id="edge23" class="edge">
<title>Node216548&#45;&gt;Node216339</title>
<path fill="none" stroke="#191970" d="M590.2206,-323.7908C603.2634,-352.8936 645.8276,-439.66 708,-485 710.6284,-486.9168 713.4579,-488.6453 716.4053,-490.2033"/>
<polygon fill="#191970" stroke="#191970" points="714.969,-493.3951 725.5176,-494.3835 717.8878,-487.0326 714.969,-493.3951"/>
</g>
<!-- Node216548&#45;&gt;Node216340 -->
<g id="edge24" class="edge">
<title>Node216548&#45;&gt;Node216340</title>
<path fill="none" stroke="#191970" d="M597.3536,-323.5083C627.6567,-348.8861 710.6985,-418.4307 748.4136,-450.0158"/>
<polygon fill="#191970" stroke="#191970" points="746.2368,-452.7581 756.1507,-456.4953 750.7312,-447.3914 746.2368,-452.7581"/>
</g>
<!-- Node216548&#45;&gt;Node216549 -->
<g id="edge25" class="edge">
<title>Node216548&#45;&gt;Node216549</title>
<path fill="none" stroke="#191970" d="M636.0761,-307.1025C658.3782,-304.0306 684.8124,-300.3895 708.1047,-297.1812"/>
<polygon fill="#191970" stroke="#191970" points="708.7863,-300.6204 718.2152,-295.7885 707.8311,-293.6859 708.7863,-300.6204"/>
</g>
<!-- Node216548&#45;&gt;Node216289 -->
<g id="edge27" class="edge">
<title>Node216548&#45;&gt;Node216289</title>
<path fill="none" stroke="#191970" d="M597.4503,-304.3695C615.7287,-288.4149 651.5212,-254.701 672,-219 698.4375,-172.9113 679.9403,-150.1194 708,-105 717.8209,-89.2082 733.0109,-74.7562 745.5845,-64.3555"/>
<polygon fill="#191970" stroke="#191970" points="748.1301,-66.8026 753.7731,-57.8356 743.7699,-61.3264 748.1301,-66.8026"/>
</g>
<!-- Node216548&#45;&gt;Node216550 -->
<g id="edge26" class="edge">
<title>Node216548&#45;&gt;Node216550</title>
<path fill="none" stroke="#191970" d="M609.728,-304.4565C641.523,-291.6684 698.1176,-268.9059 734.1777,-254.4024"/>
<polygon fill="#191970" stroke="#191970" points="735.7946,-257.5246 743.7662,-250.5458 733.1825,-251.0302 735.7946,-257.5246"/>
</g>
<!-- Node216548&#45;&gt;Node216297 -->
<g id="edge28" class="edge">
<title>Node216548&#45;&gt;Node216297</title>
<path fill="none" stroke="#191970" d="M595.8914,-304.2366C612.5483,-287.5503 646.8388,-252.1312 672,-219 690.1216,-195.1382 686.8665,-183.2403 708,-162 717.0266,-152.9278 728.588,-144.9346 739.115,-138.6494"/>
<polygon fill="#191970" stroke="#191970" points="741.0538,-141.573 748.0099,-133.5815 737.5885,-135.4909 741.0538,-141.573"/>
</g>
<!-- Node216548&#45;&gt;Node216486 -->
<g id="edge29" class="edge">
<title>Node216548&#45;&gt;Node216486</title>
<path fill="none" stroke="#191970" d="M598.3389,-304.4194C620.2159,-287.4951 667.3325,-251.3247 708,-222 720.0434,-213.3156 733.6692,-203.8974 744.8398,-196.2803"/>
<polygon fill="#191970" stroke="#191970" points="746.8886,-199.1197 753.1948,-190.6061 742.9558,-193.3289 746.8886,-199.1197"/>
</g>
<!-- Node216548&#45;&gt;Node216413 -->
<g id="edge30" class="edge">
<title>Node216548&#45;&gt;Node216413</title>
<path fill="none" stroke="#191970" d="M608.9871,-323.6255C640.8992,-336.9881 698.7844,-361.2265 735.0757,-376.4229"/>
<polygon fill="#191970" stroke="#191970" points="734.1237,-379.8187 744.6995,-380.4527 736.8274,-373.3619 734.1237,-379.8187"/>
</g>
<!-- Node216413&#45;&gt;Node216366 -->
<g id="edge31" class="edge">
<title>Node216413&#45;&gt;Node216366</title>
<path fill="none" stroke="#191970" d="M801.1877,-399.589C818.2632,-404.4494 839.2004,-410.4091 857.4816,-415.6127"/>
<polygon fill="#191970" stroke="#191970" points="856.7469,-419.0426 867.3231,-418.4141 858.6634,-412.31 856.7469,-419.0426"/>
</g>
<!-- Node216672&#45;&gt;Node216297 -->
<g id="edge42" class="edge">
<title>Node216672&#45;&gt;Node216297</title>
<path fill="none" stroke="#191970" d="M627.1852,-124C654.3851,-124 690.1544,-124 718.7701,-124"/>
<polygon fill="#191970" stroke="#191970" points="718.96,-127.5001 728.9599,-124 718.9599,-120.5001 718.96,-127.5001"/>
</g>
<!-- Node216570&#45;&gt;Node216288 -->
<g id="edge49" class="edge">
<title>Node216570&#45;&gt;Node216288</title>
<path fill="none" stroke="#191970" d="M413.2915,-190.4143C420.6075,-161.9355 446.1504,-77.1379 500,-34 508.1595,-27.4636 517.9889,-22.7055 528.0419,-19.2424"/>
<polygon fill="#191970" stroke="#191970" points="529.1537,-22.5626 537.7017,-16.3031 527.1159,-15.8657 529.1537,-22.5626"/>
</g>
<!-- Node216414&#45;&gt;Node216334 -->
<g id="edge51" class="edge">
<title>Node216414&#45;&gt;Node216334</title>
<path fill="none" stroke="#191970" d="M457.5186,-817.0541C513.1343,-825.2531 606.8538,-830.4877 672,-789 727.3638,-753.7421 753.5332,-674.4316 763.0575,-637.5485"/>
<polygon fill="#191970" stroke="#191970" points="766.5244,-638.1043 765.4928,-627.5598 759.7236,-636.4462 766.5244,-638.1043"/>
</g>
</g>
</svg>
        <g id="navigator" transform="translate(0 0)" fill="#404254">
                <rect fill="#f2f5e9" fill-opacity="0.5" stroke="#606060" stroke-width=".5" x="0" y="0" width="60" height="60"/>
                <use id="zoomplus" xlink:href="#zoomPlus" x="17" y="9" onmousedown="handleZoom(evt,'in')"/>
                <use id="zoomminus" xlink:href="#zoomMin" x="42" y="9" onmousedown="handleZoom(evt,'out')"/>
                <use id="reset" xlink:href="#resetDef" x="30" y="36" onmousedown="handleReset()"/>
                <g id="arrowUp" xlink:href="#dirArrow" transform="translate(30 24)" onmousedown="handlePan(0,-1)">
                  <use xlink:href="#rim" fill="#404040">
                        <set attributeName="fill" to="#808080" begin="arrowUp.mouseover" end="arrowUp.mouseout"/>
                  </use>
                  <path fill="none" stroke="white" stroke-width="1.5" d="M0,-3.0v7 M-2.5,-0.5L0,-3.0L2.5,-0.5"/>
                </g>
                <g id="arrowRight" xlink:href="#dirArrow" transform="rotate(90) translate(36 -43)" onmousedown="handlePan(1,0)">
                  <use xlink:href="#rim" fill="#404040">
                        <set attributeName="fill" to="#808080" begin="arrowRight.mouseover" end="arrowRight.mouseout"/>
                  </use>
                  <path fill="none" stroke="white" stroke-width="1.5" d="M0,-3.0v7 M-2.5,-0.5L0,-3.0L2.5,-0.5"/>
                </g>
                <g id="arrowDown" xlink:href="#dirArrow" transform="rotate(180) translate(-30 -48)" onmousedown="handlePan(0,1)">
                  <use xlink:href="#rim" fill="#404040">
                        <set attributeName="fill" to="#808080" begin="arrowDown.mouseover" end="arrowDown.mouseout"/>
                  </use>
                  <path fill="none" stroke="white" stroke-width="1.5" d="M0,-3.0v7 M-2.5,-0.5L0,-3.0L2.5,-0.5"/>
                </g>
                <g id="arrowLeft" xlink:href="#dirArrow" transform="rotate(270) translate(-36 17)" onmousedown="handlePan(-1,0)">
                  <use xlink:href="#rim" fill="#404040">
                        <set attributeName="fill" to="#808080" begin="arrowLeft.mouseover" end="arrowLeft.mouseout"/>
                  </use>
                  <path fill="none" stroke="white" stroke-width="1.5" d="M0,-3.0v7 M-2.5,-0.5L0,-3.0L2.5,-0.5"/>
                </g>
        </g>
        <svg viewBox="0 0 15 15" width="100%" height="30px" preserveAspectRatio="xMaxYMin meet">
         <g id="arrow_out" transform="scale(0.3 0.3)">
          <a xlink:href="quickjs_8c_a116b8bb41915b573650c477a55d8e46d_cgraph_org.svg" target="_base">
           <rect id="button" ry="5" rx="5" y="6" x="6" height="38" width="38"
                fill="#f2f5e9" fill-opacity="0.5" stroke="#606060" stroke-width="1.0"/>
           <path id="arrow"
             d="M 11.500037,31.436501 C 11.940474,20.09759 22.043105,11.32322 32.158766,21.979434 L 37.068811,17.246167 C 37.068811,17.246167 37.088388,32 37.088388,32 L 22.160133,31.978069 C 22.160133,31.978069 26.997745,27.140456 26.997745,27.140456 C 18.528582,18.264221 13.291696,25.230495 11.500037,31.436501 z"
             style="fill:#404040;"/>
          </a>
         </g>
        </svg>
</svg>
