<?xml version="1.0" encoding="UTF-8" standalone="no"?>
<!DOCTYPE svg PUBLIC "-//W3C//DTD SVG 1.1//EN"
 "http://www.w3.org/Graphics/SVG/1.1/DTD/svg11.dtd">
<!-- Generated by graphviz version 2.40.1 (20161225.0304)
 -->
<!-- Title: JS_NewCFunctionData Pages: 1 -->
<!--zoomable 360 -->
<svg id="main" version="1.1" xmlns="http://www.w3.org/2000/svg" xmlns:xlink="http://www.w3.org/1999/xlink" xml:space="preserve" onload="init(evt)">
<style type="text/css"><![CDATA[
.edge:hover path { stroke: red; }
.edge:hover polygon { stroke: red; fill: red; }
]]></style>
<script type="text/javascript"><![CDATA[
var edges = document.getElementsByTagName('g');
if (edges && edges.length) {
  for (var i=0;i<edges.length;i++) {
    if (edges[i].id.substr(0,4)=='edge') {
      edges[i].setAttribute('class','edge');
    }
  }
}
]]></script>
        <defs>
                <circle id="rim" cx="0" cy="0" r="7"/>
                <circle id="rim2" cx="0" cy="0" r="3.5"/>
                <g id="zoomPlus">
                        <use xlink:href="#rim" fill="#404040">
                                <set attributeName="fill" to="#808080" begin="zoomplus.mouseover" end="zoomplus.mouseout"/>
                        </use>
                        <path d="M-4,0h8M0,-4v8" fill="none" stroke="white" stroke-width="1.5" pointer-events="none"/>
                </g>
                <g id="zoomMin">
                        <use xlink:href="#rim" fill="#404040">
                                <set attributeName="fill" to="#808080" begin="zoomminus.mouseover" end="zoomminus.mouseout"/>
                        </use>
                        <path d="M-4,0h8" fill="none" stroke="white" stroke-width="1.5" pointer-events="none"/>
                </g>
                <g id="dirArrow">
                        <path fill="none" stroke="white" stroke-width="1.5" d="M0,-3.0v7 M-2.5,-0.5L0,-3.0L2.5,-0.5"/>
                </g>
               <g id="resetDef">
                       <use xlink:href="#rim2" fill="#404040">
                               <set attributeName="fill" to="#808080" begin="reset.mouseover" end="reset.mouseout"/>
                       </use>
               </g>
        </defs>

<script type="text/javascript">
var viewWidth = 962;
var viewHeight = 360;
var sectionId = 'dynsection-265';
</script>
<script xlink:href="svgpan.js"/>
<svg id="graph" class="graph">
<g id="viewport">
<title>JS_NewCFunctionData</title>
<!-- Node87925 -->
<g id="node1" class="node">
<title>Node87925</title>
<polygon fill="#bfbfbf" stroke="#000000" points="0,-120.5 0,-139.5 120,-139.5 120,-120.5 0,-120.5"/>
<text text-anchor="middle" x="60" y="-127.5" font-family="Helvetica,sans-Serif" font-size="10.00" fill="#000000">JS_NewCFunctionData</text>
</g>
<!-- Node87926 -->
<g id="node2" class="node">
<title>Node87926</title>
<g id="a_node2"><a xlink:href="quickjs_8c.html#affd006b08d57cbfbfbfb8f146575c6d9" target="_top" xlink:title="js_async_from_sync\l_iterator_unwrap_func\l_create">
<polygon fill="none" stroke="#000000" points="344.5,-310.5 344.5,-351.5 457.5,-351.5 457.5,-310.5 344.5,-310.5"/>
<text text-anchor="start" x="352.5" y="-339.5" font-family="Helvetica,sans-Serif" font-size="10.00" fill="#000000">js_async_from_sync</text>
<text text-anchor="start" x="352.5" y="-328.5" font-family="Helvetica,sans-Serif" font-size="10.00" fill="#000000">_iterator_unwrap_func</text>
<text text-anchor="middle" x="401" y="-317.5" font-family="Helvetica,sans-Serif" font-size="10.00" fill="#000000">_create</text>
</a>
</g>
</g>
<!-- Node87925&#45;&gt;Node87926 -->
<g id="edge1" class="edge">
<title>Node87925&#45;&gt;Node87926</title>
<path fill="none" stroke="#191970" d="M70.2118,-148.4093C85.5546,-174.4431 116.9607,-221.8613 156,-249 213.4536,-288.9396 291.8634,-310.6525 344.3543,-321.5214"/>
<polygon fill="#191970" stroke="#191970" points="73.1492,-146.496 65.1356,-139.5654 67.0782,-149.9807 73.1492,-146.496"/>
</g>
<!-- Node87928 -->
<g id="node4" class="node">
<title>Node87928</title>
<g id="a_node4"><a xlink:href="quickjs_8c.html#aa4b0672b30fbf661af60cf49cfadbe8f" target="_top" xlink:title="js_async_generator\l_resolve_function_create">
<polygon fill="none" stroke="#000000" points="508.5,-115 508.5,-145 633.5,-145 633.5,-115 508.5,-115"/>
<text text-anchor="start" x="516.5" y="-133" font-family="Helvetica,sans-Serif" font-size="10.00" fill="#000000">js_async_generator</text>
<text text-anchor="middle" x="571" y="-122" font-family="Helvetica,sans-Serif" font-size="10.00" fill="#000000">_resolve_function_create</text>
</a>
</g>
</g>
<!-- Node87925&#45;&gt;Node87928 -->
<g id="edge3" class="edge">
<title>Node87925&#45;&gt;Node87928</title>
<path fill="none" stroke="#191970" d="M130.1356,-130C230.2263,-130 412.5023,-130 508.3169,-130"/>
<polygon fill="#191970" stroke="#191970" points="130.1209,-126.5001 120.1208,-130 130.1208,-133.5001 130.1209,-126.5001"/>
</g>
<!-- Node87932 -->
<g id="node8" class="node">
<title>Node87932</title>
<g id="a_node8"><a xlink:href="quickjs_8c.html#a7a5c4f3ad3260974d9a0c75120ce5647" target="_top" xlink:title="js_promise_all">
<polygon fill="none" stroke="#000000" points="531.5,-164.5 531.5,-183.5 610.5,-183.5 610.5,-164.5 531.5,-164.5"/>
<text text-anchor="middle" x="571" y="-171.5" font-family="Helvetica,sans-Serif" font-size="10.00" fill="#000000">js_promise_all</text>
</a>
</g>
</g>
<!-- Node87925&#45;&gt;Node87932 -->
<g id="edge8" class="edge">
<title>Node87925&#45;&gt;Node87932</title>
<path fill="none" stroke="#191970" d="M130.2055,-140.8384C138.8807,-142.0005 147.6359,-143.089 156,-144 293.5199,-158.9781 457.5204,-168.3348 531.4315,-172.0989"/>
<polygon fill="#191970" stroke="#191970" points="130.4702,-137.3419 120.0866,-139.4467 129.5164,-144.2767 130.4702,-137.3419"/>
</g>
<!-- Node87933 -->
<g id="node9" class="node">
<title>Node87933</title>
<g id="a_node9"><a xlink:href="quickjs_8c.html#ae8438ccbdb642a5efe75ee5553040c64" target="_top" xlink:title="js_promise_executor_new">
<polygon fill="none" stroke="#000000" points="162,-220.5 162,-239.5 292,-239.5 292,-220.5 162,-220.5"/>
<text text-anchor="middle" x="227" y="-227.5" font-family="Helvetica,sans-Serif" font-size="10.00" fill="#000000">js_promise_executor_new</text>
</a>
</g>
</g>
<!-- Node87925&#45;&gt;Node87933 -->
<g id="edge9" class="edge">
<title>Node87925&#45;&gt;Node87933</title>
<path fill="none" stroke="#191970" d="M84.5943,-144.7271C119.228,-165.4659 181.416,-202.7042 210.7904,-220.2937"/>
<polygon fill="#191970" stroke="#191970" points="86.3902,-141.7231 76.0127,-139.5884 82.794,-147.7287 86.3902,-141.7231"/>
</g>
<!-- Node88022 -->
<g id="node14" class="node">
<title>Node88022</title>
<g id="a_node14"><a xlink:href="quickjs_8c.html#a976c7217666ebb9ef04fd8cba9ba2dd2" target="_top" xlink:title="js_promise_then_finally_func">
<polygon fill="none" stroke="#000000" points="674,-76.5 674,-95.5 817,-95.5 817,-76.5 674,-76.5"/>
<text text-anchor="middle" x="745.5" y="-83.5" font-family="Helvetica,sans-Serif" font-size="10.00" fill="#000000">js_promise_then_finally_func</text>
</a>
</g>
</g>
<!-- Node87925&#45;&gt;Node88022 -->
<g id="edge23" class="edge">
<title>Node87925&#45;&gt;Node88022</title>
<path fill="none" stroke="#191970" d="M130.5608,-125.4709C261.7919,-117.0476 542.0169,-99.0609 673.9745,-90.591"/>
<polygon fill="#191970" stroke="#191970" points="129.988,-122.0004 120.2328,-126.1339 130.4364,-128.986 129.988,-122.0004"/>
</g>
<!-- Node88023 -->
<g id="node15" class="node">
<title>Node88023</title>
<g id="a_node15"><a xlink:href="quickjs_8c.html#a7f42cf22a3fab5aa419eb5122569576c" target="_top" xlink:title="js_promise_finally">
<polygon fill="none" stroke="#000000" points="856,-71.5 856,-90.5 951,-90.5 951,-71.5 856,-71.5"/>
<text text-anchor="middle" x="903.5" y="-78.5" font-family="Helvetica,sans-Serif" font-size="10.00" fill="#000000">js_promise_finally</text>
</a>
</g>
</g>
<!-- Node87925&#45;&gt;Node88023 -->
<g id="edge22" class="edge">
<title>Node87925&#45;&gt;Node88023</title>
<path fill="none" stroke="#191970" d="M92.4134,-116.7794C152.2976,-93.5856 284.7787,-48 401,-48 401,-48 401,-48 571,-48 680.659,-48 708.1136,-54.0063 817,-67 829.5377,-68.4961 843.0381,-70.4938 855.5591,-72.5105"/>
<polygon fill="#191970" stroke="#191970" points="91.1328,-113.522 83.1024,-120.4331 93.6899,-120.0383 91.1328,-113.522"/>
</g>
<!-- Node88205 -->
<g id="node17" class="node">
<title>Node88205</title>
<g id="a_node17"><a xlink:href="quickjs_8c.html#adf2952dd52aa03ebcd2e60880eb1b05c" target="_top" xlink:title="js_proxy_revoke_constructor">
<polygon fill="none" stroke="#ff0000" points="156,-.5 156,-19.5 298,-19.5 298,-.5 156,-.5"/>
<text text-anchor="middle" x="227" y="-7.5" font-family="Helvetica,sans-Serif" font-size="10.00" fill="#000000">js_proxy_revoke_constructor</text>
</a>
</g>
</g>
<!-- Node87925&#45;&gt;Node88205 -->
<g id="edge24" class="edge">
<title>Node87925&#45;&gt;Node88205</title>
<path fill="none" stroke="#191970" d="M73.2825,-112.4543C90.2868,-91.1142 121.6818,-55.31 156,-34 165.8379,-27.8911 177.4168,-23.129 188.3371,-19.5157"/>
<polygon fill="#191970" stroke="#191970" points="70.4945,-110.3379 67.1035,-120.3755 76.0138,-114.6434 70.4945,-110.3379"/>
</g>
<!-- Node87927 -->
<g id="node3" class="node">
<title>Node87927</title>
<g id="a_node3"><a xlink:href="quickjs_8c.html#aa45afa6d2861615f29444c9614ce766a" target="_top" xlink:title="js_async_from_sync\l_iterator_next">
<polygon fill="none" stroke="#000000" points="692,-311 692,-341 799,-341 799,-311 692,-311"/>
<text text-anchor="start" x="700" y="-329" font-family="Helvetica,sans-Serif" font-size="10.00" fill="#000000">js_async_from_sync</text>
<text text-anchor="middle" x="745.5" y="-318" font-family="Helvetica,sans-Serif" font-size="10.00" fill="#000000">_iterator_next</text>
</a>
</g>
</g>
<!-- Node87926&#45;&gt;Node87927 -->
<g id="edge2" class="edge">
<title>Node87926&#45;&gt;Node87927</title>
<path fill="none" stroke="#191970" d="M467.5613,-341.3855C479.6576,-342.8911 492.1841,-344.2007 504,-345 563.4197,-349.0198 578.6721,-350.2026 638,-345 655.6528,-343.452 674.7509,-340.5002 691.8837,-337.3766"/>
<polygon fill="#191970" stroke="#191970" points="467.8943,-337.8994 457.5266,-340.0816 466.9922,-344.8411 467.8943,-337.8994"/>
</g>
<!-- Node87929 -->
<g id="node5" class="node">
<title>Node87929</title>
<g id="a_node5"><a xlink:href="quickjs_8c.html#a0950cebccf1347ea44a3c6927d3a5fa6" target="_top" xlink:title="js_async_generator\l_await">
<polygon fill="none" stroke="#000000" points="695,-173 695,-203 796,-203 796,-173 695,-173"/>
<text text-anchor="start" x="703" y="-191" font-family="Helvetica,sans-Serif" font-size="10.00" fill="#000000">js_async_generator</text>
<text text-anchor="middle" x="745.5" y="-180" font-family="Helvetica,sans-Serif" font-size="10.00" fill="#000000">_await</text>
</a>
</g>
</g>
<!-- Node87928&#45;&gt;Node87929 -->
<g id="edge4" class="edge">
<title>Node87928&#45;&gt;Node87929</title>
<path fill="none" stroke="#191970" d="M626.0435,-148.2953C649.9664,-156.2467 677.6469,-165.4471 700.335,-172.9881"/>
<polygon fill="#191970" stroke="#191970" points="626.9858,-144.9203 616.3923,-145.0874 624.7779,-151.5629 626.9858,-144.9203"/>
</g>
<!-- Node87931 -->
<g id="node7" class="node">
<title>Node87931</title>
<g id="a_node7"><a xlink:href="quickjs_8c.html#a5d885b4633392386983e2d76c175dee7" target="_top" xlink:title="js_async_generator\l_completed_return">
<polygon fill="none" stroke="#000000" points="695,-124 695,-154 796,-154 796,-124 695,-124"/>
<text text-anchor="start" x="703" y="-142" font-family="Helvetica,sans-Serif" font-size="10.00" fill="#000000">js_async_generator</text>
<text text-anchor="middle" x="745.5" y="-131" font-family="Helvetica,sans-Serif" font-size="10.00" fill="#000000">_completed_return</text>
</a>
</g>
</g>
<!-- Node87928&#45;&gt;Node87931 -->
<g id="edge6" class="edge">
<title>Node87928&#45;&gt;Node87931</title>
<path fill="none" stroke="#191970" d="M643.5548,-133.7421C660.8135,-134.6322 678.8621,-135.5631 694.8937,-136.3899"/>
<polygon fill="#191970" stroke="#191970" points="643.6727,-130.2436 633.5056,-133.2238 643.312,-137.2343 643.6727,-130.2436"/>
</g>
<!-- Node87930 -->
<g id="node6" class="node">
<title>Node87930</title>
<g id="a_node6"><a xlink:href="quickjs_8c.html#a89b019c704a2d2914bc30b30a72040b3" target="_top" xlink:title="js_async_generator\l_resume_next">
<polygon fill="none" stroke="#000000" points="853,-129 853,-159 954,-159 954,-129 853,-129"/>
<text text-anchor="start" x="861" y="-147" font-family="Helvetica,sans-Serif" font-size="10.00" fill="#000000">js_async_generator</text>
<text text-anchor="middle" x="903.5" y="-136" font-family="Helvetica,sans-Serif" font-size="10.00" fill="#000000">_resume_next</text>
</a>
</g>
</g>
<!-- Node87929&#45;&gt;Node87930 -->
<g id="edge5" class="edge">
<title>Node87929&#45;&gt;Node87930</title>
<path fill="none" stroke="#191970" d="M806.2798,-171.074C821.6247,-166.8007 837.9396,-162.2573 852.7334,-158.1375"/>
<polygon fill="#191970" stroke="#191970" points="805.0564,-167.7814 796.3619,-173.8359 806.9343,-174.5248 805.0564,-167.7814"/>
</g>
<!-- Node87931&#45;&gt;Node87930 -->
<g id="edge7" class="edge">
<title>Node87931&#45;&gt;Node87930</title>
<path fill="none" stroke="#191970" d="M806.7185,-140.9373C821.9353,-141.4188 838.0804,-141.9298 852.7334,-142.3935"/>
<polygon fill="#191970" stroke="#191970" points="806.4676,-137.4277 796.3619,-140.6096 806.2462,-144.4242 806.4676,-137.4277"/>
</g>
<!-- Node87934 -->
<g id="node10" class="node">
<title>Node87934</title>
<g id="a_node10"><a xlink:href="quickjs_8c.html#a28c0ccdd26317bc38d0a693f1dffe4dc" target="_top" xlink:title="js_new_promise_capability">
<polygon fill="none" stroke="#000000" points="334,-221.5 334,-240.5 468,-240.5 468,-221.5 334,-221.5"/>
<text text-anchor="middle" x="401" y="-228.5" font-family="Helvetica,sans-Serif" font-size="10.00" fill="#000000">js_new_promise_capability</text>
</a>
</g>
</g>
<!-- Node87933&#45;&gt;Node87934 -->
<g id="edge10" class="edge">
<title>Node87933&#45;&gt;Node87934</title>
<path fill="none" stroke="#191970" d="M302.603,-230.4345C313.0163,-230.4943 323.6513,-230.5555 333.8972,-230.6144"/>
<polygon fill="#191970" stroke="#191970" points="302.3062,-226.9328 292.2862,-230.3752 302.2659,-233.9327 302.3062,-226.9328"/>
</g>
<!-- Node87934&#45;&gt;Node87932 -->
<g id="edge13" class="edge">
<title>Node87934&#45;&gt;Node87932</title>
<path fill="none" stroke="#191970" d="M434.9523,-217.724C454.9237,-210.1034 480.7446,-200.5748 504,-193 514.1166,-189.7048 525.195,-186.4299 535.3786,-183.5508"/>
<polygon fill="#191970" stroke="#191970" points="433.4511,-214.5512 425.3713,-221.4045 435.9613,-221.0857 433.4511,-214.5512"/>
</g>
<!-- Node87935 -->
<g id="node11" class="node">
<title>Node87935</title>
<g id="a_node11"><a xlink:href="quickjs_8c.html#a2287eaf81466a0d408341cdae08ed673" target="_top" xlink:title="JS_NewPromiseCapability">
<polygon fill="none" stroke="#ff0000" points="504,-316.5 504,-335.5 638,-335.5 638,-316.5 504,-316.5"/>
<text text-anchor="middle" x="571" y="-323.5" font-family="Helvetica,sans-Serif" font-size="10.00" fill="#000000">JS_NewPromiseCapability</text>
</a>
</g>
</g>
<!-- Node87934&#45;&gt;Node87935 -->
<g id="edge11" class="edge">
<title>Node87934&#45;&gt;Node87935</title>
<path fill="none" stroke="#191970" d="M418.8026,-247.2905C438.3614,-264.396 471.3534,-290.9873 504,-307 511.7072,-310.7803 520.2929,-313.9251 528.677,-316.4963"/>
<polygon fill="#191970" stroke="#191970" points="421.08,-244.632 411.2828,-240.5989 416.4266,-249.8613 421.08,-244.632"/>
</g>
<!-- Node88005 -->
<g id="node12" class="node">
<title>Node88005</title>
<g id="a_node12"><a xlink:href="quickjs_8c.html#a44e36674957b179c1963f7046c049d14" target="_top" xlink:title="js_promise_race">
<polygon fill="none" stroke="#000000" points="527,-240.5 527,-259.5 615,-259.5 615,-240.5 527,-240.5"/>
<text text-anchor="middle" x="571" y="-247.5" font-family="Helvetica,sans-Serif" font-size="10.00" fill="#000000">js_promise_race</text>
</a>
</g>
</g>
<!-- Node87934&#45;&gt;Node88005 -->
<g id="edge14" class="edge">
<title>Node87934&#45;&gt;Node88005</title>
<path fill="none" stroke="#191970" d="M478.4777,-239.6593C495.1202,-241.5193 512.1504,-243.4227 526.9893,-245.0812"/>
<polygon fill="#191970" stroke="#191970" points="478.5154,-236.1418 468.1885,-238.5093 477.7378,-243.0985 478.5154,-236.1418"/>
</g>
<!-- Node88021 -->
<g id="node13" class="node">
<title>Node88021</title>
<g id="a_node13"><a xlink:href="quickjs_8c.html#a192c7bd4fc5264ccdf89e13ed5bc0dcc" target="_top" xlink:title="js_promise_resolve">
<polygon fill="none" stroke="#ff0000" points="520.5,-278.5 520.5,-297.5 621.5,-297.5 621.5,-278.5 520.5,-278.5"/>
<text text-anchor="middle" x="571" y="-285.5" font-family="Helvetica,sans-Serif" font-size="10.00" fill="#000000">js_promise_resolve</text>
</a>
</g>
</g>
<!-- Node87934&#45;&gt;Node88021 -->
<g id="edge15" class="edge">
<title>Node87934&#45;&gt;Node88021</title>
<path fill="none" stroke="#191970" d="M434.9523,-244.276C454.9237,-251.8966 480.7446,-261.4252 504,-269 514.1166,-272.2952 525.195,-275.5701 535.3786,-278.4492"/>
<polygon fill="#191970" stroke="#191970" points="435.9613,-240.9143 425.3713,-240.5955 433.4511,-247.4488 435.9613,-240.9143"/>
</g>
<!-- Node88033 -->
<g id="node16" class="node">
<title>Node88033</title>
<g id="a_node16"><a xlink:href="quickjs_8c.html#ad66faf78650b6f6217fc4327b0739ba0" target="_top" xlink:title="js_promise_then">
<polygon fill="none" stroke="#000000" points="527,-202.5 527,-221.5 615,-221.5 615,-202.5 527,-202.5"/>
<text text-anchor="middle" x="571" y="-209.5" font-family="Helvetica,sans-Serif" font-size="10.00" fill="#000000">js_promise_then</text>
</a>
</g>
</g>
<!-- Node87934&#45;&gt;Node88033 -->
<g id="edge21" class="edge">
<title>Node87934&#45;&gt;Node88033</title>
<path fill="none" stroke="#191970" d="M478.4777,-222.3407C495.1202,-220.4807 512.1504,-218.5773 526.9893,-216.9188"/>
<polygon fill="#191970" stroke="#191970" points="477.7378,-218.9015 468.1885,-223.4907 478.5154,-225.8582 477.7378,-218.9015"/>
</g>
<!-- Node87935&#45;&gt;Node87927 -->
<g id="edge12" class="edge">
<title>Node87935&#45;&gt;Node87927</title>
<path fill="none" stroke="#191970" d="M648.4924,-326C663.0892,-326 678.055,-326 691.7278,-326"/>
<polygon fill="#191970" stroke="#191970" points="648.4663,-322.5001 638.4663,-326 648.4662,-329.5001 648.4663,-322.5001"/>
</g>
<!-- Node88021&#45;&gt;Node87927 -->
<g id="edge16" class="edge">
<title>Node88021&#45;&gt;Node87927</title>
<path fill="none" stroke="#191970" d="M624.884,-299.7341C646.1625,-304.3678 670.5583,-309.6803 691.8171,-314.3097"/>
<polygon fill="#191970" stroke="#191970" points="625.5495,-296.297 615.0337,-297.589 624.06,-303.1367 625.5495,-296.297"/>
</g>
<!-- Node88021&#45;&gt;Node87929 -->
<g id="edge17" class="edge">
<title>Node88021&#45;&gt;Node87929</title>
<path fill="none" stroke="#191970" d="M623.4156,-275.1872C628.4412,-273.3517 633.3811,-271.2944 638,-269 673.5782,-251.3272 709.3094,-221.4068 729.3011,-203.2985"/>
<polygon fill="#191970" stroke="#191970" points="622.0726,-271.946 613.7072,-278.4476 624.3012,-278.5818 622.0726,-271.946"/>
</g>
<!-- Node88021&#45;&gt;Node87931 -->
<g id="edge18" class="edge">
<title>Node88021&#45;&gt;Node87931</title>
<path fill="none" stroke="#191970" d="M630.642,-274.7191C633.2717,-273.0324 635.7468,-271.1348 638,-269 673.8125,-235.07 639.222,-198.9896 674,-164 679.8403,-158.1242 687.1362,-153.6263 694.8177,-150.184"/>
<polygon fill="#191970" stroke="#191970" points="628.986,-271.6355 621.7987,-279.4198 632.2716,-277.8166 628.986,-271.6355"/>
</g>
<!-- Node88021&#45;&gt;Node88022 -->
<g id="edge19" class="edge">
<title>Node88021&#45;&gt;Node88022</title>
<path fill="none" stroke="#191970" d="M630.3601,-275.3595C633.1289,-273.5131 635.7044,-271.4053 638,-269 686.5287,-218.1511 628.313,-168.4167 674,-115 681.6619,-106.0418 692.505,-99.8156 703.4368,-95.5017"/>
<polygon fill="#191970" stroke="#191970" points="628.6691,-272.295 621.5603,-280.151 632.0165,-278.4428 628.6691,-272.295"/>
</g>
<!-- Node88022&#45;&gt;Node88023 -->
<g id="edge20" class="edge">
<title>Node88022&#45;&gt;Node88023</title>
<path fill="none" stroke="#191970" d="M827.2371,-83.4134C836.9658,-83.1055 846.6392,-82.7994 855.666,-82.5137"/>
<polygon fill="#191970" stroke="#191970" points="826.9877,-79.9194 817.1034,-83.7341 827.2091,-86.9159 826.9877,-79.9194"/>
</g>
</g>
</svg>
        <g id="navigator" transform="translate(0 0)" fill="#404254">
                <rect fill="#f2f5e9" fill-opacity="0.5" stroke="#606060" stroke-width=".5" x="0" y="0" width="60" height="60"/>
                <use id="zoomplus" xlink:href="#zoomPlus" x="17" y="9" onmousedown="handleZoom(evt,'in')"/>
                <use id="zoomminus" xlink:href="#zoomMin" x="42" y="9" onmousedown="handleZoom(evt,'out')"/>
                <use id="reset" xlink:href="#resetDef" x="30" y="36" onmousedown="handleReset()"/>
                <g id="arrowUp" xlink:href="#dirArrow" transform="translate(30 24)" onmousedown="handlePan(0,-1)">
                  <use xlink:href="#rim" fill="#404040">
                        <set attributeName="fill" to="#808080" begin="arrowUp.mouseover" end="arrowUp.mouseout"/>
                  </use>
                  <path fill="none" stroke="white" stroke-width="1.5" d="M0,-3.0v7 M-2.5,-0.5L0,-3.0L2.5,-0.5"/>
                </g>
                <g id="arrowRight" xlink:href="#dirArrow" transform="rotate(90) translate(36 -43)" onmousedown="handlePan(1,0)">
                  <use xlink:href="#rim" fill="#404040">
                        <set attributeName="fill" to="#808080" begin="arrowRight.mouseover" end="arrowRight.mouseout"/>
                  </use>
                  <path fill="none" stroke="white" stroke-width="1.5" d="M0,-3.0v7 M-2.5,-0.5L0,-3.0L2.5,-0.5"/>
                </g>
                <g id="arrowDown" xlink:href="#dirArrow" transform="rotate(180) translate(-30 -48)" onmousedown="handlePan(0,1)">
                  <use xlink:href="#rim" fill="#404040">
                        <set attributeName="fill" to="#808080" begin="arrowDown.mouseover" end="arrowDown.mouseout"/>
                  </use>
                  <path fill="none" stroke="white" stroke-width="1.5" d="M0,-3.0v7 M-2.5,-0.5L0,-3.0L2.5,-0.5"/>
                </g>
                <g id="arrowLeft" xlink:href="#dirArrow" transform="rotate(270) translate(-36 17)" onmousedown="handlePan(-1,0)">
                  <use xlink:href="#rim" fill="#404040">
                        <set attributeName="fill" to="#808080" begin="arrowLeft.mouseover" end="arrowLeft.mouseout"/>
                  </use>
                  <path fill="none" stroke="white" stroke-width="1.5" d="M0,-3.0v7 M-2.5,-0.5L0,-3.0L2.5,-0.5"/>
                </g>
        </g>
        <svg viewBox="0 0 15 15" width="100%" height="30px" preserveAspectRatio="xMaxYMin meet">
         <g id="arrow_out" transform="scale(0.3 0.3)">
          <a xlink:href="quickjs_8h_ac048b0ff95f3f0cb7c189e87f74df753_icgraph_org.svg" target="_base">
           <rect id="button" ry="5" rx="5" y="6" x="6" height="38" width="38"
                fill="#f2f5e9" fill-opacity="0.5" stroke="#606060" stroke-width="1.0"/>
           <path id="arrow"
             d="M 11.500037,31.436501 C 11.940474,20.09759 22.043105,11.32322 32.158766,21.979434 L 37.068811,17.246167 C 37.068811,17.246167 37.088388,32 37.088388,32 L 22.160133,31.978069 C 22.160133,31.978069 26.997745,27.140456 26.997745,27.140456 C 18.528582,18.264221 13.291696,25.230495 11.500037,31.436501 z"
             style="fill:#404040;"/>
          </a>
         </g>
        </svg>
</svg>
