<?xml version="1.0" encoding="UTF-8" standalone="no"?>
<!DOCTYPE svg PUBLIC "-//W3C//DTD SVG 1.1//EN"
 "http://www.w3.org/Graphics/SVG/1.1/DTD/svg11.dtd">
<!-- Generated by graphviz version 2.40.1 (20161225.0304)
 -->
<!-- Title: JS_AtomIsNumericIndex1 Pages: 1 -->
<!--zoomable 332 -->
<svg id="main" version="1.1" xmlns="http://www.w3.org/2000/svg" xmlns:xlink="http://www.w3.org/1999/xlink" xml:space="preserve" onload="init(evt)">
<style type="text/css"><![CDATA[
.edge:hover path { stroke: red; }
.edge:hover polygon { stroke: red; fill: red; }
]]></style>
<script type="text/javascript"><![CDATA[
var edges = document.getElementsByTagName('g');
if (edges && edges.length) {
  for (var i=0;i<edges.length;i++) {
    if (edges[i].id.substr(0,4)=='edge') {
      edges[i].setAttribute('class','edge');
    }
  }
}
]]></script>
        <defs>
                <circle id="rim" cx="0" cy="0" r="7"/>
                <circle id="rim2" cx="0" cy="0" r="3.5"/>
                <g id="zoomPlus">
                        <use xlink:href="#rim" fill="#404040">
                                <set attributeName="fill" to="#808080" begin="zoomplus.mouseover" end="zoomplus.mouseout"/>
                        </use>
                        <path d="M-4,0h8M0,-4v8" fill="none" stroke="white" stroke-width="1.5" pointer-events="none"/>
                </g>
                <g id="zoomMin">
                        <use xlink:href="#rim" fill="#404040">
                                <set attributeName="fill" to="#808080" begin="zoomminus.mouseover" end="zoomminus.mouseout"/>
                        </use>
                        <path d="M-4,0h8" fill="none" stroke="white" stroke-width="1.5" pointer-events="none"/>
                </g>
                <g id="dirArrow">
                        <path fill="none" stroke="white" stroke-width="1.5" d="M0,-3.0v7 M-2.5,-0.5L0,-3.0L2.5,-0.5"/>
                </g>
               <g id="resetDef">
                       <use xlink:href="#rim2" fill="#404040">
                               <set attributeName="fill" to="#808080" begin="reset.mouseover" end="reset.mouseout"/>
                       </use>
               </g>
        </defs>

<script type="text/javascript">
var viewWidth = 865;
var viewHeight = 332;
var sectionId = 'dynsection-272';
</script>
<script xlink:href="svgpan.js"/>
<svg id="graph" class="graph">
<g id="viewport">
<title>JS_AtomIsNumericIndex1</title>
<!-- Node92773 -->
<g id="node1" class="node">
<title>Node92773</title>
<polygon fill="#bfbfbf" stroke="#000000" points="0,-38.5 0,-57.5 131,-57.5 131,-38.5 0,-38.5"/>
<text text-anchor="middle" x="65.5" y="-45.5" font-family="Helvetica,sans-Serif" font-size="10.00" fill="#000000">JS_AtomIsNumericIndex1</text>
</g>
<!-- Node92774 -->
<g id="node2" class="node">
<title>Node92774</title>
<g id="a_node2"><a xlink:href="quickjs_8c.html#add3eea1f6d626963ade3c28a1fd563d1" target="_top" xlink:title="JS_AtomIsNumericIndex">
<polygon fill="none" stroke="#000000" points="167,-76.5 167,-95.5 293,-95.5 293,-76.5 167,-76.5"/>
<text text-anchor="middle" x="230" y="-83.5" font-family="Helvetica,sans-Serif" font-size="10.00" fill="#000000">JS_AtomIsNumericIndex</text>
</a>
</g>
</g>
<!-- Node92773&#45;&gt;Node92774 -->
<g id="edge1" class="edge">
<title>Node92773&#45;&gt;Node92774</title>
<path fill="none" stroke="#191970" d="M116.9975,-59.8961C140.1197,-65.2374 167.0297,-71.4537 188.7882,-76.4799"/>
<polygon fill="#191970" stroke="#191970" points="117.5415,-56.4296 107.0103,-57.589 115.9659,-63.25 117.5415,-56.4296"/>
</g>
<!-- Node92930 -->
<g id="node12" class="node">
<title>Node92930</title>
<g id="a_node12"><a xlink:href="quickjs_8c.html#ab50618f1bf78e444caa6da0e3e2785d7" target="_top" xlink:title="JS_DefineProperty">
<polygon fill="none" stroke="#ff0000" points="475,-.5 475,-19.5 574,-19.5 574,-.5 475,-.5"/>
<text text-anchor="middle" x="524.5" y="-7.5" font-family="Helvetica,sans-Serif" font-size="10.00" fill="#000000">JS_DefineProperty</text>
</a>
</g>
</g>
<!-- Node92773&#45;&gt;Node92930 -->
<g id="edge20" class="edge">
<title>Node92773&#45;&gt;Node92930</title>
<path fill="none" stroke="#191970" d="M141.3242,-41.7226C235.7641,-33.9041 394.4373,-20.7677 474.7362,-14.1199"/>
<polygon fill="#191970" stroke="#191970" points="140.9406,-38.2423 131.2635,-42.5555 141.5182,-45.2184 140.9406,-38.2423"/>
</g>
<!-- Node92775 -->
<g id="node3" class="node">
<title>Node92775</title>
<g id="a_node3"><a xlink:href="quickjs_8c.html#a5762c57ae0c9937e986040c01222833a" target="_top" xlink:title="JS_GetPropertyInternal">
<polygon fill="none" stroke="#000000" points="465,-209.5 465,-228.5 584,-228.5 584,-209.5 465,-209.5"/>
<text text-anchor="middle" x="524.5" y="-216.5" font-family="Helvetica,sans-Serif" font-size="10.00" fill="#000000">JS_GetPropertyInternal</text>
</a>
</g>
</g>
<!-- Node92774&#45;&gt;Node92775 -->
<g id="edge2" class="edge">
<title>Node92774&#45;&gt;Node92775</title>
<path fill="none" stroke="#191970" d="M253.6643,-100.9869C273.3846,-113.141 302.4396,-130.2815 329,-143 386.8055,-170.6802 457.5328,-196.222 496.0922,-209.4825"/>
<polygon fill="#191970" stroke="#191970" points="255.3842,-97.9349 245.0443,-95.6249 251.6868,-103.8788 255.3842,-97.9349"/>
</g>
<!-- Node93346 -->
<g id="node9" class="node">
<title>Node93346</title>
<g id="a_node9"><a xlink:href="quickjs_8c.html#a9d6d0a9704951d01c128975e0d2213f8" target="_top" xlink:title="JS_HasProperty">
<polygon fill="none" stroke="#ff0000" points="334.5,-114.5 334.5,-133.5 423.5,-133.5 423.5,-114.5 334.5,-114.5"/>
<text text-anchor="middle" x="379" y="-121.5" font-family="Helvetica,sans-Serif" font-size="10.00" fill="#000000">JS_HasProperty</text>
</a>
</g>
</g>
<!-- Node92774&#45;&gt;Node93346 -->
<g id="edge11" class="edge">
<title>Node92774&#45;&gt;Node93346</title>
<path fill="none" stroke="#191970" d="M277.4922,-98.1121C298.2436,-103.4044 322.2282,-109.5213 341.6714,-114.4799"/>
<polygon fill="#191970" stroke="#191970" points="278.1538,-94.6689 267.599,-95.589 276.4239,-101.4518 278.1538,-94.6689"/>
</g>
<!-- Node92907 -->
<g id="node10" class="node">
<title>Node92907</title>
<g id="a_node10"><a xlink:href="quickjs_8c.html#ad7f03358a8088ca920ab308225c6b2e6" target="_top" xlink:title="JS_SetPropertyInternal">
<polygon fill="none" stroke="#ff0000" points="620,-57.5 620,-76.5 738,-76.5 738,-57.5 620,-57.5"/>
<text text-anchor="middle" x="679" y="-64.5" font-family="Helvetica,sans-Serif" font-size="10.00" fill="#000000">JS_SetPropertyInternal</text>
</a>
</g>
</g>
<!-- Node92774&#45;&gt;Node92907 -->
<g id="edge13" class="edge">
<title>Node92774&#45;&gt;Node92907</title>
<path fill="none" stroke="#191970" d="M303.5964,-82.8857C391.9845,-79.1454 538.4856,-72.946 619.8764,-69.5019"/>
<polygon fill="#191970" stroke="#191970" points="303.2215,-79.3983 293.3784,-83.3181 303.5175,-86.3921 303.2215,-79.3983"/>
</g>
<!-- Node92967 -->
<g id="node11" class="node">
<title>Node92967</title>
<g id="a_node11"><a xlink:href="quickjs_8c.html#ad5565bb5cfd5321f181573257f3b0c91" target="_top" xlink:title="JS_CreateProperty">
<polygon fill="none" stroke="#ff0000" points="329,-38.5 329,-57.5 429,-57.5 429,-38.5 329,-38.5"/>
<text text-anchor="middle" x="379" y="-45.5" font-family="Helvetica,sans-Serif" font-size="10.00" fill="#000000">JS_CreateProperty</text>
</a>
</g>
</g>
<!-- Node92774&#45;&gt;Node92967 -->
<g id="edge15" class="edge">
<title>Node92774&#45;&gt;Node92967</title>
<path fill="none" stroke="#191970" d="M277.4922,-73.8879C298.2436,-68.5956 322.2282,-62.4787 341.6714,-57.5201"/>
<polygon fill="#191970" stroke="#191970" points="276.4239,-70.5482 267.599,-76.411 278.1538,-77.3311 276.4239,-70.5482"/>
</g>
<!-- Node92776 -->
<g id="node4" class="node">
<title>Node92776</title>
<g id="a_node4"><a xlink:href="quickjs_8h.html#a89b7c8686c7eee70b86be722ee4730ad" target="_top" xlink:title="JS_GetProperty">
<polygon fill="none" stroke="#ff0000" points="636,-304.5 636,-323.5 722,-323.5 722,-304.5 636,-304.5"/>
<text text-anchor="middle" x="679" y="-311.5" font-family="Helvetica,sans-Serif" font-size="10.00" fill="#000000">JS_GetProperty</text>
</a>
</g>
</g>
<!-- Node92775&#45;&gt;Node92776 -->
<g id="edge3" class="edge">
<title>Node92775&#45;&gt;Node92776</title>
<path fill="none" stroke="#191970" d="M543.0208,-235.003C561.5834,-250.4875 591.4312,-273.9139 620,-290 629.8283,-295.534 641.1911,-300.4681 651.3053,-304.4019"/>
<polygon fill="#191970" stroke="#191970" points="545.2276,-232.2855 535.3312,-228.5022 540.7083,-237.6312 545.2276,-232.2855"/>
</g>
<!-- Node92782 -->
<g id="node5" class="node">
<title>Node92782</title>
<g id="a_node5"><a xlink:href="quickjs_8c.html#ac2894ff4edcdb4e6841bcce9c76081e3" target="_top" xlink:title="JS_CallInternal">
<polygon fill="none" stroke="#ff0000" points="774,-171.5 774,-190.5 857,-190.5 857,-171.5 774,-171.5"/>
<text text-anchor="middle" x="815.5" y="-178.5" font-family="Helvetica,sans-Serif" font-size="10.00" fill="#000000">JS_CallInternal</text>
</a>
</g>
</g>
<!-- Node92775&#45;&gt;Node92782 -->
<g id="edge8" class="edge">
<title>Node92775&#45;&gt;Node92782</title>
<path fill="none" stroke="#191970" d="M551.545,-233.063C593.0807,-252.6482 674.4361,-282.9659 738,-257 771.3206,-243.3885 798.0615,-207.7821 809.4927,-190.5782"/>
<polygon fill="#191970" stroke="#191970" points="552.8766,-229.8188 542.3528,-228.5942 549.816,-236.1142 552.8766,-229.8188"/>
</g>
<!-- Node93382 -->
<g id="node6" class="node">
<title>Node93382</title>
<g id="a_node6"><a xlink:href="quickjs_8c.html#a0e8d8152892d3235c94ec6df17c87d13" target="_top" xlink:title="JS_GetGlobalVar">
<polygon fill="none" stroke="#000000" points="633,-228.5 633,-247.5 725,-247.5 725,-228.5 633,-228.5"/>
<text text-anchor="middle" x="679" y="-235.5" font-family="Helvetica,sans-Serif" font-size="10.00" fill="#000000">JS_GetGlobalVar</text>
</a>
</g>
</g>
<!-- Node92775&#45;&gt;Node93382 -->
<g id="edge6" class="edge">
<title>Node92775&#45;&gt;Node93382</title>
<path fill="none" stroke="#191970" d="M594.1731,-227.5682C607.2788,-229.1799 620.6781,-230.8277 632.8427,-232.3237"/>
<polygon fill="#191970" stroke="#191970" points="594.5862,-224.0927 584.2337,-226.3459 593.7317,-231.0404 594.5862,-224.0927"/>
</g>
<!-- Node93357 -->
<g id="node7" class="node">
<title>Node93357</title>
<g id="a_node7"><a xlink:href="quickjs_8c.html#a6730c3163c357445c0182c52d5a53ca4" target="_top" xlink:title="js_reflect_get">
<polygon fill="none" stroke="#000000" points="641.5,-190.5 641.5,-209.5 716.5,-209.5 716.5,-190.5 641.5,-190.5"/>
<text text-anchor="middle" x="679" y="-197.5" font-family="Helvetica,sans-Serif" font-size="10.00" fill="#000000">js_reflect_get</text>
</a>
</g>
</g>
<!-- Node92775&#45;&gt;Node93357 -->
<g id="edge9" class="edge">
<title>Node92775&#45;&gt;Node93357</title>
<path fill="none" stroke="#191970" d="M594.2381,-210.4238C610.4394,-208.4314 627.0856,-206.3843 641.29,-204.6375"/>
<polygon fill="#191970" stroke="#191970" points="593.7317,-206.9596 584.2337,-211.6541 594.5862,-213.9073 593.7317,-206.9596"/>
</g>
<!-- Node93114 -->
<g id="node8" class="node">
<title>Node93114</title>
<g id="a_node8"><a xlink:href="quickjs_8c.html#a45df491949e8e055e732eb13c446d47b" target="_top" xlink:title="js_proxy_get">
<polygon fill="none" stroke="#000000" points="643,-152.5 643,-171.5 715,-171.5 715,-152.5 643,-152.5"/>
<text text-anchor="middle" x="679" y="-159.5" font-family="Helvetica,sans-Serif" font-size="10.00" fill="#000000">js_proxy_get</text>
</a>
</g>
</g>
<!-- Node92775&#45;&gt;Node93114 -->
<g id="edge10" class="edge">
<title>Node92775&#45;&gt;Node93114</title>
<path fill="none" stroke="#191970" d="M556.8693,-205.493C575.2647,-197.9753 598.7916,-188.6247 620,-181 629.0126,-177.7599 638.8897,-174.4762 647.9408,-171.5709"/>
<polygon fill="#191970" stroke="#191970" points="555.4098,-202.3087 547.4916,-209.3481 558.0714,-208.783 555.4098,-202.3087"/>
</g>
<!-- Node92776&#45;&gt;Node92782 -->
<g id="edge4" class="edge">
<title>Node92776&#45;&gt;Node92782</title>
<path fill="none" stroke="#191970" d="M721.1369,-300.3416C727.1112,-297.4369 732.9357,-294.0083 738,-290 774.2311,-261.3235 800.9646,-211.3653 811.0731,-190.5399"/>
<polygon fill="#191970" stroke="#191970" points="719.46,-297.2554 711.7132,-304.4831 722.2764,-303.6639 719.46,-297.2554"/>
</g>
<!-- Node92782&#45;&gt;Node92782 -->
<g id="edge5" class="edge">
<title>Node92782&#45;&gt;Node92782</title>
<path fill="none" stroke="#191970" d="M790.2025,-200.0292C791.5824,-205.128 800.0149,-209 815.5,-209 839.6719,-209 846.6591,-199.5653 836.4615,-190.7571"/>
<polygon fill="#191970" stroke="#191970" points="793.4728,-201.2982 794.5385,-190.7571 787.1319,-198.3329 793.4728,-201.2982"/>
</g>
<!-- Node93382&#45;&gt;Node92782 -->
<g id="edge7" class="edge">
<title>Node93382&#45;&gt;Node92782</title>
<path fill="none" stroke="#191970" d="M721.0236,-225.2924C726.7749,-223.3138 732.5664,-221.1937 738,-219 758.9822,-210.529 782.1754,-198.8303 797.6713,-190.6588"/>
<polygon fill="#191970" stroke="#191970" points="719.8365,-221.9986 711.4528,-228.4765 722.0463,-228.6406 719.8365,-221.9986"/>
</g>
<!-- Node93346&#45;&gt;Node92782 -->
<g id="edge12" class="edge">
<title>Node93346&#45;&gt;Node92782</title>
<path fill="none" stroke="#191970" d="M433.6197,-120.1845C504.8985,-116.7147 632.928,-115.6804 738,-143 761.0598,-148.9957 785.3712,-162.2024 800.484,-171.3498"/>
<polygon fill="#191970" stroke="#191970" points="433.3286,-116.6948 423.5245,-120.711 433.6932,-123.6853 433.3286,-116.6948"/>
</g>
<!-- Node92907&#45;&gt;Node92782 -->
<g id="edge14" class="edge">
<title>Node92907&#45;&gt;Node92782</title>
<path fill="none" stroke="#191970" d="M701.7573,-82.686C712.9029,-90.5931 726.3892,-100.5003 738,-110 763.4211,-130.7991 791.4086,-157.4508 805.7857,-171.4421"/>
<polygon fill="#191970" stroke="#191970" points="703.5965,-79.7008 693.401,-76.8193 699.5743,-85.4299 703.5965,-79.7008"/>
</g>
<!-- Node92967&#45;&gt;Node92907 -->
<g id="edge19" class="edge">
<title>Node92967&#45;&gt;Node92907</title>
<path fill="none" stroke="#191970" d="M439.4015,-51.8254C491.9561,-55.1539 567.6728,-59.9493 619.8542,-63.2541"/>
<polygon fill="#191970" stroke="#191970" points="439.4145,-48.3193 429.2133,-51.1802 438.972,-55.3053 439.4145,-48.3193"/>
</g>
<!-- Node92967&#45;&gt;Node92930 -->
<g id="edge16" class="edge">
<title>Node92967&#45;&gt;Node92930</title>
<path fill="none" stroke="#191970" d="M425.6532,-35.8157C445.8534,-30.54 469.1481,-24.4562 488.0482,-19.5201"/>
<polygon fill="#191970" stroke="#191970" points="424.5068,-32.4976 415.7158,-38.411 426.2757,-39.2704 424.5068,-32.4976"/>
</g>
<!-- Node92930&#45;&gt;Node92782 -->
<g id="edge18" class="edge">
<title>Node92930&#45;&gt;Node92782</title>
<path fill="none" stroke="#191970" d="M584.3962,-7.5962C630.2663,-8.6477 693.0916,-16.635 738,-48 783.134,-79.5226 805.8134,-146.4339 812.9509,-171.3687"/>
<polygon fill="#191970" stroke="#191970" points="584.3378,-4.0953 574.2947,-7.4696 584.25,-11.0948 584.3378,-4.0953"/>
</g>
<!-- Node92930&#45;&gt;Node92907 -->
<g id="edge17" class="edge">
<title>Node92930&#45;&gt;Node92907</title>
<path fill="none" stroke="#191970" d="M559.9143,-23.0655C588.3133,-33.5428 627.5138,-48.0051 653.0558,-57.4284"/>
<polygon fill="#191970" stroke="#191970" points="560.9532,-19.7182 550.3598,-19.5405 558.5302,-26.2855 560.9532,-19.7182"/>
</g>
</g>
</svg>
        <g id="navigator" transform="translate(0 0)" fill="#404254">
                <rect fill="#f2f5e9" fill-opacity="0.5" stroke="#606060" stroke-width=".5" x="0" y="0" width="60" height="60"/>
                <use id="zoomplus" xlink:href="#zoomPlus" x="17" y="9" onmousedown="handleZoom(evt,'in')"/>
                <use id="zoomminus" xlink:href="#zoomMin" x="42" y="9" onmousedown="handleZoom(evt,'out')"/>
                <use id="reset" xlink:href="#resetDef" x="30" y="36" onmousedown="handleReset()"/>
                <g id="arrowUp" xlink:href="#dirArrow" transform="translate(30 24)" onmousedown="handlePan(0,-1)">
                  <use xlink:href="#rim" fill="#404040">
                        <set attributeName="fill" to="#808080" begin="arrowUp.mouseover" end="arrowUp.mouseout"/>
                  </use>
                  <path fill="none" stroke="white" stroke-width="1.5" d="M0,-3.0v7 M-2.5,-0.5L0,-3.0L2.5,-0.5"/>
                </g>
                <g id="arrowRight" xlink:href="#dirArrow" transform="rotate(90) translate(36 -43)" onmousedown="handlePan(1,0)">
                  <use xlink:href="#rim" fill="#404040">
                        <set attributeName="fill" to="#808080" begin="arrowRight.mouseover" end="arrowRight.mouseout"/>
                  </use>
                  <path fill="none" stroke="white" stroke-width="1.5" d="M0,-3.0v7 M-2.5,-0.5L0,-3.0L2.5,-0.5"/>
                </g>
                <g id="arrowDown" xlink:href="#dirArrow" transform="rotate(180) translate(-30 -48)" onmousedown="handlePan(0,1)">
                  <use xlink:href="#rim" fill="#404040">
                        <set attributeName="fill" to="#808080" begin="arrowDown.mouseover" end="arrowDown.mouseout"/>
                  </use>
                  <path fill="none" stroke="white" stroke-width="1.5" d="M0,-3.0v7 M-2.5,-0.5L0,-3.0L2.5,-0.5"/>
                </g>
                <g id="arrowLeft" xlink:href="#dirArrow" transform="rotate(270) translate(-36 17)" onmousedown="handlePan(-1,0)">
                  <use xlink:href="#rim" fill="#404040">
                        <set attributeName="fill" to="#808080" begin="arrowLeft.mouseover" end="arrowLeft.mouseout"/>
                  </use>
                  <path fill="none" stroke="white" stroke-width="1.5" d="M0,-3.0v7 M-2.5,-0.5L0,-3.0L2.5,-0.5"/>
                </g>
        </g>
        <svg viewBox="0 0 15 15" width="100%" height="30px" preserveAspectRatio="xMaxYMin meet">
         <g id="arrow_out" transform="scale(0.3 0.3)">
          <a xlink:href="quickjs_8c_ab4e100a9cde5f7ec87c92f5e766dbbab_icgraph_org.svg" target="_base">
           <rect id="button" ry="5" rx="5" y="6" x="6" height="38" width="38"
                fill="#f2f5e9" fill-opacity="0.5" stroke="#606060" stroke-width="1.0"/>
           <path id="arrow"
             d="M 11.500037,31.436501 C 11.940474,20.09759 22.043105,11.32322 32.158766,21.979434 L 37.068811,17.246167 C 37.068811,17.246167 37.088388,32 37.088388,32 L 22.160133,31.978069 C 22.160133,31.978069 26.997745,27.140456 26.997745,27.140456 C 18.528582,18.264221 13.291696,25.230495 11.500037,31.436501 z"
             style="fill:#404040;"/>
          </a>
         </g>
        </svg>
</svg>
