<?xml version="1.0" encoding="UTF-8" standalone="no"?>
<!DOCTYPE svg PUBLIC "-//W3C//DTD SVG 1.1//EN"
 "http://www.w3.org/Graphics/SVG/1.1/DTD/svg11.dtd">
<!-- Generated by graphviz version 2.40.1 (20161225.0304)
 -->
<!-- Title: JS_IsUncatchableError Pages: 1 -->
<!--zoomable 1013 -->
<svg id="main" version="1.1" xmlns="http://www.w3.org/2000/svg" xmlns:xlink="http://www.w3.org/1999/xlink" xml:space="preserve" onload="init(evt)">
<style type="text/css"><![CDATA[
.edge:hover path { stroke: red; }
.edge:hover polygon { stroke: red; fill: red; }
]]></style>
<script type="text/javascript"><![CDATA[
var edges = document.getElementsByTagName('g');
if (edges && edges.length) {
  for (var i=0;i<edges.length;i++) {
    if (edges[i].id.substr(0,4)=='edge') {
      edges[i].setAttribute('class','edge');
    }
  }
}
]]></script>
        <defs>
                <circle id="rim" cx="0" cy="0" r="7"/>
                <circle id="rim2" cx="0" cy="0" r="3.5"/>
                <g id="zoomPlus">
                        <use xlink:href="#rim" fill="#404040">
                                <set attributeName="fill" to="#808080" begin="zoomplus.mouseover" end="zoomplus.mouseout"/>
                        </use>
                        <path d="M-4,0h8M0,-4v8" fill="none" stroke="white" stroke-width="1.5" pointer-events="none"/>
                </g>
                <g id="zoomMin">
                        <use xlink:href="#rim" fill="#404040">
                                <set attributeName="fill" to="#808080" begin="zoomminus.mouseover" end="zoomminus.mouseout"/>
                        </use>
                        <path d="M-4,0h8" fill="none" stroke="white" stroke-width="1.5" pointer-events="none"/>
                </g>
                <g id="dirArrow">
                        <path fill="none" stroke="white" stroke-width="1.5" d="M0,-3.0v7 M-2.5,-0.5L0,-3.0L2.5,-0.5"/>
                </g>
               <g id="resetDef">
                       <use xlink:href="#rim2" fill="#404040">
                               <set attributeName="fill" to="#808080" begin="reset.mouseover" end="reset.mouseout"/>
                       </use>
               </g>
        </defs>

<script type="text/javascript">
var viewWidth = 584;
var viewHeight = 1013;
var sectionId = 'dynsection-654';
</script>
<script xlink:href="svgpan.js"/>
<svg id="graph" class="graph">
<g id="viewport">
<title>JS_IsUncatchableError</title>
<!-- Node228395 -->
<g id="node1" class="node">
<title>Node228395</title>
<polygon fill="#bfbfbf" stroke="#000000" points="0,-274.5 0,-293.5 118,-293.5 118,-274.5 0,-274.5"/>
<text text-anchor="middle" x="59" y="-281.5" font-family="Helvetica,sans-Serif" font-size="10.00" fill="#000000">JS_IsUncatchableError</text>
</g>
<!-- Node228396 -->
<g id="node2" class="node">
<title>Node228396</title>
<g id="a_node2"><a xlink:href="quickjs_8c.html#ac2894ff4edcdb4e6841bcce9c76081e3" target="_top" xlink:title="JS_CallInternal">
<polygon fill="none" stroke="#000000" points="154,-274.5 154,-293.5 237,-293.5 237,-274.5 154,-274.5"/>
<text text-anchor="middle" x="195.5" y="-281.5" font-family="Helvetica,sans-Serif" font-size="10.00" fill="#000000">JS_CallInternal</text>
</a>
</g>
</g>
<!-- Node228395&#45;&gt;Node228396 -->
<g id="edge1" class="edge">
<title>Node228395&#45;&gt;Node228396</title>
<path fill="none" stroke="#191970" d="M128.2261,-284C136.892,-284 145.5369,-284 153.6019,-284"/>
<polygon fill="#191970" stroke="#191970" points="128.077,-280.5001 118.077,-284 128.077,-287.5001 128.077,-280.5001"/>
</g>
<!-- Node228396&#45;&gt;Node228396 -->
<g id="edge40" class="edge">
<title>Node228396&#45;&gt;Node228396</title>
<path fill="none" stroke="#191970" d="M170.2025,-303.0292C171.5824,-308.128 180.0149,-312 195.5,-312 219.6719,-312 226.6591,-302.5653 216.4615,-293.7571"/>
<polygon fill="#191970" stroke="#191970" points="173.4728,-304.2982 174.5385,-293.7571 167.1319,-301.3329 173.4728,-304.2982"/>
</g>
<!-- Node228397 -->
<g id="node3" class="node">
<title>Node228397</title>
<g id="a_node3"><a xlink:href="quickjs_8c.html#ade71a22dc56e7371392393df663b28b3" target="_top" xlink:title="async_func_resume">
<polygon fill="none" stroke="#000000" points="288,-892.5 288,-911.5 392,-911.5 392,-892.5 288,-892.5"/>
<text text-anchor="middle" x="340" y="-899.5" font-family="Helvetica,sans-Serif" font-size="10.00" fill="#000000">async_func_resume</text>
</a>
</g>
</g>
<!-- Node228396&#45;&gt;Node228397 -->
<g id="edge2" class="edge">
<title>Node228396&#45;&gt;Node228397</title>
<path fill="none" stroke="#191970" d="M200.0805,-303.5901C222.6381,-400.0646 321.4849,-822.8142 337.7352,-892.3141"/>
<polygon fill="#191970" stroke="#191970" points="203.4547,-302.6478 197.7697,-293.7073 196.6385,-304.2416 203.4547,-302.6478"/>
</g>
<!-- Node228416 -->
<g id="node8" class="node">
<title>Node228416</title>
<g id="a_node8"><a xlink:href="quickjs_8c.html#a1a4c02a29525d5cb2085dd8bca3af350" target="_top" xlink:title="JS_Call">
<polygon fill="none" stroke="#ff0000" points="314.5,-366.5 314.5,-385.5 365.5,-385.5 365.5,-366.5 314.5,-366.5"/>
<text text-anchor="middle" x="340" y="-373.5" font-family="Helvetica,sans-Serif" font-size="10.00" fill="#000000">JS_Call</text>
</a>
</g>
</g>
<!-- Node228396&#45;&gt;Node228416 -->
<g id="edge7" class="edge">
<title>Node228396&#45;&gt;Node228416</title>
<path fill="none" stroke="#191970" d="M227.5346,-298.6777C260.4699,-317.7532 309.7662,-349.8516 330.3895,-366.3007"/>
<polygon fill="#191970" stroke="#191970" points="229.1399,-295.5643 218.7164,-293.6666 225.6814,-301.6503 229.1399,-295.5643"/>
</g>
<!-- Node228502 -->
<g id="node29" class="node">
<title>Node228502</title>
<g id="a_node29"><a xlink:href="quickjs_8c.html#ad35594576a14c10812efaf958c99af8a" target="_top" xlink:title="JS_CallConstructorInternal">
<polygon fill="none" stroke="#ff0000" points="273,-274.5 273,-293.5 407,-293.5 407,-274.5 273,-274.5"/>
<text text-anchor="middle" x="340" y="-281.5" font-family="Helvetica,sans-Serif" font-size="10.00" fill="#000000">JS_CallConstructorInternal</text>
</a>
</g>
</g>
<!-- Node228396&#45;&gt;Node228502 -->
<g id="edge34" class="edge">
<title>Node228396&#45;&gt;Node228502</title>
<path fill="none" stroke="#191970" d="M247.5209,-277.4909C255.7845,-277.2892 264.4321,-277.2142 272.9815,-277.2658"/>
<polygon fill="#191970" stroke="#191970" points="247.1798,-273.9998 237.2954,-277.814 247.401,-280.9963 247.1798,-273.9998"/>
</g>
<!-- Node228516 -->
<g id="node30" class="node">
<title>Node228516</title>
<g id="a_node30"><a xlink:href="quickjs_8c.html#a75f6ee5e4235a7dc99889f3d2eb2c147" target="_top" xlink:title="JS_CallFree">
<polygon fill="none" stroke="#ff0000" points="304.5,-91.5 304.5,-110.5 375.5,-110.5 375.5,-91.5 304.5,-91.5"/>
<text text-anchor="middle" x="340" y="-98.5" font-family="Helvetica,sans-Serif" font-size="10.00" fill="#000000">JS_CallFree</text>
</a>
</g>
</g>
<!-- Node228396&#45;&gt;Node228516 -->
<g id="edge36" class="edge">
<title>Node228396&#45;&gt;Node228516</title>
<path fill="none" stroke="#191970" d="M198.7023,-264.4197C206.2042,-229.2158 227.8044,-156.4964 273,-116 281.742,-108.167 293.2224,-102.8425 304.2049,-99.7033"/>
<polygon fill="#191970" stroke="#191970" points="195.2265,-263.9582 196.75,-274.4429 202.0974,-265.2965 195.2265,-263.9582"/>
</g>
<!-- Node228398 -->
<g id="node4" class="node">
<title>Node228398</title>
<g id="a_node4"><a xlink:href="quickjs_8c.html#ac90552b1f1659acb3dae9a4c62479a30" target="_top" xlink:title="js_generator_function_call">
<polygon fill="none" stroke="#ff0000" points="444.5,-985.5 444.5,-1004.5 574.5,-1004.5 574.5,-985.5 444.5,-985.5"/>
<text text-anchor="middle" x="509.5" y="-992.5" font-family="Helvetica,sans-Serif" font-size="10.00" fill="#000000">js_generator_function_call</text>
</a>
</g>
</g>
<!-- Node228397&#45;&gt;Node228398 -->
<g id="edge3" class="edge">
<title>Node228397&#45;&gt;Node228398</title>
<path fill="none" stroke="#191970" d="M358.4671,-918.3133C378.1641,-934.9499 410.8865,-960.4617 443,-976 450.782,-979.7654 459.4469,-982.9157 467.8825,-985.499"/>
<polygon fill="#191970" stroke="#191970" points="360.488,-915.4351 350.6226,-911.5717 355.9255,-920.7439 360.488,-915.4351"/>
</g>
<!-- Node228407 -->
<g id="node5" class="node">
<title>Node228407</title>
<g id="a_node5"><a xlink:href="quickjs_8c.html#a1bf6b62983e8fff99c0a5d5a9f486115" target="_top" xlink:title="js_async_function_resume">
<polygon fill="none" stroke="#ff0000" points="443,-848.5 443,-867.5 576,-867.5 576,-848.5 443,-848.5"/>
<text text-anchor="middle" x="509.5" y="-855.5" font-family="Helvetica,sans-Serif" font-size="10.00" fill="#000000">js_async_function_resume</text>
</a>
</g>
</g>
<!-- Node228397&#45;&gt;Node228407 -->
<g id="edge4" class="edge">
<title>Node228397&#45;&gt;Node228407</title>
<path fill="none" stroke="#191970" d="M386.4651,-889.9383C413.6496,-882.8815 447.4877,-874.0976 472.7928,-867.5287"/>
<polygon fill="#191970" stroke="#191970" points="385.5787,-886.5523 376.779,-892.4527 387.3376,-893.3277 385.5787,-886.5523"/>
</g>
<!-- Node228414 -->
<g id="node6" class="node">
<title>Node228414</title>
<g id="a_node6"><a xlink:href="quickjs_8c.html#a89b019c704a2d2914bc30b30a72040b3" target="_top" xlink:title="js_async_generator\l_resume_next">
<polygon fill="none" stroke="#000000" points="459,-936 459,-966 560,-966 560,-936 459,-936"/>
<text text-anchor="start" x="467" y="-954" font-family="Helvetica,sans-Serif" font-size="10.00" fill="#000000">js_async_generator</text>
<text text-anchor="middle" x="509.5" y="-943" font-family="Helvetica,sans-Serif" font-size="10.00" fill="#000000">_resume_next</text>
</a>
</g>
</g>
<!-- Node228397&#45;&gt;Node228414 -->
<g id="edge5" class="edge">
<title>Node228397&#45;&gt;Node228414</title>
<path fill="none" stroke="#191970" d="M382.9372,-914.4125C406.0226,-921.0862 434.6309,-929.3564 458.805,-936.3448"/>
<polygon fill="#191970" stroke="#191970" points="383.6623,-910.9789 373.0837,-911.564 381.7183,-917.7036 383.6623,-910.9789"/>
</g>
<!-- Node228415 -->
<g id="node7" class="node">
<title>Node228415</title>
<g id="a_node7"><a xlink:href="quickjs_8c.html#ae19867da709929c072f05e90301835a4" target="_top" xlink:title="js_async_generator\l_function_call">
<polygon fill="none" stroke="#ff0000" points="459,-887 459,-917 560,-917 560,-887 459,-887"/>
<text text-anchor="start" x="467" y="-905" font-family="Helvetica,sans-Serif" font-size="10.00" fill="#000000">js_async_generator</text>
<text text-anchor="middle" x="509.5" y="-894" font-family="Helvetica,sans-Serif" font-size="10.00" fill="#000000">_function_call</text>
</a>
</g>
</g>
<!-- Node228397&#45;&gt;Node228415 -->
<g id="edge6" class="edge">
<title>Node228397&#45;&gt;Node228415</title>
<path fill="none" stroke="#191970" d="M402.388,-902C420.9885,-902 441.1368,-902 458.8866,-902"/>
<polygon fill="#191970" stroke="#191970" points="402.2387,-898.5001 392.2387,-902 402.2386,-905.5001 402.2387,-898.5001"/>
</g>
<!-- Node228416&#45;&gt;Node228396 -->
<g id="edge14" class="edge">
<title>Node228416&#45;&gt;Node228396</title>
<path fill="none" stroke="#191970" d="M308.2443,-361.4837C275.24,-342.3885 225.5848,-310.0599 204.981,-293.5959"/>
<polygon fill="#191970" stroke="#191970" points="306.649,-364.6027 317.0736,-366.4945 310.104,-358.5148 306.649,-364.6027"/>
</g>
<!-- Node228416&#45;&gt;Node228407 -->
<g id="edge15" class="edge">
<title>Node228416&#45;&gt;Node228407</title>
<path fill="none" stroke="#191970" d="M341.7375,-395.7477C349.14,-475.5029 380.5618,-772.7381 443,-839 446.6232,-842.845 450.9653,-845.9296 455.6723,-848.4016"/>
<polygon fill="#191970" stroke="#191970" points="345.2073,-395.2551 340.8188,-385.6119 338.2359,-395.8871 345.2073,-395.2551"/>
</g>
<!-- Node228417 -->
<g id="node9" class="node">
<title>Node228417</title>
<g id="a_node9"><a xlink:href="structqjs_1_1js__traits_3_01std_1_1function_3_01R_07Args_8_8_8_08_4_01_4.html#ac449e51d3fe10c6c115596fa6ec278ee" target="_top" xlink:title="qjs::js_traits\&lt; std\l::function\&lt; R(Args...)\l\&gt; \&gt;::unwrap">
<polygon fill="none" stroke="#000000" points="455,-600.5 455,-641.5 564,-641.5 564,-600.5 455,-600.5"/>
<text text-anchor="start" x="463" y="-629.5" font-family="Helvetica,sans-Serif" font-size="10.00" fill="#000000">qjs::js_traits&lt; std</text>
<text text-anchor="start" x="463" y="-618.5" font-family="Helvetica,sans-Serif" font-size="10.00" fill="#000000">::function&lt; R(Args...)</text>
<text text-anchor="middle" x="509.5" y="-607.5" font-family="Helvetica,sans-Serif" font-size="10.00" fill="#000000">&gt; &gt;::unwrap</text>
</a>
</g>
</g>
<!-- Node228416&#45;&gt;Node228417 -->
<g id="edge8" class="edge">
<title>Node228416&#45;&gt;Node228417</title>
<path fill="none" stroke="#191970" d="M344.4623,-395.375C354.8697,-436.57 384.4328,-533.763 443,-591 446.5327,-594.4525 450.5324,-597.5493 454.7748,-600.3186"/>
<polygon fill="#191970" stroke="#191970" points="347.8332,-394.4238 342.0752,-385.5302 341.0303,-396.0734 347.8332,-394.4238"/>
</g>
<!-- Node228418 -->
<g id="node10" class="node">
<title>Node228418</title>
<g id="a_node10"><a xlink:href="quickjs-libc_8c.html#abb1cbe3fdf905e81f603a3a0bfce475a" target="_top" xlink:title="call_handler">
<polygon fill="none" stroke="#000000" points="475.5,-562.5 475.5,-581.5 543.5,-581.5 543.5,-562.5 475.5,-562.5"/>
<text text-anchor="middle" x="509.5" y="-569.5" font-family="Helvetica,sans-Serif" font-size="10.00" fill="#000000">call_handler</text>
</a>
</g>
</g>
<!-- Node228416&#45;&gt;Node228418 -->
<g id="edge9" class="edge">
<title>Node228416&#45;&gt;Node228418</title>
<path fill="none" stroke="#191970" d="M345.9669,-395.7267C358.0804,-432.3807 389.0815,-511.0638 443,-553 452.2883,-560.2242 464.2106,-564.7017 475.3889,-567.4768"/>
<polygon fill="#191970" stroke="#191970" points="349.173,-394.2588 342.8095,-385.7879 342.5016,-396.3783 349.173,-394.2588"/>
</g>
<!-- Node228419 -->
<g id="node11" class="node">
<title>Node228419</title>
<g id="a_node11"><a xlink:href="quickjs-libc_8c.html#a9fa4c190ba56314c7ed9b00bbc7ad0f9" target="_top" xlink:title="handle_posted_message">
<polygon fill="none" stroke="#000000" points="447,-524.5 447,-543.5 572,-543.5 572,-524.5 447,-524.5"/>
<text text-anchor="middle" x="509.5" y="-531.5" font-family="Helvetica,sans-Serif" font-size="10.00" fill="#000000">handle_posted_message</text>
</a>
</g>
</g>
<!-- Node228416&#45;&gt;Node228419 -->
<g id="edge10" class="edge">
<title>Node228416&#45;&gt;Node228419</title>
<path fill="none" stroke="#191970" d="M348.8132,-394.8068C363.8433,-424.8129 397.3,-483.3519 443,-515 448.6266,-518.8965 455.0444,-521.9998 461.6221,-524.4699"/>
<polygon fill="#191970" stroke="#191970" points="351.9551,-393.2643 344.4314,-385.8048 345.6611,-396.328 351.9551,-393.2643"/>
</g>
<!-- Node228420 -->
<g id="node12" class="node">
<title>Node228420</title>
<g id="a_node12"><a xlink:href="quickjs_8c.html#aa049793cc8648d35fe81876a2543ca4e" target="_top" xlink:title="JS_GetIterator2">
<polygon fill="none" stroke="#ff0000" points="466.5,-486.5 466.5,-505.5 552.5,-505.5 552.5,-486.5 466.5,-486.5"/>
<text text-anchor="middle" x="509.5" y="-493.5" font-family="Helvetica,sans-Serif" font-size="10.00" fill="#000000">JS_GetIterator2</text>
</a>
</g>
</g>
<!-- Node228416&#45;&gt;Node228420 -->
<g id="edge11" class="edge">
<title>Node228416&#45;&gt;Node228420</title>
<path fill="none" stroke="#191970" d="M353.3664,-393.7373C371.3204,-416.3395 405.3525,-455.0958 443,-477 450.161,-481.1665 458.2929,-484.4672 466.3519,-487.0663"/>
<polygon fill="#191970" stroke="#191970" points="355.9953,-391.4163 347.0957,-385.6676 350.4679,-395.7114 355.9953,-391.4163"/>
</g>
<!-- Node228452 -->
<g id="node13" class="node">
<title>Node228452</title>
<g id="a_node13"><a xlink:href="quickjs_8c.html#ad6303fbd3add4afa0cb64b0aa6d431ce" target="_top" xlink:title="JS_IteratorNext2">
<polygon fill="none" stroke="#ff0000" points="464,-448.5 464,-467.5 555,-467.5 555,-448.5 464,-448.5"/>
<text text-anchor="middle" x="509.5" y="-455.5" font-family="Helvetica,sans-Serif" font-size="10.00" fill="#000000">JS_IteratorNext2</text>
</a>
</g>
</g>
<!-- Node228416&#45;&gt;Node228452 -->
<g id="edge12" class="edge">
<title>Node228416&#45;&gt;Node228452</title>
<path fill="none" stroke="#191970" d="M361.4657,-391.5216C381.6737,-405.5409 413.2058,-425.922 443,-439 451.3559,-442.6678 460.6114,-445.8323 469.496,-448.4693"/>
<polygon fill="#191970" stroke="#191970" points="363.2159,-388.4733 353.0246,-385.577 359.1853,-394.1965 363.2159,-388.4733"/>
</g>
<!-- Node228456 -->
<g id="node14" class="node">
<title>Node228456</title>
<g id="a_node14"><a xlink:href="quickjs_8c.html#afd4ef2d701fa0702f321925b61c57bbf" target="_top" xlink:title="js_call_bound_function">
<polygon fill="none" stroke="#ff0000" points="451.5,-410.5 451.5,-429.5 567.5,-429.5 567.5,-410.5 451.5,-410.5"/>
<text text-anchor="middle" x="509.5" y="-417.5" font-family="Helvetica,sans-Serif" font-size="10.00" fill="#000000">js_call_bound_function</text>
</a>
</g>
</g>
<!-- Node228416&#45;&gt;Node228456 -->
<g id="edge13" class="edge">
<title>Node228416&#45;&gt;Node228456</title>
<path fill="none" stroke="#191970" d="M375.6969,-385.2665C404.2137,-392.669 444.0299,-403.0048 472.8058,-410.4747"/>
<polygon fill="#191970" stroke="#191970" points="376.302,-381.8076 365.7434,-382.6827 374.5432,-388.583 376.302,-381.8076"/>
</g>
<!-- Node228457 -->
<g id="node15" class="node">
<title>Node228457</title>
<g id="a_node15"><a xlink:href="quickjs_8c.html#a3e852026d167fa03c673f86697dd3e67" target="_top" xlink:title="js_async_generator\l_resolve_or_reject">
<polygon fill="none" stroke="#ff0000" points="459,-361 459,-391 560,-391 560,-361 459,-361"/>
<text text-anchor="start" x="467" y="-379" font-family="Helvetica,sans-Serif" font-size="10.00" fill="#000000">js_async_generator</text>
<text text-anchor="middle" x="509.5" y="-368" font-family="Helvetica,sans-Serif" font-size="10.00" fill="#000000">_resolve_or_reject</text>
</a>
</g>
</g>
<!-- Node228416&#45;&gt;Node228457 -->
<g id="edge16" class="edge">
<title>Node228416&#45;&gt;Node228457</title>
<path fill="none" stroke="#191970" d="M375.8847,-376C400.0145,-376 432.1716,-376 458.8919,-376"/>
<polygon fill="#191970" stroke="#191970" points="375.7434,-372.5001 365.7434,-376 375.7434,-379.5001 375.7434,-372.5001"/>
</g>
<!-- Node228460 -->
<g id="node16" class="node">
<title>Node228460</title>
<g id="a_node16"><a xlink:href="quickjs_8c.html#a2355fabf91f59212ea65baba1b0b7c1b" target="_top" xlink:title="js_async_generator_next">
<polygon fill="none" stroke="#000000" points="447,-322.5 447,-341.5 572,-341.5 572,-322.5 447,-322.5"/>
<text text-anchor="middle" x="509.5" y="-329.5" font-family="Helvetica,sans-Serif" font-size="10.00" fill="#000000">js_async_generator_next</text>
</a>
</g>
</g>
<!-- Node228416&#45;&gt;Node228460 -->
<g id="edge17" class="edge">
<title>Node228416&#45;&gt;Node228460</title>
<path fill="none" stroke="#191970" d="M375.6969,-366.7335C404.2137,-359.331 444.0299,-348.9952 472.8058,-341.5253"/>
<polygon fill="#191970" stroke="#191970" points="374.5432,-363.417 365.7434,-369.3173 376.302,-370.1924 374.5432,-363.417"/>
</g>
<!-- Node228461 -->
<g id="node17" class="node">
<title>Node228461</title>
<g id="a_node17"><a xlink:href="quickjs_8c.html#adc0280beaa04d2b8fcaf05a82ab26c74" target="_top" xlink:title="js_link_module">
<polygon fill="none" stroke="#ff0000" points="469,-266.5 469,-285.5 550,-285.5 550,-266.5 469,-266.5"/>
<text text-anchor="middle" x="509.5" y="-273.5" font-family="Helvetica,sans-Serif" font-size="10.00" fill="#000000">js_link_module</text>
</a>
</g>
</g>
<!-- Node228416&#45;&gt;Node228461 -->
<g id="edge18" class="edge">
<title>Node228416&#45;&gt;Node228461</title>
<path fill="none" stroke="#191970" d="M363.7375,-361.0979C384.5068,-348.1514 415.5605,-329.0161 443,-313 459.4309,-303.4095 478.4181,-292.9013 491.8868,-285.5423"/>
<polygon fill="#191970" stroke="#191970" points="361.8638,-358.1416 355.2377,-366.4087 365.573,-364.0781 361.8638,-358.1416"/>
</g>
<!-- Node228465 -->
<g id="node18" class="node">
<title>Node228465</title>
<g id="a_node18"><a xlink:href="quickjs_8c.html#a6357b7fdae71c70c140e78e6c20cb5c2" target="_top" xlink:title="js_dynamic_import_job">
<polygon fill="none" stroke="#ff0000" points="451.5,-228.5 451.5,-247.5 567.5,-247.5 567.5,-228.5 451.5,-228.5"/>
<text text-anchor="middle" x="509.5" y="-235.5" font-family="Helvetica,sans-Serif" font-size="10.00" fill="#000000">js_dynamic_import_job</text>
</a>
</g>
</g>
<!-- Node228416&#45;&gt;Node228465 -->
<g id="edge20" class="edge">
<title>Node228416&#45;&gt;Node228465</title>
<path fill="none" stroke="#191970" d="M356.313,-358.9947C370.127,-344.4148 390.2908,-322.7052 407,-303 423.7901,-283.1993 421.4645,-271.4981 443,-257 448.777,-253.1108 455.3497,-250.0087 462.0612,-247.5365"/>
<polygon fill="#191970" stroke="#191970" points="353.7152,-356.6475 349.3541,-366.3032 358.7847,-361.4745 353.7152,-356.6475"/>
</g>
<!-- Node228469 -->
<g id="node19" class="node">
<title>Node228469</title>
<g id="a_node19"><a xlink:href="quickjs_8c.html#a8d4b24969540aff427939eeda47f451d" target="_top" xlink:title="js_function_apply">
<polygon fill="none" stroke="#ff0000" points="463.5,-76.5 463.5,-95.5 555.5,-95.5 555.5,-76.5 463.5,-76.5"/>
<text text-anchor="middle" x="509.5" y="-83.5" font-family="Helvetica,sans-Serif" font-size="10.00" fill="#000000">js_function_apply</text>
</a>
</g>
</g>
<!-- Node228416&#45;&gt;Node228469 -->
<g id="edge21" class="edge">
<title>Node228416&#45;&gt;Node228469</title>
<path fill="none" stroke="#191970" d="M360.299,-359.5976C375.6111,-346.0634 395.8252,-325.4865 407,-303 446.8049,-222.9027 382.9429,-171.2808 443,-105 448.4824,-98.9495 455.7442,-94.7728 463.4534,-91.9012"/>
<polygon fill="#191970" stroke="#191970" points="357.7143,-357.2024 352.3852,-366.3594 362.2616,-362.5243 357.7143,-357.2024"/>
</g>
<!-- Node228472 -->
<g id="node20" class="node">
<title>Node228472</title>
<g id="a_node20"><a xlink:href="quickjs_8c.html#a677ad630a103e1f3d5129e0549112b50" target="_top" xlink:title="js_function_call">
<polygon fill="none" stroke="#000000" points="467.5,-190.5 467.5,-209.5 551.5,-209.5 551.5,-190.5 467.5,-190.5"/>
<text text-anchor="middle" x="509.5" y="-197.5" font-family="Helvetica,sans-Serif" font-size="10.00" fill="#000000">js_function_call</text>
</a>
</g>
</g>
<!-- Node228416&#45;&gt;Node228472 -->
<g id="edge23" class="edge">
<title>Node228416&#45;&gt;Node228472</title>
<path fill="none" stroke="#191970" d="M358.436,-359.3048C373.0412,-345.3428 393.2135,-324.3334 407,-303 429.0459,-268.8861 412.5199,-245.8467 443,-219 449.8479,-212.9684 458.4908,-208.8435 467.2594,-206.0248"/>
<polygon fill="#191970" stroke="#191970" points="355.8788,-356.9044 350.9706,-366.2938 360.6628,-362.0145 355.8788,-356.9044"/>
</g>
<!-- Node228423 -->
<g id="node21" class="node">
<title>Node228423</title>
<g id="a_node21"><a xlink:href="quickjs_8c.html#a5e32da9a43002cb96dcbd62a1a340144" target="_top" xlink:title="js_array_from">
<polygon fill="none" stroke="#000000" points="471.5,-152.5 471.5,-171.5 547.5,-171.5 547.5,-152.5 471.5,-152.5"/>
<text text-anchor="middle" x="509.5" y="-159.5" font-family="Helvetica,sans-Serif" font-size="10.00" fill="#000000">js_array_from</text>
</a>
</g>
</g>
<!-- Node228416&#45;&gt;Node228423 -->
<g id="edge24" class="edge">
<title>Node228416&#45;&gt;Node228423</title>
<path fill="none" stroke="#191970" d="M359.3822,-359.4856C374.3583,-345.7604 394.5663,-324.9826 407,-303 434.8326,-253.7923 402.8524,-220.8023 443,-181 450.589,-173.4763 460.9387,-168.8875 471.2124,-166.1023"/>
<polygon fill="#191970" stroke="#191970" points="356.8193,-357.0814 351.683,-366.348 361.477,-362.307 356.8193,-357.0814"/>
</g>
<!-- Node228449 -->
<g id="node22" class="node">
<title>Node228449</title>
<g id="a_node22"><a xlink:href="quickjs_8c.html#aa0bbf08a7e91459c68a312fba7016c6d" target="_top" xlink:title="js_array_every">
<polygon fill="none" stroke="#000000" points="469.5,-114.5 469.5,-133.5 549.5,-133.5 549.5,-114.5 469.5,-114.5"/>
<text text-anchor="middle" x="509.5" y="-121.5" font-family="Helvetica,sans-Serif" font-size="10.00" fill="#000000">js_array_every</text>
</a>
</g>
</g>
<!-- Node228416&#45;&gt;Node228449 -->
<g id="edge25" class="edge">
<title>Node228416&#45;&gt;Node228449</title>
<path fill="none" stroke="#191970" d="M359.7794,-359.7018C374.9792,-346.0983 395.2942,-325.3786 407,-303 440.784,-238.4134 392.949,-195.9876 443,-143 449.9258,-135.6678 459.4663,-131.1018 469.16,-128.2759"/>
<polygon fill="#191970" stroke="#191970" points="357.2106,-357.2967 351.9485,-366.4925 361.7966,-362.5852 357.2106,-357.2967"/>
</g>
<!-- Node228473 -->
<g id="node23" class="node">
<title>Node228473</title>
<g id="a_node23"><a xlink:href="quickjs_8c.html#a36c1692489542a86dd79a7d39ab8ff95" target="_top" xlink:title="js_array_reduce">
<polygon fill="none" stroke="#000000" points="466.5,-810.5 466.5,-829.5 552.5,-829.5 552.5,-810.5 466.5,-810.5"/>
<text text-anchor="middle" x="509.5" y="-817.5" font-family="Helvetica,sans-Serif" font-size="10.00" fill="#000000">js_array_reduce</text>
</a>
</g>
</g>
<!-- Node228416&#45;&gt;Node228473 -->
<g id="edge26" class="edge">
<title>Node228416&#45;&gt;Node228473</title>
<path fill="none" stroke="#191970" d="M342.1388,-395.5625C350.751,-470.8717 385.2298,-740.8395 443,-801 449.3206,-807.5821 457.7493,-811.9306 466.4773,-814.7916"/>
<polygon fill="#191970" stroke="#191970" points="345.6096,-395.106 341.0173,-385.5582 338.6532,-395.8859 345.6096,-395.106"/>
</g>
<!-- Node228474 -->
<g id="node24" class="node">
<title>Node228474</title>
<g id="a_node24"><a xlink:href="quickjs_8c.html#a9dd41b086da4e13b3487cc9c6e2af2b8" target="_top" xlink:title="js_array_find">
<polygon fill="none" stroke="#000000" points="473.5,-772.5 473.5,-791.5 545.5,-791.5 545.5,-772.5 473.5,-772.5"/>
<text text-anchor="middle" x="509.5" y="-779.5" font-family="Helvetica,sans-Serif" font-size="10.00" fill="#000000">js_array_find</text>
</a>
</g>
</g>
<!-- Node228416&#45;&gt;Node228474 -->
<g id="edge27" class="edge">
<title>Node228416&#45;&gt;Node228474</title>
<path fill="none" stroke="#191970" d="M342.7077,-396.0667C352.7518,-467.6506 390.0488,-709.0773 443,-763 450.9922,-771.1388 462.2104,-775.8536 473.1597,-778.5648"/>
<polygon fill="#191970" stroke="#191970" points="346.1187,-395.1804 341.2856,-385.7522 339.1843,-396.1366 346.1187,-395.1804"/>
</g>
<!-- Node228475 -->
<g id="node25" class="node">
<title>Node228475</title>
<g id="a_node25"><a xlink:href="quickjs_8c.html#ad90c33b4aae1181151bda4a98ac2ef23" target="_top" xlink:title="JS_FlattenIntoArray">
<polygon fill="none" stroke="#ff0000" points="457.5,-716.5 457.5,-735.5 561.5,-735.5 561.5,-716.5 457.5,-716.5"/>
<text text-anchor="middle" x="509.5" y="-723.5" font-family="Helvetica,sans-Serif" font-size="10.00" fill="#000000">JS_FlattenIntoArray</text>
</a>
</g>
</g>
<!-- Node228416&#45;&gt;Node228475 -->
<g id="edge28" class="edge">
<title>Node228416&#45;&gt;Node228475</title>
<path fill="none" stroke="#191970" d="M343.5833,-395.6167C355.6742,-459.779 396.8037,-661.8714 443,-707 447.1227,-711.0274 452.0373,-714.2125 457.3019,-716.7296"/>
<polygon fill="#191970" stroke="#191970" points="346.9929,-394.8072 341.7247,-385.6151 340.1107,-396.0862 346.9929,-394.8072"/>
</g>
<!-- Node228477 -->
<g id="node26" class="node">
<title>Node228477</title>
<g id="a_node26"><a xlink:href="quickjs_8c.html#aed1bf9ce4b9e3a82388679dd6ec7635b" target="_top" xlink:title="js_string_replace">
<polygon fill="none" stroke="#000000" points="464.5,-38.5 464.5,-57.5 554.5,-57.5 554.5,-38.5 464.5,-38.5"/>
<text text-anchor="middle" x="509.5" y="-45.5" font-family="Helvetica,sans-Serif" font-size="10.00" fill="#000000">js_string_replace</text>
</a>
</g>
</g>
<!-- Node228416&#45;&gt;Node228477 -->
<g id="edge30" class="edge">
<title>Node228416&#45;&gt;Node228477</title>
<path fill="none" stroke="#191970" d="M360.4771,-359.6845C375.8873,-346.1982 396.1465,-325.6433 407,-303 452.8612,-207.3212 372.8835,-146.6326 443,-67 448.6337,-60.6017 456.2576,-56.291 464.3344,-53.4021"/>
<polygon fill="#191970" stroke="#191970" points="357.8863,-357.2914 352.5053,-366.418 362.4032,-362.639 357.8863,-357.2914"/>
</g>
<!-- Node228478 -->
<g id="node27" class="node">
<title>Node228478</title>
<g id="a_node27"><a xlink:href="quickjs_8c.html#a624282391413d4c5a030adbd8b77aa80" target="_top" xlink:title="internalize_json_property">
<polygon fill="none" stroke="#ff0000" points="447,-660.5 447,-679.5 572,-679.5 572,-660.5 447,-660.5"/>
<text text-anchor="middle" x="509.5" y="-667.5" font-family="Helvetica,sans-Serif" font-size="10.00" fill="#000000">internalize_json_property</text>
</a>
</g>
</g>
<!-- Node228416&#45;&gt;Node228478 -->
<g id="edge31" class="edge">
<title>Node228416&#45;&gt;Node228478</title>
<path fill="none" stroke="#191970" d="M341.4886,-395.9326C346.3453,-446.3747 366.1884,-580.1051 443,-651 447.2352,-654.909 452.2201,-658.02 457.5247,-660.495"/>
<polygon fill="#191970" stroke="#191970" points="344.9549,-395.3916 340.6066,-385.7302 337.9809,-395.9945 344.9549,-395.3916"/>
</g>
<!-- Node228480 -->
<g id="node28" class="node">
<title>Node228480</title>
<g id="a_node28"><a xlink:href="quickjs_8c.html#a0da6493b4bc0edb7ddddfab807241d0b" target="_top" xlink:title="js_json_check">
<polygon fill="none" stroke="#ff0000" points="470,-.5 470,-19.5 549,-19.5 549,-.5 470,-.5"/>
<text text-anchor="middle" x="509.5" y="-7.5" font-family="Helvetica,sans-Serif" font-size="10.00" fill="#000000">js_json_check</text>
</a>
</g>
</g>
<!-- Node228416&#45;&gt;Node228480 -->
<g id="edge33" class="edge">
<title>Node228416&#45;&gt;Node228480</title>
<path fill="none" stroke="#191970" d="M360.6075,-359.7462C376.0896,-346.2939 396.3818,-325.7546 407,-303 458.9379,-191.6974 362.793,-122.0197 443,-29 449.8216,-21.0887 459.687,-16.3602 469.7395,-13.5649"/>
<polygon fill="#191970" stroke="#191970" points="358.0115,-357.3551 352.5932,-366.4596 362.5066,-362.7211 358.0115,-357.3551"/>
</g>
<!-- Node228461&#45;&gt;Node228461 -->
<g id="edge19" class="edge">
<title>Node228461&#45;&gt;Node228461</title>
<path fill="none" stroke="#191970" d="M478.0629,-294.2746C478.9592,-299.741 489.4382,-304 509.5,-304 539.3594,-304 547.9906,-294.5653 535.3937,-285.7571"/>
<polygon fill="#191970" stroke="#191970" points="481.085,-296.0475 483.6063,-285.7571 475.2181,-292.2291 481.085,-296.0475"/>
</g>
<!-- Node228469&#45;&gt;Node228396 -->
<g id="edge22" class="edge">
<title>Node228469&#45;&gt;Node228396</title>
<path fill="none" stroke="#191970" d="M457.7366,-98.8526C452.6655,-100.6845 447.6727,-102.73 443,-105 341.8798,-154.1243 238.5066,-244.6431 205.9593,-274.3077"/>
<polygon fill="#191970" stroke="#191970" points="459.1422,-102.0735 467.5217,-95.59 456.9281,-95.4329 459.1422,-102.0735"/>
</g>
<!-- Node228475&#45;&gt;Node228475 -->
<g id="edge29" class="edge">
<title>Node228475&#45;&gt;Node228475</title>
<path fill="none" stroke="#191970" d="M478.0629,-744.2746C478.9592,-749.741 489.4382,-754 509.5,-754 539.3594,-754 547.9906,-744.5653 535.3937,-735.7571"/>
<polygon fill="#191970" stroke="#191970" points="481.085,-746.0475 483.6063,-735.7571 475.2181,-742.2291 481.085,-746.0475"/>
</g>
<!-- Node228478&#45;&gt;Node228478 -->
<g id="edge32" class="edge">
<title>Node228478&#45;&gt;Node228478</title>
<path fill="none" stroke="#191970" d="M478.0629,-688.2746C478.9592,-693.741 489.4382,-698 509.5,-698 539.3594,-698 547.9906,-688.5653 535.3937,-679.7571"/>
<polygon fill="#191970" stroke="#191970" points="481.085,-690.0475 483.6063,-679.7571 475.2181,-686.2291 481.085,-690.0475"/>
</g>
<!-- Node228502&#45;&gt;Node228396 -->
<g id="edge35" class="edge">
<title>Node228502&#45;&gt;Node228396</title>
<path fill="none" stroke="#191970" d="M262.7059,-290.7354C253.9651,-290.6845 245.3232,-290.5014 237.2954,-290.186"/>
<polygon fill="#191970" stroke="#191970" points="262.9819,-294.2354 272.9815,-290.7342 262.981,-287.2354 262.9819,-294.2354"/>
</g>
<!-- Node228516&#45;&gt;Node228396 -->
<g id="edge37" class="edge">
<title>Node228516&#45;&gt;Node228396</title>
<path fill="none" stroke="#191970" d="M313.0852,-113.696C299.7437,-118.1037 284.146,-124.0129 273,-134 227.716,-174.5757 206.1198,-247.5005 198.6584,-274.2978"/>
<polygon fill="#191970" stroke="#191970" points="314.2985,-116.9822 322.7367,-110.5754 312.1449,-110.3217 314.2985,-116.9822"/>
</g>
<!-- Node228516&#45;&gt;Node228477 -->
<g id="edge39" class="edge">
<title>Node228516&#45;&gt;Node228477</title>
<path fill="none" stroke="#191970" d="M377.5897,-88.1858C397.0522,-81.6544 421.2366,-73.6981 443,-67 453.3283,-63.8213 464.6137,-60.5293 474.9066,-57.5965"/>
<polygon fill="#191970" stroke="#191970" points="376.2393,-84.9474 367.8804,-91.4573 378.4745,-91.581 376.2393,-84.9474"/>
</g>
<!-- Node228516&#45;&gt;Node228480 -->
<g id="edge38" class="edge">
<title>Node228516&#45;&gt;Node228480</title>
<path fill="none" stroke="#191970" d="M358.8654,-84.8954C378.6589,-68.7273 411.2521,-44.109 443,-29 451.3483,-25.027 460.6908,-21.7251 469.6741,-19.05"/>
<polygon fill="#191970" stroke="#191970" points="356.4189,-82.3776 350.9633,-91.4598 360.8919,-87.7621 356.4189,-82.3776"/>
</g>
</g>
</svg>
        <g id="navigator" transform="translate(0 0)" fill="#404254">
                <rect fill="#f2f5e9" fill-opacity="0.5" stroke="#606060" stroke-width=".5" x="0" y="0" width="60" height="60"/>
                <use id="zoomplus" xlink:href="#zoomPlus" x="17" y="9" onmousedown="handleZoom(evt,'in')"/>
                <use id="zoomminus" xlink:href="#zoomMin" x="42" y="9" onmousedown="handleZoom(evt,'out')"/>
                <use id="reset" xlink:href="#resetDef" x="30" y="36" onmousedown="handleReset()"/>
                <g id="arrowUp" xlink:href="#dirArrow" transform="translate(30 24)" onmousedown="handlePan(0,-1)">
                  <use xlink:href="#rim" fill="#404040">
                        <set attributeName="fill" to="#808080" begin="arrowUp.mouseover" end="arrowUp.mouseout"/>
                  </use>
                  <path fill="none" stroke="white" stroke-width="1.5" d="M0,-3.0v7 M-2.5,-0.5L0,-3.0L2.5,-0.5"/>
                </g>
                <g id="arrowRight" xlink:href="#dirArrow" transform="rotate(90) translate(36 -43)" onmousedown="handlePan(1,0)">
                  <use xlink:href="#rim" fill="#404040">
                        <set attributeName="fill" to="#808080" begin="arrowRight.mouseover" end="arrowRight.mouseout"/>
                  </use>
                  <path fill="none" stroke="white" stroke-width="1.5" d="M0,-3.0v7 M-2.5,-0.5L0,-3.0L2.5,-0.5"/>
                </g>
                <g id="arrowDown" xlink:href="#dirArrow" transform="rotate(180) translate(-30 -48)" onmousedown="handlePan(0,1)">
                  <use xlink:href="#rim" fill="#404040">
                        <set attributeName="fill" to="#808080" begin="arrowDown.mouseover" end="arrowDown.mouseout"/>
                  </use>
                  <path fill="none" stroke="white" stroke-width="1.5" d="M0,-3.0v7 M-2.5,-0.5L0,-3.0L2.5,-0.5"/>
                </g>
                <g id="arrowLeft" xlink:href="#dirArrow" transform="rotate(270) translate(-36 17)" onmousedown="handlePan(-1,0)">
                  <use xlink:href="#rim" fill="#404040">
                        <set attributeName="fill" to="#808080" begin="arrowLeft.mouseover" end="arrowLeft.mouseout"/>
                  </use>
                  <path fill="none" stroke="white" stroke-width="1.5" d="M0,-3.0v7 M-2.5,-0.5L0,-3.0L2.5,-0.5"/>
                </g>
        </g>
        <svg viewBox="0 0 15 15" width="100%" height="30px" preserveAspectRatio="xMaxYMin meet">
         <g id="arrow_out" transform="scale(0.3 0.3)">
          <a xlink:href="quickjs_8c_a6741a132732de2e9b8234804677cfb12_icgraph_org.svg" target="_base">
           <rect id="button" ry="5" rx="5" y="6" x="6" height="38" width="38"
                fill="#f2f5e9" fill-opacity="0.5" stroke="#606060" stroke-width="1.0"/>
           <path id="arrow"
             d="M 11.500037,31.436501 C 11.940474,20.09759 22.043105,11.32322 32.158766,21.979434 L 37.068811,17.246167 C 37.068811,17.246167 37.088388,32 37.088388,32 L 22.160133,31.978069 C 22.160133,31.978069 26.997745,27.140456 26.997745,27.140456 C 18.528582,18.264221 13.291696,25.230495 11.500037,31.436501 z"
             style="fill:#404040;"/>
          </a>
         </g>
        </svg>
</svg>
