<?xml version="1.0" encoding="UTF-8" standalone="no"?>
<!DOCTYPE svg PUBLIC "-//W3C//DTD SVG 1.1//EN"
 "http://www.w3.org/Graphics/SVG/1.1/DTD/svg11.dtd">
<!-- Generated by graphviz version 2.40.1 (20161225.0304)
 -->
<!-- Title: js_shape_prepare_update Pages: 1 -->
<svg width="895pt" height="327pt"
 viewBox="0.00 0.00 895.00 326.85" xmlns="http://www.w3.org/2000/svg" xmlns:xlink="http://www.w3.org/1999/xlink">
<g id="graph0" class="graph" transform="scale(1 1) rotate(0) translate(4 322.8479)">
<title>js_shape_prepare_update</title>
<!-- Node41533 -->
<g id="node1" class="node">
<title>Node41533</title>
<polygon fill="#bfbfbf" stroke="#000000" points="0,-149.5 0,-168.5 128,-168.5 128,-149.5 0,-149.5"/>
<text text-anchor="middle" x="64" y="-156.5" font-family="Helvetica,sans-Serif" font-size="10.00" fill="#000000">js_shape_prepare_update</text>
</g>
<!-- Node41534 -->
<g id="node2" class="node">
<title>Node41534</title>
<g id="a_node2"><a xlink:href="quickjs_8c.html#ac93c982cb636a5430b191d104083af3e" target="_top" xlink:title="convert_fast_array\l_to_array">
<polygon fill="none" stroke="#000000" points="176.5,-248 176.5,-278 274.5,-278 274.5,-248 176.5,-248"/>
<text text-anchor="start" x="184.5" y="-266" font-family="Helvetica,sans-Serif" font-size="10.00" fill="#000000">convert_fast_array</text>
<text text-anchor="middle" x="225.5" y="-255" font-family="Helvetica,sans-Serif" font-size="10.00" fill="#000000">_to_array</text>
</a>
</g>
</g>
<!-- Node41533&#45;&gt;Node41534 -->
<g id="edge1" class="edge">
<title>Node41533&#45;&gt;Node41534</title>
<path fill="none" stroke="#191970" d="M83.395,-175.0257C103.0147,-190.8277 134.5671,-215.138 164,-233 172.734,-238.3004 182.5404,-243.4252 191.7129,-247.8943"/>
<polygon fill="#191970" stroke="#191970" points="85.4813,-172.2111 75.5144,-168.6179 81.0651,-177.6423 85.4813,-172.2111"/>
</g>
<!-- Node41535 -->
<g id="node3" class="node">
<title>Node41535</title>
<g id="a_node3"><a xlink:href="quickjs_8c.html#a2b9a2014cb970af5b5b7dde00afbdffa" target="_top" xlink:title="delete_property">
<polygon fill="none" stroke="#000000" points="329,-171.5 329,-190.5 412,-190.5 412,-171.5 329,-171.5"/>
<text text-anchor="middle" x="370.5" y="-178.5" font-family="Helvetica,sans-Serif" font-size="10.00" fill="#000000">delete_property</text>
</a>
</g>
</g>
<!-- Node41533&#45;&gt;Node41535 -->
<g id="edge14" class="edge">
<title>Node41533&#45;&gt;Node41535</title>
<path fill="none" stroke="#191970" d="M138.4019,-164.3404C198.2174,-168.6339 280.0587,-174.5083 328.875,-178.0122"/>
<polygon fill="#191970" stroke="#191970" points="138.4774,-160.8369 128.2524,-163.6119 137.9762,-167.819 138.4774,-160.8369"/>
</g>
<!-- Node41767 -->
<g id="node6" class="node">
<title>Node41767</title>
<g id="a_node6"><a xlink:href="quickjs_8c.html#ab50618f1bf78e444caa6da0e3e2785d7" target="_top" xlink:title="JS_DefineProperty">
<polygon fill="none" stroke="#ff0000" points="614,-184.5 614,-203.5 713,-203.5 713,-184.5 614,-184.5"/>
<text text-anchor="middle" x="663.5" y="-191.5" font-family="Helvetica,sans-Serif" font-size="10.00" fill="#000000">JS_DefineProperty</text>
</a>
</g>
</g>
<!-- Node41533&#45;&gt;Node41767 -->
<g id="edge20" class="edge">
<title>Node41533&#45;&gt;Node41767</title>
<path fill="none" stroke="#191970" d="M107.0237,-171.2058C124.5719,-175.8037 145.1365,-180.7108 164,-184 326.5626,-212.3462 523.3741,-204.0836 613.7472,-197.9694"/>
<polygon fill="#191970" stroke="#191970" points="107.6403,-167.7478 97.0758,-168.5489 105.834,-174.5108 107.6403,-167.7478"/>
</g>
<!-- Node42146 -->
<g id="node10" class="node">
<title>Node42146</title>
<g id="a_node10"><a xlink:href="quickjs_8c.html#a8aac7988cf0c6f3c2b629a6662fd7ec8" target="_top" xlink:title="JS_AutoInitProperty">
<polygon fill="none" stroke="#000000" points="454,-19.5 454,-38.5 558,-38.5 558,-19.5 454,-19.5"/>
<text text-anchor="middle" x="506" y="-26.5" font-family="Helvetica,sans-Serif" font-size="10.00" fill="#000000">JS_AutoInitProperty</text>
</a>
</g>
</g>
<!-- Node41533&#45;&gt;Node42146 -->
<g id="edge15" class="edge">
<title>Node41533&#45;&gt;Node42146</title>
<path fill="none" stroke="#191970" d="M78.6427,-141.5891C96.544,-121.6125 128.8287,-89.6079 164,-74 259.7931,-31.4899 384.4358,-26.0706 453.7212,-26.8969"/>
<polygon fill="#191970" stroke="#191970" points="75.824,-139.4959 71.8848,-149.3312 81.0976,-144.099 75.824,-139.4959"/>
</g>
<!-- Node42130 -->
<g id="node13" class="node">
<title>Node42130</title>
<g id="a_node13"><a xlink:href="quickjs_8c.html#a11b9662411b5b3f631925a0ca708ce25" target="_top" xlink:title="JS_SetPrototypeInternal">
<polygon fill="none" stroke="#ff0000" points="164,-83.5 164,-102.5 287,-102.5 287,-83.5 164,-83.5"/>
<text text-anchor="middle" x="225.5" y="-90.5" font-family="Helvetica,sans-Serif" font-size="10.00" fill="#000000">JS_SetPrototypeInternal</text>
</a>
</g>
</g>
<!-- Node41533&#45;&gt;Node42130 -->
<g id="edge21" class="edge">
<title>Node41533&#45;&gt;Node42130</title>
<path fill="none" stroke="#191970" d="M92.3435,-144.8866C112.1582,-135.2871 139.3757,-122.6296 164,-113 173.5153,-109.2789 184.0368,-105.6761 193.6469,-102.5777"/>
<polygon fill="#191970" stroke="#191970" points="90.7034,-141.7924 83.2547,-149.3268 93.7761,-148.082 90.7034,-141.7924"/>
</g>
<!-- Node42147 -->
<g id="node14" class="node">
<title>Node42147</title>
<g id="a_node14"><a xlink:href="quickjs_8c.html#a6d48937f79966a773376cc24834c663f" target="_top" xlink:title="js_update_property\l_flags">
<polygon fill="none" stroke="#000000" points="176,-122 176,-152 275,-152 275,-122 176,-122"/>
<text text-anchor="start" x="184" y="-140" font-family="Helvetica,sans-Serif" font-size="10.00" fill="#000000">js_update_property</text>
<text text-anchor="middle" x="225.5" y="-129" font-family="Helvetica,sans-Serif" font-size="10.00" fill="#000000">_flags</text>
</a>
</g>
</g>
<!-- Node41533&#45;&gt;Node42147 -->
<g id="edge22" class="edge">
<title>Node41533&#45;&gt;Node42147</title>
<path fill="none" stroke="#191970" d="M138.4062,-148.8642C151.1027,-147.1346 164.0096,-145.3764 175.8611,-143.762"/>
<polygon fill="#191970" stroke="#191970" points="137.7292,-145.424 128.2931,-150.2418 138.6741,-152.3599 137.7292,-145.424"/>
</g>
<!-- Node41534&#45;&gt;Node41535 -->
<g id="edge2" class="edge">
<title>Node41534&#45;&gt;Node41535</title>
<path fill="none" stroke="#191970" d="M260.844,-243.0123C290.2989,-226.3551 330.9667,-203.3567 353.5873,-190.5644"/>
<polygon fill="#191970" stroke="#191970" points="259.0768,-239.9908 252.0952,-247.9599 262.5227,-246.0839 259.0768,-239.9908"/>
</g>
<!-- Node41534&#45;&gt;Node41767 -->
<g id="edge12" class="edge">
<title>Node41534&#45;&gt;Node41767</title>
<path fill="none" stroke="#191970" d="M284.8147,-266.3087C352.8029,-268.1528 466.6229,-265.2199 558,-233 576.1353,-226.6054 576.2905,-216.4934 594,-209 600.2524,-206.3544 607.0262,-204.1533 613.8088,-202.3276"/>
<polygon fill="#191970" stroke="#191970" points="284.8211,-262.8073 274.7158,-265.9903 284.6005,-269.8038 284.8211,-262.8073"/>
</g>
<!-- Node41906 -->
<g id="node7" class="node">
<title>Node41906</title>
<g id="a_node7"><a xlink:href="quickjs_8c.html#a9105ee38f5a557a7922fe6cfee0f9bb2" target="_top" xlink:title="js_arguments_define\l_own_property">
<polygon fill="none" stroke="#000000" points="774.5,-186 774.5,-216 881.5,-216 881.5,-186 774.5,-186"/>
<text text-anchor="start" x="782.5" y="-204" font-family="Helvetica,sans-Serif" font-size="10.00" fill="#000000">js_arguments_define</text>
<text text-anchor="middle" x="828" y="-193" font-family="Helvetica,sans-Serif" font-size="10.00" fill="#000000">_own_property</text>
</a>
</g>
</g>
<!-- Node41534&#45;&gt;Node41906 -->
<g id="edge13" class="edge">
<title>Node41534&#45;&gt;Node41906</title>
<path fill="none" stroke="#191970" d="M277.7317,-281.1509C343.2492,-301.585 459.0147,-329.976 558,-314 638.8914,-300.9443 658.264,-289.5918 733,-256 758.5524,-244.5149 786.0835,-228.0847 804.8956,-216.1755"/>
<polygon fill="#191970" stroke="#191970" points="278.6384,-277.7667 268.0481,-278.074 276.5186,-284.438 278.6384,-277.7667"/>
</g>
<!-- Node41766 -->
<g id="node9" class="node">
<title>Node41766</title>
<g id="a_node9"><a xlink:href="quickjs_8c.html#ad5565bb5cfd5321f181573257f3b0c91" target="_top" xlink:title="JS_CreateProperty">
<polygon fill="none" stroke="#ff0000" points="456,-285.5 456,-304.5 556,-304.5 556,-285.5 456,-285.5"/>
<text text-anchor="middle" x="506" y="-292.5" font-family="Helvetica,sans-Serif" font-size="10.00" fill="#000000">JS_CreateProperty</text>
</a>
</g>
</g>
<!-- Node41534&#45;&gt;Node41766 -->
<g id="edge9" class="edge">
<title>Node41534&#45;&gt;Node41766</title>
<path fill="none" stroke="#191970" d="M284.8602,-269.7719C335.6697,-275.5684 407.9999,-283.82 455.9306,-289.288"/>
<polygon fill="#191970" stroke="#191970" points="285.0127,-266.2667 274.6804,-268.6106 284.2192,-273.2216 285.0127,-266.2667"/>
</g>
<!-- Node41536 -->
<g id="node4" class="node">
<title>Node41536</title>
<g id="a_node4"><a xlink:href="quickjs_8c.html#ad55fe6f65ecb58e327ac9e9b4ab475f5" target="_top" xlink:title="set_array_length">
<polygon fill="none" stroke="#000000" points="461.5,-95.5 461.5,-114.5 550.5,-114.5 550.5,-95.5 461.5,-95.5"/>
<text text-anchor="middle" x="506" y="-102.5" font-family="Helvetica,sans-Serif" font-size="10.00" fill="#000000">set_array_length</text>
</a>
</g>
</g>
<!-- Node41535&#45;&gt;Node41536 -->
<g id="edge3" class="edge">
<title>Node41535&#45;&gt;Node41536</title>
<path fill="none" stroke="#191970" d="M396.6279,-166.3452C423.8594,-151.0715 465.7373,-127.5828 488.9782,-114.5473"/>
<polygon fill="#191970" stroke="#191970" points="394.6708,-163.43 387.6612,-171.3745 398.0951,-169.5352 394.6708,-163.43"/>
</g>
<!-- Node41886 -->
<g id="node8" class="node">
<title>Node41886</title>
<g id="a_node8"><a xlink:href="quickjs_8c.html#a2b88ed25233c441cbed7b0a027c9ee2f" target="_top" xlink:title="JS_DeleteProperty">
<polygon fill="none" stroke="#ff0000" points="456.5,-171.5 456.5,-190.5 555.5,-190.5 555.5,-171.5 456.5,-171.5"/>
<text text-anchor="middle" x="506" y="-178.5" font-family="Helvetica,sans-Serif" font-size="10.00" fill="#000000">JS_DeleteProperty</text>
</a>
</g>
</g>
<!-- Node41535&#45;&gt;Node41886 -->
<g id="edge8" class="edge">
<title>Node41535&#45;&gt;Node41886</title>
<path fill="none" stroke="#191970" d="M422.5762,-181C433.5644,-181 445.1345,-181 456.0425,-181"/>
<polygon fill="#191970" stroke="#191970" points="422.2601,-177.5001 412.2601,-181 422.2601,-184.5001 422.2601,-177.5001"/>
</g>
<!-- Node41537 -->
<g id="node5" class="node">
<title>Node41537</title>
<g id="a_node5"><a xlink:href="quickjs_8c.html#ad7f03358a8088ca920ab308225c6b2e6" target="_top" xlink:title="JS_SetPropertyInternal">
<polygon fill="none" stroke="#ff0000" points="769,-144.5 769,-163.5 887,-163.5 887,-144.5 769,-144.5"/>
<text text-anchor="middle" x="828" y="-151.5" font-family="Helvetica,sans-Serif" font-size="10.00" fill="#000000">JS_SetPropertyInternal</text>
</a>
</g>
</g>
<!-- Node41536&#45;&gt;Node41537 -->
<g id="edge4" class="edge">
<title>Node41536&#45;&gt;Node41537</title>
<path fill="none" stroke="#191970" d="M560.8179,-113.3419C618.6434,-122.1414 709.4499,-135.9598 768.8582,-145.0002"/>
<polygon fill="#191970" stroke="#191970" points="561.1855,-109.8576 550.7727,-111.8132 560.1323,-116.7779 561.1855,-109.8576"/>
</g>
<!-- Node41536&#45;&gt;Node41767 -->
<g id="edge5" class="edge">
<title>Node41536&#45;&gt;Node41767</title>
<path fill="none" stroke="#191970" d="M540.1274,-118.9022C546.2608,-121.9129 552.4592,-125.3127 558,-129 576.0697,-141.0249 575.9249,-149.9833 594,-162 607.6062,-171.0457 624.1818,-178.7862 637.7324,-184.3876"/>
<polygon fill="#191970" stroke="#191970" points="541.1913,-115.5376 530.6468,-114.5061 538.2466,-121.8881 541.1913,-115.5376"/>
</g>
<!-- Node41767&#45;&gt;Node41537 -->
<g id="edge6" class="edge">
<title>Node41767&#45;&gt;Node41537</title>
<path fill="none" stroke="#191970" d="M712.6846,-182.0402C737.0615,-176.1127 766.0874,-169.0547 788.9197,-163.5028"/>
<polygon fill="#191970" stroke="#191970" points="711.7917,-178.6553 702.9018,-184.419 713.4457,-185.4571 711.7917,-178.6553"/>
</g>
<!-- Node41767&#45;&gt;Node41906 -->
<g id="edge7" class="edge">
<title>Node41767&#45;&gt;Node41906</title>
<path fill="none" stroke="#191970" d="M723.4731,-196.552C740.1256,-197.2607 758.0957,-198.0253 774.3606,-198.7175"/>
<polygon fill="#191970" stroke="#191970" points="723.4416,-193.0476 713.3018,-196.1192 723.144,-200.0413 723.4416,-193.0476"/>
</g>
<!-- Node41766&#45;&gt;Node41537 -->
<g id="edge11" class="edge">
<title>Node41766&#45;&gt;Node41537</title>
<path fill="none" stroke="#191970" d="M558.9782,-282.9259C606.9809,-270.4002 678.3543,-247.7203 733,-213 752.0985,-200.8654 750.0551,-189.373 769,-177 777.3762,-171.5295 787.2526,-167.0419 796.5042,-163.5297"/>
<polygon fill="#191970" stroke="#191970" points="557.9283,-279.5816 549.104,-285.4453 559.6589,-286.3643 557.9283,-279.5816"/>
</g>
<!-- Node41766&#45;&gt;Node41767 -->
<g id="edge10" class="edge">
<title>Node41766&#45;&gt;Node41767</title>
<path fill="none" stroke="#191970" d="M538.6243,-281.1479C545.1629,-278.038 551.8954,-274.5886 558,-271 594.1638,-249.7407 633.1551,-218.9959 652.0014,-203.5773"/>
<polygon fill="#191970" stroke="#191970" points="536.9069,-278.0851 529.279,-285.438 539.8274,-284.4468 536.9069,-278.0851"/>
</g>
<!-- Node42146&#45;&gt;Node41537 -->
<g id="edge18" class="edge">
<title>Node42146&#45;&gt;Node41537</title>
<path fill="none" stroke="#191970" d="M543.9953,-42.2038C548.7497,-44.0545 553.5146,-46.0079 558,-48 574.5343,-55.3435 577.401,-59.804 594,-67 653.9651,-92.9959 671.8557,-91.9135 733,-115 758.186,-124.5096 786.7123,-136.3695 805.8759,-144.4986"/>
<polygon fill="#191970" stroke="#191970" points="544.9356,-38.818 534.3437,-38.5693 542.4687,-45.3689 544.9356,-38.818"/>
</g>
<!-- Node42146&#45;&gt;Node41767 -->
<g id="edge19" class="edge">
<title>Node42146&#45;&gt;Node41767</title>
<path fill="none" stroke="#191970" d="M551.5947,-43.3731C553.8536,-44.78 556.0076,-46.3185 558,-48 582.645,-68.7996 575.5752,-84.5326 594,-111 613.6501,-139.2276 640.7213,-169.5117 654.5625,-184.4878"/>
<polygon fill="#191970" stroke="#191970" points="552.9604,-40.1367 542.4813,-38.5748 549.6992,-46.3307 552.9604,-40.1367"/>
</g>
<!-- Node41677 -->
<g id="node11" class="node">
<title>Node41677</title>
<g id="a_node11"><a xlink:href="quickjs_8c.html#a5762c57ae0c9937e986040c01222833a" target="_top" xlink:title="JS_GetPropertyInternal">
<polygon fill="none" stroke="#ff0000" points="604,-.5 604,-19.5 723,-19.5 723,-.5 604,-.5"/>
<text text-anchor="middle" x="663.5" y="-7.5" font-family="Helvetica,sans-Serif" font-size="10.00" fill="#000000">JS_GetPropertyInternal</text>
</a>
</g>
</g>
<!-- Node42146&#45;&gt;Node41677 -->
<g id="edge16" class="edge">
<title>Node42146&#45;&gt;Node41677</title>
<path fill="none" stroke="#191970" d="M568.1848,-21.4983C579.9486,-20.0792 592.2289,-18.5978 603.9104,-17.1886"/>
<polygon fill="#191970" stroke="#191970" points="567.5167,-18.0535 558.0079,-22.726 568.3551,-25.0031 567.5167,-18.0535"/>
</g>
<!-- Node41688 -->
<g id="node12" class="node">
<title>Node41688</title>
<g id="a_node12"><a xlink:href="quickjs_8c.html#ad13892c0a0f11781b566808876658099" target="_top" xlink:title="JS_GetOwnPropertyInternal">
<polygon fill="none" stroke="#ff0000" points="594,-38.5 594,-57.5 733,-57.5 733,-38.5 594,-38.5"/>
<text text-anchor="middle" x="663.5" y="-45.5" font-family="Helvetica,sans-Serif" font-size="10.00" fill="#000000">JS_GetOwnPropertyInternal</text>
</a>
</g>
</g>
<!-- Node42146&#45;&gt;Node41688 -->
<g id="edge17" class="edge">
<title>Node42146&#45;&gt;Node41688</title>
<path fill="none" stroke="#191970" d="M568.1413,-36.4964C576.5799,-37.5144 585.2852,-38.5646 593.8451,-39.5972"/>
<polygon fill="#191970" stroke="#191970" points="568.3551,-32.9969 558.0079,-35.274 567.5167,-39.9465 568.3551,-32.9969"/>
</g>
<!-- Node42147&#45;&gt;Node41767 -->
<g id="edge23" class="edge">
<title>Node42147&#45;&gt;Node41767</title>
<path fill="none" stroke="#191970" d="M285.5929,-137.5675C352.5824,-139.1128 463.8812,-144.4088 558,-162 585.845,-167.2043 616.7553,-177.0865 637.8801,-184.4983"/>
<polygon fill="#191970" stroke="#191970" points="285.3025,-134.0608 275.2314,-137.3504 285.1558,-141.0592 285.3025,-134.0608"/>
</g>
<!-- Node42148 -->
<g id="node15" class="node">
<title>Node42148</title>
<g id="a_node15"><a xlink:href="quickjs_8c.html#a0f23e03f0a367d4b5559a14efbb1f4ee" target="_top" xlink:title="seal_template_obj">
<polygon fill="none" stroke="#000000" points="323,-83.5 323,-102.5 418,-102.5 418,-83.5 323,-83.5"/>
<text text-anchor="middle" x="370.5" y="-90.5" font-family="Helvetica,sans-Serif" font-size="10.00" fill="#000000">seal_template_obj</text>
</a>
</g>
</g>
<!-- Node42147&#45;&gt;Node42148 -->
<g id="edge24" class="edge">
<title>Node42147&#45;&gt;Node42148</title>
<path fill="none" stroke="#191970" d="M284.5868,-119.0702C303.1934,-113.4241 323.0213,-107.4073 338.9352,-102.5783"/>
<polygon fill="#191970" stroke="#191970" points="283.548,-115.7278 274.9952,-121.9808 285.5807,-122.4262 283.548,-115.7278"/>
</g>
<!-- Node41835 -->
<g id="node16" class="node">
<title>Node41835</title>
<g id="a_node16"><a xlink:href="quickjs_8c.html#a035daca514f14aacc1e0cff81d8e423a" target="_top" xlink:title="js_parse_template">
<polygon fill="none" stroke="#ff0000" points="458,-57.5 458,-76.5 554,-76.5 554,-57.5 458,-57.5"/>
<text text-anchor="middle" x="506" y="-64.5" font-family="Helvetica,sans-Serif" font-size="10.00" fill="#000000">js_parse_template</text>
</a>
</g>
</g>
<!-- Node42148&#45;&gt;Node41835 -->
<g id="edge25" class="edge">
<title>Node42148&#45;&gt;Node41835</title>
<path fill="none" stroke="#191970" d="M428.3457,-81.9005C438.1442,-80.0203 448.2251,-78.086 457.7448,-76.2593"/>
<polygon fill="#191970" stroke="#191970" points="427.4335,-78.5116 418.2722,-83.8334 428.7527,-85.3861 427.4335,-78.5116"/>
</g>
</g>
</svg>
