<?xml version="1.0" encoding="UTF-8" standalone="no"?>
<!DOCTYPE svg PUBLIC "-//W3C//DTD SVG 1.1//EN"
 "http://www.w3.org/Graphics/SVG/1.1/DTD/svg11.dtd">
<!-- Generated by graphviz version 2.40.1 (20161225.0304)
 -->
<!-- Title: JS_SetThisTimeValue Pages: 1 -->
<svg width="515pt" height="104pt"
 viewBox="0.00 0.00 515.00 104.00" xmlns="http://www.w3.org/2000/svg" xmlns:xlink="http://www.w3.org/1999/xlink">
<g id="graph0" class="graph" transform="scale(1 1) rotate(0) translate(4 100)">
<title>JS_SetThisTimeValue</title>
<!-- Node471212 -->
<g id="node1" class="node">
<title>Node471212</title>
<polygon fill="#bfbfbf" stroke="#000000" points="0,-38.5 0,-57.5 114,-57.5 114,-38.5 0,-38.5"/>
<text text-anchor="middle" x="57" y="-45.5" font-family="Helvetica,sans-Serif" font-size="10.00" fill="#000000">JS_SetThisTimeValue</text>
</g>
<!-- Node471213 -->
<g id="node2" class="node">
<title>Node471213</title>
<g id="a_node2"><a xlink:href="quickjs_8h.html#a775522f2d084fc8fa0fcb33f390006b4" target="_top" xlink:title="JS_DupValue">
<polygon fill="none" stroke="#000000" points="154.5,-76.5 154.5,-95.5 231.5,-95.5 231.5,-76.5 154.5,-76.5"/>
<text text-anchor="middle" x="193" y="-83.5" font-family="Helvetica,sans-Serif" font-size="10.00" fill="#000000">JS_DupValue</text>
</a>
</g>
</g>
<!-- Node471212&#45;&gt;Node471213 -->
<g id="edge1" class="edge">
<title>Node471212&#45;&gt;Node471213</title>
<path fill="none" stroke="#191970" d="M91.3185,-57.589C108.7943,-62.4719 130.2407,-68.4643 148.9251,-73.685"/>
<polygon fill="#191970" stroke="#191970" points="148.1194,-77.0938 158.6924,-76.4141 150.0032,-70.3521 148.1194,-77.0938"/>
</g>
<!-- Node471214 -->
<g id="node3" class="node">
<title>Node471214</title>
<g id="a_node3"><a xlink:href="quickjs_8h.html#afaa20c47565bc704c6c85f3d77254e7d" target="_top" xlink:title="JS_FreeValue">
<polygon fill="none" stroke="#000000" points="154,-38.5 154,-57.5 232,-57.5 232,-38.5 154,-38.5"/>
<text text-anchor="middle" x="193" y="-45.5" font-family="Helvetica,sans-Serif" font-size="10.00" fill="#000000">JS_FreeValue</text>
</a>
</g>
</g>
<!-- Node471212&#45;&gt;Node471214 -->
<g id="edge2" class="edge">
<title>Node471212&#45;&gt;Node471214</title>
<path fill="none" stroke="#191970" d="M114.2821,-48C124.0913,-48 134.2057,-48 143.781,-48"/>
<polygon fill="#191970" stroke="#191970" points="143.9197,-51.5001 153.9197,-48 143.9197,-44.5001 143.9197,-51.5001"/>
</g>
<!-- Node471252 -->
<g id="node6" class="node">
<title>Node471252</title>
<g id="a_node6"><a xlink:href="quickjs_8h.html#ae91f44bd7249613050c18c7133702c67" target="_top" xlink:title="JS_NewFloat64">
<polygon fill="none" stroke="#000000" points="150,-.5 150,-19.5 236,-19.5 236,-.5 150,-.5"/>
<text text-anchor="middle" x="193" y="-7.5" font-family="Helvetica,sans-Serif" font-size="10.00" fill="#000000">JS_NewFloat64</text>
</a>
</g>
</g>
<!-- Node471212&#45;&gt;Node471252 -->
<g id="edge5" class="edge">
<title>Node471212&#45;&gt;Node471252</title>
<path fill="none" stroke="#191970" d="M91.3185,-38.411C108.7943,-33.5281 130.2407,-27.5357 148.9251,-22.315"/>
<polygon fill="#191970" stroke="#191970" points="150.0032,-25.6479 158.6924,-19.5859 148.1194,-18.9062 150.0032,-25.6479"/>
</g>
<!-- Node471215 -->
<g id="node4" class="node">
<title>Node471215</title>
<g id="a_node4"><a xlink:href="quickjs_8c.html#aa059f309c30fd5166d16c82a97973146" target="_top" xlink:title="__JS_FreeValue">
<polygon fill="none" stroke="#000000" points="276,-38.5 276,-57.5 365,-57.5 365,-38.5 276,-38.5"/>
<text text-anchor="middle" x="320.5" y="-45.5" font-family="Helvetica,sans-Serif" font-size="10.00" fill="#000000">__JS_FreeValue</text>
</a>
</g>
</g>
<!-- Node471214&#45;&gt;Node471215 -->
<g id="edge3" class="edge">
<title>Node471214&#45;&gt;Node471215</title>
<path fill="none" stroke="#191970" d="M232.2946,-48C242.8263,-48 254.4077,-48 265.6161,-48"/>
<polygon fill="#191970" stroke="#191970" points="265.764,-51.5001 275.764,-48 265.7639,-44.5001 265.764,-51.5001"/>
</g>
<!-- Node471216 -->
<g id="node5" class="node">
<title>Node471216</title>
<g id="a_node5"><a xlink:href="quickjs_8c.html#ab1ea3fad7d138be12144a38be4d36423" target="_top" xlink:title="__JS_FreeValueRT">
<polygon fill="none" stroke="#ff0000" points="405,-38.5 405,-57.5 507,-57.5 507,-38.5 405,-38.5"/>
<text text-anchor="middle" x="456" y="-45.5" font-family="Helvetica,sans-Serif" font-size="10.00" fill="#000000">__JS_FreeValueRT</text>
</a>
</g>
</g>
<!-- Node471215&#45;&gt;Node471216 -->
<g id="edge4" class="edge">
<title>Node471215&#45;&gt;Node471216</title>
<path fill="none" stroke="#191970" d="M365.2433,-48C374.6261,-48 384.677,-48 394.548,-48"/>
<polygon fill="#191970" stroke="#191970" points="394.7341,-51.5001 404.734,-48 394.734,-44.5001 394.7341,-51.5001"/>
</g>
<!-- Node471253 -->
<g id="node7" class="node">
<title>Node471253</title>
<g id="a_node7"><a xlink:href="quickjs_8h.html#a9bf98b18de88b4199910a43e933eb97d" target="_top" xlink:title="__JS_NewFloat64">
<polygon fill="none" stroke="#000000" points="272,-.5 272,-19.5 369,-19.5 369,-.5 272,-.5"/>
<text text-anchor="middle" x="320.5" y="-7.5" font-family="Helvetica,sans-Serif" font-size="10.00" fill="#000000">__JS_NewFloat64</text>
</a>
</g>
</g>
<!-- Node471252&#45;&gt;Node471253 -->
<g id="edge6" class="edge">
<title>Node471252&#45;&gt;Node471253</title>
<path fill="none" stroke="#191970" d="M236.1657,-10C244.2807,-10 252.8942,-10 261.3968,-10"/>
<polygon fill="#191970" stroke="#191970" points="261.6723,-13.5001 271.6723,-10 261.6723,-6.5001 261.6723,-13.5001"/>
</g>
</g>
</svg>
