<?xml version="1.0" encoding="UTF-8" standalone="no"?>
<!DOCTYPE svg PUBLIC "-//W3C//DTD SVG 1.1//EN"
 "http://www.w3.org/Graphics/SVG/1.1/DTD/svg11.dtd">
<!-- Generated by graphviz version 2.40.1 (20161225.0304)
 -->
<!-- Title: JSParseState Pages: 1 -->
<!--zoomable 861 -->
<svg id="main" version="1.1" xmlns="http://www.w3.org/2000/svg" xmlns:xlink="http://www.w3.org/1999/xlink" xml:space="preserve" onload="init(evt)">
<style type="text/css"><![CDATA[
.edge:hover path { stroke: red; }
.edge:hover polygon { stroke: red; fill: red; }
]]></style>
<script type="text/javascript"><![CDATA[
var edges = document.getElementsByTagName('g');
if (edges && edges.length) {
  for (var i=0;i<edges.length;i++) {
    if (edges[i].id.substr(0,4)=='edge') {
      edges[i].setAttribute('class','edge');
    }
  }
}
]]></script>
        <defs>
                <circle id="rim" cx="0" cy="0" r="7"/>
                <circle id="rim2" cx="0" cy="0" r="3.5"/>
                <g id="zoomPlus">
                        <use xlink:href="#rim" fill="#404040">
                                <set attributeName="fill" to="#808080" begin="zoomplus.mouseover" end="zoomplus.mouseout"/>
                        </use>
                        <path d="M-4,0h8M0,-4v8" fill="none" stroke="white" stroke-width="1.5" pointer-events="none"/>
                </g>
                <g id="zoomMin">
                        <use xlink:href="#rim" fill="#404040">
                                <set attributeName="fill" to="#808080" begin="zoomminus.mouseover" end="zoomminus.mouseout"/>
                        </use>
                        <path d="M-4,0h8" fill="none" stroke="white" stroke-width="1.5" pointer-events="none"/>
                </g>
                <g id="dirArrow">
                        <path fill="none" stroke="white" stroke-width="1.5" d="M0,-3.0v7 M-2.5,-0.5L0,-3.0L2.5,-0.5"/>
                </g>
               <g id="resetDef">
                       <use xlink:href="#rim2" fill="#404040">
                               <set attributeName="fill" to="#808080" begin="reset.mouseover" end="reset.mouseout"/>
                       </use>
               </g>
        </defs>

<script type="text/javascript">
var viewWidth = 1236;
var viewHeight = 861;
var sectionId = 'dynsection-0';
</script>
<script xlink:href="svgpan.js"/>
<svg id="graph" class="graph">
<g id="viewport">
<title>JSParseState</title>
<!-- Node1 -->
<g id="node1" class="node">
<title>Node1</title>
<polygon fill="#bfbfbf" stroke="#000000" points="1151,-289.5918 1151,-308.5918 1228,-308.5918 1228,-289.5918 1151,-289.5918"/>
<text text-anchor="middle" x="1189.5" y="-296.5918" font-family="Helvetica,sans-Serif" font-size="10.00" fill="#000000">JSParseState</text>
</g>
<!-- Node2 -->
<g id="node2" class="node">
<title>Node2</title>
<g id="a_node2"><a xlink:href="structJSFunctionDef.html" target="_top" xlink:title="JSFunctionDef">
<polygon fill="none" stroke="#000000" points="992,-498.5918 992,-517.5918 1074,-517.5918 1074,-498.5918 992,-498.5918"/>
<text text-anchor="middle" x="1033" y="-505.5918" font-family="Helvetica,sans-Serif" font-size="10.00" fill="#000000">JSFunctionDef</text>
</a>
</g>
</g>
<!-- Node2&#45;&gt;Node1 -->
<g id="edge1" class="edge">
<title>Node2&#45;&gt;Node1</title>
<path fill="none" stroke="#9a32cd" stroke-dasharray="5,2" d="M1046.1332,-490.5529C1077.8721,-448.1667 1157.9231,-341.2616 1182.327,-308.6711"/>
<polygon fill="#9a32cd" stroke="#9a32cd" points="1043.3234,-488.4659 1040.1311,-498.5684 1048.9267,-492.6617 1043.3234,-488.4659"/>
<text text-anchor="middle" x="1112.5" y="-431.0918" font-family="Helvetica,sans-Serif" font-size="10.00" fill="#000000"> cur_func</text>
</g>
<!-- Node2&#45;&gt;Node2 -->
<g id="edge12" class="edge">
<title>Node2&#45;&gt;Node2</title>
<path fill="none" stroke="#9a32cd" stroke-dasharray="5,2" d="M1018.6358,-527.8581C1019.764,-532.5883 1024.5521,-536.0918 1033,-536.0918 1046.8633,-536.0918 1050.8706,-526.6571 1045.0221,-517.8489"/>
<polygon fill="#9a32cd" stroke="#9a32cd" points="1022.1074,-528.3833 1020.9779,-517.8489 1015.2915,-526.7884 1022.1074,-528.3833"/>
<text text-anchor="middle" x="1033" y="-539.0918" font-family="Helvetica,sans-Serif" font-size="10.00" fill="#000000"> parent</text>
</g>
<!-- Node3 -->
<g id="node3" class="node">
<title>Node3</title>
<g id="a_node3"><a xlink:href="structlist__head.html" target="_top" xlink:title="list_head">
<polygon fill="none" stroke="#000000" points="0,-160.5918 0,-179.5918 56,-179.5918 56,-160.5918 0,-160.5918"/>
<text text-anchor="middle" x="28" y="-167.5918" font-family="Helvetica,sans-Serif" font-size="10.00" fill="#000000">list_head</text>
</a>
</g>
</g>
<!-- Node3&#45;&gt;Node2 -->
<g id="edge2" class="edge">
<title>Node3&#45;&gt;Node2</title>
<path fill="none" stroke="#9a32cd" stroke-dasharray="5,2" d="M29.8627,-189.6966C40.5304,-299.2833 95.7628,-831.0918 163,-831.0918 163,-831.0918 163,-831.0918 823.5,-831.0918 890.8143,-831.0918 924.5821,-859.7983 974,-814.0918 1018.9822,-772.4879 1030.5528,-564.9635 1032.6221,-517.688"/>
<polygon fill="#9a32cd" stroke="#9a32cd" points="33.3417,-189.3091 28.899,-179.6907 26.3739,-189.9802 33.3417,-189.3091"/>
<text text-anchor="middle" x="495.5" y="-845.0918" font-family="Helvetica,sans-Serif" font-size="10.00" fill="#000000"> child_list</text>
<text text-anchor="middle" x="495.5" y="-834.0918" font-family="Helvetica,sans-Serif" font-size="10.00" fill="#000000">link</text>
</g>
<!-- Node3&#45;&gt;Node3 -->
<g id="edge3" class="edge">
<title>Node3&#45;&gt;Node3</title>
<path fill="none" stroke="#9a32cd" stroke-dasharray="5,2" d="M18.0556,-189.8581C18.8366,-194.5883 22.1514,-198.0918 28,-198.0918 37.5977,-198.0918 40.372,-188.6571 36.323,-179.8489"/>
<polygon fill="#9a32cd" stroke="#9a32cd" points="21.5328,-190.2799 19.677,-179.8489 14.6229,-189.1604 21.5328,-190.2799"/>
<text text-anchor="middle" x="28" y="-212.0918" font-family="Helvetica,sans-Serif" font-size="10.00" fill="#000000"> prev</text>
<text text-anchor="middle" x="28" y="-201.0918" font-family="Helvetica,sans-Serif" font-size="10.00" fill="#000000">next</text>
</g>
<!-- Node12 -->
<g id="node12" class="node">
<title>Node12</title>
<g id="a_node12"><a xlink:href="structJSContext.html" target="_top" xlink:title="JSContext">
<polygon fill="none" stroke="#000000" points="792,-110.5918 792,-129.5918 855,-129.5918 855,-110.5918 792,-110.5918"/>
<text text-anchor="middle" x="823.5" y="-117.5918" font-family="Helvetica,sans-Serif" font-size="10.00" fill="#000000">JSContext</text>
</a>
</g>
</g>
<!-- Node3&#45;&gt;Node12 -->
<g id="edge23" class="edge">
<title>Node3&#45;&gt;Node12</title>
<path fill="none" stroke="#9a32cd" stroke-dasharray="5,2" d="M66.4103,-169.5418C121.4037,-168.4525 225.6922,-165.2645 314,-156.0918 375.7755,-149.675 390.1894,-140.1611 452,-134.0918 577.2551,-121.7927 727.2419,-120.1075 791.6083,-120.0027"/>
<polygon fill="#9a32cd" stroke="#9a32cd" points="66.0217,-166.0483 56.0882,-169.7328 66.1513,-173.0471 66.0217,-166.0483"/>
<text text-anchor="middle" x="383" y="-168.0918" font-family="Helvetica,sans-Serif" font-size="10.00" fill="#000000"> loaded_modules</text>
<text text-anchor="middle" x="383" y="-157.0918" font-family="Helvetica,sans-Serif" font-size="10.00" fill="#000000">link</text>
</g>
<!-- Node13 -->
<g id="node13" class="node">
<title>Node13</title>
<g id="a_node13"><a xlink:href="structJSRuntime.html" target="_top" xlink:title="JSRuntime">
<polygon fill="none" stroke="#ff0000" points="570.5,-72.5918 570.5,-91.5918 635.5,-91.5918 635.5,-72.5918 570.5,-72.5918"/>
<text text-anchor="middle" x="603" y="-79.5918" font-family="Helvetica,sans-Serif" font-size="10.00" fill="#000000">JSRuntime</text>
</a>
</g>
</g>
<!-- Node3&#45;&gt;Node13 -->
<g id="edge17" class="edge">
<title>Node3&#45;&gt;Node13</title>
<path fill="none" stroke="#9a32cd" stroke-dasharray="5,2" d="M54.9731,-156.016C93.3155,-136.8437 166.3388,-103.3857 233,-90.0918 296.9555,-77.3374 492.1374,-79.7803 570.2136,-81.3385"/>
<polygon fill="#9a32cd" stroke="#9a32cd" points="53.3372,-152.9211 45.9973,-160.5615 56.4998,-159.166 53.3372,-152.9211"/>
<text text-anchor="middle" x="273.5" y="-148.0918" font-family="Helvetica,sans-Serif" font-size="10.00" fill="#000000"> job_list</text>
<text text-anchor="middle" x="273.5" y="-137.0918" font-family="Helvetica,sans-Serif" font-size="10.00" fill="#000000">tmp_obj_list</text>
<text text-anchor="start" x="233" y="-126.0918" font-family="Helvetica,sans-Serif" font-size="10.00" fill="#000000">gc_zero_ref_count</text>
<text text-anchor="middle" x="273.5" y="-115.0918" font-family="Helvetica,sans-Serif" font-size="10.00" fill="#000000">_list</text>
<text text-anchor="middle" x="273.5" y="-104.0918" font-family="Helvetica,sans-Serif" font-size="10.00" fill="#000000">gc_obj_list</text>
<text text-anchor="middle" x="273.5" y="-93.0918" font-family="Helvetica,sans-Serif" font-size="10.00" fill="#000000">context_list</text>
</g>
<!-- Node23 -->
<g id="node15" class="node">
<title>Node23</title>
<g id="a_node15"><a xlink:href="structJSGCObjectHeader.html" target="_top" xlink:title="JSGCObjectHeader">
<polygon fill="none" stroke="#000000" points="111,-12.5918 111,-31.5918 215,-31.5918 215,-12.5918 111,-12.5918"/>
<text text-anchor="middle" x="163" y="-19.5918" font-family="Helvetica,sans-Serif" font-size="10.00" fill="#000000">JSGCObjectHeader</text>
</a>
</g>
</g>
<!-- Node3&#45;&gt;Node23 -->
<g id="edge22" class="edge">
<title>Node3&#45;&gt;Node23</title>
<path fill="none" stroke="#9a32cd" stroke-dasharray="5,2" d="M32.0444,-150.5607C37.7601,-127.321 50.2585,-88.5929 74,-64.0918 88.9809,-48.6316 110.7751,-38.2156 129.0466,-31.6237"/>
<polygon fill="#9a32cd" stroke="#9a32cd" points="28.6302,-149.791 29.8215,-160.3187 35.4553,-151.3459 28.6302,-149.791"/>
<text text-anchor="middle" x="83.5" y="-67.0918" font-family="Helvetica,sans-Serif" font-size="10.00" fill="#000000"> link</text>
</g>
<!-- Node53 -->
<g id="node18" class="node">
<title>Node53</title>
<g id="a_node18"><a xlink:href="structJSModuleDef.html" target="_top" xlink:title="JSModuleDef">
<polygon fill="none" stroke="#000000" points="565,-638.5918 565,-657.5918 641,-657.5918 641,-638.5918 565,-638.5918"/>
<text text-anchor="middle" x="603" y="-645.5918" font-family="Helvetica,sans-Serif" font-size="10.00" fill="#000000">JSModuleDef</text>
</a>
</g>
</g>
<!-- Node3&#45;&gt;Node53 -->
<g id="edge30" class="edge">
<title>Node3&#45;&gt;Node53</title>
<path fill="none" stroke="#9a32cd" stroke-dasharray="5,2" d="M35.7746,-189.1468C48.3477,-218.3055 75.3754,-274.6517 111,-313.0918 267.8676,-482.3573 369.1204,-450.8894 539,-607.0918 548.2997,-615.6428 546.8546,-621.5635 557,-629.0918 561.996,-632.799 567.8204,-635.9238 573.6121,-638.5006"/>
<polygon fill="#9a32cd" stroke="#9a32cd" points="38.9117,-187.5777 31.8073,-179.7178 32.4595,-190.2925 38.9117,-187.5777"/>
<text text-anchor="middle" x="273.5" y="-463.0918" font-family="Helvetica,sans-Serif" font-size="10.00" fill="#000000"> link</text>
</g>
<!-- Node4 -->
<g id="node4" class="node">
<title>Node4</title>
<g id="a_node4"><a xlink:href="structBlockEnv.html" target="_top" xlink:title="BlockEnv">
<polygon fill="none" stroke="#000000" points="794,-669.5918 794,-688.5918 853,-688.5918 853,-669.5918 794,-669.5918"/>
<text text-anchor="middle" x="823.5" y="-676.5918" font-family="Helvetica,sans-Serif" font-size="10.00" fill="#000000">BlockEnv</text>
</a>
</g>
</g>
<!-- Node4&#45;&gt;Node2 -->
<g id="edge4" class="edge">
<title>Node4&#45;&gt;Node2</title>
<path fill="none" stroke="#9a32cd" stroke-dasharray="5,2" d="M862.8054,-668.7795C895.7774,-658.4704 942.4143,-639.8143 974,-610.0918 1003.2007,-582.6136 1022.2725,-537.4209 1029.6084,-517.7462"/>
<polygon fill="#9a32cd" stroke="#9a32cd" points="861.6123,-665.4833 853.0432,-671.7139 863.6274,-672.187 861.6123,-665.4833"/>
<text text-anchor="middle" x="933" y="-660.0918" font-family="Helvetica,sans-Serif" font-size="10.00" fill="#000000"> top_break</text>
</g>
<!-- Node4&#45;&gt;Node4 -->
<g id="edge5" class="edge">
<title>Node4&#45;&gt;Node4</title>
<path fill="none" stroke="#9a32cd" stroke-dasharray="5,2" d="M803.501,-698.4918C804.8366,-703.4064 811.5029,-707.0918 823.5,-707.0918 842.6953,-707.0918 848.244,-697.6571 840.1459,-688.8489"/>
<polygon fill="#9a32cd" stroke="#9a32cd" points="806.8755,-699.4437 806.8541,-688.8489 800.2638,-697.1446 806.8755,-699.4437"/>
<text text-anchor="middle" x="823.5" y="-710.0918" font-family="Helvetica,sans-Serif" font-size="10.00" fill="#000000"> prev</text>
</g>
<!-- Node5 -->
<g id="node5" class="node">
<title>Node5</title>
<g id="a_node5"><a xlink:href="structJSValue.html" target="_top" xlink:title="JSValue">
<polygon fill="none" stroke="#000000" points="356.5,-284.5918 356.5,-303.5918 409.5,-303.5918 409.5,-284.5918 356.5,-284.5918"/>
<text text-anchor="middle" x="383" y="-291.5918" font-family="Helvetica,sans-Serif" font-size="10.00" fill="#000000">JSValue</text>
</a>
</g>
</g>
<!-- Node5&#45;&gt;Node2 -->
<g id="edge6" class="edge">
<title>Node5&#45;&gt;Node2</title>
<path fill="none" stroke="#9a32cd" stroke-dasharray="5,2" d="M401.5353,-310.1761C414.6678,-320.5151 433.2246,-333.0965 452,-339.0918 562.6103,-374.4114 879.7244,-294.311 974,-362.0918 1020.3921,-395.446 1030.3592,-471.6508 1032.4553,-498.508"/>
<polygon fill="#9a32cd" stroke="#9a32cd" points="403.6964,-307.4221 393.7409,-303.7974 399.2631,-312.8393 403.6964,-307.4221"/>
<text text-anchor="middle" x="711" y="-345.0918" font-family="Helvetica,sans-Serif" font-size="10.00" fill="#000000"> cpool</text>
</g>
<!-- Node5&#45;&gt;Node12 -->
<g id="edge24" class="edge">
<title>Node5&#45;&gt;Node12</title>
<path fill="none" stroke="#9a32cd" stroke-dasharray="5,2" d="M400.4742,-277.7452C430.1697,-250.9439 493.4645,-197.9571 557,-171.0918 639.4551,-136.2266 667.1418,-151.2777 755,-134.0918 767.0316,-131.7383 780.2318,-129.0627 791.8058,-126.6855"/>
<polygon fill="#9a32cd" stroke="#9a32cd" points="398.0334,-275.2345 393.0173,-284.5666 402.7582,-280.3994 398.0334,-275.2345"/>
<text text-anchor="middle" x="603" y="-284.0918" font-family="Helvetica,sans-Serif" font-size="10.00" fill="#000000"> async_iterator_proto</text>
<text text-anchor="middle" x="603" y="-273.0918" font-family="Helvetica,sans-Serif" font-size="10.00" fill="#000000">function_proto</text>
<text text-anchor="middle" x="603" y="-262.0918" font-family="Helvetica,sans-Serif" font-size="10.00" fill="#000000">function_ctor</text>
<text text-anchor="middle" x="603" y="-251.0918" font-family="Helvetica,sans-Serif" font-size="10.00" fill="#000000">array_ctor</text>
<text text-anchor="middle" x="603" y="-240.0918" font-family="Helvetica,sans-Serif" font-size="10.00" fill="#000000">class_proto</text>
<text text-anchor="middle" x="603" y="-229.0918" font-family="Helvetica,sans-Serif" font-size="10.00" fill="#000000">array_proto_values</text>
<text text-anchor="middle" x="603" y="-218.0918" font-family="Helvetica,sans-Serif" font-size="10.00" fill="#000000">regexp_ctor</text>
<text text-anchor="middle" x="603" y="-207.0918" font-family="Helvetica,sans-Serif" font-size="10.00" fill="#000000">throw_type_error</text>
<text text-anchor="middle" x="603" y="-196.0918" font-family="Helvetica,sans-Serif" font-size="10.00" fill="#000000">native_error_proto</text>
<text text-anchor="middle" x="603" y="-185.0918" font-family="Helvetica,sans-Serif" font-size="10.00" fill="#000000">eval_obj</text>
<text text-anchor="middle" x="603" y="-174.0918" font-family="Helvetica,sans-Serif" font-size="10.00" fill="#000000">...</text>
</g>
<!-- Node5&#45;&gt;Node13 -->
<g id="edge18" class="edge">
<title>Node5&#45;&gt;Node13</title>
<path fill="none" stroke="#9a32cd" stroke-dasharray="5,2" d="M390.655,-274.7913C404.4244,-240.8184 433.6416,-172.2134 452,-154.0918 470.9641,-135.3723 540.3249,-106.4955 578.0902,-91.6409"/>
<polygon fill="#9a32cd" stroke="#9a32cd" points="387.2364,-273.9125 386.7606,-284.4966 393.7329,-276.5193 387.2364,-273.9125"/>
<text text-anchor="middle" x="495.5" y="-157.0918" font-family="Helvetica,sans-Serif" font-size="10.00" fill="#000000"> current_exception</text>
</g>
<!-- Node5&#45;&gt;Node53 -->
<g id="edge31" class="edge">
<title>Node5&#45;&gt;Node53</title>
<path fill="none" stroke="#9a32cd" stroke-dasharray="5,2" d="M398.1431,-311.7555C411.6254,-327.0692 432.2215,-349.4766 452,-367.0918 488.044,-399.1934 515.4319,-389.9703 539,-432.0918 560.4652,-470.455 530.92,-593.7035 557,-629.0918 559.8706,-632.987 563.6865,-636.0872 567.8968,-638.5539"/>
<polygon fill="#9a32cd" stroke="#9a32cd" points="400.6421,-309.2956 391.4352,-304.0532 395.3633,-313.8929 400.6421,-309.2956"/>
<text text-anchor="middle" x="495.5" y="-468.0918" font-family="Helvetica,sans-Serif" font-size="10.00" fill="#000000"> func_obj</text>
<text text-anchor="middle" x="495.5" y="-457.0918" font-family="Helvetica,sans-Serif" font-size="10.00" fill="#000000">meta_obj</text>
<text text-anchor="middle" x="495.5" y="-446.0918" font-family="Helvetica,sans-Serif" font-size="10.00" fill="#000000">eval_exception</text>
<text text-anchor="middle" x="495.5" y="-435.0918" font-family="Helvetica,sans-Serif" font-size="10.00" fill="#000000">module_ns</text>
</g>
<!-- Node59 -->
<g id="node26" class="node">
<title>Node59</title>
<g id="a_node26"><a xlink:href="structJSToken.html" target="_top" xlink:title="JSToken">
<polygon fill="none" stroke="#000000" points="683,-297.5918 683,-316.5918 739,-316.5918 739,-297.5918 683,-297.5918"/>
<text text-anchor="middle" x="711" y="-304.5918" font-family="Helvetica,sans-Serif" font-size="10.00" fill="#000000">JSToken</text>
</a>
</g>
</g>
<!-- Node5&#45;&gt;Node59 -->
<g id="edge42" class="edge">
<title>Node5&#45;&gt;Node59</title>
<path fill="none" stroke="#9a32cd" stroke-dasharray="5,2" d="M419.6171,-293.6734C451.2402,-293.4683 498.1498,-293.5374 539,-295.0918 589.7009,-297.021 648.6656,-301.6562 682.7243,-304.5683"/>
<polygon fill="#9a32cd" stroke="#9a32cd" points="419.4822,-290.1743 409.5096,-293.7517 419.5365,-297.1741 419.4822,-290.1743"/>
<text text-anchor="middle" x="495.5" y="-331.0918" font-family="Helvetica,sans-Serif" font-size="10.00" fill="#000000"> body</text>
<text text-anchor="middle" x="495.5" y="-320.0918" font-family="Helvetica,sans-Serif" font-size="10.00" fill="#000000">flags</text>
<text text-anchor="middle" x="495.5" y="-309.0918" font-family="Helvetica,sans-Serif" font-size="10.00" fill="#000000">val</text>
<text text-anchor="middle" x="495.5" y="-298.0918" font-family="Helvetica,sans-Serif" font-size="10.00" fill="#000000">str</text>
</g>
<!-- Node6 -->
<g id="node6" class="node">
<title>Node6</title>
<g id="a_node6"><a xlink:href="unionJSValueUnion.html" target="_top" xlink:title="JSValueUnion">
<polygon fill="none" stroke="#000000" points="123.5,-284.5918 123.5,-303.5918 202.5,-303.5918 202.5,-284.5918 123.5,-284.5918"/>
<text text-anchor="middle" x="163" y="-291.5918" font-family="Helvetica,sans-Serif" font-size="10.00" fill="#000000">JSValueUnion</text>
</a>
</g>
</g>
<!-- Node6&#45;&gt;Node5 -->
<g id="edge7" class="edge">
<title>Node6&#45;&gt;Node5</title>
<path fill="none" stroke="#9a32cd" stroke-dasharray="5,2" d="M212.6057,-294.0918C257.0651,-294.0918 320.6005,-294.0918 356.1943,-294.0918"/>
<polygon fill="#9a32cd" stroke="#9a32cd" points="212.5857,-290.5919 202.5857,-294.0918 212.5856,-297.5919 212.5857,-290.5919"/>
<text text-anchor="middle" x="273.5" y="-297.0918" font-family="Helvetica,sans-Serif" font-size="10.00" fill="#000000"> u</text>
</g>
<!-- Node7 -->
<g id="node7" class="node">
<title>Node7</title>
<g id="a_node7"><a xlink:href="structLabelSlot.html" target="_top" xlink:title="LabelSlot">
<polygon fill="none" stroke="#000000" points="795,-593.5918 795,-612.5918 852,-612.5918 852,-593.5918 795,-593.5918"/>
<text text-anchor="middle" x="823.5" y="-600.5918" font-family="Helvetica,sans-Serif" font-size="10.00" fill="#000000">LabelSlot</text>
</a>
</g>
</g>
<!-- Node7&#45;&gt;Node2 -->
<g id="edge8" class="edge">
<title>Node7&#45;&gt;Node2</title>
<path fill="none" stroke="#9a32cd" stroke-dasharray="5,2" d="M862.3609,-600.4663C894.1201,-596.9247 939.2801,-588.6096 974,-569.0918 997.1178,-556.0961 1016.8949,-531.2181 1026.6001,-517.5922"/>
<polygon fill="#9a32cd" stroke="#9a32cd" points="861.7384,-597.0111 852.1386,-601.4936 862.4385,-603.976 861.7384,-597.0111"/>
<text text-anchor="middle" x="933" y="-598.0918" font-family="Helvetica,sans-Serif" font-size="10.00" fill="#000000"> label_slots</text>
</g>
<!-- Node8 -->
<g id="node8" class="node">
<title>Node8</title>
<g id="a_node8"><a xlink:href="structRelocEntry.html" target="_top" xlink:title="RelocEntry">
<polygon fill="none" stroke="#000000" points="570.5,-571.5918 570.5,-590.5918 635.5,-590.5918 635.5,-571.5918 570.5,-571.5918"/>
<text text-anchor="middle" x="603" y="-578.5918" font-family="Helvetica,sans-Serif" font-size="10.00" fill="#000000">RelocEntry</text>
</a>
</g>
</g>
<!-- Node8&#45;&gt;Node7 -->
<g id="edge9" class="edge">
<title>Node8&#45;&gt;Node7</title>
<path fill="none" stroke="#9a32cd" stroke-dasharray="5,2" d="M645.6147,-585.3436C689.5036,-589.7225 756.6967,-596.4266 794.6982,-600.2181"/>
<polygon fill="#9a32cd" stroke="#9a32cd" points="645.8336,-581.8482 635.5355,-584.338 645.1386,-588.8136 645.8336,-581.8482"/>
<text text-anchor="middle" x="711" y="-598.0918" font-family="Helvetica,sans-Serif" font-size="10.00" fill="#000000"> first_reloc</text>
</g>
<!-- Node8&#45;&gt;Node8 -->
<g id="edge10" class="edge">
<title>Node8&#45;&gt;Node8</title>
<path fill="none" stroke="#9a32cd" stroke-dasharray="5,2" d="M583.3713,-600.4918C584.6822,-605.4064 591.2251,-609.0918 603,-609.0918 621.8398,-609.0918 627.2857,-599.6571 619.3377,-590.8489"/>
<polygon fill="#9a32cd" stroke="#9a32cd" points="586.7447,-601.4434 586.6623,-590.8489 580.1199,-599.1824 586.7447,-601.4434"/>
<text text-anchor="middle" x="603" y="-612.0918" font-family="Helvetica,sans-Serif" font-size="10.00" fill="#000000"> next</text>
</g>
<!-- Node9 -->
<g id="node9" class="node">
<title>Node9</title>
<g id="a_node9"><a xlink:href="structJSGlobalVar.html" target="_top" xlink:title="JSGlobalVar">
<polygon fill="none" stroke="#000000" points="788,-555.5918 788,-574.5918 859,-574.5918 859,-555.5918 788,-555.5918"/>
<text text-anchor="middle" x="823.5" y="-562.5918" font-family="Helvetica,sans-Serif" font-size="10.00" fill="#000000">JSGlobalVar</text>
</a>
</g>
</g>
<!-- Node9&#45;&gt;Node2 -->
<g id="edge11" class="edge">
<title>Node9&#45;&gt;Node2</title>
<path fill="none" stroke="#9a32cd" stroke-dasharray="5,2" d="M869.2995,-558.7988C899.4894,-553.9624 939.6476,-546.2083 974,-535.0918 988.2542,-530.4791 1003.6223,-523.3716 1015.0994,-517.6066"/>
<polygon fill="#9a32cd" stroke="#9a32cd" points="868.407,-555.3953 859.0626,-560.3885 869.4813,-562.3124 868.407,-555.3953"/>
<text text-anchor="middle" x="933" y="-557.0918" font-family="Helvetica,sans-Serif" font-size="10.00" fill="#000000"> global_vars</text>
</g>
<!-- Node10 -->
<g id="node10" class="node">
<title>Node10</title>
<g id="a_node10"><a xlink:href="structJumpSlot.html" target="_top" xlink:title="JumpSlot">
<polygon fill="none" stroke="#000000" points="794.5,-517.5918 794.5,-536.5918 852.5,-536.5918 852.5,-517.5918 794.5,-517.5918"/>
<text text-anchor="middle" x="823.5" y="-524.5918" font-family="Helvetica,sans-Serif" font-size="10.00" fill="#000000">JumpSlot</text>
</a>
</g>
</g>
<!-- Node10&#45;&gt;Node2 -->
<g id="edge13" class="edge">
<title>Node10&#45;&gt;Node2</title>
<path fill="none" stroke="#9a32cd" stroke-dasharray="5,2" d="M862.9788,-523.5114C899.8056,-520.1715 954.5266,-515.2087 991.8751,-511.8215"/>
<polygon fill="#9a32cd" stroke="#9a32cd" points="862.273,-520.0609 852.6301,-524.4499 862.9054,-527.0323 862.273,-520.0609"/>
<text text-anchor="middle" x="933" y="-523.0918" font-family="Helvetica,sans-Serif" font-size="10.00" fill="#000000"> jump_slots</text>
</g>
<!-- Node11 -->
<g id="node11" class="node">
<title>Node11</title>
<g id="a_node11"><a xlink:href="structDynBuf.html" target="_top" xlink:title="DynBuf">
<polygon fill="none" stroke="#000000" points="798.5,-479.5918 798.5,-498.5918 848.5,-498.5918 848.5,-479.5918 798.5,-479.5918"/>
<text text-anchor="middle" x="823.5" y="-486.5918" font-family="Helvetica,sans-Serif" font-size="10.00" fill="#000000">DynBuf</text>
</a>
</g>
</g>
<!-- Node11&#45;&gt;Node2 -->
<g id="edge14" class="edge">
<title>Node11&#45;&gt;Node2</title>
<path fill="none" stroke="#9a32cd" stroke-dasharray="5,2" d="M858.9558,-484.9797C889.6375,-482.285 935.0726,-480.3706 974,-487.0918 986.8568,-489.3117 1000.6242,-494.0647 1011.6236,-498.4882"/>
<polygon fill="#9a32cd" stroke="#9a32cd" points="858.376,-481.519 848.7534,-485.9525 859.0405,-488.4874 858.376,-481.519"/>
<text text-anchor="middle" x="933" y="-501.0918" font-family="Helvetica,sans-Serif" font-size="10.00" fill="#000000"> pc2line</text>
<text text-anchor="middle" x="933" y="-490.0918" font-family="Helvetica,sans-Serif" font-size="10.00" fill="#000000">byte_code</text>
</g>
<!-- Node12&#45;&gt;Node1 -->
<g id="edge40" class="edge">
<title>Node12&#45;&gt;Node1</title>
<path fill="none" stroke="#9a32cd" stroke-dasharray="5,2" d="M865.0808,-130.8639C895.8483,-139.4918 938.4124,-152.823 974,-169.0918 1054.6684,-205.9691 1142.908,-266.1052 1175.9872,-289.4247"/>
<polygon fill="#9a32cd" stroke="#9a32cd" points="865.6965,-127.4032 855.126,-128.1208 863.8369,-134.1517 865.6965,-127.4032"/>
<text text-anchor="middle" x="1033" y="-225.0918" font-family="Helvetica,sans-Serif" font-size="10.00" fill="#000000"> ctx</text>
</g>
<!-- Node12&#45;&gt;Node2 -->
<g id="edge15" class="edge">
<title>Node12&#45;&gt;Node2</title>
<path fill="none" stroke="#9a32cd" stroke-dasharray="5,2" d="M846.3443,-135.6822C879.697,-159.6879 941.2981,-208.9575 974,-266.0918 1020.4009,-347.1599 1030.5032,-463.7088 1032.5273,-498.1511"/>
<polygon fill="#9a32cd" stroke="#9a32cd" points="848.3055,-132.7823 838.1205,-129.8642 844.2628,-138.4969 848.3055,-132.7823"/>
<text text-anchor="middle" x="933" y="-269.0918" font-family="Helvetica,sans-Serif" font-size="10.00" fill="#000000"> ctx</text>
</g>
<!-- Node13&#45;&gt;Node12 -->
<g id="edge16" class="edge">
<title>Node13&#45;&gt;Node12</title>
<path fill="none" stroke="#9a32cd" stroke-dasharray="5,2" d="M646.0468,-82.7491C676.734,-83.9486 718.7968,-87.0861 755,-95.0918 771.0693,-98.6452 788.4826,-105.0366 801.731,-110.4672"/>
<polygon fill="#9a32cd" stroke="#9a32cd" points="645.8071,-79.2391 635.695,-82.4008 645.5716,-86.2352 645.8071,-79.2391"/>
<text text-anchor="middle" x="711" y="-98.0918" font-family="Helvetica,sans-Serif" font-size="10.00" fill="#000000"> rt</text>
</g>
<!-- Node19 -->
<g id="node14" class="node">
<title>Node19</title>
<g id="a_node14"><a xlink:href="structJSShape.html" target="_top" xlink:title="JSShape">
<polygon fill="none" stroke="#ff0000" points="355,-12.5918 355,-31.5918 411,-31.5918 411,-12.5918 355,-12.5918"/>
<text text-anchor="middle" x="383" y="-19.5918" font-family="Helvetica,sans-Serif" font-size="10.00" fill="#000000">JSShape</text>
</a>
</g>
</g>
<!-- Node19&#45;&gt;Node12 -->
<g id="edge25" class="edge">
<title>Node19&#45;&gt;Node12</title>
<path fill="none" stroke="#9a32cd" stroke-dasharray="5,2" d="M421.2995,-22.1716C490.5736,-23.5747 640.154,-32.428 755,-80.0918 774.9697,-88.3797 796.2091,-101.5465 809.65,-110.4908"/>
<polygon fill="#9a32cd" stroke="#9a32cd" points="421.3366,-18.6718 411.2815,-22.0101 421.2238,-25.6709 421.3366,-18.6718"/>
<text text-anchor="middle" x="603" y="-50.0918" font-family="Helvetica,sans-Serif" font-size="10.00" fill="#000000"> array_shape</text>
</g>
<!-- Node19&#45;&gt;Node13 -->
<g id="edge19" class="edge">
<title>Node19&#45;&gt;Node13</title>
<path fill="none" stroke="#9a32cd" stroke-dasharray="5,2" d="M420.9422,-32.6148C431.0307,-35.3922 441.9234,-38.3726 452,-41.0918 490.6138,-51.512 500.4148,-53.5661 539,-64.0918 549.2445,-66.8864 560.3914,-69.9971 570.469,-72.8358"/>
<polygon fill="#9a32cd" stroke="#9a32cd" points="421.7526,-29.2077 411.1819,-29.9222 419.891,-35.9556 421.7526,-29.2077"/>
<text text-anchor="middle" x="495.5" y="-67.0918" font-family="Helvetica,sans-Serif" font-size="10.00" fill="#000000"> shape_hash</text>
</g>
<!-- Node19&#45;&gt;Node19 -->
<g id="edge20" class="edge">
<title>Node19&#45;&gt;Node19</title>
<path fill="none" stroke="#9a32cd" stroke-dasharray="5,2" d="M363.001,-41.4918C364.3366,-46.4064 371.0029,-50.0918 383,-50.0918 402.1953,-50.0918 407.744,-40.6571 399.6459,-31.8489"/>
<polygon fill="#9a32cd" stroke="#9a32cd" points="366.3755,-42.4437 366.3541,-31.8489 359.7638,-40.1446 366.3755,-42.4437"/>
<text text-anchor="middle" x="383" y="-53.0918" font-family="Helvetica,sans-Serif" font-size="10.00" fill="#000000"> shape_hash_next</text>
</g>
<!-- Node23&#45;&gt;Node12 -->
<g id="edge26" class="edge">
<title>Node23&#45;&gt;Node12</title>
<path fill="none" stroke="#9a32cd" stroke-dasharray="5,2" d="M225.0927,-13.427C256.977,-9.406 296.4889,-5.0817 332,-3.0918 473.105,4.8152 510.0415,-2.3301 649,-28.0918 696.2221,-36.8464 712.8399,-26.0898 755,-49.0918 782.9665,-64.35 806.4549,-94.9165 817.209,-110.4918"/>
<polygon fill="#9a32cd" stroke="#9a32cd" points="224.4968,-9.9747 215.0234,-14.7186 225.3874,-16.9178 224.4968,-9.9747"/>
<text text-anchor="middle" x="495.5" y="-12.0918" font-family="Helvetica,sans-Serif" font-size="10.00" fill="#000000"> header</text>
</g>
<!-- Node23&#45;&gt;Node19 -->
<g id="edge21" class="edge">
<title>Node23&#45;&gt;Node19</title>
<path fill="none" stroke="#9a32cd" stroke-dasharray="5,2" d="M225.4032,-22.0918C267.9536,-22.0918 322.2761,-22.0918 354.7594,-22.0918"/>
<polygon fill="#9a32cd" stroke="#9a32cd" points="225.137,-18.5919 215.1369,-22.0918 225.1369,-25.5919 225.137,-18.5919"/>
<text text-anchor="middle" x="273.5" y="-25.0918" font-family="Helvetica,sans-Serif" font-size="10.00" fill="#000000"> header</text>
</g>
<!-- Node52 -->
<g id="node16" class="node">
<title>Node52</title>
<g id="a_node16"><a xlink:href="structLineNumberSlot.html" target="_top" xlink:title="LineNumberSlot">
<polygon fill="none" stroke="#000000" points="780.5,-441.5918 780.5,-460.5918 866.5,-460.5918 866.5,-441.5918 780.5,-441.5918"/>
<text text-anchor="middle" x="823.5" y="-448.5918" font-family="Helvetica,sans-Serif" font-size="10.00" fill="#000000">LineNumberSlot</text>
</a>
</g>
</g>
<!-- Node52&#45;&gt;Node2 -->
<g id="edge27" class="edge">
<title>Node52&#45;&gt;Node2</title>
<path fill="none" stroke="#9a32cd" stroke-dasharray="5,2" d="M876.7363,-450.3466C906.219,-451.498 943.0539,-455.5632 974,-467.0918 992.9357,-474.146 1011.5325,-488.6908 1022.6366,-498.421"/>
<polygon fill="#9a32cd" stroke="#9a32cd" points="876.7336,-446.8452 866.6362,-450.0535 876.5304,-453.8422 876.7336,-446.8452"/>
<text text-anchor="middle" x="933" y="-470.0918" font-family="Helvetica,sans-Serif" font-size="10.00" fill="#000000"> line_number_slots</text>
</g>
<!-- Node43 -->
<g id="node17" class="node">
<title>Node43</title>
<g id="a_node17"><a xlink:href="structJSClosureVar.html" target="_top" xlink:title="JSClosureVar">
<polygon fill="none" stroke="#000000" points="785,-403.5918 785,-422.5918 862,-422.5918 862,-403.5918 785,-403.5918"/>
<text text-anchor="middle" x="823.5" y="-410.5918" font-family="Helvetica,sans-Serif" font-size="10.00" fill="#000000">JSClosureVar</text>
</a>
</g>
</g>
<!-- Node43&#45;&gt;Node2 -->
<g id="edge28" class="edge">
<title>Node43&#45;&gt;Node2</title>
<path fill="none" stroke="#9a32cd" stroke-dasharray="5,2" d="M872.2775,-411.8267C903.247,-413.0496 943.1549,-418.5137 974,-436.0918 1000.2563,-451.0548 1019.6353,-482.5759 1028.1743,-498.4807"/>
<polygon fill="#9a32cd" stroke="#9a32cd" points="872.2311,-408.3244 862.1434,-411.5632 872.049,-415.322 872.2311,-408.3244"/>
<text text-anchor="middle" x="933" y="-439.0918" font-family="Helvetica,sans-Serif" font-size="10.00" fill="#000000"> closure_var</text>
</g>
<!-- Node53&#45;&gt;Node2 -->
<g id="edge29" class="edge">
<title>Node53&#45;&gt;Node2</title>
<path fill="none" stroke="#9a32cd" stroke-dasharray="5,2" d="M626.2267,-662.9048C657.9217,-682.1527 717.1784,-714.755 773,-727.0918 816.8312,-736.7787 830.5224,-738.2593 874,-727.0918 923.1284,-714.4728 941.0661,-710.669 974,-672.0918 1015.0613,-623.9945 1028.4018,-545.1219 1031.9163,-517.7821"/>
<polygon fill="#9a32cd" stroke="#9a32cd" points="628.0242,-659.9013 617.6762,-657.6275 624.3476,-665.8581 628.0242,-659.9013"/>
<text text-anchor="middle" x="823.5" y="-737.0918" font-family="Helvetica,sans-Serif" font-size="10.00" fill="#000000"> module</text>
</g>
<!-- Node55 -->
<g id="node21" class="node">
<title>Node55</title>
<g id="a_node21"><a xlink:href="structJSReqModuleEntry.html" target="_top" xlink:title="JSReqModuleEntry">
<polygon fill="none" stroke="#000000" points="773,-631.5918 773,-650.5918 874,-650.5918 874,-631.5918 773,-631.5918"/>
<text text-anchor="middle" x="823.5" y="-638.5918" font-family="Helvetica,sans-Serif" font-size="10.00" fill="#000000">JSReqModuleEntry</text>
</a>
</g>
</g>
<!-- Node53&#45;&gt;Node55 -->
<g id="edge35" class="edge">
<title>Node53&#45;&gt;Node55</title>
<path fill="none" stroke="#9a32cd" stroke-dasharray="5,2" d="M651.32,-650.5981C656.6102,-650.8006 661.9177,-650.9727 667,-651.0918 706.1004,-652.0077 715.9916,-653.9241 755,-651.0918 760.7537,-650.674 766.758,-650.0614 772.7165,-649.3416"/>
<polygon fill="#9a32cd" stroke="#9a32cd" points="651.3688,-647.0972 641.2315,-650.1772 651.0769,-654.0911 651.3688,-647.0972"/>
<text text-anchor="middle" x="711" y="-655.0918" font-family="Helvetica,sans-Serif" font-size="10.00" fill="#000000"> module</text>
</g>
<!-- Node18 -->
<g id="node19" class="node">
<title>Node18</title>
<g id="a_node19"><a xlink:href="structJSRefCountHeader.html" target="_top" xlink:title="JSRefCountHeader">
<polygon fill="none" stroke="#000000" points="332,-706.5918 332,-725.5918 434,-725.5918 434,-706.5918 332,-706.5918"/>
<text text-anchor="middle" x="383" y="-713.5918" font-family="Helvetica,sans-Serif" font-size="10.00" fill="#000000">JSRefCountHeader</text>
</a>
</g>
</g>
<!-- Node18&#45;&gt;Node53 -->
<g id="edge32" class="edge">
<title>Node18&#45;&gt;Node53</title>
<path fill="none" stroke="#9a32cd" stroke-dasharray="5,2" d="M444.3626,-707.3771C473.588,-702.1568 508.6931,-694.3079 539,-683.0918 556.8153,-676.4987 575.7259,-665.6156 588.3319,-657.7334"/>
<polygon fill="#9a32cd" stroke="#9a32cd" points="443.5473,-703.966 434.2879,-709.1152 444.7374,-710.8641 443.5473,-703.966"/>
<text text-anchor="middle" x="495.5" y="-708.0918" font-family="Helvetica,sans-Serif" font-size="10.00" fill="#000000"> header</text>
</g>
<!-- Node54 -->
<g id="node20" class="node">
<title>Node54</title>
<g id="a_node20"><a xlink:href="structJSStarExportEntry.html" target="_top" xlink:title="JSStarExportEntry">
<polygon fill="none" stroke="#000000" points="334,-668.5918 334,-687.5918 432,-687.5918 432,-668.5918 334,-668.5918"/>
<text text-anchor="middle" x="383" y="-675.5918" font-family="Helvetica,sans-Serif" font-size="10.00" fill="#000000">JSStarExportEntry</text>
</a>
</g>
</g>
<!-- Node54&#45;&gt;Node53 -->
<g id="edge33" class="edge">
<title>Node54&#45;&gt;Node53</title>
<path fill="none" stroke="#9a32cd" stroke-dasharray="5,2" d="M442.2775,-670.0085C481.2928,-664.6882 531.208,-657.8816 564.9825,-653.276"/>
<polygon fill="#9a32cd" stroke="#9a32cd" points="441.5338,-666.5774 432.0985,-671.3965 442.4797,-673.5132 441.5338,-666.5774"/>
<text text-anchor="middle" x="495.5" y="-671.0918" font-family="Helvetica,sans-Serif" font-size="10.00" fill="#000000"> star_export_entries</text>
</g>
<!-- Node55&#45;&gt;Node53 -->
<g id="edge34" class="edge">
<title>Node55&#45;&gt;Node53</title>
<path fill="none" stroke="#9a32cd" stroke-dasharray="5,2" d="M762.3383,-638.7611C733.4068,-638.155 698.3978,-638.137 667,-640.0918 658.618,-640.6136 649.6542,-641.5164 641.1689,-642.532"/>
<polygon fill="#9a32cd" stroke="#9a32cd" points="762.6236,-642.2688 772.7043,-639.0084 762.7906,-635.2708 762.6236,-642.2688"/>
<text text-anchor="middle" x="711" y="-643.0918" font-family="Helvetica,sans-Serif" font-size="10.00" fill="#000000"> req_module_entries</text>
</g>
<!-- Node56 -->
<g id="node22" class="node">
<title>Node56</title>
<g id="a_node22"><a xlink:href="structJSImportEntry.html" target="_top" xlink:title="JSImportEntry">
<polygon fill="none" stroke="#000000" points="343,-630.5918 343,-649.5918 423,-649.5918 423,-630.5918 343,-630.5918"/>
<text text-anchor="middle" x="383" y="-637.5918" font-family="Helvetica,sans-Serif" font-size="10.00" fill="#000000">JSImportEntry</text>
</a>
</g>
</g>
<!-- Node56&#45;&gt;Node53 -->
<g id="edge36" class="edge">
<title>Node56&#45;&gt;Node53</title>
<path fill="none" stroke="#9a32cd" stroke-dasharray="5,2" d="M433.083,-641.5086C463.6814,-642.4211 503.6053,-643.6951 539,-645.0918 547.336,-645.4207 556.2808,-645.8144 564.7622,-646.2067"/>
<polygon fill="#9a32cd" stroke="#9a32cd" points="433.1826,-638.0101 423.0836,-641.2134 432.976,-645.0071 433.1826,-638.0101"/>
<text text-anchor="middle" x="495.5" y="-648.0918" font-family="Helvetica,sans-Serif" font-size="10.00" fill="#000000"> import_entries</text>
</g>
<!-- Node57 -->
<g id="node23" class="node">
<title>Node57</title>
<g id="a_node23"><a xlink:href="structJSExportEntry.html" target="_top" xlink:title="JSExportEntry">
<polygon fill="none" stroke="#ff0000" points="343,-592.5918 343,-611.5918 423,-611.5918 423,-592.5918 343,-592.5918"/>
<text text-anchor="middle" x="383" y="-599.5918" font-family="Helvetica,sans-Serif" font-size="10.00" fill="#000000">JSExportEntry</text>
</a>
</g>
</g>
<!-- Node57&#45;&gt;Node53 -->
<g id="edge37" class="edge">
<title>Node57&#45;&gt;Node53</title>
<path fill="none" stroke="#9a32cd" stroke-dasharray="5,2" d="M433.1611,-608.0773C463.9447,-612.2567 504.035,-618.6101 539,-627.0918 551.7281,-630.1793 565.5691,-634.5848 577.113,-638.5641"/>
<polygon fill="#9a32cd" stroke="#9a32cd" points="433.4724,-604.5881 423.0991,-606.7434 432.5524,-611.5274 433.4724,-604.5881"/>
<text text-anchor="middle" x="495.5" y="-630.0918" font-family="Helvetica,sans-Serif" font-size="10.00" fill="#000000"> export_entries</text>
</g>
<!-- Node44 -->
<g id="node24" class="node">
<title>Node44</title>
<g id="a_node24"><a xlink:href="structJSVarDef.html" target="_top" xlink:title="JSVarDef">
<polygon fill="none" stroke="#000000" points="794,-365.5918 794,-384.5918 853,-384.5918 853,-365.5918 794,-365.5918"/>
<text text-anchor="middle" x="823.5" y="-372.5918" font-family="Helvetica,sans-Serif" font-size="10.00" fill="#000000">JSVarDef</text>
</a>
</g>
</g>
<!-- Node44&#45;&gt;Node2 -->
<g id="edge38" class="edge">
<title>Node44&#45;&gt;Node2</title>
<path fill="none" stroke="#9a32cd" stroke-dasharray="5,2" d="M863.2638,-368.1228C895.8336,-364.6353 941.6568,-365.0433 974,-387.0918 1013.3943,-413.947 1027.4695,-474.8379 1031.5622,-498.4668"/>
<polygon fill="#9a32cd" stroke="#9a32cd" points="862.6833,-364.6678 853.1888,-369.3695 863.543,-371.6148 862.6833,-364.6678"/>
<text text-anchor="middle" x="933" y="-401.0918" font-family="Helvetica,sans-Serif" font-size="10.00" fill="#000000"> args</text>
<text text-anchor="middle" x="933" y="-390.0918" font-family="Helvetica,sans-Serif" font-size="10.00" fill="#000000">vars</text>
</g>
<!-- Node58 -->
<g id="node25" class="node">
<title>Node58</title>
<g id="a_node25"><a xlink:href="structJSVarScope.html" target="_top" xlink:title="JSVarScope">
<polygon fill="none" stroke="#000000" points="788,-783.5918 788,-802.5918 859,-802.5918 859,-783.5918 788,-783.5918"/>
<text text-anchor="middle" x="823.5" y="-790.5918" font-family="Helvetica,sans-Serif" font-size="10.00" fill="#000000">JSVarScope</text>
</a>
</g>
</g>
<!-- Node58&#45;&gt;Node2 -->
<g id="edge39" class="edge">
<title>Node58&#45;&gt;Node2</title>
<path fill="none" stroke="#9a32cd" stroke-dasharray="5,2" d="M869.2523,-790.9995C907.8746,-788.27 959.1861,-782.063 974,-768.0918 1011.714,-732.5232 1028.6004,-560.1371 1032.2327,-517.5964"/>
<polygon fill="#9a32cd" stroke="#9a32cd" points="868.989,-787.5091 859.2373,-791.651 869.4435,-794.4944 868.989,-787.5091"/>
<text text-anchor="middle" x="933" y="-802.0918" font-family="Helvetica,sans-Serif" font-size="10.00" fill="#000000"> def_scope_array</text>
<text text-anchor="middle" x="933" y="-791.0918" font-family="Helvetica,sans-Serif" font-size="10.00" fill="#000000">scopes</text>
</g>
<!-- Node59&#45;&gt;Node1 -->
<g id="edge41" class="edge">
<title>Node59&#45;&gt;Node1</title>
<path fill="none" stroke="#9a32cd" stroke-dasharray="5,2" d="M749.3923,-306.4499C838.938,-304.9528 1060.8219,-301.2432 1150.7342,-299.7399"/>
<polygon fill="#9a32cd" stroke="#9a32cd" points="749.086,-302.9545 739.1459,-306.6212 749.2031,-309.9535 749.086,-302.9545"/>
<text text-anchor="middle" x="933" y="-307.0918" font-family="Helvetica,sans-Serif" font-size="10.00" fill="#000000"> token</text>
</g>
</g>
</svg>
        <g id="navigator" transform="translate(0 0)" fill="#404254">
                <rect fill="#f2f5e9" fill-opacity="0.5" stroke="#606060" stroke-width=".5" x="0" y="0" width="60" height="60"/>
                <use id="zoomplus" xlink:href="#zoomPlus" x="17" y="9" onmousedown="handleZoom(evt,'in')"/>
                <use id="zoomminus" xlink:href="#zoomMin" x="42" y="9" onmousedown="handleZoom(evt,'out')"/>
                <use id="reset" xlink:href="#resetDef" x="30" y="36" onmousedown="handleReset()"/>
                <g id="arrowUp" xlink:href="#dirArrow" transform="translate(30 24)" onmousedown="handlePan(0,-1)">
                  <use xlink:href="#rim" fill="#404040">
                        <set attributeName="fill" to="#808080" begin="arrowUp.mouseover" end="arrowUp.mouseout"/>
                  </use>
                  <path fill="none" stroke="white" stroke-width="1.5" d="M0,-3.0v7 M-2.5,-0.5L0,-3.0L2.5,-0.5"/>
                </g>
                <g id="arrowRight" xlink:href="#dirArrow" transform="rotate(90) translate(36 -43)" onmousedown="handlePan(1,0)">
                  <use xlink:href="#rim" fill="#404040">
                        <set attributeName="fill" to="#808080" begin="arrowRight.mouseover" end="arrowRight.mouseout"/>
                  </use>
                  <path fill="none" stroke="white" stroke-width="1.5" d="M0,-3.0v7 M-2.5,-0.5L0,-3.0L2.5,-0.5"/>
                </g>
                <g id="arrowDown" xlink:href="#dirArrow" transform="rotate(180) translate(-30 -48)" onmousedown="handlePan(0,1)">
                  <use xlink:href="#rim" fill="#404040">
                        <set attributeName="fill" to="#808080" begin="arrowDown.mouseover" end="arrowDown.mouseout"/>
                  </use>
                  <path fill="none" stroke="white" stroke-width="1.5" d="M0,-3.0v7 M-2.5,-0.5L0,-3.0L2.5,-0.5"/>
                </g>
                <g id="arrowLeft" xlink:href="#dirArrow" transform="rotate(270) translate(-36 17)" onmousedown="handlePan(-1,0)">
                  <use xlink:href="#rim" fill="#404040">
                        <set attributeName="fill" to="#808080" begin="arrowLeft.mouseover" end="arrowLeft.mouseout"/>
                  </use>
                  <path fill="none" stroke="white" stroke-width="1.5" d="M0,-3.0v7 M-2.5,-0.5L0,-3.0L2.5,-0.5"/>
                </g>
        </g>
        <svg viewBox="0 0 15 15" width="100%" height="30px" preserveAspectRatio="xMaxYMin meet">
         <g id="arrow_out" transform="scale(0.3 0.3)">
          <a xlink:href="structJSParseState__coll__graph_org.svg" target="_base">
           <rect id="button" ry="5" rx="5" y="6" x="6" height="38" width="38"
                fill="#f2f5e9" fill-opacity="0.5" stroke="#606060" stroke-width="1.0"/>
           <path id="arrow"
             d="M 11.500037,31.436501 C 11.940474,20.09759 22.043105,11.32322 32.158766,21.979434 L 37.068811,17.246167 C 37.068811,17.246167 37.088388,32 37.088388,32 L 22.160133,31.978069 C 22.160133,31.978069 26.997745,27.140456 26.997745,27.140456 C 18.528582,18.264221 13.291696,25.230495 11.500037,31.436501 z"
             style="fill:#404040;"/>
          </a>
         </g>
        </svg>
</svg>
