<?xml version="1.0" encoding="UTF-8" standalone="no"?>
<!DOCTYPE svg PUBLIC "-//W3C//DTD SVG 1.1//EN"
 "http://www.w3.org/Graphics/SVG/1.1/DTD/svg11.dtd">
<!-- Generated by graphviz version 2.40.1 (20161225.0304)
 -->
<!-- Title: JSFunctionDef Pages: 1 -->
<!--zoomable 893 -->
<svg id="main" version="1.1" xmlns="http://www.w3.org/2000/svg" xmlns:xlink="http://www.w3.org/1999/xlink" xml:space="preserve" onload="init(evt)">
<style type="text/css"><![CDATA[
.edge:hover path { stroke: red; }
.edge:hover polygon { stroke: red; fill: red; }
]]></style>
<script type="text/javascript"><![CDATA[
var edges = document.getElementsByTagName('g');
if (edges && edges.length) {
  for (var i=0;i<edges.length;i++) {
    if (edges[i].id.substr(0,4)=='edge') {
      edges[i].setAttribute('class','edge');
    }
  }
}
]]></script>
        <defs>
                <circle id="rim" cx="0" cy="0" r="7"/>
                <circle id="rim2" cx="0" cy="0" r="3.5"/>
                <g id="zoomPlus">
                        <use xlink:href="#rim" fill="#404040">
                                <set attributeName="fill" to="#808080" begin="zoomplus.mouseover" end="zoomplus.mouseout"/>
                        </use>
                        <path d="M-4,0h8M0,-4v8" fill="none" stroke="white" stroke-width="1.5" pointer-events="none"/>
                </g>
                <g id="zoomMin">
                        <use xlink:href="#rim" fill="#404040">
                                <set attributeName="fill" to="#808080" begin="zoomminus.mouseover" end="zoomminus.mouseout"/>
                        </use>
                        <path d="M-4,0h8" fill="none" stroke="white" stroke-width="1.5" pointer-events="none"/>
                </g>
                <g id="dirArrow">
                        <path fill="none" stroke="white" stroke-width="1.5" d="M0,-3.0v7 M-2.5,-0.5L0,-3.0L2.5,-0.5"/>
                </g>
               <g id="resetDef">
                       <use xlink:href="#rim2" fill="#404040">
                               <set attributeName="fill" to="#808080" begin="reset.mouseover" end="reset.mouseout"/>
                       </use>
               </g>
        </defs>

<script type="text/javascript">
var viewWidth = 1119;
var viewHeight = 893;
var sectionId = 'dynsection-0';
</script>
<script xlink:href="svgpan.js"/>
<svg id="graph" class="graph">
<g id="viewport">
<title>JSFunctionDef</title>
<!-- Node1 -->
<g id="node1" class="node">
<title>Node1</title>
<polygon fill="#bfbfbf" stroke="#000000" points="1029,-253.5 1029,-272.5 1111,-272.5 1111,-253.5 1029,-253.5"/>
<text text-anchor="middle" x="1070" y="-260.5" font-family="Helvetica,sans-Serif" font-size="10.00" fill="#000000">JSFunctionDef</text>
</g>
<!-- Node1&#45;&gt;Node1 -->
<g id="edge11" class="edge">
<title>Node1&#45;&gt;Node1</title>
<path fill="none" stroke="#9a32cd" stroke-dasharray="5,2" d="M1051.4824,-282.4C1052.7191,-287.3146 1058.8916,-291 1070,-291 1087.7734,-291 1092.9111,-281.5653 1085.4129,-272.7571"/>
<polygon fill="#9a32cd" stroke="#9a32cd" points="1054.8539,-283.3485 1054.5871,-272.7571 1048.1907,-281.2032 1054.8539,-283.3485"/>
<text text-anchor="middle" x="1070" y="-294" font-family="Helvetica,sans-Serif" font-size="10.00" fill="#000000"> parent</text>
</g>
<!-- Node2 -->
<g id="node2" class="node">
<title>Node2</title>
<g id="a_node2"><a xlink:href="structlist__head.html" target="_top" xlink:title="list_head">
<polygon fill="none" stroke="#000000" points="11.5,-483.5 11.5,-502.5 67.5,-502.5 67.5,-483.5 11.5,-483.5"/>
<text text-anchor="middle" x="39.5" y="-490.5" font-family="Helvetica,sans-Serif" font-size="10.00" fill="#000000">list_head</text>
</a>
</g>
</g>
<!-- Node2&#45;&gt;Node1 -->
<g id="edge1" class="edge">
<title>Node2&#45;&gt;Node1</title>
<path fill="none" stroke="#9a32cd" stroke-dasharray="5,2" d="M42.8317,-512.6876C56.3363,-589.2578 109.9353,-863 186,-863 186,-863 186,-863 868,-863 997.9705,-863 1060.1988,-350.925 1068.9248,-272.9135"/>
<polygon fill="#9a32cd" stroke="#9a32cd" points="46.2257,-511.7744 41.0712,-502.5179 39.3283,-512.9684 46.2257,-511.7744"/>
<text text-anchor="middle" x="577.5" y="-877" font-family="Helvetica,sans-Serif" font-size="10.00" fill="#000000"> child_list</text>
<text text-anchor="middle" x="577.5" y="-866" font-family="Helvetica,sans-Serif" font-size="10.00" fill="#000000">link</text>
</g>
<!-- Node2&#45;&gt;Node2 -->
<g id="edge2" class="edge">
<title>Node2&#45;&gt;Node2</title>
<path fill="none" stroke="#9a32cd" stroke-dasharray="5,2" d="M27.3457,-512.7663C28.3003,-517.4965 32.3517,-521 39.5,-521 51.2305,-521 54.6213,-511.5653 49.6725,-502.7571"/>
<polygon fill="#9a32cd" stroke="#9a32cd" points="30.8185,-513.2464 29.3275,-502.7571 23.9518,-511.8868 30.8185,-513.2464"/>
<text text-anchor="middle" x="39.5" y="-535" font-family="Helvetica,sans-Serif" font-size="10.00" fill="#000000"> prev</text>
<text text-anchor="middle" x="39.5" y="-524" font-family="Helvetica,sans-Serif" font-size="10.00" fill="#000000">next</text>
</g>
<!-- Node11 -->
<g id="node11" class="node">
<title>Node11</title>
<g id="a_node11"><a xlink:href="structJSContext.html" target="_top" xlink:title="JSContext">
<polygon fill="none" stroke="#000000" points="836.5,-381.5 836.5,-400.5 899.5,-400.5 899.5,-381.5 836.5,-381.5"/>
<text text-anchor="middle" x="868" y="-388.5" font-family="Helvetica,sans-Serif" font-size="10.00" fill="#000000">JSContext</text>
</a>
</g>
</g>
<!-- Node2&#45;&gt;Node11 -->
<g id="edge32" class="edge">
<title>Node2&#45;&gt;Node11</title>
<path fill="none" stroke="#9a32cd" stroke-dasharray="5,2" d="M48.2375,-474.0433C62.0653,-446.5113 91.8183,-396.3177 134,-374 182.0576,-348.5734 201.7303,-368.2933 256,-365 370.0341,-358.0799 406.8389,-317.7926 513,-360 523.2254,-364.0654 520.8612,-372.7232 531,-377 635.4004,-421.0385 774.5127,-406.5017 836.2159,-396.7788"/>
<polygon fill="#9a32cd" stroke="#9a32cd" points="44.9252,-472.8537 43.7249,-483.3803 51.2277,-475.8997 44.9252,-472.8537"/>
<text text-anchor="middle" x="437" y="-374" font-family="Helvetica,sans-Serif" font-size="10.00" fill="#000000"> loaded_modules</text>
<text text-anchor="middle" x="437" y="-363" font-family="Helvetica,sans-Serif" font-size="10.00" fill="#000000">link</text>
</g>
<!-- Node12 -->
<g id="node12" class="node">
<title>Node12</title>
<g id="a_node12"><a xlink:href="structJSRuntime.html" target="_top" xlink:title="JSRuntime">
<polygon fill="none" stroke="#000000" points="660,-521.5 660,-540.5 725,-540.5 725,-521.5 660,-521.5"/>
<text text-anchor="middle" x="692.5" y="-528.5" font-family="Helvetica,sans-Serif" font-size="10.00" fill="#000000">JSRuntime</text>
</a>
</g>
</g>
<!-- Node2&#45;&gt;Node12 -->
<g id="edge16" class="edge">
<title>Node2&#45;&gt;Node12</title>
<path fill="none" stroke="#9a32cd" stroke-dasharray="5,2" d="M78.0181,-497.7117C138.2772,-504.8843 258.5577,-518.4034 361,-525 436.432,-529.8574 455.4237,-528.6548 531,-530 575.5745,-530.7934 627.079,-530.987 659.7101,-531.0198"/>
<polygon fill="#9a32cd" stroke="#9a32cd" points="78.1753,-494.2056 67.8299,-496.4912 77.3426,-501.1559 78.1753,-494.2056"/>
<text text-anchor="middle" x="299.5" y="-581" font-family="Helvetica,sans-Serif" font-size="10.00" fill="#000000"> job_list</text>
<text text-anchor="middle" x="299.5" y="-570" font-family="Helvetica,sans-Serif" font-size="10.00" fill="#000000">tmp_obj_list</text>
<text text-anchor="start" x="259" y="-559" font-family="Helvetica,sans-Serif" font-size="10.00" fill="#000000">gc_zero_ref_count</text>
<text text-anchor="middle" x="299.5" y="-548" font-family="Helvetica,sans-Serif" font-size="10.00" fill="#000000">_list</text>
<text text-anchor="middle" x="299.5" y="-537" font-family="Helvetica,sans-Serif" font-size="10.00" fill="#000000">gc_obj_list</text>
<text text-anchor="middle" x="299.5" y="-526" font-family="Helvetica,sans-Serif" font-size="10.00" fill="#000000">context_list</text>
</g>
<!-- Node22 -->
<g id="node19" class="node">
<title>Node22</title>
<g id="a_node19"><a xlink:href="structJSGCObjectHeader.html" target="_top" xlink:title="JSGCObjectHeader">
<polygon fill="none" stroke="#000000" points="134,-686.5 134,-705.5 238,-705.5 238,-686.5 134,-686.5"/>
<text text-anchor="middle" x="186" y="-693.5" font-family="Helvetica,sans-Serif" font-size="10.00" fill="#000000">JSGCObjectHeader</text>
</a>
</g>
</g>
<!-- Node2&#45;&gt;Node22 -->
<g id="edge26" class="edge">
<title>Node2&#45;&gt;Node22</title>
<path fill="none" stroke="#9a32cd" stroke-dasharray="5,2" d="M52.3782,-510.8449C82.3396,-552.3614 155.921,-654.3205 178.9749,-686.2655"/>
<polygon fill="#9a32cd" stroke="#9a32cd" points="55.0597,-508.5795 46.3695,-502.5188 49.3834,-512.676 55.0597,-508.5795"/>
<text text-anchor="middle" x="106.5" y="-597" font-family="Helvetica,sans-Serif" font-size="10.00" fill="#000000"> link</text>
</g>
<!-- Node37 -->
<g id="node21" class="node">
<title>Node37</title>
<g id="a_node21"><a xlink:href="structJSStackFrame.html" target="_top" xlink:title="JSStackFrame">
<polygon fill="none" stroke="#000000" points="396,-391.5 396,-410.5 478,-410.5 478,-391.5 396,-391.5"/>
<text text-anchor="middle" x="437" y="-398.5" font-family="Helvetica,sans-Serif" font-size="10.00" fill="#000000">JSStackFrame</text>
</a>
</g>
</g>
<!-- Node2&#45;&gt;Node37 -->
<g id="edge29" class="edge">
<title>Node2&#45;&gt;Node37</title>
<path fill="none" stroke="#9a32cd" stroke-dasharray="5,2" d="M77.7311,-484.1515C152.7406,-466.7908 318.6026,-428.4027 395.8807,-410.5169"/>
<polygon fill="#9a32cd" stroke="#9a32cd" points="76.7218,-480.7925 67.7686,-486.4573 78.3003,-487.6123 76.7218,-480.7925"/>
<text text-anchor="middle" x="186" y="-473" font-family="Helvetica,sans-Serif" font-size="10.00" fill="#000000"> var_ref_list</text>
</g>
<!-- Node52 -->
<g id="node24" class="node">
<title>Node52</title>
<g id="a_node24"><a xlink:href="structJSModuleDef.html" target="_top" xlink:title="JSModuleDef">
<polygon fill="none" stroke="#000000" points="399,-78.5 399,-97.5 475,-97.5 475,-78.5 399,-78.5"/>
<text text-anchor="middle" x="437" y="-85.5" font-family="Helvetica,sans-Serif" font-size="10.00" fill="#000000">JSModuleDef</text>
</a>
</g>
</g>
<!-- Node2&#45;&gt;Node52 -->
<g id="edge39" class="edge">
<title>Node2&#45;&gt;Node52</title>
<path fill="none" stroke="#9a32cd" stroke-dasharray="5,2" d="M40.7097,-473.4225C43.996,-433.2386 55.8347,-339.7859 97,-275 146.4092,-197.2399 174.8528,-185.6237 256,-142 302.0687,-117.2341 360.9934,-102.3667 398.871,-94.6772"/>
<polygon fill="#9a32cd" stroke="#9a32cd" points="37.2127,-473.2544 39.9793,-483.4816 44.1944,-473.7614 37.2127,-473.2544"/>
<text text-anchor="middle" x="186" y="-226" font-family="Helvetica,sans-Serif" font-size="10.00" fill="#000000"> link</text>
</g>
<!-- Node3 -->
<g id="node3" class="node">
<title>Node3</title>
<g id="a_node3"><a xlink:href="structBlockEnv.html" target="_top" xlink:title="BlockEnv">
<polygon fill="none" stroke="#000000" points="838.5,-457.5 838.5,-476.5 897.5,-476.5 897.5,-457.5 838.5,-457.5"/>
<text text-anchor="middle" x="868" y="-464.5" font-family="Helvetica,sans-Serif" font-size="10.00" fill="#000000">BlockEnv</text>
</a>
</g>
</g>
<!-- Node3&#45;&gt;Node1 -->
<g id="edge3" class="edge">
<title>Node3&#45;&gt;Node1</title>
<path fill="none" stroke="#9a32cd" stroke-dasharray="5,2" d="M908.0118,-468.7818C939.6237,-468.0237 982.9468,-461.8707 1011,-437 1036.7778,-414.1466 1061.0585,-305.9853 1068.0169,-272.7428"/>
<polygon fill="#9a32cd" stroke="#9a32cd" points="907.7551,-465.2834 897.7791,-468.8513 907.8027,-472.2832 907.7551,-465.2834"/>
<text text-anchor="middle" x="970" y="-470" font-family="Helvetica,sans-Serif" font-size="10.00" fill="#000000"> top_break</text>
</g>
<!-- Node3&#45;&gt;Node3 -->
<g id="edge4" class="edge">
<title>Node3&#45;&gt;Node3</title>
<path fill="none" stroke="#9a32cd" stroke-dasharray="5,2" d="M852.5309,-486.7663C853.7459,-491.4965 858.9022,-495 868,-495 882.9297,-495 887.2453,-485.5653 880.9468,-476.7571"/>
<polygon fill="#9a32cd" stroke="#9a32cd" points="856.0034,-487.3092 855.0532,-476.7571 849.2156,-485.5986 856.0034,-487.3092"/>
<text text-anchor="middle" x="868" y="-498" font-family="Helvetica,sans-Serif" font-size="10.00" fill="#000000"> prev</text>
</g>
<!-- Node4 -->
<g id="node4" class="node">
<title>Node4</title>
<g id="a_node4"><a xlink:href="structJSValue.html" target="_top" xlink:title="JSValue">
<polygon fill="none" stroke="#000000" points="159.5,-269.5 159.5,-288.5 212.5,-288.5 212.5,-269.5 159.5,-269.5"/>
<text text-anchor="middle" x="186" y="-276.5" font-family="Helvetica,sans-Serif" font-size="10.00" fill="#000000">JSValue</text>
</a>
</g>
</g>
<!-- Node4&#45;&gt;Node1 -->
<g id="edge5" class="edge">
<title>Node4&#45;&gt;Node1</title>
<path fill="none" stroke="#9a32cd" stroke-dasharray="5,2" d="M204.7682,-262.6698C218.0752,-252.2215 236.8967,-239.6107 256,-234 293.0996,-223.1038 304.3359,-233.5576 343,-234 595.494,-236.8891 658.9682,-231.4584 911,-247 951.1519,-249.476 996.829,-254.2802 1028.8909,-257.9809"/>
<polygon fill="#9a32cd" stroke="#9a32cd" points="202.3969,-260.0877 196.8724,-269.1282 206.8289,-265.506 202.3969,-260.0877"/>
<text text-anchor="middle" x="692.5" y="-241" font-family="Helvetica,sans-Serif" font-size="10.00" fill="#000000"> cpool</text>
</g>
<!-- Node4&#45;&gt;Node11 -->
<g id="edge33" class="edge">
<title>Node4&#45;&gt;Node11</title>
<path fill="none" stroke="#9a32cd" stroke-dasharray="5,2" d="M222.8276,-275.795C321.2833,-267.4063 585.7197,-246.1161 624,-256 648.9611,-262.4449 801.3007,-351.6223 851.7731,-381.3986"/>
<polygon fill="#9a32cd" stroke="#9a32cd" points="222.4101,-272.3179 212.7453,-276.6585 223.0075,-279.2924 222.4101,-272.3179"/>
<text text-anchor="middle" x="577.5" y="-369" font-family="Helvetica,sans-Serif" font-size="10.00" fill="#000000"> async_iterator_proto</text>
<text text-anchor="middle" x="577.5" y="-358" font-family="Helvetica,sans-Serif" font-size="10.00" fill="#000000">function_proto</text>
<text text-anchor="middle" x="577.5" y="-347" font-family="Helvetica,sans-Serif" font-size="10.00" fill="#000000">function_ctor</text>
<text text-anchor="middle" x="577.5" y="-336" font-family="Helvetica,sans-Serif" font-size="10.00" fill="#000000">array_ctor</text>
<text text-anchor="middle" x="577.5" y="-325" font-family="Helvetica,sans-Serif" font-size="10.00" fill="#000000">class_proto</text>
<text text-anchor="middle" x="577.5" y="-314" font-family="Helvetica,sans-Serif" font-size="10.00" fill="#000000">array_proto_values</text>
<text text-anchor="middle" x="577.5" y="-303" font-family="Helvetica,sans-Serif" font-size="10.00" fill="#000000">regexp_ctor</text>
<text text-anchor="middle" x="577.5" y="-292" font-family="Helvetica,sans-Serif" font-size="10.00" fill="#000000">throw_type_error</text>
<text text-anchor="middle" x="577.5" y="-281" font-family="Helvetica,sans-Serif" font-size="10.00" fill="#000000">native_error_proto</text>
<text text-anchor="middle" x="577.5" y="-270" font-family="Helvetica,sans-Serif" font-size="10.00" fill="#000000">eval_obj</text>
<text text-anchor="middle" x="577.5" y="-259" font-family="Helvetica,sans-Serif" font-size="10.00" fill="#000000">...</text>
</g>
<!-- Node4&#45;&gt;Node12 -->
<g id="edge18" class="edge">
<title>Node4&#45;&gt;Node12</title>
<path fill="none" stroke="#9a32cd" stroke-dasharray="5,2" d="M222.4927,-285.0694C233.2679,-286.7708 245.0954,-288.55 256,-290 312.9478,-297.5724 469.0007,-281.0615 513,-318 534.9758,-336.4492 512.9572,-357.6893 531,-380 560.5092,-416.4895 589.1578,-398.5628 624,-430 654.6744,-457.6767 678.363,-501.7915 687.9105,-521.2434"/>
<polygon fill="#9a32cd" stroke="#9a32cd" points="222.9769,-281.6024 212.5489,-283.4752 221.8687,-288.5141 222.9769,-281.6024"/>
<text text-anchor="middle" x="437" y="-321" font-family="Helvetica,sans-Serif" font-size="10.00" fill="#000000"> current_exception</text>
</g>
<!-- Node4&#45;&gt;Node37 -->
<g id="edge30" class="edge">
<title>Node4&#45;&gt;Node37</title>
<path fill="none" stroke="#9a32cd" stroke-dasharray="5,2" d="M209.366,-294.1327C242.1981,-314.9132 304.3248,-352.4895 361,-377 373.9539,-382.6022 388.6504,-387.5502 401.6443,-391.476"/>
<polygon fill="#9a32cd" stroke="#9a32cd" points="211.2249,-291.1671 200.9114,-288.7418 207.4614,-297.0693 211.2249,-291.1671"/>
<text text-anchor="middle" x="299.5" y="-404" font-family="Helvetica,sans-Serif" font-size="10.00" fill="#000000"> var_buf</text>
<text text-anchor="middle" x="299.5" y="-393" font-family="Helvetica,sans-Serif" font-size="10.00" fill="#000000">arg_buf</text>
<text text-anchor="middle" x="299.5" y="-382" font-family="Helvetica,sans-Serif" font-size="10.00" fill="#000000">cur_sp</text>
<text text-anchor="middle" x="299.5" y="-371" font-family="Helvetica,sans-Serif" font-size="10.00" fill="#000000">cur_func</text>
</g>
<!-- Node4&#45;&gt;Node52 -->
<g id="edge40" class="edge">
<title>Node4&#45;&gt;Node52</title>
<path fill="none" stroke="#9a32cd" stroke-dasharray="5,2" d="M192.2326,-259.8859C201.7489,-233.7599 222.4196,-187.2664 256,-162 287.959,-137.9536 305.8252,-153.7525 343,-139 372.1651,-127.4261 403.7889,-108.9072 421.9149,-97.6569"/>
<polygon fill="#9a32cd" stroke="#9a32cd" points="188.8974,-258.8212 188.9299,-269.4159 195.5115,-261.1134 188.8974,-258.8212"/>
<text text-anchor="middle" x="299.5" y="-198" font-family="Helvetica,sans-Serif" font-size="10.00" fill="#000000"> func_obj</text>
<text text-anchor="middle" x="299.5" y="-187" font-family="Helvetica,sans-Serif" font-size="10.00" fill="#000000">meta_obj</text>
<text text-anchor="middle" x="299.5" y="-176" font-family="Helvetica,sans-Serif" font-size="10.00" fill="#000000">eval_exception</text>
<text text-anchor="middle" x="299.5" y="-165" font-family="Helvetica,sans-Serif" font-size="10.00" fill="#000000">module_ns</text>
</g>
<!-- Node5 -->
<g id="node5" class="node">
<title>Node5</title>
<g id="a_node5"><a xlink:href="unionJSValueUnion.html" target="_top" xlink:title="JSValueUnion">
<polygon fill="none" stroke="#000000" points="0,-269.5 0,-288.5 79,-288.5 79,-269.5 0,-269.5"/>
<text text-anchor="middle" x="39.5" y="-276.5" font-family="Helvetica,sans-Serif" font-size="10.00" fill="#000000">JSValueUnion</text>
</a>
</g>
</g>
<!-- Node5&#45;&gt;Node4 -->
<g id="edge6" class="edge">
<title>Node5&#45;&gt;Node4</title>
<path fill="none" stroke="#9a32cd" stroke-dasharray="5,2" d="M89.2838,-279C112.7337,-279 139.7712,-279 159.2867,-279"/>
<polygon fill="#9a32cd" stroke="#9a32cd" points="89.145,-275.5001 79.145,-279 89.145,-282.5001 89.145,-275.5001"/>
<text text-anchor="middle" x="106.5" y="-282" font-family="Helvetica,sans-Serif" font-size="10.00" fill="#000000"> u</text>
</g>
<!-- Node6 -->
<g id="node6" class="node">
<title>Node6</title>
<g id="a_node6"><a xlink:href="structLabelSlot.html" target="_top" xlink:title="LabelSlot">
<polygon fill="none" stroke="#000000" points="839.5,-419.5 839.5,-438.5 896.5,-438.5 896.5,-419.5 839.5,-419.5"/>
<text text-anchor="middle" x="868" y="-426.5" font-family="Helvetica,sans-Serif" font-size="10.00" fill="#000000">LabelSlot</text>
</a>
</g>
</g>
<!-- Node6&#45;&gt;Node1 -->
<g id="edge7" class="edge">
<title>Node6&#45;&gt;Node1</title>
<path fill="none" stroke="#9a32cd" stroke-dasharray="5,2" d="M907.1083,-425.1556C943.8108,-420.8366 995.3402,-412.7183 1011,-400 1052.4101,-366.3682 1065.3796,-298.1521 1068.8662,-272.7881"/>
<polygon fill="#9a32cd" stroke="#9a32cd" points="906.2674,-421.728 896.7215,-426.3243 907.0502,-428.6841 906.2674,-421.728"/>
<text text-anchor="middle" x="970" y="-425" font-family="Helvetica,sans-Serif" font-size="10.00" fill="#000000"> label_slots</text>
</g>
<!-- Node7 -->
<g id="node7" class="node">
<title>Node7</title>
<g id="a_node7"><a xlink:href="structRelocEntry.html" target="_top" xlink:title="RelocEntry">
<polygon fill="none" stroke="#000000" points="660,-786.5 660,-805.5 725,-805.5 725,-786.5 660,-786.5"/>
<text text-anchor="middle" x="692.5" y="-793.5" font-family="Helvetica,sans-Serif" font-size="10.00" fill="#000000">RelocEntry</text>
</a>
</g>
</g>
<!-- Node7&#45;&gt;Node6 -->
<g id="edge8" class="edge">
<title>Node7&#45;&gt;Node6</title>
<path fill="none" stroke="#9a32cd" stroke-dasharray="5,2" d="M735.4415,-798.8521C760.1686,-797.9752 789.6849,-792.1514 807,-772 853.9956,-717.3062 783.9792,-507.3067 825,-448 828.5285,-442.8986 833.7517,-439.1516 839.3525,-436.4044"/>
<polygon fill="#9a32cd" stroke="#9a32cd" points="735.1522,-795.3547 725.1869,-798.9524 735.2207,-802.3544 735.1522,-795.3547"/>
<text text-anchor="middle" x="784" y="-798" font-family="Helvetica,sans-Serif" font-size="10.00" fill="#000000"> first_reloc</text>
</g>
<!-- Node7&#45;&gt;Node7 -->
<g id="edge9" class="edge">
<title>Node7&#45;&gt;Node7</title>
<path fill="none" stroke="#9a32cd" stroke-dasharray="5,2" d="M675.8341,-815.4C676.9472,-820.3146 682.5024,-824 692.5,-824 708.4961,-824 713.12,-814.5653 706.3716,-805.7571"/>
<polygon fill="#9a32cd" stroke="#9a32cd" points="679.2068,-816.3361 678.6284,-805.7571 672.4834,-814.3878 679.2068,-816.3361"/>
<text text-anchor="middle" x="692.5" y="-827" font-family="Helvetica,sans-Serif" font-size="10.00" fill="#000000"> next</text>
</g>
<!-- Node8 -->
<g id="node8" class="node">
<title>Node8</title>
<g id="a_node8"><a xlink:href="structJSGlobalVar.html" target="_top" xlink:title="JSGlobalVar">
<polygon fill="none" stroke="#000000" points="832.5,-336.5 832.5,-355.5 903.5,-355.5 903.5,-336.5 832.5,-336.5"/>
<text text-anchor="middle" x="868" y="-343.5" font-family="Helvetica,sans-Serif" font-size="10.00" fill="#000000">JSGlobalVar</text>
</a>
</g>
</g>
<!-- Node8&#45;&gt;Node1 -->
<g id="edge10" class="edge">
<title>Node8&#45;&gt;Node1</title>
<path fill="none" stroke="#9a32cd" stroke-dasharray="5,2" d="M914.0859,-342.4955C943.1538,-338.8275 980.7759,-331.3275 1011,-316 1032.1219,-305.2885 1051.4948,-285.0455 1061.9341,-272.9143"/>
<polygon fill="#9a32cd" stroke="#9a32cd" points="913.3271,-339.0597 903.7932,-343.6809 914.128,-346.0137 913.3271,-339.0597"/>
<text text-anchor="middle" x="970" y="-342" font-family="Helvetica,sans-Serif" font-size="10.00" fill="#000000"> global_vars</text>
</g>
<!-- Node9 -->
<g id="node9" class="node">
<title>Node9</title>
<g id="a_node9"><a xlink:href="structJumpSlot.html" target="_top" xlink:title="JumpSlot">
<polygon fill="none" stroke="#000000" points="839,-298.5 839,-317.5 897,-317.5 897,-298.5 839,-298.5"/>
<text text-anchor="middle" x="868" y="-305.5" font-family="Helvetica,sans-Serif" font-size="10.00" fill="#000000">JumpSlot</text>
</a>
</g>
</g>
<!-- Node9&#45;&gt;Node1 -->
<g id="edge12" class="edge">
<title>Node9&#45;&gt;Node1</title>
<path fill="none" stroke="#9a32cd" stroke-dasharray="5,2" d="M907.2886,-304.3011C936.2896,-301.0069 976.5374,-295.2483 1011,-286 1023.848,-282.5522 1037.7314,-277.2253 1048.8012,-272.566"/>
<polygon fill="#9a32cd" stroke="#9a32cd" points="906.707,-300.8436 897.1444,-305.4051 907.4644,-307.8025 906.707,-300.8436"/>
<text text-anchor="middle" x="970" y="-304" font-family="Helvetica,sans-Serif" font-size="10.00" fill="#000000"> jump_slots</text>
</g>
<!-- Node10 -->
<g id="node10" class="node">
<title>Node10</title>
<g id="a_node10"><a xlink:href="structDynBuf.html" target="_top" xlink:title="DynBuf">
<polygon fill="none" stroke="#000000" points="843,-256.5 843,-275.5 893,-275.5 893,-256.5 843,-256.5"/>
<text text-anchor="middle" x="868" y="-263.5" font-family="Helvetica,sans-Serif" font-size="10.00" fill="#000000">DynBuf</text>
</a>
</g>
</g>
<!-- Node10&#45;&gt;Node1 -->
<g id="edge13" class="edge">
<title>Node10&#45;&gt;Node1</title>
<path fill="none" stroke="#9a32cd" stroke-dasharray="5,2" d="M903.4622,-264.6833C911.8354,-264.4151 920.7318,-264.1648 929,-264 962.653,-263.3291 1000.8319,-263.0904 1028.9665,-263.0132"/>
<polygon fill="#9a32cd" stroke="#9a32cd" points="903.0995,-261.1934 893.2228,-265.0276 903.3348,-268.1894 903.0995,-261.1934"/>
<text text-anchor="middle" x="970" y="-278" font-family="Helvetica,sans-Serif" font-size="10.00" fill="#000000"> pc2line</text>
<text text-anchor="middle" x="970" y="-267" font-family="Helvetica,sans-Serif" font-size="10.00" fill="#000000">byte_code</text>
</g>
<!-- Node11&#45;&gt;Node1 -->
<g id="edge14" class="edge">
<title>Node11&#45;&gt;Node1</title>
<path fill="none" stroke="#9a32cd" stroke-dasharray="5,2" d="M910.0922,-388.206C940.5572,-384.3729 981.4082,-375.3224 1011,-354 1040.6356,-332.6461 1059.2372,-291.3972 1066.5092,-272.6698"/>
<polygon fill="#9a32cd" stroke="#9a32cd" points="909.3353,-384.7687 899.785,-389.3558 910.1114,-391.7255 909.3353,-384.7687"/>
<text text-anchor="middle" x="970" y="-388" font-family="Helvetica,sans-Serif" font-size="10.00" fill="#000000"> ctx</text>
</g>
<!-- Node12&#45;&gt;Node11 -->
<g id="edge15" class="edge">
<title>Node12&#45;&gt;Node11</title>
<path fill="none" stroke="#9a32cd" stroke-dasharray="5,2" d="M707.9546,-513.6877C731.3075,-488.321 777.8842,-440.7386 825,-410 830.4684,-406.4324 836.7183,-403.2391 842.7272,-400.5345"/>
<polygon fill="#9a32cd" stroke="#9a32cd" points="705.096,-511.6289 700.958,-521.3822 710.2751,-516.3382 705.096,-511.6289"/>
<text text-anchor="middle" x="784" y="-461" font-family="Helvetica,sans-Serif" font-size="10.00" fill="#000000"> rt</text>
</g>
<!-- Node13 -->
<g id="node13" class="node">
<title>Node13</title>
<g id="a_node13"><a xlink:href="structJSMallocState.html" target="_top" xlink:title="JSMallocState">
<polygon fill="none" stroke="#000000" points="397,-648.5 397,-667.5 477,-667.5 477,-648.5 397,-648.5"/>
<text text-anchor="middle" x="437" y="-655.5" font-family="Helvetica,sans-Serif" font-size="10.00" fill="#000000">JSMallocState</text>
</a>
</g>
</g>
<!-- Node13&#45;&gt;Node12 -->
<g id="edge17" class="edge">
<title>Node13&#45;&gt;Node12</title>
<path fill="none" stroke="#9a32cd" stroke-dasharray="5,2" d="M487.3658,-654.3241C534.7927,-650.0852 601.7749,-641.8568 624,-628 658.464,-606.5126 680.4499,-560.6544 688.7535,-540.6579"/>
<polygon fill="#9a32cd" stroke="#9a32cd" points="486.9301,-650.8486 477.2672,-655.1934 487.5305,-657.8228 486.9301,-650.8486"/>
<text text-anchor="middle" x="577.5" y="-652" font-family="Helvetica,sans-Serif" font-size="10.00" fill="#000000"> malloc_state</text>
</g>
<!-- Node14 -->
<g id="node14" class="node">
<title>Node14</title>
<g id="a_node14"><a xlink:href="structJSMallocFunctions.html" target="_top" xlink:title="JSMallocFunctions">
<polygon fill="none" stroke="#000000" points="387,-610.5 387,-629.5 487,-629.5 487,-610.5 387,-610.5"/>
<text text-anchor="middle" x="437" y="-617.5" font-family="Helvetica,sans-Serif" font-size="10.00" fill="#000000">JSMallocFunctions</text>
</a>
</g>
</g>
<!-- Node14&#45;&gt;Node12 -->
<g id="edge19" class="edge">
<title>Node14&#45;&gt;Node12</title>
<path fill="none" stroke="#9a32cd" stroke-dasharray="5,2" d="M497.5189,-618.138C535.3599,-615.0309 584.2803,-607.3816 624,-589 649.1724,-577.3507 672.4564,-553.8605 684.3082,-540.6277"/>
<polygon fill="#9a32cd" stroke="#9a32cd" points="496.8732,-614.6759 487.1564,-618.8991 497.386,-621.6571 496.8732,-614.6759"/>
<text text-anchor="middle" x="577.5" y="-616" font-family="Helvetica,sans-Serif" font-size="10.00" fill="#000000"> mf</text>
</g>
<!-- Node15 -->
<g id="node15" class="node">
<title>Node15</title>
<g id="a_node15"><a xlink:href="structJSSharedArrayBufferFunctions.html" target="_top" xlink:title="JSSharedArrayBufferFunctions">
<polygon fill="none" stroke="#000000" points="361,-572.5 361,-591.5 513,-591.5 513,-572.5 361,-572.5"/>
<text text-anchor="middle" x="437" y="-579.5" font-family="Helvetica,sans-Serif" font-size="10.00" fill="#000000">JSSharedArrayBufferFunctions</text>
</a>
</g>
</g>
<!-- Node15&#45;&gt;Node12 -->
<g id="edge20" class="edge">
<title>Node15&#45;&gt;Node12</title>
<path fill="none" stroke="#9a32cd" stroke-dasharray="5,2" d="M523.5251,-575.412C555.4347,-571.8044 591.6757,-566.3073 624,-558 640.7137,-553.7046 658.8489,-546.4311 672.2585,-540.5149"/>
<polygon fill="#9a32cd" stroke="#9a32cd" points="522.8917,-571.9601 513.3275,-576.5181 523.6466,-578.9193 522.8917,-571.9601"/>
<text text-anchor="middle" x="577.5" y="-577" font-family="Helvetica,sans-Serif" font-size="10.00" fill="#000000"> sab_funcs</text>
</g>
<!-- Node16 -->
<g id="node16" class="node">
<title>Node16</title>
<g id="a_node16"><a xlink:href="structJSString.html" target="_top" xlink:title="JSString">
<polygon fill="none" stroke="#000000" points="410,-458.5 410,-477.5 464,-477.5 464,-458.5 410,-458.5"/>
<text text-anchor="middle" x="437" y="-465.5" font-family="Helvetica,sans-Serif" font-size="10.00" fill="#000000">JSString</text>
</a>
</g>
</g>
<!-- Node16&#45;&gt;Node12 -->
<g id="edge21" class="edge">
<title>Node16&#45;&gt;Node12</title>
<path fill="none" stroke="#9a32cd" stroke-dasharray="5,2" d="M474.4787,-469.6697C512.8482,-472.2383 573.8041,-478.7194 624,-495 643.6802,-501.3831 664.4712,-513.1141 677.9148,-521.4489"/>
<polygon fill="#9a32cd" stroke="#9a32cd" points="474.4788,-466.1632 464.2832,-469.0441 474.05,-473.1501 474.4788,-466.1632"/>
<text text-anchor="middle" x="577.5" y="-498" font-family="Helvetica,sans-Serif" font-size="10.00" fill="#000000"> atom_array</text>
</g>
<!-- Node17 -->
<g id="node17" class="node">
<title>Node17</title>
<g id="a_node17"><a xlink:href="structJSRefCountHeader.html" target="_top" xlink:title="JSRefCountHeader">
<polygon fill="none" stroke="#000000" points="135,-383.5 135,-402.5 237,-402.5 237,-383.5 135,-383.5"/>
<text text-anchor="middle" x="186" y="-390.5" font-family="Helvetica,sans-Serif" font-size="10.00" fill="#000000">JSRefCountHeader</text>
</a>
</g>
</g>
<!-- Node17&#45;&gt;Node16 -->
<g id="edge22" class="edge">
<title>Node17&#45;&gt;Node16</title>
<path fill="none" stroke="#9a32cd" stroke-dasharray="5,2" d="M213.3785,-407.3811C221.3658,-411.6737 230.0753,-416.4495 238,-421 246.1305,-425.6687 247.2672,-428.5883 256,-432 308.2245,-452.4028 373.6297,-461.7339 409.7906,-465.5962"/>
<polygon fill="#9a32cd" stroke="#9a32cd" points="214.8949,-404.2232 204.4242,-402.6063 211.6012,-410.3999 214.8949,-404.2232"/>
<text text-anchor="middle" x="299.5" y="-457" font-family="Helvetica,sans-Serif" font-size="10.00" fill="#000000"> header</text>
</g>
<!-- Node17&#45;&gt;Node52 -->
<g id="edge41" class="edge">
<title>Node17&#45;&gt;Node52</title>
<path fill="none" stroke="#9a32cd" stroke-dasharray="5,2" d="M200.6988,-375.0863C214.7713,-358.0017 236.66,-331.5985 256,-309 294.0862,-264.4966 305.7718,-255.2236 343,-210 376.6476,-169.1259 414.4779,-118.4979 429.8926,-97.6551"/>
<polygon fill="#9a32cd" stroke="#9a32cd" points="197.7558,-373.1547 194.1072,-383.1015 203.1624,-377.601 197.7558,-373.1547"/>
<text text-anchor="middle" x="299.5" y="-312" font-family="Helvetica,sans-Serif" font-size="10.00" fill="#000000"> header</text>
</g>
<!-- Node18 -->
<g id="node18" class="node">
<title>Node18</title>
<g id="a_node18"><a xlink:href="structJSShape.html" target="_top" xlink:title="JSShape">
<polygon fill="none" stroke="#ff0000" points="409,-686.5 409,-705.5 465,-705.5 465,-686.5 409,-686.5"/>
<text text-anchor="middle" x="437" y="-693.5" font-family="Helvetica,sans-Serif" font-size="10.00" fill="#000000">JSShape</text>
</a>
</g>
</g>
<!-- Node18&#45;&gt;Node11 -->
<g id="edge34" class="edge">
<title>Node18&#45;&gt;Node11</title>
<path fill="none" stroke="#9a32cd" stroke-dasharray="5,2" d="M475.2297,-705.8143C514.571,-713.8271 576.631,-720.5317 624,-698 740.4022,-642.6318 747.4129,-587.3 807,-473 820.4616,-447.1778 805.8748,-431.9597 825,-410 828.3233,-406.1841 832.5591,-403.1021 837.0704,-400.6224"/>
<polygon fill="#9a32cd" stroke="#9a32cd" points="475.768,-702.3499 465.2538,-703.6548 474.2869,-709.1914 475.768,-702.3499"/>
<text text-anchor="middle" x="692.5" y="-691" font-family="Helvetica,sans-Serif" font-size="10.00" fill="#000000"> array_shape</text>
</g>
<!-- Node18&#45;&gt;Node12 -->
<g id="edge23" class="edge">
<title>Node18&#45;&gt;Node12</title>
<path fill="none" stroke="#9a32cd" stroke-dasharray="5,2" d="M475.4211,-691.2835C526.6255,-684.7162 612.1933,-672.6508 624,-664 667.159,-632.3774 685.2142,-565.527 690.6207,-540.6199"/>
<polygon fill="#9a32cd" stroke="#9a32cd" points="474.8427,-687.8288 465.3628,-692.5597 475.7238,-694.7731 474.8427,-687.8288"/>
<text text-anchor="middle" x="577.5" y="-686" font-family="Helvetica,sans-Serif" font-size="10.00" fill="#000000"> shape_hash</text>
</g>
<!-- Node18&#45;&gt;Node18 -->
<g id="edge24" class="edge">
<title>Node18&#45;&gt;Node18</title>
<path fill="none" stroke="#9a32cd" stroke-dasharray="5,2" d="M411.7025,-715.0292C413.0824,-720.128 421.5149,-724 437,-724 461.1719,-724 468.1591,-714.5653 457.9615,-705.7571"/>
<polygon fill="#9a32cd" stroke="#9a32cd" points="414.9728,-716.2982 416.0385,-705.7571 408.6319,-713.3329 414.9728,-716.2982"/>
<text text-anchor="middle" x="437" y="-727" font-family="Helvetica,sans-Serif" font-size="10.00" fill="#000000"> shape_hash_next</text>
</g>
<!-- Node22&#45;&gt;Node11 -->
<g id="edge35" class="edge">
<title>Node22&#45;&gt;Node11</title>
<path fill="none" stroke="#9a32cd" stroke-dasharray="5,2" d="M218.5711,-709.2624C312.493,-745.1249 587.0655,-832.8923 743,-703 805.3505,-651.0625 786.7422,-610.5793 807,-532 820.6825,-478.9261 791.8037,-453.6125 825,-410 827.9659,-406.1034 831.9036,-402.9897 836.1947,-400.5058"/>
<polygon fill="#9a32cd" stroke="#9a32cd" points="219.6272,-705.9179 209.0384,-705.5619 217.0941,-712.4435 219.6272,-705.9179"/>
<text text-anchor="middle" x="577.5" y="-774" font-family="Helvetica,sans-Serif" font-size="10.00" fill="#000000"> header</text>
</g>
<!-- Node22&#45;&gt;Node18 -->
<g id="edge25" class="edge">
<title>Node22&#45;&gt;Node18</title>
<path fill="none" stroke="#9a32cd" stroke-dasharray="5,2" d="M248.0143,-696C299.4104,-696 370.0906,-696 408.8108,-696"/>
<polygon fill="#9a32cd" stroke="#9a32cd" points="248.0074,-692.5001 238.0074,-696 248.0073,-699.5001 248.0074,-692.5001"/>
<text text-anchor="middle" x="299.5" y="-699" font-family="Helvetica,sans-Serif" font-size="10.00" fill="#000000"> header</text>
</g>
<!-- Node49 -->
<g id="node20" class="node">
<title>Node49</title>
<g id="a_node20"><a xlink:href="structJSClass.html" target="_top" xlink:title="JSClass">
<polygon fill="none" stroke="#ff0000" points="410,-496.5 410,-515.5 464,-515.5 464,-496.5 410,-496.5"/>
<text text-anchor="middle" x="437" y="-503.5" font-family="Helvetica,sans-Serif" font-size="10.00" fill="#000000">JSClass</text>
</a>
</g>
</g>
<!-- Node49&#45;&gt;Node12 -->
<g id="edge27" class="edge">
<title>Node49&#45;&gt;Node12</title>
<path fill="none" stroke="#9a32cd" stroke-dasharray="5,2" d="M474.0668,-507.4391C511.8741,-509.1737 572.1785,-512.677 624,-519 635.7449,-520.4331 648.536,-522.5275 659.8511,-524.5669"/>
<polygon fill="#9a32cd" stroke="#9a32cd" points="474.1701,-503.9404 464.0255,-506.9959 473.8614,-510.9336 474.1701,-503.9404"/>
<text text-anchor="middle" x="577.5" y="-522" font-family="Helvetica,sans-Serif" font-size="10.00" fill="#000000"> class_array</text>
</g>
<!-- Node37&#45;&gt;Node12 -->
<g id="edge28" class="edge">
<title>Node37&#45;&gt;Node12</title>
<path fill="none" stroke="#9a32cd" stroke-dasharray="5,2" d="M480.1403,-413.3907C531.3889,-428.3 611.5525,-452.2916 624,-460 650.7938,-476.5927 674.4587,-506.0121 685.6508,-521.248"/>
<polygon fill="#9a32cd" stroke="#9a32cd" points="480.8839,-409.9622 470.3047,-410.5375 478.9336,-416.685 480.8839,-409.9622"/>
<text text-anchor="middle" x="577.5" y="-463" font-family="Helvetica,sans-Serif" font-size="10.00" fill="#000000"> current_stack_frame</text>
</g>
<!-- Node37&#45;&gt;Node37 -->
<g id="edge31" class="edge">
<title>Node37&#45;&gt;Node37</title>
<path fill="none" stroke="#9a32cd" stroke-dasharray="5,2" d="M411.7025,-420.0292C413.0824,-425.128 421.5149,-429 437,-429 461.1719,-429 468.1591,-419.5653 457.9615,-410.7571"/>
<polygon fill="#9a32cd" stroke="#9a32cd" points="414.9728,-421.2982 416.0385,-410.7571 408.6319,-418.3329 414.9728,-421.2982"/>
<text text-anchor="middle" x="437" y="-432" font-family="Helvetica,sans-Serif" font-size="10.00" fill="#000000"> prev_frame</text>
</g>
<!-- Node51 -->
<g id="node22" class="node">
<title>Node51</title>
<g id="a_node22"><a xlink:href="structLineNumberSlot.html" target="_top" xlink:title="LineNumberSlot">
<polygon fill="none" stroke="#000000" points="825,-180.5 825,-199.5 911,-199.5 911,-180.5 825,-180.5"/>
<text text-anchor="middle" x="868" y="-187.5" font-family="Helvetica,sans-Serif" font-size="10.00" fill="#000000">LineNumberSlot</text>
</a>
</g>
</g>
<!-- Node51&#45;&gt;Node1 -->
<g id="edge36" class="edge">
<title>Node51&#45;&gt;Node1</title>
<path fill="none" stroke="#9a32cd" stroke-dasharray="5,2" d="M921.0079,-186.2543C948.9983,-186.3442 983.2082,-189.8403 1011,-203 1034.7667,-214.2537 1054.2802,-239.345 1063.7716,-253.2511"/>
<polygon fill="#9a32cd" stroke="#9a32cd" points="920.9615,-182.7545 911.0004,-186.3637 921.0381,-189.7541 920.9615,-182.7545"/>
<text text-anchor="middle" x="970" y="-206" font-family="Helvetica,sans-Serif" font-size="10.00" fill="#000000"> line_number_slots</text>
</g>
<!-- Node42 -->
<g id="node23" class="node">
<title>Node42</title>
<g id="a_node23"><a xlink:href="structJSClosureVar.html" target="_top" xlink:title="JSClosureVar">
<polygon fill="none" stroke="#000000" points="829.5,-142.5 829.5,-161.5 906.5,-161.5 906.5,-142.5 829.5,-142.5"/>
<text text-anchor="middle" x="868" y="-149.5" font-family="Helvetica,sans-Serif" font-size="10.00" fill="#000000">JSClosureVar</text>
</a>
</g>
</g>
<!-- Node42&#45;&gt;Node1 -->
<g id="edge37" class="edge">
<title>Node42&#45;&gt;Node1</title>
<path fill="none" stroke="#9a32cd" stroke-dasharray="5,2" d="M916.8511,-148.5728C946.2384,-148.8001 983.2089,-153.3305 1011,-171 1042.3839,-190.9538 1060.2959,-234.282 1066.9682,-253.4961"/>
<polygon fill="#9a32cd" stroke="#9a32cd" points="916.7703,-145.0732 906.8002,-148.6574 916.8293,-152.073 916.7703,-145.0732"/>
<text text-anchor="middle" x="970" y="-174" font-family="Helvetica,sans-Serif" font-size="10.00" fill="#000000"> closure_var</text>
</g>
<!-- Node52&#45;&gt;Node1 -->
<g id="edge38" class="edge">
<title>Node52&#45;&gt;Node1</title>
<path fill="none" stroke="#9a32cd" stroke-dasharray="5,2" d="M485.3147,-92.0809C621.6549,-103.6786 1000.2399,-136.479 1011,-144 1049.3675,-170.8179 1063.9857,-229.9314 1068.3941,-253.2586"/>
<polygon fill="#9a32cd" stroke="#9a32cd" points="485.4233,-88.5776 475.1628,-91.2185 484.8307,-95.5525 485.4233,-88.5776"/>
<text text-anchor="middle" x="784" y="-123" font-family="Helvetica,sans-Serif" font-size="10.00" fill="#000000"> module</text>
</g>
<!-- Node54 -->
<g id="node26" class="node">
<title>Node54</title>
<g id="a_node26"><a xlink:href="structJSReqModuleEntry.html" target="_top" xlink:title="JSReqModuleEntry">
<polygon fill="none" stroke="#000000" points="642,-55.5 642,-74.5 743,-74.5 743,-55.5 642,-55.5"/>
<text text-anchor="middle" x="692.5" y="-62.5" font-family="Helvetica,sans-Serif" font-size="10.00" fill="#000000">JSReqModuleEntry</text>
</a>
</g>
</g>
<!-- Node52&#45;&gt;Node54 -->
<g id="edge44" class="edge">
<title>Node52&#45;&gt;Node54</title>
<path fill="none" stroke="#9a32cd" stroke-dasharray="5,2" d="M485.2798,-83.6539C529.9573,-79.632 596.1471,-73.6736 641.6323,-69.5791"/>
<polygon fill="#9a32cd" stroke="#9a32cd" points="484.8968,-80.1741 475.2509,-84.5567 485.5245,-87.1459 484.8968,-80.1741"/>
<text text-anchor="middle" x="577.5" y="-83" font-family="Helvetica,sans-Serif" font-size="10.00" fill="#000000"> module</text>
</g>
<!-- Node53 -->
<g id="node25" class="node">
<title>Node53</title>
<g id="a_node25"><a xlink:href="structJSStarExportEntry.html" target="_top" xlink:title="JSStarExportEntry">
<polygon fill="none" stroke="#000000" points="137,-.5 137,-19.5 235,-19.5 235,-.5 137,-.5"/>
<text text-anchor="middle" x="186" y="-7.5" font-family="Helvetica,sans-Serif" font-size="10.00" fill="#000000">JSStarExportEntry</text>
</a>
</g>
</g>
<!-- Node53&#45;&gt;Node52 -->
<g id="edge42" class="edge">
<title>Node53&#45;&gt;Node52</title>
<path fill="none" stroke="#9a32cd" stroke-dasharray="5,2" d="M245.0462,-19.538C274.8478,-25.1654 311.3066,-33.3023 343,-44 370.6574,-53.3354 400.9534,-68.4756 419.473,-78.3355"/>
<polygon fill="#9a32cd" stroke="#9a32cd" points="245.6799,-16.0959 235.2112,-17.7257 244.4114,-22.98 245.6799,-16.0959"/>
<text text-anchor="middle" x="299.5" y="-47" font-family="Helvetica,sans-Serif" font-size="10.00" fill="#000000"> star_export_entries</text>
</g>
<!-- Node54&#45;&gt;Node52 -->
<g id="edge43" class="edge">
<title>Node54&#45;&gt;Node52</title>
<path fill="none" stroke="#9a32cd" stroke-dasharray="5,2" d="M631.6708,-55.6529C629.0824,-55.4028 626.5172,-55.1828 624,-55 582.7752,-52.0068 571.7458,-48.0556 531,-55 504.9135,-59.446 476.4323,-70.365 457.7369,-78.4317"/>
<polygon fill="#9a32cd" stroke="#9a32cd" points="631.3956,-59.1436 641.7165,-56.7502 632.1558,-52.1849 631.3956,-59.1436"/>
<text text-anchor="middle" x="577.5" y="-58" font-family="Helvetica,sans-Serif" font-size="10.00" fill="#000000"> req_module_entries</text>
</g>
<!-- Node55 -->
<g id="node27" class="node">
<title>Node55</title>
<g id="a_node27"><a xlink:href="structJSImportEntry.html" target="_top" xlink:title="JSImportEntry">
<polygon fill="none" stroke="#000000" points="146,-76.5 146,-95.5 226,-95.5 226,-76.5 146,-76.5"/>
<text text-anchor="middle" x="186" y="-83.5" font-family="Helvetica,sans-Serif" font-size="10.00" fill="#000000">JSImportEntry</text>
</a>
</g>
</g>
<!-- Node55&#45;&gt;Node52 -->
<g id="edge45" class="edge">
<title>Node55&#45;&gt;Node52</title>
<path fill="none" stroke="#9a32cd" stroke-dasharray="5,2" d="M236.2004,-86.4C284.1117,-86.7818 355.2536,-87.3486 398.7393,-87.6951"/>
<polygon fill="#9a32cd" stroke="#9a32cd" points="236.0768,-82.899 226.0492,-86.3191 236.021,-89.8988 236.0768,-82.899"/>
<text text-anchor="middle" x="299.5" y="-91" font-family="Helvetica,sans-Serif" font-size="10.00" fill="#000000"> import_entries</text>
</g>
<!-- Node56 -->
<g id="node28" class="node">
<title>Node56</title>
<g id="a_node28"><a xlink:href="structJSExportEntry.html" target="_top" xlink:title="JSExportEntry">
<polygon fill="none" stroke="#ff0000" points="146,-38.5 146,-57.5 226,-57.5 226,-38.5 146,-38.5"/>
<text text-anchor="middle" x="186" y="-45.5" font-family="Helvetica,sans-Serif" font-size="10.00" fill="#000000">JSExportEntry</text>
</a>
</g>
</g>
<!-- Node56&#45;&gt;Node52 -->
<g id="edge46" class="edge">
<title>Node56&#45;&gt;Node52</title>
<path fill="none" stroke="#9a32cd" stroke-dasharray="5,2" d="M236.114,-55.4401C266.9595,-60.0744 307.294,-66.2325 343,-72 361.3034,-74.9565 381.5835,-78.3886 398.6073,-81.3142"/>
<polygon fill="#9a32cd" stroke="#9a32cd" points="236.4459,-51.9509 226.0375,-53.9297 235.4082,-58.8735 236.4459,-51.9509"/>
<text text-anchor="middle" x="299.5" y="-75" font-family="Helvetica,sans-Serif" font-size="10.00" fill="#000000"> export_entries</text>
</g>
<!-- Node43 -->
<g id="node29" class="node">
<title>Node43</title>
<g id="a_node29"><a xlink:href="structJSVarDef.html" target="_top" xlink:title="JSVarDef">
<polygon fill="none" stroke="#000000" points="838.5,-66.5 838.5,-85.5 897.5,-85.5 897.5,-66.5 838.5,-66.5"/>
<text text-anchor="middle" x="868" y="-73.5" font-family="Helvetica,sans-Serif" font-size="10.00" fill="#000000">JSVarDef</text>
</a>
</g>
</g>
<!-- Node43&#45;&gt;Node1 -->
<g id="edge47" class="edge">
<title>Node43&#45;&gt;Node1</title>
<path fill="none" stroke="#9a32cd" stroke-dasharray="5,2" d="M907.8188,-64.9427C938.9443,-58.8248 981.703,-56.2767 1011,-78 1040.5169,-99.8864 1062.5472,-218.6519 1068.4371,-253.4281"/>
<polygon fill="#9a32cd" stroke="#9a32cd" points="906.778,-61.5869 897.7455,-67.1244 908.2598,-68.4282 906.778,-61.5869"/>
<text text-anchor="middle" x="970" y="-92" font-family="Helvetica,sans-Serif" font-size="10.00" fill="#000000"> args</text>
<text text-anchor="middle" x="970" y="-81" font-family="Helvetica,sans-Serif" font-size="10.00" fill="#000000">vars</text>
</g>
<!-- Node57 -->
<g id="node30" class="node">
<title>Node57</title>
<g id="a_node30"><a xlink:href="structJSVarScope.html" target="_top" xlink:title="JSVarScope">
<polygon fill="none" stroke="#000000" points="832.5,-22.5 832.5,-41.5 903.5,-41.5 903.5,-22.5 832.5,-22.5"/>
<text text-anchor="middle" x="868" y="-29.5" font-family="Helvetica,sans-Serif" font-size="10.00" fill="#000000">JSVarScope</text>
</a>
</g>
</g>
<!-- Node57&#45;&gt;Node1 -->
<g id="edge48" class="edge">
<title>Node57&#45;&gt;Node1</title>
<path fill="none" stroke="#9a32cd" stroke-dasharray="5,2" d="M910.5149,-20.3964C941.6206,-14.6219 983.0923,-12.9228 1011,-35 1046.5939,-63.1576 1064.8235,-213.9386 1069.0378,-253.4931"/>
<polygon fill="#9a32cd" stroke="#9a32cd" points="909.485,-17.0351 900.3979,-22.4825 910.8988,-23.8908 909.485,-17.0351"/>
<text text-anchor="middle" x="970" y="-49" font-family="Helvetica,sans-Serif" font-size="10.00" fill="#000000"> def_scope_array</text>
<text text-anchor="middle" x="970" y="-38" font-family="Helvetica,sans-Serif" font-size="10.00" fill="#000000">scopes</text>
</g>
</g>
</svg>
        <g id="navigator" transform="translate(0 0)" fill="#404254">
                <rect fill="#f2f5e9" fill-opacity="0.5" stroke="#606060" stroke-width=".5" x="0" y="0" width="60" height="60"/>
                <use id="zoomplus" xlink:href="#zoomPlus" x="17" y="9" onmousedown="handleZoom(evt,'in')"/>
                <use id="zoomminus" xlink:href="#zoomMin" x="42" y="9" onmousedown="handleZoom(evt,'out')"/>
                <use id="reset" xlink:href="#resetDef" x="30" y="36" onmousedown="handleReset()"/>
                <g id="arrowUp" xlink:href="#dirArrow" transform="translate(30 24)" onmousedown="handlePan(0,-1)">
                  <use xlink:href="#rim" fill="#404040">
                        <set attributeName="fill" to="#808080" begin="arrowUp.mouseover" end="arrowUp.mouseout"/>
                  </use>
                  <path fill="none" stroke="white" stroke-width="1.5" d="M0,-3.0v7 M-2.5,-0.5L0,-3.0L2.5,-0.5"/>
                </g>
                <g id="arrowRight" xlink:href="#dirArrow" transform="rotate(90) translate(36 -43)" onmousedown="handlePan(1,0)">
                  <use xlink:href="#rim" fill="#404040">
                        <set attributeName="fill" to="#808080" begin="arrowRight.mouseover" end="arrowRight.mouseout"/>
                  </use>
                  <path fill="none" stroke="white" stroke-width="1.5" d="M0,-3.0v7 M-2.5,-0.5L0,-3.0L2.5,-0.5"/>
                </g>
                <g id="arrowDown" xlink:href="#dirArrow" transform="rotate(180) translate(-30 -48)" onmousedown="handlePan(0,1)">
                  <use xlink:href="#rim" fill="#404040">
                        <set attributeName="fill" to="#808080" begin="arrowDown.mouseover" end="arrowDown.mouseout"/>
                  </use>
                  <path fill="none" stroke="white" stroke-width="1.5" d="M0,-3.0v7 M-2.5,-0.5L0,-3.0L2.5,-0.5"/>
                </g>
                <g id="arrowLeft" xlink:href="#dirArrow" transform="rotate(270) translate(-36 17)" onmousedown="handlePan(-1,0)">
                  <use xlink:href="#rim" fill="#404040">
                        <set attributeName="fill" to="#808080" begin="arrowLeft.mouseover" end="arrowLeft.mouseout"/>
                  </use>
                  <path fill="none" stroke="white" stroke-width="1.5" d="M0,-3.0v7 M-2.5,-0.5L0,-3.0L2.5,-0.5"/>
                </g>
        </g>
        <svg viewBox="0 0 15 15" width="100%" height="30px" preserveAspectRatio="xMaxYMin meet">
         <g id="arrow_out" transform="scale(0.3 0.3)">
          <a xlink:href="structJSFunctionDef__coll__graph_org.svg" target="_base">
           <rect id="button" ry="5" rx="5" y="6" x="6" height="38" width="38"
                fill="#f2f5e9" fill-opacity="0.5" stroke="#606060" stroke-width="1.0"/>
           <path id="arrow"
             d="M 11.500037,31.436501 C 11.940474,20.09759 22.043105,11.32322 32.158766,21.979434 L 37.068811,17.246167 C 37.068811,17.246167 37.088388,32 37.088388,32 L 22.160133,31.978069 C 22.160133,31.978069 26.997745,27.140456 26.997745,27.140456 C 18.528582,18.264221 13.291696,25.230495 11.500037,31.436501 z"
             style="fill:#404040;"/>
          </a>
         </g>
        </svg>
</svg>
